<svg width="300" height="100" viewBox="0 0 300 100" fill="none" xmlns="http://www.w3.org/2000/svg">
<rect width="300" height="100" fill="white"/>
<g clip-path="url(#clip0_298_13468)">
<path fill-rule="evenodd" clip-rule="evenodd" d="M151.962 81.7012C154.102 82.0148 156.093 82.7867 157.833 83.9139V87.9781C155.751 85.9784 152.925 84.7479 149.812 84.7447L149.801 84.7613L149.789 84.7447C146.675 84.7476 143.849 85.9782 141.767 87.9781V83.9139C143.507 82.7865 145.499 82.0146 147.64 81.7011L145.899 79.2354L153.703 79.2355L151.962 81.7012Z" fill="#426091"/>
<path d="M149.8 79.8462C166.363 79.8462 179.791 66.419 179.791 49.8557C179.791 33.2924 166.363 19.8652 149.8 19.8652C133.237 19.8652 119.81 33.2924 119.81 49.8557C119.81 66.419 133.237 79.8462 149.8 79.8462Z" fill="#C0A062"/>
<path d="M149.8 77.7812C165.223 77.7812 177.726 65.2784 177.726 49.8554C177.726 34.4325 165.223 21.9297 149.8 21.9297C134.377 21.9297 121.874 34.4325 121.874 49.8554C121.874 65.2784 134.377 77.7812 149.8 77.7812Z" fill="#426091"/>
<path d="M149.8 75.9048C164.187 75.9048 175.85 64.242 175.85 49.8552C175.85 35.4684 164.187 23.8057 149.8 23.8057C135.413 23.8057 123.75 35.4684 123.75 49.8552C123.75 64.242 135.413 75.9048 149.8 75.9048Z" fill="white"/>
<path fill-rule="evenodd" clip-rule="evenodd" d="M159.353 23.6074C170.07 27.5101 177.726 37.7904 177.726 49.8555C177.726 61.9206 170.07 72.2004 159.353 76.1031V30.5575V23.6074Z" fill="#426091"/>
<path fill-rule="evenodd" clip-rule="evenodd" d="M140.247 23.6076C129.53 27.5102 121.874 37.7905 121.874 49.8556C121.874 61.9207 129.53 72.2005 140.247 76.1033V23.6076Z" fill="#426091"/>
<path fill-rule="evenodd" clip-rule="evenodd" d="M155.673 41.5598L172.857 41.5425L159.3 52.7281L164.045 68.6472L149.801 59.628L135.556 68.6469L140.302 52.7281L126.743 41.5425L143.929 41.5598L149.801 24.7891L155.673 41.5598Z" fill="white"/>
<path fill-rule="evenodd" clip-rule="evenodd" d="M149.801 28.6816L144.842 42.8466L130.328 42.8322L141.778 52.2778L137.771 65.7221L149.801 58.1049L161.831 65.7221L157.823 52.2781L169.272 42.8322L154.761 42.8466L149.801 28.6816Z" fill="#C0A062"/>
<path fill-rule="evenodd" clip-rule="evenodd" d="M147.047 52.1157L149.413 52.1311C149.47 52.1311 149.6 52.1264 149.686 52.1061C149.678 52.0296 149.639 51.9613 149.594 51.9005C149.466 51.7295 149.02 51.4817 148.834 51.3829C148.437 51.1725 147.938 50.8954 147.616 50.5781C147.36 50.324 147.164 50.0237 147.03 49.6868C146.996 49.6004 146.966 49.5127 146.941 49.4238C146.851 49.7814 146.706 50.1304 146.504 50.4326C146.833 50.9245 147.011 51.5407 147.047 52.1157ZM145.731 54.6076C145.253 54.8522 144.711 54.9441 144.165 54.9441H144.138L140.247 54.9619L140.588 52.2837H144.16C144.183 52.2836 144.235 52.2809 144.265 52.2716C144.276 52.2393 144.279 52.1821 144.279 52.1568C144.279 52.006 144.231 51.6975 144.027 51.6975H143.078V49.1677H144.027C144.231 49.1677 144.279 48.8592 144.279 48.7084C144.279 48.683 144.276 48.6259 144.265 48.5936C144.235 48.5844 144.184 48.5816 144.163 48.5815H140.588L139.24 45.9033L144.165 45.9211C144.912 45.9211 145.652 46.0929 146.228 46.5924C146.601 46.9145 146.837 47.3153 146.958 47.7619C147.086 47.3572 147.313 46.9924 147.64 46.6804C148.189 46.1576 148.878 45.9261 149.629 45.9261L153.453 45.9064L152.935 46.9355C153.608 46.272 154.452 45.9261 155.434 45.9261L160.36 45.9083L159.012 48.5865H155.454C155.147 48.6032 154.943 48.7588 154.765 49.0053C154.467 49.4199 154.375 49.9315 154.375 50.4326C154.375 50.9337 154.467 51.4453 154.765 51.8593C154.943 52.1061 155.147 52.2618 155.453 52.2781L159.012 52.2789L159.353 54.9569L155.435 54.9391C154.301 54.9391 153.35 54.478 152.635 53.5994C152.485 53.415 152.352 53.2231 152.237 53.0244C152.087 53.411 151.842 53.755 151.504 54.0463C150.923 54.5516 150.197 54.763 149.437 54.7879L149.425 54.7884L145.637 54.7939L145.731 54.6076ZM151.612 49.9864C151.643 49.5014 151.733 49.0319 151.891 48.5865H150.243L149.631 48.5871C149.62 48.5871 149.602 48.5894 149.585 48.5938C149.731 48.7947 150.254 49.0876 150.419 49.1728C150.816 49.3778 151.252 49.6333 151.573 49.9479C151.586 49.9605 151.599 49.9735 151.612 49.9864Z" fill="white"/>
<path d="M140.494 46.6797L144.136 46.6929H144.15H144.164C144.83 46.6929 145.351 46.8531 145.723 47.1762C146.096 47.4982 146.283 47.9502 146.283 48.5292C146.283 49.2188 146.002 50.0714 145.443 50.4331C146.002 50.7947 146.283 51.6473 146.283 52.337C146.283 52.916 146.096 53.3679 145.723 53.6899C145.351 54.0131 144.83 54.1732 144.164 54.1732H144.15H144.136L140.494 54.1865L141.064 53.0556H143.072H144.164C144.762 53.0505 145.05 52.6831 145.05 52.1572C145.05 51.5551 144.708 50.9266 144.027 50.9266H143.849V50.4331V49.9395H144.027C144.708 49.9395 145.05 49.311 145.05 48.7089C145.05 48.183 144.762 47.8156 144.164 47.8106H143.072H141.064L140.494 46.6797ZM159.106 54.1814L155.436 54.1682C154.541 54.1682 153.806 53.817 153.233 53.1121C152.657 52.4077 152.371 51.5333 152.371 50.486L152.371 50.4331L152.371 50.3801C152.371 49.3327 152.657 48.4584 153.233 47.754C153.806 47.0491 154.541 46.6979 155.436 46.6979L159.106 46.6847L158.536 47.8156H155.436V47.8162C154.912 47.837 154.48 48.0823 154.139 48.5556C153.783 49.0505 153.604 49.6756 153.604 50.4331C153.604 51.1906 153.783 51.8156 154.139 52.3105C154.48 52.7838 154.912 53.0291 155.436 53.0499V53.0505H158.536L159.106 54.1814ZM149.412 52.9029C150.11 52.9029 150.458 52.6452 150.458 52.1307C150.458 51.8881 150.375 51.6588 150.212 51.4392C150.048 51.2202 149.708 50.9743 149.195 50.7019C148.682 50.43 148.336 50.2052 148.158 50.0303C147.981 49.8541 147.844 49.6465 147.747 49.4037C147.652 49.1626 147.603 48.8953 147.603 48.602C147.603 48.0539 147.794 47.6002 148.172 47.2392C148.551 46.8778 149.038 46.6979 149.632 46.6979L152.198 46.6847L151.629 47.8156H150.242L149.632 47.8162C149.238 47.8159 148.791 48.0732 148.791 48.5917C148.791 48.9979 149.215 49.42 150.065 49.8586C150.513 50.0898 150.835 50.305 151.033 50.4989C151.231 50.6935 151.382 50.9214 151.485 51.1804C151.59 51.4392 151.641 51.7297 151.641 52.048C151.641 52.6226 151.428 53.0942 150.999 53.4639C150.598 53.8119 150.069 53.9958 149.412 54.0175L146.89 54.0211L147.459 52.8903L149.412 52.9029Z" fill="#426091"/>
<path fill-rule="evenodd" clip-rule="evenodd" d="M149.8 19.0566C166.807 19.0566 180.599 32.8488 180.599 49.8559C180.599 66.8631 166.807 80.6552 149.8 80.6552C132.793 80.6552 119.001 66.8631 119.001 49.8559C119.001 32.8488 132.793 19.0566 149.8 19.0566ZM149.8 19.8671C166.36 19.8671 179.789 33.2963 179.789 49.856C179.789 66.4157 166.36 79.8449 149.8 79.8449C133.24 79.8449 119.811 66.4157 119.811 49.856C119.811 33.2964 133.24 19.8671 149.8 19.8671Z" fill="#426091"/>
<path fill-rule="evenodd" clip-rule="evenodd" d="M149.8 70.7861C157.618 70.7861 164.899 73.0849 171.008 77.0417V87.7718C165.505 82.4852 158.032 79.2346 149.8 79.2346C141.568 79.2346 134.095 82.4852 128.592 87.7718V77.0417C134.701 73.0849 141.982 70.7861 149.8 70.7861Z" fill="white"/>
<path fill-rule="evenodd" clip-rule="evenodd" d="M149.8 70C157.499 70 164.973 72.1961 171.436 76.3821L171.795 76.6145V89.619L170.463 88.3397C164.889 82.9847 157.531 80.0219 149.8 80.0219C142.069 80.0219 134.711 82.9847 129.137 88.3397L127.805 89.619V76.6145L128.164 76.3821C134.627 72.1961 142.101 70 149.8 70ZM149.8 70.7867C157.618 70.7867 164.899 73.0855 171.008 77.0423V87.7724C165.505 82.4858 158.032 79.2352 149.8 79.2352C141.568 79.2352 134.095 82.4858 128.592 87.7724V77.0423C134.701 73.0855 141.982 70.7867 149.8 70.7867Z" fill="#426091"/>
<path fill-rule="evenodd" clip-rule="evenodd" d="M149.8 10C157.499 10 164.973 12.1962 171.436 16.3821L171.795 16.6146V29.619L170.463 28.3397C164.889 22.9848 157.531 20.022 149.8 20.022C142.069 20.022 134.711 22.9848 129.137 28.3397L127.805 29.619V16.6146L128.164 16.3821C134.627 12.1962 142.101 10 149.8 10ZM149.8 10.7867C157.618 10.7867 164.899 13.0856 171.008 17.0424V27.7724C165.505 22.4858 158.032 19.2353 149.8 19.2353C141.568 19.2353 134.095 22.4859 128.592 27.7724V17.0424C134.701 13.0856 141.982 10.7867 149.8 10.7867Z" fill="#426091"/>
<path fill-rule="evenodd" clip-rule="evenodd" d="M149.8 10.7871C157.618 10.7871 164.899 13.086 171.008 17.0428V27.7728C165.505 22.4862 158.032 19.2357 149.8 19.2357C141.568 19.2357 134.095 22.4863 128.592 27.7728V17.0428C134.701 13.086 141.982 10.7871 149.8 10.7871Z" fill="white"/>
<path fill-rule="evenodd" clip-rule="evenodd" d="M166.251 20.4772V19.534L166.596 19.9367C166.711 20.0718 166.834 20.2023 166.967 20.3209C167.082 20.4242 167.204 20.5192 167.334 20.6035C167.398 20.6453 167.466 20.6836 167.536 20.7147C167.57 20.7298 167.614 20.7467 167.658 20.7509C167.661 20.7314 167.662 20.7042 167.662 20.6914C167.662 20.6389 167.652 20.5904 167.63 20.5431C167.602 20.4815 167.564 20.4248 167.52 20.3725C167.465 20.3063 167.405 20.2447 167.343 20.1864C167.269 20.1178 167.194 20.0499 167.118 19.982C167.011 19.8849 166.907 19.7844 166.807 19.6799C166.704 19.5723 166.612 19.455 166.532 19.3294C166.45 19.2013 166.385 19.0637 166.338 18.9193C166.286 18.7619 166.263 18.5973 166.263 18.432C166.263 18.2689 166.283 18.0897 166.361 17.9447C166.43 17.8144 166.535 17.7148 166.677 17.6689C166.813 17.6263 166.958 17.6381 167.092 17.6785C167.247 17.7237 167.397 17.8049 167.532 17.8925C167.692 17.9968 167.844 18.1145 167.987 18.2411C168.126 18.3635 168.26 18.4938 168.381 18.6342L168.429 18.6893V19.7798L168.087 19.3971C167.966 19.2611 167.838 19.1297 167.702 19.0089C167.595 18.915 167.482 18.8245 167.363 18.7469C167.328 18.7243 167.223 18.6613 167.158 18.6429C167.157 18.6557 167.157 18.6686 167.157 18.6763C167.157 18.7301 167.166 18.7827 167.186 18.8328C167.21 18.8913 167.242 18.9465 167.279 18.997C167.325 19.0582 167.376 19.1148 167.43 19.1676C167.495 19.2307 167.562 19.2927 167.63 19.3537C167.745 19.4572 167.857 19.5645 167.966 19.6745C168.077 19.7873 168.179 19.9092 168.267 20.0406C168.357 20.1752 168.429 20.3201 168.481 20.4736C168.539 20.6424 168.562 20.82 168.562 20.9979C168.562 21.1647 168.54 21.3477 168.454 21.495C168.373 21.6319 168.25 21.723 168.092 21.7525C167.938 21.7808 167.775 21.7469 167.63 21.6939C167.453 21.6296 167.284 21.5349 167.127 21.4329C166.966 21.3284 166.814 21.2102 166.67 21.0823C166.587 21.008 166.506 20.9295 166.431 20.8465L166.48 20.9477L165.271 20.3318L164.492 18.6891L164.476 18.6811V19.9267L163.559 19.4598V19.416L162.588 19.0431L162.294 18.1105L161.428 17.7781L161.135 18.4853L160.18 18.1191L161.528 15L162.293 15.2938L163.559 19.1995V15.8036L164.716 16.3927C164.86 16.4664 165.002 16.5473 165.137 16.6367C165.258 16.7161 165.376 16.8037 165.482 16.9027C165.66 17.0691 165.809 17.2609 165.915 17.4802C166.021 17.6973 166.071 17.9287 166.071 18.1701C166.071 18.4012 166.019 18.6401 165.841 18.8018C165.745 18.8884 165.63 18.9324 165.51 18.949L166.251 20.4772ZM143.157 14.4261V13.5542L146.179 13.0754V13.965L145.155 14.1271V16.8507L144.183 17.005V14.2812L143.165 14.4424C143.188 14.4902 143.209 14.5397 143.227 14.5904C143.31 14.8181 143.339 15.0631 143.339 15.3044C143.339 15.5617 143.305 15.8162 143.23 16.0627C143.158 16.3002 143.052 16.5233 142.908 16.7258C142.764 16.9284 142.587 17.1011 142.384 17.2444C142.17 17.3942 141.932 17.5 141.68 17.5675C141.446 17.6303 141.197 17.661 140.955 17.6212C140.742 17.5852 140.547 17.5019 140.383 17.3594C140.219 17.2162 140.106 17.0334 140.032 16.8299C139.95 16.602 139.92 16.3571 139.92 16.1157C139.92 15.8586 139.954 15.6038 140.029 15.3575C140.101 15.12 140.208 14.8968 140.352 14.6942C140.496 14.4919 140.672 14.3192 140.875 14.1758C141.089 14.026 141.327 13.9202 141.579 13.8526C141.814 13.7899 142.063 13.7592 142.304 13.799C142.517 13.8349 142.714 13.918 142.877 14.061C142.995 14.1644 143.087 14.2885 143.157 14.4261ZM132.476 20.0736C132.436 20.0806 132.395 20.0936 132.358 20.1071C132.283 20.1349 132.209 20.1639 132.135 20.1936C132.029 20.2352 131.921 20.2716 131.81 20.2999C131.696 20.3286 131.574 20.337 131.459 20.3059C131.332 20.2713 131.234 20.1876 131.167 20.0733C131.094 19.9445 131.077 19.7794 131.077 19.6339C131.077 19.446 131.104 19.2612 131.161 19.0823C131.215 18.9109 131.289 18.7472 131.383 18.5941C131.477 18.4435 131.587 18.304 131.712 18.1791C131.839 18.0509 131.98 17.9377 132.132 17.8393C132.279 17.7439 132.434 17.6593 132.596 17.5919C132.73 17.536 132.876 17.4856 133.02 17.4656L133.242 17.4347V18.3279L133.081 18.3569C132.957 18.3791 132.836 18.4142 132.72 18.4622C132.605 18.5105 132.494 18.5684 132.389 18.6365C132.268 18.7155 132.151 18.813 132.068 18.9332C132.007 19.0217 131.971 19.1177 131.971 19.2256C131.971 19.2333 131.971 19.2454 131.972 19.2574C131.997 19.2544 132.025 19.2464 132.046 19.2398C132.111 19.2181 132.176 19.1946 132.24 19.1679C132.353 19.1228 132.469 19.0823 132.587 19.0487C132.706 19.0147 132.832 18.9982 132.954 19.0219C133.094 19.0483 133.204 19.1299 133.276 19.2509C133.359 19.3859 133.376 19.5667 133.376 19.7219C133.376 19.9143 133.346 20.1031 133.285 20.286C133.224 20.467 133.139 20.6372 133.033 20.7955C132.922 20.9606 132.789 21.1111 132.644 21.2468C132.492 21.3887 132.328 21.5159 132.153 21.6291C132.006 21.7247 131.851 21.8091 131.688 21.8752C131.555 21.9292 131.402 21.9765 131.258 21.9742L131.065 21.9711V21.1092L131.235 21.087C131.353 21.0718 131.467 21.0412 131.576 20.9971C131.702 20.9465 131.821 20.8806 131.935 20.8069C132.007 20.7597 132.077 20.7073 132.143 20.6506C132.208 20.5954 132.267 20.535 132.32 20.4684C132.367 20.408 132.407 20.342 132.437 20.2709C132.462 20.2083 132.476 20.1439 132.476 20.0761C132.476 20.0753 132.476 20.0745 132.476 20.0736ZM134.485 17.8898L135.421 17.4128V16.0882L136.338 15.6213V19.2774L135.421 19.7444V18.3452L134.485 18.8223V20.2214L133.568 20.6884V17.0322L134.485 16.5653V17.8898ZM139.832 16.2547C139.832 16.5135 139.798 16.7699 139.727 17.0188C139.657 17.2617 139.554 17.4917 139.416 17.7036C139.278 17.9156 139.108 18.1019 138.911 18.2615C138.707 18.4268 138.477 18.5531 138.231 18.643C138.007 18.7244 137.763 18.7785 137.522 18.7592C137.313 18.7412 137.117 18.6739 136.952 18.5412C136.788 18.4077 136.677 18.2302 136.605 18.0325C136.523 17.808 136.495 17.5645 136.495 17.3268C136.495 17.068 136.529 16.8115 136.601 16.5626C136.67 16.3198 136.774 16.0897 136.912 15.8777C137.05 15.6658 137.219 15.4797 137.416 15.32C137.62 15.1546 137.85 15.0283 138.097 14.9384C138.321 14.857 138.565 14.8028 138.805 14.8223C139.014 14.8399 139.211 14.9071 139.375 15.0405C139.54 15.174 139.651 15.3511 139.723 15.5489C139.804 15.7732 139.832 16.017 139.832 16.2547ZM146.227 16.6865V13.0766L147.206 12.9909V16.6007L146.227 16.6865ZM149.813 14.7682C149.811 14.6963 149.811 14.6246 149.811 14.5529V12.9039L150.79 12.8867V16.4952L149.878 16.5111L148.771 14.9656C148.7 14.869 148.632 14.7709 148.566 14.6716C148.567 14.7427 148.568 14.8139 148.568 14.885V16.534L147.587 16.551V12.9427L148.5 12.9268L149.617 14.4874C149.683 14.5801 149.749 14.6738 149.813 14.7682ZM153.156 15.4571L152.438 15.3817V14.495L154.133 14.6732V16.6248L153.986 16.6622C153.919 16.679 153.852 16.6917 153.785 16.7017C153.696 16.7158 153.607 16.7243 153.518 16.7293C153.42 16.7357 153.32 16.7378 153.221 16.7375C153.118 16.7363 153.015 16.7308 152.913 16.7201C152.633 16.6907 152.354 16.6268 152.098 16.507C151.873 16.4016 151.67 16.2613 151.501 16.0773C151.34 15.9007 151.219 15.6983 151.14 15.4725C151.059 15.2403 151.023 14.9971 151.023 14.7515C151.023 14.5763 151.043 14.4016 151.086 14.2314C151.126 14.0717 151.187 13.9182 151.272 13.7768C151.354 13.6394 151.455 13.5159 151.574 13.409C151.695 13.3002 151.831 13.213 151.979 13.1465C152.135 13.0762 152.301 13.0315 152.469 13.0081C152.654 12.9816 152.842 12.9822 153.028 13.0017C153.193 13.0191 153.356 13.0478 153.517 13.0901C153.648 13.1253 153.783 13.1671 153.906 13.2248L154.018 13.2777V14.1995L153.745 14.0824C153.631 14.0336 153.514 13.9928 153.395 13.9601C153.279 13.9291 153.162 13.9068 153.042 13.8943C152.901 13.8794 152.758 13.884 152.62 13.9165C152.505 13.9446 152.397 13.993 152.305 14.0684C152.213 14.1428 152.146 14.238 152.098 14.3446C152.039 14.4773 152.019 14.6272 152.019 14.771C152.021 15.0402 152.074 15.321 152.263 15.5241C152.45 15.7237 152.709 15.8077 152.975 15.8356C153.036 15.8418 153.096 15.8447 153.156 15.8457L153.156 15.4571ZM156.912 16.189C156.912 16.1527 156.907 16.1171 156.887 16.087C156.858 16.0447 156.821 16.0101 156.779 15.9813C156.717 15.9386 156.65 15.9032 156.582 15.8721C156.495 15.8333 156.409 15.7956 156.321 15.7581C156.196 15.704 156.073 15.6444 155.953 15.5784C155.83 15.5102 155.715 15.4261 155.615 15.3262C155.513 15.2234 155.432 15.1034 155.373 14.9703C155.306 14.8197 155.28 14.6551 155.28 14.4912C155.28 14.3145 155.308 14.1345 155.389 13.9765C155.461 13.8365 155.563 13.72 155.697 13.6367C155.83 13.5553 155.979 13.5118 156.133 13.4985C156.303 13.4826 156.477 13.5009 156.644 13.5365C156.828 13.5757 157.008 13.6326 157.182 13.7043C157.345 13.771 157.505 13.849 157.652 13.9448L157.741 14.0027V14.964L157.443 14.7802C157.302 14.6934 157.155 14.6147 157.002 14.5514C156.877 14.5 156.747 14.456 156.614 14.4276C156.53 14.4099 156.382 14.3871 156.3 14.4257C156.26 14.445 156.258 14.4937 156.258 14.5337C156.258 14.5731 156.264 14.6154 156.283 14.6501C156.306 14.6907 156.337 14.7255 156.373 14.7548C156.423 14.7952 156.479 14.8281 156.535 14.8562C156.611 14.8929 156.688 14.9278 156.766 14.9606C156.901 15.018 157.033 15.0808 157.163 15.1486C157.296 15.2182 157.42 15.3027 157.529 15.405C157.643 15.5108 157.732 15.6354 157.796 15.7766C157.871 15.9374 157.897 16.1153 157.897 16.2912C157.897 16.472 157.867 16.6555 157.778 16.8163C157.696 16.963 157.578 17.0765 157.428 17.1525C157.273 17.2302 157.099 17.2622 156.927 17.2677C156.73 17.2741 156.531 17.2494 156.339 17.2085C156.154 17.1692 155.973 17.1119 155.799 17.0387C155.639 16.9708 155.479 16.8871 155.342 16.7794L155.267 16.7207V15.7649L155.57 15.9644C155.704 16.0524 155.845 16.1317 155.993 16.1943C156.129 16.2518 156.269 16.2961 156.414 16.3269C156.49 16.3431 156.568 16.354 156.647 16.3567C156.704 16.3586 156.764 16.3551 156.818 16.3379C156.847 16.3289 156.871 16.3147 156.89 16.2902C156.909 16.2657 156.912 16.2183 156.912 16.189ZM158.8 15.0242L157.802 14.7379V13.8374L160.754 14.6839V15.5844L159.758 15.2987V18.0224L158.8 17.7478L158.8 15.0242ZM138.869 16.4626C138.869 16.3258 138.858 16.169 138.812 16.0383C138.786 15.9617 138.745 15.878 138.682 15.8241C138.633 15.7812 138.575 15.7606 138.512 15.7556C138.416 15.7492 138.32 15.7713 138.231 15.8037C138.119 15.8443 138.017 15.9027 137.925 15.9762C137.828 16.0536 137.749 16.1466 137.683 16.2504C137.609 16.3689 137.556 16.4995 137.519 16.6341C137.475 16.7911 137.458 16.9561 137.458 17.1188C137.458 17.2566 137.469 17.4122 137.515 17.5431C137.541 17.6191 137.582 17.7025 137.644 17.7553C137.695 17.7981 137.751 17.8192 137.818 17.8245C137.912 17.8322 138.009 17.8095 138.097 17.7777C138.208 17.7372 138.31 17.6788 138.402 17.6038C138.498 17.5268 138.579 17.4334 138.645 17.3294C138.719 17.2125 138.772 17.0822 138.809 16.9485C138.853 16.7911 138.869 16.6258 138.869 16.4626ZM142.302 15.0314C142.272 14.9462 142.229 14.858 142.161 14.7962C142.107 14.7457 142.044 14.7168 141.972 14.7052C141.874 14.6904 141.775 14.7029 141.68 14.7282C141.568 14.7582 141.465 14.8063 141.37 14.8717C141.273 14.9388 141.193 15.0227 141.127 15.119C141.051 15.2295 140.998 15.354 140.96 15.4822C140.915 15.6357 140.899 15.7987 140.899 15.9584C140.899 16.0993 140.911 16.2551 140.958 16.3887C140.987 16.4731 141.031 16.5612 141.097 16.6221C141.153 16.6723 141.216 16.7017 141.29 16.7137C141.386 16.7297 141.486 16.7169 141.579 16.692C141.691 16.6621 141.794 16.6141 141.889 16.5473C141.985 16.4803 142.067 16.3962 142.133 16.2996C142.209 16.1906 142.262 16.0666 142.299 15.9392C142.344 15.7851 142.361 15.6221 142.361 15.4618C142.361 15.3219 142.348 15.1654 142.302 15.0314ZM161.862 16.735C161.836 16.801 161.81 16.8669 161.782 16.9322L161.757 16.9918L161.965 17.0718C161.93 16.9598 161.896 16.8476 161.862 16.735ZM165.121 17.9967C165.137 17.9655 165.14 17.9137 165.14 17.8828C165.14 17.8197 165.128 17.7583 165.105 17.6994C165.08 17.6339 165.034 17.5748 164.985 17.5249C164.938 17.4773 164.883 17.4355 164.827 17.3983C164.744 17.3428 164.654 17.2941 164.566 17.249L164.476 17.2031V17.7493L164.628 17.8268C164.719 17.8733 164.815 17.9198 164.911 17.9548C164.961 17.9727 165.021 17.9922 165.072 17.997C165.083 17.998 165.106 17.9991 165.121 17.9967Z" fill="#426091"/>
<path fill-rule="evenodd" clip-rule="evenodd" d="M149.789 73.5761C149.798 73.5528 149.809 73.5297 149.82 73.5069C149.892 73.356 149.994 73.2252 150.126 73.1219C150.257 73.0206 150.406 72.9507 150.566 72.9097C150.737 72.8642 150.917 72.8507 151.094 72.8569C151.282 72.8635 151.469 72.8883 151.652 72.9306C151.82 72.969 151.988 73.0197 152.144 73.0919L152.275 73.1528V74.1459L151.959 74.0102C151.817 73.949 151.67 73.8976 151.519 73.8625C151.392 73.8335 151.261 73.8133 151.13 73.8087C151.036 73.8054 150.895 73.8106 150.812 73.8635C150.767 73.8921 150.76 73.9332 150.76 73.9847C150.76 74.0084 150.762 74.0455 150.775 74.0663C150.793 74.0936 150.817 74.1149 150.844 74.132C150.891 74.1611 150.944 74.1819 150.995 74.1979C151.071 74.2208 151.149 74.242 151.228 74.2606C151.366 74.2946 151.503 74.3342 151.638 74.3798C151.778 74.4275 151.911 74.493 152.03 74.5812C152.156 74.6742 152.255 74.7916 152.325 74.9309C152.407 75.091 152.434 75.2738 152.434 75.4522C152.434 75.6427 152.4 75.8316 152.313 76.0028C152.23 76.1614 152.113 76.2916 151.964 76.391C151.811 76.493 151.635 76.5564 151.455 76.593C151.257 76.6338 151.052 76.6453 150.849 76.6382C150.66 76.6317 150.473 76.6063 150.289 76.5625C150.122 76.5226 149.953 76.465 149.805 76.3769L149.694 76.3111V75.328L150.017 75.4801C150.152 75.5435 150.292 75.5961 150.437 75.6311C150.575 75.6645 150.716 75.683 150.858 75.688C150.936 75.6907 151.015 75.6874 151.093 75.6765C151.152 75.6684 151.213 75.6538 151.267 75.6276C151.301 75.6112 151.329 75.5894 151.351 75.558C151.371 75.5294 151.375 75.4886 151.375 75.4549C151.375 75.4374 151.374 75.4074 151.363 75.3933C151.341 75.3643 151.31 75.3434 151.277 75.3272C151.217 75.2969 151.152 75.2747 151.088 75.2571C151 75.2338 150.911 75.2116 150.822 75.1897C150.693 75.1574 150.565 75.1189 150.44 75.0731C150.309 75.0247 150.185 74.9575 150.076 74.8697C149.962 74.778 149.873 74.6635 149.808 74.532C149.735 74.3813 149.708 74.2124 149.708 74.0458C149.708 73.9666 149.713 73.8874 149.726 73.8095L148.753 73.8435V76.5671L147.712 76.6035V73.88L146.674 73.9161V72.9697L149.789 72.861L149.789 73.5761ZM136.419 78.0979C136.372 78.0974 136.323 78.1049 136.279 78.1138C136.199 78.1309 136.119 78.149 136.039 78.1677C135.922 78.1945 135.804 78.2152 135.685 78.2272C135.559 78.2397 135.428 78.2294 135.309 78.1834C135.178 78.1331 135.077 78.04 135.006 77.9182C134.928 77.7803 134.907 77.6109 134.907 77.4546C134.907 77.2636 134.936 77.0762 135.001 76.8967C135.061 76.7276 135.144 76.5689 135.251 76.424C135.355 76.2816 135.479 76.154 135.617 76.0447C135.76 75.9309 135.916 75.8367 136.082 75.7595C136.245 75.6833 136.415 75.621 136.59 75.5772C136.739 75.5395 136.898 75.5109 137.052 75.5118L137.277 75.5132V76.4626L137.057 76.4693C136.927 76.4733 136.798 76.4902 136.672 76.5214C136.551 76.552 136.434 76.5924 136.321 76.645C136.201 76.7008 136.078 76.7767 135.993 76.8796C135.935 76.9505 135.903 77.0271 135.903 77.1193C135.903 77.1269 135.903 77.139 135.904 77.1502C135.934 77.1531 135.97 77.149 135.997 77.1447C136.067 77.1325 136.136 77.1184 136.206 77.1012C136.33 77.0723 136.456 77.0485 136.582 77.032C136.715 77.0148 136.851 77.0179 136.979 77.0581C137.123 77.1024 137.235 77.1948 137.312 77.3235C137.4 77.4686 137.421 77.6533 137.421 77.8201C137.421 78.0157 137.388 78.2071 137.319 78.3909C137.251 78.569 137.156 78.7331 137.036 78.8817C136.912 79.0357 136.764 79.1707 136.605 79.2873C136.436 79.4105 136.255 79.5153 136.066 79.6034C135.902 79.6798 135.732 79.742 135.556 79.7845C135.406 79.8206 135.24 79.8443 135.087 79.8212L134.894 79.7922V78.8702L135.124 78.8735C135.246 78.8754 135.369 78.8621 135.488 78.8339C135.619 78.8026 135.746 78.7551 135.868 78.6985C135.944 78.663 136.017 78.6221 136.087 78.576C136.153 78.5329 136.214 78.4841 136.268 78.4278C136.314 78.3796 136.353 78.3254 136.382 78.2646C136.407 78.2123 136.419 78.1583 136.419 78.1003C136.419 78.0996 136.419 78.0987 136.419 78.0979ZM138.562 77.2395V78.487L137.549 78.8162V75.123L138.588 74.7855C138.723 74.7417 138.862 74.7011 139.001 74.6735C139.113 74.6514 139.227 74.635 139.341 74.6344C139.578 74.634 139.809 74.6949 139.983 74.8645C140.163 75.042 140.22 75.2889 140.22 75.5337C140.22 75.7195 140.182 75.9004 140.11 76.0712C140.036 76.2461 139.93 76.403 139.799 76.5409C139.659 76.6899 139.496 76.8145 139.321 76.919C139.124 77.0375 138.91 77.1283 138.692 77.1992C138.648 77.2135 138.605 77.2269 138.562 77.2395ZM138.562 76.2725C138.67 76.2365 138.78 76.1928 138.879 76.1364C138.948 76.0965 139.019 76.0479 139.074 75.9901C139.112 75.9505 139.143 75.9069 139.162 75.8562C139.179 75.8087 139.188 75.7603 139.188 75.7096C139.188 75.6897 139.186 75.6492 139.175 75.6263C139.161 75.6219 139.139 75.62 139.131 75.6196C139.084 75.6183 139.032 75.6277 138.987 75.6373C138.898 75.6559 138.808 75.6836 138.721 75.7118L138.562 75.7634L138.562 76.2725ZM143.734 75.3203C143.734 75.5798 143.699 75.8369 143.623 76.0851C143.549 76.3238 143.439 76.547 143.292 76.7486C143.144 76.9502 142.962 77.1199 142.753 77.2584C142.533 77.4037 142.289 77.5026 142.032 77.5619C141.789 77.6178 141.535 77.6392 141.288 77.5905C141.069 77.546 140.869 77.4541 140.701 77.3039C140.534 77.1533 140.418 76.9639 140.342 76.7533C140.258 76.5207 140.227 76.2718 140.227 76.0255C140.227 75.766 140.262 75.5088 140.339 75.2606C140.413 75.022 140.522 74.7986 140.67 74.5969C140.819 74.3956 141 74.226 141.208 74.0875C141.429 73.942 141.673 73.8433 141.93 73.784C142.172 73.728 142.427 73.7067 142.673 73.7553C142.893 73.7997 143.094 73.8915 143.261 74.042C143.428 74.1928 143.544 74.3819 143.619 74.5926C143.703 74.825 143.734 75.0741 143.734 75.3203ZM142.689 75.457C142.689 75.3195 142.677 75.1656 142.631 75.0339C142.603 74.9507 142.56 74.864 142.495 74.8025C142.443 74.7531 142.383 74.7235 142.314 74.7101C142.22 74.6927 142.124 74.7013 142.032 74.7226C141.923 74.7476 141.822 74.7903 141.73 74.8502C141.637 74.9112 141.56 74.9886 141.496 75.0786C141.422 75.1833 141.37 75.3021 141.333 75.4246C141.289 75.574 141.272 75.7333 141.272 75.8887C141.272 76.0272 141.285 76.1801 141.33 76.3116C141.359 76.3942 141.402 76.4807 141.465 76.5411C141.518 76.5904 141.578 76.6205 141.65 76.6344C141.742 76.653 141.839 76.6442 141.93 76.6233C142.038 76.5983 142.138 76.5557 142.231 76.4943C142.324 76.4336 142.402 76.3558 142.467 76.2654C142.54 76.1624 142.592 76.044 142.628 75.9225C142.673 75.7725 142.689 75.613 142.689 75.457ZM146.063 75.3177L147.091 76.6081L145.868 76.7801L145.002 75.6561L144.928 75.6665V76.9122L143.891 77.0578V73.3836L145.055 73.2201C145.213 73.1979 145.373 73.1836 145.532 73.1829C145.668 73.1816 145.808 73.1909 145.942 73.2224C146.161 73.276 146.357 73.3827 146.5 73.5614C146.648 73.7487 146.701 73.9809 146.701 74.2161C146.701 74.481 146.628 74.7271 146.475 74.9438C146.365 75.098 146.222 75.2202 146.063 75.3177ZM144.928 74.1886V74.7168L144.957 74.7125C145.061 74.6979 145.167 74.6801 145.269 74.6525C145.333 74.635 145.399 74.6132 145.458 74.5833C145.509 74.5563 145.578 74.5126 145.607 74.4588C145.635 74.4054 145.648 74.3486 145.648 74.288C145.648 74.2527 145.643 74.2108 145.625 74.1796C145.617 74.1658 145.585 74.1542 145.571 74.1499C145.528 74.1364 145.474 74.1337 145.429 74.1339C145.336 74.1335 145.24 74.1446 145.149 74.1576L144.928 74.1886ZM155.191 74.2062C155.075 74.1879 154.955 74.1862 154.84 74.2132C154.748 74.2348 154.666 74.2746 154.595 74.3379C154.519 74.4057 154.467 74.4947 154.431 74.5897C154.381 74.7183 154.365 74.8656 154.365 75.0028C154.365 75.1505 154.382 75.302 154.428 75.4429C154.466 75.5586 154.52 75.6676 154.598 75.7617C154.672 75.851 154.763 75.9227 154.866 75.9769C154.984 76.0395 155.113 76.0774 155.245 76.0983C155.356 76.116 155.467 76.1243 155.579 76.1251C155.683 76.1254 155.787 76.1182 155.889 76.0997L156.156 76.0523V77.0288L155.958 77.0544C155.829 77.0712 155.698 77.0773 155.567 77.0758C155.423 77.0733 155.279 77.0595 155.137 77.037C154.865 76.994 154.598 76.915 154.355 76.7836C154.134 76.6648 153.937 76.512 153.776 76.3195C153.619 76.1319 153.503 75.919 153.426 75.6865C153.347 75.4463 153.312 75.1963 153.312 74.9437C153.312 74.6906 153.348 74.4375 153.436 74.1996C153.518 73.9793 153.64 73.7817 153.811 73.6189C153.985 73.4535 154.197 73.3451 154.428 73.2839C154.689 73.2143 154.963 73.2159 155.228 73.2563C155.369 73.2785 155.508 73.3099 155.643 73.3523C155.767 73.3906 155.888 73.4376 156.003 73.4963L156.127 73.5592V74.5563L155.804 74.4022C155.7 74.3528 155.591 74.3078 155.48 74.2744C155.386 74.2452 155.289 74.2219 155.191 74.2062ZM157.301 76.4657L158.761 76.8298V77.7898L156.276 77.1702V73.4866L157.301 73.742V76.4657ZM160.277 78.2747C160.113 78.2182 159.953 78.1469 159.804 78.0573C159.667 77.975 159.54 77.8792 159.426 77.7673C159.318 77.661 159.222 77.5422 159.143 77.4122C159.065 77.2846 159.004 77.1485 158.958 77.007C158.918 76.888 158.892 76.7659 158.877 76.6423C158.86 76.5093 158.853 76.3751 158.853 76.2411V74.0288L159.863 74.3764V76.3795C159.863 76.5364 159.875 76.7158 159.927 76.864C159.968 76.979 160.029 77.0857 160.12 77.1689C160.21 77.252 160.315 77.3116 160.431 77.3515C160.511 77.3787 160.614 77.4032 160.698 77.3841C160.748 77.3728 160.776 77.3301 160.796 77.2881C160.845 77.1801 160.851 76.9923 160.851 76.8757V74.7168L161.861 75.0644V77.1209C161.861 77.2505 161.856 77.3812 161.838 77.5091C161.822 77.6226 161.795 77.735 161.751 77.8395C161.7 77.9605 161.628 78.0704 161.533 78.1619C161.434 78.2549 161.315 78.3181 161.186 78.3536C161.048 78.3926 160.904 78.3981 160.762 78.3855C160.597 78.3706 160.433 78.3284 160.277 78.2747ZM164.472 77.8943C164.537 77.9703 164.594 78.053 164.644 78.1411C164.695 78.2332 164.735 78.3312 164.764 78.4322C164.794 78.5387 164.809 78.6477 164.809 78.7583C164.809 78.8595 164.794 78.9593 164.767 79.0559C164.734 79.1719 164.675 79.2739 164.591 79.3612C164.501 79.4533 164.388 79.514 164.265 79.5504C164.117 79.5943 163.955 79.5883 163.803 79.5642C163.757 79.5564 163.71 79.5451 163.665 79.5335C163.611 79.5197 163.557 79.503 163.505 79.4851C163.441 79.4637 163.378 79.4397 163.315 79.4142C163.24 79.3835 163.165 79.3508 163.091 79.3178L162.103 78.8778V75.1652L163.443 75.7616C163.644 75.8514 163.848 75.96 164.019 76.0987C164.126 76.1843 164.225 76.2794 164.312 76.3855C164.391 76.4817 164.461 76.5848 164.519 76.6952C164.571 76.7954 164.614 76.9013 164.643 77.0111C164.668 77.1111 164.684 77.214 164.684 77.3174C164.684 77.4814 164.652 77.6442 164.563 77.7826C164.537 77.8252 164.506 77.8623 164.472 77.8943ZM163.094 77.9199V78.3302L163.311 78.4265C163.385 78.4597 163.461 78.4923 163.537 78.5199C163.58 78.5352 163.63 78.5519 163.679 78.5604C163.708 78.5665 163.757 78.5754 163.786 78.5708C163.789 78.5705 163.793 78.57 163.796 78.5695C163.8 78.552 163.8 78.5314 163.8 78.5148C163.8 78.4575 163.784 78.4039 163.759 78.3538C163.723 78.2858 163.665 78.2279 163.605 78.1803C163.569 78.1516 163.528 78.1261 163.486 78.1035C163.422 78.0672 163.353 78.0349 163.285 78.0048L163.094 77.9199ZM163.673 77.1657C163.677 77.1494 163.677 77.1291 163.677 77.1193C163.677 77.064 163.663 77.0119 163.639 76.9613C163.611 76.9008 163.555 76.8471 163.503 76.8066C163.47 76.7802 163.432 76.7572 163.394 76.7363C163.337 76.7046 163.276 76.6767 163.216 76.6501L163.094 76.5956V76.931L163.445 77.0871C163.493 77.1084 163.619 77.1628 163.673 77.1657Z" fill="#426091"/>
</g>
<defs>
<clipPath id="clip0_298_13468">
<rect width="61.6" height="80" fill="white" transform="translate(119 10)"/>
</clipPath>
</defs>
</svg>
