<svg width="300" height="100" viewBox="0 0 300 100" fill="none" xmlns="http://www.w3.org/2000/svg">
<rect width="300" height="100" fill="white"/>
<path fill-rule="evenodd" clip-rule="evenodd" d="M143.067 65.7688C143.58 65.7688 143.955 65.8775 144.192 66.0948C144.429 66.3121 144.547 66.6501 144.548 67.1088V69.5672H143.778V67.2128C143.778 66.6944 143.487 66.4352 142.906 66.4352C142.655 66.4331 142.408 66.5025 142.195 66.6352C142.232 66.7903 142.249 66.9494 142.247 67.1088V69.5672H141.477V67.2128C141.477 66.6944 141.186 66.4352 140.605 66.4352C140.34 66.4354 140.077 66.4831 139.828 66.576V69.5672H139.059V66.154C139.314 66.0274 139.583 65.9333 139.862 65.874C140.158 65.8048 140.462 65.7689 140.766 65.7668C141.246 65.7668 141.603 65.8601 141.836 66.0468C142.221 65.8632 142.641 65.7682 143.067 65.7688ZM147.184 69.68C146.598 69.68 146.157 69.5121 145.862 69.1764C145.566 68.8407 145.419 68.352 145.418 67.7104C145.418 66.412 146.005 65.7629 147.178 65.7632C147.77 65.7632 148.214 65.9297 148.512 66.2628C148.81 66.5959 148.959 67.0784 148.959 67.7104C148.959 68.3419 148.805 68.828 148.498 69.1688C148.19 69.5096 147.752 69.68 147.184 69.68ZM147.177 69.0208C147.851 69.0208 148.188 68.584 148.188 67.7104C148.188 67.276 148.108 66.9515 147.948 66.7368C147.788 66.5221 147.531 66.4147 147.178 66.4144C146.822 66.4144 146.567 66.5243 146.413 66.744C146.259 66.9637 146.182 67.2859 146.182 67.7104C146.182 68.1347 146.261 68.4592 146.42 68.684C146.579 68.9088 146.831 69.0205 147.177 69.0192V69.0208ZM151.528 65.7704C152.076 65.7704 152.491 65.9357 152.774 66.2664C153.057 66.5971 153.199 67.0655 153.2 67.6716C153.2 68.4023 153.03 68.9193 152.691 69.2228C152.351 69.5263 151.92 69.6787 151.396 69.68C150.346 69.68 149.821 69.3987 149.821 68.836V64.362H150.583V66C150.736 65.9267 150.897 65.8708 151.063 65.8332C151.215 65.7942 151.371 65.7725 151.528 65.7688V65.7704ZM151.338 69.006C151.738 69.006 152.018 68.89 152.178 68.658C152.338 68.426 152.418 68.1076 152.418 67.7028C152.418 67.2884 152.333 66.9725 152.165 66.7552C151.996 66.5379 151.746 66.4293 151.414 66.4296C151.269 66.4306 151.125 66.4491 150.985 66.4848C150.845 66.5187 150.71 66.5726 150.585 66.6448V68.6448C150.584 68.8848 150.835 69.0047 151.338 69.0044V69.006ZM154.07 64.556H154.89V65.2596H154.07V64.556ZM154.092 65.874H154.861L154.868 69.5688H154.092V65.874ZM155.952 69.5688V64.4436H156.714V69.5672L155.952 69.5688ZM159.292 65.76C159.864 65.76 160.283 65.9467 160.549 66.32C160.815 66.6933 160.946 67.2153 160.941 67.886H158.36C158.385 68.2513 158.491 68.5291 158.68 68.7192C158.868 68.9093 159.136 69.0043 159.482 69.004C159.897 69.0044 160.306 68.9 160.67 68.7004V69.426C160.288 69.5953 159.852 69.68 159.36 69.68C158.808 69.68 158.374 69.5109 158.059 69.1728C157.744 68.8347 157.586 68.3547 157.587 67.7328C157.587 67.096 157.736 66.6087 158.034 66.2708C158.331 65.9329 158.751 65.7627 159.292 65.76ZM159.27 66.4C159.011 66.4 158.808 66.4692 158.662 66.6076C158.516 66.746 158.42 66.9804 158.376 67.3108H160.157C160.122 66.9948 160.034 66.7641 159.893 66.6188C159.751 66.4735 159.544 66.4005 159.27 66.4ZM151.92 35.9384C151.071 35.7285 150.418 35.6235 149.96 35.6232C146.544 35.6232 143.775 38.3832 143.775 41.7868C143.775 45.1904 146.546 47.9508 149.96 47.9508C153.374 47.9508 156.145 45.1908 156.145 41.7868C156.145 41.2895 156.085 40.7941 155.967 40.3112L160.884 38.9868C161.282 40.5011 161.358 42.0822 161.105 43.6275C160.852 45.1728 160.278 46.6477 159.418 47.9564L151.276 63.052H143.732L149.092 53.172C149.122 53.1176 149.036 52.9976 148.964 52.9912C143.236 52.4712 138.75 47.6712 138.75 41.8276C138.75 35.636 143.786 30.6172 149.998 30.6172C151.136 30.6159 152.267 30.7868 153.353 31.124L151.92 35.9384Z" fill="#006E53"/>
<path d="M149.923 45.1765C151.795 45.1765 153.313 43.6587 153.313 41.7865C153.313 39.9142 151.795 38.3965 149.923 38.3965C148.05 38.3965 146.533 39.9142 146.533 41.7865C146.533 43.6587 148.05 45.1765 149.923 45.1765Z" fill="#D6E806"/>
<path d="M155.778 39.4753C155.191 38.0051 154.059 36.8182 152.618 36.1621M157.936 38.5505C157.107 36.5115 155.538 34.8605 153.544 33.9277M160.016 37.8573C158.96 35.1692 156.882 33.0086 154.238 31.8477" stroke="#D6E806" stroke-linecap="round"/>
</svg>
