<svg width="300" height="100" viewBox="0 0 300 100" fill="none" xmlns="http://www.w3.org/2000/svg">
<rect width="300" height="100" fill="white"/>
<g clip-path="url(#clip0_298_13465)">
<path fill-rule="evenodd" clip-rule="evenodd" d="M114.534 54.2298L114.575 53.8604C115.031 51.5609 113.954 50.5753 110.554 50.5753C107.278 50.5753 105.827 51.5609 105.413 53.8604L105.33 54.2706C104.874 56.5711 106.367 57.5983 109.31 57.5983C112.337 57.5983 114.161 56.2009 114.534 54.2298ZM126.101 52.5464L129.999 30.6962C130.034 30.5011 130.136 30.3245 130.288 30.1972C130.44 30.0699 130.631 30.0001 130.83 30H135.378C135.501 30.0001 135.623 30.0272 135.734 30.0793C135.846 30.1315 135.945 30.2074 136.024 30.3018C136.103 30.3962 136.16 30.5068 136.192 30.6258C136.224 30.7448 136.23 30.8693 136.208 30.9906L134.933 38.2136C136.508 37.0638 138.249 36.2426 141.442 36.2426C147.661 36.2426 150.107 40.3489 149.236 45.2357L147.785 53.2851C146.749 59.1574 143.308 61.9915 135.637 61.9915C128.424 61.9915 125.106 58.0085 126.101 52.5464ZM141.733 52.2996L142.893 45.8519C143.349 43.3055 142.354 41.5813 138.996 41.5813C135.596 41.5813 134.02 43.3055 133.564 45.8519L132.403 52.2996C131.947 54.846 132.943 56.5711 136.342 56.5711C139.7 56.5711 141.276 54.846 141.733 52.2996ZM174.776 50.8213H158.814L158.482 52.7923C158.109 54.9694 158.772 56.9404 162.753 56.9404C166.194 56.9404 167.853 55.9549 168.225 53.9021C168.237 53.844 168.268 53.7917 168.314 53.7541C168.36 53.7165 168.417 53.696 168.476 53.6962H173.448C173.551 53.6963 173.653 53.7185 173.746 53.7614C173.84 53.8044 173.923 53.8669 173.99 53.9449C174.057 54.0229 174.106 54.1144 174.135 54.2132C174.163 54.312 174.17 54.4158 174.155 54.5174C173.284 59.3634 169.842 61.9915 162.255 61.9915C154.75 61.9915 151.517 57.926 152.47 52.7106L153.797 45.1132C154.916 39.1991 158.358 36.2426 166.028 36.2426C173.408 36.2426 176.683 40.2255 175.73 45.5651L174.776 50.8213ZM159.767 45.5234L159.561 46.7966H169.47L169.718 45.4826C170.174 42.8545 169.097 41.2936 165.531 41.2936C161.841 41.2936 160.224 43.0187 159.767 45.5234ZM189.287 54.6817C192.687 54.6817 194.263 52.9566 194.719 50.4928L195.507 45.9345C195.962 43.4289 194.967 41.7455 191.609 41.7455C188.251 41.7455 186.676 43.4289 186.219 45.9345L185.432 50.4928C184.976 52.9566 185.929 54.6817 189.287 54.6817ZM192.19 36.2426C199.404 36.2426 202.804 40.3081 201.808 45.8519L199.156 60.7183C197.91 67.4945 194.055 70 187.298 70H186.593C180.581 70 176.683 67.0017 177.305 62.1149C177.329 61.9882 177.396 61.8738 177.495 61.7914C177.594 61.709 177.719 61.6639 177.847 61.6638H183.317C182.985 63.5523 184.354 64.8664 187.256 64.8664C190.946 64.8664 192.48 63.183 192.894 60.8417L193.475 57.7617C191.9 58.994 190.2 59.6919 186.883 59.6919C181.161 59.6919 178.218 55.7906 179.171 50.4111L180.083 45.1949C181.12 39.3226 184.561 36.2426 192.19 36.2426ZM117.277 33.2374C117.406 33.2376 117.532 33.267 117.647 33.3234C117.763 33.3798 117.864 33.4617 117.942 33.563C118.021 33.6642 118.076 33.7821 118.102 33.9077C118.129 34.0333 118.126 34.1632 118.095 34.2877L117.466 36.7847C121.27 38.0187 123.121 41.2426 122.411 45.2357L120.919 53.6136C120 58.7396 117.013 61.1243 112.368 61.8128L111.815 64.0043C111.769 64.1866 111.664 64.3485 111.515 64.4641C111.367 64.5797 111.184 64.6426 110.996 64.6426H106.03C105.901 64.6426 105.774 64.6133 105.659 64.5569C105.543 64.5005 105.442 64.4185 105.363 64.3171C105.284 64.2157 105.23 64.0977 105.203 63.9719C105.177 63.8462 105.179 63.7161 105.211 63.5915L105.653 61.8426C101.093 61.1047 98.5368 58.2843 99.0679 54.3532L99.1513 53.7779C99.7317 49.3013 102.8 46.6732 109.973 46.6732C112.709 46.6732 114.74 47.0843 115.694 47.6179L116.067 45.4417C116.523 43.0596 115.446 41.4579 112.377 41.4579C109.807 41.4579 107.941 42.32 107.568 44.4962H101.597C102.305 39.5115 105.026 36.817 110.873 36.3251L111.492 33.874C111.538 33.692 111.644 33.5305 111.792 33.4152C111.94 33.2999 112.123 33.2374 112.31 33.2374H117.277Z" fill="#753FF6"/>
</g>
<defs>
<clipPath id="clip0_298_13465">
<rect width="102.979" height="40" fill="white" transform="translate(99 30)"/>
</clipPath>
</defs>
</svg>
