<svg width="300" height="100" viewBox="0 0 300 100" fill="none" xmlns="http://www.w3.org/2000/svg">
<rect width="300" height="100" fill="white"/>
<path d="M161.552 35.6038L169.655 38.7934L161.552 41.8106V46.121L175.431 40.5175V37.0693L161.552 31.4658V35.6038Z" fill="#008FFF"/>
<path d="M87.1552 51.6377C83.2758 51.6377 80.431 53.3618 80.1724 56.9825H84.4827V56.8963C84.5689 55.6894 85.6896 54.8273 86.8965 54.9136C88.5345 54.9136 89.3103 55.8618 89.3103 57.4998V58.2756H87.3276C83.1034 58.2756 79.6552 59.5687 79.6552 63.6205V63.7929C79.6552 67.0687 82.0689 68.5342 85 68.5342C86.8103 68.6205 88.4483 67.7584 89.4827 66.3791V68.2756H93.8793V57.4136C93.7931 53.2756 90.9483 51.6377 87.1552 51.6377ZM86.2069 65.3446C84.6552 65.3446 83.9655 64.5687 83.9655 63.448V63.2756C83.9655 61.8101 85.0862 61.2067 87.3276 61.2067H89.1379V62.7584C89.2241 64.4825 87.7586 65.3446 86.2069 65.3446Z" fill="black"/>
<path d="M104.224 65.1722C102.069 65.1722 100.948 63.7067 100.948 60.4308V59.9136C100.948 56.7239 102.241 55.1722 104.224 55.1722C105.776 55.1722 106.638 56.2067 106.897 57.7584H111.207C110.862 53.5342 107.759 51.6377 104.138 51.6377C99.8276 51.6377 96.3793 54.5687 96.3793 60.086V60.2584C96.3793 65.7756 99.6552 68.5342 104.138 68.5342C108.534 68.5342 111.034 65.8618 111.379 62.2411H107.241C106.897 64.0515 105.776 65.1722 104.224 65.1722Z" fill="black"/>
<path d="M121.034 65.1722C118.879 65.1722 117.759 63.7067 117.759 60.4308V59.9136C117.759 56.7239 119.052 55.1722 121.034 55.1722C122.586 55.1722 123.448 56.2067 123.707 57.7584H128.017C127.672 53.5342 124.569 51.6377 120.948 51.6377C116.638 51.6377 113.19 54.5687 113.19 60.086V60.2584C113.19 65.7756 116.465 68.5342 120.948 68.5342C125.345 68.5342 127.845 65.8618 128.103 62.2411H124.052C123.793 64.0515 122.586 65.1722 121.034 65.1722Z" fill="black"/>
<path d="M138.017 65.2584C136.034 65.2584 134.828 64.1377 134.655 61.2067H145.172V59.3101C145.172 53.9653 141.81 51.6377 137.759 51.6377C133.362 51.6377 130 54.6549 130 60.086V60.4308C130 65.8618 133.19 68.6205 137.845 68.6205C142.069 68.6205 144.655 66.2929 145.086 63.1894H140.862C140.69 64.4825 139.397 65.4308 138.017 65.2584ZM137.759 54.7411C139.569 54.7411 140.69 55.7756 140.776 58.1894H134.741C135.086 55.6032 136.379 54.8274 137.759 54.7411Z" fill="black"/>
<path d="M157.414 51.6378C155.345 51.5516 153.448 52.5861 152.5 54.3964V51.9826H148.017V68.1895H152.5V58.2757C152.5 58.1033 152.5 58.0171 152.5 57.8447C152.586 56.3792 153.879 55.1723 155.345 55.2585C156.983 55.2585 157.759 56.1206 157.759 58.0171V68.1895H162.328V57.3275C162.328 53.3619 160.345 51.6378 157.414 51.6378Z" fill="black"/>
<path d="M170.776 63.0176V55.3452H173.879V51.9831H170.776V47.0693L166.293 48.9659V51.9831H164.31V55.3452H166.207V63.5349C166.207 66.8107 167.845 68.4486 171.379 68.4486C172.241 68.4486 173.103 68.3624 173.965 68.1038V64.5693C173.448 64.7417 172.931 64.828 172.414 64.828C171.379 64.828 170.776 64.2245 170.776 63.0176Z" fill="black"/>
<path d="M186.379 62.0686C186.379 62.241 186.379 62.3273 186.379 62.4997C186.293 63.9652 185 65.1721 183.534 65.0859C181.897 65.0859 181.207 64.2238 181.207 62.3272V51.9824H176.638V62.9307C176.638 66.7238 178.793 68.5341 181.724 68.5341C183.707 68.6204 185.517 67.5859 186.466 65.7755V68.1893H191.034V51.9824H186.466L186.379 62.0686Z" fill="black"/>
<path d="M198.793 54.9136V51.8963H194.31V68.1032H198.793V59.7411C198.793 57.0687 200.603 56.1205 203.707 56.1205V51.6377C201.465 51.6377 199.483 52.9308 198.793 54.9136Z" fill="black"/>
<path d="M220.259 59.2239C220.259 53.8791 216.897 51.6377 212.845 51.6377C208.448 51.6377 205.086 54.6549 205.086 60.086V60.4308C205.086 65.8618 208.276 68.6205 212.931 68.6205C217.155 68.6205 219.655 66.2929 220.172 63.1894H215.948C215.603 64.5687 214.31 65.4308 212.931 65.3446C210.948 65.3446 209.741 64.2239 209.569 61.2929H220.086V59.2239H220.259ZM209.741 58.1894C210.086 55.517 211.379 54.7411 212.845 54.7411C214.655 54.7411 215.776 55.7756 215.862 58.1894H209.741Z" fill="black"/>
</svg>
