<svg width="300" height="100" viewBox="0 0 300 100" fill="none" xmlns="http://www.w3.org/2000/svg">
<rect width="300" height="100" fill="white"/>
<g clip-path="url(#clip0_291_3289)">
<path d="M120.708 35.5701C120.708 35.5701 115.786 30.1699 106.497 30.1699C95.1469 30.1699 86.2793 38.8786 86.2793 50.1272C86.2793 61.3759 95.1247 69.9991 106.497 69.9991C115.786 69.9991 120.708 64.4495 120.708 64.4495C120.708 64.4495 117.493 60.1379 115.919 58.6011C114.722 57.2777 112.749 56.8509 111.064 57.5765C109.889 58.1101 108.626 58.3876 107.318 58.409C102.219 58.409 99.1815 54.6096 99.1815 50.1486C99.1815 45.6875 102.219 41.8882 107.318 41.8882C108.537 41.9522 109.756 42.2297 110.887 42.6566C112.727 43.3182 114.788 42.8487 116.119 41.4613C117.404 40.1379 120.685 35.5915 120.685 35.5915" fill="#242E33"/>
<path d="M154.458 35.5701C154.458 35.5701 149.536 30.1699 140.247 30.1699C128.897 30.1699 120.029 38.8786 120.029 50.1272C120.029 61.3759 128.875 69.9991 140.247 69.9991C149.536 69.9991 154.458 64.4495 154.458 64.4495C154.458 64.4495 151.243 60.1379 149.669 58.6011C148.472 57.2777 146.499 56.8509 144.814 57.5765C143.639 58.1101 142.376 58.3876 141.068 58.409C135.969 58.409 132.932 54.6096 132.932 50.1486C132.932 45.6875 135.969 41.8882 141.068 41.8882C142.287 41.9522 143.506 42.2297 144.637 42.6566C146.477 43.3182 148.538 42.8487 149.869 41.4613C151.132 40.1379 154.435 35.5915 154.435 35.5915" fill="#242E33"/>
<path d="M88.2377 69.1667C88.3929 68.7612 88.4594 68.3129 88.4594 67.8647C88.4594 67.0109 88.1934 66.1998 87.75 65.4527L67.4434 30.1699H67.2882L46.9594 65.4741C46.516 66.1998 46.2722 67.0322 46.25 67.8861C46.25 68.3343 46.3165 68.7826 46.516 69.1881H59.4404C59.4404 69.1881 64.9826 58.3877 65.7808 56.8722C66.1798 56.1037 66.601 55.7836 67.2439 55.7836C67.8867 55.7836 68.3301 56.1251 68.7514 56.8722C69.5938 58.3663 75.4906 69.1881 75.4906 69.1881H88.2377V69.1667Z" fill="#242E33"/>
<path d="M195.051 58.3245C199.662 58.3245 203.187 54.6318 203.187 50.064C203.187 45.4963 199.662 41.8036 195.051 41.8036C190.44 41.8036 186.915 45.4963 186.915 50.064C186.915 54.6318 190.44 58.3245 195.051 58.3245ZM195.051 69.9146C183.59 69.9146 174.324 60.9499 174.346 49.936C174.367 38.9007 183.656 30 195.117 30C206.557 30 215.846 38.9648 215.824 49.9786C215.824 60.9711 206.557 69.8932 195.117 69.9146H195.051Z" fill="#242E33"/>
<path d="M160.786 30.8115H167.37C169.032 30.8115 170.363 32.1136 170.363 33.6931V66.2438C170.363 67.8446 169.01 69.1253 167.37 69.1253H160.786C159.123 69.1253 157.793 67.8233 157.793 66.2438V33.6931C157.793 32.0922 159.145 30.8115 160.786 30.8115Z" fill="#242E33"/>
<path d="M253.751 69.3175V34.483C253.751 32.135 253.043 30.833 250.183 30.833H241.603V43.7679C241.648 44.4083 241.138 44.9845 240.473 45.0273H240.406C239.696 45.0273 239.298 44.6858 238.166 43.6399C236.394 41.9323 232.979 38.6665 230.718 36.6388C226.55 32.9034 224.533 30.8544 221.718 30.8544C221.119 30.8544 220.499 30.9184 219.921 31.1105V66.2653C219.921 68.1649 220.588 69.1468 223.025 69.1468H232.026V57.1938C231.96 56.4894 232.491 55.8918 233.201 55.8064H233.4C234.376 55.8064 234.819 56.4254 235.973 57.5779C237.325 58.9013 239.275 60.865 241.803 63.2343C247.034 68.1009 249.274 69.4243 252.178 69.4243C252.71 69.4243 253.241 69.3816 253.751 69.2749" fill="#242E33"/>
</g>
<defs>
<clipPath id="clip0_291_3289">
<rect width="207.5" height="40" fill="white" transform="translate(46.25 30)"/>
</clipPath>
</defs>
</svg>
