<svg width="300" height="100" viewBox="0 0 300 100" fill="none" xmlns="http://www.w3.org/2000/svg">
<rect width="300" height="100" fill="white"/>
<path d="M35.7733 63.8581H30L40.5115 34H47.1888L57.7148 63.8581H51.9416L43.9668 40.1232H43.7335L35.7733 63.8581ZM35.9629 52.151H51.7082V56.4956H35.9629V52.151Z" fill="#030303"/>
<path d="M68.8586 64.2953C66.6231 64.2953 64.7035 63.8046 63.0999 62.8229C61.5059 61.8413 60.2764 60.4854 59.4114 58.7553C58.5561 57.0155 58.1284 55.0132 58.1284 52.7487C58.1284 50.4743 58.5657 48.4673 59.4404 46.7275C60.3153 44.978 61.5496 43.6173 63.1436 42.6453C64.7473 41.6637 66.6427 41.1729 68.8294 41.1729C70.647 41.1729 72.2555 41.5082 73.6552 42.1788C75.0645 42.8397 76.187 43.7777 77.0229 44.9926C77.8589 46.1978 78.3351 47.6071 78.4516 49.2205H73.4073C73.2032 48.1417 72.7172 47.2426 71.9494 46.5234C71.1912 45.7944 70.1757 45.43 68.9023 45.43C67.8235 45.43 66.8759 45.7215 66.0593 46.3047C65.243 46.8782 64.6063 47.7043 64.1495 48.7831C63.7024 49.862 63.479 51.1547 63.479 52.6612C63.479 54.1872 63.7024 55.4992 64.1495 56.5976C64.5966 57.6862 65.2236 58.5268 66.0303 59.1198C66.8467 59.7029 67.8041 59.9945 68.9023 59.9945C69.6799 59.9945 70.3748 59.8488 70.9871 59.557C71.6093 59.2558 72.1292 58.8233 72.5471 58.2595C72.9651 57.6959 73.2518 57.0106 73.4073 56.204H78.4516C78.3253 57.7882 77.8589 59.1926 77.0521 60.4173C76.2453 61.6321 75.1471 62.5848 73.7572 63.2749C72.3673 63.9551 70.7345 64.2953 68.8586 64.2953Z" fill="#030303"/>
<path d="M90.9111 64.2953C88.6756 64.2953 86.756 63.8046 85.1524 62.8229C83.5584 61.8413 82.3289 60.4854 81.4637 58.7553C80.6086 57.0155 80.1809 55.0132 80.1809 52.7487C80.1809 50.4743 80.6182 48.4673 81.4929 46.7275C82.3676 44.978 83.6021 43.6173 85.1961 42.6453C86.7998 41.6637 88.695 41.1729 90.8819 41.1729C92.6995 41.1729 94.308 41.5082 95.7077 42.1788C97.117 42.8397 98.2395 43.7777 99.0754 44.9926C99.9112 46.1978 100.387 47.6071 100.504 49.2205H95.4598C95.2557 48.1417 94.7697 47.2426 94.0019 46.5234C93.2437 45.7944 92.228 45.43 90.9547 45.43C89.876 45.43 88.9284 45.7215 88.1118 46.3047C87.2955 46.8782 86.6588 47.7043 86.202 48.7831C85.7549 49.862 85.5313 51.1547 85.5313 52.6612C85.5313 54.1872 85.7549 55.4992 86.202 56.5976C86.649 57.6862 87.2761 58.5268 88.0826 59.1198C88.8992 59.7029 89.8566 59.9945 90.9547 59.9945C91.7323 59.9945 92.4273 59.8488 93.0396 59.557C93.6618 59.2558 94.1817 58.8233 94.5995 58.2595C95.0176 57.6959 95.3043 57.0106 95.4598 56.204H100.504C100.378 57.7882 99.9112 59.1926 99.1046 60.4173C98.2978 61.6321 97.1994 62.5848 95.8097 63.2749C94.4198 63.9551 92.7868 64.2953 90.9111 64.2953Z" fill="#030303"/>
<path d="M112.964 64.2953C110.777 64.2953 108.881 63.8141 107.278 62.8521C105.674 61.8898 104.43 60.5436 103.545 58.8135C102.671 57.0836 102.233 55.062 102.233 52.7487C102.233 50.4355 102.671 48.409 103.545 46.6692C104.43 44.9294 105.674 43.5784 107.278 42.6162C108.881 41.654 110.777 41.1729 112.964 41.1729C115.15 41.1729 117.046 41.654 118.649 42.6162C120.253 43.5784 121.492 44.9294 122.367 46.6692C123.252 48.409 123.694 50.4355 123.694 52.7487C123.694 55.062 123.252 57.0836 122.367 58.8135C121.492 60.5436 120.253 61.8898 118.649 62.8521C117.046 63.8141 115.15 64.2953 112.964 64.2953ZM112.993 60.0673C114.178 60.0673 115.17 59.7419 115.967 59.0906C116.764 58.4297 117.357 57.5452 117.745 56.4372C118.144 55.3293 118.343 54.0948 118.343 52.7341C118.343 51.3636 118.144 50.1244 117.745 49.0164C117.357 47.8987 116.764 47.0094 115.967 46.3484C115.17 45.6875 114.178 45.3571 112.993 45.3571C111.778 45.3571 110.767 45.6875 109.96 46.3484C109.163 47.0094 108.565 47.8987 108.167 49.0164C107.778 50.1244 107.584 51.3636 107.584 52.7341C107.584 54.0948 107.778 55.3293 108.167 56.4372C108.565 57.5452 109.163 58.4297 109.96 59.0906C110.767 59.7419 111.778 60.0673 112.993 60.0673Z" fill="#030303"/>
<path d="M140.804 54.4402V41.4648H146.082V63.8584H140.964V59.8782H140.731C140.226 61.132 139.395 62.1575 138.238 62.9545C137.091 63.7515 135.677 64.15 133.995 64.15C132.528 64.15 131.23 63.8243 130.103 63.173C128.985 62.5121 128.11 61.5548 127.479 60.3011C126.847 59.0375 126.531 57.5115 126.531 55.7233V41.4648H131.809V54.9067C131.809 56.3258 132.197 57.4533 132.975 58.2891C133.752 59.125 134.773 59.5429 136.037 59.5429C136.814 59.5429 137.567 59.3534 138.296 58.9743C139.025 58.5953 139.623 58.0316 140.09 57.2832C140.566 56.5251 140.804 55.5774 140.804 54.4402Z" fill="#030303"/>
<path d="M155.144 50.7367V63.858H149.867V41.4644H154.911V45.2696H155.173C155.689 44.0158 156.51 43.0196 157.637 42.2809C158.774 41.5422 160.179 41.1729 161.851 41.1729C163.396 41.1729 164.742 41.5033 165.889 42.1642C167.045 42.8252 167.94 43.7825 168.572 45.0363C169.213 46.2901 169.529 47.8112 169.519 49.5996V63.858H164.242V50.416C164.242 48.9192 163.853 47.748 163.075 46.9025C162.307 46.0569 161.243 45.6341 159.882 45.6341C158.959 45.6341 158.138 45.8382 157.419 46.2464C156.709 46.6449 156.15 47.2232 155.742 47.9813C155.343 48.7394 155.144 49.6579 155.144 50.7367Z" fill="#030303"/>
<path d="M184.424 41.4647V45.5469H171.551V41.4647H184.424ZM174.729 36.0996H180.007V57.1227C180.007 57.8321 180.114 58.3765 180.327 58.7556C180.551 59.1249 180.842 59.3775 181.202 59.5136C181.562 59.6497 181.96 59.7177 182.398 59.7177C182.728 59.7177 183.029 59.6934 183.302 59.6448C183.583 59.5963 183.797 59.5526 183.943 59.5136L184.832 63.6396C184.551 63.7367 184.147 63.8436 183.622 63.9603C183.107 64.0768 182.475 64.145 181.727 64.1644C180.405 64.2033 179.215 64.004 178.155 63.5667C177.096 63.1195 176.255 62.4294 175.633 61.4965C175.021 60.5634 174.719 59.3971 174.729 57.9974V36.0996Z" fill="#030303"/>
<path d="M196.869 64.2953C194.624 64.2953 192.685 63.8288 191.052 62.8958C189.429 61.9529 188.18 60.6213 187.305 58.901C186.43 57.1709 185.993 55.1348 185.993 52.7924C185.993 50.4889 186.43 48.4673 187.305 46.7275C188.19 44.978 189.424 43.6173 191.008 42.6453C192.592 41.6637 194.454 41.1729 196.592 41.1729C197.972 41.1729 199.275 41.3964 200.499 41.8435C201.734 42.2809 202.822 42.9612 203.765 43.8846C204.717 44.8079 205.466 45.984 206.01 47.4127C206.554 48.8317 206.826 50.5229 206.826 52.4862V54.1046H188.471V50.5472H201.768C201.758 49.5364 201.539 48.6374 201.111 47.8501C200.684 47.0531 200.086 46.4262 199.318 45.9694C198.56 45.5126 197.676 45.2842 196.665 45.2842C195.586 45.2842 194.638 45.5466 193.822 46.0714C193.005 46.5866 192.369 47.2669 191.912 48.1125C191.465 48.9484 191.237 49.8669 191.227 50.868V53.9734C191.227 55.2758 191.465 56.3935 191.941 57.3264C192.418 58.2499 193.083 58.9594 193.939 59.455C194.794 59.941 195.795 60.184 196.942 60.184C197.71 60.184 198.405 60.0771 199.027 59.8633C199.649 59.6397 200.188 59.3142 200.645 58.8865C201.102 58.4589 201.447 57.9292 201.68 57.2973L206.608 57.8514C206.297 59.1538 205.704 60.291 204.829 61.2628C203.964 62.2251 202.856 62.9735 201.505 63.5081C200.154 64.0329 198.609 64.2953 196.869 64.2953Z" fill="#030303"/>
<path d="M219.562 64.2953C217.318 64.2953 215.379 63.8288 213.746 62.8958C212.123 61.9529 210.874 60.6213 209.999 58.901C209.124 57.1709 208.687 55.1348 208.687 52.7924C208.687 50.4889 209.124 48.4673 209.999 46.7275C210.884 44.978 212.118 43.6173 213.702 42.6453C215.287 41.6637 217.148 41.1729 219.286 41.1729C220.665 41.1729 221.968 41.3964 223.193 41.8435C224.428 42.2809 225.516 42.9612 226.459 43.8846C227.412 44.8079 228.159 45.984 228.705 47.4127C229.249 48.8317 229.52 50.5229 229.52 52.4862V54.1046H211.166V50.5472H224.462C224.453 49.5364 224.232 48.6374 223.805 47.8501C223.378 47.0531 222.779 46.4262 222.013 45.9694C221.255 45.5126 220.37 45.2842 219.359 45.2842C218.28 45.2842 217.332 45.5466 216.516 46.0714C215.7 46.5866 215.063 47.2669 214.606 48.1125C214.159 48.9484 213.931 49.8669 213.921 50.868V53.9734C213.921 55.2758 214.159 56.3935 214.635 57.3264C215.111 58.2499 215.777 58.9594 216.633 59.455C217.488 59.941 218.489 60.184 219.636 60.184C220.404 60.184 221.098 60.0771 221.721 59.8633C222.343 59.6397 222.883 59.3142 223.338 58.8865C223.796 58.4589 224.14 57.9292 224.374 57.2973L229.302 57.8514C228.991 59.1538 228.398 60.291 227.523 61.2628C226.659 62.2251 225.55 62.9735 224.199 63.5081C222.849 64.0329 221.303 64.2953 219.562 64.2953Z" fill="#030303"/>
<path d="M232.344 63.8579V41.4643H237.46V45.1966H237.693C238.102 43.9039 238.802 42.9076 239.794 42.2078C240.793 41.4983 241.936 41.1436 243.22 41.1436C243.512 41.1436 243.837 41.1581 244.197 41.1873C244.566 41.2067 244.872 41.2408 245.115 41.2893V46.1442C244.891 46.0664 244.535 45.9984 244.05 45.9401C243.574 45.872 243.112 45.838 242.664 45.838C241.703 45.838 240.839 46.047 240.071 46.4649C239.312 46.8732 238.715 47.4417 238.277 48.1707C237.84 48.8996 237.622 49.7404 237.622 50.6929V63.8579H232.344Z" fill="#030303"/>
<path fill-rule="evenodd" clip-rule="evenodd" d="M267.991 63.9473H245.998V58.8154H267.991V63.9473Z" fill="#398AFA"/>
</svg>
