<svg width="300" height="100" viewBox="0 0 300 100" fill="none" xmlns="http://www.w3.org/2000/svg">
<rect width="300" height="100" fill="white"/>
<mask id="mask0_298_13435" style="mask-type:luminance" maskUnits="userSpaceOnUse" x="99" y="30" width="103" height="40">
<path d="M99 30.0002H201.433V70H99V30.0002Z" fill="white"/>
</mask>
<g mask="url(#mask0_298_13435)">
<path d="M114.545 54.4359C115.205 54.4359 115.824 54.1672 116.341 53.7758V49.6286C114.195 49.835 112.956 50.9076 112.956 52.6206C112.956 53.6721 113.452 54.4359 114.545 54.4359ZM121.25 54.8073V55.0137L117.268 55.8799H117.062L116.464 54.2921C115.329 55.3436 113.989 55.8799 112.688 55.8799C110.749 55.8799 109.449 54.8696 109.449 53.343C109.449 50.9491 112.172 49.3399 116.341 49.196V47.8547C116.341 46.472 115.205 45.544 113.473 45.544C112.337 45.544 112.38 45.4976 111.368 45.8478L111.287 45.5588C112.73 44.5688 113.74 44.1211 115.473 44.1211C118.011 44.1211 119.847 45.4416 119.847 47.4419V54.1472L121.25 54.8073Z" fill="#231F20"/>
<path d="M120.24 50.2064C120.24 46.5543 122.736 44.12 126.408 44.12C127.894 44.12 129.379 44.4914 130.348 44.9865L130.204 47.3596L129.977 47.3181L126.636 44.739C124.861 44.739 123.829 46.4931 123.829 49.4425C123.829 52.373 125.171 54.3322 127.358 54.3322C128.471 54.3322 129.792 54.0234 130.638 53.5071L130.844 53.7346C129.627 54.9099 128.038 55.8799 125.603 55.8799C122.385 55.8799 120.24 53.6109 120.24 50.2064Z" fill="#231F20"/>
<path d="M142.763 54.5744V54.8071L139.014 55.8789H138.808L138.189 54.2294C136.95 55.3223 135.507 55.8789 134.187 55.8789C132.185 55.8789 130.741 54.5584 130.741 52.5578V45.4774L134.042 44.8162H134.248V52.1453C134.248 53.4658 135.011 54.332 136.167 54.332C136.95 54.332 137.549 54.0844 138.086 53.6307V45.9144L136.827 45.1928V44.9864L141.386 44.1191H141.592V54.1459L142.763 54.5744Z" fill="#231F20"/>
<path d="M162.76 55.4674V55.6738H156.613V55.4674L157.85 54.8485V47.8545C157.85 46.5343 157.066 45.6678 155.89 45.6678C155.065 45.6678 154.446 45.9568 153.889 46.4731C153.972 46.7608 154.012 47.0918 154.012 47.442V54.8485L155.354 55.4674V55.6738H149.267V55.4674L150.505 54.8485V47.8545C150.505 46.5343 149.721 45.6678 148.546 45.6678C147.782 45.6678 147.183 45.9154 146.668 46.3482V54.8274L148.01 55.4674V55.6738H141.861V55.4674L143.161 54.8485V45.9154L141.902 45.193V44.9866L146.152 44.1201H146.358L146.564 45.7504C147.803 44.6778 149.226 44.1201 150.526 44.1201C151.991 44.1201 153.146 44.8005 153.682 45.9365C154.982 44.7602 156.489 44.1201 157.871 44.1201C159.892 44.1201 161.357 45.4406 161.357 47.442V54.8274L162.76 55.4674Z" fill="#231F20"/>
<path d="M165.381 49.1546L169.363 48.9696C169.363 46.0603 168.743 44.7398 167.423 44.7398C166.102 44.7398 165.464 46.1426 165.381 49.1546ZM171.234 53.9723L171.421 54.1988C170.162 55.3751 169.672 55.8799 167.135 55.8799C163.917 55.8799 161.77 53.6106 161.77 50.2072C161.77 46.5554 164.122 44.1211 167.609 44.1211C170.766 44.1211 172.849 46.3078 172.849 49.5883H165.381V49.7947C165.381 52.5177 166.743 54.333 168.992 54.333C170.147 54.333 170.368 54.4886 171.234 53.9723Z" fill="#231F20"/>
<path d="M185.744 55.4674V55.6738H179.534V55.4674L180.834 54.8485V47.8545C180.834 46.5343 180.029 45.6678 178.813 45.6678C177.986 45.6678 177.347 45.9365 176.791 46.3894V54.8485L178.193 55.4674V55.6738H171.982V55.4674L173.283 54.8485V45.9154L172.024 45.193V44.9866L176.275 44.1201H176.481L176.687 45.7705C177.966 44.6979 179.431 44.1201 180.793 44.1201C182.856 44.1201 184.341 45.4406 184.341 47.442V54.8485L185.744 55.4674Z" fill="#231F20"/>
<path d="M189.152 55.8438C188.033 55.8438 187.318 55.1466 187.318 54.0844C187.318 53.0571 188.033 52.361 189.152 52.361C190.27 52.361 190.984 53.0571 190.984 54.0844C190.984 55.1466 190.27 55.8438 189.152 55.8438Z" fill="#EF4136"/>
</g>
</svg>
