<svg width="300" height="100" viewBox="0 0 300 100" fill="none" xmlns="http://www.w3.org/2000/svg">
<rect width="300" height="100" fill="white"/>
<g clip-path="url(#clip0_311_537)">
<path d="M100.643 46.4231C101.434 44.952 102.514 43.8088 103.884 42.9937C105.249 42.1785 106.764 41.7686 108.418 41.7686C109.914 41.7686 111.216 42.0628 112.33 42.6464C113.444 43.23 114.337 43.9632 115.002 44.8362V42.0773H118.967V61.0718H115.002V58.2453C114.337 59.1423 113.43 59.8899 112.277 60.4881C111.129 61.0861 109.817 61.3853 108.346 61.3853C106.716 61.3853 105.22 60.9656 103.865 60.1263C102.51 59.2871 101.434 58.1149 100.643 56.6101C99.852 55.1053 99.4517 53.3978 99.4517 51.4924C99.4517 49.5873 99.8473 47.8943 100.643 46.4231ZM114.192 48.1451C113.652 47.1804 112.947 46.4424 112.074 45.9408C111.201 45.4343 110.261 45.1835 109.248 45.1835C108.235 45.1835 107.294 45.4295 106.421 45.9263C105.548 46.4231 104.839 47.1466 104.299 48.0968C103.759 49.0519 103.489 50.1806 103.489 51.4924C103.489 52.8044 103.759 53.9524 104.299 54.9413C104.839 55.9299 105.553 56.6824 106.436 57.1986C107.319 57.7146 108.259 57.9751 109.243 57.9751C110.227 57.9751 111.197 57.7243 112.07 57.2178C112.943 56.7114 113.652 55.9734 114.187 54.9943C114.727 54.0199 114.997 52.8719 114.997 51.5648C114.997 50.2578 114.727 49.1194 114.187 48.1499L114.192 48.1451Z" fill="#200865"/>
<path d="M122.773 46.4238C123.564 44.9526 124.644 43.8095 126.014 42.9943C127.379 42.1792 128.903 41.7692 130.582 41.7692C131.822 41.7692 133.047 42.0393 134.253 42.5795C135.458 43.1197 136.418 43.8384 137.132 44.7356V35.5615H141.097V61.0724H137.132V58.2121C136.491 59.1334 135.598 59.8906 134.46 60.4887C133.322 61.0867 132.019 61.3859 130.548 61.3859C128.894 61.3859 127.384 60.9662 126.014 60.1269C124.649 59.2877 123.569 58.1156 122.773 56.6107C121.982 55.1057 121.582 53.3984 121.582 51.4931C121.582 49.5879 121.977 47.8949 122.773 46.4238ZM136.322 48.1457C135.782 47.1811 135.077 46.4431 134.204 45.9414C133.331 45.435 132.391 45.1842 131.378 45.1842C130.365 45.1842 129.424 45.4301 128.551 45.927C127.678 46.4238 126.969 47.1472 126.429 48.0974C125.889 49.0526 125.619 50.1812 125.619 51.4931C125.619 52.8051 125.889 53.9531 126.429 54.9419C126.969 55.9306 127.683 56.6831 128.566 57.1992C129.448 57.7152 130.389 57.9757 131.373 57.9757C132.357 57.9757 133.326 57.7249 134.199 57.2184C135.073 56.7121 135.782 55.9741 136.317 54.9949C136.857 54.0206 137.127 52.8726 137.127 51.5654C137.127 50.2584 136.857 49.1201 136.317 48.1506L136.322 48.1457Z" fill="#200865"/>
<path d="M152.369 57.5554L157.747 42.0771H161.919L154.68 61.0716H149.991L142.785 42.0771H146.991L152.369 57.5554Z" fill="#200865"/>
<path d="M163.521 46.4231C164.312 44.952 165.392 43.8088 166.762 42.9937C168.127 42.1785 169.642 41.7686 171.296 41.7686C172.791 41.7686 174.094 42.0628 175.208 42.6464C176.322 43.23 177.214 43.9632 177.88 44.8362V42.0773H181.845V61.0718H177.88V58.2453C177.214 59.1423 176.308 59.8899 175.155 60.4881C174.007 61.0861 172.695 61.3853 171.224 61.3853C169.593 61.3853 168.098 60.9656 166.743 60.1263C165.387 59.2871 164.312 58.1149 163.521 56.6101C162.73 55.1053 162.329 53.3978 162.329 51.4924C162.329 49.5873 162.725 47.8943 163.521 46.4231ZM177.07 48.1451C176.529 47.1804 175.825 46.4424 174.952 45.9408C174.079 45.4343 173.139 45.1835 172.126 45.1835C171.113 45.1835 170.172 45.4295 169.299 45.9263C168.426 46.4231 167.717 47.1466 167.177 48.0968C166.637 49.0519 166.367 50.1806 166.367 51.4924C166.367 52.8044 166.637 53.9524 167.177 54.9413C167.717 55.9299 168.431 56.6824 169.314 57.1986C170.196 57.7146 171.137 57.9751 172.121 57.9751C173.105 57.9751 174.074 57.7243 174.947 57.2178C175.82 56.7114 176.529 55.9734 177.065 54.9943C177.605 54.0199 177.875 52.8719 177.875 51.5648C177.875 50.2578 177.605 49.1194 177.065 48.1499L177.07 48.1451Z" fill="#200865"/>
<path d="M199.368 42.6994C200.55 43.3216 201.476 44.2381 202.141 45.4584C202.807 46.6788 203.14 48.1498 203.14 49.8718V61.0764H199.243V50.4603C199.243 48.7576 198.818 47.4553 197.969 46.5485C197.12 45.6417 195.958 45.1883 194.487 45.1883C193.016 45.1883 191.848 45.6417 190.99 46.5485C190.126 47.4553 189.697 48.7624 189.697 50.4603V61.0764H185.766V42.0772H189.697V44.2477C190.339 43.4663 191.163 42.8586 192.162 42.4197C193.16 41.9855 194.226 41.7637 195.35 41.7637C196.845 41.7637 198.181 42.0724 199.368 42.6946V42.6994Z" fill="#200865"/>
<path d="M206.782 46.4038C207.573 44.923 208.673 43.7799 210.076 42.9744C211.48 42.1689 213.086 41.7686 214.904 41.7686C217.2 41.7686 219.106 42.3136 220.61 43.4085C222.115 44.4986 223.133 46.0565 223.663 48.0776H219.425C219.081 47.1369 218.526 46.399 217.77 45.8732C217.013 45.3475 216.057 45.0822 214.909 45.0822C213.298 45.0822 212.02 45.6514 211.065 46.7898C210.11 47.9279 209.632 49.5198 209.632 51.5648C209.632 53.6099 210.11 55.2064 211.065 56.3544C212.02 57.5024 213.298 58.0764 214.909 58.0764C217.186 58.0764 218.691 57.0779 219.425 55.0763H223.663C223.113 57.0056 222.076 58.5394 220.563 59.6778C219.048 60.8161 217.161 61.3853 214.909 61.3853C213.096 61.3853 211.485 60.9753 210.081 60.1601C208.677 59.3449 207.582 58.1969 206.787 56.7114C205.996 55.2306 205.595 53.5134 205.595 51.5599C205.595 49.6066 205.991 47.8894 206.787 46.4086L206.782 46.4038Z" fill="#200865"/>
<path d="M230.271 35.5615V61.0724H226.34V35.5615H230.271Z" fill="#200865"/>
<path d="M251.301 42.0771L239.648 69.9996H235.581L239.439 60.7629L231.959 42.0771H236.339L241.683 56.5569L247.234 42.0771H251.301Z" fill="#200865"/>
<path d="M77.0416 66.807C76.0286 68.1333 74.5238 69.045 72.7584 69.3152C69.7968 69.7637 66.9559 68.336 65.5233 65.6783L63.1888 60.8115C62.6341 59.7842 61.6791 59.0365 60.5504 58.7423L55.3219 57.141C52.3941 56.3837 50.3297 53.972 50.0596 50.9912C49.804 48.1647 51.2944 45.5745 53.8508 44.3879L72.5703 35.7059C74.9193 34.6158 77.6734 34.9534 79.7571 36.5886C81.8359 38.2189 82.8199 40.8138 82.3231 43.3509L78.2666 64.0577C78.0641 65.0898 77.6396 66.0208 77.0368 66.807H77.0416ZM54.8444 49.0377C54.5116 49.4718 54.4875 49.9733 54.5164 50.2965C54.5839 51.0345 55.0566 51.9317 56.1901 52.2212L63.4541 54.3482C64.5828 54.6377 65.5378 55.39 66.0925 56.4175L69.4254 63.1315C69.9801 64.159 70.9641 64.405 71.7021 64.294C72.1748 64.2217 73.0044 63.9418 73.2118 62.8712L77.2682 42.1644C77.4901 41.0309 76.6991 40.3122 76.4531 40.1193C76.2023 39.9263 75.3148 39.3282 74.2584 39.8154L55.539 48.4975C55.2206 48.647 54.9987 48.8352 54.8444 49.0377Z" fill="#713FFF"/>
<path d="M90.8168 31.5143C88.7331 29.8792 85.9789 29.5416 83.6299 30.6317L64.9104 39.3137C62.3492 40.5003 60.8636 43.0904 61.1192 45.9169C61.3894 48.8978 63.4538 51.3143 66.3815 52.0715L70.0714 53.2002L71.0409 48.261L67.2546 47.1517C66.1211 46.8575 65.6484 45.9651 65.5809 45.2272C65.5519 44.904 65.5809 44.3976 65.9089 43.9634C66.0632 43.7609 66.2899 43.5728 66.6034 43.4232L85.3181 34.7412C86.3696 34.254 87.2619 34.8521 87.5128 35.0451C87.7588 35.238 88.5498 35.9567 88.3279 37.0902L84.2714 57.7968C84.0641 58.8677 83.2344 59.1475 82.7618 59.2198C82.0238 59.3307 81.0398 59.0847 80.4851 58.0573L77.1521 51.3432C76.8628 50.8078 76.4673 50.3545 75.9898 49.9927L74.6874 56.6442L76.5829 60.5993C78.0156 63.257 80.8564 64.6847 83.8181 64.2362C85.5786 63.9708 87.0883 63.0543 88.1013 61.728C88.6993 60.9417 89.1286 60.006 89.3311 58.9787L93.3876 38.2719C93.8844 35.7348 92.9004 33.1446 90.8216 31.5095" fill="#713FFF"/>
</g>
<defs>
<clipPath id="clip0_311_537">
<rect width="201.667" height="40" fill="white" transform="translate(50.0312 30)"/>
</clipPath>
</defs>
</svg>
