<svg width="300" height="100" viewBox="0 0 300 100" fill="none" xmlns="http://www.w3.org/2000/svg">
<rect width="300" height="100" fill="white"/>
<g clip-path="url(#clip0_291_3291)">
<path fill-rule="evenodd" clip-rule="evenodd" d="M222.485 57.6179L222.458 37.8067H228.439C227.959 36.9241 227.272 36.4473 226.484 36.1101C225.03 35.4883 224.213 35.4699 222.685 35.3803H211.923C212.044 37.2166 214.294 37.7593 215.817 37.7593H218.085V57.6179H222.485ZM117.359 36.882L113.03 36.8951L119.279 57.913H124.693L130.955 39.5903V36.8846H127.304V39.2108L122.346 53.9929L117.359 36.882ZM174.1 57.7338L180.934 39.6561L181.247 37.1033H184.93L193.137 57.7338H188.722L185.789 49.9858L180.12 50.0096L177.208 57.7365L174.1 57.7338ZM182.899 42.2484L180.615 48.147H185.097L182.899 42.2484ZM93.6562 36.9979C99.6655 36.9979 103.551 36.226 107.224 39.3031C113.359 44.4508 110.833 57.0805 102.102 57.6022C101.006 57.668 99.7656 57.6522 98.0005 57.7338H93.6562V36.9979ZM97.9083 38.5127L97.8608 56.1321C98.6908 56.0847 99.9184 56.0504 100.98 55.953C107.975 55.2943 108.512 38.5127 99.6444 38.5127H97.9083ZM172.677 53.9033V57.0278C171.157 57.5337 170.246 57.8103 169.393 57.9552C167.988 58.1949 165.981 58.1738 164.603 57.9104C163.13 57.6285 161.633 56.9646 160.467 56.0188C157.392 53.524 156.404 50.0228 156.894 46.59C157.358 43.3523 159.047 40.1434 161.826 38.3283C164.913 36.3129 168.982 36.089 172.73 37.559V40.5703C170.591 37.8594 167.319 37.7698 165.029 39.2952C157.985 43.9924 161.755 61.7673 172.677 53.9033ZM194.388 57.7338L201.222 39.6561L201.536 37.1033H205.218L213.425 57.7338H209.007L206.075 49.9858L200.405 50.0096L197.494 57.7365L194.388 57.7338ZM203.185 42.2484L200.901 48.147H205.382L203.185 42.2484ZM71.25 57.7338L78.1866 38.2703L78.5053 35.5199H82.2437L90.5739 57.7313H86.09L83.1131 49.3878L77.3594 49.4116L74.4061 57.7313L71.25 57.7338ZM80.1809 41.0603L77.8625 47.412H82.4097L80.1809 41.0603ZM152.529 43.6078C152.964 44.788 153.201 46.0684 153.201 47.4067C153.201 53.2895 148.609 58.0606 142.942 58.0606C137.278 58.0606 132.683 53.2895 132.683 47.4067C132.683 41.9797 136.588 37.5011 141.638 36.8372V38.7788C139.098 39.6903 137.204 43.2073 137.204 47.4067C137.204 52.2989 139.773 56.2638 142.942 56.2638C146.111 56.2638 148.68 52.2989 148.68 47.4067C148.68 46.0473 148.482 44.7591 148.127 43.6078H152.529ZM140.871 47.7545C143.311 42.7068 147.442 35.5911 152.276 33.4308C151.876 33.7338 151.638 33.9261 151.212 34.2475C150.232 34.9878 149.341 35.894 148.432 36.9083C146.372 39.2135 144.944 41.5898 143.516 44.1716C142.847 45.3808 142.315 46.4741 141.749 47.7334L140.761 49.9279L141.19 49.7567C141.688 49.5986 141.778 48.9743 141.82 48.5791C142.639 48.5553 142.813 48.6159 143.601 48.0153L142.71 47.8151C143.258 47.3172 144.346 46.9588 144.428 46.7402L143.519 46.6401L144.412 46.2897C145.226 46.1632 145.872 45.5942 146.375 44.9382L146.235 44.63C146.91 44.4113 146.767 44.5536 147.112 43.9661C147.705 42.9544 148.567 41.8533 148.604 41.4133C148.359 41.4053 148.272 41.1498 147.919 41.2236C148.393 41.0023 148.403 41.0155 148.92 40.9575C149.015 40.947 149.086 40.9312 149.146 40.9074C149.352 40.8258 149.431 40.644 149.81 40.2278C150.292 39.6956 152.036 38.1096 152.01 37.7013L151.992 37.4299L152.613 37.3325L152.906 37.1349C153.541 36.7055 154.154 36.168 154.597 35.5358C154.391 35.3777 154.175 35.2433 153.735 35.1775L155.002 35.0721C155.197 35.0326 155.306 34.8798 155.358 34.7164C155.417 34.5294 155.411 34.4161 155.306 34.2528C155.213 34.1131 155.082 34.0051 154.937 33.8945C157.368 34.4029 157.529 29.2525 153.211 30.0929C152.081 30.3142 150.653 31.0835 149.929 31.7342C149.252 32.2795 148.575 32.8249 147.9 33.3702C147.774 33.5256 147.708 33.7285 147.705 33.9867L147.655 35.0115L147.431 33.8681C147.36 33.8233 147.257 33.8444 147.107 33.9682C146.314 35.1142 145.297 36.0047 144.446 37.127C144.37 38.0438 144.362 38.7182 144.396 39.6377C144.157 39.5903 144.051 37.9832 144.022 37.7171C142.323 40.2647 141.901 40.7942 141.751 43.7422C141.733 44.1058 141.757 44.3955 141.785 44.7591C141.556 44.3376 141.425 44.003 141.285 43.5551C141.093 44.4166 141.061 45.6021 141.09 46.4978L140.716 46.5716L140.84 47.5411L140.871 47.7545Z" fill="#479469"/>
<path d="M213.652 59.665H86.0398V60.4765H213.652V59.665Z" fill="#479469"/>
<path fill-rule="evenodd" clip-rule="evenodd" d="M152.431 69.9027V68.7646H149.576V64.1754H148.316V69.9027H152.431ZM158.96 69.9027L156.504 64.1332H155.342L152.887 69.9027H154.173L154.697 68.617H157.118L157.642 69.9027H158.96ZM156.667 67.5053H155.145L155.907 65.648L156.667 67.5053ZM168.091 64.1754H166.773L165.588 68.0533L164.302 64.1595H163.222L161.937 68.0533L160.751 64.1754H159.402L161.357 69.9449H162.453L163.747 66.1986L165.04 69.9449H166.136L168.091 64.1754ZM176.012 66.1696V66.1539C176.012 65.8588 175.962 65.59 175.862 65.3477C175.762 65.1053 175.617 64.8972 175.427 64.7207C175.241 64.5468 175.012 64.4098 174.74 64.3149C174.472 64.2201 174.163 64.1727 173.821 64.1727H171.482V69.9H172.741V68.1824H173.697C174.018 68.1824 174.322 68.1402 174.601 68.0559C174.882 67.9716 175.127 67.8452 175.338 67.6765C175.549 67.5079 175.712 67.2972 175.833 67.0469C175.952 66.7966 176.012 66.5042 176.012 66.1696ZM174.735 66.1959C174.735 66.4409 174.648 66.6464 174.474 66.8151C174.3 66.981 174.055 67.0654 173.737 67.0654H172.738V65.3134H173.712C174.029 65.3134 174.279 65.3872 174.461 65.5347C174.642 65.6823 174.735 65.8983 174.735 66.1802V66.1959ZM181.896 69.9027L180.497 67.8584C180.862 67.7214 181.157 67.5079 181.384 67.2155C181.611 66.9231 181.724 66.5464 181.724 66.0827V66.0669C181.724 65.4715 181.535 65.0079 181.155 64.6759C180.776 64.3439 180.247 64.1779 179.564 64.1779H176.945V69.9054H178.205V68.0717H179.195L180.422 69.9054H181.896V69.9027ZM180.447 66.1459C180.447 66.3909 180.362 66.5885 180.197 66.736C180.03 66.8836 179.791 66.9574 179.48 66.9574H178.202V65.3134H179.453C179.764 65.3134 180.007 65.3819 180.181 65.5189C180.354 65.6559 180.442 65.8588 180.442 66.1328V66.1459H180.447ZM188.439 69.9027L185.984 64.1332H184.822L182.367 69.9027H183.652L184.177 68.617H186.598L187.122 69.9027H188.439ZM186.15 67.5053H184.627L185.389 65.648L186.15 67.5053ZM194.357 68.9779L193.556 68.1692C193.332 68.3774 193.107 68.5407 192.882 68.6592C192.655 68.7804 192.378 68.8384 192.052 68.8384C191.807 68.8384 191.58 68.7909 191.377 68.6961C191.172 68.6013 190.997 68.4722 190.852 68.3062C190.707 68.1429 190.594 67.9505 190.512 67.7345C190.431 67.5159 190.389 67.284 190.389 67.039V67.0232C190.389 66.7782 190.431 66.5464 190.512 66.3329C190.594 66.1169 190.711 65.9273 190.855 65.7639C191.002 65.6006 191.179 65.4715 191.382 65.3793C191.587 65.2871 191.809 65.2397 192.049 65.2397C192.338 65.2397 192.599 65.2976 192.831 65.4109C193.063 65.5242 193.29 65.6849 193.513 65.8851L194.314 64.9604C194.182 64.8287 194.041 64.7101 193.89 64.5994C193.737 64.4914 193.572 64.3966 193.392 64.3202C193.213 64.2439 193.013 64.1833 192.792 64.1411C192.571 64.0963 192.325 64.0752 192.059 64.0752C191.617 64.0752 191.213 64.1543 190.847 64.3097C190.482 64.4651 190.167 64.6785 189.907 64.9473C189.646 65.2159 189.441 65.5321 189.293 65.8878C189.146 66.246 189.072 66.628 189.072 67.0364V67.0522C189.072 67.4605 189.146 67.8452 189.293 68.2061C189.441 68.567 189.646 68.8779 189.907 69.1439C190.167 69.4074 190.478 69.6182 190.839 69.7709C191.201 69.9238 191.59 70.0002 192.009 70.0002C192.288 70.0002 192.539 69.9764 192.762 69.9317C192.987 69.8843 193.192 69.8184 193.382 69.7262C193.569 69.6366 193.742 69.5286 193.901 69.4021C194.057 69.2783 194.209 69.136 194.357 68.9779ZM199.699 65.3371V64.1754H194.955V65.3371H196.698V69.9027H197.958V65.3371H199.699ZM201.983 69.9027V64.1754H200.724V69.9027H201.983ZM208.446 68.9779L207.645 68.1692C207.421 68.3774 207.197 68.5407 206.971 68.6592C206.744 68.7804 206.467 68.8384 206.141 68.8384C205.896 68.8384 205.669 68.7909 205.466 68.6961C205.261 68.6013 205.087 68.4722 204.942 68.3062C204.797 68.1429 204.683 67.9505 204.602 67.7345C204.52 67.5159 204.478 67.284 204.478 67.039V67.0232C204.478 66.7782 204.52 66.5464 204.602 66.3329C204.683 66.1169 204.8 65.9273 204.944 65.7639C205.092 65.6006 205.268 65.4715 205.472 65.3793C205.677 65.2871 205.898 65.2397 206.138 65.2397C206.427 65.2397 206.688 65.2976 206.921 65.4109C207.152 65.5242 207.379 65.6849 207.602 65.8851L208.403 64.9604C208.272 64.8287 208.13 64.7101 207.977 64.5994C207.824 64.4914 207.658 64.3966 207.479 64.3202C207.3 64.2439 207.099 64.1833 206.878 64.1411C206.657 64.0963 206.412 64.0752 206.146 64.0752C205.703 64.0752 205.3 64.1543 204.934 64.3097C204.567 64.4651 204.254 64.6785 203.993 64.9473C203.732 65.2159 203.527 65.5321 203.38 65.8878C203.232 66.246 203.158 66.628 203.158 67.0364V67.0522C203.158 67.4605 203.232 67.8452 203.38 68.2061C203.527 68.567 203.732 68.8779 203.993 69.1439C204.254 69.4074 204.565 69.6182 204.926 69.7709C205.287 69.9238 205.677 70.0002 206.096 70.0002C206.375 70.0002 206.625 69.9764 206.849 69.9317C207.073 69.8869 207.278 69.8184 207.468 69.7262C207.656 69.6366 207.829 69.5286 207.987 69.4021C208.146 69.2783 208.298 69.136 208.446 68.9779ZM213.807 69.9027V68.783H210.698V67.5791H213.398V66.4594H210.698V65.2976H213.767V64.1754H209.455V69.9027H213.807Z" fill="#479469"/>
</g>
<defs>
<clipPath id="clip0_291_3291">
<rect width="157.5" height="40" fill="white" transform="translate(71.25 30)"/>
</clipPath>
</defs>
</svg>
