<svg width="300" height="100" viewBox="0 0 300 100" fill="none" xmlns="http://www.w3.org/2000/svg">
<rect width="300" height="100" fill="white"/>
<g clip-path="url(#clip0_298_13402)">
<path d="M170.615 54.856C169.138 56.654 167.297 58.1187 165.212 59.1534C163.1 60.2277 160.788 60.7315 158.232 60.7315C156.023 60.7315 153.977 60.3249 152.065 59.5176C150.2 58.7419 148.492 57.631 147.027 56.2399C145.596 54.858 144.456 53.2026 143.677 51.3719C142.852 49.489 142.431 47.4546 142.439 45.3992L144.721 40.4341L147.131 45.6663L149.48 50.6678C150.392 51.8818 151.532 52.9065 152.836 53.6845C153.304 53.988 153.807 54.2551 154.348 54.4918C155.583 55.0327 156.92 55.3057 158.269 55.293C160.084 55.293 161.728 54.8924 163.137 54.0548C164.539 53.2322 165.741 52.1085 166.657 50.7649L170.615 54.856ZM148.314 33.12C151.093 31.0552 154.473 29.9592 157.935 30.0001C160.484 30.0001 162.803 30.5343 164.915 31.5783C166.942 32.5812 168.737 33.9976 170.184 35.7361L166.22 39.7968C165.307 38.4859 164.102 37.4054 162.7 36.6405C161.243 35.8302 159.601 35.4139 157.935 35.4326C156.563 35.4326 155.252 35.7057 154.014 36.2399C152.826 36.7525 151.743 37.481 150.821 38.3886L148.314 33.12Z" fill="#50AFCF"/>
<path d="M149.82 50.3341L147.464 45.2961L144.678 39.2931L134.718 60.6588H128.405L142.427 31.0078H146.924L158.232 54.9228C154.979 54.8257 151.622 52.8105 149.813 50.328L149.82 50.3341Z" fill="#4498C6"/>
<path d="M127.313 69.8912H126.062L125.522 68.7501L124.69 66.9048L124.156 65.7273L123.61 66.8684L122.408 69.4542L122.208 69.8912H121L123.719 64.1127H124.581L127.3 69.8791L127.313 69.8912ZM131.701 69.8912H127.92V64.1127H131.707V65.0536H128.988V66.4253H131.677V67.3358H128.988V68.914H131.707V69.8851L131.701 69.8912ZM136.466 69.8912H132.575V64.1127H133.716V68.7743H136.466V69.8851V69.8912ZM141.03 69.8912H137.103V64.1127H138.238V68.7743H140.988V69.8851H141.024L141.03 69.8912ZM147.501 69.8912H146.263L145.892 69.1143L145.722 68.7501L144.751 66.6681L144.314 65.7273L143.343 67.8093L142.736 69.1143L142.372 69.8912H141.127L143.847 64.1188H144.721L147.501 69.8851V69.8912ZM155.586 68.8472C155.295 69.1889 154.943 69.4731 154.548 69.6848C154.147 69.8912 153.674 69.9883 153.17 69.9883C152.739 69.9883 152.332 69.9276 151.962 69.7516C151.244 69.4395 150.662 68.8793 150.323 68.1734C150.153 67.8093 150.08 67.4451 150.08 67.002C150.075 66.6057 150.154 66.2128 150.311 65.8489C150.468 65.4849 150.699 65.1581 150.991 64.8897C151.258 64.6226 151.598 64.4223 151.962 64.2523C152.332 64.0824 152.739 64.0156 153.176 64.0156C153.674 64.0156 154.111 64.1188 154.548 64.3191C154.942 64.5196 155.294 64.7936 155.586 65.1264L154.815 65.9276C154.648 65.6582 154.402 65.4464 154.111 65.3206C153.848 65.1828 153.559 65.1053 153.262 65.0937C152.966 65.0822 152.671 65.1369 152.399 65.2539C152.168 65.357 151.953 65.4941 151.762 65.6605C151.59 65.8424 151.443 66.0465 151.325 66.2675C151.22 66.4983 151.164 66.7484 151.161 67.002C151.161 67.269 151.222 67.5058 151.325 67.7425C151.428 67.9792 151.561 68.1795 151.762 68.3495C151.932 68.5133 152.132 68.6469 152.399 68.7501C152.636 68.8472 152.903 68.914 153.17 68.914C153.54 68.914 153.838 68.8533 154.111 68.6833C154.378 68.5133 154.615 68.313 154.778 68.046L155.586 68.8472ZM160.52 69.8912H159.276L158.876 68.5801C158.839 68.4466 158.772 68.313 158.706 68.1795C158.657 68.0597 158.577 67.9549 158.475 67.876C158.383 67.778 158.265 67.7084 158.135 67.6757C157.993 67.6345 157.846 67.6121 157.698 67.6089H157.297V69.8912H156.193V64.1127H158.475C158.706 64.1127 158.942 64.1431 159.143 64.2463C159.343 64.3495 159.543 64.4466 159.683 64.5801C159.847 64.7137 159.95 64.92 160.047 65.1203C160.15 65.3206 160.181 65.5574 160.181 65.788C160.181 65.958 160.15 66.1279 160.12 66.2918C160.047 66.4618 159.98 66.5953 159.877 66.7288C159.783 66.8653 159.671 66.9879 159.543 67.093C159.411 67.1933 159.266 67.275 159.112 67.3358C159.276 67.3965 159.446 67.4997 159.543 67.6393C159.646 67.7668 159.75 67.9003 159.816 68.1067C159.847 68.1674 159.877 68.2706 159.914 68.3373C159.95 68.4041 159.98 68.5073 160.017 68.6105L160.114 68.914C160.152 69.0287 160.198 69.1403 160.253 69.2478L160.387 69.6484C160.417 69.7091 160.448 69.8123 160.52 69.8851V69.8912ZM159.076 65.8608C159.076 65.7273 159.046 65.5938 159.009 65.4967L158.809 65.1932L158.505 64.9929C158.372 64.9564 158.269 64.9261 158.141 64.9261H157.334V66.7349H158.135C158.269 66.7349 158.408 66.6985 158.505 66.6681C158.639 66.6317 158.742 66.5649 158.809 66.4982C158.903 66.4335 158.973 66.3397 159.009 66.2311C159.046 66.134 159.076 65.9944 159.076 65.8669V65.8608ZM165.012 69.8912H161.225V64.1127H165.006V65.0536H162.293V66.4253H164.976V67.3358H162.293V68.914H165.006V69.8851L165.012 69.8912ZM171.021 67.002C171.027 67.7468 170.752 68.4665 170.25 69.0171C170.011 69.2859 169.712 69.4939 169.376 69.6241C169.029 69.7876 168.649 69.8667 168.266 69.8548H165.856V64.0885H168.266C168.649 64.0765 169.029 64.1556 169.376 64.3191C169.71 64.4891 170.014 64.6833 170.25 64.9261C170.481 65.1932 170.681 65.4967 170.821 65.8305C170.952 66.2072 171.02 66.6031 171.021 67.002ZM169.88 66.9716C169.88 66.6985 169.844 66.4314 169.747 66.2008C169.656 65.9707 169.531 65.7558 169.376 65.5634C169.206 65.3935 169.012 65.2235 168.769 65.1264C168.517 65.0158 168.244 64.958 167.968 64.9564H166.997V68.9504H167.968C168.272 68.9504 168.539 68.914 168.769 68.8168C169.012 68.7137 169.206 68.5801 169.376 68.4102C169.546 68.2463 169.68 68.046 169.741 67.8032C169.813 67.5422 169.88 67.269 169.88 66.9716ZM173 69.8851H171.889V64.1188H173V69.8851ZM178.032 65.1264H176.454V69.8912H175.313V65.1264H173.734V64.1127H178.032V65.1203V65.1264Z" fill="#283947"/>
</g>
<defs>
<clipPath id="clip0_298_13402">
<rect width="57.0561" height="40" fill="white" transform="translate(121 30)"/>
</clipPath>
</defs>
</svg>
