<svg width="300" height="100" viewBox="0 0 300 100" fill="none" xmlns="http://www.w3.org/2000/svg">
<rect width="300" height="100" fill="white"/>
<g clip-path="url(#clip0_298_13407)">
<path d="M119.927 65.1367C120.423 65.1367 120.824 65.297 121.128 65.6158C121.432 65.9346 121.585 66.3664 121.585 66.9096V69.676H121V66.9096C121 66.525 120.9 66.2281 120.703 66.0189C120.506 65.8098 120.242 65.7035 119.919 65.7035C119.552 65.7035 119.256 65.8266 119.028 66.0712C118.8 66.3158 118.687 66.6987 118.687 67.22V69.676H118.102V66.9096C118.102 66.5199 118.009 66.2214 117.822 66.0139C117.636 65.8064 117.383 65.7035 117.064 65.7035C116.71 65.7035 116.408 65.8283 116.16 66.0763C115.912 66.3243 115.787 66.7055 115.787 67.22V69.676H115.202V65.243H115.787V65.8907C116.106 65.388 116.558 65.1367 117.144 65.1367C117.781 65.1367 118.232 65.4049 118.491 65.943C118.81 65.4049 119.289 65.1367 119.929 65.1367H119.927Z" fill="#2054D2"/>
<path d="M123.314 64.179C123.231 64.2616 123.13 64.3038 123.012 64.3038C122.894 64.3038 122.792 64.2633 122.71 64.179C122.627 64.0963 122.585 63.9951 122.585 63.877C122.585 63.7589 122.625 63.6577 122.71 63.5751C122.792 63.4924 122.894 63.4502 123.012 63.4502C123.13 63.4502 123.231 63.4924 123.314 63.5751C123.396 63.6577 123.438 63.7589 123.438 63.877C123.438 63.9951 123.396 64.0963 123.314 64.179ZM122.72 69.6764V65.2434H123.305V69.6764H122.72Z" fill="#2054D2"/>
<path d="M126.611 69.7823C125.943 69.7823 125.388 69.5596 124.945 69.1126C124.501 68.6656 124.28 68.1157 124.28 67.4595C124.28 66.8033 124.501 66.2517 124.945 65.8064C125.388 65.3594 125.943 65.1367 126.611 65.1367C127.048 65.1367 127.441 65.2413 127.791 65.4521C128.14 65.6613 128.393 65.9447 128.553 66.299L128.074 66.5739C127.956 66.3074 127.765 66.0965 127.502 65.9397C127.239 65.7828 126.942 65.7052 126.611 65.7052C126.121 65.7052 125.707 65.8756 125.37 66.2146C125.033 66.5554 124.864 66.9703 124.864 67.4595C124.864 67.9487 125.033 68.3653 125.37 68.7044C125.707 69.0451 126.121 69.2138 126.611 69.2138C126.942 69.2138 127.237 69.1362 127.499 68.9794C127.758 68.8225 127.963 68.6116 128.111 68.3451L128.599 68.6285C128.415 68.9827 128.147 69.2644 127.792 69.4702C127.438 69.6777 127.045 69.7806 126.613 69.7806L126.611 69.7823Z" fill="#2054D2"/>
<path d="M130.028 65.9791C130.299 65.441 130.766 65.1729 131.428 65.1729V65.7397C131.026 65.7397 130.692 65.8576 130.426 66.0938C130.159 66.3299 130.026 66.7027 130.026 67.2105V69.675H129.44V65.242H130.026V65.9775L130.028 65.9791Z" fill="#2054D2"/>
<path d="M135.68 69.1126C135.228 69.5596 134.676 69.7823 134.027 69.7823C133.377 69.7823 132.826 69.5596 132.373 69.1126C131.921 68.6656 131.695 68.1157 131.695 67.4595C131.695 66.8033 131.921 66.2517 132.373 65.8064C132.826 65.3594 133.377 65.1367 134.027 65.1367C134.676 65.1367 135.228 65.3594 135.68 65.8064C136.132 66.2534 136.358 66.8033 136.358 67.4595C136.358 68.1157 136.132 68.6673 135.68 69.1126ZM132.785 68.7061C133.122 69.0468 133.536 69.2155 134.027 69.2155C134.517 69.2155 134.931 69.0451 135.268 68.7061C135.605 68.367 135.774 67.9504 135.774 67.4612C135.774 66.972 135.605 66.5553 135.268 66.2163C134.931 65.8772 134.517 65.7069 134.027 65.7069C133.536 65.7069 133.122 65.8772 132.785 66.2163C132.448 66.557 132.279 66.972 132.279 67.4612C132.279 67.9504 132.448 68.367 132.785 68.7061Z" fill="#2054D2"/>
<path d="M140.488 65.2435V69.6765H139.902V65.8103H138.094V69.6765H137.509V65.8103H136.755V65.2435H137.509V65.0664C137.509 63.9311 138.13 63.3643 139.371 63.3643C139.619 63.3643 139.903 63.3997 140.223 63.4706V64.0019C139.945 63.9547 139.661 63.9311 139.371 63.9311C138.928 63.9311 138.604 64.0171 138.4 64.1875C138.195 64.3596 138.094 64.6514 138.094 65.0647V65.2418H140.488V65.2435Z" fill="#2054D2"/>
<path d="M143.805 65.1373C144.343 65.1373 144.767 65.301 145.077 65.6299C145.387 65.9588 145.543 66.3991 145.543 66.9558V69.6783H144.957V66.9558C144.957 66.5594 144.853 66.2524 144.642 66.0331C144.433 65.8138 144.134 65.7041 143.751 65.7041C143.326 65.7041 142.98 65.8391 142.714 66.1073C142.447 66.3772 142.314 66.7921 142.314 67.3522V69.675H141.729V65.2419H142.314V65.9335C142.645 65.4022 143.142 65.1357 143.803 65.1357L143.805 65.1373Z" fill="#2054D2"/>
<path d="M150.49 65.243H151.075V69.676H150.49V68.8073C150.082 69.4567 149.485 69.7823 148.699 69.7823C148.066 69.7823 147.526 69.5579 147.081 69.1092C146.634 68.6605 146.411 68.1106 146.411 67.4595C146.411 66.8084 146.634 66.2601 147.081 65.8098C147.526 65.3611 148.066 65.1367 148.699 65.1367C149.485 65.1367 150.082 65.4623 150.49 66.1117V65.243ZM147.503 68.7061C147.84 69.0468 148.253 69.2155 148.744 69.2155C149.235 69.2155 149.648 69.0451 149.986 68.7061C150.323 68.367 150.492 67.9504 150.492 67.4612C150.492 66.972 150.323 66.5553 149.986 66.2163C149.648 65.8772 149.235 65.7069 148.744 65.7069C148.253 65.7069 147.84 65.8772 147.503 66.2163C147.165 66.557 146.997 66.972 146.997 67.4612C146.997 67.9504 147.165 68.367 147.503 68.7061Z" fill="#2054D2"/>
<path d="M154.39 65.1373C154.928 65.1373 155.351 65.301 155.662 65.6299C155.972 65.9588 156.127 66.3991 156.127 66.9558V69.6783H155.542V66.9558C155.542 66.5594 155.437 66.2524 155.227 66.0331C155.017 65.8138 154.719 65.7041 154.336 65.7041C153.911 65.7041 153.565 65.8391 153.299 66.1073C153.032 66.3772 152.899 66.7921 152.899 67.3522V69.675H152.313V65.2419H152.899V65.9335C153.229 65.4022 153.727 65.1357 154.388 65.1357L154.39 65.1373Z" fill="#2054D2"/>
<path d="M159.331 69.7823C158.663 69.7823 158.108 69.5596 157.665 69.1126C157.221 68.6656 157 68.1157 157 67.4595C157 66.8033 157.221 66.2517 157.665 65.8064C158.108 65.3594 158.663 65.1367 159.331 65.1367C159.768 65.1367 160.161 65.2413 160.51 65.4521C160.859 65.6613 161.113 65.9447 161.273 66.299L160.794 66.5739C160.676 66.3074 160.485 66.0965 160.222 65.9397C159.959 65.7828 159.662 65.7052 159.331 65.7052C158.84 65.7052 158.427 65.8756 158.09 66.2146C157.752 66.5554 157.584 66.9703 157.584 67.4595C157.584 67.9487 157.752 68.3653 158.09 68.7044C158.427 69.0451 158.84 69.2138 159.331 69.2138C159.662 69.2138 159.957 69.1362 160.218 68.9794C160.478 68.8225 160.682 68.6116 160.831 68.3451L161.318 68.6285C161.135 68.9827 160.866 69.2644 160.512 69.4702C160.158 69.6777 159.765 69.7806 159.333 69.7806L159.331 69.7823Z" fill="#2054D2"/>
<path d="M164.162 65.1367C164.819 65.1367 165.348 65.3695 165.755 65.8334C166.16 66.2973 166.362 66.8455 166.362 67.4781C166.362 67.5438 166.355 67.6349 166.344 67.753H162.452C162.511 68.2017 162.702 68.5576 163.024 68.8208C163.346 69.0839 163.744 69.2155 164.216 69.2155C164.554 69.2155 164.844 69.1464 165.09 69.008C165.335 68.8697 165.52 68.6875 165.645 68.4632L166.16 68.7651C165.964 69.0789 165.699 69.3268 165.362 69.5107C165.024 69.6946 164.64 69.7857 164.21 69.7857C163.513 69.7857 162.945 69.5664 162.508 69.1295C162.071 68.6926 161.852 68.1359 161.852 67.4629C161.852 66.7898 162.067 66.2483 162.499 65.8047C162.931 65.3611 163.486 65.1401 164.166 65.1401L164.162 65.1367ZM164.162 65.7035C163.702 65.7035 163.316 65.8418 163.005 66.1151C162.695 66.39 162.509 66.746 162.452 67.1829H165.76C165.701 66.7156 165.52 66.3529 165.218 66.0915C164.917 65.8317 164.566 65.7018 164.164 65.7018L164.162 65.7035Z" fill="#2054D2"/>
<path d="M171.884 65.1363C172.516 65.1363 173.056 65.3607 173.501 65.8094C173.947 66.2581 174.171 66.808 174.171 67.4591C174.171 68.1102 173.948 68.6585 173.501 69.1089C173.054 69.5576 172.516 69.7819 171.884 69.7819C171.098 69.7819 170.5 69.4564 170.092 68.8069V69.6756H169.507V63.4697H170.092V66.1113C170.5 65.4619 171.098 65.1363 171.884 65.1363ZM170.598 68.7057C170.936 69.0464 171.349 69.2151 171.84 69.2151C172.331 69.2151 172.744 69.0448 173.081 68.7057C173.419 68.3666 173.587 67.95 173.587 67.4608C173.587 66.9716 173.419 66.555 173.081 66.2159C172.744 65.8768 172.331 65.7065 171.84 65.7065C171.349 65.7065 170.936 65.8768 170.598 66.2159C170.261 66.5567 170.092 66.9716 170.092 67.4608C170.092 67.95 170.261 68.3666 170.598 68.7057Z" fill="#2054D2"/>
<path d="M178.959 65.243H179.544V69.676H178.959V68.8073C178.55 69.4567 177.953 69.7823 177.167 69.7823C176.535 69.7823 175.995 69.5579 175.55 69.1092C175.102 68.6605 174.88 68.1106 174.88 67.4595C174.88 66.8084 175.102 66.2601 175.55 65.8098C175.995 65.3611 176.535 65.1367 177.167 65.1367C177.953 65.1367 178.55 65.4623 178.959 66.1117V65.243ZM175.971 68.7061C176.309 69.0468 176.722 69.2155 177.213 69.2155C177.704 69.2155 178.117 69.0451 178.454 68.7061C178.792 68.367 178.96 67.9504 178.96 67.4612C178.96 66.972 178.792 66.5553 178.454 66.2163C178.117 65.8772 177.704 65.7069 177.213 65.7069C176.722 65.7069 176.309 65.8772 175.971 66.2163C175.634 66.557 175.465 66.972 175.465 67.4612C175.465 67.9504 175.634 68.367 175.971 68.7061Z" fill="#2054D2"/>
<path d="M182.862 65.1373C183.4 65.1373 183.823 65.301 184.134 65.6299C184.444 65.9588 184.599 66.3991 184.599 66.9558V69.6783H184.014V66.9558C184.014 66.5594 183.909 66.2524 183.698 66.0331C183.489 65.8138 183.191 65.7041 182.808 65.7041C182.383 65.7041 182.037 65.8391 181.77 66.1073C181.504 66.3772 181.37 66.7921 181.37 67.3522V69.675H180.785V65.2419H181.37V65.9335C181.701 65.4022 182.199 65.1357 182.86 65.1357L182.862 65.1373Z" fill="#2054D2"/>
<path d="M189.317 69.6756H188.536L186.32 67.5367V69.6756H185.734V63.4697H186.32V67.2061L188.43 65.2426H189.228L186.94 67.3697L189.317 69.6756Z" fill="#2054D2"/>
<path d="M190.859 69.6243C190.764 69.7187 190.649 69.766 190.513 69.766C190.376 69.766 190.261 69.7187 190.167 69.6243C190.073 69.5298 190.025 69.4151 190.025 69.2785C190.025 69.1418 190.073 69.0271 190.167 68.9327C190.261 68.8382 190.376 68.791 190.513 68.791C190.649 68.791 190.764 68.8382 190.859 68.9327C190.953 69.0271 191 69.1418 191 69.2785C191 69.4151 190.953 69.5298 190.859 69.6243Z" fill="#2054D2"/>
<path d="M111.313 65.2588H110.21H109.105H108V66.3637H109.105H110.21V67.4686H111.313V68.5735V69.6767H112.418V68.5735V67.4686V66.3637V65.2588H111.313Z" fill="#E4B79F"/>
<path d="M110.207 67.4688H109.103V68.5737H110.207V67.4688Z" fill="#E4B79F"/>
<path d="M109.105 68.5732H108V69.6781H109.105V68.5732Z" fill="#E4B79F"/>
<path d="M151.523 51.2492H136.649C137.31 53.7263 139.162 54.9165 142.151 54.9165C143.858 55.0277 145.509 54.2949 146.572 52.9548L150.681 55.3208C148.758 58.12 145.524 59.7225 142.133 59.5582C139.223 59.6919 136.385 58.6257 134.283 56.6044C132.306 54.6331 131.231 51.9321 131.312 49.1394C131.27 46.3998 132.328 43.7584 134.246 41.8031C136.208 39.7866 138.936 38.6995 141.747 38.8139C144.449 38.7092 147.06 39.8028 148.882 41.8031C150.776 43.8051 151.799 46.4771 151.724 49.2312C151.704 49.9076 151.636 50.5808 151.523 51.2476M136.577 47.3065H146.629C146.242 44.9341 144.151 43.2221 141.75 43.3074C140.533 43.2575 139.336 43.6263 138.357 44.3527C137.432 45.0936 136.801 46.1405 136.578 47.3049" fill="#2054D2"/>
<path d="M159.374 30.2139H154.257V59.0272H159.374V30.2139Z" fill="#2054D2"/>
<path d="M167.884 30.2139H162.785V59.0272H167.884V30.2139Z" fill="#2054D2"/>
<path d="M123.738 39.3652V39.4023V59.0273H128.728V39.3652H123.738Z" fill="#2054D2"/>
<path d="M128.653 49.1964C128.662 54.8995 124.048 59.5299 118.345 59.5412C112.642 59.5509 108.011 54.9365 108 49.2335C107.99 43.5304 112.605 38.9 118.308 38.8887H118.325C124.021 38.8887 128.641 43.5014 128.651 49.1964M113.044 49.1964C113.044 52.1132 115.409 54.4791 118.327 54.4791C121.245 54.4791 123.61 52.1132 123.61 49.1964C123.61 46.2796 121.244 43.9137 118.327 43.9137C115.41 43.9137 113.044 46.2796 113.044 49.1964Z" fill="#D7A18F"/>
<path d="M186.24 39.3652V39.4023V59.0273H191.23V39.3652H186.24Z" fill="#2054D2"/>
<path d="M191.16 49.1964C191.17 54.8995 186.556 59.5299 180.853 59.5412C175.15 59.5509 170.519 54.9365 170.508 49.2335C170.498 43.5304 175.113 38.9 180.816 38.8887H180.833C186.528 38.8887 191.149 43.5014 191.159 49.1964M175.552 49.1964C175.552 52.1132 177.918 54.4791 180.835 54.4791C183.752 54.4791 186.118 52.1132 186.118 49.1964C186.118 46.2796 183.752 43.9137 180.835 43.9137C177.921 43.9234 175.564 46.2829 175.552 49.1964Z" fill="#D7A18F"/>
</g>
<defs>
<clipPath id="clip0_298_13407">
<rect width="84" height="40" fill="white" transform="translate(108 30)"/>
</clipPath>
</defs>
</svg>
