<svg width="300" height="100" viewBox="0 0 300 100" fill="none" xmlns="http://www.w3.org/2000/svg">
<rect width="300" height="100" fill="white"/>
<g clip-path="url(#clip0_291_3552)">
<mask id="mask0_291_3552" style="mask-type:luminance" maskUnits="userSpaceOnUse" x="129" y="30" width="42" height="40">
<path d="M129.458 30H170.542V70H129.458V30Z" fill="white"/>
</mask>
<g mask="url(#mask0_291_3552)">
<path d="M130.257 51.9125H149.258C149.258 51.9125 153.652 51.8554 155.25 49.4018C156.847 46.834 161.698 36.62 161.698 36.62C161.698 36.62 162.097 35.5359 163.124 35.5359L167.632 35.3076L167.176 36.7912H164.437C163.409 36.7912 163.01 37.9324 163.01 37.9324C163.01 37.9324 157.418 50.6571 155.82 53.1678C154.166 55.7356 149.772 55.7356 149.772 55.7356H130.257V51.9125Z" fill="#EF8939"/>
<path d="M163.923 34.2234H168.202L168.716 32.7969H162.839C162.839 32.7969 160.442 32.911 159.472 35.3646L155.135 43.8097C155.135 43.8097 154.108 46.3204 148.973 46.3204H130.028V50.0865H149.486C153.994 50.0865 155.478 46.6628 155.478 46.6628L160.67 36.1635C160.784 36.1635 161.355 34.2234 163.923 34.2234Z" fill="#EF8939"/>
<path d="M163.98 31.427H169.458L169.971 30.0005H163.98C163.98 30.0005 159.472 29.7152 157.532 33.31L154.165 39.0162C152.91 41.4127 148.516 40.9562 148.516 40.9562H130.028V44.7794H149.03C149.03 44.7794 152.625 44.7794 154.336 42.2687L159.073 33.8806C159.073 33.8806 160.442 31.427 163.98 31.427Z" fill="#EF8939"/>
<path d="M132.425 61.8979L129.8 61.4414C130.086 60.3002 130.599 59.5013 131.341 58.9878C132.083 58.4171 133.224 58.1318 134.651 58.1318C135.963 58.1318 136.933 58.303 137.618 58.5883C138.245 58.9307 138.759 59.3301 138.987 59.8437C139.272 60.3002 139.387 61.2131 139.387 62.5256L139.33 66.0063C139.33 66.9763 139.387 67.7181 139.501 68.1746C139.558 68.5741 139.786 69.1447 140.014 69.6582H137.104L136.819 68.7452L136.762 68.3458C136.248 68.8594 135.678 69.2588 135.107 69.487C134.536 69.7153 133.909 69.8865 133.281 69.8865C132.083 69.8865 131.17 69.5441 130.542 68.9164C129.8 68.4029 129.458 67.604 129.458 66.634C129.44 66.0445 129.592 65.4623 129.896 64.9565C130.199 64.4508 130.641 64.0428 131.17 63.7809C131.74 63.5527 132.539 63.3244 133.509 63.1532C134.936 62.8679 135.849 62.6397 136.419 62.4114V62.0691C136.419 61.4985 136.305 61.099 136.02 60.8708C135.735 60.6425 135.221 60.5284 134.422 60.5284C133.909 60.5284 133.452 60.5855 133.224 60.8137C132.825 60.9849 132.596 61.4414 132.425 61.8979ZM136.419 64.3515L134.593 64.808C133.795 64.9792 133.281 65.1504 132.996 65.3216C132.596 65.5498 132.368 65.9492 132.368 66.3487C132.368 66.7481 132.539 67.0905 132.825 67.4328C133.167 67.7181 133.509 67.8893 134.023 67.8893C134.593 67.8893 135.05 67.7181 135.563 67.3187C135.906 67.0905 136.134 66.7481 136.305 66.3487L136.419 64.8651V64.3515ZM147.775 66.1775L150.685 66.634C150.342 67.7181 149.715 68.5741 148.916 69.1447C148.006 69.7507 146.927 70.0505 145.835 70.0006C143.894 70.0006 142.411 69.3729 141.498 68.1176C140.756 67.0905 140.357 65.7781 140.357 64.2374C140.357 62.3544 140.87 60.8708 141.783 59.8437C142.81 58.8166 144.009 58.246 145.492 58.246C147.147 58.246 148.459 58.8166 149.486 59.9007C150.456 60.9849 150.913 62.6967 150.856 64.9792H143.438C143.438 65.8922 143.723 66.5769 144.123 67.0905C144.579 67.547 145.207 67.7752 145.892 67.7752C146.291 67.7752 146.748 67.6611 147.033 67.4328C147.375 67.0905 147.603 66.691 147.775 66.1775ZM147.889 63.1532C147.889 62.2973 147.66 61.6126 147.204 61.2131C146.805 60.7567 146.291 60.5284 145.663 60.5284C145.036 60.5284 144.522 60.7567 144.066 61.2131C143.666 61.6696 143.438 62.3544 143.438 63.1532H147.889ZM155.078 69.7153H152.111V58.4171H154.85V60.0149C155.307 59.216 155.763 58.7595 156.106 58.5313C156.505 58.303 156.961 58.1318 157.418 58.1318C158.103 58.1318 158.73 58.3601 159.358 58.7024L158.502 61.3273C157.989 60.9849 157.532 60.8137 157.076 60.8137C156.676 60.8137 156.277 60.9849 156.049 61.2131C155.763 61.4414 155.535 61.8408 155.364 62.4685C155.193 63.0391 155.078 64.2945 155.078 66.2345V69.7153ZM158.902 63.9521C158.902 62.925 159.13 62.012 159.586 61.042C160.1 60.129 160.785 59.4442 161.698 58.9307C162.611 58.4171 163.581 58.1889 164.665 58.1889C166.377 58.1889 167.803 58.7595 168.887 59.9007C169.971 60.9849 170.485 62.3544 170.485 64.0662C170.516 64.8442 170.388 65.6204 170.108 66.347C169.828 67.0736 169.403 67.7353 168.857 68.2912C168.312 68.8471 167.659 69.2855 166.938 69.5795C166.217 69.8735 165.443 70.0168 164.665 70.0006C163.638 70.0006 162.611 69.7723 161.698 69.2588C160.728 68.8023 159.986 68.1746 159.586 67.2617C159.13 66.3487 158.902 65.2074 158.902 63.9521ZM161.983 64.0662C161.983 65.2074 162.211 66.0063 162.782 66.634C163.295 67.2617 163.923 67.547 164.779 67.547C165.578 67.547 166.205 67.2617 166.719 66.634C167.233 66.0634 167.518 65.2074 167.518 64.0662C167.518 62.982 167.233 62.1261 166.719 61.5555C166.48 61.2725 166.184 61.0444 165.849 60.8868C165.514 60.7293 165.149 60.6459 164.779 60.6425C163.98 60.6425 163.295 60.9849 162.782 61.5555C162.211 62.1261 161.983 62.982 161.983 64.0662Z" fill="black"/>
</g>
</g>
<defs>
<clipPath id="clip0_291_3552">
<rect width="41.0842" height="40" fill="white" transform="translate(129.458 30)"/>
</clipPath>
</defs>
</svg>
