<svg width="300" height="100" viewBox="0 0 300 100" fill="none" xmlns="http://www.w3.org/2000/svg">
<rect width="300" height="100" fill="white"/>
<g clip-path="url(#clip0_298_13386)">
<path fill-rule="evenodd" clip-rule="evenodd" d="M102.467 58.7619H83.1205C83.3382 60.3673 84.1273 61.8095 85.3518 62.8435C86.5763 63.8503 88.1001 64.3401 90.0048 64.3401C92.1817 64.3673 94.277 63.5238 95.8008 61.9728L100.862 64.3673C99.7191 66.0544 98.1409 67.4422 96.3178 68.3401C94.5491 69.2109 92.4538 69.619 90.0321 69.619C86.277 69.619 83.2021 68.4217 80.8348 66.0544C78.4674 63.687 77.2974 60.7211 77.2974 57.1292C77.2974 53.4558 78.4674 50.4353 80.8348 48.0136C83.2021 45.5918 86.1409 44.3945 89.7055 44.3945C93.4878 44.3945 96.5627 45.5918 98.93 48.0136C101.297 50.4353 102.467 53.619 102.467 57.5918V58.7619ZM96.4538 54.0272C96.0729 52.6939 95.2293 51.551 94.1137 50.7619C92.9164 49.9183 91.5014 49.483 90.0321 49.5102C88.4538 49.483 86.9028 49.9728 85.6239 50.8979C84.8348 51.4966 84.1001 52.5306 83.4198 54L96.4538 54.0272Z" fill="black"/>
<path fill-rule="evenodd" clip-rule="evenodd" d="M104.889 45.2108H110.059V48.2312C110.549 47.1428 111.311 46.1904 112.291 45.5101C113.188 44.9115 114.25 44.585 115.338 44.585C116.182 44.6122 117.025 44.8026 117.787 45.2108L115.91 50.3809C115.365 50.0816 114.794 49.8911 114.168 49.8367C113.243 49.8367 112.454 50.4081 111.828 51.5509C111.202 52.6938 110.876 54.9523 110.876 58.2992L110.903 59.4693V69.1836H104.916L104.889 45.2108Z" fill="black"/>
<path fill-rule="evenodd" clip-rule="evenodd" d="M129.706 44.4219C131.937 44.4219 134.141 44.9933 136.1 46.109C140.018 48.313 142.44 52.4763 142.44 56.9933C142.44 59.2246 141.869 61.4015 140.753 63.3334C139.665 65.2654 138.087 66.8709 136.155 67.9593C134.195 69.0749 131.991 69.6464 129.733 69.6192C126.413 69.6736 123.229 68.3402 120.916 65.9457C118.522 63.6055 117.216 60.3675 117.27 57.0205C117.27 53.2654 118.658 50.1362 121.406 47.6328C123.801 45.4831 126.576 44.4219 129.706 44.4219ZM129.814 50.0817C128.046 50.0273 126.359 50.7348 125.134 52.0409C123.882 53.347 123.257 55.0069 123.257 57.0477C123.257 59.143 123.882 60.83 125.107 62.1089C126.304 63.3879 128.018 64.0953 129.787 64.0409C131.556 64.0953 133.27 63.3607 134.495 62.0817C135.746 60.7756 136.372 59.0885 136.372 57.0205C136.372 54.9525 135.746 53.2926 134.522 52.0137C133.297 50.7348 131.719 50.0817 129.814 50.0817Z" fill="black"/>
<path fill-rule="evenodd" clip-rule="evenodd" d="M151.256 35.7686V47.6869C152.263 46.6529 153.46 45.8094 154.794 45.2379C156.073 44.6937 157.46 44.4216 158.848 44.4216C161.977 44.4216 164.644 45.5917 166.821 47.959C169.025 50.3264 170.114 53.3468 170.114 57.0747C170.114 60.6393 168.971 63.6325 166.712 66.0543C164.454 68.4488 161.76 69.6733 158.658 69.6733C157.324 69.6733 156.018 69.4284 154.794 68.9386C153.488 68.3672 152.29 67.5509 151.256 66.5169V69.0475H145.27V35.7686H151.256ZM157.597 49.9726C155.828 49.9182 154.114 50.6257 152.862 51.9046C151.61 53.2107 150.984 54.8978 150.984 56.9658C150.984 59.0883 151.61 60.8298 152.862 62.1359C154.086 63.442 155.801 64.1495 157.597 64.1223C159.365 64.1495 161.052 63.4148 162.25 62.1087C163.501 60.7754 164.127 59.0611 164.127 56.993C164.127 54.925 163.501 53.2379 162.277 51.9318C161.052 50.6529 159.365 49.9182 157.597 49.9726Z" fill="black"/>
<path fill-rule="evenodd" clip-rule="evenodd" d="M184.399 44.4219C186.631 44.4219 188.835 44.9933 190.794 46.109C194.712 48.313 197.134 52.4763 197.134 56.9933C197.134 59.2246 196.563 61.4015 195.447 63.3334C194.359 65.2654 192.78 66.8709 190.848 67.9593C188.889 69.0749 186.685 69.6464 184.427 69.6192C181.107 69.6736 177.923 68.3402 175.61 65.9457C173.216 63.6055 171.91 60.3675 171.964 57.0205C171.964 53.2654 173.352 50.1362 176.1 47.6328C178.495 45.4831 181.27 44.4219 184.399 44.4219ZM184.508 50.0817C182.74 50.0273 181.052 50.7348 179.828 52.0409C178.576 53.347 177.95 55.0069 177.95 57.0477C177.95 59.143 178.576 60.83 179.801 62.1089C180.998 63.3879 182.712 64.0953 184.481 64.0409C186.25 64.0953 187.964 63.3607 189.189 62.0817C190.44 60.7756 191.066 59.0885 191.066 57.0205C191.066 54.9525 190.44 53.2926 189.216 52.0137C187.991 50.7348 186.413 50.0817 184.508 50.0817Z" fill="black"/>
<path fill-rule="evenodd" clip-rule="evenodd" d="M200.59 36.1768H206.603V45.0203H210.195V50.1904H206.63V68.9931H200.617V50.2176H197.542V45.0475H200.617V36.1768H200.59Z" fill="black"/>
<path fill-rule="evenodd" clip-rule="evenodd" d="M215.692 35.1428C216.726 35.1156 217.705 35.551 218.413 36.2857C219.147 37.0204 219.556 38.0272 219.556 39.0612C219.583 40.0952 219.175 41.0748 218.44 41.8095C217.733 42.5442 216.78 42.9523 215.746 42.9523C214.712 42.9795 213.705 42.5442 212.998 41.7823C212.263 41.0476 211.855 40.0136 211.855 38.9795C211.855 36.8571 213.569 35.1428 215.692 35.1428ZM212.671 45.0204H218.685V69.0204H212.671V45.0204Z" fill="black"/>
<path fill-rule="evenodd" clip-rule="evenodd" d="M246.032 50.0547L240.998 52.803C240.209 51.9322 239.256 51.2247 238.195 50.7621C237.161 50.354 236.073 50.1635 234.957 50.1907C232.698 50.1907 230.875 50.871 229.488 52.2043C228.1 53.5377 227.392 55.2792 227.392 57.3744C227.392 59.4152 228.073 61.0751 229.406 62.3812C230.739 63.6601 232.508 64.3132 234.685 64.3132C237.379 64.3132 239.474 63.388 240.971 61.5649L245.732 64.8302C243.147 68.1771 239.528 69.8642 234.848 69.8642C230.63 69.8642 227.338 68.6125 224.943 66.1091C222.549 63.6057 221.351 60.6941 221.351 57.32C221.324 52.6941 223.855 48.4492 227.937 46.2996C230.086 45.1567 232.481 44.5853 234.93 44.6125C237.161 44.5581 239.338 45.0479 241.352 46.0275C243.229 46.9254 244.835 48.3404 246.032 50.0547Z" fill="black"/>
<path fill-rule="evenodd" clip-rule="evenodd" d="M264.291 48.3945L260.563 52.1224C259.039 50.6258 257.678 49.8639 256.427 49.8639C255.855 49.8367 255.311 49.9728 254.848 50.2993C254.495 50.5442 254.277 50.9524 254.277 51.3605C254.277 51.687 254.413 52.0136 254.631 52.2585C254.876 52.5306 255.474 52.9115 256.427 53.3741L258.631 54.4626C260.944 55.6054 262.549 56.7755 263.42 57.9728C265.488 60.966 265.053 65.0204 262.386 67.4966C260.808 68.9115 258.712 69.6462 256.1 69.6462C252.59 69.6462 249.814 68.2857 247.719 65.5374L251.42 61.5102C252.127 62.3265 252.944 63.0068 253.896 63.4966C254.658 63.9592 255.529 64.2041 256.427 64.2585C257.107 64.2857 257.787 64.0952 258.331 63.687C258.767 63.3877 259.039 62.8979 259.066 62.3537C259.066 61.4285 258.195 60.5306 256.427 59.6326L254.386 58.6258C250.495 56.6666 248.563 54.2177 248.563 51.2789C248.536 49.4013 249.352 47.6326 250.767 46.4081C252.236 45.0748 254.114 44.3945 256.372 44.3945C259.529 44.3945 262.44 45.8639 264.291 48.3945Z" fill="black"/>
<path fill-rule="evenodd" clip-rule="evenodd" d="M65.9775 30L51.3653 49.0476H37.4877L46.4673 55.7687L35.7734 69.2925H43.0387L51.1204 58.4626L66.0047 69.2925H73.8959V30H65.9775ZM65.787 68.449L54.8211 54.5714L65.787 40.3401V68.449Z" fill="black"/>
</g>
<defs>
<clipPath id="clip0_298_13386">
<rect width="230" height="40" fill="white" transform="translate(35.7734 30)"/>
</clipPath>
</defs>
</svg>
