<svg width="300" height="100" viewBox="0 0 300 100" fill="none" xmlns="http://www.w3.org/2000/svg">
<rect width="300" height="100" fill="white"/>
<path d="M123.254 68.9144L119.219 63.0591V47.782V32.5049H130.493L132.409 35.9116H123.254V38.3602H133.474L135.71 42.1928H123.254V68.9144Z" fill="black"/>
<path d="M125.006 69.4989V43.9482H140.975L139.378 47.7808H129.265V49.9101H138.633L137.249 53.7427H129.265V66.7309L125.006 69.4989Z" fill="black"/>
<path fill-rule="evenodd" clip-rule="evenodd" d="M103.256 40.7837L113.795 30.3506L117.735 32.4798V51.5363L113.795 48.6618V44.7228L108.366 41.6354L106.13 43.9775L103.256 40.7837ZM113.689 36.685V40.9434L110.495 39.3465L113.689 36.685Z" fill="black"/>
<path d="M154.992 37.9908H153.525L153.142 36.9609H150.535L150.152 37.9908H148.685L151.027 31.9118H152.65L154.992 37.9908ZM152.786 35.8216L151.838 33.206L150.891 35.8216H152.786ZM156.847 37.9908H155.553V31.9118H159.855V33.051H156.847V34.327H159.791V35.4662H156.847V37.9908ZM165.691 37.9908H164.196L163.002 35.8308H162.054V37.9908H160.76V31.9118H163.603C164.229 31.9118 164.727 32.0941 165.098 32.4586C165.469 32.8232 165.654 33.2941 165.654 33.8713C165.654 34.3695 165.52 34.7735 165.253 35.0834C164.992 35.3933 164.679 35.5908 164.314 35.6758L165.691 37.9908ZM163.421 34.6915C163.682 34.6915 163.898 34.6186 164.068 34.4728C164.238 34.3209 164.323 34.1173 164.323 33.8622C164.323 33.6191 164.238 33.4247 164.068 33.2789C163.898 33.127 163.682 33.051 163.421 33.051H162.054V34.6915H163.421ZM167.91 37.9908H166.616V31.9118H167.91V37.9908ZM172.07 38.1001C171.141 38.1001 170.366 37.8085 169.746 37.2252C169.133 36.6358 168.826 35.8794 168.826 34.9558C168.826 34.0262 169.133 33.2698 169.746 32.6865C170.366 32.1032 171.141 31.8115 172.07 31.8115C173.206 31.8115 174.051 32.3067 174.604 33.2971L173.492 33.8439C173.358 33.5887 173.161 33.3791 172.9 33.2151C172.644 33.0449 172.368 32.9599 172.07 32.9599C171.517 32.9599 171.059 33.1482 170.694 33.5249C170.336 33.9016 170.156 34.3786 170.156 34.9558C170.156 35.533 170.336 36.01 170.694 36.3867C171.059 36.7634 171.517 36.9518 172.07 36.9518C172.368 36.9518 172.644 36.8697 172.9 36.7057C173.161 36.5356 173.358 36.3229 173.492 36.0677L174.604 36.6054C174.039 37.6019 173.194 38.1001 172.07 38.1001ZM180.981 37.9908H179.513L179.131 36.9609H176.524L176.141 37.9908H174.674L177.016 31.9118H178.638L180.981 37.9908ZM178.775 35.8216L177.827 33.206L176.879 35.8216H178.775Z" fill="black"/>
<path d="M150.617 51.9956H149.323V45.9167H153.625V47.0559H150.617V48.3318H153.561V49.4711H150.617V51.9956ZM155.824 51.9956H154.53V45.9167H155.824V51.9956ZM162.472 51.9956H161.223L158.325 48.0311V51.9956H157.031V45.9167H158.362L161.178 49.7354V45.9167H162.472V51.9956ZM166.377 51.9956H165.074V47.0559H163.297V45.9167H168.145V47.0559H166.377V51.9956ZM173.277 51.9956H168.975V45.9167H173.277V47.0559H170.269V48.3318H173.213V49.4711H170.269V50.8564H173.277V51.9956ZM177.242 52.105C176.312 52.105 175.537 51.8134 174.918 51.2301C174.304 50.6407 173.997 49.8843 173.997 48.9607C173.997 48.0311 174.304 47.2746 174.918 46.6913C175.537 46.1081 176.312 45.8164 177.242 45.8164C178.378 45.8164 179.222 46.3116 179.775 47.302L178.663 47.8488C178.53 47.5936 178.332 47.384 178.071 47.22C177.816 47.0498 177.539 46.9648 177.242 46.9648C176.689 46.9648 176.23 47.1531 175.865 47.5298C175.507 47.9065 175.328 48.3835 175.328 48.9607C175.328 49.5379 175.507 50.0149 175.865 50.3916C176.23 50.7683 176.689 50.9567 177.242 50.9567C177.539 50.9567 177.816 50.8746 178.071 50.7106C178.332 50.5405 178.53 50.3278 178.663 50.0726L179.775 50.6103C179.21 51.6068 178.366 52.105 177.242 52.105ZM186.014 51.9956H184.71V49.4346H181.84V51.9956H180.545V45.9167H181.84V48.3045H184.71V45.9167H186.014V51.9956Z" fill="black"/>
<path d="M150.617 66.0005H149.323V59.9215H153.625V61.0608H150.617V62.3367H153.561V63.476H150.617V66.0005ZM157.419 66.1099C156.495 66.1099 155.733 65.8152 155.131 65.2258C154.536 64.6365 154.238 63.8831 154.238 62.9656C154.238 62.0481 154.536 61.2947 155.131 60.7053C155.733 60.116 156.495 59.8213 157.419 59.8213C158.336 59.8213 159.093 60.119 159.688 60.7145C160.29 61.3038 160.59 62.0542 160.59 62.9656C160.59 63.877 160.29 64.6304 159.688 65.2258C159.093 65.8152 158.336 66.1099 157.419 66.1099ZM156.079 64.3965C156.419 64.7732 156.866 64.9615 157.419 64.9615C157.972 64.9615 158.415 64.7732 158.749 64.3965C159.09 64.0198 159.26 63.5428 159.26 62.9656C159.26 62.3884 159.09 61.9114 158.749 61.5347C158.415 61.158 157.972 60.9696 157.419 60.9696C156.86 60.9696 156.41 61.158 156.07 61.5347C155.736 61.9114 155.569 62.3884 155.569 62.9656C155.569 63.5428 155.739 64.0198 156.079 64.3965ZM166.284 65.4264C165.822 65.882 165.141 66.1099 164.242 66.1099C163.343 66.1099 162.659 65.882 162.191 65.4264C161.73 64.9646 161.499 64.3448 161.499 63.5671V59.9215H162.811V63.5307C162.811 63.9681 162.936 64.3175 163.185 64.5788C163.434 64.8339 163.786 64.9615 164.242 64.9615C164.698 64.9615 165.047 64.8339 165.29 64.5788C165.539 64.3175 165.664 63.9681 165.664 63.5307V59.9215H166.985V63.5671C166.985 64.3448 166.751 64.9646 166.284 65.4264ZM173.633 66.0005H172.384L169.486 62.036V66.0005H168.192V59.9215H169.523L172.339 63.7403V59.9215H173.633V66.0005ZM177.238 66.0005H174.831V59.9215H177.228C178.182 59.9215 178.957 60.201 179.553 60.76C180.154 61.319 180.455 62.0512 180.455 62.9565C180.455 63.8739 180.157 64.6122 179.562 65.1712C178.966 65.7241 178.191 66.0005 177.238 66.0005ZM177.228 64.8613C177.812 64.8613 178.274 64.679 178.614 64.3145C178.96 63.9499 179.133 63.4972 179.133 62.9565C179.133 62.4036 178.966 61.9509 178.632 61.5985C178.304 61.24 177.839 61.0608 177.238 61.0608H176.126V64.8613H177.228ZM186.304 66.0005H184.809L183.615 63.8405H182.667V66.0005H181.373V59.9215H184.217C184.843 59.9215 185.341 60.1038 185.711 60.4684C186.082 60.8329 186.267 61.3038 186.267 61.881C186.267 62.3793 186.134 62.7833 185.866 63.0932C185.605 63.4031 185.292 63.6005 184.928 63.6856L186.304 66.0005ZM184.035 62.7013C184.296 62.7013 184.511 62.6284 184.682 62.4826C184.852 62.3307 184.937 62.1271 184.937 61.8719C184.937 61.6289 184.852 61.4345 184.682 61.2886C184.511 61.1367 184.296 61.0608 184.035 61.0608H182.667V62.7013H184.035ZM190.059 66.0005H188.765V63.5124L186.431 59.9215H187.908L189.412 62.355L190.916 59.9215H192.383L190.059 63.5124V66.0005Z" fill="black"/>
</svg>
