<svg width="300" height="100" viewBox="0 0 300 100" fill="none" xmlns="http://www.w3.org/2000/svg">
<rect width="300" height="100" fill="white"/>
<path d="M104.621 56.6063C103.911 56.6063 103.282 56.4696 102.734 56.1956C102.197 55.9161 101.752 55.4877 101.453 54.9617C101.146 54.4137 100.993 53.7527 100.993 52.9787C100.993 52.2532 101.13 51.6566 101.405 51.1888C101.694 50.7052 102.106 50.3261 102.638 50.0521C103.186 49.7617 103.839 49.5284 104.597 49.351C105.45 49.1383 106.314 48.9686 107.185 48.8425C107.573 48.7769 107.96 48.7044 108.346 48.625C108.668 48.5448 108.91 48.4239 109.071 48.2623C109.232 48.1013 109.313 47.8668 109.313 47.5612C109.313 47.1578 109.168 46.8114 108.878 46.521C108.588 46.2306 108.12 46.086 107.475 46.086C107.023 46.086 106.612 46.1662 106.241 46.3273C105.886 46.4888 105.58 46.7227 105.323 47.0289C105.064 47.3352 104.871 47.7063 104.742 48.1419L101.307 47.1256C101.517 46.4482 101.807 45.86 102.178 45.36C102.557 44.8671 103.025 44.449 103.557 44.1267C104.089 43.7877 104.694 43.5459 105.371 43.4007C106.093 43.2363 106.831 43.1551 107.572 43.1589C108.862 43.1589 109.91 43.3685 110.716 43.7883C111.538 44.1911 112.143 44.8278 112.529 45.6984C112.933 46.5532 113.134 47.6578 113.134 49.012V50.9713C113.134 51.5515 113.142 52.1402 113.159 52.7369L113.255 54.5024C113.304 55.0826 113.36 55.6713 113.425 56.2679H109.99C109.915 55.8262 109.851 55.3827 109.797 54.938C109.732 54.4058 109.684 53.8657 109.652 53.3171H109.192C108.963 53.9352 108.628 54.5083 108.201 55.0103C107.777 55.5135 107.249 55.918 106.653 56.1956C106.056 56.4696 105.379 56.6063 104.621 56.6063H104.621ZM106.386 53.8493C106.677 53.8493 106.967 53.8013 107.257 53.7041C107.562 53.5917 107.854 53.4458 108.128 53.2691C108.408 53.0698 108.66 52.8338 108.878 52.5674C109.104 52.2934 109.273 51.9951 109.386 51.6725L109.337 49.7617L109.869 49.8826C109.553 50.0808 109.211 50.2355 108.854 50.3425C108.482 50.4555 108.104 50.5442 107.717 50.608C107.344 50.6729 106.973 50.7456 106.604 50.8261C106.274 50.8837 105.95 50.9726 105.637 51.0917C105.363 51.2047 105.145 51.3583 104.984 51.5515C104.823 51.7453 104.742 52.0114 104.742 52.3499C104.742 52.8013 104.895 53.164 105.202 53.438C105.508 53.7126 105.903 53.8493 106.386 53.8493ZM115.764 56.2679V48.3589H113.805V45.5295L117.288 45.6747V45.2148C116.675 45.1018 116.167 44.9007 115.764 44.6103C115.377 44.3041 115.095 43.9493 114.918 43.5459C114.739 43.1341 114.648 42.6893 114.652 42.2402C114.652 41.5306 114.837 40.9261 115.208 40.4261C115.579 39.9103 116.103 39.5154 116.78 39.2408C117.457 38.9668 118.247 38.8301 119.15 38.8301C119.94 38.8301 120.658 38.9261 121.303 39.1199C121.947 39.2973 122.464 39.5233 122.851 39.7973L122.633 43.3041C122.205 43.0181 121.742 42.7905 121.254 42.6273C120.755 42.4499 120.287 42.3612 119.851 42.3612C119.4 42.3612 119.021 42.4821 118.715 42.7239C118.408 42.9499 118.255 43.3284 118.255 43.8606C118.255 44.2798 118.344 44.5939 118.521 44.8041C118.715 45.0131 118.949 45.1583 119.223 45.2391C119.497 45.3035 119.771 45.3357 120.045 45.3357H122.851V48.3589H119.562V56.2679H115.764ZM123.46 56.2679V43.4979H126.653L126.725 47.8273H127.209C127.322 46.6984 127.531 45.8035 127.838 45.1425C128.16 44.4651 128.612 43.973 129.192 43.6668C129.789 43.3606 130.523 43.2075 131.393 43.2075C131.522 43.2075 131.667 43.2154 131.828 43.2318C131.99 43.2318 132.175 43.2476 132.385 43.2798L132.24 47.4402C131.974 47.3091 131.688 47.2272 131.393 47.1984C131.138 47.1531 130.879 47.1287 130.619 47.1256C129.99 47.1256 129.442 47.2465 128.975 47.4883C128.523 47.7301 128.16 48.1013 127.886 48.6013C127.628 49.1007 127.459 49.7295 127.378 50.4877V56.2679H123.46ZM143.98 56.6063C143.125 56.6063 142.351 56.5261 141.658 56.3645C140.965 56.2193 140.36 56.0018 139.845 55.7114C139.328 55.4216 138.901 55.0747 138.562 54.6719C138.245 54.2633 138.015 53.7942 137.885 53.2934L140.788 52.0109C140.901 52.2854 141.094 52.5674 141.368 52.8578C141.658 53.1318 142.037 53.3578 142.505 53.5352C142.989 53.7126 143.569 53.8007 144.246 53.8007C144.891 53.8007 145.391 53.712 145.746 53.5352C146.116 53.3414 146.302 53.0674 146.302 52.7126C146.306 52.5933 146.279 52.475 146.224 52.3692C146.169 52.2633 146.087 52.1734 145.988 52.108C145.794 51.9465 145.496 51.8097 145.093 51.6967C144.69 51.5679 144.19 51.447 143.593 51.334C142.969 51.2025 142.349 51.0575 141.731 50.899C141.119 50.7284 140.527 50.4932 139.965 50.1973C139.417 49.8911 138.973 49.4956 138.635 49.012C138.313 48.5126 138.151 47.8838 138.151 47.1256C138.151 46.3357 138.36 45.6504 138.78 45.0696C139.199 44.473 139.82 44.0058 140.642 43.6668C141.481 43.3284 142.497 43.1589 143.69 43.1589C144.754 43.1589 145.689 43.2962 146.495 43.5702C147.302 43.8442 147.971 44.2397 148.503 44.7555C149.043 45.2426 149.437 45.8706 149.64 46.5691L146.52 47.6821C146.442 47.3331 146.266 47.0139 146.011 46.7628C145.77 46.5047 145.455 46.3109 145.068 46.1826C144.698 46.0374 144.254 45.9645 143.738 45.9645C143.11 45.9645 142.618 46.0612 142.263 46.2549C141.924 46.4482 141.755 46.7069 141.755 47.0289C141.755 47.2866 141.868 47.5047 142.094 47.6821C142.336 47.8431 142.674 47.9804 143.11 48.0928C143.545 48.2058 144.06 48.3267 144.658 48.4561C145.286 48.5849 145.907 48.7386 146.52 48.9154C147.149 49.0764 147.713 49.3024 148.212 49.5928C148.729 49.8668 149.132 50.2374 149.421 50.7052C149.728 51.1566 149.881 51.7448 149.881 52.4708C149.881 53.3256 149.655 54.0668 149.204 54.6956C148.753 55.3086 148.084 55.7843 147.197 56.1227C146.327 56.4448 145.254 56.6063 143.98 56.6063ZM150.868 56.2679V38.8301H154.689V48.4561C155.157 48.1171 155.592 47.7544 155.995 47.3674C156.403 46.9925 156.783 46.5884 157.132 46.1583C157.476 45.7533 157.791 45.3248 158.075 44.8758C158.366 44.425 158.615 43.9651 158.825 43.4973H163.275C163.052 44.1552 162.76 44.7877 162.405 45.3843C162.024 46.0093 161.569 46.586 161.05 47.1018C160.518 47.6176 159.881 48.0606 159.14 48.4318C158.414 48.8024 157.592 49.0527 156.672 49.1815V49.6165C157.833 49.3905 158.785 49.3905 159.527 49.6165C160.284 49.8267 160.889 50.173 161.34 50.6566C161.795 51.1466 162.149 51.7222 162.38 52.3499C162.616 52.9754 162.818 53.6133 162.985 54.2606L163.493 56.2679H159.26L159.019 55.0589C158.857 54.2685 158.664 53.5911 158.438 53.0273C158.228 52.4623 157.922 52.0273 157.519 51.721C157.116 51.399 156.536 51.2374 155.777 51.2374H154.689V56.2679H150.868ZM167.254 56.6063C166.545 56.6063 165.916 56.4696 165.368 56.1956C164.831 55.9162 164.386 55.4878 164.086 54.9617C163.78 54.4137 163.626 53.7527 163.626 52.9787C163.626 52.2532 163.763 51.6566 164.037 51.1888C164.328 50.7052 164.739 50.3261 165.271 50.0521C165.819 49.7617 166.472 49.5284 167.23 49.351C168.084 49.1383 168.947 48.9686 169.818 48.8425C170.206 48.7769 170.593 48.7044 170.979 48.625C171.301 48.5448 171.543 48.4239 171.705 48.2623C171.866 48.1013 171.946 47.8668 171.946 47.5612C171.946 47.1578 171.801 46.8114 171.511 46.521C171.221 46.2306 170.753 46.086 170.108 46.086C169.657 46.086 169.245 46.1662 168.875 46.3273C168.52 46.4888 168.214 46.7227 167.955 47.0289C167.698 47.3352 167.504 47.7063 167.375 48.1419L163.941 47.1256C164.15 46.4482 164.441 45.86 164.811 45.36C165.191 44.8671 165.658 44.4489 166.19 44.1267C166.722 43.7877 167.327 43.5459 168.004 43.4007C168.726 43.2363 169.465 43.1551 170.205 43.1589C171.495 43.1589 172.543 43.3685 173.349 43.7883C174.171 44.1911 174.776 44.8278 175.163 45.6984C175.566 46.5532 175.768 47.6578 175.768 49.012V50.9713C175.768 51.5515 175.776 52.1402 175.792 52.7369C175.824 53.3171 175.856 53.9058 175.889 54.5024C175.937 55.0826 175.993 55.6713 176.058 56.2679H172.623C172.548 55.8262 172.484 55.3827 172.43 54.938C172.365 54.3993 172.316 53.8588 172.285 53.3171H171.825C171.596 53.9351 171.261 54.5082 170.834 55.0103C170.41 55.5134 169.882 55.9179 169.286 56.1956C168.689 56.4696 168.012 56.6063 167.254 56.6063ZM169.02 53.8493C169.31 53.8493 169.6 53.8013 169.89 53.7041C170.196 53.5917 170.488 53.4458 170.761 53.2691C171.041 53.0699 171.293 52.8338 171.511 52.5674C171.737 52.2934 171.906 51.9951 172.019 51.6725L171.971 49.7617L172.502 49.8826C172.186 50.0809 171.844 50.2356 171.486 50.3425C171.116 50.4555 170.737 50.5442 170.35 50.608C169.979 50.673 169.608 50.7453 169.237 50.8261C168.907 50.8837 168.583 50.9726 168.27 51.0917C167.996 51.2047 167.778 51.3583 167.617 51.5515C167.456 51.7453 167.375 52.0114 167.375 52.3499C167.375 52.8013 167.528 53.164 167.834 53.438C168.141 53.7126 168.536 53.8493 169.02 53.8493ZM181.807 56.6063C180.292 56.6063 179.147 56.0984 178.373 55.0826C177.615 54.051 177.236 52.4866 177.236 50.3905V43.4979H181.154V49.8826C181.154 51.0758 181.332 51.9708 181.686 52.5674C182.041 53.1482 182.581 53.438 183.307 53.438C183.742 53.438 184.113 53.3335 184.42 53.1239C184.742 52.8979 185.008 52.5917 185.218 52.2047C185.444 51.8018 185.605 51.3419 185.702 50.8261C185.818 50.2694 185.875 49.7017 185.871 49.1329V43.4979H189.764V56.2679H186.669L186.596 52.3256H186.112C185.871 53.3256 185.564 54.1476 185.194 54.7928C184.839 55.4216 184.388 55.8809 183.839 56.1713C183.291 56.4617 182.614 56.6063 181.807 56.6063ZM196.532 56.5821C195.032 56.5821 193.928 56.1871 193.218 55.3973C192.508 54.5911 192.154 53.3092 192.154 51.5515V46.5453H190.34L190.412 43.5222H191.719C192.234 43.5058 192.621 43.425 192.88 43.2804C193.154 43.1352 193.323 42.8606 193.388 42.4578L193.702 40.6679H195.903V43.4979H198.975V46.6662H195.903V51.3826C195.903 51.9306 196.032 52.3335 196.29 52.5917C196.564 52.8499 196.975 52.9787 197.523 52.9787C197.829 52.9787 198.12 52.9465 198.394 52.8821C198.668 52.8176 198.894 52.7289 199.071 52.616V56.2193C198.555 56.3809 198.08 56.4775 197.644 56.5097C197.225 56.5583 196.854 56.5821 196.532 56.5821Z" fill="#030949"/>
<path fill-rule="evenodd" clip-rule="evenodd" d="M133.045 43.498V56.2681H136.939V43.498H133.045H133.045Z" fill="#030949"/>
<path d="M135.004 41.7085C134.262 41.7085 133.69 41.5554 133.286 41.2492C132.899 40.9266 132.706 40.4752 132.706 39.8944C132.706 39.2819 132.899 38.8221 133.286 38.5158C133.69 38.1938 134.262 38.0322 135.004 38.0322C135.762 38.0322 136.334 38.1932 136.721 38.5158C137.124 38.8221 137.326 39.2735 137.326 39.8701C137.326 40.4667 137.124 40.9266 136.721 41.2486C136.334 41.5554 135.762 41.7085 135.004 41.7085Z" fill="#F64107"/>
<path d="M100 58.8584H139.897V61.9674H100V58.8584Z" fill="#030949"/>
<path d="M139.897 58.8584H200V61.9674H139.897V58.8584Z" fill="#FF3F06"/>
</svg>
