<svg width="300" height="100" viewBox="0 0 300 100" fill="none" xmlns="http://www.w3.org/2000/svg">
<rect width="300" height="100" fill="white"/>
<g clip-path="url(#clip0_298_13348)">
<mask id="mask0_298_13348" style="mask-type:luminance" maskUnits="userSpaceOnUse" x="81" y="30" width="138" height="40">
<path d="M218.5 30H81.1094V70H218.5V30Z" fill="white"/>
</mask>
<g mask="url(#mask0_298_13348)">
<path d="M127.455 51.7838C130.961 51.5964 134.062 51.9321 134.023 50.1039C133.985 48.7558 133.463 47.2727 130.067 47.2727C126.709 47.2727 125.851 48.6533 125.59 50.2576H120.888C121.562 45.2949 125.814 43.3926 130.217 43.3926C134.732 43.3926 138.798 44.8851 138.798 52.497V63.3919H134.023V62.0032C134.017 61.2476 134.21 60.5038 134.582 59.8461C134.732 59.5104 134.88 59.1369 134.544 58.9872C134.172 58.8376 134.023 59.2111 133.947 59.3917C132.828 62.1151 130.664 63.6817 127.156 63.6817C123.462 63.6817 120.291 61.294 120.291 57.9734C120.291 53.612 123.5 52.0076 127.455 51.7838ZM128.277 54.9548C126.224 55.1786 125.068 55.9619 125.068 57.7159C125.068 59.358 126.634 60.4029 128.836 60.1049C131.374 59.7679 133.985 58.1271 134.023 53.2385C132.904 54.4694 131.112 54.6569 128.277 54.9548Z" fill="black"/>
<path d="M148.654 43.0145V43.6886H154.028V47.868H148.654V63.3872H143.874V47.8653H140.889V43.6859H143.874V42.5669C143.874 37.8279 145.74 36.5215 149.694 36.5215H154.023V40.701H150.703C148.687 40.701 148.654 40.8506 148.654 43.0145Z" fill="black"/>
<path d="M161.859 47.5294C163.052 44.8047 164.135 43.3877 168.948 43.3877V48.2413C163.388 47.8692 161.784 49.8457 161.784 54.8475V63.3924H157.014V43.6857H161.789V44.7643C161.785 45.5569 161.593 46.3373 161.229 47.0414C161.081 47.3771 160.968 47.8247 161.417 47.8988C161.635 47.9393 161.821 47.6413 161.859 47.5294Z" fill="black"/>
<path d="M171.635 36.5215H176.411V41.2982H171.635V36.5215ZM171.635 43.6859H176.411V63.3872H171.635V43.6859Z" fill="black"/>
<path d="M197.791 54.7302H183.463C183.799 57.7151 185.739 59.5069 188.721 59.5069C190.997 59.5069 192.154 58.2746 192.713 56.522H197.567C196.709 60.5881 193.948 63.6849 188.688 63.6849C182.306 63.6849 178.799 59.395 178.799 53.5357C178.799 47.3798 182.604 43.3877 188.612 43.3877C193.165 43.3877 197.902 46.1111 197.902 53.2755C197.901 53.7625 197.864 54.2487 197.791 54.7302ZM193.127 51.4473C192.941 49.0583 191.523 47.2679 188.761 47.2679C185.515 47.2679 184.135 49.096 183.649 51.4473H193.127Z" fill="black"/>
<path d="M204.621 53.0879L198.203 43.6855H203.731L208.059 51.3703L212.386 43.6855H217.914L211.48 53.0879L218.491 63.3868H212.963L208.038 54.7678L203.113 63.3868H197.586L204.621 53.0879Z" fill="black"/>
<path d="M96.8699 38.7219L91.6254 47.0377L87.3489 44.8725C87.0203 44.7066 86.6549 44.6276 86.2872 44.6429C85.9195 44.6582 85.5618 44.7673 85.2482 44.9599C84.9345 45.1524 84.6754 45.422 84.4954 45.743C84.3154 46.0639 84.2204 46.4256 84.2197 46.7936C84.2205 47.1445 84.3069 47.4898 84.4714 47.7996C84.6358 48.1095 84.8734 48.3746 85.1634 48.5719L88.9964 51.1929L84.2197 58.767L81.1094 63.6853H88.6728L94.2827 54.8047L106.135 62.902C106.883 63.4126 107.768 63.6856 108.673 63.6853C109.392 63.6849 110.1 63.5076 110.734 63.1689C111.368 62.8302 111.908 62.3406 112.308 61.7433C112.708 61.146 112.954 60.4594 113.026 59.7442C113.097 59.029 112.992 58.3072 112.718 57.6426L105.223 39.4419C103.766 35.9015 98.9164 35.4822 96.8699 38.7219ZM97.3498 49.9458L100.548 44.8806L104.029 53.3365L97.3498 49.9458Z" fill="#0065FF"/>
</g>
</g>
<defs>
<clipPath id="clip0_298_13348">
<rect width="138" height="40" fill="white" transform="translate(81.1094 30)"/>
</clipPath>
</defs>
</svg>
