<svg width="300" height="100" viewBox="0 0 300 100" fill="none" xmlns="http://www.w3.org/2000/svg">
<rect width="300" height="100" fill="white"/>
<g clip-path="url(#clip0_298_13343)">
<path fill-rule="evenodd" clip-rule="evenodd" d="M179.282 41.7438C178.859 42.5886 178.206 43.3182 177.437 43.8174C176.937 44.1246 176.514 44.4318 176.322 44.8158C176.015 45.3918 175.976 48.387 172.748 50.691C170.404 52.3806 168.06 53.8398 165.638 55.0302L171.941 69.1998H163.256L158.567 57.987C152.264 60.0222 146.154 60.483 140.619 59.8302L136.622 69.1998H127.937L132.933 57.9102C128.898 56.3358 125.324 53.7246 122.557 50.3454C119.482 46.5822 120.404 45.3918 121.25 46.0062C126.015 49.4622 130.819 51.3438 135.508 52.1886L145.039 30.7998H154.839L162.218 47.3886C165.792 45.5454 168.098 43.8558 168.482 43.4718C171.48 40.6686 173.402 41.5518 174.554 42.819C175.131 43.4334 175.285 43.4334 176.015 42.5886C176.899 41.5518 177.091 40.515 177.206 39.4398C177.36 38.5182 180.511 38.979 179.282 41.7438ZM155.339 50.3838L149.997 37.7118L143.617 52.7646C147.883 52.5342 151.88 51.5742 155.339 50.3838Z" fill="#CF574A"/>
</g>
<defs>
<clipPath id="clip0_298_13343">
<rect width="59.2" height="40" fill="white" transform="translate(120.43 30)"/>
</clipPath>
</defs>
</svg>
