<svg width="300" height="100" viewBox="0 0 300 100" fill="none" xmlns="http://www.w3.org/2000/svg">
<rect width="300" height="100" fill="white"/>
<g clip-path="url(#clip0_298_13315)">
<path d="M106.546 42.4332C104.75 40.6226 102.223 39.7021 99.039 39.7021C96.3306 39.7021 94.0597 40.4038 92.2943 41.7995L91.6078 42.3351L94.1427 45.5792L94.8292 45.0435C95.8703 44.2363 97.2811 43.8289 99.0314 43.8289C100.782 43.8289 102.125 44.2061 103.105 44.9455C103.822 45.4886 104.335 46.2054 104.675 47.1258H97.8394C96.6776 47.1258 95.5761 47.1861 94.5501 47.2993C93.4562 47.4275 92.4829 47.7218 91.6606 48.1669C90.7855 48.6422 90.0839 49.3664 89.5708 50.3019C89.0654 51.2374 88.8164 52.4445 88.8164 53.9911C88.8164 54.4664 88.9145 55.0398 89.1257 55.7263C89.3521 56.4883 89.8651 57.2125 90.6346 57.8764C91.3815 58.5177 92.4 59.0382 93.7429 59.4758C95.0707 59.9058 96.7983 60.1171 99.0239 60.1171C101.249 60.1171 102.977 59.9058 104.305 59.4758C105.655 59.0382 106.674 58.5177 107.413 57.8764C108.183 57.2125 108.696 56.4883 108.922 55.7263C109.133 55.0322 109.231 54.4664 109.231 53.9911V49.9021C109.231 46.7485 108.318 44.2287 106.523 42.4181L106.546 42.4332ZM105.12 51.2676V54.0062C105.12 54.2778 105.022 54.4815 104.803 54.6852C104.486 54.9719 104.041 55.2057 103.498 55.3943C102.902 55.598 102.215 55.7565 101.446 55.847C99.8688 56.0431 98.2317 56.0431 96.6474 55.847C95.8779 55.7489 95.1914 55.598 94.5954 55.3943C94.0522 55.2057 93.6146 54.9719 93.2902 54.6852C93.0639 54.489 92.9733 54.2853 92.9733 54.0062C92.9733 53.3046 93.0337 52.7463 93.1544 52.354C93.2298 52.105 93.3883 51.924 93.6674 51.7806C93.9315 51.6448 94.4596 51.4637 95.4554 51.3808C96.3456 51.3053 97.5527 51.2676 99.0465 51.2676H105.127H105.12Z" fill="#254E2D"/>
<path d="M128.567 42.4332C126.772 40.6226 124.245 39.7021 121.061 39.7021C117.877 39.7021 115.357 40.6226 113.554 42.4332C111.759 44.2438 110.846 46.7636 110.846 49.9172C110.846 53.0707 111.759 55.6207 113.554 57.4162C115.35 59.2118 117.877 60.1246 121.053 60.1246C123.407 60.1246 125.406 59.6192 127.013 58.6158C126.832 59.9662 126.349 61.0299 125.58 61.7995C124.576 62.8029 123.053 63.3159 121.053 63.3159H120.178V67.4502H121.053C124.207 67.4502 126.727 66.5373 128.537 64.7418C130.348 62.9462 131.268 60.4264 131.268 57.2729V49.9096C131.268 46.7561 130.355 44.2363 128.56 42.4256L128.567 42.4332ZM121.061 43.8364C123.083 43.8364 124.614 44.3495 125.625 45.3528C126.629 46.3562 127.142 47.8877 127.142 49.9021L127.111 50.7697C126.968 52.5275 126.417 53.8025 125.414 54.6776C124.411 55.5528 122.947 55.9979 121.061 55.9979C119.039 55.9979 117.507 55.4849 116.497 54.4815C115.493 53.4781 114.98 51.939 114.98 49.9172C114.98 47.8953 115.493 46.3638 116.497 45.3528C117.5 44.3495 119.039 43.8364 121.061 43.8364Z" fill="#254E2D"/>
<path d="M142.328 39.7393C139.363 39.7393 137.002 40.6672 135.312 42.4929C133.645 44.296 132.8 46.8083 132.8 49.9543V59.958H136.934V49.9543C136.934 47.9399 137.402 46.3933 138.315 45.3749C139.22 44.3639 140.533 43.8735 142.328 43.8735H143.203V39.7393H142.328Z" fill="#254E2D"/>
<path d="M162.517 42.4332C160.721 40.6226 158.194 39.7021 155.01 39.7021C151.827 39.7021 149.307 40.6226 147.504 42.4332C145.708 44.2438 144.795 46.7636 144.795 49.9172C144.795 53.0707 145.708 55.6207 147.504 57.4162C149.299 59.2118 151.827 60.1246 155.003 60.1246C158.179 60.1246 160.706 59.2118 162.502 57.4162C164.297 55.6207 165.21 53.0933 165.21 49.9172C165.21 46.741 164.297 44.2438 162.502 42.4332H162.517ZM155.01 55.9903C152.988 55.9903 151.457 55.4773 150.446 54.4739C149.443 53.4705 148.93 51.9315 148.93 49.9096C148.93 47.8877 149.443 46.3562 150.446 45.3453C151.449 44.3419 152.988 43.8289 155.01 43.8289C157.032 43.8289 158.564 44.3419 159.575 45.3453C160.578 46.3487 161.091 47.8877 161.091 49.9096C161.091 51.9315 160.578 53.463 159.575 54.4739C158.571 55.4773 157.032 55.9903 155.01 55.9903Z" fill="#254E2D"/>
<path d="M182.962 56.8732C182.147 57.6653 181.159 58.2613 180.012 58.6612C178.865 59.061 177.59 59.2572 176.18 59.2572C173.23 59.2572 170.929 58.4424 169.299 56.8053C167.662 55.1681 166.847 52.8747 166.847 49.9248C166.847 46.975 167.662 44.7042 169.299 43.0595C170.936 41.4148 173.23 40.585 176.18 40.585C178.609 40.585 180.623 41.1885 182.215 42.3881L180.782 44.2968C179.62 43.4141 178.088 42.969 176.18 42.969C173.909 42.969 172.181 43.565 170.997 44.757C169.812 45.949 169.224 47.6691 169.224 49.9173C169.224 52.1655 169.812 53.9158 170.997 55.1002C172.181 56.2847 173.901 56.8732 176.18 56.8732C178.458 56.8732 180.088 56.2922 181.295 55.138L182.962 56.8732Z" fill="#7DA62F"/>
<path d="M193.954 40.5771C196.904 40.5771 199.205 41.3995 200.834 43.0517C202.472 44.6963 203.286 46.9898 203.286 49.917V49.9547C203.286 50.2942 203.166 50.5809 202.932 50.8073C202.69 51.0336 202.411 51.1467 202.094 51.1467H187.066C187.27 53.0102 187.949 54.4285 189.111 55.4093C190.272 56.3825 191.872 56.8729 193.916 56.8729C196.119 56.8729 197.809 56.3071 198.994 55.1679L200.661 56.8729C199.001 58.4647 196.753 59.2569 193.916 59.2569C191.08 59.2569 188.703 58.4421 187.066 56.805C185.429 55.1679 184.614 52.8895 184.614 49.9547V49.917C184.614 46.9898 185.429 44.6963 187.066 43.0517C188.703 41.407 190.997 40.5771 193.946 40.5771H193.954ZM200.872 48.7552C200.668 46.8691 199.982 45.4357 198.813 44.4474C197.643 43.4591 196.021 42.9687 193.954 42.9687C191.887 42.9687 190.265 43.4666 189.095 44.4474C187.926 45.4357 187.247 46.8767 187.066 48.7552H200.865H200.872Z" fill="#7DA62F"/>
<path d="M221.385 59.0837H219.001V49.9551C219.001 47.7069 218.503 45.9868 217.5 44.7948C216.496 43.6028 215.048 43.0068 213.139 43.0068C211.231 43.0068 209.774 43.6028 208.779 44.7948C207.775 45.9868 207.277 47.7069 207.277 49.9551V59.0837H204.893V49.9551C204.893 47.0204 205.618 44.7344 207.059 43.0898C208.499 41.4451 210.529 40.6152 213.139 40.6152C215.75 40.6152 217.749 41.4376 219.205 43.0898C220.661 44.7344 221.385 47.0279 221.385 49.9551V59.0837Z" fill="#7DA62F"/>
<path d="M235.357 43.2028H230.348V59.0836H227.964V43.2028H222.985V40.8188H227.964V32.5352H230.348V40.8188H235.357V43.2028Z" fill="#7DA62F"/>
<path d="M246.357 40.5779C249.307 40.5779 251.608 41.4002 253.237 43.0524C254.867 44.7046 255.689 46.9905 255.689 49.9177V54.0068C255.689 54.3915 255.599 54.8894 255.418 55.4854C255.237 56.089 254.822 56.6699 254.173 57.2206C253.524 57.7789 252.589 58.2542 251.359 58.6541C250.129 59.0539 248.462 59.2501 246.349 59.2501C244.237 59.2501 242.57 59.0539 241.34 58.6541C240.11 58.2542 239.175 57.7789 238.526 57.2206C237.877 56.6624 237.462 56.0814 237.281 55.4854C237.1 54.8819 237.01 54.3915 237.01 54.0068C237.01 52.6186 237.228 51.5322 237.658 50.7325C238.088 49.9404 238.669 49.3444 239.394 48.9445C240.118 48.5447 240.978 48.2957 241.966 48.175C242.954 48.0618 244.018 48.0015 245.15 48.0015H253.124C252.807 46.3644 252.076 45.1195 250.944 44.2519C249.805 43.3919 248.273 42.9543 246.342 42.9543C244.41 42.9543 242.811 43.4221 241.604 44.35L240.14 42.479C241.755 41.204 243.822 40.5703 246.342 40.5703L246.357 40.5779ZM253.313 50.393H246.357C244.833 50.393 243.611 50.4307 242.69 50.5137C241.77 50.5967 241.068 50.7551 240.578 51.0117C240.088 51.2606 239.771 51.6227 239.627 52.1056C239.477 52.5809 239.409 53.2221 239.409 54.0143C239.409 54.5349 239.612 54.98 240.02 55.3421C240.427 55.7042 240.963 55.9985 241.619 56.2248C242.275 56.4511 243.022 56.6171 243.852 56.7227C244.682 56.8283 245.52 56.8736 246.357 56.8736C247.194 56.8736 248.032 56.8208 248.862 56.7227C249.692 56.6171 250.431 56.4587 251.095 56.2248C251.751 55.9985 252.287 55.7042 252.694 55.3421C253.102 54.98 253.305 54.5349 253.305 54.0143V50.4006L253.313 50.393Z" fill="#7DA62F"/>
<path d="M71.721 41.1878C71.721 43.8283 70.1216 46.0991 67.8356 47.0799C67.2095 47.3515 66.5305 47.525 65.8213 47.5854C66.3268 46.7027 66.6361 45.6917 66.6663 44.6129C66.6663 44.6129 66.6738 44.6129 66.6814 44.6129C68.0318 44.0697 68.9899 42.7344 68.9899 41.1953C68.9899 41.1274 68.9899 41.052 68.9824 40.9841C67.6319 41.5273 66.6738 42.8551 66.6738 44.4017C66.6738 42.9079 66.1608 41.5348 65.3083 40.4409C65.9722 39.5959 66.8322 38.932 67.8205 38.502C68.6052 38.1701 69.4577 37.9814 70.3554 37.9814C70.529 37.9814 70.7025 37.9814 70.8685 38.0041C71.3739 38.8868 71.6832 39.8977 71.7134 40.9765C71.7134 41.0444 71.7134 41.1199 71.7134 41.1878H71.721Z" fill="#7DA62F"/>
<path d="M65.3007 40.4409C64.6368 39.5959 63.7768 38.932 62.7809 38.502C62.0039 38.1701 61.1438 37.9814 60.246 37.9814C60.0725 37.9814 59.899 37.9814 59.733 38.0041C59.22 38.8868 58.9182 39.8977 58.8881 40.9765C58.8881 41.0444 58.8881 41.1199 58.8881 41.1878C58.8881 43.8283 60.4875 46.0991 62.7658 47.0799C63.392 47.3515 64.071 47.525 64.7877 47.5854C64.9537 47.6005 65.1272 47.608 65.3007 47.608C65.4743 47.608 65.6478 47.608 65.8137 47.5854C66.3192 46.7027 66.6285 45.6917 66.6587 44.6129C66.6587 44.545 66.6587 44.4696 66.6587 44.4017C66.6587 42.9079 66.1457 41.5348 65.2932 40.4409H65.3007ZM63.9201 44.6054C62.5697 44.0622 61.6116 42.7268 61.6116 41.1878C61.6116 41.1199 61.6116 41.0444 61.6191 40.9765C62.9695 41.5197 63.9277 42.8475 63.9277 44.3941C63.9277 44.462 63.9277 44.5375 63.9277 44.6054C63.9277 44.6054 63.9201 44.6054 63.9126 44.6054H63.9201Z" fill="#417437"/>
<path d="M64.75 30C55.6365 30 47.9337 36.126 45.5271 44.47C45.2706 45.3527 45.082 46.2656 44.9462 47.1935C44.8179 48.0762 44.7575 48.974 44.75 49.8868V50C44.75 50.8902 44.8104 51.7654 44.916 52.6254C45.0442 53.5685 45.2253 54.4813 45.4818 55.3716C45.7534 56.3372 46.0929 57.2878 46.5078 58.1856C47.4282 60.2376 48.6957 62.1086 50.2272 63.7307C50.8534 64.3946 51.5248 65.0207 52.2415 65.5941C52.9356 66.1599 53.6749 66.673 54.4445 67.1407C55.2366 67.616 56.0665 68.046 56.9265 68.4081C57.8168 68.7854 58.7447 69.1098 59.6953 69.3512C60.1178 69.4568 60.5403 69.5624 60.9703 69.6379C61.6342 69.7661 62.2905 69.8567 62.9771 69.9095C63.3015 69.9396 63.6183 69.9623 63.9428 69.9774C64.2068 69.9849 64.4709 69.9925 64.7425 69.9925C65.4214 69.9925 66.0853 69.9623 66.7492 69.8944C67.6697 69.8038 68.5674 69.6454 69.4501 69.4266C70.3328 69.2154 71.2004 68.9438 72.0303 68.6194C72.8979 68.2724 73.7353 67.8725 74.5425 67.4198C75.5233 66.8691 76.4512 66.2354 77.3113 65.5338C78.1713 64.8321 78.9786 64.0626 79.7104 63.2327C80.3592 62.5009 80.9552 61.7163 81.4908 60.9015C81.9963 60.1245 82.449 59.3172 82.8488 58.4723C83.226 57.665 83.558 56.8201 83.8296 55.96C84.1012 55.1 84.3124 54.2022 84.4633 53.2893C84.6444 52.218 84.7349 51.1166 84.7349 49.9925C84.75 38.9702 75.7798 30 64.75 30ZM81.2117 55.2056C80.9326 56.0883 80.5855 56.9257 80.1857 57.7329C79.7406 58.6081 79.2351 59.4304 78.6617 60.215C78.0054 61.1052 77.266 61.9351 76.4512 62.6896C75.6063 63.4666 74.6934 64.1607 73.7051 64.7567C73.26 65.0283 72.7998 65.2848 72.3245 65.5187C71.9775 65.6847 71.6153 65.8506 71.2457 66.0015C70.4233 66.341 69.5633 66.6126 68.673 66.8238C68.16 66.9446 67.6319 67.0426 67.0963 67.1105C66.704 67.1633 66.3041 67.2011 65.9043 67.2312C65.5195 67.2614 65.1423 67.269 64.75 67.269C64.1314 67.269 63.5203 67.2388 62.9167 67.1784C62.6451 67.1482 62.3735 67.1105 62.1095 67.0728C61.1891 66.9219 60.2913 66.7107 59.4388 66.4315C59.2577 66.3787 59.0842 66.3184 58.9107 66.2505C57.9903 65.9185 57.1001 65.5111 56.2626 65.0283C55.4629 64.5832 54.7085 64.0702 54.0069 63.5043C53.2902 62.9385 52.6263 62.3123 52.0076 61.6409C51.2532 60.811 50.5742 59.9057 49.9858 58.94C49.3747 57.9291 48.8617 56.8578 48.4694 55.7261C48.1449 54.7982 47.8884 53.8325 47.7225 52.8291C47.5716 51.9238 47.4961 50.9959 47.4961 50.0453V49.9925C47.4961 49.0947 47.564 48.212 47.6923 47.3519C47.8432 46.4315 48.0544 45.5338 48.3336 44.6737C50.5742 37.7556 57.085 32.7386 64.75 32.7386C74.2709 32.7386 82.0114 40.4866 82.0114 50C82.0114 50.8601 81.9435 51.7126 81.8228 52.5424C81.687 53.4628 81.4758 54.3531 81.2042 55.2131L81.2117 55.2056Z" fill="#231F20"/>
<path d="M76.4437 62.6887C75.5987 63.4658 74.6859 64.1599 73.6976 64.7559C73.4411 64.0618 73.1619 63.3753 72.8526 62.7038C73.4637 62.6435 74.0899 62.6133 74.7085 62.6133C75.2894 62.6133 75.8703 62.6435 76.4362 62.6887H76.4437Z" fill="#F9A01B"/>
<path d="M80.1857 57.7398C79.7406 58.615 79.2351 59.4373 78.6617 60.2219C77.3792 59.9956 76.0665 59.8824 74.7236 59.8824C73.6448 59.8824 72.581 59.9579 71.5399 60.1087C71.042 59.2487 70.5063 58.4113 69.9405 57.5965C71.4946 57.3023 73.094 57.1514 74.7311 57.1514C76.6097 57.1514 78.4354 57.3551 80.2008 57.7398H80.1857Z" fill="#F9A01B"/>
<path d="M81.8303 52.5421C81.6945 53.4625 81.4833 54.3527 81.2117 55.2127C79.1219 54.7224 76.9567 54.4583 74.716 54.4583C72.4754 54.4583 70.2121 54.7299 68.0846 55.2429C67.398 54.4583 66.6813 53.7039 65.9344 52.9872C68.7183 52.1648 71.6606 51.7197 74.716 51.7197C77.1604 51.7197 79.5444 52.0064 81.8303 52.5421Z" fill="#F9A01B"/>
<path d="M62.9243 67.1788C62.6527 67.1487 62.3811 67.1109 62.117 67.0732C61.1966 66.9223 60.2989 66.7111 59.4463 66.432C59.3634 66.2886 59.2728 66.1453 59.1748 66.0019C58.6768 65.24 58.1185 64.5082 57.4999 63.8292C56.8964 63.1577 56.24 62.5315 55.5459 61.9733C54.8217 61.3848 54.0522 60.8492 53.2449 60.3814C52.2189 59.793 51.1325 59.3026 49.9858 58.9404C49.3747 57.9295 48.8617 56.8582 48.4694 55.7266C50.9741 56.2094 53.3128 57.1675 55.395 58.4953C56.1947 59.0008 56.9567 59.5666 57.6734 60.1853C58.36 60.7737 59.0163 61.415 59.6199 62.094C60.2234 62.773 60.7892 63.4897 61.2947 64.2516C61.8002 65.0136 62.2679 65.8133 62.6678 66.6357C62.7583 66.8167 62.8413 66.9902 62.9243 67.1713V67.1788Z" fill="#417437"/>
<path d="M68.6806 66.8242C68.1676 66.9449 67.6395 67.043 67.1038 67.1109C66.7115 67.1637 66.3117 67.2014 65.9118 67.2316C65.6402 66.5149 65.3234 65.8208 64.9839 65.1418C64.5689 64.327 64.1012 63.5349 63.5957 62.7804C63.0902 62.0185 62.532 61.2791 61.9284 60.585C61.3249 59.8834 60.6836 59.2195 59.9971 58.5933C59.2879 57.9445 58.541 57.341 57.7489 56.7827C54.8368 54.7231 51.4116 53.3274 47.7149 52.8219C47.564 51.9166 47.4886 50.9887 47.4886 50.0381C52.2792 50.5813 56.6851 52.4523 60.3064 55.2738C61.0835 55.8774 61.8228 56.5262 62.5169 57.2127C63.1883 57.8766 63.822 58.5707 64.418 59.3025C65.0065 60.0268 65.5572 60.7812 66.0703 61.5734C66.5682 62.3429 67.0284 63.1426 67.4433 63.9649C67.8507 64.7721 68.2279 65.6096 68.5448 66.4696C68.5901 66.5752 68.6278 66.696 68.673 66.8091L68.6806 66.8242Z" fill="#417437"/>
<path d="M73.7051 64.7571C73.26 65.0287 72.7998 65.2852 72.3245 65.5191C71.9774 65.685 71.6153 65.851 71.2456 66.0019C71.2079 65.9114 71.1777 65.8133 71.14 65.7228C70.8156 64.8476 70.4535 63.9951 70.0461 63.1652C69.6387 62.3203 69.186 61.4904 68.6957 60.6907C68.1902 59.8684 67.647 59.0762 67.0585 58.3218C66.4701 57.5523 65.8439 56.8129 65.18 56.1113C64.4935 55.3795 63.7617 54.6779 62.9997 54.0215C58.79 50.4002 53.4939 47.9936 47.6772 47.3599C47.8281 46.4395 48.0393 45.5417 48.3185 44.6816C55.1008 45.4964 61.2192 48.5142 65.9344 52.9879C66.6813 53.7047 67.398 54.4515 68.0846 55.2437C68.7334 55.9981 69.3445 56.7827 69.9254 57.5975C70.4912 58.4048 71.0269 59.2422 71.5248 60.1098C72.0076 60.9547 72.4452 61.8223 72.8526 62.705C73.1619 63.3765 73.441 64.063 73.6976 64.7571H73.7051Z" fill="#417437"/>
<path d="M64.75 70C53.7202 70 44.75 61.0298 44.75 50C44.75 38.9702 53.7202 30 64.75 30C75.7798 30 84.75 38.9702 84.75 50C84.75 61.0298 75.7798 70 64.75 70ZM64.75 32.731C55.2291 32.731 47.481 40.4791 47.481 50C47.481 59.5209 55.2291 67.269 64.75 67.269C74.2709 67.269 82.019 59.5209 82.019 50C82.019 40.4791 74.2709 32.731 64.75 32.731Z" fill="#254E2D"/>
<path d="M65.3008 55.6128C64.5463 55.6128 63.9352 55.0017 63.9352 54.2473V45.262C63.9352 44.5076 64.5463 43.8965 65.3008 43.8965C66.0552 43.8965 66.6663 44.5076 66.6663 45.262V54.2473C66.6663 55.0017 66.0552 55.6128 65.3008 55.6128Z" fill="#417437"/>
</g>
<defs>
<clipPath id="clip0_298_13315">
<rect width="210.947" height="40" fill="white" transform="translate(44.75 30)"/>
</clipPath>
</defs>
</svg>
