<svg width="300" height="100" viewBox="0 0 300 100" fill="none" xmlns="http://www.w3.org/2000/svg">
<rect width="300" height="100" fill="white"/>
<g clip-path="url(#clip0_291_3534)">
<path d="M157.654 64.1757C157.655 63.9576 157.741 63.7485 157.892 63.5916C158.044 63.4348 158.25 63.3423 158.468 63.3332C158.822 63.3332 159.042 63.6045 159.042 63.9559C159.043 64.173 158.959 64.3819 158.808 64.538C158.657 64.694 158.451 64.7845 158.234 64.7902C158.155 64.7922 158.075 64.7774 158.002 64.7467C157.928 64.7161 157.862 64.6703 157.807 64.6123C157.752 64.5544 157.71 64.4855 157.684 64.4103C157.658 64.3351 157.647 64.2551 157.654 64.1757ZM160.33 64.1757C160.332 63.9577 160.418 63.7488 160.569 63.592C160.721 63.4352 160.927 63.3426 161.144 63.3332C161.498 63.3332 161.718 63.6045 161.718 63.9559C161.72 64.1728 161.637 64.3818 161.486 64.5379C161.335 64.6939 161.129 64.7845 160.912 64.7902C160.833 64.7924 160.753 64.7777 160.679 64.7472C160.606 64.7166 160.539 64.6708 160.484 64.6129C160.429 64.5549 160.387 64.486 160.361 64.4106C160.334 64.3353 160.324 64.2553 160.33 64.1757ZM163.007 64.1757C163.009 63.9577 163.094 63.7488 163.246 63.592C163.397 63.4352 163.603 63.3426 163.821 63.3332C164.175 63.3332 164.396 63.6045 164.396 63.9559C164.398 64.173 164.314 64.3819 164.163 64.538C164.012 64.694 163.806 64.7845 163.589 64.7902C163.509 64.7922 163.43 64.7774 163.356 64.7467C163.283 64.7161 163.216 64.6703 163.161 64.6124C163.106 64.5545 163.064 64.4856 163.038 64.4104C163.011 64.3352 163.001 64.2552 163.007 64.1757ZM164.787 66.4928L165.118 65.7263C165.228 65.786 165.351 65.8168 165.476 65.8158C165.883 65.8158 166.29 65.4658 166.561 64.9205L166.708 64.6301L165.871 59.8453H166.921L167.223 62.2872C167.279 62.7227 167.322 63.2817 167.345 63.7388H167.385C167.598 63.2857 167.842 62.7431 168.063 62.2872L169.264 59.8453H170.295L167.573 64.9327C166.981 65.9854 166.378 66.6624 165.415 66.6624C165.196 66.6515 164.982 66.5936 164.787 66.4928ZM170.249 62.8218C170.249 60.9768 171.584 59.7205 172.91 59.7205C173.996 59.7205 174.712 60.4843 174.712 61.689C174.712 63.534 173.378 64.7902 172.052 64.7902C170.965 64.7902 170.249 64.0264 170.249 62.8218ZM173.64 61.7243C173.64 60.9957 173.346 60.5793 172.79 60.5793C172.023 60.5793 171.311 61.5506 171.311 62.7865C171.311 63.515 171.605 63.9315 172.16 63.9315C172.933 63.9315 173.646 62.9656 173.646 61.7243H173.64ZM179.206 64.6722H178.345L178.391 63.979H178.352C177.867 64.4199 177.313 64.7929 176.731 64.7929C175.917 64.7929 175.586 64.3439 175.586 63.572C175.587 63.3437 175.613 63.1162 175.664 62.8937L176.273 59.8453H177.329L176.741 62.7621C176.698 62.9295 176.673 63.1009 176.664 63.2735C176.664 63.6805 176.861 63.8921 177.266 63.8921C177.592 63.8921 177.971 63.6588 178.459 63.1433L179.113 59.8453H180.168L179.206 64.6722ZM181.632 59.8453H182.493L182.407 60.7787H182.446C182.827 60.1804 183.359 59.7273 183.938 59.7273C184.105 59.7196 184.27 59.7507 184.423 59.8182L184.069 60.7434C183.927 60.6822 183.773 60.6553 183.619 60.6647C183.166 60.6647 182.702 61.0229 182.305 61.7582L181.734 64.679H180.68L181.632 59.8453ZM187.209 65.1443L186.938 66.585H185.884L187.24 59.8385H188.102L188.079 60.4327H188.106C188.57 60.0258 189.125 59.7205 189.677 59.7205C190.526 59.7205 191.054 60.35 191.054 61.4841C191.054 63.3305 189.795 64.7902 188.46 64.7902C188.242 64.7873 188.029 64.7272 187.842 64.616C187.655 64.5048 187.5 64.3464 187.394 64.1567H187.373L187.209 65.1443ZM188.001 61.2915L187.594 63.3495C187.803 63.7565 188.09 63.9206 188.398 63.9206C189.211 63.9206 189.963 62.8692 189.963 61.6252C189.963 60.9211 189.692 60.5901 189.244 60.5901C188.863 60.5901 188.37 60.818 188.001 61.2915ZM194.407 59.7205C195.529 59.7205 195.946 60.5033 195.946 61.5031C195.937 61.8545 195.866 62.2014 195.734 62.5274H192.793C192.691 63.5462 193.254 63.979 193.99 63.979C194.348 63.9531 194.69 63.8219 194.974 63.6018L195.36 64.2801C194.876 64.6165 194.299 64.7951 193.71 64.7916C192.557 64.7916 191.774 64.04 191.774 62.7444C191.774 60.9401 193.136 59.7205 194.407 59.7205ZM195.021 61.8572C195.052 61.7179 195.068 61.5754 195.068 61.4326C195.068 60.9645 194.867 60.5426 194.281 60.5426C193.695 60.5426 193.12 61.031 192.888 61.8572H195.021ZM199.506 61.6605C199.535 61.5545 199.549 61.4449 199.548 61.3349C199.548 60.7597 199.276 60.5548 198.789 60.5548C198.371 60.5548 197.99 60.7041 197.525 60.9618L197.195 60.2184C197.754 59.9167 198.375 59.7482 199.009 59.7259C200.005 59.7259 200.591 60.1899 200.591 61.2372C200.588 61.4655 200.562 61.6928 200.512 61.9155L199.969 64.6749H199.113L199.127 64.1472H199.096C198.719 64.5013 198.146 64.7929 197.628 64.7929C196.97 64.7929 196.419 64.348 196.419 63.6005C196.415 62.2045 197.73 61.708 199.506 61.6605ZM197.446 63.3848C197.446 63.7741 197.718 63.9681 198.096 63.9681C198.442 63.9681 198.774 63.7741 199.154 63.4404L199.383 62.3307C198.119 62.3578 197.446 62.7431 197.446 63.3848ZM201.478 62.8218C201.478 61.0907 202.745 59.7205 204.248 59.7205C204.492 59.7179 204.733 59.7699 204.953 59.8728C205.174 59.9756 205.369 60.1266 205.524 60.3147L204.925 60.9483C204.701 60.7 204.505 60.5793 204.182 60.5793C203.316 60.5793 202.554 61.5859 202.554 62.7865C202.554 63.515 202.877 63.9315 203.529 63.9315C203.867 63.9172 204.189 63.7868 204.442 63.5625L204.895 64.2272C204.446 64.5893 203.887 64.7878 203.309 64.7902C202.249 64.7902 201.478 64.0739 201.478 62.8218ZM208.333 59.7205C209.455 59.7205 209.873 60.5033 209.873 61.5031C209.864 61.8546 209.792 62.2015 209.66 62.5274H206.719C206.617 63.5462 207.18 63.979 207.915 63.979C208.274 63.9531 208.616 63.8219 208.9 63.6018L209.285 64.2801C208.801 64.6165 208.225 64.7951 207.636 64.7916C206.483 64.7916 205.7 64.04 205.7 62.7444C205.703 60.9401 207.059 59.7205 208.333 59.7205ZM208.948 61.8572C208.978 61.7177 208.994 61.5754 208.994 61.4326C208.994 60.9645 208.793 60.5426 208.207 60.5426C207.621 60.5426 207.046 61.031 206.814 61.8572H208.948ZM209.938 65.8023C210.627 65.5771 211.023 65.1524 211.13 64.6722L211.24 63.8134L211.512 64.5379C211.404 64.6285 211.271 64.6823 211.13 64.6912C210.752 64.6912 210.481 64.4673 210.481 64.1011C210.479 63.9995 210.498 63.8986 210.536 63.8045C210.575 63.7104 210.632 63.625 210.704 63.5534C210.776 63.4817 210.861 63.4253 210.956 63.3875C211.05 63.3496 211.151 63.3312 211.253 63.3332C211.689 63.3332 211.931 63.6412 211.931 64.1363C211.931 65.2433 211.198 66.1278 210.061 66.4032L209.938 65.8023ZM215.199 62.8218C215.199 60.9768 216.534 59.7205 217.861 59.7205C218.946 59.7205 219.662 60.4843 219.662 61.689C219.662 63.534 218.329 64.7902 217.002 64.7902C215.921 64.7902 215.199 64.0264 215.199 62.8218ZM218.59 61.7243C218.59 60.9957 218.295 60.5793 217.74 60.5793C216.973 60.5793 216.26 61.5506 216.26 62.7865C216.26 63.515 216.556 63.9315 217.11 63.9315C217.889 63.9315 218.601 62.9656 218.601 61.7243H218.59ZM224.162 64.6722H223.299L223.347 63.979H223.307C222.823 64.4199 222.268 64.7929 221.68 64.7929C220.866 64.7929 220.533 64.3439 220.533 63.572C220.534 63.3436 220.561 63.1161 220.613 62.8937L221.222 59.8426H222.278L221.69 62.7594C221.647 62.9268 221.621 63.0981 221.613 63.2708C221.613 63.6778 221.81 63.8894 222.214 63.8894C222.541 63.8894 222.919 63.6561 223.406 63.1406L224.056 59.8426H225.112L224.162 64.6722ZM226.595 59.8453H227.456L227.369 60.7787H227.409C227.791 60.1804 228.322 59.7273 228.901 59.7273C229.067 59.7196 229.233 59.7507 229.385 59.8182L229.031 60.7434C228.89 60.6822 228.736 60.6553 228.582 60.6647C228.129 60.6647 227.665 61.0229 227.267 61.7582L226.696 64.679H225.642L226.595 59.8453ZM230.8 65.6557C230.8 65.0615 231.343 64.6681 231.885 64.4239V64.3927C231.791 64.3142 231.716 64.2153 231.665 64.1034C231.614 63.9916 231.589 63.8697 231.592 63.747C231.592 63.3888 231.843 63.0578 232.218 62.8299V62.7906C232.058 62.6587 231.929 62.4929 231.84 62.3053C231.752 62.1176 231.706 61.9127 231.706 61.7053C231.706 60.5684 232.611 59.7219 233.741 59.7219C233.957 59.7174 234.172 59.7576 234.372 59.8399H236.092L235.938 60.639H235.099C235.208 60.8166 235.265 61.0209 235.265 61.2291C235.265 62.3551 234.407 63.1419 233.211 63.1419C233.049 63.1446 232.888 63.1208 232.735 63.0714C232.658 63.1216 232.594 63.1885 232.547 63.2669C232.5 63.3454 232.472 63.4334 232.463 63.5245C232.463 63.8107 232.622 63.9233 233.322 64.002C234.653 64.1675 235.061 64.4985 235.061 65.1226C235.061 66.2499 233.84 66.8102 232.633 66.8102C231.87 66.8089 230.8 66.5769 230.8 65.6557ZM234.026 65.3844C234.026 65.0222 233.633 64.8811 232.996 64.8065C232.842 64.7861 232.637 64.7468 232.417 64.6953C232.1 64.8594 231.713 65.1362 231.713 65.4712C231.713 65.9271 232.12 66.1319 232.744 66.1319C233.479 66.1278 234.026 65.8145 234.026 65.3803V65.3844ZM234.361 61.2481C234.361 60.7638 234.113 60.4639 233.711 60.4639C233.11 60.4639 232.68 61.0785 232.68 61.693C232.68 62.1774 232.929 62.4758 233.33 62.4758C233.933 62.4717 234.361 61.8572 234.361 61.244V61.2481ZM236.107 62.8218C236.107 60.9768 237.442 59.7205 238.769 59.7205C239.854 59.7205 240.57 60.4843 240.57 61.689C240.57 63.534 239.237 64.7902 237.91 64.7902C236.823 64.7902 236.107 64.0264 236.107 62.8218ZM239.499 61.7243C239.499 60.9957 239.204 60.5793 238.648 60.5793C237.882 60.5793 237.169 61.5506 237.169 62.7865C237.169 63.515 237.464 63.9315 238.019 63.9315C238.792 63.9315 239.504 62.9656 239.504 61.7243H239.499ZM244.186 61.6605C244.215 61.5545 244.229 61.4449 244.228 61.3349C244.228 60.7597 243.957 60.5548 243.468 60.5548C243.052 60.5548 242.671 60.7041 242.205 60.9618L241.876 60.2184C242.434 59.9167 243.055 59.7482 243.689 59.7259C244.685 59.7259 245.271 60.1899 245.271 61.2372C245.269 61.4655 245.242 61.6928 245.192 61.9155L244.65 64.6749H243.794L243.807 64.1472H243.776C243.399 64.5013 242.827 64.7929 242.308 64.7929C241.65 64.7929 241.1 64.348 241.1 63.6005C241.095 62.2045 242.41 61.708 244.186 61.6605ZM242.127 63.3848C242.127 63.7741 242.398 63.9681 242.776 63.9681C243.122 63.9681 243.455 63.7741 243.835 63.4404L244.064 62.3307C242.799 62.3578 242.127 62.7431 242.127 63.3848ZM247.444 57.7209H248.5L247.107 64.6722H246.051L247.444 57.7209ZM249.459 40.7631L250.58 36.8506H236.174L233.852 40.7631H249.459Z" fill="#BA0000"/>
<path d="M247.822 46.4842L249.041 42.2217H234.635L231.614 52.7708H246.022L247.187 48.7036H239.081L239.716 46.4842H247.822Z" fill="#382A61"/>
<path d="M231.5 40.7635L233.816 36.8564H222.043C220.937 36.8564 219.86 37.2166 218.977 37.8826C218.093 38.5486 217.451 39.4841 217.146 40.5478L217.083 40.7676L231.5 40.7635Z" fill="#BA0000"/>
<path d="M216.667 42.2215L215.099 47.7144C214.93 48.3048 214.901 48.9262 215.014 49.5297C215.126 50.1332 215.377 50.7023 215.747 51.1924C216.117 51.6825 216.595 52.0801 217.145 52.3539C217.694 52.6277 218.3 52.7704 218.913 52.7706H228.063L229.227 48.7007H220.507L222.363 42.2188L216.667 42.2215ZM200.292 42.2215L191.218 52.7706H198.141L203.548 46.484H207.023L208.497 52.7706H214.662L212.186 42.2215H200.292Z" fill="#382A61"/>
<path d="M211.844 40.7631L210.927 36.8547L210.93 36.8506H204.912L201.547 40.7631H211.844Z" fill="#BA0000"/>
<path d="M193.542 46.4842L194.763 42.2217H180.356L179.135 46.4842L177.334 52.7708H191.742L192.907 48.7036H184.801L185.436 46.4842H193.542Z" fill="#382A61"/>
<path d="M195.179 40.7631L196.3 36.8506H181.894L179.575 40.7631H195.179Z" fill="#BA0000"/>
<path d="M160.881 42.2217L157.861 52.7708H163.288L165.088 46.4842H172.465C173.771 46.4836 175.043 46.0713 176.101 45.3061C177.159 44.5408 177.949 43.4616 178.359 42.2217H160.881Z" fill="#382A61"/>
<path d="M178.77 40.7631C178.862 40.2875 178.848 39.7973 178.728 39.3278C178.609 38.8582 178.387 38.4209 178.079 38.047C177.771 37.6732 177.384 37.372 176.946 37.1652C176.508 36.9584 176.029 36.8509 175.545 36.8506H162.426L160.101 40.7631H178.77ZM145.12 40.7631C145.212 40.2875 145.198 39.7973 145.079 39.3278C144.959 38.8582 144.738 38.4209 144.43 38.047C144.121 37.6732 143.734 37.372 143.296 37.1652C142.858 36.9584 142.38 36.8509 141.895 36.8506H128.698L126.38 40.7631H145.12Z" fill="#BA0000"/>
<path d="M144.706 42.2217H127.161L126.476 44.6161L124.141 52.7708H129.568L131.368 46.4842H137.521L135.721 52.7708H141.148L142.358 48.5463C142.496 48.0667 142.509 47.5593 142.393 47.0737C142.278 46.588 142.038 46.1405 141.699 45.7747C143.124 45.0255 144.203 43.7514 144.706 42.2217Z" fill="#382A61"/>
<path d="M124.201 40.7632L125.315 36.8711H119.548L118.434 40.7632H124.201ZM113.063 40.7632L112.183 36.8711H106.166L102.739 40.7632H113.063Z" fill="#BA0000"/>
<path d="M118.016 42.2217L115.436 51.2351L113.394 42.2217H101.454L98.0017 46.141H108.254L109.973 52.7708H120.762L123.783 42.2217H118.016Z" fill="#382A61"/>
<path d="M90.6503 46.7894C90.629 46.4782 90.5873 46.1686 90.5255 45.8628C90.4807 45.6512 90.4386 45.5223 90.3898 45.2822C89.1607 39.4162 85.3147 36.3543 85.3147 36.3543C85.2378 36.2854 85.1562 36.222 85.0705 36.1644C84.4944 35.6516 83.8984 35.1609 83.2825 34.6924C80.3508 32.4825 77.137 30.9319 73.4985 30.301C71.3763 29.9345 69.2098 29.9025 67.0776 30.2061C65.0969 30.4979 63.1589 31.0295 61.3065 31.7892C58.5499 32.8908 56.2111 34.5445 54.3457 36.8617L54.2033 37.038C54.1889 37.0594 54.1726 37.0794 54.1544 37.0977C53.9014 37.4012 53.665 37.7182 53.4463 38.0473C53.4369 38.059 53.4241 38.0676 53.4096 38.0718C52.867 38.8654 52.3081 39.7852 52.2484 39.8842C50.7988 42.3563 49.8751 45.1011 49.5351 47.9466C49.3518 49.5181 49.3874 51.1074 49.641 52.669C49.9612 54.623 50.622 56.5056 51.5931 58.2312C51.7003 58.4225 51.8061 58.6151 51.9269 58.7982C52.0286 58.9935 52.1574 59.1735 52.3094 59.3327C51.0478 56.8379 50.2867 54.2142 50.2446 51.4046L50.2609 51.3951V51.1713C50.2609 51.0356 50.2514 50.8932 50.2474 50.7548C50.2951 49.3079 50.5263 47.8729 50.9352 46.4842C51.4366 44.8129 52.167 43.2191 53.1058 41.7482C53.1058 41.7482 53.1709 41.641 53.2943 41.4565C53.7963 40.6999 54.3445 39.975 54.9358 39.2859C54.9521 39.2656 54.9698 39.2466 54.986 39.229C55.2574 38.9061 55.5626 38.5751 55.8828 38.2481C55.8884 38.2411 55.8948 38.2348 55.9018 38.2291C56.1568 37.97 56.4254 37.7136 56.7022 37.4681H56.709C57.6318 36.6011 58.6446 35.8352 59.7301 35.1835C62.0988 33.7903 64.671 33.0129 67.3896 32.6629C69.3962 32.4045 71.4308 32.4613 73.4198 32.8311C75.792 33.2754 78.0574 34.1687 80.0944 35.463C81.9793 36.6611 83.6829 38.123 85.1532 39.8042C85.1815 39.8365 85.2129 39.866 85.2469 39.8924C87.9465 43.1903 88.69 48.1175 88.7212 48.3333C88.77 49.1215 88.7944 49.9124 88.7836 50.7046L88.7632 51.3979C88.6996 53.2473 88.4098 55.082 87.9004 56.861C86.826 60.522 84.7539 63.4854 81.6844 65.7509C79.3428 67.4738 76.7178 68.5998 73.9435 69.4138C73.2123 69.6268 72.4715 69.8059 71.7159 70.0039C71.7863 70.0094 71.8571 70.0094 71.9275 70.0039C72.4824 69.909 73.0373 69.8167 73.5894 69.7001C76.023 69.2006 78.3707 68.3487 80.5584 67.1713C82.8877 65.9069 84.9226 64.2817 86.5804 62.2034C89.2136 58.9 90.4332 55.0757 90.6923 50.9095C90.787 49.5372 90.7729 48.1595 90.6503 46.7894Z" fill="#BA0303"/>
<path d="M99.471 36.1656C99.4452 35.8834 99.2824 35.7586 99.0016 35.7925C98.5499 35.855 98.0981 35.9282 97.645 35.992C95.7596 36.264 93.8995 36.6886 92.0828 37.2618C91.1323 37.5629 90.1982 37.9134 89.2841 38.3118C89.2299 38.3349 89.1485 38.4163 89.0834 38.3986C88.8609 38.499 88.6587 38.594 88.5204 38.6604C88.5051 38.6697 88.4892 38.6778 88.4729 38.6849C88.0523 38.8761 87.644 39.0919 87.2248 39.2953C85.335 40.188 83.7762 41.4958 82.4576 43.1034C81.0128 44.867 79.8285 46.8002 78.7418 48.8012C78.3959 49.4374 78.0635 50.0805 77.723 50.7181C77.2807 51.6677 76.1398 51.2078 75.646 50.9542C75.5662 50.9149 75.4896 50.8695 75.4167 50.8185C75.3109 50.7493 75.2078 50.6747 75.0993 50.615C73.4571 49.7045 71.6653 49.0953 69.8085 48.8161C67.6554 48.5167 65.4634 48.6744 63.3754 49.2787C62.2534 49.5962 61.1397 49.9435 60.0408 50.3328C59.8088 50.4196 59.0654 50.6978 57.5202 51.3082L57.3303 51.3883L57.257 51.4154L56.9341 51.5511C56.9111 51.5891 56.8649 51.608 56.7863 51.6175C56.6574 51.6759 56.5299 51.7342 56.405 51.7939C56.036 51.9743 55.6725 52.1575 55.3197 52.3474C54.461 52.8141 53.8709 53.2007 53.8383 53.2224C53.1996 53.6425 52.6083 54.1306 52.0747 54.6781C52.7829 54.5763 53.4422 54.4773 54.1096 54.3864C56.8066 54.0174 59.5104 53.7488 62.2385 53.8343C63.7647 53.8831 65.2774 54.0418 66.7371 54.5207C67.7491 54.8517 68.6703 55.3347 69.411 56.1215C69.5466 56.2572 69.5331 56.3169 69.3418 56.3657C68.924 56.4715 68.5129 56.6031 68.0951 56.7076C66.8158 57.0264 65.5175 57.2611 64.2517 57.6409C63.7091 57.8051 63.157 57.9801 62.6957 58.3193C62.1354 58.7371 62.1178 58.8334 62.5831 59.3801C63.0484 59.9269 63.6806 60.1846 64.3277 60.4139C65.9258 60.9823 67.5985 61.2007 69.2685 61.4286C69.4232 61.449 69.4395 61.4042 69.3906 61.2753C69.283 60.9932 69.223 60.6953 69.2129 60.3935C69.1993 59.817 69.4612 59.429 70.0038 59.2404C70.4375 59.0994 70.8858 59.0083 71.3401 58.9691C72.3128 58.866 73.2923 58.8823 74.2636 58.7656C75.5565 58.6109 76.81 58.3152 77.9862 57.7386C79.3089 57.0915 80.3915 56.1351 81.3967 55.0837C82.2813 54.1612 83.159 53.2319 84.0299 52.2959C84.1656 52.1507 84.2701 52.1005 84.4573 52.2199C84.6825 52.3623 84.9348 52.4614 85.1722 52.5862C85.2862 52.6459 85.3445 52.6554 85.3459 52.4926C85.3603 52.0774 85.3316 51.6619 85.2604 51.2526C85.1586 50.7385 84.9891 50.2555 84.5305 49.9435C84.344 49.799 84.1256 49.7014 83.8936 49.6587C83.6616 49.6159 83.4227 49.6294 83.197 49.6979C83.2227 49.6111 83.2363 49.55 83.258 49.4904C83.5951 48.5135 84.0187 47.5688 84.5238 46.6672C85.044 45.7238 85.7371 44.8867 86.5668 44.1995C86.6205 44.1513 86.6834 44.1143 86.7517 44.091C86.82 44.0677 86.8923 44.0585 86.9643 44.0639C87.1562 44.081 87.349 44.0435 87.5204 43.9556C87.6918 43.8677 87.8348 43.7331 87.9329 43.5673C88.051 43.3896 88.0984 43.1821 88.2043 42.9813C88.519 43.5619 89.0616 43.6745 89.626 43.6894C90.2785 43.7071 90.6584 43.3313 90.8239 42.7195C91.3774 43.0654 91.6284 43.0342 91.8834 42.5553C91.992 42.3545 92.0951 42.2392 92.3379 42.2731C92.4535 42.2754 92.5658 42.2342 92.6526 42.1578C92.8475 42.0073 92.986 41.7956 93.046 41.5568C93.0854 41.4293 93.122 41.4117 93.2441 41.4781C93.3522 41.5461 93.4773 41.5821 93.605 41.5821C93.7327 41.5821 93.8577 41.5461 93.9658 41.4781C94.157 41.3514 94.3129 41.1782 94.4189 40.9748C94.4267 40.9507 94.4393 40.9283 94.4559 40.9092C94.4725 40.89 94.4928 40.8743 94.5156 40.8632C94.5384 40.852 94.5633 40.8456 94.5886 40.8443C94.6139 40.8429 94.6393 40.8468 94.6631 40.8555C95.1692 40.964 95.4432 40.789 95.5585 40.2897C95.567 40.2352 95.5912 40.1842 95.628 40.1431C95.6648 40.1019 95.7128 40.0723 95.7661 40.0578C96.2612 39.8678 96.4525 39.5789 96.4444 39.0498C96.4444 38.9358 96.4295 38.8219 96.4159 38.7093C96.4078 38.6482 96.3969 38.5899 96.4824 38.5872C96.5546 38.5949 96.6276 38.5875 96.6967 38.5655C96.7009 38.5421 96.7063 38.519 96.713 38.4963C96.7252 38.5126 96.7361 38.5275 96.7456 38.5424C96.7975 38.5116 96.8422 38.47 96.8766 38.4203C96.911 38.3707 96.9343 38.3143 96.945 38.2548C96.9455 38.2471 96.9455 38.2394 96.945 38.2318L96.9531 38.187C96.9713 37.9863 96.942 37.7841 96.8676 37.5969C97.2556 37.6565 97.5989 37.7176 97.9448 37.7583C98.1026 37.785 98.2645 37.7736 98.4169 37.725C98.5694 37.6764 98.708 37.592 98.8212 37.4788C99.0667 37.2403 99.2658 36.9583 99.4086 36.6472C99.4713 36.4949 99.4928 36.3288 99.471 36.1656Z" fill="#392B61"/>
</g>
<defs>
<clipPath id="clip0_291_3534">
<rect width="201.16" height="40" fill="white" transform="translate(49.4199 30)"/>
</clipPath>
</defs>
</svg>
