<svg width="300" height="100" viewBox="0 0 300 100" fill="none" xmlns="http://www.w3.org/2000/svg">
<rect width="300" height="100" fill="white"/>
<g clip-path="url(#clip0_298_13266)">
<mask id="mask0_298_13266" style="mask-type:luminance" maskUnits="userSpaceOnUse" x="116" y="30" width="68" height="40">
<path d="M183.667 30H116.711V70H183.667V30Z" fill="white"/>
</mask>
<g mask="url(#mask0_298_13266)">
<path d="M128.021 32.7469C128.021 32.2428 127.844 31.6882 126.806 31.6882V30.9831L130.174 30L130.883 30.605V42.3733C131.467 41.6927 135.669 38.3415 135.441 38.1147C135.213 37.8878 134.605 37.8128 134.023 37.8128V37.2079H139.089V37.8128C137.266 37.8128 134.278 40.0808 133.012 41.3405L138.077 47.8923C138.28 48.1696 138.939 48.6485 139.799 48.6485V49.3291H135.72C135.619 49.2283 132.858 45.625 130.883 43.2058V47.6655C130.883 48.4217 131.39 48.6479 132.099 48.6479V49.3284H126.807V48.6485C127.846 48.6485 128.022 48.145 128.022 47.6661C127.997 42.6751 127.997 37.7113 128.021 32.7469Z" fill="#303E49"/>
<path d="M149.988 43.2786C149.988 46.6305 147.607 49.3263 144.671 49.3263C141.734 49.3263 139.354 46.6324 139.354 43.2786C139.354 39.9248 141.734 37.2031 144.671 37.2031C147.607 37.2031 149.988 39.9294 149.988 43.2786ZM142.214 43.2786C142.214 46.2272 143.328 48.6212 144.671 48.6212C146.013 48.6212 147.127 46.2297 147.127 43.2786C147.127 40.3275 146.013 37.9361 144.671 37.9361C143.328 37.9361 142.214 40.3327 142.214 43.2786Z" fill="#303E49"/>
<path d="M138.108 63.0659C130.917 63.5953 130.436 51.273 137.956 50.9201C140.034 50.8193 142.26 52.2303 142.286 55.1536C142.286 55.9602 141.754 56.136 141.045 56.136H135.475C135.374 58.8576 136.437 61.856 138.868 61.9064C139.932 61.9316 141.096 61.2258 141.831 59.9913C141.982 59.9662 142.54 60.0669 142.54 60.1174C141.627 61.8818 139.855 62.9399 138.108 63.0659ZM139.399 55.4289C139.703 55.4289 139.754 55.3029 139.754 55.1264C139.83 52.7829 139.095 51.624 138.032 51.6743C136.614 51.7752 135.753 53.4634 135.525 55.4289H139.399Z" fill="#303E49"/>
<path d="M152.106 60.6468C152.106 61.9316 151.979 62.4106 153.321 62.4106V63.066C150.839 63.0408 150.156 63.2676 149.523 62.1611C149.024 62.5086 148.467 62.7645 147.877 62.9167C142.788 64.1266 141.447 58.3814 149.245 55.9363C149.245 54.9022 149.346 53.3155 149.017 52.4338C148.612 51.3002 146.637 51.6272 146.459 52.4338C148.004 53.0388 147.447 54.853 145.953 54.9035C145.27 54.9287 144.51 54.3742 144.51 53.6186C144.536 52.4597 145.675 50.8716 148.182 50.9221C149.701 50.9221 152.078 50.9977 152.106 53.8707L152.106 60.6468ZM149.219 56.8166C144.13 58.3535 146.864 62.0577 148.358 61.7055C148.662 61.6298 148.966 61.5542 149.267 61.3274C149.248 60.067 149.221 58.1519 149.221 56.8166H149.219Z" fill="#303E49"/>
<path d="M155.732 46.4858C155.732 45.9817 155.554 45.4271 154.517 45.4271V44.7214L157.885 43.7383L158.593 44.3432V61.4031C158.593 62.1593 159.1 62.3855 159.808 62.3855V63.0661H154.517V62.3855C155.556 62.3855 155.732 61.8814 155.732 61.4031C155.706 56.4141 155.706 51.4503 155.732 46.4858Z" fill="#303E49"/>
<path d="M167.83 61.4034C168.21 61.7311 168.235 61.9851 168.134 62.0588C165.627 64.0747 161.88 63.0413 161.854 58.7328C161.88 56.8681 161.88 54.4741 161.88 52.5843C161.88 51.501 160.765 51.6264 159.931 51.6264V50.9459C162.286 51.0214 163.603 50.1392 164.033 49.0068C164.084 49.0321 164.742 49.2589 164.742 49.2589V50.9471H167.806C167.806 51.0764 167.983 51.6277 167.578 51.6277H164.74C164.715 54.1226 164.715 56.4157 164.715 58.7374C164.588 63.8227 167.019 62.0866 167.83 61.4034Z" fill="#303E49"/>
<path d="M169.781 46.4858C169.781 45.9817 169.604 45.4271 168.566 45.4271V44.7214L171.934 43.7383L172.643 44.3432V52.7345C176.593 49.2825 180.417 51.4497 180.417 54.0446C180.417 56.4891 180.442 58.9335 180.417 61.4031C180.442 62.1593 180.974 62.3855 181.657 62.3855V63.0661H176.365V62.3855C177.378 62.3855 177.58 61.8814 177.58 61.4031C177.555 58.9335 177.58 56.4911 177.58 54.0446C177.58 52.3565 176.01 50.5674 172.644 53.8682V61.4025C172.644 62.1587 173.151 62.3849 173.859 62.3849V63.0655H168.565V62.3849C169.605 62.3849 169.781 61.8807 169.781 61.4025C169.757 56.4141 169.757 51.4503 169.781 46.4858Z" fill="#303E49"/>
<path d="M168.568 46.1263H167.864V44.1964L168.37 44.049L170.171 43.5236V40.3049C170.171 37.6588 166.195 35.4665 162.144 39.2216C161.283 37.2057 157.991 36.0462 154.599 38.9948V37.812L153.89 37.207L150.522 38.1901V38.8952C151.561 38.8952 151.737 39.4498 151.737 39.9539C151.712 44.9183 151.712 42.6756 151.737 47.6646C151.737 48.1436 151.56 48.647 150.522 48.647V49.3277H155.018C155.018 49.0458 155.019 48.7643 155.021 48.4829C154.761 48.3381 154.599 48.0854 154.599 47.6646V46.129C154.571 46.129 154.547 46.129 154.516 46.129H153.813V44.1964L154.318 44.049L154.599 43.967V40.1303C157.967 36.8296 159.534 38.6186 159.534 40.3068C159.534 42.7512 159.509 45.1956 159.534 47.6653C159.534 47.9096 159.48 48.159 159.294 48.3458V49.3283H163.611V48.6477C162.927 48.6477 162.395 48.4209 162.371 47.6653C162.396 45.1956 162.396 42.7532 162.396 40.3068C162.421 39.4498 167.332 36.4011 167.332 40.3068C167.332 42.7512 167.307 45.1956 167.332 47.6653C167.332 48.1442 167.129 48.6477 166.116 48.6477V49.3283H169.066C169.069 48.3788 169.072 47.4294 169.077 46.4844C169.08 46.2317 169.08 46.1263 168.568 46.1263Z" fill="#303E49"/>
<path d="M176.194 49.1771C176.783 49.0245 177.341 48.7684 177.84 48.4208C178.473 49.5293 179.156 49.3031 181.638 49.3257V48.6723C180.296 48.6723 180.423 48.1933 180.423 46.9085V40.1304C180.397 37.2575 178.02 37.1818 176.498 37.1818C173.994 37.1314 172.852 38.7188 172.825 39.8783C172.825 40.6346 173.585 41.1884 174.268 41.1633C175.762 41.1128 176.319 39.2986 174.774 38.6936C174.952 37.8876 176.927 37.5599 177.332 38.6936C177.661 39.5759 177.56 41.1633 177.56 42.196C175.611 42.8062 174.237 43.6219 173.345 44.484V49.0303C174.055 49.3619 175.024 49.455 176.194 49.1771ZM177.536 43.0783C177.536 44.4136 177.561 46.3293 177.586 47.589C177.283 47.8159 176.979 47.8908 176.677 47.9671C175.181 48.3193 172.447 44.6159 177.536 43.0783Z" fill="#303E49"/>
<path d="M119.23 48.4898C119.23 49.8309 120.382 49.8788 120.382 49.8788C116.447 49.8788 116.736 48.0412 116.711 46.6562V44.6474C116.736 43.2623 116.447 41.4248 120.382 41.4248C120.382 41.4248 119.23 41.4726 119.23 42.8138V48.4898Z" fill="#303E49"/>
<path d="M117.574 38.0965C117.574 38.8527 118.333 38.7138 119.017 38.7138C120.27 38.7138 120.092 37.2356 120.092 36.5628C120.092 35.4408 121.244 35.3994 121.244 35.3994C117.31 35.4007 117.599 36.9377 117.574 38.0965Z" fill="#303E49"/>
<path d="M125.057 49.1197C124.976 48.5328 125.024 42.2738 125.024 42.2738V37.4871C124.999 35.4583 122.621 35.4053 121.1 35.4053C121.651 35.4053 122.078 35.7801 122.131 36.1654C122.212 36.7522 122.163 42.2738 122.163 42.2738V47.798C122.189 49.8268 124.92 49.8798 126.44 49.8798C125.889 49.8798 125.11 49.5049 125.057 49.1197Z" fill="#0356B2"/>
<path d="M128.792 61.2259C128.801 62.0616 128.936 63.0531 129.875 63.0531C130.559 63.0531 131.318 63.2192 131.318 62.3156V53.1015C131.293 51.7165 131.23 49.8789 127.295 49.8789C127.295 49.8789 128.8 49.9267 128.8 51.2679L128.792 61.2259Z" fill="#303E49"/>
<path d="M122.131 50.64C122.078 50.2521 121.651 49.8799 121.1 49.8799C122.619 49.8799 124.996 49.9335 125.024 51.9617L125.057 62.3075C125.057 62.6953 124.905 62.8853 124.679 62.979C124.376 63.1083 123.938 63.0553 123.546 63.0553C122.607 63.0553 122.172 62.0632 122.163 61.2281L122.131 50.64Z" fill="#0356B2"/>
<path d="M116.779 69.862L118.219 66.1289H118.754L120.286 69.862H119.721L119.283 68.731H117.715L117.302 69.862H116.779ZM117.861 68.329H119.13L118.74 67.2948C118.621 66.9807 118.532 66.7222 118.474 66.5193C118.425 66.7611 118.358 66.9987 118.272 67.2302L117.861 68.329Z" fill="#303E49"/>
<path d="M124.795 68.6614L125.264 68.6206C125.278 68.784 125.331 68.9414 125.419 69.0802C125.514 69.211 125.645 69.3118 125.796 69.3704C125.978 69.4466 126.174 69.4844 126.372 69.4816C126.543 69.4846 126.713 69.456 126.874 69.3969C127.002 69.3536 127.115 69.2735 127.198 69.1668C127.267 69.074 127.303 68.9619 127.302 68.8469C127.304 68.7361 127.268 68.628 127.2 68.5406C127.109 68.438 126.993 68.3618 126.862 68.3201C126.644 68.248 126.423 68.1871 126.198 68.1379C125.852 68.056 125.61 67.9785 125.474 67.9052C125.312 67.8266 125.174 67.7066 125.073 67.5574C124.986 67.4182 124.941 67.2569 124.943 67.0927C124.943 66.9046 125 66.7206 125.105 66.564C125.219 66.3947 125.384 66.2646 125.575 66.1912C125.794 66.1033 126.028 66.0594 126.264 66.0619C126.516 66.0571 126.766 66.1026 127 66.1957C127.199 66.2746 127.37 66.4118 127.489 66.5893C127.604 66.7645 127.668 66.9681 127.674 67.1774L127.198 67.213C127.173 66.9768 127.086 66.7986 126.938 66.6785C126.79 66.5582 126.572 66.498 126.285 66.4975C125.984 66.4975 125.765 66.5522 125.628 66.6617C125.564 66.7071 125.511 66.7673 125.474 66.8371C125.438 66.9069 125.419 66.9844 125.419 67.063C125.417 67.1254 125.43 67.1874 125.455 67.2446C125.48 67.3018 125.517 67.3527 125.564 67.394C125.66 67.4801 125.91 67.5689 126.313 67.6602C126.717 67.7516 126.993 67.8309 127.143 67.8981C127.337 67.9781 127.504 68.11 127.627 68.2787C127.732 68.4359 127.786 68.6209 127.783 68.8094C127.783 69.0093 127.723 69.2047 127.611 69.3711C127.491 69.5521 127.32 69.6945 127.119 69.7808C126.89 69.8806 126.643 69.9296 126.393 69.9243C126.102 69.933 125.813 69.8831 125.542 69.7776C125.321 69.6862 125.133 69.5313 125.002 69.3329C124.871 69.133 124.799 68.9002 124.795 68.6614Z" fill="#303E49"/>
<path d="M130.968 69.862V66.569H129.734V66.1289H132.708V66.569H131.465V69.862H130.968Z" fill="#303E49"/>
<path d="M134.782 69.8611V66.1279H136.445C136.78 66.1279 137.034 66.1613 137.207 66.2281C137.383 66.2963 137.53 66.4216 137.624 66.5836C137.728 66.7531 137.782 66.948 137.78 67.1465C137.783 67.2697 137.762 67.3922 137.717 67.5071C137.673 67.6219 137.606 67.727 137.521 67.8161C137.347 67.9979 137.081 68.1134 136.722 68.1625C136.83 68.2105 136.931 68.273 137.022 68.348C137.18 68.4958 137.318 68.6627 137.433 68.8451L138.086 69.8611H137.462L136.965 69.0855C136.82 68.861 136.701 68.6886 136.607 68.5685C136.537 68.4725 136.452 68.3884 136.355 68.319C136.286 68.2733 136.209 68.2398 136.129 68.2194C136.037 68.2052 135.945 68.1994 135.853 68.202H135.278V69.8598L134.782 69.8611ZM135.278 67.7741H136.345C136.525 67.7809 136.705 67.7571 136.878 67.7037C136.997 67.6636 137.1 67.5849 137.169 67.48C137.234 67.3804 137.269 67.2641 137.269 67.1452C137.271 67.0628 137.254 66.981 137.22 66.9056C137.187 66.8303 137.137 66.7633 137.074 66.7096C136.944 66.5958 136.74 66.539 136.463 66.539H135.278V67.7741Z" fill="#303E49"/>
<path d="M139.965 68.0427C139.965 67.4234 140.132 66.9385 140.466 66.5877C140.801 66.237 141.232 66.0616 141.761 66.0616C142.089 66.0582 142.411 66.1435 142.693 66.3086C142.969 66.4708 143.191 66.711 143.33 66.9988C143.48 67.3114 143.555 67.6543 143.549 68.0007C143.555 68.353 143.476 68.7016 143.319 69.0173C143.176 69.3047 142.948 69.5414 142.666 69.6953C142.388 69.8483 142.075 69.9277 141.757 69.9261C141.423 69.9313 141.095 69.8426 140.809 69.6701C140.535 69.5044 140.315 69.2627 140.177 68.9747C140.036 68.6843 139.963 68.3654 139.965 68.0427ZM140.477 68.0504C140.477 68.5002 140.598 68.8547 140.841 69.1136C140.96 69.2368 141.103 69.3347 141.261 69.4014C141.419 69.4682 141.589 69.5025 141.761 69.5021C141.932 69.5018 142.102 69.4668 142.26 69.3994C142.417 69.332 142.56 69.2334 142.678 69.1097C142.92 68.8486 143.041 68.4778 143.041 67.9974C143.047 67.724 142.994 67.4524 142.885 67.2011C142.79 66.9843 142.632 66.8008 142.431 66.6743C142.231 66.549 141.998 66.484 141.762 66.4869C141.594 66.4841 141.427 66.5146 141.271 66.5765C141.115 66.6384 140.973 66.7306 140.853 66.8475C140.6 67.0875 140.473 67.4885 140.473 68.0504H140.477Z" fill="#303E49"/>
<path d="M145.739 69.862V66.1289H146.248L148.219 69.0599V66.1289H148.695V69.862H148.186L146.215 66.9284V69.862H145.739Z" fill="#303E49"/>
<path d="M152.844 68.3975V67.9593H154.433V69.3444C154.206 69.5272 153.951 69.6738 153.679 69.7787C153.424 69.8756 153.153 69.9253 152.881 69.9254C152.531 69.9301 152.186 69.8493 151.876 69.6902C151.582 69.54 151.344 69.3017 151.194 69.009C151.038 68.7002 150.959 68.3585 150.964 68.013C150.961 67.661 151.04 67.313 151.193 66.9957C151.33 66.6966 151.562 66.4505 151.853 66.2944C152.159 66.1367 152.499 66.0578 152.843 66.0649C153.094 66.0608 153.344 66.1046 153.579 66.1942C153.78 66.2687 153.958 66.3946 154.094 66.5593C154.231 66.741 154.328 66.9493 154.378 67.1708L153.931 67.2949C153.889 67.1342 153.818 66.9825 153.722 66.847C153.627 66.7312 153.503 66.6421 153.363 66.5885C153.198 66.521 153.022 66.4876 152.844 66.4902C152.643 66.4855 152.443 66.5206 152.255 66.5936C152.103 66.653 151.967 66.7456 151.855 66.8645C151.756 66.9733 151.675 67.0984 151.618 67.2341C151.521 67.4726 151.473 67.7279 151.475 67.9851C151.465 68.2731 151.524 68.5593 151.647 68.8202C151.755 69.0371 151.932 69.2126 152.151 69.3191C152.368 69.4278 152.608 69.4838 152.851 69.4827C153.067 69.4825 153.281 69.4404 153.481 69.3586C153.65 69.2972 153.807 69.2084 153.947 69.0956V68.3975H152.844Z" fill="#303E49"/>
<path d="M156.725 69.8611V66.1279H159.437V66.568H157.221V67.7095H159.299V68.1477H157.221V69.4184H159.524V69.8591L156.725 69.8611Z" fill="#303E49"/>
<path d="M161.779 69.8611V66.1279H163.442C163.776 66.1279 164.03 66.1613 164.205 66.2281C164.38 66.2965 164.527 66.4217 164.622 66.5836C164.726 66.7531 164.78 66.948 164.778 67.1465C164.784 67.3951 164.69 67.6358 164.518 67.8161C164.345 67.9979 164.079 68.1134 163.72 68.1625C163.828 68.2105 163.929 68.273 164.019 68.348C164.177 68.4959 164.315 68.6629 164.431 68.8451L165.081 69.8611H164.456L163.96 69.0855C163.815 68.861 163.695 68.6886 163.601 68.5685C163.531 68.4723 163.446 68.388 163.349 68.319C163.28 68.2734 163.204 68.2398 163.123 68.2194C163.032 68.2053 162.939 68.1994 162.847 68.202H162.271V69.8598L161.779 69.8611ZM162.276 67.7741H163.343C163.523 67.7809 163.703 67.7571 163.875 67.7037C163.994 67.6638 164.097 67.585 164.166 67.48C164.232 67.3806 164.267 67.2642 164.266 67.1452C164.268 67.0628 164.252 66.9809 164.218 66.9055C164.185 66.8302 164.134 66.7632 164.071 66.7096C163.942 66.5958 163.738 66.539 163.462 66.539H162.276V67.7741Z" fill="#303E49"/>
<path d="M171.085 69.8615V68.2799L169.639 66.1283H170.242L170.982 67.2535C171.119 67.4642 171.246 67.6747 171.363 67.885C171.476 67.6897 171.613 67.47 171.773 67.2257L172.499 66.127H173.078L171.584 68.2786V69.8602L171.085 69.8615Z" fill="#303E49"/>
<path d="M174.931 68.0426C174.931 67.4235 175.099 66.9386 175.433 66.5878C175.768 66.2371 176.199 66.0617 176.726 66.0617C177.055 66.0573 177.379 66.1427 177.663 66.3085C177.939 66.4707 178.161 66.711 178.3 66.9988C178.45 67.3114 178.525 67.6544 178.519 68.0006C178.525 68.3531 178.446 68.7018 178.288 69.0173C178.147 69.3042 177.92 69.5408 177.639 69.6953C177.36 69.8481 177.047 69.9276 176.73 69.926C176.396 69.9315 176.068 69.8432 175.783 69.6714C175.508 69.5057 175.289 69.264 175.151 68.9759C175.007 68.6858 174.932 68.3664 174.931 68.0426ZM175.443 68.0505C175.443 68.5003 175.565 68.8546 175.808 69.1136C175.927 69.2368 176.07 69.3347 176.228 69.4015C176.386 69.4683 176.556 69.5026 176.727 69.5022C176.899 69.5018 177.069 69.4668 177.227 69.3994C177.384 69.3319 177.527 69.2334 177.645 69.1098C177.886 68.8486 178.007 68.4779 178.007 67.9974C178.013 67.724 177.961 67.4525 177.852 67.2012C177.757 66.9844 177.599 66.8009 177.398 66.6744C177.198 66.5491 176.965 66.484 176.729 66.487C176.561 66.4842 176.394 66.5146 176.238 66.5765C176.082 66.6385 175.94 66.7305 175.82 66.8476C175.569 67.0876 175.443 67.4885 175.443 68.0505Z" fill="#303E49"/>
<path d="M183.173 66.1279H183.672V68.2847C183.672 68.6596 183.628 68.9575 183.542 69.1785C183.452 69.4042 183.29 69.5937 183.08 69.717C182.857 69.8553 182.565 69.9244 182.203 69.9244C181.852 69.9244 181.564 69.8641 181.341 69.7435C181.125 69.6306 180.956 69.4455 180.863 69.2206C180.767 68.9918 180.719 68.6798 180.719 68.2847V66.1279H181.216V68.2821C181.216 68.6065 181.246 68.8455 181.306 68.9989C181.365 69.1503 181.476 69.2761 181.619 69.3544C181.785 69.4418 181.972 69.4849 182.16 69.4791C182.525 69.4791 182.784 69.3966 182.939 69.2316C183.094 69.0665 183.171 68.7501 183.172 68.2821L183.173 66.1279Z" fill="#303E49"/>
</g>
</g>
<defs>
<clipPath id="clip0_298_13266">
<rect width="66.9565" height="40" fill="white" transform="translate(116.711 30)"/>
</clipPath>
</defs>
</svg>
