<svg width="300" height="100" viewBox="0 0 300 100" fill="none" xmlns="http://www.w3.org/2000/svg">
<rect width="300" height="100" fill="white"/>
<g clip-path="url(#clip0_298_13254)">
<mask id="mask0_298_13254" style="mask-type:luminance" maskUnits="userSpaceOnUse" x="125" y="30" width="51" height="40">
<path d="M175.259 30.7871H125.111V69.5626H175.259V30.7871Z" fill="white"/>
</mask>
<g mask="url(#mask0_298_13254)">
<path d="M149.361 60.4752C150.152 59.6494 150.919 58.8468 151.683 58.0442C152.985 56.6841 154.286 55.3215 155.588 53.9614C155.942 53.5924 156.35 53.3188 156.874 53.2647C158.036 53.1459 158.875 53.964 158.992 54.9215C159.041 55.3215 159.01 55.7086 158.839 56.0802C158.751 56.2738 158.625 56.4415 158.475 56.5912C157.039 58.0209 155.606 59.4506 154.17 60.8778C154.093 60.9552 154.085 60.9914 154.165 61.0739C155.8 62.7566 157.434 64.4444 159.066 66.1322C159.658 66.7438 159.849 67.6445 159.505 68.3826C159.162 69.1232 158.563 69.5155 157.739 69.5516C157.073 69.5826 156.556 69.3091 156.12 68.8265C153.909 66.3851 151.696 63.9463 149.483 61.5075C149.452 61.4714 149.418 61.4378 149.382 61.3991C149.348 61.4456 149.364 61.492 149.364 61.5359C149.364 63.4663 149.364 65.3967 149.361 67.3271C149.361 68.2845 148.806 69.1258 147.944 69.4303C146.497 69.9413 145.296 68.8936 145.103 67.7684C145.077 67.6161 145.072 67.4613 145.072 67.3064C145.072 60.2559 145.072 53.2079 145.072 46.1573C145.072 45.1121 145.712 44.2269 146.668 43.9792C148.161 43.592 149.24 44.7818 149.341 45.7986C149.354 45.9354 149.361 46.0721 149.361 46.2089C149.361 50.9058 149.361 55.6053 149.361 60.3023C149.361 60.3514 149.361 60.3978 149.361 60.4752Z" fill="black"/>
<path d="M170.962 67.3992C170.833 67.5463 170.716 67.6882 170.593 67.8198C169.518 68.9734 168.188 69.5334 166.613 69.5515C165.536 69.5644 164.531 69.3269 163.635 68.7205C162.362 67.8611 161.608 66.6611 161.337 65.154C161.254 64.6997 161.223 64.2429 161.223 63.781C161.223 61.0222 161.223 58.2608 161.223 55.502C161.223 54.5213 161.784 53.6878 162.646 53.3729C163.935 52.9032 165.363 53.8038 165.5 55.1717C165.513 55.3059 165.518 55.4375 165.518 55.5717C165.518 57.9743 165.518 60.377 165.518 62.7797C165.518 63.4481 165.647 64.0778 166.04 64.6327C166.587 65.4042 167.351 65.7475 168.286 65.7424C169.818 65.7346 170.804 64.6016 170.944 63.2881C170.964 63.0945 170.97 62.9035 170.97 62.71C170.97 60.3073 170.97 57.9047 170.97 55.502C170.97 54.5446 171.403 53.8245 172.269 53.4374C173.689 52.7999 174.993 53.8296 175.223 54.9988C175.249 55.1304 175.251 55.262 175.251 55.3962C175.251 59.4015 175.244 63.4094 175.257 67.4146C175.259 68.3901 174.451 69.4069 173.397 69.5438C172.31 69.6857 171.21 68.8985 171.016 67.8172C170.995 67.6856 170.982 67.5488 170.962 67.3992Z" fill="black"/>
<path d="M168.978 40.1214C169.471 40.3098 169.962 40.5008 170.455 40.6866C171.832 41.2053 173.211 41.7241 174.587 42.2428C174.846 42.3408 175.05 42.5008 175.176 42.7538C175.225 42.8544 175.254 42.9602 175.254 43.0763C175.254 45.1615 175.254 47.2442 175.251 49.3295C175.251 49.7011 174.954 50.0314 174.549 50.1295C174.327 50.1837 174.107 50.1682 173.89 50.0882C172.046 49.3939 170.202 48.7024 168.361 48.0082C165.011 46.7487 161.665 45.4868 158.315 44.2248C158.212 44.186 158.103 44.1602 158.01 44.0957C158.049 44.0596 158.09 44.0777 158.132 44.088C158.325 44.1371 158.514 44.1189 158.7 44.0467C160.128 43.4893 161.561 42.937 162.992 42.3847C164.908 41.6441 166.822 40.8982 168.738 40.1627C168.79 40.142 168.841 40.1214 168.89 40.0931C168.927 40.0775 168.955 40.0931 168.978 40.1214Z" fill="#6F3A96"/>
<path d="M168.978 40.1213C168.952 40.1136 168.926 40.1084 168.901 40.1007C168.841 40.1291 168.792 40.0955 168.74 40.0775C166.744 39.3316 164.748 38.5754 162.752 37.8271C161.463 37.3445 160.177 36.8593 158.891 36.3715C158.669 36.2864 158.449 36.276 158.219 36.2967C158.173 36.3019 158.126 36.3199 158.085 36.2786C158.323 36.1522 158.583 36.0722 158.834 35.9741C161.471 34.9521 164.11 33.9302 166.747 32.9108C168.521 32.2243 170.293 31.5404 172.067 30.8539C172.694 30.6113 173.317 31.0372 173.317 31.7133C173.319 33.7289 173.317 35.7444 173.317 37.76C173.317 38.2065 173.118 38.5083 172.697 38.6736C171.749 39.0452 170.799 39.4091 169.851 39.7755C169.559 39.8891 169.267 40.0078 168.978 40.1213Z" fill="#00C3FF"/>
<path d="M158.083 36.2789C158.527 36.1628 158.917 36.346 159.314 36.4957C161.708 37.3989 164.105 38.2971 166.499 39.2003C167.3 39.5022 168.098 39.8042 168.898 40.1061C168.872 40.1732 168.803 40.1732 168.754 40.1939C167.692 40.6068 166.631 41.0172 165.567 41.4274C164.42 41.8714 163.273 42.3101 162.127 42.754C161.14 43.1359 160.154 43.5204 159.167 43.9024C159.007 43.9643 158.847 44.0263 158.687 44.0882C158.462 44.1734 158.235 44.1605 158.008 44.0959C157.631 43.9204 157.445 43.6185 157.445 43.2056C157.442 42.1836 157.445 41.1616 157.445 40.1397C157.445 39.19 157.453 38.2429 157.442 37.2931C157.434 36.8054 157.615 36.457 158.083 36.2789Z" fill="#581689"/>
<path d="M142.44 55.4919C142.44 55.3319 142.427 55.1746 142.399 55.0171C142.223 54.0545 141.348 53.2906 140.384 53.2519C139.178 53.2029 138.401 54.1293 138.215 54.8752C138.153 55.1229 138.143 55.3759 138.143 55.6623C138.096 55.6055 138.071 55.5746 138.047 55.5461C137.42 54.7771 136.653 54.1887 135.736 53.8016C134.948 53.4687 134.122 53.3112 133.27 53.2648C132.2 53.208 131.155 53.3216 130.155 53.7061C128.182 54.4675 126.787 55.8584 125.881 57.7449C125.129 59.3141 124.993 60.9863 125.199 62.6897C125.39 64.2587 126.002 65.6523 127.03 66.8575C127.957 67.9466 129.073 68.7647 130.447 69.2034C131.671 69.5931 132.921 69.6395 134.181 69.4434C135.741 69.2008 137.043 68.486 138.05 67.2601C138.073 67.2317 138.089 67.1853 138.138 67.1801C138.145 67.3195 138.151 67.451 138.158 67.5853C138.228 68.6821 139.359 69.8873 140.873 69.4744C141.802 69.2215 142.44 68.3389 142.44 67.3246C142.44 63.3813 142.44 59.4353 142.44 55.4919ZM134.651 65.4665C133.512 65.6575 132.41 65.5491 131.4 64.9503C130.049 64.1503 129.398 62.9477 129.406 61.3812C129.411 60.2586 129.755 59.2728 130.579 58.483C131.304 57.7862 132.172 57.394 133.174 57.2959C134.127 57.203 135.044 57.3217 135.899 57.7733C137.293 58.5088 138.052 59.7966 138.052 61.407C138.065 63.8536 136.289 65.1904 134.651 65.4665Z" fill="black"/>
</g>
</g>
<defs>
<clipPath id="clip0_298_13254">
<rect width="50.6122" height="40" fill="white" transform="translate(124.703 30)"/>
</clipPath>
</defs>
</svg>
