<svg width="300" height="100" viewBox="0 0 300 100" fill="none" xmlns="http://www.w3.org/2000/svg">
<rect width="300" height="100" fill="white"/>
<g clip-path="url(#clip0_291_3576)">
<path d="M130 30H170V70H130V30Z" fill="#C7001D"/>
<path d="M151.289 60.3462C151.289 60.4012 151.296 60.4527 151.309 60.5006C151.323 60.5474 151.343 60.5883 151.368 60.6234C151.394 60.6573 151.426 60.6843 151.465 60.7041C151.504 60.724 151.547 60.7339 151.597 60.7339C151.639 60.7344 151.68 60.7267 151.719 60.7111C151.757 60.6948 151.789 60.6713 151.818 60.641C151.846 60.6106 151.867 60.5737 151.882 60.5304C151.899 60.486 151.907 60.4351 151.907 60.3778C151.91 60.3242 151.905 60.2705 151.893 60.2182C151.881 60.1678 151.863 60.124 151.837 60.0866C151.811 60.0494 151.777 60.0193 151.737 59.9989C151.697 59.9766 151.65 59.9655 151.597 59.9655C151.551 59.9649 151.507 59.9757 151.467 59.9971C151.429 60.0173 151.396 60.0454 151.37 60.0796C151.343 60.116 151.323 60.157 151.311 60.2006C151.297 60.2462 151.289 60.2948 151.289 60.3462ZM151.289 60.8041H151.184V59.541H151.289V60.041C151.323 59.9848 151.37 59.9427 151.428 59.9146C151.486 59.8858 151.55 59.8708 151.614 59.8708C151.683 59.8708 151.743 59.8843 151.793 59.9111C151.843 59.9356 151.886 59.9717 151.919 60.0164C151.954 60.0618 151.98 60.1137 151.995 60.169C152.011 60.2275 152.019 60.2883 152.019 60.3515C152.019 60.4182 152.012 60.4808 151.997 60.5392C151.981 60.5977 151.957 60.6485 151.923 60.6918C151.889 60.7346 151.846 60.7689 151.797 60.7918C151.745 60.8164 151.682 60.8287 151.609 60.8287C151.58 60.8287 151.55 60.8246 151.519 60.8164C151.488 60.808 151.458 60.7962 151.43 60.7813C151.401 60.7658 151.375 60.747 151.351 60.7252C151.327 60.7016 151.308 60.6743 151.293 60.6445H151.289V60.8041ZM152.237 61.0515L152.28 61.0585C152.295 61.0608 152.31 61.062 152.325 61.062C152.354 61.062 152.378 61.0527 152.397 61.0339C152.416 61.0152 152.431 60.9924 152.443 60.9655C152.456 60.9391 152.466 60.9115 152.474 60.8831C152.482 60.855 152.492 60.831 152.502 60.8111L152.15 59.8953H152.267L152.558 60.676L152.85 59.8953H152.964L152.625 60.7918C152.604 60.8492 152.584 60.9006 152.564 60.9462C152.545 60.9918 152.525 61.0304 152.502 61.062C152.481 61.0948 152.457 61.1193 152.43 61.1357C152.405 61.1532 152.374 61.162 152.337 61.162C152.319 61.162 152.301 61.1608 152.283 61.1585C152.268 61.1564 152.252 61.1534 152.237 61.1497V61.0515ZM154.617 60.6357H154.62L154.896 59.541H155.019L154.687 60.8041H154.556L154.263 59.6883H154.259L153.966 60.8041H153.834L153.508 59.541H153.627L153.899 60.6357H153.903L154.196 59.541H154.329L154.617 60.6357ZM155.185 60.8041V59.541H156.025V59.6427H155.304V60.0989H155.955V60.2006H155.304V60.7024H156.043V60.8041H155.185ZM156.252 60.8041V59.541H156.434L156.849 60.655H156.852L157.259 59.541H157.44V60.8041H157.32V59.6778H157.317L156.903 60.8041H156.791L156.375 59.6778H156.371V60.8041H156.252ZM157.603 60.8041L158.099 59.541H158.234L158.719 60.8041H158.596L158.45 60.4076H157.875L157.726 60.8041H157.603ZM157.915 60.3059H158.41L158.163 59.6427L157.915 60.3059ZM143.548 57.6007H142.354L142.171 57.9971H141.298V57.8835L142.764 54.772H143.147L144.597 57.8835V57.9971H143.735L143.548 57.6007ZM142.951 56.1306L142.621 56.9013H143.283L142.951 56.1306ZM147.493 54.8032V57.2488H148.649V57.9971H146.66V54.8032H147.493ZM153.089 57.6007H151.895L151.713 57.9971H150.84V57.8835L152.305 54.772H152.688L154.138 57.8835V57.9971H153.276L153.089 57.6007ZM152.492 56.1306L152.163 56.9013H152.824L152.492 56.1306ZM157.011 55.5337H156.227V54.8032H158.599V55.5337H157.82V57.9971H157.011V55.5337ZM139.754 52.5966H150.353C150.561 52.5966 150.697 52.377 150.604 52.1904L150.386 51.7545L149.93 50.9475L149.906 50.9083C149.881 50.8668 149.846 50.8324 149.804 50.8085C149.762 50.7846 149.714 50.772 149.666 50.772H142.947C142.73 50.772 142.595 50.536 142.705 50.3489L147.093 42.8991C147.201 42.7155 147.467 42.7146 147.576 42.8977L153.287 52.4598C153.312 52.5015 153.347 52.5361 153.389 52.56C153.431 52.584 153.479 52.5966 153.528 52.5966H160.04C160.256 52.5966 160.391 52.3626 160.283 52.1756L152.502 38.7019C152.477 38.6592 152.442 38.6238 152.399 38.5991C152.357 38.5745 152.308 38.5615 152.259 38.5615H150.864C150.65 38.5615 150.514 38.7918 150.619 38.9789L156.96 50.3546C157.065 50.5418 156.929 50.772 156.715 50.772H154.617C154.568 50.7721 154.52 50.7592 154.478 50.7347C154.435 50.7103 154.4 50.6751 154.375 50.6327L147.625 39.0518C147.6 39.0094 147.565 38.9742 147.522 38.9497C147.48 38.9253 147.432 38.9124 147.383 38.9124H147.354C147.305 38.9124 147.257 38.9253 147.214 38.9498C147.172 38.9742 147.136 39.0095 147.112 39.0519L139.512 52.1101C139.487 52.1529 139.474 52.2017 139.474 52.2513V52.3159C139.474 52.3904 139.503 52.4618 139.556 52.5144C139.608 52.567 139.68 52.5966 139.754 52.5966Z" fill="white"/>
</g>
<defs>
<clipPath id="clip0_291_3576">
<rect width="40" height="40" fill="white" transform="translate(130 30)"/>
</clipPath>
</defs>
</svg>
