<svg width="300" height="100" viewBox="0 0 300 100" fill="none" xmlns="http://www.w3.org/2000/svg">
<rect width="300" height="100" fill="white"/>
<g clip-path="url(#clip0_298_13223)">
<mask id="mask0_298_13223" style="mask-type:luminance" maskUnits="userSpaceOnUse" x="63" y="30" width="174" height="40">
<path d="M236.211 30H63.1484V70H236.211V30Z" fill="white"/>
</mask>
<g mask="url(#mask0_298_13223)">
<path d="M120.535 65.2692V63.3281C119.672 64.0521 118.685 64.6159 117.623 64.9926C116.544 65.3826 115.404 65.5797 114.256 65.5749C112.869 65.5889 111.494 65.3146 110.218 64.7694C108.996 64.2432 107.885 63.4871 106.948 62.542C106.007 61.5799 105.265 60.4422 104.764 59.1937C104.226 57.8771 103.954 56.467 103.963 55.0447C103.953 53.6271 104.225 52.2216 104.764 50.9104C105.774 48.4954 107.657 46.5499 110.038 45.4624C112.419 44.3749 115.123 44.2254 117.609 45.0435C118.65 45.3856 119.632 45.8865 120.52 46.5284V44.8543H124.534V65.2692H120.535ZM107.918 55.0011C107.894 55.9355 108.059 56.8653 108.403 57.7343C108.748 58.6033 109.264 59.3936 109.922 60.0575C110.558 60.7217 111.325 61.2463 112.175 61.598C113.025 61.9497 113.938 62.1209 114.857 62.1004C115.953 62.1109 117.039 61.8927 118.046 61.4599C118.994 61.0531 119.837 60.4358 120.511 59.6547V50.3814C119.821 49.6187 118.973 49.0159 118.026 48.6151C117.025 48.1859 115.947 47.9679 114.857 47.9745C113.942 47.9538 113.031 48.1209 112.182 48.4656C111.334 48.8103 110.564 49.3252 109.922 49.9786C109.26 50.6328 108.739 51.4161 108.391 52.2801C108.044 53.1441 107.878 54.0703 107.904 55.0011H107.918Z" fill="black"/>
<path d="M132.249 36.3086V65.269H128.236V37.1917L132.249 36.3086Z" fill="black"/>
<path d="M139.989 36.3086V65.269H135.981V37.1917L139.989 36.3086Z" fill="black"/>
<path d="M159.361 65.2689V63.3278C158.498 64.0518 157.511 64.6156 156.449 64.9923C155.37 65.3823 154.23 65.5794 153.082 65.5746C151.688 65.5845 150.308 65.3035 149.03 64.7497C147.807 64.2235 146.697 63.4673 145.759 62.5223C144.818 61.5602 144.077 60.4226 143.576 59.1741C143.038 57.8574 142.766 56.4473 142.775 55.0251C142.765 53.6074 143.037 52.202 143.576 50.8906C144.589 48.4758 146.476 46.5323 148.86 45.4483C151.244 44.3643 153.949 44.2197 156.435 45.0433C157.468 45.3876 158.441 45.8884 159.322 46.5281V44.854H163.336V65.2689H159.361ZM146.744 55.0008C146.72 55.9353 146.885 56.865 147.229 57.734C147.573 58.603 148.091 59.3933 148.748 60.0572C149.384 60.7214 150.151 61.2461 151.001 61.5978C151.851 61.9495 152.764 62.1206 153.683 62.1001C154.779 62.1102 155.865 61.8921 156.871 61.4596C157.82 61.0528 158.663 60.4356 159.337 59.6544V50.3811C158.647 49.6184 157.799 49.0156 156.852 48.6148C155.851 48.1856 154.773 47.9676 153.683 47.9742C152.768 47.9535 151.857 48.1206 151.008 48.4653C150.16 48.81 149.391 49.3249 148.748 49.9783C148.086 50.6325 147.564 51.4158 147.217 52.2798C146.87 53.1438 146.704 54.07 146.73 55.0008H146.744Z" fill="black"/>
<path d="M174.758 65.2693H170.876L165.179 44.8545H169.061L172.992 59.8587L177.684 44.8545H181.134L185.783 59.8587L189.758 44.8545H193.528L187.802 65.2693H183.949L179.378 50.3088L174.758 65.2693Z" fill="black"/>
<path d="M212.671 62.9441C210.428 64.7305 207.633 65.6809 204.766 65.6325C201.928 65.6443 199.196 64.5515 197.148 62.5851C196.171 61.6341 195.4 60.4928 194.881 59.2319C194.066 57.2927 193.835 55.1576 194.216 53.0887C194.597 51.0198 195.573 49.1072 197.026 47.5856C197.973 46.6158 199.106 45.8462 200.356 45.3227C201.607 44.7991 202.95 44.5324 204.306 44.5382C205.628 44.5316 206.937 44.8008 208.149 45.3289C209.362 45.857 210.451 46.6323 211.346 47.6051C212.241 48.5978 212.941 49.7502 213.408 51.0019C213.924 52.3459 214.182 53.7746 214.171 55.2139V56.3737H198.051C198.302 58.0121 199.136 59.5049 200.398 60.5788C201.661 61.6527 203.269 62.2357 204.926 62.2211C205.896 62.2231 206.86 62.0589 207.775 61.7358C208.628 61.4463 209.419 60.9967 210.104 60.4111L212.671 62.9441ZM204.203 47.9011C202.731 47.8816 201.306 48.4208 200.215 49.4102C199.061 50.4398 198.298 51.8343 198.051 53.3603H210.182C209.918 51.8725 209.179 50.5103 208.076 49.4782C207.044 48.4617 205.652 47.8947 204.203 47.9011Z" fill="black"/>
<path d="M234.732 62.9445C232.488 64.7307 229.694 65.6812 226.827 65.6327C225.382 65.642 223.95 65.3615 222.615 64.8078C221.351 64.2911 220.198 63.5366 219.218 62.5853C218.243 61.6331 217.471 60.4922 216.952 59.2322C216.139 57.2924 215.91 55.158 216.291 53.0898C216.671 51.0216 217.646 49.1091 219.096 47.586C220.023 46.6371 221.128 45.8802 222.348 45.3586C223.611 44.8191 224.973 44.5465 226.346 44.558C227.669 44.5512 228.978 44.8205 230.191 45.3487C231.403 45.8767 232.492 46.652 233.388 47.6247C234.282 48.6176 234.982 49.7699 235.45 51.0216C235.965 52.3656 236.223 53.7943 236.212 55.2337V56.3934H220.091C220.348 58.0316 221.186 59.5225 222.453 60.5928C223.719 61.6632 225.329 62.2414 226.987 62.2214C227.957 62.2234 228.921 62.0592 229.836 61.7361C230.69 61.4478 231.481 60.9981 232.165 60.4114L234.732 62.9445ZM226.268 47.9014C224.794 47.8807 223.367 48.42 222.275 49.4105C221.133 50.4405 220.377 51.8285 220.13 53.346H232.262C231.998 51.8582 231.259 50.496 230.156 49.4639C229.643 48.9606 229.035 48.5635 228.368 48.2953C227.701 48.0272 226.988 47.8933 226.268 47.9014Z" fill="black"/>
<path fill-rule="evenodd" clip-rule="evenodd" d="M88.5712 53.7389C88.3043 46.5959 88.9109 40.2875 90.0949 31.7372C90.1247 31.5213 90.1079 31.3016 90.0458 31.0927C89.9837 30.8838 89.8776 30.6906 89.7347 30.5261C89.5917 30.3616 89.4152 30.2295 89.2171 30.1388C89.0189 30.048 88.8037 30.0007 88.5858 30H70.4274C70.2138 30.0002 70.0028 30.0452 69.8078 30.1322C69.6128 30.2192 69.4383 30.3462 69.2956 30.5049C69.1528 30.6637 69.045 30.8507 68.9792 31.0538C68.9133 31.2569 68.8909 31.4715 68.9133 31.6838L68.9619 32.1691C69.8547 40.7097 70.5147 46.9841 70.4807 53.7244C68.1761 52.6854 65.6765 52.1494 63.1484 52.1521V57.325C63.1631 57.7304 63.3223 58.1171 63.5973 58.4153C63.8723 58.7135 64.245 58.9034 64.6479 58.9506C66.2693 59.1846 67.8179 59.7781 69.1802 60.6879C69.5178 60.9111 69.8419 61.1541 70.1507 61.4157C71.6422 62.6614 72.7787 64.2783 73.4457 66.1034C73.889 67.3194 74.1157 68.6038 74.1153 69.8981C74.1153 69.9251 74.1261 69.9511 74.1452 69.9701C74.1643 69.9893 74.1902 70 74.2172 70H84.8929C84.9063 70 84.9196 69.9974 84.9319 69.9922C84.9443 69.9871 84.9555 69.9796 84.965 69.9701C84.9744 69.9607 84.9819 69.9494 84.9871 69.9371C84.9922 69.9247 84.9949 69.9115 84.9949 69.8981C84.9897 67.805 85.5789 65.7535 86.694 63.9822C87.809 62.2109 89.404 60.7925 91.2935 59.892C92.2787 59.4233 93.329 59.1059 94.4089 58.9506C94.8127 58.9044 95.1864 58.715 95.4625 58.4168C95.7385 58.1185 95.8984 57.7311 95.9132 57.325V52.1521C93.3807 52.1513 90.8773 52.6923 88.5712 53.7389ZM86.999 47.4306L86.7515 54.7094C84.6989 55.9429 82.9124 57.5728 81.4962 59.5039C80.7234 60.5734 80.0724 61.7257 79.5551 62.9394C79.0377 61.7257 78.3867 60.5734 77.614 59.5039C76.1797 57.5434 74.3641 55.8928 72.2762 54.6512C72.2762 48.9349 71.9608 44.2084 71.6114 38.7638C71.5386 37.6816 71.4658 36.5704 71.393 35.4155C72.1453 35.371 72.8521 35.0407 73.3689 34.4923C73.8858 33.9439 74.1737 33.2187 74.1736 32.4651H84.7328C84.7398 33.208 85.0272 33.9207 85.5374 34.4606C86.0476 35.0006 86.743 35.3278 87.4842 35.3767L86.999 47.4306Z" fill="#5CD89F"/>
<path fill-rule="evenodd" clip-rule="evenodd" d="M83.5637 48.1048C83.5617 48.9 83.3242 49.6768 82.881 50.3371C82.4378 50.9973 81.8089 51.5114 81.0736 51.8144C80.3384 52.1174 79.5298 52.1957 78.7502 52.0393C77.9704 51.8831 77.2545 51.4991 76.6929 50.9362C76.1313 50.3732 75.7491 49.6564 75.5947 48.8763C75.4402 48.0962 75.5204 47.2878 75.8252 46.5533C76.13 45.8188 76.6456 45.1911 77.3069 44.7496C77.9683 44.3079 78.7457 44.0723 79.5409 44.0723C80.0699 44.0723 80.5939 44.1766 81.0826 44.3794C81.5713 44.5821 82.0152 44.8793 82.3889 45.2539C82.7625 45.6285 83.0587 46.0731 83.2602 46.5623C83.4619 47.0515 83.5649 47.5756 83.5637 48.1048Z" fill="#5CD89F"/>
</g>
</g>
<defs>
<clipPath id="clip0_298_13223">
<rect width="173.571" height="40" fill="white" transform="translate(63.1484 30)"/>
</clipPath>
</defs>
</svg>
