<svg width="300" height="100" viewBox="0 0 300 100" fill="none" xmlns="http://www.w3.org/2000/svg">
<rect width="300" height="100" fill="white"/>
<g clip-path="url(#clip0_298_13214)">
<path d="M90.0679 48.6369C90.0679 50.8469 88.2694 52.6434 86.0574 52.6434C83.8449 52.6434 82.0569 50.8469 82.0569 48.6369C82.0569 46.4269 83.8549 44.6309 86.0569 44.6309C86.5834 44.6301 87.1049 44.7331 87.5916 44.9341C88.0783 45.1351 88.5205 45.43 88.8931 45.8021C89.2656 46.1742 89.5612 46.6161 89.7627 47.1025C89.9643 47.5889 90.068 48.1103 90.0679 48.6369Z" fill="black"/>
<path d="M103.302 31.612C102.747 32.5 95.2605 44.267 94.533 45.387C94.3715 45.649 94.1996 45.9015 94.048 46.1535C93.9471 46.315 93.836 46.4765 93.735 46.6385C92.957 43.621 90.4315 41.3 87.3 40.8055C87.4415 40.5835 91.836 33.6405 92.947 31.8745C93.068 31.6725 93.1895 31.5215 93.462 31.5215C96.695 31.5315 99.917 31.5315 103.15 31.5315C103.18 31.5515 103.211 31.5815 103.302 31.612Z" fill="#3467FE"/>
<path d="M105.17 65.7113C103.554 67.6288 101.735 68.9813 99.4225 69.5263C96.2405 70.2728 93.22 69.9298 90.5025 67.9718C88.5325 66.5488 87.33 64.5508 86.4515 62.3308C86.4215 62.2603 86.3905 62.1898 86.3605 62.0988C86.3505 62.0788 86.3505 62.0588 86.3405 62.0383C85.99 61.099 85.6567 60.1536 85.3405 59.2023C85.027 58.2538 84.724 57.2448 84.522 56.3873C85.027 56.4878 85.542 56.5383 86.0775 56.5383C88.4315 56.5383 90.5425 55.5093 91.9875 53.8843L92.0075 53.8643C92.5425 55.1863 93.0985 57.2548 93.624 58.8593V58.8693C93.7655 59.3133 93.9065 59.7173 94.048 60.0603C94.634 61.5133 95.2505 62.9463 96.422 64.0263L96.6645 64.2383C98.19 65.4993 100.018 65.8323 101.928 65.8933C102.958 65.9433 103.988 65.8023 105.17 65.7113Z" fill="#0217FF"/>
<path d="M79.3595 52.855C77.4805 55.4785 75.45 57.971 73.056 60.181C71.0355 62.048 68.884 63.713 66.2975 64.722C65.3075 65.1055 64.2875 65.3175 63.2165 65.307C60.2065 65.3175 58.044 63.4305 57.3975 60.282C56.832 57.487 57.115 54.722 57.9025 52.027C59.3575 47.032 61.9135 42.612 65.3075 38.687C66.843 36.9105 68.611 35.387 70.9145 34.65C72.5405 34.135 74.1775 33.984 75.7735 34.8015C76.996 35.427 77.8545 36.4465 78.5315 37.6065C79.5015 39.2615 80.107 41.048 80.6225 42.8745C82.0898 41.4837 84.0358 40.7105 86.0575 40.715C86.4815 40.715 86.8855 40.745 87.29 40.806C87.32 40.7655 87.492 40.493 87.765 40.059C87.401 39.2315 87.098 38.4745 86.7545 37.738C85.6735 35.4475 84.2085 33.4695 82.087 32.0365C79.582 30.3515 76.7835 29.8065 73.7835 30.0585C69.9545 30.3815 66.3885 31.4915 63.1355 33.5C57.9535 36.6985 53.882 40.9775 51.0335 46.356C49.205 49.797 48.1535 53.4605 48.447 57.406C48.821 62.492 51.387 66.135 55.9535 68.355C59.5095 70.0905 63.2875 70.242 67.1165 69.768C70.2985 69.3745 73.299 68.335 76.0665 66.7305C79.421 64.793 82.33 62.26 85.0475 59.505C85.1385 59.404 85.199 59.263 85.3305 59.202C85.0175 58.2535 84.7145 57.2445 84.512 56.387C83.4582 56.1796 82.4577 55.7594 81.5719 55.1521C80.686 54.5448 79.9329 53.7632 79.3595 52.855Z" fill="#0219FA"/>
<path d="M122.819 52.9252H115.131L113.616 56.4777H110.676L117.596 41.1187H120.405L127.345 56.4677H124.355L122.819 52.9257L122.819 52.9252ZM121.87 50.6852L118.97 43.9747L116.101 50.6852H121.87ZM129.032 40.2002H131.78V56.4777H129.032V40.2002ZM147.822 50.6152C147.822 54.2577 145.297 56.6192 141.872 56.6192C140.377 56.6192 139.063 56.1142 138.114 55.0447V60.7262H135.376V44.7617H137.993V46.2957C138.912 45.1757 140.276 44.6307 141.882 44.6307C145.297 44.6307 147.822 47.0027 147.822 50.6152ZM145.034 50.6152C145.034 48.3747 143.539 46.9517 141.569 46.9517C139.589 46.9517 138.074 48.3747 138.074 50.6147C138.074 52.8547 139.589 54.2777 141.569 54.2777C143.539 54.2777 145.034 52.8557 145.034 50.6152ZM161.985 49.7672V56.4777H159.237V50.1202C159.237 48.0417 158.207 47.0322 156.449 47.0322C154.499 47.0322 153.176 48.2132 153.176 50.5642V56.4877H150.428V40.2007H153.176V46.1242C154.075 45.1552 155.459 44.6307 157.086 44.6307C159.904 44.6307 161.985 46.2352 161.985 49.7672ZM175.29 49.6157V56.4777H172.703V55.0552C172.047 56.0647 170.774 56.6297 169.016 56.6297C166.339 56.6297 164.652 55.1562 164.652 53.1177C164.652 51.1702 165.965 49.6262 169.521 49.6262H172.552V49.4547C172.552 47.8502 171.582 46.9117 169.632 46.9117C168.319 46.9117 166.955 47.3457 166.076 48.0722L165.006 46.0742C166.258 45.1052 168.077 44.6312 169.966 44.6312C173.34 44.6312 175.29 46.2352 175.29 49.6157ZM172.542 52.8147V51.4522H169.713C167.844 51.4522 167.339 52.1587 167.339 53.0062C167.339 53.9952 168.178 54.6312 169.582 54.6312C170.925 54.6312 172.087 54.0157 172.542 52.8147ZM201.131 41.1187L196.039 56.4677H193.009L189.21 45.1047L185.351 56.4677H182.3L177.199 41.1187H180.159L183.977 52.7842L187.947 41.1192H190.584L194.474 52.8552L198.403 41.1187H201.131ZM212.92 49.6157V56.4777H210.334V55.0552C209.677 56.0647 208.404 56.6297 206.647 56.6297C203.97 56.6297 202.282 55.1562 202.282 53.1177C202.282 51.1702 203.596 49.6262 207.152 49.6262H210.182V49.4547C210.182 47.8502 209.212 46.9117 207.263 46.9117C205.95 46.9117 204.586 47.3457 203.707 48.0722L202.636 46.0742C203.889 45.1052 205.707 44.6312 207.596 44.6312C210.97 44.6312 212.92 46.2352 212.92 49.6157ZM210.172 52.8147V51.4522H207.344C205.475 51.4522 204.97 52.1587 204.97 53.0062C204.97 53.9952 205.808 54.6312 207.212 54.6312C208.546 54.6312 209.717 54.0157 210.172 52.8147ZM216.011 40.2002H218.759V56.4777H216.011V40.2002ZM222.355 40.2002H225.103V56.4777H222.355V40.2002ZM239.681 51.4927H230.477C230.811 53.2082 232.235 54.2977 234.276 54.2977C235.589 54.2977 236.63 53.8842 237.458 53.0267L238.933 54.7117C237.882 55.9632 236.236 56.6192 234.215 56.6192C230.285 56.6192 227.74 54.0962 227.74 50.6147C227.74 47.1332 230.306 44.6307 233.801 44.6307C237.226 44.6307 239.731 47.0222 239.731 50.6857C239.721 50.9072 239.701 51.2307 239.681 51.4927ZM230.457 49.6762H237.115C236.892 47.9912 235.599 46.8202 233.801 46.8202C232.023 46.8302 230.72 47.9707 230.457 49.6762ZM249.409 55.8422C248.752 56.3672 247.762 56.6292 246.772 56.6292C244.206 56.6292 242.731 55.2667 242.731 52.6837V47.0422H240.802V44.8522H242.732V42.1782H245.479V44.8527H248.621V47.0427H245.479V52.6127C245.479 53.7527 246.055 54.3687 247.106 54.3687C247.681 54.3687 248.227 54.2172 248.641 53.8842L249.409 55.8422Z" fill="#050505"/>
</g>
<defs>
<clipPath id="clip0_298_13214">
<rect width="201" height="40" fill="white" transform="translate(48.3984 30)"/>
</clipPath>
</defs>
</svg>
