<svg width="300" height="100" viewBox="0 0 300 100" fill="none" xmlns="http://www.w3.org/2000/svg">
<rect width="300" height="100" fill="white"/>
<g clip-path="url(#clip0_298_13198)">
<mask id="mask0_298_13198" style="mask-type:luminance" maskUnits="userSpaceOnUse" x="33" y="30" width="234" height="40">
<path d="M33.8281 30H266.136V70H33.8281V30Z" fill="white"/>
</mask>
<g mask="url(#mask0_298_13198)">
<path d="M107.595 69.3514H101.735V63.5965L101.557 62.0104V50.7933C101.557 48.6007 101.028 47.1122 99.9747 46.3276C98.9589 45.5431 97.3004 45.1529 94.9943 45.1529C92.6881 45.1529 91.0293 45.5643 90.0135 46.387C89.0362 47.2097 88.5497 48.5796 88.5497 50.4964V51.3785H82.4562V50.7933C82.4562 48.6007 82.9851 46.6627 84.0389 44.9791C85.1347 43.2954 86.637 41.985 88.5497 41.0435C90.5047 40.0639 92.7685 39.5762 95.3497 39.5762C98.0831 39.5762 100.351 40.0851 102.145 41.1029C103.944 42.1207 105.289 43.5287 106.19 45.331C107.126 47.091 107.595 49.186 107.595 51.616V69.3556V69.3514ZM90.8939 69.9367C88.2747 69.9367 86.0701 69.271 84.2716 67.9392C82.5154 66.5694 81.6354 64.6313 81.6354 62.1249C81.6354 60.4795 82.0077 59.1097 82.7481 58.0155C83.5312 56.9171 84.6439 56.0181 86.0912 55.3141C87.5381 54.6101 89.2943 54.1181 91.3635 53.8467L102.145 52.32V56.7857L92.2985 58.253C90.6189 58.4862 89.4466 58.8382 88.7824 59.309C88.1181 59.7797 87.7877 60.5601 87.7877 61.6584C87.7877 62.7568 88.1774 63.6177 88.9601 64.1266C89.7808 64.6355 91.1097 64.89 92.9462 64.89C94.3508 64.89 95.7008 64.6737 96.9912 64.2454C98.32 63.7746 99.4116 63.0113 100.275 61.9553C101.134 60.8569 101.565 59.3302 101.565 57.3751L102.387 64.8349L101.447 64.7755C100.901 65.6746 100.14 66.5185 99.162 67.3031C98.2227 68.0876 97.0716 68.7321 95.7051 69.241C94.3381 69.7118 92.7347 69.9452 90.8981 69.9452L90.8939 69.9367Z" fill="#23322D"/>
<path d="M140.791 69.3514H134.461V52.3751C134.461 49.7924 133.974 47.9307 132.997 46.7941C132.019 45.6194 130.183 45.0342 127.487 45.0342C125.77 45.0342 124.36 45.2886 123.269 45.7975C122.177 46.2683 121.356 47.0486 120.806 48.147C120.26 49.203 119.985 50.6533 119.985 52.4939H118.872L118.343 45.6237H119.748C120.18 44.5677 120.823 43.588 121.682 42.689C122.541 41.7899 123.637 41.0435 124.965 40.4582C126.332 39.8688 127.953 39.5762 129.827 39.5762C132.366 39.5762 134.44 40.0639 136.039 41.0435C137.643 42.0231 138.832 43.3717 139.615 45.0978C140.398 46.8196 140.787 48.8001 140.787 51.0308V69.3556L140.791 69.3514ZM119.985 69.3514H113.655V40.1614H119.456V48.9146L119.985 49.2072V69.3514Z" fill="#23322D"/>
<path d="M159.803 70.0002C156.757 70.0002 154.18 69.3556 152.068 68.0622C149.957 66.7687 148.336 64.9875 147.206 62.7186C146.114 60.4455 145.564 57.8035 145.564 54.7882C145.564 51.7729 146.131 49.1309 147.265 46.8577C148.437 44.5465 150.096 42.7653 152.246 41.5142C154.395 40.2208 156.993 39.5762 160.04 39.5762C162.617 39.5762 164.885 40.0639 166.84 41.0435C168.795 42.0231 170.297 43.3929 171.351 45.1529C172.447 46.9129 172.993 48.9697 172.993 51.3192V51.8493H166.722V51.4973C166.722 49.3429 166.133 47.778 164.966 46.7984C163.832 45.7806 162.054 45.2717 159.634 45.2717C156.82 45.2717 154.81 46.0732 153.6 47.6805C152.428 49.2454 151.844 51.5948 151.844 54.7288C151.844 57.8628 152.432 60.2886 153.6 61.8959C154.81 63.4608 156.824 64.2454 159.634 64.2454C162.054 64.2454 163.836 63.7577 164.966 62.778C166.138 61.7602 166.722 60.1953 166.722 58.0791V57.7271H172.993V58.2572C172.993 60.5304 172.447 62.566 171.351 64.3641C170.259 66.1241 168.715 67.5151 166.722 68.5329C164.767 69.5125 162.465 70.0002 159.807 70.0002H159.803Z" fill="#23322D"/>
<path d="M204.945 69.3512H198.614V52.3749C198.614 49.7922 198.107 47.9305 197.091 46.7939C196.113 45.6192 194.298 45.0339 191.641 45.0339C188.983 45.0339 187.206 45.6022 185.958 46.7388C184.748 47.8372 184.143 49.7752 184.143 52.553H183.03L182.97 45.0339H184.375C184.845 44.1348 185.488 43.274 186.309 42.4512C187.168 41.5903 188.243 40.9033 189.533 40.3944C190.862 39.8473 192.385 39.5717 194.103 39.5717C196.68 39.5717 198.754 40.0806 200.315 41.0984C201.919 42.078 203.087 43.4266 203.832 45.1527C204.577 46.8745 204.945 48.8125 204.945 50.9669V69.3512ZM184.138 69.3512H177.808V30H184.138V69.3512Z" fill="#23322D"/>
<path d="M224.426 69.941C221.456 69.941 218.879 69.3133 216.691 68.0622C214.504 66.7687 212.824 64.9875 211.652 62.7186C210.479 60.4074 209.895 57.7441 209.895 54.7288C209.895 51.7136 210.484 49.0715 211.652 46.7984C212.824 44.5252 214.504 42.7653 216.691 41.5142C218.879 40.2208 221.456 39.5762 224.426 39.5762C227.397 39.5762 229.936 40.2208 232.047 41.5142C234.197 42.7653 235.839 44.5295 236.969 46.7984C238.14 49.0715 238.724 51.7136 238.724 54.7288C238.724 57.7441 238.136 60.4074 236.969 62.7186C235.834 64.9918 234.192 66.7729 232.047 68.0622C229.936 69.3133 227.397 69.941 224.426 69.941ZM224.426 64.3005C227.473 64.3005 229.601 63.5371 230.816 62.0104C232.026 60.4456 232.631 58.0155 232.631 54.7288C232.631 51.4421 232.026 49.0333 230.816 47.5066C229.605 45.9799 227.477 45.2165 224.426 45.2165C221.375 45.2165 219.192 45.9799 217.982 47.5066C216.772 49.0333 216.167 51.4421 216.167 54.7288C216.167 58.0155 216.772 60.4456 217.982 62.0104C219.192 63.5371 221.342 64.3005 224.426 64.3005Z" fill="#23322D"/>
<path d="M249.785 69.3514H243.455V39.9833H249.257V48.147L249.785 48.4396V69.3471V69.3514ZM249.785 50.3226H248.321V44.6271H249.553C250.141 43.2572 251.097 42.0825 252.426 41.1029C253.793 40.0851 255.553 39.5762 257.702 39.5762C259.852 39.5762 261.414 40.0257 262.624 40.929C263.876 41.8281 264.773 43.024 265.319 44.5126C265.865 46.0011 266.14 47.6635 266.14 49.5041V51.4421H259.81V50.2674C259.81 48.3081 259.475 46.9383 258.811 46.158C258.147 45.3777 256.899 44.9833 255.062 44.9833C253.226 44.9833 251.779 45.3946 250.962 46.2174C250.179 47.0019 249.79 48.3717 249.79 50.3268L249.785 50.3226Z" fill="#23322D"/>
<path fill-rule="evenodd" clip-rule="evenodd" d="M39.8537 55.916C38.2585 55.916 36.7267 55.2672 35.5969 54.1222C34.4671 52.9728 33.8281 51.4207 33.8281 49.8007V36.1153C33.8281 34.4953 34.4671 32.9389 35.5969 31.7939C36.7267 30.6489 38.2542 30 39.8537 30H53.3352C54.9305 30 56.4622 30.6489 57.592 31.7939C58.7219 32.9389 59.3566 34.4953 59.3608 36.1153V49.1518L55.764 51.2595H67.9972C69.2328 51.2595 70.4176 51.76 71.2935 52.6463C72.1695 53.5327 72.6604 54.7371 72.6604 55.9924V64.6777C72.6604 65.933 72.1652 67.1374 71.2935 68.0237C70.4176 68.91 69.2328 69.4104 67.9972 69.4104H59.437C58.2014 69.4104 57.0166 68.91 56.1407 68.0237C55.2647 67.1374 54.7739 65.933 54.7739 64.6777V58.028L58.3834 55.9118H39.8537M54.7739 51.2553V34.6565H38.415V51.2595H54.7739V51.2553ZM67.9972 55.9118H59.3608V64.6777C59.3608 64.6777 59.3693 64.7158 59.3862 64.7328C59.3989 64.7455 59.42 64.754 59.437 64.7583H67.9972C67.9972 64.7583 68.0353 64.7498 68.048 64.7328C68.0607 64.7201 68.0692 64.6989 68.0734 64.6777V55.9881C68.0734 55.9881 68.0649 55.95 68.048 55.9372C68.0353 55.9203 68.0142 55.9118 67.9972 55.9118Z" fill="#23322D"/>
</g>
</g>
<defs>
<clipPath id="clip0_298_13198">
<rect width="232.308" height="40" fill="white" transform="translate(33.8281 30)"/>
</clipPath>
</defs>
</svg>
