<svg width="300" height="100" viewBox="0 0 300 100" fill="none" xmlns="http://www.w3.org/2000/svg">
<rect width="300" height="100" fill="white"/>
<g clip-path="url(#clip0_298_13194)">
<path fill-rule="evenodd" clip-rule="evenodd" d="M101.447 30.1018C101.257 30.2111 100.77 30.6898 100.419 31.1127C99.9105 31.7257 99.745 31.9214 99.5973 32.0849C99.512 32.1791 99.2642 32.4749 99.0463 32.7418C98.8283 33.0088 98.5559 33.3302 98.4411 33.4556C98.3259 33.5814 98.1303 33.8127 98.0059 33.9697C97.8811 34.127 97.7115 34.3274 97.6286 34.4155C97.546 34.5032 97.4781 34.5868 97.4781 34.6009C97.4781 34.6149 97.4329 34.6722 97.3781 34.728C97.3232 34.7839 97.1625 34.9682 97.021 35.1375C96.8798 35.3068 96.7191 35.4926 96.6643 35.5501C96.6091 35.6077 96.5642 35.6649 96.5642 35.6776C96.5642 35.6903 96.4878 35.7869 96.3946 35.8925L96.2246 36.0844L95.3806 36.0107C94.9166 35.9703 94.0804 35.8993 93.5228 35.8531C92.9653 35.8068 92.0527 35.7307 91.4952 35.6841C88.4895 35.4333 88.5176 35.4336 88.0645 35.6666C87.8709 35.7664 87.766 35.8712 87.6663 36.0648C87.4333 36.5179 87.433 36.4898 87.6838 39.4955C87.7304 40.053 87.8065 40.9656 87.8531 41.5232C87.8994 42.0807 87.971 42.9165 88.0121 43.3809C88.0858 44.2081 88.0851 44.2259 87.9706 44.3048C87.9066 44.3486 87.7616 44.4703 87.6485 44.5744C87.4364 44.7708 87.3819 44.8171 86.8538 45.2495C86.6814 45.3907 86.4378 45.6001 86.312 45.7149C86.1866 45.8297 85.9553 46.0257 85.798 46.1501C85.641 46.2745 85.4406 46.4441 85.3525 46.5271C85.2644 46.61 85.1681 46.6779 85.1383 46.6779C85.1085 46.6779 85.0838 46.6971 85.0838 46.7207C85.0835 46.744 84.8782 46.9304 84.6274 47.1347C84.3765 47.3389 84.1709 47.5253 84.1709 47.5486C84.1706 47.5723 84.1339 47.5915 84.0894 47.5915C84.0448 47.5915 83.9999 47.6148 83.9896 47.6436C83.979 47.672 83.7782 47.856 83.5435 48.052C83.3084 48.2484 83.0867 48.4372 83.05 48.4715C83.0137 48.5058 82.8125 48.6857 82.6031 48.8711C81.7639 49.6133 81.7567 50.3785 82.5822 51.1198C82.7128 51.237 82.8598 51.3734 82.9095 51.423C82.9588 51.4727 83.2179 51.6907 83.4849 51.9076C83.7518 52.1242 83.9831 52.3164 83.9989 52.3346C84.0147 52.3528 84.2974 52.594 84.6274 52.8706C84.957 53.1471 85.2356 53.3959 85.2459 53.4236C85.2566 53.4517 85.2994 53.4744 85.3412 53.4744C85.383 53.4744 85.4258 53.497 85.4365 53.5251C85.4467 53.5528 85.6482 53.7348 85.8837 53.9295C86.1194 54.1241 86.4638 54.4161 86.6492 54.5785C86.8346 54.7409 87.0553 54.925 87.1396 54.988C87.2239 55.0507 87.4724 55.2625 87.6913 55.4585L88.0895 55.8149L88.0176 56.4294C87.9778 56.7676 87.9449 57.1853 87.9442 57.358C87.9436 57.5308 87.9042 58.0705 87.8565 58.5574C87.8089 59.0444 87.7321 59.9056 87.6855 60.471C87.6393 61.0364 87.5745 61.8202 87.5416 62.2129C87.3726 64.2361 87.7239 64.6449 89.5024 64.4959C89.8839 64.464 90.6587 64.3996 91.2241 64.3526C92.1764 64.2735 93.9855 64.1172 95.5214 63.9815C96.1471 63.9263 96.3928 63.963 96.3928 64.1114C96.3928 64.1354 96.4377 64.2015 96.4929 64.2584C96.5477 64.3153 96.7085 64.4996 96.8496 64.6675C96.9912 64.8358 97.1581 65.0311 97.2211 65.1014C97.376 65.2744 97.6885 65.6497 98.0508 66.0966C98.2163 66.3008 98.3818 66.4937 98.4192 66.5249C98.4565 66.5564 98.6631 66.8008 98.879 67.0677C99.2443 67.5197 99.4332 67.7414 99.6511 67.9731C99.6994 68.0249 99.8536 68.2085 99.9935 68.3812C100.285 68.7418 100.247 68.6975 100.734 69.2421C101.532 70.1358 102.55 70.2818 103.022 69.5704C103.06 69.5131 103.446 69.0587 103.615 68.8723C103.679 68.801 103.848 68.6054 103.989 68.4371C104.13 68.2692 104.291 68.0848 104.346 68.0279C104.401 67.9711 104.446 67.9114 104.446 67.8957C104.446 67.8799 104.491 67.8206 104.546 67.7637C104.601 67.7068 104.762 67.5221 104.903 67.3539C105.044 67.1853 105.205 67.0078 105.26 66.9591C105.315 66.9108 105.36 66.8381 105.36 66.798C105.36 66.7576 105.379 66.7247 105.403 66.7247C105.426 66.7247 105.574 66.565 105.731 66.37C105.888 66.1754 106.081 65.9482 106.159 65.8652C106.306 65.7107 106.346 65.6637 106.788 65.1247C106.929 64.9527 107.116 64.7344 107.204 64.6401C107.291 64.5459 107.459 64.3444 107.575 64.1922L107.787 63.9154L108.073 63.9493C108.23 63.9678 108.577 63.9973 108.844 64.0144C109.111 64.0312 109.856 64.0942 110.5 64.1542C111.144 64.2142 112.172 64.304 112.785 64.3536C113.397 64.4037 114.195 64.4702 114.557 64.5017C116.442 64.6655 116.696 64.2203 116.416 61.2421C116.368 60.7236 116.289 59.824 116.241 59.2428C116.193 58.6616 116.1 57.65 116.035 56.9944C115.97 56.3389 115.938 55.7848 115.964 55.7628C115.99 55.7409 116.153 55.609 116.325 55.4698C116.498 55.3304 116.691 55.1635 116.754 55.0987C116.817 55.0339 117.048 54.8383 117.268 54.6635C117.488 54.4887 117.733 54.2845 117.814 54.2098C117.893 54.1351 118.099 53.9586 118.27 53.8174C118.442 53.6762 118.611 53.5347 118.646 53.5032C118.681 53.4716 118.833 53.3431 118.983 53.2174C119.134 53.0916 119.285 52.9631 119.319 52.9316C119.353 52.9 119.523 52.7599 119.696 52.6201C119.868 52.4802 120.051 52.326 120.101 52.2777C120.26 52.1249 120.513 51.9121 120.838 51.6578C122.463 50.3857 122.475 49.71 120.895 48.3981C120.66 48.2025 120.403 47.9849 120.324 47.9139C120.245 47.8433 119.964 47.6069 119.698 47.3886C119.432 47.1703 119.15 46.9308 119.07 46.8561C118.99 46.7814 118.758 46.5853 118.553 46.4208C118.349 46.256 118.116 46.06 118.037 45.9853C117.91 45.8671 117.635 45.6351 117.131 45.2214C117.054 45.1584 116.944 45.0621 116.887 45.0073C116.83 44.9521 116.771 44.9072 116.758 44.9072C116.744 44.9072 116.622 44.8075 116.487 44.6858C116.351 44.5638 116.167 44.4024 116.077 44.3267L115.914 44.1889L116.032 43.0488C116.096 42.4217 116.19 41.3947 116.24 40.7665C116.289 40.138 116.369 39.2128 116.418 38.7104C116.709 35.6858 116.472 35.3363 114.27 35.5381C113.94 35.5683 113.169 35.6331 112.556 35.6821C111.451 35.7701 110.28 35.8695 108.655 36.0131L107.809 36.0878L107.543 35.7712C107.396 35.5971 107.22 35.3904 107.151 35.312C107.082 35.2335 106.918 35.0406 106.788 34.8836C106.475 34.5077 106.088 34.0522 106.017 33.9745C105.985 33.9405 105.843 33.7716 105.702 33.5996C105.561 33.4272 105.394 33.2236 105.331 33.1469C105.268 33.0704 105.178 32.9656 105.131 32.9142C105.084 32.8624 104.905 32.6548 104.733 32.4526C104.561 32.2504 104.364 32.0208 104.294 31.9423C104.225 31.8638 104.009 31.6068 103.815 31.3711C103.621 31.1356 103.439 30.9341 103.411 30.9235C103.384 30.9132 103.361 30.8827 103.361 30.856C103.361 30.7775 102.821 30.246 102.611 30.1182C102.359 29.9643 101.703 29.9551 101.447 30.1018ZM102.396 35.4689C102.589 35.7126 102.77 35.9202 102.797 35.9309C102.824 35.9411 102.847 35.9733 102.847 36.0021C102.847 36.0309 102.892 36.1015 102.947 36.1591C103.188 36.4113 103.418 36.6978 103.418 36.7454C103.418 36.7739 103.439 36.7968 103.464 36.7968C103.49 36.7968 103.636 36.9682 103.789 37.1772C104.354 37.9465 104.492 38.0363 104.767 37.8167C104.803 37.7882 105.073 37.6409 105.367 37.4891C105.661 37.3372 106.044 37.1292 106.216 37.0268C106.389 36.9246 106.581 36.8177 106.644 36.7896C106.707 36.7615 106.965 36.6245 107.216 36.4853C107.467 36.3462 107.688 36.2307 107.707 36.229C107.739 36.2259 107.798 36.3983 107.968 36.997C108.138 37.5939 108.234 37.9208 108.33 38.2248C108.384 38.3975 108.467 38.6676 108.514 38.8245C108.561 38.9815 108.645 39.2566 108.701 39.4362L108.804 39.7621L109.266 39.7319C109.521 39.7151 109.998 39.6641 110.327 39.6185C110.655 39.5726 111.234 39.5106 111.612 39.4801C111.99 39.4499 112.372 39.4095 112.461 39.3906L112.622 39.356L112.588 39.8327C112.556 40.2658 112.521 40.6147 112.33 42.4227C112.24 43.2712 112.219 43.2071 112.628 43.3288C112.824 43.387 113.126 43.4802 113.299 43.5351C113.675 43.655 114.031 43.7602 114.869 43.9994C115.215 44.0978 115.568 44.2037 115.654 44.2352L115.809 44.2921L115.573 44.728C115.443 44.9679 115.252 45.3184 115.149 45.5069C115.046 45.6954 114.896 45.9781 114.814 46.135C114.732 46.2923 114.607 46.5236 114.536 46.6491C114.465 46.7748 114.323 47.0312 114.219 47.219L114.031 47.5603L114.193 47.696C114.282 47.7707 114.41 47.8776 114.477 47.9338C114.544 47.9897 114.774 48.1733 114.989 48.3419C115.203 48.5102 115.444 48.709 115.524 48.783C115.604 48.857 115.778 48.9961 115.912 49.0924C116.045 49.1887 116.155 49.2884 116.155 49.3148C116.155 49.3409 116.193 49.3621 116.24 49.3621C116.287 49.3621 116.326 49.3827 116.326 49.408C116.326 49.4334 116.479 49.5681 116.666 49.7079C117.077 50.0143 117.072 49.9776 116.739 50.2312C116.59 50.3453 116.403 50.4937 116.325 50.5608C116.006 50.8347 115.937 50.8912 115.526 51.2191C115.291 51.4073 115.072 51.5892 115.041 51.6235C115.009 51.6581 114.822 51.8082 114.623 51.9576C113.998 52.4299 114.01 52.4014 114.25 52.8411C114.364 53.0481 114.524 53.3459 114.606 53.5028C114.688 53.6601 114.769 53.8013 114.787 53.8171C114.804 53.8328 114.87 53.9483 114.933 54.0741C115.15 54.5093 115.656 55.4452 115.733 55.5576C115.849 55.7234 115.833 55.7498 115.598 55.7926C115.48 55.8139 115.293 55.8636 115.183 55.9033C115.074 55.9427 114.778 56.0308 114.527 56.099C114.275 56.1672 113.98 56.2573 113.87 56.2991C113.76 56.3409 113.503 56.4194 113.299 56.4736C113.094 56.5277 112.831 56.6076 112.712 56.6507C112.594 56.6943 112.446 56.7299 112.384 56.7299C112.25 56.7299 112.246 56.7899 112.326 57.5472C112.472 58.9296 112.556 59.7675 112.589 60.1797L112.625 60.631L112.319 60.592C112.151 60.5704 111.731 60.5293 111.385 60.5008C111.04 60.472 110.564 60.423 110.329 60.3918C110.093 60.3607 109.653 60.3185 109.351 60.2983L108.801 60.2613L108.731 60.4518C108.692 60.5567 108.639 60.7321 108.615 60.8421C108.59 60.9521 108.543 61.119 108.51 61.2133C108.477 61.3075 108.358 61.693 108.245 62.07C108.133 62.4469 108.005 62.8712 107.963 63.0124C107.92 63.1539 107.856 63.3801 107.819 63.5151C107.742 63.7999 107.709 63.7995 107.187 63.5072C107.015 63.4102 106.783 63.2834 106.673 63.2248C106.563 63.1666 106.294 63.0196 106.074 62.8989C105.854 62.778 105.481 62.5806 105.245 62.4603C105.01 62.34 104.804 62.2239 104.788 62.2023C104.583 61.9319 104.438 62.0148 103.871 62.7269C103.608 63.0566 103.378 63.3393 103.36 63.3551C103.342 63.3708 103.174 63.5757 102.986 63.8101C102.8 64.0445 102.608 64.2765 102.561 64.3259C102.514 64.3752 102.385 64.536 102.276 64.6833C102.004 65.0472 102.02 65.0538 101.505 64.3831C101.347 64.1792 101.181 63.9729 101.133 63.9253C101.086 63.8777 100.906 63.659 100.734 63.4397C100.561 63.2204 100.381 62.9976 100.334 62.9445C100.287 62.8914 100.12 62.6813 99.9626 62.4774C99.8053 62.2735 99.6436 62.0926 99.6028 62.0751C99.5394 62.0477 98.989 62.2896 98.9058 62.3815C98.8904 62.3986 98.7358 62.487 98.5631 62.5778C98.3904 62.6687 98.0562 62.8469 97.8208 62.974C97.5851 63.1015 97.2897 63.257 97.1639 63.3198C97.0381 63.3828 96.9226 63.4486 96.9069 63.4661C96.8911 63.4836 96.7438 63.5668 96.5796 63.6515L96.2811 63.8047L96.2157 63.5658C96.1794 63.4342 96.118 63.2238 96.0789 63.098C96.0001 62.8455 95.9093 62.5357 95.6513 61.6416C95.556 61.312 95.4419 60.9264 95.3977 60.7849C95.3535 60.6437 95.301 60.4549 95.2815 60.3658C95.2575 60.2565 95.2191 60.2136 95.1647 60.2346C95.1198 60.2517 94.8833 60.2808 94.6386 60.299C94.394 60.3175 93.8597 60.3685 93.4516 60.4131C92.0808 60.5622 91.4153 60.6242 91.3961 60.6047C91.3855 60.594 91.4143 60.251 91.4599 59.8425C91.7954 56.8505 91.8032 56.7299 91.6648 56.7299C91.6062 56.7299 91.4448 56.6943 91.3057 56.6511C91.1665 56.6076 90.8985 56.5263 90.7101 56.4701C90.5216 56.4143 90.2259 56.3238 90.0531 56.2693C89.8804 56.2152 89.5847 56.1257 89.3962 56.0706C89.2077 56.0157 88.9569 55.9359 88.8383 55.8934C88.7197 55.8509 88.5768 55.8159 88.5206 55.8159C88.313 55.8159 88.2184 55.6895 88.3072 55.5305C88.351 55.452 88.4552 55.2591 88.5388 55.1021C88.6221 54.9452 88.7489 54.7139 88.8205 54.5881C88.8918 54.4623 89.0665 54.1412 89.2088 53.8743C89.6947 52.9614 89.7673 52.8294 89.8201 52.766C90.0048 52.5436 89.9572 52.4083 89.5867 52.1036C89.3876 51.9402 89.1608 51.7513 89.0823 51.6842C89.0038 51.6167 88.7595 51.422 88.5395 51.2514C88.3198 51.0804 88.1063 50.9073 88.0652 50.8662C88.0241 50.8254 87.8315 50.6708 87.6369 50.5231C87.0772 50.0979 86.9823 49.9927 87.0872 49.9135C87.4237 49.6592 87.9216 49.2703 87.9734 49.2213C88.0073 49.1887 88.1464 49.0722 88.2825 48.9622C88.4185 48.8522 88.5577 48.7364 88.5919 48.7045C88.6258 48.6726 88.7694 48.5572 88.911 48.4478C89.0522 48.3389 89.2194 48.2018 89.2821 48.1439C89.3448 48.0856 89.5052 47.9595 89.6381 47.8629C89.9582 47.6312 89.975 47.5452 89.7725 47.183C89.6786 47.0151 89.5367 46.7491 89.4569 46.5922C89.3774 46.4349 89.1827 46.0751 89.0244 45.7924C88.8664 45.5096 88.6975 45.2012 88.6495 45.107C88.6012 45.0127 88.4877 44.7958 88.3973 44.6245C88.2102 44.2705 88.2143 44.2444 88.4689 44.1941C88.5707 44.1738 88.7694 44.1207 88.911 44.0758C89.0522 44.0309 89.4377 43.9165 89.7677 43.8216C90.0973 43.727 90.5216 43.6005 90.7101 43.5409C90.8985 43.4813 91.2138 43.385 91.4109 43.3274L91.7693 43.2222L91.7374 42.8226C91.6987 42.3415 91.5627 41.0228 91.4544 40.0815C91.4109 39.7049 91.3797 39.3927 91.3855 39.3879C91.4002 39.3745 92.3546 39.4705 93.4516 39.5949C93.9855 39.6559 94.6081 39.7193 94.8353 39.7364L95.2483 39.7676L95.2832 39.6103C95.3028 39.5236 95.3514 39.3498 95.3915 39.2244C95.4316 39.0987 95.5053 38.8543 95.5553 38.6816C95.7246 38.096 95.9981 37.1693 96.0779 36.9113C96.1214 36.7698 96.1735 36.571 96.1937 36.4692C96.2451 36.2095 96.289 36.2016 96.632 36.3914C96.7989 36.484 97.1283 36.6567 97.3637 36.7756C97.5994 36.8945 97.8277 37.0185 97.8712 37.0514C97.9695 37.1258 98.8324 37.596 99.2354 37.7951C99.5881 37.9692 99.6114 37.9609 99.9417 37.5394C100.077 37.3667 100.221 37.2046 100.261 37.1796C100.301 37.1546 100.334 37.0967 100.334 37.0511C100.334 37.0055 100.354 36.9682 100.379 36.9682C100.404 36.9682 100.518 36.8462 100.632 36.6971C100.745 36.5477 100.905 36.3486 100.987 36.2544C101.068 36.1601 101.321 35.8469 101.548 35.5584C102.048 34.9244 101.971 34.9326 102.396 35.4689ZM176.837 38.9246C176.728 39.0493 176.724 39.1638 176.709 42.7805L176.693 46.5082L176.395 46.2848C176.079 46.0487 175.356 45.6854 175.068 45.619C174.974 45.597 174.781 45.546 174.64 45.5052C174.028 45.3294 173.066 45.2351 172.175 45.2639C171.203 45.2955 170.702 45.3825 169.871 45.6642C169.029 45.9493 167.85 46.7598 167.434 47.3396C167.334 47.4784 167.231 47.5915 167.205 47.5915C167.179 47.5915 167.158 47.6302 167.158 47.6771C167.158 47.7244 167.138 47.7631 167.115 47.7631C167.075 47.7635 166.966 47.9263 166.771 48.2768C166.653 48.49 166.263 49.4269 166.225 49.5907C166.207 49.6692 166.14 49.9262 166.075 50.1616C165.631 51.8 165.677 55.1785 166.164 56.589C166.208 56.7158 166.245 56.857 166.246 56.9033C166.247 56.9492 166.298 57.0897 166.358 57.2155C166.419 57.3409 166.469 57.4626 166.47 57.4855C166.477 57.6226 167.046 58.6709 167.115 58.6716C167.138 58.6716 167.158 58.7014 167.158 58.7374C167.158 59.1695 169.317 60.8421 169.875 60.8421C169.924 60.8421 170.01 60.8665 170.065 60.8963C170.612 61.1893 172.793 61.2856 173.983 61.0697C175.14 60.8596 175.669 60.655 176.304 60.1732L176.683 59.885L176.706 60.2352C176.746 60.8521 176.721 60.8421 178.25 60.8421C179.475 60.8421 179.558 60.8353 179.666 60.728C179.779 60.6146 179.78 60.5375 179.78 49.7048V38.7961H178.365C176.969 38.7961 176.948 38.7978 176.837 38.9246ZM197.941 38.9688C197.754 39.1552 197.795 57.8481 197.983 58.4783C198.539 60.3415 199.662 61.0135 202.221 61.0135C203.555 61.0135 203.449 61.1314 203.469 59.6225C203.489 58.1078 203.538 58.1956 202.653 58.1555C201.863 58.1195 201.55 58.0359 201.289 57.7905C200.884 57.4101 200.912 58.1404 200.912 47.9904V38.8529H199.484C198.126 38.8529 198.051 38.8588 197.941 38.9688ZM138.904 39.6418C138.648 39.746 138.258 40.0599 138.258 40.1617C138.258 40.1959 138.235 40.2237 138.208 40.2237C138.144 40.2237 137.861 40.8097 137.601 41.4803C137.546 41.6215 137.48 41.7887 137.454 41.8515C137.429 41.9145 137.352 42.1071 137.284 42.2798C137.216 42.4525 137.139 42.6455 137.113 42.7082C137.086 42.7712 137.009 42.9638 136.941 43.1365C136.873 43.3092 136.727 43.6691 136.617 43.9364C136.506 44.2033 136.395 44.473 136.369 44.5361C136.343 44.5988 136.267 44.7917 136.199 44.9644C136.131 45.1371 136.054 45.3297 136.027 45.3928C136.001 45.4555 135.925 45.6484 135.858 45.8211C135.791 45.9939 135.703 46.2121 135.663 46.3064C135.597 46.4599 135.409 46.9123 135.283 47.2203C135.258 47.283 135.181 47.476 135.113 47.6487C135.044 47.8214 134.953 48.0438 134.91 48.1428C134.866 48.2419 134.831 48.3488 134.831 48.381C134.831 48.4129 134.793 48.5119 134.747 48.6007C134.663 48.7611 134.617 48.8707 134.378 49.4762C134.309 49.649 134.231 49.8419 134.203 49.9046C134.134 50.0588 133.76 50.9782 133.622 51.3326C133.561 51.4895 133.49 51.6694 133.464 51.7325C133.438 51.7952 133.373 51.9621 133.319 52.1036C133.265 52.2448 133.188 52.4377 133.147 52.532C133.008 52.8548 132.671 53.6742 132.549 53.9884C132.481 54.1611 132.405 54.354 132.379 54.4168C132.353 54.4795 132.287 54.6467 132.232 54.7879C132.177 54.9294 132.099 55.122 132.058 55.2162C131.941 55.4887 131.597 56.3296 131.463 56.6727C131.396 56.8454 131.319 57.0383 131.293 57.101C131.268 57.1641 131.202 57.331 131.147 57.4725C131.092 57.6137 131.014 57.8066 130.974 57.9009C130.934 57.9951 130.857 58.1877 130.803 58.3292C130.749 58.4704 130.659 58.689 130.604 58.8145C130.548 58.9402 130.42 59.2486 130.319 59.4998C130.218 59.7514 130.096 60.0522 130.048 60.1684C130 60.2849 129.958 60.4779 129.954 60.5968L129.948 60.8137L131.347 60.8298C132.117 60.8384 132.8 60.8325 132.865 60.8168C133.004 60.7829 133.106 60.5855 133.548 59.4998C133.663 59.2171 133.779 58.9344 133.806 58.8717C133.832 58.809 133.909 58.616 133.977 58.4433C134.045 58.2706 134.122 58.0777 134.149 58.015C134.176 57.9523 134.264 57.7336 134.345 57.5294C134.427 57.3251 134.516 57.1068 134.544 57.0441C134.769 56.5407 135.002 55.9541 135.002 55.8913C135.002 55.8286 135.772 55.818 139.404 55.83L143.805 55.8447L143.882 55.9873C143.924 56.0661 144.053 56.3615 144.169 56.6442C144.285 56.9269 144.413 57.2354 144.453 57.3296C144.493 57.4238 144.571 57.6164 144.626 57.758C144.787 58.174 144.81 58.2309 144.927 58.5006C144.989 58.6417 145.097 58.8988 145.167 59.0715C145.237 59.2442 145.327 59.4628 145.367 59.5571C145.407 59.6513 145.525 59.934 145.628 60.1852C145.925 60.9055 145.756 60.8462 147.477 60.8288C149.27 60.8106 149.204 60.8915 148.568 59.4998C148.524 59.4056 148.398 59.0944 148.286 58.8083C148.174 58.5218 148.029 58.162 147.964 58.0085C147.813 57.6514 147.774 57.5571 147.653 57.2439C147.598 57.1024 147.52 56.9098 147.48 56.8156C147.439 56.7213 147.363 56.5284 147.309 56.3872C147.255 56.2457 147.19 56.0788 147.163 56.0161C147.137 55.953 147.048 55.7347 146.965 55.5305C146.882 55.3262 146.782 55.0823 146.741 54.988C146.702 54.8938 146.624 54.7008 146.568 54.5597C146.513 54.4181 146.435 54.2255 146.395 54.1313C146.355 54.0371 146.277 53.8441 146.224 53.7029C146.17 53.5614 146.105 53.3945 146.079 53.3315C146.053 53.2688 145.938 52.986 145.824 52.7033C145.562 52.058 145.402 51.6667 145.309 51.4467C145.269 51.3525 145.192 51.1599 145.138 51.0183C145.084 50.8771 145.005 50.678 144.962 50.5759C144.918 50.4738 144.848 50.3066 144.805 50.2044C144.761 50.1023 144.682 49.9032 144.627 49.762C144.512 49.4622 144.339 49.0403 144.183 48.6768C144.06 48.3886 144.025 48.3015 143.885 47.9341C143.831 47.793 143.754 47.6 143.714 47.5058C143.674 47.4116 143.602 47.2316 143.555 47.1062C143.466 46.8704 143.103 45.9812 142.972 45.6782C142.932 45.584 142.854 45.3914 142.8 45.2499C142.746 45.1084 142.669 44.9158 142.629 44.8215C142.589 44.7273 142.51 44.5344 142.455 44.3932C142.4 44.2516 142.322 44.059 142.283 43.9648C142.244 43.8706 142.143 43.6153 142.057 43.3977C141.971 43.1801 141.881 42.9614 141.856 42.9121C141.831 42.8627 141.766 42.7068 141.712 42.5656C141.658 42.4241 141.58 42.2315 141.54 42.1373C141.5 42.043 141.423 41.8501 141.369 41.7089C141.315 41.5674 141.25 41.4005 141.223 41.3374C141.197 41.2747 141.108 41.0568 141.024 40.8532C140.581 39.7724 139.751 39.2978 138.904 39.6418ZM139.591 45.3499C139.649 45.499 139.731 45.6981 139.773 45.7924C139.816 45.8866 139.969 46.2594 140.115 46.6206C140.261 46.9818 140.483 47.5216 140.608 47.82C140.897 48.5082 140.891 48.4934 141.14 49.1051C141.435 49.8316 141.782 50.6719 141.948 51.0612C142.136 51.5008 142.19 51.6324 142.283 51.875C142.337 52.0166 142.408 52.1818 142.44 52.2424C142.472 52.3031 142.518 52.4189 142.542 52.4994C142.567 52.5803 142.605 52.6913 142.627 52.7462C142.666 52.8407 142.492 52.8462 139.463 52.8462C136.022 52.8462 136.157 52.8579 136.314 52.5741C136.344 52.5196 136.463 52.2434 136.577 51.9607C136.692 51.678 136.909 51.1513 137.059 50.7901C137.21 50.4286 137.427 49.9019 137.542 49.6191C137.656 49.3364 137.771 49.0537 137.797 48.991C137.823 48.9279 137.889 48.7611 137.944 48.6195C137.999 48.4783 138.097 48.247 138.161 48.1055C138.225 47.9643 138.297 47.7971 138.322 47.7344C138.392 47.5521 138.776 46.61 138.863 46.4065C139.035 46.0052 139.104 45.8396 139.2 45.5926C139.436 44.9843 139.446 44.9778 139.591 45.3499ZM210.308 45.2269C209.572 45.2835 208.297 45.597 207.623 45.8876C207.129 46.1004 206.558 46.3859 206.509 46.4438C206.494 46.4627 206.413 46.513 206.331 46.5555C206.095 46.6768 205.782 46.9784 205.738 47.1261C205.699 47.2577 205.85 47.7621 205.929 47.7635C205.95 47.7638 206.018 47.8731 206.08 48.0065C206.143 48.1394 206.21 48.2614 206.229 48.2768C206.249 48.2926 206.372 48.503 206.504 48.7443C206.848 49.3731 206.989 49.3926 207.726 48.9146C208.114 48.6637 208.248 48.5925 208.737 48.3814C209.488 48.0561 210.168 47.9379 211.279 47.9386C211.781 47.9389 212.295 47.9612 212.421 47.988C212.547 48.015 212.784 48.0644 212.948 48.098C214.208 48.3563 215.015 49.4176 214.952 50.7329L214.934 51.104L212.249 51.1376C208.968 51.1787 208.524 51.2469 207.147 51.9258C204.316 53.3205 203.889 57.8556 206.388 59.9947C206.565 60.1461 206.727 60.2702 206.749 60.2705C206.771 60.2709 206.904 60.348 207.043 60.4422C207.183 60.5365 207.316 60.6136 207.34 60.6136C207.363 60.6136 207.488 60.6619 207.617 60.7205C208.976 61.3397 211.602 61.3592 213.049 60.7609C213.601 60.5327 214.391 60.0714 214.391 59.9775C214.391 59.9505 214.419 59.9282 214.453 59.9282C214.486 59.9282 214.606 59.8254 214.719 59.7C214.942 59.4512 215.02 59.4176 215.02 59.5697C215.02 60.6876 215.659 61.0162 217.833 61.0145L219.075 61.0135V59.8497C219.075 58.5143 219.095 58.5677 218.561 58.5047C217.945 58.432 217.995 58.8162 217.971 53.96C217.948 49.4053 217.924 49.0914 217.517 48.0486C216.675 45.8893 214.216 44.9267 210.308 45.2269ZM188.062 45.277C188.014 45.2886 187.77 45.327 187.519 45.3626C186.572 45.497 185.328 45.9322 184.973 46.2536C184.923 46.2985 184.864 46.3352 184.84 46.3352C184.779 46.3352 184.116 46.8502 183.96 47.0199C183.887 47.0987 183.718 47.2789 183.585 47.4201C183.24 47.7854 182.965 48.2241 182.547 49.0767C181.61 50.9834 181.52 54.9606 182.366 57.0441C182.657 57.7583 183.163 58.6719 183.269 58.6719C183.298 58.6719 183.321 58.7007 183.321 58.7363C183.321 58.8203 184.258 59.7568 184.342 59.7568C184.377 59.7568 184.406 59.7795 184.406 59.8069C184.406 59.9714 185.864 60.6814 186.691 60.9199C187.979 61.2911 190.011 61.289 191.374 60.9155C192.135 60.7068 193.087 60.3298 193.249 60.1729C193.29 60.1324 193.348 60.0995 193.376 60.0995C193.525 60.0995 194.389 59.4327 194.901 58.9224C195.694 58.1315 195.698 58.0725 194.987 57.4348C194.713 57.1884 194.421 56.9228 194.339 56.844C193.702 56.2333 193.6 56.2344 192.973 56.8574C191.534 58.2877 189.215 58.738 187.235 57.9725C186.985 57.8755 186.754 57.7754 186.721 57.7494C186.689 57.7237 186.582 57.638 186.483 57.5589C186.384 57.48 186.287 57.4153 186.268 57.4153C186.122 57.4153 185.481 56.5692 185.292 56.1271C185.134 55.7591 184.916 54.9956 184.946 54.9174C184.968 54.8598 186.027 54.8451 190.155 54.8451C194.009 54.8451 195.383 54.8276 195.523 54.7773C195.778 54.6851 195.79 54.6021 195.746 53.142C195.698 51.5539 195.594 50.8045 195.273 49.7333C195.131 49.2597 194.816 48.5709 194.59 48.2378C194.518 48.1309 194.459 48.0188 194.459 47.989C194.459 47.9588 194.435 47.9341 194.405 47.9341C194.376 47.9341 194.336 47.8841 194.317 47.8228C194.131 47.2392 192.404 46.0058 191.241 45.6262C190.449 45.3678 188.548 45.1591 188.062 45.277ZM157.077 45.3784C155.872 45.5415 154.651 46.1635 153.94 46.9763L153.679 47.2755V46.5497V45.8239L153.504 45.7338C153.224 45.5888 150.941 45.6334 150.772 45.7869L150.651 45.8958V53.2746C150.651 60.3504 150.656 60.6571 150.756 60.7476C150.909 60.886 153.451 60.8905 153.589 60.7523C153.669 60.6725 153.679 60.1852 153.679 56.2505C153.679 51.0512 153.679 51.0423 154.183 49.9903C155.286 47.6857 159.201 47.5592 160.301 49.7929C160.797 50.8 160.814 51.0156 160.816 56.2176C160.818 60.079 160.828 60.6029 160.907 60.7153C160.994 60.8404 161.014 60.8421 162.349 60.8404L163.702 60.8387L163.804 60.6982C163.938 60.5149 163.926 50.787 163.791 50.0759C163.606 49.0955 163.284 48.2552 162.836 47.5836C162.582 47.2022 161.946 46.5065 161.852 46.5065C161.824 46.5065 161.786 46.4678 161.768 46.4208C161.75 46.3736 161.696 46.3352 161.648 46.3352C161.6 46.3352 161.561 46.3112 161.561 46.2817C161.561 46.2526 161.509 46.2121 161.446 46.1923C161.384 46.1724 161.3 46.1258 161.26 46.0884C161.128 45.9661 160.675 45.7656 160.018 45.5401C159.427 45.3369 157.973 45.2571 157.077 45.3784ZM174.011 48.0644C174.216 48.1387 174.46 48.2405 174.554 48.2905C174.648 48.3409 174.807 48.4245 174.907 48.4766C175.5 48.7868 176.274 49.8014 176.595 50.6904C176.791 51.2308 176.795 55.1152 176.601 55.7053C175.518 58.9978 171.282 59.5879 169.456 56.7001C169.417 56.6381 169.359 56.5229 169.327 56.4444C169.295 56.366 169.246 56.2501 169.218 56.1874C168.92 55.5144 168.815 54.7433 168.816 53.2458C168.819 51.0858 169.137 50.0328 170.099 48.9992C171.009 48.0212 172.75 47.6052 174.011 48.0644ZM189.632 48.0757C191.466 48.3687 192.549 49.5695 192.743 51.5238C192.833 52.4333 193.322 52.3353 188.783 52.3181L184.892 52.3034L184.91 51.8466C184.938 51.1681 185.289 50.0287 185.588 49.6483C186.613 48.344 187.981 47.8118 189.632 48.0757ZM214.872 53.6231C215.009 53.6759 215.006 55.8886 214.868 56.3015C214.651 56.9496 214.193 57.5777 213.735 57.8556C213.365 58.0801 212.864 58.2761 212.326 58.4073C211.503 58.6085 209.443 58.48 209.168 58.211C209.139 58.1815 209.08 58.1579 209.037 58.1579C208.876 58.1579 208.199 57.5986 208.104 57.3868C208.075 57.3238 208.029 57.234 208.002 57.1867C207.817 56.8735 207.766 56.6384 207.766 56.1117C207.766 54.5206 208.722 53.7643 210.879 53.6481C211.84 53.5964 214.755 53.5782 214.872 53.6231Z" fill="#345CDC"/>
</g>
<defs>
<clipPath id="clip0_298_13194">
<rect width="137.075" height="40" fill="white" transform="translate(82 30)"/>
</clipPath>
</defs>
</svg>
