<svg width="300" height="100" viewBox="0 0 300 100" fill="none" xmlns="http://www.w3.org/2000/svg">
<rect width="300" height="100" fill="white"/>
<path d="M88.1243 47.6936C88.1243 45.3598 88.5585 43.3109 89.4268 41.547C90.3224 39.7831 91.53 38.4262 93.0496 37.4764C94.5693 36.5266 96.2654 36.0518 98.1378 36.0518C99.7389 36.0518 101.136 36.3774 102.331 37.0287C103.552 37.68 104.488 38.5348 105.139 39.5931V36.3774H112.1V59.0911H105.139V55.8754C104.461 56.9338 103.511 57.7885 102.29 58.4398C101.096 59.0911 99.6982 59.4167 98.0971 59.4167C96.2518 59.4167 94.5693 58.9418 93.0496 57.992C91.53 57.0151 90.3224 55.6447 89.4268 53.8809C88.5585 52.0898 88.1243 50.0272 88.1243 47.6936ZM105.139 47.7342C105.139 45.9975 104.651 44.6271 103.674 43.623C102.724 42.6189 101.557 42.1169 100.173 42.1169C98.7891 42.1169 97.6087 42.6189 96.6317 43.623C95.6819 44.5999 95.207 45.9568 95.207 47.6936C95.207 49.4303 95.6819 50.8143 96.6317 51.8454C97.6087 52.8496 98.7891 53.3516 100.173 53.3516C101.557 53.3516 102.724 52.8496 103.674 51.8454C104.651 50.8414 105.139 49.4711 105.139 47.7342Z" fill="#012945"/>
<path d="M124.096 39.5931C124.775 38.5348 125.711 37.68 126.905 37.0287C128.099 36.3774 129.497 36.0518 131.098 36.0518C132.97 36.0518 134.666 36.5266 136.186 37.4764C137.705 38.4262 138.899 39.7831 139.768 41.547C140.663 43.3109 141.111 45.3598 141.111 47.6936C141.111 50.0272 140.663 52.0898 139.768 53.8809C138.899 55.6447 137.705 57.0151 136.186 57.992C134.666 58.9418 132.97 59.4167 131.098 59.4167C129.524 59.4167 128.126 59.0911 126.905 58.4398C125.711 57.7885 124.775 56.9472 124.096 55.9162V69.9187H117.136V36.3774H124.096V39.5931ZM134.028 47.6936C134.028 45.9568 133.54 44.5999 132.563 43.623C131.613 42.6189 130.433 42.1169 129.022 42.1169C127.638 42.1169 126.457 42.6189 125.48 43.623C124.53 44.6271 124.055 45.9975 124.055 47.7342C124.055 49.4711 124.53 50.8414 125.48 51.8454C126.457 52.8496 127.638 53.3516 129.022 53.3516C130.406 53.3516 131.586 52.8496 132.563 51.8454C133.54 50.8143 134.028 49.4303 134.028 47.6936Z" fill="#012945"/>
<path d="M143.379 47.6936C143.379 45.3598 143.813 43.3109 144.681 41.547C145.577 39.7831 146.785 38.4262 148.304 37.4764C149.824 36.5266 151.52 36.0518 153.393 36.0518C154.994 36.0518 156.391 36.3774 157.585 37.0287C158.806 37.68 159.743 38.5348 160.394 39.5931V36.3774H167.355V59.0911H160.394V55.8754C159.715 56.9338 158.766 57.7885 157.544 58.4398C156.35 59.0911 154.953 59.4167 153.352 59.4167C151.506 59.4167 149.824 58.9418 148.304 57.992C146.785 57.0151 145.577 55.6447 144.681 53.8809C143.813 52.0898 143.379 50.0272 143.379 47.6936ZM160.394 47.7342C160.394 45.9975 159.905 44.6271 158.928 43.623C157.979 42.6189 156.812 42.1169 155.428 42.1169C154.044 42.1169 152.863 42.6189 151.886 43.623C150.937 44.5999 150.462 45.9568 150.462 47.6936C150.462 49.4303 150.937 50.8143 151.886 51.8454C152.863 52.8496 154.044 53.3516 155.428 53.3516C156.812 53.3516 157.979 52.8496 158.928 51.8454C159.905 50.8414 160.394 49.4711 160.394 47.7342Z" fill="#012945"/>
<path d="M185.05 53.1883V59.0904H181.508C178.985 59.0904 177.017 58.4799 175.606 57.2588C174.195 56.0104 173.489 53.9888 173.489 51.1935V42.157H170.721V36.3768H173.489V30.8408H180.45V36.3768H185.009V42.157H180.45V51.275C180.45 51.9534 180.613 52.4419 180.938 52.7404C181.264 53.039 181.807 53.1883 182.567 53.1883H185.05Z" fill="#012945"/>
<path d="M187.543 47.6936C187.543 45.3598 187.977 43.3109 188.846 41.547C189.741 39.7831 190.949 38.4262 192.468 37.4764C193.988 36.5266 195.684 36.0518 197.556 36.0518C199.158 36.0518 200.555 36.3774 201.749 37.0287C202.97 37.68 203.907 38.5348 204.558 39.5931V36.3774H211.518V59.0911H204.558V55.8754C203.879 56.9338 202.93 57.7885 201.708 58.4398C200.514 59.0911 199.117 59.4167 197.516 59.4167C195.67 59.4167 193.988 58.9418 192.468 57.992C190.949 57.0151 189.741 55.6447 188.846 53.8809C187.977 52.0898 187.543 50.0272 187.543 47.6936ZM204.558 47.7342C204.558 45.9975 204.069 44.6271 203.092 43.623C202.143 42.6189 200.976 42.1169 199.592 42.1169C198.208 42.1169 197.027 42.6189 196.05 43.623C195.101 44.5999 194.626 45.9568 194.626 47.6936C194.626 49.4303 195.101 50.8143 196.05 51.8454C197.027 52.8496 198.208 53.3516 199.592 53.3516C200.976 53.3516 202.143 52.8496 203.092 51.8454C204.069 50.8414 204.558 49.4711 204.558 47.7342Z" fill="#012945"/>
</svg>
