<svg width="300" height="100" viewBox="0 0 300 100" fill="none" xmlns="http://www.w3.org/2000/svg">
<rect width="300" height="100" fill="white"/>
<g clip-path="url(#clip0_291_3521)">
<path d="M95.2271 44.6701V41.8252L116.615 32.0223V35.7926L95.2271 44.6701ZM72.6393 48.2348V50.2228L105.818 33.5647V30L72.6393 48.2348ZM64.7216 57.2836L83.0249 49.7087V47.4122L64.7216 55.7755V57.2836Z" fill="#FF6441"/>
<path d="M204.944 46.8294L200.523 56.9408H203.093L204.053 54.7471H209.16L210.12 56.9408H212.828L208.44 46.8294H204.944ZM204.91 52.7934L206.624 48.8859L208.338 52.7934H204.91ZM172.074 56.9408H174.027L176.735 51.251V56.9408H179.169V46.8294H176.29L173.068 54.1644L169.846 46.8294H166.864V56.9408H169.297V51.251L172.074 56.9408ZM114.833 56.9408H116.787L119.494 51.251V56.9408H121.928V46.8294H119.049L115.827 54.1644L112.605 46.8294H109.623V56.9408H112.057V51.251L114.833 56.9408ZM151.748 46.8294V48.9202H144.722V50.9767H150.583V52.999H144.722V54.8842H151.714V56.975H142.117V46.8636H151.748V46.8294ZM88.0634 46.8294L83.6418 56.9408H86.2125L87.1723 54.7471H92.2794L93.2391 56.9408H95.9469L91.5596 46.8294H88.0634ZM88.0292 52.7934L89.743 48.8859L91.4568 52.7934H88.0292ZM105.099 51.4223H100.163V48.8174H105.099V51.4223ZM97.455 46.8294V56.9408H100.094V53.5132H106.024C106.778 53.5132 107.395 53.0676 107.464 52.0736V48.3032C107.464 47.4806 106.744 46.8294 105.887 46.8294H97.455ZM217.181 46.8294H214.542V56.9408H223.625V54.8499H217.181V46.8294ZM187.704 46.8294V56.9408H190.309V49.9827L195.895 56.9408H198.775V46.8294H196.135V53.7874L190.686 46.8294H187.704ZM182.151 56.9408H184.687V46.8636H182.151V56.9408ZM129.126 46.8294V48.9887H133.205V56.9408H135.913V48.9887H139.991V46.8294H129.126ZM226.949 46.8294C226.195 46.7951 225.476 47.4806 225.476 48.2004V51.4909C225.476 52.3478 226.195 52.9647 226.915 52.9647H232.776V54.9185H228.115V54.0959H225.373V55.5012C225.373 56.2552 226.058 56.975 226.847 56.975H233.976C234.696 56.975 235.416 56.4266 235.416 55.4669V52.3135C235.381 51.3881 234.696 50.8396 233.942 50.8054H228.183V48.9202H232.708V49.5714H235.279V48.2347C235.313 47.5834 234.662 46.8294 233.805 46.8636H226.949V46.8294ZM154.147 46.8294V56.9408H156.718V53.239H159.666L161.654 56.9408H164.396L162.339 53.239H162.579C163.368 53.1704 163.95 52.5877 163.95 51.7308V48.3032C163.95 47.4806 163.231 46.8294 162.374 46.8294H154.147ZM161.654 51.2167H156.684V48.9202H161.654V51.2167Z" fill="#3C3C46"/>
<path d="M165.184 67.2577V67.8746H161.62V62.0477H162.374V67.2577H165.184ZM166.007 61.9449H166.83V62.7675H166.007V61.9449ZM166.041 63.5559H166.761V67.8746H166.041V63.5559ZM170.771 64.1386H169.229V67.9089H168.509V64.1386H167.652V63.5559H168.509V63.2131C168.509 62.4591 168.818 61.7393 170.051 61.7393C170.291 61.7393 170.566 61.7735 170.737 61.8421V62.4248C170.566 62.3905 170.326 62.3562 170.086 62.3562C169.537 62.3562 169.195 62.5962 169.195 63.2474V63.5902H170.737V64.1386H170.771ZM172.142 66.6064V64.1386H171.354V63.5559H172.142V62.5276L172.862 62.322V63.5559H174.233V64.1386H172.862V66.6064C172.862 67.292 173.171 67.3605 173.479 67.3605C173.753 67.3605 174.096 67.292 174.267 67.2234V67.8061C174.062 67.8746 173.719 67.9432 173.342 67.9432C172.519 67.9775 172.142 67.5662 172.142 66.6064ZM175.09 61.9449H175.913V62.7675H175.09V61.9449ZM175.159 63.5559H175.878V67.8746H175.159V63.5559ZM177.147 63.5559H177.764L177.832 63.9329C177.832 64.0015 177.866 64.0015 177.901 64.0015C177.935 64.0015 177.969 64.0015 178.038 63.9329C178.312 63.7273 178.723 63.4873 179.409 63.4873C180.266 63.4873 180.711 63.8644 180.711 64.7555V67.9089H179.992V64.9269C179.992 64.2757 179.683 64.1043 179.169 64.1043C178.586 64.1043 178.106 64.3785 177.866 64.5842V67.9089H177.147V63.5559ZM181.637 68.5259C181.637 68.046 181.98 67.6347 182.391 67.3262C182.048 67.1891 181.911 66.9835 181.911 66.675C181.911 66.4008 182.082 66.1609 182.322 65.9895C181.98 65.7495 181.774 65.3382 181.774 64.8926C181.774 63.8986 182.322 63.4531 183.625 63.4531C183.865 63.4531 184.07 63.4873 184.31 63.5216H185.853L185.921 63.9329L185.133 64.0357C185.304 64.2414 185.407 64.5499 185.407 64.8584C185.407 65.8524 184.859 66.298 183.625 66.298C183.316 66.298 183.008 66.2637 182.768 66.1609C182.631 66.2637 182.562 66.4008 182.562 66.5379C182.562 66.7435 182.699 66.8121 183.111 66.8806L184.79 67.2234C185.407 67.3605 185.716 67.7718 185.716 68.3545C185.716 69.2457 185.099 69.6227 183.659 69.6227C182.254 69.7255 181.637 69.3485 181.637 68.5259ZM184.962 68.4916C184.962 68.1146 184.756 67.9089 184.31 67.8061L182.836 67.4976C182.528 67.8061 182.322 68.0803 182.322 68.3888C182.322 68.9029 182.734 69.1429 183.625 69.1429C184.619 69.1429 184.962 68.9715 184.962 68.4916ZM184.687 64.9269C184.687 64.2414 184.413 64.0357 183.625 64.0357C182.802 64.0357 182.494 64.2757 182.494 64.9269C182.494 65.5782 182.802 65.8181 183.59 65.8181C184.379 65.7838 184.687 65.5439 184.687 64.9269ZM188.629 64.9612C188.629 62.8018 189.417 61.9792 191.234 61.9792C191.988 61.9792 192.537 62.1163 192.742 62.2191V62.8704C192.537 62.8018 191.988 62.6304 191.268 62.6304C189.794 62.6304 189.383 63.316 189.383 64.9269C189.383 66.9149 190.034 67.3262 190.891 67.3262C191.543 67.3262 191.988 67.0863 192.297 66.9492V65.3725H191.063V64.7555H193.016V67.8746H192.434L192.365 67.5662C192.365 67.5319 192.331 67.4633 192.297 67.4633C192.262 67.4633 192.228 67.4633 192.159 67.5319C191.988 67.6347 191.44 67.9432 190.754 67.9432C189.486 67.9775 188.629 67.2234 188.629 64.9612ZM194.216 66.9492V61.8078H194.936V66.8121C194.936 67.1891 195.073 67.3605 195.381 67.3605C195.553 67.3605 195.656 67.3605 195.827 67.3262V67.9089C195.656 67.9432 195.45 67.9775 195.21 67.9775C194.627 67.9775 194.216 67.6347 194.216 66.9492ZM196.41 65.7153C196.41 64.1043 197.061 63.4531 198.398 63.4531C199.734 63.4531 200.386 64.07 200.386 65.7153C200.386 67.3605 199.734 67.9775 198.398 67.9775C197.061 67.9775 196.41 67.3605 196.41 65.7153ZM199.632 65.7153C199.632 64.5156 199.255 64.07 198.398 64.07C197.507 64.07 197.164 64.5156 197.164 65.7153C197.164 66.9149 197.507 67.3605 198.398 67.3605C199.289 67.3605 199.632 66.9149 199.632 65.7153ZM201.483 67.669V61.8078H202.202V63.9672C202.374 63.8644 202.922 63.4873 203.608 63.4873C204.567 63.4873 205.253 63.8986 205.253 65.681C205.253 67.4291 204.636 68.0118 203.231 68.0118C202.408 67.9775 201.86 67.8061 201.483 67.669ZM204.499 65.681C204.499 64.4471 204.156 64.1043 203.436 64.1043C202.819 64.1043 202.408 64.3785 202.202 64.5156V67.2234C202.408 67.292 202.716 67.3948 203.231 67.3948C204.019 67.3605 204.499 67.0177 204.499 65.681ZM206.11 66.7778C206.11 66.0237 206.487 65.7495 207.481 65.4753L208.818 65.064V64.8584C208.818 64.4471 208.612 64.07 207.789 64.07C207.172 64.07 206.692 64.2414 206.418 64.3442V63.7273C206.761 63.5902 207.241 63.4531 207.892 63.4531C209.023 63.4531 209.537 63.9672 209.537 64.8584V67.8746H208.92L208.852 67.4976C208.852 67.4291 208.818 67.4291 208.783 67.4291C208.749 67.4291 208.715 67.4291 208.68 67.4633C208.441 67.6347 207.892 67.9432 207.309 67.9432C206.453 67.9775 206.11 67.6004 206.11 66.7778ZM208.783 66.9835V65.6124L207.515 65.9895C206.932 66.1609 206.795 66.3322 206.795 66.7435C206.795 67.1891 206.967 67.3948 207.447 67.3948C207.961 67.3948 208.441 67.1549 208.783 66.9835ZM210.737 66.9492V61.8078H211.457V66.8121C211.457 67.1891 211.594 67.3605 211.902 67.3605C212.074 67.3605 212.177 67.3605 212.348 67.3262V67.9089C212.177 67.9432 211.971 67.9775 211.731 67.9775C211.148 67.9775 210.737 67.6347 210.737 66.9492ZM216.701 62.6647H214.85V62.0477H219.272V62.6647H217.421V67.8746H216.667V62.6647H216.701ZM219.443 63.5559H220.06L220.129 64.0015C220.129 64.07 220.163 64.1043 220.197 64.1043C220.231 64.1043 220.266 64.1043 220.3 64.0357C220.574 63.7958 221.02 63.4873 221.602 63.4873C221.671 63.4873 221.774 63.4873 221.842 63.5216V64.1728C221.294 64.1386 220.677 64.31 220.197 64.687V67.9089H219.477V63.5559H219.443ZM222.425 66.7778C222.425 66.0237 222.802 65.7495 223.796 65.4753L225.133 65.064V64.8584C225.133 64.4471 224.927 64.07 224.105 64.07C223.488 64.07 223.008 64.2414 222.734 64.3442V63.7273C223.076 63.5902 223.556 63.4531 224.207 63.4531C225.339 63.4531 225.853 63.9672 225.853 64.8584V67.8746H225.236L225.167 67.4976C225.167 67.4291 225.133 67.4291 225.099 67.4291C225.064 67.4291 225.03 67.4291 224.996 67.4633C224.756 67.6347 224.207 67.9432 223.625 67.9432C222.802 67.9775 222.425 67.6004 222.425 66.7778ZM225.133 66.9835V65.6124L223.865 65.9895C223.282 66.1609 223.145 66.3322 223.145 66.7435C223.145 67.1891 223.316 67.3948 223.796 67.3948C224.31 67.3948 224.79 67.1549 225.133 66.9835ZM226.881 65.7153C226.881 64.0357 227.601 63.4531 228.766 63.4531C229.28 63.4531 229.657 63.5559 229.932 63.7273V61.8078H230.651V67.8746H230.034L229.966 67.4976C229.966 67.4633 229.932 67.4291 229.897 67.4291C229.863 67.4291 229.863 67.4291 229.829 67.4633C229.657 67.6347 229.177 67.9432 228.561 67.9432C227.635 67.9775 226.881 67.4633 226.881 65.7153ZM229.932 66.8806V64.2757C229.726 64.1728 229.349 64.07 228.903 64.07C228.012 64.07 227.635 64.4813 227.635 65.7153C227.635 66.9492 228.081 67.3605 228.732 67.3605C229.246 67.3605 229.726 67.052 229.932 66.8806ZM235.381 65.8866H232.468C232.502 66.9492 232.914 67.3262 233.805 67.3262C234.456 67.3262 234.97 67.1206 235.279 66.9835V67.6347C235.004 67.7718 234.525 67.9432 233.77 67.9432C232.331 67.9432 231.782 67.1891 231.782 65.5782C231.782 64.0015 232.434 63.4531 233.668 63.4531C234.867 63.4531 235.416 64.07 235.416 65.2697L235.381 65.8866ZM234.696 65.1326C234.696 64.4128 234.353 64.07 233.599 64.07C232.811 64.07 232.468 64.3785 232.434 65.3725H234.662V65.1326H234.696Z" fill="#FF6441"/>
</g>
<defs>
<clipPath id="clip0_291_3521">
<rect width="170.557" height="40" fill="white" transform="translate(64.7216 30)"/>
</clipPath>
</defs>
</svg>
