<svg width="300" height="100" viewBox="0 0 300 100" fill="none" xmlns="http://www.w3.org/2000/svg">
<rect width="300" height="100" fill="white"/>
<g clip-path="url(#clip0_298_13169)">
<path d="M94.0044 42.4922L89.6217 33.7269C88.5344 31.519 86.26 30 83.6371 30C81.0141 30 78.7398 31.519 77.6524 33.7269L73.2698 42.4922C75.9674 39.9108 79.6196 38.3337 83.6371 38.3337C87.6545 38.3337 91.315 39.9191 94.0044 42.4922Z" fill="#753BBD"/>
<path d="M68.6297 53.3329C68.6297 52.727 68.6629 52.1294 68.7376 51.54L64.3052 60.4132C63.8735 61.2931 63.6328 62.2809 63.6328 63.3267C63.6328 67.0121 66.621 69.992 70.2981 69.992C72.8795 69.992 75.1207 68.5228 76.2246 66.373C71.6926 63.7915 68.6297 58.9192 68.6297 53.3246V53.3329Z" fill="#753BBD"/>
<path d="M102.961 60.4132L98.528 51.54C98.5945 52.1294 98.636 52.727 98.636 53.3329C98.636 58.9275 95.5731 63.7998 91.041 66.3813C92.145 68.5311 94.3861 70.0003 96.9676 70.0003C100.653 70.0003 103.633 67.0121 103.633 63.335C103.633 62.2892 103.392 61.3014 102.961 60.4216V60.4132Z" fill="#753BBD"/>
<path d="M83.6287 58.3297C86.3884 58.3297 88.6256 56.0925 88.6256 53.3328C88.6256 50.5731 86.3884 48.3359 83.6287 48.3359C80.869 48.3359 78.6318 50.5731 78.6318 53.3328C78.6318 56.0925 80.869 58.3297 83.6287 58.3297Z" fill="#753BBD"/>
<path d="M158.358 45.3887C156.615 45.3887 155.046 45.9199 153.784 46.8413C153.585 46.2104 152.996 45.7539 152.299 45.7539H150.182V66.4304H153.311V59.5078C154.648 60.6699 156.391 61.3505 158.366 61.3505C162.923 61.3505 166.252 57.9224 166.252 53.3654C166.252 48.8085 162.923 45.3887 158.366 45.3887H158.358ZM158.109 58.3623C155.237 58.3623 153.12 56.2208 153.12 53.3654C153.12 50.5101 155.237 48.3685 158.109 48.3685C160.981 48.3685 163.073 50.4935 163.073 53.3654C163.073 56.2374 160.973 58.3623 158.109 58.3623Z" fill="#888B8D"/>
<path d="M180.827 46.2348V45.7617H169.207V48.6254H176.013L168.634 60.5781V60.9765H180.844V58.0796H173.514L180.827 46.2348Z" fill="#888B8D"/>
<path d="M191.51 45.3887C186.853 45.3887 183.375 48.767 183.375 53.3654C183.375 57.9639 186.862 61.3422 191.51 61.3422C196.158 61.3422 199.644 57.939 199.644 53.3654C199.644 48.7919 196.15 45.3887 191.51 45.3887ZM191.51 58.3623C188.63 58.3623 186.555 56.2789 186.555 53.3654C186.555 50.452 188.63 48.3685 191.51 48.3685C194.39 48.3685 196.465 50.452 196.465 53.3654C196.465 56.2789 194.39 58.3623 191.51 58.3623Z" fill="#888B8D"/>
<path d="M210.85 45.4136C209.099 45.4136 207.571 45.9863 206.434 46.9741C206.276 46.3017 205.687 45.7954 204.973 45.7622H202.79V60.977H205.92V52.8259C205.92 50.1365 207.621 48.2108 210.012 48.2108C212.402 48.2108 213.506 49.68 213.506 52.4441V60.9687H216.635V51.8049C216.635 48.0531 214.411 45.4053 210.85 45.4053V45.4136Z" fill="#888B8D"/>
<path d="M227.957 45.3887C223.5 45.3887 220.138 48.8168 220.138 53.3654C220.138 57.9141 223.508 61.3422 227.957 61.3422C231.352 61.3422 234.133 59.3916 235.345 56.1793H232.05C231.244 57.5655 229.775 58.4038 227.957 58.4038C225.467 58.4038 223.691 56.8848 223.301 54.4196H235.652C235.685 54.0793 235.718 53.7307 235.718 53.3903C235.718 48.9579 232.614 45.3721 227.957 45.3721V45.3887ZM223.376 51.8879C223.89 49.6302 225.6 48.2108 227.957 48.2108C230.273 48.2108 232.016 49.5721 232.581 51.8879H223.376Z" fill="#888B8D"/>
<path d="M139.258 45.3887C137.515 45.3887 135.947 45.9199 134.685 46.8413C134.486 46.2104 133.896 45.7539 133.199 45.7539H131.083V66.4304H134.212V59.5078C135.548 60.6699 137.291 61.3505 139.267 61.3505C143.824 61.3505 147.152 57.9224 147.152 53.3654C147.152 48.8085 143.824 45.3887 139.267 45.3887H139.258ZM139.009 58.3623C136.138 58.3623 134.021 56.2208 134.021 53.3654C134.021 50.5101 136.138 48.3685 139.009 48.3685C141.881 48.3685 143.973 50.4935 143.973 53.3654C143.973 56.2374 141.873 58.3623 139.009 58.3623Z" fill="#888B8D"/>
<path d="M124.99 45.7617H124.982C124.127 45.7617 123.429 46.4506 123.421 47.3056C122.068 46.102 120.275 45.3965 118.225 45.3965C113.693 45.3965 110.298 48.7914 110.298 53.3732C110.298 57.9551 113.685 61.3583 118.225 61.3583C120.275 61.3583 122.068 60.6445 123.421 59.4326C123.429 60.2875 124.127 60.9765 124.982 60.9765H126.567L126.542 45.7617H124.99ZM118.466 58.3535C115.594 58.3535 113.477 56.212 113.477 53.3566C113.477 50.5013 115.594 48.3598 118.466 48.3598C121.338 48.3598 123.429 50.4847 123.429 53.3566C123.429 56.2286 121.329 58.3535 118.466 58.3535Z" fill="#888B8D"/>
</g>
<defs>
<clipPath id="clip0_298_13169">
<rect width="172.086" height="40" fill="white" transform="translate(63.6328 30)"/>
</clipPath>
</defs>
</svg>
