<svg width="300" height="100" viewBox="0 0 300 100" fill="none" xmlns="http://www.w3.org/2000/svg">
<rect width="300" height="100" fill="white"/>
<g clip-path="url(#clip0_291_3486)">
<path d="M151.72 70.04C145.626 70.04 139.531 70.04 133.418 70.0214C133.402 69.4688 133.404 68.9348 133.418 68.4091C133.51 68.7919 133.851 69.0004 134.231 68.9899C134.539 68.9815 134.844 68.8834 135.155 68.8242C135.202 69.0381 135.408 68.9586 135.565 68.9502C135.62 68.9473 135.713 68.8421 135.713 68.784C135.71 68.0272 135.713 67.2692 135.669 66.5143C135.652 66.225 135.49 65.9745 135.171 65.8614C134.661 65.6807 134.153 65.7541 133.649 65.8513C133.479 65.8839 133.572 66.0673 133.572 66.1803C133.572 66.2133 133.686 66.2751 133.748 66.2746C134.052 66.2722 134.356 66.2472 134.66 66.2417C134.963 66.2363 135.132 66.3896 135.158 66.686C135.168 66.7962 135.159 66.9081 135.159 67.0186C134.875 67.0402 134.612 67.0583 134.35 67.0804C133.946 67.1144 133.584 67.222 133.403 67.6209C133.4 55.0818 133.4 42.5609 133.4 30.04C143.001 30.04 152.602 30.04 162.229 30.0544C161.879 30.2315 161.506 30.4021 161.126 30.5554C159.988 31.0148 158.847 31.4666 157.708 31.923C156.781 32.2945 155.854 32.6662 154.929 33.0421C154.15 33.3582 153.375 33.6805 152.599 34.0002C152.6 34.0003 152.601 33.9981 152.588 33.9995C152.557 34.0129 152.537 34.025 152.506 34.0379C152.477 34.0626 152.461 34.0864 152.443 34.1241C152.454 34.1594 152.466 34.1807 152.479 34.2011C152.48 34.2001 152.478 34.2009 152.479 34.2161C152.587 34.5027 152.691 34.7751 152.801 35.0451C153.186 35.9885 153.576 36.9297 153.957 37.8745C154.389 38.9452 154.812 40.0193 155.242 41.0909C155.573 41.9156 155.906 42.7398 156.243 43.5619C156.38 43.8952 156.532 44.2225 156.692 44.5551C157.413 44.2671 158.118 43.9729 158.826 43.6865C159.704 43.3315 160.584 42.9838 161.463 42.6312C162.353 42.2738 163.244 41.9168 164.133 41.5548C164.971 41.2131 165.808 40.8651 166.66 40.5281C166.677 40.6162 166.68 40.696 166.68 40.7759C166.68 50.5306 166.68 60.2853 166.68 70.04C161.799 70.04 156.918 70.04 152.018 70.0213C152 69.6454 152 69.2882 152 68.9194C152.199 68.9445 152.368 68.9684 152.537 68.9867C153.096 69.0473 153.69 68.8913 153.816 68.216C153.9 67.7656 153.891 67.2894 153.861 66.8289C153.834 66.4162 153.641 66.0562 153.212 65.9138C152.711 65.7472 152.216 65.8744 151.72 65.9729C151.72 67.3478 151.72 68.6939 151.72 70.04ZM146.279 43.8037C146.045 43.888 145.998 44.0729 145.998 44.2959C146 49.7276 146 55.1594 146 60.5912C146 60.6245 145.998 60.6579 146 60.6911C146.016 60.939 146.162 61.0789 146.41 61.0797C146.816 61.0809 147.223 61.0803 147.63 61.08C147.96 61.0797 148.12 60.9221 148.12 60.5949C148.12 59.2619 148.12 57.929 148.12 56.596C148.12 56.5206 148.12 56.4452 148.12 56.3789C148.808 56.4551 149.46 56.5544 150.115 56.5913C150.637 56.6207 151.164 56.5882 151.688 56.5574C152.462 56.5118 153.189 56.2942 153.856 55.8905C154.549 55.4711 155.061 54.8838 155.414 54.1631C155.887 53.1975 156.042 52.1533 156.072 51.095C156.097 50.2385 156.051 49.3801 156.041 48.5224C156.03 47.6417 155.851 46.7959 155.519 45.982C155.186 45.1635 154.658 44.4927 153.922 44.0059C153.061 43.4355 152.085 43.2286 151.066 43.2033C150.749 43.1955 150.43 43.2192 150.113 43.2417C149.653 43.2744 149.189 43.293 148.734 43.3643C147.923 43.4913 147.118 43.6532 146.279 43.8037ZM144.52 52.14C144.52 50.8338 144.519 49.5276 144.52 48.2213C144.52 47.5461 144.503 46.8711 144.358 46.2091C144.079 44.9433 143.388 44.0116 142.138 43.5616C141.111 43.192 140.047 43.1461 138.971 43.2376C138.28 43.2964 137.588 43.3373 136.898 43.4041C136.585 43.4344 136.274 43.4947 135.967 43.567C135.777 43.612 135.673 43.7539 135.678 43.9657C135.685 44.2521 135.679 44.5388 135.68 44.8254C135.681 45.0896 135.791 45.2087 136.054 45.1974C136.43 45.1812 136.805 45.1461 137.181 45.1203C137.577 45.093 137.973 45.0399 138.368 45.0464C139.203 45.0602 140.044 44.9512 140.873 45.1239C141.407 45.2355 141.858 45.5035 142.08 46.0244C142.203 46.3159 142.292 46.6392 142.314 46.954C142.351 47.4934 142.324 48.0373 142.324 48.5915C142.298 48.5936 142.26 48.5989 142.221 48.5996C141.417 48.6134 140.612 48.6104 139.809 48.6457C139.256 48.6699 138.703 48.7234 138.156 48.807C137.5 48.9074 136.872 49.1204 136.309 49.4776C135.399 50.0547 134.986 50.9337 134.929 51.975C134.891 52.6607 134.871 53.3549 135.04 54.0336C135.233 54.8046 135.586 55.4697 136.263 55.9331C136.799 56.3 137.389 56.4939 138.03 56.5623C138.673 56.6308 139.31 56.6255 139.944 56.489C140.698 56.3267 141.404 56.0428 142.074 55.6644C142.186 55.6012 142.303 55.5458 142.44 55.475C142.44 55.6524 142.44 55.8044 142.44 55.9564C142.441 56.2654 142.606 56.4366 142.914 56.4394C143.241 56.4423 143.567 56.44 143.894 56.44C144.343 56.44 144.52 56.2592 144.52 55.7989C144.52 54.5926 144.52 53.3863 144.52 52.14ZM140.103 68.9601C140.227 68.9467 140.351 68.9274 140.476 68.9214C140.641 68.9135 140.724 68.8535 140.723 68.6678C140.717 67.4096 140.72 66.1513 140.72 64.8931C140.719 64.6668 140.688 64.6403 140.443 64.64C140.192 64.6398 140.161 64.6648 140.16 64.8866C140.159 65.1845 140.16 65.4824 140.16 65.7601C139.888 65.7601 139.639 65.7474 139.391 65.7627C138.908 65.7926 138.515 65.9962 138.37 66.5131C138.217 67.056 138.226 67.616 138.349 68.1621C138.439 68.5669 138.705 68.871 139.123 68.9459C139.428 69.0007 139.751 68.959 140.103 68.9601ZM148.307 65.76C148.112 65.7867 147.915 65.8066 147.721 65.8418C147.51 65.8802 147.615 66.054 147.611 66.167C147.61 66.2022 147.73 66.274 147.795 66.2738C148.112 66.2728 148.43 66.2465 148.748 66.2423C148.98 66.2393 149.163 66.3908 149.194 66.6125C149.213 66.7473 149.198 66.8868 149.198 67.0203C148.895 67.0414 148.619 67.066 148.343 67.0789C147.896 67.0997 147.53 67.3382 147.457 67.6991C147.42 67.8787 147.438 68.0704 147.441 68.2565C147.446 68.602 147.715 68.8886 148.053 68.9637C148.481 69.059 148.858 68.9377 149.238 68.7387C149.201 69.0244 149.402 68.953 149.552 68.9598C149.724 68.9677 149.764 68.8667 149.761 68.7174C149.756 68.4242 149.765 68.1308 149.759 67.8377C149.75 67.4 149.755 66.9604 149.713 66.5256C149.673 66.1015 149.417 65.8608 148.998 65.8021C148.783 65.772 148.563 65.7731 148.307 65.76ZM143.398 68.782C143.64 68.6189 143.771 68.3815 143.84 68.1073C143.951 67.6653 143.947 67.2158 143.872 66.7715C143.812 66.4106 143.657 66.0958 143.307 65.9144C143.071 65.7922 142.823 65.755 142.561 65.758C141.958 65.7648 141.503 66.0848 141.408 66.6789C141.338 67.1125 141.343 67.5661 141.378 68.0058C141.401 68.2883 141.544 68.5607 141.796 68.7379C142.307 69.0977 142.837 69.0712 143.398 68.782ZM145.925 67.7506C145.857 68.0142 145.829 68.2929 145.646 68.5698C145.594 68.4303 145.552 68.3425 145.528 68.2503C145.338 67.5391 145.15 66.8273 144.964 66.1151C144.863 65.728 144.912 65.812 144.546 65.7995C144.383 65.7938 144.336 65.8492 144.385 66.0169C144.635 66.8686 144.877 67.7223 145.117 68.577C145.202 68.8827 145.324 68.993 145.627 69C145.978 69.0082 146.129 68.9099 146.219 68.6001C146.44 67.8426 146.659 67.0848 146.873 66.3254C146.92 66.1609 146.942 65.9895 146.98 65.8C146.855 65.8 146.781 65.8102 146.71 65.7981C146.511 65.7639 146.423 65.8582 146.377 66.0414C146.236 66.6023 146.086 67.161 145.925 67.7506ZM136.44 68.4985C136.44 68.5717 136.448 68.646 136.438 68.7179C136.412 68.9138 136.495 68.9715 136.686 68.9652C136.858 68.9594 136.97 68.9583 136.965 68.7265C136.95 68.0348 136.964 67.3425 136.957 66.6506C136.955 66.5089 137.001 66.4136 137.131 66.3764C137.319 66.3226 137.509 66.2647 137.702 66.2449C137.925 66.2219 137.871 66.0729 137.881 65.9409C137.892 65.7987 137.826 65.7345 137.693 65.7624C137.453 65.8129 137.216 65.8774 136.974 65.9369C136.928 65.7995 136.834 65.7649 136.564 65.7993C136.392 65.8211 136.442 65.9481 136.442 66.0435C136.439 66.8486 136.44 67.6538 136.44 68.4985ZM156.227 66.2843C156.399 66.2295 156.569 66.1442 156.745 66.1279C156.959 66.1079 157.179 66.1549 157.397 66.1537C157.464 66.1533 157.531 66.0898 157.598 66.0553C157.551 65.9975 157.509 65.8955 157.457 65.8894C157.194 65.8592 156.928 65.8327 156.664 65.8449C156.151 65.8688 155.814 66.2149 155.712 66.6436C155.595 67.137 155.607 67.6331 155.694 68.1214C155.742 68.3896 155.881 68.637 156.13 68.807C156.558 69.0989 157.018 68.9814 157.473 68.9369C157.519 68.9324 157.557 68.839 157.598 68.7869C157.538 68.7513 157.479 68.6855 157.419 68.6854C157.195 68.6854 156.97 68.7148 156.746 68.7182C156.4 68.7233 156.108 68.5382 156.033 68.2058C155.959 67.8812 155.932 67.5412 155.926 67.2073C155.921 66.8841 155.977 66.5621 156.227 66.2843ZM154.92 66.3C154.92 65.8475 154.921 65.395 154.92 64.9425C154.919 64.7131 154.903 64.7015 154.64 64.7454C154.64 64.8066 154.64 64.8715 154.64 64.9364C154.64 65.4555 154.64 65.9745 154.64 66.4936C154.64 67.2522 154.642 68.0108 154.638 68.7694C154.637 68.9179 154.691 68.9966 154.834 68.9473C154.879 68.9317 154.916 68.8224 154.916 68.7556C154.922 67.9505 154.92 67.1452 154.92 66.3Z" fill="white"/>
<path d="M166.699 70.04C166.68 60.2853 166.68 50.5306 166.68 40.7759C166.68 40.696 166.677 40.6162 166.657 40.518C166.638 40.493 166.635 40.4864 166.636 40.4667C166.64 40.4361 166.641 40.4186 166.642 40.4007C166.641 40.4002 166.641 40.4022 166.657 40.3946C166.675 40.3139 166.68 40.2409 166.68 40.1679C166.68 36.7919 166.68 33.416 166.68 30.04C167.8 30.04 168.919 30.04 170.038 30.04C170.038 43.3734 170.038 56.7067 170.038 70.04C168.93 70.04 167.823 70.04 166.699 70.04Z" fill="white"/>
<path d="M133.381 30.04C133.4 42.5609 133.4 55.0818 133.401 67.6395C133.403 67.9178 133.405 68.1593 133.407 68.4008C133.404 68.9348 133.402 69.4688 133.4 70.0214C132.28 70.04 131.161 70.04 130.042 70.04C130.042 56.7067 130.042 43.3734 130.042 30.04C131.15 30.04 132.257 30.04 133.381 30.04Z" fill="white"/>
<path d="M166.661 30.04C166.68 33.416 166.68 36.7919 166.68 40.1679C166.68 40.2409 166.675 40.3139 166.656 40.3788C166.64 40.3573 166.643 40.3424 166.639 40.3309C166.266 39.4083 165.895 38.4855 165.52 37.5639C165.136 36.6181 164.745 35.675 164.363 34.7283C163.812 33.3626 163.265 31.9952 162.72 30.6271C162.643 30.4354 162.586 30.2359 162.52 30.04C163.894 30.04 165.268 30.04 166.661 30.04Z" fill="white"/>
<path d="M162.507 30.04C162.586 30.2359 162.643 30.4354 162.72 30.6271C163.265 31.9952 163.812 33.3626 164.363 34.7283C164.745 35.675 165.136 36.6181 165.52 37.5639C165.895 38.4855 166.266 39.4083 166.639 40.3309C166.643 40.3424 166.64 40.3573 166.64 40.3864C166.641 40.4022 166.641 40.4002 166.628 40.3998C166.584 40.3644 166.549 40.3321 166.524 40.2939C165.665 39.015 164.808 37.7352 163.95 36.4563C163.504 35.7918 163.055 35.1294 162.608 34.4652C162.057 33.6448 161.506 32.8236 160.958 31.9883C160.996 31.9121 161.026 31.8454 161.07 31.7893C161.525 31.2052 161.983 30.6229 162.44 30.04C162.458 30.04 162.476 30.04 162.507 30.04Z" fill="#FBD200"/>
<path d="M162.423 30.04C161.983 30.6229 161.525 31.2052 161.07 31.7893C161.026 31.8454 160.996 31.9121 160.945 31.9818C160.867 31.9936 160.802 31.9877 160.742 32.0027C158.414 32.5807 156.086 33.1618 153.758 33.739C153.374 33.8344 152.985 33.9135 152.598 34.0001C153.375 33.6805 154.151 33.3582 154.929 33.0421C155.854 32.6662 156.781 32.2945 157.708 31.923C158.847 31.4666 159.989 31.0148 161.127 30.5554C161.506 30.4021 161.879 30.2315 162.247 30.0544C162.296 30.04 162.351 30.04 162.423 30.04Z" fill="#84B526"/>
<path d="M151.737 70.0401C151.72 68.6939 151.72 67.3478 151.72 65.9729C152.216 65.8744 152.711 65.7472 153.212 65.9138C153.641 66.0562 153.834 66.4162 153.861 66.8289C153.892 67.2894 153.9 67.7657 153.816 68.216C153.69 68.8914 153.096 69.0473 152.537 68.9868C152.368 68.9685 152.199 68.9446 152 68.9194C152 69.2882 152 69.6454 152 70.0213C151.918 70.0401 151.837 70.0401 151.737 70.0401ZM153.596 66.9211C153.584 66.8635 153.57 66.8062 153.559 66.7482C153.498 66.4162 153.247 66.1351 152.957 66.1254C152.644 66.1148 152.329 66.1417 152 66.1527C152 66.9728 151.998 67.7566 152.006 68.5402C152.006 68.587 152.081 68.6672 152.129 68.6735C152.338 68.7008 152.549 68.7155 152.76 68.7182C153.211 68.7241 153.484 68.5302 153.551 68.0864C153.607 67.716 153.586 67.3342 153.596 66.9211Z" fill="#00903A"/>
<path d="M146.294 43.8024C147.118 43.6535 147.923 43.4916 148.734 43.3646C149.189 43.2934 149.653 43.2747 150.113 43.242C150.43 43.2196 150.749 43.1958 151.066 43.2037C152.085 43.229 153.061 43.4359 153.923 44.0062C154.658 44.4931 155.186 45.1638 155.52 45.9823C155.851 46.7963 156.03 47.6421 156.041 48.5228C156.051 49.3804 156.097 50.2389 156.072 51.0954C156.042 52.1536 155.887 53.1979 155.414 54.1635C155.061 54.8842 154.549 55.4715 153.856 55.8908C153.189 56.2945 152.462 56.5121 151.688 56.5577C151.164 56.5886 150.637 56.6211 150.115 56.5917C149.46 56.5548 148.808 56.4554 148.12 56.3793C148.12 56.4456 148.12 56.521 148.12 56.5964C148.12 57.9293 148.12 59.2623 148.12 60.5952C148.12 60.9224 147.96 61.0801 147.63 61.0803C147.223 61.0806 146.816 61.0813 146.41 61.0801C146.162 61.0793 146.016 60.9393 146 60.6915C145.998 60.6583 146 60.6248 146 60.5915C146 55.1598 146 49.728 145.999 44.2962C145.998 44.0733 146.045 43.8883 146.294 43.8024ZM153.96 50.5786C153.947 49.981 153.945 49.3828 153.916 48.7859C153.895 48.3386 153.866 47.8884 153.793 47.4475C153.695 46.8552 153.469 46.306 153.066 45.848C152.536 45.2465 151.83 45.0159 151.064 45.0103C150.325 45.0049 149.584 45.0738 148.845 45.1252C148.601 45.1421 148.361 45.2062 148.129 45.2469C148.129 48.3814 148.129 51.4786 148.129 54.6149C148.657 54.6639 149.18 54.7345 149.704 54.7552C150.325 54.7796 150.953 54.8116 151.569 54.7495C152.579 54.6476 153.249 54.0664 153.607 53.1137C153.911 52.306 153.91 51.4593 153.96 50.5786Z" fill="#00903A"/>
<path d="M152.6 34.0005C152.985 33.9138 153.374 33.8346 153.758 33.7393C156.086 33.1621 158.414 32.581 160.742 32.003C160.802 31.988 160.867 31.9939 160.943 31.9965C161.507 32.8239 162.057 33.6451 162.608 34.4655C163.055 35.1297 163.504 35.7921 163.95 36.4566C164.808 37.7354 165.665 39.0153 166.524 40.2942C166.549 40.3324 166.584 40.3647 166.629 40.4006C166.641 40.4189 166.64 40.4364 166.621 40.4746C166.255 40.517 165.907 40.5443 165.557 40.559C164.828 40.5897 164.1 40.6126 163.371 40.6406C162.715 40.6658 162.06 40.6963 161.405 40.7193C160.908 40.7367 160.41 40.744 159.913 40.7595C159.185 40.7821 158.456 40.808 157.722 40.8205C157.701 40.7865 157.687 40.7636 157.671 40.7427C155.983 38.5888 154.296 36.435 152.607 34.2828C152.577 34.2451 152.522 34.2279 152.478 34.2012C152.478 34.2012 152.48 34.2004 152.492 34.1907C152.483 34.1575 152.464 34.134 152.444 34.1105C152.461 34.0867 152.477 34.0629 152.519 34.0387C152.563 34.025 152.582 34.0117 152.601 33.9984C152.601 33.9984 152.601 34.0006 152.6 34.0005Z" fill="#00903A"/>
<path d="M144.52 52.1602C144.52 53.3864 144.52 54.5927 144.52 55.799C144.52 56.2593 144.343 56.4402 143.894 56.4402C143.567 56.4402 143.241 56.4424 142.914 56.4395C142.606 56.4368 142.441 56.2655 142.44 55.9565C142.44 55.8045 142.44 55.6525 142.44 55.4751C142.303 55.546 142.186 55.6013 142.074 55.6645C141.404 56.043 140.698 56.3268 139.944 56.4891C139.31 56.6257 138.673 56.6309 138.03 56.5624C137.389 56.494 136.799 56.3001 136.263 55.9332C135.586 55.4698 135.233 54.8048 135.04 54.0337C134.871 53.355 134.891 52.6608 134.929 51.9751C134.986 50.9338 135.399 50.0549 136.309 49.4777C136.872 49.1206 137.5 48.9075 138.156 48.8071C138.703 48.7235 139.256 48.6701 139.809 48.6458C140.612 48.6105 141.417 48.6135 142.221 48.5997C142.26 48.5991 142.298 48.5937 142.324 48.5916C142.324 48.0374 142.351 47.4935 142.314 46.9541C142.292 46.6394 142.203 46.3161 142.08 46.0245C141.858 45.5036 141.407 45.2356 140.873 45.1241C140.044 44.9513 139.203 45.0604 138.368 45.0465C137.973 45.04 137.577 45.0932 137.181 45.1204C136.805 45.1462 136.43 45.1813 136.054 45.1975C135.791 45.2089 135.681 45.0897 135.68 44.8255C135.679 44.5389 135.685 44.2522 135.678 43.9658C135.673 43.754 135.777 43.6121 135.967 43.5671C136.274 43.4948 136.585 43.4345 136.898 43.4042C137.588 43.3374 138.28 43.2965 138.971 43.2378C140.047 43.1462 141.111 43.1921 142.138 43.5617C143.388 44.0117 144.079 44.9434 144.358 46.2092C144.503 46.8712 144.52 47.5462 144.52 48.2214C144.519 49.5277 144.52 50.8339 144.52 52.1602ZM142.36 53.4982C142.36 52.3889 142.36 51.2796 142.36 50.1994C141.388 50.1994 140.451 50.1952 139.514 50.2011C139.036 50.2042 138.571 50.3005 138.129 50.4835C137.661 50.6772 137.305 50.9943 137.164 51.4943C136.965 52.2025 136.979 52.9237 137.143 53.6333C137.274 54.2008 137.631 54.5877 138.211 54.7463C138.855 54.9226 139.504 54.894 140.151 54.7815C140.805 54.6676 141.409 54.4072 142.008 54.1258C142.283 53.997 142.417 53.8384 142.36 53.4982Z" fill="#00903A"/>
<path d="M157.728 40.8322C158.456 40.8077 159.185 40.7818 159.913 40.7592C160.41 40.7437 160.908 40.7364 161.405 40.719C162.06 40.696 162.715 40.6655 163.371 40.6403C164.099 40.6123 164.828 40.5894 165.557 40.5587C165.906 40.5441 166.255 40.5167 166.619 40.4874C166.635 40.4864 166.638 40.493 166.642 40.5098C165.808 40.8651 164.972 41.2131 164.133 41.5548C163.244 41.9168 162.353 42.2738 161.463 42.6312C160.584 42.9838 159.704 43.3315 158.826 43.6865C158.118 43.9729 157.413 44.2671 156.693 44.5399C156.808 44.0765 156.939 43.6316 157.065 43.1854C157.288 42.4014 157.507 41.6167 157.728 40.8322Z" fill="#84B526"/>
<path d="M157.722 40.8199C157.507 41.6164 157.288 42.4011 157.065 43.1851C156.939 43.6313 156.808 44.0762 156.678 44.5369C156.532 44.2222 156.38 43.8949 156.243 43.5616C155.906 42.7395 155.573 41.9153 155.242 41.0906C154.812 40.019 154.389 38.9449 153.957 37.8742C153.575 36.9294 153.186 35.9882 152.801 35.0448C152.691 34.7748 152.587 34.5024 152.479 34.2158C152.521 34.2274 152.577 34.2445 152.607 34.2823C154.296 36.4344 155.983 38.5882 157.67 40.7421C157.687 40.763 157.701 40.7859 157.722 40.8199Z" fill="#C2D201"/>
<path d="M140.084 68.9598C139.751 68.9586 139.428 69.0003 139.123 68.9455C138.705 68.8706 138.439 68.5665 138.349 68.1617C138.226 67.6156 138.217 67.0556 138.37 66.5128C138.515 65.9958 138.908 65.7922 139.391 65.7623C139.639 65.747 139.888 65.7597 140.16 65.7597C140.16 65.482 140.159 65.1841 140.16 64.8862C140.161 64.6644 140.192 64.6394 140.443 64.6397C140.688 64.6399 140.719 64.6664 140.72 64.8927C140.72 66.1509 140.717 67.4092 140.723 68.6674C140.724 68.8531 140.641 68.9131 140.476 68.9211C140.351 68.927 140.227 68.9463 140.084 68.9598ZM139.437 66.2397C139.184 66.2599 138.971 66.3826 138.901 66.6152C138.755 67.0948 138.749 67.5904 138.886 68.0771C138.937 68.2596 139.047 68.422 139.243 68.4733C139.545 68.5527 139.851 68.5441 140.16 68.4518C140.16 67.7646 140.158 67.087 140.162 66.4094C140.162 66.2695 140.081 66.2424 139.972 66.2406C139.806 66.2378 139.64 66.2397 139.437 66.2397Z" fill="#00903A"/>
<path d="M133.418 68.4093C133.405 68.1595 133.403 67.9179 133.404 67.6579C133.584 67.2222 133.946 67.1145 134.35 67.0805C134.612 67.0584 134.875 67.0403 135.159 67.0187C135.159 66.9082 135.168 66.7964 135.158 66.6861C135.132 66.3897 134.963 66.2364 134.66 66.2419C134.356 66.2473 134.052 66.2723 133.748 66.2748C133.686 66.2753 133.572 66.2134 133.572 66.1804C133.572 66.0675 133.479 65.884 133.649 65.8514C134.153 65.7542 134.661 65.6809 135.171 65.8615C135.49 65.9746 135.652 66.2251 135.669 66.5145C135.713 67.2694 135.71 68.0273 135.713 68.7841C135.713 68.8422 135.62 68.9475 135.565 68.9503C135.408 68.9587 135.202 69.0382 135.155 68.8243C134.844 68.8835 134.539 68.9816 134.231 68.9901C133.851 69.0005 133.51 68.7921 133.418 68.4093ZM135.16 68.2355C135.16 67.9732 135.16 67.7109 135.16 67.4403C134.953 67.4403 134.78 67.4362 134.608 67.4421C134.53 67.4447 134.453 67.4677 134.375 67.4801C134.028 67.5357 133.918 67.6726 133.92 68.0479C133.921 68.3692 134.044 68.5156 134.372 68.5533C134.48 68.5657 134.602 68.5529 134.702 68.5128C134.86 68.449 135.006 68.3526 135.16 68.2355Z" fill="#00903A"/>
<path d="M148.327 65.7598C148.563 65.7728 148.783 65.7717 148.998 65.8019C149.417 65.8606 149.673 66.1012 149.713 66.5253C149.755 66.9601 149.75 67.3998 149.759 67.8374C149.765 68.1305 149.757 68.4239 149.761 68.7171C149.764 68.8664 149.725 68.9674 149.552 68.9596C149.403 68.9527 149.201 69.0241 149.238 68.7384C148.858 68.9374 148.481 69.0587 148.053 68.9634C147.715 68.8883 147.446 68.6017 147.441 68.2562C147.438 68.0701 147.42 67.8784 147.457 67.6988C147.53 67.3379 147.896 67.0994 148.343 67.0786C148.619 67.0657 148.896 67.0411 149.198 67.02C149.198 66.8866 149.213 66.747 149.194 66.6123C149.163 66.3905 148.98 66.239 148.748 66.242C148.43 66.2462 148.112 66.2725 147.795 66.2735C147.73 66.2737 147.61 66.2019 147.611 66.1667C147.615 66.0537 147.51 65.8799 147.721 65.8415C147.915 65.8063 148.112 65.7864 148.327 65.7598ZM148.33 67.4941C148.281 67.5133 148.23 67.5284 148.184 67.5525C147.955 67.6721 147.952 67.8861 147.961 68.1023C147.968 68.2792 148.03 68.4352 148.205 68.4991C148.543 68.6224 148.85 68.5048 149.145 68.3445C149.173 68.3294 149.196 68.2795 149.197 68.2454C149.201 67.9817 149.199 67.7179 149.199 67.422C148.9 67.4439 148.63 67.4636 148.33 67.4941Z" fill="#00903A"/>
<path d="M143.387 68.7922C142.838 69.0712 142.307 69.0977 141.796 68.7379C141.544 68.5607 141.401 68.2883 141.378 68.0058C141.343 67.5661 141.338 67.1125 141.408 66.6789C141.503 66.0848 141.958 65.7648 142.561 65.758C142.823 65.755 143.071 65.7923 143.307 65.9144C143.657 66.0958 143.812 66.4106 143.873 66.7715C143.947 67.2159 143.951 67.6653 143.84 68.1074C143.771 68.3815 143.64 68.6189 143.387 68.7922ZM142.191 66.363C142.126 66.4448 142.039 66.5172 142.001 66.61C141.807 67.0879 141.824 67.5844 141.964 68.0647C142.062 68.4017 142.338 68.5412 142.688 68.52C142.978 68.5023 143.277 68.2968 143.306 67.9974C143.346 67.5807 143.361 67.1484 143.294 66.7379C143.219 66.2736 142.621 66.0863 142.191 66.363Z" fill="#00903A"/>
<path d="M145.933 67.7354C146.086 67.1609 146.236 66.6022 146.377 66.0412C146.423 65.858 146.511 65.7637 146.71 65.798C146.781 65.8101 146.855 65.7999 146.98 65.7999C146.942 65.9894 146.92 66.1607 146.873 66.3253C146.659 67.0846 146.44 67.8425 146.219 68.5999C146.129 68.9098 145.978 69.0081 145.627 68.9999C145.325 68.9928 145.202 68.8826 145.117 68.5769C144.878 67.7222 144.635 66.8684 144.385 66.0168C144.336 65.8491 144.383 65.7937 144.547 65.7993C144.912 65.8119 144.863 65.7279 144.964 66.115C145.15 66.8271 145.338 67.5389 145.528 68.2501C145.552 68.3424 145.594 68.4301 145.647 68.5697C145.829 68.2927 145.857 68.014 145.933 67.7354Z" fill="#00903A"/>
<path d="M136.44 68.4786C136.44 67.6536 136.439 66.8485 136.442 66.0434C136.442 65.948 136.392 65.821 136.564 65.7991C136.835 65.7648 136.928 65.7994 136.974 65.9368C137.216 65.8773 137.453 65.8128 137.693 65.7622C137.826 65.7344 137.892 65.7986 137.881 65.9408C137.871 66.0728 137.925 66.2218 137.702 66.2447C137.509 66.2646 137.319 66.3224 137.131 66.3763C137.001 66.4135 136.955 66.5087 136.957 66.6504C136.964 67.3424 136.95 68.0346 136.965 68.7263C136.97 68.9581 136.859 68.9593 136.686 68.965C136.495 68.9714 136.412 68.9137 136.438 68.7178C136.448 68.6459 136.44 68.5716 136.44 68.4786Z" fill="#00903A"/>
<path d="M156.215 66.2925C155.977 66.5621 155.921 66.884 155.927 67.2073C155.932 67.5412 155.959 67.8811 156.033 68.2058C156.108 68.5381 156.4 68.7232 156.746 68.7181C156.97 68.7148 157.195 68.6853 157.419 68.6854C157.479 68.6854 157.538 68.7512 157.598 68.7868C157.557 68.839 157.519 68.9323 157.473 68.9368C157.018 68.9813 156.558 69.0988 156.13 68.807C155.881 68.637 155.742 68.3895 155.694 68.1214C155.607 67.6331 155.595 67.1369 155.712 66.6436C155.814 66.2149 156.151 65.8687 156.665 65.8449C156.928 65.8326 157.194 65.8591 157.457 65.8894C157.51 65.8955 157.552 65.9975 157.599 66.0552C157.531 66.0898 157.464 66.1532 157.397 66.1536C157.179 66.1549 156.959 66.1079 156.745 66.1278C156.569 66.1441 156.4 66.2295 156.215 66.2925Z" fill="#00903A"/>
<path d="M154.92 66.3195C154.92 67.1447 154.922 67.9499 154.916 68.7551C154.916 68.8218 154.879 68.9311 154.834 68.9468C154.691 68.996 154.637 68.9174 154.638 68.7689C154.642 68.0103 154.64 67.2517 154.64 66.4931C154.64 65.974 154.64 65.4549 154.64 64.9359C154.64 64.871 154.64 64.8061 154.64 64.7449C154.903 64.701 154.919 64.7126 154.92 64.942C154.921 65.3945 154.92 65.847 154.92 66.3195Z" fill="#00903A"/>
<path d="M152.443 34.124C152.464 34.1336 152.483 34.1571 152.491 34.1912C152.466 34.1806 152.454 34.1593 152.443 34.124Z" fill="#C2D201"/>
<path d="M152.588 33.999C152.582 34.0109 152.563 34.0242 152.531 34.0371C152.537 34.0246 152.557 34.0125 152.588 33.999Z" fill="#84B526"/>
<path d="M153.598 66.9394C153.586 67.3343 153.606 67.7161 153.551 68.0865C153.484 68.5303 153.211 68.7241 152.76 68.7183C152.549 68.7156 152.338 68.7009 152.129 68.6736C152.081 68.6673 152.006 68.5871 152.006 68.5403C151.998 67.7566 152 66.9729 152 66.1528C152.329 66.1418 152.644 66.1149 152.957 66.1254C153.247 66.1352 153.498 66.4163 153.559 66.7483C153.57 66.8063 153.584 66.8636 153.598 66.9394Z" fill="white"/>
<path d="M153.96 50.598C153.91 51.4591 153.911 52.3057 153.607 53.1135C153.249 54.0662 152.579 54.6473 151.568 54.7493C150.953 54.8114 150.325 54.7794 149.704 54.7549C149.18 54.7343 148.657 54.6637 148.129 54.6147C148.129 51.4784 148.129 48.3812 148.129 45.2466C148.361 45.206 148.601 45.1419 148.845 45.125C149.584 45.0736 150.325 45.0046 151.064 45.0101C151.83 45.0157 152.536 45.2463 153.066 45.8478C153.469 46.3058 153.695 46.855 153.793 47.4472C153.866 47.8882 153.895 48.3384 153.916 48.7857C153.945 49.3826 153.947 49.9807 153.96 50.598Z" fill="white"/>
<path d="M142.36 53.518C142.418 53.8387 142.283 53.9973 142.009 54.1261C141.409 54.4075 140.805 54.6679 140.151 54.7818C139.504 54.8943 138.855 54.9229 138.211 54.7466C137.631 54.588 137.274 54.2011 137.143 53.6336C136.979 52.924 136.965 52.2029 137.164 51.4946C137.305 50.9946 137.661 50.6775 138.129 50.4839C138.572 50.3008 139.036 50.2045 139.515 50.2014C140.452 50.1955 141.389 50.1997 142.36 50.1997C142.36 51.2799 142.36 52.3892 142.36 53.518Z" fill="white"/>
<path d="M139.456 66.2399C139.64 66.2399 139.806 66.238 139.972 66.2408C140.081 66.2426 140.163 66.2697 140.162 66.4096C140.158 67.0872 140.16 67.7648 140.16 68.452C139.852 68.5443 139.546 68.5529 139.243 68.4735C139.048 68.4222 138.937 68.2598 138.886 68.0773C138.749 67.5906 138.755 67.0949 138.901 66.6154C138.972 66.3828 139.185 66.2601 139.456 66.2399Z" fill="white"/>
<path d="M135.159 68.2523C135.006 68.3522 134.86 68.4486 134.702 68.5124C134.602 68.5525 134.48 68.5653 134.372 68.5529C134.044 68.5151 133.921 68.3688 133.92 68.0474C133.918 67.6722 134.028 67.5352 134.376 67.4797C134.453 67.4673 134.53 67.4443 134.608 67.4416C134.78 67.4358 134.953 67.4398 135.16 67.4398C135.16 67.7104 135.16 67.9727 135.159 68.2523Z" fill="white"/>
<path d="M148.345 67.4885C148.63 67.4635 148.899 67.4438 149.199 67.4219C149.199 67.7178 149.201 67.9815 149.196 68.2452C149.196 68.2794 149.173 68.3293 149.145 68.3444C148.85 68.5046 148.543 68.6223 148.205 68.499C148.03 68.4351 147.968 68.2791 147.96 68.1021C147.952 67.8859 147.954 67.672 148.184 67.5524C148.23 67.5282 148.281 67.5132 148.345 67.4885Z" fill="white"/>
<path d="M142.205 66.3582C142.621 66.0865 143.219 66.2738 143.294 66.7381C143.361 67.1487 143.346 67.581 143.306 67.9977C143.277 68.2971 142.978 68.5026 142.688 68.5202C142.338 68.5414 142.062 68.402 141.964 68.065C141.824 67.5847 141.807 67.0881 142.001 66.6102C142.039 66.5175 142.126 66.445 142.205 66.3582Z" fill="white"/>
</g>
<defs>
<clipPath id="clip0_291_3486">
<rect width="40" height="40" fill="white" transform="translate(130 30)"/>
</clipPath>
</defs>
</svg>
