<svg width="300" height="100" viewBox="0 0 300 100" fill="none" xmlns="http://www.w3.org/2000/svg">
<rect width="300" height="100" fill="white"/>
<g clip-path="url(#clip0_291_3580)">
<path d="M141.301 58.1829L138.931 58.171L149.069 33.3183H149.618L159.577 58.1829H157.379L154.665 51.3826H144.017L141.301 58.1829ZM144.839 49.2883H153.838L149.341 38.0927L144.839 49.2883ZM164.781 55.075C165.717 55.746 166.842 56.1011 167.993 56.0886C168.667 56.0949 169.336 55.9785 169.968 55.745C170.552 55.5298 171.089 55.203 171.548 54.7828C171.995 54.3707 172.346 53.8668 172.579 53.3058C172.827 52.6952 172.949 52.0413 172.94 51.3826C172.945 50.7736 172.863 50.1669 172.699 49.5805C172.529 49.0001 172.249 48.4577 171.875 47.9824C171.437 47.435 170.915 46.9601 170.329 46.5753C169.563 46.0758 168.745 45.6614 167.889 45.3392C166.08 44.6284 164.707 43.7508 163.768 42.7065C162.83 41.6622 162.36 40.3169 162.36 38.6706C162.354 37.948 162.494 37.2317 162.772 36.5645C163.04 35.9251 163.437 35.3483 163.94 34.8703C164.466 34.376 165.085 33.9908 165.761 33.7369C166.518 33.4542 167.322 33.3144 168.13 33.3249C169.155 33.3124 170.165 33.5606 171.068 34.0462C171.939 34.5202 172.667 35.22 173.174 36.0721L171.531 37.2687C170.707 36.0313 169.574 35.413 168.13 35.4139C167.123 35.4139 166.3 35.7114 165.658 36.3064C165.016 36.9014 164.695 37.6798 164.695 38.6416C164.677 39.6175 165.02 40.5658 165.659 41.3033C166.301 42.0466 167.434 42.7486 169.059 43.4094C171.257 44.28 172.844 45.3502 173.817 46.6201C174.791 47.8899 175.275 49.4546 175.27 51.3141C175.278 52.2348 175.114 53.1489 174.789 54.0101C174.481 54.8295 174.003 55.5743 173.387 56.1952C172.734 56.8344 171.956 57.3314 171.102 57.655C170.108 58.0232 169.053 58.2018 167.993 58.1816C166.464 58.1948 164.96 57.7848 163.649 56.9969C162.341 56.2178 161.314 55.0457 160.712 53.648L162.568 52.3093C163.042 53.4141 163.807 54.3697 164.781 55.075ZM202.205 50.6665C201.227 52.9145 199.614 54.8279 197.564 56.1717C195.514 57.5156 193.115 58.2315 190.663 58.2315C188.212 58.2315 185.813 57.5156 183.763 56.1717C181.713 54.8279 180.1 52.9145 179.122 50.6665C178.45 49.1176 178.11 47.4449 178.125 45.7565C178.11 44.0677 178.45 42.3946 179.122 40.8452C180.1 38.5978 181.713 36.6849 183.763 35.3414C185.814 33.9978 188.212 33.2822 190.663 33.2822C193.115 33.2822 195.513 33.9979 197.563 35.3414C199.614 36.6849 201.227 38.5978 202.205 40.8452C202.878 42.3944 203.217 44.0677 203.202 45.7565C203.217 47.445 202.878 49.1178 202.205 50.6665ZM181.27 49.8425C182.298 52.3074 184.253 54.2692 186.715 55.304C187.967 55.8255 189.309 56.0939 190.665 56.0939C192.021 56.0939 193.363 55.8254 194.614 55.304C195.827 54.7929 196.93 54.0523 197.861 53.1228C198.825 52.154 199.587 51.0037 200.104 49.7383C200.619 48.4729 200.879 47.1177 200.868 45.7513C200.879 44.3848 200.619 43.0297 200.104 41.7643C199.587 40.4989 198.825 39.3485 197.861 38.3796C196.93 37.4503 195.827 36.71 194.614 36.1998C193.363 35.6784 192.021 35.4099 190.665 35.41C189.309 35.41 187.966 35.6784 186.715 36.1998C185.502 36.7103 184.4 37.4505 183.468 38.3796C182.505 39.3486 181.743 40.4991 181.227 41.7646C180.712 43.0299 180.452 44.3849 180.463 45.7513C180.451 47.1539 180.725 48.5444 181.269 49.8372L181.27 49.8425ZM140.297 66.1626C140.469 66.2867 140.677 66.3522 140.889 66.3496C141.013 66.3507 141.137 66.3293 141.254 66.2864C141.361 66.2467 141.46 66.1863 141.545 66.1087C141.627 66.033 141.691 65.9405 141.734 65.8375C141.78 65.7248 141.803 65.6039 141.801 65.4821C141.802 65.37 141.787 65.2584 141.757 65.1504C141.726 65.0432 141.674 64.9431 141.605 64.8556C141.525 64.7531 141.428 64.6643 141.32 64.5923C141.178 64.5001 141.027 64.4233 140.869 64.3632C140.585 64.2627 140.327 64.0983 140.116 63.8828C139.937 63.6775 139.843 63.4115 139.853 63.139C139.851 63.0036 139.877 62.8691 139.929 62.7441C139.979 62.6261 140.052 62.5195 140.144 62.4308C140.241 62.3401 140.355 62.2694 140.48 62.2228C140.619 62.1701 140.767 62.1442 140.917 62.1465C141.105 62.1431 141.292 62.1885 141.458 62.2782C141.621 62.364 141.758 62.4934 141.853 62.652L141.549 62.8731C141.483 62.7661 141.391 62.6782 141.281 62.6181C141.171 62.558 141.047 62.528 140.922 62.5309C140.754 62.5245 140.591 62.5835 140.466 62.6954C140.408 62.7503 140.361 62.8171 140.331 62.8913C140.3 62.9656 140.286 63.0456 140.289 63.1258C140.285 63.3059 140.348 63.481 140.466 63.6169C140.643 63.794 140.857 63.929 141.093 64.0118C141.433 64.127 141.736 64.3316 141.97 64.6041C142.107 64.7997 142.196 65.0256 142.227 65.2626C142.258 65.4996 142.232 65.7406 142.15 65.9652C142.093 66.117 142.003 66.2544 141.887 66.368C141.766 66.4838 141.623 66.5734 141.466 66.6313C141.242 66.713 141.003 66.7447 140.765 66.724C140.528 66.7033 140.298 66.6307 140.091 66.5115C139.85 66.3676 139.661 66.1516 139.55 65.8941L139.892 65.6467C139.978 65.8522 140.117 66.0307 140.297 66.1626ZM142.897 66.7365H142.444L144.329 62.1517H144.431L146.315 66.7365H145.862L145.362 65.482H143.397L142.897 66.7365ZM143.549 65.0964H145.209L144.379 63.031L143.549 65.0964ZM145.836 62.2649L146.241 62.1517L147.724 65.8559L149.201 62.1517L149.607 62.2649L147.77 66.7405H147.668L145.836 62.2649ZM150.568 66.6602H150.136V62.228H150.568V66.6602ZM151.966 66.6602H151.534V62.1952L151.666 62.1517L154.654 65.7861V62.232H155.085V66.6958L154.953 66.7405L151.966 63.1073V66.6602ZM159.997 65.3531C159.907 65.6174 159.767 65.8622 159.585 66.0744C159.407 66.2802 159.187 66.4454 158.939 66.5588C158.666 66.6814 158.37 66.7421 158.071 66.7365C157.773 66.7379 157.477 66.6805 157.201 66.5676C156.925 66.4547 156.674 66.2884 156.462 66.0784C156.253 65.8689 156.086 65.6219 155.969 65.3505C155.848 65.0638 155.786 64.7559 155.786 64.4448C155.786 64.1337 155.848 63.8258 155.969 63.5391C156.148 63.1249 156.446 62.7726 156.824 62.5262C157.202 62.2797 157.645 62.15 158.096 62.153C158.46 62.1487 158.818 62.2332 159.142 62.3992C159.449 62.5542 159.719 62.7748 159.932 63.0455L159.603 63.293C159.429 63.065 159.207 62.8781 158.953 62.7454C158.691 62.6067 158.397 62.5356 158.1 62.5387C157.85 62.5373 157.602 62.587 157.372 62.6848C156.91 62.8898 156.546 63.2676 156.358 63.7375C156.171 64.2074 156.174 64.732 156.369 65.199C156.463 65.424 156.6 65.629 156.77 65.8033C156.937 65.9707 157.134 66.1051 157.351 66.1995C157.577 66.2962 157.82 66.3455 158.066 66.3443C158.285 66.3481 158.502 66.3082 158.706 66.2271C158.889 66.154 159.056 66.0452 159.197 65.9073C159.335 65.77 159.448 65.6091 159.53 65.432C159.615 65.2484 159.669 65.0517 159.688 64.8502H158.433V64.4632H160.145C160.142 64.7656 160.092 65.0657 159.997 65.3531ZM161.293 66.1626C161.466 66.2866 161.673 66.3521 161.885 66.3496C162.01 66.3507 162.133 66.3293 162.25 66.2864C162.358 66.2466 162.457 66.1862 162.541 66.1086C162.624 66.0336 162.689 65.941 162.731 65.8375C162.777 65.7247 162.8 65.6039 162.798 65.4821C162.799 65.3699 162.784 65.2582 162.753 65.1503C162.722 65.0432 162.671 64.943 162.602 64.8555C162.521 64.7531 162.425 64.6642 162.316 64.5922C162.175 64.5001 162.025 64.4233 161.867 64.3632C161.579 64.2626 161.319 64.0968 161.106 63.8788C160.927 63.6735 160.832 63.4075 160.843 63.135C160.841 62.9995 160.867 62.8651 160.919 62.7401C160.968 62.6221 161.042 62.5155 161.134 62.4268C161.231 62.3361 161.345 62.2654 161.469 62.2188C161.609 62.1661 161.757 62.1402 161.907 62.1425C162.096 62.1393 162.282 62.1847 162.449 62.2741C162.612 62.3608 162.749 62.49 162.844 62.648L162.54 62.8691C162.474 62.7622 162.382 62.6744 162.271 62.6144C162.161 62.5543 162.037 62.5242 161.912 62.5269C161.744 62.5205 161.581 62.5795 161.456 62.6914C161.398 62.7463 161.351 62.8131 161.321 62.8874C161.29 62.9616 161.276 63.0416 161.279 63.1218C161.275 63.3019 161.338 63.477 161.456 63.6129C161.633 63.7897 161.847 63.9246 162.083 64.0077C162.423 64.1233 162.727 64.3279 162.961 64.6001C163.143 64.8507 163.236 65.1553 163.225 65.465C163.225 65.6344 163.196 65.8025 163.136 65.9612C163.078 66.1127 162.988 66.25 162.873 66.364C162.752 66.4798 162.609 66.5694 162.452 66.6273C162.228 66.709 161.989 66.7406 161.752 66.7199C161.514 66.6992 161.285 66.6267 161.078 66.5075C160.837 66.364 160.647 66.1479 160.536 65.8901L160.878 65.6426C160.966 65.851 161.109 66.031 161.293 66.1626ZM168.448 66.8761L167.979 66.2745C167.792 66.4088 167.59 66.521 167.377 66.6088C167.152 66.6991 166.91 66.7438 166.668 66.7405C166.35 66.7405 166.044 66.6217 165.809 66.4075C165.697 66.3051 165.608 66.181 165.546 66.0429C165.481 65.9021 165.448 65.7488 165.45 65.5939C165.449 65.4558 165.472 65.3185 165.519 65.1885C165.567 65.0596 165.635 64.9389 165.72 64.8305C165.811 64.714 165.913 64.606 166.024 64.508C166.145 64.3998 166.273 64.2991 166.407 64.2065C166.253 64.0218 166.117 63.8226 166.002 63.6116C165.919 63.4621 165.874 63.2951 165.87 63.1245C165.868 62.992 165.893 62.8605 165.942 62.7375C165.989 62.6224 166.059 62.5181 166.148 62.4307C166.239 62.3428 166.347 62.2739 166.465 62.228C166.591 62.1791 166.725 62.1546 166.86 62.1556C166.985 62.1552 167.109 62.1799 167.225 62.228C167.459 62.3246 167.645 62.5102 167.743 62.7441C167.797 62.8724 167.824 63.0104 167.823 63.1495C167.824 63.2703 167.8 63.39 167.753 63.5009C167.706 63.6104 167.642 63.7117 167.563 63.8011C167.479 63.898 167.385 63.9862 167.284 64.0643C167.177 64.148 167.067 64.2275 166.955 64.3026L168.045 65.7137C168.147 65.6248 168.246 65.5331 168.342 65.4386C168.439 65.3443 168.532 65.246 168.62 65.1438L168.868 65.4544C168.777 65.557 168.684 65.6575 168.589 65.7558C168.494 65.8524 168.395 65.9443 168.291 66.031L168.766 66.6444L168.448 66.8761ZM165.923 65.8901C165.959 65.9833 166.015 66.0677 166.087 66.1376C166.164 66.21 166.253 66.2672 166.351 66.3061C166.466 66.3499 166.589 66.3714 166.712 66.3693C166.894 66.369 167.074 66.33 167.239 66.2548C167.417 66.1746 167.587 66.0748 167.743 65.9573L166.635 64.5093C166.421 64.651 166.229 64.8215 166.062 65.0161C165.93 65.1765 165.859 65.3784 165.862 65.586C165.861 65.6904 165.883 65.7938 165.923 65.8901ZM167.265 62.6901C167.216 62.6349 167.155 62.5911 167.086 62.5616C167.018 62.5321 166.945 62.5176 166.87 62.519C166.79 62.5131 166.709 62.5257 166.635 62.5558C166.56 62.5859 166.493 62.6328 166.44 62.6927C166.342 62.8109 166.29 62.9605 166.293 63.1139C166.293 63.1831 166.306 63.2518 166.329 63.3167C166.354 63.3847 166.387 63.4496 166.427 63.5102C166.469 63.5747 166.517 63.6418 166.57 63.7248C166.623 63.8077 166.678 63.8906 166.738 63.988C166.827 63.9307 166.915 63.8706 167.001 63.8077C167.08 63.7492 167.153 63.6836 167.219 63.6116C167.281 63.5433 167.332 63.4661 167.371 63.3825C167.41 63.2961 167.429 63.2021 167.427 63.1073C167.429 62.952 167.37 62.8022 167.263 62.6901H167.265ZM171.601 66.2745H173.356V66.6602H171.17V62.228H171.601V66.2745ZM177.929 65.3491C177.749 65.7635 177.451 66.1163 177.074 66.3643C176.696 66.612 176.253 66.744 175.801 66.744C175.349 66.744 174.907 66.612 174.529 66.3643C174.151 66.1163 173.854 65.7635 173.674 65.3491C173.552 65.0627 173.489 64.7547 173.489 64.4435C173.489 64.1323 173.552 63.8243 173.674 63.5378C173.854 63.1235 174.151 62.7707 174.529 62.5227C174.907 62.2749 175.349 62.1429 175.801 62.1429C176.253 62.1429 176.696 62.2749 177.074 62.5227C177.451 62.7707 177.749 63.1235 177.929 63.5378C178.05 63.8242 178.113 64.1323 178.113 64.4435C178.113 64.7547 178.051 65.0626 177.929 65.3491ZM174.068 65.1977C174.166 65.4246 174.305 65.6306 174.48 65.8046C174.651 65.9725 174.852 66.1065 175.073 66.1995C175.304 66.2951 175.551 66.3443 175.801 66.3443C176.051 66.3443 176.298 66.2951 176.529 66.1995C176.753 66.1051 176.956 65.9683 177.128 65.7967C177.486 65.435 177.687 64.9469 177.687 64.4382C177.687 63.9295 177.486 63.4413 177.128 63.0797C176.956 62.9088 176.753 62.7725 176.529 62.6782C176.299 62.5818 176.051 62.5321 175.801 62.5321C175.551 62.5321 175.304 62.5818 175.073 62.6782C174.849 62.7723 174.646 62.9086 174.474 63.0797C174.208 63.3532 174.029 63.6982 173.957 64.0723C173.885 64.4465 173.923 64.8335 174.068 65.1859V65.1977ZM178.708 66.7365H178.257L180.142 62.1517H180.244L182.127 66.7365H181.675L181.174 65.482H179.208L178.708 66.7365ZM179.36 65.0964H181.021L180.191 63.031L179.36 65.0964ZM182.965 66.6602H182.534V62.1952L182.666 62.1517L185.655 65.7861V62.232H186.087V66.6958L185.955 66.7405L182.966 63.1113L182.965 66.6602ZM187.459 66.1626C187.631 66.2865 187.839 66.352 188.051 66.3496C188.175 66.3507 188.298 66.3292 188.414 66.2864C188.523 66.2466 188.622 66.1863 188.707 66.1086C188.789 66.0327 188.853 65.9403 188.897 65.8375C188.942 65.7246 188.965 65.6037 188.962 65.4821C188.963 65.37 188.948 65.2584 188.919 65.1503C188.887 65.0431 188.836 64.943 188.766 64.8555C188.687 64.7527 188.59 64.6637 188.482 64.5922C188.34 64.5001 188.189 64.4233 188.031 64.3632C187.744 64.2627 187.484 64.0968 187.272 63.8788C187.092 63.6737 186.998 63.4075 187.008 63.135C187.007 62.9997 187.032 62.8654 187.083 62.7401C187.133 62.6221 187.207 62.5156 187.299 62.4268C187.396 62.3358 187.51 62.2651 187.635 62.2188C187.775 62.1662 187.923 62.1403 188.072 62.1425C188.261 62.1391 188.447 62.1845 188.613 62.2741C188.777 62.3602 188.913 62.4895 189.008 62.648L188.7 62.8797C188.635 62.7726 188.543 62.6847 188.433 62.6247C188.323 62.5646 188.199 62.5345 188.074 62.5374C187.906 62.5308 187.743 62.5898 187.618 62.702C187.559 62.7569 187.513 62.8237 187.482 62.898C187.452 62.9722 187.437 63.0521 187.44 63.1324C187.436 63.3125 187.5 63.4876 187.618 63.6234C187.794 63.801 188.009 63.936 188.245 64.0183C188.585 64.1335 188.888 64.3381 189.122 64.6107C189.259 64.8064 189.347 65.0322 189.379 65.2691C189.41 65.506 189.384 65.7471 189.302 65.9718C189.244 66.123 189.154 66.2602 189.039 66.3745C188.918 66.4901 188.774 66.5797 188.617 66.6378C188.434 66.7065 188.24 66.74 188.044 66.7365C187.762 66.739 187.485 66.6633 187.243 66.518C187.002 66.374 186.813 66.1581 186.702 65.9007L187.044 65.6532C187.133 65.8578 187.276 66.0341 187.459 66.1626ZM191.806 66.6602V62.228H192.737C192.945 62.2244 193.153 62.2574 193.349 62.3254C193.517 62.3834 193.673 62.4727 193.808 62.5887C193.933 62.7007 194.031 62.8392 194.096 62.9941C194.227 63.3193 194.227 63.6826 194.096 64.0077C194.031 64.1629 193.933 64.3014 193.808 64.4132C193.674 64.5301 193.518 64.6196 193.349 64.6765C193.152 64.745 192.945 64.7785 192.737 64.7752H192.237V66.6602H191.806ZM193.482 64.1591C193.571 64.0754 193.642 63.9743 193.691 63.8621C193.739 63.7499 193.764 63.629 193.764 63.5069C193.764 63.3847 193.739 63.2639 193.691 63.1517C193.642 63.0395 193.571 62.9383 193.482 62.8546C193.268 62.6852 192.999 62.5996 192.725 62.6137H192.237V64.4H192.725C192.999 64.4141 193.268 64.3286 193.482 64.1591ZM195.221 66.2745H196.976V66.6602H194.79V62.228H195.221V66.2745ZM197.291 63.5378C197.471 63.1233 197.769 62.7709 198.148 62.5247C198.526 62.2782 198.969 62.1485 199.421 62.1517C199.719 62.1494 200.015 62.2039 200.293 62.3123C200.561 62.418 200.807 62.5739 201.016 62.7717L200.725 63.0639C200.553 62.8997 200.352 62.7686 200.133 62.6769C199.907 62.5831 199.665 62.5356 199.421 62.5374C199.17 62.5361 198.922 62.5858 198.691 62.6835C198.346 62.8305 198.052 63.0757 197.845 63.3888C197.638 63.7018 197.527 64.0689 197.527 64.4441C197.527 64.8193 197.638 65.1862 197.844 65.4992C198.051 65.8124 198.346 66.0578 198.691 66.2048C198.922 66.3016 199.17 66.3509 199.421 66.3496C199.665 66.3514 199.907 66.3039 200.133 66.21C200.352 66.1187 200.553 65.988 200.725 65.8243L201.016 66.1152C200.807 66.313 200.561 66.469 200.293 66.5746C200.016 66.6841 199.719 66.7391 199.421 66.7365C198.812 66.7399 198.227 66.5034 197.792 66.0784C197.58 65.8702 197.41 65.6231 197.291 65.3505C197.171 65.0638 197.109 64.7559 197.108 64.4448C197.108 64.1337 197.171 63.8258 197.291 63.5391V63.5378Z" fill="#272425" stroke="#272425" stroke-width="2" stroke-miterlimit="10"/>
<path d="M96.6667 30H135.035L96.7773 70V30" fill="#E22630"/>
<path d="M133.468 51.2732L121.782 51.4719L133.468 39.2812V51.2732ZM133.468 56.6412V68.1857H105.561L116.69 56.5847H133.468" fill="#272425"/>
</g>
<defs>
<clipPath id="clip0_291_3580">
<rect width="106.667" height="40" fill="white" transform="translate(96.6667 30)"/>
</clipPath>
</defs>
</svg>
