<svg width="300" height="100" viewBox="0 0 300 100" fill="none" xmlns="http://www.w3.org/2000/svg">
<rect width="300" height="100" fill="white"/>
<g clip-path="url(#clip0_298_13085)">
<mask id="mask0_298_13085" style="mask-type:luminance" maskUnits="userSpaceOnUse" x="61" y="10" width="178" height="80">
<path d="M238.143 10H61V90H238.143V10Z" fill="white"/>
</mask>
<g mask="url(#mask0_298_13085)">
<path d="M61.0586 77.1233C61.1112 77.0479 61.1868 77.0078 61.2129 76.9459C62.006 75.0759 62.7905 73.2022 63.5842 71.3323C64.3476 69.5342 65.1236 67.7416 65.8871 65.9435C66.7496 63.9119 67.6017 61.8758 68.4631 59.8436C69.2674 57.9462 70.0803 56.0525 70.8854 54.1553C71.8811 51.8089 72.8711 49.4599 73.8668 47.1135C74.729 45.0815 75.5981 43.0525 76.4599 41.0202C77.1996 39.276 77.9346 37.5298 78.6676 35.7826C78.7336 35.6255 78.831 35.58 78.9969 35.5593C79.4577 35.5018 79.7334 35.619 79.931 36.1106C80.4626 37.4338 81.0651 38.7276 81.6444 40.0309C82.1366 41.138 82.6384 42.2408 83.1303 43.348C83.7014 44.6335 84.2647 45.9225 84.8346 47.2085C85.3017 48.2625 85.7749 49.3139 86.2433 50.3673C86.9377 51.9295 87.6286 53.4933 88.3241 55.055C88.8171 56.1618 89.3184 57.2648 89.8104 58.372C90.3814 59.6575 90.9446 60.9465 91.5146 62.2325C91.9817 63.2866 92.455 64.3378 92.9233 65.3913C93.6179 66.9535 94.3091 68.517 95.004 70.079C95.3933 70.954 95.7873 71.8266 96.1783 72.7006C96.8447 74.19 97.5096 75.68 98.178 77.1685C98.2691 77.3716 98.2259 77.4539 97.9966 77.4538C95.1604 77.4503 92.3241 77.4505 89.488 77.454C89.3224 77.4543 89.2551 77.3838 89.2009 77.2326C88.6693 75.7519 88.1267 74.275 87.5963 72.7939C87.5334 72.6183 87.4516 72.5576 87.2653 72.5578C81.951 72.563 76.6367 72.5632 71.3225 72.5578C71.116 72.5575 71.0214 72.6258 70.9424 72.8206C70.3475 74.2868 69.7338 75.745 69.1404 77.2119C69.0573 77.4173 68.9452 77.4556 68.7505 77.4552C66.2047 77.4498 63.6589 77.4516 61.0858 77.4516C61.0586 77.3506 61.0586 77.2496 61.0586 77.1233ZM82.7227 60.5166C81.5424 57.3978 80.3621 54.2789 79.1603 51.1028C77.3151 55.9908 75.4956 60.8108 73.6673 65.6542C77.3461 65.6542 80.9719 65.6542 84.6541 65.6542C84.0061 63.9349 83.3703 62.2479 82.7227 60.5166Z" fill="black"/>
<path d="M238.2 77.2477C235.839 77.2754 233.477 77.2706 231.116 77.2815C230.839 77.2828 230.76 77.2078 230.76 76.9229C230.769 71.6024 230.776 66.2818 230.76 60.9612C230.754 59.5369 230.327 58.2337 229.334 57.1917C228.627 56.4501 227.741 56.0128 226.73 55.8267C225.627 55.6234 224.564 55.7339 223.534 56.1702C222.57 56.5791 221.817 57.2407 221.284 58.1582C220.777 59.0317 220.544 59.9761 220.544 60.9848C220.544 66.2858 220.544 71.5867 220.544 76.8876C220.544 77.2748 220.544 77.2752 220.171 77.2752C217.887 77.2754 215.603 77.2717 213.319 77.2805C213.071 77.2815 212.989 77.2257 212.989 76.9571C212.994 62.6345 212.994 48.3121 212.989 33.9897C212.989 33.7431 213.061 33.6759 213.3 33.6768C215.603 33.6851 217.907 33.6862 220.21 33.6758C220.479 33.6745 220.55 33.7502 220.55 34.0208C220.543 39.7931 220.544 45.5652 220.544 51.3374C220.544 51.4419 220.544 51.5467 220.544 51.6839C220.934 51.3717 221.283 51.0684 221.656 50.8001C222.794 49.9802 224.051 49.4227 225.417 49.1161C226.447 48.8845 227.493 48.7747 228.544 48.8289C230.147 48.9118 231.693 49.2558 233.119 50.0454C234.647 50.8922 235.834 52.0937 236.704 53.6212C237.473 54.9712 237.901 56.4318 238.091 57.9718C238.096 58.0035 238.134 58.0309 238.179 58.0654C238.2 64.4538 238.2 70.8369 238.2 77.2477Z" fill="black"/>
<path d="M180.214 10.0586C181.033 10.3639 181.826 10.6742 182.624 10.9736C184.307 11.6052 185.991 12.232 187.675 12.8592C189.783 13.6441 191.891 14.4289 194 15.2107C194.679 15.4626 195.363 15.7032 196.043 15.9522C196.218 16.0161 196.327 16.1348 196.326 16.3388C196.324 17.242 196.373 18.1484 196.314 19.0476C196.236 20.2245 196.042 21.3904 195.724 22.5292C195.588 23.0143 195.428 23.4923 195.276 23.9727C195.265 24.0073 195.232 24.0346 195.204 24.073C193.528 23.5723 191.856 23.0726 190.155 22.5644C190.107 22.8216 190.059 23.081 190.009 23.3401C189.752 24.6939 189.352 26.0075 188.873 27.2944C188.282 28.8795 187.587 30.4148 186.76 31.8927C186.083 33.1018 185.335 34.2587 184.514 35.3671C184.08 35.9535 183.586 36.4948 183.104 37.0434C182.745 37.4514 182.38 37.8555 181.989 38.2314C180.982 39.2015 179.874 40.0377 178.661 40.7299C177.548 41.3649 176.399 41.9219 175.172 42.2768C174.006 42.6138 172.819 42.8731 171.641 43.1661C171.555 43.1877 171.467 43.2055 171.36 43.1785C171.781 42.9305 172.216 42.7047 172.62 42.4298C173.411 41.8905 174.19 41.3332 174.962 40.7664C176.032 39.9804 176.956 39.0262 177.858 38.0569C178.822 37.0208 179.703 35.9094 180.408 34.6708C180.897 33.8109 181.378 32.9437 181.81 32.0538C182.44 30.7569 182.889 29.3859 183.189 27.9751C183.397 27.0017 183.561 26.0125 183.651 25.0217C183.75 23.9267 183.808 22.8188 183.761 21.7221C183.717 20.6986 183.519 19.6811 183.374 18.6631C183.186 17.3427 182.797 16.0744 182.349 14.8261C181.892 13.5496 181.354 12.3077 180.652 11.1454C180.44 10.7959 180.228 10.4473 180.01 10.0785C180.067 10.0586 180.129 10.0586 180.214 10.0586Z" fill="#00A557"/>
<path d="M180.38 90.0586C180.304 90.0043 180.266 89.9282 180.205 89.899C179.505 89.5623 179.376 88.815 179.945 88.2042C179.997 88.1483 180.047 88.0896 180.097 88.0332C179.65 87.553 179.784 87.0673 180.221 86.6564C179.741 86.2327 179.689 85.6902 179.832 85.1037C179.941 84.655 180.435 84.2303 180.886 84.2314C181.522 84.2329 182.158 84.2619 182.793 84.2936C182.853 84.2966 182.953 84.404 182.952 84.4627C182.952 84.5213 182.855 84.6232 182.792 84.6302C182.594 84.652 182.393 84.6382 182.161 84.6382C182.254 84.8317 182.339 84.9796 182.399 85.1372C182.613 85.7013 182.479 86.2124 182.075 86.6194C181.692 87.006 181.198 87.1094 180.682 86.9156C180.426 86.8197 180.343 86.9783 180.263 87.1436C180.161 87.3549 180.246 87.648 180.437 87.7314C180.566 87.7877 180.715 87.8083 180.857 87.8172C181.289 87.844 181.722 87.8563 182.155 87.8767C182.588 87.8973 182.885 88.099 183 88.5394C183.097 88.9104 182.909 89.3964 182.561 89.644C182.375 89.7764 182.178 89.8937 181.983 90.0383C181.456 90.0586 180.932 90.0586 180.38 90.0586ZM180.107 88.5583C179.92 88.9609 179.935 89.2156 180.28 89.4629C180.503 89.6224 180.804 89.7262 181.076 89.7446C181.61 89.7806 182.116 89.6547 182.462 89.1787C182.726 88.816 182.612 88.4392 182.19 88.296C182.073 88.2564 181.945 88.238 181.822 88.2352C181.465 88.2273 181.101 88.2726 180.75 88.2199C180.445 88.1739 180.277 88.2963 180.107 88.5583ZM180.888 84.5869C180.347 84.8206 180.148 85.1327 180.179 85.6976C180.212 86.2884 180.713 86.7169 181.281 86.6403C181.768 86.5747 182.178 85.9237 182.072 85.4124C181.957 84.8603 181.571 84.5067 180.888 84.5869Z" fill="black"/>
<path d="M123.754 90.059C123.692 90.0186 123.665 89.9621 123.621 89.94C122.801 89.5247 122.687 88.8778 123.318 88.2043C123.357 88.1627 123.39 88.1158 123.424 88.0747C123.032 87.4321 123.046 87.2347 123.494 86.7146C123.367 86.4338 123.206 86.1747 123.131 85.892C122.906 85.0414 123.538 84.2213 124.4 84.2296C124.958 84.235 125.517 84.2606 126.075 84.2934C126.146 84.2976 126.212 84.4011 126.28 84.4586C126.214 84.5187 126.155 84.6206 126.082 84.6307C125.902 84.6557 125.717 84.6388 125.58 84.6388C125.659 84.9731 125.796 85.3014 125.806 85.6336C125.835 86.5588 125.04 87.1707 124.149 86.9508C123.801 86.865 123.598 86.9757 123.555 87.2753C123.512 87.5718 123.718 87.8038 124.061 87.8171C124.399 87.8303 124.739 87.8058 125.077 87.8253C125.314 87.839 125.554 87.8821 125.785 87.9407C126.367 88.088 126.43 88.6256 126.287 89.0934C126.172 89.4716 125.881 89.7017 125.543 89.8757C125.46 89.9184 125.382 89.9704 125.298 90.0386C124.79 90.059 124.285 90.059 123.754 90.059ZM125.242 88.2331C124.885 88.233 124.528 88.2356 124.171 88.2313C124.048 88.2297 123.917 88.1761 123.806 88.2074C123.598 88.2663 123.306 88.7316 123.325 88.9648C123.349 89.247 123.498 89.4577 123.759 89.5748C124.387 89.8567 125 89.8086 125.572 89.4354C125.826 89.27 125.975 89.0098 125.928 88.683C125.883 88.3674 125.629 88.3073 125.379 88.2517C125.351 88.2454 125.322 88.2404 125.242 88.2331ZM123.537 85.7947C123.663 86.3894 124.138 86.7437 124.659 86.6311C125.164 86.5218 125.496 85.9656 125.406 85.3806C125.323 84.8451 124.827 84.495 124.279 84.5854C123.78 84.668 123.443 85.1843 123.537 85.7947Z" fill="black"/>
<path d="M165.253 46.4651C165.253 48.6045 165.253 50.7145 165.253 52.8715C165.34 52.8032 165.402 52.7652 165.45 52.7142C166.919 51.1697 168.735 50.3217 170.793 49.9374C171.904 49.7299 173.026 49.7021 174.139 49.7779C176.623 49.9474 178.885 50.7875 180.867 52.3318C182.205 53.3748 183.275 54.6621 184.116 56.1499C185.03 57.7675 185.605 59.5054 185.852 61.3421C185.988 62.3454 186.063 63.3702 186.03 64.3808C185.961 66.4861 185.547 68.5265 184.651 70.4489C184.062 71.7138 183.32 72.8658 182.384 73.9001C181.031 75.3958 179.416 76.4714 177.539 77.1568C176.437 77.5597 175.306 77.8221 174.131 77.8651C173.649 77.8828 173.166 77.9377 172.686 77.9174C170.38 77.8199 168.226 77.2237 166.378 75.7658C165.765 75.2824 165.243 74.6811 164.684 74.1377C164.682 74.1732 164.673 74.2531 164.673 74.3331C164.672 75.2167 164.667 76.1004 164.676 76.9838C164.678 77.1892 164.639 77.2809 164.408 77.2799C162.356 77.2717 160.304 77.2725 158.252 77.2791C158.045 77.2797 157.968 77.2079 157.992 77.0067C157.999 76.9485 157.993 76.8889 157.993 76.8301C157.993 62.5942 157.993 48.3585 157.994 34.1227C157.994 33.6318 157.945 33.6825 158.43 33.6822C160.598 33.6809 162.766 33.6861 164.934 33.6758C165.192 33.6745 165.259 33.7474 165.259 34.0064C165.251 38.1495 165.253 42.2925 165.253 46.4651ZM165.206 62.7212C165.202 63.2757 165.193 63.8301 165.196 64.3845C165.2 65.3135 165.393 66.2067 165.723 67.0698C166.273 68.5094 167.193 69.6357 168.541 70.3662C169.908 71.1074 171.37 71.3461 172.903 71.0924C175.56 70.6527 177.307 69.1059 178.207 66.5581C178.556 65.5669 178.689 64.5337 178.609 63.4811C178.568 62.9475 178.533 62.4085 178.428 61.8858C178.088 60.1867 177.237 58.7777 175.864 57.7558C174.151 56.4811 172.214 56.1194 170.151 56.6275C168.233 57.0999 166.817 58.2378 165.953 60.0601C165.559 60.8897 165.335 61.7627 165.206 62.7212Z" fill="black"/>
<path d="M122.527 55.9705C123.041 54.4895 123.544 53.029 124.06 51.5732C124.092 51.4818 124.224 51.364 124.31 51.3638C127.059 51.3539 129.807 51.3569 132.556 51.3592C132.583 51.3593 132.61 51.3768 132.68 51.4012C132.566 51.6702 132.461 51.9375 132.34 52.1973C131.482 54.0409 130.62 55.8822 129.763 57.7256C129.169 59.0016 128.58 60.28 127.989 61.557C127.225 63.2066 126.46 64.8558 125.696 66.5053C125.104 67.7823 124.514 69.0598 123.922 70.3368C123.158 71.9863 122.393 73.6356 121.629 75.285C121.333 75.9235 121.027 76.5576 120.748 77.2035C120.649 77.4319 120.501 77.4702 120.292 77.4533C120.081 77.4363 119.877 77.5029 119.739 77.2183C118.964 75.6259 118.166 74.0458 117.375 72.4615C116.589 70.886 115.802 69.3106 115.016 67.7352C114.246 66.1949 113.477 64.6546 112.708 63.1145C112.669 63.037 112.627 62.9615 112.568 62.8509C112.515 62.9356 112.474 62.9936 112.441 63.0566C111.584 64.7145 110.729 66.3736 109.871 68.031C109.125 69.4712 108.375 70.9095 107.628 72.3486C106.866 73.8138 106.105 75.2792 105.343 76.744C105.312 76.8043 105.255 76.8558 105.239 76.919C105.098 77.4579 104.705 77.5228 104.255 77.4446C104.142 77.4252 103.991 77.3458 103.948 77.2513C103.441 76.1408 102.954 75.0213 102.458 73.9058C102.057 73.004 101.649 72.1055 101.248 71.2038C100.561 69.6598 99.8799 68.1135 99.1923 66.5699C98.6914 65.4453 98.1817 64.3249 97.6804 63.2005C97.0799 61.8535 96.4857 60.5035 95.8856 59.156C95.4802 58.2458 95.0672 57.3389 94.6616 56.4285C94.0616 55.0812 93.4657 53.7319 92.8667 52.3842C92.7243 52.0635 92.5764 51.7455 92.4119 51.3842C92.5217 51.372 92.6009 51.3555 92.68 51.3555C95.5062 51.3542 98.3324 51.3568 101.159 51.3499C101.384 51.3493 101.476 51.4393 101.551 51.6446C102.562 54.4269 103.584 57.2055 104.599 59.9862C105.092 61.3352 105.578 62.6872 106.067 64.0375C106.089 64.0992 106.12 64.1579 106.169 64.2673C106.242 64.128 106.297 64.0293 106.347 63.928C108.364 59.8378 110.381 55.7472 112.396 51.6563C112.479 51.4889 112.537 51.3378 112.786 51.3429C113.024 51.3478 113.098 51.4742 113.187 51.6482C114.132 53.5148 115.081 55.3793 116.03 57.2438C116.593 58.3502 117.158 59.4556 117.723 60.5608C118.355 61.7949 118.988 63.0283 119.635 64.2898C119.908 63.5012 120.172 62.7383 120.437 61.9758C121.131 59.981 121.824 57.9865 122.527 55.9705Z" fill="black"/>
<path d="M201.86 76.4706C200.621 77.168 199.312 77.6019 197.934 77.7893C197.009 77.9152 196.08 77.9549 195.139 77.881C193.935 77.7866 192.77 77.5637 191.658 77.097C190.029 76.4139 188.727 75.3396 187.854 73.7622C187.228 72.6289 186.932 71.4147 186.911 70.1164C186.895 69.088 186.999 68.086 187.362 67.12C187.795 65.9663 188.498 65.0124 189.443 64.24C190.908 63.0434 192.617 62.447 194.452 62.2024C195.318 62.0869 196.197 62.0362 197.071 62.0254C199.104 62.0004 201.137 62.0102 203.17 62.0253C203.475 62.0276 203.539 61.9333 203.534 61.6437C203.521 60.783 203.556 59.9233 203.294 59.0836C202.839 57.6254 201.845 56.7519 200.421 56.378C199.858 56.2302 199.264 56.1386 198.683 56.1392C196.861 56.1407 195.205 56.7002 193.78 57.8662C193.121 58.4057 192.516 59.0136 191.893 59.5979C191.81 59.6754 191.768 59.797 191.685 59.9337C190.354 58.3326 189.103 56.8282 187.842 55.3116C187.996 55.1229 188.134 54.9367 188.289 54.7667C189.727 53.1892 191.36 51.8794 193.308 51.0009C194.602 50.4166 195.95 50.0062 197.363 49.8897C198.439 49.801 199.526 49.7214 200.6 49.7819C202.668 49.898 204.636 50.4372 206.389 51.6043C207.644 52.4393 208.629 53.537 209.36 54.8727C210.083 56.1919 210.509 57.6027 210.671 59.0953C210.753 59.8413 210.836 60.5922 210.839 61.3412C210.853 66.5252 210.846 71.7092 210.846 76.8932C210.846 77.2747 210.846 77.2752 210.467 77.2752C208.453 77.2753 206.44 77.2704 204.427 77.2812C204.169 77.2824 204.096 77.209 204.103 76.9499C204.12 76.2347 204.109 75.5189 204.109 74.7176C203.428 75.4556 202.672 75.9839 201.86 76.4706ZM194.455 68.4666C193.845 69.9483 194.5 71.527 196.032 72.1236C197.002 72.5012 197.987 72.5769 199.008 72.399C200.315 72.1714 201.438 71.6243 202.312 70.5879C203.132 69.6172 203.525 68.4987 203.534 67.225C203.536 66.956 203.449 66.9003 203.202 66.9017C201.451 66.9117 199.7 66.899 197.95 66.9124C197.49 66.916 197.025 66.9526 196.572 67.033C195.684 67.1909 194.922 67.5734 194.455 68.4666Z" fill="black"/>
<path d="M147.674 51.9816C149.322 52.5276 150.719 53.4342 151.83 54.7502C152.96 56.0879 153.627 57.6683 153.914 59.3943C154.063 60.295 154.144 61.2177 154.149 62.131C154.171 67.0493 154.159 71.9679 154.159 76.8863C154.159 77.275 154.159 77.2754 153.788 77.2754C151.949 77.2756 150.11 77.2756 148.271 77.2754C147.887 77.2754 147.887 77.2752 147.886 76.8993C147.886 76.2616 147.886 75.624 147.886 74.9257C147.749 75.027 147.637 75.0923 147.545 75.18C146.196 76.4744 144.584 77.2296 142.784 77.6376C141.61 77.9039 140.422 77.9256 139.242 77.8484C137.452 77.7316 135.771 77.2076 134.326 76.0772C132.87 74.937 132.026 73.4273 131.734 71.5824C131.541 70.3614 131.622 69.1666 131.982 67.9949C132.244 67.1454 132.677 66.3856 133.279 65.728C134.603 64.2806 136.284 63.5526 138.159 63.1857C139.281 62.966 140.41 62.896 141.549 62.9C143.117 62.9056 144.685 62.9034 146.253 62.8999C146.589 62.899 146.925 62.8782 147.261 62.8666C147.276 62.527 147.325 62.1847 147.298 61.8487C147.253 61.2974 147.208 60.7374 147.075 60.2039C146.78 59.0199 146.015 58.2337 144.908 57.779C144.32 57.5377 143.709 57.4474 143.076 57.4159C141.912 57.3576 140.779 57.4903 139.737 58.0234C139.062 58.3689 138.42 58.7983 137.816 59.2623C137.266 59.686 136.788 60.2072 136.277 60.6849C136.222 60.7364 136.163 60.7839 136.071 60.8634C134.89 59.4433 133.719 58.0362 132.554 56.6346C135.576 52.5033 141.497 50.129 147.674 51.9816ZM144.895 67.4964C143.546 67.5354 142.191 67.3967 140.846 67.6144C140.305 67.702 139.787 67.8702 139.364 68.2269C138.34 69.0899 138.258 70.7343 139.181 71.7117C140.031 72.6114 141.147 72.7872 142.29 72.7764C142.968 72.77 143.636 72.6027 144.283 72.3436C146.119 71.6074 147.351 69.7616 147.31 67.7604C147.306 67.554 147.245 67.4896 147.043 67.4924C146.347 67.5027 145.65 67.4964 144.895 67.4964Z" fill="black"/>
<path d="M177.065 42.7101C177.96 42.2956 178.854 41.9298 179.706 41.4819C181.159 40.7185 182.53 39.8218 183.829 38.8021C184.979 37.8982 186.048 36.9072 187.021 35.8202C187.783 34.9676 188.486 34.0501 189.129 33.1006C189.811 32.0938 190.455 31.0489 190.995 29.9589C191.551 28.8368 191.96 27.6401 192.433 26.4759C192.461 26.4059 192.487 26.3346 192.518 26.2529C196.135 27.3644 199.74 28.4721 203.377 29.5899C199.929 35.0331 195.368 39.1756 189.575 41.8594C183.776 44.5464 177.688 45.3276 171.389 44.4989C171.384 44.4731 171.38 44.4474 171.375 44.4216C171.687 44.3562 171.999 44.2951 172.309 44.2245C172.631 44.1514 172.957 44.0898 173.269 43.9871C174.53 43.5729 175.787 43.1448 177.065 42.7101Z" fill="#00A557"/>
<path d="M132.737 85.6278C132.879 86.2954 133.017 86.9383 133.16 87.6033C133.465 86.4074 133.764 85.2364 134.063 84.0654C134.142 83.7533 134.223 83.4415 134.302 83.1293C134.34 82.9811 134.378 82.8601 134.58 82.8654C134.776 82.8705 134.84 82.9513 134.886 83.1333C135.256 84.5988 135.638 86.0613 136.035 87.5938C136.139 87.1148 136.235 86.6931 136.322 86.2697C136.541 85.2101 136.757 84.15 136.971 83.0893C137.026 82.8154 137.206 82.8604 137.435 82.9028C137.372 83.2115 137.315 83.5121 137.249 83.8104C136.945 85.1813 136.638 86.5514 136.332 87.9218C136.296 88.0844 136.284 88.2431 136.042 88.24C135.819 88.2371 135.781 88.1181 135.735 87.9381C135.378 86.5284 135.011 85.1215 134.647 83.7138C134.638 83.6795 134.623 83.6465 134.585 83.5374C134.534 83.7105 134.5 83.8148 134.473 83.921C134.123 85.2823 133.771 86.6431 133.428 88.0063C133.383 88.186 133.293 88.232 133.123 88.2385C132.938 88.2458 132.887 88.14 132.856 87.9985C132.491 86.3615 132.127 84.7243 131.765 83.0865C131.753 83.0327 131.763 82.9737 131.763 82.9188C132.118 82.8264 132.147 82.8418 132.217 83.1717C132.389 83.982 132.561 84.7927 132.737 85.6278Z" fill="black"/>
<path d="M88.8209 82.8716C89.406 82.8943 89.9686 82.8013 90.5125 83.018C90.9859 83.2064 91.2337 83.5737 91.2663 84.0847C91.3017 84.6396 91.1066 85.0506 90.5936 85.3513C91.0457 85.5064 91.4035 85.7231 91.5342 86.1593C91.7762 86.966 91.5105 87.9744 90.2875 88.156C89.6145 88.2558 88.9206 88.2167 88.2362 88.2208C88.1796 88.2213 88.0759 88.0743 88.073 87.993C88.0572 87.5323 88.0653 87.0708 88.0653 86.6096C88.0652 85.4713 88.0732 84.3327 88.0593 83.1946C88.056 82.9328 88.13 82.8357 88.386 82.8684C88.5193 82.8856 88.6565 82.8716 88.8209 82.8716ZM88.8579 85.5814C88.721 85.6001 88.5269 85.5086 88.5289 85.7791C88.5336 86.4171 88.5259 87.0554 88.5377 87.6934C88.5389 87.7559 88.6417 87.8706 88.6956 87.8694C89.1867 87.8598 89.6847 87.8733 90.1655 87.7894C90.4412 87.7413 90.7563 87.5848 90.9356 87.3738C91.465 86.7504 91.1977 85.8851 90.4065 85.6946C89.9272 85.579 89.4126 85.614 88.8579 85.5814ZM88.5886 83.2454C88.5705 83.2786 88.5369 83.3116 88.5366 83.3447C88.5322 83.9138 88.5259 84.4831 88.5396 85.0518C88.5412 85.112 88.6669 85.22 88.7339 85.2191C89.1283 85.2138 89.534 85.2337 89.9126 85.144C90.2037 85.075 90.5442 84.9216 90.7159 84.6926C91.1242 84.148 90.7584 83.3967 90.053 83.2957C89.5882 83.2291 89.1113 83.2488 88.5886 83.2454Z" fill="black"/>
<path d="M109.081 84.226C109.442 84.324 109.776 84.4221 110.132 84.5265C110.119 84.4267 110.082 84.2721 110.08 84.1171C110.072 83.6173 110.079 83.1173 110.075 82.6173C110.074 82.4774 110.107 82.3988 110.268 82.3965C110.433 82.3943 110.486 82.459 110.485 82.6217C110.482 84.4157 110.483 86.2097 110.484 88.0035C110.484 88.1337 110.468 88.263 110.305 88.2214C110.236 88.204 110.176 88.0978 110.14 88.019C110.114 87.9638 110.135 87.8865 110.135 87.8668C109.799 88.0081 109.473 88.2113 109.122 88.2794C108.206 88.457 107.571 87.9117 107.388 87.138C107.215 86.4048 107.198 85.68 107.606 85.0113C107.934 84.4718 108.407 84.1771 109.081 84.226ZM107.867 87.1907C108.377 88.2717 109.412 88.0558 109.988 87.3997C110.045 87.3355 110.072 87.224 110.073 87.134C110.08 86.5071 110.079 85.8803 110.073 85.2534C110.073 85.1717 110.049 85.0743 110.001 85.0114C109.572 84.4507 108.573 84.4617 108.143 85.0198C107.639 85.6741 107.587 86.3868 107.867 87.1907Z" fill="black"/>
<path d="M161.873 88.2284C161.635 88.2648 161.588 88.1581 161.59 87.9611C161.598 87.1668 161.603 86.3721 161.587 85.5781C161.583 85.3697 161.542 85.1412 161.447 84.9599C161.269 84.6174 160.882 84.4645 160.528 84.6325C160.205 84.7855 159.92 85.0291 159.637 85.2554C159.573 85.3056 159.565 85.4508 159.564 85.5525C159.558 86.3566 159.56 87.1609 159.561 87.9651C159.562 88.1102 159.57 88.2359 159.36 88.2365C159.157 88.2371 159.153 88.1218 159.153 87.9711C159.155 86.2058 159.154 84.4404 159.154 82.6751C159.154 82.5374 159.131 82.4006 159.346 82.3956C159.574 82.3905 159.562 82.5275 159.562 82.6824C159.56 83.3747 159.561 84.0669 159.561 84.7939C159.774 84.6424 159.949 84.5094 160.132 84.3899C160.606 84.0802 161.404 84.1504 161.719 84.5811C161.876 84.7945 161.978 85.0971 161.987 85.3638C162.02 86.2452 162.002 87.1286 161.996 88.0112C161.995 88.0831 161.933 88.1544 161.873 88.2284Z" fill="black"/>
<path d="M197.662 86.9368C197.662 86.4367 197.665 85.966 197.661 85.4952C197.656 84.7678 197.084 84.3715 196.441 84.6832C196.17 84.8144 195.939 85.0394 195.713 85.2478C195.645 85.3107 195.634 85.4611 195.633 85.5718C195.626 86.3661 195.63 87.1604 195.629 87.9548C195.629 88.0901 195.658 88.2308 195.44 88.2371C195.216 88.2435 195.221 88.1114 195.222 87.9535C195.223 86.1982 195.223 84.4428 195.222 82.6874C195.222 82.5364 195.202 82.3934 195.433 82.3965C195.673 82.3998 195.628 82.5611 195.628 82.7008C195.63 83.3858 195.629 84.0707 195.629 84.8047C195.775 84.6967 195.889 84.6148 196 84.5294C196.568 84.0934 197.382 84.0812 197.763 84.5562C197.927 84.7607 198.044 85.0615 198.055 85.324C198.091 86.2051 198.067 87.0887 198.07 87.9712C198.07 88.1214 198.067 88.2377 197.863 88.2372C197.654 88.2368 197.66 88.1122 197.661 87.9665C197.664 87.6331 197.662 87.2997 197.662 86.9368Z" fill="black"/>
<path d="M202.192 86.3477C201.875 86.3477 201.588 86.3477 201.301 86.3477C201.299 87.1301 201.677 87.7254 202.288 87.8954C202.714 88.0143 203.133 87.9468 203.517 87.7275C203.647 87.6533 203.761 87.6001 203.811 87.7738C203.833 87.8497 203.774 88.0057 203.707 88.044C202.6 88.6727 201.195 88.277 200.912 86.8183C200.771 86.0937 200.87 85.4233 201.317 84.8181C201.676 84.3321 202.312 84.1044 202.946 84.2568C203.508 84.392 203.897 84.835 203.989 85.4537C204.019 85.6557 204.03 85.8604 204.05 86.0638C204.073 86.2857 203.966 86.3544 203.759 86.3507C203.246 86.3416 202.734 86.3477 202.192 86.3477ZM201.388 85.5156C201.351 85.6628 201.313 85.8101 201.267 85.9943C201.925 85.9943 202.541 85.9943 203.158 85.9943C203.684 85.9943 203.684 85.9943 203.584 85.4663C203.451 84.7616 202.778 84.3944 202.129 84.6734C201.768 84.8284 201.551 85.118 201.388 85.5156Z" fill="black"/>
<path d="M186.773 88.3312C185.53 88.1858 185.012 87.0442 185.162 85.9268C185.234 85.3889 185.444 84.9466 185.841 84.5745C186.379 84.0701 187.695 84.0075 188.113 84.9918C188.274 85.3725 188.326 85.7586 188.313 86.1655C188.307 86.3643 188.182 86.3475 188.055 86.3475C187.339 86.3473 186.622 86.3469 185.906 86.3476C185.576 86.3479 185.531 86.403 185.598 86.722C185.818 87.78 186.762 88.2443 187.72 87.7666C187.805 87.7242 187.892 87.6869 187.98 87.6468C188.155 87.826 188.189 87.9468 187.936 88.075C187.573 88.259 187.199 88.3536 186.773 88.3312ZM185.742 85.3166C185.695 85.4548 185.642 85.5913 185.601 85.7315C185.555 85.8889 185.578 85.9973 185.782 85.9956C186.418 85.9903 187.054 85.9979 187.691 85.9878C187.762 85.9868 187.878 85.9165 187.894 85.8565C187.986 85.5133 187.691 84.8908 187.376 84.7245C186.769 84.4038 186.227 84.589 185.742 85.3166Z" fill="black"/>
<path d="M140.76 87.631C141.296 88.0548 141.847 88.039 142.402 87.7397C142.639 87.6117 142.755 87.6544 142.803 87.9423C142.188 88.3591 141.531 88.4803 140.845 88.1603C140.155 87.8384 139.845 87.2471 139.813 86.4897C139.788 85.9317 139.836 85.3953 140.168 84.92C140.692 84.1698 141.678 83.9763 142.392 84.5051C142.778 84.791 142.92 85.2217 142.946 85.6828C142.982 86.3468 142.97 86.3475 142.328 86.3475C141.718 86.3475 141.108 86.3588 140.499 86.3425C140.225 86.3353 140.19 86.4485 140.24 86.6811C140.317 87.0463 140.462 87.3675 140.76 87.631ZM140.967 84.7027C140.497 84.9824 140.295 85.421 140.219 85.9704C141.025 85.9704 141.799 85.9704 142.574 85.9704C142.541 84.6937 141.724 84.3663 140.967 84.7027Z" fill="black"/>
<path d="M145.827 84.9485C145.56 85.0987 145.595 84.8498 145.499 84.7444C146.054 84.2695 146.68 84.1314 147.353 84.2609C147.847 84.3559 148.171 84.8647 148.176 85.4685C148.182 86.2929 148.179 87.1175 148.176 87.9421C148.176 88.0692 148.225 88.2345 148 88.2324C147.771 88.2302 147.844 88.0594 147.829 87.9364C147.824 87.8979 147.822 87.8594 147.814 87.7725C147.681 87.8544 147.568 87.9175 147.461 87.9901C147.052 88.2688 146.61 88.3789 146.12 88.2882C145.738 88.2174 145.436 87.9315 145.347 87.5439C145.244 87.0909 145.408 86.5862 145.726 86.3528C146.197 86.0068 146.75 85.9085 147.302 85.8217C147.813 85.7411 147.839 85.7215 147.713 85.2222C147.586 84.7241 147.19 84.4681 146.668 84.5985C146.383 84.6698 146.118 84.8224 145.827 84.9485ZM145.779 86.9744C145.64 87.5702 145.918 87.9305 146.51 87.9404C146.956 87.9478 147.303 87.7321 147.628 87.4625C147.886 87.2488 147.732 86.9492 147.769 86.6895C147.782 86.5937 147.76 86.4925 147.773 86.3965C147.811 86.1182 147.657 86.0747 147.444 86.1209C147.144 86.1864 146.843 86.2534 146.55 86.3437C146.231 86.4418 145.939 86.5922 145.779 86.9744Z" fill="black"/>
<path d="M174.921 88.2858C174.107 88.0481 173.736 87.4725 173.614 86.6817C173.51 86.0044 173.615 85.3817 174.034 84.8313C174.757 83.8804 176.309 84.0308 176.81 85.1351C177.203 85.999 177.209 86.8893 176.618 87.6893C176.202 88.2518 175.607 88.3881 174.921 88.2858ZM175.618 84.6213C175.209 84.508 174.867 84.6301 174.547 84.8983C173.861 85.4727 173.848 86.8671 174.434 87.5574C174.748 87.9268 175.353 88.0486 175.786 87.84C176.292 87.5967 176.513 87.1523 176.607 86.6327C176.743 85.8893 176.466 84.9124 175.618 84.6213Z" fill="black"/>
<path d="M96.7767 85.9939C96.7767 85.484 96.7795 85.0036 96.7751 84.5232C96.7737 84.3756 96.7968 84.2816 96.9768 84.2818C97.1507 84.2819 97.1855 84.363 97.1851 84.5169C97.1815 85.6739 97.1864 86.8309 97.1761 87.9878C97.1754 88.0692 97.0865 88.2029 97.0164 88.2205C96.828 88.2676 96.833 88.1108 96.8345 87.9789C96.8357 87.8849 96.8348 87.7908 96.8348 87.6562C96.649 87.8066 96.5065 87.9332 96.353 88.0439C96.0087 88.2923 95.6313 88.3796 95.2095 88.2932C94.8577 88.221 94.5975 88.0415 94.4861 87.6948C94.4125 87.4652 94.3491 87.2212 94.344 86.9822C94.3265 86.1786 94.3381 85.3743 94.3367 84.5703C94.3364 84.4178 94.3201 84.2775 94.5491 84.2813C94.7905 84.2855 94.7424 84.4489 94.7428 84.5873C94.7451 85.303 94.7391 86.0189 94.747 86.7346C94.7491 86.938 94.768 87.1459 94.8138 87.3433C94.9395 87.8852 95.5487 88.1242 96.069 87.815C96.3055 87.6745 96.504 87.4622 96.7018 87.264C96.7588 87.207 96.7711 87.0863 96.7734 86.994C96.7817 86.6706 96.7767 86.3469 96.7767 85.9939Z" fill="black"/>
<path d="M119.719 87.6417C119.719 86.926 119.73 86.239 119.712 85.5528C119.706 85.3451 119.648 85.123 119.556 84.937C119.417 84.6557 119.012 84.518 118.696 84.6025C118.307 84.707 118.006 84.9495 117.758 85.2575C117.699 85.3297 117.689 85.4571 117.689 85.5592C117.684 86.3635 117.684 87.168 117.687 87.9722C117.688 88.1235 117.683 88.238 117.479 88.2372C117.269 88.2367 117.278 88.11 117.279 87.9654C117.28 86.8374 117.278 85.7092 117.281 84.5812C117.281 84.4567 117.225 84.2882 117.452 84.2864C117.679 84.2845 117.619 84.4515 117.627 84.5777C117.632 84.6552 117.628 84.7335 117.628 84.8482C117.843 84.6921 118.028 84.5464 118.224 84.4175C118.659 84.1307 119.137 84.1372 119.578 84.3474C119.994 84.5454 120.113 84.9767 120.121 85.4127C120.136 86.2658 120.124 87.1194 120.127 87.9728C120.127 88.1244 120.121 88.2381 119.918 88.2372C119.708 88.2365 119.715 88.1091 119.718 87.965C119.721 87.867 119.719 87.7688 119.719 87.6417Z" fill="black"/>
<path d="M170.015 87.6992C170.015 87.7871 170.02 87.8464 170.014 87.9047C170.001 88.0452 170.083 88.2325 169.817 88.2364C169.557 88.2401 169.61 88.0627 169.609 87.9152C169.608 86.5132 169.61 85.1112 169.608 83.7092C169.607 83.1594 169.672 83.2304 169.128 83.2258C168.8 83.2231 168.471 83.2227 168.142 83.2264C168.008 83.228 167.89 83.1974 167.935 83.0378C167.954 82.9685 168.068 82.8797 168.14 82.879C169.251 82.869 170.363 82.8727 171.474 82.8711C171.603 82.8708 171.734 82.889 171.688 83.0522C171.667 83.1258 171.542 83.2138 171.461 83.2175C171.075 83.2348 170.688 83.2391 170.302 83.2202C170.065 83.2085 170.009 83.2967 170.011 83.5232C170.019 84.9055 170.015 86.288 170.015 87.6992Z" fill="black"/>
<path d="M191.447 83.4169C191.463 83.7143 191.384 84.0703 191.523 84.2281C191.643 84.3644 192.012 84.2754 192.271 84.2856C192.309 84.2871 192.348 84.2877 192.387 84.2856C192.518 84.2783 192.646 84.3089 192.598 84.4691C192.571 84.5597 192.46 84.6767 192.375 84.6874C192.137 84.7174 191.893 84.7031 191.651 84.6967C191.503 84.6927 191.442 84.7503 191.446 84.9031C191.468 85.7536 191.476 86.6049 191.511 87.4547C191.527 87.8267 191.847 88.0141 192.255 87.9281C192.358 87.9066 192.457 87.8666 192.554 87.8359C192.722 88.1093 192.7 88.1824 192.432 88.2626C191.77 88.4607 191.201 88.1936 191.109 87.6273C191.067 87.3686 191.047 87.1039 191.043 86.8413C191.034 86.2531 191.027 85.6643 191.046 85.0766C191.055 84.7961 191.003 84.6434 190.687 84.6921C190.62 84.7024 190.496 84.6534 190.478 84.6027C190.435 84.4797 190.44 84.3621 190.634 84.3409C191.099 84.2897 191.098 84.2801 191.098 83.825C191.098 83.6779 191.08 83.5274 191.106 83.385C191.12 83.3059 191.195 83.1963 191.263 83.1771C191.422 83.1329 191.455 83.2549 191.447 83.4169Z" fill="black"/>
<path d="M155.064 87.7095C155.028 86.8176 154.989 85.9478 154.98 85.0778C154.977 84.8028 154.942 84.6386 154.622 84.6943C154.501 84.7156 154.392 84.6959 154.391 84.5193C154.391 84.3399 154.503 84.3519 154.624 84.3415C154.993 84.3092 155.031 84.2642 155.031 83.8939C155.032 83.7468 155.028 83.5995 155.032 83.4523C155.036 83.3231 154.988 83.1598 155.213 83.1662C155.441 83.1726 155.372 83.3441 155.378 83.4666C155.386 83.6429 155.395 83.8215 155.376 83.9961C155.35 84.2412 155.457 84.3046 155.677 84.2881C155.879 84.2729 156.083 84.2909 156.286 84.2833C156.441 84.2776 156.485 84.3501 156.486 84.4961C156.487 84.6522 156.421 84.7031 156.276 84.6986C156.053 84.6921 155.83 84.7061 155.608 84.6945C155.427 84.6852 155.376 84.7628 155.377 84.9369C155.384 85.6532 155.375 86.3698 155.384 87.0861C155.386 87.2493 155.421 87.4172 155.469 87.5739C155.564 87.8829 155.83 88.0061 156.196 87.9249C156.298 87.9023 156.396 87.8641 156.492 87.8342C156.651 88.1162 156.627 88.1903 156.357 88.2642C155.715 88.4396 155.139 88.1916 155.064 87.7095Z" fill="black"/>
<path d="M104.032 88.1011C103.989 87.8587 103.927 87.638 103.926 87.4171C103.917 85.8464 103.921 84.2758 103.921 82.7051C103.921 82.5464 103.893 82.3968 104.142 82.3927C104.401 82.3884 104.387 82.536 104.387 82.7125C104.385 84.3322 104.386 85.952 104.386 87.5717C104.386 87.7347 104.35 87.9072 104.592 87.9574C104.658 87.9711 104.697 88.1194 104.759 88.2245C104.469 88.3524 104.235 88.387 104.032 88.1011Z" fill="black"/>
<path d="M151.255 83.1665C151.255 82.9802 151.258 82.8232 151.255 82.6664C151.252 82.5205 151.248 82.3959 151.456 82.3955C151.661 82.3951 151.663 82.5118 151.663 82.6618C151.661 84.1332 151.662 85.6045 151.662 87.0759C151.662 87.2624 151.666 87.4488 151.661 87.6351C151.656 87.7959 151.674 87.9224 151.874 87.9535C151.927 87.9618 152.001 88.0789 151.998 88.1422C151.995 88.2024 151.912 88.2858 151.847 88.3099C151.557 88.4172 151.269 88.1771 151.258 87.8159C151.248 87.5024 151.255 87.1881 151.255 86.8742C151.255 85.6481 151.255 84.4219 151.255 83.1665Z" fill="black"/>
<path d="M207.696 84.377C207.954 84.3191 208.194 84.2599 208.439 84.2384C208.494 84.2334 208.561 84.359 208.623 84.4244C208.549 84.4951 208.474 84.6274 208.401 84.6269C207.706 84.6217 207.187 85.1286 207.187 85.8429C207.186 86.5389 207.187 87.2349 207.186 87.9309C207.184 88.0691 207.233 88.2327 206.991 88.237C206.763 88.2411 206.779 88.1011 206.779 87.9484C206.78 86.821 206.78 85.6937 206.78 84.5664C206.78 84.4337 206.746 84.2773 206.967 84.2859C207.173 84.2939 207.119 84.4449 207.129 84.5624C207.136 84.6556 207.139 84.749 207.147 84.8857C207.349 84.6969 207.513 84.5431 207.696 84.377Z" fill="black"/>
<path d="M113.678 86.7009C113.678 85.9765 113.677 85.2816 113.679 84.5868C113.68 84.4485 113.632 84.2856 113.873 84.2813C114.101 84.2773 114.086 84.4165 114.086 84.5693C114.084 85.6949 114.084 86.8205 114.085 87.9459C114.085 88.0963 114.106 88.2395 113.876 88.2369C113.637 88.234 113.68 88.0746 113.679 87.9342C113.677 87.5329 113.678 87.1316 113.678 86.7009Z" fill="black"/>
<path d="M100.378 85.9354C100.378 85.4459 100.38 84.9859 100.376 84.5259C100.375 84.3815 100.392 84.2819 100.575 84.2822C100.745 84.2825 100.787 84.3567 100.786 84.5135C100.782 85.6781 100.782 86.8428 100.786 88.0074C100.787 88.1662 100.741 88.2362 100.573 88.2365C100.388 88.2368 100.376 88.1331 100.377 87.9908C100.379 87.3155 100.378 86.6401 100.378 85.9354Z" fill="black"/>
<path d="M113.581 83.2455C113.614 83.0754 113.621 82.8925 113.714 82.7928C113.772 82.7302 113.986 82.7488 114.085 82.8084C114.261 82.9144 114.308 83.0948 114.165 83.2818C114.032 83.4564 113.801 83.4502 113.581 83.2455Z" fill="black"/>
<path d="M100.703 83.3955C100.545 83.3478 100.334 83.3285 100.297 83.2365C100.249 83.1208 100.301 82.8599 100.387 82.8164C100.505 82.7562 100.764 82.7829 100.838 82.8752C100.965 83.0334 100.968 83.2648 100.703 83.3955Z" fill="black"/>
</g>
</g>
<defs>
<clipPath id="clip0_298_13085">
<rect width="177.143" height="80" fill="white" transform="translate(61 10)"/>
</clipPath>
</defs>
</svg>
