<svg width="300" height="100" viewBox="0 0 300 100" fill="none" xmlns="http://www.w3.org/2000/svg">
<rect width="300" height="100" fill="white"/>
<g clip-path="url(#clip0_291_3587)">
<path d="M82.9763 68.488H46V64.7025H46.8112L47.6224 64.6349L47.8252 64.2969L48.7715 63.0125L51.2051 59.8354L51.9487 58.889H57.4241L57.6945 59.8354L57.9649 60.917L58.0325 61.0522L57.5593 61.593C56.822 62.6825 55.9846 63.7009 55.0582 64.6349L56.3425 64.7025H57.6269L57.8297 64.2969C58.0969 63.777 58.4385 63.2987 58.8437 62.8773C59.0628 63.4449 59.2214 64.034 59.3169 64.6349L60.6688 64.7025H61.9532L62.0208 64.6349C62.1884 64.3474 62.3462 64.0543 62.494 63.7561L63.2376 62.9449C63.4405 63.5131 63.5766 64.1029 63.6432 64.7025C64.7701 64.701 65.897 64.6785 67.0231 64.6349L66.8203 64.2969C66.4147 63.5533 66.4823 63.6209 65.6711 61.1874L65.3331 60.0382L65.7387 59.4298L66.2119 58.889H71.6874L72.0929 60.1734C72.4955 61.6555 72.8786 63.1428 73.2421 64.6349L74.9997 64.7025C75.5639 64.6429 76.1273 64.5753 76.6896 64.4997L75.9461 62.7421C74.6381 58.8241 73.488 54.8551 72.4985 50.8448H69.727L69.5918 51.0476L68.9834 52.1292L64.6571 57.8751L64.2515 56.4555C65.74 54.5682 67.2498 52.6979 68.7806 50.8448H66.0091L65.9415 50.9124V51.0476C65.8739 51.3856 65.8063 51.5884 65.5359 51.9264L63.3728 54.6303L63.2376 54.2924C62.9729 53.1869 62.7025 52.0827 62.4264 50.98V50.8448H59.0465L59.1141 51.0476C59.8599 53.006 60.5363 54.9901 61.142 56.9963L60.2632 58.1455C59.576 55.9021 58.9224 53.6486 58.3029 51.3856L58.2353 50.9124V50.8448H55.3286L55.0582 51.4532L54.585 52.332C53.1004 54.4568 51.5448 56.5309 49.9207 58.551C48.6633 60.2168 47.3788 61.8619 46.0676 63.4857H46V31.5117H80.8131L69.4566 46.2482C68.5645 47.4325 67.6857 48.6269 66.8203 49.8309H68.9158L71.9578 45.9102L74.1209 43.071L82.9763 31.5117V68.488ZM61.2096 61.1198L60.9392 60.1734L61.818 59.0242L61.9532 59.227L62.4264 60.579L62.494 60.7142L62.3588 60.917L61.5476 61.9986L61.2096 61.1198ZM53.3006 57.1315C53.9719 56.2716 54.6479 55.4153 55.3286 54.5627C55.5496 54.2594 55.7527 53.9434 55.937 53.6164V53.8868L56.0045 54.3599C56.2234 55.2981 56.4943 56.2234 56.8157 57.1315C55.6443 57.1672 54.472 57.1672 53.3006 57.1315ZM67.5639 57.1315C68.713 55.7119 69.6594 54.4951 69.9974 53.8868L70.1326 53.6164L70.2002 53.9544V54.4275C70.4344 55.3393 70.705 56.2414 71.0114 57.1315H71.079H67.4963H67.5639Z" fill="#103083"/>
<path d="M68.9834 50.0337L66.2119 49.9661L80.7456 31.5117H82.9763L68.9834 50.0337Z" fill="#FC1721"/>
<path d="M94.13 63.3504L99.6055 47.0592H103.594L109.002 63.3504H105.825L104.54 59.3621H98.2535L96.9691 63.3504H94.13ZM101.431 49.5604L98.9971 57.1314H103.797L101.431 49.5604ZM109.61 63.3504L114.883 54.9682L110.016 47.0592H113.396L116.911 52.8727L120.358 47.0592H123.468L118.668 54.9006L123.873 63.3504H120.426L116.573 56.9962L112.72 63.3504H109.61ZM124.549 63.3504L130.025 47.0592H134.013L139.353 63.3504H136.244L134.892 59.3621H128.673L127.388 63.3504H124.549ZM131.782 49.5604L129.416 57.1314H134.216L131.782 49.5604ZM145.978 63.3504V47.0592H150.034L154.36 58.213L158.551 47.0592H162.539V63.3504H159.498V51.0475L154.63 63.3504H153.684L148.682 51.0475V63.3504H145.978ZM164.365 63.3504L169.84 47.0592H173.828L179.236 63.3504H176.059L174.775 59.3621H168.488L167.204 63.3504H164.365ZM171.665 49.5604L169.232 57.1314H174.031L171.665 49.5604ZM181.061 63.3504V47.0592H184.644L191.539 58.8213V47.0592H194.311V63.3504H191.201L183.833 50.8447V63.3504H181.061ZM202.963 63.6208C200.8 63.6208 199.245 63.1476 198.164 62.2012C197.625 61.6976 197.191 61.0914 196.89 60.4181C196.588 59.7449 196.424 59.0181 196.406 58.2805H199.313C199.448 59.2945 199.786 60.0381 200.259 60.5113C200.8 61.0521 201.679 61.3225 202.963 61.3225C203.842 61.3225 204.586 61.1197 205.194 60.6465C205.735 60.1733 206.073 59.5649 206.073 58.8213C206.073 58.0778 205.802 57.4694 205.329 57.1314C204.856 56.7934 203.977 56.523 202.625 56.3202C200.597 56.0498 199.11 55.509 198.231 54.833C197.353 54.1571 196.879 53.0079 196.879 51.5207C196.879 50.1688 197.42 49.0872 198.434 48.2084C199.516 47.3296 200.868 46.8564 202.558 46.8564C204.315 46.8564 205.735 47.262 206.749 48.0732C207.763 48.8844 208.371 50.0336 208.506 51.5883H205.735C205.6 50.7095 205.262 50.1012 204.721 49.7632C204.248 49.3576 203.504 49.1548 202.558 49.1548C201.679 49.1548 201.003 49.3576 200.462 49.7632C199.989 50.1012 199.786 50.6419 199.786 51.2503C199.786 51.9939 199.989 52.5347 200.395 52.8727C200.868 53.2107 201.814 53.4811 203.166 53.6839C205.194 53.9543 206.681 54.4274 207.56 55.171C208.506 55.847 208.98 56.9962 208.98 58.5509C208.98 59.9705 208.439 61.1873 207.29 62.1336C206.079 63.1436 204.539 63.673 202.963 63.6208ZM209.385 63.3504L214.861 47.0592H218.849L224.257 63.3504H221.08L219.795 59.3621H213.509L212.292 63.3504H209.385ZM216.686 49.5604L214.252 57.1314H219.052L216.686 49.5604ZM226.082 63.3504V47.0592H231.557C233.45 47.0592 234.937 47.4648 236.019 48.276C237.1 49.0196 237.641 50.2364 237.641 51.8587V51.9263C237.641 54.2247 236.424 55.7118 233.991 56.3202L238.655 63.3504H235.343L231.017 56.7934H229.124V63.3504H226.082ZM229.124 54.6302H231.557C233.653 54.6302 234.667 53.7515 234.667 51.9939V51.9263C234.667 51.0475 234.396 50.3716 233.856 50.0336C233.315 49.628 232.571 49.4252 231.557 49.4252H229.124V54.6302ZM243.387 60.9845H245.212C246.97 60.9845 248.322 60.5113 249.268 59.4973C250.147 58.5509 250.62 57.1314 250.62 55.2386V55.1034C250.62 51.3179 248.795 49.4252 245.145 49.4252H243.387V60.9845ZM240.345 63.3504V47.0592H245.347C248.119 47.0592 250.214 47.8028 251.634 49.2224C253.054 50.6419 253.797 52.6023 253.797 55.0358V55.2386C253.797 57.7398 253.054 59.7001 251.634 61.1873C250.147 62.6068 248.051 63.3504 245.28 63.3504H240.345Z" fill="#103083"/>
<path d="M94.3328 63.3504L99.8082 47.0592H103.797L109.137 63.3504H106.027L104.675 59.3621H98.4563L97.1719 63.3504H94.3328ZM101.566 49.5604L99.1998 57.1314H103.999L101.566 49.5604ZM109.813 63.3504L115.085 54.9682L110.151 47.0592H113.598L117.113 52.8727L120.561 47.0592H123.67L118.871 54.9006L124.076 63.3504H120.629L116.775 56.9962L112.922 63.3504H109.813ZM124.752 63.3504L130.16 47.0592H134.148L139.556 63.3504H136.447L135.095 59.3621H128.875L127.591 63.3504H124.752ZM131.985 49.5604L129.551 57.1314H134.419L131.985 49.5604ZM146.181 63.3504V47.0592H150.237L154.495 58.213L158.754 47.0592H162.742V63.3504H159.7V51.0475L154.833 63.3504H153.887L148.885 51.0475V63.3504H146.181ZM164.567 63.3504L170.043 47.0592H174.031L179.439 63.3504H176.262L174.978 59.3621H168.691L167.407 63.3504H164.567ZM171.868 49.5604L169.434 57.1314H174.234L171.868 49.5604ZM181.197 63.3504V47.0592H184.847L191.742 58.8213V47.0592H194.513V63.3504H191.336L183.968 50.8447V63.3504H181.197ZM203.166 63.6208C201.003 63.6208 199.381 63.1476 198.367 62.2012C197.827 61.6976 197.394 61.0914 197.092 60.4181C196.791 59.7449 196.626 59.0181 196.609 58.2805H199.516C199.651 59.2945 199.921 60.0381 200.462 60.5113C201.003 61.0521 201.882 61.3225 203.166 61.3225C204.045 61.3225 204.788 61.1197 205.397 60.6465C205.938 60.1733 206.208 59.5649 206.208 58.8213C206.208 58.0778 206.005 57.4694 205.532 57.1314C205.059 56.7934 204.18 56.523 202.828 56.3202C200.8 56.0498 199.313 55.509 198.434 54.833C197.488 54.1571 197.082 53.0079 197.082 51.5207C197.082 50.1688 197.623 49.0872 198.637 48.2084C199.719 47.3296 201.07 46.8564 202.76 46.8564C204.518 46.8564 205.938 47.262 206.952 48.0732C207.966 48.8844 208.574 50.0336 208.709 51.5883H205.938C205.735 50.7095 205.464 50.1012 204.924 49.7632C204.45 49.3576 203.707 49.1548 202.76 49.1548C201.882 49.1548 201.138 49.3576 200.665 49.7632C200.192 50.1012 199.921 50.6419 199.921 51.2503C199.921 51.9939 200.192 52.5347 200.597 52.8727C201.07 53.2107 201.949 53.4811 203.301 53.6839C205.329 53.9543 206.816 54.4274 207.763 55.171C208.709 55.847 209.182 56.9962 209.182 58.5509C209.182 59.9705 208.641 61.1873 207.492 62.1336C206.282 63.1436 204.742 63.673 203.166 63.6208ZM209.588 63.3504L215.063 47.0592H219.052L224.46 63.3504H221.282L219.998 59.3621H213.711L212.427 63.3504H209.588ZM216.888 49.5604L214.455 57.1314H219.254L216.888 49.5604ZM226.285 63.3504V47.0592H231.76C233.653 47.0592 235.14 47.4648 236.222 48.276C237.303 49.0196 237.844 50.2364 237.844 51.8587V51.9263C237.844 54.2247 236.627 55.7118 234.194 56.3202L238.79 63.3504H235.546L231.219 56.7934H229.327V63.3504H226.285ZM229.327 54.6302H231.76C233.788 54.6302 234.87 53.7515 234.87 51.9939V51.9263C234.87 51.0475 234.599 50.3716 234.058 50.0336C233.518 49.628 232.774 49.4252 231.76 49.4252H229.327V54.6302ZM243.59 60.9845H245.415C247.173 60.9845 248.525 60.5113 249.471 59.4973C250.35 58.5509 250.823 57.1314 250.823 55.2386V55.1034C250.823 51.3179 248.998 49.4252 245.347 49.4252H243.59V60.9845ZM240.548 63.3504V47.0592H245.55C248.322 47.0592 250.417 47.8028 251.837 49.2224C253.256 50.6419 254 52.6023 254 55.0358V55.2386C254 57.7398 253.256 59.7001 251.837 61.1873C250.35 62.6068 248.254 63.3504 245.483 63.3504H240.548Z" fill="#103083"/>
</g>
<defs>
<clipPath id="clip0_291_3587">
<rect width="208" height="36.9763" fill="white" transform="translate(46 31.5117)"/>
</clipPath>
</defs>
</svg>
