<svg width="300" height="100" viewBox="0 0 300 100" fill="none" xmlns="http://www.w3.org/2000/svg">
<rect width="300" height="100" fill="white"/>
<g clip-path="url(#clip0_298_13029)">
<path d="M219.376 45.2775L219.513 39.3465H213.814V60.9647H219.513V51.7668C219.513 45.8791 223.651 43.9876 228.11 44.5892V39.3032C224.202 38.5704 220.386 40.255 219.376 45.2775Z" fill="#23231E"/>
<path d="M105.305 38.8302C102.087 38.8302 99.5132 40.0768 97.7656 42.3113V30.8789H92.0656V60.961H97.7656V57.9985C99.5132 60.2295 102.087 61.4808 105.305 61.4808C111.51 61.4808 115.923 56.7952 115.923 50.1771C115.923 43.5146 111.51 38.8302 105.305 38.8302ZM103.787 57.101C100.064 57.101 97.4438 54.2648 97.4438 50.182C97.4438 46.0559 100.064 43.2198 103.787 43.2198C107.465 43.2198 110.177 46.1414 110.177 50.182C110.177 54.1733 107.465 57.101 103.787 57.101Z" fill="#23231E"/>
<path d="M137.491 47.3829C137.491 42.2256 133.491 38.7012 127.791 38.7012C122.091 38.7012 117.955 42.1799 117.682 46.9533H123.194C123.425 44.418 125.171 42.9993 127.607 42.9993C130.274 42.9993 131.836 44.6322 131.836 47.2541V48.1133L127.562 48.4575C120.667 48.9737 116.989 51.509 116.989 55.5062C116.989 59.1161 119.977 61.4373 124.344 61.4373C128.022 61.4373 131.009 59.589 132.113 57.0104C132.113 58.7298 132.251 59.9752 132.48 60.9644H138.042C137.72 59.3737 137.491 56.8817 137.491 54.5604V47.3829ZM131.929 52.1961C131.929 55.4617 129.446 57.7396 126.274 57.7396C124.252 57.7396 122.689 56.7938 122.689 54.9034C122.689 52.7977 124.574 51.7653 127.975 51.4224L131.929 51.0349V52.1961Z" fill="#23231E"/>
<path d="M204.851 42.3113C203.105 40.0768 200.531 38.8302 197.312 38.8302C191.106 38.8302 186.693 43.5146 186.693 50.1338C186.693 56.7952 191.106 61.4808 197.312 61.4808C200.529 61.4808 203.103 60.2342 204.851 57.9985V60.9646H210.55V30.8789H204.851V42.3113ZM198.828 57.101C195.152 57.101 192.439 54.1782 192.439 50.1387C192.439 46.1414 195.152 43.2198 198.828 43.2198C202.552 43.2198 205.172 46.0559 205.172 50.1387C205.172 54.2599 202.552 57.101 198.828 57.101Z" fill="#23231E"/>
<path d="M240.531 38.7012C233.496 38.7012 228.44 43.4722 228.44 50.1324C228.44 56.8371 233.496 61.6081 240.531 61.6081C247.517 61.6081 252.572 56.8371 252.572 50.1324C252.571 43.4722 247.517 38.7012 240.531 38.7012ZM240.531 57.0957C236.76 57.0957 234.186 54.2163 234.186 50.1337C234.186 46.0941 236.76 43.2147 240.531 43.2147C244.252 43.2147 246.826 46.0941 246.826 50.1337C246.826 54.2128 244.252 57.1006 240.531 57.1006V57.0957Z" fill="#23231E"/>
<path d="M268.077 38.8301C264.859 38.8301 262.286 40.0767 260.538 42.3112V39.3463H254.839V69.1337H260.538V57.9984C262.286 60.2342 264.859 61.4808 268.077 61.4808C274.284 61.4808 278.696 56.795 278.696 50.1771C278.696 43.5145 274.284 38.8301 268.077 38.8301ZM266.56 57.1008C262.837 57.1008 260.216 54.2646 260.216 50.1818C260.216 46.0558 262.837 43.2197 266.56 43.2197C270.239 43.2197 272.95 46.1412 272.95 50.1818C272.95 54.1731 270.239 57.1008 266.56 57.1008Z" fill="#23231E"/>
<path d="M178.752 48.8644C184.088 46.388 185.712 41.5797 186.193 38.7015H180.069C179.67 43.008 175.514 47.039 170.786 47.039H170.633V30.8789H165.025V60.961H170.633V51.4034H170.801C176.361 51.4034 180.662 55.6149 180.662 60.8154C180.662 60.8672 180.662 60.9201 180.662 60.9719H187.003C187.003 60.9719 186.368 52.6488 178.752 48.8644Z" fill="#23231E"/>
<path d="M151.465 56.8823C148.063 56.8823 145.075 54.3891 145.075 50.1343C145.075 46.2236 147.742 43.3863 151.465 43.3863C154.498 43.3863 156.888 45.3211 157.211 48.0286L162.818 47.5954C162.497 42.3081 157.624 38.6982 151.465 38.6982C144.523 38.6982 139.422 43.5547 139.422 50.1294C139.422 56.7908 144.478 61.6053 151.465 61.6053C157.716 61.6053 162.589 57.8654 162.865 52.364L157.207 51.9825C156.888 54.9907 154.361 56.8823 151.465 56.8823Z" fill="#23231E"/>
<path d="M37.649 30.8691C28.1423 30.8691 21.3047 37.4138 21.3047 46.554C21.3047 55.7519 28.1423 62.2966 37.649 62.2966C47.0979 62.2966 53.9355 55.7519 53.9355 46.554C53.9393 37.4138 47.1017 30.8691 37.649 30.8691Z" fill="#FF0B6F"/>
<path d="M37.622 37.2764C35.4376 37.2764 33.3426 38.0877 31.7979 39.5319C30.2533 40.9762 29.3855 42.9349 29.3855 44.9774C29.3855 49.2321 33.5926 53.1838 37.622 55.8852C41.6553 53.1838 45.8586 49.2321 45.8586 44.9774C45.8586 42.9349 44.9907 40.9762 43.4461 39.5319C41.9015 38.0877 39.8064 37.2764 37.622 37.2764ZM37.622 49.0998C36.7668 49.0998 35.9307 48.8627 35.2196 48.4184C34.5085 47.9742 33.9543 47.3428 33.627 46.604C33.2997 45.8652 33.2141 45.0523 33.3809 44.2681C33.5478 43.4838 33.9596 42.7634 34.5644 42.1979C35.1691 41.6325 35.9396 41.2474 36.7784 41.0914C37.6172 40.9354 38.4867 41.0155 39.2768 41.3215C40.0669 41.6275 40.7422 42.1457 41.2174 42.8106C41.6927 43.4755 41.9462 44.2572 41.9462 45.0568C41.9462 46.1291 41.4906 47.1574 40.6796 47.9156C39.8687 48.6739 38.7688 49.0998 37.622 49.0998Z" fill="#FFFDF8"/>
<path d="M68.6558 30.8691C59.1452 30.8691 52.3115 37.4138 52.3115 46.554C52.3115 55.7519 59.149 62.2966 68.6558 62.2966C78.1033 62.2966 84.9409 55.7519 84.9409 46.554C84.9409 37.4138 78.1033 30.8691 68.6558 30.8691Z" fill="#FF0B6F"/>
<path d="M78.0066 46.1902V46.9748C75.8289 47.4564 73.8376 48.4953 72.2558 49.9753C70.6741 51.4553 69.5642 53.3179 69.0508 55.3544H68.2102C67.6963 53.3172 66.5856 51.4541 65.0026 49.9739C63.4195 48.4939 61.4269 47.4553 59.248 46.9748V46.1902C61.4269 45.7096 63.4195 44.6711 65.0026 43.191C66.5856 41.7109 67.6963 39.8478 68.2102 37.8105H69.0508C69.5647 39.8478 70.6755 41.7109 72.2584 43.191C73.8416 44.6711 75.8341 45.7096 78.013 46.1902" fill="#FFFDF8"/>
</g>
<defs>
<clipPath id="clip0_298_13029">
<rect width="257.391" height="40" fill="white" transform="translate(21.3047 30)"/>
</clipPath>
</defs>
</svg>
