<svg width="300" height="100" viewBox="0 0 300 100" fill="none" xmlns="http://www.w3.org/2000/svg">
<rect width="300" height="100" fill="white"/>
<g clip-path="url(#clip0_298_13023)">
<path d="M190.164 47.4815C190.164 50.8232 189.618 54.0152 188.601 57.0077C185.401 52.2696 183.515 46.5588 183.515 40.3992C183.515 37.0576 184.061 33.8656 185.078 30.873C188.278 35.5863 190.164 41.3219 190.164 47.4815Z" fill="#07775D"/>
<path d="M190.213 57.2569C192.496 42.1696 202.171 31.9451 218.296 30C215.493 47.3317 204.255 55.8354 190.213 57.2569Z" fill="#07775D"/>
<path d="M221 68.9522C218.42 69.7004 215.815 69.9996 213.012 69.9996C205.644 69.9996 198.896 67.2814 193.712 62.7677C192.446 61.6704 191.256 60.4485 190.189 59.1268C190.164 59.1019 190.139 59.052 190.115 59.027C190.139 59.027 190.164 59.0021 190.189 59.0021C192.744 58.2789 195.448 57.8799 198.227 57.8799C207.48 57.9048 215.617 62.2689 221 68.9522Z" fill="#07775D"/>
<path d="M86.7897 55.4615C88.675 55.4615 90.2379 56.1349 91.5031 57.4565C92.7683 58.8032 93.3885 60.5239 93.3885 62.6685C93.3885 64.8132 92.7435 66.5588 91.4783 67.9304C90.2876 69.277 88.5758 70.0251 86.7897 69.9753C85.7725 70.0002 84.7554 69.7259 83.8871 69.2022C83.0685 68.6785 82.3739 67.9802 81.9025 67.1324V69.7508H79V50.873H81.9025V58.2047C82.3739 57.3817 83.0685 56.7084 83.8871 56.2346C84.7554 55.7109 85.7725 55.4366 86.7897 55.4615ZM89.1712 66.1598C90.0147 65.287 90.4364 64.1149 90.4364 62.6685C90.4364 61.2221 90.0147 60.075 89.1712 59.2521C88.3774 58.4291 87.2858 57.9802 86.1695 58.0052C85.0283 57.9802 83.9368 58.4541 83.1677 59.277C82.3242 60.1249 81.9025 61.272 81.9025 62.7184C81.9025 64.1648 82.3242 65.3119 83.1677 66.1847C83.9368 67.0077 85.0283 67.4815 86.1695 67.4815C87.3106 67.4566 88.3029 67.0326 89.1712 66.1598ZM97.2089 67.9304C95.9437 66.5588 95.2987 64.8132 95.2987 62.6685C95.2987 60.5239 95.9437 58.8032 97.2089 57.4565C98.4741 56.1099 100.062 55.4615 101.922 55.4615C102.94 55.4366 103.957 55.7109 104.85 56.2097C105.668 56.6835 106.338 57.3568 106.81 58.1797V55.686H109.737V69.7508H106.785V67.1074C106.313 67.9553 105.644 68.6785 104.825 69.2022C103.957 69.7259 102.94 70.0002 101.922 69.9753C100.111 70.0251 98.3997 69.277 97.2089 67.9304ZM105.52 66.1847C106.363 65.3368 106.785 64.1648 106.785 62.7184C106.785 61.272 106.363 60.1249 105.52 59.277C103.907 57.6062 101.253 57.5563 99.6153 59.1772C99.5905 59.2022 99.5657 59.2271 99.5409 59.2521C98.6974 60.075 98.2757 61.2221 98.2757 62.6685C98.2757 64.1149 98.6974 65.262 99.5409 66.1598C100.384 67.0326 101.377 67.4815 102.543 67.4815C103.659 67.4815 104.75 67.0077 105.52 66.1847ZM116.41 55.7109V57.9304C117.328 56.2845 118.841 55.4865 120.9 55.4865C121.917 55.4615 122.935 55.7358 123.803 56.2595C124.671 56.7832 125.341 57.5563 125.738 58.479C126.209 57.5812 126.904 56.8082 127.797 56.2845C128.69 55.7608 129.732 55.4865 130.774 55.4865C132.386 55.4865 133.701 56.0102 134.743 57.0575C135.785 58.1049 136.306 59.5762 136.306 61.4964V69.8007H133.404V61.9453C133.404 60.6984 133.081 59.7259 132.461 59.0526C131.841 58.3792 130.972 58.0551 129.881 58.0551C128.789 58.0551 127.946 58.3792 127.301 59.0526C126.681 59.7259 126.358 60.6984 126.358 61.9453V69.8007H123.48V61.9453C123.48 60.6984 123.158 59.7259 122.538 59.0526C121.917 58.3792 121.049 58.0551 119.958 58.0551C118.866 58.0551 117.998 58.3792 117.378 59.0526C116.733 59.7259 116.435 60.6984 116.435 61.9453V69.8007H113.533V55.7358H116.41V55.7109ZM147.767 55.4615C149.653 55.4615 151.216 56.1349 152.481 57.4565C153.746 58.8032 154.366 60.5239 154.366 62.6685C154.366 64.8132 153.721 66.5588 152.456 67.9304C151.265 69.277 149.554 70.0251 147.767 69.9753C146.75 70.0002 145.733 69.7259 144.865 69.2022C144.046 68.6785 143.352 67.9802 142.88 67.1324V69.7508H139.978V50.873H142.88V58.2047C143.352 57.3817 144.046 56.7084 144.865 56.2346C145.733 55.7109 146.75 55.4615 147.767 55.4615ZM150.124 66.1598C150.967 65.287 151.389 64.1149 151.389 62.6685C151.389 61.2221 150.967 60.075 150.124 59.2521C149.33 58.4291 148.239 57.9802 147.122 58.0052C145.981 57.9802 144.89 58.4541 144.121 59.277C143.277 60.1249 142.855 61.272 142.855 62.7184C142.855 64.1648 143.277 65.3119 144.121 66.1847C144.89 67.0077 145.981 67.4815 147.122 67.4815C148.263 67.4566 149.281 67.0326 150.124 66.1598ZM163.322 70.0002C161.288 70.0002 159.601 69.3269 158.261 68.0052C156.946 66.6585 156.276 64.9129 156.276 62.7433C156.276 60.5738 156.971 58.8281 158.335 57.4815C159.7 56.1348 161.412 55.4865 163.446 55.4865C165.48 55.4865 167.192 56.1598 168.556 57.4815C169.921 58.8281 170.615 60.5738 170.615 62.7184C170.615 64.888 169.921 66.6336 168.507 67.9802C167.093 69.3269 165.381 70.0002 163.322 70.0002ZM166.348 66.2595C167.192 65.4117 167.614 64.2396 167.614 62.7184C167.614 61.1972 167.192 60.0251 166.373 59.1772C165.604 58.3543 164.513 57.9054 163.371 57.9054C162.255 57.8805 161.188 58.3543 160.419 59.1772C159.625 60.0251 159.229 61.1972 159.229 62.7184C159.229 64.2396 159.625 65.4366 160.395 66.2595C161.139 67.0825 162.205 67.5563 163.322 67.5314C164.463 67.5563 165.554 67.0825 166.348 66.2595ZM179.571 70.0002C177.537 70.0002 175.85 69.3269 174.51 68.0052C173.195 66.6585 172.525 64.9129 172.525 62.7433C172.525 60.5738 173.22 58.8281 174.585 57.4815C175.949 56.1348 177.661 55.4865 179.695 55.4865C181.729 55.4865 183.441 56.1598 184.805 57.4815C186.17 58.8281 186.864 60.5738 186.864 62.7184C186.864 64.888 186.17 66.6336 184.756 67.9802C183.342 69.3269 181.605 70.0002 179.571 70.0002ZM182.573 66.2595C183.416 65.4117 183.838 64.2396 183.838 62.7184C183.838 61.1972 183.416 60.0251 182.597 59.1772C181.828 58.3543 180.737 57.9054 179.596 57.9054C178.479 57.8805 177.413 58.3543 176.644 59.1772C175.85 60.0251 175.453 61.1972 175.453 62.7184C175.453 64.2396 175.85 65.4366 176.619 66.2595C177.363 67.0825 178.43 67.5563 179.546 67.5314C180.712 67.5563 181.804 67.1074 182.573 66.2595Z" fill="#242424"/>
</g>
<defs>
<clipPath id="clip0_298_13023">
<rect width="142" height="40" fill="white" transform="translate(79 30)"/>
</clipPath>
</defs>
</svg>
