<svg width="300" height="100" viewBox="0 0 300 100" fill="none" xmlns="http://www.w3.org/2000/svg">
<rect width="300" height="100" fill="white"/>
<g clip-path="url(#clip0_298_13011)">
<path d="M119.662 41.0808C117.502 41.0808 115.738 41.6817 114.356 42.8675C114.239 42.9728 114.084 43.0272 113.926 43.0187C113.768 43.0103 113.62 42.9397 113.514 42.8225C113.417 42.7151 113.363 42.5753 113.363 42.4305V34.4481C113.36 34.2924 113.296 34.1441 113.185 34.0349C113.074 33.9257 112.925 33.8641 112.769 33.8633H108.945C108.787 33.8633 108.636 33.9259 108.525 34.0374C108.413 34.1489 108.35 34.3001 108.35 34.4578V60.4871C108.35 60.6448 108.413 60.796 108.525 60.9075C108.636 61.0189 108.787 61.0816 108.945 61.0816H112.769C112.927 61.0816 113.078 61.0189 113.189 60.9075C113.301 60.796 113.363 60.6448 113.363 60.4871V60.2783C113.364 60.1635 113.398 60.0516 113.461 59.9557C113.524 59.86 113.614 59.7844 113.718 59.7383C113.823 59.6921 113.939 59.6772 114.053 59.6954C114.166 59.7137 114.271 59.7643 114.356 59.8412C115.738 61.0333 117.502 61.6279 119.662 61.6279C120.927 61.6383 122.18 61.3784 123.336 60.8658C124.493 60.3531 125.526 59.5996 126.368 58.6554C128.217 56.6845 129.216 54.0652 129.148 51.364C129.21 48.6578 128.213 46.0345 126.368 44.0532C125.528 43.1076 124.494 42.353 123.337 41.8403C122.18 41.3276 120.927 41.0686 119.662 41.0808ZM122.599 55.2908C122.094 55.7951 121.492 56.1913 120.829 56.4553C120.166 56.7194 119.456 56.8458 118.743 56.8269C118.029 56.8514 117.317 56.7275 116.654 56.4632C115.99 56.1987 115.388 55.7996 114.887 55.2908C114.38 54.7705 113.985 54.1527 113.724 53.475C113.463 52.7971 113.343 52.0736 113.37 51.3479C113.341 50.6216 113.461 49.8971 113.722 49.2187C113.983 48.5402 114.379 47.922 114.887 47.4017C115.387 46.8917 115.989 46.4917 116.653 46.2273C117.317 45.9628 118.029 45.8396 118.743 45.8657C119.456 45.8452 120.167 45.9711 120.83 46.2352C121.493 46.4993 122.095 46.8963 122.599 47.4017C123.11 47.9203 123.51 48.5378 123.773 49.2164C124.037 49.8951 124.159 50.6204 124.132 51.3479C124.158 52.0748 124.036 52.7996 123.773 53.4776C123.509 54.1556 123.11 54.7727 122.599 55.2908Z" fill="#296CF0"/>
<path d="M150.452 41.6302H146.631C146.553 41.6293 146.476 41.6439 146.403 41.6729C146.331 41.7021 146.265 41.7452 146.209 41.7997C146.153 41.8543 146.109 41.9195 146.078 41.9912C146.048 42.063 146.031 42.1401 146.03 42.2182V42.4367C146.03 42.5944 145.968 42.7456 145.856 42.8572C145.745 42.9686 145.594 43.0312 145.436 43.0312C145.289 43.0341 145.146 42.98 145.037 42.8803C143.645 41.6784 141.865 41.0774 139.697 41.0774C138.437 41.067 137.191 41.3273 136.041 41.8407C134.891 42.3541 133.865 43.1086 133.032 44.0532C131.181 46.0433 130.254 48.4739 130.252 51.3446C130.25 54.2153 131.177 56.6457 133.032 58.636C133.866 59.5787 134.893 60.3316 136.042 60.8444C137.192 61.3571 138.438 61.6176 139.697 61.6085C141.863 61.6085 143.643 61.0076 145.037 59.8057C145.095 59.7531 145.163 59.7124 145.236 59.686C145.31 59.6596 145.388 59.6479 145.466 59.6518C145.544 59.6557 145.62 59.675 145.69 59.7086C145.761 59.7422 145.824 59.7894 145.876 59.8475C145.976 59.9576 146.031 60.1007 146.03 60.2492V60.4677C146.032 60.626 146.096 60.7772 146.209 60.8885C146.321 60.9998 146.473 61.0622 146.631 61.0622H150.452C150.61 61.0614 150.761 60.9985 150.873 60.8873C150.985 60.7761 151.048 60.6254 151.05 60.4677V42.2182C151.048 42.0612 150.984 41.9111 150.872 41.8008C150.76 41.6907 150.609 41.6293 150.452 41.6302ZM144.498 55.2908C143.993 55.7949 143.39 56.1911 142.727 56.4552C142.065 56.7192 141.355 56.8457 140.641 56.8268C139.928 56.8493 139.217 56.7245 138.553 56.4603C137.89 56.196 137.288 55.7979 136.785 55.2908C136.28 54.7697 135.885 54.1518 135.625 53.4741C135.365 52.7965 135.245 52.0732 135.272 51.3478C135.244 50.6219 135.365 49.8981 135.625 49.2198C135.885 48.5416 136.28 47.9231 136.785 47.4016C137.287 46.8934 137.889 46.4945 138.553 46.2302C139.216 45.9659 139.928 45.8416 140.641 45.8655C141.355 45.8452 142.065 45.9709 142.728 46.235C143.391 46.4992 143.994 46.8961 144.498 47.4016C145.009 47.9201 145.408 48.5377 145.672 49.2164C145.935 49.8949 146.057 50.6203 146.03 51.3478C146.057 52.0748 145.935 52.7995 145.671 53.4775C145.408 54.1556 145.008 54.7726 144.498 55.2908Z" fill="#296CF0"/>
<path d="M163.929 41.0812C161.906 41.0812 160.3 41.6115 159.109 42.6719C159.002 42.7671 158.865 42.8207 158.723 42.823C158.567 42.8163 158.421 42.7496 158.313 42.6369C158.206 42.5243 158.147 42.3744 158.148 42.2188C158.148 42.062 158.085 41.9116 157.974 41.8007C157.864 41.6899 157.713 41.6276 157.556 41.6276H153.726C153.647 41.6262 153.569 41.6406 153.497 41.6697C153.424 41.6989 153.357 41.7422 153.302 41.7973C153.246 41.8523 153.201 41.918 153.171 41.9903C153.141 42.0627 153.125 42.1404 153.125 42.2188V60.4715C153.125 60.6292 153.188 60.7804 153.299 60.8918C153.411 61.0033 153.562 61.066 153.72 61.066H157.547C157.704 61.066 157.856 61.0033 157.967 60.8918C158.079 60.7804 158.141 60.6292 158.141 60.4715V50.5739C158.141 48.9671 158.529 47.7631 159.305 46.962C159.711 46.5541 160.198 46.2358 160.735 46.0277C161.272 45.8196 161.846 45.7262 162.422 45.7536C162.933 45.7286 163.444 45.8071 163.925 45.9844C164.405 46.1616 164.845 46.434 165.217 46.7852C165.918 47.4728 166.269 48.4637 166.271 49.7576V60.4715C166.271 60.5492 166.286 60.6261 166.315 60.698C166.344 60.7699 166.388 60.8353 166.442 60.8905C166.497 60.9457 166.562 60.9896 166.633 61.0197C166.705 61.0499 166.782 61.0655 166.859 61.066H170.69C170.848 61.066 170.999 61.0033 171.11 60.8918C171.222 60.7804 171.284 60.6292 171.284 60.4715V49.131C171.284 46.6181 170.587 44.6483 169.192 43.2214C168.512 42.5181 167.693 41.9645 166.786 41.5959C165.88 41.2274 164.907 41.0521 163.929 41.0812Z" fill="#296CF0"/>
<path d="M183.286 51.605C183.201 51.4984 183.154 51.3657 183.154 51.229C183.154 51.0923 183.201 50.9596 183.286 50.853L190.003 42.5976C190.072 42.51 190.116 42.4045 190.128 42.2935C190.14 42.1823 190.121 42.0699 190.072 41.9693C190.024 41.8687 189.947 41.7837 189.853 41.7243C189.758 41.6649 189.648 41.6335 189.537 41.6335H185.096C185.005 41.6329 184.915 41.6531 184.833 41.6927C184.751 41.7322 184.679 41.79 184.623 41.8617L179.183 48.8445C179.086 48.9695 178.944 49.0511 178.788 49.0715C178.631 49.092 178.473 49.0497 178.347 48.9538C178.274 48.8991 178.215 48.8276 178.175 48.7455C178.134 48.6634 178.114 48.5729 178.116 48.4815V34.4481C178.113 34.2924 178.049 34.1441 177.937 34.0349C177.826 33.9257 177.677 33.8641 177.521 33.8633H173.694C173.616 33.8633 173.538 33.8788 173.466 33.9089C173.394 33.939 173.329 33.9831 173.274 34.0387C173.219 34.0943 173.175 34.1603 173.146 34.2327C173.117 34.3052 173.102 34.3828 173.103 34.461V60.4903C173.107 60.6443 173.171 60.7906 173.282 60.898C173.392 61.0055 173.54 61.0656 173.694 61.0656H177.518C177.676 61.0656 177.827 61.0028 177.938 60.8914C178.05 60.7799 178.113 60.6287 178.113 60.4711V53.9315C178.113 53.8531 178.128 53.7753 178.158 53.7028C178.188 53.6303 178.232 53.5644 178.288 53.5089C178.343 53.4535 178.409 53.4093 178.482 53.3794C178.554 53.3493 178.632 53.3338 178.71 53.3338C178.799 53.3351 178.886 53.3554 178.966 53.3937C179.046 53.4321 179.117 53.4873 179.173 53.5556L185.012 60.8567C185.07 60.9232 185.142 60.977 185.222 61.0146C185.302 61.0522 185.389 61.0728 185.478 61.0752H189.762C189.876 61.0778 189.989 61.0472 190.087 60.9871C190.185 60.9268 190.263 60.8396 190.312 60.7361C190.361 60.6324 190.38 60.5168 190.365 60.4031C190.35 60.2893 190.302 60.1824 190.228 60.0951L183.286 51.605Z" fill="#296CF0"/>
<path d="M195.989 33.8635H192.161C192.085 33.8614 192.009 33.8744 191.937 33.9019C191.866 33.9294 191.801 33.9709 191.745 34.0238C191.69 34.0767 191.646 34.14 191.615 34.2101C191.585 34.2803 191.568 34.3558 191.567 34.4323V60.4937C191.57 60.6483 191.634 60.7953 191.746 60.9024C191.857 61.0096 192.007 61.0683 192.161 61.0658H195.989C196.143 61.0675 196.291 61.0084 196.402 60.9012C196.513 60.7941 196.577 60.6477 196.581 60.4937V34.4259C196.575 34.2733 196.51 34.1288 196.4 34.0236C196.289 33.9184 196.142 33.8609 195.989 33.8635Z" fill="#296CF0"/>
<path d="M217.124 41.663C217.063 41.6429 216.999 41.632 216.934 41.6309H212.849C212.725 41.63 212.602 41.6687 212.501 41.7414C212.399 41.8142 212.324 41.9172 212.285 42.0358L208.64 53.1159C208.589 53.266 208.48 53.3894 208.338 53.4593C208.196 53.5293 208.032 53.5398 207.881 53.4887C207.8 53.4614 207.725 53.4165 207.662 53.3571C207.599 53.2976 207.55 53.2253 207.519 53.1448L203.2 42.0101C203.156 41.8976 203.079 41.8011 202.98 41.7334C202.879 41.6656 202.761 41.6299 202.64 41.6309H198.463C198.306 41.6309 198.156 41.6926 198.045 41.8028C197.934 41.9128 197.87 42.0624 197.869 42.219C197.869 42.2987 197.885 42.3774 197.917 42.4503L205.449 60.2145C205.501 60.359 205.501 60.5168 205.449 60.6613C204.99 61.8631 204.385 62.75 203.644 63.306C202.873 63.8553 201.953 64.1559 201.008 64.1671C200.856 64.1746 200.712 64.2406 200.607 64.3514C200.503 64.4622 200.445 64.6092 200.446 64.7616V68.2644C200.445 68.4168 200.503 68.5638 200.607 68.6747C200.712 68.7854 200.856 68.8514 201.008 68.8589C203.24 68.8781 205.126 68.3094 206.664 67.1525C208.335 65.8864 209.674 63.8672 210.684 61.095L217.484 42.4246C217.536 42.2759 217.528 42.1124 217.461 41.9696C217.393 41.827 217.272 41.7168 217.124 41.663Z" fill="#296CF0"/>
<path d="M222.299 44.8149C222.289 44.7939 222.282 44.7709 222.28 44.7474V44.4678C222.289 44.3688 222.275 44.2691 222.239 44.1765C222.202 44.0839 222.145 44.0011 222.072 43.9343C221.977 43.8638 221.866 43.8165 221.75 43.7962C221.897 43.7831 222.038 43.7285 222.155 43.6388C222.216 43.585 222.263 43.5177 222.292 43.4422C222.322 43.3669 222.332 43.2855 222.326 43.205C222.33 43.09 222.303 42.9761 222.246 42.8761C222.188 42.7761 222.105 42.694 222.003 42.6394C221.858 42.5654 221.698 42.5249 221.535 42.5205H220.368V44.8889H221.011V44.0437H221.268C221.339 44.041 221.41 44.0531 221.476 44.079C221.518 44.0935 221.554 44.117 221.585 44.1475C221.616 44.1781 221.639 44.215 221.654 44.2557C221.676 44.3493 221.689 44.4453 221.689 44.5418C221.691 44.65 221.706 44.7577 221.73 44.8631H222.342L222.31 44.8149H222.299ZM221.574 43.5295C221.478 43.59 221.366 43.6203 221.252 43.6163H221.02V42.9318H221.155C221.28 42.9251 221.404 42.9426 221.522 42.9833C221.578 42.9993 221.627 43.0341 221.662 43.0821C221.696 43.13 221.712 43.1881 221.708 43.2467C221.712 43.3014 221.702 43.3562 221.678 43.4057C221.654 43.4551 221.618 43.4978 221.574 43.5295Z" fill="#296CF0"/>
<path d="M222.796 42.1796H222.812C222.416 41.7884 221.885 41.5652 221.328 41.5569C220.772 41.5484 220.233 41.7555 219.826 42.1346C219.608 42.3311 219.436 42.5724 219.32 42.842C219.204 43.1116 219.148 43.4031 219.154 43.6964C219.152 43.9747 219.204 44.2509 219.308 44.5092C219.412 44.7675 219.566 45.0028 219.76 45.2016C219.956 45.4003 220.188 45.5587 220.444 45.6677C220.7 45.7767 220.975 45.834 221.253 45.8365H221.298C221.858 45.8417 222.398 45.6245 222.799 45.2324C223.204 44.8271 223.43 44.2778 223.429 43.7053C223.429 43.1329 223.201 42.5841 222.796 42.1796ZM222.538 44.9561C222.377 45.1235 222.184 45.2561 221.969 45.3456C221.754 45.4352 221.524 45.4797 221.292 45.4767C220.943 45.4751 220.601 45.3703 220.312 45.1757C220.022 44.9811 219.796 44.7052 219.662 44.3826C219.528 44.0601 219.493 43.7051 219.559 43.3625C219.626 43.0197 219.793 42.7044 220.039 42.456C220.194 42.2914 220.382 42.1593 220.589 42.0671C220.797 41.9749 221.02 41.9245 221.247 41.9189C221.473 41.9132 221.7 41.9523 221.911 42.034C222.122 42.1157 222.317 42.2384 222.481 42.3949L222.542 42.456C222.708 42.6171 222.839 42.81 222.927 43.0232C223.016 43.2364 223.061 43.4655 223.06 43.6964C223.062 43.9306 223.017 44.1631 222.928 44.3795C222.838 44.596 222.706 44.7921 222.538 44.9561Z" fill="#296CF0"/>
<path d="M100.39 49.719C100.342 49.5802 100.253 49.4599 100.133 49.3746C100.014 49.2894 99.8712 49.2434 99.7246 49.2433C99.5574 49.2379 99.3938 49.2939 99.265 49.4008C97.6005 51.1746 93.2783 52.8553 88.2138 52.8553C83.1494 52.8553 78.7726 51.1457 77.1305 49.3944C77.0774 49.3249 77.0107 49.267 76.9345 49.2241C76.8418 49.1539 76.7294 49.1146 76.6131 49.1117C76.5339 49.109 76.4549 49.1224 76.3809 49.151C76.307 49.1795 76.2395 49.2226 76.1825 49.2778C76.1256 49.333 76.0803 49.3991 76.0494 49.4721C76.0184 49.5451 76.0025 49.6237 76.0026 49.7029C75.9993 49.7167 75.9993 49.731 76.0026 49.7447C76.0009 49.7477 76 49.751 76 49.7543C76 49.7577 76.0009 49.761 76.0026 49.764V61.6089C76.0026 62.6981 76.4353 63.7427 77.2055 64.5129C77.9756 65.2831 79.0202 65.7158 80.1094 65.7158H90.9646C96.6718 65.7158 101.473 61.1976 101.508 55.4904C101.522 54.0312 101.305 52.5791 100.865 51.1875L100.39 49.719Z" fill="#296CF0"/>
<path d="M101.508 40.2322C101.523 41.6915 101.306 43.144 100.865 44.535L100.389 46.0036C100.362 46.0801 100.323 46.1517 100.274 46.2157C100.154 46.3635 99.9808 46.458 99.7917 46.4785C99.6027 46.4989 99.4132 46.4437 99.2647 46.325C97.6001 44.5512 93.2779 42.8609 88.2135 42.8609C83.149 42.8609 78.7722 44.5769 77.1301 46.3282C77.0767 46.3982 77.0102 46.4572 76.9341 46.5017C76.8404 46.5697 76.7284 46.6077 76.6128 46.6109C76.5337 46.614 76.4548 46.601 76.3808 46.5729C76.3068 46.5446 76.2393 46.5018 76.1823 46.4469C76.1253 46.392 76.08 46.3261 76.049 46.2532C76.0181 46.1804 76.0021 46.102 76.0022 46.0229V34.1137C76.0022 33.5741 76.1085 33.0398 76.3151 32.5413C76.5217 32.0428 76.8245 31.59 77.2062 31.2086C77.5879 30.8272 78.041 30.5247 78.5396 30.3185C79.0383 30.1123 79.5727 30.0064 80.1123 30.0068H90.9642C96.6714 30.0068 101.472 34.525 101.508 40.2322Z" fill="#296CF0"/>
</g>
<defs>
<clipPath id="clip0_298_13011">
<rect width="147.429" height="40" fill="white" transform="translate(76 30)"/>
</clipPath>
</defs>
</svg>
