<svg width="300" height="100" viewBox="0 0 300 100" fill="none" xmlns="http://www.w3.org/2000/svg">
<rect width="300" height="100" fill="white"/>
<g clip-path="url(#clip0_298_13007)">
<path fill-rule="evenodd" clip-rule="evenodd" d="M116.164 64.3684L119.925 30.1123H126.207L124.616 44.3686C125.567 43.0871 126.603 42.0841 127.726 41.3594C128.849 40.6348 130.037 40.2725 131.291 40.2725C132.173 40.2725 132.979 40.4441 133.709 40.7874C134.439 41.1306 135.069 41.6684 135.6 42.4006C136.13 43.1329 136.543 44.0673 136.839 45.2038C137.136 46.3404 137.284 47.6943 137.284 49.2656C137.284 51.3404 136.998 53.3121 136.426 55.1809C135.854 57.0497 135.086 58.6934 134.122 60.1123C133.158 61.5309 132.045 62.6562 130.785 63.4876C129.524 64.319 128.205 64.7348 126.827 64.7348C125.766 64.7348 124.833 64.5095 124.027 64.0595C123.221 63.6095 122.536 63.0184 121.971 62.2862L121.909 62.5151C121.575 63.622 120.642 64.3684 119.59 64.3684H116.164ZM128.728 45.65C128.274 45.65 127.802 45.8407 127.313 46.2221C126.824 46.6035 126.352 47.126 125.897 47.7896C125.443 48.4532 125.019 49.2313 124.626 50.1237C124.234 51.0162 123.907 51.9658 123.645 52.9727L123.025 58.5104C123.424 58.8765 123.872 59.1359 124.368 59.2884C124.864 59.4409 125.339 59.5173 125.794 59.5173C126.538 59.5173 127.223 59.2426 127.85 58.6934C128.477 58.1443 129.018 57.4235 129.472 56.531C129.927 55.6386 130.282 54.6203 130.537 53.4761C130.791 52.3319 130.919 51.1649 130.919 49.975C130.919 48.4647 130.719 47.3663 130.32 46.6798C129.92 45.9933 129.39 45.65 128.728 45.65ZM156.544 64.3684H154.138C152.415 64.3684 151.018 62.8181 151.018 60.9056C151.018 60.7473 151.027 60.5893 151.047 60.4326C150.165 61.7751 149.187 62.8279 148.112 63.5906C147.038 64.3534 145.853 64.7348 144.558 64.7348C143.786 64.7348 143.042 64.5631 142.326 64.2198C141.61 63.8765 140.976 63.3579 140.425 62.6637C139.874 61.9695 139.433 61.0848 139.102 60.0093C138.772 58.9337 138.606 57.6638 138.606 56.1992C138.606 54.0482 138.961 52.0078 139.67 50.0779C140.38 48.1481 141.372 46.4586 142.646 45.0093C143.921 43.56 145.433 42.4083 147.182 41.5539C148.932 40.6996 150.854 40.2725 152.948 40.2725C153.967 40.2725 155.001 40.3488 156.048 40.5013C157.095 40.6539 158.128 40.9285 159.148 41.3251L156.544 64.3684ZM147.12 59.1284C147.589 59.1284 148.044 58.9337 148.484 58.5448C148.925 58.1556 149.342 57.6256 149.735 56.9544C150.127 56.2831 150.489 55.4975 150.819 54.5974C151.15 53.6973 151.433 52.7362 151.667 51.7141L152.411 45.1466H152.039C150.992 45.1466 150.038 45.4059 149.177 45.9246C148.315 46.4433 147.575 47.1489 146.955 48.0413C146.335 48.9338 145.856 49.9712 145.519 51.1535C145.181 52.3358 145.013 53.5981 145.013 54.9406C145.013 55.7034 145.068 56.3518 145.178 56.8857C145.288 57.4197 145.436 57.8506 145.622 58.1787C145.808 58.5068 146.029 58.747 146.284 58.8995C146.538 59.052 146.817 59.1284 147.12 59.1284ZM160.594 64.3684L163.198 40.6386H164.597C166.825 40.6386 168.63 42.6426 168.63 45.1147C168.63 45.2552 168.624 45.3957 168.612 45.5356C169.439 43.9185 170.334 42.6752 171.299 41.8056C172.263 40.9361 173.262 40.5013 174.295 40.5013C174.874 40.5013 175.445 40.6462 176.01 40.9361L174.853 47.5036C174.15 47.168 173.482 47.0001 172.849 47.0001C171.788 47.0001 170.848 47.5303 170.028 48.5905C169.208 49.6508 168.544 51.3556 168.034 53.7049L166.876 64.3684H160.594ZM178.16 59.2426V58.8537C178.16 58.7012 178.17 58.4837 178.19 58.2015C178.211 57.9193 178.246 57.5455 178.294 57.0802C178.342 56.6149 178.408 56.0009 178.49 55.2381L179.585 45.5356H177.87C177.609 45.5356 177.388 45.4403 177.209 45.2496C177.03 45.0589 176.94 44.7729 176.94 44.3915C176.94 44.3762 176.954 44.2427 176.982 43.991C177.009 43.7393 177.037 43.4723 177.064 43.1901C177.092 42.9079 177.119 42.6447 177.147 42.4006C177.175 42.1565 177.188 42.0192 177.188 41.9887L177.34 40.6844L180.495 40.6386L181.059 36.4626C181.269 34.9039 182.475 33.7507 183.895 33.7507H187.17L186.384 40.6844H191.179L191.137 41.0632C190.854 43.6169 188.9 45.5356 186.582 45.5356H185.847L184.814 54.8491C184.745 55.4746 184.693 55.9666 184.659 56.3251C184.624 56.6836 184.597 56.9582 184.576 57.1489C184.562 57.2785 184.548 57.4082 184.535 57.5379C184.528 57.6066 184.525 57.6485 184.525 57.6638C184.525 58.1062 184.617 58.4762 184.804 58.7737C184.989 59.0712 185.282 59.2198 185.682 59.2198C185.902 59.2198 186.085 59.1931 186.229 59.1398C186.326 59.1042 186.667 58.9554 187.252 58.6934L189.36 62.6751C188.506 63.3618 187.59 63.8765 186.612 64.2198C185.634 64.5631 184.649 64.7348 183.657 64.7348C182.83 64.7348 182.086 64.6087 181.425 64.357C180.764 64.1054 180.195 63.7393 179.72 63.2587C179.245 62.7781 178.873 62.2023 178.604 61.5309C178.335 60.8598 178.187 60.097 178.16 59.2426ZM210.108 46.4738C210.108 47.557 209.915 48.5486 209.529 49.4487C209.144 50.3488 208.472 51.1458 207.515 51.84C206.557 52.5341 205.269 53.1252 203.65 53.6134C202.031 54.1016 199.996 54.483 197.544 54.7576C197.571 56.3747 197.892 57.5569 198.505 58.3045C199.118 59.052 200.024 59.4256 201.222 59.4256C201.787 59.4256 202.276 59.3723 202.689 59.2656C203.103 59.1587 203.464 59.0215 203.774 58.8537C205.632 57.8481 207.853 58.1895 209.394 59.7181L209.654 59.9751C208.896 60.7987 208.155 61.512 207.432 62.1145C206.709 62.717 205.965 63.2129 205.2 63.602C204.435 63.9909 203.623 64.277 202.762 64.4601C201.9 64.6431 200.96 64.7348 199.941 64.7348C198.673 64.7348 197.509 64.4945 196.448 64.014C195.387 63.5334 194.475 62.8545 193.71 61.9773C192.945 61.1001 192.353 60.0437 191.933 58.8079C191.513 57.5722 191.303 56.1992 191.303 54.6889C191.303 53.4227 191.43 52.187 191.685 50.9818C191.94 49.7766 192.305 48.6439 192.78 47.5837C193.255 46.5234 193.838 45.5471 194.527 44.6546C195.215 43.7622 195.99 42.9956 196.851 42.3549C197.712 41.7141 198.656 41.2145 199.682 40.856C200.709 40.4975 201.801 40.3182 202.958 40.3182C204.101 40.3182 205.117 40.5013 206.006 40.8674C206.895 41.2336 207.642 41.7103 208.248 42.2976C208.854 42.885 209.316 43.5448 209.633 44.2771C209.95 45.0093 210.108 45.7416 210.108 46.4738ZM202.586 45.1008C201.525 45.1008 200.595 45.5699 199.796 46.5082C198.997 47.4464 198.398 48.7316 197.998 50.364C199.335 50.1352 200.416 49.8949 201.243 49.6432C202.069 49.3914 202.71 49.1169 203.165 48.8194C203.619 48.5219 203.926 48.2015 204.084 47.8583C204.243 47.515 204.322 47.1451 204.322 46.7484C204.322 46.3518 204.184 45.978 203.909 45.6272C203.633 45.2763 203.192 45.1008 202.586 45.1008ZM211.183 64.3684L213.787 40.6386H214.789C217.225 40.6386 219.201 42.8311 219.201 45.5356C220.027 43.9185 220.923 42.6752 221.887 41.8056C222.852 40.9361 223.85 40.5013 224.884 40.5013C225.462 40.5013 226.034 40.6462 226.599 40.9361L225.442 47.5036C224.739 47.168 224.071 47.0001 223.437 47.0001C222.376 47.0001 221.436 47.5303 220.616 48.5905C219.797 49.6508 219.132 51.3556 218.622 53.7049L217.465 64.3684H211.183Z" fill="black"/>
<path d="M99.9013 47.0445C104.912 42.8308 115.22 27.7705 99.1139 30.4236C92.0986 31.516 83.4021 37.9006 81.3262 45.8599C80.2431 43.7316 79.048 41.6733 77.7469 39.6953C75.8141 36.9642 71.9833 39.6314 74.1308 42.4406C80.2156 50.478 84.439 60.154 84.439 69.9081C84.9402 65.0701 85.7644 58.5792 83.9032 52.8048C84.5843 53.3159 84.6336 53.3542 85.1077 53.9774C88.4006 59.4398 93.4587 63.9776 99.1139 66.1626C104.268 68.2695 111.14 67.0209 108.348 58.5934C106.845 53.9895 103.337 49.9318 99.9013 47.0445Z" fill="#F5A623"/>
</g>
<defs>
<clipPath id="clip0_298_13007">
<rect width="153.333" height="40" fill="white" transform="translate(73.3203 30)"/>
</clipPath>
</defs>
</svg>
