<svg width="300" height="100" viewBox="0 0 300 100" fill="none" xmlns="http://www.w3.org/2000/svg">
<rect width="300" height="100" fill="white"/>
<path d="M130.369 53.2547C130.135 53.3146 130.02 53.4701 129.977 53.7039C129.777 54.8179 129.541 55.9261 129.494 57.0604C129.457 57.5889 129.504 58.1198 129.634 58.6334C129.878 59.503 130.431 60.102 131.312 60.2759C132.923 60.5947 134.404 60.3117 135.498 58.9861C136.32 57.988 136.657 56.8392 136.136 55.5619C136.081 55.4266 136.051 55.2875 136.233 55.2508C136.821 55.1319 137.413 54.9609 138.01 55.2092C138.695 55.4991 139.032 56.0382 139.04 56.7551C139.052 58.0807 138.46 59.1387 137.449 59.9493C136.224 60.9319 134.807 61.5049 133.263 61.7764C132.165 61.9696 131.061 61.9406 129.963 61.8266C128.4 61.6643 126.93 61.2228 125.675 60.2247C124.322 59.1532 123.685 57.7126 123.565 56.0334C123.523 55.4469 123.559 54.8556 123.492 54.2546C123.291 54.7377 123.096 55.2208 122.888 55.7039C122.174 57.3503 121.225 58.8266 119.79 59.9513C118.853 60.6885 117.757 61.195 116.589 61.4295C116.516 61.4396 116.442 61.4447 116.368 61.445C116.218 61.3716 116.067 61.4498 115.915 61.4498C112.862 61.4421 109.809 61.4421 106.757 61.4498C106.39 61.4498 106.023 61.4575 105.613 61.4295C105.681 61.3281 105.746 61.2431 105.717 61.1397C106.595 59.6807 106.9 58.0421 107.22 56.4054C107.703 53.9068 108.21 51.4112 108.704 48.9136C108.869 48.0788 109.023 47.2421 109.187 46.4063C109.204 46.3621 109.217 46.3165 109.227 46.2701C109.515 44.8614 109.802 43.4527 110.089 42.044C110.237 41.5772 110.239 41.0767 110.097 40.6083C110.05 40.3745 110 40.1406 109.957 39.9068C109.913 39.6421 110.042 39.5899 110.285 39.5918C112.042 39.6005 113.799 39.5918 115.556 39.5918C115.97 39.5918 115.97 39.5918 115.984 40.0015C115.982 40.0752 115.977 40.1488 115.966 40.2218C115.651 41.8321 115.335 43.4424 115.019 45.0527C114.922 45.5271 114.838 46.0025 114.738 46.5271C115.067 46.3281 115.342 46.158 115.621 45.9928C116.85 45.2604 118.133 44.7281 119.613 44.8286C121.384 44.9503 122.691 45.758 123.45 47.3851C123.998 48.56 124.112 49.8083 124.03 51.0836C124.017 51.3059 124.005 51.5281 123.993 51.7493C124.147 51.4423 124.287 51.1275 124.41 50.8063C124.815 49.8527 125.382 48.9967 126.005 48.1745C126.039 48.1461 126.071 48.1158 126.102 48.0836C127.12 46.8914 128.43 45.9836 129.904 45.4489C131.541 44.8306 133.3 44.5991 135.042 44.7725C135.947 44.8691 136.793 45.1542 137.613 45.5368L137.618 45.5426C138.261 45.9136 138.882 46.3155 139.392 46.8672C140.197 47.7426 140.539 48.7996 140.601 49.959C140.646 50.9523 140.556 51.9471 140.335 52.9165C140.307 53.0489 140.294 53.2005 140.114 53.2305C140.088 53.2108 140.059 53.1968 140.027 53.1893C139.995 53.1818 139.963 53.1811 139.931 53.187H130.492C130.448 53.1895 130.403 53.1943 130.36 53.2015L130.369 53.2547ZM130.542 51.7909L130.525 51.8363C130.549 51.8452 130.573 51.8514 130.598 51.8547H134.216C134.272 51.8547 134.328 51.8547 134.361 51.7947C134.665 51.6981 134.606 51.415 134.656 51.1938C134.952 49.9225 135.117 48.6243 135.148 47.3194C135.161 46.5735 134.665 46.0875 133.925 46.0633C132.881 46.0257 132.16 46.5175 131.691 47.416C131.028 48.6856 130.686 50.0566 130.425 51.4537C130.4 51.588 130.407 51.7107 130.542 51.7909ZM112.706 59.9803C112.882 59.9803 113.058 59.9803 113.235 59.9803C113.301 59.9764 113.365 59.9651 113.428 59.9464C115.094 59.502 116.258 58.5049 116.759 56.8315C117.324 54.9474 117.716 53.0218 118.084 51.0904C118.259 50.1573 118.189 49.1947 117.879 48.2972C117.821 48.0891 117.701 47.9038 117.535 47.7657C117.369 47.6276 117.165 47.5434 116.95 47.5242C116.31 47.4373 115.762 47.644 115.294 48.0798C114.446 48.8691 113.991 49.872 113.764 50.9841C113.405 52.7377 113.067 54.4943 112.724 56.2508C112.498 57.4102 112.281 58.5638 112.048 59.7184C112.008 59.9194 112.048 59.9976 112.26 59.9851C112.408 59.9725 112.557 59.9803 112.706 59.9803Z" fill="#D42127"/>
<path d="M159.882 61.8838C158.916 61.9495 157.959 62.0171 156.992 61.9514C155.245 61.8326 153.557 61.4973 152.005 60.6471C151.408 60.3205 150.867 59.9118 150.538 59.2886C150.038 58.3389 150.29 57.1804 151.012 56.3311C152.345 54.765 155.263 54.4896 157.073 55.878C157.289 56.0385 157.483 56.2255 157.652 56.4345C157.841 56.6712 157.83 56.8065 157.597 56.9997C157.365 57.193 157.114 57.3717 156.921 57.6171C156.072 58.6964 156.527 60.1727 157.845 60.5505C158.995 60.8799 159.955 60.5978 160.774 59.6915C162.284 58.0191 163.201 56.0529 163.769 53.9021C163.897 53.4191 163.995 52.9273 164.093 52.4374C164.125 52.279 164.183 52.0625 164.04 51.9707C163.923 51.8954 163.775 52.0548 163.653 52.1389C162.476 52.9698 161.202 53.5997 159.789 53.905C158.073 54.2751 156.367 54.2915 154.695 53.6558C152.756 52.9224 151.343 50.9302 151.29 48.8616C151.281 47.8025 151.452 46.7496 151.798 45.7485C151.823 45.6703 151.84 45.5881 151.86 45.5079C151.896 45.4345 151.937 45.362 151.966 45.2857C152.326 44.3706 152.84 43.5244 153.487 42.7843C154.781 41.3099 156.43 40.3862 158.243 39.7157C159.344 39.323 160.494 39.0849 161.66 39.0084C163.105 38.8944 164.53 38.9707 165.935 39.3534C166.617 39.5568 167.277 39.8284 167.905 40.164C167.934 40.1973 167.966 40.2277 168.001 40.2548C168.749 40.7225 169.417 41.3052 169.983 41.9814C170.517 42.6055 170.905 43.3195 171.246 44.0625C171.321 44.307 171.393 44.5534 171.475 44.7968C171.652 45.3224 171.682 45.877 171.799 46.4152C171.805 46.6149 171.812 46.8145 171.819 47.0142V47.848C171.819 48.0335 171.808 48.2191 171.802 48.4046C171.757 48.762 171.723 49.1215 171.662 49.4761C171.571 50.0133 171.462 50.5476 171.361 51.0828C171.354 51.0876 171.35 51.0947 171.349 51.1026C171.347 51.1104 171.349 51.1186 171.353 51.1253C171.301 51.214 171.27 51.313 171.262 51.4152L171.245 51.5215C171.024 52.154 170.802 52.7872 170.58 53.421C170.423 53.7039 170.286 53.9977 170.17 54.3002L170.177 54.2935L170.138 54.3649C170.135 54.3665 170.132 54.3687 170.13 54.3714C170.127 54.3741 170.126 54.3772 170.124 54.3807C170.123 54.3841 170.123 54.3877 170.123 54.3913C170.123 54.3949 170.124 54.3984 170.126 54.4017C169.959 54.6556 169.813 54.9232 169.691 55.2017C169.557 55.371 169.444 55.5559 169.355 55.7524L168.569 56.8635C168.399 57.0315 168.247 57.2175 168.116 57.4181L167.598 57.9775C167.595 57.9771 167.591 57.9775 167.588 57.9785C167.584 57.9796 167.581 57.9813 167.578 57.9837C167.575 57.986 167.573 57.9889 167.571 57.9922C167.57 57.9954 167.569 57.999 167.568 58.0026C167.456 58.0887 167.358 58.1921 167.279 58.3089L166.112 59.3195C165.427 59.8012 164.718 60.2472 163.987 60.6558L162.984 61.1041C162.623 61.2191 162.262 61.336 161.901 61.449C161.251 61.648 160.562 61.7389 159.882 61.8838ZM165.792 44.5379C165.795 43.8025 165.716 43.0691 165.556 42.3514C165.369 41.5137 164.955 40.8249 164.107 40.5157C163.439 40.277 162.754 40.3224 162.083 40.535C161.087 40.8451 160.428 41.5534 159.876 42.391C159.092 43.5775 158.653 44.8915 158.381 46.278C158.125 47.5823 158.091 48.8722 158.443 50.1611C158.673 51.0104 159.233 51.6983 160.182 51.8036C161.374 51.9321 162.417 51.5707 163.253 50.7408C164.976 49.0403 165.765 46.9389 165.792 44.534V44.5379Z" fill="#14B151"/>
<path d="M142.213 48.6238L142.238 48.5175C142.334 48.019 142.441 47.5214 142.527 47.0199C142.578 46.7378 142.478 46.6335 142.194 46.6654C141.982 46.689 141.769 46.6948 141.556 46.6827C141.382 46.6712 141.355 46.5948 141.423 46.446C141.475 46.3378 141.551 46.2427 141.644 46.1678C142.053 45.8151 142.523 45.5485 142.953 45.2257C143.905 44.5127 144.63 43.5832 145.382 42.676C146.31 41.5591 147.304 40.5146 148.584 39.789C149.314 39.3755 150.071 39.0315 150.922 38.9562C151.06 38.9417 151.199 38.9417 151.337 38.9562C151.458 38.9707 151.653 38.9504 151.665 39.0905C151.676 39.1743 151.662 39.2594 151.627 39.336C151.591 39.4126 151.535 39.4776 151.464 39.5233C151.328 39.6032 151.196 39.6889 151.068 39.7803C149.967 40.5533 149.368 41.6634 148.972 42.9069C148.785 43.5103 148.63 44.123 148.507 44.7427C148.441 45.0615 148.444 45.0625 148.782 45.0625C149.361 45.0625 149.932 45.0625 150.507 45.0625C150.789 45.0625 150.838 45.1262 150.782 45.3939C150.7 45.7803 150.624 46.1745 150.543 46.5639C150.527 46.6344 150.519 46.7146 150.426 46.7359C149.76 46.7359 149.095 46.7359 148.429 46.7359C148.348 46.7359 148.236 46.6808 148.192 46.8122C148.01 46.9658 148.013 47.1929 147.973 47.3919C147.602 49.2934 147.235 51.1935 146.871 53.0924C146.647 54.2576 146.445 55.4267 146.179 56.5832C146.121 56.8354 146.04 57.0828 145.985 57.3359C145.847 57.9765 146.184 58.4093 146.839 58.448C147.266 58.4731 147.664 58.3427 148.062 58.2199C148.246 58.1639 148.335 58.1639 148.279 58.4074C147.803 60.4702 145.94 61.9533 143.85 61.8741C142.57 61.8248 141.481 61.3658 140.805 60.1958C140.353 59.4142 140.346 58.5852 140.515 57.7175C141.095 54.733 141.642 51.7446 142.202 48.7571C142.208 48.713 142.212 48.6685 142.213 48.6238Z" fill="#D42128"/>
<path d="M169.13 66.128L168.969 66.1173C168.806 66.0566 168.635 66.0217 168.462 66.014L168.439 66.0014H168.413C168.317 65.9048 168.103 65.9917 168.078 65.784L168.139 65.726L168.215 65.6681C168.219 65.6692 168.222 65.6696 168.226 65.6692C168.23 65.6688 168.233 65.6676 168.236 65.6656C168.239 65.6637 168.242 65.661 168.244 65.658C168.246 65.6549 168.247 65.6514 168.247 65.6478C168.322 65.5803 168.398 65.513 168.473 65.4458C168.615 65.3668 168.732 65.2509 168.813 65.1106C168.936 65.0261 169.033 64.9108 169.096 64.7763H169.092C169.107 64.7739 169.121 64.7658 169.13 64.7536C169.14 64.7414 169.144 64.726 169.143 64.7106C169.388 64.4337 169.577 64.1113 169.698 63.7618C169.731 63.7176 169.76 63.6708 169.784 63.6217C170.217 62.5589 170.364 61.4246 170.581 60.3077L170.593 60.2043C170.716 59.7634 170.808 59.3143 170.867 58.8603C170.924 58.8169 170.911 58.756 170.907 58.6971L170.925 58.5328C171.062 58.0181 171.17 57.4958 171.246 56.9686L171.252 56.9115C171.325 56.7155 171.364 56.5089 171.369 56.3C171.448 56.1257 171.487 55.9358 171.482 55.7444C171.664 55.0072 171.816 54.2642 171.926 53.5125L171.939 53.5009L171.932 53.4845C172.107 52.757 172.263 52.0256 172.368 51.2835C172.375 51.278 172.379 51.2703 172.381 51.2618C172.382 51.2533 172.38 51.2445 172.376 51.2371C172.558 50.5175 172.704 49.7891 172.812 49.0545C172.819 49.0492 172.824 49.0414 172.825 49.0329C172.827 49.0243 172.825 49.0155 172.82 49.0082C172.89 48.8281 172.928 48.6371 172.931 48.4439C172.955 48.3657 172.985 48.2884 173.005 48.2082C173.187 47.4429 173.24 46.6826 172.929 45.9338C172.893 45.6526 172.691 45.4314 172.639 45.1541L172.703 45.0806L173.262 45.041H177.775H178.61C178.836 45.041 178.966 45.1328 178.94 45.3772C178.843 45.5811 178.843 45.8062 178.796 46.0217C178.655 46.7357 178.525 47.4516 178.391 48.1676C178.384 48.1737 178.38 48.182 178.379 48.191C178.378 48.2 178.38 48.2092 178.384 48.2169C178.313 48.3958 178.275 48.5865 178.273 48.7792C178.057 49.6826 177.899 50.5975 177.73 51.5106L177.716 51.6758C177.609 52.0222 177.537 52.3782 177.499 52.7386L177.495 52.7937C177.43 52.9535 177.395 53.1237 177.391 53.2961L177.38 53.3927C177.238 53.9322 177.129 54.4797 177.053 55.0323C177.053 55.0526 177.053 55.0719 177.046 55.0922C176.939 55.4548 176.866 55.8264 176.827 56.2024C176.82 56.2082 176.816 56.2162 176.814 56.2251C176.813 56.2339 176.815 56.243 176.819 56.2507C176.752 56.4121 176.717 56.5851 176.717 56.7599L176.711 56.8149C176.489 57.7173 176.332 58.6323 176.165 59.5463L176.153 59.6565C176.061 59.9859 175.991 60.3213 175.945 60.6603C175.939 60.7144 175.934 60.7676 175.928 60.8217C175.735 61.5386 175.639 62.271 175.491 63.0004C175.484 63.005 175.479 63.012 175.477 63.0201C175.475 63.0282 175.476 63.0367 175.48 63.0439C175.423 63.1304 175.39 63.2304 175.383 63.3338C175.38 63.3353 175.377 63.3376 175.374 63.3404C175.372 63.3432 175.369 63.3465 175.368 63.3501C175.367 63.3537 175.366 63.3575 175.366 63.3613C175.366 63.3652 175.367 63.3689 175.369 63.3724C174.646 64.9048 173.256 65.4845 171.753 65.8951C171.367 65.9995 170.981 66.0478 170.585 66.1222L169.909 66.1492H169.589L169.13 66.128Z" fill="#14B151"/>
<path d="M194.593 48.4055C194.593 48.7733 194.595 49.1421 194.598 49.5118C194.331 51.5041 193.901 53.4674 193.535 55.4413C193.372 56.3108 193.215 57.1891 193.052 58.0616C192.859 59.0886 192.983 60.1118 193.068 61.136C193.096 61.4809 193.068 61.5224 192.713 61.5224C191.201 61.5224 189.69 61.5244 188.179 61.5282C187.966 61.5282 187.753 61.5398 187.54 61.5456C187.171 61.4558 187.12 61.393 187.082 61.0055C187.073 60.8954 187.056 60.786 187.033 60.678C186.965 60.3775 186.877 60.3253 186.618 60.4848C186.058 60.8191 185.497 61.1524 184.911 61.4422L184.856 61.4567L184.636 61.5534L183.573 61.8819H183.548L183.526 61.8944C183.315 61.9027 183.107 61.9374 182.905 61.9978L182.579 62.0142H181.964L181.473 61.9949C181.271 61.934 181.061 61.8993 180.85 61.8915L180.828 61.879L180.803 61.8838C180.368 61.735 179.924 61.6113 179.52 61.3794C178.677 60.902 178.04 60.1308 177.73 59.2133C177.722 59.0412 177.685 58.8718 177.621 58.7118L177.613 58.6007C177.584 58.0944 177.657 57.5949 177.727 57.0964C177.731 57.0944 177.734 57.0918 177.736 57.0887C177.738 57.0856 177.74 57.0821 177.74 57.0784C177.741 57.0747 177.741 57.0709 177.74 57.0672C177.74 57.0634 177.738 57.0599 177.736 57.0567C177.892 56.6229 178.015 56.1785 178.228 55.7649C178.606 55.0297 179.15 54.4316 179.738 53.8664L179.807 53.8152L179.855 53.7669L180.974 52.9833L181.669 52.6413C182.401 52.2799 183.182 52.0451 183.941 51.7524C183.944 51.7542 183.947 51.7553 183.95 51.7557C183.953 51.756 183.957 51.7557 183.96 51.7545C183.963 51.7534 183.966 51.7516 183.968 51.7492C183.97 51.7468 183.972 51.7439 183.973 51.7408C184.01 51.7404 184.046 51.7356 184.082 51.7263C185.375 51.2751 186.669 50.8268 187.935 50.3041C188.418 50.1103 188.81 49.7424 189.034 49.2732C189.344 48.6335 189.342 47.963 189.159 47.2925C189.082 47.0094 188.87 46.8287 188.592 46.7244C188.213 46.5902 187.805 46.5595 187.411 46.6355C186.671 46.7553 186.282 47.2442 186.301 47.9959C186.308 48.2171 186.355 48.4364 186.373 48.6577C186.403 49.0084 186.269 49.2693 185.939 49.42C185.23 49.7456 184.512 50.05 183.723 50.1079C182.749 50.1794 181.918 49.8944 181.383 49.0287C180.632 47.8142 180.491 46.4973 180.789 45.1176C180.832 44.9195 180.93 44.8703 181.102 44.9785C181.708 45.3592 182.384 45.4519 183.078 45.4287C184.413 45.3729 185.742 45.2381 187.061 45.0249C188.324 44.8316 189.587 44.7804 190.856 44.9833C191.539 45.1074 192.211 45.2838 192.867 45.5108C193.593 45.8973 194.128 46.4548 194.376 47.2625C194.489 47.6374 194.521 48.0249 194.593 48.4055ZM188.478 51.8152C187.947 52.0249 187.445 52.1881 186.999 52.478C185.952 53.1662 185.051 54.0552 184.35 55.0934C183.703 56.0335 183.319 57.0336 183.505 58.2017C183.619 58.9147 184.196 59.5263 184.867 59.5852C185.327 59.6258 185.711 59.4026 186.093 59.1988C186.774 58.8268 187.271 58.2954 187.397 57.5022C187.609 56.165 187.906 54.8442 188.158 53.5147C188.261 52.9592 188.367 52.4065 188.478 51.8152Z" fill="#14B151"/>
<path d="M176.956 43.0833C179.785 43.0833 182.078 40.7898 182.078 37.9606C182.078 35.1314 179.785 32.8379 176.956 32.8379C174.127 32.8379 171.833 35.1314 171.833 37.9606C171.833 40.7898 174.127 43.0833 176.956 43.0833Z" fill="white" stroke="black" stroke-width="0.669305"/>
<path d="M175.056 33.2042L175.238 33.6458M172.231 37.9279C172.506 38.5762 173.149 38.7521 173.72 38.9984M174.318 34.497C173.053 34.8023 172.24 36.1318 172.279 36.1395M175.524 35.1057C175.121 35.81 175.06 36.7385 175.267 37.838M176.9 33.1752C177.34 32.9888 178.047 33.0178 178.911 33.2226M174.541 41.0149C174.334 41.239 174.213 41.6149 174.113 42.0284M177.371 34.3153C177.908 34.6052 178.895 35.1018 179.517 35.8864M176.57 40.8467C177.064 41.4718 177.763 41.9023 178.544 42.0622M179.485 37.7733C178.7 38.2584 177.862 38.6504 176.987 38.9414M180.918 35.6042C180.863 35.1008 180.628 34.6158 180.351 34.1337M181.607 37.6197C181.715 37.6698 181.812 37.7414 181.892 37.83C181.972 37.9187 182.034 38.0227 182.073 38.1356M180.797 38.7723C180.873 39.4931 180.58 40.353 180.285 41.2158" stroke="black" stroke-width="0.669305"/>
<path d="M175.081 33.2509C175.756 33.112 176.446 33.0584 177.134 33.0915C177.322 33.4393 177.392 33.9089 177.481 34.3756C176.683 34.6925 175.919 35.0094 175.423 35.3021C174.896 35.0316 174.606 34.9678 173.992 34.5852C174.195 34.1031 174.563 33.6587 175.081 33.2509ZM180.918 35.5147C181.26 36.2287 181.594 36.9437 181.729 37.6741C181.408 38.1572 181.073 38.6954 180.802 38.936C180.362 38.677 179.836 38.2538 179.324 37.8732C179.335 37.048 179.366 36.4364 179.389 35.7475C179.936 35.6103 180.463 35.4983 180.918 35.5147ZM171.932 38.9369C171.731 37.8931 171.86 36.8125 172.301 35.8451L172.424 35.8789C172.256 36.6065 172.129 37.3282 172.297 37.9852C172.112 38.2695 172.019 38.6031 172.029 38.9417L171.932 38.9369ZM175.234 37.6538C175.91 38.0683 176.57 38.4722 177.208 38.8693C177.151 39.62 176.909 40.2992 176.712 40.9949C176.011 41.219 175.232 41.0645 174.49 41.0731C173.94 40.2934 173.854 39.6355 173.639 38.9475C174.113 38.4518 174.647 38.0172 175.229 37.6538H175.234ZM180.71 41.4403C179.972 42.2367 179.001 42.7781 177.935 42.9862L177.707 42.8828C177.978 42.6963 178.175 42.3804 178.337 42.0026C178.891 41.9678 179.639 41.4509 180.352 41.02C180.488 41.1439 180.606 41.2852 180.705 41.4403H180.71ZM174.906 42.648C174.224 42.3482 173.616 41.9035 173.123 41.3446C173.461 41.6529 173.741 41.9244 174.14 41.9485C174.181 42.1408 174.379 42.3582 174.901 42.648H174.906Z" fill="black"/>
</svg>
