<svg width="300" height="100" viewBox="0 0 300 100" fill="none" xmlns="http://www.w3.org/2000/svg">
<rect width="300" height="100" fill="white"/>
<g clip-path="url(#clip0_291_3625)">
<path fill-rule="evenodd" clip-rule="evenodd" d="M199.258 63.8408C198.676 63.6553 198.169 63.4408 197.74 63.1963L195.717 68.6199C196.621 69.0244 197.56 69.3488 198.521 69.5894C199.501 69.8338 200.574 69.956 201.74 69.956C203.578 69.956 205.181 69.5713 206.545 68.8053C207.91 68.0394 208.991 66.7185 209.786 64.8505L221.007 38.2769H212.731L208.225 51.3769L203.674 38.2769H194.936L204.455 59.7449L203.168 62.6456C202.92 63.197 202.62 63.5776 202.269 63.7921C201.917 64.0074 201.451 64.1144 200.867 64.1144C200.378 64.1144 199.842 64.0255 199.258 63.8408ZM186.394 50.6664C186.853 50.622 187.315 50.581 187.774 50.5519V54.7359C187.374 55.0421 186.934 55.29 186.465 55.472C185.987 55.6567 185.462 55.7456 184.877 55.7456C184.082 55.7456 183.46 55.5421 183.016 55.1276C182.572 54.7137 182.347 54.1845 182.347 53.5408C182.347 52.9269 182.547 52.3685 182.946 51.8616C183.346 51.3581 184.019 51.0255 184.969 50.8734C185.441 50.7833 185.916 50.7142 186.394 50.6664ZM188.281 58.9651L188.924 60.7144H195.683V46.5526C195.683 43.5484 194.81 41.3324 193.06 39.9081C191.315 38.4796 188.969 37.7692 186.028 37.7692C183.912 37.7692 182.095 38.0769 180.578 38.6908C179.074 39.294 177.683 40.1485 176.465 41.2178L180.049 45.2171C180.745 44.661 181.51 44.197 182.324 43.8366C183.117 43.4986 183.971 43.3275 184.833 43.3338C185.628 43.3338 186.32 43.5484 186.901 43.9776C187.482 44.4067 187.774 45.0796 187.774 46.0012V46.5526C186.998 46.5884 186.224 46.6414 185.451 46.7116C184.536 46.7975 183.624 46.9133 182.717 47.0588C181.679 47.2012 180.661 47.4633 179.683 47.8401C178.732 48.206 177.896 48.6831 177.175 49.2637C176.463 49.8369 175.883 50.5579 175.476 51.3769C175.063 52.2053 174.855 53.1748 174.855 54.2769C174.855 55.3498 175.036 56.3005 175.406 57.1255C175.762 57.9393 176.287 58.6684 176.945 59.2644C177.604 59.8637 178.381 60.3151 179.269 60.622C180.156 60.9248 181.122 61.0803 182.165 61.0803C183.545 61.0803 184.755 60.8734 185.799 60.4588C186.838 60.0484 187.667 59.5491 188.281 58.9644V58.9651ZM139.095 32.6081L149.04 60.7137H155.155L158.647 48.9415L162.188 60.7137H168.348L176.306 38.2762H168.074L164.763 50.1845L161.315 38.2755H156.072L152.624 50.1852L146.876 32.6088H139.095V32.6081ZM124.852 38.2755V43.8845H128.026V53.7248C128.026 54.8567 128.141 55.8817 128.37 56.8033C128.599 57.7241 128.992 58.5046 129.544 59.1484C130.094 59.7921 130.823 60.2921 131.726 60.6435C132.632 60.9949 133.742 61.1727 135.059 61.1727C136.624 61.1727 137.997 60.9873 139.177 60.6213C140.357 60.2512 141.452 59.7185 142.462 59.0116L140.394 54.1359C139.971 54.4582 139.516 54.7358 139.036 54.9644C138.544 55.2072 138.002 55.3338 137.453 55.3345C136.868 55.3345 136.494 55.1199 136.324 54.6908C136.158 54.2616 136.073 53.6623 136.073 52.8963V43.8852H141.47L139.484 38.2762H136.073V32.6199H128.026V38.2762H124.852V38.2755ZM116.417 43.9067C117.046 44.5942 117.405 45.5387 117.497 46.7366H110.509C110.631 45.5713 111.038 44.6352 111.726 43.929C112.418 43.2262 113.221 42.8706 114.142 42.8706C115.03 42.8706 115.788 43.2178 116.417 43.9067ZM111.774 54.1616C110.96 53.4109 110.524 52.3602 110.461 51.0095H125.038C125.008 46.504 124.005 43.1706 122.026 41.0095C120.05 38.8498 117.39 37.7692 114.049 37.7692C112.426 37.7692 110.916 38.0283 109.522 38.5498C108.126 39.0713 106.924 39.8373 105.91 40.8505C104.897 41.8609 104.101 43.0928 103.521 44.5505C102.936 46.0081 102.647 47.6685 102.647 49.5408C102.647 51.472 102.951 53.163 103.565 54.6206C104.179 56.0741 105.008 57.2873 106.051 58.2498C107.09 59.2192 108.308 59.9477 109.706 60.4359C111.101 60.9248 112.592 61.172 114.186 61.172C115.503 61.172 116.691 61.0651 117.749 60.8505C118.807 60.6359 119.743 60.329 120.553 59.9296C121.323 59.5599 122.049 59.1057 122.717 58.5755C123.347 58.0685 123.905 57.5095 124.397 56.8956L119.476 53.0331C118.858 53.7991 118.193 54.3692 117.475 54.7345C116.753 55.1053 115.888 55.2866 114.878 55.2866C113.621 55.2866 112.585 54.913 111.774 54.1616H111.774ZM88.0486 55.2206C87.7264 55.172 87.3938 55.106 87.057 55.0095V44.1588C87.4271 44.0366 87.7931 43.9366 88.1632 43.863C88.5563 43.7832 88.9566 43.7446 89.3577 43.7477C90.6452 43.7477 91.7111 44.2067 92.5542 45.1241C93.3945 46.0456 93.816 47.4699 93.816 49.4012C93.816 51.3949 93.3868 52.8748 92.5285 53.8408C91.6702 54.806 90.5528 55.2866 89.1729 55.2866C88.7438 55.2866 88.3702 55.2644 88.0479 55.2206H88.0486ZM89.0139 37.9289C88.3522 38.0302 87.6983 38.1774 87.057 38.3692V30.0449H79.0139V59.3783C80.3903 59.9005 81.8924 60.3366 83.5167 60.6887C85.1445 61.0435 86.9681 61.2213 88.9882 61.2213C90.8264 61.2213 92.5209 60.9734 94.0716 60.4852C95.6174 59.9928 96.9604 59.2491 98.0924 58.2505C99.2285 57.2588 100.109 55.9935 100.738 54.4588C101.367 52.9269 101.681 51.1178 101.681 49.0352C101.681 47.4699 101.452 46.0012 100.99 44.6213C100.531 43.2414 99.8646 42.0463 98.9917 41.0331C98.1188 40.0227 97.0347 39.2241 95.7472 38.6428C94.4597 38.0623 93.0056 37.7699 91.382 37.7699C90.4903 37.7699 89.7014 37.8213 89.0139 37.9289Z" fill="black"/>
</g>
<defs>
<clipPath id="clip0_291_3625">
<rect width="142.014" height="40" fill="white" transform="translate(78.9932 30)"/>
</clipPath>
</defs>
</svg>
