<svg width="300" height="100" viewBox="0 0 300 100" fill="none" xmlns="http://www.w3.org/2000/svg">
<rect width="300" height="100" fill="white"/>
<g clip-path="url(#clip0_291_3606)">
<path d="M56.1539 60.3588C55.8973 60.383 55.641 60.3098 55.4359 60.1536C55.3272 60.0481 55.2433 59.9198 55.1901 59.7779C55.1369 59.636 55.1158 59.4841 55.1283 59.3331V33.0767C55.1283 32.769 55.1283 32.5639 55.4359 32.3588C55.6411 32.1536 55.8462 32.0511 56.1539 32.0511H68.1539C70.4103 32.0511 72.2565 32.3588 73.6924 33.0767C75.1283 33.6921 76.1539 34.6152 76.7693 35.846C77.4872 36.9742 77.7949 38.4101 77.7949 39.9485C77.7949 40.9742 77.6924 41.7947 77.2821 42.6152C76.6829 43.8988 75.6722 44.9457 74.4103 45.5895C75.4359 45.9998 76.4616 46.8203 77.1795 47.9485C78.0001 49.0767 78.4103 50.4101 78.4103 51.9485C78.4103 53.5895 78.0001 55.128 77.3847 56.3588C76.5784 57.7286 75.357 58.8062 73.8975 59.4357C72.4616 60.0511 70.6154 60.4613 68.5642 60.4613H56.1539V60.3588ZM61.5898 55.6408H67.7436C69.077 55.6408 70.1026 55.3331 70.8206 54.6152C71.4359 53.7947 71.8462 52.9742 71.8462 51.9485C71.8462 50.9229 71.4359 49.8972 70.718 49.2819C70.0001 48.5639 69.077 48.2562 67.7436 48.2562H61.5898V55.6408ZM61.5898 43.5383H67.3334C68.6667 43.5383 69.5898 43.2306 70.2052 42.5126C70.8206 41.9998 71.2308 41.1793 71.2308 40.1536C71.2402 39.7097 71.1534 39.269 70.9763 38.8618C70.7993 38.4546 70.5362 38.0906 70.2052 37.7947C69.5898 37.0767 68.6667 36.769 67.3334 36.769H61.5898V43.5383ZM83.9488 60.3588C83.7269 60.3588 83.5109 60.2868 83.3334 60.1536C83.2247 60.0481 83.1407 59.9198 83.0875 59.7779C83.0343 59.636 83.0132 59.4841 83.0257 59.3331V40.3588C83.0257 40.0511 83.0257 39.846 83.3334 39.6408C83.4359 39.4357 83.7436 39.3331 83.9488 39.3331H88.0513C88.359 39.3331 88.5642 39.4357 88.7693 39.6408C88.9744 39.846 88.9744 40.0511 88.9744 40.3588V59.3331C88.9744 59.6408 88.9744 59.9485 88.7693 60.1536C88.5642 60.3098 88.3079 60.383 88.0513 60.3588H83.9488ZM83.8462 36.1536C83.5757 36.1498 83.3176 36.0392 83.1283 35.846C82.9721 35.6409 82.8989 35.3846 82.9231 35.128V31.846C82.9231 31.5383 82.9231 31.3331 83.1283 31.128C83.3334 30.9229 83.5385 30.8203 83.8462 30.8203H88.0513C88.359 30.8203 88.6667 30.9229 88.8718 31.128C89.077 31.3331 89.1795 31.5383 89.1795 31.846V35.128C89.1795 35.4357 89.077 35.6408 88.8718 35.846C88.7663 35.9547 88.638 36.0386 88.4961 36.0918C88.3542 36.145 88.2023 36.1662 88.0513 36.1536H83.8462ZM103.949 69.2819C101.897 69.2819 100.359 68.9742 99.0257 68.4613C97.8539 68.0629 96.7731 67.4353 95.8462 66.6152C95.1569 65.9776 94.5994 65.211 94.2052 64.3588C93.8975 63.6408 93.6924 63.128 93.6924 62.7178C93.6924 62.4101 93.6924 62.2049 94.0001 61.9998C94.2052 61.7947 94.4103 61.6921 94.718 61.6921H99.0257C99.2308 61.6921 99.436 61.6921 99.6411 61.8972C99.8462 61.8972 99.9488 62.2049 100.051 62.5126L100.667 63.5383L101.692 64.4613C102.205 64.6665 102.923 64.769 103.744 64.769C104.769 64.769 105.487 64.6665 106.103 64.3588C106.718 64.1536 107.128 63.6408 107.436 63.0254C107.846 62.4101 107.949 61.487 107.949 60.3588V57.6921C107.333 58.4101 106.513 58.9229 105.487 59.4357C103.147 60.356 100.545 60.356 98.2052 59.4357C97.1871 59.0318 96.2749 58.4003 95.5385 57.5895C94.7945 56.6818 94.2368 55.6362 93.8975 54.5126C93.514 53.248 93.3069 51.9365 93.2821 50.6152V48.5639C93.2821 47.128 93.5898 45.7947 93.8975 44.6665C94.3077 43.5383 94.9231 42.5126 95.5385 41.5895C96.2565 40.769 97.1795 40.1536 98.2052 39.6408C99.2308 39.2306 100.462 38.9229 101.897 38.9229C103.124 38.9069 104.336 39.1766 105.44 39.7107C106.544 40.2448 107.508 41.0285 108.256 41.9998V40.2562C108.256 40.0511 108.359 39.7434 108.564 39.5383C108.769 39.3331 108.974 39.2306 109.282 39.2306H113.18C113.487 39.2306 113.692 39.3331 113.897 39.5383C114.103 39.7434 114.205 40.0511 114.205 40.2562V59.7434C114.205 61.7947 113.897 63.4357 113.18 64.8716C112.358 66.2915 111.099 67.4071 109.59 68.0511C108.154 68.769 106.205 69.1793 103.949 69.1793V69.2819ZM103.744 55.3331C104.769 55.3331 105.487 55.128 106.103 54.7178C106.718 54.3075 107.128 53.6921 107.436 53.0767C107.748 52.3638 107.922 51.5981 107.949 50.8203C108.023 49.9672 108.023 49.1093 107.949 48.2562C107.949 47.5383 107.744 46.8203 107.436 46.2049C107.231 45.487 106.718 44.8716 106.103 44.4613C105.487 44.0511 104.769 43.846 103.744 43.846C102.718 43.846 101.897 44.0511 101.385 44.4613C100.769 44.9742 100.359 45.487 100.051 46.2049C99.7436 46.9229 99.6411 47.7434 99.5385 48.6665V50.5126C99.5385 51.4357 99.7436 52.2562 100.051 52.9742C100.359 53.6921 100.769 54.3075 101.385 54.7178C102.09 55.1572 102.913 55.3718 103.744 55.3331ZM120.359 60.3588C120.102 60.383 119.846 60.3098 119.641 60.1536C119.532 60.0481 119.448 59.9198 119.395 59.7779C119.342 59.636 119.321 59.4841 119.333 59.3331V40.3588C119.333 40.0511 119.436 39.846 119.641 39.6408C119.846 39.4357 120.051 39.3331 120.359 39.3331H124.462C124.667 39.3331 124.974 39.4357 125.077 39.6408C125.282 39.846 125.385 40.0511 125.385 40.3588V59.3331C125.385 59.6408 125.385 59.9485 125.077 60.1536C124.872 60.3098 124.616 60.383 124.359 60.3588H120.256H120.359ZM120.256 36.1536C119.986 36.1498 119.728 36.0392 119.539 35.846C119.345 35.6566 119.235 35.3985 119.231 35.128V31.846C119.231 31.5383 119.333 31.3331 119.539 31.128C119.744 30.9229 119.949 30.8203 120.256 30.8203H124.462C124.769 30.8203 124.974 30.9229 125.18 31.128C125.385 31.3331 125.487 31.5383 125.487 31.846V35.128C125.487 35.4357 125.487 35.6408 125.18 35.846C124.99 36.0392 124.732 36.1498 124.462 36.1536H120.256ZM131.949 60.3588C131.692 60.383 131.436 60.3098 131.231 60.1536C131.122 60.0481 131.038 59.9198 130.985 59.7779C130.932 59.636 130.911 59.4841 130.923 59.3331V33.0767C130.923 32.769 130.923 32.5639 131.231 32.3588C131.436 32.1536 131.641 32.0511 131.949 32.0511H143.949C146.205 32.0511 148.051 32.3588 149.385 33.0767C150.821 33.6921 151.949 34.6152 152.564 35.846C153.282 36.9742 153.59 38.4101 153.59 39.9485C153.59 40.9742 153.487 41.7947 153.077 42.6152C152.478 43.8988 151.467 44.9457 150.205 45.5895C151.231 45.9998 152.256 46.8203 152.974 47.9485C153.795 49.0767 154.205 50.4101 154.205 51.9485C154.205 53.5895 153.795 55.128 153.077 56.3588C152.297 57.7124 151.114 58.7882 149.692 59.4357C148.256 60.0511 146.41 60.4613 144.256 60.4613H132.051L131.949 60.3588ZM137.385 55.6408H143.539C144.872 55.6408 145.897 55.3331 146.615 54.6152C147.231 53.7947 147.539 52.9742 147.539 51.9485C147.539 50.9229 147.231 49.8972 146.513 49.2819C145.795 48.5639 144.872 48.2562 143.436 48.2562H137.282V55.6408H137.385ZM137.385 43.5383H143.128C144.462 43.5383 145.385 43.2306 146 42.5126C146.615 41.9998 147.026 41.1793 147.026 40.1536C147.035 39.7097 146.948 39.269 146.771 38.8618C146.594 38.4546 146.331 38.0906 146 37.7947C145.385 37.0767 144.462 36.769 143.128 36.769H137.385V43.5383ZM159.539 60.3588C159.282 60.383 159.026 60.3098 158.821 60.1536C158.73 60.0393 158.665 59.907 158.629 59.7655C158.594 59.624 158.589 59.4766 158.615 59.3331V40.3588C158.615 40.1536 158.615 39.846 158.821 39.6408C159.026 39.4357 159.333 39.3331 159.539 39.3331H163.539C163.744 39.3331 164.051 39.4357 164.256 39.6408C164.462 39.846 164.564 40.1536 164.564 40.3588V41.9998C165.18 41.1793 166 40.4613 167.026 40.0511C168.051 39.6408 169.077 39.3331 170.41 39.3331H172.154C172.462 39.3331 172.667 39.4357 172.872 39.6408C173.077 39.846 173.18 40.0511 173.18 40.3588V43.846C173.18 44.1536 173.077 44.3588 172.872 44.5639C172.682 44.7571 172.424 44.8677 172.154 44.8716H168.667C167.436 44.8716 166.513 45.1793 165.795 45.8972C165.18 46.5126 164.769 47.4357 164.769 48.6665V59.3331C164.769 59.6408 164.769 59.9485 164.564 60.1536C164.359 60.3098 164.103 60.383 163.846 60.3588H159.539ZM182 60.769C180.564 60.769 179.333 60.5639 178.103 59.9485C177.042 59.4274 176.126 58.6523 175.436 57.6921C174.718 56.769 174.41 55.6408 174.41 54.6152C174.41 52.5639 175.231 51.128 176.769 49.9998C178.308 48.9742 180.359 48.1536 182.923 47.7434L188.154 47.0254V46.3075C188.154 45.2819 187.949 44.4613 187.436 43.846C186.923 43.3331 186.103 43.0254 184.872 43.0254C184.051 43.0254 183.333 43.2306 182.821 43.5383C182.205 43.846 181.795 44.3588 181.487 44.8716C181.394 45.0327 181.259 45.1656 181.097 45.2559C180.934 45.3463 180.75 45.3907 180.564 45.3844H176.769C176.462 45.3844 176.256 45.3844 176.051 45.1793C175.977 45.096 175.921 44.9985 175.885 44.8927C175.85 44.7869 175.837 44.675 175.846 44.5639C175.846 44.0511 176.051 43.5383 176.359 42.9229C176.769 42.3075 177.282 41.6921 178 41.0767C178.718 40.4613 179.641 40.0511 180.769 39.5383C181.897 39.128 183.333 38.9229 184.872 38.9229C186.615 38.9229 188.051 39.128 189.282 39.5383C190.31 39.839 191.253 40.3759 192.037 41.106C192.82 41.8361 193.422 42.7393 193.795 43.7434C194.205 44.769 194.41 45.7947 194.41 46.8203V59.3331C194.41 59.6408 194.308 59.9485 194.103 60.1536C193.898 60.3098 193.641 60.383 193.385 60.3588H189.385C189.128 60.383 188.872 60.3098 188.667 60.1536C188.576 60.0393 188.511 59.907 188.476 59.7655C188.44 59.624 188.435 59.4766 188.462 59.3331V57.8972C187.58 59.1021 186.314 59.9704 184.872 60.3588C184.051 60.6665 183.128 60.769 182 60.769ZM183.641 56.6665C184.462 56.6665 185.282 56.3588 186 56.0511C186.718 55.6408 187.231 55.0254 187.641 54.3075C188.051 53.487 188.256 52.5639 188.256 51.3331V50.6152L184.462 51.2306C183.026 51.5383 182 51.846 181.385 52.2562C180.667 52.8716 180.359 53.3844 180.359 54.1024C180.359 54.6152 180.359 55.128 180.769 55.4357C181.077 55.846 181.487 56.1536 182 56.3588L183.641 56.5639V56.6665ZM200.256 60.3588C200 60.383 199.744 60.3098 199.539 60.1536C199.43 60.0481 199.346 59.9198 199.293 59.7779C199.239 59.636 199.218 59.4841 199.231 59.3331V40.3588C199.231 40.0511 199.333 39.846 199.539 39.6408C199.744 39.4357 199.949 39.3331 200.256 39.3331H204.154C204.462 39.3331 204.769 39.4357 204.974 39.6408L205.18 40.3588V41.9998C205.991 40.9963 207.026 40.1958 208.201 39.6617C209.376 39.1276 210.659 38.8747 211.949 38.9229C213.59 38.9229 215.026 39.3331 216.051 40.0511C217.294 40.7668 218.295 41.8385 218.923 43.128C219.641 44.5639 219.949 46.2049 219.949 48.0511V59.3331C219.949 59.6408 219.949 59.9485 219.641 60.1536C219.464 60.2868 219.248 60.3588 219.026 60.3588H214.718C214.461 60.383 214.205 60.3098 214 60.1536C213.891 60.0481 213.807 59.9198 213.754 59.7779C213.701 59.636 213.68 59.4841 213.692 59.3331V48.4613C213.692 47.0254 213.385 45.8972 212.667 45.1793C211.949 44.3588 211.026 43.9485 209.59 43.9485C208.359 43.9485 207.333 44.3588 206.615 45.1793C205.897 45.8972 205.487 47.0254 205.487 48.4613V59.4357C205.487 59.7434 205.487 60.0511 205.18 60.2562C205.002 60.3894 204.786 60.4613 204.564 60.4613H200.256V60.3588ZM232.564 60.769C231.333 60.769 230.103 60.5639 229.077 60.1536C228.051 59.7434 227.026 59.128 226.41 58.2049C225.666 57.2972 225.109 56.2516 224.769 55.128C224.24 53.4366 223.997 51.6687 224.051 49.8972V48.4613C224.051 47.128 224.359 45.7947 224.667 44.6665C225.077 43.5383 225.692 42.5126 226.308 41.5895C227.033 40.7416 227.946 40.0743 228.974 39.6408C230 39.2306 231.333 38.9229 232.667 38.9229C233.902 38.8888 235.129 39.1342 236.256 39.6408C237.201 40.0711 238.041 40.7009 238.718 41.487V32.6665C238.718 32.3588 238.821 32.1536 239.026 31.9485C239.231 31.7434 239.436 31.6408 239.744 31.6408H243.846C244.154 31.6408 244.359 31.7434 244.564 31.9485C244.769 32.1536 244.872 32.3588 244.872 32.6665V59.3331C244.872 59.6408 244.872 59.9485 244.564 60.1536C244.387 60.2868 244.171 60.3588 243.949 60.3588H240.051C239.795 60.383 239.538 60.3098 239.333 60.1536C239.225 60.0481 239.141 59.9198 239.088 59.7779C239.034 59.636 239.013 59.4841 239.026 59.3331V57.9998C238.318 58.8493 237.446 59.5471 236.462 60.0511C235.436 60.5639 234.205 60.769 232.667 60.769H232.564ZM234.615 55.9485C235.539 55.9485 236.359 55.7434 236.872 55.2306C237.487 54.8203 237.898 54.2049 238.205 53.487C238.513 52.769 238.718 52.0511 238.718 51.2306C238.824 50.2077 238.824 49.1765 238.718 48.1536C238.718 47.4357 238.513 46.7177 238.205 46.1024C237.898 45.487 237.487 44.8716 236.872 44.4613C236.256 44.0511 235.539 43.846 234.513 43.846C233.487 43.846 232.667 44.0511 232.051 44.4613C231.539 44.9742 231.026 45.487 230.821 46.2049C230.123 48.5821 230.123 51.1098 230.821 53.487C231.026 54.2049 231.539 54.8203 232.051 55.3331C232.786 55.7932 233.648 56.0086 234.513 55.9485H234.615Z" fill="black"/>
</g>
<defs>
<clipPath id="clip0_291_3606">
<rect width="189.744" height="40" fill="white" transform="translate(55.1282 30)"/>
</clipPath>
</defs>
</svg>
