<svg width="300" height="100" viewBox="0 0 300 100" fill="none" xmlns="http://www.w3.org/2000/svg">
<rect width="300" height="100" fill="white"/>
<g clip-path="url(#clip0_298_12982)">
<path d="M121.524 63.5228C122.182 60.3832 121.974 57.4159 120.432 54.6323C118.909 51.8806 116.671 49.9131 113.685 48.7342C113.837 48.546 113.933 48.4088 114.048 48.2877C117.815 44.2993 116.611 37.9768 111.586 35.7166C110.562 35.2564 109.373 34.9912 108.252 34.9607C104.842 34.8632 101.426 34.9234 98.0117 34.9264C96.9989 34.9279 96.4823 35.4377 96.4823 36.4375C96.4792 40.9509 96.4945 45.4636 96.4671 49.9771C96.464 50.6477 96.6858 50.8374 97.3327 50.8305C101.273 50.7909 105.212 50.7604 109.152 50.7703C112.417 50.7787 115.078 52.0825 117.111 54.646C120.507 58.9285 119.371 65.616 114.631 68.3502C113.305 69.1152 111.673 69.4741 110.133 69.7279C100.987 71.2215 92.2714 66.484 88.4864 58.0514C83.0128 45.8523 91.2685 31.4844 104.538 30.1173C115.377 29.0002 124.801 35.9658 126.632 46.6379C127.691 52.8095 126.094 58.3654 122.003 63.1616C121.922 63.2576 121.835 63.3483 121.743 63.4336C121.711 63.4626 121.656 63.4709 121.525 63.5228H121.524Z" fill="#0D4740"/>
<path d="M99.3589 42.8304C99.3589 41.378 99.3742 39.9233 99.3506 38.4724C99.3422 37.9657 99.4877 37.7592 100.028 37.7637C102.812 37.7858 105.596 37.7416 108.38 37.7874C111.07 37.8316 113.216 40.0376 113.36 42.5645C113.528 45.4815 111.038 47.8499 108.475 47.9169C105.643 47.9924 102.808 47.9268 99.9747 47.9459C99.4542 47.9489 99.3467 47.7249 99.3521 47.2669C99.3711 45.7848 99.3589 44.3065 99.3589 42.8304Z" fill="#0C4740"/>
<path d="M139.105 56.5531H131.052V43.249H138.701C139.582 43.249 140.312 43.3717 140.894 43.6163C141.474 43.8617 141.912 44.2221 142.205 44.6984C142.498 45.1747 142.646 45.7637 142.646 46.4655C142.646 47.3129 142.419 48.0109 141.967 48.5603C141.514 49.1097 140.744 49.4176 139.655 49.4839V49.6828C140.853 49.7491 141.743 50.0668 142.325 50.6361C142.905 51.2053 143.196 51.9467 143.196 52.8604C143.196 53.6018 143.052 54.2503 142.765 54.8066C142.478 55.3629 142.034 55.7926 141.435 56.0975C140.836 56.4023 140.06 56.5539 139.106 56.5539L139.105 56.5531ZM134.226 46.3665V48.3721H138.353C138.757 48.3721 139.038 48.2966 139.197 48.1442C139.355 47.9918 139.435 47.7373 139.435 47.3799C139.435 47.0226 139.346 46.7642 139.169 46.6057C138.992 46.4472 138.695 46.3672 138.279 46.3672H134.225L134.226 46.3665ZM134.226 51.232V53.4357H138.702C139.167 53.4357 139.491 53.3565 139.674 53.1972C139.858 53.0379 139.949 52.7476 139.949 52.3232C139.949 51.8987 139.86 51.6114 139.684 51.4598C139.506 51.3074 139.179 51.2312 138.702 51.2312H134.226V51.232Z" fill="#0D4740"/>
<path d="M145.733 46.0639H145.338C144.561 46.0639 143.93 45.4337 143.93 44.6565C143.93 43.8792 144.561 43.249 145.338 43.249H145.733C146.51 43.249 147.14 43.8792 147.14 44.6565C147.14 45.4337 146.51 46.0639 145.733 46.0639ZM147.14 56.5531H143.93V46.5653H147.14V56.5531Z" fill="#0D4740"/>
<path d="M155.028 49.4242H147.672V46.5651H155.028V49.4242ZM155.028 56.5529H152.661C151.536 56.5529 150.653 56.2519 150.01 55.6492C149.368 55.0472 149.047 54.1038 149.047 52.819V43.9148L152.258 43.248V52.3428C152.258 52.7794 152.34 53.0713 152.505 53.216C152.67 53.3616 152.96 53.4347 153.377 53.4347H155.028V56.5522V56.5529Z" fill="#0D4740"/>
<path d="M159.027 56.5527H155.816V46.5649H158.825V49.6427L159.027 49.7418V56.5527ZM165.998 56.5527H162.787V51.4494C162.787 50.708 162.658 50.1921 162.402 49.9002C162.145 49.6092 161.637 49.4636 160.879 49.4636C160.121 49.4636 159.638 49.6122 159.393 49.9102C159.149 50.2081 159.026 50.7141 159.026 51.4289H158.678L158.421 49.6023H158.989C159.062 49.046 159.219 48.5233 159.457 48.0333C159.696 47.5433 160.05 47.1433 160.521 46.8316C160.991 46.5207 161.612 46.3652 162.383 46.3652C163.153 46.3652 163.844 46.5413 164.346 46.8918C164.847 47.2431 165.22 47.7094 165.464 48.2916C165.709 48.8746 165.831 49.5162 165.831 50.218H165.996V56.5527H165.998ZM172.969 56.5527H169.777V51.4494C169.777 50.708 169.645 50.1921 169.382 49.9002C169.119 49.6092 168.614 49.4636 167.868 49.4636C167.122 49.4636 166.609 49.6122 166.364 49.9102C166.12 50.2081 165.997 50.7141 165.997 51.4289H165.649L165.392 49.6023H165.979C166.052 49.046 166.211 48.5233 166.456 48.0333C166.7 47.5433 167.067 47.1433 167.556 46.8316C168.045 46.5207 168.687 46.3652 169.482 46.3652C170.278 46.3652 170.932 46.5344 171.445 46.872C171.959 47.2096 172.341 47.666 172.592 48.2421C172.843 48.8182 172.969 49.4766 172.969 50.218V56.5527Z" fill="#0D4740"/>
<path d="M176.967 56.752C175.952 56.752 175.16 56.5104 174.592 56.0273C174.023 55.5442 173.739 54.879 173.739 54.0316C173.739 53.5553 173.846 53.1316 174.06 52.7605C174.274 52.3902 174.601 52.0923 175.041 51.8675C175.482 51.6427 176.044 51.4903 176.728 51.4102L180.728 50.9934V52.9198L177.572 53.3168C177.364 53.3305 177.212 53.3801 177.113 53.4662C177.015 53.5523 176.966 53.6681 176.966 53.8137C176.966 54.0125 177.045 54.1482 177.205 54.2206C177.363 54.293 177.602 54.3295 177.92 54.3295C178.544 54.3295 179.048 54.2831 179.434 54.1909C179.819 54.0987 180.1 53.9363 180.277 53.7039C180.454 53.4723 180.543 53.1446 180.543 52.7209L180.8 52.6615V54.389H180.543C180.359 55.1175 179.972 55.6936 179.378 56.1165C178.784 56.5402 177.98 56.752 176.965 56.752H176.967ZM183.718 56.5531H180.728V54.2693H180.544V50.7351C180.544 50.1788 180.415 49.8184 180.158 49.653C179.901 49.4877 179.443 49.4046 178.783 49.4046C178.171 49.4046 177.743 49.4907 177.499 49.6629C177.254 49.8351 177.132 50.159 177.132 50.636V50.716H173.922V50.6764C173.922 49.8031 174.133 49.0449 174.554 48.4025C174.977 47.7609 175.569 47.261 176.334 46.9037C177.098 46.5463 177.994 46.3672 179.021 46.3672C180.049 46.3672 180.962 46.5493 181.653 46.9136C182.344 47.2778 182.861 47.7876 183.203 48.4429C183.545 49.0983 183.717 49.8824 183.717 50.7961V56.5546L183.718 56.5531Z" fill="#0D4740"/>
<path d="M187.974 56.5527H184.763V46.5649H187.772V49.6427L187.974 49.7418V56.5527ZM194.944 56.5527H191.733V51.4494C191.733 50.708 191.605 50.1921 191.348 49.9002C191.091 49.6092 190.583 49.4636 189.825 49.4636C189.067 49.4636 188.584 49.6122 188.339 49.9102C188.095 50.2081 187.972 50.7141 187.972 51.4289H187.624L187.367 49.6023H187.935C188.009 49.046 188.165 48.5233 188.403 48.0333C188.642 47.5433 188.996 47.1433 189.467 46.8316C189.937 46.5207 190.558 46.3652 191.329 46.3652C192.099 46.3652 192.79 46.5413 193.292 46.8918C193.793 47.2431 194.166 47.7094 194.41 48.2916C194.655 48.8746 194.777 49.5162 194.777 50.218H194.942V56.5527H194.944ZM201.915 56.5527H198.723V51.4494C198.723 50.708 198.591 50.1921 198.328 49.9002C198.065 49.6092 197.561 49.4636 196.815 49.4636C196.069 49.4636 195.555 49.6122 195.31 49.9102C195.066 50.2081 194.943 50.7141 194.943 51.4289H194.595L194.338 49.6023H194.925C194.998 49.046 195.157 48.5233 195.402 48.0333C195.646 47.5433 196.013 47.1433 196.502 46.8316C196.991 46.5207 197.633 46.3652 198.429 46.3652C199.224 46.3652 199.878 46.5344 200.391 46.872C200.905 47.2096 201.288 47.666 201.538 48.2421C201.789 48.8182 201.915 49.4766 201.915 50.218V56.5527Z" fill="#0D4740"/>
<path d="M205.913 56.752C204.898 56.752 204.106 56.5104 203.538 56.0273C202.969 55.5442 202.685 54.879 202.685 54.0316C202.685 53.5553 202.792 53.1316 203.006 52.7605C203.22 52.3902 203.547 52.0923 203.987 51.8675C204.428 51.6427 204.99 51.4903 205.675 51.4102L209.674 50.9934V52.9198L206.518 53.3168C206.31 53.3305 206.158 53.3801 206.059 53.4662C205.961 53.5523 205.912 53.6681 205.912 53.8137C205.912 54.0125 205.992 54.1482 206.151 54.2206C206.309 54.293 206.548 54.3295 206.866 54.3295C207.49 54.3295 207.994 54.2831 208.38 54.1909C208.765 54.0987 209.047 53.9363 209.223 53.7039C209.4 53.4723 209.489 53.1446 209.489 52.7209L209.746 52.6615V54.389H209.489C209.306 55.1175 208.918 55.6936 208.324 56.1165C207.731 56.5402 206.927 56.752 205.912 56.752H205.913ZM212.664 56.5531H209.674V54.2693H209.49V50.7351C209.49 50.1788 209.361 49.8184 209.104 49.653C208.848 49.4877 208.389 49.4046 207.729 49.4046C207.117 49.4046 206.69 49.4907 206.445 49.6629C206.2 49.8351 206.078 50.159 206.078 50.636V50.716H202.868V50.6764C202.868 49.8031 203.079 49.0449 203.501 48.4025C203.923 47.7609 204.516 47.261 205.28 46.9037C206.044 46.5463 206.94 46.3672 207.968 46.3672C208.995 46.3672 209.908 46.5493 210.6 46.9136C211.29 47.2778 211.807 47.7876 212.149 48.4429C212.492 49.0983 212.663 49.8824 212.663 50.7961V56.5546L212.664 56.5531Z" fill="#0D4740"/>
</g>
<defs>
<clipPath id="clip0_298_12982">
<rect width="125.89" height="40" fill="white" transform="translate(86.7734 30)"/>
</clipPath>
</defs>
</svg>
