<svg width="300" height="100" viewBox="0 0 300 100" fill="none" xmlns="http://www.w3.org/2000/svg">
<rect width="300" height="100" fill="white"/>
<g clip-path="url(#clip0_298_12960)">
<mask id="mask0_298_12960" style="mask-type:luminance" maskUnits="userSpaceOnUse" x="82" y="30" width="137" height="40">
<path d="M218.177 30H82.3438V70H218.177V30Z" fill="white"/>
</mask>
<g mask="url(#mask0_298_12960)">
<path d="M131.283 68.7497L150.685 49.5022L131.283 30.833H82.3438V68.7497H131.283Z" fill="#007976"/>
<path d="M160.894 30L169.677 30.1083C171.251 30.0641 172.8 30.517 174.102 31.4029C174.669 31.8129 175.123 32.3606 175.42 32.9941C175.717 33.6277 175.848 34.3264 175.8 35.0246C175.823 35.8024 175.602 36.5678 175.169 37.2145C174.737 37.8613 174.114 38.3573 173.386 38.6337C174.413 38.9929 175.259 39.74 175.742 40.715C176.229 41.6744 176.376 42.7708 176.159 43.8246C175.603 46.6001 173.422 47.9642 169.615 47.9167L160.677 47.8042L160.894 30ZM164.427 40.3525L164.372 44.5833L169.383 44.6429C171.175 44.6687 172.082 43.9812 172.099 42.5896C172.116 42.2919 172.063 41.9944 171.944 41.7208C171.826 41.4472 171.645 41.2052 171.416 41.0142C170.829 40.5866 170.113 40.3755 169.388 40.4167L164.427 40.3525ZM164.427 33.7017L164.385 37.0833L169.075 37.1438C170.57 37.1599 171.325 36.6218 171.339 35.5296C171.348 35.2889 171.304 35.0492 171.209 34.8278C171.114 34.6065 170.971 34.4093 170.79 34.2504C170.328 33.8989 169.756 33.7218 169.176 33.7504L164.427 33.7017Z" fill="black"/>
<path d="M179.021 33.7348C178.621 33.338 178.395 32.7986 178.392 32.235C178.39 31.6715 178.612 31.1301 179.008 30.7299C179.026 30.712 179.045 30.694 179.063 30.6765C179.469 30.3085 180.003 30.1139 180.551 30.1343C181.098 30.1546 181.616 30.3884 181.994 30.7856C182.372 31.1827 182.579 31.7118 182.572 32.2598C182.564 32.8077 182.343 33.3312 181.955 33.7182C181.937 33.7361 181.919 33.754 181.9 33.7711C181.503 34.1268 180.987 34.3205 180.454 34.3138C179.921 34.307 179.409 34.1004 179.021 33.7348ZM182.078 35.4161L178.594 35.3707L178.443 47.9161L181.927 47.9615L182.078 35.4161Z" fill="black"/>
<path d="M186.7 32.5044L190.261 32.1123L190.212 35.8332L193.594 35.8723L193.55 38.7498H190.261V43.5607C190.251 44.6815 190.705 45.2273 191.659 45.2607C192.186 45.2853 192.711 45.1869 193.192 44.9732L193.98 48.0394C193.128 48.3568 192.23 48.5354 191.322 48.5686C189.847 48.6186 188.68 48.2519 187.834 47.4686C186.988 46.6853 186.584 45.3853 186.511 43.5144V39.1665L184.427 39.1394L184.464 35.8332L186.639 35.8649L186.7 32.5044Z" fill="black"/>
<path d="M168.749 64.1667L164.427 64.1125L164.358 69.1667L160.26 69.1167L160.486 51.25L168.907 51.3542C171.086 51.3819 172.764 52.0164 173.941 53.2575C175.071 54.5211 175.688 56.1624 175.669 57.858C175.649 59.5535 174.996 61.1803 173.837 62.4179C172.64 63.5837 170.944 64.1667 168.749 64.1667ZM164.427 54.945L164.359 60.4167L168.872 60.4716C169.265 60.5028 169.66 60.4522 170.033 60.3231C170.405 60.1941 170.747 59.9893 171.036 59.7217C171.528 59.1933 171.805 58.4995 171.811 57.7772C171.818 57.0549 171.553 56.3564 171.07 55.8196C170.791 55.5445 170.46 55.3297 170.095 55.1888C169.73 55.0479 169.34 54.9839 168.949 55.0008L164.427 54.945Z" fill="black"/>
<path d="M189.659 64.1666L180.409 64.0499C180.459 64.3739 180.575 64.6839 180.752 64.9602C180.928 65.2364 181.161 65.4727 181.434 65.654C182.134 66.1122 182.96 66.3409 183.797 66.3082C185.208 66.3302 186.299 66.0135 187.072 65.3582L189.105 67.6749C187.835 68.8999 186.03 69.4971 183.688 69.4665C181.446 69.4415 179.717 68.8165 178.5 67.5915C177.284 66.3665 176.689 64.7291 176.717 62.6791C176.689 61.8145 176.838 60.9532 177.156 60.1485C177.473 59.3437 177.952 58.6125 178.563 57.9999C179.783 56.8165 181.413 56.2388 183.455 56.2666C185.677 56.2944 187.37 56.9888 188.534 58.3499C189.698 59.711 190.073 61.6499 189.659 64.1666ZM180.446 61.2499L186.409 61.3249C186.401 61.018 186.314 60.7184 186.156 60.4549C185.998 60.1915 185.776 59.973 185.509 59.8207C184.878 59.4503 184.157 59.2615 183.426 59.2749C182.758 59.2495 182.098 59.4282 181.534 59.7874C181.006 60.1273 180.62 60.6469 180.446 61.2499Z" fill="black"/>
<path d="M201.917 58.1773L200.08 60.4481C199.217 59.8215 198.176 59.4872 197.109 59.4939C196.646 59.4618 196.184 59.5523 195.767 59.7564C195.625 59.8265 195.506 59.9343 195.421 60.0681C195.336 60.2019 195.29 60.3565 195.288 60.5148C195.288 61.2123 195.903 61.5845 197.134 61.6314C197.642 61.6518 198.148 61.6977 198.651 61.7689C199.144 61.8437 199.629 61.9694 200.097 62.1439C200.559 62.2984 200.992 62.531 201.376 62.8314C201.737 63.1547 202.022 63.5547 202.209 64.0023C202.45 64.5532 202.564 65.1513 202.542 65.7523C202.547 66.3189 202.425 66.8794 202.185 67.3928C201.945 67.9061 201.593 68.3592 201.155 68.7189C200.23 69.5356 198.841 69.9342 196.988 69.9148C194.824 69.9096 192.734 69.1223 191.105 67.6981L192.73 65.1189C193.951 66.1531 195.493 66.7318 197.092 66.7564C197.563 66.7936 198.035 66.7029 198.459 66.4939C198.616 66.4305 198.75 66.3207 198.843 66.1793C198.936 66.0379 198.984 65.8715 198.98 65.7023C198.98 65.0023 198.28 64.6231 196.855 64.5523C196.241 64.5136 195.633 64.4159 195.038 64.2606C194.455 64.1078 193.894 63.878 193.372 63.5772C192.846 63.279 192.408 62.8479 192.101 62.3272C191.778 61.7637 191.618 61.122 191.638 60.4731C191.616 59.8722 191.755 59.2764 192.04 58.7469C192.325 58.2174 192.746 57.7734 193.259 57.4606C194.422 56.7665 195.764 56.4288 197.117 56.4893C198.871 56.4381 200.582 57.0395 201.917 58.1773Z" fill="black"/>
<path d="M214.627 58.518L214.771 57.083L218.177 57.1247L218.021 69.583L214.742 69.5413L214.557 67.9743C214.147 68.587 213.556 69.0558 212.866 69.3146C212.178 69.5982 211.443 69.7519 210.699 69.768C209.848 69.7993 208.999 69.6568 208.205 69.3491C207.411 69.0414 206.688 68.575 206.08 67.9784C204.901 66.7989 204.327 65.1947 204.352 63.178C204.377 61.1614 205.016 59.5734 206.266 58.4105C206.897 57.8325 207.64 57.3883 208.448 57.1048C209.256 56.8213 210.113 56.7043 210.967 56.7609C211.726 56.7597 212.476 56.9229 213.165 57.2393C213.773 57.504 214.284 57.9507 214.627 58.518ZM211.094 59.9726C210.659 59.9545 210.225 60.0224 209.817 60.1726C209.409 60.3228 209.034 60.5522 208.715 60.8476C208.392 61.1605 208.138 61.5376 207.971 61.9546C207.803 62.3716 207.724 62.8191 207.74 63.2684C207.711 63.7154 207.778 64.1635 207.935 64.5829C208.093 65.0023 208.337 65.3837 208.652 65.7018C208.965 66.0033 209.335 66.2399 209.739 66.398C210.144 66.556 210.576 66.6324 211.011 66.6226C211.457 66.6448 211.904 66.5729 212.321 66.4114C212.738 66.2498 213.116 66.0024 213.432 65.6851C213.73 65.4002 213.969 65.0585 214.133 64.68C214.298 64.3016 214.385 63.894 214.39 63.4813C214.428 62.5828 214.131 61.7022 213.557 61.0105C213.25 60.6646 212.869 60.3918 212.443 60.2122C212.017 60.0326 211.556 59.9507 211.094 59.9726Z" fill="black"/>
</g>
</g>
<defs>
<clipPath id="clip0_298_12960">
<rect width="136" height="40" fill="white" transform="translate(82.3438 30)"/>
</clipPath>
</defs>
</svg>
