<svg width="300" height="100" viewBox="0 0 300 100" fill="none" xmlns="http://www.w3.org/2000/svg">
<rect width="300" height="100" fill="white"/>
<g clip-path="url(#clip0_298_12951)">
<path fill-rule="evenodd" clip-rule="evenodd" d="M134 38.9288V40.9355C134 45.8701 136.464 50.4787 140.568 53.2187L143.89 55.4364C147.537 57.8711 148.519 62.8011 146.085 66.4479C145.505 67.3167 144.759 68.0625 143.89 68.6425L140.568 70.8602C136.464 73.6002 134 78.2088 134 83.1434V85.1501C134 87.7098 136.075 89.7848 138.635 89.7848C139.72 89.7848 140.771 89.4039 141.604 88.7085L159.973 73.3787C166.236 68.1523 167.076 58.8387 161.849 52.5763C161.281 51.8959 160.654 51.268 159.973 50.7002L141.604 35.3704C139.639 33.7303 136.716 33.9939 135.076 35.9591C134.381 36.7925 134 37.8434 134 38.9288Z" fill="#276DF7"/>
<path fill-rule="evenodd" clip-rule="evenodd" d="M147.417 40.2217L159.973 50.7004C160.087 50.7949 160.198 50.8912 160.309 50.989C160.199 51.0865 160.087 51.1826 159.973 51.2775L147.417 61.7566C147.327 59.2944 146.096 56.9091 143.89 55.4366L140.568 53.2189C139.601 52.5727 138.724 51.8227 137.949 50.9889C138.724 50.1552 139.601 49.4051 140.568 48.7589L143.89 46.5413C144.759 45.9612 145.505 45.2155 146.085 44.3467C146.934 43.0744 147.368 41.6459 147.417 40.2217Z" fill="#094DD6"/>
<path fill-rule="evenodd" clip-rule="evenodd" d="M134 14.6299V16.6367C134 21.5713 136.464 26.1799 140.568 28.9199L143.89 31.1376C147.537 33.5723 148.519 38.5023 146.085 42.1491C145.505 43.0178 144.759 43.7636 143.89 44.3437L140.568 46.5613C136.464 49.3013 134 53.9099 134 58.8445V60.8513C134 63.4109 136.075 65.486 138.635 65.486C139.72 65.486 140.771 65.1051 141.604 64.4096L159.973 49.0798C166.236 43.8535 167.076 34.5399 161.849 28.2774C161.281 27.5971 160.654 26.9692 159.973 26.4014L141.604 11.0716C139.639 9.43151 136.716 9.69509 135.076 11.6603C134.381 12.4936 134 13.5446 134 14.6299Z" fill="#79C5F5"/>
</g>
<defs>
<clipPath id="clip0_298_12951">
<rect width="31.4286" height="80" fill="white" transform="translate(134 10)"/>
</clipPath>
</defs>
</svg>
