<svg width="300" height="100" viewBox="0 0 300 100" fill="none" xmlns="http://www.w3.org/2000/svg">
<rect width="300" height="100" fill="white"/>
<g clip-path="url(#clip0_298_12934)">
<path d="M170.801 30L163.725 31.5037V60.0737H170.801V30Z" fill="#56BD82"/>
<mask id="mask0_298_12934" style="mask-type:luminance" maskUnits="userSpaceOnUse" x="116" y="30" width="69" height="40">
<path d="M184.177 30H116V70H184.177V30Z" fill="white"/>
</mask>
<g mask="url(#mask0_298_12934)">
<path d="M150.654 38.541C148.494 38.541 146.383 39.1814 144.587 40.3812C142.792 41.581 141.392 43.2863 140.566 45.2814C139.739 47.2766 139.523 49.472 139.944 51.5901C140.366 53.7082 141.406 55.6537 142.933 57.1808C144.46 58.7078 146.405 59.7477 148.523 60.1691C150.641 60.5904 152.837 60.3741 154.832 59.5477C156.827 58.7213 158.533 57.3218 159.732 55.5262C160.932 53.7306 161.572 51.6195 161.572 49.4599C161.572 46.5641 160.422 43.787 158.374 41.7394C156.326 39.6917 153.549 38.5413 150.654 38.541ZM150.654 52.998C149.954 52.998 149.27 52.7905 148.688 52.4017C148.106 52.013 147.653 51.4604 147.385 50.8139C147.117 50.1674 147.047 49.456 147.183 48.7697C147.32 48.0834 147.657 47.4529 148.152 46.9581C148.647 46.4633 149.277 46.1264 149.963 45.9898C150.65 45.8533 151.361 45.9234 152.008 46.1912C152.654 46.459 153.207 46.9124 153.595 47.4943C153.984 48.0761 154.192 48.7602 154.192 49.4599C154.192 50.3983 153.819 51.2982 153.155 51.9617C152.492 52.6253 151.592 52.998 150.654 52.998Z" fill="#56BD82"/>
<path d="M150.654 62.9238C151.353 62.9238 152.037 63.1313 152.619 63.5201C153.201 63.9089 153.655 64.4614 153.922 65.1079C154.19 65.7544 154.26 66.4658 154.124 67.1522C153.987 67.8385 153.65 68.4689 153.155 68.9637C152.661 69.4585 152.03 69.7955 151.344 69.932C150.657 70.0685 149.946 69.9985 149.3 69.7307C148.653 69.4629 148.101 69.0094 147.712 68.4276C147.323 67.8457 147.115 67.1617 147.115 66.4619C147.115 65.5236 147.488 64.6236 148.152 63.9601C148.815 63.2966 149.715 62.9238 150.654 62.9238Z" fill="#56BD82"/>
<path d="M134.909 44.172C135.778 42.7648 136.256 41.1511 136.293 39.4976C136.33 37.8441 135.924 36.2107 135.119 34.7662C134.313 33.3216 133.137 32.1183 131.711 31.2804C130.285 30.4425 128.661 30.0005 127.007 30H116V60.0737H128.383C130.226 60.073 132.026 59.5246 133.556 58.4983C135.086 57.4721 136.276 56.0141 136.975 54.3099C137.675 52.6056 137.852 50.7318 137.484 48.9267C137.116 47.1216 136.22 45.4666 134.909 44.172ZM123.086 37.0762H127.017C127.604 37.0762 128.166 37.3091 128.581 37.7238C128.996 38.1385 129.229 38.701 129.229 39.2875C129.229 39.8739 128.996 40.4364 128.581 40.8511C128.166 41.2658 127.604 41.4988 127.017 41.4988H123.086V37.0762ZM128.393 52.9975H123.086V48.5749H128.393C128.98 48.5749 129.542 48.8079 129.957 49.2226C130.371 49.6373 130.604 50.1998 130.604 50.7862C130.604 51.3727 130.371 51.9352 129.957 52.3499C129.542 52.7646 128.98 52.9975 128.393 52.9975Z" fill="#56BD82"/>
<path d="M184.167 46.0197V38.9435H180.629V33.5381L173.553 35.0418V53.3514C173.553 57.6659 176.236 60.1523 180.187 60.3587C180.226 60.3587 180.275 60.3686 180.315 60.3686H180.383C180.472 60.3686 180.55 60.3784 180.639 60.3784H180.727C181.933 60.373 183.118 60.0691 184.177 59.4939V54.285C183.661 54.425 183.129 54.4945 182.595 54.4914C181.179 54.4914 180.639 53.2531 180.639 51.5725V46.0197H184.167Z" fill="#56BD82"/>
</g>
</g>
<defs>
<clipPath id="clip0_298_12934">
<rect width="68.1769" height="40" fill="white" transform="translate(116 30)"/>
</clipPath>
</defs>
</svg>
