<svg width="300" height="100" viewBox="0 0 300 100" fill="none" xmlns="http://www.w3.org/2000/svg">
<rect width="300" height="100" fill="white"/>
<g clip-path="url(#clip0_298_12927)">
<path fill-rule="evenodd" clip-rule="evenodd" d="M115 53.221V69.6634H117.69V68.4422C118.158 68.932 118.72 69.3224 119.343 69.5901C119.965 69.8577 120.635 69.997 121.313 69.9997C122.906 69.9997 124.227 69.4157 125.271 68.2534C126.322 67.0794 126.853 65.5985 126.853 63.7991C126.853 62.0646 126.327 60.6133 125.283 59.4452C124.816 58.8989 124.238 58.4589 123.587 58.1547C122.936 57.8504 122.227 57.6889 121.508 57.6811C120.79 57.6733 120.078 57.8193 119.42 58.1093C118.763 58.3993 118.175 58.8266 117.696 59.3626V52.8965L115 53.221ZM123.183 61.1915C123.812 61.9588 124.136 62.9316 124.091 63.923C124.091 64.9732 123.785 65.8522 123.159 66.5543C122.874 66.8882 122.518 67.1546 122.117 67.3341C121.716 67.5137 121.28 67.602 120.841 67.5926C120.389 67.6097 119.94 67.5253 119.525 67.3456C119.111 67.1659 118.742 66.8955 118.445 66.5543C117.812 65.7963 117.487 64.8272 117.537 63.8404C117.537 62.7372 117.844 61.8463 118.457 61.1561C118.759 60.816 119.133 60.5466 119.551 60.3671C119.969 60.1877 120.421 60.1025 120.876 60.1177C121.802 60.1177 122.569 60.4717 123.183 61.1915Z" fill="#20365C"/>
<path d="M175.283 53.221V69.6635H177.979V64.0293C177.979 62.5956 178.162 61.5809 178.54 60.9909C178.923 60.4068 179.584 60.1178 180.522 60.1178C181.26 60.1178 181.791 60.3302 182.115 60.749C182.451 61.162 182.617 61.8405 182.617 62.7726V69.6635H185.313V62.5248C185.313 60.8965 184.976 59.7107 184.31 58.9673C183.905 58.5394 183.414 58.2036 182.868 57.9827C182.322 57.7618 181.736 57.661 181.148 57.6871C179.963 57.6983 178.827 58.1627 177.973 58.985V52.8906L175.283 53.2151V53.221ZM128.923 58.0116H131.608V59.0499C131.986 58.6253 132.433 58.2664 132.929 57.988C133.319 57.7874 133.779 57.693 134.316 57.693C135.024 57.693 135.767 57.9172 136.54 58.3833L135.307 60.8493C134.88 60.5113 134.358 60.3171 133.814 60.2948C132.339 60.2948 131.608 61.4039 131.608 63.6222V69.6635H128.923V58.0116Z" fill="#20365C"/>
<path fill-rule="evenodd" clip-rule="evenodd" d="M145.737 58.0122H148.434V69.6641H145.737V68.4428C145.242 68.9537 144.646 69.3564 143.987 69.6255C143.328 69.8947 142.62 70.0244 141.909 70.0067C141.197 69.989 140.497 69.8241 139.852 69.5225C139.207 69.2208 138.632 68.789 138.162 68.2541C137.101 67.0179 136.543 65.4281 136.599 63.7998C136.599 62.0535 137.118 60.6021 138.162 59.434C138.631 58.8922 139.21 58.4563 139.86 58.1554C140.51 57.8545 141.217 57.6954 141.934 57.6887C142.65 57.682 143.36 57.8279 144.016 58.1166C144.672 58.4053 145.259 58.8302 145.737 59.3632V58.0063V58.0122ZM139.342 63.7998C139.342 64.9207 139.637 65.8293 140.239 66.5313C140.852 67.2393 141.631 67.5933 142.563 67.5933C143.56 67.5933 144.363 67.2511 144.982 66.5667C145.612 65.8107 145.94 64.8481 145.903 63.8647C145.903 62.7673 145.59 61.8706 144.976 61.1567C144.68 60.8176 144.312 60.5486 143.898 60.369C143.485 60.1895 143.037 60.1039 142.587 60.1184C141.661 60.1184 140.888 60.4723 140.263 61.1685C139.641 61.9014 139.313 62.839 139.342 63.7998Z" fill="#20365C"/>
<path d="M151.059 58.0116H153.767V59.0854C154.711 58.1532 155.767 57.6871 156.947 57.6871C158.304 57.6871 159.36 58.1119 160.115 58.9674C160.77 59.693 161.1 60.8789 161.1 62.519V69.6635H158.392V63.1562C158.392 62.0057 158.233 61.2093 157.92 60.7727C157.608 60.3302 157.035 60.106 156.215 60.106C155.325 60.106 154.687 60.401 154.316 60.991C153.95 61.575 153.767 62.5898 153.767 64.0411V69.6635H151.059V58.0116ZM164.599 63.4866C164.599 62.7734 164.81 62.0762 165.207 61.4835C165.603 60.8908 166.167 60.4292 166.826 60.1574C167.485 59.8856 168.211 59.8158 168.91 59.9569C169.609 60.0979 170.25 60.4435 170.752 60.9497L172.581 59.1326C171.574 58.1178 170.245 57.484 168.823 57.3393C167.4 57.1946 165.971 57.548 164.78 58.3391C163.589 59.1303 162.709 60.3102 162.291 61.6775C161.873 63.0449 161.942 64.5151 162.486 65.8373C163.031 67.1595 164.017 68.2517 165.277 68.9277C166.538 69.6038 167.993 69.8217 169.396 69.5443C170.799 69.2669 172.062 68.5114 172.97 67.4067C173.878 66.302 174.374 64.9165 174.375 63.4866H171.797C171.797 64.441 171.417 65.3564 170.742 66.0313C170.068 66.7062 169.152 67.0854 168.198 67.0854C167.243 67.0854 166.328 66.7062 165.653 66.0313C164.978 65.3564 164.599 64.441 164.599 63.4866Z" fill="#20365C"/>
<path fill-rule="evenodd" clip-rule="evenodd" d="M151.059 30V52.1416H151.696V30H151.047H151.059ZM155.012 45.7994C155.588 45.7994 156.14 45.5707 156.547 45.1635C156.954 44.7564 157.183 44.2041 157.183 43.6283C157.183 43.0525 156.954 42.5003 156.547 42.0931C156.14 41.686 155.588 41.4572 155.012 41.4572C154.436 41.4572 153.884 41.686 153.477 42.0931C153.069 42.5003 152.841 43.0525 152.841 43.6283C152.841 44.2041 153.069 44.7564 153.477 45.1635C153.884 45.5707 154.436 45.7994 155.012 45.7994ZM157.177 38.2596C157.192 38.5538 157.148 38.8481 157.046 39.1245C156.944 39.4009 156.786 39.6537 156.583 39.8674C156.381 40.0811 156.136 40.2513 155.866 40.3676C155.595 40.4838 155.303 40.5438 155.009 40.5438C154.714 40.5438 154.423 40.4838 154.152 40.3676C153.881 40.2513 153.637 40.0811 153.434 39.8674C153.231 39.6537 153.074 39.4009 152.972 39.1245C152.87 38.8481 152.825 38.5538 152.841 38.2596C152.87 37.7041 153.111 37.181 153.514 36.798C153.918 36.4151 154.453 36.2016 155.009 36.2016C155.565 36.2016 156.1 36.4151 156.503 36.798C156.907 37.181 157.148 37.7041 157.177 38.2596ZM147.749 43.115C148.325 43.115 148.877 42.8863 149.284 42.4791C149.692 42.072 149.92 41.5198 149.92 40.944C149.92 40.3681 149.692 39.8159 149.284 39.4088C148.877 39.0016 148.325 38.7729 147.749 38.7729C147.173 38.7729 146.621 39.0016 146.214 39.4088C145.807 39.8159 145.578 40.3681 145.578 40.944C145.578 41.5198 145.807 42.072 146.214 42.4791C146.621 42.8863 147.173 43.115 147.749 43.115Z" fill="#1DAFEC"/>
</g>
<defs>
<clipPath id="clip0_298_12927">
<rect width="70.3245" height="40" fill="white" transform="translate(115 30)"/>
</clipPath>
</defs>
</svg>
