<svg width="300" height="100" viewBox="0 0 300 100" fill="none" xmlns="http://www.w3.org/2000/svg">
<rect width="300" height="100" fill="white"/>
<g clip-path="url(#clip0_298_12919)">
<path d="M66.0127 49.4839H84.2524L80.3485 53.3877H66.0127V59.207H74.5293L66 67.7363L67.8295 69.5643L76.3572 61.035V69.5515H82.1764V55.2157L86.0564 51.3374V69.5515H93.8149V41.7256H66.0127V49.4839Z" fill="#0BCE5A"/>
<path d="M184.236 61.731L189.264 59.6075C190.217 62.6275 192.392 65.139 196.302 65.139C199.208 65.139 201.163 63.4621 201.163 61.4514C201.163 55.3619 185.465 59.3277 185.465 48.659C185.465 44.2449 189.319 40.9482 195.407 40.9482C200.714 40.9482 205.184 43.7426 206.413 47.8753L201.387 49.999C200.66 47.2062 198.035 45.6421 195.464 45.6421C192.783 45.6421 191.106 46.7023 191.106 48.5477C191.106 53.9663 206.917 49.8321 206.917 61.3957C206.917 66.2565 202.671 69.9997 196.302 69.9997C189.431 69.9997 185.52 65.7541 184.236 61.731Z" fill="black"/>
<path d="M208.971 61.731L213.999 59.6075C214.953 62.6275 217.127 65.139 221.039 65.139C223.943 65.139 225.898 63.4621 225.898 61.4514C225.898 55.3619 210.2 59.3277 210.2 48.659C210.2 44.2449 214.055 40.9482 220.144 40.9482C225.451 40.9482 229.919 43.7426 231.15 47.8753L226.122 49.999C225.396 47.2062 222.77 45.6421 220.2 45.6421C217.52 45.6421 215.843 46.7023 215.843 48.5477C215.843 53.9663 231.652 49.8321 231.652 61.3957C231.652 66.2565 227.407 69.9997 221.037 69.9997C214.167 69.9997 210.256 65.7541 208.971 61.731Z" fill="black"/>
<path d="M181.012 52.0115V69.5534H175.041V65.2523C173.421 68.1006 169.954 70.0001 166.214 70.0001C160.627 70.0001 156.772 66.4808 156.772 61.6774C156.772 56.1459 161.074 53.1846 169.733 52.2994L175.041 51.7334V51.3408C175.041 47.8773 172.639 45.7553 168.951 45.7553C165.543 45.7553 163.142 47.766 162.752 51.1183L157.278 50.1121C158.171 44.5822 162.976 40.9502 168.953 40.9502C176.096 40.9502 181.012 44.9717 181.012 52.0115ZM175.041 57.4286V56.2555L169.678 56.8708C165.097 57.373 162.751 59.0499 162.751 61.5074C162.751 63.7423 164.594 65.3063 167.443 65.3063C172.18 65.3063 174.979 62.0112 175.041 57.4286Z" fill="black"/>
<path d="M151.639 46.6486C147.506 46.6486 143.874 50.3346 143.874 59.0468V69.5503H137.784V41.3968H143.874V46.7598C145.382 43.4076 149.07 40.9502 152.478 40.9502C153.54 40.9502 154.768 41.1091 155.606 41.4525L155.271 47.3257C154.265 46.8711 152.923 46.6486 151.639 46.6486Z" fill="black"/>
<path d="M111.629 65.9769V69.5535H105.539V30H111.629V44.916C113.304 42.5698 116.601 40.9422 120.231 40.9422C128.722 40.9422 133.583 46.9823 133.583 55.4671C133.583 63.952 128.722 69.992 120.118 69.992C116.377 70 112.969 68.3231 111.629 65.9769ZM127.493 55.4751C127.493 49.888 124.253 46.2559 119.336 46.2559C114.42 46.2559 111.18 49.8864 111.18 55.4751C111.18 61.0049 114.421 64.6942 119.336 64.6942C124.251 64.6942 127.493 61.0065 127.493 55.4751Z" fill="black"/>
</g>
<defs>
<clipPath id="clip0_298_12919">
<rect width="167.273" height="40" fill="white" transform="translate(66 30)"/>
</clipPath>
</defs>
</svg>
