<svg width="300" height="100" viewBox="0 0 300 100" fill="none" xmlns="http://www.w3.org/2000/svg">
<rect width="300" height="100" fill="white"/>
<g clip-path="url(#clip0_298_12904)">
<path d="M97.5952 33.6162H101.171V45.498C102.329 44.1655 103.788 43.1101 105.435 42.4139C107.044 41.7503 108.775 41.4124 110.522 41.4209C112.226 41.4057 113.914 41.7362 115.478 42.3913C116.979 43.0211 118.339 43.9291 119.481 45.0642C121.247 46.8627 122.439 49.117 122.917 51.5568C123.394 53.9965 123.136 56.518 122.173 58.819C120.927 61.7975 118.521 64.1802 115.478 65.4517C113.945 66.1007 112.29 66.4312 110.618 66.4222C108.838 66.429 107.077 66.0753 105.446 65.3838C103.795 64.6777 102.335 63.6093 101.181 62.2628V65.9143H97.5952V33.6162ZM110.367 44.7599C109.138 44.7517 107.92 44.9955 106.794 45.4754C105.702 45.9402 104.714 46.6079 103.886 47.441C103.05 48.287 102.38 49.2735 101.908 50.3523C101.412 51.4773 101.161 52.6897 101.171 53.9133C101.154 56.3305 102.122 58.6562 103.863 60.3857C104.71 61.222 105.713 61.8965 106.817 62.3738C107.947 62.8568 109.167 63.108 110.401 63.112C111.635 63.1158 112.857 62.8723 113.99 62.3965C115.073 61.9387 116.053 61.2792 116.874 60.4555C117.698 59.6172 118.352 58.6367 118.803 57.5648C119.286 56.437 119.531 55.2268 119.524 54.0058C119.533 51.58 118.576 49.2445 116.853 47.4862C116.023 46.6512 115.037 45.9766 113.947 45.498C112.823 45.0035 111.602 44.7517 110.367 44.7599Z" fill="#0A1429"/>
<path d="M137.486 45.2423C136.29 45.2275 135.104 45.4565 134.006 45.9146C132.98 46.346 132.055 46.9757 131.288 47.765C130.515 48.5698 129.909 49.5115 129.502 50.5387C129.072 51.6227 128.856 52.7757 128.866 53.9372V66.002H125.284V42.0061H128.859V45.6596C131.115 43.0403 133.749 41.7285 137.465 41.7285L137.486 45.2423Z" fill="#0A1429"/>
<path d="M141.443 33.439C141.73 33.439 142.015 33.494 142.281 33.6009C142.547 33.7077 142.789 33.8643 142.992 34.0617C143.196 34.2591 143.357 34.4935 143.467 34.7514C143.577 35.0093 143.634 35.2858 143.634 35.565C143.634 35.8441 143.577 36.1206 143.467 36.3785C143.357 36.6365 143.196 36.8708 142.992 37.0682C142.789 37.2656 142.547 37.4222 142.281 37.5291C142.015 37.6359 141.73 37.6909 141.443 37.6909C141.155 37.7018 140.869 37.654 140.602 37.5506C140.335 37.4471 140.094 37.2904 139.893 37.0905C139.509 36.6696 139.297 36.127 139.297 35.565C139.297 35.003 139.509 34.4604 139.893 34.0394C140.094 33.8395 140.335 33.6828 140.602 33.5794C140.869 33.4759 141.155 33.4281 141.443 33.439ZM143.263 41.9448V65.986H139.679V41.9448H143.263Z" fill="#0A1429"/>
<path d="M184.191 51.1968V66.0003H180.664V51.6595C180.664 49.5335 180.156 47.877 179.14 46.69C178.124 45.5031 176.711 44.9096 174.901 44.9096C173.927 44.9073 172.963 45.0961 172.065 45.4647C170.286 46.1816 168.854 47.5292 168.062 49.2333C167.664 50.082 167.46 51.0047 167.466 51.937V65.992H163.937V51.4745C163.949 50.5668 163.806 49.6637 163.513 48.8017C163.252 48.0448 162.838 47.346 162.297 46.7455C161.766 46.1721 161.116 45.7151 160.389 45.4051C159.615 45.0768 158.779 44.9115 157.935 44.9198C156.973 44.9151 156.021 45.1122 155.145 45.4976C154.281 45.8767 153.504 46.4191 152.858 47.093C152.204 47.78 151.682 48.5752 151.317 49.441C150.933 50.3502 150.738 51.3243 150.745 52.3072V65.992H147.208V41.9509H150.735V44.817C152.642 42.5979 155.137 41.4883 158.219 41.4883C160.029 41.4883 161.583 41.881 162.882 42.6664C164.18 43.4518 165.292 44.6772 166.218 46.3426C167.106 44.8663 168.359 43.6272 169.863 42.7363C171.344 41.8951 173.033 41.4634 174.749 41.4883C176.049 41.4754 177.339 41.7196 178.539 42.2059C179.664 42.6639 180.675 43.3494 181.506 44.2167C182.354 45.1147 183.017 46.1615 183.46 47.3007C183.952 48.5438 184.2 49.8653 184.191 51.1968Z" fill="#0A1429"/>
<path d="M187.576 33.6162H191.149V45.498C192.308 44.1654 193.768 43.1101 195.416 42.414C197.021 41.7553 198.747 41.4209 200.49 41.4312C202.194 41.4159 203.883 41.7465 205.448 42.4016C206.949 43.0314 208.309 43.9393 209.451 45.0745C211.217 46.873 212.409 49.1273 212.887 51.567C213.364 54.0068 213.106 56.5283 212.143 58.8293C210.897 61.8078 208.491 64.1905 205.448 65.462C203.914 66.1108 202.258 66.4415 200.585 66.4325C198.807 66.439 197.046 66.0855 195.416 65.3942C193.764 64.6883 192.303 63.6198 191.149 62.2732V65.9247H187.576V33.6162ZM200.348 44.7599C199.118 44.7517 197.899 44.9955 196.772 45.4754C195.681 45.9407 194.694 46.6084 193.867 47.441C193.031 48.287 192.361 49.2735 191.889 50.3523C191.392 51.4772 191.141 52.6895 191.149 53.9133C191.132 56.331 192.101 58.6572 193.843 60.3857C194.691 61.222 195.693 61.8965 196.798 62.3738C197.927 62.8568 199.147 63.1082 200.382 63.112C201.616 63.1158 202.838 62.8723 203.97 62.3965C205.053 61.9387 206.032 61.2792 206.853 60.4557C207.677 59.6173 208.332 58.6368 208.784 57.5648C209.264 56.4367 209.507 55.2265 209.498 54.0058C209.509 51.58 208.553 49.244 206.83 47.4862C205.999 46.6507 205.012 45.976 203.922 45.498C202.8 45.0041 201.58 44.7522 200.348 44.7599Z" fill="#0A1429"/>
<path d="M219.459 33.542V65.9492H215.883V33.542H219.459Z" fill="#0A1429"/>
<path d="M242.242 59.4318L244.626 61.7428C243.537 63.2278 242.079 64.4207 240.386 65.2093C238.604 66.0495 236.646 66.4768 234.664 66.4573C232.959 66.4665 231.272 66.1363 229.706 65.4868C227.377 64.5297 225.392 62.9258 224.002 60.877C222.611 58.8283 221.876 56.4262 221.889 53.9732C221.877 52.3032 222.226 50.6495 222.916 49.1188C223.571 47.6458 224.504 46.3054 225.671 45.1672C226.839 44.0386 228.221 43.137 229.737 42.5108C231.296 41.8601 232.976 41.5297 234.672 41.5403C236.464 41.5282 238.237 41.889 239.874 42.5983C241.509 43.3077 242.969 44.3491 244.154 45.6524C245.324 46.9613 246.209 48.4868 246.754 50.1367C247.344 51.9105 247.561 53.7817 247.389 55.6385H225.749C225.902 56.6772 226.249 57.6802 226.771 58.5992C227.279 59.5065 227.957 60.3138 228.771 60.98C229.584 61.6428 230.501 62.1733 231.489 62.5508C232.501 62.9393 233.579 63.1355 234.667 63.1287C236.194 63.1412 237.701 62.8007 239.064 62.1355C240.354 61.5278 241.452 60.5938 242.242 59.4318ZM225.657 52.3118H243.727C243.547 51.2662 243.167 50.2625 242.606 49.3532C242.054 48.4655 241.359 47.6692 240.547 46.995C239.744 46.3204 238.826 45.788 237.832 45.4221C236.819 45.0509 235.746 44.8635 234.664 44.869C232.564 44.8676 230.532 45.5971 228.941 46.925C227.271 48.327 226.117 50.2178 225.654 52.3118H225.657Z" fill="#0A1429"/>
<path d="M75.1455 45.5765H66.928C66.7874 45.5765 66.6527 45.5223 66.5533 45.4259C66.4539 45.3295 66.3981 45.1988 66.3981 45.0625C66.3981 44.9261 66.4539 44.7954 66.5533 44.699C66.6527 44.6026 66.7874 44.5485 66.928 44.5485H71.449C73.4378 44.5485 75.3451 43.7821 76.7515 42.4179C78.1578 41.0537 78.9478 39.2035 78.9478 37.2742C78.9478 35.345 78.1578 33.4948 76.7515 32.1306C75.3451 30.7664 73.4378 30 71.449 30H63.009V36.8589C61.3967 37.5846 60.0317 38.7422 59.0749 40.1952C58.1181 41.6482 57.6093 43.3362 57.6084 45.0604C57.6061 45.864 57.7159 46.6642 57.9348 47.4392C55.6161 48.8435 53.8319 50.9422 52.852 53.4175C51.872 55.893 51.7497 58.6107 52.5035 61.1595C53.2574 63.7083 54.8463 65.9498 57.03 67.5448C59.2138 69.1398 61.8735 70.0017 64.6071 70H75.1455C78.4845 70 81.6868 68.7133 84.0478 66.423C86.409 64.1327 87.7355 61.0262 87.7355 57.7872C87.7355 54.5482 86.409 51.4418 84.0478 49.1515C81.6868 46.8612 78.4845 45.5765 75.1455 45.5765ZM75.1455 67.1647H64.6071C62.2866 67.1662 60.0431 66.3572 58.287 64.8855C56.531 63.414 55.3797 61.3785 55.044 59.1512C54.7082 56.9238 55.2103 54.6537 56.4585 52.756C57.7066 50.8583 59.6173 49.46 61.8411 48.8168C61.1213 47.898 60.6804 46.8025 60.5681 45.6536C60.4558 44.5048 60.6764 43.3484 61.2053 42.3148C61.7341 41.2811 62.5501 40.4113 63.5612 39.8033C64.5723 39.1953 65.7384 38.8734 66.928 38.8738H71.449C71.8835 38.8738 72.3001 38.7064 72.6075 38.4083C72.9148 38.1103 73.0873 37.706 73.0873 37.2845C73.0873 36.863 72.9148 36.4588 72.6075 36.1607C72.3001 35.8626 71.8835 35.6952 71.449 35.6952H65.9382V32.8435H71.449C72.0571 32.8308 72.662 32.936 73.2276 33.153C73.7935 33.37 74.3088 33.6944 74.7436 34.1072C75.1785 34.52 75.524 35.0129 75.7598 35.5569C75.9956 36.1009 76.117 36.6851 76.117 37.2753C76.117 37.8654 75.9956 38.4496 75.7598 38.9936C75.524 39.5377 75.1785 40.0305 74.7436 40.4433C74.3088 40.8561 73.7935 41.1805 73.2276 41.3975C72.662 41.6145 72.0571 41.7197 71.449 41.707H66.928C66.4667 41.6959 66.0077 41.7745 65.5782 41.9381C65.1487 42.1017 64.7572 42.347 64.4269 42.6596C64.0966 42.9722 63.8341 43.3457 63.6548 43.7582C63.4756 44.1707 63.3833 44.6138 63.3833 45.0614C63.3833 45.5091 63.4756 45.9522 63.6548 46.3647C63.8341 46.7772 64.0966 47.1507 64.4269 47.4633C64.7572 47.7758 65.1487 48.0212 65.5782 48.1847C66.0077 48.3483 66.4667 48.4268 66.928 48.4158H75.1455C77.6825 48.4523 80.103 49.4555 81.884 51.2088C83.6648 52.9622 84.6631 55.3248 84.6631 57.7862C84.6631 60.2475 83.6648 62.6102 81.884 64.3635C80.103 66.1168 77.6825 67.12 75.1455 67.1565V67.1647ZM75.1455 51.2675H64.6071C63.7135 51.2522 62.8256 51.4097 61.9954 51.7307C61.1652 52.0518 60.4092 52.5302 59.7716 53.1377C59.134 53.7453 58.6276 54.47 58.2819 55.2695C57.9362 56.069 57.7582 56.9273 57.7582 57.7943C57.7582 58.6613 57.9362 59.5197 58.2819 60.3192C58.6276 61.1188 59.134 61.8435 59.7716 62.4512C60.4092 63.0587 61.1652 63.537 61.9954 63.8582C62.8256 64.1792 63.7135 64.3367 64.6071 64.3213H75.1455C76.039 64.3367 76.9268 64.1792 77.7571 63.8582C78.5873 63.537 79.3433 63.0587 79.981 62.4512C80.6185 61.8435 81.125 61.1188 81.4706 60.3192C81.8163 59.5197 81.9943 58.6613 81.9943 57.7943C81.9943 56.9273 81.8163 56.069 81.4706 55.2695C81.125 54.47 80.6185 53.7453 79.981 53.1377C79.3433 52.5302 78.5873 52.0518 77.7571 51.7307C76.9268 51.4097 76.039 51.2522 75.1455 51.2675ZM75.1455 61.4798H64.6071C63.5997 61.4798 62.6337 61.0917 61.9214 60.4007C61.2091 59.7097 60.8089 58.7727 60.8089 57.7955C60.8089 56.8183 61.2091 55.8812 61.9214 55.1902C62.6337 54.4992 63.5997 54.111 64.6071 54.111H75.1455C76.1528 54.111 77.1188 54.4992 77.8311 55.1902C78.5435 55.8812 78.9436 56.8183 78.9436 57.7955C78.9436 58.7727 78.5435 59.7097 77.8311 60.4007C77.1188 61.0917 76.1528 61.4798 75.1455 61.4798Z" fill="#3366CC"/>
</g>
<defs>
<clipPath id="clip0_298_12904">
<rect width="196.667" height="40" fill="white" transform="translate(52.0156 30)"/>
</clipPath>
</defs>
</svg>
