<svg width="300" height="100" viewBox="0 0 300 100" fill="none" xmlns="http://www.w3.org/2000/svg">
<rect width="300" height="100" fill="white"/>
<g clip-path="url(#clip0_298_12892)">
<path d="M242.698 32.0611H241.079V31.6348H244.807V32.0611H243.19V36.3241H242.698V32.0611Z" fill="#03BE4B"/>
<path d="M250.44 31.6348V36.3241H249.948V32.6295L248.119 35.7557H247.908L246.079 32.6295V36.3241H245.586V31.6348H246.008L247.977 35.1162L249.948 31.6348H250.44Z" fill="#03BE4B"/>
<path d="M104.806 39.5175C105.791 38.6649 106.846 38.0965 108.042 37.6702C109.168 37.3149 110.504 37.1018 112.052 37.1018C113.599 37.1018 115.007 37.386 116.413 37.8834C117.75 38.3807 118.946 39.1623 120.001 40.1569C121.267 41.2937 122.182 42.6437 122.885 44.2779C123.589 45.841 123.87 47.4752 123.87 49.2513C123.87 51.0987 123.519 52.8749 122.745 54.509C121.971 56.1432 120.916 57.5642 119.579 58.8432C118.594 59.6958 117.398 60.4062 116.132 60.9036C114.866 61.4009 113.459 61.6141 112.052 61.6141C110.715 61.6141 109.449 61.4009 108.253 60.9745C107.057 60.5482 105.931 59.9089 104.876 59.0562V60.9745H99.6001V30.21H104.876V39.5175H104.806ZM105.017 49.3935C105.017 51.3118 105.65 52.8749 106.846 54.2249C108.112 55.5038 109.59 56.2142 111.348 56.2142C113.318 56.2142 115.007 55.5749 116.343 54.2249C117.68 52.9459 118.313 51.3118 118.313 49.3224C118.313 47.4752 117.68 45.841 116.343 44.491C115.007 43.1411 113.459 42.4306 111.63 42.4306C109.73 42.4306 108.183 43.07 106.916 44.4199C105.65 45.7699 105.017 47.4041 105.017 49.3935Z" fill="#03BE4B"/>
<path d="M136.392 42.3593C134.281 42.5013 132.874 43.0698 132.03 43.9934C131.186 44.9171 130.764 46.6222 130.764 49.0379V60.9033H125.417V37.6699H130.412V40.3699C131.256 39.3041 132.101 38.5936 133.085 38.0963C134.07 37.5989 135.126 37.3857 136.321 37.3857V42.3593H136.392Z" fill="#03BE4B"/>
<path d="M137.737 37.6738H143.436L149.063 53.9443L155.254 37.6738H160.882L148.36 68.4385H142.802L146.038 60.2677L137.737 37.6738Z" fill="#03BE4B"/>
<path d="M178.617 39.5173V30.1387H183.893V60.9034H178.617V58.9849C177.561 59.8375 176.436 60.4771 175.24 60.9034C174.044 61.3297 172.778 61.5428 171.441 61.5428C169.964 61.5428 168.627 61.3297 167.361 60.8323C166.095 60.3349 164.899 59.6955 163.914 58.7718C162.507 57.564 161.452 56.1429 160.678 54.4378C159.904 52.8037 159.552 51.0274 159.552 49.1801C159.552 47.4749 159.904 45.8408 160.607 44.2066C161.311 42.5724 162.296 41.2935 163.562 40.0857C164.617 39.091 165.813 38.3094 167.15 37.8121C168.487 37.3147 169.964 37.0305 171.511 37.0305C172.989 37.0305 174.325 37.2437 175.451 37.5989C176.577 38.0963 177.632 38.6647 178.617 39.5173ZM178.406 49.3932C178.406 47.4038 177.773 45.7697 176.506 44.4197C175.24 43.0698 173.692 42.4303 171.863 42.4303C170.034 42.4303 168.416 43.1408 167.15 44.4908C165.813 45.8408 165.18 47.4749 165.18 49.3221C165.18 51.3115 165.813 52.9457 167.15 54.2246C168.487 55.5035 170.105 56.214 172.145 56.214C173.903 56.214 175.381 55.5746 176.647 54.2246C177.773 52.8746 178.406 51.2405 178.406 49.3932Z" fill="#03BE4B"/>
<path d="M205.765 37.6731H210.548V57.0698C210.548 61.1197 209.493 64.2458 207.382 66.5905C205.271 68.8641 202.317 70.0009 198.589 70.0009C195.845 70.0009 193.524 69.3614 191.624 68.0115C189.725 66.6615 188.388 64.7432 187.474 62.1143H192.609C193.172 63.1801 193.946 63.9617 195.001 64.6011C196.056 65.1695 197.182 65.4537 198.448 65.4537C200.559 65.4537 202.317 64.7432 203.654 63.3222C204.991 61.9012 205.624 60.0538 205.624 57.7803V57.5671C204.568 58.6329 203.443 59.4855 202.106 60.0538C200.77 60.6223 199.363 60.9065 197.745 60.9065C196.197 60.9065 194.72 60.6223 193.383 60.1249C191.976 59.5565 190.78 58.846 189.725 57.8514C188.599 56.7855 187.685 55.4357 187.052 53.9435C186.419 52.4515 186.067 50.8885 186.067 49.3254C186.067 45.7728 187.192 42.9308 189.373 40.5862C191.554 38.3126 194.368 37.1758 197.745 37.1758C199.292 37.1758 200.699 37.46 202.036 38.0284C203.373 38.5968 204.568 39.4494 205.694 40.5862V37.6731H205.765ZM191.413 48.8991C191.413 50.9595 192.117 52.5937 193.454 54.0146C194.79 55.3646 196.478 56.0751 198.448 56.0751C200.277 56.0751 201.825 55.3646 203.232 54.0146C204.639 52.6646 205.271 51.0305 205.271 49.1832C205.271 47.1938 204.568 45.4886 203.232 44.0676C201.895 42.6466 200.277 41.9361 198.378 41.9361C196.478 41.9361 194.79 42.5756 193.454 43.9255C192.117 45.2755 191.413 46.9097 191.413 48.8991Z" fill="#03BE4B"/>
<path d="M236.367 45.5572C236.014 44.3494 235.451 43.2126 234.748 42.2179C233.553 40.5838 232.074 39.2338 230.316 38.3812C228.557 37.4575 226.728 37.0312 224.759 37.0312C223.211 37.0312 221.663 37.3865 220.185 38.0259C218.708 38.7364 217.371 39.6601 216.176 40.939C215.12 42.0758 214.276 43.3547 213.714 44.7757C213.151 46.1968 212.87 47.7599 212.87 49.3229C212.87 50.886 213.151 52.4491 213.783 53.9412C214.417 55.4332 215.262 56.7831 216.317 57.92C217.442 59.1279 218.779 60.0514 220.185 60.6199C221.663 61.2594 223.211 61.5435 224.899 61.5435C227.431 61.5435 229.683 60.8331 231.653 59.412C233.622 57.9911 235.03 56.0726 236.014 53.5149H230.245C229.683 54.4385 228.91 55.1491 227.994 55.6463C227.01 56.1437 225.954 56.4279 224.759 56.4279C222.93 56.4279 221.522 55.9306 220.327 55.0069C219.482 54.2965 218.85 53.3728 218.568 52.236H215.473V50.9571H218.357H220.608H236.788C236.788 50.8149 236.788 50.6018 236.788 50.3886C236.788 50.1045 236.788 49.9623 236.788 49.8203C236.859 48.1862 236.717 46.7651 236.367 45.5572ZM218.568 46.694C218.99 45.2731 219.693 44.1363 220.819 43.2126C221.945 42.36 223.211 41.9337 224.617 41.9337C226.236 41.9337 227.643 42.36 228.697 43.1416C229.753 43.9231 230.527 45.131 231.019 46.694H218.568Z" fill="#03BE4B"/>
<path d="M74.4889 43.7837H57.0425C53.3843 43.7837 50.4297 40.7996 50.4297 37.105V36.6787C50.4297 32.9841 53.3843 30 57.0425 30H74.4889C78.1471 30 81.1017 32.9841 81.1017 36.6787V37.105C81.0314 40.7996 78.0768 43.7837 74.4889 43.7837Z" fill="#03BE4B"/>
<path d="M86.3762 60.9048H68.9297C65.2715 60.9048 62.3169 57.9206 62.3169 54.2262V53.7999C62.3169 50.1052 65.2715 47.1211 68.9297 47.1211H86.3762C90.0342 47.1211 92.989 50.1052 92.989 53.7999V54.2262C92.9185 57.9206 89.9639 60.9048 86.3762 60.9048Z" fill="#03BE4B"/>
</g>
<defs>
<clipPath id="clip0_298_12892">
<rect width="201.538" height="40" fill="white" transform="translate(50.4297 30)"/>
</clipPath>
</defs>
</svg>
