<svg width="300" height="100" viewBox="0 0 300 100" fill="none" xmlns="http://www.w3.org/2000/svg">
<rect width="300" height="100" fill="white"/>
<g clip-path="url(#clip0_291_3628)">
<path d="M169.139 30H130.861V69.9799H169.139V30Z" fill="white"/>
<path d="M130.861 30.0205H169.139V62.2655H130.861V30.0205Z" fill="#B0283F"/>
<path d="M148.605 31.8476C150.235 31.6681 151.914 31.9589 153.39 32.6766C154.536 33.2315 155.556 34.0373 156.365 35.0192C157.134 35.9512 157.711 37.0428 158.043 38.2041C158.464 39.6711 158.495 41.2478 158.13 42.7297C157.845 43.8911 157.317 44.9909 156.591 45.9396C155.799 46.9779 154.772 47.8353 153.607 48.4267C152.469 49.0081 151.2 49.3288 149.923 49.3703C148.334 49.4218 146.731 49.0347 145.344 48.2555C143.623 47.2968 142.239 45.7484 141.485 43.9292C140.895 42.5187 140.684 40.9536 140.876 39.4367C141.029 38.2023 141.453 36.9994 142.109 35.9411C142.782 34.8513 143.699 33.9125 144.772 33.2115C145.919 32.4638 147.243 31.9903 148.605 31.8475L148.605 31.8476ZM148.578 33.0721C148.286 33.5505 148.09 34.0772 147.922 34.6089C148.386 34.5491 148.851 34.5159 149.318 34.5059C149.313 33.7832 149.313 33.0588 149.306 32.3344C148.987 32.4906 148.761 32.778 148.578 33.0721ZM149.801 32.3344C149.801 33.0588 149.808 33.7831 149.81 34.5059C150.278 34.5158 150.747 34.5524 151.21 34.6105C151.027 34.044 150.81 33.4824 150.481 32.9824C150.306 32.7216 150.09 32.474 149.801 32.3344ZM147.567 32.8328C146.582 33.396 145.827 34.2916 145.277 35.2718C145.958 35.0093 146.666 34.8182 147.384 34.6903C147.613 33.9061 147.901 33.1219 148.397 32.4657C148.11 32.5604 147.831 32.6816 147.567 32.8328ZM150.718 32.469C151.22 33.1252 151.514 33.9111 151.752 34.6936C152.471 34.8231 153.179 35.0159 153.862 35.2784C153.157 34.0407 152.104 32.9175 150.718 32.4689L150.718 32.469ZM143.687 34.7285C142.83 35.5924 142.171 36.6474 141.765 37.7938C142.471 36.8484 143.445 36.1273 144.502 35.6123C144.6 35.5675 144.623 35.4512 144.673 35.3631C145.176 34.3646 145.869 33.4459 146.766 32.768C145.611 33.1817 144.55 33.8562 143.687 34.7285ZM152.356 32.7747C153.298 33.4841 154.019 34.4544 154.538 35.5061C154.561 35.5676 154.611 35.6108 154.671 35.6357C155.722 36.1507 156.689 36.8701 157.399 37.8088C157.016 36.7555 156.422 35.7802 155.659 34.9595C154.754 33.9809 153.611 33.2267 152.356 32.7747ZM147.776 35.1256C147.553 35.9912 147.41 36.8767 147.316 37.7639C147.987 37.7091 148.66 37.6792 149.333 37.6725C149.329 36.782 149.324 35.8898 149.319 34.9993C148.804 35.0093 148.288 35.0509 147.776 35.1256ZM149.813 34.9994C149.816 35.8899 149.821 36.782 149.826 37.6742C150.501 37.6808 151.175 37.7107 151.846 37.7672C151.743 36.8784 151.592 35.9945 151.361 35.1306C150.849 35.0541 150.331 35.011 149.813 34.9994ZM144.938 35.948C144.606 36.684 144.37 37.4599 144.217 38.2524C145.071 38.0431 145.942 37.9052 146.816 37.8121C146.905 36.9399 147.04 36.071 147.244 35.2187C146.452 35.3732 145.674 35.6141 144.938 35.948ZM151.895 35.2236C152.107 36.0743 152.252 36.9432 152.348 37.8154C153.224 37.9101 154.096 38.0497 154.951 38.259C154.79 37.4682 154.546 36.6923 154.209 35.958C153.469 35.6224 152.69 35.3815 151.895 35.2236ZM143.38 36.87C142.523 37.518 141.795 38.3836 141.468 39.4203C142.121 38.9152 142.908 38.6278 143.691 38.3935C143.814 37.6774 144.003 36.9713 144.261 36.2918C143.955 36.4662 143.659 36.6573 143.38 36.8699L143.38 36.87ZM154.892 36.3068C155.155 36.983 155.351 37.6875 155.48 38.4019C156.263 38.6378 157.048 38.9252 157.705 39.4269C157.61 39.1511 157.495 38.882 157.351 38.6295C156.784 37.6326 155.881 36.8667 154.892 36.3068L154.892 36.3068ZM147.27 38.264C147.213 38.9518 147.183 39.6446 147.18 40.3357C147.903 40.3374 148.624 40.3357 149.346 40.3374C149.343 39.6131 149.338 38.8904 149.335 38.166C148.645 38.1709 147.956 38.2025 147.27 38.264ZM149.828 38.1659C149.832 38.8903 149.835 39.6146 149.838 40.3374C150.562 40.3391 151.285 40.3391 152.008 40.3391C151.998 39.648 151.963 38.9552 151.9 38.2674C151.21 38.2059 150.519 38.1727 149.828 38.166L149.828 38.1659ZM144.126 38.784C144.055 39.2974 144.014 39.8157 144.005 40.334C144.899 40.334 145.793 40.3357 146.688 40.3357C146.692 39.6595 146.718 38.985 146.771 38.3121C145.881 38.4101 144.994 38.5547 144.126 38.784ZM152.398 38.3171C152.458 38.99 152.491 39.6645 152.501 40.339C153.395 40.3407 154.289 40.3407 155.183 40.3424C155.17 39.8224 155.125 39.3057 155.047 38.7924C154.178 38.5648 153.29 38.4169 152.398 38.3172L152.398 38.3171ZM142.039 39.6164C141.758 39.7974 141.485 40.0217 141.339 40.3308C142.063 40.3342 142.788 40.3325 143.512 40.3325C143.52 39.8639 143.554 39.3971 143.61 38.9319C143.065 39.1047 142.525 39.3107 142.039 39.6164ZM155.567 38.9418C155.627 39.407 155.665 39.8739 155.676 40.3424C156.399 40.3424 157.122 40.3441 157.846 40.3424C157.702 40.045 157.442 39.8257 157.17 39.6496C156.677 39.3306 156.123 39.1213 155.567 38.9418ZM141.346 40.8258C141.504 41.1465 141.794 41.3741 142.092 41.5585C142.568 41.8509 143.093 42.0503 143.623 42.2198C143.564 41.7579 143.527 41.2927 143.515 40.8259C142.791 40.8259 142.068 40.8225 141.346 40.8258ZM144.007 40.8258C144.02 41.3425 144.065 41.8576 144.143 42.3693C145.012 42.5969 145.899 42.7448 146.792 42.8445C146.733 42.1732 146.7 41.5003 146.69 40.8275C145.796 40.8275 144.903 40.8258 144.007 40.8258ZM147.184 40.8292C147.194 41.5187 147.227 42.2082 147.292 42.8944C147.979 42.9542 148.669 42.9875 149.358 42.9941C149.355 42.273 149.352 41.552 149.348 40.8293L147.184 40.8292ZM149.842 40.8309C149.845 41.552 149.848 42.2731 149.852 42.9957C150.543 42.9891 151.234 42.9575 151.922 42.8977C151.978 42.2099 152.008 41.522 152.011 40.8325C151.287 40.8308 150.564 40.8308 149.842 40.8308L149.842 40.8309ZM152.42 42.8479C153.311 42.7499 154.198 42.6037 155.065 42.376C155.138 41.866 155.178 41.3493 155.186 40.8342C154.293 40.8342 153.397 40.8325 152.503 40.8325C152.5 41.5054 152.473 42.1783 152.42 42.8479ZM155.583 42.2282C155.997 42.0969 156.406 41.9441 156.793 41.7464C157.203 41.5304 157.632 41.2679 157.846 40.8376C157.124 40.8342 156.401 40.8359 155.68 40.8342C155.671 41.2994 155.64 41.7646 155.583 42.2281L155.583 42.2282ZM141.475 41.7298C141.641 42.2398 141.902 42.7167 142.231 43.1403C142.786 43.8597 143.515 44.4312 144.303 44.8765C144.037 44.192 143.841 43.4826 143.71 42.7598C142.922 42.5239 142.133 42.2332 141.475 41.7298ZM155.502 42.7665C155.379 43.4892 155.188 44.1987 154.929 44.8832C155.183 44.737 155.434 44.5808 155.672 44.408C156.594 43.7434 157.383 42.8363 157.725 41.7382C157.072 42.2432 156.285 42.5306 155.502 42.7665ZM144.238 42.9011C144.392 43.6687 144.627 44.4197 144.946 45.134C144.966 45.1839 144.996 45.2337 145.05 45.252C145.77 45.571 146.526 45.8036 147.296 45.9564C147.082 45.0975 146.939 44.2236 146.841 43.3464C145.966 43.2517 145.094 43.1121 144.238 42.9011ZM152.375 43.348C152.286 44.2269 152.151 45.1008 151.945 45.9598C152.714 45.8069 153.47 45.5777 154.186 45.257C154.243 45.2387 154.269 45.1856 154.292 45.1357C154.603 44.423 154.829 43.672 154.977 42.9078C154.121 43.1171 153.251 43.2566 152.375 43.348ZM141.799 43.3862C142.188 44.4445 142.791 45.4248 143.565 46.2472C144.464 47.2074 145.594 47.9501 146.833 48.3954C145.879 47.6793 145.158 46.6924 144.633 45.6308C144.504 45.4995 144.306 45.458 144.153 45.355C143.251 44.8599 142.426 44.207 141.799 43.3862ZM147.343 43.3928C147.446 44.2883 147.599 45.1771 147.83 46.0478C148.342 46.1258 148.857 46.1674 149.373 46.179C149.37 45.2819 149.365 44.3847 149.362 43.4875C148.687 43.4809 148.014 43.4493 147.343 43.3928ZM149.853 43.4875C149.858 44.3847 149.862 45.2819 149.867 46.179C150.383 46.1691 150.9 46.1275 151.413 46.0511C151.638 45.1805 151.781 44.29 151.875 43.3962C151.202 43.4527 150.528 43.4826 149.853 43.4875ZM154.711 45.5527C154.595 45.5943 154.565 45.7205 154.512 45.8185C154.01 46.8137 153.319 47.7275 152.424 48.4037C153.517 48.0116 154.523 47.3886 155.359 46.5828C156.285 45.6956 156.997 44.5892 157.426 43.3797C156.723 44.3184 155.758 45.0393 154.711 45.5527ZM145.335 45.9033C145.487 46.1641 145.649 46.42 145.826 46.6625C146.491 47.573 147.386 48.3538 148.473 48.7011C147.971 48.0481 147.679 47.2657 147.443 46.4847C146.723 46.3568 146.017 46.1641 145.335 45.9033ZM151.806 46.4864C151.575 47.2673 151.291 48.0515 150.792 48.706C151.066 48.6147 151.334 48.5017 151.585 48.3605C152.586 47.8006 153.352 46.8951 153.911 45.9049C153.229 46.1674 152.523 46.3585 151.806 46.4864ZM147.983 46.5678C148.122 46.9981 148.282 47.4251 148.495 47.8255C148.711 48.2193 148.97 48.628 149.385 48.8357C149.385 48.113 149.378 47.3919 149.377 46.6709C148.91 46.6609 148.445 46.626 147.983 46.5678ZM149.868 46.6708C149.873 47.3935 149.873 48.1163 149.88 48.8373C150.181 48.6945 150.4 48.4303 150.576 48.1562C150.887 47.666 151.093 47.1194 151.267 46.5696C150.802 46.6277 150.337 46.6625 149.868 46.6708Z" fill="#FFDC1E"/>
<path d="M145.059 51.0506C145.978 51.0523 146.897 51.0523 147.816 51.0523C147.711 51.3646 147.742 51.6953 147.741 52.0175C147.749 54.0212 147.759 56.0232 147.769 58.0252C147.774 58.6432 147.95 59.2945 148.405 59.7365C148.875 60.2183 149.575 60.3878 150.231 60.3711C150.879 60.3662 151.565 60.1867 152.029 59.7082C152.516 59.2198 152.685 58.5037 152.685 57.8326C152.678 55.7674 152.667 53.7023 152.657 51.6371C152.658 51.4411 152.633 51.2434 152.577 51.0557C153.017 51.0574 153.458 51.0574 153.898 51.0574C153.85 51.2335 153.82 51.4162 153.821 51.599C153.831 53.7023 153.843 55.8057 153.851 57.9106C153.853 58.6217 153.693 59.3462 153.31 59.9526C152.969 60.5008 152.447 60.9262 151.859 61.1837C151.085 61.5259 150.228 61.6223 149.389 61.619C148.671 61.6107 147.94 61.5292 147.274 61.2468C146.611 60.9561 146.021 60.4709 145.659 59.8379C145.309 59.2331 145.174 58.5254 145.171 57.8325C145.161 55.7425 145.151 53.6508 145.141 51.5608C145.142 51.388 145.111 51.2169 145.059 51.0507L145.059 51.0506ZM138.843 56.7143C138.849 57.9172 138.854 59.1201 138.859 60.3245C139.167 60.3212 139.476 60.3295 139.783 60.3212C140.119 60.3112 140.469 60.1966 140.695 59.9357C140.963 59.6333 141.044 59.2163 141.062 58.8259C141.079 58.3756 141.044 57.9088 140.848 57.4968C140.705 57.1944 140.446 56.9468 140.13 56.8305C139.72 56.6694 139.273 56.7259 138.843 56.7143ZM158.293 53.4696C157.863 54.7605 157.433 56.0531 157.002 57.344C157.875 57.3457 158.749 57.3457 159.622 57.3457C159.179 56.0532 158.737 54.7605 158.293 53.4696L158.293 53.4696ZM157.891 51.0606C158.624 51.0606 159.357 51.0623 160.088 51.0623C160.106 51.3464 160.225 51.6073 160.32 51.8731C161.407 54.8437 162.495 57.8142 163.581 60.7849C163.659 61.0291 163.771 61.2634 163.934 61.4644C162.942 61.461 161.95 61.461 160.958 61.461C160.965 61.2998 160.94 61.1387 160.885 60.9875C160.598 60.1601 160.31 59.331 160.023 58.5037C158.883 58.502 157.743 58.502 156.604 58.502C156.351 59.2313 156.097 59.9607 155.844 60.69C155.76 60.9392 155.647 61.1884 155.673 61.4576C155.205 61.4559 154.735 61.4542 154.266 61.4559C154.376 61.2981 154.464 61.1253 154.525 60.9409C155.62 57.8008 156.715 54.6624 157.81 51.5224C157.865 51.3745 157.888 51.2167 157.891 51.0605L157.891 51.0606ZM138.82 52.1671C138.825 53.3202 138.832 54.4732 138.837 55.6262C139.287 55.6179 139.761 55.6677 140.188 55.4916C140.409 55.4102 140.575 55.2274 140.676 55.0198C140.929 54.5014 140.982 53.9017 140.902 53.3368C140.846 52.9447 140.656 52.5393 140.294 52.3449C139.844 52.0924 139.312 52.1871 138.82 52.1671ZM136.141 51.044C137.648 51.0474 139.154 51.0457 140.66 51.049C141.406 51.0589 142.186 51.255 142.745 51.77C143.198 52.182 143.417 52.7935 143.456 53.3949C143.5 54.0196 143.411 54.6991 143 55.1975C142.637 55.6461 142.075 55.8571 141.537 56.0132C142.095 56.1345 142.653 56.3605 143.045 56.7891C143.487 57.2476 143.678 57.8956 143.678 58.5219C143.688 59.1832 143.537 59.8743 143.117 60.401C142.695 60.9343 142.057 61.2765 141.389 61.3912C141.01 61.4626 140.623 61.4427 140.241 61.446C138.89 61.4443 137.54 61.4426 136.189 61.4426C136.29 61.1419 136.262 60.8229 136.264 60.5106C136.249 57.54 136.235 54.5677 136.22 51.5972C136.222 51.4094 136.195 51.2234 136.141 51.0439L136.141 51.044Z" fill="#FDFDFD"/>
<path d="M130.861 63.3164H169.139V70.0002H130.861V63.3164Z" fill="#57B851"/>
<path d="M155.635 65.1292C156.047 65.1043 156.498 65.0611 156.866 65.282C157.185 65.4664 157.355 65.8286 157.401 66.1825C157.446 66.553 157.43 66.9368 157.333 67.299C157.248 67.6146 157.059 67.9187 156.762 68.0699C156.416 68.2509 156.011 68.2044 155.635 68.1812C155.614 67.1644 155.614 66.1459 155.635 65.1292ZM149.44 65.086C149.776 64.9913 150.166 65.0478 150.435 65.2787C150.678 65.4847 150.817 65.7904 150.875 66.0994C150.939 66.4517 150.927 66.8172 150.86 67.1678C150.792 67.5 150.646 67.829 150.384 68.05C150.093 68.2959 149.666 68.3258 149.32 68.1912C148.967 68.05 148.739 67.7027 148.646 67.3455C148.54 66.9119 148.556 66.45 148.663 66.0181C148.767 65.6177 149.021 65.2089 149.44 65.086ZM142.589 65.0894C142.883 65.0046 143.215 65.0329 143.477 65.1941C143.733 65.3519 143.903 65.6227 143.989 65.9068C144.092 66.254 144.092 66.6229 144.052 66.9801C144.004 67.3539 143.875 67.7344 143.6 68.0018C143.202 68.3906 142.481 68.3507 142.115 67.9337C141.826 67.6147 141.735 67.1678 141.736 66.7475C141.736 66.3006 141.813 65.8271 142.085 65.4582C142.212 65.2887 142.386 65.1508 142.589 65.0894ZM142.554 64.7106C142.095 64.7654 141.65 64.9781 141.341 65.3269C140.972 65.7274 140.824 66.2872 140.843 66.8223C140.848 67.2958 141.034 67.7709 141.387 68.0899C141.841 68.5252 142.502 68.6614 143.112 68.6166C143.622 68.5867 144.129 68.3757 144.469 67.9919C144.911 67.5117 145.039 66.8123 144.941 66.1826C144.87 65.7307 144.604 65.317 144.227 65.0595C143.745 64.7206 143.127 64.6459 142.554 64.7107L142.554 64.7106ZM149.407 64.7088C149.018 64.7554 148.638 64.9065 148.342 65.1691C148.011 65.4532 147.794 65.8585 147.721 66.2871C147.641 66.7573 147.668 67.2691 147.91 67.6927C148.184 68.1745 148.698 68.4918 149.239 68.5799C149.9 68.6945 150.648 68.5998 151.161 68.1363C151.615 67.7475 151.823 67.1394 151.811 66.5547C151.819 66.0513 151.628 65.5346 151.243 65.199C150.753 64.7504 150.047 64.6357 149.407 64.7088ZM162.048 64.7171C161.631 64.7952 161.266 65.1192 161.154 65.5312C161.079 65.812 161.091 66.1277 161.234 66.3868C161.364 66.6211 161.585 66.7872 161.817 66.9102C162.081 67.0481 162.367 67.1594 162.591 67.3621C162.789 67.5415 162.804 67.8805 162.623 68.0765C162.412 68.3158 162.043 68.3407 161.762 68.2294C161.546 68.1413 161.428 67.9253 161.352 67.7177C161.315 67.7193 161.279 67.721 161.242 67.7226C161.201 67.9519 161.146 68.1795 161.076 68.4022C161.503 68.5982 161.997 68.6896 162.458 68.57C162.867 68.462 163.236 68.1463 163.349 67.731C163.442 67.3804 163.385 66.975 163.141 66.6976C162.832 66.3237 162.325 66.229 161.96 65.9317C161.747 65.7721 161.696 65.4299 161.879 65.2289C162.065 65.0179 162.392 65.0029 162.639 65.0976C162.807 65.1641 162.9 65.3285 162.968 65.4847C162.993 65.483 163.043 65.4797 163.068 65.4797C163.121 65.2937 163.181 65.1109 163.251 64.9331C162.885 64.7387 162.46 64.6357 162.048 64.7171ZM154.776 64.7254C154.823 65.2189 154.818 65.7157 154.823 66.2124C154.819 67.0033 154.839 67.7974 154.776 68.5866C155.223 68.5002 155.677 68.5766 156.125 68.5866C156.679 68.6099 157.277 68.5118 157.707 68.1397C158.104 67.809 158.287 67.2874 158.313 66.784C158.347 66.249 158.265 65.6625 157.893 65.2505C157.559 64.87 157.036 64.7238 156.546 64.7238C155.956 64.7272 155.363 64.8251 154.776 64.7254ZM136.055 64.7237C136.11 65.3202 136.098 65.9199 136.105 66.5181C136.1 67.1976 136.115 67.8787 136.056 68.5549C136.35 68.5433 136.646 68.5433 136.942 68.5549C136.899 67.9618 136.895 67.3653 136.899 66.7689C137.307 66.7739 137.719 66.7639 138.126 66.8137C138.113 66.6659 138.113 66.518 138.126 66.3718C137.719 66.42 137.307 66.4117 136.899 66.415V65.1241C137.331 65.1174 137.763 65.1158 138.193 65.1656C138.178 65.0194 138.18 64.8732 138.193 64.727C137.482 64.7785 136.766 64.7886 136.055 64.7237Z" fill="white"/>
</g>
<defs>
<clipPath id="clip0_291_3628">
<rect width="38.2775" height="40" fill="white" transform="translate(130.861 30)"/>
</clipPath>
</defs>
</svg>
