<svg width="300" height="100" viewBox="0 0 300 100" fill="none" xmlns="http://www.w3.org/2000/svg">
<rect width="300" height="100" fill="white"/>
<path d="M140 54.2635C140 55.6439 139.617 56.7175 138.865 57.4384C138.175 58.1132 137.178 58.466 135.982 58.466C134.785 58.466 133.788 58.1132 133.098 57.4384C132.347 56.7175 131.963 55.6439 131.963 54.2635V45.9353H129.417V54.4629C129.417 56.5028 130.107 58.1746 131.396 59.3249C132.546 60.3371 134.187 60.9046 135.982 60.9046C137.791 60.9046 139.402 60.3371 140.568 59.3249C141.871 58.1746 142.561 56.5028 142.561 54.4629V45.9353H140V54.2635ZM152.025 45.6439C151.12 45.6439 150.215 45.8126 149.371 46.1807C148.62 46.5028 147.96 47.0089 147.454 47.6378V45.92H144.923V60.6132H147.485V52.3463C147.485 51.0887 147.899 50.0151 148.696 49.2482C149.448 48.5273 150.491 48.1132 151.626 48.1132C154.095 48.1132 155.522 49.6316 155.522 52.285V60.6132H158.068V51.5488C158.052 48.0212 155.629 45.6439 152.025 45.6439ZM166.81 45.7512C168.88 45.7512 170.598 46.4721 171.856 47.8678V38.604H174.433V60.6439H171.856V58.8187C170.614 60.1991 168.88 60.9353 166.81 60.9353C162.653 60.9353 159.525 57.6531 159.525 53.3433C159.525 49.0028 162.653 45.7512 166.81 45.7512ZM177.04 38.604H179.663V60.6285H177.04V38.604ZM188.62 45.6439C190.537 45.6439 192.27 46.3954 193.497 47.7758C194.739 49.1408 195.429 51.0887 195.445 53.2359C195.445 53.5273 195.429 53.8187 195.399 54.1101L195.383 54.2635H184.064C184.233 55.5979 184.785 56.7022 185.644 57.469C186.503 58.2206 187.623 58.604 188.88 58.604C190.506 58.604 192.009 57.9905 193.252 56.8402L193.39 56.7175L194.785 58.5273L194.678 58.6347C193.068 60.1991 191.181 60.92 188.742 60.92C184.433 60.92 181.411 57.7911 181.411 53.2973C181.411 51.1347 182.147 49.1715 183.451 47.7911C184.785 46.4108 186.61 45.6439 188.62 45.6439ZM125.445 48.9721C124.402 47.9752 123.083 47.193 121.503 46.6715C121.058 46.5181 120.614 46.3954 120.153 46.2881C120.828 44.0641 120.966 42.0703 120.537 40.3525C119.816 37.5151 117.331 35.4905 114.433 35.3831C111.917 35.2911 109.571 36.7022 108.482 39.0028C107.592 40.8739 107.561 42.9598 107.546 44.8003V44.8157V44.8617C107.531 46.0273 107.546 47.193 107.561 48.3433C106.319 49.0795 105.399 49.8463 104.709 50.7666C103.635 52.1776 103.19 53.8647 103.512 55.4138C103.773 56.7175 104.586 57.8065 105.675 58.2973C106.411 58.6347 107.178 58.6807 107.868 58.604C107.653 60.6132 106.779 61.4108 106.626 61.5335L108.543 62.9905C108.834 62.6684 109.095 62.3157 109.295 61.9322C109.923 60.8126 110.261 59.4629 110.291 57.8985C110.445 57.8371 110.598 57.7758 110.736 57.6991C111.687 58.4966 112.745 59.1562 113.88 59.6623C115.261 60.2604 116.718 60.6592 118.206 60.8433C121.058 61.1654 123.819 60.4292 125.598 58.8801C126.887 57.7451 127.623 56.15 127.669 54.3709C127.715 52.377 126.887 50.3678 125.445 48.9721Z" fill="#60269E"/>
<path d="M163.512 56.9785C164.417 57.9448 165.675 58.4816 167.07 58.4816C168.451 58.4816 169.709 57.9601 170.598 57.0092C171.488 56.0736 171.978 54.7546 171.978 53.3282C171.978 51.9018 171.503 50.6135 170.598 49.6626C169.709 48.7117 168.451 48.1902 167.07 48.1902C165.659 48.1902 164.402 48.727 163.497 49.6933C162.623 50.6288 162.132 51.9172 162.132 53.3282C162.132 54.7239 162.623 56.0276 163.512 56.9785ZM191.472 49.1564C190.721 48.4049 189.709 48.0061 188.574 48.0061C187.362 48.0061 186.304 48.4203 185.506 49.1871C184.785 49.8926 184.294 50.8896 184.095 52.0706H192.807C192.653 50.8742 192.193 49.8773 191.472 49.1564ZM125.291 54.2945C125.276 55.0614 125.046 56.1657 124.049 57.0399C122.531 58.3589 120.184 58.635 118.497 58.4356C116.488 58.2055 114.524 57.4693 113.021 56.411C113.957 55.7822 114.816 55.046 115.583 54.2331C117.101 52.6534 118.344 50.7362 119.31 48.543C120.813 48.8497 122.531 49.4632 123.804 50.6902C124.77 51.6411 125.307 52.9448 125.291 54.2945ZM105.859 54.908C105.966 55.4601 106.288 55.9202 106.672 56.1043C106.963 56.2423 107.362 56.2577 107.868 56.1657C107.791 54.4479 107.715 52.7914 107.653 51.1657C107.27 51.4724 106.917 51.8252 106.626 52.2086C105.966 53.0522 105.69 54.0644 105.859 54.908ZM109.939 44.862V44.816C109.954 43.1442 109.969 41.411 110.644 40.0153C111.304 38.635 112.715 37.7607 114.233 37.7607H114.371C116.212 37.8374 117.791 39.1104 118.251 40.9203C118.589 42.3006 118.436 43.9877 117.791 45.9203C117.592 45.9049 117.408 45.8896 117.209 45.8896C114.724 45.7822 112.255 46.227 109.954 47.1779C109.923 46.3957 109.923 45.6288 109.939 44.862ZM109.985 49.7546C110.031 51.5644 110.107 53.3896 110.199 55.2914C111.564 54.6012 112.807 53.681 113.85 52.5614C115.015 51.3497 115.997 49.908 116.794 48.2515C114.509 48.2055 112.178 48.7117 109.985 49.7546Z" fill="white"/>
</svg>
