<svg width="300" height="100" viewBox="0 0 300 100" fill="none" xmlns="http://www.w3.org/2000/svg">
<rect width="300" height="100" fill="white"/>
<g clip-path="url(#clip0_291_3636)">
<path d="M63.8314 50.0906C64.0885 49.9089 64.1388 49.7813 63.8816 49.5744C62.1842 48.2636 60.4596 46.9509 58.7873 45.613C58.1203 45.0736 57.374 44.6096 56.7554 43.9678H56.7302V55.4924H56.7554C56.9622 55.3126 57.1923 55.1328 57.3992 54.953C59.5258 53.358 61.6699 51.7108 63.8314 50.0906Z" fill="#292525"/>
<path d="M244.171 30.8214C244.171 30.4348 244.093 30.3574 243.707 30.3574H56.2932C55.9066 30.3574 55.8292 30.4348 55.8292 30.8214V39.5214V61.3874V69.1788C55.8292 69.5654 55.9066 69.6427 56.2932 69.6427H243.682C244.068 69.6427 244.144 69.5654 244.144 69.1788C244.171 56.3666 244.171 43.6066 244.171 30.8214ZM243.27 68.2276C243.27 68.6394 243.167 68.7418 242.756 68.7418H57.2444C56.7824 68.7418 56.7302 68.5872 56.7302 68.2005V55.5449H56.705V44.0184H56.7302V31.7997C56.7302 31.3879 56.8326 31.2835 57.2444 31.2835H242.756C243.167 31.2835 243.27 31.3608 243.27 31.7997V68.2276Z" fill="white"/>
<path d="M184.949 33.7023C184.949 33.0334 184.949 33.0334 184.305 33.0334H60.0497C59.8695 33.0469 59.6885 33.0469 59.5083 33.0334C59.2261 33.0082 59.1487 33.1378 59.1487 33.3949V43.222C59.1386 43.3103 59.1523 43.3997 59.1883 43.4809C59.2244 43.5622 59.2814 43.6323 59.3537 43.6841C60.2546 44.3801 61.1555 45.0993 62.0603 45.7933C63.7733 47.1312 65.5017 48.4536 67.2262 49.7818C66.7641 50.1414 66.3523 50.501 65.9135 50.8355C63.8042 52.4305 61.6698 54.0255 59.5605 55.6205C59.3034 55.8273 59.1217 56.0323 59.1487 56.4189C59.1739 59.5567 59.1739 62.7216 59.1487 65.8613C59.1487 66.3485 59.2512 66.5032 59.7906 66.5032C101.312 66.4774 142.843 66.4774 184.382 66.5032C184.871 66.5032 184.974 66.3756 184.974 65.9116C184.949 55.2106 184.949 44.4516 184.949 33.7023ZM76.8484 57.9617C75.8701 59.172 74.5284 59.6863 73.0397 59.7636C72.4462 59.7931 71.8512 59.7588 71.2649 59.6611C69.7995 59.4543 68.3649 59.6341 66.8917 59.6863H66.4548L66.1977 59.4291C66.1847 59.3541 66.2017 59.277 66.2451 59.2144C66.2885 59.1518 66.3548 59.1088 66.4297 59.0947H66.4799C66.8666 59.0695 67.2784 59.1449 67.5355 58.7853C67.8429 58.3735 67.87 57.8593 67.87 57.3701C67.9203 56.1096 67.946 54.8491 67.9473 53.5885V42.3211C67.9473 41.9866 67.9203 41.627 67.8951 41.2925C67.8429 40.5463 67.5085 40.2118 66.7641 40.0823L66.1706 40.0049C66.0179 40.0049 65.8632 39.9547 65.8632 39.7749C65.8632 39.5951 66.0179 39.4907 66.1977 39.4907H67.7927C68.1001 39.4907 68.3843 39.5178 68.6936 39.5178H69.5926C70.8531 39.5178 72.1407 39.3631 73.4013 39.568C75.9726 39.9547 76.8813 41.9866 76.6879 43.9161C76.5584 45.4627 75.8392 46.7465 74.7333 47.8001C74.4491 48.0573 74.3989 48.1617 74.8087 48.3666C78.745 50.4759 79.0292 55.2879 76.8426 57.9617H76.8484ZM96.6399 40.032C95.6385 40.1867 95.4567 40.3394 95.4065 41.3428C95.2267 44.0185 95.3543 46.6691 95.3291 49.3449C95.3291 50.7852 95.3291 52.2256 95.1223 53.6659C94.8999 55.1584 94.5133 56.5987 93.5466 57.8342C92.0541 59.7114 90.0221 60.2005 87.7311 59.9434C84.4135 59.5838 83.0235 57.2928 82.4841 54.6442C82.265 53.5085 82.1614 52.3535 82.1747 51.197V42.3462C82.1747 42.0891 82.1747 41.8068 82.1496 41.5497C82.0723 40.4941 81.7629 40.1867 80.7093 40.032C80.4773 40.005 80.0655 40.1596 80.1177 39.7478C80.1699 39.336 80.5295 39.5178 80.7866 39.5178C82.5865 39.5429 84.3884 39.5932 86.1883 39.5178L86.6253 39.5429L86.8321 39.8L86.6253 40.032H86.575C85.2101 40.3665 85.1849 40.3665 85.1076 41.7817C85.0573 42.7851 85.0573 43.7614 85.0825 44.7648C85.1076 47.6204 84.9529 50.4507 85.1849 53.3063C85.2623 54.387 85.4421 55.4329 85.9583 56.3996C86.7045 57.7529 87.8104 58.5089 89.4054 58.4567C91.0526 58.3793 92.0811 57.4803 92.7249 56.0381C93.2141 54.9322 93.2914 53.7181 93.3165 52.5407C93.3417 51.6649 93.3417 50.791 93.3417 49.9423V42.267C93.3458 42.0179 93.3374 41.7689 93.3165 41.5207C93.2141 40.5192 92.9299 40.2099 91.9013 40.0804L91.6442 40.0552C91.4644 40.0552 91.2846 40.003 91.3097 39.773C91.3349 39.5429 91.4895 39.541 91.6693 39.541H91.7737C93.3687 39.5661 94.9889 39.5912 96.5839 39.541C96.7888 39.541 97.073 39.4888 97.073 39.7981C97.0981 40.0552 96.8159 40.003 96.6341 40.0301L96.6399 40.032ZM107.414 58.3967C107.055 58.8266 106.614 59.18 106.116 59.436C105.617 59.6921 105.073 59.8456 104.514 59.8873C103.151 60.042 101.808 59.9647 100.528 59.4755C99.7816 59.1681 99.7043 59.0657 99.7043 58.2672C99.7294 57.1072 99.7816 55.9472 99.8067 54.7872V54.6403C99.8841 54.4856 99.8067 54.1763 100.091 54.2033C100.375 54.2304 100.271 54.4856 100.271 54.6403C100.3 55.1815 100.394 55.7171 100.553 56.2353C100.772 56.997 101.261 57.6528 101.929 58.0799C102.596 58.5069 103.397 58.6759 104.18 58.5553C105.545 58.3755 106.548 57.0647 106.624 55.4426C106.699 53.8206 106.007 52.6393 104.824 51.6881C103.82 50.8645 102.74 50.1414 101.866 49.1922C100.193 47.34 99.6791 45.1786 100.348 42.8122C100.94 40.728 102.792 39.3322 104.953 39.2104C106.041 39.161 107.13 39.279 108.182 39.5603C108.542 39.6628 108.646 39.8445 108.619 40.2041C108.594 40.6932 108.619 41.2075 108.619 41.6966H108.594C108.594 42.2882 108.619 42.8798 108.594 43.4714C108.594 43.6512 108.619 43.9335 108.337 43.9335C108.054 43.9335 108.157 43.6512 108.132 43.4714C108.002 42.3114 107.59 41.2848 106.459 40.7957C105.968 40.5656 105.423 40.4758 104.885 40.5361C104.346 40.5965 103.834 40.8048 103.407 41.1379C102.094 42.1162 101.991 44.3027 103.202 45.6657C103.818 46.3598 104.59 46.9012 105.328 47.4406C106.718 48.4691 108.004 49.602 108.543 51.3072C109.419 53.8534 109.239 56.272 107.412 58.4083L107.414 58.3967ZM118.218 59.694C117.831 59.694 117.419 59.7191 117.035 59.694C115.699 59.5916 114.357 59.5916 113.021 59.694C112.737 59.7191 112.455 59.694 112.172 59.694C111.993 59.694 111.838 59.6418 111.811 59.4369C111.784 59.2319 111.94 59.1276 112.12 59.1276C112.507 59.1024 112.944 59.1797 113.201 58.7931C113.458 58.4064 113.483 57.8921 113.51 57.4049C113.613 54.8916 113.613 52.3628 113.588 49.8649C113.562 47.3671 113.588 44.8731 113.56 42.3791C113.56 42.0697 113.535 41.7604 113.51 41.426C113.433 40.4496 113.176 40.1925 112.223 40.063C112.018 40.0378 111.733 40.0881 111.733 39.7807C111.733 39.4733 112.043 39.5236 112.25 39.5236H117.651C117.856 39.5236 118.141 39.4714 118.141 39.7807C118.141 40.09 117.883 40.0108 117.704 40.0378C116.7 40.1925 116.544 40.3723 116.468 41.3486C116.416 41.89 116.391 42.4042 116.391 42.9436V55.9549C116.391 56.5736 116.443 57.2174 116.468 57.8342C116.518 58.708 116.855 59.0425 117.729 59.0947H118.166C118.373 59.0947 118.655 59.0947 118.655 59.3769C118.655 59.6592 118.423 59.6863 118.218 59.6863V59.694ZM138.325 40.0049C137.064 40.2621 137.014 40.2891 136.884 41.5516C136.73 43.1717 136.834 44.7919 136.782 46.414C136.704 50.53 136.654 54.6209 136.602 58.737V59.2242C136.55 59.4813 136.602 59.8429 136.293 59.9453C135.983 60.0478 135.753 59.8158 135.573 59.6109C135.135 59.0966 134.698 58.5553 134.286 58.041C130.968 53.925 127.649 49.8089 124.619 45.4608L124.414 45.2037C124.414 46.9031 124.387 48.5735 124.414 50.2458C124.464 52.5097 124.542 54.7737 124.594 57.0376C124.597 57.3677 124.64 57.6962 124.722 58.0159C124.901 58.7892 125.186 59.0193 126.009 59.0444L126.344 59.0715C126.496 59.0966 126.678 59.1217 126.678 59.3537C126.678 59.5857 126.496 59.636 126.291 59.636C125.982 59.636 125.7 59.6631 125.391 59.636C124.028 59.5084 122.684 59.6109 121.331 59.636C121.124 59.636 120.816 59.7404 120.789 59.3789C120.762 59.0173 121.099 59.0715 121.331 59.0444C122.257 58.9942 122.514 58.7873 122.566 57.8844C122.746 54.7466 122.719 51.6088 122.771 48.444C122.823 45.5884 122.848 42.7078 122.873 39.8522V39.6454C122.926 39.4404 122.926 39.1311 123.183 39.0789C123.44 39.0267 123.594 39.2606 123.722 39.4404C124.983 41.1128 126.235 42.7851 127.531 44.4555C130.025 47.6726 132.521 50.9128 134.964 54.1801L135.094 54.3348L135.171 53.8457C135.119 49.9365 135.042 46.0253 134.964 42.1162C134.956 41.7706 134.922 41.4261 134.862 41.0857C134.734 40.3124 134.373 40.0572 133.422 39.9798C133.19 39.9547 132.83 40.0823 132.83 39.7227C132.83 39.3631 133.19 39.4656 133.447 39.4656C134.939 39.4907 136.457 39.5429 137.949 39.4656H138.259L138.541 39.6975C138.644 39.9276 138.516 39.9798 138.334 40.0049H138.325ZM152.15 56.0071C152.134 57.0503 152.039 58.0908 151.868 59.1198C151.79 59.5838 151.558 59.7887 151.069 59.7887C149.861 59.7636 148.65 59.7887 147.442 59.6863C145.718 59.5316 143.962 59.6089 142.245 59.7114C142.082 59.7156 141.918 59.7072 141.756 59.6863L141.551 59.4543L141.731 59.1449L141.886 59.0947C143.069 58.8627 143.224 58.708 143.249 57.4475C143.3 56.0078 143.326 54.5675 143.326 53.1265V42.3984C143.326 42.0388 143.301 41.6773 143.274 41.3177C143.224 40.5444 142.887 40.2118 142.114 40.1094C141.907 40.0823 141.675 40.0572 141.47 40.032L141.238 39.8252L141.445 39.5932C141.606 39.564 141.769 39.5472 141.932 39.5429C143.322 39.5932 144.71 39.6454 145.689 39.6202H149.857C150.356 39.6353 150.853 39.5566 151.322 39.3882C151.579 39.2857 151.734 39.336 151.684 39.6202C151.502 40.8034 151.529 41.9866 151.375 43.1698C151.349 43.2994 151.322 43.5043 151.117 43.4791C150.912 43.454 150.988 43.2723 150.963 43.1447C150.967 42.9812 150.959 42.8177 150.938 42.6556C150.758 41.6 150.346 41.2655 149.29 41.1882C148.364 41.1379 147.438 41.0857 146.512 41.0857C146.23 41.0857 146.1 41.163 146.1 41.4724V47.8272C146.1 48.0322 146.1 48.2139 146.383 48.1868C147.568 48.1617 148.776 48.1617 149.959 48.1095C150.152 48.1105 150.342 48.0642 150.513 47.9745C150.683 47.8848 150.829 47.7546 150.938 47.5952L151.22 47.3883L151.349 47.7499C151.272 48.5986 151.195 49.4222 151.143 50.2632C151.117 50.7001 151.092 51.1622 151.092 51.6011C151.092 51.7557 151.04 51.9356 150.885 51.9356C150.68 51.9356 150.706 51.7287 150.706 51.6011C150.551 49.9287 150.371 49.7489 148.674 49.6677C147.953 49.6407 147.258 49.6155 146.547 49.5633C146.265 49.5633 146.135 49.6155 146.135 49.95C146.135 52.009 146.11 54.0912 146.162 56.1502C146.187 57.4881 146.754 58.0545 148.117 58.1319C148.656 58.157 149.172 58.157 149.712 58.1319C150.972 58.0545 151.512 57.5383 151.719 56.3049L151.796 55.8679C151.846 55.7133 151.796 55.4291 152.053 55.4813C152.181 55.5586 152.156 55.8158 152.156 55.9956L152.15 56.0071ZM163.166 58.389C162.807 58.8189 162.365 59.1723 161.867 59.4283C161.369 59.6844 160.824 59.8378 160.266 59.8796C158.904 60.0584 157.519 59.9086 156.227 59.4427C155.686 59.2378 155.404 58.9033 155.454 58.2827C155.531 57.0995 155.531 55.9414 155.558 54.7582V54.6055C155.634 54.4508 155.558 54.1415 155.841 54.1666C156.073 54.1937 156.02 54.4508 156.02 54.6055C156.037 55.148 156.132 55.6852 156.303 56.2005C156.819 57.8206 158.259 58.7467 159.931 58.5205C161.294 58.3407 162.298 57.0279 162.375 55.4078C162.453 53.7877 161.757 52.6045 160.548 51.6514C159.545 50.8278 158.464 50.1047 157.59 49.1574C155.943 47.3555 155.454 45.2462 156.044 42.9049C156.56 40.7957 158.514 39.278 160.701 39.1756C161.758 39.1312 162.815 39.2439 163.839 39.51C164.251 39.6125 164.43 39.7923 164.38 40.2292C164.354 40.709 164.354 41.1898 164.38 41.6696H164.328C164.328 42.2612 164.353 42.8527 164.328 43.4443C164.328 43.599 164.353 43.9083 164.071 43.9083C163.788 43.9083 163.891 43.6261 163.866 43.4443C163.736 42.2843 163.324 41.2578 162.193 40.7706C161.701 40.5349 161.152 40.4416 160.609 40.501C160.065 40.5605 159.55 40.7703 159.119 41.107C157.809 42.0833 157.704 44.2699 158.915 45.6348C159.531 46.3289 160.303 46.8683 161.041 47.4096C162.431 48.4382 163.717 49.5692 164.258 51.2763C165.157 53.8476 164.977 56.2662 163.15 58.4025L163.166 58.389ZM175.988 58.3755C175.627 58.8165 175.182 59.1807 174.678 59.4464C174.174 59.712 173.622 59.8738 173.055 59.9221C171.695 60.0958 170.313 59.942 169.024 59.4736C168.485 59.2687 168.2 58.9342 168.251 58.3136C168.328 57.1304 168.328 55.9724 168.38 54.7892L168.405 54.5823C168.483 54.4276 168.43 54.1705 168.688 54.1956C168.894 54.2208 168.867 54.4257 168.867 54.6074C168.885 55.1664 168.981 55.7201 169.152 56.2527C169.666 57.8728 171.106 58.8008 172.778 58.5727C174.132 58.3929 175.145 57.0801 175.222 55.46C175.3 53.8399 174.605 52.6547 173.395 51.7035C172.392 50.8799 171.313 50.1569 170.437 49.2076C168.79 47.4077 168.311 45.2984 168.891 42.9572C169.405 40.8479 171.359 39.3283 173.546 39.2258C174.605 39.1827 175.665 39.2954 176.692 39.5603C177.078 39.6628 177.283 39.8445 177.231 40.2814C177.205 40.7612 177.205 41.242 177.231 41.7217H177.179C177.179 42.3133 177.206 42.9049 177.179 43.4965C177.179 43.6763 177.206 43.9606 176.922 43.9606C176.637 43.9606 176.742 43.6763 176.717 43.4965C176.587 42.3365 176.175 41.3099 175.044 40.8208C174.557 40.5887 174.015 40.4971 173.479 40.5562C172.943 40.6153 172.434 40.8227 172.009 41.1553C170.696 42.1336 170.594 44.3202 171.802 45.6832C172.421 46.3772 173.192 46.9186 173.938 47.458C175.327 48.4614 176.587 49.5943 177.154 51.2666C177.977 53.7799 177.823 56.2063 175.994 58.3658" fill="#EA2127"/>
<path d="M241.083 33.0332H186.673C186.03 33.0332 186.03 33.0332 186.03 33.677V65.8535C186.03 66.4953 186.03 66.4953 186.673 66.4953H241.108C241.752 66.4953 241.752 66.4953 241.752 65.8535V33.7292C241.777 33.0332 241.777 33.0332 241.083 33.0332ZM198.635 59.7886C196.912 60.0206 195.188 59.7886 193.49 59.6339C192.685 59.5837 191.877 59.5837 191.072 59.6339C190.635 59.661 190.171 59.661 189.734 59.6861C189.529 59.6861 189.322 59.6861 189.322 59.4039C189.322 59.1216 189.529 59.1197 189.709 59.1197C190.789 59.1448 190.942 58.6827 191.02 57.6793C191.097 56.6759 191.124 55.6977 191.124 54.6943V41.7293C191.072 40.521 190.712 40.1343 189.529 40.057L189.22 40.0319L188.962 39.7747C188.962 39.6201 189.09 39.5427 189.22 39.5176L189.657 39.4905C190.994 39.4654 192.332 39.6452 193.747 39.5176C195.702 39.5176 197.761 39.3881 199.768 39.7225C203.055 40.289 205.195 42.1914 206.121 45.3814C207.229 49.0876 206.919 52.6894 204.86 56.0321C203.445 58.3231 201.233 59.4039 198.635 59.7886ZM224 59.661C222.432 59.661 220.862 59.7113 219.293 59.5837C219.138 59.5566 218.906 59.661 218.831 59.4039C218.755 59.1467 218.985 59.1448 219.113 59.0694C219.201 59.0204 219.266 58.9391 219.295 58.8427C219.324 58.7463 219.314 58.6425 219.267 58.5532C218.728 56.7533 218.162 54.9533 217.62 53.1766C217.61 53.1335 217.591 53.093 217.564 53.0577C217.537 53.0224 217.503 52.993 217.465 52.9714C217.426 52.9498 217.383 52.9364 217.339 52.9321C217.295 52.9279 217.251 52.9328 217.208 52.9465H212.553C212.348 52.9465 212.219 52.9717 212.141 53.2037C211.679 54.7716 211.06 56.297 210.753 57.8843C210.598 58.6576 210.726 59.2221 211.72 59.1197C211.927 59.0945 212.184 59.0945 212.184 59.429C212.184 59.7635 211.927 59.7113 211.72 59.7113C210.173 59.5837 208.607 59.661 207.064 59.7113C206.857 59.7113 206.6 59.7383 206.6 59.429C206.6 59.1719 206.807 59.1197 207.012 59.1197C207.963 59.1719 208.53 58.6305 208.839 57.8089C209.353 56.4188 209.815 55.0036 210.305 53.6155C211.851 49.0354 213.417 44.4824 214.962 39.9023C215.064 39.593 215.117 39.1831 215.501 39.1561C215.938 39.1309 215.99 39.593 216.093 39.9023C217.92 45.2789 219.72 50.6304 221.547 56.007C221.782 56.7811 222.111 57.5238 222.525 58.2187C222.885 58.8123 223.349 59.1467 224.072 59.1197C224.279 59.1197 224.561 59.0945 224.536 59.4039C224.458 59.6861 224.201 59.661 223.994 59.661H224ZM237.773 40.0319C237.385 40.0749 237.013 40.2123 236.691 40.432C236.368 40.6518 236.104 40.9471 235.921 41.2924C234.533 43.5563 233.452 45.9479 232.319 48.3413C231.882 49.2403 231.393 50.1413 231.316 51.1698C231.291 51.5816 231.266 51.9934 231.266 52.4052C231.291 54.2071 231.188 56.007 231.343 57.8089C231.42 58.7349 231.755 59.0423 232.696 59.0945C232.894 59.0904 233.091 59.0988 233.288 59.1197C233.468 59.1448 233.622 59.2221 233.622 59.429C233.607 59.51 233.561 59.582 233.494 59.63C233.427 59.6779 233.344 59.698 233.263 59.6861C232.721 59.6861 232.207 59.7113 231.668 59.661C230.175 59.5063 228.683 59.661 227.19 59.6861H226.804L226.546 59.429L226.777 59.1448L227.061 59.1197C227.884 59.0694 228.192 58.8123 228.244 57.9887C228.373 55.8021 228.449 53.6155 228.269 51.454C228.195 50.7748 227.985 50.1174 227.652 49.5207C226.469 47.1543 225.286 44.7608 224.076 42.3944C223.833 41.9075 223.549 41.4424 223.227 41.0043C223.059 40.7551 222.843 40.5424 222.591 40.3789C222.34 40.2154 222.057 40.1046 221.761 40.0531C221.582 40.028 221.4 40.0009 221.427 39.7709C221.454 39.5408 221.632 39.5137 221.839 39.5137C223.536 39.564 225.209 39.564 226.906 39.5137C227.061 39.5137 227.266 39.5137 227.293 39.7187C227.32 39.9236 227.138 40.0009 226.983 40.028C226.546 40.1305 226.469 40.4398 226.597 40.8245L226.726 41.2112C227.935 43.8599 229.118 46.4853 230.378 49.2365C231.486 46.4583 232.892 43.9894 233.775 41.2615C234.007 40.5171 233.93 40.3876 233.234 40.0009L233.054 39.6935L233.311 39.5137H233.466C234.906 39.5891 236.348 39.564 237.789 39.5137C237.969 39.5137 238.148 39.5137 238.175 39.7187C238.15 39.9507 237.97 40.0009 237.764 40.028" fill="#292525"/>
<path d="M138.332 39.5179H138.025C136.532 39.5933 135.015 39.543 133.522 39.5179C133.29 39.5179 132.931 39.4406 132.905 39.775C132.88 40.1095 133.265 40.0051 133.497 40.0322C134.448 40.1095 134.808 40.3666 134.937 41.138C134.997 41.4778 135.032 41.8216 135.04 42.1666C135.117 46.0777 135.194 49.9869 135.247 53.8729L135.169 54.3601L135.04 54.2074C132.596 50.94 130.1 47.6978 127.606 44.4827C126.319 42.8355 125.058 41.138 123.797 39.4657C123.67 39.2859 123.515 39.0539 123.258 39.1061C123.001 39.1583 123.001 39.4657 122.949 39.6706V39.8775C122.924 42.733 122.898 45.6137 122.846 48.4692C122.794 51.609 122.846 54.7468 122.639 57.9116C122.589 58.8126 122.332 59.0426 121.406 59.0948C121.174 59.0948 120.839 59.0426 120.865 59.4293C120.89 59.816 121.199 59.6864 121.406 59.6864C122.759 59.6613 124.113 59.5569 125.466 59.6864C125.75 59.7116 126.058 59.6864 126.367 59.6864C126.572 59.6864 126.754 59.6342 126.754 59.4042C126.754 59.1741 126.574 59.1451 126.421 59.12L126.087 59.0948C125.288 59.0426 124.979 58.8126 124.799 58.0663C124.717 57.7466 124.674 57.4181 124.671 57.088C124.594 54.8241 124.517 52.5602 124.492 50.2962C124.464 48.6239 124.492 46.9264 124.492 45.2541L124.696 45.5112C127.732 49.8342 131.051 53.9502 134.363 58.0914C134.775 58.6308 135.212 59.1451 135.651 59.6613C135.831 59.8662 136.061 60.0982 136.37 59.9958C136.679 59.8933 136.654 59.5318 136.679 59.2746C136.692 59.1118 136.692 58.9483 136.679 58.7855C136.73 54.6694 136.782 50.5785 136.859 46.4624C136.884 44.8423 136.782 43.2222 136.936 41.6001C137.064 40.3396 137.116 40.3396 138.377 40.0534C138.531 40.0283 138.659 39.951 138.659 39.7712L138.332 39.5179Z" fill="white"/>
<path d="M74.7933 48.3918C74.4067 48.1868 74.4337 48.0844 74.716 47.8273C75.8219 46.7717 76.543 45.486 76.6725 43.9412C76.8253 42.0079 75.9514 39.9799 73.3859 39.5932C72.1253 39.4134 70.8397 39.568 69.5791 39.5429H68.6666C68.3592 39.5429 68.075 39.5178 67.7657 39.5178H66.1706C65.9908 39.5178 65.8362 39.5932 65.8362 39.8C65.8362 40.0069 65.9908 40.032 66.1455 40.032C66.3442 40.0444 66.5419 40.0702 66.7371 40.1094C67.4834 40.2118 67.7927 40.5714 67.8701 41.3177C67.8952 41.6522 67.9203 42.0118 67.9203 42.3462C67.9203 46.1027 67.9474 49.8592 67.9203 53.6157C67.9203 54.8762 67.8701 56.129 67.843 57.3973C67.8179 57.8845 67.8178 58.4007 67.5085 58.8125C67.2514 59.1721 66.8396 59.0947 66.4548 59.1199H66.4026C66.248 59.1721 66.1455 59.2494 66.1706 59.4543L66.4297 59.7115H66.8666C68.3321 59.6863 69.7667 59.4795 71.2147 59.6863C71.8023 59.7715 72.3961 59.8058 72.9895 59.7888C74.5072 59.6863 75.818 59.1721 76.7963 57.9889C79.0351 55.2822 78.7509 50.4759 74.7895 48.3918H74.7933ZM71.2147 40.7203C72.1408 40.6178 72.9547 40.875 73.4516 41.6715C74.5072 43.3709 74.687 45.1708 73.7861 46.9978C73.324 47.9239 71.7541 48.386 70.8281 47.9491C70.5961 47.8466 70.6483 47.6668 70.6483 47.487V44.3531C70.6483 43.3497 70.6734 42.3211 70.6483 41.3177C70.6483 40.9059 70.8281 40.7783 71.2147 40.7261V40.7203ZM74.9693 57.113C74.1959 58.7603 72.3457 58.7351 71.2959 58.0913C71.151 57.9986 71.0293 57.8738 70.9402 57.7267C70.851 57.5796 70.7968 57.414 70.7817 57.2426C70.6957 56.7155 70.6614 56.1813 70.6792 55.6476V49.7297C70.6792 49.3179 70.8087 49.2405 71.1935 49.2154C72.5835 49.1129 73.5599 49.7567 74.3061 50.8626C75.1046 52.0458 75.4139 53.3315 75.4893 54.6693C75.4139 55.5703 75.3366 56.3668 74.9751 57.113" fill="white"/>
<path d="M96.6052 39.5179C95.0102 39.5682 93.39 39.5431 91.795 39.5179H91.6926C91.5108 39.5179 91.331 39.5431 91.331 39.7751C91.331 40.0071 91.4857 40.0322 91.6655 40.0322L91.9226 40.0574C92.9531 40.1869 93.2354 40.4943 93.3378 41.4977C93.3604 41.7458 93.3694 41.9949 93.3649 42.2439V49.9096C93.3649 50.7854 93.3649 51.6593 93.3378 52.508C93.3127 53.6931 93.2354 54.9015 92.7462 56.0073C92.1295 57.4477 91.0739 58.3486 89.4286 58.4259C87.8336 58.5033 86.722 57.7319 85.9815 56.3669C85.4653 55.4157 85.2855 54.3601 85.2082 53.2736C85.0032 50.4181 85.1579 47.5877 85.1057 44.7321C85.1057 43.7287 85.0806 42.7505 85.1579 41.7471C85.2352 40.3319 85.2604 40.3319 86.6234 39.9974H86.6756L86.8805 39.7674L86.6756 39.5353L86.2386 39.5102C84.4368 39.5856 82.6368 39.5353 80.835 39.5102C80.603 39.5102 80.2182 39.3555 80.166 39.7403C80.1138 40.125 80.5527 39.9974 80.7576 40.0245C81.8132 40.1791 82.1226 40.4865 82.198 41.5421C82.2205 41.807 82.2295 42.0729 82.225 42.3387V51.1895C82.2098 52.347 82.3109 53.5031 82.5266 54.6405C83.068 57.2891 84.431 59.5801 87.7756 59.9397C90.0647 60.1969 92.0715 59.7077 93.5892 57.8305C94.5674 56.6202 94.927 55.1799 95.159 53.6622C95.364 52.2219 95.364 50.7815 95.364 49.3412C95.391 46.6655 95.2886 44.0149 95.4413 41.3392C95.4935 40.3358 95.6733 40.1792 96.6767 40.0284C96.8565 40.0013 97.1407 40.0535 97.1407 39.7712C97.0634 39.4619 96.8062 39.487 96.5994 39.5141" fill="white"/>
<path d="M151.968 55.545C151.711 55.4928 151.763 55.7751 151.711 55.9317L151.634 56.3686C151.429 57.604 150.887 58.1183 149.627 58.1956C149.087 58.2208 148.571 58.2208 148.032 58.1956C146.694 58.1183 146.099 57.5518 146.077 56.2159C146.05 54.1569 146.077 52.0728 146.05 50.0157C146.05 49.6812 146.205 49.629 146.462 49.629C147.183 49.6542 147.877 49.7064 148.598 49.7315C150.271 49.7837 150.476 49.9635 150.63 51.6648C150.63 51.8195 150.605 51.9993 150.81 51.9993C151.015 51.9993 151.017 51.7944 151.017 51.6648C151.042 51.2279 151.042 50.7658 151.067 50.327C151.119 49.4782 151.197 48.6546 151.274 47.8136L151.144 47.454L150.862 47.659C150.754 47.8186 150.608 47.9491 150.437 48.0391C150.267 48.1291 150.077 48.1758 149.884 48.1752C148.701 48.2254 147.492 48.2254 146.309 48.2506C146.05 48.2506 146.025 48.0708 146.025 47.891V41.5226C146.025 41.2152 146.128 41.1359 146.437 41.1359C147.363 41.1359 148.289 41.1862 149.215 41.2384C150.296 41.3157 150.682 41.6502 150.862 42.7058C150.883 42.8673 150.892 43.0302 150.887 43.193C150.887 43.3225 150.862 43.5023 151.042 43.5274C151.222 43.5526 151.274 43.3476 151.299 43.22C151.454 42.0368 151.402 40.8536 151.608 39.6685C151.659 39.3862 151.504 39.334 151.247 39.4384C150.777 39.6062 150.28 39.6842 149.781 39.6685H145.613C144.637 39.6956 143.247 39.6434 141.857 39.5912C141.693 39.5961 141.53 39.6136 141.37 39.6434L141.163 39.8754L141.395 40.0803C141.6 40.1074 141.832 40.1325 142.039 40.1576C142.812 40.2872 143.144 40.5946 143.199 41.3679C143.226 41.7275 143.251 42.0871 143.251 42.4486C143.251 46.0234 143.276 49.602 143.276 53.1748C143.276 54.617 143.226 56.0574 143.199 57.4977C143.173 58.7582 143.019 58.9129 141.836 59.143L141.681 59.17L141.493 59.4736L141.7 59.7056C141.862 59.7281 142.025 59.7371 142.187 59.7326C143.937 59.6282 145.667 59.5509 147.384 59.7056C148.594 59.808 149.803 59.7829 151.013 59.808C151.5 59.808 151.732 59.6031 151.81 59.1391C151.994 58.1117 152.088 57.0702 152.092 56.0264C152.144 55.8215 152.169 55.5644 151.964 55.5392" fill="white"/>
<path d="M173.911 47.4404C173.167 46.901 172.394 46.3597 171.785 45.6656C170.576 44.3026 170.654 42.116 171.99 41.1377C172.419 40.8041 172.933 40.5961 173.474 40.5371C174.014 40.478 174.561 40.5702 175.052 40.8033C176.183 41.2924 176.599 42.3209 176.724 43.479C176.75 43.6588 176.647 43.9411 176.929 43.9411C177.212 43.9411 177.161 43.6588 177.186 43.479C177.214 42.8874 177.186 42.2958 177.186 41.7042H177.239C177.239 41.2151 177.214 40.7511 177.239 40.2619C177.291 39.825 177.109 39.6452 176.699 39.5427C175.675 39.2776 174.617 39.1649 173.56 39.2083C171.348 39.3107 169.418 40.8284 168.904 42.9377C168.313 45.2789 168.8 47.3843 170.451 49.1901C171.327 50.1413 172.405 50.8875 173.409 51.686C174.619 52.6527 175.313 53.8455 175.236 55.4405C175.158 57.0355 174.155 58.3734 172.792 58.5532C172.008 58.6825 171.203 58.5171 170.534 58.0888C169.864 57.6604 169.377 56.9995 169.165 56.2332C168.995 55.6999 168.899 55.1456 168.881 54.586C168.881 54.4313 168.908 54.1993 168.701 54.1742C168.444 54.1491 168.469 54.4062 168.419 54.5609L168.394 54.7658C168.367 55.949 168.342 57.107 168.264 58.2902C168.212 58.9089 168.496 59.2434 169.037 59.4502C170.35 59.9394 171.713 60.0167 173.076 59.8872C173.647 59.8367 174.202 59.674 174.71 59.4086C175.218 59.1432 175.669 58.7803 176.036 58.3405C177.836 56.1791 178.016 53.7605 177.142 51.2143C176.55 49.5671 175.29 48.4361 173.925 47.4327" fill="white"/>
<path d="M161.074 47.4404C160.33 46.901 159.556 46.3597 158.947 45.6656C157.739 44.3026 157.842 42.116 159.152 41.1377C159.582 40.8041 160.096 40.5961 160.636 40.5371C161.177 40.478 161.723 40.5702 162.215 40.8033C163.346 41.2924 163.761 42.3209 163.887 43.479C163.912 43.6588 163.81 43.9411 164.092 43.9411C164.374 43.9411 164.324 43.6337 164.349 43.479C164.376 42.8874 164.349 42.2958 164.349 41.7042H164.401C164.401 41.2151 164.376 40.7511 164.401 40.2619C164.454 39.825 164.274 39.6452 163.862 39.5427C162.838 39.2776 161.78 39.1649 160.722 39.2083C158.511 39.3107 156.581 40.8033 156.067 42.9377C155.475 45.2789 155.989 47.3843 157.613 49.1901C158.489 50.1413 159.568 50.8624 160.571 51.686C161.782 52.6527 162.476 53.8456 162.398 55.4406C162.321 57.0356 161.318 58.3734 159.955 58.5532C159.17 58.6826 158.366 58.5172 157.696 58.0888C157.027 57.6605 156.539 56.9995 156.328 56.2332C156.166 55.716 156.066 55.1811 156.032 54.6402C156.032 54.4604 156.084 54.2284 155.852 54.2032C155.57 54.1762 155.62 54.4855 155.57 54.6402V54.7948C155.545 55.978 155.518 57.1361 155.467 58.3193C155.415 58.936 155.698 59.2705 156.241 59.4793C157.552 59.9684 158.916 60.0458 160.279 59.9182C161.403 59.8154 162.443 59.2803 163.179 58.4256C165.005 56.2893 165.186 53.8726 164.339 51.3245C163.748 49.6019 162.487 48.469 161.072 47.4404" fill="white"/>
<path d="M105.326 47.44C104.58 46.9006 103.809 46.3593 103.2 45.6652C101.99 44.3022 102.092 42.1156 103.405 41.1373C103.834 40.8037 104.348 40.5957 104.889 40.5367C105.429 40.4776 105.976 40.5698 106.467 40.8029C107.598 41.292 108.014 42.3205 108.139 43.4786C108.165 43.6584 108.062 43.9407 108.344 43.9407C108.627 43.9407 108.576 43.6333 108.602 43.4786C108.627 42.887 108.602 42.2954 108.602 41.7038H108.654C108.654 41.2147 108.627 40.7004 108.654 40.2113C108.669 40.1401 108.669 40.0666 108.655 39.9953C108.64 39.924 108.612 39.8563 108.571 39.7962C108.53 39.7361 108.477 39.6849 108.416 39.6456C108.355 39.6063 108.287 39.5797 108.215 39.5675C107.162 39.268 106.067 39.1464 104.975 39.2079C103.925 39.2461 102.915 39.6151 102.088 40.2619C101.261 40.9088 100.659 41.8005 100.369 42.8097C99.7005 45.2012 100.215 47.3375 101.887 49.1897C102.761 50.166 103.842 50.862 104.845 51.6856C106.055 52.6523 106.749 53.8451 106.647 55.4401C106.544 57.0351 105.566 58.373 104.203 58.5528C103.419 58.6822 102.614 58.5169 101.944 58.0885C101.274 57.6602 100.786 56.9992 100.574 56.2328C100.417 55.7144 100.322 55.1789 100.292 54.6378C100.292 54.458 100.344 54.226 100.087 54.2009C99.83 54.1757 99.8803 54.4831 99.8029 54.6378V54.7924C99.7778 55.9524 99.7256 57.1124 99.7005 58.2724C99.6753 59.0709 99.7527 59.1985 100.524 59.4808C101.81 59.997 103.148 60.0472 104.511 59.8926C105.634 59.7919 106.675 59.2572 107.411 58.402C109.238 56.2657 109.417 53.8471 108.571 51.2757C108.004 49.6034 106.744 48.4453 105.328 47.4419" fill="white"/>
<path d="M118.189 59.0865H117.752C116.878 59.0343 116.544 58.6998 116.491 57.8259C116.441 57.2092 116.414 56.5654 116.414 55.9468V42.9374C116.414 42.398 116.441 41.8837 116.491 41.3424C116.569 40.339 116.723 40.1824 117.727 40.0316C117.907 40.0045 118.189 40.0567 118.164 39.7744C118.139 39.4922 117.881 39.5173 117.675 39.5173H112.273C112.066 39.5173 111.784 39.4902 111.759 39.7744C111.734 40.0586 112.041 40.0316 112.248 40.0567C113.199 40.1862 113.456 40.4685 113.533 41.4197C113.559 41.729 113.586 42.0384 113.586 42.3728C113.586 44.8668 113.611 47.3628 113.611 49.8587C113.611 52.3546 113.636 54.9008 113.533 57.3987C113.508 57.8859 113.508 58.3654 113.224 58.7868C112.94 59.2083 112.53 59.0962 112.143 59.1213C111.964 59.1464 111.809 59.2238 111.836 59.4306C111.863 59.6375 112.016 59.6877 112.196 59.6877C112.478 59.6877 112.762 59.7129 113.044 59.6877C114.38 59.5853 115.722 59.5853 117.058 59.6877C117.445 59.7129 117.854 59.6877 118.241 59.6877C118.473 59.6877 118.705 59.7129 118.705 59.4055C118.705 59.0981 118.421 59.0961 118.189 59.0961" fill="white"/>
<path d="M206.121 45.3816C205.195 42.2187 203.06 40.2892 199.768 39.7227C197.734 39.3883 195.708 39.5178 193.747 39.5178C192.332 39.6454 190.994 39.4656 189.657 39.4907L189.22 39.5178C189.09 39.5429 188.962 39.5932 188.962 39.7479L189.22 40.005L189.529 40.0321C190.737 40.1345 191.097 40.5212 191.124 41.7044V54.6693C191.124 55.6727 191.097 56.651 191.02 57.6544C190.942 58.6578 190.789 59.1199 189.709 59.0947C189.529 59.0947 189.322 59.145 189.322 59.377C189.322 59.6612 189.529 59.6863 189.734 59.6612C190.171 59.6612 190.635 59.6341 191.072 59.609C191.877 59.5568 192.685 59.5568 193.49 59.609C195.213 59.7385 196.912 59.9957 198.635 59.7637C201.233 59.4041 203.445 58.3233 204.86 56.0072C206.919 52.6896 207.202 49.0878 206.121 45.3739V45.3816ZM202.834 54.9709C201.985 57.1827 200.211 58.2885 197.869 58.4509C197.076 58.5338 196.274 58.4729 195.503 58.2711C194.5 57.9618 194.165 57.4978 194.088 56.4441C193.933 54.0004 194.01 51.5567 194.01 50.2188V41.8803C194.01 41.107 194.138 40.9543 194.911 40.8769C198.795 40.5425 202.011 42.4468 203.066 46.1511C203.915 49.1342 203.94 52.0922 202.834 54.9748" fill="#FCFDFF"/>
<path d="M224 59.0868C223.306 59.1119 222.817 58.7775 222.454 58.1859C222.049 57.4857 221.721 56.7442 221.475 55.9741C219.65 50.5975 217.848 45.2461 216.021 39.8695C215.919 39.5601 215.869 39.0961 215.43 39.1232C215.043 39.1483 214.993 39.5601 214.89 39.8695C213.344 44.4476 211.778 49.0025 210.233 53.5807C209.746 54.9959 209.282 56.3859 208.767 57.7741C208.458 58.5977 207.919 59.1274 206.94 59.0868C206.736 59.0617 206.529 59.1119 206.529 59.3961C206.529 59.6803 206.786 59.6784 206.993 59.6784C208.539 59.6262 210.105 59.5489 211.648 59.6784C211.855 59.7035 212.112 59.7306 212.112 59.3961C212.112 59.0616 211.855 59.0868 211.648 59.0868C210.645 59.1641 210.517 58.6228 210.681 57.8514C211.016 56.2564 211.633 54.7387 212.07 53.1689C212.147 52.9388 212.276 52.9117 212.481 52.9117H217.139C217.344 52.9117 217.498 52.9388 217.549 53.1437C218.09 54.9456 218.656 56.7455 219.196 58.5203C219.233 58.6108 219.238 58.7112 219.209 58.8048C219.181 58.8984 219.122 58.9795 219.041 59.0346C218.914 59.1119 218.707 59.1641 218.759 59.3691C218.809 59.6262 219.041 59.5489 219.221 59.5489C220.791 59.6784 222.361 59.6262 223.929 59.6262C224.136 59.6262 224.393 59.6533 224.418 59.3439C224.495 59.0617 224.238 59.0868 224.006 59.0868H224ZM216.288 51.4211H213.021C212.868 51.4211 212.634 51.4965 212.739 51.1621C213.46 48.9252 214.154 46.7154 214.9 44.32C215.569 46.5317 216.213 48.6159 216.855 50.7C217.061 51.4211 217.061 51.4211 216.288 51.4211Z" fill="#FCFDFF"/>
<path d="M237.739 39.5179C236.298 39.5682 234.858 39.5933 233.418 39.5179H233.263L233.006 39.6977L233.186 40.0051C233.88 40.3918 233.982 40.5213 233.725 41.2656C232.851 43.9936 231.436 46.4624 230.33 49.2406C229.069 46.4895 227.859 43.8389 226.676 41.2154L226.548 40.8287C226.419 40.442 226.496 40.1598 226.935 40.0322C227.09 39.98 227.27 39.9278 227.244 39.7228C227.219 39.5179 227.039 39.4908 226.858 39.5179C225.16 39.5682 223.488 39.5682 221.79 39.5179C221.611 39.5179 221.404 39.5179 221.379 39.775C221.379 39.98 221.558 40.0051 221.713 40.0573C222.009 40.1101 222.291 40.2215 222.543 40.3848C222.795 40.5481 223.012 40.7602 223.181 41.0085C223.511 41.441 223.796 41.9069 224.029 42.3986C225.212 44.765 226.421 47.1314 227.604 49.5248C227.925 50.1266 228.135 50.7816 228.223 51.4582C228.381 53.6339 228.372 55.8185 228.196 57.9928C228.145 58.8416 227.836 59.0736 227.012 59.1238L226.73 59.149L226.498 59.4332L226.753 59.6864H227.14C228.633 59.6613 230.123 59.5318 231.616 59.6613C232.13 59.7116 232.671 59.6864 233.211 59.6864C233.292 59.6983 233.375 59.6782 233.442 59.6303C233.509 59.5823 233.555 59.5103 233.57 59.4293C233.597 59.2224 233.418 59.1451 233.236 59.12C233.039 59.099 232.842 59.0906 232.644 59.0948C231.693 59.0426 231.384 58.7604 231.281 57.8092C231.127 56.0073 231.231 54.2074 231.204 52.4055C231.204 51.9937 231.231 51.5819 231.256 51.1701C231.359 50.1416 231.848 49.2368 232.259 48.3416C233.39 45.9482 234.471 43.5566 235.861 41.2927C236.054 40.9561 236.321 40.6677 236.642 40.4494C236.963 40.231 237.329 40.0884 237.713 40.0322C237.918 40.0051 238.1 39.9548 238.073 39.7228C238.125 39.4908 237.918 39.4908 237.739 39.5179Z" fill="#FCFDFF"/>
<path d="M71.1625 49.2401C70.7759 49.2672 70.6483 49.3445 70.6483 49.7563C70.6734 51.7361 70.6483 53.6907 70.6483 55.6723C70.6313 56.206 70.6656 56.7401 70.7507 57.2673C70.8281 57.6269 70.9557 57.9362 71.265 58.116C72.3206 58.7598 74.165 58.785 74.9383 57.1397C75.2979 56.3934 75.4023 55.593 75.4275 54.7211C75.3987 53.3656 74.9887 52.0456 74.2443 50.9125C73.5231 49.7815 72.5468 49.1377 71.1509 49.2401" fill="#EA2127"/>
<path d="M70.6733 44.3798V47.5176C70.6733 47.6974 70.6231 47.8772 70.8531 47.9796C71.7792 48.4185 73.3491 47.9545 73.8131 47.0284C74.687 45.2014 74.5323 43.4015 73.4786 41.704C72.9895 40.9056 72.1659 40.6484 71.2398 40.7509C70.828 40.8031 70.6733 40.9307 70.6733 41.3696C70.6985 42.3459 70.6733 43.3764 70.6733 44.3798Z" fill="#EA2127"/>
<path d="M194.906 40.9133C194.132 40.9906 194.005 41.1453 194.005 41.9167V50.2513C194.03 51.564 193.927 54.0329 194.082 56.4785C194.132 57.5322 194.494 57.9962 195.497 58.3036C196.27 58.5607 197.065 58.5356 197.864 58.4853C200.205 58.3307 201.98 57.2248 202.828 55.0053C203.934 52.1247 203.909 49.1396 203.06 46.2068C202.007 42.4754 198.79 40.5711 194.906 40.9133Z" fill="#292525"/>
<path d="M214.894 44.3271C214.148 46.6935 213.454 48.9323 212.733 51.1692C212.63 51.5307 212.862 51.4283 213.015 51.4283H216.282C217.056 51.4283 217.056 51.4282 216.824 50.7071C216.207 48.623 215.563 46.5389 214.89 44.3271" fill="#292525"/>
</g>
<defs>
<clipPath id="clip0_291_3636">
<rect width="188.889" height="40" fill="white" transform="translate(55.5555 30)"/>
</clipPath>
</defs>
</svg>
