<svg width="300" height="100" viewBox="0 0 300 100" fill="none" xmlns="http://www.w3.org/2000/svg">
<rect width="300" height="100" fill="white"/>
<path d="M106.083 48.2194C106.841 48.2044 107.599 48.2936 108.337 48.4847C108.882 48.6249 109.397 48.8791 109.852 49.2328C110.229 49.5351 110.525 49.9408 110.708 50.408C110.891 50.8983 110.982 51.4233 110.974 51.952C110.975 52.2554 110.934 52.5573 110.851 52.8474C110.768 53.1375 110.638 53.4096 110.468 53.6515C110.277 53.9174 110.049 54.1495 109.793 54.3396C109.486 54.565 109.153 54.7462 108.803 54.8784C109.643 55.0995 110.265 55.456 110.669 55.9479C111.086 56.4817 111.302 57.1651 111.275 57.8629C111.28 58.4269 111.172 58.9852 110.959 59.5002C110.745 60.0097 110.43 60.4614 110.034 60.8225C109.591 61.2222 109.079 61.5236 108.529 61.7095C107.867 61.9313 107.178 62.0383 106.486 62.0266H101.383V48.2194H106.083ZM104.347 50.6152V54.0266H105.881C106.178 54.0297 106.475 54.0041 106.768 53.9499C107.005 53.91 107.233 53.8199 107.439 53.6847C107.622 53.5586 107.768 53.378 107.859 53.1645C107.962 52.9026 108.011 52.6198 108.003 52.3354C108.012 52.054 107.973 51.7731 107.89 51.5064C107.82 51.2997 107.699 51.1181 107.539 50.9821C107.361 50.8392 107.156 50.742 106.938 50.6981C106.654 50.6357 106.365 50.6065 106.075 50.6111L104.347 50.6152ZM106.434 59.6038C106.76 59.6161 107.085 59.5619 107.393 59.4443C107.612 59.3557 107.809 59.2139 107.968 59.0297C108.106 58.8646 108.205 58.6664 108.258 58.4515C108.31 58.2384 108.336 58.019 108.337 57.7987C108.34 57.5675 108.309 57.3373 108.245 57.1168C108.185 56.9181 108.077 56.741 107.93 56.6049C107.756 56.4525 107.554 56.3423 107.337 56.2816C107.034 56.1995 106.722 56.1619 106.409 56.1696H104.347V59.6059L106.434 59.6038ZM121.227 52.1987V62.0204H119.539C119.392 62.0339 119.246 61.9922 119.125 61.9023C119.003 61.8123 118.914 61.6798 118.873 61.5272L118.714 60.9593C118.544 61.1381 118.362 61.3043 118.171 61.4567C117.984 61.6061 117.783 61.7332 117.571 61.836C117.348 61.9434 117.116 62.0261 116.878 62.0826C116.612 62.1434 116.34 62.1732 116.067 62.1717C115.614 62.181 115.164 62.0856 114.747 61.8919C114.374 61.713 114.043 61.446 113.779 61.1106C113.509 60.7629 113.307 60.3605 113.184 59.9272C113.046 59.4426 112.978 58.9378 112.983 58.4308V52.1987H115.699V58.4308C115.676 58.8338 115.784 59.2328 116.006 59.5582C116.118 59.6945 116.258 59.8012 116.415 59.8701C116.571 59.9391 116.74 59.9685 116.909 59.9562C117.199 59.9576 117.485 59.8867 117.745 59.7489C118.024 59.6041 118.282 59.4178 118.513 59.1955V52.1987H121.227ZM132.224 52.1987L127.365 64.5676C127.303 64.737 127.2 64.8857 127.068 64.9987C126.898 65.1043 126.702 65.152 126.506 65.1354H124.473L126.226 61.1582L122.597 52.1987H124.998C125.172 52.1863 125.344 52.2398 125.485 52.3499C125.596 52.4445 125.681 52.5679 125.735 52.7085L127.227 56.9427C127.368 57.3283 127.482 57.7245 127.569 58.1282L127.76 57.5209C127.823 57.3192 127.89 57.1202 127.962 56.924L129.305 52.7085C129.361 52.5586 129.459 52.4312 129.585 52.3437C129.713 52.2484 129.866 52.1978 130.022 52.1987H132.224Z" fill="#F8B004"/>
<path d="M138.107 48.2195C138.892 48.2019 139.674 48.3187 140.424 48.5656C141.011 48.7601 141.555 49.084 142.02 49.5169C142.43 49.907 142.747 50.3974 142.945 50.947C143.148 51.5154 143.249 52.1202 143.244 52.7293C143.25 53.3758 143.146 54.0179 142.937 54.6236C142.737 55.1893 142.415 55.6957 141.999 56.1014C141.533 56.538 140.989 56.8648 140.399 57.061C139.657 57.3075 138.883 57.4243 138.107 57.4071H136.573V62.0205H133.599V48.2195H138.107ZM138.107 54.9926C138.874 54.9926 139.429 54.7936 139.772 54.3957C140.11 53.9977 140.28 53.4423 140.28 52.7376C140.284 52.444 140.239 52.1521 140.148 51.8755C140.065 51.622 139.928 51.3929 139.749 51.206C139.557 51.0114 139.327 50.8649 139.076 50.777C138.763 50.6686 138.436 50.6167 138.107 50.6236H136.573V55.0009L138.107 54.9926ZM148.941 52.0475C149.584 52.0383 150.223 52.157 150.827 52.3977C151.373 52.6171 151.871 52.9589 152.286 53.4009C152.701 53.8517 153.023 54.392 153.232 54.9863C153.465 55.6573 153.579 56.3694 153.57 57.0858C153.579 57.8077 153.465 58.5252 153.232 59.2019C153.03 59.7998 152.71 60.3432 152.295 60.7947C151.88 61.2463 151.379 61.5952 150.827 61.8174C149.604 62.29 148.267 62.29 147.044 61.8174C146.494 61.5925 145.992 61.2475 145.571 60.804C145.149 60.3504 144.821 59.804 144.612 59.2019C144.378 58.5255 144.264 57.8078 144.274 57.0858C144.264 56.3693 144.378 55.6571 144.612 54.9863C144.822 54.3894 145.149 53.8486 145.571 53.4009C145.992 52.9591 146.494 52.6174 147.044 52.3977C147.651 52.1567 148.294 52.038 148.941 52.0475ZM148.941 59.9936C149.566 59.9936 150.027 59.7553 150.322 59.2786C150.618 58.8019 150.766 58.0772 150.767 57.1045C150.767 56.1373 150.62 55.414 150.324 54.9345C150.029 54.4551 149.568 54.2188 148.943 54.2257C148.304 54.2257 147.833 54.462 147.531 54.9345C147.229 55.4071 147.08 56.1304 147.084 57.1045C147.084 58.0717 147.233 58.7964 147.531 59.2786C147.829 59.7608 148.299 59.9991 148.941 59.9936ZM168.578 52.1988L165.754 62.0205H163.546C163.437 62.0238 163.33 61.9832 163.247 61.9066C163.151 61.8025 163.084 61.6709 163.055 61.5273L161.759 56.6299C161.693 56.4102 161.636 56.1926 161.586 55.977C161.536 55.7698 161.492 55.5439 161.452 55.3242C161.409 55.5439 161.365 55.7656 161.315 55.9874C161.266 56.2091 161.208 56.4288 161.145 56.6506L159.829 61.5273C159.804 61.6708 159.733 61.7999 159.627 61.8906C159.521 61.9813 159.388 62.0275 159.253 62.0205H157.143L154.32 52.1988H156.493C156.665 52.1921 156.836 52.2427 156.98 52.3439C157.104 52.4307 157.197 52.5588 157.247 52.7086L158.16 57.1148C158.234 57.4492 158.301 57.7725 158.361 58.0848C158.419 58.3977 158.473 58.7065 158.519 59.0278C158.595 58.7107 158.676 58.406 158.76 58.0848C158.845 57.7635 158.937 57.4485 159.037 57.1148L160.176 52.7003C160.225 52.5513 160.317 52.4234 160.439 52.3356C160.573 52.2354 160.733 52.1839 160.895 52.1884H162.104C162.276 52.1823 162.446 52.2337 162.591 52.3356C162.714 52.4226 162.808 52.5507 162.858 52.7003L163.945 57.1148C164.034 57.4492 164.12 57.7739 164.204 58.0889C164.289 58.406 164.365 58.7231 164.436 59.0464C164.482 58.7314 164.538 58.4247 164.603 58.0993C164.668 57.7739 164.739 57.4547 164.822 57.1148L165.781 52.7086C165.83 52.5599 165.923 52.4321 166.044 52.3439C166.177 52.2449 166.337 52.1941 166.498 52.1988H168.578ZM172.128 57.635C172.217 58.4558 172.447 59.0506 172.821 59.4195C173.218 59.7998 173.737 59.9989 174.267 59.9749C174.543 59.9812 174.819 59.9392 175.082 59.8506C175.292 59.7771 175.496 59.6856 175.692 59.577L176.183 59.3014C176.328 59.2211 176.489 59.1792 176.651 59.1791C176.746 59.1727 176.841 59.1923 176.927 59.2361C177.013 59.28 177.087 59.3466 177.143 59.4299L177.931 60.4827C177.669 60.8117 177.363 61.0974 177.024 61.3304C176.71 61.5427 176.375 61.7139 176.024 61.8402C175.691 61.9621 175.348 62.0482 175 62.0972C174.676 62.1432 174.349 62.1668 174.022 62.1677C173.41 62.1725 172.803 62.0588 172.228 61.8319C171.68 61.6146 171.181 61.2741 170.765 60.833C170.33 60.3619 169.993 59.7969 169.775 59.1749C169.519 58.443 169.395 57.6649 169.41 56.8827C169.407 56.2456 169.512 55.6133 169.721 55.0174C169.921 54.4385 170.229 53.9098 170.624 53.4636C171.02 53.0174 171.496 52.6632 172.023 52.4226C173.15 51.937 174.402 51.9068 175.549 52.3376C176.031 52.5278 176.47 52.8283 176.836 53.2185C177.206 53.6203 177.493 54.1029 177.678 54.634C177.887 55.2409 177.99 55.8848 177.981 56.5325C177.983 56.7132 177.974 56.8939 177.954 57.0734C177.943 57.1898 177.91 57.3026 177.858 57.405C177.814 57.4838 177.746 57.5438 177.666 57.5749C177.569 57.6095 177.467 57.6256 177.365 57.6226L172.128 57.635ZM175.547 55.9293C175.547 55.6991 175.519 55.4698 175.464 55.2475C175.412 55.0326 175.319 54.8316 175.192 54.6568C175.059 54.4792 174.889 54.3373 174.697 54.2423C174.463 54.1279 174.208 54.0726 173.951 54.0806C173.73 54.0675 173.509 54.1032 173.301 54.1856C173.093 54.2679 172.903 54.3951 172.742 54.5594C172.423 54.9432 172.222 55.4248 172.167 55.9376L175.547 55.9293ZM182.35 53.7138C182.594 53.2343 182.923 52.8117 183.319 52.4703C183.679 52.1686 184.122 52.0078 184.577 52.0143C184.933 51.9968 185.285 52.1068 185.577 52.3273L185.402 54.4869C185.388 54.5978 185.336 54.6991 185.257 54.7708C185.175 54.8265 185.079 54.8533 184.982 54.8475C184.934 54.8475 184.873 54.8475 184.79 54.8371L184.553 54.8143L184.303 54.7853C184.226 54.7758 184.149 54.7709 184.071 54.7708C183.723 54.7495 183.38 54.8717 183.112 55.1128C182.85 55.3772 182.645 55.7005 182.512 56.0599V62.0205H179.809V52.1988H181.422C181.536 52.1963 181.649 52.2088 181.76 52.2361C181.843 52.2571 181.921 52.2974 181.988 52.3542C182.05 52.4092 182.098 52.4806 182.128 52.5615C182.164 52.6656 182.192 52.7732 182.21 52.8827L182.35 53.7138ZM185.324 60.5325C185.322 60.3146 185.362 60.0987 185.441 59.8983C185.517 59.7063 185.628 59.5324 185.767 59.3863C186.061 59.0788 186.456 58.909 186.866 58.9138C187.073 58.9111 187.279 58.9549 187.47 59.0423C187.652 59.123 187.819 59.2397 187.961 59.3863C188.105 59.5338 188.218 59.7118 188.295 59.909C188.372 60.1062 188.411 60.3185 188.408 60.5325C188.41 60.7523 188.37 60.9703 188.291 61.1729C188.215 61.3673 188.102 61.5429 187.961 61.6889C187.82 61.8357 187.653 61.9511 187.47 62.0288C187.278 62.1129 187.073 62.1552 186.866 62.1532C186.656 62.1556 186.447 62.1133 186.252 62.0288C186.071 61.9514 185.906 61.8359 185.767 61.689C185.627 61.542 185.517 61.3666 185.441 61.1729C185.362 60.9703 185.322 60.7523 185.324 60.5325ZM192.688 53.2599C192.86 53.0842 193.041 52.9195 193.23 52.7667C193.417 52.6152 193.618 52.4866 193.831 52.3832C194.053 52.2748 194.285 52.1922 194.523 52.1366C194.79 52.0747 195.062 52.0448 195.335 52.0475C195.787 52.0373 196.237 52.132 196.653 52.3252C197.022 52.5043 197.349 52.7698 197.612 53.1024C197.883 53.4489 198.086 53.8516 198.208 54.2858C198.343 54.7696 198.407 55.273 198.4 55.7781V62.0205H195.703V55.7781C195.725 55.3771 195.616 54.9805 195.396 54.6568C195.285 54.517 195.146 54.4069 194.989 54.335C194.833 54.2631 194.663 54.2313 194.493 54.2423C194.203 54.2409 193.917 54.3118 193.656 54.4496C193.378 54.5944 193.12 54.7806 192.889 55.0029V62.0205H190.179V52.1988H191.863C192.009 52.1855 192.155 52.2272 192.276 52.3166C192.398 52.4061 192.487 52.5379 192.528 52.69L192.688 53.2599ZM208.685 52.5014V53.5708C208.689 53.6416 208.68 53.7124 208.658 53.7792C208.636 53.8461 208.603 53.9077 208.559 53.9604C208.435 54.0745 208.284 54.1497 208.123 54.1781L207.467 54.3397C207.502 54.4796 207.529 54.6215 207.55 54.7646C207.571 54.9155 207.581 55.0679 207.581 55.2205C207.588 55.6804 207.49 56.1352 207.297 56.5449C207.107 56.9357 206.841 57.2768 206.516 57.5439C206.165 57.8306 205.768 58.0461 205.346 58.1801C204.877 58.3275 204.39 58.3995 203.901 58.3936C203.761 58.3936 203.623 58.3936 203.489 58.3791C203.356 58.3704 203.225 58.3531 203.094 58.3273C203.013 58.3672 202.943 58.4292 202.89 58.5074C202.838 58.5856 202.806 58.6771 202.797 58.7729C202.796 58.8528 202.82 58.9306 202.864 58.9946C202.909 59.0586 202.971 59.1052 203.042 59.1273C203.25 59.2113 203.469 59.2622 203.69 59.2786C203.959 59.3076 204.266 59.3262 204.607 59.3366C204.949 59.347 205.298 59.3677 205.655 59.4029C206.007 59.4375 206.357 59.4957 206.702 59.577C207.026 59.6522 207.335 59.7868 207.617 59.9749C207.885 60.1592 208.108 60.4109 208.267 60.7086C208.443 61.069 208.527 61.4728 208.513 61.8796C208.51 62.3317 208.408 62.7766 208.214 63.177C208.001 63.6177 207.702 64.0026 207.337 64.3045C206.91 64.655 206.43 64.9222 205.917 65.0941C205.293 65.3031 204.642 65.4038 203.988 65.3926C203.367 65.4037 202.747 65.3306 202.142 65.1749C201.688 65.058 201.254 64.865 200.855 64.6029C200.54 64.3992 200.277 64.1144 200.088 63.7739C199.929 63.4811 199.844 63.1478 199.843 62.8081C199.83 62.4108 199.955 62.0228 200.194 61.72C200.463 61.4038 200.8 61.1633 201.176 61.0195C200.961 60.8819 200.781 60.6899 200.65 60.4599C200.512 60.191 200.446 59.8862 200.458 59.5791C200.46 59.4227 200.484 59.2674 200.529 59.119C200.58 58.9497 200.655 58.7902 200.752 58.6464C200.862 58.4824 200.991 58.3341 201.135 58.205C201.301 58.0573 201.483 57.9333 201.678 57.8361C201.227 57.5844 200.841 57.2146 200.556 56.7604C200.277 56.2982 200.134 55.7556 200.146 55.204C200.139 54.741 200.238 54.2834 200.433 53.8713C200.626 53.4778 200.898 53.1352 201.227 52.8682C201.585 52.5813 201.987 52.3664 202.415 52.234C202.896 52.0809 203.396 52.0055 203.898 52.0102C204.606 51.9958 205.308 52.1582 205.948 52.4848L208.685 52.5014ZM206 62.3791C206.004 62.2731 205.979 62.1682 205.927 62.078C205.876 61.9879 205.8 61.9165 205.71 61.8734C205.472 61.7559 205.217 61.681 204.956 61.6516C204.612 61.6033 204.264 61.5763 203.917 61.5708C203.533 61.5604 203.15 61.5376 202.766 61.4983C202.608 61.6115 202.467 61.7515 202.35 61.9128C202.242 62.0633 202.184 62.2489 202.187 62.4392C202.185 62.5704 202.213 62.7 202.269 62.8164C202.338 62.9441 202.441 63.0466 202.564 63.1107C202.742 63.2066 202.932 63.2723 203.128 63.3055C203.426 63.3578 203.727 63.3814 204.028 63.376C204.349 63.3817 204.67 63.356 204.987 63.2993C205.196 63.2645 205.399 63.1945 205.588 63.092C205.718 63.0213 205.826 62.9111 205.898 62.7749C205.964 62.6545 206.003 62.5188 206.011 62.3791H206ZM203.89 56.5926C204.339 56.5926 204.657 56.4723 204.866 56.2278C205.074 55.9663 205.183 55.6293 205.169 55.2848C205.187 54.9415 205.078 54.6048 204.866 54.348C204.665 54.12 204.339 54.0081 203.89 54.0081C203.441 54.0081 203.123 54.12 202.912 54.348C202.7 54.6048 202.591 54.9415 202.609 55.2848C202.607 55.4621 202.632 55.6386 202.683 55.8071C202.732 55.9619 202.811 56.1033 202.915 56.2216C203.028 56.343 203.165 56.4364 203.314 56.4951C203.503 56.5665 203.702 56.5995 203.901 56.5926H203.89Z" fill="#90A541"/>
<path d="M94.8575 60.259C96.1362 60.259 97.1727 59.139 97.1727 57.7574C97.1727 56.3758 96.1362 55.2559 94.8575 55.2559C93.5788 55.2559 92.5422 56.3758 92.5422 57.7574C92.5422 59.139 93.5788 60.259 94.8575 60.259Z" stroke="#96AA2F" stroke-miterlimit="10"/>
<path d="M92.0396 60.2863C93.3183 60.2863 94.3549 59.1663 94.3549 57.7848C94.3549 56.4032 93.3183 55.2832 92.0396 55.2832C90.761 55.2832 89.7244 56.4032 89.7244 57.7848C89.7244 59.1663 90.761 60.2863 92.0396 60.2863Z" stroke="#96AA2F" stroke-miterlimit="10"/>
<path d="M98.7533 48.7256H80.6973C80.4854 48.7256 80.3137 48.9112 80.3137 49.1401V61.1898C80.3137 61.4188 80.4854 61.6043 80.6973 61.6043H98.7533C98.9652 61.6043 99.137 61.4188 99.137 61.1898V49.1401C99.137 48.9112 98.9652 48.7256 98.7533 48.7256Z" stroke="#96AA2F" stroke-miterlimit="10"/>
<path d="M80.5496 51.1133H98.926M80.5496 53.5402H98.926" stroke="#96AA2F" stroke-miterlimit="10"/>
<path d="M90.6087 46.748H86.4711L98.4023 32.748L94.1439 44.2672H98.4023L86.4711 58.1056L90.6087 46.748Z" fill="#E9AE25"/>
</svg>
