<svg width="300" height="100" viewBox="0 0 300 100" fill="none" xmlns="http://www.w3.org/2000/svg">
<rect width="300" height="100" fill="white"/>
<g clip-path="url(#clip0_311_523)">
<path d="M108.293 42.3569C105.318 42.3569 103.281 43.5776 102.099 45.2708V33.8906H96.5156V61.8489H101.936L102.058 59.0137C103.158 60.8251 105.074 62.0458 108.089 62.0458C113.51 62.0458 116.974 57.8717 116.974 51.8863C116.974 45.7828 113.347 42.3569 108.293 42.3569ZM106.826 57.5173C103.851 57.5173 102.099 55.1153 102.099 52.792V51.5713C102.099 49.4055 103.77 46.8853 106.867 46.8853C109.597 46.8853 111.309 48.933 111.309 52.1226C111.309 55.3909 109.475 57.5173 106.826 57.5173Z" fill="#30333B"/>
<path d="M133.152 42.5537L129.24 54.6033C129.077 55.1152 128.914 55.824 128.751 56.8084H128.628C128.425 55.824 128.261 55.1152 128.098 54.6033L124.186 42.5537H118.155L125.735 62.2426L125.531 62.8726C124.879 64.9596 123.371 65.5109 121.578 65.5109C120.763 65.5109 120.233 65.3534 119.663 65.1172L119.337 69.6062C120.07 69.8425 121.374 70 122.597 70C127.08 70 129.199 67.9524 131.073 62.9908L131.522 61.8488L138.816 42.5537H133.152Z" fill="#30333B"/>
<path d="M154.321 57.1234C153.547 57.399 152.773 57.5565 151.917 57.5565C149.35 57.5565 148.371 56.3358 148.371 54.4457V46.8458H154.321V42.5536H148.371V37.0801H143.114V42.5536H139.854V46.8458H142.788V54.6819C142.788 59.0529 145.722 62.0456 151.02 62.0456C152.487 62.0456 153.751 61.8093 154.484 61.5337L154.321 57.1234Z" fill="#30333B"/>
<path d="M175.945 52.3583C175.945 46.4517 172.562 42.3564 166.49 42.3564C160.703 42.3564 156.506 46.4123 156.506 52.2402C156.506 57.9894 160.337 62.0453 166.409 62.0453C172.44 62.0453 175.211 58.8163 175.863 55.4692H170.688C170.362 56.493 169.384 57.8319 166.694 57.8319C164.086 57.8319 162.293 56.3355 161.885 53.3822H175.945V52.3583ZM166.531 46.3729C168.813 46.3729 170.362 47.5149 170.729 50.2713H161.967C162.496 47.5936 164.29 46.3729 166.531 46.3729Z" fill="#30333B"/>
<path d="M202.169 45.5578L199.81 40.9798C199.615 40.5707 199.306 40.2224 198.917 39.9742C198.528 39.7261 198.075 39.5879 197.609 39.5754H197.484L197.922 38.6598C198.122 38.238 198.222 37.7785 198.214 37.3148C198.207 36.851 198.093 36.3946 197.881 35.9787L195.524 31.4044C195.329 30.9947 195.019 30.6461 194.63 30.3979C194.24 30.1497 193.786 30.0118 193.32 30H184.637C183.24 30 182.1 31.2475 182.1 32.7833V42.3623C182.102 42.8629 182.232 43.3552 182.478 43.7959L186.558 52.9154C186.704 53.4237 187.012 53.8743 187.44 54.2021C187.867 54.53 188.392 54.7181 188.937 54.7393H197.594C198.075 54.7271 198.543 54.581 198.941 54.3182C199.339 54.0555 199.65 53.6875 199.836 53.2583L202.226 48.2535C202.426 47.8288 202.525 47.366 202.515 46.8994C202.506 46.4328 202.387 45.9742 202.169 45.5578ZM184.195 32.7905C184.195 32.3346 184.456 32.0355 184.629 32.0355H193.312C193.399 32.0355 193.535 32.123 193.637 32.3163L195.996 36.8907C196.064 37.0365 196.098 37.1943 196.098 37.3539C196.098 37.5135 196.064 37.6714 195.996 37.8172L194.181 41.6109L193.603 42.8219C193.505 43.0299 193.358 43.1247 193.267 43.1247H184.611C184.437 43.1247 184.176 42.8256 184.176 42.3696L184.195 32.7905ZM200.304 47.3817L197.911 52.3864C197.813 52.5944 197.665 52.6892 197.575 52.6892H188.918C188.744 52.6892 188.48 52.3864 188.48 51.9341V45.1492H193.286C193.768 45.1368 194.236 44.9901 194.634 44.7267C195.032 44.4633 195.342 44.0945 195.528 43.6646L196.514 41.6036H197.609C197.696 41.6036 197.832 41.6911 197.933 41.8845L200.293 46.4624C200.362 46.6075 200.399 46.7649 200.401 46.9245C200.403 47.0842 200.37 47.2424 200.304 47.389V47.3817Z" fill="#30333B"/>
</g>
<defs>
<clipPath id="clip0_311_523">
<rect width="106" height="40" fill="white" transform="translate(96.5156 30)"/>
</clipPath>
</defs>
</svg>
