<svg width="300" height="100" viewBox="0 0 300 100" fill="none" xmlns="http://www.w3.org/2000/svg">
<rect width="300" height="100" fill="white"/>
<g clip-path="url(#clip0_298_12839)">
<mask id="mask0_298_12839" style="mask-type:luminance" maskUnits="userSpaceOnUse" x="80" y="30" width="141" height="40">
<path d="M220.465 30.6221H80V69.3778H220.465V30.6221Z" fill="white"/>
</mask>
<g mask="url(#mask0_298_12839)">
<path opacity="0.7" d="M80 40.3105V59.6883H90.8072L80 40.3105Z" fill="#5D2ECE"/>
<path opacity="0.7" d="M96.3335 30.6221L80 40.3109H101.737L96.3335 30.6221Z" fill="#5D2ECE"/>
<path d="M112.666 40.3109L96.3328 30.6221L101.736 40.3109H112.666Z" fill="#5D2ECE"/>
<path opacity="0.7" d="M96.3335 69.3774L112.667 59.6885H90.8071L96.3335 69.3774Z" fill="#5D2ECE"/>
<path opacity="0.7" d="M101.738 40.3105L112.668 59.6883V40.3105H101.738Z" fill="#5D2ECE"/>
<path d="M80 59.6885L96.3335 69.3774L90.8072 59.6885H80Z" fill="#5D2ECE"/>
<path d="M164.817 69.2429V59.5723H168.297C170.296 59.5723 171.478 60.3296 171.478 62.088V62.1421C171.478 63.1024 171.044 63.8598 169.942 64.1979C171.261 64.482 171.886 65.1988 171.886 66.4837V66.5378C171.886 68.3367 170.69 69.2429 168.556 69.2429H164.817ZM166.584 67.958H168.338C169.548 67.958 170.105 67.417 170.105 66.4161V66.362C170.105 65.3612 169.548 64.8607 168.216 64.8607H166.584V67.958ZM166.584 63.6434H168.08C169.276 63.6434 169.738 63.2105 169.738 62.2233V62.1691C169.738 61.2494 169.208 60.8572 168.052 60.8572H166.584V63.6434Z" fill="#4E4B66"/>
<path d="M175.823 69.378C174.422 69.378 173.375 68.58 173.375 66.7V62.1689H175.02V66.5107C175.02 67.5791 175.469 68.0661 176.421 68.0661C177.305 68.0661 178.079 67.498 178.079 66.3754V62.1689H179.725V69.2428H178.079V68.1337C177.725 68.8235 176.978 69.378 175.823 69.378Z" fill="#4E4B66"/>
<path d="M184.108 69.3774C182.273 69.3774 181.199 68.5388 181.131 67.0374H182.681C182.763 67.7543 183.129 68.1736 184.094 68.1736C184.978 68.1736 185.373 67.8625 185.373 67.2673C185.373 66.6858 184.896 66.4693 183.85 66.2935C181.974 65.996 181.281 65.4685 181.281 64.143C181.281 62.7228 182.613 62.0195 183.945 62.0195C185.4 62.0195 186.555 62.5605 186.732 64.1565H185.209C185.074 63.5073 184.706 63.2097 183.945 63.2097C183.238 63.2097 182.816 63.5479 182.816 64.0484C182.816 64.5623 183.156 64.7652 184.284 64.9545C185.957 65.2115 186.95 65.6173 186.95 67.1186C186.95 68.5524 185.93 69.3774 184.108 69.3774Z" fill="#4E4B66"/>
<path d="M188.434 69.242V62.1682H190.078V69.242H188.434ZM189.235 61.005C188.692 61.005 188.256 60.5993 188.256 60.0717C188.256 59.5307 188.692 59.125 189.235 59.125C189.779 59.125 190.215 59.5307 190.215 60.0717C190.215 60.5993 189.779 61.005 189.235 61.005Z" fill="#4E4B66"/>
<path d="M192.084 69.2421V62.1683H193.728V63.2909C194.068 62.6011 194.856 62.0195 196.026 62.0195C197.454 62.0195 198.459 62.8445 198.459 64.7923V69.2421H196.815V64.941C196.815 63.8725 196.379 63.3856 195.401 63.3856C194.476 63.3856 193.728 63.9536 193.728 65.0763V69.2421H192.084Z" fill="#4E4B66"/>
<path d="M203.482 69.3774C201.388 69.3774 199.879 68.0113 199.879 65.7796V65.6713C199.879 63.4803 201.388 62.0195 203.414 62.0195C205.181 62.0195 206.772 63.061 206.772 65.5903V66.0636H201.565C201.619 67.4026 202.299 68.1601 203.523 68.1601C204.515 68.1601 205.031 67.7678 205.154 67.0781H206.745C206.514 68.5658 205.304 69.3774 203.482 69.3774ZM201.592 64.9681H205.14C205.058 63.7508 204.433 63.2097 203.414 63.2097C202.421 63.2097 201.755 63.8725 201.592 64.9681Z" fill="#4E4B66"/>
<path d="M210.741 69.3774C208.905 69.3774 207.832 68.5388 207.764 67.0374H209.314C209.395 67.7543 209.762 68.1736 210.727 68.1736C211.611 68.1736 212.005 67.8625 212.005 67.2673C212.005 66.6858 211.529 66.4693 210.483 66.2935C208.606 65.996 207.913 65.4685 207.913 64.143C207.913 62.7228 209.245 62.0195 210.577 62.0195C212.032 62.0195 213.188 62.5605 213.365 64.1565H211.842C211.706 63.5073 211.339 63.2097 210.577 63.2097C209.871 63.2097 209.449 63.5479 209.449 64.0484C209.449 64.5623 209.789 64.7652 210.917 64.9545C212.59 65.2115 213.582 65.6173 213.582 67.1186C213.582 68.5524 212.563 69.3774 210.741 69.3774Z" fill="#4E4B66"/>
<path d="M217.458 69.3774C215.624 69.3774 214.549 68.5388 214.481 67.0374H216.031C216.113 67.7543 216.48 68.1736 217.445 68.1736C218.329 68.1736 218.723 67.8625 218.723 67.2673C218.723 66.6858 218.247 66.4693 217.2 66.2935C215.325 65.996 214.631 65.4685 214.631 64.143C214.631 62.7228 215.963 62.0195 217.295 62.0195C218.75 62.0195 219.906 62.5605 220.083 64.1565H218.56C218.424 63.5073 218.056 63.2097 217.295 63.2097C216.588 63.2097 216.167 63.5479 216.167 64.0484C216.167 64.5623 216.507 64.7652 217.636 64.9545C219.307 65.2115 220.3 65.6173 220.3 67.1186C220.3 68.5524 219.28 69.3774 217.458 69.3774Z" fill="#4E4B66"/>
<path d="M157.411 56.4874H153.222V46.0962C153.222 42.256 156.308 38.9805 160.167 38.9805H162.261V43.2725H160.167C158.623 43.2725 157.411 44.5149 157.411 46.0962V56.4874Z" fill="#5D2ECE"/>
<path d="M193.457 56.713C188.717 56.713 184.859 52.6469 184.859 47.7901C184.859 42.8204 188.717 38.8672 193.457 38.8672C198.197 38.8672 202.056 42.9333 202.056 47.7901C202.056 52.7598 198.197 56.713 193.457 56.713ZM193.457 43.1592C191.033 43.1592 188.938 45.3052 188.938 47.7901C188.938 50.275 190.922 52.421 193.457 52.421C195.883 52.421 197.867 50.275 197.867 47.7901C197.867 45.3052 195.883 43.1592 193.457 43.1592Z" fill="#5D2ECE"/>
<path d="M174.056 38.8673H170.749V43.1593H174.056C176.481 43.1593 178.575 45.3053 178.575 47.7902C178.575 50.275 176.592 52.421 174.056 52.421H173.285C170.859 52.421 168.765 50.275 168.765 47.7902V30.6221H164.686V47.7902C164.686 52.7599 168.544 56.7131 173.285 56.7131H174.056C178.796 56.7131 182.655 52.6469 182.655 47.7902C182.655 42.8205 178.796 38.8673 174.056 38.8673Z" fill="#5D2ECE"/>
<path d="M220.465 56.4867H216.276V46.6603C216.276 44.6272 214.623 43.0459 212.749 43.0459H212.087C210.103 43.0459 208.56 44.7402 208.56 46.6603V56.4867H204.371V46.6603C204.371 42.2553 207.788 38.7539 212.087 38.7539H212.638C216.937 38.7539 220.354 42.2553 220.354 46.6603V56.4867H220.465Z" fill="#5D2ECE"/>
<path d="M130.843 56.4874H125.221C120.812 56.4874 117.174 52.7602 117.174 48.2422V47.5645C117.174 43.0466 120.812 39.3193 125.221 39.3193H130.843V43.6113H125.221C123.127 43.6113 121.363 45.4185 121.363 47.6775V48.3552C121.363 50.6142 123.127 52.4213 125.221 52.4213H130.843V56.4874Z" fill="#5D2ECE"/>
<path d="M150.686 56.4871H146.497V47.7901C146.497 45.1923 144.402 43.0462 141.867 43.0462C138.89 43.0462 137.016 45.3052 137.016 47.3383C137.016 47.5642 137.016 47.9031 137.016 48.016C137.016 50.275 138.78 52.0821 140.875 52.0821H144.512V56.3741H140.875C136.465 56.3741 132.827 52.6469 132.827 48.129V47.4512C132.827 42.7074 136.906 38.8672 141.867 38.8672C146.717 38.8672 150.575 42.9333 150.575 47.7901V56.4871H150.686Z" fill="#5D2ECE"/>
</g>
</g>
<defs>
<clipPath id="clip0_298_12839">
<rect width="140.909" height="40" fill="white" transform="translate(80 30)"/>
</clipPath>
</defs>
</svg>
