<svg width="300" height="100" viewBox="0 0 300 100" fill="none" xmlns="http://www.w3.org/2000/svg">
<rect width="300" height="100" fill="white"/>
<g clip-path="url(#clip0_311_509)">
<mask id="mask0_311_509" style="mask-type:luminance" maskUnits="userSpaceOnUse" x="112" y="30" width="75" height="40">
<path d="M186.444 30H112V69.1409H186.444V30Z" fill="white"/>
</mask>
<g mask="url(#mask0_311_509)">
<path d="M142.087 41.4419H145.773C149.603 35.0955 157.781 31.4565 165.991 32.3735C174.855 33.3682 181.166 39.472 182.144 47.1308C182.463 46.3011 182.596 46.4321 182.915 45.6024C181.296 37.9897 174.959 31.1581 166.003 30.1513C156.455 29.0839 145.626 33.7491 142.087 41.4419Z" fill="url(#paint0_linear_311_509)"/>
<path d="M148.261 63.6482C148.711 63.6482 149.077 63.7761 149.358 64.032C149.645 64.2878 149.788 64.6203 149.788 65.0297V67.5777H149.304V66.8716C149.187 67.107 149.005 67.2937 148.76 67.4319C148.514 67.57 148.24 67.6391 147.938 67.6391C147.549 67.6391 147.232 67.5342 146.987 67.3245C146.746 67.1147 146.626 66.8409 146.626 66.5032C146.626 66.1349 146.782 65.8483 147.094 65.6437C147.406 65.4339 147.885 65.2958 148.529 65.2292L149.304 65.1525V65.045C149.304 64.7535 149.207 64.5231 149.013 64.3543C148.823 64.1803 148.573 64.0933 148.261 64.0933C147.964 64.0933 147.721 64.1752 147.532 64.339C147.342 64.5027 147.23 64.7252 147.194 65.0067L146.726 64.9146C146.782 64.536 146.951 64.2316 147.232 64.0012C147.514 63.7659 147.856 63.6482 148.261 63.6482ZM147.977 67.194C148.396 67.194 148.721 67.0711 148.951 66.8256C149.187 66.58 149.304 66.2346 149.304 65.7895V65.5592L148.545 65.636C147.603 65.7383 147.132 66.0275 147.132 66.5032C147.132 66.7079 147.212 66.8742 147.37 67.0021C147.529 67.13 147.731 67.194 147.977 67.194ZM151.167 67.5777V64.1548H150.492V63.7097H151.167V63.3106C151.167 62.9115 151.262 62.6045 151.451 62.3896C151.641 62.1696 151.889 62.0596 152.196 62.0596C152.38 62.0596 152.544 62.0775 152.687 62.1133L152.672 62.5738C152.554 62.5278 152.416 62.5047 152.257 62.5047C152.078 62.5047 151.932 62.5712 151.82 62.7042C151.707 62.8373 151.651 63.0138 151.651 63.2338V63.7097H152.679V64.1548H151.651V67.5777H151.167ZM155.652 64.1855C155.499 64.1241 155.33 64.0933 155.146 64.0933C154.808 64.0933 154.532 64.2673 154.317 64.6152C154.102 64.958 153.995 65.4467 153.995 66.0811V67.5777H153.511V63.7097H153.995V64.5308C154.112 64.275 154.286 64.0652 154.517 63.9016C154.747 63.7327 154.982 63.6482 155.223 63.6482C155.392 63.6482 155.545 63.6712 155.683 63.7173L155.652 64.1855ZM156.306 62.144H156.904V62.8808H156.306V62.144ZM156.359 67.5777V63.7097H156.843V67.5777H156.359ZM159.629 67.6391C159.056 67.6391 158.595 67.4575 158.247 67.0942C157.904 66.7309 157.733 66.2475 157.733 65.6437C157.733 65.0399 157.904 64.5565 158.247 64.1931C158.595 63.8299 159.056 63.6482 159.629 63.6482C160.048 63.6482 160.406 63.7608 160.703 63.9859C161 64.2059 161.184 64.4976 161.256 64.8609L160.78 64.9607C160.729 64.7048 160.598 64.4976 160.388 64.339C160.179 64.1752 159.925 64.0933 159.629 64.0933C159.209 64.0933 158.871 64.2341 158.615 64.5155C158.365 64.7969 158.239 65.173 158.239 65.6437C158.239 66.1143 158.365 66.4905 158.615 66.7719C158.871 67.0532 159.209 67.194 159.629 67.194C159.936 67.194 160.191 67.1172 160.396 66.9637C160.606 66.8051 160.739 66.5826 160.795 66.296L161.271 66.3881C161.184 66.7821 160.995 67.0891 160.703 67.3091C160.411 67.5291 160.053 67.6391 159.629 67.6391ZM163.498 63.6482C163.948 63.6482 164.314 63.7761 164.595 64.032C164.882 64.2878 165.025 64.6203 165.025 65.0297V67.5777H164.541V66.8716C164.424 67.107 164.242 67.2937 163.996 67.4319C163.751 67.57 163.477 67.6391 163.175 67.6391C162.786 67.6391 162.469 67.5342 162.224 67.3245C161.983 67.1147 161.863 66.8409 161.863 66.5032C161.863 66.1349 162.019 65.8483 162.331 65.6437C162.643 65.4339 163.122 65.2958 163.766 65.2292L164.541 65.1525V65.045C164.541 64.7535 164.444 64.5231 164.25 64.3543C164.06 64.1803 163.81 64.0933 163.498 64.0933C163.201 64.0933 162.958 64.1752 162.769 64.339C162.579 64.5027 162.467 64.7252 162.431 65.0067L161.963 64.9146C162.019 64.536 162.188 64.2316 162.469 64.0012C162.751 63.7659 163.093 63.6482 163.498 63.6482ZM163.214 67.194C163.633 67.194 163.958 67.0711 164.188 66.8256C164.424 66.58 164.541 66.2346 164.541 65.7895V65.5592L163.782 65.636C162.84 65.7383 162.369 66.0275 162.369 66.5032C162.369 66.7079 162.449 66.8742 162.607 67.0021C162.766 67.13 162.968 67.194 163.214 67.194Z" fill="black"/>
<path d="M182.492 57.0302C182.487 56.6367 182.599 56.2507 182.813 55.9211C183.028 55.5917 183.335 55.3336 183.695 55.1796C184.056 55.0257 184.454 54.9829 184.839 55.0567C185.224 55.1306 185.578 55.3176 185.857 55.5941C186.136 55.8707 186.326 56.2242 186.405 56.6098C186.483 56.9953 186.445 57.3957 186.296 57.7597C186.148 58.1237 185.894 58.435 185.569 58.6542C185.243 58.8733 184.86 58.9904 184.468 58.9905C184.209 58.9962 183.952 58.9498 183.711 58.8537C183.47 58.7576 183.251 58.6138 183.067 58.4309C182.882 58.248 182.736 58.0298 182.638 57.7891C182.539 57.5486 182.489 57.2905 182.492 57.0302Z" fill="black"/>
<path d="M154.696 46.2906C152.48 46.2906 150.482 48.1391 150.482 52.8407V58.6291H146.549V42.8433H150.482V45.7254C151.262 43.9398 153.323 42.5909 155.227 42.5909C155.808 42.5876 156.385 42.6693 156.942 42.8336L156.701 46.6569C156.063 46.402 155.382 46.2775 154.696 46.2906Z" fill="black"/>
<path d="M165.838 46.2906C163.623 46.2906 161.625 48.1391 161.625 52.8407V58.6291H157.692V42.8433H161.625V45.7254C162.405 43.9398 164.466 42.5909 166.37 42.5909C166.951 42.5876 167.528 42.6693 168.085 42.8336L167.844 46.6569C167.206 46.402 166.525 46.2775 165.838 46.2906Z" fill="black"/>
<path d="M184.949 42.8428L175.36 67.3113L171.443 67.287L175.087 58.01L168.969 42.8428H173.246L177.022 52.9956L180.921 42.8428H184.949Z" fill="black"/>
<path d="M145.783 58.6697L145.752 42.8789H141.799V44.6717C140.383 43.4859 138.591 42.8497 136.747 42.8789C135.352 42.8593 133.976 43.2133 132.762 43.9044C131.548 44.5957 130.54 45.599 129.84 46.8114C129.156 47.9847 128.798 49.3212 128.806 50.6809C128.803 52.0511 129.165 53.3971 129.854 54.5794C130.549 55.7923 131.549 56.8011 132.754 57.5052C133.987 58.2389 135.398 58.6198 136.832 58.6066C137.74 58.6183 138.643 58.4536 139.489 58.1213C140.323 57.7776 141.098 57.3053 141.787 56.7216V58.6623L145.783 58.6697ZM136.624 54.6571C135.806 54.6586 135.006 54.4162 134.325 53.9609C133.644 53.5056 133.113 52.8577 132.799 52.0991C132.486 51.3407 132.403 50.5058 132.562 49.7C132.721 48.8942 133.114 48.154 133.692 47.5728C134.27 46.9917 135.007 46.5958 135.809 46.4353C136.611 46.2749 137.443 46.357 138.199 46.6713C138.954 46.9857 139.6 47.518 140.055 48.2011C140.509 48.8842 140.751 49.6872 140.751 50.5087C140.75 51.6078 140.315 52.6619 139.541 53.4396C138.768 54.2173 137.719 54.6551 136.624 54.6571Z" fill="black"/>
<path d="M112 50.6041C112 45.7715 115.329 42.4043 120.103 42.4043C124.343 42.4043 127.296 44.5489 127.798 48.0495L123.338 48.9253C123.097 47.3484 121.925 46.3392 120.292 46.3392C118.117 46.3392 116.743 48.0107 116.743 50.5969C116.743 53.183 118.156 54.8544 120.292 54.8544C121.925 54.8544 122.949 53.9083 123.276 52.4575L127.767 53.3722C127.202 56.7152 124.281 58.7966 120.103 58.7966C115.329 58.804 112 55.4294 112 50.6041Z" fill="black"/>
</g>
</g>
<defs>
<linearGradient id="paint0_linear_311_509" x1="172.855" y1="48.8848" x2="152.139" y2="32.5246" gradientUnits="userSpaceOnUse">
<stop stop-color="white" stop-opacity="0"/>
<stop offset="1" stop-color="#1AAE57"/>
</linearGradient>
<clipPath id="clip0_311_509">
<rect width="74.4444" height="40" fill="white" transform="translate(112 30)"/>
</clipPath>
</defs>
</svg>
