<svg width="300" height="100" viewBox="0 0 300 100" fill="none" xmlns="http://www.w3.org/2000/svg">
<rect width="300" height="100" fill="white"/>
<path d="M110.176 46.6165C110.176 53.6232 104.496 59.3026 97.4888 59.3026C90.4822 59.3026 84.802 53.6224 84.802 46.6165C84.8028 39.6098 90.4829 33.9297 97.4896 33.9297C104.496 33.9297 110.176 39.6098 110.176 46.6165Z" fill="#00C1AE"/>
<path d="M97.4895 39.8418C95.6514 39.8418 93.8801 40.1153 92.9881 40.2787C92.2628 40.4108 91.6475 40.8909 91.3418 41.5636L90.0129 44.4862C89.249 44.7306 88.4577 45.2791 88.4577 45.6666V51.885C88.4577 52.7165 89.1312 53.3907 89.9634 53.3907C90.7948 53.3907 91.4691 52.7172 91.4691 51.885H103.511C103.511 52.7165 104.184 53.3907 105.016 53.3907C105.849 53.3907 106.522 52.7172 106.522 51.885V45.6666C106.522 45.2791 105.731 44.7306 104.967 44.4862L103.638 41.5652C103.332 40.8909 102.715 40.4108 101.992 40.2787C101.098 40.1153 99.3276 39.8418 97.4895 39.8418ZM97.4895 41.3475C99.209 41.3475 100.879 41.6053 101.722 41.7593C101.962 41.8041 102.165 41.9628 102.268 42.1868L103.093 44.0037C102.121 43.8088 100.414 43.6053 97.4895 43.6053C94.5653 43.6053 92.8577 43.8088 91.8856 44.0037L92.7115 42.1868C92.8129 41.9628 93.018 41.8025 93.2585 41.7593C94.1009 41.6053 95.7701 41.3475 97.4895 41.3475ZM87.7041 42.8524C87.2883 42.8469 86.9465 43.1785 86.941 43.5943C86.9355 44.01 87.2671 44.3518 87.6828 44.3573C87.6899 44.3573 87.697 44.3573 87.7041 44.3573H88.4569C88.8726 44.3628 89.2145 44.0312 89.22 43.6155C89.2255 43.1998 88.8938 42.8579 88.4781 42.8524C88.471 42.8524 88.464 42.8524 88.4569 42.8524H87.7041ZM106.522 42.8524C106.106 42.8469 105.765 43.1785 105.759 43.5943C105.754 44.01 106.085 44.3518 106.501 44.3573C106.508 44.3573 106.515 44.3573 106.522 44.3573H107.275C107.691 44.3628 108.033 44.0312 108.038 43.6155C108.044 43.1998 107.712 42.8579 107.296 42.8524C107.289 42.8524 107.282 42.8524 107.275 42.8524H106.522ZM90.3382 45.111C90.9614 45.111 91.4675 45.617 91.4675 46.2402C91.4675 46.8634 90.9614 47.3695 90.3382 47.3695C89.7151 47.3695 89.209 46.8634 89.209 46.2402C89.209 45.617 89.7151 45.111 90.3382 45.111ZM104.64 45.111C105.263 45.111 105.769 45.617 105.769 46.2402C105.769 46.8634 105.263 47.3695 104.64 47.3695C104.017 47.3695 103.511 46.8634 103.511 46.2402C103.511 45.617 104.017 45.111 104.64 45.111ZM97.4895 48.498C101.246 48.498 103.512 48.8744 103.512 48.8744L103.175 49.5479C102.92 50.0579 102.398 50.3801 101.828 50.3801H93.1508C92.5803 50.3801 92.0593 50.0587 91.8039 49.5479L91.4675 48.8744C91.4675 48.8744 93.7331 48.498 97.4895 48.498Z" fill="#1A1A1A"/>
<path d="M125.164 51.2882C124.349 51.6701 123.534 51.8611 122.719 51.8611C121.956 51.8611 121.246 51.7125 120.593 51.4155C119.939 51.1184 119.361 50.7114 118.861 50.1927C118.359 49.6748 117.974 49.0681 117.702 48.3719C117.43 47.6756 117.295 46.929 117.295 46.1306C117.295 45.3157 117.431 44.5605 117.702 43.8642C117.973 43.1679 118.359 42.5613 118.861 42.0434C119.361 41.5255 119.939 41.1224 120.593 40.834C121.246 40.5455 121.956 40.4009 122.719 40.4009C123.551 40.4009 124.383 40.6092 125.215 41.0249C126.047 41.4414 126.76 42.0143 127.354 42.7444L129.697 39.9939C129.103 39.366 128.428 38.8347 127.673 38.4017C126.917 37.9687 126.11 37.634 125.253 37.3958C124.396 37.1585 123.534 37.0391 122.668 37.0391C121.31 37.0391 120.058 37.2685 118.912 37.7267C117.766 38.1848 116.76 38.8308 115.894 39.6622C115.028 40.4945 114.357 41.4619 113.882 42.5652C113.407 43.6693 113.17 44.8662 113.17 46.1565C113.17 47.4642 113.407 48.6776 113.882 49.7982C114.358 50.9188 115.016 51.8996 115.857 52.7396C116.697 53.5805 117.681 54.2336 118.811 54.7004C119.94 55.1672 121.174 55.4006 122.516 55.4006C123.382 55.4006 124.248 55.2685 125.114 55.0061C125.98 54.7428 126.807 54.3734 127.597 53.898C128.387 53.4226 129.096 52.8622 129.724 52.2171L127.355 49.7463C126.708 50.3931 125.979 50.9063 125.164 51.2882Z" fill="#1A1A1A"/>
<path d="M137.796 37.2939L130.029 55.1218H134.205L135.633 51.5564H143.812L145.233 55.1218H149.512L141.922 37.2939H137.796ZM136.887 48.4232L139.732 41.3175L142.563 48.4232H136.887Z" fill="#1A1A1A"/>
<path d="M164.69 48.2582C165.963 47.1124 166.601 45.5116 166.601 43.4574C166.601 41.5053 165.964 39.9894 164.69 38.9112C163.417 37.833 161.609 37.2939 159.265 37.2939H151.523V55.1218H155.547V49.9769H159.265C159.383 49.9769 159.498 49.9745 159.614 49.9714L162.475 55.1211H167.034L163.196 49.2295C163.756 48.9725 164.255 48.6495 164.69 48.2582ZM155.547 40.5285H159.265C160.386 40.5285 161.252 40.7831 161.863 41.2924C162.475 41.8016 162.781 42.5655 162.781 43.5847C162.781 44.6378 162.475 45.4228 161.863 45.9407C161.252 46.4586 160.386 46.7171 159.265 46.7171H155.547V40.5285Z" fill="#1A1A1A"/>
<path d="M182.989 47.6468C182.658 47.0275 182.208 46.5175 181.639 46.1191C181.07 45.7206 180.45 45.3929 179.78 45.1383C179.108 44.8837 178.433 44.659 177.755 44.4633C177.076 44.2684 176.456 44.0727 175.896 43.8778C175.336 43.6829 174.881 43.4283 174.533 43.114C174.185 42.7996 174.011 42.3973 174.011 41.9045C174.011 41.3788 174.219 40.9835 174.635 40.7203C175.051 40.457 175.599 40.3258 176.278 40.3258C176.77 40.3258 177.326 40.3981 177.946 40.5419C178.565 40.6865 179.211 40.89 179.882 41.1533C180.552 41.4165 181.202 41.7434 181.83 42.134L183.383 38.9254C182.5 38.3485 181.464 37.877 180.276 37.5116C179.087 37.147 177.865 36.9639 176.609 36.9639C175.233 36.9639 174.028 37.18 172.992 37.613C171.956 38.046 171.149 38.6574 170.572 39.4464C169.995 40.2362 169.706 41.1745 169.706 42.2605C169.706 43.1776 169.88 43.9328 170.228 44.5269C170.576 45.1218 171.031 45.6091 171.591 45.9918C172.151 46.3737 172.771 46.688 173.45 46.934C174.129 47.18 174.808 47.3922 175.488 47.5705C176.167 47.7489 176.787 47.9438 177.347 48.156C177.908 48.3682 178.357 48.6275 178.697 48.9324C179.037 49.2381 179.207 49.6452 179.207 50.1552C179.207 50.7501 178.973 51.2083 178.506 51.5305C178.04 51.8535 177.39 52.0146 176.558 52.0146C175.93 52.0146 175.242 51.9045 174.495 51.6837C173.748 51.4629 173.005 51.1485 172.267 50.7415C171.528 50.3336 170.853 49.859 170.242 49.3151L168.638 52.4735C169.317 53.0511 170.077 53.5556 170.917 53.9886C171.758 54.4216 172.653 54.7572 173.604 54.9945C174.555 55.2318 175.523 55.3513 176.508 55.3513C177.815 55.3513 178.999 55.1391 180.061 54.7148C181.122 54.2904 181.958 53.679 182.569 52.8814C183.181 52.0837 183.486 51.1077 183.486 49.9525C183.486 49.0346 183.32 48.2668 182.989 47.6468Z" fill="#1A1A1A"/>
<path d="M197.722 43.8904H194.029V47.8888H189.866L194.997 37.2939H191.177L185.727 48.2959V51.0464H194.029V55.1218H197.722V51.0464H200.167V47.8888H197.722V43.8904Z" fill="#00C1AE"/>
<path d="M215.193 46.3863C214.633 45.5714 213.843 44.9348 212.825 44.4759C211.806 44.0177 210.6 43.7882 209.208 43.7882C208.97 43.7882 208.648 43.7882 208.241 43.7882C207.913 43.7882 207.571 43.7922 207.222 43.7969V40.5277H215.219V37.2939H203.503V47.125C203.791 47.0912 204.165 47.066 204.623 47.0488C205.082 47.0323 205.557 47.015 206.05 46.9977C206.542 46.9812 206.992 46.9686 207.399 46.9592C207.806 46.9505 208.112 46.9466 208.316 46.9466C209.453 46.9466 210.303 47.1721 210.863 47.6216C211.423 48.0719 211.703 48.6873 211.703 49.4684C211.703 50.3006 211.414 50.9545 210.837 51.4299C210.26 51.9053 209.471 52.1427 208.469 52.1427C207.603 52.1427 206.75 51.969 205.909 51.6209C205.068 51.2727 204.283 50.8099 203.553 50.233L202 53.1619C202.95 53.7906 204.05 54.3038 205.298 54.703C206.546 55.1022 207.746 55.3018 208.902 55.3018C210.345 55.3018 211.597 55.0472 212.658 54.538C213.719 54.0287 214.546 53.3199 215.141 52.4114C215.735 51.503 216.033 50.4295 216.033 49.1894C216.033 48.1348 215.754 47.2012 215.193 46.3863Z" fill="#00C1AE"/>
<path d="M92.7117 42.1867L91.8857 44.0036C92.8586 43.8087 94.5655 43.6052 97.4897 43.6052C100.414 43.6052 102.121 43.8087 103.094 44.0036L102.268 42.1867C102.166 41.9627 101.962 41.8032 101.722 41.7592C100.98 41.624 99.5942 41.4079 98.0995 41.3584H96.8798C95.3852 41.4079 94.0005 41.624 93.2586 41.7592C93.0182 41.8024 92.8131 41.9619 92.7117 42.1867Z" fill="white"/>
<path d="M104.641 47.3699C105.265 47.3699 105.77 46.8643 105.77 46.2406C105.77 45.6169 105.265 45.1113 104.641 45.1113C104.017 45.1113 103.512 45.6169 103.512 46.2406C103.512 46.8643 104.017 47.3699 104.641 47.3699Z" fill="white"/>
<path d="M93.1509 50.3802H101.828C102.397 50.3802 102.919 50.0588 103.174 49.5479L103.511 48.8745C103.511 48.8745 101.245 48.498 97.4888 48.498C93.7324 48.498 91.4668 48.8745 91.4668 48.8745L91.8031 49.5479C92.0593 50.058 92.5804 50.3802 93.1509 50.3802Z" fill="white"/>
<path d="M90.3383 47.3689C90.9615 47.3689 91.4676 46.8628 91.4676 46.2396C91.4676 45.6164 90.9615 45.1104 90.3383 45.1104C89.8087 45.1104 89.3655 45.4758 89.2437 45.9677V46.5115C89.3662 47.0035 89.8095 47.3689 90.3383 47.3689Z" fill="white"/>
<path d="M115.934 59.9316H118.327C118.712 59.9316 119.025 59.9874 119.269 60.099C119.512 60.2106 119.699 60.3497 119.831 60.5163C119.963 60.6837 120.052 60.866 120.1 61.0633C120.148 61.2605 120.172 61.4428 120.172 61.6102C120.172 61.7776 120.148 61.9584 120.1 62.1533C120.052 62.3481 119.962 62.5297 119.831 62.6963C119.699 62.8637 119.512 63.0012 119.269 63.1104C119.026 63.2197 118.712 63.2739 118.327 63.2739H116.883V65.3548H115.934V59.9316ZM116.883 62.499H118.273C118.379 62.499 118.488 62.4841 118.6 62.4534C118.712 62.4228 118.814 62.3733 118.908 62.3049C119.002 62.2366 119.078 62.1454 119.136 62.0314C119.194 61.9175 119.223 61.7745 119.223 61.6024C119.223 61.4248 119.198 61.2786 119.147 61.1615C119.096 61.0452 119.028 60.9525 118.942 60.8841C118.855 60.8157 118.757 60.7694 118.646 60.7434C118.534 60.7183 118.415 60.7057 118.289 60.7057H116.884V62.499H116.883Z" fill="#1A1A1A"/>
<path d="M123.31 59.8027C123.715 59.8027 124.078 59.879 124.4 60.0306C124.721 60.1823 124.994 60.3874 125.216 60.646C125.439 60.9045 125.61 61.2055 125.729 61.5497C125.848 61.8939 125.908 62.2585 125.908 62.6436C125.908 63.0334 125.848 63.4004 125.729 63.7454C125.61 64.0896 125.439 64.3913 125.216 64.6491C124.994 64.9076 124.721 65.1112 124.4 65.2605C124.078 65.4098 123.714 65.4845 123.31 65.4845C122.905 65.4845 122.541 65.4098 122.22 65.2605C121.898 65.1112 121.626 64.9076 121.403 64.6491C121.18 64.3906 121.01 64.0896 120.89 63.7454C120.771 63.4012 120.712 63.0342 120.712 62.6436C120.712 62.2585 120.771 61.8939 120.89 61.5497C121.009 61.2055 121.18 60.9037 121.403 60.646C121.626 60.3874 121.898 60.1823 122.22 60.0306C122.541 59.8782 122.904 59.8027 123.31 59.8027ZM123.31 60.5776C123.021 60.5776 122.771 60.6357 122.562 60.752C122.352 60.8684 122.18 61.024 122.049 61.2188C121.917 61.4137 121.82 61.6353 121.757 61.8837C121.693 62.132 121.662 62.3851 121.662 62.6436C121.662 62.9021 121.693 63.1552 121.757 63.4035C121.821 63.6519 121.918 63.8735 122.049 64.0684C122.181 64.2632 122.352 64.4188 122.562 64.5352C122.771 64.6515 123.021 64.7096 123.31 64.7096C123.598 64.7096 123.848 64.6515 124.058 64.5352C124.268 64.4188 124.439 64.2632 124.571 64.0684C124.702 63.8735 124.8 63.6519 124.863 63.4035C124.926 63.1552 124.958 62.9021 124.958 62.6436C124.958 62.3851 124.927 62.132 124.863 61.8837C124.8 61.6353 124.702 61.4137 124.571 61.2188C124.439 61.024 124.268 60.8684 124.058 60.752C123.848 60.6357 123.598 60.5776 123.31 60.5776Z" fill="#1A1A1A"/>
<path d="M126.242 59.9316H127.207L128.187 64.0794H128.202L129.296 59.9316H130.268L131.331 64.0794H131.346L132.356 59.9316H133.321L131.825 65.3556H130.86L129.774 61.2079H129.759L128.65 65.3556H127.67L126.242 59.9316Z" fill="#1A1A1A"/>
<path d="M133.944 59.9316H137.849V60.7521H134.894V62.1729H137.629V62.9478H134.894V64.5352H137.902V65.3556H133.945V59.9316H133.944Z" fill="#1A1A1A"/>
<path d="M138.73 59.9316H141.32C141.917 59.9316 142.366 60.0605 142.664 60.3191C142.963 60.5776 143.112 60.9367 143.112 61.398C143.112 61.6566 143.075 61.8703 142.998 62.0401C142.922 62.2098 142.833 62.3466 142.732 62.4503C142.631 62.554 142.531 62.6287 142.432 62.6743C142.333 62.7199 142.26 62.7497 142.215 62.7654V62.7804C142.296 62.7906 142.383 62.8157 142.477 62.8566C142.57 62.8975 142.657 62.9619 142.738 63.0499C142.819 63.1379 142.887 63.2534 142.939 63.3957C142.993 63.5371 143.02 63.7147 143.02 63.9277C143.02 64.2468 143.044 64.5367 143.092 64.7977C143.14 65.0586 143.214 65.2448 143.316 65.3564H142.298C142.227 65.2401 142.185 65.1104 142.173 64.969C142.161 64.8275 142.154 64.6908 142.154 64.5588C142.154 64.3104 142.139 64.0967 142.109 63.9167C142.078 63.7367 142.022 63.5874 141.941 63.4688C141.86 63.3501 141.75 63.2621 141.611 63.2071C141.472 63.1513 141.294 63.1238 141.076 63.1238H139.678V65.3572H138.729V59.9316H138.73ZM139.679 62.4008H141.236C141.541 62.4008 141.771 62.3285 141.927 62.1839C142.084 62.0393 142.163 61.8232 142.163 61.534C142.163 61.3619 142.138 61.2212 142.087 61.1128C142.036 61.0035 141.966 60.9187 141.878 60.8582C141.789 60.7977 141.688 60.7568 141.574 60.7364C141.46 60.7159 141.342 60.7057 141.22 60.7057H139.678L139.679 62.4008Z" fill="#1A1A1A"/>
<path d="M144.077 59.9316H147.982V60.7521H145.027V62.1729H147.762V62.9478H145.027V64.5352H148.036V65.3556H144.078V59.9316H144.077Z" fill="#1A1A1A"/>
<path d="M148.863 59.9316H151.112C151.527 59.9316 151.886 60.0024 152.191 60.1446C152.495 60.2861 152.742 60.4802 152.935 60.7254C153.127 60.9713 153.27 61.2582 153.364 61.5874C153.457 61.9167 153.505 62.2688 153.505 62.6436C153.505 63.0185 153.457 63.3705 153.364 63.699C153.27 64.0283 153.127 64.3159 152.935 64.5611C152.742 64.8071 152.494 65.0004 152.191 65.1419C151.886 65.2841 151.527 65.3548 151.112 65.3548H148.863V59.9316ZM149.813 64.5808H150.747C151.116 64.5808 151.419 64.5312 151.655 64.433C151.89 64.334 152.075 64.1973 152.209 64.0228C152.344 63.8483 152.435 63.6432 152.483 63.4075C152.531 63.1717 152.555 62.9171 152.555 62.6436C152.555 62.3701 152.531 62.1155 152.483 61.8798C152.435 61.644 152.344 61.4389 152.209 61.2644C152.075 61.09 151.89 60.9533 151.655 60.8542C151.419 60.7552 151.116 60.7065 150.747 60.7065H149.813V64.5808Z" fill="#1A1A1A"/>
<path d="M156.459 59.9316H159.095C159.581 59.9316 159.971 60.0432 160.264 60.2656C160.558 60.4888 160.705 60.8252 160.705 61.2762C160.705 61.5497 160.638 61.7839 160.504 61.9788C160.37 62.1737 160.179 62.3246 159.93 62.4307V62.4456C160.264 62.5163 160.518 62.6751 160.69 62.9202C160.862 63.1662 160.949 63.4735 160.949 63.8428C160.949 64.0558 160.911 64.2546 160.835 64.4393C160.759 64.624 160.64 64.7835 160.478 64.9179C160.316 65.0523 160.109 65.1584 159.855 65.2369C159.602 65.3155 159.301 65.3548 158.951 65.3548H156.459V59.9316ZM157.409 62.2028H158.958C159.186 62.2028 159.376 62.1383 159.528 62.0094C159.68 61.8806 159.756 61.6943 159.756 61.4515C159.756 61.178 159.688 60.9855 159.551 60.8739C159.414 60.7623 159.217 60.7065 158.958 60.7065H157.409V62.2028ZM157.409 64.5808H159.087C159.376 64.5808 159.6 64.5061 159.759 64.3568C159.919 64.2075 159.998 63.9961 159.998 63.7226C159.998 63.4546 159.918 63.2479 159.759 63.1033C159.6 62.9588 159.376 62.8865 159.087 62.8865H157.409V64.5808Z" fill="#1A1A1A"/>
<path d="M163.22 63.2283L161.184 59.9316H162.285L163.721 62.3623L165.134 59.9316H166.197L164.169 63.2283V65.3556H163.219V63.2283H163.22Z" fill="#1A1A1A"/>
<path d="M169.7 63.1694C169.7 63.8531 169.475 64.0857 168.814 64.0857L168.813 65.3549C169.016 65.3847 169.189 65.3926 169.362 65.3926C170.556 65.3934 171.27 64.822 171.27 63.3572L171.272 59.3611L169.702 59.3604L169.7 63.1694ZM172.29 65.3792L173.808 65.38L173.809 60.7529L172.292 60.7521L172.29 65.3792ZM177.273 60.7537L177.271 65.3808L178.789 65.3816L178.79 60.7545L177.273 60.7537Z" fill="#1A1A1A"/>
<path d="M174.423 67.3629C175.813 67.1978 176.339 66.3342 176.34 64.9746L176.342 59.5357L174.84 59.535L174.837 65.0642C174.837 65.8454 174.612 66.0104 174.184 66.221L174.423 67.3629ZM175.591 59.1302C176.087 59.1302 176.47 58.8002 176.47 58.3043C176.47 57.8084 176.088 57.4705 175.592 57.4697C175.096 57.4697 174.72 57.8076 174.72 58.3035C174.727 58.7994 175.095 59.1302 175.591 59.1302Z" fill="#1A1A1A"/>
<path fill-rule="evenodd" clip-rule="evenodd" d="M178.033 58.5C178.506 58.5 178.889 58.8835 178.888 59.3566C178.888 59.8297 178.505 60.2132 178.032 60.2124C177.559 60.2116 177.175 59.8289 177.176 59.3558C177.176 58.8906 177.56 58.5 178.033 58.5Z" fill="#1A1A1A"/>
<path fill-rule="evenodd" clip-rule="evenodd" d="M173.052 58.498C173.525 58.498 173.909 58.8815 173.908 59.3546C173.908 59.8277 173.524 60.2112 173.051 60.2104C172.578 60.2096 172.195 59.8269 172.195 59.3538C172.188 58.8878 172.579 58.498 173.052 58.498Z" fill="#1A1A1A"/>
</svg>
