<svg width="300" height="100" viewBox="0 0 300 100" fill="none" xmlns="http://www.w3.org/2000/svg">
<rect width="300" height="100" fill="white"/>
<g clip-path="url(#clip0_291_3670)">
<path d="M111.189 58.1982H111.514V41.7518H111.189V58.1982Z" fill="#100F14"/>
<path d="M125.857 55.5771H119.589V44.493H125.857V46.8944H122.441V48.6404H125.603V51.0437H122.441V53.1359H125.857V55.5771Z" fill="#100F14"/>
<mask id="mask0_291_3670" style="mask-type:luminance" maskUnits="userSpaceOnUse" x="29" y="34" width="244" height="31">
<path d="M29.3804 34.6666H272.143V64.8984H29.3804V34.6666Z" fill="white"/>
</mask>
<g mask="url(#mask0_291_3670)">
<path d="M153.393 46.7887C152.716 46.7887 152.185 47.0811 151.804 47.6646C151.425 48.2497 151.235 49.0533 151.235 50.0787C151.235 52.212 152.007 53.2795 153.552 53.2795C154.02 53.2795 154.473 53.2111 154.91 53.0752C155.347 52.9388 155.788 52.7738 156.23 52.5809V55.1142C155.35 55.5227 154.353 55.7285 153.242 55.7285C151.648 55.7285 150.427 55.2423 149.578 54.272C148.729 53.3025 148.302 51.8979 148.302 50.0631C148.302 48.9175 148.509 47.9087 148.921 47.0412C149.33 46.1689 149.925 45.5002 150.696 45.0324C151.469 44.5656 152.377 44.3325 153.422 44.3325C154.563 44.3325 155.654 44.5938 156.693 45.1147L155.818 47.4711C155.431 47.2792 155.039 47.1184 154.65 46.9848C154.259 46.8561 153.841 46.7887 153.393 46.7887Z" fill="#100F14"/>
<path d="M168.991 55.5771H162.723V44.493H168.991V46.8944H165.576V48.6404H168.738V51.0437H165.576V53.1359H168.991V55.5771Z" fill="#100F14"/>
<path d="M175.274 55.5771V44.493H178.129V53.1566H182.193V55.5771H175.274Z" fill="#100F14"/>
<path d="M188.316 55.5771V44.493H191.168V53.1566H195.232V55.5771H188.316Z" fill="#100F14"/>
<path d="M207.625 55.5771H201.357V44.493H207.625V46.8944H204.208V48.6404H207.37V51.0437H204.208V53.1359H207.625V55.5771Z" fill="#100F14"/>
<path d="M216.762 51.5426V55.5771H213.907V44.492H217.368C220.236 44.492 221.67 45.5835 221.67 47.7687C221.67 49.0521 221.073 50.0446 219.88 50.7474L222.955 55.5771H219.722L217.484 51.5426H216.762ZM216.762 49.289H217.294C218.293 49.289 218.792 48.8274 218.792 47.9022C218.792 47.1401 218.303 46.7586 217.325 46.7586H216.762V49.289Z" fill="#100F14"/>
<path d="M234.827 55.5771L234.309 53.498H230.876L230.343 55.5771H227.21L230.654 44.4447H234.461L237.947 55.5771H234.827ZM233.716 51.0437L233.263 49.2235C233.154 48.8193 233.027 48.2958 232.875 47.6523C232.722 47.0131 232.623 46.5521 232.575 46.2753C232.531 46.5301 232.448 46.956 232.318 47.5463C232.191 48.1392 231.907 49.3052 231.472 51.0437H233.716Z" fill="#100F14"/>
<path d="M248.179 55.5771H245.328V46.9404H242.75V44.493H250.749V46.9404H248.179V55.5771Z" fill="#100F14"/>
<path d="M262.961 55.5771H256.693V44.493H262.961V46.8944H259.547V48.6404H262.71V51.0437H259.547V53.1359H262.961V55.5771Z" fill="#100F14"/>
<path d="M135.6 48.7035C135.678 47.8039 132.878 44.5435 132.989 43.6676C133.051 43.1645 135.031 42.1265 135.505 42.3113C136.015 42.5016 137.307 47.0904 137.732 47.1232C138.604 47.1997 142.133 41.7725 143.154 41.8208C143.852 41.8549 145.384 42.7081 145.389 43.6468C145.392 44.49 139.143 48.8267 138.993 49.7508C138.742 51.2631 142.878 55.7511 142.878 56.4999C142.878 57.3418 140.158 58.537 139.628 58.1833C138.533 57.4517 136.819 51.8025 136.566 51.7402C135.724 51.5325 132.87 56.261 132.249 56.4072C131.696 56.535 130.133 55.2315 130.133 54.7015C130.133 53.5737 135.505 49.805 135.6 48.7035Z" fill="#100F14"/>
<path d="M67.0103 49.7564C69.0934 49.0639 69.4713 47.3154 69.4662 45.8901C69.4626 43.7133 67.9261 41.8312 63.3793 41.8312L54.8927 41.8299V58.1824H63.357C67.9312 58.1824 69.6143 55.8341 69.6143 53.4817C69.6143 50.6336 67.0103 49.7564 67.0103 49.7564ZM58.9201 45.3876H64.6118H64.6342L64.6549 45.3915C65.2997 45.5059 65.7691 46.0547 65.7691 46.6976C65.7691 47.3559 65.2663 47.9764 64.6014 48.0665L58.924 48.0759L58.9201 45.3876ZM64.3596 54.3712H58.9201V51.6336H64.4769H64.4922L64.5052 51.6352C65.1985 51.7153 65.7234 52.291 65.7234 52.976C65.7234 53.7222 65.1019 54.3608 64.3596 54.3712ZM88.6181 41.8143H102.959L102.952 45.3827H92.6027L92.6131 48.0185H101.942V51.606H92.6131V54.4584H102.963L102.96 58.1982H88.6181V41.8143ZM80.2757 41.8273H71.603V58.185H75.5854V51.5662C75.5854 51.5662 79.9707 51.562 79.9713 51.562C81.2275 51.5808 82.2045 52.6097 82.2045 53.8788V58.1707L86.1026 58.1697L86.0951 52.8904C86.0951 50.4436 83.7323 49.7214 83.7323 49.7214C83.7323 49.7214 86.148 48.9994 86.148 46.1079C86.148 42.57 83.1083 41.8273 80.2757 41.8273ZM82.4492 46.9021C82.3783 47.4399 81.8408 48.0237 81.1694 48.0237L75.5718 48.0253V45.4064H81.1714C81.8408 45.4064 82.3643 45.8988 82.4492 46.5452V46.9021ZM52.4407 54.2499L52.4268 58.1872H52.2978C52.2978 58.1872 47.4036 58.183 47.4036 58.1817C47.4036 58.1817 46.0894 58.1542 46.0842 58.1542C43.6361 58.017 42.4221 57.6018 41.6347 57.2552C39.3037 56.1515 37.678 54.0989 37.1729 51.6187C37.0831 51.089 37.0391 50.537 37.0391 49.9804C37.0391 48.212 37.5969 46.5251 38.6515 45.1046C39.4803 43.9888 40.5893 43.0916 41.8639 42.5071C43.191 41.9644 44.4871 41.8863 45.2686 41.8383L52.289 41.8257L52.42 41.8254L52.407 45.5451L52.2774 45.5435C52.2109 45.5429 46.0087 45.4722 44.8738 45.6213C42.4896 45.9332 40.9504 47.5948 40.9504 49.8526C40.9504 51.6637 42.0117 53.8823 45.0064 54.1757C46.8661 54.3569 52.2527 54.2528 52.3098 54.2515L52.4407 54.2499Z" fill="#100F14"/>
</g>
</g>
<defs>
<clipPath id="clip0_291_3670">
<rect width="225.923" height="16.4954" fill="white" transform="translate(37.0386 41.752)"/>
</clipPath>
</defs>
</svg>
