<svg width="300" height="100" viewBox="0 0 300 100" fill="none" xmlns="http://www.w3.org/2000/svg">
<rect width="300" height="100" fill="white"/>
<g clip-path="url(#clip0_298_12788)">
<path d="M121.28 61.6922C114.267 61.6922 108.902 56.287 108.902 49.2951C108.902 42.3032 114.232 37.0391 121.316 37.0391C127.351 37.0391 132.037 40.8689 133.171 46.6121H126.911C125.891 44.3179 123.791 42.971 121.279 42.971C117.861 42.971 115.291 45.7168 115.291 49.3308C115.291 52.945 117.905 55.7612 121.279 55.7612C123.826 55.7612 125.84 54.3428 126.903 51.8485H133.249C132.15 57.7135 127.378 61.6922 121.28 61.6922Z" fill="#1440BF"/>
<path d="M159.165 49.2837C159.165 49.9001 159.122 50.517 159.044 51.1335H141.402C141.949 54.3179 144.04 56.0715 147.098 56.0715C149.288 56.0715 151.086 55.0341 152.043 53.3645H158.667C156.972 58.4511 152.51 61.6922 147.098 61.6922C140.215 61.6922 135.008 56.3582 135.008 49.3659C135.008 42.3383 140.18 37.0391 147.098 37.0391C154.257 37.0391 159.167 42.5619 159.167 49.2832L159.165 49.2837ZM141.567 46.8248H152.864C151.973 43.9722 149.926 42.4254 147.098 42.4254C144.292 42.4254 142.3 44.0635 141.567 46.8248Z" fill="#1440BF"/>
<path d="M184.673 46.8915V61.0324H178.371V47.9129C178.371 44.3854 177.033 42.6848 174.305 42.6848C171.056 42.6848 169.074 45.0142 169.074 48.7693V61.0326H162.771V37.6994H167.096L168.325 40.5839C170.089 38.4803 172.875 37.1455 176.047 37.1455C181.361 37.1455 184.673 40.9835 184.673 46.8915Z" fill="#1440BF"/>
<path d="M188.036 49.3659C188.036 42.2877 193.416 37.0391 200.637 37.0391C207.858 37.0391 213.238 42.2949 213.238 49.3659C213.238 56.4012 207.823 61.6922 200.637 61.6922C193.453 61.6922 188.036 56.4012 188.036 49.3659ZM206.85 49.3659C206.85 45.5872 204.271 42.971 200.637 42.971C197.004 42.971 194.425 45.587 194.425 49.3659C194.425 53.1449 197.004 55.7609 200.637 55.7609C204.272 55.7609 206.85 53.1452 206.85 49.3659Z" fill="#1440BF"/>
<path d="M240.614 37.6653V60.998H235.673L235.131 58.9106C233.129 60.6647 230.518 61.6933 227.577 61.6933C220.564 61.6933 215.348 56.3944 215.348 49.3315C215.348 42.2686 220.564 37.04 227.577 37.04C230.569 37.04 233.22 38.0957 235.236 39.8939L235.909 37.6645L240.614 37.6653ZM234.436 49.3322C234.436 45.6668 231.752 42.9373 228.091 42.9373C224.429 42.9373 221.738 45.6749 221.738 49.3322C221.738 52.9895 224.429 55.7271 228.091 55.7271C231.753 55.7271 234.436 52.9971 234.436 49.3322Z" fill="#1440BF"/>
<path d="M82.6189 35.127H59.9688V44.8447C73.4231 48.5307 84.1857 59.0132 92.0593 68.731H93.5413V46.0598C93.5413 40.0219 88.6507 35.127 82.6189 35.127Z" fill="#85D7C9"/>
<path d="M87.7416 30H65.0918V39.7178C78.546 43.4037 89.3087 53.8863 97.1823 63.6041H98.6644V40.9328C98.6644 34.8949 93.7735 30 87.7416 30Z" fill="#1440BF"/>
</g>
<defs>
<clipPath id="clip0_298_12788">
<rect width="180.645" height="40" fill="white" transform="translate(59.9688 30)"/>
</clipPath>
</defs>
</svg>
