<svg width="300" height="100" viewBox="0 0 300 100" fill="none" xmlns="http://www.w3.org/2000/svg">
<rect width="300" height="100" fill="white"/>
<g clip-path="url(#clip0_298_12772)">
<path d="M95.2049 50.3853C95.3098 50.581 95.4163 50.7792 95.5261 50.9802C95.5496 50.9411 95.5708 50.9062 95.5902 50.8743C95.6372 50.7971 95.6735 50.7373 95.7061 50.6758C97.1341 47.685 99.1669 45.1873 102.222 43.5343C102.618 43.3194 102.503 43.1015 102.37 42.8501C102.361 42.8342 102.353 42.8182 102.344 42.8019C101.07 40.3587 99.3085 38.267 97.0995 36.5378C96.3159 35.926 96.0781 35.6288 95.8263 35.6175C95.5737 35.6063 95.3072 35.8827 94.4618 36.4182C91.9389 38.0205 89.9444 40.0868 88.681 42.7367C88.6708 42.7581 88.6605 42.7793 88.6502 42.8002C88.5146 43.0775 88.3973 43.317 88.8495 43.5596C91.3302 44.8864 93.1564 46.8258 94.5307 49.164C94.7628 49.5616 94.9807 49.9675 95.2049 50.3853Z" fill="#3FA0D9"/>
<path d="M79.2861 42.7949C83.168 42.8565 86.7552 43.5852 89.8906 45.7457C92.4595 47.5148 94.0445 49.9182 94.8943 52.7857C94.9478 52.9633 94.9555 53.1301 94.9095 53.3113C94.1975 56.0229 94.1094 58.7816 94.2396 61.5548C94.2588 61.9862 94.144 62.153 93.696 62.2146C87.7927 63.0557 79.0143 59.8184 76.2387 52.8764C74.9945 49.766 75.0481 46.6121 75.8559 43.4257C75.9325 43.1176 76.1047 43.0233 76.4148 42.9834C77.3273 42.8725 78.2398 42.8364 79.0882 42.8028L79.2861 42.7949Z" fill="#3FA0D9"/>
<path d="M95.5303 58.5805C95.5417 55.376 95.9743 52.5737 97.4099 49.9962C99.4314 46.3602 102.727 44.3012 106.866 43.3479C109.469 42.746 112.099 42.6808 114.752 42.9817C115.199 43.0305 115.261 43.2779 115.337 43.5779L115.346 43.6125C117.344 51.3013 113.811 57.9715 106.07 61.0093C103.172 62.144 100.166 62.7059 97.0195 62.1186C95.8173 61.8939 95.7944 61.8866 95.6681 60.7593C95.5992 60.16 95.574 59.5588 95.5538 59.0796C95.5459 58.8922 95.5389 58.7231 95.5303 58.5805Z" fill="#3FA0D9"/>
<path d="M137.938 61.9993C135.808 61.9993 133.993 61.6467 132.489 60.9414C130.989 60.2362 129.759 59.321 128.814 58.1918C127.864 57.0626 127.168 55.8411 126.72 54.5187C126.271 53.2007 126.049 51.9162 126.049 50.6651V50.0019C126.049 48.6502 126.28 47.307 126.737 45.9678C127.194 44.6287 127.904 43.4156 128.863 42.3241C129.821 41.2369 131.037 40.3637 132.506 39.7089C133.975 39.054 135.733 38.7266 137.778 38.7266C139.864 38.7266 141.697 39.0876 143.272 39.8138C144.848 40.54 146.104 41.5475 147.044 42.8362C147.981 44.125 148.544 45.6362 148.74 47.3699H144.169C143.911 45.8587 143.206 44.7043 142.043 43.9108C140.88 43.1133 139.46 42.7187 137.778 42.7187C136.225 42.7187 134.92 43.0461 133.864 43.701C132.808 44.3558 132.009 45.2584 131.468 46.4044C130.926 47.5546 130.651 48.8727 130.651 50.363C130.651 51.8153 130.926 53.1125 131.481 54.2627C132.036 55.4129 132.857 56.3238 133.94 56.9997C135.027 57.6756 136.358 58.0113 137.934 58.0113C139.682 58.0113 141.155 57.6042 142.358 56.7856C143.561 55.9712 144.293 54.8253 144.546 53.3559H149.117C148.904 54.947 148.336 56.3994 147.408 57.7091C146.481 59.0188 145.225 60.0599 143.636 60.8365C142.052 61.6089 140.153 61.9993 137.938 61.9993Z" fill="#111111"/>
<path d="M152.605 61.4241V39.3604H157.047V47.7643C157.495 46.7149 158.157 45.9089 159.026 45.3464C159.901 44.784 160.997 44.4985 162.319 44.4985H162.51C164.489 44.4985 165.994 45.1492 167.014 46.4463C168.035 47.7476 168.55 49.6156 168.55 52.0545V61.4241H164.108V51.66C164.108 50.6105 163.793 49.7877 163.167 49.1832C162.537 48.5788 161.711 48.2766 160.691 48.2766C159.581 48.2766 158.698 48.6123 158.037 49.2882C157.376 49.9641 157.047 50.8456 157.047 51.9328V61.4241H152.605Z" fill="#111111"/>
<path d="M178.228 61.8494C176.311 61.8494 174.784 61.3877 173.644 60.4599C172.503 59.5322 171.935 58.2351 171.935 56.5602C171.935 54.7677 172.623 53.4412 173.994 52.5848C175.37 51.7284 177.216 51.3003 179.537 51.3003H183.083V51.1492C183.083 49.2769 182.08 48.3367 180.079 48.3367C179.546 48.3367 178.907 48.345 178.162 48.366C177.416 48.387 176.666 48.4122 175.907 48.4416C175.148 48.471 174.474 48.5088 173.879 48.5465V44.9784C174.602 44.9196 175.472 44.8693 176.484 44.8272C177.496 44.7853 178.428 44.7686 179.28 44.7686C181.943 44.7686 183.948 45.2764 185.302 46.2966C186.655 47.3124 187.33 48.9621 187.33 51.2373V61.4213H183.815V58.277C183.03 60.6614 181.166 61.8494 178.228 61.8494ZM179.475 58.8564C180.07 58.8564 180.638 58.7515 181.17 58.5374C181.703 58.3275 182.147 57.9623 182.497 57.4501C182.848 56.938 183.048 56.2369 183.087 55.3512V53.8106H179.475C178.454 53.8106 177.669 54.0456 177.128 54.5201C176.586 54.9944 176.311 55.6031 176.311 56.3503C176.311 57.1143 176.582 57.7272 177.128 58.1806C177.669 58.6298 178.45 58.8564 179.475 58.8564Z" fill="#111111"/>
<path d="M192.095 61.4241V39.3604H196.538V52.9319L203.216 45.0148H207.849L201.939 51.9957L209.256 61.4241H204.242L198.429 53.7463H196.542V61.4241H192.095Z" fill="#111111"/>
<path d="M216.472 61.8494C214.556 61.8494 213.029 61.3877 211.888 60.4599C210.747 59.5322 210.18 58.2351 210.18 56.5602C210.18 54.7677 210.867 53.4412 212.238 52.5848C213.614 51.7284 215.46 51.3003 217.781 51.3003H221.328V51.1492C221.328 49.2769 220.324 48.3367 218.323 48.3367C217.791 48.3367 217.151 48.345 216.406 48.366C215.66 48.387 214.91 48.4122 214.151 48.4416C213.397 48.471 212.718 48.5088 212.123 48.5465V44.9784C212.847 44.9196 213.717 44.8693 214.728 44.8272C215.74 44.7853 216.672 44.7686 217.524 44.7686C220.187 44.7686 222.192 45.2764 223.546 46.2966C224.9 47.3124 225.574 48.9621 225.574 51.2373V61.4213H222.06V58.277C221.278 60.6614 219.415 61.8494 216.472 61.8494ZM217.719 58.8564C218.315 58.8564 218.882 58.7515 219.415 58.5374C219.947 58.3275 220.391 57.9623 220.741 57.4501C221.092 56.938 221.292 56.2369 221.332 55.3512V53.8106H217.719C216.699 53.8106 215.913 54.0456 215.372 54.5201C214.831 54.9944 214.556 55.6031 214.556 56.3503C214.556 57.1143 214.826 57.7272 215.372 58.1806C215.913 58.6298 216.699 58.8564 217.719 58.8564Z" fill="#111111"/>
</g>
<defs>
<clipPath id="clip0_298_12772">
<rect width="150.303" height="40" fill="white" transform="translate(75.2734 30)"/>
</clipPath>
</defs>
</svg>
