<svg width="300" height="100" viewBox="0 0 300 100" fill="none" xmlns="http://www.w3.org/2000/svg">
<rect width="300" height="100" fill="white"/>
<g clip-path="url(#clip0_298_12755)">
<path d="M232.117 31.483L229.147 37.2711C228.863 37.1375 228.57 37.0253 228.268 36.9353C227.35 36.6604 226.381 36.5893 225.432 36.7269C224.482 36.8645 223.575 37.2075 222.77 37.7322C223.021 36.0787 223.25 34.5959 223.25 34.5959C223.25 34.5959 223.598 32.9148 221.737 33.2051C220.673 33.3141 218.388 33.6498 216.635 33.9169C218.623 31.9123 221.197 30.5961 223.982 30.1595C226.767 29.7228 229.62 30.1884 232.122 31.4887L232.117 31.483Z" fill="#FFCC04"/>
<path d="M237.796 49.4007C237.391 50.1848 236.911 50.9269 236.36 51.6159C236.005 52.0555 235.623 52.4728 235.216 52.865C233.228 54.7884 230.691 56.0408 227.96 56.4473C225.228 56.8538 222.438 56.3942 219.98 55.1327L223.092 49.0668C223.87 49.5109 224.728 49.7924 225.617 49.8944C226.505 49.9964 227.405 49.9167 228.262 49.6602C228.647 49.5439 229.022 49.3938 229.382 49.2117C230.042 48.8712 230.642 48.4219 231.155 47.8825C231.396 47.6274 231.617 47.354 231.817 47.065C231.943 46.8804 232.061 46.6914 232.167 46.498L237.796 49.4007Z" fill="url(#paint0_linear_298_12755)"/>
<path d="M239.273 43.2976C239.276 45.4217 238.77 47.5152 237.796 49.4012L232.171 46.4944C232.607 45.6961 232.876 44.8162 232.958 43.9096C233.042 43.0029 232.938 42.0887 232.656 41.2238C232.372 40.3589 231.915 39.5617 231.311 38.8818C230.707 38.2019 229.971 37.6537 229.147 37.2715L232.118 31.4834C232.461 31.6617 232.796 31.8557 233.118 32.0604C235.006 33.2597 236.561 34.9192 237.637 36.8842C238.713 38.8491 239.276 41.0555 239.273 43.2976Z" fill="url(#paint1_linear_298_12755)"/>
<path d="M223.098 49.0663L219.986 55.1328C217.81 54.0133 215.982 52.3133 214.705 50.2195C213.6 48.4078 212.947 46.3549 212.803 44.2356C212.78 43.9263 212.768 43.6056 212.768 43.2995C212.766 41.3966 213.172 39.5154 213.962 37.7849C214.047 37.5959 214.137 37.4069 214.231 37.218C214.325 37.029 214.44 36.84 214.54 36.6555C214.611 36.5295 214.686 36.4035 214.761 36.2832L215.111 36.6555L217.245 38.7763L219.996 41.5063C219.895 41.868 219.825 42.2376 219.787 42.6111C219.766 42.8341 219.752 43.0609 219.752 43.2889C219.752 44.462 220.062 45.6143 220.651 46.628C221.238 47.6418 222.085 48.4808 223.102 49.0593L223.098 49.0663Z" fill="url(#paint2_linear_298_12755)"/>
<path d="M223.248 34.5986C223.248 34.5986 223.017 36.0814 222.77 37.7349C222.526 39.3329 222.262 41.0953 222.163 41.8241C221.955 43.3132 221.09 42.6014 221.09 42.6014L219.998 41.5174L215.111 36.6672L214.761 36.2943L213.777 35.2399C213.37 34.5136 214.261 34.278 214.261 34.278C214.261 34.278 215.307 34.1143 216.632 33.9108C218.397 33.6437 220.672 33.308 221.735 33.199C223.597 32.9212 223.248 34.5986 223.248 34.5986Z" fill="#1E9A48"/>
<path d="M65.175 46.8677C65.1272 47.9263 65.1036 48.9176 65.104 49.8415C65.1044 50.7653 65.1281 51.7557 65.175 52.8127C65.2452 54.77 65.8386 56.3556 66.9551 57.5696C68.0716 58.7836 69.6754 59.3908 71.7664 59.3912C72.8963 59.3912 73.8479 59.2497 74.6212 58.9667C75.3946 58.6837 76.0348 58.3181 76.5419 57.8701C77.0319 57.4429 77.4281 56.9183 77.7051 56.3293C77.9696 55.7682 78.1763 55.1815 78.3222 54.5782C78.3381 54.462 78.3777 54.3502 78.4383 54.25C78.4989 54.1496 78.5796 54.0628 78.6749 53.995C78.8387 53.8731 79.0361 53.8051 79.2398 53.8003H80.8612C81.0663 53.802 81.2627 53.8845 81.4078 54.03C81.5529 54.1755 81.6352 54.3723 81.6371 54.5782C81.6132 55.3568 81.4133 56.2057 81.0376 57.125C80.6618 58.0441 80.0802 58.9108 79.2926 59.7251C78.5054 60.5381 77.4951 61.2158 76.2614 61.7583C75.0278 62.3009 73.5294 62.5722 71.7664 62.5722C70.2386 62.5722 68.8757 62.3306 67.6776 61.8472C66.5265 61.3948 65.4776 60.7152 64.5931 59.8486C63.7284 58.9896 63.0505 57.9601 62.602 56.8251C62.1333 55.6572 61.8747 54.3777 61.8262 52.9865C61.7559 50.8898 61.7559 48.7917 61.8262 46.692C61.8609 45.3826 62.1234 44.0892 62.602 42.8705C63.0471 41.7276 63.7253 40.6907 64.5931 39.8262C65.4778 38.9598 66.5266 38.2801 67.6776 37.8276C68.8761 37.3451 70.239 37.1034 71.7664 37.1025C73.5286 37.1025 75.0266 37.3738 76.2602 37.9164C77.4938 38.4589 78.5042 39.1375 79.2913 39.9522C80.0784 40.7656 80.6601 41.6321 81.0363 42.5517C81.4126 43.4713 81.6123 44.3202 81.6358 45.0983C81.6339 45.3042 81.5517 45.5012 81.4066 45.6467C81.2614 45.7922 81.0651 45.8747 80.8599 45.8763H79.2386C79.0347 45.8718 78.8373 45.8038 78.6737 45.6817C78.5782 45.614 78.4976 45.5272 78.4368 45.4268C78.3762 45.3265 78.3367 45.2147 78.3209 45.0983C78.1749 44.4952 77.9682 43.9085 77.7038 43.3473C77.4259 42.7596 77.0299 42.2359 76.5407 41.8091C76.0352 41.361 75.3949 40.9955 74.6199 40.7125C73.845 40.4294 72.8934 40.2879 71.7652 40.2879C69.6729 40.2879 68.0691 40.8951 66.9538 42.1096C65.8386 43.324 65.2457 44.9101 65.175 46.8677Z" fill="#141D3E"/>
<path d="M101.268 61.2631C101.266 61.5159 101.164 61.7576 100.986 61.9362C100.807 62.1147 100.566 62.2159 100.314 62.2181H99.0124C98.7608 62.2153 98.5204 62.1138 98.3426 61.9353C98.1647 61.7568 98.0636 61.5156 98.0608 61.2631V51.9256C98.0608 50.1098 97.6259 48.7539 96.7564 47.8578C95.8868 46.9617 94.6767 46.5136 93.1258 46.5136C91.6457 46.5136 90.4531 46.9617 89.5479 47.8578C88.6428 48.7539 88.1904 50.1098 88.1908 51.9256V61.2631C88.1881 61.5156 88.0869 61.7568 87.9091 61.9353C87.7312 62.1138 87.4907 62.2153 87.2392 62.2181H85.9354C85.6839 62.2153 85.4436 62.1138 85.2657 61.9353C85.0878 61.7568 84.9867 61.5156 84.9839 61.2631V38.0623C84.9869 37.81 85.0882 37.569 85.2661 37.3905C85.4438 37.2121 85.6841 37.1105 85.9354 37.1074H87.2398C87.4913 37.1105 87.7316 37.2121 87.9093 37.3905C88.0871 37.569 88.1883 37.81 88.1914 38.0623V45.8793C88.6379 45.2872 89.3018 44.7392 90.1832 44.2353C91.0644 43.7313 92.2217 43.4779 93.6549 43.4749C94.7021 43.4647 95.7421 43.6506 96.7213 44.0229C97.6261 44.3661 98.4488 44.8964 99.1361 45.5794C99.8056 46.2513 100.329 47.0826 100.705 48.0732C101.082 49.0638 101.27 50.1719 101.27 51.3978L101.268 61.2631Z" fill="#141D3E"/>
<path d="M104.194 57.5849C104.194 56.6417 104.382 55.8165 104.758 55.1094C105.135 54.4001 105.665 53.7841 106.309 53.306C107.012 52.7871 107.79 52.3812 108.618 52.1029C109.53 51.7889 110.468 51.5522 111.42 51.3956L116.39 50.5824V50.1225C116.39 48.9202 115.996 48.0175 115.208 47.414C114.421 46.8106 113.44 46.5105 112.266 46.5139C111.231 46.5139 110.45 46.7029 109.921 47.0807C109.399 47.4516 108.941 47.9055 108.564 48.4244C108.449 48.5926 108.29 48.727 108.106 48.8136C107.892 48.8929 107.665 48.929 107.437 48.9201H106.379C106.251 48.9207 106.124 48.896 106.006 48.8474C105.887 48.7987 105.78 48.7271 105.689 48.6366C105.594 48.5541 105.521 48.45 105.475 48.333C105.429 48.216 105.411 48.0896 105.424 47.9645C105.471 47.446 105.676 46.9154 106.041 46.3729C106.438 45.7994 106.94 45.3076 107.522 44.9241C108.187 44.4786 108.91 44.1276 109.672 43.881C110.508 43.6059 111.383 43.4685 112.263 43.474C113.262 43.4651 114.256 43.6205 115.205 43.9339C116.066 44.2147 116.858 44.6726 117.532 45.2781C118.192 45.8881 118.709 46.6367 119.047 47.4707C119.412 48.3437 119.594 49.3459 119.594 50.4771V61.2635C119.591 61.5156 119.49 61.7566 119.312 61.935C119.135 62.1134 118.895 62.2151 118.643 62.2184H117.341C117.09 62.2156 116.849 62.1141 116.672 61.9356C116.494 61.7571 116.393 61.5159 116.39 61.2635V59.8147C116.161 60.2839 115.822 60.6905 115.402 60.9995C114.933 61.3545 114.418 61.6455 113.873 61.865C113.293 62.1017 112.69 62.2795 112.075 62.3954C111.5 62.5085 110.916 62.5677 110.33 62.5724C109.474 62.5819 108.623 62.4504 107.81 62.1831C107.046 61.924 106.4 61.5762 105.871 61.14C105.349 60.7127 104.928 60.175 104.637 59.5652C104.341 58.9475 104.19 58.2702 104.194 57.5849ZM110.68 59.5306C111.472 59.5396 112.259 59.4079 113.006 59.1414C113.675 58.9032 114.292 58.5367 114.821 58.0624C115.324 57.6057 115.721 57.0444 115.984 56.4176C116.261 55.7452 116.399 55.0232 116.39 54.2956V53.4137L112.23 54.0859C110.75 54.3222 109.575 54.7001 108.705 55.2196C107.836 55.7391 107.401 56.411 107.401 57.2352C107.403 57.5044 107.463 57.7697 107.577 58.0132C107.713 58.2972 107.905 58.5501 108.142 58.7559C108.435 59.0117 108.777 59.2047 109.147 59.3227C109.558 59.4609 110.069 59.5302 110.68 59.5306Z" fill="#141D3E"/>
<path d="M140.146 61.2631C140.143 61.5154 140.042 61.7565 139.864 61.9349C139.687 62.1133 139.446 62.2149 139.195 62.218H137.891C137.639 62.2153 137.399 62.1138 137.221 61.9353C137.043 61.7568 136.942 61.5155 136.939 61.2631V51.9256C136.939 50.1098 136.504 48.7539 135.635 47.8578C134.765 46.9616 133.555 46.5135 132.004 46.5135C130.524 46.5135 129.331 46.9616 128.426 47.8578C127.521 48.7539 127.069 50.1098 127.069 51.9256V61.2631C127.066 61.5155 126.965 61.7566 126.787 61.9351C126.609 62.1135 126.368 62.215 126.117 62.218H124.814C124.562 62.2153 124.322 62.1138 124.144 61.9353C123.966 61.7568 123.865 61.5155 123.862 61.2631V44.7808C123.865 44.5283 123.966 44.287 124.144 44.1085C124.322 43.93 124.562 43.8283 124.814 43.8251H126.117C126.369 43.8284 126.609 43.9301 126.787 44.1086C126.965 44.2871 127.066 44.5283 127.07 44.7808V45.8768C127.515 45.2863 128.18 44.7391 129.063 44.2353C129.947 43.7313 131.104 43.4779 132.535 43.475C133.582 43.4646 134.622 43.6505 135.602 44.023C136.507 44.366 137.329 44.8964 138.016 45.5794C138.686 46.2513 139.209 47.0825 139.585 48.0731C139.962 49.0638 140.15 50.172 140.15 51.3978L140.146 61.2631Z" fill="#141D3E"/>
<path d="M143.494 51.8575C143.565 50.5612 143.811 49.394 144.234 48.3559C144.658 47.3179 145.222 46.4397 145.929 45.7212C146.635 45.0014 147.48 44.4353 148.414 44.0582C149.394 43.664 150.442 43.4659 151.498 43.4749C152.955 43.4749 154.118 43.7284 154.988 44.2352C155.857 44.742 156.515 45.2903 156.962 45.8799V44.7839C156.965 44.5314 157.066 44.2902 157.244 44.1117C157.421 43.9332 157.662 43.8314 157.913 43.8283H159.217C159.469 43.8315 159.709 43.9333 159.887 44.1118C160.065 44.2903 160.166 44.5314 160.169 44.7839V61.9735C160.169 64.426 159.476 66.3774 158.09 67.8278C156.703 69.2783 154.623 70.0018 151.848 69.9984C150.439 69.9984 149.234 69.8285 148.236 69.4888C147.238 69.1492 146.415 68.7212 145.769 68.2052C145.122 67.6894 144.641 67.1268 144.325 66.517C144.009 65.9073 143.839 65.3217 143.814 64.7603C143.801 64.6358 143.819 64.51 143.865 64.3937C143.911 64.2774 143.984 64.1739 144.078 64.0919C144.261 63.9109 144.508 63.8097 144.765 63.8104H145.823C146.055 63.8025 146.284 63.87 146.475 64.0032C146.651 64.129 146.822 64.3798 146.986 64.7552C147.056 64.895 147.168 65.0875 147.321 65.3328C147.474 65.578 147.721 65.8229 148.061 66.0673C148.401 66.3117 148.848 66.5217 149.4 66.6972C149.953 66.8727 150.652 66.96 151.498 66.9592C152.226 66.964 152.953 66.8869 153.665 66.7293C154.291 66.5948 154.885 66.3364 155.41 65.969C155.91 65.607 156.305 65.1187 156.556 64.5537C156.826 63.9637 156.961 63.2443 156.962 62.3957V60.167C156.491 60.8037 155.821 61.3639 154.953 61.8477C154.085 62.3314 152.934 62.573 151.501 62.5727C150.444 62.5818 149.397 62.3834 148.416 61.9887C147.483 61.6124 146.637 61.0464 145.932 60.3264C145.226 59.6079 144.661 58.7297 144.237 57.6915C143.813 56.6535 143.565 55.4857 143.494 54.1882C143.471 53.8342 143.459 53.4449 143.459 53.0203C143.46 52.5958 143.471 52.2082 143.494 51.8575ZM156.959 51.7517C156.888 50.0774 156.389 48.7864 155.461 47.8785C154.533 46.9707 153.329 46.5158 151.848 46.5142C150.3 46.5142 149.078 47.0094 148.183 48C147.287 48.9907 146.794 50.3344 146.703 52.0314C146.679 52.6924 146.679 53.3527 146.703 54.0124C146.796 55.7098 147.289 57.0535 148.183 58.0437C149.076 59.0339 150.298 59.5292 151.848 59.5297C153.329 59.5297 154.533 59.0698 155.461 58.1502C156.39 57.2305 156.889 55.9453 156.96 54.2945C156.983 53.9405 156.995 53.516 156.995 53.0209C156.995 52.5259 156.983 52.1019 156.959 51.7492V51.7517Z" fill="#141D3E"/>
<path d="M163.727 51.2544C163.811 50.2038 164.074 49.1752 164.502 48.2127C164.907 47.2968 165.468 46.4588 166.16 45.7365C166.855 45.0205 167.688 44.4547 168.608 44.0737C169.56 43.673 170.623 43.4727 171.798 43.4727C173.067 43.4727 174.201 43.679 175.2 44.0919C176.174 44.4874 177.047 45.0978 177.755 45.8777C178.46 46.6562 179.001 47.5995 179.377 48.7078C179.752 49.8159 179.941 51.0547 179.941 52.424V53.379C179.938 53.6314 179.837 53.8725 179.659 54.051C179.481 54.2294 179.241 54.331 178.989 54.3339H166.863V54.5462C166.911 56.1499 167.398 57.3819 168.326 58.2424C169.255 59.1028 170.412 59.5333 171.798 59.5337C173.09 59.5337 174.059 59.3508 174.706 58.985C175.353 58.6193 175.876 58.2125 176.276 57.7649C176.419 57.6107 176.586 57.4794 176.769 57.3757C176.91 57.3052 177.121 57.2699 177.403 57.2699H178.463C178.725 57.2713 178.977 57.3724 179.168 57.5527C179.379 57.7417 179.462 57.9657 179.415 58.2248C179.345 58.6493 179.145 59.115 178.816 59.6219C178.487 60.1287 178.011 60.6003 177.388 61.0367C176.765 61.4733 175.99 61.8389 175.062 62.1333C174.134 62.4277 173.047 62.5745 171.801 62.5742C170.626 62.5742 169.569 62.3678 168.629 61.955C167.709 61.5565 166.877 60.9797 166.181 60.2574C165.474 59.5172 164.907 58.6543 164.507 57.7108C164.074 56.6939 163.812 55.6123 163.732 54.5097C163.612 53.428 163.61 52.3364 163.727 51.2544ZM166.865 51.3602H176.768V51.2544C176.768 49.8162 176.316 48.6665 175.411 47.8058C174.507 46.9449 173.302 46.5144 171.798 46.5144C171.149 46.5087 170.504 46.6227 169.895 46.8508C169.322 47.0662 168.795 47.3904 168.344 47.8058C167.891 48.2274 167.531 48.7393 167.286 49.3087C167.022 49.9239 166.878 50.5845 166.863 51.2544L166.865 51.3602Z" fill="#141D3E"/>
<path d="M192.63 43.8252C192.881 43.8287 193.121 43.9304 193.298 44.1089C193.476 44.2874 193.577 44.5284 193.581 44.7808V45.9146C193.577 46.1668 193.476 46.4077 193.298 46.5861C193.121 46.7644 192.881 46.8661 192.63 46.8696H190.585C187.882 46.8696 186.531 48.2252 186.531 50.9367V61.2669C186.529 61.5193 186.427 61.7606 186.249 61.9391C186.072 62.1176 185.831 62.2191 185.58 62.2218H184.275C184.024 62.2191 183.783 62.1176 183.606 61.9391C183.428 61.7606 183.327 61.5193 183.324 61.2669V44.7808C183.327 44.5284 183.428 44.2872 183.606 44.1086C183.783 43.9301 184.024 43.8283 184.275 43.8252H185.58C185.831 43.8283 186.072 43.9301 186.249 44.1086C186.427 44.2872 186.528 44.5284 186.531 44.7808V45.8768C187.001 45.1697 187.566 44.6511 188.226 44.3209C188.886 43.9909 189.745 43.8257 190.8 43.8252H192.63Z" fill="#141D3E"/>
<path d="M194.18 57.5854C194.18 56.6423 194.368 55.8171 194.745 55.1099C195.122 54.401 195.651 53.785 196.295 53.3065C196.997 52.7878 197.776 52.3819 198.603 52.1035C199.516 51.7894 200.453 51.5528 201.406 51.3961L206.376 50.5829V50.1231C206.376 48.9209 205.982 48.018 205.195 47.4145C204.408 46.8111 203.427 46.5111 202.253 46.5144C201.218 46.5144 200.437 46.7034 199.91 47.0814C199.386 47.4516 198.927 47.9053 198.55 48.4243C198.433 48.5924 198.276 48.7268 198.091 48.8135C197.877 48.8928 197.65 48.9289 197.422 48.92H196.365C196.108 48.9206 195.861 48.8186 195.678 48.6365C195.583 48.554 195.511 48.4499 195.465 48.3329C195.418 48.2159 195.401 48.0896 195.413 47.9644C195.461 47.4459 195.666 46.9153 196.031 46.3728C196.427 45.7993 196.93 45.3075 197.511 44.924C198.176 44.4785 198.9 44.1275 199.661 43.8809C200.497 43.6058 201.372 43.4684 202.252 43.474C203.251 43.465 204.246 43.6204 205.195 43.9338C206.055 44.2148 206.847 44.6725 207.521 45.278C208.181 45.888 208.698 46.6366 209.037 47.4706C209.401 48.3436 209.583 49.3458 209.583 50.4771V61.2639C209.581 61.5164 209.48 61.7576 209.301 61.9361C209.123 62.1146 208.883 62.2161 208.632 62.2189H207.327C207.076 62.2161 206.836 62.1146 206.657 61.9361C206.48 61.7576 206.378 61.5164 206.376 61.2639V59.8153C206.147 60.2836 205.81 60.6898 205.391 60.9988C204.921 61.3545 204.405 61.6459 203.858 61.8655C203.278 62.1024 202.676 62.28 202.061 62.3959C201.486 62.509 200.902 62.5683 200.316 62.5729C199.46 62.5824 198.608 62.4509 197.796 62.1836C197.032 61.9245 196.386 61.5768 195.857 61.1405C195.335 60.713 194.913 60.1754 194.623 59.5658C194.327 58.9481 194.176 58.2708 194.18 57.5854ZM200.666 59.5311C201.457 59.5403 202.246 59.4085 202.992 59.1419C203.661 58.9041 204.277 58.5376 204.807 58.0629C205.31 57.6066 205.707 57.0453 205.97 56.4183C206.247 55.7458 206.385 55.0238 206.376 54.2961V53.4143L202.217 54.0864C200.736 54.3228 199.562 54.7008 198.692 55.2201C197.822 55.7396 197.387 56.4115 197.387 57.2358C197.39 57.5049 197.45 57.7703 197.565 58.0138C197.7 58.2976 197.892 58.5505 198.128 58.7564C198.422 59.0123 198.763 59.2051 199.133 59.3233C199.543 59.4614 200.055 59.5308 200.666 59.5311Z" fill="#141D3E"/>
</g>
<defs>
<linearGradient id="paint0_linear_298_12755" x1="224.921" y1="57.1218" x2="232.186" y2="46.9673" gradientUnits="userSpaceOnUse">
<stop stop-color="#4270B7"/>
<stop offset="0.46" stop-color="#4270B7"/>
<stop offset="0.56" stop-color="#446FB5"/>
<stop offset="0.63" stop-color="#4C6EAE"/>
<stop offset="0.69" stop-color="#5D69A1"/>
<stop offset="0.74" stop-color="#71638F"/>
<stop offset="0.8" stop-color="#8F5C78"/>
<stop offset="0.83" stop-color="#A65564"/>
<stop offset="0.93" stop-color="#C8343E"/>
<stop offset="0.99" stop-color="#DB2428"/>
</linearGradient>
<linearGradient id="paint1_linear_298_12755" x1="242.955" y1="47.7616" x2="229.622" y2="36.7785" gradientUnits="userSpaceOnUse">
<stop offset="0.65" stop-color="#DB2428"/>
<stop offset="0.68" stop-color="#DC2828"/>
<stop offset="0.72" stop-color="#DD3626"/>
<stop offset="0.76" stop-color="#E04927"/>
<stop offset="0.8" stop-color="#E46325"/>
<stop offset="0.84" stop-color="#E98624"/>
<stop offset="0.86" stop-color="#EE9421"/>
<stop offset="0.92" stop-color="#F5B11A"/>
<stop offset="0.97" stop-color="#FCC513"/>
<stop offset="1" stop-color="#FFCC04"/>
</linearGradient>
<linearGradient id="paint2_linear_298_12755" x1="209.726" y1="40.0285" x2="222.381" y2="49.57" gradientUnits="userSpaceOnUse">
<stop stop-color="#1E9A48"/>
<stop offset="0.57" stop-color="#1E9A48"/>
<stop offset="0.9" stop-color="#4270B7"/>
</linearGradient>
<clipPath id="clip0_298_12755">
<rect width="177.5" height="40" fill="white" transform="translate(61.7734 30)"/>
</clipPath>
</defs>
</svg>
