<svg width="300" height="100" viewBox="0 0 300 100" fill="none" xmlns="http://www.w3.org/2000/svg">
<rect width="300" height="100" fill="white"/>
<g clip-path="url(#clip0_298_12709)">
<path d="M113 30C101.955 30 93 38.9546 93 50.0005C93 61.0464 101.955 70.001 113 70.001C124.046 70.001 133.001 61.0464 133.001 50.0005C133 38.9546 124.045 30 113 30ZM118.537 58.5993C116.738 58.5993 115.067 58.0462 113.687 57.1012C114.408 56.4689 115.032 55.7282 115.535 54.9053C116.408 55.4409 117.437 55.7507 118.538 55.7507C121.714 55.7507 124.289 53.1756 124.289 49.9995C124.289 46.8234 121.714 44.2484 118.538 44.2484C117.021 44.2484 115.642 44.8357 114.614 45.7954V47.0638C114.623 47.0521 114.631 47.0404 114.639 47.0296V54.7402C114.631 54.7529 114.622 54.7646 114.614 54.7773V54.8096H114.592C113.047 57.0954 110.432 58.5993 107.464 58.5993C102.715 58.5993 98.8655 54.749 98.8655 50.0005C98.8655 45.252 102.716 41.4016 107.464 41.4016C109.263 41.4016 110.934 41.9548 112.314 42.8998C111.593 43.532 110.969 44.2728 110.467 45.0947C109.594 44.5591 108.565 44.2493 107.464 44.2493C104.288 44.2493 101.713 46.8244 101.713 50.0005C101.713 53.1766 104.288 55.7516 107.464 55.7516C109.176 55.7516 110.713 55.004 111.766 53.8167V52.3518V44.7194V44.6999C113.341 42.6916 115.789 41.4016 118.538 41.4016C123.287 41.4016 127.137 45.252 127.137 50.0005C127.137 54.749 123.286 58.5993 118.537 58.5993Z" fill="black"/>
<path d="M139.082 50.2268C139.509 50.69 140.026 51.0379 140.634 51.2715C141.242 51.5051 141.924 51.6213 142.681 51.6213C143.067 51.6213 143.426 51.5901 143.759 51.5275C144.091 51.465 144.387 51.3868 144.646 51.293C144.904 51.1992 145.123 51.1014 145.302 50.9988C145.481 50.8962 145.602 50.8122 145.664 50.7477C145.727 50.6822 145.772 50.6236 145.801 50.5728C145.829 50.5219 145.852 50.4604 145.87 50.389C145.887 50.3187 145.9 50.2327 145.908 50.133C145.916 50.0333 145.92 49.9131 145.92 49.7704C145.92 49.5662 145.914 49.402 145.903 49.2798C145.891 49.1577 145.874 49.0629 145.852 48.9945C145.829 48.9261 145.801 48.8811 145.767 48.8577C145.733 48.8352 145.688 48.8235 145.631 48.8235C145.557 48.8235 145.453 48.8694 145.32 48.9603C145.186 49.0512 145.016 49.1538 144.809 49.2671C144.602 49.3805 144.353 49.4841 144.063 49.5789C143.772 49.6727 143.429 49.7196 143.032 49.7196C142.594 49.7196 142.2 49.6444 141.85 49.4939C141.501 49.3434 141.202 49.1147 140.955 48.8078C140.708 48.501 140.517 48.1101 140.383 47.6351C140.249 47.1602 140.183 46.5992 140.183 45.9513C140.183 45.3601 140.245 44.8285 140.371 44.3574C140.496 43.8854 140.678 43.4837 140.921 43.1515C141.162 42.8192 141.455 42.5632 141.799 42.3843C142.143 42.2055 142.533 42.1156 142.971 42.1156C143.369 42.1156 143.712 42.1654 143.998 42.2641C144.285 42.3638 144.533 42.4742 144.74 42.5964C144.947 42.7186 145.116 42.83 145.247 42.9287C145.378 43.0283 145.485 43.0782 145.571 43.0782C145.622 43.0782 145.668 43.0606 145.707 43.0274C145.747 42.9932 145.782 42.9394 145.81 42.8651C145.838 42.7909 145.858 42.6951 145.87 42.5749C145.88 42.4557 145.887 42.311 145.887 42.14C145.887 41.9807 145.883 41.8468 145.874 41.7393C145.866 41.6319 145.853 41.538 145.836 41.4579C145.819 41.3787 145.796 41.3133 145.768 41.2624C145.74 41.2116 145.687 41.1471 145.611 41.0709C145.534 40.9937 145.398 40.9018 145.206 40.7934C145.012 40.6859 144.796 40.5901 144.553 40.508C144.312 40.4259 144.049 40.3595 143.765 40.3077C143.48 40.2569 143.185 40.2305 142.878 40.2305C142.122 40.2305 141.43 40.3585 140.802 40.6145C140.174 40.8706 139.636 41.2458 139.187 41.7403C138.738 42.2348 138.389 42.8456 138.138 43.5737C137.888 44.3017 137.763 45.1334 137.763 46.0715C137.763 46.9921 137.877 47.7993 138.104 48.4932C138.33 49.186 138.656 49.7646 139.082 50.2268Z" fill="black"/>
<path d="M147.77 51.4004C147.855 51.4287 147.971 51.4512 148.116 51.4688C148.261 51.4854 148.441 51.4942 148.658 51.4942C148.879 51.4942 149.061 51.4854 149.203 51.4688C149.345 51.4522 149.459 51.4287 149.544 51.4004C149.629 51.3721 149.69 51.3349 149.723 51.29C149.757 51.244 149.774 51.1932 149.774 51.1365V46.6773H153.901V51.1365C153.901 51.1932 153.919 51.245 153.955 51.29C153.992 51.3359 154.052 51.3721 154.135 51.4004C154.217 51.4287 154.33 51.4512 154.476 51.4688C154.621 51.4854 154.804 51.4942 155.026 51.4942C155.242 51.4942 155.421 51.4854 155.564 51.4688C155.706 51.4522 155.82 51.4287 155.905 51.4004C155.99 51.3721 156.05 51.3349 156.088 51.29C156.125 51.244 156.143 51.1932 156.143 51.1365V40.718C156.143 40.6613 156.125 40.6105 156.088 40.5646C156.05 40.5187 155.99 40.4825 155.905 40.4532C155.82 40.4249 155.705 40.4024 155.564 40.3848C155.422 40.3672 155.243 40.3594 155.026 40.3594C154.804 40.3594 154.622 40.3682 154.476 40.3848C154.331 40.4014 154.217 40.4249 154.135 40.4532C154.052 40.4815 153.992 40.5187 153.955 40.5646C153.918 40.6105 153.901 40.6613 153.901 40.718V44.7678H149.774V40.718C149.774 40.6613 149.756 40.6105 149.723 40.5646C149.689 40.5187 149.629 40.4825 149.544 40.4532C149.459 40.4249 149.345 40.4024 149.203 40.3848C149.06 40.3672 148.878 40.3594 148.658 40.3594C148.441 40.3594 148.261 40.3682 148.116 40.3848C147.971 40.4014 147.856 40.4249 147.77 40.4532C147.685 40.4815 147.624 40.5187 147.587 40.5646C147.55 40.6105 147.532 40.6613 147.532 40.718V51.1365C147.532 51.1932 147.55 51.245 147.587 51.29C147.625 51.3349 147.685 51.3721 147.77 51.4004Z" fill="black"/>
<path d="M159.212 51.4424H164.754C164.805 51.4424 164.852 51.4267 164.895 51.3955C164.938 51.3642 164.973 51.3144 165.001 51.2469C165.029 51.1785 165.051 51.0896 165.066 50.9782C165.079 50.8678 165.087 50.73 165.087 50.5648C165.087 50.3997 165.08 50.2619 165.066 50.1514C165.051 50.04 165.03 49.9511 165.001 49.8827C164.973 49.8143 164.938 49.7644 164.895 49.7332C164.852 49.7019 164.805 49.6863 164.754 49.6863H160.78V46.5747H164.114C164.165 46.5747 164.213 46.561 164.255 46.5317C164.298 46.5033 164.333 46.4564 164.361 46.391C164.389 46.3255 164.411 46.2385 164.426 46.131C164.439 46.0235 164.447 45.8867 164.447 45.7215C164.447 45.5622 164.44 45.4274 164.426 45.316C164.412 45.2055 164.39 45.1176 164.361 45.0521C164.333 44.9866 164.298 44.9388 164.255 44.9065C164.213 44.8752 164.166 44.8596 164.114 44.8596H160.78V42.1673H164.72C164.771 42.1673 164.816 42.1516 164.857 42.1204C164.897 42.0891 164.931 42.0392 164.958 41.9708C164.986 41.9024 165.008 41.8135 165.023 41.7021C165.036 41.5907 165.044 41.4558 165.044 41.2975C165.044 41.1265 165.037 40.9858 165.023 40.8753C165.008 40.7649 164.987 40.674 164.958 40.6027C164.93 40.5313 164.896 40.4815 164.857 40.4532C164.816 40.4248 164.772 40.4102 164.72 40.4102H159.212C159.024 40.4102 158.867 40.4659 158.739 40.5763C158.611 40.6867 158.546 40.8675 158.546 41.1177V50.7348C158.546 50.985 158.611 51.1648 158.739 51.2762C158.866 51.3877 159.024 51.4424 159.212 51.4424Z" fill="black"/>
<path d="M167.601 50.2268C168.027 50.69 168.544 51.0379 169.153 51.2715C169.76 51.5051 170.443 51.6213 171.199 51.6213C171.585 51.6213 171.945 51.5901 172.278 51.5275C172.61 51.465 172.906 51.3868 173.164 51.293C173.423 51.1992 173.641 51.1014 173.82 50.9988C174 50.8962 174.12 50.8122 174.182 50.7477C174.245 50.6822 174.29 50.6236 174.319 50.5728C174.348 50.5219 174.37 50.4604 174.388 50.389C174.405 50.3187 174.418 50.2327 174.426 50.133C174.435 50.0333 174.439 49.9131 174.439 49.7704C174.439 49.5662 174.433 49.402 174.422 49.2798C174.411 49.1577 174.394 49.0629 174.371 48.9945C174.349 48.9261 174.32 48.8811 174.285 48.8577C174.251 48.8352 174.206 48.8235 174.149 48.8235C174.075 48.8235 173.971 48.8694 173.838 48.9603C173.705 49.0512 173.535 49.1538 173.327 49.2671C173.12 49.3805 172.871 49.4841 172.581 49.5789C172.291 49.6727 171.947 49.7196 171.55 49.7196C171.112 49.7196 170.718 49.6444 170.369 49.4939C170.019 49.3434 169.721 49.1147 169.474 48.8078C169.227 48.501 169.036 48.1101 168.903 47.6351C168.769 47.1602 168.703 46.5992 168.703 45.9513C168.703 45.3601 168.766 44.8285 168.891 44.3574C169.016 43.8854 169.198 43.4837 169.441 43.1515C169.682 42.8192 169.975 42.5632 170.319 42.3843C170.663 42.2055 171.053 42.1156 171.491 42.1156C171.889 42.1156 172.232 42.1654 172.518 42.2641C172.805 42.3638 173.052 42.4742 173.26 42.5964C173.467 42.7186 173.636 42.83 173.767 42.9287C173.898 43.0283 174.006 43.0782 174.091 43.0782C174.141 43.0782 174.187 43.0606 174.227 43.0274C174.267 42.9932 174.302 42.9394 174.33 42.8651C174.358 42.7909 174.378 42.6951 174.39 42.5749C174.4 42.4557 174.407 42.311 174.407 42.14C174.407 41.9807 174.403 41.8468 174.395 41.7393C174.386 41.6319 174.373 41.538 174.356 41.4579C174.339 41.3787 174.316 41.3133 174.288 41.2624C174.26 41.2116 174.207 41.1471 174.131 41.0709C174.054 40.9937 173.919 40.9018 173.726 40.7934C173.533 40.6859 173.316 40.5901 173.074 40.508C172.833 40.4259 172.57 40.3595 172.286 40.3077C172.001 40.2569 171.706 40.2305 171.399 40.2305C170.643 40.2305 169.951 40.3585 169.324 40.6145C168.695 40.8706 168.157 41.2458 167.708 41.7403C167.259 42.2348 166.91 42.8456 166.66 43.5737C166.409 44.3017 166.284 45.1334 166.284 46.0715C166.284 46.9921 166.398 47.7993 166.625 48.4932C166.847 49.186 167.175 49.7646 167.601 50.2268Z" fill="black"/>
<path d="M176.289 51.3955C176.374 51.4268 176.489 51.4512 176.633 51.4678C176.778 51.4844 176.959 51.4932 177.175 51.4932C177.397 51.4932 177.578 51.4844 177.72 51.4678C177.863 51.4512 177.976 51.4268 178.061 51.3955C178.146 51.3642 178.207 51.3261 178.241 51.2802C178.275 51.2352 178.292 51.1805 178.292 51.118V45.8838L181.625 51.118C181.665 51.1981 181.72 51.2655 181.791 51.3232C181.862 51.3799 181.979 51.4229 182.141 51.4512C182.303 51.4796 182.569 51.4942 182.939 51.4942C183.172 51.4942 183.365 51.4854 183.518 51.4688C183.672 51.4522 183.793 51.4278 183.881 51.3965C183.969 51.3652 184.028 51.3261 184.06 51.2773C184.091 51.2294 184.107 51.1737 184.107 51.1111C184.107 51.0652 184.094 51.0046 184.068 50.9284C184.043 50.8512 183.968 50.6968 183.843 50.4632L180.543 45.4763L183.57 41.5116C183.713 41.2897 183.808 41.1275 183.86 41.0259C183.911 40.9233 183.937 40.8245 183.937 40.7278C183.937 40.6711 183.92 40.6203 183.887 40.5744C183.852 40.5294 183.792 40.4903 183.704 40.4591C183.616 40.4278 183.498 40.4034 183.35 40.3867C183.203 40.3691 183.015 40.3613 182.787 40.3613C182.565 40.3613 182.384 40.3672 182.242 40.3779C182.099 40.3897 181.983 40.4092 181.892 40.4376C181.801 40.4659 181.727 40.505 181.67 40.5529C181.614 40.6008 181.566 40.6623 181.526 40.7356L178.295 45.4245V40.7268C178.295 40.6643 178.277 40.6105 178.244 40.5646C178.21 40.5187 178.15 40.4825 178.064 40.4532C177.979 40.4249 177.866 40.4024 177.723 40.3848C177.58 40.3672 177.399 40.3594 177.178 40.3594C176.962 40.3594 176.781 40.3682 176.636 40.3848C176.491 40.4014 176.376 40.4249 176.291 40.4532C176.206 40.4815 176.145 40.5187 176.109 40.5646C176.072 40.6105 176.053 40.6643 176.053 40.7268V51.1189C176.053 51.1815 176.072 51.2352 176.109 51.2812C176.142 51.3261 176.203 51.3652 176.289 51.3955Z" fill="black"/>
<path d="M190.21 51.4424H192.845C193.822 51.4424 194.665 51.3359 195.373 51.1228C196.081 50.9098 196.682 50.5756 197.176 50.1211C197.671 49.6667 198.05 49.0794 198.314 48.3601C198.579 47.6409 198.711 46.776 198.711 45.7645C198.711 44.8889 198.588 44.1188 198.344 43.4543C198.1 42.7888 197.743 42.2308 197.274 41.7793C196.805 41.3278 196.228 40.9867 195.543 40.7561C194.858 40.5264 194.025 40.4111 193.042 40.4111H190.21C190.023 40.4111 189.865 40.4668 189.737 40.5773C189.609 40.6877 189.546 40.8685 189.546 41.1187V50.7358C189.546 50.986 189.609 51.1658 189.737 51.2772C189.865 51.3877 190.023 51.4424 190.21 51.4424ZM191.779 42.1673H192.913C193.601 42.1673 194.156 42.2601 194.58 42.4448C195.003 42.6295 195.35 42.8865 195.621 43.2159C195.89 43.5452 196.087 43.9351 196.209 44.3837C196.331 44.8332 196.392 45.3189 196.392 45.8417C196.392 46.4779 196.322 47.0359 196.182 47.5128C196.043 47.9907 195.833 48.3894 195.551 48.711C195.27 49.0325 194.919 49.2729 194.499 49.4312C194.077 49.5905 193.56 49.6696 192.947 49.6696H191.779V42.1673Z" fill="black"/>
<path d="M208.166 49.2808C208.155 49.1587 208.137 49.0639 208.115 48.9955C208.092 48.9271 208.064 48.8821 208.03 48.8586C207.996 48.8362 207.95 48.8244 207.894 48.8244C207.82 48.8244 207.716 48.8704 207.583 48.9613C207.449 49.0521 207.279 49.1548 207.072 49.2681C206.865 49.3815 206.616 49.4851 206.325 49.5799C206.036 49.6737 205.692 49.7206 205.293 49.7206C204.856 49.7206 204.462 49.6453 204.113 49.4948C203.763 49.3443 203.465 49.1157 203.218 48.8088C202.97 48.502 202.78 48.111 202.647 47.6361C202.513 47.1612 202.447 46.6002 202.447 45.9523C202.447 45.3611 202.509 44.8294 202.634 44.3584C202.759 43.8864 202.942 43.4847 203.184 43.1525C203.426 42.8202 203.719 42.5642 204.063 42.3853C204.407 42.2065 204.797 42.1166 205.235 42.1166C205.633 42.1166 205.976 42.1664 206.262 42.2651C206.548 42.3648 206.795 42.4752 207.004 42.5974C207.211 42.7195 207.38 42.8309 207.511 42.9296C207.642 43.0293 207.749 43.0792 207.834 43.0792C207.885 43.0792 207.931 43.0616 207.971 43.0283C208.011 42.9941 208.045 42.9404 208.074 42.8661C208.102 42.7919 208.122 42.6961 208.133 42.5759C208.144 42.4567 208.15 42.312 208.15 42.141C208.15 41.9817 208.146 41.8478 208.137 41.7403C208.128 41.6328 208.116 41.539 208.099 41.4589C208.082 41.3797 208.059 41.3142 208.031 41.2634C208.002 41.2126 207.95 41.1481 207.873 41.0719C207.796 40.9947 207.661 40.9028 207.468 40.7943C207.274 40.6868 207.057 40.5911 206.816 40.509C206.575 40.4269 206.312 40.3604 206.027 40.3086C205.743 40.2578 205.448 40.2314 205.141 40.2314C204.385 40.2314 203.693 40.3595 203.065 40.6155C202.437 40.8715 201.898 41.2468 201.45 41.7413C201.001 42.2358 200.651 42.8466 200.401 43.5746C200.151 44.3027 200.026 45.1343 200.026 46.0725C200.026 46.9931 200.139 47.8003 200.367 48.4941C200.595 49.188 200.921 49.7665 201.348 50.2288C201.774 50.692 202.291 51.0399 202.9 51.2734C203.508 51.507 204.19 51.6233 204.946 51.6233C205.332 51.6233 205.692 51.592 206.025 51.5295C206.358 51.4669 206.653 51.3888 206.912 51.2949C207.171 51.2011 207.389 51.1034 207.568 51.0008C207.747 50.8982 207.868 50.8141 207.931 50.7496C207.994 50.6842 208.039 50.6255 208.068 50.5747C208.096 50.5239 208.119 50.4623 208.136 50.391C208.153 50.3206 208.167 50.2346 208.174 50.1349C208.183 50.0353 208.187 49.9151 208.187 49.7724C208.182 49.5662 208.177 49.403 208.166 49.2808Z" fill="black"/>
<path d="M204.724 54.3018H137.088V54.5959H204.724V54.3018Z" fill="black"/>
<path d="M139.803 59.2675C139.699 59.1678 139.581 59.0799 139.449 59.0066C139.317 58.9333 139.183 58.8639 139.046 58.8004C138.909 58.7359 138.776 58.6724 138.644 58.6079C138.512 58.5434 138.394 58.472 138.29 58.3919C138.185 58.3118 138.102 58.2209 138.04 58.1163C137.977 58.0127 137.945 57.8876 137.945 57.743C137.945 57.6443 137.962 57.5495 137.998 57.4606C138.033 57.3707 138.086 57.2935 138.156 57.227C138.226 57.1605 138.314 57.1078 138.421 57.0697C138.527 57.0315 138.651 57.012 138.794 57.012C138.94 57.012 139.069 57.0296 139.182 57.0648C139.295 57.1 139.393 57.139 139.475 57.183C139.557 57.227 139.626 57.2661 139.68 57.3013C139.735 57.3365 139.775 57.354 139.802 57.354C139.816 57.354 139.829 57.3492 139.84 57.3394C139.851 57.3296 139.86 57.3159 139.867 57.2974C139.875 57.2788 139.88 57.2573 139.884 57.2319C139.888 57.2065 139.889 57.1781 139.889 57.1469C139.889 57.1136 139.888 57.0843 139.885 57.0618C139.883 57.0384 139.879 57.0188 139.874 57.0022C139.869 56.9856 139.863 56.9719 139.857 56.9602C139.851 56.9495 139.837 56.9319 139.814 56.9094C139.791 56.8859 139.744 56.8566 139.673 56.8185C139.601 56.7814 139.52 56.7472 139.429 56.7169C139.338 56.6866 139.243 56.6621 139.141 56.6426C139.039 56.6231 138.939 56.6133 138.84 56.6133C138.642 56.6133 138.46 56.6397 138.295 56.6934C138.129 56.7462 137.987 56.8234 137.869 56.9231C137.75 57.0237 137.659 57.1449 137.593 57.2895C137.528 57.4332 137.495 57.5954 137.495 57.7772C137.495 57.9638 137.527 58.1241 137.59 58.259C137.653 58.3948 137.736 58.5121 137.838 58.6127C137.941 58.7134 138.057 58.8004 138.188 58.8756C138.319 58.9509 138.452 59.0203 138.589 59.0838C138.725 59.1483 138.859 59.2118 138.99 59.2763C139.121 59.3408 139.237 59.4121 139.339 59.4903C139.442 59.5685 139.525 59.6604 139.588 59.764C139.65 59.8675 139.681 59.9926 139.681 60.1373C139.681 60.277 139.657 60.4021 139.607 60.5125C139.557 60.623 139.488 60.7148 139.398 60.7901C139.309 60.8653 139.203 60.922 139.079 60.9621C138.956 61.0021 138.82 61.0217 138.674 61.0217C138.493 61.0217 138.334 61.0002 138.197 60.9582C138.06 60.9161 137.943 60.8702 137.845 60.8204C137.747 60.7705 137.667 60.7246 137.606 60.6826C137.544 60.6405 137.496 60.619 137.463 60.619C137.448 60.619 137.435 60.622 137.421 60.6278C137.407 60.6337 137.398 60.6454 137.389 60.662C137.38 60.6796 137.373 60.7011 137.369 60.7275C137.364 60.7539 137.361 60.7881 137.361 60.8292C137.361 60.8849 137.367 60.9308 137.38 60.9689C137.393 61.007 137.411 61.0393 137.438 61.0666C137.465 61.094 137.513 61.1282 137.584 61.1683C137.656 61.2083 137.744 61.2474 137.847 61.2865C137.951 61.3256 138.07 61.3588 138.202 61.3862C138.335 61.4136 138.476 61.4272 138.626 61.4272C138.846 61.4272 139.049 61.3969 139.235 61.3364C139.422 61.2758 139.582 61.1888 139.717 61.0735C139.851 60.9591 139.957 60.8194 140.032 60.6552C140.108 60.491 140.145 60.3044 140.145 60.0972C140.145 59.9135 140.113 59.7542 140.051 59.6203C139.99 59.4854 139.907 59.3682 139.803 59.2675Z" fill="black"/>
<path d="M142.525 58.3027C142.557 58.3027 142.583 58.287 142.603 58.2577C142.624 58.2274 142.635 58.1825 142.635 58.1219C142.635 58.0906 142.633 58.0632 142.628 58.0407C142.623 58.0173 142.616 57.9987 142.606 57.9831C142.597 57.9675 142.585 57.9557 142.572 57.9489C142.559 57.9411 142.544 57.9381 142.527 57.9381H141.621V57.1329C141.621 57.1182 141.617 57.1055 141.611 57.0928C141.604 57.0811 141.592 57.0703 141.575 57.0625C141.56 57.0537 141.538 57.0479 141.51 57.0439C141.483 57.04 141.446 57.0381 141.403 57.0381C141.362 57.0381 141.327 57.04 141.3 57.0439C141.272 57.0479 141.25 57.0537 141.232 57.0625C141.216 57.0713 141.204 57.0811 141.198 57.0928C141.192 57.1055 141.189 57.1182 141.189 57.1329V57.9381H140.7C140.683 57.9381 140.668 57.942 140.655 57.9489C140.641 57.9557 140.63 57.9675 140.621 57.9831C140.611 57.9987 140.603 58.0183 140.599 58.0407C140.594 58.0632 140.591 58.0906 140.591 58.1219C140.591 58.1825 140.601 58.2274 140.621 58.2577C140.64 58.288 140.667 58.3027 140.7 58.3027H141.189V60.3432C141.189 60.5269 141.206 60.6862 141.238 60.822C141.271 60.9579 141.323 61.0693 141.396 61.1572C141.468 61.2452 141.561 61.3116 141.675 61.3546C141.788 61.3976 141.926 61.4201 142.088 61.4201C142.136 61.4201 142.186 61.4172 142.237 61.4113C142.288 61.4054 142.336 61.3966 142.382 61.3859C142.428 61.3751 142.468 61.3615 142.503 61.3458C142.538 61.3302 142.564 61.3126 142.582 61.295C142.601 61.2764 142.613 61.252 142.622 61.2207C142.631 61.1895 142.635 61.1484 142.635 61.0976C142.635 61.0663 142.633 61.0399 142.629 61.0194C142.625 60.9989 142.62 60.9823 142.614 60.9686C142.608 60.9549 142.601 60.9461 142.591 60.9412C142.581 60.9364 142.57 60.9344 142.558 60.9344C142.539 60.9344 142.516 60.9403 142.49 60.953C142.465 60.9647 142.434 60.9784 142.398 60.993C142.362 61.0077 142.32 61.0214 142.273 61.0331C142.226 61.0458 142.173 61.0517 142.116 61.0517C141.927 61.0517 141.797 60.9862 141.726 60.8562C141.655 60.7253 141.618 60.5357 141.618 60.2865V58.3036H142.525V58.3027Z" fill="black"/>
<path d="M145.424 58.1926C145.328 58.091 145.203 58.0128 145.049 57.959C144.894 57.9043 144.705 57.877 144.48 57.877C144.364 57.877 144.248 57.8877 144.132 57.9092C144.016 57.9307 143.908 57.959 143.807 57.9942C143.708 58.0294 143.618 58.0675 143.542 58.1086C143.464 58.1496 143.411 58.1858 143.38 58.2151C143.35 58.2454 143.332 58.2757 143.325 58.306C143.318 58.3363 143.314 58.3763 143.314 58.4271C143.314 58.4555 143.316 58.4809 143.32 58.5014C143.324 58.5219 143.33 58.5395 143.338 58.5522C143.347 58.5659 143.357 58.5747 143.369 58.5796C143.38 58.5845 143.394 58.5864 143.409 58.5864C143.433 58.5864 143.473 58.5688 143.53 58.5337C143.587 58.4985 143.659 58.4594 143.746 58.4154C143.833 58.3714 143.935 58.3324 144.05 58.2972C144.166 58.262 144.296 58.2444 144.442 58.2444C144.591 58.2444 144.718 58.262 144.823 58.2991C144.926 58.3353 145.011 58.39 145.077 58.4623C145.142 58.5346 145.189 58.6246 145.219 58.7321C145.248 58.8395 145.263 58.9637 145.263 59.1034V59.3858H144.74C144.503 59.3858 144.288 59.4083 144.095 59.4533C143.901 59.4982 143.736 59.5647 143.598 59.6546C143.461 59.7445 143.354 59.8559 143.28 59.9898C143.205 60.1237 143.167 60.282 143.167 60.4628C143.167 60.6103 143.193 60.7432 143.244 60.8615C143.294 60.9797 143.367 61.0804 143.462 61.1644C143.555 61.2485 143.671 61.312 143.807 61.357C143.944 61.4019 144.099 61.4244 144.27 61.4244C144.46 61.4244 144.645 61.3814 144.823 61.2934C145.001 61.2065 145.163 61.0833 145.31 60.924V61.2905C145.31 61.3149 145.318 61.3335 145.334 61.3462C145.35 61.3599 145.372 61.3697 145.401 61.3755C145.431 61.3814 145.466 61.3843 145.507 61.3843C145.55 61.3843 145.585 61.3814 145.61 61.3755C145.636 61.3697 145.656 61.3599 145.672 61.3462C145.688 61.3325 145.696 61.314 145.696 61.2905V59.0721C145.696 58.8835 145.675 58.7154 145.634 58.5669C145.593 58.4184 145.52 58.2942 145.424 58.1926ZM145.26 60.5165C145.093 60.7002 144.935 60.8361 144.787 60.924C144.638 61.012 144.478 61.056 144.306 61.056C144.088 61.056 143.92 61.0003 143.8 60.8879C143.68 60.7755 143.62 60.625 143.62 60.4364C143.62 60.3279 143.641 60.2312 143.683 60.1461C143.725 60.0611 143.79 59.9888 143.878 59.9282C143.965 59.8676 144.073 59.8217 144.204 59.7904C144.334 59.7591 144.487 59.7435 144.661 59.7435H145.259V60.5165H145.26Z" fill="black"/>
<path d="M148.698 58.0353C148.694 58.0216 148.69 58.0108 148.685 58.003C148.68 57.9942 148.671 57.9845 148.657 57.9737C148.642 57.963 148.617 57.9502 148.578 57.9375C148.54 57.9239 148.498 57.9121 148.451 57.9033C148.405 57.8936 148.361 57.8867 148.319 57.8828C148.278 57.8789 148.242 57.877 148.211 57.877C148.139 57.877 148.068 57.8857 147.999 57.9024C147.93 57.919 147.859 57.9512 147.787 57.9981C147.715 58.045 147.638 58.1115 147.558 58.1955C147.478 58.2806 147.391 58.391 147.297 58.5298V58.0108C147.297 57.9962 147.294 57.9835 147.288 57.9708C147.283 57.959 147.272 57.9483 147.258 57.9405C147.244 57.9317 147.223 57.9258 147.197 57.9219C147.17 57.918 147.136 57.916 147.095 57.916C147.054 57.916 147.021 57.918 146.995 57.9219C146.97 57.9258 146.949 57.9317 146.932 57.9405C146.915 57.9493 146.903 57.959 146.898 57.9708C146.892 57.9835 146.889 57.9962 146.889 58.0108V61.2915C146.889 61.3061 146.892 61.3198 146.898 61.3315C146.903 61.3442 146.915 61.353 146.932 61.3609C146.949 61.3677 146.971 61.3745 146.999 61.3794C147.027 61.3843 147.062 61.3863 147.103 61.3863C147.146 61.3863 147.182 61.3843 147.209 61.3794C147.238 61.3745 147.259 61.3687 147.275 61.3609C147.29 61.353 147.302 61.3442 147.309 61.3315C147.316 61.3198 147.32 61.3061 147.32 61.2915V59.0731C147.412 58.9255 147.496 58.8014 147.572 58.6998C147.648 58.5982 147.72 58.5171 147.789 58.4555C147.858 58.3939 147.924 58.349 147.986 58.3216C148.049 58.2933 148.113 58.2796 148.179 58.2796C148.234 58.2796 148.285 58.2854 148.331 58.2962C148.377 58.3069 148.419 58.3187 148.458 58.3304C148.497 58.3431 148.531 58.3539 148.56 58.3646C148.588 58.3754 148.615 58.3812 148.636 58.3812C148.651 58.3812 148.663 58.3773 148.67 58.3685C148.679 58.3597 148.686 58.348 148.692 58.3324C148.698 58.3167 148.703 58.2962 148.705 58.2708C148.706 58.2454 148.708 58.2151 148.708 58.1789C148.708 58.1428 148.707 58.1134 148.706 58.09C148.704 58.0665 148.702 58.048 148.698 58.0353Z" fill="black"/>
<path d="M150.918 58.3027C150.949 58.3027 150.976 58.287 150.995 58.2577C151.016 58.2274 151.026 58.1825 151.026 58.1219C151.026 58.0906 151.024 58.0632 151.019 58.0407C151.014 58.0173 151.007 57.9987 150.997 57.9831C150.987 57.9675 150.977 57.9557 150.963 57.9489C150.949 57.9411 150.935 57.9381 150.918 57.9381H150.012V57.1329C150.012 57.1182 150.008 57.1055 150.001 57.0928C149.994 57.0811 149.983 57.0703 149.967 57.0625C149.951 57.0537 149.93 57.0479 149.902 57.0439C149.874 57.04 149.838 57.0381 149.795 57.0381C149.754 57.0381 149.72 57.04 149.692 57.0439C149.663 57.0479 149.642 57.0537 149.624 57.0625C149.607 57.0713 149.596 57.0811 149.59 57.0928C149.584 57.1055 149.581 57.1182 149.581 57.1329V57.9381H149.092C149.075 57.9381 149.059 57.942 149.047 57.9489C149.033 57.9557 149.021 57.9675 149.012 57.9831C149.003 57.9987 148.995 58.0183 148.991 58.0407C148.986 58.0632 148.984 58.0906 148.984 58.1219C148.984 58.1825 148.994 58.2274 149.013 58.2577C149.033 58.288 149.059 58.3027 149.093 58.3027H149.583V60.3432C149.583 60.5269 149.6 60.6862 149.632 60.822C149.665 60.9579 149.717 61.0693 149.789 61.1572C149.862 61.2452 149.955 61.3116 150.069 61.3546C150.182 61.3976 150.32 61.4201 150.482 61.4201C150.53 61.4201 150.58 61.4172 150.631 61.4113C150.681 61.4054 150.729 61.3966 150.775 61.3859C150.821 61.3751 150.862 61.3615 150.896 61.3458C150.932 61.3302 150.958 61.3126 150.976 61.295C150.994 61.2764 151.007 61.252 151.016 61.2207C151.025 61.1895 151.028 61.1484 151.028 61.0976C151.028 61.0663 151.026 61.0399 151.023 61.0194C151.019 60.9989 151.014 60.9823 151.008 60.9686C151.002 60.9549 150.994 60.9461 150.984 60.9412C150.975 60.9364 150.964 60.9344 150.952 60.9344C150.933 60.9344 150.91 60.9403 150.885 60.953C150.859 60.9647 150.829 60.9784 150.793 60.993C150.757 61.0077 150.715 61.0214 150.668 61.0331C150.621 61.0458 150.568 61.0517 150.51 61.0517C150.321 61.0517 150.191 60.9862 150.12 60.8562C150.048 60.7253 150.013 60.5357 150.013 60.2865V58.3036H150.918V58.3027Z" fill="black"/>
<path d="M155.674 59.2675C155.571 59.1678 155.452 59.0799 155.32 59.0066C155.189 58.9333 155.055 58.8639 154.918 58.8004C154.781 58.7359 154.647 58.6724 154.515 58.6079C154.383 58.5434 154.266 58.472 154.161 58.3919C154.057 58.3118 153.974 58.2209 153.911 58.1163C153.849 58.0127 153.816 57.8876 153.816 57.743C153.816 57.6443 153.834 57.5495 153.869 57.4606C153.904 57.3707 153.957 57.2935 154.027 57.227C154.097 57.1605 154.185 57.1078 154.291 57.0697C154.398 57.0315 154.522 57.012 154.665 57.012C154.81 57.012 154.939 57.0296 155.053 57.0648C155.166 57.1 155.264 57.139 155.346 57.183C155.428 57.227 155.496 57.2661 155.551 57.3013C155.606 57.3365 155.646 57.354 155.672 57.354C155.687 57.354 155.7 57.3492 155.71 57.3394C155.721 57.3296 155.731 57.3159 155.738 57.2974C155.745 57.2788 155.75 57.2573 155.754 57.2319C155.758 57.2065 155.759 57.1781 155.759 57.1469C155.759 57.1136 155.758 57.0843 155.755 57.0618C155.753 57.0384 155.749 57.0188 155.745 57.0022C155.74 56.9856 155.734 56.9719 155.728 56.9602C155.722 56.9495 155.707 56.9319 155.685 56.9094C155.662 56.8859 155.615 56.8566 155.543 56.8185C155.472 56.7814 155.391 56.7472 155.3 56.7169C155.209 56.6866 155.113 56.6621 155.012 56.6426C154.91 56.6231 154.809 56.6133 154.711 56.6133C154.512 56.6133 154.33 56.6397 154.165 56.6934C154 56.7462 153.858 56.8234 153.739 56.9231C153.621 57.0237 153.529 57.1449 153.464 57.2895C153.398 57.4332 153.366 57.5954 153.366 57.7772C153.366 57.9638 153.397 58.1241 153.461 58.259C153.523 58.3948 153.606 58.5121 153.709 58.6127C153.812 58.7134 153.928 58.8004 154.059 58.8756C154.19 58.9509 154.323 59.0203 154.459 59.0838C154.596 59.1483 154.73 59.2118 154.86 59.2763C154.991 59.3408 155.107 59.4121 155.21 59.4903C155.313 59.5685 155.396 59.6604 155.458 59.764C155.521 59.8675 155.552 59.9926 155.552 60.1373C155.552 60.277 155.528 60.4021 155.478 60.5125C155.428 60.623 155.359 60.7148 155.269 60.7901C155.18 60.8653 155.073 60.922 154.949 60.9621C154.826 61.0021 154.691 61.0217 154.544 61.0217C154.363 61.0217 154.203 61.0002 154.067 60.9582C153.93 60.9161 153.813 60.8702 153.715 60.8204C153.617 60.7705 153.537 60.7246 153.475 60.6826C153.414 60.6405 153.366 60.619 153.333 60.619C153.318 60.619 153.304 60.622 153.291 60.6278C153.277 60.6337 153.266 60.6454 153.258 60.662C153.25 60.6796 153.243 60.7011 153.239 60.7275C153.234 60.7539 153.231 60.7881 153.231 60.8292C153.231 60.8849 153.237 60.9308 153.25 60.9689C153.262 61.007 153.281 61.0393 153.307 61.0666C153.334 61.094 153.383 61.1282 153.454 61.1683C153.525 61.2083 153.613 61.2474 153.717 61.2865C153.82 61.3256 153.939 61.3588 154.072 61.3862C154.204 61.4136 154.345 61.4272 154.496 61.4272C154.716 61.4272 154.919 61.3969 155.104 61.3364C155.291 61.2758 155.451 61.1888 155.586 61.0735C155.721 60.9591 155.827 60.8194 155.902 60.6552C155.977 60.491 156.014 60.3044 156.014 60.0972C156.014 59.9135 155.983 59.7542 155.92 59.6203C155.862 59.4854 155.778 59.3682 155.674 59.2675Z" fill="black"/>
<path d="M159.441 58.3431C159.313 58.1916 159.152 58.0763 158.96 57.9972C158.767 57.917 158.543 57.8779 158.287 57.8779C158.02 57.8779 157.785 57.9229 157.584 58.0118C157.383 58.1017 157.215 58.2268 157.081 58.3871C156.948 58.5474 156.847 58.7379 156.78 58.9578C156.714 59.1777 156.681 59.4181 156.681 59.679C156.681 59.9497 156.713 60.193 156.778 60.408C156.842 60.623 156.938 60.8058 157.068 60.9573C157.197 61.1087 157.358 61.224 157.55 61.3052C157.742 61.3863 157.966 61.4263 158.222 61.4263C158.488 61.4263 158.721 61.3814 158.922 61.2905C159.122 61.1996 159.29 61.0736 159.424 60.9113C159.558 60.7501 159.658 60.5585 159.727 60.3387C159.794 60.1188 159.829 59.8784 159.829 59.6174C159.829 59.3497 159.795 59.1073 159.731 58.8923C159.665 58.6773 159.569 58.4946 159.441 58.3431ZM159.307 60.2087C159.263 60.3777 159.196 60.5243 159.105 60.6475C159.014 60.7706 158.898 60.8674 158.755 60.9377C158.613 61.0081 158.444 61.0423 158.247 61.0423C158.034 61.0423 157.857 61.0051 157.715 60.9299C157.572 60.8546 157.459 60.754 157.374 60.625C157.29 60.497 157.229 60.3475 157.193 60.1774C157.157 60.0074 157.138 59.8276 157.138 59.6389C157.138 59.4435 157.16 59.2607 157.204 59.0917C157.247 58.9226 157.314 58.776 157.405 58.6509C157.496 58.5268 157.612 58.4291 157.755 58.3587C157.897 58.2884 158.067 58.2532 158.263 58.2532C158.476 58.2532 158.654 58.2913 158.796 58.3675C158.938 58.4438 159.052 58.5464 159.136 58.6754C159.221 58.8044 159.28 58.9539 159.316 59.123C159.353 59.292 159.371 59.4699 159.371 59.6556C159.371 59.8559 159.351 60.0396 159.307 60.2087Z" fill="black"/>
<path d="M165.232 58.2796C165.146 58.1564 165.032 58.0587 164.891 57.9864C164.749 57.9141 164.576 57.8779 164.371 57.8779C164.289 57.8779 164.206 57.8897 164.121 57.9121C164.036 57.9356 163.949 57.9727 163.858 58.0245C163.767 58.0763 163.671 58.1457 163.571 58.2307C163.472 58.3167 163.364 58.4223 163.251 58.5483C163.215 58.4496 163.167 58.3587 163.109 58.2767C163.052 58.1946 162.981 58.1242 162.899 58.0646C162.817 58.005 162.722 57.96 162.615 57.9268C162.507 57.8945 162.385 57.8779 162.246 57.8779C162.079 57.8779 161.911 57.9248 161.742 58.0196C161.573 58.1134 161.394 58.2659 161.205 58.476V58.0118C161.205 57.9972 161.203 57.9845 161.197 57.9717C161.191 57.96 161.18 57.9493 161.166 57.9415C161.152 57.9327 161.131 57.9268 161.105 57.9229C161.078 57.919 161.044 57.917 161.003 57.917C160.962 57.917 160.929 57.919 160.904 57.9229C160.878 57.9268 160.857 57.9327 160.84 57.9415C160.823 57.9502 160.812 57.96 160.806 57.9717C160.8 57.9845 160.797 57.9972 160.797 58.0118V61.2925C160.797 61.3071 160.8 61.3208 160.806 61.3325C160.812 61.3452 160.823 61.354 160.84 61.3618C160.857 61.3687 160.879 61.3755 160.907 61.3804C160.935 61.3853 160.97 61.3873 161.011 61.3873C161.055 61.3873 161.09 61.3853 161.118 61.3804C161.146 61.3755 161.167 61.3697 161.183 61.3618C161.199 61.354 161.21 61.3452 161.217 61.3325C161.224 61.3208 161.228 61.3071 161.228 61.2925V58.9392C161.412 58.7096 161.582 58.5356 161.737 58.4174C161.893 58.2991 162.047 58.2395 162.199 58.2395C162.322 58.2395 162.429 58.2639 162.52 58.3138C162.611 58.3636 162.686 58.433 162.745 58.5239C162.804 58.6148 162.848 58.7233 162.877 58.8503C162.906 58.9773 162.921 59.1181 162.921 59.2725V61.2915C162.921 61.3061 162.924 61.3198 162.929 61.3315C162.935 61.3443 162.947 61.353 162.964 61.3609C162.98 61.3677 163.003 61.3745 163.031 61.3794C163.058 61.3843 163.094 61.3863 163.135 61.3863C163.176 61.3863 163.21 61.3843 163.238 61.3794C163.266 61.3745 163.288 61.3687 163.304 61.3609C163.319 61.353 163.331 61.3443 163.338 61.3315C163.345 61.3198 163.349 61.3061 163.349 61.2915V58.9383C163.535 58.7086 163.705 58.5346 163.862 58.4164C164.018 58.2982 164.171 58.2385 164.324 58.2385C164.447 58.2385 164.554 58.263 164.644 58.3128C164.735 58.3626 164.81 58.432 164.869 58.5229C164.929 58.6138 164.972 58.7223 165 58.8493C165.028 58.9764 165.042 59.1171 165.042 59.2715V61.2905C165.042 61.3052 165.045 61.3188 165.051 61.3306C165.057 61.3433 165.069 61.3521 165.085 61.3599C165.102 61.3667 165.124 61.3736 165.153 61.3785C165.18 61.3833 165.216 61.3853 165.26 61.3853C165.301 61.3853 165.335 61.3833 165.364 61.3785C165.391 61.3736 165.414 61.3677 165.429 61.3599C165.445 61.3521 165.457 61.3433 165.464 61.3306C165.471 61.3188 165.475 61.3052 165.475 61.2905V59.2314C165.475 59.0477 165.457 58.8738 165.419 58.7096C165.379 58.5473 165.318 58.4027 165.232 58.2796Z" fill="black"/>
<path d="M169.021 58.3324C168.908 58.1936 168.766 58.0832 168.591 58.0001C168.417 57.918 168.207 57.877 167.96 57.877C167.731 57.877 167.522 57.917 167.335 57.9981C167.147 58.0792 166.987 58.1965 166.854 58.3499C166.721 58.5034 166.62 58.69 166.548 58.9099C166.477 59.1298 166.442 59.379 166.442 59.6565C166.442 59.9468 166.476 60.2018 166.545 60.4217C166.615 60.6416 166.715 60.8253 166.848 60.9748C166.981 61.1234 167.145 61.2358 167.342 61.312C167.537 61.3882 167.762 61.4263 168.016 61.4263C168.17 61.4263 168.315 61.4146 168.449 61.3902C168.583 61.3657 168.701 61.3394 168.803 61.3081C168.904 61.2778 168.986 61.2475 169.049 61.2172C169.112 61.1869 169.15 61.1664 169.161 61.1537C169.174 61.142 169.183 61.1293 169.191 61.1175C169.198 61.1048 169.203 61.0921 169.206 61.0794C169.21 61.0657 169.213 61.0511 169.215 61.0354C169.218 61.0198 169.219 61.0032 169.219 60.9866C169.219 60.9504 169.217 60.9201 169.214 60.8957C169.21 60.8713 169.205 60.8517 169.198 60.8361C169.191 60.8204 169.181 60.8087 169.168 60.8019C169.156 60.795 169.143 60.7911 169.128 60.7911C169.104 60.7911 169.064 60.8048 169.007 60.8312C168.95 60.8576 168.878 60.8879 168.789 60.9201C168.701 60.9524 168.596 60.9827 168.475 61.0091C168.354 61.0354 168.217 61.0491 168.066 61.0491C167.851 61.0491 167.67 61.0178 167.522 60.9553C167.375 60.8928 167.256 60.8029 167.164 60.6846C167.072 60.5673 167.007 60.4266 166.966 60.2624C166.926 60.0983 166.907 59.9145 166.907 59.7113H169.144C169.188 59.7113 169.232 59.6946 169.278 59.6624C169.324 59.6301 169.347 59.5705 169.347 59.4826V59.3956C169.347 59.1923 169.321 58.9998 169.269 58.8161C169.215 58.6324 169.133 58.4711 169.021 58.3324ZM166.905 59.3565C166.912 59.2109 166.938 59.0721 166.984 58.9373C167.03 58.8034 167.095 58.6851 167.181 58.5835C167.267 58.4819 167.372 58.4008 167.497 58.3392C167.621 58.2776 167.766 58.2473 167.93 58.2473C168.25 58.2473 168.492 58.3451 168.659 58.5405C168.826 58.736 168.905 59.0076 168.898 59.3565H166.905Z" fill="black"/>
<path d="M171.774 58.3027C171.805 58.3027 171.831 58.287 171.852 58.2577C171.872 58.2274 171.883 58.1825 171.883 58.1219C171.883 58.0906 171.88 58.0632 171.875 58.0407C171.87 58.0173 171.863 57.9987 171.854 57.9831C171.844 57.9675 171.833 57.9557 171.82 57.9489C171.806 57.9411 171.791 57.9381 171.775 57.9381H170.869V57.1329C170.869 57.1182 170.865 57.1055 170.858 57.0928C170.851 57.0811 170.839 57.0703 170.824 57.0625C170.808 57.0537 170.787 57.0479 170.758 57.0439C170.731 57.04 170.695 57.0381 170.652 57.0381C170.611 57.0381 170.576 57.04 170.548 57.0439C170.52 57.0479 170.498 57.0537 170.481 57.0625C170.464 57.0713 170.452 57.0811 170.445 57.0928C170.44 57.1055 170.437 57.1182 170.437 57.1329V57.9381H169.947C169.93 57.9381 169.915 57.942 169.902 57.9489C169.888 57.9557 169.877 57.9675 169.868 57.9831C169.858 57.9987 169.851 58.0183 169.846 58.0407C169.842 58.0632 169.84 58.0906 169.84 58.1219C169.84 58.1825 169.849 58.2274 169.869 58.2577C169.888 58.288 169.915 58.3027 169.949 58.3027H170.439V60.3432C170.439 60.5269 170.455 60.6862 170.488 60.822C170.52 60.9579 170.573 61.0693 170.645 61.1572C170.717 61.2452 170.81 61.3116 170.924 61.3546C171.038 61.3976 171.176 61.4201 171.338 61.4201C171.386 61.4201 171.436 61.4172 171.486 61.4113C171.537 61.4054 171.585 61.3966 171.631 61.3859C171.677 61.3751 171.718 61.3615 171.752 61.3458C171.787 61.3302 171.814 61.3126 171.832 61.295C171.85 61.2764 171.863 61.252 171.872 61.2207C171.881 61.1895 171.885 61.1484 171.885 61.0976C171.885 61.0663 171.883 61.0399 171.879 61.0194C171.875 60.9989 171.87 60.9823 171.864 60.9686C171.859 60.9549 171.851 60.9461 171.841 60.9412C171.831 60.9364 171.82 60.9344 171.808 60.9344C171.788 60.9344 171.766 60.9403 171.74 60.953C171.715 60.9647 171.684 60.9784 171.648 60.993C171.611 61.0077 171.569 61.0214 171.522 61.0331C171.476 61.0458 171.423 61.0517 171.365 61.0517C171.176 61.0517 171.047 60.9862 170.975 60.8562C170.904 60.7253 170.869 60.5357 170.869 60.2865V58.3036H171.774V58.3027Z" fill="black"/>
<path d="M175.147 58.2797C175.057 58.1566 174.937 58.0589 174.79 57.9865C174.643 57.9142 174.461 57.8781 174.246 57.8781C174.067 57.8781 173.888 57.925 173.709 58.0178C173.531 58.1106 173.352 58.2563 173.173 58.4546V56.4053C173.173 56.3907 173.169 56.378 173.162 56.3653C173.155 56.3535 173.144 56.3428 173.128 56.335C173.112 56.3262 173.091 56.3203 173.062 56.3164C173.035 56.3125 172.999 56.3105 172.956 56.3105C172.915 56.3105 172.881 56.3125 172.852 56.3164C172.824 56.3203 172.803 56.3262 172.785 56.335C172.768 56.3438 172.757 56.3535 172.75 56.3653C172.744 56.378 172.741 56.3907 172.741 56.4053V61.2926C172.741 61.3072 172.744 61.3209 172.75 61.3327C172.756 61.3454 172.767 61.3542 172.785 61.362C172.802 61.3688 172.824 61.3757 172.852 61.3805C172.88 61.3854 172.915 61.3874 172.956 61.3874C172.999 61.3874 173.035 61.3854 173.062 61.3805C173.091 61.3757 173.112 61.3698 173.128 61.362C173.144 61.3542 173.155 61.3454 173.162 61.3327C173.169 61.3209 173.173 61.3072 173.173 61.2926V58.9394C173.357 58.7097 173.532 58.5358 173.699 58.4175C173.866 58.2993 174.033 58.2396 174.199 58.2396C174.33 58.2396 174.443 58.2641 174.542 58.3139C174.64 58.3638 174.72 58.4331 174.782 58.524C174.845 58.6149 174.893 58.7234 174.924 58.8504C174.955 58.9775 174.971 59.1426 174.971 59.3449V61.2916C174.971 61.3063 174.975 61.32 174.982 61.3317C174.989 61.3444 175 61.3532 175.016 61.361C175.032 61.3678 175.053 61.3747 175.081 61.3796C175.109 61.3845 175.145 61.3864 175.188 61.3864C175.229 61.3864 175.263 61.3845 175.292 61.3796C175.32 61.3747 175.341 61.3688 175.357 61.361C175.373 61.3532 175.384 61.3444 175.391 61.3317C175.398 61.32 175.402 61.3063 175.402 61.2916V59.3049C175.402 59.0732 175.382 58.8749 175.342 58.7107C175.302 58.5475 175.237 58.4028 175.147 58.2797Z" fill="black"/>
<path d="M176.816 56.6123C176.708 56.6123 176.632 56.6328 176.591 56.6739C176.55 56.7149 176.53 56.7931 176.53 56.9094C176.53 57.0257 176.55 57.1039 176.589 57.143C176.629 57.183 176.702 57.2026 176.808 57.2026C176.917 57.2026 176.992 57.182 177.033 57.141C177.074 57.1 177.095 57.0218 177.095 56.9055C177.095 56.7892 177.074 56.711 177.035 56.6719C176.996 56.6318 176.923 56.6123 176.816 56.6123Z" fill="black"/>
<path d="M176.984 57.9414C176.969 57.9326 176.947 57.9268 176.919 57.9229C176.891 57.9189 176.855 57.917 176.812 57.917C176.771 57.917 176.737 57.9189 176.709 57.9229C176.68 57.9268 176.659 57.9326 176.641 57.9414C176.625 57.9502 176.613 57.96 176.607 57.9717C176.601 57.9844 176.598 57.9971 176.598 58.0118V61.2924C176.598 61.3071 176.601 61.3208 176.607 61.3325C176.613 61.3452 176.625 61.354 176.641 61.3618C176.658 61.3687 176.68 61.3755 176.709 61.3804C176.736 61.3853 176.771 61.3872 176.812 61.3872C176.856 61.3872 176.891 61.3853 176.919 61.3804C176.946 61.3755 176.969 61.3696 176.984 61.3618C177 61.354 177.012 61.3452 177.019 61.3325C177.026 61.3208 177.03 61.3071 177.03 61.2924V58.0118C177.03 57.9971 177.026 57.9844 177.019 57.9717C177.012 57.96 177.001 57.9492 176.984 57.9414Z" fill="black"/>
<path d="M180.643 58.2796C180.552 58.1564 180.433 58.0587 180.286 57.9864C180.139 57.9141 179.957 57.8779 179.742 57.8779C179.563 57.8779 179.383 57.9248 179.202 58.0196C179.021 58.1134 178.835 58.2659 178.647 58.476V58.0118C178.647 57.9972 178.644 57.9845 178.638 57.9717C178.632 57.96 178.621 57.9493 178.607 57.9415C178.593 57.9327 178.572 57.9268 178.546 57.9229C178.519 57.919 178.485 57.917 178.444 57.917C178.403 57.917 178.37 57.919 178.345 57.9229C178.319 57.9268 178.298 57.9327 178.281 57.9415C178.264 57.9502 178.253 57.96 178.247 57.9717C178.241 57.9845 178.238 57.9972 178.238 58.0118V61.2925C178.238 61.3071 178.241 61.3208 178.247 61.3325C178.253 61.3452 178.264 61.354 178.281 61.3618C178.298 61.3687 178.32 61.3755 178.348 61.3804C178.376 61.3853 178.411 61.3873 178.452 61.3873C178.495 61.3873 178.531 61.3853 178.559 61.3804C178.586 61.3755 178.608 61.3697 178.624 61.3618C178.64 61.354 178.651 61.3452 178.658 61.3325C178.666 61.3208 178.669 61.3071 178.669 61.2925V58.9392C178.853 58.7096 179.028 58.5356 179.195 58.4174C179.362 58.2991 179.529 58.2395 179.695 58.2395C179.826 58.2395 179.939 58.2639 180.038 58.3138C180.136 58.3636 180.216 58.433 180.279 58.5239C180.341 58.6148 180.389 58.7233 180.42 58.8503C180.452 58.9773 180.467 59.1425 180.467 59.3448V61.2915C180.467 61.3061 180.471 61.3198 180.478 61.3315C180.485 61.3443 180.496 61.353 180.512 61.3609C180.528 61.3677 180.549 61.3745 180.578 61.3794C180.605 61.3843 180.641 61.3863 180.684 61.3863C180.725 61.3863 180.759 61.3843 180.788 61.3794C180.816 61.3745 180.838 61.3687 180.853 61.3609C180.869 61.353 180.881 61.3443 180.887 61.3315C180.894 61.3198 180.898 61.3061 180.898 61.2915V59.3047C180.898 59.0731 180.878 58.8747 180.839 58.7106C180.798 58.5474 180.733 58.4027 180.643 58.2796Z" fill="black"/>
<path d="M184.607 57.9356H183.639C183.569 57.919 183.493 57.9043 183.41 57.8936C183.326 57.8828 183.238 57.877 183.143 57.877C182.964 57.877 182.8 57.9043 182.649 57.959C182.499 58.0138 182.371 58.091 182.263 58.1926C182.156 58.2942 182.072 58.4184 182.011 58.564C181.951 58.7106 181.92 58.8747 181.92 59.0585C181.92 59.2109 181.94 59.3409 181.979 59.4503C182.017 59.5588 182.072 59.6595 182.142 59.7513C182.06 59.8432 181.99 59.9468 181.932 60.0611C181.874 60.1755 181.845 60.3084 181.845 60.4579C181.845 60.5595 181.874 60.6553 181.932 60.7442C181.99 60.8341 182.081 60.9094 182.204 60.9729C182.127 61.0384 182.058 61.1019 181.999 61.1654C181.939 61.228 181.89 61.2934 181.85 61.3618C181.81 61.4293 181.781 61.5006 181.761 61.5759C181.742 61.6511 181.732 61.7303 181.732 61.8153C181.732 61.9384 181.757 62.0537 181.81 62.1603C181.862 62.2668 181.946 62.3586 182.06 62.4378C182.175 62.516 182.322 62.5775 182.503 62.6225C182.683 62.6675 182.901 62.6899 183.157 62.6899C183.425 62.6899 183.656 62.6606 183.85 62.601C184.043 62.5414 184.201 62.4622 184.326 62.3616C184.451 62.2609 184.542 62.1446 184.602 62.0117C184.662 61.8788 184.691 61.74 184.691 61.5944C184.691 61.4537 184.662 61.3325 184.604 61.228C184.546 61.1244 184.467 61.0364 184.368 60.9651C184.269 60.8937 184.154 60.84 184.022 60.8038C183.891 60.7677 183.75 60.7471 183.6 60.7423L182.712 60.7061C182.571 60.7012 182.458 60.667 182.369 60.6045C182.281 60.5419 182.237 60.4637 182.237 60.3729C182.237 60.2908 182.253 60.2185 182.284 60.1549C182.315 60.0924 182.355 60.0367 182.403 59.9878C182.478 60.0484 182.582 60.0992 182.715 60.1403C182.848 60.1813 182.988 60.2018 183.135 60.2018C183.316 60.2018 183.482 60.1755 183.632 60.1217C183.781 60.0689 183.911 59.9917 184.02 59.8921C184.128 59.7914 184.212 59.6692 184.272 59.5236C184.331 59.379 184.361 59.2129 184.361 59.0272C184.361 58.8913 184.34 58.7633 184.301 58.6412C184.261 58.519 184.191 58.4056 184.089 58.3021H184.607C184.641 58.3021 184.668 58.2884 184.691 58.262C184.712 58.2356 184.723 58.1877 184.723 58.1203C184.723 58.0597 184.714 58.0138 184.696 57.9825C184.677 57.9512 184.648 57.9356 184.607 57.9356ZM182.245 61.4498C182.277 61.3931 182.321 61.3345 182.377 61.2739C182.433 61.2133 182.504 61.1498 182.591 61.0814L183.545 61.1136C183.763 61.1205 183.936 61.1664 184.065 61.2514C184.194 61.3364 184.259 61.4586 184.259 61.6179C184.259 61.7097 184.24 61.7977 184.204 61.8827C184.168 61.9677 184.108 62.042 184.023 62.1075C183.938 62.173 183.828 62.2257 183.691 62.2648C183.554 62.3049 183.385 62.3244 183.182 62.3244C182.861 62.3244 182.609 62.2785 182.43 62.1866C182.25 62.0948 182.16 61.9599 182.16 61.7811C182.16 61.7254 182.166 61.6707 182.178 61.6159C182.19 61.5622 182.213 61.5065 182.245 61.4498ZM183.867 59.3399C183.836 59.4376 183.788 59.5236 183.725 59.5969C183.663 59.6712 183.583 59.7298 183.484 59.7728C183.386 59.8158 183.272 59.8383 183.142 59.8383C182.896 59.8383 182.704 59.7689 182.567 59.6301C182.431 59.4914 182.362 59.3008 182.362 59.0594C182.362 58.948 182.378 58.8435 182.409 58.7438C182.44 58.6451 182.487 58.5571 182.551 58.4828C182.613 58.4076 182.693 58.349 182.79 58.305C182.887 58.262 182.999 58.2395 183.127 58.2395C183.378 58.2395 183.573 58.3099 183.709 58.4496C183.846 58.5894 183.914 58.7838 183.914 59.033C183.914 59.1405 183.898 59.2422 183.867 59.3399Z" fill="black"/>
<path d="M190.11 57.0559C190.124 57.0471 190.136 57.0354 190.146 57.0198C190.156 57.0041 190.163 56.9836 190.167 56.9602C190.172 56.9357 190.174 56.9084 190.174 56.8771C190.174 56.8429 190.172 56.8136 190.167 56.7882C190.163 56.7628 190.155 56.7413 190.146 56.7246C190.136 56.708 190.124 56.6953 190.11 56.6865C190.095 56.6777 190.08 56.6738 190.063 56.6738H186.822C186.803 56.6738 186.786 56.6777 186.773 56.6865C186.76 56.6953 186.749 56.708 186.739 56.7246C186.73 56.7413 186.723 56.7628 186.718 56.7882C186.713 56.8136 186.711 56.8429 186.711 56.8771C186.711 56.9084 186.713 56.9367 186.718 56.9602C186.723 56.9846 186.73 57.0041 186.739 57.0198C186.749 57.0354 186.761 57.0471 186.773 57.0559C186.786 57.0647 186.803 57.0686 186.822 57.0686H188.222V61.2923C188.222 61.307 188.226 61.3207 188.233 61.3324C188.239 61.3451 188.251 61.3539 188.269 61.3617C188.285 61.3686 188.309 61.3754 188.338 61.3803C188.367 61.3852 188.403 61.3871 188.443 61.3871C188.484 61.3871 188.519 61.3852 188.548 61.3803C188.577 61.3754 188.6 61.3695 188.618 61.3617C188.634 61.3539 188.646 61.3451 188.654 61.3324C188.661 61.3207 188.664 61.307 188.664 61.2923V57.0686H190.064C190.08 57.0686 190.095 57.0647 190.11 57.0559Z" fill="black"/>
<path d="M192.691 58.3431C192.563 58.1916 192.402 58.0763 192.21 57.9972C192.017 57.917 191.794 57.8779 191.538 57.8779C191.269 57.8779 191.034 57.9229 190.834 58.0118C190.634 58.1017 190.465 58.2268 190.332 58.3871C190.198 58.5474 190.097 58.7379 190.031 58.9578C189.964 59.1777 189.931 59.4181 189.931 59.679C189.931 59.9497 189.963 60.193 190.028 60.408C190.092 60.623 190.188 60.8058 190.317 60.9573C190.446 61.1087 190.607 61.224 190.799 61.3052C190.991 61.3863 191.215 61.4263 191.471 61.4263C191.737 61.4263 191.97 61.3814 192.171 61.2905C192.371 61.1996 192.539 61.0736 192.673 60.9113C192.807 60.7501 192.909 60.5585 192.976 60.3387C193.043 60.1188 193.078 59.8784 193.078 59.6174C193.078 59.3497 193.044 59.1073 192.98 58.8923C192.915 58.6773 192.819 58.4946 192.691 58.3431ZM192.557 60.2087C192.514 60.3777 192.446 60.5243 192.355 60.6475C192.265 60.7706 192.148 60.8674 192.006 60.9377C191.863 61.0081 191.694 61.0423 191.498 61.0423C191.285 61.0423 191.108 61.0051 190.966 60.9299C190.823 60.8546 190.71 60.754 190.625 60.625C190.541 60.497 190.48 60.3475 190.444 60.1774C190.408 60.0074 190.389 59.8276 190.389 59.6389C190.389 59.4435 190.411 59.2607 190.455 59.0917C190.498 58.9226 190.565 58.776 190.656 58.6509C190.747 58.5268 190.863 58.4291 191.006 58.3587C191.149 58.2884 191.318 58.2532 191.514 58.2532C191.727 58.2532 191.904 58.2913 192.047 58.3675C192.189 58.4438 192.303 58.5464 192.388 58.6754C192.472 58.8044 192.532 58.9539 192.569 59.123C192.605 59.292 192.623 59.4699 192.623 59.6556C192.622 59.8559 192.601 60.0396 192.557 60.2087Z" fill="black"/>
<path d="M196.648 56.3545C196.632 56.3477 196.61 56.3418 196.582 56.3369C196.555 56.332 196.519 56.3301 196.476 56.3301C196.435 56.3301 196.4 56.332 196.372 56.3369C196.344 56.3418 196.322 56.3477 196.305 56.3545C196.288 56.3614 196.276 56.3721 196.27 56.3838C196.265 56.3965 196.262 56.4092 196.262 56.4239V58.3999C196.102 58.2279 195.94 58.0989 195.776 58.01C195.612 57.922 195.43 57.878 195.233 57.878C195.003 57.878 194.802 57.9201 194.628 58.0051C194.454 58.0891 194.307 58.2103 194.189 58.3677C194.071 58.525 193.981 58.7156 193.92 58.9384C193.86 59.1622 193.829 59.4123 193.829 59.6909C193.829 59.9274 193.854 60.1521 193.902 60.3632C193.949 60.5753 194.027 60.759 194.131 60.9163C194.237 61.0737 194.373 61.1978 194.539 61.2896C194.706 61.3815 194.907 61.4274 195.145 61.4274C195.364 61.4274 195.568 61.3737 195.753 61.2662C195.939 61.1587 196.12 61.0102 196.294 60.8215V61.2926C196.294 61.3092 196.298 61.3238 196.307 61.3356C196.315 61.3483 196.327 61.3581 196.343 61.3649C196.358 61.3717 196.379 61.3776 196.404 61.3815C196.43 61.3854 196.462 61.3874 196.5 61.3874C196.536 61.3874 196.567 61.3854 196.591 61.3815C196.615 61.3776 196.635 61.3727 196.651 61.3649C196.666 61.3581 196.677 61.3483 196.683 61.3356C196.689 61.3238 196.692 61.3092 196.692 61.2926V56.4239C196.692 56.4092 196.688 56.3965 196.681 56.3838C196.675 56.3721 196.663 56.3623 196.648 56.3545ZM196.262 60.3573C196.155 60.4883 196.055 60.5968 195.963 60.6857C195.869 60.7737 195.78 60.846 195.692 60.9017C195.605 60.9574 195.521 60.9974 195.438 61.0209C195.356 61.0453 195.271 61.0571 195.184 61.0571C195.01 61.0571 194.865 61.017 194.749 60.9359C194.633 60.8548 194.54 60.7473 194.469 60.6134C194.399 60.4795 194.35 60.3261 194.321 60.1551C194.292 59.9831 194.278 59.8072 194.278 59.6264C194.278 59.4573 194.294 59.2902 194.329 59.126C194.362 58.9618 194.417 58.8143 194.492 58.6843C194.567 58.5533 194.663 58.4488 194.782 58.3686C194.9 58.2895 195.043 58.2494 195.21 58.2494C195.394 58.2494 195.57 58.3071 195.738 58.4234C195.906 58.5397 196.081 58.7077 196.262 58.9276V60.3573Z" fill="black"/>
<path d="M199.936 58.1926C199.84 58.091 199.715 58.0128 199.561 57.959C199.406 57.9043 199.217 57.877 198.992 57.877C198.876 57.877 198.76 57.8877 198.644 57.9092C198.528 57.9307 198.419 57.959 198.32 57.9942C198.22 58.0294 198.13 58.0675 198.053 58.1086C197.976 58.1496 197.922 58.1858 197.892 58.2151C197.861 58.2454 197.843 58.2757 197.836 58.306C197.829 58.3363 197.825 58.3763 197.825 58.4271C197.825 58.4555 197.827 58.4809 197.831 58.5014C197.835 58.5219 197.841 58.5395 197.85 58.5522C197.858 58.5659 197.868 58.5747 197.88 58.5796C197.892 58.5845 197.905 58.5864 197.92 58.5864C197.944 58.5864 197.984 58.5688 198.041 58.5337C198.098 58.4985 198.17 58.4594 198.257 58.4154C198.344 58.3714 198.446 58.3324 198.562 58.2972C198.678 58.262 198.808 58.2444 198.954 58.2444C199.103 58.2444 199.23 58.262 199.335 58.2991C199.439 58.3353 199.524 58.39 199.589 58.4623C199.655 58.5346 199.702 58.6246 199.731 58.7321C199.76 58.8395 199.775 58.9637 199.775 59.1034V59.3858H199.252C199.015 59.3858 198.8 59.4083 198.607 59.4533C198.413 59.4982 198.248 59.5647 198.111 59.6546C197.973 59.7445 197.866 59.8559 197.792 59.9898C197.717 60.1237 197.68 60.282 197.68 60.4628C197.68 60.6103 197.705 60.7432 197.756 60.8615C197.807 60.9797 197.879 61.0804 197.974 61.1644C198.068 61.2485 198.184 61.312 198.32 61.357C198.456 61.4019 198.611 61.4244 198.782 61.4244C198.973 61.4244 199.157 61.3814 199.335 61.2934C199.513 61.2065 199.675 61.0833 199.823 60.924V61.2905C199.823 61.3149 199.83 61.3335 199.846 61.3462C199.862 61.3599 199.884 61.3697 199.914 61.3755C199.943 61.3814 199.978 61.3843 200.018 61.3843C200.061 61.3843 200.096 61.3814 200.122 61.3755C200.147 61.3697 200.168 61.3599 200.183 61.3462C200.199 61.3325 200.207 61.314 200.207 61.2905V59.0721C200.207 58.8835 200.186 58.7154 200.145 58.5669C200.099 58.4193 200.031 58.2942 199.936 58.1926ZM199.771 60.5165C199.604 60.7002 199.446 60.8361 199.297 60.924C199.148 61.012 198.988 61.056 198.817 61.056C198.599 61.056 198.431 61.0003 198.311 60.8879C198.192 60.7755 198.131 60.625 198.131 60.4364C198.131 60.3279 198.153 60.2312 198.195 60.1461C198.237 60.0611 198.301 59.9888 198.389 59.9282C198.476 59.8676 198.585 59.8217 198.715 59.7904C198.846 59.7591 198.999 59.7435 199.173 59.7435H199.771V60.5165Z" fill="black"/>
<path d="M203.688 57.9248C203.657 57.9199 203.619 57.918 203.573 57.918C203.525 57.918 203.483 57.9199 203.45 57.9238C203.417 57.9277 203.39 57.9346 203.368 57.9453C203.348 57.9561 203.331 57.9786 203.319 58.0128L202.312 60.8771H202.298L201.272 58.0128C201.265 57.9961 201.256 57.9815 201.248 57.9698C201.24 57.958 201.227 57.9483 201.208 57.9404C201.19 57.9336 201.165 57.9277 201.134 57.9238C201.103 57.9199 201.06 57.918 201.007 57.918C200.956 57.918 200.915 57.9199 200.886 57.9238C200.856 57.9277 200.834 57.9356 200.82 57.9473C200.807 57.959 200.8 57.9756 200.8 57.9962C200.8 58.0167 200.806 58.044 200.818 58.0782L202.011 61.2787C202.016 61.2954 202.025 61.313 202.04 61.3296C202.055 61.3462 202.071 61.3589 202.091 61.3657L201.627 62.5296C201.614 62.5589 201.61 62.5834 201.612 62.6039C201.614 62.6244 201.624 62.641 201.639 62.6547C201.655 62.6684 201.678 62.6772 201.707 62.6821C201.735 62.687 201.772 62.6889 201.815 62.6889C201.899 62.6889 201.961 62.6801 202 62.6616C202.038 62.643 202.064 62.6215 202.076 62.5941L202.533 61.3647L203.758 58.0773C203.77 58.046 203.777 58.0196 203.777 57.9991C203.777 57.9786 203.77 57.9619 203.755 57.9502C203.74 57.9375 203.718 57.9297 203.688 57.9248Z" fill="black"/>
<path d="M204.332 60.6943C204.214 60.6943 204.131 60.7168 204.085 60.7627C204.04 60.8087 204.016 60.9035 204.016 61.0461C204.016 61.1859 204.039 61.2787 204.084 61.3237C204.128 61.3686 204.208 61.3911 204.321 61.3911C204.439 61.3911 204.521 61.3677 204.567 61.3217C204.613 61.2758 204.637 61.181 204.637 61.0393C204.637 60.8996 204.614 60.8067 204.569 60.7618C204.524 60.7168 204.445 60.6943 204.332 60.6943Z" fill="black"/>
</g>
<defs>
<clipPath id="clip0_298_12709">
<rect width="115.182" height="40" fill="white" transform="translate(93 30)"/>
</clipPath>
</defs>
</svg>
