<svg width="300" height="100" viewBox="0 0 300 100" fill="none" xmlns="http://www.w3.org/2000/svg">
<rect width="300" height="100" fill="white"/>
<g clip-path="url(#clip0_291_3784)">
<path fill-rule="evenodd" clip-rule="evenodd" d="M137.248 36.8225C136.977 36.9547 136.429 37.1181 135.616 37.1181C133.366 37.1181 132.074 35.57 132.074 33.5953C132.074 31.2442 133.72 30 135.766 30C136.559 30 136.978 30.1517 137.248 30.2953L136.998 31.7014C136.697 31.568 136.378 31.447 135.828 31.447C134.853 31.447 133.82 32.0264 133.82 33.5692C133.82 34.9494 134.644 35.6794 135.836 35.6794C136.308 35.6794 136.628 35.5866 136.998 35.4172L137.248 36.8225Z" fill="#0456A2"/>
<path fill-rule="evenodd" clip-rule="evenodd" d="M140.985 31.7433C140.379 31.7433 139.792 32.018 139.494 32.4597H139.475V30.0244L137.95 30.5522V36.9058H139.475V33.938C139.475 33.5096 139.754 33.0486 140.288 33.0486C140.86 33.0486 141.08 33.4986 141.08 34.153V36.906H142.606V33.9424C142.606 32.4297 141.957 31.7433 140.985 31.7433Z" fill="#0456A2"/>
<path fill-rule="evenodd" clip-rule="evenodd" d="M144.907 34.902C144.963 35.5456 145.497 35.8872 146.322 35.8947C146.819 35.8986 147.397 35.7542 147.782 35.5272L148.012 36.7142C147.432 37.0053 146.77 37.1181 146.097 37.1181C144.281 37.1181 143.308 36.0261 143.308 34.3536C143.308 32.7356 144.355 31.6914 145.922 31.6914C147.538 31.6914 148.262 32.8811 148.262 34.3719C148.262 34.5289 148.243 34.7847 148.226 34.9019L144.907 34.902ZM146.739 33.8167C146.739 33.4428 146.557 32.7892 145.851 32.7892C145.232 32.7892 144.94 33.3222 144.897 33.8167H146.739Z" fill="#0456A2"/>
<path fill-rule="evenodd" clip-rule="evenodd" d="M150.055 36.9065L148.37 31.9043H150.052L150.968 35.4429H150.999L151.914 31.9043H153.597L151.912 36.9065H150.055Z" fill="#0456A2"/>
<path fill-rule="evenodd" clip-rule="evenodd" d="M154.03 33.549C154.03 32.8132 154.007 32.3329 153.975 31.904H155.412L155.456 32.8338H155.494C155.746 32.0979 156.228 31.8182 156.725 31.7901C156.96 31.7762 157.088 31.7929 157.234 31.8213V33.284C157.094 33.2565 156.817 33.2243 156.622 33.2421C156.035 33.2963 155.68 33.7232 155.58 34.2146C155.56 34.3165 155.55 34.4296 155.55 34.5618V36.9062H154.03V33.549L154.03 33.549Z" fill="#0456A2"/>
<path fill-rule="evenodd" clip-rule="evenodd" d="M162.594 34.4047C162.594 36.0442 161.606 37.1178 160.005 37.1178C158.404 37.1178 157.416 36.0442 157.416 34.4047C157.416 32.765 158.404 31.6914 160.005 31.6914C161.606 31.6914 162.594 32.765 162.594 34.4047ZM161.013 34.4047C161.013 33.5908 160.733 32.8822 160.005 32.8822C159.277 32.8822 158.998 33.5905 158.998 34.4047C158.998 35.2195 159.277 35.927 160.005 35.927C160.733 35.927 161.013 35.2195 161.013 34.4047Z" fill="#0456A2"/>
<path fill-rule="evenodd" clip-rule="evenodd" d="M163.272 33.4982C163.272 32.874 163.249 32.3409 163.217 31.9034H164.654L164.687 32.6032H164.717C164.916 32.2779 165.443 31.7432 166.264 31.7432C167.27 31.7432 167.926 32.4296 167.926 33.902V36.9059H166.402V34.132C166.402 33.4885 166.181 33.0482 165.63 33.0482C165.207 33.0482 164.945 33.3456 164.847 33.6307C164.811 33.7351 164.796 33.8768 164.796 34.0198V36.9056H163.272V33.4982Z" fill="#0456A2"/>
<path fill-rule="evenodd" clip-rule="evenodd" d="M132.129 50.1671V38.2363L150.029 44.202L132.129 50.1671Z" fill="url(#paint0_linear_291_3784)"/>
<path fill-rule="evenodd" clip-rule="evenodd" d="M132.133 50.1685L150.029 56.1335L167.924 50.1685V38.2383L150.029 44.2026L132.133 50.1685Z" fill="url(#paint1_linear_291_3784)"/>
<path fill-rule="evenodd" clip-rule="evenodd" d="M132.13 64.0352L132.128 52.1006L150.028 58.066L132.13 64.0352Z" fill="url(#paint2_linear_291_3784)"/>
<path fill-rule="evenodd" clip-rule="evenodd" d="M167.925 52.1006L150.024 58.0641L132.132 64.0331L150.028 69.9996L167.925 64.0312V52.1006Z" fill="url(#paint3_linear_291_3784)"/>
</g>
<defs>
<linearGradient id="paint0_linear_291_3784" x1="147.276" y1="48.3321" x2="129.376" y2="36.4014" gradientUnits="userSpaceOnUse">
<stop stop-color="#00569E"/>
<stop offset="0.54902" stop-color="#30A2D5"/>
<stop offset="0.901961" stop-color="#30A2D5"/>
<stop offset="1" stop-color="#30A2D5"/>
</linearGradient>
<linearGradient id="paint1_linear_291_3784" x1="136.904" y1="56.0452" x2="172.694" y2="31.887" gradientUnits="userSpaceOnUse">
<stop stop-color="#1371B3"/>
<stop offset="0.0509804" stop-color="#30A2D5"/>
<stop offset="0.45098" stop-color="#30A2D5"/>
<stop offset="0.6" stop-color="#03589F"/>
<stop offset="1" stop-color="#03589F"/>
</linearGradient>
<linearGradient id="paint2_linear_291_3784" x1="148.793" y1="61.1542" x2="130.893" y2="53.9933" gradientUnits="userSpaceOnUse">
<stop stop-color="#A02239"/>
<stop offset="0.4" stop-color="#A02239"/>
<stop offset="0.6" stop-color="#E41D2F"/>
<stop offset="1" stop-color="#E41D2F"/>
</linearGradient>
<linearGradient id="paint3_linear_291_3784" x1="136.906" y1="69.9089" x2="172.699" y2="45.746" gradientUnits="userSpaceOnUse">
<stop stop-color="#A4223B"/>
<stop offset="0.129412" stop-color="#E41D2F"/>
<stop offset="0.45098" stop-color="#E41D2F"/>
<stop offset="0.6" stop-color="#A92239"/>
<stop offset="1" stop-color="#A92239"/>
</linearGradient>
<clipPath id="clip0_291_3784">
<rect width="35.8516" height="40" fill="white" transform="translate(132.074 30)"/>
</clipPath>
</defs>
</svg>
