<svg width="64" height="40" viewBox="0 0 64 40" fill="none" xmlns="http://www.w3.org/2000/svg">
<g clip-path="url(#clip0_291_3772)">
<path d="M63.0692 12.1784C63.0692 21.4626 63.0692 30.7469 63.0692 40.0321C42.0594 40.0321 21.0496 40.0321 0.036377 40.0321C0.036377 26.7032 0.036377 13.3731 0.036377 0.0332031C15.6885 0.0332031 31.3441 0.0332031 47.0088 0.0454248C46.3437 0.128063 45.7677 0.420395 45.266 0.860264C44.78 1.28631 44.4351 1.81305 44.1873 2.41156C43.9232 3.04954 43.8028 3.71601 43.767 4.39697C43.7336 5.03229 43.7687 5.66684 43.8926 6.29492C44.0153 6.91689 44.1989 7.52173 44.479 8.08659C44.8596 8.85402 45.2834 9.59998 45.6875 10.3558C45.9775 10.8983 46.2692 11.4399 46.5533 11.9856C46.848 12.5518 47.1348 13.1222 47.4242 13.6912C47.5258 13.8911 47.6245 14.0925 47.7338 14.3117C47.7623 14.2616 47.7794 14.2352 47.7929 14.2071C48.187 13.3924 48.5895 12.5817 48.9715 11.7614C49.2389 11.1871 49.4873 10.6034 49.7281 10.0173C50.1465 8.99928 50.5362 7.96892 50.8013 6.89961C50.9339 6.3646 51.0356 5.81493 51.0761 5.26634C51.1077 4.83885 51.0451 4.39964 50.9841 3.97136C50.9148 3.48411 50.7687 3.01203 50.5576 2.56538C50.3346 2.09357 50.0742 1.64702 49.7246 1.25044C49.4219 0.907205 49.0981 0.593975 48.6887 0.393188C48.3906 0.246971 48.0676 0.151371 47.7557 0.0332037C52.8577 0.0332031 57.9596 0.0332031 63.0692 0.0332031C63.0692 3.8736 63.0692 7.71401 63.0567 11.5628C63.0405 11.1751 62.9549 10.7933 62.8471 10.4146C62.6489 9.7187 62.244 9.18009 61.6115 8.82939C61.3052 8.65951 60.9869 8.49752 60.6551 8.39108C60.3205 8.28379 59.9635 8.24434 59.6146 8.1849C59.0988 8.09699 58.5856 8.15052 58.0835 8.26983C57.3682 8.43976 56.7227 8.76009 56.1241 9.19383C55.5085 9.63991 54.9968 10.1849 54.5281 10.7715C54.0259 11.4 53.5622 12.059 53.0631 12.69C52.6697 13.1875 52.2577 13.6712 51.8365 14.1455C51.3213 14.7255 50.79 15.2912 50.2607 15.8585C50.152 15.9752 50.0216 16.0716 49.8774 16.1982C49.9657 16.2167 50.0162 16.2341 50.0674 16.2368C50.5235 16.2608 50.9797 16.3009 51.4359 16.3008C52.6377 16.3003 53.8395 16.2872 55.0412 16.2686C55.5909 16.2601 56.1404 16.2305 56.6896 16.2034C56.9655 16.1897 57.2413 16.1667 57.5158 16.1361C57.9551 16.0872 58.3937 16.0315 58.8318 15.9729C59.2153 15.9217 59.6035 15.8874 59.9791 15.8004C60.4463 15.6921 60.9062 15.547 61.3167 15.2824C61.7034 15.0332 62.0541 14.7469 62.32 14.365C62.6978 13.8222 62.927 13.2246 63.0045 12.5678C63.0199 12.4373 63.0474 12.3082 63.0692 12.1784ZM24.2409 8.515C22.6539 8.515 21.0669 8.515 19.4832 8.515C19.4832 18.4721 19.4832 28.4072 19.4832 38.3375C22.2135 38.3375 24.9324 38.3375 27.6567 38.3375C27.6567 38.2593 27.6567 38.1935 27.6567 38.1277C27.6567 34.1953 27.6566 30.2628 27.6579 26.3304C27.6579 26.2616 27.6716 26.1919 27.6864 26.1243C27.768 25.7521 28.0608 25.5698 28.3656 25.426C28.8456 25.1997 29.3707 25.1285 29.8932 25.0886C30.2814 25.0591 30.6747 25.0665 31.064 25.0882C31.4895 25.1119 31.9158 25.1533 32.3363 25.2205C32.6732 25.2744 32.9918 25.4022 33.2629 25.6228C33.5059 25.8205 33.5395 26.0755 33.5386 26.3798C33.5275 30.3068 33.5312 34.2337 33.5312 38.1606C33.5312 38.2194 33.5312 38.2782 33.5312 38.3404C35.9811 38.3404 38.4141 38.3404 40.858 38.3404C40.858 38.2712 40.858 38.2117 40.858 38.1522C40.858 36.5792 40.8614 35.0062 40.8573 33.4333C40.8486 30.015 40.8421 26.5966 40.8161 23.1785C40.8134 22.8144 40.7287 22.4374 40.6107 22.0906C40.3513 21.3281 39.9085 20.6647 39.3451 20.093C38.9437 19.6857 38.4528 19.3983 37.9249 19.1745C37.5544 19.0175 37.1737 18.971 36.7716 18.9722C33.8016 18.9813 30.8317 18.9771 27.8617 18.9771C27.7975 18.9771 27.7334 18.9771 27.6532 18.9771C27.6532 15.4815 27.6532 12.0035 27.6532 8.515C26.516 8.515 25.3949 8.515 24.2409 8.515ZM6.71125 19.0757C6.56924 19.1001 6.42452 19.1142 6.28568 19.1507C5.43078 19.3753 4.63045 19.7155 3.90013 20.2253C3.34894 20.6101 2.86635 21.0633 2.45652 21.5882C1.89722 22.3046 1.48215 23.1083 1.19366 23.9674C1.02138 24.4804 0.890999 25.0125 0.797852 25.5459C0.678405 26.2298 0.565419 26.9217 0.540015 27.6135C0.504809 28.5722 0.477966 29.5369 0.627348 30.4924C0.711676 31.0318 0.78637 31.5735 0.894898 32.1082C1.04515 32.8484 1.29465 33.5594 1.62374 34.2392C1.89979 34.8095 2.23639 35.3406 2.63909 35.8352C2.96752 36.2386 3.32819 36.6081 3.73725 36.9171C4.48026 37.4784 5.30038 37.9087 6.21061 38.1343C6.6057 38.2322 7.01302 38.3387 7.41528 38.3407C10.7208 38.3572 14.0265 38.35 17.3321 38.35C17.384 38.35 17.436 38.35 17.4832 38.35C17.4832 36.3238 17.4832 34.3237 17.4832 32.3104C17.41 32.3104 17.3453 32.3104 17.2805 32.3104C14.91 32.3104 12.5394 32.3069 10.1688 32.3134C9.68877 32.3147 9.23054 32.2516 8.77688 32.0827C8.10525 31.8327 7.54628 31.4412 7.14528 30.8505C6.75961 30.2823 6.59872 29.6315 6.57323 28.9528C6.5619 28.6514 6.59789 28.346 6.6365 28.0454C6.7158 27.4283 6.96839 26.8853 7.38868 26.4251C7.67185 26.115 8.0188 25.8894 8.39884 25.7186C8.84673 25.5174 9.31253 25.3796 9.81034 25.3796C12.3019 25.3799 14.7935 25.3798 17.2851 25.3798C17.3495 25.3798 17.4139 25.3798 17.4826 25.3798C17.4826 23.239 17.4826 21.1139 17.4826 18.9771C17.4361 18.9771 17.3987 18.9771 17.3613 18.9771C14.0612 18.9771 10.7611 18.9751 7.46101 18.9812C7.22083 18.9816 6.98075 19.0411 6.71125 19.0757ZM43.0362 37.5084C43.0362 37.7865 43.0362 38.0646 43.0362 38.3384C45.8432 38.3384 48.6279 38.3384 51.4082 38.3384C51.4082 31.8795 51.4082 25.4322 51.4082 18.9888C48.6125 18.9888 45.8279 18.9888 43.0362 18.9888C43.0362 25.1588 43.0362 31.3171 43.0362 37.5084ZM39.6701 10.083C39.5581 9.9807 39.4552 9.86529 39.3322 9.77845C38.9006 9.47382 38.4651 9.17969 37.9743 8.96722C37.3772 8.70874 36.7563 8.58181 36.1143 8.55336C35.8634 8.54225 35.6091 8.58471 35.3578 8.61485C34.6274 8.70249 33.9616 8.96679 33.3539 9.3764C32.8681 9.70379 32.5092 10.1255 32.3353 10.7022C32.2214 11.0802 32.1529 11.4599 32.1027 11.8508C32.0478 12.2791 32.0893 12.6986 32.1553 13.1114C32.2325 13.5943 32.3976 14.0574 32.6516 14.4859C33.0829 15.2135 33.6988 15.7093 34.484 16.0091C35.0016 16.2068 35.5462 16.2683 36.0889 16.3339C36.5667 16.3917 37.0468 16.4334 37.5269 16.4668C37.9991 16.4996 38.4727 16.5309 38.9457 16.5312C39.9931 16.532 41.0405 16.5143 42.0878 16.5007C42.3103 16.4978 42.5327 16.4805 42.755 16.4689C43.1676 16.4473 43.5802 16.4264 43.9926 16.4024C44.3337 16.3826 44.6747 16.3608 45.0154 16.3355C45.146 16.3258 45.2757 16.304 45.4241 16.2853C45.2193 16.1081 45.0155 15.9548 44.8389 15.7748C44.2339 15.1585 43.6331 14.5378 43.0414 13.9088C42.6982 13.5439 42.3731 13.1619 42.0443 12.7836C41.7226 12.4135 41.4013 12.0428 41.0895 11.6644C40.6435 11.1233 40.2297 10.554 39.6701 10.083Z" fill="white"/>
<path d="M63.0693 12.1623C63.0474 12.3075 63.02 12.4366 63.0046 12.5671C62.9271 13.2239 62.6978 13.8215 62.32 14.3643C62.0541 14.7463 61.7034 15.0325 61.3168 15.2817C60.9062 15.5463 60.4464 15.6914 59.9792 15.7997C59.6036 15.8868 59.2154 15.921 58.8319 15.9722C58.3938 16.0308 57.9551 16.0865 57.5159 16.1354C57.2414 16.166 56.9656 16.189 56.6897 16.2027C56.1405 16.2298 55.5909 16.2594 55.0412 16.2679C53.8396 16.2865 52.6378 16.2997 51.436 16.3001C50.9798 16.3003 50.5235 16.2601 50.0674 16.2361C50.0162 16.2334 49.9658 16.216 49.8774 16.1975C50.0216 16.0709 50.152 15.9745 50.2608 15.8579C50.79 15.2905 51.3214 14.7248 51.8365 14.1448C52.2577 13.6705 52.6697 13.1868 53.0632 12.6894C53.5623 12.0584 54.026 11.3993 54.5281 10.7709C54.9968 10.1842 55.5085 9.63923 56.1241 9.19315C56.7227 8.75941 57.3682 8.43908 58.0835 8.26915C58.5857 8.14984 59.0988 8.09631 59.6147 8.18422C59.9635 8.24366 60.3206 8.28311 60.6551 8.3904C60.987 8.49684 61.3053 8.65883 61.6116 8.82871C62.244 9.17941 62.649 9.71802 62.8471 10.4139C62.955 10.7926 63.0405 11.1744 63.0567 11.5771C63.0693 11.7714 63.0693 11.9591 63.0693 12.1623Z" fill="#3159A8"/>
<path d="M47.7403 0.0332031C48.0677 0.151371 48.3906 0.24697 48.6888 0.393188C49.0982 0.593975 49.422 0.907205 49.7246 1.25044C50.0743 1.64702 50.3346 2.09357 50.5577 2.56537C50.7688 3.01203 50.9149 3.48411 50.9842 3.97136C51.0451 4.39964 51.1077 4.83885 51.0762 5.26634C51.0357 5.81493 50.934 6.3646 50.8013 6.89961C50.5363 7.96892 50.1466 8.99928 49.7282 10.0173C49.4873 10.6034 49.2389 11.1871 48.9715 11.7614C48.5895 12.5817 48.187 13.3924 47.793 14.2071C47.7794 14.2352 47.7624 14.2616 47.7338 14.3117C47.6246 14.0925 47.5258 13.8911 47.4242 13.6912C47.1349 13.1222 46.8481 12.5518 46.5533 11.9856C46.2693 11.4399 45.9775 10.8983 45.6875 10.3558C45.2835 9.59998 44.8597 8.85402 44.4791 8.08659C44.199 7.52173 44.0154 6.91689 43.8927 6.29492C43.7688 5.66684 43.7337 5.03229 43.7671 4.39697C43.8028 3.71601 43.9232 3.04954 44.1874 2.41156C44.4352 1.81304 44.78 1.28631 45.266 0.860264C45.7678 0.420394 46.3437 0.128063 47.0238 0.0454243C47.2614 0.0332026 47.4931 0.0332026 47.7403 0.0332031Z" fill="#3159A8"/>
<path d="M24.2573 8.51465C25.3949 8.51465 26.5159 8.51465 27.6532 8.51465C27.6532 12.0031 27.6532 15.4812 27.6532 18.9767C27.7333 18.9767 27.7975 18.9767 27.8617 18.9767C30.8316 18.9767 33.8016 18.9809 36.7715 18.9718C37.1737 18.9706 37.5544 19.0171 37.9249 19.1742C38.4527 19.398 38.9437 19.6854 39.3451 20.0927C39.9085 20.6643 40.3513 21.3278 40.6107 22.0902C40.7287 22.437 40.8134 22.8141 40.8161 23.1781C40.8421 26.5963 40.8485 30.0146 40.8573 33.4329C40.8613 35.0059 40.858 36.5788 40.858 38.1518C40.858 38.2114 40.858 38.2709 40.858 38.34C38.414 38.34 35.9811 38.34 33.5312 38.34C33.5312 38.2778 33.5312 38.2191 33.5312 38.1603C33.5312 34.2333 33.5274 30.3064 33.5386 26.3795C33.5394 26.0751 33.5058 25.8202 33.2629 25.6225C32.9917 25.4018 32.6732 25.2741 32.3363 25.2202C31.9158 25.1529 31.4894 25.1116 31.064 25.0878C30.6747 25.0661 30.2814 25.0587 29.8932 25.0883C29.3706 25.1281 28.8456 25.1993 28.3655 25.4257C28.0607 25.5694 27.7679 25.7517 27.6864 26.124C27.6716 26.1916 27.6579 26.2613 27.6579 26.33C27.6565 30.2625 27.6567 34.1949 27.6567 38.1273C27.6567 38.1931 27.6567 38.2589 27.6567 38.3372C24.9324 38.3372 22.2134 38.3372 19.4832 38.3372C19.4832 28.4068 19.4832 18.4717 19.4832 8.51465C21.0669 8.51465 22.6539 8.51465 24.2573 8.51465Z" fill="#3159A8"/>
<path d="M6.72589 19.0742C6.98071 19.0409 7.22078 18.9814 7.46096 18.981C10.7611 18.9749 14.0612 18.9769 17.3613 18.9769C17.3987 18.9769 17.4361 18.9769 17.4826 18.9769C17.4826 21.1137 17.4826 23.2388 17.4826 25.3795C17.4138 25.3795 17.3494 25.3795 17.285 25.3795C14.7935 25.3795 12.3019 25.3797 9.8103 25.3794C9.31248 25.3794 8.84669 25.5172 8.39879 25.7184C8.01875 25.8892 7.6718 26.1148 7.38863 26.4248C6.96834 26.8851 6.71575 27.4281 6.63646 28.0452C6.59784 28.3457 6.56186 28.6512 6.57318 28.9526C6.59868 29.6313 6.75957 30.2821 7.14523 30.8503C7.54623 31.441 8.10521 31.8325 8.77683 32.0825C9.23049 32.2514 9.68873 32.3145 10.1688 32.3132C12.5393 32.3067 14.9099 32.3102 17.2805 32.3102C17.3452 32.3102 17.41 32.3102 17.4831 32.3102C17.4831 34.3235 17.4831 36.3236 17.4831 38.3498C17.4359 38.3498 17.384 38.3498 17.332 38.3498C14.0264 38.3498 10.7208 38.357 7.41523 38.3405C7.01297 38.3385 6.60566 38.232 6.21057 38.1341C5.30033 37.9085 4.48022 37.4782 3.73721 36.9169C3.32815 36.6079 2.96748 36.2384 2.63904 35.835C2.23634 35.3404 1.89975 34.8092 1.62369 34.239C1.29461 33.5592 1.0451 32.8481 0.894851 32.1079C0.786323 31.5733 0.711629 31.0316 0.627301 30.4922C0.477919 29.5366 0.504762 28.572 0.539968 27.6133C0.565372 26.9215 0.678358 26.2296 0.797805 25.5456C0.890952 25.0123 1.02133 24.4802 1.19361 23.9672C1.4821 23.1081 1.89718 22.3044 2.45647 21.588C2.86631 21.0631 3.34889 20.6099 3.90008 20.2251C4.6304 19.7153 5.43073 19.3751 6.28563 19.1504C6.42447 19.114 6.5692 19.0999 6.72589 19.0742Z" fill="#3159A8"/>
<path d="M43.0364 37.4915C43.0364 31.3166 43.0364 25.1583 43.0364 18.9883C45.828 18.9883 48.6127 18.9883 51.4084 18.9883C51.4084 25.4317 51.4084 31.879 51.4084 38.3379C48.628 38.3379 45.8434 38.3379 43.0364 38.3379C43.0364 38.0641 43.0364 37.786 43.0364 37.4915Z" fill="#3159A8"/>
<path d="M39.6788 10.0916C40.2299 10.5542 40.6437 11.1235 41.0896 11.6646C41.4015 12.043 41.7228 12.4137 42.0445 12.7838C42.3732 13.1621 42.6984 13.5441 43.0416 13.909C43.6333 14.538 44.2341 15.1587 44.839 15.775C45.0157 15.955 45.2194 16.1083 45.4243 16.2855C45.2758 16.3042 45.1462 16.3261 45.0156 16.3357C44.6749 16.361 44.3338 16.3828 43.9927 16.4026C43.5803 16.4266 43.1677 16.4475 42.7552 16.4691C42.5328 16.4807 42.3105 16.498 42.088 16.5009C41.0406 16.5145 39.9932 16.5322 38.9458 16.5315C38.4728 16.5311 37.9993 16.4998 37.5271 16.467C37.0469 16.4336 36.5668 16.3919 36.0891 16.3342C35.5464 16.2685 35.0018 16.207 34.4841 16.0093C33.699 15.7095 33.083 15.2137 32.6518 14.4861C32.3978 14.0576 32.2326 13.5945 32.1554 13.1116C32.0894 12.6988 32.0479 12.2793 32.1029 11.851C32.1531 11.4601 32.2215 11.0804 32.3355 10.7024C32.5094 10.1257 32.8682 9.704 33.354 9.3766C33.9618 8.967 34.6276 8.70269 35.3579 8.61506C35.6092 8.58491 35.8636 8.54245 36.1144 8.55357C36.7564 8.58202 37.3773 8.70895 37.9744 8.96742C38.4653 9.1799 38.9008 9.47403 39.3324 9.77866C39.4554 9.8655 39.5582 9.98091 39.6788 10.0916Z" fill="#3159A8"/>
</g>
<defs>
<clipPath id="clip0_291_3772">
<rect width="63.0363" height="40" fill="white"/>
</clipPath>
</defs>
</svg>
