<svg width="300" height="100" viewBox="0 0 300 100" fill="none" xmlns="http://www.w3.org/2000/svg">
<rect width="300" height="100" fill="white"/>
<path fill-rule="evenodd" clip-rule="evenodd" d="M150.026 66.7135C151.878 60.285 155.563 61.546 158.706 59.0075C160.748 57.516 160.662 55.7425 159.509 53.8324L155.571 47.8455C161.235 48.2946 161.015 41.7428 157.323 41.7495C159.081 38.7976 155.77 35.3824 153.239 37.3834C153.224 34.403 151.472 33.2788 149.935 33.2872C148.053 33.3006 146.418 34.9901 146.555 37.4078C144.01 35.4339 140.99 38.5387 142.395 41.7495C138.803 41.9018 138.673 48.0736 144.002 47.8668L140.722 53.327C138.946 56.0878 139.497 58.0431 141.93 59.4803C147.605 62.1353 148.26 61.9268 150.026 66.7135H150.026Z" fill="#FEFEFE"/>
<path fill-rule="evenodd" clip-rule="evenodd" d="M149.895 34.2568C148.392 34.2568 147.497 35.687 147.503 37.277C147.518 38.6695 148.68 40.1357 148.82 41.452C148.947 42.6976 148.743 43.7236 148.192 43.7832C147.702 43.8448 146.891 42.9666 146.891 40.5505C146.891 38.693 145.54 37.0775 144.07 38.0111C143.023 38.6754 142.625 40.1456 143.397 41.5206C143.864 42.3402 144.843 42.82 145.422 43.4935C146.09 44.2796 146.195 45.3443 145.798 45.565C145.369 45.8096 144.285 44.808 143.619 43.5162C143.192 42.6826 141.845 42.3307 141.202 43.3647C139.98 45.3506 141.762 46.6892 142.932 46.8486C144.713 47.1036 146.907 46.4607 149.895 46.4607C152.893 46.4607 155.097 47.1036 156.878 46.8486C158.048 46.6892 159.831 45.3506 158.606 43.3647C157.964 42.3308 156.618 42.6826 156.189 43.5162C155.526 44.808 154.439 45.8095 154.004 45.565C153.606 45.3444 153.721 44.2796 154.385 43.4935C154.967 42.82 155.937 42.3402 156.403 41.5206C157.183 40.1456 156.787 38.6754 155.738 38.0111C154.262 37.0775 152.918 38.693 152.918 40.5505C152.918 42.9665 152.099 43.8448 151.609 43.7832C151.067 43.7235 150.854 42.6976 150.983 41.452C151.121 40.1357 152.291 38.6695 152.298 37.277C152.314 35.687 151.419 34.2568 149.895 34.2568H149.895Z" fill="#FF0000"/>
<path d="M154.218 47.5534C154.454 47.8295 158.737 54.2821 159.05 55.1148C159.364 55.9408 159.447 56.6826 159.119 57.1965C158.898 57.5555 158.614 57.8606 158.285 58.1266C157.964 58.4039 157.598 58.6316 157.2 58.8468C156.802 59.0606 156.374 59.2607 155.938 59.4506C155.494 59.635 155.043 59.8248 154.586 60.0232C154.134 60.2306 153.674 60.4454 153.231 60.6886C152.787 60.9339 152.353 61.2016 151.954 61.5233C151.549 61.8443 151.176 62.2113 150.837 62.6466C150.508 63.0753 150.21 63.5637 149.981 64.138C149.743 63.5637 149.452 63.0754 149.125 62.6466C148.803 62.2112 148.428 61.8443 148.03 61.5233C147.633 61.2016 147.205 60.9339 146.762 60.6886C146.318 60.4454 145.86 60.2306 145.407 60.0232C144.949 59.8248 144.49 59.635 144.055 59.4439C143.613 59.2607 143.182 59.0606 142.786 58.8468C142.388 58.6316 142.022 58.4038 141.692 58.1266C141.372 57.8606 141.088 57.5555 140.86 57.1965C140.54 56.6826 140.592 55.9408 140.873 55.1082C141.158 54.2821 145.125 47.8669 145.347 47.6C145.407 47.5303 147.657 47.1182 149.889 47.1182C152.129 47.1182 154.156 47.4925 154.218 47.5535V47.5534Z" fill="#FFE100"/>
<path d="M152.016 48.9673C151.112 49.6408 150.325 50.5202 149.813 51.7665C149.293 50.5202 148.52 49.6408 147.618 48.9754C148.398 49.2584 149.072 48.5714 149.813 48.5714C150.548 48.5624 151.336 49.2583 152.016 48.9673Z" fill="#FF0000"/>
<path fill-rule="evenodd" clip-rule="evenodd" d="M146.702 57.6159C146.655 57.5942 146.61 57.5762 146.533 57.5762C146.433 57.5762 146.365 57.6232 146.294 57.6838V57.6011H145.89V58.9846H146.294V58.0892C146.31 57.9897 146.372 57.9532 146.447 57.9532C146.525 57.9532 146.57 57.9839 146.625 58.0362L146.702 57.6159Z" fill="#FF0000"/>
<path fill-rule="evenodd" clip-rule="evenodd" d="M147.32 57.5752C146.982 57.5752 146.8 57.8294 146.8 58.3022C146.8 58.7391 146.975 59.013 147.32 59.013V58.6925C147.237 58.6863 147.19 58.6167 147.183 58.4096H147.32V58.1415H147.183C147.19 57.9447 147.228 57.8821 147.313 57.8821H147.32V57.5752ZM147.32 59.013C147.557 59.013 147.688 58.8996 147.802 58.7324L147.565 58.5389C147.48 58.6627 147.42 58.6925 147.343 58.6925H147.32V59.013ZM147.825 58.4095V58.3116C147.825 57.8229 147.65 57.5752 147.32 57.5752V57.8821C147.412 57.8821 147.45 57.9589 147.458 58.1415H147.32V58.4096H147.825V58.4095Z" fill="#FF0000"/>
<path fill-rule="evenodd" clip-rule="evenodd" d="M148.52 57.6088C148.483 57.6225 148.445 57.6526 148.406 57.6829V57.6002H148.008V59.4886L148.406 59.3349V58.9077C148.445 58.9376 148.483 58.9622 148.52 58.9837V58.6696C148.473 58.6696 148.445 58.648 148.406 58.6237V57.9673C148.445 57.9361 148.473 57.9143 148.52 57.9143V57.6089V57.6088ZM149.033 58.2887C149.033 57.8066 148.903 57.5752 148.665 57.5752C148.612 57.5752 148.565 57.5847 148.52 57.6088V57.9143H148.527C148.605 57.9143 148.635 57.9673 148.635 58.2955C148.635 58.6237 148.605 58.6696 148.527 58.6696H148.52V58.9837C148.565 58.9987 148.605 59.013 148.658 59.013C148.903 59.013 149.033 58.7853 149.033 58.2887V58.2887Z" fill="#FF0000"/>
<path fill-rule="evenodd" clip-rule="evenodd" d="M150.24 58.9844V57.6007H149.835V58.6174C149.797 58.6485 149.768 58.6633 149.713 58.6633C149.645 58.6633 149.613 58.6174 149.613 58.5096V57.6006H149.209V58.5789C149.209 58.8786 149.325 59.0137 149.552 59.0137C149.683 59.0137 149.768 58.9699 149.835 58.9083V58.9843H150.24L150.24 58.9844Z" fill="#FF0000"/>
<path fill-rule="evenodd" clip-rule="evenodd" d="M150.975 57.6092C150.938 57.6229 150.898 57.653 150.861 57.6833V57.0645L150.455 57.2255V58.984H150.861V58.9081C150.898 58.9379 150.938 58.9625 150.975 58.984V58.6699C150.929 58.6699 150.891 58.6483 150.861 58.624V57.9677C150.898 57.9364 150.929 57.9147 150.975 57.9147V57.6092ZM151.496 58.2891C151.496 57.807 151.358 57.5756 151.121 57.5756C151.067 57.5756 151.021 57.5851 150.975 57.6092V57.9147H150.983C151.051 57.9147 151.091 57.9677 151.091 58.2959C151.091 58.6241 151.051 58.67 150.983 58.67H150.975V58.9841C151.014 58.9991 151.059 59.0134 151.112 59.0134C151.358 59.0134 151.496 58.7857 151.496 58.2891V58.2891Z" fill="#FF0000"/>
<path fill-rule="evenodd" clip-rule="evenodd" d="M152.092 58.9841V57.0645L151.687 57.2253V58.9841H152.092Z" fill="#FF0000"/>
<path fill-rule="evenodd" clip-rule="evenodd" d="M152.726 57.6003H152.321V58.9841H152.726V57.6003ZM152.749 57.2627C152.749 57.1407 152.658 57.0576 152.519 57.0576C152.391 57.0576 152.292 57.1406 152.292 57.2627C152.292 57.3935 152.391 57.4779 152.519 57.4779C152.658 57.4779 152.749 57.3934 152.749 57.2627Z" fill="#FF0000"/>
<path fill-rule="evenodd" clip-rule="evenodd" d="M153.91 58.6104L153.613 58.4581C153.553 58.6244 153.513 58.6705 153.453 58.6705C153.354 58.6705 153.313 58.5791 153.313 58.2963C153.313 58.0132 153.354 57.9152 153.444 57.9152C153.521 57.9152 153.543 57.9681 153.583 58.1272L153.905 57.9753C153.828 57.7388 153.703 57.5762 153.444 57.5762C153.093 57.5762 152.909 57.8147 152.909 58.2963C152.909 58.7943 153.116 59.0139 153.435 59.0139C153.674 59.0139 153.813 58.8839 153.91 58.6104Z" fill="#FF0000"/>
<path fill-rule="evenodd" clip-rule="evenodd" d="M145.103 55.9804L144.584 55.7124C144.49 56.0088 144.422 56.088 144.316 56.088C144.148 56.088 144.077 55.9248 144.077 55.4511C144.077 54.9626 144.138 54.7935 144.3 54.7935C144.431 54.7935 144.475 54.8864 144.537 55.1614L145.088 54.9033C144.958 54.4879 144.743 54.2207 144.307 54.2207C143.695 54.2207 143.397 54.6266 143.397 55.4511C143.397 56.2928 143.743 56.667 144.292 56.667C144.698 56.667 144.927 56.4555 145.103 55.9804H145.103Z" fill="#FF0000"/>
<path fill-rule="evenodd" clip-rule="evenodd" d="M147.144 56.6142V54.955C147.144 54.4496 146.938 54.221 146.548 54.221C146.318 54.221 146.19 54.2974 146.065 54.404V53.3564L145.377 53.6248V56.6143H146.065V54.9034C146.127 54.8484 146.195 54.81 146.28 54.81C146.395 54.81 146.447 54.8932 146.447 55.0718V56.6143H147.144V56.6142Z" fill="#FF0000"/>
<path fill-rule="evenodd" clip-rule="evenodd" d="M148.2 54.266H147.512V56.6138H148.2V54.266ZM148.245 53.6928C148.245 53.4872 148.085 53.3398 147.855 53.3398C147.627 53.3398 147.465 53.4872 147.465 53.6928C147.465 53.906 147.627 54.0454 147.855 54.0454C148.085 54.0454 148.245 53.906 148.245 53.6928Z" fill="#FF0000"/>
<path fill-rule="evenodd" clip-rule="evenodd" d="M150.21 55.9804L149.697 55.7124C149.605 56.0088 149.537 56.088 149.422 56.088C149.262 56.088 149.195 55.9248 149.195 55.4511C149.195 54.9626 149.253 54.7935 149.415 54.7935C149.546 54.7935 149.589 54.8864 149.653 55.1614L150.203 54.9033C150.072 54.4879 149.86 54.2207 149.422 54.2207C148.817 54.2207 148.513 54.6266 148.513 55.4511C148.513 56.2928 148.857 56.667 149.408 56.667C149.812 56.667 150.042 56.4555 150.21 55.9804H150.21Z" fill="#FF0000"/>
<path fill-rule="evenodd" clip-rule="evenodd" d="M152.321 56.6143L151.825 55.0011L152.306 54.2666H151.571L151.472 54.4424C151.343 54.6728 151.228 54.9081 151.158 55.0469C151.176 54.8868 151.181 54.6188 151.181 54.4366V53.3564L150.493 53.6248V56.6143H151.181V55.8486L151.32 55.6136L151.594 56.6143H152.321H152.321Z" fill="#FF0000"/>
<path fill-rule="evenodd" clip-rule="evenodd" d="M153.376 54.2208C152.81 54.2208 152.496 54.6484 152.496 55.4509C152.496 56.201 152.795 56.6668 153.376 56.6668V56.1262C153.246 56.1101 153.154 55.9886 153.139 55.6427H153.376V55.1938H153.139C153.161 54.8481 153.231 54.7391 153.368 54.7391H153.376V54.2208ZM153.376 56.6668H153.383C153.782 56.6668 154.004 56.4756 154.203 56.1859L153.797 55.8648C153.651 56.0635 153.553 56.1262 153.414 56.1262H153.376V56.6668H153.376ZM154.241 55.6427V55.474C154.241 54.6338 153.944 54.2207 153.383 54.2207H153.376V54.739C153.537 54.739 153.599 54.8716 153.613 55.1938H153.376V55.6426H154.241L154.241 55.6427Z" fill="#FF0000"/>
<path fill-rule="evenodd" clip-rule="evenodd" d="M156.313 56.6139V54.9546C156.313 54.4493 156.106 54.2207 155.717 54.2207C155.494 54.2207 155.357 54.297 155.235 54.4036V54.2663H154.546V56.614H155.235V54.9031C155.296 54.848 155.364 54.8096 155.449 54.8096C155.563 54.8096 155.626 54.8929 155.626 55.0714V56.614H156.313L156.313 56.6139Z" fill="#FF0000"/>
</svg>
