<svg width="300" height="100" viewBox="0 0 300 100" fill="none" xmlns="http://www.w3.org/2000/svg">
<rect width="300" height="100" fill="white"/>
<g clip-path="url(#clip0_291_3771)">
<path d="M181.551 42.1784C181.551 51.4626 181.551 60.7469 181.551 70.0321C160.541 70.0321 139.532 70.0321 118.518 70.0321C118.518 56.7032 118.518 43.3731 118.518 30.0332C134.17 30.0332 149.826 30.0332 165.491 30.0454C164.826 30.1281 164.25 30.4204 163.748 30.8603C163.262 31.2863 162.917 31.813 162.669 32.4116C162.405 33.0495 162.285 33.716 162.249 34.397C162.216 35.0323 162.251 35.6668 162.375 36.2949C162.497 36.9169 162.681 37.5217 162.961 38.0866C163.342 38.854 163.765 39.6 164.169 40.3558C164.459 40.8983 164.751 41.4399 165.035 41.9856C165.33 42.5518 165.617 43.1222 165.906 43.6912C166.008 43.8911 166.106 44.0925 166.216 44.3117C166.244 44.2616 166.261 44.2352 166.275 44.2071C166.669 43.3924 167.071 42.5817 167.453 41.7614C167.721 41.1871 167.969 40.6034 168.21 40.0173C168.628 38.9993 169.018 37.9689 169.283 36.8996C169.416 36.3646 169.518 35.8149 169.558 35.2663C169.59 34.8388 169.527 34.3996 169.466 33.9714C169.397 33.4841 169.251 33.012 169.04 32.5654C168.817 32.0936 168.556 31.647 168.207 31.2504C167.904 30.9072 167.58 30.594 167.171 30.3932C166.873 30.247 166.55 30.1514 166.238 30.0332C171.34 30.0332 176.442 30.0332 181.551 30.0332C181.551 33.8736 181.551 37.714 181.539 41.5628C181.522 41.1751 181.437 40.7933 181.329 40.4146C181.131 39.7187 180.726 39.1801 180.093 38.8294C179.787 38.6595 179.469 38.4975 179.137 38.3911C178.802 38.2838 178.445 38.2443 178.097 38.1849C177.581 38.097 177.068 38.1505 176.565 38.2698C175.85 38.4398 175.205 38.7601 174.606 39.1938C173.99 39.6399 173.479 40.1849 173.01 40.7715C172.508 41.4 172.044 42.059 171.545 42.69C171.152 43.1875 170.74 43.6712 170.318 44.1455C169.803 44.7255 169.272 45.2912 168.743 45.8585C168.634 45.9752 168.503 46.0716 168.359 46.1982C168.448 46.2167 168.498 46.2341 168.549 46.2368C169.005 46.2608 169.462 46.3009 169.918 46.3008C171.12 46.3003 172.321 46.2872 173.523 46.2686C174.073 46.2601 174.622 46.2305 175.172 46.2034C175.447 46.1897 175.723 46.1667 175.998 46.1361C176.437 46.0872 176.876 46.0315 177.314 45.9729C177.697 45.9217 178.085 45.8874 178.461 45.8004C178.928 45.6921 179.388 45.547 179.799 45.2824C180.185 45.0332 180.536 44.7469 180.802 44.365C181.18 43.8222 181.409 43.2246 181.486 42.5678C181.502 42.4373 181.529 42.3082 181.551 42.1784ZM142.723 38.515C141.136 38.515 139.549 38.515 137.965 38.515C137.965 48.4721 137.965 58.4072 137.965 68.3375C140.695 68.3375 143.414 68.3375 146.139 68.3375C146.139 68.2593 146.139 68.1935 146.139 68.1277C146.139 64.1953 146.138 60.2628 146.14 56.3304C146.14 56.2616 146.154 56.1919 146.168 56.1243C146.25 55.7521 146.543 55.5698 146.847 55.426C147.328 55.1997 147.853 55.1285 148.375 55.0886C148.763 55.0591 149.157 55.0665 149.546 55.0882C149.971 55.1119 150.398 55.1533 150.818 55.2205C151.155 55.2744 151.474 55.4022 151.745 55.6228C151.988 55.8205 152.021 56.0755 152.021 56.3798C152.009 60.3068 152.013 64.2337 152.013 68.1606C152.013 68.2194 152.013 68.2782 152.013 68.3404C154.463 68.3404 156.896 68.3404 159.34 68.3404C159.34 68.2712 159.34 68.2117 159.34 68.1522C159.34 66.5792 159.343 65.0062 159.339 63.4333C159.33 60.015 159.324 56.5966 159.298 53.1785C159.295 52.8144 159.211 52.4374 159.093 52.0906C158.833 51.3281 158.39 50.6647 157.827 50.093C157.426 49.6857 156.935 49.3983 156.407 49.1745C156.036 49.0175 155.656 48.971 155.253 48.9722C152.284 48.9813 149.314 48.9771 146.344 48.9771C146.279 48.9771 146.215 48.9771 146.135 48.9771C146.135 45.4815 146.135 42.0035 146.135 38.515C144.998 38.515 143.877 38.515 142.723 38.515ZM125.193 49.0757C125.051 49.1001 124.906 49.1142 124.768 49.1507C123.913 49.3753 123.112 49.7155 122.382 50.2253C121.831 50.6101 121.348 51.0633 120.938 51.5882C120.379 52.3046 119.964 53.1083 119.676 53.9674C119.503 54.4804 119.373 55.0125 119.28 55.5459C119.16 56.2298 119.047 56.9217 119.022 57.6135C118.987 58.5722 118.96 59.5369 119.109 60.4924C119.194 61.0318 119.268 61.5735 119.377 62.1082C119.527 62.8484 119.777 63.5594 120.106 64.2392C120.382 64.8095 120.718 65.3406 121.121 65.8352C121.449 66.2386 121.81 66.6081 122.219 66.9171C122.962 67.4784 123.782 67.9087 124.693 68.1343C125.088 68.2322 125.495 68.3387 125.897 68.3407C129.203 68.3572 132.508 68.35 135.814 68.35C135.866 68.35 135.918 68.35 135.965 68.35C135.965 66.3238 135.965 64.3237 135.965 62.3104C135.892 62.3104 135.827 62.3104 135.762 62.3104C133.392 62.3104 131.021 62.3069 128.651 62.3134C128.171 62.3147 127.712 62.2516 127.259 62.0827C126.587 61.8327 126.028 61.4412 125.627 60.8505C125.242 60.2823 125.081 59.6315 125.055 58.9528C125.044 58.6514 125.08 58.346 125.118 58.0454C125.198 57.4283 125.45 56.8853 125.871 56.4251C126.154 56.115 126.501 55.8894 126.881 55.7186C127.329 55.5174 127.794 55.3796 128.292 55.3796C130.784 55.3799 133.275 55.3798 135.767 55.3798C135.831 55.3798 135.896 55.3798 135.965 55.3798C135.965 53.239 135.965 51.1139 135.965 48.9771C135.918 48.9771 135.881 48.9771 135.843 48.9771C132.543 48.9771 129.243 48.9751 125.943 48.9812C125.703 48.9816 125.463 49.0411 125.193 49.0757ZM161.518 67.5084C161.518 67.7865 161.518 68.0646 161.518 68.3384C164.325 68.3384 167.11 68.3384 169.89 68.3384C169.89 61.8795 169.89 55.4322 169.89 48.9888C167.094 48.9888 164.31 48.9888 161.518 48.9888C161.518 55.1588 161.518 61.3171 161.518 67.5084ZM158.152 40.083C158.04 39.9807 157.937 39.8653 157.814 39.7785C157.383 39.4738 156.947 39.1797 156.456 38.9672C155.859 38.7087 155.238 38.5818 154.596 38.5534C154.345 38.5422 154.091 38.5847 153.84 38.6149C153.109 38.7025 152.444 38.9668 151.836 39.3764C151.35 39.7038 150.991 40.1255 150.817 40.7022C150.703 41.0802 150.635 41.4599 150.585 41.8508C150.53 42.2791 150.571 42.6986 150.637 43.1114C150.714 43.5943 150.88 44.0574 151.134 44.4859C151.565 45.2135 152.181 45.7093 152.966 46.0091C153.484 46.2068 154.028 46.2683 154.571 46.3339C155.049 46.3917 155.529 46.4334 156.009 46.4668C156.481 46.4996 156.955 46.5309 157.428 46.5312C158.475 46.532 159.522 46.5143 160.57 46.5007C160.792 46.4978 161.015 46.4805 161.237 46.4689C161.649 46.4473 162.062 46.4264 162.475 46.4024C162.816 46.3826 163.157 46.3608 163.497 46.3355C163.628 46.3258 163.758 46.304 163.906 46.2853C163.701 46.1081 163.497 45.9548 163.321 45.7748C162.716 45.1585 162.115 44.5378 161.523 43.9088C161.18 43.5439 160.855 43.1619 160.526 42.7836C160.205 42.4135 159.883 42.0428 159.571 41.6644C159.125 41.1233 158.712 40.554 158.152 40.083Z" fill="white"/>
<path d="M181.551 42.1623C181.529 42.3075 181.502 42.4366 181.487 42.5671C181.409 43.2239 181.18 43.8215 180.802 44.3643C180.536 44.7463 180.185 45.0325 179.799 45.2817C179.388 45.5463 178.928 45.6914 178.461 45.7997C178.085 45.8868 177.697 45.921 177.314 45.9722C176.876 46.0308 176.437 46.0865 175.998 46.1354C175.723 46.166 175.447 46.189 175.172 46.2027C174.622 46.2298 174.073 46.2594 173.523 46.2679C172.322 46.2865 171.12 46.2997 169.918 46.3001C169.462 46.3003 169.005 46.2601 168.549 46.2361C168.498 46.2334 168.448 46.216 168.359 46.1975C168.504 46.0709 168.634 45.9745 168.743 45.8579C169.272 45.2905 169.803 44.7248 170.318 44.1448C170.74 43.6705 171.152 43.1868 171.545 42.6894C172.044 42.0584 172.508 41.3993 173.01 40.7709C173.479 40.1842 173.99 39.6392 174.606 39.1932C175.205 38.7594 175.85 38.4391 176.565 38.2691C177.068 38.1498 177.581 38.0963 178.097 38.1842C178.445 38.2437 178.803 38.2831 179.137 38.3904C179.469 38.4968 179.787 38.6588 180.094 38.8287C180.726 39.1794 181.131 39.718 181.329 40.4139C181.437 40.7926 181.522 41.1744 181.539 41.5771C181.551 41.7714 181.551 41.9591 181.551 42.1623Z" fill="#3159A8"/>
<path d="M166.222 30.0332C166.55 30.1514 166.873 30.247 167.171 30.3932C167.58 30.594 167.904 30.9072 168.207 31.2504C168.556 31.647 168.817 32.0936 169.04 32.5654C169.251 33.012 169.397 33.4841 169.466 33.9714C169.527 34.3996 169.59 34.8388 169.558 35.2663C169.518 35.8149 169.416 36.3646 169.283 36.8996C169.018 37.9689 168.628 38.9993 168.21 40.0173C167.969 40.6034 167.721 41.1871 167.453 41.7614C167.071 42.5817 166.669 43.3924 166.275 44.2071C166.261 44.2352 166.244 44.2616 166.216 44.3117C166.107 44.0925 166.008 43.8911 165.906 43.6912C165.617 43.1222 165.33 42.5518 165.035 41.9856C164.751 41.4399 164.459 40.8983 164.169 40.3558C163.765 39.6 163.342 38.854 162.961 38.0866C162.681 37.5217 162.497 36.9169 162.375 36.2949C162.251 35.6668 162.216 35.0323 162.249 34.397C162.285 33.716 162.405 33.0495 162.669 32.4116C162.917 31.813 163.262 31.2863 163.748 30.8603C164.25 30.4204 164.826 30.1281 165.506 30.0454C165.743 30.0332 165.975 30.0332 166.222 30.0332Z" fill="#3159A8"/>
<path d="M142.739 38.5146C143.877 38.5146 144.998 38.5146 146.135 38.5146C146.135 42.0031 146.135 45.4812 146.135 48.9767C146.215 48.9767 146.279 48.9767 146.344 48.9767C149.314 48.9767 152.284 48.9809 155.253 48.9718C155.656 48.9706 156.036 49.0171 156.407 49.1742C156.935 49.398 157.426 49.6854 157.827 50.0927C158.39 50.6643 158.833 51.3278 159.093 52.0902C159.211 52.437 159.295 52.8141 159.298 53.1781C159.324 56.5963 159.33 60.0146 159.339 63.4329C159.343 65.0059 159.34 66.5788 159.34 68.1518C159.34 68.2114 159.34 68.2709 159.34 68.34C156.896 68.34 154.463 68.34 152.013 68.34C152.013 68.2778 152.013 68.2191 152.013 68.1603C152.013 64.2333 152.009 60.3064 152.021 56.3795C152.021 56.0751 151.988 55.8202 151.745 55.6225C151.474 55.4018 151.155 55.2741 150.818 55.2202C150.398 55.1529 149.971 55.1116 149.546 55.0878C149.157 55.0661 148.763 55.0587 148.375 55.0883C147.853 55.1281 147.327 55.1993 146.847 55.4257C146.543 55.5694 146.25 55.7517 146.168 56.124C146.153 56.1916 146.14 56.2613 146.14 56.33C146.138 60.2625 146.139 64.1949 146.139 68.1273C146.139 68.1931 146.139 68.2589 146.139 68.3372C143.414 68.3372 140.695 68.3372 137.965 68.3372C137.965 58.4068 137.965 48.4717 137.965 38.5146C139.549 38.5146 141.136 38.5146 142.739 38.5146Z" fill="#3159A8"/>
<path d="M125.208 49.0742C125.463 49.0409 125.703 48.9814 125.943 48.981C129.243 48.9749 132.543 48.9769 135.843 48.9769C135.881 48.9769 135.918 48.9769 135.964 48.9769C135.964 51.1137 135.964 53.2388 135.964 55.3795C135.896 55.3795 135.831 55.3795 135.767 55.3795C133.275 55.3795 130.784 55.3797 128.292 55.3794C127.794 55.3794 127.329 55.5172 126.881 55.7184C126.501 55.8892 126.154 56.1148 125.871 56.4248C125.45 56.8851 125.198 57.4281 125.118 58.0452C125.08 58.3457 125.044 58.6512 125.055 58.9526C125.081 59.6313 125.242 60.2821 125.627 60.8503C126.028 61.441 126.587 61.8325 127.259 62.0825C127.712 62.2514 128.171 62.3145 128.651 62.3132C131.021 62.3067 133.392 62.3102 135.762 62.3102C135.827 62.3102 135.892 62.3102 135.965 62.3102C135.965 64.3235 135.965 66.3236 135.965 68.3498C135.918 68.3498 135.866 68.3498 135.814 68.3498C132.508 68.3498 129.203 68.357 125.897 68.3405C125.495 68.3385 125.088 68.232 124.692 68.1341C123.782 67.9085 122.962 67.4782 122.219 66.9169C121.81 66.6079 121.449 66.2384 121.121 65.835C120.718 65.3404 120.382 64.8092 120.106 64.239C119.777 63.5592 119.527 62.8481 119.377 62.1079C119.268 61.5733 119.194 61.0316 119.109 60.4922C118.96 59.5366 118.987 58.572 119.022 57.6133C119.047 56.9215 119.16 56.2296 119.28 55.5456C119.373 55.0123 119.503 54.4802 119.676 53.9672C119.964 53.1081 120.379 52.3044 120.938 51.588C121.348 51.0631 121.831 50.6099 122.382 50.2251C123.112 49.7153 123.913 49.3751 124.768 49.1504C124.906 49.114 125.051 49.0999 125.208 49.0742Z" fill="#3159A8"/>
<path d="M161.518 67.4915C161.518 61.3166 161.518 55.1583 161.518 48.9883C164.31 48.9883 167.095 48.9883 169.89 48.9883C169.89 55.4317 169.89 61.879 169.89 68.3379C167.11 68.3379 164.325 68.3379 161.518 68.3379C161.518 68.0641 161.518 67.786 161.518 67.4915Z" fill="#3159A8"/>
<path d="M158.161 40.0916C158.712 40.5542 159.126 41.1235 159.572 41.6646C159.883 42.043 160.205 42.4137 160.526 42.7838C160.855 43.1621 161.18 43.5441 161.524 43.909C162.115 44.538 162.716 45.1587 163.321 45.775C163.498 45.955 163.701 46.1083 163.906 46.2855C163.758 46.3042 163.628 46.3261 163.498 46.3357C163.157 46.361 162.816 46.3828 162.475 46.4026C162.062 46.4266 161.65 46.4475 161.237 46.4691C161.015 46.4807 160.792 46.498 160.57 46.5009C159.523 46.5145 158.475 46.5322 157.428 46.5315C156.955 46.5311 156.481 46.4998 156.009 46.467C155.529 46.4336 155.049 46.3919 154.571 46.3342C154.028 46.2685 153.484 46.207 152.966 46.0093C152.181 45.7095 151.565 45.2137 151.134 44.4861C150.88 44.0576 150.715 43.5945 150.637 43.1116C150.571 42.6988 150.53 42.2793 150.585 41.851C150.635 41.4601 150.703 41.0804 150.817 40.7024C150.991 40.1257 151.35 39.704 151.836 39.3766C152.444 38.967 153.109 38.7027 153.84 38.6151C154.091 38.5849 154.346 38.5425 154.596 38.5536C155.238 38.582 155.859 38.7089 156.456 38.9674C156.947 39.1799 157.383 39.474 157.814 39.7787C157.937 39.8655 158.04 39.9809 158.161 40.0916Z" fill="#3159A8"/>
</g>
<defs>
<clipPath id="clip0_291_3771">
<rect width="63.0363" height="40" fill="white" transform="translate(118.482 30)"/>
</clipPath>
</defs>
</svg>
