<svg width="300" height="100" viewBox="0 0 300 100" fill="none" xmlns="http://www.w3.org/2000/svg">
<rect width="300" height="100" fill="white"/>
<g clip-path="url(#clip0_298_12705)">
<path d="M81.141 30C70.4057 30 61.7031 38.4889 61.7031 48.9608C61.7031 59.4327 70.4057 67.9216 81.141 67.9216C91.8765 67.9216 100.579 59.4327 100.579 48.9608C100.579 38.4889 91.8765 30 81.141 30ZM82.8847 61.4333C82.8779 61.4333 82.8734 61.4333 82.8666 61.4333C82.8325 61.4333 82.8006 61.4221 82.7755 61.4C82.7459 61.3756 82.7299 61.3377 82.7299 61.3V56.0331C82.7299 55.9708 82.7733 55.9176 82.8347 55.9043C85.4866 55.2959 87.6014 53.2308 88.2274 50.6417C88.2411 50.5817 88.2957 50.5396 88.3594 50.5396H93.7567C93.7954 50.5396 93.8341 50.5551 93.8591 50.584C93.8842 50.6128 93.8978 50.6505 93.891 50.6905C93.1307 56.2728 88.603 60.6895 82.8847 61.4333ZM93.7635 47.5019H93.7567H88.3571C88.2934 47.5019 88.2387 47.4597 88.2251 47.3997C87.4489 44.18 84.5465 41.9329 81.1683 41.9329C77.1597 41.9329 73.8999 45.1127 73.8999 49.0229C73.8999 52.3181 76.2037 55.1493 79.5043 55.9064C79.5658 55.9197 79.6091 55.9731 79.6091 56.0352V61.3023C79.6091 61.34 79.5931 61.3756 79.5635 61.4021C79.5385 61.4244 79.5066 61.4355 79.4725 61.4355C79.4657 61.4355 79.4611 61.4355 79.4543 61.4355C73.1055 60.6072 68.3183 55.2715 68.3183 49.0252C68.3183 42.1128 74.0843 36.4883 81.1683 36.4883C87.5605 36.4883 93.0191 41.1402 93.8865 47.3132C93.8955 47.3309 93.9001 47.3509 93.9001 47.3709C93.9001 47.442 93.8386 47.5019 93.7635 47.5019Z" fill="#202654"/>
<path d="M111.786 48.9893C111.786 47.2307 112.127 45.5542 112.812 43.9599C113.498 42.3656 114.429 40.9889 115.61 39.8298C116.791 38.6707 118.212 37.747 119.876 37.0586C121.538 36.3725 123.304 36.0283 125.175 36.0283C127.046 36.0283 128.802 36.3747 130.441 37.0675C132.08 37.7603 133.52 38.7284 134.759 39.9697L131.918 43.0873C130.161 41.0866 127.912 40.0852 125.173 40.0852C123.539 40.0852 122.041 40.4915 120.677 41.3064C119.314 42.1213 118.246 43.2116 117.474 44.5794C116.703 45.9473 116.316 47.4305 116.316 49.0226C116.316 50.6281 116.714 52.1069 117.508 53.4591C118.303 54.8114 119.382 55.8817 120.746 56.6655C122.109 57.4517 123.598 57.8446 125.209 57.8446C126.393 57.8446 127.568 57.5893 128.733 57.0786C129.899 56.5678 130.894 55.8995 131.718 55.0757L134.388 58.1755C133.147 59.3413 131.747 60.2538 130.186 60.9134C128.624 61.5729 126.964 61.9037 125.207 61.9037C122.785 61.9037 120.547 61.3397 118.494 60.2139C116.441 59.0881 114.811 57.5315 113.6 55.5465C112.391 53.5613 111.786 51.3763 111.786 48.9893ZM137.347 61.4574V36.4569H141.606V46.6045C142.023 46.2958 142.376 46.0561 142.662 45.8851C142.949 45.7141 143.393 45.5431 143.99 45.3722C144.586 45.2011 145.235 45.1146 145.934 45.1146C146.858 45.1146 147.714 45.2522 148.504 45.5275C149.293 45.8029 150.001 46.2137 150.634 46.7643C151.265 47.3151 151.759 48.0545 152.114 48.9826C152.469 49.9109 152.647 50.9855 152.647 52.2069V61.4574H148.385V52.893C148.385 50.3682 147.252 49.1047 144.987 49.1047C142.733 49.1047 141.606 50.3461 141.606 52.8263V61.4551H137.347V61.4574ZM156.35 41.9815C155.831 41.4752 155.572 40.8557 155.572 40.1185C155.572 39.3813 155.831 38.764 156.35 38.2621C156.869 37.7625 157.511 37.5116 158.278 37.5116C159.034 37.5116 159.665 37.7581 160.172 38.2533C160.68 38.7484 160.933 39.3702 160.933 40.1163C160.933 40.8646 160.68 41.4885 160.172 41.9881C159.665 42.4877 159.034 42.7387 158.278 42.7387C157.511 42.7409 156.867 42.4877 156.35 41.9815ZM156.129 61.4574V45.4121H160.388V61.4574H156.129ZM164.229 69.9995V45.4121H168.488V46.6045C169.74 45.6119 171.26 45.1146 173.052 45.1146C175.469 45.1146 177.525 45.9295 179.219 47.5571C180.912 49.1847 181.759 51.1654 181.759 53.4991C181.759 55.0157 181.374 56.4191 180.603 57.7091C179.831 58.9993 178.777 60.0207 177.438 60.7734C176.1 61.5262 174.639 61.9015 173.052 61.9015C171.26 61.9015 169.738 61.4063 168.488 60.4182V69.9995H164.229ZM168.49 53.6967C168.547 54.8491 169.016 55.8395 169.901 56.6678C170.787 57.4961 171.836 57.9113 173.054 57.9113C174.295 57.9113 175.358 57.4761 176.25 56.6034C177.14 55.7307 177.586 54.6959 177.586 53.5014C177.586 52.3157 177.14 51.2875 176.25 50.4149C175.36 49.5422 174.295 49.107 173.054 49.107C171.836 49.107 170.787 49.5245 169.901 50.3571C169.016 51.1921 168.547 52.1779 168.49 53.3193V53.6967ZM184.195 69.9995V45.4121H188.454V46.6045C189.706 45.6119 191.226 45.1146 193.018 45.1146C195.435 45.1146 197.491 45.9295 199.184 47.5571C200.878 49.1847 201.726 51.1654 201.726 53.4991C201.726 55.0157 201.34 56.4191 200.568 57.7091C199.798 58.9993 198.743 60.0207 197.404 60.7734C196.066 61.5262 194.605 61.9015 193.018 61.9015C191.226 61.9015 189.704 61.4063 188.454 60.4182V69.9995H184.195ZM188.456 53.6967C188.513 54.8491 188.982 55.8395 189.868 56.6678C190.753 57.4961 191.802 57.9113 193.02 57.9113C194.261 57.9113 195.324 57.4761 196.216 56.6034C197.107 55.7307 197.552 54.6959 197.552 53.5014C197.552 52.3157 197.107 51.2875 196.216 50.4149C195.326 49.5422 194.261 49.107 193.02 49.107C191.802 49.107 190.753 49.5245 189.868 50.3571C188.982 51.1921 188.513 52.1779 188.456 53.3193V53.6967ZM203.368 53.5902C203.368 52.4577 203.568 51.3786 203.97 50.3505C204.37 49.3223 204.93 48.4209 205.652 47.6459C206.374 46.871 207.272 46.2559 208.347 45.7985C209.424 45.3433 210.599 45.1146 211.871 45.1146C213.448 45.1146 214.874 45.4987 216.148 46.2693C217.42 47.0397 218.408 48.0589 219.107 49.329C219.806 50.5991 220.155 51.987 220.155 53.4925C220.155 53.9654 220.12 54.4051 220.052 54.8114H207.51C207.758 55.8173 208.283 56.6211 209.09 57.2229C209.895 57.8246 210.895 58.1245 212.09 58.1245C212.878 58.1245 213.632 57.9778 214.355 57.6826C215.076 57.3873 215.668 56.9431 216.13 56.3525L219.036 58.6041C218.292 59.6321 217.307 60.4359 216.078 61.0222C214.848 61.6062 213.531 61.8993 212.122 61.8993C210.498 61.8993 209.016 61.5373 207.675 60.8113C206.335 60.0851 205.28 59.0859 204.514 57.8091C203.754 56.5367 203.368 55.129 203.368 53.5902ZM207.664 51.7605H215.863C215.74 50.9478 215.295 50.2661 214.527 49.7154C213.76 49.167 212.866 48.8917 211.839 48.8917C210.858 48.8917 209.998 49.1537 209.254 49.6754C208.508 50.1973 207.978 50.8923 207.664 51.7605ZM222.804 61.4574V45.4121H227.063V46.6045C227.851 46.0317 228.7 45.6386 229.608 45.4299C230.516 45.2211 231.775 45.1146 233.387 45.1146V49.1047C232.318 49.1047 231.4 49.1647 230.639 49.2869C229.879 49.4067 229.267 49.5755 228.804 49.7887C228.343 50.0018 227.983 50.2971 227.723 50.6702C227.464 51.0433 227.288 51.4363 227.2 51.8471C227.108 52.2579 227.066 52.7619 227.066 53.3549V61.4574H222.804ZM233.387 38.7329C233.387 38.4265 233.448 38.1333 233.571 37.8558C233.695 37.5782 233.859 37.3384 234.066 37.1386C234.272 36.9387 234.519 36.7789 234.803 36.6612C235.09 36.5435 235.388 36.4835 235.7 36.4835C236.012 36.4835 236.31 36.5435 236.595 36.6612C236.879 36.7811 237.123 36.9409 237.327 37.1408C237.532 37.3406 237.696 37.5827 237.816 37.8602C237.938 38.1378 237.999 38.4265 237.999 38.7284C237.999 39.0304 237.938 39.3191 237.816 39.5989C237.694 39.8787 237.532 40.1185 237.326 40.3205C237.12 40.5226 236.875 40.6825 236.59 40.8046C236.306 40.9245 236.007 40.9845 235.694 40.9845C235.276 40.9845 234.892 40.8845 234.536 40.6847C234.184 40.4849 233.902 40.2117 233.695 39.8653C233.49 39.5189 233.387 39.1415 233.387 38.7329ZM233.822 38.7329C233.822 38.9771 233.87 39.2081 233.967 39.4301C234.066 39.6522 234.198 39.8431 234.364 40.0052C234.53 40.1673 234.728 40.2961 234.96 40.3938C235.192 40.4893 235.436 40.5381 235.695 40.5381C236.036 40.5381 236.354 40.456 236.64 40.2939C236.927 40.1318 237.155 39.912 237.319 39.6344C237.484 39.3591 237.567 39.0571 237.567 38.7307C237.567 38.3998 237.484 38.0912 237.319 37.8092C237.155 37.5272 236.927 37.3007 236.635 37.1341C236.347 36.9676 236.03 36.8832 235.688 36.8832C235.347 36.8832 235.032 36.9676 234.746 37.1341C234.459 37.3007 234.234 37.5249 234.07 37.8092C233.904 38.0912 233.822 38.3998 233.822 38.7329ZM234.79 40.0074V37.445H235.591C235.691 37.445 235.778 37.4472 235.848 37.4494C235.919 37.4517 235.998 37.4605 236.087 37.4716C236.176 37.4827 236.251 37.4983 236.31 37.5183C236.371 37.5383 236.432 37.5649 236.495 37.6027C236.556 37.6382 236.606 37.6826 236.644 37.7314C236.683 37.7803 236.712 37.8425 236.738 37.918C236.76 37.9935 236.775 38.0778 236.775 38.1711C236.775 38.5841 236.558 38.8373 236.123 38.9349L236.775 40.0141H236.248L235.62 38.9705H235.228V40.0097H234.79V40.0074ZM235.228 38.5863H235.707C235.8 38.5863 235.882 38.5819 235.948 38.573C236.014 38.5641 236.078 38.5486 236.138 38.5219C236.199 38.4975 236.244 38.4575 236.276 38.4043C236.308 38.351 236.324 38.2843 236.324 38.2022C236.324 38.0556 236.274 37.9557 236.171 37.9069C236.068 37.858 235.914 37.8314 235.707 37.8314H235.228V38.5863Z" fill="#202654"/>
</g>
<defs>
<clipPath id="clip0_298_12705">
<rect width="177.333" height="40" fill="white" transform="translate(61.7031 30)"/>
</clipPath>
</defs>
</svg>
