<svg width="300" height="100" viewBox="0 0 300 100" fill="none" xmlns="http://www.w3.org/2000/svg">
<rect width="300" height="100" fill="white"/>
<path d="M184.851 55.4126C181.878 71.4715 167.558 84.5655 150.638 84.5655C143.388 84.5632 136.31 82.3533 130.347 78.2297L115.042 84.4247L121.029 68.7881C117.476 63.4462 115.381 57.0856 115.381 50.228C115.381 31.1379 131.548 15.4434 150.638 15.4434C168.403 15.4434 183.029 28.8437 184.975 46.087C166.655 45.8385 161.09 42.6417 157.504 40.1405C156.838 39.6795 156.114 39.3091 155.35 39.039C153.785 38.3515 152.054 37.9706 150.24 37.9706C143.217 37.9706 138.206 42.2855 138.206 49.317C138.206 56.3485 143.557 60.6551 150.58 60.6551C151.673 60.6551 152.741 60.5144 153.752 60.2576C155.59 59.8601 156.775 59.2058 156.775 59.2058C168.005 53.0191 181.969 54.4933 184.843 55.4209L184.851 55.4126Z" fill="#FFCF1F" stroke="#FFCF1F" stroke-width="0.0124231" stroke-miterlimit="10"/>
</svg>
