<svg width="300" height="100" viewBox="0 0 300 100" fill="none" xmlns="http://www.w3.org/2000/svg">
<rect width="300" height="100" fill="white"/>
<path fill-rule="evenodd" clip-rule="evenodd" d="M76 70C87.0457 70 96 61.0457 96 50C96 38.9543 87.0457 30 76 30C64.9543 30 56 38.9543 56 50C56 61.0457 64.9543 70 76 70ZM68.6984 46.5079C69.4283 46.5079 70.1429 46.2982 70.7571 45.9038C71.3713 45.5093 71.8592 44.9467 72.1628 44.2829C72.4664 43.6191 72.5729 42.8821 72.4696 42.1595C72.3664 41.4369 72.0577 40.7592 71.5803 40.207C73.1806 39.3394 74.9727 38.8862 76.793 38.8889C78.426 38.8889 79.9746 39.2457 81.3664 39.8857C80.9869 40.2331 80.6817 40.6537 80.4692 41.1222C80.2567 41.5907 80.1412 42.0973 80.1299 42.6117C80.1185 43.126 80.2114 43.6373 80.403 44.1147C80.5947 44.5921 80.881 45.0258 81.2447 45.3895C81.6085 45.7533 82.0422 46.0396 82.5196 46.2312C82.997 46.4228 83.5083 46.5158 84.0226 46.5044C84.5369 46.493 85.0436 46.3776 85.5121 46.1651C85.9806 45.9526 86.4012 45.6474 86.7486 45.2679C87.408 46.7023 87.7483 48.2626 87.746 49.8413C87.746 55.8902 82.8425 60.7937 76.7937 60.7937C70.7448 60.7937 65.8413 55.8902 65.8413 49.8413C65.8413 48.44 66.1041 47.0997 66.5841 45.8679C67.2097 46.2864 67.9457 46.5092 68.6984 46.5079ZM86.7486 45.2679C85.6525 42.8903 83.744 40.9824 81.3664 39.8863C82.0901 39.2238 83.0417 38.8662 84.0226 38.8878C85.0036 38.9095 85.9384 39.3089 86.6322 40.0027C87.326 40.6965 87.7254 41.6313 87.7471 42.6123C87.7687 43.5933 87.4111 44.5441 86.7486 45.2679ZM71.5803 40.207C69.2987 41.4448 67.5289 43.4502 66.5841 45.8679C66.1322 45.5662 65.7501 45.1713 65.4634 44.7097C65.1768 44.2481 64.9921 43.7305 64.922 43.1917C64.8518 42.6528 64.8978 42.1052 65.0567 41.5856C65.2156 41.066 65.4839 40.5864 65.8434 40.179C66.203 39.7716 66.6455 39.4458 67.1414 39.2235C67.6372 39.0013 68.1749 38.8877 68.7182 38.8903C69.2616 38.893 69.7981 39.0118 70.2918 39.2389C70.7854 39.466 71.2248 39.7961 71.5803 40.207Z" fill="black"/>
<path d="M113.47 44.6319C112.128 43.5883 110.477 43.0207 108.777 43.0186C104.587 43.0186 101.171 46.4338 101.171 50.6243C101.171 54.8147 104.587 58.23 108.777 58.23C110.621 58.23 112.318 57.5595 113.638 56.47L111.752 54.3119C108.987 56.4071 104.44 54.7519 104.44 50.6243C104.44 46.6852 108.735 44.9671 111.585 46.8109L113.47 44.6319ZM122.409 46.1824V43.249H116.354V46.1824H117.925V55.0033H116.354V57.9366H122.409V55.0033H120.858V46.1824H122.409ZM124.922 43.2281V57.9157H127.855V48.8643L129.322 52.0281V52.049L132.067 57.9366H135.189L132.129 51.6509C133.952 51.3366 135.105 49.43 135.105 47.649C135.105 45.2186 133.135 43.2281 130.705 43.2281H124.922ZM129.448 46.1614H130.705C131.522 46.1614 132.171 46.8319 132.171 47.649C132.172 48.0047 132.043 48.3483 131.807 48.6148C131.572 48.8812 131.246 49.052 130.893 49.0947L129.448 46.1614ZM149.053 44.6319C147.711 43.5883 146.059 43.0207 144.359 43.0186C140.169 43.0186 136.754 46.4338 136.754 50.6243C136.754 54.8147 140.169 58.23 144.359 58.23C146.203 58.23 147.9 57.5595 149.22 56.47L147.335 54.3119C144.569 56.4071 140.022 54.7519 140.022 50.6243C140.022 46.6852 144.317 44.9671 147.167 46.8109L149.053 44.6319ZM154.869 43.249H151.936V57.9157H160.338V55.0033H154.869V43.249ZM172.443 43.249H162.658V57.9366H172.38V55.0033H165.591V51.8186H171.248V48.8852H165.591V46.1824H172.443V43.249ZM175.117 43.249V57.9366H178.051V52.07H179.874C181.041 52.07 182.16 51.6064 182.985 50.7813C183.81 49.9561 184.274 48.8369 184.274 47.67C184.274 45.2395 182.304 43.249 179.874 43.249H175.117ZM178.051 49.1366V46.1824H179.874C180.67 46.1824 181.34 46.8528 181.34 47.67C181.339 48.0586 181.184 48.431 180.909 48.7058C180.635 48.9806 180.262 49.1355 179.874 49.1366H178.051ZM192.405 43.249H191.546L184.464 57.1614V57.9366H198.984V57.1614L192.405 43.249ZM188.843 55.0033L191.902 49.0109L194.71 55.0033H188.843ZM211.986 57.9366L203.731 49.3671V57.9366H200.797V43.249H201.719L209.828 51.4624V43.249H212.761V57.9366H211.986ZM215.489 43.249V57.9157H216.683V57.9366H219.637C220.622 57.9366 221.586 57.7481 222.487 57.35C223.367 56.9938 224.142 56.449 224.813 55.7786C225.494 55.1225 226.03 54.33 226.384 53.4528C226.782 52.5519 226.971 51.5881 226.971 50.5824C226.971 49.5976 226.782 48.6338 226.384 47.7328C226.028 46.8528 225.504 46.0776 224.813 45.3862C224.146 44.7179 223.356 44.1844 222.487 43.8147C221.584 43.4386 220.615 43.2463 219.637 43.249H215.489ZM219.637 46.1824C220.392 46.1824 221.104 46.3709 221.712 46.7062L218.422 53.8509V46.1824H219.637ZM219.428 55.0033L222.864 47.5862C223.597 48.3614 224.037 49.43 224.037 50.5824C224.037 53.0128 222.068 55.0033 219.637 55.0033H219.428ZM235.721 43.249H234.862L227.78 57.1614V57.9366H242.3V57.1614L235.721 43.249ZM232.159 55.0033L235.218 49.0109L238.026 55.0033H232.159Z" fill="black"/>
</svg>
