<svg width="300" height="100" viewBox="0 0 300 100" fill="none" xmlns="http://www.w3.org/2000/svg">
<rect width="300" height="100" fill="white"/>
<g clip-path="url(#clip0_291_3297)">
<path d="M115.745 57.107C115.745 49.9905 121.563 44.4502 129.145 44.4502C133.532 44.4502 137.537 46.4084 139.826 49.3696L136.536 52.6652C135.663 51.546 134.55 50.6384 133.278 50.0099C132.007 49.3814 130.61 49.0483 129.192 49.0353C124.662 49.0353 121.038 52.4264 121.038 57.107C121.038 61.8354 124.662 65.2264 129.192 65.2264C130.661 65.2247 132.109 64.8833 133.424 64.2288C134.739 63.5743 135.886 62.6244 136.774 61.4533L140.017 64.6532C137.823 67.7579 133.627 69.8115 129.145 69.8115C121.563 69.8115 115.745 64.2711 115.745 57.107Z" fill="#255BE3"/>
<path d="M144.308 45.3105H149.506V68.9525H144.308V45.3105Z" fill="#255BE3"/>
<path d="M159.186 62.5998V49.7043H153.512V45.3102H159.425V40.2474L164.289 37.8594V45.3102H172.014V49.7043H164.289V61.7402C164.289 64.1284 165.624 65.1789 168.151 65.1789C169.466 65.1857 170.767 64.9087 171.966 64.367V68.8565C170.464 69.5165 168.837 69.8426 167.197 69.8118C162.572 69.8118 159.186 67.2806 159.186 62.5998Z" fill="#255BE3"/>
<path d="M176.114 45.3105H181.312V68.9525H176.114V45.3105Z" fill="#255BE3"/>
<path d="M162.762 30.2657C167.031 30.2555 171.24 31.2743 175.033 33.2362C178.826 35.198 182.091 38.0452 184.554 41.5374H178.498C176.513 39.3276 174.087 37.5605 171.376 36.3509C168.665 35.1414 165.73 34.5163 162.762 34.5163C159.794 34.5163 156.86 35.1414 154.149 36.3509C151.438 37.5605 149.011 39.3276 147.026 41.5374H140.97C143.433 38.0452 146.699 35.198 150.492 33.2362C154.285 31.2743 158.493 30.2555 162.762 30.2657Z" fill="#FF3C28"/>
</g>
<defs>
<clipPath id="clip0_291_3297">
<rect width="69.1525" height="40" fill="white" transform="translate(115.424 30)"/>
</clipPath>
</defs>
</svg>
