<svg width="300" height="100" viewBox="0 0 300 100" fill="none" xmlns="http://www.w3.org/2000/svg">
<rect width="300" height="100" fill="white"/>
<g clip-path="url(#clip0_298_12678)">
<path d="M100.473 37.1242H101.551C101.787 37.1242 101.978 37.3151 101.978 37.5512V38.3321C101.978 38.5681 101.787 38.759 101.551 38.759H100.473C100.236 38.759 100.045 38.9499 100.045 39.186V40.5442C100.045 40.7803 99.854 40.9712 99.6176 40.9712H98.6871C98.4506 40.9712 98.2593 40.7803 98.2593 40.5442V39.1871C98.2593 38.9511 98.0681 38.7602 97.8316 38.7602H96.748C96.5115 38.7602 96.3203 38.5693 96.3203 38.3333V37.5523C96.3203 37.3163 96.5115 37.1254 96.748 37.1254H97.8316C98.0681 37.1254 98.2593 36.9345 98.2593 36.6985V35.4015C98.2593 35.1655 98.4506 34.9746 98.6871 34.9746H99.6176C99.854 34.9746 100.045 35.1655 100.045 35.4015V36.6985C100.045 36.9333 100.236 37.1242 100.473 37.1242Z" fill="#00C872"/>
<path d="M104.072 35.3101C104.674 35.6072 105.402 35.3596 105.699 34.757C105.996 34.1544 105.748 33.425 105.147 33.1279L104.072 35.3101ZM89.1001 43.5307L87.6632 37.6908L85.3047 38.273L86.7415 44.1129L89.1001 43.5307ZM87.5022 38.021L99.2016 32.789L98.2114 30.5674L86.5118 35.7993L87.5022 38.021ZM98.9586 32.7843L104.072 35.3101L105.147 33.1279L100.033 30.6022L98.9586 32.7843ZM99.2016 32.789C99.124 32.8237 99.0348 32.822 98.9586 32.7843L100.033 30.6022C99.4611 30.3198 98.7934 30.307 98.2114 30.5674L99.2016 32.789ZM87.6632 37.6908C87.6964 37.8254 87.6285 37.9645 87.5022 38.021L86.5118 35.7993C85.565 36.2228 85.0566 37.2645 85.3047 38.273L87.6632 37.6908Z" fill="#00C872"/>
<path d="M107.506 35.0312L111.33 37.1138L110.055 43.9399" stroke="#00C872" stroke-width="1.23823" stroke-linecap="round" stroke-linejoin="round"/>
<path d="M93.923 56.047H94.8712L95.1873 55.4195L95.7141 56.8839L97.2944 53.3271L97.8212 58.7669H98.4534L99.1909 56.2563H99.9284L100.245 55.3148L100.455 55.7333L100.877 54.6871L101.719 56.047H104.353" stroke="#00C872" stroke-width="0.355472" stroke-linecap="round" stroke-linejoin="round"/>
<path d="M86.4688 49.2002C83.5917 49.2002 85.2723 65.8605 86.9527 63.4308" stroke="#00C872" stroke-width="0.651698"/>
<path d="M111.492 44.8106C111.279 44.2077 111.241 43.4743 111.352 42.8415C111.638 41.1928 112.035 39.5615 112.418 37.9313C112.665 36.8785 112.395 36.1449 111.34 35.7065C109.917 35.1152 109.329 34.7705 109.028 34.5981L109.023 34.5958C108.905 34.5472 108.786 34.5009 108.666 34.4593C108.211 34.3007 107.635 34.4893 107.113 34.5217C107.161 34.7196 107.206 34.9174 107.252 35.1152V35.1164C107.343 35.4982 107.433 35.8812 107.536 36.2595C107.599 36.3208 107.664 36.3625 107.716 36.3902C107.745 36.4041 107.773 36.418 107.798 36.433C107.806 36.4377 107.813 36.4411 107.819 36.4446C108.588 36.927 109.978 37.376 110.005 37.8966C110.082 39.3509 109.68 40.8607 109.269 42.2907C109.17 42.6355 108.282 42.9873 107.79 42.9443C105.425 42.7419 103.068 42.1426 100.715 42.1797C97.3723 42.2329 94.0265 42.6367 90.7027 43.0567C89.2262 43.2429 88.4288 43.0081 88.1889 41.4022C88.0023 40.155 87.541 38.9483 87.176 37.6305C90.858 36.0987 94.5666 34.5183 98.3157 33.0396C98.3343 33.0327 98.3516 33.0258 98.3703 33.02C99.3856 32.6486 100.084 33.2317 100.117 33.2595L100.118 33.2606C101.243 33.5429 102.11 34.0474 102.809 34.4974C103.756 35.1072 104.398 35.6174 104.962 35.349C105.147 35.261 105.39 35.0586 105.55 34.5183C105.268 33.9722 105.127 33.1646 104.681 32.9297C103.098 32.0944 101.429 31.4095 99.7529 30.7697C99.2579 30.5811 98.558 30.551 98.0794 30.7523C94.3417 32.32 90.6389 33.9722 86.9164 35.5757C85.4248 36.219 85.0377 37.3112 85.448 38.8048C85.616 39.4168 85.718 40.0474 85.8583 40.6675C86.3636 42.9236 87.1632 45.0628 85.6809 47.4185C84.8789 48.6945 84.967 50.5283 84.653 52.1099V58.7266C85.0342 60.6391 85.3657 62.5642 85.8084 64.4628C86.52 67.5091 88.9584 69.4956 92.0296 69.3996C94.2201 69.3314 96.3977 68.9368 98.5892 68.8362C99.6659 68.7875 100.755 69.1265 101.845 69.2005C103.519 69.314 105.201 69.4331 106.877 69.3996C109.752 69.3428 111.148 67.2973 111.783 64.9569C113.606 58.2465 113.86 51.4991 111.492 44.8106ZM90.6598 45.0987C93.301 44.7967 95.9283 44.2147 98.5719 44.1419C100.785 44.0818 103.016 44.6092 105.239 44.8637C105.837 44.9333 106.437 45.0085 107.031 45.1045C109.669 45.5301 109.707 45.5314 109.392 48.4445H88.2318C87.9235 45.7651 88.255 45.3729 90.6598 45.0987ZM105.327 51.0097C106.638 51.0235 107.252 51.5337 107.177 53.032C107.035 55.8735 106.687 58.5588 104.392 60.5859C101.594 63.0571 97.5578 63.3649 94.4113 61.324C91.2879 59.2981 89.7176 55.3113 90.8927 51.9792C91.0619 51.5002 92.0239 51.0571 92.6416 51.0223C94.7787 50.9067 96.9274 50.9784 99.0703 50.9784V51.0039C101.156 51.0039 103.242 50.9865 105.327 51.0097ZM110.726 52.1515C110.48 56.1223 110.412 60.1253 109.817 64.0475C109.391 66.8658 107.714 67.8805 104.89 67.4396C100.835 66.8068 96.8323 66.8289 92.7772 67.4073C89.6573 67.8515 87.7983 66.3637 87.4286 62.8963C87.0612 59.4543 87.1412 55.9649 87.0357 52.4963C87.0288 52.2695 87.0439 51.9873 87.169 51.8242C87.4136 51.5049 87.745 51.2527 88.0394 50.9725C88.2074 51.3371 88.4891 51.6922 88.5215 52.0683C88.6838 53.9517 88.4844 55.9187 88.9596 57.7107C89.9563 61.4674 92.6184 63.9109 96.3282 64.8401C100.531 65.8916 104.262 64.8468 107.026 61.2777C108.911 58.8458 109.735 56.0679 109.676 53.0089C109.662 52.2915 109.673 51.5731 109.673 50.8545C109.894 50.8291 110.114 50.8025 110.333 50.777C110.472 51.2353 110.754 51.7026 110.726 52.1515Z" fill="#00C872"/>
<path d="M129.387 62.1511C127.845 62.1511 126.408 61.9037 125.075 61.4088C123.762 60.8949 122.62 60.1716 121.649 59.239C120.679 58.3063 119.917 57.2119 119.365 55.9557C118.832 54.6994 118.566 53.3194 118.566 51.8158C118.566 50.3121 118.832 48.9322 119.365 47.676C119.917 46.4198 120.679 45.3253 121.649 44.3926C122.639 43.46 123.791 42.7462 125.104 42.2513C126.417 41.7374 127.854 41.4805 129.415 41.4805C131.147 41.4805 132.708 41.785 134.097 42.3941C135.506 42.9841 136.686 43.8597 137.638 45.0207L134.668 47.7616C133.983 46.9813 133.222 46.4007 132.384 46.02C131.547 45.6204 130.633 45.4205 129.644 45.4205C128.711 45.4205 127.854 45.5727 127.074 45.8773C126.294 46.1818 125.618 46.6196 125.047 47.1906C124.476 47.7616 124.029 48.4373 123.705 49.2177C123.4 49.9981 123.248 50.8641 123.248 51.8158C123.248 52.7674 123.4 53.6335 123.705 54.414C124.029 55.1943 124.476 55.87 125.047 56.441C125.618 57.012 126.294 57.4497 127.074 57.7543C127.854 58.0589 128.711 58.2111 129.644 58.2111C130.633 58.2111 131.547 58.0208 132.384 57.6401C133.222 57.2404 133.983 56.6408 134.668 55.8414L137.638 58.5823C136.686 59.7433 135.506 60.6284 134.097 61.2375C132.708 61.8465 131.138 62.1511 129.387 62.1511Z" fill="#00C872"/>
<path d="M140.447 61.8085V40.624H144.901V61.8085H140.447Z" fill="#00C872"/>
<path d="M158.456 61.8083V58.8105L158.171 58.1539V52.7864C158.171 51.8347 157.876 51.0923 157.286 50.5594C156.715 50.0265 155.83 49.76 154.63 49.76C153.812 49.76 153.003 49.8932 152.204 50.1597C151.423 50.4072 150.757 50.7498 150.205 51.1875L148.606 48.0755C149.444 47.4854 150.453 47.0286 151.633 46.7051C152.813 46.3814 154.012 46.2197 155.23 46.2197C157.571 46.2197 159.389 46.7717 160.683 47.8756C161.977 48.9796 162.625 50.7021 162.625 53.0433V61.8083H158.456ZM153.774 62.0368C152.575 62.0368 151.547 61.8369 150.69 61.4372C149.834 61.0185 149.177 60.457 148.72 59.7526C148.264 59.0484 148.035 58.2586 148.035 57.383C148.035 56.4693 148.254 55.6699 148.692 54.9848C149.149 54.2995 149.862 53.7666 150.833 53.3859C151.804 52.9862 153.07 52.7864 154.63 52.7864H158.713V55.3844H155.116C154.069 55.3844 153.346 55.5557 152.946 55.8984C152.565 56.241 152.375 56.6692 152.375 57.1832C152.375 57.7541 152.594 58.2109 153.032 58.5536C153.488 58.8771 154.107 59.0389 154.887 59.0389C155.63 59.0389 156.296 58.8676 156.886 58.525C157.476 58.1634 157.904 57.64 158.171 56.9547L158.856 59.0104C158.532 60.0001 157.942 60.752 157.086 61.2659C156.229 61.7797 155.125 62.0368 153.774 62.0368Z" fill="#00C872"/>
<path d="M167.198 61.8081V46.1054C167.198 44.3733 167.712 42.9933 168.74 41.9655C169.768 40.9187 171.233 40.3952 173.136 40.3952C173.784 40.3952 174.402 40.4618 174.992 40.5951C175.601 40.7283 176.115 40.9377 176.534 41.2232L175.363 44.4494C175.116 44.2781 174.84 44.1448 174.535 44.0497C174.231 43.9545 173.907 43.907 173.565 43.907C172.918 43.907 172.413 44.0973 172.052 44.478C171.709 44.8396 171.538 45.3916 171.538 46.1339V47.5614L171.652 49.4743V61.8081H167.198ZM164.828 50.2166V46.7905H175.478V50.2166H164.828ZM177.99 61.8081V46.4479H182.444V61.8081H177.99ZM180.217 44.3067C179.399 44.3067 178.732 44.0687 178.219 43.5929C177.705 43.1171 177.448 42.527 177.448 41.8228C177.448 41.1185 177.705 40.5285 178.219 40.0526C178.732 39.5768 179.399 39.3389 180.217 39.3389C181.035 39.3389 181.702 39.5673 182.216 40.0241C182.729 40.4618 182.986 41.0329 182.986 41.7371C182.986 42.4795 182.729 43.098 182.216 43.5929C181.721 44.0687 181.055 44.3067 180.217 44.3067Z" fill="#00C872"/>
<path d="M188.504 67.5757C187.705 67.5757 186.915 67.452 186.135 67.2046C185.354 66.9572 184.717 66.6145 184.222 66.1767L185.849 63.0077C186.192 63.3121 186.582 63.5501 187.02 63.7214C187.477 63.8927 187.924 63.9783 188.362 63.9783C188.99 63.9783 189.485 63.8261 189.846 63.5215C190.227 63.236 190.57 62.7506 190.874 62.0655L191.673 60.1812L192.016 59.6958L197.526 46.4482H201.809L194.871 62.7506C194.376 63.9879 193.805 64.9585 193.158 65.6629C192.53 66.3671 191.826 66.862 191.045 67.1474C190.284 67.4329 189.437 67.5757 188.504 67.5757ZM191.131 62.408L184.279 46.4482H188.876L194.186 59.296L191.131 62.408Z" fill="#00C872"/>
<path d="M212.546 61.8083V58.8105L212.26 58.1539V52.7864C212.26 51.8347 211.965 51.0923 211.376 50.5594C210.804 50.0265 209.92 49.76 208.721 49.76C207.902 49.76 207.093 49.8932 206.293 50.1597C205.513 50.4072 204.846 50.7498 204.296 51.1875L202.697 48.0755C203.533 47.4854 204.542 47.0286 205.723 46.7051C206.902 46.3814 208.101 46.2197 209.32 46.2197C211.661 46.2197 213.478 46.7717 214.773 47.8756C216.067 48.9796 216.715 50.7021 216.715 53.0433V61.8083H212.546ZM207.864 62.0368C206.665 62.0368 205.637 61.8369 204.78 61.4372C203.924 61.0185 203.267 60.457 202.81 59.7526C202.354 59.0484 202.125 58.2586 202.125 57.383C202.125 56.4693 202.344 55.6699 202.781 54.9848C203.238 54.2995 203.953 53.7666 204.923 53.3859C205.893 52.9862 207.16 52.7864 208.721 52.7864H212.803V55.3844H209.205C208.158 55.3844 207.436 55.5557 207.036 55.8984C206.656 56.241 206.465 56.6692 206.465 57.1832C206.465 57.7541 206.684 58.2109 207.122 58.5536C207.578 58.8771 208.197 59.0389 208.978 59.0389C209.72 59.0389 210.386 58.8676 210.976 58.525C211.566 58.1634 211.994 57.64 212.26 56.9547L212.946 59.0104C212.622 60.0001 212.033 60.752 211.176 61.2659C210.32 61.7797 209.216 62.0368 207.864 62.0368Z" fill="#00C872"/>
</g>
<defs>
<clipPath id="clip0_298_12678">
<rect width="132.571" height="40" fill="white" transform="translate(84.3984 30)"/>
</clipPath>
</defs>
</svg>
