<svg width="300" height="100" viewBox="0 0 300 100" fill="none" xmlns="http://www.w3.org/2000/svg">
<rect width="300" height="100" fill="white"/>
<g clip-path="url(#clip0_298_12660)">
<path d="M55.08 60.0892L55.0395 60.1287C51.7202 60.1287 49.0216 59.1679 46.9436 57.2463C44.8927 55.3246 43.8672 52.8632 43.8672 49.8622C43.8672 46.835 44.9062 44.3736 46.9841 42.4782C49.0621 40.5565 51.7472 39.5957 55.0395 39.5957C57.6572 39.5957 59.8836 40.2143 61.7187 41.4516C63.5807 42.6888 64.8085 44.3604 65.4023 46.4664H59.978C59.5193 45.6503 58.8581 45.0054 57.9945 44.5315C57.131 44.0314 56.146 43.7812 55.0395 43.7812C53.3124 43.7812 51.8821 44.3472 50.7487 45.4792C49.6423 46.6111 49.089 48.059 49.089 49.8227C49.089 51.5864 49.6423 53.0343 50.7487 54.1663C51.8821 55.2982 53.3394 55.8642 55.1205 55.8642C56.9286 55.8642 58.3588 55.2851 59.4113 54.1268C60.4908 52.9422 60.936 51.4286 60.7472 49.5858H66.0095C66.1984 52.6922 65.2673 55.2192 63.2164 57.1672C61.1655 59.1152 58.4533 60.0892 55.08 60.0892Z" fill="black"/>
<path d="M80.104 60.0887C76.8116 60.0887 74.1129 59.1279 72.008 57.2062C69.903 55.2846 68.8506 52.8232 68.8506 49.8222C68.8506 46.8212 69.903 44.3599 72.008 42.4382C74.1129 40.5165 76.8116 39.5557 80.104 39.5557C83.3693 39.5557 86.0544 40.5165 88.1593 42.4382C90.2642 44.3599 91.3168 46.8212 91.3168 49.8222C91.3168 52.8232 90.2642 55.2846 88.1593 57.2062C86.0544 59.1279 83.3693 60.0887 80.104 60.0887ZM75.6917 54.2052C76.8521 55.3372 78.3228 55.9031 80.104 55.9031C81.885 55.9031 83.3557 55.3372 84.5162 54.2052C85.6766 53.047 86.2568 51.5859 86.2568 49.8222C86.2568 48.0584 85.6766 46.6106 84.5162 45.4787C83.3557 44.3204 81.885 43.7412 80.104 43.7412C78.3228 43.7412 76.8521 44.3204 75.6917 45.4787C74.5582 46.6106 73.9916 48.0584 73.9916 49.8222C73.9916 51.5859 74.5582 53.047 75.6917 54.2052Z" fill="black"/>
<path d="M100.833 35.844C100.105 36.4758 99.1871 36.7917 98.0807 36.7917C96.9741 36.7917 96.0432 36.4758 95.2876 35.844C94.5589 35.1859 94.1945 34.3699 94.1945 33.3959C94.1945 32.4219 94.5589 31.619 95.2876 30.9872C96.0432 30.3291 96.9741 30 98.0807 30C99.1871 30 100.105 30.3291 100.833 30.9872C101.589 31.619 101.967 32.4219 101.967 33.3959C101.967 34.3699 101.589 35.1859 100.833 35.844ZM95.5304 59.694V39.9506H100.59V59.694H95.5304Z" fill="black"/>
<path d="M118.092 39.5557H118.052C120.4 39.5557 122.262 40.2664 123.638 41.6879C125.014 43.1095 125.703 45.0575 125.703 47.532V59.6939H120.562V48.4402C120.562 46.9923 120.17 45.8604 119.388 45.0443C118.605 44.2283 117.512 43.8203 116.109 43.8203C114.544 43.8203 113.302 44.3204 112.385 45.3207C111.467 46.3211 111.008 47.6899 111.008 49.4274V59.7334H105.949V39.99H111.008V43.8598H111.049C112.29 40.9903 114.638 39.5557 118.092 39.5557Z" fill="black"/>
<path d="M143.253 39.5557V39.6346C146.087 39.6346 148.448 40.6086 150.337 42.5567C152.253 44.5047 153.211 46.9528 153.211 49.9012C153.211 52.8232 152.253 55.2582 150.337 57.2062C148.448 59.1542 146.087 60.1282 143.253 60.1282C141.58 60.1282 140.095 59.7596 138.8 59.0226C137.532 58.2592 136.56 57.1931 135.886 55.8242H135.805V69.9999H130.745V39.99H135.805V43.8992H135.886C136.56 42.5303 137.532 41.4642 138.8 40.7008C140.095 39.9374 141.58 39.5557 143.253 39.5557ZM141.796 55.9427V55.9822C143.604 55.9822 145.088 55.4162 146.248 54.2842C147.409 53.1523 147.989 51.7044 147.989 49.9407C147.989 48.2032 147.409 46.7686 146.248 45.6366C145.088 44.5047 143.604 43.9387 141.796 43.9387C139.988 43.9387 138.503 44.5047 137.343 45.6366C136.183 46.7686 135.602 48.2032 135.602 49.9407C135.602 51.678 136.183 53.1127 137.343 54.2447C138.503 55.3767 139.988 55.9427 141.796 55.9427Z" fill="black"/>
<path d="M168.92 39.5561L168.88 39.5166C169.231 39.5166 169.487 39.5298 169.649 39.5561V44.4524H168.637C164.346 44.4524 162.201 46.9927 162.201 52.0734V59.6943H157.141V39.9509H161.998V45.7555H162.039C163.064 41.6225 165.358 39.5561 168.92 39.5561Z" fill="black"/>
<path d="M182.647 60.0887C179.354 60.0887 176.656 59.1279 174.551 57.2062C172.446 55.2846 171.393 52.8232 171.393 49.8222C171.393 46.8212 172.446 44.3599 174.551 42.4382C176.656 40.5165 179.354 39.5557 182.647 39.5557C185.912 39.5557 188.598 40.5165 190.702 42.4382C192.807 44.3599 193.859 46.8212 193.859 49.8222C193.859 52.8232 192.807 55.2846 190.702 57.2062C188.598 59.1279 185.912 60.0887 182.647 60.0887ZM178.234 54.2052C179.395 55.3372 180.866 55.9031 182.647 55.9031C184.427 55.9031 185.899 55.3372 187.059 54.2052C188.219 53.047 188.799 51.5859 188.799 49.8222C188.799 48.0584 188.219 46.6106 187.059 45.4787C185.899 44.3204 184.427 43.7412 182.647 43.7412C180.866 43.7412 179.395 44.3204 178.234 45.4787C177.101 46.6106 176.534 48.0584 176.534 49.8222C176.534 51.5859 177.101 53.047 178.234 54.2052Z" fill="black"/>
<path d="M208.607 35.1726H208.526C207.015 35.1726 205.99 35.4885 205.45 36.1203C204.91 36.7521 204.641 37.5945 204.641 38.6475V39.9505H211.077V44.0571H204.641V59.6939H199.662V44.0571H195.938V39.9505H199.662V38.3316C199.662 35.9887 200.363 34.1591 201.766 32.8429C203.197 31.5004 205.181 30.8291 207.717 30.8291C208.931 30.8291 210.065 30.9739 211.117 31.2635V35.4885C210.199 35.2779 209.363 35.1726 208.607 35.1726Z" fill="black"/>
<path d="M220.137 35.844C219.409 36.4758 218.491 36.7917 217.385 36.7917C216.278 36.7917 215.347 36.4758 214.591 35.844C213.863 35.1859 213.498 34.3699 213.498 33.3959C213.498 32.4219 213.863 31.619 214.591 30.9872C215.347 30.3291 216.278 30 217.385 30C218.491 30 219.409 30.3291 220.137 30.9872C220.893 31.619 221.27 32.4219 221.27 33.3959C221.27 34.3699 220.893 35.1859 220.137 35.844ZM214.834 59.694V39.9506H219.894V59.694H214.834Z" fill="black"/>
<path d="M225.541 59.6941V31.2637H230.601V59.6941H225.541Z" fill="black"/>
<path d="M251.358 51.56H256.499C256.337 54.0872 255.258 56.1404 253.261 57.7199C251.29 59.2731 248.835 60.0496 245.893 60.0496C242.627 60.0496 239.957 59.0888 237.878 57.1671C235.827 55.2191 234.802 52.7315 234.802 49.7042C234.802 46.7295 235.814 44.2944 237.838 42.3991C239.889 40.4774 242.519 39.5166 245.731 39.5166C248.943 39.5166 251.493 40.4379 253.382 42.2807C255.298 44.1234 256.202 46.5847 256.094 49.6647H239.699C239.727 51.5863 240.294 53.1131 241.401 54.2451C242.506 55.3507 243.963 55.9035 245.771 55.9035C247.31 55.9035 248.591 55.5087 249.618 54.719C250.67 53.903 251.25 52.8499 251.358 51.56ZM245.65 43.1889C243.141 43.1889 241.386 44.176 240.389 46.1503H250.71C249.874 44.176 248.187 43.1889 245.65 43.1889Z" fill="black"/>
</g>
<defs>
<clipPath id="clip0_298_12660">
<rect width="213.333" height="40" fill="white" transform="translate(43.8672 30)"/>
</clipPath>
</defs>
</svg>
