<svg width="300" height="100" viewBox="0 0 300 100" fill="none" xmlns="http://www.w3.org/2000/svg">
<rect width="300" height="100" fill="white"/>
<g clip-path="url(#clip0_291_3727)">
<path d="M127.694 69.7938H125.422L123.012 65.5253V69.7938H121.084V60.5684H123.907C125.009 60.5684 125.835 60.7749 126.386 61.188C126.936 61.6011 127.212 62.2895 127.212 63.1157C127.212 63.7353 127.005 64.2861 126.661 64.6992C126.248 65.1122 125.766 65.3876 125.215 65.4565L127.694 69.7938ZM123.012 64.4926H123.287C124.114 64.4926 124.596 64.4238 124.871 64.2172C125.146 64.0795 125.284 63.7353 125.284 63.3222C125.284 62.8403 125.146 62.5649 124.871 62.3584C124.596 62.1518 124.114 62.083 123.356 62.083H123.081V64.4926H123.012ZM128.795 69.7938V60.5684H134.165V62.2207H130.723V64.0795H134.165V65.8007H130.723V68.0727H134.165V69.725H128.795V69.7938ZM136.162 60.5684H138.09V69.725H136.162V60.5684ZM140.224 69.7938V60.5684H142.289L146.351 65.9384C146.489 66.0761 146.627 66.2826 146.764 66.558C146.902 66.8334 147.04 67.1777 147.177 67.5219C147.108 67.2465 147.108 66.9711 147.108 66.6957C147.108 66.4203 147.04 66.0761 147.04 65.663V60.4995H148.898V69.6561H146.971L142.771 64.3549C142.633 64.2172 142.496 64.0107 142.358 63.7353C142.22 63.4599 142.083 63.1157 141.945 62.7715C142.014 63.0468 142.014 63.3222 142.014 63.5976C142.014 63.873 142.014 64.2172 142.014 64.6303V69.8627H140.224V69.7938ZM150.344 68.6234L151.446 67.3842C151.583 67.7284 151.79 68.0038 152.134 68.2104C152.41 68.4169 152.754 68.4857 153.167 68.4857C153.649 68.4857 153.993 68.348 154.269 68.1415C154.544 67.935 154.682 67.6596 154.682 67.2465C154.682 66.8334 154.269 66.3515 153.374 65.9384C153.098 65.8007 152.892 65.663 152.685 65.5942C151.859 65.1811 151.308 64.768 151.033 64.3549C150.688 63.9419 150.551 63.4599 150.551 62.9091C150.551 62.1518 150.826 61.5322 151.446 61.0503C152.065 60.5684 152.823 60.293 153.787 60.293C154.337 60.293 154.819 60.3618 155.232 60.5684C155.645 60.7749 155.99 61.0503 156.265 61.4634L155.095 62.5649C154.957 62.2895 154.75 62.083 154.544 61.9453C154.337 61.8076 154.062 61.7388 153.718 61.7388C153.305 61.7388 153.029 61.8076 152.754 62.0141C152.547 62.2207 152.41 62.4272 152.41 62.7715C152.41 63.2534 152.892 63.6665 153.855 64.0795C154.062 64.1484 154.2 64.2172 154.269 64.2861C155.026 64.6303 155.645 65.0434 155.99 65.4565C156.334 65.8696 156.54 66.4203 156.54 66.9711C156.54 67.7973 156.265 68.4857 155.645 69.0365C155.026 69.5184 154.269 69.7938 153.305 69.7938C152.616 69.7938 151.997 69.6561 151.515 69.4496C150.964 69.3807 150.551 69.0365 150.344 68.6234ZM165.972 60.5684V66.2826C165.972 67.5219 165.628 68.4857 165.009 69.0365C164.32 69.6561 163.356 69.9315 162.048 69.9315C160.74 69.9315 159.707 69.6561 159.088 69.0365C158.399 68.4169 158.124 67.5219 158.124 66.2826V60.5684H160.052V65.9384C160.052 66.6957 160.189 67.2465 160.534 67.6596C160.878 68.0727 161.36 68.2104 162.048 68.2104C162.737 68.2104 163.219 68.0038 163.563 67.6596C163.907 67.2465 164.045 66.6957 164.045 65.9384V60.5684H165.972ZM174.647 69.7938H172.375L169.966 65.5253V69.7938H167.969V60.5684H170.792C171.893 60.5684 172.719 60.7749 173.27 61.188C173.821 61.6011 174.096 62.2895 174.096 63.1157C174.096 63.7353 173.89 64.2861 173.546 64.6992C173.201 65.1122 172.651 65.3876 172.1 65.4565L174.647 69.7938ZM169.966 64.4926H170.241C171.067 64.4926 171.549 64.4238 171.824 64.2172C172.1 64.0795 172.238 63.7353 172.238 63.3222C172.238 62.8403 172.1 62.5649 171.824 62.3584C171.549 62.1518 171.067 62.083 170.31 62.083H170.034V64.4926H169.966ZM180.568 66.2826L179.535 63.3222C179.535 63.2534 179.466 63.1157 179.398 62.8403C179.329 62.6338 179.329 62.3584 179.26 62.083C179.191 62.3584 179.122 62.6338 179.122 62.9091C179.053 63.1157 179.053 63.3222 178.985 63.3911L178.021 66.2826H180.568ZM174.716 69.7938L178.227 60.6372H180.499L184.01 69.7938H181.807L181.05 67.8661H177.47L176.85 69.7938H174.716ZM184.905 69.7938V60.5684H186.971L191.033 65.9384C191.17 66.0761 191.308 66.2826 191.446 66.558C191.583 66.8334 191.721 67.1777 191.859 67.5219C191.79 67.2465 191.79 66.9711 191.79 66.6957C191.79 66.4203 191.79 66.0761 191.79 65.663V60.4995H193.649V69.6561H191.652L187.453 64.2172C187.315 64.0795 187.177 63.873 187.04 63.5976C186.902 63.3222 186.764 62.978 186.627 62.6338C186.695 62.9091 186.695 63.1845 186.695 63.4599C186.695 63.7353 186.764 64.0795 186.764 64.4926V69.725H184.905V69.7938ZM203.012 62.978C202.599 62.6338 202.186 62.3584 201.773 62.2207C201.36 62.083 200.878 61.9453 200.465 61.9453C199.501 61.9453 198.675 62.2207 198.124 62.8403C197.573 63.4599 197.229 64.2172 197.229 65.1811C197.229 66.1449 197.504 66.9023 198.055 67.453C198.606 68.0038 199.363 68.2792 200.258 68.2792C200.809 68.2792 201.291 68.2104 201.704 68.0038C202.186 67.7973 202.599 67.5907 202.943 67.1777V69.1742C202.53 69.4496 202.117 69.5873 201.635 69.725C201.153 69.8627 200.671 69.9315 200.189 69.9315C198.744 69.9315 197.504 69.4496 196.609 68.5546C195.645 67.6596 195.232 66.4892 195.232 65.1122C195.232 63.7353 195.714 62.5649 196.609 61.6699C197.573 60.7749 198.744 60.293 200.258 60.293C200.74 60.293 201.222 60.3618 201.704 60.4307C202.186 60.5684 202.599 60.7061 203.081 60.9126L203.012 62.978ZM204.871 69.7938V60.5684H210.241V62.2207H206.799V64.0795H210.241V65.8007H206.799V68.0727H210.241V69.725H204.871V69.7938Z" fill="#008CD1"/>
<path d="M127.9 51.9624C127.556 51.6181 127.212 51.4116 126.799 51.2739C126.454 51.1362 126.041 51.0674 125.628 51.0674C124.733 51.0674 124.114 51.3428 123.563 51.8247C123.081 52.3066 122.806 53.0639 122.806 53.8901C122.806 54.7162 123.012 55.4047 123.494 55.8866C123.976 56.3686 124.596 56.644 125.422 56.644C125.904 56.644 126.317 56.5751 126.73 56.4374C127.143 56.2997 127.487 56.0243 127.831 55.749V57.539C127.487 57.7455 127.074 57.952 126.661 58.0209C126.248 58.1586 125.835 58.1586 125.422 58.1586C124.114 58.1586 123.081 57.7455 122.255 56.9882C121.429 56.162 121.016 55.1982 121.016 53.9589C121.016 52.7197 121.429 51.687 122.255 50.9297C123.081 50.1035 124.182 49.7593 125.491 49.7593C125.904 49.7593 126.386 49.8281 126.73 49.897C127.143 49.9658 127.556 50.1035 127.969 50.3101L127.9 51.9624ZM137.745 53.8901C137.745 54.4409 137.608 54.9916 137.401 55.5424C137.195 56.0243 136.85 56.5063 136.437 56.9193C136.024 57.3324 135.542 57.6078 134.991 57.8144C134.441 58.0209 133.89 58.1586 133.339 58.1586C132.857 58.1586 132.375 58.0897 131.893 57.8832C131.411 57.7455 130.998 57.4701 130.585 57.1947C130.103 56.7817 129.69 56.2997 129.415 55.749C129.139 55.1982 129.002 54.5786 129.002 53.9589C129.002 53.4082 129.139 52.8574 129.346 52.3066C129.553 51.8247 129.897 51.3428 130.31 50.9297C130.723 50.5166 131.205 50.2412 131.687 50.0347C132.238 49.8281 132.788 49.6904 133.339 49.6904C133.89 49.6904 134.441 49.8281 134.991 50.0347C135.542 50.2412 136.024 50.5854 136.368 50.9297C136.781 51.3428 137.057 51.7558 137.332 52.3066C137.608 52.7885 137.745 53.3393 137.745 53.8901ZM133.477 56.5751C134.234 56.5751 134.785 56.2997 135.267 55.8178C135.749 55.3359 135.955 54.6474 135.955 53.8901C135.955 53.1328 135.749 52.5131 135.267 51.9624C134.785 51.4116 134.165 51.2051 133.477 51.2051C132.719 51.2051 132.169 51.4804 131.687 51.9624C131.205 52.5131 130.929 53.1328 130.929 53.8901C130.929 54.6474 131.136 55.3359 131.618 55.8178C132.1 56.3686 132.719 56.5751 133.477 56.5751ZM139.191 57.952V49.8281H140.981L144.561 54.5097C144.699 54.6474 144.768 54.8539 144.905 55.0605C145.043 55.3359 145.181 55.6113 145.318 55.8866C145.25 55.6801 145.25 55.4047 145.25 55.1982C145.25 54.9916 145.25 54.6474 145.25 54.3032V49.7593H146.902V57.8144H145.181L141.532 52.9951C141.463 52.8574 141.325 52.6508 141.188 52.4443C141.05 52.2378 140.912 51.8935 140.775 51.5493C140.843 51.7558 140.843 52.0312 140.843 52.2378C140.843 52.4443 140.843 52.7885 140.843 53.1328V57.7455H139.191V57.952ZM151.652 51.3428V57.952H149.931V51.3428H147.935V49.897H153.649V51.3428H151.652ZM154.819 49.8281H156.54V57.8832H154.819V49.8281ZM158.33 57.952V49.8281H160.12L163.701 54.5097C163.769 54.6474 163.907 54.8539 164.045 55.0605C164.182 55.3359 164.32 55.6113 164.458 55.8866C164.389 55.6801 164.389 55.4047 164.389 55.1982C164.389 54.9916 164.389 54.6474 164.389 54.3032V49.7593H166.041V57.8144H164.32L160.671 52.9951C160.534 52.8574 160.465 52.6508 160.327 52.4443C160.189 52.2378 160.052 51.8935 159.914 51.5493C159.983 51.7558 159.983 52.0312 159.983 52.2378C159.983 52.4443 159.983 52.7885 159.983 53.1328V57.7455H158.33V57.952ZM167.762 57.952V49.8281H172.513V51.2739H169.484V52.9262H172.513V54.372H169.484V56.3686H172.513V57.8144H167.762V57.952ZM174.234 57.952V49.8281H176.024L179.604 54.5097C179.673 54.6474 179.811 54.8539 179.948 55.0605C180.086 55.3359 180.224 55.6113 180.361 55.8866C180.293 55.6801 180.293 55.4047 180.293 55.1982C180.293 54.9916 180.293 54.6474 180.293 54.3032V49.7593H181.945V57.8144H180.224L176.575 52.9951C176.437 52.8574 176.368 52.6508 176.231 52.4443C176.093 52.2378 175.955 51.8935 175.818 51.5493C175.886 51.7558 175.886 52.0312 175.886 52.2378C175.886 52.4443 175.886 52.7885 175.886 53.1328V57.7455H174.234V57.952ZM186.695 51.3428V57.952H184.974V51.3428H182.978V49.897H188.692V51.3428H186.695ZM193.374 54.8539L192.479 52.2378C192.479 52.1689 192.41 52.0312 192.41 51.8247C192.341 51.6181 192.341 51.4116 192.272 51.1362C192.203 51.4116 192.203 51.6181 192.134 51.8247C192.065 52.0312 192.065 52.1689 192.065 52.2378L191.17 54.7851H193.374V54.8539ZM188.21 57.952L191.308 49.897H193.305L196.403 57.952H194.406L193.718 56.2309H190.62L190.069 57.952H188.21ZM197.229 57.952V49.8281H198.95V56.4374H201.704V57.8832H197.229V57.952Z" fill="#008CD1"/>
<path d="M115.852 50.1029V37.917L104.492 43.3559V55.5418L115.852 50.1029Z" fill="#ADAFB2"/>
<path d="M115.852 50.1033V37.9174L102.496 30V42.1859L115.852 50.1033Z" fill="#008CD1"/>
<path d="M89.759 41.2905V53.4763L101.119 48.0374L101.188 35.8516L89.759 41.2905Z" fill="#ADAFB2"/>
<path d="M89.759 41.291V53.4769L103.115 61.3943V49.1396L89.759 41.291Z" fill="#00A651"/>
<path d="M117.78 69.9314V57.6767L104.492 49.8281L104.423 62.014L117.78 69.9314Z" fill="#008CD1"/>
</g>
<defs>
<clipPath id="clip0_291_3727">
<rect width="120.482" height="40" fill="white" transform="translate(89.759 30)"/>
</clipPath>
</defs>
</svg>
