<svg width="300" height="100" viewBox="0 0 300 100" fill="none" xmlns="http://www.w3.org/2000/svg">
<rect width="300" height="100" fill="white"/>
<path d="M73.0015 49.6401C72.9642 52.5239 73.6311 55.3606 74.9285 57.9094C75.5885 59.2062 77.1496 59.8079 78.3722 59.0189C81.0842 57.269 82.9395 53.7255 82.9395 49.6401C82.9395 45.5567 81.0909 42.022 78.3889 40.2703C77.1682 39.479 75.606 40.076 74.9428 41.3708C73.6384 43.9177 72.9664 46.7549 73.0015 49.6401Z" fill="#477DB3"/>
<g style="mix-blend-mode:overlay" opacity="0.1">
<path d="M77.6519 43.0157C76.4466 41.6486 74.3925 42.3715 73.8504 44.1115C73.2946 45.8957 73.0091 47.7593 73.0091 49.6404C73.0091 51.5224 73.2949 53.3871 73.8513 55.172C74.3934 56.9107 76.4459 57.6347 77.6513 56.2697C79.0956 54.6339 80.0042 52.2737 80.0042 49.6404C80.0042 47.0094 79.0939 44.6511 77.6519 43.0157Z" fill="#477DB3"/>
</g>
<g style="mix-blend-mode:multiply" opacity="0.2">
<path d="M82.7153 47.2124C82.4115 45.598 81.3499 46.6069 81.5112 48.2416C81.5564 48.6997 81.5797 49.1663 81.5797 49.6399C81.5797 50.0963 81.5581 50.5463 81.5162 50.9883C81.3611 52.6245 82.427 53.6332 82.7246 52.0169C82.8652 51.2531 82.9395 50.4575 82.9395 49.6399C82.9395 48.8045 82.8619 47.9917 82.7153 47.2124Z" fill="#477DB3"/>
</g>
<path d="M102.835 53.0884L102.494 53.0101C101.546 52.8057 100.558 52.8908 99.6593 53.2541C98.7601 53.6174 97.9907 54.2423 97.4507 55.0478C96.0321 57.1561 93.8925 58.1162 91.4001 58.1162C90.4055 58.1246 89.4168 57.9629 88.4767 57.6381C87.3694 57.2347 86.1519 57.2562 85.0597 57.6984C83.9673 58.1408 83.0779 58.9723 82.5632 60.0326C82.2669 60.6423 82.1051 61.3088 82.0887 61.9866C82.0722 62.6644 82.2016 63.3378 82.468 63.9614C82.7344 64.5848 83.1317 65.1438 83.6329 65.6004C84.1341 66.0571 84.7275 66.4008 85.373 66.6082C87.324 67.2167 89.3565 67.5233 91.4001 67.5174C97.2782 67.5174 102.502 64.9937 105.704 60.7457C106.193 60.0942 106.51 59.3298 106.626 58.5234C106.742 57.717 106.653 56.8943 106.367 56.1314C106.081 55.3684 105.608 54.6897 104.99 54.158C104.373 53.6261 103.632 53.2583 102.835 53.0884Z" fill="#477DB3"/>
<path d="M82.5634 39.271C83.081 40.3332 83.9743 41.1656 85.0702 41.6071C86.1661 42.0486 87.387 42.0681 88.4964 41.6615C89.4295 41.3355 90.4118 41.1725 91.4002 41.1795C93.8102 41.1795 95.8911 42.1122 97.2353 44.095C97.7871 44.9375 98.583 45.5911 99.5166 45.9686C100.45 46.3462 101.477 46.4294 102.459 46.2072L102.851 46.1094C103.638 45.9215 104.366 45.5395 104.968 44.9982C105.571 44.4569 106.028 43.7735 106.298 43.0103C106.568 42.2471 106.643 41.4285 106.516 40.6289C106.389 39.8293 106.064 39.0742 105.57 38.4324C102.318 34.2433 97.1138 31.7705 91.3885 31.7705C89.3458 31.7741 87.3157 32.0913 85.3692 32.711C84.7249 32.9195 84.1328 33.2637 83.6328 33.7203C83.1328 34.177 82.7365 34.7355 82.4706 35.3583C82.2047 35.9811 82.0754 36.6536 82.0914 37.3306C82.1074 38.0076 82.2683 38.6733 82.5634 39.2828V39.271Z" fill="#477DB3"/>
<g style="mix-blend-mode:multiply" opacity="0.5">
<g style="mix-blend-mode:multiply" opacity="0.5">
<path d="M102.761 53.0889L102.494 53.0302C101.548 52.8238 100.562 52.9058 99.6628 53.2656C98.7639 53.6254 97.9933 54.2463 97.4507 55.0483C96.0321 57.1567 93.8925 58.1167 91.4001 58.1167C90.4055 58.125 89.4168 57.9634 88.4767 57.6387C87.6395 57.3375 86.7351 57.2751 85.8645 57.4585C84.9939 57.642 84.1914 58.0638 83.5469 58.6771C85.05 59.9794 86.8554 60.8843 88.7982 61.3092C90.7412 61.7343 92.7595 61.6658 94.6691 61.1101C96.5786 60.5543 98.3186 59.5291 99.73 58.128C101.141 56.7268 102.179 54.9944 102.749 53.0889H102.761Z" fill="#477DB3"/>
</g>
<g style="mix-blend-mode:multiply" opacity="0.5">
<path d="M83.5742 40.6504C84.2219 41.256 85.0242 41.6709 85.8928 41.8494C86.7613 42.0277 87.6622 41.9628 88.4962 41.6614C89.4294 41.3355 90.4116 41.1724 91.4 41.1794C93.8101 41.1794 95.8909 42.1121 97.235 44.095C97.7868 44.9374 98.5828 45.5911 99.5163 45.9685C100.45 46.3461 101.477 46.4294 102.459 46.2072L102.725 46.1445C102.14 44.2564 101.094 42.5437 99.6807 41.1611C98.2679 39.7785 96.533 38.7694 94.6326 38.225C92.7322 37.6806 90.7262 37.618 88.7956 38.0428C86.865 38.4676 85.0706 39.3664 83.5742 40.6582V40.6504Z" fill="#477DB3"/>
</g>
</g>
<g style="mix-blend-mode:overlay" opacity="0.3">
<g style="mix-blend-mode:overlay" opacity="0.3">
<path d="M91.357 66.1925C88.1454 66.1963 85.0028 65.2605 82.3165 63.5002C82.5384 64.2249 82.9334 64.8848 83.4673 65.4228C84.0012 65.9607 84.6579 66.3607 85.3809 66.5882C87.3319 67.1967 89.3645 67.5033 91.408 67.4974C97.2862 67.4974 102.51 64.9736 105.712 60.7257C106.17 60.1187 106.477 59.4102 106.605 58.6601C106.733 57.91 106.68 57.1401 106.448 56.415C105.145 59.3277 103.027 61.801 100.349 63.536C97.6709 65.271 94.548 66.1936 91.357 66.1925Z" fill="#477DB3"/>
</g>
<g style="mix-blend-mode:overlay" opacity="0.3">
<path d="M91.3571 33.1342C94.5229 33.1343 97.6224 34.0436 100.286 35.7539C102.951 37.4643 105.068 39.9037 106.386 42.7823C106.617 42.0479 106.666 41.2684 106.53 40.5108C106.393 39.7531 106.075 39.04 105.602 38.4324C102.349 34.2433 97.1451 31.7705 91.4198 31.7705C89.3666 31.7709 87.3257 32.0881 85.3692 32.711C84.6391 32.9412 83.9769 33.3477 83.4411 33.8944C82.9053 34.4412 82.5123 35.1114 82.2969 35.846C84.9858 34.0733 88.1365 33.1303 91.3571 33.1342Z" fill="#477DB3"/>
</g>
</g>
<path d="M129.369 39.9313C129.907 40.2001 130.217 40.624 130.299 41.203C130.403 41.782 130.258 42.3093 129.865 42.7848C129.596 43.1571 129.245 43.3638 128.811 43.4052C128.397 43.4466 127.973 43.3638 127.539 43.1571C127.043 42.9296 126.515 42.7539 125.957 42.6298C125.419 42.5056 124.851 42.4436 124.251 42.4436C123.134 42.4436 122.132 42.6194 121.242 42.9709C120.374 43.3225 119.63 43.8291 119.009 44.4907C118.389 45.1318 117.913 45.8968 117.583 46.786C117.272 47.6752 117.117 48.6573 117.117 49.7326C117.117 50.9939 117.293 52.0898 117.645 53.0204C118.017 53.9508 118.523 54.7262 119.164 55.3466C119.805 55.9669 120.56 56.4321 121.429 56.7424C122.297 57.0318 123.238 57.1766 124.251 57.1766C124.809 57.1766 125.368 57.1248 125.926 57.0214C126.484 56.9181 127.022 56.732 127.539 56.4632C127.973 56.2564 128.397 56.184 128.811 56.246C129.245 56.3081 129.607 56.5252 129.896 56.8974C130.31 57.4144 130.455 57.952 130.33 58.5102C130.227 59.0479 129.917 59.4407 129.4 59.6888C128.862 59.9576 128.304 60.1852 127.725 60.3713C127.167 60.5367 126.598 60.6607 126.019 60.7434C125.44 60.8468 124.851 60.8985 124.251 60.8985C122.762 60.8985 121.346 60.6607 120.002 60.1852C118.678 59.7095 117.49 59.0065 116.435 58.076C115.401 57.1455 114.584 55.9875 113.985 54.6021C113.385 53.1961 113.085 51.5728 113.085 49.7326C113.085 48.1404 113.354 46.6722 113.892 45.3282C114.45 43.9841 115.225 42.8262 116.218 41.8544C117.231 40.8618 118.42 40.0967 119.785 39.5591C121.149 39.0008 122.638 38.7217 124.251 38.7217C125.161 38.7217 126.05 38.8251 126.919 39.0318C127.787 39.2386 128.604 39.5384 129.369 39.9313ZM149.404 52.3069C149.404 54.0025 149.022 55.5016 148.256 56.8043C147.512 58.0864 146.499 59.0892 145.217 59.8129C143.956 60.5367 142.539 60.8985 140.968 60.8985C139.396 60.8985 137.969 60.5367 136.687 59.8129C135.426 59.0892 134.413 58.0864 133.648 56.8043C132.903 55.5016 132.531 54.0025 132.531 52.3069C132.531 50.6114 132.903 49.1226 133.648 47.8406C134.413 46.5379 135.426 45.5246 136.687 44.8009C137.969 44.0565 139.396 43.6844 140.968 43.6844C142.539 43.6844 143.956 44.0565 145.217 44.8009C146.499 45.5246 147.512 46.5379 148.256 47.8406C149.022 49.1226 149.404 50.6114 149.404 52.3069ZM145.682 52.3069C145.682 51.2524 145.465 50.3426 145.031 49.5775C144.617 48.7918 144.049 48.1818 143.325 47.7475C142.622 47.3133 141.836 47.0961 140.968 47.0961C140.099 47.0961 139.303 47.3133 138.579 47.7475C137.876 48.1818 137.308 48.7918 136.873 49.5775C136.46 50.3426 136.253 51.2524 136.253 52.3069C136.253 53.3408 136.46 54.2506 136.873 55.0364C137.308 55.8014 137.876 56.4011 138.579 56.8353C139.303 57.2695 140.099 57.4867 140.968 57.4867C141.836 57.4867 142.622 57.2695 143.325 56.8353C144.049 56.4011 144.617 55.8014 145.031 55.0364C145.465 54.2506 145.682 53.3408 145.682 52.3069ZM161.532 43.6844C163.062 43.6844 164.22 44.0048 165.006 44.6459C165.813 45.2868 166.361 46.1449 166.65 47.2202C166.96 48.2748 167.115 49.4534 167.115 50.7561V58.6964C167.115 59.234 166.94 59.6888 166.588 60.0611C166.236 60.4126 165.792 60.5884 165.254 60.5884C164.717 60.5884 164.272 60.4126 163.921 60.0611C163.569 59.6888 163.393 59.234 163.393 58.6964V50.7561C163.393 50.0738 163.3 49.4638 163.114 48.9261C162.949 48.3679 162.639 47.9233 162.184 47.5925C161.729 47.2615 161.077 47.0961 160.23 47.0961C159.403 47.0961 158.699 47.2615 158.12 47.5925C157.562 47.9233 157.128 48.3679 156.818 48.9261C156.528 49.4638 156.384 50.0738 156.384 50.7561V58.6964C156.384 59.234 156.208 59.6888 155.856 60.0611C155.505 60.4126 155.06 60.5884 154.523 60.5884C153.985 60.5884 153.54 60.4126 153.189 60.0611C152.837 59.6888 152.662 59.234 152.662 58.6964V45.8865C152.662 45.3489 152.837 44.9043 153.189 44.5528C153.54 44.1806 153.985 43.9945 154.523 43.9945C155.06 43.9945 155.505 44.1806 155.856 44.5528C156.208 44.9043 156.384 45.3489 156.384 45.8865V47.2202L155.918 47.1272C156.104 46.7756 156.373 46.4034 156.725 46.0106C157.076 45.5971 157.49 45.2145 157.965 44.8629C158.441 44.5114 158.979 44.2322 159.578 44.0255C160.178 43.798 160.829 43.6844 161.532 43.6844ZM171.731 43.9945C172.124 43.9945 172.486 44.0979 172.817 44.3047C173.148 44.4907 173.396 44.7802 173.561 45.1732L178.121 55.5947L177.438 55.9048L182.091 45.2041C182.442 44.3771 182.99 43.9841 183.735 44.0255C184.252 44.0255 184.665 44.1909 184.975 44.5218C185.306 44.8319 185.472 45.2248 185.472 45.7003C185.472 45.8452 185.44 46.0002 185.378 46.1656C185.337 46.3311 185.285 46.4861 185.223 46.6309L179.423 59.4098C179.092 60.1541 178.565 60.5469 177.841 60.5884C177.449 60.6504 177.066 60.578 176.694 60.3713C176.342 60.1645 176.074 59.844 175.887 59.4098L170.118 46.6309C170.077 46.5275 170.025 46.3931 169.963 46.2276C169.922 46.0622 169.901 45.8659 169.901 45.6384C169.901 45.2661 170.067 44.9043 170.397 44.5528C170.728 44.1806 171.173 43.9945 171.731 43.9945ZM204.349 52.3069C204.349 54.0025 203.967 55.5016 203.202 56.8043C202.458 58.0864 201.445 59.0892 200.162 59.8129C198.901 60.5367 197.485 60.8985 195.913 60.8985C194.341 60.8985 192.914 60.5367 191.633 59.8129C190.371 59.0892 189.358 58.0864 188.593 56.8043C187.849 55.5016 187.476 54.0025 187.476 52.3069C187.476 50.6114 187.849 49.1226 188.593 47.8406C189.358 46.5379 190.371 45.5246 191.633 44.8009C192.914 44.0565 194.341 43.6844 195.913 43.6844C197.485 43.6844 198.901 44.0565 200.162 44.8009C201.445 45.5246 202.458 46.5379 203.202 47.8406C203.967 49.1226 204.349 50.6114 204.349 52.3069ZM200.627 52.3069C200.627 51.2524 200.411 50.3426 199.977 49.5775C199.562 48.7918 198.994 48.1818 198.271 47.7475C197.567 47.3133 196.781 47.0961 195.913 47.0961C195.045 47.0961 194.248 47.3133 193.525 47.7475C192.821 48.1818 192.253 48.7918 191.819 49.5775C191.405 50.3426 191.199 51.2524 191.199 52.3069C191.199 53.3408 191.405 54.2506 191.819 55.0364C192.253 55.8014 192.821 56.4011 193.525 56.8353C194.248 57.2695 195.045 57.4867 195.913 57.4867C196.781 57.4867 197.567 57.2695 198.271 56.8353C198.994 56.4011 199.562 55.8014 199.977 55.0364C200.411 54.2506 200.627 53.3408 200.627 52.3069ZM219.92 43.9945C220.458 43.9945 220.902 44.1806 221.254 44.5528C221.606 44.9043 221.781 45.3489 221.781 45.8865V59.0686C221.781 60.9709 221.42 62.4804 220.696 63.5969C219.993 64.7342 219.041 65.5511 217.842 66.0473C216.644 66.5435 215.299 66.7916 213.811 66.7916C213.148 66.7916 212.446 66.74 211.701 66.6366C210.957 66.5332 210.347 66.3781 209.871 66.1713C209.251 65.9025 208.816 65.5613 208.568 65.1478C208.341 64.7549 208.3 64.3311 208.445 63.8761C208.631 63.2765 208.931 62.8629 209.344 62.6354C209.758 62.4287 210.192 62.408 210.647 62.5734C210.978 62.6768 211.412 62.8319 211.949 63.0387C212.487 63.2661 213.107 63.3799 213.811 63.3799C214.761 63.3799 215.547 63.2454 216.167 62.9766C216.808 62.7285 217.284 62.2942 217.594 61.6739C217.925 61.0742 218.091 60.2472 218.091 59.1926V57.1145L218.742 57.8589C218.391 58.5413 217.946 59.1099 217.408 59.5648C216.892 59.9991 216.271 60.3299 215.547 60.5573C214.824 60.7848 213.996 60.8985 213.066 60.8985C211.969 60.8985 211.008 60.6504 210.181 60.1541C209.375 59.6372 208.745 58.9341 208.289 58.0449C207.834 57.1352 207.607 56.1013 207.607 54.9433V45.8865C207.607 45.3489 207.782 44.9043 208.134 44.5528C208.486 44.1806 208.931 43.9945 209.468 43.9945C210.006 43.9945 210.451 44.1806 210.801 44.5528C211.153 44.9043 211.329 45.3489 211.329 45.8865V53.8267C211.329 55.1708 211.619 56.122 212.198 56.6802C212.797 57.2179 213.625 57.4867 214.679 57.4867C215.402 57.4867 216.013 57.3522 216.508 57.0835C217.005 56.794 217.387 56.3805 217.657 55.8428C217.925 55.2845 218.06 54.6125 218.06 53.8267V45.8865C218.06 45.3489 218.235 44.9043 218.587 44.5528C218.939 44.1806 219.382 43.9945 219.92 43.9945Z" fill="#477DB3"/>
</svg>
