<svg width="300" height="100" viewBox="0 0 300 100" fill="none" xmlns="http://www.w3.org/2000/svg">
<rect width="300" height="100" fill="white"/>
<g clip-path="url(#clip0_291_3657)">
<path d="M203.694 69.878C200.201 67.9654 196.626 66.5517 192.967 65.3044C185.233 62.8929 177.334 62.2276 169.351 62.7266C162.033 63.2255 154.881 64.8055 147.896 66.7181C140.911 68.5475 133.76 69.6285 126.609 69.379C118.21 69.2127 110.227 67.3001 103.242 62.4771C98.7514 59.4004 95.1757 55.4089 92.681 50.5858C92.3484 50.0038 92.1821 49.3385 91.8495 48.6732C92.2653 48.507 92.2653 48.8396 92.3484 49.0059C97.5872 56.4067 104.905 60.5645 113.719 62.394C120.788 63.8076 127.856 63.475 134.924 62.3108C139.83 61.4792 144.653 59.9824 149.56 58.8183C157.293 57.072 165.109 56.2404 173.009 56.9888C184.235 58.0698 194.38 61.895 203.195 69.2127C203.361 69.379 203.528 69.5453 203.694 69.7116C203.694 69.6285 203.694 69.7116 203.694 69.878Z" fill="#0054B4"/>
<path d="M162.698 53.1635C165.11 51.4173 166.024 49.1721 165.359 46.3448C164.694 43.5175 162.199 41.7712 159.206 41.7712C156.545 41.8544 154.3 43.8501 153.718 46.6774C153.135 49.4215 154.549 52.2489 157.043 53.4962C157.293 53.6625 157.543 53.6625 157.875 53.8288C157.376 54.1614 156.794 54.0783 156.295 54.1614C154.383 54.4941 152.47 54.7435 150.558 55.2424C150.058 55.4088 149.892 55.1593 149.643 54.8267C144.487 47.509 148.811 37.5303 157.543 36.1167C163.946 35.1188 169.683 38.8608 171.263 44.848C172.012 47.509 171.762 50.2531 170.681 52.8309C170.515 53.2467 170.349 53.413 169.849 53.413C167.854 53.3299 165.858 53.413 163.946 53.413C163.446 53.3299 163.031 53.6625 162.698 53.1635Z" fill="#FE0000"/>
<path d="M115.632 35.8672C117.212 35.8672 118.459 35.8672 119.707 35.8672C120.206 35.8672 120.455 35.9503 120.372 36.5324C120.206 39.7755 118.043 41.7712 114.8 41.7712C114.218 41.7712 113.636 41.7712 113.054 41.7712C109.728 41.7712 106.984 44.4322 106.984 47.8416C106.984 51.251 109.645 53.912 113.054 53.912C113.886 53.912 114.8 53.912 115.549 53.912C118.21 54.0783 120.455 56.5729 120.289 59.3171C120.206 59.8991 119.79 59.7328 119.623 59.6497C117.461 59.4834 115.299 59.2339 113.137 58.8181C110.06 58.1529 106.984 57.0719 104.073 55.7414C103.574 55.5751 103.242 55.2424 102.992 54.8267C97.7535 47.7584 102.327 37.1977 111.058 36.0335C112.721 35.8672 114.301 35.9503 115.632 35.8672Z" fill="#FE0000"/>
<path d="M192.883 59.0679C189.89 57.6542 186.813 56.4069 183.653 55.4922C180.992 54.7438 178.414 54.1617 175.67 53.8291C175.171 53.746 174.922 53.5796 174.756 53.1639C174.007 51.7502 173.591 50.2534 173.591 48.6734C173.508 42.7694 173.591 36.7822 173.508 30.795C173.508 30.296 173.674 30.2129 174.174 30.2129C177.334 30.3792 179.662 32.6244 179.662 35.7843C179.662 39.6926 179.662 43.601 179.662 47.5093C179.662 51.2513 182.24 53.8291 185.982 53.8291C187.063 53.8291 188.144 53.6628 189.225 53.9954C191.387 54.7438 192.883 56.7395 192.883 59.0679Z" fill="#FE0000"/>
<path d="M197.623 49.5047C197.623 49.2552 197.623 49.0058 197.623 48.6731C197.54 47.3427 198.123 46.4279 199.203 45.8459C200.284 45.2638 201.449 45.3469 202.446 46.1785C202.779 46.4279 202.946 46.3448 203.278 46.0953C204.276 45.3469 205.357 45.2638 206.438 45.8459C207.519 46.4279 208.101 47.4258 208.101 48.6731C208.101 49.4216 208.101 50.0868 208.101 50.8352C208.101 51.4173 207.851 51.4173 207.436 51.251C206.854 51.0015 206.604 50.5857 206.604 49.9205C206.604 49.4216 206.604 48.9226 206.604 48.5068C206.604 47.5921 206.022 47.01 205.191 46.9269C204.359 46.8437 203.694 47.509 203.694 48.4237C203.611 49.2552 203.694 50.0868 203.694 50.8352C203.694 51.3341 203.528 51.3341 203.112 51.251C202.53 51.0847 202.197 50.6689 202.197 50.0037C202.197 49.4216 202.197 48.8395 202.114 48.2574C202.031 47.4258 201.366 46.8437 200.7 46.8437C199.869 46.8437 199.286 47.4258 199.286 48.2574C199.286 48.7563 199.286 49.2552 199.286 49.671C199.286 50.1699 199.12 50.5026 198.788 50.8352C198.538 51.0015 198.289 51.251 197.956 51.1678C197.54 51.0015 197.79 50.6689 197.79 50.4194C197.623 50.2531 197.623 49.8374 197.623 49.5047Z" fill="#0054B4"/>
<path d="M192.551 49.5047C192.551 49.0889 192.551 48.7563 192.551 48.4237C192.634 46.8438 193.798 45.6796 195.295 45.5132C195.711 45.5132 196.127 45.4301 196.459 45.5132C196.709 45.5132 197.125 45.347 197.208 45.6796C197.291 46.0122 197.125 46.2617 196.875 46.5111C196.543 46.8438 196.127 46.8438 195.794 46.9269C194.463 47.0101 194.048 47.4258 193.965 48.8395C193.965 49.3384 193.965 49.671 193.965 50.17C193.965 50.5858 193.798 50.9184 193.466 51.1678C193.216 51.3341 192.883 51.5836 192.634 51.4173C192.385 51.251 192.468 50.9184 192.468 50.6689C192.551 50.2531 192.551 49.8373 192.551 49.5047Z" fill="#0054B4"/>
<path d="M196.043 47.7591C196.21 47.7591 196.293 47.7591 196.543 47.7591C196.792 47.8422 197.291 47.5927 197.374 47.9254C197.457 48.258 197.208 48.6738 196.875 48.9233C196.21 49.339 195.461 49.2559 194.796 49.0896C194.463 49.0064 194.463 48.6738 194.463 48.3412C194.547 48.0085 194.713 47.8422 195.046 47.8422C195.378 47.6759 195.711 47.7591 196.043 47.7591Z" fill="#0054B4"/>
<path d="M162.698 53.1641C163.114 53.4967 163.53 53.1641 163.946 53.3304C163.446 53.4967 162.864 53.4135 162.199 53.4967C162.366 53.2472 162.449 53.1641 162.698 53.1641Z" fill="#FE0000"/>
<path fill-rule="evenodd" clip-rule="evenodd" d="M140.662 57.5714C143.822 55.0767 145.568 51.9168 145.568 47.2601C145.568 41.9381 141.077 36.8656 135.007 36.1173C129.02 35.2857 123.199 39.1108 121.702 44.9317C120.206 50.919 123.282 56.9893 129.103 59.2345C129.852 59.484 130.434 59.6503 131.265 59.484C134.176 59.0682 137.086 58.5693 139.914 57.904C140.246 57.8209 140.495 57.7377 140.662 57.5714ZM133.427 53.9957C136.754 53.9957 139.415 51.2515 139.415 47.9253C139.415 44.5159 136.754 41.855 133.51 41.7718C130.184 41.7718 127.523 44.5159 127.523 47.9253C127.523 51.3347 130.101 53.9957 133.427 53.9957Z" fill="#FE0000"/>
</g>
<defs>
<clipPath id="clip0_291_3657">
<rect width="117.021" height="40" fill="white" transform="translate(91.4894 30)"/>
</clipPath>
</defs>
</svg>
