<svg width="300" height="100" viewBox="0 0 300 100" fill="none" xmlns="http://www.w3.org/2000/svg">
<rect width="300" height="100" fill="white"/>
<g clip-path="url(#clip0_298_12631)">
<path d="M60.9968 30H49.7897L49.7682 30.039L48.2215 32.8565H60.9968C70.46 32.8565 78.1364 40.5304 78.1364 49.9968C78.1364 59.4632 70.4624 67.1372 60.9968 67.1372C51.5312 67.1372 43.8565 59.4624 43.8565 49.9968C43.8557 48.2062 44.1361 46.4265 44.6875 44.7229H47.9598C45.6401 50.4553 47.3371 57.0304 52.1414 60.9242C56.9456 64.8179 63.7296 65.1165 68.8574 61.66C73.9852 58.2034 76.2533 51.8028 74.4462 45.8887C72.6391 39.9746 67.1808 35.9349 60.9968 35.9348H46.5324L44.965 38.7905H60.9968C66.033 38.7915 70.4497 42.1524 71.7932 47.006C73.1368 51.8597 71.077 57.0133 66.7582 59.6039C62.4394 62.1945 56.9229 61.5854 53.2734 58.115C49.6238 54.6446 48.738 49.1657 51.1082 44.7221H54.8155C52.3409 47.627 52.2212 51.8626 54.5278 54.9027C56.8344 57.9428 60.9457 58.9682 64.4097 57.3674C67.8738 55.7666 69.7572 51.9709 68.9367 48.2441C68.1162 44.5173 64.8129 41.8636 60.9968 41.8656H43.2759L41.7078 44.7229C41.2383 46.4415 41.0003 48.2152 41 49.9968C41 61.0402 49.9527 69.9936 60.9968 69.9936C72.041 69.9936 80.9936 61.0402 80.9936 49.9968C80.9936 38.9535 72.0402 30 60.9968 30ZM60.9968 44.7229C63.9095 44.7229 66.2708 47.0841 66.2708 49.9968C66.2708 52.9095 63.9095 55.2708 60.9968 55.2708C58.0841 55.2708 55.7229 52.9095 55.7229 49.9968C55.7229 47.0841 58.0841 44.7229 60.9968 44.7229ZM89.7833 50.4191C89.7833 44.8636 93.5105 40.9606 99.1002 40.9606C102.546 40.9606 105.359 42.4716 106.835 45.0044L103.601 47.2899C102.581 45.6716 101.034 44.8986 99.206 44.8986C96.1841 44.8986 94.1785 47.0457 94.1785 50.4191C94.1785 53.759 96.1825 55.9388 99.206 55.9388C101.035 55.9388 102.581 55.13 103.601 53.5125L106.835 55.798C105.359 58.365 102.546 59.8418 99.1002 59.8418C93.5105 59.8418 89.7833 55.9388 89.7833 50.4191ZM107.443 50.4191C107.443 45.2151 111.135 40.9606 116.866 40.9606C122.633 40.9606 126.289 45.2151 126.289 50.4191C126.289 55.5881 122.631 59.8418 116.866 59.8418C111.139 59.8418 107.443 55.5873 107.443 50.4191ZM121.894 50.4191C121.894 47.1491 119.96 44.8636 116.866 44.8636C113.773 44.8636 111.838 47.1491 111.838 50.4191C111.838 53.6533 113.772 55.9388 116.866 55.9388C119.961 55.9388 121.894 53.6533 121.894 50.4191ZM154.445 41.4513L148.958 59.3479H144.325L140.447 46.7252L136.534 59.3479H131.895L126.439 41.4513H130.695L134.402 54.3547L138.383 41.4513H142.501L146.483 54.3547L150.155 41.4513H154.445ZM214.718 41.4513L209.227 59.3479H204.594L200.715 46.7252L196.803 59.3479H192.173L186.716 41.4553H190.972L194.679 54.3586L198.656 41.4513H202.774L206.756 54.3547L210.428 41.4513H214.718ZM167.282 41.3829V45.3909C166.631 45.283 165.973 45.2242 165.313 45.2151C162.184 45.2151 160.532 46.7976 160.532 50.5241V59.3511H156.245V41.4513H160.459V44.4414C161.339 42.3674 163.272 41.1364 165.733 41.1364C166.26 41.1261 166.785 41.2096 167.282 41.3829ZM185.079 41.4513V57.5547C185.079 63.5674 181.739 66.8716 175.831 66.8716C172.773 66.8716 169.96 65.9579 168.272 64.3753L170.206 61.2461C171.717 62.439 173.686 63.0394 175.585 63.0394C178.89 63.0394 180.859 61.1761 180.859 57.5523V56.0087C179.84 57.9777 177.66 59.173 175.022 59.173C171.225 59.173 168.835 56.7825 168.835 52.4223V41.4513H173.124V51.3328C173.124 54.0755 174.249 55.2708 176.499 55.2708C179.101 55.2708 180.824 53.6891 180.824 51.0863V41.4513H185.079ZM215.847 35.7924C215.847 34.2449 216.937 33.1197 218.59 33.1197C220.206 33.1197 221.293 34.2449 221.293 35.7924C221.293 37.34 220.203 38.4644 218.59 38.4644C216.937 38.4644 215.847 37.3392 215.847 35.7924ZM216.445 41.4529H220.734V59.3495H216.445V41.4529ZM222.893 56.431L225.213 53.7233C226.619 55.2708 228.8 56.1845 231.085 56.1845C233.124 56.1845 234.249 55.4115 234.249 54.2863C234.249 53.3368 233.546 52.7396 231.753 52.3173L228.835 51.6493C225.107 50.7706 223.526 49.0473 223.526 46.5861C223.526 43.2811 226.268 40.9606 230.909 40.9606C234.074 40.9606 236.711 42.0501 238.257 43.8091L235.972 46.5861C234.425 45.2501 232.667 44.6171 230.803 44.6171C228.799 44.6171 227.814 45.3559 227.814 46.4461C227.814 47.2899 228.412 47.8171 230.311 48.2386L233.405 48.9773C237.166 49.8211 238.538 51.5435 238.538 54.0048C238.538 57.5563 235.795 59.8418 231.049 59.8418C227.499 59.8418 224.51 58.5058 222.893 56.431ZM257.588 51.6843H244.26C244.718 54.5678 246.616 56.1145 249.534 56.1145C251.538 56.1145 253.226 55.3765 254.527 53.864L257.094 56.396C255.406 58.5757 252.699 59.8418 249.394 59.8418C243.697 59.8418 239.9 56.1145 239.9 50.4891C239.9 44.9336 243.558 40.9606 248.972 40.9606C254.175 40.9606 257.691 44.5821 257.691 50.0318C257.69 50.5842 257.656 51.1361 257.588 51.6843ZM244.26 48.7674H253.406C253.195 46.1296 251.577 44.6887 249.011 44.6887C246.372 44.6879 244.719 46.1996 244.26 48.7674Z" fill="#0066F5"/>
</g>
<defs>
<clipPath id="clip0_298_12631">
<rect width="216.7" height="40" fill="white" transform="translate(41 30)"/>
</clipPath>
</defs>
</svg>
