<svg width="300" height="100" viewBox="0 0 300 100" fill="none" xmlns="http://www.w3.org/2000/svg">
<rect width="300" height="100" fill="white"/>
<path d="M99.8257 62.1262C94.9094 62.1262 91.1566 60.759 88.5675 58.0244C86.0075 55.2899 84.7275 51.4062 84.7275 46.3735C84.7275 43.8717 85.1203 41.6462 85.9057 39.6972C86.6912 37.719 87.7675 36.0608 89.1348 34.7226C90.5021 33.3553 92.1312 32.3226 94.0221 31.6244C95.913 30.9262 97.9639 30.5771 100.175 30.5771C101.455 30.5771 102.618 30.679 103.666 30.8826C104.713 31.0571 105.629 31.2753 106.415 31.5372C107.2 31.7699 107.855 32.0172 108.378 32.279C108.902 32.5408 109.28 32.7444 109.513 32.8899L107.549 38.3881C106.618 37.8935 105.528 37.4717 104.277 37.1226C103.055 36.7735 101.658 36.599 100.088 36.599C99.0403 36.599 98.0075 36.7735 96.9894 37.1226C96.0003 37.4717 95.113 38.039 94.3275 38.8244C93.5712 39.5808 92.9603 40.5699 92.4948 41.7917C92.0294 43.0135 91.7966 44.4971 91.7966 46.2426C91.7966 47.639 91.9421 48.9481 92.233 50.1699C92.553 51.3626 93.0475 52.3953 93.7166 53.2681C94.4148 54.1408 95.3166 54.839 96.4221 55.3626C97.5275 55.8571 98.8657 56.1044 100.437 56.1044C101.426 56.1044 102.313 56.0462 103.098 55.9299C103.884 55.8135 104.582 55.6826 105.193 55.5371C105.804 55.3626 106.342 55.1735 106.808 54.9699C107.273 54.7662 107.695 54.5771 108.073 54.4026L109.949 59.8571C108.989 60.439 107.637 60.9626 105.891 61.4281C104.146 61.8935 102.124 62.1262 99.8257 62.1262ZM134.853 49.9953C134.853 51.799 134.592 53.4571 134.068 54.9699C133.544 56.4535 132.788 57.7335 131.799 58.8099C130.81 59.8571 129.617 60.6717 128.221 61.2535C126.853 61.8353 125.312 62.1262 123.595 62.1262C121.908 62.1262 120.366 61.8353 118.97 61.2535C117.603 60.6717 116.424 59.8571 115.435 58.8099C114.446 57.7335 113.675 56.4535 113.123 54.9699C112.57 53.4571 112.293 51.799 112.293 49.9953C112.293 48.1917 112.57 46.5481 113.123 45.0644C113.704 43.5808 114.49 42.3153 115.479 41.2681C116.497 40.2208 117.69 39.4062 119.057 38.8244C120.453 38.2426 121.966 37.9517 123.595 37.9517C125.253 37.9517 126.766 38.2426 128.133 38.8244C129.53 39.4062 130.723 40.2208 131.712 41.2681C132.701 42.3153 133.472 43.5808 134.024 45.0644C134.577 46.5481 134.853 48.1917 134.853 49.9953ZM128.221 49.9953C128.221 47.9881 127.813 46.4171 126.999 45.2826C126.213 44.119 125.079 43.5372 123.595 43.5372C122.112 43.5372 120.963 44.119 120.148 45.2826C119.333 46.4171 118.926 47.9881 118.926 49.9953C118.926 52.0026 119.333 53.6026 120.148 54.7953C120.963 55.959 122.112 56.5408 123.595 56.5408C125.079 56.5408 126.213 55.959 126.999 54.7953C127.813 53.6026 128.221 52.0026 128.221 49.9953ZM153.342 48.3372C152.761 50.5481 152.135 52.7444 151.466 54.9262C150.826 57.1081 150.142 59.3044 149.415 61.5153H144.353C143.83 60.2935 143.262 58.839 142.651 57.1517C142.041 55.4644 141.401 53.6317 140.731 51.6535C140.091 49.6462 139.422 47.5371 138.724 45.3262C138.055 43.0862 137.401 40.8317 136.761 38.5626H143.611C143.844 39.6099 144.091 40.759 144.353 42.0099C144.644 43.2317 144.935 44.4971 145.226 45.8062C145.546 47.1153 145.866 48.439 146.186 49.7771C146.535 51.0862 146.884 52.3517 147.233 53.5735C147.611 52.2935 147.975 50.9844 148.324 49.6462C148.702 48.3081 149.051 46.999 149.371 45.719C149.721 44.4099 150.041 43.159 150.331 41.9662C150.651 40.7444 150.928 39.6099 151.161 38.5626H155.873C156.106 39.6099 156.368 40.7444 156.659 41.9662C156.95 43.159 157.255 44.4099 157.575 45.719C157.895 46.999 158.23 48.3081 158.579 49.6462C158.928 50.9844 159.291 52.2935 159.67 53.5735C160.019 52.3517 160.368 51.0862 160.717 49.7771C161.066 48.439 161.386 47.1153 161.677 45.8062C161.997 44.4971 162.288 43.2317 162.55 42.0099C162.84 40.759 163.102 39.6099 163.335 38.5626H170.099C169.459 40.8317 168.79 43.0862 168.091 45.3262C167.422 47.5371 166.753 49.6462 166.084 51.6535C165.444 53.6317 164.804 55.4644 164.164 57.1517C163.553 58.839 162.986 60.2935 162.462 61.5153H157.401C156.673 59.3044 155.961 57.1081 155.262 54.9262C154.564 52.7444 153.924 50.5481 153.342 48.3372ZM187.43 44.3226C186.848 44.1771 186.165 44.0317 185.379 43.8862C184.594 43.7117 183.75 43.6244 182.848 43.6244C182.441 43.6244 181.947 43.6681 181.365 43.7553C180.812 43.8135 180.39 43.8862 180.099 43.9735V61.5153H173.597V39.7844C174.761 39.3771 176.128 38.999 177.699 38.6499C179.299 38.2717 181.074 38.0826 183.023 38.0826C183.372 38.0826 183.794 38.1117 184.288 38.1699C184.783 38.199 185.277 38.2572 185.772 38.3444C186.267 38.4026 186.761 38.4899 187.256 38.6062C187.75 38.6935 188.172 38.8099 188.521 38.9553L187.43 44.3226ZM213.748 38.5626C212.439 42.9844 211.072 47.1299 209.646 50.999C208.221 54.8681 206.665 58.6208 204.977 62.2571C204.367 63.5662 203.756 64.6717 203.145 65.5735C202.534 66.5044 201.865 67.2608 201.137 67.8426C200.41 68.4535 199.581 68.8899 198.65 69.1517C197.748 69.4426 196.687 69.5881 195.465 69.5881C194.447 69.5881 193.501 69.4862 192.628 69.2826C191.785 69.1081 191.087 68.9044 190.534 68.6717L191.668 63.479C192.337 63.7117 192.934 63.8717 193.457 63.959C193.981 64.0462 194.534 64.0899 195.116 64.0899C196.279 64.0899 197.167 63.7699 197.777 63.1299C198.417 62.519 198.956 61.6608 199.392 60.5553C197.908 57.6462 196.425 54.3881 194.941 50.7808C193.457 47.1444 192.061 43.0717 190.752 38.5626H197.647C197.937 39.6972 198.272 40.9335 198.65 42.2717C199.057 43.5808 199.479 44.919 199.916 46.2862C200.352 47.6244 200.788 48.9335 201.225 50.2135C201.69 51.4935 202.127 52.6571 202.534 53.7044C202.912 52.6571 203.305 51.4935 203.712 50.2135C204.119 48.9335 204.512 47.6244 204.89 46.2862C205.297 44.919 205.675 43.5808 206.025 42.2717C206.403 40.9335 206.737 39.6972 207.028 38.5626H213.748Z" fill="#0E60E2"/>
</svg>
