<svg width="300" height="100" viewBox="0 0 300 100" fill="none" xmlns="http://www.w3.org/2000/svg">
<rect width="300" height="100" fill="white"/>
<g clip-path="url(#clip0_298_12597)">
<path fill-rule="evenodd" clip-rule="evenodd" d="M213.407 55.3955C213.407 54.4784 213.914 53.3907 214.504 52.9759C216.864 51.3165 222.359 52.3817 222.359 55.3955C222.359 58.1469 217.055 59.5304 214.634 57.8576C213.986 57.4091 213.407 56.4516 213.407 55.3955ZM211.169 45.4572C211.169 46.6501 212.077 47.5852 213.232 47.5852C213.744 47.5852 217.812 44.5244 221.366 46.8317C222.467 47.5449 222.356 47.9979 222.356 49.7155C219.23 47.5582 214.179 47.87 211.636 50.1999C208.824 52.7786 209.064 58.3756 211.677 60.544C214.765 63.107 219.286 63.1317 222.527 60.8937C222.741 61.7167 223.574 62.367 224.51 62.219C225.371 62.0822 226.144 61.2862 226.144 60.3624V47.9395C226.144 47.0066 225.662 45.9954 225.286 45.4527C221.421 39.8669 211.169 42.2371 211.169 45.4572Z" fill="black"/>
<path fill-rule="evenodd" clip-rule="evenodd" d="M175.02 52.3756C175.02 45.8861 182.197 43.3163 184.953 49.5904C187.717 55.8827 179.769 61.955 176.017 55.7862C175.521 54.9722 175.023 53.6381 175.023 52.3733L175.02 52.3756ZM185.52 44.2132C185.035 44.0787 184.833 43.8231 184.465 43.5271C182.247 41.7489 179.06 41.7735 176.626 43.0271C171.692 45.5654 169.43 53.2299 173.713 58.8694C175.993 61.8675 180.124 63.1434 183.576 61.3721C184.468 60.9146 184.8 60.5042 185.52 60.0064C185.581 62.8138 188.964 62.2802 188.964 60.1836V39.2441C188.964 37.0735 185.49 36.1227 185.514 39.7688C185.523 41.2488 185.52 42.7311 185.52 44.2132Z" fill="black"/>
<path fill-rule="evenodd" clip-rule="evenodd" d="M201.874 49.7155H195.505V41.3738H201.874C206.492 41.3738 206.676 49.7155 201.874 49.7155ZM191.717 39.7772V59.6516C191.717 63.4749 195.505 62.5936 195.505 60.5395V53.7966C200.02 53.7966 204.072 54.4694 206.914 51.5409C211.66 46.6457 209.041 37.2949 201.184 37.2949H194.127C192.62 37.2949 191.717 38.2278 191.717 39.7795V39.7772Z" fill="black"/>
<path fill-rule="evenodd" clip-rule="evenodd" d="M162.282 46.5222C165.628 46.5222 166.222 48.343 167.274 50.6033H158.152C158.297 48.7982 160.266 46.5222 162.284 46.5222H162.282ZM154.536 51.4913C154.536 54.4938 154.665 56.1397 156.357 58.6647C159.592 63.4948 165.634 62.9924 168.336 59.5056C169.328 58.2274 170.222 57.1353 169.21 55.7092C167.683 53.5566 165.878 56.9426 165.778 57.0457C162.756 60.1671 158.404 57.4291 158.154 54.3323C159.926 54.3323 169.208 54.6598 170.076 54.0252C170.674 53.5879 170.944 52.9017 170.829 51.9286C170.511 49.2511 169.907 47.1276 168.101 45.1431C164.753 41.4678 158.937 41.9118 156.05 46.6635C155.443 47.6636 154.538 49.953 154.538 51.4936L154.536 51.4913Z" fill="black"/>
<path fill-rule="evenodd" clip-rule="evenodd" d="M123.55 49.1835C123.55 53.0382 124.481 56.1058 126.775 58.4581C130.634 62.4136 136.262 63.4069 140.695 60.6465C146.042 57.3167 142.742 55.3949 142.313 55.3949C140.103 55.3949 141.369 55.664 138.8 57.2763C131.435 61.8934 123.373 51.8474 129.299 43.934C131.313 41.2454 135.444 40.2476 138.8 42.3375C140.562 43.4363 140.832 44.396 141.795 44.396C143.24 44.396 145.891 42.1716 140.347 38.7923C135.977 36.1283 130.634 37.1822 127.034 40.8912C125.825 42.1379 125.507 42.6761 124.694 44.3354C124.035 45.6832 123.547 47.246 123.547 49.188L123.55 49.1835Z" fill="black"/>
<path fill-rule="evenodd" clip-rule="evenodd" d="M227.35 39.7797V59.8311C227.35 63.0736 231.138 62.6856 231.138 60.542V39.0711C231.138 36.8421 227.35 36.4564 227.35 39.7819V39.7797Z" fill="black"/>
<path fill-rule="evenodd" clip-rule="evenodd" d="M148.683 44.9258C148.237 43.2015 145.239 43.8226 145.239 45.6367V60.5418C145.239 62.347 148.095 62.865 148.839 61.0598C149.425 59.636 148.576 50.9535 149.242 49.4085C150.588 46.2892 153.253 47.98 154.595 47.2983C155.942 46.6166 156.542 43.6836 152.296 43.6836C150.521 43.6836 149.736 44.1971 148.681 44.9258H148.683Z" fill="black"/>
<path fill-rule="evenodd" clip-rule="evenodd" d="M232.342 60.3642C232.342 63.1604 236.991 63.9252 236.991 60.0099C236.991 57.2248 232.342 57.1352 232.342 60.3642Z" fill="black"/>
<path fill-rule="evenodd" clip-rule="evenodd" d="M62.5938 49.9012C62.5938 55.0654 64.7081 60.4785 68.1015 63.9475C74.7425 70.7375 84.4159 71.9439 92.4185 66.9097C93.1299 66.4635 94.2828 65.5755 94.8418 65.0059C99.6274 60.1175 98.8094 58.8484 98.8094 51.8386V43.3849C98.8094 40.685 99.6534 39.0682 100.832 37.5456C102.331 35.6127 104.624 34.9332 107.182 34.9332C113.397 34.9332 117.31 43.3871 112.355 48.7195C110.61 50.5964 107.595 51.6211 104.861 50.8834C103.976 50.6434 103.973 50.4304 102.91 50.4304C100.748 50.4304 99.5034 54.0541 102.416 55.1641C106.971 56.8997 111.402 55.6866 115.015 52.693C123.14 45.9636 119.102 30 106.669 30C104.574 30 102.19 30.7265 100.804 31.5271C97.6631 33.3434 95.2551 36.3482 94.4699 40.1423C93.9913 42.452 94.1958 51.9417 94.1979 55.0071C94.2001 58.6846 93.4584 60.5055 90.5109 62.4765C84.6986 66.3626 76.822 66.1249 71.9473 61.0391C70.777 59.8193 69.6068 58.4268 68.8541 56.8324C66.47 51.7781 66.929 45.8134 70.0396 41.1985C70.3724 40.7029 70.4942 40.6558 70.8184 40.241C71.149 39.8194 71.2056 39.7006 71.6036 39.288C73.5222 37.2967 77.2854 34.9332 81.0443 34.9332C83.0759 34.9332 83.872 34.8391 85.9015 35.3862C87.422 35.7966 87.2219 36.1666 89.073 36.1666C90.637 36.1666 90.9525 34.5722 90.9525 33.3501C90.9525 30.9553 84.8053 30.0045 82.0688 30.0045C78.7862 30.0045 76.4849 30.7916 74.1835 31.7378C73.0306 32.2132 72.0757 32.8142 71.099 33.4892C70.5856 33.8435 70.2158 34.1619 69.7438 34.5588C69.4719 34.7875 69.3871 34.9153 69.126 35.1552C67.5903 36.5657 66.283 38.0569 65.2693 39.9831C64.9147 40.6581 64.682 40.9339 64.3753 41.703C63.3986 44.1473 62.5959 46.5264 62.5959 49.9058L62.5938 49.9012Z" fill="black"/>
</g>
<defs>
<clipPath id="clip0_298_12597">
<rect width="175" height="40" fill="white" transform="translate(62.5938 30)"/>
</clipPath>
</defs>
</svg>
