<svg width="300" height="100" viewBox="0 0 300 100" fill="none" xmlns="http://www.w3.org/2000/svg">
<rect width="300" height="100" fill="white"/>
<g clip-path="url(#clip0_298_12586)">
<path d="M186.416 58.6543C186.812 58.655 187.201 58.7571 187.546 58.9508C187.891 59.1445 188.181 59.4234 188.388 59.7608C188.594 60.0983 188.711 60.4831 188.727 60.8785C188.743 61.274 188.657 61.6669 188.478 62.0199C187.343 64.3368 185.582 66.2888 183.393 67.6544C181.204 69.0197 178.676 69.7436 176.096 69.7436C173.517 69.7436 170.988 69.0197 168.799 67.6544C166.611 66.2888 164.849 64.3368 163.714 62.0199C163.535 61.6669 163.45 61.274 163.465 60.8785C163.481 60.4831 163.598 60.0983 163.805 59.7608C164.012 59.4234 164.301 59.1445 164.646 58.9508C164.992 58.7571 165.381 58.655 165.776 58.6543C166.208 58.6551 166.631 58.7764 166.998 59.0047C167.364 59.2329 167.659 59.559 167.85 59.9461C168.6 61.4961 169.772 62.8034 171.231 63.7181C172.69 64.6328 174.377 65.118 176.099 65.118C177.821 65.118 179.508 64.6328 180.967 63.7181C182.426 62.8034 183.598 61.4961 184.348 59.9461C184.538 59.5599 184.833 59.2344 185.198 59.0062C185.564 58.778 185.985 58.6561 186.416 58.6543Z" fill="black"/>
<path d="M102.613 57.0325H91.3979C84.1223 57.0325 77.9183 51.3846 77.6344 44.109C77.5667 42.3019 77.8641 40.4998 78.509 38.8103C79.1539 37.1209 80.133 35.5789 81.3877 34.2766C82.6423 32.9744 84.1468 31.9386 85.8111 31.2313C87.4753 30.524 89.2652 30.1597 91.0735 30.1602H102.613C103.227 30.1602 103.817 30.4043 104.251 30.8388C104.686 31.2734 104.93 31.8627 104.93 32.4772C104.93 33.0918 104.686 33.6811 104.251 34.1157C103.817 34.5502 103.227 34.7943 102.613 34.7943H91.3284C86.59 34.7885 82.5061 38.4205 82.2686 43.1532C82.2074 44.347 82.3895 45.5408 82.804 46.662C83.2184 47.7832 83.8566 48.8084 84.6796 49.6753C85.5026 50.5422 86.4933 51.2327 87.5915 51.7048C88.6897 52.1769 89.8724 52.4208 91.0677 52.4215H102.613C103.227 52.4215 103.817 52.6656 104.251 53.1002C104.686 53.5347 104.93 54.1241 104.93 54.7386C104.93 55.3531 104.686 55.9425 104.251 56.377C103.817 56.8116 103.227 57.0557 102.613 57.0557" fill="black"/>
<path d="M187.574 30.125C186.96 30.125 186.37 30.3691 185.936 30.8037C185.501 31.2382 185.257 31.8276 185.257 32.4421V35.6628V43.2397C185.253 45.6682 184.286 47.9959 182.568 49.7125C180.85 51.4292 178.522 52.3949 176.093 52.3979C173.783 52.393 171.559 51.5173 169.866 49.9454C168.173 48.3735 167.134 46.2211 166.958 43.9175C166.946 43.6917 166.946 43.4655 166.958 43.2397V42.0811V35.7092V32.4421C166.958 31.8276 166.714 31.2382 166.279 30.8037C165.845 30.3691 165.255 30.125 164.641 30.125C164.026 30.125 163.437 30.3691 163.002 30.8037C162.568 31.2382 162.324 31.8276 162.324 32.4421V35.6744V43.2513C162.324 43.5351 162.324 43.8305 162.324 44.097C162.461 46.3438 163.146 48.5228 164.32 50.4435C165.494 52.3643 167.12 53.9683 169.057 55.1153C170.994 56.2623 173.182 56.9174 175.431 57.0233C177.679 57.1292 179.919 56.6828 181.955 55.723C183.162 55.1523 184.279 54.411 185.275 53.5217C186.729 52.2348 187.894 50.654 188.693 48.8836C189.492 47.1132 189.906 45.1935 189.909 43.2513V42.0927V35.7207V32.4421C189.909 31.8276 189.665 31.2382 189.23 30.8037C188.796 30.3691 188.206 30.125 187.592 30.125" fill="black"/>
<path d="M222.145 33.392L212.709 54.715C212.401 55.4093 211.899 55.9995 211.262 56.4137C210.626 56.828 209.883 57.0485 209.123 57.0485C208.364 57.0485 207.621 56.828 206.984 56.4137C206.348 55.9995 205.845 55.4093 205.538 54.715L196.101 33.392C195.954 33.1111 195.866 32.803 195.843 32.4867C195.82 32.1704 195.862 31.8527 195.966 31.5533C196.071 31.2539 196.236 30.9792 196.451 30.7461C196.666 30.513 196.926 30.3265 197.216 30.1982C197.506 30.0698 197.819 30.0024 198.137 30.0001C198.454 29.9977 198.768 30.0605 199.06 30.1845C199.352 30.3085 199.615 30.4911 199.834 30.721C200.052 30.9509 200.221 31.2232 200.33 31.521L208.724 50.4805C208.757 50.5589 208.813 50.6257 208.884 50.6727C208.955 50.7196 209.038 50.7447 209.123 50.7447C209.208 50.7447 209.292 50.7196 209.363 50.6727C209.434 50.6257 209.49 50.5589 209.523 50.4805L217.916 31.521C218.025 31.2232 218.194 30.9509 218.413 30.721C218.632 30.4911 218.895 30.3085 219.187 30.1845C219.479 30.0605 219.793 29.9977 220.11 30.0001C220.427 30.0024 220.74 30.0698 221.03 30.1982C221.32 30.3265 221.581 30.513 221.796 30.7461C222.011 30.9792 222.176 31.2539 222.28 31.5533C222.385 31.8527 222.427 32.1704 222.404 32.4867C222.38 32.803 222.292 33.1111 222.145 33.392Z" fill="black"/>
<path d="M158.222 43.5988C158.222 40.0253 156.803 36.5982 154.276 34.0714C151.749 31.5446 148.322 30.125 144.749 30.125H143.48C136.187 30.125 129.966 35.7845 129.688 43.0717C129.618 44.8828 129.915 46.6893 130.56 48.3832C131.205 50.077 132.185 51.6234 133.441 52.9299C134.697 54.2364 136.204 55.2762 137.871 55.987C139.538 56.6978 141.332 57.0651 143.144 57.0669H152.036C152.65 57.0669 153.24 56.8228 153.675 56.3882C154.109 55.9537 154.353 55.3643 154.353 54.7498C154.353 54.1353 154.109 53.5459 153.675 53.1114C153.24 52.6768 152.65 52.4327 152.036 52.4327H143.144C141.203 52.4322 139.317 51.7933 137.775 50.6147C136.233 49.436 135.121 47.7829 134.612 45.9101H155.906C156.52 45.9101 157.11 45.666 157.544 45.2315C157.979 44.7969 158.222 44.2076 158.222 43.593M134.612 41.276C135.122 39.4043 136.234 37.7525 137.776 36.5749C139.318 35.3973 141.204 34.7593 143.144 34.7591H144.755C146.695 34.7616 148.581 35.4012 150.122 36.5796C151.664 37.758 152.776 39.41 153.287 41.2818L134.612 41.276Z" fill="black"/>
<path d="M112.171 57.0493C111.556 57.0493 110.967 56.8052 110.532 56.3707C110.098 55.9361 109.854 55.3468 109.854 54.7322V44.0273C109.854 40.4938 111.257 37.105 113.756 34.6064C116.254 32.1078 119.643 30.7041 123.177 30.7041H126.571C127.186 30.7041 127.775 30.9482 128.21 31.3828C128.644 31.8173 128.888 32.4067 128.888 33.0212C128.888 33.6357 128.644 34.2251 128.21 34.6596C127.775 35.0942 127.186 35.3383 126.571 35.3383H123.165C120.861 35.3383 118.651 36.2537 117.021 37.8832C115.391 39.5127 114.476 41.7228 114.476 44.0273V54.7322C114.476 55.3468 114.232 55.9361 113.797 56.3707C113.363 56.8052 112.774 57.0493 112.159 57.0493" fill="black"/>
</g>
<defs>
<clipPath id="clip0_298_12586">
<rect width="145.133" height="40" fill="white" transform="translate(77.625 30)"/>
</clipPath>
</defs>
</svg>
