<svg width="300" height="100" viewBox="0 0 300 100" fill="none" xmlns="http://www.w3.org/2000/svg">
<rect width="300" height="100" fill="white"/>
<g clip-path="url(#clip0_298_12562)">
<path d="M111.72 56.8677C113.128 56.8677 114.32 56.6964 115.574 56.3343C115.77 56.2777 115.895 56.0945 115.875 55.8926L115.756 54.6944C115.743 54.5662 115.679 54.461 115.572 54.3889C115.464 54.3169 115.342 54.2987 115.218 54.3355C114.201 54.637 113.161 54.7878 111.95 54.7878C108.656 54.7878 107.558 53.6719 107.558 50.4769C107.558 47.2815 108.655 46.1909 111.95 46.1909C113.161 46.1909 114.201 46.3416 115.218 46.6431C115.342 46.68 115.464 46.6618 115.572 46.5901C115.679 46.5181 115.743 46.4129 115.756 46.2846L115.875 45.0864C115.895 44.8846 115.77 44.7014 115.574 44.6448C114.32 44.2827 113.128 44.1114 111.72 44.1114C107.098 44.1114 105.234 45.9372 105.234 50.5022C105.234 55.0672 107.098 56.8677 111.72 56.8677ZM118.985 56.5634H120.444C120.674 56.5634 120.864 56.3758 120.864 56.1463V47.5604C122.447 46.6222 123.825 46.2419 125.512 46.2419H125.602C125.834 46.2419 126.022 46.0543 126.022 45.8248V44.5288C126.022 44.2989 125.834 44.1118 125.602 44.1118H125.486C123.903 44.1118 122.473 44.5684 120.582 45.735L120.301 44.4165H118.985C118.754 44.4165 118.565 44.6036 118.565 44.8335V56.1467C118.565 56.3762 118.754 56.5634 118.985 56.5634ZM134.067 56.8677C138.97 56.8677 140.784 55.1178 140.784 50.5022C140.784 45.8612 138.97 44.1114 134.067 44.1114C129.164 44.1114 127.35 45.8612 127.35 50.5022C127.35 55.1178 129.164 56.8677 134.067 56.8677ZM134.067 54.8135C130.772 54.8135 129.674 53.7483 129.674 50.5022C129.674 47.2308 130.772 46.1659 134.067 46.1659C137.361 46.1659 138.459 47.2308 138.459 50.5022C138.459 53.7483 137.361 54.8135 134.067 54.8135ZM146.676 56.5634H148.632C148.814 56.5634 148.969 56.4538 149.029 56.2828L152.149 47.3325L155.244 56.282C155.303 56.4534 155.458 56.5638 155.641 56.5638H157.595C157.778 56.5638 157.933 56.4538 157.993 56.2825L161.917 44.9693C161.963 44.8379 161.943 44.7045 161.862 44.5914C161.781 44.4782 161.66 44.4165 161.52 44.4165H160.036C159.853 44.4165 159.696 44.5276 159.638 44.7002L156.593 53.6727L153.472 44.6974C153.413 44.526 153.258 44.4165 153.075 44.4165H151.274C151.091 44.4165 150.936 44.526 150.877 44.6974L147.756 53.6727L144.711 44.7002C144.653 44.5273 144.497 44.4165 144.314 44.4165H142.753C142.613 44.4165 142.492 44.4782 142.411 44.5914C142.329 44.7045 142.31 44.8379 142.356 44.9693L146.28 56.2825C146.34 56.4538 146.495 56.5638 146.677 56.5638L146.676 56.5634ZM168.979 56.8677C170.869 56.8677 172.452 56.4364 174.214 55.4221L174.444 56.5634H175.761C175.992 56.5634 176.181 56.3758 176.181 56.1463V39.0762C176.181 38.8463 175.992 38.6592 175.761 38.6592H174.303C174.071 38.6592 173.883 38.8463 173.883 39.0762V45.3792C172.248 44.4916 170.741 44.1114 168.979 44.1114C165.071 44.1114 163.488 45.9372 163.488 50.4769C163.488 55.0419 165.071 56.8677 168.979 56.8677ZM169.439 54.8135C166.757 54.8135 165.812 53.6723 165.812 50.5022C165.812 47.3068 166.757 46.1659 169.439 46.1659C171.022 46.1659 172.274 46.5715 173.883 47.5861V53.3937C172.274 54.4083 171.022 54.8135 169.439 54.8135ZM179.819 61.7623H180.446C182.847 61.7623 183.689 61.179 184.634 58.8712L190.324 44.9902C190.378 44.8577 190.364 44.7192 190.283 44.6005C190.203 44.4817 190.079 44.416 189.934 44.416H188.418C188.242 44.416 188.093 44.5166 188.028 44.6784L184.506 53.444L180.859 44.6737C180.793 44.5142 180.645 44.416 180.471 44.416H178.883C178.738 44.416 178.613 44.4825 178.533 44.6028C178.453 44.7231 178.439 44.8628 178.496 44.9958L183.306 56.2848L182.616 57.9587C182.003 59.4296 181.62 59.7592 180.369 59.7592H179.818C179.587 59.7592 179.398 59.9468 179.398 60.1763V61.3456C179.398 61.5755 179.587 61.7627 179.818 61.7627L179.819 61.7623ZM196.479 56.5634H197.588C197.759 56.5634 197.905 56.468 197.974 56.3121L202.87 45.1003C202.928 44.9673 202.916 44.8264 202.836 44.7053C202.756 44.5842 202.631 44.517 202.485 44.517H201.818C201.646 44.517 201.499 44.6127 201.432 44.769L197.046 54.8891L192.661 44.769C192.593 44.6127 192.446 44.517 192.275 44.517H191.582C191.436 44.517 191.311 44.5842 191.231 44.7053C191.151 44.8264 191.139 44.9673 191.197 45.1003L196.094 56.3121C196.162 56.468 196.308 56.5634 196.479 56.5634ZM211.579 56.8677C213.389 56.8677 214.644 56.669 216.13 56.1693C216.322 56.1048 216.438 55.9188 216.412 55.7197L216.347 55.2322C216.33 55.1032 216.262 54.9991 216.15 54.931C216.038 54.863 215.914 54.8503 215.79 54.8939C214.447 55.3671 213.27 55.5492 211.604 55.5492C207.569 55.5492 206.164 54.4839 206.037 51.0348H216.746C216.965 51.0348 217.146 50.869 217.164 50.6522C217.186 50.3894 217.197 50.0906 217.197 49.7923C217.197 45.8105 215.435 44.213 211.016 44.213C206.368 44.213 204.555 45.9629 204.555 50.5785C204.555 55.2702 206.445 56.8677 211.579 56.8677ZM206.062 49.767C206.241 46.5969 207.569 45.532 211.016 45.532C214.464 45.532 215.716 46.6226 215.767 49.767H206.062ZM225.268 56.8677C229.584 56.8677 231.039 55.9041 231.039 53.216C231.039 50.9335 230.018 50.1223 226.621 49.818L224.935 49.6656C222.049 49.412 221.411 49.0064 221.411 47.6875C221.411 46.0642 222.433 45.532 225.497 45.532C227.254 45.532 228.542 45.714 229.835 46.0967C229.956 46.1323 230.074 46.116 230.181 46.0488C230.287 45.9815 230.352 45.8818 230.371 45.758L230.451 45.2241C230.482 45.0175 230.357 44.8233 230.155 44.7635C228.806 44.3638 227.394 44.213 225.702 44.213C221.488 44.213 219.955 45.1513 219.955 47.7634C219.955 49.9446 220.977 50.6545 224.45 51.0095L226.135 51.1872C228.945 51.4915 229.584 51.8465 229.584 53.2667C229.584 55.0165 228.562 55.5492 225.446 55.5492C223.324 55.5492 221.869 55.301 220.384 54.8234C220.262 54.7839 220.139 54.7993 220.03 54.8677C219.921 54.9366 219.855 55.0391 219.839 55.1665L219.77 55.6924C219.744 55.893 219.862 56.0794 220.056 56.1427C221.609 56.6469 223.193 56.8677 225.268 56.8677H225.268ZM238.599 56.5634H240.222C240.453 56.5634 240.642 56.3758 240.642 56.1463V55.6873C240.642 55.4574 240.453 55.2702 240.222 55.2702H238.879C236.99 55.2702 236.479 54.7629 236.479 52.8104V45.7856H240.196C240.427 45.7856 240.616 45.598 240.616 45.3685V44.9349C240.616 44.7049 240.427 44.5178 240.196 44.5178H236.479V41.3081C236.479 41.0786 236.29 40.891 236.059 40.891H235.556C235.33 40.891 235.145 41.0691 235.137 41.2935L235.023 44.5174H232.481C232.249 44.5174 232.061 44.7045 232.061 44.9345V45.3681C232.061 45.5977 232.249 45.7852 232.481 45.7852H234.998V52.9113C234.998 55.6501 235.969 56.563 238.599 56.563L238.599 56.5634Z" fill="#214D52"/>
<path fill-rule="evenodd" clip-rule="evenodd" d="M87.3605 68.2569C87.3174 67.731 87.2083 66.7595 87.0907 65.7124C86.8815 63.8454 86.6448 61.7378 86.7009 61.3686L86.7444 61.0853L87.0245 61.1505C87.4514 61.2503 88.9386 62.177 89.7655 62.6927L90.2019 62.9625L91.0009 63.4509C91.6768 63.866 92.355 64.2823 93.0449 64.6637C93.6589 64.217 94.4353 63.4291 95.1219 62.6009C95.7886 61.7972 96.3664 60.9614 96.6231 60.371C96.0098 59.8665 93.6669 58.4985 92.0466 57.5523C91.4217 57.1875 90.9029 56.8843 90.6251 56.7134C89.3144 55.9057 87.9025 55.6335 86.5782 55.787C85.6493 55.8946 84.7618 56.2136 83.9823 56.7043C83.2024 57.1958 82.5301 57.859 82.0324 58.656C81.3175 59.8004 80.958 61.2245 81.1453 62.8173C81.1776 63.092 81.2318 63.6606 81.2975 64.3519C81.4717 66.1801 81.7303 68.8944 81.9288 69.6577C82.556 69.6747 83.5631 69.505 84.5829 69.2445C85.6389 68.9751 86.6989 68.6102 87.3593 68.256L87.3605 68.2569Z" fill="#C0D271"/>
<path fill-rule="evenodd" clip-rule="evenodd" d="M79.1369 63.4982C79.1561 62.2814 79.0696 61.1627 78.6798 60.1548C78.2941 59.158 77.6031 58.2566 76.4083 57.4572C75.5428 56.8779 74.4453 56.485 73.2848 56.4062C72.2522 56.3361 71.1703 56.5142 70.1585 57.0299C69.6053 57.312 68.5254 58.0437 67.3665 58.8735C65.8896 59.9313 64.2928 61.1441 63.4862 61.7959C63.8437 62.4737 64.5255 63.2363 65.2667 63.947C66.0216 64.6704 66.8333 65.3352 67.4366 65.8085L73.5207 61.4472L73.5346 61.9451C73.549 62.4524 73.5139 63.3914 73.4749 64.4341C73.4111 66.1476 73.3362 68.1467 73.4506 68.8804L74.0121 69.0375C75.4435 69.4431 77.4488 70.0114 78.9333 69.8091L79.1369 63.4982Z" fill="#99CC99"/>
<path fill-rule="evenodd" clip-rule="evenodd" d="M69.2043 55.2653C70.0814 54.5669 70.6788 53.6797 71.0295 52.7268C71.42 51.6651 71.5061 50.5207 71.3344 49.4633C70.7908 46.1211 68.2837 45.0645 65.4842 43.8845C64.9924 43.6771 64.4915 43.4662 63.9726 43.2304L63.6558 43.0855C62.9242 42.7496 61.7601 42.2149 61.1719 42.04C60.8336 42.5917 60.445 43.6696 60.1505 44.7535C59.8572 45.8334 59.66 46.903 59.7006 47.4432L66.5203 50.4566L59.9321 54.1004C60.137 54.9848 60.3673 55.8969 60.6829 56.7928C60.993 57.6725 61.3863 58.5383 61.9211 59.3491C62.5165 59.0215 63.2426 58.6471 64.0157 58.249C65.9138 57.2716 68.096 56.1478 69.2043 55.2653Z" fill="#7CB8A6"/>
<path fill-rule="evenodd" clip-rule="evenodd" d="M71.6092 44.0539C72.731 44.1184 73.9329 43.8418 75.1954 43.0464C78.5488 40.9329 78.1718 37.8775 77.7925 34.8076C77.7418 34.3933 77.6904 33.9785 77.6438 33.5167C77.6227 33.3094 77.604 33.0965 77.5833 32.8563C77.5075 31.975 77.3988 30.7202 77.2501 30.1326C76.6619 30.0993 75.4572 30.2956 74.2892 30.6074C73.2773 30.8777 72.3078 31.2315 71.8176 31.5916C71.8399 32.2445 71.9909 33.3434 72.146 34.4732C72.3719 36.1162 72.6063 37.8249 72.4755 38.4509L72.3998 38.8122L66.1372 35.1123C65.5355 35.5618 64.7046 36.4189 63.9809 37.2954C63.3158 38.1011 62.7483 38.9131 62.545 39.4204C63.2293 39.9313 65.9806 41.5447 67.54 42.4584L68.4733 43.0076C69.4309 43.5802 70.4846 43.989 71.6096 44.0531L71.6092 44.0539Z" fill="#54AB68"/>
<path fill-rule="evenodd" clip-rule="evenodd" d="M80.4569 39.5808C80.8239 40.6065 81.5114 41.5483 82.7699 42.375C86.812 45.0314 90.3169 42.2511 93.9306 39.3838C94.5108 38.9243 95.0934 38.4625 95.6748 38.0237C94.6036 36.3589 93.2435 35.256 91.9193 34.1828L91.7423 34.0396L85.7097 38.3671L85.6599 37.916C85.5674 37.0795 85.626 35.5955 85.6814 34.1765C85.7364 32.7824 85.7886 31.4524 85.6953 30.9308C84.9178 30.6428 83.8151 30.3527 82.7097 30.1746C81.835 30.0341 80.9614 29.9633 80.2509 30.0191L80.052 36.2061C80.0333 37.4032 80.0847 38.542 80.4565 39.5812L80.4569 39.5808Z" fill="#41747A"/>
</g>
<defs>
<clipPath id="clip0_298_12562">
<rect width="181.364" height="40" fill="white" transform="translate(59.6953 30)"/>
</clipPath>
</defs>
</svg>
