<svg width="300" height="100" viewBox="0 0 300 100" fill="none" xmlns="http://www.w3.org/2000/svg">
<rect width="300" height="100" fill="white"/>
<g clip-path="url(#clip0_291_3703)">
<path d="M141.852 58.5184C142.65 58.5053 143.448 58.4909 144.243 58.4792C144.337 58.4785 144.431 58.4829 144.525 58.4923C144.556 58.4951 144.586 58.5098 144.607 58.5336C144.628 58.5573 144.639 58.5882 144.639 58.6201C144.639 58.6515 144.638 58.6831 144.634 58.7143C144.633 58.7408 144.623 58.7661 144.608 58.7874C144.592 58.8088 144.571 58.8252 144.546 58.8348C144.468 58.8646 144.388 58.89 144.308 58.9139C144.148 58.9626 143.991 59.0235 143.84 59.0961C143.534 59.2412 143.39 59.4865 143.374 59.8218C143.367 60.0632 143.397 60.3041 143.465 60.5359C143.557 60.8697 143.65 61.2028 143.76 61.5301C144.255 63.0105 144.754 64.4898 145.257 65.9678C145.282 66.0477 145.312 66.1262 145.345 66.2029C145.368 66.2376 145.396 66.2679 145.43 66.2921C145.444 66.2987 145.459 66.3013 145.474 66.2996C145.49 66.2979 145.504 66.2921 145.517 66.2827C145.538 66.2606 145.556 66.2363 145.572 66.2101C145.611 66.1245 145.648 66.0374 145.681 65.9496C146.326 64.2563 146.971 62.5618 147.615 60.8661C147.641 60.7971 147.666 60.7282 147.687 60.6585C147.725 60.5368 147.718 60.4056 147.668 60.2884C147.555 60.0044 147.402 59.7373 147.216 59.4945C146.983 59.1931 146.647 58.9868 146.273 58.9139C146.14 58.8871 146.009 58.8515 145.878 58.8145C145.769 58.7833 145.763 58.6338 145.806 58.5468C145.817 58.5286 145.834 58.5156 145.855 58.5105C145.905 58.4958 145.957 58.4868 146.009 58.4836C146.134 58.4836 146.261 58.4836 146.386 58.4836C147.613 58.5151 148.841 58.5209 150.068 58.501C150.33 58.4966 150.592 58.4865 150.854 58.4807C150.949 58.4807 151.043 58.4807 151.137 58.4843C151.306 58.4966 151.33 58.6338 151.275 58.7601C151.254 58.7966 151.221 58.8241 151.181 58.837C151.082 58.8704 150.979 58.8922 150.878 58.9205C150.748 58.9582 150.618 59.0003 150.487 59.0373C150.378 59.0739 150.275 59.1289 150.184 59.1999C150.107 59.2543 150.043 59.3262 149.998 59.4097C149.953 59.4932 149.928 59.5861 149.925 59.681C149.917 59.8068 149.925 59.9331 149.949 60.0569C150.028 60.4793 150.137 60.8955 150.276 61.3022C150.607 62.2742 150.939 63.2459 151.272 64.2173C151.468 64.7928 151.667 65.3676 151.864 65.9423C151.893 66.043 151.935 66.1393 151.99 66.2283C151.999 66.2408 152.012 66.2509 152.026 66.2578C152.04 66.2648 152.055 66.2684 152.071 66.2684C152.087 66.2684 152.102 66.2648 152.116 66.2578C152.13 66.2509 152.142 66.2408 152.152 66.2283C152.172 66.204 152.189 66.178 152.204 66.1506C152.23 66.0933 152.253 66.0352 152.277 65.9757C152.799 64.5374 153.311 63.0962 153.774 61.6375C153.91 61.2079 154.026 60.7725 154.129 60.3312C154.163 60.1777 154.18 60.021 154.18 59.8639C154.181 59.7697 154.164 59.6762 154.128 59.5889C154.093 59.5017 154.04 59.4225 153.973 59.3559C153.887 59.2641 153.785 59.1881 153.672 59.1316C153.467 59.0264 153.246 58.9531 153.019 58.9139C152.895 58.8936 152.772 58.8675 152.65 58.8413C152.603 58.8309 152.562 58.8028 152.536 58.7628C152.509 58.7229 152.499 58.6743 152.508 58.6273C152.508 58.5899 152.522 58.5539 152.548 58.5269C152.574 58.4999 152.609 58.4838 152.647 58.4822C152.74 58.4778 152.835 58.4771 152.929 58.4822C153.464 58.4901 153.999 58.5039 154.534 58.5068C155.121 58.5105 155.708 58.5068 156.296 58.5018C156.454 58.5018 156.61 58.4887 156.768 58.4829C156.925 58.4715 157.083 58.4783 157.238 58.5032C157.269 58.5083 157.298 58.5251 157.317 58.5501C157.337 58.5752 157.346 58.6066 157.343 58.6382C157.351 58.6799 157.343 58.7228 157.323 58.7597C157.302 58.7966 157.269 58.8252 157.229 58.8406C157.181 58.8595 157.13 58.8741 157.08 58.8893C156.81 58.9768 156.561 59.1202 156.35 59.3102C156.168 59.4692 156.002 59.6448 155.853 59.8349C155.537 60.2405 155.259 60.6743 155.023 61.1309C154.711 61.7135 154.435 62.3143 154.196 62.9299C153.839 63.8492 153.485 64.7684 153.135 65.6876C152.69 66.8521 152.247 68.0173 151.804 69.1833C151.766 69.2813 151.727 69.3785 151.685 69.4736C151.626 69.6056 151.568 69.6354 151.439 69.5991C151.311 69.5629 151.197 69.5266 151.076 69.4918C151.001 69.47 150.932 69.4295 150.876 69.3739C150.82 69.3183 150.779 69.2495 150.757 69.1739C150.421 68.1579 150.083 67.1443 149.741 66.1332C149.33 64.9116 148.918 63.6905 148.504 62.4699C148.431 62.2522 148.344 62.0345 148.261 61.8225C148.243 61.7849 148.221 61.7498 148.195 61.7181C148.174 61.7019 148.148 61.6935 148.121 61.6943C148.095 61.6951 148.069 61.705 148.049 61.7224C148.024 61.7559 148.003 61.7916 147.984 61.8291C147.934 61.9445 147.885 62.0598 147.839 62.1774C147.003 64.3821 146.166 66.586 145.329 68.7892L145.136 69.2915C145.113 69.3502 145.091 69.409 145.064 69.4663C145.001 69.6115 144.94 69.6441 144.795 69.5977C144.723 69.5752 144.657 69.5505 144.588 69.5251C144.519 69.4997 144.431 69.467 144.351 69.4409C144.316 69.4291 144.284 69.41 144.257 69.385C144.23 69.36 144.208 69.3296 144.194 69.2958C144.155 69.2102 144.121 69.1223 144.088 69.0338C143.211 66.5534 142.333 64.0751 141.454 61.5991C141.359 61.332 141.254 61.0693 141.147 60.808C141.032 60.5373 140.895 60.2769 140.737 60.0293C140.588 59.7879 140.409 59.5665 140.205 59.3704C139.979 59.1495 139.702 58.9878 139.398 58.8994C139.326 58.8798 139.253 58.8588 139.189 58.8334C139.164 58.82 139.142 58.8012 139.125 58.7785C139.108 58.7557 139.097 58.7295 139.091 58.7018C139.086 58.6741 139.087 58.6454 139.094 58.618C139.1 58.5905 139.113 58.565 139.131 58.5431C139.152 58.5201 139.179 58.5047 139.21 58.4996C139.314 58.4871 139.419 58.4801 139.524 58.4785C139.996 58.4858 140.467 58.4981 140.94 58.5046C141.244 58.5083 141.549 58.5046 141.853 58.5046L141.852 58.5184Z" fill="#444445"/>
<path d="M167.561 64.2573L170.042 64.2211C170.095 64.2211 170.147 64.2211 170.199 64.2211C170.236 64.2202 170.272 64.2321 170.301 64.2547C170.331 64.2773 170.351 64.3092 170.36 64.3452C170.37 64.3856 170.368 64.4285 170.353 64.4676C170.338 64.5067 170.311 64.5401 170.276 64.5629C170.21 64.5934 170.14 64.6158 170.072 64.6419C169.954 64.6862 169.836 64.7291 169.72 64.7769C169.662 64.8011 169.606 64.8299 169.553 64.8633C169.458 64.9204 169.376 64.9965 169.312 65.0868C169.249 65.1771 169.205 65.2796 169.183 65.388C169.12 65.6642 169.085 65.9459 169.078 66.2291C169.071 66.7436 169.078 67.2574 169.078 67.7712C169.078 67.8341 169.084 67.8969 169.093 67.9591C169.099 68.0064 169.122 68.0501 169.157 68.0823C169.192 68.1146 169.237 68.1335 169.285 68.1355C169.4 68.142 169.516 68.1413 169.631 68.1435C169.714 68.1435 169.799 68.1435 169.882 68.1522C169.919 68.1572 169.952 68.1757 169.976 68.2042C170 68.2326 170.013 68.2689 170.011 68.306C170.012 68.3376 170.01 68.3691 170.005 68.4003C170.004 68.4213 169.997 68.4415 169.986 68.4592C169.974 68.4768 169.959 68.4913 169.94 68.5012C169.867 68.5418 169.791 68.5779 169.714 68.6094C169.068 68.8575 168.409 69.0676 167.739 69.2385C167.272 69.3583 166.802 69.4599 166.325 69.5332C166.068 69.5836 165.807 69.6134 165.545 69.6224C165.493 69.6222 165.44 69.6256 165.388 69.6326C165.023 69.6751 164.655 69.6881 164.288 69.6718C164.132 69.6718 163.975 69.6536 163.818 69.6428C163.734 69.6377 163.651 69.629 163.567 69.6232C162.528 69.5656 161.513 69.2846 160.592 68.7995C159.891 68.436 159.273 67.9312 158.777 67.3169C158.297 66.7168 157.966 66.0111 157.812 65.2581C157.695 64.7029 157.658 64.1342 157.701 63.5686C157.76 62.6849 158.054 61.833 158.552 61.1013C159.2 60.149 160.107 59.4019 161.165 58.9481C161.791 58.6788 162.447 58.4858 163.119 58.3733C163.667 58.2803 164.222 58.2366 164.778 58.2428C165.093 58.2428 165.409 58.2428 165.722 58.2645C166.012 58.2848 166.302 58.3189 166.592 58.3625C167.038 58.4287 167.48 58.5188 167.915 58.6325C168.206 58.7093 168.501 58.7935 168.793 58.8778C169.085 58.9619 169.106 59.0229 169.107 59.3001C169.107 60.1395 169.107 60.9786 169.107 61.8175C169.107 61.8386 169.107 61.8596 169.103 61.8807C169.1 61.9175 169.086 61.9524 169.063 61.9808C169.039 62.0091 169.007 62.0294 168.971 62.0389C168.916 62.0581 168.857 62.0579 168.802 62.0383C168.747 62.0188 168.701 61.9811 168.67 61.9315C168.619 61.8284 168.573 61.7225 168.529 61.6158C168.397 61.2852 168.23 60.9691 168.033 60.6724C167.711 60.1782 167.284 59.7615 166.781 59.4525C166.382 59.2191 165.945 59.0586 165.49 58.9786C165.118 58.9138 164.739 58.8955 164.362 58.9242C162.278 59.0505 161.052 60.4075 160.588 61.6651C160.475 61.9808 160.396 62.3078 160.354 62.6405C160.303 63.0044 160.288 63.3723 160.308 63.7392C160.372 64.9533 160.732 66.0614 161.502 67.0222C162.207 67.9082 163.18 68.5419 164.275 68.8285C164.722 68.9536 165.185 69.0166 165.649 69.0158C165.859 69.0102 166.068 68.9859 166.273 68.9432C166.571 68.8888 166.75 68.6935 166.812 68.3982C166.83 68.3158 166.838 68.2319 166.838 68.1478C166.838 67.5087 166.836 66.8689 166.833 66.2283C166.824 65.9762 166.765 65.7284 166.659 65.499C166.601 65.3635 166.517 65.2408 166.412 65.138C166.306 65.0352 166.181 64.9544 166.044 64.9003C165.851 64.8188 165.651 64.7546 165.446 64.7087C165.201 64.6521 164.951 64.6216 164.703 64.5832C164.661 64.5802 164.619 64.5739 164.579 64.5643C164.553 64.5588 164.528 64.5475 164.507 64.5312C164.486 64.5151 164.469 64.4944 164.457 64.4708C164.445 64.4471 164.439 64.4211 164.438 64.3945C164.438 64.3681 164.443 64.3418 164.454 64.3176C164.459 64.297 164.47 64.2783 164.485 64.2638C164.501 64.2492 164.52 64.2394 164.541 64.2356C164.603 64.2253 164.665 64.2197 164.728 64.2189C164.906 64.2189 165.084 64.2269 165.263 64.2291L167.561 64.2573Z" fill="#444445"/>
<path d="M136.627 60.5557C136.621 60.965 136.617 61.3735 136.61 61.7828C136.607 61.8558 136.6 61.9285 136.588 62.0005C136.583 62.0317 136.568 62.0603 136.545 62.0821C136.522 62.1038 136.492 62.1175 136.461 62.121C136.24 62.1384 136.162 62.1305 136.09 61.8881C136.033 61.6979 135.968 61.5092 135.897 61.3235C135.733 60.8686 135.495 60.4442 135.191 60.068C134.716 59.4861 134.045 59.0967 133.304 58.9722C132.845 58.8895 132.386 58.9091 131.925 58.9258C131.161 59.0212 130.441 59.342 129.859 59.8474C129.14 60.4701 128.63 61.2999 128.401 62.2233C128.24 62.8239 128.176 63.446 128.211 64.0666C128.252 64.9497 128.488 65.8129 128.9 66.5949C129.242 67.2361 129.722 67.7937 130.304 68.2278C130.828 68.6172 131.44 68.8723 132.085 68.9709C132.313 69.0073 132.543 69.0258 132.774 69.0261C133.418 69.0254 134.048 68.8406 134.59 68.4933C135.036 68.2121 135.429 67.8553 135.751 67.4389C136.018 67.1012 136.253 66.74 136.455 66.3598C136.549 66.1842 136.635 66.0049 136.727 65.8272C136.76 65.7626 136.793 65.6972 136.831 65.6341C136.846 65.606 136.87 65.5836 136.899 65.5705C136.929 65.5573 136.961 65.5542 136.992 65.5615C137.065 65.5797 137.132 65.6043 137.201 65.6276C137.221 65.6348 137.238 65.6478 137.251 65.6651C137.263 65.6823 137.269 65.7029 137.27 65.7241C137.273 65.7766 137.27 65.8293 137.259 65.8809C137.07 66.7415 136.849 67.5928 136.518 68.4121C136.463 68.5478 136.399 68.6806 136.349 68.8185C136.325 68.888 136.284 68.9503 136.229 69.0002C136.175 69.05 136.109 69.0858 136.038 69.1044C135.948 69.1327 135.859 69.161 135.769 69.1929C135.255 69.3734 134.723 69.4982 134.182 69.5652C133.517 69.6568 132.845 69.6898 132.174 69.6639C131.514 69.6459 130.857 69.5672 130.211 69.4288C129.337 69.2398 128.509 68.8853 127.769 68.3845C127.301 68.0628 126.889 67.6672 126.548 67.2132C126.118 66.6406 125.828 65.9749 125.703 65.2698C125.616 64.8156 125.581 64.3531 125.597 63.891C125.645 62.7981 125.938 61.7865 126.589 60.8902C127.197 60.0542 128.013 59.3919 128.957 58.9693C129.579 58.6903 130.233 58.4902 130.905 58.3735C131.4 58.282 131.903 58.2393 132.406 58.2458C132.584 58.2487 132.763 58.2487 132.941 58.2458C133.68 58.2392 134.402 58.3619 135.119 58.536C135.495 58.6278 135.866 58.7424 136.229 58.8793C136.307 58.909 136.385 58.941 136.462 58.9736C136.501 58.9893 136.535 59.0159 136.559 59.0505C136.584 59.085 136.597 59.1259 136.599 59.1681C136.605 59.2305 136.611 59.2937 136.611 59.3561C136.616 59.7545 136.619 60.1543 136.624 60.552L136.627 60.5557Z" fill="#444445"/>
<path d="M170.294 41.8234C170.268 41.2294 170.191 40.6387 170.061 40.0584C169.823 38.9512 169.416 37.8869 168.856 36.9024C167.968 35.3476 166.75 34.0069 165.287 32.9749C164.135 32.1598 162.863 31.5293 161.517 31.1062C160.715 30.8454 159.894 30.6484 159.062 30.517C158.609 30.4376 158.152 30.3816 157.693 30.3493C157.654 30.3484 157.616 30.3443 157.578 30.337C157.417 30.3106 157.254 30.2972 157.091 30.2971C156.861 30.2884 156.631 30.2833 156.401 30.2695C155.663 30.2267 154.925 30.2746 154.189 30.3094C153.971 30.3217 153.753 30.3471 153.53 30.3733C153.308 30.3994 153.095 30.4371 152.877 30.4633C152.392 30.5235 151.911 30.6135 151.436 30.7194C150.369 30.9524 149.323 31.2743 148.309 31.6817C148.229 31.7151 148.15 31.7477 148.069 31.779C147.996 31.8065 147.916 31.8065 147.844 31.779C147.781 31.755 147.721 31.7289 147.659 31.7028C146.948 31.4167 146.221 31.1715 145.482 30.9683C144.669 30.7453 143.843 30.5753 143.008 30.4596C142.847 30.4371 142.684 30.4233 142.524 30.3958C142.249 30.3508 141.97 30.3334 141.693 30.3109C141.297 30.2768 140.892 30.2717 140.49 30.2557C139.827 30.2296 139.169 30.2869 138.506 30.3094C138.487 30.3095 138.468 30.3107 138.45 30.313C138.042 30.3682 137.63 30.3943 137.224 30.4669C136.934 30.517 136.635 30.5496 136.344 30.6069C135.461 30.7784 134.592 31.0211 133.748 31.3326C132.248 31.8795 130.861 32.6955 129.655 33.7405C128.253 34.9457 127.152 36.4615 126.44 38.1673C125.962 39.3216 125.682 40.5483 125.612 41.7958C125.566 42.552 125.587 43.3108 125.672 44.0636C125.73 44.5873 125.82 45.1068 125.941 45.6195C126.367 47.4317 127.283 49.0916 128.591 50.4164C129.52 51.3617 130.592 52.1556 131.767 52.7691C132.802 53.3133 133.895 53.7391 135.025 54.0383C135.765 54.2347 136.516 54.3847 137.275 54.4875C137.521 54.5224 137.77 54.5376 138.018 54.5637C138.17 54.5775 138.324 54.6015 138.476 54.6087C139.339 54.6435 140.201 54.6465 141.064 54.6087C141.121 54.609 141.179 54.6056 141.236 54.5985C141.51 54.55 141.79 54.5463 142.064 54.51C142.397 54.4672 142.73 54.4237 143.06 54.37C143.674 54.2698 144.282 54.1397 144.884 53.9795C145.643 53.7773 146.389 53.5284 147.117 53.2343C147.218 53.204 147.31 53.1474 147.382 53.0703C147.404 53.0453 147.432 53.0257 147.464 53.0131C147.495 53.0006 147.529 52.9953 147.563 52.9977C147.793 52.9977 148.023 52.9977 148.253 52.9977C148.315 52.9923 148.377 53.0008 148.436 53.0227C148.494 53.0445 148.547 53.0791 148.59 53.124C148.632 53.1617 148.682 53.191 148.735 53.2103C148.804 53.243 148.876 53.2691 148.948 53.2967C150.261 53.8132 151.627 54.1808 153.022 54.3925C153.496 54.465 153.966 54.534 154.448 54.5637C154.495 54.5674 154.543 54.5754 154.59 54.5811C154.685 54.5891 154.782 54.6037 154.88 54.6065C155.713 54.6363 156.549 54.64 157.381 54.6065C157.459 54.6065 157.535 54.5978 157.611 54.5891C157.896 54.5601 158.184 54.5311 158.469 54.4999C158.678 54.4752 158.888 54.4563 159.096 54.4215C159.623 54.3323 160.149 54.2285 160.669 54.095C161.757 53.8227 162.813 53.4357 163.819 52.9404C165.131 52.3013 166.325 51.4422 167.348 50.4004C168.393 49.336 169.188 48.0531 169.676 46.6442C169.896 45.9998 170.06 45.3377 170.166 44.6652C170.19 44.5143 170.208 44.3626 170.228 44.2102C170.233 44.1724 170.235 44.134 170.237 44.0948C170.242 44.0048 170.218 43.9736 170.142 43.9714V43.9939H168.226C168.182 43.9939 168.135 43.9939 168.089 43.9939C167.62 43.9939 167.044 43.9939 166.469 43.9939C166.435 43.9939 166.404 43.9939 166.372 43.9939C166.308 43.9939 166.244 43.9939 166.181 43.9939C166.153 43.9945 166.125 43.9885 166.099 43.9765C166.08 43.9675 166.063 43.9547 166.049 43.9388C165.956 43.9068 165.871 43.8576 165.798 43.7936C165.724 43.7331 165.665 43.6575 165.624 43.5719C165.583 43.4864 165.561 43.3929 165.56 43.298C165.56 42.9126 165.922 42.5977 166.372 42.5977H167.793C167.931 42.5977 168.071 42.5977 168.209 42.5977L170.023 42.589C170.1 42.5898 170.176 42.5852 170.251 42.5752C170.264 42.5711 170.276 42.564 170.286 42.5544C170.296 42.5448 170.304 42.5331 170.309 42.52C170.321 42.474 170.327 42.4263 170.326 42.3785C170.317 42.187 170.303 42.0055 170.294 41.8234ZM165.832 43.9279C165.87 43.9301 165.907 43.9408 165.94 43.9591C165.964 43.9729 165.992 44.0004 165.992 44.023C165.998 44.1089 165.995 44.1952 165.983 44.2805C165.591 46.6311 164.605 48.6885 162.96 50.4236C162.329 51.0955 161.61 51.679 160.823 52.158C159.969 52.6724 159.045 53.0612 158.08 53.3126C157.117 53.5723 156.121 53.6945 155.124 53.6755C155.019 53.6755 154.913 53.6668 154.808 53.6682C154.53 53.6633 154.253 53.6368 153.98 53.5891C152.683 53.3977 151.467 52.846 150.469 51.997C150.446 51.9781 150.426 51.957 150.403 51.9396C150.356 51.9003 150.317 51.851 150.291 51.7952C150.264 51.7394 150.25 51.6785 150.249 51.6167C150.206 51.0514 150.202 50.486 150.191 49.875C150.141 49.3619 150.186 48.8068 150.213 48.2523C150.241 47.611 150.356 46.9763 150.554 46.3655C150.656 46.0453 150.797 45.7391 150.975 45.454C151.384 44.7955 152.036 44.3242 152.789 44.142C153.143 44.0545 153.505 44.0104 153.869 44.0106C154.541 44.0055 155.211 43.9917 155.883 43.9867C158.25 43.9743 160.616 43.9678 162.985 43.954C163.827 43.949 164.67 43.933 165.514 43.9228C165.623 43.9184 165.729 43.9206 165.834 43.9257L165.832 43.9279ZM166.107 42.5295C166.103 42.5481 166.093 42.5651 166.08 42.5788C166.067 42.5925 166.05 42.6023 166.031 42.6071C165.945 42.6144 165.861 42.6231 165.774 42.6231C165.371 42.6231 164.968 42.6231 164.565 42.6231H156.284V42.6158C153.926 42.6085 151.567 42.6011 149.208 42.5933C148.422 42.5933 147.637 42.5781 146.85 42.5694C146.764 42.5694 146.678 42.5694 146.593 42.5781C146.564 42.5804 146.537 42.5929 146.516 42.6134C146.496 42.6339 146.483 42.661 146.481 42.6898C146.475 42.7385 146.47 42.7849 146.469 42.835C146.469 42.9402 146.469 43.0461 146.469 43.1514V50.51C146.469 50.6152 146.469 50.7211 146.465 50.8264C146.464 50.9237 146.426 51.0171 146.359 51.0877C146.175 51.2807 145.996 51.4831 145.802 51.6682C145.061 52.3965 144.165 52.9484 143.18 53.2829C142.708 53.4384 142.222 53.5478 141.729 53.6094C141.119 53.6851 140.504 53.6977 139.892 53.6472C138.269 53.5466 136.692 53.0749 135.281 52.2684C134.318 51.7097 133.451 50.999 132.714 50.1638C131.423 48.7202 130.52 46.9722 130.09 45.0839C130 44.7022 129.94 44.3133 129.888 43.9228C129.799 43.219 129.765 42.5093 129.786 41.8001C129.796 41.3647 129.836 40.9387 129.883 40.5105C129.915 40.2043 129.955 39.9017 130.014 39.5991C130.426 37.3277 131.407 35.3516 133.07 33.7325C134.265 32.5544 135.763 31.7313 137.399 31.3551C138.219 31.1584 139.061 31.0626 139.905 31.0699C140.122 31.0736 140.346 31.0736 140.567 31.0808C140.7 31.0808 140.835 31.0997 140.968 31.1135C141.185 31.1345 141.403 31.1548 141.621 31.1897C142.582 31.3255 143.506 31.6504 144.34 32.1454C145.088 32.6012 145.732 33.2074 146.233 33.9256C146.694 34.5877 147.052 35.3156 147.297 36.0845C147.437 36.5123 147.549 36.9486 147.633 37.3908C147.672 37.5961 147.731 37.6295 147.924 37.6259C147.991 37.6259 148.059 37.6259 148.124 37.6208C148.153 37.6189 148.181 37.6081 148.203 37.5897C148.226 37.5714 148.242 37.5465 148.25 37.5185C148.273 37.446 148.288 37.3697 148.304 37.2957C148.474 36.4101 148.768 35.5527 149.176 34.7485C149.475 34.1684 149.855 33.6341 150.306 33.1621C151.013 32.4263 151.887 31.8712 152.854 31.5438C153.335 31.3824 153.829 31.2627 154.331 31.1861C155.099 31.0691 155.878 31.0355 156.653 31.0859C157.861 31.1419 159.049 31.4192 160.157 31.9038C161.096 32.3208 161.958 32.8948 162.705 33.6012C164.139 34.9459 165.106 36.5765 165.64 38.4634C165.802 39.054 165.924 39.6551 166.003 40.2624C166.09 40.9283 166.129 41.5996 166.121 42.2711C166.125 42.356 166.116 42.4409 166.109 42.5273L166.107 42.5295Z" fill="#444445"/>
<path d="M173.607 44.0284H170.141L170.314 42.5342H173.607C173.805 42.5342 173.995 42.6128 174.135 42.7529C174.275 42.8929 174.353 43.0828 174.353 43.2809C174.353 43.479 174.275 43.669 174.135 43.8092C173.995 43.9494 173.805 44.0282 173.607 44.0284Z" fill="#444445"/>
</g>
<defs>
<clipPath id="clip0_291_3703">
<rect width="48.8235" height="40" fill="white" transform="translate(125.588 30)"/>
</clipPath>
</defs>
</svg>
