<svg width="300" height="100" viewBox="0 0 300 100" fill="none" xmlns="http://www.w3.org/2000/svg">
<rect width="300" height="100" fill="white"/>
<path d="M86.4897 30.9174C87.0436 30.9097 87.5935 31.0131 88.1068 31.2215C88.6201 31.43 89.0863 31.7392 89.4781 32.1309C89.8698 32.5227 90.179 32.9889 90.3875 33.5022C90.5959 34.0155 90.6993 34.5654 90.6916 35.1193C90.6916 37.5582 89.0975 39.3403 86.5216 39.3499C83.9456 39.3595 82.3771 37.6666 82.3452 35.1512C82.3252 34.5974 82.4181 34.0453 82.6182 33.5285C82.8183 33.0117 83.1213 32.541 83.509 32.145C83.8967 31.749 84.3608 31.436 84.8732 31.225C85.3856 31.0139 85.9356 30.9093 86.4897 30.9174Z" fill="#0A699A"/>
<path d="M267.809 45.9362C267.619 46.0302 267.408 46.072 267.197 46.0574H263.007C262.858 46.0574 262.72 46.0382 262.724 46.2678C262.749 47.9543 262.682 49.6408 262.762 51.3241C262.784 51.8456 262.9 52.3588 263.106 52.8384C263.281 53.2333 263.545 53.5825 263.876 53.859C264.208 54.1355 264.599 54.3317 265.019 54.4325C265.576 54.587 266.148 54.68 266.725 54.7098C267.235 54.7449 267.799 54.8916 267.805 55.3953C267.805 56.7119 267.805 58.0318 267.805 59.3517C267.805 59.7215 267.168 59.9096 266.804 59.9064C264.796 59.8745 262.803 59.7087 260.887 59.0392C258.101 58.0828 256.685 56.0361 256.354 53.1636C256.257 51.9835 256.225 50.7989 256.258 49.6153C256.258 48.5345 256.258 47.4569 256.258 46.3794C256.258 46.1275 256.201 46.0606 255.939 46.0606C254.664 46.0606 253.418 46.0606 252.155 46.0606C251.642 46.0606 251.572 45.9872 251.572 45.4771C251.572 43.9894 251.572 42.4963 251.572 40.9979C251.572 40.3985 251.753 40.2168 252.34 40.2168C253.555 40.2168 254.766 40.2168 255.981 40.2168C256.23 40.2168 256.3 40.1594 256.3 39.898C256.3 37.8162 256.3 35.7376 256.3 33.6557C256.3 33.5218 256.3 33.3879 256.3 33.254C256.338 32.8683 256.497 32.7567 256.877 32.8332C258.028 33.0565 259.159 33.3764 260.256 33.7896C261.474 34.2551 262.137 35.1669 262.488 36.3656C262.661 36.9683 262.738 37.5944 262.717 38.2211C262.717 38.779 262.717 39.3401 262.717 39.898C262.717 40.1467 262.8 40.2009 263.036 40.1977C264.452 40.1977 265.867 40.1977 267.283 40.1977C267.378 40.1858 267.475 40.1957 267.566 40.2267C267.657 40.2576 267.74 40.3087 267.809 40.3762L267.809 45.9362Z" fill="#0A699A"/>
<path d="M32.0436 45.2541C32.0436 40.7652 32.0436 36.2775 32.0436 31.7908C32.0436 31.6664 32.0436 31.5389 32.0436 31.4146C32.0723 31.0256 32.2253 30.8758 32.6079 30.879C35.5632 30.879 38.5218 30.812 41.4739 30.9141C44.1806 31.0065 46.8204 31.5007 49.2465 32.76C52.9447 34.6728 55.4186 37.6282 56.3687 41.7248C57.1242 44.9767 56.9712 48.1998 55.6354 51.2891C54.9527 52.9094 53.9545 54.3778 52.6989 55.6087C51.4433 56.8397 49.9555 57.8086 48.3219 58.4591C46.2404 59.3107 44.0218 59.7784 41.7736 59.8395C38.7609 59.9607 35.7482 59.8682 32.7322 59.8842C32.5831 59.8872 32.4376 59.8378 32.3211 59.7446C32.2046 59.6514 32.1244 59.5203 32.0946 59.3741C32.0503 59.1765 32.0332 58.9738 32.0436 58.7715V45.2541ZM38.8119 45.2923V53.033C38.8119 53.4697 38.9394 53.626 39.3379 53.6228C40.6642 53.6228 41.9904 53.6833 43.3135 53.4921C44.518 53.3502 45.6698 52.9173 46.6696 52.2308C47.6694 51.5443 48.4871 50.6248 49.052 49.5516C49.9734 47.8511 50.2711 45.882 49.8937 43.9852C49.3389 40.6855 46.9766 37.6887 42.6312 37.236C41.5345 37.1213 40.4378 37.1531 39.3411 37.1436C38.8151 37.1436 38.8055 37.1436 38.8055 37.6696L38.8119 45.2923Z" fill="#0A699A"/>
<path d="M184.829 30.9365H196.73C197.26 30.9365 197.339 31.0162 197.339 31.5741C197.339 33.3053 197.339 35.0396 197.339 36.7739C197.339 37.2617 197.323 37.2808 196.842 37.2808H188.856C188.358 37.2808 188.333 37.3063 188.333 37.8005V59.2212C188.333 59.8588 188.218 59.9768 187.606 59.8588C186.268 59.6266 184.957 59.2613 183.691 58.7685C183.206 58.5772 182.77 58.2802 182.414 57.8991C182.059 57.5181 181.792 57.0625 181.635 56.5655C181.361 55.7831 181.226 54.9587 181.236 54.1298V37.8706C181.236 37.2967 181.211 37.2681 180.634 37.2681H172.96C172.864 37.2681 172.769 37.2681 172.673 37.2681C172.354 37.2681 172.246 37.1565 172.243 36.8249C172.243 35.9386 172.243 35.0523 172.243 34.1692V31.5104C172.243 31.0927 172.396 30.9397 172.813 30.9397L184.829 30.9365Z" fill="#0A699A"/>
<path d="M78.9721 52.8604V58.7519C78.9721 59.3641 78.8637 59.4725 78.2484 59.4725C77.2569 59.4725 76.2622 59.4533 75.2707 59.4725C75.0454 59.5025 74.8167 59.4514 74.6256 59.3281C74.4346 59.2048 74.2937 59.0175 74.2282 58.7998C74.0433 58.3247 74.0274 58.3343 73.5619 58.5511C70.7592 59.8983 67.5796 60.2449 64.5524 59.533C63.8735 59.4034 63.2267 59.1412 62.6491 58.7616C62.0714 58.382 61.5742 57.8923 61.1858 57.3205C60.6349 56.4444 60.3207 55.4404 60.274 54.4066C60.125 52.9908 60.3538 51.5607 60.9371 50.2621C61.7373 48.5979 63.1146 47.6319 64.8425 47.125C66.6582 46.6241 68.5582 46.5068 70.4217 46.7807C71.138 46.8691 71.8445 47.0238 72.5322 47.243C72.7713 47.3195 72.7649 47.243 72.7362 47.0485C72.7007 46.7234 72.5596 46.4188 72.3344 46.1816C72.1093 45.9443 71.8125 45.7875 71.4897 45.735C68.6204 45.0464 65.8595 45.2377 63.2007 46.6022C63.1076 46.6531 63.0092 46.6937 62.9074 46.7233C62.4929 46.8349 62.2984 46.6882 62.2984 46.2579C62.2984 44.6989 62.2984 43.1399 62.2984 41.5777C62.2828 41.4096 62.3235 41.241 62.4141 41.0984C62.5047 40.9559 62.6401 40.8475 62.799 40.7903C63.5324 40.4991 64.2942 40.2854 65.0721 40.1527C67.2006 39.7386 69.38 39.6536 71.5343 39.9008C73.1528 40.0391 74.7116 40.5769 76.071 41.4662C77.7734 42.6426 78.6214 44.3131 78.9083 46.3248C78.9673 46.8028 78.9929 47.2843 78.9849 47.7658C78.9753 49.4651 78.9721 51.1643 78.9721 52.8604ZM69.1114 51.9039C68.6685 51.872 68.2233 51.9009 67.7883 51.99C67.5172 52.0334 67.2575 52.1309 67.0248 52.2765C66.792 52.4222 66.5909 52.6132 66.4334 52.8381C66.2898 53.032 66.2286 53.2749 66.2633 53.5137C66.2979 53.7526 66.4255 53.9681 66.6183 54.1133C66.8902 54.3499 67.2204 54.5095 67.5747 54.5756C69.2707 54.8702 71.0156 54.6722 72.6023 54.0049C72.6611 53.9845 72.7105 53.9437 72.7416 53.8898C72.7726 53.8359 72.7832 53.7726 72.7713 53.7116C72.7713 53.3737 72.7713 53.0357 72.7713 52.701C72.7713 52.5161 72.7203 52.4364 72.529 52.3822C71.4129 52.0852 70.2659 51.9204 69.1114 51.8912V51.9039Z" fill="#0A699A"/>
<path d="M107.518 69.3462H104.541C104.132 69.3462 104.037 69.1836 104.222 68.8297C106.536 64.5534 108.85 60.2793 111.162 56.0073C111.203 55.9448 111.225 55.8716 111.225 55.7968C111.225 55.722 111.203 55.6489 111.162 55.5864C108.612 50.8999 106.061 46.2103 103.511 41.5174L103.425 41.3676C103.224 41.0488 103.355 40.8065 103.744 40.8033C104.477 40.8033 105.21 40.8033 105.94 40.8033C107.078 40.8033 108.213 40.8033 109.348 40.8033C109.526 40.7877 109.704 40.8271 109.858 40.916C110.013 41.005 110.136 41.1392 110.212 41.3006C111.634 43.9659 113.063 46.6279 114.5 49.2868C114.538 49.3633 114.554 49.4844 114.644 49.4876C114.733 49.4908 114.768 49.3601 114.809 49.2836C116.216 46.6842 117.621 44.0849 119.024 41.4855C119.12 41.2657 119.282 41.0813 119.488 40.9579C119.694 40.8344 119.933 40.7782 120.172 40.7969C121.896 40.8256 123.621 40.7969 125.343 40.7969C125.434 40.785 125.526 40.7947 125.612 40.8252C125.699 40.8557 125.777 40.906 125.84 40.9723C125.899 41.0289 125.937 41.1046 125.946 41.1862C125.956 41.2677 125.936 41.35 125.891 41.4186C123.485 45.8819 121.08 50.3452 118.676 54.8085C116.128 59.5354 113.591 64.2506 111.067 68.9541C111.012 69.0852 110.916 69.1952 110.794 69.2676C110.671 69.3399 110.529 69.3709 110.387 69.3558C109.425 69.3334 108.471 69.3462 107.518 69.3462Z" fill="#0A699A"/>
<path d="M229.717 46.3316C229.717 48.0468 229.736 49.7588 229.717 51.474C229.712 52.7587 229.46 54.0304 228.974 55.22C228.602 56.1436 228.034 56.9752 227.308 57.6572C226.583 58.3393 225.717 58.8554 224.773 59.17C222.935 59.795 220.987 60.0306 219.053 59.8618C217.655 59.7991 216.28 59.4747 215.001 58.9054C212.811 57.882 211.494 56.1573 210.892 53.8427C210.652 52.8794 210.535 51.8896 210.544 50.8969C210.544 47.7088 210.544 44.5303 210.544 41.3614C210.544 40.5197 210.863 40.2041 211.692 40.2041H215.881C216.837 40.2041 217.016 40.3794 217.016 41.355C217.016 44.4559 217.016 47.5569 217.016 50.6578C216.996 51.3716 217.113 52.0827 217.36 52.7524C217.512 53.1716 217.773 53.5431 218.115 53.8293C218.457 54.1154 218.869 54.3059 219.308 54.3815C219.801 54.4766 220.308 54.4841 220.803 54.4038C222.079 54.2125 222.86 53.3996 223.131 52.0542C223.23 51.5342 223.277 51.0055 223.271 50.4761C223.271 47.4878 223.271 44.5027 223.271 41.5208C223.271 41.3933 223.271 41.2689 223.271 41.1446C223.271 40.456 223.532 40.2073 224.227 40.2073H228.965C229.548 40.2073 229.74 40.4018 229.74 40.9916C229.74 42.7705 229.74 44.5526 229.74 46.3348L229.717 46.3316Z" fill="#0A699A"/>
<path d="M248.922 43.6412V45.4903C248.922 46.1885 248.623 46.3829 247.991 46.0737C247.21 45.6753 246.378 45.3857 245.518 45.2129C244.038 44.9399 242.522 44.928 241.038 45.1778C240.76 45.2153 240.494 45.3156 240.26 45.4711C239.76 45.8123 239.76 46.3415 240.26 46.6603C240.795 46.9476 241.372 47.1478 241.969 47.2533C242.961 47.4956 243.978 47.6135 244.953 47.9323C246.174 48.2842 247.275 48.9607 248.141 49.8898C248.963 50.8381 249.436 52.038 249.483 53.2915C249.585 54.3029 249.443 55.3238 249.069 56.2692C248.463 57.6879 247.344 58.5455 245.945 59.0906C244.805 59.5117 243.609 59.7599 242.396 59.8271C240.283 59.984 238.158 59.8963 236.065 59.5657C235.466 59.4741 234.878 59.3191 234.311 59.1034C234.134 59.0502 233.979 58.9392 233.871 58.7878C233.764 58.6365 233.71 58.4535 233.718 58.2681C233.718 56.7463 233.718 55.2256 233.718 53.706C233.718 53.3553 233.98 53.2214 234.302 53.4031C236.715 54.758 239.31 54.8345 241.953 54.4775C242.241 54.4419 242.519 54.3521 242.773 54.2129C243.264 53.9419 243.276 53.4987 242.792 53.215C242.273 52.9449 241.716 52.7557 241.14 52.6539C240.101 52.4148 239.033 52.2936 238.016 51.9589C236.632 51.503 235.408 50.8112 234.541 49.5997C233.954 48.6988 233.597 47.6673 233.502 46.596C233.406 45.5248 233.576 44.4465 233.996 43.4563C234.729 42.0089 235.947 41.1322 237.41 40.5519C238.603 40.0954 239.864 39.8442 241.14 39.8091C242.863 39.7106 244.591 39.8057 246.292 40.0928C246.936 40.2082 247.565 40.3964 248.167 40.6539C248.401 40.7319 248.603 40.8865 248.739 41.093C248.875 41.2995 248.937 41.5458 248.916 41.7921C248.906 42.4074 248.922 43.0259 248.922 43.6412Z" fill="#0A699A"/>
<path d="M100.766 45.5852V59.5681C100.766 59.9348 100.766 59.9348 100.386 59.871C99.1555 59.6645 97.9463 59.3443 96.7744 58.9146C95.4991 58.4523 94.8615 57.5086 94.5204 56.2908C94.3422 55.5899 94.2586 54.8683 94.2717 54.1452C94.2717 46.7276 94.2717 39.3079 94.2717 31.886C94.2717 31.8095 94.2717 31.7362 94.2717 31.6597C94.2717 31.1847 94.4662 31.0029 94.9444 31.0029C96.0921 31.0029 97.2366 31.0029 98.3843 31.0029C98.9614 31.0029 99.5384 31.0029 100.115 31.0029C100.693 31.0029 100.753 31.1209 100.753 31.6405C100.764 36.2866 100.768 40.9349 100.766 45.5852Z" fill="#0A699A"/>
<path d="M193.319 50.3393V41.6167C193.319 40.6603 193.373 40.6252 194.317 40.622H198.42C198.994 40.622 199.195 40.8038 199.268 41.3744C199.31 41.6709 199.348 41.9642 199.396 42.2607C199.396 42.3308 199.396 42.4329 199.469 42.4616C199.542 42.4903 199.593 42.3882 199.641 42.3372C200.243 41.6817 200.979 41.1641 201.799 40.8197C203.625 40.0451 205.676 39.9927 207.538 40.673C207.689 40.7137 207.821 40.8049 207.913 40.9314C208.005 41.0579 208.05 41.212 208.042 41.368C208.042 42.7836 208.042 44.1991 208.042 45.6146C208.042 46.0195 207.885 46.131 207.528 46.0131C206.599 45.6862 205.609 45.5637 204.628 45.6539C203.646 45.7441 202.696 46.045 201.841 46.5359C201.162 46.9222 200.532 47.3877 199.963 47.9227C199.895 47.9809 199.841 48.054 199.806 48.1364C199.77 48.2188 199.754 48.3082 199.759 48.3978C199.759 52.0109 199.759 55.6315 199.759 59.2596C199.759 59.8207 199.686 59.8972 199.121 59.8972H193.899C193.377 59.8972 193.306 59.8239 193.306 59.2914L193.319 50.3393Z" fill="#0A699A"/>
<path d="M83.2952 50.2725V41.6933C83.2952 40.6699 83.3557 40.6094 84.3664 40.6094H88.9604C89.5183 40.6094 89.6745 40.7497 89.7287 41.3108C89.742 41.4453 89.7473 41.5805 89.7447 41.7156V58.8771C89.7447 59.0588 89.7447 59.2437 89.7223 59.4254C89.6936 59.7697 89.5757 59.8877 89.225 59.8909C88.4184 59.8909 87.6086 59.8909 86.7989 59.8909C85.8424 59.8909 84.8541 59.8909 83.8818 59.8909C83.4641 59.8909 83.3366 59.757 83.3047 59.3394C83.3047 59.1959 83.3047 59.0492 83.3047 58.9058L83.2952 50.2725Z" fill="#0A699A"/>
<path d="M127.23 59.9032L128.225 58.2327L133.581 49.2455C133.651 49.1243 133.705 49.0223 133.9 49.0319C135.105 49.0924 136.313 49.1435 137.566 49.1977C136.118 51.7481 134.697 54.2731 133.246 56.8044C133.347 56.846 133.457 56.8582 133.565 56.8395H144.835C144.918 56.8282 145.004 56.8446 145.077 56.886C145.151 56.9274 145.209 56.9916 145.243 57.069C145.737 57.9553 146.247 58.8352 146.751 59.7183C146.783 59.7725 146.811 59.8267 146.85 59.9064L127.23 59.9032Z" fill="#FDC013"/>
<path d="M165.105 56.8366C163.648 54.2862 162.216 51.758 160.769 49.2075C161.024 49.1916 161.247 49.1693 161.47 49.1597C162.449 49.1151 163.428 49.08 164.406 49.0322C164.47 49.0192 164.536 49.0281 164.594 49.0577C164.652 49.0872 164.698 49.1356 164.725 49.1948C166.827 52.7272 168.93 56.2585 171.034 59.7888C171.054 59.8257 171.071 59.8641 171.085 59.9036H151.52C151.488 59.8207 151.555 59.7697 151.587 59.7091C152.091 58.826 152.601 57.9493 153.095 57.0598C153.13 56.9836 153.189 56.9207 153.262 56.88C153.335 56.8393 153.42 56.823 153.503 56.8334C157.252 56.8334 161 56.8334 164.747 56.8334L165.105 56.8366Z" fill="#FDC013"/>
<path d="M137.059 41.1509C137.091 41.2625 137.008 41.339 136.97 41.4251C136.651 42.1838 136.409 42.9585 136.6 43.797C136.679 44.1535 136.844 44.4853 137.08 44.7632C137.317 45.0411 137.618 45.2567 137.958 45.391C138.892 45.8119 139.871 45.8374 140.891 45.8278C145.587 45.7864 153.258 42.6652 157.469 38.7598C158.349 37.9706 159.156 37.103 159.879 36.1679C160.404 35.5154 160.749 34.7374 160.88 33.9107C160.958 33.4542 160.901 32.9851 160.717 32.5601C160.533 32.1352 160.23 31.7726 159.844 31.5165C159.367 31.1869 158.823 30.969 158.25 30.8789C158.215 30.8735 158.182 30.8567 158.158 30.8311C159.433 30.8597 160.679 30.9873 161.805 31.6472C162.678 32.1605 162.984 32.9703 162.905 33.9362C162.785 35.1817 162.271 36.3566 161.438 37.2901C159.015 40.1524 156.018 42.4754 152.642 44.1094C149.747 45.5641 146.679 46.6471 143.512 47.3326C142.19 47.6428 140.831 47.7652 139.476 47.696C138.633 47.6502 137.807 47.4424 137.043 47.0839C136.596 46.8669 136.203 46.5533 135.892 46.1657C135.687 45.9239 135.54 45.6375 135.464 45.3293C135.389 45.0212 135.385 44.6996 135.455 44.39C135.732 43.2026 136.277 42.0944 137.049 41.1509H137.059Z" fill="#0A699A"/>
<path d="M157.482 37.1403C157.077 36.6008 156.612 36.1098 156.095 35.677C155.03 34.796 153.755 34.2063 152.394 33.9652C151.033 33.7241 149.632 33.8399 148.329 34.3014C147.027 34.7629 145.866 35.5543 144.96 36.5983C144.054 37.6423 143.434 38.9033 143.161 40.2583C142.896 41.5473 142.957 42.8821 143.34 44.1413C143.378 44.2689 143.416 44.3645 143.228 44.3932C142.731 44.4633 142.233 44.5335 141.736 44.6227C141.526 44.661 141.452 44.5813 141.417 44.3868C140.646 41.2274 141.188 38.3295 143.193 35.7535C145.303 33.05 148.144 31.7716 151.568 31.9278C154.405 32.0649 156.752 33.2923 158.614 35.4347C158.738 35.575 158.77 35.6738 158.614 35.8268C158.295 36.1775 157.976 36.5441 157.68 36.9076L157.482 37.1403Z" fill="#0A699A"/>
<path d="M143.687 48.5088C144.414 48.3557 145.112 48.2091 145.798 48.0178C145.928 47.9827 146.002 48.0752 146.084 48.1389C147.179 48.9933 148.477 49.5476 149.851 49.7472C151.225 49.9468 152.628 49.7849 153.92 49.2774C155.213 48.7699 156.351 47.9343 157.222 46.8531C158.093 45.7718 158.667 44.4822 158.888 43.1113C158.965 42.6136 158.999 42.1101 158.99 41.6066C158.99 41.5077 158.971 41.4089 159.066 41.3292C159.624 40.8605 160.153 40.3536 160.68 39.834C161.477 43.0221 160.361 47.9636 155.802 50.5172C153.852 51.5979 151.594 51.9875 149.395 51.6229C147.195 51.2583 145.184 50.1608 143.687 48.5088Z" fill="#0A699A"/>
<path d="M137.062 41.1513L137.094 41.1035V41.1226L137.046 41.1513H137.062Z" fill="#0A699A"/>
<path d="M137.158 41.0208V41.0367C137.158 41.0367 137.158 41.0367 137.158 41.0176H137.174L137.158 41.0208Z" fill="#0A699A"/>
</svg>
