<svg width="300" height="100" viewBox="0 0 300 100" fill="none" xmlns="http://www.w3.org/2000/svg">
<rect width="300" height="100" fill="white"/>
<path d="M150.989 65.9291C149.88 65.7708 148.921 65.2019 148.242 64.2999C147.986 63.9594 147.695 63.4015 147.561 62.9962C147.354 62.3693 147.262 61.608 147.309 60.9069C147.454 58.7309 148.773 57.1025 150.749 56.6609C151.012 56.602 151.115 56.5951 151.712 56.5957C152.434 56.5962 152.736 56.6344 153.287 56.7939C153.747 56.9269 154.302 57.1862 154.489 57.3557L154.553 57.4134V58.4849C154.553 59.1874 154.543 59.5625 154.524 59.5744C154.508 59.5843 154.422 59.5264 154.334 59.4458C153.429 58.6201 151.867 58.2718 150.865 58.6723C150.302 58.8976 149.802 59.4031 149.553 60.0004C149.365 60.4509 149.341 60.5924 149.342 61.2335C149.342 61.7716 149.348 61.8363 149.418 62.0988C149.62 62.8605 150.097 63.4773 150.703 63.7609C151.087 63.9407 151.239 63.9708 151.754 63.9688C152.145 63.9673 152.245 63.9573 152.465 63.8975L152.72 63.8279L152.729 63.4456C152.743 62.774 152.652 62.344 152.368 61.7584C152.278 61.5711 152.118 61.2907 152.013 61.1352C151.909 60.9797 151.827 60.8329 151.832 60.809C151.84 60.7704 151.994 60.7665 153.19 60.7752C153.932 60.7806 154.549 60.7909 154.56 60.7981C154.572 60.8054 154.582 61.7672 154.582 62.9355V65.0596L154.496 65.1205C154.373 65.2076 153.762 65.4927 153.445 65.6108C153.09 65.7427 152.723 65.8457 152.408 65.902C152.051 65.9656 151.34 65.9792 150.989 65.9291L150.989 65.9291ZM159.853 65.9251C158.86 65.7747 158.041 65.333 157.389 64.5968C156.349 63.4236 155.939 61.7998 156.261 60.1327C156.581 58.4769 157.758 57.1054 159.233 56.6687C159.73 56.5214 160.401 56.4817 160.921 56.5687C162.161 56.7766 163.271 57.6193 163.886 58.8202C164.647 60.3062 164.62 62.3263 163.819 63.7647C163.216 64.8484 162.203 65.6186 161.046 65.8738C160.852 65.9166 160.03 65.952 159.853 65.9251ZM160.897 63.8087C161.587 63.5505 162.076 62.9519 162.303 62.0858C162.398 61.7209 162.424 61.0637 162.358 60.6509C162.133 59.2283 161.066 58.326 159.915 58.584C159.313 58.719 158.838 59.1232 158.517 59.7722C158.264 60.286 158.172 60.7575 158.199 61.4035C158.231 62.1693 158.478 62.8095 158.924 63.2817C159.21 63.5835 159.449 63.7339 159.824 63.8476C160.084 63.9263 160.636 63.9063 160.897 63.8087V63.8087ZM128.43 65.8476C128.418 65.8181 132.34 57.1922 132.498 56.8997C132.531 56.8393 132.55 56.8359 132.858 56.8359C133.163 56.8359 133.185 56.8399 133.225 56.8997C133.248 56.9349 133.534 57.57 133.862 58.3112C136.493 64.2607 137.162 65.7873 137.162 65.8332C137.162 65.8731 137.141 65.886 137.076 65.886C136.791 65.886 135.852 65.5948 135.443 65.3795C135.297 65.3028 134.943 65.0872 134.657 64.9004C134.37 64.7136 134.04 64.5088 133.923 64.4452C133.335 64.1264 132.384 63.8669 131.65 63.8248L131.351 63.8077L131.195 64.1286C131.109 64.3051 130.98 64.5397 130.908 64.65C130.505 65.2707 129.775 65.6947 128.851 65.8442C128.533 65.8958 128.449 65.8965 128.43 65.8477V65.8476ZM133.393 61.3921C133.114 60.7592 132.874 60.2451 132.86 60.2496C132.823 60.2611 132.076 61.9815 132.099 62.0017C132.11 62.0108 132.227 62.0409 132.36 62.0684C132.726 62.1442 133.219 62.2936 133.568 62.4339C133.74 62.5031 133.885 62.5559 133.89 62.5513C133.895 62.5467 133.671 62.025 133.393 61.3921ZM121.463 65.7961C121.455 65.7753 121.445 64.2072 121.441 62.3113C121.436 59.6518 121.426 58.8464 121.399 58.7857C121.379 58.7424 121.267 58.5962 121.148 58.4608C120.76 58.0175 120.454 57.4922 120.349 57.0897C120.268 56.7775 120.07 56.8075 122.211 56.8075C123.307 56.8075 124.207 56.8198 124.379 56.8372C126.189 57.0194 127.54 57.9071 128.142 59.3098C128.274 59.6157 128.368 59.9253 128.444 60.301C128.501 60.5834 128.509 60.7078 128.509 61.3042C128.51 62.0858 128.476 62.3299 128.293 62.8908C127.986 63.8282 127.434 64.5477 126.584 65.1165C126.118 65.428 125.602 65.6301 124.972 65.7476C124.669 65.8041 124.529 65.8095 123.061 65.8212C121.76 65.8316 121.474 65.8271 121.463 65.7961V65.7961ZM124.56 63.7725C125.58 63.5431 126.204 62.9768 126.453 62.0534C126.508 61.8496 126.518 61.7446 126.518 61.3326C126.518 60.7747 126.469 60.5291 126.283 60.141C126.055 59.6678 125.727 59.3413 125.242 59.1047C124.787 58.883 124.397 58.8028 123.707 58.7894L123.309 58.7817L123.302 61.277C123.298 62.6495 123.301 63.7902 123.31 63.8119C123.33 63.866 124.276 63.8361 124.56 63.7725L124.56 63.7725ZM138.21 65.7606C138.187 65.7108 138.185 64.4803 138.203 61.271L138.228 56.8501L138.401 56.8418L138.574 56.8335L141.135 59.1752C142.544 60.4632 143.703 61.517 143.712 61.517C143.72 61.517 143.726 60.4791 143.726 59.2105C143.726 57.4544 143.735 56.8959 143.761 56.87C143.8 56.8306 145.619 56.8206 145.68 56.8593C145.709 56.8773 145.714 57.794 145.709 61.3485L145.701 65.8151L145.53 65.8234L145.358 65.8317L142.805 63.4829C141.4 62.191 140.234 61.1238 140.213 61.1113C140.181 61.0924 140.174 61.473 140.174 63.4141C140.174 64.6931 140.167 65.7597 140.157 65.7844C140.142 65.8241 140.03 65.8293 139.19 65.8293H138.241L138.21 65.7606ZM167.813 65.7656C167.804 65.7305 167.796 64.1411 167.796 62.2335L167.795 58.7653H166.551C165.62 58.7653 165.297 58.7567 165.272 58.7312C165.247 58.7062 165.238 58.4625 165.238 57.8112C165.238 57.0436 165.244 56.9193 165.282 56.8807C165.322 56.8406 165.68 56.8361 168.799 56.8365C170.708 56.8367 172.287 56.8472 172.307 56.8597C172.335 56.8775 172.341 57.0882 172.335 57.8168L172.328 58.7511L171.07 58.7585L169.813 58.7659V62.2528C169.813 64.1706 169.805 65.7599 169.796 65.7846C169.78 65.8243 169.666 65.8295 168.804 65.8295H167.83L167.813 65.7656ZM173.854 65.7954C173.808 65.7502 173.804 56.9754 173.849 56.891C173.878 56.8373 173.94 56.8361 176.755 56.8366C178.346 56.8368 179.648 56.848 179.67 56.8618C179.724 56.8962 179.693 57.0861 179.57 57.46C179.328 58.1991 178.898 58.6443 178.337 58.7351C178.23 58.7525 177.66 58.765 176.967 58.7651L175.78 58.7654V59.5311V60.2969L177.265 60.3042L178.75 60.3116V61.2478V62.184L177.265 62.1914L175.78 62.1988V63.0354V63.8721H177.483C178.994 63.8721 179.191 63.8771 179.231 63.9167C179.27 63.9553 179.276 64.079 179.276 64.8406C179.276 65.3925 179.265 65.7403 179.246 65.7748C179.217 65.8284 179.157 65.8296 176.552 65.8296C174.518 65.8296 173.88 65.8216 173.854 65.7956L173.854 65.7954ZM134.223 54.5289C134.175 54.4938 134.183 54.4774 134.342 54.2948C134.602 53.994 135.543 53.0838 135.94 52.7474C137.231 51.6559 138.808 50.6547 140.317 49.9692C142.085 49.1659 143.916 48.622 145.805 48.3395C146.076 48.2989 146.325 48.2602 146.357 48.2535C146.398 48.2452 146.45 48.1748 146.519 48.0349C146.644 47.7835 146.787 47.6112 146.954 47.5137L147.08 47.4402V47.2191C147.08 47.0633 147.058 46.9239 147.005 46.7466C146.86 46.2586 146.822 46.0957 146.802 45.8722L146.781 45.6464L146.668 45.84C146.533 46.0706 146.283 46.3494 146.054 46.5257C145.775 46.7399 145.74 46.7488 145.176 46.7479C144.22 46.7464 143.44 46.5833 142.746 46.2402C142.413 46.0756 142.269 45.9661 142.283 45.8898C142.289 45.8568 142.419 45.7995 142.718 45.6982C143.287 45.5051 143.576 45.383 144.064 45.1303C145.557 44.3572 146.556 43.2534 147.006 41.8816C147.179 41.3545 147.276 40.7017 147.189 40.6483C147.139 40.6174 147.095 40.6976 146.981 41.0282C146.75 41.6992 146.327 42.2614 145.699 42.7311C145.41 42.9472 144.886 43.2468 144.796 43.2468C144.738 43.2468 144.736 43.1674 144.79 42.9294C144.869 42.5815 144.881 42.1673 144.812 42.1694C144.801 42.1697 144.741 42.2425 144.678 42.3311C144.511 42.5684 143.763 43.3253 143.373 43.6519C142.586 44.3106 141.704 44.9076 140.982 45.2696C140.677 45.4224 140.237 45.6001 140.114 45.6197C139.966 45.6433 139.969 45.6134 140.159 45.2556C140.504 44.6048 141.006 43.3257 141.165 42.6936C141.212 42.5064 141.277 42.2127 141.31 42.0411C141.371 41.7189 141.481 40.9412 141.468 40.9262C141.463 40.9217 141.375 40.9817 141.272 41.0598C141.071 41.2116 140.875 41.2913 140.826 41.2416C140.78 41.1959 140.791 40.1287 140.841 39.7219C140.951 38.8276 141.166 38.1115 141.555 37.3458C142.067 36.3366 142.811 35.5239 143.54 35.1765C143.861 35.0238 143.998 34.9911 144.316 34.9911C144.612 34.9911 144.793 35.038 145.09 35.1921C145.452 35.3794 145.722 35.6345 145.874 35.9319L145.941 36.064L145.797 36.2439C145.443 36.6857 145.334 37.1239 145.458 37.6085C145.528 37.8824 145.604 38.0293 145.761 38.1973C145.942 38.3906 146.173 38.4879 146.488 38.5035C146.723 38.5152 147.09 38.4604 147.188 38.3989C147.219 38.38 147.206 38.3161 147.126 38.0804C146.994 37.694 146.955 37.4309 146.975 37.0621C147.001 36.5907 147.148 36.1063 147.383 35.7211L147.488 35.5478L147.405 35.4893C147.143 35.3062 146.741 34.7357 146.874 34.7358C146.885 34.7358 146.965 34.7637 147.051 34.7978C147.172 34.8455 147.27 34.8602 147.477 34.8616C147.78 34.8637 147.807 34.8536 148.209 34.5906C148.488 34.4085 148.935 34.1928 149.211 34.1073C149.376 34.0561 149.491 34.0413 149.722 34.041C149.991 34.0407 150.037 34.0485 150.182 34.1196C150.367 34.2103 150.513 34.3601 150.617 34.5643C150.671 34.6714 150.715 34.7179 150.794 34.7508C150.999 34.8361 151.105 34.9977 151.132 35.2674C151.15 35.4347 151.107 35.7481 151.06 35.7945C151.045 35.8101 150.991 35.7866 150.925 35.7355C150.618 35.4961 150.182 35.5445 149.902 35.8493C149.803 35.9573 149.646 36.2056 149.672 36.2133C149.676 36.2143 149.782 36.2203 149.907 36.2261C150.659 36.2607 151.22 36.7619 151.567 37.7098C151.611 37.8295 151.669 38.0232 151.696 38.1402C151.766 38.4468 151.753 38.4262 151.854 38.3913C151.991 38.3435 152.232 38.1053 152.316 37.9337C152.478 37.6025 152.505 37.157 152.384 36.809C152.313 36.6049 152.128 36.2905 152.023 36.1958C151.916 36.0994 151.951 36.0356 152.288 35.7113C152.803 35.2153 153.156 35.0515 153.762 35.0264C154.144 35.0106 154.375 35.0511 154.738 35.1981C155.812 35.632 156.885 37.1835 157.307 38.9135C157.44 39.4601 157.483 39.8059 157.5 40.4848C157.518 41.174 157.509 41.2609 157.422 41.2609C157.342 41.2609 157.047 41.1078 156.931 41.0058C156.877 40.9589 156.824 40.9205 156.812 40.9205C156.8 40.9205 156.797 41.1599 156.806 41.4524C156.822 42.0401 156.869 42.356 157.055 43.1476C157.314 44.2425 157.505 44.8506 157.753 45.3617C157.884 45.63 157.896 45.6724 157.85 45.7002C157.807 45.7273 157.419 45.5859 157.104 45.4282C156.487 45.1191 155.864 44.6774 155.068 43.9845C154.557 43.5401 153.957 42.7048 153.511 41.8181C153.381 41.5606 153.347 41.5126 153.329 41.5588C153.293 41.6508 153.3 41.9904 153.345 42.3543C153.369 42.5409 153.388 42.7351 153.388 42.7858C153.388 42.8687 153.38 42.878 153.306 42.878C153.177 42.878 152.855 42.7698 152.607 42.6426C152.443 42.559 152.317 42.4643 152.156 42.305C152.033 42.1833 151.93 42.0837 151.928 42.0837C151.926 42.0837 151.929 42.3582 151.935 42.6938C151.959 44.1106 151.751 45.1281 151.202 46.2803C150.998 46.707 150.944 46.8974 150.944 47.1928V47.355L151.15 47.4168C151.669 47.5722 152.068 47.8601 152.137 48.129C152.155 48.1979 152.173 48.2674 152.179 48.2835C152.184 48.2996 152.301 48.3292 152.44 48.3492C152.757 48.395 153.449 48.5276 153.857 48.621C157.031 49.3472 159.87 50.754 162.272 52.7911C162.766 53.21 163.959 54.4036 163.959 54.4792C163.959 54.5648 163.842 54.5819 163.605 54.5307C163.314 54.4675 162.96 54.3293 161.899 53.8645C160.141 53.0945 159.302 52.7612 158.162 52.3807C152.942 50.6384 147.59 50.449 142.135 51.8134C140.368 52.2554 138.848 52.7886 136.495 53.7926C135.315 54.2955 134.97 54.4315 134.678 54.5077C134.416 54.576 134.295 54.5816 134.223 54.5289L134.223 54.5289ZM149.549 47.9714C149.635 47.776 149.772 47.5929 149.902 47.4987C150.058 47.3862 150.067 47.3651 150.067 47.1297C150.066 46.8745 150.009 46.7058 149.833 46.4369C149.57 46.0351 149.337 45.5089 149.24 45.098C149.221 45.0161 149.195 44.9491 149.183 44.9491C149.171 44.9491 149.12 45.0671 149.069 45.2115C148.965 45.5114 148.786 45.8815 148.677 46.0271C148.636 46.0817 148.473 46.2796 148.316 46.4669C148.158 46.6541 148.011 46.852 147.988 46.9066C147.966 46.9612 147.947 47.0818 147.947 47.1746L147.946 47.3433L148.165 47.3773C148.461 47.4234 148.714 47.5115 148.889 47.6291C149.047 47.7353 149.123 47.8259 149.192 47.9917C149.234 48.0924 149.243 48.0981 149.364 48.0981C149.489 48.0981 149.494 48.0946 149.549 47.9714L149.549 47.9714Z" fill="#B7B8C5"/>
<path d="M151.044 65.9125C149.854 65.7522 148.796 65.0963 148.135 64.1101C147.239 62.7726 147.065 60.8622 147.696 59.2911C148.277 57.8442 149.503 56.8686 151.03 56.638C151.331 56.5925 152.064 56.5989 152.455 56.6504C153.21 56.7501 153.915 56.9938 154.404 57.3245L154.525 57.406V58.4686C154.525 59.6153 154.525 59.6134 154.381 59.4561C154.142 59.1969 153.558 58.8576 153.071 58.6963C152.634 58.5513 152.396 58.5079 151.937 58.4901C151.289 58.4649 150.908 58.5644 150.429 58.884C149.915 59.2275 149.559 59.7544 149.373 60.4469C149.318 60.6519 149.311 60.7485 149.313 61.2475C149.315 61.7662 149.321 61.8387 149.389 62.0923C149.602 62.8839 150.051 63.4709 150.674 63.7729C151.068 63.9633 151.229 63.998 151.726 63.9987C152.154 63.9992 152.426 63.9586 152.667 63.8578L152.763 63.8179V63.4398C152.763 62.9768 152.727 62.6726 152.633 62.347C152.519 61.9541 152.231 61.3823 151.962 61.0146C151.768 60.7494 151.67 60.7675 153.181 60.7889C153.911 60.7993 154.518 60.8181 154.531 60.8306C154.543 60.8432 154.55 61.8039 154.546 62.9655L154.539 65.0774L154.139 65.276C153.529 65.5786 152.963 65.7746 152.422 65.8709C152.104 65.9275 151.328 65.9509 151.044 65.9125L151.044 65.9125ZM159.671 65.8704C158.02 65.5822 156.638 64.1325 156.287 62.3198C156.06 61.1542 156.202 59.9422 156.681 58.9541C157.298 57.6808 158.396 56.814 159.666 56.5978C160.005 56.5401 160.568 56.5394 160.918 56.5963C161.794 56.738 162.673 57.2442 163.273 57.9527C164.07 58.8938 164.457 60.0886 164.405 61.4463C164.352 62.8363 163.874 63.9503 162.957 64.8258C162.414 65.3442 161.782 65.6817 161.046 65.8463C160.761 65.9101 159.977 65.924 159.671 65.8706V65.8704ZM160.897 63.837C161.6 63.5745 162.104 62.9595 162.331 62.0858C162.429 61.7075 162.453 61.0527 162.383 60.638C162.259 59.8923 161.952 59.3297 161.452 58.9275C161.098 58.643 160.607 58.4859 160.175 58.5192C158.961 58.6127 158.098 59.8557 158.172 61.4035C158.225 62.4902 158.718 63.3645 159.495 63.7467C159.794 63.8937 159.97 63.9284 160.364 63.9177C160.644 63.9101 160.74 63.8956 160.897 63.837ZM128.474 65.7796C128.488 65.7005 132.443 57.0455 132.519 56.9281C132.558 56.8683 132.58 56.8643 132.871 56.8643H133.183L133.226 56.9477C133.32 57.1287 137.115 65.734 137.127 65.7938C137.139 65.85 137.129 65.8576 137.045 65.8576C136.784 65.8576 135.862 65.5681 135.457 65.3592C135.325 65.2907 134.96 65.0674 134.648 64.8632C133.824 64.325 133.421 64.1433 132.616 63.9468C132.283 63.8657 131.729 63.7866 131.492 63.7866H131.337L131.149 64.1625C131.046 64.3693 130.907 64.615 130.84 64.7086C130.522 65.154 130.013 65.4996 129.384 65.6972C129.156 65.7687 128.69 65.8576 128.544 65.8576C128.469 65.8576 128.462 65.8501 128.474 65.7796ZM133.914 62.5372C133.876 62.39 132.882 60.1847 132.858 60.1927C132.825 60.2037 132.038 61.9992 132.057 62.0188C132.065 62.0264 132.21 62.0625 132.379 62.0992C132.791 62.1883 133.281 62.3392 133.61 62.4784C133.926 62.6115 133.934 62.6132 133.914 62.5372ZM121.49 65.7654C121.483 65.7459 121.474 64.1852 121.47 62.2972C121.463 59.2181 121.458 58.8541 121.417 58.7651C121.392 58.7105 121.28 58.5653 121.168 58.4424C120.939 58.1913 120.707 57.8553 120.559 57.5594C120.451 57.342 120.34 57.0109 120.34 56.9038V56.8359H122.231C123.352 56.8359 124.234 56.848 124.397 56.8656C126.074 57.0459 127.278 57.7709 127.976 59.0204C128.2 59.4225 128.403 60.0919 128.468 60.641C128.518 61.0746 128.489 61.9831 128.412 62.3539C128.172 63.5184 127.57 64.4228 126.607 65.0681C126 65.4748 125.429 65.6735 124.588 65.7711C124.201 65.8159 121.507 65.811 121.49 65.7654L121.49 65.7654ZM124.536 63.8036C124.839 63.7417 125.211 63.6044 125.438 63.4704C125.703 63.3146 126.096 62.9214 126.232 62.6765C126.552 62.1019 126.648 61.2952 126.478 60.6091C126.406 60.3148 126.213 59.9133 126.039 59.695C125.546 59.0753 124.707 58.7491 123.665 58.7711L123.281 58.7793L123.274 61.2869C123.268 63.2507 123.274 63.8038 123.302 63.837C123.332 63.873 123.413 63.8768 123.835 63.8624C124.108 63.853 124.424 63.8265 124.536 63.8036L124.536 63.8036ZM138.231 65.7564C138.209 65.6977 138.209 57.0122 138.232 56.9281C138.247 56.8715 138.267 56.8643 138.409 56.8643H138.569L141.126 59.2037C142.533 60.4904 143.7 61.5437 143.719 61.5443C143.747 61.5453 143.756 61.0508 143.762 59.2119L143.769 56.8785H144.721H145.673L145.687 61.3042C145.695 63.7384 145.697 65.7465 145.691 65.7667C145.683 65.7926 145.631 65.801 145.514 65.7951L145.347 65.7867L142.786 63.432C141.377 62.1369 140.207 61.0731 140.186 61.0681C140.153 61.0604 140.145 61.433 140.139 63.4228L140.132 65.7867L139.19 65.7941C138.35 65.8008 138.247 65.7967 138.231 65.7563L138.231 65.7564ZM167.845 65.7942C167.842 65.7901 167.832 64.2037 167.824 62.2688L167.809 58.7509L166.545 58.7368L165.28 58.7226L165.273 57.8256C165.267 57.0936 165.273 56.9228 165.304 56.8964C165.333 56.8726 166.254 56.866 168.821 56.8713L172.299 56.8785V57.8005V58.7226L171.049 58.7367L169.799 58.7509L169.784 62.2688L169.77 65.7867L168.811 65.7941C168.284 65.7982 167.849 65.7982 167.845 65.7941V65.7942ZM173.867 65.782C173.857 65.7716 173.848 63.7752 173.848 61.3455C173.848 57.6583 173.854 56.9227 173.887 56.896C173.915 56.8726 174.697 56.866 176.792 56.8713L179.659 56.8785L179.652 57.0163C179.642 57.2026 179.464 57.7286 179.336 57.9466C179.095 58.3597 178.737 58.6364 178.354 58.7061C178.25 58.7249 177.717 58.7367 176.968 58.7367H175.751L175.759 59.524L175.766 60.3112L177.251 60.3186L178.736 60.326L178.729 61.2406L178.721 62.1553L177.244 62.1695L175.766 62.1837L175.759 63.0419L175.751 63.9H177.465C178.76 63.9 179.187 63.9084 179.213 63.9341C179.238 63.9591 179.247 64.1996 179.247 64.8396C179.247 65.319 179.239 65.7313 179.23 65.756C179.214 65.7965 178.952 65.8008 176.549 65.8008C175.084 65.8008 173.877 65.7923 173.867 65.782L173.867 65.782ZM134.235 54.485C134.235 54.4508 134.837 53.8217 135.23 53.4441C138.042 50.7454 141.963 48.8973 146.066 48.337L146.43 48.2873L146.512 48.1052C146.63 47.8463 146.773 47.6644 146.953 47.5454L147.108 47.4423V47.2201C147.108 47.0624 147.086 46.9247 147.033 46.7464C146.992 46.6081 146.934 46.412 146.904 46.3106C146.874 46.2091 146.84 45.9921 146.829 45.8283L146.808 45.5304L146.72 45.7008C146.53 46.0655 146.177 46.4432 145.839 46.6415L145.701 46.7219L145.162 46.7194C144.198 46.7154 143.388 46.5435 142.71 46.1994C142.495 46.0905 142.306 45.9509 142.306 45.9011C142.306 45.8751 142.432 45.8192 142.668 45.7409C144.382 45.1725 145.629 44.3113 146.402 43.164C146.756 42.6384 146.989 42.1133 147.138 41.5086C147.268 40.9795 147.285 40.6079 147.179 40.6079C147.117 40.6079 147.066 40.7041 146.941 41.0582C146.646 41.8974 145.972 42.6302 145.061 43.1034C144.791 43.2438 144.768 43.2457 144.786 43.1258C144.793 43.0751 144.822 42.8948 144.849 42.7251C144.895 42.4289 144.89 42.1116 144.837 42.1116C144.825 42.1116 144.734 42.2169 144.635 42.3456C143.754 43.4858 141.777 44.9607 140.409 45.4979C140.155 45.5977 140.032 45.6243 140.032 45.5796C140.032 45.5677 140.12 45.3858 140.226 45.1753C140.6 44.4358 141.037 43.3131 141.194 42.6911C141.338 42.1202 141.531 40.9488 141.492 40.886C141.485 40.8733 141.411 40.9173 141.33 40.9837C141.144 41.1348 140.935 41.2466 140.88 41.2252C140.78 41.1871 140.799 40.0995 140.911 39.4122C141.028 38.6911 141.218 38.094 141.535 37.4447C142.127 36.2332 143.076 35.2767 143.9 35.0602C144.133 34.9987 144.496 34.9992 144.711 35.0612C145.151 35.1884 145.645 35.5567 145.824 35.8927L145.914 36.0607L145.768 36.242C145.447 36.6401 145.324 37.0769 145.41 37.5132C145.503 37.9819 145.702 38.2676 146.052 38.4334C146.233 38.5188 146.257 38.5227 146.582 38.5208C146.842 38.5192 146.961 38.5057 147.08 38.464C147.264 38.3994 147.264 38.3994 147.143 38.0547C147.025 37.7198 146.983 37.4324 147.002 37.0682C147.025 36.6012 147.172 36.114 147.406 35.7294C147.508 35.562 147.527 35.5014 147.479 35.5014C147.376 35.5014 146.849 34.8672 146.892 34.7961C146.902 34.7804 146.971 34.7936 147.058 34.8285C147.171 34.8733 147.273 34.8882 147.478 34.8896C147.78 34.8916 147.807 34.8815 148.209 34.6186C148.487 34.4369 148.934 34.221 149.211 34.135C149.522 34.0383 149.962 34.0398 150.162 34.1385C150.341 34.2262 150.513 34.4019 150.598 34.5826C150.653 34.699 150.688 34.7342 150.811 34.7928C150.924 34.8466 150.975 34.8936 151.03 34.9909C151.092 35.1037 151.101 35.1521 151.1 35.4054C151.1 35.7719 151.071 35.8199 150.92 35.7028C150.625 35.4729 150.183 35.5188 149.901 35.8085C149.777 35.9359 149.625 36.1967 149.65 36.2377C149.66 36.2526 149.728 36.2579 149.801 36.2495C149.983 36.2289 150.32 36.3036 150.546 36.4144C151.027 36.6497 151.473 37.3277 151.658 38.105C151.729 38.4047 151.746 38.4406 151.815 38.4285C151.92 38.4098 152.139 38.2453 152.239 38.1097C152.388 37.9073 152.457 37.6893 152.473 37.3769C152.494 36.9458 152.383 36.6018 152.119 36.2776C152.024 36.1614 151.995 36.1041 152.007 36.0572C152.032 35.9569 152.556 35.4688 152.783 35.3341C153.102 35.1454 153.367 35.0704 153.772 35.0548C154.164 35.0398 154.455 35.094 154.79 35.2442C155.843 35.7164 156.896 37.2766 157.29 38.9486C157.419 39.4941 157.456 39.8213 157.472 40.5298C157.486 41.1455 157.483 41.2047 157.439 41.2216C157.372 41.2473 157.127 41.1288 156.947 40.9834C156.824 40.8836 156.794 40.8701 156.779 40.9077C156.77 40.9329 156.769 41.1854 156.778 41.4689C156.797 42.0931 156.85 42.4138 157.099 43.424C157.366 44.5045 157.487 44.876 157.742 45.3975C157.817 45.5519 157.848 45.643 157.829 45.6612C157.79 45.7008 157.408 45.5562 157.018 45.3542C156.075 44.8658 154.896 43.886 154.331 43.1208C154.059 42.7533 153.741 42.2264 153.512 41.7643C153.421 41.581 153.338 41.431 153.327 41.431C153.259 41.431 153.276 42.1474 153.355 42.638C153.383 42.8151 153.373 42.8495 153.289 42.8495C153.176 42.8495 152.843 42.7349 152.617 42.6182C152.381 42.4961 152.093 42.2543 151.994 42.0955C151.96 42.0405 151.924 42.0034 151.915 42.0132C151.905 42.023 151.901 42.346 151.905 42.7311C151.923 44.1429 151.722 45.1296 151.189 46.2441C150.963 46.7173 150.903 46.942 150.921 47.2366C150.93 47.3733 150.931 47.3749 151.058 47.4126C151.51 47.5473 151.843 47.7302 152.005 47.9333C152.051 47.991 152.104 48.1057 152.122 48.1884L152.156 48.3387L152.609 48.4154C156.42 49.0614 159.797 50.645 162.524 53.0647C162.959 53.4505 163.937 54.4477 163.915 54.4829C163.906 54.4976 163.847 54.5096 163.784 54.5096C163.522 54.5096 163.141 54.3689 161.785 53.7722C159.333 52.6927 157.846 52.1641 155.928 51.69C154.34 51.2974 152.914 51.0748 151.058 50.9304C150.431 50.8816 148.102 50.8808 147.478 50.9294C145.433 51.0878 143.938 51.3224 142.183 51.7606C140.321 52.2255 138.874 52.7338 136.403 53.7899C135.43 54.2058 135.009 54.3724 134.719 54.4564C134.529 54.5114 134.235 54.5289 134.235 54.4853L134.235 54.485ZM149.602 47.9278C149.69 47.742 149.793 47.6159 150.002 47.4416C150.088 47.37 150.092 47.3578 150.092 47.1559C150.092 46.873 150.039 46.7136 149.846 46.4099C149.612 46.0412 149.428 45.639 149.305 45.2254C149.246 45.0265 149.189 44.8637 149.178 44.8637C149.168 44.8637 149.131 44.9499 149.098 45.0552C148.921 45.6086 148.716 45.9636 148.284 46.4666C147.969 46.833 147.923 46.923 147.92 47.1741L147.918 47.3709L148.146 47.4038C148.589 47.4677 148.921 47.6235 149.084 47.8437C149.122 47.8959 149.154 47.9482 149.154 47.9597C149.154 47.9712 149.167 48.0135 149.182 48.0535C149.207 48.119 149.224 48.1262 149.359 48.1257L149.509 48.1252L149.602 47.9278L149.602 47.9278Z" fill="#9799AB"/>
<path d="M150.873 65.87C150.342 65.7715 149.897 65.6071 149.454 65.3461C148.132 64.5665 147.335 63.0361 147.335 61.2757C147.335 59.0488 148.618 57.2484 150.557 56.7519C151.449 56.5236 152.567 56.5832 153.525 56.9101C153.783 56.9978 154.323 57.2668 154.441 57.3664L154.525 57.4365V58.4648C154.525 59.0303 154.516 59.5018 154.505 59.5125C154.494 59.5233 154.44 59.4884 154.384 59.4351C153.956 59.0247 153.269 58.6904 152.536 58.5344C152.112 58.4445 151.482 58.444 151.157 58.5334C149.871 58.8877 149.111 60.1638 149.298 61.6594C149.448 62.8722 150.157 63.7412 151.186 63.9747C151.605 64.07 152.299 64.0233 152.688 63.8735L152.769 63.8422L152.755 63.254C152.744 62.7622 152.731 62.631 152.68 62.4531C152.544 61.984 152.359 61.5899 152.064 61.14C151.964 60.9873 151.882 60.8499 151.882 60.8347C151.882 60.817 152.356 60.8097 153.196 60.8144L154.51 60.8218V62.9483V65.0749L154.184 65.2396C153.61 65.5288 153.037 65.7343 152.493 65.846C152.169 65.9125 151.181 65.9272 150.873 65.8701V65.87ZM159.867 65.8845C158.396 65.7027 157.12 64.6412 156.527 63.1059C156.322 62.5761 156.229 62.0833 156.209 61.4159C156.181 60.4755 156.333 59.7078 156.698 58.9492C157.113 58.0846 157.916 57.2699 158.705 56.9107C158.981 56.7852 159.397 56.6536 159.668 56.6058C159.977 56.5514 160.677 56.5578 160.98 56.6178C162.55 56.9286 163.807 58.1727 164.225 59.829C164.423 60.6131 164.446 61.6009 164.284 62.3821C163.962 63.9448 162.919 65.1959 161.522 65.6974C161.059 65.8634 160.347 65.9439 159.867 65.8845ZM160.676 63.9138C161.517 63.7359 162.162 62.9812 162.386 61.914C162.448 61.6167 162.455 60.9202 162.399 60.609C162.208 59.5457 161.568 58.7609 160.72 58.549C160.446 58.4805 159.945 58.5059 159.69 58.6012C159.137 58.807 158.671 59.2732 158.414 59.8765C158.055 60.7185 158.067 61.8362 158.444 62.6388C158.894 63.599 159.778 64.1037 160.676 63.9138ZM136.825 65.8127C136.365 65.7109 135.76 65.5017 135.441 65.3341C135.314 65.2677 134.971 65.0568 134.678 64.8655C133.984 64.4116 133.705 64.2683 133.189 64.0984C132.616 63.9097 132.149 63.8153 131.69 63.7951L131.318 63.7788L131.157 64.1107C131.069 64.2932 130.941 64.5279 130.873 64.6322C130.498 65.2093 129.798 65.6295 128.954 65.7853C128.712 65.8299 128.467 65.8432 128.467 65.8116C128.467 65.7655 132.537 56.9058 132.567 56.8868C132.629 56.8473 133.145 56.8601 133.18 56.9021C133.221 56.9515 137.11 65.7448 137.115 65.8007C137.121 65.8577 137.043 65.8609 136.825 65.8127ZM133.951 62.5914C133.951 62.5207 132.886 60.1547 132.859 60.1638C132.823 60.1754 132.047 61.9344 132.047 62.0033C132.047 62.0373 132.082 62.0563 132.168 62.0701C132.559 62.1324 133.284 62.3509 133.71 62.5352C133.933 62.632 133.951 62.6361 133.951 62.5914ZM121.514 65.7652C121.501 65.7457 121.484 64.1722 121.476 62.2686C121.464 59.3751 121.456 58.796 121.422 58.7376C121.401 58.6992 121.288 58.5594 121.172 58.4269C120.908 58.1253 120.685 57.7927 120.541 57.4851C120.411 57.2081 120.323 56.8976 120.363 56.858C120.403 56.8182 124.244 56.8477 124.531 56.8899C125.969 57.1017 126.992 57.648 127.669 58.5663C127.871 58.8404 128.146 59.3801 128.253 59.7134C128.495 60.4637 128.556 61.4293 128.413 62.255C128.245 63.225 127.756 64.1077 127.051 64.7134C126.279 65.3763 125.507 65.6803 124.361 65.7724C123.83 65.815 121.542 65.8093 121.514 65.7652V65.7652ZM124.46 63.8236C124.804 63.7681 125.148 63.6514 125.423 63.4967C125.731 63.3238 126.112 62.9362 126.27 62.6366C126.662 61.8904 126.673 60.8234 126.296 60.0759C126.079 59.6462 125.75 59.3171 125.313 59.094C124.838 58.8517 124.432 58.7642 123.743 58.7561L123.281 58.7507V61.304V63.8573L123.466 63.8743C123.717 63.8974 124.135 63.8763 124.46 63.8236H124.46ZM138.261 65.7822C138.251 65.7715 138.242 63.7684 138.242 61.3307C138.242 57.3153 138.246 56.8969 138.287 56.8813C138.371 56.849 138.513 56.864 138.584 56.9126C138.649 56.9575 139.477 57.7111 142.512 60.488C143.164 61.0851 143.709 61.5735 143.722 61.5735C143.772 61.5735 143.783 61.1355 143.783 59.0411L143.783 56.8917L144.728 56.8992L145.673 56.9066V61.3465V65.7865L145.55 65.7953C145.471 65.8009 145.401 65.7875 145.357 65.7582C145.318 65.733 144.142 64.6598 142.743 63.3734C141.345 62.087 140.188 61.0345 140.173 61.0345C140.157 61.0345 140.144 61.3679 140.142 61.8927C140.14 62.3647 140.13 63.4339 140.121 64.2687L140.103 65.7865L139.192 65.7939C138.691 65.798 138.272 65.7929 138.261 65.7821L138.261 65.7822ZM167.871 65.7822C167.861 65.7715 167.852 64.1891 167.852 62.2656C167.852 60.3042 167.841 58.7615 167.827 58.7529C167.814 58.7445 167.254 58.7369 166.584 58.736C165.914 58.735 165.349 58.7243 165.329 58.7122C165.302 58.6951 165.295 58.491 165.301 57.7984L165.309 56.9067H168.804H172.299L172.307 57.8075C172.311 58.3029 172.311 58.7111 172.307 58.7146C172.303 58.7181 171.73 58.7276 171.035 58.7358L169.77 58.7507L169.756 62.2686L169.742 65.7865L168.816 65.794C168.307 65.798 167.882 65.793 167.871 65.7822L167.871 65.7822ZM173.895 65.7818C173.885 65.7714 173.876 63.767 173.876 61.3276V56.8924H176.761H179.645V56.9722C179.645 57.0865 179.544 57.4529 179.456 57.6631C179.347 57.9205 179.1 58.2852 178.952 58.406C178.797 58.533 178.59 58.6388 178.422 58.6776C178.345 58.6951 177.795 58.707 177.041 58.7074C176.014 58.7079 175.781 58.7151 175.755 58.747C175.732 58.7745 175.725 59.0097 175.73 59.5485L175.738 60.311L177.229 60.3258C178.05 60.334 178.725 60.3436 178.729 60.3471C178.733 60.3506 178.733 60.7525 178.729 61.2401L178.721 62.1267L177.26 62.134C176.239 62.1392 175.788 62.1509 175.761 62.173C175.705 62.2194 175.706 63.8498 175.761 63.8962C175.788 63.9184 176.302 63.9299 177.502 63.9351L179.204 63.9424V64.8645V65.7865L176.559 65.7937C175.105 65.7978 173.906 65.7922 173.895 65.7819L173.895 65.7818ZM134.264 54.4684C134.264 54.3861 135.319 53.3309 135.883 52.8486C138.646 50.4887 142.035 48.9605 145.787 48.3832C146.099 48.3351 146.381 48.29 146.412 48.2831C146.449 48.2747 146.485 48.2232 146.518 48.1303C146.591 47.9273 146.803 47.6546 146.968 47.552C147.054 47.4984 147.116 47.4373 147.127 47.3949C147.161 47.2597 147.109 46.9439 146.992 46.5657C146.888 46.2299 146.872 46.1399 146.86 45.8352C146.852 45.644 146.835 45.4877 146.822 45.4877C146.81 45.4877 146.767 45.5595 146.726 45.6473C146.529 46.078 145.997 46.6113 145.696 46.6811C145.546 46.7159 144.833 46.7138 144.5 46.6776C143.716 46.5926 142.965 46.3612 142.498 46.0607C142.408 46.0029 142.334 45.935 142.334 45.9098C142.334 45.8765 142.414 45.8389 142.625 45.7722C144.326 45.2364 145.696 44.284 146.462 43.1045C146.882 42.4564 147.187 41.6224 147.266 40.8992C147.282 40.7596 147.276 40.7076 147.239 40.6519C147.152 40.5194 147.075 40.6108 146.95 40.9937C146.865 41.2531 146.717 41.5518 146.543 41.8129C146.38 42.0592 145.941 42.5063 145.659 42.7144C145.315 42.9677 144.835 43.228 144.792 43.1846C144.785 43.1781 144.805 43.0521 144.835 42.9045C144.894 42.6183 144.909 42.1818 144.862 42.1115C144.83 42.063 144.848 42.0451 144.558 42.4142C144.311 42.7296 143.556 43.4606 143.111 43.8158C142.158 44.5757 141.142 45.2029 140.416 45.4795C140.094 45.6022 140.061 45.6106 140.061 45.5702C140.061 45.5511 140.136 45.3875 140.228 45.2065C140.618 44.4431 141.056 43.3079 141.225 42.6223C141.379 41.9994 141.557 40.8349 141.498 40.8349C141.487 40.8349 141.415 40.8891 141.338 40.9554C141.261 41.0217 141.131 41.1107 141.048 41.1532C140.821 41.2708 140.819 41.2654 140.837 40.5086C140.866 39.3379 141.068 38.451 141.522 37.5014C142.114 36.2646 143.074 35.2894 143.911 35.0757C144.315 34.9725 144.611 35.0067 145.019 35.204C145.404 35.3895 145.741 35.7016 145.855 35.9782C145.89 36.062 145.886 36.0724 145.759 36.2287C145.502 36.5429 145.375 36.8791 145.375 37.24C145.375 37.777 145.631 38.2553 146.015 38.437C146.193 38.5211 146.518 38.5728 146.721 38.5494C146.9 38.5289 147.241 38.4323 147.264 38.3959C147.273 38.3812 147.249 38.2952 147.211 38.2047C146.885 37.4306 146.974 36.432 147.433 35.7153C147.489 35.6282 147.534 35.5465 147.534 35.5339C147.534 35.5212 147.471 35.4699 147.394 35.4198C147.229 35.3131 146.866 34.8535 146.912 34.8083C146.918 34.8017 147 34.8221 147.094 34.8538C147.295 34.9219 147.611 34.9333 147.776 34.8784C147.838 34.8576 148.017 34.7584 148.174 34.658C148.671 34.3384 149.134 34.1437 149.542 34.0817C150.002 34.0118 150.369 34.1833 150.572 34.5633C150.643 34.6969 150.687 34.7459 150.767 34.7793C151 34.8762 151.085 35.0366 151.086 35.3789C151.086 35.5066 151.074 35.6441 151.058 35.6844L151.03 35.7577L150.916 35.6748C150.601 35.4472 150.161 35.5094 149.872 35.8224C149.748 35.9564 149.599 36.2195 149.629 36.2496C149.639 36.2593 149.743 36.2674 149.862 36.2676C150.287 36.2681 150.6 36.4021 150.918 36.719C151.262 37.0612 151.483 37.4887 151.653 38.1391C151.742 38.4798 151.76 38.495 151.95 38.3838C152.322 38.1667 152.537 37.6913 152.497 37.1752C152.471 36.8311 152.34 36.5174 152.106 36.2338C152.045 36.1608 151.996 36.0894 151.996 36.0752C151.996 36.0224 152.613 35.4525 152.777 35.3534C153.693 34.8015 154.839 35.022 155.687 35.9134C156.379 36.6412 156.961 37.7274 157.24 38.8105C157.397 39.4207 157.458 39.9101 157.462 40.5851C157.464 40.956 157.455 41.1831 157.436 41.2017C157.393 41.2453 157.083 41.0899 156.927 40.9461C156.855 40.8804 156.787 40.8359 156.776 40.8473C156.765 40.8587 156.757 41.0872 156.759 41.355C156.764 41.9177 156.819 42.3165 156.996 43.0761C157.255 44.1849 157.452 44.819 157.711 45.3758C157.776 45.5158 157.822 45.6383 157.812 45.648C157.786 45.6738 157.389 45.5276 157.125 45.3953C156.52 45.0919 155.873 44.6329 155.096 43.9556C154.571 43.4978 153.964 42.6436 153.498 41.7071C153.415 41.5393 153.333 41.4063 153.317 41.4115C153.268 41.4278 153.268 42.1186 153.317 42.4721C153.342 42.6493 153.354 42.8067 153.345 42.8218C153.313 42.8737 152.895 42.7468 152.607 42.5977C152.396 42.4882 152.092 42.2252 151.994 42.0664C151.961 42.0132 151.924 41.9697 151.912 41.9697C151.899 41.9697 151.89 42.3304 151.892 42.7712C151.898 44.2289 151.706 45.1428 151.158 46.2718C150.957 46.6851 150.908 46.8754 150.921 47.187L150.93 47.397L151.129 47.4509C151.507 47.5535 151.872 47.7715 152.026 47.9863C152.059 48.0328 152.094 48.1309 152.105 48.2045L152.124 48.3382L152.649 48.4264C156.422 49.0599 159.813 50.654 162.526 53.0696C163 53.4923 163.902 54.4077 163.902 54.4671C163.902 54.4976 163.87 54.5093 163.785 54.5093C163.535 54.5093 163.148 54.3698 162.012 53.8702C159.535 52.7803 158.229 52.299 156.435 51.8156C151.886 50.5901 146.983 50.5662 142.235 51.7462C140.345 52.2158 138.877 52.7298 136.395 53.7912C135.031 54.3746 134.656 54.5093 134.399 54.5093C134.3 54.5093 134.264 54.4984 134.264 54.4683L134.264 54.4684ZM149.592 47.9912C149.672 47.7944 149.796 47.6238 149.931 47.5274C150.073 47.4254 150.117 47.3358 150.118 47.1473C150.12 46.8862 150.05 46.6942 149.824 46.3446C149.583 45.972 149.415 45.5818 149.284 45.092C149.249 44.9603 149.207 44.8481 149.191 44.8428C149.175 44.8376 149.114 44.9709 149.056 45.1392C148.886 45.6238 148.706 45.9409 148.383 46.3237C148.226 46.5094 148.067 46.701 148.03 46.7494C147.942 46.8645 147.869 47.1456 147.891 47.2812C147.906 47.3733 147.92 47.3884 147.998 47.3998C148.414 47.4601 148.524 47.4888 148.73 47.5914C148.975 47.7138 149.098 47.8378 149.151 48.0142L149.185 48.1261L149.361 48.126L149.538 48.1259L149.592 47.9912L149.592 47.9912Z" fill="#E05848"/>
<path d="M150.873 65.87C150.342 65.7715 149.897 65.6071 149.454 65.3461C148.132 64.5665 147.335 63.0361 147.335 61.2757C147.335 59.0488 148.618 57.2484 150.557 56.7519C151.449 56.5236 152.567 56.5832 153.525 56.9101C153.783 56.9978 154.323 57.2668 154.441 57.3664L154.525 57.4365V58.4648C154.525 59.0303 154.516 59.5018 154.505 59.5125C154.494 59.5233 154.44 59.4884 154.384 59.4351C153.956 59.0247 153.269 58.6904 152.536 58.5344C152.112 58.4445 151.482 58.444 151.157 58.5334C149.871 58.8877 149.111 60.1638 149.298 61.6594C149.448 62.8722 150.157 63.7412 151.186 63.9747C151.605 64.07 152.299 64.0233 152.688 63.8735L152.769 63.8422L152.755 63.254C152.744 62.7622 152.731 62.631 152.68 62.4531C152.544 61.984 152.359 61.5899 152.064 61.14C151.964 60.9873 151.882 60.8499 151.882 60.8347C151.882 60.817 152.356 60.8097 153.196 60.8144L154.51 60.8218V62.9483V65.0749L154.184 65.2396C153.61 65.5288 153.037 65.7343 152.493 65.846C152.169 65.9125 151.181 65.9272 150.873 65.8701V65.87ZM159.867 65.8845C158.396 65.7027 157.12 64.6412 156.527 63.1059C156.322 62.5761 156.229 62.0833 156.209 61.4159C156.181 60.4755 156.333 59.7078 156.698 58.9492C157.113 58.0846 157.916 57.2699 158.705 56.9107C158.981 56.7852 159.397 56.6536 159.668 56.6058C159.977 56.5514 160.677 56.5578 160.98 56.6178C162.55 56.9286 163.807 58.1727 164.225 59.829C164.423 60.6131 164.446 61.6009 164.284 62.3821C163.962 63.9448 162.919 65.1959 161.522 65.6974C161.059 65.8634 160.347 65.9439 159.867 65.8845ZM160.676 63.9138C161.517 63.7359 162.162 62.9812 162.386 61.914C162.448 61.6167 162.455 60.9202 162.399 60.609C162.208 59.5457 161.568 58.7609 160.72 58.549C160.446 58.4805 159.945 58.5059 159.69 58.6012C159.137 58.807 158.671 59.2732 158.414 59.8765C158.055 60.7185 158.067 61.8362 158.444 62.6388C158.894 63.599 159.778 64.1037 160.676 63.9138ZM136.825 65.8127C136.365 65.7109 135.76 65.5017 135.441 65.3341C135.314 65.2677 134.971 65.0568 134.678 64.8655C133.984 64.4116 133.705 64.2683 133.189 64.0984C132.616 63.9097 132.149 63.8153 131.69 63.7951L131.318 63.7788L131.157 64.1107C131.069 64.2932 130.941 64.5279 130.873 64.6322C130.498 65.2093 129.798 65.6295 128.954 65.7853C128.712 65.8299 128.467 65.8432 128.467 65.8116C128.467 65.7655 132.537 56.9058 132.567 56.8868C132.629 56.8473 133.145 56.8601 133.18 56.9021C133.221 56.9515 137.11 65.7448 137.115 65.8007C137.121 65.8577 137.043 65.8609 136.825 65.8127ZM133.951 62.5914C133.951 62.5207 132.886 60.1547 132.859 60.1638C132.823 60.1754 132.047 61.9344 132.047 62.0033C132.047 62.0373 132.082 62.0563 132.168 62.0701C132.559 62.1324 133.284 62.3509 133.71 62.5352C133.933 62.632 133.951 62.6361 133.951 62.5914ZM121.514 65.7652C121.501 65.7457 121.484 64.1722 121.476 62.2686C121.464 59.3751 121.456 58.796 121.422 58.7376C121.401 58.6992 121.288 58.5594 121.172 58.4269C120.908 58.1253 120.685 57.7927 120.541 57.4851C120.411 57.2081 120.323 56.8976 120.363 56.858C120.403 56.8182 124.244 56.8477 124.531 56.8899C125.969 57.1017 126.992 57.648 127.669 58.5663C127.871 58.8404 128.146 59.3801 128.253 59.7134C128.495 60.4637 128.556 61.4293 128.413 62.255C128.245 63.225 127.756 64.1077 127.051 64.7134C126.279 65.3763 125.507 65.6803 124.361 65.7724C123.83 65.815 121.542 65.8093 121.514 65.7652V65.7652ZM124.46 63.8236C124.804 63.7681 125.148 63.6514 125.423 63.4967C125.731 63.3238 126.112 62.9362 126.27 62.6366C126.662 61.8904 126.673 60.8234 126.296 60.0759C126.079 59.6462 125.75 59.3171 125.313 59.094C124.838 58.8517 124.432 58.7642 123.743 58.7561L123.281 58.7507V61.304V63.8573L123.466 63.8743C123.717 63.8974 124.135 63.8763 124.46 63.8236H124.46ZM138.261 65.7822C138.251 65.7715 138.242 63.7684 138.242 61.3307C138.242 57.3153 138.246 56.8969 138.287 56.8813C138.371 56.849 138.513 56.864 138.584 56.9126C138.649 56.9575 139.477 57.7111 142.512 60.488C143.164 61.0851 143.709 61.5735 143.722 61.5735C143.772 61.5735 143.783 61.1355 143.783 59.0411L143.783 56.8917L144.728 56.8992L145.673 56.9066V61.3465V65.7865L145.55 65.7953C145.471 65.8009 145.401 65.7875 145.357 65.7582C145.318 65.733 144.142 64.6598 142.743 63.3734C141.345 62.087 140.188 61.0345 140.173 61.0345C140.157 61.0345 140.144 61.3679 140.142 61.8927C140.14 62.3647 140.13 63.4339 140.121 64.2687L140.103 65.7865L139.192 65.7939C138.691 65.798 138.272 65.7929 138.261 65.7821L138.261 65.7822ZM167.871 65.7822C167.861 65.7715 167.852 64.1891 167.852 62.2656C167.852 60.3042 167.841 58.7615 167.827 58.7529C167.814 58.7445 167.254 58.7369 166.584 58.736C165.914 58.735 165.349 58.7243 165.329 58.7122C165.302 58.6951 165.295 58.491 165.301 57.7984L165.309 56.9067H168.804H172.299L172.307 57.8075C172.311 58.3029 172.311 58.7111 172.307 58.7146C172.303 58.7181 171.73 58.7276 171.035 58.7358L169.77 58.7507L169.756 62.2686L169.742 65.7865L168.816 65.794C168.307 65.798 167.882 65.793 167.871 65.7822L167.871 65.7822ZM173.895 65.7818C173.885 65.7714 173.876 63.767 173.876 61.3276V56.8924H176.761H179.645V56.9722C179.645 57.0865 179.544 57.4529 179.456 57.6631C179.347 57.9205 179.1 58.2852 178.952 58.406C178.797 58.533 178.59 58.6388 178.422 58.6776C178.345 58.6951 177.795 58.707 177.041 58.7074C176.014 58.7079 175.781 58.7151 175.755 58.747C175.732 58.7745 175.725 59.0097 175.73 59.5485L175.738 60.311L177.229 60.3258C178.05 60.334 178.725 60.3436 178.729 60.3471C178.733 60.3506 178.733 60.7525 178.729 61.2401L178.721 62.1267L177.26 62.134C176.239 62.1392 175.788 62.1509 175.761 62.173C175.705 62.2194 175.706 63.8498 175.761 63.8962C175.788 63.9184 176.302 63.9299 177.502 63.9351L179.204 63.9424V64.8645V65.7865L176.559 65.7937C175.105 65.7978 173.906 65.7922 173.895 65.7819L173.895 65.7818ZM151.901 48.4352C151.637 48.296 151.059 48.2061 150.11 48.1567C149.815 48.1414 149.567 48.122 149.558 48.1136C149.537 48.092 149.633 47.8793 149.73 47.7343C149.776 47.6671 149.866 47.574 149.931 47.5273C150.073 47.4253 150.117 47.3358 150.118 47.1473C150.12 46.8862 150.05 46.6941 149.824 46.3446C149.583 45.972 149.415 45.5817 149.284 45.092C149.249 44.9602 149.207 44.8481 149.191 44.8428C149.175 44.8375 149.114 44.9709 149.056 45.1391C148.886 45.6238 148.706 45.9409 148.383 46.3237C148.226 46.5094 148.067 46.701 148.03 46.7494C147.942 46.8645 147.869 47.1456 147.891 47.2812C147.906 47.3732 147.92 47.3884 147.998 47.3998C148.415 47.4601 148.524 47.4888 148.731 47.592C148.974 47.7135 149.077 47.8172 149.153 48.0162C149.205 48.1531 149.184 48.3148 149.111 48.3428C149.089 48.3513 149.003 48.3255 148.921 48.2855C148.613 48.1368 148.129 48.1226 147.016 48.23C146.739 48.2568 146.504 48.2701 146.494 48.2597C146.46 48.2261 146.569 47.9888 146.7 47.8117C146.773 47.7126 146.887 47.6023 146.968 47.5519C147.054 47.4984 147.116 47.4373 147.127 47.3949C147.161 47.2597 147.109 46.9438 146.992 46.5657C146.888 46.2299 146.872 46.1398 146.86 45.8351C146.852 45.644 146.835 45.4876 146.822 45.4876C146.81 45.4876 146.767 45.5594 146.726 45.6472C146.529 46.0779 145.997 46.6112 145.696 46.681C145.546 46.7158 144.833 46.7138 144.5 46.6775C143.716 46.5926 142.965 46.3612 142.498 46.0607C142.408 46.0029 142.334 45.935 142.334 45.9098C142.334 45.8765 142.414 45.8389 142.625 45.7722C144.326 45.2363 145.696 44.284 146.462 43.1044C146.882 42.4563 147.187 41.6224 147.266 40.8992C147.282 40.7595 147.276 40.7076 147.239 40.6518C147.152 40.5194 147.075 40.6107 146.95 40.9936C146.865 41.253 146.717 41.5517 146.543 41.8128C146.38 42.0592 145.941 42.5063 145.659 42.7144C145.315 42.9677 144.835 43.228 144.792 43.1845C144.785 43.178 144.805 43.052 144.835 42.9045C144.894 42.6182 144.909 42.1817 144.862 42.1115C144.83 42.063 144.848 42.0451 144.558 42.4141C144.311 42.7295 143.556 43.4606 143.111 43.8158C142.158 44.5756 141.142 45.2028 140.416 45.4795C140.094 45.6021 140.061 45.6106 140.061 45.5701C140.061 45.551 140.136 45.3874 140.228 45.2065C140.618 44.4431 141.056 43.3079 141.225 42.6222C141.379 41.9994 141.557 40.8349 141.498 40.8349C141.487 40.8349 141.415 40.8891 141.338 40.9554C141.261 41.0217 141.131 41.1107 141.048 41.1532C140.821 41.2708 140.819 41.2654 140.837 40.5086C140.866 39.3379 141.068 38.451 141.522 37.5014C142.114 36.2646 143.074 35.2894 143.911 35.0757C144.315 34.9725 144.611 35.0067 145.019 35.204C145.404 35.3895 145.741 35.7016 145.855 35.9782C145.89 36.062 145.886 36.0724 145.759 36.2287C145.502 36.5429 145.375 36.8791 145.375 37.24C145.375 37.777 145.631 38.2553 146.015 38.437C146.193 38.5211 146.518 38.5728 146.721 38.5494C146.9 38.5289 147.241 38.4323 147.264 38.3959C147.273 38.3812 147.249 38.2952 147.211 38.2047C146.885 37.4306 146.974 36.432 147.433 35.7153C147.489 35.6282 147.534 35.5465 147.534 35.5339C147.534 35.5212 147.471 35.4699 147.394 35.4198C147.229 35.3131 146.866 34.8535 146.912 34.8083C146.918 34.8017 147 34.8221 147.094 34.8538C147.295 34.9219 147.611 34.9333 147.776 34.8784C147.838 34.8576 148.017 34.7584 148.174 34.658C148.671 34.3384 149.134 34.1437 149.542 34.0817C150.002 34.0118 150.369 34.1833 150.572 34.5633C150.643 34.6969 150.687 34.7459 150.767 34.7793C151 34.8762 151.085 35.0366 151.086 35.3789C151.086 35.5066 151.074 35.6441 151.058 35.6844L151.03 35.7577L150.916 35.6748C150.601 35.4472 150.161 35.5094 149.872 35.8224C149.748 35.9564 149.599 36.2195 149.629 36.2496C149.639 36.2593 149.743 36.2674 149.862 36.2676C150.287 36.2681 150.6 36.4021 150.918 36.719C151.262 37.0612 151.483 37.4887 151.653 38.1391C151.742 38.4798 151.76 38.495 151.95 38.3838C152.322 38.1667 152.537 37.6913 152.497 37.1752C152.471 36.8311 152.34 36.5174 152.106 36.2338C152.045 36.1608 151.996 36.0894 151.996 36.0752C151.996 36.0224 152.613 35.4525 152.777 35.3534C153.693 34.8015 154.839 35.022 155.687 35.9134C156.379 36.6412 156.961 37.7274 157.24 38.8105C157.397 39.4207 157.458 39.9101 157.462 40.5851C157.464 40.956 157.455 41.1831 157.436 41.2017C157.393 41.2453 157.083 41.0899 156.927 40.9461C156.855 40.8804 156.787 40.8359 156.776 40.8473C156.765 40.8587 156.757 41.0872 156.759 41.355C156.764 41.9177 156.819 42.3165 156.996 43.0761C157.255 44.1849 157.452 44.819 157.711 45.3758C157.776 45.5158 157.822 45.6383 157.812 45.648C157.786 45.6738 157.389 45.5276 157.125 45.3953C156.52 45.0919 155.873 44.6329 155.096 43.9556C154.571 43.4978 153.964 42.6436 153.498 41.7071C153.415 41.5393 153.333 41.4063 153.317 41.4115C153.268 41.4278 153.268 42.1186 153.317 42.4721C153.342 42.6493 153.354 42.8067 153.345 42.8218C153.313 42.8737 152.895 42.7468 152.607 42.5977C152.396 42.4882 152.092 42.2252 151.994 42.0664C151.961 42.0132 151.924 41.9697 151.912 41.9697C151.899 41.9697 151.89 42.3304 151.892 42.7712C151.898 44.2289 151.706 45.1428 151.158 46.2718C150.957 46.6851 150.908 46.8754 150.921 47.187L150.93 47.397L151.129 47.4509C151.544 47.5636 151.957 47.8288 152.063 48.051C152.12 48.171 152.13 48.3927 152.082 48.451C152.037 48.5053 152.034 48.5051 151.901 48.4352Z" fill="#6F718A"/>
<path d="M151.2 65.8954C149.855 65.7629 148.719 65.0381 148.016 63.8626C147.729 63.3843 147.493 62.6891 147.405 62.0677C147.348 61.6619 147.349 60.914 147.407 60.5002C147.653 58.7418 148.734 57.3654 150.271 56.8509C150.692 56.7099 150.983 56.6625 151.527 56.6458C152.616 56.6124 153.642 56.8596 154.361 57.3286L154.496 57.4165V58.4624V59.5083L154.333 59.3679C153.454 58.6131 152.041 58.2546 151.074 58.5416C150.067 58.8409 149.357 59.786 149.271 60.9448C149.245 61.2932 149.281 61.7716 149.357 62.0785C149.487 62.607 149.707 63.0073 150.062 63.3637C150.343 63.6465 150.591 63.8008 150.977 63.9344C151.234 64.0236 151.257 64.0264 151.711 64.0271C152.113 64.0276 152.218 64.0181 152.445 63.9603C152.59 63.9232 152.728 63.8745 152.75 63.8519C152.808 63.7944 152.806 63.0587 152.748 62.7193C152.66 62.2073 152.439 61.6816 152.083 61.14C151.932 60.9088 151.893 60.8301 151.924 60.8182C151.947 60.8095 152.538 60.8132 153.238 60.8263L154.511 60.8502V62.9496V65.049L154.198 65.2112C153.184 65.7375 152.102 65.9843 151.2 65.8954L151.2 65.8954ZM159.771 65.8566C158.486 65.6546 157.369 64.8023 156.742 63.5454C155.833 61.7253 156.11 59.383 157.406 57.9151C157.981 57.2636 158.725 56.8256 159.563 56.6449C159.74 56.6068 159.922 56.595 160.322 56.5958C160.797 56.5968 160.877 56.6044 161.155 56.6739C162.793 57.0832 163.971 58.4272 164.305 60.2686C164.387 60.7181 164.394 61.6446 164.319 62.0985C164.221 62.6893 164.09 63.1077 163.857 63.5695C163.269 64.7366 162.26 65.5415 161.043 65.8157C160.809 65.8685 160.011 65.8942 159.771 65.8566L159.771 65.8566ZM160.734 63.91C161.369 63.7686 161.952 63.2157 162.24 62.4816C162.404 62.0628 162.437 61.8567 162.438 61.2474C162.439 60.6064 162.407 60.4108 162.233 59.9718C162.081 59.5878 161.925 59.3455 161.657 59.0749C161.456 58.8718 161.371 58.8091 161.146 58.6982C160.576 58.4173 160.024 58.4106 159.483 58.6778C158.844 58.9936 158.389 59.6403 158.203 60.4957C158.141 60.7835 158.118 61.3873 158.159 61.6916C158.301 62.7521 158.875 63.568 159.687 63.8623C160.012 63.98 160.35 63.9954 160.734 63.91V63.91ZM128.497 65.7938C128.497 65.7743 129.41 63.7667 130.524 61.3325L132.551 56.9068L132.849 56.8988C133.065 56.893 133.155 56.9008 133.176 56.9272C133.207 56.9654 137.105 65.7793 137.105 65.8109C137.105 65.8491 136.953 65.826 136.588 65.7323C135.828 65.5372 135.512 65.3915 134.705 64.8643C133.851 64.3065 133.439 64.1173 132.661 63.9271C132.109 63.7919 131.418 63.7161 131.319 63.7799C131.301 63.7914 131.204 63.9681 131.103 64.1727C130.885 64.6132 130.783 64.768 130.571 64.9798C130.166 65.3844 129.553 65.6722 128.85 65.7871C128.538 65.8382 128.495 65.839 128.497 65.7938ZM133.456 61.3987C133.164 60.738 132.914 60.1783 132.9 60.155C132.876 60.1175 132.869 60.1175 132.834 60.1553C132.79 60.2034 132.018 61.9668 132.019 62.0188C132.019 62.0558 132.062 62.0723 132.232 62.1001C132.598 62.1601 133.306 62.3774 133.738 62.5628C133.847 62.6097 133.948 62.6373 133.961 62.6241C133.975 62.6109 133.75 62.0647 133.456 61.3989V61.3987ZM121.518 65.737C121.511 65.7175 121.502 64.1568 121.498 62.2688C121.492 59.6657 121.482 58.8175 121.456 58.7595C121.438 58.7174 121.339 58.5927 121.238 58.4824C121.014 58.2387 120.779 57.9103 120.627 57.6279C120.509 57.4089 120.368 57.0249 120.368 56.9231V56.8642H122.237C123.707 56.8642 124.182 56.8732 124.466 56.9063C126.305 57.1212 127.563 58.0018 128.155 59.4902C128.498 60.3533 128.569 61.6405 128.325 62.5942C128.049 63.6728 127.411 64.5356 126.438 65.1441C125.939 65.4561 125.358 65.6467 124.657 65.7281C124.154 65.7865 121.539 65.794 121.518 65.737V65.737ZM124.56 63.8302C125.225 63.6803 125.733 63.3906 126.067 62.9701C126.235 62.7586 126.434 62.3556 126.511 62.0702C126.594 61.7643 126.603 60.957 126.526 60.6556C126.277 59.6718 125.616 59.0441 124.588 58.8167C124.298 58.7526 123.37 58.6986 123.288 58.7412C123.241 58.7655 123.238 58.9164 123.238 61.2995C123.238 63.2869 123.246 63.8399 123.274 63.8688C123.324 63.9206 124.286 63.8917 124.56 63.8302L124.56 63.8302ZM138.266 65.7374C138.259 65.7177 138.259 63.7195 138.265 61.2971L138.276 56.8926H138.417C138.556 56.8926 138.561 56.8961 138.876 57.1846C139.051 57.3452 140.032 58.2419 141.055 59.1772C142.079 60.1126 143.094 61.0408 143.312 61.2399C143.529 61.4391 143.724 61.6021 143.745 61.6021C143.776 61.6021 143.784 61.1914 143.79 59.2544L143.798 56.9068H144.721H145.645L145.652 61.3396L145.659 65.7725H145.517H145.376L142.783 63.3891C141.357 62.0782 140.177 61.0101 140.161 61.0155C140.141 61.022 140.127 61.8056 140.118 63.3917L140.103 65.7583L139.19 65.7658C138.474 65.7716 138.274 65.7655 138.266 65.7374L138.266 65.7374ZM167.872 65.6523C167.864 65.5858 167.855 64.0057 167.852 62.1411C167.85 60.2765 167.839 58.7414 167.827 58.7299C167.816 58.7184 167.245 58.7056 166.558 58.7015L165.309 58.6941L165.301 57.8255C165.295 57.1174 165.301 56.951 165.333 56.9247C165.361 56.9008 166.274 56.8943 168.821 56.8996L172.271 56.9068L172.278 57.8072L172.286 58.7077L171.028 58.7151L169.77 58.7225L169.756 62.2404L169.742 65.7583L168.814 65.7658L167.887 65.7732L167.872 65.6523ZM173.895 65.7536C173.872 65.7299 173.87 56.999 173.894 56.9375C173.909 56.897 174.189 56.8926 176.765 56.8926C179.058 56.8926 179.621 56.8997 179.632 56.9289C179.663 57.0091 179.5 57.5394 179.358 57.8227C179.102 58.3324 178.767 58.6055 178.309 58.6784C178.203 58.6953 177.614 58.7079 176.924 58.7081L175.723 58.7084L175.73 59.524L175.738 60.3397L177.223 60.347L178.708 60.3544L178.701 61.2407L178.693 62.127L177.215 62.1412L175.738 62.1553L175.73 63.0419L175.723 63.9285H177.437C178.732 63.9285 179.159 63.9368 179.185 63.9625C179.21 63.9875 179.219 64.2218 179.219 64.8397C179.219 65.3034 179.211 65.703 179.201 65.7277C179.186 65.7682 178.926 65.7726 176.549 65.7726C175.1 65.7726 173.906 65.7641 173.895 65.7537L173.895 65.7536ZM151.901 48.4354C151.654 48.3048 151.051 48.2047 150.305 48.17C149.702 48.142 149.58 48.127 149.58 48.0805C149.58 47.9511 149.862 47.5529 149.981 47.5155C150.075 47.4857 150.129 47.3381 150.126 47.1195C150.123 46.8763 150.05 46.6552 149.899 46.4325C149.633 46.0371 149.459 45.6542 149.311 45.1332C149.256 44.9398 149.208 44.8211 149.185 44.8211C149.163 44.8211 149.098 44.963 149.026 45.1677C148.847 45.6745 148.714 45.9006 148.316 46.3758C148.078 46.66 147.95 46.8379 147.92 46.9269C147.866 47.0854 147.861 47.3476 147.911 47.3794C147.93 47.3918 148.072 47.4232 148.227 47.4493C148.554 47.5047 148.874 47.6476 149.006 47.7976C149.163 47.9757 149.225 48.2993 149.112 48.3428C149.089 48.3514 149.003 48.3257 148.921 48.2857C148.613 48.1369 148.129 48.1228 147.016 48.2302C146.739 48.257 146.505 48.271 146.495 48.2615C146.463 48.229 146.653 47.8776 146.779 47.7381C146.847 47.6616 146.95 47.574 147.007 47.5435C147.064 47.5127 147.118 47.4587 147.127 47.4225C147.166 47.2686 147.116 46.8881 147.014 46.5659C146.891 46.1752 146.845 45.9068 146.857 45.658C146.862 45.5538 146.854 45.4675 146.838 45.4594C146.822 45.4516 146.765 45.5346 146.71 45.6439C146.655 45.7531 146.571 45.9001 146.522 45.9705C146.419 46.1184 146.067 46.4577 145.894 46.5755C145.524 46.8285 144.004 46.6907 143.052 46.3176C142.745 46.1973 142.325 45.9552 142.341 45.9078C142.346 45.8923 142.548 45.8131 142.79 45.7318C145.251 44.904 146.813 43.3382 147.221 41.2893C147.318 40.8032 147.3 40.5798 147.165 40.5798C147.093 40.5798 147.033 40.6858 146.935 40.9846C146.664 41.8135 146.032 42.5299 145.125 43.0351C144.965 43.1246 144.826 43.1907 144.817 43.1819C144.808 43.173 144.822 43.0659 144.848 42.9438C144.935 42.5253 144.934 42.0927 144.845 42.0632C144.828 42.0576 144.751 42.1397 144.673 42.2456C144.109 43.0125 142.889 44.0627 141.715 44.7912C141.222 45.0975 140.413 45.4915 140.138 45.5598C140.062 45.5789 140.065 45.5697 140.295 45.1009C140.64 44.4012 140.999 43.5009 141.169 42.9094C141.343 42.3057 141.58 40.8934 141.517 40.831C141.5 40.8135 141.435 40.8508 141.337 40.9353C141.147 41.0977 140.918 41.22 140.878 41.1799C140.825 41.1276 140.87 39.8189 140.938 39.4308C141.154 38.188 141.616 37.1244 142.301 36.2877C142.678 35.8275 143.22 35.3729 143.596 35.2012C143.936 35.0462 144.361 35.0045 144.703 35.0926C145.085 35.1911 145.53 35.5007 145.74 35.8139C145.876 36.0184 145.885 36.0899 145.785 36.1837C145.67 36.2922 145.521 36.5341 145.444 36.7386C145.19 37.4121 145.495 38.2587 146.071 38.4797C146.374 38.596 146.854 38.5872 147.173 38.4595C147.302 38.4082 147.302 38.3897 147.182 38.0744C146.928 37.4104 146.988 36.6036 147.344 35.9129C147.401 35.8037 147.472 35.6757 147.503 35.6286C147.569 35.5297 147.561 35.5134 147.403 35.4109C147.338 35.3692 147.241 35.2799 147.186 35.2126C147.056 35.0514 146.926 34.851 146.942 34.8354C146.949 34.8285 147.035 34.8479 147.133 34.8785C147.347 34.9451 147.623 34.9502 147.792 34.8908C147.86 34.867 148.031 34.7728 148.172 34.6815C148.508 34.4646 148.882 34.2792 149.182 34.1807C149.516 34.0713 149.92 34.0644 150.141 34.1642C150.314 34.2422 150.484 34.4156 150.586 34.617C150.642 34.7268 150.681 34.7663 150.757 34.7915C150.904 34.8398 151.019 34.9871 151.058 35.1776C151.093 35.3419 151.075 35.6864 151.031 35.7136C151.018 35.7213 150.975 35.702 150.935 35.6706C150.814 35.5758 150.671 35.5299 150.496 35.5299C150.279 35.5299 150.099 35.593 149.948 35.722C149.8 35.8484 149.603 36.145 149.615 36.2241C149.622 36.2767 149.645 36.2822 149.882 36.2871C150.384 36.2977 150.73 36.4786 151.076 36.9122C151.319 37.2166 151.601 37.8647 151.668 38.2721C151.678 38.337 151.704 38.4135 151.725 38.4421C151.762 38.4922 151.768 38.4918 151.893 38.4314C152.284 38.2414 152.509 37.8333 152.514 37.303C152.517 36.9127 152.407 36.5993 152.148 36.2626C152.08 36.174 152.024 36.0891 152.024 36.0738C152.024 36.0293 152.508 35.551 152.656 35.4494C153.058 35.1737 153.453 35.0629 153.956 35.0845C154.34 35.101 154.568 35.1633 154.915 35.3461C155.338 35.5689 155.711 35.9096 156.093 36.4235C156.83 37.4124 157.29 38.6335 157.422 39.9515C157.459 40.3172 157.461 41.1665 157.425 41.1885C157.374 41.2198 157.083 41.0652 156.939 40.9307C156.821 40.8203 156.789 40.803 156.766 40.8365C156.748 40.862 156.743 41.0936 156.751 41.4451C156.767 42.1266 156.807 42.3723 157.082 43.4877C157.3 44.3719 157.472 44.9045 157.679 45.3389C157.81 45.6147 157.814 45.6297 157.755 45.6294C157.645 45.629 157.057 45.3562 156.688 45.1341C156.084 44.7706 155.189 44.0639 154.805 43.6478C154.368 43.1748 153.95 42.5536 153.575 41.8211C153.449 41.5742 153.333 41.3694 153.317 41.366C153.301 41.3625 153.277 41.4619 153.262 41.5866C153.238 41.7973 153.251 42.0409 153.322 42.676L153.339 42.8288L153.229 42.8082C152.758 42.7203 152.277 42.4325 152.035 42.0946C151.964 41.9947 151.895 41.9195 151.882 41.9274C151.869 41.9353 151.866 42.2386 151.874 42.6013C151.909 44.0841 151.702 45.1152 151.136 46.2822C151.01 46.5419 150.94 46.7252 150.919 46.8519C150.883 47.0646 150.878 47.3311 150.909 47.3771C150.921 47.3942 151.025 47.4368 151.142 47.4719C151.587 47.606 151.948 47.8471 152.056 48.0837C152.116 48.2135 152.125 48.4108 152.075 48.461C152.032 48.504 152.031 48.5039 151.901 48.4354L151.901 48.4354Z" fill="#4F516F"/>
<path d="M150.859 65.8312C149.994 65.6729 149.309 65.3138 148.698 64.6991C148.196 64.1943 147.871 63.6672 147.647 62.9958C147.283 61.9038 147.278 60.6846 147.633 59.6024C148.115 58.1348 149.272 57.0639 150.714 56.7509C151.844 56.5054 153.303 56.7229 154.234 57.2757L154.459 57.4097L154.478 57.8111C154.501 58.3131 154.502 59.4466 154.48 59.4466C154.471 59.4466 154.362 59.3662 154.239 59.2679C153.585 58.7453 152.661 58.4257 151.803 58.4254C150.787 58.425 149.946 58.9717 149.506 59.918C149.218 60.5361 149.16 61.4095 149.356 62.1604C149.421 62.4105 149.613 62.8343 149.754 63.0405C149.987 63.3808 150.347 63.6845 150.722 63.8555C151.077 64.0179 151.273 64.0556 151.754 64.0535C152.122 64.052 152.219 64.0413 152.463 63.9765C152.618 63.9351 152.759 63.8877 152.776 63.8712C152.825 63.8214 152.806 62.8775 152.75 62.6146C152.648 62.1351 152.412 61.5997 152.084 61.103L151.917 60.8509L153.171 60.8435C153.861 60.8395 154.441 60.8425 154.461 60.8498C154.489 60.8606 154.495 61.2972 154.49 62.9566L154.482 65.0497L154.283 65.1553C153.747 65.4397 153.067 65.6887 152.507 65.805C152.097 65.8905 151.256 65.9038 150.859 65.8312L150.859 65.8312ZM159.648 65.8147C158.599 65.6232 157.616 64.9358 156.989 63.9544C156.198 62.7183 156.009 61.0052 156.501 59.5375C156.939 58.23 157.883 57.2206 159.052 56.8112C159.829 56.5387 160.709 56.5288 161.472 56.7839C162.623 57.1687 163.594 58.1446 164.048 59.3718C164.441 60.4339 164.461 61.8745 164.097 62.9503C163.587 64.459 162.361 65.5662 160.924 65.8163C160.629 65.8678 159.934 65.8669 159.648 65.8148V65.8147ZM160.709 63.9439C161.487 63.7608 162.127 63.0683 162.368 62.1479C162.545 61.4723 162.507 60.6273 162.27 59.9998C161.877 58.9602 160.995 58.3552 160.059 58.4829C159.106 58.6129 158.388 59.4166 158.158 60.6098C158.105 60.8835 158.112 61.6233 158.17 61.909C158.292 62.5083 158.528 62.9812 158.898 63.3707C159.167 63.6529 159.579 63.8851 159.938 63.9569C160.126 63.9944 160.523 63.9877 160.709 63.944L160.709 63.9439ZM128.53 65.7562C128.541 65.7181 132.175 57.766 132.539 56.9846C132.568 56.9224 132.581 56.9201 132.869 56.9278L133.168 56.9358L133.302 57.2337C133.578 57.8466 137.077 65.7766 137.077 65.7888C137.077 65.8486 136.352 65.6713 135.912 65.5038C135.547 65.365 135.271 65.2148 134.732 64.8623C133.925 64.3344 133.751 64.2434 133.198 64.0623C132.798 63.9313 132.499 63.857 132.161 63.8044C131.815 63.7507 131.36 63.7216 131.32 63.7506C131.303 63.7629 131.196 63.9547 131.084 64.1767C130.844 64.649 130.689 64.8654 130.439 65.0778C129.998 65.4511 129.325 65.7274 128.702 65.7911C128.527 65.809 128.516 65.8068 128.53 65.7562V65.7562ZM133.992 62.6269C134.008 62.6015 132.946 60.166 132.897 60.1145C132.881 60.0974 132.856 60.1026 132.83 60.1287C132.773 60.1855 131.985 62.0016 132 62.0406C132.007 62.0578 132.177 62.1074 132.378 62.1508C132.761 62.2334 133.457 62.455 133.724 62.5791C133.888 62.6555 133.966 62.6694 133.992 62.6269V62.6269ZM121.555 65.7556C121.547 65.7419 121.532 64.1922 121.521 62.312C121.509 60.2358 121.49 58.8513 121.473 58.7863C121.455 58.7161 121.373 58.5993 121.234 58.4468C120.886 58.0651 120.592 57.587 120.455 57.1818C120.423 57.0865 120.397 56.9749 120.397 56.9337V56.8589L122.322 56.8733C124.28 56.888 124.417 56.895 125 57.0105C126.592 57.3258 127.736 58.2832 128.208 59.6949C128.6 60.8701 128.523 62.3353 128.013 63.4038C127.5 64.4757 126.436 65.3273 125.26 65.6069C124.744 65.7293 124.475 65.7481 122.994 65.7647C122.181 65.7738 121.564 65.77 121.555 65.7556V65.7556ZM124.199 63.8995C124.934 63.8208 125.477 63.5872 125.91 63.1629C126.388 62.6944 126.605 62.1159 126.602 61.319C126.599 60.7487 126.509 60.3793 126.266 59.9415C126.128 59.6935 125.711 59.2748 125.455 59.1267C124.962 58.8417 124.494 58.7311 123.764 58.7264L123.253 58.7234V61.3038V63.8842L123.324 63.9039C123.434 63.9346 123.894 63.9324 124.199 63.8999V63.8995ZM138.292 65.7562C138.28 65.7447 138.271 63.7516 138.271 61.3271V56.9188L138.423 56.9273L138.575 56.9359L141.135 59.2764C142.543 60.5637 143.719 61.6169 143.747 61.6169C143.795 61.6169 143.798 61.5069 143.805 59.2693L143.812 56.9217H144.721H145.629L145.637 58.5459C145.642 59.4392 145.649 61.4244 145.653 62.9574L145.66 65.7448H145.516H145.373L142.795 63.3732C141.377 62.0689 140.201 60.9949 140.18 60.9866C140.16 60.9784 140.135 60.9806 140.124 60.9916C140.113 61.0027 140.097 62.0798 140.089 63.3854L140.075 65.759L139.194 65.768C138.709 65.773 138.303 65.7677 138.292 65.7562V65.7562ZM167.9 65.7546C167.889 65.744 167.881 64.1633 167.881 62.242C167.881 59.5628 167.873 58.7408 167.846 58.7147C167.821 58.6892 167.498 58.6806 166.567 58.6806H165.322L165.33 57.8083L165.337 56.9359H168.804H172.271L172.278 57.8083L172.286 58.6806H171.039C170.027 58.6806 169.785 58.6878 169.76 58.7189C169.737 58.7465 169.726 59.7282 169.721 62.2581L169.713 65.759L168.816 65.7665C168.323 65.7705 167.911 65.7655 167.9 65.7546ZM173.905 61.3332V56.9217H176.764H179.624L179.605 57.0422C179.572 57.2503 179.473 57.5514 179.359 57.787C179.163 58.1949 178.9 58.4645 178.565 58.6021C178.412 58.665 178.38 58.6667 177.059 58.6806L175.709 58.6948L175.702 59.5033C175.695 60.2383 175.699 60.3151 175.743 60.3473C175.78 60.3746 176.128 60.3828 177.25 60.3828H178.708L178.701 61.241L178.693 62.0992L177.232 62.1066C176.202 62.1118 175.76 62.1234 175.733 62.1458C175.702 62.1717 175.696 62.3453 175.702 63.0605L175.709 63.9433L177.443 63.9574L179.176 63.9716L179.184 64.8582L179.191 65.7447H176.548H173.905L173.905 61.3332ZM151.896 48.405C151.652 48.2763 151.202 48.197 150.477 48.1544C149.674 48.1072 149.609 48.0996 149.609 48.0526C149.609 47.928 149.858 47.5936 150.009 47.5156C150.119 47.4591 150.16 47.3146 150.141 47.0478C150.124 46.7999 150.067 46.6518 149.882 46.3724C149.636 46.0003 149.447 45.5654 149.309 45.0509C149.205 44.6657 149.18 44.6669 149.043 45.0629C148.83 45.681 148.724 45.8647 148.284 46.3874C147.949 46.7836 147.875 46.921 147.854 47.1764C147.837 47.3901 147.878 47.4458 148.055 47.4464C148.343 47.4474 148.759 47.5985 148.952 47.7723C149.103 47.9091 149.197 48.1862 149.128 48.295C149.106 48.3288 149.075 48.3232 148.935 48.2607C148.598 48.1095 148.122 48.0948 147.017 48.2017C146.754 48.2272 146.531 48.2412 146.523 48.2329C146.515 48.2246 146.548 48.1383 146.597 48.0411C146.7 47.838 146.891 47.622 147.038 47.543C147.094 47.513 147.146 47.4591 147.156 47.4229C147.195 47.2669 147.142 46.9148 147.024 46.5382C146.918 46.2025 146.901 46.1105 146.885 45.7931C146.875 45.5877 146.854 45.4292 146.838 45.4267C146.823 45.4242 146.746 45.5427 146.668 45.6895C146.555 45.9029 146.472 46.0114 146.256 46.2291C146.107 46.379 145.922 46.5386 145.844 46.5837L145.702 46.6659L145.133 46.6649C144.387 46.6633 143.788 46.5669 143.181 46.3505C142.847 46.2316 142.32 45.9446 142.363 45.9055C142.371 45.8986 142.556 45.8327 142.775 45.7591C144.741 45.0975 146.13 43.9883 146.825 42.5256C147.087 41.9745 147.258 41.3877 147.296 40.9068C147.312 40.7081 147.307 40.6714 147.259 40.6124C147.218 40.5622 147.188 40.55 147.142 40.5648C147.066 40.5887 147.013 40.6855 146.92 40.973C146.751 41.4877 146.508 41.8693 146.075 42.2984C145.886 42.4854 145.65 42.6837 145.49 42.7901C145.207 42.9784 144.835 43.1777 144.835 43.1413C144.835 43.1294 144.855 43.0176 144.879 42.8927C144.903 42.7679 144.922 42.5436 144.922 42.3943C144.922 41.9528 144.886 41.9308 144.658 42.2331C143.773 43.4068 141.811 44.8901 140.413 45.4428C140.27 45.4992 140.14 45.5453 140.125 45.5453C140.109 45.5453 140.182 45.3762 140.286 45.1694C140.611 44.5262 141.048 43.4283 141.197 42.8785C141.365 42.2621 141.591 40.9321 141.548 40.8196C141.524 40.7569 141.497 40.7689 141.327 40.9169C141.152 41.0704 140.928 41.2002 140.895 41.1675C140.857 41.1292 140.849 40.4871 140.883 40.0871C140.965 39.0974 141.171 38.3167 141.567 37.4957C141.888 36.83 142.235 36.3412 142.722 35.869C143.548 35.0678 144.278 34.8653 145.012 35.2336C145.366 35.4111 145.633 35.6508 145.783 35.9261L145.86 36.0671L145.76 36.1778C145.423 36.5501 145.275 37.0408 145.358 37.5108C145.486 38.2396 145.989 38.6447 146.692 38.5853C146.935 38.5648 147.275 38.4662 147.297 38.4099C147.305 38.3881 147.274 38.2707 147.227 38.1491C146.933 37.3884 147.011 36.5102 147.435 35.7796C147.505 35.659 147.563 35.5406 147.563 35.5164C147.563 35.4923 147.532 35.4609 147.495 35.4467C147.458 35.4326 147.38 35.3798 147.323 35.3295C147.211 35.2315 146.951 34.8842 146.972 34.8624C146.98 34.8551 147.04 34.8682 147.106 34.8914C147.172 34.9147 147.306 34.9419 147.404 34.9519C147.643 34.9764 147.837 34.9171 148.12 34.7327C148.447 34.519 148.82 34.3281 149.112 34.2247C149.438 34.1087 149.834 34.0786 150.057 34.1526C150.248 34.2158 150.43 34.3809 150.543 34.5917C150.616 34.7296 150.658 34.7736 150.754 34.8165C150.898 34.881 150.966 34.9526 151.017 35.0961C151.057 35.2076 151.067 35.5236 151.034 35.6375L151.015 35.7018L150.912 35.6316C150.606 35.4237 150.143 35.4842 149.869 35.7678C149.76 35.8808 149.58 36.1779 149.58 36.2453C149.58 36.3024 149.582 36.3027 149.824 36.2971C150.051 36.2918 150.345 36.362 150.549 36.4702C151.035 36.7289 151.457 37.411 151.64 38.2315C151.704 38.5192 151.727 38.5364 151.923 38.4405C152.295 38.259 152.536 37.8065 152.536 37.2896C152.536 36.9192 152.422 36.5949 152.178 36.2716C152.109 36.1797 152.053 36.0956 152.053 36.0847C152.053 36.0391 152.281 35.7916 152.479 35.6226C153.098 35.0939 153.812 34.956 154.577 35.2174C155.363 35.4863 156.107 36.2742 156.697 37.4629C157.136 38.3464 157.364 39.2244 157.422 40.2541C157.448 40.7088 157.432 41.1763 157.39 41.1763C157.32 41.1763 157.052 41.0134 156.933 40.8981C156.736 40.7073 156.727 40.729 156.729 41.3551C156.732 42.0699 156.792 42.436 157.125 43.7438C157.314 44.4879 157.443 44.8752 157.637 45.2829C157.811 45.647 157.809 45.6505 157.506 45.5284C156.493 45.1192 155.066 44.024 154.417 43.1566C154.122 42.7638 153.846 42.3101 153.578 41.7793C153.45 41.5258 153.33 41.3183 153.312 41.3183C153.293 41.3182 153.27 41.345 153.259 41.3779C153.225 41.4845 153.241 42.2329 153.283 42.5097C153.306 42.6579 153.319 42.7852 153.312 42.7925C153.287 42.8206 152.909 42.7023 152.692 42.5982C152.4 42.458 152.198 42.2944 152.035 42.067C151.91 41.8924 151.872 41.8607 151.844 41.9072C151.836 41.919 151.84 42.1583 151.852 42.439C151.916 43.9396 151.683 45.1444 151.101 46.3113C150.936 46.6428 150.899 46.7664 150.872 47.0773C150.846 47.3845 150.867 47.421 151.108 47.4829C151.519 47.5885 151.945 47.8656 152.042 48.0906C152.098 48.2218 152.089 48.4704 152.028 48.4662C152.018 48.4657 151.959 48.438 151.896 48.4051L151.896 48.405Z" fill="#2A2C52"/>
<path d="M150.916 65.8182C149.532 65.5735 148.453 64.7372 147.848 63.4401C147.275 62.2113 147.247 60.5272 147.778 59.2875C148.378 57.8894 149.476 56.9983 150.93 56.7302C151.281 56.6656 152.098 56.6669 152.521 56.7328C153.16 56.8321 153.679 56.9992 154.141 57.2541C154.504 57.4541 154.468 57.324 154.468 58.4471V59.4248L154.358 59.3254C153.788 58.8114 152.828 58.4467 151.939 58.4062C150.725 58.3509 149.747 59.0343 149.372 60.1983C149.248 60.5826 149.226 60.7414 149.226 61.2339C149.226 61.7209 149.262 61.97 149.387 62.35C149.56 62.88 149.93 63.3969 150.335 63.675C150.806 63.9983 151.501 64.1572 152.077 64.0731C152.353 64.0329 152.733 63.937 152.784 63.895C152.829 63.8575 152.833 62.953 152.79 62.6807C152.722 62.2594 152.429 61.5664 152.13 61.1203C152.063 61.0189 151.997 60.92 151.985 60.9005C151.968 60.8723 152.222 60.865 153.216 60.865H154.468V62.9504V65.0358L154.085 65.2201C153.453 65.5241 153.057 65.6654 152.531 65.775C152.158 65.8527 151.248 65.877 150.916 65.8182V65.8182ZM159.952 65.8294C158.197 65.6669 156.703 64.173 156.342 62.2202C156.266 61.8067 156.239 61.0952 156.284 60.6651C156.405 59.5057 156.852 58.5377 157.62 57.7707C158.217 57.1754 158.856 56.8276 159.634 56.6762C160.002 56.6044 160.647 56.6119 161.03 56.6923C162.429 56.9859 163.582 58.0596 164.072 59.5243C164.358 60.3791 164.412 61.4735 164.215 62.4161C164.093 63 163.826 63.6218 163.49 64.1012C163.255 64.4371 162.699 64.9842 162.373 65.2007C161.637 65.6883 160.794 65.9074 159.952 65.8294V65.8294ZM160.7 63.9681C161.737 63.7348 162.44 62.7289 162.5 61.3899C162.544 60.416 162.238 59.56 161.646 59C161.198 58.5765 160.664 58.3887 160.093 58.4538C159.1 58.5668 158.342 59.41 158.13 60.6381C158.072 60.9702 158.086 61.6177 158.159 61.9635C158.261 62.4499 158.453 62.8765 158.721 63.2146C159.22 63.8414 159.978 64.1303 160.7 63.9681ZM128.561 65.7376C128.569 65.7181 128.827 65.1532 129.135 64.4822C129.443 63.8113 130.027 62.5346 130.434 61.6452C131.321 59.705 131.85 58.5502 132.096 58.0138C132.196 57.7954 132.349 57.4598 132.436 57.2681L132.595 56.9196L132.867 56.9277L133.14 56.9357L133.712 58.2266C134.026 58.9365 134.85 60.8005 135.542 62.3686C136.234 63.9368 136.855 65.3411 136.922 65.4893L137.043 65.7589L136.975 65.7678C136.889 65.7792 136.337 65.6323 135.978 65.5024C135.606 65.3679 135.34 65.2232 134.707 64.8095C134.414 64.6181 134.055 64.3987 133.909 64.322C133.583 64.1507 132.911 63.9261 132.437 63.8304C132.066 63.7554 131.42 63.6899 131.331 63.7183C131.299 63.7283 131.205 63.8817 131.091 64.1085C130.875 64.5382 130.785 64.6775 130.585 64.89C130.189 65.3113 129.62 65.6012 128.936 65.7302C128.654 65.7834 128.541 65.7856 128.561 65.7376V65.7376ZM134.037 62.6388C134.037 62.619 133.908 62.3108 133.75 61.9538C133.592 61.5968 133.341 61.0271 133.192 60.6877C132.904 60.0329 132.863 59.9795 132.776 60.1487C132.754 60.1916 132.56 60.6289 132.346 61.1204C132.066 61.7639 131.965 62.0258 131.984 62.0562C131.999 62.0794 132.054 62.1074 132.107 62.1186C132.801 62.2639 133.187 62.382 133.792 62.6341C133.961 62.7042 134.037 62.7057 134.037 62.6386V62.6388ZM121.558 65.3546C121.556 65.1401 121.546 63.573 121.537 61.8722C121.522 59.3086 121.512 58.7677 121.48 58.7089C121.458 58.6699 121.36 58.5486 121.263 58.4394C120.895 58.0261 120.617 57.5777 120.483 57.1816C120.451 57.0864 120.425 56.9814 120.425 56.9482V56.8879L122.35 56.9015C123.59 56.9102 124.356 56.9268 124.503 56.948C126.207 57.1948 127.341 57.9254 127.964 59.177C128.663 60.5814 128.572 62.5361 127.748 63.8197C127.264 64.573 126.42 65.2206 125.555 65.5025C124.977 65.6907 124.356 65.7437 122.72 65.7443L121.562 65.7447L121.558 65.3546ZM124.551 63.8712C125.205 63.7382 125.627 63.5135 126.016 63.0915C126.477 62.5921 126.705 61.8188 126.622 61.0311C126.522 60.0766 126.079 59.4027 125.298 59.018C124.821 58.7826 124.206 58.6667 123.537 58.6858L123.224 58.6947V61.3048V63.9148L123.352 63.9339C123.573 63.9668 124.256 63.9314 124.551 63.8712ZM138.299 61.3479V56.951L138.372 56.9327C138.412 56.9226 138.474 56.9274 138.509 56.9434C138.544 56.9594 138.808 57.1879 139.097 57.4514C139.385 57.7148 140.081 58.351 140.643 58.8652C141.206 59.3794 142.124 60.2192 142.684 60.7315C143.467 61.449 143.715 61.661 143.763 61.6541L143.826 61.6453L143.833 59.2976L143.841 56.95H144.717H145.593L145.612 57.3542C145.622 57.5766 145.63 59.5477 145.63 61.7344V65.7102L145.561 65.7275C145.45 65.7553 145.365 65.7052 145.099 65.4553C144.961 65.3258 144.375 64.786 143.797 64.2557C143.219 63.7253 142.185 62.7742 141.5 62.1421C140.814 61.5099 140.223 60.9808 140.186 60.9661C140.149 60.9515 140.109 60.9494 140.097 60.9616C140.085 60.9736 140.071 62.0548 140.067 63.3642L140.06 65.7449H139.179H138.299V61.3479ZM167.909 62.2278C167.909 58.7798 167.908 58.7103 167.854 58.6815C167.818 58.6626 167.364 58.6522 166.575 58.6522H165.351V57.8011V56.95H168.804H172.257V57.8011V58.6522H171.033C170.244 58.6522 169.79 58.6626 169.754 58.6815C169.7 58.7103 169.699 58.7798 169.699 62.2278V65.7447H168.804H167.909V62.2278ZM173.952 65.726C173.942 65.7155 173.933 63.7366 173.933 61.3284V56.95H176.761C179.46 56.95 179.588 56.9525 179.588 57.0008C179.588 57.1106 179.435 57.5723 179.323 57.8011C179.163 58.1262 178.831 58.4702 178.579 58.5702C178.409 58.6379 178.406 58.638 177.069 58.6461C175.994 58.6527 175.722 58.6618 175.697 58.6921C175.675 58.7183 175.668 58.9815 175.673 59.5493L175.681 60.3686L177.18 60.3759L178.679 60.3833V61.2342V62.085H177.207C176.1 62.085 175.726 62.0934 175.701 62.1191C175.676 62.1441 175.667 62.387 175.667 63.0354C175.667 63.6838 175.676 63.9268 175.701 63.9518C175.727 63.9775 176.154 63.9859 177.449 63.9859H179.163L179.155 64.8582L179.148 65.7306L176.559 65.7379C175.136 65.7419 173.963 65.7364 173.952 65.726L173.952 65.726ZM151.853 48.3396C151.55 48.2117 150.904 48.118 150.085 48.0826C149.761 48.0686 149.637 48.0536 149.637 48.0285C149.637 47.9513 149.867 47.6457 149.987 47.5634C150.135 47.4617 150.177 47.3659 150.177 47.1326C150.177 46.9022 150.086 46.6374 149.921 46.3842C149.649 45.9677 149.442 45.4927 149.323 45.0104C149.223 44.603 149.165 44.6198 149 45.1042C148.819 45.6352 148.679 45.8835 148.344 46.2686C147.927 46.7477 147.856 46.872 147.828 47.1719C147.805 47.4143 147.847 47.459 148.119 47.4818C148.517 47.5152 148.932 47.715 149.045 47.9278C149.106 48.0428 149.117 48.2687 149.061 48.2687C149.041 48.2687 148.997 48.2497 148.964 48.2265C148.771 48.0916 147.974 48.06 147.058 48.151C146.714 48.1853 146.568 48.1906 146.568 48.1687C146.568 48.1261 146.757 47.8153 146.831 47.7362C146.865 47.7008 146.953 47.6324 147.029 47.5842C147.111 47.5311 147.172 47.4685 147.183 47.4256C147.221 47.2737 147.168 46.918 147.049 46.5381C146.939 46.1851 146.928 46.1244 146.916 45.7635C146.903 45.388 146.9 45.3722 146.844 45.3805C146.803 45.3866 146.75 45.4596 146.663 45.6324C146.522 45.9132 146.284 46.2081 146.041 46.4051C145.768 46.6264 145.748 46.6332 145.313 46.6462C144.404 46.6735 143.405 46.4744 142.76 46.1379C142.54 46.0227 142.396 45.9254 142.42 45.9077C142.427 45.9021 142.581 45.8491 142.76 45.7899C144.132 45.3383 145.262 44.6416 146.033 43.772C146.687 43.0346 147.136 42.0947 147.293 41.1336C147.366 40.6908 147.337 40.5378 147.179 40.5378C147.071 40.5378 146.996 40.6481 146.897 40.9524C146.665 41.6719 146.166 42.3016 145.446 42.7863C145.229 42.9319 144.893 43.1161 144.876 43.0987C144.868 43.0914 144.882 42.9933 144.905 42.8807C144.954 42.6503 144.963 42.1821 144.921 42.0717C144.873 41.946 144.802 41.9845 144.622 42.2329C144.411 42.525 143.757 43.1961 143.343 43.5442C142.378 44.3567 141.286 45.0577 140.465 45.3918C140.299 45.4594 140.16 45.5119 140.157 45.5086C140.154 45.5051 140.237 45.3303 140.342 45.1196C140.821 44.1516 141.225 43.0148 141.394 42.1549C141.49 41.6647 141.597 40.8486 141.574 40.7861C141.55 40.7212 141.477 40.7493 141.332 40.88C141.252 40.9512 141.131 41.0425 141.062 41.0829C140.958 41.1439 140.931 41.1496 140.909 41.1166C140.892 41.0922 140.887 40.8518 140.896 40.4952C140.916 39.7171 141.007 39.1262 141.207 38.4668C141.715 36.7934 142.942 35.3358 144.03 35.1122C144.23 35.0711 144.296 35.0693 144.498 35.0987C144.984 35.1694 145.521 35.5185 145.744 35.9089L145.825 36.0501L145.716 36.1804C145.577 36.3468 145.42 36.6361 145.363 36.8336C145.306 37.0295 145.304 37.4525 145.36 37.6667C145.475 38.1062 145.73 38.4072 146.102 38.5417C146.35 38.6315 146.82 38.6282 147.092 38.5346C147.2 38.4973 147.3 38.4471 147.315 38.4229C147.334 38.3919 147.312 38.2998 147.241 38.1102C147.102 37.7388 147.07 37.5236 147.087 37.08C147.098 36.79 147.118 36.6515 147.178 36.4525C147.259 36.1798 147.398 35.8679 147.518 35.6924C147.609 35.5582 147.614 35.4564 147.529 35.4296C147.446 35.4031 147.206 35.1756 147.1 35.0225C147.014 34.8982 147.014 34.8975 147.082 34.9164C147.12 34.9269 147.24 34.9498 147.35 34.9672C147.64 35.0135 147.826 34.9584 148.21 34.7118C148.605 34.4586 148.809 34.3577 149.167 34.2381C149.675 34.0684 150.08 34.1083 150.332 34.353C150.401 34.4202 150.497 34.553 150.545 34.6482C150.601 34.7598 150.65 34.8213 150.682 34.8214C150.777 34.8216 150.919 34.9355 150.974 35.0559C151.026 35.1714 151.055 35.581 151.013 35.6226C151.004 35.6316 150.931 35.605 150.851 35.5635C150.727 35.4994 150.67 35.4882 150.477 35.4895C150.287 35.491 150.223 35.5039 150.103 35.5657C149.859 35.692 149.552 36.0826 149.552 36.2678C149.552 36.3201 149.57 36.3249 149.775 36.3249C150.344 36.3249 150.721 36.5168 151.074 36.9857C151.306 37.294 151.464 37.6535 151.598 38.1828C151.642 38.3542 151.697 38.5064 151.72 38.521C151.781 38.5598 152.054 38.4182 152.202 38.2709C152.448 38.0252 152.581 37.6189 152.555 37.1902C152.532 36.8194 152.413 36.5146 152.176 36.2208C152.124 36.1558 152.081 36.0917 152.081 36.0784C152.081 36.0336 152.605 35.5382 152.763 35.4341C153.636 34.8578 154.822 35.079 155.661 35.9744C156.538 36.91 157.168 38.3073 157.354 39.7293C157.401 40.0844 157.426 41.0972 157.39 41.1339C157.356 41.1676 157.028 40.9737 156.924 40.8581C156.784 40.704 156.733 40.722 156.704 40.9354C156.673 41.1581 156.7 41.8061 156.756 42.1902C156.808 42.5482 156.947 43.166 157.14 43.8997C157.309 44.5436 157.419 44.8723 157.595 45.2686C157.67 45.4363 157.718 45.5736 157.701 45.5736C157.644 45.5736 157.122 45.3334 156.889 45.1995C156.226 44.8185 155.453 44.2278 154.925 43.6989C154.427 43.1995 153.887 42.3904 153.502 41.5659C153.399 41.3468 153.362 41.2919 153.313 41.2909C153.266 41.2899 153.248 41.3115 153.234 41.3856C153.203 41.5525 153.216 42.2011 153.257 42.4812C153.278 42.6294 153.291 42.7561 153.285 42.7627C153.258 42.7928 152.952 42.6946 152.715 42.5799C152.425 42.439 152.169 42.2248 152.025 42.0006C151.976 41.9244 151.919 41.8553 151.897 41.8471C151.811 41.8143 151.801 41.8958 151.828 42.3962C151.907 43.8726 151.666 45.1221 151.073 46.3112C150.897 46.662 150.858 46.8097 150.851 47.1417C150.845 47.4326 150.853 47.4444 151.11 47.513C151.654 47.6582 152.053 47.9725 152.053 48.2571C152.053 48.3241 152.043 48.3848 152.031 48.3921C152.019 48.3994 151.939 48.3758 151.853 48.3396L151.853 48.3396Z" fill="#1D204B"/>
</svg>
