<svg width="300" height="100" viewBox="0 0 300 100" fill="none" xmlns="http://www.w3.org/2000/svg">
<rect width="300" height="100" fill="white"/>
<path d="M169.68 36.7471H130.32V63.2535H169.68V36.7471Z" fill="#EC1B24"/>
<path d="M135.67 59.8897H134.428C134.215 59.8897 134.108 59.7173 134.108 59.3725V50.2293C134.108 49.8845 134.215 49.7119 134.428 49.7117H135.67L137.552 49.7061C137.906 49.7183 138.258 49.7639 138.604 49.8425C138.958 49.9321 139.298 50.0723 139.612 50.2589C139.846 50.3818 140.144 50.6454 140.504 51.0497C140.698 51.3088 140.859 51.591 140.984 51.8897C141.161 52.3057 141.249 52.8486 141.249 53.5185V56.0869C141.249 56.7565 141.161 57.3014 140.984 57.7217C140.858 58.0174 140.697 58.2969 140.504 58.5541C140.144 58.9621 139.846 59.2275 139.612 59.3505C139.298 59.537 138.958 59.6772 138.604 59.7669C138.258 59.8454 137.906 59.891 137.552 59.9033L135.67 59.8977V59.8897ZM136.236 51.6801V57.9281H137.571C137.751 57.9281 137.874 57.9185 137.94 57.8985C138.715 57.7118 139.102 57.1629 139.102 56.2517V53.3501C139.102 52.4386 138.714 51.8919 137.94 51.7101C137.873 51.6901 137.75 51.6801 137.571 51.6801H136.236Z" fill="white"/>
<path d="M144.885 57.4457L144.362 59.4729C144.28 59.7505 144.128 59.8893 143.907 59.8893H142.418C142.262 59.8893 142.185 59.796 142.185 59.6093C142.187 59.5171 142.199 59.4253 142.222 59.3357L144.632 50.2641C144.707 49.8953 144.854 49.7109 145.075 49.7109H147.29C147.511 49.7109 147.658 49.8953 147.732 50.2641L150.132 59.3357C150.155 59.4253 150.167 59.5171 150.169 59.6093C150.169 59.796 150.091 59.8893 149.936 59.8893H148.46C148.238 59.8893 148.086 59.7505 148.004 59.4729L147.48 57.4457H144.885ZM146.957 55.3949L146.182 52.3869L145.408 55.3949H146.957Z" fill="white"/>
<path d="M153.08 54.6696V59.4728C153.08 59.7504 152.969 59.8892 152.748 59.8892H151.272C151.059 59.8892 150.952 59.7168 150.952 59.372V50.2288C150.952 49.884 151.059 49.7114 151.272 49.7112H152.748C152.969 49.7112 153.949 51.4966 155.688 55.0676V50.2276C155.688 49.8828 155.794 49.7102 156.008 49.71H157.48C157.702 49.71 157.812 49.8488 157.812 50.1264V59.4728C157.812 59.7504 157.701 59.8892 157.48 59.8892H156.004C155.792 59.8892 154.817 58.1493 153.08 54.6696Z" fill="white"/>
<path d="M158.738 53.1997C158.738 52.0304 159.228 51.085 160.208 50.3637C160.868 49.937 161.552 49.723 162.262 49.7217V49.7337C162.295 49.7192 162.33 49.7093 162.366 49.7041C162.72 49.7163 163.072 49.762 163.418 49.8405C163.772 49.9301 164.112 50.0704 164.426 50.2569C164.66 50.3798 164.958 50.6434 165.318 51.0477C165.512 51.3069 165.674 51.589 165.798 51.8877C165.975 52.3037 166.063 52.8466 166.063 53.5165V56.0849C166.063 56.7545 165.975 57.2994 165.798 57.7197C165.672 58.0154 165.511 58.2949 165.318 58.5521C164.958 58.9601 164.66 59.2256 164.426 59.3485C164.112 59.535 163.772 59.6753 163.418 59.7649C163.072 59.8434 162.72 59.8891 162.366 59.9013C162.33 59.8964 162.295 59.8864 162.262 59.8717V59.8837C161.552 59.8837 160.868 59.6697 160.208 59.2417C159.228 58.5217 158.738 57.575 158.738 56.4017V53.1997ZM163.916 53.3481C163.916 52.4366 163.528 51.89 162.754 51.7081C162.688 51.6884 162.565 51.6785 162.385 51.6785C161.72 51.6785 161.257 51.9718 160.995 52.5585C160.947 52.7406 160.91 52.9253 160.884 53.1117V56.4885C160.909 56.6749 160.946 56.8595 160.995 57.0413C161.257 57.6317 161.72 57.9269 162.385 57.9269C162.565 57.9269 162.688 57.9173 162.754 57.8973C163.529 57.7106 163.916 57.1617 163.916 56.2505V53.3481Z" fill="white"/>
<path d="M166.587 49.8223C166.707 49.823 166.824 49.8539 166.929 49.9123C167.038 49.9709 167.129 50.0603 167.189 50.1695C167.249 50.2752 167.281 50.3949 167.281 50.5167C167.281 50.6385 167.249 50.7582 167.189 50.8639C167.129 50.9724 167.04 51.0617 166.931 51.1211C166.826 51.1813 166.707 51.213 166.585 51.213C166.464 51.213 166.345 51.1813 166.239 51.1211C166.131 51.0617 166.041 50.9725 165.982 50.8639C165.921 50.7582 165.889 50.6385 165.889 50.5167C165.889 50.3948 165.921 50.2751 165.982 50.1695C166.042 50.0603 166.132 49.9709 166.242 49.9123C166.347 49.8535 166.466 49.8225 166.587 49.8223ZM166.587 49.9375C166.487 49.9381 166.389 49.964 166.302 50.0127C166.21 50.0619 166.135 50.1364 166.084 50.2275C166.034 50.3155 166.007 50.4153 166.007 50.5169C166.007 50.6184 166.034 50.7182 166.084 50.8063C166.134 50.8967 166.209 50.9711 166.3 51.0207C166.387 51.0713 166.487 51.0979 166.588 51.0979C166.689 51.0979 166.789 51.0713 166.876 51.0207C166.967 50.971 167.041 50.8966 167.091 50.8063C167.142 50.7182 167.168 50.6184 167.168 50.5169C167.168 50.4153 167.142 50.3155 167.091 50.2275C167.041 50.1363 166.966 50.0616 166.874 50.0127C166.787 49.9636 166.688 49.9377 166.587 49.9375ZM166.28 50.9023V50.1543H166.537C166.602 50.1513 166.666 50.1583 166.728 50.1751C166.767 50.188 166.8 50.2133 166.822 50.2471C166.845 50.2793 166.857 50.3177 166.857 50.3571C166.857 50.3834 166.853 50.4096 166.843 50.4341C166.833 50.4586 166.819 50.481 166.8 50.4999C166.759 50.5414 166.703 50.5657 166.645 50.5679C166.668 50.5773 166.69 50.5908 166.709 50.6079C166.751 50.6532 166.788 50.703 166.819 50.7563L166.91 50.9027H166.763L166.696 50.7847C166.665 50.7196 166.622 50.6607 166.57 50.6107C166.542 50.5916 166.508 50.5824 166.474 50.5847H166.402V50.9027L166.28 50.9023ZM166.4 50.4815H166.546C166.597 50.4864 166.647 50.4753 166.69 50.4499C166.703 50.4402 166.713 50.4276 166.72 50.4132C166.727 50.3988 166.73 50.383 166.73 50.3671C166.73 50.3458 166.724 50.3249 166.712 50.3075C166.699 50.2894 166.681 50.2755 166.661 50.2675C166.621 50.2569 166.581 50.2526 166.541 50.2547H166.403L166.4 50.4815Z" fill="white"/>
<path d="M155.144 41.5356C155.23 41.5356 155.313 41.5103 155.384 41.4629C155.455 41.4155 155.51 41.3482 155.543 41.2694C155.575 41.1906 155.584 41.1039 155.567 41.0202C155.551 40.9366 155.51 40.8598 155.449 40.7995C155.389 40.7392 155.312 40.6981 155.229 40.6815C155.145 40.6648 155.058 40.6734 154.979 40.706C154.901 40.7386 154.833 40.7939 154.786 40.8648C154.739 40.9357 154.713 41.0191 154.713 41.1044C154.713 41.2187 154.759 41.3284 154.84 41.4093C154.92 41.4901 155.03 41.5356 155.144 41.5356ZM150.008 40.3848V40.908C146.374 40.908 143.427 42.3716 143.427 44.1768C143.427 46.0168 146.374 47.5096 150.008 47.5096C153.652 47.5096 156.606 45.9856 156.606 44.1056C156.606 42.0508 153.652 40.3856 150.008 40.3856" fill="white"/>
<path d="M155.094 40.9741H155.134C155.144 40.9737 155.155 40.9748 155.166 40.9773C155.173 40.9793 155.18 40.9828 155.185 40.9877C155.19 40.9917 155.194 40.9971 155.196 41.0033C155.198 41.0094 155.199 41.0157 155.198 41.0221C155.199 41.029 155.198 41.0358 155.195 41.0423C155.193 41.0487 155.189 41.0547 155.184 41.0597C155.169 41.0706 155.151 41.0755 155.132 41.0737H155.092V40.9741M155.012 41.2801C155.024 41.2832 155.037 41.2844 155.049 41.2837C155.061 41.2845 155.073 41.2833 155.084 41.2801C155.087 41.279 155.089 41.2771 155.09 41.2748C155.092 41.2724 155.092 41.2696 155.092 41.2669V41.1417H155.116C155.132 41.1406 155.147 41.1451 155.16 41.1545C155.172 41.1675 155.181 41.1835 155.185 41.2009L155.204 41.2621C155.205 41.2663 155.207 41.2703 155.209 41.2737L155.218 41.2797C155.223 41.2815 155.229 41.2825 155.234 41.2829H155.258H155.285L155.3 41.2805L155.307 41.2761V41.2697C155.306 41.2607 155.304 41.2518 155.3 41.2433L155.279 41.1865C155.272 41.1672 155.261 41.1496 155.247 41.1353C155.235 41.1246 155.222 41.1164 155.207 41.1113C155.231 41.1064 155.252 41.0949 155.27 41.0781C155.278 41.0691 155.284 41.0585 155.288 41.047C155.292 41.0356 155.294 41.0234 155.293 41.0113C155.293 40.9947 155.29 40.9783 155.283 40.9633C155.276 40.9499 155.266 40.9384 155.254 40.9301C155.24 40.9204 155.224 40.9137 155.207 40.9105C155.187 40.9057 155.166 40.9035 155.144 40.9037H155.044C155.039 40.9033 155.033 40.9042 155.028 40.9062C155.023 40.9082 155.018 40.9113 155.014 40.9153C155.008 40.924 155.004 40.935 155.005 40.9461V41.2661C155.005 41.2689 155.006 41.2717 155.007 41.2741C155.009 41.2765 155.011 41.2783 155.014 41.2793M155.144 40.8249C155.2 40.823 155.255 40.8378 155.303 40.8673C155.35 40.8969 155.387 40.9399 155.41 40.9909C155.433 41.0419 155.44 41.0985 155.43 41.1534C155.42 41.2083 155.394 41.2591 155.356 41.2992C155.317 41.3394 155.267 41.367 155.212 41.3786C155.158 41.3902 155.101 41.3852 155.049 41.3644C154.998 41.3435 154.953 41.3076 154.922 41.2614C154.891 41.2152 154.874 41.1607 154.874 41.1049C154.873 41.0687 154.88 41.0328 154.893 40.9991C154.906 40.9655 154.926 40.9348 154.951 40.9088C154.976 40.8827 155.006 40.8619 155.039 40.8476C155.073 40.8332 155.108 40.8255 155.144 40.8249ZM155.144 41.4525C155.213 41.4524 155.281 41.4319 155.338 41.3935C155.395 41.3551 155.44 41.3006 155.466 41.2369C155.493 41.1731 155.5 41.103 155.486 41.0354C155.473 40.9678 155.439 40.9056 155.391 40.8569C155.342 40.8082 155.28 40.775 155.212 40.7616C155.144 40.7481 155.074 40.7551 155.011 40.7815C154.947 40.8079 154.892 40.8526 154.854 40.9099C154.816 40.9673 154.795 41.0347 154.795 41.1037C154.795 41.1495 154.804 41.1949 154.822 41.2373C154.839 41.2796 154.865 41.3181 154.898 41.3505C154.93 41.3829 154.969 41.4085 155.011 41.426C155.053 41.4436 155.099 41.4525 155.144 41.4525ZM151.886 40.7553C151.861 40.8239 151.827 40.8891 151.785 40.9493C152.709 41.1533 153.689 41.5033 154.392 42.0101C154.397 42.0137 154.402 42.0193 154.404 42.0258C154.405 42.0324 154.405 42.0394 154.402 42.0455C154.399 42.0516 154.393 42.0563 154.387 42.0587C154.381 42.0611 154.374 42.061 154.367 42.0585C153.176 41.4393 151.617 41.1257 150.007 41.1257C146.609 41.1257 143.854 42.4913 143.854 44.1761C143.854 45.8961 146.609 47.2901 150.007 47.2901C153.414 47.2901 156.175 45.8641 156.175 44.1053C156.175 42.5365 154.375 41.2081 151.885 40.7553" fill="#40B93C"/>
<path d="M153.32 46.4107C153.358 46.4031 153.37 46.4395 153.336 46.4535C152.462 46.8075 151.252 47.0079 150.008 47.0079C146.982 47.0079 144.528 45.7403 144.528 44.1763C144.528 42.6123 146.98 41.3447 150.008 41.3447C153.416 41.3447 155.503 42.8167 155.492 44.1047C155.482 45.2407 153.975 46.3147 150.926 46.3147C149.656 46.3147 148.046 46.0775 146.757 45.5607C146.699 45.5375 146.672 45.6203 146.724 45.6475C148.135 46.4007 150.69 46.9275 153.32 46.4103" fill="#0B4919"/>
<path d="M150.008 47.0079C146.983 47.0079 144.528 45.7403 144.528 44.1763C144.528 42.6123 146.981 41.3447 150.008 41.3447C153.404 41.3447 155.488 42.8051 155.493 44.0899V44.1051C155.483 45.2411 153.976 46.3151 150.927 46.3151C149.657 46.3151 148.047 46.0779 146.758 45.5611C146.751 45.5586 146.745 45.5572 146.738 45.5571C146.732 45.5575 146.727 45.5589 146.722 45.5614C146.717 45.5639 146.712 45.5674 146.708 45.5716C146.705 45.5759 146.702 45.5808 146.7 45.5861C146.698 45.5915 146.698 45.5971 146.698 45.6027C146.698 45.6121 146.7 45.6213 146.705 45.6293C146.71 45.6373 146.717 45.6437 146.726 45.6479C147.744 46.1919 149.36 46.6167 151.17 46.6167C151.892 46.6175 152.612 46.5485 153.32 46.4107C153.323 46.4103 153.326 46.4103 153.33 46.4107C153.346 46.4107 153.356 46.4203 153.356 46.4311C153.355 46.4365 153.353 46.4416 153.349 46.4457C153.345 46.4498 153.341 46.4528 153.336 46.4543C152.462 46.8083 151.252 47.0087 150.008 47.0087M150.014 41.4319H150.006C149.492 41.431 148.979 41.469 148.47 41.5455C147.414 41.7055 146.514 42.0295 145.902 42.4511C145.708 42.5808 145.533 42.7365 145.382 42.9139C145.252 43.0651 145.154 43.2413 145.094 43.4315C145.037 43.6201 145.031 43.8202 145.076 44.0119C145.129 44.2202 145.229 44.4137 145.367 44.5783C145.514 44.7688 145.687 44.9366 145.883 45.0763C146.494 45.4979 147.415 45.8163 148.471 45.9767C148.98 46.0479 149.493 46.0811 150.007 46.0759C150.576 46.0759 151.018 46.0551 151.541 45.9767C152.722 45.7991 153.562 45.4567 154.144 45.0687C154.359 44.9195 154.507 44.7459 154.646 44.5755C154.784 44.4109 154.883 44.217 154.936 44.0083C154.982 43.8169 154.976 43.6166 154.92 43.4279C154.86 43.238 154.762 43.062 154.633 42.9107C154.481 42.7338 154.306 42.5783 154.113 42.4483C153.52 42.0399 152.564 41.6935 151.544 41.5447C151.038 41.4677 150.527 41.4297 150.015 41.4311" fill="#0A4919"/>
<path d="M149.98 46.24C152.797 46.24 155.08 45.067 155.08 43.62C155.08 42.173 152.797 41 149.98 41C147.163 41 144.88 42.173 144.88 43.62C144.88 45.067 147.163 46.24 149.98 46.24Z" fill="url(#paint0_radial_291_3799)"/>
<path d="M153.404 43.5999C153.345 44.2195 153.1 44.8399 152.714 44.8399C152.557 44.8399 152.443 44.7151 152.443 44.5083C152.443 43.9731 152.867 43.4239 153.404 43.5999ZM153.988 43.5499C154.024 43.3599 153.971 43.2779 153.8 43.2299C152.68 42.9139 151.828 43.6299 151.828 44.6003C151.828 44.9699 152.013 45.3175 152.416 45.3175C152.736 45.3175 153.03 45.0947 153.236 44.8447C153.23 44.9367 153.234 45.029 153.246 45.1203C153.28 45.2939 153.457 45.3827 153.859 45.2523C153.798 45.0039 153.828 44.4051 153.988 43.5479V43.5499ZM151.432 43.9807C151.628 42.9639 151.682 42.4071 151.682 42.2303C151.682 42.1815 151.659 42.1047 151.502 42.1047C151.337 42.101 151.174 42.1406 151.03 42.2195C151.046 42.2791 151.098 42.7087 150.722 44.4807C150.562 45.2339 150.706 45.4007 151.339 45.2907C151.28 45.1035 151.28 44.7599 151.432 43.9787V43.9807ZM150.38 43.1451C150.118 43.1451 149.78 43.3959 149.578 43.8175C149.604 43.6271 149.618 43.3991 149.596 43.2699C149.589 43.2279 149.564 43.1935 149.438 43.1991C149.286 43.2109 149.138 43.2535 149.004 43.3243C149.004 43.3243 149.096 43.5779 148.893 44.8611C148.831 45.2491 149.096 45.3623 149.54 45.2907C149.366 45.0403 149.683 43.4875 150.406 43.8079C150.69 43.3623 150.612 43.1431 150.38 43.1431V43.1451ZM146.822 44.1163C147.015 43.7471 147.293 43.3335 147.439 43.0271C147.466 43.2987 147.582 44.0511 147.582 44.0511C147.327 44.0445 147.072 44.0657 146.822 44.1143V44.1163ZM148.593 45.2763C148.364 44.8731 148.125 43.8187 147.893 42.4627C147.876 42.3631 147.857 42.3311 147.773 42.3323C147.658 42.3323 147.36 42.3651 147.24 42.4087C147.154 42.6287 147.031 42.8391 146.625 43.4543C145.597 45.0143 145.549 45.4307 146.449 45.2907C146.427 45.1491 146.437 44.9403 146.605 44.6195C146.605 44.6195 146.821 44.4995 147.658 44.4903C147.812 45.3463 147.938 45.3543 148.593 45.2763" fill="white"/>
<path d="M147.68 40.465C147.362 40.6834 147.384 41.3098 147.746 41.7518C148.108 42.1938 148.677 42.2618 149.045 42.0642C148.973 42.4762 149.197 42.9074 150.041 42.6342C150.892 42.359 150.936 41.7882 150.765 41.3698C151.242 41.4046 151.745 41.2054 151.904 40.7102C152.02 40.3478 151.947 39.9006 151.567 39.6702C151.586 39.1502 150.942 38.6998 150.309 38.7122C149.983 38.7186 149.778 38.9254 149.766 39.1922C149.346 38.7282 148.778 38.717 148.229 39.1878C147.7 39.6414 147.604 40.275 147.881 40.539C147.812 40.5208 147.745 40.4955 147.681 40.4634" fill="white"/>
<mask id="mask0_291_3799" style="mask-type:luminance" maskUnits="userSpaceOnUse" x="147" y="38" width="5" height="5">
<path d="M148.054 41.7903C148.945 42.4343 149.601 41.2331 149.497 41.1079C149.264 40.8279 149.424 40.3819 149.917 40.4519C150.176 40.4887 149.842 39.0399 149.044 39.0399C148.304 39.0399 147.229 40.3719 148.54 40.8079C148.274 40.8163 147.925 40.7915 147.724 40.7015C147.549 40.8799 147.649 41.4935 148.054 41.7903ZM151.566 39.8983C151.474 40.0135 151.297 40.1739 151.159 40.2051C151.808 39.4283 150.884 38.8955 150.316 38.9135C150.151 38.9187 150.005 38.9831 149.972 39.1487C149.886 39.5743 150.262 40.0639 150.132 40.6975C150.045 41.1283 151.478 41.5459 151.741 40.5919C151.789 40.4259 151.774 40.0679 151.566 39.8983ZM149.962 41.0131C150.383 40.9331 151.224 42.0591 149.982 42.4595C148.498 42.9379 149.593 41.0823 149.962 41.0131Z" fill="white"/>
</mask>
<g mask="url(#mask0_291_3799)">
<path d="M148.054 41.7903C148.945 42.4343 149.601 41.2331 149.497 41.1079C149.264 40.8279 149.424 40.3819 149.917 40.4519C150.176 40.4887 149.842 39.0399 149.044 39.0399C148.304 39.0399 147.229 40.3719 148.54 40.8079C148.274 40.8163 147.925 40.7915 147.724 40.7015C147.549 40.8799 147.649 41.4935 148.054 41.7903ZM151.566 39.8983C151.474 40.0135 151.297 40.1739 151.159 40.2051C151.808 39.4283 150.884 38.8955 150.316 38.9135C150.151 38.9187 150.005 38.9831 149.972 39.1487C149.886 39.5743 150.262 40.0639 150.132 40.6975C150.045 41.1283 151.478 41.5459 151.741 40.5919C151.789 40.4259 151.774 40.0679 151.566 39.8983ZM149.962 41.0131C150.383 40.9331 151.224 42.0591 149.982 42.4595C148.498 42.9395 149.593 41.0823 149.962 41.0131Z" fill="url(#paint1_radial_291_3799)"/>
</g>
<defs>
<radialGradient id="paint0_radial_291_3799" cx="0" cy="0" r="1" gradientUnits="userSpaceOnUse" gradientTransform="translate(150.064 43.5543) scale(4.9598 1.99415)">
<stop stop-color="#40B93C"/>
<stop offset="0.17" stop-color="#40B93C" stop-opacity="0.98"/>
<stop offset="0.32" stop-color="#41B93D" stop-opacity="0.93"/>
<stop offset="0.46" stop-color="#41BA3D" stop-opacity="0.83"/>
<stop offset="0.59" stop-color="#42BA3E" stop-opacity="0.7"/>
<stop offset="0.72" stop-color="#43BA3F" stop-opacity="0.52"/>
<stop offset="0.85" stop-color="#45BB41" stop-opacity="0.31"/>
<stop offset="0.97" stop-color="#47BC43" stop-opacity="0.07"/>
<stop offset="1" stop-color="#47BC43" stop-opacity="0"/>
</radialGradient>
<radialGradient id="paint1_radial_291_3799" cx="0" cy="0" r="1" gradientUnits="userSpaceOnUse" gradientTransform="translate(148.786 41.8162) rotate(-7.18911) scale(3.15053 3.15053)">
<stop stop-color="#FDE17B"/>
<stop offset="0.3" stop-color="#FCD205"/>
<stop offset="1" stop-color="#F89C0E"/>
</radialGradient>
</defs>
</svg>
