<svg width="300" height="100" viewBox="0 0 300 100" fill="none" xmlns="http://www.w3.org/2000/svg">
<rect width="300" height="100" fill="white"/>
<path d="M113.981 35.6126V54.3408H109.646V52.6011C108.629 53.8864 107.211 54.607 105.471 54.607C101.833 54.607 99.5039 51.5568 99.5039 47.5174C99.5039 43.478 101.831 40.453 105.471 40.453C107.211 40.453 108.629 41.176 109.646 42.4337V35.6104H113.981V35.6126ZM109.646 49.4177V45.6193C109.003 44.7357 108.095 44.0404 106.89 44.0404C105.017 44.0404 103.759 45.5115 103.759 47.5174C103.759 49.5233 105.044 51.022 106.917 51.022C108.122 51.022 109.003 50.2991 109.646 49.4177Z" fill="#B11A83"/>
<path d="M129.554 48.6384H120.215C120.589 50.6719 121.847 51.4476 124.254 51.4476C125.299 51.4476 126.448 51.2342 128.748 50.4034V53.8276C126.501 54.4955 124.762 54.5759 123.825 54.5759C118.93 54.5759 116.065 51.8745 116.065 47.2453C116.065 43.0177 119.168 40.4219 123.022 40.4219C126.875 40.4219 129.552 42.857 129.552 47.1902V48.6338L129.554 48.6384ZM120.19 46.0426H125.781C125.512 44.3029 124.631 43.3138 123.052 43.3138C121.473 43.3138 120.509 44.2777 120.19 46.0426Z" fill="#B11A83"/>
<path d="M143.866 45.8866V54.3417H139.531V52.843C138.622 53.9676 137.337 54.608 135.758 54.608C132.976 54.608 130.942 52.6549 130.942 50.1394C130.942 47.624 132.976 45.6983 135.838 45.6983C137.309 45.6983 138.567 46.1 139.531 47.1695V46.0724C139.531 44.654 138.727 43.6097 136.694 43.6097C136.079 43.6097 134.608 43.6901 132.439 44.9753V41.177C134.979 40.4287 137.041 40.4287 137.816 40.4287C141.482 40.4287 143.864 42.4095 143.864 45.8866H143.866ZM139.531 50.7292V49.5518C138.727 48.5879 138.007 48.2941 137.203 48.2941C136.026 48.2941 135.142 49.1227 135.142 50.1669C135.142 51.2112 135.998 51.9594 137.203 51.9594C137.979 51.9594 138.73 51.6656 139.531 50.7292Z" fill="#B11A83"/>
<path d="M146.462 35.6104H150.798V54.3385H146.462V35.6104Z" fill="#B11A83"/>
<path d="M167.329 35.6126V54.3408H162.994V52.6011C161.977 53.8864 160.559 54.607 158.819 54.607C155.179 54.607 152.852 51.5568 152.852 47.5174C152.852 43.478 155.179 40.453 158.819 40.453C160.559 40.453 161.977 41.176 162.994 42.4337V35.6104H167.329V35.6126ZM162.994 49.4177V45.6193C162.351 44.7357 161.442 44.0404 160.237 44.0404C158.364 44.0404 157.107 45.5115 157.107 47.5174C157.107 49.5233 158.392 51.022 160.265 51.022C161.47 51.022 162.351 50.2991 162.994 49.4177Z" fill="#B11A83"/>
<path d="M182.179 45.8866V54.3417H177.844V52.843C176.935 53.9676 175.65 54.608 174.071 54.608C171.289 54.608 169.255 52.6549 169.255 50.1394C169.255 47.624 171.289 45.6983 174.151 45.6983C175.622 45.6983 176.88 46.1 177.844 47.1695V46.0724C177.844 44.654 177.04 43.6097 175.007 43.6097C174.392 43.6097 172.921 43.6901 170.752 44.9753V41.177C173.292 40.4287 175.354 40.4287 176.129 40.4287C179.795 40.4287 182.177 42.4095 182.177 45.8866H182.179ZM177.844 50.7292V49.5518C177.04 48.5879 176.32 48.2941 175.516 48.2941C174.339 48.2941 173.455 49.1227 173.455 50.1669C173.455 51.2112 174.312 51.9594 175.516 51.9594C176.292 51.9594 177.043 51.6656 177.844 50.7292Z" fill="#B11A83"/>
<path d="M198.178 40.6928L191.034 58.8058H185.789L188.839 53.3732L183.221 40.6904H187.955L190.873 49.2512L193.388 40.6904H198.178V40.6928Z" fill="#B11A83"/>
<path d="M134.472 64.4047C134.006 64.4047 133.611 64.1752 133.441 63.8172V64.3267H132.98V60.3125H133.441V62.0614C133.611 61.7057 134.006 61.4739 134.472 61.4739C135.229 61.4739 135.787 62.0821 135.787 62.9382C135.787 63.7943 135.227 64.4025 134.472 64.4025V64.4047ZM135.041 62.1945C134.871 62.0017 134.642 61.903 134.362 61.903C134.082 61.903 133.852 62.0017 133.675 62.1945C133.506 62.3873 133.418 62.6398 133.418 62.9404C133.418 63.2411 133.506 63.4935 133.675 63.6864C133.85 63.8791 134.082 63.9778 134.362 63.9778C134.642 63.9778 134.871 63.8791 135.041 63.6864C135.215 63.4935 135.305 63.2411 135.305 62.9404C135.305 62.6398 135.218 62.3873 135.041 62.1945Z" fill="#532F8C"/>
<path d="M138.821 61.5557V64.0619C138.821 65.0006 138.323 65.5032 137.467 65.5032C137.001 65.5032 136.574 65.3494 136.315 65.0855L136.583 64.7573C136.808 64.9593 137.127 65.0763 137.456 65.0763C138.032 65.0763 138.36 64.7367 138.36 64.0619V63.7819C138.202 64.1331 137.839 64.3305 137.384 64.3305C136.765 64.3305 136.398 63.9518 136.398 63.2563V61.5557H136.859V63.1462C136.859 63.6718 137.061 63.9036 137.495 63.9036C138 63.9036 138.362 63.5914 138.362 63.1301V61.5557H138.824H138.821Z" fill="#532F8C"/>
<path d="M140.843 59.764L142.044 59.5713V60.8198H143.485V61.8182H142.044V63.3077C142.044 63.5601 142.087 63.7622 142.177 63.9113C142.266 64.0605 142.443 64.1362 142.712 64.1362C142.84 64.1362 142.973 64.1248 143.111 64.0995C143.249 64.0743 143.373 64.0422 143.485 63.9985L143.655 64.9327C143.51 64.9923 143.35 65.0428 143.173 65.0865C142.996 65.13 142.778 65.1506 142.521 65.1506C142.193 65.1506 141.922 65.1071 141.709 65.0175C141.493 64.928 141.323 64.8065 141.194 64.648C141.066 64.4897 140.976 64.2969 140.926 64.0719C140.875 63.847 140.85 63.5969 140.85 63.3238V59.7664L140.843 59.764Z" fill="#532F8C"/>
<path d="M144.295 65.0535V59.0013L145.495 58.8086V60.8374C145.576 60.8099 145.679 60.7847 145.805 60.7617C145.931 60.7364 146.053 60.725 146.172 60.725C146.517 60.725 146.801 60.7709 147.031 60.865C147.258 60.9591 147.442 61.0922 147.577 61.2643C147.715 61.4365 147.811 61.6407 147.866 61.8772C147.923 62.1135 147.951 62.3752 147.951 62.6666V65.0582H146.751V62.8135C146.751 62.4279 146.7 62.1525 146.602 61.9919C146.503 61.8312 146.319 61.7509 146.051 61.7509C145.943 61.7509 145.842 61.76 145.748 61.7785C145.654 61.7968 145.569 61.8174 145.495 61.8381V65.0582H144.295V65.0535Z" fill="#532F8C"/>
<path d="M150.398 60.7097C150.751 60.7097 151.047 60.751 151.284 60.8313C151.52 60.9117 151.708 61.0264 151.851 61.1779C151.993 61.327 152.094 61.5107 152.154 61.7241C152.213 61.9399 152.243 62.1786 152.243 62.4402V64.935C152.071 64.9717 151.832 65.0176 151.527 65.0681C151.222 65.1186 150.85 65.1439 150.416 65.1439C150.143 65.1439 149.895 65.1186 149.673 65.0704C149.45 65.0222 149.257 64.9419 149.097 64.834C148.936 64.7239 148.812 64.5815 148.727 64.4025C148.642 64.2258 148.599 64.0078 148.599 63.7508C148.599 63.4936 148.649 63.294 148.748 63.1218C148.846 62.9497 148.98 62.8143 149.147 62.711C149.312 62.61 149.503 62.5343 149.719 62.4907C149.932 62.4448 150.157 62.4218 150.386 62.4218C150.543 62.4218 150.68 62.4287 150.802 62.4425C150.924 62.4562 151.02 62.4723 151.096 62.4953V62.3828C151.096 62.1786 151.034 62.0156 150.91 61.8917C150.786 61.7677 150.572 61.7057 150.265 61.7057C150.061 61.7057 149.859 61.7195 149.661 61.7494C149.462 61.7792 149.292 61.8205 149.147 61.8733L148.993 60.907C149.062 60.8864 149.149 60.8635 149.255 60.8382C149.361 60.813 149.473 60.7923 149.597 60.7739C149.721 60.7556 149.849 60.7395 149.987 60.7257C150.125 60.712 150.263 60.7051 150.403 60.7051L150.398 60.7097ZM150.494 64.2189C150.611 64.2189 150.724 64.2166 150.832 64.2097C150.94 64.2052 151.024 64.196 151.089 64.1845V63.2756C151.041 63.2641 150.967 63.2549 150.871 63.2435C150.774 63.2321 150.685 63.2274 150.604 63.2274C150.492 63.2274 150.386 63.2343 150.286 63.2481C150.187 63.2618 150.1 63.2871 150.024 63.3238C149.948 63.3605 149.891 63.4134 149.847 63.4776C149.804 63.5418 149.783 63.6222 149.783 63.7186C149.783 63.9068 149.845 64.0376 149.971 64.1087C150.097 64.1822 150.269 64.2166 150.49 64.2166L150.494 64.2189Z" fill="#532F8C"/>
<path d="M153.166 60.9676C153.37 60.908 153.631 60.8529 153.955 60.8024C154.276 60.7519 154.616 60.7266 154.97 60.7266C155.323 60.7266 155.628 60.7725 155.867 60.8667C156.106 60.9607 156.294 61.0938 156.434 61.266C156.574 61.4381 156.673 61.6424 156.732 61.8787C156.792 62.1151 156.822 62.3768 156.822 62.6682V65.0598H155.621V62.8152C155.621 62.4296 155.571 62.1542 155.468 61.9935C155.367 61.8329 155.176 61.7525 154.896 61.7525C154.811 61.7525 154.719 61.7571 154.623 61.7641C154.527 61.7709 154.439 61.7824 154.366 61.7916V65.0598H153.166V60.9699V60.9676Z" fill="#532F8C"/>
<path d="M158.944 62.3361C159.061 62.2076 159.185 62.0745 159.309 61.9368C159.436 61.7991 159.557 61.6613 159.674 61.5237C159.791 61.386 159.904 61.2574 160.007 61.1358C160.113 61.0142 160.202 60.9063 160.276 60.8168H161.701C161.416 61.1426 161.139 61.4548 160.868 61.7532C160.597 62.0492 160.301 62.3568 159.977 62.6735C160.138 62.8181 160.305 62.9925 160.475 63.1945C160.647 63.3965 160.813 63.6053 160.973 63.8187C161.134 64.0345 161.281 64.2479 161.416 64.4638C161.549 64.6795 161.664 64.8745 161.754 65.0513H160.374C160.289 64.9113 160.191 64.7575 160.081 64.5877C159.97 64.4178 159.853 64.2479 159.732 64.0804C159.608 63.9105 159.479 63.7477 159.341 63.5916C159.204 63.4355 159.071 63.3047 158.935 63.1968V65.0535H157.735V59.0013L158.935 58.8086V62.3407L158.944 62.3361Z" fill="#532F8C"/>
<path d="M166.544 62.936C166.544 62.6307 166.594 62.3415 166.693 62.0707C166.792 61.7999 166.936 61.5635 167.125 61.3615C167.313 61.1595 167.54 61.0012 167.809 60.8818C168.077 60.7648 168.382 60.7051 168.727 60.7051C168.951 60.7051 169.158 60.7257 169.346 60.7648C169.534 60.8061 169.716 60.8635 169.892 60.9369L169.642 61.8939C169.53 61.8504 169.406 61.8136 169.273 61.7815C169.14 61.7494 168.988 61.7333 168.823 61.7333C168.47 61.7333 168.203 61.8435 168.031 62.0638C167.857 62.2841 167.77 62.5733 167.77 62.9336C167.77 63.3147 167.852 63.6108 168.015 63.8196C168.178 64.0284 168.465 64.134 168.873 64.134C169.018 64.134 169.174 64.1202 169.339 64.0927C169.505 64.0652 169.658 64.0239 169.798 63.9641L169.968 64.9465C169.828 65.0061 169.654 65.0566 169.445 65.1002C169.236 65.1439 169.004 65.1645 168.752 65.1645C168.366 65.1645 168.033 65.1071 167.753 64.9923C167.473 64.8776 167.244 64.7192 167.065 64.5218C166.886 64.3245 166.753 64.0881 166.67 63.8173C166.587 63.5465 166.546 63.2527 166.546 62.936H166.544Z" fill="#532F8C"/>
<path d="M171.928 60.7097C172.281 60.7097 172.577 60.751 172.814 60.8313C173.05 60.9117 173.238 61.0264 173.381 61.1779C173.523 61.327 173.624 61.5107 173.683 61.7241C173.743 61.9399 173.773 62.1786 173.773 62.4402V64.935C173.601 64.9717 173.362 65.0176 173.057 65.0681C172.752 65.1186 172.38 65.1439 171.946 65.1439C171.673 65.1439 171.425 65.1186 171.203 65.0704C170.98 65.0222 170.787 64.9419 170.626 64.834C170.466 64.7239 170.342 64.5815 170.257 64.4025C170.172 64.2258 170.128 64.0078 170.128 63.7508C170.128 63.4936 170.179 63.294 170.278 63.1218C170.376 62.9497 170.509 62.8143 170.677 62.711C170.842 62.61 171.033 62.5343 171.248 62.4907C171.462 62.4448 171.687 62.4218 171.916 62.4218C172.072 62.4218 172.21 62.4287 172.332 62.4425C172.453 62.4562 172.55 62.4723 172.625 62.4953V62.3828C172.625 62.1786 172.563 62.0156 172.44 61.8917C172.316 61.7677 172.102 61.7057 171.795 61.7057C171.59 61.7057 171.388 61.7195 171.191 61.7494C170.991 61.7792 170.822 61.8205 170.677 61.8733L170.523 60.907C170.592 60.8864 170.679 60.8635 170.785 60.8382C170.89 60.813 171.003 60.7923 171.127 60.7739C171.251 60.7556 171.379 60.7395 171.517 60.7257C171.655 60.712 171.792 60.7051 171.932 60.7051L171.928 60.7097ZM172.024 64.2189C172.141 64.2189 172.254 64.2166 172.362 64.2097C172.469 64.2052 172.554 64.196 172.619 64.1845V63.2756C172.57 63.2641 172.497 63.2549 172.401 63.2435C172.304 63.2321 172.215 63.2274 172.134 63.2274C172.022 63.2274 171.916 63.2343 171.815 63.2481C171.717 63.2618 171.629 63.2871 171.554 63.3238C171.478 63.3605 171.421 63.4134 171.377 63.4776C171.333 63.5418 171.313 63.6222 171.313 63.7186C171.313 63.9068 171.375 64.0376 171.501 64.1087C171.627 64.1822 171.799 64.2166 172.02 64.2166L172.024 64.2189Z" fill="#532F8C"/>
<path d="M175.913 64.1891C176.133 64.1891 176.289 64.1684 176.379 64.1248C176.47 64.0812 176.516 63.9986 176.516 63.8747C176.516 63.7783 176.457 63.6934 176.34 63.6222C176.222 63.5487 176.041 63.4684 175.8 63.3766C175.612 63.3078 175.442 63.2343 175.288 63.1586C175.135 63.0828 175.006 62.9933 174.898 62.89C174.79 62.7844 174.708 62.6605 174.648 62.516C174.588 62.3713 174.558 62.1969 174.558 61.9926C174.558 61.5956 174.705 61.2812 175.001 61.0517C175.298 60.8199 175.701 60.7051 176.218 60.7051C176.475 60.7051 176.723 60.7281 176.959 60.7739C177.196 60.8199 177.384 60.8703 177.524 60.9231L177.315 61.8573C177.175 61.809 177.024 61.7654 176.861 61.7287C176.698 61.692 176.514 61.6713 176.31 61.6713C175.933 61.6713 175.745 61.7769 175.745 61.9857C175.745 62.0339 175.754 62.0775 175.77 62.1143C175.786 62.151 175.819 62.1878 175.867 62.2222C175.915 62.2566 175.981 62.2956 176.064 62.3347C176.147 62.376 176.252 62.4195 176.383 62.4678C176.647 62.5641 176.863 62.6605 177.035 62.7569C177.207 62.851 177.342 62.9543 177.441 63.0644C177.54 63.1747 177.611 63.2962 177.65 63.4294C177.691 63.5625 177.71 63.7186 177.71 63.8953C177.71 64.313 177.554 64.6297 177.239 64.8432C176.925 65.0566 176.482 65.1645 175.908 65.1645C175.532 65.1645 175.22 65.1323 174.969 65.0681C174.719 65.0039 174.547 64.951 174.451 64.9074L174.653 63.9343C174.857 64.0147 175.066 64.0789 175.281 64.1225C175.495 64.1684 175.708 64.1914 175.917 64.1914L175.913 64.1891Z" fill="#532F8C"/>
<path d="M178.439 65.0535V59.0013L179.64 58.8086V60.8374C179.72 60.8099 179.823 60.7847 179.95 60.7617C180.076 60.7364 180.197 60.725 180.317 60.725C180.661 60.725 180.946 60.7709 181.175 60.865C181.402 60.9591 181.586 61.0922 181.721 61.2643C181.859 61.4365 181.956 61.6407 182.011 61.8772C182.068 62.1135 182.096 62.3752 182.096 62.6666V65.0582H180.895V62.8135C180.895 62.4279 180.845 62.1525 180.746 61.9919C180.647 61.8312 180.464 61.7509 180.195 61.7509C180.087 61.7509 179.986 61.76 179.892 61.7785C179.798 61.7968 179.713 61.8174 179.64 61.8381V65.0582H178.439V65.0535Z" fill="#532F8C"/>
<path d="M165.98 63.4176C165.98 64.315 165.351 65.0655 164.508 65.2514C164.378 65.2812 164.24 65.2973 164.1 65.2973C163.96 65.2973 163.822 65.2812 163.691 65.2537C162.851 65.0677 162.22 64.3173 162.22 63.4199C162.22 62.4536 162.386 61.5241 162.691 60.6611L163.845 61.0032C163.786 61.1936 163.735 61.3887 163.691 61.5861C163.558 62.1759 163.487 62.791 163.487 63.4199C163.487 63.7572 163.76 64.0304 164.098 64.0304C164.435 64.0304 164.71 63.7572 164.71 63.4199C164.71 62.7888 164.639 62.1759 164.506 61.5861C164.463 61.3887 164.41 61.1936 164.352 61.0032L165.507 60.6611C165.812 61.5241 165.977 62.4514 165.977 63.4199L165.98 63.4176Z" fill="#B11A83"/>
<path d="M165.094 58.3105C164.887 58.0397 164.573 57.8561 164.215 57.824C164.178 57.8217 164.139 57.8193 164.1 57.8193C164.061 57.8193 164.025 57.8194 163.988 57.824C163.63 57.8561 163.315 58.0397 163.109 58.3105C162.948 58.5194 162.854 58.781 162.854 59.0657C162.854 59.2859 162.911 59.4948 163.012 59.6761C163.212 60.0319 163.582 60.282 164.011 60.3119C164.041 60.3119 164.07 60.3141 164.1 60.3141C164.13 60.3141 164.16 60.3141 164.19 60.3119C164.619 60.282 164.988 60.0319 165.188 59.6761C165.289 59.4971 165.346 59.2883 165.346 59.0657C165.346 58.781 165.252 58.5194 165.092 58.3105H165.094ZM164.399 59.4351C164.318 59.5017 164.215 59.5384 164.103 59.5384C163.99 59.5384 163.887 59.4994 163.806 59.4351C163.71 59.3571 163.646 59.2423 163.632 59.1138C163.632 59.0978 163.632 59.084 163.632 59.0679C163.632 58.8063 163.843 58.5951 164.105 58.5951C164.366 58.5951 164.578 58.8063 164.578 59.0679C164.578 59.084 164.578 59.1001 164.578 59.1138C164.564 59.2423 164.5 59.3571 164.403 59.4351H164.399Z" fill="#B11A83"/>
</svg>
