<svg width="300" height="100" viewBox="0 0 300 100" fill="none" xmlns="http://www.w3.org/2000/svg">
<rect width="300" height="100" fill="white"/>
<g clip-path="url(#clip0_298_12515)">
<path d="M66 33.9482V62.2361H74.3255C83.4079 62.2361 89.2421 56.9381 89.2421 48.108C89.2421 39.2463 83.4079 33.9482 74.3255 33.9482H66ZM74.3255 39.9401C78.9613 39.9401 82.0519 42.6837 82.0519 48.108C82.0519 53.5006 78.9613 56.2758 74.3255 56.2758H72.9064V39.9401H74.3255ZM110.529 53.406C110.561 52.9014 110.561 52.4599 110.561 52.05C110.561 44.8282 106.902 40.5078 100.154 40.5078C93.9094 40.5078 89.7151 45.4589 89.7151 51.7031C89.7151 57.9472 94.0041 62.7722 101.005 62.7722C106.492 62.7722 109.394 59.3348 110.024 58.0734L105.578 54.6359C105.168 55.2666 103.654 56.9065 101.131 56.9065C98.6083 56.9065 96.7792 55.2982 96.6216 53.406H110.529ZM100.28 45.9635C102.361 45.9635 103.623 47.4142 103.717 49.1171H96.8423C97 47.6034 98.0407 45.9635 100.28 45.9635ZM122.639 56.8435C119.548 56.8435 117.435 54.7305 117.435 51.6085C117.435 48.8017 119.201 46.5627 122.418 46.5627C123.995 46.5627 125.477 47.1619 126.644 48.1395L128.473 42.4315C126.991 41.3908 124.909 40.5078 122.166 40.5078C115.606 40.5078 110.687 45.1436 110.687 51.6715C110.687 58.168 115.449 62.7722 122.197 62.7722C124.878 62.7722 127.022 61.8577 128.441 60.8801L126.644 55.3297C125.729 56.1181 124.216 56.8435 122.639 56.8435ZM128.505 55.6451C128.505 60.2809 132.226 62.7722 136.389 62.7722C138.565 62.7722 140.11 62.173 141.182 61.0693L141.56 62.2361H147.584V49.1171C147.584 44.2605 145.723 40.5078 138.407 40.5078C134.875 40.5078 132.005 41.6431 129.766 43.1252L132.257 47.6664C133.929 46.8465 135.726 46.3104 137.587 46.3104C139.794 46.3104 140.835 47.3195 140.835 48.6125V49.4009C140.078 49.054 138.596 48.6125 136.735 48.6125C131.721 48.6125 128.505 51.4192 128.505 55.6451ZM135.253 55.4243C135.253 54.0367 136.452 53.1537 138.092 53.1537C139.7 53.1537 140.961 53.9737 140.961 55.4243C140.961 56.8435 139.731 57.6003 138.123 57.6003C136.546 57.6003 135.253 56.8435 135.253 55.4243ZM164.298 61.1639C164.298 63.7499 161.807 64.3175 159.284 64.3175C156.414 64.3175 154.049 63.3083 153.418 63.0245L151.463 68.1964C153.355 69.1741 156.288 69.994 159.284 69.994C165.591 69.994 171.047 67.5342 171.047 59.7132V41.0123H164.74V42.6837C164.14 41.9899 162.122 40.5078 159 40.5078C152.913 40.5078 148.625 45.112 148.625 51.6085C148.625 58.1995 152.504 62.7722 158.653 62.7722C161.87 62.7722 163.857 61.1639 164.298 60.6278V61.1639ZM164.519 51.5769C164.519 54.9197 162.595 56.8435 159.946 56.8435C157.202 56.8435 155.373 54.699 155.373 51.5769C155.373 48.4233 157.202 46.4365 159.915 46.4365C162.816 46.4365 164.519 48.7387 164.519 51.5769ZM226.834 62.2361H233.583V50.4732C233.583 46.1527 232.952 40.5078 226.298 40.5078C223.649 40.5078 221.788 41.9584 220.968 43.2199V41.0123H214.377V62.2361H221.126V49.5901C221.126 47.8872 222.198 46.5627 224.059 46.5627C225.667 46.5627 226.834 47.6034 226.834 49.5901V62.2361Z" fill="#2D2F48"/>
<path fill-rule="evenodd" clip-rule="evenodd" d="M187.256 39.4352C188.171 39.4352 189.085 39.5298 190 39.719L188.896 42.7464C188.391 42.6834 187.855 42.6518 187.319 42.6518C185.963 42.6518 184.67 42.8726 183.44 43.3141L182.936 40.0974C184.292 39.6559 185.742 39.4352 187.256 39.4352ZM185.553 59.5552C185.08 58.7352 184.702 57.8838 184.418 57.0323L187.603 56.4646C187.792 56.9377 188.013 57.4107 188.297 57.8522C188.959 59.0506 189.811 60.0598 190.788 60.8797L188.297 62.9295C187.225 61.9835 186.31 60.8482 185.553 59.5552ZM211.507 54.2256C211.413 54.9194 211.287 55.5816 211.129 56.2439L209.741 55.6447C209.899 55.0771 210.057 54.5094 210.151 53.9418L211.507 54.2256ZM209.615 59.7444C209.205 60.4697 208.701 61.132 208.133 61.7627L206.809 60.3436C207.313 59.8705 207.755 59.3344 208.165 58.7668L209.615 59.7444ZM205.705 63.9387C205.358 64.191 205.011 64.4433 204.633 64.664C203.97 65.0425 203.276 65.3578 202.583 65.6101L201.952 63.2449C202.772 62.9926 203.623 62.6457 204.412 62.1727C204.538 62.1096 204.633 62.0465 204.759 61.9835L205.705 63.9387ZM200.06 66.3039C198.609 66.5562 197.127 66.5877 195.676 66.367L196.591 63.5918C197.758 63.8126 198.988 63.8126 200.217 63.6549L200.06 66.3039ZM194.099 66.0516L195.298 63.308C193.942 62.9295 192.649 62.2988 191.514 61.4473L189.338 63.781C190.757 64.8532 192.397 65.6101 194.099 66.0516ZM178.868 64.5694C178.331 64.1595 177.795 63.7179 177.322 63.2134L178.521 62.3304C178.931 62.7719 179.341 63.1818 179.814 63.5603L178.868 64.5694ZM175.02 60.1859C174.642 59.4606 174.295 58.6722 174.011 57.8838L175.903 57.4423C176.092 58.1045 176.313 58.7668 176.597 59.3975L175.02 60.1859ZM173.349 54.6986C173.286 54.2571 173.286 53.8472 173.286 53.4056C173.286 52.6172 173.349 51.8919 173.475 51.135L175.84 51.7658C175.619 52.6172 175.525 53.5318 175.525 54.4463V54.8248L173.349 54.6986ZM174.137 48.6122C174.642 47.2246 175.367 45.9316 176.25 44.7963L178.205 46.9407C177.448 47.8868 176.818 48.9275 176.345 50.0944L174.137 48.6122ZM177.322 43.5664L179.088 45.9947C180.097 45.017 181.296 44.1971 182.589 43.6295L181.674 40.602C180.034 41.2958 178.552 42.3049 177.322 43.5664ZM203.813 50.9458C203.34 51.7658 202.803 52.5226 202.204 53.1849L200.123 50.7251C200.438 50.3151 200.722 49.8736 200.974 49.4321C201.668 48.2337 202.11 47.0038 202.362 45.7424L205.389 46.8777C205.074 48.2968 204.569 49.6528 203.813 50.9458ZM186.247 31.1412C186.878 30.8573 187.508 30.6366 188.171 30.4789L188.328 31.9611C187.761 32.0872 187.193 32.2449 186.657 32.4657L186.247 31.1412ZM191.955 30.0059C192.775 30.0059 193.626 30.1005 194.446 30.2581L193.879 32.1188C193.216 31.9296 192.523 31.835 191.829 31.7719L191.955 30.0059ZM197.537 31.2673C197.947 31.4565 198.325 31.6457 198.704 31.8665C199.366 32.2449 199.997 32.6864 200.564 33.1595L198.83 34.894C198.199 34.2948 197.474 33.7587 196.654 33.2856C196.559 33.2225 196.433 33.1595 196.339 33.0964L197.537 31.2673ZM202.425 34.9886C203.371 36.1239 204.128 37.4168 204.664 38.7414L201.826 39.3721C201.384 38.2368 200.785 37.1646 200.028 36.1869L202.425 34.9886ZM205.2 40.2866C205.642 41.9896 205.799 43.7871 205.579 45.5532L202.488 44.8278C202.646 43.4087 202.551 41.9896 202.204 40.6335L205.2 40.2866Z" fill="#B8D344"/>
<path fill-rule="evenodd" clip-rule="evenodd" d="M180.602 48.9907C181.075 48.2022 181.611 47.4454 182.21 46.7516L184.292 49.2114C183.976 49.6214 183.693 50.0629 183.409 50.5359C182.746 51.7028 182.273 52.9642 182.053 54.2256L179.025 53.0588C179.341 51.6712 179.845 50.2836 180.602 48.9907ZM198.861 40.4128C199.334 41.2328 199.681 42.0527 199.997 42.9357L196.812 43.5034C196.622 43.0303 196.37 42.5573 196.118 42.0842C195.424 40.9174 194.573 39.9083 193.595 39.0568L196.118 37.0385C197.158 37.9846 198.105 39.1199 198.861 40.4128ZM172.907 45.7109C172.97 45.0486 173.096 44.3864 173.286 43.7241L174.673 44.3233C174.484 44.8594 174.358 45.4271 174.263 46.0263L172.907 45.7109ZM174.799 40.1921C175.209 39.4983 175.714 38.8045 176.25 38.1738L177.575 39.5929C177.102 40.0975 176.628 40.6336 176.25 41.1697L174.799 40.1921ZM178.678 35.9978C179.025 35.7455 179.404 35.5247 179.782 35.304C180.444 34.9256 181.107 34.5787 181.8 34.3264L182.463 36.6916C181.611 36.9439 180.791 37.2908 179.971 37.7638C179.877 37.8269 179.751 37.8899 179.656 37.953L178.678 35.9978ZM184.355 33.6326C185.805 33.3803 187.288 33.3487 188.738 33.5695L187.824 36.3447C186.625 36.1555 185.396 36.1239 184.197 36.3131L184.355 33.6326ZM190.315 33.8849L189.117 36.6285C190.473 37.0069 191.734 37.6377 192.901 38.4891L195.077 36.1555C193.626 35.1148 192.018 34.3264 190.315 33.8849ZM197.158 60.5013C196.212 60.5013 195.298 60.4067 194.415 60.249L195.519 57.19C196.023 57.2531 196.559 57.3162 197.064 57.3162C198.451 57.3162 199.744 57.0639 200.974 56.6539L201.447 59.8391C200.091 60.2806 198.672 60.5013 197.158 60.5013ZM205.547 35.3986C206.083 35.8086 206.588 36.2501 207.061 36.7231L205.862 37.6377C205.484 37.1962 205.043 36.7862 204.601 36.4077L205.547 35.3986ZM209.363 39.7821C209.773 40.5074 210.12 41.2643 210.404 42.0527L208.511 42.4942C208.322 41.832 208.07 41.1697 207.786 40.539L209.363 39.7821ZM211.066 45.2694C211.097 45.6794 211.129 46.1209 211.129 46.5624C211.129 47.3192 211.066 48.0761 210.94 48.8014L208.575 48.1707C208.764 47.3192 208.89 46.4362 208.89 45.4901C208.89 45.364 208.89 45.2379 208.858 45.1117L211.066 45.2694ZM210.278 51.3559C209.773 52.7434 209.048 54.0364 208.165 55.1717L206.178 52.9957C206.966 52.0497 207.597 51.009 208.038 49.8737L210.278 51.3559ZM207.061 56.3701L205.295 53.9734C204.286 54.951 203.119 55.7394 201.794 56.307L202.74 59.366C204.38 58.6407 205.831 57.6315 207.061 56.3701ZM198.168 68.8269C197.537 69.0791 196.906 69.2999 196.244 69.4891L196.055 67.9754C196.622 67.8808 197.19 67.6916 197.758 67.5023L198.168 68.8269ZM192.46 69.9306C191.608 69.9306 190.788 69.836 189.968 69.6783L190.536 67.8177C191.198 68.0069 191.892 68.1331 192.554 68.1961L192.46 69.9306ZM186.846 68.6692C186.468 68.48 186.089 68.2907 185.711 68.07C185.049 67.6916 184.418 67.2501 183.85 66.777L185.553 65.0425C186.215 65.6417 186.941 66.2094 187.729 66.6509C187.855 66.7139 187.95 66.777 188.076 66.8401L186.846 68.6692ZM181.99 64.9479C181.012 63.8126 180.287 62.5512 179.719 61.1951L182.589 60.5644C182.999 61.6997 183.598 62.7719 184.386 63.7495L181.99 64.9479ZM179.214 59.6499C178.741 57.9469 178.615 56.1809 178.804 54.3833L181.895 55.1087C181.737 56.5278 181.863 57.9469 182.21 59.3345L179.214 59.6499Z" fill="#34A853"/>
</g>
<defs>
<clipPath id="clip0_298_12515">
<rect width="167.583" height="40" fill="white" transform="translate(66 30)"/>
</clipPath>
</defs>
</svg>
