<svg width="300" height="100" viewBox="0 0 300 100" fill="none" xmlns="http://www.w3.org/2000/svg">
<rect width="300" height="100" fill="white"/>
<g clip-path="url(#clip0_291_3299)">
<path d="M245.059 64.1178C245.059 60.9413 247.647 58.4707 250.706 58.4707C253.882 58.4707 256.353 61.0589 256.353 64.1178C256.353 67.1766 253.765 69.7648 250.706 69.7648C247.647 69.7648 245.059 67.2942 245.059 64.1178Z" fill="#86BC25"/>
<path d="M75.4118 48.9407C75.4118 55.529 73.7647 60.4701 70.2353 63.9995C66.7059 67.529 61.7647 69.2937 55.4118 69.2937H42.9412V30.1172H56.1176C62.3529 30.1172 67.0588 31.6466 70.3529 34.9407C73.7647 38.1172 75.4118 42.8231 75.4118 48.9407ZM64.5882 49.2937C64.5882 45.6466 63.8823 43.0584 62.4706 41.2937C61.1765 39.6466 58.9412 38.7054 56.1176 38.7054H53.2941V60.5878H55.647C58.8235 60.5878 61.0588 59.6466 62.5882 57.7642C63.8823 55.8819 64.5882 53.0584 64.5882 49.2937Z" fill="#444445"/>
<path d="M119.412 30H109.647V69.2941H119.412V30Z" fill="#444445"/>
<path d="M151.647 54.5881C151.647 59.294 150.471 63.0587 147.882 65.7646C145.294 68.4705 141.765 69.7646 137.294 69.7646C132.941 69.7646 129.529 68.4705 126.941 65.6469C124.353 62.8234 123.059 59.1764 123.059 54.5881C123.059 49.8822 124.235 46.1175 126.824 43.5293C129.412 40.8234 132.941 39.5293 137.412 39.5293C140.235 39.5293 142.706 40.1175 144.824 41.294C147.059 42.4705 148.588 44.2352 149.765 46.4705C151.176 48.9411 151.647 51.5293 151.647 54.5881ZM133.176 54.5881C133.176 57.1764 133.529 58.9411 134.118 60.2352C134.706 61.5293 135.765 62.1175 137.412 62.1175C139.059 62.1175 140 61.5293 140.706 60.2352C141.294 58.9411 141.647 56.9411 141.647 54.5881C141.647 51.9999 141.294 50.2352 140.706 48.9411C140.118 47.7646 139.059 47.0587 137.412 47.0587C136 47.0587 134.824 47.6469 134.118 48.9411C133.529 50.2352 133.176 51.9999 133.176 54.5881Z" fill="#444445"/>
<path d="M165.412 40H155.647V69.1765H165.412V40Z" fill="#444445"/>
<path d="M165.412 30H155.647V36.5882H165.412V30Z" fill="#444445"/>
<path d="M185.294 61.7645C186.588 61.7645 188.235 61.4115 190 60.8233V68.2351C188.706 68.8233 187.412 69.1762 186.235 69.4115C185.059 69.6468 183.647 69.7645 182 69.7645C178.706 69.7645 176.353 68.9409 174.824 67.1762C173.412 65.5292 172.588 62.9409 172.588 59.5292V47.5292H169.177V39.9998H172.588V32.7057L182.471 31.0586V40.2351H188.824V47.6468H182.471V58.9409C182.706 60.9409 183.529 61.7645 185.294 61.7645Z" fill="#444445"/>
<path d="M208.118 61.7645C209.412 61.7645 211.059 61.4115 212.824 60.8233V68.2351C211.529 68.8233 210.235 69.1762 209.059 69.4115C207.882 69.6468 206.471 69.7645 204.824 69.7645C201.529 69.7645 199.176 68.9409 197.647 67.1762C196.235 65.5292 195.412 62.9409 195.412 59.5292V47.5292H192V39.9998H195.412V32.588L205.294 31.0586V40.2351H211.647V47.6468H205.294V58.9409C205.412 60.9409 206.353 61.7645 208.118 61.7645Z" fill="#444445"/>
<path d="M239.177 42.9411C236.824 40.5881 233.529 39.5293 229.294 39.5293C224.824 39.5293 221.294 40.8234 218.824 43.5293C216.353 46.2352 215.177 49.9999 215.177 54.9411C215.177 59.6469 216.471 63.4117 219.059 65.9999C221.765 68.5881 225.412 69.8822 230.118 69.8822C232.471 69.8822 234.353 69.7646 236 69.4116C237.529 69.0587 239.294 68.5881 240.706 67.7646L239.294 61.1764C238.235 61.6469 237.059 61.9999 236.118 62.2352C234.706 62.5881 233.059 62.7058 231.412 62.7058C229.529 62.7058 228 62.2352 226.941 61.4117C225.882 60.4705 225.294 59.1764 225.294 57.5293H242.824V52.9411C242.706 48.5881 241.412 45.294 239.177 42.9411ZM225.294 51.0587C225.412 49.5293 225.882 48.2352 226.588 47.5293C227.294 46.8234 228.235 46.4705 229.529 46.4705C230.706 46.4705 231.882 46.8234 232.588 47.6469C233.294 48.4705 233.647 49.5293 233.765 51.0587H225.294Z" fill="#444445"/>
<path d="M102.353 42.9411C99.8824 40.5881 96.706 39.5293 92.4707 39.5293C88.0001 39.5293 84.4707 40.8234 82.0001 43.5293C79.5295 46.2352 78.353 49.9999 78.353 54.9411C78.353 59.6469 79.6471 63.4117 82.2354 65.9999C84.9413 68.5881 88.5883 69.8822 93.2942 69.8822C95.6471 69.8822 97.5295 69.7646 99.1766 69.4116C100.706 69.0587 102.471 68.5881 103.882 67.7646L102.471 61.0587C101.412 61.5293 100.235 61.8822 99.2942 62.1175C97.8824 62.4705 96.2354 62.5881 94.5883 62.5881C92.706 62.5881 91.1766 62.1175 90.1177 61.294C89.0589 60.3528 88.4707 59.0587 88.4707 57.4116H106V52.9411C105.882 48.5881 104.588 45.294 102.353 42.9411ZM88.353 51.0587C88.4707 49.5293 88.9413 48.2352 89.6471 47.5293C90.353 46.8234 91.2942 46.4705 92.5883 46.4705C93.8824 46.4705 94.9413 46.8234 95.6471 47.6469C96.353 48.4705 96.706 49.5293 96.8236 51.0587H88.353Z" fill="#444445"/>
</g>
<defs>
<clipPath id="clip0_291_3299">
<rect width="214.118" height="40" fill="white" transform="translate(42.9412 30)"/>
</clipPath>
</defs>
</svg>
