<svg width="300" height="100" viewBox="0 0 300 100" fill="none" xmlns="http://www.w3.org/2000/svg">
<rect width="300" height="100" fill="white"/>
<g clip-path="url(#clip0_298_12499)">
<mask id="mask0_298_12499" style="mask-type:luminance" maskUnits="userSpaceOnUse" x="88" y="30" width="125" height="40">
<path d="M212.731 30H88.4453V70H212.731V30Z" fill="white"/>
</mask>
<g mask="url(#mask0_298_12499)">
<path d="M112.607 62.0689L118.11 58.6125V30H110.762V45.5158C109.129 42.5638 106.299 40.7376 101.51 40.7376C93.671 40.7376 88.4453 46.697 88.4453 55.2336C88.4453 63.7703 93.671 69.7296 101.508 69.7296C106.178 69.7296 108.984 67.9935 110.635 65.1696C110.786 63.9047 111.503 62.7615 112.607 62.0689ZM103.142 63.0176C98.6242 63.0176 95.7389 59.8506 95.7389 55.232C95.7389 50.6151 98.6242 47.448 103.142 47.448C107.659 47.448 110.762 50.6151 110.762 55.232C110.76 59.8506 107.659 63.0176 103.142 63.0176Z" fill="#030335"/>
<path d="M112.606 62.0687C111.503 62.7613 110.785 63.9045 110.636 65.1694C110.617 65.3322 110.605 65.4983 110.605 65.6643V69.6061H110.761H118.109V58.6123L112.606 62.0687Z" fill="#22DEF2"/>
<path d="M173.06 52.6653H179.903V51.6391C179.903 49.1014 178.205 47.3194 174.592 47.3194C171.636 47.3194 168.789 48.0752 166.654 49.6959L162.658 45.1595C165.723 42.5143 168.789 40.8398 174.373 40.8398C182.2 40.8398 187.291 44.9429 187.291 51.6391V69.4587H179.901V66.5431C178.313 68.7029 175.576 69.9995 171.417 69.9995C164.356 69.9995 160.359 67.2451 160.359 61.36C160.359 54.0693 167.202 52.6653 173.06 52.6653ZM173.06 64.0591C176.235 64.0591 179.903 62.9791 179.903 58.6594V57.7408H174.155C169.83 57.7408 167.86 58.8745 167.86 61.0881C167.86 63.0329 170.158 64.0591 173.06 64.0591Z" fill="#030335"/>
<path d="M199.843 30.373V69.7912H192.453V30.373H199.843Z" fill="#030335"/>
<path d="M143.378 30.043V69.4611H135.988V30.043H143.378Z" fill="#030335"/>
<path d="M155.995 30.043V69.4611H148.605V30.043H155.995Z" fill="#030335"/>
<path d="M212.733 41.0459V69.63H205.343V41.0459H212.733Z" fill="#030335"/>
<path d="M130.726 40.916V69.5H123.336V40.916H130.726Z" fill="#030335"/>
<path d="M130.726 34.0274C130.726 32.0146 129.071 30.3828 127.031 30.3828C124.99 30.3828 123.336 32.0146 123.336 34.0274C123.336 36.0402 124.99 37.6719 127.031 37.6719C129.071 37.6719 130.726 36.0402 130.726 34.0274Z" fill="#030335"/>
<path d="M212.733 33.9942C212.733 31.9814 211.079 30.3496 209.038 30.3496C206.998 30.3496 205.343 31.9814 205.343 33.9942C205.343 36.007 206.998 37.6387 209.038 37.6387C211.077 37.6387 212.733 36.007 212.733 33.9942Z" fill="#030335"/>
</g>
</g>
<defs>
<clipPath id="clip0_298_12499">
<rect width="125" height="40" fill="white" transform="translate(88.4453 30)"/>
</clipPath>
</defs>
</svg>
