<svg width="300" height="100" viewBox="0 0 300 100" fill="none" xmlns="http://www.w3.org/2000/svg">
<rect width="300" height="100" fill="white"/>
<g clip-path="url(#clip0_311_483)">
<path fill-rule="evenodd" clip-rule="evenodd" d="M214.353 59.3944C214.353 60.1272 214.637 60.7445 215.206 61.2464C215.774 61.7487 216.505 61.9996 217.397 61.9996C218.832 61.9996 220.05 61.5109 221.051 60.534C222.052 59.5576 222.553 58.2553 222.553 56.6274V54.9996C220.983 55.3796 219.738 55.6374 218.818 55.7724C215.841 56.2074 214.353 57.4148 214.353 59.3944ZM208.753 60.0397C208.753 57.8291 209.603 55.9956 211.302 54.5403C213.001 53.0845 215.495 52.1138 218.787 51.6286C221.484 51.1973 223.048 50.9145 223.48 50.7794V49.5255C223.48 48.5287 223.135 47.7937 222.448 47.3212C221.76 46.8506 220.863 46.6139 219.757 46.6139C217.222 46.6139 215.037 47.6117 213.203 49.6064L209.4 46.3311C212.044 43.1765 215.469 41.5996 219.677 41.5996C223.398 41.5996 226.042 42.4895 227.606 44.2687C229.17 46.0484 229.953 48.5693 229.953 51.8305V67.3996H223.682V64.1641C223.196 65.0815 222.388 65.8494 221.255 66.4691C220.122 67.0888 218.827 67.3996 217.37 67.3996C214.727 67.3996 212.63 66.7189 211.079 65.357C209.527 63.9966 208.753 62.2236 208.753 60.0397ZM184.614 67.3994V32.5996H190.99V44.6708H191.112C192.564 43.1367 194.42 42.3692 196.681 42.3692C197.729 42.3692 198.719 42.5311 199.646 42.8539C200.574 43.1768 201.448 43.6814 202.269 44.3677C203.09 45.0545 203.742 46.0371 204.226 47.3146C204.71 48.5935 204.953 50.0942 204.953 51.8163V67.3994H198.495V52.5428C198.495 49.4209 197.5 47.8598 195.51 47.8598C194.191 47.8598 193.109 48.4451 192.262 49.6157C191.414 50.7868 190.99 52.1663 190.99 53.7545V67.3994H184.614ZM160.287 61.4248L164.807 58.7597C166.448 61.0748 168.506 62.2319 170.981 62.2319C172.003 62.2319 172.803 62.0096 173.382 61.5659C173.961 61.1217 174.25 60.5765 174.25 59.9303C174.25 59.7157 174.216 59.5011 174.149 59.2846C174.082 59.0695 173.974 58.8747 173.826 58.6993C173.678 58.5248 173.523 58.3706 173.362 58.2348C173.201 58.1009 172.979 57.9593 172.696 57.8109C172.414 57.664 172.164 57.5427 171.95 57.4475C171.734 57.3537 171.445 57.2401 171.082 57.1048C170.718 56.9704 170.417 56.8694 170.174 56.8022C169.932 56.735 169.595 56.634 169.165 56.4996C168.734 56.3643 168.412 56.2575 168.197 56.1763C166.152 55.5035 164.518 54.6287 163.294 53.5523C162.069 52.4759 161.457 50.9017 161.457 48.8287C161.457 46.6223 162.406 44.8722 164.303 43.5802C166.199 42.2888 168.439 41.6426 171.021 41.6426C173.039 41.6426 174.969 42.1742 176.813 43.2376C178.655 44.3009 180.034 45.6934 180.949 47.4159L176.711 49.9186C174.989 47.8461 173.12 46.8103 171.102 46.8103C170.134 46.8103 169.373 47.0124 168.822 47.4159C168.27 47.8195 167.995 48.3309 167.995 48.9495C167.995 49.2463 168.048 49.5218 168.156 49.7775C168.264 50.0337 168.445 50.269 168.701 50.4836C168.957 50.7002 169.199 50.8877 169.428 51.0491C169.656 51.2106 169.992 51.372 170.436 51.5334C170.88 51.6949 171.23 51.8234 171.486 51.9172C171.741 52.0114 172.151 52.1463 172.716 52.3208C173.281 52.4962 173.685 52.6238 173.927 52.7041C178.554 54.2652 180.868 56.7012 180.868 60.0115C180.868 62.0575 180.034 63.7999 178.366 65.2397C176.697 66.6791 174.303 67.3992 171.183 67.3992C168.734 67.3992 166.548 66.854 164.625 65.7646C162.701 64.6742 161.255 63.2276 160.287 61.4248ZM149.972 67.3994V42.3692H156.348V67.3994H149.972ZM149.891 39.3024V32.6813H156.388V39.3024H149.891ZM128.571 54.4807C128.571 56.8761 128.995 58.7132 129.842 59.9911C130.69 61.27 131.84 61.909 133.293 61.909C134.718 61.909 135.841 61.2497 136.662 59.9302C137.482 58.6127 137.893 56.7958 137.893 54.4807C137.893 52.2743 137.503 50.498 136.723 49.152C135.942 47.8059 134.799 47.1331 133.293 47.1331C131.732 47.1331 130.555 47.7991 129.761 49.1317C128.968 50.4632 128.571 52.2472 128.571 54.4807ZM121.953 54.4807C121.953 50.471 122.928 47.3288 124.879 45.0543C126.829 42.7802 129.338 41.6425 132.405 41.6425C134.665 41.6425 136.481 42.4772 137.852 44.1456V32.5999H144.269V67.3996H138.014V64.2502C137.53 65.0849 136.763 65.8186 135.714 66.4508C134.665 67.0825 133.548 67.3996 132.365 67.3996C131.073 67.3996 129.829 67.1575 128.632 66.6727C127.434 66.1884 126.324 65.4619 125.303 64.4929C124.28 63.5238 123.466 62.1782 122.861 60.4556C122.256 58.7335 121.953 56.7417 121.953 54.4807Z" fill="black"/>
<path fill-rule="evenodd" clip-rule="evenodd" d="M69.9531 30V50V58.0517L71.157 56.8478L89.9531 38.0544V50.08L75.8503 64.1794L70.0292 70H89.9531C100.999 70 109.953 61.0456 109.953 50C109.953 38.9544 100.999 30 89.9531 30H69.9531Z" fill="url(#paint0_linear_311_483)"/>
</g>
<defs>
<linearGradient id="paint0_linear_311_483" x1="3582.51" y1="532.752" x2="69.9534" y2="4030" gradientUnits="userSpaceOnUse">
<stop stop-color="#FFB800"/>
<stop offset="1" stop-color="#FF3900"/>
</linearGradient>
<clipPath id="clip0_311_483">
<rect width="160" height="40" fill="white" transform="translate(69.9531 30)"/>
</clipPath>
</defs>
</svg>
