<svg width="300" height="100" viewBox="0 0 300 100" fill="none" xmlns="http://www.w3.org/2000/svg">
<rect width="300" height="100" fill="white"/>
<g clip-path="url(#clip0_298_12467)">
<path d="M120.229 59.6296V56.9015C119.721 57.7897 118.897 58.5511 117.755 59.1221C116.612 59.6931 115.28 60.0103 113.757 60.0103C112.361 60.0103 111.093 59.7565 109.951 59.3124C108.808 58.8683 107.793 58.1704 106.969 57.2821C106.207 56.4573 105.573 55.3787 105.065 54.1097C104.621 52.8408 104.367 51.4451 104.367 49.8588C104.367 48.3361 104.621 46.8768 105.065 45.6713C105.509 44.4024 106.207 43.3238 107.032 42.4356C107.857 41.5473 108.872 40.9129 110.014 40.4053C111.156 39.9611 112.425 39.7074 113.821 39.7074C115.28 39.7074 116.549 39.9611 117.628 40.4687C118.706 40.9763 119.468 41.6108 120.039 42.3721V30H124.289V59.6296H120.229ZM114.455 43.3873C113.63 43.3873 112.869 43.5141 112.171 43.8315C111.473 44.0852 110.839 44.5293 110.331 45.1004C109.824 45.6713 109.443 46.3693 109.126 47.1307C108.808 47.9555 108.682 48.8437 108.682 49.9223C108.682 50.9375 108.808 51.8892 109.126 52.714C109.443 53.4753 109.824 54.1097 110.331 54.6808C110.839 55.2519 111.473 55.6325 112.171 55.9497C112.869 56.2035 113.63 56.3939 114.455 56.3939C116.041 56.3939 117.374 55.8863 118.452 54.8712C119.468 53.856 120.039 52.3967 120.039 50.4299V49.4147C120.039 47.5113 119.531 45.9885 118.452 44.9735C117.437 43.8948 116.105 43.3873 114.455 43.3873Z" fill="#3F7CDB"/>
<path d="M154.364 62.1038C154.364 64.4514 153.729 66.2914 152.397 67.6237C151.064 68.9561 149.288 69.5906 147.067 69.5906C146.687 69.5906 146.433 69.5906 146.179 69.5906C145.925 69.5906 145.671 69.5271 145.354 69.4637V65.7203C145.671 65.7838 146.116 65.8473 146.56 65.8473C147.638 65.8473 148.463 65.5299 149.098 64.8955C149.732 64.261 150.049 63.3727 150.049 62.1673V40.0878H154.3V62.1038H154.364ZM154.364 35.9638H150.113V31.6494H154.364V35.9638Z" fill="#3F7CDB"/>
<path d="M165.467 39.707C168.004 39.707 169.971 40.3415 171.304 41.6739C172.636 43.0063 173.334 44.9097 173.334 47.4476V59.6293H169.019V57.9163C168.322 58.5507 167.56 59.1217 166.672 59.5024C165.784 59.8831 164.832 60.0735 163.69 60.0735C161.723 60.0735 160.137 59.5659 158.931 58.6141C157.726 57.5991 157.155 56.2032 157.155 54.3632C157.155 53.3481 157.345 52.4599 157.726 51.6985C158.107 51.0005 158.614 50.3661 159.249 49.922C159.883 49.4779 160.645 49.0972 161.533 48.8433C162.421 48.5896 163.373 48.4627 164.324 48.3992L168.956 48.1455V47.5744C168.956 46.3055 168.702 45.2904 168.131 44.5924C167.56 43.8945 166.672 43.5139 165.467 43.5139C164.261 43.5139 163.373 43.8311 162.802 44.5289C162.231 45.1635 161.977 45.9883 161.977 46.8765L157.663 46.6227C157.663 45.7345 157.853 44.9097 158.17 44.0848C158.551 43.2601 159.058 42.4987 159.693 41.8642C160.327 41.2298 161.152 40.7222 162.167 40.2781C163.182 39.9608 164.261 39.707 165.467 39.707ZM164.959 51.6985C163.944 51.7619 163.119 51.9523 162.485 52.3329C161.85 52.7136 161.533 53.3481 161.533 54.2364C161.533 55.0612 161.787 55.6321 162.358 55.9495C162.929 56.2667 163.627 56.4569 164.451 56.4569C165.847 56.4569 166.926 56.1397 167.814 55.4419C168.639 54.7439 169.083 53.6653 169.083 52.1427V51.4447L164.959 51.6985Z" fill="#3F7CDB"/>
<path d="M180.631 42.3087C181.075 41.6108 181.773 41.0397 182.661 40.5322C183.549 40.0246 184.691 39.7708 186.087 39.7708C187.229 39.7708 188.244 39.9611 189.132 40.3418C190.084 40.7225 190.845 41.2301 191.543 41.928C192.241 42.6259 192.749 43.4507 193.129 44.4659C193.51 45.4811 193.701 46.6231 193.701 47.892V59.6931H189.386V48.4631C189.386 47.0037 189.005 45.7983 188.244 44.9735C187.483 44.1487 186.404 43.7045 185.135 43.7045C183.739 43.7045 182.661 44.1487 181.836 45.0369C181.011 45.9252 180.567 47.0672 180.567 48.4631V59.6296H176.316V30H180.567V42.3087H180.631Z" fill="#3F7CDB"/>
<path d="M146.052 44.4021L142.626 40.976C141.865 40.2146 140.786 39.7705 139.707 39.7705H134.315C133.236 39.7705 132.157 40.2146 131.396 40.976L127.97 44.4021C127.208 45.1635 126.764 46.2421 126.764 47.3207V52.6502C126.764 53.7287 127.208 54.8074 127.97 55.5687L132.094 59.6927C132.348 59.9466 132.475 60.2638 132.475 60.6445V62.2941C132.475 63.2458 133.236 64.0071 134.188 64.0071H139.644C140.596 64.0071 141.357 63.2458 141.357 62.2941V60.7079C141.357 60.3907 141.484 60.0101 141.738 59.7562L145.989 55.5687C146.75 54.8074 147.194 53.7287 147.194 52.6502V47.3207C147.321 46.2421 146.877 45.2269 146.052 44.4021ZM142.943 51.9523C142.943 52.5233 142.753 53.0309 142.372 53.475L140.723 55.2515C140.152 55.8226 140.025 56.7107 140.342 57.4722L141.294 59.8197H132.855L133.807 57.4722C134.124 56.7107 133.934 55.8859 133.426 55.2515L131.777 53.475C131.396 53.0943 131.206 52.5233 131.206 51.9523V48.0821C131.206 47.511 131.396 47.0034 131.777 46.6227L133.617 44.529C134.061 44.0849 134.632 43.7677 135.266 43.7677H138.883C139.517 43.7677 140.088 44.0214 140.532 44.529L142.436 46.6227C142.816 47.0034 143.007 47.5745 143.007 48.1455V51.9523H142.943Z" fill="#3F7CDB"/>
</g>
<defs>
<clipPath id="clip0_298_12467">
<rect width="89.3333" height="40" fill="white" transform="translate(104.367 30)"/>
</clipPath>
</defs>
</svg>
