<svg width="300" height="100" viewBox="0 0 300 100" fill="none" xmlns="http://www.w3.org/2000/svg">
<rect width="300" height="100" fill="white"/>
<g clip-path="url(#clip0_298_12405)">
<mask id="mask0_298_12405" style="mask-type:luminance" maskUnits="userSpaceOnUse" x="55" y="30" width="190" height="40">
<path d="M244.211 30H55.4609V70H244.211V30Z" fill="white"/>
</mask>
<g mask="url(#mask0_298_12405)">
<path d="M80.4321 30H91.3181L101.049 47.0222L96.339 50.0445L101.093 52.8889L91.2736 70H80.4321V61.9555H86.6971L91.1849 54.1334H80.4321V46.0445L91.2293 46.1777L86.786 38.2222H80.4321V30H90.6516C90.8738 30 91.0515 30.0444 91.2293 30.1778C91.407 30.2667 91.5403 30.4444 91.6736 30.6222L101.093 47.0666" fill="#343434"/>
<path d="M78.2104 30V38.2222H71.8567L67.4578 46.1334H78.2549V54.1334H58.4824L55.8608 50L67.3689 30" fill="#23AADD"/>
<path d="M67.4134 70L58.4824 54.0889H67.4134L72.1677 62.0445L78.2106 62.0889V70H67.4134Z" fill="url(#paint0_linear_298_12405)"/>
<path d="M116.822 51.3331C116.822 53.9108 118.022 55.1997 120.421 55.1997C121.71 55.1997 122.687 54.6663 123.354 53.6441H129.086C127.93 57.5108 125.042 59.4219 120.377 59.4219C118.955 59.4219 117.666 59.1997 116.467 58.7997C115.267 58.3552 114.289 57.7774 113.445 56.9774C112.601 56.1774 111.935 55.2441 111.49 54.1331C111.046 53.0219 110.779 51.8219 110.779 50.4441C110.779 49.0219 111.001 47.7774 111.446 46.6663C111.89 45.5552 112.512 44.5774 113.312 43.7774C114.112 42.9774 115.089 42.3997 116.245 41.9552C117.4 41.5108 118.688 41.333 120.155 41.333C121.576 41.333 122.865 41.5552 124.02 41.9552C125.175 42.3997 126.109 43.0219 126.908 43.8219C127.708 44.6219 128.286 45.6441 128.73 46.7997C129.13 47.9552 129.352 49.2886 129.352 50.7552V51.3331H116.822ZM123.798 47.8663C123.62 47.0219 123.176 46.3552 122.598 45.8663C121.976 45.3774 121.221 45.1108 120.377 45.1108C119.444 45.1108 118.688 45.3331 118.111 45.8219C117.533 46.3108 117.178 46.9774 117 47.8663H123.798Z" fill="#343434"/>
<path d="M133.307 33.9551H142.905C145.171 33.9551 146.903 34.4884 148.103 35.5995C149.303 36.7106 149.881 38.2662 149.881 40.3106C149.881 41.5551 149.658 42.5773 149.214 43.4217C148.77 44.2217 148.059 44.9328 147.17 45.5106C148.103 45.6884 148.859 45.9551 149.525 46.3106C150.192 46.6662 150.681 47.1106 151.08 47.6439C151.48 48.1773 151.791 48.7551 151.969 49.4217C152.147 50.0884 152.235 50.7994 152.235 51.5106C152.235 52.6662 152.013 53.6883 151.613 54.6217C151.213 55.5106 150.636 56.2662 149.925 56.8883C149.17 57.5106 148.281 57.9551 147.259 58.2662C146.193 58.5773 145.037 58.7106 143.705 58.7106H133.352V33.9551H133.307ZM139.75 43.6883H140.95C142.949 43.6883 143.971 42.8883 143.971 41.2884C143.971 39.6884 142.949 38.8884 140.95 38.8884H139.75V43.6883ZM139.75 53.7773H141.172C142.771 53.7773 143.971 53.5551 144.637 53.1551C145.348 52.7551 145.704 52.0883 145.704 51.1551C145.704 50.2217 145.348 49.5551 144.637 49.1551C143.926 48.7551 142.771 48.5328 141.172 48.5328H139.75V53.7773Z" fill="#343434"/>
<path d="M168.497 41.9113H174.496V58.7557H168.497V56.8891C167.209 58.4891 165.52 59.2891 163.343 59.2891C162.099 59.2891 160.988 59.0668 159.967 58.6224C158.945 58.1779 158.056 57.5557 157.256 56.7113C156.456 55.8668 155.879 54.9334 155.479 53.8668C155.034 52.7557 154.857 51.5557 154.857 50.2668C154.857 49.0668 155.079 47.9113 155.479 46.8446C155.879 45.7779 156.456 44.8002 157.211 44.0002C157.967 43.2002 158.856 42.5334 159.878 42.0891C160.899 41.6002 162.055 41.3779 163.299 41.3779C165.388 41.3779 167.165 42.1335 168.542 43.6002V41.9113H168.497ZM160.989 50.2668C160.989 50.8002 161.078 51.3334 161.299 51.7779C161.478 52.2668 161.744 52.6668 162.099 53.0223C162.455 53.3779 162.855 53.6446 163.299 53.8223C163.788 54.0002 164.277 54.1334 164.809 54.1334C165.343 54.1334 165.832 54.0446 166.32 53.8223C166.809 53.6446 167.209 53.3334 167.52 53.0223C167.876 52.6668 168.142 52.2668 168.32 51.8223C168.497 51.3779 168.631 50.8891 168.631 50.3557C168.631 49.8223 168.542 49.3334 168.32 48.8446C168.097 48.3557 167.831 47.9557 167.52 47.6002C167.165 47.2446 166.765 46.9779 166.32 46.8002C165.876 46.6223 165.343 46.4891 164.809 46.4891C164.277 46.4891 163.743 46.5779 163.299 46.8002C162.81 46.9779 162.41 47.2891 162.099 47.6002C161.744 47.9557 161.478 48.3557 161.299 48.8002C161.122 49.2446 160.989 49.7334 160.989 50.2668Z" fill="#343434"/>
<path d="M178.54 41.9112H184.493V44.0446C185.293 43.0668 186.137 42.4002 186.937 42.0446C187.782 41.689 188.76 41.5557 189.87 41.5557C191.07 41.5557 192.047 41.7334 192.892 42.1334C193.736 42.5334 194.446 43.0668 195.023 43.7779C195.512 44.3557 195.823 44.9779 196.001 45.6891C196.18 46.4002 196.268 47.2002 196.268 48.0891V58.8002H190.313V50.2668C190.313 49.4223 190.27 48.7557 190.136 48.2668C190.003 47.7334 189.781 47.3334 189.515 47.0223C189.248 46.7557 188.937 46.5779 188.626 46.4446C188.315 46.3557 187.96 46.2668 187.56 46.2668C186.537 46.2668 185.782 46.5779 185.248 47.1557C184.716 47.7779 184.45 48.6223 184.45 49.7334V58.7557H178.54V41.9112Z" fill="#343434"/>
<path d="M213.33 67.1552V57.1108C211.953 58.5774 210.22 59.2886 208.087 59.2886C206.887 59.2886 205.777 59.0663 204.755 58.5774C203.733 58.1329 202.845 57.4663 202.088 56.6663C201.333 55.8663 200.756 54.8886 200.311 53.8219C199.867 52.7552 199.69 51.5997 199.69 50.3552C199.69 49.0663 199.911 47.9108 200.356 46.7997C200.8 45.6886 201.378 44.7552 202.178 43.9552C202.933 43.1552 203.822 42.4886 204.887 42.0441C205.955 41.5997 207.021 41.333 208.221 41.333C210.397 41.333 212.131 42.133 213.375 43.7331V41.8664H219.373V67.1552H213.33ZM205.866 50.2663C205.866 50.7997 205.955 51.3329 206.177 51.7774C206.355 52.2663 206.621 52.6663 206.977 53.0219C207.332 53.3774 207.732 53.6441 208.176 53.8219C208.665 53.9997 209.153 54.1329 209.686 54.1329C210.22 54.1329 210.708 54.0441 211.197 53.8219C211.686 53.6441 212.086 53.3329 212.397 53.0219C212.753 52.6663 213.02 52.2663 213.197 51.7774C213.418 51.2886 213.508 50.7997 213.508 50.2663C213.508 49.7329 213.418 49.2441 213.197 48.7997C212.975 48.3552 212.708 47.9552 212.397 47.5997C212.042 47.2441 211.642 46.9774 211.197 46.7997C210.708 46.6219 210.22 46.4886 209.686 46.4886C209.153 46.4886 208.665 46.5774 208.176 46.7997C207.687 46.9774 207.287 47.2886 206.977 47.5997C206.621 47.9552 206.355 48.3552 206.177 48.7997C205.998 49.2441 205.866 49.7329 205.866 50.2663Z" fill="#343434"/>
<path d="M222.706 50.178C222.706 48.9335 222.972 47.778 223.461 46.6669C223.95 45.6002 224.661 44.6225 225.55 43.8225C226.438 43.0225 227.505 42.4002 228.748 41.9113C229.992 41.4669 231.326 41.2002 232.792 41.2002C234.258 41.2002 235.591 41.4224 236.835 41.8669C238.08 42.3113 239.146 42.9335 240.035 43.7335C240.923 44.5335 241.633 45.4669 242.167 46.578C242.656 47.6891 242.922 48.8891 242.922 50.2225C242.922 51.5557 242.656 52.8002 242.167 53.8669C241.633 54.978 240.967 55.9114 240.035 56.7114C239.146 57.5114 238.08 58.1335 236.791 58.578C235.547 59.0225 234.17 59.2446 232.702 59.2446C231.237 59.2446 229.903 59.0225 228.703 58.578C227.46 58.1335 226.438 57.5114 225.55 56.7114C224.661 55.9114 223.95 54.9336 223.461 53.8225C222.972 52.8002 222.706 51.5557 222.706 50.178ZM228.971 50.2669C228.971 50.8446 229.06 51.378 229.282 51.8225C229.503 52.3114 229.771 52.7114 230.082 53.0669C230.437 53.4225 230.837 53.6891 231.281 53.8669C231.77 54.0446 232.258 54.178 232.792 54.178C233.325 54.178 233.813 54.0891 234.302 53.8669C234.791 53.6891 235.191 53.378 235.502 53.0669C235.858 52.7114 236.125 52.3114 236.302 51.8225C236.525 51.3335 236.613 50.8446 236.613 50.3114C236.613 49.778 236.525 49.2891 236.302 48.8002C236.08 48.3114 235.813 47.9114 235.502 47.5557C235.147 47.2002 234.747 46.9335 234.302 46.7557C233.813 46.578 233.325 46.4446 232.792 46.4446C232.258 46.4446 231.77 46.5335 231.281 46.7557C230.792 46.9335 230.392 47.2446 230.082 47.5557C229.726 47.9114 229.46 48.3114 229.282 48.7557C229.103 49.2446 228.971 49.7335 228.971 50.2669Z" fill="#343434"/>
</g>
</g>
<defs>
<linearGradient id="paint0_linear_298_12405" x1="70.6861" y1="71.3281" x2="67.3714" y2="52.5391" gradientUnits="userSpaceOnUse">
<stop stop-color="#23AADD"/>
<stop offset="1" stop-color="#003358"/>
</linearGradient>
<clipPath id="clip0_298_12405">
<rect width="188.75" height="40" fill="white" transform="translate(55.4609 30)"/>
</clipPath>
</defs>
</svg>
