<svg width="300" height="100" viewBox="0 0 300 100" fill="none" xmlns="http://www.w3.org/2000/svg">
<rect width="300" height="100" fill="white"/>
<path d="M136.532 45.1116L136.672 44.3252H133.28C132.924 44.3252 132.586 44.6096 132.516 44.9652L131.206 52.3904C131.139 52.7504 131.374 53.042 131.735 53.0436H135.44L135.578 52.2584H132.396L132.984 48.9248H135.569L135.704 48.1524H133.12L133.657 45.1124L136.532 45.1116Z" fill="#00577A"/>
<path d="M138.204 53.1729C136.709 53.1729 135.844 51.8301 136.23 49.6245C136.626 47.3809 137.958 46.0889 139.478 46.0889C140.314 46.0889 140.724 46.3561 140.907 46.5449L140.527 47.1917C140.351 47.0393 140.077 46.8629 139.57 46.8629C138.328 46.8629 137.648 47.9893 137.366 49.5865C137.077 51.2213 137.462 52.3497 138.566 52.3497C139.035 52.3497 139.38 52.1973 139.664 52.0209L139.82 52.7169C139.512 52.9569 138.967 53.1729 138.206 53.1729" fill="#00577A"/>
<path d="M144.032 46.7997C142.728 46.7997 142.216 48.2569 141.972 49.6377C141.727 51.0185 141.765 52.3997 143.044 52.3997C144.35 52.3997 144.836 51.0045 145.076 49.6365C145.316 48.2685 145.337 46.7997 144.032 46.7997ZM142.909 53.1729C141.045 53.1729 140.505 51.6393 140.858 49.6373C141.218 47.5973 142.307 46.0889 144.145 46.0889C146.02 46.0889 146.553 47.5969 146.192 49.6373C145.84 51.6397 144.76 53.1729 142.909 53.1729Z" fill="#00577A"/>
<path d="M156.535 49.1685C154.775 49.3829 153.682 49.7501 153.44 51.1325C153.265 52.1209 153.8 52.5261 154.816 52.5261C155.244 52.5261 155.678 52.4513 155.984 52.2989L156.535 49.1685ZM154.612 53.1729C152.839 53.1729 152.151 52.4005 152.372 51.1581C152.692 49.3449 154.482 48.8141 156.638 48.5981L156.712 48.1801C156.898 47.1281 156.318 46.8245 155.442 46.8245C154.784 46.8245 154.133 47.0645 153.72 47.2553L153.568 46.5957C154.249 46.2669 154.993 46.0938 155.749 46.0889C157.017 46.0889 158.037 46.6341 157.741 48.3057L156.966 52.6913C156.395 52.9837 155.562 53.1713 154.612 53.1713" fill="#00577A"/>
<path d="M161.669 53.046L162.533 48.1424C162.646 47.5084 162.502 46.8124 161.337 46.8124C160.703 46.8124 160.382 46.8996 160.002 47.0524L158.944 53.046H157.83L158.971 46.5708C159.632 46.28 160.463 46.0908 161.551 46.0908C163.454 46.0908 163.825 47.1428 163.654 48.1184L162.784 53.046H161.669Z" fill="#00577A"/>
<path d="M168.467 54.6156H130.815L130.85 54.3916H168.498L168.467 54.6156Z" fill="#BDCF00"/>
<path d="M151.067 49.5485C150.762 51.2729 149.998 52.4517 148.591 52.4517C148.235 52.4517 147.889 52.4137 147.657 52.2865L148.581 47.0521C148.929 46.8761 149.235 46.7869 149.741 46.7869C151.033 46.7869 151.33 48.0549 151.066 49.5469M150.136 46.1273C149.465 46.1273 149.06 46.2657 148.687 46.4437L149.275 43.1133L148.047 43.8233L146.483 52.6917C146.843 52.9585 147.513 53.1717 148.439 53.1717C150.467 53.1717 151.803 51.7017 152.189 49.5089C152.553 47.4433 151.709 46.1257 150.136 46.1257" fill="#00577A"/>
<path d="M169.56 46.216H168.395L165.403 49.3828H165.378L166.141 45.0672C166.901 40.7928 162.286 39.89 157.469 40.6272C154.196 41.1296 151.304 42.434 151.304 42.434C151.304 42.434 155.079 41.114 158.402 40.9244C162.597 40.6844 165.885 41.3216 164.925 45.7664L163.641 53.0464H164.731L165.353 49.522H165.378L167.367 53.0464H168.635L166.412 49.4064L169.56 46.216Z" fill="#00577A"/>
<path d="M131.432 56.8503L130.953 59.5603H130.553L131.033 56.8495H130.44L130.488 56.5811H132.072L132.024 56.8495L131.432 56.8503Z" fill="#00577A"/>
<path d="M133.296 59.5602L133.587 57.9062C133.629 57.6662 133.564 57.447 133.192 57.447C133.026 57.4425 132.862 57.4826 132.717 57.563L132.365 59.5602H131.983L132.583 56.1602H132.963L132.755 57.347C132.966 57.247 133.144 57.2042 133.315 57.2042C133.909 57.2042 134.027 57.5618 133.969 57.8906L133.677 59.5602H133.296Z" fill="#00577A"/>
<path d="M135.36 57.4298C135.022 57.4298 134.723 57.703 134.62 58.3354L135.767 58.1654C135.859 57.6366 135.692 57.4298 135.36 57.4298ZM134.597 58.539C134.546 59.0666 134.748 59.327 135.168 59.327C135.376 59.3308 135.581 59.2846 135.768 59.1922L135.823 59.443C135.666 59.529 135.405 59.603 135.089 59.603C134.479 59.603 134.118 59.2166 134.264 58.3858C134.406 57.5926 134.867 57.1826 135.416 57.1826C135.976 57.1826 136.249 57.5466 136.103 58.3254L134.597 58.539Z" fill="#00577A"/>
<path d="M138.987 56.7769C138.869 56.7749 138.751 56.7937 138.639 56.8325L138.42 58.0801L138.547 58.0929C139.165 58.1549 139.443 57.8669 139.521 57.4349C139.599 57.0029 139.441 56.7769 138.987 56.7769ZM138.507 58.3369L138.375 58.3245L138.16 59.5601H137.771L138.275 56.7017C138.457 56.6061 138.732 56.5361 139.048 56.5361C139.751 56.5361 140 56.9145 139.908 57.4373C139.814 57.9665 139.376 58.4225 138.511 58.3349" fill="#00577A"/>
<path d="M141.309 58.2356C140.709 58.3104 140.335 58.4356 140.252 58.9064C140.192 59.2432 140.376 59.3828 140.722 59.3828C140.86 59.3858 140.996 59.3594 141.122 59.3052L141.309 58.2356ZM140.653 59.604C140.047 59.604 139.813 59.3384 139.887 58.914C139.996 58.296 140.607 58.114 141.344 58.0404L141.369 57.8972C141.433 57.5372 141.234 57.4348 140.936 57.4348C140.712 57.4348 140.489 57.5148 140.348 57.5812L140.295 57.3552C140.528 57.2441 140.782 57.1855 141.04 57.1836C141.474 57.1836 141.822 57.3696 141.72 57.9416L141.457 59.44C141.261 59.542 140.977 59.6056 140.653 59.6056" fill="#00577A"/>
<path d="M143.266 59.5604L143.562 57.884C143.602 57.668 143.551 57.4296 143.152 57.4296C142.996 57.4235 142.84 57.4517 142.696 57.5124L142.336 59.5604H141.955L142.346 57.3488C142.571 57.2484 142.854 57.1836 143.228 57.1836C143.878 57.1836 144.005 57.5436 143.948 57.8764L143.648 59.5604H143.266Z" fill="#00577A"/>
<path d="M146.99 57.2999C146.971 57.1808 146.963 57.0603 146.967 56.9399H146.958C146.915 57.0635 146.864 57.1838 146.804 57.2999L146.249 58.4315H147.137L146.99 57.2999ZM147.284 59.5603L147.16 58.6683H146.138L145.691 59.5603H145.328L146.861 56.5811H147.217L147.697 59.5603H147.284Z" fill="#00577A"/>
<path d="M148.909 57.4639L148.541 59.5603H148.158L148.528 57.4631H148.258L148.301 57.2263H148.569L148.628 56.8971C148.708 56.4379 149.038 56.1371 149.545 56.1615L149.505 56.4015C149.273 56.4143 149.076 56.5239 149.017 56.8527L148.952 57.2247H149.359L149.319 57.4615L148.909 57.4639Z" fill="#00577A"/>
<path d="M150.651 57.4779C150.47 57.4207 150.251 57.4379 150.112 57.5211L149.752 59.5611H149.371L149.76 57.3523C150.011 57.2363 150.24 57.1747 150.793 57.1871L150.651 57.4779Z" fill="#00577A"/>
<path d="M151.472 56.7766C151.347 56.7766 151.262 56.6814 151.283 56.5686C151.296 56.5087 151.329 56.455 151.377 56.4163C151.425 56.3776 151.484 56.3563 151.545 56.3558C151.572 56.3541 151.6 56.3587 151.625 56.3693C151.65 56.3798 151.672 56.396 151.69 56.4166C151.708 56.4372 151.721 56.4616 151.728 56.488C151.735 56.5143 151.735 56.5419 151.73 56.5686C151.716 56.6268 151.683 56.6788 151.637 56.7164C151.59 56.7541 151.532 56.7752 151.472 56.7766ZM150.792 59.5606L151.204 57.2266H151.586L151.172 59.5598L150.792 59.5606Z" fill="#00577A"/>
<path d="M152.55 59.604C152.038 59.604 151.742 59.1448 151.876 58.3916C152.009 57.624 152.465 57.1836 152.985 57.1836C153.271 57.1836 153.411 57.2744 153.473 57.3396L153.342 57.56C153.252 57.4825 153.136 57.4426 153.017 57.4488C152.591 57.4488 152.359 57.8348 152.262 58.38C152.165 58.9376 152.295 59.3236 152.672 59.3236C152.806 59.323 152.936 59.2844 153.048 59.2124L153.101 59.4492C152.994 59.5292 152.808 59.6048 152.55 59.6048" fill="#00577A"/>
<path d="M154.911 58.2356C154.311 58.3104 153.937 58.4356 153.854 58.9064C153.794 59.2432 153.976 59.3828 154.323 59.3828C154.46 59.3859 154.597 59.3595 154.723 59.3052L154.911 58.2356ZM154.254 59.604C153.649 59.604 153.412 59.3384 153.489 58.914C153.597 58.296 154.209 58.114 154.946 58.0404L154.971 57.8972C155.035 57.5372 154.836 57.4348 154.538 57.4348C154.333 57.442 154.133 57.4919 153.95 57.5812L153.897 57.3552C154.13 57.2439 154.384 57.1853 154.642 57.1836C155.076 57.1836 155.424 57.3696 155.322 57.9416L155.059 59.44C154.863 59.542 154.579 59.6056 154.254 59.6056" fill="#00577A"/>
<path d="M156.87 59.5604L157.164 57.884C157.202 57.668 157.153 57.4296 156.756 57.4296C156.599 57.4234 156.443 57.4516 156.298 57.5124L155.938 59.5604H155.558L155.948 57.3488C156.173 57.2484 156.458 57.1836 156.83 57.1836C157.48 57.1836 157.607 57.5436 157.55 57.8764L157.25 59.5604H156.87Z" fill="#00577A"/>
<path d="M160.444 56.7681C160.307 56.7664 160.17 56.7883 160.04 56.8329L159.852 57.8929H160.046C160.661 57.8929 160.904 57.7037 160.971 57.3145C161.038 56.9489 160.851 56.7681 160.445 56.7681M160.018 58.0933H159.818L159.608 59.2805C159.711 59.3281 159.832 59.3489 160.015 59.3489C160.404 59.3489 160.735 59.1933 160.812 58.7593C160.892 58.2969 160.66 58.0937 160.016 58.0937M159.986 59.6049C159.649 59.6049 159.374 59.5445 159.203 59.4397L159.683 56.7033C159.864 56.6077 160.161 56.5381 160.487 56.5381C161.141 56.5381 161.435 56.8509 161.359 57.2833C161.286 57.7089 160.935 57.9253 160.658 57.9777V57.9857C160.926 58.0381 161.296 58.3021 161.216 58.7565C161.108 59.3537 160.601 59.6049 159.986 59.6049" fill="#00577A"/>
<path d="M162.954 58.2356C162.354 58.3104 161.98 58.4356 161.896 58.9064C161.837 59.2432 162.02 59.3828 162.366 59.3828C162.504 59.3856 162.64 59.3592 162.766 59.3052L162.954 58.2356ZM162.298 59.604C161.691 59.604 161.456 59.3384 161.531 58.914C161.642 58.296 162.251 58.114 162.99 58.0404L163.013 57.8972C163.077 57.5372 162.88 57.4348 162.581 57.4348C162.355 57.4348 162.133 57.5148 161.992 57.5812L161.941 57.3552C162.173 57.2441 162.427 57.1855 162.684 57.1836C163.118 57.1836 163.468 57.3696 163.364 57.9416L163.102 59.44C162.907 59.542 162.622 59.6056 162.298 59.6056" fill="#00577A"/>
<path d="M164.96 59.5596L165.256 57.8832C165.292 57.6672 165.245 57.4288 164.846 57.4288C164.689 57.4227 164.533 57.451 164.388 57.5116L164.028 59.5596H163.646L164.04 57.3488C164.266 57.2484 164.549 57.1836 164.92 57.1836C165.568 57.1836 165.696 57.5436 165.64 57.8764L165.34 59.5596H164.96Z" fill="#00577A"/>
<path d="M167.154 59.5602L166.474 58.3574H166.463L166.253 59.5602H165.88L166.48 56.1602H166.852L166.473 58.3086H166.481L167.507 57.225H167.902L166.828 58.3202L167.588 59.5626L167.154 59.5602Z" fill="#00577A"/>
</svg>
