<svg width="300" height="100" viewBox="0 0 300 100" fill="none" xmlns="http://www.w3.org/2000/svg">
<rect width="300" height="100" fill="white"/>
<g clip-path="url(#clip0_298_12394)">
<path d="M140.573 30.0693C135.502 32.7481 132.068 37.8658 132.036 43.7416L128.131 36.953L124.707 38.9346L129.699 47.6084H134.262C134.262 41.8282 137.797 36.8062 142.99 34.2665L140.573 30.0693Z" fill="#6FE200"/>
<path d="M136.509 62.9208C135.994 65.0173 134.782 66.3144 132.723 66.3144C129.722 66.3144 128.365 63.8754 128.365 61.159L141.646 61.1541V60.2725C141.646 53.9229 138.449 50.1924 132.36 50.1924C126.271 50.1924 122.514 54.1526 122.514 60.0293C122.514 65.9059 125.825 69.93 132.615 69.93C137.446 69.93 140.151 67.5499 141.331 64.6924L136.509 62.9208ZM132.385 53.4499C134.742 53.4499 135.761 54.7783 135.838 58.3428H128.5C128.704 54.8931 130.004 53.4499 132.385 53.4499Z" fill="#2D2220"/>
<path d="M92.7746 62.9208C92.2598 65.0173 91.0478 66.3144 88.9893 66.3144C85.9882 66.3144 84.6304 63.8754 84.6304 61.159L97.9119 61.1541V60.2725C97.9119 53.9229 94.7151 50.1924 88.6258 50.1924C82.5366 50.1924 78.7795 54.1526 78.7795 60.0293C78.7795 65.9059 82.0911 69.93 88.8804 69.93C93.7123 69.93 96.4171 67.5499 97.5966 64.6924L92.7746 62.9208ZM88.6513 53.4499C91.0074 53.4499 92.0272 54.7783 92.1036 58.3428H84.7662C84.9699 54.8931 86.2696 53.4499 88.6513 53.4499Z" fill="#2D2220"/>
<path d="M120.782 66.1731C120.233 66.1731 119.789 65.7269 119.789 65.1766V43.5234C118.923 43.7404 117.204 43.9319 115.256 43.9319H111.602V47.1368H112.875C113.424 47.1368 113.869 47.5829 113.869 48.1333V53.0964C112.783 51.3113 110.923 50.2092 107.914 50.2156C102.81 50.2262 99.715 54.6341 99.546 60.0638C99.3777 65.4936 102.766 69.9418 107.8 69.9312C111.464 69.9234 113.316 68.3574 114.252 65.9546C114.354 67.4503 114.492 69.0241 114.543 69.3787H121.839V66.1737L120.782 66.1731ZM110.196 66.2169C106.091 66.2169 105.69 62.0007 105.69 59.7482C105.69 55.8461 107.312 53.9213 109.839 53.9192C112.275 53.9171 113.954 55.8063 113.954 59.7418C113.954 63.6773 112.654 66.2169 110.196 66.2169Z" fill="#2D2220"/>
<path d="M214.443 62.9326C213.93 65.0256 212.72 66.3206 210.665 66.3206C207.668 66.3206 206.313 63.8851 206.313 61.1737L219.572 61.1688V60.2887C219.572 53.9497 216.38 50.2256 210.301 50.2256C204.223 50.2256 200.471 54.1795 200.471 60.0461C200.471 65.9128 203.777 69.9305 210.555 69.9305C215.38 69.9305 218.08 67.554 219.257 64.7021L214.443 62.9326ZM210.327 53.4773C212.68 53.4773 213.697 54.8036 213.773 58.3625H206.448C206.652 54.9185 207.95 53.4773 210.327 53.4773Z" fill="#2D2220"/>
<path d="M200.585 47.0227V43.9474C200.064 43.6673 198.729 43.2588 197.191 43.2588C192.781 43.2588 190.964 44.929 190.964 49.7219V50.729H188.523V53.929H190.964V65.1673C190.964 65.7177 190.518 66.1638 189.969 66.1638H188.815V69.3688H198.729V66.1638H197.765C197.216 66.1638 196.771 65.7177 196.771 65.1673V53.929H199.937V50.729H196.671C196.667 50.6744 196.665 50.4163 196.662 50.3638C196.517 47.4922 197.137 46.8213 199.092 46.7779C199.154 46.7765 199.224 46.7779 199.301 46.7815C199.616 46.7935 200.306 46.9155 200.585 47.0227Z" fill="#2D2220"/>
<path d="M182.657 49.378C184.678 49.378 186.088 47.9375 186.088 46.0893C186.088 44.2412 184.678 42.8262 182.657 42.8262C180.636 42.8262 179.199 44.2667 179.199 46.0893C179.199 47.912 180.559 49.378 182.657 49.378Z" fill="#2D2220"/>
<path d="M186.637 66.1643C186.088 66.1643 185.643 65.7181 185.643 65.1678V50.2969C184.779 50.5139 183.06 50.7054 181.111 50.7054H177.458V53.9104H178.73C179.279 53.9104 179.724 54.3565 179.724 54.9067L179.72 65.1678C179.72 65.7181 179.276 66.1643 178.727 66.1643H177.572V69.3693H187.601V66.1643H186.637Z" fill="#2D2220"/>
<path d="M175.395 66.1639C174.846 66.1639 174.402 65.7179 174.402 65.1675V43.5781C173.537 43.7951 171.818 43.9866 169.87 43.9866H166.216V47.1916H167.489C168.037 47.1916 168.482 47.6378 168.482 48.188L168.479 65.1675C168.479 65.7179 168.034 66.1639 167.485 66.1639H165.038C164.519 66.1639 164.087 65.7632 164.047 65.2434L163.44 57.315C162.973 52.5951 159.917 50.1639 157.38 50.1639C154.426 50.1639 151.949 51.3511 150.765 53.7901V50.2533C149.874 50.4704 148.155 50.6874 146.232 50.6874H142.794V53.8923H143.927C144.476 53.8923 144.921 54.3384 144.921 54.8888V65.1668C144.921 65.7171 144.476 66.1632 143.927 66.1632H142.794V69.3682H152.776V66.1632H151.835C151.286 66.1632 150.841 65.7171 150.841 65.1668V59.3959C150.841 55.6291 152.491 53.9689 154.77 53.9689C155.732 53.9689 157.31 54.8384 157.52 57.4291L158.13 65.0874C158.176 65.6675 157.72 66.1632 157.14 66.1632H156.195V69.3682H176.358V66.1632L175.395 66.1639Z" fill="#2D2220"/>
</g>
<defs>
<clipPath id="clip0_298_12394">
<rect width="142.5" height="40" fill="white" transform="translate(78.4609 30)"/>
</clipPath>
</defs>
</svg>
