<svg width="300" height="100" viewBox="0 0 300 100" fill="none" xmlns="http://www.w3.org/2000/svg">
<rect width="300" height="100" fill="white"/>
<path d="M113.148 61.6587C106.765 63.216 100.978 59.7985 99.4459 53.2232L99.4033 53.1368C97.9566 46.9506 101.063 40.8512 107.276 39.3804C114.424 37.65 118.85 42.7979 119.914 47.2967C120.339 49.0704 119.403 50.5411 117.786 50.9305L105.871 53.8288C107.105 56.4676 109.361 57.4626 112.041 56.8137C113.744 56.3811 114.978 55.5591 115.999 54.3479C116.382 53.9153 116.722 53.6558 117.361 53.526C118.765 53.1799 119.914 53.9586 120.254 55.3862C120.424 56.208 120.212 56.8569 119.871 57.3761C118.382 59.3228 116.254 60.9233 113.148 61.6587ZM113.956 47.7726C112.935 45.1338 110.935 43.663 108.425 44.2686C105.871 44.8743 104.722 47.0804 104.935 49.9789L113.956 47.7726Z" fill="#112BF4"/>
<path d="M144.679 58.5866C144.679 60.3601 143.36 61.7444 141.615 61.7444C139.871 61.7444 138.509 60.4035 138.509 58.6298V58.3703C137.02 60.4899 134.977 61.9607 131.743 62.004C126.68 62.0473 121.786 58.0242 121.743 50.5836V50.4972C121.701 43.0999 126.424 39.0335 131.616 38.9903C134.892 38.9903 136.935 40.5044 138.424 42.278L138.381 34.2751C138.381 32.5015 139.701 31.1172 141.445 31.1172C143.19 31.1172 144.552 32.4582 144.552 34.2318L144.679 58.5866ZM127.913 50.4538V50.5405C127.913 54.2175 130.382 56.6398 133.275 56.6398C136.169 56.6398 138.552 54.1741 138.552 50.4972V50.4107C138.552 46.7337 136.126 44.3112 133.233 44.3112C130.339 44.3112 127.913 46.7337 127.913 50.4538Z" fill="#112BF4"/>
<path d="M167.658 58.4573C167.658 60.2308 166.339 61.6152 164.594 61.6152C162.849 61.6152 161.488 60.2741 161.488 58.5004V58.241C160.083 60.1011 158.211 61.8315 155.105 61.8315C150.381 61.8746 147.658 58.7601 147.658 53.6122L147.615 42.1487C147.615 40.375 148.935 38.9908 150.679 38.9908C152.424 38.9908 153.786 40.3319 153.786 42.1054L153.828 51.5791C153.828 54.564 155.19 56.0781 157.573 56.0781C159.956 56.0781 161.402 54.5207 161.402 51.5358L161.36 42.0622C161.36 40.2885 162.679 38.9043 164.424 38.9043C166.168 38.9043 167.53 40.2452 167.53 42.0189L167.615 58.414L167.658 58.4573Z" fill="#112BF4"/>
<path d="M170.679 34.0593C170.679 32.2857 171.998 30.9014 173.743 30.9014C175.487 30.9014 176.849 32.2424 176.849 34.016L176.934 47.7723L184.636 40.2886C185.572 39.4234 186.253 38.861 187.36 38.861C189.019 38.861 190.083 40.2021 190.126 41.6728C190.126 42.7976 189.573 43.5763 188.721 44.3981L183.828 48.6375L189.7 56.5971C190.211 57.2892 190.465 58.0247 190.465 58.6303C190.465 60.3174 189.189 61.4854 187.615 61.4854C186.338 61.4854 185.7 61.096 184.934 60.0578L179.487 52.5308L177.019 54.8235V58.414C177.019 60.1876 175.7 61.5719 173.956 61.5719C172.211 61.5719 170.849 60.2308 170.849 58.4573L170.679 34.0593Z" fill="#112BF4"/>
<path d="M190.806 50.2807V50.1942C190.764 43.8352 195.785 38.644 202.594 38.6009C209.317 38.5575 214.381 43.6189 214.423 49.9779V50.0644C214.465 56.4235 209.444 61.6145 202.637 61.6578C195.912 61.701 190.849 56.683 190.806 50.2807ZM208.338 50.1942V50.1077C208.338 46.8633 205.998 44.0082 202.55 44.0082C199.019 44.0082 196.934 46.7768 196.934 50.0644V50.151C196.934 53.3954 199.274 56.2504 202.722 56.2504C206.253 56.2504 208.338 53.4819 208.338 50.1942Z" fill="#112BF4"/>
<path d="M217.104 67.2822C216.167 66.9794 215.146 66.2008 215.103 64.6867C215.103 63.1293 216.252 62.1344 217.53 62.1344C218.04 62.1344 218.253 62.1777 218.551 62.3075C219.062 62.4805 219.401 62.567 219.827 62.567C220.934 62.567 221.402 62.3507 221.997 61.226L222.21 60.7068L214.679 43.1871C214.508 42.7112 214.338 42.1921 214.338 41.7595C214.338 39.9859 215.614 38.7314 217.402 38.7314C218.975 38.7314 219.827 39.5966 220.38 41.0673L225.189 53.9586L228.337 44.6145C228.848 43.3168 229.699 42.1921 231.274 42.1921C232.849 42.1921 234.21 43.4034 234.21 45.0904C234.21 45.6095 234.04 46.3017 233.955 46.6045L227.828 61.6586C225.997 66.1574 224.21 67.8878 220.508 67.8878C219.062 67.8446 218.125 67.6283 217.104 67.2822Z" fill="#112BF4"/>
<path d="M235.657 54.6505V54.564C235.615 49.7622 239.273 47.4695 244.423 47.4263C246.678 47.4263 248.168 47.7724 249.742 48.2915V47.9021C249.742 45.2634 248.125 43.879 245.061 43.879C243.317 43.879 241.997 44.1386 240.805 44.5279C240.466 44.6577 240.167 44.701 239.913 44.701C238.508 44.701 237.359 43.6195 237.317 42.1487C237.317 41.024 237.997 40.0722 238.976 39.6829C240.933 38.9043 243.018 38.515 245.955 38.4717C249.359 38.4717 251.741 39.2937 253.316 40.8942C254.933 42.5381 255.699 44.9605 255.699 47.9454L255.741 58.0247C255.741 59.7118 254.422 61.0528 252.763 61.0528C250.976 61.0528 249.785 59.7983 249.785 58.4572V58.4141C248.295 60.1011 246.252 61.2259 243.189 61.269C239.061 61.3989 235.657 59.0629 235.657 54.6505ZM249.827 53.0932V51.9685C248.721 51.4494 247.401 51.1466 245.869 51.1466C243.232 51.1466 241.615 52.2712 241.615 54.2179V54.3044C241.615 55.9915 243.018 56.9865 245.019 56.9865C247.954 57.0297 249.87 55.4291 249.827 53.0932Z" fill="#112BF4"/>
<path d="M71.2337 46.0415L62.5103 48.1611C62.5103 48.0746 62.5103 48.0314 62.5103 47.9881V47.9448C62.5103 47.8583 62.5103 47.8151 62.5528 47.7285C62.5528 47.642 62.5528 47.5987 62.5954 47.5122C62.9358 45.4791 64.1273 44.0083 66.1272 43.5758C68.2975 43.0134 70.1272 44.0515 71.2337 46.0415Z" fill="#112BF4"/>
<path fill-rule="evenodd" clip-rule="evenodd" d="M55.2762 25.1904C48.4678 25.1904 42.9785 30.8141 42.9785 37.6922V74.3758H77.8716C85.0205 74.3758 90.8076 68.4925 90.8076 61.2251V37.5192C90.8076 30.7276 85.3609 25.1904 78.6801 25.1904H55.2762Z" fill="white"/>
<path d="M78.2972 45.6636H78.2892L69.7003 47.7395L72.0464 47.1727C72.0464 47.1727 72.0464 47.1644 72.0384 47.1644C71.8777 46.7224 71.6928 46.3056 71.484 45.9221C70.2948 43.7379 68.3586 42.6291 66.0044 43.2044C63.8432 43.7213 62.5898 45.3386 62.2202 47.5645C62.2121 47.6395 62.1962 47.7063 62.1881 47.7812C62.1801 47.8563 62.172 47.9397 62.1559 48.0146C62.1479 48.098 62.1398 48.1731 62.1318 48.2564L55.7444 49.8487C55.7364 44.138 59.0786 39.061 64.7671 37.6771C71.4037 36.0514 75.8949 40.003 77.791 44.3464C78 44.78 78.1607 45.2218 78.2972 45.6636Z" fill="#112BF4"/>
<path d="M78.2345 57.213C76.5983 59.4686 74.2564 61.1867 70.8477 62.009C64.5919 63.491 58.8974 60.6004 56.5955 54.7376L62.9717 53.2719L63.9422 53.0521L62.9717 53.2801C64.3191 56.1707 66.7653 57.2701 69.6927 56.5779C71.5535 56.1301 72.8929 55.2018 73.9997 53.8745C74.3928 53.4103 74.7857 53.1334 75.4835 52.9625C76.9914 52.5879 78.2906 53.4592 78.6436 55.0063C78.8601 55.8939 78.6035 56.6105 78.2345 57.213Z" fill="#00BE7E"/>
<path d="M76.8389 50.1914L67.8157 52.3802L63.1791 53.499L56.8087 55.0394C56.7926 54.9989 56.7765 54.9583 56.7604 54.9178C56.5023 54.253 56.2766 53.5638 56.1072 52.8261L56.0911 52.737C55.9539 52.1047 55.8492 51.4561 55.7846 50.8237H55.8009C55.7605 50.4021 55.7444 49.9887 55.7444 49.5753L62.155 48.0269L71.533 45.7568H71.5412L77.8793 44.2246C78.0727 44.6543 78.242 45.0839 78.3792 45.5218H78.3711C78.4759 45.8379 78.5485 46.1459 78.6211 46.4459C79.0162 48.1565 78.2259 49.5996 76.8389 50.1914Z" fill="#195EF7"/>
</svg>
