<svg width="300" height="100" viewBox="0 0 300 100" fill="none" xmlns="http://www.w3.org/2000/svg">
<rect width="300" height="100" fill="white"/>
<g clip-path="url(#clip0_298_12230)">
<path d="M72.7969 63.8463H87.1559V49.4873C83.3477 49.4873 79.6954 51.0001 77.0025 53.693C74.3097 56.3858 72.7969 60.038 72.7969 63.8463Z" fill="#7557D3"/>
<path d="M56.8984 49.4873V63.8463H71.2573C71.2573 61.9601 70.886 60.0926 70.1643 58.3501C69.4427 56.6078 68.3848 55.0246 67.0515 53.6911C65.718 52.3578 64.135 51.3003 62.393 50.579C60.6508 49.8576 58.7838 49.4866 56.8984 49.4873Z" fill="#7557D3"/>
<path d="M41 49.4873C41 51.3735 41.3715 53.241 42.0931 54.9835C42.8148 56.7258 43.8725 58.309 45.2059 59.6423C46.5393 60.9758 48.1223 62.0333 49.8644 62.7546C51.6065 63.476 53.4735 63.847 55.359 63.8463V49.4873H41Z" fill="#7557D3"/>
<path d="M169.99 36.1543L163.281 54.567L156.628 36.1543H150.743L160.438 61.7137L157.414 70.0005H163.046L175.871 36.1543H169.99Z" fill="black"/>
<path d="M256.645 36.1543C257.043 36.1549 257.435 36.2464 257.783 36.4199C258.143 36.593 258.44 36.8554 258.637 37.1754C258.842 37.4876 258.948 37.8423 258.948 38.2033C258.948 38.5644 258.842 38.9191 258.637 39.2313C258.442 39.5501 258.147 39.8122 257.788 39.9868C257.437 40.1638 257.04 40.2569 256.637 40.2569C256.233 40.2569 255.837 40.1638 255.487 39.9868C255.13 39.811 254.835 39.5491 254.637 39.2313C254.437 38.9188 254.332 38.5652 254.333 38.2056C254.335 37.8443 254.442 37.4893 254.642 37.1754C254.84 36.8541 255.138 36.5914 255.502 36.4199C255.85 36.2446 256.245 36.1531 256.645 36.1543ZM256.645 36.5573C256.327 36.5569 256.012 36.6295 255.733 36.7679C255.443 36.9081 255.203 37.1194 255.043 37.3769C254.882 37.6293 254.795 37.9147 254.792 38.2056C254.792 38.4948 254.877 38.779 255.038 39.0298C255.198 39.2861 255.435 39.4971 255.723 39.6388C256.005 39.7827 256.323 39.8584 256.648 39.8584C256.972 39.8584 257.29 39.7827 257.572 39.6388C257.858 39.4958 258.095 39.285 258.257 39.0298C258.418 38.779 258.503 38.4948 258.503 38.2056C258.502 37.9147 258.413 37.6293 258.252 37.3769C258.1 37.1168 257.867 36.9008 257.582 36.7541C257.293 36.6175 256.972 36.5496 256.645 36.5573ZM255.615 39.3046V37.1296H256.897C257.03 37.1324 257.16 37.1621 257.278 37.2166C257.375 37.2657 257.455 37.3368 257.51 37.4227C257.572 37.5189 257.603 37.6279 257.603 37.7386C257.605 37.8881 257.543 38.0327 257.428 38.1416C257.298 38.2579 257.127 38.3306 256.943 38.3476C257.005 38.3653 257.063 38.3932 257.113 38.43C257.175 38.4792 257.23 38.5346 257.278 38.5949C257.278 38.6178 257.355 38.7047 257.458 38.8604L257.747 39.3183H257.133L256.928 38.9657C256.847 38.7959 256.732 38.6406 256.588 38.5079C256.487 38.4451 256.367 38.413 256.243 38.4163H256.115V39.3321L255.615 39.3046ZM256.13 38.0683H256.332C256.503 38.074 256.675 38.0648 256.845 38.0408C256.912 38.0209 256.968 37.9843 257.01 37.9355C257.048 37.8852 257.067 37.8263 257.067 37.7661C257.07 37.7084 257.05 37.6517 257.01 37.6058C256.968 37.5563 256.908 37.5209 256.84 37.5051C256.672 37.4761 256.498 37.4653 256.325 37.473H256.125L256.13 38.0683Z" fill="black"/>
<path d="M246.555 36.2295V39.6911C245.425 38.3975 244.015 37.3633 242.425 36.6628C240.837 35.9622 239.107 35.6126 237.363 35.6391C229.992 35.6391 224.59 41.5623 224.59 48.971C224.59 56.3798 229.972 62.303 237.363 62.303C239.105 62.3285 240.832 61.9805 242.42 61.2835C244.008 60.5865 245.42 59.5577 246.555 58.2702V61.7078H252.283V36.2295H246.555ZM238.503 57.2845C233.905 57.2845 230.422 53.5992 230.422 48.9568C230.422 44.3144 233.845 40.6291 238.503 40.6291C243.16 40.6291 246.555 44.3382 246.555 48.9568C246.555 53.5753 243.097 57.2845 238.503 57.2845Z" fill="black"/>
<path d="M187.895 35.6391C189.606 35.6129 191.303 35.9632 192.862 36.6647C194.421 37.3663 195.804 38.4017 196.911 39.6965V36.2296H202.538V61.7127H196.911V58.2742C195.798 59.56 194.413 60.5873 192.855 61.2837C191.297 61.9798 189.603 62.3278 187.895 62.3032C180.659 62.3032 175.359 56.4027 175.359 48.9687C175.359 41.5348 180.659 35.6391 187.895 35.6391ZM189.008 57.2885C193.517 57.2885 196.911 53.6023 196.911 48.9592C196.911 44.3159 193.55 40.6299 189.008 40.6299C184.466 40.6299 181.082 44.3398 181.082 48.9592C181.082 53.5787 184.5 57.2885 189.008 57.2885Z" fill="black"/>
<path d="M149.72 46.0276V61.7915H144.102V46.5053C144.102 43.0515 141.763 40.6392 138.374 40.6392C134.875 40.6392 131.772 43.5484 131.772 47.7138V61.7915H126.13V36.23H131.772V39.6312C132.657 38.3987 133.822 37.394 135.17 36.6997C136.518 36.0054 138.012 35.6415 139.529 35.6377C145.663 35.6377 149.72 39.7315 149.72 46.0276Z" fill="black"/>
<path d="M109.639 57.6853C113.255 57.6853 115.818 56.4043 118.328 53.9472L121.37 56.8758C118.555 60.0662 115.017 62.3043 109.711 62.3043C101.113 62.3043 95.3586 56.4043 95.3586 48.971C95.3586 41.5377 101.292 35.6377 109.214 35.6377C117.011 35.6377 122.538 41.4139 122.538 48.4663C122.536 49.2093 122.453 49.95 122.292 50.6758H101.142C101.693 54.7377 105.081 57.6853 109.639 57.6853ZM101.321 46.4282H116.639C115.919 42.8663 113.028 40.2853 109.19 40.2853C107.371 40.2964 105.609 40.9071 104.183 42.0202C102.757 43.1334 101.75 44.685 101.321 46.4282Z" fill="black"/>
<path d="M72.7969 33.5869C72.7969 37.3951 74.3097 41.0474 77.0025 43.7403C79.6954 46.4331 83.3477 47.9458 87.1559 47.9458V33.5869H72.7969Z" fill="#7557D3"/>
<path d="M56.8984 47.9458C58.7838 47.9465 60.6508 47.5755 62.393 46.8542C64.135 46.1329 65.718 45.0754 67.0515 43.742C68.3848 42.4085 69.4427 40.8254 70.1643 39.083C70.886 37.3406 71.2573 35.473 71.2573 33.5869H56.8984V47.9458Z" fill="#7557D3"/>
<path d="M41 47.9458H55.359V33.5869C53.4735 33.5863 51.6065 33.9572 49.8644 34.6785C48.1223 35.3999 46.5393 36.4574 45.2059 37.7908C43.8725 39.1243 42.8148 40.7074 42.0931 42.4498C41.3715 44.1923 41 46.0598 41 47.9458Z" fill="#7557D3"/>
<path d="M223.052 58.0287V57.3873H220.647C217.417 57.3873 216.175 56.028 216.175 53.1897V41.0612H222.73V36.1217H216.195V30H210.54V36.1265H205.616V41.066H210.555V53.4433C210.555 59.4167 213.53 62.3077 218.94 62.3077C219.103 62.3077 219.272 62.3077 219.422 62.3077H223.047V58.0335L223.052 58.0287Z" fill="black"/>
</g>
<defs>
<clipPath id="clip0_298_12230">
<rect width="218.333" height="40" fill="white" transform="translate(41 30)"/>
</clipPath>
</defs>
</svg>
