<svg width="300" height="100" viewBox="0 0 300 100" fill="none" xmlns="http://www.w3.org/2000/svg">
<rect width="300" height="100" fill="white"/>
<g clip-path="url(#clip0_298_12211)">
<path d="M73.7745 35.5719C77.143 34.5216 80.4129 33.9992 83.2557 33.9992C86.3327 33.9992 88.9094 34.6117 90.5653 35.83C91.79 36.7309 92.3852 37.8758 92.3852 39.3301C92.3852 39.6243 92.3562 39.9288 92.3065 40.2399C87.9184 37.4736 80.6328 37.2975 72.5887 39.8059C64.8782 42.2099 58.1848 46.5312 54.1258 51.2816C55.2426 46.1019 62.8525 38.9774 73.7745 35.5719ZM72.5887 56.3048C65.5737 58.4918 58.9835 58.3904 55.798 56.0465C55.7374 56.0019 55.6795 55.9562 55.6219 55.9104C58.5306 51.3548 65.1096 46.3118 73.7745 43.61C77.143 42.5599 80.4129 42.0373 83.2557 42.0373C86.3327 42.0373 88.9094 42.65 90.5653 43.8681C90.6266 43.9131 90.682 43.9606 90.7401 44.0069C87.8307 48.5619 81.2524 53.6037 72.5887 56.3048ZM63.129 61.8772C66.3596 61.8772 69.9835 61.2908 73.7745 60.109C86.4447 56.1585 96.3695 47.0314 96.3695 39.3301C96.3695 36.5975 95.1792 34.2774 92.9264 32.6205C88.6259 29.4564 81.0229 29.1374 72.5887 31.7678C59.9186 35.7182 49.9939 44.8454 49.9939 52.5466C49.9939 53.9367 50.3035 55.2193 50.9029 56.3631C50.3114 57.7908 49.9939 59.2106 49.9939 60.5851C49.9939 63.3173 51.1842 65.6374 53.4367 67.2944C55.8043 69.0362 59.1716 69.9155 63.1287 69.9155C66.3593 69.9155 69.9835 69.3293 73.7745 68.1468C77.0608 67.1222 80.1596 65.7474 82.9512 64.1415L81.226 60.5485C78.6805 62.036 75.7772 63.3489 72.5887 64.3432C65.5744 66.5298 58.984 66.4292 55.798 64.0849C54.5734 63.1842 53.9783 62.0393 53.9783 60.5851C53.9783 60.2907 54.0072 59.9861 54.0571 59.6748C56.3768 61.1371 59.5044 61.8772 63.129 61.8772Z" fill="#5A50FE"/>
<path d="M111.289 60.0168C109.354 60.0168 107.639 59.6049 106.143 58.7813C104.646 57.9517 103.472 56.7939 102.621 55.2958C101.77 53.7978 101.345 52.073 101.345 50.1094C101.345 48.1279 101.764 46.3613 102.602 44.8108C103.44 43.2632 104.601 42.057 106.085 41.1928C107.568 40.3286 109.316 39.8965 111.328 39.8965C113.211 39.8965 114.875 40.3095 116.32 41.1349C117.764 41.9603 118.893 43.0889 119.706 44.5207C120.518 45.9525 120.924 47.5431 120.924 49.2977C120.924 49.5842 120.918 49.8826 120.905 50.187C120.892 50.4973 120.873 50.8196 120.847 51.1598H106.259C106.362 52.6519 106.884 53.8277 107.826 54.6751C108.767 55.5286 109.909 55.9524 111.25 55.9524C112.257 55.9524 113.102 55.7315 113.785 55.278C114.468 54.8244 114.978 54.2395 115.314 53.5173H120.344C119.982 54.7289 119.383 55.833 118.545 56.8237C117.706 57.8204 116.674 58.6023 115.449 59.1693C114.224 59.7363 112.837 60.0168 111.289 60.0168ZM111.328 43.9209C110.115 43.9209 109.045 44.2629 108.116 44.9462C107.188 45.6296 106.594 46.6657 106.336 48.0623H115.894C115.817 46.797 115.352 45.7914 114.501 45.043C113.65 44.2951 112.592 43.9209 111.328 43.9209Z" fill="black"/>
<path d="M126.419 59.5517L119.377 40.3613H124.562L129.437 54.8726L134.313 40.3613H139.498L132.417 59.5517H126.419Z" fill="black"/>
<path d="M147.934 60.0168C145.999 60.0168 144.283 59.6049 142.787 58.7813C141.291 57.9517 140.117 56.7939 139.266 55.2958C138.415 53.7978 137.989 52.073 137.989 50.1094C137.989 48.1279 138.408 46.3613 139.247 44.8108C140.085 43.2632 141.246 42.057 142.729 41.1928C144.212 40.3286 145.96 39.8965 147.972 39.8965C149.855 39.8965 151.519 40.3095 152.964 41.1349C154.409 41.9603 155.537 43.0889 156.35 44.5207C157.162 45.9525 157.569 47.5431 157.569 49.2977C157.569 49.5842 157.562 49.8826 157.55 50.187C157.537 50.4973 157.518 50.8196 157.491 51.1598H142.903C143.006 52.6519 143.529 53.8277 144.47 54.6751C145.412 55.5286 146.554 55.9524 147.895 55.9524C148.901 55.9524 149.746 55.7315 150.43 55.278C151.113 54.8244 151.623 54.2395 151.958 53.5173H156.988C156.627 54.7289 156.027 55.833 155.189 56.8237C154.351 57.8204 153.319 58.6023 152.094 59.1693C150.868 59.7363 149.481 60.0168 147.934 60.0168ZM147.972 43.9209C146.76 43.9209 145.69 44.2629 144.761 44.9462C143.832 45.6296 143.238 46.6657 142.981 48.0623H152.538C152.461 46.797 151.997 45.7914 151.145 45.043C150.294 44.2951 149.237 43.9209 147.972 43.9209Z" fill="black"/>
<path d="M158.652 59.5512V40.3608H163.064L163.528 43.9597C164.225 42.7213 165.172 41.7347 166.372 40.9994C167.572 40.2641 168.984 39.8965 170.609 39.8965V45.1205H169.216C168.133 45.1205 167.165 45.2882 166.314 45.6236C165.463 45.9591 164.798 46.5404 164.321 47.364C163.844 48.1876 163.605 49.3395 163.605 50.8077V59.5512H158.652Z" fill="black"/>
<path d="M179.586 60.0168C177.884 60.0168 176.387 59.7422 175.098 59.1872C173.808 58.6321 172.776 57.8622 172.002 56.8834C171.228 55.9046 170.764 54.7706 170.609 53.4815H175.601C175.756 54.2275 176.175 54.8661 176.858 55.3913C177.542 55.9225 178.426 56.1851 179.509 56.1851C180.593 56.1851 181.386 55.9703 181.889 55.5286C182.392 55.0929 182.643 54.5856 182.643 54.0187C182.643 53.195 182.282 52.634 181.56 52.3356C180.838 52.0431 179.832 51.7507 178.542 51.4642C177.716 51.2852 176.878 51.0644 176.026 50.8077C175.175 50.5511 174.395 50.2228 173.686 49.8229C172.976 49.4231 172.402 48.9038 171.964 48.2712C171.525 47.6445 171.305 46.8627 171.305 45.9328C171.305 44.2307 171.983 42.7989 173.337 41.638C174.692 40.4772 176.594 39.8965 179.045 39.8965C181.315 39.8965 183.127 40.4253 184.482 41.4829C185.836 42.5404 186.642 43.9985 186.9 45.8558H182.218C181.934 44.4366 180.864 43.7275 179.006 43.7275C178.078 43.7275 177.361 43.9078 176.858 44.2689C176.355 44.6306 176.104 45.0817 176.104 45.6236C176.104 46.1882 176.478 46.6418 177.226 46.9761C177.974 47.3162 178.967 47.6206 180.206 47.9071C181.547 48.2175 182.779 48.5577 183.901 48.9337C185.023 49.3037 185.92 49.8587 186.59 50.5988C187.261 51.3329 187.596 52.3833 187.596 53.7501C187.622 54.9378 187.313 56.0061 186.668 56.961C186.023 57.9159 185.094 58.662 183.882 59.2051C182.669 59.7482 181.237 60.0168 179.586 60.0168Z" fill="black"/>
<path d="M198.199 60.0168C196.264 60.0168 194.549 59.6049 193.053 58.7813C191.556 57.9517 190.382 56.7939 189.531 55.2958C188.68 53.7978 188.254 52.073 188.254 50.1094C188.254 48.1279 188.674 46.3613 189.512 44.8108C190.35 43.2632 191.511 42.057 192.995 41.1928C194.478 40.3286 196.225 39.8965 198.238 39.8965C200.121 39.8965 201.785 40.3095 203.229 41.1349C204.674 41.9603 205.803 43.0889 206.616 44.5207C207.428 45.9525 207.834 47.5431 207.834 49.2977C207.834 49.5842 207.828 49.8826 207.815 50.187C207.802 50.4973 207.782 50.8196 207.757 51.1598H193.168C193.272 52.6519 193.794 53.8277 194.736 54.6751C195.677 55.5286 196.819 55.9524 198.16 55.9524C199.167 55.9524 200.011 55.7315 200.695 55.278C201.378 54.8244 201.888 54.2395 202.224 53.5173H207.254C206.892 54.7289 206.293 55.833 205.454 56.8237C204.616 57.8204 203.584 58.6023 202.359 59.1693C201.134 59.7363 199.747 60.0168 198.199 60.0168ZM198.238 43.9209C197.025 43.9209 195.954 44.2629 195.026 44.9462C194.097 45.6296 193.504 46.6657 193.246 48.0623H202.804C202.727 46.797 202.262 45.7914 201.411 45.043C200.56 44.2951 199.502 43.9209 198.238 43.9209Z" fill="black"/>
<path d="M208.917 59.5512V40.3608H213.29L213.677 43.6111C214.27 42.476 215.128 41.5736 216.25 40.9028C217.373 40.2319 218.695 39.8965 220.217 39.8965C222.59 39.8965 224.434 40.6443 225.75 42.1406C227.066 43.6368 227.723 45.8296 227.723 48.7188V59.5512H222.77V49.1843C222.77 47.5311 222.435 46.2659 221.764 45.3915C221.094 44.5142 220.049 44.0755 218.63 44.0755C217.237 44.0755 216.095 44.5655 215.206 45.5461C214.316 46.5284 213.871 47.8952 213.871 49.6499V59.5512H208.917Z" fill="black"/>
<path d="M238.172 60.017C236.366 60.017 234.753 59.5813 233.334 58.704C231.916 57.8267 230.794 56.627 229.968 55.1051C229.142 53.5832 228.73 51.8524 228.73 49.9187C228.73 47.985 229.142 46.2601 229.968 44.7532C230.794 43.2438 231.916 42.0573 233.334 41.1931C234.753 40.3289 236.366 39.8968 238.172 39.8968C239.616 39.8968 240.88 40.1677 241.963 40.7096C243.047 41.251 243.924 42.0119 244.595 42.9925V31.6934H249.548V59.5515H245.137L244.595 56.8061C243.976 57.6596 243.157 58.4056 242.138 59.0502C241.119 59.6948 239.797 60.017 238.172 60.017ZM239.216 55.6841C240.816 55.6841 242.125 55.1469 243.144 54.0786C244.163 53.0103 244.672 51.6316 244.672 49.9605C244.672 48.2834 244.163 46.9047 243.144 45.8364C242.125 44.7657 240.816 44.2309 239.216 44.2309C237.643 44.2309 236.34 44.7597 235.308 45.8173C234.276 46.8749 233.76 48.2416 233.76 49.9187C233.76 51.5958 234.276 52.9744 235.308 54.0607C236.34 55.1409 237.643 55.6841 239.216 55.6841Z" fill="black"/>
</g>
<defs>
<clipPath id="clip0_298_12211">
<rect width="199.602" height="40" fill="white" transform="translate(50 30)"/>
</clipPath>
</defs>
</svg>
