<svg width="300" height="100" viewBox="0 0 300 100" fill="none" xmlns="http://www.w3.org/2000/svg">
<rect width="300" height="100" fill="white"/>
<g clip-path="url(#clip0_291_3303)">
<mask id="mask0_291_3303" style="mask-type:luminance" maskUnits="userSpaceOnUse" x="46" y="30" width="208" height="39">
<path d="M46.9229 30H253.077V68.6764H46.9229V30Z" fill="white"/>
</mask>
<g mask="url(#mask0_291_3303)">
<path fill-rule="evenodd" clip-rule="evenodd" d="M152.12 30H162.074L166.773 50.4067H166.984L171.801 30H181.471V57.9578H175.55V36.8476H175.28L170.064 57.9578H163.411L158.314 36.8476H158.044V57.9578H152.12V30ZM46.9229 30H65.4366V35.2092H53.2204V41.0047H64.8869V46.0615H53.2204V52.7402H65.4366V57.9578H46.9229V30ZM73.8956 57.9578L80.238 49.8494L84.1956 53.8313L75.1416 65.1059H82.2256L88.0225 57.6357L98.9327 68.6764H107.482L91.8025 52.9972L104.15 37.4805H97.0651L87.9386 49.1319L83.988 45.1862L94.1394 32.469H87.0708L80.1401 41.3415L76.3741 37.4805H67.9421L76.436 46.0084L66.8371 57.9578H73.8956ZM216.282 57.9578L216.346 56.3822C216.771 56.7017 218.657 58.4264 222.605 58.4264C227.796 58.4264 232.613 53.8013 232.613 47.7218C232.613 41.6304 228.092 37.0054 222.674 37.0054C218.532 37.0054 216.637 38.8934 216.346 39.1039V30H210.493V57.9578H216.282ZM226.432 47.7071C226.432 50.5944 224.206 52.8379 221.29 52.8379C218.342 52.8379 216.128 50.6019 216.128 47.7218C216.128 44.8064 218.372 42.5938 221.297 42.5938C224.236 42.5938 226.432 44.8264 226.432 47.7071ZM246.974 30H253.077V56.5974V57.9578H246.974V30ZM236.166 35.2098H242.268V30H236.166V35.2098ZM236.166 37.4805H242.268V56.5974V57.9578H236.166V37.4805ZM102.326 47.7212C102.326 53.6279 107.085 58.4254 113.312 58.4254C119.54 58.4254 124.298 53.6279 124.298 47.7212C124.298 41.8147 119.54 37.006 113.312 37.006C107.085 37.006 102.326 41.8147 102.326 47.7212ZM108.268 47.7209C108.268 44.8895 110.394 42.5645 113.35 42.5645C116.307 42.5645 118.434 44.8895 118.434 47.7209C118.434 50.5513 116.307 52.8776 113.35 52.8776C110.394 52.8776 108.268 50.5513 108.268 47.7209ZM184.997 47.719C184.997 53.6261 189.756 58.4229 195.982 58.4229C202.211 58.4229 206.969 53.6254 206.969 47.719C206.969 41.8126 202.211 37.0038 195.982 37.0038C189.756 37.0038 184.997 41.8126 184.997 47.719ZM190.939 47.7184C190.939 44.8867 193.065 42.5623 196.021 42.5623C198.978 42.5623 201.105 44.8867 201.105 47.7184C201.105 50.5488 198.978 52.8751 196.021 52.8751C193.065 52.8751 190.939 50.5488 190.939 47.7184ZM127.659 37.4805H133.359V39.4169C133.971 38.8856 135.947 37.0035 139.597 37.0035C143.891 37.0035 147.301 40.1588 147.301 45.11V57.9578H141.28V46.7006C141.28 43.9411 139.929 42.3042 137.479 42.3042C135.104 42.3042 133.677 43.8468 133.677 46.7006V57.9578H127.659V37.4805Z" fill="#FF0000"/>
</g>
</g>
<defs>
<clipPath id="clip0_291_3303">
<rect width="206.154" height="40" fill="white" transform="translate(46.9229 30)"/>
</clipPath>
</defs>
</svg>
