<svg width="300" height="100" viewBox="0 0 300 100" fill="none" xmlns="http://www.w3.org/2000/svg">
<rect width="300" height="100" fill="white"/>
<g clip-path="url(#clip0_298_12201)">
<path d="M129.203 48.4103H118.123C118.291 47.4207 118.717 46.4928 119.358 45.72C119.999 44.9473 120.832 44.357 121.773 44.0085C122.715 43.66 123.732 43.5656 124.721 43.7349C125.711 43.9042 126.638 44.3311 127.41 44.9727C128.414 45.8562 129.053 47.0816 129.203 48.4103ZM133.48 51.4404C133.528 50.8555 133.557 50.4048 133.557 50.0884C133.593 48.2511 133.157 46.4352 132.291 44.8145C131.482 43.3236 130.264 42.0944 128.781 41.2714C127.222 40.4135 125.465 39.9788 123.685 40.0105C121.872 39.9819 120.084 40.4229 118.492 41.2906C116.98 42.1185 115.732 43.3566 114.892 44.8625C114.014 46.4297 113.566 48.2011 113.592 49.9973C113.572 51.8055 114.039 53.5859 114.944 55.1513C115.838 56.6778 117.151 57.9158 118.727 58.7184C120.31 59.4731 122.028 59.9043 123.78 59.9866C125.532 60.0689 127.283 59.8008 128.93 59.1978C130.223 58.6922 131.368 57.8676 132.257 56.8006L130.766 55.1273H130.742C130.473 54.8611 130.12 54.6979 129.743 54.6664C129.366 54.6348 128.99 54.7369 128.681 54.9547C127.437 55.7682 125.976 56.1845 124.49 56.1486C122.983 56.2015 121.5 55.7567 120.271 54.8828C119.146 54.0654 118.39 52.8368 118.166 51.4644L133.48 51.4404ZM147.547 61.3122L156.685 40.2166H153.717C153.295 40.2182 152.882 40.3405 152.527 40.569C152.172 40.7975 151.889 41.1227 151.713 41.5063L146.108 54.6623L140.523 41.5639C140.357 41.171 140.081 40.8346 139.728 40.5955C139.374 40.3564 138.96 40.2248 138.533 40.2166H135.201L143.711 59.8163L143.38 60.5834C143.067 61.3797 142.575 62.0933 141.942 62.669C141.367 63.097 140.663 63.3153 139.947 63.2875C139.327 63.2861 138.713 63.1623 138.14 62.9231C138.058 62.8902 137.978 62.8534 137.9 62.8128C137.706 62.7453 137.502 62.7113 137.296 62.7121C136.953 62.7111 136.616 62.8062 136.323 62.9867C136.031 63.1671 135.795 63.4258 135.642 63.7334C135.633 63.7452 135.622 63.755 135.609 63.7621L134.769 65.3011C135.447 65.9001 136.245 66.348 137.109 66.6148C138.036 66.9281 139.007 67.09 139.986 67.0943C141.559 67.1408 143.107 66.6876 144.406 65.7998C145.627 64.9304 146.664 63.4361 147.518 61.317M173.969 50.0021C173.971 51.2108 173.614 52.3928 172.944 53.3987C172.274 54.4045 171.32 55.1889 170.204 55.6525C169.087 56.1162 167.859 56.2382 166.673 56.0032C165.488 55.7683 164.398 55.1868 163.543 54.3325C162.688 53.4781 162.106 52.3893 161.87 51.2039C161.634 50.0185 161.755 48.7897 162.218 47.6731C162.681 46.5565 163.464 45.6023 164.47 44.9313C165.475 44.2603 166.657 43.9026 167.866 43.9036C169.485 43.9036 171.038 44.5464 172.183 45.6909C173.328 46.8354 173.972 48.3877 173.974 50.0069M177.867 50.0069C177.867 48.0288 177.28 46.0952 176.181 44.4505C175.082 42.8058 173.52 41.524 171.693 40.767C169.865 40.01 167.854 39.812 165.914 40.1979C163.974 40.5838 162.192 41.5363 160.794 42.935C159.395 44.3337 158.442 46.1157 158.056 48.0557C157.671 49.9958 157.869 52.0067 158.626 53.8342C159.383 55.6617 160.664 57.2236 162.309 58.3226C163.954 59.4215 165.887 60.0081 167.866 60.0081C169.179 60.0087 170.48 59.7505 171.694 59.2481C172.907 58.7457 174.01 58.009 174.939 57.0802C175.868 56.1514 176.604 55.0486 177.107 53.8349C177.609 52.6212 177.867 51.3204 177.867 50.0069ZM205.176 59.7252L212.367 40.1975H209.889C209.433 40.1908 208.986 40.3255 208.61 40.5831C208.234 40.8407 207.947 41.2084 207.789 41.6358L202.994 54.6911L197.72 40.2118H193.885L188.544 54.6239L183.893 41.6262C183.732 41.2116 183.45 40.8552 183.083 40.6037C182.716 40.3522 182.281 40.2173 181.836 40.2166H179.08L186.238 59.7252H190.625L195.745 46.3008L200.789 59.7252H205.176ZM229.69 49.9781C229.696 51.1878 229.344 52.3722 228.676 53.3812C228.009 54.3902 227.057 55.1783 225.941 55.6456C224.826 56.1129 223.596 56.2384 222.409 56.0061C221.222 55.7739 220.13 55.1943 219.273 54.341C218.415 53.4876 217.831 52.3989 217.593 51.2128C217.355 50.0267 217.475 48.7967 217.937 47.6787C218.399 46.5607 219.182 45.6051 220.188 44.933C221.194 44.2609 222.377 43.9026 223.586 43.9036C224.388 43.9036 225.182 44.0614 225.922 44.3682C226.663 44.6749 227.335 45.1244 227.902 45.6912C228.469 46.2579 228.918 46.9308 229.225 47.6712C229.532 48.4117 229.69 49.2054 229.69 50.0069M233.588 50.0069C233.59 48.0284 233.005 46.0939 231.907 44.4479C230.809 42.802 229.248 41.5186 227.42 40.7601C225.593 40.0017 223.582 39.8023 221.641 40.1871C219.701 40.5719 217.918 41.5237 216.518 42.922C215.118 44.3203 214.165 46.1023 213.778 48.0426C213.391 49.9829 213.589 51.9943 214.346 53.8224C215.102 55.6504 216.384 57.2129 218.029 58.3123C219.674 59.4117 221.608 59.9985 223.586 59.9985C224.9 59.9991 226.201 59.7409 227.414 59.2385C228.628 58.7361 229.731 57.9994 230.66 57.0706C231.589 56.1418 232.325 55.039 232.828 53.8253C233.33 52.6117 233.588 51.3109 233.588 49.9973" fill="black"/>
<path d="M107 49.9975C107 46.0414 105.827 42.1742 103.629 38.8848C101.431 35.5954 98.3071 33.0317 94.6521 31.5177C90.9971 30.0038 86.9753 29.6077 83.0952 30.3795C79.2152 31.1513 75.6511 33.0563 72.8537 35.8537C70.0563 38.6511 68.1513 42.2152 67.3795 46.0952C66.6077 49.9753 67.0038 53.9971 68.5177 57.6521C70.0317 61.3071 72.5954 64.431 75.8848 66.6289C79.1742 68.8268 83.0414 69.9999 86.9975 69.9999C92.3025 69.9999 97.3902 67.8925 101.141 64.1414C104.893 60.3902 107 55.3025 107 49.9975Z" fill="#FD6C00"/>
<path d="M92.9617 42.7097C92.737 43.1532 92.4405 43.5566 92.0844 43.9035C91.9054 44.0761 91.7147 44.2363 91.5138 44.3829C91.4131 44.45 91.3125 44.522 91.2022 44.5843C91.1484 44.6185 91.0923 44.6489 91.0344 44.6754L90.9912 44.6994H90.9577L90.9049 44.7233C90.761 44.7928 90.6343 44.8933 90.534 45.0177C90.4336 45.142 90.3622 45.2871 90.3248 45.4425C90.3058 45.5145 90.2962 45.5886 90.296 45.663C90.2937 45.6982 90.2937 45.7334 90.296 45.7685C90.2938 45.786 90.2938 45.8037 90.296 45.8213V45.8836C90.3723 46.1909 90.359 46.5137 90.2577 46.8137C90.169 47.1013 90.0138 47.3641 89.8048 47.5806C89.5957 47.7972 89.3386 47.9615 89.0543 48.0603C88.8245 48.1376 88.6261 48.2873 88.4885 48.487C88.3582 48.6596 88.3013 48.8767 88.3303 49.0911V49.4171C88.3353 49.7801 88.2263 50.1356 88.0187 50.4335C87.7655 50.8109 87.3947 51.0941 86.9639 51.239L86.868 51.2677L86.7817 51.3061L86.6235 51.3924C86.525 51.4599 86.4376 51.5424 86.3646 51.6369C86.2954 51.7195 86.2432 51.815 86.2111 51.9178C86.179 52.0207 86.1676 52.1289 86.1776 52.2362V52.2794C86.1799 52.3097 86.1799 52.3401 86.1776 52.3705V52.5622C86.1822 52.9312 86.0734 53.2927 85.866 53.5978C85.737 53.7939 85.5747 53.9659 85.3865 54.106C85.2958 54.1783 85.1977 54.2409 85.0941 54.293L84.9359 54.3649L84.8591 54.3937H84.792C84.5759 54.4622 84.3898 54.6027 84.2646 54.7916C84.2098 54.8838 84.1739 54.986 84.1591 55.0922C84.1443 55.1984 84.1508 55.3065 84.1783 55.4101L84.2023 55.5348V55.7122C84.2143 55.8285 84.2143 55.9458 84.2023 56.0622C84.1787 56.2915 84.112 56.5144 84.0057 56.719C83.7971 57.1318 83.4464 57.4553 83.0181 57.63C82.9859 57.6439 82.9521 57.6536 82.9174 57.6587C82.8798 57.6731 82.8444 57.6925 82.8119 57.7163C82.7404 57.7629 82.6759 57.8194 82.6201 57.8841C82.5084 58.0222 82.4355 58.1877 82.4092 58.3635C82.3996 58.4576 82.3996 58.5523 82.4092 58.6464V58.7998C82.4286 58.8787 82.443 58.9588 82.4523 59.0395C82.493 59.363 82.4568 59.6915 82.3469 59.9984C82.2316 60.3166 82.0268 60.5946 81.7571 60.7991L81.6469 60.8662L81.5366 60.9237L81.4551 60.9621L81.4024 60.9909C81.3242 61.0401 81.2559 61.1035 81.201 61.1778C81.0834 61.3513 81.0155 61.5535 81.0044 61.7628C80.9857 61.9869 81.0151 62.2125 81.0907 62.4244V62.4532C81.1107 62.5193 81.1044 62.5906 81.0731 62.6522C81.0419 62.7138 80.9881 62.761 80.9229 62.784C80.8905 62.7984 80.8553 62.8058 80.8198 62.8058C80.7843 62.8058 80.7492 62.7984 80.7167 62.784L80.5489 62.6833L80.4866 62.6018L80.4243 62.5251C80.3912 62.4806 80.3608 62.4342 80.3332 62.386C80.2716 62.2935 80.2156 62.1975 80.1654 62.0984C80.0573 61.8995 79.9643 61.6928 79.8873 61.4799C79.8088 61.252 79.7589 61.0153 79.7387 60.7751C79.7322 60.6402 79.7419 60.505 79.7675 60.3724C79.7985 60.2096 79.8712 60.0576 79.9784 59.9313L80.0072 59.9025V59.8738C80.0184 59.8505 80.028 59.8265 80.0359 59.8018C80.0564 59.7378 80.0708 59.672 80.0791 59.6053C80.0976 59.446 80.0976 59.2851 80.0791 59.1258C80.0604 58.9636 80.0283 58.8033 79.9832 58.6464C79.9592 58.5697 79.9305 58.4978 79.9017 58.4258C79.8729 58.3539 79.8681 58.3539 79.8538 58.3156L79.8298 58.2676L79.7962 58.2053C79.592 57.8062 79.5056 57.3572 79.5469 56.9108C79.5752 56.6576 79.6586 56.4138 79.7914 56.1964C79.866 56.0834 79.9546 55.9803 80.0551 55.8896C80.1061 55.8424 80.1606 55.7991 80.2181 55.7601C80.2501 55.7454 80.2806 55.7278 80.3092 55.7074L80.3763 55.6738H80.4051C80.5713 55.5558 80.6956 55.3878 80.7599 55.1944C80.7984 55.0814 80.821 54.9636 80.827 54.8444V54.4417C80.7838 54.2043 80.7936 53.9604 80.8558 53.7273C80.9146 53.495 81.0189 53.2766 81.1626 53.0848C81.4329 52.7263 81.8137 52.4668 82.2462 52.3465H82.3612L82.4523 52.3081L82.6297 52.217C82.7409 52.1456 82.8424 52.0602 82.9318 51.9629C83.0155 51.8735 83.0821 51.7695 83.1284 51.6561C83.1457 51.6115 83.157 51.5647 83.1619 51.517C83.1641 51.4963 83.1641 51.4754 83.1619 51.4547V51.2821C83.1782 51.0093 83.264 50.7453 83.4112 50.515C83.5401 50.312 83.7022 50.1321 83.8907 49.9828C84.2379 49.7067 84.648 49.5206 85.0845 49.4411H85.1228C85.3762 49.3748 85.6119 49.2537 85.8132 49.0863C85.9092 49.0068 85.9903 48.911 86.053 48.8034C86.0784 48.7633 86.0978 48.7197 86.1105 48.6739C86.1128 48.6548 86.1128 48.6355 86.1105 48.6164C86.1123 48.6085 86.1123 48.6003 86.1105 48.5924V48.5013C86.1226 48.2314 86.2035 47.969 86.3454 47.739C86.4795 47.5442 86.6409 47.3698 86.8249 47.2212C87.1656 46.9483 87.564 46.7564 87.9899 46.6603C88.3194 46.595 88.6198 46.4272 88.8481 46.1808C88.9338 46.0826 88.9874 45.9604 89.0015 45.8308C89.0039 45.8182 89.0039 45.8052 89.0015 45.7925V45.7589C88.992 45.6777 88.992 45.5956 89.0015 45.5144C89.0084 45.3497 89.0441 45.1874 89.107 45.035C89.2164 44.768 89.3796 44.5265 89.5865 44.3254C89.7768 44.1276 90.0009 43.9653 90.2481 43.8459L90.4351 43.7644L90.5262 43.7309H90.5501C90.6356 43.6924 90.7188 43.6492 90.7995 43.6014C90.9692 43.5026 91.1296 43.3886 91.2789 43.261C91.5864 43.0048 91.8503 42.7004 92.0604 42.3597C92.2789 42.0119 92.4408 41.6316 92.5398 41.233C92.7102 40.3994 92.7102 39.5399 92.5398 38.7063C92.5307 38.6808 92.5267 38.6538 92.528 38.6267C92.5293 38.5996 92.5359 38.5731 92.5475 38.5486C92.5591 38.5241 92.5754 38.5022 92.5955 38.484C92.6155 38.4658 92.639 38.4517 92.6645 38.4426C92.7128 38.4237 92.7667 38.4247 92.8143 38.4454C92.8619 38.466 92.8994 38.5047 92.9186 38.5529V38.5817C93.0932 39.0128 93.2218 39.4611 93.3022 39.9193C93.3904 40.3936 93.4066 40.8785 93.3501 41.3576C93.3501 41.4775 93.3165 41.6021 93.2926 41.722C93.2686 41.8419 93.2398 41.9617 93.2015 42.0816C93.1325 42.3192 93.0427 42.5502 92.933 42.772M95.9487 41.0076C95.4886 39.8094 94.8659 38.6801 94.098 37.6515C93.8479 37.3128 93.574 36.9923 93.2782 36.6926C93.0231 36.816 92.8101 37.0119 92.6659 37.2559C92.5218 37.4998 92.4529 37.7809 92.4679 38.0639C92.382 37.6638 92.2168 37.2851 91.9821 36.9499C91.7475 36.6148 91.448 36.3301 91.1015 36.1125C91.1015 36.1125 82.8215 35.1392 78.5545 44.1911C75.021 51.6992 78.3819 63.1532 80.0695 63.9011C81.7571 64.649 92.4104 59.4375 95.7281 51.8383C97.5644 47.6383 97.1952 43.7692 95.9774 40.9453" fill="white"/>
</g>
<defs>
<clipPath id="clip0_298_12201">
<rect width="166.588" height="40" fill="white" transform="translate(67 30)"/>
</clipPath>
</defs>
</svg>
