<svg width="300" height="100" viewBox="0 0 300 100" fill="none" xmlns="http://www.w3.org/2000/svg">
<rect width="300" height="100" fill="white"/>
<g clip-path="url(#clip0_298_12142)">
<mask id="mask0_298_12142" style="mask-type:luminance" maskUnits="userSpaceOnUse" x="42" y="30" width="215" height="40">
<path d="M256.616 30H42.8672V69.9995H256.616V30Z" fill="white"/>
</mask>
<g mask="url(#mask0_298_12142)">
<path d="M60.9425 33.2255C58.6053 31.3603 55.4901 31.6077 53.4263 31.7705L53.511 32.8317L53.5924 33.8896C55.5324 33.7399 57.9478 33.5478 59.634 34.8954C61.6327 36.4905 62.1925 39.9149 61.8637 42.6004C61.5675 45.0158 60.591 46.9298 59.3801 47.4768C57.6711 48.2514 54.5917 46.5815 51.1477 43.0106C50.1126 41.9396 49.6113 39.6057 50.6562 37.2164C51.7695 34.6708 52.3717 33.9873 53.5891 33.8896L53.5077 32.8317L53.4263 31.7705C50.8417 31.9723 49.8099 33.8831 48.7291 36.3603C47.2415 39.7619 48.1595 42.9618 49.6373 44.4982C50.1451 45.0223 51.6816 46.6173 53.5826 47.9226C55.399 49.1694 57.0298 49.7944 58.4556 49.7944C59.0936 49.7944 59.6893 49.6706 60.2427 49.4201C62.1665 48.5476 63.5532 46.0965 63.9535 42.8641C64.3278 39.827 63.7648 35.4814 60.9425 33.2255Z" fill="#EBA832"/>
<path d="M56.8601 69.7791C54.7344 69.7791 52.5209 69.3071 51.4011 67.5396C49.6824 64.8216 51.8373 60.9186 52.8725 59.0436C53.8783 57.2207 55.4017 54.4636 58.2305 53.5294C61.6517 52.4031 65.548 54.3334 67.843 56.3287C70.2877 58.4512 71.5409 60.9772 71.1959 63.0767C70.8704 65.0331 69.2167 66.6412 66.274 67.8521C64.1452 68.7277 61.9772 69.1411 61.2675 69.2746C60.3007 69.4569 58.6113 69.7791 56.8601 69.7791ZM60.3757 55.3229C59.8614 55.3229 59.36 55.3946 58.8848 55.5507C56.8373 56.2246 55.6589 58.3632 54.7116 60.0787C53.9402 61.4752 52.1368 64.7467 53.1752 66.3906C54.0215 67.7251 56.6127 67.9921 60.8769 67.1816C65.7272 66.2602 68.8065 64.5969 69.1157 62.7252C69.3339 61.4036 68.2955 59.5254 66.4694 57.9401C64.8352 56.5241 62.4915 55.3229 60.3757 55.3229Z" fill="#082645"/>
<path d="M47.3223 58.2572C45.724 58.2572 44.2689 57.1211 43.5235 55.9427C42.6544 54.5691 42.4656 53.6674 42.7488 52.2187C43.045 50.6986 44.435 49.2077 46.056 48.6739C47.6413 48.1499 49.2754 48.4819 50.5384 49.5789C51.7558 50.6367 52.3613 52.2026 52.1237 53.6609C51.7038 56.2097 49.0052 57.9967 47.9473 58.1986C47.739 58.2376 47.5306 58.2572 47.3223 58.2572ZM47.5176 50.5652C47.2507 50.5652 46.9772 50.6076 46.7071 50.6986C45.7077 51.0274 44.946 51.9584 44.8158 52.6289C44.6498 53.4752 44.6889 53.8399 45.2976 54.7969C46.0105 55.9264 47.0651 56.1999 47.5567 56.1056C47.9538 56.0046 49.7962 54.8197 50.0436 53.3126C50.1641 52.5932 49.819 51.7599 49.1647 51.1934C48.6895 50.7801 48.1133 50.5652 47.5176 50.5652Z" fill="#FCB5B5"/>
<path d="M88.2317 36.4056L84.5469 35.8326V33.0332H109.364L109.82 41.1711H106.226L104.56 36.2363L94.8462 35.7415V48.4628L101.552 48.3194L102.398 44.3742H105.276V55.7934H102.45L101.552 51.7439L94.8462 51.5616V63.2933L101.721 63.7489V66.4443H84.7812V63.7489L88.2317 63.2933V36.4056Z" fill="#082645"/>
<path d="M112.366 59.4001C112.366 56.6756 113.737 54.6216 116.481 53.2415C119.222 51.8613 122.77 51.1581 127.119 51.1321V50.1034C127.119 48.873 126.989 47.9126 126.728 47.2258C126.474 46.5325 126.012 46.0149 125.335 45.6764C124.664 45.3313 123.685 45.1556 122.392 45.1556C120.924 45.1556 119.606 45.3444 118.434 45.7154C117.269 46.0898 116.058 46.5748 114.801 47.1738L113.408 44.2962C113.857 43.9056 114.612 43.4433 115.674 42.903C116.741 42.3659 118.007 41.8971 119.476 41.4967C120.94 41.0898 122.457 40.8848 124.02 40.8848C126.328 40.8848 128.134 41.1842 129.436 41.7832C130.738 42.3821 131.669 43.3424 132.236 44.6608C132.809 45.9824 133.095 47.7466 133.095 49.9601V63.7231H135.53V66.2361C134.931 66.3858 134.075 66.5289 132.965 66.6788C131.852 66.8349 130.875 66.9131 130.035 66.9131C129.02 66.9131 128.336 66.7601 127.991 66.4574C127.653 66.1644 127.483 65.5525 127.483 64.6215V63.4106C126.666 64.3058 125.612 65.1129 124.319 65.8324C123.033 66.5518 121.585 66.9131 119.97 66.9131C118.59 66.9131 117.321 66.6201 116.168 66.0408C115.013 65.4516 114.088 64.5954 113.395 63.4756C112.708 62.3495 112.366 60.9888 112.366 59.4001ZM122.848 63.1761C123.473 63.1761 124.189 62.9906 124.996 62.6163C125.81 62.2453 126.52 61.7894 127.119 61.2491V53.8795C124.417 53.8795 122.399 54.3351 121.064 55.2466C119.736 56.1581 119.072 57.3364 119.072 58.7751C119.072 60.2173 119.404 61.311 120.075 62.0565C120.752 62.8051 121.676 63.1761 122.848 63.1761Z" fill="#082645"/>
<path d="M138.349 63.7429L140.875 63.3393V45.7093L137.998 44.902V41.8031L145.458 40.8525L145.992 41.2171L146.669 42.7015V44.5895C147.659 43.626 149.072 42.7796 150.914 42.0504C152.763 41.3148 154.358 40.9437 155.706 40.9437C157.327 40.9437 158.639 41.2139 159.638 41.751C160.644 42.2913 161.402 43.1312 161.917 44.277C162.906 43.3753 164.208 42.5941 165.823 41.9333C167.444 41.2757 169.032 40.9437 170.588 40.9437C173.261 40.9437 175.149 41.7249 176.252 43.2874C177.362 44.8434 177.919 47.3889 177.919 50.9306V63.3393L180.836 63.7429V66.4383H169.195V63.7429L171.539 63.3393V51.1128C171.539 48.7691 171.259 47.1284 170.706 46.191C170.149 45.247 169.091 44.7718 167.529 44.7718C166.695 44.7718 165.836 44.9606 164.95 45.3317C164.065 45.706 163.277 46.1617 162.594 46.6988C162.802 47.8381 162.906 49.2606 162.906 50.9696V63.3393L165.693 63.7429V66.4383H153.961V63.7429L156.422 63.3393V50.9696C156.422 49.4169 156.324 48.1963 156.135 47.3108C155.943 46.4254 155.576 45.7841 155.029 45.3837C154.488 44.9768 153.714 44.7718 152.698 44.7718C151.734 44.7718 150.777 44.9899 149.833 45.4228C148.896 45.859 148.053 46.3733 147.307 46.9723V63.3393L149.951 63.7429V66.4383H138.349V63.7429Z" fill="#082645"/>
<path d="M183.369 59.4001C183.369 56.6756 184.739 54.6216 187.483 53.2415C190.224 51.8613 193.772 51.1581 198.121 51.1321V50.1034C198.121 48.873 197.991 47.9126 197.73 47.2258C197.476 46.5325 197.014 46.0149 196.337 45.6764C195.667 45.3313 194.687 45.1556 193.394 45.1556C191.926 45.1556 190.608 45.3444 189.436 45.7154C188.271 46.0898 187.06 46.5748 185.803 47.1738L184.41 44.2962C184.859 43.9056 185.615 43.4433 186.676 42.903C187.744 42.3659 189.01 41.8971 190.478 41.4967C191.943 41.0898 193.46 40.8848 195.022 40.8848C197.33 40.8848 199.137 41.1842 200.439 41.7832C201.741 42.3821 202.672 43.3424 203.238 44.6608C203.811 45.9824 204.097 47.7466 204.097 49.9601V63.7231H206.532V66.2361C205.933 66.3858 205.077 66.5289 203.967 66.6788C202.854 66.8349 201.877 66.9131 201.038 66.9131C200.022 66.9131 199.338 66.7601 198.993 66.4574C198.655 66.1644 198.486 65.5525 198.486 64.6215V63.4106C197.669 64.3058 196.614 65.1129 195.322 65.8324C194.036 66.5518 192.587 66.9131 190.973 66.9131C189.592 66.9131 188.323 66.6201 187.171 66.0408C186.015 65.4516 185.091 64.5954 184.397 63.4756C183.71 62.3495 183.369 60.9888 183.369 59.4001ZM193.85 63.1761C194.475 63.1761 195.191 62.9906 195.999 62.6163C196.812 62.2453 197.522 61.7894 198.121 61.2491V53.8795C195.419 53.8795 193.401 54.3351 192.066 55.2466C190.738 56.1581 190.074 57.3364 190.074 58.7751C190.074 60.2173 190.406 61.311 191.077 62.0565C191.754 62.8051 192.678 63.1761 193.85 63.1761Z" fill="#082645"/>
<path d="M214.332 62.7334C214.566 63.0916 215.107 63.4301 215.959 63.7491C216.819 64.0616 217.682 64.2178 218.551 64.2178C219.964 64.2178 221.024 63.9281 221.727 63.3454C222.431 62.7563 222.782 61.9848 222.782 61.0278C222.782 60.0383 222.346 59.2375 221.481 58.6189C220.611 58.0038 219.141 57.2485 217.066 56.3533L215.816 55.8065C213.739 54.9406 212.197 53.8924 211.181 52.6684C210.166 51.4381 209.657 49.8429 209.657 47.8899C209.657 46.5455 210.061 45.3444 210.869 44.2832C211.676 43.2155 212.812 42.3821 214.281 41.7832C215.746 41.1842 217.437 40.8848 219.357 40.8848C220.771 40.8848 221.979 40.9759 222.977 41.1582C223.984 41.334 225.042 41.5716 226.156 41.8743C226.754 42.0827 227.199 42.1999 227.496 42.2259V48.1243H223.954L222.912 44.6998C222.731 44.4069 222.321 44.1367 221.689 43.8925C221.064 43.6517 220.347 43.528 219.541 43.528C218.316 43.528 217.334 43.7949 216.597 44.3222C215.859 44.8431 215.491 45.569 215.491 46.4967C215.491 47.3398 215.746 48.0396 216.259 48.5929C216.771 49.1496 217.327 49.5793 217.926 49.8821C218.524 50.1783 219.632 50.6698 221.246 51.3534C222.867 52.05 224.209 52.7141 225.269 53.3456C226.337 53.9706 227.222 54.7876 227.926 55.7934C228.629 56.7928 228.981 58.0135 228.981 59.4523C228.981 61.6658 228.111 63.4626 226.376 64.8428C224.637 66.2229 222.134 66.9131 218.864 66.9131C217.334 66.9131 215.962 66.7764 214.749 66.5094C213.541 66.2426 212.144 65.8813 210.556 65.4288L209.567 65.1163V59.1788H213.291L214.332 62.7334Z" fill="#082645"/>
<path d="M238.031 37.3433C236.953 37.3433 236.096 37.0309 235.466 36.4059C234.841 35.7744 234.528 34.9606 234.528 33.971C234.528 32.8349 234.886 31.8942 235.609 31.1455C236.328 30.3903 237.288 30.0127 238.486 30.0127C239.684 30.0127 240.596 30.3382 241.221 30.9892C241.853 31.6338 242.171 32.4313 242.171 33.3851C242.171 34.583 241.809 35.5432 241.091 36.2626C240.368 36.9853 239.364 37.3433 238.083 37.3433H238.031ZM235.648 45.7026L232.458 44.8563V41.8355L240.686 40.8459H240.778L242.041 41.7443V63.3718L245.049 63.7363V66.4316H232.509V63.7363L235.648 63.3326V45.7026Z" fill="#082645"/>
<path d="M252.509 66.8486C251.579 66.8486 250.768 66.5263 250.074 65.8851C249.388 65.2438 249.046 64.4268 249.046 63.4371C249.046 62.3271 249.439 61.419 250.231 60.7158C251.028 60.0128 251.996 59.6611 253.134 59.6611C254.219 59.6611 255.074 59.9996 255.699 60.6768C256.331 61.3473 256.649 62.1448 256.649 63.0726C256.649 64.2445 256.266 65.169 255.504 65.846C254.739 66.5133 253.739 66.8486 252.509 66.8486Z" fill="#082645"/>
</g>
</g>
<defs>
<clipPath id="clip0_298_12142">
<rect width="215" height="40" fill="white" transform="translate(42.8672 30)"/>
</clipPath>
</defs>
</svg>
