<svg width="300" height="100" viewBox="0 0 300 100" fill="none" xmlns="http://www.w3.org/2000/svg">
<rect width="300" height="100" fill="white"/>
<g clip-path="url(#clip0_291_4151)">
<path fill-rule="evenodd" clip-rule="evenodd" d="M164.592 30.1478C160.711 30.5622 157.037 32.1073 154.027 34.5914C151.016 37.0755 148.801 40.3892 147.657 44.121C146.513 47.8528 146.49 51.8384 147.592 55.5831C148.693 59.3277 150.87 62.6665 153.852 65.1848C156.37 67.3111 159.376 68.7797 162.6 69.4591C165.825 70.1384 169.168 70.0073 172.33 69.0775C175.492 68.1476 178.373 66.4481 180.717 64.1311C183.061 61.8142 184.793 58.9521 185.759 55.8012C186.725 52.6503 186.894 49.3091 186.252 46.0767C185.609 42.8444 184.175 39.8218 182.078 37.2798C179.98 34.7378 177.285 32.7556 174.234 31.511C171.182 30.2663 167.869 29.7979 164.592 30.1478ZM164.667 30.5922C169.786 30.0767 174.902 31.6075 178.897 34.8505C182.892 38.0935 185.441 42.7853 185.989 47.9015C186.537 53.0178 185.039 58.1431 181.821 62.1584C178.603 66.1737 173.927 68.7529 168.815 69.333C166.262 69.6225 163.678 69.4045 161.21 68.6914C158.743 67.9783 156.44 66.7843 154.436 65.178C152.431 63.5716 150.764 61.5848 149.531 59.3317C148.297 57.0786 147.521 54.6039 147.248 52.0498C146.974 49.4957 147.209 46.9127 147.937 44.4496C148.666 41.9864 149.874 39.6916 151.493 37.6973C153.112 35.7031 155.11 34.0486 157.37 32.8292C159.631 31.6098 162.111 30.8496 164.667 30.5922Z" fill="#ACBB16"/>
<path fill-rule="evenodd" clip-rule="evenodd" d="M165.926 31.4072C163.183 31.5344 160.503 32.2699 158.08 33.5604C155.656 34.851 153.55 36.6642 151.914 38.869C150.277 41.0737 149.152 43.6147 148.618 46.3081C148.085 49.0014 148.157 51.7796 148.829 54.4417C149.502 57.1037 150.758 59.5828 152.507 61.6996C154.255 63.8165 156.453 65.518 158.94 66.681C161.427 67.844 164.142 68.4394 166.887 68.424C169.633 68.4087 172.341 67.7831 174.815 66.5924C177.241 65.3879 179.375 63.6678 181.067 61.5523C182.76 59.4368 183.969 56.9771 184.611 54.3453C185.253 51.7135 185.312 48.9731 184.785 46.3161C184.257 43.659 183.155 41.1493 181.555 38.9627C181.259 38.4442 180.889 38.222 180.518 37.7035C178.73 35.6071 176.485 33.9492 173.955 32.8576C171.425 31.7659 168.678 31.2697 165.926 31.4072ZM166.37 47.7775C166.444 47.9257 166.444 47.7035 166.444 47.9998L166.074 49.4072L165.704 51.1849C165.111 50.2961 164.667 48.3701 164.444 47.1849C164.148 45.1849 164.444 44.1479 164.518 42.2961C164.222 43.0368 164.074 44.0738 164 44.9627C163.259 44.2961 163.185 43.7035 162.148 43.3331C163.185 44.1479 163.63 45.1109 163.778 46.8146C163.852 48.8887 164.148 49.4812 164.518 51.259C163.852 50.8146 163.481 50.3701 162.963 49.7775C160.37 46.8146 159.555 48.8146 158.518 44.8887C158.444 46.3701 158.741 46.5183 159.111 47.5553C158.296 47.5553 157.481 47.4072 156.815 47.8516C158.518 47.9998 159.704 48.222 160.815 49.0368C163.185 50.7405 166.148 55.5553 166.296 58.8887C165.555 58.5183 164.815 56.8887 161.481 55.6294C160.37 55.259 159.481 55.1109 158.518 54.5924C158 54.222 156.889 53.1849 156.889 52.3701C156.889 53.3331 157.778 54.5183 158.148 54.8146L154.667 54.9627C157.037 55.1849 158.148 54.9627 160.222 55.7775C161.63 56.3701 163.259 57.4072 164.074 58.222C164.593 58.8146 166.222 60.1479 165.926 60.9627L164.518 64.4442C164.074 65.6294 164.148 65.7035 164 67.0368C159.712 66.3765 155.835 64.1119 153.153 60.7015C150.472 57.291 149.186 52.9891 149.555 48.6664C149.84 45.4372 151.029 42.3535 152.985 39.7685C154.941 37.1834 157.586 35.2015 160.616 34.0497C163.646 32.8979 166.939 32.6228 170.119 33.2559C173.298 33.889 176.235 35.4047 178.593 37.6294L179.037 38.1479C181.246 40.4441 182.773 43.3091 183.448 46.4231C184.123 49.5371 183.918 52.7773 182.858 55.7819C181.797 58.7864 179.923 61.437 177.443 63.4376C174.963 65.4382 171.976 66.71 168.815 67.1109C168.296 64.8887 168.518 63.9998 169.111 61.8516C169.778 59.5553 170.148 59.4072 171.63 58.222C175.111 55.5553 176.593 55.5553 179.926 54.3701C178.667 54.2961 177.704 54.5183 176.518 54.7405C177.111 53.7035 177.407 53.5553 177.555 52.0738C177.259 54.8146 174.074 55.259 171.185 57.0368L169.037 58.5183C167.704 55.8516 169.63 54.9627 171.63 52.0738C172.148 51.3331 172.889 49.8516 173.111 48.6664C173.407 46.8146 173.852 46.5924 174.963 45.5553C174.074 45.8516 173.778 46.3701 173.259 46.8146L173.037 45.4812C172.963 47.6294 172.889 49.6294 170.815 51.4812C171.259 48.7405 171.111 48.5183 170.222 46.2961C171.111 49.0368 170.37 51.6294 168.593 53.7035L167.037 55.4072C166.815 54.1479 166.667 52.6664 166.667 51.3331C166.667 50.6664 166.889 48.4442 167.333 47.7775C167.481 46.8146 168.518 45.1109 168.963 44.4442L170.667 42.3701L171.259 41.7775C170.889 41.9998 169.926 42.6664 169.704 42.9627V41.4072L169.333 40.222C169.481 41.0368 169.704 41.4812 169.407 42.5183C168.815 44.4442 166.518 46.3701 166.444 47.5553V45.6294C165.63 45.9257 164.815 46.8146 165.259 47.9998L165.704 46.9627L165.481 48.0738C166.148 47.9257 166.074 47.9998 166.37 47.7775Z" fill="#293737"/>
<path fill-rule="evenodd" clip-rule="evenodd" d="M172.815 42.1485C173.63 41.7781 174.518 40.8893 176.148 40.8152C175.037 41.2596 173.704 41.7041 173.037 42.5189C174.815 44.3707 176.518 41.7781 177.185 41.2596C177.63 40.8893 178.074 40.8152 178.518 40.4448C177.407 40.0744 176.222 39.63 174.889 39.9263C173.704 40.1485 172.667 40.8152 172.815 42.1485ZM173.704 57.4818C175.704 57.2596 175.926 57.5559 177.555 57.8522C175.926 57.7781 175.555 57.4818 173.704 57.9263C175.111 60.667 176.815 58.4448 179.407 58.5189C177.852 56.2226 174.074 55.4818 173.704 57.4818ZM155.407 42.0004L155.63 42.0744L155.704 42.1485L156.148 42.2967C156.444 42.2967 156.593 42.4448 156.815 42.5189C158.074 43.0374 159.333 44.4448 160.444 42.2967C159.778 41.8522 158.296 41.63 157.407 41.63C158.815 41.5559 159.259 41.63 160.444 41.9263C160.148 40.9633 159.185 40.593 157.926 40.8152C156.667 40.9633 156.222 41.63 155.407 42.0004ZM178.148 53.1856C178.815 52.593 178.889 52.0744 179.852 51.5559C179.481 52.1485 178.667 52.667 178.444 53.5559C180.815 54.3707 180.296 52.8893 182.148 50.2967C180.148 50.0744 177.704 51.1115 178.148 53.1856ZM168.741 39.1856C168.815 38.593 168 37.4819 167.778 37.1115C168.518 37.7041 168.593 38.1485 168.963 38.667L169.185 38.9633C169.481 37.7781 169.037 37.1856 168.37 36.5189C167.778 36.0004 166.889 35.4819 165.852 35.5559C167.111 37.4819 166.222 39.7041 168.741 39.1856ZM173.926 49.63C174.667 50.2967 174.37 49.7041 176.074 51.4818C175.926 51.0374 174.37 50.1485 173.63 49.8522C172.889 51.9263 175.111 52.0744 175.926 52.3707C176.444 52.5189 176.741 52.8152 177.111 52.9633C176.963 49.4818 174 49.0374 173.926 49.63ZM166.148 44.8893C166.296 44.1485 166.148 43.4819 166.148 42.8152L166.222 42.9633C166.37 43.3337 166.444 43.7041 166.444 44.7411C167.778 43.9263 166.889 41.3337 165.111 40.3707C165.333 42.3707 163.852 44.4448 166.148 44.8893ZM153.407 45.3337C154.518 45.9263 154.593 46.0004 155.407 46.667C156.222 47.4078 157.259 47.1856 157.704 46.2226L155.63 45.3337C156.518 45.4078 157.037 45.7041 157.778 45.9263C157.481 44.5189 155.778 44.3707 154.518 44.7411L153.407 45.3337ZM152.37 51.63C153.185 52.2967 153.259 52.2967 154 53.3337C154.444 54.0744 155.259 54.4448 156.222 53.63C156 53.1115 154.963 52.3707 154.37 52.1485C155.333 52.3707 155.778 53.0374 156.444 53.3337C156.296 51.4818 154.148 51.1115 152.37 51.63ZM161.704 61.63C162.444 59.4818 164.222 60.2967 164 58.2967C163.259 58.5189 162.444 59.2596 162.222 59.8522C162.593 58.8152 163.407 58.3707 163.778 58.0004C161.778 56.2226 160.741 60.3707 161.704 61.63ZM163.037 55.9263C163.259 55.1115 163.259 54.8893 163.259 53.9263C163.481 54.5189 163.407 55.3337 163.259 56.0004C164.667 55.8522 164.815 54.8893 164.222 53.7041C163.852 52.8152 163.037 52.2967 162.37 51.8522C162.444 52.7411 162.667 52.9633 162.444 54.0004C162.222 55.0374 162.222 55.63 163.037 55.9263ZM162.593 48.8152L162.444 46.2226L162.889 48.7411C164.074 48.0004 163.407 45.63 161.63 44.667C161.778 46.5189 160.37 48.593 162.593 48.8152ZM176.074 45.9263L178.37 45.7781C177.555 45.9263 176.667 45.8522 176.074 46.2967C176.741 48.2226 178.37 46.3707 179.852 46.2967C179.704 45.9263 179.852 46.1485 179.481 45.9263L179.111 45.63C178.074 44.9633 176.518 44.8152 176.074 45.9263ZM163.481 42.4448C163.481 41.9263 163.185 41.5559 163.037 41.0374L163.407 41.4819L163.704 42.1485C163.704 42.1485 163.926 42.0744 164 41.63C164.074 40.667 162.741 39.4819 161.333 39.3337L161.926 41.4078C162.074 42.2967 162.444 42.5189 163.481 42.4448ZM156.296 58.8893C156.815 58.2967 156.889 58.0004 157.481 57.63C158.074 57.1856 158.518 57.1115 158.444 56.1485C157.926 56.0744 157.778 56.3707 157.333 56.593C157.63 56.1485 157.852 56.0744 158.148 55.7781C156.444 54.3707 155.778 57.2596 156.296 58.8893ZM156.667 51.1856C157.333 50.8893 157.481 50.593 158.296 50.4448C159.111 50.2226 159.555 50.2226 159.555 49.2596C158.741 49.3337 158.667 49.4818 158 49.7041C158.667 49.2596 158.741 49.3337 159.481 49.0374C159.111 47.63 157.037 48.2967 156.667 51.1856ZM170.37 56.4448L171.259 54.8152C171.037 55.4078 170.815 55.7781 170.667 56.593C172.444 56.593 171.852 55.63 172.518 53.4078C171.333 53.7041 169.852 54.8893 170.37 56.4448ZM168 52.4448L168.593 50.667L168.222 52.5189C170 52.7411 169.333 50.7411 169.63 49.2596C168.741 49.5559 166.815 51.4818 168 52.4448ZM171.259 59.1856L171.407 59.2596L171.63 59.3337L172.667 59.8522C172.074 59.7041 171.852 59.5559 171.037 59.4818C171.185 61.3337 172.518 60.667 174.148 61.1115C174 60.3707 173.555 59.8522 173.185 59.4818C172.815 59.1115 171.852 58.5189 171.259 59.1856ZM152.889 48.8152C153.704 48.7411 154 48.667 154.741 48.9633C155.481 49.1856 155.926 49.1856 156.148 48.593C155.63 48.2226 155.259 48.3707 154.667 48.2226L156.222 48.3707C156.222 46.1485 153.481 47.63 152.889 48.8152ZM166.148 40.1485C166.296 39.7781 165.926 39.3337 165.704 38.8152C165.926 39.1115 166.222 39.63 166.518 39.8522C166.889 39.2596 166.296 38.5189 165.926 38.2967C165.481 37.9263 164.963 37.7781 164.296 37.7041C165.037 39.4078 164.963 40.3707 166.148 40.1485ZM175.778 43.7041C176.37 43.5559 176.593 43.3337 177.185 43.3337C176.741 43.4819 176.148 43.63 175.852 43.9263C176.222 44.4448 176.741 44.7411 177.407 44.1485L178.889 43.2596C178.074 42.7411 176.148 42.2967 175.778 43.7041ZM160.518 59.1115C160.593 58.5189 160.593 58.2226 160.815 57.7041C161.555 56.3707 160.963 55.8522 160.518 56.8152L160.296 57.5559C160.296 56.8893 160.518 56.7411 160.667 56.2226C158.889 56.2226 159.407 58.2226 160.518 59.1115ZM167.555 47.63H168.593L167.63 48.0744C168.148 49.2596 168.963 48.4448 170.148 47.8522L170.444 47.63C170 47.4078 169.185 46.8152 168.148 47.1856L167.778 47.4078V47.4818L167.704 47.5559L167.555 47.63ZM174.296 48.3707C174.741 48.2226 175.111 48.0744 175.63 48.0744C175.111 48.1485 174.667 48.2226 174.296 48.593C174.963 49.7041 175.778 48.667 176.222 48.3707L176.889 48.0744C176.148 47.63 174.667 47.1115 174.296 48.3707ZM166.37 47.7781L166.667 47.4818V45.5559C165.852 45.8522 165.037 46.7411 165.481 47.8522L165.926 46.8152L165.704 48.0004C166.148 47.9263 166.074 48.0004 166.37 47.7781ZM172.667 44.4448L172.37 43.3337L172.518 43.5559L172.815 44.0744L173.037 44.2967C173.926 43.1856 172.518 42.4448 171.185 42.3707L171.333 42.667C172.296 44.1485 171.704 44.4448 172.667 44.4448ZM171.778 40.4448L171.926 40.3707C172.667 40.1485 172.518 38.7411 171.63 38.0004C171.111 39.3337 170.815 40.1485 171.778 40.4448ZM160.593 52.5189C160.963 52.1485 160.815 52.0004 161.407 51.3337C161.555 51.1115 161.778 51.0374 161.778 50.667C161.63 50.1485 161.555 50.4448 161.185 50.667C161.407 50.2967 161.63 50.1485 161.111 50.0744C160.815 50.0744 160.593 50.2967 160.444 50.5189C160.148 51.2596 160.444 51.9263 160.593 52.5189ZM167.555 43.5559L167.926 43.3337L168.148 42.9633L167.926 43.7041C169.333 44.0004 168.815 41.8522 168.222 41.4819C167.704 42.9633 167.333 42.667 167.555 43.5559ZM171.778 48.7411L172.222 48.2226L172 48.8152C172.889 48.593 173.111 47.4078 172.593 46.667L172.518 46.7411C172.444 47.1115 172.518 46.7411 172.444 46.8893C171.852 47.5559 170.963 48.0744 171.778 48.7411ZM171.778 52.5189L172.667 52.2967C172.222 52.4448 172.222 52.3707 171.852 52.7411C172.148 53.1115 172.444 53.2596 173.037 52.8893L173.926 52.2967L173.852 52.0744L173.481 51.9263L172.815 51.8522C172.222 51.8522 172 52.0744 171.778 52.5189ZM178.148 55.5559L178.889 55.4078C178.593 55.5559 178.444 55.4818 178.222 55.8522C178.741 56.4448 178.963 56.2226 180.074 55.4818L180.296 55.2596C179.555 55.0374 178.593 54.5189 178.148 55.5559ZM160.37 55.0374L160.741 54.3707L160.593 55.1856C161.778 55.0374 161.333 54.2967 161.555 53.1856C160.889 53.3337 159.778 54.2226 160.37 55.0374ZM159.111 54.2967C159.333 54.0004 159.259 54.0004 159.259 53.63L159.333 53.8522L159.407 54.0004L159.555 54.2226C159.778 53.2596 159.481 52.5189 158.667 52.0744C158.741 53.1856 158.074 54.0744 159.111 54.2967ZM174.222 54.7411L174.37 54.5189L174.518 54.8893C175.926 54.8152 174.889 53.1856 174.444 52.8893C174.37 53.7041 173.852 54.2967 174.222 54.7411ZM159.111 45.4818L159.407 45.5559H159.704C159.185 45.63 159.259 45.63 159.111 45.9263C159.481 46.1485 159.704 46.2967 160.148 46.0004L161.111 45.4818C160.518 45.1115 159.555 44.7411 159.111 45.4818ZM172.148 46.0004C172.444 45.5559 172.074 45.9263 172.222 45.7041L172.444 45.5559C172.222 44.9633 171.778 44.8152 171.111 44.7411C171.63 45.9263 171.481 46.0004 172.148 46.0004ZM170 46.0004L169.778 45.2596L170.222 45.7781C170.296 45.0374 169.852 44.7411 169.111 44.667C169.333 45.4819 169.185 45.9263 170 46.0004ZM53.7036 48.4448V44.7411H56.5925V44.0744C56.5925 40.1485 58.4444 38.2226 62.2221 38.2226C63.6295 38.2226 64.6666 38.3707 65.3332 38.8152C66.074 39.1856 66.4444 39.7781 66.4444 40.5189C66.4444 41.1856 66.2221 41.8522 65.7777 42.593C65.0369 42.2226 64.1481 42.0004 63.1851 42.0004C62.3703 42.0004 61.7777 42.1485 61.4073 42.5189C61.0369 42.8893 60.8147 43.4819 60.8147 44.2226V44.8152L65.3332 44.7411V48.4448L61.1851 48.3707V60.1485H56.5925V48.3707L53.7036 48.4448ZM79.7036 60.1485H76.9629C75.4814 60.1485 74.5925 59.3337 74.4444 57.7041C73.4814 59.5559 71.8518 60.4448 69.5555 60.4448C68.1481 60.4448 67.0369 60.0744 66.074 59.2596C65.5805 58.8613 65.1887 58.3512 64.9312 57.7717C64.6736 57.1921 64.5575 56.5596 64.5925 55.9263C64.5925 52.4448 67.111 50.667 72.2221 50.667H74.3703C74.3703 49.7041 74.1481 49.0374 73.7036 48.593C73.2592 48.2226 72.4444 48.0004 71.4814 48.0004C69.5555 48.0004 67.9258 48.4448 66.5184 49.3337C66.074 48.667 65.7777 47.9263 65.7777 47.1115C65.7777 46.2967 66.074 45.7781 66.5925 45.4818C67.8518 44.7411 69.6295 44.3707 71.8518 44.3707C74.074 44.3707 75.7777 44.8893 77.0369 45.9263C78.2962 47.0374 78.8888 48.5189 78.8888 50.5189V56.5189C78.9629 58.2226 79.1851 59.3337 79.7036 60.1485ZM70.5925 56.9633C72.074 56.9633 73.4073 56.3707 74.4444 54.9633V53.3337H72.2962C69.9999 53.3337 68.8147 54.0004 68.8147 55.4078C68.8147 55.8522 68.9629 56.2226 69.3332 56.5189C69.7036 56.8152 70.074 56.9633 70.5925 56.9633ZM85.9258 47.3337C86.2962 46.593 86.9629 45.9263 87.7777 45.3337C88.5925 44.7411 89.5555 44.4448 90.5184 44.4448C91.3332 44.4448 91.9999 44.667 92.5925 45.1115C93.1851 45.63 93.4073 46.2967 93.4073 47.1856C93.4073 48.1485 93.1851 49.0374 92.8147 50.0004C91.963 49.2372 90.8461 48.8383 89.7036 48.8893C88.1481 48.8893 86.8888 49.4818 85.8518 50.667V60.1485H81.2592V44.7411H83.111C84.074 44.7411 84.7407 44.9633 85.1851 45.4078C85.6295 45.7781 85.8518 46.5189 85.9258 47.3337ZM113.555 57.4818V50.3707C113.555 48.9633 112.889 48.2226 111.704 48.2226C111.037 48.2226 110.37 48.4448 109.704 48.8893C109.111 49.3337 108.667 49.8522 108.37 50.4448V60.1485H103.852V50.3707C103.852 48.9633 103.185 48.2226 102 48.2226C101.259 48.2226 100.667 48.4448 99.9999 48.8893C99.4073 49.3337 98.9629 49.8522 98.5925 50.4448V60.1485H94.074V44.7411H95.8518C96.8147 44.7411 97.4814 44.9633 97.9258 45.3337C98.2962 45.7781 98.5184 46.3707 98.5925 47.1856C99.8518 45.4078 101.555 44.4448 103.852 44.4448C106 44.4448 107.333 45.4818 108 47.4818C108.557 46.547 109.349 45.7745 110.298 45.2416C111.247 44.7087 112.319 44.434 113.407 44.4448C114.889 44.4448 116.074 44.8893 116.889 45.8522C117.704 46.8152 118.074 48.2226 118.074 49.9263V60.1485H116.37C114.444 60.1485 113.555 59.2596 113.555 57.4818Z" fill="#ACBB16"/>
<path fill-rule="evenodd" clip-rule="evenodd" d="M121.704 58.2966C120.296 56.8892 119.555 54.9633 119.555 52.3707C119.555 49.9262 120.296 47.9262 121.704 46.5188C123.111 45.0373 125.111 44.2966 127.629 44.2966C129.333 44.2966 130.741 44.5188 131.852 45.1114C132.37 45.3336 132.667 45.5558 132.815 45.7781C132.963 46.0744 133.037 46.5188 133.037 47.0373C133.037 47.8521 132.815 48.5929 132.444 49.4077C131.111 48.5929 129.704 48.1484 128.074 48.1484C125.481 48.1484 124.222 49.4818 124.222 52.3707C124.222 53.704 124.518 54.741 125.185 55.4818C125.852 56.2225 126.889 56.5929 128.222 56.5929C129.704 56.5929 131.259 56.1484 132.667 55.1855C133.111 56.0003 133.333 56.8151 133.333 57.6299C133.333 58.1484 133.259 58.5188 133.037 58.8151C132.889 59.0373 132.592 59.3336 132.148 59.5558C131.037 60.1484 129.629 60.4447 127.778 60.4447C125.185 60.5188 123.111 59.7781 121.704 58.2966ZM139.185 47.3336C139.629 46.5929 140.222 45.9262 141.037 45.3336C141.852 44.741 142.815 44.4447 143.778 44.4447C144.592 44.4447 145.333 44.667 145.926 45.1114C146.444 45.6299 146.741 46.2966 146.741 47.1855C146.741 48.1484 146.444 49.0373 146.074 50.0003C145.222 49.2371 144.105 48.8382 142.963 48.8892C141.407 48.8892 140.148 49.4818 139.185 50.667V60.1484H134.518V44.741H136.37C137.333 44.741 138 44.9633 138.444 45.4077C138.889 45.7781 139.111 46.5188 139.185 47.3336ZM199.778 53.1855L197.852 59.704H191.555L187.407 44.2966H192.518L194 50.4447C194.592 52.5188 194.815 54.5188 194.889 56.3707H195.037C195.185 54.5188 195.629 52.4447 196.296 50.2225L198.148 44.2966H203.111L204.963 50.2225C205.555 52.4447 205.926 54.5929 206.074 56.3707H206.148C206.148 54.5188 206.444 52.5188 206.889 50.3707L208.741 44.2966H213.852L209.259 59.704H203.481L201.629 53.1855L200.741 48.0744H200.667C200.37 50.2225 200.148 51.9262 199.778 53.1855ZM224.37 53.5558V49.8521C223.481 48.4447 222.37 47.7781 221.259 47.7781C220.296 47.7781 219.629 48.1484 219.037 48.8892C218.444 49.6299 218.148 50.667 218.148 52.0003C218.148 53.3336 218.444 54.3707 218.963 55.1114C219.481 55.8521 220.296 56.2225 221.259 56.2225C221.926 56.2225 222.518 56.0003 223.111 55.4077C223.629 54.8892 224.074 54.2966 224.37 53.5558ZM228.889 40.8151V56.1484C228.889 57.704 229.111 58.9633 229.555 59.704H226.741C225.259 59.704 224.37 58.8892 224.222 57.2595C223.829 58.1211 223.191 58.8476 222.387 59.3482C221.584 59.8489 220.65 60.1015 219.704 60.0744C217.852 60.0744 216.296 59.3336 215.185 57.9262C214.074 56.5188 213.481 54.5188 213.481 52.0003C213.481 49.4818 214.074 47.4077 215.185 46.0003C216.37 44.667 217.926 43.9262 219.852 43.9262C220.723 43.9095 221.584 44.1191 222.35 44.5346C223.116 44.9501 223.761 45.5572 224.222 46.2966V38.1484H226C227.926 38.1484 228.889 39.0373 228.889 40.8151ZM246.222 44.2966V57.9262C246.222 60.5188 245.555 62.5929 244.148 64.0003C242.667 65.4077 240.741 66.0744 238.148 66.0744C235.852 66.0744 234.296 65.8521 233.407 65.2595C232.667 64.667 232.222 64.0003 232.222 63.1114C232.222 62.0003 232.444 61.1855 232.963 60.5929C234.148 61.704 235.704 62.1484 237.555 62.1484C238.963 62.1484 239.926 61.9262 240.667 61.3336C241.333 60.8151 241.629 59.8521 241.629 58.5188V57.0373C241.089 57.8588 240.352 58.5326 239.485 58.9982C238.619 59.4637 237.65 59.7063 236.667 59.704C234.889 59.704 233.555 59.1855 232.592 58.0744C231.629 56.9633 231.185 55.3336 231.185 53.1855V44.2966H233.037C234.889 44.2966 235.852 45.1855 235.852 46.9633V52.741C235.852 54.741 236.592 55.7781 238.148 55.7781C239.778 55.7781 240.889 55.1114 241.704 53.704V44.2966H246.222Z" fill="#293737"/>
</g>
<defs>
<clipPath id="clip0_291_4151">
<rect width="192.593" height="40" fill="white" transform="translate(53.7036 30)"/>
</clipPath>
</defs>
</svg>
