<svg width="300" height="100" viewBox="0 0 300 100" fill="none" xmlns="http://www.w3.org/2000/svg">
<rect width="300" height="100" fill="white"/>
<g clip-path="url(#clip0_298_12124)">
<mask id="mask0_298_12124" style="mask-type:luminance" maskUnits="userSpaceOnUse" x="79" y="30" width="143" height="40">
<path d="M79 30H221.233V69.3953H79V30Z" fill="white"/>
</mask>
<g mask="url(#mask0_298_12124)">
<path d="M88.4418 67.2558C88.2372 67.0977 88.0418 66.9302 87.8558 66.7535C87.3721 66.2791 86.9721 65.8884 86.5442 65.4419C86.1163 64.9953 85.6139 64.5116 85.093 64.0372C83.8716 62.8516 82.8 61.5207 81.9023 60.0744C80.7724 58.2608 79.9548 56.2703 79.4837 54.186C79.3721 53.7023 79.2697 53.2 79.2046 52.6977C79.1395 52.1953 79.093 51.693 79 51.107C78.9535 50.4691 78.9535 49.8286 79 49.1907C79 48.7163 79.0651 48.2605 79.1116 47.7674C79.0989 47.4801 79.124 47.1924 79.186 46.9116C79.2884 46.3256 79.3907 45.7674 79.5116 45.1721C79.6993 44.2796 79.9639 43.405 80.3023 42.5581C80.7125 41.5163 81.2111 40.5116 81.7907 39.5535C82.2368 38.7963 82.7276 38.0663 83.2604 37.3674C83.7487 36.7415 84.2736 36.1451 84.8325 35.5814C85.6902 34.7341 86.6244 33.9681 87.6232 33.293C89.2718 32.1738 91.0907 31.3287 93.0093 30.7907C93.7814 30.5674 94.5721 30.4 95.3628 30.2512C95.8372 30.1674 96.3144 30.1116 96.7953 30.0837C97.3628 30.0837 97.9209 30 98.5349 30H99.6604C100.653 30.0744 101.639 30.2233 102.609 30.4465C103.422 30.6158 104.221 30.8465 105 31.1349C106.92 31.8417 108.718 32.8428 110.33 34.1023C111.923 35.351 113.311 36.8421 114.442 38.5209C115.327 39.7711 116.052 41.1274 116.6 42.5581C116.916 43.3358 117.177 44.1349 117.381 44.9488C117.521 45.5814 117.651 46.2326 117.744 46.8837C117.82 47.3274 117.873 47.774 117.902 48.2233V51.3953C117.798 52.6152 117.571 53.8214 117.223 54.9953C117.084 55.4605 116.935 55.9256 116.767 56.3814C116.379 57.5442 115.871 58.6634 115.251 59.7209C114.323 61.2959 113.191 62.741 111.884 64.0186L111.028 64.7907C110.074 65.5902 109.053 66.3061 107.977 66.9302C106.309 67.8798 104.51 68.5758 102.637 68.9953C102.07 69.1163 101.521 69.2 100.907 69.293C100.381 69.3798 99.849 69.4203 99.3163 69.414H98.1535C97.9182 69.4326 97.6818 69.4326 97.4465 69.414L95.7442 69.2093C94.978 69.1286 94.2352 68.8979 93.5581 68.5302C91.8382 67.7111 90.4429 66.3386 89.5953 64.6326C89.2971 64.0817 89.0838 63.489 88.9628 62.8744C88.9031 62.5672 88.8627 62.2565 88.8418 61.9442C88.8418 61.4326 88.7581 60.9116 88.7488 60.3907C88.7209 59.9628 88.7209 59.5349 88.7488 59.107C88.8046 58.493 88.8884 57.8791 88.9814 57.2465C89.0539 56.9749 89.1497 56.7107 89.2697 56.4558C89.3442 56.2419 89.4372 56.0372 89.5209 55.8512C90.0019 54.8409 90.6462 53.9169 91.4279 53.1163C91.7349 52.7907 92.0604 52.4558 92.3581 52.186C92.6311 51.9128 92.9449 51.6837 93.2884 51.507C94.3547 50.9632 95.4958 50.5807 96.6744 50.3721C97.3857 50.2386 98.109 50.1794 98.8325 50.1953C99.4936 50.2119 100.147 50.3376 100.767 50.5674C100.863 50.5972 100.953 50.6419 101.037 50.6977C101.331 50.8605 101.614 51.0447 101.884 51.2465C102.521 51.7527 103.02 52.4119 103.335 53.1628C103.558 53.68 103.679 54.2363 103.688 54.8C103.706 55.7039 103.502 56.5983 103.093 57.4047C102.966 57.6976 102.807 57.9753 102.619 58.2326C102.294 58.5991 101.914 58.9129 101.493 59.1628C100.774 59.5724 99.98 59.832 99.1581 59.9256H97.1767C96.907 59.9256 96.6372 60 96.3674 60.0186C95.7709 60.0653 95.1813 60.1776 94.6093 60.3535C94.0392 60.5114 93.503 60.7731 93.0279 61.1256C92.6141 61.4441 92.3405 61.9112 92.2651 62.4279C92.2012 62.8784 92.2458 63.3377 92.3953 63.7674C92.4511 63.9367 92.5442 64.0921 92.6651 64.2233C92.9088 64.5061 93.1702 64.7721 93.4465 65.0233C94.0391 65.4845 94.6896 65.8661 95.3814 66.1581C96.1516 66.5126 96.9563 66.7907 97.7814 66.986C98.5189 67.1636 99.2849 67.1889 100.033 67.0605C100.38 67.0447 100.725 67.0011 101.065 66.9302C102.055 66.7721 103.028 66.5293 103.977 66.2047C105.815 65.5667 107.532 64.6232 109.056 63.414C109.658 62.9581 110.23 62.4651 110.767 61.9349C112.77 59.9113 114.242 57.4257 115.056 54.6977C115.296 53.9219 115.475 53.1284 115.595 52.3256C115.672 51.8791 115.724 51.4288 115.753 50.9767C115.742 50.6651 115.761 50.3535 115.809 50.0465V47.7302C115.792 47.436 115.751 47.1437 115.688 46.8558C115.567 45.9917 115.374 45.1392 115.112 44.307C114.738 43.2176 114.265 42.165 113.698 41.1628C113.176 40.1559 112.553 39.2052 111.837 38.3256C111.558 37.9907 111.288 37.6744 110.981 37.3953C110.674 37.1163 110.265 36.6698 109.856 36.3349C108.695 35.2813 107.389 34.4009 105.977 33.7209C104.888 33.1815 103.747 32.7545 102.572 32.4465C102.098 32.3349 101.642 32.2326 101.14 32.1581C100.77 32.0915 100.398 32.0449 100.023 32.0186C99.6511 32.0186 99.186 32.0186 98.7674 31.9442H98.2186L96.6372 32.0372C95.6169 32.1359 94.6079 32.3289 93.6232 32.614C92.7572 32.8587 91.9113 33.1697 91.093 33.5442C89.9837 34.0489 88.9325 34.6727 87.9581 35.4047C87.2298 35.9347 86.5454 36.5227 85.9116 37.1628C84.9695 38.1367 84.1481 39.2205 83.4651 40.3907C82.8403 41.4466 82.3081 42.5546 81.8744 43.7023C81.586 44.5302 81.3814 45.3953 81.1674 46.2605C81.0837 46.6512 81.0558 47.0698 81 47.4698C80.9256 47.8437 80.8791 48.2233 80.8604 48.6047V50.9302C80.8856 51.28 80.9321 51.6279 81 51.9721C81.0465 52.4 81.1116 52.8279 81.1953 53.2465C81.3507 53.9349 81.5488 54.6121 81.7907 55.2744C82.3018 56.7592 82.9955 58.1747 83.8558 59.4884C84.4168 60.2771 85.0388 61.0204 85.7163 61.7116C86.1349 62.2056 86.5851 62.6716 87.0651 63.107C87.2325 63.2586 87.3907 63.4205 87.5395 63.5907C87.5582 63.6386 87.5582 63.6917 87.5395 63.7395V64.3349C87.5374 64.6484 87.5749 64.961 87.6511 65.2651C87.7907 65.7023 87.9581 66.1302 88.1349 66.5581C88.2279 66.7628 88.3302 66.9674 88.4139 67.1814V67.3116L88.4418 67.2558Z" fill="#A9CE40"/>
<path d="M91.6047 52.4557C91.3228 52.4743 91.04 52.4743 90.7581 52.4557C90.2071 52.3984 89.6642 52.2799 89.1395 52.1022C88.6651 51.9347 88.2093 51.758 87.7256 51.5533C87.0502 51.2743 86.4223 50.891 85.8651 50.4185C85.095 49.7909 84.4618 49.0121 84.0047 48.1301C83.6936 47.5279 83.489 46.8764 83.4 46.2045C83.3777 45.7626 83.4 45.3208 83.4651 44.8836C83.4856 44.5301 83.5293 44.1794 83.5954 43.8324C83.5954 43.4789 83.6605 43.3022 83.707 43.0417C83.8505 42.3256 84.0948 41.6335 84.4326 40.9859C84.4884 40.865 84.5442 40.7347 84.5907 40.6138C84.7393 40.1753 84.9525 39.7614 85.2233 39.3859C85.6695 38.7503 86.2125 38.1884 86.8326 37.7208C87.0744 37.5347 87.2977 37.3301 87.5395 37.1626C88.2127 36.7108 88.9295 36.3275 89.6791 36.0185C90.0349 35.8481 90.4144 35.7321 90.8047 35.6743C91.1519 35.6397 91.4968 35.5838 91.8372 35.5068C92.0709 35.4993 92.3039 35.4775 92.5349 35.4417L93.4651 35.3766H97.186C97.9674 35.3115 98.7395 35.3766 99.5116 35.3766H101.493L103.009 35.4603H103.819L105.177 35.5812C105.856 35.6447 106.502 35.9031 107.037 36.3254C107.802 36.8888 108.41 37.638 108.805 38.5022C109.022 38.9736 109.148 39.4817 109.177 39.9999C109.208 41.1575 108.807 42.2853 108.051 43.1626C107.831 43.4417 107.584 43.7003 107.316 43.9347C106.859 44.3751 106.3 44.6948 105.688 44.865C105.524 44.9022 105.354 44.9208 105.186 44.9208H91.2326L90.3023 44.9766C89.9888 45.0008 89.6772 45.051 89.3721 45.1254C88.5523 45.2864 87.7639 45.5785 87.0372 45.9906C86.5067 46.261 86.0478 46.6531 85.6977 47.1347C85.5319 47.3544 85.4119 47.605 85.3448 47.8719C85.2777 48.1387 85.2648 48.4163 85.307 48.6882C85.3656 49.0492 85.4986 49.3952 85.6977 49.7022C85.9528 50.0976 86.2664 50.452 86.6279 50.7533C86.9414 51.0092 87.2847 51.224 87.6512 51.3952C88.1954 51.6566 88.7619 51.8687 89.3442 52.0278C89.8651 52.1766 90.3963 52.2789 90.9349 52.3347C91.1609 52.3589 91.3842 52.3999 91.6047 52.4557Z" fill="#279C3F"/>
<path d="M91.6046 52.456C91.3906 52.456 91.186 52.363 90.9813 52.3444C90.4418 52.2793 89.9069 52.177 89.3813 52.0374C88.8005 51.8789 88.2366 51.6639 87.6976 51.3956C86.9094 51.003 86.2388 50.4093 85.7534 49.6747C85.5546 49.3673 85.4216 49.022 85.3627 48.6607C85.3226 48.3917 85.3365 48.1175 85.4036 47.8539C85.4707 47.5904 85.5896 47.3429 85.7534 47.1258C86.0804 46.6579 86.5058 46.2674 86.9999 45.9816C87.7348 45.6002 88.5255 45.3398 89.3441 45.2095C89.6567 45.177 89.9674 45.1277 90.2744 45.0607L91.2046 45.0049H92.2278L91.093 45.1258L90.3767 45.2095C89.9664 45.2653 89.5637 45.3677 89.1767 45.5165C88.6758 45.6841 88.207 45.9357 87.7906 46.2607C87.3988 46.5787 87.1106 47.0061 86.9627 47.4886C86.8891 47.7656 86.8734 48.0547 86.9166 48.338C86.9599 48.6213 87.0611 48.8927 87.2139 49.1351C87.3785 49.4086 87.5823 49.656 87.8185 49.87L88.293 50.3165C88.9121 50.8997 89.6183 51.383 90.386 51.7491C90.772 51.9221 91.1488 52.1174 91.5116 52.3351L91.6046 52.456Z" fill="#5FBA74"/>
<path d="M131.093 47.7205L129.781 58.8368L129.065 61.46C128.975 61.8771 128.765 62.2586 128.46 62.5577C128.13 62.8171 127.717 62.9462 127.298 62.9205H125.912L127.772 47.7391L126.665 47.5437C126.478 47.519 126.303 47.4379 126.163 47.3112C126.095 47.2488 126.043 47.1722 126.009 47.0868C125.975 47.0015 125.961 46.9097 125.967 46.8181C125.964 46.7997 125.964 46.7808 125.967 46.7623C125.971 46.7004 125.971 46.6383 125.967 46.5763V46.1298C125.967 45.9344 126.033 45.6461 126.079 45.2833H128.005L128.126 44.2228C128.216 43.4562 128.436 42.7106 128.777 42.0181C129.085 41.3881 129.512 40.8229 130.033 40.353C130.557 39.8887 131.167 39.5316 131.828 39.3019C132.514 39.0558 133.238 38.933 133.967 38.9391C134.527 38.9318 135.084 39.0199 135.614 39.1995L135.307 40.9856C135.291 41.0829 135.242 41.1716 135.167 41.2368C135.094 41.2983 135.009 41.3428 134.916 41.367C134.804 41.3964 134.688 41.4151 134.572 41.4228H134.191C133.843 41.4203 133.498 41.4737 133.167 41.5809C132.858 41.6822 132.576 41.8506 132.34 42.074C132.079 42.3381 131.88 42.6554 131.753 43.0042C131.583 43.4368 131.474 43.8907 131.428 44.353L131.316 45.2833H134.526L134.2 47.7391L131.093 47.7205ZM145.977 59.4507H144.116C143.97 59.4836 143.818 59.4805 143.673 59.4419C143.528 59.4032 143.394 59.33 143.284 59.2286C143.173 59.1271 143.089 59.0004 143.038 58.8593C142.987 58.7182 142.971 58.5668 142.991 58.4181L143.102 56.4647C142.549 57.3803 141.83 58.1848 140.981 58.8368C140.227 59.3939 139.314 59.6939 138.377 59.6926C137.854 59.6942 137.337 59.5832 136.86 59.367C136.385 59.1559 135.965 58.8375 135.633 58.4368C135.252 57.9516 134.974 57.3947 134.814 56.7995C134.597 56.0725 134.493 55.3163 134.507 54.5577C134.506 52.0517 135.461 49.6397 137.177 47.8135C137.726 47.2211 138.351 46.7049 139.037 46.2786C140.476 45.3879 142.136 44.9204 143.828 44.9298C144.475 44.9298 145.122 44.9763 145.763 45.0693C146.4 45.1671 147.024 45.3355 147.623 45.5716L145.977 59.4507ZM139.753 56.8461C140.161 56.8368 140.553 56.7 140.879 56.4554C141.282 56.1544 141.634 55.79 141.921 55.3763C142.282 54.8645 142.594 54.3194 142.851 53.7484C143.14 53.0972 143.383 52.4256 143.577 51.7391L144.116 47.4135C143.884 47.4005 143.651 47.4005 143.419 47.4135C142.67 47.4079 141.93 47.5902 141.27 47.9437C140.58 48.2785 139.966 48.7501 139.465 49.3298C138.984 49.9504 138.613 50.6489 138.367 51.3949C138.089 52.206 137.951 53.0584 137.958 53.9158C137.902 54.681 138.066 55.4463 138.433 56.1205C138.565 56.3444 138.755 56.5295 138.982 56.6569C139.209 56.7843 139.465 56.8495 139.726 56.8461H139.753ZM149.149 59.4507L150.888 45.1251H152.637C152.927 45.1128 153.213 45.1908 153.456 45.3484C153.566 45.4288 153.653 45.5359 153.71 45.6596C153.767 45.7833 153.792 45.9195 153.781 46.0554V47.1437C153.781 47.4879 153.781 47.953 153.726 48.567C154.203 47.5882 154.855 46.7053 155.651 45.9623C156.235 45.3917 157.012 45.0599 157.828 45.0321C158.228 45.0358 158.624 45.1214 158.991 45.2833L158.312 48.6042C157.896 48.4178 157.446 48.3166 156.991 48.3065C156.56 48.3194 156.138 48.434 155.76 48.6409C155.381 48.8478 155.057 49.1413 154.814 49.4972C154.049 50.6171 153.526 51.8845 153.279 53.2181L152.488 59.4507H149.149ZM159.288 59.4507L161.037 45.1251H162.777C163.076 45.1084 163.372 45.1968 163.614 45.3763C163.724 45.4743 163.809 45.5971 163.863 45.7346C163.916 45.8721 163.936 46.0203 163.921 46.167V47.8228C164.455 46.9562 165.169 46.214 166.014 45.6461C166.688 45.1781 167.482 44.9133 168.302 44.8833C168.694 44.8643 169.084 44.9339 169.445 45.087C169.806 45.24 170.128 45.4724 170.386 45.767C170.964 46.49 171.29 47.3814 171.316 48.3065C171.849 47.2856 172.61 46.4008 173.54 45.7205C174.32 45.1758 175.248 44.8836 176.2 44.8833C176.669 44.8583 177.137 44.9438 177.567 45.1329C177.997 45.3219 178.376 45.6092 178.674 45.9716C179.312 46.8805 179.621 47.9799 179.549 49.0879V49.6833C179.549 49.8972 179.549 50.1019 179.493 50.3158L178.423 59.4228H175.019L175.493 55.4042C175.623 54.2972 175.726 53.3763 175.809 52.6135L176.005 50.874C176.005 50.4554 176.088 50.1298 176.107 49.9437C176.126 49.7577 176.107 49.5623 176.107 49.4786V49.2926C176.141 48.8703 176.044 48.4478 175.828 48.0833C175.714 47.951 175.57 47.8481 175.408 47.7834C175.246 47.7186 175.071 47.6938 174.898 47.7112C174.535 47.7136 174.179 47.8098 173.865 47.9902C173.511 48.2042 173.196 48.4786 172.935 48.7995C172.607 49.2005 172.326 49.6368 172.098 50.1019C171.828 50.66 171.605 51.2386 171.428 51.8321L170.498 59.4321H167.13L168.209 50.3251V49.7763V49.2926C168.241 48.8716 168.147 48.4507 167.94 48.0833C167.827 47.95 167.683 47.8464 167.521 47.7816C167.359 47.7167 167.183 47.6925 167.009 47.7112C166.636 47.7157 166.27 47.8184 165.949 48.0088C165.589 48.2304 165.273 48.5175 165.019 48.8554C164.684 49.2647 164.402 49.714 164.181 50.1949C163.905 50.7605 163.678 51.3484 163.502 51.953L162.572 59.3949L159.288 59.4507ZM190.851 47.8321C190.775 47.953 190.677 48.0609 190.563 48.1484C190.452 48.2087 190.326 48.2377 190.2 48.2321C190.026 48.2282 189.857 48.1801 189.707 48.0926L189.13 47.7856C188.889 47.6583 188.637 47.5525 188.377 47.4693C188.045 47.3698 187.7 47.3227 187.353 47.3298C186.749 47.2907 186.15 47.4652 185.66 47.8228C185.475 47.971 185.326 48.1594 185.225 48.3738C185.123 48.5881 185.072 48.8228 185.074 49.06C185.069 49.3251 185.154 49.5847 185.316 49.7949C185.499 50.0042 185.716 50.18 185.958 50.3158C186.256 50.4795 186.567 50.6163 186.888 50.7251L187.921 51.1344C188.273 51.2768 188.619 51.4386 188.953 51.6181C189.294 51.7923 189.607 52.0147 189.884 52.2786C190.149 52.5484 190.364 52.8628 190.516 53.2088C190.686 53.6247 190.768 54.0712 190.758 54.5205C190.762 55.2001 190.622 55.8728 190.348 56.4947C190.074 57.1166 189.671 57.6738 189.167 58.1298C188.628 58.6219 187.995 59.0014 187.307 59.2461C186.53 59.5311 185.707 59.6698 184.879 59.6554C184.435 59.66 183.992 59.6163 183.558 59.5251C183.149 59.4431 182.75 59.3184 182.367 59.153C182.01 59.0047 181.67 58.8176 181.353 58.5949C181.067 58.3968 180.807 58.1622 180.581 57.8972L181.419 56.5856C181.51 56.4386 181.634 56.314 181.781 56.2228C181.939 56.1381 182.115 56.0963 182.293 56.1019C182.485 56.0991 182.672 56.1614 182.823 56.2786C182.981 56.3995 183.167 56.5391 183.381 56.6786C183.623 56.8395 183.883 56.9735 184.153 57.0786C184.53 57.2088 184.927 57.2693 185.326 57.2554C185.667 57.2628 186.006 57.2126 186.33 57.1065C186.604 57.0163 186.856 56.874 187.074 56.6879C187.27 56.5207 187.425 56.312 187.53 56.0771C187.635 55.8422 187.686 55.5869 187.679 55.3298C187.692 55.0507 187.61 54.7754 187.446 54.5484C187.272 54.3234 187.054 54.1367 186.805 53.9995C186.509 53.8349 186.197 53.7009 185.874 53.5995L184.842 53.2274C184.496 53.0972 184.157 52.9484 183.828 52.7809C183.487 52.62 183.173 52.4066 182.898 52.1484C182.626 51.8843 182.411 51.5678 182.265 51.2181C182.094 50.7896 182.011 50.3307 182.023 49.8693C182.021 49.2313 182.144 48.5991 182.386 48.0088C182.624 47.4079 182.989 46.8653 183.456 46.4181C183.952 45.9334 184.54 45.5538 185.186 45.3019C185.936 45.0105 186.735 44.8683 187.54 44.8833C188.314 44.8687 189.084 45.0084 189.805 45.2943C190.525 45.5801 191.181 46.0064 191.735 46.5484L190.851 47.8321ZM192.414 59.4507L194.944 38.7158H198.302L197.177 48.0181C197.78 47.1448 198.536 46.3884 199.409 45.7856C200.183 45.2495 201.101 44.9609 202.042 44.9577C202.602 44.9508 203.158 45.065 203.67 45.2926C204.16 45.5099 204.588 45.8456 204.916 46.2693C205.29 46.7661 205.562 47.3316 205.716 47.9344C205.914 48.7028 206.008 49.4944 205.995 50.2879C206.009 51.8708 205.692 53.4391 205.065 54.8926C204.77 55.5716 204.402 56.2181 203.967 56.8181C203.565 57.3863 203.089 57.8992 202.553 58.3437C202.04 58.7453 201.469 59.0683 200.86 59.3019C200.271 59.5452 199.638 59.6686 199 59.6647C198.343 59.6823 197.692 59.543 197.099 59.2582C196.507 58.9735 195.992 58.5515 195.595 58.0274L195.484 58.5019C195.468 58.6445 195.424 58.7825 195.354 58.9074C195.283 59.0324 195.188 59.1417 195.074 59.2288C194.96 59.3158 194.83 59.3787 194.691 59.4137C194.551 59.4486 194.407 59.4549 194.265 59.4321L192.414 59.4507ZM200.702 47.6181C200.287 47.6295 199.885 47.7657 199.549 48.0088C199.116 48.3102 198.73 48.674 198.405 49.0879C198.012 49.5877 197.672 50.1271 197.391 50.6972C197.07 51.3376 196.802 52.0034 196.591 52.6879L196.209 56.1019C196.505 56.4321 196.879 56.6814 197.298 56.8274C197.686 56.9651 198.095 57.0377 198.507 57.0414C199.114 57.0422 199.704 56.8391 200.181 56.4647C200.706 56.0581 201.145 55.5524 201.474 54.9763C201.845 54.3261 202.123 53.6274 202.302 52.9019C202.498 52.1484 202.597 51.3735 202.6 50.5949C202.652 49.8159 202.481 49.0383 202.107 48.353C201.96 48.1164 201.752 47.9235 201.505 47.7943C201.258 47.665 200.981 47.6042 200.702 47.6181ZM211.772 63.4135C211.678 63.6304 211.522 63.8143 211.323 63.9419C211.124 64.0695 210.892 64.1349 210.656 64.1298H208.098L211.279 58.3623L207.67 45.1344H210.553C210.656 45.1268 210.76 45.1402 210.857 45.1738C210.955 45.2074 211.045 45.2604 211.121 45.3298C211.246 45.4526 211.336 45.607 211.381 45.7763L213.14 53.2181C213.195 53.46 213.233 53.7019 213.27 53.9344C213.307 54.167 213.326 54.3995 213.344 54.6414C213.446 54.3995 213.549 54.167 213.66 53.9251L213.986 53.2088L217.521 45.767C217.612 45.5828 217.75 45.4256 217.921 45.3112C218.083 45.2014 218.273 45.14 218.47 45.1344H221.26L211.772 63.4135Z" fill="black"/>
</g>
</g>
<defs>
<clipPath id="clip0_298_12124">
<rect width="142.326" height="40" fill="white" transform="translate(79 30)"/>
</clipPath>
</defs>
</svg>
