<svg width="300" height="100" viewBox="0 0 300 100" fill="none" xmlns="http://www.w3.org/2000/svg">
<rect width="300" height="100" fill="white"/>
<g clip-path="url(#clip0_297_9075)">
<path d="M140.422 65.8415C140.355 66.1109 140.355 66.3131 140.422 66.4141C140.49 66.5152 140.557 66.5827 140.624 66.5827H140.658C140.826 66.5827 140.894 66.6837 140.86 66.8184L140.759 67.3574C140.725 67.5259 140.624 67.5933 140.456 67.5933H140.389C139.849 67.5933 139.546 67.4923 139.344 67.3237C139.142 67.1553 139.075 66.8858 139.075 66.5827H139.041C138.704 66.987 138.3 67.29 137.896 67.4923C137.491 67.6943 137.019 67.7617 136.548 67.7617C136.177 67.7617 135.841 67.6943 135.537 67.5933C135.234 67.4923 134.998 67.29 134.796 67.0206C134.594 66.7511 134.493 66.4141 134.425 65.9762C134.358 65.5382 134.425 64.9993 134.56 64.3254C134.695 63.6854 134.863 63.1463 135.099 62.7083C135.335 62.2704 135.605 61.9334 135.908 61.664C136.211 61.3945 136.514 61.2261 136.885 61.0912C137.222 60.9902 137.592 60.9229 137.963 60.9229C138.401 60.9229 138.771 60.9902 139.075 61.1587C139.378 61.2935 139.614 61.5629 139.782 61.8661H139.816L140.018 61.3608C140.052 61.2598 140.085 61.1924 140.119 61.1587C140.153 61.1249 140.22 61.0912 140.321 61.0912H141.197C141.365 61.0912 141.433 61.1587 141.399 61.3271L140.422 65.8415ZM137.997 62.001C137.761 62.001 137.559 62.0346 137.356 62.102C137.154 62.1693 136.986 62.304 136.817 62.4726C136.649 62.641 136.514 62.8769 136.379 63.1799C136.245 63.4832 136.144 63.8538 136.043 64.3591C135.942 64.8307 135.908 65.235 135.874 65.5382C135.874 65.8415 135.908 66.0772 136.009 66.2794C136.11 66.4478 136.211 66.5827 136.379 66.65C136.548 66.7174 136.75 66.7511 136.986 66.7511C137.559 66.7511 138.03 66.5827 138.401 66.2121C138.771 65.8415 139.041 65.235 139.243 64.3928C139.411 63.5505 139.378 62.9779 139.176 62.6073C138.974 62.203 138.569 62.001 137.997 62.001Z" fill="#003B65"/>
<path d="M160.568 58.5312C161.545 58.5312 162.286 58.7335 162.792 59.1377C163.297 59.542 163.432 60.1483 163.297 60.8895C163.196 61.3275 163.028 61.7318 162.758 62.035C162.489 62.3381 162.152 62.574 161.714 62.776V62.8099C162.32 62.9109 162.724 63.1466 162.96 63.5509C163.196 63.9552 163.263 64.4268 163.129 64.9996C163.061 65.3702 162.926 65.7071 162.691 66.0102C162.489 66.3135 162.219 66.583 161.916 66.8188C161.613 67.0547 161.276 67.223 160.871 67.3579C160.501 67.4926 160.097 67.56 159.692 67.56H156.829C156.66 67.56 156.593 67.4926 156.627 67.3241L158.378 58.8008C158.412 58.6323 158.513 58.5649 158.682 58.5649L160.568 58.5312ZM158.985 63.4499L158.378 66.4818H159.457C159.793 66.4818 160.097 66.4482 160.332 66.3471C160.568 66.2461 160.77 66.1451 160.939 66.0102C161.107 65.8755 161.208 65.7071 161.309 65.5386C161.41 65.3702 161.444 65.168 161.511 64.966C161.545 64.7974 161.545 64.5954 161.545 64.4268C161.511 64.2584 161.478 64.0901 161.377 63.9215C161.276 63.7868 161.107 63.6521 160.905 63.5846C160.703 63.4836 160.433 63.4499 160.097 63.4499H158.985ZM159.793 59.5757L159.221 62.4056H159.996C160.198 62.4056 160.366 62.3718 160.535 62.3044C160.703 62.2371 160.871 62.136 161.04 62.0013C161.208 61.8665 161.309 61.7318 161.444 61.5295C161.545 61.3612 161.646 61.1253 161.68 60.8895C161.781 60.4853 161.714 60.1483 161.511 59.9126C161.309 59.6767 160.905 59.542 160.332 59.542H159.793V59.5757Z" fill="#003B65"/>
<path d="M169.967 65.7409C169.9 66.0103 169.9 66.2125 169.967 66.3135C170.035 66.4146 170.102 66.4819 170.17 66.4819H170.203C170.372 66.4819 170.439 66.5494 170.405 66.7178L170.304 67.2568C170.271 67.4253 170.17 67.4927 170.001 67.4927H169.934C169.395 67.4927 169.058 67.3917 168.856 67.2231C168.654 67.0547 168.552 66.7852 168.586 66.4819H168.552C168.216 66.8862 167.811 67.1894 167.407 67.3917C167.003 67.5937 166.531 67.6611 166.059 67.6611C165.689 67.6611 165.352 67.5937 165.049 67.4927C164.746 67.3917 164.51 67.1894 164.308 66.9199C164.106 66.6505 164.004 66.3135 163.937 65.8756C163.87 65.4376 163.937 64.8987 164.072 64.2248C164.207 63.5847 164.375 63.0457 164.611 62.6077C164.847 62.1698 165.116 61.8329 165.419 61.5635C165.723 61.2939 166.026 61.1255 166.396 60.9906C166.733 60.8896 167.104 60.8223 167.475 60.8223C167.912 60.8223 168.283 60.8896 168.586 61.058C168.889 61.1929 169.125 61.4623 169.294 61.7655H169.327L169.53 61.2265C169.563 61.1255 169.597 61.058 169.631 61.0243C169.664 60.9906 169.732 60.957 169.833 60.957H170.709C170.877 60.957 170.944 61.0243 170.911 61.1929L169.967 65.7409ZM167.475 61.9339C167.239 61.9339 167.037 61.9677 166.834 62.0351C166.632 62.1024 166.464 62.2371 166.295 62.4057C166.127 62.5741 165.992 62.81 165.857 63.113C165.723 63.4163 165.622 63.7869 165.52 64.2922C165.419 64.7638 165.386 65.1681 165.352 65.4713C165.352 65.7746 165.386 66.0103 165.487 66.2125C165.588 66.3809 165.689 66.5158 165.857 66.5831C166.026 66.6505 166.228 66.6841 166.464 66.6841C167.037 66.6841 167.508 66.5158 167.879 66.1452C168.249 65.7746 168.519 65.1681 168.721 64.3259C168.889 63.4836 168.856 62.911 168.654 62.5404C168.451 62.1024 168.047 61.9339 167.475 61.9339Z" fill="#003B65"/>
<path d="M177.312 65.6393C177.244 65.9425 177.244 66.1784 177.278 66.3131C177.312 66.4478 177.379 66.5152 177.48 66.5152H177.514C177.682 66.5152 177.75 66.5827 177.716 66.7511L177.615 67.29C177.581 67.4586 177.48 67.5259 177.312 67.5259H177.244C176.032 67.5259 175.526 66.9194 175.796 65.7066L176.2 63.7528C176.234 63.5169 176.267 63.2811 176.267 63.0452C176.267 62.8095 176.234 62.641 176.2 62.4726C176.133 62.304 176.065 62.1693 175.93 62.0683C175.796 61.9671 175.627 61.9335 175.391 61.9335C174.516 61.9335 173.943 62.5736 173.673 63.8875L172.966 67.29C172.932 67.4586 172.831 67.5259 172.663 67.5259H171.652C171.484 67.5259 171.416 67.4249 171.45 67.29L172.359 62.8095C172.427 62.5399 172.427 62.3377 172.359 62.2367C172.292 62.1357 172.225 62.0683 172.157 62.0683H172.124C171.955 62.0683 171.888 62.001 171.922 61.8324L172.023 61.2934C172.056 61.1249 172.157 61.0576 172.326 61.0576H172.393C172.663 61.0576 172.865 61.0912 173.033 61.1249C173.202 61.1588 173.336 61.2261 173.437 61.3271C173.538 61.4282 173.606 61.5292 173.64 61.664C173.673 61.7987 173.707 61.9335 173.707 62.102H173.741C174.044 61.6977 174.347 61.3945 174.617 61.2261C174.92 61.0239 175.29 60.9229 175.728 60.9229C176.065 60.9229 176.368 60.9902 176.672 61.0912C176.941 61.1924 177.177 61.3608 177.379 61.5629C177.581 61.7651 177.682 62.0346 177.75 62.3377C177.817 62.641 177.817 62.9779 177.75 63.3822L177.312 65.6393Z" fill="#003B65"/>
<path d="M184.892 61.0574H183.847C183.679 61.0574 183.51 61.1248 183.376 61.2597L180.714 63.921L181.826 58.5645L180.141 59.4067L178.524 67.2899C178.491 67.4585 178.558 67.5258 178.727 67.5258H179.737C179.906 67.5258 180.007 67.4585 180.04 67.2899L180.579 64.6959L182.129 67.3236C182.197 67.4585 182.331 67.5258 182.5 67.5258H183.746C183.915 67.5258 183.982 67.4585 183.881 67.3236L181.86 64.1569L184.993 61.226C185.094 61.1248 185.094 61.0574 184.892 61.0574Z" fill="#003B65"/>
<path d="M122.466 66.987C122.264 66.7174 122.163 66.3805 122.095 65.9425C122.028 65.5046 122.095 64.9656 122.23 64.3254C122.365 63.6854 122.533 63.1463 122.769 62.7083C123.005 62.2704 123.274 61.9334 123.578 61.664C123.881 61.3945 124.184 61.2261 124.521 61.0912C124.858 60.9902 125.228 60.9229 125.565 60.9229C126.003 60.9229 126.34 60.9902 126.643 61.1587C126.946 61.2935 127.149 61.5292 127.351 61.8661C127.418 61.9671 127.519 62.102 127.384 62.2367L127.014 62.5736C126.913 62.6746 126.879 62.6073 126.812 62.5063C126.542 62.1357 126.205 62.0346 125.633 62.0346C125.397 62.0346 125.195 62.0683 124.992 62.1357C124.79 62.203 124.622 62.3377 124.487 62.5063C124.319 62.6746 124.184 62.9105 124.049 63.2136C123.915 63.5169 123.813 63.8201 123.712 64.2917L123.611 64.8982C123.578 65.1676 123.578 65.4035 123.611 65.6393C123.645 65.8415 123.679 66.0435 123.78 66.2121C123.881 66.3805 124.016 66.5152 124.184 66.5827C124.352 66.6837 124.588 66.7174 124.858 66.7174C125.094 66.7174 125.363 66.6837 125.599 66.6164C125.869 66.549 126.104 66.4815 126.408 66.4141C126.542 66.3805 126.643 66.3468 126.677 66.3805C126.711 66.3805 126.744 66.4141 126.744 66.4478L126.913 66.8521C126.98 66.9533 126.946 67.088 126.845 67.189C126.778 67.2564 126.677 67.3237 126.509 67.3912C126.34 67.4586 126.172 67.5259 125.97 67.5933C125.767 67.6606 125.532 67.6943 125.296 67.728C125.06 67.7617 124.79 67.7955 124.521 67.7955C123.948 67.7955 123.477 67.6943 123.14 67.5259C122.803 67.3574 122.533 67.088 122.365 66.7847C122.196 66.4815 122.095 66.1109 122.095 65.7405C122.095 65.3362 122.129 64.9319 122.196 64.494L122.466 66.987Z" fill="#003B65"/>
<path d="M113.134 64.8982C113.1 65.1676 113.1 65.4035 113.134 65.6393C113.168 65.8752 113.201 66.0435 113.302 66.2121C113.404 66.3805 113.538 66.5152 113.707 66.5827C113.875 66.6837 114.111 66.7174 114.38 66.7174C114.616 66.7174 114.886 66.6837 115.155 66.6164C115.425 66.549 115.694 66.4815 115.964 66.3805C116.099 66.3468 116.2 66.3131 116.233 66.3468C116.267 66.3468 116.301 66.3805 116.301 66.4141L116.469 66.8184C116.537 66.9194 116.503 67.0543 116.402 67.1553C116.335 67.2227 116.2 67.29 116.065 67.3574C115.897 67.4249 115.728 67.4923 115.526 67.5596C115.324 67.627 115.088 67.6606 114.818 67.6943C114.549 67.728 114.313 67.7617 114.044 67.7617C113.437 67.7617 112.999 67.6606 112.629 67.4923C112.292 67.29 112.022 67.0543 111.854 66.7511C111.685 66.4478 111.584 66.0772 111.584 65.6729C111.584 65.2687 111.618 64.8644 111.685 64.3928C111.786 63.9211 111.921 63.4495 112.09 63.0452C112.292 62.641 112.528 62.2704 112.797 61.9335C113.1 61.6304 113.437 61.3608 113.808 61.1924C114.212 60.9902 114.65 60.9229 115.189 60.9229C115.56 60.9229 115.93 60.9902 116.233 61.0912C116.537 61.1924 116.806 61.3608 117.008 61.5967C117.21 61.8324 117.345 62.102 117.412 62.4389C117.48 62.7757 117.48 63.1799 117.379 63.6179C117.345 63.8538 117.278 64.056 117.177 64.2244C117.109 64.3928 117.008 64.494 116.873 64.595C116.739 64.696 116.604 64.7634 116.402 64.797C116.233 64.8307 115.998 64.8644 115.728 64.8644L113.134 64.8982ZM115.324 63.8538C115.526 63.8538 115.661 63.8201 115.728 63.7864C115.795 63.7528 115.863 63.6179 115.897 63.4158C115.93 63.2475 115.93 63.0452 115.93 62.8769C115.897 62.7083 115.863 62.5399 115.795 62.4389C115.728 62.304 115.627 62.203 115.492 62.1357C115.357 62.0683 115.223 62.001 115.054 62.001C114.818 62.001 114.616 62.0683 114.448 62.1693C114.279 62.2704 114.111 62.4052 113.976 62.5736C113.842 62.742 113.707 62.9442 113.606 63.1463C113.505 63.3822 113.404 63.6179 113.37 63.8538H115.324Z" fill="#003B65"/>
<path d="M131.225 57.8574L129.608 58.6996L127.789 67.2902C127.755 67.4588 127.822 67.5261 127.991 67.5261H128.934C129.103 67.5261 129.204 67.4588 129.237 67.2902L130.046 63.4497L130.113 63.1802C130.417 62.3718 130.922 61.9675 131.629 61.9675C131.865 61.9675 132.033 62.0012 132.168 62.1022C132.303 62.2032 132.37 62.3379 132.438 62.5065C132.505 62.6749 132.505 62.8771 132.505 63.0791C132.505 63.2814 132.471 63.5171 132.438 63.753L132.033 65.707C131.798 66.9196 132.202 67.5261 133.415 67.5261H133.482C133.651 67.5261 133.752 67.4588 133.785 67.2902L133.886 66.7513C133.92 66.5829 133.853 66.5155 133.684 66.5155H133.651C133.55 66.5155 133.516 66.448 133.449 66.3133C133.415 66.1786 133.415 65.9764 133.482 65.6395L133.954 63.3487C134.021 62.9781 134.021 62.6075 133.954 62.3043C133.886 62.0012 133.752 61.7316 133.583 61.5294C133.415 61.3273 133.179 61.159 132.876 61.0578C132.606 60.9567 132.37 60.8894 132.033 60.8894C131.596 60.8894 131.225 60.9904 130.922 61.159C130.753 61.26 130.585 61.3947 130.417 61.5632L131.225 57.8574Z" fill="#003B65"/>
<path d="M147.463 65.673C147.396 65.9762 147.396 66.2121 147.43 66.3468C147.463 66.4815 147.531 66.549 147.632 66.549H147.665C147.834 66.549 147.901 66.6164 147.867 66.7848L147.766 67.3237C147.733 67.4923 147.632 67.5596 147.463 67.5596H147.396C146.183 67.5596 145.711 66.9533 145.947 65.7405L146.351 63.7865C146.385 63.5506 146.419 63.3148 146.419 63.1126C146.419 62.8769 146.385 62.7084 146.351 62.54C146.284 62.3716 146.217 62.2367 146.082 62.1357C145.947 62.0347 145.779 62.001 145.577 62.001C144.701 62.001 144.128 62.641 143.858 63.9548L143.151 67.3237C143.117 67.4923 143.016 67.5596 142.848 67.5596H141.837C141.669 67.5596 141.601 67.4923 141.635 67.3237L142.578 62.8769C142.646 62.6073 142.646 62.439 142.578 62.3041C142.511 62.2031 142.444 62.1357 142.376 62.1357H142.342C142.174 62.1357 142.107 62.0684 142.14 61.8998L142.241 61.3608C142.275 61.1925 142.376 61.1251 142.545 61.1251H142.612C142.881 61.1251 143.05 61.1588 143.218 61.1925C143.387 61.2261 143.521 61.2935 143.623 61.3945C143.724 61.4955 143.791 61.5967 143.825 61.7314C143.858 61.8661 143.892 61.9673 143.892 62.1357H143.926C144.229 61.7314 144.498 61.4619 144.802 61.2598C145.105 61.0576 145.476 60.9902 145.913 60.9902C146.25 60.9902 146.553 61.0576 146.823 61.1588C147.093 61.2598 147.328 61.4282 147.531 61.6304C147.699 61.8325 147.834 62.102 147.901 62.4053C147.969 62.7084 147.969 63.0453 147.901 63.4495L147.463 65.673Z" fill="#003B65"/>
<path d="M122.062 62.1025C122.028 62.1699 121.994 62.2372 121.96 62.2709C121.927 62.3046 121.893 62.3046 121.826 62.3383C121.792 62.3383 121.725 62.3383 121.657 62.3383C121.59 62.3383 121.556 62.3046 121.489 62.3046C120.68 62.3046 120.209 62.7089 120.04 63.5174L119.198 67.3579C119.164 67.5265 119.063 67.5938 118.895 67.5938H117.951C117.783 67.5938 117.716 67.5265 117.749 67.3579L118.693 62.8774C118.76 62.6078 118.76 62.4395 118.693 62.3046C118.625 62.2036 118.558 62.1362 118.491 62.1362H118.457C118.288 62.1362 118.221 62.0689 118.255 61.9003L118.356 61.395C118.39 61.2266 118.491 61.1593 118.659 61.1593H118.726C119.232 61.1593 119.535 61.2266 119.737 61.3613C119.939 61.496 120.074 61.6309 120.074 61.8666H120.108C120.377 61.5636 120.647 61.3613 120.95 61.2266C121.219 61.0918 121.59 61.0244 122.028 61.0244C122.095 61.0244 122.163 61.0244 122.196 61.0581C122.23 61.0918 122.23 61.1254 122.196 61.2266L122.062 62.1025Z" fill="#003B65"/>
<path d="M152.281 61.1247H151.472L151.876 59.1709L150.293 60.0131L150.057 61.1247H149.417C149.249 61.1247 149.148 61.1923 149.114 61.3606L149.013 61.8323C148.979 62.0008 149.046 62.0682 149.215 62.0682H149.855L149.114 65.6054C148.979 66.2456 149.013 66.7509 149.249 67.0541C149.484 67.3572 149.889 67.5258 150.462 67.5258H151.001C151.169 67.5258 151.27 67.4584 151.304 67.2899L151.405 66.7509C151.438 66.5825 151.371 66.515 151.203 66.515H151.001C150.866 66.515 150.697 66.4477 150.596 66.313C150.495 66.1782 150.462 65.976 150.529 65.6728L151.27 62.1018H152.079C152.247 62.1018 152.348 62.0345 152.382 61.8659L152.483 61.3943C152.517 61.1923 152.449 61.1247 152.281 61.1247Z" fill="#003B65"/>
<path d="M111.416 58.7666C111.45 58.5981 111.382 58.4971 111.214 58.4971H109.664C109.496 58.4971 109.395 58.5644 109.327 58.733L106.565 64.7969L106.261 58.6993C106.261 58.5307 106.093 58.4971 105.924 58.4971H104.611C104.442 58.4971 104.341 58.5644 104.274 58.733L101.545 67.2562C101.478 67.4248 101.545 67.4921 101.713 67.4921H102.657C102.825 67.4921 102.926 67.4248 102.96 67.2562L104.779 61.4617L105.082 67.2899C105.116 67.4248 105.251 67.4921 105.419 67.4921H106.565C106.733 67.4921 106.801 67.4248 106.868 67.2562L109.462 61.5627L108.99 67.2562C108.99 67.4248 109.058 67.4921 109.226 67.4921H110.304C110.472 67.4921 110.54 67.4248 110.574 67.2562L111.416 58.7666Z" fill="#003B65"/>
<path d="M163.331 46.0323C163.735 46.0323 164.038 45.9649 164.207 45.8638C164.375 45.7628 164.51 45.527 164.577 45.1227C164.645 44.7184 164.678 44.3478 164.645 43.9773C164.577 43.6067 164.51 43.3035 164.341 43.034C164.207 42.7645 164.004 42.5286 163.735 42.3602C163.465 42.1917 163.162 42.1244 162.792 42.1244C162.32 42.1244 161.848 42.2254 161.478 42.4276C161.107 42.6297 160.737 42.9329 160.467 43.2698C160.164 43.6404 159.928 44.0446 159.692 44.5163C159.49 44.9879 159.288 45.4933 159.153 45.9986L163.331 46.0323ZM158.715 48.2557C158.648 48.8285 158.648 49.3338 158.682 49.8054C158.715 50.2771 158.85 50.6813 159.018 51.0183C159.221 51.3552 159.49 51.6248 159.895 51.8268C160.265 52.029 160.77 52.1301 161.343 52.1301C161.882 52.1301 162.421 52.0627 162.96 51.9278C163.499 51.7931 164.072 51.6584 164.678 51.4562C164.982 51.3889 165.15 51.3552 165.217 51.3889C165.285 51.4225 165.352 51.4562 165.352 51.5236L165.756 52.3658C165.891 52.6017 165.824 52.8374 165.588 53.0733C165.419 53.208 165.184 53.3766 164.847 53.5113C164.51 53.6796 164.106 53.8145 163.668 53.9492C163.23 54.0839 162.724 54.1851 162.185 54.2525C161.646 54.3198 161.073 54.3535 160.501 54.3535C159.254 54.3535 158.244 54.1514 157.503 53.7472C156.761 53.3429 156.222 52.8374 155.852 52.1637C155.515 51.4899 155.313 50.7487 155.279 49.9065C155.245 49.0642 155.346 48.1547 155.515 47.2114C155.717 46.1671 156.02 45.2238 156.424 44.3141C156.829 43.4045 157.334 42.6297 157.941 41.9559C158.547 41.2821 159.288 40.7768 160.13 40.3725C160.972 39.9682 161.916 39.7998 163.028 39.7998C163.836 39.7998 164.577 39.9009 165.251 40.1367C165.925 40.3725 166.464 40.7431 166.868 41.2147C167.306 41.6864 167.576 42.2928 167.744 43.0003C167.912 43.7077 167.879 44.55 167.677 45.5269C167.576 46.0323 167.441 46.4702 167.272 46.8071C167.104 47.1441 166.902 47.4135 166.599 47.6157C166.329 47.8178 165.992 47.9526 165.588 48.0537C165.184 48.1547 164.712 48.1884 164.173 48.1884L158.715 48.2557Z" fill="#003B65"/>
<path d="M179.232 42.7312C179.131 42.866 179.064 42.8997 178.895 42.866C178.76 42.8323 178.626 42.7986 178.525 42.7649C178.053 42.5965 177.581 42.4281 177.11 42.2933C176.638 42.1585 176.099 42.0912 175.526 42.0912C174.718 42.0912 174.111 42.2596 173.673 42.5628C173.269 42.866 172.999 43.304 172.865 43.8093C172.797 44.1125 172.831 44.382 172.966 44.6178C173.1 44.8537 173.336 45.0221 173.673 45.1232L176.638 46.0328C177.75 46.3697 178.423 46.875 178.76 47.5151C179.064 48.1888 179.131 49.031 178.895 50.0418C178.727 50.783 178.457 51.3893 178.053 51.9283C177.615 52.4675 177.11 52.9054 176.537 53.276C175.93 53.6466 175.29 53.916 174.583 54.0845C173.875 54.2529 173.134 54.3539 172.393 54.3539C171.82 54.3539 171.281 54.3203 170.776 54.2529C170.271 54.1856 169.799 54.0845 169.395 53.9833C168.957 53.8823 168.62 53.7476 168.35 53.5791C168.081 53.4107 167.912 53.2423 167.811 53.0738C167.677 52.838 167.71 52.6022 167.912 52.3663L168.687 51.524C168.788 51.423 168.889 51.3893 169.024 51.3893C169.159 51.3893 169.294 51.423 169.395 51.4567C169.9 51.6252 170.405 51.7936 170.944 51.9283C171.484 52.0632 172.09 52.1305 172.73 52.1305C173.303 52.1305 173.774 52.0632 174.145 51.962C174.516 51.861 174.819 51.7263 175.055 51.5577C175.29 51.3893 175.459 51.1873 175.56 50.9851C175.661 50.783 175.762 50.5808 175.796 50.3451C175.863 49.9408 175.796 49.6375 175.526 49.4016C175.257 49.1996 174.751 48.93 174.044 48.6943L171.82 48.0204C170.877 47.7172 170.271 47.2119 169.968 46.5381C169.664 45.8306 169.597 45.0558 169.765 44.1799C169.9 43.5735 170.136 43.0008 170.439 42.4954C170.776 41.9901 171.18 41.5184 171.686 41.1142C172.191 40.7099 172.764 40.4067 173.437 40.2046C174.111 40.0024 174.852 39.9014 175.695 39.9014C176.84 39.9014 177.817 40.0361 178.626 40.3393C179.434 40.6425 179.939 40.912 180.175 41.2152C180.209 41.2826 180.243 41.35 180.243 41.4511C180.276 41.5521 180.175 41.7206 180.007 41.889L179.232 42.7312Z" fill="#003B65"/>
<path d="M188.665 40.4401H186.947L187.789 36.2627L184.42 38.0819L183.949 40.4401H182.567C182.197 40.4401 181.994 40.6086 181.927 40.9792L181.691 41.9898C181.624 42.3267 181.759 42.4952 182.096 42.4952H183.477L181.893 49.9742C181.624 51.3554 181.725 52.3997 182.197 53.0735C182.702 53.7474 183.511 54.0841 184.757 54.0841H185.869C186.206 54.0841 186.408 53.9158 186.475 53.5452L186.711 52.3997C186.778 52.0629 186.644 51.8944 186.307 51.8944H185.869C185.566 51.8944 185.262 51.7597 185.06 51.4901C184.858 51.2207 184.791 50.7489 184.925 50.1089L186.543 42.5289H188.261C188.598 42.5289 188.833 42.3604 188.901 41.9898L189.137 40.9455C189.17 40.6086 189.036 40.4401 188.665 40.4401Z" fill="#003B65"/>
<path d="M142.073 44.3816C142.208 43.7415 142.208 43.2698 142.107 42.9666C142.005 42.6971 141.871 42.5287 141.702 42.5287H141.635C141.298 42.5287 141.13 42.3602 141.197 41.9896L141.433 40.8105C141.5 40.4736 141.736 40.2715 142.073 40.2715H142.241C144.835 40.2715 145.88 41.5517 145.341 44.1457L144.498 48.2896C144.397 48.7949 144.33 49.3002 144.33 49.7718C144.33 50.2434 144.364 50.6477 144.498 51.0183C144.6 51.3889 144.802 51.6585 145.071 51.8605C145.341 52.0627 145.711 52.1974 146.183 52.1974C148.07 52.1974 149.282 50.8162 149.855 48.0537L151.371 40.8442C151.438 40.4736 151.674 40.3052 152.011 40.3052H153.999C154.369 40.3052 154.538 40.4736 154.437 40.8442L152.449 50.3446C152.314 50.9173 152.314 51.3215 152.416 51.5573C152.517 51.7932 152.685 51.9279 152.853 51.9279H152.887C153.258 51.9279 153.392 52.0964 153.325 52.467L153.089 53.6123C153.022 53.9492 152.786 54.1514 152.449 54.1514H152.281C151.708 54.1514 151.304 54.0841 150.933 54.0166C150.731 53.9829 150.394 53.7809 150.192 53.646C149.99 53.4776 149.821 53.208 149.754 52.9386C149.653 52.6691 149.619 52.3658 149.619 52.0291H149.552C148.912 52.8713 148.305 53.5113 147.665 53.9156C147.059 54.3198 146.25 54.522 145.307 54.522C144.6 54.522 143.926 54.4208 143.353 54.1851C142.747 53.9492 142.275 53.6123 141.871 53.1744C141.466 52.7364 141.197 52.1974 141.062 51.5573C140.927 50.9173 140.927 50.1761 141.096 49.3338L142.073 44.3816Z" fill="#003B65"/>
<path d="M87.4292 36.7684C87.3618 37.139 87.126 37.3075 86.7891 37.3075H80.186L78.9732 43.203H84.2287C84.5656 43.203 84.7341 43.3715 84.633 43.7421L84.3635 45.0559C84.2961 45.4265 84.0603 45.595 83.7234 45.595H78.4679L76.8171 53.5456C76.7497 53.9162 76.5476 54.0847 76.2107 54.0847H73.9198C73.5493 54.0847 73.3808 53.9162 73.4819 53.5456L77.2214 35.4209C77.2888 35.0503 77.5246 34.8818 77.8615 34.8818H87.2607C87.6313 34.8818 87.7661 35.0503 87.665 35.4209L87.4292 36.7684Z" fill="#003B65"/>
<path d="M93.0215 37.139L91.775 43.1694H93.3585C93.7627 43.1694 94.1333 43.102 94.5039 42.9672C94.8745 42.8325 95.2451 42.6303 95.5482 42.3271C95.8851 42.0576 96.1547 41.7207 96.3904 41.3165C96.6263 40.9122 96.7947 40.4742 96.8959 39.9689C97.0643 39.093 96.9633 38.3855 96.5253 37.8802C96.0874 37.3411 95.2788 37.1053 94.0997 37.1053H93.0215V37.139ZM91.3034 45.4265L89.9559 51.8611H92.2467C92.9879 51.8611 93.5944 51.7601 94.0997 51.5915C94.605 51.3895 95.0429 51.1536 95.3462 50.8842C95.6831 50.5809 95.9188 50.244 96.121 49.8734C96.3231 49.5028 96.4243 49.0986 96.5253 48.6945C96.5927 48.2902 96.6263 47.9196 96.5927 47.549C96.559 47.1784 96.4243 46.8078 96.2221 46.5046C96.02 46.2014 95.6831 45.9319 95.2451 45.7634C94.8072 45.5613 94.268 45.4939 93.5607 45.4939H91.3034V45.4265ZM94.605 34.9155C96.6937 34.9155 98.2434 35.3535 99.254 36.2294C100.298 37.1053 100.635 38.3518 100.298 39.9689C100.096 40.9122 99.692 41.7207 99.153 42.3945C98.5803 43.0346 97.8728 43.5736 96.9633 43.9779V44.0453C98.2097 44.2474 99.0856 44.7527 99.5909 45.595C100.096 46.4372 100.197 47.448 99.9615 48.6606C99.7932 49.4355 99.4899 50.1767 99.052 50.8168C98.614 51.4568 98.075 52.0633 97.4349 52.535C96.7947 53.0403 96.0537 53.4109 95.2788 53.6804C94.4703 53.9498 93.6617 54.0847 92.7858 54.0847H86.7217C86.3512 54.0847 86.2164 53.9162 86.2838 53.5456L90.0233 35.4209C90.0907 35.0503 90.3265 34.8818 90.6634 34.8818H94.605V34.9155Z" fill="#003B65"/>
<path d="M115.189 53.5456C115.122 53.9162 114.919 54.0847 114.583 54.0847H112.73C112.325 54.0847 112.056 53.9498 111.921 53.6466L106.464 40.6764H106.43L105.588 46.1003L104.038 53.5456C103.971 53.9162 103.768 54.0847 103.431 54.0847H101.41C101.04 54.0847 100.871 53.9162 100.972 53.5456L104.712 35.4209C104.779 35.0503 105.015 34.8818 105.352 34.8818H107.205C107.609 34.8818 107.845 35.0166 107.979 35.3198L113.437 48.3239H113.505L114.381 42.8998L115.93 35.4546C115.998 35.084 116.233 34.9155 116.57 34.9155H118.592C118.962 34.9155 119.097 35.084 118.996 35.4546L115.189 53.5456Z" fill="#003B65"/>
<path d="M139.411 40.7437C139.411 39.5309 139.142 38.4866 138.67 37.6106C138.199 36.7347 137.457 35.9936 136.413 35.4882C135.369 34.9492 134.021 34.6797 132.269 34.6797C130.551 34.6797 129.035 34.9492 127.822 35.4882C126.576 36.0272 125.532 36.7347 124.689 37.6443C123.847 38.5539 123.173 39.5983 122.668 40.7774C122.163 41.9565 121.792 43.2367 121.489 44.5843C121.186 45.9318 121.085 47.212 121.085 48.3912C121.118 49.5703 121.354 50.6146 121.826 51.4905C122.297 52.3664 123.039 53.0739 124.083 53.5792C125.094 54.0847 126.475 54.3541 128.159 54.3541C128.934 55.0616 129.844 55.6343 130.888 56.0722C132.135 56.5777 133.617 56.8471 135.335 56.8471C135.537 56.8471 135.706 56.8471 135.908 56.8471C136.177 56.8471 136.379 56.645 136.447 56.4091L136.918 54.3541C136.986 54.0172 136.683 53.7478 136.346 53.8488C135.874 54.0172 135.335 54.0847 134.695 54.0847C133.853 54.0847 133.112 53.9498 132.438 53.6467C132.505 53.6129 132.573 53.5792 132.674 53.5455C133.92 53.0402 134.964 52.3327 135.807 51.4231C136.649 50.5472 137.323 49.503 137.828 48.2901C138.333 47.0773 138.738 45.8308 139.007 44.4832C139.31 43.2367 139.445 41.9565 139.411 40.7437ZM135.537 42.0239C135.47 42.8998 135.369 43.7757 135.167 44.6517C134.964 45.595 134.729 46.4709 134.425 47.2794C134.122 48.1216 133.718 48.8628 133.246 49.503C132.775 50.143 132.135 50.6483 131.427 51.0525C130.686 51.4568 129.844 51.6254 128.867 51.6254C127.856 51.6254 127.047 51.4231 126.475 51.0189C125.902 50.6146 125.498 50.0419 125.262 49.3681C125.026 48.7281 124.959 47.9869 125.026 47.111C125.06 46.3024 125.195 45.4265 125.397 44.4832C125.599 43.5399 125.835 42.664 126.138 41.8555C126.441 41.0132 126.845 40.2721 127.317 39.5983C127.822 38.9245 128.395 38.4192 129.103 38.0149C129.81 37.6443 130.686 37.4422 131.663 37.4422C132.674 37.4422 133.449 37.6443 134.055 38.0486C134.661 38.4529 135.066 39.0256 135.301 39.7331C135.504 40.4068 135.571 41.148 135.537 42.0239Z" fill="#003B65"/>
<path d="M223.466 50.6816C222.994 50.6816 222.523 50.6816 222.219 50.648L226.565 30.165H197.525L196.616 34.4099C195.571 34.2414 194.864 34.6794 194.628 35.3532C194.426 36.0269 193.617 38.9242 193.617 40.8108C193.617 43.7754 194.358 44.8872 194.358 44.8872L189.036 69.9856H218.076L221.579 53.4779C225.554 53.3432 226.666 52.0967 226.666 51.3892C226.7 50.3447 224.712 50.6816 223.466 50.6816Z" fill="#C6CCD1"/>
<path d="M210.428 48.4245C210.428 48.4245 215.616 53.6126 222.826 52.7367C225.453 52.3997 226.026 51.7261 225.959 51.3891C225.891 51.0859 224.982 51.2208 224.106 51.2544C223.6 51.2881 219.255 51.8608 213.426 47.4476C211.203 46.8411 210.428 48.4245 210.428 48.4245ZM193.617 59.4746L199.311 57.4869L207.194 63.0792L204.128 64.9996L208.643 68.739L208.71 67.4252L210.091 64.09L209.99 61.1927L207.126 56.5435L207.666 54.5223L207.463 52.265C200.052 52.265 196.851 49.0308 195.099 46.3695L192.371 59.3061L193.617 59.4746ZM209.99 42.1246L208.373 40.5749L205.948 42.6974L209.99 42.1246ZM217.031 45.3588C217.537 46.2684 217.705 47.5149 217.84 49.4014C216.155 48.6266 213.292 46.3358 213.292 46.3358C210.058 45.6957 208.946 48.2898 208.946 48.2898L209.687 48.9298C209.417 50.21 208.508 50.8502 208.508 50.8502C194.055 50.8502 194.358 41.8214 194.358 40.8108C194.358 38.9242 195.099 36.128 195.335 35.5216C195.571 34.9152 196.649 35.1173 196.649 35.1173L203.724 36.1617L205.206 35.3531C205.206 35.3531 207.396 35.1847 209.754 35.8585C209.754 35.8585 213.393 38.9242 214.808 41.1476L214.707 42.2931C214.74 42.2931 216.593 44.5166 217.031 45.3588ZM215.616 63.1129C216.189 63.1129 216.559 62.776 216.559 62.776C216.627 61.9337 216.425 61.5295 216.425 61.5295C215.751 61.698 215.212 61.4621 215.145 60.7884C215.044 59.8787 217.132 55.8361 217.671 54.5223C217.873 54.0168 217.907 53.242 217.907 53.242C215.684 52.9389 213.763 51.7597 213.763 51.7597L213.965 53.1746C214.066 54.0168 212.921 58.5985 213.157 60.8558C213.157 60.8221 213.359 63.1129 215.616 63.1129ZM199.21 62.5066V58.4975L203.522 61.5295L202.275 67.7283L202.848 68.9074H197.626L197.02 67.7283L199.21 62.5066Z" fill="#003B65"/>
</g>
<defs>
<clipPath id="clip0_297_9075">
<rect width="153.333" height="40" fill="white" transform="translate(73.3333 30)"/>
</clipPath>
</defs>
</svg>
