<svg width="300" height="100" viewBox="0 0 300 100" fill="none" xmlns="http://www.w3.org/2000/svg">
<rect width="300" height="100" fill="white"/>
<g clip-path="url(#clip0_291_4142)">
<path d="M168.182 30.2402H131.818C130.947 30.2402 130.24 30.9469 130.24 31.8186V68.1818C130.24 69.0536 130.947 69.7602 131.818 69.7602H168.182C169.053 69.7602 169.76 69.0536 169.76 68.1818V31.8186C169.76 30.9469 169.053 30.2402 168.182 30.2402Z" fill="#5C2682"/>
<path d="M137.875 46.1721V47.6321H141.104V48.9765H137.875V51.5969H136.386V44.8281H141.539V46.1721H137.875Z" fill="white"/>
<path d="M148.134 51.0071C147.944 51.1571 147.738 51.2852 147.52 51.3891C147.287 51.4984 147.042 51.579 146.79 51.6291C146.497 51.6867 146.199 51.7143 145.9 51.7115C145.426 51.7158 144.955 51.6237 144.518 51.4407C144.105 51.2689 143.731 51.0176 143.415 50.7011C143.103 50.3836 142.856 50.0073 142.69 49.5939C142.514 49.1609 142.426 48.6976 142.429 48.2303V48.2111C142.425 47.745 142.514 47.2828 142.69 46.8511C142.858 46.4376 143.105 46.0602 143.415 45.7395C143.731 45.4157 144.11 45.1591 144.527 44.9851C144.981 44.7979 145.469 44.7051 145.96 44.7123C146.25 44.7101 146.54 44.736 146.825 44.7895C147.069 44.8361 147.307 44.9074 147.536 45.0023C147.744 45.0901 147.942 45.2004 148.126 45.3311C148.305 45.459 148.473 45.6013 148.629 45.7567L147.68 46.8491C147.438 46.6264 147.166 46.4379 146.872 46.2891C146.584 46.1508 146.268 46.0814 145.949 46.0863C145.677 46.0838 145.409 46.1399 145.161 46.2507C144.923 46.357 144.711 46.5118 144.537 46.7051C144.361 46.9018 144.223 47.1297 144.131 47.3771C144.033 47.6383 143.984 47.9153 143.986 48.1943V48.2135C143.984 48.494 144.034 48.7725 144.131 49.0355C144.222 49.2837 144.358 49.5131 144.531 49.7123C144.708 49.9126 144.926 50.0725 145.171 50.1809C145.415 50.2894 145.68 50.3439 145.948 50.3407C146.335 50.3407 146.662 50.2698 146.929 50.1279C147.219 49.9701 147.487 49.7751 147.727 49.5479L148.674 50.5051C148.507 50.6859 148.327 50.8537 148.134 51.0071Z" fill="white"/>
<path d="M155.164 51.5969V47.1777L153.258 50.0689H153.218L151.333 47.2069V51.5969H149.865V44.8281H151.47L153.249 47.6905L155.028 44.8281H156.633V51.5969H155.164Z" fill="white"/>
<path d="M163.823 50.5525C163.703 50.7853 163.527 50.9847 163.311 51.1325C163.068 51.2965 162.797 51.4146 162.511 51.4809C162.171 51.5615 161.821 51.6005 161.471 51.5969H158.258V44.8281H161.395C162.089 44.8281 162.635 44.9861 163.03 45.3021C163.426 45.6181 163.624 46.0436 163.624 46.5785V46.5997C163.627 46.7733 163.603 46.9462 163.552 47.1121C163.507 47.2537 163.442 47.3884 163.36 47.5121C163.282 47.6294 163.187 47.7352 163.08 47.8265C162.975 47.9162 162.861 47.994 162.739 48.0585C163.13 48.2071 163.438 48.4085 163.663 48.6629C163.888 48.9173 164 49.2696 164 49.7197V49.7389C164.007 50.0204 163.946 50.2994 163.823 50.5525ZM162.154 46.8297C162.154 46.6041 162.071 46.4317 161.903 46.3125C161.736 46.1933 161.494 46.1337 161.178 46.1337H159.708V47.5645H161.08C161.409 47.5645 161.67 47.5081 161.863 47.3953C162.057 47.2825 162.153 47.1004 162.153 46.8489L162.154 46.8297ZM162.532 49.5373C162.535 49.4332 162.513 49.3298 162.468 49.2362C162.422 49.1425 162.354 49.0613 162.27 48.9997C162.096 48.8677 161.816 48.8011 161.43 48.7997H159.71V50.2889H161.48C161.809 50.2889 162.067 50.2293 162.254 50.1101C162.441 49.9909 162.534 49.8056 162.534 49.5541L162.532 49.5373Z" fill="white"/>
<path d="M163.889 55.9346V59.249H136.238V57.5058C136.238 57.2994 136.278 57.0951 136.357 56.9044C136.436 56.7138 136.552 56.5406 136.698 56.3946C136.844 56.2487 137.017 56.133 137.207 56.0541C137.398 55.9751 137.602 55.9345 137.809 55.9346H163.889Z" fill="#FAB613"/>
<path d="M136.238 60.3223H163.889V63.6367H137.809C137.602 63.6367 137.398 63.5961 137.207 63.5171C137.017 63.4382 136.843 63.3224 136.698 63.1764C136.552 63.0305 136.436 62.8572 136.357 62.6665C136.278 62.4758 136.237 62.2714 136.238 62.0651V60.3223Z" fill="#FAB613"/>
</g>
<defs>
<clipPath id="clip0_291_4142">
<rect width="40" height="40" fill="white" transform="translate(130 30)"/>
</clipPath>
</defs>
</svg>
