<svg width="300" height="100" viewBox="0 0 300 100" fill="none" xmlns="http://www.w3.org/2000/svg">
<rect width="300" height="100" fill="white"/>
<g clip-path="url(#clip0_298_12101)">
<path d="M135.467 45.8278H137.397V42.575H143.221V45.8056H156.727V42.5723H162.546V45.8222H164.476V51.1779H162.571V54.0944H164.47V59.4612C163.748 59.4612 163.045 59.4612 162.345 59.4612C162.116 59.4612 162.031 59.5334 161.951 59.7389C160.211 64.3222 156.967 67.1639 152.185 68.0973C146.184 69.2667 140.123 65.6973 138.044 59.8472C138.022 59.722 137.952 59.6106 137.849 59.5373C137.745 59.4639 137.618 59.4346 137.493 59.4556C136.834 59.4806 136.173 59.4556 135.486 59.4556V54.1111H137.388V51.1944H135.475L135.467 45.8278ZM156.708 51.2111H143.251V54.0723H156.708V51.2111ZM144.15 59.4723C145.837 61.7362 148.009 62.789 150.718 62.5278C152.841 62.3251 154.503 61.2639 155.785 59.4723H144.15Z" fill="#1560BD"/>
<path d="M126.388 44.8589V34.9866L132.697 33.9199V67.9477H126.47V65.6393C126.399 65.6747 126.33 65.7136 126.263 65.756C123.962 67.4754 121.374 68.0894 118.546 67.8838C113.121 67.4894 108.686 63.2171 107.658 58.2449C106.202 51.2115 110.221 45.2866 116.043 43.5533C119.549 42.5088 122.948 42.8589 126.134 44.7589L126.277 44.8393C126.313 44.8505 126.35 44.857 126.388 44.8589ZM126.388 55.4422C126.388 53.9643 126.388 52.4894 126.388 51.0144C126.397 50.9095 126.38 50.8039 126.34 50.707C126.299 50.6101 126.235 50.5248 126.153 50.4589C125.24 49.6222 124.145 49.0111 122.957 48.6736C121.769 48.3361 120.519 48.2816 119.306 48.5144C116.18 49.0422 114.11 51.2921 113.658 54.4894C113.451 55.8992 113.679 57.3391 114.312 58.6137C114.945 59.8883 115.951 60.936 117.195 61.6144C118.708 62.4477 120.326 62.6088 122.002 62.3727C123.568 62.1838 125.028 61.4798 126.156 60.3699C126.233 60.3007 126.294 60.2147 126.334 60.1186C126.374 60.0225 126.393 59.9185 126.388 59.8144C126.382 58.3699 126.385 56.9061 126.385 55.4422H126.388Z" fill="#1560BD"/>
<path d="M218.193 68.2115V66.0727C218.142 66.0853 218.093 66.1049 218.047 66.1309C215.841 67.7338 213.361 68.2393 210.701 68.1449C208.817 68.122 206.982 67.5426 205.423 66.4781C202.299 64.2921 201.88 60.5171 203.032 57.8088C203.801 56.0059 205.257 54.9338 207.013 54.2255C208.522 53.6578 210.12 53.3652 211.731 53.3616C213.861 53.2882 215.986 53.5957 218.008 54.2699C218.069 54.2847 218.129 54.2959 218.19 54.3032C218.19 54.1226 218.19 53.9643 218.19 53.8032C218.207 53.0172 218.169 52.2311 218.077 51.4504C217.758 49.7004 216.547 48.8282 214.904 48.4921C212.961 48.0921 211.065 48.3837 209.213 48.9948C208.051 49.3781 206.919 49.8282 205.728 50.2727L203.443 45.5977C204.152 45.3199 204.822 45.0199 205.513 44.7643C208.658 43.5309 211.899 42.8532 215.293 43.0532C217.286 43.1671 219.193 43.6088 220.891 44.7199C222.893 46.042 224.003 47.9365 224.323 50.3032C224.413 50.9957 224.455 51.6937 224.45 52.3921C224.461 57.5199 224.461 62.6467 224.45 67.7727V68.2199L218.193 68.2115ZM218.193 60.2587C218.193 59.7727 218.176 59.2837 218.193 58.7948C218.209 58.6935 218.186 58.5897 218.128 58.5052C218.07 58.4208 217.982 58.3623 217.881 58.342C216.146 57.7151 214.303 57.4477 212.462 57.556C211.407 57.6115 210.384 57.8338 209.513 58.4865C209.184 58.7239 208.917 59.0367 208.733 59.3989C208.547 59.7612 208.451 60.1626 208.451 60.5698C208.451 60.9771 208.547 61.3785 208.733 61.7408C208.917 62.1031 209.184 62.4159 209.513 62.6532C209.878 62.9185 210.279 63.1282 210.704 63.2754C211.774 63.6616 212.887 63.6587 214.011 63.5532C215.4 63.4426 216.739 62.9884 217.912 62.2309C218.008 62.1825 218.088 62.1055 218.141 62.0101C218.192 61.9149 218.215 61.8059 218.203 61.6977C218.17 61.2143 218.19 60.7365 218.19 60.2587H218.193Z" fill="#1560BD"/>
<path d="M87.6955 68.2H81.3557V48.025H76V42.7223H81.3502C81.3502 42.5639 81.3502 42.4444 81.3502 42.3083C81.3723 41.2194 81.3309 40.1278 81.4274 39.05C81.7499 35.4389 83.9082 33.0194 87.4392 32.2666C89.5411 31.8435 91.7048 31.8369 93.8093 32.2472C94.1538 32.3111 94.2614 32.4472 94.2558 32.8028C94.231 34.3667 94.2558 35.9333 94.2558 37.4972C94.2558 37.5528 94.2558 37.6055 94.2558 37.7028L93.2856 37.5278C92.1819 37.2978 91.0447 37.2855 89.9365 37.4917C88.5583 37.7917 87.7617 38.7278 87.7313 40.1583C87.7065 40.9917 87.7313 41.825 87.7313 42.7056H94.2586V48H87.6955V68.2Z" fill="#1560BD"/>
<path d="M189.719 47.3421L185.802 51.5281C185.705 51.4087 185.626 51.2921 185.526 51.1921C184.369 49.9893 183.046 49.0754 181.392 48.7254C177.072 47.8199 174.159 50.7893 173.541 53.9671C173.199 55.5632 173.358 57.2272 173.996 58.7281C174.518 59.9438 175.396 60.9698 176.512 61.6693C177.628 62.3686 178.93 62.708 180.242 62.6421C182.31 62.5671 183.977 61.6531 185.43 60.2504C185.53 60.1437 185.622 60.0294 185.705 59.9087L189.551 63.9726C189.077 64.4003 188.638 64.8337 188.173 65.2226C183.762 68.8337 177.373 69.2642 172.706 66.2003C171.176 65.2387 169.884 63.9361 168.931 62.3928C167.978 60.8494 167.39 59.1063 167.21 57.2976C166.785 53.7087 167.576 50.4281 169.895 47.617C170.944 46.3007 172.253 45.2185 173.739 44.4391C175.225 43.6597 176.856 43.2 178.528 43.0893C182.288 42.7865 185.656 43.7976 188.569 46.2393C188.947 46.5698 189.305 46.9504 189.719 47.3421Z" fill="#1560BD"/>
<path d="M198.854 68.2218C198.738 68.2218 198.633 68.2218 198.526 68.2218C196.651 68.2218 194.779 68.2218 192.905 68.2218C192.63 68.2218 192.534 68.1525 192.534 67.8525C192.534 59.5895 192.534 51.3247 192.534 43.058C192.534 42.9469 192.534 42.8385 192.55 42.708H198.846L198.854 68.2218Z" fill="#1560BD"/>
<path d="M104.212 68.1198H97.9248V42.7227H104.212V68.1198Z" fill="#1560BD"/>
<path d="M101.092 32.5641C101.566 32.5579 102.037 32.6485 102.477 32.8305C102.916 33.0124 103.314 33.282 103.647 33.6229C103.98 33.9638 104.241 34.3691 104.415 34.8144C104.589 35.2597 104.672 35.7358 104.658 36.2141C104.658 36.6952 104.563 37.1714 104.378 37.6149C104.193 38.0583 103.922 38.46 103.581 38.7964C103.239 39.1328 102.835 39.3971 102.391 39.5738C101.947 39.7505 101.472 39.8359 100.995 39.8252C100.043 39.8048 99.1376 39.4085 98.473 38.7216C97.8084 38.0348 97.4382 37.1123 97.4419 36.153C97.4448 35.675 97.5418 35.2023 97.7273 34.7624C97.9128 34.3224 98.1832 33.924 98.5226 33.5901C98.8622 33.2563 99.264 32.9937 99.705 32.8175C100.146 32.6414 100.617 32.5553 101.092 32.5641Z" fill="#1560BD"/>
<path d="M195.689 39.8222C194.731 39.8178 193.815 39.4314 193.138 38.7475C192.462 38.0635 192.082 37.1377 192.081 36.1722C192.079 35.6939 192.171 35.2198 192.353 34.778C192.536 34.3361 192.803 33.9352 193.141 33.5989C193.478 33.2626 193.879 32.9976 194.32 32.8193C194.76 32.6411 195.232 32.5534 195.706 32.5611C196.182 32.5525 196.654 32.6405 197.095 32.8198C197.536 32.9992 197.936 33.2663 198.273 33.6052C198.609 33.9441 198.874 34.3477 199.053 34.7921C199.23 35.2365 199.318 35.7125 199.309 36.1917C199.312 36.6706 199.219 37.1452 199.039 37.588C198.857 38.0307 198.591 38.4327 198.254 38.7706C197.917 39.1085 197.517 39.3754 197.077 39.556C196.637 39.7365 196.165 39.827 195.689 39.8222Z" fill="#1560BD"/>
</g>
<defs>
<clipPath id="clip0_298_12101">
<rect width="148.571" height="40" fill="white" transform="translate(76 30)"/>
</clipPath>
</defs>
</svg>
