<svg width="300" height="100" viewBox="0 0 300 100" fill="none" xmlns="http://www.w3.org/2000/svg">
<rect width="300" height="100" fill="white"/>
<g clip-path="url(#clip0_298_12079)">
<path d="M69.9882 59.9984V47.6933H67V44.2178H69.9882V43.1547C69.9882 38.8697 72.8696 36.8984 76.0914 36.8984C77.5726 36.9237 79.0153 37.3746 80.2474 38.1972L78.7856 41.1411C77.9419 40.5894 77.1626 40.2974 76.3511 40.2974C74.9879 40.2974 73.9469 41.2055 73.9469 43.1547V44.2259H78.6627V47.6993H73.9469V60.0044L69.9882 59.9984ZM85.7647 39.4799C85.7647 42.5647 81.0891 42.5647 81.0891 39.4799C81.0891 36.395 85.7647 36.395 85.7647 39.4799ZM81.4475 43.9279V60.0044H85.4083V43.9279H81.4475ZM92.3551 53.4079C92.6109 55.3872 94.3345 56.8169 97.1274 56.8169C98.5892 56.8169 100.504 56.2652 101.414 55.3248L103.945 57.8257C102.256 59.5795 99.4974 60.4232 97.0549 60.4232C91.5356 60.4232 88.2575 57.0142 88.2575 51.8856C88.2575 47.0167 91.5739 43.5091 96.7649 43.5091C102.123 43.5091 105.466 46.8254 104.849 53.4119L92.3551 53.4079ZM101.056 50.1298C100.8 48.0517 99.1732 47.0147 96.8998 47.0147C94.7574 47.0147 93.0035 48.0537 92.4196 50.1298H101.056ZM111.835 37.3032V59.9984H107.906V37.3032H111.835ZM131.932 37.3032V59.9984H128.239L127.984 57.7834C126.749 59.7004 124.762 60.3487 122.821 60.3487C118.113 60.3487 114.565 57.2337 114.565 51.9722C114.565 46.4529 118.039 43.5956 122.716 43.5956C124.405 43.5956 127.033 44.5038 127.976 46.161V37.3012L131.932 37.3032ZM118.532 51.9782C118.532 54.7691 120.545 56.686 123.077 56.686C125.608 56.686 127.718 54.8738 127.718 51.9782C127.732 51.3786 127.628 50.7821 127.412 50.2227C127.195 49.6633 126.871 49.1521 126.457 48.7181C126.043 48.2841 125.547 47.9359 124.999 47.6934C124.45 47.4509 123.859 47.3188 123.26 47.3047H123.077C120.545 47.3047 118.532 49.0907 118.532 51.9782ZM139.693 39.4799C139.693 42.5647 135.017 42.5647 135.017 39.4799C135.017 36.395 139.693 36.395 139.693 39.4799ZM135.386 43.9279V60.0044H139.346V43.9279H135.386ZM154.692 59.9984V51.6118C154.692 49.1773 153.361 47.3248 150.828 47.3248C148.393 47.3248 146.744 49.3666 146.744 51.8051V59.9863H142.816V43.9601H146.358L146.613 46.1368C148.236 44.544 149.859 43.7326 151.873 43.7326C155.638 43.7326 158.659 46.5516 158.659 51.5856V60.0064L154.692 59.9984ZM172.514 48.245C171.379 47.1738 170.08 46.8154 168.553 46.8154C166.671 46.8154 165.632 47.3993 165.632 48.4041C165.632 49.4089 166.574 50.0271 168.62 50.1579C171.64 50.3593 175.466 51.0359 175.466 55.2866C175.466 58.1056 173.169 60.5461 168.576 60.5461C166.045 60.5461 163.511 60.1252 161.176 57.6888L163.123 54.8697C164.258 56.1464 166.856 57.0847 168.642 57.1109C170.134 57.1431 171.532 56.3638 171.532 55.1939C171.532 54.0885 170.623 53.6354 168.35 53.5045C165.33 53.277 161.715 52.1735 161.715 48.537C161.715 44.834 165.541 43.5373 168.469 43.5373C170.97 43.5373 172.853 44.0245 174.711 45.6475L172.514 48.245Z" fill="#1E314C"/>
<path d="M178.001 43.9277H181.962V59.9982H178.001V43.9277Z" fill="#1E314C"/>
<path d="M198.099 42.3699L201.021 44.5849L199.234 46.8582C200.469 48.2536 200.924 49.8464 200.924 51.6002C200.924 53.5796 200.177 56.3724 197.547 57.5745C200.209 58.9055 200.863 60.8204 200.863 62.8663C200.863 67.28 197.487 70.0105 192.843 70.0105C188.2 70.0105 184.727 67.1914 184.727 62.8663H188.657C188.657 64.9443 190.574 66.3095 192.845 66.3095C195.117 66.3095 196.903 65.0772 196.903 62.8663C196.903 60.6553 194.825 59.6445 192.845 59.6445C187.846 59.6445 184.729 56.5818 184.729 51.5901C184.729 46.5984 188.353 43.4754 192.837 43.4754C194.114 43.4754 195.403 43.6385 196.506 44.3835L198.099 42.3699ZM188.657 51.5901C188.657 54.381 190.54 56.0382 192.845 56.0382C195.151 56.0382 197.001 54.3488 197.001 51.5901C197.001 48.8315 195.119 47.0757 192.845 47.0757C190.572 47.0757 188.651 48.7973 188.651 51.5921L188.657 51.5901ZM207.734 37.2715V46.1756C209.164 44.3251 210.915 43.7714 212.734 43.7714C217.278 43.7714 219.292 46.8562 219.292 51.564V60.0049H215.337V51.5781C215.337 48.6563 213.807 47.422 211.701 47.422C209.363 47.422 207.734 49.3973 207.734 51.8136V59.9949H203.771V37.2715H207.734ZM228.226 39.4804V44.0351H232.64V47.4341H228.192V54.3488C228.192 55.8791 229.036 56.6221 230.27 56.6221C230.937 56.603 231.592 56.4366 232.187 56.1348L233.292 59.5116C232.253 59.9451 231.14 60.1761 230.014 60.1922C226.541 60.3231 224.267 58.3417 224.267 54.3528V47.4341H221.277V44.0351H224.265V39.9012L228.226 39.4804Z" fill="#1E314C"/>
<path d="M171.612 40.7184C172.534 40.7184 173.281 39.9711 173.281 39.0491C173.281 38.1272 172.534 37.3799 171.612 37.3799C170.69 37.3799 169.943 38.1272 169.943 39.0491C169.943 39.9711 170.69 40.7184 171.612 40.7184Z" fill="#3EAEF7"/>
<path d="M175.708 36.6247C176.837 36.6247 177.752 35.7097 177.752 34.5809C177.752 33.4521 176.837 32.5371 175.708 32.5371C174.579 32.5371 173.664 33.4521 173.664 34.5809C173.664 35.7097 174.579 36.6247 175.708 36.6247Z" fill="#3EAEF7"/>
<path d="M179.795 42.0876C181.265 42.0876 182.457 40.8958 182.457 39.4256C182.457 37.9555 181.265 36.7637 179.795 36.7637C178.325 36.7637 177.133 37.9555 177.133 39.4256C177.133 40.8958 178.325 42.0876 179.795 42.0876Z" fill="#3EAEF7"/>
<path d="M185.115 36.3227C186.861 36.3227 188.277 34.9073 188.277 33.1613C188.277 31.4154 186.861 30 185.115 30C183.369 30 181.954 31.4154 181.954 33.1613C181.954 34.9073 183.369 36.3227 185.115 36.3227Z" fill="#3EAEF7"/>
<path d="M171.367 38.8213L175.462 34.3527L175.955 34.8044L171.86 39.2729L171.367 38.8213Z" fill="#3EAEF7"/>
<path d="M179.658 38.8223L183.752 34.353L184.245 34.8045L180.151 39.2738L179.658 38.8223Z" fill="#3EAEF7"/>
<path d="M175.539 34.7998L176.032 34.3483L180.126 38.8175L179.633 39.2691L175.539 34.7998Z" fill="#3EAEF7"/>
</g>
<defs>
<clipPath id="clip0_298_12079">
<rect width="166.29" height="40" fill="white" transform="translate(67 30)"/>
</clipPath>
</defs>
</svg>
