<svg width="300" height="100" viewBox="0 0 300 100" fill="none" xmlns="http://www.w3.org/2000/svg">
<rect width="300" height="100" fill="white"/>
<path d="M215.179 46.5788V52.9196C215.179 59.6928 212.476 62.4557 205.849 62.4557H197.189V37.0427H205.849C212.388 37.0427 215.179 39.8945 215.179 46.5788ZM206.004 30.8027H190.176V68.6957H206.004C217.174 68.6957 222.604 62.5063 222.604 49.7751C222.604 37.0085 217.174 30.8027 206.004 30.8027Z" fill="black"/>
<path d="M78.7192 68.6957H85.7328V54.7247H102.642V48.7426H85.7328V37.0427H104.704V30.8027H78.7192V68.6957Z" fill="black"/>
<path d="M104.863 69.281H111.867L122.904 30.8027H115.901L104.863 69.281Z" fill="black"/>
<path d="M128.019 68.6957H154.209V62.4557H135.032V52.0445H151.632V46.165H135.032V37.0427H154.209V30.8027H128.019V68.6957Z" fill="black"/>
<path d="M168.179 30.8027H161.166V68.6957H184.573V62.3524H168.179V30.8027Z" fill="black"/>
</svg>
