<svg width="57" height="40" viewBox="0 0 57 40" fill="none" xmlns="http://www.w3.org/2000/svg">
<path d="M9.88851 20.6251H9.20581V19.1105H9.8912V17.9783C9.8912 16.6397 10.4173 15.8105 12.4446 15.8105H12.54V17.4521H12.3969C11.9984 17.4521 11.8231 17.6275 11.8231 18.1536V19.1105H12.5246V20.6251H11.8177V27.6074H9.88851V20.6251ZM12.8216 16.127H14.783V18.0421H12.8216V16.127ZM12.8377 19.1085H14.7669V27.6074H12.8377V19.1105V19.1085Z" fill="#C323DA"/>
<path d="M15.2769 15.8105H17.206V27.6074H15.2769V15.8105Z" fill="#C323DA"/>
<path d="M17.6521 19.1106H19.5967V20.0352C19.9475 19.5567 20.6651 18.999 21.3183 18.999C21.956 18.999 22.3551 19.2382 22.4821 20.0513C22.8806 19.5252 23.662 18.999 24.252 18.999C25.0328 18.999 25.479 19.3175 25.479 20.7683V27.6074H23.5505V21.4537C23.5505 21.0236 23.4833 20.816 23.2313 20.816C23.0244 20.816 22.7374 21.0075 22.5298 21.2145V27.6074H20.6013V21.4537C20.6013 21.0236 20.5375 20.816 20.2982 20.816C20.059 20.816 19.7721 21.0236 19.5967 21.2145V27.6074H17.6521V19.1106Z" fill="#C323DA"/>
<path d="M26.1646 15.8105H26.8506V20.2259C27.2014 19.7475 27.8068 19.126 28.5399 19.126C29.3214 19.126 29.7037 19.6198 29.7037 21.1344V27.6067H29.0183V21.1989C29.0183 20.2898 28.9706 19.7798 28.3968 19.7798C27.9345 19.7798 27.3129 20.322 26.8513 20.9275V27.6074H26.1646V15.8105Z" fill="#C323DA"/>
<path d="M30.4214 23.4298C30.4214 20.5283 30.9475 19.126 32.3344 19.126C33.7052 19.126 34.2468 20.5283 34.2468 23.4298C34.2468 26.2997 33.7052 27.7182 32.3344 27.7182C30.9637 27.7182 30.4214 26.2997 30.4214 23.4298ZM33.546 23.4137C33.546 21.4691 33.4022 19.7637 32.3365 19.7637C31.3158 19.7637 31.1088 21.3253 31.1088 23.4137C31.1088 25.3745 31.2519 27.0805 32.3365 27.0805C33.3545 27.0792 33.546 25.5337 33.546 23.4137Z" fill="#C323DA"/>
<path d="M34.9644 25.6783V19.2383H35.6497V25.6144C35.6497 26.5236 35.6975 27.0336 36.2713 27.0336C36.7336 27.0336 37.3552 26.4913 37.8168 25.8859V19.2383H38.5029V27.6075H37.8175V26.5995C37.4667 27.08 36.8613 27.6847 36.1282 27.6847C35.3447 27.6847 34.9644 27.1929 34.9644 25.6783Z" fill="#C323DA"/>
<path d="M38.9014 26.0448L39.5061 25.8217C39.8092 26.6502 40.2554 27.1125 40.9569 27.1125C41.6423 27.1125 41.9453 26.6348 41.9453 25.903C41.9453 25.0584 41.3715 24.373 40.7492 23.6237C40.0484 22.7791 39.316 21.9156 39.316 20.8304C39.316 19.8259 39.9698 19.0928 40.9421 19.0928C41.8506 19.0928 42.3129 19.6827 42.6798 20.6712L42.075 20.8943C41.8358 20.2223 41.5489 19.7305 40.9428 19.7305C40.385 19.7305 40.0182 20.1928 40.0182 20.8304C40.0182 21.755 40.672 22.4566 41.2774 23.1742C41.995 24.0477 42.6488 24.8958 42.6488 25.8997C42.6488 26.9842 42.0589 27.7489 40.9589 27.7489C39.9382 27.7516 39.3321 27.1925 38.9014 26.0448Z" fill="#C323DA"/>
<path d="M43.0466 23.4298C43.0466 20.4645 43.5882 19.126 44.9597 19.126C46.522 19.126 46.7451 21.2762 46.7451 23.3499V23.4298H43.732C43.732 25.7736 43.9712 27.0805 44.9751 27.0805C45.7089 27.0805 45.8997 26.5383 46.0751 25.3113L46.6799 25.3745C46.4729 27.1283 45.803 27.7182 44.9422 27.7182C43.5882 27.7182 43.0466 26.3629 43.0466 23.4298ZM46.0435 22.8251C46.0274 21.119 45.8366 19.7643 44.9597 19.7643C44.0667 19.7643 43.8436 20.7366 43.732 22.8251H46.0435Z" fill="#C323DA"/>
<path d="M28.0278 17.0815C28.0278 16.0789 28.7045 15.7188 29.2871 15.7188C29.9389 15.7188 30.2157 16.0789 30.3736 16.4841L29.8596 16.6642C29.7561 16.3679 29.5686 16.2247 29.277 16.2247C28.9316 16.2247 28.64 16.4519 28.64 17.0788C28.64 17.6372 28.8671 17.9429 29.2676 17.9429C29.5438 17.9429 29.7379 17.8589 29.8797 17.4887L30.383 17.6714C30.1955 18.0914 29.8844 18.4415 29.2528 18.4415C28.6454 18.4442 28.0278 18.0397 28.0278 17.0815Z" fill="#C323DA"/>
<path d="M30.7393 14.7832H31.3608V15.3114H30.7393V14.7832ZM30.744 15.7656H31.3561V18.3862H30.744V15.7656Z" fill="#C323DA"/>
<path d="M31.9138 15.7681H32.5266V16.1269C32.6499 15.9975 32.7986 15.8948 32.9634 15.8255C33.1281 15.7561 33.3054 15.7215 33.4842 15.7237C33.9438 15.7237 34.2401 15.9925 34.2401 16.514V18.3954H33.6273V16.6645C33.6273 16.3735 33.5043 16.2398 33.2376 16.2398C32.9708 16.2398 32.7484 16.3782 32.5266 16.5811V18.3954H31.9138V15.7681Z" fill="#C323DA"/>
<path d="M34.5955 17.0815C34.5955 16.0843 35.301 15.7188 35.8446 15.7188C36.4319 15.7188 36.995 16.0695 36.995 17.1359V17.279H35.2022C35.2271 17.7528 35.5187 17.9604 35.9038 17.9604C36.0412 17.9656 36.1782 17.941 36.3052 17.8882C36.4322 17.8355 36.5463 17.7558 36.6395 17.6546L36.9607 17.9705C36.823 18.1252 36.6529 18.2477 36.4627 18.3296C36.2724 18.4114 36.0664 18.4506 35.8594 18.4442C35.2022 18.4442 34.5955 18.0444 34.5955 17.0815ZM36.4373 16.8248C36.4023 16.425 36.2048 16.2126 35.8392 16.2126C35.5436 16.2126 35.2714 16.3806 35.2123 16.8248H36.4373Z" fill="#C323DA"/>
<path d="M37.3801 15.7679H37.9849V16.1267C38.0967 15.9981 38.2347 15.895 38.3896 15.8243C38.5446 15.7536 38.7129 15.717 38.8833 15.7168C39.3227 15.7168 39.4961 15.8895 39.5996 16.1462C39.7141 16.0143 39.8552 15.908 40.0136 15.8344C40.172 15.7607 40.3442 15.7213 40.5188 15.7188C41.0517 15.7188 41.2842 16.04 41.2842 16.509V18.3905H40.6794V16.6643C40.6794 16.3733 40.5954 16.2402 40.3092 16.2402C40.0619 16.2402 39.8643 16.3746 39.6372 16.5809V18.3952H39.0325V16.6643C39.0325 16.3733 38.9491 16.2402 38.6622 16.2402C38.4203 16.2402 38.2181 16.3746 37.9903 16.5809V18.3952H37.3855V15.7746L37.3801 15.7679Z" fill="#C323DA"/>
<path d="M41.6267 17.7584C41.6267 17.1906 42.1105 16.8103 43.3348 16.6719V16.5932C43.3348 16.3312 43.2004 16.2176 42.9054 16.2176C42.5399 16.2176 42.2436 16.3957 42.0218 16.5731L41.7282 16.1941C42.0769 15.8865 42.5272 15.7189 42.9921 15.7237C43.693 15.7237 43.9329 16.0597 43.9329 16.6719V17.753C43.9329 18.0688 43.9523 18.2617 44.0068 18.3947H43.3946C43.3544 18.2873 43.3341 18.1735 43.3348 18.0588C43.066 18.3276 42.7576 18.4337 42.3672 18.4337C41.9425 18.4297 41.6267 18.1925 41.6267 17.7584ZM43.3348 17.6596V17.0817C42.6091 17.1805 42.2241 17.3586 42.2241 17.6448C42.2241 17.8518 42.3672 17.9607 42.5896 17.9607C42.7276 17.9622 42.8644 17.9363 42.9923 17.8847C43.1202 17.833 43.2366 17.7565 43.3348 17.6596Z" fill="#C323DA"/>
<path d="M44.2388 18.0296L44.5694 17.6594C44.7995 17.8566 45.0915 17.9667 45.3945 17.9705C45.7204 17.9705 45.918 17.8865 45.918 17.6694C45.918 17.4524 45.6492 17.3926 45.3347 17.3187C44.8865 17.2152 44.349 17.0963 44.349 16.4888C44.349 16.0299 44.7441 15.7188 45.3213 15.7188C45.8205 15.7188 46.1276 15.8619 46.3964 16.089L46.1055 16.4841C45.9126 16.3262 45.6015 16.1979 45.3663 16.1979C45.0303 16.1979 44.9215 16.3161 44.9215 16.4666C44.9215 16.679 45.1835 16.7428 45.4946 16.812C45.9435 16.9108 46.4918 17.0244 46.4918 17.6365C46.4918 18.1895 45.9932 18.4462 45.3959 18.4462C44.9101 18.4442 44.476 18.2715 44.2388 18.0296Z" fill="#C323DA"/>
</svg>
