<svg width="300" height="100" viewBox="0 0 300 100" fill="none" xmlns="http://www.w3.org/2000/svg">
<rect width="300" height="100" fill="white"/>
<g clip-path="url(#clip0_298_11980)">
<path d="M133.846 44.043V46.6623C133.846 46.6623 131.599 46.6078 131.128 46.626C130.494 46.6441 130.621 47.4809 130.621 47.4809L130.585 50.8642H133.791V53.7201H130.531V64.6523H125.005V53.7201H123.067V50.8642H125.168V46.2622C125.168 46.2622 124.969 44.1703 127.396 44.1157C129.824 44.0612 133.846 44.043 133.846 44.043Z" fill="#0D3A94"/>
<path d="M143.139 51.9551H147.143C147.505 51.9551 147.795 52.0825 147.795 51.7187L147.741 47.535C147.741 47.4804 147.741 47.444 147.723 47.3895C147.632 47.0075 147.378 44.9702 144.498 44.3153C144.444 44.2971 144.407 44.2789 144.353 44.2789C143.755 44.2062 139.842 43.7515 138.103 44.2971C136.98 44.6427 136.31 45.1521 135.766 45.6977C135.277 46.1889 134.824 46.971 134.788 47.6623L134.824 51.6641C134.752 52.1553 135.223 52.8828 135.875 53.3921C136.799 54.1016 138.483 55.0292 140.784 56.1025C140.784 56.1025 142.07 56.5027 142.143 57.3212C142.197 57.9761 142.342 60.1771 142.342 60.9956C142.342 61.2321 142.215 61.4503 142.016 61.5595C141.762 61.7051 141.364 61.7959 140.911 61.5777C140.712 61.4686 140.567 61.2503 140.567 61.0138L140.458 57.0302C140.44 56.6846 140.458 56.3753 140.114 56.3753L135.241 56.3208C134.896 56.3208 134.806 56.1934 134.806 56.539L134.915 61.4868C134.915 61.5595 134.933 61.6141 134.951 61.6868C135.114 62.178 135.947 64.3244 138.284 64.5245C140.766 64.7428 143.61 64.6518 143.991 64.6336C144.027 64.6336 144.045 64.6336 144.081 64.6336C144.444 64.5608 146.926 64.4154 147.777 62.178C147.795 62.1234 147.813 62.0507 147.831 61.996C147.886 61.3594 147.958 57.8851 147.831 56.5572C147.831 56.539 147.831 56.5027 147.831 56.4845C147.777 56.2116 147.505 54.6473 144.86 53.5559C144.86 53.5559 141.581 52.1371 140.675 51.3367C140.531 51.2094 140.349 50.8456 140.349 50.6637L140.367 47.6441C140.512 47.0257 140.929 47.2075 141.491 47.2075C142.052 47.2075 142.378 47.6804 142.378 48.2444L142.433 51.6823C142.415 52.0097 142.795 51.9551 143.139 51.9551Z" fill="#0D3A94"/>
<path d="M156.726 64.0154C156.726 64.0154 154.136 64.9795 152.034 64.5429C150.259 64.1609 149.48 62.9786 149.136 62.4147C149.027 62.2328 148.991 61.4688 148.991 61.2505L148.955 46.5711C148.955 46.0618 149.136 45.5707 149.48 45.2069C150.06 44.5884 151.092 43.7699 152.378 43.879C154.407 44.0427 156.382 44.3519 156.382 44.3519L156.219 47.1714C156.219 47.1714 154.824 46.7713 154.643 47.2987C154.262 48.3902 154.389 60.9231 154.389 60.9231C154.389 60.9231 154.697 62.0145 155.694 61.4506C156.69 60.8867 156.726 61.2869 156.726 61.2869V64.0154Z" fill="#0D3A94"/>
<path d="M162.487 34.4561L156.31 39.1491V64.1786H162.397L162.487 34.4561Z" fill="#0D3A94"/>
<path d="M162.632 64.4342H156.074V39.0226L162.741 33.9658L162.632 64.4342ZM156.563 63.943H162.143L162.234 34.9481L156.563 39.2591V63.943Z" fill="#0887D6"/>
<path d="M171.926 64.6523H177.234V46.5713C177.234 46.5713 177.034 44.5159 173.791 44.1157C173.791 44.1157 172.125 43.8247 170.73 44.4068L169.244 44.9342L169.154 47.5173C169.154 47.5173 171.056 46.8806 171.618 47.208C172.089 47.4809 172.016 48.0993 172.07 49.1908C172.125 50.3186 171.926 64.6523 171.926 64.6523Z" fill="#0D3A94"/>
<path d="M163.864 30.5459L170.023 35.8756V64.4158H163.955L163.864 30.5459Z" fill="#0D3A94"/>
<path d="M170.277 64.652H163.719L163.628 30L170.295 35.7662V64.652H170.277ZM164.208 64.1609H169.788V36.0027L164.118 31.0914L164.208 64.1609Z" fill="#0887D6"/>
<path d="M123.973 69.9399V66.4219H124.676L125.511 68.9128C125.588 69.1448 125.644 69.3184 125.679 69.4335C125.72 69.3056 125.782 69.1176 125.867 68.8696L126.712 66.4219H127.34V69.9399H126.89V66.9954L125.865 69.9399H125.443L124.423 66.945V69.9399H123.973Z" fill="#1A93D9"/>
<path d="M128.104 69.9399V66.4219H130.655V66.837H128.571V67.9145H130.523V68.3272H128.571V69.5247H130.737V69.9399H128.104Z" fill="#1A93D9"/>
<path d="M131.39 69.9399V66.4219H132.954C133.269 66.4219 133.508 66.4539 133.672 66.5179C133.836 66.5803 133.966 66.6914 134.064 66.8514C134.162 67.0114 134.211 67.1882 134.211 67.3818C134.211 67.6313 134.13 67.8418 133.968 68.0129C133.806 68.1841 133.555 68.2929 133.217 68.3393C133.34 68.3985 133.434 68.4568 133.498 68.5144C133.635 68.6392 133.764 68.7952 133.886 68.9824L134.5 69.9399H133.913L133.445 69.208C133.309 68.9968 133.197 68.8352 133.109 68.7232C133.02 68.6113 132.941 68.5329 132.87 68.4881C132.801 68.4433 132.731 68.412 132.658 68.3944C132.605 68.3832 132.519 68.3777 132.398 68.3777H131.857V69.9399H131.39ZM131.857 67.9745H132.861C133.074 67.9745 133.241 67.9529 133.361 67.9097C133.482 67.8649 133.573 67.7945 133.636 67.6985C133.698 67.601 133.73 67.4954 133.73 67.3818C133.73 67.2154 133.669 67.0786 133.547 66.9714C133.426 66.8642 133.235 66.8107 132.974 66.8107H131.857V67.9745Z" fill="#1A93D9"/>
<path d="M137.463 68.7068L137.93 68.8244C137.833 69.2068 137.656 69.4988 137.401 69.7004C137.147 69.9003 136.837 70.0003 136.469 70.0003C136.089 70.0003 135.779 69.9235 135.54 69.7699C135.302 69.6147 135.121 69.3908 134.996 69.098C134.872 68.8052 134.81 68.4908 134.81 68.1549C134.81 67.7885 134.88 67.4694 135.02 67.1974C135.161 66.9238 135.361 66.7167 135.619 66.5759C135.879 66.4335 136.165 66.3623 136.476 66.3623C136.829 66.3623 137.126 66.4519 137.367 66.631C137.608 66.8102 137.776 67.0622 137.87 67.387L137.41 67.495C137.329 67.239 137.21 67.0526 137.054 66.9358C136.898 66.8191 136.703 66.7606 136.467 66.7606C136.196 66.7606 135.968 66.8255 135.785 66.955C135.604 67.0846 135.477 67.259 135.403 67.4782C135.329 67.6957 135.292 67.9206 135.292 68.1525C135.292 68.4517 135.335 68.7132 135.422 68.9372C135.51 69.1596 135.647 69.326 135.831 69.4364C136.016 69.5468 136.216 69.6019 136.431 69.6019C136.692 69.6019 136.914 69.5267 137.095 69.3764C137.276 69.226 137.399 69.0028 137.463 68.7068Z" fill="#1A93D9"/>
<path d="M138.523 69.9399V66.4219H138.99V67.8665H140.824V66.4219H141.291V69.9399H140.824V68.2817H138.99V69.9399H138.523Z" fill="#1A93D9"/>
<path d="M141.683 69.9399L143.039 66.4219H143.542L144.986 69.9399H144.454L144.043 68.8744H142.567L142.179 69.9399H141.683ZM142.702 68.4952H143.898L143.53 67.521C143.418 67.225 143.334 66.9818 143.28 66.7915C143.235 67.017 143.171 67.241 143.089 67.4634L142.702 68.4952Z" fill="#1A93D9"/>
<path d="M145.355 69.9399V66.4219H145.834L147.687 69.184V66.4219H148.135V69.9399H147.656L145.802 67.1754V69.9399H145.355Z" fill="#1A93D9"/>
<path d="M149.82 69.9399V66.837H148.658V66.4219H151.455V66.837H150.287V69.9399H149.82Z" fill="#1A93D9"/>
<path d="M153.198 69.9399V66.4219H154.522C154.791 66.4219 155.007 66.4579 155.169 66.5298C155.333 66.6002 155.461 66.7099 155.552 66.8587C155.645 67.0058 155.692 67.1602 155.692 67.3218C155.692 67.4722 155.651 67.6137 155.569 67.7465C155.487 67.8793 155.364 67.9865 155.198 68.0681C155.412 68.1305 155.575 68.2369 155.689 68.3873C155.805 68.5377 155.863 68.7152 155.863 68.92C155.863 69.0848 155.827 69.2384 155.757 69.3808C155.688 69.5215 155.602 69.6303 155.499 69.7071C155.397 69.7839 155.267 69.8423 155.112 69.8823C154.958 69.9207 154.768 69.9399 154.544 69.9399H153.198ZM153.665 67.9001H154.428C154.635 67.9001 154.783 67.8866 154.873 67.8594C154.992 67.8242 155.081 67.7657 155.141 67.6841C155.202 67.6026 155.232 67.5002 155.232 67.377C155.232 67.2602 155.204 67.1578 155.148 67.0698C155.092 66.9802 155.011 66.9194 154.907 66.8874C154.803 66.8539 154.624 66.837 154.37 66.837H153.665V67.9001ZM153.665 69.5247H154.544C154.694 69.5247 154.8 69.5192 154.861 69.508C154.969 69.4888 155.059 69.4568 155.131 69.412C155.203 69.3672 155.263 69.3024 155.309 69.2176C155.356 69.1312 155.379 69.032 155.379 68.92C155.379 68.7888 155.345 68.6753 155.278 68.5793C155.21 68.4817 155.117 68.4136 154.996 68.3752C154.877 68.3352 154.706 68.3153 154.481 68.3153H153.665V69.5247Z" fill="#1A93D9"/>
<path d="M156.118 69.9399L157.473 66.4219H157.976L159.421 69.9399H158.889L158.477 68.8744H157.001L156.614 69.9399H156.118ZM157.136 68.4952H158.333L157.964 67.521C157.852 67.225 157.769 66.9818 157.714 66.7915C157.669 67.017 157.606 67.241 157.524 67.4634L157.136 68.4952Z" fill="#1A93D9"/>
<path d="M159.789 69.9399V66.4219H160.268L162.122 69.184V66.4219H162.57V69.9399H162.091L160.237 67.1754V69.9399H159.789Z" fill="#1A93D9"/>
<path d="M163.338 69.9399V66.4219H163.805V68.1665L165.557 66.4219H166.19L164.71 67.8473L166.255 69.9399H165.639L164.382 68.1593L163.805 68.7208V69.9399H163.338Z" fill="#1A93D9"/>
<path d="M167.998 69.9399V66.4219H168.465V69.5247H170.203V69.9399H167.998Z" fill="#1A93D9"/>
<path d="M171.294 69.9399V66.837H170.131V66.4219H172.928V66.837H171.761V69.9399H171.294Z" fill="#1A93D9"/>
<path d="M173.41 69.9399V66.4219H174.626C174.9 66.4219 175.11 66.4387 175.254 66.4723C175.456 66.5187 175.629 66.6027 175.772 66.7243C175.958 66.8811 176.097 67.0818 176.188 67.3266C176.281 67.5698 176.328 67.8482 176.328 68.1617C176.328 68.4289 176.296 68.6657 176.234 68.872C176.171 69.0784 176.091 69.2496 175.993 69.3856C175.895 69.5199 175.788 69.6264 175.671 69.7048C175.555 69.7815 175.415 69.8399 175.249 69.8799C175.086 69.9199 174.897 69.9399 174.683 69.9399H173.41ZM173.877 69.5247H174.631C174.863 69.5247 175.045 69.5032 175.177 69.46C175.31 69.4168 175.416 69.356 175.495 69.2776C175.606 69.1672 175.691 69.0192 175.752 68.8336C175.815 68.6465 175.846 68.42 175.846 68.1545C175.846 67.7865 175.785 67.5042 175.663 67.3074C175.543 67.109 175.396 66.9762 175.223 66.909C175.098 66.861 174.896 66.837 174.618 66.837H173.877V69.5247Z" fill="#1A93D9"/>
</g>
<defs>
<clipPath id="clip0_298_11980">
<rect width="54.2476" height="40" fill="white" transform="translate(122.992 30)"/>
</clipPath>
</defs>
</svg>
