<svg width="300" height="100" viewBox="0 0 300 100" fill="none" xmlns="http://www.w3.org/2000/svg">
<rect width="300" height="100" fill="white"/>
<path d="M130.668 37.4531C128.63 37.4531 126.968 38.0489 125.745 39.2718C124.522 40.4947 123.926 42.0938 123.926 44.1319V45.7938H120.979V49.7446H123.926V62.0047H128.473V49.7446H132.236V45.7938H128.473V44.0065C128.473 42.47 129.602 41.4353 131.201 41.4353C131.546 41.4353 131.891 41.4667 132.267 41.498V37.5472C131.797 37.4845 131.264 37.4531 130.668 37.4531Z" fill="black"/>
<path d="M138.281 37.6406H133.703V62.004H138.281V37.6406Z" fill="black"/>
<path d="M143.83 37.735C141.541 37.6095 140.13 40.8705 141.886 42.4383C142.92 43.4731 144.739 43.4731 145.774 42.4383C146.307 41.9052 146.589 41.2468 146.589 40.4943C146.589 38.9578 145.366 37.735 143.83 37.735ZM146.119 45.7934H141.541V62.0043H146.119V45.7934Z" fill="black"/>
<path d="M156.307 45.4795C154.018 45.4795 152.137 46.2634 150.663 47.7998C149.221 49.3363 148.5 51.3744 148.5 53.9142C148.5 56.454 149.221 58.4921 150.663 60.0285C152.137 61.5649 154.018 62.3489 156.307 62.3489C158.346 62.3489 159.851 61.7845 160.885 60.6243V69.9997H165.432V45.7931H161.136V47.4863C160.133 46.138 158.534 45.4795 156.307 45.4795ZM157.06 49.3989C159.349 49.3989 160.885 50.9981 160.885 53.5379V54.2905C160.885 56.8303 159.349 58.4294 157.06 58.4294C154.708 58.4294 153.141 56.7676 153.141 53.9142C153.141 51.0609 154.708 49.3989 157.06 49.3989Z" fill="black"/>
<path d="M177.822 45.4795C175.627 45.4795 174.028 46.138 173.025 47.4863V45.7931H168.698V69.9997H173.276V60.6243C174.31 61.7845 175.847 62.3489 177.822 62.3489C180.142 62.3489 182.024 61.5649 183.466 60.0285C184.94 58.4921 185.661 56.454 185.661 53.9142C185.661 51.3744 184.94 49.3363 183.466 47.7998C182.024 46.2634 180.142 45.4795 177.822 45.4795ZM177.101 49.3989C179.453 49.3989 181.021 51.0609 181.021 53.9142C181.021 56.7676 179.453 58.4294 177.101 58.4294C174.812 58.4294 173.276 56.8303 173.276 54.2905V53.5379C173.276 50.9981 174.812 49.3989 177.101 49.3989Z" fill="black"/>
<path d="M194.351 45.4795C192.376 45.4795 190.746 46.0753 189.46 47.2668C188.206 48.4269 187.578 49.7753 187.578 51.2803L192.157 51.4685C192.157 50.3083 192.941 49.3363 194.414 49.3363C195.826 49.3363 196.515 50.1829 196.515 51.8447V52.4718L193.63 52.6286C189.303 52.8168 187.14 54.4473 187.14 57.5514C187.14 60.6557 189.178 62.3489 192.533 62.3489C194.226 62.3489 195.606 61.7845 196.672 60.687V62.004H201.093V52.0015C201.093 47.7371 198.742 45.4795 194.351 45.4795ZM196.515 56.1718C196.515 57.8337 195.323 58.8057 193.599 58.8057C192.345 58.8057 191.718 58.304 191.718 57.332C191.718 56.2659 192.502 55.7015 194.07 55.6388L196.515 55.482V56.1718Z" fill="black"/>
<path d="M219.46 45.793H214.38L210.68 55.4505L206.949 45.793H201.901L208.234 60.5614L204.095 69.9995H209.081L219.46 45.793Z" fill="black"/>
<path fill-rule="evenodd" clip-rule="evenodd" d="M81 33.1732C81 30.995 82.6582 29.6167 84.704 30.0947L106.957 35.2936C109.002 35.7715 110.661 37.3266 110.661 38.7708V60.7223C110.661 62.1648 109.002 63.7216 106.957 64.1996L84.704 69.3984C82.6584 69.8764 81 68.5006 81 66.3199V33.1732ZM87.3029 41.2262C87.3029 39.4675 88.7475 38.2495 90.5259 38.5052L100.198 39.8958C101.978 40.1517 103.421 41.4927 103.421 42.8918C103.421 44.2906 101.977 45.3336 100.198 45.2217L90.5259 44.6134C88.7459 44.5014 87.3029 42.9853 87.3029 41.2262ZM87.1314 49.7466C87.1314 47.9262 88.6267 46.5108 90.4675 46.5853L100.479 46.9901C102.322 47.0646 103.816 48.2984 103.816 49.7466C103.816 51.1944 102.32 52.4286 100.479 52.503L90.4675 52.9078C88.625 52.9824 87.1314 51.5674 87.1314 49.7466ZM91.0105 61.6325C93.0582 61.3197 94.7181 59.5756 94.7181 57.7369C94.7181 55.8982 93.0582 54.512 91.0105 54.6408C88.9628 54.7696 87.3029 56.5137 87.3029 58.5364C87.3029 60.5591 88.9628 61.9453 91.0105 61.6325Z" fill="url(#paint0_linear_298_11968)"/>
<defs>
<linearGradient id="paint0_linear_298_11968" x1="54.8025" y1="8.13776" x2="53.8547" y2="118.815" gradientUnits="userSpaceOnUse">
<stop stop-color="#1400FF"/>
<stop offset="1" stop-color="#FC199B"/>
</linearGradient>
</defs>
</svg>
