<svg width="300" height="100" viewBox="0 0 300 100" fill="none" xmlns="http://www.w3.org/2000/svg">
<rect width="300" height="100" fill="white"/>
<path d="M107.385 59.9681V47.201H112.969V44.3779H107.323C107.135 42.1193 108.421 41.4606 110.899 41.4606H112.969V38.9512H111.432C107.009 38.9512 104.405 40.9587 104.029 44.3779H101.645V47.201H103.998V59.9681H107.385ZM118.239 59.9681V38.9512H114.851V59.9681H118.239Z" fill="black"/>
<path d="M127.863 60.2818C131.878 60.2818 133.948 57.7722 134.45 55.1373H134.638V59.9681H137.744V44.3779H134.387V52.0946C134.387 55.4824 132.788 57.239 129.337 57.239C126.043 57.239 124.694 55.7647 124.694 52.8474V44.3779H121.338V53.7571C121.338 57.3645 123.471 60.2818 127.863 60.2818Z" fill="black"/>
<path d="M144.21 42.5585V38.9512H140.821V42.5585H144.21ZM144.21 59.9681V44.3779H140.821V59.9681H144.21Z" fill="black"/>
<path d="M154.216 60.2817C157.73 60.2817 160.02 58.5879 160.678 55.4824H160.898V59.9681H164.004V38.9512H160.615V48.6127H160.428C159.8 45.9777 157.698 44.0642 153.996 44.0642C149.26 44.0642 146.563 47.3265 146.563 52.1887C146.563 56.9881 149.292 60.2817 154.216 60.2817ZM149.981 52.1887C149.981 48.4244 151.926 47.1384 155.188 47.1384C158.67 47.1384 160.615 48.7695 160.615 52.0945V52.3455C160.615 55.6079 158.577 57.1762 155.252 57.1762C151.895 57.1762 149.981 55.9216 149.981 52.1887Z" fill="black"/>
<path d="M175.009 60.282C179.683 60.282 183.102 57.647 183.102 53.7573V53.4123H179.746V53.6318C179.746 56.0472 177.989 57.2392 174.947 57.2392C171.433 57.2392 169.865 55.5453 169.865 52.1889C169.865 48.7697 171.433 47.1072 174.947 47.1072C177.989 47.1072 179.746 48.2992 179.746 50.7146V50.9028H183.102V50.5891C183.102 46.6994 179.683 44.0645 175.009 44.0645C169.865 44.0645 166.509 47.3268 166.509 52.1889C166.509 56.9883 169.865 60.282 175.009 60.282Z" fill="black"/>
<path d="M193.575 60.282C198.782 60.282 202.264 56.9883 202.264 52.1889C202.264 47.3268 198.782 44.0645 193.575 44.0645C188.399 44.0645 184.917 47.3268 184.917 52.1889C184.917 56.9883 188.399 60.282 193.575 60.282ZM193.575 57.2706C189.811 57.2706 188.243 55.4826 188.243 52.1889C188.243 48.8638 189.811 47.0445 193.575 47.0445C197.371 47.0445 198.939 48.8638 198.939 52.1889C198.939 55.4826 197.371 57.2706 193.575 57.2706Z" fill="black"/>
<path d="M208.11 42.5585V38.9512H204.723V42.5585H208.11ZM208.11 59.9681V44.3779H204.723V59.9681H208.11Z" fill="black"/>
<path d="M214.636 59.9683V52.2517C214.636 48.8638 216.172 47.1072 219.592 47.1072C222.823 47.1072 224.14 48.5815 224.14 51.4988V59.9683H227.528V50.5891C227.528 46.9817 225.395 44.0645 221.066 44.0645C217.114 44.0645 215.044 46.5739 214.572 49.2089H214.353V44.3781H211.248V59.9683H214.636Z" fill="black"/>
<path d="M237.918 60.282C242.31 60.282 245.196 58.5567 245.196 55.6394C245.196 53.0672 243.502 51.8125 239.801 51.342L236.193 50.84C233.84 50.5263 233.213 50.0872 233.213 48.8638C233.213 47.3895 234.217 46.7621 237.071 46.7621C240.522 46.7621 241.463 47.7346 241.463 49.5853V49.7735H244.819V49.6794C244.819 45.9779 241.933 44.0645 237.165 44.0645C232.366 44.0645 229.888 46.0093 229.888 48.7383C229.888 51.342 231.676 52.5967 234.625 52.9731L238.891 53.5377C241.118 53.8514 241.871 54.2592 241.871 55.5453C241.871 56.9255 240.961 57.5529 237.918 57.5529C234.656 57.5529 233.433 56.8941 233.433 54.8552V54.6043H230.044V54.6984C230.044 58.3058 232.9 60.282 237.918 60.282Z" fill="black"/>
<path d="M50.0148 49.8337C50.0148 42.338 50.0148 38.5901 51.7075 35.8398C52.6433 34.3193 53.923 33.0397 55.4434 32.1039C58.1937 30.4111 61.9753 30.4111 69.5385 30.4111C77.1017 30.4111 80.8833 30.4111 83.6336 32.1039C85.1542 33.0397 86.4337 34.3193 87.3695 35.8398C89.0623 38.5901 89.0624 42.338 89.0624 49.8337C89.0624 57.3295 89.0623 61.0774 87.3695 63.8277C86.4337 65.3482 85.1542 66.6278 83.6336 67.5636C80.8833 69.2564 77.1017 69.2564 69.5385 69.2564C61.9753 69.2564 58.1937 69.2564 55.4434 67.5636C53.923 66.6278 52.6433 65.3482 51.7075 63.8277C50.0148 61.0774 50.0148 57.3295 50.0148 49.8337Z" fill="#131228"/>
<path fill-rule="evenodd" clip-rule="evenodd" d="M64.5663 44.9658V54.5779C64.5663 57.2213 62.4036 59.384 59.7603 59.384V49.772C59.7603 47.1287 61.9229 44.9658 64.5663 44.9658Z" fill="white"/>
<path fill-rule="evenodd" clip-rule="evenodd" d="M69.3725 40.1592H78.9846C78.9846 42.8025 76.822 44.9652 74.1785 44.9652H64.5664C64.5664 42.3218 66.7291 40.1592 69.3725 40.1592Z" fill="white"/>
<path d="M71.7754 54.5973C73.1137 54.5973 74.1986 53.5124 74.1986 52.1741C74.1986 50.8359 73.1137 49.751 71.7754 49.751C70.4372 49.751 69.3523 50.8359 69.3523 52.1741C69.3523 53.5124 70.4372 54.5973 71.7754 54.5973Z" fill="url(#paint0_linear_298_11953)"/>
<defs>
<linearGradient id="paint0_linear_298_11953" x1="71.7663" y1="56.1867" x2="59.5263" y2="47.5629" gradientUnits="userSpaceOnUse">
<stop stop-color="#A8FF78"/>
<stop offset="1" stop-color="#1FFFBB"/>
</linearGradient>
</defs>
</svg>
