<svg width="300" height="100" viewBox="0 0 300 100" fill="none" xmlns="http://www.w3.org/2000/svg">
<rect width="300" height="100" fill="white"/>
<path d="M123.01 43.6123H120.339V57.3552H123.01V43.6123Z" fill="#2A3362"/>
<path d="M133.347 52.4782C133.347 54.3749 132.127 55.2271 130.502 55.2271C128.877 55.2271 127.791 54.3749 127.791 52.5744V47.6768H125.12V53.1945C125.12 55.9417 126.843 57.5483 129.708 57.5483C131.508 57.5483 132.515 56.8851 133.189 56.1357H133.345L133.577 57.3559H136.034V47.6768H133.347V52.4782Z" fill="#2A3362"/>
<path d="M159.548 55.44C157.593 55.44 156.49 54.5496 156.316 53.2531H164.794C164.833 52.9835 164.852 52.7115 164.852 52.439C164.833 48.9573 162.199 47.4834 159.38 47.4834C156.109 47.4834 153.65 49.4398 153.65 52.5949C153.65 55.5942 156.013 57.5489 159.554 57.5489C162.517 57.5489 164.49 56.2341 164.898 54.2197H162.259C161.929 55.0139 160.98 55.44 159.548 55.44ZM159.382 49.594C161.086 49.594 162.073 50.3484 162.229 51.4177H156.374C156.625 50.3931 157.613 49.594 159.374 49.594H159.382Z" fill="#2A3362"/>
<path d="M169.39 49.0662H169.224L168.972 47.6719H166.544V57.356H169.215V53.1945C169.215 51.3161 170.298 50.2716 172.312 50.2716C172.678 50.2665 173.044 50.2987 173.403 50.3677V47.6768H173.03C171.25 47.6768 170.144 48.0449 169.39 49.0662Z" fill="#2A3362"/>
<path d="M186.518 54.3351H186.364L184.079 48.2769H181.33L179.085 54.3169H178.911L176.782 47.6768H174.13L177.401 57.3559H180.306L182.628 51.18H182.783L185.067 57.3559H187.99L191.261 47.6768H188.609L186.518 54.3351Z" fill="#2A3362"/>
<path d="M201.892 54.5383V51.2987C201.892 48.6658 199.665 47.4854 196.897 47.4854C193.955 47.4854 192.117 48.8797 191.865 50.9671H194.536C194.73 50.0569 195.504 49.5545 196.897 49.5545C198.289 49.5545 199.218 50.0767 199.218 51.1412V51.3882L194.862 51.7198C192.85 51.8756 191.381 52.766 191.381 54.6627C191.381 56.6174 193.065 57.5459 195.542 57.5459C197.542 57.5459 198.76 56.9888 199.506 56.1482H199.639C200.058 57.0932 200.909 57.3535 201.834 57.3535H202.957V55.3822H202.704C202.142 55.3822 201.892 55.112 201.892 54.5383ZM199.219 53.512C199.219 55.0423 197.396 55.5447 195.832 55.5447C194.768 55.5447 194.071 55.2745 194.071 54.5383C194.071 53.8751 194.672 53.5518 195.564 53.4739L199.221 53.2037L199.219 53.512Z" fill="#2A3362"/>
<path d="M211.767 47.6768L208.65 54.685H208.476L205.321 47.6768H202.436L206.946 57.3559H210.141L214.63 47.6768H211.767Z" fill="#2A3362"/>
<path d="M223.169 54.2197C222.837 55.0139 221.89 55.44 220.458 55.44C218.503 55.44 217.401 54.5496 217.227 53.2531H225.704C225.743 52.9835 225.762 52.7115 225.762 52.439C225.744 48.9573 223.109 47.4834 220.291 47.4834C217.019 47.4834 214.562 49.4398 214.562 52.5949C214.562 55.5942 216.923 57.5489 220.465 57.5489C223.427 57.5489 225.4 56.2341 225.808 54.2197H223.169ZM220.284 49.594C221.988 49.594 222.975 50.3484 223.131 51.4177H217.278C217.532 50.3931 218.516 49.594 220.277 49.594H220.284Z" fill="#2A3362"/>
<path d="M115.998 46.9643C115.998 46.1121 116.598 45.7457 117.373 45.7457C117.733 45.749 118.091 45.8009 118.437 45.8999L118.883 43.9634C118.237 43.7348 117.556 43.6171 116.87 43.6152C114.896 43.6152 113.309 44.6614 113.309 46.8284V47.6772H111.004V49.7978H113.309V57.3564H115.998V49.7961H119.009V47.6772H115.998V46.9643Z" fill="#2A3362"/>
<path d="M141.929 44.9482H139.442L139.302 47.6772H137.2V49.7978H139.253V54.5694C139.253 56.1942 140.082 57.5537 142.569 57.5537C143.213 57.5537 143.856 57.4826 144.485 57.3415V55.3039C144.123 55.3852 143.753 55.4307 143.381 55.4398C142.046 55.4398 141.93 54.6855 141.93 54.1035V49.7928H144.583V47.6772H141.929V44.9482Z" fill="#2A3362"/>
<path d="M150.316 44.9482H147.838L147.698 47.6772H145.591V49.7978H147.644V54.5694C147.644 56.1942 148.473 57.5537 150.96 57.5537C151.603 57.5517 152.244 57.4789 152.871 57.3365V55.3039C152.508 55.3852 152.139 55.4307 151.767 55.4398C150.432 55.4398 150.316 54.6855 150.316 54.1035V49.7928H152.977V47.6772H150.316V44.9482Z" fill="#2A3362"/>
<path d="M73.8245 43.2453C73.8245 41.6918 74.2787 40.3654 75.2321 39.4121L76.89 41.0701C75.0447 42.9088 76.6563 48.6254 81.9103 53.8845C87.1644 59.1435 92.8844 60.7534 94.7281 58.9114L96.386 60.5694C93.2757 63.6797 86.1912 61.473 80.2607 55.5408C76.1473 51.4257 73.8245 46.7569 73.8245 43.2453Z" fill="#009A46"/>
<path d="M84.2797 61.9991C82.7262 61.9991 81.3998 61.5449 80.4448 60.5915L82.1028 58.9336C83.9448 60.7756 89.6614 59.164 94.9205 53.9066C100.18 48.6492 101.788 42.9326 99.9458 41.0906L101.604 39.4326C104.716 42.543 102.507 49.6274 96.5751 55.558C92.4601 59.678 87.7913 61.9991 84.2797 61.9991Z" fill="#FF5805"/>
<path d="M97.1238 53.1848C96.1174 50.2867 94.0616 47.1897 91.3342 44.464C85.4037 38.5318 78.3192 36.3234 75.2089 39.4354C74.9884 39.6575 75.179 40.2063 75.6366 40.6639C76.0942 41.1215 76.643 41.3105 76.8635 41.09C78.7072 39.248 84.4238 40.8596 89.6812 46.1186C92.1682 48.6056 94.0218 51.3826 94.9154 53.9525C95.698 56.2057 95.6217 58.0228 94.7098 58.9347C94.4877 59.1552 94.68 59.7056 95.1359 60.1616C95.5919 60.6175 96.1423 60.8098 96.3645 60.5876C97.9578 58.9943 98.228 56.3615 97.1238 53.1848Z" fill="#F5AFCB"/>
<path d="M101.6 39.4357C100.004 37.839 97.3743 37.5688 94.1943 38.6747C91.2978 39.6794 88.1991 41.7369 85.4734 44.4626C79.5429 50.3931 77.3345 57.4776 80.4448 60.5896C80.667 60.8101 81.2158 60.6194 81.6734 60.1635C82.131 59.7076 82.3216 59.1571 82.0995 58.935C80.2525 57.093 81.869 51.3763 87.1281 46.1173C89.615 43.6303 92.3921 41.7767 94.9619 40.8831C97.2151 40.1022 99.0322 40.1768 99.9458 41.0887C100.166 41.3092 100.717 41.1185 101.173 40.6609C101.629 40.2033 101.821 39.6562 101.6 39.4357Z" fill="#FF9B00"/>
</svg>
