<svg width="300" height="100" viewBox="0 0 300 100" fill="none" xmlns="http://www.w3.org/2000/svg">
<rect width="300" height="100" fill="white"/>
<g clip-path="url(#clip0_298_11913)">
<path d="M11 64.415V35.585H32.72V41.3H18.065V47.75H29.18V53.405H18.065V64.415H11Z" fill="black"/>
<path d="M43.6848 64.9998C37.0548 64.9998 32.5698 60.5748 32.5698 54.2748C32.5698 47.9748 37.0698 43.5498 43.6848 43.5498C50.2998 43.5498 54.8598 48.0498 54.8598 54.2748C54.8598 60.4998 50.2998 64.9998 43.6848 64.9998ZM43.6848 60.0048C46.6848 60.0048 48.0198 57.6798 48.0198 54.2748C48.0198 50.8698 46.5498 48.4998 43.6848 48.4998C40.8198 48.4998 39.3348 50.8248 39.3348 54.2298C39.3348 57.6348 40.7298 60.0048 43.6848 60.0048Z" fill="black"/>
<path d="M71.7199 44H78.4999V64.415H71.7199V61.235C71.1183 62.4373 70.1756 63.4357 69.0098 64.1053C67.844 64.7749 66.5066 65.0861 65.1649 65C59.5699 65 57.8149 61.235 57.8149 56.885V44H64.5049V55.235C64.5049 58.13 65.4649 59.735 67.9699 59.735C70.4749 59.735 71.7199 57.71 71.7199 54.455V44Z" fill="black"/>
<path d="M97.7 50.5104C96.6188 49.9307 95.4003 49.6559 94.175 49.7154C91.37 49.7154 89.54 51.3054 89.54 54.7854V64.4154H82.835V44.0004H89.54V47.7504C89.9344 46.532 90.6976 45.4661 91.7241 44.7003C92.7506 43.9344 93.9896 43.5064 95.27 43.4754C96.2897 43.4304 97.2977 43.7086 98.15 44.2704L97.7 50.5104Z" fill="black"/>
<path d="M102.2 48.6953H99.3198V44.6453L100.82 44.4203C102.89 44.0603 103.475 42.9203 103.985 41.0903L104.645 38.4053H108.77V44.0003H114.29V48.6953H108.74V57.1703C108.74 58.9103 109.55 59.6453 111.17 59.6453C112.32 59.5808 113.449 59.3063 114.5 58.8353V63.1853C112.771 64.4686 110.65 65.1104 108.5 65.0003C105.11 65.0003 102.095 63.5003 102.095 59.0003V48.6953H102.2Z" fill="black"/>
<path d="M124.28 64.415H117.575V35.585H124.28V47.24C124.942 46.0568 125.923 45.0834 127.111 44.4309C128.299 43.7785 129.647 43.4732 131 43.55C136.595 43.55 138.5 47.315 138.5 51.74V64.49H131.78V53.255C131.78 50.36 130.82 48.755 128.315 48.755C125.81 48.755 124.28 50.855 124.28 54.05V64.415Z" fill="black"/>
<path d="M156.5 35.0001C165.335 35.0001 170.12 40.5051 170.63 47.7501L163.865 48.0501C163.415 44.3451 161.285 41.1651 156.365 41.1651C151.445 41.1651 148.865 44.5701 148.865 50.0001C148.865 55.4301 151.73 58.8351 156.365 58.8351C161 58.8351 163.43 55.6551 163.865 51.9501L170.63 52.2501C170 59.4951 165.275 65.0001 156.5 65.0001C154.519 65.0659 152.545 64.7219 150.703 63.9895C148.86 63.2572 147.189 62.1524 145.794 60.7443C144.398 59.3361 143.309 57.655 142.593 55.8062C141.877 53.9574 141.551 51.9808 141.635 50.0001C141.551 48.0194 141.877 46.0428 142.593 44.194C143.309 42.3452 144.398 40.6641 145.794 39.256C147.189 37.8478 148.86 36.743 150.703 36.0107C152.545 35.2784 154.519 34.9343 156.5 35.0001Z" fill="black"/>
<path d="M192.5 58.9095C192.5 60.0045 192.95 60.4095 193.835 60.4095C194.416 60.4275 194.992 60.3039 195.515 60.0495V63.5895C194.252 64.4882 192.729 64.9468 191.18 64.8945C190.08 64.9747 188.987 64.6611 188.097 64.0099C187.207 63.3587 186.577 62.4122 186.32 61.3395C185.15 63.6645 182.57 64.8945 179.405 64.8945C175.28 64.8945 172.625 62.8695 172.625 59.3145C172.625 55.3995 175.625 53.7345 180.125 52.8645L185.87 51.8595V51.4995C185.921 51.0933 185.879 50.6808 185.746 50.2935C185.614 49.9062 185.394 49.5543 185.105 49.2648C184.815 48.9753 184.463 48.7559 184.076 48.6232C183.689 48.4906 183.276 48.4483 182.87 48.4995C182.051 48.4579 181.249 48.737 180.633 49.2775C180.016 49.818 179.635 50.5775 179.57 51.3945L173.3 50.9595C173.975 46.6095 177.29 43.5645 183.245 43.5645C188.6 43.5495 192.5 45.9345 192.5 51.4995V58.9095ZM185.885 55.3545L182.495 56.0145C180.44 56.4495 179.105 56.9595 179.105 58.5495C179.105 59.7045 180.065 60.4995 181.46 60.4995C182.075 60.5229 182.689 60.4154 183.259 60.1841C183.83 59.9527 184.345 59.6029 184.77 59.1577C185.196 58.7124 185.522 58.182 185.727 57.6013C185.932 57.0207 186.011 56.4032 185.96 55.7895L185.885 55.3545Z" fill="black"/>
<path d="M204.575 64.4148H197.87V43.9998H204.575V47.2398C205.241 46.0506 206.23 45.0735 207.426 44.4208C208.623 43.768 209.98 43.4662 211.34 43.5498C216.935 43.5498 218.84 47.3148 218.84 51.7398V64.4898H212.135V53.2548C212.135 50.3598 211.19 48.7548 208.685 48.7548C205.955 48.7548 204.635 50.8548 204.635 54.0498L204.575 64.4148Z" fill="black"/>
<path d="M228.35 64.415L220.475 44H227.54L232.4 57.26H232.61L237.5 44H244.055L236.255 64.355L228.35 64.415Z" fill="black"/>
<path d="M264.41 58.9104C264.41 60.0054 264.86 60.4104 265.73 60.4104C266.316 60.4302 266.898 60.3066 267.425 60.0504V63.5904C266.162 64.4892 264.639 64.9477 263.09 64.8954C261.99 64.9756 260.897 64.662 260.007 64.0108C259.117 63.3596 258.487 62.4131 258.23 61.3404C257.06 63.6654 254.48 64.8954 251.315 64.8954C247.19 64.8954 244.535 62.8704 244.535 59.3154C244.535 55.4004 247.535 53.7354 252.035 52.8654L257.78 51.8604V51.5004C257.831 51.0942 257.789 50.6817 257.656 50.2944C257.524 49.9071 257.304 49.5552 257.015 49.2657C256.725 48.9762 256.374 48.7568 255.986 48.6241C255.599 48.4915 255.186 48.4492 254.78 48.5004C253.962 48.4588 253.159 48.7379 252.543 49.2784C251.927 49.819 251.545 50.5784 251.48 51.3954L245.21 50.9604C245.885 46.6104 249.2 43.5654 255.155 43.5654C260.525 43.5654 264.425 45.9504 264.425 51.4704L264.41 58.9104ZM257.795 55.3554L254.405 56.0154C252.35 56.4504 251.015 56.9604 251.015 58.5504C251.015 59.7054 251.975 60.5004 253.37 60.5004C253.979 60.513 254.584 60.3975 255.146 60.1614C255.708 59.9253 256.213 59.5739 256.63 59.1299C257.048 58.6858 257.367 58.1591 257.568 57.5839C257.768 57.0086 257.846 56.3976 257.795 55.7904V55.3554Z" fill="black"/>
<path d="M274.205 57.6047C274.49 59.5697 276.05 60.6047 278.54 60.6047C280.385 60.6047 281.54 59.9597 281.54 58.8647C281.54 57.7697 280.865 57.3647 279.17 57.0497L276.02 56.5547C271.235 55.8197 268.73 54.2297 268.73 50.1647C268.73 46.0997 272.18 43.4297 277.73 43.4297C283.625 43.4297 287.075 45.9647 287.525 50.3897L282.005 50.5997C281.705 48.7997 280.235 47.7797 277.655 47.7797C276.05 47.8247 275 48.4997 275 49.6397C275 50.4347 275.66 50.9447 276.695 51.1397L280.67 51.7997C285.17 52.4447 287.795 54.4847 287.795 58.3247C287.795 62.5997 284.12 64.9847 278.45 64.9847C272.78 64.9847 268.67 62.7347 268.22 57.8147L274.205 57.6047Z" fill="black"/>
</g>
<defs>
<clipPath id="clip0_298_11913">
<rect width="277.5" height="30" fill="white" transform="translate(11 35)"/>
</clipPath>
</defs>
</svg>
