<svg width="1258" height="1258" viewBox="0 0 1258 1258" fill="none" xmlns="http://www.w3.org/2000/svg">
<g clip-path="url(#clip0_322_7)">
<path d="M421.778 351.777H378.222C376.572 351.777 374.989 352.433 373.822 353.6C372.656 354.767 372 356.349 372 358V372H428V358C428 356.349 427.344 354.767 426.178 353.6C425.011 352.433 423.428 351.777 421.778 351.777Z" fill="#DC1F26"/>
<path d="M428 386C428 387.65 427.344 389.233 426.178 390.4C425.011 391.567 423.428 392.222 421.778 392.222H378.222C376.572 392.222 374.989 391.567 373.822 390.4C372.656 389.233 372 387.65 372 386V372H428V386Z" fill="#EEEEEE"/>
<g clip-path="url(#clip1_322_7)">
<path fill-rule="evenodd" clip-rule="evenodd" d="M360 342H440V402H360V342Z" fill="white"/>
<path fill-rule="evenodd" clip-rule="evenodd" d="M413.325 342H440V402H413.325V342ZM360 342H386.663V402H360V342Z" fill="#008753"/>
</g>
</g>
<path d="M463.456 388V356.32H469.456L485.728 382.432H485.968L485.824 356.32H490.144V388H484.48L467.872 361.456H467.584L467.776 388H463.456ZM494.857 388V363.184H499.225V388H494.857ZM497.065 359.392C496.073 359.392 495.321 359.184 494.809 358.768C494.329 358.352 494.089 357.744 494.089 356.944C494.089 356.144 494.345 355.552 494.857 355.168C495.369 354.752 496.089 354.544 497.017 354.544C498.009 354.544 498.745 354.752 499.225 355.168C499.737 355.552 499.993 356.144 499.993 356.944C499.993 357.744 499.737 358.352 499.225 358.768C498.745 359.184 498.025 359.392 497.065 359.392ZM513.081 395.92C510.361 395.92 508.185 395.712 506.553 395.296C504.921 394.88 503.737 394.272 503.001 393.472C502.265 392.704 501.897 391.76 501.897 390.64C501.897 389.232 502.457 388.064 503.577 387.136C504.729 386.208 506.473 385.552 508.809 385.168V384.496C507.017 384.496 505.689 384.288 504.825 383.872C503.961 383.456 503.529 382.816 503.529 381.952C503.529 381.12 503.961 380.4 504.825 379.792C505.689 379.184 507.113 378.656 509.097 378.208V377.488C507.113 377.36 505.593 376.704 504.537 375.52C503.513 374.336 503.001 372.864 503.001 371.104C503.001 369.504 503.433 368.112 504.297 366.928C505.193 365.712 506.457 364.784 508.089 364.144C509.721 363.472 511.641 363.136 513.849 363.136H525.849V366.88L517.929 365.728V366.448C519.913 366.832 521.385 367.504 522.345 368.464C523.305 369.424 523.785 370.624 523.785 372.064C523.785 373.408 523.385 374.608 522.585 375.664C521.785 376.72 520.617 377.536 519.081 378.112C517.577 378.688 515.721 378.976 513.513 378.976C513.001 378.976 512.505 378.96 512.025 378.928C511.545 378.864 510.953 378.768 510.249 378.64C509.193 379.152 508.409 379.632 507.897 380.08C507.417 380.496 507.177 380.864 507.177 381.184C507.177 381.504 507.369 381.76 507.753 381.952C508.169 382.112 508.681 382.224 509.289 382.288C509.929 382.32 510.537 382.336 511.113 382.336H517.545C518.121 382.336 518.889 382.4 519.849 382.528C520.841 382.624 521.833 382.864 522.825 383.248C523.817 383.632 524.649 384.256 525.321 385.12C525.993 385.952 526.329 387.12 526.329 388.624C526.329 390.32 525.817 391.696 524.793 392.752C523.801 393.84 522.329 394.64 520.377 395.152C518.425 395.664 515.993 395.92 513.081 395.92ZM512.985 392.224C515.257 392.224 517.065 392.08 518.409 391.792C519.785 391.536 520.777 391.12 521.385 390.544C521.993 390 522.297 389.328 522.297 388.528C522.297 387.728 522.089 387.12 521.673 386.704C521.289 386.256 520.777 385.952 520.137 385.792C519.529 385.6 518.889 385.488 518.217 385.456C517.577 385.424 517.001 385.408 516.489 385.408H510.633C508.873 385.888 507.657 386.448 506.985 387.088C506.313 387.728 505.977 388.448 505.977 389.248C505.977 390.112 506.281 390.752 506.889 391.168C507.497 391.584 508.329 391.856 509.385 391.984C510.473 392.144 511.673 392.224 512.985 392.224ZM513.609 376.096C515.529 376.096 517.001 375.68 518.025 374.848C519.049 373.984 519.561 372.832 519.561 371.392C519.561 369.888 519.033 368.672 517.977 367.744C516.921 366.784 515.417 366.304 513.465 366.304C511.545 366.304 510.041 366.768 508.953 367.696C507.897 368.624 507.369 369.808 507.369 371.248C507.369 372.208 507.609 373.056 508.089 373.792C508.601 374.496 509.321 375.056 510.249 375.472C511.209 375.888 512.329 376.096 513.609 376.096ZM538.943 388.624C536.991 388.624 535.263 388.32 533.759 387.712C532.287 387.104 531.039 386.256 530.015 385.168C529.023 384.048 528.271 382.72 527.759 381.184C527.247 379.616 526.991 377.872 526.991 375.952C526.991 374.064 527.231 372.304 527.711 370.672C528.223 369.04 528.959 367.616 529.919 366.4C530.911 365.184 532.127 364.24 533.567 363.568C535.007 362.896 536.671 362.56 538.559 362.56C540.255 362.56 541.759 362.848 543.071 363.424C544.415 364 545.551 364.848 546.479 365.968C547.407 367.088 548.095 368.48 548.543 370.144C548.991 371.808 549.151 373.728 549.023 375.904L529.727 376.096V373.12L546.143 372.928L544.895 374.848C545.023 372.992 544.831 371.44 544.319 370.192C543.839 368.912 543.103 367.952 542.111 367.312C541.151 366.64 539.967 366.304 538.559 366.304C537.023 366.304 535.711 366.688 534.623 367.456C533.535 368.224 532.703 369.328 532.127 370.768C531.551 372.208 531.263 373.904 531.263 375.856C531.263 378.832 531.919 381.104 533.231 382.672C534.575 384.24 536.511 385.024 539.039 385.024C540.159 385.024 541.103 384.88 541.871 384.592C542.671 384.272 543.327 383.856 543.839 383.344C544.351 382.832 544.735 382.256 544.991 381.616C545.279 380.976 545.471 380.336 545.567 379.696L549.503 380.32C549.343 381.568 548.991 382.704 548.447 383.728C547.903 384.752 547.183 385.632 546.287 386.368C545.423 387.072 544.367 387.616 543.119 388C541.903 388.416 540.511 388.624 538.943 388.624ZM552.425 388V375.28L552.377 363.184H556.361L555.834 373.024H556.506C556.762 370.784 557.194 368.896 557.801 367.36C558.41 365.792 559.21 364.608 560.202 363.808C561.226 363.008 562.442 362.608 563.85 362.608C564.234 362.608 564.65 362.656 565.098 362.752C565.546 362.816 566.042 362.944 566.586 363.136L566.298 367.744C565.818 367.52 565.321 367.376 564.809 367.312C564.33 367.216 563.882 367.168 563.465 367.168C562.186 367.168 561.082 367.6 560.154 368.464C559.258 369.328 558.522 370.544 557.946 372.112C557.401 373.68 557.017 375.504 556.793 377.584V388H552.425ZM568.552 388V363.184H572.92V388H568.552ZM570.76 359.392C569.768 359.392 569.016 359.184 568.504 358.768C568.024 358.352 567.784 357.744 567.784 356.944C567.784 356.144 568.04 355.552 568.552 355.168C569.064 354.752 569.784 354.544 570.712 354.544C571.704 354.544 572.44 354.752 572.92 355.168C573.432 355.552 573.688 356.144 573.688 356.944C573.688 357.744 573.432 358.352 572.92 358.768C572.44 359.184 571.72 359.392 570.76 359.392ZM583.224 388.624C581.912 388.624 580.696 388.384 579.576 387.904C578.488 387.392 577.624 386.624 576.984 385.6C576.344 384.576 576.024 383.264 576.024 381.664C576.024 380.384 576.264 379.296 576.744 378.4C577.224 377.472 577.928 376.704 578.856 376.096C579.784 375.488 580.936 374.992 582.312 374.608C583.688 374.192 585.272 373.872 587.064 373.648C588.504 373.424 589.624 373.232 590.424 373.072C591.224 372.88 591.784 372.624 592.104 372.304C592.424 371.952 592.584 371.456 592.584 370.816C592.584 369.472 592.12 368.384 591.192 367.552C590.296 366.688 589 366.256 587.304 366.256C586.376 366.256 585.432 366.432 584.472 366.784C583.544 367.104 582.744 367.664 582.072 368.464C581.4 369.232 580.984 370.288 580.824 371.632L576.792 370.624C576.984 369.248 577.384 368.064 577.992 367.072C578.6 366.048 579.368 365.2 580.296 364.528C581.256 363.856 582.344 363.36 583.56 363.04C584.776 362.72 586.056 362.56 587.4 362.56C589.416 362.56 591.128 362.912 592.536 363.616C593.944 364.32 595.016 365.408 595.752 366.88C596.52 368.32 596.904 370.16 596.904 372.4V377.584C596.936 378.672 596.968 379.808 597 380.992C597.032 382.176 597.064 383.376 597.096 384.592C597.16 385.776 597.224 386.912 597.288 388H593.208C593.208 386.784 593.208 385.6 593.208 384.448C593.208 383.264 593.208 382.048 593.208 380.8H592.68C592.296 382.24 591.688 383.552 590.856 384.736C590.024 385.92 588.968 386.864 587.688 387.568C586.44 388.272 584.952 388.624 583.224 388.624ZM584.52 385.072C585.32 385.072 586.12 384.928 586.92 384.64C587.752 384.32 588.536 383.84 589.272 383.2C590.04 382.56 590.712 381.776 591.288 380.848C591.864 379.92 592.312 378.816 592.632 377.536V374.32L593.928 374.272C593.48 374.784 592.84 375.168 592.008 375.424C591.176 375.68 590.248 375.888 589.224 376.048C588.2 376.208 587.16 376.384 586.104 376.576C585.08 376.736 584.136 376.992 583.272 377.344C582.408 377.664 581.704 378.128 581.16 378.736C580.648 379.344 580.392 380.192 580.392 381.28C580.392 382.464 580.76 383.392 581.496 384.064C582.232 384.736 583.24 385.072 584.52 385.072Z" fill="black"/>
<path d="M377.6 491V438.2H389.04V491H377.6ZM379.92 491V481.24H411.2V491H379.92ZM424.307 492.12C422.014 492.12 419.96 491.667 418.147 490.76C416.334 489.853 414.894 488.52 413.827 486.76C412.76 485 412.227 482.813 412.227 480.2C412.227 477.907 412.68 475.987 413.587 474.44C414.494 472.84 415.8 471.56 417.507 470.6C419.214 469.64 421.294 468.84 423.747 468.2C426.2 467.56 428.974 467.027 432.067 466.6C433.88 466.28 435.347 465.987 436.467 465.72C437.587 465.453 438.414 465.053 438.947 464.52C439.48 463.987 439.747 463.213 439.747 462.2C439.747 460.653 439.187 459.373 438.067 458.36C437 457.293 435.32 456.76 433.027 456.76C431.587 456.76 430.2 457.027 428.867 457.56C427.534 458.04 426.414 458.84 425.507 459.96C424.6 461.027 423.96 462.413 423.587 464.12L413.427 461.32C413.96 458.973 414.814 456.973 415.987 455.32C417.16 453.667 418.6 452.28 420.307 451.16C422.067 450.04 424.04 449.213 426.227 448.68C428.467 448.147 430.84 447.88 433.347 447.88C437.4 447.88 440.734 448.547 443.347 449.88C445.96 451.213 447.907 453.267 449.187 456.04C450.467 458.76 451.107 462.28 451.107 466.6V473.8C451.107 475.667 451.134 477.56 451.187 479.48C451.24 481.4 451.32 483.347 451.427 485.32C451.587 487.24 451.747 489.133 451.907 491H441.747C441.534 489.56 441.347 487.96 441.187 486.2C441.027 484.44 440.92 482.627 440.867 480.76H439.507C438.867 482.84 437.827 484.76 436.387 486.52C435 488.227 433.294 489.587 431.267 490.6C429.24 491.613 426.92 492.12 424.307 492.12ZM429.187 483.72C430.2 483.72 431.24 483.56 432.307 483.24C433.374 482.867 434.387 482.333 435.347 481.64C436.36 480.893 437.267 479.987 438.067 478.92C438.867 477.853 439.507 476.627 439.987 475.24L439.827 469.08L441.667 469.4C440.814 470.093 439.747 470.653 438.467 471.08C437.24 471.453 435.934 471.747 434.547 471.96C433.214 472.173 431.88 472.413 430.547 472.68C429.214 472.947 427.987 473.293 426.867 473.72C425.8 474.147 424.947 474.733 424.307 475.48C423.72 476.227 423.427 477.24 423.427 478.52C423.427 480.12 423.96 481.4 425.027 482.36C426.094 483.267 427.48 483.72 429.187 483.72ZM457.515 491V470.44V449H467.115V463.72H468.555C468.928 460.04 469.622 457.053 470.635 454.76C471.702 452.467 473.142 450.787 474.955 449.72C476.768 448.6 479.008 448.04 481.675 448.04C482.208 448.04 482.768 448.067 483.355 448.12C483.995 448.173 484.715 448.307 485.515 448.52L485.035 460.76C484.128 460.387 483.195 460.12 482.235 459.96C481.275 459.8 480.422 459.72 479.675 459.72C477.648 459.72 475.888 460.2 474.395 461.16C472.902 462.12 471.702 463.533 470.795 465.4C469.942 467.213 469.355 469.427 469.035 472.04V491H457.515ZM504.861 505.4C500.221 505.4 496.435 505.027 493.501 504.28C490.568 503.587 488.408 502.547 487.021 501.16C485.688 499.773 485.021 498.067 485.021 496.04C485.021 493.587 485.981 491.613 487.901 490.12C489.875 488.573 492.755 487.613 496.541 487.24V485.8C493.608 485.8 491.368 485.48 489.821 484.84C488.328 484.2 487.581 483.107 487.581 481.56C487.581 480.067 488.328 478.733 489.821 477.56C491.315 476.387 493.821 475.48 497.341 474.84V473.32C494.088 473.053 491.528 471.96 489.661 470.04C487.848 468.12 486.941 465.64 486.941 462.6C486.941 459.933 487.661 457.56 489.101 455.48C490.595 453.347 492.808 451.667 495.741 450.44C498.675 449.213 502.248 448.6 506.461 448.6H527.741V457.4L514.381 455.56V457.24C517.901 457.773 520.408 458.68 521.901 459.96C523.448 461.187 524.221 462.867 524.221 465C524.221 467.187 523.528 469.107 522.141 470.76C520.755 472.413 518.728 473.72 516.061 474.68C513.448 475.587 510.275 476.04 506.541 476.04C505.848 476.04 505.075 476.013 504.221 475.96C503.421 475.853 502.141 475.693 500.381 475.48C499.315 476.227 498.488 476.893 497.901 477.48C497.368 478.013 497.101 478.52 497.101 479C497.101 479.373 497.288 479.667 497.661 479.88C498.035 480.093 498.541 480.253 499.181 480.36C499.875 480.467 500.568 480.52 501.261 480.52H513.341C514.408 480.52 515.768 480.6 517.421 480.76C519.128 480.92 520.835 481.347 522.541 482.04C524.248 482.733 525.688 483.853 526.861 485.4C528.035 486.893 528.621 489.027 528.621 491.8C528.621 494.893 527.741 497.427 525.981 499.4C524.275 501.427 521.661 502.92 518.141 503.88C514.621 504.893 510.195 505.4 504.861 505.4ZM505.981 496.04C509.235 496.04 511.768 495.853 513.581 495.48C515.448 495.16 516.755 494.627 517.501 493.88C518.248 493.187 518.621 492.28 518.621 491.16C518.621 490.147 518.381 489.347 517.901 488.76C517.475 488.12 516.888 487.693 516.141 487.48C515.448 487.267 514.728 487.133 513.981 487.08C513.288 486.973 512.675 486.92 512.141 486.92H501.981C499.795 487.187 498.221 487.8 497.261 488.76C496.301 489.72 495.821 490.813 495.821 492.04C495.821 493.107 496.195 493.933 496.941 494.52C497.688 495.107 498.808 495.507 500.301 495.72C501.795 495.933 503.688 496.04 505.981 496.04ZM505.981 469.96C508.488 469.96 510.355 469.347 511.581 468.12C512.861 466.84 513.501 465.213 513.501 463.24C513.501 461.107 512.861 459.373 511.581 458.04C510.301 456.653 508.435 455.96 505.981 455.96C503.528 455.96 501.635 456.627 500.301 457.96C498.968 459.293 498.301 461.027 498.301 463.16C498.301 464.493 498.595 465.667 499.181 466.68C499.768 467.693 500.621 468.493 501.741 469.08C502.915 469.667 504.328 469.96 505.981 469.96ZM551.104 492.12C547.584 492.12 544.49 491.64 541.824 490.68C539.157 489.667 536.89 488.253 535.024 486.44C533.157 484.573 531.744 482.333 530.784 479.72C529.824 477.053 529.344 474.067 529.344 470.76C529.344 467.453 529.797 464.413 530.704 461.64C531.664 458.867 533.024 456.44 534.784 454.36C536.597 452.28 538.81 450.68 541.424 449.56C544.037 448.44 546.997 447.88 550.304 447.88C553.557 447.88 556.41 448.413 558.864 449.48C561.37 450.547 563.45 452.12 565.104 454.2C566.757 456.28 567.957 458.813 568.704 461.8C569.504 464.787 569.77 468.227 569.504 472.12L536.784 472.36V466.04L562.624 465.8L558.864 469.08C559.184 466.253 558.997 463.96 558.304 462.2C557.61 460.387 556.544 459.053 555.104 458.2C553.717 457.293 552.144 456.84 550.384 456.84C548.357 456.84 546.597 457.4 545.104 458.52C543.61 459.587 542.437 461.133 541.584 463.16C540.784 465.187 540.384 467.64 540.384 470.52C540.384 475 541.344 478.307 543.264 480.44C545.237 482.573 547.85 483.64 551.104 483.64C552.597 483.64 553.85 483.453 554.864 483.08C555.93 482.653 556.784 482.12 557.424 481.48C558.117 480.84 558.65 480.12 559.024 479.32C559.397 478.467 559.69 477.613 559.904 476.76L569.984 478.76C569.61 480.733 568.97 482.547 568.064 484.2C567.157 485.8 565.93 487.187 564.384 488.36C562.837 489.533 560.97 490.44 558.784 491.08C556.65 491.773 554.09 492.12 551.104 492.12ZM591.67 492.12C588.843 492.12 586.283 491.853 583.99 491.32C581.697 490.787 579.723 490.013 578.07 489C576.417 487.933 575.083 486.653 574.07 485.16C573.057 483.667 572.417 481.96 572.15 480.04L581.11 476.84C581.323 478.067 581.883 479.213 582.79 480.28C583.75 481.347 585.03 482.173 586.63 482.76C588.23 483.347 590.15 483.64 592.39 483.64C594.79 483.64 596.657 483.293 597.99 482.6C599.323 481.853 599.99 480.813 599.99 479.48C599.99 478.467 599.617 477.667 598.87 477.08C598.123 476.493 597.057 475.987 595.67 475.56C594.283 475.133 592.55 474.733 590.47 474.36C588.39 473.88 586.337 473.373 584.31 472.84C582.283 472.253 580.39 471.48 578.63 470.52C576.923 469.56 575.537 468.307 574.47 466.76C573.457 465.213 572.95 463.24 572.95 460.84C572.95 458.227 573.643 455.96 575.03 454.04C576.417 452.12 578.443 450.627 581.11 449.56C583.777 448.44 587.003 447.88 590.79 447.88C594.257 447.88 597.297 448.36 599.91 449.32C602.523 450.28 604.657 451.667 606.31 453.48C608.017 455.24 609.11 457.4 609.59 459.96L600.15 462.84C599.99 461.453 599.483 460.28 598.63 459.32C597.83 458.36 596.763 457.64 595.43 457.16C594.097 456.627 592.55 456.36 590.79 456.36C588.55 456.36 586.79 456.733 585.51 457.48C584.283 458.227 583.67 459.213 583.67 460.44C583.67 461.453 584.07 462.28 584.87 462.92C585.67 463.56 586.817 464.093 588.31 464.52C589.803 464.893 591.563 465.293 593.59 465.72C595.67 466.147 597.697 466.653 599.67 467.24C601.697 467.773 603.537 468.493 605.19 469.4C606.843 470.307 608.15 471.533 609.11 473.08C610.123 474.573 610.63 476.493 610.63 478.84C610.63 481.613 609.883 483.987 608.39 485.96C606.897 487.933 604.737 489.453 601.91 490.52C599.137 491.587 595.723 492.12 591.67 492.12ZM630.473 491.96C625.726 491.96 622.233 490.733 619.993 488.28C617.806 485.773 616.713 481.827 616.713 476.44V458.04H610.793L610.953 449.24H614.713C616.526 449.187 617.86 448.867 618.713 448.28C619.566 447.64 620.1 446.547 620.313 445L621.193 439.64H627.753V449H638.313V458.36H627.753V475.88C627.753 477.8 628.206 479.213 629.113 480.12C630.073 480.973 631.46 481.4 633.273 481.4C634.233 481.4 635.166 481.293 636.073 481.08C637.033 480.867 637.886 480.52 638.633 480.04V490.68C636.98 491.213 635.46 491.56 634.073 491.72C632.74 491.88 631.54 491.96 630.473 491.96ZM658.484 491V438.2H669.924V491H658.484ZM660.804 491V481.24H692.084V491H660.804ZM694.803 491V449H706.323V491H694.803ZM700.563 443C698.323 443 696.589 442.547 695.363 441.64C694.189 440.68 693.603 439.293 693.603 437.48C693.603 435.613 694.189 434.227 695.363 433.32C696.589 432.36 698.323 431.88 700.563 431.88C702.856 431.88 704.589 432.36 705.763 433.32C706.989 434.227 707.603 435.613 707.603 437.48C707.603 439.293 706.989 440.68 705.763 441.64C704.589 442.547 702.856 443 700.563 443ZM738.445 492.12C735.778 492.12 733.458 491.613 731.485 490.6C729.565 489.533 727.992 488.013 726.765 486.04C725.538 484.013 724.685 481.56 724.205 478.68H722.845L722.765 491H713.165V470.92V434.04H724.685V447.56C724.685 448.84 724.605 450.227 724.445 451.72C724.285 453.213 724.045 454.76 723.725 456.36C723.458 457.96 723.165 459.587 722.845 461.24H724.525C725.165 458.467 726.072 456.093 727.245 454.12C728.472 452.147 730.018 450.627 731.885 449.56C733.752 448.493 735.992 447.96 738.605 447.96C742.072 447.96 745.058 448.867 747.565 450.68C750.125 452.493 752.098 455.053 753.485 458.36C754.872 461.613 755.565 465.533 755.565 470.12C755.565 474.653 754.872 478.573 753.485 481.88C752.098 485.133 750.125 487.667 747.565 489.48C745.005 491.24 741.965 492.12 738.445 492.12ZM734.445 482.68C736.312 482.68 737.912 482.173 739.245 481.16C740.632 480.093 741.698 478.6 742.445 476.68C743.192 474.76 743.565 472.547 743.565 470.04C743.565 467.48 743.192 465.267 742.445 463.4C741.752 461.48 740.738 459.987 739.405 458.92C738.125 457.853 736.525 457.32 734.605 457.32C733.325 457.32 732.152 457.56 731.085 458.04C730.072 458.52 729.165 459.187 728.365 460.04C727.565 460.84 726.872 461.747 726.285 462.76C725.752 463.773 725.352 464.867 725.085 466.04C724.818 467.16 724.685 468.253 724.685 469.32V470.68C724.685 472.013 724.872 473.4 725.245 474.84C725.618 476.227 726.205 477.533 727.005 478.76C727.858 479.933 728.872 480.893 730.045 481.64C731.272 482.333 732.738 482.68 734.445 482.68ZM760.356 491V470.44V449H769.956V463.72H771.396C771.769 460.04 772.462 457.053 773.476 454.76C774.542 452.467 775.982 450.787 777.796 449.72C779.609 448.6 781.849 448.04 784.516 448.04C785.049 448.04 785.609 448.067 786.196 448.12C786.836 448.173 787.556 448.307 788.356 448.52L787.876 460.76C786.969 460.387 786.036 460.12 785.076 459.96C784.116 459.8 783.262 459.72 782.516 459.72C780.489 459.72 778.729 460.2 777.236 461.16C775.742 462.12 774.542 463.533 773.636 465.4C772.782 467.213 772.196 469.427 771.876 472.04V491H760.356ZM800.513 492.12C798.22 492.12 796.166 491.667 794.353 490.76C792.54 489.853 791.1 488.52 790.033 486.76C788.966 485 788.433 482.813 788.433 480.2C788.433 477.907 788.886 475.987 789.793 474.44C790.7 472.84 792.006 471.56 793.713 470.6C795.42 469.64 797.5 468.84 799.953 468.2C802.406 467.56 805.18 467.027 808.273 466.6C810.086 466.28 811.553 465.987 812.673 465.72C813.793 465.453 814.62 465.053 815.153 464.52C815.686 463.987 815.953 463.213 815.953 462.2C815.953 460.653 815.393 459.373 814.273 458.36C813.206 457.293 811.526 456.76 809.233 456.76C807.793 456.76 806.406 457.027 805.073 457.56C803.74 458.04 802.62 458.84 801.713 459.96C800.806 461.027 800.166 462.413 799.793 464.12L789.633 461.32C790.166 458.973 791.02 456.973 792.193 455.32C793.366 453.667 794.806 452.28 796.513 451.16C798.273 450.04 800.246 449.213 802.433 448.68C804.673 448.147 807.046 447.88 809.553 447.88C813.606 447.88 816.94 448.547 819.553 449.88C822.166 451.213 824.113 453.267 825.393 456.04C826.673 458.76 827.313 462.28 827.313 466.6V473.8C827.313 475.667 827.34 477.56 827.393 479.48C827.446 481.4 827.526 483.347 827.633 485.32C827.793 487.24 827.953 489.133 828.113 491H817.953C817.74 489.56 817.553 487.96 817.393 486.2C817.233 484.44 817.126 482.627 817.073 480.76H815.713C815.073 482.84 814.033 484.76 812.593 486.52C811.206 488.227 809.5 489.587 807.473 490.6C805.446 491.613 803.126 492.12 800.513 492.12ZM805.393 483.72C806.406 483.72 807.446 483.56 808.513 483.24C809.58 482.867 810.593 482.333 811.553 481.64C812.566 480.893 813.473 479.987 814.273 478.92C815.073 477.853 815.713 476.627 816.193 475.24L816.033 469.08L817.873 469.4C817.02 470.093 815.953 470.653 814.673 471.08C813.446 471.453 812.14 471.747 810.753 471.96C809.42 472.173 808.086 472.413 806.753 472.68C805.42 472.947 804.193 473.293 803.073 473.72C802.006 474.147 801.153 474.733 800.513 475.48C799.926 476.227 799.633 477.24 799.633 478.52C799.633 480.12 800.166 481.4 801.233 482.36C802.3 483.267 803.686 483.72 805.393 483.72ZM833.721 491V470.44V449H843.321V463.72H844.761C845.135 460.04 845.828 457.053 846.841 454.76C847.908 452.467 849.348 450.787 851.161 449.72C852.975 448.6 855.215 448.04 857.881 448.04C858.415 448.04 858.975 448.067 859.561 448.12C860.201 448.173 860.921 448.307 861.721 448.52L861.241 460.76C860.335 460.387 859.401 460.12 858.441 459.96C857.481 459.8 856.628 459.72 855.881 459.72C853.855 459.72 852.095 460.2 850.601 461.16C849.108 462.12 847.908 463.533 847.001 465.4C846.148 467.213 845.561 469.427 845.241 472.04V491H833.721ZM880.578 505.24C878.498 505.24 876.365 505.053 874.178 504.68C871.991 504.307 869.938 503.72 868.018 502.92C866.098 502.12 864.445 501.107 863.058 499.88L866.258 489.8C867.965 491.56 870.071 492.867 872.578 493.72C875.138 494.627 877.645 495.08 880.098 495.08C882.925 495.08 885.271 494.493 887.138 493.32C889.058 492.2 890.498 490.467 891.458 488.12C892.418 485.773 892.978 482.84 893.138 479.32L893.538 471.96H891.938C891.458 475.533 890.605 478.467 889.378 480.76C888.205 483 886.685 484.653 884.818 485.72C882.951 486.733 880.791 487.24 878.338 487.24C875.245 487.24 872.658 486.467 870.578 484.92C868.551 483.373 867.005 481.08 865.938 478.04C864.925 474.947 864.418 471.107 864.418 466.52V449H875.938V463.72C875.938 468.68 876.498 472.253 877.618 474.44C878.738 476.627 880.445 477.72 882.738 477.72C883.965 477.72 885.085 477.4 886.098 476.76C887.111 476.067 887.965 475.08 888.658 473.8C889.351 472.52 889.885 470.947 890.258 469.08C890.685 467.213 890.898 465.107 890.898 462.76V449H902.418V479.8C902.418 483.053 902.125 486.04 901.538 488.76C900.951 491.427 900.071 493.773 898.898 495.8C897.778 497.88 896.338 499.613 894.578 501C892.871 502.44 890.845 503.507 888.498 504.2C886.205 504.893 883.565 505.24 880.578 505.24ZM947.403 492.12C943.616 492.12 940.203 491.533 937.163 490.36C934.123 489.133 931.51 487.373 929.323 485.08C927.19 482.733 925.563 479.88 924.443 476.52C923.323 473.107 922.763 469.213 922.763 464.84C922.763 458.6 923.83 453.453 925.963 449.4C928.15 445.293 931.136 442.227 934.923 440.2C938.71 438.12 943.003 437.08 947.803 437.08C951.536 437.08 954.896 437.693 957.883 438.92C960.923 440.093 963.51 441.853 965.643 444.2C967.83 446.493 969.51 449.373 970.683 452.84C971.856 456.253 972.443 460.173 972.443 464.6C972.443 469.133 971.856 473.107 970.683 476.52C969.51 479.933 967.83 482.813 965.643 485.16C963.456 487.453 960.816 489.187 957.723 490.36C954.63 491.533 951.19 492.12 947.403 492.12ZM947.723 482.92C950.55 482.92 952.896 482.227 954.763 480.84C956.683 479.453 958.15 477.453 959.163 474.84C960.176 472.227 960.683 469.027 960.683 465.24C960.683 461.24 960.15 457.853 959.083 455.08C958.07 452.307 956.576 450.2 954.603 448.76C952.683 447.32 950.31 446.6 947.483 446.6C944.763 446.6 942.416 447.293 940.443 448.68C938.523 450.067 937.056 452.12 936.043 454.84C935.03 457.507 934.523 460.787 934.523 464.68C934.523 467.613 934.816 470.227 935.403 472.52C935.99 474.76 936.843 476.653 937.963 478.2C939.083 479.747 940.47 480.92 942.123 481.72C943.776 482.52 945.643 482.92 947.723 482.92ZM981.311 491V464.12H974.671V455.72L986.111 456.28V454.84C984.084 454.413 982.431 453.72 981.151 452.76C979.924 451.8 979.044 450.653 978.511 449.32C977.977 447.987 977.711 446.573 977.711 445.08C977.711 442.733 978.297 440.733 979.471 439.08C980.644 437.373 982.297 436.067 984.431 435.16C986.564 434.2 989.071 433.72 991.951 433.72C994.404 433.72 996.617 434.04 998.591 434.68C1000.56 435.267 1002.19 436.04 1003.47 437L1002.67 447.4C1001.39 446.493 999.951 445.747 998.351 445.16C996.804 444.573 995.311 444.28 993.871 444.28C992.271 444.28 990.937 444.707 989.871 445.56C988.857 446.413 988.351 447.773 988.351 449.64C988.351 450.973 988.617 452.04 989.151 452.84C989.737 453.587 990.457 454.147 991.311 454.52C992.164 454.84 993.044 455.053 993.951 455.16H1003.23V464.12H992.511V491H981.311ZM377.6 587V534.2H392.64L416.16 571.64H416.96L416.32 534.2H427.52V587H413.84L388.96 547.96H388.16L388.8 587H377.6ZM434.934 587V545H446.454V587H434.934ZM440.694 539C438.454 539 436.72 538.547 435.494 537.64C434.32 536.68 433.734 535.293 433.734 533.48C433.734 531.613 434.32 530.227 435.494 529.32C436.72 528.36 438.454 527.88 440.694 527.88C442.987 527.88 444.72 528.36 445.894 529.32C447.12 530.227 447.734 531.613 447.734 533.48C447.734 535.293 447.12 536.68 445.894 537.64C444.72 538.547 442.987 539 440.694 539ZM469.936 601.4C465.296 601.4 461.51 601.027 458.576 600.28C455.643 599.587 453.483 598.547 452.096 597.16C450.763 595.773 450.096 594.067 450.096 592.04C450.096 589.587 451.056 587.613 452.976 586.12C454.95 584.573 457.83 583.613 461.616 583.24V581.8C458.683 581.8 456.443 581.48 454.896 580.84C453.403 580.2 452.656 579.107 452.656 577.56C452.656 576.067 453.403 574.733 454.896 573.56C456.39 572.387 458.896 571.48 462.416 570.84V569.32C459.163 569.053 456.603 567.96 454.736 566.04C452.923 564.12 452.016 561.64 452.016 558.6C452.016 555.933 452.736 553.56 454.176 551.48C455.67 549.347 457.883 547.667 460.816 546.44C463.75 545.213 467.323 544.6 471.536 544.6H492.816V553.4L479.456 551.56V553.24C482.976 553.773 485.483 554.68 486.976 555.96C488.523 557.187 489.296 558.867 489.296 561C489.296 563.187 488.603 565.107 487.216 566.76C485.83 568.413 483.803 569.72 481.136 570.68C478.523 571.587 475.35 572.04 471.616 572.04C470.923 572.04 470.15 572.013 469.296 571.96C468.496 571.853 467.216 571.693 465.456 571.48C464.39 572.227 463.563 572.893 462.976 573.48C462.443 574.013 462.176 574.52 462.176 575C462.176 575.373 462.363 575.667 462.736 575.88C463.11 576.093 463.616 576.253 464.256 576.36C464.95 576.467 465.643 576.52 466.336 576.52H478.416C479.483 576.52 480.843 576.6 482.496 576.76C484.203 576.92 485.91 577.347 487.616 578.04C489.323 578.733 490.763 579.853 491.936 581.4C493.11 582.893 493.696 585.027 493.696 587.8C493.696 590.893 492.816 593.427 491.056 595.4C489.35 597.427 486.736 598.92 483.216 599.88C479.696 600.893 475.27 601.4 469.936 601.4ZM471.056 592.04C474.31 592.04 476.843 591.853 478.656 591.48C480.523 591.16 481.83 590.627 482.576 589.88C483.323 589.187 483.696 588.28 483.696 587.16C483.696 586.147 483.456 585.347 482.976 584.76C482.55 584.12 481.963 583.693 481.216 583.48C480.523 583.267 479.803 583.133 479.056 583.08C478.363 582.973 477.75 582.92 477.216 582.92H467.056C464.87 583.187 463.296 583.8 462.336 584.76C461.376 585.72 460.896 586.813 460.896 588.04C460.896 589.107 461.27 589.933 462.016 590.52C462.763 591.107 463.883 591.507 465.376 591.72C466.87 591.933 468.763 592.04 471.056 592.04ZM471.056 565.96C473.563 565.96 475.43 565.347 476.656 564.12C477.936 562.84 478.576 561.213 478.576 559.24C478.576 557.107 477.936 555.373 476.656 554.04C475.376 552.653 473.51 551.96 471.056 551.96C468.603 551.96 466.71 552.627 465.376 553.96C464.043 555.293 463.376 557.027 463.376 559.16C463.376 560.493 463.67 561.667 464.256 562.68C464.843 563.693 465.696 564.493 466.816 565.08C467.99 565.667 469.403 565.96 471.056 565.96ZM516.179 588.12C512.659 588.12 509.565 587.64 506.899 586.68C504.232 585.667 501.965 584.253 500.099 582.44C498.232 580.573 496.819 578.333 495.859 575.72C494.899 573.053 494.419 570.067 494.419 566.76C494.419 563.453 494.872 560.413 495.779 557.64C496.739 554.867 498.099 552.44 499.859 550.36C501.672 548.28 503.885 546.68 506.499 545.56C509.112 544.44 512.072 543.88 515.379 543.88C518.632 543.88 521.485 544.413 523.939 545.48C526.445 546.547 528.525 548.12 530.179 550.2C531.832 552.28 533.032 554.813 533.779 557.8C534.579 560.787 534.845 564.227 534.579 568.12L501.859 568.36V562.04L527.699 561.8L523.939 565.08C524.259 562.253 524.072 559.96 523.379 558.2C522.685 556.387 521.619 555.053 520.179 554.2C518.792 553.293 517.219 552.84 515.459 552.84C513.432 552.84 511.672 553.4 510.179 554.52C508.685 555.587 507.512 557.133 506.659 559.16C505.859 561.187 505.459 563.64 505.459 566.52C505.459 571 506.419 574.307 508.339 576.44C510.312 578.573 512.925 579.64 516.179 579.64C517.672 579.64 518.925 579.453 519.939 579.08C521.005 578.653 521.859 578.12 522.499 577.48C523.192 576.84 523.725 576.12 524.099 575.32C524.472 574.467 524.765 573.613 524.979 572.76L535.059 574.76C534.685 576.733 534.045 578.547 533.139 580.2C532.232 581.8 531.005 583.187 529.459 584.36C527.912 585.533 526.045 586.44 523.859 587.08C521.725 587.773 519.165 588.12 516.179 588.12ZM539.474 587V566.44V545H549.074V559.72H550.514C550.888 556.04 551.581 553.053 552.594 550.76C553.661 548.467 555.101 546.787 556.914 545.72C558.728 544.6 560.968 544.04 563.634 544.04C564.168 544.04 564.728 544.067 565.314 544.12C565.954 544.173 566.674 544.307 567.474 544.52L566.994 556.76C566.088 556.387 565.154 556.12 564.194 555.96C563.234 555.8 562.381 555.72 561.634 555.72C559.608 555.72 557.848 556.2 556.354 557.16C554.861 558.12 553.661 559.533 552.754 561.4C551.901 563.213 551.314 565.427 550.994 568.04V587H539.474ZM570.493 587V545H582.013V587H570.493ZM576.253 539C574.013 539 572.28 538.547 571.053 537.64C569.88 536.68 569.293 535.293 569.293 533.48C569.293 531.613 569.88 530.227 571.053 529.32C572.28 528.36 574.013 527.88 576.253 527.88C578.546 527.88 580.28 528.36 581.453 529.32C582.68 530.227 583.293 531.613 583.293 533.48C583.293 535.293 582.68 536.68 581.453 537.64C580.28 538.547 578.546 539 576.253 539ZM598.776 588.12C596.482 588.12 594.429 587.667 592.616 586.76C590.802 585.853 589.362 584.52 588.296 582.76C587.229 581 586.696 578.813 586.696 576.2C586.696 573.907 587.149 571.987 588.056 570.44C588.962 568.84 590.269 567.56 591.976 566.6C593.682 565.64 595.762 564.84 598.216 564.2C600.669 563.56 603.442 563.027 606.536 562.6C608.349 562.28 609.816 561.987 610.936 561.72C612.056 561.453 612.882 561.053 613.416 560.52C613.949 559.987 614.216 559.213 614.216 558.2C614.216 556.653 613.656 555.373 612.536 554.36C611.469 553.293 609.789 552.76 607.496 552.76C606.056 552.76 604.669 553.027 603.336 553.56C602.002 554.04 600.882 554.84 599.976 555.96C599.069 557.027 598.429 558.413 598.056 560.12L587.896 557.32C588.429 554.973 589.282 552.973 590.456 551.32C591.629 549.667 593.069 548.28 594.776 547.16C596.536 546.04 598.509 545.213 600.696 544.68C602.936 544.147 605.309 543.88 607.816 543.88C611.869 543.88 615.202 544.547 617.816 545.88C620.429 547.213 622.376 549.267 623.656 552.04C624.936 554.76 625.576 558.28 625.576 562.6V569.8C625.576 571.667 625.602 573.56 625.656 575.48C625.709 577.4 625.789 579.347 625.896 581.32C626.056 583.24 626.216 585.133 626.376 587H616.216C616.002 585.56 615.816 583.96 615.656 582.2C615.496 580.44 615.389 578.627 615.336 576.76H613.976C613.336 578.84 612.296 580.76 610.856 582.52C609.469 584.227 607.762 585.587 605.736 586.6C603.709 587.613 601.389 588.12 598.776 588.12ZM603.656 579.72C604.669 579.72 605.709 579.56 606.776 579.24C607.842 578.867 608.856 578.333 609.816 577.64C610.829 576.893 611.736 575.987 612.536 574.92C613.336 573.853 613.976 572.627 614.456 571.24L614.296 565.08L616.136 565.4C615.282 566.093 614.216 566.653 612.936 567.08C611.709 567.453 610.402 567.747 609.016 567.96C607.682 568.173 606.349 568.413 605.016 568.68C603.682 568.947 602.456 569.293 601.336 569.72C600.269 570.147 599.416 570.733 598.776 571.48C598.189 572.227 597.896 573.24 597.896 574.52C597.896 576.12 598.429 577.4 599.496 578.36C600.562 579.267 601.949 579.72 603.656 579.72ZM631.984 587V561.88V545H641.424L641.344 558.2H642.784C643.477 555 644.437 552.333 645.664 550.2C646.944 548.067 648.544 546.493 650.464 545.48C652.437 544.413 654.784 543.88 657.504 543.88C662.304 543.88 665.957 545.587 668.464 549C670.97 552.36 672.224 557.613 672.224 564.76V587H660.704V566.04C660.704 561.72 660.064 558.573 658.784 556.6C657.504 554.573 655.637 553.56 653.184 553.56C651.05 553.56 649.264 554.227 647.824 555.56C646.437 556.84 645.37 558.627 644.624 560.92C643.877 563.16 643.504 565.693 643.504 568.52V587H631.984ZM694.034 587V534.2H715.794C718.994 534.2 721.874 534.493 724.434 535.08C726.994 535.613 729.181 536.467 730.994 537.64C732.861 538.76 734.274 540.2 735.234 541.96C736.194 543.72 736.674 545.8 736.674 548.2C736.674 550.28 736.221 552.12 735.314 553.72C734.461 555.267 733.101 556.547 731.234 557.56C729.421 558.52 726.994 559.16 723.954 559.48V560.68C729.074 561 732.834 562.253 735.234 564.44C737.634 566.573 738.834 569.48 738.834 573.16C738.834 576.2 738.034 578.76 736.434 580.84C734.834 582.867 732.461 584.413 729.314 585.48C726.221 586.493 722.354 587 717.714 587H694.034ZM705.074 577.72H717.554C720.914 577.72 723.421 577.213 725.074 576.2C726.728 575.133 727.554 573.507 727.554 571.32C727.554 568.813 726.514 566.947 724.434 565.72C722.408 564.493 719.314 563.88 715.154 563.88H705.074V577.72ZM705.074 556.52H713.554C717.608 556.52 720.594 555.96 722.514 554.84C724.434 553.72 725.394 552.04 725.394 549.8C725.394 547.56 724.514 545.933 722.754 544.92C721.048 543.853 718.408 543.32 714.834 543.32H705.074V556.52ZM744.103 587V566.44V545H753.703V559.72H755.143C755.516 556.04 756.209 553.053 757.223 550.76C758.289 548.467 759.729 546.787 761.543 545.72C763.356 544.6 765.596 544.04 768.263 544.04C768.796 544.04 769.356 544.067 769.943 544.12C770.583 544.173 771.303 544.307 772.103 544.52L771.623 556.76C770.716 556.387 769.783 556.12 768.823 555.96C767.863 555.8 767.009 555.72 766.263 555.72C764.236 555.72 762.476 556.2 760.983 557.16C759.489 558.12 758.289 559.533 757.383 561.4C756.529 563.213 755.943 565.427 755.623 568.04V587H744.103ZM784.26 588.12C781.967 588.12 779.913 587.667 778.1 586.76C776.287 585.853 774.847 584.52 773.78 582.76C772.713 581 772.18 578.813 772.18 576.2C772.18 573.907 772.633 571.987 773.54 570.44C774.447 568.84 775.753 567.56 777.46 566.6C779.167 565.64 781.247 564.84 783.7 564.2C786.153 563.56 788.927 563.027 792.02 562.6C793.833 562.28 795.3 561.987 796.42 561.72C797.54 561.453 798.367 561.053 798.9 560.52C799.433 559.987 799.7 559.213 799.7 558.2C799.7 556.653 799.14 555.373 798.02 554.36C796.953 553.293 795.273 552.76 792.98 552.76C791.54 552.76 790.153 553.027 788.82 553.56C787.487 554.04 786.367 554.84 785.46 555.96C784.553 557.027 783.913 558.413 783.54 560.12L773.38 557.32C773.913 554.973 774.767 552.973 775.94 551.32C777.113 549.667 778.553 548.28 780.26 547.16C782.02 546.04 783.993 545.213 786.18 544.68C788.42 544.147 790.793 543.88 793.3 543.88C797.353 543.88 800.687 544.547 803.3 545.88C805.913 547.213 807.86 549.267 809.14 552.04C810.42 554.76 811.06 558.28 811.06 562.6V569.8C811.06 571.667 811.087 573.56 811.14 575.48C811.193 577.4 811.273 579.347 811.38 581.32C811.54 583.24 811.7 585.133 811.86 587H801.7C801.487 585.56 801.3 583.96 801.14 582.2C800.98 580.44 800.873 578.627 800.82 576.76H799.46C798.82 578.84 797.78 580.76 796.34 582.52C794.953 584.227 793.247 585.587 791.22 586.6C789.193 587.613 786.873 588.12 784.26 588.12ZM789.14 579.72C790.153 579.72 791.193 579.56 792.26 579.24C793.327 578.867 794.34 578.333 795.3 577.64C796.313 576.893 797.22 575.987 798.02 574.92C798.82 573.853 799.46 572.627 799.94 571.24L799.78 565.08L801.62 565.4C800.767 566.093 799.7 566.653 798.42 567.08C797.193 567.453 795.887 567.747 794.5 567.96C793.167 568.173 791.833 568.413 790.5 568.68C789.167 568.947 787.94 569.293 786.82 569.72C785.753 570.147 784.9 570.733 784.26 571.48C783.673 572.227 783.38 573.24 783.38 574.52C783.38 576.12 783.913 577.4 784.98 578.36C786.047 579.267 787.433 579.72 789.14 579.72ZM817.468 587V561.88V545H826.908L826.828 558.2H828.268C828.961 555 829.921 552.333 831.148 550.2C832.428 548.067 834.028 546.493 835.948 545.48C837.921 544.413 840.268 543.88 842.988 543.88C847.788 543.88 851.441 545.587 853.948 549C856.455 552.36 857.708 557.613 857.708 564.76V587H846.188V566.04C846.188 561.72 845.548 558.573 844.268 556.6C842.988 554.573 841.121 553.56 838.668 553.56C836.535 553.56 834.748 554.227 833.308 555.56C831.921 556.84 830.855 558.627 830.108 560.92C829.361 563.16 828.988 565.693 828.988 568.52V587H817.468ZM879.312 588.12C875.845 588.12 872.805 587.24 870.192 585.48C867.632 583.667 865.632 581.107 864.192 577.8C862.752 574.493 862.032 570.52 862.032 565.88C862.032 561.56 862.672 557.773 863.952 554.52C865.232 551.213 867.099 548.627 869.552 546.76C872.059 544.893 875.152 543.96 878.832 543.96C881.499 543.96 883.765 544.493 885.632 545.56C887.499 546.573 889.019 548.067 890.192 550.04C891.419 552.013 892.379 554.44 893.072 557.32H894.752C894.432 555.56 894.112 553.853 893.792 552.2C893.525 550.493 893.285 548.893 893.072 547.4C892.912 545.907 892.832 544.6 892.832 543.48V530.04H904.432V567V587H894.752L894.832 574.68H893.312C892.725 577.72 891.819 580.227 890.592 582.2C889.365 584.173 887.819 585.667 885.952 586.68C884.085 587.64 881.872 588.12 879.312 588.12ZM883.232 578.68C884.885 578.68 886.325 578.333 887.552 577.64C888.779 576.893 889.765 575.933 890.512 574.76C891.312 573.533 891.899 572.227 892.272 570.84C892.699 569.4 892.912 568.013 892.912 566.68V565.32C892.912 564.253 892.752 563.16 892.432 562.04C892.165 560.92 891.765 559.853 891.232 558.84C890.699 557.773 890.032 556.84 889.232 556.04C888.432 555.187 887.499 554.52 886.432 554.04C885.419 553.56 884.272 553.32 882.992 553.32C881.125 553.32 879.525 553.853 878.192 554.92C876.859 555.987 875.819 557.48 875.072 559.4C874.379 561.32 874.032 563.533 874.032 566.04C874.032 568.547 874.405 570.76 875.152 572.68C875.899 574.6 876.965 576.093 878.352 577.16C879.739 578.173 881.365 578.68 883.232 578.68ZM928.183 588.12C925.356 588.12 922.796 587.853 920.503 587.32C918.209 586.787 916.236 586.013 914.583 585C912.929 583.933 911.596 582.653 910.583 581.16C909.569 579.667 908.929 577.96 908.663 576.04L917.623 572.84C917.836 574.067 918.396 575.213 919.303 576.28C920.263 577.347 921.543 578.173 923.143 578.76C924.743 579.347 926.663 579.64 928.903 579.64C931.303 579.64 933.169 579.293 934.503 578.6C935.836 577.853 936.503 576.813 936.503 575.48C936.503 574.467 936.129 573.667 935.383 573.08C934.636 572.493 933.569 571.987 932.183 571.56C930.796 571.133 929.063 570.733 926.983 570.36C924.903 569.88 922.849 569.373 920.823 568.84C918.796 568.253 916.903 567.48 915.143 566.52C913.436 565.56 912.049 564.307 910.983 562.76C909.969 561.213 909.463 559.24 909.463 556.84C909.463 554.227 910.156 551.96 911.543 550.04C912.929 548.12 914.956 546.627 917.623 545.56C920.289 544.44 923.516 543.88 927.303 543.88C930.769 543.88 933.809 544.36 936.423 545.32C939.036 546.28 941.169 547.667 942.823 549.48C944.529 551.24 945.623 553.4 946.103 555.96L936.663 558.84C936.503 557.453 935.996 556.28 935.143 555.32C934.343 554.36 933.276 553.64 931.943 553.16C930.609 552.627 929.063 552.36 927.303 552.36C925.063 552.36 923.303 552.733 922.023 553.48C920.796 554.227 920.183 555.213 920.183 556.44C920.183 557.453 920.583 558.28 921.383 558.92C922.183 559.56 923.329 560.093 924.823 560.52C926.316 560.893 928.076 561.293 930.103 561.72C932.183 562.147 934.209 562.653 936.183 563.24C938.209 563.773 940.049 564.493 941.703 565.4C943.356 566.307 944.663 567.533 945.623 569.08C946.636 570.573 947.143 572.493 947.143 574.84C947.143 577.613 946.396 579.987 944.903 581.96C943.409 583.933 941.249 585.453 938.423 586.52C935.649 587.587 932.236 588.12 928.183 588.12ZM966.791 587V534.2H978.231V587H966.791ZM969.111 587V577.24H1000.39V587H969.111ZM1021.92 588.12C1017.7 588.12 1014 587.293 1010.8 585.64C1007.6 583.933 1005.09 581.453 1003.28 578.2C1001.46 574.893 1000.56 570.787 1000.56 565.88C1000.56 560.973 1001.46 556.893 1003.28 553.64C1005.14 550.387 1007.68 547.96 1010.88 546.36C1014.13 544.707 1017.78 543.88 1021.84 543.88C1026.05 543.88 1029.76 544.707 1032.96 546.36C1036.16 548.013 1038.66 550.493 1040.48 553.8C1042.34 557.053 1043.28 561.133 1043.28 566.04C1043.28 571.053 1042.34 575.213 1040.48 578.52C1038.61 581.773 1036.05 584.2 1032.8 585.8C1029.54 587.347 1025.92 588.12 1021.92 588.12ZM1022.24 579.56C1024.32 579.56 1026.05 579.08 1027.44 578.12C1028.82 577.107 1029.86 575.64 1030.56 573.72C1031.3 571.8 1031.68 569.453 1031.68 566.68C1031.68 563.747 1031.28 561.267 1030.48 559.24C1029.73 557.16 1028.61 555.587 1027.12 554.52C1025.68 553.4 1023.84 552.84 1021.6 552.84C1019.57 552.84 1017.84 553.32 1016.4 554.28C1015.01 555.24 1013.94 556.68 1013.2 558.6C1012.5 560.52 1012.16 562.893 1012.16 565.72C1012.16 570.253 1013.04 573.693 1014.8 576.04C1016.56 578.387 1019.04 579.56 1022.24 579.56ZM1064.44 601.4C1059.8 601.4 1056.01 601.027 1053.08 600.28C1050.15 599.587 1047.99 598.547 1046.6 597.16C1045.27 595.773 1044.6 594.067 1044.6 592.04C1044.6 589.587 1045.56 587.613 1047.48 586.12C1049.45 584.573 1052.33 583.613 1056.12 583.24V581.8C1053.19 581.8 1050.95 581.48 1049.4 580.84C1047.91 580.2 1047.16 579.107 1047.16 577.56C1047.16 576.067 1047.91 574.733 1049.4 573.56C1050.89 572.387 1053.4 571.48 1056.92 570.84V569.32C1053.67 569.053 1051.11 567.96 1049.24 566.04C1047.43 564.12 1046.52 561.64 1046.52 558.6C1046.52 555.933 1047.24 553.56 1048.68 551.48C1050.17 549.347 1052.39 547.667 1055.32 546.44C1058.25 545.213 1061.83 544.6 1066.04 544.6H1087.32V553.4L1073.96 551.56V553.24C1077.48 553.773 1079.99 554.68 1081.48 555.96C1083.03 557.187 1083.8 558.867 1083.8 561C1083.8 563.187 1083.11 565.107 1081.72 566.76C1080.33 568.413 1078.31 569.72 1075.64 570.68C1073.03 571.587 1069.85 572.04 1066.12 572.04C1065.43 572.04 1064.65 572.013 1063.8 571.96C1063 571.853 1061.72 571.693 1059.96 571.48C1058.89 572.227 1058.07 572.893 1057.48 573.48C1056.95 574.013 1056.68 574.52 1056.68 575C1056.68 575.373 1056.87 575.667 1057.24 575.88C1057.61 576.093 1058.12 576.253 1058.76 576.36C1059.45 576.467 1060.15 576.52 1060.84 576.52H1072.92C1073.99 576.52 1075.35 576.6 1077 576.76C1078.71 576.92 1080.41 577.347 1082.12 578.04C1083.83 578.733 1085.27 579.853 1086.44 581.4C1087.61 582.893 1088.2 585.027 1088.2 587.8C1088.2 590.893 1087.32 593.427 1085.56 595.4C1083.85 597.427 1081.24 598.92 1077.72 599.88C1074.2 600.893 1069.77 601.4 1064.44 601.4ZM1065.56 592.04C1068.81 592.04 1071.35 591.853 1073.16 591.48C1075.03 591.16 1076.33 590.627 1077.08 589.88C1077.83 589.187 1078.2 588.28 1078.2 587.16C1078.2 586.147 1077.96 585.347 1077.48 584.76C1077.05 584.12 1076.47 583.693 1075.72 583.48C1075.03 583.267 1074.31 583.133 1073.56 583.08C1072.87 582.973 1072.25 582.92 1071.72 582.92H1061.56C1059.37 583.187 1057.8 583.8 1056.84 584.76C1055.88 585.72 1055.4 586.813 1055.4 588.04C1055.4 589.107 1055.77 589.933 1056.52 590.52C1057.27 591.107 1058.39 591.507 1059.88 591.72C1061.37 591.933 1063.27 592.04 1065.56 592.04ZM1065.56 565.96C1068.07 565.96 1069.93 565.347 1071.16 564.12C1072.44 562.84 1073.08 561.213 1073.08 559.24C1073.08 557.107 1072.44 555.373 1071.16 554.04C1069.88 552.653 1068.01 551.96 1065.56 551.96C1063.11 551.96 1061.21 552.627 1059.88 553.96C1058.55 555.293 1057.88 557.027 1057.88 559.16C1057.88 560.493 1058.17 561.667 1058.76 562.68C1059.35 563.693 1060.2 564.493 1061.32 565.08C1062.49 565.667 1063.91 565.96 1065.56 565.96ZM1110.2 588.12C1105.99 588.12 1102.28 587.293 1099.08 585.64C1095.88 583.933 1093.38 581.453 1091.56 578.2C1089.75 574.893 1088.84 570.787 1088.84 565.88C1088.84 560.973 1089.75 556.893 1091.56 553.64C1093.43 550.387 1095.96 547.96 1099.16 546.36C1102.42 544.707 1106.07 543.88 1110.12 543.88C1114.34 543.88 1118.04 544.707 1121.24 546.36C1124.44 548.013 1126.95 550.493 1128.76 553.8C1130.63 557.053 1131.56 561.133 1131.56 566.04C1131.56 571.053 1130.63 575.213 1128.76 578.52C1126.9 581.773 1124.34 584.2 1121.08 585.8C1117.83 587.347 1114.2 588.12 1110.2 588.12ZM1110.52 579.56C1112.6 579.56 1114.34 579.08 1115.72 578.12C1117.11 577.107 1118.15 575.64 1118.84 573.72C1119.59 571.8 1119.96 569.453 1119.96 566.68C1119.96 563.747 1119.56 561.267 1118.76 559.24C1118.02 557.16 1116.9 555.587 1115.4 554.52C1113.96 553.4 1112.12 552.84 1109.88 552.84C1107.86 552.84 1106.12 553.32 1104.68 554.28C1103.3 555.24 1102.23 556.68 1101.48 558.6C1100.79 560.52 1100.44 562.893 1100.44 565.72C1100.44 570.253 1101.32 573.693 1103.08 576.04C1104.84 578.387 1107.32 579.56 1110.52 579.56ZM1153.36 588.12C1150.53 588.12 1147.97 587.853 1145.68 587.32C1143.38 586.787 1141.41 586.013 1139.76 585C1138.1 583.933 1136.77 582.653 1135.76 581.16C1134.74 579.667 1134.1 577.96 1133.84 576.04L1142.8 572.84C1143.01 574.067 1143.57 575.213 1144.48 576.28C1145.44 577.347 1146.72 578.173 1148.32 578.76C1149.92 579.347 1151.84 579.64 1154.08 579.64C1156.48 579.64 1158.34 579.293 1159.68 578.6C1161.01 577.853 1161.68 576.813 1161.68 575.48C1161.68 574.467 1161.3 573.667 1160.56 573.08C1159.81 572.493 1158.74 571.987 1157.36 571.56C1155.97 571.133 1154.24 570.733 1152.16 570.36C1150.08 569.88 1148.02 569.373 1146 568.84C1143.97 568.253 1142.08 567.48 1140.32 566.52C1138.61 565.56 1137.22 564.307 1136.16 562.76C1135.14 561.213 1134.64 559.24 1134.64 556.84C1134.64 554.227 1135.33 551.96 1136.72 550.04C1138.1 548.12 1140.13 546.627 1142.8 545.56C1145.46 544.44 1148.69 543.88 1152.48 543.88C1155.94 543.88 1158.98 544.36 1161.6 545.32C1164.21 546.28 1166.34 547.667 1168 549.48C1169.7 551.24 1170.8 553.4 1171.28 555.96L1161.84 558.84C1161.68 557.453 1161.17 556.28 1160.32 555.32C1159.52 554.36 1158.45 553.64 1157.12 553.16C1155.78 552.627 1154.24 552.36 1152.48 552.36C1150.24 552.36 1148.48 552.733 1147.2 553.48C1145.97 554.227 1145.36 555.213 1145.36 556.44C1145.36 557.453 1145.76 558.28 1146.56 558.92C1147.36 559.56 1148.5 560.093 1150 560.52C1151.49 560.893 1153.25 561.293 1155.28 561.72C1157.36 562.147 1159.38 562.653 1161.36 563.24C1163.38 563.773 1165.22 564.493 1166.88 565.4C1168.53 566.307 1169.84 567.533 1170.8 569.08C1171.81 570.573 1172.32 572.493 1172.32 574.84C1172.32 577.613 1171.57 579.987 1170.08 581.96C1168.58 583.933 1166.42 585.453 1163.6 586.52C1160.82 587.587 1157.41 588.12 1153.36 588.12Z" fill="black"/>
<g filter="url(#filter0_f_322_7)">
<circle cx="629" cy="629" r="329" fill="#008753" fill-opacity="0.05"/>
</g>
<path d="M380.496 716C380.496 712.784 380.832 709.472 381.504 706.064C382.224 702.656 383.28 699.272 384.672 695.912C386.064 692.504 387.864 689.24 390.072 686.12C392.28 682.952 394.848 680 397.776 677.264V676.688L373.512 676.976V668.408H407.136V677.048C405.072 679.064 403.104 681.512 401.232 684.392C399.408 687.224 397.8 690.344 396.408 693.752C395.016 697.112 393.912 700.688 393.096 704.48C392.328 708.224 391.944 712.064 391.944 716H380.496ZM426.713 717.008C423.065 717.008 419.873 716.48 417.137 715.424C414.449 714.368 412.361 712.856 410.873 710.888C409.385 708.92 408.641 706.544 408.641 703.76L418.433 701.888C418.673 704.144 419.537 705.848 421.025 707C422.513 708.104 424.409 708.656 426.713 708.656C429.401 708.656 431.441 707.936 432.833 706.496C434.273 705.008 434.993 702.776 434.993 699.8C434.993 698.456 434.849 697.256 434.561 696.2C434.273 695.096 433.817 694.16 433.193 693.392C432.617 692.576 431.849 691.952 430.889 691.52C429.929 691.088 428.801 690.872 427.505 690.872C426.593 690.872 425.753 690.992 424.985 691.232C424.265 691.472 423.593 691.808 422.969 692.24C422.345 692.624 421.769 693.152 421.241 693.824C420.761 694.448 420.305 695.168 419.873 695.984H409.433L411.305 668.48H443.633V677.12H419.945L418.865 690.944H419.585C420.545 688.448 422.105 686.576 424.265 685.328C426.425 684.032 428.873 683.384 431.609 683.384C434.729 683.384 437.321 684.056 439.385 685.4C441.497 686.744 443.057 688.64 444.065 691.088C445.121 693.488 445.649 696.368 445.649 699.728C445.649 703.712 444.857 706.976 443.273 709.52C441.737 712.064 439.529 713.96 436.649 715.208C433.817 716.408 430.505 717.008 426.713 717.008ZM469.378 717.008C466.306 717.008 463.522 716.456 461.026 715.352C458.53 714.248 456.394 712.664 454.618 710.6C452.89 708.488 451.546 705.92 450.586 702.896C449.674 699.824 449.218 696.344 449.218 692.456C449.218 687.032 450.082 682.472 451.81 678.776C453.586 675.08 456.01 672.296 459.082 670.424C462.154 668.504 465.682 667.544 469.666 667.544C473.746 667.544 477.274 668.504 480.25 670.424C483.274 672.344 485.602 675.152 487.234 678.848C488.914 682.496 489.754 686.96 489.754 692.24C489.754 696.176 489.274 699.704 488.314 702.824C487.354 705.896 485.962 708.488 484.138 710.6C482.314 712.664 480.154 714.248 477.658 715.352C475.162 716.456 472.402 717.008 469.378 717.008ZM469.594 708.728C470.842 708.728 472.042 708.44 473.194 707.864C474.394 707.288 475.45 706.376 476.362 705.128C477.274 703.832 477.994 702.176 478.522 700.16C479.098 698.096 479.386 695.6 479.386 692.672C479.386 689.024 478.978 685.952 478.162 683.456C477.346 680.912 476.194 678.992 474.706 677.696C473.218 676.4 471.466 675.752 469.45 675.752C467.866 675.752 466.306 676.28 464.77 677.336C463.282 678.344 462.058 680.048 461.098 682.448C460.138 684.848 459.658 688.112 459.658 692.24C459.658 695.168 459.898 697.664 460.378 699.728C460.906 701.792 461.626 703.496 462.538 704.84C463.45 706.184 464.506 707.168 465.706 707.792C466.906 708.416 468.202 708.728 469.594 708.728ZM503.906 707.576V677.768H512.33V707.576H503.906ZM493.322 696.632V688.64H522.914V696.632H493.322Z" fill="#008753"/>
<path d="M542.57 716V668.48H552.866V716H542.57ZM544.658 716V707.216H572.81V716H544.658ZM592.183 717.008C588.391 717.008 585.055 716.264 582.175 714.776C579.295 713.24 577.039 711.008 575.407 708.08C573.775 705.104 572.959 701.408 572.959 696.992C572.959 692.576 573.775 688.904 575.407 685.976C577.087 683.048 579.367 680.864 582.247 679.424C585.175 677.936 588.463 677.192 592.111 677.192C595.903 677.192 599.239 677.936 602.119 679.424C604.999 680.912 607.255 683.144 608.887 686.12C610.567 689.048 611.407 692.72 611.407 697.136C611.407 701.648 610.567 705.392 608.887 708.368C607.207 711.296 604.903 713.48 601.975 714.92C599.047 716.312 595.783 717.008 592.183 717.008ZM592.471 709.304C594.343 709.304 595.903 708.872 597.151 708.008C598.399 707.096 599.335 705.776 599.959 704.048C600.631 702.32 600.967 700.208 600.967 697.712C600.967 695.072 600.607 692.84 599.887 691.016C599.215 689.144 598.207 687.728 596.863 686.768C595.567 685.76 593.911 685.256 591.895 685.256C590.071 685.256 588.511 685.688 587.215 686.552C585.967 687.416 585.007 688.712 584.335 690.44C583.711 692.168 583.399 694.304 583.399 696.848C583.399 700.928 584.191 704.024 585.775 706.136C587.359 708.248 589.591 709.304 592.471 709.304ZM630.454 728.96C626.278 728.96 622.87 728.624 620.23 727.952C617.59 727.328 615.646 726.392 614.398 725.144C613.198 723.896 612.598 722.36 612.598 720.536C612.598 718.328 613.462 716.552 615.19 715.208C616.966 713.816 619.558 712.952 622.966 712.616V711.32C620.326 711.32 618.31 711.032 616.918 710.456C615.574 709.88 614.902 708.896 614.902 707.504C614.902 706.16 615.574 704.96 616.918 703.904C618.262 702.848 620.518 702.032 623.686 701.456V700.088C620.758 699.848 618.454 698.864 616.774 697.136C615.142 695.408 614.326 693.176 614.326 690.44C614.326 688.04 614.974 685.904 616.27 684.032C617.614 682.112 619.606 680.6 622.246 679.496C624.886 678.392 628.102 677.84 631.894 677.84H651.046V685.76L639.022 684.104V685.616C642.19 686.096 644.446 686.912 645.79 688.064C647.182 689.168 647.878 690.68 647.878 692.6C647.878 694.568 647.254 696.296 646.006 697.784C644.758 699.272 642.934 700.448 640.534 701.312C638.182 702.128 635.326 702.536 631.966 702.536C631.342 702.536 630.646 702.512 629.878 702.464C629.158 702.368 628.006 702.224 626.422 702.032C625.462 702.704 624.718 703.304 624.19 703.832C623.71 704.312 623.47 704.768 623.47 705.2C623.47 705.536 623.638 705.8 623.974 705.992C624.31 706.184 624.766 706.328 625.342 706.424C625.966 706.52 626.59 706.568 627.214 706.568H638.086C639.046 706.568 640.27 706.64 641.758 706.784C643.294 706.928 644.83 707.312 646.366 707.936C647.902 708.56 649.198 709.568 650.254 710.96C651.31 712.304 651.838 714.224 651.838 716.72C651.838 719.504 651.046 721.784 649.462 723.56C647.926 725.384 645.574 726.728 642.406 727.592C639.238 728.504 635.254 728.96 630.454 728.96ZM631.462 720.536C634.39 720.536 636.67 720.368 638.302 720.032C639.982 719.744 641.158 719.264 641.83 718.592C642.502 717.968 642.838 717.152 642.838 716.144C642.838 715.232 642.622 714.512 642.19 713.984C641.806 713.408 641.278 713.024 640.606 712.832C639.982 712.64 639.334 712.52 638.662 712.472C638.038 712.376 637.486 712.328 637.006 712.328H627.862C625.894 712.568 624.478 713.12 623.614 713.984C622.75 714.848 622.318 715.832 622.318 716.936C622.318 717.896 622.654 718.64 623.326 719.168C623.998 719.696 625.006 720.056 626.35 720.248C627.694 720.44 629.398 720.536 631.462 720.536ZM631.462 697.064C633.718 697.064 635.398 696.512 636.502 695.408C637.654 694.256 638.23 692.792 638.23 691.016C638.23 689.096 637.654 687.536 636.502 686.336C635.35 685.088 633.67 684.464 631.462 684.464C629.254 684.464 627.55 685.064 626.35 686.264C625.15 687.464 624.55 689.024 624.55 690.944C624.55 692.144 624.814 693.2 625.342 694.112C625.87 695.024 626.638 695.744 627.646 696.272C628.702 696.8 629.974 697.064 631.462 697.064ZM671.641 717.008C667.849 717.008 664.513 716.264 661.633 714.776C658.753 713.24 656.497 711.008 654.865 708.08C653.233 705.104 652.417 701.408 652.417 696.992C652.417 692.576 653.233 688.904 654.865 685.976C656.545 683.048 658.825 680.864 661.705 679.424C664.633 677.936 667.921 677.192 671.569 677.192C675.361 677.192 678.697 677.936 681.577 679.424C684.457 680.912 686.713 683.144 688.345 686.12C690.025 689.048 690.865 692.72 690.865 697.136C690.865 701.648 690.025 705.392 688.345 708.368C686.665 711.296 684.361 713.48 681.433 714.92C678.505 716.312 675.241 717.008 671.641 717.008ZM671.929 709.304C673.801 709.304 675.361 708.872 676.609 708.008C677.857 707.096 678.793 705.776 679.417 704.048C680.089 702.32 680.425 700.208 680.425 697.712C680.425 695.072 680.065 692.84 679.345 691.016C678.673 689.144 677.665 687.728 676.321 686.768C675.025 685.76 673.369 685.256 671.353 685.256C669.529 685.256 667.969 685.688 666.673 686.552C665.425 687.416 664.465 688.712 663.793 690.44C663.169 692.168 662.857 694.304 662.857 696.848C662.857 700.928 663.649 704.024 665.233 706.136C666.817 708.248 669.049 709.304 671.929 709.304ZM710.48 717.008C707.936 717.008 705.632 716.768 703.568 716.288C701.504 715.808 699.728 715.112 698.24 714.2C696.752 713.24 695.552 712.088 694.64 710.744C693.728 709.4 693.152 707.864 692.912 706.136L700.976 703.256C701.168 704.36 701.672 705.392 702.488 706.352C703.352 707.312 704.504 708.056 705.944 708.584C707.384 709.112 709.112 709.376 711.128 709.376C713.288 709.376 714.968 709.064 716.168 708.44C717.368 707.768 717.968 706.832 717.968 705.632C717.968 704.72 717.632 704 716.96 703.472C716.288 702.944 715.328 702.488 714.08 702.104C712.832 701.72 711.272 701.36 709.4 701.024C707.528 700.592 705.68 700.136 703.856 699.656C702.032 699.128 700.328 698.432 698.744 697.568C697.208 696.704 695.96 695.576 695 694.184C694.088 692.792 693.632 691.016 693.632 688.856C693.632 686.504 694.256 684.464 695.504 682.736C696.752 681.008 698.576 679.664 700.976 678.704C703.376 677.696 706.28 677.192 709.688 677.192C712.808 677.192 715.544 677.624 717.896 678.488C720.248 679.352 722.168 680.6 723.656 682.232C725.192 683.816 726.176 685.76 726.608 688.064L718.112 690.656C717.968 689.408 717.512 688.352 716.744 687.488C716.024 686.624 715.064 685.976 713.864 685.544C712.664 685.064 711.272 684.824 709.688 684.824C707.672 684.824 706.088 685.16 704.936 685.832C703.832 686.504 703.28 687.392 703.28 688.496C703.28 689.408 703.64 690.152 704.36 690.728C705.08 691.304 706.112 691.784 707.456 692.168C708.8 692.504 710.384 692.864 712.208 693.248C714.08 693.632 715.904 694.088 717.68 694.616C719.504 695.096 721.16 695.744 722.648 696.56C724.136 697.376 725.312 698.48 726.176 699.872C727.088 701.216 727.544 702.944 727.544 705.056C727.544 707.552 726.872 709.688 725.528 711.464C724.184 713.24 722.24 714.608 719.696 715.568C717.2 716.528 714.128 717.008 710.48 717.008Z" fill="black"/>
<path d="M374.56 759.28H377.888V767.248C378.88 765.552 380.608 764.656 383.04 764.656C387.904 764.656 390.208 768.784 390.208 773.52C390.208 778.256 387.904 782.384 383.04 782.384C380.48 782.384 378.688 781.36 377.76 779.632L377.664 782H374.56V759.28ZM377.632 773.52C377.632 776.56 378.944 779.472 382.208 779.472C385.44 779.472 386.752 776.56 386.752 773.52C386.752 770.352 385.472 767.472 382.208 767.472C378.944 767.472 377.632 770.384 377.632 773.52ZM390.236 765.04H393.628L398.46 778.48L403.132 765.04H406.493L399.708 783.984C399.004 785.936 397.724 786.8 395.644 786.8H393.34V784.08H395.196C396.06 784.08 396.572 783.76 396.86 782.96L397.436 781.52H396.38L390.236 765.04ZM655.001 758.768C658.361 759.024 661.113 761.936 660.121 765.264C659.609 767.024 658.105 768.752 655.801 770.128L660.537 776.144C661.241 775.184 661.497 773.296 661.401 771.696L664.857 771.984C664.825 774.544 663.961 777.104 662.649 778.64L665.497 782H661.529L660.473 780.72C659.193 781.776 657.241 782.384 655.129 782.384C650.073 782.384 646.681 780.112 646.681 775.952C646.681 773.296 647.865 771.696 650.777 769.712C650.905 769.648 651.065 769.552 651.193 769.456C649.657 767.568 649.017 765.776 649.017 764.176C649.017 760.784 651.897 758.544 655.001 758.768ZM650.105 775.888C650.105 778.032 651.961 779.408 654.969 779.408C656.345 779.408 657.593 778.992 658.201 778.256L653.113 771.824C651.801 772.688 650.105 773.968 650.105 775.888ZM652.409 764.336C652.409 765.264 652.825 766.384 653.881 767.824C655.801 766.928 656.985 765.584 656.985 764.336C656.985 762.96 656.217 761.968 654.905 761.904C653.497 761.808 652.377 762.96 652.409 764.336Z" fill="#717171"/>
<path d="M415.225 759.28H419.865L426.649 778.064L433.433 759.28H438.073V782H434.681V765.584L428.601 782H424.697L418.617 765.584V782H415.225V759.28ZM441.139 770.096C441.811 766.704 444.499 764.656 448.339 764.656C452.947 764.656 455.443 767.216 455.443 771.824V778.224C455.443 779.024 455.795 779.312 456.467 779.312H457.171V782H456.051C454.515 782.032 452.499 781.712 452.371 779.408C451.635 781.008 449.747 782.384 446.963 782.384C443.571 782.384 440.851 780.592 440.851 777.552C440.851 774.128 443.379 773.168 447.251 772.432L452.115 771.472C452.083 768.752 450.835 767.44 448.339 767.44C446.355 767.44 445.043 768.432 444.563 770.32L441.139 770.096ZM444.307 777.488C444.307 778.736 445.363 779.76 447.603 779.76C450.195 779.76 452.179 777.936 452.179 774.224V774.064L448.531 774.704C446.163 775.12 444.307 775.312 444.307 777.488ZM459.285 765.04H462.325L462.421 768.24C462.965 766.064 464.245 765.04 466.453 765.04H468.085V767.792H466.421C463.797 767.792 462.613 769.232 462.613 772.08V782H459.285V765.04ZM468.961 765.04H472.353L477.186 778.48L481.858 765.04H485.218L478.434 783.984C477.729 785.936 476.45 786.8 474.37 786.8H472.065V784.08H473.921C474.786 784.08 475.298 783.76 475.586 782.96L476.161 781.52H475.106L468.961 765.04ZM485.737 770.096C486.409 766.704 489.097 764.656 492.937 764.656C497.545 764.656 500.041 767.216 500.041 771.824V778.224C500.041 779.024 500.393 779.312 501.065 779.312H501.769V782H500.649C499.113 782.032 497.097 781.712 496.969 779.408C496.233 781.008 494.345 782.384 491.561 782.384C488.169 782.384 485.449 780.592 485.449 777.552C485.449 774.128 487.977 773.168 491.849 772.432L496.713 771.472C496.681 768.752 495.433 767.44 492.937 767.44C490.953 767.44 489.641 768.432 489.161 770.32L485.737 770.096ZM488.905 777.488C488.905 778.736 489.961 779.76 492.201 779.76C494.793 779.76 496.777 777.936 496.777 774.224V774.064L493.129 774.704C490.761 775.12 488.905 775.312 488.905 777.488ZM503.882 765.04H506.89L506.986 767.824C507.818 765.808 509.546 764.656 511.818 764.656C514.25 764.656 516.01 765.936 516.746 768.176C517.514 765.872 519.274 764.656 521.834 764.656C525.29 764.656 527.338 766.96 527.338 771.088V782H524.01V772.08C524.01 769.104 522.922 767.472 521.002 767.472C518.57 767.472 517.194 769.136 517.194 772.08V782H514.026V772.08C514.026 769.168 512.938 767.472 511.018 767.472C508.618 767.472 507.21 769.168 507.21 772.08V782H503.882V765.04ZM535.654 759.28H539.526L545.318 769.392L551.078 759.28H554.918L547.014 772.848V782H543.622V772.848L535.654 759.28ZM555.46 770.096C556.132 766.704 558.82 764.656 562.66 764.656C567.268 764.656 569.764 767.216 569.764 771.824V778.224C569.764 779.024 570.116 779.312 570.788 779.312H571.492V782H570.372C568.836 782.032 566.82 781.712 566.692 779.408C565.956 781.008 564.068 782.384 561.284 782.384C557.892 782.384 555.172 780.592 555.172 777.552C555.172 774.128 557.7 773.168 561.572 772.432L566.436 771.472C566.404 768.752 565.156 767.44 562.66 767.44C560.676 767.44 559.364 768.432 558.884 770.32L555.46 770.096ZM558.628 777.488C558.628 778.736 559.684 779.76 561.924 779.76C564.516 779.76 566.5 777.936 566.5 774.224V774.064L562.852 774.704C560.484 775.12 558.628 775.312 558.628 777.488ZM573.606 759.28H576.934V767.312C577.926 765.456 579.846 764.656 581.926 764.656C585.734 764.656 587.622 767.472 587.622 771.088V782H584.294V772.24C584.294 769.264 583.398 767.632 581.03 767.632C578.502 767.632 576.934 769.264 576.934 772.24V782H573.606V759.28ZM590.463 770.096C591.135 766.704 593.823 764.656 597.663 764.656C602.271 764.656 604.767 767.216 604.767 771.824V778.224C604.767 779.024 605.119 779.312 605.791 779.312H606.495V782H605.375C603.839 782.032 601.823 781.712 601.695 779.408C600.959 781.008 599.071 782.384 596.287 782.384C592.895 782.384 590.175 780.592 590.175 777.552C590.175 774.128 592.703 773.168 596.575 772.432L601.439 771.472C601.407 768.752 600.159 767.44 597.663 767.44C595.679 767.44 594.367 768.432 593.887 770.32L590.463 770.096ZM593.631 777.488C593.631 778.736 594.687 779.76 596.927 779.76C599.519 779.76 601.503 777.936 601.503 774.224V774.064L597.855 774.704C595.487 775.12 593.631 775.312 593.631 777.488ZM606.065 765.04H609.457L614.289 778.48L618.961 765.04H622.321L615.537 783.984C614.833 785.936 613.553 786.8 611.473 786.8H609.169V784.08H611.025C611.889 784.08 612.401 783.76 612.689 782.96L613.265 781.52H612.209L606.065 765.04ZM622.841 770.096C623.513 766.704 626.201 764.656 630.041 764.656C634.649 764.656 637.145 767.216 637.145 771.824V778.224C637.145 779.024 637.497 779.312 638.169 779.312H638.873V782H637.753C636.217 782.032 634.201 781.712 634.073 779.408C633.337 781.008 631.449 782.384 628.665 782.384C625.273 782.384 622.553 780.592 622.553 777.552C622.553 774.128 625.081 773.168 628.953 772.432L633.817 771.472C633.785 768.752 632.537 767.44 630.041 767.44C628.057 767.44 626.745 768.432 626.265 770.32L622.841 770.096ZM626.009 777.488C626.009 778.736 627.065 779.76 629.305 779.76C631.897 779.76 633.881 777.936 633.881 774.224V774.064L630.233 774.704C627.865 775.12 626.009 775.312 626.009 777.488ZM689.761 759.28V762.416H682.785V782H679.393V762.416H672.449V759.28H689.761ZM691.585 765.04H694.913V782H691.585V765.04ZM691.553 762.512V759.28H695.009V762.512H691.553ZM698.336 765.04H701.344L701.44 767.824C702.272 765.808 704 764.656 706.272 764.656C708.704 764.656 710.464 765.936 711.2 768.176C711.968 765.872 713.728 764.656 716.288 764.656C719.744 764.656 721.792 766.96 721.792 771.088V782H718.464V772.08C718.464 769.104 717.376 767.472 715.456 767.472C713.024 767.472 711.648 769.136 711.648 772.08V782H708.48V772.08C708.48 769.168 707.392 767.472 705.472 767.472C703.072 767.472 701.664 769.168 701.664 772.08V782H698.336V765.04ZM724.837 765.04H728.165V782H724.837V765.04ZM724.805 762.512V759.28H728.261V762.512H724.805ZM741.311 774.48C741.855 777.328 743.871 779.248 747.231 779.248C749.919 779.248 751.711 778.224 751.711 776.144C751.711 774 749.887 772.752 745.631 771.696C741.599 770.704 738.271 768.816 738.271 765.136C738.271 761.232 741.471 758.768 746.047 758.768C750.975 758.768 754.271 761.84 754.783 766.128L751.295 766.32C750.911 763.632 748.895 761.872 745.983 761.872C743.551 761.872 741.759 763.152 741.791 765.168C741.823 767.696 744.895 768.4 747.551 769.136C751.903 770.256 755.231 772.368 755.231 775.888C755.231 780.144 751.359 782.384 747.039 782.384C741.887 782.384 738.175 779.344 737.823 774.672L741.311 774.48ZM757.478 770.096C758.15 766.704 760.838 764.656 764.678 764.656C769.286 764.656 771.782 767.216 771.782 771.824V778.224C771.782 779.024 772.134 779.312 772.806 779.312H773.51V782H772.39C770.854 782.032 768.838 781.712 768.71 779.408C767.974 781.008 766.086 782.384 763.302 782.384C759.91 782.384 757.19 780.592 757.19 777.552C757.19 774.128 759.718 773.168 763.59 772.432L768.454 771.472C768.422 768.752 767.174 767.44 764.678 767.44C762.694 767.44 761.382 768.432 760.902 770.32L757.478 770.096ZM760.646 777.488C760.646 778.736 761.702 779.76 763.942 779.76C766.534 779.76 768.518 777.936 768.518 774.224V774.064L764.87 774.704C762.502 775.12 760.646 775.312 760.646 777.488ZM776.003 759.28H779.331V778.128C779.331 778.896 779.683 779.248 780.419 779.248H781.827V782H779.715C777.475 782 776.003 780.56 776.003 778.288V759.28ZM783.449 770.096C784.121 766.704 786.809 764.656 790.649 764.656C795.257 764.656 797.753 767.216 797.753 771.824V778.224C797.753 779.024 798.105 779.312 798.777 779.312H799.481V782H798.361C796.825 782.032 794.809 781.712 794.681 779.408C793.945 781.008 792.057 782.384 789.273 782.384C785.881 782.384 783.161 780.592 783.161 777.552C783.161 774.128 785.689 773.168 789.561 772.432L794.425 771.472C794.393 768.752 793.145 767.44 790.649 767.44C788.665 767.44 787.353 768.432 786.873 770.32L783.449 770.096ZM786.617 777.488C786.617 778.736 787.673 779.76 789.913 779.76C792.505 779.76 794.489 777.936 794.489 774.224V774.064L790.841 774.704C788.473 775.12 786.617 775.312 786.617 777.488ZM800.951 770.096C801.623 766.704 804.311 764.656 808.151 764.656C812.759 764.656 815.255 767.216 815.255 771.824V778.224C815.255 779.024 815.607 779.312 816.279 779.312H816.983V782H815.863C814.327 782.032 812.311 781.712 812.183 779.408C811.447 781.008 809.559 782.384 806.775 782.384C803.383 782.384 800.663 780.592 800.663 777.552C800.663 774.128 803.191 773.168 807.063 772.432L811.927 771.472C811.895 768.752 810.647 767.44 808.151 767.44C806.167 767.44 804.855 768.432 804.375 770.32L800.951 770.096ZM804.119 777.488C804.119 778.736 805.175 779.76 807.415 779.76C810.007 779.76 811.991 777.936 811.991 774.224V774.064L808.343 774.704C805.975 775.12 804.119 775.312 804.119 777.488ZM819.096 765.04H822.104L822.2 767.824C823.032 765.808 824.76 764.656 827.032 764.656C829.464 764.656 831.224 765.936 831.96 768.176C832.728 765.872 834.488 764.656 837.048 764.656C840.504 764.656 842.552 766.96 842.552 771.088V782H839.224V772.08C839.224 769.104 838.136 767.472 836.216 767.472C833.784 767.472 832.408 769.136 832.408 772.08V782H829.24V772.08C829.24 769.168 828.152 767.472 826.232 767.472C823.832 767.472 822.424 769.168 822.424 772.08V782H819.096V765.04Z" fill="black"/>
<defs>
<filter id="filter0_f_322_7" x="0" y="0" width="1258" height="1258" filterUnits="userSpaceOnUse" color-interpolation-filters="sRGB">
<feFlood flood-opacity="0" result="BackgroundImageFix"/>
<feBlend mode="normal" in="SourceGraphic" in2="BackgroundImageFix" result="shape"/>
<feGaussianBlur stdDeviation="150" result="effect1_foregroundBlur_322_7"/>
</filter>
<clipPath id="clip0_322_7">
<rect width="56" height="56" fill="white" transform="translate(372 344)"/>
</clipPath>
<clipPath id="clip1_322_7">
<rect width="80" height="60" fill="white" transform="translate(360 342)"/>
</clipPath>
</defs>
</svg>
