<svg width="300" height="100" viewBox="0 0 300 100" fill="none" xmlns="http://www.w3.org/2000/svg">
<rect width="300" height="100" fill="white"/>
<g clip-path="url(#clip0_291_3933)">
<path fill-rule="evenodd" clip-rule="evenodd" d="M128.095 44.5342C128.095 44.5342 128.349 43.3592 128.115 42.2085C128.093 42.0531 128.082 41.9925 128.062 41.8765C128.031 41.6951 128.009 41.6132 128.009 41.6132C127.961 41.3985 127.908 41.1799 127.841 40.96C127.609 40.1863 127.261 39.4279 126.884 38.8348C125.24 39.0573 123.533 39.2673 121.83 39.488C118.096 39.9946 114.723 40.0664 113.579 38.9097C112.501 37.8178 113.258 34.1926 114.02 31.5349C113.512 31.14 112.872 30.74 112.125 30.5084C112.125 30.5084 112.053 30.485 111.897 30.4409C111.74 30.3963 111.55 30.3465 111.551 30.3456C111.484 30.3279 111.416 30.3123 111.346 30.2967C110.371 30.0863 109.442 30.0841 108.655 30.2448C108.607 30.2543 108.558 30.2625 108.511 30.2733C108.51 30.2733 108.509 30.2738 108.509 30.2742C108.248 30.9115 107.689 32.386 106.903 33.7454C106.116 35.1039 105.102 36.3472 103.93 36.5221C101.917 36.823 99.2584 33.7068 96.605 30.5582C96.6033 30.5565 96.6015 30.5543 96.5998 30.553C95.9457 30.6885 95.0651 31.105 94.5071 31.4916C94.4668 31.5167 94.4274 31.5414 94.3902 31.566C94.3902 31.566 94.2473 31.6548 94.0477 31.8067C93.9971 31.8453 93.93 31.9002 93.93 31.9002C93.5767 32.1583 93.2728 32.5198 92.8455 33.0548C92.4624 33.5337 92.1922 34.0436 92.1611 34.1882H92.1598C94.1196 36.4468 94.9309 37.1827 96.3747 40.0868C97.4955 42.3419 96.2669 42.9951 94.7374 43.6112C93.4442 44.1372 88.7574 44.8905 88.7574 44.8905L88.7549 44.8909C88.5124 45.6091 88.4496 46.3585 88.5566 47.2819C88.5566 47.2819 88.58 47.4992 88.6003 47.6135C88.6362 47.8235 88.6475 47.8564 88.6475 47.8564C88.8817 49.3071 89.4765 50.2535 89.7289 50.592C91.6069 50.376 93.0343 50.2916 94.0954 50.2916C98.1111 50.2743 98.2172 51.4345 98.0064 54.5926C97.831 57.2131 96.0617 61.7969 95.5985 62.7645C95.5985 62.7645 95.937 63.09 96.3652 63.3563C96.9219 63.7026 97.5185 63.9403 97.5812 63.9628C97.5838 63.9636 97.586 63.9645 97.586 63.9645C97.7388 64.0186 97.7388 64.0182 97.8271 64.0472C97.9159 64.0766 98.0908 64.129 98.0908 64.129C98.6601 64.3269 99.7627 64.5494 101.016 64.4922C101.11 64.2541 105.089 54.0134 107.762 53.5913C109.823 53.2657 113.034 57.556 113.637 58.3989C114.315 58.3651 115.281 58.1755 116.036 57.8564C116.036 57.8564 116.155 57.8032 116.32 57.7235C116.485 57.6434 116.613 57.5742 116.613 57.5742C116.613 57.5742 117.885 56.7975 118.643 55.5533L118.688 55.481C118.782 55.5975 115.302 50.9838 115.646 48.9573C116.025 46.7256 125.125 45.0195 128.095 44.5342Z" fill="white"/>
<path fill-rule="evenodd" clip-rule="evenodd" d="M111.931 31.0216C110.695 34.4369 110.052 36.5392 109.703 38.1254C109.483 39.1562 109.394 39.9142 109.423 40.5649C109.476 42.4317 110.597 42.9681 111.559 43.1737C112.52 43.3793 113.61 43.3741 114.913 43.3166C116.206 43.2542 117.664 43.1075 119.144 42.9282C121.245 42.6706 125.386 42.01 127.399 41.697C124.397 42.0992 120.956 42.5139 118.061 42.5542C116.808 42.5711 115.657 42.5183 114.636 42.3446C113.619 42.162 112.709 41.9078 111.929 41.2117C111.392 40.7186 111.055 40.0969 110.857 39.4748C110.658 38.8462 110.582 38.202 110.573 37.5466C110.555 35.8876 110.957 34.1391 111.402 32.6178C111.555 32.11 111.737 31.568 111.935 31.0207C111.94 31.0091 112.005 30.8285 112.01 30.8164L111.931 31.0216Z" fill="#A2D39B"/>
<path fill-rule="evenodd" clip-rule="evenodd" d="M110.573 37.5468C110.582 38.2022 110.657 38.8464 110.857 39.4754C111.055 40.0971 111.392 40.7188 111.929 41.2119C112.709 41.908 113.619 42.1626 114.636 42.3448C115.657 42.5184 116.808 42.5713 118.06 42.5544C120.955 42.5145 124.397 42.0994 127.399 41.6972C127.605 41.6712 127.809 41.6418 128.009 41.6136C127.961 41.3989 127.908 41.1803 127.84 40.9599C127.609 40.1863 127.26 39.4278 126.884 38.8352C125.24 39.0577 123.533 39.2676 121.829 39.488C118.096 39.9945 114.723 40.0664 113.579 38.91C112.5 37.8178 113.258 34.1925 114.02 31.5348C113.512 31.1404 112.872 30.74 112.125 30.5088C112.105 30.5659 112.08 30.6257 112.058 30.6876C111.849 31.2474 111.616 31.905 111.402 32.618C110.957 34.1393 110.555 35.8878 110.573 37.5468Z" fill="#39B54A"/>
<path fill-rule="evenodd" clip-rule="evenodd" d="M98.0911 64.1296C99.1569 61.4585 100.949 57.2224 102.862 54.4305C103.549 53.4356 104.232 52.5841 104.99 51.9464C105.412 51.5992 105.864 51.2953 106.452 51.1312C106.792 51.0325 107.135 50.9874 107.464 50.9874C108.424 50.9922 109.128 51.2818 109.914 51.71C110.699 52.1425 111.429 52.6996 112.108 53.2949C113.463 54.488 116.036 57.857 116.036 57.857H116.039C116.039 57.857 113.476 54.3365 111.931 52.6689C111.153 51.8347 110.344 50.9476 109.521 50.3186C109.105 50.0064 108.691 49.7298 108.246 49.5116C107.8 49.3055 107.314 49.1363 106.736 49.1328C106.546 49.1328 106.341 49.1501 106.125 49.2081C105.369 49.4268 105.014 49.8328 104.629 50.2467C103.989 50.9922 103.4 52.0801 102.769 53.2754C101.025 56.6024 99.1309 61.4265 98.0915 64.1287L98.0911 64.1296Z" fill="#F49AC1"/>
<path fill-rule="evenodd" clip-rule="evenodd" d="M113.637 58.3993C114.315 58.3656 115.281 58.176 116.036 57.8569C116.036 57.8569 113.463 54.4879 112.107 53.2948C111.429 52.6995 110.698 52.1423 109.913 51.7098C109.127 51.2817 108.424 50.9921 107.464 50.9873C107.135 50.9873 106.792 51.0323 106.452 51.131C105.864 51.2955 105.412 51.599 104.99 51.9462C104.231 52.5839 103.549 53.4355 102.862 54.4303C100.949 57.2222 99.1571 61.4584 98.0908 64.1295C98.6601 64.3273 99.7628 64.5498 101.016 64.4927C101.11 64.2546 105.089 54.0143 107.762 53.5922C109.823 53.2666 113.034 57.5564 113.637 58.3993Z" fill="#EC008C"/>
<path fill-rule="evenodd" clip-rule="evenodd" d="M119.299 43.9236C123.694 42.8127 127.042 42.3884 128.099 42.2109C126.703 42.3793 121.463 43.1738 116.736 44.111C112.01 45.0518 109.679 46.0189 110.761 49.0476C111.773 51.8698 115.987 56.8428 116.55 57.4961C116.16 56.9857 114.078 54.1894 113.363 52.4919C110.861 47.1921 114.841 45.047 119.299 43.9236Z" fill="#74BDE9"/>
<path fill-rule="evenodd" clip-rule="evenodd" d="M128.095 44.5346C128.095 44.5346 128.349 43.3597 128.115 42.209C128.109 42.2103 128.104 42.2107 128.099 42.2111C127.042 42.3886 123.694 42.8129 119.299 43.9238C114.841 45.0476 110.861 47.1923 113.363 52.4926C114.078 54.1896 116.16 56.9859 116.55 57.4963C116.587 57.5409 116.613 57.5746 116.613 57.5746C116.613 57.5746 117.885 56.798 118.643 55.5538L118.688 55.4815C118.782 55.5979 115.302 50.9843 115.646 48.9578C116.025 46.7261 125.125 45.0199 128.095 44.5346Z" fill="#0094D9"/>
<path fill-rule="evenodd" clip-rule="evenodd" d="M94.9983 32.1593C95.0095 32.1732 95.0442 32.2169 95.0576 32.2338C95.8295 33.2061 97.1317 34.7902 98.8037 36.6561C99.8202 37.7838 100.815 38.8146 101.778 39.6038C102.264 39.9965 102.738 40.335 103.243 40.5939C104.515 41.2472 105.649 41.2493 106.835 40.2865C107.58 39.6662 108.102 38.8661 108.592 37.9626C109.314 36.6071 109.921 34.988 110.483 33.4044C110.809 32.4727 111.12 31.5545 111.415 30.7246C111.023 31.6835 110.612 32.7044 110.139 33.6992C109.431 35.1841 108.601 36.6253 107.359 37.7042C106.534 38.4224 105.484 38.9575 104.257 39.0821C104.151 39.0908 104.044 39.0951 103.936 39.0951C102.813 39.0821 101.847 38.618 100.913 38.0159C99.9803 37.4007 99.0669 36.5941 98.1564 35.6841C97.1412 34.6659 96.0546 33.4208 95.0602 32.232C95.0515 32.2225 95.0424 32.2121 95.0338 32.2022L94.9983 32.1593Z" fill="#E9EC9A"/>
<path fill-rule="evenodd" clip-rule="evenodd" d="M100.913 38.0161C101.848 38.6183 102.813 39.082 103.936 39.0954C104.044 39.0954 104.151 39.0911 104.257 39.082C105.484 38.9573 106.534 38.4226 107.359 37.704C108.601 36.6256 109.431 35.1839 110.139 33.699C110.613 32.7042 111.046 31.6929 111.415 30.7244C111.478 30.5591 111.496 30.5058 111.551 30.3461C111.484 30.3283 111.416 30.3127 111.346 30.2967C110.311 30.0738 109.326 30.0824 108.509 30.2742C107.987 31.5496 106.273 36.1753 103.93 36.5251C101.916 36.826 99.2534 33.7016 96.6001 30.553C95.9312 30.6915 95.0247 31.124 94.4692 31.518C94.5082 31.5613 94.4866 31.5409 94.5268 31.5872C95.6793 32.9947 96.9157 34.4398 98.1564 35.6844C99.0669 36.594 99.9803 37.4009 100.913 38.0161Z" fill="#D7DF23"/>
<path fill-rule="evenodd" clip-rule="evenodd" d="M101.306 41.6536C100.941 40.8111 100.441 40.0262 99.9285 39.2634C99.4466 38.5448 98.9341 37.8452 98.4072 37.1586C97.2794 35.6867 96.0846 34.2636 94.8443 32.8857C94.5551 32.5692 94.2607 32.2488 93.9659 31.9367C93.9576 31.928 93.9533 31.9233 93.9481 31.9189C95.2213 33.3173 97.3348 35.7598 98.8592 39.0245C99.2882 39.944 100.407 42.6138 98.4397 44.3542C96.4093 46.1512 92.3658 46.7266 88.5613 47.2816C90.3492 47.085 92.1376 46.8707 93.9169 46.6084C95.1967 46.4209 96.4768 46.2153 97.7344 45.9265C98.7825 45.6811 99.9462 45.3949 100.794 44.7044C101.24 44.3429 101.57 43.8342 101.63 43.255C101.685 42.6922 101.512 42.1627 101.306 41.6536Z" fill="#FDC689"/>
<path fill-rule="evenodd" clip-rule="evenodd" d="M92.1598 34.1884C94.1196 36.4469 94.9309 37.1829 96.3747 40.0869C97.4955 42.342 96.2669 42.9953 94.7374 43.6113C93.4442 44.1369 88.7574 44.8906 88.7574 44.8906L88.7549 44.891C88.5124 45.6093 88.4496 46.3586 88.5566 47.2821L88.5609 47.2816C92.3654 46.7262 96.4089 46.1508 98.4397 44.3538C100.406 42.6134 99.2882 39.9436 98.8588 39.0241C97.3345 35.7594 95.2214 33.3169 93.9477 31.9186C93.9395 31.909 93.9296 31.9004 93.9296 31.9004C93.5763 32.1584 93.2728 32.5199 92.8455 33.055C92.4624 33.5338 92.1922 34.0438 92.1611 34.1884" fill="#F7931E"/>
<path fill-rule="evenodd" clip-rule="evenodd" d="M101.221 48.1741C100.651 47.5983 99.8519 47.3399 99.0722 47.21C98.3138 47.0896 97.5384 47.0762 96.7717 47.0853C94.0577 47.1303 91.3541 47.4888 88.6648 47.8542L88.6479 47.8568C90.9641 47.5689 92.7308 47.4464 94.0954 47.4464C95.5517 47.449 96.5799 47.5801 97.409 47.8607C97.4683 47.8797 97.5259 47.8996 97.5826 47.92C97.6142 47.9308 97.6445 47.9425 97.6752 47.9537C97.6908 47.9598 97.7059 47.9654 97.7207 47.9715C99.7104 48.7378 100.25 50.3534 100.281 52.3167C100.272 54.2168 99.7679 56.5979 99.1216 59.0014C98.6484 60.7491 98.0943 62.4921 97.5865 63.9653C98.2692 62.176 98.9826 60.3967 99.6294 58.5958C100.315 56.678 100.981 54.7567 101.458 52.7717C101.665 51.9106 101.844 51.0322 101.857 50.1447C101.868 49.443 101.726 48.6958 101.221 48.1741Z" fill="#F69679"/>
<path fill-rule="evenodd" clip-rule="evenodd" d="M100.281 52.3166C100.25 50.3534 99.7101 48.7377 97.7204 47.9714C97.7057 47.9658 97.6905 47.9597 97.675 47.9537C97.6447 47.9424 97.6139 47.9312 97.5828 47.9199C97.5256 47.8996 97.468 47.8796 97.4087 47.861C96.5797 47.5805 95.5519 47.4489 94.0951 47.4463C92.7306 47.4463 90.9638 47.5688 88.6477 47.8567C88.8815 49.3078 89.4763 50.2538 89.7287 50.5928C91.6072 50.3767 93.0341 50.2919 94.0951 50.2919C98.1109 50.2746 98.2174 51.4348 98.0066 54.5934C97.8312 57.2134 96.0619 61.7972 95.5982 62.7648C95.5982 62.7648 95.9368 63.0903 96.3654 63.3566C96.9221 63.7029 97.5187 63.9406 97.5815 63.9635C97.5841 63.9644 97.5862 63.9652 97.5862 63.9652C98.0945 62.492 98.6482 60.7491 99.1214 59.0014C99.7677 56.5978 100.272 54.2167 100.281 52.3166Z" fill="#ED1C24"/>
<path fill-rule="evenodd" clip-rule="evenodd" d="M155.946 52.9136L155.943 55.5981H154.381L154.386 52.6153C154.392 52.324 154.376 52.0638 154.331 51.8469C154.246 51.4235 154.001 51.1629 153.429 51.1629C153.194 51.1629 152.943 51.2062 152.681 51.3057L152.677 55.5981H151.107V50.4512C151.855 50.1988 152.656 49.9775 153.584 49.9775C154.888 49.9775 155.655 50.7468 155.871 51.8066C155.92 52.0577 155.943 52.4344 155.946 52.9136Z" fill="#0094D9"/>
<path fill-rule="evenodd" clip-rule="evenodd" d="M194.5 52.9136L194.499 55.5981H192.934L192.939 52.6153C192.943 52.324 192.934 52.0638 192.888 51.8469C192.803 51.4235 192.552 51.1629 191.986 51.1629C191.745 51.1629 191.496 51.2062 191.236 51.3057L191.228 55.5981H189.659L189.662 50.4512C190.406 50.1988 191.211 49.9775 192.139 49.9775C193.44 49.9775 194.212 50.7468 194.422 51.8066C194.473 52.0577 194.499 52.4344 194.5 52.9136Z" fill="#0094D9"/>
<path fill-rule="evenodd" clip-rule="evenodd" d="M148.226 51.1462C147.555 51.1462 146.84 51.9982 147.071 53.3671C147.211 54.1992 147.683 54.4698 147.989 54.4698C148.24 54.4698 148.449 54.3849 148.63 54.2239L148.625 51.1705C148.52 51.1601 148.36 51.1462 148.226 51.1462ZM150.21 55.598H149.021C149.021 55.598 148.921 55.4313 148.866 55.2217C148.751 55.3127 148.39 55.6655 147.672 55.6655C146.685 55.6655 145.76 54.7503 145.507 53.5078C145.035 51.1683 146.731 49.9873 148.36 49.9873C149.011 49.9873 149.788 50.1527 150.204 50.2739L150.21 55.598Z" fill="#0094D9"/>
<path fill-rule="evenodd" clip-rule="evenodd" d="M170.08 51.1462C169.408 51.1462 168.692 51.9982 168.927 53.3671C169.062 54.1992 169.538 54.4698 169.843 54.4698C170.089 54.4698 170.305 54.3849 170.486 54.2239L170.478 51.1705C170.371 51.1601 170.215 51.1462 170.08 51.1462ZM172.06 55.598H170.872C170.872 55.598 170.772 55.4313 170.723 55.2217C170.602 55.3127 170.24 55.6655 169.529 55.6655C168.538 55.6655 167.612 54.7503 167.36 53.5078C166.886 51.1683 168.58 49.9873 170.215 49.9873C170.866 49.9873 171.645 50.167 172.06 50.2882V55.598Z" fill="#0094D9"/>
<path fill-rule="evenodd" clip-rule="evenodd" d="M197.942 51.1462C197.27 51.1462 196.558 51.9982 196.789 53.3671C196.93 54.1992 197.401 54.4698 197.712 54.4698C197.957 54.4698 198.168 54.3849 198.349 54.2239L198.345 51.1705C198.238 51.1601 198.078 51.1462 197.942 51.1462ZM199.925 55.598H198.735C198.735 55.598 198.639 55.4313 198.583 55.2217C198.464 55.3127 198.105 55.6655 197.392 55.6655C196.401 55.6655 195.476 54.7503 195.225 53.5078C194.749 51.1683 196.445 49.9873 198.078 49.9873C198.725 49.9873 199.506 50.1527 199.923 50.2739L199.925 55.598Z" fill="#0094D9"/>
<path fill-rule="evenodd" clip-rule="evenodd" d="M181.071 52.9201L181.075 55.5977H179.507V52.6244C179.51 52.3287 179.507 52.0634 179.467 51.8434C179.381 51.4412 179.14 51.1603 178.552 51.1603C178.313 51.1603 177.894 51.236 177.636 51.388C177.652 51.4218 177.815 51.9348 177.815 52.569L177.819 55.5977H176.237L176.239 52.6149C176.243 52.3084 176.227 52.0413 176.182 51.8226C176.101 51.4114 175.851 51.1603 175.294 51.1603C175.049 51.1603 174.808 51.2062 174.547 51.304L174.543 55.5977H172.973V50.4442C173.607 50.213 174.543 49.9775 175.45 49.9775C176.036 49.9775 176.513 50.1278 176.879 50.3979C177.341 50.1706 177.972 49.9775 178.709 49.9775C180.007 49.9775 180.774 50.7464 180.99 51.8066C181.04 52.069 181.075 52.4491 181.071 52.9201Z" fill="#0094D9"/>
<path fill-rule="evenodd" clip-rule="evenodd" d="M184.961 53.3675C184.735 54.8763 183.528 54.5499 183.385 54.4403V51.1705C183.493 51.1558 183.67 51.1432 183.803 51.1432C184.475 51.1432 185.172 51.9883 184.961 53.3675ZM183.673 49.9873C183.021 49.9873 182.244 50.1077 181.828 50.2232V58.16H183.398L183.385 55.4923C183.548 55.5529 183.989 55.6659 184.264 55.6659C185.475 55.6659 186.255 54.794 186.483 53.6628C187.002 51.0735 185.252 49.9873 183.673 49.9873Z" fill="#0094D9"/>
<path fill-rule="evenodd" clip-rule="evenodd" d="M142.403 53.8327C142.257 53.1305 141.736 52.685 141.165 52.3716C140.563 52.0382 140.178 51.8577 140.127 51.6213C140.087 51.4114 140.191 51.0404 140.648 51.03C141.072 51.02 141.365 51.1352 141.916 51.4417V50.2836C141.304 50.0516 140.942 49.9775 140.468 49.9775C139.42 49.9775 138.548 50.559 138.778 51.7027C138.908 52.3495 139.279 52.7054 139.756 53.021C140.282 53.3556 140.871 53.6526 140.95 54.044C141.01 54.3444 140.831 54.7505 140.142 54.7505C139.721 54.7505 139.264 54.5003 138.883 54.299V55.5029C139.279 55.6527 139.735 55.7601 140.292 55.7601C141.676 55.7601 142.674 55.1769 142.403 53.8327Z" fill="#0094D9"/>
<path fill-rule="evenodd" clip-rule="evenodd" d="M131.001 50.0557C129.707 50.0557 128.965 50.3146 128.334 50.5293L128.349 55.5983H129.918L129.909 51.3518C130.169 51.2514 130.607 51.2103 130.846 51.2103C130.931 51.2103 131.006 51.2207 131.081 51.231V50.0574C131.051 50.0574 131.026 50.0557 131.001 50.0557Z" fill="#0094D9"/>
<path fill-rule="evenodd" clip-rule="evenodd" d="M133.242 55.5986H131.708L131.718 50.0732C131.718 50.0732 131.918 50.0126 132.48 50.0083C133.117 50.0014 133.252 50.0732 133.252 50.0732L133.242 55.5986Z" fill="#0094D9"/>
<path fill-rule="evenodd" clip-rule="evenodd" d="M145.18 54.3798C145.131 54.3898 145.07 54.3898 144.995 54.3898C144.676 54.3898 144.524 54.2404 144.524 53.7179V48.3081C144.524 48.3081 144.383 48.2328 143.737 48.2375C143.16 48.2431 142.96 48.3081 142.96 48.3081H142.955V53.7858C142.955 55.4885 143.933 55.769 144.594 55.769C144.99 55.769 145.266 55.7136 145.511 55.6383L145.18 54.3798Z" fill="#0094D9"/>
<path fill-rule="evenodd" clip-rule="evenodd" d="M188.741 55.5986H187.207L187.217 50.1681C187.217 50.1681 187.423 50.0581 187.982 50.056C188.617 50.049 188.752 50.1681 188.752 50.1681L188.741 55.5986Z" fill="#0094D9"/>
<path fill-rule="evenodd" clip-rule="evenodd" d="M166.8 54.2636C166.495 54.3588 166.08 54.4801 165.693 54.4801C164.605 54.4801 164.198 53.3969 164.198 52.028C164.198 50.7388 164.515 49.5603 165.632 49.5603C165.964 49.5603 166.395 49.6262 166.751 49.9677L167.548 48.914C167.129 48.4945 166.555 48.2529 165.632 48.2529C163.905 48.2529 162.494 49.3785 162.494 52.028C162.494 54.7346 163.782 55.8083 165.66 55.8083C166.179 55.8083 167.016 55.6377 167.418 55.4775L166.8 54.2636Z" fill="#0094D9"/>
<path fill-rule="evenodd" clip-rule="evenodd" d="M159.184 54.53C158.864 54.53 158.412 54.2594 158.268 53.4174C158.122 52.5503 158.328 51.6693 158.874 51.2662C159.214 51.0338 159.601 51.1017 159.892 51.187L159.897 54.2452C159.696 54.4305 159.436 54.53 159.184 54.53ZM160.665 48.2375C160.093 48.2436 159.892 48.3081 159.892 48.3081L159.897 50.0285C159.771 50.0177 159.601 49.9783 159.47 49.9783C157.866 49.9783 156.201 51.0056 156.722 53.5733C156.979 54.8309 157.896 55.7413 158.994 55.7413C159.385 55.7413 159.786 55.5534 160.127 55.2928L160.278 55.5985H161.476V48.3081C161.476 48.3081 161.313 48.2328 160.665 48.2375Z" fill="#0094D9"/>
<path fill-rule="evenodd" clip-rule="evenodd" d="M136.313 51.0499C136.321 51.0477 136.326 51.0499 136.326 51.0499H136.332C136.737 51.0183 137.074 51.4915 137.098 52.188L137.091 52.514H135.379C135.379 52.514 135.252 51.1105 136.313 51.0499ZM136.833 53.4552C137.139 53.4552 137.57 53.447 137.841 53.4279L138.188 53.4119C138.188 53.392 138.299 52.9205 138.289 52.3859C138.261 50.5139 137.359 50.0078 136.242 49.9775H136.236H136.226C134.847 49.9975 133.84 50.8274 133.844 52.8456V52.8703C133.899 54.9566 134.827 55.7436 136.307 55.7726C136.321 55.7726 136.321 55.7782 136.321 55.7782C136.673 55.7782 137.359 55.7181 138.039 55.3778V54.2245C137.404 54.5094 137.113 54.6596 136.462 54.6249C135.229 54.5609 135.349 53.4552 135.349 53.4552H136.833Z" fill="#0094D9"/>
<path fill-rule="evenodd" clip-rule="evenodd" d="M125.386 49.5859C125.616 49.3954 126.158 49.3201 126.675 49.3201C127.862 49.3201 128.314 49.5768 128.314 49.5768L128.66 48.398C128.66 48.398 127.762 47.9326 125.948 48.0949C124.248 48.2473 123.721 48.6971 123.721 48.6971V55.6377H125.381L125.386 52.5402H126.772H127.782V51.2565H126.772H125.386V50.2314V49.5859Z" fill="#0094D9"/>
<path fill-rule="evenodd" clip-rule="evenodd" d="M207.379 48.9952C207.379 49.4454 207.012 49.8061 206.566 49.8061C206.115 49.8061 205.754 49.4454 205.754 48.9952C205.754 48.5484 206.115 48.1826 206.566 48.1826C207.012 48.1826 207.379 48.5484 207.379 48.9952Z" fill="#0094D9"/>
<path fill-rule="evenodd" clip-rule="evenodd" d="M211.224 51.2958C211.224 50.7802 211.024 50.4287 210.731 50.2335C210.438 50.043 210.076 50.001 209.74 50.001C209.608 50.001 209.48 50.0079 209.359 50.0174C208.697 50.0702 208.106 50.2235 207.835 50.333V54.0345H209.038V51.2569C209.274 51.2106 209.464 51.1867 209.605 51.1867C209.77 51.1867 209.871 51.2183 209.911 51.2569C209.956 51.2915 209.981 51.3409 209.986 51.4716C209.986 51.585 209.956 51.7469 209.892 51.9534C209.806 52.2387 209.695 52.5552 209.585 52.8505V54.0345H210.417C210.427 54.0033 211.034 52.4392 211.134 51.9829C211.194 51.727 211.224 51.4997 211.224 51.2958Z" fill="#0094D9"/>
<path fill-rule="evenodd" clip-rule="evenodd" d="M202.937 55.5929H210.192V55.4427V54.54H202.937V55.5929Z" fill="#0094D9"/>
<path fill-rule="evenodd" clip-rule="evenodd" d="M207.218 50.3564C207.218 50.3564 207.067 50.3145 206.566 50.3145C206.184 50.3145 205.91 50.3564 205.91 50.3564V54.0345H207.218V50.3564Z" fill="#0094D9"/>
<path fill-rule="evenodd" clip-rule="evenodd" d="M203.548 52.8505C203.437 52.5548 203.328 52.2383 203.237 51.953C203.177 51.7469 203.147 51.585 203.147 51.4712C203.149 51.3409 203.177 51.2911 203.216 51.2564C203.262 51.2183 203.362 51.1863 203.528 51.1863C203.668 51.1863 203.859 51.2101 204.089 51.2564V54.0341H205.298V50.333C205.027 50.2235 204.436 50.0702 203.774 50.0174C203.653 50.0079 203.523 50.001 203.393 50.001C203.057 50.001 202.695 50.043 202.4 50.2335C202.104 50.4287 201.908 50.7798 201.908 51.2958C201.908 51.4997 201.938 51.7266 201.998 51.9829C202.099 52.4392 202.705 54.0033 202.716 54.0341H203.548V52.8505Z" fill="#0094D9"/>
<path fill-rule="evenodd" clip-rule="evenodd" d="M145.558 62.6811C145.739 62.7075 145.835 62.8582 145.796 63.0703C145.757 63.2824 145.702 64.3479 145.949 65.0003C146.334 64.1444 146.726 63.3946 146.929 63.1049C147.13 62.8175 147.362 62.5253 147.677 62.5902C147.998 62.656 148.123 62.9236 148.179 63.2517C148.235 63.5807 148.33 65.1929 148.343 65.596C148.352 65.851 148.391 65.9678 148.533 66.1064C148.608 66.1787 148.631 66.3397 148.494 66.4306C148.334 66.5367 148.088 66.4432 147.988 66.2661C147.889 66.0891 147.858 65.9198 147.842 65.6393C147.817 65.17 147.786 64.2206 147.639 63.6457C147.595 63.4768 147.527 63.3959 147.461 63.3907C147.394 63.385 147.321 63.4781 147.227 63.624C146.959 64.0392 146.553 64.8907 146.41 65.2414C146.307 65.4938 146.202 65.7384 145.921 65.7384C145.64 65.7384 145.479 65.5232 145.377 65.1808C145.186 64.5448 145.026 63.7794 145.182 62.9539C145.225 62.7222 145.406 62.659 145.558 62.6811Z" fill="#0094D9"/>
<path fill-rule="evenodd" clip-rule="evenodd" d="M149.001 63.8968C148.725 64.7803 148.805 65.7657 149.632 66.0462C150.523 66.3488 151.319 65.7051 151.626 64.8829C152.022 63.8232 151.583 63.0192 150.899 62.8547C150.699 62.8062 150.618 62.9517 150.598 63.0357C150.576 63.1197 150.638 63.208 150.803 63.2708C151.101 63.3837 151.399 63.837 151.122 64.6674C150.845 65.4981 150.229 65.7596 149.851 65.6129C149.488 65.4713 149.369 64.8267 149.573 64.1561C149.819 63.3526 150.144 63.0106 150.459 62.901C150.716 62.8127 150.797 62.482 150.557 62.4266C150.415 62.3932 150.214 62.4175 149.999 62.5478C149.647 62.7612 149.233 63.1556 149.001 63.8968Z" fill="#0094D9"/>
<path fill-rule="evenodd" clip-rule="evenodd" d="M152.265 62.5006C151.908 62.5292 151.964 62.8283 152.023 63.0686C152.242 63.9583 152.67 65.435 153.427 65.5618C153.943 65.648 154.336 64.6189 154.608 63.989C154.64 64.5756 154.708 65.2839 154.777 65.6467C154.804 65.7878 154.85 65.9146 154.967 65.9532C155.117 66.0038 155.364 66.0255 155.306 65.6796C155.248 65.3332 155.162 64.6414 155.149 64.1908C155.142 63.9245 155.16 63.4924 155.184 63.0362C155.197 62.7699 155.148 62.5448 154.947 62.527C154.685 62.5037 154.601 62.7483 154.536 63.0162C154.294 63.7275 153.825 64.4847 153.655 64.7263C153.405 65.0813 153.333 65.0254 153.178 64.6873C153.074 64.4587 152.721 63.5089 152.676 62.9513C152.643 62.5461 152.428 62.4876 152.265 62.5006Z" fill="#0094D9"/>
<path fill-rule="evenodd" clip-rule="evenodd" d="M156.277 62.3475C156.063 62.3475 156.016 62.483 156.042 62.7151C156.068 62.9463 156.251 64.3792 156.295 64.8775C156.339 65.3758 156.4 65.5421 156.457 65.6377C156.513 65.7338 156.61 65.8079 156.767 65.8256C156.924 65.8429 157.032 65.7906 157.046 65.5503C157.073 65.1351 157.193 64.581 157.409 63.9338C157.619 63.3047 157.849 63.0051 158.008 63.0116C158.209 63.0207 158.178 63.1471 158.144 63.3091C158.122 63.4073 158.117 63.4783 158.274 63.4749C158.418 63.4718 158.561 63.3666 158.668 63.0774C158.799 62.7233 158.768 62.3384 158.432 62.2648C158.068 62.1843 157.698 62.3826 157.448 62.7536C157.2 63.1255 156.937 63.8069 156.815 64.5234C156.706 63.8723 156.728 63.0073 156.606 62.6229C156.558 62.4744 156.492 62.3475 156.277 62.3475Z" fill="#0094D9"/>
<path fill-rule="evenodd" clip-rule="evenodd" d="M159.845 62.6039C159.552 62.5801 159.437 62.7402 159.443 63.0766C159.45 63.5143 159.489 64.6702 159.735 65.3269C159.872 65.6936 160.107 65.7525 160.329 65.698C160.521 65.6512 160.465 65.5144 160.388 65.4053C160.267 65.233 160.2 64.9356 160.157 64.3464C160.111 63.6979 160.134 63.1862 160.142 62.9745C160.15 62.7641 160.086 62.6234 159.845 62.6039Z" fill="#0094D9"/>
<path fill-rule="evenodd" clip-rule="evenodd" d="M159.524 61.2664C159.475 61.4768 159.706 61.5447 159.889 61.5313C160.062 61.5179 160.219 61.4612 160.236 61.3508C160.252 61.2408 160.103 61.0863 159.887 61.072C159.637 61.056 159.549 61.1573 159.524 61.2664Z" fill="#0094D9"/>
<path fill-rule="evenodd" clip-rule="evenodd" d="M161.732 61.6825C161.064 61.7084 160.766 62.0266 160.766 62.4028C160.766 62.779 161.058 63.1488 161.668 63.7064C162.277 64.2644 162.738 64.6142 162.693 65.0947C162.647 65.5748 162.103 66.1589 161.603 66.1589C161.304 66.1589 161.155 65.9251 161.064 65.7887C160.973 65.6528 160.799 65.6978 160.805 65.8731C160.815 66.1394 160.935 66.2948 161.058 66.4247C161.215 66.5896 161.554 66.6849 162.031 66.5087C162.453 66.3532 163.276 65.7562 163.276 64.9913C163.276 64.5367 162.971 64.1735 162.368 63.6159C162.054 63.325 161.63 62.9293 161.48 62.7076C161.33 62.4868 161.385 62.2565 161.59 62.195C161.869 62.1102 162.187 62.2011 162.277 62.4998C162.337 62.6959 162.436 62.7656 162.647 62.7202C162.829 62.6816 162.956 62.4305 162.803 62.1427C162.647 61.8513 162.305 61.6599 161.732 61.6825Z" fill="#0094D9"/>
<path fill-rule="evenodd" clip-rule="evenodd" d="M164.155 60.5537C164.397 60.5537 164.561 60.7944 164.509 61.0723C164.336 61.9888 164.203 63.2655 164.343 64.6292C164.942 63.2785 165.311 62.7534 165.798 62.8114C166.347 62.8768 166.756 64.0612 166.504 66.28C166.483 66.4743 166.39 66.5826 166.233 66.5826C166.112 66.5826 165.986 66.5059 165.994 66.2713C166.03 65.1444 166.053 64.4838 165.849 63.7556C165.752 63.4097 165.557 63.4383 165.383 63.6742C165.154 63.9846 164.87 64.5167 164.561 65.2418C164.458 65.4838 164.302 65.4981 164.206 65.4925C164.059 65.4838 163.947 65.4063 163.895 65.1037C163.823 64.6838 163.71 62.478 163.895 60.9949C163.929 60.7178 163.973 60.5537 164.155 60.5537Z" fill="#0094D9"/>
<path fill-rule="evenodd" clip-rule="evenodd" d="M167.562 62.7477C167.334 62.7183 167.237 62.8274 167.215 63.1759C167.156 64.1062 167.274 65.4505 167.422 65.9449C167.54 66.3397 167.783 66.3773 167.939 66.3284C168.057 66.2921 168.087 66.196 168.027 66.0626C167.82 65.5942 167.828 64.4976 167.909 63.2499C167.933 62.8932 167.725 62.769 167.562 62.7477Z" fill="#0094D9"/>
<path fill-rule="evenodd" clip-rule="evenodd" d="M168.028 61.3162C167.74 61.2236 167.622 61.3305 167.592 61.4561C167.557 61.605 167.695 61.737 167.879 61.7812C168.065 61.8258 168.279 61.818 168.323 61.6929C168.367 61.5673 168.234 61.382 168.028 61.3162Z" fill="#0094D9"/>
<path fill-rule="evenodd" clip-rule="evenodd" d="M169.132 62.9834C168.886 62.9107 168.773 62.9644 168.747 63.2107C168.687 63.8038 168.732 64.706 168.82 65.2333C168.857 65.4597 168.94 65.5571 169.132 65.6775C169.324 65.797 169.596 65.8294 169.738 65.6649C169.919 65.4532 170.433 64.3839 170.927 63.67C171.065 63.4691 171.199 63.486 171.214 63.7029C171.262 64.4662 171.236 65.1982 171.171 66.0732C171.142 66.4663 171.327 66.6009 171.412 66.6489C171.496 66.697 171.603 66.7208 171.687 66.6425C171.771 66.565 171.825 66.5165 171.741 66.397C171.658 66.2771 171.651 65.839 171.669 65.4909C171.687 65.1428 171.816 64.2025 171.816 63.6566C171.816 63.112 171.813 62.8094 171.471 62.7795C171.129 62.7492 170.91 62.9393 170.609 63.3185C170.278 63.7358 169.723 64.7458 169.48 64.9861C169.392 65.0735 169.37 65.0536 169.354 64.9575C169.303 64.6623 169.287 63.6311 169.354 63.3432C169.42 63.0553 169.294 63.031 169.132 62.9834Z" fill="#0094D9"/>
<path fill-rule="evenodd" clip-rule="evenodd" d="M174.856 62.8699C174.856 63.0967 174.741 63.0196 174.441 63.1145C173.717 63.3443 172.657 64.1279 173.046 64.9847C173.402 65.7657 173.889 65.4306 174.343 64.9068C174.596 64.6145 174.707 64.4916 174.752 64.4137C174.798 64.3362 174.824 64.2327 174.817 64.1349C174.804 63.9535 174.854 63.8024 175.057 63.8093C175.29 63.8171 175.44 63.8751 175.46 64.1279C175.479 64.3816 175.537 64.9652 175.608 65.86C175.68 66.7562 176.16 69.0714 175.161 69.6749C174.748 69.9239 174.343 69.8282 174.246 69.7048C174.149 69.5814 174.199 69.4455 174.357 69.4866C174.655 69.5645 174.915 69.449 175.083 69.039C175.27 68.5822 175.29 68.0792 175.226 67.3657C175.161 66.6519 175.027 65.4371 174.973 64.9392C174.596 65.5163 174.22 65.815 173.623 65.815C172.852 65.815 172.398 65.2245 172.398 64.602C172.398 63.9794 173.26 62.9283 174.051 62.7525C174.642 62.6227 174.856 62.7859 174.856 62.8699Z" fill="#0094D9"/>
<path fill-rule="evenodd" clip-rule="evenodd" d="M178.238 60.6216C178.212 60.3563 178.315 60.2021 178.515 60.2021C178.713 60.2021 178.884 60.3403 178.901 60.5558C179.022 62.091 179.092 62.9854 179.324 64.1668C179.739 63.4547 180.358 62.7694 181.203 62.633C181.374 62.6053 181.794 62.6871 181.921 62.8079C182.247 63.1166 182.28 63.9919 181.974 64.7114C181.733 65.2768 181.359 65.8124 180.74 65.899C180.438 65.9409 180.325 65.8318 180.257 65.708C180.183 65.5734 180.25 65.4743 180.37 65.5245C180.542 65.5972 180.752 65.6158 180.984 65.4119C181.405 65.0418 181.709 64.1322 181.501 63.272C181.446 63.0417 181.308 63.0287 181.039 63.1486C180.807 63.2516 179.882 63.7305 179.48 65.0998C179.412 65.3327 179.304 65.4318 179.092 65.4318C178.88 65.4318 178.807 65.2721 178.845 65.0773C178.885 64.8829 178.827 64.4114 178.762 63.9919C178.697 63.572 178.34 61.6823 178.238 60.6216Z" fill="#0094D9"/>
<path fill-rule="evenodd" clip-rule="evenodd" d="M182.902 63.278C182.666 63.2226 182.628 63.5183 182.654 63.8746C182.679 64.2318 182.88 65.1916 183.004 65.4253C183.128 65.6587 183.207 65.7262 183.452 65.8275C183.605 65.8907 183.916 65.9669 184.152 65.6522C184.378 65.35 184.814 64.6677 185.119 63.9655C184.883 65.1448 184.679 65.9418 184.549 66.6059C184.413 67.2925 184.355 67.9432 184.49 69.045C184.522 69.3108 184.528 69.3762 184.502 69.5121C184.477 69.648 184.587 69.7199 184.71 69.7519C184.834 69.7844 184.904 69.7632 184.964 69.5056C184.995 69.3632 184.915 69.1316 184.872 68.7272C184.827 68.3056 184.722 67.7692 184.95 66.7029C185.19 65.5812 185.638 64.3352 185.689 63.5504C185.742 62.765 185.553 62.72 185.372 62.7005C185.19 62.6811 185.067 62.7789 184.95 63.2651C184.684 63.9725 184.301 64.611 183.976 65.0781C183.674 65.5141 183.481 65.4937 183.374 65.0232C183.276 64.595 183.192 64.037 183.173 63.7322C183.153 63.4274 183.043 63.311 182.902 63.278Z" fill="#0094D9"/>
<path fill-rule="evenodd" clip-rule="evenodd" d="M188.513 62.6946C188.762 62.7548 188.779 63.0033 188.761 63.3868C188.756 63.8999 188.799 64.596 188.863 65.0744C189.312 64.1514 189.944 63.0838 190.226 62.7868C190.336 62.6708 190.48 62.6249 190.78 62.7059C191.207 62.8215 191.299 62.908 191.316 63.1388C191.339 63.4509 191.356 64.3497 191.397 65.0129C191.438 65.677 191.495 66.0108 191.559 66.3857C191.614 66.7134 191.541 66.8203 191.287 66.761C191.007 66.6948 190.931 66.655 190.903 66.2935C190.874 65.9073 190.812 64.0016 190.672 63.3349C190.63 63.1306 190.578 63.1271 190.428 63.3171C190.278 63.5081 189.589 64.3302 189.119 65.8783C189.078 66.0108 188.923 66.1194 188.675 66.0108C188.45 65.9134 188.438 65.89 188.369 65.5783C188.325 65.3804 188.207 63.9622 188.236 63.1267C188.248 62.8033 188.324 62.6492 188.513 62.6946Z" fill="#0094D9"/>
<path fill-rule="evenodd" clip-rule="evenodd" d="M194.06 63.0544C192.955 63.4821 192.175 64.4874 192.385 64.8748C192.56 65.1982 193.74 64.6562 194.184 64.2557C194.184 63.8596 194.168 63.5254 194.461 63.58C194.754 63.6341 194.764 63.731 194.819 63.8345C194.797 64.3224 194.851 65.7099 195.041 66.3056C195.035 66.5931 194.756 66.6935 194.575 66.3645C194.369 65.9909 194.286 65.2515 194.243 64.8428C193.479 65.3627 192.461 65.7584 192.033 65.2545C191.605 64.7506 191.8 64.0077 192.51 63.3358C193.22 62.6643 193.669 62.6262 193.876 62.6423C194.082 62.6583 194.255 62.821 194.06 63.0544Z" fill="#0094D9"/>
<path fill-rule="evenodd" clip-rule="evenodd" d="M195.927 60.4327C195.701 60.389 195.517 60.4799 195.537 60.9288C195.557 61.3778 195.872 65.042 195.98 65.7581C196.034 66.1126 196.127 66.4139 196.341 66.4139C196.61 66.4139 196.951 65.9719 196.951 65.3489C196.951 64.9307 196.63 65.1416 196.496 65.2355C196.309 63.9762 196.215 62.067 196.215 61.3102C196.215 60.6002 196.167 60.4799 195.927 60.4327Z" fill="#0094D9"/>
<path fill-rule="evenodd" clip-rule="evenodd" d="M195.19 62.087C194.887 62.0783 194.815 62.2346 194.882 62.4091C194.949 62.5827 195.19 62.6632 195.471 62.6498C195.753 62.6368 196.342 62.5493 196.818 62.4359C197.293 62.3216 197.923 62.2411 198.204 62.2013C198.485 62.1606 198.651 62.0675 198.552 61.9467C198.492 61.8731 198.392 61.7861 198.318 61.7324C197.541 61.7922 196.731 61.8731 196.061 61.9796C195.764 62.0272 195.425 62.0939 195.19 62.087Z" fill="#0094D9"/>
<path fill-rule="evenodd" clip-rule="evenodd" d="M197.759 62.8834C197.389 62.8834 197.39 63.0765 197.406 63.3661C197.422 63.6562 197.608 64.8865 198.003 65.4982C198.398 66.1095 198.963 66.0814 199.36 65.6108C199.559 65.3735 199.753 65.0809 199.89 64.7839C199.962 65.4194 200.061 65.8779 200.199 66.1108C200.335 66.3446 200.649 66.3087 200.697 65.9822C200.722 65.8212 200.601 65.7086 200.561 65.6524C200.416 64.8393 200.351 64.3887 200.464 63.3341C200.518 62.8314 200.44 62.7007 200.274 62.6617C200.011 62.6003 199.945 62.9245 199.916 63.46C199.644 64.4722 199.28 65.0173 198.949 65.3251C198.75 65.5104 198.578 65.5264 198.424 65.2082C198.271 64.8913 198.145 64.2081 198.074 63.6159C198.008 63.0773 198.033 62.8834 197.759 62.8834Z" fill="#0094D9"/>
<path fill-rule="evenodd" clip-rule="evenodd" d="M201.965 65.9998C201.619 64.8738 201.475 63.5625 201.458 62.7625C201.455 62.6213 201.553 62.5482 201.667 62.5434C201.782 62.5382 201.912 62.5482 201.959 62.7469C202.006 62.9452 202.09 63.4309 202.148 63.7963C202.372 63.1911 202.675 62.5482 203.463 62.5018C203.837 62.4789 204.037 62.5889 204.037 63.0867C204.037 63.5456 203.865 63.9846 203.484 63.9114C203.367 63.8889 203.372 63.7885 203.406 63.6919C203.437 63.6032 203.589 63.0395 203.311 62.9872C203.035 62.9352 202.612 63.5196 202.44 64.4548C202.396 64.8184 202.392 65.0492 202.493 65.8068C202.545 66.2072 202.511 66.2566 202.315 66.2449C202.158 66.2362 202.024 66.1925 201.965 65.9998Z" fill="#0094D9"/>
<path fill-rule="evenodd" clip-rule="evenodd" d="M206.817 63.0499C206.247 62.5901 205.454 62.9226 204.867 63.5032C204.202 64.1616 204.092 64.9993 204.456 65.5829C204.866 66.2405 205.836 66.4068 206.631 66.1176C206.782 66.063 206.939 65.7855 206.892 65.6924C206.83 65.5686 206.691 65.621 206.528 65.6782C205.741 65.9539 205.048 65.6963 204.886 65.1465C204.712 64.5534 204.902 64.2279 205.294 63.8071C205.549 63.5335 206.21 63.1122 206.439 63.3248C206.625 63.4958 206.453 63.9144 205.931 64.1759C205.41 64.4365 204.778 64.6218 204.078 64.4296C203.845 64.5253 203.913 64.6768 203.996 64.8205C204.078 64.9647 204.517 65.0747 205.19 64.9855C205.917 64.8894 206.837 64.4019 207.029 63.9144C207.179 63.5356 207.043 63.233 206.817 63.0499Z" fill="#0094D9"/>
</g>
<defs>
<clipPath id="clip0_291_3933">
<rect width="123.043" height="40" fill="white" transform="translate(88.4783 30)"/>
</clipPath>
</defs>
</svg>
