<svg width="300" height="100" viewBox="0 0 300 100" fill="none" xmlns="http://www.w3.org/2000/svg">
<rect width="300" height="100" fill="white"/>
<g clip-path="url(#clip0_297_9000)">
<path d="M74.4929 47.024V54.8344C74.4929 57.8676 72.0284 60.332 68.9953 60.332V47.0619H66.7583V44.6353C66.7583 43.4221 67.7441 42.4742 68.9194 42.4742V39.1756C68.9194 36.9387 69.0711 35.0808 70.5119 33.2609C71.9526 31.441 74.0758 30.4932 76.3507 30.4932C77.2986 30.4932 78.0569 30.6448 78.9289 31.0619V35.3083C78.9289 35.3083 77.6398 35.3083 76.8436 35.3083C74.9479 35.3083 74.6066 36.3699 74.455 38.2278C74.3792 39.5169 74.455 40.8818 74.455 41.1472C74.455 42.2467 74.455 42.4742 74.455 42.4742H78.9289V42.588C78.9289 45.0524 76.9194 47.024 74.4929 47.024Z" fill="#16181C"/>
<path d="M90.038 47.0619C87.0048 47.1756 85.7915 49.8676 85.7915 52.7491V60.37H80.256V42.4742H85.7915V45.2041H85.8294C87.0048 43.1946 88.8247 42.1709 91.2133 42.1709H92.6541V47.6306C91.7821 47.0998 90.91 46.9482 90.038 47.0619Z" fill="#16181C"/>
<path d="M94.3981 60.3703V42.4746H99.8957V54.8348C99.8957 57.9059 97.4312 60.3703 94.3981 60.3703Z" fill="#16181C"/>
<path d="M120.408 66.5498C118.663 68.6351 116.009 69.5451 112.597 69.5451C108.313 69.5451 103.194 67.3081 102.626 62.4929H108.768C108.919 63.365 109.45 64.0095 110.133 64.4266C110.853 64.8816 111.611 65.1091 112.483 65.1091C114.152 65.1091 115.403 64.5783 116.199 63.5166C117.033 62.3792 117.185 60.9005 117.185 59.1944V58.8911V58.7394C117.185 58.6257 117.147 58.5119 117.147 58.0948C115.479 59.801 113.697 60.711 111.232 60.711C106 60.7489 102.398 56.692 102.398 51.5356C102.398 46.3413 106.114 41.9053 111.536 41.9053C113.81 41.9053 115.706 42.7394 117.071 44.5972H117.109V42.474H122.645V58.7773C122.682 62.1896 121.962 64.7678 120.408 66.5498ZM112.711 46.6067C109.867 46.6067 108.085 48.8437 108.085 51.3081C108.085 53.8863 109.791 56.0475 112.711 56.0475C115.63 56.0475 117.336 53.9621 117.336 51.3081C117.336 48.7299 115.592 46.6067 112.711 46.6067Z" fill="#16181C"/>
<path d="M134.739 60.9384C129.128 60.9384 124.161 57.3745 124.161 51.4598C124.161 45.5072 129.052 41.9053 134.701 41.9053C140.351 41.9053 145.28 45.4313 145.28 51.4219C145.28 57.2986 140.389 60.9384 134.739 60.9384ZM134.701 46.7204C131.782 46.7204 129.962 48.8816 129.962 51.4598C129.962 54.038 131.782 56.1612 134.664 56.1612C137.204 56.1612 138.872 54.7204 139.327 52.5972C139.403 52.2939 139.441 51.9148 139.441 51.5356C139.441 51.1565 139.403 50.7394 139.365 50.4361C138.948 48.2749 137.242 46.7204 134.701 46.7204Z" fill="#16181C"/>
<path d="M164.654 66.5497C162.91 68.635 160.256 69.5449 156.844 69.5449C152.559 69.5449 147.441 67.3079 146.872 62.4928H153.014C153.166 63.3648 153.697 64.0094 154.379 64.4264C155.1 64.8814 155.858 65.1089 156.73 65.1089C158.398 65.1089 159.649 64.5781 160.445 63.5165C161.28 62.379 161.431 60.9004 161.431 59.1942V58.8909V58.7392C161.431 58.6255 161.393 58.5117 161.393 58.0947C159.725 59.8008 157.943 60.7108 155.479 60.7108C150.246 60.7108 146.645 56.6539 146.645 51.4975C146.645 46.3032 150.36 41.8672 155.782 41.8672C158.057 41.8672 159.953 42.7013 161.318 44.5591H161.355V42.4359H166.891V58.7392C166.929 62.1895 166.209 64.7677 164.654 66.5497ZM156.957 46.6065C154.114 46.6065 152.332 48.8435 152.332 51.3079C152.332 53.8861 154.038 56.0473 156.957 56.0473C159.877 56.0473 161.583 53.962 161.583 51.3079C161.583 48.7297 159.839 46.6065 156.957 46.6065Z" fill="#16181C"/>
<path d="M170.341 60.3697V30.8721H175.877V54.7962C175.877 57.9052 173.412 60.3697 170.341 60.3697Z" fill="#16181C"/>
<path d="M192.9 60.3697V58.1707H192.863C191.687 60.0285 189.412 60.9384 187.175 60.9384C181.867 60.9384 178.19 56.5783 178.19 51.4219C178.19 46.3034 181.791 41.9053 187.1 41.9053C189.261 41.9053 191.498 42.7773 192.9 44.4835V42.474H198.436V60.3697H192.9ZM183.839 51.4219C183.839 54.0001 185.583 56.1612 188.427 56.1612C191.384 56.1612 193.09 54.0759 193.09 51.4219C193.09 48.8437 191.346 46.7204 188.427 46.7204C185.583 46.7204 183.839 48.9574 183.839 51.4219Z" fill="#16181C"/>
<path d="M207.725 60.9386C205.071 60.9386 202.645 60.0666 200.673 58.3604L202.872 54.6448C204.047 55.7822 206.057 56.8059 207.763 56.8059C208.825 56.8059 210.152 56.1614 210.152 54.9481C210.152 53.5073 208.37 53.2799 206.55 52.8249C206.171 52.7111 205.829 52.5595 205.45 52.4457C203.706 51.7633 202.038 50.7017 202.038 47.9718C202.038 43.8012 205.678 41.9434 209.355 41.9434C211.365 41.9434 213.336 42.4363 215.043 43.422L213.033 46.9102C212.085 46.2277 210.796 45.7727 209.659 45.7727C208.787 45.7727 207.46 46.2656 207.46 47.2514C207.46 48.5784 209.28 48.768 210.227 49.0713C211.668 49.4505 212.957 49.8675 213.981 50.6637C215.005 51.4979 215.687 52.6732 215.687 54.4552C215.687 58.8912 211.744 60.9386 207.725 60.9386Z" fill="#16181C"/>
<path d="M224.104 60.9384C221.45 60.9384 219.024 60.0664 217.052 58.3603L219.251 54.6067C220.427 55.7441 222.436 56.7678 224.142 56.7678C225.204 56.7678 226.531 56.1233 226.531 54.91C226.531 53.4693 224.749 53.2418 222.929 52.7868C222.55 52.673 222.209 52.5214 221.829 52.4076C220.085 51.7252 218.417 50.6636 218.417 47.9337C218.417 43.7631 222.057 41.9053 225.735 41.9053C227.744 41.9053 229.716 42.3982 231.422 43.3839L229.412 46.8721C228.464 46.1896 227.175 45.7347 226.038 45.7347C225.166 45.7347 223.839 46.2275 223.839 47.2133C223.839 48.5403 225.659 48.7299 226.607 49.0332C228.047 49.4124 229.336 49.8294 230.36 50.6257C231.384 51.4598 232.066 52.6351 232.066 54.4171C232.066 58.8911 228.123 60.9384 224.104 60.9384Z" fill="#16181C"/>
<path d="M101.488 35.8392H101.45C101.261 35.8013 101.109 35.6117 101.109 35.4222V35.3843V35.3463C101.109 35.1568 101.261 34.9672 101.45 34.9293H101.488C101.564 34.9293 101.64 34.8535 101.602 34.7397L101.564 34.4743C101.564 34.3985 101.488 34.3226 101.374 34.3606H101.336C101.147 34.3985 100.919 34.2847 100.881 34.0952C100.881 34.0572 100.881 34.0572 100.844 34.0193C100.768 33.8298 100.844 33.6023 101.033 33.4885L101.071 33.4506C101.147 33.4127 101.185 33.299 101.109 33.261L100.995 33.0336C100.957 32.9577 100.844 32.9198 100.806 32.9956L100.768 33.0336C100.578 33.1473 100.351 33.1094 100.237 32.9198C100.237 32.8819 100.199 32.8819 100.199 32.844C100.047 32.6923 100.047 32.4648 100.199 32.3132L100.161 32.2753C100.199 32.1994 100.199 32.1236 100.161 32.0478L99.9336 31.8961C99.8578 31.8582 99.782 31.8582 99.7061 31.8961L99.6682 31.934C99.5166 32.0857 99.2891 32.1236 99.1374 32.0099C99.0995 32.0099 99.0995 31.9719 99.0616 31.9719C98.872 31.8582 98.7962 31.6686 98.872 31.4411V31.4032C98.9099 31.3274 98.872 31.2516 98.7962 31.2136L98.6066 31.1378C98.5308 31.0999 98.455 31.1378 98.417 31.2136V31.2516C98.3412 31.4411 98.1516 31.5549 97.9241 31.517C97.8862 31.517 97.8862 31.517 97.8483 31.517C97.6208 31.517 97.4692 31.3274 97.4692 31.1378V31.0999C97.4692 31.0241 97.3933 30.9482 97.3175 30.9482H97.0521C96.9763 30.9482 96.9005 31.0241 96.9005 31.0999V31.1378C96.9005 31.3274 96.7488 31.517 96.5592 31.5549C96.5213 31.5549 96.5213 31.5549 96.4834 31.5549C96.2938 31.5928 96.0663 31.479 95.9905 31.2895V31.2516C95.9526 31.1757 95.8768 31.1378 95.8009 31.1378L95.5734 31.2136C95.4976 31.2516 95.4597 31.3274 95.4976 31.4032V31.4411C95.5734 31.6307 95.4976 31.8582 95.308 31.9719C95.2701 31.9719 95.2701 32.0099 95.2322 32.0099C95.0426 32.1236 94.8151 32.0857 94.7014 31.934L94.6256 31.8961C94.5877 31.8203 94.4739 31.8203 94.3981 31.8961L94.2085 32.0478C94.1327 32.0857 94.1327 32.1994 94.2085 32.2753L94.2464 32.3132C94.3981 32.4648 94.3602 32.6923 94.2464 32.844C94.2464 32.8819 94.2085 32.8819 94.2085 32.9198C94.0948 33.0715 93.8673 33.1094 93.6777 33.0336L93.6398 32.9956C93.564 32.9577 93.4881 32.9956 93.4502 33.0336L93.3365 33.261C93.2986 33.3369 93.3365 33.4127 93.3744 33.4506L93.4123 33.4885C93.6019 33.6023 93.6777 33.8298 93.6019 34.0193C93.6019 34.0572 93.6019 34.0572 93.564 34.0952C93.4881 34.2847 93.2986 34.3985 93.109 34.3606H93.0711C92.9952 34.3606 92.9194 34.3985 92.8815 34.4743L92.8436 34.7397C92.8436 34.8155 92.8815 34.8914 92.9573 34.9293H92.9952C93.1848 34.9672 93.3365 35.1568 93.3365 35.3463V35.3843V35.4222C93.3365 35.6117 93.1848 35.8013 92.9952 35.8392H92.9573C92.8815 35.8392 92.8057 35.9151 92.8436 36.0288L92.8815 36.2942C92.8815 36.37 92.9573 36.4459 93.0711 36.408H93.109C93.2986 36.37 93.526 36.4838 93.564 36.6734C93.564 36.7113 93.564 36.7113 93.6019 36.7492C93.6777 36.9388 93.6019 37.1663 93.4123 37.28L93.3744 37.3179C93.2986 37.3558 93.2606 37.4696 93.3365 37.5075L93.4502 37.735C93.4881 37.8108 93.6019 37.8487 93.6398 37.7729L93.6777 37.735C93.8673 37.6212 94.0948 37.6591 94.2085 37.8487C94.2085 37.8866 94.2464 37.8866 94.2464 37.9245C94.3981 38.0762 94.3981 38.3037 94.2464 38.4554L94.2085 38.4933C94.1706 38.5691 94.1706 38.6449 94.2085 38.7208L94.3981 38.8724C94.4739 38.9103 94.5497 38.9103 94.6256 38.8724L94.6635 38.8345C94.8151 38.6828 95.0426 38.6449 95.1943 38.7587C95.2322 38.7587 95.2322 38.7966 95.2701 38.7966C95.4597 38.9103 95.5355 39.0999 95.4597 39.3274V39.3653C95.4218 39.4411 95.4597 39.517 95.5355 39.5549L95.763 39.6307C95.8388 39.6686 95.9147 39.6307 95.9526 39.5549V39.517C96.0284 39.3274 96.218 39.2136 96.4455 39.2516C96.4834 39.2516 96.4834 39.2516 96.5213 39.2516C96.7109 39.2895 96.8625 39.479 96.8625 39.6686V39.7065C96.8625 39.7824 96.9384 39.8582 97.0142 39.8582H97.2796C97.3554 39.8582 97.4313 39.7824 97.4313 39.7065V39.6686C97.4313 39.479 97.5829 39.2895 97.7725 39.2516C97.8104 39.2516 97.8104 39.2516 97.8483 39.2516C98.0379 39.2136 98.2654 39.3274 98.3412 39.517V39.5549C98.3791 39.6307 98.455 39.6686 98.5308 39.6307L98.7583 39.5549C98.8341 39.517 98.872 39.4411 98.8341 39.3653V39.3274C98.7583 39.1378 98.8341 38.9103 99.0237 38.7966C99.0616 38.7966 99.0616 38.7587 99.0995 38.7587C99.2891 38.6449 99.5166 38.6828 99.6303 38.8345L99.6682 38.8724C99.7061 38.9482 99.8199 38.9482 99.8957 38.8724L100.085 38.7208C100.161 38.6828 100.161 38.5691 100.085 38.4933L100.123 38.4554C99.9715 38.3037 100.009 38.0762 100.123 37.9245C100.123 37.8866 100.161 37.8866 100.161 37.8487C100.275 37.6971 100.502 37.6591 100.692 37.735L100.73 37.7729C100.806 37.8108 100.881 37.7729 100.919 37.735L101.033 37.5075C101.071 37.4317 101.033 37.3558 100.995 37.3179L100.957 37.28C100.768 37.1663 100.692 36.9388 100.768 36.7492C100.768 36.7113 100.768 36.7113 100.806 36.6734C100.881 36.4838 101.071 36.37 101.261 36.408H101.299C101.374 36.408 101.45 36.37 101.488 36.2942L101.526 36.0288C101.602 35.953 101.564 35.8772 101.488 35.8392Z" fill="#335AFF"/>
</g>
<defs>
<clipPath id="clip0_297_9000">
<rect width="167.242" height="40" fill="white" transform="translate(66.3792 30)"/>
</clipPath>
</defs>
</svg>
