<svg width="300" height="100" viewBox="0 0 300 100" fill="none" xmlns="http://www.w3.org/2000/svg">
<rect width="300" height="100" fill="white"/>
<g clip-path="url(#clip0_298_11888)">
<mask id="mask0_298_11888" style="mask-type:luminance" maskUnits="userSpaceOnUse" x="57" y="30" width="41" height="40">
<path d="M97.5969 30.9287H57.7812V69.0715H97.5969V30.9287Z" fill="white"/>
</mask>
<g mask="url(#mask0_298_11888)">
<path d="M95.3665 45.987L95.344 45.8817L89.4227 49.0138L87.8099 49.8696L84.0967 51.8347L82.3363 52.7633L76.9202 55.6369C76.832 55.6814 76.7297 55.6891 76.636 55.658C76.5422 55.6269 76.4646 55.5597 76.4201 55.4713L75.9425 54.4825L75.7074 54.0181C75.6751 53.9523 75.624 53.8974 75.5607 53.8604C75.4975 53.8235 75.4247 53.806 75.3516 53.8104C75.2785 53.8146 75.2083 53.8404 75.1497 53.8845C75.0912 53.9286 75.0469 53.9891 75.0223 54.0584L74.6423 55.1626L73.8395 57.4866L73.0894 59.6876L73.0744 59.7302L73.8595 59.9411L79.2207 61.3942L79.2657 61.3666L78.3105 59.3965H78.3255L78.3055 59.3638C78.3002 59.355 78.2944 59.3467 78.288 59.3388V59.2835L78.573 59.1355C78.5687 59.1269 78.5627 59.1193 78.5555 59.1129C78.5641 59.1185 78.571 59.1262 78.5755 59.1355L91.6582 52.3517C91.5882 52.806 91.4956 53.2552 91.3857 53.6944C90.7358 56.2938 89.4064 58.6721 87.5348 60.5836C87.3799 60.7392 87.2248 60.8923 87.0648 61.0428C86.9423 61.1558 86.8147 61.2662 86.6972 61.3741C86.5121 61.5373 86.3222 61.6954 86.1296 61.8485C85.937 62.0016 85.737 62.1522 85.5369 62.2977L85.4344 62.3705L85.3319 62.4408L85.1243 62.5813C84.4938 63.0041 83.8316 63.3774 83.144 63.6981C82.8939 63.8186 82.6239 63.934 82.3538 64.0395C82.1888 64.1073 82.0212 64.17 81.8537 64.2302C81.6862 64.2905 81.5136 64.3482 81.3536 64.4034L81.181 64.4561C81.1235 64.4762 81.066 64.4913 81.006 64.5088C77.8065 65.4341 74.392 65.2717 71.294 64.047L71.2515 64.0294C70.8615 63.8763 70.4814 63.7032 70.1113 63.5275C69.9537 63.4472 69.7962 63.3668 69.6387 63.2765C69.4811 63.1861 69.3311 63.1034 69.1761 63.0256C69.0211 62.9477 68.876 62.8398 68.726 62.7444C68.651 62.6968 68.576 62.6491 68.506 62.5989C68.1359 62.348 67.7808 62.097 67.4382 61.8158C67.2982 61.7054 67.1632 61.5925 67.0307 61.4771L66.6356 61.1257L66.3555 60.8596C66.263 60.7693 66.1705 60.6764 66.083 60.5861C65.7554 60.2498 65.4453 59.9035 65.1528 59.5395C64.9602 59.2885 64.7727 59.0552 64.5952 58.8067C64.1334 58.1603 63.7237 57.478 63.3699 56.7662C63.3609 56.7521 63.3534 56.7369 63.3474 56.7211C63.3381 56.7066 63.3298 56.6915 63.3224 56.676C63.1599 56.3421 63.0048 55.9984 62.8673 55.652C62.4569 54.6274 62.1617 53.56 61.9871 52.4697C61.843 51.655 61.7652 50.8299 61.7546 50.0026C61.7538 49.423 61.7872 48.844 61.8546 48.2684C61.9307 47.5994 62.051 46.9362 62.2147 46.2832C62.2747 46.0498 62.3397 45.8164 62.4097 45.588C62.6112 44.9129 62.862 44.2536 63.1599 43.6154C63.1824 43.5627 63.2049 43.5124 63.2299 43.4622C64.0329 41.7932 65.1347 40.2867 66.4806 39.0176C66.7731 38.739 67.0782 38.4755 67.3932 38.222L67.5908 38.0639C67.7258 37.9585 67.8633 37.8581 68.0009 37.7577L68.2084 37.6096C68.4009 37.4741 68.596 37.3436 68.796 37.2206C68.9961 37.0976 69.1936 36.9696 69.3986 36.8567C69.6036 36.7438 69.8087 36.6308 70.0187 36.5254C70.2288 36.42 70.4464 36.3146 70.6639 36.2192C70.7415 36.1816 70.819 36.149 70.899 36.1138L71.3991 35.9155C71.5666 35.8528 71.7316 35.7926 71.8992 35.7348C73.4713 35.1914 75.1224 34.9141 76.7851 34.9142H77.1002C77.3103 34.9142 77.5178 34.9142 77.7254 34.9393C77.8879 34.9393 78.0479 34.9618 78.208 34.9769C78.4614 35.002 78.7114 35.0321 78.9582 35.0673C79.3007 35.1149 79.6383 35.1777 79.9734 35.2505C80.2083 35.3007 80.4409 35.3584 80.6735 35.4186C80.9911 35.5039 81.3011 35.5993 81.6087 35.7022C81.8187 35.775 82.0288 35.8503 82.2338 35.9331C82.4388 36.0159 82.6439 36.0988 82.8464 36.1841L83.1465 36.3221L83.369 36.43C83.5166 36.5028 83.6641 36.5756 83.8091 36.6534L84.0266 36.7714L80.5535 38.5708L73.9395 42.0141L70.3214 43.8814L70.1913 43.6305L69.3836 42.0668C69.3504 42.0026 69.2992 41.9493 69.2364 41.9137C69.1736 41.878 69.1018 41.8614 69.0297 41.8659C68.9577 41.8705 68.8885 41.8958 68.8306 41.9392C68.7727 41.9824 68.7285 42.0416 68.7035 42.1096L67.5333 45.3296L67.3182 45.9117L66.9031 47.0436C66.8837 47.0929 66.8748 47.1457 66.8771 47.1986C66.8794 47.2515 66.8927 47.3034 66.9163 47.3507C66.9399 47.3981 66.9732 47.44 67.014 47.4736C67.0549 47.5072 67.1023 47.5316 67.1532 47.5456L67.7533 47.6987L72.7843 48.9686L72.9068 48.9009L72.1567 47.4502C72.1118 47.3626 72.1031 47.2608 72.1326 47.1667C72.1622 47.0728 72.2274 46.9942 72.3143 46.9483L76.3626 44.8075L78.7256 43.5526L87.1648 39.0903L90.4154 37.3762C90.4658 37.3494 90.5092 37.3113 90.5424 37.2648C90.5755 37.2183 90.5975 37.1647 90.6065 37.1082C90.6154 37.0518 90.6112 36.994 90.5942 36.9394C90.577 36.8849 90.5475 36.8351 90.508 36.7939C88.5156 34.7106 86.078 33.1084 83.379 32.1083C83.2465 32.0581 83.1164 32.0104 82.9839 31.9652C80.9895 31.2764 78.8945 30.9261 76.7851 30.9287C76.165 30.9287 75.5532 30.958 74.9498 31.0166C74.1737 31.091 73.4028 31.2133 72.6418 31.383C72.0792 31.5085 71.5241 31.6591 70.9815 31.8347C70.6914 31.9251 70.4064 32.028 70.1238 32.1309C69.7487 32.2714 69.3736 32.4245 69.0161 32.5902C65.2749 34.2804 62.1748 37.1341 60.1743 40.7292C59.9917 41.0555 59.8217 41.3867 59.6591 41.7331C59.1074 42.8764 58.6726 44.073 58.3614 45.3044C57.9744 46.8402 57.7795 48.4185 57.7813 50.0026C57.7813 50.1256 57.7813 50.2536 57.7813 50.374C57.8046 51.7267 57.9722 53.0729 58.2814 54.3896C58.3664 54.7485 58.4589 55.1049 58.5639 55.4587C58.5639 55.4763 58.5639 55.4939 58.5814 55.5139C58.782 56.188 59.0207 56.85 59.2966 57.4966C59.7676 58.6051 60.3419 59.6665 61.0119 60.6664C61.1995 60.94 61.392 61.2136 61.592 61.4795C61.9771 61.9814 62.3897 62.4835 62.8248 62.9578L62.9148 63.0556C63.822 64.028 64.8276 64.9027 65.9154 65.6658C66.1655 65.8465 66.433 66.0196 66.6981 66.1853C69.7203 68.0872 73.2181 69.0897 76.7851 69.0765C77.3178 69.0765 77.8454 69.0564 78.368 69.0113C81.388 68.7628 84.3041 67.7884 86.8697 66.1702C87.2448 65.9369 87.6199 65.6883 87.9625 65.4173C88.7666 64.8278 89.524 64.1766 90.2279 63.4698C92.655 61.0365 94.3783 57.9875 95.2139 54.6481C95.4023 53.8981 95.5434 53.137 95.6366 52.3692C95.7287 51.6425 95.7779 50.9109 95.7841 50.1782V50.0026C95.7858 48.6531 95.6458 47.3072 95.3665 45.987ZM78.1929 59.1882V59.2008C78.1918 59.2066 78.1918 59.2125 78.1929 59.2182C78.1923 59.2083 78.1923 59.1982 78.1929 59.1882Z" fill="#001140"/>
<path d="M97.3194 38.7514C97.3707 38.7646 97.4186 38.7888 97.4599 38.8222C97.5011 38.8556 97.5349 38.8975 97.5585 38.9451C97.5823 38.9927 97.5955 39.0449 97.5974 39.0981C97.5992 39.1512 97.5897 39.2042 97.5695 39.2534L95.809 43.8763C95.7833 43.9427 95.739 44.0003 95.6815 44.0421C95.624 44.084 95.5558 44.1084 95.4848 44.1123C95.4139 44.1163 95.3433 44.0997 95.2816 44.0645C95.2198 44.0293 95.1694 43.9771 95.1364 43.9139L94.7363 43.1384C94.6902 43.0516 94.6118 42.9867 94.5182 42.9576C94.4246 42.9284 94.3232 42.9376 94.2362 42.9828L94.0387 43.0882L93.5386 43.3392L90.483 44.953L89.8603 45.2842L79.4733 50.7856C79.396 50.8248 79.3074 50.8355 79.2232 50.8156L78.9731 50.7554C78.9195 50.7434 78.8694 50.7196 78.8262 50.6858C78.7829 50.652 78.7477 50.6089 78.7231 50.5596L77.5353 48.1428C77.5127 48.0995 77.4989 48.0521 77.4946 48.0034C77.4903 47.9547 77.4957 47.9057 77.5103 47.8589C77.5249 47.8123 77.5486 47.7691 77.5799 47.7316C77.6112 47.6942 77.6496 47.6634 77.6928 47.6409L88.2275 42.0668L88.8702 41.7254L91.8983 40.1242L92.3984 39.8582L92.5859 39.7578C92.6289 39.7351 92.6671 39.7041 92.6982 39.6665C92.7293 39.629 92.7527 39.5857 92.7671 39.5391C92.7815 39.4925 92.7865 39.4435 92.7821 39.3949C92.7776 39.3463 92.7637 39.299 92.7409 39.2559L92.1183 38.0512C92.0901 37.9882 92.0799 37.9185 92.0889 37.8499C92.0979 37.7814 92.1259 37.7168 92.1696 37.6633C92.2133 37.6099 92.2709 37.5697 92.336 37.5473C92.4011 37.525 92.4713 37.5213 92.5384 37.5367L95.4165 38.2695L97.3194 38.7514Z" fill="#001140"/>
</g>
<path d="M127.483 58.1706H124.219L123.957 55.8298C123.432 56.6196 122.645 57.2843 121.596 57.8237C120.567 58.3439 119.324 58.6041 117.867 58.6041C114.992 58.6041 112.554 57.6311 110.553 55.6853C108.552 53.7395 107.551 51.1579 107.551 47.9405C107.551 44.7423 108.581 42.1607 110.64 40.1957C112.719 38.2306 115.215 37.248 118.129 37.248C120.654 37.248 122.713 37.8549 124.306 39.0687C125.919 40.2824 127.007 41.7755 127.57 43.5479L123.724 44.9061C123.413 43.8466 122.781 42.9314 121.829 42.1607C120.897 41.3709 119.663 40.9759 118.129 40.9759C116.38 40.9759 114.856 41.5732 113.554 42.7676C112.272 43.9621 111.631 45.6863 111.631 47.9405C111.631 50.1561 112.252 51.8803 113.496 53.1133C114.758 54.3463 116.312 54.9628 118.158 54.9628C119.867 54.9628 121.179 54.5389 122.092 53.6913C123.005 52.8243 123.539 51.9188 123.694 50.9748H117.167V47.507H127.483V58.1706Z" fill="#001140"/>
<path d="M134.075 49.4427H140.486C140.447 48.6528 140.156 47.9882 139.612 47.4487C139.087 46.9093 138.31 46.6396 137.28 46.6396C136.348 46.6396 135.59 46.9285 135.008 47.5066C134.425 48.0845 134.114 48.7299 134.075 49.4427ZM140.865 53.1418L144.099 54.0954C143.711 55.4054 142.943 56.4843 141.797 57.332C140.67 58.1797 139.262 58.6036 137.572 58.6036C135.513 58.6036 133.764 57.9196 132.327 56.5517C130.889 55.1646 130.171 53.3151 130.171 51.0032C130.171 48.807 130.87 47.0152 132.269 45.6282C133.667 44.2218 135.318 43.5186 137.222 43.5186C139.437 43.5186 141.166 44.1735 142.409 45.4836C143.672 46.7936 144.303 48.595 144.303 50.8877C144.303 51.0418 144.293 51.2151 144.274 51.4078C144.274 51.6005 144.274 51.7546 144.274 51.8702L144.245 52.0725H133.988C134.027 52.9972 134.396 53.7678 135.095 54.3844C135.794 55.0008 136.63 55.3091 137.601 55.3091C139.252 55.3091 140.34 54.5867 140.865 53.1418Z" fill="#001140"/>
<path d="M152.134 39.7041V43.9522H155.018V47.3621H152.134V53.3153C152.134 53.9125 152.27 54.3363 152.542 54.5868C152.814 54.8372 153.241 54.9625 153.824 54.9625C154.348 54.9625 154.747 54.924 155.018 54.8469V58.0257C154.455 58.2569 153.727 58.3725 152.833 58.3725C151.434 58.3725 150.327 57.9872 149.511 57.2165C148.695 56.4267 148.287 55.3479 148.287 53.98V47.3621H145.694V43.9522H146.422C147.141 43.9522 147.685 43.7499 148.054 43.3453C148.443 42.9215 148.637 42.3724 148.637 41.6981V39.7041H152.134Z" fill="#001140"/>
<path d="M171.454 58.1707H158.516V37.6816H171.454V41.4385H162.538V46.1199H170.609V49.6745H162.538V54.4139H171.454V58.1707Z" fill="#001140"/>
<path d="M188.568 63.661H184.779V56.7543C184.041 57.9295 182.71 58.5171 180.787 58.5171C178.766 58.5171 177.097 57.8139 175.776 56.4075C174.454 54.9819 173.794 53.1902 173.794 51.0324C173.794 48.9132 174.425 47.1504 175.688 45.744C176.97 44.3184 178.63 43.6055 180.67 43.6055C181.797 43.6055 182.71 43.8175 183.41 44.2412C184.129 44.6458 184.614 45.0986 184.867 45.5995V43.9523H188.568V63.661ZM178.689 48.1137C178.028 48.8265 177.699 49.7994 177.699 51.0324C177.699 52.2655 178.028 53.248 178.689 53.9801C179.369 54.7122 180.224 55.0782 181.253 55.0782C182.283 55.0782 183.128 54.7122 183.788 53.9801C184.468 53.248 184.809 52.2655 184.809 51.0324C184.809 49.7994 184.468 48.8265 183.788 48.1137C183.128 47.4009 182.283 47.0444 181.253 47.0444C180.224 47.0444 179.369 47.4009 178.689 48.1137Z" fill="#001140"/>
<path d="M201.982 58.1702C201.905 57.7848 201.866 57.2743 201.866 56.6385C201.497 57.2743 200.943 57.7559 200.205 58.0835C199.486 58.3917 198.719 58.5459 197.903 58.5459C196.213 58.5459 194.883 58.016 193.911 56.9564C192.94 55.8775 192.454 54.5385 192.454 52.9396V43.9521H196.33V52.1592C196.33 53.007 196.554 53.7005 196.999 54.2399C197.446 54.7601 198.098 55.0203 198.953 55.0203C199.788 55.0203 200.449 54.7697 200.934 54.2688C201.419 53.7487 201.662 53.0647 201.662 52.2171V43.9521H205.538V55.5982C205.538 56.5037 205.586 57.3611 205.683 58.1702H201.982Z" fill="#001140"/>
<path d="M213.549 58.1707H209.674V43.9526H213.549V58.1707ZM209.208 39.2999C209.208 38.6449 209.441 38.0862 209.907 37.6238C210.373 37.1422 210.937 36.9014 211.597 36.9014C212.258 36.9014 212.821 37.1326 213.288 37.5949C213.753 38.0573 213.986 38.6256 213.986 39.2999C213.986 39.9357 213.753 40.4848 213.288 40.9472C212.821 41.4095 212.258 41.6407 211.597 41.6407C210.937 41.6407 210.373 41.4095 209.907 40.9472C209.441 40.4848 209.208 39.9357 209.208 39.2999Z" fill="#001140"/>
<path d="M222.477 39.7041V43.9522H225.362V47.3621H222.477V53.3153C222.477 53.9125 222.613 54.3363 222.885 54.5868C223.157 54.8372 223.585 54.9625 224.168 54.9625C224.692 54.9625 225.09 54.924 225.362 54.8469V58.0257C224.798 58.2569 224.07 58.3725 223.177 58.3725C221.778 58.3725 220.67 57.9872 219.854 57.2165C219.038 56.4267 218.63 55.3479 218.63 53.98V47.3621H216.037V43.9522H216.766C217.485 43.9522 218.028 43.7499 218.397 43.3453C218.786 42.9215 218.98 42.3724 218.98 41.6981V39.7041H222.477Z" fill="#001140"/>
<path d="M233.921 63.7765H229.812L233.193 56.3784L227.102 43.9521H231.444L235.261 52.2749L238.787 43.9521H242.924L233.921 63.7765Z" fill="#001140"/>
</g>
<defs>
<clipPath id="clip0_298_11888">
<rect width="185.143" height="40" fill="white" transform="translate(57.7812 30)"/>
</clipPath>
</defs>
</svg>
