<svg width="300" height="100" viewBox="0 0 300 100" fill="none" xmlns="http://www.w3.org/2000/svg">
<rect width="300" height="100" fill="white"/>
<g clip-path="url(#clip0_298_11881)">
<path d="M101.515 67.335C101.241 67.0825 101.02 66.7775 100.865 66.4381C100.711 66.0987 100.627 65.7317 100.617 65.3589C100.616 64.9931 100.696 64.6317 100.852 64.3005C101.007 63.9692 101.233 63.6764 101.515 63.4428C101.783 63.1611 102.106 62.9368 102.464 62.7836C102.822 62.6303 103.207 62.5513 103.596 62.5513C103.985 62.5513 104.37 62.6303 104.728 62.7836C105.085 62.9368 105.408 63.1611 105.677 63.4428C105.913 63.7168 106.211 63.9321 106.545 64.0715C106.875 64.2156 107.233 64.2871 107.593 64.2811C107.961 64.272 108.326 64.2012 108.671 64.0715C109.031 63.929 109.365 63.7265 109.659 63.4727C109.892 63.1171 110.102 62.7471 110.287 62.3649C110.459 62.0403 110.561 61.6834 110.587 61.317V58.353H107.802C106.879 58.3153 105.972 58.0912 105.138 57.6943C104.094 57.2456 103.124 56.6398 102.263 55.8979C101.36 55.1021 100.582 54.1733 99.9581 53.1434C99.3309 52.1264 98.9992 50.9549 99 49.7601C99.0029 48.6269 99.2373 47.5062 99.6886 46.4667C100.137 45.4551 100.778 44.54 101.575 43.7721C103.238 42.1381 105.471 41.2148 107.802 41.1973C108.926 41.1975 110.038 41.432 111.066 41.8859C112.063 42.3316 112.967 42.9613 113.731 43.7422C115.32 45.3551 116.258 47.4981 116.365 49.7601V61.317C116.373 62.4483 116.148 63.569 115.707 64.6104C115.261 65.6254 114.632 66.5491 113.85 67.335C113.017 68.1731 112.031 68.8439 110.946 69.311C109.921 69.7552 108.815 69.9843 107.698 69.9843C106.58 69.9843 105.475 69.7552 104.449 69.311C103.347 68.8592 102.348 68.1867 101.515 67.335ZM107.772 46.9757C106.994 46.9759 106.241 47.2516 105.647 47.7542C105.364 47.9996 105.137 48.3031 104.982 48.6442C104.827 48.9852 104.747 49.3556 104.749 49.7302C104.756 50.5298 105.077 51.2944 105.643 51.8598C106.208 52.4253 106.973 52.7464 107.772 52.7542H110.557V49.7601C110.561 49.368 110.479 48.9797 110.317 48.6224C110.171 48.2921 109.957 47.9963 109.689 47.7542C109.433 47.5034 109.127 47.3096 108.79 47.1853C108.47 47.0445 108.123 46.973 107.772 46.9757Z" fill="#33475B"/>
<path d="M121.335 30.0297C122.106 30.0236 122.851 30.3006 123.431 30.8081C123.711 31.056 123.936 31.3601 124.091 31.7005C124.245 32.041 124.327 32.4102 124.329 32.7841C124.325 33.1754 124.243 33.5619 124.09 33.9219C123.934 34.2805 123.71 34.6057 123.431 34.88C123.155 35.1425 122.842 35.3643 122.503 35.5386C122.143 35.6921 121.756 35.7734 121.365 35.7782C121.012 35.7743 120.665 35.6925 120.347 35.5386C120.011 35.3743 119.707 35.1512 119.449 34.88C118.906 34.3154 118.596 33.5671 118.581 32.7841C118.581 32.4021 118.663 32.0245 118.82 31.6764C118.967 31.346 119.181 31.0502 119.449 30.8081C119.71 30.5637 120.015 30.3707 120.347 30.2392C120.656 30.0953 120.994 30.0236 121.335 30.0297Z" fill="#66C469"/>
<path d="M124.299 44.2212V55.3589C124.295 55.7502 124.213 56.1367 124.06 56.4967C123.733 57.1951 123.171 57.7566 122.473 58.0835C122.113 58.2369 121.727 58.3183 121.335 58.323C120.983 58.3191 120.635 58.2373 120.317 58.0835C119.641 57.7454 119.102 57.1851 118.79 56.4967C118.637 56.1367 118.556 55.7502 118.551 55.3589V44.2212C118.556 43.83 118.637 43.4434 118.79 43.0835C118.94 42.7461 119.153 42.4411 119.419 42.1853C119.683 41.9129 119.986 41.6809 120.317 41.4967C120.634 41.3399 120.982 41.2579 121.335 41.2571C121.727 41.2619 122.113 41.3432 122.473 41.4967C123.171 41.8235 123.733 42.3851 124.06 43.0835C124.247 43.432 124.33 43.8269 124.299 44.2212ZM135.018 41.1973C135.552 41.198 136.084 41.2582 136.605 41.3769C137.1 41.4968 137.582 41.6674 138.042 41.8859V32.7841C138.026 32.4167 138.085 32.0499 138.213 31.7054C138.342 31.3609 138.538 31.0456 138.79 30.7781C139.039 30.5229 139.337 30.322 139.667 30.188C139.997 30.054 140.351 29.9899 140.707 29.9997C141.074 29.9869 141.441 30.0504 141.783 30.1862C142.125 30.322 142.435 30.5271 142.694 30.7887C142.952 31.0503 143.154 31.3626 143.286 31.7061C143.418 32.0495 143.478 32.4165 143.461 32.7841V49.8799C143.469 51.0112 143.245 52.1322 142.802 53.1733C142.389 54.1749 141.789 55.0891 141.036 55.8679C140.265 56.6386 139.349 57.2491 138.341 57.6643C137.294 58.1206 136.16 58.3453 135.018 58.323C133.897 58.3271 132.786 58.103 131.754 57.6643C129.726 56.8047 128.107 55.1962 127.234 53.1733C126.785 52.134 126.561 51.0118 126.575 49.8799C126.576 47.5891 127.467 45.3884 129.06 43.7422C129.84 42.9677 130.753 42.3391 131.754 41.8859C132.784 41.4377 133.895 41.2034 135.018 41.1973ZM135.018 46.8859C134.642 46.8764 134.269 46.9522 133.927 47.1078C133.584 47.2634 133.282 47.4946 133.042 47.7841C132.522 48.356 132.243 49.107 132.263 49.8799C132.257 50.2209 132.329 50.5588 132.473 50.8679C132.614 51.1957 132.806 51.4989 133.042 51.7661C133.294 52.0155 133.588 52.2183 133.91 52.3649C134.26 52.5128 134.64 52.5744 135.018 52.5446C135.417 52.5502 135.813 52.479 136.186 52.335C136.541 52.2007 136.867 51.9972 137.144 51.7362C137.412 51.4869 137.635 51.1932 137.802 50.8679C137.956 50.5609 138.038 50.2231 138.042 49.8799C138.046 49.483 137.97 49.0894 137.819 48.7223C137.669 48.3553 137.445 48.0223 137.163 47.743C136.881 47.4638 136.546 47.244 136.178 47.0968C135.809 46.9496 135.415 46.8778 135.018 46.8859Z" fill="#33475B"/>
<path d="M148.491 30.0301C149.261 30.024 150.007 30.301 150.587 30.8086C150.867 31.0565 151.092 31.3605 151.246 31.701C151.401 32.0414 151.482 32.4106 151.485 32.7846C151.48 33.1758 151.399 33.5624 151.246 33.9223C151.089 34.2809 150.866 34.6062 150.587 34.8804C150.31 35.143 149.998 35.3648 149.659 35.5391C149.299 35.6925 148.912 35.7739 148.521 35.7786C148.168 35.7747 147.821 35.6929 147.503 35.5391C147.167 35.3747 146.863 35.1517 146.605 34.8804C146.062 34.3158 145.752 33.5675 145.737 32.7846C145.737 32.4025 145.819 32.0249 145.976 31.6768C146.122 31.3465 146.337 31.0507 146.605 30.8086C146.866 30.5642 147.171 30.3712 147.503 30.2397C147.811 30.0926 148.15 30.0207 148.491 30.0301Z" fill="#EF3054"/>
<path d="M151.455 44.2219V55.3596C151.45 55.7509 151.369 56.1374 151.216 56.4974C150.889 57.1958 150.327 57.7573 149.629 58.0842C149.269 58.2376 148.882 58.319 148.491 58.3237C148.138 58.3198 147.791 58.238 147.473 58.0842C146.797 57.7461 146.258 57.1858 145.946 56.4974C145.793 56.1374 145.711 55.7509 145.707 55.3596V44.2219C145.711 43.8307 145.793 43.4441 145.946 43.0842C146.095 42.7468 146.309 42.4418 146.575 42.186C146.839 41.9136 147.141 41.6816 147.473 41.4974C147.79 41.3406 148.138 41.2587 148.491 41.2578C148.882 41.2626 149.269 41.3439 149.629 41.4974C150.327 41.8242 150.889 42.3858 151.216 43.0842C151.389 43.4376 151.471 43.8287 151.455 44.2219ZM181.934 49.9405V55.3896C181.929 55.7808 181.848 56.1674 181.695 56.5273C181.538 56.8771 181.315 57.1925 181.036 57.4554C180.766 57.7184 180.452 57.9313 180.108 58.0842C179.748 58.2376 179.361 58.319 178.97 58.3237C178.597 58.3347 178.226 58.2625 177.884 58.1123C177.542 57.9622 177.238 57.7378 176.994 57.4554C176.491 56.885 176.214 56.1502 176.216 55.3896V49.9405C176.208 49.1568 175.893 48.4074 175.339 47.8532C174.785 47.299 174.035 46.9842 173.251 46.9764C172.908 46.9775 172.569 47.0595 172.263 47.2159C171.938 47.3704 171.644 47.5835 171.395 47.8447C171.132 48.1143 170.919 48.4286 170.766 48.7728C170.605 49.1513 170.524 49.559 170.527 49.9704V55.3896C170.536 56.1605 170.258 56.9072 169.748 57.4854C169.503 57.7639 169.198 57.9838 168.856 58.1289C168.514 58.274 168.144 58.3406 167.772 58.3237C167.381 58.319 166.995 58.2376 166.635 58.0842C165.94 57.7769 165.385 57.2218 165.078 56.5273C164.924 56.1674 164.843 55.7808 164.838 55.3896V49.9405C164.859 49.1676 164.58 48.4165 164.06 47.8447C163.817 47.5607 163.513 47.3351 163.171 47.1848C162.829 47.0345 162.457 46.9632 162.084 46.9764C161.704 46.9667 161.326 47.0423 160.979 47.1978C160.632 47.3532 160.324 47.5845 160.078 47.8746C159.57 48.4542 159.293 49.2 159.299 49.9704V55.3896C159.295 55.7808 159.213 56.1674 159.06 56.5273C158.753 57.2218 158.197 57.7769 157.503 58.0842C157.153 58.2375 156.777 58.319 156.395 58.3237C156.022 58.3347 155.651 58.2625 155.309 58.1123C154.967 57.9622 154.663 57.7378 154.419 57.4554C153.916 56.885 153.639 56.1502 153.641 55.3896V44.3117C153.617 43.5203 153.895 42.7495 154.419 42.156C154.805 41.725 155.322 41.4329 155.89 41.3247C156.458 41.2164 157.046 41.2982 157.563 41.5572C157.871 41.7133 158.154 41.9152 158.401 42.156C158.97 41.9165 159.539 41.7369 160.138 41.5572C160.759 41.3675 161.404 41.2667 162.054 41.2578C163.095 41.2549 164.124 41.4691 165.078 41.8866C166.048 42.2903 166.947 42.8462 167.742 43.5333C168.463 42.8367 169.305 42.2785 170.227 41.8866C171.162 41.4799 172.172 41.2758 173.192 41.2878C174.353 41.2662 175.506 41.4907 176.575 41.9465C177.594 42.3878 178.526 43.0062 179.329 43.7728C180.11 44.5476 180.74 45.4614 181.186 46.4674C181.636 47.4755 181.871 48.5668 181.874 49.671V49.9704L181.934 49.9405ZM192.653 41.2578C193.761 41.2577 194.858 41.4773 195.88 41.9039C196.903 42.3304 197.831 42.9555 198.611 43.7429C199.383 44.5188 200.002 45.4329 200.437 46.4375C200.897 47.4731 201.122 48.5979 201.096 49.7309C201.099 50.8811 200.875 52.0206 200.437 53.0842C200.014 54.1038 199.393 55.0297 198.611 55.8087C197.836 56.5899 196.922 57.2195 195.916 57.665C194.886 58.1095 193.774 58.3338 192.653 58.3237C191.502 58.3309 190.362 58.1069 189.299 57.665C188.286 57.2479 187.377 56.6143 186.635 55.8087C185.89 55.0231 185.292 54.1105 184.868 53.1141C184.422 52.032 184.198 50.8713 184.21 49.701C184.202 48.5794 184.426 47.4683 184.868 46.4375C185.289 45.4398 185.888 44.5268 186.635 43.7429C187.395 42.973 188.301 42.3623 189.299 41.9465C190.363 41.5055 191.501 41.2718 192.653 41.2578ZM192.653 46.9465C191.882 46.9404 191.136 47.2174 190.557 47.7249C190.277 47.9728 190.052 48.2769 189.897 48.6173C189.743 48.9578 189.661 49.327 189.659 49.701C189.663 50.0825 189.745 50.4593 189.898 50.8087C190.054 51.1585 190.278 51.474 190.557 51.7369C190.831 52.0158 191.156 52.2394 191.515 52.3956C191.875 52.549 192.261 52.6304 192.653 52.6351C193.023 52.6359 193.389 52.556 193.725 52.4009C194.061 52.2457 194.359 52.0191 194.599 51.7369C195.107 51.1694 195.384 50.4326 195.377 49.671C195.39 49.3059 195.327 48.942 195.193 48.6021C195.059 48.2621 194.857 47.9534 194.599 47.695C194.075 47.1973 193.375 46.9281 192.653 46.9465Z" fill="#33475B"/>
</g>
<defs>
<clipPath id="clip0_298_11881">
<rect width="102.096" height="40" fill="white" transform="translate(99 30)"/>
</clipPath>
</defs>
</svg>
