<svg width="300" height="100" viewBox="0 0 300 100" fill="none" xmlns="http://www.w3.org/2000/svg">
<rect width="300" height="100" fill="white"/>
<path d="M101.022 53.9782L101.374 55.8903C101.462 56.7254 102.407 57.4727 103.506 57.4727H104.385V45.3848H95.154V46.5716C95.154 47.7364 96.077 48.6815 97.3078 48.6815H100.67L100.605 49.0551C99.9671 52.3518 97.6375 54.2859 94.3627 54.2859H94.3408C89.6814 53.9562 87.3298 51.0991 87.3518 45.7804V45.3848C85.6375 46.198 84.0331 47.0111 83.0441 48.5496C84.0111 54.2199 88.121 57.7144 93.7913 57.7144C97.3078 57.7144 98.9342 56.5496 100.561 54.5276L101.022 53.9782Z" fill="black"/>
<path d="M100.89 36.6597C98.9781 35.3849 96.6485 34.7256 93.9452 34.7256L93.9232 34.7036C93.7474 34.7036 93.5935 34.6816 93.4397 34.6816C90.6485 34.6816 88.2529 35.6047 86.4726 37.341C84.3627 39.3849 83.2419 42.4619 83.3078 45.9564V46.5278C84.3847 45.5608 85.7034 44.9234 86.9781 44.308C87.2858 41.0113 88.8243 37.297 94.099 37.297C96.7803 37.297 98.6924 38.4179 99.8133 40.5278C100.253 41.0992 100.736 41.4289 101.352 41.4289H103.594C103.286 39.2311 102.407 37.8245 100.89 36.6597Z" fill="#009900"/>
<path d="M118.736 51.0549C118.736 55.8901 121.747 59.5384 126.714 59.5384C129.22 59.5384 130.451 58.7033 131.681 57.2088L131.835 58C131.901 58.7472 132.736 59.2747 133.572 59.2747H134.473V50.3736H127.418V51.4066C127.418 52.3516 128.209 53.0989 129.198 53.0989H131.286C130.912 55.0769 129.506 56.6154 127.11 56.6154C123.923 56.3956 122.363 54.4615 122.407 50.8351C122.429 47.2307 123.967 45.4285 126.934 45.4285C128.604 45.4285 129.813 46.0879 130.495 47.4066C130.912 47.956 131.418 48.2637 132.055 48.2637H134.253C134.121 46.3956 133.396 44.967 132.055 43.956C130.604 42.989 128.846 42.5055 126.824 42.5055C121.681 42.3516 118.648 46.1758 118.736 51.0549Z" fill="black"/>
<path d="M136.824 42.8135V45.3409H140.209V44.3959C140.231 43.3629 139.703 42.8135 138.582 42.8135H136.824ZM136.824 46.4838V59.319H140.209V48.0223C140.209 46.9893 139.681 46.4618 138.582 46.4618H136.824V46.4838Z" fill="black"/>
<path d="M147.549 59.5606C149.22 59.5606 150.538 58.9232 151.396 57.6705V58.9892C151.396 60.9672 150.473 61.9782 148.692 61.9782C147.286 61.9782 146.495 61.5386 146.275 60.6155H142.538C143.33 63.3408 145.264 64.6815 148.319 64.6815C152.626 64.6155 154.758 62.9892 154.758 59.7584V52.176C154.758 48.3298 152.648 46.4177 148.451 46.4617C144.275 46.5276 142.187 48.6595 142.187 52.9452C142.165 57.3188 143.945 59.5606 147.549 59.5606ZM148.495 56.7034C146.67 56.7034 145.747 55.4727 145.659 52.9892C145.659 50.3957 146.604 49.099 148.538 49.099C150.473 49.099 151.418 50.3738 151.396 52.9892C151.286 55.4727 150.319 56.7034 148.495 56.7034Z" fill="black"/>
<path d="M169.659 59.4512H181.308V56.5941H172.956V43.1875H171.308C170.451 43.1875 169.659 43.9567 169.659 44.8139V59.4512Z" fill="#18A418"/>
<path d="M206.077 46.7041H203.967C203.198 46.7041 202.714 47.0118 202.539 47.6931L200.011 56.0667L197.22 46.7041H193.769L198.253 58.9678C198.539 59.8689 198.495 60.5942 198.143 61.0777C197.769 61.5832 197.088 61.8689 196.077 61.8689H195.374V64.0887C195.593 64.1107 195.945 64.1327 196.604 64.1327C199.352 64.1327 200.077 63.4733 200.846 61.4294L206.077 46.7041Z" fill="#18A418"/>
<path d="M216.627 47.9559C215.66 46.9449 214.209 46.4395 212.297 46.4395C208.275 46.4614 206.319 48.5713 206.319 52.8351C206.319 57.1208 208.253 59.2526 212.253 59.3625C215.242 59.3625 217.088 58.1318 217.879 55.4944H215.638C215.22 55.4944 214.89 55.6702 214.627 55.934C213.923 56.5933 213.132 56.923 212.297 56.923C210.539 56.923 209.572 55.8241 209.44 53.7581L209.418 53.5164H218.143C218.253 51.0988 217.747 49.1208 216.627 47.9559ZM209.44 51.7581L209.462 51.5164C209.725 49.7362 210.692 48.7691 212.209 48.7691C213.747 48.7691 214.67 49.7362 214.89 51.5384L214.912 51.7801H209.44V51.7581Z" fill="#18A418"/>
<path d="M225.615 49.5612H226.583V46.7041H226.275C221.835 46.7041 219.55 48.6382 219.55 52.6821V59.2316H222.626V52.6382C222.626 50.6821 223.637 49.5612 225.615 49.5612Z" fill="#18A418"/>
<path d="M114.934 51.3187L114.912 50.989V50.9011V50.7033L114.89 50.5055C114.846 50.2418 114.802 49.978 114.78 49.7143C114.714 49.4505 114.648 49.2088 114.582 48.9451C114.539 48.7033 114.429 48.4615 114.341 48.2198C114.253 47.978 114.187 47.7363 114.055 47.5165L113.725 46.8571C113.615 46.6374 113.484 46.4396 113.352 46.2418C113.11 45.8462 112.824 45.4945 112.56 45.1648C111.967 44.5275 111.374 43.956 110.736 43.5385C109.484 42.6813 108.253 42.2857 107.242 42.1099C107.11 42.0879 107 42.0659 106.868 42.044C106.758 42.044 106.626 42.022 106.517 42.022C106.297 42 106.077 42 105.879 42C105.484 42.022 105.154 42.022 104.89 42.0659C104.714 42.0879 104.495 42.1099 104.385 42.1319C104.407 42.1978 104.495 42.2637 104.517 42.3297C104.626 42.3516 104.736 42.3956 104.868 42.4396C105.11 42.5055 105.396 42.6374 105.725 42.7692C105.879 42.8352 106.055 42.9451 106.231 43.033L106.495 43.1648C106.582 43.2308 106.67 43.2747 106.78 43.3407C107.528 43.8022 108.341 44.4615 109.044 45.3846C109.396 45.8242 109.681 46.3516 109.945 46.9011C110.165 47.4725 110.385 48.044 110.473 48.6813C110.539 49.3187 110.626 49.956 110.517 50.6154L110.495 50.7473V50.7033L110.473 50.7912L110.429 51.1209C110.385 51.3187 110.363 51.6044 110.319 51.6923L110.187 52.0879L109.989 52.5495C109.44 53.7582 108.539 54.8352 107.352 55.4945C106.758 55.8242 106.517 55.9341 105.857 56.0659C105.725 56.0879 105.637 56.0879 105.637 56.0879L105.659 59.2747C105.44 60.1758 104.385 60.6154 103.725 60.6154H103.506C102.033 60.6154 100.78 59.4505 100.648 58.2198L100.604 57.8462C99.022 59.5824 97.1979 60.5934 93.8132 60.5934C90.077 60.5934 87.0001 59.1429 84.9121 56.6374C84.6704 56.6593 84.4286 56.6593 84.1869 56.6593L83.8132 56.6813H83.4616H83.5935H82.6045C82.4726 56.6593 82.3187 56.6593 82.1649 56.6154C81.5935 56.5055 81.044 56.2418 80.5605 55.9121C79.5935 55.2308 78.9121 54.1538 78.6924 53.011L78.6704 52.8571L78.6484 52.8132L78.6264 52.5055L78.6045 52.2198V52.044C78.5825 51.8242 78.6045 51.5165 78.6264 51.2308C78.6924 50.6593 78.8682 50.1319 79.088 49.6264C79.5275 48.6374 80.2308 47.8681 80.9121 47.3407C81.3517 47.011 81.7693 46.7692 82.1429 46.5934C82.1649 46.3736 82.4726 45.9341 82.4946 45.7143C82.011 45.6923 81.088 45.978 80.3407 46.1758C79.3297 46.4396 78.1209 47.033 77.044 48.1758C76.5165 48.7473 76.011 49.4505 75.6374 50.2637C75.4616 50.6813 75.2858 51.0989 75.1759 51.6484C75.1539 51.7802 75.1099 51.9121 75.088 52.044L75.044 52.3297L75.0001 52.6154V52.8791L74.9781 53.0769C74.9121 54.1099 75.044 55.2088 75.4176 56.3077C75.7913 57.4066 76.4067 58.4615 77.2638 59.3846C78.1209 60.3077 79.2198 61.0769 80.4726 61.6044C80.7803 61.7582 81.1099 61.8462 81.4396 61.9341C81.5935 61.978 81.7913 62.022 81.9891 62.0659L82.5825 62.1758L82.7143 62.1978H82.8023L82.9781 62.2198L83.3517 62.2637C83.6594 62.2857 83.9671 62.2857 84.2528 62.3077C85.2638 62.3736 86.2748 62.3956 87.3077 62.4396C87.8352 62.4615 88.3407 62.4835 88.8682 62.5055C89.3957 62.5275 89.9231 62.5275 90.4506 62.5275C92.5605 62.5934 94.6924 62.5714 96.8462 62.5714C98.9781 62.5494 101.132 62.5055 103.242 62.4396C103.791 62.4176 104.209 62.4176 105 62.3516C105.352 62.3297 105.703 62.2637 106.055 62.1978L106.582 62.0879L107.088 61.9341C108.429 61.5385 109.681 60.9231 110.736 60.0879C112.89 58.4615 114.231 56.1319 114.758 53.8242C114.802 53.5385 114.868 53.2527 114.912 52.967C114.956 52.6593 114.978 52.3297 115 52.022C114.978 51.7143 114.934 51.5385 114.934 51.3187Z" fill="#009900"/>
<path d="M167.813 59.2972V51.0994C167.813 50.2862 167.725 49.5609 167.527 48.9236C167.33 48.2862 167.022 47.7587 166.582 47.3192C166.143 46.8796 165.571 46.5499 164.868 46.3302C164.165 46.1104 163.286 45.9785 162.275 45.9785C161.242 45.9785 160.363 46.0884 159.637 46.3082C158.912 46.528 158.341 46.8357 157.879 47.2532C157.44 47.6488 157.11 48.1324 156.912 48.7038C156.714 49.2752 156.604 49.8906 156.582 50.5499H159.769C159.857 49.9785 160.077 49.495 160.407 49.1653C160.758 48.8137 161.308 48.6379 162.099 48.6379C162.758 48.6379 163.308 48.7477 163.681 48.9895C164.055 49.2313 164.275 49.5609 164.275 49.9785C164.275 50.4401 164.121 50.7697 163.835 50.9675C163.527 51.1653 162.956 51.3412 162.099 51.451C161.242 51.5829 160.451 51.7148 159.725 51.8686C159 52.0225 158.363 52.2423 157.835 52.5719C157.308 52.8796 156.89 53.3192 156.604 53.8686C156.297 54.4181 156.165 55.1653 156.165 56.0884C156.165 57.1434 156.516 58.0005 157.198 58.6598C157.901 59.3192 158.978 59.6488 160.472 59.6488C161.352 59.6488 162.121 59.517 162.78 59.2313C163.44 58.9675 163.989 58.5939 164.385 58.1324C164.429 58.5719 164.494 58.9675 164.604 59.2972H167.813ZM164.363 54.3741C164.363 54.7697 164.275 55.1214 164.121 55.473C163.945 55.8247 163.725 56.1104 163.461 56.3741C163.198 56.6379 162.868 56.8357 162.494 56.9895C162.121 57.1434 161.703 57.2093 161.264 57.2093C160.165 57.2093 159.615 56.7258 159.615 55.7587C159.615 55.1873 159.791 54.7697 160.165 54.462C160.538 54.1543 161.22 53.9126 162.187 53.7148C162.824 53.5829 163.308 53.473 163.637 53.3631C163.967 53.2532 164.231 53.1214 164.407 52.9455L164.363 54.3741Z" fill="black"/>
<path d="M190.363 58.2417L190.648 57.912L190.692 58.3076C190.714 58.6812 190.78 59.0329 190.846 59.2526H193.616V51.3625C193.616 50.5713 193.572 49.868 193.396 49.2526C193.22 48.6373 192.934 48.1318 192.539 47.7142C192.121 47.2966 191.594 46.9889 190.912 46.7691C190.231 46.5493 189.374 46.4395 188.385 46.4395C187.374 46.4395 186.517 46.5493 185.813 46.7691C185.132 46.9889 184.561 47.2746 184.143 47.6702C183.725 48.0438 183.418 48.5493 183.22 49.0768C183.044 49.5603 182.934 50.0438 182.912 50.7032H185.747C185.857 50.0438 186.077 49.6702 186.407 49.3406C186.78 48.9449 187.396 48.7471 188.231 48.7471C188.934 48.7471 189.506 48.857 189.923 49.1208C190.385 49.3845 190.605 49.7801 190.605 50.2636C190.605 50.7911 190.429 51.1647 190.077 51.4065C189.747 51.6263 189.154 51.8021 188.253 51.912C187.396 52.0438 186.605 52.1757 185.879 52.3076C185.176 52.4614 184.561 52.6812 184.055 52.9889C183.55 53.2966 183.176 53.6922 182.89 54.2197C182.605 54.7471 182.473 55.4504 182.473 56.3515C182.473 57.3406 182.802 58.1757 183.462 58.7911C184.121 59.4065 185.176 59.7362 186.605 59.7362C187.462 59.7362 188.209 59.6043 188.846 59.3406C189.462 59.0329 189.989 58.6812 190.363 58.2417ZM188.648 57.3625C188.253 57.5164 187.813 57.6043 187.352 57.6043C185.835 57.6043 185.506 56.7252 185.506 55.9779C185.506 55.3625 185.725 54.879 186.121 54.5493C186.517 54.2197 187.198 53.9779 188.231 53.7801C188.846 53.6702 189.33 53.5384 189.659 53.4504C189.967 53.3625 190.187 53.2307 190.341 53.0768L190.67 52.7471L190.627 54.6373C190.627 55.0548 190.539 55.4504 190.363 55.8021C190.187 56.1537 189.945 56.4834 189.659 56.7471C189.396 56.9889 189.044 57.2087 188.648 57.3625Z" fill="#18A418"/>
</svg>
