<svg width="300" height="100" viewBox="0 0 300 100" fill="none" xmlns="http://www.w3.org/2000/svg">
<rect width="300" height="100" fill="white"/>
<g clip-path="url(#clip0_291_4273)">
<path fill-rule="evenodd" clip-rule="evenodd" d="M202.854 69.4281L195.408 42.0534L184.372 67.3924C183.979 68.2138 183.497 68.8566 182.925 69.321C182.39 69.7495 181.711 69.9639 180.89 69.9639C179.283 69.9639 178.122 69.1067 177.408 67.3924L168.479 47.9999L169.104 69.4281H162.301V32.7857C162.765 30.9286 163.89 30 165.676 30C166.39 30 167.051 30.1964 167.658 30.5893C168.3 30.9821 168.783 31.5535 169.104 32.3035L181.104 59.839L193.103 32.3035C193.747 30.7678 194.836 30 196.372 30C198.014 30 199.103 30.9286 199.64 32.7857L209.604 69.4281H202.854ZM75.4266 69.607C72.7124 69.607 70.1946 69.107 67.8731 68.107C65.5874 67.0712 63.5875 65.6785 61.8732 63.9284C60.1946 62.1427 58.8732 60.0356 57.909 57.6071C56.9804 55.1786 56.5161 52.5535 56.5161 49.7321C56.5161 46.8751 56.9804 44.268 57.909 41.9108C58.8732 39.5537 60.1946 37.5537 61.8732 35.9109C63.5875 34.2323 65.5874 32.9466 67.8731 32.0538C70.1946 31.1252 72.7124 30.6609 75.4266 30.6609H96.5335V37.4644H75.4266C73.6766 37.4644 72.0516 37.7859 70.5517 38.4287C69.0874 39.0359 67.8196 39.893 66.7481 41.0001C65.6767 42.1073 64.8374 43.4286 64.2303 44.9644C63.6232 46.5 63.3196 48.1965 63.3196 50.0535C63.3196 51.875 63.6232 53.5714 64.2303 55.1428C64.8374 56.7142 65.6767 58.0714 66.7481 59.2142C67.8196 60.3213 69.0874 61.1963 70.5517 61.8392C72.0516 62.4821 73.6766 62.8035 75.4266 62.8035H92.0871V52.6786H74.5159V46.9465H98.9442V69.607H75.4266ZM104.499 69.607V30.6609H111.303V69.607H104.499ZM127.567 68.107C129.888 69.107 132.406 69.607 135.12 69.607H158.638V46.9465H134.21V52.6786H151.781V62.8035H135.12C133.37 62.8035 131.745 62.4821 130.245 61.8392C128.781 61.1963 127.513 60.3213 126.442 59.2142C125.371 58.0714 124.531 56.7142 123.924 55.1428C123.317 53.5714 123.013 51.875 123.013 50.0535C123.013 48.1965 123.317 46.5 123.924 44.9644C124.531 43.4286 125.371 42.1073 126.442 41.0001C127.513 39.893 128.781 39.0359 130.245 38.4287C131.745 37.7859 133.37 37.4644 135.12 37.4644H156.227V30.6609H135.12C132.406 30.6609 129.888 31.1252 127.567 32.0538C125.281 32.9466 123.281 34.2323 121.567 35.9109C119.888 37.5537 118.567 39.5537 117.603 41.9108C116.674 44.268 116.21 46.8751 116.21 49.7321C116.21 52.5535 116.674 55.1786 117.603 57.6071C118.567 60.0356 119.888 62.1427 121.567 63.9284C123.281 65.6785 125.281 67.0712 127.567 68.107ZM230.921 65.5889C230.921 68.6103 228.88 69.7675 227 69.7675H226.983C224.702 69.7675 223.079 68.2406 223.079 65.7014C223.079 63.0979 224.717 61.539 227.097 61.539C229.443 61.539 230.921 63.2104 230.921 65.5889ZM225.907 65.6532C225.907 66.8907 226.244 67.7746 227.032 67.7746H227.048C227.755 67.7746 228.093 66.8746 228.093 65.6532C228.093 64.5764 227.804 63.5319 227.032 63.5319C226.181 63.5319 225.907 64.6086 225.907 65.6532ZM222.56 67.3889C222.239 67.5335 221.885 67.5818 221.452 67.5818C220.455 67.5818 219.667 66.9068 219.667 65.621C219.652 64.4317 220.374 63.6925 221.419 63.6925C221.917 63.6925 222.255 63.7729 222.512 63.8693L222.881 61.7961C222.432 61.6354 221.805 61.5551 221.259 61.5551C218.397 61.5551 216.855 63.3872 216.855 65.7335C216.855 68.2728 218.43 69.7514 220.906 69.7514C221.708 69.7514 222.448 69.6228 222.834 69.4621L222.56 67.3889ZM214.646 69.7675C215.595 69.7675 216.237 69.0925 216.237 68.1121C216.222 67.0996 215.563 66.4408 214.662 66.4408C213.763 66.4408 213.071 67.1317 213.071 68.1121C213.071 69.0925 213.746 69.7675 214.631 69.7675H214.646ZM231.899 69.6067H234.615V64.9622C234.615 64.7533 234.631 64.5443 234.695 64.3836C234.824 64.0943 235.066 63.7889 235.499 63.7889C236.126 63.7889 236.319 64.3996 236.319 65.139V69.6067H239.035V64.9622C239.035 64.7854 239.05 64.5443 239.099 64.4157C239.227 64.0461 239.501 63.7889 239.919 63.7889C240.514 63.7889 240.738 64.3675 240.738 65.2996V69.6067H243.454V64.8818C243.454 62.7925 242.603 61.539 240.947 61.539C240.449 61.539 240.015 61.6515 239.63 61.8444C239.244 62.0533 238.906 62.3586 238.617 62.7283H238.585C238.28 62.005 237.556 61.539 236.575 61.539C235.37 61.539 234.68 62.2139 234.359 62.664H234.31L234.181 61.6997H231.835C231.867 62.4551 231.899 63.355 231.899 64.3354V69.6067ZM206.152 36.5712H204.763V32.3525H203.516V31.1552H207.422V32.3525H206.152V36.5712ZM213.484 36.5712H212.166L212.094 34.6989C212.079 34.1445 212.062 33.4373 212.062 32.6739H212.037C211.902 33.3489 211.693 34.1203 211.548 34.6346L211.058 36.4587H209.997L209.572 34.6427C209.45 34.1284 209.29 33.365 209.186 32.6739H209.169C209.146 33.1783 209.124 33.7113 209.103 34.1766V34.1926L209.089 34.5126L209.081 34.6989L209 36.5712H207.747L208.108 31.1552H209.861L210.214 32.69C210.359 33.3168 210.511 34.0078 210.615 34.6587H210.64C210.768 34.0159 210.937 33.2846 211.081 32.682L211.467 31.1552H213.195L213.484 36.5712Z" fill="#F63C38"/>
</g>
<defs>
<clipPath id="clip0_291_4273">
<rect width="186.968" height="40" fill="white" transform="translate(56.5161 30)"/>
</clipPath>
</defs>
</svg>
