<svg width="300" height="100" viewBox="0 0 300 100" fill="none" xmlns="http://www.w3.org/2000/svg">
<rect width="300" height="100" fill="white"/>
<g clip-path="url(#clip0_298_11813)">
<path d="M105.703 70C116.749 70 125.703 61.0457 125.703 50C125.703 38.9543 116.749 30 105.703 30C94.6574 30 85.7031 38.9543 85.7031 50C85.7031 61.0457 94.6574 70 105.703 70Z" fill="#00C795"/>
<path fill-rule="evenodd" clip-rule="evenodd" d="M105.7 47.0001C104.894 46.9627 104.108 47.2667 103.537 47.8376C102.966 48.4086 102.662 49.1936 102.699 50.0001C102.662 50.8066 102.966 51.5916 103.537 52.1625C104.108 52.7335 104.894 53.0375 105.7 53.0001H108.701L108.703 50H113.703V58H105.7C102.08 57.9972 98.9118 55.5645 97.9758 52.068C97.0399 48.5715 98.569 44.8825 101.704 43.0724C104.84 41.2623 108.801 41.7822 111.362 44.3402L107.961 47.7401C107.342 47.1927 106.524 46.9249 105.7 47.0001Z" fill="white"/>
<path d="M141.428 58C145.553 58 148.507 55.5057 148.507 51.2471V49.0875H141.521V52.0989H144.383C144.345 53.4525 143.375 54.3194 141.459 54.3194C139.243 54.3194 138.104 52.7072 138.104 49.9696C138.104 47.27 139.335 45.6806 141.49 45.6806C142.829 45.6806 143.737 46.289 143.998 47.3536H148.323C147.992 44.2281 145.122 42 141.398 42C137.15 42 133.703 44.8897 133.703 50.0304C133.703 54.9582 136.827 58 141.428 58ZM155.723 58C159.57 58 161.848 55.5665 161.848 51.9772C161.848 48.3878 159.57 45.9544 155.723 45.9544C151.876 45.9544 149.598 48.3878 149.598 51.9772C149.598 55.5665 151.876 58 155.723 58ZM155.754 54.8973C154.615 54.8973 153.938 53.7795 153.938 51.9468C153.938 50.1141 154.615 48.9962 155.754 48.9962C156.831 48.9962 157.508 50.1141 157.508 51.9468C157.508 53.7795 156.831 54.8973 155.754 54.8973ZM167.259 57.7871V54.4715L167.898 53.673L170.306 57.7871H175.169L171.03 51.2243L175.046 46.1065H170.275L167.413 50.0304H167.259V42.2129H163.012V57.7871H167.259ZM179.447 57.9696C180.986 57.9696 182.148 57.4525 182.864 56.1445H182.956V57.7871H186.926V49.7871C186.926 47.6274 184.857 45.9544 181.479 45.9544C177.947 45.9544 176.208 47.7795 176.062 49.9087H179.971C180.071 49.1863 180.609 48.8441 181.417 48.8441C182.156 48.8441 182.679 49.1787 182.679 49.7871V49.8175C182.679 50.4943 181.925 50.7072 179.94 50.8517C177.501 51.0266 175.6 52 175.6 54.5627C175.6 56.8897 177.185 57.9696 179.447 57.9696ZM180.832 55.3232C180.109 55.3232 179.601 54.9734 179.601 54.3194C179.601 53.7186 180.032 53.2548 181.017 53.1027C181.694 52.9962 182.263 52.8593 182.71 52.6768V53.6502C182.71 54.7148 181.794 55.3232 180.832 55.3232ZM193.236 57.9392C194.898 57.9392 196.037 57.057 196.529 55.8707H196.621V57.7871H200.838V42.2129H196.591V48.1445H196.529C196.067 46.9582 194.959 45.9544 193.205 45.9544C190.866 45.9544 188.588 47.7186 188.588 51.9468C188.588 55.9924 190.712 57.9392 193.236 57.9392ZM194.805 54.7148C193.636 54.7148 192.959 53.6806 192.959 51.9468C192.959 50.2129 193.636 49.1787 194.805 49.1787C195.975 49.1787 196.683 50.2129 196.683 51.9468C196.683 53.6502 195.975 54.7148 194.805 54.7148ZM206.224 57.9696C207.763 57.9696 208.925 57.4525 209.64 56.1445H209.733V57.7871H213.703V49.7871C213.703 47.6274 211.633 45.9544 208.255 45.9544C204.724 45.9544 202.985 47.7795 202.839 49.9087H206.747C206.847 49.1863 207.386 48.8441 208.194 48.8441C208.933 48.8441 209.456 49.1787 209.456 49.7871V49.8175C209.456 50.4943 208.702 50.7072 206.717 50.8517C204.277 51.0266 202.377 52 202.377 54.5627C202.377 56.8897 203.962 57.9696 206.224 57.9696ZM207.609 55.3232C206.886 55.3232 206.378 54.9734 206.378 54.3194C206.378 53.7186 206.809 53.2548 207.794 53.1027C208.471 52.9962 209.04 52.8593 209.487 52.6768V53.6502C209.487 54.7148 208.571 55.3232 207.609 55.3232Z" fill="#00C795"/>
</g>
<defs>
<clipPath id="clip0_298_11813">
<rect width="128" height="40" fill="white" transform="translate(85.7031 30)"/>
</clipPath>
</defs>
</svg>
