<svg width="300" height="100" viewBox="0 0 300 100" fill="none" xmlns="http://www.w3.org/2000/svg">
<rect width="300" height="100" fill="white"/>
<path d="M210.379 42.5541H203.586V58.3637H206.43V53.3117H210.378C213.372 53.3117 215.749 50.9365 215.749 47.9405C215.749 44.9445 213.374 42.5693 210.378 42.5693V42.5533L210.379 42.5541ZM212.754 47.9253C212.754 49.3469 211.8 50.6197 210.379 50.6197H210.228H206.429V45.2485H210.228C211.649 45.2485 212.753 46.3525 212.753 47.9429L212.754 47.9253ZM236.143 52.9765L238.351 55.5021L242.936 51.2349L252.89 62.4613H240.561C233.617 62.4613 228.081 56.9237 228.081 49.9813C228.081 43.0389 233.619 37.5013 240.561 37.5013H252.574L245.932 43.8253L248.14 46.3509L260.94 34.1885H240.544C231.86 34.1885 224.734 41.2989 224.734 49.9981C224.734 58.6973 231.844 65.8077 240.544 65.8077H260.134L243.069 46.3661L236.125 53.0077L236.143 52.9765ZM66.1133 42.2365C65.7957 42.2365 65.6445 42.2365 65.3269 42.2365C60.7421 42.0853 56.9453 45.5485 56.7941 50.1493C56.6429 54.7501 60.1061 58.5309 64.7069 58.6821C65.0245 58.6821 65.1757 58.6821 65.4933 58.6821C70.0781 58.8333 73.8749 55.3701 74.0261 50.7693C74.1781 46.3349 70.7149 42.3869 66.1133 42.2365ZM70.8485 50.4509C70.8485 53.4453 68.4733 55.9885 65.4773 56.1397H65.3261C62.3317 56.1397 59.7885 53.7645 59.7885 50.7685V50.6173C59.4709 47.6229 61.6789 44.7789 64.6909 44.4437C67.7029 44.1085 70.5293 46.3341 70.8645 49.3461C71.0157 49.6637 71.0157 50.1325 70.8645 50.4501L70.8485 50.4509ZM96.2789 42.5541H90.5901V58.3637H96.2789C101.65 58.3637 104.493 55.2021 104.493 50.4509C104.493 45.6997 101.649 42.5381 96.2789 42.5381V42.5541ZM96.1437 55.8221H93.4493V45.0813H96.1437C100.26 45.0813 101.832 47.4565 101.832 50.4525C101.832 53.6125 100.244 55.8221 96.1437 55.8221ZM46.6557 51.7221H51.0893V54.7165C49.9853 55.6701 48.7141 56.1381 47.2909 56.1381C44.2965 56.1381 41.7533 53.7629 41.7533 50.7669C41.7533 50.6157 41.7533 50.6157 41.7533 50.4493C41.7533 47.4549 44.1285 44.9117 47.1245 44.7605H47.2757C48.6973 44.7605 50.2701 45.2293 51.2237 46.3493L53.1141 44.6101C51.5253 43.0213 49.4837 42.2349 47.2757 42.2349C42.6909 42.2349 39.0613 45.8653 39.0613 50.4493C39.0613 55.0333 42.6917 58.6637 47.2757 58.6637C49.8013 58.6637 52.1781 57.5597 53.7509 55.6693V49.3453H46.6405V51.7205L46.6557 51.7221ZM80.3181 42.5541H77.4741V58.3637H86.6421V55.8381H80.3181V42.5541ZM173.572 52.0397C173.572 54.8837 172.151 56.1557 169.942 56.1557C167.734 56.1557 166.312 54.9005 166.312 52.0397V42.5541H163.468V52.3573C163.468 55.8205 166.312 58.8325 169.943 58.8325C173.406 58.8325 176.418 55.9885 176.418 52.3573V42.5541H173.574V52.0397H173.572ZM184.313 42.5541H181.469V58.3637H190.47V55.8381H184.297L184.313 42.5541ZM194.887 42.5541H197.731V58.3637H194.887V42.5541ZM147.489 45.0797H152.224V58.3461H155.068V45.0797H159.802V42.5541H147.472L147.489 45.0797ZM135.16 53.4453L126.779 42.5541H124.253V58.3637H126.946V47.1373L135.629 58.3637H137.837V42.5541H135.143L135.16 53.4453ZM111.62 51.4045H118.413V48.8789H111.62V45.0797H118.882V42.5541H108.759V58.3637H119.031V55.8381H111.603L111.62 51.4045Z" fill="#727573"/>
</svg>
