<svg width="300" height="100" viewBox="0 0 300 100" fill="none" xmlns="http://www.w3.org/2000/svg">
<rect width="300" height="100" fill="white"/>
<g clip-path="url(#clip0_298_11801)">
<path d="M99.9135 56.3072L105.379 56.286V60.7842C105.121 61.4268 104.744 62.02 104.246 62.5673C103.748 63.1145 103.123 63.5453 102.367 63.8666C101.612 64.1879 100.715 64.3468 99.6699 64.3468C97.4561 64.3468 95.8143 63.7289 94.748 62.4931C93.6817 61.2574 93.1486 59.499 93.1486 57.2217V51.3712C93.1486 48.5961 93.83 46.5164 95.1964 45.1359C96.5593 43.7554 98.6884 43.0669 101.577 43.0669C103.501 43.0669 105.22 43.2964 106.728 43.7518C108.236 44.2108 109.577 44.744 110.749 45.3513L110.22 39.9104C109.496 39.5079 108.642 39.1442 107.656 38.8158C106.668 38.4875 105.57 38.2121 104.359 37.9967C103.148 37.7813 101.82 37.6719 100.376 37.6719C95.8991 37.6719 92.4989 38.8194 90.1792 41.1144C87.8595 43.4094 86.7014 46.7318 86.7014 51.0817V57.197C86.7014 59.8451 87.0969 62.1047 87.8948 63.9725C88.6892 65.8438 89.8756 67.2703 91.4574 68.2589C93.0391 69.2475 94.9987 69.7383 97.3431 69.7383C99.0591 69.7383 100.457 69.484 101.531 68.9791C102.604 68.4742 103.434 67.7963 104.009 66.9454C104.588 66.0945 105.005 65.1412 105.263 64.082H105.506L105.333 69.0886H111.473V51.2971H99.9171V56.3037L99.9135 56.3072Z" fill="#061D37"/>
<path d="M126.228 44.8252C122.57 44.8252 119.795 45.7679 117.91 47.6533C116.024 49.5388 115.082 52.2221 115.082 55.707V58.9094C115.082 62.3766 116.024 65.0494 117.91 66.9278C119.795 68.8061 122.567 69.7453 126.228 69.7453C129.89 69.7453 132.651 68.8061 134.522 66.9278C136.39 65.0494 137.325 62.3766 137.325 58.9094V55.707C137.325 52.2257 136.386 49.5388 134.508 47.6533C132.629 45.7679 129.868 44.8252 126.225 44.8252H126.228ZM131.164 59.2236C131.164 61.0208 130.744 62.4013 129.9 63.3652C129.056 64.3291 127.835 64.8093 126.228 64.8093C124.622 64.8093 123.375 64.3291 122.531 63.3652C121.688 62.4013 121.267 61.0208 121.267 59.2236V55.3963C121.267 53.5674 121.688 52.1656 122.531 51.1947C123.375 50.2237 124.608 49.7365 126.228 49.7365C127.849 49.7365 129.056 50.2237 129.9 51.1947C130.744 52.1656 131.164 53.5674 131.164 55.3963V59.2236Z" fill="#061D37"/>
<path d="M147.572 38.3252H141.216V69.0923H144.779H147.572H160.886V63.7714H147.572V38.3252Z" fill="#061D37"/>
<path d="M180.083 46.0757C178.494 45.2424 176.51 44.8223 174.137 44.8223C170.62 44.8223 167.941 45.7614 166.097 47.6398C164.251 49.5182 163.329 52.2051 163.329 55.7041V58.7864C163.329 62.3172 164.318 65.0147 166.292 66.8754C168.265 68.7361 171.274 69.6682 175.32 69.6682C177.085 69.6682 178.695 69.4952 180.146 69.1492C181.598 68.8032 182.862 68.3336 183.938 67.7404L184.468 62.8786C183.264 63.44 181.993 63.8848 180.651 64.2132C179.31 64.5416 177.904 64.7075 176.425 64.7075C175.062 64.7075 173.925 64.5804 173.018 64.3227C172.11 64.0649 171.383 63.7083 170.839 63.2528C170.292 62.7938 169.904 62.2536 169.671 61.6287C169.438 61.0037 169.321 60.3223 169.321 59.5808V59.4361H184.535C184.63 58.9065 184.708 58.3416 184.765 57.7378C184.821 57.1376 184.849 56.5444 184.849 55.9689V55.125C184.849 52.9889 184.45 51.1565 183.656 49.6241C182.862 48.0918 181.668 46.9089 180.079 46.0722L180.083 46.0757ZM169.296 55.3439V54.839C169.296 53.1549 169.688 51.852 170.476 50.9375C171.263 50.0231 172.481 49.5641 174.133 49.5641C175.256 49.5641 176.181 49.7653 176.902 50.1678C177.625 50.5703 178.162 51.16 178.515 51.9368C178.868 52.717 179.045 53.6598 179.045 54.7649C179.045 54.952 179.045 55.1427 179.045 55.3439H169.296Z" fill="#061D37"/>
<path d="M220.584 45.9445C219.518 45.2772 218.123 44.9453 216.407 44.9453C214.868 44.9453 213.593 45.196 212.591 45.6903C211.588 46.1881 210.797 46.859 210.218 47.6993C209.639 48.5432 209.222 49.4682 208.964 50.4815H208.724C208.368 48.8468 207.732 47.5616 206.807 46.6295C205.691 45.5067 204.036 44.9453 201.836 44.9453C200.374 44.9453 199.156 45.1889 198.178 45.6797C197.2 46.1705 196.423 46.8307 195.855 47.6675C195.286 48.5008 194.88 49.44 194.64 50.4851H194.389L194.591 45.4785H188.426V69.0957H194.591V53.3944C194.778 52.8577 195.029 52.3634 195.35 51.9186C195.759 51.3501 196.282 50.8946 196.914 50.5592C197.546 50.2238 198.305 50.0543 199.188 50.0543C200.134 50.0543 200.886 50.245 201.44 50.6334C201.995 51.0182 202.39 51.562 202.634 52.2575C202.874 52.9566 202.994 53.7863 202.994 54.7502V69.0993H209.159V53.8605C209.159 53.7263 209.152 53.5816 209.145 53.4368C209.332 52.8825 209.582 52.3776 209.904 51.9221C210.306 51.3536 210.825 50.8982 211.468 50.5628C212.11 50.2273 212.862 50.0579 213.731 50.0579C214.677 50.0579 215.429 50.2485 215.984 50.6369C216.538 51.0218 216.933 51.5655 217.177 52.261C217.417 52.9601 217.537 53.7899 217.537 54.7538V69.1028H223.723V53.864C223.723 51.9044 223.465 50.2662 222.953 48.9421C222.438 47.6181 221.65 46.6224 220.581 45.9551L220.584 45.9445Z" fill="#061D37"/>
<path d="M238.302 44.8252C234.644 44.8252 231.869 45.7679 229.983 47.6533C228.098 49.5388 227.155 52.2221 227.155 55.707V58.9094C227.155 62.3766 228.098 65.0494 229.983 66.9278C231.869 68.8061 234.64 69.7453 238.302 69.7453C241.963 69.7453 244.724 68.8061 246.595 66.9278C248.467 65.0494 249.399 62.3766 249.399 58.9094V55.707C249.399 52.2257 248.46 49.5388 246.581 47.6533C244.703 45.7679 241.942 44.8252 238.298 44.8252H238.302ZM243.238 59.2236C243.238 61.0208 242.817 62.4013 241.974 63.3652C241.13 64.3291 239.908 64.8093 238.302 64.8093C236.695 64.8093 235.449 64.3291 234.605 63.3652C233.761 62.4013 233.341 61.0208 233.341 59.2236V55.3963C233.341 53.5674 233.761 52.1656 234.605 51.1947C235.449 50.2237 236.677 49.7365 238.302 49.7365C239.926 49.7365 241.13 50.2237 241.974 51.1947C242.817 52.1656 243.238 53.5674 243.238 55.3963V59.2236Z" fill="#061D37"/>
<path d="M273.733 49.0134C273.196 47.6646 272.363 46.6513 271.24 45.9663C270.117 45.2849 268.648 44.9424 266.834 44.9424C265.277 44.9424 263.981 45.186 262.946 45.6768C261.912 46.1676 261.093 46.8278 260.492 47.6646C259.892 48.4979 259.461 49.437 259.204 50.4821H258.946L259.154 45.4755H252.99V69.0928H259.154V53.4515C259.37 52.8901 259.652 52.3782 260.009 51.9156C260.45 51.3472 261.018 50.8917 261.718 50.5563C262.417 50.2209 263.229 50.0514 264.161 50.0514C265.22 50.0514 266.053 50.2526 266.664 50.6516C267.275 51.0541 267.713 51.6155 267.978 52.3358C268.242 53.0596 268.377 53.9176 268.377 54.9133V69.0928H274.541V54.0235C274.541 52.0322 274.273 50.3656 273.736 49.0169L273.733 49.0134Z" fill="#061D37"/>
<path d="M61.0714 39.4346H46.6306C46.1681 39.4346 45.7903 39.8088 45.7903 40.2714V45.5463V54.7157C45.7903 63.1542 52.6364 69.9968 61.075 70.0004C69.5135 70.0004 76.3561 63.1578 76.3561 54.7192C76.3561 46.2807 69.5135 39.4381 61.0714 39.4346ZM61.075 63.8851C56.0083 63.8851 51.9056 59.7788 51.9056 54.7157V48.2226C51.9056 46.7432 53.1025 45.5463 54.5819 45.5463H61.075C66.1381 45.5463 70.2443 49.6526 70.2443 54.7157C70.2443 59.7788 66.1381 63.8851 61.075 63.8851Z" fill="#061D37"/>
<path d="M43.2553 40.2426C43.2553 39.6212 43.0046 39.021 42.5633 38.5832L35.304 31.3204C33.5422 29.5586 30.6858 29.5586 28.9239 31.3204C27.8718 32.3761 27.3421 33.8802 27.6211 35.3419C28.0624 37.6511 30.0679 39.2682 32.3594 39.2682L38.8877 39.307C40.4625 39.3176 41.2463 41.2171 40.1376 42.3364L35.3005 47.2159C33.4398 49.0766 33.5069 52.1872 35.6465 53.9561C36.6528 54.7894 38.0086 55.1425 39.2938 54.9024C41.617 54.4716 43.2447 52.4591 43.2447 50.157V40.2285V40.2497V40.2356L43.2553 40.2426Z" fill="#061D37"/>
</g>
<defs>
<clipPath id="clip0_298_11801">
<rect width="246.991" height="40" fill="white" transform="translate(27.5469 30)"/>
</clipPath>
</defs>
</svg>
