<svg width="300" height="100" viewBox="0 0 300 100" fill="none" xmlns="http://www.w3.org/2000/svg">
<rect width="300" height="100" fill="white"/>
<g clip-path="url(#clip0_298_11789)">
<path d="M38.919 33.1232C43.3972 33.1232 47.4516 35.7756 49.2407 39.8875L52.1025 38.6372C49.8163 33.39 44.6372 30 38.919 30C31.7571 30 25.6311 35.3414 24.6685 42.43L27.7655 42.8485C28.5188 37.3032 33.3161 33.1232 38.919 33.1232Z" fill="#19B820"/>
<path d="M60.2456 44.4023H17.5932C16.934 44.4023 16.4841 45.0615 16.7196 45.6788L25.8904 69.3984C26.0316 69.7593 26.3769 69.9999 26.764 69.9999H51.0696C51.4567 69.9999 51.802 69.7646 51.9431 69.3984L61.114 45.6788C61.3496 45.0667 60.8996 44.4023 60.2405 44.4023H60.2456ZM52.1054 55.6657C49.814 60.9077 44.64 64.2977 38.922 64.2977C31.7601 64.2977 25.634 58.9564 24.6714 51.8677L27.7685 51.4491C28.5218 56.9946 33.3191 61.1744 38.922 61.1744C42.8509 61.1744 46.4502 59.1342 48.4851 55.8646L37.881 51.7369L39.0162 48.8282L52.7594 54.1799L52.1107 55.6711L52.1054 55.6657Z" fill="#19B820"/>
<path d="M87.1661 50.2591C87.1661 57.9093 91.5796 62.0833 97.9092 62.0833C103.869 62.0833 107.482 58.7989 107.482 53.3042V53.1604H97.1085V47.8505H113.066V67.1402H108.002L107.626 63.1987C105.751 65.8264 101.851 67.6602 97.2043 67.6602C87.5834 67.6602 80.8707 60.6669 80.8707 50.1086C80.8707 39.5502 87.6723 32.2764 97.9981 32.2764C105.84 32.2764 111.889 36.8268 112.874 43.8201H106.538C105.457 39.7829 101.987 37.9079 97.8543 37.9079C91.0527 37.9079 87.1592 42.8347 87.1592 50.2523L87.1661 50.2591Z" fill="#09420C"/>
<path d="M128.326 43.3145C135.504 43.3145 140.711 48.2891 140.711 55.5151C140.711 62.7411 135.504 67.7158 128.326 67.7158C121.148 67.7158 115.934 62.7342 115.934 55.5151C115.934 48.296 121.141 43.3145 128.326 43.3145ZM128.326 62.6042C132.267 62.6042 134.991 59.7371 134.991 55.5151C134.991 51.2931 132.267 48.426 128.326 48.426C124.384 48.426 121.661 51.2863 121.661 55.5151C121.661 59.7438 124.384 62.6042 128.326 62.6042Z" fill="#09420C"/>
<path d="M154.943 32.2363C161.889 32.2363 166.302 36.082 166.487 42.2747H160.479C160.335 39.3186 158.228 37.5805 154.847 37.5805C151.139 37.5805 148.744 39.3596 148.744 42.2267C148.744 44.6628 150.057 46.0313 152.918 46.6882L158.317 47.8583C164.181 49.1311 167.048 52.135 167.048 57.2466C167.048 63.6308 162.073 67.7639 154.519 67.7639C146.965 67.7639 142.407 63.8635 142.271 57.7188H148.278C148.326 60.6268 150.673 62.3648 154.519 62.3648C158.365 62.3648 161.047 60.6268 161.047 57.7597C161.047 55.4606 159.87 54.0988 157.058 53.4899L151.618 52.2651C145.801 50.9923 142.749 47.6599 142.749 42.4047C142.749 36.3967 147.724 32.2227 154.95 32.2227L154.943 32.2363Z" fill="#09420C"/>
<path d="M181.284 43.3145C188.462 43.3145 193.669 48.2891 193.669 55.5151C193.669 62.7411 188.462 67.7158 181.284 67.7158C174.106 67.7158 168.892 62.7342 168.892 55.5151C168.892 48.296 174.099 43.3145 181.284 43.3145ZM181.284 62.6042C185.225 62.6042 187.948 59.7371 187.948 55.5151C187.948 51.2931 185.225 48.426 181.284 48.426C177.342 48.426 174.619 51.2863 174.619 55.5151C174.619 59.7438 177.342 62.6042 181.284 62.6042Z" fill="#09420C"/>
<path d="M217.707 43.9707V67.154H212.404L211.986 64.0542C210.577 66.2575 207.573 67.7629 204.48 67.7629C199.129 67.7629 195.981 64.15 195.981 58.4704V43.9707H201.709V56.4587C201.709 60.8655 203.447 62.6513 206.635 62.6513C210.248 62.6513 211.986 60.5369 211.986 56.1233V43.9707H217.714H217.707Z" fill="#09420C"/>
<path d="M236.755 49.1765H234.648C230.521 49.1765 227.935 51.3799 227.935 55.8893V67.1525H222.207V44.0171H227.606L227.935 47.3974C228.92 45.0914 231.124 43.5449 234.223 43.5449C235.017 43.5449 235.818 43.6407 236.755 43.8734V49.1765Z" fill="#09420C"/>
<path d="M248.683 43.2676C255.018 43.2676 259.336 46.7916 259.945 52.3753H254.218C253.561 49.7477 251.632 48.386 248.914 48.386C245.254 48.386 242.812 51.1573 242.812 55.5229C242.812 59.8887 245.063 62.612 248.723 62.612C251.583 62.612 253.601 61.2024 254.218 58.6707H259.992C259.287 64.0696 254.778 67.7782 248.73 67.7782C241.69 67.7782 237.09 62.8927 237.09 55.5298C237.09 48.167 241.832 43.2813 248.683 43.2813V43.2676Z" fill="#09420C"/>
<path d="M261.501 55.5621C261.501 48.2882 266.243 43.2656 273.043 43.2656C279.845 43.2656 284.403 47.9118 284.403 55.1379V56.869L266.941 56.917C267.365 61.0021 269.527 63.0686 273.325 63.0686C276.472 63.0686 278.538 61.8506 279.19 59.6403H284.492C283.507 64.7108 279.278 67.7626 273.23 67.7626C266.332 67.7626 261.494 62.7401 261.494 55.5621H261.501ZM267.083 53.2628H278.723C278.723 50.0742 276.521 47.9529 273.092 47.9529C269.663 47.9529 267.652 49.7868 267.083 53.2628Z" fill="#09420C"/>
</g>
<defs>
<clipPath id="clip0_298_11789">
<rect width="268.889" height="40" fill="white" transform="translate(16.6562 30)"/>
</clipPath>
</defs>
</svg>
