<svg width="300" height="100" viewBox="0 0 300 100" fill="none" xmlns="http://www.w3.org/2000/svg">
<rect width="300" height="100" fill="white"/>
<g clip-path="url(#clip0_298_11776)">
<path d="M135.037 53.7778C134.074 53.7778 133.185 53.5556 132.444 53.1111C131.704 52.6667 131.111 52.0741 130.741 51.2593C130.37 50.4444 130.148 49.5556 130.148 48.4444C130.148 47.4074 130.37 46.4444 130.815 45.6296C131.259 44.8148 131.852 44.1481 132.593 43.7037C133.333 43.2593 134.296 43.037 135.333 43.037C136.519 43.037 137.556 43.3333 138.37 43.9259C139.185 44.5185 139.704 45.3333 139.926 46.3704H137.778C137.63 45.8519 137.333 45.4815 136.889 45.2593C136.444 44.963 135.926 44.8148 135.259 44.8148C134.222 44.8148 133.407 45.1111 132.889 45.7778C132.296 46.4444 132.074 47.3333 132.074 48.5185C132.074 49.7037 132.37 50.5185 132.889 51.1852C133.481 51.8519 134.222 52.1481 135.185 52.1481C136.148 52.1481 136.815 51.9259 137.333 51.4074C137.778 50.8889 138.074 50.2222 138.222 49.4074H135.63V48H140.148V53.7037H138.37L138.296 52.2222C137.926 52.7407 137.556 53.1111 137.037 53.3333C136.519 53.6296 135.852 53.7778 135.037 53.7778ZM141.852 53.5556V46.2222H143.556L143.704 47.6296C144 47.1852 144.37 46.7407 144.815 46.5185C145.259 46.2222 145.852 46.0741 146.444 46.0741V48.0741H145.926C145.481 48.0741 145.111 48.1481 144.815 48.2963C144.519 48.4444 144.222 48.6667 144.074 48.963C143.926 49.2593 143.778 49.7037 143.778 50.2963V53.6296L141.852 53.5556ZM150.889 53.7778C150.148 53.7778 149.481 53.6296 148.889 53.3333C148.296 53.037 147.852 52.5926 147.556 52C147.259 51.4074 147.037 50.7407 147.037 50C147.037 49.2593 147.185 48.5926 147.481 48C147.778 47.4074 148.222 46.963 148.815 46.5926C149.407 46.2963 150.074 46.0741 150.815 46.0741C151.556 46.0741 152.148 46.2222 152.741 46.5185C153.259 46.8148 153.704 47.2593 154.074 47.8519C154.37 48.3704 154.519 49.037 154.519 49.7037V50.4444H148.889C148.963 51.037 149.111 51.4815 149.481 51.7778C149.852 52.0741 150.296 52.2963 150.815 52.2963C151.185 52.2963 151.556 52.2222 151.778 52C152.074 51.8519 152.222 51.6296 152.37 51.3333H154.296C154.148 51.7778 153.926 52.2222 153.63 52.5926C153.333 52.963 152.889 53.2593 152.444 53.4815C152 53.6296 151.481 53.7778 150.889 53.7778ZM150.889 47.5556C150.444 47.5556 150 47.7037 149.63 47.9259C149.259 48.2222 149.037 48.5926 148.963 49.1111H152.593C152.593 48.5926 152.37 48.2222 152.074 47.9259C151.778 47.7037 151.407 47.5556 150.889 47.5556ZM159.407 53.7778C158.667 53.7778 158 53.6296 157.407 53.3333C156.815 53.037 156.37 52.5926 156.074 52C155.778 51.4074 155.556 50.7407 155.556 50C155.556 49.2593 155.704 48.5926 156 48C156.296 47.4074 156.741 46.963 157.333 46.5926C157.926 46.2963 158.593 46.0741 159.333 46.0741C160.074 46.0741 160.667 46.2222 161.259 46.5185C161.778 46.8148 162.222 47.2593 162.593 47.8519C162.889 48.3704 163.037 49.037 163.037 49.7037V50.4444H157.407C157.481 51.037 157.63 51.4815 158 51.7778C158.37 52.0741 158.815 52.2963 159.333 52.2963C159.704 52.2963 160.074 52.2222 160.296 52C160.593 51.8519 160.741 51.6296 160.889 51.3333H162.815C162.667 51.7778 162.444 52.2222 162.148 52.5926C161.852 52.963 161.407 53.2593 160.963 53.4815C160.519 53.6296 160 53.7778 159.407 53.7778ZM159.407 47.5556C158.963 47.5556 158.519 47.7037 158.148 47.9259C157.778 48.2222 157.556 48.5926 157.481 49.1111H161.111C161.111 48.5926 160.889 48.2222 160.593 47.9259C160.296 47.7037 159.926 47.5556 159.407 47.5556ZM164.37 53.5556V46.2222H166.074L166.222 47.4815C166.444 47.037 166.815 46.6667 167.185 46.4444C167.63 46.2222 168.148 46.0741 168.741 46.0741C169.63 46.0741 170.37 46.3704 170.889 46.963C171.407 47.5556 171.63 48.3704 171.63 49.4815V53.6296H169.704V49.6296C169.704 48.963 169.556 48.5185 169.333 48.1481C169.111 47.7778 168.667 47.6296 168.148 47.6296C167.63 47.6296 167.185 47.8519 166.815 48.2222C166.444 48.5926 166.296 49.1111 166.296 49.7778V53.5556H164.37ZM173.185 53.5556V42.8889H175.111V47.3333C175.333 46.963 175.704 46.5926 176.148 46.3704C176.593 46.1481 177.037 46 177.63 46C178.519 46 179.259 46.2963 179.778 46.8889C180.296 47.4815 180.519 48.2963 180.519 49.4074V53.5556H178.667V49.5556C178.667 48.8889 178.519 48.4444 178.296 48.0741C178.074 47.7037 177.63 47.5556 177.111 47.5556C176.593 47.5556 176.148 47.7778 175.778 48.1481C175.407 48.5185 175.259 49.037 175.259 49.7037V53.4815L173.185 53.5556ZM185.481 53.7778C184.741 53.7778 184.148 53.6296 183.556 53.2593C182.963 52.963 182.519 52.4444 182.222 51.9259C181.926 51.3333 181.704 50.6667 181.704 49.9259C181.704 49.1852 181.852 48.5185 182.222 47.9259C182.593 47.3333 183.037 46.8889 183.556 46.5926C184.148 46.2963 184.741 46.0741 185.481 46.0741C186.222 46.0741 186.815 46.2222 187.407 46.5926C188 46.8889 188.444 47.4074 188.741 47.9259C189.037 48.5185 189.259 49.1852 189.259 49.9259C189.259 50.6667 189.111 51.3333 188.741 51.9259C188.444 52.5185 187.926 52.963 187.407 53.2593C186.815 53.5556 186.148 53.7778 185.481 53.7778ZM185.481 52.0741C186 52.0741 186.37 51.8519 186.741 51.4815C187.111 51.1111 187.259 50.5926 187.259 49.8519C187.259 49.1111 187.111 48.5926 186.741 48.2222C186.37 47.8519 185.926 47.6296 185.481 47.6296C184.963 47.6296 184.519 47.8519 184.148 48.2222C183.778 48.5926 183.63 49.1111 183.63 49.8519C183.63 50.5926 183.778 51.1111 184.148 51.4815C184.519 51.9259 184.963 52.0741 185.481 52.0741ZM193.333 53.7778C192.444 53.7778 191.704 53.4815 191.185 52.8889C190.667 52.2963 190.444 51.4815 190.444 50.3704V46.2222H192.296V50.2222C192.296 50.8889 192.444 51.3333 192.667 51.7037C192.889 52.0741 193.333 52.2222 193.852 52.2222C194.37 52.2222 194.815 52 195.185 51.6296C195.556 51.2593 195.704 50.7407 195.704 50.0741V46.2963H197.63V53.6296H195.926L195.778 52.3704C195.556 52.8148 195.185 53.1852 194.815 53.4074C194.444 53.6296 193.926 53.7778 193.333 53.7778ZM202.37 53.7778C201.704 53.7778 201.111 53.7037 200.667 53.4815C200.148 53.2593 199.778 52.963 199.481 52.5926C199.185 52.2222 199.037 51.7778 198.963 51.2593H200.889C200.963 51.5556 201.111 51.7778 201.407 52C201.704 52.2222 202 52.2963 202.444 52.2963C202.889 52.2963 203.185 52.2222 203.333 52.0741C203.556 51.9259 203.63 51.7037 203.63 51.4815C203.63 51.1852 203.481 50.963 203.185 50.8148C202.889 50.6667 202.519 50.5926 202 50.4444C201.704 50.3704 201.333 50.2963 201.037 50.2222C200.741 50.1481 200.444 50 200.148 49.8519C199.852 49.7037 199.63 49.4815 199.481 49.2593C199.333 49.037 199.259 48.7407 199.259 48.3704C199.259 47.7037 199.556 47.1852 200.074 46.7407C200.593 46.2963 201.333 46.0741 202.296 46.0741C203.185 46.0741 203.852 46.2963 204.37 46.6667C204.889 47.037 205.185 47.6296 205.333 48.3704H203.556C203.481 47.8519 203.037 47.5556 202.296 47.5556C201.926 47.5556 201.63 47.6296 201.481 47.7778C201.259 47.9259 201.185 48.0741 201.185 48.2963C201.185 48.5185 201.333 48.6667 201.63 48.8148C201.926 48.963 202.296 49.037 202.741 49.1852C203.259 49.3333 203.704 49.4074 204.148 49.5556C204.593 49.7037 204.889 49.9259 205.185 50.2222C205.407 50.5185 205.556 50.8889 205.556 51.4074C205.556 51.8519 205.481 52.2963 205.185 52.6667C204.963 53.037 204.593 53.3333 204.148 53.5556C203.556 53.6296 202.963 53.7778 202.37 53.7778ZM210.222 53.7778C209.481 53.7778 208.815 53.6296 208.222 53.3333C207.63 53.037 207.185 52.5926 206.889 52C206.593 51.4074 206.37 50.7407 206.37 50C206.37 49.2593 206.519 48.5926 206.815 48C207.111 47.4074 207.556 46.963 208.148 46.5926C208.741 46.2963 209.407 46.0741 210.148 46.0741C210.889 46.0741 211.481 46.2222 212.074 46.5185C212.593 46.8148 213.037 47.2593 213.407 47.8519C213.704 48.3704 213.852 49.037 213.852 49.7037V50.4444H208.222C208.296 51.037 208.444 51.4815 208.815 51.7778C209.185 52.0741 209.63 52.2963 210.148 52.2963C210.519 52.2963 210.889 52.2222 211.111 52C211.407 51.8519 211.556 51.6296 211.704 51.3333H213.63C213.481 51.7778 213.259 52.2222 212.963 52.5926C212.667 52.963 212.222 53.2593 211.778 53.4815C211.333 53.6296 210.815 53.7778 210.222 53.7778ZM210.222 47.5556C209.778 47.5556 209.333 47.7037 208.963 47.9259C208.593 48.2222 208.37 48.5926 208.296 49.1111H211.926C211.926 48.5926 211.704 48.2222 211.407 47.9259C211.111 47.7037 210.741 47.5556 210.222 47.5556ZM135.259 66.5185C134.222 66.5185 133.333 66.2963 132.593 65.8519C131.852 65.4074 131.259 64.7407 130.889 64C130.519 63.1852 130.296 62.2963 130.296 61.1852C130.296 60.1481 130.519 59.1852 130.889 58.3704C131.259 57.5556 131.852 56.963 132.593 56.4444C133.333 56 134.222 55.7778 135.259 55.7778C136.519 55.7778 137.556 56.0741 138.296 56.7407C139.111 57.3333 139.556 58.2222 139.778 59.3333H137.704C137.556 58.7407 137.333 58.2963 136.889 58C136.444 57.7037 135.926 57.5556 135.185 57.5556C134.222 57.5556 133.481 57.8519 132.963 58.5185C132.444 59.1852 132.148 60.0741 132.148 61.1852C132.148 62.2963 132.444 63.1852 132.963 63.8519C133.481 64.5185 134.296 64.8148 135.185 64.8148C135.852 64.8148 136.444 64.6667 136.889 64.3704C137.333 64.0741 137.556 63.6296 137.704 63.1111H139.778C139.556 64.1482 139.111 65.037 138.296 65.6296C137.481 66.2222 136.519 66.5185 135.259 66.5185ZM143.481 66.5185C142.815 66.5185 142.296 66.4444 141.926 66.2222C141.556 66 141.185 65.7778 141.037 65.4074C140.815 65.037 140.741 64.6667 140.741 64.2963C140.741 63.6296 141.037 63.037 141.556 62.6667C142.074 62.2222 142.889 62 143.926 62H145.778V61.8519C145.778 61.3333 145.63 60.963 145.333 60.7407C145.037 60.4444 144.667 60.3704 144.296 60.3704C143.926 60.3704 143.556 60.4444 143.259 60.6667C142.963 60.8148 142.815 61.1111 142.741 61.4815H140.889C140.963 60.963 141.111 60.4444 141.407 60.0741C141.704 59.7037 142.148 59.4074 142.593 59.1852C143.111 58.963 143.63 58.8889 144.222 58.8889C145.259 58.8889 146.074 59.1852 146.667 59.7037C147.259 60.2222 147.556 60.963 147.556 61.9259V66.4444H145.926L145.778 65.2593C145.556 65.6296 145.259 66 144.889 66.2222C144.593 66.3704 144.074 66.5185 143.481 66.5185ZM143.926 65.037C144.444 65.037 144.889 64.8889 145.185 64.5185C145.481 64.1481 145.704 63.7037 145.778 63.1852H144.148C143.63 63.1852 143.259 63.2593 143.037 63.4815C142.815 63.6296 142.741 63.9259 142.741 64.1481C142.741 64.4444 142.815 64.6667 143.037 64.8148C143.259 64.963 143.556 65.037 143.926 65.037ZM149.259 69.6296V58.963H150.963L151.185 60C151.407 59.7037 151.704 59.4074 152.148 59.1111C152.519 58.8889 153.037 58.7407 153.704 58.7407C154.37 58.7407 155.037 58.8889 155.556 59.2593C156.074 59.6296 156.519 60.0741 156.815 60.6667C157.111 61.2593 157.259 61.9259 157.259 62.6667C157.259 63.4074 157.111 64.0741 156.815 64.6667C156.519 65.2593 156.074 65.7037 155.556 66C155.037 66.2963 154.37 66.5185 153.704 66.5185C153.185 66.5185 152.667 66.4444 152.222 66.2222C151.778 66 151.481 65.7037 151.185 65.3333V69.6296H149.259ZM153.259 64.8889C153.852 64.8889 154.37 64.6667 154.741 64.2963C155.111 63.9259 155.333 63.3333 155.333 62.7407C155.333 62.0741 155.111 61.5556 154.741 61.1852C154.37 60.7407 153.852 60.5926 153.259 60.5926C152.667 60.5926 152.148 60.8148 151.778 61.1852C151.407 61.6296 151.185 62.1482 151.185 62.7407C151.185 63.4074 151.407 63.9259 151.778 64.2963C152.148 64.6667 152.593 64.8889 153.259 64.8889ZM159.556 57.8519C159.185 57.8519 158.889 57.7778 158.667 57.5556C158.444 57.3333 158.296 57.1111 158.296 56.7407C158.296 56.4444 158.37 56.1481 158.667 55.9259C158.889 55.7037 159.185 55.6296 159.556 55.6296C159.926 55.6296 160.222 55.7037 160.444 55.9259C160.667 56.1481 160.815 56.3704 160.815 56.7407C160.815 57.037 160.741 57.3333 160.444 57.5556C160.148 57.7037 159.926 57.8519 159.556 57.8519ZM158.593 66.3704V59.037H160.519V66.3704H158.593ZM165.333 66.3704C164.593 66.3704 163.926 66.1481 163.481 65.7778C163.037 65.4074 162.815 64.7407 162.815 63.7778V60.5926H161.556V59.037H162.815L163.037 57.037H164.741V59.037H166.741V60.5926H164.741V63.8519C164.741 64.2222 164.815 64.4444 164.963 64.5926C165.111 64.7407 165.407 64.8148 165.778 64.8148H166.667V66.4444L165.333 66.3704ZM170.444 66.5185C169.778 66.5185 169.259 66.4444 168.889 66.2222C168.519 66 168.148 65.7778 168 65.4074C167.778 65.037 167.704 64.6667 167.704 64.2963C167.704 63.6296 168 63.037 168.519 62.6667C169.037 62.2222 169.852 62 170.889 62H172.741V61.8519C172.741 61.3333 172.593 60.963 172.296 60.7407C172 60.5185 171.63 60.3704 171.259 60.3704C170.889 60.3704 170.519 60.4444 170.222 60.6667C169.926 60.8148 169.778 61.1111 169.704 61.4815H167.852C167.926 60.963 168.074 60.4444 168.37 60.0741C168.667 59.7037 169.111 59.4074 169.556 59.1852C170.074 58.963 170.593 58.8889 171.185 58.8889C172.222 58.8889 173.037 59.1852 173.63 59.7037C174.222 60.2222 174.519 60.963 174.519 61.9259V66.4444H172.889L172.741 65.2593C172.519 65.6296 172.222 66 171.852 66.2222C171.556 66.3704 171.037 66.5185 170.444 66.5185ZM170.815 65.037C171.333 65.037 171.778 64.8889 172.074 64.5185C172.37 64.1481 172.593 63.7037 172.667 63.1852H171.037C170.519 63.1852 170.148 63.2593 169.926 63.4815C169.704 63.6296 169.63 63.9259 169.63 64.1481C169.63 64.4444 169.704 64.6667 169.926 64.8148C170.222 64.963 170.519 65.037 170.815 65.037ZM176.222 66.3704V55.6296H178.148V66.2963H176.222V66.3704ZM106.222 31.7778C115.333 31.7778 122.741 39.1852 122.741 48.2963V64.8148H106.222C97.1111 64.8148 89.7037 57.4074 89.7037 48.2963C89.7778 39.1852 97.1852 31.7778 106.222 31.7778ZM106.222 30C96.1481 30 88 38.1481 88 48.2222C88 58.2963 96.1481 66.4444 106.222 66.4444H124.444V48.2222C124.519 38.1481 116.37 30 106.222 30Z" fill="black"/>
<path d="M113.333 51.5554V55.3332H106.296C102.444 55.3332 99.2593 52.148 99.2593 48.2961C99.2593 44.4443 102.444 41.2591 106.296 41.2591C108.741 41.2591 110.889 42.5183 112.148 44.4443L115.259 42.2961C113.333 39.4072 110 37.4813 106.222 37.4813C100.296 37.4072 95.4074 42.2961 95.4074 48.2961C95.4074 54.2961 100.222 59.1109 106.222 59.1109H117.037V49.9257C117.037 48.7406 116.074 47.7035 114.815 47.7035H109.481V51.4813L113.333 51.5554Z" fill="black"/>
</g>
<defs>
<clipPath id="clip0_298_11776">
<rect width="125.926" height="40" fill="white" transform="translate(88 30)"/>
</clipPath>
</defs>
</svg>
