<svg width="300" height="100" viewBox="0 0 300 100" fill="none" xmlns="http://www.w3.org/2000/svg">
<rect width="300" height="100" fill="white"/>
<g clip-path="url(#clip0_291_4213)">
<mask id="mask0_291_4213" style="mask-type:luminance" maskUnits="userSpaceOnUse" x="96" y="37" width="108" height="26">
<path d="M203.333 37.1113H96.6667V62.931H203.333V37.1113Z" fill="white"/>
</mask>
<g mask="url(#mask0_291_4213)">
<path fill-rule="evenodd" clip-rule="evenodd" d="M202.631 43.4054V47.0578H202.344C202.285 46.4728 202.115 45.9045 201.842 45.3833C201.597 44.9632 201.238 44.6205 200.808 44.3942C200.385 44.1557 199.909 44.0295 199.423 44.0274C198.929 44.0105 198.448 44.188 198.084 44.5218C197.92 44.6606 197.789 44.8328 197.697 45.0267C197.605 45.2207 197.557 45.4319 197.555 45.6463C197.555 45.9706 197.674 46.2835 197.889 46.5262C198.565 47.167 199.341 47.6931 200.186 48.0839C200.89 48.4385 201.565 48.8464 202.206 49.3039C202.556 49.5709 202.84 49.9124 203.041 50.3034C203.233 50.6769 203.333 51.0905 203.333 51.5102C203.335 51.9013 203.253 52.2883 203.093 52.645C202.932 53.0018 202.697 53.32 202.403 53.5783C201.749 54.1701 200.889 54.4821 200.008 54.4475C199.717 54.4489 199.428 54.4249 199.141 54.3757C198.803 54.3022 198.469 54.2081 198.141 54.0938C197.831 53.9757 197.509 53.8928 197.18 53.8466C197.123 53.844 197.066 53.853 197.013 53.8731C196.96 53.8933 196.912 53.9241 196.871 53.9636C196.772 54.1065 196.714 54.2738 196.704 54.4475H196.417V50.827H196.704C196.785 51.4217 196.971 51.9976 197.252 52.5282C197.509 52.9302 197.871 53.2545 198.299 53.4665C198.775 53.7161 199.306 53.844 199.843 53.8387C200.403 53.8698 200.953 53.6864 201.382 53.3257C201.558 53.1761 201.701 52.9901 201.797 52.7803C201.895 52.5705 201.945 52.3421 201.946 52.1109C201.941 51.8351 201.868 51.5648 201.733 51.3242C201.566 51.0331 201.339 50.7811 201.066 50.5852C200.531 50.2257 199.977 49.8938 199.407 49.591C198.737 49.2337 198.093 48.8296 197.48 48.3815C197.126 48.1107 196.831 47.7718 196.611 47.3847C196.413 47.0153 196.311 46.6022 196.316 46.1833C196.313 45.8138 196.389 45.4482 196.541 45.1108C196.691 44.7734 196.911 44.472 197.188 44.2269C197.79 43.6712 198.588 43.3759 199.407 43.4054C200.024 43.417 200.631 43.5574 201.191 43.8174C201.382 43.918 201.59 43.9837 201.805 44.0114C201.927 44.0165 202.046 43.9736 202.137 43.8919C202.249 43.7514 202.32 43.5833 202.344 43.4054H202.631ZM193.761 43.4054V47.0578H193.474C193.414 46.4728 193.244 45.9044 192.972 45.3833C192.726 44.9632 192.368 44.6205 191.938 44.3942C191.515 44.1557 191.038 44.0294 190.553 44.0274C190.059 44.0105 189.578 44.188 189.213 44.5218C189.05 44.6606 188.918 44.8328 188.827 45.0267C188.735 45.2207 188.687 45.432 188.684 45.6463C188.685 45.9705 188.804 46.2835 189.019 46.5262C189.694 47.1669 190.47 47.6931 191.316 48.0839C192.019 48.4385 192.694 48.8464 193.336 49.3039C193.685 49.571 193.97 49.9124 194.171 50.3034C194.362 50.6769 194.462 51.0905 194.463 51.5102C194.465 51.9014 194.382 52.2883 194.222 52.6451C194.061 53.0018 193.826 53.3201 193.533 53.5783C192.878 54.1701 192.019 54.4821 191.138 54.4475C190.847 54.4489 190.557 54.4249 190.271 54.3756C189.933 54.3022 189.598 54.2081 189.271 54.0938C188.961 53.9757 188.638 53.8928 188.309 53.8466C188.253 53.844 188.196 53.853 188.143 53.8731C188.09 53.8933 188.041 53.9241 188.001 53.9636C187.901 54.1065 187.844 54.2738 187.833 54.4475H187.546V50.827H187.833C187.915 51.4217 188.101 51.9976 188.381 52.5282C188.638 52.9302 189 53.2545 189.429 53.4665C189.904 53.7161 190.435 53.844 190.973 53.8387C191.533 53.8698 192.083 53.6864 192.512 53.3257C192.688 53.1761 192.829 52.99 192.927 52.7803C193.024 52.5705 193.075 52.3421 193.076 52.1109C193.07 51.8351 192.997 51.5648 192.862 51.3242C192.695 51.033 192.468 50.7811 192.196 50.5852C191.66 50.2257 191.106 49.8938 190.537 49.591C189.867 49.2337 189.222 48.8296 188.61 48.3815C188.256 48.1107 187.96 47.7718 187.741 47.3847C187.542 47.0154 187.441 46.6022 187.445 46.1833C187.443 45.8138 187.519 45.4482 187.669 45.1108C187.82 44.7734 188.041 44.472 188.317 44.2269C188.92 43.6711 189.717 43.3759 190.537 43.4054C191.154 43.417 191.761 43.5574 192.32 43.8174C192.512 43.918 192.72 43.9837 192.934 44.0114C193.056 44.0165 193.176 43.9736 193.267 43.8919C193.379 43.7514 193.45 43.5833 193.474 43.4054H193.761ZM180.04 44.2215V48.3948H182.36C182.781 48.4418 183.206 48.3464 183.567 48.1237C183.879 47.7793 184.041 47.3252 184.019 46.8612H184.306V50.5373H184.019C183.988 50.1998 183.915 49.8676 183.801 49.5484C183.699 49.3591 183.537 49.2087 183.341 49.1204C183.029 48.9987 182.695 48.9452 182.36 48.9636H180.04V52.4459C180.023 52.7318 180.044 53.0185 180.101 53.2992C180.145 53.4017 180.221 53.4868 180.319 53.5409C180.507 53.6141 180.71 53.6441 180.911 53.6288H182.703C183.14 53.647 183.577 53.6049 184.003 53.5037C184.298 53.4062 184.566 53.2383 184.782 53.0145C185.181 52.5802 185.514 52.0895 185.771 51.558H186.082L185.173 54.2055H177.033V53.9185H177.408C177.655 53.9182 177.898 53.8561 178.115 53.7377C178.193 53.7012 178.264 53.6495 178.322 53.5857C178.381 53.5217 178.426 53.447 178.455 53.3656C178.531 53.0309 178.561 52.6874 178.543 52.3448V45.4841C178.593 45.0605 178.523 44.6312 178.341 44.2455C178.216 44.1308 178.069 44.0438 177.908 43.9902C177.747 43.9365 177.577 43.9175 177.408 43.9344H177.033V43.6447H185.173L185.289 45.9573H184.984C184.928 45.5589 184.806 45.1726 184.622 44.8144C184.481 44.5985 184.275 44.4322 184.035 44.3384C183.677 44.2425 183.307 44.203 182.937 44.2215H180.04ZM164.978 43.6447H167.844L174.301 51.566V45.4762C174.351 45.0586 174.275 44.6355 174.083 44.2613C173.963 44.1443 173.82 44.0545 173.662 43.9981C173.505 43.9417 173.337 43.92 173.171 43.9344H172.804V43.6447H176.48V43.9344H176.105C175.926 43.9166 175.745 43.9442 175.579 44.0149C175.413 44.0855 175.268 44.1968 175.157 44.3384C175.007 44.698 174.949 45.0888 174.986 45.4763V54.3756H174.705L167.743 45.8721V52.3768C167.693 52.7935 167.766 53.2156 167.953 53.5915C168.073 53.7079 168.216 53.7973 168.373 53.8537C168.53 53.91 168.698 53.9321 168.865 53.9185H169.237V54.2055H165.563V53.9185H165.927C166.108 53.9367 166.291 53.9089 166.459 53.8378C166.627 53.7668 166.774 53.6547 166.887 53.5119C167.036 53.1532 167.094 52.7633 167.057 52.3768V45.0322C166.85 44.7725 166.616 44.5346 166.361 44.3225C165.955 44.0437 165.469 43.9072 164.978 43.9343V43.6447ZM153.46 43.6447H156.326L162.782 51.566V45.4762C162.833 45.0586 162.757 44.6355 162.565 44.2613C162.445 44.1444 162.302 44.0546 162.145 43.9982C161.987 43.9417 161.819 43.92 161.653 43.9344H161.286V43.6447H164.962V43.9344H164.587C164.408 43.9166 164.227 43.9443 164.061 44.0149C163.895 44.0856 163.75 44.1968 163.638 44.3384C163.489 44.698 163.431 45.0888 163.468 45.4763V54.3756H163.186L156.225 45.8721V52.3768C156.175 52.7935 156.248 53.2156 156.435 53.5915C156.555 53.708 156.698 53.7973 156.855 53.8537C157.013 53.9101 157.18 53.9321 157.346 53.9185H157.719V54.2055H154.045V53.9185H154.409C154.59 53.9366 154.773 53.9089 154.941 53.8378C155.109 53.7668 155.256 53.6547 155.369 53.5119C155.518 53.1532 155.576 52.7633 155.539 52.3768V45.0322C155.332 44.7725 155.098 44.5346 154.842 44.3225C154.437 44.0437 153.951 43.9072 153.46 43.9343V43.6447ZM153.282 53.9185V54.2055H148.755V53.9185H149.13C149.307 53.9344 149.486 53.908 149.651 53.8414C149.816 53.7749 149.962 53.6701 150.079 53.5357C150.245 53.1594 150.31 52.7461 150.268 52.3369V45.5132C150.288 45.1576 150.254 44.8009 150.167 44.4555C150.101 44.3113 149.988 44.1935 149.848 44.1205C149.628 43.9984 149.381 43.9344 149.13 43.9344H148.755V43.6447H153.282V43.9344H152.899C152.724 43.9191 152.547 43.9457 152.383 44.0117C152.22 44.0777 152.074 44.1815 151.958 44.3145C151.786 44.6889 151.718 45.1033 151.762 45.5132V52.3369C151.742 52.6926 151.776 53.0492 151.863 53.3947C151.93 53.5403 152.046 53.6585 152.189 53.7297C152.406 53.8532 152.65 53.9183 152.899 53.9185H153.282ZM144.449 43.9344V43.6447H148.189V43.9344H147.79C147.599 43.9276 147.409 43.9724 147.24 44.0641C147.072 44.1557 146.932 44.2909 146.833 44.4555C146.689 44.8106 146.632 45.1954 146.668 45.5772V49.8594C146.7 50.6925 146.594 51.525 146.355 52.3235C146.115 52.9453 145.68 53.4729 145.116 53.8281C144.36 54.283 143.485 54.5014 142.604 54.4554C141.69 54.5149 140.778 54.3061 139.98 53.8547C139.393 53.4697 138.948 52.9043 138.71 52.2439C138.5 51.3932 138.416 50.5166 138.46 49.6416V45.5132C138.512 45.0701 138.417 44.6222 138.192 44.2374C138.077 44.1276 137.941 44.0437 137.791 43.9914C137.642 43.9392 137.483 43.9197 137.325 43.9344H136.926V43.6447H141.49V43.9344H141.086C140.908 43.9172 140.728 43.946 140.565 44.0182C140.401 44.0904 140.258 44.2033 140.151 44.3465C139.985 44.7118 139.918 45.114 139.957 45.5132V50.1173C139.961 50.5889 139.999 51.0597 140.068 51.5261C140.113 51.9638 140.253 52.3865 140.477 52.7648C140.694 53.0777 140.988 53.3296 141.331 53.4959C141.756 53.7013 142.225 53.8007 142.697 53.7856C143.343 53.7961 143.981 53.6405 144.55 53.3337C145.044 53.0874 145.439 52.6793 145.669 52.1774C145.912 51.4063 146.014 50.5977 145.969 49.7905V45.5132C146.019 45.0888 145.943 44.6591 145.751 44.2773C145.635 44.1579 145.493 44.0654 145.337 44.0062C145.181 43.947 145.014 43.9225 144.848 43.9344H144.449ZM134.401 38.9551L134.784 43.6582H134.401C134.116 42.6676 133.599 41.7593 132.892 41.0083C132.436 40.5778 131.899 40.2425 131.312 40.0222C130.725 39.8017 130.099 39.7006 129.473 39.7245C128.616 39.6845 127.764 39.8717 127.004 40.2673C126.243 40.6628 125.6 41.2525 125.141 41.9767C124.288 43.3306 123.856 44.9073 123.899 46.5072C123.881 47.8495 124.162 49.1788 124.721 50.3995C125.17 51.4541 125.923 52.3515 126.883 52.9781C127.702 53.5049 128.653 53.7899 129.627 53.8002C130.165 53.801 130.702 53.7304 131.222 53.59C131.74 53.4483 132.238 53.2415 132.705 52.9744V48.6617C132.739 48.1663 132.682 47.6687 132.536 47.1941C132.423 46.9645 132.237 46.7794 132.007 46.6685C131.605 46.5176 131.177 46.4548 130.749 46.4846V46.0681H136.522V46.4846H136.248C136.017 46.4592 135.784 46.4996 135.576 46.6013C135.367 46.7029 135.192 46.8616 135.069 47.0589C134.885 47.5719 134.811 48.1181 134.852 48.6617V53.2258C134.062 53.6577 133.224 53.9942 132.356 54.2281C131.459 54.4503 130.539 54.5575 129.615 54.5471C126.737 54.5471 124.548 53.6237 123.051 51.7771C121.942 50.4265 121.346 48.7274 121.369 46.9801C121.37 45.6642 121.695 44.3688 122.315 43.2078C123.007 41.8381 124.074 40.6937 125.393 39.9086C127.036 39.0481 128.919 38.7588 130.745 39.0865C131.387 39.2337 132.017 39.4281 132.629 39.6684C132.893 39.7836 133.171 39.8607 133.455 39.8973C133.526 39.8964 133.595 39.8785 133.657 39.8452C133.719 39.8119 133.772 39.7641 133.812 39.7057C133.937 39.4758 133.999 39.2169 133.992 38.9551H134.401Z" fill="black"/>
<path fill-rule="evenodd" clip-rule="evenodd" d="M172.037 60.5533H173.549L173.083 59.0144C172.942 58.547 172.837 58.1626 172.767 57.8611C172.71 58.2202 172.63 58.5751 172.527 58.9238L172.037 60.5533ZM170.751 62.8363L172.463 57.2776H173.099L174.923 62.8363H174.251L173.731 61.1525H171.866L171.377 62.8363H170.751ZM169.611 62.8363V57.2776H170.2V62.8363H169.611ZM165.611 59.7314H166.88C167.095 59.741 167.311 59.7053 167.512 59.6265C167.662 59.5584 167.785 59.4405 167.859 59.2926C167.938 59.1385 167.978 58.9675 167.977 58.7942C167.987 58.6686 167.969 58.5422 167.924 58.4245C167.878 58.3069 167.807 58.2008 167.716 58.1142C167.624 58.0277 167.514 57.9628 167.394 57.9244C167.274 57.8859 167.147 57.8749 167.022 57.8923H165.611V59.7314ZM165.022 62.8363V57.2776H166.998C167.307 57.2619 167.616 57.3131 167.904 57.4276C168.125 57.5421 168.3 57.7283 168.4 57.9557C168.525 58.2173 168.589 58.5043 168.585 58.7943C168.597 59.1516 168.489 59.5025 168.278 59.7909C168.041 60.0798 167.7 60.265 167.329 60.3074C167.461 60.381 167.581 60.4743 167.685 60.5843C167.877 60.8106 168.041 61.0586 168.175 61.3233L168.951 62.8363H168.208L167.619 61.6791C167.446 61.3466 167.304 61.0903 167.192 60.9142C167.113 60.7753 167.012 60.65 166.893 60.5429C166.814 60.4767 166.723 60.4262 166.624 60.3941C166.516 60.3733 166.405 60.3645 166.295 60.3681H165.611V62.8363H165.022ZM160.87 62.8363V57.2776H164.094V57.9337H161.46V59.6356H163.926V60.2878H161.46V62.1802H164.197V62.8363H160.87ZM158.1 60.6554V60.0043L159.988 60.0006V62.0622C159.728 62.3288 159.425 62.549 159.091 62.7133C158.795 62.8554 158.471 62.9297 158.142 62.9308C157.709 62.9363 157.284 62.8084 156.925 62.5644C156.567 62.3203 156.292 61.9719 156.138 61.5665C155.95 61.0949 155.857 60.5909 155.864 60.0833C155.86 59.566 155.952 59.0525 156.137 58.5693C156.281 58.1472 156.555 57.7813 156.919 57.5235C157.269 57.2941 157.679 57.1755 158.097 57.1829C158.399 57.1784 158.699 57.2453 158.971 57.3785C159.221 57.499 159.434 57.6872 159.583 57.922C159.749 58.2026 159.864 58.5108 159.921 58.8318L159.389 59.0143C159.34 58.7804 159.256 58.5551 159.14 58.3465C159.036 58.1805 158.888 58.0463 158.713 57.9582C158.524 57.8597 158.313 57.8094 158.1 57.812C157.857 57.8059 157.617 57.8588 157.4 57.966C157.212 58.0612 157.048 58.1996 156.924 58.3698C156.803 58.5379 156.708 58.7233 156.642 58.9198C156.526 59.2811 156.469 59.6587 156.472 60.0381C156.46 60.4621 156.53 60.8845 156.678 61.2819C156.792 61.5875 157.001 61.8479 157.276 62.0246C157.524 62.183 157.813 62.2675 158.108 62.2681C158.369 62.2668 158.625 62.2033 158.856 62.0829C159.064 61.9877 159.251 61.8547 159.41 61.6908V60.6554H158.1ZM154.384 62.8363V57.2776H154.973V62.8363H154.384ZM149.779 62.8363V57.2776H150.384L152.726 61.6417V57.2776H153.292V62.8363H152.686L150.344 58.4681V62.8363H149.779Z" fill="#DB291C"/>
<path fill-rule="evenodd" clip-rule="evenodd" d="M201.952 38.8685H202.287V41.205H201.952V38.8685ZM199.715 38.8685H201.226L200.168 41.2318L199.869 41.1062L200.726 39.1883H199.715V38.8685ZM198.002 38.8685H199.514L198.455 41.2318L198.157 41.1062L199.013 39.1883H198.002V38.8685ZM197.682 40.6632V41.0307C197.42 41.1688 197.127 41.238 196.831 41.2318C196.6 41.239 196.371 41.1846 196.167 41.0742C195.988 40.9712 195.838 40.8217 195.736 40.6415C195.631 40.46 195.576 40.254 195.577 40.0444C195.574 39.8839 195.604 39.7244 195.668 39.5766C195.73 39.4287 195.823 39.2958 195.94 39.1864C196.06 39.072 196.201 38.9824 196.355 38.9225C196.508 38.8628 196.673 38.8342 196.838 38.8383C197.121 38.847 197.399 38.9123 197.656 39.0306V39.3902C197.414 39.2432 197.138 39.1625 196.855 39.1561C196.732 39.1522 196.611 39.1727 196.496 39.2162C196.382 39.2598 196.277 39.3256 196.188 39.4097C196.102 39.4908 196.034 39.5893 195.988 39.6986C195.942 39.808 195.92 39.9259 195.923 40.0444C195.919 40.1622 195.94 40.2794 195.986 40.3884C196.031 40.4973 196.099 40.5955 196.184 40.6764C196.365 40.844 196.605 40.9332 196.852 40.9241C197.148 40.92 197.436 40.8293 197.682 40.6632ZM194.044 39.1528H193.943V39.8903H194.07C194.188 39.8978 194.307 39.8832 194.419 39.847C194.48 39.8194 194.532 39.7736 194.566 39.7156C194.602 39.6552 194.62 39.5861 194.619 39.516C194.62 39.445 194.599 39.3755 194.561 39.316C194.522 39.2565 194.463 39.212 194.396 39.1899C194.281 39.1599 194.162 39.1473 194.044 39.1528ZM193.609 41.205V38.8685H194.194C194.396 38.8577 194.596 38.92 194.756 39.0443C194.826 39.1024 194.88 39.1753 194.916 39.2576C194.952 39.34 194.969 39.4296 194.965 39.5193C194.97 39.6449 194.934 39.7688 194.863 39.8723C194.792 39.976 194.689 40.0539 194.57 40.0946C194.652 40.1505 194.726 40.218 194.789 40.295C194.9 40.436 195 40.5842 195.091 40.7386C195.172 40.871 195.237 40.971 195.286 41.0377L195.41 41.205H195.012L194.909 41.0509C194.907 41.0456 194.9 41.036 194.89 41.0229L194.825 40.931L194.721 40.7602L194.609 40.5776C194.552 40.4962 194.488 40.4198 194.419 40.3488C194.373 40.3008 194.321 40.2595 194.264 40.226C194.189 40.1958 194.11 40.183 194.03 40.1884H193.943V41.205H193.609Z" fill="black"/>
<path d="M98.416 40.547C98.3325 40.5433 98.2492 40.5567 98.1711 40.5863C98.0929 40.6159 98.0216 40.6612 97.9615 40.7191C97.9014 40.7772 97.8537 40.8468 97.8213 40.9238C97.7889 41.0009 97.7726 41.0837 97.7732 41.1672C97.7738 41.2508 97.7915 41.3334 97.825 41.4099C97.8585 41.4864 97.9073 41.5553 97.9683 41.6124C98.0293 41.6695 98.1012 41.7136 98.1798 41.7421C98.2584 41.7704 98.3419 41.7826 98.4253 41.7777C98.5088 41.7814 98.5922 41.7679 98.6703 41.7383C98.7484 41.7087 98.8197 41.6635 98.8798 41.6055C98.94 41.5475 98.9877 41.4778 99.02 41.4008C99.0524 41.3238 99.0688 41.241 99.0681 41.1574C99.0675 41.0739 99.0499 40.9913 99.0163 40.9148C98.9828 40.8382 98.9341 40.7694 98.8731 40.7123C98.8121 40.6551 98.7401 40.611 98.6615 40.5826C98.583 40.5542 98.4994 40.5421 98.416 40.547Z" fill="#B99852"/>
<path d="M113.389 40.0296L112.296 37.3298C109.928 39.0444 106.747 39.4855 102.655 37.4928C101.153 36.9305 98.4974 36.8042 97.2451 38.4271L97.3447 39.7954C95.9081 41.334 97.1176 42.5252 97.6637 42.5904L102.958 57.6987C103.523 59.1743 104.245 58.9667 105.164 58.2475C109.878 54.2407 112.784 47.4526 111.182 41.6015L111.714 41.4462C113.301 49.388 109.87 54.8967 104.955 58.6632C105.538 59.3112 115.993 52.4424 112.531 40.7506L113.389 40.0296ZM101.47 39.6623L100.689 41.1506L100.129 40.1207C99.7062 38.8715 101.154 38.9523 101.47 39.6623ZM106.237 45.4175L104.643 48.7734L104.221 47.7079L106.729 42.1385C107.183 41.5686 108.322 41.6074 106.237 45.4175ZM108.42 42.4016C108.703 42.1792 110.214 41.1458 107.423 47.1664L105.761 50.7988L105.201 49.7L108.42 42.4016ZM105.395 43.4934L103.802 47.0561L103.242 45.8883L105.105 41.5994C105.558 41.0296 106.354 41.2089 105.395 43.4934ZM104.311 41.4678L102.752 44.9958L102.226 43.8622L103.55 41.0599C104.175 40.2278 104.606 40.983 104.311 41.4678ZM102.912 40.7181L101.726 43.0388L101.213 42.0601L102.038 40.3398C102.52 39.1704 103.021 40.309 102.912 40.7181ZM105.015 56.5312L99.2413 41.9936C98.5807 42.3945 97.2095 42.1853 97.4249 40.9256C97.6381 40.0831 98.9071 39.6497 99.7103 40.9992L105.429 55.0415L107.044 53.4012L106.325 51.9201L110.288 42.5463C111.444 48.6012 108.27 53.203 105.015 56.5312ZM101.403 38.2617L101.389 38.2684L101.278 38.187C101.32 38.2132 101.361 38.2359 101.403 38.2617L101.69 38.1288C105.784 40.3021 109.361 40.9374 112.106 39.0928L112.165 39.6143C109.29 41.4252 105.677 40.8947 101.403 38.2617Z" fill="#B99852"/>
</g>
</g>
<defs>
<clipPath id="clip0_291_4213">
<rect width="106.667" height="40" fill="white" transform="translate(96.6667 30)"/>
</clipPath>
</defs>
</svg>
