<svg width="300" height="100" viewBox="0 0 300 100" fill="none" xmlns="http://www.w3.org/2000/svg">
<rect width="300" height="100" fill="white"/>
<g clip-path="url(#clip0_291_4287)">
<path d="M134.582 44.3274V42.8001H117.709V48.6183H126.218C125.345 51.7455 122.509 53.2001 119.382 53.2001C114.582 53.2001 111.6 49.2728 111.6 44.6183C111.6 40.1819 114.727 36.4001 119.382 36.4001C122.073 36.4001 124.327 37.7092 125.636 40.0364H133.782C132.036 34.0001 125.709 30.0001 119.527 30.0001C111.236 30.0001 104.327 36.1092 104.327 44.6183C104.327 53.0546 111.018 59.5274 119.454 59.5274C128.182 59.5274 134.582 53.0546 134.582 44.3274ZM160.691 47.7455V30.5092H153.418V47.7455C153.418 50.4364 153.273 53.1274 149.854 53.1274C146.582 53.1274 146.145 50.291 146.145 47.7455V30.5092H138.873V47.7455C138.873 51.3092 139.164 53.7819 141.709 56.4728C143.818 58.6546 146.945 59.5274 149.927 59.5274C152.982 59.5274 155.745 58.6546 157.854 56.4728C160.327 54.0001 160.691 51.091 160.691 47.7455ZM195.164 44.7637C195.164 36.4001 188.473 30.0001 180.182 30.0001C178.191 29.9598 176.213 30.3246 174.367 31.0724C172.522 31.8202 170.847 32.9354 169.446 34.3502C168.045 35.7651 166.946 37.45 166.216 39.3026C165.486 41.1553 165.14 43.137 165.2 45.1274C165.2 53.2728 172.109 59.5274 180.109 59.5274C188.473 59.5274 195.164 53.2001 195.164 44.7637ZM187.891 44.7637C187.891 49.1274 184.836 53.1274 180.254 53.1274C175.527 53.1274 172.4 49.2001 172.4 44.691C172.4 40.2546 175.527 36.4001 180.182 36.4001C184.836 36.4001 187.891 40.4001 187.891 44.7637Z" fill="#064785"/>
<path d="M112.763 63.5996V61.8541H107.6V63.5996H109.127V69.8541H111.236V63.5996H112.763ZM119.818 69.8541L117.636 67.0905C118.873 66.8723 119.6 65.7814 119.6 64.6177C119.6 63.745 119.309 62.945 118.654 62.3632C117.927 61.8541 117.054 61.8541 116.182 61.8541H113.636V69.8541H115.6V67.2359L117.491 69.8541H119.818ZM117.709 64.6905C117.709 65.4905 117.127 65.8541 116.327 65.8541H115.6V63.5996H116.327C117.054 63.5996 117.709 63.8905 117.709 64.6905ZM128.182 69.8541L124.982 61.8541H123.382L120.182 69.8541H122.363L122.8 68.6905H125.563L125.927 69.8541H128.182ZM124.982 67.0177H123.309L124.182 64.3268L124.982 67.0177ZM135.745 69.8541V61.8541H133.782L133.927 66.7996L133.854 66.8723L130.8 61.8541H129.054V69.8541H131.018L130.945 64.9814L134 69.8541H135.745ZM142.509 67.5268C142.509 66.2905 141.709 65.7087 140.618 65.1996C140.327 65.0541 139.236 64.6905 139.091 64.3268L139.018 64.0359C139.018 63.5996 139.309 63.3814 139.673 63.3814C140.182 63.3814 140.327 63.745 140.4 64.1814H142.436C142.436 63.5268 142.291 63.0905 141.927 62.5814C141.418 61.9996 140.545 61.7087 139.745 61.7087C138.363 61.7087 136.982 62.5087 136.982 64.0359C136.982 65.2723 137.854 65.8541 138.945 66.2905L139.6 66.6541C140.036 66.7996 140.473 67.0177 140.473 67.5268C140.473 67.9632 140.109 68.2541 139.673 68.2541C139.091 68.2541 138.873 67.6723 138.873 67.1632H136.836V67.4541C136.836 69.1268 138.145 69.9996 139.745 69.9996C141.273 69.9996 142.509 69.1996 142.509 67.5268ZM149.563 64.545C149.563 63.6723 149.273 62.945 148.618 62.4359C147.963 61.8541 147.018 61.8541 146.145 61.8541H143.527V69.8541H145.491V67.3087H146.363C147.309 67.3087 148.036 67.2359 148.691 66.6541C149.273 66.145 149.563 65.2723 149.563 64.545ZM147.6 64.545C147.6 65.345 147.018 65.4905 146.363 65.4905H145.491V63.5996H146.291C146.945 63.5996 147.6 63.745 147.6 64.545ZM158.8 65.8541C158.8 63.4541 156.909 61.7087 154.582 61.7087C154.025 61.6988 153.472 61.8012 152.956 62.0097C152.44 62.2182 151.971 62.5285 151.577 62.9222C151.183 63.3159 150.873 63.7848 150.665 64.301C150.456 64.8172 150.354 65.3702 150.363 65.9268C150.363 68.2541 152.254 69.9996 154.582 69.9996C156.909 69.9996 158.8 68.1814 158.8 65.8541ZM156.763 65.8541C156.763 67.0905 155.891 68.1814 154.582 68.1814C153.273 68.1814 152.4 67.0905 152.4 65.7814C152.4 64.545 153.273 63.4541 154.582 63.4541C155.891 63.4541 156.763 64.6177 156.763 65.8541ZM166.073 69.8541L163.963 67.0905C165.2 66.8723 165.927 65.7814 165.927 64.6177C165.927 63.745 165.563 62.945 164.909 62.3632C164.254 61.8541 163.309 61.8541 162.436 61.8541H159.963V69.8541H161.927V67.2359L163.745 69.8541H166.073ZM163.963 64.6905C163.963 65.4905 163.382 65.8541 162.654 65.8541H161.927V63.5996H162.654C163.382 63.5996 163.963 63.8905 163.963 64.6905ZM171.382 63.5996V61.8541H166.145V63.5996H167.745V69.8541H169.782V63.5996H171.382ZM183.6 66.7996H181.418C181.054 67.5996 180.4 68.1814 179.527 68.1814C178.218 68.1814 177.345 67.0177 177.345 65.7814C177.345 64.545 178.218 63.4541 179.527 63.4541C180.4 63.4541 181.127 64.0359 181.418 64.8359H183.6C183.527 64.3996 183.309 63.9632 183.018 63.5268C182.632 62.9582 182.111 62.4944 181.502 62.177C180.893 61.8596 180.214 61.6987 179.527 61.7087C177.2 61.7087 175.309 63.4541 175.309 65.7814C175.309 68.1814 177.2 69.9996 179.527 69.9996C181.491 69.9996 183.091 68.6905 183.6 66.7996ZM192.763 65.8541C192.763 63.4541 190.873 61.7087 188.545 61.7087C187.989 61.6988 187.436 61.8012 186.919 62.0097C186.403 62.2182 185.934 62.5285 185.541 62.9222C185.147 63.3159 184.837 63.7848 184.628 64.301C184.42 64.8172 184.317 65.3702 184.327 65.9268C184.327 68.2541 186.291 69.9996 188.545 69.9996C190.873 69.9996 192.763 68.1814 192.763 65.8541ZM190.727 65.8541C190.727 67.0905 189.854 68.1814 188.618 68.1814C187.236 68.1814 186.363 67.0905 186.363 65.7814C186.363 64.545 187.236 63.4541 188.545 63.4541C189.854 63.4541 190.727 64.6177 190.727 65.8541ZM195.673 69.8541V67.9632H193.782V69.8541H195.673Z" fill="#0C809B"/>
</g>
<defs>
<clipPath id="clip0_291_4287">
<rect width="91.3455" height="40" fill="white" transform="translate(104.327 30)"/>
</clipPath>
</defs>
</svg>
