<svg width="300" height="100" viewBox="0 0 300 100" fill="none" xmlns="http://www.w3.org/2000/svg">
<rect width="300" height="100" fill="white"/>
<g clip-path="url(#clip0_298_11759)">
<path d="M103.398 68.1489C100.14 68.1489 97.4877 65.4971 97.4877 62.2405V58.6769C97.4877 57.4581 96.4918 56.4624 95.2724 56.4624H93.4201C92.2008 56.4624 91.2049 57.4581 91.2049 58.6769V62.2499C91.2049 65.5064 88.5521 68.1581 85.2943 68.1581H82.5112C79.2534 68.1581 76.6006 65.5064 76.6006 62.2499V37.7511C76.6006 34.4946 79.2534 31.8428 82.5112 31.8428H85.2943C88.5521 31.8428 91.2049 34.4946 91.2049 37.7511V41.138C91.2049 42.3568 92.2008 43.3525 93.4201 43.3525H95.2724C96.4918 43.3525 97.4877 42.3568 97.4877 41.138V37.7511C97.4877 34.4946 100.14 31.8428 103.398 31.8428H106.181C109.439 31.8428 112.092 34.4946 112.092 37.7511V62.2499C112.092 65.5064 109.439 68.1581 106.181 68.1581H103.398V68.1489Z" fill="url(#paint0_linear_298_11759)"/>
<path d="M106.182 33.6846C108.425 33.6846 110.24 35.499 110.24 37.7413V62.2401C110.24 64.4824 108.425 66.2968 106.182 66.2968H103.399C101.155 66.2968 99.3402 64.4824 99.3402 62.2401V58.6764C99.3402 56.434 97.5252 54.6196 95.2819 54.6196H93.4296C91.1864 54.6196 89.3713 56.434 89.3713 58.6764V62.2493C89.3713 64.4917 87.5563 66.3061 85.3131 66.3061H82.53C80.2868 66.3061 78.4717 64.4917 78.4717 62.2493V37.7506C78.4717 35.5083 80.2868 33.6939 82.53 33.6939H85.3131C87.5563 33.6939 89.3713 35.5083 89.3713 37.7506V41.1375C89.3713 43.3798 91.1864 45.1942 93.4296 45.1942H95.2819C97.5252 45.1942 99.3402 43.3798 99.3402 41.1375V37.7506C99.3402 35.5083 101.155 33.6939 103.399 33.6939H106.182V33.6846ZM106.182 30H103.399C99.1261 30 95.6449 33.4799 95.6449 37.7506V41.1375C95.6449 41.3421 95.4774 41.5097 95.2727 41.5097H93.4203C93.2156 41.5097 93.048 41.3421 93.048 41.1375V37.7506C93.048 33.4799 89.5668 30 85.2944 30H82.5114C78.239 30 74.7578 33.4799 74.7578 37.7506V62.2493C74.7578 66.5201 78.239 70 82.5114 70H85.2944C89.5668 70 93.048 66.5201 93.048 62.2493V58.6764C93.048 58.4717 93.2156 58.3043 93.4203 58.3043H95.2727C95.4774 58.3043 95.6449 58.4717 95.6449 58.6764V62.2493C95.6449 66.5201 99.1261 70 103.399 70H106.182C110.454 70 113.935 66.5201 113.935 62.2493V37.7506C113.935 33.4799 110.463 30 106.182 30Z" fill="white"/>
<path d="M134.32 56.5988H130.741V50.3632H125.438V56.5988H121.838V41.6662H125.438V47.5941H130.741V41.6662H134.32V56.5988ZM142.699 56.5988C142.576 56.3731 142.466 56.0415 142.371 55.6039C141.735 56.4039 140.846 56.8038 139.704 56.8038C138.658 56.8038 137.769 56.4893 137.038 55.8604C136.306 55.2245 135.94 54.4279 135.94 53.4707C135.94 52.2674 136.385 51.358 137.273 50.7427C138.162 50.1273 139.455 49.8197 141.15 49.8197H142.217V49.235C142.217 48.2163 141.776 47.7069 140.894 47.7069C140.073 47.7069 139.663 48.1103 139.663 48.9171H136.207C136.207 47.8437 136.662 46.9719 137.571 46.3019C138.487 45.6318 139.653 45.2968 141.068 45.2968C142.483 45.2968 143.601 45.6421 144.422 46.3326C145.242 47.0232 145.663 47.9701 145.683 49.1735V54.0861C145.697 55.1048 145.854 55.8843 146.155 56.4244V56.5988H142.699ZM140.535 54.3425C140.966 54.3425 141.321 54.2501 141.601 54.0655C141.889 53.881 142.094 53.6724 142.217 53.4399V51.6657H141.212C140.008 51.6657 139.407 52.2058 139.407 53.2861C139.407 53.6006 139.513 53.857 139.725 54.0553C139.937 54.2468 140.207 54.3425 140.535 54.3425ZM153.416 53.481C153.416 53.1869 153.262 52.9511 152.955 52.7733C152.647 52.5956 152.062 52.4109 151.201 52.2195C150.339 52.028 149.628 51.7785 149.068 51.4709C148.507 51.1563 148.08 50.7768 147.786 50.3325C147.492 49.888 147.345 49.3786 147.345 48.8043C147.345 47.7855 147.765 46.948 148.606 46.2916C149.447 45.6284 150.548 45.2968 151.909 45.2968C153.372 45.2968 154.548 45.6284 155.437 46.2916C156.325 46.9549 156.77 47.8266 156.77 48.9069H153.303C153.303 48.018 152.835 47.5736 151.898 47.5736C151.536 47.5736 151.232 47.6762 150.986 47.8813C150.739 48.0796 150.616 48.3291 150.616 48.63C150.616 48.9376 150.767 49.1872 151.068 49.3786C151.368 49.5701 151.847 49.7273 152.503 49.8504C153.167 49.9734 153.748 50.1205 154.247 50.2914C155.915 50.8657 156.749 51.8948 156.749 53.3784C156.749 54.3903 156.298 55.2142 155.396 55.8501C154.5 56.486 153.338 56.8038 151.909 56.8038C150.958 56.8038 150.11 56.6329 149.365 56.291C148.62 55.9492 148.039 55.4843 147.622 54.8963C147.205 54.3083 146.996 53.6895 146.996 53.0399H150.227C150.24 53.5527 150.411 53.9288 150.739 54.1681C151.068 54.4005 151.488 54.5168 152.001 54.5168C152.473 54.5168 152.825 54.4211 153.057 54.2296C153.297 54.0382 153.416 53.7886 153.416 53.481ZM161.754 46.6916C162.493 45.7617 163.436 45.2968 164.585 45.2968C165.809 45.2968 166.732 45.6591 167.354 46.3839C167.976 47.1086 168.294 48.1787 168.308 49.594V56.5988H164.841V49.676C164.841 49.088 164.722 48.6573 164.482 48.3838C164.243 48.1035 163.836 47.9633 163.262 47.9633C162.551 47.9633 162.048 48.1889 161.754 48.6402V56.5988H158.298V40.8457H161.754V46.6916ZM169.826 50.9683C169.826 49.8469 170.01 48.8556 170.38 47.9941C170.749 47.1325 171.278 46.4693 171.969 46.0045C172.66 45.5326 173.463 45.2968 174.379 45.2968C175.534 45.2968 176.438 45.6865 177.086 46.466L177.21 45.5019H180.348V56.1782C180.348 57.156 180.119 58.0038 179.661 58.7217C179.21 59.4465 178.553 60.0003 177.692 60.3831C176.83 60.7729 175.832 60.9678 174.697 60.9678C173.884 60.9678 173.094 60.8139 172.328 60.5062C171.569 60.1986 170.988 59.7986 170.584 59.3063L172.03 57.2757C172.673 58.0346 173.521 58.4141 174.574 58.4141C176.106 58.4141 176.871 57.6277 176.871 56.0552V55.7065C176.208 56.4381 175.371 56.8038 174.358 56.8038C173.005 56.8038 171.911 56.2877 171.077 55.2552C170.243 54.216 169.826 52.828 169.826 51.0914V50.9683ZM173.292 51.1837C173.292 52.093 173.463 52.8143 173.805 53.3477C174.147 53.8741 174.625 54.1373 175.24 54.1373C175.986 54.1373 176.529 53.8877 176.871 53.3886V48.7222C176.536 48.2163 175.999 47.9633 175.262 47.9633C174.646 47.9633 174.164 48.2402 173.815 48.7941C173.466 49.341 173.292 50.1375 173.292 51.1837ZM189.024 48.63L187.886 48.5479C186.799 48.5479 186.102 48.8898 185.794 49.5735V56.5988H182.338V45.5019H185.579L185.692 46.9275C186.272 45.8404 187.083 45.2968 188.122 45.2968C188.491 45.2968 188.813 45.3378 189.086 45.4198L189.024 48.63ZM195.435 56.8038C193.732 56.8038 192.354 56.2979 191.302 55.286C190.248 54.2672 189.722 52.9443 189.722 51.317V51.0298C189.722 49.8949 189.931 48.8932 190.348 48.0248C190.772 47.1565 191.387 46.4865 192.194 46.0147C193 45.5361 193.958 45.2968 195.065 45.2968C196.624 45.2968 197.854 45.7822 198.758 46.7531C199.66 47.7172 200.111 49.0641 200.111 50.794V52.1374H193.239C193.363 52.7597 193.633 53.2485 194.05 53.604C194.467 53.9596 195.007 54.1373 195.67 54.1373C196.765 54.1373 197.619 53.7544 198.234 52.9887L199.814 54.8552C199.383 55.4501 198.771 55.9253 197.978 56.2808C197.191 56.6295 196.344 56.8038 195.435 56.8038ZM195.045 47.9633C194.033 47.9633 193.431 48.6333 193.239 49.9734H196.726V49.7068C196.741 49.153 196.6 48.7257 196.306 48.4248C196.012 48.1172 195.591 47.9633 195.045 47.9633ZM206.88 56.8038C205.177 56.8038 203.8 56.2979 202.747 55.286C201.694 54.2672 201.167 52.9443 201.167 51.317V51.0298C201.167 49.8949 201.376 48.8932 201.793 48.0248C202.217 47.1565 202.832 46.4865 203.639 46.0147C204.446 45.5361 205.403 45.2968 206.51 45.2968C208.07 45.2968 209.301 45.7822 210.203 46.7531C211.105 47.7172 211.557 49.0641 211.557 50.794V52.1374H204.686C204.808 52.7597 205.078 53.2485 205.495 53.604C205.912 53.9596 206.453 54.1373 207.116 54.1373C208.21 54.1373 209.064 53.7544 209.68 52.9887L211.259 54.8552C210.829 55.4501 210.216 55.9253 209.423 56.2808C208.638 56.6295 207.79 56.8038 206.88 56.8038ZM206.49 47.9633C205.478 47.9633 204.877 48.6333 204.686 49.9734H208.173V49.7068C208.186 49.153 208.046 48.7257 207.751 48.4248C207.458 48.1172 207.038 47.9633 206.49 47.9633ZM212.521 50.9683C212.521 49.2111 212.9 47.8266 213.659 46.8147C214.418 45.8028 215.478 45.2968 216.838 45.2968C217.83 45.2968 218.664 45.6865 219.341 46.466V40.8457H222.807V56.5988H219.7L219.526 55.4091C218.814 56.3389 217.912 56.8038 216.818 56.8038C215.498 56.8038 214.453 56.2979 213.679 55.286C212.907 54.2741 212.521 52.8349 212.521 50.9683ZM215.977 51.1837C215.977 53.1528 216.551 54.1373 217.7 54.1373C218.466 54.1373 219.013 53.816 219.341 53.1733V48.9478C219.026 48.2915 218.486 47.9633 217.72 47.9633C216.654 47.9633 216.076 48.8248 215.987 50.5478L215.977 51.1837Z" fill="#000451"/>
</g>
<defs>
<linearGradient id="paint0_linear_298_11759" x1="78.1304" y1="66.2116" x2="110.557" y2="33.7726" gradientUnits="userSpaceOnUse">
<stop stop-color="#F34F93"/>
<stop offset="1" stop-color="#8F4FF6"/>
</linearGradient>
<clipPath id="clip0_298_11759">
<rect width="151.111" height="40" fill="white" transform="translate(74.7578 30)"/>
</clipPath>
</defs>
</svg>
