<svg width="300" height="100" viewBox="0 0 300 100" fill="none" xmlns="http://www.w3.org/2000/svg">
<rect width="300" height="100" fill="white"/>
<mask id="mask0_291_4313" style="mask-type:luminance" maskUnits="userSpaceOnUse" x="103" y="42" width="94" height="28">
<path d="M103.403 42.0938H196.596V69.9998H103.403V42.0938Z" fill="white"/>
</mask>
<g mask="url(#mask0_291_4313)">
<path d="M104.604 62.5015L106.338 50.1569H108.889L108.209 54.9825H113.583L114.263 50.1569H116.813L115.078 62.5015H112.528L113.225 57.4411H107.869L107.155 62.5015H104.604ZM124.046 62.0026C123.607 62.2326 123.143 62.4032 122.665 62.5106C122.155 62.6267 121.634 62.6844 121.112 62.6826C119.933 62.6826 118.998 62.3183 118.309 61.5924C117.62 60.866 117.275 59.8749 117.275 58.6224C117.275 57.233 117.675 56.1128 118.471 55.2546C119.27 54.3987 120.322 53.9704 121.628 53.9704C122.688 53.9704 123.504 54.2929 124.079 54.9407C124.655 55.589 124.944 56.5077 124.944 57.6974C124.944 57.8451 124.941 57.995 124.933 58.1517C124.924 58.3067 124.911 58.4614 124.893 58.6156L119.672 58.6252C119.671 58.6694 119.669 58.7136 119.664 58.7576C119.659 58.8147 119.656 58.8538 119.656 58.8724C119.656 59.4721 119.823 59.9269 120.158 60.2426C120.492 60.556 120.979 60.7122 121.614 60.7122C121.974 60.7122 122.385 60.6409 122.846 60.4961C123.308 60.3512 123.846 60.1227 124.468 59.8093L124.046 62.0026ZM119.995 57.1696H122.665V57.001C122.665 56.5665 122.569 56.2356 122.379 56.0099C122.189 55.7836 121.911 55.6693 121.545 55.6693C121.169 55.6693 120.852 55.796 120.594 56.0483C120.333 56.3023 120.134 56.6757 119.995 57.1696ZM131.077 60.104L131.617 56.1394C131.566 56.1338 131.51 56.1275 131.448 56.1241C131.383 56.1213 131.289 56.1213 131.162 56.1213C130.241 56.1213 129.515 56.4042 128.977 56.9682C128.441 57.5339 128.172 58.2931 128.172 59.2481C128.172 59.7176 128.277 60.0882 128.483 60.3597C128.69 60.6313 128.971 60.7659 129.325 60.7659C129.609 60.7659 129.895 60.7122 130.184 60.6035C130.476 60.4955 130.773 60.3263 131.077 60.104ZM130.737 62.501L130.821 61.851C130.438 62.1338 130.07 62.3392 129.719 62.4682C129.374 62.5971 129.011 62.6632 128.645 62.6639C127.806 62.6639 127.143 62.3545 126.649 61.7333C126.157 61.1127 125.91 60.2726 125.91 59.2124C125.91 58.4679 126.043 57.7749 126.312 57.1306C126.576 56.4945 126.972 55.9308 127.472 55.4826C128.013 54.9944 128.651 54.6482 129.379 54.4434C130.108 54.2358 131.272 54.1322 132.879 54.1322H134.175L133.021 62.501H130.737ZM134.857 62.501L136.589 50.1563H138.836L137.104 62.501H134.857ZM143.449 62.501L145.185 50.1563H147.446L146.746 55.073C147.205 54.69 147.647 54.41 148.066 54.2358C148.487 54.0583 148.935 53.968 149.387 53.9699C150.056 53.9699 150.58 54.1752 150.957 54.582C151.337 54.9916 151.527 55.5516 151.527 56.2633C151.527 56.5739 151.505 56.884 151.462 57.1911L150.714 62.501H148.401L149.116 57.4468C149.121 57.3868 149.126 57.3082 149.138 57.2092C149.166 56.9835 149.181 56.8358 149.181 56.7566C149.181 56.4534 149.121 56.2147 149.002 56.0461C148.884 55.8803 148.716 55.7966 148.5 55.7966C148.206 55.7966 147.891 55.8984 147.557 56.1072C147.222 56.3114 146.863 56.6254 146.483 57.0497L145.71 62.5015L143.449 62.501ZM160.678 58.0012H163.31L162.645 53.2831L160.678 58.0012ZM156.067 62.501L161.608 50.1563H164.447L166.405 62.501H163.957L163.566 59.8081H159.938L158.836 62.501H156.067ZM166.661 61.9053L166.918 60.0073L167 60.0429C168.09 60.4774 168.865 60.6941 169.33 60.6941C169.512 60.6941 169.665 60.646 169.789 60.5492C169.914 60.4531 169.977 60.3326 169.977 60.1911C169.977 59.9439 169.738 59.6339 169.265 59.2577C168.982 59.0337 168.76 58.8441 168.602 58.6942C168.097 58.2088 167.76 57.8106 167.585 57.4983C167.412 57.186 167.322 56.8299 167.324 56.4675C167.324 55.7332 167.588 55.133 168.118 54.6657C168.644 54.2024 169.327 53.9699 170.163 53.9699C170.573 53.9717 170.981 54.0314 171.376 54.1475C171.81 54.2774 172.23 54.4552 172.629 54.6782L172.496 56.6638C172.031 56.4228 171.611 56.2356 171.234 56.1038C170.858 55.9708 170.557 55.9041 170.336 55.9041C170.167 55.9041 170.022 55.9465 169.908 56.0274C169.795 56.1094 169.738 56.2141 169.738 56.3442C169.738 56.5965 170.013 56.9433 170.56 57.3772C170.844 57.6063 171.062 57.793 171.218 57.9345C171.637 58.305 171.929 58.6422 172.085 58.9499C172.244 59.2543 172.323 59.6067 172.323 60.0073C172.323 60.7721 172.054 61.408 171.513 61.9109C170.974 62.4144 170.285 62.6639 169.449 62.6639C169.007 62.6639 168.551 62.6011 168.077 62.4744C167.604 62.3482 167.131 62.1576 166.661 61.9053ZM172.921 61.9053L173.179 60.0073L173.261 60.0429C174.349 60.4774 175.126 60.6941 175.59 60.6941C175.772 60.6941 175.925 60.646 176.05 60.5492C176.174 60.4531 176.236 60.3326 176.236 60.1911C176.236 59.9439 175.999 59.6339 175.525 59.2577C175.241 59.0337 175.021 58.8441 174.862 58.6942C174.357 58.2088 174.02 57.8106 173.844 57.4983C173.672 57.1858 173.582 56.8298 173.584 56.4675C173.584 55.7332 173.848 55.133 174.378 54.6657C174.905 54.2024 175.588 53.9699 176.424 53.9699C176.826 53.9699 177.231 54.031 177.637 54.1475C178.07 54.2773 178.49 54.4551 178.889 54.6782L178.756 56.6638C178.291 56.4228 177.872 56.2356 177.495 56.1038C177.119 55.9708 176.818 55.9041 176.596 55.9041C176.426 55.9041 176.282 55.9465 176.168 56.0274C176.055 56.1094 175.999 56.2141 175.999 56.3442C175.999 56.5965 176.273 56.9433 176.821 57.3772C177.103 57.6063 177.322 57.793 177.478 57.9345C177.898 58.305 178.189 58.6422 178.345 58.9499C178.504 59.2543 178.583 59.6067 178.583 60.0073C178.583 60.7721 178.314 61.408 177.773 61.9109C177.234 62.4144 176.545 62.6639 175.709 62.6639C175.267 62.6639 174.811 62.6011 174.337 62.4744C173.865 62.3482 173.391 62.1576 172.921 61.9053ZM180.572 54.1322H182.885L182.171 59.1875C182.151 59.3414 182.134 59.4772 182.123 59.5977C182.113 59.6907 182.108 59.7841 182.106 59.8777C182.106 60.1821 182.165 60.4197 182.284 60.5883C182.403 60.754 182.57 60.8389 182.786 60.8389C183.092 60.8389 183.415 60.7303 183.755 60.5164C184.096 60.3026 184.439 59.992 184.79 59.5858L185.552 54.1322H187.836L186.657 62.501H184.381L184.515 61.5647C184.084 61.9409 183.656 62.2215 183.231 62.3991C182.807 62.5765 182.355 62.6664 181.899 62.6639C181.23 62.6639 180.705 62.4591 180.328 62.0529C179.949 61.6456 179.759 61.0827 179.759 60.3654C179.759 60.0569 179.781 59.7488 179.824 59.4438L180.572 54.1322ZM188.548 62.501L189.727 54.1328H191.999L191.849 55.2897C192.294 54.7625 192.643 54.41 192.901 54.2358C193.156 54.0576 193.419 53.9699 193.682 53.9699C193.895 53.9699 194.119 54.0157 194.357 54.1085C194.596 54.2024 194.844 54.3444 195.111 54.5299L194.008 57.0791C193.796 56.8381 193.603 56.6605 193.428 56.5456C193.25 56.4313 193.082 56.3742 192.92 56.3742C192.694 56.3742 192.462 56.4704 192.229 56.6605C191.994 56.8528 191.759 57.1368 191.526 57.513L190.829 62.501H188.548Z" stroke="#E7E8E9" stroke-width="2.10455" stroke-miterlimit="2.613"/>
</g>
<path d="M104.604 62.5025L106.339 50.1572H108.889L108.209 54.9836H113.583L114.263 50.1574H116.813L115.079 62.5023H112.528L113.225 57.4415H107.869L107.155 62.5023L104.604 62.5025ZM124.046 62.003C123.61 62.2321 123.146 62.403 122.665 62.5113C122.166 62.6261 121.651 62.6831 121.112 62.6831C119.934 62.6831 118.998 62.3186 118.309 61.5927C117.621 60.8669 117.275 59.8756 117.275 58.6227C117.275 57.2338 117.675 56.1137 118.471 55.255C119.27 54.3995 120.322 53.9712 121.628 53.9712C122.688 53.9712 123.504 54.2937 124.079 54.9416C124.655 55.5894 124.944 56.508 124.944 57.6982C124.944 57.8458 124.941 57.9957 124.933 58.1524C124.924 58.3074 124.911 58.4622 124.893 58.6165L119.672 58.6256C119.672 58.6555 119.67 58.6975 119.664 58.7584C119.659 58.8152 119.656 58.8544 119.656 58.873C119.656 59.4721 119.823 59.9273 120.158 60.243C120.492 60.5565 120.98 60.7134 121.614 60.7134C121.974 60.7134 122.385 60.6412 122.847 60.4964C123.308 60.3517 123.847 60.1231 124.468 59.8096L124.046 62.003ZM119.996 57.1708H122.665V57.0021C122.665 56.5679 122.569 56.2366 122.38 56.0108C122.19 55.7851 121.912 55.6704 121.546 55.6704C121.169 55.6704 120.852 55.7971 120.594 56.0498C120.333 56.3032 120.134 56.6767 119.996 57.1708ZM131.077 60.105L131.618 56.1406C131.562 56.1336 131.505 56.1286 131.448 56.1256C131.383 56.1225 131.289 56.1225 131.162 56.1225C130.241 56.1225 129.515 56.4053 128.977 56.9691C128.441 57.5354 128.172 58.2942 128.172 59.2496C128.172 59.7196 128.276 60.09 128.483 60.3607C128.69 60.6322 128.971 60.7679 129.325 60.7679C129.609 60.7679 129.895 60.7132 130.184 60.6045C130.476 60.4964 130.773 60.3277 131.077 60.105ZM130.737 62.5023L130.821 61.8523C130.439 62.1349 130.071 62.3404 129.719 62.4694C129.376 62.598 129.012 62.6643 128.645 62.6652C127.806 62.6652 127.143 62.3554 126.65 61.7344C126.157 61.1136 125.911 60.2738 125.911 59.2135C125.911 58.4687 126.043 57.7759 126.313 57.1319C126.582 56.4869 126.967 55.9388 127.472 55.4837C128.013 54.9955 128.65 54.649 129.379 54.4444C130.107 54.2367 131.272 54.134 132.879 54.134H134.174L133.021 62.5025L130.737 62.5023ZM134.857 62.5023L136.589 50.1574H138.836L137.104 62.5023H134.857ZM143.45 62.5023L145.184 50.1574H147.446L146.746 55.0742C147.205 54.691 147.647 54.4114 148.067 54.2367C148.485 54.0599 148.934 53.9695 149.387 53.9712C150.056 53.9712 150.58 54.1766 150.957 54.5832C151.338 54.9924 151.527 55.5533 151.527 56.2642C151.527 56.4293 151.521 56.5898 151.51 56.7456C151.499 56.8948 151.483 57.0436 151.462 57.1918L150.714 62.5025H148.401L149.115 57.4475C149.121 57.3876 149.126 57.3089 149.138 57.2098C149.166 56.9841 149.18 56.8364 149.18 56.7577C149.18 56.454 149.121 56.2154 149.002 56.0469C148.883 55.881 148.715 55.7971 148.5 55.7971C148.205 55.7971 147.891 55.8991 147.557 56.1076C147.222 56.3122 146.862 56.6259 146.482 57.0501L145.708 62.5025L143.45 62.5023ZM160.678 58.0026H163.311L162.645 53.2843L160.678 58.0026ZM156.067 62.5023L161.608 50.1574H164.447L166.405 62.5023H163.957L163.565 59.8096H159.938L158.835 62.5025L156.067 62.5023ZM166.66 61.9062L166.918 60.0083L167.001 60.0444C168.089 60.4786 168.866 60.6951 169.331 60.6951C169.512 60.6951 169.665 60.6471 169.789 60.5506C169.914 60.4546 169.977 60.3336 169.977 60.192C169.977 59.9453 169.739 59.6349 169.265 59.2585C168.982 59.035 168.76 58.8453 168.602 58.6952C168.098 58.2101 167.76 57.812 167.585 57.4993C167.411 57.1837 167.322 56.8291 167.324 56.469C167.324 55.7342 167.587 55.1343 168.117 54.667C168.644 54.2036 169.328 53.9712 170.164 53.9712C170.566 53.9712 170.971 54.032 171.376 54.1489C171.779 54.2666 172.198 54.4413 172.629 54.6791L172.496 56.6646C172.031 56.4239 171.612 56.2365 171.234 56.1045C170.858 55.9718 170.557 55.905 170.336 55.905C170.166 55.905 170.022 55.9478 169.909 56.0288C169.795 56.1106 169.739 56.2154 169.739 56.3452C169.739 56.598 170.013 56.9443 170.56 57.3785C170.785 57.558 171.004 57.7437 171.218 57.9356C171.637 58.3061 171.929 58.6436 172.085 58.9511C172.244 59.2554 172.323 59.6078 172.323 60.0083C172.323 60.7732 172.053 61.409 171.513 61.9122C170.974 62.4153 170.285 62.6651 169.45 62.6651C169.007 62.6651 168.551 62.6021 168.077 62.4754C167.604 62.3495 167.131 62.1588 166.66 61.9062ZM172.921 61.9062L173.179 60.0083L173.261 60.0444C174.349 60.4786 175.125 60.6951 175.59 60.6951C175.772 60.6951 175.925 60.6471 176.049 60.5506C176.175 60.4546 176.237 60.3336 176.237 60.192C176.237 59.9453 175.998 59.6349 175.525 59.2585C175.242 59.035 175.021 58.8453 174.862 58.6952C174.358 58.2101 174.02 57.812 173.845 57.4993C173.672 57.1836 173.582 56.829 173.584 56.469C173.584 55.7342 173.848 55.1343 174.378 54.667C174.905 54.2036 175.588 53.9712 176.423 53.9712C176.826 53.9712 177.231 54.032 177.637 54.1489C178.039 54.2666 178.459 54.4413 178.889 54.6791L178.756 56.6646C178.291 56.4239 177.872 56.2365 177.495 56.1045C177.118 55.9718 176.818 55.905 176.597 55.905C176.426 55.905 176.282 55.9478 176.169 56.0288C176.055 56.1106 175.998 56.2154 175.998 56.3452C175.998 56.598 176.274 56.9443 176.82 57.3785C177.045 57.558 177.264 57.7437 177.478 57.9356C177.898 58.3061 178.189 58.6436 178.345 58.9511C178.504 59.2554 178.583 59.6078 178.583 60.0083C178.583 60.7732 178.314 61.409 177.772 61.9122C177.234 62.4153 176.546 62.6651 175.71 62.6651C175.267 62.6651 174.811 62.6021 174.338 62.4754C173.865 62.3495 173.391 62.1588 172.921 61.9062ZM180.573 54.134H182.885L182.171 59.1888C182.152 59.3423 182.134 59.4783 182.123 59.599C182.113 59.6919 182.107 59.7852 182.106 59.8787C182.106 60.183 182.165 60.4208 182.284 60.5895C182.404 60.756 182.571 60.8399 182.786 60.8399C183.092 60.8399 183.415 60.7312 183.755 60.5174C184.095 60.3037 184.438 59.9933 184.789 59.5869L185.552 54.134H187.836L186.658 62.5025H184.382L184.514 61.5657C184.084 61.9423 183.656 62.2226 183.231 62.4003C182.808 62.5781 182.364 62.6652 181.899 62.6652C181.23 62.6652 180.706 62.4604 180.329 62.054C179.949 61.6475 179.76 61.0837 179.76 60.3667C179.76 60.207 179.765 60.0472 179.776 59.8937C179.787 59.7368 179.805 59.5869 179.824 59.4452L180.573 54.134ZM188.547 62.5025L189.727 54.134H192L191.849 55.2909C192.294 54.7638 192.642 54.4114 192.9 54.2367C193.156 54.0589 193.419 53.9712 193.682 53.9712C193.895 53.9712 194.119 54.0169 194.357 54.11C194.595 54.2036 194.845 54.3453 195.111 54.5321L194.008 57.08C193.796 56.8393 193.603 56.6616 193.428 56.547C193.249 56.4329 193.082 56.3753 192.92 56.3753C192.694 56.3753 192.462 56.4719 192.229 56.6618C191.994 56.8545 191.758 57.1378 191.526 57.5143L190.829 62.5023L188.547 62.5025Z" fill="#D1D3D4"/>
<mask id="mask1_291_4313" style="mask-type:luminance" maskUnits="userSpaceOnUse" x="128" y="43" width="29" height="27">
<path d="M128.551 43.6299H156.002V70.0002H128.551V43.6299Z" fill="white"/>
</mask>
<g mask="url(#mask1_291_4313)">
<path d="M142.609 51.7785C143.358 51.7785 143.884 52.4164 143.785 53.2031C143.716 53.7521 143.361 54.2282 142.898 54.4658H143.274C145.831 54.5236 147.06 55.0306 147.918 55.8816C146.253 55.6558 144.272 55.0193 143.324 55.8351C142.729 57.8342 142.569 59.6803 142.677 61.1531C142.921 61.8221 143.38 62.1504 144.032 62.1767C142.288 62.6738 140.804 62.7195 140.695 60.0681C139.883 61.1015 139.181 62.7698 138.369 64.6797C138.493 62.5425 139.152 59.6924 140.678 56.0361L136.729 57.3633C137.803 55.6597 139.692 55.2569 141.574 54.4658H141.644C141.241 54.2282 141.006 53.7519 141.074 53.2031C141.174 52.4164 141.861 51.7785 142.609 51.7785Z" stroke="#E7E8E9" stroke-width="2.17058" stroke-miterlimit="2.613"/>
</g>
<path fill-rule="evenodd" clip-rule="evenodd" d="M142.609 51.7785C143.358 51.7785 143.884 52.4164 143.785 53.2031C143.716 53.7521 143.361 54.2282 142.898 54.4658H143.274C145.831 54.5236 147.06 55.0298 147.918 55.8816C146.253 55.6558 144.272 55.0193 143.324 55.8351C142.73 57.8342 142.569 59.6803 142.677 61.1525C142.921 61.8221 143.381 62.1504 144.032 62.1767C142.288 62.6738 140.804 62.7195 140.695 60.0681C139.883 61.1015 139.181 62.7698 138.369 64.6797C138.493 62.5425 139.152 59.6917 140.678 56.0361L136.729 57.3633C137.803 55.6597 139.692 55.2561 141.575 54.4658H141.643C141.241 54.2282 141.006 53.7519 141.075 53.2031C141.174 52.4164 141.861 51.7785 142.609 51.7785Z" fill="#D1D3D4"/>
<mask id="mask2_291_4313" style="mask-type:luminance" maskUnits="userSpaceOnUse" x="104" y="50" width="92" height="13">
<path d="M104.555 50.1562H195.162V62.8259H104.555V50.1562Z" fill="white"/>
</mask>
<g mask="url(#mask2_291_4313)">
<mask id="mask3_291_4313" style="mask-type:luminance" maskUnits="userSpaceOnUse" x="104" y="50" width="92" height="13">
<path d="M104.604 62.5025L106.339 50.1572H108.889L108.209 54.9836H113.583L114.263 50.1574H116.813L115.079 62.5023H112.528L113.225 57.4415H107.869L107.155 62.5023L104.604 62.5025ZM124.046 62.003C123.61 62.2321 123.146 62.403 122.665 62.5113C122.166 62.6261 121.651 62.6831 121.112 62.6831C119.934 62.6831 118.998 62.3186 118.309 61.5927C117.621 60.8669 117.275 59.8756 117.275 58.6227C117.275 57.2338 117.675 56.1137 118.471 55.255C119.27 54.3995 120.322 53.9712 121.628 53.9712C122.688 53.9712 123.504 54.2937 124.079 54.9416C124.655 55.5894 124.944 56.508 124.944 57.6982C124.944 57.8458 124.941 57.9957 124.933 58.1524C124.924 58.3074 124.911 58.4622 124.893 58.6165L119.672 58.6256C119.672 58.6555 119.67 58.6975 119.664 58.7584C119.659 58.8152 119.656 58.8544 119.656 58.873C119.656 59.4721 119.823 59.9273 120.158 60.243C120.492 60.5565 120.98 60.7134 121.614 60.7134C121.974 60.7134 122.385 60.6412 122.847 60.4964C123.308 60.3517 123.847 60.1231 124.468 59.8096L124.046 62.003ZM119.996 57.1708H122.665V57.0021C122.665 56.5679 122.569 56.2366 122.38 56.0108C122.19 55.7851 121.912 55.6704 121.546 55.6704C121.169 55.6704 120.852 55.7971 120.594 56.0498C120.333 56.3032 120.134 56.6767 119.996 57.1708ZM131.077 60.105L131.618 56.1406C131.562 56.1336 131.505 56.1286 131.448 56.1256C131.383 56.1225 131.289 56.1225 131.162 56.1225C130.241 56.1225 129.515 56.4053 128.977 56.9691C128.441 57.5354 128.172 58.2942 128.172 59.2496C128.172 59.7196 128.276 60.09 128.483 60.3607C128.69 60.6322 128.971 60.7679 129.325 60.7679C129.609 60.7679 129.895 60.7132 130.184 60.6045C130.476 60.4964 130.773 60.3277 131.077 60.105ZM130.737 62.5023L130.821 61.8523C130.439 62.1349 130.071 62.3404 129.719 62.4694C129.376 62.598 129.012 62.6643 128.645 62.6652C127.806 62.6652 127.143 62.3554 126.65 61.7344C126.157 61.1136 125.911 60.2738 125.911 59.2135C125.911 58.4687 126.043 57.7759 126.313 57.1319C126.582 56.4869 126.967 55.9388 127.472 55.4837C128.013 54.9955 128.65 54.649 129.379 54.4444C130.107 54.2367 131.272 54.134 132.879 54.134H134.174L133.021 62.5025L130.737 62.5023ZM134.857 62.5023L136.589 50.1574H138.836L137.104 62.5023H134.857ZM143.45 62.5023L145.184 50.1574H147.446L146.746 55.0742C147.205 54.691 147.647 54.4114 148.067 54.2367C148.485 54.0599 148.934 53.9695 149.387 53.9712C150.056 53.9712 150.58 54.1766 150.957 54.5832C151.338 54.9924 151.527 55.5533 151.527 56.2642C151.527 56.4293 151.521 56.5898 151.51 56.7456C151.499 56.8948 151.483 57.0436 151.462 57.1918L150.714 62.5025H148.401L149.115 57.4475C149.121 57.3876 149.126 57.3089 149.138 57.2098C149.166 56.9841 149.18 56.8364 149.18 56.7577C149.18 56.454 149.121 56.2154 149.002 56.0469C148.883 55.881 148.715 55.7971 148.5 55.7971C148.205 55.7971 147.891 55.8991 147.557 56.1076C147.222 56.3122 146.862 56.6259 146.482 57.0501L145.708 62.5025L143.45 62.5023ZM160.678 58.0026H163.311L162.645 53.2843L160.678 58.0026ZM156.067 62.5023L161.608 50.1574H164.447L166.405 62.5023H163.957L163.565 59.8096H159.938L158.835 62.5025L156.067 62.5023ZM166.66 61.9062L166.918 60.0083L167.001 60.0444C168.089 60.4786 168.866 60.6951 169.331 60.6951C169.512 60.6951 169.665 60.6471 169.789 60.5506C169.914 60.4546 169.977 60.3336 169.977 60.192C169.977 59.9453 169.739 59.6349 169.265 59.2585C168.982 59.035 168.76 58.8453 168.602 58.6952C168.098 58.2101 167.76 57.812 167.585 57.4993C167.411 57.1837 167.322 56.8291 167.324 56.469C167.324 55.7342 167.587 55.1343 168.117 54.667C168.644 54.2036 169.328 53.9712 170.164 53.9712C170.566 53.9712 170.971 54.032 171.376 54.1489C171.779 54.2666 172.198 54.4413 172.629 54.6791L172.496 56.6646C172.031 56.4239 171.612 56.2365 171.234 56.1045C170.858 55.9718 170.557 55.905 170.336 55.905C170.166 55.905 170.022 55.9478 169.909 56.0288C169.795 56.1106 169.739 56.2154 169.739 56.3452C169.739 56.598 170.013 56.9443 170.56 57.3785C170.785 57.558 171.004 57.7437 171.218 57.9356C171.637 58.3061 171.929 58.6436 172.085 58.9511C172.244 59.2554 172.323 59.6078 172.323 60.0083C172.323 60.7732 172.053 61.409 171.513 61.9122C170.974 62.4153 170.285 62.6651 169.45 62.6651C169.007 62.6651 168.551 62.6021 168.077 62.4754C167.604 62.3495 167.131 62.1588 166.66 61.9062ZM172.921 61.9062L173.179 60.0083L173.261 60.0444C174.349 60.4786 175.125 60.6951 175.59 60.6951C175.772 60.6951 175.925 60.6471 176.049 60.5506C176.175 60.4546 176.237 60.3336 176.237 60.192C176.237 59.9453 175.998 59.6349 175.525 59.2585C175.242 59.035 175.021 58.8453 174.862 58.6952C174.358 58.2101 174.02 57.812 173.845 57.4993C173.672 57.1836 173.582 56.829 173.584 56.469C173.584 55.7342 173.848 55.1343 174.378 54.667C174.905 54.2036 175.588 53.9712 176.423 53.9712C176.826 53.9712 177.231 54.032 177.637 54.1489C178.039 54.2666 178.459 54.4413 178.889 54.6791L178.756 56.6646C178.291 56.4239 177.872 56.2365 177.495 56.1045C177.118 55.9718 176.818 55.905 176.597 55.905C176.426 55.905 176.282 55.9478 176.169 56.0288C176.055 56.1106 175.998 56.2154 175.998 56.3452C175.998 56.598 176.274 56.9443 176.82 57.3785C177.045 57.558 177.264 57.7437 177.478 57.9356C177.898 58.3061 178.189 58.6436 178.345 58.9511C178.504 59.2554 178.583 59.6078 178.583 60.0083C178.583 60.7732 178.314 61.409 177.772 61.9122C177.234 62.4153 176.546 62.6651 175.71 62.6651C175.267 62.6651 174.811 62.6021 174.338 62.4754C173.865 62.3495 173.391 62.1588 172.921 61.9062ZM180.573 54.134H182.885L182.171 59.1888C182.152 59.3423 182.134 59.4783 182.123 59.599C182.113 59.6919 182.107 59.7852 182.106 59.8787C182.106 60.183 182.165 60.4208 182.284 60.5895C182.404 60.756 182.571 60.8399 182.786 60.8399C183.092 60.8399 183.415 60.7312 183.755 60.5174C184.095 60.3037 184.438 59.9933 184.789 59.5869L185.552 54.134H187.836L186.658 62.5025H184.382L184.514 61.5657C184.084 61.9423 183.656 62.2226 183.231 62.4003C182.808 62.5781 182.364 62.6652 181.899 62.6652C181.23 62.6652 180.706 62.4604 180.329 62.054C179.949 61.6475 179.76 61.0837 179.76 60.3667C179.76 60.207 179.765 60.0472 179.776 59.8937C179.787 59.7368 179.805 59.5869 179.824 59.4452L180.573 54.134ZM188.547 62.5025L189.727 54.134H192L191.849 55.2909C192.294 54.7638 192.642 54.4114 192.9 54.2367C193.156 54.0589 193.419 53.9712 193.682 53.9712C193.895 53.9712 194.119 54.0169 194.357 54.11C194.595 54.2036 194.845 54.3453 195.111 54.5321L194.008 57.08C193.796 56.8393 193.603 56.6616 193.428 56.547C193.249 56.4329 193.082 56.3753 192.92 56.3753C192.694 56.3753 192.462 56.4719 192.229 56.6618C191.994 56.8545 191.758 57.1378 191.526 57.5143L190.829 62.5023L188.547 62.5025Z" fill="white"/>
</mask>
<g mask="url(#mask3_291_4313)">
<path d="M104.43 50.1603L195.094 48.9004L195.285 62.6806L104.622 63.9404L104.43 50.1603Z" fill="url(#paint0_linear_291_4313)"/>
</g>
</g>
<path fill-rule="evenodd" clip-rule="evenodd" d="M142.609 51.7785C143.358 51.7785 143.884 52.4164 143.785 53.2031C143.716 53.7521 143.361 54.2282 142.898 54.4658H143.274C145.831 54.5236 147.06 55.0298 147.918 55.8816C146.253 55.6558 144.272 55.0193 143.324 55.8351C142.73 57.8342 142.569 59.6803 142.677 61.1525C142.921 61.8221 143.381 62.1504 144.032 62.1767C142.288 62.6738 140.804 62.7195 140.695 60.0681C139.883 61.1015 139.181 62.7698 138.369 64.6797C138.493 62.5425 139.152 59.6917 140.678 56.0361L136.729 57.3633C137.803 55.6597 139.692 55.2561 141.575 54.4658H141.643C141.241 54.2282 141.006 53.7519 141.075 53.2031C141.174 52.4164 141.861 51.7785 142.609 51.7785Z" fill="#0087CA"/>
<path d="M146.203 68.537C146.203 68.4702 146.226 68.4119 146.273 68.3652C146.32 68.318 146.378 68.2948 146.447 68.2948C146.515 68.2948 146.574 68.318 146.621 68.3652C146.669 68.4119 146.692 68.4702 146.692 68.537C146.692 68.6052 146.669 68.6637 146.621 68.7109C146.598 68.7344 146.571 68.753 146.542 68.7655C146.512 68.7781 146.479 68.7843 146.447 68.7839C146.379 68.7839 146.322 68.7589 146.274 68.7109C146.251 68.6884 146.233 68.6613 146.221 68.6314C146.208 68.6015 146.202 68.5694 146.203 68.537ZM147.388 68.537C147.388 68.4702 147.411 68.4119 147.458 68.3652C147.504 68.318 147.563 68.2948 147.632 68.2948C147.7 68.2948 147.758 68.318 147.806 68.3652C147.853 68.4119 147.877 68.4702 147.877 68.537C147.877 68.6052 147.853 68.6637 147.806 68.7109C147.783 68.7344 147.756 68.753 147.726 68.7656C147.696 68.7781 147.664 68.7844 147.632 68.7839C147.564 68.7839 147.506 68.7589 147.459 68.7109C147.436 68.6884 147.418 68.6613 147.405 68.6314C147.393 68.6015 147.387 68.5694 147.388 68.537ZM148.573 68.537C148.573 68.4702 148.596 68.4119 148.642 68.3652C148.689 68.318 148.747 68.2948 148.816 68.2948C148.884 68.2948 148.943 68.318 148.99 68.3652C149.038 68.4119 149.062 68.4702 149.062 68.537C149.062 68.6052 149.038 68.6637 148.99 68.7109C148.943 68.7589 148.884 68.7839 148.816 68.7839C148.749 68.7839 148.69 68.7589 148.644 68.7109C148.621 68.6884 148.603 68.6613 148.59 68.6314C148.578 68.6015 148.572 68.5694 148.573 68.537ZM150.316 67.8435C150.305 67.9101 150.295 67.9678 150.289 68.0158C150.283 68.0623 150.279 68.1043 150.279 68.1397C150.279 68.228 150.302 68.2932 150.345 68.3374C150.39 68.3804 150.455 68.4026 150.544 68.4026C150.594 68.4026 150.65 68.3923 150.711 68.3714C150.777 68.3482 150.84 68.3173 150.9 68.2792V68.6516C150.81 68.6983 150.725 68.7328 150.645 68.7545C150.566 68.777 150.49 68.7883 150.42 68.7883C150.25 68.7883 150.112 68.7357 150.007 68.6309C149.9 68.5257 149.846 68.3879 149.846 68.2153C149.846 68.1696 149.851 68.1178 149.858 68.0617C149.866 68.0053 149.879 67.9296 149.899 67.8337L150.087 66.9218H149.729L149.796 66.6212H150.158L150.262 66.1741H150.679L150.581 66.6212H150.998L150.93 66.9218H150.51L150.316 67.8435ZM151.59 68.7409H151.196L151.512 66.6212H151.907L151.849 67.0193C151.952 66.8573 152.046 66.7448 152.129 66.6819C152.179 66.6427 152.237 66.6148 152.299 66.6002C152.361 66.5856 152.425 66.5846 152.488 66.5972C152.518 66.6039 152.549 66.613 152.582 66.6256L152.477 67.0065C152.457 67.0015 152.437 66.9978 152.417 66.9954C152.398 66.9932 152.379 66.9922 152.36 66.9923C152.243 66.9923 152.136 67.0359 152.042 67.1236C151.947 67.2119 151.856 67.3522 151.769 67.5434L151.59 68.7409ZM154.33 68.7409H153.931L153.97 68.4769C153.887 68.5812 153.799 68.6585 153.708 68.7081C153.616 68.7583 153.514 68.7844 153.409 68.7837C153.204 68.7837 153.033 68.7027 152.896 68.5422C152.758 68.3817 152.691 68.1786 152.691 67.9341C152.691 67.7901 152.714 67.65 152.761 67.5119C152.807 67.3747 152.875 67.2458 152.962 67.1303C153.1 66.9495 153.259 66.8199 153.442 66.7397C153.624 66.6609 153.859 66.6212 154.149 66.6212H154.641L154.33 68.7409ZM154.029 68.0871L154.189 66.9691C154.176 66.9666 154.162 66.9652 154.149 66.9646C154.133 66.9639 154.111 66.9639 154.082 66.9639C153.801 66.9639 153.571 67.0501 153.394 67.2232C153.217 67.3966 153.128 67.6185 153.128 67.8891C153.128 68.0563 153.166 68.1905 153.241 68.2919C153.316 68.3936 153.415 68.4449 153.536 68.4449C153.629 68.4449 153.717 68.4147 153.8 68.3556C153.883 68.2963 153.959 68.2055 154.029 68.0871ZM154.833 68.7409L155.155 66.6212H155.563L155.51 66.96C155.642 66.8289 155.77 66.7306 155.894 66.6654C156.017 66.6009 156.14 66.5694 156.263 66.5694C156.422 66.5694 156.546 66.6204 156.635 66.7216C156.722 66.8235 156.766 66.9668 156.766 67.1528C156.766 67.1992 156.764 67.2495 156.759 67.3035C156.754 67.3614 156.747 67.4192 156.738 67.4768L156.55 68.7409H156.141L156.334 67.3741C156.34 67.329 156.344 67.2885 156.347 67.2518C156.35 67.2157 156.352 67.1858 156.352 67.1626C156.352 67.08 156.332 67.017 156.29 66.9758C156.248 66.9332 156.188 66.912 156.107 66.912C156.009 66.912 155.906 66.9481 155.799 67.0201C155.693 67.0921 155.582 67.1992 155.469 67.3417L155.244 68.7411L154.833 68.7409ZM157.039 68.4906L157.137 68.0968C157.279 68.2116 157.401 68.2926 157.501 68.342C157.602 68.3915 157.696 68.417 157.782 68.417C157.866 68.417 157.934 68.3959 157.987 68.3548C158.041 68.3143 158.068 68.2617 158.068 68.1988C158.068 68.1013 157.942 67.965 157.69 67.7893L157.682 67.7826C157.483 67.6432 157.358 67.5315 157.303 67.4474C157.249 67.3628 157.222 67.2645 157.222 67.1528C157.222 66.9796 157.284 66.8401 157.407 66.7335C157.53 66.6272 157.693 66.5738 157.899 66.5738C158.141 66.5719 158.377 66.6491 158.571 66.7936L158.537 67.2224C158.416 67.1272 158.301 67.0554 158.19 67.0074C158.08 66.9595 157.977 66.936 157.881 66.936C157.806 66.936 157.745 66.9533 157.7 66.9879C157.678 67.0028 157.661 67.0228 157.649 67.0463C157.637 67.0697 157.631 67.0957 157.631 67.122C157.631 67.2054 157.728 67.314 157.923 67.449C158.012 67.5112 158.083 67.5599 158.135 67.5989C158.265 67.6995 158.357 67.7939 158.409 67.8801C158.461 67.9671 158.487 68.0654 158.487 68.1777C158.487 68.3548 158.422 68.5002 158.293 68.6134C158.164 68.7267 157.998 68.7837 157.795 68.7837C157.667 68.7837 157.54 68.7596 157.421 68.7127C157.299 68.666 157.171 68.5925 157.039 68.4906ZM159.213 66.3684C159.266 66.0588 159.364 65.8367 159.506 65.7011C159.648 65.5654 159.853 65.4971 160.119 65.4971C160.213 65.4971 160.304 65.5067 160.394 65.5249C160.484 65.5435 160.571 65.5714 160.655 65.6103L160.604 65.9687C160.524 65.9268 160.439 65.8946 160.352 65.8727C160.267 65.8516 160.18 65.8408 160.092 65.8405C159.953 65.8405 159.842 65.881 159.761 65.9634C159.68 66.0453 159.627 66.1689 159.603 66.3338L159.555 66.6212H159.998L159.949 66.9781H159.504L159.109 69.6109H158.722L159.114 66.9781H158.774L158.826 66.621H159.169L159.213 66.3684ZM160.033 67.8388C160.033 67.4856 160.133 67.1866 160.333 66.9414C160.532 66.6961 160.771 66.5738 161.048 66.5738C161.308 66.5738 161.513 66.6586 161.664 66.8272C161.815 66.9969 161.89 67.2284 161.89 67.5248C161.89 67.8876 161.791 68.1876 161.592 68.4261C161.392 68.6645 161.143 68.7837 160.841 68.7837C160.59 68.7837 160.393 68.6998 160.249 68.5318C160.106 68.3639 160.033 68.1329 160.033 67.8388ZM161.062 66.912C160.902 66.912 160.763 67.0065 160.643 67.194C160.525 67.3822 160.466 67.6079 160.466 67.8711C160.466 68.0527 160.501 68.1944 160.572 68.2986C160.643 68.4028 160.74 68.4545 160.861 68.4545C161.035 68.4545 161.179 68.3639 161.293 68.183C161.406 68.0032 161.462 67.7684 161.462 67.4812C161.462 67.3012 161.428 67.161 161.358 67.0612C161.288 66.9616 161.19 66.912 161.062 66.912ZM162.543 68.7411H162.15L162.466 66.6212H162.86L162.803 67.0193C162.906 66.8573 162.999 66.7448 163.083 66.6819C163.133 66.6427 163.191 66.6149 163.253 66.6002C163.315 66.5856 163.379 66.5846 163.442 66.5972C163.471 66.6039 163.502 66.613 163.536 66.6256L163.431 67.0065C163.411 67.0015 163.391 66.9978 163.371 66.9954C163.352 66.9932 163.333 66.9922 163.314 66.9923C163.196 66.9923 163.09 67.0359 162.996 67.1236C162.901 67.2119 162.809 67.3522 162.722 67.5434L162.543 68.7411ZM163.611 68.7411L163.933 66.6212H164.341L164.294 66.9172C164.412 66.8003 164.53 66.7134 164.646 66.6556C164.762 66.598 164.879 66.5694 164.997 66.5694C165.132 66.5694 165.242 66.6047 165.328 66.675C165.413 66.7456 165.469 66.8468 165.493 66.9788C165.644 66.8349 165.783 66.7306 165.908 66.6654C166.025 66.6032 166.155 66.5703 166.287 66.5694C166.447 66.5694 166.571 66.6174 166.656 66.7149C166.742 66.8124 166.785 66.9541 166.785 67.1386C166.785 67.177 166.782 67.2255 166.776 67.2841C166.769 67.3417 166.761 67.4054 166.75 67.4745L166.563 68.7409H166.153L166.356 67.3687L166.371 67.2562C166.375 67.2211 166.376 67.1881 166.376 67.1572C166.376 67.0756 166.356 67.0126 166.314 66.9714C166.272 66.9285 166.211 66.9076 166.131 66.9076C166.033 66.9076 165.93 66.9435 165.823 67.0155C165.716 67.0867 165.606 67.194 165.493 67.3372L165.283 68.7411H164.88L165.083 67.3687C165.088 67.329 165.093 67.2916 165.097 67.2562C165.101 67.2211 165.103 67.1881 165.103 67.1572C165.103 67.0756 165.083 67.0126 165.04 66.9714C164.999 66.9285 164.938 66.9076 164.858 66.9076C164.759 66.9076 164.657 66.9435 164.549 67.0155C164.443 67.0867 164.333 67.194 164.219 67.3372L164.022 68.7411H163.611ZM167.499 65.9612C167.499 65.8983 167.52 65.8451 167.564 65.8023C167.609 65.7587 167.662 65.737 167.724 65.737C167.786 65.737 167.838 65.7587 167.881 65.8031C167.924 65.8464 167.945 65.8998 167.945 65.9612C167.945 66.0227 167.924 66.0753 167.881 66.1186C167.861 66.1395 167.836 66.156 167.809 66.1671C167.782 66.1782 167.753 66.1837 167.724 66.1832C167.66 66.1832 167.606 66.162 167.563 66.1202C167.542 66.0996 167.525 66.0748 167.514 66.0474C167.503 66.0201 167.498 65.9907 167.499 65.9612ZM167.526 68.7409H167.118L167.427 66.6212H167.837L167.526 68.7409ZM168.11 68.7409L168.432 66.6212H168.84L168.787 66.96C168.92 66.8289 169.047 66.7306 169.171 66.6654C169.294 66.6009 169.417 66.5694 169.54 66.5694C169.699 66.5694 169.822 66.6204 169.912 66.7216C169.999 66.8235 170.043 66.9668 170.043 67.1528C170.043 67.1992 170.041 67.2495 170.036 67.3035C170.031 67.3614 170.024 67.4192 170.015 67.4768L169.827 68.7409H169.418L169.611 67.3741C169.617 67.329 169.621 67.2885 169.624 67.2518C169.627 67.2157 169.629 67.1858 169.629 67.1626C169.629 67.08 169.609 67.017 169.567 66.9758C169.525 66.9332 169.465 66.912 169.384 66.912C169.286 66.912 169.183 66.9481 169.076 67.0201C168.97 67.0921 168.859 67.1992 168.746 67.3417L168.521 68.7411L168.11 68.7409ZM170.809 67.4399C170.809 67.5584 170.845 67.6582 170.918 67.7384C170.991 67.8172 171.08 67.8575 171.186 67.8575C171.303 67.8575 171.403 67.8112 171.483 67.7189C171.563 67.6252 171.604 67.5104 171.604 67.3733C171.604 67.2487 171.57 67.1491 171.502 67.0725C171.434 66.9969 171.344 66.9593 171.231 66.9593C171.109 66.9593 171.008 67.0044 170.928 67.0936C170.849 67.1835 170.809 67.2983 170.809 67.4399ZM171.087 68.9336C170.867 68.9968 170.72 69.0492 170.647 69.092C170.573 69.1354 170.536 69.1834 170.536 69.2388C170.536 69.3199 170.581 69.3844 170.671 69.4316C170.76 69.4788 170.883 69.5028 171.039 69.5028C171.195 69.5028 171.317 69.4798 171.403 69.4354C171.49 69.3895 171.533 69.3273 171.533 69.2479C171.533 69.1818 171.498 69.1242 171.429 69.0747C171.361 69.0252 171.246 68.9787 171.087 68.9336ZM170.733 68.8211C170.606 68.7635 170.517 68.7088 170.467 68.6541C170.417 68.6029 170.39 68.534 170.391 68.4627C170.391 68.3796 170.424 68.3045 170.49 68.2356C170.555 68.1665 170.651 68.1095 170.776 68.0631C170.66 68.0009 170.575 67.9191 170.517 67.8179C170.461 67.7168 170.433 67.5952 170.433 67.4528C170.433 67.1889 170.52 66.9833 170.694 66.8385C170.869 66.6938 171.116 66.6212 171.435 66.6212H172.258L172.21 66.9451H171.848C171.901 67.0073 171.94 67.071 171.965 67.1393C171.991 67.2075 172.003 67.2802 172.003 67.3589C172.003 67.5233 171.959 67.6732 171.872 67.8066C171.786 67.9386 171.661 68.0409 171.514 68.0999C171.408 68.1441 171.282 68.1786 171.135 68.2026L171.075 68.2145C170.973 68.231 170.899 68.2521 170.856 68.2783C170.812 68.3032 170.79 68.3345 170.79 68.3729C170.79 68.4529 170.897 68.519 171.11 68.5723C171.225 68.6031 171.316 68.6292 171.384 68.651C171.587 68.7155 171.731 68.7896 171.815 68.8737C171.899 68.9584 171.942 69.0657 171.942 69.197C171.942 69.3799 171.861 69.5268 171.7 69.64C171.539 69.7518 171.323 69.808 171.052 69.808C170.781 69.808 170.564 69.7585 170.398 69.6602C170.233 69.5613 170.151 69.4354 170.151 69.2824C170.151 69.1707 170.202 69.0739 170.304 68.9929C170.405 68.9119 170.548 68.8549 170.733 68.8211ZM173.498 68.7411L173.978 65.5301H174.381L174.171 66.9556C174.304 66.8251 174.433 66.7283 174.556 66.6646C174.68 66.6009 174.804 66.5694 174.928 66.5694C175.089 66.5694 175.212 66.6189 175.299 66.7193C175.386 66.8199 175.431 66.9623 175.431 67.1484C175.431 67.1925 175.428 67.242 175.423 67.2962C175.418 67.3499 175.413 67.4092 175.403 67.4714L175.214 68.7409H174.806L174.978 67.5661C174.993 67.4761 175.005 67.3858 175.017 67.2954C175.022 67.242 175.026 67.2008 175.026 67.1716C175.026 67.0823 175.006 67.0155 174.966 66.9706C174.927 66.9255 174.866 66.903 174.786 66.903C174.692 66.903 174.59 66.9406 174.477 67.0163C174.366 67.0929 174.244 67.2082 174.111 67.3643L173.909 68.7411H173.498ZM177.471 68.1208L177.404 68.5483C177.292 68.6248 177.17 68.6856 177.042 68.729C176.927 68.768 176.807 68.7881 176.686 68.7883C176.419 68.7883 176.201 68.6944 176.03 68.5078C175.859 68.3211 175.773 68.0803 175.773 67.7864C175.773 67.434 175.871 67.1437 176.064 66.9136C176.258 66.6842 176.502 66.5694 176.798 66.5694C177.043 66.5694 177.23 66.6406 177.36 66.7838C177.491 66.9262 177.556 67.1326 177.556 67.3994V67.6409H176.215L176.206 67.7811V67.8337C176.206 68.0068 176.255 68.1508 176.355 68.2671C176.454 68.3825 176.578 68.4403 176.722 68.4403C176.837 68.4403 176.953 68.4147 177.073 68.3639C177.191 68.3143 177.324 68.2326 177.471 68.1208H177.471ZM176.282 67.3447H177.175V67.2877C177.175 67.1687 177.142 67.0741 177.076 67.0036C177.01 66.9332 176.921 66.8986 176.807 66.8986C176.674 66.8986 176.565 66.9345 176.48 67.0073C176.396 67.0792 176.329 67.1917 176.282 67.3447ZM179.52 68.7411H179.121L179.16 68.4771C179.077 68.5812 178.989 68.6585 178.898 68.7081C178.806 68.7582 178.707 68.7837 178.599 68.7837C178.394 68.7837 178.223 68.7027 178.086 68.5422C177.949 68.3817 177.88 68.1786 177.88 67.9341C177.88 67.7901 177.904 67.65 177.95 67.5119C177.997 67.3748 178.065 67.246 178.152 67.1303C178.29 66.9495 178.449 66.8199 178.631 66.7397C178.814 66.6609 179.049 66.6212 179.339 66.6212H179.832L179.52 68.7411ZM179.219 68.0871L179.379 66.9691C179.366 66.9667 179.352 66.9652 179.339 66.9646C179.323 66.9639 179.301 66.9639 179.272 66.9639C178.991 66.9639 178.762 67.0501 178.585 67.2232C178.406 67.3966 178.318 67.6185 178.318 67.8891C178.318 68.0563 178.355 68.1905 178.432 68.2919C178.506 68.3936 178.605 68.4449 178.726 68.4449C178.819 68.4449 178.907 68.4147 178.99 68.3556C179.073 68.2963 179.149 68.2055 179.219 68.0871ZM180.545 65.5301H180.964L180.479 68.7409H180.061L180.545 65.5301ZM181.735 67.8433C181.724 67.9101 181.714 67.968 181.709 68.016C181.702 68.0569 181.699 68.0983 181.699 68.1397C181.699 68.228 181.72 68.2932 181.765 68.3374C181.808 68.3804 181.874 68.4026 181.963 68.4026C182.014 68.4026 182.068 68.3923 182.13 68.3714C182.19 68.351 182.253 68.3203 182.319 68.2792V68.6516C182.228 68.6983 182.144 68.7328 182.064 68.7545C181.991 68.7761 181.915 68.7875 181.839 68.7883C181.669 68.7883 181.531 68.7357 181.425 68.6309C181.318 68.5257 181.265 68.3879 181.265 68.2153C181.265 68.1696 181.269 68.1178 181.277 68.0617C181.284 68.0053 181.298 67.9296 181.318 67.8337L181.507 66.9218H181.148L181.214 66.6212H181.577L181.681 66.1741H182.098L181.999 66.6212H182.417L182.348 66.9218H181.928L181.735 67.8433ZM182.61 68.7411L183.09 65.5301H183.493L183.282 66.9556C183.415 66.8251 183.544 66.7283 183.668 66.6646C183.792 66.6009 183.915 66.5694 184.04 66.5694C184.2 66.5694 184.325 66.6189 184.412 66.7193C184.499 66.8199 184.542 66.9623 184.542 67.1484C184.542 67.1925 184.54 67.242 184.535 67.2962C184.53 67.3499 184.524 67.4092 184.514 67.4714L184.326 68.7409H183.917L184.09 67.5661C184.109 67.4384 184.122 67.3486 184.128 67.2954C184.135 67.242 184.138 67.2008 184.138 67.1716C184.138 67.0823 184.118 67.0155 184.078 66.9706C184.038 66.9255 183.978 66.903 183.897 66.903C183.804 66.903 183.701 66.9406 183.589 67.0163C183.478 67.0929 183.356 67.2082 183.222 67.3643L183.021 68.7411H182.61ZM186.462 68.2145L186.423 68.6292C186.323 68.6789 186.218 68.7177 186.109 68.7447C186.009 68.7706 185.906 68.7837 185.803 68.7837C185.518 68.7837 185.29 68.7006 185.119 68.5347C184.947 68.3696 184.862 68.15 184.862 67.8757C184.862 67.4962 184.986 67.1842 185.236 66.9406C185.485 66.6961 185.803 66.574 186.188 66.574C186.256 66.574 186.325 66.5776 186.398 66.5867C186.472 66.5949 186.544 66.6078 186.616 66.6241L186.579 66.9677C186.516 66.9556 186.458 66.9466 186.406 66.9406C186.357 66.9347 186.308 66.9314 186.259 66.9309C185.977 66.9309 185.746 67.0147 185.563 67.1835C185.38 67.3524 185.29 67.5659 185.29 67.8246C185.29 68.0128 185.34 68.1613 185.439 68.2687C185.539 68.3765 185.676 68.4305 185.851 68.4305C185.953 68.4305 186.055 68.4126 186.154 68.3767C186.263 68.3362 186.367 68.2817 186.462 68.2145ZM188.462 68.7411H188.064L188.102 68.4771C188.019 68.5812 187.931 68.6585 187.84 68.7081C187.749 68.7583 187.646 68.7843 187.542 68.7837C187.336 68.7837 187.165 68.7027 187.028 68.5422C186.892 68.3817 186.823 68.1786 186.823 67.9341C186.823 67.7901 186.846 67.65 186.893 67.5119C186.939 67.3747 187.007 67.2458 187.094 67.1303C187.232 66.9495 187.391 66.8199 187.574 66.7397C187.756 66.6609 187.992 66.6212 188.281 66.6212H188.774L188.462 68.7411ZM188.161 68.0871L188.322 66.9691C188.309 66.9667 188.295 66.9652 188.281 66.9646C188.265 66.9639 188.243 66.9639 188.214 66.9639C187.933 66.9639 187.704 67.0501 187.527 67.2232C187.349 67.3966 187.26 67.6185 187.26 67.8891C187.26 68.0563 187.298 68.1905 187.374 68.2919C187.449 68.3936 187.548 68.4449 187.668 68.4449C187.762 68.4449 187.85 68.4147 187.932 68.3556C188.015 68.2963 188.091 68.2055 188.161 68.0871H188.161ZM189.364 68.7409H188.971L189.287 66.6212H189.681L189.624 67.0193C189.727 66.8573 189.82 66.7448 189.904 66.6819C189.954 66.6427 190.012 66.6148 190.074 66.6002C190.136 66.5855 190.2 66.5845 190.263 66.5972C190.293 66.6039 190.324 66.613 190.357 66.6256L190.252 67.0065C190.232 67.0015 190.212 66.9978 190.191 66.9954C190.173 66.9932 190.154 66.9922 190.135 66.9923C190.018 66.9923 189.911 67.0359 189.817 67.1236C189.722 67.2119 189.632 67.3522 189.544 67.5434L189.364 68.7409ZM192.163 68.1208L192.096 68.5483C191.984 68.6248 191.862 68.6856 191.734 68.729C191.619 68.768 191.499 68.788 191.378 68.7883C191.111 68.7883 190.893 68.6944 190.722 68.5078C190.551 68.3211 190.465 68.0803 190.465 67.7864C190.465 67.434 190.563 67.1437 190.756 66.9136C190.95 66.6842 191.194 66.5694 191.49 66.5694C191.735 66.5694 191.922 66.6406 192.052 66.7838C192.183 66.9262 192.248 67.1326 192.248 67.3994V67.6409H190.908L190.898 67.7811V67.8337C190.898 68.0068 190.947 68.1508 191.047 68.2671C191.146 68.3825 191.27 68.4403 191.415 68.4403C191.529 68.4403 191.646 68.4147 191.765 68.3639C191.883 68.3143 192.016 68.2326 192.163 68.1208ZM190.974 67.3447H191.867V67.2877C191.867 67.1687 191.834 67.0741 191.768 67.0036C191.702 66.9332 191.613 66.8986 191.499 66.8986C191.366 66.8986 191.257 66.9345 191.172 67.0073C191.088 67.0792 191.021 67.1917 190.974 67.3447Z" fill="#0087CA"/>
<path d="M183.961 51.6298V50.2215H184.615C184.746 50.2215 184.846 50.2342 184.914 50.2599C184.982 50.2853 185.037 50.3294 185.078 50.3932C185.119 50.4577 185.139 50.5283 185.139 50.6055C185.139 50.7053 185.105 50.7897 185.038 50.8581C184.97 50.9264 184.865 50.9698 184.724 50.9886C184.776 51.0119 184.815 51.0358 184.842 51.0583C184.898 51.1086 184.952 51.1708 185.003 51.2459L185.258 51.6298H185.014L184.82 51.3365C184.776 51.2696 184.729 51.2048 184.679 51.1424C184.651 51.1061 184.617 51.0743 184.58 51.0479C184.552 51.031 184.523 51.0186 184.491 51.0111C184.455 51.0056 184.419 51.0033 184.382 51.0044H184.157V51.6298H183.961ZM184.157 50.8431H184.576C184.665 50.8431 184.734 50.8341 184.784 50.8162C184.835 50.799 184.873 50.7711 184.898 50.7322C184.924 50.6951 184.937 50.6512 184.937 50.6062C184.937 50.5394 184.912 50.4839 184.862 50.4411C184.811 50.3985 184.732 50.3766 184.622 50.3766H184.157V50.8431ZM186.495 51.1357L186.691 51.1829C186.649 51.3359 186.576 51.452 186.47 51.533C186.364 51.6133 186.234 51.653 186.08 51.653C185.922 51.653 185.793 51.6223 185.693 51.5609C185.593 51.4985 185.519 51.4092 185.467 51.2923C185.415 51.1734 185.388 51.0449 185.389 50.9151C185.389 50.7688 185.418 50.6406 185.476 50.5319C185.535 50.4225 185.619 50.34 185.727 50.283C185.837 50.2258 185.96 50.1967 186.084 50.1983C186.232 50.1983 186.355 50.2334 186.455 50.3054C186.556 50.3774 186.626 50.478 186.666 50.6078L186.474 50.6512C186.44 50.5484 186.39 50.4742 186.325 50.4277C186.26 50.3805 186.178 50.3573 186.08 50.3573C185.968 50.3573 185.872 50.3836 185.797 50.4352C185.722 50.4852 185.666 50.5585 185.637 50.6437C185.606 50.7306 185.591 50.8221 185.591 50.9143C185.591 51.0335 185.608 51.1385 185.645 51.2278C185.681 51.3171 185.738 51.3831 185.815 51.4275C185.892 51.4722 185.975 51.4941 186.064 51.4941C186.174 51.4941 186.265 51.4641 186.341 51.404C186.417 51.3434 186.468 51.2541 186.495 51.1357H186.495ZM186.958 50.8055V50.6091H187.164V50.8057L186.958 50.8055ZM186.958 51.6298V51.4324H187.164V51.6298H186.958ZM188.684 51.6298H188.502V50.5275C188.459 50.5678 188.401 50.6078 188.331 50.6475C188.26 50.6865 188.196 50.7164 188.14 50.7358V50.5694C188.236 50.5272 188.325 50.4714 188.405 50.4037C188.481 50.3392 188.535 50.277 188.567 50.2156H188.684V51.6298ZM190.099 51.4647V51.6298H189.122C189.121 51.5884 189.129 51.5473 189.144 51.5088C189.169 51.4461 189.209 51.3831 189.265 51.3223C189.319 51.2608 189.398 51.1904 189.501 51.1101C189.661 50.9842 189.769 50.8852 189.826 50.8116C189.883 50.7381 189.911 50.6684 189.911 50.6032C189.911 50.535 189.886 50.4772 189.834 50.43C189.783 50.3828 189.715 50.3596 189.633 50.3596C189.545 50.3596 189.475 50.3843 189.422 50.4337C189.37 50.4832 189.344 50.5523 189.343 50.6406L189.158 50.6227C189.17 50.4907 189.218 50.3895 189.302 50.3198C189.385 50.2507 189.496 50.2156 189.637 50.2156C189.778 50.2156 189.89 50.253 189.973 50.3281C190.056 50.4029 190.096 50.496 190.096 50.607C190.096 50.6632 190.084 50.7187 190.06 50.7734C190.036 50.8281 189.996 50.8852 189.94 50.9458C189.884 51.0059 189.791 51.0883 189.661 51.1935C189.552 51.2802 189.482 51.3395 189.452 51.371C189.421 51.4017 189.395 51.4324 189.375 51.4647H190.099ZM190.295 51.2562L190.476 51.2322C190.497 51.3305 190.532 51.4012 190.582 51.4445C190.632 51.4881 190.693 51.5098 190.765 51.5098C190.851 51.5098 190.923 51.4812 190.982 51.425C191.04 51.3687 191.069 51.299 191.069 51.2157C191.069 51.1362 191.042 51.0704 190.987 51.0193C190.933 50.9675 190.864 50.9414 190.78 50.9414C190.746 50.9414 190.703 50.9481 190.652 50.9608L190.672 50.8093C190.684 50.8109 190.694 50.8116 190.702 50.8116C190.779 50.8116 190.848 50.7921 190.911 50.754C190.972 50.7157 191.003 50.6563 191.003 50.5769C191.003 50.5139 190.981 50.4615 190.935 50.4194C190.89 50.3782 190.833 50.3573 190.761 50.3573C190.691 50.3573 190.632 50.3789 190.585 50.421C190.538 50.4638 190.508 50.5275 190.495 50.6129L190.314 50.5815C190.336 50.4651 190.386 50.3753 190.465 50.3116C190.543 50.2478 190.641 50.2156 190.757 50.2156C190.834 50.2147 190.91 50.2316 190.979 50.2649C191.047 50.2979 191.099 50.343 191.135 50.4001C191.171 50.4569 191.188 50.517 191.188 50.5805C191.188 50.6414 191.172 50.6968 191.137 50.7464C191.103 50.7959 191.052 50.8356 190.986 50.8656C191.073 50.8844 191.14 50.9241 191.188 50.9848C191.237 51.0456 191.261 51.1213 191.261 51.2121C191.261 51.3349 191.214 51.4394 191.12 51.5248C191.026 51.6112 190.907 51.653 190.764 51.653C190.634 51.653 190.527 51.6162 190.441 51.5428C190.357 51.4703 190.304 51.3673 190.295 51.2562ZM191.44 51.2601L191.63 51.2459C191.644 51.3342 191.676 51.4002 191.727 51.4453C191.778 51.4895 191.84 51.5113 191.913 51.5113C192.002 51.5113 192.075 51.4806 192.135 51.4175C192.195 51.3545 192.225 51.2714 192.225 51.1679C192.225 51.0696 192.197 50.9917 192.139 50.9347C192.082 50.8777 192.006 50.8491 191.912 50.8491C191.853 50.8491 191.8 50.8619 191.754 50.8875C191.707 50.9128 191.671 50.9458 191.644 50.9863L191.473 50.9633L191.616 50.2396H192.347V50.4045H191.759L191.682 50.7846C191.769 50.7254 191.862 50.6955 191.959 50.6955C192.087 50.6955 192.196 50.7381 192.284 50.8237C192.372 50.9084 192.416 51.0178 192.416 51.152C192.416 51.2787 192.377 51.3898 192.3 51.4822C192.206 51.596 192.077 51.653 191.913 51.653C191.779 51.653 191.67 51.6169 191.586 51.5457C191.501 51.4737 191.452 51.3787 191.44 51.2601ZM192.586 50.9347C192.586 50.7688 192.604 50.6339 192.639 50.5327C192.675 50.4308 192.728 50.3526 192.799 50.2979C192.869 50.2432 192.959 50.2154 193.066 50.2154C193.145 50.2154 193.214 50.2306 193.274 50.2613C193.334 50.292 193.383 50.3356 193.421 50.3932C193.46 50.4502 193.49 50.5198 193.512 50.6024C193.535 50.6842 193.546 50.7959 193.546 50.9345C193.546 51.1003 193.528 51.234 193.493 51.3351C193.456 51.4369 193.404 51.5158 193.333 51.5705C193.262 51.6252 193.173 51.653 193.066 51.653C192.924 51.653 192.812 51.605 192.731 51.5083C192.634 51.3906 192.586 51.1992 192.586 50.9347H192.586ZM192.771 50.9354C192.771 51.1672 192.799 51.3215 192.856 51.3973C192.913 51.4737 192.982 51.5113 193.066 51.5113C193.148 51.5113 193.219 51.4729 193.276 51.3973C193.332 51.32 193.36 51.1664 193.36 50.9354C193.36 50.7037 193.332 50.55 193.276 50.4734C193.219 50.3978 193.148 50.3596 193.064 50.3596C192.98 50.3596 192.914 50.3932 192.864 50.46C192.802 50.5463 192.771 50.7043 192.771 50.9354ZM194.01 50.8663C193.935 50.8402 193.879 50.8026 193.843 50.7539C193.807 50.7032 193.787 50.6418 193.789 50.5792C193.789 50.4765 193.827 50.3903 193.904 50.3204C193.981 50.2507 194.083 50.2156 194.212 50.2156C194.34 50.2156 194.444 50.2515 194.522 50.3227C194.6 50.3947 194.639 50.4809 194.639 50.5838C194.639 50.649 194.622 50.7059 194.586 50.7539C194.55 50.8026 194.496 50.8402 194.423 50.8663C194.513 50.8949 194.581 50.9399 194.628 51.0028C194.676 51.065 194.699 51.1401 194.699 51.227C194.699 51.347 194.655 51.4482 194.566 51.53C194.476 51.6125 194.359 51.6528 194.214 51.6528C194.069 51.6528 193.952 51.6125 193.863 51.53C193.82 51.4914 193.785 51.444 193.762 51.3909C193.739 51.3379 193.728 51.2805 193.729 51.2226C193.729 51.1305 193.753 51.0537 193.802 50.9923C193.851 50.9308 193.92 50.8888 194.01 50.8663ZM193.974 50.5724C193.974 50.6392 193.996 50.694 194.041 50.736C194.086 50.7786 194.144 50.7997 194.216 50.7997C194.287 50.7997 194.344 50.7786 194.388 50.7366C194.409 50.717 194.426 50.6931 194.438 50.6665C194.449 50.6399 194.455 50.6112 194.454 50.5822C194.454 50.5193 194.431 50.4651 194.386 50.4225C194.341 50.3789 194.283 50.3573 194.214 50.3573C194.144 50.3573 194.087 50.3789 194.042 50.421C194.021 50.4399 194.003 50.4633 193.992 50.4894C193.98 50.5155 193.974 50.5438 193.974 50.5724ZM193.915 51.2232C193.915 51.2727 193.927 51.3207 193.951 51.3666C193.975 51.4123 194.011 51.4482 194.059 51.4737C194.108 51.4987 194.16 51.5113 194.215 51.5113C194.302 51.5113 194.374 51.485 194.43 51.4319C194.486 51.3785 194.514 51.3109 194.514 51.2293C194.514 51.146 194.485 51.0771 194.427 51.0232C194.37 50.9683 194.297 50.9414 194.209 50.9414C194.124 50.9414 194.053 50.9683 193.998 51.0224C193.942 51.0756 193.915 51.143 193.915 51.2232ZM195.456 51.6298V51.2931H194.814V51.1341L195.488 50.2215H195.636V51.1341H195.837V51.2931H195.636V51.6298H195.456ZM195.456 51.1341V50.5005L194.993 51.1339L195.456 51.1341Z" fill="#231F20"/>
<mask id="mask4_291_4313" style="mask-type:luminance" maskUnits="userSpaceOnUse" x="147" y="30" width="6" height="9">
<path d="M147.171 30.1924H152.354V38.0629H147.171V30.1924Z" fill="white"/>
</mask>
<g mask="url(#mask4_291_4313)">
<mask id="mask5_291_4313" style="mask-type:luminance" maskUnits="userSpaceOnUse" x="147" y="30" width="16" height="20">
<path d="M147.296 31.3937L155.064 30.1924L162.876 31.2902L162.482 33.9649V42.6589C161.255 46.5911 158.253 47.7091 155.24 49.4564C151.979 48.0729 148.869 45.8982 147.757 42.9521V34.2327L147.296 31.3937Z" fill="white"/>
</mask>
<g mask="url(#mask5_291_4313)">
<mask id="mask6_291_4313" style="mask-type:luminance" maskUnits="userSpaceOnUse" x="146" y="29" width="7" height="9">
<path d="M146.519 29.8438H152.274L146.8 37.9362L146.519 29.8438Z" fill="white"/>
</mask>
<g mask="url(#mask6_291_4313)">
<path d="M155.469 31.8762L151.192 39.9906L144.102 36.253L148.378 28.1387L155.469 31.8762Z" fill="url(#paint1_linear_291_4313)"/>
</g>
</g>
</g>
<mask id="mask7_291_4313" style="mask-type:luminance" maskUnits="userSpaceOnUse" x="154" y="36" width="9" height="14">
<path d="M154.082 36.7188H162.912V49.5804H154.082V36.7188Z" fill="white"/>
</mask>
<g mask="url(#mask7_291_4313)">
<mask id="mask8_291_4313" style="mask-type:luminance" maskUnits="userSpaceOnUse" x="147" y="30" width="16" height="20">
<path d="M147.295 31.3937L155.063 30.1924L162.875 31.2902L162.482 33.9649V42.6589C161.254 46.5911 158.253 47.7091 155.239 49.4564C151.978 48.0729 148.869 45.8982 147.757 42.9521V34.2327L147.295 31.3937Z" fill="white"/>
</mask>
<g mask="url(#mask8_291_4313)">
<mask id="mask9_291_4313" style="mask-type:luminance" maskUnits="userSpaceOnUse" x="154" y="36" width="14" height="16">
<path d="M167.077 39.9074L163.318 36.7617L154.136 50.0994L156.192 51.5438L167.077 39.9074Z" fill="white"/>
</mask>
<g mask="url(#mask9_291_4313)">
<path d="M147.792 43.3014L158.373 32.3945L169.219 42.9165L158.638 53.8233L147.792 43.3014Z" fill="url(#paint2_linear_291_4313)"/>
</g>
</g>
</g>
<mask id="mask10_291_4313" style="mask-type:luminance" maskUnits="userSpaceOnUse" x="147" y="30" width="15" height="19">
<path d="M147.171 30.1924H161.761V48.621H147.171V30.1924Z" fill="white"/>
</mask>
<g mask="url(#mask10_291_4313)">
<mask id="mask11_291_4313" style="mask-type:luminance" maskUnits="userSpaceOnUse" x="147" y="30" width="16" height="20">
<path d="M147.296 31.3937L155.064 30.1924L162.876 31.2902L162.482 33.9649V42.6589C161.255 46.5911 158.253 47.7091 155.24 49.4564C151.979 48.0729 148.869 45.8982 147.757 42.9521V34.2327L147.296 31.3937Z" fill="white"/>
</mask>
<g mask="url(#mask11_291_4313)">
<mask id="mask12_291_4313" style="mask-type:luminance" maskUnits="userSpaceOnUse" x="144" y="25" width="18" height="24">
<path d="M161.735 25.6914L157.272 25.8878L144.393 44.7813L145.953 48.5112L161.735 25.6914Z" fill="white"/>
</mask>
<g mask="url(#mask12_291_4313)">
<path d="M138.141 39.6285L154.296 22.9756L170.89 39.0737L154.734 55.7267L138.141 39.6285Z" fill="url(#paint3_linear_291_4313)"/>
</g>
</g>
</g>
<mask id="mask13_291_4313" style="mask-type:luminance" maskUnits="userSpaceOnUse" x="149" y="30" width="14" height="20">
<path d="M149.091 30.1924H162.912V49.5808H149.091V30.1924Z" fill="white"/>
</mask>
<g mask="url(#mask13_291_4313)">
<mask id="mask14_291_4313" style="mask-type:luminance" maskUnits="userSpaceOnUse" x="147" y="30" width="16" height="20">
<path d="M147.295 31.3937L155.063 30.1924L162.875 31.2902L162.482 33.9649V42.6589C161.254 46.5911 158.253 47.7091 155.239 49.4564C151.978 48.0729 148.869 45.8982 147.757 42.9521V34.2327L147.295 31.3937Z" fill="white"/>
</mask>
<g mask="url(#mask14_291_4313)">
<mask id="mask15_291_4313" style="mask-type:luminance" maskUnits="userSpaceOnUse" x="149" y="29" width="16" height="22">
<path d="M164.389 31.3102L162.027 29.0605L149.165 47.6753L151.373 50.239L164.389 31.3102Z" fill="white"/>
</mask>
<g mask="url(#mask15_291_4313)">
<path d="M170.821 34.3803L159.894 55.1113L141.218 45.2685L152.145 24.5371L170.821 34.3803Z" fill="url(#paint4_linear_291_4313)"/>
</g>
</g>
</g>
<defs>
<linearGradient id="paint0_linear_291_4313" x1="104.308" y1="50.1616" x2="104.5" y2="63.9463" gradientUnits="userSpaceOnUse">
<stop stop-color="#A6CE38"/>
<stop offset="0.25" stop-color="#A6CE38"/>
<stop offset="0.375" stop-color="#A6CE38"/>
<stop offset="0.438" stop-color="#A6CE38"/>
<stop offset="0.469" stop-color="#A6CE38"/>
<stop offset="0.477" stop-color="#A6CE38"/>
<stop offset="0.48" stop-color="#A4CD38"/>
<stop offset="0.484" stop-color="#A2CB38"/>
<stop offset="0.488" stop-color="#A1CB38"/>
<stop offset="0.492" stop-color="#9FCA38"/>
<stop offset="0.496" stop-color="#9EC838"/>
<stop offset="0.5" stop-color="#9EC838"/>
<stop offset="0.504" stop-color="#9CC738"/>
<stop offset="0.508" stop-color="#9AC639"/>
<stop offset="0.512" stop-color="#9AC639"/>
<stop offset="0.516" stop-color="#98C539"/>
<stop offset="0.52" stop-color="#97C439"/>
<stop offset="0.523" stop-color="#97C439"/>
<stop offset="0.527" stop-color="#95C339"/>
<stop offset="0.531" stop-color="#94C239"/>
<stop offset="0.535" stop-color="#93C239"/>
<stop offset="0.539" stop-color="#92C139"/>
<stop offset="0.543" stop-color="#91C039"/>
<stop offset="0.547" stop-color="#90C039"/>
<stop offset="0.551" stop-color="#8EBF39"/>
<stop offset="0.555" stop-color="#8DBE39"/>
<stop offset="0.559" stop-color="#8DBE39"/>
<stop offset="0.563" stop-color="#8BBD39"/>
<stop offset="0.566" stop-color="#8ABC39"/>
<stop offset="0.57" stop-color="#89BC3A"/>
<stop offset="0.574" stop-color="#88BB3A"/>
<stop offset="0.578" stop-color="#87BB39"/>
<stop offset="0.582" stop-color="#86BA39"/>
<stop offset="0.586" stop-color="#85B93A"/>
<stop offset="0.59" stop-color="#83B93A"/>
<stop offset="0.594" stop-color="#82B83A"/>
<stop offset="0.598" stop-color="#82B83A"/>
<stop offset="0.602" stop-color="#81B73A"/>
<stop offset="0.605" stop-color="#7FB63A"/>
<stop offset="0.609" stop-color="#7EB63A"/>
<stop offset="0.613" stop-color="#7DB53A"/>
<stop offset="0.617" stop-color="#7CB43A"/>
<stop offset="0.621" stop-color="#7BB43A"/>
<stop offset="0.625" stop-color="#7AB33A"/>
<stop offset="0.629" stop-color="#79B23A"/>
<stop offset="0.633" stop-color="#78B23A"/>
<stop offset="0.637" stop-color="#77B13A"/>
<stop offset="0.641" stop-color="#76B13A"/>
<stop offset="0.645" stop-color="#75B03A"/>
<stop offset="0.648" stop-color="#74AF3A"/>
<stop offset="0.652" stop-color="#72AF3A"/>
<stop offset="0.656" stop-color="#72AF3A"/>
<stop offset="0.66" stop-color="#71AE3A"/>
<stop offset="0.664" stop-color="#70AD3A"/>
<stop offset="0.668" stop-color="#6FAD3A"/>
<stop offset="0.672" stop-color="#6DAC3A"/>
<stop offset="0.676" stop-color="#6DAB3A"/>
<stop offset="0.68" stop-color="#6CAB3A"/>
<stop offset="0.684" stop-color="#6BAA3A"/>
<stop offset="0.688" stop-color="#69A93A"/>
<stop offset="0.691" stop-color="#68A93A"/>
<stop offset="0.695" stop-color="#68A83A"/>
<stop offset="0.699" stop-color="#66A83A"/>
<stop offset="0.703" stop-color="#65A73A"/>
<stop offset="0.707" stop-color="#64A73A"/>
<stop offset="0.711" stop-color="#62A63A"/>
<stop offset="0.715" stop-color="#62A63A"/>
<stop offset="0.719" stop-color="#61A53A"/>
<stop offset="0.723" stop-color="#60A43A"/>
<stop offset="0.727" stop-color="#5FA43A"/>
<stop offset="0.73" stop-color="#5DA33A"/>
<stop offset="0.734" stop-color="#5CA23A"/>
<stop offset="0.738" stop-color="#5CA23A"/>
<stop offset="0.742" stop-color="#5AA23A"/>
<stop offset="0.746" stop-color="#59A13A"/>
<stop offset="0.75" stop-color="#58A13A"/>
<stop offset="0.754" stop-color="#56A03A"/>
<stop offset="0.758" stop-color="#569F39"/>
<stop offset="0.762" stop-color="#559F3A"/>
<stop offset="0.766" stop-color="#539E39"/>
<stop offset="0.77" stop-color="#529D39"/>
<stop offset="0.773" stop-color="#519D3A"/>
<stop offset="0.777" stop-color="#519D39"/>
<stop offset="0.781" stop-color="#4F9C39"/>
<stop offset="0.785" stop-color="#4E9C39"/>
<stop offset="0.789" stop-color="#4C9B39"/>
<stop offset="0.793" stop-color="#4B9A39"/>
<stop offset="0.797" stop-color="#4B9A39"/>
<stop offset="0.801" stop-color="#499939"/>
<stop offset="0.805" stop-color="#489839"/>
<stop offset="0.809" stop-color="#479839"/>
<stop offset="0.813" stop-color="#459739"/>
<stop offset="0.816" stop-color="#459739"/>
<stop offset="0.82" stop-color="#449739"/>
<stop offset="0.824" stop-color="#429639"/>
<stop offset="0.828" stop-color="#419539"/>
<stop offset="0.832" stop-color="#3F9539"/>
<stop offset="0.836" stop-color="#3F9439"/>
<stop offset="0.84" stop-color="#3E9339"/>
<stop offset="0.844" stop-color="#3C9339"/>
<stop offset="0.848" stop-color="#3B9339"/>
<stop offset="0.852" stop-color="#399239"/>
<stop offset="0.855" stop-color="#399239"/>
<stop offset="0.859" stop-color="#379138"/>
<stop offset="0.863" stop-color="#369038"/>
<stop offset="0.867" stop-color="#349038"/>
<stop offset="0.871" stop-color="#328F38"/>
<stop offset="0.875" stop-color="#328F38"/>
<stop offset="0.879" stop-color="#308F38"/>
<stop offset="0.883" stop-color="#2E8E38"/>
<stop offset="0.887" stop-color="#2C8D38"/>
<stop offset="0.891" stop-color="#2B8D38"/>
<stop offset="0.895" stop-color="#2A8C38"/>
<stop offset="0.898" stop-color="#288B38"/>
<stop offset="0.902" stop-color="#278B38"/>
<stop offset="0.906" stop-color="#248B38"/>
<stop offset="0.91" stop-color="#228A37"/>
<stop offset="0.914" stop-color="#228A37"/>
<stop offset="0.918" stop-color="#208937"/>
<stop offset="0.922" stop-color="#1D8837"/>
<stop offset="0.926" stop-color="#1B8837"/>
<stop offset="0.93" stop-color="#188737"/>
<stop offset="0.934" stop-color="#178737"/>
<stop offset="0.938" stop-color="#158737"/>
<stop offset="0.941" stop-color="#118637"/>
<stop offset="0.945" stop-color="#0D8537"/>
<stop offset="0.949" stop-color="#098537"/>
<stop offset="0.953" stop-color="#088436"/>
<stop offset="0.957" stop-color="#038436"/>
<stop offset="0.961" stop-color="#008436"/>
<stop offset="0.965" stop-color="#008336"/>
<stop offset="0.969" stop-color="#008236"/>
<stop offset="0.973" stop-color="#008236"/>
<stop offset="0.977" stop-color="#008136"/>
<stop offset="0.98" stop-color="#008136"/>
<stop offset="0.984" stop-color="#008136"/>
<stop offset="0.988" stop-color="#008036"/>
<stop offset="0.992" stop-color="#007F35"/>
<stop offset="0.996" stop-color="#007F36"/>
<stop offset="1" stop-color="#007E35"/>
</linearGradient>
<linearGradient id="paint1_linear_291_4313" x1="155.616" y1="31.6054" x2="148.522" y2="27.8664" gradientUnits="userSpaceOnUse">
<stop stop-color="#0087CA"/>
<stop offset="0.25" stop-color="#0087CA"/>
<stop offset="0.375" stop-color="#0087CA"/>
<stop offset="0.438" stop-color="#0087CA"/>
<stop offset="0.469" stop-color="#0087CA"/>
<stop offset="0.473" stop-color="#0088CB"/>
<stop offset="0.477" stop-color="#0089CC"/>
<stop offset="0.48" stop-color="#008ACD"/>
<stop offset="0.484" stop-color="#008CCE"/>
<stop offset="0.488" stop-color="#008CCF"/>
<stop offset="0.492" stop-color="#008ED0"/>
<stop offset="0.496" stop-color="#008ED1"/>
<stop offset="0.5" stop-color="#0090D2"/>
<stop offset="0.504" stop-color="#0091D3"/>
<stop offset="0.508" stop-color="#0092D3"/>
<stop offset="0.512" stop-color="#0093D5"/>
<stop offset="0.516" stop-color="#0094D5"/>
<stop offset="0.52" stop-color="#0095D7"/>
<stop offset="0.523" stop-color="#0096D7"/>
<stop offset="0.527" stop-color="#0097D8"/>
<stop offset="0.531" stop-color="#0098D9"/>
<stop offset="0.535" stop-color="#0099DA"/>
<stop offset="0.539" stop-color="#009ADB"/>
<stop offset="0.543" stop-color="#009BDC"/>
<stop offset="0.547" stop-color="#009CDD"/>
<stop offset="0.551" stop-color="#009DDE"/>
<stop offset="0.555" stop-color="#009DDF"/>
<stop offset="0.559" stop-color="#009EE0"/>
<stop offset="0.563" stop-color="#009FE1"/>
<stop offset="0.566" stop-color="#00A0E2"/>
<stop offset="0.57" stop-color="#00A1E3"/>
<stop offset="0.574" stop-color="#00A2E3"/>
<stop offset="0.578" stop-color="#00A3E5"/>
<stop offset="0.582" stop-color="#00A4E5"/>
<stop offset="0.586" stop-color="#00A5E7"/>
<stop offset="0.59" stop-color="#00A6E7"/>
<stop offset="0.594" stop-color="#00A7E8"/>
<stop offset="0.598" stop-color="#00A7E9"/>
<stop offset="0.602" stop-color="#00A8EA"/>
<stop offset="0.605" stop-color="#00A9EB"/>
<stop offset="0.609" stop-color="#00AAEC"/>
<stop offset="0.613" stop-color="#00ACEE"/>
<stop offset="0.617" stop-color="#00AEEF"/>
<stop offset="0.625" stop-color="#00AEEF"/>
<stop offset="0.75" stop-color="#00AEEF"/>
<stop offset="1" stop-color="#00AEEF"/>
</linearGradient>
<linearGradient id="paint2_linear_291_4313" x1="143.788" y1="47.4215" x2="154.637" y2="57.9467" gradientUnits="userSpaceOnUse">
<stop stop-color="#A6CE38"/>
<stop offset="0.5" stop-color="#A6CE38"/>
<stop offset="0.531" stop-color="#A6CE38"/>
<stop offset="0.547" stop-color="#A6CE38"/>
<stop offset="0.555" stop-color="#A6CE38"/>
<stop offset="0.559" stop-color="#A2CB38"/>
<stop offset="0.563" stop-color="#9FCA38"/>
<stop offset="0.566" stop-color="#9CC738"/>
<stop offset="0.57" stop-color="#9AC639"/>
<stop offset="0.574" stop-color="#97C439"/>
<stop offset="0.578" stop-color="#95C339"/>
<stop offset="0.582" stop-color="#92C139"/>
<stop offset="0.586" stop-color="#8FBF39"/>
<stop offset="0.59" stop-color="#8DBE39"/>
<stop offset="0.594" stop-color="#8ABC39"/>
<stop offset="0.598" stop-color="#88BB3A"/>
<stop offset="0.602" stop-color="#85B93A"/>
<stop offset="0.605" stop-color="#82B83A"/>
<stop offset="0.609" stop-color="#80B73A"/>
<stop offset="0.613" stop-color="#7EB53A"/>
<stop offset="0.617" stop-color="#7BB43A"/>
<stop offset="0.621" stop-color="#79B23A"/>
<stop offset="0.625" stop-color="#76B13A"/>
<stop offset="0.629" stop-color="#74AF3A"/>
<stop offset="0.633" stop-color="#71AE3A"/>
<stop offset="0.637" stop-color="#6FAD3A"/>
<stop offset="0.641" stop-color="#6CAB3A"/>
<stop offset="0.645" stop-color="#6AAA3A"/>
<stop offset="0.648" stop-color="#67A83A"/>
<stop offset="0.652" stop-color="#65A73A"/>
<stop offset="0.656" stop-color="#62A63A"/>
<stop offset="0.66" stop-color="#60A43A"/>
<stop offset="0.664" stop-color="#5DA33A"/>
<stop offset="0.668" stop-color="#5AA23A"/>
<stop offset="0.672" stop-color="#58A13A"/>
<stop offset="0.676" stop-color="#559F3A"/>
<stop offset="0.68" stop-color="#529D39"/>
<stop offset="0.684" stop-color="#4F9C39"/>
<stop offset="0.688" stop-color="#4C9B39"/>
<stop offset="0.691" stop-color="#4B9A39"/>
<stop offset="0.695" stop-color="#489839"/>
<stop offset="0.699" stop-color="#459739"/>
<stop offset="0.703" stop-color="#429639"/>
<stop offset="0.707" stop-color="#3F9439"/>
<stop offset="0.711" stop-color="#3C9339"/>
<stop offset="0.715" stop-color="#399239"/>
<stop offset="0.719" stop-color="#369139"/>
<stop offset="0.723" stop-color="#328F38"/>
<stop offset="0.727" stop-color="#2E8E38"/>
<stop offset="0.73" stop-color="#2C8D38"/>
<stop offset="0.734" stop-color="#288B38"/>
<stop offset="0.738" stop-color="#248B38"/>
<stop offset="0.742" stop-color="#208937"/>
<stop offset="0.746" stop-color="#1A8837"/>
<stop offset="0.75" stop-color="#158737"/>
<stop offset="0.754" stop-color="#0D8537"/>
<stop offset="0.758" stop-color="#038437"/>
<stop offset="0.762" stop-color="#008336"/>
<stop offset="0.766" stop-color="#008236"/>
<stop offset="0.77" stop-color="#008136"/>
<stop offset="0.773" stop-color="#007F35"/>
<stop offset="0.777" stop-color="#007E35"/>
<stop offset="0.781" stop-color="#007D35"/>
<stop offset="0.785" stop-color="#007C35"/>
<stop offset="0.789" stop-color="#007B35"/>
<stop offset="0.793" stop-color="#007934"/>
<stop offset="0.797" stop-color="#007934"/>
<stop offset="0.801" stop-color="#007734"/>
<stop offset="0.805" stop-color="#007634"/>
<stop offset="0.809" stop-color="#007533"/>
<stop offset="0.813" stop-color="#007433"/>
<stop offset="0.816" stop-color="#007333"/>
<stop offset="0.82" stop-color="#007232"/>
<stop offset="0.824" stop-color="#007132"/>
<stop offset="0.828" stop-color="#007032"/>
<stop offset="0.832" stop-color="#006F31"/>
<stop offset="0.836" stop-color="#006E31"/>
<stop offset="0.84" stop-color="#006C30"/>
<stop offset="0.844" stop-color="#006C30"/>
<stop offset="0.848" stop-color="#006B30"/>
<stop offset="0.852" stop-color="#006A30"/>
<stop offset="0.855" stop-color="#00692F"/>
<stop offset="0.859" stop-color="#00682F"/>
<stop offset="0.863" stop-color="#00672E"/>
<stop offset="0.867" stop-color="#00652E"/>
<stop offset="0.871" stop-color="#00652E"/>
<stop offset="0.875" stop-color="#00652E"/>
<stop offset="1" stop-color="#00652E"/>
</linearGradient>
<linearGradient id="paint3_linear_291_4313" x1="132.312" y1="45.6164" x2="148.912" y2="61.7201" gradientUnits="userSpaceOnUse">
<stop stop-color="#A6CE38"/>
<stop offset="0.25" stop-color="#A6CE38"/>
<stop offset="0.313" stop-color="#A6CE38"/>
<stop offset="0.32" stop-color="#A6CE38"/>
<stop offset="0.324" stop-color="#A3CC39"/>
<stop offset="0.328" stop-color="#A0CA38"/>
<stop offset="0.332" stop-color="#9DC838"/>
<stop offset="0.336" stop-color="#9AC639"/>
<stop offset="0.34" stop-color="#97C439"/>
<stop offset="0.344" stop-color="#94C239"/>
<stop offset="0.348" stop-color="#91C039"/>
<stop offset="0.352" stop-color="#8DBE39"/>
<stop offset="0.355" stop-color="#8ABC39"/>
<stop offset="0.359" stop-color="#87BB39"/>
<stop offset="0.363" stop-color="#85B93A"/>
<stop offset="0.367" stop-color="#82B83A"/>
<stop offset="0.371" stop-color="#7EB63A"/>
<stop offset="0.375" stop-color="#7BB43A"/>
<stop offset="0.379" stop-color="#79B23A"/>
<stop offset="0.383" stop-color="#76B13A"/>
<stop offset="0.387" stop-color="#73AF3A"/>
<stop offset="0.391" stop-color="#70AE3A"/>
<stop offset="0.395" stop-color="#6DAC3A"/>
<stop offset="0.398" stop-color="#6BAA3A"/>
<stop offset="0.402" stop-color="#68A83A"/>
<stop offset="0.406" stop-color="#64A73A"/>
<stop offset="0.41" stop-color="#61A53A"/>
<stop offset="0.414" stop-color="#5FA43A"/>
<stop offset="0.418" stop-color="#5CA23A"/>
<stop offset="0.422" stop-color="#58A13A"/>
<stop offset="0.426" stop-color="#559F3A"/>
<stop offset="0.43" stop-color="#529D39"/>
<stop offset="0.434" stop-color="#4F9C39"/>
<stop offset="0.438" stop-color="#4C9A39"/>
<stop offset="0.441" stop-color="#489939"/>
<stop offset="0.445" stop-color="#459739"/>
<stop offset="0.449" stop-color="#429639"/>
<stop offset="0.453" stop-color="#3F9439"/>
<stop offset="0.457" stop-color="#3B9339"/>
<stop offset="0.461" stop-color="#379138"/>
<stop offset="0.465" stop-color="#349038"/>
<stop offset="0.469" stop-color="#308F38"/>
<stop offset="0.473" stop-color="#2C8D38"/>
<stop offset="0.477" stop-color="#278B38"/>
<stop offset="0.48" stop-color="#228A37"/>
<stop offset="0.484" stop-color="#1D8837"/>
<stop offset="0.488" stop-color="#178737"/>
<stop offset="0.492" stop-color="#0D8637"/>
<stop offset="0.496" stop-color="#038437"/>
<stop offset="0.5" stop-color="#008336"/>
<stop offset="0.504" stop-color="#008136"/>
<stop offset="0.508" stop-color="#008036"/>
<stop offset="0.512" stop-color="#007E35"/>
<stop offset="0.516" stop-color="#007D35"/>
<stop offset="0.52" stop-color="#007C35"/>
<stop offset="0.523" stop-color="#007B35"/>
<stop offset="0.527" stop-color="#007934"/>
<stop offset="0.531" stop-color="#007834"/>
<stop offset="0.535" stop-color="#007733"/>
<stop offset="0.539" stop-color="#007533"/>
<stop offset="0.543" stop-color="#007433"/>
<stop offset="0.547" stop-color="#007333"/>
<stop offset="0.551" stop-color="#007232"/>
<stop offset="0.555" stop-color="#007032"/>
<stop offset="0.559" stop-color="#006F31"/>
<stop offset="0.563" stop-color="#006E31"/>
<stop offset="0.566" stop-color="#006C30"/>
<stop offset="0.57" stop-color="#006C30"/>
<stop offset="0.574" stop-color="#006A30"/>
<stop offset="0.578" stop-color="#00692F"/>
<stop offset="0.582" stop-color="#00682F"/>
<stop offset="0.586" stop-color="#00672E"/>
<stop offset="0.59" stop-color="#00662E"/>
<stop offset="0.594" stop-color="#00652E"/>
<stop offset="0.625" stop-color="#00652E"/>
<stop offset="0.75" stop-color="#00652E"/>
<stop offset="1" stop-color="#00652E"/>
</linearGradient>
<linearGradient id="paint4_linear_291_4313" x1="171.628" y1="32.876" x2="152.951" y2="23.0323" gradientUnits="userSpaceOnUse">
<stop stop-color="#0087CA"/>
<stop offset="0.25" stop-color="#0087CA"/>
<stop offset="0.375" stop-color="#0087CA"/>
<stop offset="0.383" stop-color="#0087CA"/>
<stop offset="0.387" stop-color="#0087CA"/>
<stop offset="0.391" stop-color="#0088CB"/>
<stop offset="0.395" stop-color="#0089CB"/>
<stop offset="0.398" stop-color="#008ACC"/>
<stop offset="0.402" stop-color="#008BCD"/>
<stop offset="0.406" stop-color="#008CCE"/>
<stop offset="0.41" stop-color="#008DCF"/>
<stop offset="0.414" stop-color="#008ED0"/>
<stop offset="0.418" stop-color="#008FD1"/>
<stop offset="0.422" stop-color="#0090D2"/>
<stop offset="0.426" stop-color="#0091D3"/>
<stop offset="0.43" stop-color="#0092D4"/>
<stop offset="0.434" stop-color="#0093D5"/>
<stop offset="0.438" stop-color="#0095D6"/>
<stop offset="0.441" stop-color="#0095D7"/>
<stop offset="0.445" stop-color="#0097D8"/>
<stop offset="0.449" stop-color="#0097D9"/>
<stop offset="0.453" stop-color="#0098DA"/>
<stop offset="0.457" stop-color="#0099DB"/>
<stop offset="0.461" stop-color="#009ADC"/>
<stop offset="0.465" stop-color="#009BDD"/>
<stop offset="0.469" stop-color="#009CDE"/>
<stop offset="0.473" stop-color="#009DDE"/>
<stop offset="0.477" stop-color="#009EE0"/>
<stop offset="0.48" stop-color="#009FE0"/>
<stop offset="0.484" stop-color="#00A0E2"/>
<stop offset="0.488" stop-color="#00A1E2"/>
<stop offset="0.492" stop-color="#00A2E3"/>
<stop offset="0.496" stop-color="#00A3E4"/>
<stop offset="0.5" stop-color="#00A3E5"/>
<stop offset="0.504" stop-color="#00A5E6"/>
<stop offset="0.508" stop-color="#00A5E7"/>
<stop offset="0.512" stop-color="#00A6E8"/>
<stop offset="0.516" stop-color="#00A7E9"/>
<stop offset="0.52" stop-color="#00A8EA"/>
<stop offset="0.523" stop-color="#00A9EB"/>
<stop offset="0.527" stop-color="#00AAEC"/>
<stop offset="0.531" stop-color="#00ABED"/>
<stop offset="0.535" stop-color="#00ACEE"/>
<stop offset="0.539" stop-color="#00AEEF"/>
<stop offset="0.547" stop-color="#00AEEF"/>
<stop offset="0.563" stop-color="#00AEEF"/>
<stop offset="0.625" stop-color="#00AEEF"/>
<stop offset="0.75" stop-color="#00AEEF"/>
<stop offset="1" stop-color="#00AEEF"/>
</linearGradient>
</defs>
</svg>
