<svg width="300" height="100" viewBox="0 0 300 100" fill="none" xmlns="http://www.w3.org/2000/svg">
<rect width="300" height="100" fill="white"/>
<mask id="mask0_298_11731" style="mask-type:luminance" maskUnits="userSpaceOnUse" x="33" y="34" width="233" height="31">
<path d="M265.518 34.5264H33V64.7406H265.518V34.5264Z" fill="white"/>
</mask>
<g mask="url(#mask0_298_11731)">
<g opacity="0.5">
<path d="M41.6193 46.4296V34.5293H32.9995V64.7436H41.6193V52.3529V46.4296Z" fill="#15205A"/>
<path d="M55.8315 34.5293V46.4296V52.3529V64.7436H64.4513V34.5293H55.8315Z" fill="#15205A"/>
</g>
<path d="M36.5786 45.6297C36.991 45.6901 37.3126 45.7842 37.6622 45.8782L38.6549 46.0931C39.291 46.214 39.8993 46.3349 40.4725 46.4289C41.5911 46.6102 42.6117 46.7042 43.5415 46.7647C45.2054 46.8587 46.8972 46.8587 48.554 46.7647C50.2179 46.6707 51.8747 46.5162 53.5315 46.2744C54.5522 46.12 55.545 45.9051 56.5656 45.6633C57.1389 45.5424 57.6842 45.3544 58.3204 45.173L59.2781 44.8641C59.6277 44.7432 59.9492 44.6223 60.3337 44.5283C60.9699 47.1072 59.6976 49.7129 57.4954 51.6135C55.2932 53.514 52.1335 54.6826 48.9385 54.8034C45.7437 54.9243 42.4929 54.1252 40.095 52.4126C38.9485 51.6135 37.9907 50.5726 37.2846 49.3772C36.9631 48.7928 36.7394 48.2086 36.5856 47.5639C36.5226 47.2549 36.4877 46.9191 36.4597 46.6102C36.5226 46.2744 36.5576 45.9386 36.5856 45.6297" fill="#15205A"/>
<path d="M93.4501 59.9657H88.85V50.7785H79.8876V59.9657H75.2947V38.5356H79.8876V47.2191H88.85V38.5356H93.4501V59.9657Z" fill="#15205A"/>
<path d="M104.329 60.2559C101.896 60.2559 99.9181 59.5373 98.3941 58.1069C96.87 56.6763 96.1011 54.7691 96.1011 52.385V51.9754C96.1011 50.3771 96.4226 48.9466 97.0658 47.684C97.7088 46.4214 98.6178 45.4543 99.7992 44.7693C100.981 44.0843 102.323 43.7485 103.833 43.7485C106.098 43.7485 107.888 44.4335 109.188 45.8103C110.488 47.187 111.138 49.1346 111.138 51.6529V53.3924H100.582C100.722 54.4333 101.155 55.2661 101.876 55.8974C102.596 56.522 103.504 56.8376 104.609 56.8376C106.315 56.8376 107.65 56.2466 108.608 55.0579L110.782 57.395C110.118 58.2949 109.223 59 108.083 59.5038C106.951 60.0074 105.693 60.2626 104.315 60.2626M103.812 47.1803C102.931 47.1803 102.218 47.4691 101.673 48.0399C101.128 48.6108 100.778 49.43 100.624 50.4912H106.783V50.1486C106.762 49.2017 106.497 48.4697 105.986 47.9526C105.476 47.4355 104.749 47.1736 103.812 47.1736" fill="#15205A"/>
<path d="M117.856 37.3555H113.417V59.9607H117.856V37.3555Z" fill="#15205A"/>
<path d="M120.317 39.9183C120.317 39.2803 120.541 38.7565 120.981 38.3468C121.428 37.9372 122.03 37.729 122.799 37.729C123.568 37.729 124.155 37.9372 124.609 38.3468C125.057 38.7565 125.28 39.2871 125.28 39.9183C125.28 40.5496 125.05 41.0936 124.602 41.51C124.148 41.9196 123.547 42.1278 122.799 42.1278C122.051 42.1278 121.456 41.9196 121.002 41.51C120.548 41.1003 120.324 40.5698 120.324 39.9183M125.029 59.965H120.59V44.0351H125.029V59.9583V59.965Z" fill="#15205A"/>
<path d="M137.774 58.3402C136.683 59.6163 135.166 60.2543 133.237 60.2543C131.461 60.2543 130.105 59.7639 129.168 58.7835C128.231 57.8029 127.756 56.3658 127.735 54.4719V44.0356H132.16V54.3376C132.16 55.9965 132.943 56.8292 134.523 56.8292C136.103 56.8292 137.054 56.3255 137.62 55.3249V44.0356H142.066V59.9587H137.9L137.774 58.3402Z" fill="#15205A"/>
<path d="M148.923 44.0391L149.063 45.8188C150.237 44.4354 151.824 43.7437 153.831 43.7437C155.963 43.7437 157.431 44.5563 158.228 46.1748C159.395 44.5563 161.052 43.7437 163.206 43.7437C165.002 43.7437 166.337 44.2473 167.218 45.2547C168.099 46.2621 168.54 47.7731 168.54 49.7946V59.9622H164.093V49.808C164.093 48.9081 163.912 48.2432 163.541 47.8268C163.171 47.4105 162.528 47.2023 161.598 47.2023C160.269 47.2023 159.354 47.8134 158.843 49.029L158.857 59.9622H154.432V49.8214C154.432 48.9014 154.243 48.2298 153.866 47.8201C153.488 47.4105 152.845 47.2023 151.936 47.2023C150.678 47.2023 149.769 47.6992 149.21 48.6999V59.9622H144.784V44.0391H148.937H148.923Z" fill="#15205A"/>
<g opacity="0.5">
<path d="M197.545 59.9642H192.945V50.777H183.983V59.9642H179.39V38.5342H183.983V47.2177H192.945V38.5342H197.545V59.9642Z" fill="#15205A"/>
</g>
<g opacity="0.5">
<path d="M208.424 60.2588C205.992 60.2588 204.014 59.5403 202.489 58.1097C200.959 56.6793 200.197 54.772 200.197 52.388V51.9782C200.197 50.3799 200.518 48.9495 201.161 47.6869C201.804 46.4243 202.713 45.4573 203.895 44.7723C205.076 44.0873 206.418 43.7515 207.935 43.7515C210.201 43.7515 211.99 44.4365 213.291 45.8132C214.591 47.1899 215.241 49.1375 215.241 51.6559V53.3954H204.684C204.825 54.4363 205.257 55.269 205.978 55.9004C206.697 56.5248 207.607 56.8405 208.712 56.8405C210.417 56.8405 211.752 56.2495 212.71 55.0609L214.885 57.398C214.22 58.2978 213.326 59.003 212.186 59.5066C211.054 60.0104 209.795 60.2656 208.418 60.2656M207.915 47.1832C207.034 47.1832 206.321 47.472 205.775 48.0428C205.23 48.6137 204.879 49.433 204.727 50.494H210.885V50.1516C210.865 49.2047 210.598 48.4727 210.088 47.9555C209.577 47.4384 208.85 47.1765 207.915 47.1765" fill="#15205A"/>
</g>
<g opacity="0.5">
<path d="M227.139 59.9654C226.935 59.5826 226.789 59.1058 226.691 58.535C225.622 59.6833 224.223 60.2541 222.51 60.2541C220.889 60.2541 219.54 59.8043 218.47 58.8976C217.401 57.991 216.869 56.856 216.869 55.486C216.869 53.8003 217.52 52.5042 218.819 51.5975C220.119 50.6977 222.001 50.241 224.468 50.2276H226.502V49.3142C226.502 48.5755 226.307 47.9912 225.916 47.548C225.524 47.1047 224.901 46.8831 224.055 46.8831C223.307 46.8831 222.728 47.0577 222.301 47.4002C221.875 47.7427 221.664 48.2128 221.664 48.8105H217.239C217.239 47.8905 217.533 47.0376 218.128 46.2518C218.722 45.4661 219.56 44.8549 220.637 44.405C221.721 43.9617 222.937 43.7334 224.287 43.7334C226.327 43.7334 227.95 44.2237 229.152 45.2109C230.355 46.1981 230.949 47.5815 230.949 49.3679V56.2718C230.963 57.7828 231.179 58.9245 231.606 59.7036V59.952H227.132L227.139 59.9654ZM223.476 57.0037C224.125 57.0037 224.733 56.8627 225.286 56.5874C225.838 56.3053 226.243 55.936 226.51 55.4592V52.719H224.852C222.637 52.719 221.456 53.4578 221.315 54.9286L221.302 55.1771C221.302 55.7077 221.497 56.1441 221.882 56.4867C222.266 56.8292 222.798 57.0037 223.476 57.0037Z" fill="#15205A"/>
</g>
<g opacity="0.5">
<path d="M238.079 37.3525H233.64V59.9578H238.079V37.3525Z" fill="#15205A"/>
</g>
<g opacity="0.5">
<path d="M246.559 40.1187V44.0339H249.39V47.1568H246.559V55.1016C246.559 55.6925 246.678 56.1157 246.908 56.3708C247.145 56.626 247.593 56.7535 248.258 56.7535C248.747 56.7535 249.18 56.72 249.558 56.6528V59.8764C248.691 60.1317 247.796 60.2592 246.88 60.2592C243.776 60.2592 242.189 58.7549 242.134 55.7396V47.1568H239.714V44.0339H242.134V40.1187H246.559Z" fill="#15205A"/>
</g>
<g opacity="0.5">
<path d="M255.621 45.7741C256.794 44.4175 258.269 43.746 260.046 43.746C263.639 43.746 265.463 45.754 265.512 49.7633V59.9645H261.087V49.8842C261.087 48.9708 260.884 48.2993 260.471 47.8627C260.066 47.4262 259.382 47.2113 258.437 47.2113C257.137 47.2113 256.2 47.6948 255.621 48.6552V59.9713H251.194V37.3525H255.621V45.7674V45.7741Z" fill="#15205A"/>
</g>
</g>
</svg>
