<svg width="300" height="100" viewBox="0 0 300 100" fill="none" xmlns="http://www.w3.org/2000/svg">
<rect width="300" height="100" fill="white"/>
<g clip-path="url(#clip0_298_11719)">
<path d="M114.571 30V69.9898H108.131V52.3808H89.6586V68.0364L83.2188 69.9898V30H89.6586V47.1488H108.131V30H114.571Z" fill="#032B15"/>
<path d="M131.36 69.9897C128.422 69.9897 125.767 69.3334 123.394 68.0207C121.022 66.6705 119.158 64.7952 117.802 62.3948C116.446 59.957 115.768 57.144 115.768 53.956C115.768 50.8055 116.465 48.0114 117.858 45.5735C119.252 43.1356 121.154 41.2603 123.564 39.9476C125.974 38.6349 128.667 37.9785 131.642 37.9785C134.617 37.9785 137.31 38.6349 139.72 39.9476C142.13 41.2603 144.032 43.1356 145.426 45.5735C146.819 48.0114 147.516 50.8055 147.516 53.956C147.516 57.1065 146.8 59.9007 145.369 62.3386C143.938 64.7765 141.98 66.6705 139.494 68.0207C137.046 69.3334 134.335 69.9897 131.36 69.9897ZM131.36 64.4202C133.017 64.4202 134.561 64.0263 135.992 63.2387C137.461 62.4511 138.647 61.2697 139.551 59.6944C140.455 58.1192 140.906 56.2064 140.906 53.956C140.906 51.7057 140.473 49.8116 139.607 48.2739C138.741 46.6987 137.592 45.5172 136.161 44.7296C134.73 43.942 133.186 43.5482 131.529 43.5482C129.872 43.5482 128.328 43.942 126.897 44.7296C125.503 45.5172 124.392 46.6987 123.564 48.2739C122.735 49.8116 122.321 51.7057 122.321 53.956C122.321 57.294 123.168 59.8819 124.863 61.7197C126.596 63.52 128.761 64.4202 131.36 64.4202Z" fill="#032B15"/>
<path d="M144.476 53.8435C144.476 50.7305 145.116 47.9738 146.397 45.5734C147.715 43.1731 149.485 41.3165 151.707 40.0038C153.966 38.6536 156.452 37.9785 159.163 37.9785C161.611 37.9785 163.739 38.4661 165.547 39.4412C167.392 40.3789 168.861 41.5603 169.953 42.9855V42.9843H176.45V56.2339V70H169.953V64.8702C168.861 66.3329 167.373 67.5519 165.49 68.527C163.607 69.5022 161.461 69.9897 159.051 69.9897C156.377 69.9897 153.929 69.3146 151.707 67.9644C149.485 66.5767 147.715 64.6639 146.397 62.226C145.116 59.7507 144.476 56.9565 144.476 53.8435ZM169.953 53.956C169.953 51.8182 169.501 49.9616 168.597 48.3864C167.731 46.8111 166.583 45.611 165.151 44.7858C163.72 43.9607 162.176 43.5481 160.519 43.5481C158.862 43.5481 157.318 43.9607 155.887 44.7858C154.456 45.5734 153.289 46.7549 152.385 48.3301C151.518 49.8679 151.085 51.7057 151.085 53.8435C151.085 55.9813 151.518 57.8566 152.385 59.4694C153.289 61.0821 154.456 62.3198 155.887 63.1825C157.356 64.0076 158.9 64.4201 160.519 64.4201C162.176 64.4201 163.72 64.0076 165.151 63.1825C166.583 62.3573 167.731 61.1571 168.597 59.5819C169.501 57.9691 169.953 56.0938 169.953 53.956Z" fill="#032B15"/>
<path d="M213.167 70H203.303C201.04 70 199.744 70 197.71 70C194.057 70 190.686 69.1561 187.598 67.4683C184.548 65.7431 182.119 63.3615 180.311 60.3235C178.541 57.248 177.656 53.7974 177.656 49.9718C177.656 46.1462 178.541 42.7145 180.311 39.6765C182.119 36.6386 184.548 34.2757 187.598 32.5879C190.686 30.8626 194.057 30 197.71 30C201.401 30 204.771 30.8626 207.822 32.5879C210.91 34.2757 213.339 36.6386 215.109 39.6765C216.879 42.7145 217.764 46.1462 217.764 49.9718C217.764 53.5724 216.973 56.8355 215.392 59.7609C214.063 62.2182 213.167 63.055 213.167 63.055V70ZM184.265 49.9718C184.265 52.8598 184.83 55.4102 185.96 57.6231C187.127 59.7984 188.728 61.4862 190.762 62.6864C192.795 63.8491 195.111 64.4304 197.71 64.4304C200.309 64.4304 202.625 63.8491 204.658 62.6864C206.692 61.4862 208.274 59.7984 209.404 57.6231C210.571 55.4102 211.155 52.8598 211.155 49.9718C211.155 47.0839 210.571 44.5523 209.404 42.377C208.274 40.2016 206.692 38.5326 204.658 37.3699C202.625 36.2072 200.309 35.6259 197.71 35.6259C195.111 35.6259 192.795 36.2072 190.762 37.3699C188.728 38.5326 187.127 40.2016 185.96 42.377C184.83 44.5523 184.265 47.0839 184.265 49.9718Z" fill="#032B15"/>
</g>
<defs>
<clipPath id="clip0_298_11719">
<rect width="135" height="40" fill="white" transform="translate(83.2188 30)"/>
</clipPath>
</defs>
</svg>
