<svg width="300" height="100" viewBox="0 0 300 100" fill="none" xmlns="http://www.w3.org/2000/svg">
<rect width="300" height="100" fill="white"/>
<path fill-rule="evenodd" clip-rule="evenodd" d="M171.131 61.6241H168.453C168.168 61.6241 167.883 61.3392 167.883 60.9973V57.6355C167.883 57.3506 168.168 57.0657 168.453 57.0657H171.131C171.473 57.0657 171.758 57.3506 171.758 57.6355V60.9973C171.758 61.3392 171.473 61.6241 171.131 61.6241ZM110.276 61.6241H107.541C107.199 61.6241 106.915 61.2822 106.915 60.9973V51.1967C106.915 48.6326 106.459 47.9489 104.464 47.9489C103.439 47.9489 102.242 48.2908 100.989 48.9745V60.9973C100.989 61.2822 100.704 61.6241 100.362 61.6241H97.6268C97.2849 61.6241 97 61.2822 97 60.9973V33.248C97 32.9631 97.2849 32.6782 97.6268 32.6782H100.362C100.704 32.6782 100.989 32.9631 100.989 33.248V45.7267C102.128 45.0429 103.382 44.644 105.49 44.644C109.65 44.644 110.903 47.55 110.903 51.1967V60.9973C110.903 61.2822 110.618 61.6241 110.276 61.6241ZM121.729 52.0514C121.729 49.6013 120.647 48.0059 118.538 48.0059C116.43 48.0059 115.291 49.6013 115.291 52.0514V54.4446C115.291 56.8947 116.43 58.4332 118.538 58.4332C120.647 58.4332 121.729 56.8947 121.729 54.4446V52.0514ZM118.538 61.852C113.809 61.852 111.359 58.7181 111.359 54.4446V52.0514C111.359 47.7779 113.809 44.644 118.538 44.644C123.211 44.644 125.718 47.7779 125.718 52.0514V54.4446C125.718 58.7181 123.211 61.852 118.538 61.852ZM134.55 61.6241C133.809 61.7381 133.182 61.852 132.499 61.852C129.08 61.852 127.712 61.1113 127.712 57.1227V47.7779L124.92 47.3791C124.578 47.3221 124.293 47.0942 124.293 46.7523V45.4418C124.293 45.0999 124.578 44.815 124.92 44.815H127.712V42.3648C127.712 42.0799 127.997 41.852 128.339 41.795L131.131 41.3392H131.245C131.53 41.3392 131.701 41.4532 131.701 41.7381V44.815H134.436C134.721 44.815 135.006 45.0999 135.006 45.4418V47.1512C135.006 47.493 134.721 47.7779 134.436 47.7779H131.701V57.1227C131.701 58.6041 131.815 58.7751 132.897 58.7751H134.493C134.892 58.7751 135.12 58.946 135.12 59.2309V61.1113C135.12 61.3962 134.949 61.5671 134.55 61.6241ZM145.661 51.6526C145.661 49.3734 144.407 48.0059 142.527 48.0059C140.647 48.0059 139.336 49.3164 139.336 51.6526V51.7665H145.661V51.6526ZM149.08 54.5586H139.279V54.6725C139.279 56.3819 140.02 58.4332 142.869 58.4332C145.091 58.4332 147.142 58.2623 148.396 58.1483H148.51C148.795 58.1483 149.023 58.3192 149.023 58.6041V60.5415C149.023 61.0543 148.966 61.2252 148.396 61.3392C146.459 61.6811 145.319 61.852 142.584 61.852C139.564 61.852 135.348 60.2566 135.348 54.3876V52.1654C135.348 47.55 137.912 44.644 142.527 44.644C147.142 44.644 149.707 47.721 149.707 52.1654V53.8178C149.707 54.3306 149.479 54.5586 149.08 54.5586ZM153.923 67.55H151.131C150.789 67.55 150.504 67.2081 150.504 66.9232V39.5728C150.504 39.2309 150.789 38.946 151.131 38.946H153.923C154.265 38.946 154.493 39.2309 154.493 39.5728V66.9232C154.493 67.2081 154.265 67.55 153.923 67.55ZM161.103 61.852C159.963 61.852 157.399 61.6811 155.746 61.2252C155.348 61.1683 155.177 60.9403 155.177 60.5415V58.7751C155.177 58.5472 155.348 58.3192 155.689 58.3192H155.803C157.228 58.4902 159.963 58.6041 160.818 58.6041C162.698 58.6041 162.983 58.0343 162.983 57.1796C162.983 56.6668 162.641 56.268 161.672 55.6982L157.513 53.191C156.778 52.7803 156.161 52.187 155.722 51.4684C155.282 50.7498 155.036 49.9301 155.006 49.0885C155.006 46.1255 156.886 44.644 160.704 44.644C163.154 44.644 164.521 44.872 166.06 45.2138C166.459 45.3278 166.63 45.5557 166.63 45.8976V47.607C166.63 48.0059 166.459 48.1768 166.117 48.1768H166.003C165.148 48.0628 162.755 47.8349 161.046 47.8349C159.621 47.8349 158.994 48.1768 158.994 49.0885C158.994 49.5443 159.45 49.8292 160.191 50.2851L164.123 52.6782C166.63 54.2167 167.028 55.6982 167.028 57.1796C167.028 59.8007 165.034 61.852 161.103 61.852ZM186.06 61.6241H183.325C182.983 61.6241 182.698 61.2822 182.698 60.9973V51.3107C182.698 48.6896 182.47 47.9489 180.134 47.9489C179.108 47.9489 178.026 48.3477 176.772 49.0315V60.9973C176.772 61.2822 176.487 61.6241 176.145 61.6241H173.41C173.068 61.6241 172.783 61.2822 172.783 60.9973V45.4418C172.783 45.0999 173.068 44.815 173.41 44.815H176.031C176.316 44.815 176.601 45.0999 176.601 45.4418V46.0685C178.368 44.9289 179.507 44.644 181.501 44.644C185.832 44.644 186.687 47.493 186.687 51.3107V60.9973C186.687 61.2822 186.402 61.6241 186.06 61.6241ZM198.254 50.342C198.254 48.9175 197.627 47.8349 195.063 47.8349C192.499 47.8349 191.815 48.9745 191.815 50.342V50.6269C191.815 51.7096 192.214 52.9631 195.063 52.9631C197.513 52.9631 198.254 52.1084 198.254 50.6269V50.342ZM198.595 62.7637C198.595 62.1369 198.197 61.7381 195.063 60.9973L192.385 60.3705C191.929 60.9973 191.587 61.3962 191.587 62.4218V62.7067C191.587 63.9033 192.385 64.644 195.177 64.644C198.083 64.644 198.595 64.0742 198.595 62.9916V62.7637ZM202.413 47.55L201.387 47.9489C201.9 48.6326 202.128 49.2594 202.128 50.2851V50.513C202.128 54.2167 199.564 55.9261 195.063 55.9261C193.467 55.9261 192.385 55.6412 191.758 55.4133C191.416 55.6412 191.245 55.9261 191.245 56.211C191.245 56.7808 191.587 57.0087 192.271 57.1796L195.803 58.0343C199.906 58.946 202.527 59.5728 202.527 62.7637V62.9916C202.527 66.0116 200.305 67.664 195.177 67.664C190.333 67.664 187.712 65.8406 187.712 62.7067V62.4218C187.712 61.2252 188.282 60.0287 189.251 59.174C188.837 58.8496 188.503 58.4341 188.276 57.9597C188.048 57.4853 187.933 56.9649 187.94 56.4389V56.3819C187.94 55.4702 188.282 54.5586 189.137 53.9888C188.225 53.0771 187.883 51.9945 187.883 50.513V50.2851C187.883 47.3221 189.821 44.815 195.063 44.815H202.071C202.527 44.815 202.869 45.2138 202.869 45.6127V46.8663C202.869 47.3221 202.755 47.3791 202.413 47.55Z" fill="#00AEFF"/>
</svg>
