<svg width="300" height="100" viewBox="0 0 300 100" fill="none" xmlns="http://www.w3.org/2000/svg">
<rect width="300" height="100" fill="white"/>
<g clip-path="url(#clip0_311_409)">
<mask id="mask0_311_409" style="mask-type:luminance" maskUnits="userSpaceOnUse" x="112" y="30" width="16" height="25">
<path d="M112.108 30.0366H127.982V54.4176H112.108V30.0366Z" fill="white"/>
</mask>
<g mask="url(#mask0_311_409)">
<path fill-rule="evenodd" clip-rule="evenodd" d="M115.366 38.1213C116.354 37.5045 117.396 37.021 118.537 36.7641C122.77 35.811 127.314 38.9921 127.866 43.2782C127.969 44.0748 127.965 44.8672 127.971 45.6614C127.988 48.0091 127.983 50.3574 127.975 52.7051C127.973 53.7061 127.329 54.3978 126.424 54.4082C125.527 54.4185 124.878 53.7187 124.876 52.7139C124.871 49.9784 124.889 47.2426 124.87 44.5071C124.851 41.8202 122.588 39.6295 119.926 39.6838C117.47 39.7338 115.361 41.7309 115.301 44.1822C115.236 46.8515 115.278 49.5236 115.265 52.1944C115.263 52.5365 115.236 52.8844 115.166 53.2187C115.015 53.9495 114.422 54.4141 113.69 54.4178C112.969 54.4214 112.355 53.9469 112.196 53.2331C112.136 52.9628 112.112 52.6793 112.112 52.4017C112.107 45.6379 112.107 38.8741 112.109 32.1103C112.11 30.8517 112.518 30.2373 113.447 30.0663C114.199 29.9279 114.81 30.2795 115.065 31.0046C115.224 31.4563 115.269 31.9256 115.269 32.4016C115.268 34.0819 115.266 35.7619 115.272 37.4422C115.273 37.6486 115.213 37.8667 115.366 38.1213Z" fill="black"/>
</g>
<path fill-rule="evenodd" clip-rule="evenodd" d="M131.064 42.6876C131.064 41.2225 131.058 39.7575 131.067 38.2925C131.073 37.2716 131.715 36.576 132.609 36.5956C133.495 36.615 134.166 37.3453 134.169 38.3212C134.175 41.0352 134.17 43.7493 134.173 46.4633C134.176 49.1595 136.277 51.3055 138.922 51.3187C141.574 51.3319 143.748 49.1673 143.764 46.4672C143.779 43.7312 143.762 40.9951 143.77 38.2591C143.773 37.4488 144.149 36.9405 144.872 36.6963C145.499 36.4846 146.113 36.6719 146.538 37.2095C146.774 37.5088 146.861 37.8534 146.86 38.2335C146.856 41.1418 146.88 44.0504 146.852 46.9587C146.818 50.4533 143.768 53.8302 140.275 54.2896C135.73 54.8875 132.047 52.2684 131.15 47.7861C131.075 47.4102 131.071 47.0162 131.068 46.6302C131.058 45.316 131.064 44.0018 131.064 42.6876Z" fill="black"/>
<path fill-rule="evenodd" clip-rule="evenodd" d="M166.959 35.0113C168.128 35.002 168.983 35.8195 169 36.9614C169.016 38.1349 168.156 39.0127 166.985 39.0155C165.854 39.0184 164.971 38.1491 164.962 37.0248C164.953 35.9044 165.83 35.0204 166.959 35.0113Z" fill="black"/>
<mask id="mask1_311_409" style="mask-type:luminance" maskUnits="userSpaceOnUse" x="149" y="36" width="19" height="34">
<path d="M149.898 36.5903H167.709V69.2674H149.898V36.5903Z" fill="white"/>
</mask>
<g mask="url(#mask1_311_409)">
<path fill-rule="evenodd" clip-rule="evenodd" d="M158.768 51.3189C155.499 51.3158 152.884 48.5149 153.029 45.4389C153.036 42.2615 155.652 39.6838 158.852 39.7005C162.008 39.7171 164.594 42.3577 164.587 45.555C164.579 48.7218 161.953 51.3218 158.768 51.3189ZM167.4 57.9216C166.87 56.0874 165.795 54.5902 164.31 53.4134C163.799 53.0083 163.832 52.7723 164.32 52.4559C164.392 52.4094 164.459 52.3543 164.524 52.2981C166.58 50.5252 167.639 48.2851 167.652 45.5677C167.652 45.2234 167.688 44.8747 167.647 44.5352C166.974 38.9899 161.869 36.0593 157.674 36.6699C154.062 37.1958 151.102 39.7386 150.153 43.4564C149.278 46.8832 150.714 50.6955 153.584 52.7542C155.266 53.9611 157.196 54.2958 159.167 54.5489C162.88 55.0262 165.151 58.0716 164.442 61.6314C163.881 64.443 160.993 66.4764 158.154 66.0981C156.651 65.8976 155.442 65.2064 154.414 64.1224C153.673 63.3404 152.662 63.2426 152.019 63.8508C151.343 64.4898 151.342 65.3934 152.094 66.2052C154.457 68.7573 157.339 69.7777 160.778 69.0259C166.615 67.7492 168.53 61.8329 167.4 57.9216Z" fill="black"/>
</g>
<path fill-rule="evenodd" clip-rule="evenodd" d="M179.116 51.3187C176.009 51.3102 173.381 48.6595 173.372 45.5261C173.362 42.351 176.049 39.675 179.219 39.7006C182.375 39.7262 185.015 42.3888 185.004 45.5338C184.991 48.7164 182.334 51.3275 179.116 51.3187ZM179.189 36.6217C174.274 36.5985 170.28 40.5789 170.277 45.4555C170.274 50.4477 174.234 54.4415 179.211 54.4014C184.146 54.3618 187.999 50.5072 188.097 45.5946C188.108 40.8355 184.408 36.6469 179.189 36.6217Z" fill="black"/>
</g>
<defs>
<clipPath id="clip0_311_409">
<rect width="76.1538" height="40" fill="white" transform="translate(112 30)"/>
</clipPath>
</defs>
</svg>
