<svg width="300" height="100" viewBox="0 0 300 100" fill="none" xmlns="http://www.w3.org/2000/svg">
<rect width="300" height="100" fill="white"/>
<path d="M132.228 55.0066C131.981 54.9681 131.742 54.9372 131.51 54.9139C131.279 54.8906 131.051 54.8792 130.827 54.8796C130.638 54.8808 130.45 54.8922 130.262 54.9139C130.054 54.9377 129.827 54.9686 129.581 55.0066L129.521 54.8219C129.789 54.6982 129.964 54.571 130.045 54.4402C130.142 54.2709 130.206 53.9703 130.237 53.5384C130.256 53.2307 130.256 52.5448 130.237 51.4809C130.225 50.7722 130.211 50.1731 130.194 49.6834C130.178 49.1938 130.16 48.8065 130.14 48.5216C130.128 48.2529 130.082 48.0486 130.002 47.9088C129.931 47.778 129.774 47.651 129.532 47.5278L129.575 47.3195C129.884 47.4199 130.278 47.47 130.757 47.47C131.173 47.4667 131.588 47.4123 131.991 47.3081L132.052 47.5278C131.784 47.6586 131.617 47.8011 131.551 47.9552C131.5 48.0708 131.477 48.2864 131.484 48.6023C131.484 48.7031 131.488 48.8301 131.491 48.9839C131.493 49.1378 131.491 49.3038 131.491 49.504C131.491 49.7043 131.485 49.8817 131.491 50.0362C131.496 50.1908 131.495 50.305 131.497 50.4058C131.5 50.5523 131.512 50.899 131.533 51.446C131.554 51.9929 131.581 52.752 131.613 53.7232C131.626 54.0243 131.678 54.2516 131.77 54.4053C131.861 54.5589 132.035 54.6978 132.291 54.8219L132.228 55.0066ZM136.409 54.1513C135.725 54.7996 134.815 55.156 133.872 55.1451C133.485 55.1485 133.1 55.102 132.725 55.0066V54.8219C133.03 54.6754 133.162 53.82 133.119 52.2557L133.077 51.157C133.07 50.7489 133.047 50.0747 133.01 49.1345C132.997 48.8798 132.986 48.6775 132.976 48.5297C132.965 48.3819 132.956 48.2811 132.947 48.2347C132.872 47.888 132.68 47.7108 132.372 47.7032L132.369 47.5063C132.674 47.467 132.976 47.4066 133.272 47.3256C133.571 47.2445 133.87 47.15 134.168 47.042L134.262 47.0884C134.262 47.1112 134.262 47.1482 134.258 47.1979C134.254 47.2476 134.254 47.3 134.258 47.3544C134.262 47.4089 134.258 47.4465 134.254 47.4929C134.251 47.5392 134.25 47.5661 134.25 47.5735V48.1783L134.293 50.6645C134.706 50.04 135.213 49.7278 135.814 49.7278C136.338 49.7278 136.75 49.9321 137.05 50.3406C137.319 50.6954 137.458 51.1501 137.467 51.7047C137.483 52.6656 137.13 53.4811 136.409 54.1513ZM135.26 50.5227C134.588 50.4779 134.263 51.0983 134.286 52.384C134.29 52.5856 134.293 52.7617 134.295 52.9155C134.298 53.0694 134.303 53.2146 134.309 53.3489C134.315 53.4833 134.323 53.6177 134.333 53.7521C134.343 53.8865 134.353 54.0283 134.364 54.1741C134.424 54.5289 134.585 54.7063 134.847 54.7063C135.278 54.7063 135.627 54.3786 135.893 53.7232C136.097 53.2408 136.198 52.7214 136.19 52.1979C136.171 51.1187 135.861 50.5599 135.26 50.5214V50.5227ZM141.667 54.082C141.177 54.7217 140.552 55.0416 139.79 55.0416C139.158 55.0416 138.666 54.8449 138.312 54.4516C137.982 54.082 137.811 53.5696 137.8 52.9142C137.773 52.1392 137.999 51.3764 138.443 50.7411C138.94 50.0476 139.585 49.7009 140.379 49.7009C141.003 49.7009 141.485 49.9359 141.825 50.4058C142.132 50.8219 142.292 51.3537 142.303 52.001C142.316 52.8029 142.104 53.4965 141.667 54.082ZM140.946 51.157C140.732 50.3955 140.394 50.0147 139.932 50.0147C139.223 50.0147 138.88 50.7006 138.904 52.0722C138.914 52.6176 139.001 53.1588 139.164 53.6795C139.392 54.3963 139.734 54.7547 140.188 54.7547C140.866 54.7547 141.194 54.1114 141.171 52.8248C141.165 52.2618 141.089 51.7017 140.946 51.157ZM150.689 55.0066C150.51 54.9757 150.328 54.9533 150.144 54.9395C149.959 54.924 149.766 54.9159 149.566 54.9159C149.45 54.9159 149.293 54.9218 149.095 54.9334C148.897 54.9451 148.664 54.9675 148.397 55.0006L148.347 54.7809C148.631 54.7038 148.814 54.5804 148.896 54.4106C148.955 54.2722 148.982 54.0484 148.976 53.7387L148.968 53.2878V53.1722C148.959 53.0949 148.954 53.0143 148.953 52.929C148.951 52.8436 148.949 52.7368 148.947 52.6286L148.939 52.1663C148.93 51.6422 148.901 51.2876 148.851 51.1026C148.736 50.664 148.505 50.4445 148.158 50.4441C147.665 50.4441 147.378 50.7523 147.296 51.3687C147.278 51.4814 147.268 51.5953 147.267 51.7094C147.261 51.8599 147.257 52.0545 147.254 52.2933C147.248 52.4015 147.246 52.513 147.248 52.6293C147.25 52.7455 147.252 52.8564 147.254 52.9653C147.264 53.5584 147.282 53.9051 147.306 54.0054C147.391 54.3831 147.599 54.6295 147.932 54.7446L147.878 54.9757C147.71 54.9426 147.54 54.9215 147.369 54.9126C147.176 54.9005 146.956 54.8951 146.71 54.8951C146.33 54.8936 145.951 54.9324 145.579 55.0107L145.541 54.8024C145.87 54.7101 146.057 54.4057 146.102 53.8892C146.109 53.828 146.112 53.6984 146.113 53.5021C146.114 53.3059 146.113 53.0318 146.104 52.6871C146.099 52.4022 146.089 52.1517 146.074 51.9358C146.059 51.7199 146.042 51.5349 146.024 51.3808C145.928 50.7182 145.721 50.387 145.405 50.387C145.121 50.387 144.892 50.5214 144.719 50.7901C144.509 51.1212 144.413 51.7723 144.43 52.7435C144.44 53.3366 144.458 53.7174 144.484 53.8858C144.562 54.4028 144.749 54.7034 145.043 54.7876L145.012 55.0073C144.647 54.9268 144.274 54.8842 143.9 54.8803C143.509 54.8756 143.118 54.9146 142.736 54.9966L142.674 54.7883C143.01 54.6342 143.209 54.3105 143.27 53.8173C143.277 53.7792 143.273 53.3707 143.26 52.5916C143.251 52.068 143.244 51.6558 143.238 51.3553C143.233 51.0468 143.226 50.8506 143.216 50.7653C143.203 50.434 143.157 50.2183 143.078 50.1182C143.046 50.0644 142.918 50.0143 142.694 49.9677L142.627 49.9448L142.624 49.7486C143.415 49.6483 144.006 49.498 144.396 49.2977L144.514 49.4476C144.5 49.5558 144.491 49.6774 144.486 49.8118C144.48 49.9462 144.479 50.0953 144.486 50.2566V50.4535C144.485 50.4962 144.49 50.5388 144.499 50.5805C144.934 49.9085 145.457 49.5726 146.065 49.5726C146.597 49.5726 146.988 49.9117 147.239 50.5899C147.693 49.9439 148.242 49.6209 148.884 49.6209C149.701 49.6209 150.119 50.1681 150.138 51.2625C150.138 51.3243 150.138 51.3969 150.141 51.4823C150.145 51.5676 150.141 51.6442 150.135 51.7363L150.115 52.5688C150.108 52.6615 150.106 52.7617 150.108 52.8692C150.109 52.9767 150.112 53.097 150.115 53.228C150.125 53.8596 150.163 54.237 150.227 54.3602C150.322 54.5305 150.494 54.6693 150.743 54.7768L150.689 55.0066Z" fill="#F17012"/>
<path d="M161.038 54.9964C160.625 54.9056 160.202 54.859 159.779 54.8573C159.562 54.8576 159.346 54.8693 159.131 54.8923C158.898 54.9169 158.666 54.9555 158.437 55.0078L158.391 54.811C158.777 54.6107 158.969 54.3419 158.969 54.0046C158.969 53.7269 158.85 53.1911 158.611 52.3973C158.257 52.2806 157.886 52.222 157.513 52.2239C157.011 52.2239 156.641 52.3088 156.403 52.4786C156.205 52.9352 156.099 53.426 156.09 53.9233C156.09 54.3713 156.314 54.6566 156.762 54.7794L156.704 55.0105C156.408 54.9499 156.106 54.9188 155.803 54.9178C155.534 54.9149 155.266 54.9413 155.004 54.9964L154.969 54.8345C155.224 54.5796 155.451 54.1903 155.651 53.6666C155.797 53.2966 155.929 52.9382 156.045 52.5915C156.161 52.2448 156.264 51.9088 156.356 51.5836L157.154 48.8554C157.185 48.7782 157.243 48.582 157.327 48.2655C157.308 48.1954 157.281 48.1277 157.247 48.0639C157.208 47.9906 157.158 47.904 157.096 47.8038L157.143 47.6768C157.689 47.5147 158.106 47.2907 158.391 47.0049L158.507 47.0627C158.545 47.2629 158.59 47.4826 158.641 47.7219C158.692 47.9611 158.756 48.2191 158.832 48.4959C158.87 48.6196 158.928 48.8277 159.005 49.1202C159.083 49.4127 159.187 49.7904 159.318 50.2531C159.788 52.0029 160.168 53.2285 160.46 53.93C160.645 54.3847 160.853 54.6775 161.084 54.8083L161.038 54.9964ZM157.94 50.071C157.855 49.7861 157.778 49.5375 157.709 49.3251C157.642 49.1135 157.575 48.9307 157.513 48.7761L156.505 52.0687C156.846 51.9475 157.206 51.8888 157.569 51.8954C157.676 51.8954 157.807 51.903 157.962 51.9182C158.116 51.9337 158.289 51.9572 158.482 51.9854L157.94 50.071ZM163.535 55.0052L163.431 55.028C163.393 55.0206 163.326 55.0105 163.23 54.9991C163.134 54.9877 163.005 54.9702 162.843 54.9474C162.55 54.9026 162.392 54.8802 162.368 54.8802C162.01 54.873 161.652 54.9157 161.305 55.0072L161.238 54.7639C161.375 54.7112 161.496 54.6239 161.589 54.5105C161.683 54.3971 161.745 54.2615 161.77 54.1168C161.793 54.0165 161.805 53.7197 161.805 53.2265V52.9806C161.805 52.8804 161.805 52.7649 161.817 52.6338C161.828 52.5028 161.828 52.3872 161.828 52.2871V52.0439C161.828 52.4372 161.84 52.1829 161.863 51.2812C161.886 50.4332 161.697 49.9823 161.296 49.9285V49.7438C161.607 49.7149 161.916 49.6664 162.221 49.5986C162.509 49.5349 162.791 49.448 163.065 49.3386L163.181 49.4777C163.165 49.6006 163.152 49.8136 163.14 50.1073C163.129 50.4009 163.115 50.7913 163.099 51.2698C163.092 51.401 163.088 51.5551 163.088 51.7321V53.9213C163.142 54.3693 163.323 54.6506 163.632 54.7653L163.535 55.0052ZM162.911 48.6982C162.749 48.8127 162.555 48.8717 162.356 48.8662C162.177 48.8708 162.002 48.8136 161.86 48.7042C161.794 48.6568 161.741 48.5943 161.704 48.5218C161.668 48.4494 161.65 48.3693 161.651 48.2883C161.652 48.1964 161.677 48.1063 161.723 48.0271C161.77 47.9479 161.837 47.8825 161.917 47.8374C162.071 47.7349 162.253 47.6824 162.438 47.6869C162.616 47.6824 162.791 47.7372 162.935 47.8428C163 47.889 163.054 47.9506 163.09 48.0222C163.126 48.0938 163.144 48.1732 163.142 48.2534C163.144 48.3409 163.124 48.4275 163.084 48.5053C163.043 48.583 162.984 48.6493 162.911 48.6982ZM167.865 50.9412C167.802 51.0078 167.726 51.0602 167.641 51.095C167.556 51.1297 167.465 51.146 167.374 51.1428C167.158 51.1428 166.996 50.9849 166.889 50.669C166.827 50.5078 166.726 50.4271 166.587 50.4271C166.148 50.4271 165.879 50.7044 165.781 51.259C165.686 51.8278 165.643 52.404 165.651 52.9806C165.651 53.5513 165.663 53.898 165.686 54.0207C165.756 54.4141 165.941 54.6761 166.241 54.8069L166.137 55.0038C165.777 54.9171 165.409 54.8704 165.039 54.8647C164.668 54.8686 164.3 54.9152 163.94 55.0038V54.7727C164.179 54.6723 164.341 54.4757 164.426 54.1827C164.471 54.0133 164.493 53.7446 164.493 53.3763V51.4787C164.493 51.3941 164.493 51.2772 164.488 51.1206C164.482 50.964 164.478 50.7813 164.47 50.5656C164.462 50.3864 164.422 50.2591 164.349 50.1839C164.275 50.1073 164.138 50.0414 163.938 49.9877V49.7794C164.238 49.7502 164.535 49.7019 164.828 49.6349C165.112 49.57 165.39 49.4831 165.66 49.3749L165.787 49.5254C165.787 49.5563 165.787 49.602 165.781 49.6638C165.775 49.7256 165.772 49.8103 165.764 49.9185C165.757 50.0267 165.753 50.1033 165.753 50.1725V50.5656C166.13 49.9639 166.6 49.6634 167.164 49.6638C167.394 49.6557 167.619 49.7295 167.8 49.8721C167.883 49.9403 167.95 50.027 167.994 50.1253C168.038 50.2236 168.058 50.3309 168.054 50.4386C168.06 50.6245 167.992 50.8053 167.865 50.9412Z" fill="#005337"/>
<path d="M149.232 46.8251C149.178 46.8352 152.605 48.1388 152.92 51.8204V49.1158C152.893 49.093 151.545 46.6578 149.232 46.8251Z" fill="#F17012"/>
<path d="M156.608 46.8249C156.663 46.835 153.235 48.1386 152.92 51.8202V49.1156C152.947 49.0928 154.295 46.6576 156.608 46.8249ZM155.946 43.0707C156.073 43.105 153.508 43.5512 152.922 45.2815V44.3407C152.948 44.2971 153.933 42.9451 155.946 43.0707Z" fill="#005337"/>
<path d="M149.895 43.0707C149.767 43.105 152.333 43.5512 152.919 45.2815V44.3407C152.893 44.2971 151.907 42.9451 149.895 43.0707Z" fill="#F17012"/>
<path d="M156.297 45.153C156.44 45.194 153.576 45.7114 152.92 47.7185V46.4553C152.996 46.4223 154.211 45.0596 156.297 45.153Z" fill="#005337"/>
<path d="M149.543 45.153C149.4 45.194 152.264 45.7114 152.92 47.7185V46.4553C152.844 46.4223 151.629 45.0596 149.543 45.153Z" fill="#F17012"/>
</svg>
