<svg width="300" height="100" viewBox="0 0 300 100" fill="none" xmlns="http://www.w3.org/2000/svg">
<rect width="300" height="100" fill="white"/>
<g clip-path="url(#clip0_311_395)">
<path d="M85.8759 63.035C80.4284 68.9208 73.0306 68.5713 70.2894 68.3962C69.5041 65.108 68.9829 58.3283 74.4306 52.4415C79.8781 46.5546 87.8461 46.7368 90.0206 47.0805C90.5464 49.3007 91.3236 57.1482 85.8759 63.035Z" fill="#7E5FF2"/>
<g style="mix-blend-mode:multiply">
<path d="M70.2879 43.916C78.8776 52.4577 78.3226 63.7267 77.5151 67.8608C72.7243 69.1462 62.2696 69.1602 53.6776 60.6162C45.0856 52.0722 45.7949 40.0588 46.4353 36.8011C49.8099 36.121 61.6983 35.3743 70.2879 43.916Z" fill="url(#paint0_linear_311_395)"/>
</g>
<path d="M81.0967 43.006C84.4633 43.006 87.1927 40.2767 87.1927 36.91C87.1927 33.5432 84.4633 30.814 81.0967 30.814C77.7298 30.814 75.0005 33.5432 75.0005 36.91C75.0005 40.2767 77.7298 43.006 81.0967 43.006Z" fill="#7E5FF2"/>
<g style="mix-blend-mode:multiply">
<path d="M70.553 68.4194C70.4636 68.4132 70.3738 68.4064 70.2836 68.3991C69.4988 65.1096 68.9801 58.3329 74.4256 52.4482C74.7711 52.0749 75.1266 51.7259 75.4903 51.3999C78.5471 58.1316 78.0948 64.8669 77.5101 67.8607C76.4481 68.1456 75.1078 68.3681 73.5713 68.4487C72.354 68.5082 71.313 68.4646 70.553 68.4194Z" fill="#FF33C6"/>
</g>
<path d="M116.519 40.7749V61.1985C116.519 63.0818 115.784 64.8882 114.474 66.2198C113.165 67.5515 111.39 68.2997 109.538 68.2997V47.8762C109.538 45.9928 110.274 44.1865 111.583 42.8548C112.892 41.5231 114.668 40.7749 116.519 40.7749Z" fill="#7E5FF2"/>
<path d="M148.829 30V68.5228H141.712V65.2752C139.726 67.7518 136.746 69.2927 132.718 69.2927C125.379 69.2927 119.31 62.9647 119.31 54.7647C119.31 46.5648 125.379 40.2356 132.718 40.2356C136.746 40.2356 139.726 41.7775 141.712 44.2531V30H148.829ZM141.712 54.7647C141.712 50.1423 138.457 47.0047 134.043 47.0047C129.683 47.0047 126.428 50.1423 126.428 54.7647C126.428 59.387 129.68 62.5235 134.043 62.5235C138.457 62.5235 141.712 59.387 141.712 54.7647Z" fill="#7E5FF2"/>
<path d="M180.946 30V68.5228H173.876V65.2752C171.904 67.7518 168.944 69.2927 164.944 69.2927C157.655 69.2927 151.626 62.9647 151.626 54.7647C151.626 46.5648 157.655 40.2356 164.941 40.2356C168.942 40.2356 171.901 41.7775 173.874 44.2531V30H180.946ZM173.876 54.7647C173.876 50.1423 170.643 47.0047 166.259 47.0047C161.93 47.0047 158.696 50.1423 158.696 54.7647C158.696 59.387 161.93 62.5235 166.259 62.5235C170.643 62.5235 173.876 59.387 173.876 54.7647Z" fill="#7E5FF2"/>
<path d="M198.652 63.3952C201.169 63.3952 203.358 62.1817 204.287 60.6377L211.236 60.5825C209.54 66.1528 204.722 69.2963 198.597 69.2963C189.679 69.2963 183.934 62.9543 183.934 54.7367C183.934 46.5188 189.788 40.1758 198.433 40.1758C206.476 40.1758 212.057 46.6243 212.057 54.7367C212.057 55.7848 212.003 56.7217 211.784 57.6595H191.266C192.196 61.5743 195.151 63.3952 198.652 63.3952ZM204.999 52.0892C204.178 48.118 201.333 46.5786 198.378 46.5786C194.603 46.5786 192.086 48.6187 191.211 52.0892H204.999Z" fill="#7E5FF2"/>
<path d="M229.408 40.3774V48.261C225.739 47.8233 221.908 49.4657 221.908 54.7793V61.2382C221.908 63.1113 221.164 64.9078 219.839 66.2325C218.516 67.557 216.719 68.3012 214.848 68.3012V40.9245H221.908V45.031C223.276 41.801 226.069 40.3774 229.408 40.3774Z" fill="#7E5FF2"/>
<path d="M252.747 50.9858V65.3182C252.747 66.1685 252.412 66.9838 251.816 67.5852C251.219 68.1865 250.409 68.5245 249.566 68.5248H245.851V66.1528C244.264 68.0828 241.856 69.2963 238.404 69.2963C233.532 69.2963 229.212 66.3733 229.212 60.5825C229.212 54.7917 233.536 51.9238 238.404 51.9238C241.852 51.9238 244.261 52.972 245.851 54.3508V51.4278C245.851 48.1732 244.209 46.7943 241.582 46.7943C239.009 46.7943 237.367 48.1732 237.367 50.3247H230.471C230.471 43.8163 235.561 40.1758 241.582 40.1758C247.656 40.1758 252.747 43.8163 252.747 50.9858ZM245.851 60.5825C245.851 58.4873 243.936 57.1637 240.816 57.1637C237.694 57.1637 236.277 58.5975 236.277 60.5825C236.277 62.5675 237.701 64.0025 240.816 64.0025C243.931 64.0025 245.851 62.5687 245.851 60.5825Z" fill="#7E5FF2"/>
</g>
<defs>
<linearGradient id="paint0_linear_311_395" x1="62.0125" y1="36.4194" x2="62.0125" y2="68.4815" gradientUnits="userSpaceOnUse">
<stop stop-color="#FF33C6"/>
<stop offset="1" stop-color="#7433FF"/>
</linearGradient>
<clipPath id="clip0_311_395">
<rect width="206.667" height="40" fill="white" transform="translate(46.0859 30)"/>
</clipPath>
</defs>
</svg>
