<svg width="300" height="100" viewBox="0 0 300 100" fill="none" xmlns="http://www.w3.org/2000/svg">
<rect width="300" height="100" fill="white"/>
<path d="M117.956 37.6447C118.68 37.6447 119.267 37.0577 119.267 36.3336C119.267 35.6095 118.68 35.0225 117.956 35.0225C117.232 35.0225 116.645 35.6095 116.645 36.3336C116.645 37.0577 117.232 37.6447 117.956 37.6447Z" fill="#3A4195"/>
<path d="M126.659 58.9999C126.778 58.9999 126.874 58.9038 126.874 58.7851C126.874 58.6665 126.778 58.5703 126.659 58.5703C126.541 58.5703 126.444 58.6665 126.444 58.7851C126.444 58.9038 126.541 58.9999 126.659 58.9999Z" fill="#3A4195"/>
<path d="M173.059 42.8374C169.415 42.8374 166.244 44.9041 164.674 47.9263L159.348 46.3559L159.133 47.8818L164.067 49.393C163.77 50.3041 163.615 51.2818 163.615 52.2893C163.615 57.5115 167.844 61.7411 173.067 61.7411C178.289 61.7411 182.518 57.5115 182.518 52.2893C182.518 47.067 178.281 42.8374 173.059 42.8374ZM177.844 58.3707C177.956 58.1041 177.985 57.9263 177.985 57.9263C177.956 54.9411 175.481 53.0152 175.481 53.0152C175.481 53.0152 175.459 52.867 175.474 52.8448H175.378C175.978 52.23 176.356 51.393 176.356 50.467C176.356 48.593 174.837 47.0744 172.963 47.0744C171.089 47.0744 169.57 48.593 169.57 50.467C169.57 51.393 169.941 52.23 170.541 52.8448C168.222 54.5189 167.763 57.9189 167.763 57.9263C166.267 56.5189 165.326 54.5115 165.326 52.2967C165.326 48.0226 168.793 44.5633 173.059 44.5633C177.333 44.5633 180.793 48.03 180.793 52.2967C180.8 54.7559 179.644 56.9559 177.844 58.3707Z" fill="#A9CE43"/>
<path d="M157.141 53.4147C157.022 53.4147 156.904 53.4222 156.785 53.4222L156.437 51.2666L154.956 51.5407L155.037 51.7036L155.318 53.6814C152.674 54.4666 150.741 56.9185 150.741 59.8222C150.741 63.3629 153.607 66.2296 157.148 66.2296C160.689 66.2296 163.556 63.3629 163.556 59.8222C163.556 56.2814 160.674 53.4147 157.141 53.4147ZM159.941 63.1851C159.822 61.6222 158.467 60.6222 158.467 60.6222C158.467 60.6222 158.452 60.5407 158.459 60.5259H158.4C158.756 60.1851 158.978 59.711 158.978 59.1925C158.978 58.1407 158.081 57.2888 156.97 57.2888C155.859 57.2888 154.963 58.1407 154.963 59.1925C154.963 59.711 155.185 60.1851 155.533 60.5259C154.511 61.2296 154.104 62.4814 153.963 63.0592C153.089 62.237 152.533 61.074 152.533 59.7777C152.533 57.3036 154.541 55.2962 157.015 55.2962C159.489 55.2962 161.496 57.3036 161.496 59.7777C161.504 61.1407 160.896 62.3629 159.941 63.1851Z" fill="#F58733"/>
<path d="M164.615 36.104C162.748 36.104 161.237 37.6151 161.237 39.4818C161.237 39.8003 161.282 40.1114 161.371 40.4077L158.808 41.8299L159.134 43.1929L162.097 41.7262C162.719 42.4225 163.615 42.8596 164.615 42.8596C166.482 42.8596 167.993 41.3484 167.993 39.4818C167.993 37.6151 166.482 36.104 164.615 36.104ZM165.934 40.7707C165.741 40.2744 165.334 39.9707 165.334 39.9707C165.334 39.9707 165.326 39.9336 165.334 39.9262H165.304C165.474 39.7633 165.578 39.541 165.578 39.2966C165.578 38.8003 165.156 38.4003 164.637 38.4003C164.119 38.4003 163.697 38.8003 163.697 39.2966C163.697 39.541 163.8 39.7633 163.963 39.9188C163.622 40.1484 163.43 40.5114 163.319 40.8003C162.978 40.467 162.763 40.0003 162.763 39.4818C162.763 38.4596 163.593 37.6373 164.608 37.6373C165.63 37.6373 166.452 38.467 166.452 39.4818C166.459 39.9855 166.259 40.4373 165.934 40.7707Z" fill="#23ADE4"/>
<path d="M158.015 35.8372C158.015 34.6964 157.089 33.7705 155.948 33.7705C154.807 33.7705 153.881 34.6964 153.881 35.8372C153.881 36.5779 154.274 37.2298 154.867 37.5927L154.363 39.7335L155.867 40.0298L156.267 37.8742C157.259 37.7261 158.015 36.8742 158.015 35.8372ZM156.459 36.6372C156.452 36.3557 156.207 36.1705 156.207 36.1705V36.1557H156.2C156.259 36.0964 156.296 36.015 156.296 35.9335C156.296 35.7557 156.141 35.615 155.955 35.615C155.77 35.615 155.615 35.7557 155.615 35.9335C155.615 36.0224 155.652 36.1038 155.711 36.1557C155.489 36.3112 155.437 36.615 155.437 36.6372C155.178 36.4668 155 36.1779 155 35.8372C155 35.3112 155.422 34.889 155.948 34.889C156.474 34.889 156.896 35.3112 156.896 35.8372C156.896 36.1779 156.726 36.4668 156.459 36.6372Z" fill="#6E508D"/>
<path d="M119.126 39.1411L116.822 40.2522V52.7189L119.126 51.4152V39.1411Z" fill="#3A4195"/>
<path d="M130.548 52.437L130.519 35.7037L132.778 34.6963V40.5037C132.778 40.5037 134.541 38.163 137.748 40.2148C138.289 40.563 138.741 41.0741 139.111 41.6074C139.119 41.6148 139.126 41.6222 139.126 41.6296C139.467 42.1259 139.8 42.8148 139.8 43.4148V51.3704L137.511 52.4296V44.0074C137.511 43.4518 137.348 42.9037 137.022 42.4518C136.667 41.963 136.067 41.4889 135.074 41.4815C135.074 41.4815 132.874 41.563 132.793 43.563L132.807 51.4222L130.548 52.437Z" fill="#3A4195"/>
<path d="M142.741 39.2222L140.408 40.3111V48.0666C140.408 48.0666 140.415 48.2444 140.46 48.5333C140.778 50.2888 142.148 51.6666 143.889 52.037C145 52.274 146.66 52.3481 148.023 51.2592C148.963 50.4962 149.719 49.3925 149.748 48.1851V39.2222L147.415 40.2814L147.534 47.837C147.541 48.1999 147.474 48.5555 147.326 48.8888C147.06 49.4814 146.452 50.1925 145.067 50.2148C145.067 50.2148 143.03 50.1999 142.771 48.2888C142.756 48.1703 142.748 48.0444 142.748 47.9259L142.741 39.2222Z" fill="#3A4195"/>
<path d="M146.171 59.1929L145.845 59.3484V60.4447C145.845 60.4447 145.845 60.4669 145.852 60.5114C145.897 60.7632 146.089 60.9558 146.326 61.0077C146.482 61.0447 146.711 61.0521 146.897 60.8966C147.03 60.7855 147.134 60.6299 147.134 60.4595V59.1929L146.808 59.341L146.823 60.4077C146.823 60.4595 146.815 60.5114 146.793 60.5558C146.756 60.6373 146.674 60.741 146.482 60.741C146.482 60.741 146.2 60.741 146.163 60.4669V60.4151L146.171 59.1929Z" fill="#3A4195"/>
<path d="M155.023 39.5263C154.763 39.4892 153.882 39.3337 152.645 40.3929L152.63 34.667L150.319 35.7781V47.704C150.319 48.5411 150.534 49.3707 150.971 50.0818C151.378 50.7411 152.03 51.4226 153.082 51.8448C154.03 52.2225 155.074 52.2744 156.067 52.0522C156.097 52.0448 156.134 52.0374 156.171 52.03C158.126 51.5707 159.623 49.9337 159.623 47.9263V43.6077C159.623 42.8151 159.267 42.0225 158.815 41.3633C158.237 40.5188 156.897 39.5929 155.215 39.5337C155.156 39.5411 155.089 39.5337 155.023 39.5263ZM157.371 48.0003C157.371 49.3929 156.556 50.067 155.126 50.2003C153.867 50.3114 152.623 49.1781 152.623 47.9114V43.9485C152.623 42.6818 153.578 41.6003 154.837 41.4966C156.252 41.3855 157.334 42.5263 157.334 43.9188L157.371 48.0003Z" fill="#3A4195"/>
<path d="M148.334 59.2223C148.297 59.2149 148.171 59.1927 148 59.3483V58.5112L147.674 58.6742V60.4075C147.674 60.526 147.704 60.652 147.763 60.7557C147.822 60.852 147.911 60.9483 148.06 61.0149C148.193 61.0668 148.341 61.0742 148.482 61.0446H148.497C148.771 60.9779 148.985 60.7409 148.985 60.4446V59.8149C148.985 59.6964 148.934 59.5853 148.874 59.489C148.793 59.3631 148.608 59.2297 148.371 59.2223C148.356 59.2297 148.348 59.2297 148.334 59.2223ZM148.667 60.4594C148.667 60.6594 148.556 60.7631 148.348 60.7779C148.171 60.7927 147.993 60.6297 147.993 60.4446V59.8668C147.993 59.6816 148.126 59.526 148.304 59.5112C148.504 59.4964 148.652 59.6594 148.652 59.8668L148.667 60.4594Z" fill="#3A4195"/>
<path d="M129.237 52.6297V44.2445C129.237 43.2519 129.104 42.2741 128.57 41.4371C126.807 38.6889 123.6 39.5408 123.6 39.5408C120.289 40.4815 120.044 43.3556 120.044 43.3556V47.8223C120.044 49.763 121.459 51.5037 123.341 52C123.793 52.1186 124.096 52.126 124.096 52.126C126.467 52.2889 127.037 51.2297 127.037 51.2297V52.6223C126.993 53.6371 126.43 54.1704 125.904 54.4519C125.526 54.6519 125.096 54.7482 124.674 54.7482H122.141L121.163 56.7111H124.793C125.667 56.7111 126.533 56.4815 127.281 56.0149C129.267 54.7556 129.237 52.6297 129.237 52.6297ZM127.03 47.8963C127.03 49.2223 126.03 50.2371 124.696 50.2371C123.363 50.2371 122.281 49.2371 122.281 47.9111V43.8519C122.281 42.526 123.37 41.4371 124.696 41.4371C126.022 41.4371 127.03 42.5334 127.03 43.8667V47.8963Z" fill="#3A4195"/>
<path d="M116.578 58.5557L116.252 58.7038V61.1112L116.578 60.926V58.5557Z" fill="#3A4195"/>
<path d="M117.096 61.0223V59.6668C117.096 59.6445 117.104 59.6223 117.111 59.6001C117.155 59.4964 117.311 59.2149 117.726 59.2149C117.726 59.2149 118.244 59.2001 118.326 59.6371V60.889L118.081 61.0223L118.096 59.763C118.096 59.7482 118.096 59.726 118.089 59.7112C118.067 59.6445 118.067 59.4593 117.718 59.4593C117.718 59.4593 117.422 59.4593 117.385 59.726L117.378 60.8742L117.096 61.0223Z" fill="#3A4195"/>
<path d="M118.867 61.0224V59.6668C118.867 59.6372 118.874 59.615 118.882 59.5854C118.926 59.4742 119.089 59.2076 119.489 59.2076C119.489 59.2076 120.007 59.1928 120.089 59.6298V60.8817L119.844 61.015L119.859 59.7335C119.859 59.7335 119.882 59.452 119.474 59.452C119.474 59.452 119.133 59.452 119.141 59.7187L119.133 60.8668L118.867 61.0224Z" fill="#3A4195"/>
<path d="M129.052 61.0223V59.6742C129.052 59.6445 129.059 59.6149 129.067 59.5927C129.118 59.4816 129.274 59.2149 129.674 59.2149C129.674 59.2149 130.192 59.2001 130.274 59.6371V60.889L130.03 61.0223L130.044 59.7408C130.044 59.7408 130.074 59.4593 129.659 59.4593C129.659 59.4593 129.318 59.4593 129.326 59.726L129.318 60.8742L129.052 61.0223Z" fill="#3A4195"/>
<path d="M121.17 61.0152C120.674 61.0152 120.474 60.7337 120.474 60.3707V59.8744C120.474 59.5189 120.674 59.23 121.17 59.23C121.667 59.23 121.867 59.5115 121.867 59.8744V60.3707C121.867 60.7337 121.674 61.0152 121.17 61.0152ZM121.17 59.4892C120.904 59.4892 120.77 59.6152 120.77 59.867V60.3855C120.77 60.6374 120.904 60.7633 121.17 60.7633C121.437 60.7633 121.57 60.6374 121.57 60.3855V59.867C121.57 59.6152 121.437 59.4892 121.17 59.4892Z" fill="#3A4195"/>
<path d="M127.971 61.0152C127.474 61.0152 127.274 60.7337 127.274 60.3707V59.8744C127.274 59.5189 127.474 59.23 127.971 59.23C128.467 59.23 128.667 59.5115 128.667 59.8744V60.3707C128.667 60.7337 128.467 61.0152 127.971 61.0152ZM127.971 59.4892C127.704 59.4892 127.571 59.6152 127.571 59.867V60.3855C127.571 60.6374 127.704 60.7633 127.971 60.7633C128.237 60.7633 128.371 60.6374 128.371 60.3855V59.867C128.371 59.6152 128.237 59.4892 127.971 59.4892Z" fill="#3A4195"/>
<path d="M135.815 61.0152C135.319 61.0152 135.119 60.7337 135.119 60.3707V59.8744C135.119 59.5189 135.319 59.23 135.815 59.23C136.311 59.23 136.511 59.5115 136.511 59.8744V60.3707C136.511 60.7337 136.319 61.0152 135.815 61.0152ZM135.815 59.4892C135.548 59.4892 135.415 59.6152 135.415 59.867V60.3855C135.415 60.6374 135.548 60.7633 135.815 60.7633C136.082 60.7633 136.215 60.6374 136.215 60.3855V59.867C136.215 59.6152 136.082 59.4892 135.815 59.4892Z" fill="#3A4195"/>
<path d="M124.155 59.9557C124.363 59.9557 124.518 60.0298 124.578 60.1039V59.9039C124.578 59.6742 124.422 59.5483 124.185 59.5483C123.985 59.5483 123.822 59.6224 123.711 59.6891L123.615 59.5113C123.726 59.4446 123.941 59.3335 124.215 59.3335C124.659 59.3335 124.829 59.5779 124.829 59.9261V60.9928H124.615L124.585 60.8594C124.504 60.9557 124.363 61.0372 124.148 61.0372C123.792 61.0372 123.533 60.815 123.533 60.4965C123.533 60.1779 123.792 59.9557 124.155 59.9557ZM124.192 60.8224C124.43 60.8224 124.592 60.6816 124.592 60.489C124.592 60.289 124.429 60.1557 124.185 60.1557C123.941 60.1557 123.778 60.2965 123.778 60.489C123.785 60.6668 123.941 60.8224 124.192 60.8224Z" fill="#3A4195"/>
<path d="M122.022 59.3112L122.267 59.1631L122.711 60.5853L123.193 59.1705L123.43 59.3335L122.904 60.8816L122.593 61.0742L122.022 59.3112Z" fill="#3A4195"/>
<path d="M125.785 58.5186L125.415 58.7111V59.2889H125.141L125.044 59.5556H125.415V61.0741L125.785 60.8445V59.5482L126.067 59.5556L126.185 59.2815H125.785V58.5186Z" fill="#3A4195"/>
<path d="M140.111 58.5186L139.741 58.7111V59.2889H139.467L139.378 59.5556H139.741V61.0741L140.111 60.8445V59.5482L140.393 59.5556L140.511 59.2815H140.119L140.111 58.5186Z" fill="#3A4195"/>
<path d="M126.822 59.2148L126.467 59.3852V61.0741L126.845 60.6963L126.822 59.2148Z" fill="#3A4195"/>
<path d="M133.326 59.4889L133.615 59.3037C133.615 59.3037 133.659 58.563 132.845 58.563C132.845 58.563 132.074 58.6074 132.074 59.2074V60.4963C132.074 60.4963 132.141 61.0222 132.733 61.0222C132.733 61.0222 133.615 61.0445 133.615 60.4223V59.6445H132.896L132.689 59.9408H133.319V60.4667C133.319 60.4667 133.141 60.7408 132.845 60.7408C132.845 60.7408 132.4 60.8074 132.341 60.326V59.2148C132.341 59.2148 132.371 58.8889 132.845 58.8889C132.845 58.8815 133.326 58.7852 133.326 59.4889Z" fill="#3A4195"/>
<path d="M134.133 61.0222V59.6889C134.133 59.6889 134.141 59.4445 134.511 59.2148H134.97L134.837 59.563H134.504C134.504 59.563 134.385 59.6519 134.407 59.8V60.8593L134.133 61.0222Z" fill="#3A4195"/>
<path d="M137.207 59.126L136.911 59.3186V60.5482C136.911 60.5482 136.956 61.0223 137.511 61.0223C137.511 61.0223 137.733 61.0519 138.059 60.7334C138.059 60.7334 138.163 61.0223 138.644 61.0223C138.644 61.0223 139.052 61.0741 139.163 60.5408V59.163L138.867 59.3038V60.5482C138.867 60.5482 138.807 60.7482 138.548 60.7482C138.548 60.7482 138.207 60.7852 138.2 60.4889V59.126L137.889 59.2889V60.526C137.889 60.526 137.815 60.7408 137.489 60.7408C137.489 60.7408 137.237 60.7852 137.222 60.4741L137.207 59.126Z" fill="#3A4195"/>
<path d="M141.133 58.5186L140.815 58.6741V61.0741L141.17 60.8519V59.6519C141.17 59.6519 141.326 59.4963 141.556 59.4963C141.556 59.4963 141.808 59.4593 141.808 59.7926V61.0741L142.126 60.9037V59.6741C142.126 59.6741 142.126 59.2074 141.467 59.2074C141.467 59.2074 141.393 59.1778 141.163 59.3926L141.133 58.5186Z" fill="#3A4195"/>
<path d="M144.141 58.5186L143.792 58.6889V61.1186L144.141 60.8667V59.926H145.03V61.1186L145.392 60.8297V58.5186L145.015 58.7186V59.6297H144.133L144.141 58.5186Z" fill="#3A4195"/>
</svg>
