<svg width="300" height="100" viewBox="0 0 300 100" fill="none" xmlns="http://www.w3.org/2000/svg">
<rect width="300" height="100" fill="white"/>
<g clip-path="url(#clip0_311_382)">
<mask id="mask0_311_382" style="mask-type:luminance" maskUnits="userSpaceOnUse" x="79" y="30" width="143" height="40">
<path d="M221.964 30.0938H79.7188V69.9062H221.964V30.0938Z" fill="white"/>
</mask>
<g mask="url(#mask0_311_382)">
<path d="M80.7996 37.149C81.1064 37.4697 81.4736 37.7267 81.88 37.9052C82.3141 38.0892 82.7806 38.1847 83.2521 38.1861C83.7266 38.1887 84.1966 38.0942 84.6332 37.9084C85.0699 37.7226 85.4639 37.4495 85.791 37.1057C86.1362 36.7843 86.4106 36.3944 86.5966 35.961C86.7826 35.5275 86.8762 35.0601 86.8714 34.5884C86.8747 34.1186 86.7804 33.6532 86.5944 33.2217C86.4084 32.7902 86.1349 32.4021 85.791 32.0819C85.4639 31.7382 85.0699 31.465 84.6332 31.2792C84.1966 31.0934 83.7266 30.9989 83.2521 31.0015C82.7762 31.0318 82.3104 31.1528 81.88 31.358C81.0365 31.7258 80.3618 32.3966 79.9893 33.2379C79.8056 33.6794 79.7137 34.1536 79.7192 34.6316C79.7115 35.1099 79.8035 35.5846 79.9893 36.0253C80.1823 36.4498 80.4578 36.8318 80.7996 37.149Z" fill="#0E1E15"/>
<path d="M86.86 42.5723H79.7834V69.0419H86.86V42.5723Z" fill="#0E1E15"/>
<path d="M116.052 44.8089C115.218 43.8074 114.154 43.0217 112.952 42.5185C111.563 41.9545 110.074 41.6788 108.576 41.7082C106.901 41.6791 105.247 42.0769 103.768 42.8642C102.396 43.6104 101.241 44.7015 100.419 46.0297H99.9869V42.5725H93.3425V69.0421H100.419V56.0774C100.411 55.0447 100.546 54.0159 100.819 53.0199C101.062 52.1267 101.465 51.2849 102.007 50.535C102.516 49.853 103.16 49.283 103.898 48.8604C104.688 48.4382 105.574 48.2261 106.469 48.2445C107.147 48.1964 107.828 48.294 108.465 48.5306C109.103 48.7673 109.682 49.1376 110.164 49.6166C111.11 50.8203 111.566 52.3371 111.439 53.8626V68.9881H118.516V52.9983C118.535 51.4345 118.324 49.8764 117.889 48.3742C117.52 47.0754 116.896 45.8632 116.052 44.8089Z" fill="#0E1E15"/>
<path d="M134.721 41.7079C132.521 41.6162 130.331 42.0483 128.331 42.9687C126.33 43.8891 124.577 45.2713 123.215 47.0018L128.336 50.5131C129.062 49.5532 130.001 48.7752 131.079 48.2408C132.157 47.7064 133.345 47.4302 134.549 47.4339C136.054 47.3838 137.528 47.8701 138.708 48.8061C139.239 49.2174 139.667 49.7472 139.958 50.3529C140.249 50.9587 140.394 51.6239 140.383 52.2957V53.1061C139.485 52.7606 138.565 52.4789 137.628 52.2633C136.208 51.9627 134.757 51.8286 133.306 51.8636C131.843 51.8474 130.385 52.0551 128.984 52.4794C127.74 52.8664 126.579 53.4819 125.56 54.2944C124.641 55.0648 123.897 56.0226 123.377 57.1034C122.825 58.2596 122.547 59.5279 122.567 60.8092C122.551 62.0739 122.809 63.3271 123.323 64.4826C123.822 65.5854 124.56 66.5634 125.484 67.3456C126.412 68.1542 127.482 68.7842 128.639 69.2039C129.876 69.6628 131.187 69.8934 132.507 69.8846C134.08 69.9524 135.64 69.5781 137.012 68.8042C138.149 68.1118 139.164 67.2356 140.015 66.2112H140.447V69.0202H147.416V53.1601C147.416 49.3787 146.336 46.5228 144.175 44.5926C142.014 42.6622 138.863 41.7007 134.721 41.7079ZM139.929 60.5823C139.636 61.3134 139.195 61.9757 138.632 62.5271C138.055 63.1063 137.368 63.5653 136.612 63.8776C135.793 64.2267 134.91 64.4033 134.019 64.3962C132.921 64.4141 131.847 64.0727 130.962 63.4238C130.545 63.1343 130.206 62.7459 129.976 62.2934C129.746 61.8409 129.632 61.3383 129.644 60.8308C129.642 60.2996 129.766 59.7754 130.004 59.3007C130.242 58.8259 130.589 58.4138 131.016 58.0974C132.162 57.3019 133.545 56.9208 134.937 57.0171C135.91 57.0103 136.879 57.1264 137.822 57.3628C138.707 57.5989 139.568 57.9172 140.393 58.3136C140.393 59.0933 140.235 59.8651 139.929 60.5823Z" fill="#0E1E15"/>
<path d="M180.53 59.1563H180.152L174.858 42.5723H167.565L162.325 59.1563H161.947L157.572 42.5723H149.631L158.112 69.0419H165.621L170.915 52.3498H171.293L176.587 69.0419H184.203L192.684 42.5723H184.852L180.53 59.1563Z" fill="#0E1E15"/>
<path d="M220.905 50.1349C220.25 48.4676 219.261 46.9523 217.997 45.6829C216.734 44.4137 215.222 43.4174 213.557 42.7558C209.924 41.3587 205.901 41.3587 202.268 42.7558C200.603 43.4174 199.092 44.4137 197.829 45.6829C196.565 46.9523 195.575 48.4676 194.921 50.1349C194.195 51.9373 193.828 53.8639 193.841 55.8069C193.828 57.7499 194.195 59.6767 194.921 61.4791C195.578 63.1437 196.568 64.6563 197.832 65.9236C199.095 67.1908 200.605 68.1858 202.268 68.8473C205.899 70.2589 209.927 70.2589 213.557 68.8473C215.221 68.1858 216.73 67.1908 217.994 65.9236C219.257 64.6563 220.247 63.1437 220.905 61.4791C221.63 59.6767 221.997 57.7499 221.985 55.8069C221.997 53.8639 221.63 51.9373 220.905 50.1349ZM214.314 58.9941C213.97 59.8827 213.447 60.6916 212.78 61.3709C212.142 62.0161 211.377 62.5203 210.532 62.8511C209.704 63.1938 208.815 63.3699 207.919 63.3697C207.01 63.3763 206.11 63.1999 205.271 62.8511C204.459 62.5073 203.724 62.0039 203.11 61.3709C202.439 60.6919 201.914 59.8832 201.566 58.9941C201.175 57.9777 200.984 56.8956 201.004 55.8069C200.984 54.7183 201.175 53.6362 201.566 52.6198C201.914 51.7307 202.439 50.9219 203.11 50.2429C203.727 49.6101 204.461 49.1036 205.271 48.7519C206.112 48.4118 207.011 48.2393 207.919 48.2442C208.814 48.2454 209.701 48.4177 210.532 48.7519C211.375 49.0914 212.14 49.5987 212.78 50.2429C213.447 50.9223 213.97 51.7312 214.314 52.6198C215.079 54.6759 215.079 56.9381 214.314 58.9941Z" fill="#0E1E15"/>
<path d="M205.39 39.0934H210.187L214.227 33.2053C214.337 33.0465 214.396 32.8581 214.396 32.6651C214.396 32.4721 214.337 32.2837 214.227 32.1249L213.245 30.5367C213.155 30.4028 213.035 30.2926 212.894 30.2154C212.752 30.1383 212.595 30.0965 212.434 30.0938H203.208C203.046 30.0946 202.888 30.1356 202.747 30.2129C202.605 30.2902 202.485 30.4015 202.397 30.5367L201.382 32.1573C201.272 32.3161 201.213 32.5045 201.213 32.6975C201.213 32.8905 201.272 33.0789 201.382 33.2377L205.39 39.0934Z" fill="#0E1E15"/>
</g>
</g>
<defs>
<clipPath id="clip0_311_382">
<rect width="142.5" height="40" fill="white" transform="translate(79.7188 30)"/>
</clipPath>
</defs>
</svg>
