<svg width="300" height="100" viewBox="0 0 300 100" fill="none" xmlns="http://www.w3.org/2000/svg">
<rect width="300" height="100" fill="white"/>
<mask id="mask0_298_11658" style="mask-type:luminance" maskUnits="userSpaceOnUse" x="110" y="39" width="80" height="22">
<path d="M110 39.6802H190V60.3328H110V39.6802Z" fill="white"/>
</mask>
<g mask="url(#mask0_298_11658)">
<path d="M139.119 55.7948H137.25V44.2081H139.119V55.7948ZM148.421 50.8157V55.7948H146.69V51.3858C146.69 50.0543 146.003 49.3097 144.844 49.3097C143.728 49.3097 142.792 50.0459 142.792 51.4026V55.7948H141.056V47.8708H142.777V48.8384C143.413 47.9044 144.398 47.6645 145.208 47.6645C147.096 47.6645 148.421 48.9625 148.421 50.8157ZM156.278 48.8301V43.8845H158.008V55.7914H156.278V54.8439C155.733 55.5465 154.914 56.001 153.788 56.001C151.57 56.001 149.825 54.2552 149.825 51.8319C149.825 49.4086 151.57 47.6645 153.79 47.6645C154.914 47.6645 155.733 48.1274 156.278 48.8301ZM151.609 51.8319C151.609 53.2222 152.51 54.371 154 54.371C155.431 54.371 156.391 53.2792 156.391 51.8319C156.391 50.3847 155.431 49.2929 154 49.2929C152.505 49.2929 151.609 50.4434 151.609 51.8319ZM161.813 45.1339C161.815 45.2943 161.784 45.4533 161.722 45.6016C161.661 45.7498 161.571 45.8842 161.457 45.9968C161.342 46.1094 161.207 46.198 161.057 46.2572C160.908 46.3163 160.749 46.345 160.588 46.3414C160.429 46.3446 160.27 46.3155 160.122 46.256C159.974 46.1965 159.84 46.1077 159.727 45.9949C159.614 45.8821 159.526 45.7477 159.466 45.5998C159.406 45.4518 159.377 45.2934 159.38 45.1339C159.377 44.9736 159.406 44.8141 159.465 44.6651C159.524 44.516 159.613 44.3804 159.725 44.2662C159.838 44.152 159.972 44.0616 160.121 44.0004C160.269 43.9391 160.428 43.9083 160.588 43.9097C160.75 43.9079 160.91 43.9383 161.059 43.9992C161.209 44.06 161.344 44.1502 161.458 44.2642C161.573 44.3783 161.663 44.5139 161.724 44.6633C161.785 44.8126 161.815 44.9726 161.813 45.1339ZM161.466 55.7948H159.728V47.8709H161.466V55.7948ZM170.078 48.929L168.969 50.113C168.415 49.5914 167.828 49.2929 167.067 49.2929C165.734 49.2929 164.717 50.336 164.717 51.8319C164.717 53.3278 165.724 54.371 167.067 54.371C167.796 54.3509 168.491 54.0555 169.011 53.5442L170.078 54.7349C169.358 55.5734 168.3 56.001 167.117 56.001C164.6 56.001 162.946 54.2066 162.946 51.8319C162.946 49.4573 164.594 47.6645 167.117 47.6645C168.3 47.6645 169.375 48.0938 170.078 48.929ZM173.107 45.1339C173.108 45.2943 173.077 45.4532 173.015 45.6014C172.954 45.7496 172.864 45.884 172.75 45.9968C172.635 46.1095 172.5 46.198 172.35 46.2572C172.201 46.3164 172.042 46.345 171.882 46.3414C171.722 46.3447 171.563 46.3158 171.415 46.2564C171.267 46.1969 171.133 46.1081 171.02 45.9954C170.907 45.8826 170.818 45.7481 170.758 45.6C170.699 45.4519 170.67 45.2934 170.674 45.1339C170.67 44.9735 170.698 44.814 170.757 44.6648C170.816 44.5157 170.905 44.3799 171.018 44.2657C171.13 44.1516 171.265 44.0612 171.413 43.9999C171.562 43.9388 171.721 43.9081 171.882 43.9097C172.043 43.9078 172.203 43.9383 172.352 43.9992C172.502 44.06 172.637 44.1502 172.751 44.2642C172.865 44.3784 172.956 44.514 173.017 44.6633C173.078 44.8127 173.108 44.9727 173.107 45.1339ZM172.757 55.7948H171.021V47.8709H172.757V55.7948ZM181.851 50.8157V55.7948H180.113V51.3858C180.113 50.0543 179.427 49.3097 178.267 49.3097C177.15 49.3097 176.215 50.0459 176.215 51.4026V55.7948H174.479V47.8708H176.2V48.8384C176.836 47.9044 177.821 47.6645 178.633 47.6645C180.519 47.6645 181.851 48.9625 181.851 50.8157ZM190 51.0722V55.7948H188.262V54.9009C187.936 55.2572 187.538 55.5398 187.095 55.7296C186.651 55.9193 186.172 56.0119 185.69 56.001C183.91 56.001 182.916 54.8925 182.916 53.4201C182.916 51.9477 184.183 51.0219 186.077 51.0219H188.259C188.171 49.8816 187.514 49.2392 186.227 49.2392C185.433 49.2642 184.669 49.5421 184.045 50.0325L183.334 48.669C184.236 48.0011 185.331 47.6476 186.453 47.6629C188.742 47.6645 190 48.9625 190 51.0722ZM188.262 53.3463V52.3401H186.326C185.134 52.3401 184.779 52.9103 184.779 53.4234C184.779 53.9366 185.143 54.4984 186.045 54.4984C186.782 54.4951 187.626 54.116 188.262 53.3463ZM126.873 51.0102L119.228 58.6473C119.043 58.8324 118.939 59.0833 118.939 59.345C118.939 59.4746 118.964 59.6029 119.014 59.7226C119.063 59.8423 119.136 59.951 119.228 60.0426C119.413 60.2277 119.664 60.3316 119.926 60.3316C120.187 60.3316 120.439 60.2277 120.624 60.0426L128.261 52.4138C128.399 52.2759 128.493 52.1 128.531 51.9086C128.569 51.7172 128.55 51.5188 128.475 51.3384C128.4 51.1581 128.274 51.004 128.111 50.8956C127.949 50.7873 127.758 50.7295 127.563 50.7296C127.301 50.7296 127.05 50.8335 126.865 51.0185L126.873 51.0102ZM128.098 45.3183L117.741 55.6656C117.611 55.8051 117.523 55.9796 117.49 56.1678C117.456 56.356 117.478 56.5499 117.553 56.7259C117.627 56.9019 117.751 57.0525 117.91 57.1594C118.068 57.2663 118.254 57.325 118.445 57.3282C118.702 57.3327 118.95 57.2374 119.137 57.0625L129.494 46.7237C129.669 46.5366 129.765 46.2889 129.761 46.0326C129.757 45.7764 129.653 45.5319 129.472 45.3506C129.291 45.1693 129.046 45.0655 128.79 45.061C128.534 45.0566 128.286 45.1518 128.098 45.3267V45.3183ZM113.792 49.0061L121.432 41.3572C121.563 41.2175 121.65 41.0429 121.683 40.8547C121.717 40.6664 121.694 40.4726 121.62 40.2966C121.545 40.1207 121.421 39.9702 121.262 39.8635C121.103 39.7568 120.917 39.6984 120.726 39.6954C120.47 39.6913 120.222 39.7868 120.035 39.9619L112.401 47.6058C112.226 47.793 112.131 48.0409 112.135 48.2971C112.14 48.5533 112.243 48.7978 112.425 48.9788C112.606 49.1599 112.851 49.2635 113.107 49.2676C113.363 49.2718 113.611 49.1762 113.798 49.0011L113.792 49.0061ZM112.57 54.698L122.919 44.3457C123.012 44.2545 123.086 44.1457 123.137 44.0255C123.188 43.9054 123.215 43.7763 123.216 43.6458C123.217 43.4493 123.159 43.2569 123.05 43.0934C122.941 42.9299 122.785 42.8028 122.603 42.7283C122.421 42.6538 122.221 42.6352 122.029 42.6751C121.836 42.715 121.66 42.8114 121.523 42.952L111.174 53.3026C111.078 53.3932 111 53.5023 110.946 53.6234C110.893 53.7446 110.864 53.8753 110.862 54.0078C110.858 54.2074 110.916 54.4033 111.026 54.5697C111.136 54.7361 111.295 54.8651 111.48 54.9398C111.603 54.9893 111.734 55.0137 111.867 55.0114C111.999 55.0091 112.13 54.9802 112.251 54.9263C112.372 54.8725 112.481 54.7948 112.572 54.698H112.57ZM115.664 56.0697C115.81 55.9333 115.911 55.756 115.954 55.561C115.997 55.366 115.98 55.1625 115.905 54.9775C115.83 54.7924 115.7 54.6345 115.534 54.5244C115.367 54.4144 115.171 54.3574 114.972 54.361C114.839 54.3633 114.708 54.3922 114.587 54.4461C114.466 54.4999 114.357 54.5776 114.267 54.6744L113.02 55.9205C112.845 56.1077 112.75 56.3556 112.754 56.6118C112.759 56.868 112.863 57.1125 113.044 57.2935C113.225 57.4745 113.47 57.5781 113.726 57.5822C113.982 57.5864 114.23 57.4909 114.418 57.3158L115.664 56.0697ZM126.249 42.6988L125.003 43.9448C124.911 44.0364 124.838 44.1452 124.789 44.2649C124.739 44.3846 124.714 44.5129 124.714 44.6425C124.714 44.7721 124.739 44.9004 124.789 45.0201C124.838 45.1398 124.911 45.2485 125.003 45.3401C125.188 45.5252 125.439 45.6291 125.701 45.6291C125.962 45.6291 126.213 45.5252 126.399 45.3401L127.645 44.0941C127.783 43.9561 127.877 43.7803 127.915 43.5889C127.953 43.3974 127.934 43.199 127.859 43.0187C127.784 42.8384 127.658 42.6843 127.496 42.5759C127.333 42.4675 127.142 42.4097 126.947 42.4098C126.685 42.4098 126.434 42.5138 126.249 42.6988ZM119.635 49.308L118.461 50.4819C118.369 50.5735 118.297 50.6823 118.247 50.802C118.197 50.9217 118.172 51.05 118.172 51.1796C118.172 51.3091 118.197 51.4374 118.247 51.5571C118.297 51.6768 118.369 51.7856 118.461 51.8772C118.646 52.0623 118.897 52.1662 119.159 52.1662C119.421 52.1662 119.672 52.0623 119.857 51.8772L121.031 50.7033L122.206 49.5294C122.344 49.3914 122.438 49.2156 122.476 49.0241C122.514 48.8327 122.494 48.6342 122.42 48.4539C122.345 48.2736 122.219 48.1195 122.056 48.0111C121.894 47.9028 121.703 47.845 121.508 47.8451C121.246 47.8451 120.995 47.949 120.81 48.1341L119.635 49.308ZM112.74 45.7695L113.986 44.5217C114.078 44.4301 114.151 44.3214 114.2 44.2017C114.25 44.082 114.275 43.9537 114.275 43.8241C114.275 43.6945 114.25 43.5662 114.2 43.4465C114.151 43.3268 114.078 43.218 113.986 43.1264C113.801 42.9414 113.55 42.8374 113.288 42.8374C113.027 42.8374 112.776 42.9414 112.59 43.1264L111.342 44.3758C111.245 44.4663 111.168 44.5753 111.114 44.6964C111.06 44.8174 111.031 44.9481 111.029 45.0806C111.026 45.2131 111.051 45.3447 111.1 45.4676C111.15 45.5905 111.224 45.7021 111.317 45.7959C111.459 45.9371 111.639 46.0323 111.836 46.0689C112.032 46.1055 112.235 46.0817 112.417 46.0008C112.538 45.9471 112.647 45.8696 112.738 45.7728L112.74 45.7695Z" fill="#0235DD"/>
<path d="M115.396 42.7056C115.941 42.7056 116.382 42.2641 116.382 41.7195C116.382 41.1749 115.941 40.7334 115.396 40.7334C114.851 40.7334 114.409 41.1749 114.409 41.7195C114.409 42.2641 114.851 42.7056 115.396 42.7056ZM128.981 48.9039C128.842 49.0419 128.748 49.2179 128.71 49.4096C128.671 49.6012 128.691 49.8 128.765 49.9806C128.84 50.1613 128.967 50.3157 129.129 50.4244C129.292 50.533 129.483 50.591 129.679 50.5909C129.874 50.5909 130.065 50.5329 130.228 50.4243C130.39 50.3156 130.517 50.1612 130.592 49.9806C130.667 49.8 130.686 49.6012 130.648 49.4096C130.609 49.2179 130.515 49.0419 130.377 48.9039C130.285 48.8122 130.176 48.7394 130.056 48.6898C129.937 48.6402 129.808 48.6147 129.679 48.6147C129.549 48.6147 129.421 48.6402 129.301 48.6898C129.181 48.7394 129.072 48.8122 128.981 48.9039ZM115.641 57.7637C115.502 57.9016 115.408 58.0776 115.37 58.2693C115.331 58.461 115.351 58.6598 115.425 58.8404C115.5 59.021 115.627 59.1753 115.79 59.2839C115.952 59.3925 116.143 59.4505 116.339 59.4505C116.534 59.4505 116.725 59.3925 116.888 59.2839C117.05 59.1753 117.177 59.021 117.252 58.8404C117.314 58.6903 117.338 58.5272 117.322 58.3656C117.306 58.2039 117.25 58.0487 117.16 57.9137C117.07 57.7787 116.948 57.668 116.804 57.5915C116.661 57.515 116.501 57.475 116.339 57.4751C116.077 57.4751 115.826 57.5789 115.641 57.7637ZM111.686 51.1142C111.789 51.011 111.869 50.8861 111.918 50.7485C111.967 50.611 111.985 50.4643 111.971 50.3189C111.956 50.1735 111.91 50.0332 111.835 49.9079C111.76 49.7826 111.658 49.6756 111.536 49.5945C111.415 49.5134 111.277 49.4602 111.132 49.4388C110.988 49.4173 110.84 49.4282 110.701 49.4706C110.561 49.513 110.432 49.5858 110.324 49.6839C110.216 49.782 110.13 49.9028 110.074 50.0377C110 50.2182 109.98 50.4169 110.018 50.6085C110.056 50.8001 110.15 50.9761 110.289 51.1142C110.474 51.2991 110.725 51.4029 110.987 51.4029C111.249 51.4029 111.501 51.2991 111.686 51.1142ZM125.021 42.2461C125.125 42.1429 125.204 42.018 125.253 41.8805C125.303 41.7429 125.321 41.5961 125.307 41.4507C125.292 41.3052 125.246 41.1648 125.171 41.0394C125.096 40.914 124.994 40.8069 124.872 40.7257C124.751 40.6445 124.613 40.5912 124.468 40.5698C124.324 40.5483 124.176 40.5592 124.036 40.6017C123.896 40.6441 123.768 40.717 123.659 40.8152C123.551 40.9134 123.466 41.0343 123.41 41.1694C123.335 41.35 123.316 41.5487 123.354 41.7404C123.393 41.9321 123.487 42.1081 123.625 42.2461C123.811 42.4305 124.062 42.534 124.323 42.534C124.585 42.534 124.836 42.4305 125.021 42.2461ZM116.362 53.9769C116.465 54.0799 116.59 54.1588 116.727 54.2079C116.865 54.2569 117.011 54.2749 117.156 54.2606C117.301 54.2463 117.442 54.1999 117.567 54.125C117.692 54.05 117.799 53.9482 117.88 53.827C117.988 53.6648 118.046 53.4742 118.046 53.2792C118.046 53.0842 117.988 52.8936 117.88 52.7315C117.771 52.5693 117.617 52.4429 117.437 52.3683C117.257 52.2936 117.059 52.274 116.867 52.312C116.676 52.35 116.5 52.4438 116.362 52.5816C116.178 52.767 116.074 53.0178 116.074 53.2793C116.074 53.5407 116.178 53.7915 116.362 53.9769ZM122.909 47.4331C123.012 47.5364 123.137 47.6154 123.275 47.6646C123.412 47.7138 123.559 47.7319 123.704 47.7176C123.85 47.7033 123.99 47.6569 124.116 47.5818C124.241 47.5068 124.348 47.4048 124.429 47.2834C124.51 47.162 124.564 47.024 124.585 46.8795C124.607 46.735 124.596 46.5876 124.553 46.4478C124.511 46.308 124.438 46.1794 124.34 46.0712C124.242 45.963 124.121 45.8779 123.986 45.8221C123.805 45.7473 123.607 45.7277 123.415 45.7658C123.223 45.8039 123.047 45.898 122.909 46.0361C122.724 46.2216 122.62 46.4728 122.62 46.7346C122.62 46.9965 122.724 47.2476 122.909 47.4331ZM124.573 57.5976C124.47 57.7007 124.391 57.8254 124.342 57.9627C124.293 58.1 124.275 58.2464 124.289 58.3915C124.304 58.5366 124.35 58.6767 124.425 58.8017C124.5 58.9267 124.602 59.0336 124.723 59.1145C124.844 59.1955 124.982 59.2486 125.126 59.27C125.271 59.2914 125.418 59.2805 125.557 59.2382C125.697 59.1959 125.825 59.1232 125.933 59.0253C126.042 58.9274 126.127 58.8068 126.182 58.6721C126.257 58.492 126.277 58.2938 126.239 58.1025C126.201 57.9112 126.107 57.7355 125.969 57.5976C125.877 57.5059 125.769 57.4332 125.649 57.3835C125.529 57.3339 125.401 57.3084 125.271 57.3084C125.142 57.3084 125.013 57.3339 124.893 57.3836C124.774 57.4332 124.665 57.5059 124.573 57.5976Z" fill="#0593EB"/>
<path d="M127.927 54.245L126.681 55.491C126.589 55.5826 126.516 55.6914 126.467 55.8111C126.417 55.9308 126.391 56.0591 126.391 56.1887C126.391 56.3183 126.417 56.4466 126.467 56.5663C126.516 56.686 126.589 56.7947 126.681 56.8863C126.866 57.0714 127.117 57.1754 127.378 57.1754C127.64 57.1754 127.891 57.0714 128.076 56.8863L129.323 55.6403C129.461 55.5023 129.555 55.3265 129.593 55.1351C129.631 54.9436 129.612 54.7452 129.537 54.5649C129.462 54.3846 129.336 54.2305 129.173 54.1221C129.011 54.0138 128.82 53.956 128.625 53.9561C128.363 53.956 128.112 54.06 127.927 54.245Z" fill="#0235DD"/>
</g>
</svg>
