<svg width="300" height="100" viewBox="0 0 300 100" fill="none" xmlns="http://www.w3.org/2000/svg">
<rect width="300" height="100" fill="white"/>
<path fill-rule="evenodd" clip-rule="evenodd" d="M125.103 50.8948L125.598 48.0787C125.598 48.0787 121.789 46.8416 118.689 49.1358V60.4014H121.981V51.2486C123.293 50.1915 125.103 50.8948 125.103 50.8948Z" fill="#03435F"/>
<mask id="mask0_291_6496" style="mask-type:luminance" maskUnits="userSpaceOnUse" x="118" y="47" width="8" height="14">
<path d="M118.689 49.1358C120.18 48.0322 121.836 47.7457 123.152 47.7459C124.572 47.7459 125.598 48.0789 125.598 48.0789L125.103 50.895C125.103 50.895 123.292 50.1917 121.981 51.2486V60.4014H118.689V49.1358Z" fill="white"/>
</mask>
<g mask="url(#mask0_291_6496)">
<path fill-rule="evenodd" clip-rule="evenodd" d="M-81.7077 95.3174L381.894 95.3174L381.894 -561.451H-81.7077L-81.7077 95.3174Z" fill="#03435F"/>
</g>
<mask id="mask1_291_6496" style="mask-type:luminance" maskUnits="userSpaceOnUse" x="118" y="47" width="8" height="14">
<path d="M118.689 49.1358C120.18 48.0322 121.836 47.7459 123.152 47.7459C124.572 47.7459 125.598 48.0789 125.598 48.0789L125.103 50.895C125.103 50.895 123.292 50.1917 121.981 51.2486V60.4014H118.689V49.1358Z" fill="white"/>
</mask>
<g mask="url(#mask1_291_6496)">
<path fill-rule="evenodd" clip-rule="evenodd" d="M113.169 65.9204H131.117V42.2266H113.169V65.9204Z" fill="#03435F"/>
</g>
<path fill-rule="evenodd" clip-rule="evenodd" d="M96.7218 44.867L100.012 44.2471V47.911H103.268V50.841H100.012V55.2106C100.012 55.955 100.133 56.5459 100.379 56.9829C100.622 57.4266 101.11 57.6465 101.843 57.6465C102.201 57.6465 102.561 57.6121 102.941 57.5392C103.309 57.4651 103.653 57.3698 103.963 57.2452L104.429 59.9897C104.03 60.1606 103.59 60.3089 103.105 60.4346C102.618 60.5591 102.02 60.624 101.314 60.624C100.416 60.624 99.6738 60.4931 99.0837 60.2334C98.4967 59.9738 98.0246 59.6094 97.6727 59.1445C97.3209 58.6836 97.0735 58.1181 96.9346 57.4558C96.7932 56.7948 96.7218 56.0648 96.7218 55.2596V44.867Z" fill="#03435F"/>
<mask id="mask2_291_6496" style="mask-type:luminance" maskUnits="userSpaceOnUse" x="96" y="44" width="9" height="17">
<path d="M96.722 44.867L100.013 44.2471V47.911H103.269V50.841H100.013V55.2106C100.013 55.9552 100.133 56.5459 100.379 56.9829C100.622 57.4268 101.11 57.6465 101.843 57.6465C102.201 57.6465 102.561 57.6121 102.941 57.5392C103.309 57.4651 103.654 57.3698 103.963 57.2454L104.429 59.9897C104.03 60.1608 103.59 60.3091 103.105 60.4349C102.618 60.5593 102.02 60.624 101.314 60.624C100.416 60.624 99.6737 60.4931 99.0839 60.2334C98.4966 59.9738 98.0244 59.6094 97.6727 59.1447C97.3208 58.6836 97.0736 58.1181 96.9348 57.4558C96.7931 56.7948 96.722 56.0651 96.722 55.2596V44.867Z" fill="white"/>
</mask>
<g mask="url(#mask2_291_6496)">
<path fill-rule="evenodd" clip-rule="evenodd" d="M-81.7077 95.3174L381.894 95.3174L381.894 -561.451H-81.7077L-81.7077 95.3174Z" fill="#03435F"/>
</g>
<mask id="mask3_291_6496" style="mask-type:luminance" maskUnits="userSpaceOnUse" x="96" y="44" width="9" height="17">
<path d="M96.722 44.867L100.013 44.2471V47.911H103.269V50.841H100.013V55.2106C100.013 55.9552 100.133 56.5459 100.379 56.9829C100.622 57.4268 101.11 57.6465 101.843 57.6465C102.201 57.6465 102.561 57.6121 102.941 57.5392C103.309 57.4651 103.654 57.3698 103.963 57.2454L104.429 59.9897C104.03 60.1608 103.59 60.3091 103.105 60.4349C102.618 60.5593 102.02 60.624 101.314 60.624C100.416 60.624 99.6737 60.4931 99.0839 60.2334C98.4966 59.9738 98.0244 59.6094 97.6727 59.1447C97.3208 58.6836 97.0736 58.1181 96.9348 57.4558C96.7931 56.7948 96.722 56.0651 96.722 55.2596V44.867Z" fill="white"/>
</mask>
<g mask="url(#mask3_291_6496)">
<path fill-rule="evenodd" clip-rule="evenodd" d="M91.2026 66.1431H109.947V38.7278H91.2026V66.1431Z" fill="#03435F"/>
</g>
<path fill-rule="evenodd" clip-rule="evenodd" d="M130.472 57.8787C131.073 57.8787 131.499 57.8123 131.752 57.6878C132.003 57.5621 132.125 57.3158 132.125 56.9555C132.125 56.6707 131.966 56.423 131.641 56.2124C131.315 55.9979 130.826 55.7595 130.162 55.4878C129.648 55.2825 129.179 55.0708 128.758 54.8522C128.341 54.6297 127.984 54.37 127.689 54.0613C127.395 53.7542 127.168 53.3858 127.004 52.9567C126.84 52.5354 126.762 52.0255 126.762 51.4241C126.762 50.2597 127.168 49.3364 127.976 48.6596C128.785 47.9854 129.894 47.6411 131.309 47.6411C132.016 47.6411 132.694 47.7086 133.342 47.8451C133.988 47.9775 134.506 48.1286 134.885 48.2808L134.312 51.0225C133.929 50.8809 133.512 50.7564 133.064 50.6479C132.615 50.5367 132.11 50.4783 131.552 50.4783C130.522 50.4783 130.006 50.7882 130.006 51.4015C130.006 51.5432 130.029 51.6691 130.073 51.779C130.118 51.8903 130.206 51.9963 130.335 52.0982C130.472 52.199 130.649 52.3127 130.879 52.4294C131.108 52.5526 131.399 52.6796 131.752 52.8241C132.47 53.1102 133.066 53.3883 133.537 53.6693C134.009 53.95 134.38 54.2456 134.654 54.5738C134.926 54.8945 135.119 55.2496 135.228 55.6441C135.336 56.0376 135.393 56.4918 135.393 57.0099C135.393 58.2377 134.962 59.1661 134.103 59.794C133.241 60.4193 132.022 60.7344 130.446 60.7344C129.417 60.7344 128.56 60.643 127.877 60.4511C127.19 60.2643 126.717 60.1028 126.452 59.9782L127.004 57.1197C127.561 57.3555 128.14 57.5382 128.725 57.6762C129.317 57.8112 129.894 57.8787 130.472 57.8787Z" fill="#03435F"/>
<mask id="mask4_291_6496" style="mask-type:luminance" maskUnits="userSpaceOnUse" x="126" y="47" width="10" height="14">
<path d="M127.976 48.6598C128.785 47.9855 129.894 47.6411 131.309 47.6411C132.017 47.6411 132.694 47.7086 133.342 47.8451C133.988 47.9775 134.506 48.1284 134.885 48.2808L134.313 51.0225C133.929 50.8809 133.512 50.7564 133.064 50.6479C132.616 50.5365 132.11 50.4785 131.552 50.4785C130.522 50.4785 130.006 50.788 130.006 51.4015C130.006 51.5432 130.028 51.6691 130.073 51.779C130.119 51.8903 130.206 51.9963 130.336 52.0982C130.471 52.199 130.649 52.3127 130.879 52.4294C131.108 52.5524 131.399 52.6798 131.752 52.8241C132.47 53.1102 133.067 53.3883 133.537 53.6693C134.01 53.95 134.38 54.2453 134.654 54.5738C134.926 54.8945 135.119 55.2494 135.228 55.6441C135.336 56.0376 135.393 56.4918 135.393 57.0099C135.393 58.2377 134.962 59.1663 134.104 59.794C133.241 60.4193 132.022 60.7344 130.447 60.7344C129.418 60.7344 128.561 60.643 127.877 60.4511C127.19 60.2643 126.717 60.1028 126.452 59.9782L127.004 57.1197C127.561 57.3557 128.14 57.5382 128.725 57.6762C129.317 57.811 129.894 57.8787 130.471 57.8787C131.073 57.8787 131.499 57.8125 131.752 57.6878C132.003 57.5621 132.125 57.3158 132.125 56.9555C132.125 56.6707 131.966 56.423 131.641 56.2124C131.315 55.9979 130.826 55.7595 130.162 55.4878C129.648 55.2825 129.18 55.0708 128.757 54.8522C128.341 54.6297 127.984 54.37 127.689 54.0613C127.395 53.754 127.168 53.3858 127.004 52.9567C126.84 52.5352 126.762 52.0255 126.762 51.4241C126.762 50.2599 127.168 49.3367 127.976 48.6598Z" fill="white"/>
</mask>
<g mask="url(#mask4_291_6496)">
<path fill-rule="evenodd" clip-rule="evenodd" d="M-81.7076 95.3174L381.894 95.3174L381.894 -561.451H-81.7076L-81.7076 95.3174Z" fill="#03435F"/>
</g>
<mask id="mask5_291_6496" style="mask-type:luminance" maskUnits="userSpaceOnUse" x="126" y="47" width="10" height="14">
<path d="M127.976 48.6598C128.785 47.9855 129.894 47.6411 131.309 47.6411C132.017 47.6411 132.694 47.7086 133.342 47.8451C133.988 47.9775 134.506 48.1284 134.885 48.2808L134.313 51.0225C133.929 50.8809 133.512 50.7564 133.064 50.6479C132.616 50.5365 132.11 50.4785 131.552 50.4785C130.522 50.4785 130.006 50.788 130.006 51.4015C130.006 51.5432 130.028 51.6691 130.073 51.779C130.119 51.8903 130.206 51.9963 130.336 52.0982C130.471 52.199 130.649 52.3127 130.879 52.4294C131.108 52.5524 131.399 52.6798 131.752 52.8241C132.47 53.1102 133.067 53.3883 133.537 53.6693C134.01 53.95 134.38 54.2453 134.654 54.5738C134.926 54.8945 135.119 55.2494 135.228 55.6441C135.336 56.0376 135.393 56.4918 135.393 57.0099C135.393 58.2377 134.962 59.1663 134.104 59.794C133.241 60.4193 132.022 60.7344 130.447 60.7344C129.418 60.7344 128.561 60.643 127.877 60.4511C127.19 60.2643 126.717 60.1028 126.452 59.9782L127.004 57.1197C127.561 57.3557 128.14 57.5382 128.725 57.6762C129.317 57.811 129.894 57.8787 130.471 57.8787C131.073 57.8787 131.499 57.8125 131.752 57.6878C132.003 57.5621 132.125 57.3158 132.125 56.9555C132.125 56.6707 131.966 56.423 131.641 56.2124C131.315 55.9979 130.826 55.7595 130.162 55.4878C129.648 55.2825 129.18 55.0708 128.757 54.8522C128.341 54.6297 127.984 54.37 127.689 54.0613C127.395 53.754 127.168 53.3858 127.004 52.9567C126.84 52.5352 126.762 52.0255 126.762 51.4241C126.762 50.2599 127.168 49.3367 127.976 48.6598Z" fill="white"/>
</mask>
<g mask="url(#mask5_291_6496)">
<path fill-rule="evenodd" clip-rule="evenodd" d="M120.933 66.2534H140.912V42.1218H120.933V66.2534Z" fill="#03435F"/>
</g>
<path fill-rule="evenodd" clip-rule="evenodd" d="M145.535 53.2671C145.24 54.4646 144.929 55.6567 144.597 56.8355C144.266 58.0184 143.914 59.208 143.551 60.4053H140.989C140.723 59.743 140.434 58.9563 140.124 58.0436C139.812 57.127 139.493 56.1322 139.159 55.0501C138.828 53.9717 138.489 52.8301 138.143 51.622C137.795 50.4194 137.458 49.2034 137.135 47.9728H140.603C140.718 48.5383 140.849 49.1597 140.99 49.8285C141.131 50.4987 141.279 51.1889 141.433 51.8989C141.588 52.6063 141.754 53.3174 141.923 54.0353C142.093 54.7533 142.268 55.4407 142.445 56.1019C142.637 55.4091 142.825 54.7017 143.009 53.9771C143.19 53.2514 143.368 52.5386 143.539 51.838C143.707 51.1386 143.872 50.4591 144.023 49.8048C144.176 49.1516 144.313 48.5383 144.433 47.9728H146.815C146.937 48.5383 147.065 49.1516 147.214 49.8048C147.36 50.4591 147.515 51.1386 147.679 51.838C147.837 52.5386 148.011 53.2514 148.184 53.9771C148.362 54.7017 148.545 55.4091 148.734 56.1019C148.913 55.4407 149.09 54.7533 149.268 54.0353C149.447 53.3174 149.615 52.6063 149.768 51.8989C149.922 51.1889 150.07 50.4987 150.213 49.8285C150.354 49.1597 150.483 48.5383 150.6 47.9728H154.023C153.698 49.2034 153.363 50.4194 153.015 51.622C152.665 52.8301 152.33 53.9717 151.996 55.0501C151.666 56.1322 151.341 57.127 151.025 58.0436C150.706 58.9563 150.412 59.743 150.151 60.4053H147.589C147.218 59.208 146.859 58.0184 146.504 56.8355C146.151 55.6567 145.831 54.4646 145.535 53.2671Z" fill="#03435F"/>
<mask id="mask6_291_6496" style="mask-type:luminance" maskUnits="userSpaceOnUse" x="137" y="47" width="18" height="14">
<path d="M150.6 47.9728H154.023C153.698 49.2034 153.363 50.4194 153.015 51.6218C152.665 52.8301 152.33 53.9719 151.995 55.0501C151.666 56.1322 151.341 57.127 151.024 58.0436C150.706 58.9563 150.412 59.7428 150.15 60.4053H147.589C147.218 59.208 146.859 58.0182 146.504 56.8353C146.151 55.6567 145.831 54.4646 145.535 53.2671C145.24 54.4646 144.929 55.6567 144.597 56.8353C144.266 58.0182 143.914 59.208 143.551 60.4053H140.989C140.723 59.7428 140.433 58.9563 140.124 58.0436C139.812 57.127 139.493 56.1322 139.159 55.0501C138.828 53.9719 138.489 52.8301 138.143 51.6218C137.795 50.4194 137.458 49.2034 137.135 47.9728H140.603C140.718 48.5383 140.849 49.1595 140.99 49.8285C141.131 50.4987 141.278 51.1889 141.433 51.8987C141.588 52.6061 141.754 53.3174 141.923 54.0353C142.093 54.7533 142.268 55.4407 142.445 56.1019C142.637 55.4091 142.825 54.7015 143.008 53.9771C143.19 53.2514 143.368 52.5386 143.539 51.838C143.707 51.1384 143.872 50.4589 144.023 49.8048C144.176 49.1516 144.313 48.5383 144.433 47.9728H146.815C146.936 48.5383 147.065 49.1516 147.214 49.8048C147.36 50.4589 147.515 51.1384 147.678 51.838C147.837 52.5386 148.01 53.2514 148.184 53.9771C148.362 54.7015 148.545 55.4091 148.734 56.1019C148.913 55.4407 149.09 54.7533 149.268 54.0353C149.447 53.3174 149.615 52.6061 149.768 51.8987C149.922 51.1889 150.07 50.4987 150.213 49.8285C150.354 49.1595 150.483 48.5383 150.6 47.9728Z" fill="white"/>
</mask>
<g mask="url(#mask6_291_6496)">
<path fill-rule="evenodd" clip-rule="evenodd" d="M-81.7078 95.3174L381.894 95.3174L381.894 -561.451H-81.7078L-81.7078 95.3174Z" fill="#03435F"/>
</g>
<mask id="mask7_291_6496" style="mask-type:luminance" maskUnits="userSpaceOnUse" x="137" y="47" width="18" height="14">
<path d="M150.6 47.9728H154.023C153.698 49.2034 153.363 50.4194 153.015 51.6218C152.665 52.8301 152.33 53.9719 151.995 55.0501C151.666 56.1322 151.341 57.127 151.024 58.0436C150.706 58.9563 150.412 59.7428 150.15 60.4053H147.589C147.218 59.208 146.859 58.0182 146.504 56.8353C146.151 55.6567 145.831 54.4646 145.535 53.2671C145.24 54.4646 144.929 55.6567 144.597 56.8353C144.266 58.0182 143.914 59.208 143.551 60.4053H140.989C140.723 59.7428 140.433 58.9563 140.124 58.0436C139.812 57.127 139.493 56.1322 139.159 55.0501C138.828 53.9719 138.489 52.8301 138.143 51.6218C137.795 50.4194 137.458 49.2034 137.135 47.9728H140.603C140.718 48.5383 140.849 49.1595 140.99 49.8285C141.131 50.4987 141.278 51.1889 141.433 51.8987C141.588 52.6061 141.754 53.3174 141.923 54.0353C142.093 54.7533 142.268 55.4407 142.445 56.1019C142.637 55.4091 142.825 54.7015 143.008 53.9771C143.19 53.2514 143.368 52.5386 143.539 51.838C143.707 51.1384 143.872 50.4589 144.023 49.8048C144.176 49.1516 144.313 48.5383 144.433 47.9728H146.815C146.936 48.5383 147.065 49.1516 147.214 49.8048C147.36 50.4589 147.515 51.1384 147.678 51.838C147.837 52.5386 148.01 53.2514 148.184 53.9771C148.362 54.7015 148.545 55.4091 148.734 56.1019C148.913 55.4407 149.09 54.7533 149.268 54.0353C149.447 53.3174 149.615 52.6061 149.768 51.8987C149.922 51.1889 150.07 50.4987 150.213 49.8285C150.354 49.1595 150.483 48.5383 150.6 47.9728Z" fill="white"/>
</mask>
<g mask="url(#mask7_291_6496)">
<path fill-rule="evenodd" clip-rule="evenodd" d="M131.616 65.9243H159.542V42.4536H131.616V65.9243Z" fill="#03435F"/>
</g>
<path fill-rule="evenodd" clip-rule="evenodd" d="M156.349 60.4004H159.634V47.9705H156.349V60.4004Z" fill="#03435F"/>
<mask id="mask8_291_6496" style="mask-type:luminance" maskUnits="userSpaceOnUse" x="156" y="47" width="4" height="14">
<path d="M156.349 60.4009V47.971H159.635V60.4009H156.349Z" fill="white"/>
</mask>
<g mask="url(#mask8_291_6496)">
<path fill-rule="evenodd" clip-rule="evenodd" d="M-81.7076 95.3174L381.894 95.3174L381.894 -561.451H-81.7076L-81.7076 95.3174Z" fill="#03435F"/>
</g>
<mask id="mask9_291_6496" style="mask-type:luminance" maskUnits="userSpaceOnUse" x="156" y="47" width="4" height="14">
<path d="M156.349 60.4009V47.971H159.635V60.4009H156.349Z" fill="white"/>
</mask>
<g mask="url(#mask9_291_6496)">
<path fill-rule="evenodd" clip-rule="evenodd" d="M150.83 65.9199H165.153V42.4517H150.83V65.9199Z" fill="#03435F"/>
</g>
<path fill-rule="evenodd" clip-rule="evenodd" d="M162.248 44.8709L165.536 44.2471V47.977H168.789V50.9017H165.536V55.2756C165.536 56.0159 165.657 56.6121 165.899 57.0479C166.141 57.4889 166.632 57.7101 167.366 57.7101C167.722 57.7101 168.087 57.6783 168.46 57.6055C168.837 57.5339 169.178 57.432 169.489 57.3088L169.951 60.0508C169.552 60.2253 169.109 60.3738 168.627 60.5009C168.138 60.6254 167.548 60.689 166.838 60.689C165.939 60.689 165.197 60.5594 164.609 60.2969C164.019 60.0413 163.548 59.6798 163.196 59.2107C162.844 58.7499 162.598 58.1815 162.457 57.5234C162.314 56.8598 162.248 56.1259 162.248 55.3244V44.8709Z" fill="#03435F"/>
<mask id="mask10_291_6496" style="mask-type:luminance" maskUnits="userSpaceOnUse" x="162" y="44" width="8" height="17">
<path d="M162.248 44.8709L165.536 44.2471V47.977H168.789V50.9017H165.536V55.2756C165.536 56.0159 165.658 56.6119 165.9 57.0479C166.142 57.4889 166.632 57.7099 167.366 57.7099C167.722 57.7099 168.087 57.6783 168.46 57.6055C168.837 57.5337 169.178 57.432 169.489 57.3088L169.951 60.0506C169.553 60.2253 169.109 60.3738 168.627 60.5009C168.139 60.6254 167.548 60.689 166.838 60.689C165.939 60.689 165.197 60.5594 164.609 60.2969C164.019 60.0411 163.548 59.6798 163.196 59.2109C162.844 58.7499 162.599 58.1818 162.457 57.5234C162.314 56.8598 162.248 56.1257 162.248 55.3246V44.8709Z" fill="white"/>
</mask>
<g mask="url(#mask10_291_6496)">
<path fill-rule="evenodd" clip-rule="evenodd" d="M-81.7077 95.3174L381.894 95.3174L381.894 -561.451H-81.7077L-81.7077 95.3174Z" fill="#03435F"/>
</g>
<mask id="mask11_291_6496" style="mask-type:luminance" maskUnits="userSpaceOnUse" x="162" y="44" width="8" height="17">
<path d="M162.248 44.8709L165.536 44.2471V47.977H168.789V50.9017H165.536V55.2756C165.536 56.0159 165.658 56.6119 165.9 57.0479C166.142 57.4889 166.632 57.7099 167.366 57.7099C167.722 57.7099 168.087 57.6783 168.46 57.6055C168.837 57.5337 169.178 57.432 169.489 57.3088L169.951 60.0506C169.553 60.2253 169.109 60.3738 168.627 60.5009C168.139 60.6254 167.548 60.689 166.838 60.689C165.939 60.689 165.197 60.5594 164.609 60.2969C164.019 60.0411 163.548 59.6798 163.196 59.2109C162.844 58.7499 162.599 58.1818 162.457 57.5234C162.314 56.8598 162.248 56.1257 162.248 55.3246V44.8709Z" fill="white"/>
</mask>
<g mask="url(#mask11_291_6496)">
<path fill-rule="evenodd" clip-rule="evenodd" d="M156.729 66.208H175.47V38.7278H156.729V66.208Z" fill="#03435F"/>
</g>
<path fill-rule="evenodd" clip-rule="evenodd" d="M171.113 54.1921C171.113 53.2925 171.249 52.445 171.521 51.6503C171.794 50.8528 172.187 50.1615 172.701 49.5693C173.217 48.9773 173.841 48.5109 174.579 48.1627C175.313 47.8196 176.152 47.642 177.093 47.642C177.711 47.642 178.278 47.7044 178.794 47.8209C179.31 47.9415 179.813 48.1098 180.295 48.3282L179.613 51.1404C179.302 51.0157 178.965 50.9072 178.595 50.8092C178.227 50.7163 177.813 50.6675 177.358 50.6675C176.387 50.6675 175.661 50.9919 175.186 51.6383C174.703 52.2861 174.468 53.1352 174.468 54.1921C174.468 55.3086 174.692 56.1761 175.144 56.7909C175.588 57.4042 176.374 57.7129 177.492 57.7129C177.89 57.7129 178.314 57.6716 178.773 57.5935C179.228 57.514 179.647 57.3896 180.034 57.2148L180.494 60.0997C180.11 60.2732 179.634 60.4189 179.06 60.5472C178.484 60.6721 177.852 60.7368 177.162 60.7368C176.103 60.7368 175.188 60.5646 174.424 60.2267C173.66 59.8891 173.029 59.428 172.537 58.8452C172.041 58.2612 171.684 57.5725 171.455 56.7776C171.226 55.9816 171.113 55.1181 171.113 54.1921Z" fill="#03435F"/>
<mask id="mask12_291_6496" style="mask-type:luminance" maskUnits="userSpaceOnUse" x="171" y="47" width="10" height="14">
<path d="M174.579 48.1627C175.313 47.8196 176.152 47.642 177.093 47.642C177.711 47.642 178.278 47.7042 178.794 47.8207C179.31 47.9415 179.813 48.1096 180.295 48.3282L179.613 51.1402C179.302 51.0157 178.965 50.9072 178.594 50.8092C178.227 50.7161 177.813 50.6673 177.358 50.6673C176.387 50.6673 175.661 50.9919 175.186 51.6383C174.703 52.2859 174.468 53.135 174.468 54.1921C174.468 55.3086 174.692 56.1761 175.144 56.7909C175.588 57.4042 176.374 57.7129 177.491 57.7129C177.89 57.7129 178.314 57.6716 178.773 57.5935C179.228 57.514 179.647 57.3896 180.033 57.2146L180.494 60.0997C180.11 60.2732 179.634 60.4187 179.06 60.5472C178.484 60.6719 177.853 60.7368 177.162 60.7368C176.102 60.7368 175.188 60.5644 174.424 60.2265C173.66 59.8888 173.029 59.428 172.537 58.8454C172.041 58.2612 171.684 57.5725 171.455 56.7776C171.226 55.9816 171.113 55.1179 171.113 54.1921C171.113 53.2925 171.249 52.445 171.521 51.6503C171.794 50.8528 172.187 50.1613 172.701 49.5691C173.217 48.9771 173.841 48.5109 174.579 48.1627Z" fill="white"/>
</mask>
<g mask="url(#mask12_291_6496)">
<path fill-rule="evenodd" clip-rule="evenodd" d="M-81.7078 95.3174L381.894 95.3174L381.894 -561.451H-81.7078L-81.7078 95.3174Z" fill="#03435F"/>
</g>
<mask id="mask13_291_6496" style="mask-type:luminance" maskUnits="userSpaceOnUse" x="171" y="47" width="10" height="14">
<path d="M174.579 48.1627C175.313 47.8196 176.152 47.642 177.093 47.642C177.711 47.642 178.278 47.7042 178.794 47.8207C179.31 47.9415 179.813 48.1096 180.295 48.3282L179.613 51.1402C179.302 51.0157 178.965 50.9072 178.594 50.8092C178.227 50.7161 177.813 50.6673 177.358 50.6673C176.387 50.6673 175.661 50.9919 175.186 51.6383C174.703 52.2859 174.468 53.135 174.468 54.1921C174.468 55.3086 174.692 56.1761 175.144 56.7909C175.588 57.4042 176.374 57.7129 177.491 57.7129C177.89 57.7129 178.314 57.6716 178.773 57.5935C179.228 57.514 179.647 57.3896 180.033 57.2146L180.494 60.0997C180.11 60.2732 179.634 60.4187 179.06 60.5472C178.484 60.6719 177.853 60.7368 177.162 60.7368C176.102 60.7368 175.188 60.5644 174.424 60.2265C173.66 59.8888 173.029 59.428 172.537 58.8454C172.041 58.2612 171.684 57.5725 171.455 56.7776C171.226 55.9816 171.113 55.1179 171.113 54.1921C171.113 53.2925 171.249 52.445 171.521 51.6503C171.794 50.8528 172.187 50.1613 172.701 49.5691C173.217 48.9771 173.841 48.5109 174.579 48.1627Z" fill="white"/>
</mask>
<g mask="url(#mask13_291_6496)">
<path fill-rule="evenodd" clip-rule="evenodd" d="M165.594 66.2559H186.013V42.1227H165.594V66.2559Z" fill="#03435F"/>
</g>
<path fill-rule="evenodd" clip-rule="evenodd" d="M182.62 60.4009V44.8661L185.909 44.2477V48.0228C186.128 47.9445 186.41 47.8691 186.759 47.7977C187.103 47.7274 187.44 47.6902 187.763 47.6902C188.703 47.6902 189.485 47.8293 190.112 48.1036C190.736 48.3791 191.24 48.7699 191.613 49.2744C191.991 49.7766 192.253 50.3778 192.411 51.068C192.563 51.7632 192.639 52.537 192.639 53.3874V60.4009H189.351V53.8097C189.351 52.6758 189.215 51.8732 188.944 51.3977C188.672 50.93 188.166 50.6931 187.432 50.6931C187.134 50.6931 186.861 50.7211 186.602 50.7739C186.345 50.8296 186.114 50.8904 185.909 50.9528V60.4009H182.62Z" fill="#03435F"/>
<mask id="mask14_291_6496" style="mask-type:luminance" maskUnits="userSpaceOnUse" x="182" y="44" width="11" height="17">
<path d="M182.62 44.8661L185.909 44.2477V48.023C186.128 47.9445 186.41 47.8691 186.759 47.7977C187.103 47.7274 187.44 47.6904 187.763 47.6904C188.703 47.6904 189.485 47.8295 190.112 48.1036C190.736 48.3794 191.24 48.7699 191.613 49.2746C191.991 49.7766 192.253 50.3778 192.411 51.0682C192.563 51.7634 192.639 52.537 192.639 53.3876V60.4009H189.351V53.8097C189.351 52.6761 189.215 51.8732 188.944 51.3977C188.672 50.9302 188.166 50.6931 187.432 50.6931C187.134 50.6931 186.861 50.7211 186.602 50.7741C186.345 50.8296 186.114 50.8904 185.909 50.9528V60.4009H182.62V44.8661Z" fill="white"/>
</mask>
<g mask="url(#mask14_291_6496)">
<path fill-rule="evenodd" clip-rule="evenodd" d="M-81.7078 95.3174L381.894 95.3174L381.894 -561.451H-81.7078L-81.7078 95.3174Z" fill="#03435F"/>
</g>
<mask id="mask15_291_6496" style="mask-type:luminance" maskUnits="userSpaceOnUse" x="182" y="44" width="11" height="17">
<path d="M182.62 44.8661L185.909 44.2477V48.023C186.128 47.9445 186.41 47.8691 186.759 47.7977C187.103 47.7274 187.44 47.6904 187.763 47.6904C188.703 47.6904 189.485 47.8295 190.112 48.1036C190.736 48.3794 191.24 48.7699 191.613 49.2746C191.991 49.7766 192.253 50.3778 192.411 51.0682C192.563 51.7634 192.639 52.537 192.639 53.3876V60.4009H189.351V53.8097C189.351 52.6761 189.215 51.8732 188.944 51.3977C188.672 50.9302 188.166 50.6931 187.432 50.6931C187.134 50.6931 186.861 50.7211 186.602 50.7741C186.345 50.8296 186.114 50.8904 185.909 50.9528V60.4009H182.62V44.8661Z" fill="white"/>
</mask>
<g mask="url(#mask15_291_6496)">
<path fill-rule="evenodd" clip-rule="evenodd" d="M177.1 65.9199H198.158V38.7283H177.1V65.9199Z" fill="#03435F"/>
</g>
<path fill-rule="evenodd" clip-rule="evenodd" d="M83.4526 60.4053V49.141C83.4526 49.141 85.1058 47.7277 88.7217 47.7277C92.0123 47.7277 93.8192 49.4882 93.8192 53.3625V60.4053H90.5325V53.3625C90.5325 50.8948 89.3791 50.7239 88.3937 50.7239C87.4084 50.7239 86.7485 51.2484 86.7485 51.2484V60.4053H83.4526Z" fill="#03435F"/>
<mask id="mask16_291_6496" style="mask-type:luminance" maskUnits="userSpaceOnUse" x="83" y="47" width="11" height="14">
<path d="M83.4526 49.141C83.4526 49.141 85.1058 47.7277 88.7218 47.7277C92.0123 47.7277 93.819 49.488 93.819 53.3627V60.4053H90.5326V53.3627C90.5326 50.8946 89.3791 50.7239 88.3938 50.7239C87.4084 50.7239 86.7485 51.2486 86.7485 51.2486V60.4053H83.4526V49.141Z" fill="white"/>
</mask>
<g mask="url(#mask16_291_6496)">
<path fill-rule="evenodd" clip-rule="evenodd" d="M-81.7077 95.3174L381.894 95.3174L381.894 -561.451H-81.7077L-81.7077 95.3174Z" fill="#03435F"/>
</g>
<mask id="mask17_291_6496" style="mask-type:luminance" maskUnits="userSpaceOnUse" x="83" y="47" width="11" height="14">
<path d="M83.4526 49.141C83.4526 49.141 85.1058 47.7277 88.7218 47.7277C92.0123 47.7277 93.819 49.488 93.819 53.3627V60.4053H90.5326V53.3627C90.5326 50.8946 89.3791 50.7239 88.3938 50.7239C87.4084 50.7239 86.7485 51.2486 86.7485 51.2486V60.4053H83.4526V49.141Z" fill="white"/>
</mask>
<g mask="url(#mask17_291_6496)">
<path fill-rule="evenodd" clip-rule="evenodd" d="M77.9338 65.9243H99.3381V42.2086H77.9338V65.9243Z" fill="#03435F"/>
</g>
<path fill-rule="evenodd" clip-rule="evenodd" d="M77.2603 60.4053V44.8679L80.5508 44.2479V60.4053H77.2603Z" fill="#03435F"/>
<mask id="mask18_291_6496" style="mask-type:luminance" maskUnits="userSpaceOnUse" x="77" y="44" width="4" height="17">
<path d="M77.2603 44.8681L80.5508 44.2479V60.4053H77.2603V44.8681Z" fill="white"/>
</mask>
<g mask="url(#mask18_291_6496)">
<path fill-rule="evenodd" clip-rule="evenodd" d="M-81.7077 95.3174L381.894 95.3174L381.894 -561.451H-81.7077L-81.7077 95.3174Z" fill="#03435F"/>
</g>
<mask id="mask19_291_6496" style="mask-type:luminance" maskUnits="userSpaceOnUse" x="77" y="44" width="4" height="17">
<path d="M77.2603 44.8681L80.5508 44.2479V60.4053H77.2603V44.8681Z" fill="white"/>
</mask>
<g mask="url(#mask19_291_6496)">
<path fill-rule="evenodd" clip-rule="evenodd" d="M71.7411 65.9243H86.0699V38.7288H71.7411V65.9243Z" fill="#03435F"/>
</g>
<path fill-rule="evenodd" clip-rule="evenodd" d="M116.116 55.0823H108.714C108.714 55.0823 108.88 57.7222 112.166 57.7222C113.812 57.7222 115.457 57.1962 115.457 57.1962L115.786 60.0162C115.786 60.0162 114.142 60.7144 111.841 60.7144C108.549 60.7144 105.589 58.9565 105.589 54.028C105.589 50.1522 107.89 47.6912 111.18 47.6912C116.116 47.6912 116.446 52.9655 116.116 55.0823ZM111.018 50.1522C108.88 50.1522 108.714 52.6158 108.714 52.6158H113.317C113.317 52.6158 113.156 50.1522 111.018 50.1522Z" fill="#03435F"/>
<mask id="mask20_291_6496" style="mask-type:luminance" maskUnits="userSpaceOnUse" x="105" y="47" width="12" height="14">
<path d="M105.589 54.0278C105.589 50.1519 107.891 47.6909 111.18 47.6909C116.116 47.6909 116.446 52.9655 116.116 55.0821H108.714C108.714 55.0821 108.88 57.722 112.166 57.722C113.812 57.722 115.457 57.196 115.457 57.196L115.786 60.016C115.786 60.016 114.142 60.7144 111.841 60.7144C108.549 60.7144 105.589 58.9565 105.589 54.0278ZM111.018 50.1519C108.88 50.1519 108.714 52.6158 108.714 52.6158H113.317C113.317 52.6158 113.156 50.1519 111.018 50.1519Z" fill="white"/>
</mask>
<g mask="url(#mask20_291_6496)">
<path fill-rule="evenodd" clip-rule="evenodd" d="M-81.7077 95.3174L381.894 95.3174L381.894 -561.451H-81.7077L-81.7077 95.3174Z" fill="#03435F"/>
</g>
<mask id="mask21_291_6496" style="mask-type:luminance" maskUnits="userSpaceOnUse" x="105" y="47" width="12" height="14">
<path d="M105.589 54.0278C105.589 50.1519 107.891 47.6909 111.18 47.6909C116.116 47.6909 116.446 52.9655 116.116 55.0821H108.714C108.714 55.0821 108.88 57.722 112.166 57.722C113.812 57.722 115.457 57.196 115.457 57.196L115.786 60.016C115.786 60.016 114.142 60.7144 111.841 60.7144C108.549 60.7144 105.589 58.9565 105.589 54.0278ZM111.018 50.1519C108.88 50.1519 108.714 52.6158 108.714 52.6158H113.317C113.317 52.6158 113.156 50.1519 111.018 50.1519Z" fill="white"/>
</mask>
<g mask="url(#mask21_291_6496)">
<path fill-rule="evenodd" clip-rule="evenodd" d="M100.07 66.2334H121.727V42.1719H100.07V66.2334Z" fill="#03435F"/>
</g>
<mask id="mask22_291_6496" style="mask-type:luminance" maskUnits="userSpaceOnUse" x="196" y="41" width="23" height="29">
<path d="M196.998 44.2508C196.998 43.4998 206.458 41.879 212.803 41.879C215.554 41.879 217.719 42.1838 218.273 42.9964C221.13 46.7688 201.019 70.4363 199.343 69.7184C197.999 69.3594 210.065 54.295 208.054 48.1955C207.05 44.9701 196.998 45.3288 196.998 44.2508Z" fill="white"/>
</mask>
<g mask="url(#mask22_291_6496)">
<path fill-rule="evenodd" clip-rule="evenodd" d="M191.479 75.2534H224.07V36.3599H191.479V75.2534Z" fill="#ED342B"/>
</g>
<mask id="mask23_291_6496" style="mask-type:luminance" maskUnits="userSpaceOnUse" x="214" y="30" width="9" height="10">
<path d="M214.085 34.9265C214.085 32.3503 216.036 30.2654 218.44 30.2654C220.847 30.2654 222.796 32.3503 222.796 34.9265C222.796 37.504 220.847 39.5889 218.44 39.5889C216.036 39.5889 214.085 37.504 214.085 34.9265Z" fill="white"/>
</mask>
<g mask="url(#mask23_291_6496)">
<path fill-rule="evenodd" clip-rule="evenodd" d="M208.566 45.1079H228.315V24.746H208.566V45.1079Z" fill="#ED342B"/>
</g>
</svg>
