<svg width="300" height="100" viewBox="0 0 300 100" fill="none" xmlns="http://www.w3.org/2000/svg">
<rect width="300" height="100" fill="white"/>
<g clip-path="url(#clip0_298_11649)">
<path d="M165.475 49.3382V48.9865V36.5069C165.482 35.6472 165.439 34.7879 165.347 33.9331C165.146 32.2387 164.251 31.4305 162.537 31.2812C161.718 31.21 160.9 31.1165 160.058 31.0313V30.4395H189.626V31.0481C189.103 31.0746 188.577 31.083 188.053 31.1332C187.657 31.175 187.263 31.2431 186.875 31.337C186.715 31.3645 186.571 31.4519 186.473 31.5815C186.375 31.7112 186.33 31.8733 186.348 32.0349C186.378 32.4383 186.408 32.8723 186.579 33.2297C186.974 34.042 187.445 34.8194 187.905 35.6025C188.797 37.1127 189.703 38.6131 190.622 40.1513C190.692 40.093 190.758 40.0296 190.82 39.9615C192.269 38.0604 193.735 36.1719 195.147 34.2388C195.476 33.7543 195.709 33.2107 195.833 32.6378C196.038 31.7864 195.614 31.2798 194.743 31.1974C193.984 31.1248 193.222 31.0718 192.436 31.0076V30.4409H202.991V31.0439C202.624 31.0662 202.251 31.0941 201.874 31.1123C200.142 31.1932 198.623 31.7585 197.473 33.1068C195.99 34.8441 194.517 36.5902 193.054 38.3452C192.45 39.0682 191.878 39.8177 191.272 40.5393C191.099 40.7459 191.088 40.8841 191.23 41.113C193.691 45.077 196.135 49.0409 198.601 52.9966C199.578 54.564 200.608 56.098 201.608 57.6515C202.512 59.0584 203.83 59.6977 205.464 59.7702C205.675 59.78 205.883 59.8149 206.109 59.84V60.4458H187.131V59.8414C187.621 59.8191 188.108 59.8177 188.602 59.766C188.964 59.7344 189.321 59.659 189.665 59.5413C190.208 59.3431 190.483 58.8895 190.319 58.3326C190.139 57.6647 189.878 57.0215 189.541 56.4176C187.984 53.7977 186.378 51.2058 184.796 48.6013C184.772 48.5622 184.74 48.5273 184.691 48.4617C184.215 49.0758 183.742 49.6704 183.285 50.2762C181.672 52.4215 180.054 54.564 178.464 56.7288C178.185 57.1216 177.974 57.5585 177.839 58.0213C177.56 58.9342 178.022 59.5567 178.956 59.6334C179.793 59.7046 180.643 59.773 181.506 59.8456V60.4416H170.231V59.8596C170.76 59.8358 171.284 59.8079 171.811 59.7898C173.842 59.72 175.369 58.7332 176.626 57.2048C179.103 54.1937 181.593 51.1928 184.095 48.2021C184.3 47.9564 184.299 47.7959 184.135 47.5377C181.429 43.2192 178.749 38.8839 176.023 34.578C175.484 33.7083 174.848 32.9029 174.126 32.1772C173.128 31.2002 171.809 31.0536 170.467 31.1541C170.009 31.189 169.554 31.2574 169.099 31.3161C167.609 31.5101 166.716 32.3057 166.489 33.8047C166.367 34.7398 166.315 35.6827 166.334 36.6256C166.322 44.4149 166.322 52.2047 166.334 59.995V60.4751H161.638C161.535 60.4821 161.432 60.4621 161.339 60.417C161.246 60.372 161.166 60.3035 161.108 60.2183C155.407 52.923 149.703 45.6301 143.996 38.3396C143.299 37.4491 142.601 36.5586 141.902 35.6681C141.834 35.5815 141.763 35.5006 141.631 35.3596C141.61 35.4605 141.595 35.5626 141.585 35.6653C141.585 42.123 141.59 48.5808 141.601 55.0386C141.585 55.8637 141.654 56.6882 141.806 57.4993C142.085 58.8072 142.908 59.4534 144.236 59.5679C144.694 59.6097 145.149 59.6683 145.605 59.7074C146.062 59.7465 146.518 59.7898 147.001 59.833V60.4458H135.158V59.8721C135.856 59.7954 136.572 59.7325 137.278 59.6362C137.792 59.5706 138.302 59.4869 138.813 59.3934C139.13 59.343 139.428 59.2087 139.676 59.0042C139.924 58.7997 140.112 58.5326 140.222 58.2307C140.429 57.7076 140.57 57.1603 140.64 56.6018C140.71 55.8629 140.738 55.1205 140.723 54.3784C140.728 48.3096 140.728 42.2403 140.723 36.1705C140.723 35.488 140.682 34.8041 140.657 34.1216C140.658 34.0399 140.637 33.9596 140.597 33.8885C139.721 32.5848 138.671 31.4794 137.052 31.1765C136.365 31.0481 135.645 31.0969 134.94 31.0648H134.742V30.4214H150.139C150.247 30.414 150.355 30.435 150.453 30.4822C150.551 30.5294 150.635 30.6013 150.697 30.6907C155.494 36.8238 160.295 42.9535 165.1 49.08C165.188 49.1917 165.291 49.2908 165.387 49.3955L165.475 49.3382Z" fill="#4D4D4D"/>
<path d="M121.894 46.3126C122.627 45.1638 123.408 43.9607 124.165 42.7436C125.922 39.9171 129.725 40.153 131.611 41.4874C133.297 42.6766 134.184 44.2789 134.372 46.3098C134.687 49.6973 133.547 52.6494 131.639 55.3655C130.314 57.2512 128.741 58.8703 126.625 59.8711C124.751 60.7588 122.787 61.1189 120.72 60.7672C120.57 60.739 120.422 60.7017 120.276 60.6555C118.671 60.1754 118.023 59.3337 117.967 57.6546C117.972 57.5452 117.951 57.4363 117.906 57.3364C117.895 57.3685 117.887 57.402 117.874 57.4327C116.618 60.4727 115.352 63.5085 114.105 66.5526C113.905 67.0425 113.744 67.5475 113.624 68.0629C113.476 68.691 113.597 69.2325 114.461 69.2744C115.325 69.3163 116.199 69.3735 117.092 69.4251V70.0058H101.358V69.407C101.951 69.3344 102.551 69.2493 103.154 69.1906C104.131 69.0957 104.937 68.6658 105.387 67.7949C106.085 66.4745 106.755 65.1429 107.341 63.7681C109.981 57.5234 112.599 51.2689 115.195 45.0047C115.462 44.33 115.688 43.6402 115.874 42.939C115.973 42.5928 115.949 42.1964 115.628 41.9703C115.307 41.7442 114.93 41.867 114.666 42.075C114.108 42.5133 113.523 42.9585 113.056 43.4917C111.733 44.9817 110.623 46.6466 109.755 48.4397C109.735 48.4816 109.706 48.5193 109.665 48.5793L109.107 48.3783C109.378 47.8647 109.626 47.3664 109.899 46.8806C110.811 45.2532 111.819 43.6871 113.149 42.3667C114.558 40.9709 116.252 40.3121 118.255 40.5983C120.192 40.8774 121.405 42.0555 121.708 44.0235C121.827 44.7982 121.839 45.6063 121.894 46.3126ZM118.605 57.8765C118.605 58.0161 118.596 58.1557 118.605 58.2953C118.69 59.3895 119.64 59.9116 120.569 59.3225C120.949 59.0675 121.267 58.7314 121.502 58.3385C123.997 54.2671 125.848 49.9053 127.261 45.3579C127.552 44.4171 127.819 43.4568 127.664 42.4463C127.534 41.6088 126.977 41.2752 126.222 41.6674C125.758 41.9189 125.342 42.2496 124.992 42.6445C124.056 43.69 123.283 44.8706 122.699 46.1465C121.399 48.9115 120.262 51.7507 119.296 54.6495C118.954 55.6991 118.63 56.7571 118.605 57.8765Z" fill="#FE0101"/>
<path d="M107.655 53.7548L108.154 54.0339C106.991 55.8582 105.92 57.7146 104.44 59.2834C103.53 60.2521 102.329 60.6652 101.035 60.8188C100.182 60.9431 99.3134 60.9152 98.4699 60.7364C96.7684 60.34 95.6211 58.9554 95.3992 57.1465C95.2107 55.6 95.5764 54.1721 96.2366 52.807C97.3686 50.4566 98.541 48.1242 99.6842 45.7793C100.086 44.9558 100.456 44.117 100.825 43.2767C100.944 43.0337 101.02 42.7715 101.049 42.5021C101.062 42.2787 101.012 41.9437 100.865 41.8488C100.753 41.7963 100.632 41.7691 100.508 41.7691C100.385 41.7691 100.263 41.7963 100.152 41.8488C99.7686 42.0541 99.4154 42.311 99.1021 42.6123C97.7684 43.898 96.6425 45.3831 95.7649 47.0146C95.7034 47.1262 95.6378 47.2365 95.5667 47.3621C95.4689 47.3314 95.3796 47.3077 95.2875 47.277C95.1954 47.2463 95.1158 47.2072 94.9944 47.1556C96.1012 45.2852 97.1522 43.3967 98.816 41.9717C99.4365 41.4218 100.168 41.0116 100.961 40.7686C101.753 40.5257 102.589 40.4557 103.411 40.5633C105.683 40.8425 107.08 42.456 107.212 44.8121C107.267 45.8139 107.11 46.8161 106.751 47.753C105.799 50.2807 104.544 52.6591 103.236 55.011C102.7 55.9754 102.23 56.9762 101.749 57.97C101.637 58.2164 101.558 58.4763 101.514 58.7432C101.4 59.3518 101.862 59.8236 102.453 59.6505C102.874 59.542 103.265 59.3434 103.601 59.0685C104.201 58.5409 104.75 57.9571 105.239 57.3251C105.961 56.369 106.599 55.3487 107.27 54.3549C107.407 54.1721 107.523 53.9683 107.655 53.7548ZM107.313 30.0029C109.619 30.0029 111.255 31.576 111.255 33.7966C111.255 35.9447 109.513 37.6378 107.302 37.6392C105.091 37.6406 103.405 35.9964 103.408 33.8064C103.411 31.6164 105.059 30.0029 107.313 30.0029Z" fill="#FE0101"/>
</g>
<defs>
<clipPath id="clip0_298_11649">
<rect width="111.11" height="40" fill="white" transform="translate(95 30)"/>
</clipPath>
</defs>
</svg>
