<svg width="300" height="100" viewBox="0 0 300 100" fill="none" xmlns="http://www.w3.org/2000/svg">
<rect width="300" height="100" fill="white"/>
<g clip-path="url(#clip0_298_11599)">
<path d="M133.767 67.2237C133.866 67.281 133.961 67.3327 134.06 67.3816C134.16 67.4305 134.255 67.4822 134.354 67.5423C134.241 67.777 134.06 67.9726 133.835 68.1054C133.592 68.2451 133.314 68.315 133.033 68.308C132.759 68.3178 132.487 68.2619 132.24 68.1445C132.036 68.0397 131.867 67.879 131.749 67.682C131.616 67.4612 131.528 67.2181 131.489 66.9638C131.442 66.655 131.419 66.3447 131.422 66.0317C131.394 65.4952 131.53 64.9628 131.809 64.5031C132.087 64.1146 132.548 63.8994 133.026 63.9343C133.307 63.926 133.584 64 133.823 64.1467C134.042 64.2865 134.218 64.4849 134.329 64.7196L133.759 65.0732C133.701 64.9306 133.603 64.8091 133.476 64.7224C133.345 64.6372 133.191 64.5939 133.035 64.5981C132.873 64.5925 132.712 64.6302 132.571 64.7099C132.451 64.7839 132.353 64.8915 132.29 65.0187C132.219 65.1626 132.174 65.3163 132.154 65.4756C132.131 65.667 132.119 65.8585 132.121 66.0513C132.119 66.2525 132.132 66.4537 132.154 66.6536C132.173 66.8324 132.219 67.0071 132.29 67.172C132.347 67.3145 132.442 67.4375 132.565 67.5297C132.699 67.6247 132.863 67.6722 133.028 67.6652C133.186 67.6694 133.341 67.6233 133.472 67.5325C133.591 67.4556 133.693 67.3494 133.767 67.2237Z" fill="#3C3C3B"/>
<path d="M136.743 63.9369C137.025 63.9215 137.305 63.9914 137.545 64.1395C137.737 64.2709 137.896 64.4441 138.012 64.6453C138.057 64.7278 138.092 64.8144 138.115 64.9052C138.145 65.0282 138.167 65.1512 138.182 65.2769C138.201 65.4125 138.213 65.555 138.222 65.7003C138.23 65.8457 138.222 65.9854 138.222 66.1181C138.222 66.1992 138.222 66.297 138.222 66.4116C138.222 66.5262 138.206 66.6477 138.191 66.7749C138.175 66.902 138.16 67.0208 138.145 67.1382C138.131 67.2304 138.111 67.3226 138.085 67.4135C138.039 67.5686 137.96 67.7139 137.854 67.8368C137.758 67.95 137.64 68.0423 137.509 68.1121C137.379 68.182 137.241 68.2323 137.097 68.263C136.947 68.2966 136.795 68.3133 136.643 68.3119C136.36 68.3231 136.079 68.2519 135.838 68.1037C135.634 67.9738 135.47 67.7879 135.365 67.5686C135.282 67.3715 135.23 67.1633 135.212 66.9509C135.182 66.6827 135.167 66.413 135.167 66.1447C135.167 65.8848 135.18 65.6249 135.206 65.3664C135.221 65.161 135.268 64.9569 135.342 64.7641C135.448 64.5112 135.63 64.2988 135.86 64.1521C136.128 63.9942 136.434 63.9201 136.743 63.9369ZM136.743 64.5671C136.587 64.5643 136.432 64.6062 136.297 64.6859C136.163 64.7697 136.061 64.8969 136.007 65.0464C135.956 65.1987 135.926 65.3566 135.916 65.5159C135.894 65.7506 135.884 65.9882 135.885 66.2243C135.885 66.4144 135.885 66.5932 135.885 66.7595C135.891 66.9034 135.919 67.0446 135.968 67.1801C136.021 67.3254 136.116 67.4512 136.24 67.5434C136.376 67.6328 136.535 67.6762 136.697 67.6706C136.862 67.6748 137.024 67.63 137.164 67.5434C137.308 67.4442 137.413 67.2989 137.46 67.1312C137.498 66.9971 137.517 66.8601 137.52 66.7218C137.533 66.5303 137.538 66.3166 137.538 66.0804C137.538 65.8443 137.538 65.6892 137.52 65.5103C137.516 65.3664 137.494 65.2238 137.453 65.0841C137.401 64.929 137.302 64.7935 137.171 64.697C137.042 64.609 136.889 64.5643 136.732 64.5671H136.743Z" fill="#3C3C3B"/>
<path d="M141.598 68.2561V65.4727C141.61 65.2519 141.54 65.0339 141.4 64.8634C141.076 64.5658 140.577 64.5658 140.253 64.8634C140.102 65.0311 140.026 65.2533 140.038 65.4782V68.2464H139.341V63.9803H140.046V64.4554H140.073C140.188 64.2933 140.341 64.1606 140.519 64.0711C140.698 63.9817 140.895 63.9356 141.094 63.9356C141.258 63.9342 141.42 63.9649 141.572 64.0264C141.715 64.0865 141.843 64.1745 141.951 64.2863C142.063 64.4037 142.151 64.5406 142.211 64.6915C142.278 64.8634 142.31 65.0465 142.307 65.2309V68.2478L141.598 68.2561Z" fill="#3C3C3B"/>
<path d="M144.774 67.2571C144.792 67.2054 144.818 67.109 144.856 66.9693C144.895 66.8295 144.932 66.6786 144.971 66.5207C145.01 66.3628 145.049 66.2147 145.085 66.075C145.122 65.9352 145.145 65.8444 145.164 65.7927C145.182 65.741 145.221 65.5957 145.264 65.4238C145.307 65.2519 145.358 65.0759 145.404 64.8886C145.45 64.7014 145.495 64.5253 145.537 64.3702C145.579 64.2151 145.618 64.0796 145.646 63.9985H146.396C146.35 64.1201 146.293 64.292 146.227 64.5169L146.003 65.2673C145.921 65.5482 145.834 65.836 145.743 66.1392C145.653 66.4425 145.572 66.7303 145.484 67.0084C145.395 67.2865 145.323 67.5268 145.253 67.7629C145.183 67.9991 145.131 68.157 145.089 68.2814H144.384C144.338 68.1668 144.28 67.9991 144.211 67.7629C144.141 67.5268 144.068 67.2879 143.987 67.0084C143.906 66.7289 143.821 66.4397 143.727 66.1392C143.633 65.8388 143.554 65.5482 143.467 65.2673C143.381 64.9864 143.309 64.7489 143.239 64.5169C143.17 64.2864 143.109 64.1257 143.07 63.9985H143.821C143.844 64.074 143.878 64.1956 143.924 64.3646C143.97 64.5337 144.018 64.7154 144.069 64.904C144.121 65.0926 144.17 65.2729 144.212 65.4434C144.254 65.6152 144.293 65.734 144.321 65.8095L144.726 67.2683L144.774 67.2571Z" fill="#3C3C3B"/>
<path d="M149.819 67.4918C149.593 68.0018 149.08 68.326 148.523 68.3092C148.274 68.3162 148.025 68.2757 147.791 68.1904C147.592 68.1122 147.42 67.9794 147.294 67.8062C147.153 67.6036 147.056 67.3716 147.009 67.1285C146.898 66.5346 146.889 65.9268 146.983 65.3301C147.022 65.0842 147.1 64.8466 147.216 64.6272C147.325 64.4232 147.486 64.2514 147.68 64.127C148.294 63.7958 149.051 63.9062 149.543 64.3995C149.817 64.7642 149.954 65.2155 149.927 65.671V66.3348H147.616C147.616 66.5122 147.627 66.6911 147.652 66.8672C147.67 67.0153 147.714 67.1592 147.782 67.2934C147.839 67.4107 147.93 67.5099 148.042 67.5784C148.179 67.6525 148.333 67.6888 148.488 67.6818C148.643 67.6818 148.794 67.6301 148.915 67.5337C149.041 67.4401 149.147 67.3227 149.23 67.1886L149.819 67.4918ZM149.241 65.7731C149.262 65.4628 149.191 65.154 149.038 64.883C148.908 64.6845 148.683 64.57 148.447 64.5825C148.197 64.5574 147.955 64.6845 147.832 64.9039C147.705 65.1764 147.641 65.4726 147.645 65.7731H149.241Z" fill="#3C3C3B"/>
<path d="M153.26 68.2561V65.4727C153.272 65.2519 153.202 65.0339 153.063 64.8634C152.909 64.7097 152.697 64.6301 152.479 64.6454C152.266 64.6357 152.059 64.7195 151.913 64.8732C151.765 65.0423 151.688 65.2631 151.7 65.488V68.2561H151V63.9803H151.703V64.4554H151.73C151.844 64.2933 151.998 64.1606 152.175 64.0711C152.504 63.9077 152.887 63.8923 153.229 64.0264C153.372 64.0865 153.499 64.1745 153.605 64.2863C153.717 64.4023 153.805 64.5406 153.865 64.6916C153.929 64.8634 153.961 65.0465 153.958 65.2309V68.2478L153.26 68.2561Z" fill="#3C3C3B"/>
<path d="M155.201 62.9434V62.2461H155.898V62.9434H155.201ZM155.201 68.2462V63.9802H155.898V68.2476L155.201 68.2462Z" fill="#3C3C3B"/>
<path d="M159.946 67.4916C159.719 68.0016 159.207 68.3258 158.649 68.309C158.4 68.316 158.152 68.2755 157.917 68.1903C157.718 68.112 157.547 67.9793 157.421 67.806C157.28 67.6034 157.182 67.3714 157.136 67.1283C157.024 66.5344 157.016 65.9266 157.109 65.3299C157.148 65.084 157.227 64.8464 157.343 64.6271C157.452 64.4231 157.611 64.2512 157.805 64.1268C158.033 63.9941 158.294 63.9284 158.557 63.9368C158.979 63.9102 159.391 64.0807 159.671 64.3993C159.944 64.764 160.081 65.2153 160.055 65.6709V66.3346H157.744C157.744 66.5121 157.755 66.6909 157.78 66.867C157.797 67.0151 157.84 67.1604 157.91 67.2932C157.967 67.4105 158.058 67.5098 158.17 67.5782C158.307 67.6523 158.46 67.6886 158.616 67.6816C158.771 67.6816 158.922 67.6299 159.043 67.5335C159.169 67.4399 159.275 67.3225 159.358 67.1884L159.946 67.4916ZM159.367 65.7729C159.388 65.4627 159.317 65.1539 159.165 64.8828C159.035 64.6844 158.81 64.5698 158.574 64.5823C158.322 64.5586 158.08 64.6844 157.956 64.9037C157.832 65.1762 157.769 65.4738 157.772 65.7729H159.367Z" fill="#3C3C3B"/>
<path d="M163.379 68.2561V65.4727C163.392 65.2519 163.322 65.0339 163.182 64.8634C163.028 64.7097 162.816 64.6301 162.598 64.6454C162.386 64.6357 162.179 64.7195 162.032 64.8732C161.884 65.0423 161.807 65.2631 161.82 65.488V68.2561H161.12V63.9803H161.828V64.4554H161.855C161.969 64.2933 162.123 64.1606 162.3 64.0711C162.63 63.9077 163.012 63.8923 163.354 64.0264C163.496 64.0865 163.624 64.1745 163.73 64.2863C163.842 64.4023 163.93 64.5406 163.99 64.6916C164.054 64.8634 164.086 65.0465 164.083 65.2309V68.2478L163.379 68.2561Z" fill="#3C3C3B"/>
<path d="M167.424 67.2237C167.524 67.281 167.619 67.3327 167.718 67.3816C167.817 67.4305 167.912 67.4822 168.011 67.5423C167.898 67.777 167.718 67.9726 167.493 68.1054C167.25 68.2451 166.972 68.315 166.691 68.308C166.417 68.3178 166.144 68.2619 165.897 68.1445C165.693 68.0397 165.523 67.879 165.404 67.682C165.272 67.4612 165.184 67.2167 165.144 66.9638C165.095 66.6563 165.071 66.3447 165.074 66.0317C165.048 65.4952 165.183 64.9628 165.464 64.5031C165.742 64.1146 166.203 63.8994 166.681 63.9343C166.962 63.926 167.239 64 167.477 64.1467C167.702 64.2837 167.881 64.4835 167.996 64.7196L167.426 65.0732C167.368 64.9306 167.271 64.8091 167.144 64.7224C167.012 64.6372 166.858 64.5939 166.702 64.5981C166.54 64.5925 166.379 64.6302 166.238 64.7099C166.125 64.7867 166.034 64.8915 165.975 65.0159C165.904 65.1598 165.859 65.3135 165.84 65.4728C165.816 65.6642 165.805 65.8557 165.806 66.0485C165.805 66.2497 165.817 66.4509 165.84 66.6508C165.858 66.8296 165.904 67.0043 165.975 67.1692C166.033 67.3117 166.128 67.4347 166.251 67.5269C166.385 67.6219 166.548 67.6694 166.713 67.6624C166.871 67.6666 167.026 67.6205 167.157 67.5297C167.264 67.45 167.356 67.3452 167.424 67.2237Z" fill="#3C3C3B"/>
<path d="M171.682 67.4916C171.572 67.7375 171.39 67.9457 171.164 68.091C170.932 68.2378 170.661 68.3146 170.385 68.309C170.137 68.316 169.888 68.2755 169.653 68.1903C169.455 68.1134 169.282 67.9793 169.157 67.806C169.016 67.6034 168.918 67.3714 168.872 67.1283C168.76 66.5344 168.752 65.9266 168.846 65.3299C168.885 65.084 168.963 64.8464 169.079 64.6271C169.188 64.4231 169.347 64.2512 169.541 64.1268C169.769 63.9941 170.03 63.9284 170.293 63.9368C170.715 63.9102 171.127 64.0807 171.407 64.3993C171.681 64.764 171.818 65.2153 171.791 65.6709V66.3346H169.48C169.48 66.5121 169.491 66.6895 169.513 66.867C169.533 67.0151 169.576 67.159 169.643 67.2932C169.702 67.4105 169.793 67.5084 169.903 67.5782C170.042 67.6523 170.195 67.6872 170.352 67.6816C170.507 67.6816 170.658 67.6299 170.779 67.5335C170.905 67.4399 171.011 67.3225 171.094 67.1884L171.682 67.4916ZM171.105 65.7729C171.126 65.4627 171.055 65.1539 170.902 64.8828C170.772 64.6844 170.548 64.5698 170.311 64.5823C170.06 64.5586 169.818 64.6844 169.694 64.9037C169.569 65.1762 169.506 65.4738 169.509 65.7729H171.105Z" fill="#3C3C3B"/>
<path d="M173.005 68.2563V67.3872H173.826V68.2563H173.005Z" fill="#3C3C3B"/>
<path d="M175.22 68.2563V67.3872H176.04V68.2563H175.22Z" fill="#3C3C3B"/>
<path d="M177.439 68.2563V67.3872H178.259V68.2563H177.439Z" fill="#3C3C3B"/>
<path d="M181.673 67.9292C181.567 68.0619 181.424 68.1612 181.264 68.2142C181.071 68.2799 180.868 68.3107 180.664 68.3079C180.478 68.3121 180.294 68.2785 180.122 68.2087C179.974 68.1486 179.843 68.0563 179.738 67.9362C179.636 67.8202 179.559 67.6847 179.511 67.5365C179.464 67.3814 179.439 67.2193 179.439 67.0559C179.429 66.7065 179.555 66.3684 179.792 66.1113C180.101 65.836 180.511 65.7004 180.924 65.7382H181.702V65.2198C181.712 65.0451 181.641 64.8746 181.511 64.7573C181.345 64.6357 181.142 64.577 180.938 64.591C180.776 64.591 180.615 64.6217 180.466 64.6818C180.323 64.7405 180.209 64.8551 180.151 64.999L179.879 64.8383C179.791 64.7838 179.7 64.7293 179.619 64.6692C179.729 64.4387 179.911 64.25 180.137 64.1326C180.383 64.0069 180.656 63.9426 180.931 63.9454C181.123 63.944 181.313 63.965 181.5 64.0097C181.668 64.0502 181.827 64.1215 181.967 64.2221C182.105 64.3227 182.215 64.4582 182.285 64.6133C182.369 64.8076 182.409 65.0172 182.402 65.2282V68.2632H181.702V67.9543L181.673 67.9292ZM181.707 66.3334H180.871C180.674 66.3251 180.48 66.3823 180.318 66.4941C180.041 66.761 180.03 67.2012 180.291 67.482C180.455 67.6134 180.661 67.6777 180.87 67.6609C181.082 67.6693 181.29 67.612 181.469 67.4974C181.64 67.3591 181.729 67.1425 181.705 66.9245L181.707 66.3334Z" fill="#3C3C3B"/>
<path d="M185.736 67.2237C185.836 67.281 185.931 67.3327 186.03 67.3816C186.129 67.4305 186.224 67.4822 186.323 67.5423C186.21 67.777 186.03 67.9726 185.805 68.1054C185.562 68.2451 185.284 68.315 185.003 68.308C184.729 68.3178 184.456 68.2619 184.209 68.1445C184.005 68.0397 183.835 67.879 183.716 67.682C183.585 67.4612 183.496 67.2167 183.456 66.9638C183.407 66.6563 183.383 66.3447 183.386 66.0317C183.36 65.4952 183.495 64.9628 183.776 64.5031C184.054 64.1146 184.515 63.8994 184.993 63.9343C185.274 63.926 185.551 64 185.789 64.1467C186.014 64.2837 186.193 64.4835 186.308 64.7196L185.738 65.0732C185.68 64.9306 185.583 64.8091 185.456 64.7224C185.324 64.6372 185.17 64.5939 185.014 64.5981C184.852 64.5925 184.691 64.6302 184.55 64.7099C184.43 64.7839 184.332 64.8915 184.269 65.0187C184.198 65.1626 184.153 65.3163 184.134 65.4756C184.11 65.667 184.099 65.8585 184.1 66.0513C184.099 66.2525 184.111 66.4537 184.134 66.6536C184.152 66.8324 184.198 67.0071 184.269 67.172C184.326 67.3145 184.422 67.4375 184.544 67.5297C184.679 67.6247 184.842 67.6722 185.007 67.6652C185.165 67.6694 185.32 67.6233 185.451 67.5325C185.566 67.4528 185.664 67.3466 185.736 67.2237Z" fill="#3C3C3B"/>
<path d="M189.392 67.2234C189.491 67.2807 189.589 67.3324 189.685 67.3813C189.782 67.4302 189.882 67.4819 189.979 67.542C189.867 67.7782 189.685 67.9738 189.46 68.1052C189.217 68.2449 188.939 68.3148 188.658 68.3078C188.39 68.3161 188.123 68.2603 187.88 68.1443C187.676 68.0395 187.506 67.8788 187.387 67.6818C187.253 67.4624 187.165 67.2178 187.127 66.9635C187.078 66.6561 187.054 66.3445 187.057 66.0315C187.03 65.4949 187.166 64.9626 187.447 64.5028C187.725 64.1144 188.185 63.8978 188.661 63.9341C188.942 63.9257 189.22 63.9998 189.46 64.1465C189.68 64.2848 189.854 64.4847 189.963 64.7194L189.395 65.0729C189.336 64.9304 189.237 64.8088 189.11 64.7222C188.98 64.6384 188.826 64.5951 188.671 64.5979C188.507 64.5923 188.347 64.63 188.204 64.7096C188.084 64.7851 187.988 64.8913 187.923 65.0184C187.853 65.1624 187.809 65.3161 187.791 65.4754C187.77 65.6682 187.763 65.861 187.767 66.0539C187.767 66.2551 187.779 66.4563 187.803 66.6561C187.821 66.835 187.866 67.0096 187.936 67.1745C187.995 67.3157 188.09 67.44 188.211 67.5322C188.486 67.7111 188.841 67.7111 189.117 67.5322C189.231 67.454 189.325 67.3464 189.392 67.2234Z" fill="#3C3C3B"/>
<path d="M193.663 67.4916C193.553 67.7375 193.373 67.9471 193.145 68.091C192.913 68.2392 192.642 68.3146 192.367 68.309C192.117 68.316 191.868 68.2755 191.633 68.1903C191.435 68.112 191.263 67.9793 191.137 67.806C190.997 67.602 190.899 67.3714 190.852 67.1283C190.786 66.7985 190.757 66.4632 190.761 66.1264C190.761 65.8595 190.783 65.5926 190.825 65.3299C190.863 65.084 190.944 64.8464 191.062 64.6271C191.169 64.4231 191.328 64.2512 191.524 64.1268C191.752 63.9927 192.013 63.927 192.276 63.9368C192.698 63.9102 193.109 64.0807 193.387 64.3993C193.662 64.764 193.799 65.2139 193.774 65.6709V66.3346H191.463C191.461 66.5121 191.472 66.6895 191.496 66.867C191.516 67.0151 191.559 67.159 191.626 67.2932C191.685 67.4105 191.774 67.5098 191.886 67.5782C192.024 67.6523 192.178 67.6886 192.335 67.6816C192.49 67.6816 192.639 67.6299 192.761 67.5335C192.886 67.4399 192.994 67.3225 193.078 67.1884L193.663 67.4916ZM193.085 65.7729C193.106 65.4627 193.035 65.1539 192.882 64.8828C192.752 64.6858 192.529 64.5712 192.294 64.5823C192.042 64.5572 191.799 64.683 191.676 64.9037C191.552 65.1762 191.488 65.4724 191.489 65.7729H193.085Z" fill="#3C3C3B"/>
<path d="M195.251 67.0935C195.333 67.2682 195.459 67.4177 195.617 67.5267C195.789 67.6329 195.989 67.6874 196.19 67.6804C196.39 67.693 196.588 67.6399 196.756 67.5295C196.9 67.4107 196.975 67.2277 196.958 67.0418C196.96 66.9524 196.94 66.863 196.898 66.7819C196.856 66.7121 196.799 66.6534 196.729 66.61C196.648 66.5597 196.562 66.5206 196.469 66.4927L196.151 66.3935C195.961 66.346 195.773 66.2873 195.59 66.2174C195.437 66.1573 195.291 66.0763 195.16 65.9757C195.044 65.8848 194.949 65.7703 194.882 65.6389C194.816 65.4908 194.784 65.3315 194.788 65.1694C194.77 64.8312 194.907 64.5029 195.16 64.2765C195.448 64.0473 195.81 63.9314 196.177 63.9523C196.492 63.9342 196.806 64.011 197.077 64.1703C197.295 64.3184 197.46 64.5322 197.547 64.7795L197.004 65.1163C196.863 64.7865 196.531 64.5797 196.172 64.5979C195.976 64.5755 195.782 64.6398 195.636 64.774C195.539 64.8843 195.486 65.0283 195.486 65.1764C195.483 65.263 195.511 65.3483 195.564 65.4181C195.623 65.4852 195.694 65.5383 195.773 65.576C195.874 65.6221 195.979 65.6599 196.085 65.6934L196.451 65.794C196.629 65.8345 196.802 65.8918 196.97 65.9631C197.109 66.026 197.235 66.114 197.343 66.223C197.443 66.3236 197.521 66.4466 197.569 66.5807C197.622 66.7414 197.646 66.9105 197.642 67.0795C197.657 67.4303 197.513 67.7684 197.25 68.0004C196.942 68.2449 196.552 68.3679 196.158 68.3455C195.835 68.3567 195.515 68.2757 195.237 68.1122C194.983 67.9515 194.784 67.7167 194.667 67.4401L195.251 67.0935Z" fill="#3C3C3B"/>
<path d="M199.081 67.0935C199.163 67.2682 199.289 67.4177 199.447 67.5267C199.619 67.6329 199.819 67.6874 200.02 67.6804C200.22 67.693 200.418 67.6399 200.586 67.5295C200.73 67.4107 200.805 67.2277 200.789 67.0418C200.79 66.9524 200.77 66.863 200.728 66.7819C200.687 66.7121 200.629 66.6534 200.559 66.61C200.478 66.5597 200.392 66.5206 200.299 66.4927L199.981 66.3935C199.791 66.346 199.604 66.2873 199.421 66.2174C199.267 66.1573 199.122 66.0763 198.99 65.9757C198.874 65.8848 198.779 65.7703 198.712 65.6389C198.646 65.4908 198.614 65.3315 198.618 65.1694C198.6 64.8312 198.737 64.5029 198.99 64.2765C199.278 64.0473 199.64 63.9314 200.007 63.9523C200.322 63.9342 200.636 64.011 200.907 64.1703C201.125 64.3184 201.29 64.5322 201.377 64.7795L200.835 65.1163C200.694 64.7865 200.361 64.5797 200.002 64.5979C199.806 64.5755 199.612 64.6398 199.467 64.774C199.369 64.8843 199.316 65.0283 199.316 65.1764C199.313 65.263 199.341 65.3483 199.394 65.4181C199.453 65.4852 199.524 65.5383 199.604 65.576C199.704 65.6221 199.809 65.6599 199.915 65.6934L200.281 65.794C200.459 65.8345 200.632 65.8918 200.8 65.9631C200.939 66.026 201.067 66.114 201.176 66.223C201.275 66.325 201.352 66.4466 201.399 66.5807C201.452 66.7414 201.476 66.9105 201.472 67.0795C201.487 67.4303 201.343 67.7684 201.081 68.0004C200.772 68.2449 200.385 68.3679 199.991 68.3455C199.666 68.3567 199.346 68.2757 199.067 68.1122C198.814 67.9501 198.617 67.7153 198.498 67.4401L199.081 67.0935Z" fill="#3C3C3B"/>
<path d="M202.609 62.9434V62.2461H203.306V62.9434H202.609ZM202.609 68.2462V63.9802H203.306V68.2476L202.609 68.2462Z" fill="#3C3C3B"/>
<path d="M205.281 67.8565V68.2464H204.581V61.9961H205.281V64.4372H205.296C205.411 64.2709 205.569 64.141 205.753 64.0586C205.917 63.9845 206.093 63.9454 206.272 63.944C206.516 63.93 206.759 63.9957 206.965 64.1312C207.134 64.2556 207.266 64.4219 207.352 64.6133C207.445 64.8313 207.503 65.0618 207.521 65.298C207.542 65.5579 207.554 65.8164 207.554 66.0763C207.554 66.3586 207.54 66.6394 207.51 66.9189C207.487 67.1648 207.427 67.4052 207.331 67.6329C207.247 67.8258 207.113 67.9934 206.944 68.1178C206.745 68.2492 206.509 68.312 206.272 68.2995C206.086 68.3036 205.903 68.2673 205.732 68.1933C205.556 68.122 205.401 68.006 205.281 67.8565ZM206.042 64.6343C205.889 64.6273 205.738 64.672 205.615 64.7642C205.507 64.8536 205.423 64.9682 205.373 65.0996C205.317 65.2421 205.282 65.3916 205.27 65.5439C205.27 65.7074 205.249 65.8653 205.249 66.0218C205.249 66.1783 205.249 66.3697 205.249 66.5612C205.25 66.7428 205.275 66.9231 205.327 67.0977C205.369 67.2515 205.45 67.3912 205.563 67.503C205.693 67.6176 205.865 67.6748 206.038 67.6637C206.184 67.6707 206.329 67.6315 206.45 67.5519C206.559 67.4694 206.643 67.3577 206.692 67.2305C206.754 67.074 206.793 66.9105 206.807 66.7428C206.822 66.5556 206.833 66.3488 206.833 66.1252C206.835 65.9142 206.824 65.7018 206.803 65.4922C206.789 65.3301 206.748 65.1722 206.681 65.0255C206.629 64.9081 206.545 64.8075 206.436 64.7377C206.315 64.665 206.179 64.6301 206.042 64.6343Z" fill="#3C3C3B"/>
<path d="M208.706 62.9434V62.2461H209.403V62.9434H208.706ZM208.706 68.2462V63.9802H209.403V68.2476L208.706 68.2462Z" fill="#3C3C3B"/>
<path d="M211.839 68.2827C211.555 68.2995 211.274 68.224 211.037 68.0675C210.839 67.925 210.746 67.6581 210.751 67.2654V61.9961H211.449V67.1536C211.439 67.2822 211.474 67.4094 211.545 67.5169C211.632 67.6064 211.756 67.6511 211.881 67.6357H212.029V68.2813L211.839 68.2827Z" fill="#3C3C3B"/>
<path d="M213.036 62.9434V62.2461H213.733V62.9434H213.036ZM213.036 68.2462V63.9802H213.733V68.2476L213.036 68.2462Z" fill="#3C3C3B"/>
<path d="M216.169 68.256C215.894 68.277 215.624 68.1736 215.432 67.9752C215.266 67.7837 215.178 67.5364 215.187 67.2821V64.5545H214.711V63.9788H215.187V62.8833H215.884V63.9788H216.489V64.5475H215.884V67.0697C215.874 67.2108 215.91 67.3506 215.987 67.4693C216.072 67.5644 216.198 67.6133 216.324 67.6021H216.555V68.2477L216.169 68.256Z" fill="#3C3C3B"/>
<path d="M218.885 69.1101C218.82 69.3742 218.672 69.6103 218.462 69.785C218.262 69.9317 218.019 70.0072 217.772 70.0002H217.548V69.3951H217.756C218.016 69.3951 218.21 69.1897 218.307 68.7831L218.489 68.1557L217.119 63.9805H217.867L218.385 65.688L218.793 67.1287H218.82L219.198 65.688L219.699 63.9805H220.422L218.885 69.1101Z" fill="#3C3C3B"/>
<path fill-rule="evenodd" clip-rule="evenodd" d="M83.245 58.2902C84.0387 58.3238 84.8296 58.1756 85.5562 57.857C86.1557 57.5971 86.199 57.3023 86.9256 56.6763C88.3425 55.4564 90.4441 55.5319 90.6774 55.3502C90.5349 55.2231 89.308 55.0023 87.9945 53.4932C87.8911 53.3758 87.3853 52.7931 87.3532 52.6268L88.2195 53.4051C90.8926 55.5403 93.4469 54.9618 96.3073 53.5058C97.4461 52.9245 98.5849 52.2887 99.7293 51.713L99.9529 51.576C99.904 51.5034 99.9529 51.5453 99.8649 51.4908L96.5253 49.7763C95.1084 49.0427 93.5964 48.2895 92.2033 47.5447C91.9434 47.4022 91.8037 47.106 91.6304 46.8153C91.3523 46.343 91.2853 46.4255 91.5703 45.9406C91.731 45.6807 91.9029 45.3803 92.0706 45.1022C92.3067 44.7082 93.9849 41.9554 94.0031 41.7738L93.2066 41.8828C93.2527 41.4887 93.7697 40.832 94.0576 40.5385C94.4754 40.1081 94.794 39.8091 95.1656 39.4542C95.9104 38.7402 96.8578 38.0317 96.8578 36.7224C96.876 35.891 96.4973 35.1001 95.8378 34.5929C95.399 34.2938 95.0595 34.6348 94.759 34.8807C93.9807 35.5417 93.0934 36.3912 92.2676 37.1276C91.0659 38.1966 90.1059 38.9987 88.9182 40.1081C88.3998 40.5902 87.7528 41.1743 87.2889 41.6648C86.2786 42.7212 85.0923 43.8963 84.9232 45.629C84.7877 46.997 83.3065 48.7143 82.5282 49.5206L77.8849 54.3553C77.6613 54.6669 77.9114 55.1183 78.1126 55.4942C78.9692 57.0689 81.149 58.2874 83.245 58.2902Z" fill="#E63812"/>
<path fill-rule="evenodd" clip-rule="evenodd" d="M99.8635 47.2736C99.2333 47.3644 98.8099 47.507 98.6101 48.0519C98.3893 48.6584 98.3921 49.248 98.7834 49.6896C99.3591 50.3379 100.888 50.8284 101.897 50.6761C103.054 50.5028 103.614 49.3109 102.953 48.214C102.644 47.6956 102.284 47.5712 101.676 47.4147C101.086 47.2596 100.471 47.2121 99.8635 47.2736Z" fill="#E63812"/>
<path fill-rule="evenodd" clip-rule="evenodd" d="M104.563 39.3148C103.312 39.4629 102.38 39.7955 102.63 41.2529C102.89 42.7941 105.78 42.9367 106.715 42.1164C107.493 41.4373 107.275 40.0931 106.287 39.4978C105.831 39.2254 105.177 39.2435 104.563 39.3148Z" fill="#E63812"/>
<path fill-rule="evenodd" clip-rule="evenodd" d="M102.087 43.2244C101.514 43.3488 101.106 43.4089 100.842 43.9301C100.604 44.4555 100.629 45.0619 100.909 45.565C101.518 46.4732 104.303 47.1216 105.06 45.7522C105.313 45.2492 105.303 44.6525 105.032 44.1593C104.803 43.7289 104.406 43.4131 103.935 43.2873C103.325 43.1713 102.703 43.1504 102.087 43.2244Z" fill="#E63812"/>
<path fill-rule="evenodd" clip-rule="evenodd" d="M106.968 38.1492C107.51 38.1827 108.372 37.7495 108.732 37.2311C109.233 36.5073 108.963 35.5501 108.472 35.335C108.373 35.3992 106.991 38.0192 106.968 38.1492Z" fill="#E63812"/>
<path fill-rule="evenodd" clip-rule="evenodd" d="M98.2006 49.8868C98.1587 49.7289 97.562 49.1602 97.9617 47.9934C98.1293 47.4624 98.5555 47.053 99.0935 46.9063L99.1452 46.8881L99.2207 46.8574C99.1173 46.7177 98.0693 46.339 97.9002 46.2607L95.2117 45.1317C94.9728 45.0353 94.766 44.9403 94.5396 44.8494C94.3188 44.746 94.0939 44.6552 93.8619 44.5769C93.8801 44.4079 94.9001 42.678 95.0636 42.3929L97.5187 38.0752C98.536 36.3397 99.5937 34.4267 100.596 32.6885C101.114 31.7928 100.959 31.8794 101.516 31.9227C102.074 31.9674 102.583 31.9646 103.115 32.0219C103.559 32.068 104.226 32.1072 104.672 32.1211C105.658 32.1491 106.892 32.3265 107.879 32.3307C107.845 32.5753 106.343 35.335 106.192 35.6256C106.002 35.989 104.532 38.7389 104.514 38.8744H105.98C106.346 38.2568 106.955 37.0579 107.331 36.3453L109.692 31.9339C110.162 31.0648 110.17 31.273 109.752 30.6372C109.544 30.3214 109.544 30.2795 109.124 30.2669L102.219 30.0461C101.472 29.9706 101.504 29.9427 101.29 30.3284C100.227 32.2273 99.0516 34.1794 97.9714 36.0756L92.0635 46.3376C92.0328 46.4675 92.2005 46.6226 92.2871 46.7246C92.547 47.0418 92.6923 47.067 93.0654 47.2431C93.6132 47.5239 94.1036 47.7908 94.7604 48.122L96.4623 49.0009C96.7348 49.1546 98.0287 49.8589 98.2006 49.8868Z" fill="#00993B"/>
<path fill-rule="evenodd" clip-rule="evenodd" d="M100.359 46.8195C100.674 46.8474 101.398 47.0109 101.656 46.9704C101.723 46.9061 101.768 46.8209 101.783 46.7287C101.427 46.5191 101.06 46.3318 100.681 46.1655C100.545 46.3695 100.436 46.5889 100.359 46.8195Z" fill="#00993B"/>
<path fill-rule="evenodd" clip-rule="evenodd" d="M102.474 42.7703L103.415 42.8276C103.379 42.7158 103.255 42.6921 103.061 42.597C102.932 42.5174 102.794 42.4545 102.648 42.4126C102.567 42.5188 102.507 42.6404 102.474 42.7703Z" fill="#009A3B"/>
<path d="M125.497 54.0744L121.282 46.7705C123.983 45.4445 125.098 42.1789 123.772 39.4779C122.85 37.5999 120.935 36.4163 118.843 36.4303H114.013V54.5691C114.013 55.2132 114.535 55.7372 115.181 55.7372C115.827 55.7372 116.349 55.2146 116.349 54.5691V47.3435H118.915L123.476 55.244C123.798 55.8029 124.512 55.9943 125.071 55.6715C125.63 55.3488 125.822 54.6347 125.499 54.0758V54.0744H125.497ZM119.928 44.423C119.548 44.5977 119.134 44.6871 118.716 44.6829H116.332V39.0727H118.716C120.273 39.0727 121.535 40.3344 121.535 41.8897C121.535 42.6372 121.238 43.3541 120.709 43.8823C120.484 44.103 120.223 44.2861 119.939 44.4216L119.928 44.423Z" fill="#575756"/>
<path d="M112.597 43.2633V54.6404C112.597 55.2846 112.075 55.8086 111.429 55.8086C110.785 55.8086 110.261 55.286 110.261 54.6404V43.2633C110.26 42.6191 110.782 42.0951 111.426 42.0938C111.742 42.0938 112.044 42.2209 112.263 42.4459C112.48 42.6639 112.599 42.9573 112.597 43.2633Z" fill="#575756"/>
<path d="M111.373 38.5195H111.488C112.101 38.5195 112.599 39.017 112.599 39.6304V40.051C112.599 40.6644 112.101 41.1619 111.488 41.1619H111.373C110.76 41.1619 110.262 40.6644 110.262 40.051V39.6304C110.262 39.017 110.76 38.5195 111.373 38.5195Z" fill="#575756"/>
<path d="M179.75 45.78C178.676 43.4731 176.37 41.9891 173.824 41.9653C170.163 41.9653 167.195 45.0576 167.195 48.8751C167.195 52.6926 170.163 55.7849 173.824 55.7849C175.41 55.7835 176.939 55.1967 178.118 54.1375V54.5245C178.118 55.1687 178.641 55.6927 179.286 55.6927C179.932 55.6927 180.455 55.1701 180.455 54.5245V48.8765C180.457 47.8034 180.217 46.7442 179.75 45.78ZM173.824 53.4486C171.489 53.4486 169.576 51.3959 169.576 48.8737C169.576 46.3516 171.484 44.2989 173.824 44.2989C176.165 44.2989 178.072 46.3516 178.072 48.8737C178.072 51.3959 176.168 53.4486 173.824 53.4486Z" fill="#575756"/>
<path d="M165.795 54.5527C165.808 55.1731 165.348 55.7013 164.732 55.7753C164.088 55.8326 163.52 55.3575 163.463 54.7134C163.46 54.6798 163.459 54.6463 163.459 54.6128V48.3499C163.513 46.219 161.829 44.4458 159.699 44.3913C159.655 44.3899 159.611 44.3899 159.567 44.3899C158.835 44.3899 158.117 44.5911 157.492 44.9712C156.774 45.4169 156.339 46.2022 156.342 47.0462V54.5988C156.342 55.2429 155.82 55.7669 155.174 55.7669C154.528 55.7669 154.006 55.2443 154.006 54.5988V37.6561C153.997 36.9826 154.537 36.4293 155.209 36.4209C155.212 36.4209 155.215 36.4209 155.217 36.4209C155.845 36.4461 156.341 36.9631 156.341 37.5905V42.9017H156.356C157.33 42.3386 158.435 42.0424 159.56 42.0424C161.571 42.0424 163.452 42.6837 164.648 44.2012C165.368 45.1333 165.753 46.2805 165.743 47.457L165.795 54.5527Z" fill="#575756"/>
<path d="M187.82 42.0128C186.522 42.0142 185.256 42.4096 184.187 43.146C184.177 42.8526 184.056 42.5745 183.847 42.3677C183.641 42.1595 183.362 42.0365 183.069 42.0253C182.4 42.0323 181.862 42.5801 181.867 43.2494V54.5412C181.859 55.1365 182.291 55.6479 182.879 55.7401C183.518 55.8268 184.106 55.3782 184.192 54.7396C184.194 54.7271 184.195 54.7145 184.197 54.7019C184.197 54.6628 184.197 54.6209 184.197 54.5804V47.4945C184.191 46.7176 184.511 45.9742 185.078 45.4446C185.825 44.7431 186.81 44.3505 187.834 44.3477C188.411 44.3477 188.981 44.4735 189.505 44.7166C190.021 44.9611 190.637 44.8004 190.968 44.3351C191.344 43.8139 191.225 43.0873 190.704 42.7128C190.65 42.6737 190.592 42.6388 190.532 42.6094C189.684 42.2126 188.758 42.0086 187.82 42.0128Z" fill="#575756"/>
<path d="M152.133 51.9131C152.678 52.2736 152.829 53.0072 152.469 53.5522C152.427 53.6151 152.379 53.6752 152.326 53.7297C151.112 54.9635 149.455 55.6622 147.723 55.6677C144.062 55.6677 141.094 52.5755 141.094 48.7579C141.094 44.9404 144.062 41.8481 147.723 41.8481C149.396 41.8509 151.002 42.5021 152.205 43.6647C152.669 44.1034 152.69 44.8356 152.251 45.3009C152.219 45.3345 152.185 45.3666 152.15 45.396L152.105 45.4351C151.642 45.8096 150.969 45.7718 150.549 45.3499C149.794 44.6079 148.78 44.1901 147.721 44.1845C145.386 44.1845 143.473 46.2372 143.473 48.7593C143.473 51.2815 145.38 53.3342 147.721 53.3342C148.825 53.3272 149.878 52.8731 150.642 52.0752C151.038 51.6728 151.661 51.6057 152.133 51.9131Z" fill="#575756"/>
<path d="M132.991 41.8594C129.328 41.8594 126.36 44.9517 126.36 48.7692C126.36 52.5867 129.328 55.679 132.991 55.679C134.109 55.679 135.208 55.3855 136.177 54.828C136.742 54.5066 136.939 53.7898 136.617 53.2253C136.546 53.0995 136.453 52.9891 136.341 52.8983C135.968 52.5867 135.439 52.542 135.02 52.7865C134.407 53.1512 133.705 53.344 132.991 53.344C131.162 53.344 129.597 52.0906 129.003 50.3426H138.451C138.998 50.3426 139.472 49.9625 139.59 49.4273C139.59 49.3127 139.611 49.1968 139.613 49.0794C139.616 48.962 139.613 48.874 139.613 48.7706C139.62 44.9517 136.655 41.8594 132.991 41.8594ZM128.804 48.0062C129.14 45.8446 130.879 44.1943 132.991 44.1943C135.104 44.1943 136.84 45.8446 137.176 48.0062H128.804Z" fill="#575756"/>
<path d="M212.754 41.9038C209.09 41.9038 206.122 44.9961 206.122 48.8136C206.122 52.6311 209.09 55.7234 212.754 55.7234C213.872 55.7234 214.97 55.43 215.94 54.8724C216.504 54.5511 216.701 53.8342 216.38 53.2697C216.309 53.1439 216.215 53.0336 216.103 52.9427C215.73 52.6311 215.202 52.5864 214.783 52.8309C214.169 53.1956 213.468 53.3885 212.754 53.3885C210.937 53.3885 209.36 52.1351 208.766 50.387H218.213C218.761 50.387 219.235 50.0069 219.352 49.4718C219.352 49.3572 219.373 49.2412 219.376 49.1238C219.379 49.0064 219.376 48.9184 219.376 48.815C219.383 44.9961 216.415 41.9038 212.754 41.9038ZM208.566 48.0493C208.903 45.8876 210.641 44.2374 212.754 44.2374C214.865 44.2374 216.602 45.8876 216.939 48.0493H208.566Z" fill="#575756"/>
<path d="M193.107 56.1971C192.48 56.3396 192.087 56.9642 192.231 57.5916C192.252 57.6853 192.286 57.7761 192.329 57.8627C193.429 60.0551 195.66 61.4497 198.113 61.4776C201.746 61.4776 204.695 58.3644 204.695 54.5678V48.8136C204.695 45.0045 201.743 41.9038 198.113 41.9038C194.482 41.9038 191.53 45.0171 191.53 48.8136C191.528 49.8057 191.732 50.7852 192.132 51.6935C192.532 52.6157 193.131 53.4388 193.886 54.1039C196.292 56.26 199.933 56.26 202.34 54.1039C202.34 54.2576 202.361 54.4127 202.361 54.5706C202.361 57.0928 200.453 59.1455 198.113 59.1455C196.525 59.1189 195.089 58.2037 194.394 56.777C194.146 56.3103 193.61 56.0727 193.098 56.2013L193.107 56.1971ZM198.11 53.3815C196.805 53.3689 195.582 52.7415 194.812 51.6865C194.287 50.9837 193.965 50.1495 193.883 49.2761C193.883 49.1224 193.862 48.9673 193.862 48.8094C193.862 46.2872 195.767 44.2346 198.11 44.2346C200.453 44.2346 202.358 46.2872 202.358 48.8094C202.358 48.9673 202.358 49.1238 202.337 49.2761C202.254 50.1495 201.933 50.9837 201.408 51.6865C200.636 52.7401 199.415 53.3689 198.11 53.3857V53.3815Z" fill="#575756"/>
</g>
<defs>
<clipPath id="clip0_298_11599">
<rect width="142.624" height="40" fill="white" transform="translate(77.7969 30)"/>
</clipPath>
</defs>
</svg>
