<svg width="300" height="100" viewBox="0 0 300 100" fill="none" xmlns="http://www.w3.org/2000/svg">
<rect width="300" height="100" fill="white"/>
<mask id="mask0_298_11586" style="mask-type:luminance" maskUnits="userSpaceOnUse" x="80" y="30" width="141" height="40">
<path d="M220.599 30.0786H80.0039V69.9214H220.599V30.0786Z" fill="white"/>
</mask>
<g mask="url(#mask0_298_11586)">
<path d="M151.595 65.4203V35.1917H157.218V48.8897L168.802 35.1494H174.848L162.334 49.6084L175.482 65.4203H168.845L157.218 51.2995V65.4203H151.595Z" fill="#BE194B"/>
<path d="M190.406 35.15C190.356 35.1496 190.306 35.1494 190.256 35.1494C181.374 35.1494 174.911 41.4809 174.911 50.3187C174.911 59.1563 181.374 65.4879 190.256 65.4879C198.204 65.4879 204.232 60.3662 205.365 52.906H198.86C197.936 57.0382 194.77 59.9478 190.256 59.9478C184.804 59.9478 181.33 55.7708 181.33 50.3187C181.33 44.8225 184.804 40.6895 190.256 40.6895C190.306 40.6895 190.356 40.6898 190.406 40.6905V35.15Z" fill="#BE194B"/>
<path fill-rule="evenodd" clip-rule="evenodd" d="M132.502 65.4879C141.34 65.4879 147.803 59.1563 147.803 50.3187C147.803 41.4809 141.34 35.1494 132.502 35.1494C123.621 35.1494 117.157 41.4809 117.157 50.3187C117.157 59.1563 123.621 65.4879 132.502 65.4879ZM132.502 59.9478C127.05 59.9478 123.577 55.7708 123.577 50.3187C123.577 44.8225 127.05 40.6895 132.502 40.6895C137.911 40.6895 141.384 44.8225 141.384 50.3187C141.384 55.7708 137.911 59.9478 132.502 59.9478Z" fill="#BE194B"/>
<path d="M86.2475 35.6333V64.9605H80.0039V35.6333H86.2475Z" fill="#BE194B"/>
<path fill-rule="evenodd" clip-rule="evenodd" d="M108.338 53.7924L114.977 64.9605H107.766L102.007 54.5399H97.4338V64.9605H91.1902V35.6333H104.908C111.02 35.6333 114.801 39.6345 114.801 45.0866C114.801 50.231 111.504 53.0449 108.338 53.7924ZM97.4338 49.0438H104.029C106.491 49.0438 108.382 47.5488 108.382 45.0426C108.382 42.6243 106.491 41.1294 104.029 41.1294H97.4338V49.0438Z" fill="#BE194B"/>
<path d="M200.144 51.0275V38.125H204.762V35.1494H192.097V38.125H196.739V51.0275H200.144Z" fill="#BE194B"/>
<path d="M213.475 51.0275L219.593 35.1494H215.76L211.356 47.3377L206.952 35.1494H203.12L209.237 51.0275H213.475Z" fill="#BE194B"/>
</g>
</svg>
