<svg width="300" height="100" viewBox="0 0 300 100" fill="none" xmlns="http://www.w3.org/2000/svg">
<rect width="300" height="100" fill="white"/>
<g clip-path="url(#clip0_298_11561)">
<mask id="mask0_298_11561" style="mask-type:luminance" maskUnits="userSpaceOnUse" x="73" y="30" width="11" height="36">
<path d="M73.0312 30.5601H83.4295V65.2759H73.0312V30.5601Z" fill="white"/>
</mask>
<g mask="url(#mask0_298_11561)">
<path fill-rule="evenodd" clip-rule="evenodd" d="M75.0125 30.5601H83.4296V30.8306C81.3167 31.2195 81.182 32.1489 81.182 32.1489C81.029 32.7071 81.0808 33.9071 81.0808 33.9071V55.3377C80.7255 61.9295 73.2549 65.2754 73.2549 65.2754C72.849 65.2754 73.1196 64.9371 73.1196 64.9371C77.7167 60.3065 77.582 57.2465 77.582 57.2465V32.7906C77.582 31.1683 75.8573 31.1683 75.8573 31.1683C75.1143 31.033 75.0125 30.5601 75.0125 30.5601Z" fill="#010101"/>
</g>
<path fill-rule="evenodd" clip-rule="evenodd" d="M93.4352 56.977C90.6158 56.977 88.3311 54.1964 88.3311 50.7659C88.3311 47.3359 90.6158 44.5547 93.4352 44.5547C96.254 44.5547 98.5393 47.3359 98.5393 50.7664C98.5393 54.1959 96.254 56.977 93.4352 56.977ZM93.4352 41.6812C88.8611 41.6812 85.1528 45.7294 85.1528 50.7235C85.1528 55.7176 88.8611 59.7659 93.4352 59.7659C98.0087 59.7659 101.717 55.7176 101.717 50.7235C101.717 45.7294 98.0093 41.6812 93.4352 41.6812Z" fill="#010101"/>
<path fill-rule="evenodd" clip-rule="evenodd" d="M111.243 57.2471C108.47 57.2471 106.221 54.383 106.221 50.8506C106.221 47.3171 108.47 44.453 111.243 44.453C114.016 44.453 116.265 47.3171 116.265 50.8506C116.265 54.383 114.016 57.2471 111.243 57.2471ZM111.343 41.9177C109.393 41.9177 107.608 42.6988 106.221 43.9959V34.9712H102.9V56.5712H100.872V59.2588H106.221V57.6883C107.608 58.9847 109.393 59.7659 111.343 59.7659C115.753 59.7659 119.329 55.7706 119.329 50.8424C119.329 45.9135 115.753 41.9183 111.343 41.9183" fill="#010101"/>
<path fill-rule="evenodd" clip-rule="evenodd" d="M128.635 57.2471C125.862 57.2471 123.613 54.383 123.613 50.8506C123.613 47.3171 125.862 44.453 128.635 44.453C131.408 44.453 133.657 47.3171 133.657 50.8506C133.657 54.383 131.408 57.2471 128.635 57.2471ZM128.735 41.9177C126.785 41.9177 125 42.6988 123.613 43.9959V34.9712H120.292V56.5712H118.264V59.2588H123.613V57.6883C125 58.9847 126.785 59.7659 128.734 59.7659C133.145 59.7659 136.721 55.7706 136.721 50.8424C136.721 45.9135 133.145 41.9183 128.734 41.9183M140.482 49.0506H138.63V51.7547H140.349C140.303 51.4271 140.28 51.0967 140.278 50.7659C140.278 50.1706 140.351 49.5959 140.482 49.0506Z" fill="#010101"/>
<path fill-rule="evenodd" clip-rule="evenodd" d="M153.783 51.7547C153.818 51.4164 153.839 51.0723 153.839 50.7241C153.839 50.1517 153.787 49.5929 153.693 49.0506C152.964 44.8564 149.552 41.6812 145.448 41.6812C140.815 41.6812 137.058 45.73 137.058 50.7241C137.058 55.7182 140.815 59.7659 145.448 59.7659C147.699 59.7659 150.172 59.0217 151.678 57.467L149.345 55.6759C148.479 56.4676 146.622 56.977 145.448 56.977C142.873 56.977 140.744 54.7135 140.349 51.7547H138.63V49.0506H140.482C141.102 46.4553 143.089 44.5547 145.448 44.5547C147.809 44.5547 149.795 46.4553 150.415 49.0506H140.482C140.347 49.6123 140.278 50.1881 140.278 50.7659C140.278 51.1029 140.306 51.4317 140.349 51.7547H153.783Z" fill="#010101"/>
<path fill-rule="evenodd" clip-rule="evenodd" d="M152.489 42.1883V44.893H154.45V59.293H160.162V56.5883H157.56V48.5095C157.56 45.2648 160.602 44.7918 160.602 44.7918C162.292 44.7918 163.103 45.1289 163.103 45.1289V41.9177C159.555 41.1748 157.797 43.2024 157.797 43.2024V42.1718L152.49 42.1883H152.489ZM164.455 42.1548V44.9607H166.449V59.4283H171.689V56.5889H169.627V48.6789C169.627 44.5554 173.65 44.7912 173.65 44.7912C177.165 44.7912 176.76 47.9689 176.76 47.9689V59.4283H181.966V56.6224H179.971V48.4424C179.971 44.5883 183.892 44.7577 183.892 44.7577C187.036 44.7577 186.935 47.6989 186.935 47.6989V59.293H191.87V56.5889H190.315V48.0707C190.315 42.2236 184.771 41.7548 184.771 41.7548C180.039 41.4795 179.092 44.1501 179.092 44.1501C177.976 41.7348 173.683 41.7548 173.683 41.7548C171.047 41.7548 169.661 43.4401 169.661 43.4401V42.223L164.455 42.1548ZM202.155 55.5324C202.155 55.5324 200.962 57.3577 197.895 56.8759C197.895 56.8759 195.41 56.4959 195.41 54.0618C195.41 54.0618 195.283 51.2477 198.858 51.2477H203.497V51.3742C203.497 51.3742 203.702 53.5295 202.155 55.5324ZM223.813 56.6224V47.9018C223.813 42.5942 219.555 41.9518 219.555 41.9518C214.991 41.2424 213.267 43.3718 213.267 43.3718V42.1212H209.987V56.6224H206.776V47.6989C206.776 41.2754 200.219 41.8071 200.219 41.8071C197.312 41.7154 194.337 43.473 194.337 43.473L195.587 45.9407C199.002 43.8112 201.571 44.7071 201.571 44.7071C204.208 45.5689 203.497 48.5101 203.497 48.5101C197.887 48.5101 195.52 49.1183 195.52 49.1183C191.633 50.7071 192.005 53.8848 192.005 53.8848C192.005 59.0565 196.805 59.6312 196.805 59.6312C201.706 60.1042 203.396 57.806 203.396 57.806V59.4283H213.267V48.9495C213.267 43.9801 217.966 44.826 217.966 44.826C220.535 44.826 220.603 47.5977 220.603 47.5977V59.4283H225.639V56.6224H223.813Z" fill="#010101"/>
<path fill-rule="evenodd" clip-rule="evenodd" d="M83.075 36.6277C83.4303 36.4754 83.9027 36.3406 83.9027 36.3406C84.3597 36.053 84.1732 35.6818 84.1732 35.6818C83.8691 34.2954 84.1397 32.7571 84.1397 32.7571C84.3762 31.5742 86.0156 31.6418 86.0156 31.6418C87.7732 31.8954 87.9256 33.6871 87.9256 33.6871C87.9427 34.4812 87.5538 34.9712 87.5538 34.9712C86.8438 36.2724 87.1138 37.0842 87.1138 37.0842C88.7538 37.4224 89.0415 37.4901 89.0415 37.4901C89.0415 39.0612 89.3285 41.6642 89.3285 41.6818C89.4127 44.2677 89.5991 45.4501 89.5991 45.4501C89.9368 47.0736 90.968 48.2224 90.968 48.2224C91.8638 49.1183 91.475 49.9124 91.475 49.9124C90.3927 50.5207 89.4809 50.3183 89.4809 50.3183C88.7874 50.3183 88.855 50.5377 88.855 50.5377C88.855 52.8365 88.9397 53.4112 88.9397 53.4112C89.075 54.7289 89.1256 55.4901 89.1256 55.4901C89.3621 56.6901 89.6832 57.2471 89.6832 57.2471C89.6832 58.9548 89.5656 61.1859 89.5656 61.1859C89.5656 61.1859 89.5656 61.5407 89.5315 61.8624C89.4974 62.183 89.4303 63.2483 89.4303 63.2483C89.4303 63.3154 89.5656 63.4683 89.5985 63.5189C90.045 63.9918 90.4791 64.4763 90.9003 64.9718C90.5456 65.2759 89.1768 65.2759 89.1768 65.2759C88.2638 65.4618 87.5874 65.2759 87.5874 65.2759C86.9456 64.9042 86.8438 64.0089 86.8438 64.0089C86.8438 64.0089 86.8274 64.1777 86.8274 63.9236C86.8274 62.7071 86.8944 62.0483 86.8944 62.0483C87.1138 59.4954 86.8274 56.8418 86.8274 56.8418L86.6744 55.7095C86.4721 53.9348 85.5932 52.2448 85.5932 52.2448C85.4068 52.0595 85.2891 52.2954 85.2891 52.2954C83.9538 54.8307 83.2274 56.9777 83.2274 56.9777C81.7903 60.8483 82.0438 64.0248 82.0438 64.0248C82.1621 64.5665 82.2127 64.7012 82.2127 64.7012C81.6891 64.8365 80.3368 64.1265 80.3368 64.0765C78.9844 63.1801 79.6097 59.9859 79.6097 59.9859L80.0497 58.4983L77.4468 57.4165L78.4438 50.6224L79.965 50.4871L79.6268 43.9971C79.6444 43.3206 80.015 43.0671 80.015 43.0671C79.9138 38.6901 80.3538 38.4024 80.3538 38.4024C80.7762 37.6083 81.5874 37.2024 81.5874 37.2024C82.4832 36.8477 83.075 36.6277 83.075 36.6277Z" fill="#1A4D98"/>
</g>
<defs>
<clipPath id="clip0_298_11561">
<rect width="152.941" height="40" fill="white" transform="translate(73.0312 30)"/>
</clipPath>
</defs>
</svg>
