<svg width="300" height="100" viewBox="0 0 300 100" fill="none" xmlns="http://www.w3.org/2000/svg">
<rect width="300" height="100" fill="white"/>
<g clip-path="url(#clip0_291_6620)">
<path d="M185.135 30.1079C185.183 30.1079 185.231 30.1079 185.29 30.1475C185.445 30.2318 185.586 30.2993 185.732 30.3178C186.946 30.4707 188.168 30.5712 189.372 30.7771C190.123 30.9057 190.863 31.1487 191.581 31.4142C192.343 31.6961 193.074 32.0653 193.845 32.4106C193.953 32.4462 194.035 32.4676 194.111 32.4884C194.105 32.4879 194.105 32.477 194.116 32.5134C194.841 32.959 195.557 33.3682 196.295 33.8054C197.074 34.4095 197.828 34.9893 198.59 35.5582C198.7 35.6402 198.849 35.6697 198.976 35.7264C198.973 35.7294 198.978 35.7222 198.951 35.7541C199.055 35.9325 199.178 36.0882 199.32 36.224C200.706 37.5516 201.898 39.0318 202.861 40.6946C203.209 41.2957 203.566 41.8916 203.931 42.5318C204.564 43.976 205.037 45.4216 205.258 46.9444C205.265 46.9985 205.389 47.0358 205.459 47.0809C205.459 47.8039 205.459 48.5269 205.426 49.331C205.415 49.9324 205.437 50.4526 205.459 50.9728C205.459 51.3362 205.459 51.6995 205.428 52.1372C205.268 52.988 205.138 53.7644 205.016 54.5832C204.585 55.838 204.146 57.0505 203.674 58.267C203.287 58.871 202.929 59.4678 202.584 60.0722C202.447 60.3125 202.339 60.5697 202.218 60.8154C202.217 60.8116 202.225 60.8115 202.187 60.806C201.706 61.3621 201.273 61.9327 200.818 62.4838C199.424 64.1682 197.743 65.5251 195.905 66.7483C195.862 66.7974 195.85 66.8355 195.839 66.8698C195.838 66.866 195.846 66.867 195.807 66.854C195.311 67.1287 194.854 67.4165 194.357 67.7187C193.422 68.1277 192.551 68.5867 191.629 68.8989C190.645 69.2327 189.613 69.4281 188.573 69.662C187.592 69.768 186.64 69.8958 185.638 70.0136C185.282 70.0006 184.976 69.995 184.67 69.995C161.729 69.9952 138.789 69.9956 115.849 70.0011C115.665 70.0011 115.481 70.0708 115.297 70.1079C114.538 70.1079 113.779 70.1079 112.989 70.065C112.92 69.9861 112.887 69.927 112.843 69.9178C111.935 69.7259 111.018 69.5733 110.12 69.3448C108.574 68.9513 107.091 68.3823 105.684 67.5671C105.236 67.2747 104.798 67.0175 104.369 66.7576C104.377 66.7549 104.383 66.7719 104.369 66.7598C104.328 66.727 104.301 66.7365 104.238 66.7683C103.937 66.5727 103.675 66.385 103.403 66.1627C101.542 64.7398 99.8556 63.1835 98.4901 61.3001C98.4616 61.2607 98.3749 61.2635 98.319 61.2453C98.3227 61.2441 98.3198 61.2514 98.3403 61.2149C97.9876 60.5875 97.6145 59.9966 97.2333 59.3678C96.9146 58.7918 96.6039 58.2538 96.2819 57.6741C95.6509 56.216 95.1963 54.7511 94.9623 53.2195C94.9512 53.1465 94.8276 53.0906 94.7563 53.0268C94.7563 51.5831 94.7563 50.1394 94.7934 48.6342C94.8058 48.4718 94.7811 48.3709 94.7563 48.2701C94.7563 48.1199 94.7563 47.9698 94.7993 47.7743C94.9559 47.2556 95.0695 46.7822 95.2058 46.2775C95.3646 45.7098 95.5055 45.1746 95.6301 44.6357C95.6444 44.5741 95.5678 44.4916 95.5274 44.379C95.5974 44.2027 95.6733 44.066 95.7853 43.9243C96.0018 43.4949 96.1822 43.0706 96.3848 42.6151C97.5974 39.9867 99.2044 37.681 101.387 35.8319C102.573 34.8272 103.889 33.9754 105.184 33.0468C106.045 32.6113 106.868 32.1835 107.708 31.7189C107.982 31.602 108.243 31.5294 108.497 31.4401C108.885 31.3039 109.26 31.1186 109.657 31.0214C110.389 30.8422 111.132 30.7118 111.903 30.5793C112.805 30.4941 113.677 30.3965 114.546 30.2815C114.693 30.262 114.831 30.1677 114.973 30.1079C115.021 30.1079 115.069 30.1079 115.174 30.1508C115.552 30.2105 115.874 30.2417 116.196 30.2418C138.999 30.2459 161.803 30.2479 184.607 30.2436C184.783 30.2435 184.959 30.1551 185.135 30.1079ZM180.756 66.8648C182.774 66.8647 184.793 66.8102 186.808 66.8801C188.805 66.9494 190.723 65.5403 190.699 63.0234C190.627 55.5484 190.673 48.0723 190.673 40.5966C190.673 39.3356 190.682 38.0746 190.668 36.8138C190.653 35.5556 190.09 34.5558 188.995 33.9839C188.383 33.6645 187.631 33.4626 186.943 33.4618C162.408 33.4359 137.873 33.44 113.339 33.4401C113.249 33.4401 113.159 33.4403 113.069 33.4426C111.043 33.4948 109.586 34.9766 109.575 37.0038C109.569 38.1026 109.573 39.2015 109.573 40.3003C109.573 47.9561 109.572 55.612 109.575 63.2678C109.576 64.9289 110.5 66.2359 112.038 66.6799C112.53 66.8219 113.067 66.8574 113.583 66.8576C135.938 66.8659 158.293 66.8648 180.756 66.8648Z" fill="#0294DD"/>
<path d="M193.818 32.3964C193.074 32.0653 192.344 31.6961 191.581 31.4142C190.863 31.1487 190.123 30.9057 189.372 30.7771C188.168 30.5712 186.946 30.4707 185.733 30.3178C185.586 30.2993 185.445 30.2318 185.327 30.1475C192.045 30.1079 198.74 30.1079 205.459 30.1079C205.459 35.7318 205.459 41.3557 205.459 47.0302C205.39 47.0358 205.266 46.9985 205.258 46.9444C205.037 45.4216 204.564 43.976 203.904 42.5073C203.444 41.5416 203.119 40.5803 202.58 39.7585C201.905 38.7278 201.078 37.7908 200.269 36.8549C199.898 36.4261 199.412 36.0967 198.979 35.7222C198.979 35.7222 198.973 35.7294 198.965 35.6903C198.181 34.828 197.288 34.1647 196.262 33.6266C195.586 33.1209 194.941 32.6171 194.106 32.477C194.106 32.477 194.106 32.4879 194.094 32.4589C193.994 32.4188 193.906 32.4076 193.818 32.3964Z" fill="white"/>
<path d="M94.7563 53.0776C94.8276 53.0908 94.9512 53.1466 94.9623 53.2196C95.1963 54.7513 95.6509 56.2161 96.3064 57.7029C96.6014 58.3188 96.8607 58.8645 97.1259 59.4502C97.2005 59.6265 97.2537 59.7736 97.3405 59.8971C97.6609 60.3528 97.9925 60.8007 98.3198 61.2515C98.3198 61.2515 98.3227 61.2443 98.3221 61.2852C98.3817 61.4495 98.4256 61.5846 98.5047 61.6943C99.5666 63.1671 100.905 64.3736 102.273 65.545C102.6 65.8245 103.03 65.9832 103.412 66.1975C103.675 66.3852 103.937 66.5728 104.265 66.787C104.348 66.7996 104.366 66.7858 104.383 66.772C104.383 66.772 104.377 66.7551 104.351 66.7957C104.666 67.2969 105.123 67.5516 105.693 67.6025C107.091 68.3825 108.574 68.9515 110.12 69.345C111.018 69.5735 111.935 69.726 112.843 69.9179C112.887 69.9272 112.92 69.9863 112.938 70.0651C106.873 70.1081 100.827 70.1081 94.7563 70.1081C94.7563 64.4482 94.7563 58.7882 94.7563 53.0776Z" fill="white"/>
<path d="M203.707 58.2633C204.146 57.0508 204.585 55.8383 205.034 54.5444C205.111 54.2901 205.169 54.1121 205.251 53.9463C205.3 53.8463 205.388 53.7653 205.459 53.6758C205.459 59.1456 205.459 64.6155 205.459 70.1082C199.619 70.1082 193.779 70.1082 187.856 70.0724C188.05 69.9191 188.326 69.8016 188.602 69.6842C189.613 69.4284 190.645 69.233 191.63 68.8992C192.551 68.587 193.422 68.128 194.391 67.7222C194.926 67.4297 195.386 67.1485 195.846 66.8673C195.846 66.8673 195.838 66.8663 195.866 66.8652C195.91 66.859 195.928 66.8539 195.985 66.8574C197.033 66.1022 198.044 65.3411 199.05 64.5735C200.076 63.7916 200.909 62.8298 201.634 61.7711C201.846 61.4615 202.029 61.1322 202.225 60.8118C202.225 60.8118 202.218 60.8119 202.258 60.8128C202.768 59.9636 203.238 59.1134 203.707 58.2633Z" fill="white"/>
<path d="M95.7492 43.9294C95.6733 44.066 95.5974 44.2027 95.5261 44.4196C95.378 44.7652 95.2251 45.0305 95.1049 45.2391C95.1049 45.54 95.1049 45.8282 95.0937 46.1578C94.9738 46.2768 94.8651 46.3545 94.7563 46.4322C94.7563 40.9984 94.7563 35.5645 94.7563 30.1079C100.596 30.1079 106.437 30.1079 112.325 30.1475C112.398 30.2609 112.422 30.3346 112.44 30.3914C112.249 30.4485 112.06 30.5048 111.871 30.5611C111.132 30.7118 110.389 30.8422 109.657 31.0214C109.26 31.1186 108.885 31.3039 108.497 31.4401C108.243 31.5294 107.982 31.602 107.681 31.7446C107.461 31.772 107.287 31.7201 107.109 31.7076C106.998 31.6998 106.816 31.7148 106.779 31.7817C106.57 32.1647 106.582 32.171 106.24 31.951C106.148 32.1337 106.057 32.3137 105.955 32.515C105.738 32.3422 105.526 32.0528 105.443 32.579C105.424 32.7003 105.246 32.7965 105.139 32.8632C105.108 32.7476 105.08 32.6732 105.052 32.5988C104.973 32.6593 104.87 32.7046 104.82 32.7836C104.731 32.9278 104.673 33.0918 104.612 33.225C104.476 33.0732 104.407 32.9958 104.337 32.9184C104.278 32.9822 104.215 33.0428 104.161 33.1105C103.966 33.3547 103.774 33.6012 103.581 33.8469C103.245 33.3472 103.186 33.9432 103.022 34.0164C102.636 34.1893 102.484 34.616 101.944 34.7483C101.422 34.876 101.042 35.5799 100.597 36.0271C100.082 36.5437 99.5601 37.0529 99.049 37.5729C98.9015 37.7229 98.6587 37.9074 98.6691 38.0619C98.7133 38.7183 98.054 38.7855 97.8055 39.1842C97.7558 39.2638 97.648 39.3071 97.567 39.3671C97.6569 39.4394 97.7468 39.5117 97.879 39.6181C97.7393 39.6943 97.6005 39.755 97.4796 39.841C97.3897 39.905 97.3231 40.0018 97.2461 40.084C97.5823 40.3625 97.2284 40.3781 97.0977 40.4912C96.909 40.6545 96.7338 40.8335 96.5008 41.0554C96.6874 41.1135 96.7869 41.1445 97.0163 41.2159C96.6902 41.408 96.4663 41.54 96.1642 41.718C96.3764 41.772 96.4714 41.7962 96.5695 41.8212C96.4859 41.9874 96.4092 42.1401 96.3736 42.2109C96.237 42.1879 96.118 42.1314 96.0641 42.1688C96.0072 42.2082 95.9684 42.3609 96.0009 42.4216C96.051 42.5149 96.1688 42.5719 96.2214 42.6588C96.0208 42.8965 95.8567 43.1198 95.7149 43.3127C95.7259 43.5112 95.7376 43.7203 95.7492 43.9294Z" fill="white"/>
<path d="M115.347 70.108C115.481 70.0709 115.665 70.0012 115.849 70.0012C138.789 69.9957 161.729 69.9953 184.67 69.9951C184.976 69.9951 185.282 70.0007 185.637 70.0351C185.686 70.0665 185.675 70.108 185.675 70.108C162.249 70.108 138.823 70.108 115.347 70.108Z" fill="#77C8DF"/>
<path d="M185.084 30.1079C184.959 30.1551 184.783 30.2435 184.607 30.2436C161.803 30.2479 139 30.2459 116.196 30.2418C115.874 30.2417 115.553 30.2105 115.21 30.1508C138.471 30.1079 161.752 30.1079 185.084 30.1079Z" fill="#D6FFFF"/>
<path d="M111.903 30.5793C112.06 30.5048 112.249 30.4485 112.44 30.3914C112.422 30.3346 112.398 30.2609 112.377 30.1475C112.459 30.1079 112.541 30.1079 112.665 30.1506C112.799 30.2298 112.891 30.2662 112.982 30.3027C112.997 30.2378 113.012 30.1728 113.027 30.1079C113.642 30.1079 114.257 30.1079 114.922 30.1079C114.831 30.1677 114.694 30.262 114.547 30.2815C113.677 30.3965 112.806 30.4941 111.903 30.5793Z" fill="#D4EFF8"/>
<path d="M185.726 70.108C185.675 70.108 185.686 70.0665 185.687 70.0451C186.64 69.8959 187.592 69.7681 188.573 69.6621C188.326 69.8014 188.05 69.9188 187.806 70.0721C187.151 70.108 186.464 70.108 185.726 70.108Z" fill="#D3EFF8"/>
<path d="M205.459 53.6255C205.389 53.7653 205.301 53.8462 205.251 53.9463C205.169 54.112 205.112 54.2901 205.026 54.5021C205.139 53.7647 205.268 52.9882 205.428 52.187C205.459 52.6332 205.459 53.1043 205.459 53.6255Z" fill="#D1EDF8"/>
<path d="M94.7563 46.4824C94.8651 46.3549 94.9738 46.2772 95.1139 46.1763C95.1579 46.2051 95.1705 46.2572 95.1831 46.3093C95.0695 46.7826 94.9559 47.2559 94.7993 47.7296C94.7563 47.3307 94.7563 46.9314 94.7563 46.4824Z" fill="#E8F7FB"/>
<path d="M112.986 30.1079C113.012 30.1728 112.997 30.2378 112.982 30.3027C112.891 30.2662 112.799 30.2298 112.705 30.1506C112.784 30.1079 112.865 30.1079 112.986 30.1079Z" fill="white"/>
<path d="M94.7563 48.311C94.7811 48.3713 94.8058 48.4722 94.7934 48.5839C94.7563 48.5137 94.7563 48.4327 94.7563 48.311Z" fill="#E2F4FA"/>
<path d="M180.703 66.8649C158.294 66.8649 135.939 66.866 113.584 66.8577C113.067 66.8575 112.53 66.822 112.038 66.68C110.5 66.236 109.576 64.929 109.575 63.2679C109.572 55.6121 109.574 47.9563 109.573 40.3004C109.573 39.2016 109.569 38.1027 109.575 37.0039C109.586 34.9767 111.043 33.495 113.069 33.4428C113.159 33.4405 113.249 33.4402 113.339 33.4402C137.874 33.4402 162.408 33.436 186.943 33.462C187.632 33.4627 188.383 33.6646 188.995 33.9841C190.09 34.5559 190.654 35.5557 190.668 36.8139C190.683 38.0747 190.673 39.3358 190.673 40.5967C190.673 48.0724 190.627 55.5485 190.699 63.0235C190.723 65.5404 188.805 66.9495 186.809 66.8802C184.794 66.8103 182.774 66.8649 180.703 66.8649ZM173.236 54.2867C173.236 53.2033 173.236 52.1199 173.236 50.9757C170.639 50.9757 168.02 50.9757 165.384 50.9757C165.384 49.9347 165.384 48.9543 165.384 47.9125C168.377 47.9125 171.34 47.9125 174.311 47.9125C174.311 46.7795 174.311 45.7085 174.311 44.6331C170.183 44.6331 166.089 44.6331 162.005 44.6331C162.005 50.1078 162.005 55.5385 162.005 60.9844C166.127 60.9844 170.208 60.9844 174.298 60.9844C174.298 59.8707 174.298 58.7881 174.298 57.6635C171.302 57.6635 168.355 57.6635 165.387 57.6635C165.387 56.5337 165.387 55.4471 165.387 54.3116C167.995 54.3116 170.567 54.3116 173.236 54.2867ZM144.67 58.8107C144.67 59.526 144.67 60.2413 144.67 60.9845C145.821 60.9845 146.909 60.9845 148.065 60.9845C148.065 58.7153 148.065 56.4757 148.065 54.2332C150.411 54.2332 152.689 54.2332 155.041 54.2332C155.041 56.5068 155.041 58.7459 155.041 60.9764C156.204 60.9764 157.294 60.9764 158.395 60.9764C158.395 55.5067 158.395 50.0757 158.395 44.6169C157.272 44.6169 156.18 44.6169 155.019 44.6169C155.019 46.6886 155.019 48.749 155.019 50.8349C152.671 50.8349 150.393 50.8349 148.048 50.8349C148.048 48.7477 148.048 46.6885 148.048 44.6251C146.892 44.6251 145.803 44.6251 144.67 44.6251C144.67 49.3416 144.67 54.0221 144.67 58.8107ZM141.238 57.1708C141.349 56.2255 141.543 55.2813 141.556 54.3348C141.597 51.2725 141.573 48.2094 141.571 45.1466C141.571 44.9734 141.554 44.8002 141.545 44.6259C140.406 44.6259 139.318 44.6259 138.187 44.6259C138.187 44.8578 138.187 45.0531 138.187 45.2484C138.187 48.113 138.191 50.9777 138.183 53.8422C138.181 54.3998 138.155 54.96 138.094 55.5141C137.926 57.0615 137.321 57.8444 136.037 58.1556C135.042 58.3965 134.038 58.3874 133.039 58.1492C132.055 57.9145 131.4 57.3247 131.187 56.3281C131.06 55.7334 130.96 55.1202 130.955 54.5144C130.929 51.4338 130.939 48.3529 130.936 45.2722C130.936 45.0612 130.936 44.8502 130.936 44.6331C129.766 44.6331 128.662 44.6331 127.525 44.6331C127.525 45.7916 127.516 46.9065 127.527 48.0212C127.553 50.6323 127.492 53.249 127.645 55.8529C127.829 58.9732 129.591 60.889 132.662 61.3923C133.8 61.5787 135.003 61.5705 136.152 61.439C138.706 61.1468 140.5 59.8253 141.238 57.1708ZM124.773 54.7018C124.773 51.4848 124.773 48.2679 124.773 45.0531C123.475 45.0531 122.259 45.0531 121.002 45.0531C121.002 45.304 121.002 45.5173 121.002 45.7306C121.002 48.9915 121.025 52.2527 120.984 55.513C120.975 56.2349 120.786 56.9672 120.591 57.6699C120.442 58.2075 119.981 58.4992 119.439 58.6274C118.052 58.9553 117.146 58.4023 116.821 57.0249C116.76 56.7627 116.715 56.495 116.685 56.2273C116.631 55.7518 116.595 55.2744 116.552 54.8062C115.347 54.8062 114.187 54.8062 112.992 54.8062C112.966 56.0324 112.98 57.2131 113.327 58.3682C113.859 60.14 115.004 61.2709 116.808 61.711C117.979 61.9966 119.162 62.0199 120.346 61.8003C122.67 61.3692 124.214 59.835 124.588 57.4987C124.729 56.615 124.716 55.7065 124.773 54.7018ZM183.459 57.6803C182.388 57.6803 181.317 57.6803 180.196 57.6803C180.196 53.2817 180.196 48.9672 180.196 44.6335C179.042 44.6335 177.941 44.6335 176.847 44.6335C176.847 50.1073 176.847 55.5367 176.847 60.9825C180.331 60.9825 183.779 60.9825 187.254 60.9825C187.254 59.8805 187.254 58.8107 187.254 57.6803C186.006 57.6803 184.787 57.6803 183.459 57.6803ZM122.4 42.2936C124.294 42.2104 125.451 40.3197 124.714 38.5119C124.325 37.5565 123.474 36.9376 122.531 36.9241C121.586 36.9106 120.717 37.4993 120.306 38.4492C119.551 40.197 120.65 42.1357 122.4 42.2936Z" fill="#FEFFFF"/>
<path d="M96.258 42.6447C96.169 42.5723 96.0512 42.5153 96.0011 42.4219C95.9686 42.3613 96.0074 42.2085 96.0643 42.1691C96.1181 42.1318 96.2371 42.1883 96.3738 42.2113C96.4094 42.1405 96.4861 41.9878 96.5696 41.8215C96.4716 41.7966 96.3766 41.7724 96.1644 41.7183C96.4665 41.5404 96.6904 41.4084 97.0165 41.2163C96.787 41.1448 96.6876 41.1139 96.501 41.0557C96.734 40.8339 96.9091 40.6549 97.0979 40.4916C97.2286 40.3784 97.5825 40.3628 97.2463 40.0844C97.3233 40.0022 97.3899 39.9054 97.4798 39.8414C97.6006 39.7554 97.7395 39.6947 97.8792 39.6185C97.747 39.5121 97.6571 39.4398 97.5672 39.3675C97.6482 39.3075 97.756 39.2642 97.8056 39.1846C98.0542 38.7859 98.7135 38.7187 98.6693 38.0623C98.6589 37.9077 98.9017 37.7233 99.0491 37.5733C99.5603 37.0533 100.082 36.5441 100.597 36.0275C101.043 35.5803 101.422 34.8763 101.944 34.7486C102.484 34.6163 102.636 34.1897 103.022 34.0168C103.186 33.9435 103.245 33.3476 103.581 33.8473C103.774 33.6016 103.966 33.355 104.161 33.1109C104.215 33.0431 104.278 32.9826 104.337 32.9188C104.407 32.9961 104.476 33.0735 104.612 33.2253C104.673 33.0922 104.731 32.9281 104.821 32.784C104.87 32.705 104.973 32.6596 105.052 32.5991C105.08 32.6736 105.109 32.748 105.139 32.9012C105.143 33.0049 105.144 33.03 105.146 33.055C103.889 33.9758 102.573 34.8276 101.387 35.8323C99.2046 37.6813 97.5976 39.9871 96.3588 42.6139C96.3105 42.6436 96.258 42.6447 96.258 42.6447Z" fill="#EFF9FC"/>
<path d="M202.187 60.8062C202.029 61.132 201.846 61.4613 201.634 61.771C200.909 62.8296 200.076 63.7915 199.05 64.5734C198.044 65.3409 197.033 66.102 195.983 66.8294C195.941 66.7744 195.939 66.7559 195.937 66.7374C197.743 65.5252 199.424 64.1684 200.818 62.4839C201.273 61.9328 201.706 61.3623 202.187 60.8062Z" fill="#E3F4FA"/>
<path d="M198.951 35.7544C199.412 36.0969 199.898 36.4264 200.269 36.8552C201.078 37.791 201.904 38.728 202.58 39.7588C203.119 40.5805 203.444 41.5418 203.892 42.4657C203.566 41.8919 203.209 41.296 202.861 40.6948C201.898 39.032 200.706 37.5518 199.32 36.2242C199.178 36.0885 199.055 35.9328 198.951 35.7544Z" fill="#E1F3FA"/>
<path d="M103.403 66.163C103.03 65.9834 102.6 65.8248 102.273 65.5452C100.905 64.3739 99.5666 63.1674 98.5047 61.6945C98.4256 61.5848 98.3817 61.4497 98.3184 61.2866C98.3749 61.2638 98.4616 61.2611 98.4901 61.3005C99.8556 63.1839 101.542 64.7402 103.403 66.163Z" fill="#E2F4FA"/>
<path d="M105.184 33.0471C105.144 33.0299 105.143 33.0049 105.141 32.9422C105.246 32.7968 105.424 32.7006 105.443 32.5793C105.526 32.0531 105.738 32.3425 105.955 32.5153C106.057 32.314 106.148 32.134 106.241 31.9513C106.582 32.1713 106.57 32.165 106.78 31.782C106.816 31.7151 106.998 31.7001 107.11 31.7079C107.287 31.7204 107.461 31.7723 107.664 31.7818C106.868 32.1838 106.045 32.6116 105.184 33.0471Z" fill="#EBF7FB"/>
<path d="M196.275 33.6621C197.287 34.165 198.181 34.8283 198.968 35.6877C198.849 35.67 198.7 35.6405 198.59 35.5585C197.828 34.9896 197.074 34.4098 196.295 33.7767C196.274 33.7007 196.274 33.6814 196.275 33.6621Z" fill="#E1F3FA"/>
<path d="M203.674 58.2671C203.238 59.1132 202.768 59.9634 202.259 60.8164C202.34 60.5698 202.447 60.3125 202.584 60.0723C202.929 59.4678 203.287 58.871 203.674 58.2671Z" fill="#E1F3FA"/>
<path d="M196.262 33.6269C196.274 33.6814 196.274 33.7007 196.273 33.7489C195.557 33.3685 194.841 32.9593 194.116 32.5137C194.94 32.6174 195.586 33.1212 196.262 33.6269Z" fill="#DAF1F9"/>
<path d="M98.3403 61.2149C97.9925 60.8006 97.6609 60.3527 97.3405 59.897C97.2537 59.7735 97.2005 59.6264 97.1562 59.449C97.2009 59.4072 97.2211 59.4065 97.2413 59.4058C97.6145 59.9966 97.9876 60.5875 98.3403 61.2149Z" fill="#E2F4FA"/>
<path d="M95.206 46.2777C95.1706 46.257 95.158 46.2049 95.1252 46.1347C95.105 45.8284 95.105 45.5401 95.105 45.2393C95.2252 45.0306 95.3781 44.7653 95.5322 44.4595C95.5679 44.4917 95.6445 44.5743 95.6302 44.6358C95.5056 45.1748 95.3647 45.71 95.206 46.2777Z" fill="#DBF1F9"/>
<path d="M97.2335 59.3681C97.2213 59.4067 97.2011 59.4075 97.1505 59.4093C96.8609 58.8647 96.6016 58.3189 96.3179 57.7446C96.6041 58.2541 96.9148 58.7921 97.2335 59.3681Z" fill="#DBF1F9"/>
<path d="M96.2214 42.6591C96.2578 42.6446 96.3103 42.6435 96.3365 42.6451C96.1822 43.0709 96.0017 43.4952 95.7852 43.9246C95.7376 43.7206 95.7259 43.5115 95.7148 43.313C95.8567 43.1201 96.0208 42.8968 96.2214 42.6591Z" fill="#DAF1F9"/>
<path d="M105.684 67.5672C105.123 67.5516 104.666 67.2968 104.343 66.7983C104.798 67.0176 105.236 67.2747 105.684 67.5672Z" fill="#DBF1F9"/>
<path d="M195.807 66.854C195.386 67.1482 194.926 67.4293 194.432 67.7073C194.854 67.4164 195.311 67.1287 195.807 66.854Z" fill="#D7F0F8"/>
<path d="M193.845 32.4106C193.906 32.4076 193.994 32.4188 194.099 32.4594C194.035 32.4676 193.954 32.4462 193.845 32.4106Z" fill="#DAF1F9"/>
<path d="M104.37 66.7599C104.366 66.7858 104.349 66.7996 104.304 66.7948C104.302 66.7366 104.328 66.7271 104.37 66.7599Z" fill="#DBF1F9"/>
<path d="M195.905 66.7485C195.939 66.756 195.941 66.7745 195.944 66.8208C195.928 66.8538 195.91 66.8589 195.866 66.869C195.85 66.8358 195.862 66.7977 195.905 66.7485Z" fill="#D7F0F8"/>
<path d="M173.188 54.2994C170.567 54.3118 167.995 54.3118 165.387 54.3118C165.387 55.4473 165.387 56.5339 165.387 57.6637C168.354 57.6637 171.302 57.6637 174.298 57.6637C174.298 58.7883 174.298 59.8709 174.298 60.9846C170.207 60.9846 166.127 60.9846 162.005 60.9846C162.005 55.5387 162.005 50.108 162.005 44.6333C166.089 44.6333 170.183 44.6333 174.311 44.6333C174.311 45.7087 174.311 46.7797 174.311 47.9127C171.339 47.9127 168.377 47.9127 165.383 47.9127C165.383 48.9545 165.383 49.935 165.383 50.9759C168.019 50.9759 170.639 50.9759 173.236 50.9759C173.236 52.1201 173.236 53.2035 173.188 54.2994Z" fill="#0394DD"/>
<path d="M144.67 58.757C144.67 54.0224 144.67 49.3419 144.67 44.6254C145.803 44.6254 146.892 44.6254 148.048 44.6254C148.048 46.6888 148.048 48.748 148.048 50.8352C150.393 50.8352 152.671 50.8352 155.019 50.8352C155.019 48.7493 155.019 46.6889 155.019 44.6172C156.18 44.6172 157.272 44.6172 158.395 44.6172C158.395 50.076 158.395 55.5071 158.395 60.9767C157.294 60.9767 156.204 60.9767 155.041 60.9767C155.041 58.7462 155.041 56.5071 155.041 54.2335C152.689 54.2335 150.411 54.2335 148.065 54.2335C148.065 56.4761 148.065 58.7156 148.065 60.9848C146.909 60.9848 145.821 60.9848 144.67 60.9848C144.67 60.2417 144.67 59.5263 144.67 58.757Z" fill="#0494DD"/>
<path d="M141.228 57.2134C140.5 59.8254 138.706 61.1469 136.152 61.4391C135.003 61.5706 133.799 61.5788 132.662 61.3924C129.59 60.8891 127.829 58.9733 127.645 55.853C127.492 53.2491 127.552 50.6324 127.526 48.0213C127.515 46.9066 127.525 45.7917 127.525 44.6332C128.662 44.6332 129.766 44.6332 130.936 44.6332C130.936 44.8503 130.935 45.0613 130.936 45.2722C130.938 48.353 130.929 51.4339 130.954 54.5145C130.959 55.1203 131.06 55.7335 131.187 56.3282C131.4 57.3248 132.055 57.9146 133.039 58.1493C134.038 58.3875 135.042 58.3966 136.037 58.1556C137.321 57.8445 137.925 57.0616 138.094 55.5142C138.155 54.9601 138.181 54.3999 138.183 53.8423C138.191 50.9777 138.187 48.1131 138.187 45.2485C138.187 45.0532 138.187 44.8579 138.187 44.626C139.317 44.626 140.406 44.626 141.545 44.626C141.554 44.8003 141.571 44.9735 141.571 45.1467C141.572 48.2095 141.597 51.2726 141.556 54.3349C141.543 55.2814 141.349 56.2256 141.228 57.2134Z" fill="#0394DD"/>
<path d="M124.773 54.7557C124.716 55.7067 124.729 56.6152 124.588 57.4989C124.214 59.8351 122.67 61.3694 120.346 61.8005C119.162 62.02 117.979 61.9968 116.808 61.7111C115.004 61.2711 113.859 60.1401 113.327 58.3684C112.98 57.2132 112.966 56.0325 112.992 54.8064C114.187 54.8064 115.347 54.8064 116.552 54.8064C116.595 55.2746 116.631 55.752 116.685 56.2274C116.715 56.4951 116.76 56.7629 116.821 57.0251C117.146 58.4024 118.052 58.9555 119.439 58.6276C119.981 58.4994 120.442 58.2077 120.591 57.6701C120.786 56.9674 120.975 56.235 120.984 55.5132C121.025 52.2528 121.002 48.9917 121.002 45.7308C121.002 45.5175 121.002 45.3042 121.002 45.0532C122.259 45.0532 123.474 45.0532 124.773 45.0532C124.773 48.268 124.773 51.485 124.773 54.7557Z" fill="#0394DD"/>
<path d="M183.513 57.6806C184.786 57.6806 186.006 57.6806 187.254 57.6806C187.254 58.8109 187.254 59.8807 187.254 60.9828C183.778 60.9828 180.331 60.9828 176.847 60.9828C176.847 55.537 176.847 50.1075 176.847 44.6338C177.941 44.6338 179.042 44.6338 180.196 44.6338C180.196 48.9675 180.196 53.2819 180.196 57.6806C181.317 57.6806 182.388 57.6806 183.513 57.6806Z" fill="#0394DD"/>
<path d="M122.355 42.2906C120.649 42.1356 119.551 40.1969 120.306 38.4491C120.716 37.4993 121.586 36.9106 122.531 36.9241C123.474 36.9375 124.325 37.5565 124.714 38.5119C125.45 40.3196 124.293 42.2103 122.355 42.2906Z" fill="#0495DD"/>
</g>
<defs>
<clipPath id="clip0_291_6620">
<rect width="110.703" height="40" fill="white" transform="translate(94.6484 30)"/>
</clipPath>
</defs>
</svg>
