<svg width="300" height="100" viewBox="0 0 300 100" fill="none" xmlns="http://www.w3.org/2000/svg">
<rect width="300" height="100" fill="white"/>
<g clip-path="url(#clip0_298_11529)">
<mask id="mask0_298_11529" style="mask-type:luminance" maskUnits="userSpaceOnUse" x="82" y="30" width="136" height="40">
<path d="M217.599 30H82.0391V69.7437H217.599V30Z" fill="white"/>
</mask>
<g mask="url(#mask0_298_11529)">
<path d="M204.186 62.2476C202 62.2476 200.162 61.9354 198.671 61.3108C197.18 60.6863 196.052 59.7291 195.285 58.4364C194.518 57.1451 194.136 55.5199 194.136 53.5604C194.136 52.9926 194.164 52.4174 194.222 51.8364C194.278 51.2554 194.364 50.6658 194.477 50.0687C194.903 47.4863 195.683 45.3627 196.819 43.7026C197.953 42.0424 199.416 40.8136 201.205 40.0191C202.993 39.2246 205.08 38.8267 207.465 38.8267C209.68 38.8267 211.538 39.1389 213.044 39.7635C214.549 40.3881 215.684 41.3467 216.45 42.6379C217.218 43.9306 217.6 45.569 217.6 47.556C217.6 48.4071 217.522 49.2234 217.367 50.0048C217.21 50.7863 216.991 51.559 216.707 52.3259C216.167 54.5975 215.351 56.4639 214.259 57.9251C213.165 59.3878 211.788 60.4742 210.128 61.183C208.468 61.8918 206.485 62.2476 204.186 62.2476ZM204.611 57.6491C205.888 57.6491 206.96 57.408 207.826 56.9258C208.691 56.4436 209.394 55.7058 209.933 54.7108C210.472 53.7174 210.87 52.4958 211.126 51.0491C211.239 50.4246 211.325 49.9148 211.381 49.5168C211.438 49.1203 211.473 48.7862 211.487 48.516C211.502 48.2459 211.509 47.9844 211.509 47.7288C211.509 46.792 211.352 45.9975 211.041 45.3439C210.729 44.6918 210.254 44.2008 209.615 43.8754C208.976 43.55 208.131 43.3859 207.08 43.3859C205.804 43.3859 204.732 43.6416 203.866 44.1528C203 44.6642 202.305 45.4092 201.779 46.3882C201.253 47.3671 200.849 48.5814 200.566 50.0295C200.453 50.654 200.367 51.1726 200.311 51.5836C200.254 51.9962 200.21 52.336 200.183 52.6062C200.154 52.8763 200.141 53.1247 200.141 53.3514C200.141 54.2882 200.296 55.0754 200.61 55.7144C200.922 56.3535 201.411 56.8358 202.078 57.1626C202.745 57.4894 203.59 57.652 204.611 57.652V57.6491Z" fill="#9C21F4"/>
<path d="M178.766 69.7438C176.978 69.7438 175.423 69.5376 174.104 69.1266C172.783 68.714 171.768 68.1186 171.059 67.3386C170.349 66.5571 169.995 65.6144 169.995 64.5063C169.995 64.3072 170.002 64.0588 170.017 63.7611C170.031 63.4634 170.095 63.1148 170.208 62.7183H175.915C175.886 62.8315 175.873 62.9172 175.873 62.9739V63.1874C175.873 63.6406 176.015 64.011 176.299 64.2942C176.582 64.5774 176.987 64.7836 177.511 64.9115C178.037 65.0392 178.625 65.1032 179.279 65.1032C180.471 65.1032 181.472 64.8896 182.281 64.4642C183.09 64.0386 183.742 63.414 184.241 62.5904C184.737 61.7668 185.084 60.7879 185.283 59.6522C185.34 59.3398 185.389 59.0348 185.433 58.7371C185.475 58.4392 185.525 58.191 185.583 57.9919H185.285C184.745 58.6455 184.127 59.199 183.433 59.6522C182.737 60.1067 181.978 60.4394 181.154 60.6528C180.331 60.8663 179.45 60.9724 178.513 60.9724C177.009 60.9724 175.696 60.6819 174.574 60.0995C173.453 59.5184 172.587 58.6238 171.976 57.4167C171.366 56.2112 171.061 54.6847 171.061 52.8386C171.061 52.3564 171.083 51.8451 171.125 51.3063C171.167 50.7674 171.245 50.185 171.359 49.5604C172.011 45.8696 173.267 43.1594 175.128 41.4266C176.987 39.6952 179.264 38.8281 181.963 38.8281C183.495 38.8281 184.837 39.1201 185.986 39.7011C187.137 40.2835 187.995 41.1695 188.563 42.362H188.861L189.883 39.3379H194.737L191.246 59.2251C190.791 61.751 190.039 63.7887 188.989 65.3356C187.939 66.8824 186.567 68.0038 184.88 68.6995C183.19 69.3952 181.154 69.7424 178.769 69.7424L178.766 69.7438ZM181.108 56.159C181.875 56.159 182.591 56.0166 183.259 55.7334C183.925 55.4502 184.501 55.0448 184.983 54.5191C185.465 53.9947 185.877 53.363 186.217 52.6236C186.557 51.8858 186.798 51.0622 186.941 50.1544C187.026 49.7288 187.09 49.3672 187.132 49.068C187.175 48.7703 187.204 48.5074 187.218 48.2807C187.233 48.0542 187.24 47.8276 187.24 47.5995C187.24 46.776 187.098 46.0672 186.814 45.4703C186.53 44.8732 186.104 44.4274 185.536 44.1282C184.968 43.8304 184.23 43.6808 183.321 43.6808C182.242 43.6808 181.298 43.8943 180.489 44.3199C179.68 44.7455 179.02 45.3918 178.509 46.2575C177.998 47.1231 177.643 48.2096 177.445 49.5154C177.359 50.0266 177.288 50.4667 177.231 50.8356C177.174 51.2046 177.138 51.5038 177.125 51.7303C177.11 51.9584 177.103 52.185 177.103 52.4115C177.103 53.2351 177.238 53.9163 177.507 54.4552C177.777 54.9955 178.21 55.4138 178.805 55.7115C179.401 56.0094 180.168 56.159 181.105 56.159H181.108Z" fill="#9C21F4"/>
<path d="M158.045 62.2476C155.773 62.2476 153.865 61.9354 152.318 61.3108C150.77 60.6863 149.606 59.7291 148.826 58.4364C148.045 57.1451 147.656 55.5054 147.656 53.5183C147.656 52.7515 147.69 52.0006 147.762 51.2612C147.833 50.5234 147.939 49.8 148.081 49.0898C148.479 47.0738 149.173 45.3003 150.168 43.7664C151.162 42.2341 152.482 41.0272 154.129 40.147C155.775 39.2682 157.791 38.8267 160.176 38.8267C162.276 38.8267 164.044 39.1244 165.477 39.7214C166.911 40.3169 167.99 41.2261 168.713 42.4462C169.437 43.6678 169.8 45.2291 169.8 47.1304C169.8 47.7259 169.758 48.429 169.672 49.2379C169.586 50.047 169.431 50.9199 169.204 51.8567H153.662C153.633 52.169 153.598 52.474 153.555 52.7718C153.513 53.0695 153.492 53.347 153.492 53.6026C153.492 54.5394 153.647 55.3267 153.959 55.9658C154.272 56.6048 154.761 57.0726 155.428 57.3703C156.094 57.668 156.94 57.8176 157.962 57.8176C158.671 57.8176 159.31 57.7319 159.878 57.562C160.446 57.392 160.949 57.1436 161.39 56.8168C161.83 56.4915 162.199 56.0791 162.497 55.5823C162.795 55.0855 162.986 54.4959 163.072 53.8147H168.863C168.635 55.2351 168.217 56.4698 167.607 57.5199C166.997 58.57 166.215 59.443 165.265 60.1387C164.314 60.8344 163.227 61.3602 162.007 61.7146C160.786 62.069 159.467 62.2462 158.047 62.2462L158.045 62.2476ZM154.383 48.1094H163.794C163.851 47.8538 163.885 47.6054 163.9 47.3643C163.915 47.1231 163.922 46.9168 163.922 46.747C163.922 45.9234 163.779 45.2567 163.496 44.7455C163.211 44.2342 162.793 43.8507 162.24 43.5951C161.686 43.3395 161.04 43.2117 160.302 43.2117C159.252 43.2117 158.336 43.4034 157.556 43.7868C156.774 44.1703 156.129 44.7236 155.618 45.447C155.107 46.1703 154.696 47.0592 154.383 48.1079V48.1094Z" fill="#9C21F4"/>
<path d="M145.29 36.7307C147.149 36.7307 148.655 35.224 148.655 33.3654C148.655 31.5067 147.149 30 145.29 30C143.431 30 141.925 31.5067 141.925 33.3654C141.925 35.224 143.431 36.7307 145.29 36.7307Z" fill="#9C21F4"/>
<path d="M136.548 69.7437C136.095 69.7437 135.597 69.7148 135.058 69.6581C134.519 69.6015 134.008 69.5231 133.526 69.4243C133.044 69.324 132.647 69.2035 132.333 69.0625L133.015 65.1453H135.102C135.812 65.1453 136.351 64.9753 136.72 64.634C137.089 64.2941 137.344 63.7829 137.487 63.1017L141.66 39.3394H147.578L143.32 63.5693C143.121 64.7037 142.772 65.7408 142.277 66.6776C141.78 67.6145 141.07 68.3596 140.148 68.9129C139.225 69.4664 138.026 69.7437 136.55 69.7437H136.548Z" fill="#9C21F4"/>
<path d="M135.41 36.7307C137.268 36.7307 138.775 35.224 138.775 33.3654C138.775 31.5067 137.268 30 135.41 30C133.551 30 132.044 31.5067 132.044 33.3654C132.044 35.224 133.551 36.7307 135.41 36.7307Z" fill="#9C21F4"/>
<path d="M116.688 53.8308C118.546 53.8308 120.053 52.3241 120.053 50.4654C120.053 48.6068 118.546 47.1001 116.688 47.1001C114.829 47.1001 113.322 48.6068 113.322 50.4654C113.322 52.3241 114.829 53.8308 116.688 53.8308Z" fill="#9C21F4"/>
<path d="M127.835 61.7379L131.796 39.3394H137.715L133.756 61.7379H127.837H127.835Z" fill="#9C21F4"/>
<path d="M116.161 38.5826C114.377 38.7031 112.76 39.2246 111.327 40.0191C109.893 40.8136 108.686 42.0569 107.707 43.7446C106.728 45.4338 106.011 47.5849 105.556 50.1965C105.443 50.9068 105.357 51.5662 105.301 52.1762C105.244 52.7877 105.215 53.376 105.215 53.9438C105.215 55.7609 105.52 57.2874 106.13 58.522C106.74 59.7566 107.62 60.6877 108.771 61.3108C109.919 61.9353 111.247 62.2476 112.752 62.2476C114.256 62.2476 115.648 61.9498 116.925 61.3529C118.203 60.7574 119.31 59.8772 120.246 58.7122H120.544L119.224 61.7364H125.143C125.143 61.7364 126.958 51.8421 127.477 48.5305C128.21 43.8536 125.259 37.9638 116.156 38.5826H116.161ZM122.037 48.5364C122.023 48.8065 121.988 49.1405 121.931 49.537C121.875 49.935 121.789 50.4464 121.676 51.0709C121.42 52.519 121.022 53.739 120.483 54.7325C119.943 55.726 119.241 56.4638 118.376 56.9476C117.51 57.4312 116.438 57.6709 115.161 57.6709C114.139 57.6709 113.293 57.5082 112.628 57.1814C111.96 56.8561 111.471 56.3724 111.16 55.7333C110.847 55.0942 110.691 54.307 110.691 53.3701C110.691 53.1436 110.705 52.8952 110.733 52.625C110.76 52.3549 110.804 52.015 110.861 51.6025C110.917 51.1914 111.003 50.6729 111.116 50.0484C111.399 48.6002 111.805 47.3874 112.329 46.407C112.855 45.4281 113.549 44.6829 114.416 44.1717C115.282 43.6604 116.354 43.4048 117.631 43.4048C118.681 43.4048 119.526 43.5689 120.165 43.8942C120.804 44.221 121.279 44.7105 121.591 45.3641C121.904 46.0177 122.059 46.8122 122.059 47.749C122.059 48.0048 122.052 48.2676 122.037 48.5364Z" fill="#9C21F4"/>
<path d="M82.0391 61.7378L87.448 30.9062H93.3668L87.9157 61.7363H82.0391V61.7378Z" fill="#9C21F4"/>
<path d="M89.03 55.4343H83.1693C84.3792 53.4211 84.2412 51.4125 86.3546 49.713C87.8288 48.5293 89.6488 47.5358 91.5762 46.4842C96.0628 44.0369 99.2394 42.0934 99.2394 39.3628H105.1C105.1 42.304 103.77 44.965 101.146 47.2714C99.1494 49.0275 96.6176 50.4087 94.3838 51.6274C92.6917 52.5497 91.094 53.4226 90.0264 54.2797C89.2087 54.9361 89.03 55.3341 89.03 55.4329V55.4343Z" fill="#9C21F4"/>
<path d="M103.075 62.1287C99.2362 62.1287 96.3008 60.9987 94.1032 58.6733C92.2847 56.7502 91.358 54.3886 90.5388 52.3042C90.2454 51.5577 89.9695 50.8518 89.6732 50.2199L94.9805 47.7334C95.3566 48.5366 95.6805 49.363 95.9942 50.1633C97.5688 54.175 98.5985 56.2681 103.075 56.2681V62.1287Z" fill="#9C21F4"/>
</g>
</g>
<defs>
<clipPath id="clip0_298_11529">
<rect width="136" height="40" fill="white" transform="translate(82.0391 30)"/>
</clipPath>
</defs>
</svg>
