<svg width="300" height="100" viewBox="0 0 300 100" fill="none" xmlns="http://www.w3.org/2000/svg">
<rect width="300" height="100" fill="white"/>
<g clip-path="url(#clip0_298_10916)">
<path d="M109.787 64.2659C109.954 64.5003 110.454 64.9292 111.296 65.5615C112.138 66.1939 112.555 66.7732 112.555 67.3038V67.5028C112.555 68.1351 112.178 68.4491 111.419 68.4491H101.039C100.28 68.4491 99.9028 68.1175 99.9028 67.4542V67.3038C99.9028 66.9059 100.148 66.415 100.644 65.8358C101.14 65.2564 101.236 64.7303 100.943 64.2659L96.5906 57.7391L94.1206 60.0298V63.019C94.1206 63.8503 94.4891 64.6727 95.2349 65.4864C95.9764 66.3 96.3492 66.9059 96.3492 67.3038V67.5028C96.3492 68.1351 95.9544 68.4491 95.1647 68.4491H84.4778C83.6881 68.4491 83.2933 68.1351 83.2933 67.5028V67.3038C83.2933 66.9059 83.6223 66.3 84.2804 65.4864C84.9384 64.6727 85.2675 63.8503 85.2675 63.019V45.5567C85.2675 44.6944 84.8726 43.8542 84.083 43.0405C83.2933 42.2269 82.8984 41.652 82.8984 41.3204V41.1214C82.8984 40.7544 83.2626 40.3741 83.9864 39.9761L91.892 36.2882C92.5851 36.0229 93.1291 36.0052 93.524 36.2396C93.9188 36.4739 94.1162 36.8365 94.1162 37.3362V55.6962L100.789 49.9167C101.184 49.6514 101.342 49.3198 101.258 48.9218C101.175 48.5238 101.013 48.1656 100.763 47.8516C100.517 47.5378 100.249 47.1795 99.973 46.7815C99.6922 46.3836 99.5519 46.0343 99.5519 45.7335V45.5346C99.5519 44.8712 99.9291 44.5396 100.688 44.5396H108.497C109.256 44.5396 109.633 44.8536 109.633 45.4859V45.685C109.633 46.0828 109.401 46.4898 108.94 46.9054C108.48 47.3211 107.826 47.803 106.988 48.3514C106.146 48.8996 105.479 49.4082 104.988 49.8724L101.824 52.8131L109.783 64.2748L109.787 64.2659Z" fill="#090909"/>
<path d="M135.739 63.0181C135.835 63.8141 136.028 64.4552 136.309 64.9372C136.59 65.4192 136.87 65.7288 137.151 65.8571C137.432 65.9897 137.686 66.1577 137.919 66.3567C138.147 66.5557 138.266 66.8033 138.266 67.104C138.266 68.2007 136.401 68.7489 132.681 68.7489C131.163 68.7489 130.035 68.5676 129.294 68.2007C128.553 67.8336 128.083 67.2233 127.886 66.3567C126.631 68.0857 124.543 68.948 121.608 68.948C118.839 68.948 116.589 68.3024 114.86 67.0067C113.132 65.7111 112.263 63.8361 112.263 61.3776C112.263 58.9189 113.119 57.1192 114.834 55.7705C116.549 54.4263 118.655 53.7541 121.16 53.7541C123.104 53.7541 124.771 54.1699 126.153 55.0012V54.8508C125.824 51.5608 125.451 49.3367 125.038 48.1736C124.626 47.0107 123.828 46.4315 122.643 46.4315C121.884 46.4315 121.274 46.7808 120.814 47.4795C120.353 48.1781 120.015 48.9431 119.8 49.77C119.585 50.6013 119.182 51.3663 118.589 52.0605C117.997 52.7592 117.207 53.1085 116.216 53.1085C115.225 53.1085 114.36 52.8079 113.72 52.2109C113.079 51.6139 112.755 50.8312 112.755 49.8672C112.755 47.9393 113.711 46.4889 115.624 45.5072C117.537 44.53 119.875 44.0391 122.643 44.0391C125.938 44.0391 128.667 44.9456 130.825 46.7543C132.983 48.5672 134.26 51.0125 134.655 54.1035L135.743 63.0225L135.739 63.0181ZM124.319 66.4053C125.078 66.4053 125.697 66.0383 126.175 65.3087C126.653 64.5791 126.89 63.7477 126.89 62.8192L126.692 60.5285C126.363 57.7737 125.341 56.394 123.626 56.394C122.867 56.394 122.257 56.7036 121.796 57.3139C121.336 57.9284 121.103 58.7509 121.103 59.7812C121.103 61.6429 121.393 63.2127 121.967 64.4907C122.542 65.7685 123.327 66.4097 124.315 66.4097L124.319 66.4053Z" fill="#090909"/>
<path d="M156.063 44.0352C157.48 44.0352 158.607 44.4994 159.45 45.4325C160.292 46.3612 160.709 47.5418 160.709 48.9701C160.709 52.092 159.441 53.6529 156.901 53.6529C155.879 53.6529 155.102 53.4141 154.576 52.9321C154.049 52.4501 153.742 51.9106 153.663 51.3137C153.58 50.7168 153.409 50.1773 153.145 49.6953C152.882 49.2133 152.487 48.9745 151.961 48.9745C150.741 48.9745 150.132 50.5708 150.132 53.759V63.0274C150.132 63.8588 150.566 64.6813 151.443 65.4949C152.316 66.3085 152.755 66.9144 152.755 67.3124V67.5113C152.755 68.1437 152.36 68.4576 151.571 68.4576H140.941C140.151 68.4576 139.752 68.1437 139.752 67.5113V67.3124C139.752 66.9144 140.081 66.3085 140.739 65.4949C141.397 64.6813 141.726 63.8588 141.726 63.0274V53.1134C141.726 52.4501 141.529 51.8841 141.134 51.4198C140.739 50.9556 140.344 50.5576 139.949 50.226C139.554 49.8942 139.357 49.5273 139.357 49.1293V48.9789C139.357 48.4129 139.734 47.9309 140.493 47.5329L147.464 44.243C148.122 44.013 148.583 43.9954 148.851 44.1944C149.114 44.3933 149.245 44.7781 149.245 45.3397V48.9789C150.364 45.689 152.641 44.044 156.067 44.044L156.063 44.0352Z" fill="#090909"/>
<path d="M162.878 68.4528C162.12 68.4528 161.742 68.139 161.742 67.5066V67.3076C161.742 66.9096 162.062 66.3038 162.707 65.4902C163.348 64.6766 163.673 63.854 163.673 63.0227V44.2295C163.673 43.3672 163.352 42.527 162.707 41.7134C162.067 40.8998 161.742 40.3249 161.742 39.9933V39.7943C161.742 39.4273 162.106 39.047 162.83 38.649L170.297 34.9611C170.99 34.6604 171.539 34.6383 171.951 34.886C172.363 35.1336 172.57 35.5095 172.57 36.0091V63.0227C172.57 63.854 172.934 64.6766 173.658 65.4902C174.381 66.3038 174.746 66.9096 174.746 67.3076V67.5066C174.746 68.139 174.351 68.4528 173.557 68.4528H162.878Z" fill="#090909"/>
<path d="M200.395 63.0181C200.491 63.8141 200.684 64.4552 200.965 64.9372C201.246 65.4192 201.527 65.7288 201.807 65.8571C202.088 65.9897 202.343 66.1577 202.575 66.3567C202.803 66.5557 202.922 66.8033 202.922 67.104C202.922 68.2007 201.057 68.7489 197.337 68.7489C195.819 68.7489 194.692 68.5676 193.95 68.2007C193.209 67.8336 192.739 67.2233 192.542 66.3567C191.287 68.0857 189.199 68.948 186.264 68.948C183.496 68.948 181.245 68.3024 179.517 67.0067C177.788 65.7111 176.919 63.8361 176.919 61.3776C176.919 58.9189 177.775 57.1192 179.49 55.7705C181.206 54.4263 183.311 53.7541 185.816 53.7541C187.76 53.7541 189.427 54.1699 190.809 55.0012V54.8508C190.48 51.5608 190.107 49.3367 189.695 48.1736C189.282 47.0107 188.484 46.4315 187.299 46.4315C186.54 46.4315 185.93 46.7808 185.47 47.4795C185.009 48.1781 184.671 48.9431 184.457 49.77C184.242 50.6013 183.838 51.3663 183.246 52.0605C182.653 52.7592 181.864 53.1085 180.872 53.1085C179.881 53.1085 179.016 52.8079 178.376 52.2109C177.735 51.6139 177.411 50.8312 177.411 49.8672C177.411 47.9393 178.367 46.4889 180.28 45.5072C182.193 44.53 184.531 44.0391 187.299 44.0391C190.594 44.0391 193.323 44.9456 195.481 46.7543C197.64 48.5672 198.916 51.0125 199.311 54.1035L200.399 63.0225L200.395 63.0181ZM188.975 66.4053C189.734 66.4053 190.353 66.0383 190.831 65.3087C191.309 64.5791 191.546 63.7477 191.546 62.8192L191.349 60.5285C191.02 57.7737 189.997 56.394 188.282 56.394C187.523 56.394 186.913 56.7036 186.453 57.3139C185.992 57.9284 185.759 58.7509 185.759 59.7812C185.759 61.6429 186.049 63.2127 186.624 64.4907C187.198 65.7685 187.984 66.4097 188.971 66.4097L188.975 66.4053Z" fill="#090909"/>
<path d="M215.586 30.9141C215.664 30.8095 215.562 30.6644 215.433 30.6809C213.537 30.9229 211.733 31.2357 209.921 31.3274C207.6 31.4417 206.006 32.5187 204.704 34.409C202.927 36.9895 200.976 39.4469 199.095 41.957C199.083 41.9731 199.07 41.989 199.058 42.0049C198.883 42.2187 198.507 42.121 198.473 41.8471C198.272 40.2602 198.081 38.6776 197.885 37.0906C197.711 35.6927 197.084 34.5541 195.973 33.6924C194.501 32.5539 193.021 31.4197 191.549 30.2811C191.266 30.0569 190.978 29.8811 190.626 30.1009C190.282 30.3119 190.264 30.6372 190.317 31.0065C190.56 32.7253 190.765 34.4486 191.026 36.163C191.248 37.6313 191.95 38.849 193.117 39.7634C194.623 40.9416 196.147 42.1021 197.658 43.2715C198.255 43.7331 198.917 43.9397 199.666 43.8431C201.421 43.6188 203.18 43.3991 204.935 43.1527C205.958 43.0077 206.803 42.511 207.43 41.6889C210.156 38.1017 212.869 34.5057 215.586 30.9141Z" fill="#EF7A7A"/>
<path d="M206.767 50.5206C208.992 50.2393 211.213 49.8831 213.434 49.5579C213.518 49.5437 213.509 49.433 213.44 49.3815C213.431 49.3749 213.423 49.3687 213.415 49.3637C213.399 49.3521 213.382 49.3407 213.366 49.3283C211.602 47.9673 209.846 46.5977 208.069 45.2541C207.172 44.5727 206.131 44.2122 205.008 44.331C203.266 44.5155 201.533 44.7882 199.795 45.0211C199.429 45.0695 199.142 45.2102 199.046 45.6058C198.951 46.0102 199.168 46.2521 199.46 46.4674C200.901 47.5269 202.338 48.5995 203.793 49.6502C204.677 50.2877 205.683 50.6569 206.767 50.5206Z" fill="#EF7A7A"/>
</g>
<defs>
<clipPath id="clip0_298_10916">
<rect width="133.333" height="40" fill="white" transform="translate(82.8984 30)"/>
</clipPath>
</defs>
</svg>
