<svg width="300" height="100" viewBox="0 0 300 100" fill="none" xmlns="http://www.w3.org/2000/svg">
<rect width="300" height="100" fill="white"/>
<path d="M194.98 30H104.945C103.34 30 102.038 31.3015 102.038 32.9071V67.0103C102.038 68.6159 103.34 69.9174 104.945 69.9174H194.98C196.585 69.9174 197.887 68.6159 197.887 67.0103V32.9071C197.887 31.3015 196.585 30 194.98 30Z" fill="#133F77"/>
<path d="M113.717 43.5254H121.062C121.07 43.5254 121.078 43.5273 121.086 43.5309C121.093 43.5345 121.099 43.5398 121.104 43.5463C121.109 43.5528 121.112 43.5603 121.114 43.5683C121.115 43.5763 121.115 43.5846 121.113 43.5924L119.409 49.4294C119.405 49.4403 119.399 49.4499 119.39 49.4567C119.381 49.4636 119.37 49.4672 119.358 49.4672H111.242C111.23 49.4674 111.219 49.4647 111.209 49.4592C111.198 49.4537 111.19 49.4457 111.184 49.436C111.177 49.4262 111.174 49.415 111.173 49.4035C111.173 49.392 111.175 49.3805 111.18 49.3702L113.669 43.5536C113.674 43.5448 113.681 43.5376 113.689 43.5326C113.698 43.5276 113.707 43.5251 113.717 43.5254Z" fill="#78C2ED" stroke="white" stroke-width="0.115258" stroke-miterlimit="10"/>
<path d="M119.445 49.5437L121.148 43.6834C121.149 43.6791 121.152 43.6753 121.155 43.6726C121.159 43.6699 121.163 43.6685 121.168 43.6685C121.173 43.6685 121.177 43.6699 121.181 43.6726C121.184 43.6753 121.187 43.6791 121.188 43.6834L122.936 49.9203C122.937 49.9221 122.937 49.924 122.937 49.9261C122.937 49.9281 122.937 49.9301 122.936 49.9319L121.237 55.7912C121.236 55.796 121.233 55.8003 121.229 55.8033C121.226 55.8064 121.221 55.808 121.216 55.808C121.211 55.808 121.206 55.8064 121.203 55.8033C121.199 55.8003 121.196 55.796 121.195 55.7912L119.442 49.5554C119.442 49.5513 119.443 49.5473 119.445 49.5437Z" fill="#123F76" stroke="white" stroke-width="0.115872" stroke-miterlimit="10"/>
<path d="M119.35 49.5257L111.194 49.4907C111.189 49.4907 111.183 49.492 111.178 49.4946C111.173 49.4972 111.169 49.5009 111.166 49.5055C111.162 49.51 111.16 49.5153 111.16 49.5208C111.159 49.5264 111.159 49.532 111.161 49.5373L113.495 55.9818C113.498 55.9887 113.502 55.9946 113.508 55.9988C113.515 56.0029 113.522 56.0051 113.529 56.0051L121.108 55.8566C121.113 55.8565 121.118 55.8551 121.123 55.8527C121.128 55.8502 121.132 55.8467 121.136 55.8424C121.139 55.8382 121.141 55.8332 121.142 55.8279C121.143 55.8226 121.143 55.8172 121.142 55.812L119.381 49.5509C119.379 49.5439 119.375 49.5378 119.369 49.5332C119.364 49.5287 119.357 49.526 119.35 49.5257Z" fill="#0F9CDA" stroke="white" stroke-width="0.115258" stroke-miterlimit="10"/>
<path d="M122.277 49.5605H129.622C129.63 49.5607 129.638 49.5627 129.646 49.5664C129.653 49.5702 129.659 49.5755 129.664 49.5821C129.669 49.5886 129.672 49.5962 129.674 49.6043C129.675 49.6123 129.675 49.6206 129.673 49.6285L127.969 55.4655C127.966 55.4763 127.959 55.4858 127.95 55.4927C127.941 55.4995 127.93 55.5032 127.918 55.5033H119.806C119.794 55.5035 119.783 55.5006 119.773 55.4952C119.763 55.4897 119.754 55.4817 119.748 55.472C119.742 55.4623 119.738 55.4512 119.737 55.4397C119.736 55.4282 119.739 55.4167 119.744 55.4063L122.233 49.5887C122.237 49.5807 122.244 49.574 122.251 49.5691C122.259 49.5641 122.268 49.5612 122.277 49.5605Z" fill="#78C2ED" stroke="white" stroke-width="0.115258" stroke-miterlimit="10"/>
<path d="M128.005 55.5788L129.709 49.7185C129.71 49.7137 129.712 49.7095 129.716 49.7064C129.72 49.7033 129.725 49.7017 129.73 49.7017C129.734 49.7017 129.739 49.7033 129.743 49.7064C129.747 49.7095 129.749 49.7137 129.75 49.7185L131.498 55.9553C131.499 55.9591 131.499 55.9631 131.498 55.9669L129.798 61.8272C129.797 61.8316 129.794 61.8354 129.79 61.8381C129.787 61.8408 129.782 61.8422 129.778 61.8422C129.773 61.8422 129.769 61.8408 129.765 61.8381C129.761 61.8354 129.759 61.8316 129.757 61.8272L128.003 55.5924C128.002 55.5877 128.003 55.5829 128.005 55.5788Z" fill="#123F76" stroke="white" stroke-width="0.115872" stroke-miterlimit="10"/>
<path d="M127.91 55.5603L119.754 55.5254C119.749 55.5253 119.743 55.5267 119.738 55.5293C119.733 55.5319 119.728 55.5357 119.725 55.5404C119.722 55.5451 119.72 55.5505 119.719 55.5562C119.719 55.5619 119.719 55.5676 119.721 55.5729L122.057 62.0165C122.06 62.0233 122.065 62.0291 122.071 62.0333C122.077 62.0374 122.084 62.0397 122.091 62.0397L129.671 61.8913C129.676 61.8912 129.682 61.8899 129.686 61.8874C129.691 61.8849 129.695 61.8814 129.698 61.8771C129.702 61.8728 129.704 61.8678 129.705 61.8625C129.706 61.8572 129.705 61.8518 129.704 61.8466L127.943 55.5856C127.941 55.5783 127.936 55.5719 127.931 55.5673C127.925 55.5627 127.917 55.5603 127.91 55.5603Z" fill="#0F9CDA" stroke="white" stroke-width="0.115258" stroke-miterlimit="10"/>
<path d="M122.335 37.4282H129.68C129.688 37.4282 129.696 37.4301 129.703 37.4337C129.71 37.4373 129.717 37.4426 129.722 37.4491C129.727 37.4556 129.73 37.4631 129.731 37.4711C129.733 37.4791 129.732 37.4874 129.73 37.4952L128.026 43.3322C128.023 43.343 128.016 43.3526 128.007 43.3594C127.998 43.3662 127.987 43.3699 127.976 43.37H119.859C119.848 43.3703 119.836 43.3675 119.826 43.362C119.816 43.3566 119.807 43.3486 119.801 43.3388C119.795 43.329 119.792 43.3178 119.791 43.3063C119.791 43.2948 119.793 43.2833 119.798 43.273L122.287 37.4583C122.291 37.4491 122.298 37.4414 122.306 37.4361C122.315 37.4307 122.325 37.428 122.335 37.4282Z" fill="#78C2ED" stroke="white" stroke-width="0.115258" stroke-miterlimit="10"/>
<path d="M128.058 43.4469L129.76 37.5857C129.761 37.5809 129.764 37.5766 129.768 37.5736C129.771 37.5705 129.776 37.5688 129.781 37.5688C129.786 37.5688 129.791 37.5705 129.794 37.5736C129.798 37.5766 129.801 37.5809 129.802 37.5857L131.549 43.8215C131.55 43.8257 131.55 43.83 131.549 43.8341L129.85 49.6934C129.849 49.6982 129.847 49.7025 129.843 49.7055C129.839 49.7086 129.834 49.7103 129.83 49.7103C129.825 49.7103 129.82 49.7086 129.816 49.7055C129.812 49.7025 129.81 49.6982 129.809 49.6934L128.058 43.4586C128.057 43.4548 128.057 43.4508 128.058 43.4469Z" fill="#123F76" stroke="white" stroke-width="0.115872" stroke-miterlimit="10"/>
<path d="M127.967 43.4275L119.812 43.3926C119.806 43.3925 119.8 43.3938 119.795 43.3965C119.79 43.3991 119.786 43.4029 119.782 43.4076C119.779 43.4123 119.777 43.4177 119.776 43.4234C119.776 43.4291 119.777 43.4348 119.779 43.4401L122.115 49.8846C122.118 49.8915 122.123 49.8974 122.129 49.9014C122.135 49.9054 122.142 49.9074 122.149 49.9069L129.728 49.7585C129.734 49.7586 129.739 49.7574 129.744 49.755C129.749 49.7526 129.753 49.7491 129.756 49.7447C129.759 49.7403 129.762 49.7352 129.762 49.7299C129.763 49.7245 129.763 49.719 129.761 49.7138L128.001 43.4537C127.999 43.4462 127.995 43.4395 127.988 43.4348C127.982 43.43 127.975 43.4275 127.967 43.4275Z" fill="#0F9CDA" stroke="white" stroke-width="0.115258" stroke-miterlimit="10"/>
<path d="M140.337 50.6811C140.593 50.4822 140.762 50.3026 140.842 50.1416C140.925 49.9695 140.966 49.7803 140.962 49.5894V42.8713C140.97 42.6819 140.943 42.4926 140.882 42.3133C140.779 42.1063 140.649 41.9146 140.493 41.7437H143.115C142.939 41.9111 142.788 42.1029 142.666 42.3133C142.582 42.4872 142.538 42.6779 142.537 42.8713V49.5884C142.536 49.6801 142.546 49.7716 142.566 49.8611C142.589 49.9554 142.622 50.0471 142.663 50.1348C142.71 50.2327 142.77 50.3241 142.841 50.4065C142.929 50.5066 143.027 50.5982 143.132 50.6801L140.337 50.6811ZM142.621 45.9824L144.935 42.8713C145.071 42.7019 145.15 42.4935 145.159 42.2764C145.159 42.1192 145.068 41.9416 144.887 41.7437H147.518L144.262 45.7718C144.821 46.6128 145.297 47.2905 145.69 47.8048C146.084 48.3191 146.496 48.8066 146.928 49.2672C147.179 49.5326 147.443 49.7853 147.719 50.0241C147.866 50.1561 148.022 50.278 148.185 50.389C148.342 50.4948 148.504 50.592 148.671 50.6801H146.699C146.528 50.6749 146.362 50.6279 146.214 50.5433C145.82 50.3861 145.238 49.7579 144.466 48.6588L143.062 46.651L142.621 45.9824Z" fill="white"/>
<path d="M153.74 47.6069H149.223C149.236 47.8283 149.269 48.0481 149.32 48.2638C149.374 48.4363 149.445 48.6026 149.534 48.7597C149.959 49.4869 150.639 49.8504 151.573 49.8504C151.961 49.8498 152.346 49.7784 152.709 49.6399C152.866 49.5845 153.02 49.5197 153.17 49.4458C153.313 49.3746 153.51 49.265 153.761 49.1168L152.842 50.6792C152.616 50.7626 152.383 50.8246 152.146 50.8645C151.903 50.8996 151.658 50.9162 151.414 50.914C150.281 50.914 149.372 50.6041 148.688 49.9844C148.004 49.3646 147.662 48.5423 147.662 47.5176C147.662 46.5672 147.969 45.7783 148.582 45.1508C149.196 44.5232 149.967 44.2091 150.894 44.2085C151.815 44.2085 152.521 44.4977 153.013 45.076C153.505 45.6544 153.747 46.498 153.74 47.6069ZM150.82 45.1527C150.458 45.1375 150.104 45.2666 149.837 45.5118C149.584 45.7511 149.419 46.0982 149.34 46.553H152.171C152.179 46.3668 152.15 46.1808 152.085 46.0062C152.02 45.8316 151.92 45.672 151.791 45.537C151.665 45.4096 151.513 45.3097 151.346 45.2435C151.179 45.1774 151 45.1465 150.82 45.1527Z" fill="white"/>
<path d="M152.949 53.767L154.058 52.4899C154.246 52.6734 154.495 52.7807 154.757 52.7907C154.87 52.7968 154.983 52.7789 155.089 52.7383C155.195 52.6977 155.291 52.6352 155.371 52.5549C155.471 52.4349 155.558 52.3048 155.631 52.1668C155.729 51.9999 155.808 51.8228 155.867 51.6389L156.185 50.7451L154.212 45.9979C153.976 45.4266 153.807 45.0666 153.705 44.9178C153.602 44.7684 153.398 44.5908 153.091 44.3841L153.716 44.4336C153.814 44.4324 153.911 44.4263 154.008 44.4151C154.118 44.4025 154.226 44.388 154.333 44.3715C154.435 44.3557 154.536 44.3307 154.634 44.2968C154.799 44.2321 154.941 44.1742 155.059 44.123L156.948 48.8402L158.199 45.5748C158.29 45.3616 158.349 45.1358 158.373 44.9052C158.373 44.8141 158.351 44.7244 158.308 44.6442C158.241 44.5327 158.157 44.4328 158.058 44.3482H160.194L156.961 51.995C156.847 52.2743 156.713 52.5451 156.56 52.8053C156.079 53.5816 155.273 53.9698 154.141 53.9698C153.736 53.9576 153.335 53.8893 152.949 53.767Z" fill="white"/>
<path d="M159.733 49.0947L160.051 49.2888C160.185 49.3716 160.319 49.446 160.453 49.512C160.749 49.6404 161.054 49.7439 161.367 49.8216C161.662 49.8999 161.965 49.9416 162.27 49.9458C162.658 49.9458 162.961 49.8714 163.179 49.7226C163.282 49.6588 163.367 49.5693 163.424 49.4627C163.482 49.3562 163.511 49.2363 163.509 49.1151C163.513 48.9889 163.484 48.8639 163.424 48.7529C163.363 48.6418 163.275 48.5488 163.167 48.4834C163.061 48.4201 162.951 48.3662 162.836 48.3223C162.711 48.2718 162.49 48.1981 162.176 48.0991C161.625 47.9251 161.275 47.805 161.125 47.7391C160.93 47.6432 160.747 47.5225 160.582 47.38C160.405 47.234 160.262 47.0503 160.164 46.8424C160.066 46.6345 160.016 46.4075 160.016 46.1777C160.016 45.5663 160.247 45.0889 160.707 44.7454C161.167 44.4018 161.814 44.2304 162.648 44.231C162.893 44.2275 163.137 44.2402 163.38 44.2689L164.017 44.3921V45.6488C163.92 45.5983 163.791 45.5324 163.622 45.4547C163.443 45.3689 163.258 45.2985 163.067 45.2441C162.874 45.1877 162.673 45.1587 162.472 45.1578C162.14 45.1578 161.881 45.2154 161.695 45.3305C161.608 45.3803 161.537 45.4528 161.488 45.5401C161.439 45.6274 161.414 45.7264 161.417 45.8264C161.417 45.9325 161.443 46.037 161.494 46.1301C161.548 46.2278 161.622 46.3126 161.713 46.3786C161.81 46.4504 161.918 46.5088 162.031 46.5523C162.149 46.5969 162.346 46.6571 162.621 46.7318C163.046 46.842 163.461 46.9861 163.863 47.1626C164.108 47.292 164.324 47.4688 164.5 47.6828C164.728 47.948 164.842 48.3038 164.842 48.7502C164.851 49.0429 164.796 49.334 164.681 49.6032C164.565 49.8724 164.393 50.1132 164.175 50.3087C163.726 50.713 163.144 50.9155 162.427 50.9162C162.04 50.9214 161.653 50.8925 161.271 50.8298L160.611 50.693L160.319 50.6561L159.733 49.0947Z" fill="white"/>
<path d="M164.795 45.2519V44.7065C165.33 44.6418 165.715 44.4351 165.951 44.0864C166.188 43.7377 166.306 43.1965 166.305 42.4629V42.3105H167.001V44.3484H168.617V45.6876L168.51 45.5905C168.441 45.5245 168.367 45.4642 168.288 45.41C168.212 45.3613 168.13 45.3237 168.043 45.2984C167.926 45.2675 167.805 45.2531 167.684 45.2557H167.004V48.6638C167.001 48.7933 167.005 48.9229 167.017 49.052C167.034 49.132 167.067 49.2079 167.114 49.2752C167.223 49.4329 167.378 49.554 167.557 49.6226C167.769 49.7147 167.998 49.7613 168.229 49.7594L168.481 49.7468L167.638 50.8501C167.28 50.8227 166.927 50.7477 166.588 50.6269C166.333 50.5195 166.11 50.3492 165.939 50.132C165.806 49.9762 165.707 49.7944 165.648 49.5983C165.588 49.3342 165.562 49.0635 165.571 48.7929V45.2519H164.795Z" fill="white"/>
<path d="M168.51 47.4701C168.51 46.4874 168.849 45.6735 169.525 45.0285C170.201 44.3835 171.051 44.06 172.074 44.0581C173.08 44.0581 173.894 44.3719 174.516 44.9994C175.138 45.6269 175.449 46.4576 175.448 47.4914C175.448 48.4832 175.114 49.3012 174.445 49.9456C173.777 50.5899 172.927 50.9134 171.897 50.916C170.875 50.916 170.055 50.5999 169.437 49.9679C168.819 49.3358 168.51 48.5032 168.51 47.4701ZM170.01 47.3837V47.4953C170.01 48.181 170.212 48.7533 170.617 49.2119C170.799 49.4303 171.028 49.6053 171.286 49.7243C171.544 49.8433 171.825 49.9033 172.11 49.9C172.368 49.9045 172.624 49.8465 172.855 49.731C173.086 49.6154 173.285 49.4456 173.437 49.2362C173.778 48.7943 173.95 48.2263 173.95 47.5322C173.95 46.8128 173.761 46.226 173.383 45.7718C173.208 45.5535 172.985 45.3786 172.731 45.2607C172.478 45.1429 172.2 45.0853 171.92 45.0926C171.657 45.0851 171.396 45.1381 171.157 45.2477C170.917 45.3572 170.707 45.5203 170.541 45.7243C170.186 46.1442 170.009 46.6973 170.01 47.3837Z" fill="white"/>
<path d="M175.825 44.4083L176.285 44.4209L176.851 44.385C176.989 44.3661 177.124 44.3385 177.258 44.3026C177.373 44.2702 177.54 44.2188 177.76 44.1483V45.0158C177.987 44.7365 178.276 44.513 178.603 44.3626C178.93 44.2122 179.287 44.1389 179.648 44.1483C181.182 44.1483 181.948 44.91 181.948 46.4336V49.7611C181.948 49.824 181.956 49.8866 181.972 49.9474L182.008 50.0842C182.078 50.3193 182.217 50.5275 182.409 50.681H180C180.164 50.5693 180.295 50.4145 180.378 50.2337C180.453 49.9885 180.486 49.7321 180.475 49.4758V46.2084C180.403 45.5699 179.984 45.251 179.218 45.2516C178.704 45.2516 178.321 45.3839 178.069 45.6485C177.951 45.7516 177.865 45.8863 177.82 46.0367C177.771 46.2923 177.751 46.5528 177.761 46.813V49.4719C177.753 49.7138 177.786 49.9553 177.858 50.1861C177.939 50.3799 178.069 50.5491 178.236 50.6772H175.861C175.928 50.6163 175.991 50.5515 176.049 50.4831C176.078 50.4499 176.105 50.4146 176.128 50.3773C176.189 50.2955 176.234 50.203 176.261 50.1046L176.298 49.7824V45.6854C176.309 45.4204 176.282 45.1552 176.215 44.8984C176.133 44.7023 175.998 44.5328 175.825 44.4083Z" fill="white"/>
<path d="M188.886 47.6069H184.369C184.382 47.8283 184.414 48.0481 184.466 48.2638C184.519 48.4363 184.591 48.6026 184.679 48.7597C185.105 49.4869 185.784 49.8504 186.718 49.8504C187.107 49.8498 187.492 49.7784 187.854 49.6399C188.012 49.5845 188.166 49.5197 188.315 49.4458C188.457 49.3746 188.654 49.265 188.907 49.1168L187.987 50.6792C187.761 50.7626 187.528 50.8246 187.291 50.8645C187.049 50.8996 186.804 50.9162 186.559 50.914C185.426 50.914 184.517 50.6041 183.834 49.9844C183.15 49.3646 182.808 48.5423 182.808 47.5176C182.808 46.5672 183.114 45.7783 183.728 45.1508C184.342 44.5232 185.112 44.2091 186.04 44.2085C186.96 44.2085 187.666 44.4977 188.158 45.076C188.65 45.6544 188.893 46.498 188.886 47.6069ZM185.967 45.1527C185.604 45.1375 185.251 45.2666 184.983 45.5118C184.731 45.7511 184.565 46.0982 184.485 46.553H187.317C187.326 46.3668 187.297 46.1808 187.231 46.0062C187.166 45.8316 187.066 45.672 186.938 45.537C186.811 45.4096 186.659 45.3097 186.492 45.2435C186.325 45.1774 186.146 45.1465 185.967 45.1527Z" fill="white"/>
<path d="M140.373 62.3842C140.485 62.301 140.59 62.2078 140.685 62.1057C140.755 62.0284 140.814 61.943 140.863 61.8515C140.947 61.6776 140.989 61.4865 140.986 61.2935V54.5627C140.991 54.3734 140.955 54.1853 140.88 54.0116C140.768 53.8025 140.625 53.612 140.455 53.4468H143.062C143.975 53.4468 144.71 53.5668 145.269 53.8068C145.6 53.9508 145.882 54.1865 146.083 54.4861C146.281 54.7924 146.382 55.1511 146.374 55.5157C146.381 55.7252 146.346 55.9341 146.272 56.13C146.197 56.3259 146.083 56.5047 145.938 56.6559C145.831 56.7762 145.708 56.8804 145.572 56.9655C145.396 57.0673 145.21 57.1506 145.017 57.2139C145.266 57.2472 145.511 57.3051 145.749 57.3866C145.937 57.4623 146.112 57.5671 146.268 57.6972C146.81 58.1267 147.082 58.7174 147.082 59.4691C147.081 59.7774 147.03 60.0834 146.928 60.3745C146.827 60.6687 146.68 60.9449 146.492 61.1926C146.144 61.6258 145.676 61.9468 145.147 62.1154C144.604 62.294 143.845 62.3829 142.87 62.3823L140.373 62.3842ZM142.509 54.4385V57.0916C142.634 57.1123 142.761 57.1246 142.888 57.1285C143.561 57.1285 144.035 56.9991 144.312 56.7403C144.445 56.6146 144.55 56.4627 144.622 56.2942C144.693 56.1257 144.729 55.9442 144.727 55.7612C144.727 55.3316 144.589 54.9968 144.312 54.7568C144.035 54.5168 143.639 54.3971 143.126 54.3978L142.509 54.4385ZM142.509 57.996V61.1984C142.697 61.2511 142.888 61.2926 143.082 61.3226C143.24 61.3405 143.4 61.3486 143.559 61.3469C144.118 61.3469 144.578 61.1851 144.94 60.8617C145.235 60.5865 145.423 60.2157 145.471 59.815C145.518 59.4143 145.422 59.0098 145.199 58.6734C145.002 58.3999 144.717 58.2031 144.391 58.1164C144.009 58.0084 143.614 57.9561 143.216 57.9611L142.509 57.996Z" fill="white"/>
<path d="M148.183 57.5459L149.174 56.0592C149.442 55.9933 149.636 55.9515 149.756 55.935C149.942 55.9151 150.129 55.9067 150.317 55.9098C151.111 55.9098 151.716 56.0877 152.133 56.4435C152.301 56.5766 152.432 56.7516 152.511 56.951C152.566 57.117 152.593 57.4139 152.593 57.8438V60.4591C152.583 60.6573 152.603 60.8558 152.652 61.0481C152.701 61.1716 152.793 61.2724 152.913 61.3305C153.101 61.4164 153.307 61.4547 153.514 61.4421H153.774L153.01 62.5183C152.884 62.5572 152.753 62.5787 152.621 62.5823C152.246 62.5847 151.884 62.4461 151.607 62.1942C151.308 61.9309 151.158 61.6365 151.158 61.3111V59.1956L150.816 59.3072L150.261 59.4314C149.897 59.5179 149.545 59.6482 149.212 59.8196C148.952 59.9768 148.823 60.2281 148.823 60.5755C148.817 60.713 148.844 60.8499 148.901 60.975C148.959 61.1001 149.045 61.2096 149.153 61.2946C149.374 61.468 149.672 61.5547 150.05 61.5547C150.19 61.5551 150.331 61.5418 150.469 61.5149C150.663 61.4736 150.854 61.4208 151.041 61.3567L150.33 62.4077C150.126 62.4659 149.947 62.5095 149.793 62.5387C149.655 62.5662 149.515 62.5808 149.375 62.5823C149.107 62.5829 148.841 62.5281 148.596 62.4212C148.35 62.3143 148.129 62.1577 147.947 61.9613C147.751 61.7729 147.596 61.5467 147.49 61.2965C147.385 61.0463 147.331 60.7772 147.333 60.5057C147.333 59.5624 148.013 58.9621 149.372 58.7046L150.068 58.5561C150.461 58.4817 150.734 58.3882 150.887 58.2757C150.963 58.2216 151.023 58.1495 151.063 58.0662C151.103 57.9828 151.122 57.8907 151.118 57.7982C151.123 57.6905 151.101 57.5831 151.055 57.4856C151.009 57.3881 150.939 57.3035 150.852 57.2393C150.639 57.0958 150.384 57.026 150.127 57.0403C149.925 57.0453 149.724 57.0661 149.525 57.1024C149.226 57.1762 149.016 57.2325 148.894 57.2693C148.773 57.3062 148.537 57.4013 148.183 57.5459Z" fill="white"/>
<path d="M153.469 56.1128L153.928 56.1244L154.495 56.0895C154.632 56.0697 154.768 56.0418 154.902 56.006C155.016 55.975 155.184 55.9236 155.404 55.8517V56.7251C155.631 56.4448 155.919 56.2203 156.246 56.0688C156.573 55.9174 156.931 55.8431 157.291 55.8517C158.825 55.8517 159.592 56.6135 159.592 58.1371V61.4656C159.592 61.5284 159.6 61.591 159.616 61.6519C159.631 61.7101 159.643 61.7557 159.651 61.7887C159.721 62.0234 159.861 62.2311 160.052 62.3845H157.645C157.81 62.2733 157.94 62.1184 158.022 61.9372C158.099 61.6922 158.132 61.4356 158.119 61.1793V57.9119C158.048 57.2747 157.629 56.9557 156.863 56.9551C156.35 56.9551 155.967 57.0877 155.714 57.353C155.595 57.4562 155.509 57.5908 155.464 57.7411C155.416 57.9969 155.396 58.2573 155.406 58.5175V61.1764C155.397 61.4182 155.43 61.6598 155.503 61.8906C155.583 62.0847 155.714 62.2541 155.881 62.3816H153.504C153.571 62.3213 153.633 62.2565 153.691 62.1875C153.721 62.1547 153.747 62.1197 153.771 62.0827C153.831 62.0005 153.876 61.9082 153.904 61.8101L153.941 61.4869V57.3889C153.952 57.1239 153.924 56.8587 153.858 56.6019C153.776 56.4061 153.641 56.2368 153.469 56.1128Z" fill="white"/>
<path d="M160.536 53.4593L160.996 53.4719C161.491 53.4616 161.981 53.3695 162.447 53.1992V61.4671C162.454 61.576 162.471 61.6839 162.5 61.7893C162.522 61.904 162.562 62.0146 162.618 62.1173C162.692 62.22 162.781 62.3101 162.883 62.3841H160.548C160.69 62.2574 160.799 62.0978 160.866 61.9193C160.931 61.679 160.958 61.4304 160.949 61.1818V54.5995C160.96 54.3599 160.936 54.1199 160.878 53.8872C160.804 53.7165 160.686 53.5687 160.536 53.4593ZM162.489 58.7965L163.946 57.0915C164.175 56.8366 164.289 56.6102 164.289 56.4122C164.289 56.3152 164.222 56.1939 164.089 56.0532H166.307L164.051 58.6908L166.47 61.6903C166.706 61.9738 166.994 62.2094 167.319 62.3841H165.749C165.527 62.3974 165.306 62.3547 165.105 62.2599C164.959 62.1778 164.792 62.0041 164.603 61.7388L162.489 58.7965Z" fill="white"/>
<path d="M129.126 43.8H136.472C136.48 43.8001 136.488 43.8021 136.495 43.8058C136.503 43.8096 136.509 43.8149 136.514 43.8215C136.519 43.8281 136.522 43.8357 136.524 43.8437C136.525 43.8518 136.525 43.86 136.522 43.8679L134.816 49.7049C134.812 49.7157 134.806 49.7253 134.797 49.7321C134.788 49.7389 134.777 49.7426 134.765 49.7427H126.649C126.637 49.7429 126.626 49.7401 126.616 49.7346C126.605 49.7291 126.597 49.7211 126.591 49.7114C126.584 49.7017 126.581 49.6906 126.58 49.6791C126.579 49.6676 126.582 49.6561 126.587 49.6457L129.076 43.8291C129.08 43.8197 129.088 43.8119 129.097 43.8067C129.106 43.8015 129.116 43.7991 129.126 43.8Z" fill="#78C2ED" stroke="white" stroke-width="0.115258" stroke-miterlimit="10"/>
<path d="M134.854 49.8185L136.553 43.9602C136.554 43.9554 136.557 43.9511 136.561 43.9481C136.565 43.945 136.569 43.9434 136.574 43.9434C136.579 43.9434 136.584 43.945 136.588 43.9481C136.591 43.9511 136.594 43.9554 136.595 43.9602L138.343 50.197C138.344 50.2008 138.344 50.2048 138.343 50.2086L136.644 56.0689C136.643 56.0737 136.64 56.078 136.636 56.081C136.632 56.0841 136.628 56.0858 136.623 56.0858C136.618 56.0858 136.613 56.0841 136.609 56.081C136.606 56.078 136.603 56.0737 136.602 56.0689L134.854 49.8312C134.853 49.827 134.853 49.8227 134.854 49.8185Z" fill="#123F76" stroke="white" stroke-width="0.115872" stroke-miterlimit="10"/>
<path d="M134.757 49.8001L126.602 49.7651C126.596 49.7651 126.591 49.7664 126.585 49.769C126.58 49.7716 126.576 49.7755 126.573 49.7802C126.57 49.7848 126.567 49.7903 126.567 49.7959C126.566 49.8016 126.567 49.8074 126.569 49.8127L128.906 56.2562C128.908 56.2631 128.913 56.2691 128.918 56.2733C128.924 56.2775 128.932 56.2796 128.939 56.2795L136.518 56.131C136.524 56.1311 136.529 56.1299 136.534 56.1276C136.539 56.1252 136.543 56.1216 136.546 56.1172C136.55 56.1129 136.552 56.1078 136.553 56.1024C136.554 56.097 136.553 56.0915 136.551 56.0864L134.791 49.8253C134.789 49.8181 134.784 49.8118 134.778 49.8073C134.772 49.8028 134.765 49.8003 134.757 49.8001Z" fill="#0F9CDA" stroke="white" stroke-width="0.115258" stroke-miterlimit="10"/>
</svg>
