<svg width="300" height="100" viewBox="0 0 300 100" fill="none" xmlns="http://www.w3.org/2000/svg">
<rect width="300" height="100" fill="white"/>
<g clip-path="url(#clip0_298_11429)">
<path d="M167.414 34.4204C168.029 34.4204 168.55 34.2078 168.975 33.7826C169.4 33.3574 169.613 32.837 169.613 32.2212C169.613 31.5908 169.4 31.0629 168.975 30.6378C168.55 30.2126 168.029 30 167.414 30C166.798 30 166.277 30.2126 165.853 30.6378C165.427 31.0629 165.215 31.5908 165.215 32.2212C165.215 32.837 165.427 33.3574 165.853 33.7826C166.277 34.2078 166.798 34.4204 167.414 34.4204Z" fill="#4522A9"/>
<path d="M165.545 35.168V47.4395H169.305V35.168H165.545Z" fill="#4522A9"/>
<path d="M151.177 47.4395H154.937V42.5354L158.808 47.4395H163.8L158.544 41.4358L163.8 35.1681H158.742L154.937 40.2922V31.1655H151.177V47.4395Z" fill="#4522A9"/>
<path fill-rule="evenodd" clip-rule="evenodd" d="M176.371 36.7735C177.207 35.6152 178.401 35.0361 179.956 35.0361C181.524 35.0361 182.851 35.6299 183.936 36.8175C185.021 37.9904 185.563 39.4932 185.563 41.3258C185.563 43.1584 185.021 44.6612 183.936 45.8342C182.851 47.0071 181.539 47.5935 180 47.5935C178.46 47.5935 177.251 46.9484 176.371 45.6582V47.4395H172.61V31.1655H176.371V36.7735ZM180.923 43.569C181.466 43.0412 181.737 42.2935 181.737 41.3258C181.737 40.3582 181.466 39.6104 180.923 39.0826C180.381 38.5548 179.757 38.2909 179.054 38.2909C178.35 38.2909 177.727 38.5548 177.185 39.0826C176.642 39.5958 176.371 40.3362 176.371 41.3038C176.371 42.2715 176.642 43.0192 177.185 43.547C177.727 44.0748 178.35 44.3387 179.054 44.3387C179.757 44.3387 180.381 44.0822 180.923 43.569Z" fill="#4522A9"/>
<path fill-rule="evenodd" clip-rule="evenodd" d="M187.086 41.2818C187.086 43.1731 187.702 44.6979 188.933 45.8561C190.18 47.0144 191.711 47.5935 193.529 47.5935C195.348 47.5935 196.865 47.0144 198.082 45.8561C199.299 44.6979 199.907 43.1731 199.907 41.2818C199.907 39.3905 199.292 37.8804 198.06 36.7515C196.843 35.6079 195.326 35.0361 193.508 35.0361C191.689 35.0361 190.165 35.6079 188.933 36.7515C187.702 37.8804 187.086 39.3905 187.086 41.2818ZM196.081 41.3039C196.081 42.3008 195.831 43.0632 195.333 43.591C194.834 44.1188 194.233 44.3827 193.529 44.3827C192.826 44.3827 192.21 44.1188 191.682 43.591C191.169 43.0632 190.913 42.3008 190.913 41.3039C190.913 40.3069 191.162 39.5518 191.66 39.0386C192.173 38.5109 192.782 38.2469 193.486 38.2469C194.19 38.2469 194.798 38.5109 195.311 39.0386C195.824 39.5518 196.081 40.3069 196.081 41.3039Z" fill="#4522A9"/>
<path d="M189.375 52.2884C189.539 52.1518 189.796 52.0835 190.143 52.0835L190.254 51.4346C189.656 51.4346 189.201 51.5569 188.888 51.8017C188.575 52.0408 188.37 52.4222 188.273 52.9459L188.213 53.279H187.615L187.505 53.9194H188.102L187.393 57.9584H188.171L188.888 53.9194H189.87L189.981 53.279H188.999L189.059 52.9459C189.11 52.6386 189.215 52.4194 189.375 52.2884Z" fill="#4522A9"/>
<path d="M161.931 51.6392V53.9959C162.244 53.4494 162.745 53.1761 163.433 53.1761C163.963 53.1761 164.398 53.3527 164.74 53.7056C165.087 54.0585 165.261 54.551 165.261 55.1829V57.9581H164.296V55.328C164.296 54.9068 164.19 54.5851 163.98 54.3631C163.769 54.1354 163.482 54.0215 163.117 54.0215C162.753 54.0215 162.463 54.1354 162.247 54.3631C162.036 54.5851 161.931 54.9068 161.931 55.328V57.9581H160.957V51.6392H161.931Z" fill="#4522A9"/>
<path d="M151.819 52.9629C152.002 52.8149 152.238 52.7409 152.528 52.7409C152.819 52.7409 153.049 52.8177 153.22 52.9714C153.391 53.1252 153.487 53.3158 153.51 53.5435H154.586C154.546 53.0255 154.347 52.6299 153.988 52.3566C153.635 52.0834 153.16 51.9468 152.562 51.9468C151.97 51.9468 151.486 52.1061 151.111 52.4249C150.741 52.738 150.556 53.1536 150.556 53.6716C150.556 53.9733 150.613 54.2295 150.726 54.4402C150.846 54.6451 150.997 54.8016 151.179 54.9098C151.367 55.018 151.572 55.1062 151.794 55.1745C152.022 55.2428 152.246 55.3026 152.468 55.3539C152.69 55.405 152.893 55.4648 153.075 55.5332C153.263 55.5958 153.413 55.6925 153.527 55.8235C153.647 55.9544 153.707 56.1366 153.707 56.37C153.707 56.6034 153.61 56.8054 153.416 56.9762C153.228 57.147 152.969 57.2324 152.639 57.2324C152.309 57.2324 152.059 57.1556 151.888 57.0019C151.717 56.8482 151.62 56.6404 151.597 56.3785H150.556C150.556 56.8908 150.749 57.2922 151.136 57.5825C151.523 57.8729 152.027 58.018 152.648 58.018C153.268 58.018 153.763 57.8444 154.134 57.4971C154.504 57.1498 154.689 56.7571 154.689 56.3187C154.689 55.8804 154.58 55.5417 154.364 55.3026C154.148 55.0635 153.886 54.9013 153.579 54.8159C153.271 54.7248 152.964 54.6451 152.656 54.5767C152.349 54.5085 152.087 54.4003 151.871 54.2523C151.654 54.1043 151.546 53.8908 151.546 53.6119C151.546 53.3272 151.637 53.1109 151.819 52.9629Z" fill="#4522A9"/>
<path d="M156.153 57.369C156.58 57.813 157.135 58.035 157.818 58.035C158.376 58.035 158.843 57.8955 159.219 57.6166C159.594 57.332 159.851 56.9505 159.987 56.4724H158.937C158.754 56.9676 158.382 57.2153 157.818 57.2153C157.42 57.2153 157.101 57.073 156.862 56.7883C156.628 56.5037 156.512 56.108 156.512 55.6014C156.512 55.0948 156.628 54.702 156.862 54.423C157.101 54.1384 157.42 53.996 157.818 53.996C158.388 53.996 158.76 54.2437 158.937 54.7389H159.987C159.856 54.238 159.603 53.8537 159.227 53.5862C158.857 53.3129 158.388 53.1763 157.818 53.1763C157.141 53.1763 156.586 53.3983 156.153 53.8424C155.726 54.2864 155.513 54.8756 155.513 55.61C155.513 56.3386 155.726 56.9249 156.153 57.369Z" fill="#4522A9"/>
<path fill-rule="evenodd" clip-rule="evenodd" d="M166.853 57.369C167.297 57.813 167.861 58.035 168.544 58.035C169.232 58.035 169.81 57.8101 170.277 57.3604C170.749 56.9107 170.986 56.3243 170.986 55.6014C170.986 54.8784 170.755 54.2949 170.294 53.8509C169.839 53.4011 169.269 53.1763 168.586 53.1763C167.903 53.1763 167.331 53.4011 166.87 53.8509C166.414 54.2949 166.187 54.8813 166.187 55.61C166.187 56.3329 166.409 56.9192 166.853 57.369ZM169.986 55.6014C169.986 56.108 169.844 56.5037 169.56 56.7883C169.275 57.073 168.937 57.2153 168.544 57.2153C168.156 57.2153 167.832 57.0758 167.57 56.7969C167.308 56.5122 167.177 56.1166 167.177 55.61C167.177 55.0976 167.311 54.702 167.578 54.423C167.846 54.1384 168.177 53.996 168.569 53.996C168.962 53.996 169.295 54.1384 169.568 54.423C169.847 54.702 169.986 55.0948 169.986 55.6014Z" fill="#4522A9"/>
<path fill-rule="evenodd" clip-rule="evenodd" d="M173.989 58.035C173.306 58.035 172.742 57.813 172.298 57.369C171.854 56.9192 171.632 56.3329 171.632 55.61C171.632 54.8813 171.859 54.2949 172.315 53.8509C172.776 53.4011 173.348 53.1763 174.032 53.1763C174.714 53.1763 175.284 53.4011 175.739 53.8509C176.2 54.2949 176.431 54.8784 176.431 55.6014C176.431 56.3243 176.194 56.9107 175.722 57.3604C175.255 57.8101 174.677 58.035 173.989 58.035ZM175.005 56.7883C175.289 56.5037 175.432 56.108 175.432 55.6014C175.432 55.0948 175.292 54.702 175.014 54.423C174.74 54.1384 174.407 53.996 174.014 53.996C173.622 53.996 173.291 54.1384 173.024 54.423C172.756 54.702 172.622 55.0976 172.622 55.61C172.622 56.1166 172.753 56.5122 173.015 56.7969C173.277 57.0758 173.601 57.2153 173.989 57.2153C174.382 57.2153 174.72 57.073 175.005 56.7883Z" fill="#4522A9"/>
<path d="M177.393 51.6392V57.9581H178.367V51.6392H177.393Z" fill="#4522A9"/>
<path fill-rule="evenodd" clip-rule="evenodd" d="M183.844 58.0353C183.451 58.0353 183.104 57.9555 182.803 57.7962C182.506 57.6311 182.276 57.4034 182.111 57.113C181.946 56.817 181.864 56.4755 181.864 56.0884C181.864 55.559 181.986 55.0751 182.23 54.6367C182.475 54.1927 182.811 53.8426 183.238 53.5864C183.67 53.3303 184.152 53.2021 184.681 53.2021C185.074 53.2021 185.421 53.2847 185.723 53.4498C186.03 53.6092 186.266 53.8369 186.432 54.1329C186.603 54.4233 186.688 54.7648 186.688 55.1576C186.688 55.687 186.563 56.1709 186.312 56.6092C186.062 57.0476 185.72 57.3948 185.287 57.651C184.855 57.9072 184.374 58.0353 183.844 58.0353ZM183.938 57.3777C184.308 57.3777 184.641 57.2781 184.937 57.0789C185.233 56.874 185.464 56.6064 185.629 56.2762C185.8 55.9404 185.885 55.5817 185.885 55.2003C185.885 54.7677 185.76 54.4375 185.509 54.2098C185.259 53.9764 184.946 53.8597 184.57 53.8597C184.2 53.8597 183.87 53.9621 183.579 54.1671C183.289 54.3663 183.065 54.6339 182.905 54.9697C182.746 55.3056 182.666 55.6671 182.666 56.0542C182.666 56.4755 182.785 56.8028 183.025 57.0362C183.264 57.2639 183.568 57.3777 183.938 57.3777Z" fill="#4522A9"/>
<path d="M150.376 62.2145V61.4546H154.518V62.2145H152.938V67.3892H151.964V62.2145H150.376Z" fill="#4522A9"/>
<path fill-rule="evenodd" clip-rule="evenodd" d="M155.82 66.8001C156.247 67.2441 156.802 67.4661 157.485 67.4661C158.037 67.4661 158.501 67.3295 158.877 67.0562C159.253 66.7773 159.511 66.4215 159.654 65.9889H158.603C158.387 66.4272 158.014 66.6464 157.485 66.6464C157.12 66.6464 156.816 66.5325 156.571 66.3048C156.332 66.0714 156.201 65.7583 156.178 65.3655H159.782C159.804 65.2232 159.816 65.0695 159.816 64.9044C159.816 64.2213 159.603 63.6691 159.175 63.2478C158.749 62.8209 158.191 62.6074 157.502 62.6074C156.819 62.6074 156.261 62.8295 155.828 63.2735C155.396 63.7118 155.179 64.2981 155.179 65.0325C155.179 65.7668 155.393 66.3561 155.82 66.8001ZM158.415 63.7773C158.666 64.005 158.794 64.3124 158.8 64.6995H156.187C156.221 64.3124 156.358 64.005 156.597 63.7773C156.841 63.5439 157.143 63.4272 157.502 63.4272C157.861 63.4272 158.165 63.5439 158.415 63.7773Z" fill="#4522A9"/>
<path d="M162.755 67.4661C162.071 67.4661 161.517 67.2441 161.089 66.8001C160.663 66.3561 160.449 65.7697 160.449 65.041C160.449 64.3067 160.663 63.7175 161.089 63.2735C161.523 62.8295 162.077 62.6074 162.755 62.6074C163.324 62.6074 163.794 62.7441 164.164 63.0173C164.539 63.2849 164.793 63.6691 164.924 64.17H163.873C163.697 63.6748 163.324 63.4272 162.755 63.4272C162.356 63.4272 162.037 63.5695 161.798 63.8541C161.565 64.133 161.448 64.5259 161.448 65.0325C161.448 65.5391 161.565 65.9348 161.798 66.2194C162.037 66.5041 162.356 66.6464 162.755 66.6464C163.318 66.6464 163.691 66.3987 163.873 65.9035H164.924C164.787 66.3817 164.531 66.7631 164.155 67.0477C163.779 67.3267 163.313 67.4661 162.755 67.4661Z" fill="#4522A9"/>
<path d="M166.867 63.4271V61.0703H165.894V67.3892H166.867V64.7592C166.867 64.3379 166.972 64.0163 167.183 63.7943C167.4 63.5665 167.69 63.4527 168.054 63.4527C168.419 63.4527 168.706 63.5665 168.917 63.7943C169.127 64.0163 169.233 64.3379 169.233 64.7592V67.3892H170.197V64.614C170.197 63.9821 170.024 63.4897 169.677 63.1367C169.335 62.7838 168.899 62.6074 168.37 62.6074C167.681 62.6074 167.181 62.8806 166.867 63.4271Z" fill="#4522A9"/>
<path d="M172.412 62.6843V63.4272C172.726 62.8806 173.227 62.6074 173.915 62.6074C174.445 62.6074 174.88 62.7839 175.222 63.1368C175.569 63.4898 175.743 63.9822 175.743 64.6141V67.3893H174.778V64.7592C174.778 64.338 174.673 64.0164 174.462 63.7943C174.251 63.5666 173.964 63.4528 173.6 63.4528C173.235 63.4528 172.945 63.5666 172.728 63.7943C172.518 64.0164 172.412 64.338 172.412 64.7592V67.3893H171.439V62.6843H172.412Z" fill="#4522A9"/>
<path fill-rule="evenodd" clip-rule="evenodd" d="M177.335 66.8001C177.779 67.2441 178.342 67.4661 179.025 67.4661C179.714 67.4661 180.292 67.2413 180.759 66.7915C181.232 66.3418 181.468 65.7555 181.468 65.0325C181.468 64.3095 181.237 63.726 180.776 63.282C180.32 62.8323 179.751 62.6074 179.068 62.6074C178.385 62.6074 177.813 62.8323 177.352 63.282C176.897 63.726 176.669 64.3124 176.669 65.041C176.669 65.764 176.891 66.3504 177.335 66.8001ZM180.469 65.0325C180.469 65.5391 180.326 65.9348 180.041 66.2194C179.757 66.5041 179.418 66.6464 179.025 66.6464C178.639 66.6464 178.314 66.5069 178.052 66.2279C177.79 65.9433 177.659 65.5477 177.659 65.041C177.659 64.5287 177.793 64.133 178.061 63.8541C178.328 63.5695 178.658 63.4272 179.051 63.4272C179.444 63.4272 179.777 63.5695 180.05 63.8541C180.329 64.133 180.469 64.5259 180.469 65.0325Z" fill="#4522A9"/>
<path d="M182.43 67.3892V61.0703H183.403V67.3892H182.43Z" fill="#4522A9"/>
<path fill-rule="evenodd" clip-rule="evenodd" d="M185.032 66.8001C185.476 67.2441 186.039 67.4661 186.722 67.4661C187.411 67.4661 187.989 67.2413 188.456 66.7915C188.928 66.3418 189.164 65.7555 189.164 65.0325C189.164 64.3095 188.934 63.726 188.473 63.282C188.017 62.8323 187.448 62.6074 186.765 62.6074C186.082 62.6074 185.51 62.8323 185.048 63.282C184.593 63.726 184.365 64.3124 184.365 65.041C184.365 65.764 184.588 66.3504 185.032 66.8001ZM188.165 65.0325C188.165 65.5391 188.023 65.9348 187.738 66.2194C187.454 66.5041 187.115 66.6464 186.722 66.6464C186.335 66.6464 186.011 66.5069 185.749 66.2279C185.487 65.9433 185.356 65.5477 185.356 65.041C185.356 64.5287 185.49 64.133 185.757 63.8541C186.025 63.5695 186.355 63.4272 186.748 63.4272C187.141 63.4272 187.474 63.5695 187.747 63.8541C188.026 64.133 188.165 64.5259 188.165 65.0325Z" fill="#4522A9"/>
<path fill-rule="evenodd" clip-rule="evenodd" d="M192.022 67.4661C191.396 67.4661 190.87 67.2384 190.443 66.783C190.016 66.3219 189.802 65.7355 189.802 65.0239C189.802 64.3067 190.013 63.726 190.434 63.282C190.861 62.8323 191.39 62.6074 192.022 62.6074C192.392 62.6074 192.717 62.6928 192.996 62.8636C193.28 63.0287 193.499 63.2478 193.654 63.5211V62.6843H194.635V67.4661C194.635 68.1265 194.43 68.6644 194.021 69.08C193.616 69.5013 193.076 69.7119 192.398 69.7119C191.721 69.7119 191.171 69.561 190.75 69.2593C190.329 68.9633 190.09 68.5591 190.033 68.0468H190.998C191.072 68.2915 191.228 68.4879 191.468 68.636C191.712 68.7897 192.016 68.8665 192.381 68.8665C192.745 68.8665 193.047 68.747 193.286 68.5079C193.531 68.2688 193.654 67.9216 193.654 67.4661V66.5097C193.494 66.8001 193.275 67.0335 192.996 67.21C192.717 67.3808 192.392 67.4661 192.022 67.4661ZM193.226 66.1938C193.511 65.9035 193.654 65.5163 193.654 65.0325C193.654 64.5486 193.511 64.1644 193.226 63.8797C192.948 63.5951 192.614 63.4528 192.228 63.4528C191.84 63.4528 191.505 63.5922 191.22 63.8712C190.941 64.1501 190.801 64.5315 190.801 65.0154C190.801 65.4993 190.941 65.8893 191.22 66.1853C191.505 66.4756 191.84 66.6208 192.228 66.6208C192.614 66.6208 192.948 66.4784 193.226 66.1938Z" fill="#4522A9"/>
<path d="M195.359 62.6841L197.212 67.3122L196.255 69.6007H197.263L200.149 62.6841H199.142L197.767 66.2705L196.443 62.6841H195.359Z" fill="#4522A9"/>
<path d="M109.816 56.4746H128.899L119.357 43.2373L109.816 56.4746Z" fill="#FF8A00"/>
<path d="M112.124 63.3171H119.716L115.92 57.1055L112.124 63.3171Z" fill="#01AB9D"/>
<path d="M120.884 63.3171H130.228L125.556 57.1055L120.884 63.3171Z" fill="#00CCBB"/>
<path d="M130.228 63.3169H136.652L133.44 58.7993L130.228 63.3169Z" fill="#00CCBB"/>
<path d="M129.644 56.5405H138.988L134.316 49.7642L129.644 56.5405Z" fill="#FFB800"/>
<path d="M99.8594 56.4923H108.684L104.272 49.6001L99.8594 56.4923Z" fill="#4688F1"/>
<path d="M103.948 63.3171H111.54L107.744 58.2349L103.948 63.3171Z" fill="#4688F1"/>
<path d="M105.742 49.2205H113.843L110.269 42.3105L105.742 49.2205Z" fill="#4688F1"/>
<path d="M133.732 49.1997H124.813L129.352 42.4233L133.732 49.1997Z" fill="#FFC804"/>
<path d="M120.299 41.8584H128.475L124.387 36.2114L120.299 41.8584Z" fill="#FF8A00"/>
<path d="M129.644 41.8584H137.82L133.732 36.2114L129.644 41.8584Z" fill="#FF8A00"/>
<path d="M111.54 41.8584H118.548L115.044 36.2114L111.54 41.8584Z" fill="#9570FF"/>
<path d="M108.035 35.6472H113.875L111.289 31.6943L108.035 35.6472Z" fill="#9570FF"/>
<path d="M109.024 68.3993H115.473L112.388 64.4609L109.024 68.3993Z" fill="#01AB9D"/>
<path d="M124.971 35.6472H131.395L128.094 31.6943L124.971 35.6472Z" fill="#FF8A00"/>
<path d="M123.958 68.3994H130.068L127.146 64.1328L123.958 68.3994Z" fill="#00CCBB"/>
<path d="M102.195 41.8584H109.787L105.991 36.2114L102.195 41.8584Z" fill="#9570FF"/>
<path d="M115.627 35.647H123.803L119.715 30L115.627 35.647Z" fill="#9570FF"/>
<path d="M115.473 69.7121H123.958L119.716 64.4609L115.473 69.7121Z" fill="#01AB9D"/>
<path d="M99.8596 49.1997H105.7L102.78 44.6821L99.8596 49.1997Z" fill="#4688F1"/>
<path d="M139.571 49.1997H133.731L136.651 44.6821L139.571 49.1997Z" fill="#FFC804"/>
<path fill-rule="evenodd" clip-rule="evenodd" d="M144.656 69.7121V30H145.292V69.7121H144.656Z" fill="#4522A9"/>
</g>
<defs>
<clipPath id="clip0_298_11429">
<rect width="100.29" height="40" fill="white" transform="translate(99.8594 30)"/>
</clipPath>
</defs>
</svg>
