<svg width="300" height="100" viewBox="0 0 300 100" fill="none" xmlns="http://www.w3.org/2000/svg">
<rect width="300" height="100" fill="white"/>
<path d="M146.46 62.6907V44.9771H149.7V52.1389L156.254 44.9771H160.254L153.724 52.0134L160.43 62.6925H156.458L151.396 54.4925L149.7 56.3407V62.6925H146.46V62.6907ZM162.572 62.6907V44.4707H165.812V62.6925H162.572V62.6907ZM173.45 62.9952C172.37 62.9952 171.484 62.8262 170.792 62.4889C170.101 62.1343 169.586 61.6707 169.249 61.098C168.911 60.5227 168.735 59.8661 168.742 59.1989C168.742 58.0352 169.198 57.0898 170.109 56.3643C171.02 55.6389 172.387 55.2762 174.209 55.2762H177.398V54.9725C177.398 54.1125 177.152 53.4798 176.663 53.0743C176.174 52.6698 175.567 52.4671 174.841 52.4671C174.183 52.4671 173.61 52.628 173.12 52.9489C172.631 53.2516 172.328 53.7071 172.21 54.3152H169.046C169.13 53.4034 169.434 52.6107 169.957 51.9362C170.497 51.2607 171.189 50.7462 172.032 50.3925C172.876 50.0207 173.82 49.8352 174.867 49.8352C176.655 49.8352 178.064 50.2825 179.093 51.1771C180.122 52.0707 180.637 53.3362 180.637 54.9725V62.6907H177.879L177.575 60.6671C177.2 61.3461 176.66 61.9203 176.006 62.3371C175.348 62.7762 174.496 62.9952 173.45 62.9952ZM174.183 60.4643C175.111 60.4643 175.829 60.1607 176.335 59.5534C176.858 58.9462 177.187 58.1952 177.321 57.3007H174.563C173.702 57.3007 173.087 57.4616 172.716 57.7825C172.344 58.0852 172.159 58.4643 172.159 58.9207C172.159 59.4098 172.344 59.7898 172.716 60.0598C173.087 60.3298 173.576 60.4643 174.183 60.4643ZM188.916 62.9952C187.802 62.9952 186.824 62.818 185.98 62.4634C185.137 62.0925 184.462 61.5862 183.956 60.9452C183.449 60.303 183.134 59.5312 183.045 58.718H186.31C186.41 59.208 186.68 59.6298 187.119 59.9834C187.575 60.3207 188.157 60.4898 188.866 60.4898C189.575 60.4898 190.089 60.3462 190.41 60.0598C190.747 59.7725 190.916 59.4434 190.916 59.0725C190.916 58.5325 190.68 58.1698 190.207 57.9843C189.734 57.7816 189.077 57.588 188.233 57.4025C187.679 57.2806 187.13 57.1368 186.588 56.9716C186.054 56.8124 185.537 56.6008 185.044 56.3398C184.605 56.085 184.226 55.7398 183.93 55.3271C183.644 54.9052 183.5 54.3907 183.5 53.7834C183.5 52.6698 183.939 51.7334 184.816 50.9743C185.71 50.2152 186.96 49.8352 188.561 49.8352C190.047 49.8352 191.228 50.1807 192.105 50.8734C193 51.5643 193.53 52.518 193.7 53.7325H190.637C190.451 52.8052 189.751 52.3416 188.537 52.3416C187.93 52.3416 187.457 52.4589 187.119 52.6952C186.799 52.9316 186.639 53.2262 186.639 53.5807C186.639 53.9516 186.883 54.2471 187.372 54.4662C187.861 54.6862 188.511 54.8889 189.321 55.0743C190.199 55.2762 191 55.5043 191.725 55.7571C192.468 55.9934 193.059 56.3571 193.497 56.8452C193.936 57.318 194.155 58.0016 194.155 58.8952C194.18 59.6419 193.967 60.3772 193.548 60.9953C193.126 61.6198 192.519 62.1098 191.725 62.4634C190.932 62.818 189.996 62.9952 188.916 62.9952Z" fill="url(#paint0_linear_298_11415)"/>
<g filter="url(#filter0_d_298_11415)">
<path d="M121.29 68.1671C130.753 68.1671 138.425 61.4254 138.425 53.109C138.425 44.7926 130.753 38.0508 121.29 38.0508C111.826 38.0508 104.154 44.7926 104.154 53.109C104.154 61.4254 111.826 68.1671 121.29 68.1671Z" fill="white"/>
</g>
<g filter="url(#filter1_f_298_11415)">
<path d="M121.29 65.0511C130.753 65.0511 138.425 57.6117 138.425 48.4347C138.425 39.2578 130.753 31.8184 121.29 31.8184C111.826 31.8184 104.154 39.2578 104.154 48.4347C104.154 57.6117 111.826 65.0511 121.29 65.0511Z" fill="#6C6C6C"/>
</g>
<path d="M121.29 64.0111C130.753 64.0111 138.425 56.8045 138.425 47.9147C138.425 39.0249 130.753 31.8184 121.29 31.8184C111.826 31.8184 104.154 39.0249 104.154 47.9147C104.154 56.8045 111.826 64.0111 121.29 64.0111Z" fill="#F7F7F7"/>
<path d="M121.289 60.8973C129.032 60.8973 135.309 54.8528 135.309 47.3964C135.309 39.9401 129.032 33.8955 121.289 33.8955C113.546 33.8955 107.269 39.9401 107.269 47.3964C107.269 54.8528 113.546 60.8973 121.289 60.8973Z" fill="url(#paint1_linear_298_11415)"/>
<path d="M115.576 50.5136C117.297 50.5136 118.691 49.1188 118.691 47.3982C118.691 45.6776 117.297 44.2827 115.576 44.2827C113.855 44.2827 112.46 45.6776 112.46 47.3982C112.46 49.1188 113.855 50.5136 115.576 50.5136Z" fill="white"/>
<path d="M127 50.5136C128.72 50.5136 130.115 49.1188 130.115 47.3982C130.115 45.6776 128.72 44.2827 127 44.2827C125.279 44.2827 123.884 45.6776 123.884 47.3982C123.884 49.1188 125.279 50.5136 127 50.5136Z" fill="white"/>
<defs>
<filter id="filter0_d_298_11415" x="103.266" y="38.0508" width="36.047" height="31.8922" filterUnits="userSpaceOnUse" color-interpolation-filters="sRGB">
<feFlood flood-opacity="0" result="BackgroundImageFix"/>
<feColorMatrix in="SourceAlpha" type="matrix" values="0 0 0 0 0 0 0 0 0 0 0 0 0 0 0 0 0 0 127 0" result="hardAlpha"/>
<feOffset dy="0.888"/>
<feGaussianBlur stdDeviation="0.444"/>
<feComposite in2="hardAlpha" operator="out"/>
<feColorMatrix type="matrix" values="0 0 0 0 0 0 0 0 0 0 0 0 0 0 0 0 0 0 0.25 0"/>
<feBlend mode="normal" in2="BackgroundImageFix" result="effect1_dropShadow_298_11415"/>
<feBlend mode="normal" in="SourceGraphic" in2="effect1_dropShadow_298_11415" result="shape"/>
</filter>
<filter id="filter1_f_298_11415" x="103.012" y="30.6764" width="36.555" height="35.5169" filterUnits="userSpaceOnUse" color-interpolation-filters="sRGB">
<feFlood flood-opacity="0" result="BackgroundImageFix"/>
<feBlend mode="normal" in="SourceGraphic" in2="BackgroundImageFix" result="shape"/>
<feGaussianBlur stdDeviation="0.571" result="effect1_foregroundBlur_298_11415"/>
</filter>
<linearGradient id="paint0_linear_298_11415" x1="170.06" y1="38.1462" x2="170.06" y2="70.8734" gradientUnits="userSpaceOnUse">
<stop stop-color="#0473E8"/>
<stop offset="1" stop-color="#7A46FD"/>
</linearGradient>
<linearGradient id="paint1_linear_298_11415" x1="121.289" y1="33.8955" x2="121.289" y2="60.8964" gradientUnits="userSpaceOnUse">
<stop stop-color="#0374E8"/>
<stop offset="1" stop-color="#7A46FD"/>
</linearGradient>
</defs>
</svg>
