<svg width="300" height="100" viewBox="0 0 300 100" fill="none" xmlns="http://www.w3.org/2000/svg">
<rect width="300" height="100" fill="white"/>
<path d="M175.442 38.42C174.946 37.8672 174.11 37.3428 173.103 37.3428C169.872 37.3428 168.809 40.2342 168.809 42.9555C168.809 45.4926 169.914 48.0013 172.961 48.0013C173.798 48.0013 174.776 47.5194 175.087 46.995V47.8738C175.087 49.447 174.96 50.1982 172.919 50.1982C171.941 50.1982 170.793 49.8439 169.787 49.3195L169.12 51.2046C170.439 51.8565 171.686 52.2534 173.061 52.2534C174.124 52.2534 175.626 52.0833 176.59 51.2471C177.61 50.4108 177.653 48.9226 177.653 47.4769L177.667 37.3145L175.64 37.6404C175.64 37.6121 175.484 38.1932 175.442 38.42ZM175.087 43.7351C175.087 44.217 175.045 44.6989 174.861 45.0957C174.634 45.5777 174.195 45.8895 173.628 45.8895C171.998 45.8895 171.813 44.7556 171.813 42.6012C171.813 40.6736 172.168 39.5397 173.585 39.5397C174.294 39.5397 174.818 39.894 175.087 40.1917V43.7351Z" fill="#D0103A"/>
<path d="M165.436 63.2382L165.45 59.7373C165.45 58.6601 165.407 58.3342 165.266 57.8948C164.869 56.7609 163.678 56.0947 161.906 56.0947C160.928 56.0947 160.05 56.2648 159.029 56.7042C158.462 56.9451 157.909 57.257 157.385 57.5688L158.391 59.3547C159.639 58.5751 160.617 58.2633 161.495 58.2633C162.516 58.2633 162.757 58.7168 162.757 59.8507V60.2476H162.119C158.802 60.2476 157.13 61.3815 157.13 63.791C157.13 65.6619 158.15 66.8241 160.106 67.0084H161.212C161.836 66.9375 162.36 66.7391 162.785 66.4698C163.012 66.3422 163.225 66.1154 163.451 65.8887C163.678 66.3281 164.103 66.7391 164.585 67.0084L164.911 67.1643L165.053 67.0084L166.456 65.506C165.535 64.8115 165.436 64.3012 165.436 63.2382ZM161.254 65.0808C160.546 65.0808 160.064 64.5138 160.064 63.7201C160.064 62.487 160.687 62.0335 162.587 62.0335H162.743V64.443C162.332 64.8823 161.779 65.0808 161.254 65.0808Z" fill="#D0103A"/>
<path d="M115.303 33.8281H104.291V44.756L109.832 50.2695L120.859 39.3416L115.303 33.8281Z" fill="#D0103A"/>
<path d="M104.291 55.7831V66.7251H115.303L120.859 61.2115L109.832 50.2695L104.291 55.7831Z" fill="#D0103A"/>
<path d="M126.401 66.7251H137.357V55.698L131.886 50.2695L120.859 61.2115L126.401 66.7251Z" fill="#D0103A"/>
<path d="M120.859 39.3416L131.886 50.2695L137.357 44.841V33.8281H126.401L120.859 39.3416Z" fill="#D0103A"/>
<path d="M195.654 46.0171C195.172 46.1447 194.945 46.2439 194.69 46.2439C193.754 46.2439 193.499 45.8895 193.499 44.5714V39.398H195.214L195.923 37.513H193.499V34.6641L190.806 35.1034V37.513H189.743V39.398H190.806V45.0108C190.806 45.9746 190.806 46.1447 190.976 46.5982C191.288 47.5195 192.394 48.129 193.754 48.129C194.463 48.129 195.214 47.9589 196.008 47.6471L195.654 46.0171Z" fill="#D0103A"/>
<path d="M145.535 40.5322L149.802 47.86H153.402L148.512 40.3196L152.92 33.8281H149.561L145.535 40.2346V33.8281H142.672V47.86H145.535V40.5322Z" fill="#D0103A"/>
<path d="M158.76 39.6105C159.511 39.6105 159.724 40.0924 159.724 41.2689V47.8454H162.374V40.3192C162.374 39.6531 162.331 39.2279 162.204 38.831C161.892 37.9522 160.829 37.3428 159.681 37.3428C159.057 37.3428 158.363 37.4703 157.824 37.7822C157.385 38.0089 156.946 38.3491 156.634 38.746L156.464 37.3711L154.167 37.7396V47.8596H156.903V41.7649C156.903 41.0137 157.13 40.4893 157.484 40.1491C157.881 39.7948 158.32 39.6105 158.76 39.6105Z" fill="#D0103A"/>
<path d="M164.443 47.8596H167.193V37.3003L164.443 37.7255V47.8596Z" fill="#D0103A"/>
<path d="M185.363 37.2579C184.173 37.2579 183.152 37.6973 182.401 38.5193C182.401 38.3918 182.444 37.7681 182.444 37.4705V33.5728L179.666 34.0263V47.8739H182.444V42.1619C182.444 41.1981 182.571 40.6454 182.883 40.2769C183.294 39.795 183.988 39.5257 184.612 39.5257C185.406 39.5257 185.675 39.965 185.675 40.9288V47.8597H188.326V40.6312C188.326 39.6249 188.283 39.3131 188.056 38.7461C187.744 37.8248 186.696 37.2579 185.363 37.2579Z" fill="#D0103A"/>
<path d="M165.832 32.9917C164.897 32.9917 164.146 33.7429 164.146 34.6784C164.146 35.6138 164.897 36.365 165.832 36.365C166.768 36.365 167.519 35.6138 167.519 34.6784C167.519 33.7571 166.768 32.9917 165.832 32.9917Z" fill="#D0103A"/>
<path d="M142.644 66.6539H145.422V60.4317H149.05V58.1639H145.422V54.8757H149.929L150.284 52.6362H142.644V66.6539Z" fill="#D0103A"/>
<path d="M153.161 57.668L152.892 56.2648L150.681 56.6192V66.6541H153.416V60.2476C153.416 59.7232 153.501 59.2838 153.813 58.9437C154.082 58.6602 154.522 58.4618 155.018 58.4618C155.33 58.4618 155.684 58.5468 155.953 58.6744L156.648 56.2648C156.208 56.0948 156.024 56.0522 155.627 56.0522C154.607 56.0522 153.6 56.9735 153.161 57.668Z" fill="#D0103A"/>
<path d="M177.993 52.9057V66.6541H180.729V60.7862V52.4663L177.993 52.9057Z" fill="#D0103A"/>
<path d="M186.738 56.3071H183.421L180.729 60.786L184.286 66.6538H187.489L183.379 60.6584L186.738 56.3071Z" fill="#D0103A"/>
<path d="M173.231 56.1372C172.607 56.1372 171.898 56.2648 171.374 56.5766C170.935 56.8034 170.495 57.1435 170.183 57.5404L170.013 56.1656L167.717 56.5341V66.654H170.453V60.5594C170.453 59.8082 170.68 59.2837 171.034 58.9294C171.431 58.5751 171.87 58.405 172.31 58.405C173.061 58.405 173.288 58.8869 173.288 60.0775V66.654H175.938V59.1137C175.938 58.4617 175.895 58.0223 175.768 57.6254C175.442 56.7608 174.379 56.1372 173.231 56.1372Z" fill="#D0103A"/>
</svg>
