<svg width="300" height="100" viewBox="0 0 300 100" fill="none" xmlns="http://www.w3.org/2000/svg">
<rect width="300" height="100" fill="white"/>
<g clip-path="url(#clip0_298_11392)">
<path fill-rule="evenodd" clip-rule="evenodd" d="M119.053 38.9917L112.351 47.8356L121.232 58.4615H114.913L109.29 51.6682L107.39 54.0646V58.4617H102.333V30.4718H107.289V46.3209L114.391 37.1416H120.455L119.053 38.9917ZM140.568 43.655C141.086 44.9449 141.348 46.3279 141.348 47.8015C141.348 49.3166 141.065 50.7414 140.501 52.075C139.94 53.3989 139.106 54.6143 137.998 55.7194L138.001 55.7215C136.903 56.8166 135.682 57.6371 134.344 58.1723C133.016 58.7036 131.585 58.946 130.056 58.8901C128.583 58.851 127.208 58.55 125.942 57.9871C124.677 57.4251 123.529 56.6061 122.508 55.5322C121.482 54.4531 120.717 53.2707 120.208 51.9857C119.699 50.6974 119.446 49.3134 119.446 47.8347C119.446 46.3015 119.727 44.8615 120.284 43.5254C120.841 42.1891 121.668 40.9708 122.76 39.8812L122.762 39.8833C123.861 38.7697 125.077 37.9414 126.404 37.4043C127.733 36.8664 129.169 36.6229 130.705 36.6791C132.186 36.7352 133.57 37.0482 134.845 37.6277C136.103 38.1995 137.245 39.0251 138.261 40.1125C139.28 41.1871 140.051 42.3684 140.568 43.655ZM124.726 50.0772C124.999 50.8061 125.423 51.4911 126.004 52.1279C126.589 52.7677 127.22 53.2466 127.902 53.5666C128.586 53.8869 129.339 54.0597 130.166 54.0877H130.184C131.069 54.1295 131.878 54.006 132.612 53.7101C133.347 53.4144 134.021 52.9412 134.636 52.2852L134.645 52.2716C135.29 51.6002 135.761 50.8836 136.064 50.1165C136.367 49.3501 136.509 48.5258 136.497 47.6372C136.468 46.7826 136.298 45.9944 135.991 45.2713C135.681 44.5462 135.23 43.8765 134.641 43.2597C134.067 42.6592 133.441 42.2138 132.76 41.9208C132.085 41.6302 131.343 41.4863 130.531 41.4863L130.513 41.4818C129.659 41.468 128.876 41.6141 128.158 41.9129C127.44 42.2118 126.778 42.6707 126.166 43.2801L126.168 43.2822C125.556 43.8933 125.103 44.5531 124.805 45.2671C124.501 45.9935 124.345 46.7868 124.331 47.6528C124.316 48.5181 124.446 49.3282 124.726 50.0772ZM142.311 52.0326C141.764 50.7082 141.51 49.286 141.543 47.768H141.539V30.4717H146.362V38.5846C146.841 38.2449 147.342 37.9506 147.865 37.7008C149.181 37.0725 150.621 36.7348 152.182 36.6794C153.719 36.6233 155.159 36.8599 156.495 37.3946C157.819 37.9238 159.03 38.7413 160.125 39.8502L160.127 39.848C161.231 40.9494 162.065 42.165 162.627 43.4987C163.05 44.5004 163.315 45.5554 163.421 46.6651C163.528 45.5643 163.79 44.5164 164.203 43.5255C164.759 42.1892 165.587 40.971 166.679 39.8814L166.681 39.8835C167.78 38.7698 168.996 37.9416 170.323 37.4044C171.652 36.8665 173.088 36.623 174.624 36.6792C176.105 36.7353 177.489 37.0484 178.764 37.6278C180.022 38.1996 181.164 39.0253 182.18 40.1127C183.199 41.1873 183.97 42.3683 184.487 43.6549C185.005 44.9449 185.267 46.3277 185.267 47.8014C185.267 49.3166 184.984 50.7412 184.42 52.0749C183.859 53.3987 183.024 54.6141 181.917 55.7193L181.919 55.7214C180.822 56.8166 179.601 57.6369 178.262 58.1722C176.934 58.7034 175.503 58.946 173.974 58.89C172.502 58.851 171.127 58.5498 169.86 57.9871C168.596 57.4249 167.447 56.606 166.426 55.5322C165.401 54.4531 164.636 53.2706 164.127 51.9855C163.751 51.0351 163.515 50.0328 163.417 48.9786C163.314 50.0172 163.072 51.0073 162.694 51.948C162.176 53.2384 161.402 54.4226 160.379 55.4988C159.359 56.5717 158.216 57.3889 156.958 57.9538C155.691 58.5233 154.312 58.8341 152.831 58.89C151.296 58.9461 149.861 58.702 148.521 58.1627C147.187 57.6255 145.957 56.8003 144.828 55.6925C143.698 54.583 142.86 53.3626 142.311 52.0326ZM150.305 53.7024C151.035 53.9999 151.834 54.1295 152.703 54.0877C153.533 54.0458 154.29 53.8643 154.98 53.5374C155.668 53.2116 156.3 52.7328 156.883 52.0946C157.469 51.4523 157.904 50.7651 158.186 50.0255C158.469 49.2834 158.604 48.4833 158.59 47.6194C158.576 46.7754 158.414 45.9951 158.106 45.2759C157.796 44.5599 157.333 43.8958 156.719 43.2823L156.709 43.2688C156.117 42.6631 155.464 42.2069 154.749 41.9042C154.044 41.6043 153.258 41.4532 152.39 41.4532C151.572 41.4532 150.818 41.5986 150.132 41.8926C149.446 42.1865 148.816 42.6301 148.246 43.2263C147.661 43.8389 147.212 44.5073 146.906 45.2341C146.601 45.9594 146.438 46.7426 146.424 47.586V47.604C146.395 48.4993 146.529 49.3329 146.827 50.1042C147.125 50.8741 147.594 51.5947 148.235 52.2648L148.237 52.2627C148.884 52.9228 149.573 53.4042 150.305 53.7024ZM168.645 50.0772C168.918 50.8061 169.342 51.4911 169.923 52.1279C170.508 52.7677 171.138 53.2466 171.821 53.5666C172.505 53.8869 173.258 54.0597 174.085 54.0877H174.103C174.988 54.1295 175.797 54.006 176.531 53.7101C177.266 53.4144 177.939 52.9412 178.555 52.2852L178.564 52.2716C179.209 51.6002 179.68 50.8836 179.983 50.1165C180.286 49.3501 180.428 48.5258 180.416 47.6372C180.387 46.7826 180.217 45.9944 179.91 45.2713C179.6 44.5462 179.149 43.8765 178.56 43.2597C177.986 42.6592 177.36 42.2138 176.679 41.9208C176.004 41.6302 175.262 41.4863 174.449 41.4863L174.431 41.4818C173.577 41.468 172.794 41.6141 172.077 41.9129C171.359 42.2118 170.696 42.6707 170.085 43.2801L170.087 43.2822C169.475 43.8933 169.022 44.5531 168.724 45.2671C168.42 45.9935 168.264 46.7868 168.25 47.6528C168.235 48.5181 168.365 49.3282 168.645 50.0772ZM191.88 57.8895C191.347 57.6341 190.836 57.334 190.347 56.9889V65.1313H185.558V47.8015C185.558 46.2818 185.838 44.8584 186.394 43.5369C186.95 42.2157 187.778 41.0062 188.872 39.9146H188.877C189.991 38.8029 191.217 37.9748 192.553 37.4366C193.886 36.8996 195.319 36.6569 196.851 36.7125C198.322 36.7517 199.685 37.0517 200.94 37.6124C202.201 38.1754 203.343 38.995 204.365 40.0704C205.387 41.1471 206.162 42.3308 206.681 43.6215C207.199 44.9116 207.46 46.2944 207.46 47.768C207.46 49.2965 207.18 50.7335 206.624 52.0735C206.069 53.4125 205.242 54.6384 204.15 55.746L204.146 55.7549C203.049 56.85 201.827 57.6704 200.489 58.2057C199.162 58.7368 197.731 58.9791 196.201 58.9234C194.638 58.8679 193.198 58.5217 191.88 57.8895ZM202.205 45.5734C201.924 44.8383 201.488 44.1508 200.901 43.5085C200.315 42.8649 199.681 42.3767 198.995 42.0486C198.313 41.7223 197.564 41.5429 196.741 41.5153H196.722C195.837 41.4733 195.028 41.5969 194.29 41.8927C193.551 42.1892 192.865 42.6665 192.228 43.3311L192.226 43.3293C191.599 43.9993 191.138 44.7152 190.838 45.4821C190.537 46.2526 190.395 47.0845 190.41 47.9833C190.424 48.8267 190.587 49.61 190.892 50.3351C191.197 51.062 191.647 51.7304 192.232 52.343C192.806 52.944 193.439 53.3895 194.129 53.6817C194.814 53.9723 195.575 54.1162 196.409 54.1162C198.095 54.1162 199.528 53.527 200.738 52.3206C201.355 51.7054 201.817 51.0427 202.124 50.3264C202.433 49.6031 202.595 48.8129 202.609 47.9501C202.623 47.1033 202.488 46.3117 202.205 45.5734ZM229.484 47.768H229.486V58.4615H224.697V56.958C224.115 57.3781 223.504 57.7307 222.866 58.0157C221.435 58.6547 219.879 58.946 218.198 58.8903H218.193C216.719 58.8346 215.353 58.5263 214.1 57.9614C212.844 57.3956 211.703 56.5763 210.679 55.4991C209.657 54.4229 208.884 53.2387 208.365 51.9482C207.846 50.6581 207.584 49.2751 207.584 47.8015C207.584 46.2682 207.866 44.8282 208.423 43.4921C208.98 42.1558 209.806 40.9376 210.898 39.8479L210.901 39.8502C211.998 38.7393 213.214 37.9204 214.55 37.39C215.888 36.859 217.331 36.6237 218.878 36.6793C220.364 36.7347 221.744 37.043 223.017 37.6124C224.294 38.1835 225.452 39.0115 226.491 40.1038C227.532 41.1803 228.306 42.3675 228.809 43.6603C229.307 44.9399 229.534 46.311 229.484 47.768ZM216.292 41.8923C215.58 42.185 214.921 42.6366 214.307 43.2489L214.304 43.2468C213.695 43.8555 213.244 44.5158 212.943 45.2341C212.639 45.9605 212.484 46.7537 212.469 47.6194C212.455 48.4849 212.584 49.2947 212.864 50.0439C213.137 50.7726 213.562 51.458 214.143 52.0946C214.718 52.7239 215.352 53.1996 216.042 53.5276C216.743 53.8609 217.506 54.0454 218.326 54.0877C219.211 54.1292 220.017 53.9994 220.746 53.7024C221.479 53.404 222.156 52.9271 222.78 52.2765L222.784 52.2719C223.427 51.6015 223.898 50.8771 224.202 50.1C224.507 49.3215 224.649 48.4833 224.635 47.5863C224.621 46.7428 224.458 45.9594 224.153 45.2344C223.848 44.5076 223.398 43.8392 222.812 43.2266C222.242 42.6301 221.614 42.1868 220.928 41.8929C220.242 41.5989 219.486 41.4535 218.669 41.4535C217.796 41.4535 217.005 41.5988 216.292 41.8923ZM246.278 37.1415H250.692L238.925 65.1313H233.712L237.045 56.7251L229.303 37.1415H234.555L239.889 50.3726L245.516 37.1415H246.278Z" fill="black"/>
<path fill-rule="evenodd" clip-rule="evenodd" d="M59.2383 30.2573L72.4671 43.4568L59.2383 57.1385H49.2109L62.8626 43.1554L49.9962 30.3175L59.2383 30.2573Z" fill="#9D22F9"/>
<path fill-rule="evenodd" clip-rule="evenodd" d="M76.2168 43.5273C76.5846 43.5867 76.4227 43.5412 76.7015 43.8047C78.2152 45.2348 81.1232 48.1016 81.7873 49.7984C82.6543 52.013 81.7233 54.5607 79.7796 55.9978C79.0651 56.5259 78.5289 56.5729 77.8719 56.9727C86.4044 56.4013 92.9347 46.2277 88.4328 37.4406C86.7611 34.1772 83.5553 31.2633 79.1212 30.323C76.8529 29.842 73.6113 30.0406 71.1735 30.0406C68.443 30.0406 65.6684 29.9921 62.9434 30.0465C63.2334 30.5207 65.6734 32.9047 66.2492 33.4787L72.9297 40.1572C73.5125 40.7424 75.9372 43.0135 76.2168 43.5273Z" fill="#9D22F9"/>
<path fill-rule="evenodd" clip-rule="evenodd" d="M76.7979 57.0165L71.4886 57.0151C71.4905 55.0282 71.5893 53.3458 71.9015 51.431C72.192 49.6476 72.6647 48.3049 73.033 46.6885C72.7899 46.8303 72.9252 46.7307 72.6757 46.9583L71.7991 47.7908C71.3868 48.1759 70.9976 48.4839 70.6058 48.8818L67.1711 52.1888C66.7548 52.5689 66.3973 52.8935 65.9723 53.2691C65.5555 53.6371 65.2667 54.024 64.8305 54.4068C60.3332 58.3543 61.9916 65.0144 63.4678 70.0009L76.6581 69.9738C74.1794 66.3141 71.7527 62.979 71.5028 57.0743L76.7979 57.0165Z" fill="url(#paint0_linear_298_11392)"/>
<path fill-rule="evenodd" clip-rule="evenodd" d="M73.0326 46.6877C72.6643 48.304 72.1917 49.6468 71.9012 51.4302C71.589 53.3449 71.4902 55.0273 71.4883 57.0142L76.7976 57.0157L77.8714 56.9729C78.5284 56.573 79.0647 56.5261 79.7792 55.9978C81.7228 54.5607 82.6538 52.013 81.7869 49.7985C81.1227 48.1016 78.2145 45.2348 76.701 43.8047C76.4222 43.5414 76.5843 43.5868 76.2163 43.5273C75.6958 44.0266 75.1452 44.6328 74.6035 45.1117C74.1767 45.4889 73.224 46.2181 73.0326 46.6877Z" fill="#300D61"/>
<path d="M72.6455 46.171L72.7039 45.9102" stroke="black" stroke-width="0.0762117" stroke-miterlimit="22.9256" stroke-linecap="round" stroke-linejoin="round"/>
</g>
<defs>
<linearGradient id="paint0_linear_298_11392" x1="62.1226" y1="58.9119" x2="76.7978" y2="59.1381" gradientUnits="userSpaceOnUse">
<stop stop-color="#47D7B6"/>
<stop offset="1" stop-color="#96DD8D"/>
</linearGradient>
<clipPath id="clip0_298_11392">
<rect width="201.481" height="40" fill="white" transform="translate(49.2109 30)"/>
</clipPath>
</defs>
</svg>
