<svg width="300" height="100" viewBox="0 0 300 100" fill="none" xmlns="http://www.w3.org/2000/svg">
<rect width="300" height="100" fill="white"/>
<g clip-path="url(#clip0_298_11360)">
<path d="M259.735 39.1978H260.022C260.058 39.1978 260.092 39.215 260.114 39.2444L260.388 39.6161C260.444 39.692 260.39 39.7998 260.296 39.7998H260.009C259.973 39.7998 259.939 39.7826 259.917 39.7532L259.643 39.3815C259.587 39.3056 259.641 39.1978 259.735 39.1978ZM259.525 37.5011H258.833C258.759 37.5011 258.7 37.5605 258.7 37.6337V37.7297V39.0281V39.6843C258.7 39.7478 258.751 39.7993 258.815 39.7993H259.03C259.094 39.7993 259.145 39.7478 259.145 39.6843V39.1842V39.0281H259.54C259.957 39.0281 260.296 38.6941 260.304 38.2795C260.312 37.8515 259.953 37.5011 259.525 37.5011ZM259.54 38.5735H259.146V38.4704V37.9561H259.54C259.71 37.9561 259.849 38.0947 259.849 38.2648C259.849 38.435 259.71 38.5735 259.54 38.5735ZM259.456 36.7522C260.496 36.7522 261.343 37.5989 261.343 38.6397C261.343 39.6805 260.496 40.5271 259.456 40.5271C258.415 40.5271 257.568 39.6805 257.568 38.6397C257.568 37.5989 258.415 36.7522 259.456 36.7522ZM259.456 36.3003C258.164 36.3003 257.116 37.3476 257.116 38.6397C257.116 39.9317 258.164 40.9791 259.456 40.9791C260.748 40.9791 261.795 39.9317 261.795 38.6397C261.795 37.3476 260.748 36.3003 259.456 36.3003Z" fill="#201C32"/>
<path d="M227.926 53.8865V37.6719C227.926 36.9145 228.54 36.3005 229.298 36.3005H229.603C231.749 36.3005 233.489 38.0402 233.489 40.1864V53.3528C233.489 55.2463 235.024 56.7815 236.918 56.7815H243.097V37.6719C243.097 36.9145 243.711 36.3005 244.469 36.3005H247.288C248.046 36.3005 248.66 36.9145 248.66 37.6719V58.4581C248.66 60.6043 246.92 62.344 244.774 62.344H236.384C231.713 62.344 227.926 58.5576 227.926 53.8865ZM212.194 54.5056H215.605C216.039 54.5056 216.448 54.7112 216.707 55.0599L220.487 60.1553C221.158 61.0603 220.513 62.344 219.386 62.344H215.974C215.54 62.344 215.132 62.1384 214.873 61.7897L211.092 56.6943C210.421 55.7893 211.067 54.5056 212.194 54.5056ZM204.304 62.344H201.737C200.98 62.344 200.366 61.7301 200.366 60.9727V37.6719C200.366 36.9145 200.98 36.3005 201.737 36.3005H201.79C203.936 36.3005 205.676 38.0402 205.676 40.1864V46.4989L213.608 36.8033C213.868 36.4849 214.258 36.3003 214.67 36.3003H217.969C219.123 36.3003 219.761 37.6391 219.034 38.5355L205.676 55.0113V60.9724C205.676 61.7299 205.062 62.344 204.304 62.344ZM186.06 36.3003H186.366C188.512 36.3003 190.252 38.04 190.252 40.1862V60.9724C190.252 61.7299 189.638 62.3438 188.88 62.3438H186.061C185.303 62.3438 184.689 61.7299 184.689 60.9724V37.6719C184.689 36.9145 185.303 36.3003 186.06 36.3003ZM164.874 41.3574H159.151V60.9724C159.151 61.7299 158.537 62.3438 157.78 62.3438H154.96C154.203 62.3438 153.589 61.7299 153.589 60.9724V37.6719C153.589 36.9145 154.203 36.3005 154.96 36.3005H165.408C170.331 36.3005 174.322 40.2917 174.322 45.2152V60.9727C174.322 61.7301 173.708 62.344 172.951 62.344H170.131C169.374 62.344 168.76 61.7301 168.76 60.9727V45.2434C168.759 43.0973 167.02 41.3574 164.874 41.3574ZM133.347 62.3436C126.066 62.4055 120.151 56.4905 120.213 49.2088C120.273 42.1387 126.051 36.3611 133.121 36.3008C140.402 36.2389 146.317 42.1539 146.255 49.4353C146.195 56.5056 140.417 62.2835 133.347 62.3436ZM133.486 41.6143C129.028 41.4719 125.384 45.1158 125.526 49.5747C125.655 53.6126 128.944 56.9013 132.981 57.0301C137.44 57.1724 141.084 53.5286 140.942 49.0697C140.813 45.0319 137.524 41.7433 133.486 41.6143ZM106.249 54.5056H109.661C110.095 54.5056 110.504 54.7112 110.762 55.0599L114.543 60.1553C115.214 61.0603 114.568 62.344 113.442 62.344H110.03C109.596 62.344 109.187 62.1384 108.929 61.7897L105.148 56.6943C104.476 55.7893 105.123 54.5056 106.249 54.5056ZM98.3599 62.344H95.793C95.0356 62.344 94.4216 61.7301 94.4216 60.9727V37.6719C94.4216 36.9145 95.0356 36.3005 95.793 36.3005H95.8456C97.9918 36.3005 99.7315 38.0402 99.7315 40.1864V46.4989L107.664 36.8035C107.924 36.4852 108.314 36.3005 108.725 36.3005H112.025C113.179 36.3005 113.817 37.6394 113.09 38.5358L99.7317 55.0116V60.9727C99.7313 61.7299 99.1173 62.344 98.3599 62.344Z" fill="#201C32"/>
<path d="M79.5015 55.9874C79.6877 56.3101 79.7891 56.6581 79.8133 57.0063H79.8135C80.1502 61.5239 78.4467 64.8637 74.7025 67.0252C71.2808 69.0006 66.1548 69.9923 59.3251 70C49.0454 70.0118 42.6315 67.7856 40.0826 63.3222C37.4918 58.8831 38.7698 52.2139 43.9199 43.3173C47.3414 37.4064 50.7634 33.4631 54.1849 31.4875C57.9291 29.3257 61.6731 29.5203 65.417 32.0707L65.4168 32.0709C65.7063 32.2659 65.9571 32.5278 66.1433 32.8505C66.7972 33.9833 66.4092 35.4319 65.2765 36.0858C64.4662 36.5536 63.4946 36.488 62.7674 35.9984C62.7645 35.9964 62.7615 35.9948 62.7586 35.9927C62.7577 35.9921 62.7568 35.9916 62.7559 35.9909C62.527 35.8343 62.311 35.699 62.1087 35.5826C60.1365 34.4483 58.527 34.4505 56.5537 35.5898C54.7123 36.653 51.7371 39.2685 48.0193 45.6908C47.705 46.2338 47.4067 46.7668 47.1247 47.2893C46.373 48.6825 47.3803 50.3528 48.9632 50.3815C51.6395 50.4301 54.2254 51.841 55.6614 54.3282C57.0971 56.8151 57.0253 59.7587 55.7291 62.1006C54.9627 63.4857 55.9056 65.1933 57.488 65.2388C58.0816 65.2559 58.6922 65.2641 59.3197 65.2634C66.7403 65.255 70.493 63.986 72.3344 62.9229C74.3077 61.7836 75.1144 60.3907 75.1183 58.1158C75.1187 57.8826 75.1094 57.6277 75.0882 57.3511C75.0882 57.35 75.088 57.3489 75.088 57.3477C75.0878 57.3441 75.0875 57.3407 75.0873 57.3371C75.0267 56.4626 75.4558 55.5884 76.2661 55.1204C77.3989 54.4667 78.8473 54.8547 79.5015 55.9874ZM75.0125 43.1306C74.6806 42.5558 73.9387 42.357 73.3639 42.6889L71.354 43.8494C70.7791 44.1814 70.5803 44.9232 70.9122 45.4981C71.2441 46.0729 71.986 46.2717 72.5608 45.9398L74.5708 44.7793C75.1456 44.4473 75.3444 43.7055 75.0125 43.1306ZM71.4498 37.6454C71.0503 37.1153 70.2897 37.0084 69.7596 37.4079L67.906 38.8046C67.3759 39.2041 67.269 39.9647 67.6685 40.4948C68.068 41.0249 68.8286 41.1318 69.3587 40.7323L71.2123 39.3356C71.7424 38.9361 71.8493 38.1755 71.4498 37.6454ZM76.3986 48.3185L74.2621 49.2253C73.6511 49.4847 73.3634 50.1967 73.6226 50.8077C73.882 51.4187 74.594 51.7064 75.205 51.4472L77.3415 50.5404C77.9525 50.281 78.2402 49.569 77.981 48.958C77.7218 48.347 77.0096 48.0593 76.3986 48.3185Z" fill="#201C32"/>
</g>
<defs>
<clipPath id="clip0_298_11360">
<rect width="223.014" height="40" fill="white" transform="translate(38.7812 30)"/>
</clipPath>
</defs>
</svg>
