<svg width="300" height="100" viewBox="0 0 300 100" fill="none" xmlns="http://www.w3.org/2000/svg">
<rect width="300" height="100" fill="white"/>
<g clip-path="url(#clip0_298_11344)">
<path d="M106.375 30.0929L83.4543 30H83.4236C81.9836 30 80.6352 30.556 79.5933 31.6062C78.5517 32.6255 78 34.0155 78 35.4671V64.5329C78 65.9845 78.5517 67.3745 79.5933 68.3938C80.6048 69.4131 81.9836 70 83.4238 70H83.4545L106.375 69.9381V68.5483C106.375 61.4131 103.648 54.896 99.1738 50.0464C103.831 44.9807 106.375 38.4631 106.375 31.5136V30.0926L106.375 30.0929ZM89.5524 43.2817C86.8252 42.1698 83.8833 41.4593 80.7886 41.3048V41.2429C85.0786 40.5948 88.4795 37.1355 89.0619 32.811L94.8226 32.8419C94.4855 36.8883 92.6162 40.5948 89.5521 43.2821L89.5524 43.2817ZM81.5548 33.5829C82.045 33.0886 82.719 32.8105 83.4238 32.8105H86.2124C85.6914 35.6214 83.5157 37.8452 80.7581 38.4321V35.4671C80.7886 34.7567 81.0645 34.0769 81.5548 33.5829ZM80.7886 58.7567V52.9495C88.2348 53.629 94.179 59.6524 94.8229 67.1581L89.0621 67.189C88.4493 62.8338 85.0786 59.4055 80.7886 58.7567ZM83.4545 67.189C82.7498 67.189 82.0757 66.911 81.5855 66.4167C81.095 65.9226 80.8193 65.2429 80.8193 64.5326V61.5983C83.5771 62.185 85.7526 64.3781 86.2736 67.1888H83.4545V67.189ZM103.556 67.1271L97.5805 67.1581C96.9064 58.1081 89.7362 50.8493 80.7581 50.1388V44.1157C93.0455 44.8262 102.882 54.7721 103.556 67.1276V67.1271ZM97.1819 48.0695C95.6684 46.7312 94.0143 45.5609 92.2486 44.579C95.374 41.4595 97.2738 37.3205 97.611 32.8417L103.586 32.8726C103.249 38.556 101.012 43.8688 97.1819 48.0695Z" fill="url(#paint0_linear_298_11344)"/>
<path d="M140.919 44.8606C139.709 44.2102 138.343 43.9004 136.822 43.9004C135.27 43.9004 133.873 44.2411 132.662 44.9225C131.452 45.6037 130.52 46.5328 129.869 47.7097C129.217 48.8866 128.906 50.2182 128.906 51.7047C128.906 52.7885 129.093 53.8416 129.496 54.7706C129.869 55.7306 130.396 56.5359 131.079 57.2482C131.792 57.9592 132.649 58.5083 133.593 58.8585C134.636 59.2495 135.74 59.4489 136.853 59.4471C138.374 59.4471 139.74 59.1373 140.95 58.4868C142.161 57.8366 143.092 56.9075 143.775 55.7306C144.458 54.5537 144.799 53.1911 144.799 51.7047C144.799 50.1873 144.458 48.8247 143.775 47.6475C143.03 46.4399 142.099 45.5109 140.919 44.8606ZM139.926 54.9873C139.088 55.8544 138.032 56.288 136.791 56.288C135.518 56.288 134.463 55.8547 133.625 54.9563C132.786 54.0582 132.383 52.9744 132.383 51.6737C132.383 50.3421 132.786 49.2271 133.594 48.3599C134.401 47.4618 135.487 47.0282 136.791 47.0282C138.063 47.0282 139.088 47.4618 139.926 48.329C140.764 49.1961 141.167 50.3111 141.167 51.6737C141.198 53.0054 140.795 54.1202 139.926 54.9873Z" fill="#102649"/>
<path fill-rule="evenodd" clip-rule="evenodd" d="M155.446 43.9004H155.012C154.081 43.9004 153.242 44.1171 152.404 44.5509C151.566 44.9842 150.883 45.6037 150.294 46.409H150.263V44.1482H146.786V59.2302H150.262V52.0763C150.262 51.2402 150.417 50.5278 150.728 49.8775C151.038 49.2271 151.535 48.7006 152.156 48.329C152.776 47.9575 153.521 47.7409 154.391 47.7409C154.701 47.7409 155.043 47.7409 155.446 47.7718L155.446 43.9004Z" fill="#102649"/>
<path d="M167.459 45.9132H167.397C166.249 44.5506 164.696 43.8691 162.71 43.8691C161.686 43.8691 160.723 44.0549 159.823 44.4577C158.923 44.8601 158.147 45.3868 157.495 46.068C156.843 46.7494 156.346 47.5856 155.974 48.5456C155.601 49.5365 155.415 50.5584 155.415 51.6734C155.415 52.6025 155.539 53.4387 155.757 54.2749C156.005 55.0801 156.346 55.7922 156.781 56.4118C157.216 57.031 157.743 57.5575 158.333 58.022C158.923 58.4865 159.606 58.8272 160.351 59.0441C161.096 59.2608 161.903 59.3846 162.71 59.3846C164.759 59.3846 166.373 58.6415 167.521 57.1239H167.552V59.137H170.874V44.0549H167.397V45.913L167.459 45.9132ZM166.342 55.0179C165.504 55.8541 164.479 56.2877 163.3 56.2877C162.027 56.2877 160.972 55.8544 160.165 55.0182C159.357 54.182 158.954 53.067 158.954 51.7353C158.954 51.0232 159.078 50.3727 159.295 49.7844C159.513 49.1958 159.823 48.7003 160.227 48.2977C160.626 47.8981 161.101 47.5822 161.623 47.3687C162.151 47.152 162.71 47.0282 163.331 47.0282C164.572 47.0282 165.597 47.4925 166.404 48.3908C167.211 49.2889 167.614 50.4037 167.614 51.7353C167.614 53.067 167.18 54.1818 166.342 55.0179ZM188.412 47.6475C188.101 47.0591 187.729 46.5634 187.294 46.0989C186.86 45.6346 186.363 45.2318 185.835 44.8913C185.308 44.5506 184.718 44.3027 184.066 44.148C183.414 43.9932 182.762 43.8694 182.079 43.8694C180.062 43.8694 178.448 44.5503 177.268 45.9132H177.206V44.086H173.729V65.2689H177.206V57.3096H177.237C178.386 58.7032 179.969 59.4153 182.017 59.4153C182.856 59.4153 183.631 59.2915 184.376 59.0749C185.121 58.8272 185.804 58.4863 186.394 58.0527C186.984 57.6194 187.511 57.0618 187.946 56.4425C188.381 55.8229 188.722 55.1108 188.971 54.3056C189.219 53.5003 189.312 52.6332 189.312 51.7041C189.312 50.9608 189.219 50.2487 189.064 49.5363C188.908 48.8241 188.722 48.2356 188.412 47.6472L188.412 47.6475ZM184.625 55.0182C183.818 55.8541 182.762 56.2877 181.49 56.2877C180.248 56.2877 179.193 55.8544 178.355 55.0182C177.516 54.182 177.082 53.067 177.082 51.7353C177.082 50.3727 177.485 49.258 178.323 48.3596C179.131 47.4615 180.217 47.0279 181.49 47.0279C182.731 47.0279 183.756 47.4615 184.594 48.3287C185.432 49.1958 185.835 50.3418 185.835 51.7353C185.835 53.067 185.432 54.182 184.625 55.0182ZM202.473 45.9132C201.325 44.5506 199.773 43.8691 197.786 43.8691C196.762 43.8691 195.8 44.0549 194.899 44.4577C193.999 44.8601 193.223 45.3868 192.571 46.068C191.919 46.7494 191.423 47.5856 191.05 48.5456C190.678 49.5365 190.491 50.5584 190.491 51.6734C190.491 52.6025 190.616 53.4387 190.833 54.2749C191.081 55.0801 191.423 55.7922 191.857 56.4118C192.292 57.031 192.82 57.5575 193.41 58.022C193.999 58.4865 194.682 58.8272 195.427 59.0441C196.172 59.2608 196.979 59.3846 197.786 59.3846C199.835 59.3846 201.449 58.6415 202.597 57.1239H202.628V59.137H205.95V44.0549H202.473V45.9132ZM201.418 55.0179C200.58 55.8541 199.556 56.2877 198.376 56.2877C197.103 56.2877 196.048 55.8544 195.241 55.0182C194.434 54.182 194.03 53.067 194.03 51.7353C194.03 51.0232 194.154 50.3727 194.372 49.7844C194.589 49.1958 194.899 48.7003 195.303 48.2977C195.702 47.8981 196.177 47.5822 196.7 47.3687C197.227 47.152 197.786 47.0282 198.407 47.0282C199.649 47.0282 200.673 47.4925 201.48 48.3908C202.287 49.2889 202.691 50.4037 202.691 51.7353C202.691 53.067 202.256 54.1818 201.418 55.0179Z" fill="#102649"/>
<path fill-rule="evenodd" clip-rule="evenodd" d="M218.925 44.1168L215.014 54.2749H214.983L210.823 44.1171H207.16L213.306 58.3628L210.575 65.2999H214.238L222.557 44.1171L218.925 44.1168ZM129.372 44.1168H125.274L119.098 50.9923H119.036V37.459H115.59V59.1992H119.036V55.6687L121.581 52.8507H121.643L125.554 59.1992H129.465L123.94 50.2183L129.372 44.1168Z" fill="#102649"/>
</g>
<defs>
<linearGradient id="paint0_linear_298_11344" x1="2641.01" y1="4165.16" x2="450.168" y2="1956.72" gradientUnits="userSpaceOnUse">
<stop stop-color="#5C33F3"/>
<stop offset="1" stop-color="#2CADFF"/>
</linearGradient>
<clipPath id="clip0_298_11344">
<rect width="144.762" height="40" fill="white" transform="translate(78 30)"/>
</clipPath>
</defs>
</svg>
