<svg width="300" height="100" viewBox="0 0 300 100" fill="none" xmlns="http://www.w3.org/2000/svg">
<rect width="300" height="100" fill="white"/>
<g clip-path="url(#clip0_298_11353)">
<path d="M129.973 30.0934L106.862 30H106.842C106.123 29.999 105.411 30.1397 104.747 30.4141C104.083 30.6884 103.479 31.0909 102.971 31.5987C102.463 32.1064 102.059 32.7094 101.784 33.3732C101.509 34.037 101.367 34.7485 101.367 35.467V64.5348C101.367 65.2526 101.508 65.9633 101.783 66.6265C102.057 67.2897 102.46 67.8923 102.967 68.3998C103.475 68.9074 104.077 69.3099 104.741 69.5845C105.404 69.859 106.115 70.0002 106.832 70H106.862L129.984 69.9267V68.533C129.985 61.6641 127.384 55.0499 122.704 50.022C127.399 44.9939 129.999 38.3644 129.973 31.4854V30.0934ZM112.263 42.8407C109.448 41.6941 107.201 41.4817 104.164 41.3278V41.2766C106.28 40.957 108.236 39.9604 109.739 38.436C111.242 36.9115 112.21 34.9414 112.499 32.8205L117.558 32.8425C117.219 36.8846 115.327 40.1813 112.263 42.8407ZM104.951 33.5769C105.198 33.3283 105.492 33.1316 105.816 32.9982C106.139 32.8647 106.486 32.7963 106.836 32.7967L109.149 32.8205C109.149 33.8919 108.57 35.2271 107.592 36.2253C106.614 37.2234 105.283 37.7821 104.19 37.7821L104.164 35.4579C104.164 35.1078 104.234 34.7612 104.369 34.4383C104.504 34.1154 104.702 33.8226 104.951 33.5769ZM104.164 58.7656V53.7344C107.814 54.0806 110.845 55.0275 113.429 57.6264C116.014 60.2253 117.213 63.4872 117.539 67.1502L112.495 67.163C112.196 65.0534 111.223 63.0968 109.722 61.5847C108.221 60.0726 106.271 59.0857 104.164 58.7711V58.7656ZM106.862 67.2051C106.153 67.2051 105.474 66.9238 104.973 66.423C104.473 65.9222 104.191 65.243 104.191 64.5348V62.2967C105.259 62.2967 106.618 62.859 107.594 63.8517C108.57 64.8443 109.151 66.1868 109.151 67.1612L106.862 67.2051ZM126.561 67.1447L121.136 67.1612C120.8 62.7675 118.905 58.6386 115.793 55.5189C112.681 52.3992 108.557 50.4939 104.164 50.1465L104.19 44.5989C110.171 44.9652 115.032 47.163 119.266 51.4084C123.501 55.6538 126.211 61.1685 126.559 67.1593L126.561 67.1447ZM120.048 47.5092C118.519 46.1685 117.503 45.5678 115.719 44.5916C118.884 41.4652 120.804 37.2933 121.118 32.8553L126.276 32.8425C125.972 38.5018 123.907 43.3553 120.048 47.5092Z" fill="#2376F3"/>
<path d="M139.215 60.4777H143.418V56.1774L145.554 53.8495L149.466 60.4777H154.218L148.561 51.0034L154.09 44.6645H149.11L143.484 51.2946H143.418V39.2305H139.215V60.4777Z" fill="black"/>
<path d="M161.909 60.7672C166.825 60.7672 170.285 57.4045 170.285 52.5859C170.285 47.7342 166.825 44.4375 161.909 44.4375C156.865 44.4375 153.501 47.8642 153.501 52.5859C153.501 57.3075 156.862 60.7672 161.909 60.7672ZM161.909 56.9503C159.484 56.9503 157.803 55.0437 157.803 52.5859C157.803 50.095 159.451 48.2196 161.909 48.2196C164.237 48.2196 165.984 49.9979 165.984 52.5859C165.984 55.1738 164.173 56.9503 161.909 56.9503Z" fill="black"/>
<path d="M172.312 60.4778H176.549V53.1701C176.549 50.7763 177.941 49.0309 180.56 49.0309C180.818 49.0309 181.239 49.0309 181.692 49.062V44.4375H181.368C179.525 44.4375 177.811 45.3533 176.615 46.9613H176.549V44.6646H172.312V60.4778Z" fill="black"/>
<path d="M189.365 60.7677C191.434 60.7677 193.019 59.9911 194.118 58.5699L194.182 58.6028V60.4783H198.224V44.6633H193.988V46.4819L193.923 46.5149C192.792 45.1559 191.11 44.4453 189.268 44.4453C185.032 44.4453 181.83 47.8391 181.83 52.6266C181.83 57.5094 185.032 60.775 189.365 60.775V60.7677ZM190.173 56.9581C187.779 56.9581 186.13 55.1797 186.13 52.6578C186.13 49.9416 187.878 48.2274 190.173 48.2274C192.436 48.2274 194.182 50.1028 194.182 52.6578C194.182 55.2457 192.339 56.9581 190.173 56.9581Z" fill="black"/>
</g>
<defs>
<clipPath id="clip0_298_11353">
<rect width="97" height="40" fill="white" transform="translate(101.367 30)"/>
</clipPath>
</defs>
</svg>
