<svg width="300" height="100" viewBox="0 0 300 100" fill="none" xmlns="http://www.w3.org/2000/svg">
<rect width="300" height="100" fill="white"/>
<path d="M160.042 44.0775V57.6321H156.111V55.6525C155.71 56.3403 155.127 56.9047 154.427 57.284C153.703 57.6652 152.894 57.8584 152.075 57.8458C150.382 57.8458 149.117 57.3732 148.279 56.428C147.441 55.4827 147.023 54.0569 147.025 52.1503V44.0775H151.057V52.2309C151.057 53.8705 151.76 54.6903 153.168 54.6903C154.005 54.6903 154.682 54.4054 155.2 53.8356C155.718 53.2658 155.976 52.5172 155.975 51.5899V44.0775H160.042ZM175.457 37.8955V57.6321H171.473V55.627C171.061 56.3238 170.458 56.8892 169.737 57.2572C168.951 57.6584 168.079 57.8605 167.197 57.8458C166.096 57.8639 165.015 57.5517 164.093 56.9494C163.163 56.3277 162.426 55.4568 161.968 54.4363C161.46 53.3612 161.206 52.127 161.206 50.7338C161.206 49.3407 161.46 48.1155 161.968 47.0583C162.426 46.0557 163.157 45.2031 164.079 44.5989C165.011 44.0113 166.094 43.7099 167.196 43.7321C168.059 43.7215 168.911 43.9188 169.682 44.3073C170.4 44.6625 171.002 45.2137 171.42 45.8971V37.8955H175.457ZM170.678 53.7415C171.215 53.0561 171.484 52.0706 171.484 50.7849C171.484 49.5189 171.212 48.5433 170.668 47.8579C170.124 47.1725 169.363 46.8293 168.384 46.8284C167.385 46.8284 166.609 47.1671 166.057 47.8444C165.505 48.5218 165.23 49.484 165.23 50.7311C165.23 52.0141 165.505 53.0077 166.057 53.7119C166.609 54.4161 167.385 54.7682 168.384 54.7682C169.375 54.77 170.14 54.4278 170.678 53.7415ZM190.871 44.0775V57.6321H186.887V55.627C186.474 56.3243 185.871 56.8897 185.149 57.2572C184.363 57.6573 183.492 57.8585 182.61 57.8431C181.51 57.8729 180.426 57.5748 179.495 56.9869C178.564 56.399 177.829 55.5476 177.384 54.5411C176.876 53.4812 176.622 52.256 176.622 50.8655C176.622 49.475 176.876 48.236 177.384 47.1483C177.84 46.1229 178.576 45.2475 179.509 44.6231C180.43 44.0232 181.511 43.7129 182.61 43.7321C183.495 43.7179 184.369 43.9297 185.149 44.3476C185.869 44.7303 186.47 45.3035 186.887 46.0046V44.0775H190.871ZM186.086 53.7536C186.623 53.0763 186.892 52.0961 186.892 50.8131C186.892 49.5301 186.623 48.5446 186.086 47.8565C185.548 47.1693 184.782 46.8262 183.786 46.8271C182.791 46.828 182.015 47.185 181.46 47.8982C180.908 48.6149 180.632 49.6045 180.631 50.8669C180.63 52.1293 180.902 53.096 181.446 53.767C181.99 54.4345 182.77 54.7687 183.786 54.7696C184.783 54.7705 185.55 54.4323 186.086 53.7549V53.7536ZM146.204 57.8229H141.195L135.806 51.6773V57.8229H131.718V37.8955H135.806V49.9974L140.951 44.1232H145.852L140.03 50.7083L146.204 57.8229ZM120.518 57.8297L112.672 48.7986L116.956 57.8297H113.986L109.616 48.6226L111.433 57.8297H109.608L107.79 48.6091V57.8297H107.073V37.8955H107.79V47.8404L109.634 37.8955H111.453L109.601 47.8834L114.056 37.8955H116.994L112.557 47.8471L120.615 37.8955H125.219L116.884 48.1912L125.258 57.8297H120.518Z" fill="#41276D"/>
<path d="M194.257 57.6104C195.479 57.6104 196.47 56.6194 196.47 55.397C196.47 54.1746 195.479 53.1836 194.257 53.1836C193.034 53.1836 192.043 54.1746 192.043 55.397C192.043 56.6194 193.034 57.6104 194.257 57.6104Z" fill="#41276D"/>
</svg>
