<svg width="300" height="100" viewBox="0 0 300 100" fill="none" xmlns="http://www.w3.org/2000/svg">
<rect width="300" height="100" fill="white"/>
<g clip-path="url(#clip0_298_11281)">
<path d="M94.7625 67.8856H87.5938V30.0005H94.7625V67.8856Z" fill="#FFA137"/>
<path d="M147.392 67.8851L146.67 64.3132C144.505 67.5052 140.953 68.5396 137.543 68.3539C128.491 67.7558 124.376 61.7513 124.376 55.0358C124.376 47.3021 129.819 41.726 138.597 41.726C141.493 41.726 144.654 43.027 146.214 45.2978V30H153.383V67.8851H147.392ZM146.504 55.1651C146.562 51.0518 143.783 47.8112 139.037 47.8112C134.059 47.8112 131.652 51.4316 131.652 55.0035C131.625 55.9556 131.797 56.9033 132.158 57.7885C132.52 58.6736 133.063 59.4776 133.754 60.1515C134.445 60.8255 135.27 61.355 136.178 61.708C137.087 62.0607 138.059 62.2296 139.037 62.204C143.542 62.1716 146.488 59.1735 146.488 55.1651H146.504Z" fill="#FFA137"/>
<path d="M177.714 67.8851L176.992 64.3132C174.827 67.5052 171.268 68.5396 167.865 68.3539C158.805 67.7558 154.69 61.7513 154.69 55.0358C154.69 47.3021 160.141 41.726 168.919 41.726C171.807 41.726 174.976 43.027 176.528 45.2978V30H183.697V67.8851H177.714ZM176.827 55.1651C176.876 51.0518 174.105 47.8112 169.359 47.8112C164.381 47.8112 161.966 51.4316 161.966 55.0035C161.944 55.9508 162.118 56.893 162.48 57.7726C162.842 58.6522 163.383 59.4513 164.071 60.1215C164.759 60.7915 165.58 61.3187 166.483 61.671C167.386 62.0235 168.353 62.1937 169.326 62.1716C173.881 62.1716 176.827 59.1735 176.827 55.1651Z" fill="#FFA137"/>
<path d="M123.097 62.3657V52.5711C123.097 45.298 116.036 41.2573 109.207 41.2573C104.652 41.2573 100.08 42.4533 97.2592 46.7285L101.814 50.567C104.926 46.5263 113.928 46.292 115.704 51.9731H107.315C101.507 51.9731 95.8652 53.9772 95.8652 59.8766C95.8652 65.9376 101.424 68.37 106.925 68.4266C110.535 68.4266 114.393 67.0771 116.26 64.2647L116.932 67.8852H123.37L123.097 62.3657ZM115.53 56.1108C114.393 60.0302 110.211 63.2465 105.805 63.8849C105.149 63.9801 104.485 64.0153 103.822 63.99C103.786 63.9892 103.751 63.978 103.722 63.9578C103.692 63.9378 103.669 63.9096 103.656 63.8769L101.383 58.1311C101.372 58.1068 101.368 58.0805 101.37 58.0542C101.371 58.0277 101.379 58.0023 101.393 57.9795C101.407 57.9567 101.426 57.9373 101.449 57.9231C101.471 57.9087 101.497 57.8996 101.524 57.8967L115.322 55.9087C115.35 55.9062 115.378 55.9097 115.404 55.919C115.431 55.9282 115.455 55.9431 115.474 55.9623C115.494 55.9817 115.509 56.0049 115.519 56.0306C115.528 56.0562 115.532 56.0836 115.53 56.1108Z" fill="#FFA137"/>
<path d="M212.165 62.3657V52.5711C212.165 45.298 205.103 41.2573 198.275 41.2573C193.711 41.2573 189.148 42.4533 186.327 46.7285L190.882 50.567C193.993 46.5263 202.996 46.292 204.771 51.9731H196.383C190.575 51.9731 184.933 53.9772 184.933 59.8766C184.933 65.9376 190.492 68.37 195.993 68.4266C199.602 68.4266 203.46 67.0771 205.327 64.2647L205.991 67.8852H212.437L212.165 62.3657ZM204.639 56.1108C203.502 60.0302 199.32 63.2465 194.914 63.8849C194.258 63.98 193.594 64.0151 192.931 63.99C192.895 63.9892 192.86 63.978 192.831 63.9578C192.801 63.9378 192.778 63.9096 192.765 63.8769L190.45 58.1311C190.44 58.1068 190.435 58.0805 190.437 58.0542C190.439 58.0277 190.447 58.0023 190.461 57.9795C190.474 57.9567 190.493 57.9373 190.516 57.9231C190.539 57.9087 190.564 57.8996 190.591 57.8967L204.389 55.9087C204.42 55.8988 204.453 55.8967 204.485 55.9026C204.517 55.9085 204.547 55.9222 204.572 55.9423C204.596 55.9626 204.616 55.9887 204.628 56.0182C204.639 56.0476 204.643 56.0795 204.639 56.1108Z" fill="#FFA137"/>
</g>
<defs>
<clipPath id="clip0_298_11281">
<rect width="124.848" height="40" fill="white" transform="translate(87.5938 30)"/>
</clipPath>
</defs>
</svg>
