<svg width="300" height="100" viewBox="0 0 300 100" fill="none" xmlns="http://www.w3.org/2000/svg">
<rect width="300" height="100" fill="white"/>
<g clip-path="url(#clip0_298_11221)">
<mask id="mask0_298_11221" style="mask-type:luminance" maskUnits="userSpaceOnUse" x="91" y="30" width="117" height="40">
<path d="M207.867 30H91.8672V70H207.867V30Z" fill="white"/>
</mask>
<g mask="url(#mask0_298_11221)">
<path d="M169.196 61.1456C181.67 61.1456 194.143 61.1445 206.617 61.1564C206.861 61.1564 207.32 60.944 207.327 61.3482C207.334 61.772 206.87 61.5552 206.632 61.5552C181.641 61.5671 156.649 61.5671 131.659 61.5552C131.418 61.5552 130.96 61.772 130.953 61.3634C130.945 60.9396 131.406 61.1575 131.643 61.1564C144.16 61.1445 156.678 61.1456 169.196 61.1456Z" fill="#011C39"/>
<path d="M152.598 43.9427C152.598 44.5203 152.582 45.098 152.603 45.6745C152.618 46.0604 153.097 46.2674 152.984 46.7507C152.915 47.0423 152.875 47.1897 152.554 47.1712C152.179 47.1506 151.801 47.1864 151.427 47.1593C151.211 47.1431 150.873 47.3219 150.805 46.9837C150.748 46.7063 150.628 46.3541 150.915 46.1124C151.159 45.9076 151.139 45.6442 151.139 45.3787C151.141 44.3957 151.143 43.4127 151.138 42.4297C151.135 42.1284 151.171 41.8488 150.879 41.5876C150.626 41.3611 150.719 40.933 150.812 40.6328C150.9 40.3478 151.241 40.5429 151.464 40.493C152.349 40.2958 152.825 40.7022 153.143 41.5226C153.429 42.2585 153.851 42.9402 154.278 43.6305C154.228 42.9196 154.556 42.2205 154.061 41.5053C153.681 40.9579 154.044 40.4941 154.73 40.4941C154.996 40.4941 155.262 40.48 155.526 40.4984C155.738 40.5125 156.07 40.3792 156.136 40.5927C156.236 40.9157 156.324 41.3633 156.077 41.6147C155.809 41.8889 155.831 42.1685 155.829 42.4666C155.82 43.8516 155.806 45.2367 155.836 46.6218C155.846 47.0791 155.688 47.1561 155.272 47.1864C154.618 47.2352 154.229 47.0499 153.961 46.4039C153.607 45.5477 153.135 44.7425 152.712 43.9145L152.599 43.9438L152.598 43.9427Z" fill="#011C39"/>
<path d="M145.64 57.5094C145.485 57.5094 145.327 57.53 145.177 57.505C144.961 57.4693 144.623 57.6579 144.56 57.3273C144.506 57.0509 144.418 56.7334 144.671 56.4495C145.128 55.9368 144.843 55.3028 144.868 54.7252C144.878 54.4835 144.583 54.5713 144.433 54.5843C144.1 54.6135 143.546 54.4011 143.478 54.7165C143.364 55.2475 143.199 55.9119 143.593 56.3855C143.879 56.7312 143.822 57.064 143.746 57.3685C143.675 57.6514 143.323 57.4855 143.097 57.5029C142.768 57.5278 142.433 57.53 142.104 57.5029C141.888 57.4845 141.549 57.6589 141.487 57.3306C141.434 57.0564 141.301 56.69 141.604 56.4657C141.849 56.2847 141.834 56.0539 141.835 55.8122C141.837 54.762 141.84 53.7118 141.835 52.6617C141.834 52.4026 141.851 52.1718 141.583 51.9572C141.305 51.7339 141.427 51.3178 141.49 51.0121C141.556 50.6892 141.895 50.8593 142.112 50.842C142.442 50.8149 142.777 50.816 143.106 50.842C143.33 50.8593 143.675 50.6913 143.749 50.9883C143.828 51.3059 143.94 51.7047 143.64 51.9908C143.224 52.3864 143.428 52.8773 143.46 53.3087C143.484 53.6197 143.864 53.4658 144.077 53.4636C144.344 53.4604 144.768 53.6371 144.847 53.3358C144.953 52.9348 145.079 52.3983 144.746 52.0656C144.398 51.7188 144.497 51.3416 144.571 51.0197C144.656 50.6523 145.059 50.8767 145.319 50.8431C145.58 50.8095 145.851 50.816 146.114 50.842C146.36 50.8658 146.747 50.6892 146.82 50.9829C146.9 51.3048 147.051 51.7318 146.675 52.0266C146.469 52.1891 146.492 52.4178 146.492 52.64C146.491 53.6902 146.491 54.7403 146.492 55.7905C146.492 55.9899 146.444 56.2424 146.617 56.3584C147.037 56.6402 146.921 57.0705 146.818 57.375C146.717 57.6709 146.308 57.4693 146.04 57.5094C145.911 57.5289 145.775 57.5126 145.642 57.5126L145.64 57.5094Z" fill="#011C39"/>
<path d="M159.287 47.167C158.69 47.167 158.092 47.1767 157.497 47.1616C157.292 47.1562 156.984 47.2895 156.904 47.0326C156.818 46.7552 156.727 46.3639 156.975 46.1526C157.273 45.8979 157.233 45.6085 157.235 45.3051C157.241 44.411 157.246 43.5168 157.233 42.6238C157.226 42.2445 157.289 41.8933 156.937 41.5335C156.536 41.1228 156.904 40.4942 157.474 40.4931C158.713 40.4909 159.951 40.5072 161.189 40.4844C161.597 40.4768 161.821 40.5538 161.748 41.022C161.722 41.1965 161.744 41.3785 161.744 41.5574C161.744 42.5501 161.466 42.7701 160.513 42.5458C160.399 42.5187 160.301 42.4992 160.278 42.3648C160.142 41.5801 159.513 41.7676 159.067 41.8327C158.534 41.9096 158.914 42.4136 158.831 42.7148C158.768 42.9392 158.811 43.1635 159.152 43.1419C159.461 43.1223 159.772 43.1375 160.081 43.1386C160.701 43.1408 160.909 43.4431 160.733 44.0446C160.682 44.2202 160.583 44.2365 160.447 44.2375C160.248 44.2397 160.049 44.2386 159.85 44.2386C158.814 44.2386 158.802 44.2386 158.832 45.2866C158.838 45.4969 158.628 45.8957 159.098 45.8816C159.526 45.8686 160.143 46.1016 160.243 45.4254C160.386 44.4641 161.059 45.02 161.466 44.9615C161.945 44.8921 161.73 45.3755 161.735 45.6053C161.761 47.167 161.751 47.167 160.217 47.167C159.908 47.167 159.597 47.167 159.288 47.167H159.287Z" fill="#011C39"/>
<path d="M143.394 33.4855C143.394 33.932 143.387 34.3796 143.394 34.8261C143.402 35.3691 143.699 35.5772 144.213 35.536C144.791 35.4894 144.838 35.0645 144.862 34.6234C144.871 34.4771 144.829 34.3319 144.658 34.3482C144.023 34.4078 144.223 33.9352 144.229 33.635C144.24 33.1603 144.63 33.3933 144.835 33.389C146.312 33.3587 146.312 33.3695 146.312 34.8575C146.312 35.0364 146.312 35.2152 146.312 35.394C146.312 36.4669 146.183 36.636 145.145 36.8452C144.842 36.9059 144.53 36.9481 144.223 36.9438C142.287 36.9221 141.675 36.3792 141.779 34.5801C141.833 33.622 141.774 32.6575 141.796 31.6972C141.816 30.7977 142.186 30.3609 143.051 30.1399C143.983 29.9025 144.89 30.038 145.796 30.3024C146.204 30.4216 146.385 30.6471 146.314 31.0752C146.299 31.1619 146.323 31.2561 146.31 31.3428C146.265 31.6181 146.468 32.0365 146.188 32.1405C145.836 32.2706 145.405 32.2131 145.011 32.1849C144.794 32.1698 144.832 31.9075 144.769 31.7525C144.633 31.422 144.384 31.2507 144.046 31.28C143.666 31.3125 143.465 31.5672 143.417 31.9443C143.409 32.0105 143.396 32.0776 143.396 32.1438C143.394 32.5903 143.396 33.0379 143.394 33.4844V33.4855Z" fill="#011C39"/>
<path d="M162.306 45.7248C162.37 45.4853 162.108 45.0637 162.451 44.977C162.865 44.8719 163.327 44.938 163.766 44.9683C163.929 44.9792 163.878 45.1829 163.901 45.3043C163.985 45.7215 164.23 45.9155 164.651 45.8863C164.98 45.8646 165.268 45.7833 165.361 45.4116C165.466 44.99 165.256 44.7147 164.909 44.5489C164.432 44.3213 163.93 44.1468 163.453 43.9181C162.614 43.5161 162.247 42.9211 162.319 42.1407C162.405 41.2282 162.892 40.6874 163.843 40.4468C164.55 40.268 165.243 40.3319 165.923 40.5779C166.902 40.9313 167.084 41.2586 166.911 42.2827C166.879 42.4767 166.813 42.5645 166.628 42.5656C166.296 42.5678 165.966 42.5613 165.634 42.5688C165.337 42.5753 165.36 42.3575 165.326 42.1603C165.257 41.7528 164.978 41.614 164.604 41.64C164.265 41.6639 164.001 41.8319 163.917 42.1711C163.821 42.5613 164.117 42.7433 164.4 42.869C164.882 43.0847 165.395 43.2343 165.873 43.4586C166.734 43.864 167.103 44.5543 166.988 45.4528C166.867 46.3989 166.337 46.9809 165.418 47.1998C164.613 47.3916 163.845 47.2713 163.09 46.9625C162.542 46.7392 162.063 46.4802 162.306 45.7248Z" fill="#011C39"/>
<path d="M137.038 43.8538C137.038 43.3845 137.044 42.9142 137.035 42.4449C137.028 42.1447 137.066 41.864 136.761 41.6082C136.502 41.3915 136.613 40.959 136.684 40.6523C136.756 40.3402 137.094 40.5201 137.311 40.4995C137.618 40.4703 137.932 40.467 138.238 40.4995C138.477 40.5244 138.847 40.3261 138.926 40.661C139 40.9764 139.118 41.385 138.794 41.6613C138.61 41.8185 138.608 42.007 138.606 42.201C138.601 43.1851 138.594 44.1681 138.609 45.1522C138.616 45.6236 138.718 46.0875 139.303 46.1091C139.92 46.1319 140.08 45.6713 140.09 45.1652C140.11 44.1822 140.06 43.1959 140.112 42.2151C140.137 41.7502 139.62 41.5811 139.689 41.0826C139.747 40.6599 139.775 40.4161 140.269 40.4833C140.552 40.5223 140.845 40.4724 141.13 40.4963C141.358 40.5158 141.71 40.3521 141.788 40.6133C141.881 40.9287 141.979 41.3644 141.704 41.6245C141.444 41.8694 141.46 42.1284 141.458 42.4113C141.45 43.3954 141.467 44.3794 141.446 45.3624C141.419 46.5752 140.566 47.3056 139.222 47.298C137.86 47.2905 137.064 46.5762 137.04 45.3288C137.031 44.8368 137.039 44.3448 137.038 43.8538Z" fill="#011C39"/>
<path d="M142.402 45.7054C142.533 45.4832 142.11 44.9164 142.69 44.9684C143.15 45.0096 143.881 44.4883 144.056 45.4507C144.126 45.8387 144.44 45.9005 144.772 45.8831C145.073 45.8669 145.338 45.7888 145.452 45.4583C145.571 45.1082 145.459 44.8156 145.162 44.6552C144.697 44.4049 144.203 44.212 143.722 43.9941C142.708 43.5335 142.323 42.9537 142.437 42.0617C142.559 41.1059 143.144 40.5434 144.214 40.3851C144.834 40.293 145.444 40.3613 146.038 40.5824C147.004 40.9433 147.189 41.2771 147.009 42.2958C146.974 42.4942 146.898 42.5679 146.718 42.5679C146.431 42.5679 146.144 42.5603 145.857 42.5733C145.596 42.5841 145.443 42.5126 145.427 42.2124C145.404 41.7995 145.139 41.6304 144.756 41.6391C144.389 41.6477 144.093 41.8168 144.018 42.1885C143.933 42.609 144.269 42.7716 144.578 42.9028C145.024 43.0924 145.489 43.2376 145.929 43.4403C146.802 43.8446 147.202 44.5338 147.105 45.403C146.996 46.3719 146.445 46.9821 145.504 47.2032C144.697 47.3928 143.931 47.2639 143.176 46.9572C142.622 46.7317 142.165 46.4575 142.403 45.7054H142.402Z" fill="#011C39"/>
<path d="M167.604 45.7093C167.64 45.4741 167.443 45.0558 167.7 44.9918C168.134 44.8835 168.615 44.9528 169.076 44.9756C169.21 44.9821 169.175 45.1544 169.187 45.2574C169.243 45.7223 169.51 45.9163 169.959 45.8838C170.289 45.86 170.576 45.7678 170.653 45.3896C170.747 44.9279 170.477 44.6743 170.112 44.5042C169.611 44.2722 169.091 44.0815 168.596 43.8387C167.89 43.4919 167.529 42.9164 167.609 42.1079C167.689 41.2897 168.128 40.7391 168.904 40.5029C169.905 40.1983 170.871 40.3294 171.784 40.8432C171.915 40.9169 172.107 41.0155 172.129 41.1304C172.22 41.5834 172.374 42.1589 172.075 42.4699C171.798 42.7582 171.235 42.5599 170.797 42.549C170.616 42.5447 170.651 42.3604 170.633 42.2358C170.569 41.8099 170.32 41.6083 169.901 41.6376C169.565 41.6614 169.284 41.8121 169.208 42.1589C169.106 42.6238 169.472 42.7755 169.799 42.9153C170.246 43.1061 170.714 43.247 171.151 43.4551C172.042 43.8788 172.37 44.5172 172.255 45.5186C172.156 46.3932 171.598 46.9849 170.696 47.1995C169.912 47.3859 169.163 47.271 168.424 46.9849C167.849 46.7617 167.355 46.4918 167.601 45.7082L167.604 45.7093Z" fill="#011C39"/>
<path d="M152.248 35.3572C152.38 35.1361 151.957 34.5682 152.542 34.6235C153.004 34.6668 153.738 34.1423 153.91 35.1155C153.979 35.5003 154.301 35.5534 154.634 35.5382C154.946 35.5241 155.196 35.4157 155.308 35.0982C155.434 34.7438 155.291 34.4544 154.999 34.3005C154.454 34.0133 153.877 33.7879 153.319 33.5235C152.611 33.1886 152.23 32.6467 152.281 31.8273C152.334 30.9874 152.756 30.4043 153.568 30.1594C154.569 29.8581 155.528 29.9947 156.449 30.4889C156.735 30.6428 156.861 30.8303 156.846 31.1706C156.791 32.4137 157.077 32.1687 155.796 32.211C155.494 32.2208 155.289 32.1796 155.259 31.8078C155.225 31.3852 154.916 31.2486 154.552 31.2833C154.231 31.3136 153.953 31.4643 153.874 31.8252C153.786 32.224 154.065 32.3985 154.351 32.5242C154.835 32.7377 155.347 32.8894 155.825 33.116C156.676 33.5202 157.056 34.2279 156.946 35.1144C156.832 36.0237 156.253 36.6642 155.354 36.8561C154.575 37.023 153.821 36.9308 153.082 36.635C152.51 36.4063 152.005 36.1516 152.248 35.3561V35.3572Z" fill="#011C39"/>
<path d="M130.894 56.1549C130.978 55.8656 130.744 55.4353 131.05 55.3454C131.457 55.2251 131.924 55.2858 132.362 55.3193C132.538 55.3334 132.51 55.5665 132.535 55.7149C132.596 56.0942 132.849 56.2416 133.194 56.2384C133.539 56.2351 133.87 56.156 133.98 55.7594C134.077 55.4093 133.929 55.1254 133.628 54.9704C133.157 54.7287 132.662 54.5379 132.181 54.3169C131.182 53.8584 130.844 53.3122 130.95 52.3476C131.043 51.5066 131.597 50.9745 132.587 50.7632C133.448 50.58 134.25 50.7599 135.028 51.1371C135.363 51.2996 135.517 51.5153 135.498 51.9152C135.442 53.0889 135.699 52.8928 134.465 52.9253C134.166 52.9329 133.962 52.8993 133.929 52.5254C133.892 52.1222 133.62 51.9596 133.229 51.9878C132.891 52.0127 132.619 52.1461 132.538 52.5026C132.441 52.9296 132.74 53.1052 133.058 53.2385C133.526 53.4347 134.014 53.5864 134.472 53.8031C135.333 54.2106 135.68 54.8544 135.595 55.8005C135.517 56.6752 134.969 57.2951 134.079 57.5281C133.056 57.7958 132.121 57.5498 131.205 57.0751C130.757 56.8431 130.981 56.4551 130.893 56.1539L130.894 56.1549Z" fill="#011C39"/>
<path d="M136.233 54.1522C136.233 53.5724 136.221 52.9915 136.237 52.4117C136.26 51.5208 136.684 51.019 137.545 50.8164C138.55 50.5801 139.515 50.7665 140.47 51.0906C140.687 51.1643 140.803 51.2781 140.78 51.5241C140.763 51.7007 140.777 51.8806 140.777 52.0595C140.777 53.1031 140.777 53.0934 139.776 53.0804C139.474 53.0771 139.304 53.0587 139.284 52.6686C139.26 52.2004 138.924 51.9522 138.461 52.002C138.018 52.0497 137.829 52.3683 137.829 52.8019C137.829 53.6949 137.836 54.5868 137.836 55.4799C137.836 55.9621 138.043 56.2483 138.545 56.2396C139.044 56.2309 139.361 55.9968 139.297 55.456C139.189 54.5457 139.855 54.9304 140.247 54.8524C140.779 54.7462 140.818 55.0691 140.779 55.4723C140.762 55.6489 140.776 55.8288 140.776 56.0077C140.776 56.8003 140.39 57.2934 139.617 57.487C138.922 57.6593 138.225 57.7114 137.521 57.5206C136.681 57.293 136.263 56.7739 136.232 55.8939C136.231 55.8494 136.23 55.805 136.23 55.7595C136.23 55.2241 136.23 54.6887 136.23 54.1533H136.232L136.233 54.1522Z" fill="#011C39"/>
<path d="M160.543 57.5096C159.969 57.5096 159.394 57.5204 158.821 57.5041C158.618 57.4976 158.307 57.6353 158.234 57.373C158.154 57.0934 158.062 56.7087 158.314 56.4919C158.587 56.2567 158.565 55.9934 158.566 55.7105C158.571 54.7514 158.574 53.7911 158.564 52.832C158.561 52.5144 158.621 52.2099 158.29 51.9325C158.048 51.7276 158.136 51.28 158.235 50.9776C158.327 50.6937 158.66 50.8584 158.885 50.8411C159.192 50.8162 159.505 50.8118 159.811 50.8422C160.049 50.866 160.423 50.6731 160.493 51.0167C160.557 51.3288 160.698 51.7363 160.354 52.0051C160.14 52.172 160.153 52.3844 160.153 52.6055C160.15 53.6546 160.148 54.7026 160.155 55.7517C160.156 55.9749 160.054 56.2936 160.468 56.2524C160.841 56.2166 161.312 56.3705 161.454 55.8221C161.503 55.6335 161.501 55.419 161.474 55.2228C161.393 54.6603 161.558 54.4587 162.172 54.4663C162.768 54.4739 162.945 54.6386 162.89 55.2228C162.819 55.9511 163.182 56.92 162.763 57.3578C162.314 57.8293 161.348 57.4597 160.609 57.5085C160.587 57.5096 160.565 57.5085 160.543 57.5085V57.5096Z" fill="#011C39"/>
<path d="M133.269 36.8172C132.694 36.8172 132.12 36.8248 131.545 36.8129C131.359 36.8086 131.079 36.9191 131.01 36.698C130.921 36.4163 130.831 36.0218 131.065 35.8158C131.377 35.5406 131.339 35.2317 131.341 34.9055C131.348 34.0569 131.354 33.2083 131.338 32.3608C131.33 31.9576 131.395 31.5815 131.036 31.1957C130.628 30.7568 131.015 30.1542 131.631 30.1531C131.963 30.1531 132.295 30.1325 132.625 30.1607C132.844 30.1791 133.186 30.0014 133.259 30.3113C133.328 30.6126 133.438 31.0169 133.165 31.2607C132.92 31.4797 132.927 31.7159 132.926 31.9782C132.923 32.9828 132.918 33.9875 132.931 34.9922C132.934 35.2187 132.783 35.5785 133.254 35.5438C133.651 35.5146 134.147 35.6717 134.238 35.042C134.263 34.8665 134.275 34.6811 134.246 34.5077C134.146 33.9127 134.379 33.7643 134.961 33.7708C135.518 33.7762 135.686 33.9322 135.643 34.4839C135.595 35.1049 135.617 35.7335 135.638 36.3577C135.65 36.7002 135.545 36.8368 135.19 36.8238C134.55 36.7999 133.908 36.8172 133.267 36.8172H133.269Z" fill="#011C39"/>
<path d="M148.935 40.4922C149.089 40.4922 149.248 40.4716 149.397 40.4965C149.617 40.5334 149.965 40.347 150.032 40.6374C150.103 40.955 150.222 41.3766 149.925 41.6378C149.676 41.8556 149.691 42.0973 149.69 42.3574C149.685 43.3382 149.686 44.319 149.69 45.2998C149.691 45.6066 149.685 45.8883 149.967 46.1419C150.207 46.3554 150.103 46.7413 150.034 47.0241C149.963 47.307 149.657 47.1488 149.457 47.1618C149.106 47.1856 148.751 47.1834 148.399 47.1618C148.196 47.1499 147.898 47.2972 147.81 47.0306C147.716 46.7489 147.661 46.3988 147.863 46.1376C147.975 45.9935 148.1 45.8797 148.1 45.6889C148.102 44.4632 148.097 43.2374 148.104 42.0117C148.106 41.6844 147.73 41.576 147.74 41.201C147.755 40.697 147.804 40.3773 148.408 40.4868C148.579 40.5182 148.76 40.4911 148.936 40.4911L148.935 40.4922Z" fill="#011C39"/>
<path d="M140.664 67.4922C140.743 67.0013 140.868 66.5374 140.578 66.066C140.413 65.7961 140.467 65.38 141.01 65.4493C141.184 65.471 141.366 65.4732 141.539 65.4493C141.953 65.3908 142.101 65.6368 141.978 65.9533C141.572 66.9915 141.863 68.0645 141.755 69.1136C141.727 69.378 141.98 69.7833 141.509 69.8798C141.075 69.9676 140.711 69.8928 140.513 69.378C140.308 68.8437 140.007 68.3463 139.656 67.6526C139.63 68.3083 139.527 68.7451 139.772 69.2079C139.973 69.5883 139.967 69.9611 139.35 69.8939C139.197 69.8776 139.038 69.8776 138.885 69.8939C138.365 69.9502 138.345 69.6555 138.459 69.2783C138.775 68.2281 138.805 67.1855 138.454 66.1321C138.386 65.9251 138.283 65.536 138.567 65.5013C138.956 65.4537 139.466 65.2055 139.756 65.7289C140.076 66.3077 140.364 66.9048 140.665 67.4944L140.664 67.4922Z" fill="#011C39"/>
<path d="M161.629 67.4945C161.7 67.022 161.85 66.5722 161.549 66.1018C161.369 65.8179 161.417 65.3692 162.001 65.4505C162.153 65.4722 162.314 65.4765 162.464 65.4505C162.987 65.3573 163.087 65.7323 162.931 66.0368C162.583 66.725 162.778 67.4316 162.727 68.1274C162.699 68.5046 162.75 68.8893 162.712 69.2654C162.691 69.4832 162.916 69.8636 162.458 69.8821C162.128 69.8961 161.764 70.011 161.567 69.5396C161.319 68.95 160.993 68.3951 160.648 67.8381C160.618 68.3041 160.477 68.7463 160.743 69.2101C161.003 69.6631 160.837 69.8821 160.316 69.8907C160.161 69.8929 160.005 69.8756 159.852 69.894C159.334 69.9547 159.301 69.6566 159.42 69.2827C159.753 68.2336 159.765 67.1921 159.422 66.1409C159.354 65.9295 159.252 65.5383 159.519 65.5036C159.908 65.4527 160.42 65.2023 160.712 65.7204C161.038 66.3002 161.325 66.9038 161.629 67.4967V67.4945Z" fill="#011C39"/>
<path d="M180.214 67.5019C180.277 67.0229 180.439 66.5688 180.13 66.0962C179.946 65.8145 180.008 65.3669 180.587 65.4492C180.761 65.4742 180.944 65.4742 181.117 65.4492C181.576 65.382 181.639 65.7126 181.523 65.9781C181.102 66.947 181.392 67.9527 181.303 68.9357C181.291 69.069 181.321 69.2078 181.297 69.3367C181.26 69.5275 181.443 69.8537 181.097 69.8699C180.779 69.8851 180.392 70.0596 180.178 69.5871C179.905 68.9856 179.581 68.4068 179.215 67.8357C179.223 68.3234 179.044 68.7916 179.352 69.2782C179.524 69.5502 179.516 69.961 178.956 69.8927C178.782 69.871 178.602 69.8775 178.426 69.8916C177.829 69.9393 177.921 69.5958 178.03 69.2153C178.321 68.2074 178.327 67.1984 178.026 66.1894C177.952 65.9434 177.824 65.55 178.109 65.5023C178.49 65.4384 179.007 65.201 179.297 65.7278C179.618 66.3097 179.908 66.9102 180.212 67.503L180.214 67.5019Z" fill="#011C39"/>
<path d="M189.341 69.8894C188.966 69.8894 188.586 69.8602 188.214 69.8959C187.664 69.9501 187.692 69.6207 187.792 69.2749C188.101 68.2193 188.136 67.1789 187.784 66.1201C187.677 65.8004 187.622 65.4026 188.232 65.4416C188.981 65.4882 189.735 65.4481 190.487 65.4557C190.685 65.4579 190.986 65.3593 190.952 65.7321C190.919 66.0919 191.147 66.5547 190.813 66.7779C190.633 66.8993 190.168 67.0261 189.959 66.5883C189.777 66.2057 189.411 66.2913 189.15 66.3867C188.921 66.469 189.002 66.8018 189.054 66.9936C189.168 67.4098 189.544 67.2028 189.781 67.1865C190.264 67.1529 190.381 67.3805 190.284 67.7739C190.198 68.1251 189.869 67.9722 189.672 67.9506C189.138 67.892 188.949 68.1023 189.034 68.6171C189.063 68.7948 188.947 69.0604 189.277 69.0571C189.53 69.0549 189.892 69.1546 189.949 68.8057C190.044 68.2215 190.458 68.4025 190.753 68.4339C191.114 68.4729 190.918 68.8208 190.957 69.0322C191.083 69.7009 190.852 70.0195 190.136 69.897C189.878 69.8526 189.606 69.8894 189.341 69.8894Z" fill="#011C39"/>
<path d="M174.373 67.6796C174.314 67.1247 174.473 66.559 174.141 66.0128C173.987 65.7603 174.072 65.3744 174.565 65.4503C174.673 65.4666 174.786 65.4525 174.896 65.4525C175.809 65.4525 175.713 65.4286 175.483 66.3628C175.284 67.1724 175.367 68.046 175.476 68.887C175.501 69.0831 175.692 69.2175 175.928 69.198C176.189 69.1763 176.365 69.0203 176.356 68.7753C176.326 67.9018 176.583 67.0109 176.203 66.1537C176.115 65.9564 176.063 65.628 176.243 65.5327C176.596 65.3452 177.029 65.4102 177.406 65.4828C177.676 65.5338 177.602 65.925 177.522 66.0572C177.115 66.7259 177.369 67.4445 177.301 68.1337C177.267 68.486 177.35 68.8512 177.218 69.1937C177 69.7627 176.297 70.0867 175.543 69.9783C174.851 69.8786 174.43 69.4765 174.377 68.8176C174.347 68.4404 174.373 68.059 174.373 67.6796Z" fill="#011C39"/>
<path d="M196.74 69.9912C196.332 70.0032 195.966 69.8558 195.592 69.717C195.024 69.5068 195.174 69.0234 195.223 68.6442C195.281 68.2053 195.687 68.4869 195.932 68.4263C196.131 68.3775 196.248 68.4686 196.284 68.6995C196.331 68.9932 196.553 69.0852 196.829 69.0527C197.049 69.0267 197.202 68.9162 197.233 68.6832C197.272 68.3873 197.085 68.2302 196.854 68.1218C196.536 67.9723 196.202 67.853 195.887 67.6948C195.406 67.4531 195.154 67.0565 195.225 66.5027C195.299 65.9348 195.627 65.5705 196.178 65.4394C196.707 65.3137 197.218 65.3885 197.738 65.5554C198.316 65.7418 198.274 66.171 198.247 66.623C198.233 66.8592 198.057 66.8537 197.913 66.8288C197.664 66.7854 197.302 67.0153 197.205 66.5698C197.145 66.2967 196.975 66.2122 196.723 66.2285C196.499 66.2436 196.345 66.3627 196.283 66.5719C196.22 66.7822 196.364 66.9176 196.524 66.9978C196.759 67.116 197.011 67.2017 197.256 67.3003C198.137 67.6558 198.43 68.1196 198.276 68.9151C198.142 69.6055 197.591 69.9913 196.74 69.9892V69.9912Z" fill="#011C39"/>
<path d="M185.781 68.5815C185.912 67.9291 186.045 67.2777 186.172 66.6242C186.189 66.5386 186.216 66.4107 186.173 66.3641C185.94 66.1116 185.796 65.7453 186.04 65.548C186.345 65.3031 186.813 65.4158 187.19 65.4797C187.517 65.535 187.417 65.9393 187.34 66.0921C186.83 67.1097 186.826 68.2434 186.572 69.3174C186.476 69.7227 186.36 69.985 185.898 69.8896C185.472 69.8018 184.884 70.1812 184.73 69.3521C184.528 68.2661 184.389 67.1629 183.943 66.1278C183.786 65.7626 183.836 65.3486 184.442 65.4505C184.55 65.4689 184.663 65.4527 184.774 65.4527C185.605 65.4537 185.604 65.4743 185.301 66.3078C185.149 66.7283 185.402 67.1303 185.466 67.5411C185.522 67.8922 185.604 68.239 185.676 68.588L185.781 68.5804V68.5815Z" fill="#011C39"/>
<path d="M169.265 67.6558C169.265 67.4098 169.265 67.1648 169.265 66.9188C169.269 65.7397 169.641 65.3658 170.818 65.394C171.102 65.4005 171.39 65.4449 171.666 65.5121C172.189 65.64 172.482 66.3087 172.251 66.7942C172.144 67.0185 171.944 66.9318 171.789 66.9253C171.603 66.9167 171.331 67.0641 171.286 66.6858C171.25 66.3802 171.044 66.1992 170.732 66.2415C170.363 66.2913 170.318 66.5937 170.317 66.8972C170.315 67.4325 170.314 67.969 170.328 68.5044C170.334 68.7862 170.395 69.0484 170.759 69.0571C171.11 69.0658 171.324 68.9032 171.29 68.5402C171.239 67.9874 171.626 68.163 171.9 68.1305C172.279 68.0839 172.255 68.3342 172.264 68.5922C172.302 69.7009 172.049 69.9534 170.837 69.9913C169.754 70.0249 169.278 69.6033 169.265 68.5933C169.26 68.2811 169.265 67.9679 169.265 67.6558Z" fill="#011C39"/>
<path d="M149.511 66.2448C149.161 66.3196 149.113 66.5472 149.137 66.7672C149.186 67.2061 148.938 67.2083 148.617 67.2137C148.238 67.2202 148.267 66.9883 148.258 66.7325C148.228 65.8799 148.635 65.4536 149.479 65.4536C150.075 65.4536 150.672 65.4862 151.264 65.4439C151.749 65.4092 151.887 65.601 151.835 66.0508C151.807 66.2925 151.815 66.5418 151.834 66.7856C151.858 67.0923 151.765 67.2321 151.433 67.2148C151.17 67.2007 150.953 67.218 150.984 66.8409C151.004 66.6024 150.977 66.3478 150.564 66.235C150.717 67.2852 150.329 68.304 150.792 69.3054C150.928 69.5991 150.913 69.947 150.408 69.8939C150.299 69.8819 150.188 69.8928 150.078 69.8928C149.207 69.8928 149.325 69.9134 149.477 69.0193C149.627 68.1338 149.51 67.2018 149.51 66.247L149.511 66.2448Z" fill="#011C39"/>
<path d="M164.591 66.2265C164.224 66.3479 164.168 66.5603 164.18 66.7478C164.204 67.1466 164.024 67.2127 163.674 67.216C163.208 67.2203 163.339 66.9038 163.335 66.6687C163.309 65.4527 163.312 65.4527 164.534 65.4527C165.173 65.4527 165.814 65.4678 166.454 65.4462C166.789 65.4353 166.946 65.5274 166.913 65.8927C166.888 66.1799 166.896 66.4725 166.911 66.7619C166.926 67.0491 166.878 67.229 166.527 67.2116C166.24 67.1975 165.998 67.2116 166.026 66.802C166.041 66.5895 166.031 66.3435 165.641 66.2276C165.693 67.2441 165.412 68.2315 165.804 69.2014C166 69.6848 165.884 69.8788 165.364 69.8886C165.231 69.8907 165.098 69.8896 164.967 69.8886C164.253 69.8831 164.283 69.8409 164.481 69.1234C164.737 68.1957 164.536 67.2311 164.592 66.2243L164.591 66.2265Z" fill="#011C39"/>
<path d="M202.933 66.2056C203.083 67.3078 202.718 68.3428 203.176 69.3529C203.294 69.6162 203.257 69.9544 202.792 69.8915C202.684 69.8774 202.571 69.8893 202.46 69.8893C201.558 69.8893 201.632 69.9099 201.859 69.0375C202.077 68.1976 201.908 67.3067 201.933 66.4386C201.936 66.34 201.898 66.2446 201.793 66.2663C201.579 66.3107 201.519 66.509 201.532 66.6814C201.575 67.2189 201.26 67.2493 200.868 67.2016C200.744 67.1864 200.656 67.1463 200.656 67.0054C200.656 66.5589 200.645 66.1124 200.659 65.6659C200.667 65.3906 200.895 65.4545 201.059 65.4534C201.987 65.4491 202.916 65.4654 203.843 65.4437C204.192 65.435 204.251 65.59 204.234 65.8837C204.216 66.1731 204.222 66.4646 204.233 66.754C204.242 67.0184 204.246 67.2308 203.869 67.2124C203.571 67.1972 203.354 67.194 203.376 66.7962C203.386 66.5838 203.347 66.3411 202.934 66.2045L202.933 66.2056Z" fill="#011C39"/>
<path d="M153.716 69.8893C153.362 69.8893 153.006 69.8709 152.655 69.8937C152.094 69.9305 152.171 69.5989 152.274 69.2532C152.58 68.2236 152.606 67.1918 152.259 66.172C152.101 65.706 152.227 65.4664 152.712 65.4524C152.756 65.4513 152.801 65.4524 152.845 65.4524C153.832 65.4459 153.741 65.4296 153.562 66.418C153.416 67.2178 153.51 68.0664 153.528 68.8923C153.535 69.1708 153.798 69.0429 153.949 69.0537C154.314 69.0798 154.422 68.8261 154.384 68.5335C154.315 67.9851 154.541 67.8074 155.053 67.8876C155.205 67.9114 155.31 67.9667 155.313 68.126C155.319 68.6397 155.323 69.1545 155.31 69.6672C155.303 69.9392 155.077 69.8839 154.911 69.8872C154.514 69.8937 154.116 69.8893 153.717 69.8893H153.716Z" fill="#011C39"/>
<path d="M206.272 67.0066C206.439 66.6826 206.616 66.4279 206.638 66.0984C206.652 65.8881 206.515 65.5717 206.759 65.4936C207.041 65.4037 207.411 65.3712 207.669 65.485C207.982 65.6237 207.863 65.9759 207.73 66.2339C207.497 66.688 207.248 67.1334 206.995 67.5767C206.682 68.1272 206.579 68.668 206.868 69.2847C207.02 69.6098 206.974 69.9653 206.443 69.8916C206.357 69.8797 206.267 69.8894 206.178 69.8905C205.268 69.8905 205.28 69.8959 205.593 69.0408C205.727 68.6756 205.707 68.2941 205.517 67.9397C205.213 67.3718 204.912 66.8028 204.605 66.2371C204.33 65.731 204.482 65.4947 205.045 65.446C205.615 65.3972 205.978 65.472 205.895 66.1916C205.863 66.4625 206.01 66.7497 206.273 67.0088L206.272 67.0066Z" fill="#011C39"/>
<path d="M168.09 65.4528C168.917 65.4528 168.87 65.5156 168.665 66.3111C168.43 67.228 168.415 68.2142 168.68 69.1376C168.875 69.8117 168.885 69.8865 168.179 69.8898C168.046 69.8898 167.912 69.8767 167.782 69.8919C167.228 69.9548 167.225 69.6524 167.341 69.2449C167.63 68.2294 167.642 67.2031 167.341 66.1941C167.162 65.5915 167.274 65.4506 168.089 65.4517L168.09 65.4528Z" fill="#011C39"/>
<path d="M182.242 67.6731C182.167 67.1345 182.335 66.5872 182.039 66.0475C181.872 65.744 181.975 65.3647 182.498 65.4503C182.584 65.4644 182.674 65.4525 182.763 65.4525C183.687 65.4525 183.557 65.4243 183.361 66.378C183.175 67.2851 183.096 68.2703 183.451 69.1915C183.645 69.6987 183.556 69.8775 183.03 69.8894C182.898 69.8927 182.765 69.8905 182.632 69.8894C181.917 69.8851 181.882 69.8266 182.15 69.1319C182.334 68.6561 182.181 68.1587 182.243 67.6731H182.242Z" fill="#011C39"/>
<path d="M199.468 69.8897C198.647 69.8897 198.76 69.9093 198.914 69.0368C199.076 68.1189 199.172 67.1456 198.83 66.2233C198.62 65.6576 198.731 65.4604 199.329 65.4539C199.462 65.4528 199.595 65.4517 199.726 65.4539C200.278 65.4614 200.393 65.6641 200.219 66.1897C199.89 67.1933 199.897 68.2153 200.213 69.2189C200.391 69.7857 200.297 69.8908 199.468 69.8897Z" fill="#011C39"/>
<path d="M143.457 67.8876C143.214 67.8876 142.971 67.8876 142.728 67.8876C142.58 67.8876 142.475 67.8421 142.469 67.6643C142.464 67.4768 142.577 67.4465 142.724 67.4465C143.21 67.4465 143.695 67.4443 144.181 67.4476C144.308 67.4476 144.453 67.4335 144.472 67.6264C144.493 67.8475 144.356 67.8854 144.185 67.8865C143.942 67.8865 143.7 67.8865 143.457 67.8865V67.8876Z" fill="#011C39"/>
<path d="M104.789 56.5482C104.592 57.2244 104.029 57.7045 103.831 58.3819C103.783 58.5412 103.62 58.5889 103.459 58.5976C101.665 57.7555 99.8729 57.335 97.9284 58.2215C96.7732 58.7471 97.0406 58.6171 96.4748 57.7056C96.2876 57.4054 96.1368 57.0825 95.9175 56.6739C97.1796 56.6197 98.2482 56.0594 99.3905 55.7592C100.272 55.5272 101.093 55.7223 101.92 55.9976C102.63 56.2339 103.321 56.546 104.08 56.6143C104.321 56.6359 104.563 56.6912 104.789 56.5471V56.5482Z" fill="#011C39"/>
<path d="M113.836 58.4634C113.673 58.4634 113.491 58.406 113.452 58.2651C113.265 57.6148 112.745 57.1553 112.512 56.5343C112.968 56.764 113.429 56.6264 113.862 56.4898C117.153 55.4538 116.548 55.2598 120.232 56.4844C120.58 56.6004 120.957 56.6242 121.342 56.6947C121.324 56.7695 121.32 56.8334 121.293 56.8854C120.429 58.588 120.422 58.6086 118.643 57.9822C117.551 57.5986 116.496 57.5953 115.413 58.0039C114.902 58.1957 114.403 58.4591 113.836 58.4623V58.4634Z" fill="#011C39"/>
<path d="M116.094 62.0779C115.544 61.5349 115.269 60.7882 114.749 60.2214C114.98 60.1564 115.214 60.1 115.442 60.0241C116.943 59.5288 117.747 59.5733 119.231 60.2582C119.094 60.4587 118.947 60.6473 118.828 60.8511C118.438 61.5154 118.003 61.989 117.104 61.7311C116.815 61.6476 116.275 61.5143 116.094 62.0768V62.0779Z" fill="#011C39"/>
<path d="M102.548 60.2233C102.271 60.8747 101.745 61.3288 101.293 61.8425C100.708 61.7439 100.124 61.616 99.5316 61.7981C99.3038 61.8674 99.1647 61.746 99.0375 61.5694C98.7294 61.1402 98.4096 60.7186 98.0737 60.2656C99.2888 59.6793 100.485 59.4994 101.735 59.9697C102 60.0694 102.276 60.141 102.548 60.2255V60.2233Z" fill="#011C39"/>
<path d="M108.665 43.4207L108.525 43.4424L108.539 42.9091C108.589 42.8224 108.615 42.6935 108.762 42.7813C108.8 43.0045 108.811 43.2245 108.666 43.4196L108.665 43.4207Z" fill="#011C39"/>
<path d="M108.762 42.7813C108.687 42.8235 108.613 42.8658 108.538 42.9091C108.503 42.6891 108.517 42.4854 108.762 42.312V42.7813Z" fill="#011C39"/>
<path d="M108.246 45.6001C108.275 45.4169 108.187 45.2175 108.327 45.0181C108.412 45.2782 108.44 45.5047 108.266 45.716C108.245 45.6803 108.239 45.6413 108.246 45.6001Z" fill="#011C39"/>
<path d="M135.053 43.7285C135.736 43.3903 135.983 42.855 135.944 42.1765C135.885 41.1523 135.273 40.5834 134.077 40.5129C133.263 40.4652 132.445 40.4956 131.629 40.4934C131.009 40.4923 130.626 41.1003 131.037 41.5403C131.376 41.9023 131.333 42.2491 131.338 42.6295C131.351 43.5215 131.344 44.4134 131.34 45.3054C131.339 45.611 131.344 45.8841 131.069 46.1475C130.754 46.4498 130.962 47.1619 131.315 47.1619C132.396 47.1619 133.479 47.1846 134.555 47.1055C135.507 47.0351 135.864 46.685 136.015 45.9307C136.228 44.8632 135.993 44.2845 135.053 43.7296V43.7285ZM133.484 41.7907C133.956 41.8373 134.392 41.8655 134.377 42.4832C134.362 43.1021 133.893 43.0955 133.441 43.1476C132.819 43.2202 132.91 42.817 132.931 42.4247C132.856 42.0053 132.928 41.7354 133.484 41.7907ZM133.489 45.8613C132.934 46.0109 132.829 45.6684 132.938 45.2403C133.028 44.8881 132.526 44.2238 133.42 44.2422C134.212 44.2584 134.483 44.4568 134.473 45.0962C134.463 45.7584 134.076 45.9329 133.489 45.8603V45.8613Z" fill="#011C39"/>
<path d="M152.192 54.214C152.192 53.657 152.192 53.0999 152.192 52.5428C152.192 52.4984 152.192 52.454 152.19 52.4095C152.156 51.536 151.716 51.0017 150.869 50.8196C150.215 50.6787 149.558 50.6722 148.899 50.8045C148.047 50.9757 147.571 51.4894 147.553 52.364C147.53 53.567 147.531 54.7711 147.552 55.9741C147.567 56.8172 148.012 57.3266 148.833 57.525C149.532 57.694 150.233 57.6875 150.93 57.5185C151.752 57.319 152.167 56.8086 152.188 55.9524C152.203 55.3737 152.191 54.7938 152.192 54.214ZM150.598 55.5872C150.575 56.0456 150.415 56.4444 149.878 56.4563C149.316 56.4694 149.174 56.0283 149.159 55.5937C149.125 54.6573 149.129 53.7176 149.157 52.7802C149.17 52.351 149.345 51.9814 149.867 51.989C150.367 51.9966 150.569 52.3304 150.595 52.7737C150.624 53.2408 150.602 53.7111 150.602 54.1804H150.604C150.604 54.6497 150.622 55.119 150.599 55.5872H150.598Z" fill="#011C39"/>
<path d="M155.034 50.7121C154.772 50.71 154.507 50.7577 154.247 50.8032C153.354 50.9625 152.882 51.4838 152.865 52.3974C152.843 53.5776 152.845 54.76 152.865 55.9403C152.879 56.7943 153.311 57.3167 154.118 57.5172C154.838 57.6971 155.562 57.6895 156.279 57.5107C157.064 57.3145 157.478 56.8019 157.501 55.9836C157.518 55.3821 157.504 54.7806 157.504 54.1781H157.507C157.507 53.8215 157.484 53.4628 157.512 53.1084C157.655 51.2389 156.892 50.7284 155.035 50.71L155.034 50.7121ZM155.905 55.6531C155.878 56.0888 155.693 56.4399 155.193 56.4583C154.703 56.4767 154.507 56.1083 154.491 55.7246C154.449 54.6993 154.452 53.6708 154.491 52.6456C154.505 52.2695 154.734 51.9737 155.182 51.9845C155.646 51.9964 155.869 52.289 155.901 52.7052C155.938 53.194 155.909 53.6871 155.909 54.1781H155.913C155.913 54.669 155.936 55.1621 155.906 55.652L155.905 55.6531Z" fill="#011C39"/>
<path d="M151.63 33.5497H151.633C151.633 33.1476 151.633 32.7456 151.633 32.3424C151.633 30.5921 151.076 30.0275 149.325 30.0264C148.995 30.0264 148.661 30.0513 148.339 30.1185C147.403 30.3125 147.008 30.7818 146.99 31.7355C146.971 32.6968 147.034 33.6614 146.973 34.6183C146.839 36.7057 147.959 36.9159 149.395 36.943C149.659 36.9484 149.925 36.904 150.187 36.8617C151.101 36.71 151.585 36.1714 151.627 35.2263C151.651 34.6682 151.631 34.1089 151.631 33.5497H151.63ZM149.962 35.2003C149.907 35.5666 149.649 35.791 149.264 35.778C148.868 35.765 148.653 35.4821 148.625 35.1331C148.58 34.5815 148.614 34.0244 148.614 33.4684H148.594C148.594 32.9797 148.58 32.4898 148.599 32.0021C148.614 31.6 148.821 31.3106 149.233 31.2814C149.636 31.2532 149.936 31.4873 149.979 31.8861C150.099 32.9894 150.129 34.0992 149.961 35.2003H149.962Z" fill="#011C39"/>
<path d="M140.757 34.9172C140.553 33.712 140.266 32.5199 140.01 31.3234C139.844 30.5438 139.369 30.154 138.585 30.154C138.431 30.154 138.272 30.1757 138.121 30.1497C137.545 30.0521 137.302 30.2808 137.251 30.8769C137.199 31.4719 137.067 32.0669 136.907 32.6445C136.61 33.724 136.611 34.876 136.035 35.8948C135.72 36.4507 136.03 36.816 136.691 36.8171C136.957 36.8171 137.223 36.8333 137.486 36.8116C137.69 36.7954 138.008 36.9449 138.072 36.687C138.144 36.3966 138.269 36.0107 137.963 35.7701C137.631 35.5089 137.725 35.2272 137.848 34.9389C137.903 34.8077 139.047 34.7796 139.103 34.9129C139.223 35.1936 139.314 35.484 139.031 35.7593C138.755 36.027 138.852 36.3998 138.943 36.6935C139.019 36.9384 139.332 36.8008 139.538 36.8116C139.912 36.8311 140.292 36.7845 140.662 36.8246C141.163 36.8788 141.231 36.6361 141.234 36.2047C141.238 35.6997 140.836 35.3897 140.756 34.9172H140.757ZM138.193 33.905C138.016 33.8627 137.99 33.7847 138.024 33.6351C138.151 33.0813 138.279 32.5264 138.441 31.8165C138.588 32.4245 138.697 32.871 138.803 33.3186C138.932 33.8659 138.742 34.0361 138.193 33.905Z" fill="#011C39"/>
<path d="M194.614 69.0322C194.567 68.888 194.551 68.7255 194.56 68.5727C194.58 68.1998 194.464 67.9235 194.053 67.7837C194.732 67.4152 194.782 66.8343 194.603 66.2133C194.411 65.5511 193.849 65.4698 193.276 65.4568C192.813 65.446 192.35 65.4492 191.887 65.4557C191.364 65.4622 191.255 65.7061 191.437 66.21C191.787 67.1843 191.724 68.1988 191.471 69.172C191.317 69.7616 191.304 69.8797 191.899 69.8905C192.075 69.8938 192.252 69.8949 192.428 69.8905C192.968 69.8764 193.086 69.6922 192.798 69.2056C192.683 69.0116 192.665 68.8339 192.674 68.6431C192.685 68.4329 192.54 68.1196 192.97 68.1294C193.307 68.137 193.528 68.2399 193.535 68.6182C193.542 68.9075 193.557 69.1969 193.558 69.4863C193.56 69.793 193.696 69.8905 194.005 69.9003C194.875 69.9274 194.902 69.9014 194.616 69.0333L194.614 69.0322ZM193.024 67.3578C192.577 67.3903 192.672 67.089 192.666 66.8094C192.727 66.6251 192.499 66.248 192.975 66.2729C193.329 66.2913 193.63 66.3639 193.623 66.8321C193.615 67.2505 193.375 67.3317 193.024 67.3578Z" fill="#011C39"/>
<path d="M148.086 68.9391C148.028 68.7949 147.996 68.6399 147.964 68.4882C147.826 67.8347 147.689 67.1812 147.557 66.5277C147.333 65.4211 147.334 65.4352 146.243 65.4461C145.896 65.4493 145.751 65.5414 145.675 65.9088C145.434 67.0565 145.336 68.24 144.884 69.3411C144.823 69.4896 144.752 69.8191 144.995 69.8614C145.377 69.9275 145.833 70.0228 146.153 69.8115C146.379 69.663 146.241 69.3043 146.041 69.0561C145.939 68.9304 145.986 68.7191 146.133 68.6486C146.353 68.5424 146.614 68.5467 146.838 68.6464C146.995 68.7158 147.004 68.8925 146.955 69.0561C146.791 69.6132 146.978 69.8917 147.514 69.8917C148.15 69.8917 148.341 69.5735 148.086 68.9391ZM146.462 67.9778C146.205 67.9778 146.17 67.8434 146.213 67.6374C146.272 67.3567 146.333 67.076 146.405 66.739C146.667 67.0479 146.633 67.3806 146.733 67.6678C146.813 67.8965 146.689 67.9767 146.462 67.9778Z" fill="#011C39"/>
<path d="M158.967 69.3087C158.515 68.3214 158.442 67.2463 158.213 66.2102C158.087 65.6369 157.952 65.2727 157.279 65.4873C156.535 65.2077 156.409 65.6954 156.307 66.2785C156.15 67.1769 156 68.083 155.749 68.9565C155.47 69.9254 155.422 69.9113 156.442 69.8885C157.029 69.8755 157.113 69.7336 156.809 69.1776C156.698 68.976 156.634 68.7798 156.82 68.6541C157.025 68.5165 157.313 68.5371 157.524 68.6281C157.727 68.7159 157.674 68.9435 157.598 69.1494C157.338 69.843 157.372 69.8853 158.103 69.8885C158.257 69.8885 158.414 69.8723 158.566 69.8918C159.075 69.9547 159.092 69.584 158.966 69.3087H158.967ZM157.4 67.9367C157.286 67.9811 157.14 67.98 157.015 67.9583C156.811 67.9226 156.894 67.7687 156.921 67.6462C156.985 67.3449 157.051 67.0436 157.16 66.5451C157.286 67.0491 157.361 67.3482 157.433 67.6484C157.458 67.7492 157.537 67.8825 157.4 67.9367Z" fill="#011C39"/>
<path d="M137.995 69.2785C137.541 68.2922 137.46 67.2171 137.246 66.18C137.119 65.5622 136.903 65.3119 136.288 65.4842C135.61 65.2663 135.439 65.6489 135.34 66.2439C135.179 67.228 135.047 68.2251 134.686 69.1625C134.594 69.3999 134.465 69.7207 134.674 69.8171C135.047 69.9905 135.518 69.9786 135.89 69.8236C136.079 69.7445 136.067 69.3739 135.83 69.1484C135.689 69.013 135.676 68.7995 135.831 68.6759C136.035 68.5133 136.305 68.5664 136.532 68.6206C136.748 68.6727 136.716 68.8959 136.673 69.0661C136.465 69.8919 136.461 69.8908 137.304 69.8897C137.393 69.8897 137.482 69.88 137.568 69.8908C138.102 69.9623 138.144 69.6014 137.995 69.2785ZM136.41 67.9509C136.298 67.9953 136.145 67.9877 136.027 67.9498C135.843 67.8902 135.947 67.733 135.968 67.6181C136.024 67.3223 136.091 67.0296 136.19 66.5647C136.307 67.0275 136.381 67.3212 136.457 67.6138C136.489 67.7363 136.574 67.8859 136.41 67.9509Z" fill="#011C39"/>
<path d="M133.02 65.4538C132.645 65.4516 132.269 65.4516 131.895 65.4538C131.288 65.4581 131.214 65.6272 131.376 66.2124C131.652 67.2041 131.643 68.2185 131.375 69.2123C131.253 69.6642 131.239 69.9579 131.829 69.8929C131.982 69.8756 132.138 69.8929 132.292 69.8897C132.866 69.881 132.958 69.7249 132.713 69.1733C132.434 68.5458 132.499 68.4341 133.15 68.4211C134.279 68.3973 134.567 68.1079 134.567 66.9971C134.567 65.806 134.22 65.4592 133.021 65.4527L133.02 65.4538ZM132.939 67.6094C132.286 67.5855 132.646 67.0935 132.579 66.815C132.506 66.5191 132.587 66.2698 132.971 66.3425C133.451 66.3186 133.518 66.6362 133.526 67.0003C133.535 67.4024 133.379 67.6246 132.94 67.6094H132.939Z" fill="#011C39"/>
<path d="M124.783 43.5952C124.17 43.7783 123.549 43.9452 122.952 44.1761C121.826 44.6118 120.694 44.6746 119.597 44.175C117.875 43.3914 116.196 43.4077 114.479 44.1891C113.791 44.5023 113.022 44.6616 112.274 44.472C111.061 44.1642 109.868 43.7751 108.667 43.4207C108.611 43.3687 108.564 43.3752 108.526 43.4424C107.964 43.6071 107.376 43.7122 106.844 43.9485C105.231 44.667 103.649 44.6454 102.045 43.9301C100.854 43.4001 99.6455 43.4261 98.4443 43.9322C98.2004 44.0352 97.9427 44.1002 97.6956 44.1956C96.596 44.6215 95.5039 44.6096 94.4001 44.1934C93.8032 43.968 93.1882 43.7881 92.5764 43.6049C92.2459 43.5063 92.0983 43.5367 92.1047 44.0038C92.1175 45.107 92.4352 45.8657 93.6578 45.9611C93.892 45.9795 94.122 46.0976 94.3466 46.1876C95.4868 46.6493 96.6399 46.6872 97.7598 46.18C99.4326 45.4213 101.07 45.4192 102.744 46.1767C103.862 46.6818 105.01 46.6395 106.159 46.1984C106.835 45.9394 107.508 45.6457 108.247 45.6012C108.378 45.4712 108.274 45.2956 108.349 45.0962C108.289 45.3368 108.371 45.5373 108.269 45.7172C108.175 46.2222 108.079 46.7262 107.987 47.2312C107.951 47.4274 107.948 47.6279 107.705 47.7124C105.901 48.3378 104.122 48.9989 102.202 48.0278C100.93 47.3841 99.5845 47.4447 98.2849 48.0235C96.8057 48.6824 95.3446 48.7117 93.8589 48.0419C93.5209 47.8891 93.1561 47.6984 92.7283 47.7764C92.8684 48.3584 92.9989 48.9003 93.1283 49.4411C93.1807 49.6611 93.2524 49.8356 93.5016 49.9363C94.9542 50.5259 96.4078 50.8727 97.9277 50.1661C99.4829 49.4432 101.039 49.4649 102.603 50.1639C103.816 50.7058 105.041 50.6939 106.275 50.1932C106.586 50.0675 107.01 49.7456 107.232 49.9699C107.445 50.1845 107.092 50.6105 107.045 50.9551C106.923 51.8481 106.393 52.2578 105.54 52.454C104.568 52.6783 103.632 52.6317 102.749 52.2361C101.07 51.4829 99.438 51.4807 97.7587 52.2394C96.6901 52.7217 95.5703 52.713 94.4611 52.2914C94.3359 52.2437 94.1969 52.0996 93.9936 52.2676C94.2022 52.8116 94.4397 53.3611 94.6226 53.929C94.7691 54.3842 95.0782 54.5207 95.505 54.5825C96.4891 54.7234 97.3918 54.4362 98.2753 54.0742C99.5899 53.5345 100.886 53.5161 102.203 54.0655C103.32 54.5316 104.465 54.8394 105.758 54.3972C105.406 55.1797 105.098 55.8635 104.789 56.5474C104.206 57.138 103.906 57.9162 103.459 58.5968C103.351 59.2503 102.825 59.6654 102.548 60.2225C102.064 60.7102 101.552 61.1751 101.294 61.8416C101.054 62.1603 100.838 62.5016 100.568 62.791C100.329 63.0457 100.371 63.2072 100.587 63.4478C102.806 65.9058 105.299 68.0202 108.156 69.6892C108.505 69.893 108.778 69.8887 109.127 69.6882C111.742 68.1861 114.044 66.2884 116.125 64.1056C116.747 63.4532 116.756 62.7874 116.154 62.1082C116.14 62.0931 116.114 62.0876 116.095 62.079C115.743 61.3897 115.463 60.6462 114.751 60.2225C114.453 59.7619 114.171 59.2904 113.852 58.845C113.744 58.6943 113.729 58.5957 113.836 58.4635C113.362 57.8436 113.114 57.0643 112.512 56.5355C112.207 55.8559 111.902 55.1764 111.559 54.4102C112.662 54.757 113.675 54.6659 114.621 54.2411C116.257 53.5052 117.852 53.5041 119.485 54.2368C120.26 54.5847 121.094 54.7212 121.949 54.5587C122.182 54.5142 122.454 54.5023 122.563 54.2314C122.832 53.5648 123.088 52.894 123.424 52.0324C121.764 52.8886 120.294 52.6122 118.846 52.0042C117.637 51.4981 116.443 51.5111 115.238 52.0096C114.892 52.1527 114.527 52.2502 114.174 52.3781C113.019 52.7964 111.913 52.5331 110.807 52.157C110.64 52.1006 110.613 51.9934 110.576 51.8774C110.366 51.2325 110.167 50.5834 109.921 49.7998C110.422 49.9764 110.793 50.0967 111.156 50.2376C112.278 50.6733 113.419 50.7297 114.516 50.2366C116.214 49.4725 117.87 49.4443 119.568 50.229C121.04 50.9085 122.465 50.4782 123.865 49.9093C124.031 49.8421 124.117 49.7391 124.156 49.5809C124.301 48.9815 124.441 48.3811 124.615 47.655C124.013 47.8555 123.512 47.9942 123.032 48.1882C121.867 48.6575 120.691 48.7149 119.547 48.1991C117.87 47.4426 116.233 47.4458 114.555 48.2012C113.436 48.7052 112.279 48.664 111.133 48.2099C110.682 48.0311 110.221 47.8674 109.752 47.7471C109.493 47.681 109.37 47.5585 109.332 47.3114C109.243 46.7414 109.153 46.1713 109.065 45.6012C109.535 45.6045 109.983 45.7454 110.398 45.935C112.049 46.6937 113.676 46.6753 115.328 45.9296C116.475 45.4116 117.659 45.4268 118.806 45.9361C120.433 46.659 121.999 46.5701 123.688 45.9979C124.766 45.6327 125.251 45.1428 125.192 44.0471C125.191 44.0254 125.196 44.0027 125.202 43.981C125.305 43.5833 125.11 43.4966 124.783 43.5952ZM108.983 45.2935C108.978 45.365 108.98 45.4473 109.016 45.5297C108.973 45.4484 108.974 45.365 108.983 45.2935ZM112.626 62.5016C112.626 64.6107 110.869 66.3556 108.755 66.3447C106.63 66.3339 104.914 64.5988 104.925 62.4713C104.936 60.3449 106.674 58.6521 108.82 58.6803C110.936 58.7073 112.626 60.4045 112.626 62.5027V62.5016Z" fill="#011C39"/>
<path d="M108.835 43.8574C108.924 44.0796 108.952 44.291 108.859 44.5261C108.704 44.2855 108.818 44.0644 108.835 43.8574Z" fill="#011C39"/>
<path d="M108.426 43.9907C108.544 44.1912 108.536 44.4015 108.477 44.6399C108.285 44.421 108.442 44.201 108.426 43.9907Z" fill="#011C39"/>
<path d="M109.064 45.5955C108.821 45.3896 108.932 45.1459 109.028 44.9062C109.038 45.1382 109.048 45.369 109.058 45.601L109.064 45.5966V45.5955Z" fill="#011C39"/>
<path d="M124.849 31.5045C124.795 31.136 124.701 30.9691 124.285 30.9702C113.869 30.9811 103.454 30.9811 93.0383 30.9702C92.6436 30.9702 92.511 31.097 92.4543 31.4839C91.9665 34.784 91.7804 38.0993 91.9045 41.4362C91.9248 41.9813 92.0927 42.0865 92.5912 42.0843C97.92 42.067 103.25 42.0735 108.58 42.0735C113.976 42.0735 119.371 42.0659 124.767 42.0865C125.269 42.0886 125.377 41.9445 125.4 41.4568C125.557 38.1188 125.331 34.8057 124.849 31.5045ZM97.7371 40.2235C95.6203 40.218 93.9186 38.5285 93.9122 36.4249C93.9057 34.2985 95.6385 32.5699 97.7692 32.5775C99.8646 32.585 101.596 34.3061 101.605 36.3902C101.613 38.5122 99.8817 40.2289 97.7371 40.2235ZM108.664 40.2235C106.521 40.2267 104.794 38.509 104.806 36.3837C104.817 34.2985 106.548 32.5829 108.646 32.5775C110.775 32.572 112.509 34.3072 112.499 36.4314C112.489 38.5306 110.782 40.2202 108.664 40.2235ZM119.579 40.2235C117.435 40.2332 115.695 38.5176 115.699 36.3999C115.703 34.318 117.433 32.5905 119.526 32.5775C121.661 32.5645 123.394 34.2844 123.391 36.4129C123.388 38.522 121.695 40.2126 119.579 40.2224V40.2235Z" fill="#011C39"/>
</g>
</g>
<defs>
<clipPath id="clip0_298_11221">
<rect width="116" height="40" fill="white" transform="translate(91.8672 30)"/>
</clipPath>
</defs>
</svg>
