<svg width="300" height="100" viewBox="0 0 300 100" fill="none" xmlns="http://www.w3.org/2000/svg">
<rect width="300" height="100" fill="white"/>
<g clip-path="url(#clip0_298_11211)">
<path d="M98.581 49.8477H113.828V62.5893L98.581 70L83.334 62.5893V61.5663V30L98.581 38.2083V49.8477Z" fill="#084EC4"/>
<path d="M98.5811 49.8477H113.828V62.5892L98.5811 69.9999V49.8477Z" fill="#0740A5"/>
<path d="M121.925 64.6544V36.7417H128.026V64.6544H121.925Z" fill="#1A1A1A"/>
<path d="M137.766 65.1726C134.975 65.1726 132.768 64.2293 131.147 62.3417C129.525 60.4541 128.715 58.0217 128.715 55.0445C128.715 52.1205 129.552 49.7012 131.227 47.7875C132.902 45.8733 135.108 44.9165 137.846 44.9165C139.202 44.9165 140.411 45.2089 141.475 45.7937C142.538 46.3785 143.336 47.1757 143.867 48.186V45.4347H149.928V64.6544H143.867V61.9431C143.336 62.8999 142.518 63.6775 141.415 64.2754C140.311 64.8737 139.095 65.1726 137.766 65.1726ZM139.521 60.1086C140.983 60.1086 142.112 59.6299 142.91 58.6731C143.708 57.7162 144.106 56.5066 144.106 55.0445C144.106 53.6091 143.708 52.4129 142.91 51.4556C142.112 50.4988 140.983 50.0201 139.521 50.0201C138.138 50.0201 137.028 50.4853 136.191 51.416C135.354 52.3463 134.935 53.556 134.935 55.0445C134.935 56.5331 135.354 57.7493 136.191 58.6931C137.028 59.6369 138.138 60.1086 139.521 60.1086Z" fill="#1A1A1A"/>
<path d="M152.053 64.6544V45.4347H158.154V48.2261C159.297 46.0195 161.37 44.9165 164.374 44.9165C169.053 44.9165 171.392 47.5347 171.392 52.7714V64.6544H165.251V54.7652C165.251 53.1174 164.992 51.9207 164.473 51.1767C163.955 50.4322 163.085 50.0601 161.862 50.0601C159.389 50.0601 158.154 51.5753 158.154 54.6059V64.6544H152.053Z" fill="#1A1A1A"/>
<path d="M187.034 36.7417H193.134V64.6544H187.073V61.9431C186.542 62.8999 185.725 63.6775 184.621 64.2753C183.518 64.8737 182.302 65.1726 180.972 65.1726C178.182 65.1726 175.975 64.2292 174.353 62.3416C172.732 60.454 171.921 58.0217 171.921 55.0445C171.921 52.1205 172.759 49.7011 174.433 47.7875C176.108 45.8733 178.314 44.9165 181.053 44.9165C182.408 44.9165 183.618 45.2089 184.681 45.7937C185.745 46.3785 186.542 47.1757 187.073 48.186V46.5513H187.034V36.7417ZM182.727 60.1086C184.189 60.1086 185.319 59.6299 186.117 58.6731C186.914 57.7162 187.313 56.5066 187.313 55.0445C187.313 53.609 186.914 52.4129 186.117 51.4556C185.319 50.4987 184.189 50.0201 182.727 50.0201C181.345 50.0201 180.235 50.4852 179.398 51.416C178.56 52.3463 178.142 53.556 178.142 55.0445C178.142 56.5331 178.56 57.7493 179.398 58.6931C180.235 59.6369 181.345 60.1086 182.727 60.1086Z" fill="#1A1A1A"/>
<path d="M202.914 65.1726C200.123 65.1726 197.917 64.2293 196.295 62.3417C194.673 60.4541 193.863 58.0217 193.863 55.0445C193.863 52.1205 194.7 49.7012 196.375 47.7875C198.05 45.8733 200.256 44.9165 202.994 44.9165C204.35 44.9165 205.559 45.2089 206.623 45.7937C207.686 46.3785 208.484 47.1757 209.015 48.186V45.4347H215.076V64.6544H209.015V61.9431C208.484 62.8999 207.666 63.6775 206.563 64.2754C205.46 64.8737 204.244 65.1726 202.914 65.1726ZM204.669 60.1086C206.131 60.1086 207.261 59.6299 208.058 58.6731C208.856 57.7162 209.255 56.5066 209.255 55.0445C209.255 53.6091 208.856 52.4129 208.058 51.4556C207.261 50.4988 206.131 50.0201 204.669 50.0201C203.286 50.0201 202.177 50.4853 201.339 51.416C200.502 52.3463 200.083 53.556 200.083 55.0445C200.083 56.5331 200.502 57.7493 201.339 58.6931C202.177 59.6369 203.286 60.1086 204.669 60.1086Z" fill="#1A1A1A"/>
</g>
<defs>
<clipPath id="clip0_298_11211">
<rect width="131.864" height="40" fill="white" transform="translate(83.2734 30)"/>
</clipPath>
</defs>
</svg>
