<svg width="300" height="100" viewBox="0 0 300 100" fill="none" xmlns="http://www.w3.org/2000/svg">
<rect width="300" height="100" fill="white"/>
<path d="M114.283 37.6281L110.425 37.524C110.425 37.524 108.281 37.0585 104.484 40.978C100.687 44.8975 99.1562 46.8572 98.1763 47.3471C97.1964 47.8371 95.6041 47.7146 95.6041 47.7146L95.4204 49.9805H113.181V46.4285H106.758C106.693 46.4285 106.628 46.4156 106.568 46.3906C106.507 46.3656 106.452 46.3289 106.406 46.2826C106.36 46.2364 106.323 46.1815 106.298 46.121C106.273 46.0606 106.26 45.9958 106.26 45.9304V44.4925C106.26 44.0594 106.427 43.6427 106.725 43.3286C107.372 42.6472 108.608 41.5332 109.873 41.4067C111.711 41.223 114.265 41.2842 114.265 41.2842L114.283 37.6281Z" fill="#ED1E24"/>
<path d="M125.919 36.7524H117.87C117.613 36.7527 117.359 36.8049 117.124 36.9059C116.888 37.0069 116.675 37.1547 116.498 37.3402C116.091 37.7663 115.572 38.3844 115.569 39.0796C115.561 40.7053 118.509 42.2029 119.427 43.0603C120.346 43.9177 121.199 45.1666 120.536 46.0396C120.107 46.7133 113.548 46.1624 113.548 46.1624L113.53 49.9714L122.556 50.0301C122.919 50.0352 123.278 49.9536 123.603 49.7921C123.927 49.6305 124.209 49.3936 124.423 49.1012C124.874 48.4844 125.312 47.5891 125.245 46.4899C125.136 44.691 124.204 42.8766 122.918 41.8967C121.632 40.9169 121.094 41.1337 121.081 40.4269C121.068 39.7423 121.416 39.3846 121.938 39.3246C122.678 39.2396 125.91 39.4471 125.91 39.4471L125.919 36.7524Z" fill="#ED1E24"/>
<path d="M127.246 37.1128H129.642L130.504 39.6978C130.643 40.1143 130.611 40.5688 130.417 40.9624L128.363 45.1191C128.219 45.4084 128.152 45.7295 128.168 46.0519L128.204 46.8184L127.186 46.9383L126.299 45.502C126.187 45.3207 126.125 45.1129 126.119 44.8999C126.113 44.6868 126.164 44.4761 126.267 44.2892C126.814 43.2892 127.85 41.3468 128.025 40.6476C128.264 39.689 127.246 37.1128 127.246 37.1128Z" fill="#231F57"/>
<path d="M124.017 54.4718C124.017 54.0883 123.891 53.7943 123.638 53.5899C123.386 53.3854 123.02 53.2832 122.54 53.2832H121.253V55.668H122.54C123.02 55.668 123.386 55.5645 123.638 55.3576C123.891 55.1506 124.017 54.8554 124.017 54.4718Z" fill="#231F57"/>
<path d="M117.578 53.503C117.258 53.3239 116.896 53.2325 116.529 53.238C116.16 53.2331 115.796 53.3244 115.473 53.503C115.164 53.6739 114.907 53.9266 114.731 54.2336C114.555 54.5522 114.462 54.9104 114.462 55.2746C114.462 55.6387 114.555 55.9969 114.731 56.3155C114.907 56.6225 115.163 56.8752 115.473 57.0461C115.796 57.2247 116.16 57.3161 116.529 57.3111C116.896 57.3167 117.258 57.2253 117.578 57.0461C117.884 56.8735 118.138 56.621 118.312 56.3155C118.488 55.9969 118.581 55.6387 118.581 55.2746C118.581 54.9104 118.488 54.5522 118.312 54.2336C118.138 53.9282 117.884 53.6757 117.578 53.503Z" fill="#231F57"/>
<path d="M106.926 53.503C106.606 53.3239 106.244 53.2325 105.877 53.238C105.508 53.2331 105.144 53.3244 104.821 53.503C104.512 53.6739 104.255 53.9266 104.079 54.2336C103.903 54.5522 103.811 54.9104 103.811 55.2746C103.811 55.6387 103.903 55.9969 104.079 56.3155C104.255 56.6225 104.512 56.8752 104.821 57.0461C105.144 57.2247 105.508 57.3161 105.877 57.3111C106.244 57.3167 106.606 57.2253 106.926 57.0461C107.232 56.8735 107.486 56.621 107.66 56.3155C107.837 55.9969 107.929 55.6387 107.929 55.2746C107.929 54.9104 107.837 54.5522 107.66 54.2336C107.486 53.9282 107.232 53.6757 106.926 53.503Z" fill="#231F57"/>
<path d="M140.238 53.4953L140.127 47.6584C140.121 47.3242 140.011 47.0002 139.813 46.7309L138.086 44.3837C137.992 44.2565 137.869 44.1546 137.726 44.0872C137.583 44.0199 137.425 43.9892 137.268 43.9979L134.546 44.1492C134.546 44.1492 132.329 41.513 131.011 41.7527L129.214 44.8082C129.214 44.8082 128.854 46.1262 129.813 46.5456C130.772 46.965 131.55 46.1262 131.55 46.1262L133.062 46.2882C133.172 46.3 133.284 46.3045 133.395 46.3017L135.565 46.2461C135.565 46.2461 137.362 47.3245 137.362 48.2231C137.362 49.1218 136.823 49.3015 135.984 49.4214C135.783 49.4501 133.049 49.56 129.164 49.5557C128.128 49.5545 127.105 49.9599 125.913 49.9571C115.486 49.9329 101.406 49.9105 96.2623 49.9025C95.267 49.9029 94.2723 49.8513 93.2824 49.7481C91.7224 49.5823 88.7658 49.5784 87.6953 51.6979C86.7063 53.6563 87.216 55.6521 86.3174 56.6107C85.4187 57.5693 84.52 57.3296 84.52 57.3296L84.6398 61.5833L89.972 61.3437C89.972 61.3437 90.5111 62.2423 91.1103 62.2423C91.7094 62.2423 91.949 61.763 92.608 61.7031C93.2671 61.6432 94.5851 64.3392 94.5851 64.3392L101.894 64.5789L104.291 61.3436L125.08 61.1639C125.08 61.1639 126.338 63.9797 126.817 64.2194C127.297 64.459 131.011 64.5189 131.011 64.5189C131.011 64.5189 134.366 60.6247 134.546 60.2053C134.726 59.7859 137.362 59.8458 137.362 59.8458C137.362 59.8458 140.357 55.8318 140.597 54.9331C140.67 54.6831 140.675 54.4182 140.612 54.1655C140.549 53.9128 140.42 53.6815 140.238 53.4953ZM101.168 57.9242L101.161 54.0631L99.2455 57.2807H98.8972L96.9818 54.0858V57.9242H96.255V52.6247H96.8759L99.0865 56.3496L101.267 52.6247H101.888L101.895 57.9242L101.168 57.9242ZM108.323 56.6636C108.082 57.073 107.734 57.4083 107.316 57.6327C106.87 57.864 106.376 57.9848 105.874 57.9848C105.372 57.9848 104.877 57.864 104.431 57.6327C104.012 57.4071 103.662 57.0706 103.421 56.6598C103.18 56.2377 103.053 55.7603 103.053 55.2744C103.053 54.7885 103.18 54.311 103.421 53.889C103.662 53.4782 104.012 53.1417 104.431 52.9161C104.877 52.6848 105.372 52.564 105.874 52.564C106.376 52.564 106.87 52.6848 107.316 52.9161C107.734 53.1405 108.082 53.4758 108.323 53.8851C108.561 54.3094 108.686 54.7878 108.686 55.2743C108.686 55.7609 108.561 56.2394 108.323 56.6636ZM113.387 53.2833H111.571V57.9242H110.821V53.2833H109.004V52.6247H113.387V53.2833ZM118.975 56.6636C118.734 57.073 118.386 57.4083 117.968 57.6327C117.522 57.864 117.027 57.9848 116.525 57.9848C116.023 57.9848 115.529 57.864 115.083 57.6327C114.664 57.4071 114.314 57.0706 114.073 56.6598C113.832 56.2377 113.705 55.7602 113.705 55.2744C113.705 54.7885 113.832 54.311 114.073 53.889C114.314 53.4782 114.664 53.1417 115.083 52.9161C115.529 52.6848 116.023 52.564 116.525 52.564C117.027 52.564 117.522 52.6848 117.968 52.9161C118.386 53.1405 118.734 53.4758 118.975 53.8851C119.213 54.3094 119.338 54.7878 119.338 55.2743C119.338 55.7609 119.213 56.2394 118.975 56.6636ZM124.039 57.9242L122.896 56.2965C122.755 56.3067 122.644 56.3117 122.563 56.3116H121.253V57.9242H120.496V52.6247H122.563C123.249 52.6247 123.789 52.7887 124.183 53.1168C124.577 53.445 124.774 53.8967 124.774 54.472C124.785 54.8433 124.679 55.2088 124.471 55.5167C124.258 55.8128 123.955 56.033 123.608 56.1451L124.865 57.9242H124.039ZM129.369 57.239C129.198 57.4845 128.958 57.6742 128.68 57.7841C128.319 57.9277 127.933 57.996 127.545 57.9848C127.152 57.9858 126.762 57.9232 126.39 57.7993C126.068 57.7029 125.77 57.539 125.516 57.3185L125.796 56.728C126.023 56.9246 126.287 57.075 126.572 57.1709C126.884 57.2838 127.213 57.3415 127.545 57.3412C127.984 57.3412 128.312 57.2668 128.529 57.1179C128.63 57.0553 128.713 56.9677 128.77 56.8636C128.827 56.7595 128.856 56.6423 128.854 56.5236C128.857 56.4414 128.843 56.3595 128.813 56.2832C128.782 56.2069 128.736 56.1379 128.676 56.0807C128.551 55.9629 128.401 55.8738 128.237 55.8195C128.063 55.7589 127.817 55.6908 127.499 55.6151C127.171 55.5407 126.849 55.4446 126.534 55.3274C126.292 55.2333 126.076 55.0813 125.906 54.8846C125.722 54.6573 125.629 54.3701 125.644 54.0783C125.641 53.8069 125.719 53.5406 125.868 53.3136C126.036 53.0704 126.272 52.8811 126.545 52.7686C126.903 52.6219 127.287 52.5522 127.673 52.5641C127.985 52.564 128.296 52.6048 128.597 52.6853C128.875 52.755 129.139 52.8729 129.377 53.0336L129.127 53.6392C128.906 53.4986 128.667 53.3903 128.415 53.3175C128.174 53.246 127.925 53.2091 127.673 53.2077C127.244 53.2077 126.923 53.2859 126.708 53.4424C126.608 53.5085 126.527 53.5986 126.47 53.7044C126.414 53.8101 126.385 53.9283 126.386 54.0481C126.383 54.1306 126.398 54.2128 126.429 54.2891C126.461 54.3655 126.508 54.4343 126.568 54.4909C126.698 54.6098 126.851 54.7001 127.019 54.7559C127.258 54.8359 127.502 54.9029 127.749 54.9565C128.076 55.0306 128.397 55.1268 128.711 55.2442C128.951 55.3387 129.165 55.4893 129.335 55.6833C129.518 55.9064 129.612 56.1899 129.596 56.4782C129.598 56.7488 129.519 57.0139 129.369 57.239Z" fill="#231F57"/>
<path d="M145.773 38.6147H146.469V44.5902H150.152V45.1916H145.773V38.6147Z" fill="#231F57"/>
<path d="M155.451 43.4346H151.787L150.997 45.1915H150.274L153.28 38.6147H153.966L156.973 45.1915H156.24L155.451 43.4346ZM155.197 42.8708L153.619 39.3381L152.04 42.8708H155.197Z" fill="#231F57"/>
<path d="M163.559 38.6147V45.1916H162.986L158.758 39.8549V45.1916H158.062V38.6147H158.636L162.873 43.9513V38.6147H163.559Z" fill="#231F57"/>
<path d="M170.192 45.1916L168.689 43.0776C168.514 43.0967 168.339 43.1061 168.163 43.1058H166.396V45.1916H165.701V38.6147H168.163C169.002 38.6147 169.66 38.8152 170.136 39.216C170.612 39.6169 170.85 40.1681 170.85 40.8697C170.865 41.3343 170.728 41.7911 170.46 42.1709C170.18 42.5387 169.79 42.8071 169.347 42.9366L170.953 45.1916H170.192ZM169.638 42.0817C169.982 41.7937 170.155 41.3896 170.155 40.8697C170.155 40.3373 169.982 39.9286 169.638 39.6435C169.293 39.3585 168.795 39.216 168.144 39.216H166.396V42.5138H168.144C168.795 42.5138 169.293 42.3698 169.638 42.0817Z" fill="#231F57"/>
<path d="M177.144 44.5902V45.1916H172.494V38.6147H177.003V39.216H173.189V41.5555H176.59V42.1474H173.189V44.5902H177.144Z" fill="#231F57"/>
<path d="M181.649 45.0129C181.259 44.8914 180.903 44.6789 180.611 44.3928L180.884 43.8573C181.155 44.1158 181.479 44.3129 181.833 44.4351C182.223 44.5815 182.637 44.6563 183.054 44.6559C183.643 44.6559 184.084 44.5478 184.379 44.3317C184.517 44.2392 184.629 44.1139 184.706 43.9671C184.783 43.8203 184.823 43.6566 184.821 43.4908C184.826 43.375 184.808 43.2594 184.766 43.151C184.725 43.0427 184.662 42.9441 184.581 42.8613C184.413 42.7 184.213 42.5766 183.994 42.4996C183.676 42.3902 183.353 42.2977 183.026 42.2224C182.624 42.1261 182.229 42.0053 181.842 41.8607C181.551 41.7472 181.292 41.5651 181.086 41.3299C180.876 41.0919 180.771 40.7693 180.771 40.3621C180.768 40.0407 180.86 39.7254 181.034 39.4554C181.234 39.1632 181.515 38.9361 181.842 38.8025C182.271 38.6272 182.732 38.544 183.195 38.5582C183.568 38.5579 183.94 38.6101 184.299 38.7132C184.632 38.804 184.948 38.9484 185.234 39.1407L184.999 39.6951C184.727 39.5151 184.429 39.3773 184.116 39.2864C183.817 39.1977 183.507 39.1518 183.195 39.1501C182.619 39.1501 182.185 39.2613 181.894 39.4837C181.757 39.5807 181.645 39.7097 181.569 39.8595C181.493 40.0093 181.454 40.1753 181.457 40.3434C181.452 40.4598 181.47 40.5761 181.511 40.6851C181.553 40.7942 181.616 40.8937 181.697 40.9776C181.867 41.1436 182.072 41.2689 182.298 41.344C182.539 41.4285 182.863 41.5209 183.27 41.6211C183.667 41.7141 184.058 41.8318 184.44 41.9735C184.731 42.0849 184.991 42.2655 185.196 42.4996C185.403 42.7345 185.506 43.0524 185.506 43.4532C185.509 43.7754 185.416 44.091 185.239 44.3599C185.035 44.6527 184.749 44.8783 184.417 45.0082C183.983 45.1796 183.52 45.2612 183.054 45.2478C182.576 45.2496 182.101 45.1701 181.649 45.0129Z" fill="#231F57"/>
<path d="M192.515 38.6147V45.1916H191.829V42.1568H187.714V45.1916H187.019V38.6147H187.714V41.5461H191.829V38.6147H192.515Z" fill="#231F57"/>
<path d="M194.657 38.6147H195.352V45.1916H194.657V38.6147Z" fill="#231F57"/>
<path d="M198.772 39.216H196.461V38.6147H201.779V39.216H199.468V45.1916H198.772L198.772 39.216Z" fill="#231F57"/>
<path d="M204.259 39.216H201.948V38.6147H207.266V39.216H204.954V45.1916H204.259L204.259 39.216Z" fill="#231F57"/>
<path d="M208.901 44.5151C208.424 44.0265 208.186 43.3156 208.187 42.3823V38.6147H208.882V42.3541C208.882 43.1183 209.054 43.6883 209.398 44.0641C209.743 44.4398 210.241 44.6277 210.892 44.6278C211.55 44.6278 212.051 44.4399 212.396 44.0641C212.74 43.6882 212.912 43.1182 212.912 42.3541V38.6147H213.589V42.3823C213.589 43.3157 213.352 44.0266 212.88 44.5151C212.407 45.0036 211.744 45.2479 210.892 45.2479C210.041 45.2479 209.377 45.0037 208.901 44.5151Z" fill="#231F57"/>
<path d="M145.773 48.3906H213.734" stroke="#231F20" stroke-miterlimit="10"/>
<path d="M155.708 62.618L155.693 55.4487L152.139 61.382H151.243L147.689 55.5414V62.618H145.773V51.8022H147.427L151.722 58.9715L155.94 51.8022H157.593L157.609 62.618H155.708Z" fill="#231F57"/>
<path d="M162.599 62.0542C161.734 61.5947 161.012 60.9049 160.513 60.061C160.017 59.1928 159.756 58.2102 159.756 57.2103C159.756 56.2104 160.017 55.2278 160.513 54.3596C161.012 53.5157 161.734 52.8259 162.599 52.3664C163.523 51.8942 164.545 51.6479 165.581 51.6479C166.618 51.6479 167.64 51.8942 168.563 52.3664C169.427 52.8248 170.149 53.5116 170.649 54.3519C171.146 55.2229 171.406 56.208 171.406 57.2103C171.406 58.2127 171.146 59.1978 170.649 60.0687C170.149 60.9091 169.428 61.5959 168.563 62.0542C167.64 62.5265 166.618 62.7728 165.581 62.7728C164.545 62.7728 163.522 62.5265 162.599 62.0542ZM167.528 60.5246C168.099 60.2063 168.57 59.7355 168.888 59.1649C169.212 58.5645 169.382 57.8928 169.382 57.2103C169.382 56.5279 169.212 55.8562 168.888 55.2558C168.57 54.6852 168.099 54.2144 167.528 53.8961C166.929 53.5765 166.26 53.4093 165.581 53.4093C164.902 53.4093 164.234 53.5765 163.635 53.8961C163.064 54.2143 162.593 54.6851 162.275 55.2558C161.95 55.8562 161.78 56.5279 161.78 57.2103C161.78 57.8928 161.95 58.5645 162.275 59.1649C162.593 59.7356 163.064 60.2064 163.635 60.5246C164.234 60.8442 164.902 61.0113 165.581 61.0113C166.26 61.0113 166.929 60.8442 167.528 60.5246Z" fill="#231F57"/>
<path d="M175.578 53.5018H171.994V51.8022H181.172V53.5018H177.587V62.618H175.578V53.5018Z" fill="#231F57"/>
<path d="M184.602 62.0542C183.736 61.5947 183.014 60.9049 182.516 60.061C182.02 59.1928 181.759 58.2102 181.759 57.2103C181.759 56.2104 182.02 55.2278 182.516 54.3596C183.014 53.5157 183.736 52.8259 184.602 52.3664C185.525 51.8942 186.547 51.6479 187.584 51.6479C188.621 51.6479 189.643 51.8942 190.566 52.3664C191.43 52.8248 192.151 53.5116 192.652 54.3519C193.148 55.2229 193.409 56.208 193.409 57.2103C193.409 58.2127 193.148 59.1978 192.652 60.0687C192.151 60.9091 191.43 61.5959 190.566 62.0542C189.643 62.5265 188.621 62.7728 187.584 62.7728C186.547 62.7728 185.525 62.5265 184.602 62.0542ZM189.531 60.5246C190.101 60.2063 190.572 59.7355 190.89 59.1649C191.215 58.5645 191.385 57.8928 191.385 57.2103C191.385 56.5279 191.215 55.8562 190.89 55.2558C190.572 54.6852 190.101 54.2144 189.531 53.8961C188.932 53.5765 188.263 53.4093 187.584 53.4093C186.905 53.4093 186.236 53.5765 185.637 53.8961C185.066 54.2143 184.596 54.6851 184.277 55.2558C183.953 55.8562 183.783 56.5279 183.783 57.2103C183.783 57.8928 183.953 58.5645 184.277 59.1649C184.595 59.7356 185.066 60.2064 185.637 60.5246C186.236 60.8442 186.905 61.0113 187.584 61.0113C188.263 61.0113 188.932 60.8442 189.531 60.5246Z" fill="#231F57"/>
<path d="M202.618 62.618L200.408 59.4505C200.269 59.4627 200.13 59.4679 199.991 59.4659H197.55V62.618H195.541V51.8022H199.991C200.928 51.8022 201.744 51.9567 202.44 52.2658C203.093 52.5398 203.65 53.0024 204.039 53.5946C204.421 54.2107 204.614 54.925 204.595 55.6496C204.595 56.4634 204.397 57.1639 204 57.751C203.582 58.3555 202.985 58.8146 202.293 59.0643L204.781 62.618L202.618 62.618ZM201.892 54.0581C201.438 53.6873 200.774 53.5019 199.898 53.5018H197.55V57.8128H199.898C200.774 57.8128 201.438 57.6248 201.892 57.2488C202.345 56.8728 202.571 56.3397 202.571 55.6496C202.571 54.9595 202.345 54.429 201.892 54.0581Z" fill="#231F57"/>
<path d="M207.77 62.4173C206.992 62.1805 206.377 61.8663 205.924 61.4748L206.619 59.9143C207.11 60.2902 207.661 60.5801 208.249 60.7717C208.873 60.9898 209.528 61.1022 210.188 61.104C210.992 61.104 211.592 60.9753 211.988 60.7177C212.385 60.4604 212.583 60.1205 212.583 59.698C212.587 59.554 212.559 59.4109 212.502 59.2788C212.444 59.1467 212.359 59.0287 212.251 58.9331C212.006 58.7192 211.719 58.5587 211.409 58.4618C211.069 58.3486 210.606 58.2198 210.018 58.0756C209.34 57.9232 208.671 57.7271 208.018 57.4884C207.511 57.295 207.059 56.9792 206.704 56.5691C206.338 56.1519 206.156 55.588 206.156 54.8772C206.15 54.2973 206.32 53.7292 206.642 53.2471C206.967 52.7579 207.456 52.3691 208.11 52.0805C208.764 51.7923 209.565 51.6481 210.513 51.6479C211.17 51.6477 211.824 51.7308 212.46 51.8952C213.047 52.0376 213.606 52.2779 214.113 52.6059L213.48 54.1665C213.014 53.8922 212.516 53.6793 211.996 53.533C211.509 53.3928 211.005 53.32 210.497 53.3166C209.704 53.3166 209.114 53.4506 208.728 53.7184C208.548 53.8316 208.401 53.989 208.299 54.1757C208.198 54.3624 208.146 54.5721 208.149 54.7845C208.145 54.9275 208.172 55.0696 208.23 55.2006C208.287 55.3315 208.373 55.4481 208.481 55.5417C208.728 55.7514 209.014 55.9091 209.323 56.0051C209.663 56.1186 210.127 56.2474 210.714 56.3914C211.386 56.5379 212.047 56.7315 212.692 56.9709C213.199 57.1668 213.652 57.4821 214.013 57.8902C214.378 58.3023 214.561 58.8586 214.561 59.5589C214.567 60.1365 214.397 60.7024 214.074 61.1813C213.75 61.6656 213.258 62.0518 212.599 62.3401C211.939 62.6284 211.136 62.7727 210.188 62.7728C209.369 62.775 208.554 62.6552 207.77 62.4173Z" fill="#231F57"/>
</svg>
