<svg width="300" height="100" viewBox="0 0 300 100" fill="none" xmlns="http://www.w3.org/2000/svg">
<rect width="300" height="100" fill="white"/>
<g clip-path="url(#clip0_298_11132)">
<path d="M243.172 30.4502L246.791 32.9747L246.6 40.6012L242.981 38.0767L243.172 30.4502Z" fill="black"/>
<path d="M242.95 39.3643L246.568 41.8888L246.168 57.9101L242.55 55.3854L242.95 39.3643Z" fill="black"/>
<path d="M251.09 58.6094L254.709 61.1339L254.521 68.6597L250.902 66.1352L251.09 58.6094Z" fill="black"/>
<path d="M205.146 37.9893L208.764 40.5138L208.555 48.8979L204.936 46.3734L205.146 37.9893Z" fill="black"/>
<path d="M186.224 53.1973L189.842 55.7218L189.522 68.5296L185.906 66.0051L186.224 53.1973Z" fill="black"/>
<path d="M186.796 30.209L190.415 32.7335L190.089 45.7534L186.473 43.2289L186.796 30.209Z" fill="black"/>
<path d="M192.91 43.8994L196.528 46.4239L191.999 46.4742L188.38 43.9497L192.91 43.8994Z" fill="black"/>
<path d="M227.638 30.3262L231.257 32.8507L230.809 47.301L227.191 44.7765L227.638 30.3262Z" fill="black"/>
<path d="M216.391 37.8647L220.009 40.3892L208.764 40.5138L205.146 37.9892L216.391 37.8647Z" fill="black"/>
<path d="M216.695 46.2437L220.314 48.7682L220.147 55.4622L216.531 52.9377L216.695 46.2437Z" fill="black"/>
<path d="M227.191 44.7759L230.809 47.3004L219.834 47.4222L216.216 44.8977L227.191 44.7759Z" fill="black"/>
<path d="M50.3987 39.4302L54.0146 41.9547L49.2861 42.0077L45.6675 39.4832L50.3987 39.4302Z" fill="black"/>
<path d="M65.3046 30L68.9231 32.5245L68.6926 41.7907L65.0741 39.2662L65.3046 30Z" fill="black"/>
<path d="M65.0743 39.2666L68.6928 41.7911L64.8385 41.8361L61.2226 39.3116L65.0743 39.2666Z" fill="black"/>
<path d="M61.2225 39.3115L64.8384 41.836L64.3616 60.9909L60.7457 58.4664L61.2225 39.3115Z" fill="black"/>
<path d="M87.3629 65.8438L90.9788 68.3683L48.6185 68.8424L45 66.3179L87.3629 65.8438Z" fill="black"/>
<path d="M87.7099 52.0264L91.3444 54.5323L90.9788 68.368L87.3629 65.8435L87.7099 52.0264Z" fill="black"/>
<path d="M103.615 40.6387L107.23 43.1632L107.154 46.3234L103.535 43.7989L103.615 40.6387Z" fill="black"/>
<mask id="mask0_298_11132" style="mask-type:luminance" maskUnits="userSpaceOnUse" x="91" y="66" width="9" height="4">
<path d="M95.2146 68.7149L91.596 66.1904C92.7139 66.9692 94.0781 67.4196 95.5642 67.401L99.1828 69.9255C97.6993 69.9414 96.3324 69.4937 95.2146 68.7149Z" fill="white"/>
</mask>
<g mask="url(#mask0_298_11132)">
<path d="M95.5642 67.401L99.1828 69.9255C97.6993 69.9414 96.3324 69.4937 95.2146 68.7149L91.596 66.1904C92.7139 66.9692 94.0781 67.4196 95.5642 67.401Z" fill="black"/>
</g>
<path d="M103.191 50.3101L106.809 52.8346L106.576 62.1326L102.958 59.6081L103.191 50.3101Z" fill="black"/>
<path d="M119.392 40.4609L123.011 42.9854L107.23 43.1629L103.615 40.6384L119.392 40.4609Z" fill="black"/>
<mask id="mask1_298_11132" style="mask-type:luminance" maskUnits="userSpaceOnUse" x="125" y="33" width="11" height="15">
<path d="M125.742 33.4092L129.36 35.9337C132.894 38.3999 135.148 42.5747 135.029 47.3324L131.411 44.8079C131.53 40.0476 129.276 35.8754 125.742 33.4092Z" fill="white"/>
</mask>
<g mask="url(#mask1_298_11132)">
<path d="M125.742 33.4092L129.36 35.9337C129.707 36.1747 130.041 36.4343 130.362 36.7072L126.743 34.1827C126.423 33.9098 126.089 33.6502 125.742 33.4092Z" fill="black"/>
<path d="M126.743 34.1826L130.362 36.7071C130.82 37.0965 131.252 37.5204 131.652 37.9707L128.033 35.4462C127.633 34.9959 127.201 34.5747 126.743 34.1826Z" fill="black"/>
<path d="M128.033 35.4463L131.652 37.9708C132.2 38.5854 132.69 39.2529 133.117 39.9655L129.498 37.441C129.072 36.7284 128.579 36.0609 128.033 35.4463Z" fill="black"/>
<path d="M129.498 37.4409L133.117 39.9654C134.115 41.629 134.764 43.5389 134.966 45.5946L131.347 43.0701C131.146 41.0144 130.497 39.1071 129.498 37.4409Z" fill="black"/>
<path d="M131.347 43.0703L134.966 45.5948C135.021 46.1644 135.042 46.7445 135.029 47.3352L131.411 44.8107C131.426 44.22 131.403 43.6398 131.347 43.0703Z" fill="black"/>
</g>
<path d="M131.281 49.9976L134.899 52.5221L106.809 52.8346L103.191 50.3101L131.281 49.9976Z" fill="black"/>
<path d="M131.411 44.8081L135.029 47.3326L134.899 52.522L131.281 49.9975L131.411 44.8081Z" fill="black"/>
<path d="M123.789 67.0859L127.408 69.6104L99.1827 69.9257L95.5642 67.4012L123.789 67.0859Z" fill="black"/>
<path d="M131.201 53.1602L134.82 55.6847L134.653 62.3682L131.034 59.8437L131.201 53.1602Z" fill="black"/>
<mask id="mask2_298_11132" style="mask-type:luminance" maskUnits="userSpaceOnUse" x="123" y="59" width="12" height="11">
<path d="M131.034 59.8438L134.653 62.3683C134.555 66.3232 131.31 69.5683 127.408 69.6106L123.789 67.0861C127.691 67.0437 130.936 63.7987 131.034 59.8438Z" fill="white"/>
</mask>
<g mask="url(#mask2_298_11132)">
<path d="M131.034 59.8438L134.653 62.3683C134.65 62.5139 134.642 62.6623 134.629 62.8053L131.011 60.2808C131.024 60.1351 131.032 59.9894 131.034 59.8438Z" fill="black"/>
<path d="M131.011 60.2812L134.629 62.8058C134.603 63.1263 134.555 63.4389 134.489 63.7462L130.87 61.2216C130.936 60.9144 130.984 60.6018 131.011 60.2812Z" fill="black"/>
<path d="M130.87 61.2212L134.489 63.7457C134.43 64.0159 134.356 64.2808 134.269 64.5404L130.65 62.0159C130.738 61.7563 130.812 61.4914 130.87 61.2212Z" fill="black"/>
<path d="M130.653 62.0156L134.272 64.5401C134.189 64.7865 134.094 65.0249 133.985 65.2607L130.367 62.7362C130.473 62.503 130.568 62.262 130.653 62.0156Z" fill="black"/>
<path d="M130.367 62.7363L133.985 65.2608C133.879 65.4939 133.76 65.7218 133.63 65.9416L130.012 63.4171C130.142 63.1973 130.261 62.9694 130.367 62.7363Z" fill="black"/>
<path d="M130.012 63.4175L133.63 65.942C133.495 66.1724 133.35 66.3923 133.191 66.6042L129.572 64.0797C129.728 63.8678 129.877 63.6453 130.012 63.4175Z" fill="black"/>
<path d="M129.572 64.0796L133.191 66.6041C133.016 66.8425 132.825 67.0677 132.624 67.2822L129.005 64.7577C129.207 64.5432 129.397 64.3154 129.572 64.0796Z" fill="black"/>
<path d="M129.008 64.7607L132.626 67.2852C132.38 67.5475 132.118 67.7912 131.837 68.0137L128.219 65.4892C128.499 65.2667 128.762 65.023 129.008 64.7607Z" fill="black"/>
<path d="M128.219 65.4893L131.837 68.0138C130.608 68.9965 129.066 69.5952 127.408 69.6111L123.789 67.0866C125.448 67.0681 126.987 66.472 128.219 65.4893Z" fill="black"/>
</g>
<path d="M140.242 43.5576L143.861 46.0821L136.179 46.1669L132.56 43.6424L140.242 43.5576Z" fill="black"/>
<path d="M149.927 43.2637L153.543 45.7882L151.342 45.8147L147.723 43.2902L149.927 43.2637Z" fill="black"/>
<path d="M147.723 43.29L151.342 45.8145L151.27 56.0397L147.652 53.5152L147.723 43.29Z" fill="black"/>
<path d="M155.948 30.5537L159.564 33.0782L162.756 51.4491L159.14 48.9246L155.948 30.5537Z" fill="black"/>
<path d="M150.616 66.3975L154.234 68.922L135.604 69.1312L131.988 66.6067L150.616 66.3975Z" fill="black"/>
<path d="M150.939 53.4785L154.558 56.003L154.234 68.9223L150.616 66.3977L150.939 53.4785Z" fill="black"/>
<path d="M171.387 43.2104L175.005 45.735L172.253 45.7641L168.634 43.2396L171.387 43.2104Z" fill="black"/>
<path d="M168.634 43.2397L172.253 45.7643L167.281 61.2529L163.662 58.7284L168.634 43.2397Z" fill="black"/>
<path d="M163.662 58.728L167.281 61.2525L157.191 61.3638L153.572 58.8393L163.662 58.728Z" fill="black"/>
<path d="M178.902 43.314L182.521 45.8385L182.274 55.6954L178.658 53.1709L178.902 43.314Z" fill="black"/>
<path d="M186.473 43.229L190.089 45.7535L182.521 45.8383L178.902 43.3138L186.473 43.229Z" fill="black"/>
<path d="M185.906 66.0054L189.522 68.5299L170.947 68.7365L167.328 66.212L185.906 66.0054Z" fill="black"/>
<path d="M242.981 38.0767L246.6 40.6012L232.473 40.7575L228.857 38.233L242.981 38.0767Z" fill="black"/>
<path d="M227.191 44.7765L216.216 44.8984L216.391 37.8653L205.146 37.9898L204.936 46.3739L216.695 46.2441L216.531 52.9381L204.897 52.9487L204.881 53.5474L204.552 66.7287L187.808 66.9141L188.136 53.7355L192.666 53.6851L192.91 43.8997L188.38 43.95L188.709 30.7686L193.238 30.7182L227.638 30.3262L227.191 44.7765Z" fill="#5CC793"/>
<path d="M65.3046 30L65.0742 39.2662L61.2225 39.3113L60.7457 58.4662L68.4517 58.3788L68.6026 52.2411L87.7099 52.0265L87.3629 65.8437L45 66.3179L45.1907 58.6384L49.9934 55.6106L50.3987 39.4305L45.6675 39.4834L45.9007 30.2172L65.3046 30Z" fill="#5CC793"/>
<path d="M131.281 49.9974L103.191 50.31L102.96 59.6081L107.911 59.5525L108.065 53.4173L131.204 53.1603L131.037 59.8439C130.939 63.7988 127.694 67.0439 123.792 67.0863L95.5669 67.4015C91.6649 67.4439 88.5788 64.273 88.6768 60.3154L89.0503 45.2795C89.2411 37.6001 95.5378 31.3087 103.109 31.2239L118.044 31.057C125.617 30.9722 131.599 37.1285 131.408 44.8054L131.278 49.9948L131.281 49.9974ZM103.615 40.6385L103.535 43.7987L119.313 43.6239L119.392 40.4636L103.615 40.6385Z" fill="#5CC793"/>
<path d="M186.796 30.209L186.473 43.2289L178.902 43.3136L178.658 53.1706L186.224 53.1971L185.906 66.005L167.328 66.2116L167.646 53.4779L171.132 53.4381L171.387 43.2103L168.634 43.2395L163.662 58.7282L153.572 58.8394L149.927 43.2633L147.723 43.2898L147.652 53.515L150.939 53.4779L150.616 66.3971L131.988 66.6063L132.309 53.6871L139.993 53.5997L140.242 43.5573L132.56 43.6421L132.881 30.8103L155.948 30.5534L159.14 48.9242L163.89 30.4633L186.796 30.209Z" fill="#5CC793"/>
<path d="M243.172 30.4502L242.981 38.0767L228.857 38.233L229.048 30.6091L243.172 30.4502Z" fill="#5CC793"/>
<path d="M242.95 39.3643L242.55 55.3855L251.09 58.6094L250.902 66.1352L220.449 66.4743L220.637 58.9485L228.24 55.5444L228.64 39.5232L242.95 39.3643Z" fill="#5CC793"/>
<path d="M250.902 66.1353L254.521 68.6598L224.068 68.9988L220.449 66.4743L250.902 66.1353Z" fill="black"/>
<path d="M204.897 52.9487L208.513 55.4732L208.499 56.0719L204.881 53.5474L204.897 52.9487Z" fill="black"/>
<path d="M204.552 66.7285L208.171 69.253L191.426 69.4385L187.808 66.9139L204.552 66.7285Z" fill="black"/>
<path d="M204.881 53.5474L208.499 56.0719L208.171 69.2534L204.552 66.7289L204.881 53.5474Z" fill="black"/>
<path d="M216.531 52.9375L220.147 55.462L208.513 55.4726L204.897 52.9481L216.531 52.9375Z" fill="black"/>
</g>
<defs>
<clipPath id="clip0_298_11132">
<rect width="209.801" height="40" fill="white" transform="translate(45 30)"/>
</clipPath>
</defs>
</svg>
