<svg width="300" height="100" viewBox="0 0 300 100" fill="none" xmlns="http://www.w3.org/2000/svg">
<rect width="300" height="100" fill="white"/>
<path d="M77.3648 56.3403C77.6198 56.2447 77.9917 56.4785 79.171 57.169C81.2427 58.4121 83.6544 60.9513 83.6863 62.4812C83.6863 64.0323 80.7221 66.8265 78.5547 68.0377C76.3555 69.2489 70.3634 71.0231 68.5041 69.2489C66.7299 67.5384 68.536 64.8292 69.0779 64.0111C69.1097 63.9686 69.131 63.9367 69.1522 63.9049C69.5772 63.2249 68.9397 62.5662 67.6223 63.0018C66.3686 63.448 61.2902 63.9686 59.8878 64.1067C59.8453 64.1067 59.8028 64.1173 59.7603 64.1173C58.5704 64.213 56.488 63.7774 55.5106 63.5542C53.8851 64.8929 45.0031 66.1041 42.9527 65.7854C42.1877 65.6579 41.6459 65.1479 41.1359 64.6592C40.5728 64.1173 40.031 63.6074 39.2235 63.6711C37.9911 63.7667 36.7481 65.2329 36.0362 66.0935C35.8662 66.2953 35.7281 66.4547 35.6219 66.5609C35.2606 66.9115 34.7932 66.9965 34.3363 67.0709C34.1238 67.124 33.9007 67.1665 33.6776 67.2409C33.5076 67.3046 33.2208 67.4959 32.8914 67.719C31.9777 68.3352 30.6816 69.2064 30.1928 68.3564C29.0454 66.3591 32.1052 64.2873 35.0375 62.3006C36.0043 61.6525 36.9499 61.0044 37.7361 60.3776C40.9128 57.8065 47.9036 51.2513 48.5517 50.5926C48.6792 50.4651 48.8385 50.3482 48.9979 50.2314C49.6778 49.7426 50.3047 49.2858 47.6699 48.4783C44.3763 47.4797 43.0908 44.9298 42.6339 43.6974C42.1346 42.3587 41.7734 41.1688 42.5171 40.6907C43.707 39.9151 44.4719 40.9138 45.7893 43.1449C46.8093 44.8979 48.7429 45.5142 50.3578 46.0347C50.9315 46.2154 51.4734 46.396 51.909 46.5978C53.0033 45.5035 61.7471 36.6216 63.2663 34.943C64.7963 33.2962 72.212 27.9522 75.2718 30.842C79.5641 34.9005 72.8389 41.7213 67.7286 44.9511C64.4775 47.0122 58.3792 48.4358 54.8731 49.2539C54.0338 49.4452 53.3432 49.6151 52.8758 49.7426C52.7589 49.8701 52.6208 50.0189 52.472 50.1889C51.0165 51.7931 48.0523 55.0548 46.8624 55.9579C46.5936 56.756 46.2924 57.5429 45.9593 58.3165C45.6194 59.1239 45.3644 59.7189 45.12 60.9619C44.7588 62.7574 45.6512 62.938 46.7243 63.1611L47.3086 63.2886C48.626 63.6074 51.1546 62.7256 53.3432 61.6631C54.7244 60.9832 54.9263 60.4095 55.2025 59.6657C55.2875 59.432 55.3831 59.177 55.5212 58.9008C56.573 56.7866 60.3872 54.8742 63.2345 54.7467C66.0712 54.6511 65.9543 57.849 64.2119 59.1877C62.4695 60.5263 63.7869 60.9619 66.2837 61.0788C68.7804 61.1957 73.062 59.9632 74.0394 59.5276C74.7512 59.1877 75.3462 58.5289 75.9624 57.8384C76.1961 57.5834 76.4299 57.3178 76.6636 57.0734C77.0461 56.6591 77.1736 56.4041 77.3648 56.3403ZM59.2929 42.4225C58.7404 42.9218 58.2092 43.4212 57.338 45.0467C56.2968 46.9909 57.4548 46.7678 58.6448 46.5447C58.9529 46.481 59.261 46.4278 59.5372 46.4066C60.8546 46.311 63.1389 45.5354 65.9862 44.0799C68.8229 42.6243 72.977 37.9603 73.7419 36.6322C74.5069 35.2936 74.815 32.51 72.0952 32.6269C67.2505 32.8181 61.8214 39.5008 60.249 41.4344C60.2278 41.4663 60.2065 41.4875 60.1853 41.5088C59.8453 41.9125 59.5691 42.1675 59.2929 42.4225ZM60.0047 59.1558C60.6953 58.9858 61.7896 58.2315 62.0127 58.019C62.2252 57.7959 62.3952 57.2647 61.7471 57.1903C60.6209 57.0415 59.1441 58.1571 58.7616 58.4546C58.6766 58.5183 58.6023 58.5608 58.5385 58.5927C58.3898 58.6777 58.2517 58.7521 57.9967 59.0283C57.6886 59.3576 57.9754 59.3576 58.2517 59.3683H58.4429C58.7723 59.4001 59.3141 59.3258 60.0047 59.1558ZM73.9013 67.4959C74.1138 67.1346 74.4431 66.6034 76.3343 66.3909C79.2984 66.051 81.2533 63.7242 81.2321 62.4068C81.2321 61.0682 80.584 59.3045 78.7247 59.3045C76.993 59.3045 74.135 62.5449 72.2758 64.6486C71.9039 65.0735 71.5746 65.4454 71.2983 65.7429C69.6516 67.5171 72.4883 67.8571 73.3701 67.8571C73.6994 67.8465 73.7844 67.6977 73.9013 67.4959ZM260.273 48.3084C263.152 48.3933 266.021 48.4783 267.158 48.5633C269.049 48.7121 270.515 48.9989 269.92 50.5076C269.325 52.1225 268.454 53.153 267.285 53.153C266.669 53.153 266.297 52.8237 265.872 52.4625C265.49 52.1225 265.054 51.7506 264.363 51.5488C262.897 51.0919 259.253 50.3695 258.223 50.5182C257.766 50.582 257.511 50.7094 257.309 50.8157C257.065 50.9432 256.873 51.0282 256.47 50.9538C256.119 50.8901 255.8 50.6245 255.482 50.3376C255.12 50.0295 254.738 49.7001 254.27 49.6258C253.845 49.5514 253.559 49.7001 253.261 49.8383C252.964 49.987 252.677 50.1251 252.23 50.0614L242.711 48.8821C240.799 48.8821 239.184 48.5421 237.622 48.2127C236.676 48.0109 235.763 47.8196 234.817 47.7134C233.744 47.5753 232.214 47.4478 230.716 47.3203C228.729 47.1503 226.796 46.9909 226.042 46.8209C225.436 46.6935 224.639 46.5872 223.842 46.4916C222.897 46.3747 221.983 46.2579 221.505 46.0985C220.623 45.7904 218.126 45.3548 219.157 48.0002C220.188 50.6457 220.623 53.8649 220.761 55.1823C220.91 56.4997 221.197 57.679 222.652 56.3616L223.056 55.9897C224.512 54.6511 226.52 52.8131 227.327 54.1517C228.209 55.6179 227.784 57.2328 226.891 58.1146C226.509 58.4971 225.829 58.8052 225.117 59.1133C224.193 59.517 223.215 59.9526 222.79 60.6113C222.536 61.0257 221.866 61.7906 221.101 62.6724C219.656 64.3298 217.85 66.4122 217.659 67.3684L217.595 67.6552C217.298 69.0895 216.947 70.8107 215.3 69.5782C213.547 68.2608 213.26 67.6765 213.834 66.6459C213.887 66.5503 213.951 66.4441 214.015 66.3484C214.578 65.4029 215.12 64.5104 213.122 65.031C210.913 65.6047 210.052 65.3179 209.308 64.0005C209.17 63.7561 209.085 63.5011 209.011 63.278C208.671 62.2687 208.469 61.6525 204.772 63.5755C200.235 65.9341 196.262 67.5171 194.647 67.5171C193.181 67.5171 192.267 67.039 191.725 66.1678C190.386 67.464 187.836 67.5171 187.836 67.5171C187.698 67.5384 187.528 67.5171 187.305 67.4427C187.135 67.379 186.965 67.3259 186.785 67.2728C186.052 67.0603 185.34 66.8478 185.34 65.6897C185.34 65.3816 185.35 65.0735 185.372 64.7973C185.425 63.7455 185.467 62.9274 184.692 62.8318C184.256 62.7893 182.981 63.7561 181.568 64.8292C179.826 66.1572 177.871 67.634 177.021 67.5702C175.491 67.4746 175.268 66.1572 175.704 65.2648C175.714 65.2329 175.735 65.2116 175.746 65.1798C176.192 64.2767 177.074 62.5237 175.916 62.3112C175.502 62.2368 174.545 62.7999 173.239 63.5649C170.71 65.0523 166.875 67.3046 163.188 67.1453C160.468 67.0284 160.872 65.541 161.244 64.1917C161.541 63.0868 161.818 62.0775 160.341 61.9818C159.778 61.9394 159.045 62.6406 158.035 63.6074C155.889 65.6579 152.479 68.9089 146.742 68.9089C141.578 68.9089 141.578 67.4746 141.589 66.3378C141.589 65.6154 141.589 64.9992 140.271 64.946C139.166 64.8929 137.711 65.7216 136.139 66.6353C134.269 67.7084 132.239 68.8877 130.391 68.792C128.181 68.6752 128.181 67.3471 128.181 66.9222C128.181 66.7522 128.882 66.0722 129.721 65.2541C130.986 64.0217 132.579 62.4706 132.579 61.8756C132.579 61.2063 131.283 61.3019 129.998 61.3975C129.381 61.44 128.776 61.4825 128.308 61.4506C128.022 61.4294 127.682 61.4081 127.31 61.3763C125.79 61.2488 123.655 61.0682 121.711 61.2381C120.489 63.108 116.314 66.0935 114.348 67.294C112.383 68.4946 108.738 70.2263 105.902 69.9395C102.332 69.5676 101.556 67.3365 101.025 65.796C100.76 65.0204 100.547 64.4148 100.069 64.3404C99.0915 64.1811 98.5178 64.691 97.9441 65.1904C97.4235 65.6472 96.9029 66.1041 96.1061 65.9978C94.4806 65.7854 94.3531 63.0443 94.6931 61.9394C95.0331 60.8557 97.7635 56.9884 99.0809 55.7879C99.7396 55.1717 100.494 54.2898 101.153 53.5036C101.811 52.7281 102.385 52.0375 102.704 51.825C103.352 51.3682 103.692 50.1676 102.916 50.1676C102.151 50.1676 102.385 48.2977 103.033 47.8621C103.681 47.4265 106.635 47.3097 108.069 47.4265C109.333 46.0772 112.935 43.7824 115.06 42.4331C115.357 42.2419 115.634 42.0719 115.857 41.9231C116.08 41.7744 116.324 41.615 116.569 41.4557C118.438 40.2126 121.084 38.449 123.984 38.6296C126.502 38.7996 128.372 41.9231 128.16 45.3335C127.968 48.3933 125.918 49.5301 124.696 50.1889C124.558 50.2632 124.431 50.3376 124.314 50.4013C124.069 50.5501 123.782 50.6563 123.496 50.7732C122.529 51.1344 121.583 51.485 122.348 53.5993C123.113 55.7666 122.678 57.0415 122.454 57.7109C122.391 57.8915 122.348 58.0296 122.348 58.1252V58.2208C122.338 58.7202 122.327 59.8782 123.666 59.8782C124.484 59.8782 126.757 59.8357 128.691 59.8039C130.115 59.7826 131.347 59.7614 131.676 59.7614H131.942C132.664 59.772 133.514 59.7826 134.194 59.2089C134.311 59.1133 134.407 59.0283 134.502 58.9433C135.065 58.4546 135.374 58.189 136.404 58.5608C137.605 58.9964 137.509 60.3138 136.957 61.0894C136.425 61.8544 134.874 63.5117 134.226 64.0748C132.208 65.7854 133.748 66.5291 135.427 65.7322C136.298 65.3179 137.243 64.946 138.147 64.5954C139.719 63.9898 141.143 63.4374 141.791 62.7468C144.309 60.0057 146.827 60.2182 145.626 62.7468C144.404 65.2754 145.074 66.7097 146.827 67.1453C148.58 67.5809 152.755 65.6047 154.285 64.4998C155.815 63.4161 158.12 61.6419 158.556 61.2063C158.991 60.7707 159.13 60.5582 159.321 59.7932C159.597 58.7308 160.139 58.9539 160.702 59.1877C160.861 59.2514 161.031 59.3258 161.191 59.3576C161.233 59.3683 161.265 59.3789 161.308 59.3789C162.317 59.602 164.038 59.9739 163.921 61.6631C163.857 62.7893 163.698 62.7893 163.592 62.7893C163.528 62.7893 163.486 62.7893 163.486 62.9912V63.2036C163.464 63.8836 163.411 65.2116 164.59 65.5197C165.908 65.8279 171.071 63.6499 172.718 62.5343C174.375 61.4506 177.318 59.6764 178.976 59.7932C179.836 59.857 179.688 60.8238 179.528 61.7906C179.38 62.6724 179.241 63.5542 179.868 63.7667C180.421 63.958 181.26 63.2993 182.248 62.5237C183.597 61.4506 185.255 60.1545 186.902 60.4732C189.196 60.9194 188.867 62.0031 188.591 62.9168C188.527 63.1399 188.463 63.3524 188.431 63.5436C188.357 64.2873 188.474 65.201 188.814 65.541C189.6 65.9447 190.705 65.201 191.162 64.8717C191.215 64.8185 191.236 64.7548 191.236 64.7017C191.204 64.5423 191.109 64.2873 191.003 64.0217C190.875 63.6817 190.737 63.3311 190.737 63.1611C190.779 61.9606 191.459 61.0469 193.446 59.9845C194.243 59.5701 194.838 59.2195 195.337 58.922C196.772 58.0933 197.377 57.7321 199.438 57.6259C202.126 57.509 203.252 59.7614 201.287 60.9619C197.76 63.1293 197.143 65.1479 200.851 64.043C203.571 63.2355 205.048 62.1306 206.376 61.1319C206.875 60.7601 207.364 60.3988 207.874 60.0695C209.436 59.1027 210.604 57.7321 211.635 56.5422C211.847 56.2872 212.06 56.0429 212.272 55.8091C213.452 54.4917 217.117 55.0867 214.907 58.1677C214.737 58.4121 214.567 58.6352 214.419 58.8583C212.602 61.4081 211.943 62.3218 213.154 63.1505C214.397 63.9898 215.906 62.4706 216.809 61.5463C216.862 61.4931 216.915 61.44 216.958 61.3869L217.043 61.3019C217.935 60.4201 219.571 58.7839 218.849 54.9486C218.7 54.1092 218.573 53.2805 218.466 52.4731C218.031 49.4664 217.67 46.8953 215.927 46.4385C213.717 45.8329 211.252 42.6137 214.61 42.6137C216.926 42.6137 218.222 43.1662 219.38 43.6443C220.198 43.9949 220.952 44.303 221.93 44.3667C223.099 44.4411 224.512 44.6961 225.829 44.9298C227.178 45.1742 228.432 45.3973 229.239 45.3973C230.844 45.3973 236.56 46.1197 237.877 47.0122C238.897 47.6815 241.054 47.5753 242.722 47.4903C243.21 47.469 243.657 47.4478 244.018 47.4478C245.643 47.4478 247.779 47.639 249.957 47.8196C251.689 47.9684 253.452 48.1277 254.993 48.1915C256.427 48.1915 258.35 48.2552 260.273 48.3084ZM105.732 67.4109C108.154 67.6234 113.647 64.5529 115.177 62.8955C115.974 62.0456 116.494 61.695 116.441 61.4825C116.399 61.3125 115.995 61.2169 115.081 61.015C113.785 60.7494 110.141 60.4626 108.271 60.4626C107.708 60.4626 107.113 60.4838 106.422 60.5051C105.487 60.5369 104.393 60.5794 102.991 60.5794C101.227 63.9049 103.309 67.1984 105.732 67.4109ZM118.375 59.3895C119.023 58.6246 119.905 57.0628 120.128 55.6391C120.34 54.2261 118.81 52.9937 117.61 52.25C117.11 52.2075 116.441 52.1969 115.697 52.1862C114.614 52.165 113.371 52.1437 112.329 52.0375C112.085 52.0056 111.851 51.9737 111.596 51.9419C110.831 51.825 109.981 51.7081 108.823 51.7081C107.835 52.4731 105.317 55.7666 104.776 56.6591C104.223 57.5196 104.436 58.5289 105.541 58.4121C106.645 58.2952 108.823 58.2952 110.916 58.4121C111.862 58.4546 113.179 58.6883 114.476 58.922C116.016 59.177 117.535 59.4533 118.375 59.3895ZM115.58 45.3229C112.584 46.9591 109.833 48.4465 117.142 48.7121C119.225 48.7864 124.048 48.7121 124.165 45.206C124.261 41.7 123.272 41.36 122.295 41.36C121.488 41.36 120.181 42.3162 118.874 43.2724C118.587 43.4743 118.311 43.6868 118.035 43.8886C117.365 44.3561 116.462 44.8448 115.58 45.3229ZM197.112 61.3019C197.165 61.2488 197.207 61.2169 197.239 61.185C197.271 61.1532 197.324 61.1213 197.377 61.0788C197.621 60.8982 197.983 60.6432 197.568 60.4626C196.772 60.1226 196.198 60.4626 195.826 60.6857C195.773 60.7176 195.72 60.7494 195.677 60.7707C195.613 60.8025 195.518 60.845 195.39 60.8982C195.019 61.0575 194.434 61.3019 194.169 61.5356C193.829 61.8437 193.637 62.1837 193.882 62.2793C194.126 62.375 194.838 62.5237 195.582 62.3006C196.283 62.12 196.835 61.5675 197.112 61.3019Z" fill="#444445"/>
</svg>
