<svg width="300" height="100" viewBox="0 0 300 100" fill="none" xmlns="http://www.w3.org/2000/svg">
<rect width="300" height="100" fill="white"/>
<g clip-path="url(#clip0_298_11091)">
<path fill-rule="evenodd" clip-rule="evenodd" d="M195.522 69.6609C195.509 69.659 195.369 68.587 195.228 68.1411C194.448 65.6736 193.642 63.2154 192.848 60.7639C191.922 60.85 190.298 59.8542 189.901 58.9802C189.14 57.3104 188.331 55.6651 187.636 53.9628C187.574 53.8114 187.508 53.6651 187.438 53.5235C187.474 53.523 187.508 53.5198 187.539 53.5136C188.229 53.3772 188.924 53.2507 189.599 53.0451C191.292 52.5292 192.132 50.7319 191.668 48.6449C191.377 47.3358 190.78 46.2432 189.79 45.4059C189.701 45.3316 187.797 44.135 187.567 43.072C187.46 42.5767 187.335 42.0743 187.139 41.6162C186.643 40.4506 185.756 39.9661 184.659 40.388C184.515 40.4431 183.823 40.849 183.406 41.0865C183.716 41.0165 183.99 40.9863 184.232 40.9892C186.294 41.0136 186.039 43.4384 185.886 43.9276C185.863 43.9435 185.209 43.6877 184.945 42.1839C184.885 42.2253 184.843 43.6152 184.988 44.2385C185.373 45.8843 186.652 46.5414 188.049 45.8702C188.149 45.8217 188.259 45.762 188.364 45.7643C188.619 45.7705 188.734 45.7803 189.075 45.8584C189.286 45.9149 189.492 46.0042 189.644 46.143C190.677 47.0847 191.061 49.4332 190.433 50.7272C190.077 51.4577 189.52 51.7883 188.767 51.7756C187.907 51.761 187.046 51.769 186.185 51.7719C185.952 51.5315 185.703 51.302 185.439 51.0767C184.448 50.2328 183.506 49.9906 182.246 50.127C179.562 50.4177 176.859 50.3467 174.285 49.2394C173.728 49 172.42 48.801 171.928 48.4247C171.819 48.3415 171.682 48.135 171.531 47.8664C171.647 47.5188 171.958 46.9896 171.906 46.7893C171.841 46.5367 170.903 45.4276 170.809 44.818C170.811 44.7545 170.813 44.6881 170.816 44.6204C170.823 44.5959 170.829 44.571 170.843 44.5503C171.024 44.2695 171.095 43.5894 171.096 42.6957C171.107 42.6801 171.119 42.6665 171.13 42.6571C172.596 41.4214 170.822 37.5 171.381 37.1181C172.523 36.3372 171.708 33.8161 170.28 33.0268C170.396 31.5908 169.789 31.5616 168.888 31.4224C168.736 31.3989 168.296 31.0941 168.185 30.9638C167.3 29.9275 166.272 29.7907 164.984 30.4341C163.415 29.381 159.929 30.3862 159.012 31.9271C158.888 32.1369 158.829 32.3753 158.814 32.6166C158.76 33.4943 158.033 34.1688 157.049 34.4812C155.707 34.9069 155.303 36.6514 156.039 37.8311C156.381 38.3782 154.31 41.2032 155.148 42.8622C155.333 43.2276 154.8 44.6867 154.741 44.7723C154.53 45.0767 153.9 46.8843 154.864 48.6054C155.434 49.6218 155.818 50.634 156.357 51.5715C156.175 52.0818 156.007 52.5216 156.004 53.0292C155.577 56.3631 154.529 60.9379 153.706 63.5908C153.33 64.8024 152.866 65.9826 152.535 67.2074C152.349 67.8942 152.005 68.182 151.41 68.1519C150.743 68.1185 150.297 68.3979 150.09 69.1138C150.046 69.262 149.913 69.5085 149.912 69.6453V69.6463V70H195.526L195.522 69.6609ZM159.78 41.6279C160.344 41.5028 160.569 40.6557 161.106 40.2413C161.074 41.4685 160.59 42.3909 159.358 42.833C158.658 43.0842 157.961 43.3419 157.534 43.4976C157.594 42.7399 158.258 41.9671 159.78 41.6279ZM166.104 62.6891C166.029 63.8603 165.888 65.0268 165.824 66.199C165.773 67.1251 165.565 67.8678 164.611 68.064C164.505 68.0856 164.35 68.2046 164.335 68.3001C164.179 69.3156 163.472 69.1105 162.865 69.1275C160.585 69.1896 158.305 69.2507 156.024 69.31C155.786 69.3166 155.548 69.3109 155.094 69.3109C155.237 68.6416 155.344 68.0795 155.483 67.5268C155.534 67.326 155.677 67.1562 155.747 66.9581C156.4 65.1242 157.607 63.8589 159.033 62.714C159.737 62.1491 160.31 61.2117 160.629 60.309C160.744 59.9849 160.895 58.6651 160.967 57.4793C161.358 58.746 161.743 59.9948 162.137 61.2742C162.405 61.0804 162.622 60.9243 162.876 60.7408C163.411 61.468 163.927 62.1684 164.496 62.9417C165.011 62.2098 165.49 61.5296 165.969 60.8495C166.04 60.8763 166.039 60.8758 166.111 60.9031C166.111 61.4986 166.143 62.0964 166.104 62.6891ZM166.677 43.5475C166.537 43.6228 166.317 43.7596 166.327 43.8523C166.46 45.0118 165.716 45.2977 164.686 45.4849C163.955 45.6176 163.917 46.2178 164.222 46.7907C164.336 47.0047 164.557 47.1717 164.767 47.4012C163.425 47.349 163.026 46.8071 163.096 45.2455C161.108 46.0884 160.475 47.2164 160.988 48.9986C159.957 49.1077 158.789 48.5005 158.351 47.5884C157.902 46.6538 158.227 45.9087 158.939 45.3457C159.072 46.1317 159.622 47.7686 159.757 47.7667C159.812 47.293 159.786 46.7926 159.939 46.3499C160.4 45.0165 161.814 44.2874 163.542 44.4205C165.097 44.5404 165.405 44.389 165.595 43.548C165.17 43.4421 164.689 43.4445 164.397 43.2253C163.685 42.6895 163.907 42.0461 164.48 41.4266C163.013 41.5771 162.596 41.0132 163.071 39.8175C163.241 39.3904 163.279 38.9158 163.383 38.4355C162.968 38.4873 162.439 38.6834 161.987 38.5767C161.469 38.4548 160.866 38.1514 160.598 37.7554C160.44 37.5207 160.802 36.9276 161.027 36.5456C161.296 36.0851 161.667 35.6773 161.994 35.2469C161.036 34.6736 160.355 35.1058 160.272 36.2799C159.275 35.7926 159.535 34.6378 160.801 34.1684C161.118 34.0508 161.595 34.1204 161.929 34.2582C162.247 34.3899 162.474 34.7225 162.767 34.9896C163.019 34.0395 162.632 34.0061 161.387 33.4769C162.276 33.0621 163.211 32.9257 163.485 33.7479C163.839 34.81 164.651 35.2775 165.601 35.7356C165.829 34.7803 164.396 34.1486 165.013 33.0856C165.054 34.4304 167.477 34.0428 167.009 35.7229C167.743 35.1919 166.246 33.5353 166.295 33.4567C167.028 33.9139 167.849 34.2935 168.437 34.8768C168.606 35.0451 168.392 35.7168 168.567 36.5122C168.658 36.9238 168.666 37.3942 169.191 37.9497C169.367 38.1359 169.639 38.4355 169.584 38.5884C169.081 39.9784 170.386 41.6246 168.837 42.8194C168.404 42.5466 168.391 42.1322 168.77 41.6877C169.283 41.0865 169.369 40.6124 168.327 40.4468L168.562 38.4388C167.744 39.1317 167.969 39.8989 168.173 40.698C168.326 41.2963 168.298 41.8843 167.297 41.9666C167.724 42.6571 167.381 43.166 166.677 43.5475ZM168.34 61.7182C168.57 60.7295 168.803 59.7338 169.07 58.5865C169.256 58.9102 169.343 59.0611 169.432 59.2164C171.45 57.6491 171.652 55.9238 170.033 54.1077C169.262 54.9285 167.658 56.5179 167.625 56.4939C168.13 55.412 168.635 54.3307 169.139 53.2493C169.934 52.1872 170.514 51.1971 170.921 50.3523C171.036 50.7131 171.048 51.285 170.504 51.9906C170.104 52.5099 171.552 51.4219 172.045 51.2272C172.228 51.1552 172.547 51.1806 172.694 51.2977C174.082 52.4059 176.906 53.896 177.382 52.3631C177.538 51.8617 176.444 51.8744 176.102 51.6961C178.174 51.6486 183.528 51.0508 184.95 53.5856C185.651 54.8349 186.187 56.1971 186.866 57.7084C186.264 57.3721 185.839 57.1336 185.412 56.8951C186.725 58.698 187.588 60.9506 190.229 61.3231C188.62 61.2714 187.077 61.1204 185.536 60.9511C185.388 60.9346 185.226 60.8321 185.116 60.7244C184.017 59.6505 182.924 58.5687 181.834 57.4854C181.274 56.9285 181.195 56.2714 181.462 55.5607C181.637 55.0945 182.364 54.5955 182.057 54.0917C181.121 52.5593 178.544 53.7446 176.828 53.5748C176.818 53.6251 176.808 53.6759 176.799 53.7262C177.824 54.0762 178.849 54.4261 179.899 54.7841C179.116 56.6378 177.48 56.8711 175.7 57.1618C176.183 56.6392 176.568 56.2229 177.052 55.7013C176.816 55.7502 176.729 55.7625 176.646 55.786C175.869 56.0056 175.022 56.5245 174.335 56.365C173.616 56.198 173.05 55.3791 172.359 54.7963C172.326 55.0828 172.312 55.3311 172.266 55.5738C172.047 56.707 171.819 57.8382 171.595 58.9694C171.471 59.5894 171.115 59.9497 170.494 60.1689C169.639 60.4704 168.626 60.6383 168.34 61.7182ZM175.235 68.1745C174.865 68.2813 174.29 68.238 174.158 68.4873C173.844 69.0814 173.419 68.9934 172.973 68.9976C172.003 69.008 171.032 69.0113 170.062 69.0109C169.491 69.0103 168.827 68.1792 168.953 67.547C169.335 65.6256 169.754 63.7135 170.169 61.7507C170.397 61.7738 170.582 61.8029 170.769 61.81C172.025 61.8579 173.315 62.1228 174.529 61.8956C174.773 61.8504 175.015 61.8001 175.258 61.7465C176.426 62.3885 178.638 63.5649 179.264 63.9313C178.12 65.3142 177.055 66.6251 175.956 67.9003C175.801 68.0814 175.483 68.103 175.235 68.1745ZM192.087 68.6693C191.531 68.7432 190.973 68.8057 190.425 68.9243C190.089 68.9962 189.769 69.2733 189.443 69.27C186.169 69.2328 182.896 69.159 179.622 69.0884C179.393 69.0833 179.164 69.0235 178.874 68.9807C179.011 68.683 179.113 68.4605 179.212 68.2446C178.988 68.1209 178.806 68.0202 178.511 67.8575C180.574 66.8119 182.529 65.8208 184.545 64.7987C184.056 64.2864 183.666 63.8772 183.213 63.4017C183.388 63.3725 190.8 64.698 190.869 64.8358C191.495 66.08 192.087 67.3438 192.72 68.666C192.422 68.666 192.252 68.6472 192.087 68.6693Z" fill="#001A72"/>
<path fill-rule="evenodd" clip-rule="evenodd" d="M166.716 38.9685C166.469 38.91 166.175 38.7807 165.884 38.782C164.893 38.7865 164.419 38.3992 164.193 37.4396C163.93 36.321 163.122 36.0896 161.842 36.516C162.228 37.3098 162.89 37.5012 163.746 37.135C163.867 37.3646 163.992 37.5241 164.038 37.7002C164.236 38.4734 164.379 39.234 165.249 39.7021C165.415 39.7915 165.238 40.4532 165.219 40.8508C165.113 40.8719 165.007 40.8935 164.901 40.9151C165.38 40.9991 165.858 41.0831 166.685 41.2282C164.638 40.0574 167.085 39.8005 166.716 38.9685Z" fill="#001A72"/>
<path fill-rule="evenodd" clip-rule="evenodd" d="M168.86 36.4871C168.86 36.4871 168.246 36.3051 167.878 36.3164C167.511 36.3277 167.318 36.4528 167.18 36.5792C167.115 36.638 167.069 36.7599 166.977 36.8441C166.872 36.941 166.726 36.998 166.759 37.0154C166.822 37.0481 167.439 36.7158 167.58 36.7091C167.721 36.7024 167.799 36.8688 168.279 36.8031C168.758 36.7376 168.86 36.4871 168.86 36.4871Z" fill="#001A72"/>
<path fill-rule="evenodd" clip-rule="evenodd" d="M189.211 44.0246C188.677 43.1249 188.943 41.5501 187.807 41.228C187.967 41.8918 188.146 42.5309 188.272 43.1883C188.399 43.8553 188.618 44.0898 189.211 44.0246Z" fill="#001A72"/>
<path fill-rule="evenodd" clip-rule="evenodd" d="M107.164 42.6313H105V57.3682H112.719V55.2994H107.164V42.6313Z" fill="#001A72"/>
<path fill-rule="evenodd" clip-rule="evenodd" d="M114.825 56.6668H116.93V46.8423H114.825V56.6668Z" fill="#001A72"/>
<path fill-rule="evenodd" clip-rule="evenodd" d="M115.526 42.6313C114.73 42.6313 114.123 43.2169 114.123 44.0453C114.123 44.8528 114.73 45.4384 115.526 45.4384C116.322 45.4384 116.93 44.8528 116.93 44.0453C116.93 43.2169 116.322 42.6313 115.526 42.6313Z" fill="#001A72"/>
<path fill-rule="evenodd" clip-rule="evenodd" d="M127.388 48.5897C126.651 47.3666 125.442 46.676 123.817 46.676C120.982 46.676 119.035 48.8264 119.035 51.9827C119.035 55.1789 120.963 57.3682 123.854 57.3682C125.46 57.3682 126.67 56.698 127.388 55.4749V57.27H129.561V42.6313H127.388V48.5897ZM124.308 55.4749C122.475 55.4749 121.227 54.0544 121.209 52.062C121.227 50.0496 122.494 48.6092 124.308 48.6092C126.122 48.6092 127.388 50.0297 127.388 52.062C127.388 54.0544 126.122 55.4749 124.308 55.4749Z" fill="#001A72"/>
<path fill-rule="evenodd" clip-rule="evenodd" d="M136.013 53.8775L133.126 46.1401H130.965L134.96 56.2011L134.633 56.9687C134.306 57.7367 133.798 58.1014 133.162 58.1014C132.726 58.1014 132.363 57.9477 131.909 57.6019L131.019 59.3107C131.691 59.9061 132.381 60.1752 133.253 60.1752C134.706 60.1752 135.796 59.3689 136.395 57.7556L140.79 46.1401H138.701L136.013 53.8775Z" fill="#001A72"/>
<path fill-rule="evenodd" clip-rule="evenodd" d="M150.614 56.5692L150.595 49.7785C150.576 47.5018 149.1 46.1401 146.474 46.1401C144.538 46.1401 143.503 46.5873 142.085 47.4433L142.986 49.0001C144.002 48.2998 145.017 47.9495 145.995 47.9495C147.605 47.9495 148.429 48.7279 148.429 50.0315V50.3426H145.343C142.89 50.3623 141.491 51.5687 141.491 53.4561C141.491 55.2851 142.871 56.6665 145.075 56.6665C146.551 56.6665 147.72 56.2188 148.449 55.3043V56.5692H150.614ZM148.429 52.9303C148.314 54.0591 147.106 54.8959 145.535 54.8959C144.309 54.8959 143.561 54.2925 143.561 53.3588C143.561 52.3662 144.232 51.977 145.669 51.977H148.429V52.9303Z" fill="#001A72"/>
</g>
<defs>
<clipPath id="clip0_298_11091">
<rect width="90.5263" height="40" fill="white" transform="translate(105 30)"/>
</clipPath>
</defs>
</svg>
