<svg width="300" height="100" viewBox="0 0 300 100" fill="none" xmlns="http://www.w3.org/2000/svg">
<rect width="300" height="100" fill="white"/>
<g clip-path="url(#clip0_298_10925)">
<path d="M153.314 48.213C157.217 45.9599 158.554 40.9696 156.3 37.0668C154.047 33.1641 149.057 31.8267 145.155 34.0797C141.252 36.3328 139.915 41.323 142.169 45.2258C144.422 49.1286 149.412 50.466 153.314 48.213ZM154.462 38.1283C155.502 39.9293 155.508 42.0432 154.665 43.7835C154.51 44.1224 154.323 44.4476 154.103 44.7539C153.902 45.0359 153.859 45.4103 154.033 45.7107C154.256 46.0975 154.124 46.5921 153.737 46.8153L151.92 47.8645C151.538 48.0848 151.05 47.9541 150.83 47.5724C150.657 47.2742 150.314 47.1256 149.971 47.1619C149.581 47.2033 149.189 47.2048 148.803 47.1679C146.874 47.0277 145.047 45.9652 144.007 44.1643C142.34 41.2771 143.329 37.5853 146.216 35.9185C149.103 34.2517 152.795 35.2411 154.462 38.1283ZM152 49.8661C151.715 50.0306 151.617 50.3949 151.782 50.6797C151.946 50.9646 152.31 51.0622 152.595 50.8978L155.999 48.9324C156.284 48.768 156.382 48.4038 156.217 48.1189C156.053 47.834 155.688 47.7364 155.404 47.9008L152 49.8661ZM153.656 51.0076C153.011 51.3798 153.47 51.6991 153.47 51.6991C153.47 51.6991 153.883 51.8619 154.162 51.8845C155.043 51.956 155.743 51.5516 156.122 50.7529C156.242 50.5003 156.307 50.0614 156.307 50.0614C156.307 50.0614 156.235 49.5187 155.616 49.8761L153.656 51.0076Z" fill="#FFCF85"/>
<path d="M153.314 48.213C157.217 45.9599 158.554 40.9696 156.3 37.0668C154.047 33.1641 149.057 31.8267 145.155 34.0797C141.252 36.3328 139.915 41.323 142.169 45.2258C144.422 49.1286 149.412 50.466 153.314 48.213ZM154.462 38.1283C155.502 39.9293 155.508 42.0432 154.665 43.7835C154.51 44.1224 154.323 44.4476 154.103 44.7539C153.902 45.0359 153.859 45.4103 154.033 45.7107C154.256 46.0975 154.124 46.5921 153.737 46.8153L151.92 47.8645C151.538 48.0848 151.05 47.9541 150.83 47.5724C150.657 47.2742 150.314 47.1256 149.971 47.1619C149.581 47.2033 149.189 47.2048 148.803 47.1679C146.874 47.0277 145.047 45.9652 144.007 44.1643C142.34 41.2771 143.329 37.5853 146.216 35.9185C149.103 34.2517 152.795 35.2411 154.462 38.1283ZM152 49.8661C151.715 50.0306 151.617 50.3949 151.782 50.6797C151.946 50.9646 152.31 51.0622 152.595 50.8978L155.999 48.9324C156.284 48.768 156.382 48.4038 156.217 48.1189C156.053 47.834 155.688 47.7364 155.404 47.9008L152 49.8661ZM153.656 51.0076C153.011 51.3798 153.47 51.6991 153.47 51.6991C153.47 51.6991 153.883 51.8619 154.162 51.8845C155.043 51.956 155.743 51.5516 156.122 50.7529C156.242 50.5003 156.307 50.0614 156.307 50.0614C156.307 50.0614 156.235 49.5187 155.616 49.8761L153.656 51.0076Z" stroke="black"/>
<path d="M129 57.8745H129.86V64.3274H133.179V65.1263H129V57.8745Z" fill="black"/>
<path d="M134.05 60.3327H134.849V65.1263H134.05V60.3327ZM133.865 58.4583C133.865 58.3013 133.92 58.1647 134.029 58.0486C134.145 57.9326 134.285 57.8745 134.449 57.8745C134.613 57.8745 134.75 57.9326 134.859 58.0486C134.975 58.1647 135.033 58.3013 135.033 58.4583C135.033 58.629 134.978 58.769 134.869 58.8783C134.76 58.9875 134.62 59.0422 134.449 59.0422C134.278 59.0422 134.138 58.9875 134.029 58.8783C133.92 58.769 133.865 58.629 133.865 58.4583Z" fill="black"/>
<path d="M141.222 64.9113C141.222 65.7854 140.997 66.4477 140.546 66.8984C140.102 67.3559 139.457 67.5847 138.61 67.5847C138.139 67.5847 137.712 67.5164 137.33 67.3798C136.954 67.2432 136.596 67.0077 136.254 66.6731L136.828 66.0175C137.08 66.2907 137.347 66.4955 137.627 66.6321C137.914 66.7755 138.241 66.8472 138.61 66.8472C138.965 66.8472 139.259 66.7926 139.491 66.6833C139.73 66.5809 139.918 66.4375 140.054 66.2531C140.191 66.0756 140.286 65.8707 140.341 65.6386C140.396 65.4064 140.423 65.164 140.423 64.9113V64.2968H140.403C140.211 64.6041 139.962 64.8294 139.655 64.9728C139.348 65.1162 139.033 65.1879 138.713 65.1879C138.337 65.1879 137.992 65.1264 137.678 65.0035C137.364 64.8806 137.094 64.7099 136.869 64.4914C136.643 64.2728 136.469 64.0134 136.346 63.7129C136.224 63.4125 136.162 63.0847 136.162 62.7296C136.162 62.3404 136.224 61.9887 136.346 61.6746C136.469 61.3605 136.64 61.0977 136.859 60.8859C137.084 60.6674 137.354 60.5002 137.668 60.3841C137.982 60.268 138.33 60.21 138.713 60.21C138.876 60.21 139.04 60.2304 139.204 60.2714C139.368 60.3056 139.525 60.3636 139.675 60.4455C139.832 60.5206 139.972 60.6196 140.095 60.7426C140.218 60.8586 140.321 60.9952 140.403 61.1523H140.423V60.3329H141.222V64.9113ZM137.022 62.7296C137.022 62.9755 137.067 63.2042 137.156 63.4159C137.244 63.6208 137.364 63.8017 137.514 63.9588C137.671 64.109 137.852 64.2285 138.057 64.3173C138.262 64.406 138.48 64.4504 138.713 64.4504C138.986 64.4504 139.228 64.4026 139.44 64.307C139.651 64.2114 139.829 64.0851 139.972 63.928C140.123 63.7641 140.235 63.5798 140.31 63.3749C140.385 63.1632 140.423 62.9413 140.423 62.7092C140.423 62.4497 140.382 62.2141 140.3 62.0024C140.218 61.7839 140.102 61.5961 139.952 61.4391C139.802 61.282 139.621 61.1625 139.409 61.0806C139.197 60.9918 138.965 60.9474 138.713 60.9474C138.46 60.9474 138.228 60.9952 138.016 61.0908C137.811 61.1796 137.634 61.3059 137.483 61.4698C137.34 61.6268 137.227 61.8146 137.145 62.0331C137.063 62.2448 137.022 62.477 137.022 62.7296Z" fill="black"/>
<path d="M142.7 57.3828H143.499V60.9985H143.52C143.574 60.9029 143.649 60.8107 143.745 60.7219C143.841 60.6263 143.953 60.541 144.083 60.4659C144.22 60.3907 144.37 60.3293 144.534 60.2815C144.698 60.2337 144.872 60.2098 145.056 60.2098C145.37 60.2098 145.64 60.2576 145.865 60.3532C146.097 60.4488 146.289 60.5819 146.439 60.7526C146.589 60.9233 146.698 61.1316 146.767 61.3775C146.842 61.6164 146.879 61.8793 146.879 62.1662V65.1262H146.08V62.2481C146.08 61.8452 145.991 61.5277 145.814 61.2955C145.636 61.0634 145.36 60.9472 144.984 60.9472C144.725 60.9472 144.5 60.9916 144.308 61.0804C144.124 61.1692 143.97 61.2955 143.847 61.4594C143.731 61.6233 143.643 61.8179 143.581 62.0432C143.526 62.2686 143.499 62.5178 143.499 62.7909V65.1262H142.7V57.3828Z" fill="black"/>
<path d="M151.014 61.009H149.6V63.4058C149.6 63.5628 149.604 63.7096 149.61 63.8462C149.617 63.9759 149.645 64.092 149.692 64.1944C149.74 64.29 149.812 64.3686 149.908 64.43C150.003 64.4847 150.14 64.512 150.317 64.512C150.433 64.512 150.553 64.4983 150.676 64.471C150.799 64.4437 150.915 64.4027 151.024 64.3481L151.055 65.0753C150.918 65.1367 150.764 65.1811 150.594 65.2084C150.43 65.2358 150.273 65.2494 150.123 65.2494C149.836 65.2494 149.607 65.2119 149.436 65.1367C149.266 65.0616 149.133 64.9558 149.037 64.8192C148.941 64.6827 148.876 64.5154 148.842 64.3174C148.815 64.1125 148.801 63.8872 148.801 63.6413V61.009H147.757V60.333H148.801V58.9707H149.6V60.333H151.014V61.009Z" fill="black"/>
<path d="M151.962 57.3828H152.761V61.0292H152.781C153 60.7697 153.252 60.5683 153.539 60.4249C153.833 60.2815 154.154 60.2098 154.502 60.2098C154.877 60.2098 155.219 60.2747 155.526 60.4044C155.84 60.5273 156.107 60.7014 156.325 60.9268C156.544 61.1521 156.714 61.4184 156.837 61.7257C156.96 62.033 157.022 62.3676 157.022 62.7295C157.022 63.0914 156.96 63.426 156.837 63.7333C156.714 64.0405 156.544 64.3069 156.325 64.5322C156.113 64.7575 155.861 64.9351 155.567 65.0648C155.273 65.1877 154.959 65.2492 154.625 65.2492C154.195 65.2492 153.816 65.157 153.488 64.9726C153.167 64.7814 152.931 64.5493 152.781 64.2761H152.761V65.1262H151.962V57.3828ZM152.761 62.7295C152.761 62.9821 152.798 63.2177 152.873 63.4362C152.955 63.6479 153.071 63.8357 153.222 63.9996C153.372 64.1566 153.549 64.283 153.754 64.3786C153.966 64.4673 154.201 64.5117 154.461 64.5117C154.72 64.5117 154.953 64.4673 155.157 64.3786C155.369 64.283 155.55 64.1566 155.7 63.9996C155.85 63.8357 155.963 63.6479 156.038 63.4362C156.12 63.2177 156.161 62.9821 156.161 62.7295C156.161 62.4768 156.12 62.2447 156.038 62.033C155.963 61.8145 155.85 61.6267 155.7 61.4696C155.55 61.3058 155.369 61.1794 155.157 61.0907C154.953 60.995 154.72 60.9472 154.461 60.9472C154.201 60.9472 153.966 60.995 153.754 61.0907C153.549 61.1794 153.372 61.3058 153.222 61.4696C153.071 61.6267 152.955 61.8145 152.873 62.033C152.798 62.2447 152.761 62.4768 152.761 62.7295Z" fill="black"/>
<path d="M162.443 63.9896C162.443 64.2081 162.45 64.413 162.464 64.6042C162.477 64.7954 162.484 64.9695 162.484 65.1265H161.726C161.726 64.9968 161.723 64.8671 161.716 64.7373C161.709 64.6076 161.706 64.4745 161.706 64.3379H161.685C161.631 64.454 161.552 64.5666 161.45 64.6759C161.354 64.7851 161.238 64.8842 161.101 64.9729C160.965 65.0549 160.811 65.1197 160.64 65.1675C160.47 65.2221 160.285 65.2495 160.087 65.2495C159.773 65.2495 159.5 65.2017 159.268 65.1061C159.043 65.0105 158.855 64.8773 158.705 64.7066C158.554 64.5359 158.442 64.3311 158.367 64.092C158.298 63.8462 158.264 63.5799 158.264 63.2931V60.333H159.063V63.2112C159.063 63.6141 159.152 63.9316 159.329 64.1637C159.507 64.3959 159.783 64.512 160.159 64.512C160.419 64.512 160.64 64.4676 160.825 64.3789C161.016 64.2901 161.17 64.1637 161.286 63.9999C161.409 63.836 161.497 63.6414 161.552 63.4161C161.614 63.1907 161.644 62.9414 161.644 62.6683V60.333H162.443V63.9896Z" fill="black"/>
<path d="M164.027 57.3828H164.826V65.1262H164.027V57.3828Z" fill="black"/>
<path d="M166.385 57.3828H167.184V61.0292H167.205C167.423 60.7697 167.676 60.5683 167.963 60.4249C168.256 60.2815 168.577 60.2098 168.925 60.2098C169.301 60.2098 169.642 60.2747 169.95 60.4044C170.264 60.5273 170.53 60.7014 170.749 60.9268C170.967 61.1521 171.138 61.4184 171.261 61.7257C171.384 62.033 171.445 62.3676 171.445 62.7295C171.445 63.0914 171.384 63.426 171.261 63.7333C171.138 64.0405 170.967 64.3069 170.749 64.5322C170.537 64.7575 170.284 64.9351 169.991 65.0648C169.697 65.1877 169.383 65.2492 169.048 65.2492C168.618 65.2492 168.239 65.157 167.911 64.9726C167.591 64.7814 167.355 64.5493 167.205 64.2761H167.184V65.1262H166.385V57.3828ZM167.184 62.7295C167.184 62.9821 167.222 63.2177 167.297 63.4362C167.379 63.6479 167.495 63.8357 167.645 63.9996C167.795 64.1566 167.973 64.283 168.178 64.3786C168.389 64.4673 168.625 64.5117 168.884 64.5117C169.144 64.5117 169.376 64.4673 169.581 64.3786C169.793 64.283 169.974 64.1566 170.124 63.9996C170.274 63.8357 170.387 63.6479 170.462 63.4362C170.544 63.2177 170.585 62.9821 170.585 62.7295C170.585 62.4768 170.544 62.2447 170.462 62.033C170.387 61.8145 170.274 61.6267 170.124 61.4696C169.974 61.3058 169.793 61.1794 169.581 61.0907C169.376 60.995 169.144 60.9472 168.884 60.9472C168.625 60.9472 168.389 60.995 168.178 61.0907C167.973 61.1794 167.795 61.3058 167.645 61.4696C167.495 61.6267 167.379 61.8145 167.297 62.033C167.222 62.2447 167.184 62.4768 167.184 62.7295Z" fill="black"/>
<path d="M130.283 69.3264C130.283 69.4141 130.273 69.4979 130.253 69.5779C130.233 69.6578 130.199 69.7286 130.151 69.7901C130.105 69.8516 130.043 69.9008 129.967 69.9377C129.891 69.9746 129.798 69.9931 129.687 69.9931C129.577 69.9931 129.483 69.9746 129.406 69.9377C129.331 69.9008 129.269 69.8516 129.221 69.7901C129.175 69.7286 129.142 69.6578 129.122 69.5779C129.102 69.4979 129.092 69.4141 129.092 69.3264V68.3184H129.245V69.2872C129.245 69.3457 129.25 69.408 129.261 69.4741C129.271 69.5402 129.292 69.6017 129.323 69.6586C129.355 69.7155 129.4 69.7624 129.457 69.7993C129.515 69.8362 129.592 69.8547 129.687 69.8547C129.783 69.8547 129.859 69.8362 129.916 69.7993C129.974 69.7624 130.019 69.7155 130.05 69.6586C130.082 69.6017 130.103 69.5402 130.114 69.4741C130.125 69.408 130.13 69.3457 130.13 69.2872V68.3184H130.283V69.3264Z" fill="black"/>
<path d="M131.746 69.6494C131.786 69.7186 131.838 69.7701 131.901 69.804C131.966 69.8378 132.039 69.8547 132.12 69.8547C132.171 69.8547 132.219 69.847 132.263 69.8316C132.308 69.8163 132.346 69.7947 132.378 69.7671C132.412 69.7394 132.438 69.7063 132.457 69.6679C132.477 69.6279 132.487 69.5833 132.487 69.5341C132.487 69.4772 132.475 69.4303 132.45 69.3933C132.427 69.3564 132.395 69.3265 132.355 69.3034C132.315 69.2788 132.27 69.258 132.219 69.2411C132.17 69.2242 132.119 69.2073 132.065 69.1903C132.012 69.1734 131.961 69.1542 131.91 69.1327C131.861 69.1111 131.816 69.0835 131.776 69.0496C131.736 69.0142 131.704 68.9704 131.68 68.9181C131.656 68.8659 131.645 68.8013 131.645 68.7244C131.645 68.6521 131.659 68.5883 131.686 68.5329C131.716 68.476 131.754 68.4291 131.802 68.3922C131.851 68.3538 131.907 68.3253 131.97 68.3068C132.033 68.2869 132.099 68.2769 132.169 68.2769C132.258 68.2769 132.34 68.293 132.415 68.3253C132.492 68.3561 132.558 68.4083 132.614 68.4822L132.482 68.5767C132.444 68.5229 132.398 68.4829 132.346 68.4568C132.295 68.4291 132.235 68.4153 132.164 68.4153C132.115 68.4153 132.068 68.4222 132.023 68.436C131.979 68.4483 131.939 68.4675 131.906 68.4937C131.873 68.5183 131.847 68.5498 131.827 68.5883C131.807 68.6267 131.797 68.6721 131.797 68.7244C131.797 68.8059 131.818 68.8689 131.859 68.9135C131.901 68.9566 131.952 68.9912 132.014 69.0173C132.077 69.0419 132.145 69.0643 132.217 69.0842C132.291 69.1027 132.358 69.1281 132.42 69.1604C132.483 69.1927 132.535 69.238 132.577 69.2965C132.618 69.3534 132.639 69.4326 132.639 69.5341C132.639 69.6079 132.625 69.6733 132.598 69.7301C132.57 69.787 132.532 69.8355 132.485 69.8755C132.438 69.9139 132.385 69.9432 132.323 69.9631C132.262 69.9831 132.198 69.9931 132.132 69.9931C132.024 69.9931 131.925 69.9747 131.834 69.9378C131.743 69.8993 131.666 69.8355 131.601 69.7463L131.746 69.6494Z" fill="black"/>
<path d="M133.988 68.3184H134.987V68.4568H134.14V69.0381H134.934V69.1765H134.14V69.8132H135.024V69.9516H133.988V68.3184Z" fill="black"/>
<path d="M136.511 69.0381H136.834C136.914 69.0381 136.979 69.0281 137.028 69.0081C137.079 68.9881 137.118 68.9635 137.146 68.9343C137.173 68.9051 137.192 68.8735 137.201 68.8397C137.212 68.8059 137.217 68.7751 137.217 68.7474C137.217 68.7197 137.212 68.689 137.201 68.6552C137.192 68.6213 137.173 68.5898 137.146 68.5606C137.118 68.5314 137.079 68.5067 137.028 68.4868C136.979 68.4668 136.914 68.4568 136.834 68.4568H136.511V69.0381ZM136.359 68.3184H136.788C136.809 68.3184 136.839 68.3191 136.876 68.3207C136.913 68.3222 136.952 68.3268 136.996 68.3345C137.039 68.3422 137.082 68.3545 137.127 68.3714C137.172 68.3883 137.212 68.4129 137.247 68.4452C137.282 68.4775 137.312 68.5183 137.335 68.5675C137.358 68.6167 137.369 68.6767 137.369 68.7474C137.369 68.8259 137.355 68.8904 137.328 68.9412C137.302 68.9919 137.268 69.0335 137.226 69.0658C137.186 69.0965 137.142 69.1196 137.092 69.135C137.043 69.1503 136.996 69.1611 136.952 69.1673L137.427 69.9516H137.254L136.795 69.1765H136.511V69.9516H136.359V68.3184Z" fill="black"/>
<path d="M140.332 68.3184H141.331V68.4568H140.485V69.0381H141.278V69.1765H140.485V69.8132H141.368V69.9516H140.332V68.3184Z" fill="black"/>
<path d="M143.095 69.0934L142.537 68.3184H142.717L143.188 68.9827L143.651 68.3184H143.833L143.28 69.0934L143.887 69.9516H143.697L143.181 69.2134L142.664 69.9516H142.482L143.095 69.0934Z" fill="black"/>
<path d="M145.117 68.3184H145.588C145.644 68.3184 145.704 68.3253 145.765 68.3391C145.828 68.3514 145.885 68.3737 145.936 68.406C145.988 68.4383 146.03 68.4829 146.063 68.5398C146.097 68.5952 146.113 68.6652 146.113 68.7497C146.113 68.8235 146.1 68.8874 146.072 68.9412C146.046 68.995 146.01 69.0396 145.964 69.075C145.919 69.1088 145.867 69.1342 145.807 69.1511C145.748 69.168 145.687 69.1765 145.622 69.1765H145.269V69.9516H145.117V68.3184ZM145.269 69.0381H145.615C145.658 69.0381 145.701 69.0335 145.742 69.0242C145.784 69.0135 145.821 68.9973 145.853 68.9758C145.885 68.9527 145.911 68.9227 145.931 68.8858C145.951 68.8489 145.961 68.8036 145.961 68.7497C145.961 68.6975 145.95 68.6528 145.929 68.6159C145.909 68.579 145.882 68.549 145.848 68.526C145.816 68.5014 145.778 68.4837 145.735 68.4729C145.692 68.4622 145.649 68.4568 145.606 68.4568H145.269V69.0381Z" fill="black"/>
<path d="M147.445 68.3184H148.444V68.4568H147.597V69.0381H148.391V69.1765H147.597V69.8132H148.481V69.9516H147.445V68.3184Z" fill="black"/>
<path d="M149.968 69.0381H150.291C150.371 69.0381 150.436 69.0281 150.485 69.0081C150.536 68.9881 150.575 68.9635 150.603 68.9343C150.63 68.9051 150.649 68.8735 150.658 68.8397C150.669 68.8059 150.674 68.7751 150.674 68.7474C150.674 68.7197 150.669 68.689 150.658 68.6552C150.649 68.6213 150.63 68.5898 150.603 68.5606C150.575 68.5314 150.536 68.5067 150.485 68.4868C150.436 68.4668 150.371 68.4568 150.291 68.4568H149.968V69.0381ZM149.816 68.3184H150.245C150.267 68.3184 150.296 68.3191 150.333 68.3207C150.37 68.3222 150.41 68.3268 150.453 68.3345C150.496 68.3422 150.54 68.3545 150.584 68.3714C150.629 68.3883 150.669 68.4129 150.704 68.4452C150.739 68.4775 150.769 68.5183 150.792 68.5675C150.815 68.6167 150.826 68.6767 150.826 68.7474C150.826 68.8259 150.812 68.8904 150.785 68.9412C150.759 68.9919 150.725 69.0335 150.683 69.0658C150.643 69.0965 150.599 69.1196 150.549 69.135C150.5 69.1503 150.453 69.1611 150.409 69.1673L150.884 69.9516H150.711L150.252 69.1765H149.968V69.9516H149.816V68.3184Z" fill="black"/>
<path d="M152.187 68.3184H152.339V69.9516H152.187V68.3184Z" fill="black"/>
<path d="M153.789 68.3184H154.788V68.4568H153.942V69.0381H154.735V69.1765H153.942V69.8132H154.825V69.9516H153.789V68.3184Z" fill="black"/>
<path d="M156.16 68.3184H156.356L157.35 69.7486H157.355V68.3184H157.507V69.9516H157.311L156.317 68.5214H156.312V69.9516H156.16V68.3184Z" fill="black"/>
<path d="M160.304 69.6955C160.226 69.8017 160.135 69.8778 160.032 69.9239C159.929 69.9701 159.817 69.9931 159.697 69.9931C159.573 69.9931 159.458 69.9724 159.354 69.9308C159.251 69.8878 159.162 69.8286 159.088 69.7532C159.015 69.6763 158.957 69.5856 158.915 69.481C158.874 69.3749 158.853 69.2596 158.853 69.135C158.853 69.0104 158.874 68.8959 158.915 68.7913C158.957 68.6867 159.015 68.5967 159.088 68.5214C159.162 68.4445 159.251 68.3845 159.354 68.3414C159.458 68.2984 159.573 68.2769 159.697 68.2769C159.808 68.2769 159.911 68.2968 160.006 68.3368C160.103 68.3753 160.188 68.4406 160.26 68.5329L160.136 68.6367C160.085 68.5598 160.019 68.5037 159.94 68.4683C159.861 68.4329 159.78 68.4153 159.697 68.4153C159.591 68.4153 159.495 68.4337 159.409 68.4706C159.324 68.5075 159.252 68.5583 159.192 68.6229C159.132 68.6875 159.086 68.7636 159.054 68.8513C159.021 68.9389 159.005 69.0335 159.005 69.135C159.005 69.2365 159.021 69.3311 159.054 69.4187C159.086 69.5064 159.132 69.5825 159.192 69.6471C159.252 69.7117 159.324 69.7624 159.409 69.7993C159.495 69.8363 159.591 69.8547 159.697 69.8547C159.739 69.8547 159.782 69.8501 159.826 69.8409C159.871 69.8301 159.914 69.8147 159.956 69.7947C159.999 69.7732 160.04 69.7471 160.078 69.7163C160.116 69.684 160.15 69.6456 160.179 69.601L160.304 69.6955Z" fill="black"/>
<path d="M161.587 68.3184H162.586V68.4568H161.739V69.0381H162.533V69.1765H161.739V69.8132H162.623V69.9516H161.587V68.3184Z" fill="black"/>
<path d="M165.56 68.3184H165.713V69.8132H166.474V69.9516H165.56V68.3184Z" fill="black"/>
<path d="M168.218 68.3184H168.375L169.062 69.9516H168.892L168.714 69.5179H167.849L167.664 69.9516H167.505L168.218 68.3184ZM168.289 68.4844L167.909 69.3795H168.659L168.289 68.4844Z" fill="black"/>
<path d="M170.3 68.3184H170.77C170.832 68.3184 170.894 68.3238 170.957 68.3345C171.02 68.3437 171.076 68.3645 171.126 68.3968C171.176 68.4276 171.217 68.4714 171.248 68.5283C171.28 68.5836 171.296 68.6575 171.296 68.7497C171.296 68.8328 171.272 68.9051 171.223 68.9666C171.173 69.0281 171.1 69.0689 171.003 69.0888V69.0934C171.057 69.0981 171.106 69.1111 171.151 69.1327C171.196 69.1526 171.234 69.1803 171.266 69.2157C171.299 69.2495 171.323 69.2903 171.34 69.338C171.359 69.3856 171.368 69.4379 171.368 69.4948C171.368 69.5886 171.349 69.6655 171.312 69.7255C171.277 69.784 171.232 69.8301 171.176 69.8639C171.123 69.8977 171.063 69.9208 170.999 69.9331C170.936 69.9454 170.877 69.9516 170.821 69.9516H170.3V68.3184ZM170.452 69.0242H170.768C170.847 69.0242 170.91 69.015 170.96 68.9966C171.009 68.9766 171.047 68.9527 171.075 68.925C171.103 68.8974 171.121 68.8682 171.13 68.8374C171.139 68.8051 171.144 68.7759 171.144 68.7497C171.144 68.6928 171.134 68.6459 171.114 68.609C171.096 68.5706 171.07 68.5406 171.038 68.5191C171.006 68.496 170.968 68.4798 170.925 68.4706C170.882 68.4614 170.837 68.4568 170.789 68.4568H170.452V69.0242ZM170.452 69.8132H170.8C170.89 69.8132 170.961 69.8024 171.015 69.7809C171.07 69.7593 171.113 69.7324 171.142 69.7001C171.171 69.6678 171.19 69.634 171.199 69.5986C171.21 69.5617 171.216 69.5286 171.216 69.4994C171.216 69.4395 171.204 69.3879 171.181 69.3449C171.158 69.3018 171.128 69.2672 171.091 69.2411C171.054 69.2134 171.012 69.1934 170.964 69.1811C170.918 69.1688 170.871 69.1626 170.823 69.1626H170.452V69.8132Z" fill="black"/>
</g>
<defs>
<clipPath id="clip0_298_10925">
<rect width="42.4452" height="40" fill="white" transform="translate(129 30)"/>
</clipPath>
</defs>
</svg>
