<svg width="67" height="40" viewBox="0 0 67 40" fill="none" xmlns="http://www.w3.org/2000/svg">
<g clip-path="url(#clip0_298_13267)">
<mask id="mask0_298_13267" style="mask-type:luminance" maskUnits="userSpaceOnUse" x="0" y="0" width="67" height="40">
<path d="M66.9565 0H0V40H66.9565V0Z" fill="white"/>
</mask>
<g mask="url(#mask0_298_13267)">
<path d="M11.3103 2.7469C11.3103 2.24277 11.133 1.68821 10.0952 1.68821V0.98307L13.4633 0L14.1718 0.604963V12.3733C14.7563 11.6927 18.9577 8.34152 18.7297 8.11466C18.5017 7.8878 17.8945 7.81283 17.312 7.81283V7.20786H22.3777V7.81283C20.5547 7.81283 17.5672 10.0808 16.3008 11.3405L21.3665 17.8923C21.5691 18.1696 22.2277 18.6485 23.0883 18.6485V19.3291H19.009C18.9076 19.2283 16.1475 15.625 14.1725 13.2058V17.6655C14.1725 18.4217 14.679 18.6479 15.3876 18.6479V19.3284H10.0958V18.6485C11.135 18.6485 11.311 18.145 11.311 17.6661C11.2856 12.6751 11.2856 7.71135 11.3103 2.7469Z" fill="#303E49"/>
<path d="M33.2767 13.2786C33.2767 16.6305 30.8965 19.3263 27.9596 19.3263C25.0228 19.3263 22.6426 16.6324 22.6426 13.2786C22.6426 9.92478 25.0228 7.20312 27.9596 7.20312C30.8965 7.20312 33.2767 9.92939 33.2767 13.2786ZM25.5034 13.2786C25.5034 16.2272 26.6172 18.6212 27.9596 18.6212C29.3021 18.6212 30.4159 16.2297 30.4159 13.2786C30.4159 10.3275 29.3021 7.93606 27.9596 7.93606C26.6172 7.93606 25.5034 10.3327 25.5034 13.2786Z" fill="#303E49"/>
<path d="M21.3969 33.0659C14.2061 33.5953 13.7248 21.273 21.2449 20.9201C23.3232 20.8193 25.5495 22.2303 25.5748 25.1536C25.5748 25.9602 25.0429 26.136 24.3344 26.136H18.764C18.6627 28.8576 19.7265 31.856 22.1567 31.9064C23.2206 31.9316 24.385 31.2258 25.1196 29.9913C25.2715 29.9662 25.8287 30.0669 25.8287 30.1174C24.9163 31.8818 23.144 32.9399 21.3969 33.0659ZM22.6881 25.4289C22.992 25.4289 23.0426 25.3029 23.0426 25.1264C23.1186 22.7829 22.3841 21.624 21.3209 21.6743C19.9031 21.7752 19.042 23.4634 18.814 25.4289H22.6881Z" fill="#303E49"/>
<path d="M35.3948 30.6468C35.3948 31.9316 35.2682 32.4106 36.6099 32.4106V33.066C34.1283 33.0408 33.4451 33.2676 32.8119 32.1611C32.3129 32.5086 31.7556 32.7645 31.1662 32.9167C26.077 34.1266 24.7365 28.3814 32.5339 25.9363C32.5339 24.9022 32.6352 23.3155 32.3059 22.4338C31.9013 21.3002 29.9256 21.6272 29.7483 22.4338C31.2928 23.0388 30.7362 24.853 29.2424 24.9035C28.5586 24.9287 27.7994 24.3742 27.7994 23.6186C27.8247 22.4597 28.9645 20.8716 31.4708 20.9221C32.9898 20.9221 35.3675 20.9977 35.3954 23.8707L35.3948 30.6468ZM32.5079 26.8166C27.4188 28.3535 30.153 32.0577 31.6468 31.7055C31.9507 31.6298 32.2546 31.5542 32.556 31.3274C32.5371 30.067 32.5105 28.1519 32.5105 26.8166H32.5079Z" fill="#303E49"/>
<path d="M39.0208 16.4858C39.0208 15.9817 38.8435 15.4271 37.8057 15.4271V14.7214L41.1737 13.7383L41.8823 14.3432V31.4031C41.8823 32.1593 42.3889 32.3855 43.0974 32.3855V33.0661H37.8057V32.3855C38.8448 32.3855 39.0208 31.8814 39.0208 31.4031C38.9954 26.4141 38.9954 21.4503 39.0208 16.4858Z" fill="#303E49"/>
<path d="M51.1189 31.4034C51.4989 31.7311 51.5242 31.9851 51.4229 32.0588C48.916 34.0747 45.1687 33.0413 45.1433 28.7328C45.1687 26.8681 45.1687 24.4741 45.1687 22.5843C45.1687 21.501 44.0541 21.6264 43.2202 21.6264V20.9459C45.5752 21.0214 46.8916 20.1392 47.3222 19.0068C47.3729 19.0321 48.0314 19.2589 48.0314 19.2589V20.9471H51.0949C51.0949 21.0764 51.2722 21.6277 50.867 21.6277H48.0294C48.0041 24.1226 48.0041 26.4157 48.0041 28.7374C47.8775 33.8227 50.3084 32.0866 51.1189 31.4034Z" fill="#303E49"/>
<path d="M53.0703 16.4858C53.0703 15.9817 52.893 15.4271 51.8552 15.4271V14.7214L55.2233 13.7383L55.9318 14.3432V22.7345C59.8818 19.2825 63.7058 21.4497 63.7058 24.0446C63.7058 26.4891 63.7311 28.9335 63.7058 31.4031C63.7311 32.1593 64.263 32.3855 64.9463 32.3855V33.0661H59.6539V32.3855C60.667 32.3855 60.869 31.8814 60.869 31.4031C60.8436 28.9335 60.869 26.4911 60.869 24.0446C60.869 22.3565 59.2993 20.5674 55.9331 23.8682V31.4025C55.9331 32.1587 56.4397 32.3849 57.1482 32.3849V33.0655H51.8545V32.3849C52.8936 32.3849 53.0696 31.8807 53.0696 31.4025C53.0456 26.4141 53.0456 21.4503 53.0703 16.4858Z" fill="#303E49"/>
<path d="M51.8569 16.1263H51.1536V14.1964L51.6588 14.049L53.4597 13.5236V10.3049C53.4597 7.65881 49.4844 5.46647 45.4331 9.22165C44.5719 7.20574 41.2804 6.04622 37.8877 8.99478V7.81199L37.1791 7.20703L33.811 8.19009V8.89521C34.8502 8.89521 35.0262 9.44982 35.0262 9.95391C35.0009 14.9183 35.0009 12.6756 35.0262 17.6646C35.0262 18.1436 34.8489 18.647 33.811 18.647V19.3277H38.3066C38.3066 19.0458 38.3076 18.7643 38.3098 18.4829C38.0501 18.3381 37.8877 18.0854 37.8877 17.6646V16.129C37.8604 16.129 37.8364 16.129 37.8052 16.129H37.1018V14.1964L37.6071 14.049L37.8877 13.967V10.1303C41.2558 6.82957 42.8236 8.61861 42.8236 10.3068C42.8236 12.7512 42.7983 15.1956 42.8236 17.6653C42.8236 17.9096 42.769 18.159 42.5833 18.3458V19.3283H46.9002V18.6477C46.2163 18.6477 45.6844 18.4209 45.6597 17.6653C45.6851 15.1956 45.6851 12.7532 45.6851 10.3068C45.7104 9.44982 50.6209 6.40106 50.6209 10.3068C50.6209 12.7512 50.5956 15.1956 50.6209 17.6653C50.6209 18.1442 50.4183 18.6477 49.4052 18.6477V19.3283H52.355C52.3583 18.3788 52.3609 17.4294 52.3661 16.4844C52.3687 16.2317 52.3687 16.1263 51.8569 16.1263Z" fill="#303E49"/>
<path d="M59.483 19.1771C60.0725 19.0245 60.6298 18.7684 61.1288 18.4208C61.762 19.5293 62.4452 19.3031 64.9268 19.3257V18.6723C63.585 18.6723 63.7117 18.1933 63.7117 16.9085V10.1304C63.6864 7.25745 61.3087 7.18184 59.787 7.18184C57.2833 7.13142 56.141 8.71883 56.1143 9.8783C56.1143 10.6346 56.8742 11.1884 57.5574 11.1633C59.0511 11.1128 59.6083 9.29857 58.0633 8.6936C58.2406 7.88763 60.2157 7.55994 60.6209 8.6936C60.9502 9.57587 60.8489 11.1633 60.8489 12.196C58.9005 12.8062 57.5256 13.6219 56.6339 14.484V19.0303C57.3443 19.3619 58.3127 19.455 59.483 19.1771ZM60.8248 13.0783C60.8248 14.4136 60.8502 16.3293 60.8755 17.589C60.5716 17.8159 60.2676 17.8908 59.9663 17.9671C58.4705 18.3193 55.7357 14.6159 60.8248 13.0783Z" fill="#303E49"/>
<path d="M2.5186 18.4898C2.5186 19.8309 3.67138 19.8788 3.67138 19.8788C-0.26368 19.8788 0.0253289 18.0412 0 16.6562V14.6474C0.0253289 13.2623 -0.26368 11.4248 3.67138 11.4248C3.67138 11.4248 2.5186 11.4726 2.5186 12.8138V18.4898Z" fill="#303E49"/>
<path d="M0.862793 8.09654C0.862793 8.85274 1.62201 8.71378 2.30589 8.71378C3.55934 8.71378 3.38074 7.23564 3.38074 6.56281C3.38074 5.44078 4.53353 5.39941 4.53353 5.39941C0.599112 5.40071 0.888125 6.93768 0.862793 8.09654Z" fill="#303E49"/>
<path d="M8.34582 19.1197C8.26464 18.5328 8.31334 12.2738 8.31334 12.2738V7.4871C8.28801 5.45827 5.91035 5.40527 4.38867 5.40527C4.94005 5.40527 5.36675 5.78014 5.42001 6.16536C5.50119 6.75222 5.45248 12.2738 5.45248 12.2738V17.798C5.47781 19.8268 8.20943 19.8798 9.72912 19.8798C9.17773 19.8798 8.39907 19.5049 8.34582 19.1197Z" fill="#0356B2"/>
<path d="M12.0808 31.2259C12.0899 32.0616 12.225 33.0531 13.1641 33.0531C13.848 33.0531 14.6072 33.2192 14.6072 32.3156V23.1015C14.5819 21.7165 14.5195 19.8789 10.5845 19.8789C10.5845 19.8789 12.0893 19.9267 12.0893 21.2679L12.0808 31.2259Z" fill="#303E49"/>
<path d="M5.42001 20.64C5.36675 20.2521 4.94005 19.8799 4.38867 19.8799C5.90775 19.8799 8.28542 19.9335 8.31334 21.9617L8.34582 32.3075C8.34582 32.6953 8.19449 32.8853 7.96848 32.979C7.66518 33.1083 7.22745 33.0553 6.83518 33.0553C5.89606 33.0553 5.46092 32.0632 5.45248 31.2281L5.42001 20.64Z" fill="#0356B2"/>
<path d="M0.0678711 39.862L1.50837 36.1289H2.04288L3.57494 39.862H3.00992L2.57218 38.731H1.00374L0.591335 39.862H0.0678711ZM1.14987 38.329H2.41891L2.02923 37.2948C1.90974 36.9807 1.82097 36.7222 1.76295 36.5193C1.71415 36.7611 1.64662 36.9987 1.56097 37.2302L1.14987 38.329Z" fill="#303E49"/>
<path d="M8.08447 38.6614L8.55273 38.6206C8.56715 38.784 8.62035 38.9414 8.70797 39.0802C8.8031 39.211 8.93406 39.3118 9.08527 39.3704C9.26736 39.4466 9.46327 39.4844 9.66066 39.4816C9.83188 39.4846 10.0021 39.456 10.1628 39.3969C10.2913 39.3536 10.4042 39.2735 10.4874 39.1668C10.5557 39.074 10.5921 38.9619 10.5914 38.8469C10.5934 38.7361 10.5572 38.628 10.4888 38.5406C10.3983 38.438 10.2816 38.3618 10.151 38.3201C9.9331 38.248 9.71162 38.1871 9.48727 38.1379C9.14092 38.056 8.89953 37.9785 8.76319 37.9052C8.60098 37.8266 8.46269 37.7066 8.36244 37.5574C8.27516 37.4182 8.23006 37.2569 8.23254 37.0927C8.23254 36.9046 8.28859 36.7206 8.39361 36.564C8.50852 36.3947 8.67287 36.2646 8.86449 36.1912C9.08319 36.1033 9.3171 36.0594 9.55293 36.0619C9.80466 36.0571 10.0549 36.1026 10.2888 36.1957C10.4882 36.2746 10.659 36.4118 10.7784 36.5893C10.8935 36.7645 10.9574 36.9681 10.9628 37.1774L10.4868 37.213C10.4617 36.9768 10.3751 36.7986 10.227 36.6785C10.0789 36.5582 9.86119 36.498 9.57371 36.4975C9.27319 36.4975 9.05432 36.5522 8.9171 36.6617C8.85258 36.7071 8.79997 36.7673 8.76353 36.8371C8.72719 36.9069 8.70814 36.9844 8.70797 37.063C8.70632 37.1254 8.71858 37.1874 8.74371 37.2446C8.76884 37.3018 8.80632 37.3527 8.85345 37.394C8.9491 37.4801 9.19875 37.5689 9.60223 37.6602C10.0058 37.7516 10.2825 37.8309 10.4322 37.8981C10.6257 37.9781 10.7932 38.11 10.9161 38.2787C11.0209 38.4359 11.0753 38.6209 11.072 38.8094C11.0717 39.0093 11.0121 39.2047 10.9005 39.3711C10.7797 39.5521 10.6087 39.6945 10.4082 39.7808C10.1795 39.8806 9.93179 39.9296 9.68214 39.9243C9.39127 39.933 9.10171 39.8831 8.83066 39.7776C8.61032 39.6862 8.42239 39.5313 8.29099 39.3329C8.15974 39.133 8.08813 38.9002 8.08447 38.6614Z" fill="#303E49"/>
<path d="M14.2569 39.862V36.569H13.0229V36.1289H15.9968V36.569H14.7537V39.862H14.2569Z" fill="#303E49"/>
<path d="M18.0708 39.8611V36.1279H19.7341C20.0688 36.1279 20.323 36.1613 20.4965 36.2281C20.6719 36.2963 20.8189 36.4216 20.9135 36.5836C21.0173 36.7531 21.0713 36.948 21.0694 37.1465C21.0725 37.2697 21.0511 37.3922 21.0065 37.5071C20.9619 37.6219 20.895 37.727 20.8096 37.8161C20.6365 37.9979 20.3704 38.1134 20.0114 38.1625C20.1192 38.2105 20.2199 38.273 20.3108 38.348C20.4686 38.4958 20.607 38.6627 20.7225 38.8451L21.3753 39.8611H20.7511L20.2543 39.0855C20.1092 38.861 19.99 38.6886 19.8965 38.5685C19.8263 38.4725 19.7412 38.3884 19.6445 38.319C19.5751 38.2733 19.4985 38.2398 19.4178 38.2194C19.3265 38.2052 19.2341 38.1994 19.1418 38.202H18.5671V39.8598L18.0708 39.8611ZM18.5671 37.7741H19.6341C19.8144 37.7809 19.9945 37.7571 20.1666 37.7037C20.2862 37.6636 20.3888 37.5849 20.4583 37.48C20.5235 37.3804 20.558 37.2641 20.5576 37.1452C20.5596 37.0628 20.5431 36.981 20.5095 36.9056C20.4758 36.8303 20.4257 36.7633 20.3628 36.7096C20.2329 36.5958 20.0294 36.539 19.7523 36.539H18.5671V37.7741Z" fill="#303E49"/>
<path d="M23.2539 38.0427C23.2539 37.4234 23.4211 36.9385 23.7553 36.5877C24.0896 36.237 24.5212 36.0616 25.0504 36.0616C25.3776 36.0582 25.6996 36.1435 25.9817 36.3086C26.2582 36.4708 26.4801 36.711 26.6195 36.9988C26.7692 37.3114 26.844 37.6543 26.8383 38.0007C26.8441 38.353 26.7651 38.7016 26.6078 39.0173C26.4654 39.3047 26.2375 39.5414 25.9551 39.6953C25.6768 39.8483 25.3638 39.9277 25.0459 39.9261C24.712 39.9313 24.3836 39.8426 24.0983 39.6701C23.8241 39.5044 23.6046 39.2627 23.4664 38.9747C23.3246 38.6843 23.2519 38.3654 23.2539 38.0427ZM23.7658 38.0504C23.7658 38.5002 23.8872 38.8547 24.1301 39.1136C24.2491 39.2368 24.3919 39.3347 24.5499 39.4014C24.7079 39.4682 24.8779 39.5025 25.0496 39.5021C25.2212 39.5018 25.3911 39.4668 25.5488 39.3994C25.7066 39.332 25.849 39.2334 25.9674 39.1097C26.209 38.8486 26.3298 38.4778 26.3298 37.9974C26.3359 37.724 26.2829 37.4524 26.1746 37.2011C26.0793 36.9843 25.921 36.8008 25.7199 36.6743C25.5198 36.549 25.2875 36.484 25.051 36.4869C24.883 36.4841 24.7161 36.5146 24.56 36.5765C24.4039 36.6384 24.2618 36.7306 24.1418 36.8475C23.8889 37.0875 23.7625 37.4885 23.7625 38.0504H23.7658Z" fill="#303E49"/>
<path d="M29.0283 39.862V36.1289H29.5375L31.508 39.0599V36.1289H31.984V39.862H31.4748L29.5044 36.9284V39.862H29.0283Z" fill="#303E49"/>
<path d="M36.1333 38.3975V37.9593H37.7225V39.3444C37.4951 39.5272 37.2405 39.6738 36.9678 39.7787C36.713 39.8756 36.4425 39.9253 36.1697 39.9254C35.8205 39.9301 35.4754 39.8493 35.165 39.6902C34.8714 39.54 34.6328 39.3017 34.4831 39.009C34.3271 38.7002 34.2482 38.3585 34.2531 38.013C34.2505 37.661 34.3286 37.313 34.4818 36.9957C34.6194 36.6966 34.8513 36.4505 35.1423 36.2944C35.4477 36.1367 35.788 36.0578 36.132 36.0649C36.3833 36.0608 36.6332 36.1046 36.8678 36.1942C37.069 36.2687 37.2469 36.3946 37.3835 36.5593C37.5204 36.741 37.6171 36.9493 37.6673 37.1708L37.2205 37.2949C37.1783 37.1342 37.1072 36.9825 37.0107 36.847C36.9158 36.7312 36.7923 36.6421 36.6522 36.5885C36.4875 36.521 36.3107 36.4876 36.1326 36.4902C35.9316 36.4855 35.7316 36.5206 35.5443 36.5936C35.3923 36.653 35.2556 36.7456 35.1442 36.8645C35.0446 36.9733 34.9645 37.0984 34.9072 37.2341C34.8103 37.4726 34.7617 37.7279 34.7643 37.9851C34.7545 38.2731 34.8135 38.5593 34.9364 38.8202C35.0443 39.0371 35.2212 39.2126 35.4397 39.3191C35.6572 39.4278 35.8972 39.4838 36.1405 39.4827C36.3564 39.4825 36.5701 39.4404 36.7698 39.3586C36.9388 39.2972 37.0964 39.2084 37.2361 39.0956V38.3975H36.1333Z" fill="#303E49"/>
<path d="M40.0137 39.8611V36.1279H42.7258V36.568H40.5098V37.7095H42.5881V38.1477H40.5098V39.4184H42.8129V39.8591L40.0137 39.8611Z" fill="#303E49"/>
<path d="M45.0679 39.8611V36.1279H46.7312C47.0654 36.1279 47.3195 36.1613 47.4936 36.2281C47.6691 36.2965 47.8162 36.4217 47.9113 36.5836C48.015 36.7531 48.069 36.948 48.0671 37.1465C48.0728 37.3951 47.9794 37.6358 47.8074 37.8161C47.6341 37.9979 47.368 38.1134 47.0091 38.1625C47.1169 38.2105 47.2177 38.273 47.3085 38.348C47.4661 38.4959 47.6045 38.6629 47.7203 38.8451L48.3697 39.8611H47.745L47.2487 39.0855C47.1037 38.861 46.9842 38.6886 46.8903 38.5685C46.8204 38.4723 46.7354 38.388 46.6383 38.319C46.5691 38.2734 46.4927 38.2398 46.4123 38.2194C46.3207 38.2053 46.2281 38.1994 46.1356 38.202H45.5602V39.8598L45.0679 39.8611ZM45.5647 37.7741H46.6318C46.8118 37.7809 46.9917 37.7571 47.1637 37.7037C47.2834 37.6638 47.386 37.585 47.4553 37.48C47.521 37.3806 47.5558 37.2642 47.5554 37.1452C47.5574 37.0628 47.5411 36.9809 47.5073 36.9055C47.4736 36.8302 47.4234 36.7632 47.3605 36.7096C47.2306 36.5958 47.0274 36.539 46.7507 36.539H45.5647V37.7741Z" fill="#303E49"/>
<path d="M54.3739 39.8615V38.2799L52.9282 36.1283H53.5315L54.2713 37.2535C54.4077 37.4642 54.5347 37.6747 54.6525 37.885C54.7655 37.6897 54.9021 37.47 55.0623 37.2257L55.7884 36.127H56.3671L54.8734 38.2786V39.8602L54.3739 39.8615Z" fill="#303E49"/>
<path d="M58.2202 38.0426C58.2202 37.4235 58.3876 36.9386 58.7223 36.5878C59.057 36.2371 59.488 36.0617 60.0153 36.0617C60.3443 36.0573 60.6682 36.1427 60.9519 36.3085C61.2283 36.4707 61.45 36.711 61.589 36.9988C61.7389 37.3114 61.8139 37.6544 61.8079 38.0006C61.814 38.3531 61.7349 38.7018 61.5773 39.0173C61.4357 39.3042 61.209 39.5408 60.9279 39.6953C60.6495 39.8481 60.3365 39.9276 60.0186 39.926C59.6852 39.9315 59.357 39.8432 59.0717 39.6714C58.7975 39.5057 58.5779 39.264 58.4398 38.9759C58.2957 38.6858 58.2206 38.3664 58.2202 38.0426ZM58.732 38.0505C58.732 38.5003 58.8537 38.8546 59.097 39.1136C59.216 39.2368 59.3588 39.3347 59.5168 39.4015C59.6748 39.4683 59.8448 39.5026 60.0165 39.5022C60.1882 39.5018 60.358 39.4668 60.5158 39.3994C60.6735 39.3319 60.8159 39.2334 60.9343 39.1098C61.1755 38.8486 61.296 38.4779 61.296 37.9974C61.3023 37.724 61.2496 37.4525 61.1415 37.2012C61.0461 36.9844 60.8879 36.8009 60.6869 36.6744C60.4867 36.5491 60.2544 36.484 60.018 36.487C59.85 36.4842 59.6831 36.5146 59.527 36.5765C59.3709 36.6385 59.2287 36.7305 59.1087 36.8476C58.8576 37.0876 58.732 37.4885 58.732 38.0505Z" fill="#303E49"/>
<path d="M66.462 36.1279H66.9607V38.2847C66.9607 38.6596 66.9174 38.9575 66.8308 39.1785C66.7414 39.4042 66.5789 39.5937 66.3691 39.717C66.1465 39.8553 65.8542 39.9244 65.4923 39.9244C65.1407 39.9244 64.8534 39.8641 64.6305 39.7435C64.4141 39.6306 64.2446 39.4455 64.1518 39.2206C64.0561 38.9918 64.0083 38.6798 64.0083 38.2847V36.1279H64.5051V38.2821C64.5051 38.6065 64.5352 38.8455 64.5953 38.9989C64.6543 39.1503 64.7649 39.2761 64.9078 39.3544C65.0742 39.4418 65.2607 39.4849 65.4487 39.4791C65.8138 39.4791 66.0735 39.3966 66.2281 39.2316C66.3827 39.0665 66.4604 38.7501 66.4613 38.2821L66.462 36.1279Z" fill="#303E49"/>
</g>
</g>
<defs>
<clipPath id="clip0_298_13267">
<rect width="66.9565" height="40" fill="white"/>
</clipPath>
</defs>
</svg>
