<svg width="146" height="40" viewBox="0 0 146 40" fill="none" xmlns="http://www.w3.org/2000/svg">
<g clip-path="url(#clip0_298_12587)">
<path d="M108.791 28.6543C109.187 28.655 109.576 28.7571 109.921 28.9508C110.266 29.1445 110.556 29.4234 110.763 29.7608C110.969 30.0983 111.086 30.4831 111.102 30.8785C111.118 31.274 111.032 31.6669 110.853 32.0199C109.718 34.3368 107.957 36.2888 105.768 37.6544C103.579 39.0197 101.051 39.7436 98.4713 39.7436C95.8915 39.7436 93.3634 39.0197 91.1743 37.6544C88.9857 36.2888 87.2239 34.3368 86.0894 32.0199C85.9103 31.6669 85.8246 31.274 85.8402 30.8785C85.8561 30.4831 85.9729 30.0983 86.18 29.7608C86.3867 29.4234 86.6763 29.1445 87.0214 28.9508C87.3666 28.7571 87.7556 28.655 88.1513 28.6543C88.5832 28.6551 89.0062 28.7764 89.3726 29.0047C89.7389 29.2329 90.0342 29.559 90.2253 29.9461C90.9754 31.4961 92.1471 32.8034 93.6058 33.7181C95.065 34.6328 96.752 35.118 98.4742 35.118C100.196 35.118 101.883 34.6328 103.342 33.7181C104.801 32.8034 105.973 31.4961 106.723 29.9461C106.913 29.5599 107.208 29.2344 107.573 29.0062C107.939 28.778 108.36 28.6561 108.791 28.6543Z" fill="black"/>
<path d="M24.9876 27.0325H13.7729C6.49727 27.0325 0.293292 21.3846 0.00944918 14.109C-0.0583345 12.3019 0.239118 10.4998 0.884007 8.81032C1.5289 7.12087 2.50797 5.57888 3.76266 4.27662C5.01731 2.97437 6.52181 1.93859 8.18605 1.23128C9.85034 0.523975 11.6402 0.159665 13.4485 0.160157H24.9876C25.6021 0.160157 26.1915 0.404279 26.626 0.838813C27.0606 1.27335 27.3047 1.86271 27.3047 2.47724C27.3047 3.09177 27.0606 3.68111 26.626 4.11566C26.1915 4.55021 25.6021 4.79432 24.9876 4.79432H13.7034C8.96496 4.78851 4.88113 8.42055 4.64361 13.1532C4.58237 14.347 4.7645 15.5408 5.17897 16.662C5.59342 17.7832 6.23158 18.8084 7.05458 19.6753C7.87759 20.5422 8.86832 21.2327 9.96648 21.7048C11.0647 22.1769 12.2474 22.4208 13.4427 22.4215H24.9876C25.6021 22.4215 26.1915 22.6656 26.626 23.1002C27.0606 23.5347 27.3047 24.1241 27.3047 24.7386C27.3047 25.3531 27.0606 25.9425 26.626 26.377C26.1915 26.8116 25.6021 27.0557 24.9876 27.0557" fill="black"/>
<path d="M109.949 0.125C109.335 0.125 108.745 0.369121 108.311 0.803659C107.876 1.23819 107.632 1.82755 107.632 2.44208V5.66283V13.2397C107.628 15.6682 106.661 17.9959 104.943 19.7125C103.225 21.4292 100.897 22.3949 98.4679 22.3979C96.1578 22.393 93.9341 21.5173 92.241 19.9454C90.5476 18.3735 89.5093 16.2211 89.3331 13.9175C89.3214 13.6917 89.3214 13.4655 89.3331 13.2397V12.0811V5.70917V2.44208C89.3331 1.82755 89.0888 1.23819 88.6541 0.803659C88.2198 0.369121 87.6304 0.125 87.0159 0.125C86.4014 0.125 85.812 0.369121 85.3773 0.803659C84.943 1.23819 84.6987 1.82755 84.6987 2.44208V5.67441V13.2513C84.6987 13.5351 84.6987 13.8305 84.6987 14.097C84.8357 16.3438 85.5214 18.5228 86.6948 20.4435C87.8686 22.3643 89.4952 23.9683 91.4318 25.1153C93.3688 26.2623 95.5571 26.9174 97.8056 27.0233C100.054 27.1292 102.294 26.6828 104.33 25.723C105.537 25.1523 106.654 24.411 107.65 23.5217C109.104 22.2348 110.269 20.654 111.068 18.8836C111.867 17.1132 112.281 15.1935 112.284 13.2513V12.0927V5.72074V2.44208C112.284 1.82755 112.04 1.23819 111.605 0.803659C111.171 0.369121 110.581 0.125 109.967 0.125" fill="black"/>
<path d="M144.52 3.39203L135.084 24.715C134.776 25.4093 134.274 25.9995 133.637 26.4137C133.001 26.828 132.258 27.0485 131.498 27.0485C130.739 27.0485 129.996 26.828 129.359 26.4137C128.723 25.9995 128.22 25.4093 127.913 24.715L118.476 3.39203C118.329 3.1111 118.241 2.80295 118.218 2.48668C118.195 2.1704 118.237 1.85273 118.341 1.55332C118.446 1.25392 118.611 0.979158 118.826 0.746057C119.041 0.512956 119.301 0.326471 119.591 0.198153C119.881 0.0698347 120.194 0.00241342 120.512 6.36148e-05C120.829 -0.00228619 121.143 0.0604853 121.435 0.184492C121.727 0.308498 121.99 0.491101 122.209 0.720991C122.427 0.950881 122.596 1.22316 122.705 1.52099L131.099 20.4805C131.132 20.5589 131.188 20.6257 131.259 20.6727C131.33 20.7196 131.413 20.7447 131.498 20.7447C131.583 20.7447 131.667 20.7196 131.738 20.6727C131.809 20.6257 131.865 20.5589 131.898 20.4805L140.291 1.52099C140.4 1.22316 140.569 0.950881 140.788 0.720991C141.007 0.491101 141.27 0.308498 141.562 0.184492C141.854 0.0604853 142.168 -0.00228619 142.485 6.36148e-05C142.802 0.00241342 143.115 0.0698347 143.405 0.198153C143.695 0.326471 143.956 0.512956 144.171 0.746057C144.386 0.979158 144.551 1.25392 144.655 1.55332C144.76 1.85273 144.802 2.1704 144.779 2.48668C144.755 2.80295 144.667 3.1111 144.52 3.39203Z" fill="black"/>
<path d="M80.5975 13.5988C80.5975 10.0253 79.178 6.59823 76.6513 4.0714C74.1242 1.54456 70.6973 0.125 67.1239 0.125H65.8552C58.5621 0.125 52.3408 5.78446 52.0626 13.0717C51.9932 14.8828 52.2899 16.6893 52.9348 18.3832C53.5798 20.077 54.5596 21.6234 55.8159 22.9299C57.0718 24.2364 58.5787 25.2762 60.246 25.987C61.9132 26.6978 63.7069 27.0651 65.5192 27.0669H74.4109C75.0254 27.0669 75.6148 26.8228 76.0495 26.3882C76.4839 25.9537 76.7281 25.3643 76.7281 24.7498C76.7281 24.1353 76.4839 23.5459 76.0495 23.1114C75.6148 22.6768 75.0254 22.4327 74.4109 22.4327H65.5192C63.5784 22.4322 61.6916 21.7933 60.1497 20.6147C58.6077 19.436 57.4962 17.7829 56.9865 15.9101H78.2807C78.8952 15.9101 79.4846 15.666 79.9189 15.2315C80.3536 14.7969 80.5975 14.2076 80.5975 13.593M56.9865 11.276C57.4973 9.40432 58.6092 7.75249 60.1511 6.5749C61.6927 5.39734 63.5791 4.75933 65.5192 4.75915H67.1295C69.0701 4.76163 70.9557 5.4012 72.4973 6.57957C74.0389 7.75798 75.1508 9.41002 75.6623 11.2818L56.9865 11.276Z" fill="black"/>
<path d="M34.5456 27.0493C33.9311 27.0493 33.3417 26.8052 32.9072 26.3707C32.4727 25.9361 32.2285 25.3468 32.2285 24.7322V14.0273C32.2285 10.4938 33.6322 7.10496 36.1306 4.60637C38.6294 2.10779 42.0181 0.704102 45.5519 0.704102H48.9462C49.5607 0.704102 50.1501 0.948222 50.5848 1.38276C51.0191 1.8173 51.2634 2.40666 51.2634 3.02118C51.2634 3.63572 51.0191 4.22506 50.5848 4.65961C50.1501 5.09416 49.5607 5.33827 48.9462 5.33827H45.5402C43.2358 5.33827 41.0255 6.2537 39.3961 7.88322C37.7664 9.51275 36.851 11.7228 36.851 14.0273V24.7322C36.851 25.3468 36.6071 25.9361 36.1724 26.3707C35.7381 26.8052 35.1486 27.0493 34.534 27.0493" fill="black"/>
</g>
<defs>
<clipPath id="clip0_298_12587">
<rect width="145.133" height="40" fill="white"/>
</clipPath>
</defs>
</svg>
