<svg width="133" height="40" viewBox="0 0 133 40" fill="none" xmlns="http://www.w3.org/2000/svg">
<g clip-path="url(#clip0_298_12679)">
<path d="M16.0744 7.12424H17.1523C17.3887 7.12424 17.5799 7.31515 17.5799 7.55116V8.33211C17.5799 8.56814 17.3887 8.75903 17.1523 8.75903H16.0744C15.838 8.75903 15.6468 8.94993 15.6468 9.18596V10.5442C15.6468 10.7803 15.4556 10.9712 15.2191 10.9712H14.2886C14.0522 10.9712 13.8608 10.7803 13.8608 10.5442V9.18711C13.8608 8.95109 13.6696 8.7602 13.4332 8.7602H12.3495C12.1131 8.7602 11.9219 8.56929 11.9219 8.33327V7.55232C11.9219 7.3163 12.1131 7.1254 12.3495 7.1254H13.4332C13.6696 7.1254 13.8608 6.93449 13.8608 6.69848V5.40152C13.8608 5.16551 14.0522 4.97461 14.2886 4.97461H15.2191C15.4556 4.97461 15.6468 5.16551 15.6468 5.40152V6.69848C15.6468 6.93334 15.838 7.12424 16.0744 7.12424Z" fill="#00C872"/>
<path d="M19.6741 5.31005C20.2757 5.60717 21.0039 5.35957 21.3005 4.75699C21.5971 4.15441 21.3499 3.42505 20.7483 3.1279L19.6741 5.31005ZM4.70163 13.5307L3.26481 7.69084L0.906266 8.27299L2.34309 14.1129L4.70163 13.5307ZM3.10373 8.02097L14.8032 2.78898L13.8129 0.567352L2.11339 5.79934L3.10373 8.02097ZM14.5601 2.78434L19.6741 5.31005L20.7483 3.1279L15.6344 0.602192L14.5601 2.78434ZM14.8032 2.78898C14.7256 2.82372 14.6363 2.82202 14.5601 2.78434L15.6344 0.602192C15.0626 0.319795 14.395 0.307026 13.8129 0.567352L14.8032 2.78898ZM3.26481 7.69084C3.29793 7.82544 3.23009 7.96445 3.10373 8.02097L2.11339 5.79934C1.16651 6.22278 0.658146 7.26452 0.906266 8.27299L3.26481 7.69084Z" fill="#00C872"/>
<path d="M23.1072 5.03125L26.9316 7.11379L25.6568 13.9399" stroke="#00C872" stroke-width="1.23823" stroke-linecap="round" stroke-linejoin="round"/>
<path d="M9.52454 26.047H10.4728L10.7888 25.4195L11.3156 26.8839L12.896 23.3271L13.4227 28.7669H14.055L14.7924 26.2563H15.5299L15.8462 25.3148L16.0568 25.7333L16.4783 24.6871L17.321 26.047H19.955" stroke="#00C872" stroke-width="0.355472" stroke-linecap="round" stroke-linejoin="round"/>
<path d="M2.07041 19.2002C-0.806708 19.2002 0.873874 35.8605 2.55426 33.4308" stroke="#00C872" stroke-width="0.651698"/>
<path d="M27.0933 14.8106C26.8802 14.2077 26.843 13.4743 26.9532 12.8415C27.2395 11.1928 27.637 9.56146 28.0194 7.9313C28.2662 6.87845 27.9962 6.14495 26.9415 5.70645C25.5183 5.11524 24.9308 4.77047 24.6295 4.59808L24.6249 4.59577C24.5067 4.54717 24.3873 4.5009 24.2679 4.45925C23.8124 4.30074 23.2364 4.48932 22.7149 4.52172C22.7625 4.71956 22.8076 4.9174 22.854 5.11524V5.11641C22.9444 5.4982 23.0348 5.88115 23.1379 6.25949C23.2005 6.3208 23.2654 6.36245 23.3175 6.39023C23.3465 6.4041 23.3743 6.418 23.3998 6.43304C23.4079 6.43765 23.4148 6.44113 23.4207 6.44459C24.1891 6.92705 25.5797 7.37596 25.6065 7.89659C25.6841 9.35089 25.2819 10.8607 24.8706 12.2907C24.7721 12.6355 23.8831 12.9873 23.3917 12.9443C21.0263 12.7419 18.6691 12.1426 16.3164 12.1797C12.9739 12.2329 9.62808 12.6367 6.30421 13.0567C4.82772 13.2429 4.03036 13.0081 3.79046 11.4022C3.60387 10.155 3.1426 8.94827 2.77755 7.63049C6.45952 6.09867 10.1681 4.51826 13.9173 3.03964C13.9358 3.03271 13.9532 3.02577 13.9718 3.01999C14.9871 2.64859 15.6859 3.2317 15.7183 3.25947L15.7195 3.26064C16.8447 3.54293 17.7117 4.04737 18.4106 4.49743C19.3574 5.10715 19.9995 5.61737 20.5638 5.34896C20.7482 5.26101 20.9915 5.05856 21.1515 4.51826C20.8699 3.97216 20.7285 3.1646 20.2822 2.92973C18.6991 2.09441 17.0302 1.40948 15.3545 0.769685C14.8595 0.5811 14.1596 0.551019 13.681 0.752331C9.94331 2.32002 6.24048 3.97216 2.51794 5.57572C1.02637 6.21898 0.639285 7.31116 1.04955 8.80481C1.21761 9.41684 1.3196 10.0474 1.45982 10.6675C1.96513 12.9236 2.7648 15.0628 1.28251 17.4185C0.480511 18.6945 0.568591 20.5283 0.254517 22.1099V28.7266C0.63581 30.6391 0.967268 32.5642 1.40998 34.4628C2.12158 37.5091 4.56001 39.4956 7.63121 39.3996C9.82162 39.3314 11.9993 38.9368 14.1908 38.8362C15.2675 38.7875 16.3569 39.1265 17.4463 39.2005C19.121 39.314 20.8026 39.4331 22.4785 39.3996C25.3539 39.3428 26.7492 37.2973 27.3843 34.9569C29.2074 28.2465 29.4612 21.4991 27.0933 14.8106ZM6.26133 15.0987C8.90257 14.7967 11.5299 14.2147 14.1734 14.1419C16.387 14.0818 18.618 14.6092 20.841 14.8637C21.4389 14.9333 22.0381 15.0085 22.6325 15.1045C25.2703 15.5301 25.3086 15.5314 24.9934 18.4445H3.83334C3.52507 15.7651 3.85652 15.3729 6.26133 15.0987ZM20.929 21.0097C22.2397 21.0235 22.854 21.5337 22.7787 23.032C22.6362 25.8735 22.2884 28.5588 19.9938 30.5859C17.1959 33.0571 13.1594 33.3649 10.0128 31.324C6.88948 29.2981 5.31912 25.3113 6.49428 21.9792C6.66349 21.5002 7.62541 21.0571 8.24313 21.0223C10.3802 20.9067 12.529 20.9784 14.6718 20.9784V21.0039C16.7579 21.0039 18.8441 20.9865 20.929 21.0097ZM26.3274 22.1515C26.0817 26.1223 26.0133 30.1253 25.4188 34.0475C24.9923 36.8658 23.3153 37.8805 20.4921 37.4396C16.437 36.8068 12.4339 36.8289 8.37873 37.4073C5.25885 37.8515 3.39989 36.3637 3.0302 32.8963C2.66281 29.4543 2.74277 25.9649 2.63731 22.4963C2.63035 22.2695 2.64542 21.9873 2.77059 21.8242C3.01513 21.5049 3.34658 21.2527 3.64096 20.9725C3.809 21.3371 4.09064 21.6922 4.12308 22.0683C4.28533 23.9517 4.086 25.9187 4.56116 27.7107C5.55785 31.4674 8.21995 33.9109 11.9298 34.8401C16.1322 35.8916 19.8638 34.8468 22.6279 31.2777C24.5125 28.8458 25.3364 26.0679 25.2773 23.0089C25.2634 22.2915 25.275 21.5731 25.275 20.8545C25.4953 20.8291 25.7155 20.8025 25.9345 20.777C26.0735 21.2353 26.3551 21.7026 26.3274 22.1515Z" fill="#00C872"/>
<path d="M44.9882 32.1511C43.4465 32.1511 42.0093 31.9037 40.677 31.4088C39.3637 30.8949 38.2217 30.1716 37.2509 29.239C36.2802 28.3063 35.5189 27.2119 34.9669 25.9557C34.4339 24.6994 34.1675 23.3194 34.1675 21.8158C34.1675 20.3121 34.4339 18.9322 34.9669 17.676C35.5189 16.4198 36.2802 15.3253 37.2509 14.3926C38.2407 13.46 39.3922 12.7462 40.7055 12.2513C42.0189 11.7374 43.4559 11.4805 45.0167 11.4805C46.7487 11.4805 48.3095 11.785 49.699 12.3941C51.1075 12.9841 52.2876 13.8597 53.2393 15.0207L50.27 17.7616C49.5847 16.9813 48.8235 16.4007 47.986 16.02C47.1485 15.6204 46.2348 15.4205 45.2451 15.4205C44.3124 15.4205 43.4559 15.5727 42.6756 15.8773C41.8951 16.1818 41.2195 16.6196 40.6484 17.1906C40.0774 17.7616 39.6301 18.4373 39.3066 19.2177C39.002 19.9981 38.8498 20.8641 38.8498 21.8158C38.8498 22.7674 39.002 23.6335 39.3066 24.414C39.6301 25.1943 40.0774 25.87 40.6484 26.441C41.2195 27.012 41.8951 27.4497 42.6756 27.7543C43.4559 28.0589 44.3124 28.2111 45.2451 28.2111C46.2348 28.2111 47.1485 28.0208 47.986 27.6401C48.8235 27.2404 49.5847 26.6408 50.27 25.8414L53.2393 28.5823C52.2876 29.7433 51.1075 30.6284 49.699 31.2375C48.3095 31.8465 46.7393 32.1511 44.9882 32.1511Z" fill="#00C872"/>
<path d="M56.0486 31.8085V10.624H60.5024V31.8085H56.0486Z" fill="#00C872"/>
<path d="M74.0578 31.8083V28.8105L73.7723 28.1539V22.7864C73.7723 21.8347 73.4772 21.0923 72.8872 20.5594C72.3162 20.0265 71.4311 19.76 70.2319 19.76C69.4135 19.76 68.6046 19.8932 67.8052 20.1597C67.0248 20.4072 66.3587 20.7498 65.8067 21.1875L64.2078 18.0755C65.0453 17.4854 66.0541 17.0286 67.2342 16.7051C68.4142 16.3814 69.6134 16.2197 70.8316 16.2197C73.1727 16.2197 74.9904 16.7717 76.2847 17.8756C77.579 18.9796 78.2261 20.7021 78.2261 23.0433V31.8083H74.0578ZM69.3755 32.0368C68.1764 32.0368 67.1485 31.8369 66.292 31.4372C65.4355 31.0185 64.7788 30.457 64.322 29.7526C63.8652 29.0484 63.6368 28.2586 63.6368 27.383C63.6368 26.4693 63.8557 25.6699 64.2934 24.9848C64.7502 24.2995 65.464 23.7666 66.4348 23.3859C67.4055 22.9862 68.6712 22.7864 70.2319 22.7864H74.3147V25.3844H70.7173C69.6704 25.3844 68.9472 25.5557 68.5475 25.8984C68.1668 26.241 67.9765 26.6692 67.9765 27.1832C67.9765 27.7541 68.1954 28.2109 68.6332 28.5536C69.09 28.8771 69.7085 29.0389 70.489 29.0389C71.2312 29.0389 71.8974 28.8676 72.4875 28.525C73.0775 28.1634 73.5058 27.64 73.7723 26.9547L74.4574 29.0104C74.1339 30.0001 73.5438 30.752 72.6874 31.2659C71.8308 31.7797 70.7269 32.0368 69.3755 32.0368Z" fill="#00C872"/>
<path d="M82.7995 31.8081V16.1054C82.7995 14.3733 83.3135 12.9933 84.3412 11.9655C85.3691 10.9187 86.8347 10.3952 88.738 10.3952C89.3852 10.3952 90.0038 10.4618 90.5938 10.5951C91.203 10.7283 91.7169 10.9377 92.1355 11.2232L90.965 14.4494C90.7176 14.2781 90.4416 14.1448 90.137 14.0497C89.8326 13.9545 89.5089 13.907 89.1663 13.907C88.5192 13.907 88.0147 14.0973 87.6531 14.478C87.3105 14.8396 87.1392 15.3916 87.1392 16.1339V17.5614L87.2535 19.4743V31.8081H82.7995ZM80.4298 20.2166V16.7905H91.0792V20.2166H80.4298ZM93.5916 31.8081V16.4479H98.0456V31.8081H93.5916ZM95.8186 14.3067C95.0001 14.3067 94.3339 14.0687 93.8201 13.5929C93.3062 13.1171 93.0492 12.527 93.0492 11.8228C93.0492 11.1185 93.3062 10.5285 93.8201 10.0526C94.3339 9.57679 95.0001 9.33887 95.8186 9.33887C96.637 9.33887 97.3032 9.56727 97.8171 10.0241C98.3311 10.4618 98.588 11.0329 98.588 11.7371C98.588 12.4795 98.3311 13.098 97.8171 13.5929C97.3223 14.0687 96.6561 14.3067 95.8186 14.3067Z" fill="#00C872"/>
<path d="M104.106 37.5757C103.307 37.5757 102.517 37.452 101.736 37.2046C100.956 36.9572 100.318 36.6145 99.8234 36.1767L101.451 33.0077C101.793 33.3121 102.183 33.5501 102.621 33.7214C103.078 33.8927 103.525 33.9783 103.963 33.9783C104.591 33.9783 105.086 33.8261 105.448 33.5215C105.829 33.236 106.171 32.7506 106.476 32.0655L107.275 30.1812L107.618 29.6958L113.128 16.4482H117.41L110.473 32.7506C109.978 33.9879 109.407 34.9585 108.76 35.6629C108.132 36.3671 107.427 36.862 106.647 37.1474C105.886 37.4329 105.039 37.5757 104.106 37.5757ZM106.733 32.408L99.8804 16.4482H104.477L109.787 29.296L106.733 32.408Z" fill="#00C872"/>
<path d="M128.147 31.8083V28.8105L127.862 28.1539V22.7864C127.862 21.8347 127.567 21.0923 126.977 20.5594C126.406 20.0265 125.521 19.76 124.322 19.76C123.504 19.76 122.695 19.8932 121.895 20.1597C121.114 20.4072 120.448 20.7498 119.897 21.1875L118.298 18.0755C119.135 17.4854 120.144 17.0286 121.325 16.7051C122.504 16.3814 123.703 16.2197 124.921 16.2197C127.263 16.2197 129.08 16.7717 130.375 17.8756C131.669 18.9796 132.317 20.7021 132.317 23.0433V31.8083H128.147ZM123.465 32.0368C122.266 32.0368 121.239 31.8369 120.382 31.4372C119.526 31.0185 118.869 30.457 118.411 29.7526C117.955 29.0484 117.727 28.2586 117.727 27.383C117.727 26.4693 117.945 25.6699 118.383 24.9848C118.84 24.2995 119.554 23.7666 120.525 23.3859C121.495 22.9862 122.761 22.7864 124.322 22.7864H128.405V25.3844H124.807C123.76 25.3844 123.038 25.5557 122.638 25.8984C122.257 26.241 122.066 26.6692 122.066 27.1832C122.066 27.7541 122.286 28.2109 122.723 28.5536C123.179 28.8771 123.799 29.0389 124.579 29.0389C125.321 29.0389 125.987 28.8676 126.577 28.525C127.168 28.1634 127.595 27.64 127.862 26.9547L128.547 29.0104C128.224 30.0001 127.634 30.752 126.777 31.2659C125.921 31.7797 124.817 32.0368 123.465 32.0368Z" fill="#00C872"/>
</g>
<defs>
<clipPath id="clip0_298_12679">
<rect width="132.571" height="40" fill="white"/>
</clipPath>
</defs>
</svg>
