<svg width="69" height="40" viewBox="0 0 69 40" fill="none" xmlns="http://www.w3.org/2000/svg">
<g clip-path="url(#clip0_298_12935)">
<path d="M54.801 0L47.7249 1.50369V30.0737H54.801V0Z" fill="#56BD82"/>
<mask id="mask0_298_12935" style="mask-type:luminance" maskUnits="userSpaceOnUse" x="0" y="0" width="69" height="40">
<path d="M68.1769 0H0V40H68.1769V0Z" fill="white"/>
</mask>
<g mask="url(#mask0_298_12935)">
<path d="M34.6535 8.54102C32.494 8.54102 30.3829 9.1814 28.5873 10.3812C26.7917 11.581 25.3922 13.2863 24.5658 15.2814C23.7394 17.2766 23.5231 19.472 23.9444 21.5901C24.3657 23.7082 25.4057 25.6537 26.9327 27.1808C28.4597 28.7078 30.4053 29.7477 32.5234 30.1691C34.6414 30.5904 36.8369 30.3741 38.832 29.5477C40.8272 28.7213 42.5325 27.3218 43.7323 25.5262C44.9321 23.7306 45.5725 21.6195 45.5725 19.4599C45.5722 16.5641 44.4217 13.787 42.3741 11.7394C40.3265 9.69174 37.5493 8.54128 34.6535 8.54102ZM34.6535 22.998C33.9538 22.998 33.2697 22.7905 32.6879 22.4017C32.1061 22.013 31.6526 21.4604 31.3848 20.8139C31.117 20.1674 31.0469 19.456 31.1834 18.7697C31.32 18.0834 31.6569 17.4529 32.1517 16.9581C32.6466 16.4633 33.277 16.1264 33.9633 15.9898C34.6496 15.8533 35.361 15.9234 36.0075 16.1912C36.654 16.459 37.2066 16.9124 37.5954 17.4943C37.9841 18.0761 38.1916 18.7602 38.1916 19.4599C38.1916 20.3983 37.8189 21.2982 37.1553 21.9617C36.4918 22.6253 35.5919 22.998 34.6535 22.998Z" fill="#56BD82"/>
<path d="M34.6536 32.9238C35.3533 32.9238 36.0374 33.1313 36.6192 33.5201C37.201 33.9089 37.6545 34.4614 37.9223 35.1079C38.1901 35.7544 38.2602 36.4658 38.1237 37.1522C37.9871 37.8385 37.6502 38.4689 37.1554 38.9637C36.6606 39.4585 36.0301 39.7955 35.3438 39.932C34.6575 40.0685 33.9461 39.9985 33.2996 39.7307C32.6531 39.4629 32.1005 39.0094 31.7118 38.4276C31.323 37.8457 31.1155 37.1617 31.1155 36.4619C31.1155 35.5236 31.4882 34.6236 32.1518 33.9601C32.8153 33.2966 33.7152 32.9238 34.6536 32.9238Z" fill="#56BD82"/>
<path d="M18.9091 14.172C19.7781 12.7648 20.2558 11.1511 20.2926 9.4976C20.3295 7.8441 19.9243 6.21073 19.1189 4.76617C18.3135 3.32162 17.137 2.11827 15.7111 1.2804C14.2851 0.442522 12.6613 0.000506032 11.0074 0L0 0V30.0737H12.3833C14.2255 30.073 16.0259 29.5246 17.5558 28.4983C19.0857 27.4721 20.276 26.0141 20.9754 24.3099C21.6748 22.6056 21.8518 20.7318 21.4839 18.9267C21.1159 17.1216 20.2197 15.4666 18.9091 14.172ZM7.08599 7.07617H11.0172C11.6037 7.07617 12.1661 7.30914 12.5808 7.72384C12.9955 8.13854 13.2285 8.701 13.2285 9.28747C13.2285 9.87394 12.9955 10.4364 12.5808 10.8511C12.1661 11.2658 11.6037 11.4988 11.0172 11.4988H7.08599V7.07617ZM12.3931 22.9975H7.08599V18.5749H12.3931C12.9796 18.5749 13.542 18.8079 13.9567 19.2226C14.3714 19.6373 14.6044 20.1998 14.6044 20.7862C14.6044 21.3727 14.3714 21.9352 13.9567 22.3499C13.542 22.7646 12.9796 22.9975 12.3931 22.9975Z" fill="#56BD82"/>
<path d="M68.1671 16.0197V8.94349H64.629V3.53809L57.5529 5.04177V23.3514C57.5529 27.6659 60.2359 30.1523 64.1868 30.3587C64.2261 30.3587 64.2752 30.3686 64.3145 30.3686H64.3833C64.4718 30.3686 64.5504 30.3784 64.6389 30.3784H64.7273C65.9326 30.373 67.1178 30.0691 68.1769 29.4939V24.285C67.6613 24.425 67.129 24.4945 66.5946 24.4914C65.1794 24.4914 64.6389 23.2531 64.6389 21.5725V16.0197H68.1671Z" fill="#56BD82"/>
</g>
</g>
<defs>
<clipPath id="clip0_298_12935">
<rect width="68.1769" height="40" fill="white"/>
</clipPath>
</defs>
</svg>
