<svg width="158" height="40" viewBox="0 0 158 40" fill="none" xmlns="http://www.w3.org/2000/svg">
<g clip-path="url(#clip0_291_255)">
<path fill-rule="evenodd" clip-rule="evenodd" d="M151.235 27.6179L151.208 7.80667H157.189C156.709 6.92412 156.022 6.44728 155.234 6.11007C153.78 5.48833 152.963 5.46989 151.435 5.38032H140.673C140.794 7.21655 143.044 7.75925 144.567 7.75925H146.835V27.6179H151.235ZM46.1087 6.88197L41.7802 6.89514L48.0292 27.913H53.443L59.7052 9.59025V6.8846H56.0538V9.21083L51.0957 23.9929L46.1087 6.88197ZM102.85 27.7338L109.684 9.65608L109.997 7.10327H113.68L121.887 27.7338H117.472L114.539 19.9858L108.87 20.0096L105.958 27.7365L102.85 27.7338ZM111.649 12.2484L109.365 18.147H113.847L111.649 12.2484ZM22.4062 6.99788C28.4155 6.99788 32.3013 6.22598 35.9738 9.30308C42.1095 14.4508 39.583 27.0805 30.8524 27.6022C29.7564 27.668 28.5156 27.6522 26.7505 27.7338H22.4062V6.99788ZM26.6583 8.51275L26.6108 26.1321C27.4408 26.0847 28.6684 26.0504 29.7301 25.953C36.7247 25.2943 37.2621 8.51275 28.3944 8.51275H26.6583ZM101.427 23.9033V27.0278C99.9075 27.5337 98.9958 27.8103 98.1425 27.9552C96.7383 28.1949 94.7308 28.1738 93.3525 27.9104C91.88 27.6285 90.3833 26.9646 89.2167 26.0188C86.1425 23.524 85.1542 20.0228 85.6442 16.59C86.1083 13.3523 87.7967 10.1434 90.5758 8.3283C93.6633 6.31293 97.7317 6.08899 101.48 7.55903V10.5703C99.3408 7.85936 96.0692 7.76979 93.7792 9.29517C86.735 13.9924 90.505 31.7673 101.427 23.9033ZM123.138 27.7338L129.972 9.65608L130.286 7.10327H133.968L142.175 27.7338H137.757L134.825 19.9858L129.155 20.0096L126.244 27.7365L123.138 27.7338ZM131.935 12.2484L129.651 18.147H134.132L131.935 12.2484ZM0 27.7338L6.93658 8.27034L7.25535 5.51994H10.9937L19.3239 27.7313H14.84L11.8631 19.3878L6.10936 19.4116L3.15611 27.7313L0 27.7338ZM8.93092 11.0603L6.61254 17.412H11.1597L8.93092 11.0603ZM81.2789 13.6078C81.7136 14.788 81.9507 16.0684 81.9507 17.4067C81.9507 23.2895 77.3588 28.0606 71.6921 28.0606C66.0279 28.0606 61.4334 23.2895 61.4334 17.4067C61.4334 11.9797 65.3377 7.50108 70.388 6.83718V8.77883C67.8483 9.69033 65.9542 13.2073 65.9542 17.4067C65.9542 22.2989 68.5228 26.2638 71.6921 26.2638C74.8613 26.2638 77.43 22.2989 77.43 17.4067C77.43 16.0473 77.2323 14.7591 76.8767 13.6078H81.2789ZM69.6213 17.7545C72.0609 12.7068 76.1917 5.59108 81.026 3.4308C80.6256 3.73377 80.3885 3.92608 79.9617 4.24749C78.9817 4.98778 78.0912 5.89404 77.1823 6.90832C75.1222 9.2135 73.6943 11.5898 72.2664 14.1716C71.5973 15.3808 71.0651 16.4741 70.4987 17.7334L69.5107 19.9279L69.9402 19.7567C70.4381 19.5986 70.5276 18.9743 70.5697 18.5791C71.3891 18.5553 71.563 18.6159 72.3507 18.0153L71.4602 17.8151C72.0082 17.3172 73.0962 16.9588 73.1779 16.7402L72.269 16.6401L73.1621 16.2897C73.9762 16.1632 74.6216 15.5942 75.1247 14.9382L74.9852 14.63C75.6596 14.4113 75.5173 14.5536 75.8624 13.9661C76.4552 12.9544 77.3167 11.8533 77.3536 11.4133C77.1086 11.4053 77.0216 11.1498 76.6686 11.2236C77.1428 11.0023 77.1533 11.0155 77.6697 10.9575C77.7646 10.947 77.8357 10.9312 77.8962 10.9074C78.1018 10.8258 78.1807 10.644 78.5602 10.2278C79.0423 9.69558 80.7862 8.10963 80.7599 7.70129L80.7415 7.42994L81.3633 7.33247L81.6557 7.13487C82.2906 6.70546 82.9044 6.16803 83.3467 5.53575C83.1415 5.37768 82.9255 5.24333 82.4855 5.17746L83.7525 5.07208C83.9475 5.03257 84.0558 4.87977 84.1083 4.71642C84.1667 4.52938 84.1608 4.4161 84.0558 4.25276C83.9633 4.11313 83.8317 4.00512 83.6867 3.89447C86.1183 4.40293 86.2792 -0.747482 81.9613 0.0929175C80.8311 0.314213 79.4032 1.08348 78.6787 1.7342C78.0017 2.27953 77.3246 2.82488 76.6502 3.37021C76.5237 3.52564 76.4578 3.7285 76.4552 3.98668L76.4052 5.01149L76.1813 3.86812C76.1101 3.82334 76.0073 3.84442 75.8572 3.96823C75.0642 5.11423 74.0472 6.00469 73.1963 7.12698C73.1199 8.04378 73.1121 8.71817 73.1463 9.63767C72.9066 9.59025 72.8012 7.98318 72.7722 7.7171C71.073 10.2647 70.6514 10.7942 70.5013 13.7422C70.4828 14.1058 70.5066 14.3955 70.5355 14.7591C70.3063 14.3376 70.1746 14.003 70.035 13.5551C69.8427 14.4166 69.8111 15.6021 69.84 16.4978L69.4659 16.5716L69.5897 17.5411L69.6213 17.7545Z" fill="#479469"/>
<path d="M142.402 29.665H14.7898V30.4765H142.402V29.665Z" fill="#479469"/>
<path fill-rule="evenodd" clip-rule="evenodd" d="M81.1815 39.9027V38.7646H78.3257V34.1754H77.0664V39.9027H81.1815ZM87.71 39.9027L85.2542 34.1332H84.0925L81.6372 39.9027H82.9229L83.4475 38.617H85.8683L86.3925 39.9027H87.71ZM85.4175 37.5053H83.895L84.6567 35.648L85.4175 37.5053ZM96.8408 34.1754H95.5233L94.3383 38.0533L93.0525 34.1595H91.9725L90.6867 38.0533L89.5008 34.1754H88.1525L90.1075 39.9449H91.2033L92.4967 36.1986L93.79 39.9449H94.8858L96.8408 34.1754ZM104.762 36.1696V36.1539C104.762 35.8588 104.712 35.59 104.612 35.3477C104.512 35.1053 104.367 34.8972 104.177 34.7207C103.991 34.5468 103.762 34.4098 103.49 34.3149C103.222 34.2201 102.913 34.1727 102.571 34.1727H100.232V39.9H101.491V38.1824H102.447C102.768 38.1824 103.072 38.1402 103.351 38.0559C103.632 37.9716 103.877 37.8452 104.088 37.6765C104.299 37.5079 104.462 37.2972 104.583 37.0469C104.702 36.7966 104.762 36.5042 104.762 36.1696ZM103.485 36.1959C103.485 36.4409 103.398 36.6464 103.224 36.8151C103.05 36.981 102.805 37.0654 102.487 37.0654H101.488V35.3134H102.462C102.779 35.3134 103.029 35.3872 103.211 35.5347C103.392 35.6823 103.485 35.8983 103.485 36.1802V36.1959ZM110.646 39.9027L109.247 37.8584C109.612 37.7214 109.907 37.5079 110.134 37.2155C110.361 36.9231 110.474 36.5464 110.474 36.0827V36.0669C110.474 35.4715 110.285 35.0079 109.905 34.6759C109.526 34.3439 108.997 34.1779 108.314 34.1779H105.695V39.9054H106.955V38.0717H107.945L109.172 39.9054H110.646V39.9027ZM109.197 36.1459C109.197 36.3909 109.112 36.5885 108.947 36.736C108.78 36.8836 108.541 36.9574 108.23 36.9574H106.952V35.3134H108.203C108.514 35.3134 108.757 35.3819 108.931 35.5189C109.104 35.6559 109.192 35.8588 109.192 36.1328V36.1459H109.197ZM117.189 39.9027L114.734 34.1332H113.572L111.117 39.9027H112.402L112.927 38.617H115.348L115.872 39.9027H117.189ZM114.9 37.5053H113.377L114.139 35.648L114.9 37.5053ZM123.107 38.9779L122.306 38.1692C122.082 38.3774 121.857 38.5407 121.632 38.6592C121.405 38.7804 121.128 38.8384 120.802 38.8384C120.557 38.8384 120.33 38.7909 120.127 38.6961C119.922 38.6013 119.747 38.4722 119.602 38.3062C119.457 38.1429 119.344 37.9505 119.262 37.7345C119.181 37.5159 119.139 37.284 119.139 37.039V37.0232C119.139 36.7782 119.181 36.5464 119.262 36.3329C119.344 36.1169 119.461 35.9273 119.605 35.7639C119.752 35.6006 119.929 35.4715 120.132 35.3793C120.337 35.2871 120.559 35.2397 120.799 35.2397C121.088 35.2397 121.349 35.2976 121.581 35.4109C121.813 35.5242 122.04 35.6849 122.263 35.8851L123.064 34.9604C122.932 34.8287 122.791 34.7101 122.64 34.5994C122.487 34.4914 122.322 34.3966 122.142 34.3202C121.963 34.2439 121.763 34.1833 121.542 34.1411C121.321 34.0963 121.075 34.0752 120.809 34.0752C120.367 34.0752 119.963 34.1543 119.597 34.3097C119.232 34.4651 118.917 34.6785 118.657 34.9473C118.396 35.2159 118.191 35.5321 118.043 35.8878C117.896 36.246 117.822 36.628 117.822 37.0364V37.0522C117.822 37.4605 117.896 37.8452 118.043 38.2061C118.191 38.567 118.396 38.8779 118.657 39.1439C118.917 39.4074 119.228 39.6182 119.589 39.7709C119.951 39.9238 120.34 40.0002 120.759 40.0002C121.038 40.0002 121.289 39.9764 121.512 39.9317C121.737 39.8843 121.942 39.8184 122.132 39.7262C122.319 39.6366 122.492 39.5286 122.651 39.4021C122.807 39.2783 122.959 39.136 123.107 38.9779ZM128.449 35.3371V34.1754H123.705V35.3371H125.448V39.9027H126.708V35.3371H128.449ZM130.733 39.9027V34.1754H129.474V39.9027H130.733ZM137.196 38.9779L136.395 38.1692C136.171 38.3774 135.947 38.5407 135.721 38.6592C135.494 38.7804 135.217 38.8384 134.891 38.8384C134.646 38.8384 134.419 38.7909 134.216 38.6961C134.011 38.6013 133.837 38.4722 133.692 38.3062C133.547 38.1429 133.433 37.9505 133.352 37.7345C133.27 37.5159 133.228 37.284 133.228 37.039V37.0232C133.228 36.7782 133.27 36.5464 133.352 36.3329C133.433 36.1169 133.55 35.9273 133.694 35.7639C133.842 35.6006 134.018 35.4715 134.222 35.3793C134.427 35.2871 134.648 35.2397 134.888 35.2397C135.177 35.2397 135.438 35.2976 135.671 35.4109C135.902 35.5242 136.129 35.6849 136.352 35.8851L137.153 34.9604C137.022 34.8287 136.88 34.7101 136.727 34.5994C136.574 34.4914 136.408 34.3966 136.229 34.3202C136.05 34.2439 135.849 34.1833 135.628 34.1411C135.407 34.0963 135.162 34.0752 134.896 34.0752C134.453 34.0752 134.05 34.1543 133.684 34.3097C133.317 34.4651 133.004 34.6785 132.743 34.9473C132.482 35.2159 132.277 35.5321 132.13 35.8878C131.982 36.246 131.908 36.628 131.908 37.0364V37.0522C131.908 37.4605 131.982 37.8452 132.13 38.2061C132.277 38.567 132.482 38.8779 132.743 39.1439C133.004 39.4074 133.315 39.6182 133.676 39.7709C134.037 39.9238 134.427 40.0002 134.846 40.0002C135.125 40.0002 135.375 39.9764 135.599 39.9317C135.823 39.8869 136.028 39.8184 136.218 39.7262C136.406 39.6366 136.579 39.5286 136.737 39.4021C136.896 39.2783 137.048 39.136 137.196 38.9779ZM142.557 39.9027V38.783H139.448V37.5791H142.148V36.4594H139.448V35.2976H142.517V34.1754H138.205V39.9027H142.557Z" fill="#479469"/>
</g>
<defs>
<clipPath id="clip0_291_255">
<rect width="157.5" height="40" fill="white"/>
</clipPath>
</defs>
</svg>
