<svg width="208" height="37" viewBox="0 0 208 37" fill="none" xmlns="http://www.w3.org/2000/svg">
<g clip-path="url(#clip0_291_3588)">
<path d="M36.9763 36.9763H0V33.1908H0.81118L1.62236 33.1232L1.82515 32.7852L2.77153 31.5008L5.20507 28.3237L5.94865 27.3773H11.4241L11.6945 28.3237L11.9649 29.4053L12.0325 29.5405L11.5593 30.0812C10.822 31.1708 9.98464 32.1892 9.05817 33.1232L10.3425 33.1908H11.6269L11.8297 32.7852C12.0969 32.2652 12.4385 31.787 12.8437 31.3656C13.0628 31.9332 13.2214 32.5223 13.3169 33.1232L14.6688 33.1908H15.9532L16.0208 33.1232C16.1884 32.8356 16.3462 32.5426 16.494 32.2444L17.2376 31.4332C17.4405 32.0013 17.5766 32.5912 17.6432 33.1908C18.7701 33.1893 19.897 33.1668 21.0231 33.1232L20.8203 32.7852C20.4147 32.0416 20.4823 32.1092 19.6711 29.6757L19.3331 28.5265L19.7387 27.9181L20.2119 27.3773H25.6874L26.0929 28.6617C26.4955 30.1438 26.8786 31.6311 27.2421 33.1232L28.9997 33.1908C29.5639 33.1312 30.1273 33.0636 30.6896 32.988L29.9461 31.2304C28.6381 27.3124 27.488 23.3434 26.4985 19.3331H23.727L23.5918 19.5359L22.9834 20.6175L18.6571 26.3633L18.2515 24.9438C19.74 23.0565 21.2498 21.1861 22.7806 19.3331H20.0091L19.9415 19.4007V19.5359C19.8739 19.8739 19.8063 20.0767 19.5359 20.4147L17.3728 23.1186L17.2376 22.7806C16.9729 21.6751 16.7025 20.571 16.4264 19.4683V19.3331H13.0465L13.1141 19.5359C13.8599 21.4943 14.5363 23.4784 15.142 25.4846L14.2632 26.6337C13.576 24.3904 12.9224 22.1369 12.3029 19.8739L12.2353 19.4007V19.3331H9.32857L9.05817 19.9415L8.58499 20.8203C7.10043 22.945 5.54479 25.0192 3.9207 27.0393C2.66329 28.7051 1.37875 30.3502 0.0675983 31.974H0V0H34.8131L23.4566 14.7364C22.5645 15.9208 21.6857 17.1151 20.8203 18.3191H22.9158L25.9578 14.3984L28.1209 11.5593L36.9763 0V36.9763ZM15.2096 29.6081L14.9392 28.6617L15.818 27.5125L15.9532 27.7153L16.4264 29.0673L16.494 29.2025L16.3588 29.4053L15.5476 30.4868L15.2096 29.6081ZM7.30062 25.6198C7.97194 24.7598 8.64794 23.9036 9.32857 23.051C9.54956 22.7476 9.7527 22.4317 9.93695 22.1046V22.375L10.0045 22.8482C10.2234 23.7864 10.4943 24.7116 10.8157 25.6198C9.6443 25.6555 8.47205 25.6555 7.30062 25.6198ZM21.5639 25.6198C22.713 24.2002 23.6594 22.9834 23.9974 22.375L24.1326 22.1046L24.2002 22.4426V22.9158C24.4344 23.8276 24.705 24.7296 25.0114 25.6198H25.079H21.4963H21.5639Z" fill="#103083"/>
<path d="M22.9834 18.5219L20.2119 18.4543L34.7456 0H36.9763L22.9834 18.5219Z" fill="#FC1721"/>
<path d="M48.13 31.8387L53.6055 15.5475H57.5938L63.0016 31.8387H59.8245L58.5401 27.8504H52.2535L50.9691 31.8387H48.13ZM55.4306 18.0487L52.9971 25.6197H57.7966L55.4306 18.0487ZM63.61 31.8387L68.8827 23.4565L64.0156 15.5475H67.3955L70.9106 21.361L74.3581 15.5475H77.4677L72.6682 23.3889L77.8733 31.8387H74.4257L70.5726 25.4845L66.7195 31.8387H63.61ZM78.5492 31.8387L84.0247 15.5475H88.013L93.3533 31.8387H90.2437L88.8918 27.8504H82.6727L81.3884 31.8387H78.5492ZM85.7823 18.0487L83.4163 25.6197H88.2158L85.7823 18.0487ZM99.9779 31.8387V15.5475H104.034L108.36 26.7012L112.551 15.5475H116.539V31.8387H113.498V19.5358L108.63 31.8387H107.684L102.682 19.5358V31.8387H99.9779ZM118.365 31.8387L123.84 15.5475H127.828L133.236 31.8387H130.059L128.775 27.8504H122.488L121.204 31.8387H118.365ZM125.665 18.0487L123.232 25.6197H128.031L125.665 18.0487ZM135.061 31.8387V15.5475H138.644L145.539 27.3096V15.5475H148.311V31.8387H145.201L137.833 19.333V31.8387H135.061ZM156.963 32.1091C154.8 32.1091 153.245 31.6359 152.164 30.6895C151.625 30.1859 151.191 29.5796 150.89 28.9064C150.588 28.2331 150.424 27.5064 150.406 26.7688H153.313C153.448 27.7828 153.786 28.5264 154.259 28.9996C154.8 29.5404 155.679 29.8108 156.963 29.8108C157.842 29.8108 158.586 29.608 159.194 29.1348C159.735 28.6616 160.073 28.0532 160.073 27.3096C160.073 26.566 159.802 25.9577 159.329 25.6197C158.856 25.2817 157.977 25.0113 156.625 24.8085C154.597 24.5381 153.11 23.9973 152.231 23.3213C151.353 22.6453 150.879 21.4962 150.879 20.009C150.879 18.657 151.42 17.5755 152.434 16.6967C153.516 15.8179 154.868 15.3447 156.558 15.3447C158.315 15.3447 159.735 15.7503 160.749 16.5615C161.763 17.3727 162.371 18.5218 162.506 20.0766H159.735C159.6 19.1978 159.262 18.5894 158.721 18.2515C158.248 17.8459 157.504 17.6431 156.558 17.6431C155.679 17.6431 155.003 17.8459 154.462 18.2515C153.989 18.5894 153.786 19.1302 153.786 19.7386C153.786 20.4822 153.989 21.023 154.395 21.361C154.868 21.699 155.814 21.9694 157.166 22.1721C159.194 22.4425 160.681 22.9157 161.56 23.6593C162.506 24.3353 162.98 25.4845 162.98 27.0392C162.98 28.4588 162.439 29.6756 161.29 30.6219C160.079 31.6319 158.539 32.1613 156.963 32.1091ZM163.385 31.8387L168.861 15.5475H172.849L178.257 31.8387H175.08L173.795 27.8504H167.509L166.292 31.8387H163.385ZM170.686 18.0487L168.252 25.6197H173.052L170.686 18.0487ZM180.082 31.8387V15.5475H185.557C187.45 15.5475 188.937 15.9531 190.019 16.7643C191.1 17.5079 191.641 18.7246 191.641 20.347V20.4146C191.641 22.7129 190.424 24.2001 187.991 24.8085L192.655 31.8387H189.343L185.017 25.2817H183.124V31.8387H180.082ZM183.124 23.1185H185.557C187.653 23.1185 188.667 22.2397 188.667 20.4822V20.4146C188.667 19.5358 188.396 18.8598 187.856 18.5218C187.315 18.1163 186.571 17.9135 185.557 17.9135H183.124V23.1185ZM197.387 29.4728H199.212C200.97 29.4728 202.322 28.9996 203.268 27.9856C204.147 27.0392 204.62 25.6197 204.62 23.7269V23.5917C204.62 19.8062 202.795 17.9135 199.145 17.9135H197.387V29.4728ZM194.345 31.8387V15.5475H199.347C202.119 15.5475 204.214 16.2911 205.634 17.7107C207.054 19.1302 207.797 21.0906 207.797 23.5241V23.7269C207.797 26.228 207.054 28.1884 205.634 29.6756C204.147 31.0951 202.051 31.8387 199.28 31.8387H194.345Z" fill="#103083"/>
<path d="M48.3328 31.8387L53.8082 15.5475H57.7965L63.1368 31.8387H60.0273L58.6753 27.8504H52.4563L51.1719 31.8387H48.3328ZM55.5658 18.0487L53.1998 25.6197H57.9993L55.5658 18.0487ZM63.8128 31.8387L69.0854 23.4565L64.1508 15.5475H67.5983L71.1134 21.361L74.5609 15.5475H77.6704L72.8709 23.3889L78.076 31.8387H74.6285L70.7754 25.4845L66.9223 31.8387H63.8128ZM78.752 31.8387L84.1599 15.5475H88.1482L93.556 31.8387H90.4465L89.0945 27.8504H82.8755L81.5911 31.8387H78.752ZM85.985 18.0487L83.5515 25.6197H88.4186L85.985 18.0487ZM100.181 31.8387V15.5475H104.237L108.495 26.7012L112.754 15.5475H116.742V31.8387H113.7V19.5358L108.833 31.8387H107.887L102.885 19.5358V31.8387H100.181ZM118.567 31.8387L124.043 15.5475H128.031L133.439 31.8387H130.262L128.978 27.8504H122.691L121.407 31.8387H118.567ZM125.868 18.0487L123.434 25.6197H128.234L125.868 18.0487ZM135.197 31.8387V15.5475H138.847L145.742 27.3096V15.5475H148.513V31.8387H145.336L137.968 19.333V31.8387H135.197ZM157.166 32.1091C155.003 32.1091 153.381 31.6359 152.367 30.6895C151.827 30.1859 151.394 29.5796 151.092 28.9064C150.791 28.2331 150.626 27.5064 150.609 26.7688H153.516C153.651 27.7828 153.921 28.5264 154.462 28.9996C155.003 29.5404 155.882 29.8108 157.166 29.8108C158.045 29.8108 158.788 29.608 159.397 29.1348C159.938 28.6616 160.208 28.0532 160.208 27.3096C160.208 26.566 160.005 25.9577 159.532 25.6197C159.059 25.2817 158.18 25.0113 156.828 24.8085C154.8 24.5381 153.313 23.9973 152.434 23.3213C151.488 22.6453 151.082 21.4962 151.082 20.009C151.082 18.657 151.623 17.5755 152.637 16.6967C153.719 15.8179 155.07 15.3447 156.76 15.3447C158.518 15.3447 159.938 15.7503 160.952 16.5615C161.966 17.3727 162.574 18.5218 162.709 20.0766H159.938C159.735 19.1978 159.464 18.5894 158.924 18.2515C158.45 17.8459 157.707 17.6431 156.76 17.6431C155.882 17.6431 155.138 17.8459 154.665 18.2515C154.192 18.5894 153.921 19.1302 153.921 19.7386C153.921 20.4822 154.192 21.023 154.597 21.361C155.07 21.699 155.949 21.9694 157.301 22.1721C159.329 22.4425 160.816 22.9157 161.763 23.6593C162.709 24.3353 163.182 25.4845 163.182 27.0392C163.182 28.4588 162.641 29.6756 161.492 30.6219C160.282 31.6319 158.742 32.1613 157.166 32.1091ZM163.588 31.8387L169.063 15.5475H173.052L178.46 31.8387H175.282L173.998 27.8504H167.711L166.427 31.8387H163.588ZM170.888 18.0487L168.455 25.6197H173.254L170.888 18.0487ZM180.285 31.8387V15.5475H185.76C187.653 15.5475 189.14 15.9531 190.222 16.7643C191.303 17.5079 191.844 18.7246 191.844 20.347V20.4146C191.844 22.7129 190.627 24.2001 188.194 24.8085L192.79 31.8387H189.546L185.219 25.2817H183.327V31.8387H180.285ZM183.327 23.1185H185.76C187.788 23.1185 188.87 22.2397 188.87 20.4822V20.4146C188.87 19.5358 188.599 18.8598 188.058 18.5218C187.518 18.1163 186.774 17.9135 185.76 17.9135H183.327V23.1185ZM197.59 29.4728H199.415C201.173 29.4728 202.525 28.9996 203.471 27.9856C204.35 27.0392 204.823 25.6197 204.823 23.7269V23.5917C204.823 19.8062 202.998 17.9135 199.347 17.9135H197.59V29.4728ZM194.548 31.8387V15.5475H199.55C202.322 15.5475 204.417 16.2911 205.837 17.7107C207.256 19.1302 208 21.0906 208 23.5241V23.7269C208 26.228 207.256 28.1884 205.837 29.6756C204.35 31.0951 202.254 31.8387 199.483 31.8387H194.548Z" fill="#103083"/>
</g>
<defs>
<clipPath id="clip0_291_3588">
<rect width="208" height="36.9763" fill="white"/>
</clipPath>
</defs>
</svg>
