<svg width="106" height="40" viewBox="0 0 106 40" fill="none" xmlns="http://www.w3.org/2000/svg">
<g clip-path="url(#clip0_298_12056)">
<mask id="mask0_298_12056" style="mask-type:luminance" maskUnits="userSpaceOnUse" x="0" y="0" width="106" height="40">
<path d="M105.395 0H0.601562V40H105.395V0Z" fill="white"/>
</mask>
<g mask="url(#mask0_298_12056)">
<path d="M15.0677 6.91244H16.4627V0.231445H15.0677C8.57512 0.231445 3.309 5.49756 3.309 11.9901V13.4711H0.601562V18.6645H3.309V32.0232H9.98999V18.6645H12.6511C14.3536 18.6645 15.7321 17.2827 15.7321 15.5835V13.4744H9.98999V11.9934C9.98999 9.18351 12.2644 6.91244 15.0677 6.91244Z" fill="#213F7A"/>
<path d="M25.1761 10.2373H18.9414V31.7381H25.1761V10.2373Z" fill="#213F7A"/>
<path d="M50.4621 10.2376V28.1418C50.4621 36.1352 46.1448 39.8112 38.3927 39.8112C34.3167 39.8112 30.3596 38.8129 27.8406 36.8525L30.32 32.3765C32.158 33.8542 35.1563 34.8162 37.9133 34.8162C42.31 34.8162 44.2274 32.8195 44.2274 28.9418V28.0228C42.5877 29.8211 40.2307 30.7004 37.434 30.7004C31.4803 30.7004 26.6836 26.5847 26.6836 20.3071C26.6836 14.0294 31.4803 9.91699 37.434 9.91699C40.4324 9.91699 42.9084 10.9153 44.5481 12.9947C44.5481 11.4707 45.7844 10.2376 47.3051 10.2376H50.4621ZM44.31 20.3071C44.31 17.15 41.953 15.031 38.6737 15.031C35.3976 15.031 32.9976 17.15 32.9976 20.3071C32.9976 23.4641 35.3943 25.5831 38.6737 25.5831C41.9497 25.5831 44.31 23.4641 44.31 20.3071Z" fill="#213F7A"/>
<path d="M51.6641 20.9881C51.6641 14.512 56.6591 9.91699 63.4955 9.91699C70.3285 9.91699 75.2872 14.512 75.2872 20.9881C75.2872 27.4641 70.3318 32.0591 63.4955 32.0591C56.6624 32.0591 51.6641 27.4608 51.6641 20.9881ZM68.9698 20.9881C68.9698 17.2724 66.6128 15.0343 63.4955 15.0343C60.3781 15.0343 57.9814 17.2724 57.9814 20.9881C57.9814 24.7038 60.3781 26.9418 63.4955 26.9418C66.6128 26.9418 68.9698 24.7038 68.9698 20.9881Z" fill="#213F7A"/>
<path d="M90.1027 9.91699V15.6724C89.5837 15.6327 89.1837 15.593 88.7043 15.593C85.2663 15.593 82.9886 17.4707 82.9886 21.5864V31.7385H76.7539V10.2376H79.8713C81.4382 10.2376 82.7076 11.5071 82.7076 13.074C84.2283 10.9947 86.7837 9.91699 90.1027 9.91699Z" fill="#213F7A"/>
<path d="M105.099 9.91699V15.6724C104.58 15.6327 104.18 15.593 103.7 15.593C100.262 15.593 97.9847 17.4707 97.9847 21.5864V31.7385H91.75V10.2376H94.8674C96.4343 10.2376 97.7037 11.5071 97.7037 13.074C99.2244 10.9947 101.78 9.91699 105.099 9.91699Z" fill="#213F7A"/>
<path d="M25.0902 3.14985V0.227539H18.9414V6.51514H21.7249C23.5827 6.51514 25.0902 5.0077 25.0902 3.14985Z" fill="#00A54F"/>
</g>
</g>
<defs>
<clipPath id="clip0_298_12056">
<rect width="106" height="40" fill="white"/>
</clipPath>
</defs>
</svg>
