<svg width="103" height="60" viewBox="0 0 103 60" fill="none" xmlns="http://www.w3.org/2000/svg">
<path d="M2.21091 34.6346H6.01915C6.36903 34.6346 6.57088 34.2713 6.57088 33.8541C6.57088 33.4908 6.39594 33.1006 6.01915 33.1006H1.22857C0.838326 33.1006 0.461538 33.289 0.461538 33.6523V42.3857C0.461538 42.749 0.838326 42.9374 1.22857 42.9374H6.01915C6.39594 42.9374 6.57088 42.5472 6.57088 42.1838C6.57088 41.7667 6.36903 41.4034 6.01915 41.4034H2.21091V38.6986H4.25633C4.63312 38.6986 4.80805 38.3353 4.80805 38.0258C4.80805 37.6623 4.6062 37.326 4.25633 37.326H2.21091V34.6346Z" fill="#EC565C"/>
<path d="M13.6393 36.5993V42.3857C13.6393 42.749 14.0699 42.9374 14.514 42.9374C14.9446 42.9374 15.3887 42.749 15.3887 42.3857V33.9753C15.3887 33.3293 14.9581 33.1006 14.514 33.1006C13.8815 33.1006 13.5855 33.2352 13.1415 34.0291L11.4862 37.0434L9.83105 34.0291C9.38705 33.2352 9.10442 33.1006 8.47195 33.1006C8.02788 33.1006 7.59727 33.3293 7.59727 33.9753V42.3857C7.59727 42.749 8.02788 42.9374 8.47195 42.9374C8.90257 42.9374 9.34662 42.749 9.34662 42.3857V36.4917L10.8942 39.3983C11.0422 39.6674 11.2575 39.7482 11.4728 39.7482C11.6881 39.7482 11.9168 39.6674 12.0649 39.3983L13.6393 36.5993Z" fill="#EC565C"/>
<path d="M18.7558 34.6346H22.5641C22.9139 34.6346 23.1158 34.2713 23.1158 33.8541C23.1158 33.4908 22.9409 33.1006 22.5641 33.1006H17.7735C17.3832 33.1006 17.0065 33.289 17.0065 33.6523V42.3857C17.0065 42.749 17.3832 42.9374 17.7735 42.9374H22.5641C22.9409 42.9374 23.1158 42.5472 23.1158 42.1838C23.1158 41.7667 22.9139 41.4034 22.5641 41.4034H18.7558V38.6986H20.8013C21.1781 38.6986 21.353 38.3353 21.353 38.0258C21.353 37.6623 21.1511 37.326 20.8013 37.326H18.7558V34.6346Z" fill="#EC565C"/>
<path d="M24.1422 42.3857C24.1422 42.749 24.5862 42.9374 25.0169 42.9374C25.461 42.9374 25.8916 42.749 25.8916 42.3857V38.8735H27.0219L28.9327 42.5875C29.0673 42.8567 29.2961 43.0047 29.5383 43.0047C30.0497 43.0047 30.6283 42.5337 30.6283 42.0896C30.6283 42.0358 30.6149 41.9416 30.561 41.8743L28.7982 38.6043C29.8074 38.2948 30.561 37.4606 30.561 35.913C30.561 33.7734 29.1346 33.1006 27.3718 33.1006H24.7074C24.371 33.1006 24.1422 33.3563 24.1422 33.6388V42.3857ZM27.3718 34.6346C28.2464 34.6346 28.8116 35.0114 28.8116 36.0745C28.8116 37.1376 28.2464 37.5009 27.3718 37.5009H25.8916V34.6346H27.3718Z" fill="#EC565C"/>
<path d="M36.2708 35.9668C36.2843 36.384 36.6746 36.5186 37.1455 36.5186C37.7242 36.5186 38.0202 36.3571 38.0202 35.6843C38.0202 34.0694 36.6611 33.1006 34.8041 33.1006C33.0951 33.1006 31.7091 33.9349 31.7091 36.1822V39.9365C31.7091 42.1838 33.0816 43.0181 34.8579 43.0181C36.6342 43.0181 38.0202 42.1838 38.0202 39.9365V38.3353C38.0202 38.0391 37.8184 37.7701 37.4685 37.7701H35.1809C34.831 37.7701 34.6426 38.1199 34.6426 38.4564C34.6426 38.8062 34.831 39.1426 35.1809 39.1426H36.2708V39.9365C36.2708 40.9862 35.7326 41.4841 34.8579 41.4841C33.9698 41.4841 33.4584 40.9862 33.4584 39.9365V36.1822C33.4584 35.1326 33.9698 34.6346 34.8714 34.6346C36.0152 34.6346 36.2305 35.3343 36.2708 35.9668Z" fill="#EC565C"/>
<path d="M41.1618 34.6346H44.97C45.3198 34.6346 45.5217 34.2713 45.5217 33.8541C45.5217 33.4908 45.3468 33.1006 44.97 33.1006H40.1794C39.7891 33.1006 39.4123 33.289 39.4123 33.6523V42.3857C39.4123 42.749 39.7891 42.9374 40.1794 42.9374H44.97C45.3468 42.9374 45.5217 42.5472 45.5217 42.1838C45.5217 41.7667 45.3198 41.4034 44.97 41.4034H41.1618V38.6986H43.2072C43.584 38.6986 43.7589 38.3353 43.7589 38.0258C43.7589 37.6623 43.557 37.326 43.2072 37.326H41.1618V34.6346Z" fill="#EC565C"/>
<path d="M52.1999 42.9374C52.6305 42.9374 53.0746 42.749 53.0746 42.3857V33.6388C53.0746 33.262 52.6305 33.1006 52.1999 33.1006C51.7558 33.1006 51.3252 33.262 51.3252 33.6388V39.0484L48.7281 34.0291C48.311 33.2352 48.0553 33.1006 47.4228 33.1006C46.9787 33.1006 46.5481 33.2755 46.5481 33.6523V42.3857C46.5481 42.749 46.9787 42.9374 47.4228 42.9374C47.8534 42.9374 48.2975 42.749 48.2975 42.3857V36.9761L51.1907 42.3857C51.4194 42.8029 51.7828 42.9374 52.1999 42.9374Z" fill="#EC565C"/>
<path d="M59.1633 35.9668C59.1768 36.3706 59.5401 36.5186 60.038 36.5186C60.6301 36.5186 60.9127 36.3571 60.9127 35.6573C60.9127 34.0964 59.5806 33.1006 57.71 33.1006C56.0145 33.1006 54.6016 33.9349 54.6016 36.1822V39.9365C54.6016 42.1838 56.001 43.0181 57.6966 43.0181C59.5806 43.0181 60.9127 41.982 60.9127 40.3538C60.9127 39.6674 60.6301 39.4925 60.0246 39.4925C59.5671 39.4925 59.1903 39.6271 59.1633 40.0442C59.123 40.6094 59.0154 41.4841 57.7908 41.4841C56.8623 41.4841 56.3509 40.9862 56.3509 39.9365V36.1822C56.3509 35.1326 56.8623 34.6346 57.7638 34.6346C59.0422 34.6346 59.1365 35.5497 59.1633 35.9668Z" fill="#EC565C"/>
<path d="M64.2743 42.3857C64.2743 42.749 64.7183 42.9374 65.1489 42.9374C65.593 42.9374 66.0236 42.749 66.0236 42.3857V38.9946C66.0236 38.9273 66.0506 38.86 66.0774 38.8197L68.8495 34.0022C68.8899 33.9349 68.8899 33.8676 68.8899 33.8272C68.8899 33.3966 68.2037 33.1006 67.7326 33.1006C67.4501 33.1006 67.329 33.2217 67.2078 33.4504L65.1489 37.3394L63.1036 33.4504C62.9825 33.2082 62.8479 33.1006 62.5652 33.1006C62.0943 33.1006 61.408 33.3966 61.408 33.8272C61.408 33.8676 61.4214 33.9349 61.4484 34.0022L64.2339 38.8197C64.2608 38.86 64.2743 38.9273 64.2743 38.9946V42.3857Z" fill="#EC565C"/>
<path d="M0.767128 49.5744C0.767128 49.7428 0.972914 49.8301 1.17247 49.8301C1.37826 49.8301 1.57782 49.7428 1.57782 49.5744V47.9467H2.10163L2.98715 49.6679C3.04951 49.7926 3.15553 49.8612 3.26778 49.8612C3.50475 49.8612 3.77289 49.643 3.77289 49.4371C3.77289 49.4122 3.76666 49.3686 3.74171 49.3375L2.9248 47.822C3.3925 47.6786 3.74171 47.292 3.74171 46.5749C3.74171 45.5833 3.0807 45.2715 2.26377 45.2715H1.02904C0.873141 45.2715 0.767128 45.39 0.767128 45.521V49.5744ZM2.26377 45.9824C2.66911 45.9824 2.93103 46.1571 2.93103 46.6497C2.93103 47.1424 2.66911 47.3107 2.26377 47.3107H1.57782V45.9824H2.26377Z" fill="#2B4963"/>
<path d="M6.44386 45.9824H8.20866C8.3708 45.9824 8.46434 45.8141 8.46434 45.6208C8.46434 45.4524 8.38327 45.2715 8.20866 45.2715H5.98864C5.80779 45.2715 5.63318 45.3588 5.63318 45.5272V49.5744C5.63318 49.7428 5.80779 49.8301 5.98864 49.8301H8.20866C8.38327 49.8301 8.46434 49.6492 8.46434 49.4808C8.46434 49.2875 8.3708 49.1191 8.20866 49.1191H6.44386V47.8657H7.39174C7.56635 47.8657 7.64742 47.6973 7.64742 47.5539C7.64742 47.3855 7.55388 47.2296 7.39174 47.2296H6.44386V45.9824Z" fill="#2B4963"/>
<path d="M11.4406 49.1564C10.8045 49.1564 10.6362 48.6763 10.3805 48.6763C10.1872 48.6763 10.0251 48.9382 10.0251 49.1128C10.0251 49.4745 10.6486 49.8861 11.4655 49.8861C12.3261 49.8861 12.9498 49.4245 12.9498 48.5329C12.9498 46.9177 10.948 47.1858 10.948 46.4125C10.948 46.1133 11.2037 45.9324 11.6526 45.9324C12.1765 45.9324 12.3199 46.1694 12.5132 46.1694C12.7377 46.1694 12.8375 45.8825 12.8375 45.7391C12.8375 45.3275 12.0206 45.2402 11.6526 45.2402C10.9355 45.2402 10.1373 45.5582 10.1373 46.4874C10.1373 47.9653 12.1391 47.6785 12.1391 48.6139C12.1391 48.988 11.8148 49.1564 11.4406 49.1564Z" fill="#2B4963"/>
<path d="M14.8172 49.5744C14.8172 49.7428 15.0167 49.8301 15.2226 49.8301C15.4221 49.8301 15.6279 49.7428 15.6279 49.5744V48.1277H16.3263C17.1495 48.1277 17.7918 47.7347 17.7918 46.712V46.6747C17.7918 45.6519 17.1682 45.2715 16.3762 45.2715H15.1228C14.9357 45.2715 14.8172 45.39 14.8172 45.521V49.5744ZM16.3263 45.9824C16.7317 45.9824 16.9811 46.2132 16.9811 46.6996V46.7744C16.9811 47.2608 16.7317 47.4916 16.3263 47.4916H15.6279V45.9824H16.3263Z" fill="#2B4963"/>
<path d="M21.0073 49.8675C21.8305 49.8675 22.4728 49.4808 22.4728 48.4394V46.6996C22.4728 45.6582 21.8305 45.2715 21.0073 45.2715C20.1842 45.2715 19.5481 45.6582 19.5481 46.6996V48.4394C19.5481 49.4808 20.1842 49.8675 21.0073 49.8675ZM21.6621 48.4394C21.6621 48.932 21.4127 49.1565 21.0073 49.1565C20.5958 49.1565 20.3588 48.932 20.3588 48.4394V46.6996C20.3588 46.2069 20.5958 45.9824 21.0073 45.9824C21.4127 45.9824 21.6621 46.2069 21.6621 46.6996V48.4394Z" fill="#2B4963"/>
<path d="M27.0954 49.8301C27.2949 49.8301 27.5007 49.7428 27.5007 49.5744V45.521C27.5007 45.3463 27.2949 45.2715 27.0954 45.2715C26.8896 45.2715 26.69 45.3463 26.69 45.521V48.0279L25.4864 45.7018C25.2931 45.3339 25.1747 45.2715 24.8815 45.2715C24.6758 45.2715 24.4762 45.3526 24.4762 45.5272V49.5744C24.4762 49.7428 24.6758 49.8301 24.8815 49.8301C25.0811 49.8301 25.287 49.7428 25.287 49.5744V47.0675L26.6276 49.5744C26.7337 49.7677 26.9021 49.8301 27.0954 49.8301Z" fill="#2B4963"/>
<path d="M30.7526 49.1564C30.1165 49.1564 29.9481 48.6763 29.6924 48.6763C29.4991 48.6763 29.337 48.9382 29.337 49.1128C29.337 49.4745 29.9606 49.8861 30.7775 49.8861C31.6381 49.8861 32.2617 49.4245 32.2617 48.5329C32.2617 46.9177 30.2599 47.1858 30.2599 46.4125C30.2599 46.1133 30.5156 45.9324 30.9646 45.9324C31.4885 45.9324 31.6319 46.1694 31.8252 46.1694C32.0497 46.1694 32.1495 45.8825 32.1495 45.7391C32.1495 45.3275 31.3326 45.2402 30.9646 45.2402C30.2475 45.2402 29.4493 45.5582 29.4493 46.4874C29.4493 47.9653 31.4511 47.6785 31.4511 48.6139C31.4511 48.988 31.1268 49.1564 30.7526 49.1564Z" fill="#2B4963"/>
<path d="M34.9399 45.9824H36.7047C36.8668 45.9824 36.9604 45.8141 36.9604 45.6208C36.9604 45.4524 36.8792 45.2715 36.7047 45.2715H34.4846C34.3038 45.2715 34.1292 45.3588 34.1292 45.5272V49.5744C34.1292 49.7428 34.3038 49.8301 34.4846 49.8301H36.7047C36.8792 49.8301 36.9604 49.6492 36.9604 49.4808C36.9604 49.2875 36.8668 49.1191 36.7047 49.1191H34.9399V47.8657H35.8878C36.0623 47.8657 36.1434 47.6973 36.1434 47.5539C36.1434 47.3855 36.0498 47.2296 35.8878 47.2296H34.9399V45.9824Z" fill="#2B4963"/>
<path d="M41.4968 49.8304C41.634 49.8304 41.7401 49.7867 41.7713 49.6682L42.0082 48.8388H43.4362L43.6733 49.6682C43.7044 49.7867 43.8104 49.8304 43.9476 49.8304C44.1659 49.8304 44.459 49.6869 44.459 49.4936C44.459 49.4749 44.4527 49.4562 44.4465 49.4312L43.2429 45.5088C43.1868 45.3217 42.9561 45.2344 42.7191 45.2344C42.4884 45.2344 42.2576 45.3217 42.2015 45.5088L40.998 49.4312C40.9917 49.4562 40.9855 49.4811 40.9855 49.4936C40.9855 49.6931 41.2786 49.8304 41.4968 49.8304ZM42.1766 48.2027L42.7191 46.2883L43.2617 48.2027H42.1766Z" fill="#2B4963"/>
<path d="M46.2 49.5744C46.2 49.7428 46.3996 49.8301 46.6054 49.8301C46.8049 49.8301 47.0107 49.7428 47.0107 49.5744V47.8657H47.9648C48.1395 47.8657 48.2142 47.6973 48.2142 47.5539C48.2142 47.3855 48.1269 47.2296 47.9648 47.2296H47.0107V45.9824H48.7318C48.894 45.9824 48.9813 45.8141 48.9813 45.6208C48.9813 45.4524 48.9065 45.2715 48.7318 45.2715H46.5555C46.3746 45.2715 46.2 45.3588 46.2 45.5272V49.5744Z" fill="#2B4963"/>
<path d="M50.6764 49.5744C50.6764 49.7428 50.8821 49.8301 51.0817 49.8301C51.2874 49.8301 51.487 49.7428 51.487 49.5744V47.9467H52.0109L52.8964 49.6679C52.9587 49.7926 53.0647 49.8612 53.177 49.8612C53.4139 49.8612 53.6821 49.643 53.6821 49.4371C53.6821 49.4122 53.6758 49.3686 53.6509 49.3375L52.834 47.822C53.3017 47.6786 53.6509 47.292 53.6509 46.5749C53.6509 45.5833 52.9899 45.2715 52.173 45.2715H50.9382C50.7823 45.2715 50.6764 45.39 50.6764 45.521V49.5744ZM52.173 45.9824C52.5783 45.9824 52.8402 46.1571 52.8402 46.6497C52.8402 47.1424 52.5783 47.3107 52.173 47.3107H51.487V45.9824H52.173Z" fill="#2B4963"/>
<path d="M55.5424 49.5744C55.5424 49.7428 55.7419 49.8301 55.9477 49.8301C56.1473 49.8301 56.3531 49.7428 56.3531 49.5744V45.521C56.3531 45.3463 56.1473 45.2715 55.9477 45.2715C55.7419 45.2715 55.5424 45.3463 55.5424 45.521V49.5744Z" fill="#2B4963"/>
<path d="M60.4813 46.5998C60.4876 46.7869 60.6559 46.8555 60.8867 46.8555C61.161 46.8555 61.292 46.7806 61.292 46.4563C61.292 45.733 60.6747 45.2715 59.8078 45.2715C59.0221 45.2715 58.3674 45.6582 58.3674 46.6996V48.4394C58.3674 49.4808 59.0158 49.8675 59.8016 49.8675C60.6747 49.8675 61.292 49.3873 61.292 48.6328C61.292 48.3147 61.161 48.2336 60.8804 48.2336C60.6684 48.2336 60.4938 48.296 60.4813 48.4893C60.4626 48.7512 60.4127 49.1565 59.8453 49.1565C59.415 49.1565 59.178 48.9259 59.178 48.4394V46.6996C59.178 46.2132 59.415 45.9824 59.8327 45.9824C60.4252 45.9824 60.4688 46.4065 60.4813 46.5998Z" fill="#2B4963"/>
<path d="M63.3425 49.8304C63.4796 49.8304 63.5856 49.7867 63.6168 49.6682L63.8537 48.8388H65.2818L65.5188 49.6682C65.55 49.7867 65.656 49.8304 65.7932 49.8304C66.0114 49.8304 66.3045 49.6869 66.3045 49.4936C66.3045 49.4749 66.2983 49.4562 66.2921 49.4312L65.0886 45.5088C65.0324 45.3217 64.8017 45.2344 64.5647 45.2344C64.3339 45.2344 64.1033 45.3217 64.0471 45.5088L62.8435 49.4312C62.8374 49.4562 62.8311 49.4811 62.8311 49.4936C62.8311 49.6931 63.1242 49.8304 63.3425 49.8304ZM64.0221 48.2027L64.5647 46.2883L65.1072 48.2027H64.0221Z" fill="#2B4963"/>
<path d="M67.9806 1.46449C67.9806 0.950152 68.3975 0.533203 68.9118 0.533203C69.4262 0.533203 69.8431 0.950152 69.8431 1.46449V21.5407L67.9806 20.4654V1.46449Z" fill="#EC565C"/>
<path d="M64.4371 18.4195V1.90589C64.4371 1.39155 64.0202 0.974609 63.5058 0.974609C62.9915 0.974609 62.5746 1.39156 62.5746 1.90589V17.846C62.7617 17.6646 63.0532 17.6207 63.2906 17.7575L64.4371 18.4195Z" fill="#EC565C"/>
<path d="M61.754 19.2221V2.48012C61.754 1.96578 61.3371 1.54883 60.8227 1.54883C60.3084 1.54883 59.8914 1.96578 59.8914 2.48011V22.4481L61.754 19.2221Z" fill="#EC565C"/>
<path d="M59.8914 23.5576C59.9033 23.5657 59.9154 23.5734 59.9279 23.5807L61.754 24.6349V26.0323C61.754 26.5466 61.3371 26.9636 60.8227 26.9636C60.3084 26.9636 59.8914 26.5466 59.8914 26.0323V23.5576Z" fill="#EC565C"/>
<path d="M62.5746 25.1094L64.1658 26.0281C63.9972 26.1976 63.7638 26.3025 63.5058 26.3025C62.9915 26.3025 62.5746 25.8855 62.5746 25.3712V25.1094Z" fill="#EC565C"/>
<path d="M73.3069 42.7852V53.4257C73.3069 53.9401 73.7239 54.357 74.2382 54.357C74.7525 54.357 75.1695 53.9401 75.1695 53.4257V42.7852H73.3069Z" fill="#EC565C"/>
<path d="M75.1695 12.8982H73.3069V6.14223C73.3069 5.62789 73.7239 5.21094 74.2382 5.21094C74.7525 5.21094 75.1695 5.62789 75.1695 6.14223V12.8982Z" fill="#EC565C"/>
<path d="M72.5661 12.8981V4.95082C72.5661 4.43648 72.1492 4.01953 71.6348 4.01953C71.1205 4.01953 70.7035 4.43648 70.7035 4.95081V13.2994C70.7851 13.0659 71.0075 12.8981 71.2688 12.8981H72.5661Z" fill="#EC565C"/>
<path d="M58.1396 2.20996C57.6253 2.20996 57.2083 2.62691 57.2083 3.14124V26.0323C57.2083 26.5466 57.6253 26.9636 58.1396 26.9636C58.654 26.9636 59.0709 26.5466 59.0709 26.0323V3.14125C59.0709 2.62691 58.654 2.20996 58.1396 2.20996Z" fill="#EC565C"/>
<path d="M54.5252 3.84731C54.5252 3.33297 54.9422 2.91602 55.4565 2.91602C55.9709 2.91602 56.3878 3.33297 56.3878 3.84731V26.2972C56.3878 26.8115 55.9709 27.2285 55.4565 27.2285C54.9422 27.2285 54.5252 26.8115 54.5252 26.2972V3.84731Z" fill="#EC565C"/>
<path d="M52.7734 5.21094C52.2591 5.21094 51.8421 5.62789 51.8421 6.14223V25.3711C51.8421 25.8853 52.2591 26.3023 52.7734 26.3023C53.2878 26.3023 53.7047 25.8853 53.7047 25.371V6.14223C53.7047 5.62789 53.2878 5.21094 52.7734 5.21094Z" fill="#EC565C"/>
<path d="M49.159 9.31896C49.159 8.80465 49.576 8.3877 50.0903 8.3877C50.6047 8.3877 51.0216 8.80465 51.0216 9.31896V23.1646C51.0216 23.6789 50.6047 24.0959 50.0903 24.0959C49.576 24.0959 49.159 23.6789 49.159 23.1646V9.31896Z" fill="#EC565C"/>
<path d="M46.6974 16.0031C46.6974 15.55 47.0647 15.1826 47.518 15.1826C47.9711 15.1826 48.3385 15.55 48.3385 16.0031V21.7468C48.3385 22.2 47.9711 22.5674 47.518 22.5674C47.0647 22.5674 46.6974 22.2 46.6974 21.7468V16.0031Z" fill="#EC565C"/>
<path d="M65.2576 1.46449C65.2576 0.950152 65.6745 0.533203 66.1889 0.533203C66.7032 0.533203 67.1202 0.950152 67.1202 1.46449V19.9015L65.2576 18.7528V1.46449Z" fill="#EC565C"/>
<path d="M75.9898 42.7867V58.5053C75.9898 59.0196 76.4068 59.4366 76.9211 59.4366C77.4354 59.4366 77.8524 59.0196 77.8524 58.5053V42.332C77.7882 42.5935 77.5528 42.7867 77.2718 42.7867H75.9898Z" fill="#2B4963"/>
<path d="M77.8524 13.3542C77.7882 13.093 77.5528 12.8992 77.2718 12.8992H75.9898V6.1432C75.9898 5.62887 76.4068 5.21191 76.9211 5.21191C77.4354 5.21191 77.8524 5.62887 77.8524 6.1432V13.3542Z" fill="#2B4963"/>
<path d="M78.6729 34.1621V58.3406C78.6729 58.855 79.0899 59.2719 79.6042 59.2719C80.1186 59.2719 80.5355 58.855 80.5355 58.3406V35.3115L78.6729 34.1621Z" fill="#2B4963"/>
<path d="M80.5355 20.3749L78.6729 21.5243V5.23304C78.6729 4.7187 79.0899 4.30176 79.6042 4.30176C80.1186 4.30176 80.5355 4.7187 80.5355 5.23304V20.3749Z" fill="#2B4963"/>
<path d="M81.3162 28.1666V27.5197L83.1787 26.4443V29.242L81.3162 28.1666Z" fill="#2B4963"/>
<path d="M81.3162 35.7939V58.3412C81.3162 58.8555 81.7331 59.2725 82.2475 59.2725C82.7618 59.2725 83.1787 58.8555 83.1787 58.3412V36.9434L81.3162 35.7939Z" fill="#2B4963"/>
<path d="M84.039 37.4737V55.1937C84.039 55.708 84.456 56.125 84.9703 56.125C85.4847 56.125 85.9016 55.708 85.9016 55.1937V37.1709L85.5915 37.708C85.4262 37.9942 85.0604 38.0926 84.7743 37.9274L84.039 37.4737Z" fill="#2B4963"/>
<path d="M86.7222 35.7505L88.3555 32.9218C88.4351 32.7844 88.4569 32.6199 88.4149 32.4681C88.3743 32.3149 88.2737 32.1843 88.1362 32.1046L86.7222 31.2883V24.399L88.1362 23.5826C88.2737 23.5029 88.3743 23.3723 88.4149 23.2191C88.4569 23.0659 88.4351 22.9021 88.3555 22.7647L86.7222 19.9364V6.74476C86.7222 6.23043 87.1391 5.81348 87.6534 5.81348C88.1678 5.81348 88.5847 6.23043 88.5847 6.74476V52.891C88.5847 53.4054 88.1678 53.8223 87.6534 53.8223C87.1391 53.8223 86.7222 53.4054 86.7222 52.891V35.7505Z" fill="#2B4963"/>
<path d="M85.9016 18.5151V7.39906C85.9016 6.88473 85.4847 6.46777 84.9703 6.46777C84.456 6.46777 84.039 6.88472 84.039 7.39906V18.2124L84.7743 17.7587C85.0604 17.5935 85.4262 17.6919 85.5915 17.9781L85.9016 18.5151Z" fill="#2B4963"/>
<path d="M84.039 25.9475V29.7385L85.9016 30.8139V24.8721L84.039 25.9475Z" fill="#2B4963"/>
<path d="M83.1787 18.7436V5.23304C83.1787 4.7187 82.7618 4.30176 82.2475 4.30176C81.7331 4.30176 81.3162 4.7187 81.3162 5.23304V19.8931L83.1787 18.7436Z" fill="#2B4963"/>
<path d="M89.4053 14.9411C89.4053 14.4267 89.8222 14.0098 90.3366 14.0098C90.8509 14.0098 91.2678 14.4267 91.2678 14.9411V47.3124C91.2678 47.8268 90.8509 48.2437 90.3366 48.2437C89.8222 48.2437 89.4053 47.8268 89.4053 47.3124V14.9411Z" fill="#2B4963"/>
<path d="M93.0194 17.127C92.5052 17.127 92.0884 17.5439 92.0884 18.0582V43.8809C92.0884 44.3952 92.5052 44.8122 93.0194 44.8122C93.5345 44.8122 93.9508 44.3952 93.9508 43.8809V18.0582C93.9508 17.5439 93.5345 17.127 93.0194 17.127Z" fill="#2B4963"/>
<path d="M94.7714 20.8581C94.7714 20.3437 95.1886 19.9268 95.7028 19.9268C96.2169 19.9268 96.6342 20.3437 96.6342 20.8581V31.2573C96.6342 31.7717 96.2169 32.1886 95.7028 32.1886C95.1886 32.1886 94.7714 31.7717 94.7714 31.2573V20.8581Z" fill="#2B4963"/>
<path d="M98.3862 22.3652C97.872 22.3652 97.4548 22.7822 97.4548 23.2965V28.4795C97.4548 28.9939 97.872 29.4108 98.3862 29.4108C98.9003 29.4108 99.3175 28.9939 99.3175 28.4795V23.2965C99.3175 22.7822 98.9003 22.3652 98.3862 22.3652Z" fill="#2B4963"/>
<path d="M100.138 22.8229C100.138 22.3086 100.554 21.8916 101.069 21.8916C101.584 21.8916 102 22.3086 102 22.8229V26.1929C102 26.7072 101.584 27.1242 101.069 27.1242C100.554 27.1242 100.138 26.7072 100.138 26.1929V22.8229Z" fill="#2B4963"/>
<path d="M77.7193 33.801V33.0081L85.0988 37.2691C85.3858 37.4343 85.7516 37.3359 85.9169 37.0497L88.6183 32.3701C88.6749 32.4369 88.717 32.5161 88.7403 32.6023C88.7538 32.6526 88.7605 32.7051 88.7605 32.757C88.7605 32.8606 88.7334 32.9643 88.6802 33.0559L85.9169 37.8427C85.7516 38.1288 85.3858 38.2272 85.0988 38.062L77.7193 33.801Z" fill="#2B4963"/>
<path d="M81.7679 27.5812L81.0812 27.1847L88.4616 22.9237C88.5215 22.8888 88.5745 22.8441 88.6185 22.792L88.6802 22.8987C88.7334 22.9911 88.7605 23.0939 88.7605 23.1984C88.7605 23.2502 88.7538 23.302 88.7403 23.3531C88.6989 23.5064 88.5983 23.6371 88.4616 23.7166L81.7679 27.5812Z" fill="#2B4963"/>
<path d="M73.1709 17.1412C73.232 16.1221 74.3912 15.5543 74.5958 16.9286C74.6568 17.3416 74.6634 18.3453 74.6634 18.3453C73.9595 18.3306 73.1709 18.7241 73.1709 18.7241V17.1412ZM74.1126 39.4336C74.067 39.8557 73.9082 39.85 73.8462 39.6112C73.7778 39.3433 73.6955 38.6842 73.7012 38.509C73.7012 38.509 74.0956 38.3233 74.217 38.263C74.217 38.263 74.1354 39.2235 74.1126 39.4336ZM73.2206 38.4976C72.9665 38.5432 72.6675 38.5539 72.9746 38.4602C74.2487 38.0683 74.4442 37.551 74.4442 37.551L74.52 36.5359C75.601 37.5372 74.0556 38.3486 73.2206 38.4976ZM73.5196 34.8235L74.4238 34.4756L74.2927 37.5396C74.2927 37.5396 74.0801 37.8239 73.641 38.0504L73.5196 34.8235ZM73.9798 34.3917C72.5876 34.9294 73.4544 35.5054 73.4544 35.5054V36.5359C71.2768 34.8536 72.5958 33.8989 73.9465 33.2928C75.1627 32.7477 74.6715 32.1115 74.6715 32.1115V30.7779C77.4894 32.4292 75.6402 33.7514 73.9798 34.3917ZM73.2923 28.5506C73.6711 27.96 74.6723 27.3987 74.6723 27.3987L74.4744 32.7021C74.2927 33.0353 73.4544 33.3082 73.4544 33.3082L73.2923 28.5506ZM73.9725 27.7172C72.4133 28.861 73.2255 29.4598 73.2255 29.4598L73.2466 31.1412C70.6291 29.6227 71.7208 27.52 73.2466 26.3836C74.7823 25.2406 74.823 24.7925 74.823 24.7925V23.2927C77.9709 25.2129 75.2817 26.7559 73.9725 27.7172ZM73.1709 26.2321V20.3991C73.1709 20.3991 73.4935 20.1938 74.168 20.0667C74.168 20.0667 74.2349 20.3233 74.6723 20.4593V24.808C74.6723 24.808 73.8528 25.8988 73.1709 26.2321ZM76.1713 20.3079C74.4059 20.698 74.2316 19.8988 74.2316 19.8988C71.2165 20.5954 73.0047 22.0048 73.0047 22.0048V23.929C70.656 22.1717 70.959 20.2622 72.4442 19.2928C73.9285 18.3233 74.9811 18.4895 75.2019 18.5351C75.9594 18.6907 77.0617 20.1107 76.1713 20.3079Z" fill="#EC565C"/>
</svg>
