<svg width="201" height="40" viewBox="0 0 201 40" fill="none" xmlns="http://www.w3.org/2000/svg">
<g clip-path="url(#clip0_298_13215)">
<path d="M41.6694 18.6369C41.6694 20.8469 39.8709 22.6434 37.6589 22.6434C35.4464 22.6434 33.6584 20.8469 33.6584 18.6369C33.6584 16.4269 35.4564 14.6309 37.6584 14.6309C38.185 14.6301 38.7065 14.7331 39.1932 14.9341C39.6798 15.1351 40.1221 15.43 40.4946 15.8021C40.8672 16.1742 41.1627 16.6161 41.3643 17.1025C41.5659 17.5889 41.6696 18.1103 41.6694 18.6369Z" fill="black"/>
<path d="M54.9031 1.61198C54.3481 2.49998 46.8621 14.267 46.1346 15.387C45.9731 15.649 45.8011 15.9015 45.6496 16.1535C45.5486 16.315 45.4376 16.4765 45.3366 16.6385C44.5586 13.621 42.0331 11.3 38.9016 10.8055C39.0431 10.5835 43.4376 3.64048 44.5486 1.87448C44.6696 1.67248 44.7911 1.52148 45.0636 1.52148C48.2966 1.53148 51.5186 1.53148 54.7516 1.53148C54.7816 1.55148 54.8121 1.58148 54.9031 1.61198Z" fill="#3467FE"/>
<path d="M56.772 35.7113C55.1555 37.6288 53.337 38.9813 51.024 39.5263C47.842 40.2728 44.8215 39.9298 42.104 37.9718C40.134 36.5488 38.9315 34.5508 38.053 32.3308C38.023 32.2603 37.992 32.1898 37.962 32.0988C37.952 32.0788 37.952 32.0588 37.942 32.0383C37.5916 31.099 37.2582 30.1536 36.942 29.2023C36.6285 28.2538 36.3255 27.2448 36.1235 26.3873C36.6285 26.4878 37.1435 26.5383 37.679 26.5383C40.033 26.5383 42.144 25.5093 43.589 23.8843L43.609 23.8643C44.144 25.1863 44.7 27.2548 45.2255 28.8593V28.8693C45.367 29.3133 45.508 29.7173 45.6495 30.0603C46.2355 31.5133 46.852 32.9463 48.0235 34.0263L48.266 34.2383C49.7915 35.4993 51.62 35.8323 53.5295 35.8933C54.5595 35.9433 55.59 35.8023 56.772 35.7113Z" fill="#0217FF"/>
<path d="M30.9611 22.855C29.0821 25.4785 27.0516 27.971 24.6576 30.181C22.6371 32.048 20.4856 33.713 17.8991 34.722C16.9091 35.1055 15.8891 35.3175 14.8181 35.307C11.8081 35.3175 9.64555 33.4305 8.99905 30.282C8.43355 27.487 8.71655 24.722 9.50406 22.027C10.9591 17.032 13.5151 12.612 16.9091 8.68697C18.4446 6.91047 20.2126 5.38697 22.5161 4.64997C24.1421 4.13497 25.7791 3.98397 27.3751 4.80147C28.5976 5.42697 29.4561 6.44647 30.1331 7.60647C31.1031 9.26147 31.7086 11.048 32.2241 12.8745C33.6914 11.4837 35.6374 10.7105 37.6591 10.715C38.0831 10.715 38.4871 10.745 38.8916 10.806C38.9216 10.7655 39.0936 10.493 39.3666 10.059C39.0026 9.23147 38.6996 8.47447 38.3561 7.73797C37.2751 5.44747 35.8101 3.46947 33.6886 2.03647C31.1836 0.351469 28.3851 -0.193531 25.3851 0.0584686C21.5561 0.381469 17.9901 1.49147 14.7371 3.49997C9.55506 6.69847 5.48355 10.9775 2.63506 16.356C0.806555 19.797 -0.244945 23.4605 0.0485551 27.406C0.422555 32.492 2.98855 36.135 7.55505 38.355C11.1111 40.0905 14.8891 40.242 18.7181 39.768C21.9001 39.3745 24.9006 38.335 27.6681 36.7305C31.0226 34.793 33.9316 32.26 36.6491 29.505C36.7401 29.404 36.8006 29.263 36.9321 29.202C36.6191 28.2535 36.3161 27.2445 36.1136 26.387C35.0597 26.1796 34.0593 25.7594 33.1734 25.1521C32.2876 24.5448 31.5344 23.7632 30.9611 22.855Z" fill="#0219FA"/>
<path d="M74.4201 22.9252H66.7326L65.2176 26.4777H62.2776L69.1976 11.1187H72.0061L78.9461 26.4677H75.9561L74.4206 22.9257L74.4201 22.9252ZM73.4711 20.6852L70.5716 13.9747L67.7026 20.6852H73.4711ZM80.6336 10.2002H83.3811V26.4777H80.6336V10.2002ZM99.4231 20.6152C99.4231 24.2577 96.8981 26.6192 93.4731 26.6192C91.9781 26.6192 90.6646 26.1142 89.7151 25.0447V30.7262H86.9776V14.7617H89.5941V16.2957C90.5131 15.1757 91.8771 14.6307 93.4831 14.6307C96.8981 14.6307 99.4231 17.0027 99.4231 20.6152ZM96.6351 20.6152C96.6351 18.3747 95.1401 16.9517 93.1701 16.9517C91.1901 16.9517 89.6751 18.3747 89.6751 20.6147C89.6751 22.8547 91.1901 24.2777 93.1701 24.2777C95.1401 24.2777 96.6351 22.8557 96.6351 20.6152ZM113.587 19.7672V26.4777H110.839V20.1202C110.839 18.0417 109.809 17.0322 108.051 17.0322C106.101 17.0322 104.778 18.2132 104.778 20.5642V26.4877H102.03V10.2007H104.778V16.1242C105.677 15.1552 107.061 14.6307 108.687 14.6307C111.506 14.6307 113.587 16.2352 113.587 19.7672ZM126.891 19.6157V26.4777H124.305V25.0552C123.648 26.0647 122.375 26.6297 120.618 26.6297C117.941 26.6297 116.254 25.1562 116.254 23.1177C116.254 21.1702 117.567 19.6262 121.123 19.6262H124.153V19.4547C124.153 17.8502 123.183 16.9117 121.234 16.9117C119.921 16.9117 118.557 17.3457 117.678 18.0722L116.607 16.0742C117.86 15.1052 119.678 14.6312 121.567 14.6312C124.941 14.6312 126.891 16.2352 126.891 19.6157ZM124.143 22.8147V21.4522H121.315C119.446 21.4522 118.941 22.1587 118.941 23.0062C118.941 23.9952 119.779 24.6312 121.183 24.6312C122.527 24.6312 123.689 24.0157 124.143 22.8147ZM152.732 11.1187L147.641 26.4677H144.61L140.812 15.1047L136.953 26.4677H133.902L128.8 11.1187H131.76L135.579 22.7842L139.549 11.1192H142.186L146.075 22.8552L150.005 11.1187H152.732ZM164.522 19.6157V26.4777H161.935V25.0552C161.279 26.0647 160.006 26.6297 158.248 26.6297C155.571 26.6297 153.884 25.1562 153.884 23.1177C153.884 21.1702 155.197 19.6262 158.753 19.6262H161.784V19.4547C161.784 17.8502 160.814 16.9117 158.864 16.9117C157.551 16.9117 156.187 17.3457 155.308 18.0722L154.238 16.0742C155.49 15.1052 157.309 14.6312 159.198 14.6312C162.572 14.6312 164.522 16.2352 164.522 19.6157ZM161.774 22.8147V21.4522H158.945C157.076 21.4522 156.571 22.1587 156.571 23.0062C156.571 23.9952 157.41 24.6312 158.814 24.6312C160.147 24.6312 161.319 24.0157 161.774 22.8147ZM167.613 10.2002H170.361V26.4777H167.613V10.2002ZM173.957 10.2002H176.705V26.4777H173.957V10.2002ZM191.282 21.4927H182.079C182.412 23.2082 183.837 24.2977 185.877 24.2977C187.191 24.2977 188.231 23.8842 189.06 23.0267L190.535 24.7117C189.484 25.9632 187.837 26.6192 185.817 26.6192C181.887 26.6192 179.342 24.0962 179.342 20.6147C179.342 17.1332 181.907 14.6307 185.403 14.6307C188.827 14.6307 191.333 17.0222 191.333 20.6857C191.323 20.9072 191.302 21.2307 191.282 21.4927ZM182.059 19.6762H188.716C188.494 17.9912 187.201 16.8202 185.403 16.8202C183.625 16.8302 182.321 17.9707 182.059 19.6762ZM201.01 25.8422C200.354 26.3672 199.364 26.6292 198.374 26.6292C195.808 26.6292 194.333 25.2667 194.333 22.6837V17.0422H192.403V14.8522H194.333V12.1782H197.081V14.8527H200.222V17.0427H197.081V22.6127C197.081 23.7527 197.656 24.3687 198.707 24.3687C199.283 24.3687 199.828 24.2172 200.242 23.8842L201.01 25.8422Z" fill="#050505"/>
</g>
<defs>
<clipPath id="clip0_298_13215">
<rect width="201" height="40" fill="white"/>
</clipPath>
</defs>
</svg>
