<svg width="145" height="40" viewBox="0 0 145 40" fill="none" xmlns="http://www.w3.org/2000/svg">
<path d="M83.7931 5.60375L91.8965 8.79341L83.7931 11.8106V16.121L97.6724 10.5175V7.06927L83.7931 1.46582V5.60375Z" fill="#008FFF"/>
<path d="M9.39654 21.6377C5.51723 21.6377 2.67241 23.3618 2.41379 26.9825H6.72413V26.8963C6.81034 25.6894 7.93103 24.8273 9.13793 24.9136C10.7759 24.9136 11.5517 25.8618 11.5517 27.4998V28.2756H9.56896C5.34482 28.2756 1.89655 29.5687 1.89655 33.6205V33.7929C1.89655 37.0687 4.31034 38.5342 7.24137 38.5342C9.05172 38.6205 10.6896 37.7584 11.7241 36.3791V38.2756H16.1207V27.4136C16.0345 23.2756 13.1896 21.6377 9.39654 21.6377ZM8.44827 35.3446C6.89655 35.3446 6.20689 34.5687 6.20689 33.448V33.2756C6.20689 31.8101 7.32758 31.2067 9.56896 31.2067H11.3793V32.7584C11.4655 34.4825 9.99999 35.3446 8.44827 35.3446Z" fill="black"/>
<path d="M26.4655 35.1722C24.3104 35.1722 23.1897 33.7067 23.1897 30.4308V29.9136C23.1897 26.7239 24.4828 25.1722 26.4655 25.1722C28.0172 25.1722 28.8793 26.2067 29.1379 27.7584H33.4483C33.1035 23.5342 30 21.6377 26.3793 21.6377C22.069 21.6377 18.6207 24.5687 18.6207 30.086V30.2584C18.6207 35.7756 21.8966 38.5342 26.3793 38.5342C30.7759 38.5342 33.2759 35.8618 33.6207 32.2411H29.4828C29.1379 34.0515 28.0172 35.1722 26.4655 35.1722Z" fill="black"/>
<path d="M43.2759 35.1722C41.1207 35.1722 40 33.7067 40 30.4308V29.9136C40 26.7239 41.2931 25.1722 43.2759 25.1722C44.8276 25.1722 45.6897 26.2067 45.9483 27.7584H50.2586C49.9138 23.5342 46.8103 21.6377 43.1897 21.6377C38.8793 21.6377 35.431 24.5687 35.431 30.086V30.2584C35.431 35.7756 38.7069 38.5342 43.1897 38.5342C47.5862 38.5342 50.0862 35.8618 50.3448 32.2411H46.2931C46.0345 34.0515 44.8276 35.1722 43.2759 35.1722Z" fill="black"/>
<path d="M60.2586 35.2584C58.2759 35.2584 57.069 34.1377 56.8966 31.2067H67.4138V29.3101C67.4138 23.9653 64.0517 21.6377 60 21.6377C55.6035 21.6377 52.2414 24.6549 52.2414 30.086V30.4308C52.2414 35.8618 55.431 38.6205 60.0862 38.6205C64.3104 38.6205 66.8966 36.2929 67.3276 33.1894H63.1035C62.931 34.4825 61.6379 35.4308 60.2586 35.2584ZM60 24.7411C61.8104 24.7411 62.931 25.7756 63.0173 28.1894H56.9828C57.3276 25.6032 58.6207 24.8274 60 24.7411Z" fill="black"/>
<path d="M79.6552 21.6378C77.5862 21.5516 75.6896 22.5861 74.7414 24.3964V21.9826H70.2586V38.1895H74.7414V28.2757C74.7414 28.1033 74.7414 28.0171 74.7414 27.8447C74.8276 26.3792 76.1207 25.1723 77.5862 25.2585C79.2241 25.2585 80 26.1206 80 28.0171V38.1895H84.5689V27.3275C84.5689 23.3619 82.5862 21.6378 79.6552 21.6378Z" fill="black"/>
<path d="M93.0172 33.0176V25.3452H96.1207V21.9831H93.0172V17.0693L88.5345 18.9659V21.9831H86.5517V25.3452H88.4482V33.5349C88.4482 36.8107 90.0862 38.4486 93.6207 38.4486C94.4827 38.4486 95.3448 38.3624 96.2069 38.1038V34.5693C95.6896 34.7417 95.1724 34.828 94.6551 34.828C93.6207 34.828 93.0172 34.2245 93.0172 33.0176Z" fill="black"/>
<path d="M108.621 32.0686C108.621 32.241 108.621 32.3273 108.621 32.4997C108.535 33.9652 107.241 35.1721 105.776 35.0859C104.138 35.0859 103.448 34.2238 103.448 32.3272V21.9824H98.8793V32.9307C98.8793 36.7238 101.035 38.5341 103.966 38.5341C105.948 38.6204 107.759 37.5859 108.707 35.7755V38.1893H113.276V21.9824H108.707L108.621 32.0686Z" fill="black"/>
<path d="M121.034 24.9136V21.8963H116.552V38.1032H121.034V29.7411C121.034 27.0687 122.845 26.1205 125.948 26.1205V21.6377C123.707 21.6377 121.724 22.9308 121.034 24.9136Z" fill="black"/>
<path d="M142.5 29.2239C142.5 23.8791 139.138 21.6377 135.086 21.6377C130.69 21.6377 127.328 24.6549 127.328 30.086V30.4308C127.328 35.8618 130.517 38.6205 135.172 38.6205C139.397 38.6205 141.897 36.2929 142.414 33.1894H138.19C137.845 34.5687 136.552 35.4308 135.172 35.3446C133.19 35.3446 131.983 34.2239 131.81 31.2929H142.328V29.2239H142.5ZM131.983 28.1894C132.328 25.517 133.621 24.7411 135.086 24.7411C136.897 24.7411 138.017 25.7756 138.103 28.1894H131.983Z" fill="black"/>
</svg>
