<svg width="131" height="40" viewBox="0 0 131 40" fill="none" xmlns="http://www.w3.org/2000/svg">
<path d="M16.0679 32.1262C11.1515 32.1262 7.39882 30.759 4.80973 28.0244C2.24973 25.2899 0.969727 21.4062 0.969727 16.3735C0.969727 13.8717 1.36245 11.6462 2.14791 9.69715C2.93336 7.71897 4.00973 6.06079 5.377 4.72261C6.74427 3.35533 8.37336 2.32261 10.2643 1.62442C12.1552 0.926239 14.2061 0.577148 16.417 0.577148C17.697 0.577148 18.8606 0.678968 19.9079 0.882604C20.9552 1.05715 21.8715 1.27533 22.657 1.53715C23.4425 1.76988 24.097 2.01715 24.6206 2.27897C25.1443 2.54079 25.5225 2.74442 25.7552 2.88988L23.7915 8.38806C22.8606 7.89351 21.7697 7.4717 20.5188 7.1226C19.297 6.77351 17.9006 6.59897 16.3297 6.59897C15.2825 6.59897 14.2497 6.77351 13.2315 7.1226C12.2425 7.4717 11.3552 8.03897 10.5697 8.82442C9.81336 9.58079 9.20245 10.5699 8.737 11.7917C8.27154 13.0135 8.03882 14.4971 8.03882 16.2426C8.03882 17.639 8.18427 18.9481 8.47518 20.1699C8.79518 21.3626 9.28973 22.3953 9.95882 23.2681C10.657 24.1408 11.5588 24.839 12.6643 25.3626C13.7697 25.8571 15.1079 26.1044 16.6788 26.1044C17.6679 26.1044 18.5552 26.0462 19.3406 25.9299C20.1261 25.8135 20.8243 25.6826 21.4352 25.5371C22.0461 25.3626 22.5843 25.1735 23.0497 24.9699C23.5152 24.7662 23.937 24.5771 24.3152 24.4026L26.1915 29.8571C25.2315 30.439 23.8788 30.9626 22.1334 31.4281C20.3879 31.8935 18.3661 32.1262 16.0679 32.1262ZM51.0957 19.9953C51.0957 21.799 50.8339 23.4571 50.3102 24.9699C49.7866 26.4535 49.0302 27.7335 48.0411 28.8099C47.052 29.8571 45.8593 30.6717 44.4629 31.2535C43.0957 31.8353 41.5538 32.1262 39.8375 32.1262C38.1502 32.1262 36.6084 31.8353 35.212 31.2535C33.8448 30.6717 32.6666 29.8571 31.6775 28.8099C30.6884 27.7335 29.9175 26.4535 29.3648 24.9699C28.812 23.4571 28.5357 21.799 28.5357 19.9953C28.5357 18.1917 28.812 16.5481 29.3648 15.0644C29.9466 13.5808 30.732 12.3153 31.7211 11.2681C32.7393 10.2208 33.932 9.40624 35.2993 8.82442C36.6957 8.24261 38.2084 7.9517 39.8375 7.9517C41.4957 7.9517 43.0084 8.24261 44.3757 8.82442C45.772 9.40624 46.9648 10.2208 47.9538 11.2681C48.9429 12.3153 49.7138 13.5808 50.2666 15.0644C50.8193 16.5481 51.0957 18.1917 51.0957 19.9953ZM44.4629 19.9953C44.4629 17.9881 44.0557 16.4171 43.2411 15.2826C42.4557 14.119 41.3211 13.5372 39.8375 13.5372C38.3538 13.5372 37.2048 14.119 36.3902 15.2826C35.5757 16.4171 35.1684 17.9881 35.1684 19.9953C35.1684 22.0026 35.5757 23.6026 36.3902 24.7953C37.2048 25.959 38.3538 26.5408 39.8375 26.5408C41.3211 26.5408 42.4557 25.959 43.2411 24.7953C44.0557 23.6026 44.4629 22.0026 44.4629 19.9953ZM69.5845 18.3372C69.0027 20.5481 68.3772 22.7444 67.7082 24.9262C67.0682 27.1081 66.3845 29.3044 65.6572 31.5153H60.5954C60.0718 30.2935 59.5045 28.839 58.8936 27.1517C58.2827 25.4644 57.6427 23.6317 56.9736 21.6535C56.3336 19.6462 55.6645 17.5371 54.9663 15.3262C54.2972 13.0862 53.6427 10.8317 53.0027 8.5626H59.8536C60.0863 9.60988 60.3336 10.759 60.5954 12.0099C60.8863 13.2317 61.1772 14.4971 61.4682 15.8062C61.7882 17.1153 62.1082 18.439 62.4282 19.7771C62.7772 21.0862 63.1263 22.3517 63.4754 23.5735C63.8536 22.2935 64.2172 20.9844 64.5663 19.6462C64.9445 18.3081 65.2936 16.999 65.6136 15.719C65.9627 14.4099 66.2827 13.159 66.5736 11.9662C66.8936 10.7444 67.17 9.60988 67.4027 8.5626H72.1154C72.3482 9.60988 72.61 10.7444 72.9009 11.9662C73.1918 13.159 73.4972 14.4099 73.8172 15.719C74.1372 16.999 74.4718 18.3081 74.8209 19.6462C75.17 20.9844 75.5336 22.2935 75.9118 23.5735C76.2609 22.3517 76.61 21.0862 76.9591 19.7771C77.3082 18.439 77.6282 17.1153 77.9191 15.8062C78.2391 14.4971 78.53 13.2317 78.7918 12.0099C79.0827 10.759 79.3445 9.60988 79.5772 8.5626H86.3409C85.7009 10.8317 85.0318 13.0862 84.3336 15.3262C83.6645 17.5371 82.9954 19.6462 82.3263 21.6535C81.6863 23.6317 81.0463 25.4644 80.4063 27.1517C79.7954 28.839 79.2281 30.2935 78.7045 31.5153H73.6427C72.9154 29.3044 72.2027 27.1081 71.5045 24.9262C70.8063 22.7444 70.1663 20.5481 69.5845 18.3372ZM103.672 14.3226C103.091 14.1771 102.407 14.0317 101.621 13.8862C100.836 13.7117 99.9924 13.6244 99.0906 13.6244C98.6833 13.6244 98.1888 13.6681 97.6069 13.7553C97.0542 13.8135 96.6324 13.8862 96.3415 13.9735V31.5153H89.8397V9.78442C91.0033 9.37715 92.3706 8.99897 93.9415 8.64988C95.5415 8.2717 97.316 8.08261 99.2651 8.08261C99.6142 8.08261 100.036 8.1117 100.531 8.16988C101.025 8.19897 101.52 8.25715 102.014 8.34442C102.509 8.4026 103.003 8.48988 103.498 8.60624C103.992 8.69351 104.414 8.80988 104.763 8.95533L103.672 14.3226ZM129.99 8.5626C128.681 12.9844 127.314 17.1299 125.889 20.999C124.463 24.8681 122.907 28.6208 121.219 32.2571C120.609 33.5662 119.998 34.6717 119.387 35.5735C118.776 36.5044 118.107 37.2608 117.38 37.8426C116.652 38.4535 115.823 38.8899 114.892 39.1517C113.991 39.4426 112.929 39.5881 111.707 39.5881C110.689 39.5881 109.743 39.4862 108.871 39.2826C108.027 39.1081 107.329 38.9044 106.776 38.6717L107.911 33.479C108.58 33.7117 109.176 33.8717 109.7 33.959C110.223 34.0462 110.776 34.0899 111.358 34.0899C112.521 34.0899 113.409 33.7699 114.02 33.1299C114.66 32.519 115.198 31.6608 115.634 30.5553C114.151 27.6462 112.667 24.3881 111.183 20.7808C109.7 17.1444 108.303 13.0717 106.994 8.5626H113.889C114.18 9.69715 114.514 10.9335 114.892 12.2717C115.3 13.5808 115.721 14.919 116.158 16.2862C116.594 17.6244 117.031 18.9335 117.467 20.2135C117.932 21.4935 118.369 22.6571 118.776 23.7044C119.154 22.6571 119.547 21.4935 119.954 20.2135C120.361 18.9335 120.754 17.6244 121.132 16.2862C121.539 14.919 121.918 13.5808 122.267 12.2717C122.645 10.9335 122.979 9.69715 123.27 8.5626H129.99Z" fill="#0E60E2"/>
</svg>
