<svg width="40" height="40" viewBox="0 0 40 40" fill="none" xmlns="http://www.w3.org/2000/svg">
<g clip-path="url(#clip0_291_3577)">
<path d="M0 0H40V40H0V0Z" fill="#C7001D"/>
<path d="M21.2895 30.3462C21.2895 30.4012 21.2959 30.4527 21.3088 30.5006C21.3228 30.5474 21.3427 30.5883 21.3684 30.6234C21.3942 30.6573 21.4263 30.6843 21.4649 30.7041C21.5035 30.724 21.5474 30.7339 21.5965 30.7339C21.6385 30.7344 21.6803 30.7267 21.7193 30.7111C21.7567 30.6948 21.7895 30.6713 21.8176 30.641C21.8456 30.6106 21.8672 30.5737 21.8825 30.5304C21.8988 30.486 21.907 30.4351 21.907 30.3778C21.9097 30.3242 21.905 30.2705 21.893 30.2182C21.8813 30.1678 21.8626 30.124 21.8369 30.0866C21.8114 30.0494 21.777 30.0193 21.7369 29.9989C21.6971 29.9766 21.6503 29.9655 21.5965 29.9655C21.5513 29.9649 21.5066 29.9757 21.4667 29.9971C21.4289 30.0173 21.396 30.0454 21.3702 30.0796C21.3432 30.116 21.323 30.157 21.3105 30.2006C21.2965 30.2462 21.2895 30.2948 21.2895 30.3462ZM21.2895 30.8041H21.1842V29.541H21.2895V30.041C21.3234 29.9848 21.3696 29.9427 21.4281 29.9146C21.4859 29.8858 21.5495 29.8708 21.6141 29.8708C21.683 29.8708 21.7427 29.8843 21.793 29.9111C21.8429 29.9356 21.8862 29.9717 21.9193 30.0164C21.9543 30.0618 21.9799 30.1137 21.9948 30.169C22.0111 30.2275 22.0193 30.2883 22.0193 30.3515C22.0193 30.4182 22.0117 30.4808 21.9965 30.5392C21.9813 30.5977 21.9567 30.6485 21.9228 30.6918C21.8892 30.7346 21.8459 30.7689 21.7965 30.7918C21.7451 30.8164 21.6825 30.8287 21.6088 30.8287C21.5795 30.8287 21.5497 30.8246 21.5193 30.8164C21.4883 30.808 21.4583 30.7962 21.4298 30.7813C21.4014 30.7658 21.3749 30.747 21.3509 30.7252C21.3274 30.7016 21.3078 30.6743 21.293 30.6445H21.2895V30.8041ZM22.2374 31.0515L22.2795 31.0585C22.2948 31.0608 22.3099 31.062 22.3251 31.062C22.3544 31.062 22.3783 31.0527 22.3971 31.0339C22.4158 31.0152 22.431 30.9924 22.4427 30.9655C22.4558 30.9391 22.4664 30.9115 22.4743 30.8831C22.4825 30.855 22.4918 30.831 22.5023 30.8111L22.1497 29.8953H22.2672L22.5585 30.676L22.8497 29.8953H22.9637L22.6251 30.7918C22.6041 30.8492 22.5836 30.9006 22.5637 30.9462C22.545 30.9918 22.5246 31.0304 22.5023 31.062C22.4813 31.0948 22.4573 31.1193 22.4304 31.1357C22.4047 31.1532 22.3737 31.162 22.3374 31.162C22.3187 31.162 22.3006 31.1608 22.283 31.1585C22.2677 31.1564 22.2525 31.1534 22.2374 31.1497V31.0515ZM24.6169 30.6357H24.6204L24.8959 29.541H25.0187L24.6871 30.8041H24.5555L24.2625 29.6883H24.259L23.9661 30.8041H23.8345L23.5082 29.541H23.6275L23.8994 30.6357H23.9029L24.1959 29.541H24.3292L24.6169 30.6357ZM25.1848 30.8041V29.541H26.0251V29.6427H25.3041V30.0989H25.955V30.2006H25.3041V30.7024H26.0427V30.8041H25.1848ZM26.252 30.8041V29.541H26.4345L26.8485 30.655H26.852L27.259 29.541H27.4397V30.8041H27.3204V29.6778H27.3169L26.9029 30.8041H26.7906L26.3748 29.6778H26.3713V30.8041H26.252ZM27.6029 30.8041L28.0994 29.541H28.2345L28.7187 30.8041H28.5959L28.4503 30.4076H27.8748L27.7257 30.8041H27.6029ZM27.9152 30.3059H28.4099L28.1625 29.6427L27.9152 30.3059ZM13.5477 27.6007H12.3539L12.1712 27.9971H11.2982V27.8835L12.7637 24.772H13.1468L14.5967 27.8835V27.9971H13.7348L13.5477 27.6007ZM12.9508 26.1306L12.6212 26.9013H13.2827L12.9508 26.1306ZM17.4927 24.8032V27.2488H18.6486V27.9971H16.6597V24.8032H17.4927ZM23.0892 27.6007H21.8955L21.7128 27.9971H20.8397V27.8835L22.3053 24.772H22.6884L24.1383 27.8835V27.9971H23.2763L23.0892 27.6007ZM22.4924 26.1306L22.1627 26.9013H22.8242L22.4924 26.1306ZM27.0115 25.5337H26.2275V24.8032H28.5995V25.5337H27.8199V27.9971H27.0115V25.5337ZM9.75433 22.5966H20.3528C20.5614 22.5966 20.6971 22.377 20.6039 22.1904L20.3859 21.7545L19.9298 20.9475L19.9063 20.9083C19.8813 20.8668 19.846 20.8324 19.8039 20.8085C19.7617 20.7846 19.714 20.772 19.6656 20.772H12.9472C12.7301 20.772 12.5951 20.536 12.7054 20.3489L17.0931 12.8991C17.2013 12.7155 17.4667 12.7146 17.5759 12.8977L23.2867 22.4598C23.3116 22.5015 23.3469 22.5361 23.3891 22.56C23.4314 22.584 23.4791 22.5966 23.5277 22.5966H30.04C30.2561 22.5966 30.3912 22.3626 30.2831 22.1756L22.5021 8.70187C22.4774 8.6592 22.442 8.62377 22.3993 8.59913C22.3566 8.5745 22.3082 8.56152 22.259 8.56152H20.8637C20.6496 8.56152 20.5143 8.79177 20.6186 8.97893L26.9602 20.3546C27.0646 20.5418 26.9293 20.772 26.7151 20.772H24.6174C24.5683 20.7721 24.5201 20.7592 24.4775 20.7347C24.435 20.7103 24.3996 20.6751 24.3749 20.6327L17.625 9.05177C17.6003 9.00936 17.5649 8.97417 17.5224 8.94971C17.4798 8.92526 17.4316 8.91239 17.3825 8.9124H17.3543C17.3052 8.9124 17.257 8.92529 17.2144 8.94977C17.1718 8.97425 17.1364 9.00947 17.1117 9.05191L9.51174 22.1101C9.48677 22.1529 9.47362 22.2017 9.47363 22.2513V22.3159C9.47363 22.3904 9.50321 22.4618 9.55585 22.5144C9.60849 22.567 9.67989 22.5966 9.75433 22.5966Z" fill="white"/>
</g>
<defs>
<clipPath id="clip0_291_3577">
<rect width="40" height="40" fill="white"/>
</clipPath>
</defs>
</svg>
