<svg width="107" height="40" viewBox="0 0 107 40" fill="none" xmlns="http://www.w3.org/2000/svg">
<g clip-path="url(#clip0_291_3581)">
<path d="M44.6344 28.1829L42.2644 28.171L52.4026 3.31828H52.9516L62.9107 28.1829H60.7119L57.9983 21.3826H47.3506L44.6344 28.1829ZM48.1722 19.2883H57.1715L52.6738 8.0927L48.1722 19.2883ZM68.1144 25.075C69.05 25.746 70.1753 26.1011 71.3266 26.0886C72.0001 26.0949 72.6695 25.9785 73.3015 25.745C73.8857 25.5298 74.4224 25.203 74.8817 24.7828C75.328 24.3707 75.6796 23.8668 75.9123 23.3058C76.1598 22.6952 76.2826 22.0413 76.2736 21.3826C76.2778 20.7736 76.1965 20.1669 76.0321 19.5805C75.862 19.0001 75.5824 18.4577 75.2083 17.9824C74.7703 17.435 74.2487 16.9601 73.6627 16.5753C72.8966 16.0758 72.0784 15.6614 71.2226 15.3392C69.4137 14.6284 68.0402 13.7508 67.1016 12.7065C66.1633 11.6622 65.6936 10.3169 65.6928 8.6706C65.6871 7.94798 65.8273 7.23166 66.1049 6.56447C66.373 5.92514 66.7706 5.34828 67.2728 4.87025C67.7991 4.37596 68.418 3.99077 69.094 3.73692C69.8515 3.45416 70.6549 3.31444 71.4634 3.32488C72.4878 3.31238 73.4986 3.56061 74.4008 4.04624C75.2721 4.52022 75.9998 5.21998 76.5076 6.07209L74.8647 7.26869C74.0402 6.03128 72.9069 5.41304 71.4634 5.41393C70.4566 5.41393 69.6328 5.71141 68.9913 6.30645C68.3491 6.90141 68.0287 7.67978 68.0287 8.64162C68.0098 9.61752 68.3532 10.5658 68.9926 11.3033C69.6341 12.0466 70.7675 12.7486 72.3919 13.4094C74.5906 14.28 76.177 15.3502 77.1504 16.6201C78.1239 17.8899 78.6083 19.4546 78.6035 21.3141C78.611 22.2348 78.4477 23.1489 78.1219 24.0101C77.8146 24.8295 77.3367 25.5743 76.7198 26.1952C76.0674 26.8344 75.2896 27.3314 74.4355 27.655C73.4412 28.0232 72.3867 28.2018 71.3266 28.1816C69.7968 28.1948 68.2931 27.7848 66.9818 26.9969C65.6747 26.2178 64.6472 25.0457 64.0457 23.648L65.9008 22.3093C66.3756 23.4141 67.1405 24.3697 68.1144 25.075ZM105.538 20.6665C104.561 22.9145 102.948 24.8279 100.897 26.1717C98.8468 27.5156 96.4484 28.2315 93.9967 28.2315C91.545 28.2315 89.1466 27.5156 87.096 26.1717C85.0458 24.8279 83.4328 22.9145 82.4552 20.6665C81.7831 19.1176 81.4436 17.4449 81.4586 15.7565C81.4436 14.0677 81.7831 12.3946 82.4552 10.8452C83.4334 8.59775 85.0466 6.68485 87.0967 5.34141C89.1471 3.99784 91.5453 3.28216 93.9967 3.28223C96.4484 3.28223 98.8464 3.99787 100.897 5.34141C102.947 6.68485 104.56 8.59775 105.538 10.8452C106.211 12.3944 106.55 14.0677 106.535 15.7565C106.55 17.445 106.211 19.1178 105.538 20.6665ZM84.6035 19.8425C85.6309 22.3074 87.5867 24.2692 90.0484 25.304C91.2999 25.8255 92.6423 26.0939 93.9981 26.0939C95.3538 26.0939 96.6967 25.8254 97.9477 25.304C99.1604 24.7929 100.263 24.0523 101.195 23.1228C102.159 22.154 102.921 21.0037 103.437 19.7383C103.953 18.4729 104.212 17.1177 104.201 15.7513C104.212 14.3848 103.953 13.0297 103.437 11.7643C102.921 10.4989 102.159 9.34848 101.195 8.37964C100.263 7.45028 99.1606 6.71004 97.9477 6.19978C96.6962 5.67836 95.3538 5.40993 93.9981 5.40998C92.6423 5.40998 91.2994 5.67842 90.0484 6.19978C88.8357 6.71025 87.7331 7.45047 86.8015 8.37964C85.8379 9.34855 85.0762 10.4991 84.5606 11.7646C84.0449 13.0299 83.7852 14.3849 83.7967 15.7513C83.7838 17.1539 84.0579 18.5444 84.6021 19.8372L84.6035 19.8425ZM43.6298 36.1626C43.8022 36.2867 44.0099 36.3522 44.2223 36.3496C44.3467 36.3507 44.4702 36.3293 44.587 36.2864C44.6946 36.2467 44.7935 36.1863 44.8779 36.1087C44.9599 36.033 45.0246 35.9405 45.0675 35.8375C45.1136 35.7248 45.1364 35.6039 45.1347 35.4821C45.1351 35.37 45.1201 35.2584 45.0899 35.1504C45.059 35.0432 45.0076 34.9431 44.9385 34.8556C44.8579 34.7531 44.7615 34.6643 44.6528 34.5923C44.5113 34.5001 44.3603 34.4233 44.2025 34.3632C43.9181 34.2627 43.6604 34.0983 43.4494 33.8828C43.27 33.6775 43.1758 33.4115 43.186 33.139C43.1841 33.0036 43.2101 32.8691 43.2624 32.7441C43.3118 32.6261 43.3848 32.5195 43.4771 32.4308C43.5742 32.3401 43.6883 32.2694 43.8128 32.2228C43.9524 32.1701 44.1007 32.1442 44.2499 32.1465C44.4386 32.1431 44.625 32.1885 44.7911 32.2782C44.9546 32.364 45.0913 32.4934 45.186 32.652L44.8819 32.8731C44.8166 32.7661 44.7243 32.6782 44.6143 32.6181C44.5043 32.558 44.3805 32.528 44.2552 32.5309C44.0877 32.5245 43.9243 32.5835 43.7996 32.6954C43.741 32.7503 43.6947 32.8171 43.6641 32.8913C43.6334 32.9656 43.619 33.0456 43.6219 33.1258C43.618 33.3059 43.6813 33.481 43.7996 33.6169C43.9762 33.794 44.1904 33.929 44.4264 34.0118C44.7665 34.127 45.0694 34.3316 45.3032 34.6041C45.4407 34.7997 45.5289 35.0256 45.5603 35.2626C45.5917 35.4996 45.5654 35.7406 45.4836 35.9652C45.426 36.117 45.3362 36.2544 45.2203 36.368C45.0994 36.4838 44.956 36.5734 44.799 36.6313C44.575 36.713 44.3359 36.7447 44.0984 36.724C43.8609 36.7033 43.6308 36.6307 43.4244 36.5115C43.1837 36.3676 42.9944 36.1516 42.8833 35.8941L43.2256 35.6467C43.3108 35.8522 43.4506 36.0307 43.6298 36.1626ZM46.2302 36.7365H45.7773L47.6627 32.1517H47.7641L49.6481 36.7365H49.1953L48.6949 35.482H46.7305L46.2302 36.7365ZM46.8819 35.0964H48.5422L47.7127 33.031L46.8819 35.0964ZM49.1689 32.2649L49.5744 32.1517L51.057 35.8559L52.5343 32.1517L52.9398 32.2649L51.103 36.7405H51.0017L49.1689 32.2649ZM53.9009 36.6602H53.469V32.228H53.9009V36.6602ZM55.2992 36.6602H54.8673V32.1952L54.999 32.1517L57.9877 35.7861V32.232H58.4183V36.6958L58.2866 36.7405L55.2992 33.1073V36.6602ZM63.3307 35.3531C63.2402 35.6174 63.1004 35.8622 62.9186 36.0744C62.7402 36.2802 62.5198 36.4454 62.2722 36.5588C61.9996 36.6814 61.7033 36.7421 61.4045 36.7365C61.1062 36.7379 60.8106 36.6805 60.5345 36.5676C60.2584 36.4547 60.0073 36.2884 59.7956 36.0784C59.5867 35.8689 59.4192 35.6219 59.3018 35.3505C59.181 35.0638 59.1188 34.7559 59.1188 34.4448C59.1188 34.1337 59.181 33.8258 59.3018 33.5391C59.4815 33.1249 59.779 32.7726 60.1573 32.5262C60.5356 32.2797 60.978 32.15 61.4295 32.153C61.7928 32.1487 62.1517 32.2332 62.4749 32.3992C62.7824 32.5542 63.052 32.7748 63.2649 33.0455L62.9358 33.293C62.7622 33.065 62.5406 32.8781 62.2866 32.7454C62.0238 32.6067 61.7306 32.5356 61.4334 32.5387C61.1833 32.5373 60.9356 32.587 60.7053 32.6848C60.2428 32.8898 59.8789 33.2676 59.6914 33.7375C59.5039 34.2074 59.5077 34.732 59.702 35.199C59.7965 35.424 59.9328 35.629 60.1036 35.8033C60.2705 35.9707 60.4675 36.1051 60.6843 36.1995C60.9102 36.2962 61.1535 36.3455 61.3992 36.3443C61.6181 36.3481 61.8357 36.3082 62.0391 36.2271C62.2223 36.154 62.3892 36.0452 62.5302 35.9073C62.6687 35.77 62.7815 35.6091 62.8633 35.432C62.9483 35.2484 63.0018 35.0517 63.0213 34.8502H61.7666V34.4632H63.4782C63.475 34.7656 63.4252 35.0657 63.3307 35.3531ZM64.6263 36.1626C64.7988 36.2866 65.0064 36.3521 65.2187 36.3496C65.3431 36.3507 65.4667 36.3293 65.5835 36.2864C65.6911 36.2466 65.79 36.1862 65.8745 36.1086C65.9572 36.0336 66.022 35.941 66.0641 35.8375C66.1101 35.7247 66.133 35.6039 66.1312 35.4821C66.1323 35.3699 66.1172 35.2582 66.0864 35.1503C66.0555 35.0432 66.0041 34.943 65.935 34.8555C65.8544 34.7531 65.758 34.6642 65.6493 34.5922C65.5083 34.5001 65.3578 34.4233 65.2004 34.3632C64.9127 34.2626 64.6523 34.0968 64.4394 33.8788C64.2599 33.6735 64.1657 33.4075 64.176 33.135C64.174 32.9995 64.2 32.8651 64.2524 32.7401C64.3017 32.6221 64.3748 32.5155 64.467 32.4268C64.5641 32.3361 64.6782 32.2654 64.8027 32.2188C64.9423 32.1661 65.0906 32.1402 65.2398 32.1425C65.429 32.1393 65.6157 32.1847 65.7823 32.2741C65.9453 32.3608 66.0818 32.49 66.1773 32.648L65.8732 32.8691C65.8074 32.7622 65.7149 32.6744 65.6047 32.6144C65.4946 32.5543 65.3706 32.5242 65.2451 32.5269C65.0777 32.5205 64.9143 32.5795 64.7896 32.6914C64.7309 32.7463 64.6847 32.8131 64.654 32.8874C64.6234 32.9616 64.609 33.0416 64.6118 33.1218C64.6079 33.3019 64.6713 33.477 64.7896 33.6129C64.9663 33.7897 65.1805 33.9246 65.4163 34.0077C65.7566 34.1233 66.0598 34.3279 66.2945 34.6001C66.4767 34.8507 66.5695 35.1553 66.5578 35.465C66.5587 35.6344 66.5288 35.8025 66.4696 35.9612C66.4114 36.1127 66.3216 36.25 66.2062 36.364C66.0854 36.4798 65.942 36.5694 65.7849 36.6273C65.5612 36.709 65.3223 36.7406 65.085 36.7199C64.8477 36.6992 64.6179 36.6267 64.4117 36.5075C64.1704 36.364 63.9806 36.1479 63.8692 35.8901L64.2115 35.6426C64.2991 35.851 64.4427 36.031 64.6263 36.1626ZM71.7811 36.8761L71.3124 36.2745C71.1252 36.4088 70.9232 36.521 70.7103 36.6088C70.4848 36.6991 70.2437 36.7438 70.0008 36.7405C69.6831 36.7405 69.377 36.6217 69.1423 36.4075C69.0306 36.3051 68.941 36.181 68.879 36.0429C68.8144 35.9021 68.7817 35.7488 68.7831 35.5939C68.7824 35.4558 68.8055 35.3185 68.8525 35.1885C68.9007 35.0596 68.9684 34.9389 69.0532 34.8305C69.1446 34.714 69.2463 34.606 69.3572 34.508C69.4783 34.3998 69.6062 34.2991 69.7402 34.2065C69.5861 34.0218 69.4503 33.8226 69.3348 33.6116C69.2523 33.4621 69.2071 33.2951 69.2028 33.1245C69.2015 32.992 69.226 32.8605 69.2756 32.7375C69.3227 32.6224 69.3926 32.5181 69.4811 32.4307C69.5722 32.3428 69.68 32.2739 69.7981 32.228C69.9241 32.1791 70.0582 32.1546 70.1933 32.1556C70.3185 32.1552 70.4423 32.1799 70.5579 32.228C70.7923 32.3246 70.9787 32.5102 71.0763 32.7441C71.1301 32.8724 71.1572 33.0104 71.1559 33.1495C71.1572 33.2703 71.1334 33.39 71.0858 33.5009C71.0389 33.6104 70.9748 33.7117 70.896 33.8011C70.8121 33.898 70.7187 33.9862 70.6171 34.0643C70.5105 34.148 70.4006 34.2275 70.2879 34.3026L71.3783 35.7137C71.48 35.6248 71.5791 35.5331 71.6756 35.4386C71.7723 35.3443 71.8649 35.246 71.9532 35.1438L72.2008 35.4544C72.1101 35.557 72.0171 35.6575 71.9219 35.7558C71.8274 35.8524 71.7282 35.9443 71.6246 36.031L72.0994 36.6444L71.7811 36.8761ZM69.2559 35.8901C69.2926 35.9833 69.3484 36.0677 69.4205 36.1376C69.4968 36.21 69.5861 36.2672 69.6838 36.3061C69.7994 36.3499 69.9219 36.3714 70.0457 36.3693C70.2273 36.369 70.4069 36.33 70.5722 36.2548C70.7507 36.1746 70.9198 36.0748 71.0763 35.9573L69.9681 34.5093C69.7547 34.651 69.5619 34.8215 69.3953 35.0161C69.2634 35.1765 69.1926 35.3784 69.1953 35.586C69.1947 35.6904 69.2158 35.7938 69.2559 35.8901ZM70.5987 32.6901C70.5489 32.6349 70.4879 32.5911 70.4197 32.5616C70.3515 32.5321 70.2778 32.5176 70.2035 32.519C70.1232 32.5131 70.0427 32.5257 69.968 32.5558C69.8934 32.5859 69.8266 32.6328 69.7729 32.6927C69.675 32.8109 69.6231 32.9605 69.6266 33.1139C69.6266 33.1831 69.6389 33.2518 69.6627 33.3167C69.6872 33.3847 69.7205 33.4496 69.76 33.5102C69.8021 33.5747 69.8504 33.6418 69.9035 33.7248C69.9559 33.8077 70.0117 33.8906 70.0709 33.988C70.1605 33.9307 70.2483 33.8706 70.3341 33.8077C70.4129 33.7492 70.486 33.6836 70.5525 33.6116C70.6144 33.5433 70.6655 33.4661 70.7042 33.3825C70.743 33.2961 70.762 33.2021 70.7607 33.1073C70.7627 32.952 70.7035 32.8022 70.596 32.6901H70.5987ZM74.9341 36.2745H76.6892V36.6602H74.5035V32.228H74.9341V36.2745ZM81.262 35.3491C81.0818 35.7635 80.7846 36.1163 80.4069 36.3643C80.0288 36.612 79.5865 36.744 79.1345 36.744C78.6824 36.744 78.2401 36.612 77.862 36.3643C77.4843 36.1163 77.1871 35.7635 77.0069 35.3491C76.8852 35.0627 76.8225 34.7547 76.8226 34.4435C76.8226 34.1323 76.8851 33.8243 77.0069 33.5378C77.1871 33.1235 77.4843 32.7707 77.862 32.5227C78.2401 32.2749 78.6824 32.1429 79.1345 32.1429C79.5865 32.1429 80.0288 32.2749 80.4069 32.5227C80.7846 32.7707 81.0818 33.1235 81.262 33.5378C81.3837 33.8242 81.4464 34.1323 81.4464 34.4435C81.4464 34.7547 81.3838 35.0626 81.262 35.3491ZM77.4015 35.1977C77.4988 35.4246 77.6387 35.6306 77.8137 35.8046C77.9845 35.9725 78.1855 36.1065 78.4062 36.1995C78.637 36.2951 78.8843 36.3443 79.1341 36.3443C79.3845 36.3443 79.6314 36.2951 79.8627 36.1995C80.0864 36.1051 80.2896 35.9683 80.4613 35.7967C80.8191 35.435 81.0198 34.9469 81.0198 34.4382C81.0198 33.9295 80.8191 33.4413 80.4613 33.0797C80.2894 32.9088 80.0861 32.7725 79.8627 32.6782C79.632 32.5818 79.3845 32.5321 79.1345 32.5321C78.8844 32.5321 78.6369 32.5818 78.4062 32.6782C78.1825 32.7723 77.979 32.9086 77.8069 33.0797C77.5416 33.3532 77.362 33.6982 77.2899 34.0723C77.2178 34.4465 77.2566 34.8335 77.4015 35.1859V35.1977ZM82.0416 36.7365H81.5899L83.4756 32.1517H83.577L85.4606 36.7365H85.0083L84.5076 35.482H82.5416L82.0416 36.7365ZM82.6933 35.0964H84.3538L83.5239 33.031L82.6933 35.0964ZM86.2981 36.6602H85.8674V32.1952L85.9994 32.1517L88.9879 35.7861V32.232H89.4198V36.6958L89.2885 36.7405L86.2994 33.1113L86.2981 36.6602ZM90.7919 36.1626C90.9645 36.2865 91.1721 36.352 91.3844 36.3496C91.5083 36.3507 91.6314 36.3292 91.7477 36.2864C91.8558 36.2466 91.9552 36.1863 92.0402 36.1086C92.122 36.0327 92.1867 35.9403 92.23 35.8375C92.2756 35.7246 92.2981 35.6037 92.2953 35.4821C92.2967 35.37 92.2817 35.2584 92.2518 35.1503C92.2205 35.0431 92.1688 34.943 92.0994 34.8555C92.0198 34.7527 91.9237 34.6637 91.8151 34.5922C91.6735 34.5001 91.5226 34.4233 91.3647 34.3632C91.0774 34.2627 90.8173 34.0968 90.6049 33.8788C90.4251 33.6737 90.3309 33.4075 90.3416 33.135C90.3402 32.9997 90.3654 32.8654 90.4164 32.7401C90.4666 32.6221 90.5402 32.5156 90.6328 32.4268C90.7295 32.3358 90.8436 32.2651 90.9681 32.2188C91.1078 32.1662 91.2562 32.1403 91.4055 32.1425C91.594 32.1391 91.7804 32.1845 91.9464 32.2741C92.1098 32.3602 92.2465 32.4895 92.3416 32.648L92.0334 32.8797C91.9683 32.7726 91.8761 32.6847 91.7661 32.6247C91.6561 32.5646 91.5322 32.5345 91.4069 32.5374C91.2393 32.5308 91.0758 32.5898 90.9511 32.702C90.8925 32.7569 90.8464 32.8237 90.8158 32.898C90.7851 32.9722 90.7707 33.0521 90.7736 33.1324C90.7695 33.3125 90.8328 33.4876 90.9511 33.6234C91.1275 33.801 91.342 33.936 91.5783 34.0183C91.9185 34.1335 92.2212 34.3381 92.4552 34.6107C92.5924 34.8064 92.6806 35.0322 92.7123 35.2691C92.7436 35.506 92.7171 35.7471 92.6355 35.9718C92.5769 36.123 92.4872 36.2602 92.3722 36.3745C92.251 36.4901 92.1075 36.5797 91.9504 36.6378C91.7674 36.7065 91.5731 36.74 91.3776 36.7365C91.0955 36.739 90.8181 36.6633 90.5763 36.518C90.3356 36.374 90.1462 36.1581 90.0348 35.9007L90.377 35.6532C90.466 35.8578 90.6095 36.0341 90.7919 36.1626ZM95.1396 36.6602V32.228H96.0702C96.2783 32.2244 96.4858 32.2574 96.6824 32.3254C96.8505 32.3834 97.0061 32.4727 97.1409 32.5887C97.2661 32.7007 97.3646 32.8392 97.4293 32.9941C97.5606 33.3193 97.5606 33.6826 97.4293 34.0077C97.3647 34.1629 97.2661 34.3014 97.1409 34.4132C97.0068 34.5301 96.851 34.6196 96.6824 34.6765C96.4857 34.745 96.2785 34.7785 96.0702 34.7752H95.5702V36.6602H95.1396ZM96.8157 34.1591C96.9047 34.0754 96.9756 33.9743 97.0239 33.8621C97.0723 33.7499 97.0973 33.629 97.0974 33.5069C97.0974 33.3847 97.0722 33.2639 97.0239 33.1517C96.9756 33.0395 96.9047 32.9383 96.8157 32.8546C96.6009 32.6852 96.3318 32.5996 96.0586 32.6137H95.5702V34.4H96.0586C96.3321 34.4141 96.6008 34.3286 96.8157 34.1591ZM98.5538 36.2745H100.309V36.6602H98.1232V32.228H98.5538V36.2745ZM100.625 33.5378C100.804 33.1233 101.102 32.7709 101.481 32.5247C101.86 32.2782 102.302 32.1485 102.754 32.1517C103.052 32.1494 103.348 32.2039 103.627 32.3123C103.895 32.418 104.14 32.5739 104.35 32.7717L104.059 33.0639C103.886 32.8997 103.686 32.7686 103.466 32.6769C103.24 32.5831 102.998 32.5356 102.754 32.5374C102.503 32.5361 102.255 32.5858 102.025 32.6835C101.679 32.8305 101.385 33.0757 101.178 33.3888C100.971 33.7018 100.861 34.0689 100.861 34.4441C100.861 34.8193 100.971 35.1862 101.178 35.4992C101.385 35.8124 101.679 36.0578 102.025 36.2048C102.255 36.3016 102.503 36.3509 102.754 36.3496C102.998 36.3514 103.24 36.3039 103.466 36.21C103.685 36.1187 103.886 35.988 104.059 35.8243L104.35 36.1152C104.14 36.313 103.895 36.469 103.627 36.5746C103.349 36.6841 103.052 36.7391 102.754 36.7365C102.146 36.7399 101.56 36.5034 101.125 36.0784C100.913 35.8702 100.743 35.6231 100.625 35.3505C100.504 35.0638 100.442 34.7559 100.442 34.4448C100.442 34.1337 100.504 33.8258 100.625 33.5391V33.5378Z" fill="#272425" stroke="#272425" stroke-width="2" stroke-miterlimit="10"/>
<path d="M0 0H38.3684L0.110544 40V0" fill="#E22630"/>
<path d="M36.8017 21.2732L25.1151 21.4719L36.8017 9.28125V21.2732ZM36.8017 26.6412V38.1857H8.89404L20.0236 26.5847H36.8017" fill="#272425"/>
</g>
<defs>
<clipPath id="clip0_291_3581">
<rect width="106.667" height="40" fill="white"/>
</clipPath>
</defs>
</svg>
