<svg width="140" height="40" viewBox="0 0 140 40" fill="none" xmlns="http://www.w3.org/2000/svg">
<path d="M49.6678 7.45312C47.6297 7.45312 45.9679 8.04889 44.745 9.27177C43.5221 10.4947 42.9264 12.0938 42.9264 14.1319V15.7938H39.9789V19.7446H42.9264V32.0047H47.4729V19.7446H51.2357V15.7938H47.4729V14.0065C47.4729 12.47 48.6017 11.4353 50.2009 11.4353C50.5458 11.4353 50.8907 11.4667 51.267 11.498V7.5472C50.7966 7.48448 50.2636 7.45312 49.6678 7.45312Z" fill="black"/>
<path d="M57.2814 7.64062H52.7035V32.004H57.2814V7.64062Z" fill="black"/>
<path d="M62.8296 7.73496C60.5406 7.60954 59.1296 10.8705 60.8855 12.4383C61.9202 13.4731 63.7389 13.4731 64.7736 12.4383C65.3067 11.9052 65.5889 11.2468 65.5889 10.4943C65.5889 8.9578 64.366 7.73496 62.8296 7.73496ZM65.1185 15.7934H60.5406V32.0043H65.1185V15.7934Z" fill="black"/>
<path d="M75.3074 15.4795C73.0184 15.4795 71.1372 16.2634 69.6634 17.7998C68.2211 19.3363 67.4999 21.3744 67.4999 23.9142C67.4999 26.454 68.2211 28.4921 69.6634 30.0285C71.1372 31.5649 73.0184 32.3489 75.3074 32.3489C77.3456 32.3489 78.8506 31.7845 79.8854 30.6243V39.9997H84.432V15.7931H80.136V17.4863C79.1328 16.138 77.5337 15.4795 75.3074 15.4795ZM76.06 19.3989C78.3489 19.3989 79.8854 20.9981 79.8854 23.5379V24.2905C79.8854 26.8303 78.3489 28.4294 76.06 28.4294C73.7083 28.4294 72.1405 26.7676 72.1405 23.9142C72.1405 21.0609 73.7083 19.3989 76.06 19.3989Z" fill="black"/>
<path d="M96.8224 15.4795C94.6272 15.4795 93.028 16.138 92.0248 17.4863V15.7931H87.6976V39.9997H92.276V30.6243C93.3104 31.7845 94.8472 32.3489 96.8224 32.3489C99.1424 32.3489 101.024 31.5649 102.466 30.0285C103.94 28.4921 104.661 26.454 104.661 23.9142C104.661 21.3744 103.94 19.3363 102.466 17.7998C101.024 16.2634 99.1424 15.4795 96.8224 15.4795ZM96.1008 19.3989C98.4528 19.3989 100.021 21.0609 100.021 23.9142C100.021 26.7676 98.4528 28.4294 96.1008 28.4294C93.812 28.4294 92.276 26.8303 92.276 24.2905V23.5379C92.276 20.9981 93.812 19.3989 96.1008 19.3989Z" fill="black"/>
<path d="M113.351 15.4795C111.376 15.4795 109.746 16.0753 108.46 17.2668C107.206 18.4269 106.578 19.7753 106.578 21.2803L111.157 21.4685C111.157 20.3083 111.941 19.3363 113.414 19.3363C114.826 19.3363 115.515 20.1829 115.515 21.8447V22.4718L112.63 22.6286C108.303 22.8168 106.14 24.4473 106.14 27.5514C106.14 30.6557 108.178 32.3489 111.533 32.3489C113.226 32.3489 114.606 31.7845 115.672 30.687V32.004H120.093V22.0015C120.093 17.7371 117.742 15.4795 113.351 15.4795ZM115.515 26.1718C115.515 27.8337 114.323 28.8057 112.599 28.8057C111.345 28.8057 110.718 28.304 110.718 27.332C110.718 26.2659 111.502 25.7015 113.07 25.6388L115.515 25.482V26.1718Z" fill="black"/>
<path d="M138.46 15.793H133.38L129.68 25.4505L125.949 15.793H120.901L127.234 30.5614L123.095 39.9995H128.081L138.46 15.793Z" fill="black"/>
<path fill-rule="evenodd" clip-rule="evenodd" d="M0 3.17318C0 0.99504 1.65824 -0.383273 3.70405 0.0946888L25.9566 5.29355C28.0023 5.77149 29.6607 7.32662 29.6607 8.7708V30.7223C29.6607 32.1648 28.0025 33.7216 25.9566 34.1996L3.70405 39.3984C1.65836 39.8764 0 38.5006 0 36.3199V3.17318ZM6.3029 11.2262C6.3029 9.46752 7.74747 8.24952 9.52592 8.5052L19.1981 9.89576C20.9782 10.1517 22.4211 11.4927 22.4211 12.8918C22.4211 14.2906 20.9766 15.3336 19.1981 15.2217L9.52592 14.6134C7.7459 14.5014 6.3029 12.9853 6.3029 11.2262ZM6.13137 19.7466C6.13137 17.9262 7.62666 16.5108 9.46752 16.5853L19.4793 16.9901C21.3218 17.0646 22.8155 18.2984 22.8155 19.7466C22.8155 21.1944 21.3202 22.4286 19.4793 22.503L9.46752 22.9078C7.62502 22.9824 6.13137 21.5674 6.13137 19.7466ZM10.0105 31.6325C12.0582 31.3197 13.7181 29.5756 13.7181 27.7369C13.7181 25.8982 12.0582 24.512 10.0105 24.6408C7.96285 24.7696 6.3029 26.5137 6.3029 28.5364C6.3029 30.5591 7.96285 31.9453 10.0105 31.6325Z" fill="url(#paint0_linear_298_11969)"/>
<defs>
<linearGradient id="paint0_linear_298_11969" x1="-26.1975" y1="-21.8622" x2="-27.1453" y2="88.8152" gradientUnits="userSpaceOnUse">
<stop stop-color="#1400FF"/>
<stop offset="1" stop-color="#FC199B"/>
</linearGradient>
</defs>
</svg>
