<svg width="138" height="40" viewBox="0 0 138 40" fill="none" xmlns="http://www.w3.org/2000/svg">
<g clip-path="url(#clip0_298_12433)">
<path d="M37.6812 0H0V40H37.6812V0Z" fill="#CE3439"/>
<path d="M25.9403 27.4563V29.2754H11.7409V27.6592C11.7409 25.6575 13.3942 25.7757 15.3351 25.6233C15.9333 25.5769 17.7177 25.4314 18.8986 25.454C20.7328 25.4893 22.9154 25.6441 24.1235 25.7688C26.1096 25.9711 25.9403 27.4563 25.9403 27.4563ZM27.0516 13.6128C26.706 13.6127 26.3675 13.7103 26.0751 13.8944C25.7827 14.0785 25.5482 14.3416 25.399 14.6532C25.2496 14.9649 25.1915 15.3124 25.2313 15.6556C25.2711 15.9989 25.4071 16.3239 25.6238 16.5931L22.9959 19.5885L22.1264 14.3091C22.5219 14.1885 22.8649 13.9377 23.0999 13.5976C23.3349 13.2574 23.448 12.8478 23.4208 12.4353C23.3937 12.0227 23.2278 11.6315 22.9503 11.3251C22.6727 11.0187 22.2997 10.8151 21.8918 10.7474C21.4839 10.6797 21.0652 10.7519 20.7035 10.9522C20.3419 11.1525 20.0586 11.4693 19.8996 11.8509C19.7406 12.2326 19.7154 12.6568 19.8279 13.0546C19.9404 13.4524 20.1841 13.8005 20.5194 14.0424L18.8261 19.0331L17.1391 14.0772C17.4831 13.8457 17.7383 13.5045 17.8633 13.1093C17.9882 12.714 17.9755 12.2881 17.8271 11.9011C17.6788 11.514 17.4035 11.1886 17.0464 10.9782C16.6893 10.7677 16.2714 10.6846 15.8609 10.7423C15.4504 10.8 15.0717 10.9952 14.7864 11.296C14.5012 11.5968 14.3263 11.9854 14.2905 12.3983C14.2546 12.8113 14.3598 13.2242 14.5889 13.5697C14.818 13.9151 15.1575 14.1728 15.5519 14.3004L14.6754 19.585L12.0394 16.5705C12.3033 16.2524 12.4518 15.8544 12.4609 15.4412C12.47 15.028 12.339 14.6238 12.0893 14.2944C11.8397 13.9651 11.486 13.7298 11.0857 13.6269C10.6854 13.5239 10.2621 13.5594 9.88446 13.7274C9.5069 13.8955 9.19722 14.1863 9.00586 14.5526C8.81444 14.919 8.75252 15.3393 8.8302 15.7452C8.90783 16.1511 9.12052 16.5189 9.43362 16.7887C9.74673 17.0586 10.1419 17.2145 10.5548 17.2314L13.0388 24.4024C13.0388 24.4024 17.0846 24.0209 18.8406 24.0122C20.5965 24.0035 24.6087 24.4024 24.6087 24.4024L27.0725 17.2754C27.5583 17.2726 28.0232 17.077 28.3648 16.7315C28.7063 16.386 28.8967 15.919 28.8939 15.4331C28.8912 14.9473 28.6955 14.4824 28.35 14.1408C28.0045 13.7993 27.5375 13.6089 27.0516 13.6117V13.6128Z" fill="#FFD100"/>
<path d="M47.782 26.0926C47.977 26.2047 48.1375 26.3684 48.2457 26.5657C48.3606 26.777 48.4187 27.0145 48.4144 27.2549C48.4187 27.4963 48.3605 27.7347 48.2457 27.9471C48.1385 28.1451 47.9778 28.309 47.782 28.4202C47.5792 28.5338 47.3501 28.592 47.1176 28.5888C46.8971 28.5917 46.6799 28.5352 46.4886 28.4254C46.3025 28.3181 46.1507 28.16 46.051 27.9697V29.5454H45.7988V25.9413H46.0405V26.5604C46.1393 26.3646 46.2922 26.2013 46.4811 26.0897C46.6743 25.9762 46.8948 25.9178 47.1188 25.921C47.3512 25.9182 47.5801 25.9775 47.782 26.0926ZM47.6463 28.2219C47.8069 28.1287 47.9385 27.9928 48.0266 27.8294C48.1176 27.6518 48.1651 27.4551 48.1651 27.2555C48.1651 27.0559 48.1176 26.8592 48.0266 26.6816C47.9384 26.5182 47.8068 26.3824 47.6463 26.2891C47.481 26.1941 47.2932 26.1454 47.1026 26.1483C46.9128 26.1452 46.7258 26.1939 46.5617 26.2891C46.4024 26.383 46.2719 26.5188 46.1843 26.6816C46.0933 26.8592 46.0459 27.0559 46.0459 27.2555C46.0459 27.4551 46.0933 27.6518 46.1843 27.8294C46.2718 27.9923 46.4024 28.1281 46.5617 28.2219C46.7258 28.3171 46.9128 28.3659 47.1026 28.3628C47.293 28.3655 47.4812 28.3168 47.6463 28.2219Z" fill="#202020"/>
<path d="M49.7959 28.4176C49.5981 28.3057 49.4352 28.1411 49.3252 27.9423C49.2129 27.7307 49.1541 27.4949 49.1541 27.2553C49.1541 27.0158 49.2129 26.78 49.3252 26.5684C49.4353 26.3696 49.5982 26.2051 49.7959 26.093C50.0021 25.9807 50.233 25.9219 50.4678 25.9219C50.7026 25.9219 50.9336 25.9807 51.1397 26.093C51.3374 26.2051 51.5003 26.3696 51.6104 26.5684C51.7227 26.78 51.7815 27.0158 51.7815 27.2553C51.7815 27.4949 51.7227 27.7307 51.6104 27.9423C51.5004 28.1411 51.3375 28.3056 51.1397 28.4176C50.9336 28.5299 50.7026 28.5888 50.4678 28.5888C50.233 28.5888 50.0021 28.5299 49.7959 28.4176ZM51.0087 28.2211C51.1679 28.1272 51.2985 27.9915 51.3861 27.8287C51.4771 27.651 51.5245 27.4543 51.5245 27.2547C51.5245 27.0552 51.4771 26.8585 51.3861 26.6808C51.2984 26.518 51.1679 26.3823 51.0087 26.2884C50.8433 26.1959 50.657 26.1474 50.4675 26.1474C50.278 26.1474 50.0917 26.1959 49.9264 26.2884C49.7671 26.3823 49.6366 26.518 49.549 26.6808C49.458 26.8585 49.4105 27.0552 49.4105 27.2547C49.4105 27.4543 49.458 27.651 49.549 27.8287C49.6365 27.9916 49.767 28.1273 49.9264 28.2211C50.0917 28.3136 50.278 28.3621 50.4675 28.3621C50.657 28.3621 50.8433 28.3136 51.0087 28.2211Z" fill="#202020"/>
<path d="M56.4782 25.9414L55.4817 28.5687H55.2452L54.3594 26.2887L53.4684 28.5687H53.2365L52.2399 25.9414H52.4817L53.3576 28.2869L54.2533 25.9414H54.4695L55.3605 28.2817L56.2463 25.9414H56.4782Z" fill="#202020"/>
<path d="M59.4238 27.3153H57.1628C57.166 27.5078 57.2198 27.6962 57.3188 27.8614C57.414 28.0187 57.5508 28.1467 57.7141 28.2312C57.8876 28.3203 58.0806 28.3653 58.2754 28.3622C58.4383 28.3637 58.6 28.332 58.7507 28.2689C58.8933 28.2093 59.0186 28.115 59.1154 27.9947L59.2615 28.1611C59.1455 28.2999 58.9983 28.4087 58.8313 28.4782C58.6296 28.5608 58.4122 28.5984 58.1942 28.5884C57.9768 28.5784 57.7637 28.521 57.5704 28.4202C57.3696 28.31 57.2032 28.1462 57.0898 27.9472C56.9717 27.7369 56.9117 27.499 56.9159 27.2579C56.9121 27.0188 56.9682 26.7826 57.0794 26.5709C57.1828 26.374 57.3387 26.2095 57.5298 26.0956C57.7258 25.9843 57.9473 25.9258 58.1728 25.9258C58.3983 25.9258 58.6197 25.9843 58.8157 26.0956C59.0052 26.2083 59.1606 26.3711 59.2638 26.5663C59.3751 26.7771 59.4313 27.0126 59.4273 27.2509L59.4238 27.3153ZM57.677 26.266C57.5297 26.348 57.4072 26.4682 57.3223 26.6138C57.2318 26.768 57.1791 26.9414 57.1686 27.1199H59.182C59.1751 26.9421 59.1229 26.769 59.0313 26.6167C58.9426 26.4697 58.8168 26.3486 58.6667 26.2655C58.5165 26.1825 58.3472 26.1404 58.1757 26.1437C58.0017 26.1407 57.8299 26.1828 57.677 26.266Z" fill="#202020"/>
<path d="M61.0458 26.0751C61.2359 25.9679 61.4522 25.9147 61.6701 25.9215V26.1679L61.6122 26.1626C61.4852 26.1556 61.3577 26.1765 61.2394 26.2239C61.1212 26.2713 61.0145 26.344 60.9275 26.4368C60.7525 26.651 60.6649 26.9232 60.6812 27.1992V28.5684H60.4296V25.9412H60.6713V26.5151C60.7449 26.3316 60.8765 26.1772 61.0458 26.0751Z" fill="#202020"/>
<path d="M64.7901 27.3153H62.5293C62.5322 27.5078 62.5861 27.6962 62.6852 27.8614C62.7803 28.0187 62.9171 28.1467 63.0806 28.2312C63.2539 28.3203 63.447 28.3653 63.6417 28.3622C63.8046 28.3637 63.9664 28.332 64.1171 28.2689C64.2597 28.2093 64.3849 28.115 64.4817 27.9947L64.6278 28.1611C64.5119 28.2999 64.3646 28.4087 64.1977 28.4782C63.9959 28.5608 63.7786 28.5984 63.5606 28.5884C63.3432 28.5784 63.1299 28.521 62.9368 28.4202C62.7362 28.31 62.5699 28.1462 62.4562 27.9472C62.338 27.7369 62.2783 27.499 62.2823 27.2579C62.2783 27.0188 62.3345 26.7826 62.4458 26.5709C62.549 26.374 62.7049 26.2094 62.8962 26.0956C63.0922 25.9843 63.3136 25.9258 63.5391 25.9258C63.7646 25.9258 63.9861 25.9843 64.182 26.0956C64.3716 26.2082 64.527 26.3711 64.6301 26.5663C64.7415 26.7771 64.7977 27.0126 64.7936 27.2509L64.7901 27.3153ZM63.0435 26.266C62.8962 26.348 62.7733 26.4682 62.6887 26.6138C62.5983 26.768 62.5455 26.9414 62.5351 27.1199H64.5484C64.5415 26.9421 64.4893 26.769 64.3977 26.6167C64.309 26.4697 64.1832 26.3486 64.033 26.2655C63.8829 26.1825 63.7136 26.1404 63.542 26.1437C63.3681 26.1407 63.1965 26.1828 63.0435 26.266Z" fill="#202020"/>
<path d="M68.1287 24.835V28.5695H67.8823V27.9503C67.7855 28.1472 67.6336 28.3116 67.4446 28.4234C67.251 28.5355 67.0307 28.593 66.807 28.5897C66.5739 28.5921 66.3443 28.532 66.1426 28.4158C65.9472 28.3037 65.7872 28.1401 65.6788 27.9428C65.5641 27.7314 65.5055 27.494 65.5101 27.2535C65.5061 27.0121 65.5641 26.7737 65.6788 26.5613C65.7861 26.3634 65.9467 26.1995 66.1426 26.0883C66.3455 25.9746 66.5745 25.9164 66.807 25.9196C67.029 25.916 67.2475 25.9733 67.4388 26.0854C67.6255 26.1966 67.778 26.357 67.8794 26.5492V24.835H68.1287ZM67.3612 28.2222C67.5206 28.1283 67.651 27.9926 67.7386 27.8297C67.8296 27.6521 67.8771 27.4554 67.8771 27.2558C67.8771 27.0562 67.8296 26.8595 67.7386 26.6819C67.651 26.5191 67.5206 26.3834 67.3612 26.2895C67.1959 26.197 67.0093 26.1484 66.8197 26.1484C66.6307 26.1484 66.4441 26.197 66.2788 26.2895C66.1194 26.3833 65.989 26.519 65.9014 26.6819C65.8104 26.8595 65.7629 27.0562 65.7629 27.2558C65.7629 27.4554 65.8104 27.6521 65.9014 27.8297C65.989 27.9926 66.1194 28.1284 66.2788 28.2222C66.4441 28.3147 66.6307 28.3632 66.8197 28.3632C67.0093 28.3632 67.1959 28.3147 67.3612 28.2222Z" fill="#202020"/>
<path d="M72.9629 26.0895C73.1588 26.2006 73.3194 26.3645 73.4267 26.5625C73.5415 26.7749 73.5994 27.0133 73.5954 27.2547C73.5994 27.4951 73.5415 27.7326 73.4267 27.9439C73.3183 28.1412 73.1583 28.3049 72.9629 28.417C72.7612 28.5332 72.5316 28.5932 72.2985 28.5909C72.0748 28.5941 71.8539 28.5357 71.6609 28.4222C71.4719 28.3107 71.3188 28.1473 71.2203 27.9515V28.5706H70.9786V24.835H71.2301V26.541C71.3299 26.3507 71.4817 26.1927 71.6678 26.0854C71.8591 25.9755 72.0765 25.9191 72.2968 25.9219C72.5299 25.9181 72.7594 25.9759 72.9629 26.0895ZM72.8272 28.221C72.9878 28.1278 73.1194 27.992 73.2075 27.8286C73.2986 27.651 73.3461 27.4542 73.3461 27.2547C73.3461 27.0551 73.2986 26.8583 73.2075 26.6808C73.1194 26.5174 72.9878 26.3816 72.8272 26.2883C72.662 26.1932 72.4742 26.1446 72.2835 26.1474C72.0939 26.1443 71.9067 26.193 71.7426 26.2883C71.5832 26.3822 71.4528 26.5179 71.3652 26.6808C71.2742 26.8583 71.2267 27.0551 71.2267 27.2547C71.2267 27.4542 71.2742 27.651 71.3652 27.8286C71.4528 27.9914 71.5832 28.1272 71.7426 28.221C71.9067 28.3163 72.0939 28.365 72.2835 28.3619C72.4742 28.3646 72.662 28.316 72.8272 28.221Z" fill="#202020"/>
<path d="M76.6104 25.9414L75.2615 28.9263C75.1902 29.1182 75.0701 29.2881 74.9136 29.4197C74.7768 29.5184 74.6116 29.5697 74.4429 29.5658C74.327 29.5674 74.2116 29.5477 74.1032 29.5078C74.0012 29.4707 73.9096 29.4113 73.8336 29.3339L73.9594 29.1426C74.022 29.209 74.0974 29.2616 74.1815 29.2972C74.2655 29.3327 74.3565 29.3503 74.4475 29.3489C74.5652 29.3521 74.6806 29.3149 74.7745 29.2434C74.8858 29.1442 74.9716 29.02 75.0261 28.8811L75.167 28.564L73.9844 25.9466H74.251L75.3032 28.2973L76.3554 25.9466L76.6104 25.9414Z" fill="#202020"/>
<path d="M82.0249 25.0462V28.5674H81.2099V27.1227H79.6093V28.5674H78.7936V25.0439H79.6093V26.4352H81.2099V25.0439L82.0249 25.0462Z" fill="#202020"/>
<path d="M83.8116 28.3954C83.5264 28.2455 83.2881 28.02 83.1223 27.7438C82.9588 27.4597 82.873 27.1378 82.873 26.8101C82.873 26.4825 82.9588 26.1606 83.1223 25.8765C83.2881 25.6002 83.5264 25.3748 83.8116 25.2249C84.1177 25.0694 84.4562 24.9883 84.7994 24.9883C85.1426 24.9883 85.4812 25.0694 85.7873 25.2249C86.0742 25.3782 86.3148 25.6067 86.4823 25.886C86.6499 26.1652 86.738 26.4847 86.738 26.8104C86.738 27.136 86.6499 27.4556 86.4823 27.7348C86.3148 28.0141 86.0742 28.2426 85.7873 28.3959C85.4812 28.5515 85.1426 28.6325 84.7994 28.6325C84.4562 28.6325 84.1177 28.5509 83.8116 28.3954ZM85.3646 27.7936C85.531 27.6995 85.6678 27.561 85.76 27.3936C85.8539 27.2134 85.9032 27.0132 85.9032 26.8098C85.9032 26.6065 85.8539 26.4062 85.76 26.2261C85.6678 26.0587 85.531 25.9202 85.3646 25.8261C85.1919 25.7319 84.9977 25.6825 84.8006 25.6825C84.6041 25.6825 84.4099 25.7319 84.2371 25.8261C84.0707 25.9201 83.9339 26.0586 83.8417 26.2261C83.7473 26.4062 83.698 26.6065 83.698 26.8098C83.698 27.0132 83.7473 27.2134 83.8417 27.3936C83.9339 27.561 84.0707 27.6996 84.2371 27.7936C84.4099 27.8878 84.6041 27.9371 84.8006 27.9371C84.9977 27.9371 85.1919 27.8878 85.3646 27.7936Z" fill="#202020"/>
<path d="M87.9252 28.5156C87.6997 28.4568 87.4875 28.3569 87.2986 28.2211L87.5757 27.6072C87.7397 27.7244 87.9217 27.8145 88.1142 27.8739C88.3159 27.9401 88.5264 27.9741 88.7386 27.9747C88.9159 27.9868 89.0933 27.9511 89.2522 27.8716C89.302 27.8452 89.3438 27.8058 89.3733 27.7575C89.4023 27.7092 89.418 27.6539 89.4186 27.5973C89.4191 27.5574 89.4104 27.5179 89.3936 27.4817C89.3768 27.4455 89.3519 27.4137 89.3206 27.3887C89.2458 27.3284 89.1606 27.2831 89.069 27.2553C88.9664 27.2217 88.8284 27.1848 88.6539 27.1446C88.4307 27.0941 88.2104 27.0302 87.9948 26.9533C87.8244 26.89 87.6725 26.7842 87.5542 26.646C87.4255 26.4873 87.36 26.2866 87.3704 26.0826C87.3681 25.8848 87.4261 25.691 87.5362 25.5266C87.6615 25.349 87.8354 25.2116 88.0371 25.1313C88.2968 25.0271 88.5751 24.9773 88.8551 24.9852C89.0771 24.9849 89.2986 25.012 89.5142 25.0658C89.713 25.1131 89.9032 25.1913 90.0777 25.2976L89.8261 25.9168C89.5304 25.7405 89.1936 25.645 88.8499 25.6397C88.6742 25.6271 88.4986 25.6656 88.3438 25.7504C88.2939 25.7805 88.2528 25.823 88.2238 25.8738C88.1954 25.9246 88.1803 25.9819 88.1803 26.0402C88.1803 26.0992 88.1983 26.1568 88.2319 26.2051C88.2655 26.2533 88.3136 26.2899 88.3693 26.3098C88.5548 26.3873 88.7478 26.4455 88.9455 26.4837C89.1687 26.5343 89.389 26.5982 89.6046 26.675C89.7739 26.7378 89.9258 26.8415 90.0452 26.9771C90.1739 27.1338 90.24 27.3332 90.229 27.5359C90.2302 27.7326 90.1716 27.925 90.0603 28.0872C89.9333 28.265 89.7577 28.4023 89.5542 28.4826C89.2933 28.5866 89.0145 28.6363 88.7339 28.6287C88.4603 28.6296 88.1878 28.5915 87.9252 28.5156Z" fill="#202020"/>
<path d="M91.709 25.7102H90.5815V25.0459H93.6539V25.7102H92.5206V28.5671H91.709V25.7102Z" fill="#202020"/>
<path d="M96.4603 27.8138H94.8249L94.5131 28.5674H93.6771L95.2475 25.0439H96.0528L97.6284 28.5674H96.7728L96.4603 27.8138ZM96.2035 27.1946L95.6446 25.8456L95.0858 27.1946H96.2035Z" fill="#202020"/>
<path d="M99.0168 25.7007V26.6317H100.648V27.2862H99.0168V28.5674H98.2012V25.0439H100.864V25.6984L99.0168 25.7007Z" fill="#202020"/>
<path d="M103.908 28.567L103.229 27.5855H102.479V28.567H101.663V25.0435H103.188C103.467 25.0372 103.744 25.0903 104 25.1994C104.216 25.2922 104.401 25.4461 104.531 25.6423C104.659 25.8456 104.723 26.0819 104.717 26.3217C104.726 26.5594 104.661 26.7941 104.532 26.9933C104.402 27.1926 104.213 27.3467 103.992 27.4342L104.783 28.567H103.908ZM103.702 25.8667C103.54 25.7504 103.342 25.6945 103.143 25.7084H102.479V26.9362H103.143C103.343 26.9501 103.54 26.893 103.702 26.7751C103.762 26.7157 103.81 26.645 103.843 26.5671C103.875 26.4891 103.892 26.4054 103.892 26.3209C103.892 26.2363 103.875 26.1526 103.843 26.0747C103.81 25.9967 103.762 25.926 103.702 25.8667Z" fill="#202020"/>
<path d="M105.605 25.0459H106.42V28.5671H105.605V25.0459Z" fill="#202020"/>
<path d="M108.22 28.3947C107.937 28.2452 107.7 28.0205 107.536 27.7454C107.372 27.4595 107.286 27.1359 107.286 26.8066C107.286 26.4773 107.372 26.1537 107.536 25.8677C107.7 25.5926 107.937 25.368 108.22 25.2184C108.499 25.078 108.804 24.9988 109.116 24.9862C109.427 24.9736 109.739 25.0279 110.027 25.1454C110.268 25.2488 110.481 25.4077 110.649 25.6092L110.127 26.0926C110.02 25.9617 109.885 25.8566 109.731 25.7852C109.578 25.7137 109.41 25.6777 109.241 25.6799C109.038 25.6763 108.837 25.7256 108.657 25.8231C108.489 25.9161 108.35 26.0547 108.257 26.2231C108.163 26.4033 108.114 26.6035 108.114 26.8068C108.114 27.0102 108.163 27.2105 108.257 27.3906C108.35 27.559 108.489 27.6977 108.657 27.7906C108.837 27.8881 109.038 27.9375 109.241 27.9338C109.411 27.9358 109.579 27.8992 109.732 27.8268C109.886 27.7544 110.02 27.6481 110.127 27.5158L110.649 27.9987C110.482 28.2029 110.267 28.3634 110.024 28.4666C109.761 28.5769 109.479 28.6317 109.194 28.6277C108.854 28.6328 108.52 28.5526 108.22 28.3947Z" fill="#202020"/>
<path d="M113.651 27.8138H112.015L111.703 28.5674H110.868L112.438 25.0439H113.243L114.819 28.5674H113.963L113.651 27.8138ZM113.394 27.1946L112.835 25.8456L112.277 27.1946H113.394Z" fill="#202020"/>
<path d="M56.1246 14.9966C56.0206 14.5947 55.8548 14.2114 55.633 13.8604C55.4271 13.5382 55.1703 13.2515 54.8724 13.0117C54.5779 12.7763 54.2467 12.5909 53.8921 12.4627C53.5023 12.3268 53.0967 12.2411 52.6852 12.2076C52.4562 12.1844 51.9536 12.1729 51.1478 12.1729H48.1791L45.8985 22.2801H49.8139C50.5228 22.2989 51.2319 22.2484 51.931 22.1294C52.653 21.9871 53.3376 21.6959 53.9408 21.2743C54.6464 20.7435 55.2222 20.0595 55.6249 19.2737C56.0825 18.3827 56.3127 17.3923 56.295 16.3908C56.2991 15.9207 56.2417 15.452 56.1246 14.9966ZM49.7199 20.4018H48.804L50.2226 14.0917H51.3646C51.797 14.0734 52.23 14.1123 52.6521 14.2076C52.9896 14.3244 53.2787 14.5502 53.4736 14.8494C53.729 15.3001 53.8463 15.816 53.811 16.3329C53.8275 17.0435 53.6822 17.7487 53.386 18.3949C53.1392 18.9276 52.7838 19.4029 52.3426 19.7902C52.0738 20.0189 51.7567 20.1837 51.415 20.272C50.8566 20.378 50.2881 20.4215 49.7199 20.4018Z" fill="#202020"/>
<path d="M64.6945 15.614C63.9258 14.9754 62.9444 14.6518 61.9467 14.7085C61.3496 14.6839 60.7536 14.779 60.1936 14.988C59.6342 15.1971 59.1217 15.516 58.687 15.9259C58.2667 16.3537 57.9394 16.8635 57.725 17.4234C57.5107 17.9834 57.4141 18.5815 57.4411 19.1804C57.4394 19.7591 57.5876 20.3283 57.8713 20.8326C58.1722 21.3603 58.6319 21.78 59.1849 22.032C59.8064 22.3176 60.4841 22.4597 61.1681 22.4476C61.7583 22.4738 62.3472 22.3792 62.8991 22.1696C63.451 21.9601 63.9548 21.6398 64.3786 21.2287C64.8023 20.8176 65.138 20.3242 65.3641 19.7787C65.5907 19.2333 65.7032 18.6474 65.6951 18.0569C65.7148 17.6017 65.6354 17.1475 65.4626 16.7258C65.2899 16.3041 65.0278 15.9248 64.6945 15.614ZM62.5542 20.0395C62.3971 20.2369 62.1971 20.3958 61.9693 20.5038C61.7415 20.6118 61.4922 20.6662 61.24 20.6627C61.051 20.6691 60.8632 20.6363 60.6881 20.5665C60.5125 20.4966 60.3536 20.3912 60.2209 20.2569C60.0812 20.1103 59.9733 19.9366 59.9038 19.7465C59.8336 19.5565 59.8035 19.3541 59.8151 19.152C59.8267 18.7072 59.9206 18.2683 60.0933 17.8581C60.2417 17.4434 60.5044 17.0788 60.8504 16.8065C61.1687 16.5708 61.5559 16.446 61.9519 16.4511C62.1351 16.4428 62.3188 16.4712 62.491 16.5349C62.6632 16.5985 62.8215 16.696 62.9554 16.8216C63.0852 16.9495 63.1861 17.1035 63.2522 17.2733C63.3183 17.4432 63.3473 17.6251 63.338 17.8071C63.3594 18.6224 63.08 19.4171 62.553 20.0395H62.5542Z" fill="#202020"/>
<path d="M79.1206 16.5181C79.0933 16.9583 79.0244 17.3948 78.9148 17.8219L77.9073 22.2804H75.5304L76.5525 17.7587C76.6267 17.4653 76.6846 17.168 76.7264 16.8683C76.7304 16.8027 76.72 16.737 76.6957 16.676C76.6713 16.6149 76.6336 16.56 76.5855 16.5152C76.4487 16.4155 76.2806 16.3686 76.1119 16.383C75.862 16.3926 75.618 16.4606 75.3994 16.5818C75.1815 16.7029 74.9942 16.8737 74.8539 17.0804C74.4858 17.6425 74.2406 18.2758 74.1333 18.939L73.3797 22.2804H71.0029L72.011 17.8028C72.0916 17.4978 72.1455 17.1865 72.1728 16.8723C72.1745 16.8065 72.1617 16.741 72.1351 16.6807C72.1084 16.6205 72.0684 16.5671 72.018 16.5245C71.8852 16.4213 71.7188 16.3703 71.5507 16.3813C71.3299 16.3867 71.1136 16.4451 70.9206 16.5517C70.6957 16.6699 70.4968 16.8324 70.3362 17.0294C70.1467 17.2706 69.9983 17.541 69.8957 17.83C69.8412 17.9819 69.7478 18.343 69.6203 18.9007L68.8586 22.2822H66.4817L68.1507 14.8781H70.4046L70.2655 15.4944C70.8754 15.0008 71.6325 14.7251 72.4168 14.7112C72.9165 14.6822 73.4128 14.8088 73.8377 15.0735C74.098 15.2565 74.2974 15.5125 74.4122 15.8091C74.702 15.5084 75.0446 15.2636 75.4232 15.0868C75.9235 14.8402 76.4736 14.7115 77.0319 14.7106C77.5844 14.6793 78.1293 14.855 78.5594 15.2033C78.7438 15.3678 78.8899 15.5709 78.9867 15.7981C79.0835 16.0254 79.1293 16.2712 79.1206 16.5181Z" fill="#202020"/>
<path d="M86.9026 15.2929C86.2273 14.8553 85.4278 14.6503 84.6255 14.7091C83.8018 14.6724 82.9844 14.8655 82.2644 15.2668C81.6742 15.6259 81.2261 16.1772 80.9948 16.8279L80.927 17.0129L83.2632 17.1984L83.298 17.0824C83.3554 16.87 83.4887 16.6861 83.6731 16.5659C83.9148 16.4293 84.1902 16.3649 84.4673 16.3804C84.7136 16.361 84.9594 16.4221 85.1681 16.5543C85.2325 16.5985 85.2852 16.6578 85.3217 16.7268C85.3577 16.7959 85.3768 16.8727 85.3774 16.9508C85.3687 17.1285 85.3351 17.304 85.2783 17.4726C84.6632 17.6046 84.0388 17.6868 83.4104 17.7184C82.1971 17.8065 81.3716 18.0592 80.887 18.4917C80.6452 18.7102 80.4539 18.9793 80.3281 19.2799C80.2017 19.5804 80.1426 19.905 80.156 20.2308C80.1473 20.5294 80.2017 20.8264 80.3171 21.102C80.4319 21.3776 80.6046 21.6255 80.8232 21.8291C81.2788 22.246 81.88 22.4682 82.4974 22.4482C82.927 22.4457 83.3519 22.3564 83.7461 22.1856C84.062 22.0509 84.3554 21.8681 84.6157 21.6436C84.6435 21.8241 84.6852 22.0022 84.7403 22.1763L84.7733 22.2813H87.0986L87.0377 22.0871C86.9345 21.7752 86.8789 21.4496 86.8719 21.1213C86.9142 20.5312 87.0145 19.9468 87.171 19.3763C87.4191 18.3387 87.56 17.7137 87.6018 17.4668C87.6423 17.2332 87.6638 16.9966 87.6655 16.7595C87.6644 16.4719 87.5942 16.1889 87.4615 15.9338C87.3287 15.6787 87.1374 15.4589 86.9026 15.2929ZM83.1977 20.7102C82.9849 20.722 82.7757 20.6531 82.6116 20.5172C82.5449 20.462 82.4916 20.3926 82.4557 20.3142C82.4191 20.2358 82.4012 20.1502 82.4023 20.0639C82.3994 19.9599 82.4232 19.857 82.4713 19.7649C82.5194 19.6727 82.5902 19.5944 82.6771 19.5375C83.2928 19.2428 83.9623 19.0784 84.6441 19.0546C84.7467 19.0413 84.8406 19.0273 84.9246 19.0129L84.9189 19.0413C84.8539 19.3856 84.7368 19.718 84.571 20.0268C84.4325 20.2373 84.2383 20.4058 84.0104 20.5137C83.7589 20.6425 83.48 20.7098 83.1977 20.7102Z" fill="#202020"/>
<path d="M93.2968 12.1729L92.84 14.2117H90.4632L90.92 12.1729H93.2968Z" fill="#202020"/>
<path d="M92.691 14.877L91.0226 22.281H88.6458L90.3142 14.877H92.691Z" fill="#202020"/>
<path d="M101.672 16.6917C101.637 17.1812 101.556 17.6664 101.431 18.1409L100.503 22.2783H98.1264L99.076 18.0615C99.1664 17.7187 99.2325 17.3701 99.2742 17.018C99.2794 16.9314 99.2661 16.8446 99.2342 16.7639C99.2023 16.6832 99.153 16.6104 99.0899 16.5508C98.9339 16.4261 98.7368 16.3642 98.5374 16.3769C98.2035 16.398 97.8817 16.5128 97.6099 16.7079C97.2655 16.927 96.9826 17.2305 96.7884 17.5896C96.5565 18.1194 96.3873 18.6744 96.2841 19.2435L95.6017 22.2772H93.2249L94.8939 14.8731H97.1612L97.0058 15.5809C97.3415 15.3328 97.7061 15.1268 98.0916 14.9676C98.5374 14.7933 99.0128 14.7046 99.4916 14.7062C100.071 14.6762 100.641 14.8698 101.082 15.247C101.278 15.4314 101.433 15.6558 101.535 15.9051C101.637 16.1544 101.683 16.4226 101.672 16.6917Z" fill="#202020"/>
<path d="M109.674 16.2047L113.224 22.2801H110.416L107.849 17.6888L105.975 19.2105L105.282 22.283H102.79L105.064 12.1729H107.549L106.67 16.0847L111.259 12.1729H114.65L109.674 16.2047Z" fill="#202020"/>
<path d="M118.828 12.1729L118.372 14.2117H115.995L116.452 12.1729H118.828Z" fill="#202020"/>
<path d="M118.223 14.877L116.554 22.281H114.177L115.846 14.877H118.223Z" fill="#202020"/>
<path d="M127.204 16.6917C127.169 17.1812 127.088 17.6665 126.962 18.1409L126.035 22.2783H123.658L124.608 18.0615C124.698 17.7188 124.764 17.3701 124.806 17.018C124.811 16.9314 124.798 16.8447 124.766 16.764C124.734 16.6832 124.685 16.6105 124.621 16.5508C124.466 16.4262 124.268 16.3642 124.069 16.3769C123.735 16.398 123.413 16.5128 123.141 16.7079C122.797 16.927 122.514 17.2305 122.32 17.5896C122.088 18.1194 121.919 18.6745 121.816 19.2436L121.133 22.2772H118.757L120.426 14.8731H122.693L122.537 15.5809C122.873 15.3328 123.238 15.1269 123.623 14.9676C124.069 14.7933 124.544 14.7047 125.023 14.7062C125.603 14.6761 126.172 14.8698 126.614 15.247C126.81 15.4314 126.965 15.6558 127.066 15.9051C127.168 16.1544 127.215 16.4226 127.204 16.6917Z" fill="#202020"/>
<path d="M134.871 14.8762L134.639 15.8907C134.416 15.5698 134.126 15.3012 133.788 15.1035C133.341 14.8404 132.831 14.7038 132.313 14.7081C131.645 14.7161 130.991 14.9087 130.426 15.2646C129.793 15.6561 129.293 16.2287 128.99 16.9081C128.649 17.6471 128.477 18.4523 128.485 19.2658C128.457 19.6744 128.511 20.0845 128.642 20.4725C128.773 20.8605 128.979 21.2187 129.249 21.5267C129.503 21.7845 129.808 21.987 130.144 22.1214C130.481 22.2559 130.841 22.3195 131.203 22.3081C131.915 22.298 132.609 22.0774 133.197 21.6739C133.133 22.0356 133.041 22.3916 132.919 22.7383C132.833 22.9543 132.685 23.1406 132.495 23.2745C132.195 23.4339 131.859 23.5094 131.519 23.493C131.316 23.5023 131.112 23.4696 130.922 23.3968C130.808 23.3518 130.707 23.2772 130.632 23.1806C130.569 23.064 130.541 22.9322 130.55 22.8003V22.6698L128.088 22.3377L128.067 22.4849C128.052 22.5849 128.045 22.6858 128.044 22.7869C128.015 23.1462 128.083 23.5065 128.242 23.8303C128.4 24.154 128.642 24.4292 128.944 24.6269C129.723 25.0311 130.598 25.2167 131.475 25.1643C131.919 25.1669 132.362 25.1303 132.799 25.0548C133.179 24.9926 133.545 24.8685 133.884 24.6872C134.181 24.5254 134.443 24.307 134.657 24.0443C134.888 23.7373 135.068 23.3957 135.192 23.0322C135.415 22.3589 135.6 21.6736 135.746 20.9794L137.114 14.8768L134.871 14.8762ZM132.034 20.5829C131.87 20.5875 131.707 20.5561 131.555 20.491C131.405 20.4259 131.27 20.3287 131.16 20.2061C130.903 19.8869 130.777 19.4821 130.806 19.0733C130.817 18.6879 130.892 18.3069 131.029 17.9464C131.167 17.4934 131.417 17.0824 131.755 16.751C132.004 16.5153 132.333 16.3827 132.677 16.38C132.849 16.3806 133.019 16.4178 133.175 16.4893C133.332 16.5607 133.472 16.6648 133.585 16.7945C133.722 16.9447 133.827 17.1206 133.896 17.3119C133.964 17.5033 133.994 17.7064 133.983 17.9093C133.977 18.3564 133.889 18.7986 133.722 19.2136C133.581 19.6149 133.328 19.9678 132.994 20.231C132.72 20.4514 132.381 20.5754 132.031 20.5835L132.034 20.5829Z" fill="#202020"/>
</g>
<defs>
<clipPath id="clip0_298_12433">
<rect width="137.391" height="40" fill="white"/>
</clipPath>
</defs>
</svg>
