<svg width="40" height="40" viewBox="0 0 40 40" fill="none" xmlns="http://www.w3.org/2000/svg">
<path fill-rule="evenodd" clip-rule="evenodd" d="M13.0671 35.7688C13.5802 35.7688 13.9551 35.8775 14.1919 36.0948C14.4287 36.3121 14.5472 36.6501 14.5475 37.1088V39.5672H13.7779V37.2128C13.7779 36.6944 13.4872 36.4352 12.9059 36.4352C12.6548 36.4331 12.4083 36.5025 12.1951 36.6352C12.232 36.7903 12.2493 36.9494 12.2467 37.1088V39.5672H11.4771V37.2128C11.4771 36.6944 11.1864 36.4352 10.6051 36.4352C10.3399 36.4354 10.0768 36.4831 9.82831 36.576V39.5672H9.05911V36.154C9.31378 36.0274 9.58336 35.9333 9.86151 35.874C10.1582 35.8048 10.4617 35.7689 10.7663 35.7668C11.2463 35.7668 11.603 35.8601 11.8363 36.0468C12.2206 35.8632 12.6412 35.7682 13.0671 35.7688ZM17.1843 39.68C16.5976 39.68 16.1567 39.5121 15.8615 39.1764C15.5663 38.8407 15.4186 38.352 15.4183 37.7104C15.4183 36.412 16.005 35.7629 17.1783 35.7632C17.7695 35.7632 18.214 35.9297 18.5119 36.2628C18.8098 36.5959 18.9588 37.0784 18.9591 37.7104C18.9591 38.3419 18.8052 38.828 18.4975 39.1688C18.1898 39.5096 17.752 39.68 17.1843 39.68ZM17.1767 39.0208C17.8511 39.0208 18.1882 38.584 18.1879 37.7104C18.1879 37.276 18.1079 36.9515 17.9479 36.7368C17.7879 36.5221 17.5314 36.4147 17.1783 36.4144C16.8218 36.4144 16.5666 36.5243 16.4127 36.744C16.2588 36.9637 16.1819 37.2859 16.1819 37.7104C16.1819 38.1347 16.2612 38.4592 16.4199 38.684C16.5786 38.9088 16.8308 39.0205 17.1767 39.0192V39.0208ZM21.5283 35.7704C22.0755 35.7704 22.4907 35.9357 22.7739 36.2664C23.0571 36.5971 23.1991 37.0655 23.1999 37.6716C23.1999 38.4023 23.0302 38.9193 22.6907 39.2228C22.3512 39.5263 21.9198 39.6787 21.3963 39.68C20.3459 39.68 19.8207 39.3987 19.8207 38.836V34.362H20.5831V36C20.7364 35.9267 20.8974 35.8708 21.0631 35.8332C21.2152 35.7942 21.3713 35.7725 21.5283 35.7688V35.7704ZM21.3375 39.006C21.7375 39.006 22.0175 38.89 22.1775 38.658C22.3375 38.426 22.4175 38.1076 22.4175 37.7028C22.4175 37.2884 22.3332 36.9725 22.1647 36.7552C21.9962 36.5379 21.7459 36.4293 21.4139 36.4296C21.2693 36.4306 21.1253 36.4491 20.9851 36.4848C20.8448 36.5187 20.7101 36.5726 20.5851 36.6448V38.6448C20.5838 38.8848 20.8346 39.0047 21.3375 39.0044V39.006ZM24.0695 34.556H24.8903V35.2596H24.0695V34.556ZM24.0915 35.874H24.8611L24.8683 39.5688H24.0915V35.874ZM25.9515 39.5688V34.4436H26.7139V39.5672L25.9515 39.5688ZM29.2919 35.76C29.8636 35.76 30.2826 35.9467 30.5487 36.32C30.8148 36.6933 30.9455 37.2153 30.9407 37.886H28.3599C28.3847 38.2513 28.4914 38.5291 28.6799 38.7192C28.8684 38.9093 29.1359 39.0043 29.4823 39.004C29.8973 39.0044 30.3057 38.9 30.6695 38.7004V39.426C30.2884 39.5953 29.8519 39.68 29.3599 39.68C28.8079 39.68 28.3743 39.5109 28.0591 39.1728C27.7439 38.8347 27.5864 38.3547 27.5867 37.7328C27.5867 37.096 27.7356 36.6087 28.0335 36.2708C28.3314 35.9329 28.7508 35.7627 29.2919 35.76ZM29.2699 36.4C29.011 36.4 28.8083 36.4692 28.6619 36.6076C28.5155 36.746 28.4202 36.9804 28.3759 37.3108H30.1567C30.1223 36.9948 30.0343 36.7641 29.8927 36.6188C29.7511 36.4735 29.5435 36.4005 29.2699 36.4ZM21.9199 5.9384C21.0711 5.72853 20.4178 5.62346 19.9599 5.62319C16.5443 5.62319 13.7751 8.38319 13.7751 11.7868C13.7751 15.1904 16.5455 17.9508 19.9599 17.9508C23.3743 17.9508 26.1451 15.1908 26.1451 11.7868C26.1454 11.2895 26.0854 10.7941 25.9667 10.3112L30.8839 8.9868C31.2822 10.5011 31.3576 12.0822 31.105 13.6275C30.8524 15.1728 30.2776 16.6477 29.4179 17.9564L21.2755 33.052H13.7323L19.0923 23.172C19.1215 23.1176 19.0355 22.9976 18.9635 22.9912C13.2359 22.4712 8.74951 17.6712 8.74951 11.8276C8.74951 5.63599 13.7855 0.617194 19.9983 0.617194C21.1356 0.615944 22.2665 0.786812 23.3527 1.12399L21.9199 5.9384Z" fill="#006E53"/>
<path d="M19.9227 15.1765C21.795 15.1765 23.3127 13.6587 23.3127 11.7865C23.3127 9.91424 21.795 8.39648 19.9227 8.39648C18.0505 8.39648 16.5327 9.91424 16.5327 11.7865C16.5327 13.6587 18.0505 15.1765 19.9227 15.1765Z" fill="#D6E806"/>
<path d="M25.7784 9.47526C25.1911 8.00509 24.0591 6.81825 22.6184 6.16206M27.936 8.55046C27.1066 6.51145 25.5382 4.86054 23.5444 3.92766M30.0164 7.85726C28.9599 5.16917 26.8823 3.00858 24.2376 1.84766" stroke="#D6E806" stroke-linecap="round"/>
</svg>
