<svg width="70" height="80" viewBox="0 0 70 80" fill="none" xmlns="http://www.w3.org/2000/svg">
<path d="M69.851 45.4126C66.8778 61.4715 52.5581 74.5655 35.6378 74.5655C28.3876 74.5632 21.3101 72.3533 15.3468 68.2297L0.0415039 74.4247L6.02944 58.7881C2.47643 53.4462 0.381068 47.0856 0.381068 40.228C0.381068 21.1379 16.5477 5.44336 35.6378 5.44336C53.4028 5.44336 68.029 18.8437 69.9752 36.087C51.6553 35.8385 46.0898 32.6417 42.5036 30.1405C41.8379 29.6795 41.1137 29.3091 40.3503 29.039C38.785 28.3515 37.054 27.9706 35.2403 27.9706C28.2171 27.9706 23.2064 32.2855 23.2064 39.317C23.2064 46.3485 28.5566 50.6551 35.5798 50.6551C36.6731 50.6551 37.7415 50.5144 38.7519 50.2576C40.5905 49.8601 41.7748 49.2058 41.7748 49.2058C53.0053 43.0191 66.9689 44.4933 69.8427 45.4209L69.851 45.4126Z" fill="#FFCF1F" stroke="#FFCF1F" stroke-width="0.0124231" stroke-miterlimit="10"/>
</svg>
