<svg width="182" height="40" viewBox="0 0 182 40" fill="none" xmlns="http://www.w3.org/2000/svg">
<g clip-path="url(#clip0_298_12563)">
<path d="M52.025 26.8677C53.4323 26.8677 54.625 26.6964 55.8787 26.3343C56.0746 26.2777 56.1996 26.0945 56.1796 25.8926L56.0605 24.6944C56.0478 24.5662 55.9841 24.461 55.8764 24.3889C55.7687 24.3169 55.6468 24.2987 55.5223 24.3355C54.5059 24.637 53.4655 24.7878 52.255 24.7878C48.9605 24.7878 47.8623 23.6719 47.8623 20.4769C47.8623 17.2815 48.96 16.1909 52.255 16.1909C53.4655 16.1909 54.5059 16.3416 55.5223 16.6431C55.6468 16.68 55.7687 16.6618 55.8764 16.5901C55.9841 16.5181 56.0478 16.4129 56.0605 16.2846L56.1796 15.0864C56.1996 14.8846 56.0746 14.7014 55.8787 14.6448C54.625 14.2827 53.4323 14.1114 52.025 14.1114C47.4023 14.1114 45.5382 15.9372 45.5382 20.5022C45.5382 25.0672 47.4028 26.8677 52.025 26.8677ZM59.2896 26.5634H60.7482C60.9791 26.5634 61.1682 26.3758 61.1682 26.1463V17.5604C62.7514 16.6222 64.13 16.2419 65.8164 16.2419H65.9068C66.1382 16.2419 66.3268 16.0543 66.3268 15.8248V14.5288C66.3268 14.2989 66.1382 14.1118 65.9068 14.1118H65.7909C64.2073 14.1118 62.7773 14.5684 60.8868 15.735L60.6059 14.4165H59.2896C59.0582 14.4165 58.8696 14.6036 58.8696 14.8335V26.1467C58.8696 26.3762 59.0582 26.5634 59.2896 26.5634ZM74.3714 26.8677C79.275 26.8677 81.0882 25.1178 81.0882 20.5022C81.0882 15.8612 79.275 14.1114 74.3714 14.1114C69.4682 14.1114 67.655 15.8612 67.655 20.5022C67.655 25.1178 69.4682 26.8677 74.3714 26.8677ZM74.3714 24.8135C71.0768 24.8135 69.9787 23.7483 69.9787 20.5022C69.9787 17.2308 71.0768 16.1659 74.3714 16.1659C77.6659 16.1659 78.7641 17.2308 78.7641 20.5022C78.7641 23.7483 77.6659 24.8135 74.3714 24.8135ZM86.9809 26.5634H88.9364C89.1182 26.5634 89.2737 26.4538 89.3332 26.2828L92.4532 17.3325L95.5482 26.282C95.6078 26.4534 95.7628 26.5638 95.9455 26.5638H97.9C98.0823 26.5638 98.2373 26.4538 98.2973 26.2825L102.222 14.9693C102.267 14.8379 102.248 14.7045 102.167 14.5914C102.085 14.4782 101.965 14.4165 101.825 14.4165H100.34C100.157 14.4165 100.001 14.5276 99.9423 14.7002L96.8973 23.6727L93.7768 14.6974C93.7178 14.526 93.5628 14.4165 93.38 14.4165H91.5782C91.3959 14.4165 91.2409 14.526 91.1814 14.6974L88.0609 23.6727L85.0159 14.7002C84.9578 14.5273 84.8018 14.4165 84.6182 14.4165H83.0573C82.9173 14.4165 82.7968 14.4782 82.7155 14.5914C82.6341 14.7045 82.6146 14.8379 82.6605 14.9693L86.585 26.2825C86.6446 26.4538 86.8 26.5638 86.9818 26.5638L86.9809 26.5634ZM109.283 26.8677C111.174 26.8677 112.757 26.4364 114.519 25.4221L114.749 26.5634H116.065C116.297 26.5634 116.486 26.3758 116.486 26.1463V9.07622C116.486 8.84632 116.297 8.65918 116.065 8.65918H114.607C114.376 8.65918 114.187 8.84632 114.187 9.07622V15.3792C112.553 14.4916 111.046 14.1114 109.283 14.1114C105.376 14.1114 103.793 15.9372 103.793 20.4769C103.793 25.0419 105.376 26.8677 109.283 26.8677ZM109.743 24.8135C107.062 24.8135 106.117 23.6723 106.117 20.5022C106.117 17.3068 107.062 16.1659 109.743 16.1659C111.326 16.1659 112.578 16.5715 114.187 17.5861V23.3937C112.578 24.4083 111.326 24.8135 109.743 24.8135ZM120.124 31.7623H120.75C123.151 31.7623 123.994 31.179 124.939 28.8712L130.629 14.9902C130.683 14.8577 130.668 14.7192 130.588 14.6005C130.507 14.4817 130.383 14.416 130.239 14.416H128.722C128.547 14.416 128.397 14.5166 128.332 14.6784L124.811 23.444L121.164 14.6737C121.098 14.5142 120.95 14.416 120.775 14.416H119.188C119.043 14.416 118.918 14.4825 118.837 14.6028C118.757 14.7231 118.744 14.8628 118.8 14.9958L123.61 26.2848L122.921 27.9587C122.308 29.4296 121.925 29.7592 120.673 29.7592H120.123C119.891 29.7592 119.703 29.9468 119.703 30.1763V31.3456C119.703 31.5755 119.891 31.7627 120.123 31.7627L120.124 31.7623ZM136.784 26.5634H137.893C138.064 26.5634 138.21 26.468 138.278 26.3121L143.175 15.1003C143.233 14.9673 143.22 14.8264 143.14 14.7053C143.06 14.5842 142.935 14.517 142.79 14.517H142.122C141.95 14.517 141.804 14.6127 141.736 14.769L137.351 24.8891L132.965 14.769C132.898 14.6127 132.751 14.517 132.58 14.517H131.887C131.741 14.517 131.616 14.5842 131.536 14.7053C131.456 14.8264 131.444 14.9673 131.502 15.1003L136.399 26.3121C136.467 26.468 136.613 26.5634 136.784 26.5634ZM151.883 26.8677C153.693 26.8677 154.948 26.669 156.435 26.1693C156.626 26.1048 156.743 25.9188 156.716 25.7197L156.651 25.2322C156.635 25.1032 156.566 24.9991 156.455 24.931C156.343 24.863 156.219 24.8503 156.095 24.8939C154.751 25.3671 153.575 25.5492 151.909 25.5492C147.873 25.5492 146.469 24.4839 146.341 21.0348H157.05C157.27 21.0348 157.451 20.869 157.469 20.6522C157.491 20.3894 157.502 20.0906 157.502 19.7923C157.502 15.8105 155.74 14.213 151.321 14.213C146.673 14.213 144.86 15.9629 144.86 20.5785C144.86 25.2702 146.75 26.8677 151.883 26.8677ZM146.367 19.767C146.546 16.5969 147.874 15.532 151.321 15.532C154.769 15.532 156.02 16.6226 156.072 19.767H146.367ZM165.572 26.8677C169.888 26.8677 171.344 25.9041 171.344 23.216C171.344 20.9335 170.322 20.1223 166.925 19.818L165.24 19.6656C162.354 19.412 161.715 19.0064 161.715 17.6875C161.715 16.0642 162.737 15.532 165.801 15.532C167.559 15.532 168.847 15.714 170.14 16.0967C170.26 16.1323 170.379 16.116 170.485 16.0488C170.592 15.9815 170.657 15.8818 170.675 15.758L170.755 15.2241C170.786 15.0175 170.662 14.8233 170.46 14.7635C169.11 14.3638 167.699 14.213 166.006 14.213C161.792 14.213 160.26 15.1513 160.26 17.7634C160.26 19.9446 161.282 20.6545 164.755 21.0095L166.44 21.1872C169.25 21.4915 169.888 21.8465 169.888 23.2667C169.888 25.0165 168.866 25.5492 165.751 25.5492C163.629 25.5492 162.174 25.301 160.689 24.8234C160.566 24.7839 160.444 24.7993 160.335 24.8677C160.226 24.9366 160.16 25.0391 160.143 25.1665L160.075 25.6924C160.049 25.893 160.167 26.0794 160.36 26.1427C161.913 26.6469 163.498 26.8677 165.573 26.8677H165.572ZM178.903 26.5634H180.526C180.758 26.5634 180.946 26.3758 180.946 26.1463V25.6873C180.946 25.4574 180.758 25.2702 180.526 25.2702H179.184C177.295 25.2702 176.784 24.7629 176.784 22.8104V15.7856H180.5C180.732 15.7856 180.92 15.598 180.92 15.3685V14.9349C180.92 14.7049 180.732 14.5178 180.5 14.5178H176.784V11.3081C176.784 11.0786 176.595 10.891 176.364 10.891H175.861C175.635 10.891 175.45 11.0691 175.441 11.2935L175.328 14.5174H172.786C172.554 14.5174 172.365 14.7045 172.365 14.9345V15.3681C172.365 15.5977 172.554 15.7852 172.786 15.7852H175.303V22.9113C175.303 25.6501 176.274 26.563 178.904 26.563L178.903 26.5634Z" fill="#214D52"/>
<path fill-rule="evenodd" clip-rule="evenodd" d="M27.6652 38.2569C27.6221 37.731 27.5129 36.7595 27.3954 35.7124C27.1862 33.8454 26.9494 31.7378 27.0056 31.3686L27.0491 31.0853L27.3292 31.1505C27.756 31.2503 29.2433 32.177 30.0702 32.6927L30.5065 32.9625L31.3056 33.4509C31.9814 33.866 32.6597 34.2823 33.3495 34.6637C33.9636 34.217 34.7399 33.4291 35.4266 32.6009C36.0933 31.7972 36.6711 30.9614 36.9278 30.371C36.3145 29.8665 33.9716 28.4985 32.3513 27.5523C31.7264 27.1875 31.2075 26.8843 30.9298 26.7134C29.6191 25.9057 28.2072 25.6335 26.8829 25.787C25.954 25.8946 25.0665 26.2136 24.287 26.7043C23.5071 27.1958 22.8348 27.859 22.3371 28.656C21.6222 29.8004 21.2627 31.2245 21.45 32.8173C21.4823 33.092 21.5365 33.6606 21.6022 34.3519C21.7764 36.1801 22.035 38.8944 22.2335 39.6577C22.8607 39.6747 23.8678 39.505 24.8875 39.2445C25.9436 38.9751 27.0036 38.6102 27.664 38.256L27.6652 38.2569Z" fill="#C0D271"/>
<path fill-rule="evenodd" clip-rule="evenodd" d="M19.4416 33.4982C19.4607 32.2814 19.3743 31.1627 18.9845 30.1548C18.5988 29.158 17.9077 28.2566 16.713 27.4572C15.8475 26.8779 14.75 26.485 13.5895 26.4062C12.5569 26.3361 11.475 26.5142 10.4631 27.0299C9.91001 27.312 8.83006 28.0437 7.67119 28.8735C6.19433 29.9313 4.59747 31.1441 3.79089 31.7959C4.14836 32.4737 4.83019 33.2363 5.57142 33.947C6.32624 34.6704 7.13797 35.3352 7.74133 35.8085L13.8254 31.4472L13.8393 31.9451C13.8537 32.4524 13.8186 33.3914 13.7796 34.4341C13.7158 36.1476 13.6409 38.1467 13.7552 38.8804L14.3168 39.0375C15.7482 39.4431 17.7535 40.0114 19.238 39.8091L19.4416 33.4982Z" fill="#99CC99"/>
<path fill-rule="evenodd" clip-rule="evenodd" d="M9.509 25.2653C10.3861 24.5669 10.9835 23.6797 11.3342 22.7268C11.7247 21.6651 11.8108 20.5207 11.639 19.4633C11.0955 16.1211 8.58841 15.0645 5.78891 13.8845C5.29714 13.6771 4.79618 13.4662 4.27734 13.2304L3.96052 13.0855C3.22885 12.7496 2.0648 12.2149 1.4766 12.04C1.13827 12.5917 0.749718 13.6696 0.455218 14.7535C0.161915 15.8334 -0.0353474 16.903 0.00530068 17.4432L6.825 20.4566L0.236835 24.1004C0.44167 24.9848 0.672009 25.8969 0.987632 26.7928C1.29767 27.6725 1.691 28.5383 2.2258 29.3491C2.82118 29.0215 3.54727 28.6471 4.32038 28.249C6.2185 27.2716 8.40073 26.1478 9.509 25.2653Z" fill="#7CB8A6"/>
<path fill-rule="evenodd" clip-rule="evenodd" d="M11.9139 14.0539C13.0357 14.1184 14.2376 13.8418 15.5001 13.0464C18.8535 10.9329 18.4765 7.87752 18.0972 4.80757C18.0465 4.39325 17.9951 3.97854 17.9485 3.51674C17.9274 3.30938 17.9087 3.09648 17.8879 2.85628C17.8122 1.97502 17.7034 0.720201 17.5548 0.132561C16.9666 0.0993209 15.7619 0.295597 14.5939 0.607424C13.582 0.877697 12.6124 1.23147 12.1223 1.59157C12.1446 2.24451 12.2956 3.34341 12.4507 4.47319C12.6766 6.11621 12.9109 7.82493 12.7802 8.45093L12.7045 8.81221L6.4419 5.11225C5.84017 5.5618 5.00926 6.41893 4.28557 7.29543C3.62045 8.10112 3.05297 8.91311 2.84973 9.42043C3.53398 9.9313 6.28531 11.5447 7.84467 12.4584L8.77799 13.0076C9.73558 13.5802 10.7893 13.989 11.9143 14.0531L11.9139 14.0539Z" fill="#54AB68"/>
<path fill-rule="evenodd" clip-rule="evenodd" d="M20.7616 9.58082C21.1286 10.6065 21.8161 11.5483 23.0746 12.375C27.1167 15.0314 30.6216 12.2511 34.2352 9.38377C34.8155 8.92432 35.3981 8.4625 35.9795 8.02368C34.9083 6.35891 33.5482 5.256 32.224 4.18284L32.047 4.03959L26.0144 8.36714L25.9646 7.91605C25.8721 7.0795 25.9307 5.59555 25.9861 4.1765C26.0411 2.7824 26.0933 1.45239 26 0.930832C25.2225 0.64275 24.1198 0.352688 23.0144 0.174615C22.1396 0.0341359 21.2661 -0.0366975 20.5556 0.0190986L20.3567 6.20614C20.338 7.40318 20.3894 8.54204 20.7612 9.58123L20.7616 9.58082Z" fill="#41747A"/>
</g>
<defs>
<clipPath id="clip0_298_12563">
<rect width="181.364" height="40" fill="white"/>
</clipPath>
</defs>
</svg>
