<svg width="193" height="40" viewBox="0 0 193 40" fill="none" xmlns="http://www.w3.org/2000/svg">
<g clip-path="url(#clip0_291_4152)">
<path fill-rule="evenodd" clip-rule="evenodd" d="M110.889 0.147771C107.008 0.562154 103.334 2.10731 100.323 4.59141C97.3123 7.07551 95.0974 10.3892 93.9534 14.121C92.8094 17.8528 92.7866 21.8384 93.8879 25.5831C94.9892 29.3277 97.166 32.6665 100.148 35.1848C102.666 37.3111 105.672 38.7797 108.897 39.4591C112.122 40.1384 115.465 40.0073 118.626 39.0775C121.788 38.1476 124.67 36.4481 127.013 34.1311C129.357 31.8142 131.089 28.9521 132.055 25.8012C133.021 22.6503 133.19 19.3091 132.548 16.0767C131.906 12.8444 130.471 9.82181 128.374 7.27978C126.277 4.73776 123.581 2.75564 120.53 1.51096C117.478 0.266276 114.166 -0.202103 110.889 0.147771ZM110.963 0.592215C116.083 0.076662 121.198 1.60748 125.193 4.85048C129.188 8.09348 131.738 12.7853 132.286 17.9015C132.833 23.0178 131.335 28.1431 128.117 32.1584C124.899 36.1737 120.224 38.7529 115.111 39.333C112.559 39.6225 109.974 39.4045 107.507 38.6914C105.039 37.9783 102.737 36.7843 100.732 35.178C98.7277 33.5716 97.0607 31.5848 95.8271 29.3317C94.5935 27.0786 93.8176 24.6039 93.5441 22.0498C93.2707 19.4957 93.505 16.9127 94.2336 14.4496C94.9622 11.9864 96.1708 9.69164 97.7897 7.69735C99.4086 5.70305 101.406 4.04861 103.667 2.82922C105.928 1.60984 108.407 0.849582 110.963 0.592215Z" fill="#ACBB16"/>
<path fill-rule="evenodd" clip-rule="evenodd" d="M112.222 1.40717C109.48 1.53439 106.799 2.26989 104.376 3.56043C101.953 4.85097 99.8464 6.66425 98.21 8.86898C96.5737 11.0737 95.448 13.6147 94.9146 16.3081C94.3812 19.0014 94.4533 21.7796 95.1259 24.4417C95.7984 27.1037 97.0544 29.5828 98.803 31.6996C100.552 33.8165 102.749 35.518 105.236 36.681C107.723 37.844 110.438 38.4394 113.184 38.424C115.929 38.4087 118.637 37.7831 121.111 36.5924C123.538 35.3879 125.672 33.6678 127.364 31.5523C129.056 29.4368 130.265 26.9771 130.907 24.3453C131.55 21.7135 131.609 18.9731 131.081 16.3161C130.553 13.659 129.451 11.1493 127.852 8.96273C127.556 8.44421 127.185 8.22199 126.815 7.70347C125.027 5.60707 122.781 3.94918 120.251 2.85756C117.721 1.76595 114.974 1.26974 112.222 1.40717ZM112.667 17.7775C112.741 17.9257 112.741 17.7035 112.741 17.9998L112.37 19.4072L112 21.1849C111.407 20.2961 110.963 18.3701 110.741 17.1849C110.444 15.1849 110.741 14.1479 110.815 12.2961C110.519 13.0368 110.37 14.0738 110.296 14.9627C109.556 14.2961 109.481 13.7035 108.444 13.3331C109.481 14.1479 109.926 15.1109 110.074 16.8146C110.148 18.8887 110.444 19.4812 110.815 21.259C110.148 20.8146 109.778 20.3701 109.259 19.7775C106.667 16.8146 105.852 18.8146 104.815 14.8887C104.741 16.3701 105.037 16.5183 105.407 17.5553C104.593 17.5553 103.778 17.4072 103.111 17.8516C104.815 17.9998 106 18.222 107.111 19.0368C109.481 20.7405 112.444 25.5553 112.593 28.8887C111.852 28.5183 111.111 26.8887 107.778 25.6294C106.667 25.259 105.778 25.1109 104.815 24.5924C104.296 24.222 103.185 23.1849 103.185 22.3701C103.185 23.3331 104.074 24.5183 104.444 24.8146L100.963 24.9627C103.333 25.1849 104.444 24.9627 106.519 25.7775C107.926 26.3701 109.556 27.4072 110.37 28.222C110.889 28.8146 112.519 30.1479 112.222 30.9627L110.815 34.4442C110.37 35.6294 110.444 35.7035 110.296 37.0368C106.008 36.3765 102.131 34.1119 99.4497 30.7015C96.768 27.291 95.482 22.9891 95.8519 18.6664C96.1367 15.4372 97.3252 12.3535 99.2813 9.76848C101.237 7.18342 103.882 5.20151 106.912 4.04973C109.942 2.89794 113.236 2.62283 116.415 3.25592C119.594 3.88901 122.531 5.40469 124.889 7.62939L125.333 8.14791C127.542 10.4441 129.069 13.3091 129.744 16.4231C130.419 19.5371 130.215 22.7773 129.154 25.7819C128.094 28.7864 126.219 31.437 123.739 33.4376C121.259 35.4382 118.272 36.71 115.111 37.1109C114.593 34.8887 114.815 33.9998 115.407 31.8516C116.074 29.5553 116.444 29.4072 117.926 28.222C121.407 25.5553 122.889 25.5553 126.222 24.3701C124.963 24.2961 124 24.5183 122.815 24.7405C123.407 23.7035 123.704 23.5553 123.852 22.0738C123.556 24.8146 120.37 25.259 117.481 27.0368L115.333 28.5183C114 25.8516 115.926 24.9627 117.926 22.0738C118.444 21.3331 119.185 19.8516 119.407 18.6664C119.704 16.8146 120.148 16.5924 121.259 15.5553C120.37 15.8516 120.074 16.3701 119.556 16.8146L119.333 15.4812C119.259 17.6294 119.185 19.6294 117.111 21.4812C117.556 18.7405 117.407 18.5183 116.519 16.2961C117.407 19.0368 116.667 21.6294 114.889 23.7035L113.333 25.4072C113.111 24.1479 112.963 22.6664 112.963 21.3331C112.963 20.6664 113.185 18.4442 113.63 17.7775C113.778 16.8146 114.815 15.1109 115.259 14.4442L116.963 12.3701L117.556 11.7775C117.185 11.9998 116.222 12.6664 116 12.9627V11.4072L115.63 10.222C115.778 11.0368 116 11.4812 115.704 12.5183C115.111 14.4442 112.815 16.3701 112.741 17.5553V15.6294C111.926 15.9257 111.111 16.8146 111.556 17.9998L112 16.9627L111.778 18.0738C112.444 17.9257 112.37 17.9998 112.667 17.7775Z" fill="#293737"/>
<path fill-rule="evenodd" clip-rule="evenodd" d="M119.111 12.1485C119.926 11.7781 120.815 10.8893 122.444 10.8152C121.333 11.2596 120 11.7041 119.333 12.5189C121.111 14.3707 122.815 11.7781 123.481 11.2596C123.926 10.8893 124.37 10.8152 124.815 10.4448C123.704 10.0744 122.519 9.63 121.185 9.92629C120 10.1485 118.963 10.8152 119.111 12.1485ZM120 27.4818C122 27.2596 122.222 27.5559 123.852 27.8522C122.222 27.7781 121.852 27.4818 120 27.9263C121.407 30.667 123.111 28.4448 125.704 28.5189C124.148 26.2226 120.37 25.4818 120 27.4818ZM101.704 12.0004L101.926 12.0744L102 12.1485L102.444 12.2967C102.741 12.2967 102.889 12.4448 103.111 12.5189C104.37 13.0374 105.63 14.4448 106.741 12.2967C106.074 11.8522 104.593 11.63 103.704 11.63C105.111 11.5559 105.556 11.63 106.741 11.9263C106.444 10.9633 105.481 10.593 104.222 10.8152C102.963 10.9633 102.519 11.63 101.704 12.0004ZM124.444 23.1856C125.111 22.593 125.185 22.0744 126.148 21.5559C125.778 22.1485 124.963 22.667 124.741 23.5559C127.111 24.3707 126.593 22.8893 128.444 20.2967C126.444 20.0744 124 21.1115 124.444 23.1856ZM115.037 9.18555C115.111 8.59296 114.296 7.48185 114.074 7.11148C114.815 7.70407 114.889 8.14852 115.259 8.66704L115.481 8.96333C115.778 7.77815 115.333 7.18555 114.667 6.51889C114.074 6.00037 113.185 5.48185 112.148 5.55592C113.407 7.48185 112.519 9.70407 115.037 9.18555ZM120.222 19.63C120.963 20.2967 120.667 19.7041 122.37 21.4818C122.222 21.0374 120.667 20.1485 119.926 19.8522C119.185 21.9263 121.407 22.0744 122.222 22.3707C122.741 22.5189 123.037 22.8152 123.407 22.9633C123.259 19.4818 120.296 19.0374 120.222 19.63ZM112.444 14.8893C112.593 14.1485 112.444 13.4819 112.444 12.8152L112.519 12.9633C112.667 13.3337 112.741 13.7041 112.741 14.7411C114.074 13.9263 113.185 11.3337 111.407 10.3707C111.63 12.3707 110.148 14.4448 112.444 14.8893ZM99.7037 15.3337C100.815 15.9263 100.889 16.0004 101.704 16.667C102.519 17.4078 103.556 17.1856 104 16.2226L101.926 15.3337C102.815 15.4078 103.333 15.7041 104.074 15.9263C103.778 14.5189 102.074 14.3707 100.815 14.7411L99.7037 15.3337ZM98.6667 21.63C99.4815 22.2967 99.5556 22.2967 100.296 23.3337C100.741 24.0744 101.556 24.4448 102.519 23.63C102.296 23.1115 101.259 22.3707 100.667 22.1485C101.63 22.3707 102.074 23.0374 102.741 23.3337C102.593 21.4818 100.444 21.1115 98.6667 21.63ZM108 31.63C108.741 29.4818 110.519 30.2967 110.296 28.2967C109.556 28.5189 108.741 29.2596 108.519 29.8522C108.889 28.8152 109.704 28.3707 110.074 28.0004C108.074 26.2226 107.037 30.3707 108 31.63ZM109.333 25.9263C109.556 25.1115 109.556 24.8893 109.556 23.9263C109.778 24.5189 109.704 25.3337 109.556 26.0004C110.963 25.8522 111.111 24.8893 110.519 23.7041C110.148 22.8152 109.333 22.2967 108.667 21.8522C108.741 22.7411 108.963 22.9633 108.741 24.0004C108.519 25.0374 108.519 25.63 109.333 25.9263ZM108.889 18.8152L108.741 16.2226L109.185 18.7411C110.37 18.0004 109.704 15.63 107.926 14.667C108.074 16.5189 106.667 18.593 108.889 18.8152ZM122.37 15.9263L124.667 15.7781C123.852 15.9263 122.963 15.8522 122.37 16.2967C123.037 18.2226 124.667 16.3707 126.148 16.2967C126 15.9263 126.148 16.1485 125.778 15.9263L125.407 15.63C124.37 14.9633 122.815 14.8152 122.37 15.9263ZM109.778 12.4448C109.778 11.9263 109.481 11.5559 109.333 11.0374L109.704 11.4819L110 12.1485C110 12.1485 110.222 12.0744 110.296 11.63C110.37 10.667 109.037 9.48185 107.63 9.3337L108.222 11.4078C108.37 12.2967 108.741 12.5189 109.778 12.4448ZM102.593 28.8893C103.111 28.2967 103.185 28.0004 103.778 27.63C104.37 27.1856 104.815 27.1115 104.741 26.1485C104.222 26.0744 104.074 26.3707 103.63 26.593C103.926 26.1485 104.148 26.0744 104.444 25.7781C102.741 24.3707 102.074 27.2596 102.593 28.8893ZM102.963 21.1856C103.63 20.8893 103.778 20.593 104.593 20.4448C105.407 20.2226 105.852 20.2226 105.852 19.2596C105.037 19.3337 104.963 19.4818 104.296 19.7041C104.963 19.2596 105.037 19.3337 105.778 19.0374C105.407 17.63 103.333 18.2967 102.963 21.1856ZM116.667 26.4448L117.556 24.8152C117.333 25.4078 117.111 25.7781 116.963 26.593C118.741 26.593 118.148 25.63 118.815 23.4078C117.63 23.7041 116.148 24.8893 116.667 26.4448ZM114.296 22.4448L114.889 20.667L114.519 22.5189C116.296 22.7411 115.63 20.7411 115.926 19.2596C115.037 19.5559 113.111 21.4818 114.296 22.4448ZM117.556 29.1856L117.704 29.2596L117.926 29.3337L118.963 29.8522C118.37 29.7041 118.148 29.5559 117.333 29.4818C117.481 31.3337 118.815 30.667 120.444 31.1115C120.296 30.3707 119.852 29.8522 119.481 29.4818C119.111 29.1115 118.148 28.5189 117.556 29.1856ZM99.1852 18.8152C100 18.7411 100.296 18.667 101.037 18.9633C101.778 19.1856 102.222 19.1856 102.444 18.593C101.926 18.2226 101.556 18.3707 100.963 18.2226L102.519 18.3707C102.519 16.1485 99.7778 17.63 99.1852 18.8152ZM112.444 10.1485C112.593 9.77815 112.222 9.3337 112 8.81518C112.222 9.11148 112.519 9.63 112.815 9.85222C113.185 9.25963 112.593 8.51889 112.222 8.29667C111.778 7.9263 111.259 7.77815 110.593 7.70407C111.333 9.40778 111.259 10.3707 112.444 10.1485ZM122.074 13.7041C122.667 13.5559 122.889 13.3337 123.481 13.3337C123.037 13.4819 122.444 13.63 122.148 13.9263C122.519 14.4448 123.037 14.7411 123.704 14.1485L125.185 13.2596C124.37 12.7411 122.444 12.2967 122.074 13.7041ZM106.815 29.1115C106.889 28.5189 106.889 28.2226 107.111 27.7041C107.852 26.3707 107.259 25.8522 106.815 26.8152L106.593 27.5559C106.593 26.8893 106.815 26.7411 106.963 26.2226C105.185 26.2226 105.704 28.2226 106.815 29.1115ZM113.852 17.63H114.889L113.926 18.0744C114.444 19.2596 115.259 18.4448 116.444 17.8522L116.741 17.63C116.296 17.4078 115.481 16.8152 114.444 17.1856L114.074 17.4078V17.4818L114 17.5559L113.852 17.63ZM120.593 18.3707C121.037 18.2226 121.407 18.0744 121.926 18.0744C121.407 18.1485 120.963 18.2226 120.593 18.593C121.259 19.7041 122.074 18.667 122.519 18.3707L123.185 18.0744C122.444 17.63 120.963 17.1115 120.593 18.3707ZM112.667 17.7781L112.963 17.4818V15.5559C112.148 15.8522 111.333 16.7411 111.778 17.8522L112.222 16.8152L112 18.0004C112.444 17.9263 112.37 18.0004 112.667 17.7781ZM118.963 14.4448L118.667 13.3337L118.815 13.5559L119.111 14.0744L119.333 14.2967C120.222 13.1856 118.815 12.4448 117.481 12.3707L117.63 12.667C118.593 14.1485 118 14.4448 118.963 14.4448ZM118.074 10.4448L118.222 10.3707C118.963 10.1485 118.815 8.74111 117.926 8.00037C117.407 9.3337 117.111 10.1485 118.074 10.4448ZM106.889 22.5189C107.259 22.1485 107.111 22.0004 107.704 21.3337C107.852 21.1115 108.074 21.0374 108.074 20.667C107.926 20.1485 107.852 20.4448 107.481 20.667C107.704 20.2967 107.926 20.1485 107.407 20.0744C107.111 20.0744 106.889 20.2967 106.741 20.5189C106.444 21.2596 106.741 21.9263 106.889 22.5189ZM113.852 13.5559L114.222 13.3337L114.444 12.9633L114.222 13.7041C115.63 14.0004 115.111 11.8522 114.519 11.4819C114 12.9633 113.63 12.667 113.852 13.5559ZM118.074 18.7411L118.519 18.2226L118.296 18.8152C119.185 18.593 119.407 17.4078 118.889 16.667L118.815 16.7411C118.741 17.1115 118.815 16.7411 118.741 16.8893C118.148 17.5559 117.259 18.0744 118.074 18.7411ZM118.074 22.5189L118.963 22.2967C118.519 22.4448 118.519 22.3707 118.148 22.7411C118.444 23.1115 118.741 23.2596 119.333 22.8893L120.222 22.2967L120.148 22.0744L119.778 21.9263L119.111 21.8522C118.519 21.8522 118.296 22.0744 118.074 22.5189ZM124.444 25.5559L125.185 25.4078C124.889 25.5559 124.741 25.4818 124.519 25.8522C125.037 26.4448 125.259 26.2226 126.37 25.4818L126.593 25.2596C125.852 25.0374 124.889 24.5189 124.444 25.5559ZM106.667 25.0374L107.037 24.3707L106.889 25.1856C108.074 25.0374 107.63 24.2967 107.852 23.1856C107.185 23.3337 106.074 24.2226 106.667 25.0374ZM105.407 24.2967C105.63 24.0004 105.556 24.0004 105.556 23.63L105.63 23.8522L105.704 24.0004L105.852 24.2226C106.074 23.2596 105.778 22.5189 104.963 22.0744C105.037 23.1856 104.37 24.0744 105.407 24.2967ZM120.519 24.7411L120.667 24.5189L120.815 24.8893C122.222 24.8152 121.185 23.1856 120.741 22.8893C120.667 23.7041 120.148 24.2967 120.519 24.7411ZM105.407 15.4818L105.704 15.5559H106C105.481 15.63 105.556 15.63 105.407 15.9263C105.778 16.1485 106 16.2967 106.444 16.0004L107.407 15.4818C106.815 15.1115 105.852 14.7411 105.407 15.4818ZM118.444 16.0004C118.741 15.5559 118.37 15.9263 118.519 15.7041L118.741 15.5559C118.519 14.9633 118.074 14.8152 117.407 14.7411C117.926 15.9263 117.778 16.0004 118.444 16.0004ZM116.296 16.0004L116.074 15.2596L116.519 15.7781C116.593 15.0374 116.148 14.7411 115.407 14.667C115.63 15.4819 115.481 15.9263 116.296 16.0004ZM0 18.4448V14.7411H2.88889V14.0744C2.88889 10.1485 4.74074 8.22259 8.51852 8.22259C9.92593 8.22259 10.963 8.37074 11.6296 8.81518C12.3704 9.18555 12.7407 9.77815 12.7407 10.5189C12.7407 11.1856 12.5185 11.8522 12.0741 12.593C11.3333 12.2226 10.4444 12.0004 9.48148 12.0004C8.66667 12.0004 8.07407 12.1485 7.7037 12.5189C7.33333 12.8893 7.11111 13.4819 7.11111 14.2226V14.8152L11.6296 14.7411V18.4448L7.48148 18.3707V30.1485H2.88889V18.3707L0 18.4448ZM26 30.1485H23.2593C21.7778 30.1485 20.8889 29.3337 20.7407 27.7041C19.7778 29.5559 18.1481 30.4448 15.8519 30.4448C14.4444 30.4448 13.3333 30.0744 12.3704 29.2596C11.8768 28.8613 11.4851 28.3512 11.2275 27.7717C10.97 27.1921 10.8539 26.5596 10.8889 25.9263C10.8889 22.4448 13.4074 20.667 18.5185 20.667H20.6667C20.6667 19.7041 20.4444 19.0374 20 18.593C19.5556 18.2226 18.7407 18.0004 17.7778 18.0004C15.8519 18.0004 14.2222 18.4448 12.8148 19.3337C12.3704 18.667 12.0741 17.9263 12.0741 17.1115C12.0741 16.2967 12.3704 15.7781 12.8889 15.4818C14.1481 14.7411 15.9259 14.3707 18.1481 14.3707C20.3704 14.3707 22.0741 14.8893 23.3333 15.9263C24.5926 17.0374 25.1852 18.5189 25.1852 20.5189V26.5189C25.2593 28.2226 25.4815 29.3337 26 30.1485ZM16.8889 26.9633C18.3704 26.9633 19.7037 26.3707 20.7407 24.9633V23.3337H18.5926C16.2963 23.3337 15.1111 24.0004 15.1111 25.4078C15.1111 25.8522 15.2593 26.2226 15.6296 26.5189C16 26.8152 16.3704 26.9633 16.8889 26.9633ZM32.2222 17.3337C32.5926 16.593 33.2593 15.9263 34.0741 15.3337C34.8889 14.7411 35.8519 14.4448 36.8148 14.4448C37.6296 14.4448 38.2963 14.667 38.8889 15.1115C39.4815 15.63 39.7037 16.2967 39.7037 17.1856C39.7037 18.1485 39.4815 19.0374 39.1111 20.0004C38.2594 19.2372 37.1425 18.8383 36 18.8893C34.4444 18.8893 33.1852 19.4818 32.1481 20.667V30.1485H27.5556V14.7411H29.4074C30.3704 14.7411 31.037 14.9633 31.4815 15.4078C31.9259 15.7781 32.1481 16.5189 32.2222 17.3337ZM59.8519 27.4818V20.3707C59.8519 18.9633 59.1852 18.2226 58 18.2226C57.3333 18.2226 56.6667 18.4448 56 18.8893C55.4074 19.3337 54.963 19.8522 54.6667 20.4448V30.1485H50.1481V20.3707C50.1481 18.9633 49.4815 18.2226 48.2963 18.2226C47.5556 18.2226 46.963 18.4448 46.2963 18.8893C45.7037 19.3337 45.2593 19.8522 44.8889 20.4448V30.1485H40.3704V14.7411H42.1481C43.1111 14.7411 43.7778 14.9633 44.2222 15.3337C44.5926 15.7781 44.8148 16.3707 44.8889 17.1856C46.1481 15.4078 47.8519 14.4448 50.1481 14.4448C52.2963 14.4448 53.6296 15.4818 54.2963 17.4818C54.8533 16.547 55.6458 15.7745 56.5946 15.2416C57.5435 14.7087 58.6155 14.434 59.7037 14.4448C61.1852 14.4448 62.3704 14.8893 63.1852 15.8522C64 16.8152 64.3704 18.2226 64.3704 19.9263V30.1485H62.6667C60.7407 30.1485 59.8519 29.2596 59.8519 27.4818Z" fill="#ACBB16"/>
<path fill-rule="evenodd" clip-rule="evenodd" d="M68 28.2966C66.5925 26.8892 65.8518 24.9633 65.8518 22.3707C65.8518 19.9262 66.5925 17.9262 68 16.5188C69.4074 15.0373 71.4074 14.2966 73.9259 14.2966C75.6296 14.2966 77.037 14.5188 78.1481 15.1114C78.6666 15.3336 78.9629 15.5558 79.1111 15.7781C79.2592 16.0744 79.3333 16.5188 79.3333 17.0373C79.3333 17.8521 79.1111 18.5929 78.7407 19.4077C77.4074 18.5929 76 18.1484 74.3703 18.1484C71.7777 18.1484 70.5185 19.4818 70.5185 22.3707C70.5185 23.704 70.8148 24.741 71.4814 25.4818C72.1481 26.2225 73.1851 26.5929 74.5185 26.5929C76 26.5929 77.5555 26.1484 78.9629 25.1855C79.4074 26.0003 79.6296 26.8151 79.6296 27.6299C79.6296 28.1484 79.5555 28.5188 79.3333 28.8151C79.1851 29.0373 78.8888 29.3336 78.4444 29.5558C77.3333 30.1484 75.9259 30.4447 74.074 30.4447C71.4814 30.5188 69.4074 29.7781 68 28.2966ZM85.4814 17.3336C85.9259 16.5929 86.5185 15.9262 87.3333 15.3336C88.1481 14.741 89.1111 14.4447 90.074 14.4447C90.8888 14.4447 91.6296 14.667 92.2222 15.1114C92.7407 15.6299 93.037 16.2966 93.037 17.1855C93.037 18.1484 92.7407 19.0373 92.3703 20.0003C91.5186 19.2371 90.4017 18.8382 89.2592 18.8892C87.7037 18.8892 86.4444 19.4818 85.4814 20.667V30.1484H80.8148V14.741H82.6666C83.6296 14.741 84.2963 14.9633 84.7407 15.4077C85.1851 15.7781 85.4074 16.5188 85.4814 17.3336ZM146.074 23.1855L144.148 29.704H137.852L133.704 14.2966H138.815L140.296 20.4447C140.889 22.5188 141.111 24.5188 141.185 26.3707H141.333C141.481 24.5188 141.926 22.4447 142.593 20.2225L144.444 14.2966H149.407L151.259 20.2225C151.852 22.4447 152.222 24.5929 152.37 26.3707H152.444C152.444 24.5188 152.741 22.5188 153.185 20.3707L155.037 14.2966H160.148L155.556 29.704H149.778L147.926 23.1855L147.037 18.0744H146.963C146.667 20.2225 146.444 21.9262 146.074 23.1855ZM170.667 23.5558V19.8521C169.778 18.4447 168.667 17.7781 167.556 17.7781C166.593 17.7781 165.926 18.1484 165.333 18.8892C164.741 19.6299 164.444 20.667 164.444 22.0003C164.444 23.3336 164.741 24.3707 165.259 25.1114C165.778 25.8521 166.593 26.2225 167.556 26.2225C168.222 26.2225 168.815 26.0003 169.407 25.4077C169.926 24.8892 170.37 24.2966 170.667 23.5558ZM175.185 10.8151V26.1484C175.185 27.704 175.407 28.9633 175.852 29.704H173.037C171.556 29.704 170.667 28.8892 170.518 27.2595C170.126 28.1211 169.487 28.8476 168.684 29.3482C167.88 29.8489 166.946 30.1015 166 30.0744C164.148 30.0744 162.593 29.3336 161.481 27.9262C160.37 26.5188 159.778 24.5188 159.778 22.0003C159.778 19.4818 160.37 17.4077 161.481 16.0003C162.667 14.667 164.222 13.9262 166.148 13.9262C167.019 13.9095 167.88 14.1191 168.646 14.5346C169.412 14.9501 170.057 15.5572 170.518 16.2966V8.14844H172.296C174.222 8.14844 175.185 9.03733 175.185 10.8151ZM192.518 14.2966V27.9262C192.518 30.5188 191.852 32.5929 190.444 34.0003C188.963 35.4077 187.037 36.0744 184.444 36.0744C182.148 36.0744 180.593 35.8521 179.704 35.2595C178.963 34.667 178.518 34.0003 178.518 33.1114C178.518 32.0003 178.741 31.1855 179.259 30.5929C180.444 31.704 182 32.1484 183.852 32.1484C185.259 32.1484 186.222 31.9262 186.963 31.3336C187.63 30.8151 187.926 29.8521 187.926 28.5188V27.0373C187.385 27.8588 186.648 28.5326 185.782 28.9982C184.915 29.4637 183.946 29.7063 182.963 29.704C181.185 29.704 179.852 29.1855 178.889 28.0744C177.926 26.9633 177.481 25.3336 177.481 23.1855V14.2966H179.333C181.185 14.2966 182.148 15.1855 182.148 16.9633V22.741C182.148 24.741 182.889 25.7781 184.444 25.7781C186.074 25.7781 187.185 25.1114 188 23.704V14.2966H192.518Z" fill="#293737"/>
</g>
<defs>
<clipPath id="clip0_291_4152">
<rect width="192.593" height="40" fill="white"/>
</clipPath>
</defs>
</svg>
