<svg width="190" height="40" viewBox="0 0 190 40" fill="none" xmlns="http://www.w3.org/2000/svg">
<g clip-path="url(#clip0_291_3607)">
<path d="M1.02572 30.3588C0.769133 30.383 0.512816 30.3098 0.307773 30.1536C0.199063 30.0481 0.115088 29.9198 0.0618856 29.7779C0.00868356 29.636 -0.0124238 29.4841 8.09941e-05 29.3331V3.07672C8.09941e-05 2.76903 8.10076e-05 2.5639 0.307773 2.35877C0.512902 2.15365 0.71803 2.05108 1.02572 2.05108H13.0257C15.2821 2.05108 17.1283 2.35877 18.5642 3.07672C20.0001 3.69211 21.0257 4.61518 21.6411 5.84595C22.3591 6.97416 22.6667 8.41006 22.6667 9.94852C22.6667 10.9742 22.5642 11.7947 22.1539 12.6152C21.5547 13.8988 20.544 14.9457 19.2821 15.5895C20.3078 15.9998 21.3334 16.8203 22.0514 17.9485C22.8719 19.0767 23.2821 20.4101 23.2821 21.9485C23.2821 23.5895 22.8719 25.128 22.2565 26.3588C21.4502 27.7286 20.2288 28.8062 18.7693 29.4357C17.3334 30.0511 15.4873 30.4613 13.436 30.4613H1.02572V30.3588ZM6.46162 25.6408H12.6155C13.9488 25.6408 14.9744 25.3331 15.6924 24.6152C16.3078 23.7947 16.718 22.9742 16.718 21.9485C16.718 20.9229 16.3078 19.8972 15.5898 19.2819C14.8719 18.5639 13.9488 18.2562 12.6155 18.2562H6.46162V25.6408ZM6.46162 13.5383H12.2052C13.5385 13.5383 14.4616 13.2306 15.077 12.5126C15.6924 11.9998 16.1026 11.1793 16.1026 10.1536C16.112 9.70973 16.0252 9.26904 15.8482 8.86184C15.6711 8.45464 15.408 8.09059 15.077 7.79467C14.4616 7.07672 13.5385 6.76903 12.2052 6.76903H6.46162V13.5383ZM28.8206 30.3588C28.5987 30.3588 28.3827 30.2868 28.2052 30.1536C28.0965 30.0481 28.0125 29.9198 27.9593 29.7779C27.9061 29.636 27.885 29.4841 27.8975 29.3331V10.3588C27.8975 10.0511 27.8975 9.84595 28.2052 9.64083C28.3078 9.4357 28.6155 9.33313 28.8206 9.33313H32.9232C33.2309 9.33313 33.436 9.4357 33.6411 9.64083C33.8462 9.84595 33.8462 10.0511 33.8462 10.3588V29.3331C33.8462 29.6408 33.8462 29.9485 33.6411 30.1536C33.4361 30.3098 33.1797 30.383 32.9232 30.3588H28.8206ZM28.718 6.15365C28.4475 6.14979 28.1894 6.0392 28.0001 5.84595C27.8439 5.64091 27.7707 5.38459 27.795 5.12801V1.84595C27.795 1.53826 27.795 1.33313 28.0001 1.128C28.2052 0.922877 28.4103 0.820312 28.718 0.820312H32.9232C33.2309 0.820312 33.5385 0.922877 33.7437 1.128C33.9488 1.33313 34.0514 1.53826 34.0514 1.84595V5.12801C34.0514 5.4357 33.9488 5.64083 33.7437 5.84595C33.6381 5.95466 33.5098 6.03864 33.3679 6.09184C33.2261 6.14504 33.0742 6.16615 32.9232 6.15365H28.718ZM48.8206 39.2819C46.7693 39.2819 45.2309 38.9742 43.8975 38.4613C42.7258 38.0629 41.645 37.4353 40.718 36.6152C40.0287 35.9776 39.4712 35.211 39.077 34.3588C38.7693 33.6408 38.5642 33.128 38.5642 32.7178C38.5642 32.4101 38.5642 32.2049 38.8719 31.9998C39.077 31.7947 39.2821 31.6921 39.5898 31.6921H43.8975C44.1026 31.6921 44.3078 31.6921 44.5129 31.8972C44.718 31.8972 44.8206 32.2049 44.9232 32.5126L45.5385 33.5383L46.5642 34.4613C47.077 34.6665 47.795 34.769 48.6155 34.769C49.6411 34.769 50.3591 34.6665 50.9744 34.3588C51.5898 34.1536 52.0001 33.6408 52.3078 33.0254C52.718 32.4101 52.8206 31.487 52.8206 30.3588V27.6921C52.2052 28.4101 51.3847 28.9229 50.3591 29.4357C48.0189 30.356 45.4171 30.356 43.077 29.4357C42.0589 29.0318 41.1468 28.4003 40.4103 27.5895C39.6663 26.6818 39.1086 25.6362 38.7693 24.5126C38.3858 23.248 38.1787 21.9365 38.1539 20.6152V18.5639C38.1539 17.128 38.4616 15.7947 38.7693 14.6665C39.1796 13.5383 39.795 12.5126 40.4103 11.5895C41.1283 10.769 42.0514 10.1536 43.077 9.64083C44.1026 9.23057 45.3334 8.92288 46.7693 8.92288C47.9954 8.9069 49.2083 9.17663 50.312 9.71069C51.4157 10.2448 52.38 11.0285 53.1283 11.9998V10.2562C53.1283 10.0511 53.2309 9.74339 53.436 9.53826C53.6411 9.33313 53.8462 9.23057 54.1539 9.23057H58.0514C58.3591 9.23057 58.5642 9.33313 58.7693 9.53826C58.9744 9.74339 59.077 10.0511 59.077 10.2562V29.7434C59.077 31.7947 58.7693 33.4357 58.0514 34.8716C57.2298 36.2915 55.9704 37.4071 54.4616 38.0511C53.0257 38.769 51.077 39.1793 48.8206 39.1793V39.2819ZM48.6155 25.3331C49.6411 25.3331 50.3591 25.128 50.9744 24.7178C51.5898 24.3075 52.0001 23.6921 52.3078 23.0767C52.6199 22.3638 52.7939 21.5981 52.8206 20.8203C52.8949 19.9672 52.8949 19.1093 52.8206 18.2562C52.8206 17.5383 52.6155 16.8203 52.3078 16.2049C52.1026 15.487 51.5898 14.8716 50.9744 14.4613C50.3591 14.0511 49.6411 13.846 48.6155 13.846C47.5898 13.846 46.7693 14.0511 46.2565 14.4613C45.6411 14.9742 45.2309 15.487 44.9232 16.2049C44.6155 16.9229 44.5129 17.7434 44.4103 18.6665V20.5126C44.4103 21.4357 44.6155 22.2562 44.9232 22.9742C45.2309 23.6921 45.6411 24.3075 46.2565 24.7178C46.9623 25.1572 47.785 25.3718 48.6155 25.3331ZM65.2309 30.3588C64.9743 30.383 64.7179 30.3098 64.5129 30.1536C64.4042 30.0481 64.3202 29.9198 64.267 29.7779C64.2138 29.636 64.1927 29.4841 64.2052 29.3331V10.3588C64.2052 10.0511 64.3078 9.84595 64.5129 9.64083C64.718 9.4357 64.9232 9.33313 65.2309 9.33313H69.3334C69.5385 9.33313 69.8462 9.4357 69.9488 9.64083C70.1539 9.84595 70.2565 10.0511 70.2565 10.3588V29.3331C70.2565 29.6408 70.2565 29.9485 69.9488 30.1536C69.7438 30.3098 69.4874 30.383 69.2309 30.3588H65.1283H65.2309ZM65.1283 6.15365C64.8578 6.14979 64.5997 6.0392 64.4103 5.84595C64.2171 5.65659 64.1065 5.39854 64.1026 5.12801V1.84595C64.1026 1.53826 64.2052 1.33313 64.4103 1.128C64.6155 0.922877 64.8206 0.820312 65.1283 0.820312H69.3334C69.6411 0.820312 69.8462 0.922877 70.0514 1.128C70.2565 1.33313 70.3591 1.53826 70.3591 1.84595V5.12801C70.3591 5.4357 70.3591 5.64083 70.0514 5.84595C69.862 6.0392 69.604 6.14979 69.3334 6.15365H65.1283ZM76.8206 30.3588C76.564 30.383 76.3077 30.3098 76.1026 30.1536C75.9939 30.0481 75.91 29.9198 75.8568 29.7779C75.8036 29.636 75.7825 29.4841 75.795 29.3331V3.07672C75.795 2.76903 75.795 2.5639 76.1026 2.35877C76.3078 2.15365 76.5129 2.05108 76.8206 2.05108H88.8206C91.077 2.05108 92.9232 2.35877 94.2565 3.07672C95.6924 3.69211 96.8206 4.61518 97.436 5.84595C98.1539 6.97416 98.4616 8.41006 98.4616 9.94852C98.4616 10.9742 98.3591 11.7947 97.9488 12.6152C97.3496 13.8988 96.3389 14.9457 95.077 15.5895C96.1026 15.9998 97.1283 16.8203 97.8462 17.9485C98.6668 19.0767 99.077 20.4101 99.077 21.9485C99.077 23.5895 98.6668 25.128 97.9488 26.3588C97.1692 27.7124 95.9857 28.7882 94.5642 29.4357C93.1283 30.0511 91.2821 30.4613 89.1283 30.4613H76.9232L76.8206 30.3588ZM82.2565 25.6408H88.4103C89.7437 25.6408 90.7693 25.3331 91.4873 24.6152C92.1026 23.7947 92.4103 22.9742 92.4103 21.9485C92.4103 20.9229 92.1026 19.8972 91.3847 19.2819C90.6667 18.5639 89.7437 18.2562 88.3078 18.2562H82.1539V25.6408H82.2565ZM82.2565 13.5383H88.0001C89.3334 13.5383 90.2565 13.2306 90.8719 12.5126C91.4873 11.9998 91.8975 11.1793 91.8975 10.1536C91.9069 9.70973 91.8201 9.26904 91.643 8.86184C91.466 8.45464 91.2029 8.09059 90.8719 7.79467C90.2565 7.07672 89.3334 6.76903 88.0001 6.76903H82.2565V13.5383ZM104.41 30.3588C104.154 30.383 103.897 30.3098 103.692 30.1536C103.602 30.0393 103.537 29.907 103.501 29.7655C103.466 29.624 103.461 29.4766 103.487 29.3331V10.3588C103.487 10.1536 103.487 9.84595 103.692 9.64083C103.898 9.4357 104.205 9.33313 104.41 9.33313H108.41C108.615 9.33313 108.923 9.4357 109.128 9.64083C109.333 9.84595 109.436 10.1536 109.436 10.3588V11.9998C110.051 11.1793 110.872 10.4613 111.898 10.0511C112.923 9.64083 113.949 9.33313 115.282 9.33313H117.026C117.333 9.33313 117.539 9.4357 117.744 9.64083C117.949 9.84595 118.051 10.0511 118.051 10.3588V13.846C118.051 14.1536 117.949 14.3588 117.744 14.5639C117.554 14.7571 117.296 14.8677 117.026 14.8716H113.539C112.308 14.8716 111.385 15.1793 110.667 15.8972C110.051 16.5126 109.641 17.4357 109.641 18.6665V29.3331C109.641 29.6408 109.641 29.9485 109.436 30.1536C109.231 30.3098 108.975 30.383 108.718 30.3588H104.41ZM126.872 30.769C125.436 30.769 124.205 30.5639 122.974 29.9485C121.913 29.4274 120.997 28.6523 120.308 27.6921C119.59 26.769 119.282 25.6408 119.282 24.6152C119.282 22.5639 120.103 21.128 121.641 19.9998C123.18 18.9742 125.231 18.1536 127.795 17.7434L133.026 17.0254V16.3075C133.026 15.2819 132.821 14.4613 132.308 13.846C131.795 13.3331 130.974 13.0254 129.744 13.0254C128.923 13.0254 128.205 13.2306 127.692 13.5383C127.077 13.846 126.667 14.3588 126.359 14.8716C126.266 15.0327 126.131 15.1656 125.969 15.2559C125.806 15.3463 125.622 15.3907 125.436 15.3844H121.641C121.333 15.3844 121.128 15.3844 120.923 15.1793C120.849 15.096 120.792 14.9985 120.757 14.8927C120.722 14.7869 120.709 14.675 120.718 14.5639C120.718 14.0511 120.923 13.5383 121.231 12.9229C121.641 12.3075 122.154 11.6921 122.872 11.0767C123.59 10.4613 124.513 10.0511 125.641 9.53826C126.769 9.12801 128.205 8.92288 129.744 8.92288C131.487 8.92288 132.923 9.12801 134.154 9.53826C135.182 9.83904 136.125 10.3759 136.909 11.106C137.692 11.8361 138.294 12.7393 138.667 13.7434C139.077 14.769 139.282 15.7947 139.282 16.8203V29.3331C139.282 29.6408 139.18 29.9485 138.974 30.1536C138.769 30.3098 138.513 30.383 138.257 30.3588H134.257C134 30.383 133.744 30.3098 133.539 30.1536C133.448 30.0393 133.383 29.907 133.347 29.7655C133.312 29.624 133.307 29.4766 133.333 29.3331V27.8972C132.452 29.1021 131.185 29.9704 129.744 30.3588C128.923 30.6665 128 30.769 126.872 30.769ZM128.513 26.6665C129.333 26.6665 130.154 26.3588 130.872 26.0511C131.59 25.6408 132.103 25.0254 132.513 24.3075C132.923 23.487 133.128 22.5639 133.128 21.3331V20.6152L129.333 21.2306C127.898 21.5383 126.872 21.846 126.256 22.2562C125.539 22.8716 125.231 23.3844 125.231 24.1024C125.231 24.6152 125.231 25.128 125.641 25.4357C125.949 25.846 126.359 26.1536 126.872 26.3588L128.513 26.5639V26.6665ZM145.128 30.3588C144.872 30.383 144.615 30.3098 144.41 30.1536C144.302 30.0481 144.218 29.9198 144.164 29.7779C144.111 29.636 144.09 29.4841 144.103 29.3331V10.3588C144.103 10.0511 144.205 9.84595 144.41 9.64083C144.615 9.4357 144.821 9.33313 145.128 9.33313H149.026C149.333 9.33313 149.641 9.4357 149.846 9.64083L150.051 10.3588V11.9998C150.863 10.9963 151.898 10.1958 153.073 9.66173C154.248 9.12764 155.531 8.87466 156.821 8.92288C158.462 8.92288 159.898 9.33313 160.923 10.0511C162.166 10.7668 163.167 11.8385 163.795 13.128C164.513 14.5639 164.821 16.2049 164.821 18.0511V29.3331C164.821 29.6408 164.821 29.9485 164.513 30.1536C164.335 30.2868 164.119 30.3588 163.898 30.3588H159.59C159.333 30.383 159.077 30.3098 158.872 30.1536C158.763 30.0481 158.679 29.9198 158.626 29.7779C158.573 29.636 158.552 29.4841 158.564 29.3331V18.4613C158.564 17.0254 158.257 15.8972 157.539 15.1793C156.821 14.3588 155.898 13.9485 154.462 13.9485C153.231 13.9485 152.205 14.3588 151.487 15.1793C150.769 15.8972 150.359 17.0254 150.359 18.4613V29.4357C150.359 29.7434 150.359 30.0511 150.051 30.2562C149.874 30.3894 149.658 30.4613 149.436 30.4613H145.128V30.3588ZM177.436 30.769C176.205 30.769 174.974 30.5639 173.949 30.1536C172.923 29.7434 171.898 29.128 171.282 28.2049C170.538 27.2972 169.98 26.2516 169.641 25.128C169.112 23.4366 168.869 21.6687 168.923 19.8972V18.4613C168.923 17.128 169.231 15.7947 169.539 14.6665C169.949 13.5383 170.564 12.5126 171.18 11.5895C171.905 10.7416 172.818 10.0743 173.846 9.64083C174.872 9.23057 176.205 8.92288 177.539 8.92288C178.774 8.8888 180.001 9.13422 181.128 9.64083C182.073 10.0711 182.912 10.7009 183.59 11.487V2.66647C183.59 2.35877 183.692 2.15365 183.898 1.94852C184.103 1.74339 184.308 1.64083 184.615 1.64083H188.718C189.026 1.64083 189.231 1.74339 189.436 1.94852C189.641 2.15365 189.744 2.35877 189.744 2.66647V29.3331C189.744 29.6408 189.744 29.9485 189.436 30.1536C189.258 30.2868 189.043 30.3588 188.821 30.3588H184.923C184.667 30.383 184.41 30.3098 184.205 30.1536C184.097 30.0481 184.013 29.9198 183.959 29.7779C183.906 29.636 183.885 29.4841 183.898 29.3331V27.9998C183.19 28.8493 182.318 29.5471 181.333 30.0511C180.308 30.5639 179.077 30.769 177.539 30.769H177.436ZM179.487 25.9485C180.41 25.9485 181.231 25.7434 181.744 25.2306C182.359 24.8203 182.769 24.2049 183.077 23.487C183.385 22.769 183.59 22.0511 183.59 21.2306C183.696 20.2077 183.696 19.1765 183.59 18.1536C183.59 17.4357 183.385 16.7177 183.077 16.1024C182.769 15.487 182.359 14.8716 181.744 14.4613C181.128 14.0511 180.41 13.846 179.385 13.846C178.359 13.846 177.539 14.0511 176.923 14.4613C176.41 14.9742 175.898 15.487 175.692 16.2049C174.994 18.5821 174.994 21.1098 175.692 23.487C175.898 24.2049 176.41 24.8203 176.923 25.3331C177.658 25.7932 178.52 26.0086 179.385 25.9485H179.487Z" fill="black"/>
</g>
<defs>
<clipPath id="clip0_291_3607">
<rect width="189.744" height="40" fill="white"/>
</clipPath>
</defs>
</svg>
