<svg width="149" height="40" viewBox="0 0 149 40" fill="none" xmlns="http://www.w3.org/2000/svg">
<g clip-path="url(#clip0_298_12102)">
<path d="M59.467 15.8278H61.3965V12.575H67.2209V15.8056H80.7274V12.5723H86.5461V15.8222H88.4756V21.1779H86.5709V24.0944H88.4701V29.4612C87.748 29.4612 87.0451 29.4612 86.345 29.4612C86.1162 29.4612 86.0307 29.5334 85.9508 29.7389C84.2115 34.3222 80.9672 37.1639 76.1848 38.0973C70.184 39.2667 64.1226 35.6973 62.0443 29.8472C62.022 29.722 61.9517 29.6106 61.8485 29.5373C61.7453 29.4639 61.6176 29.4346 61.493 29.4556C60.8342 29.4806 60.1726 29.4556 59.4864 29.4556V24.1111H61.3883V21.1944H59.4753L59.467 15.8278ZM80.7081 21.2111H67.2512V24.0723H80.7081V21.2111ZM68.1498 29.4723C69.8368 31.7362 72.0088 32.789 74.7184 32.5278C76.8408 32.3251 78.5029 31.2639 79.7846 29.4723H68.1498Z" fill="#1560BD"/>
<path d="M50.3876 14.8589V4.98658L56.6971 3.91992V37.9477H50.4702V35.6393C50.3995 35.6747 50.3304 35.7136 50.2635 35.756C47.9619 37.4754 45.3736 38.0894 42.5455 37.8838C37.1208 37.4894 32.6857 33.2171 31.6576 28.2449C30.2022 21.2115 34.2211 15.2866 40.0427 13.5533C43.5488 12.5088 46.9476 12.8589 50.134 14.7589L50.2773 14.8393C50.3131 14.8505 50.3501 14.857 50.3876 14.8589ZM50.3876 25.4422C50.3876 23.9643 50.3876 22.4894 50.3876 21.0144C50.3969 20.9095 50.3805 20.8039 50.3396 20.707C50.2988 20.6101 50.2348 20.5248 50.1533 20.4589C49.2396 19.6222 48.1454 19.0111 46.9571 18.6736C45.7688 18.3361 44.519 18.2816 43.3063 18.5144C40.1805 19.0422 38.1104 21.2921 37.6584 24.4894C37.4511 25.8992 37.6793 27.3391 38.3119 28.6137C38.9446 29.8883 39.9511 30.936 41.1949 31.6144C42.7081 32.4477 44.3262 32.6088 46.0021 32.3727C47.5677 32.1838 49.0277 31.4798 50.156 30.3699C50.2334 30.3007 50.2943 30.2147 50.3344 30.1186C50.3744 30.0225 50.3926 29.9185 50.3876 29.8144C50.3821 28.3699 50.3848 26.9061 50.3848 25.4422H50.3876Z" fill="#1560BD"/>
<path d="M142.193 38.2115V36.0727C142.142 36.0853 142.093 36.1049 142.047 36.1309C139.841 37.7338 137.361 38.2393 134.701 38.1449C132.817 38.122 130.982 37.5426 129.423 36.4781C126.299 34.2921 125.88 30.5171 127.032 27.8088C127.801 26.0059 129.257 24.9338 131.013 24.2255C132.522 23.6578 134.12 23.3652 135.731 23.3616C137.861 23.2882 139.986 23.5957 142.008 24.2699C142.069 24.2847 142.129 24.2959 142.19 24.3032C142.19 24.1226 142.19 23.9643 142.19 23.8032C142.207 23.0172 142.169 22.2311 142.077 21.4504C141.758 19.7004 140.547 18.8282 138.904 18.4921C136.961 18.0921 135.065 18.3837 133.213 18.9948C132.051 19.3781 130.919 19.8282 129.728 20.2727L127.443 15.5977C128.152 15.3199 128.822 15.0199 129.513 14.7643C132.658 13.5309 135.899 12.8532 139.293 13.0532C141.286 13.1671 143.193 13.6088 144.891 14.7199C146.893 16.042 148.003 17.9365 148.323 20.3032C148.413 20.9957 148.455 21.6937 148.45 22.3921C148.461 27.5199 148.461 32.6467 148.45 37.7727V38.2199L142.193 38.2115ZM142.193 30.2587C142.193 29.7727 142.176 29.2837 142.193 28.7948C142.209 28.6935 142.186 28.5897 142.128 28.5052C142.07 28.4208 141.982 28.3623 141.881 28.342C140.146 27.7151 138.303 27.4477 136.462 27.556C135.407 27.6115 134.384 27.8338 133.513 28.4865C133.184 28.7239 132.917 29.0367 132.733 29.3989C132.547 29.7612 132.451 30.1626 132.451 30.5698C132.451 30.9771 132.547 31.3785 132.733 31.7408C132.917 32.1031 133.184 32.4159 133.513 32.6532C133.878 32.9185 134.279 33.1282 134.704 33.2754C135.774 33.6616 136.887 33.6587 138.011 33.5532C139.4 33.4426 140.739 32.9884 141.912 32.2309C142.008 32.1825 142.088 32.1055 142.141 32.0101C142.192 31.9149 142.215 31.8059 142.203 31.6977C142.17 31.2143 142.19 30.7365 142.19 30.2587H142.193Z" fill="#1560BD"/>
<path d="M11.6955 38.2H5.35574V18.025H0V12.7223H5.35023C5.35023 12.5639 5.35023 12.4444 5.35023 12.3083C5.37227 11.2194 5.33093 10.1278 5.42741 9.04999C5.74991 5.43888 7.9082 3.01943 11.4392 2.26665C13.5411 1.84354 15.7048 1.83694 17.8093 2.24722C18.1538 2.31111 18.2614 2.44721 18.2558 2.80276C18.231 4.36666 18.2558 5.93332 18.2558 7.49721C18.2558 7.55276 18.2558 7.60554 18.2558 7.70276L17.2856 7.52777C16.1819 7.2978 15.0447 7.28553 13.9365 7.49165C12.5583 7.79165 11.7617 8.72777 11.7313 10.1583C11.7065 10.9917 11.7313 11.825 11.7313 12.7056H18.2586V18H11.6955V38.2Z" fill="#1560BD"/>
<path d="M113.719 17.3421L109.802 21.5281C109.705 21.4087 109.626 21.2921 109.526 21.1921C108.369 19.9893 107.046 19.0754 105.392 18.7254C101.072 17.8199 98.1589 20.7893 97.5414 23.9671C97.199 25.5632 97.358 27.2272 97.9962 28.7281C98.5182 29.9438 99.3959 30.9698 100.512 31.6693C101.628 32.3686 102.93 32.708 104.242 32.6421C106.31 32.5671 107.977 31.6531 109.43 30.2504C109.53 30.1437 109.622 30.0294 109.705 29.9087L113.551 33.9726C113.077 34.4003 112.638 34.8337 112.173 35.2226C107.762 38.8337 101.373 39.2642 96.7062 36.2003C95.1755 35.2387 93.8841 33.9361 92.9313 32.3928C91.9784 30.8494 91.3896 29.1063 91.2099 27.2976C90.7854 23.7087 91.5765 20.4281 93.8946 17.617C94.9438 16.3007 96.253 15.2185 97.7392 14.4391C99.2254 13.6597 100.856 13.2 102.528 13.0893C106.288 12.7865 109.656 13.7976 112.569 16.2393C112.947 16.5698 113.305 16.9504 113.719 17.3421Z" fill="#1560BD"/>
<path d="M122.854 38.2218C122.738 38.2218 122.633 38.2218 122.526 38.2218C120.651 38.2218 118.779 38.2218 116.905 38.2218C116.63 38.2218 116.534 38.1525 116.534 37.8525C116.534 29.5895 116.534 21.3247 116.534 13.058C116.534 12.9469 116.534 12.8385 116.55 12.708H122.846L122.854 38.2218Z" fill="#1560BD"/>
<path d="M28.2122 38.1198H21.9248V12.7227H28.2122V38.1198Z" fill="#1560BD"/>
<path d="M25.0915 2.56409C25.5663 2.55791 26.0374 2.64853 26.4766 2.83047C26.9156 3.01242 27.3138 3.28196 27.647 3.62289C27.9801 3.96382 28.2415 4.36911 28.4153 4.8144C28.589 5.25969 28.6718 5.7358 28.6583 6.21409C28.6584 6.69517 28.5632 7.17142 28.3782 7.61487C28.193 8.05832 27.9219 8.46005 27.5807 8.79645C27.2394 9.13285 26.8348 9.39713 26.3908 9.5738C25.9468 9.75046 25.4723 9.83594 24.9951 9.82521C24.0433 9.80482 23.1376 9.4085 22.473 8.72164C21.8084 8.03477 21.4382 7.11231 21.4419 6.15298C21.4448 5.67498 21.5418 5.2023 21.7273 4.76236C21.9128 4.3224 22.1832 3.92396 22.5226 3.5901C22.8622 3.25626 23.264 2.99366 23.705 2.81753C24.1459 2.64141 24.6172 2.55526 25.0915 2.56409Z" fill="#1560BD"/>
<path d="M119.689 9.82224C118.731 9.81783 117.815 9.43143 117.138 8.74747C116.462 8.06352 116.082 7.13766 116.081 6.17224C116.079 5.69386 116.171 5.21984 116.353 4.77795C116.536 4.33608 116.803 3.93522 117.141 3.5989C117.478 3.26258 117.879 2.99755 118.32 2.81935C118.76 2.64114 119.232 2.55336 119.706 2.56113C120.182 2.55247 120.654 2.64046 121.095 2.81984C121.536 2.99922 121.936 3.26633 122.273 3.6052C122.609 3.94407 122.874 4.34775 123.053 4.79215C123.23 5.23654 123.318 5.71252 123.309 6.19168C123.312 6.67059 123.219 7.14523 123.039 7.58798C122.857 8.03072 122.591 8.43272 122.254 8.77059C121.917 9.10846 121.517 9.37544 121.077 9.55598C120.637 9.73652 120.165 9.82703 119.689 9.82224Z" fill="#1560BD"/>
</g>
<defs>
<clipPath id="clip0_298_12102">
<rect width="148.571" height="40" fill="white"/>
</clipPath>
</defs>
</svg>
