<svg width="83" height="40" viewBox="0 0 83 40" fill="none" xmlns="http://www.w3.org/2000/svg">
<g clip-path="url(#clip0_291_329)">
<path d="M37.2364 0L0 14.0364L37.2364 7.27273V0Z" fill="#FFE600"/>
<path d="M24.9455 19.6367L21.8182 25.8185L18.6182 19.6367H12.3636L18.9818 31.0549V38.4731H24.5818V31.0549L31.1273 19.6367H24.9455Z" fill="#444445"/>
<path d="M5.6 31.0549H12.3636V27.1276H5.6V24.0004H13.0909L10.6182 19.6367H0V38.4731H14.9818V34.1822H5.6V31.0549Z" fill="#444445"/>
<mask id="mask0_291_329" style="mask-type:luminance" maskUnits="userSpaceOnUse" x="30" y="33" width="53" height="8">
<path d="M82.1818 33.4541H30.5454V40.7268H82.1818V33.4541Z" fill="white"/>
</mask>
<g mask="url(#mask0_291_329)">
<path d="M72.5818 37.7445C72.2909 37.7445 71.9273 37.5263 71.9273 36.5809C71.9273 35.7081 72.2909 35.5627 72.5818 35.5627C72.9455 35.5627 73.0909 35.7809 73.2364 35.9263V37.3809C73.0909 37.599 72.8727 37.7445 72.5818 37.7445ZM73.2364 35.1263C73.0182 34.9081 72.7273 34.7627 72.4364 34.7627C71.5636 34.7627 70.9818 35.49 70.9818 36.6536C70.9818 37.89 71.4909 38.6172 72.3636 38.6172C72.6545 38.6172 72.9454 38.4718 73.1636 38.2536V38.5445H74.0364V33.3809L73.1636 33.8172L73.2364 35.1263Z" fill="#444445"/>
<path d="M69.4545 33.745L70.3272 33.3086V35.1995V38.545H69.4545V33.745Z" fill="#444445"/>
<path d="M68.7999 35.8541C68.5817 35.7814 68.3635 35.6359 68.1453 35.6359C67.7089 35.6359 67.4908 35.9268 67.4908 36.5087V38.545H66.618V34.9087H67.4908V35.1996C67.709 34.9087 67.9999 34.8359 68.2908 34.8359C68.509 34.8359 68.7999 34.9087 68.9453 35.0541L68.7999 35.8541Z" fill="#444445"/>
<path d="M64.4363 37.7445C63.9999 37.7445 63.709 37.3082 63.709 36.6536C63.709 35.9991 63.9999 35.5627 64.4363 35.5627C64.8726 35.5627 65.1635 35.9991 65.1635 36.6536C65.1635 37.3082 64.8726 37.7445 64.4363 37.7445ZM64.4363 34.7627C63.4908 34.7627 62.7635 35.5627 62.7635 36.6536C62.7635 37.7445 63.4908 38.5445 64.4363 38.5445C65.3817 38.5445 66.109 37.7445 66.109 36.6536C66.0363 35.5627 65.3817 34.7627 64.4363 34.7627Z" fill="#444445"/>
<path d="M61.6725 34.8359H62.5452L61.5271 38.4723H60.7271L60.3634 37.0178C60.2907 36.7268 60.218 36.4359 60.1452 36.2178C60.1452 36.3632 59.9998 36.7996 59.9271 37.0178L59.5634 38.545H58.7634L57.7452 34.9087H58.6907L59.0543 36.2905C59.1271 36.5087 59.1998 36.945 59.2725 37.1632C59.3452 36.8723 59.418 36.5087 59.4907 36.2178L59.8543 34.8359H60.6543L61.018 36.2178C61.0907 36.4359 61.1634 36.8723 61.2361 37.1632C61.3089 36.945 61.3816 36.5814 61.4543 36.2178L61.6725 34.8359Z" fill="#444445"/>
<path d="M54.6907 35.9263V37.3809C54.5452 37.5991 54.3998 37.7445 54.0362 37.7445C53.7453 37.7445 53.3816 37.5263 53.3816 36.5809C53.3816 35.7081 53.7453 35.5627 54.0362 35.5627C54.3998 35.5627 54.618 35.7809 54.6907 35.9263ZM54.6907 35.1263C54.4725 34.9081 54.1816 34.7627 53.8907 34.7627C53.018 34.7627 52.4362 35.49 52.4362 36.6536C52.4362 37.89 52.9452 38.6172 53.818 38.6172C54.1089 38.6172 54.3998 38.4718 54.618 38.2536V38.3263C54.618 38.7627 54.618 39.2718 53.4543 39.2718H53.3816L53.6725 39.9991C54.8362 39.9991 55.418 39.4172 55.418 38.1809V34.8354H54.5452V35.1263H54.6907Z" fill="#444445"/>
<path d="M49.5999 38.545H48.7272V34.9087H49.5999V35.1996C49.8181 34.9814 50.109 34.8359 50.5454 34.8359C51.4181 34.8359 51.8544 35.4178 51.8544 36.5087V38.545H50.9817V36.5087C50.9817 35.9268 50.7635 35.6359 50.3272 35.6359C49.8908 35.6359 49.6726 35.9268 49.6726 36.5087V38.545H49.5999Z" fill="#444445"/>
<path d="M47.9272 33.8905V34.3268H47.0544V33.4541H47.9272V33.8905Z" fill="#444445"/>
<path d="M46.9817 34.8359H47.8544V36.4359V38.545H46.9817V34.8359Z" fill="#444445"/>
<path d="M45.309 36.0718L46.3999 38.5445H45.3818L44.5818 36.8718L44.0727 37.4536V38.5445H43.2V33.8172L44.0727 33.3809V36.29C44.2181 36.1445 44.2909 35.9263 44.4363 35.8536L45.1636 34.9081H46.1818L45.309 36.0718Z" fill="#444445"/>
<path d="M42.6908 35.8541C42.5453 35.7087 42.3271 35.6359 42.1089 35.6359C41.6726 35.6359 41.4544 35.9268 41.4544 36.5087V38.545H40.5817V34.9087H41.4544V35.1996C41.6726 34.9087 41.9635 34.8359 42.2544 34.8359C42.4726 34.8359 42.7635 34.9087 42.9089 35.0541L42.6908 35.8541Z" fill="#444445"/>
<path d="M38.3271 37.7445C37.8908 37.7445 37.5999 37.3082 37.5999 36.6536C37.5999 35.9991 37.8908 35.5627 38.3271 35.5627C38.7635 35.5627 39.0544 35.9991 39.0544 36.6536C39.0544 37.3082 38.7635 37.7445 38.3271 37.7445ZM38.3271 34.7627C37.3817 34.7627 36.6544 35.5627 36.6544 36.6536C36.6544 37.7445 37.3817 38.5445 38.3271 38.5445C39.2726 38.5445 39.9999 37.7445 39.9999 36.6536C39.9999 35.5627 39.2726 34.7627 38.3271 34.7627Z" fill="#444445"/>
<path d="M35.5635 34.8354H36.4363L35.4181 38.4718H34.6181L34.1817 36.9445C34.109 36.6536 34.0363 36.3627 33.9635 36.1445C33.9635 36.29 33.8181 36.7263 33.7454 36.9445L33.4544 38.4718H32.7272L31.709 34.8354H32.6544L33.0181 36.2172C33.0908 36.4354 33.1635 36.8718 33.2363 37.09C33.309 36.7991 33.3817 36.4354 33.4544 36.1445L33.8181 34.7627H34.6181L34.9817 36.1445C35.0544 36.3627 35.1272 36.7991 35.1999 37.09C35.2726 36.8718 35.3453 36.5082 35.4181 36.1445L35.5635 34.8354Z" fill="#444445"/>
</g>
<mask id="mask1_291_329" style="mask-type:luminance" maskUnits="userSpaceOnUse" x="30" y="26" width="53" height="8">
<path d="M82.1818 26.1816H30.5454V33.4544H82.1818V26.1816Z" fill="white"/>
</mask>
<g mask="url(#mask1_291_329)">
<path d="M81.9637 29.4542C81.8182 29.3087 81.6001 29.236 81.3819 29.236C80.9455 29.236 80.7273 29.5269 80.7273 30.1087V32.0724H79.8546V28.436H80.7273V28.7269C80.9455 28.436 81.2364 28.3633 81.5273 28.3633C81.7455 28.3633 82.0364 28.436 82.1819 28.5815L81.9637 29.4542Z" fill="#444445"/>
<path d="M77.0181 29.8906C77.0181 29.4542 77.309 29.1633 77.6726 29.1633C78.1817 29.1633 78.3272 29.5269 78.3272 29.8906H77.0181ZM78.4726 31.0542C78.3272 31.1996 78.109 31.3451 77.7454 31.3451C77.5999 31.3451 77.0181 31.2724 76.9454 30.5451H79.1999C79.1999 30.4724 79.1999 30.3269 79.1999 30.2542C79.1999 29.0906 78.6181 28.3633 77.6726 28.3633C76.7272 28.3633 76.0726 29.1633 76.0726 30.2542C76.0726 31.4178 76.7272 32.1451 77.8181 32.1451C78.3272 32.1451 78.7635 31.9269 79.1272 31.5633L78.4726 31.0542Z" fill="#444445"/>
<path d="M74.8363 30.8365C74.8363 31.1274 74.9817 31.3456 75.1999 31.3456C75.4181 31.3456 75.5635 31.2729 75.709 31.2001L75.6363 32.0001C75.4181 32.1456 75.1999 32.1456 74.909 32.1456C74.1817 32.1456 73.9635 31.5638 73.9635 31.0547V29.3092H73.3817V28.4365H73.9635V27.4911L74.8363 27.0547V28.4365H75.6363V29.3092H74.8363V30.8365Z" fill="#444445"/>
<path d="M73.0908 32.0001C72.8727 32.1456 72.6545 32.1456 72.3636 32.1456C71.6363 32.1456 71.4181 31.5638 71.4181 31.0547V29.3092H70.8363V28.4365H71.4181V27.4911L72.2908 27.0547V28.4365H73.0908V29.3092H72.2908V30.8365C72.2908 31.1274 72.4363 31.3456 72.6545 31.3456C72.8727 31.3456 73.0181 31.2729 73.1636 31.2001L73.0908 32.0001Z" fill="#444445"/>
<path d="M68.2908 29.8906C68.2908 29.4542 68.5817 29.1633 68.9454 29.1633C69.4545 29.1633 69.5999 29.5269 69.5999 29.8906H68.2908ZM69.8181 31.0542C69.6726 31.1996 69.4545 31.3451 69.0908 31.3451C68.9454 31.3451 68.2908 31.2724 68.2908 30.5451H70.5454C70.5454 30.4724 70.5454 30.3269 70.5454 30.2542C70.5454 29.0906 69.9635 28.3633 69.0181 28.3633C68.0726 28.3633 67.4181 29.1633 67.4181 30.2542C67.4181 31.4178 68.0726 32.1451 69.1635 32.1451C69.6726 32.1451 70.109 31.9269 70.4726 31.5633L69.8181 31.0542Z" fill="#444445"/>
<path d="M65.3819 29.1638C65.7455 29.1638 66.0364 29.4547 66.0364 30.182C66.0364 30.9092 65.8182 31.3456 65.3819 31.3456C65.0182 31.3456 64.8001 31.1274 64.7273 30.982V29.5274C64.8728 29.3092 65.091 29.1638 65.3819 29.1638ZM65.5273 28.3638C65.2364 28.3638 64.9455 28.5092 64.7273 28.7274V27.0547L63.8546 27.4911V32.1456H64.7273V31.8547C64.9455 32.0729 65.2364 32.2183 65.5273 32.2183C66.4001 32.2183 66.9092 31.491 66.9092 30.2547C66.9819 29.091 66.4001 28.3638 65.5273 28.3638Z" fill="#444445"/>
<path d="M59.2727 30.9093C59.2727 30.6183 59.4909 30.4002 59.9273 30.4002C60.2182 30.4002 60.4364 30.4729 60.6545 30.5456V31.0547C60.5091 31.2729 60.2909 31.4183 59.9273 31.4183C59.4909 31.4183 59.2727 31.2002 59.2727 30.9093ZM58.9818 29.3093C59.2727 29.1638 59.5636 29.0911 59.9273 29.0911C60.3636 29.0911 60.5818 29.2365 60.5818 29.6002V29.8183C60.3636 29.7456 60.0727 29.6729 59.7818 29.6729C59.1273 29.6729 58.3273 29.9638 58.3273 30.9093C58.3273 31.8547 59.0545 32.2183 59.7091 32.2183C60 32.2183 60.3636 32.1456 60.5818 31.8547V32.1456H61.4545V29.6729C61.4545 28.8729 60.8727 28.4365 60 28.4365C59.4909 28.4365 59.0545 28.582 58.6182 28.8002L58.9818 29.3093Z" fill="#444445"/>
<path d="M55.2727 29.5269V30.9815C55.1273 31.1996 54.9818 31.3451 54.6182 31.3451C54.3273 31.3451 53.9636 31.1269 53.9636 30.1815C53.9636 29.3087 54.3273 29.1633 54.6182 29.1633C54.9818 29.1633 55.2 29.3815 55.2727 29.5269ZM55.2727 28.7269C55.0546 28.5087 54.7636 28.3633 54.4727 28.3633C53.6 28.3633 53.0182 29.0906 53.0182 30.2542C53.0182 31.4906 53.5273 32.2178 54.4 32.2178C54.6909 32.2178 54.9818 32.0724 55.2 31.8542V31.9269C55.2 32.3633 55.2 32.8724 54.0364 32.8724H53.9636L54.2545 33.5996C55.4182 33.5996 56 32.9451 56 31.7815V28.436H55.2727V28.7269Z" fill="#444445"/>
<path d="M50.2544 32.0724H49.3817V28.436H50.2544V28.7269C50.4726 28.5087 50.7635 28.3633 51.1999 28.3633C52.0726 28.3633 52.509 28.9451 52.509 30.036V32.0724H51.6363V30.036C51.6363 29.4542 51.4181 29.1633 50.9817 29.1633C50.5453 29.1633 50.3272 29.4542 50.3272 30.036L50.2544 32.0724Z" fill="#444445"/>
<path d="M48.5091 27.4911V27.9274H47.6364V27.0547H48.5091V27.4911Z" fill="#444445"/>
<path d="M47.6364 28.4365H48.5091V29.6002V32.0729H47.6364V28.4365Z" fill="#444445"/>
<path d="M45.3091 31.3455C45.0182 31.3455 44.6545 31.1274 44.6545 30.1819C44.6545 29.3092 45.0182 29.1637 45.3091 29.1637C45.6727 29.1637 45.8182 29.3819 45.9636 29.5274V30.9819C45.7454 31.2001 45.6 31.3455 45.3091 31.3455ZM45.8909 28.7274C45.6727 28.5092 45.3818 28.3637 45.0909 28.3637C44.2182 28.3637 43.6364 29.091 43.6364 30.2546C43.6364 31.491 44.1454 32.2183 45.0182 32.2183C45.3091 32.2183 45.6 32.0728 45.8182 31.8546V32.1455H46.6909V26.9092L45.8182 27.3455L45.8909 28.7274Z" fill="#444445"/>
<path d="M42.1818 27.3455L43.0545 26.9092V29.6728V32.1455H42.1818V27.3455Z" fill="#444445"/>
<path d="M41.3818 27.4911V27.9274H40.509V27.0547H41.3818V27.4911Z" fill="#444445"/>
<path d="M41.3818 29.7452V32.1452H40.509V28.5088H41.3818V29.7452Z" fill="#444445"/>
<path d="M36.509 30.5452V28.5088H37.3818V30.5452C37.3818 31.127 37.5999 31.4179 38.0363 31.4179C38.4727 31.4179 38.6909 31.127 38.6909 30.5452V28.5088H39.5636V32.1452H38.6909V31.8542C38.4727 32.0724 38.1818 32.2179 37.8181 32.2179C36.6545 32.2179 36.509 31.127 36.509 30.5452Z" fill="#444445"/>
<path d="M34.1091 29.0183H32.9455V27.9274H34.0364C34.4727 27.9274 34.6909 28.0729 34.6909 28.4365C34.7636 28.7274 34.6182 29.0183 34.1091 29.0183ZM34.1091 31.2729H32.9455V29.8183H34.1091C34.6182 29.8183 34.8364 30.0365 34.8364 30.5456C34.9091 30.982 34.6182 31.2729 34.1091 31.2729ZM35.8545 30.4729C35.8545 29.7456 35.3455 29.4547 35.1273 29.382C35.4909 29.1638 35.7091 28.8001 35.7091 28.3638C35.7091 27.5638 35.1273 27.0547 34.1818 27.0547H32V32.0729H34.1091C35.2 32.0729 35.8545 31.4911 35.8545 30.4729Z" fill="#444445"/>
</g>
</g>
<defs>
<clipPath id="clip0_291_329">
<rect width="82.1818" height="40" fill="white"/>
</clipPath>
</defs>
</svg>
