<svg width="142" height="40" viewBox="0 0 142 40" fill="none" xmlns="http://www.w3.org/2000/svg">
<g clip-path="url(#clip0_298_13024)">
<path d="M111.164 17.4815C111.164 20.8232 110.618 24.0152 109.601 27.0077C106.401 22.2696 104.515 16.5588 104.515 10.3992C104.515 7.05758 105.061 3.86556 106.078 0.873047C109.278 5.58626 111.164 11.3219 111.164 17.4815Z" fill="#07775D"/>
<path d="M111.213 27.2569C113.496 12.1696 123.171 1.94514 139.296 0C136.493 17.3317 125.255 25.8354 111.213 27.2569Z" fill="#07775D"/>
<path d="M142 38.9522C139.42 39.7004 136.815 39.9996 134.012 39.9996C126.644 39.9996 119.896 37.2814 114.712 32.7677C113.446 31.6704 112.256 30.4485 111.189 29.1268C111.164 29.1019 111.139 29.052 111.115 29.027C111.139 29.027 111.164 29.0021 111.189 29.0021C113.744 28.2789 116.448 27.8799 119.227 27.8799C128.48 27.9048 136.617 32.2689 142 38.9522Z" fill="#07775D"/>
<path d="M7.78966 25.4615C9.67505 25.4615 11.2379 26.1349 12.5031 27.4565C13.7683 28.8032 14.3885 30.5239 14.3885 32.6685C14.3885 34.8132 13.7435 36.5588 12.4783 37.9304C11.2876 39.277 9.57582 40.0251 7.78966 39.9753C6.77254 40.0002 5.75542 39.7259 4.88714 39.2022C4.06848 38.6785 3.37386 37.9802 2.90252 37.1324V39.7508H0V20.873H2.90252V28.2047C3.37386 27.3817 4.06848 26.7084 4.88714 26.2346C5.75542 25.7109 6.77254 25.4366 7.78966 25.4615ZM10.1712 36.1598C11.0147 35.287 11.4364 34.1149 11.4364 32.6685C11.4364 31.2221 11.0147 30.075 10.1712 29.2521C9.37736 28.4291 8.28581 27.9802 7.16946 28.0052C6.0283 27.9802 4.93676 28.4541 4.16772 29.277C3.32425 30.1249 2.90252 31.272 2.90252 32.7184C2.90252 34.1648 3.32425 35.3119 4.16772 36.1847C4.93676 37.0077 6.0283 37.4815 7.16946 37.4815C8.31062 37.4566 9.30294 37.0326 10.1712 36.1598ZM18.2089 37.9304C16.9437 36.5588 16.2987 34.8132 16.2987 32.6685C16.2987 30.5239 16.9437 28.8032 18.2089 27.4565C19.4741 26.1099 21.0618 25.4615 22.9224 25.4615C23.9396 25.4366 24.9567 25.7109 25.8498 26.2097C26.6684 26.6835 27.3382 27.3568 27.8096 28.1797V25.686H30.7369V39.7508H27.7848V37.1074C27.3134 37.9553 26.6436 38.6785 25.8249 39.2022C24.9567 39.7259 23.9396 40.0002 22.9224 39.9753C21.1115 40.0251 19.3997 39.277 18.2089 37.9304ZM26.5196 36.1847C27.363 35.3368 27.7848 34.1648 27.7848 32.7184C27.7848 31.272 27.363 30.1249 26.5196 29.277C24.9071 27.6062 22.2526 27.5563 20.6153 29.1772C20.5905 29.2022 20.5657 29.2271 20.5409 29.2521C19.6974 30.075 19.2757 31.2221 19.2757 32.6685C19.2757 34.1149 19.6974 35.262 20.5409 36.1598C21.3843 37.0326 22.3767 37.4815 23.5426 37.4815C24.659 37.4815 25.7505 37.0077 26.5196 36.1847ZM37.4102 25.7109V27.9304C38.3281 26.2845 39.8414 25.4865 41.9004 25.4865C42.9175 25.4615 43.9347 25.7358 44.8029 26.2595C45.6712 26.7832 46.341 27.5563 46.7379 28.479C47.2093 27.5812 47.9039 26.8082 48.797 26.2845C49.6901 25.7608 50.732 25.4865 51.7739 25.4865C53.3864 25.4865 54.7013 26.0102 55.7432 27.0575C56.7851 28.1049 57.3061 29.5762 57.3061 31.4964V39.8007H54.4036V31.9453C54.4036 30.6984 54.0811 29.7259 53.4609 29.0526C52.8407 28.3792 51.9724 28.0551 50.8809 28.0551C49.7893 28.0551 48.9458 28.3792 48.3008 29.0526C47.6806 29.7259 47.3581 30.6984 47.3581 31.9453V39.8007H44.4804V31.9453C44.4804 30.6984 44.1579 29.7259 43.5377 29.0526C42.9175 28.3792 42.0493 28.0551 40.9577 28.0551C39.8662 28.0551 38.9979 28.3792 38.3777 29.0526C37.7327 29.7259 37.435 30.6984 37.435 31.9453V39.8007H34.5325V25.7358H37.4102V25.7109ZM68.7673 25.4615C70.6527 25.4615 72.2156 26.1349 73.4808 27.4565C74.746 28.8032 75.3662 30.5239 75.3662 32.6685C75.3662 34.8132 74.7212 36.5588 73.456 37.9304C72.2652 39.277 70.5535 40.0251 68.7673 39.9753C67.7502 40.0002 66.7331 39.7259 65.8648 39.2022C65.0461 38.6785 64.3515 37.9802 63.8802 37.1324V39.7508H60.9776V20.873H63.8802V28.2047C64.3515 27.3817 65.0461 26.7084 65.8648 26.2346C66.7331 25.7109 67.7502 25.4615 68.7673 25.4615ZM71.124 36.1598C71.9675 35.287 72.3892 34.1149 72.3892 32.6685C72.3892 31.2221 71.9675 30.075 71.124 29.2521C70.3302 28.4291 69.2387 27.9802 68.1223 28.0052C66.9811 27.9802 65.8896 28.4541 65.1206 29.277C64.2771 30.1249 63.8554 31.272 63.8554 32.7184C63.8554 34.1648 64.2771 35.3119 65.1206 36.1847C65.8896 37.0077 66.9811 37.4815 68.1223 37.4815C69.2635 37.4566 70.2806 37.0326 71.124 36.1598ZM84.3218 40.0002C82.2876 40.0002 80.6006 39.3269 79.261 38.0052C77.9462 36.6585 77.2764 34.9129 77.2764 32.7433C77.2764 30.5738 77.971 28.8281 79.3354 27.4815C80.6999 26.1348 82.4116 25.4865 84.4458 25.4865C86.4801 25.4865 88.1918 26.1598 89.5563 27.4815C90.9207 28.8281 91.6153 30.5738 91.6153 32.7184C91.6153 34.888 90.9207 36.6336 89.5066 37.9802C88.0926 39.3269 86.3809 40.0002 84.3218 40.0002ZM87.3484 36.2595C88.1918 35.4117 88.6136 34.2396 88.6136 32.7184C88.6136 31.1972 88.1918 30.0251 87.3732 29.1772C86.6041 28.3543 85.5126 27.9054 84.3714 27.9054C83.2551 27.8805 82.1883 28.3543 81.4193 29.1772C80.6254 30.0251 80.2285 31.1972 80.2285 32.7184C80.2285 34.2396 80.6254 35.4366 81.3945 36.2595C82.1387 37.0825 83.2055 37.5563 84.3218 37.5314C85.463 37.5563 86.5545 37.0825 87.3484 36.2595ZM100.571 40.0002C98.5367 40.0002 96.8498 39.3269 95.5101 38.0052C94.1953 36.6585 93.5255 34.9129 93.5255 32.7433C93.5255 30.5738 94.2201 28.8281 95.5846 27.4815C96.949 26.1348 98.6607 25.4865 100.695 25.4865C102.729 25.4865 104.441 26.1598 105.805 27.4815C107.17 28.8281 107.864 30.5738 107.864 32.7184C107.864 34.888 107.17 36.6336 105.756 37.9802C104.342 39.3269 102.605 40.0002 100.571 40.0002ZM103.573 36.2595C104.416 35.4117 104.838 34.2396 104.838 32.7184C104.838 31.1972 104.416 30.0251 103.597 29.1772C102.828 28.3543 101.737 27.9054 100.596 27.9054C99.4794 27.8805 98.4127 28.3543 97.6436 29.1772C96.8498 30.0251 96.4528 31.1972 96.4528 32.7184C96.4528 34.2396 96.8498 35.4366 97.6188 36.2595C98.363 37.0825 99.4298 37.5563 100.546 37.5314C101.712 37.5563 102.804 37.1074 103.573 36.2595Z" fill="#242424"/>
</g>
<defs>
<clipPath id="clip0_298_13024">
<rect width="142" height="40" fill="white"/>
</clipPath>
</defs>
</svg>
