<svg width="189" height="40" viewBox="0 0 189 40" fill="none" xmlns="http://www.w3.org/2000/svg">
<g clip-path="url(#clip0_291_3637)">
<path d="M8.27582 20.0906C8.53295 19.9089 8.58322 19.7813 8.32608 19.5744C6.62862 18.2636 4.90408 16.9509 3.23175 15.613C2.56475 15.0736 1.81848 14.6096 1.19982 13.9678H1.17468V25.4924H1.19982C1.40668 25.3126 1.63675 25.1328 1.84362 24.953C3.97028 23.358 6.11435 21.7108 8.27582 20.0906Z" fill="#292525"/>
<path d="M188.615 0.821421C188.615 0.434754 188.538 0.357422 188.151 0.357422H0.737682C0.351015 0.357422 0.273682 0.434754 0.273682 0.821421V9.52142V31.3874V39.1788C0.273682 39.5654 0.351015 39.6427 0.737682 39.6427H188.126C188.513 39.6427 188.588 39.5654 188.588 39.1788C188.615 26.3666 188.615 13.6066 188.615 0.821421ZM187.714 38.2276C187.714 38.6394 187.612 38.7418 187.2 38.7418H1.68888C1.22681 38.7418 1.17462 38.5872 1.17462 38.2005V25.5449H1.14948V14.0184H1.17462V1.79969C1.17462 1.38789 1.27708 1.28349 1.68888 1.28349H187.2C187.612 1.28349 187.714 1.36082 187.714 1.79969V38.2276Z" fill="white"/>
<path d="M129.393 3.70229C129.393 3.03336 129.393 3.03335 128.749 3.03335H4.49413C4.31394 3.04689 4.13299 3.04689 3.9528 3.03335C3.67053 3.00822 3.5932 3.13775 3.5932 3.39488V13.222C3.5831 13.3103 3.59677 13.3997 3.6328 13.4809C3.66883 13.5622 3.72591 13.6323 3.79813 13.6841C4.69906 14.3801 5.6 15.0993 6.5048 15.7933C8.21773 17.1312 9.94613 18.4536 11.6707 19.7818C11.2086 20.1414 10.7968 20.501 10.3579 20.8355C8.24866 22.4305 6.11426 24.0255 4.005 25.6205C3.74786 25.8273 3.56613 26.0323 3.5932 26.4189C3.61833 29.5567 3.61833 32.7216 3.5932 35.8613C3.5932 36.3485 3.69566 36.5032 4.23506 36.5032C45.7566 36.4774 87.2872 36.4774 128.827 36.5032C129.316 36.5032 129.418 36.3756 129.418 35.9116C129.393 25.2106 129.393 14.4516 129.393 3.70229ZM21.2929 27.9617C20.3146 29.172 18.9729 29.6863 17.4842 29.7636C16.8906 29.7931 16.2956 29.7588 15.7094 29.6611C14.2439 29.4543 12.8094 29.6341 11.3362 29.6863H10.8993L10.6421 29.4291C10.6291 29.3541 10.6462 29.277 10.6896 29.2144C10.733 29.1518 10.7993 29.1088 10.8741 29.0947H10.9244C11.3111 29.0695 11.7229 29.1449 11.98 28.7853C12.2874 28.3735 12.3145 27.8593 12.3145 27.3701C12.3647 26.1096 12.3905 24.8491 12.3918 23.5885V12.3211C12.3918 11.9866 12.3647 11.627 12.3396 11.2925C12.2874 10.5463 11.9529 10.2118 11.2086 10.0823L10.6151 10.0049C10.4623 10.0049 10.3077 9.95468 10.3077 9.77488C10.3077 9.59508 10.4623 9.49069 10.6421 9.49069H12.2371C12.5445 9.49069 12.8287 9.51775 13.1381 9.51775H14.0371C15.2976 9.51775 16.5852 9.36309 17.8457 9.56802C20.4171 9.95469 21.3257 11.9866 21.1324 13.9161C21.0029 15.4627 20.2837 16.7465 19.1778 17.8001C18.8936 18.0573 18.8433 18.1617 19.2532 18.3666C23.1895 20.4759 23.4737 25.2879 21.2871 27.9617H21.2929ZM41.0844 10.032C40.0829 10.1867 39.9012 10.3394 39.8509 11.3428C39.6711 14.0185 39.7987 16.6691 39.7736 19.3449C39.7736 20.7852 39.7736 22.2256 39.5667 23.6659C39.3444 25.1584 38.9577 26.5987 37.9911 27.8342C36.4985 29.7114 34.4666 30.2005 32.1756 29.9434C28.858 29.5838 27.4679 27.2928 26.9285 24.6442C26.7095 23.5085 26.6058 22.3535 26.6192 21.197V12.3462C26.6192 12.0891 26.6192 11.8068 26.5941 11.5497C26.5167 10.4941 26.2074 10.1867 25.1537 10.032C24.9217 10.005 24.5099 10.1596 24.5621 9.74782C24.6143 9.33602 24.9739 9.51775 25.2311 9.51775C27.031 9.54288 28.8329 9.59315 30.6328 9.51775L31.0697 9.54289L31.2766 9.80002L31.0697 10.032H31.0195C29.6545 10.3665 29.6294 10.3665 29.5521 11.7817C29.5018 12.7851 29.5018 13.7614 29.5269 14.7648C29.5521 17.6204 29.3974 20.4507 29.6294 23.3063C29.7067 24.387 29.8865 25.4329 30.4027 26.3996C31.149 27.7529 32.2549 28.5089 33.8499 28.4567C35.4971 28.3793 36.5256 27.4803 37.1694 26.0381C37.6585 24.9322 37.7359 23.7181 37.761 22.5407C37.7861 21.6649 37.7861 20.791 37.7861 19.9423V12.267C37.7903 12.0179 37.7819 11.7689 37.761 11.5207C37.6585 10.5192 37.3743 10.2099 36.3458 10.0804L36.0887 10.0552C35.9089 10.0552 35.7291 10.003 35.7542 9.77295C35.7793 9.54289 35.934 9.54095 36.1138 9.54095H36.2182C37.8132 9.56608 39.4333 9.59122 41.0283 9.54095C41.2333 9.54095 41.5175 9.48875 41.5175 9.79809C41.5426 10.0552 41.2603 10.003 41.0786 10.0301L41.0844 10.032ZM51.8589 28.3967C51.4998 28.8266 51.0581 29.18 50.56 29.436C50.0618 29.6921 49.5174 29.8456 48.9589 29.8873C47.5959 30.042 46.2522 29.9647 44.9723 29.4755C44.2261 29.1681 44.1487 29.0657 44.1487 28.2672C44.1739 27.1072 44.2261 25.9472 44.2512 24.7872V24.6403C44.3285 24.4856 44.2512 24.1763 44.5354 24.2033C44.8196 24.2304 44.7152 24.4856 44.7152 24.6403C44.744 25.1815 44.8388 25.7171 44.9975 26.2353C45.2163 26.997 45.7054 27.6528 46.373 28.0799C47.0407 28.5069 47.8411 28.6759 48.6244 28.5553C49.9893 28.3755 50.9927 27.0647 51.0681 25.4426C51.1435 23.8206 50.4514 22.6393 49.2682 21.6881C48.2648 20.8645 47.1841 20.1414 46.3102 19.1922C44.6379 17.34 44.1236 15.1786 44.7925 12.8122C45.3841 10.728 47.2363 9.33215 49.3977 9.21035C50.4855 9.16099 51.5744 9.27901 52.6264 9.56028C52.986 9.66275 53.0904 9.84448 53.0633 10.2041C53.0382 10.6932 53.0633 11.2075 53.0633 11.6966H53.0382C53.0382 12.2882 53.0633 12.8798 53.0382 13.4714C53.0382 13.6512 53.0633 13.9335 52.7811 13.9335C52.4988 13.9335 52.6013 13.6512 52.5761 13.4714C52.4466 12.3114 52.0348 11.2848 50.9038 10.7957C50.4129 10.5656 49.8679 10.4758 49.3292 10.5361C48.7904 10.5965 48.2788 10.8048 47.8511 11.1379C46.5383 12.1162 46.4359 14.3027 47.6461 15.6657C48.2629 16.3598 49.0343 16.9012 49.7728 17.4406C51.1629 18.4691 52.4485 19.602 52.9879 21.3072C53.8637 23.8534 53.6839 26.272 51.8569 28.4083L51.8589 28.3967ZM62.6623 29.694C62.2757 29.694 61.8639 29.7191 61.4791 29.694C60.1432 29.5916 58.8014 29.5916 57.4655 29.694C57.1813 29.7191 56.8991 29.694 56.6168 29.694C56.437 29.694 56.2823 29.6418 56.2553 29.4369C56.2282 29.2319 56.3848 29.1276 56.5646 29.1276C56.9513 29.1024 57.3882 29.1797 57.6453 28.7931C57.9025 28.4064 57.9276 27.8921 57.9547 27.4049C58.0571 24.8916 58.0571 22.3628 58.032 19.8649C58.0069 17.3671 58.032 14.8731 58.0049 12.3791C58.0049 12.0697 57.9798 11.7604 57.9547 11.426C57.8773 10.4496 57.6202 10.1925 56.6671 10.063C56.4621 10.0378 56.1779 10.0881 56.1779 9.78069C56.1779 9.47329 56.4873 9.52355 56.6941 9.52355H62.0959C62.3008 9.52355 62.585 9.47135 62.585 9.78069C62.585 10.09 62.3279 10.0108 62.1481 10.0378C61.1447 10.1925 60.9881 10.3723 60.9127 11.3486C60.8605 11.89 60.8353 12.4042 60.8353 12.9436V25.9549C60.8353 26.5736 60.8875 27.2174 60.9127 27.8342C60.9629 28.708 61.2993 29.0425 62.1732 29.0947H62.6101C62.817 29.0947 63.0993 29.0947 63.0993 29.3769C63.0993 29.6592 62.8673 29.6863 62.6623 29.6863V29.694ZM82.769 10.0049C81.5085 10.2621 81.4582 10.2891 81.3287 11.5516C81.174 13.1717 81.2784 14.7919 81.2262 16.414C81.1489 20.53 81.0986 24.6209 81.0464 28.737V29.2242C80.9942 29.4813 81.0464 29.8429 80.7371 29.9453C80.4277 30.0478 80.1977 29.8158 80.0179 29.6109C79.579 29.0966 79.1421 28.5553 78.7303 28.041C75.4127 23.925 72.0931 19.8089 69.0636 15.4608L68.8587 15.2037C68.8587 16.9031 68.8316 18.5735 68.8587 20.2458C68.9089 22.5097 68.9863 24.7737 69.0385 27.0376C69.0412 27.3677 69.0841 27.6962 69.1661 28.0159C69.3459 28.7892 69.6301 29.0193 70.4537 29.0444L70.7881 29.0715C70.9409 29.0966 71.1226 29.1217 71.1226 29.3537C71.1226 29.5857 70.9409 29.636 70.7359 29.636C70.4266 29.636 70.1443 29.6631 69.835 29.636C68.472 29.5084 67.1283 29.6109 65.775 29.636C65.5681 29.636 65.2607 29.7404 65.2337 29.3789C65.2066 29.0173 65.543 29.0715 65.775 29.0444C66.7011 28.9942 66.9582 28.7873 67.0104 27.8844C67.1902 24.7466 67.1631 21.6088 67.2153 18.444C67.2675 15.5884 67.2927 12.7078 67.3178 9.85222V9.64535C67.37 9.44042 67.37 9.13109 67.6271 9.07889C67.8843 9.02669 68.0389 9.26062 68.1665 9.44042C69.4271 11.1128 70.6799 12.7851 71.9752 14.4555C74.4692 17.6726 76.9651 20.9128 79.4089 24.1801L79.5384 24.3348L79.6157 23.8457C79.5635 19.9365 79.4862 16.0253 79.4089 12.1162C79.4006 11.7706 79.3663 11.4261 79.3064 11.0857C79.1788 10.3124 78.8173 10.0572 77.8661 9.97982C77.6341 9.95469 77.2745 10.0823 77.2745 9.72268C77.2745 9.36308 77.6341 9.46555 77.8912 9.46555C79.3837 9.49069 80.9014 9.54289 82.3939 9.46555H82.7033L82.9855 9.69755C83.088 9.92762 82.9604 9.97982 82.7787 10.0049H82.769ZM96.5943 26.0071C96.5782 27.0503 96.4839 28.0908 96.312 29.1198C96.2347 29.5838 96.0027 29.7887 95.5135 29.7887C94.3052 29.7636 93.0949 29.7887 91.8866 29.6863C90.1621 29.5316 88.4066 29.6089 86.6898 29.7114C86.5264 29.7156 86.3628 29.7072 86.2007 29.6863L85.9957 29.4543L86.1755 29.1449L86.3302 29.0947C87.5134 28.8627 87.6681 28.708 87.6932 27.4475C87.7447 26.0078 87.7705 24.5675 87.7705 23.1265V12.3984C87.7705 12.0388 87.7454 11.6773 87.7183 11.3177C87.6681 10.5444 87.3317 10.2118 86.5583 10.1094C86.3515 10.0823 86.1195 10.0572 85.9145 10.032L85.6825 9.82515L85.8894 9.59315C86.0503 9.56399 86.2132 9.54718 86.3766 9.54289C87.7667 9.59315 89.1548 9.64535 90.1331 9.62022H94.3013C94.8 9.63532 95.2971 9.55662 95.7668 9.38822C96.0239 9.28575 96.1786 9.33602 96.1283 9.62022C95.9466 10.8034 95.9737 11.9866 95.819 13.1698C95.7939 13.2994 95.7668 13.5043 95.5619 13.4791C95.3569 13.454 95.4323 13.2723 95.4072 13.1447C95.4114 12.9812 95.403 12.8177 95.3821 12.6556C95.2023 11.6 94.7905 11.2655 93.7349 11.1882C92.8088 11.1379 91.8827 11.0857 90.9567 11.0857C90.6744 11.0857 90.5449 11.163 90.5449 11.4724V17.8272C90.5449 18.0322 90.5449 18.2139 90.8271 18.1868C92.0123 18.1617 93.2206 18.1617 94.4038 18.1095C94.5965 18.1105 94.7865 18.0642 94.9571 17.9745C95.1277 17.8848 95.2737 17.7546 95.3821 17.5952L95.6643 17.3883L95.7939 17.7499C95.7165 18.5986 95.6392 19.4222 95.587 20.2632C95.5619 20.7001 95.5367 21.1622 95.5367 21.6011C95.5367 21.7557 95.4845 21.9356 95.3299 21.9356C95.1249 21.9356 95.1501 21.7287 95.1501 21.6011C94.9954 19.9287 94.8156 19.7489 93.1181 19.6677C92.397 19.6407 91.7029 19.6155 90.9915 19.5633C90.7092 19.5633 90.5797 19.6155 90.5797 19.95C90.5797 22.009 90.5545 24.0912 90.6067 26.1502C90.6319 27.4881 91.1983 28.0545 92.5613 28.1319C93.1007 28.157 93.6169 28.157 94.1563 28.1319C95.4169 28.0545 95.9563 27.5383 96.1631 26.3049L96.2405 25.8679C96.2907 25.7133 96.2405 25.4291 96.4976 25.4813C96.6252 25.5586 96.6001 25.8158 96.6001 25.9956L96.5943 26.0071ZM107.61 28.389C107.251 28.8189 106.81 29.1723 106.312 29.4283C105.813 29.6844 105.269 29.8378 104.71 29.8796C103.349 30.0584 101.964 29.9086 100.672 29.4427C100.13 29.2378 99.8481 28.9033 99.8983 28.2827C99.9757 27.0995 99.9757 25.9414 100.003 24.7582V24.6055C100.078 24.4508 100.003 24.1415 100.285 24.1666C100.517 24.1937 100.465 24.4508 100.465 24.6055C100.481 25.148 100.576 25.6852 100.747 26.2005C101.263 27.8206 102.704 28.7467 104.376 28.5205C105.739 28.3407 106.742 27.0279 106.82 25.4078C106.897 23.7877 106.201 22.6045 104.993 21.6514C103.989 20.8278 102.909 20.1047 102.035 19.1574C100.387 17.3555 99.8983 15.2462 100.488 12.9049C101.004 10.7957 102.959 9.27802 105.145 9.17555C106.202 9.13122 107.26 9.24394 108.283 9.51002C108.695 9.61248 108.875 9.79228 108.825 10.2292C108.798 10.709 108.798 11.1898 108.825 11.6696H108.772C108.772 12.2612 108.797 12.8527 108.772 13.4443C108.772 13.599 108.797 13.9083 108.515 13.9083C108.233 13.9083 108.335 13.6261 108.31 13.4443C108.181 12.2843 107.769 11.2578 106.638 10.7706C106.145 10.5349 105.596 10.4416 105.053 10.501C104.51 10.5605 103.994 10.7703 103.564 11.107C102.253 12.0833 102.149 14.2699 103.359 15.6348C103.976 16.3289 104.747 16.8683 105.486 17.4096C106.876 18.4382 108.161 19.5692 108.703 21.2763C109.602 23.8476 109.422 26.2662 107.595 28.4025L107.61 28.389ZM120.432 28.3755C120.072 28.8165 119.627 29.1807 119.123 29.4464C118.619 29.712 118.067 29.8738 117.499 29.9221C116.139 30.0958 114.757 29.942 113.468 29.4736C112.929 29.2687 112.645 28.9342 112.695 28.3136C112.772 27.1304 112.772 25.9724 112.825 24.7892L112.85 24.5823C112.927 24.4276 112.875 24.1705 113.132 24.1956C113.339 24.2208 113.312 24.4257 113.312 24.6074C113.33 25.1664 113.425 25.7201 113.596 26.2527C114.11 27.8728 115.551 28.8008 117.223 28.5727C118.576 28.3929 119.589 27.0801 119.667 25.46C119.744 23.8399 119.05 22.6547 117.84 21.7035C116.836 20.8799 115.757 20.1569 114.882 19.2076C113.234 17.4077 112.755 15.2984 113.335 12.9572C113.849 10.8479 115.804 9.32828 117.99 9.22582C119.05 9.1827 120.11 9.2954 121.136 9.56028C121.523 9.66275 121.728 9.84449 121.675 10.2814C121.649 10.7612 121.649 11.242 121.675 11.7217H121.623C121.623 12.3133 121.65 12.9049 121.623 13.4965C121.623 13.6763 121.65 13.9606 121.366 13.9606C121.082 13.9606 121.186 13.6763 121.161 13.4965C121.032 12.3365 120.62 11.3099 119.489 10.8208C119.002 10.5887 118.46 10.4971 117.924 10.5562C117.387 10.6153 116.878 10.8227 116.453 11.1553C115.141 12.1336 115.038 14.3202 116.247 15.6832C116.865 16.3772 117.637 16.9186 118.383 17.458C119.771 18.4614 121.032 19.5943 121.598 21.2666C122.422 23.7799 122.267 26.2063 120.438 28.3658" fill="#EA2127"/>
<path d="M185.528 3.0332H131.118C130.474 3.0332 130.474 3.03321 130.474 3.67701V35.8535C130.474 36.4953 130.474 36.4953 131.118 36.4953H185.553C186.197 36.4953 186.197 36.4953 186.197 35.8535V3.7292C186.222 3.0332 186.222 3.0332 185.528 3.0332ZM143.079 29.7886C141.357 30.0206 139.632 29.7886 137.935 29.6339C137.129 29.5837 136.322 29.5837 135.516 29.6339C135.079 29.661 134.615 29.661 134.178 29.6861C133.973 29.6861 133.767 29.6861 133.767 29.4039C133.767 29.1216 133.973 29.1197 134.153 29.1197C135.234 29.1448 135.387 28.6827 135.464 27.6793C135.541 26.6759 135.568 25.6977 135.568 24.6943V11.7293C135.516 10.521 135.157 10.1343 133.973 10.057L133.664 10.0319L133.407 9.77474C133.407 9.62007 133.535 9.54274 133.664 9.5176L134.101 9.49054C135.439 9.46541 136.777 9.6452 138.192 9.5176C140.147 9.5176 142.206 9.38807 144.212 9.72254C147.499 10.289 149.639 12.1914 150.565 15.3814C151.673 19.0876 151.364 22.6894 149.305 26.0321C147.89 28.3231 145.678 29.4039 143.079 29.7886ZM168.445 29.661C166.877 29.661 165.307 29.7113 163.737 29.5837C163.582 29.5566 163.35 29.661 163.275 29.4039C163.2 29.1467 163.43 29.1448 163.557 29.0694C163.645 29.0204 163.71 28.9391 163.739 28.8427C163.768 28.7463 163.758 28.6425 163.712 28.5532C163.173 26.7533 162.606 24.9533 162.065 23.1766C162.054 23.1335 162.035 23.093 162.008 23.0577C161.982 23.0224 161.948 22.993 161.909 22.9714C161.87 22.9498 161.828 22.9364 161.784 22.9321C161.74 22.9279 161.695 22.9328 161.653 22.9465H156.997C156.793 22.9465 156.663 22.9717 156.586 23.2037C156.124 24.7716 155.505 26.297 155.198 27.8843C155.043 28.6576 155.17 29.2221 156.164 29.1197C156.371 29.0945 156.628 29.0945 156.628 29.429C156.628 29.7635 156.371 29.7113 156.164 29.7113C154.618 29.5837 153.052 29.661 151.509 29.7113C151.302 29.7113 151.045 29.7383 151.045 29.429C151.045 29.1719 151.252 29.1197 151.457 29.1197C152.408 29.1719 152.974 28.6305 153.284 27.8089C153.798 26.4188 154.26 25.0036 154.749 23.6155C156.296 19.0354 157.862 14.4824 159.406 9.90234C159.509 9.593 159.561 9.18314 159.946 9.15607C160.383 9.13094 160.435 9.593 160.537 9.90234C162.364 15.2789 164.164 20.6304 165.991 26.007C166.227 26.7811 166.555 27.5238 166.97 28.2187C167.329 28.8123 167.793 29.1467 168.516 29.1197C168.723 29.1197 169.005 29.0945 168.98 29.4039C168.903 29.6861 168.646 29.661 168.439 29.661H168.445ZM182.218 10.0319C181.83 10.0749 181.458 10.2123 181.135 10.432C180.812 10.6518 180.548 10.9471 180.366 11.2924C178.977 13.5563 177.897 15.9479 176.764 18.3413C176.327 19.2403 175.838 20.1413 175.76 21.1698C175.735 21.5816 175.71 21.9934 175.71 22.4052C175.735 24.2071 175.633 26.007 175.787 27.8089C175.865 28.7349 176.199 29.0423 177.141 29.0945C177.338 29.0904 177.536 29.0988 177.732 29.1197C177.912 29.1448 178.067 29.2221 178.067 29.429C178.052 29.51 178.006 29.582 177.939 29.63C177.872 29.6779 177.789 29.698 177.707 29.6861C177.166 29.6861 176.652 29.7113 176.112 29.661C174.62 29.5063 173.127 29.661 171.635 29.6861H171.248L170.991 29.429L171.221 29.1448L171.505 29.1197C172.329 29.0694 172.636 28.8123 172.688 27.9887C172.818 25.8021 172.893 23.6155 172.713 21.454C172.639 20.7748 172.43 20.1174 172.097 19.5207C170.914 17.1543 169.73 14.7608 168.52 12.3944C168.278 11.9075 167.994 11.4424 167.671 11.0043C167.504 10.7551 167.288 10.5424 167.036 10.3789C166.784 10.2154 166.502 10.1046 166.206 10.0531C166.026 10.028 165.844 10.0009 165.871 9.77087C165.899 9.5408 166.076 9.51374 166.283 9.51374C167.981 9.56401 169.653 9.56401 171.35 9.51374C171.505 9.51374 171.71 9.51374 171.737 9.71867C171.764 9.92361 171.582 10.0009 171.428 10.028C170.991 10.1305 170.914 10.4398 171.041 10.8245L171.171 11.2112C172.379 13.8599 173.562 16.4853 174.823 19.2365C175.931 16.4583 177.336 13.9894 178.22 11.2615C178.452 10.5171 178.374 10.3876 177.678 10.0009L177.498 9.69354L177.756 9.51374H177.91C179.351 9.58914 180.793 9.56401 182.233 9.51374C182.413 9.51374 182.593 9.51374 182.62 9.71867C182.595 9.95067 182.415 10.0009 182.208 10.028" fill="#292525"/>
<path d="M82.7767 9.51791H82.4693C80.9768 9.59331 79.4591 9.54304 77.9666 9.51791C77.7346 9.51791 77.375 9.44057 77.3499 9.77504C77.3247 10.1095 77.7095 10.0051 77.9415 10.0322C78.8927 10.1095 79.2523 10.3666 79.3818 11.138C79.4418 11.4778 79.476 11.8216 79.4843 12.1666C79.5616 16.0777 79.6389 19.9869 79.6911 23.8729L79.6138 24.3601L79.4843 24.2074C77.0405 20.94 74.5446 17.6978 72.0506 14.4827C70.763 12.8355 69.5025 11.138 68.2419 9.46571C68.1143 9.28591 67.9597 9.05391 67.7025 9.10611C67.4454 9.15831 67.4454 9.46571 67.3932 9.67064V9.87751C67.3681 12.733 67.3429 15.6137 67.2907 18.4692C67.2385 21.609 67.2907 24.7468 67.0839 27.9116C67.0336 28.8126 66.7765 29.0426 65.8504 29.0948C65.6184 29.0948 65.2839 29.0426 65.3091 29.4293C65.3342 29.816 65.6435 29.6864 65.8504 29.6864C67.2037 29.6613 68.5571 29.5569 69.9104 29.6864C70.1946 29.7116 70.502 29.6864 70.8113 29.6864C71.0163 29.6864 71.198 29.6342 71.198 29.4042C71.198 29.1741 71.0182 29.1451 70.8655 29.12L70.531 29.0948C69.7325 29.0426 69.4232 28.8126 69.2434 28.0663C69.1614 27.7466 69.1186 27.4181 69.1158 27.088C69.0385 24.8241 68.9611 22.5602 68.936 20.2962C68.9089 18.6239 68.936 16.9264 68.936 15.2541L69.1409 15.5112C72.1763 19.8342 75.4958 23.9502 78.8076 28.0914C79.2194 28.6308 79.6563 29.1451 80.0952 29.6613C80.275 29.8662 80.5051 30.0982 80.8144 29.9958C81.1237 29.8933 81.0986 29.5318 81.1237 29.2746C81.1363 29.1118 81.1363 28.9483 81.1237 28.7855C81.174 24.6694 81.2262 20.5785 81.3035 16.4624C81.3287 14.8423 81.2262 13.2222 81.3809 11.6001C81.5085 10.3396 81.5607 10.3396 82.8212 10.0534C82.9759 10.0283 83.1035 9.95097 83.1035 9.77117L82.7767 9.51791Z" fill="white"/>
<path d="M19.2378 18.3918C18.8511 18.1868 18.8782 18.0844 19.1604 17.8273C20.2663 16.7717 20.9874 15.486 21.117 13.9412C21.2697 12.0079 20.3958 9.97985 17.8303 9.59318C16.5698 9.41338 15.2841 9.56805 14.0236 9.54291H13.111C12.8036 9.54291 12.5194 9.51778 12.2101 9.51778H10.6151C10.4353 9.51778 10.2806 9.59318 10.2806 9.80005C10.2806 10.0069 10.4353 10.032 10.59 10.032C10.7887 10.0444 10.9864 10.0702 11.1816 10.1094C11.9278 10.2118 12.2372 10.5714 12.3145 11.3177C12.3396 11.6522 12.3648 12.0118 12.3648 12.3462C12.3648 16.1027 12.3918 19.8592 12.3648 23.6157C12.3648 24.8762 12.3145 26.129 12.2874 27.3973C12.2623 27.8845 12.2623 28.4007 11.953 28.8125C11.6958 29.1721 11.284 29.0947 10.8993 29.1199H10.8471C10.6924 29.1721 10.59 29.2494 10.6151 29.4543L10.8742 29.7115H11.3111C12.7766 29.6863 14.2111 29.4795 15.6592 29.6863C16.2467 29.7715 16.8405 29.8058 17.434 29.7888C18.9516 29.6863 20.2624 29.1721 21.2407 27.9889C23.4795 25.2822 23.1953 20.4759 19.2339 18.3918H19.2378ZM15.6592 10.7203C16.5852 10.6178 17.3992 10.875 17.896 11.6715C18.9516 13.3709 19.1314 15.1708 18.2305 16.9978C17.7684 17.9239 16.1986 18.386 15.2725 17.9491C15.0405 17.8466 15.0927 17.6668 15.0927 17.487V14.3531C15.0927 13.3497 15.1178 12.3211 15.0927 11.3177C15.0927 10.9059 15.2725 10.7783 15.6592 10.7261V10.7203ZM19.4137 27.113C18.6404 28.7603 16.7902 28.7351 15.7404 28.0913C15.5955 27.9986 15.4738 27.8738 15.3846 27.7267C15.2955 27.5796 15.2412 27.414 15.2261 27.2426C15.1402 26.7155 15.1059 26.1813 15.1236 25.6476V19.7297C15.1236 19.3179 15.2532 19.2405 15.6379 19.2154C17.028 19.1129 18.0043 19.7567 18.7506 20.8626C19.549 22.0458 19.8584 23.3315 19.9338 24.6693C19.8584 25.5703 19.781 26.3668 19.4195 27.113" fill="white"/>
<path d="M41.0496 9.51795C39.4546 9.56822 37.8345 9.54308 36.2395 9.51795H36.137C35.9553 9.51795 35.7755 9.54308 35.7755 9.77508C35.7755 10.0071 35.9301 10.0322 36.1099 10.0322L36.3671 10.0574C37.3975 10.1869 37.6798 10.4943 37.7823 11.4977C37.8048 11.7458 37.8138 11.9949 37.8093 12.2439V19.9096C37.8093 20.7854 37.8093 21.6593 37.7823 22.508C37.7571 23.6931 37.6798 24.9015 37.1907 26.0073C36.5739 27.4477 35.5183 28.3486 33.8731 28.4259C32.2781 28.5033 31.1664 27.7319 30.4259 26.3669C29.9097 25.4157 29.7299 24.3601 29.6526 23.2736C29.4477 20.4181 29.6023 17.5877 29.5501 14.7321C29.5501 13.7287 29.525 12.7505 29.6023 11.7471C29.6797 10.3319 29.7048 10.3319 31.0678 9.99742H31.12L31.3249 9.76735L31.12 9.53535L30.6831 9.51021C28.8812 9.58561 27.0813 9.53535 25.2794 9.51021C25.0474 9.51021 24.6627 9.35555 24.6105 9.74028C24.5583 10.125 24.9971 9.99741 25.2021 10.0245C26.2577 10.1791 26.567 10.4865 26.6424 11.5421C26.6649 11.807 26.674 12.0729 26.6695 12.3387V21.1895C26.6543 22.347 26.7553 23.5031 26.9711 24.6405C27.5124 27.2891 28.8754 29.5801 32.2201 29.9397C34.5091 30.1969 36.5159 29.7077 38.0336 27.8305C39.0119 26.6202 39.3715 25.1799 39.6035 23.6622C39.8084 22.2219 39.8084 20.7815 39.8084 19.3412C39.8355 16.6655 39.733 14.0149 39.8857 11.3392C39.9379 10.3358 40.1177 10.1792 41.1211 10.0284C41.3009 10.0013 41.5851 10.0535 41.5851 9.77121C41.5078 9.46188 41.2507 9.48702 41.0438 9.51408" fill="white"/>
<path d="M96.4125 25.545C96.1554 25.4928 96.2076 25.7751 96.1554 25.9317L96.0781 26.3686C95.8731 27.604 95.3318 28.1183 94.0713 28.1956C93.5319 28.2208 93.0157 28.2208 92.4763 28.1956C91.1384 28.1183 90.543 27.5518 90.5217 26.2159C90.4946 24.1569 90.5217 22.0728 90.4946 20.0157C90.4946 19.6812 90.6493 19.629 90.9064 19.629C91.6276 19.6542 92.3216 19.7064 93.0428 19.7315C94.7151 19.7837 94.92 19.9635 95.0747 21.6648C95.0747 21.8195 95.0495 21.9993 95.2545 21.9993C95.4594 21.9993 95.4613 21.7944 95.4613 21.6648C95.4865 21.2279 95.4865 20.7658 95.5116 20.327C95.5638 19.4782 95.6411 18.6546 95.7185 17.8136L95.5889 17.454L95.3067 17.659C95.1984 17.8186 95.0525 17.9491 94.8819 18.0391C94.7114 18.1291 94.5213 18.1758 94.3284 18.1752C93.1452 18.2254 91.9369 18.2254 90.7537 18.2506C90.4946 18.2506 90.4695 18.0708 90.4695 17.891V11.5226C90.4695 11.2152 90.572 11.1359 90.8813 11.1359C91.8074 11.1359 92.7334 11.1862 93.6595 11.2384C94.7402 11.3157 95.1269 11.6502 95.3067 12.7058C95.3276 12.8673 95.336 13.0302 95.3318 13.193C95.3318 13.3225 95.3067 13.5023 95.4865 13.5274C95.6663 13.5526 95.7185 13.3476 95.7436 13.22C95.8983 12.0368 95.8461 10.8536 96.0529 9.66849C96.1032 9.38623 95.9485 9.33403 95.6914 9.43843C95.2216 9.60617 94.7245 9.68421 94.2259 9.66849H90.0577C89.0814 9.69556 87.6913 9.64336 86.3012 9.59116C86.1377 9.59611 85.9749 9.61356 85.814 9.64336L85.6072 9.87536L85.8392 10.0803C86.0441 10.1074 86.2761 10.1325 86.483 10.1576C87.2563 10.2872 87.5888 10.5946 87.643 11.3679C87.67 11.7275 87.6952 12.0871 87.6952 12.4486C87.6952 16.0234 87.7203 19.602 87.7203 23.1748C87.7203 24.617 87.67 26.0574 87.643 27.4977C87.6178 28.7582 87.4632 28.9129 86.28 29.143L86.1253 29.17L85.9378 29.4736L86.1446 29.7056C86.306 29.7281 86.469 29.7371 86.6318 29.7326C88.3815 29.6282 90.1118 29.5509 91.8286 29.7056C93.0389 29.808 94.2472 29.7829 95.4575 29.808C95.9447 29.808 96.1767 29.6031 96.254 29.1391C96.4383 28.1117 96.5327 27.0702 96.5363 26.0264C96.5885 25.8215 96.6136 25.5644 96.4087 25.5392" fill="white"/>
<path d="M118.356 17.4404C117.612 16.901 116.838 16.3597 116.229 15.6656C115.021 14.3026 115.098 12.116 116.434 11.1377C116.864 10.8041 117.377 10.5961 117.918 10.5371C118.459 10.478 119.005 10.5702 119.497 10.8033C120.628 11.2924 121.043 12.3209 121.169 13.479C121.194 13.6588 121.092 13.9411 121.374 13.9411C121.656 13.9411 121.606 13.6588 121.631 13.479C121.658 12.8874 121.631 12.2958 121.631 11.7042H121.683C121.683 11.2151 121.658 10.7511 121.683 10.2619C121.735 9.82501 121.554 9.64521 121.144 9.54274C120.119 9.27759 119.061 9.16489 118.004 9.20827C115.792 9.31074 113.863 10.8284 113.349 12.9377C112.757 15.2789 113.244 17.3843 114.895 19.1901C115.771 20.1413 116.85 20.8875 117.853 21.686C119.063 22.6527 119.758 23.8455 119.68 25.4405C119.603 27.0355 118.599 28.3734 117.236 28.5532C116.452 28.6825 115.648 28.5171 114.978 28.0888C114.308 27.6604 113.821 26.9995 113.61 26.2332C113.439 25.6999 113.343 25.1456 113.325 24.586C113.325 24.4313 113.352 24.1993 113.146 24.1742C112.888 24.1491 112.914 24.4062 112.863 24.5609L112.838 24.7658C112.811 25.949 112.786 27.107 112.709 28.2902C112.656 28.9089 112.941 29.2434 113.482 29.4502C114.795 29.9394 116.158 30.0167 117.521 29.8872C118.092 29.8367 118.647 29.674 119.155 29.4086C119.663 29.1432 120.113 28.7803 120.481 28.3405C122.281 26.1791 122.46 23.7605 121.586 21.2143C120.995 19.5671 119.734 18.4361 118.369 17.4327" fill="white"/>
<path d="M105.519 17.4404C104.774 16.901 104.001 16.3597 103.392 15.6656C102.184 14.3026 102.286 12.116 103.597 11.1377C104.026 10.8041 104.54 10.5961 105.081 10.5371C105.621 10.478 106.168 10.5702 106.659 10.8033C107.79 11.2924 108.206 12.3209 108.332 13.479C108.357 13.6588 108.254 13.9411 108.536 13.9411C108.819 13.9411 108.768 13.6337 108.794 13.479C108.821 12.8874 108.794 12.2958 108.794 11.7042H108.846C108.846 11.2151 108.821 10.7511 108.846 10.2619C108.898 9.82501 108.718 9.64521 108.306 9.54274C107.282 9.27759 106.224 9.16489 105.167 9.20827C102.955 9.31074 101.026 10.8033 100.511 12.9377C99.9196 15.2789 100.434 17.3843 102.058 19.1901C102.934 20.1413 104.012 20.8624 105.016 21.686C106.226 22.6527 106.92 23.8456 106.843 25.4406C106.766 27.0356 105.762 28.3734 104.399 28.5532C103.615 28.6826 102.81 28.5172 102.141 28.0888C101.471 27.6605 100.984 26.9995 100.772 26.2332C100.61 25.716 100.511 25.1811 100.476 24.6402C100.476 24.4604 100.529 24.2284 100.297 24.2032C100.014 24.1762 100.065 24.4855 100.014 24.6402V24.7948C99.9892 25.978 99.9622 27.1361 99.9119 28.3193C99.8597 28.936 100.142 29.2705 100.685 29.4793C101.996 29.9684 103.361 30.0458 104.724 29.9182C105.848 29.8154 106.887 29.2803 107.624 28.4256C109.449 26.2893 109.631 23.8726 108.784 21.3245C108.192 19.6019 106.932 18.469 105.517 17.4404" fill="white"/>
<path d="M49.7709 17.44C49.0247 16.9006 48.2533 16.3593 47.6443 15.6652C46.434 14.3022 46.5365 12.1156 47.8492 11.1373C48.2787 10.8037 48.7924 10.5957 49.3331 10.5367C49.8737 10.4776 50.4202 10.5698 50.9116 10.8029C52.0426 11.292 52.4583 12.3205 52.5839 13.4786C52.6091 13.6584 52.5066 13.9407 52.7889 13.9407C53.0711 13.9407 53.0209 13.6333 53.046 13.4786C53.0711 12.887 53.046 12.2954 53.046 11.7038H53.0982C53.0982 11.2147 53.0711 10.7004 53.0982 10.2113C53.113 10.1401 53.1133 10.0666 53.0991 9.99531C53.0849 9.92399 53.0565 9.85627 53.0155 9.79618C52.9745 9.73609 52.9219 9.68487 52.8607 9.64558C52.7995 9.60629 52.731 9.57973 52.6593 9.56749C51.6068 9.26798 50.5116 9.14643 49.4191 9.20788C48.3698 9.24614 47.3594 9.61506 46.5323 10.2619C45.7053 10.9088 45.1038 11.8005 44.8139 12.8097C44.1449 15.2012 44.6592 17.3375 46.3315 19.1897C47.2054 20.166 48.2861 20.862 49.2895 21.6856C50.4998 22.6523 51.1939 23.8451 51.0914 25.4401C50.9889 27.0351 50.0107 28.373 48.6477 28.5528C47.8631 28.6822 47.0584 28.5169 46.3884 28.0885C45.7185 27.6602 45.2306 26.9992 45.0188 26.2328C44.861 25.7144 44.7663 25.1789 44.7365 24.6378C44.7365 24.458 44.7887 24.226 44.5316 24.2009C44.2745 24.1757 44.3247 24.4831 44.2474 24.6378V24.7924C44.2223 25.9524 44.1701 27.1124 44.1449 28.2724C44.1198 29.0709 44.1971 29.1985 44.9685 29.4808C46.2542 29.997 47.5921 30.0472 48.9551 29.8926C50.0788 29.7919 51.1191 29.2572 51.8551 28.402C53.6821 26.2657 53.8619 23.8471 53.0151 21.2757C52.4486 19.6034 51.1881 18.4453 49.7729 17.4419" fill="white"/>
<path d="M62.6334 29.0865H62.1964C61.3226 29.0343 60.9881 28.6998 60.9359 27.8259C60.8856 27.2092 60.8586 26.5654 60.8586 25.9468V12.9374C60.8586 12.398 60.8856 11.8837 60.9359 11.3424C61.0132 10.339 61.1679 10.1824 62.1713 10.0316C62.3511 10.0045 62.6334 10.0567 62.6082 9.77443C62.5831 9.49216 62.326 9.51729 62.1191 9.51729H56.7174C56.5105 9.51729 56.2282 9.49023 56.2031 9.77443C56.178 10.0586 56.4854 10.0316 56.6922 10.0567C57.6434 10.1862 57.9006 10.4685 57.9779 11.4197C58.003 11.729 58.0301 12.0384 58.0301 12.3728C58.0301 14.8668 58.0552 17.3628 58.0552 19.8587C58.0552 22.3546 58.0804 24.9008 57.9779 27.3987C57.9528 27.8859 57.9528 28.3654 57.6686 28.7868C57.3844 29.2083 56.9745 29.0962 56.5878 29.1213C56.408 29.1464 56.2534 29.2238 56.2804 29.4306C56.3075 29.6375 56.4602 29.6877 56.64 29.6877C56.9223 29.6877 57.2065 29.7129 57.4888 29.6877C58.8247 29.5853 60.1665 29.5853 61.5024 29.6877C61.889 29.7129 62.2989 29.6877 62.6856 29.6877C62.9176 29.6877 63.1496 29.7129 63.1496 29.4055C63.1496 29.0981 62.8654 29.0961 62.6334 29.0961" fill="white"/>
<path d="M150.565 15.3816C149.639 12.2187 147.505 10.2892 144.212 9.72272C142.178 9.38826 140.152 9.51779 138.192 9.51779C136.777 9.64539 135.439 9.46559 134.101 9.49073L133.664 9.51779C133.535 9.54292 133.407 9.59319 133.407 9.74786L133.664 10.005L133.973 10.0321C135.182 10.1345 135.541 10.5212 135.568 11.7044V24.6693C135.568 25.6727 135.541 26.651 135.464 27.6544C135.387 28.6578 135.234 29.1199 134.153 29.0947C133.973 29.0947 133.767 29.145 133.767 29.377C133.767 29.6612 133.973 29.6863 134.178 29.6612C134.615 29.6612 135.079 29.6341 135.516 29.609C136.322 29.5568 137.129 29.5568 137.935 29.609C139.657 29.7385 141.357 29.9957 143.079 29.7637C145.678 29.4041 147.89 28.3233 149.305 26.0072C151.364 22.6896 151.646 19.0878 150.565 15.3739V15.3816ZM147.279 24.9709C146.43 27.1827 144.655 28.2885 142.314 28.4509C141.521 28.5338 140.719 28.4729 139.947 28.2711C138.944 27.9618 138.61 27.4978 138.532 26.4441C138.378 24.0004 138.455 21.5567 138.455 20.2188V11.8803C138.455 11.107 138.582 10.9543 139.356 10.8769C143.24 10.5425 146.455 12.4468 147.511 16.1511C148.359 19.1342 148.384 22.0922 147.279 24.9748" fill="#FCFDFF"/>
<path d="M168.445 29.0868C167.751 29.1119 167.261 28.7775 166.898 28.1859C166.494 27.4857 166.166 26.7442 165.92 25.9741C164.095 20.5975 162.293 15.2461 160.466 9.86947C160.363 9.56014 160.313 9.09614 159.874 9.1232C159.488 9.14834 159.437 9.56014 159.335 9.86947C157.788 14.4476 156.222 19.0025 154.677 23.5807C154.19 24.9959 153.726 26.3859 153.212 27.7741C152.903 28.5977 152.363 29.1274 151.385 29.0868C151.18 29.0617 150.973 29.1119 150.973 29.3961C150.973 29.6803 151.23 29.6784 151.437 29.6784C152.984 29.6262 154.55 29.5489 156.093 29.6784C156.299 29.7035 156.557 29.7306 156.557 29.3961C156.557 29.0616 156.299 29.0868 156.093 29.0868C155.089 29.1641 154.962 28.6228 155.126 27.8514C155.46 26.2564 156.077 24.7387 156.514 23.1689C156.591 22.9388 156.721 22.9117 156.926 22.9117H161.583C161.788 22.9117 161.943 22.9388 161.993 23.1437C162.534 24.9456 163.101 26.7455 163.64 28.5203C163.677 28.6108 163.682 28.7112 163.654 28.8048C163.626 28.8984 163.566 28.9795 163.486 29.0346C163.358 29.1119 163.151 29.1641 163.203 29.3691C163.254 29.6262 163.486 29.5489 163.665 29.5489C165.235 29.6784 166.805 29.6262 168.373 29.6262C168.58 29.6262 168.837 29.6533 168.862 29.3439C168.94 29.0617 168.682 29.0868 168.45 29.0868H168.445ZM160.733 21.4211H157.465C157.313 21.4211 157.079 21.4965 157.183 21.1621C157.904 18.9252 158.598 16.7154 159.344 14.32C160.013 16.5317 160.657 18.6159 161.299 20.7C161.506 21.4211 161.506 21.4211 160.733 21.4211Z" fill="#FCFDFF"/>
<path d="M182.183 9.51789C180.743 9.56815 179.302 9.59329 177.862 9.51789H177.707L177.45 9.69769L177.63 10.0051C178.324 10.3918 178.427 10.5213 178.169 11.2656C177.296 13.9936 175.88 16.4624 174.774 19.2406C173.514 16.4895 172.304 13.8389 171.12 11.2154L170.993 10.8287C170.863 10.442 170.941 10.1598 171.38 10.0322C171.534 9.97996 171.714 9.92775 171.689 9.72282C171.664 9.51789 171.484 9.49082 171.302 9.51789C169.605 9.56815 167.932 9.56815 166.235 9.51789C166.055 9.51789 165.848 9.51788 165.823 9.77502C165.823 9.97995 166.003 10.0051 166.158 10.0573C166.453 10.1101 166.735 10.2215 166.987 10.3848C167.239 10.5481 167.456 10.7602 167.625 11.0085C167.956 11.441 168.24 11.9069 168.474 12.3986C169.657 14.765 170.865 17.1314 172.048 19.5248C172.37 20.1266 172.579 20.7816 172.667 21.4582C172.825 23.6339 172.816 25.8185 172.64 27.9928C172.59 28.8416 172.28 29.0736 171.457 29.1238L171.175 29.149L170.943 29.4332L171.198 29.6864H171.584C173.077 29.6613 174.568 29.5318 176.06 29.6613C176.574 29.7116 177.116 29.6864 177.655 29.6864C177.737 29.6983 177.82 29.6782 177.887 29.6303C177.954 29.5823 178 29.5103 178.015 29.4293C178.042 29.2224 177.862 29.1451 177.68 29.12C177.484 29.099 177.286 29.0906 177.089 29.0948C176.137 29.0426 175.828 28.7604 175.726 27.8092C175.571 26.0073 175.675 24.2074 175.648 22.4055C175.648 21.9937 175.675 21.5819 175.701 21.1701C175.803 20.1416 176.292 19.2368 176.704 18.3416C177.835 15.9482 178.916 13.5566 180.306 11.2927C180.499 10.9561 180.766 10.6677 181.087 10.4494C181.408 10.231 181.774 10.0884 182.158 10.0322C182.363 10.0051 182.545 9.95482 182.517 9.72282C182.57 9.49082 182.363 9.49082 182.183 9.51789Z" fill="#FCFDFF"/>
<path d="M15.607 19.2401C15.2203 19.2672 15.0927 19.3445 15.0927 19.7563C15.1179 21.7361 15.0927 23.6907 15.0927 25.6723C15.0757 26.206 15.11 26.7401 15.1952 27.2673C15.2725 27.6269 15.4001 27.9362 15.7095 28.116C16.7651 28.7598 18.6095 28.785 19.3828 27.1397C19.7424 26.3934 19.8468 25.593 19.8719 24.7211C19.8432 23.3656 19.4331 22.0456 18.6887 20.9125C17.9676 19.7815 16.9913 19.1377 15.5954 19.2401" fill="#EA2127"/>
<path d="M15.1178 14.3798V17.5176C15.1178 17.6974 15.0675 17.8772 15.2976 17.9796C16.2237 18.4185 17.7935 17.9545 18.2575 17.0284C19.1314 15.2014 18.9767 13.4015 17.9231 11.704C17.4339 10.9056 16.6103 10.6484 15.6843 10.7509C15.2725 10.8031 15.1178 10.9307 15.1178 11.3696C15.1429 12.3459 15.1178 13.3764 15.1178 14.3798Z" fill="#EA2127"/>
<path d="M139.35 10.9133C138.577 10.9906 138.449 11.1453 138.449 11.9167V20.2513C138.474 21.564 138.372 24.0329 138.526 26.4785C138.577 27.5322 138.938 27.9962 139.942 28.3036C140.715 28.5607 141.51 28.5356 142.308 28.4853C144.649 28.3307 146.424 27.2248 147.273 25.0053C148.379 22.1247 148.354 19.1396 147.505 16.2068C146.451 12.4754 143.234 10.5711 139.35 10.9133Z" fill="#292525"/>
<path d="M159.339 14.3271C158.592 16.6935 157.898 18.9323 157.177 21.1692C157.075 21.5307 157.307 21.4283 157.46 21.4283H160.727C161.5 21.4283 161.5 21.4282 161.268 20.7071C160.651 18.623 160.008 16.5389 159.335 14.3271" fill="#292525"/>
</g>
<defs>
<clipPath id="clip0_291_3637">
<rect width="188.889" height="40" fill="white"/>
</clipPath>
</defs>
</svg>
