<svg width="202" height="40" viewBox="0 0 202 40" fill="none" xmlns="http://www.w3.org/2000/svg">
<g clip-path="url(#clip0_311_538)">
<path d="M50.6119 16.4231C51.4029 14.952 52.4832 13.8088 53.8532 12.9937C55.2182 12.1785 56.7327 11.7686 58.3871 11.7686C59.8824 11.7686 61.1847 12.0628 62.2989 12.6464C63.4131 13.23 64.3054 13.9632 64.9711 14.8362V12.0773H68.9359V31.0718H64.9711V28.2453C64.3054 29.1423 63.3986 29.8899 62.2459 30.4881C61.0979 31.0861 59.7859 31.3853 58.3147 31.3853C56.6844 31.3853 55.1892 30.9656 53.8339 30.1263C52.4786 29.2871 51.4029 28.1149 50.6119 26.6101C49.8207 25.1053 49.4204 23.3978 49.4204 21.4924C49.4204 19.5873 49.8161 17.8943 50.6119 16.4231ZM64.1607 18.1451C63.6204 17.1804 62.9162 16.4424 62.0432 15.9408C61.1702 15.4343 60.2296 15.1835 59.2167 15.1835C58.2039 15.1835 57.2632 15.4295 56.3902 15.9263C55.5172 16.4231 54.8082 17.1466 54.2679 18.0968C53.7277 19.0519 53.4576 20.1806 53.4576 21.4924C53.4576 22.8044 53.7277 23.9524 54.2679 24.9413C54.8082 25.9299 55.5221 26.6824 56.4047 27.1986C57.2874 27.7146 58.2279 27.9751 59.2119 27.9751C60.1959 27.9751 61.1654 27.7243 62.0384 27.2178C62.9114 26.7114 63.6204 25.9734 64.1559 24.9943C64.6961 24.0199 64.9662 22.8719 64.9662 21.5648C64.9662 20.2578 64.6961 19.1194 64.1559 18.1499L64.1607 18.1451Z" fill="#200865"/>
<path d="M72.7416 16.4238C73.5326 14.9526 74.6131 13.8095 75.983 12.9943C77.348 12.1792 78.8721 11.7692 80.5506 11.7692C81.7903 11.7692 83.0155 12.0393 84.2213 12.5795C85.4271 13.1197 86.387 13.8384 87.1008 14.7356V5.56152H91.0656V31.0724H87.1008V28.2121C86.4593 29.1334 85.567 29.8906 84.4286 30.4887C83.2903 31.0867 81.988 31.3859 80.517 31.3859C78.8625 31.3859 77.3528 30.9662 75.983 30.1269C74.618 29.2877 73.5375 28.1156 72.7416 26.6107C71.9506 25.1057 71.5503 23.3984 71.5503 21.4931C71.5503 19.5879 71.9458 17.8949 72.7416 16.4238ZM86.2905 18.1457C85.7503 17.1811 85.0461 16.4431 84.173 15.9414C83.3 15.435 82.3595 15.1842 81.3465 15.1842C80.3336 15.1842 79.3931 15.4301 78.52 15.927C77.647 16.4238 76.938 17.1472 76.3978 18.0974C75.8575 19.0526 75.5875 20.1812 75.5875 21.4931C75.5875 22.8051 75.8575 23.9531 76.3978 24.9419C76.938 25.9306 77.6518 26.6831 78.5345 27.1992C79.4171 27.7152 80.3578 27.9757 81.3416 27.9757C82.3256 27.9757 83.2951 27.7249 84.1681 27.2184C85.0413 26.7121 85.7503 25.9741 86.2856 24.9949C86.8258 24.0206 87.096 22.8726 87.096 21.5654C87.096 20.2584 86.8258 19.1201 86.2856 18.1506L86.2905 18.1457Z" fill="#200865"/>
<path d="M102.338 27.5554L107.716 12.0771H111.888L104.648 31.0716H99.9601L92.7539 12.0771H96.9599L102.338 27.5554Z" fill="#200865"/>
<path d="M113.489 16.4231C114.28 14.952 115.361 13.8088 116.731 12.9937C118.096 12.1785 119.61 11.7686 121.265 11.7686C122.76 11.7686 124.062 12.0628 125.176 12.6464C126.291 13.23 127.183 13.9632 127.849 14.8362V12.0773H131.813V31.0718H127.849V28.2453C127.183 29.1423 126.276 29.8899 125.123 30.4881C123.975 31.0861 122.664 31.3853 121.192 31.3853C119.562 31.3853 118.067 30.9656 116.711 30.1263C115.356 29.2871 114.28 28.1149 113.489 26.6101C112.698 25.1053 112.298 23.3978 112.298 21.4924C112.298 19.5873 112.694 17.8943 113.489 16.4231ZM127.038 18.1451C126.498 17.1804 125.794 16.4424 124.921 15.9408C124.048 15.4343 123.107 15.1835 122.094 15.1835C121.081 15.1835 120.141 15.4295 119.268 15.9263C118.395 16.4231 117.686 17.1466 117.146 18.0968C116.605 19.0519 116.335 20.1806 116.335 21.4924C116.335 22.8044 116.605 23.9524 117.146 24.9413C117.686 25.9299 118.4 26.6824 119.282 27.1986C120.165 27.7146 121.106 27.9751 122.09 27.9751C123.073 27.9751 124.043 27.7243 124.916 27.2178C125.789 26.7114 126.498 25.9734 127.033 24.9943C127.574 24.0199 127.844 22.8719 127.844 21.5648C127.844 20.2578 127.574 19.1194 127.033 18.1499L127.038 18.1451Z" fill="#200865"/>
<path d="M149.337 12.6994C150.519 13.3216 151.445 14.2381 152.11 15.4584C152.776 16.6788 153.109 18.1498 153.109 19.8718V31.0764H149.211V20.4603C149.211 18.7576 148.787 17.4553 147.938 16.5485C147.089 15.6417 145.927 15.1883 144.456 15.1883C142.984 15.1883 141.817 15.6417 140.959 16.5485C140.095 17.4553 139.666 18.7624 139.666 20.4603V31.0764H135.735V12.0772H139.666V14.2477C140.307 13.4663 141.132 12.8586 142.131 12.4197C143.129 11.9855 144.195 11.7637 145.319 11.7637C146.814 11.7637 148.15 12.0724 149.337 12.6946V12.6994Z" fill="#200865"/>
<path d="M156.75 16.4038C157.541 14.923 158.641 13.7799 160.045 12.9744C161.448 12.1689 163.055 11.7686 164.873 11.7686C167.168 11.7686 169.075 12.3136 170.578 13.4085C172.083 14.4986 173.102 16.0565 173.632 18.0776H169.393C169.05 17.1369 168.495 16.399 167.738 15.8732C166.982 15.3475 166.026 15.0822 164.878 15.0822C163.267 15.0822 161.989 15.6514 161.034 16.7898C160.079 17.9279 159.601 19.5198 159.601 21.5648C159.601 23.6099 160.079 25.2064 161.034 26.3544C161.989 27.5024 163.267 28.0764 164.878 28.0764C167.155 28.0764 168.66 27.0779 169.393 25.0763H173.632C173.082 27.0056 172.045 28.5394 170.532 29.6778C169.017 30.8161 167.13 31.3853 164.878 31.3853C163.064 31.3853 161.453 30.9753 160.05 30.1601C158.646 29.3449 157.551 28.1969 156.755 26.7114C155.964 25.2306 155.564 23.5134 155.564 21.5599C155.564 19.6066 155.959 17.8894 156.755 16.4086L156.75 16.4038Z" fill="#200865"/>
<path d="M180.24 5.56152V31.0724H176.308V5.56152H180.24Z" fill="#200865"/>
<path d="M201.27 12.0771L189.617 39.9996H185.55L189.408 30.7629L181.928 12.0771H186.308L191.652 26.5569L197.203 12.0771H201.27Z" fill="#200865"/>
<path d="M27.0103 36.807C25.9973 38.1333 24.4925 39.045 22.7272 39.3152C19.7655 39.7637 16.9247 38.336 15.4921 35.6783L13.1576 30.8115C12.6029 29.7842 11.6479 29.0365 10.5192 28.7423L5.29063 27.141C2.36285 26.3837 0.298452 23.972 0.0283435 20.9912C-0.227295 18.1647 1.26313 15.5745 3.81952 14.3879L22.539 5.70588C24.888 4.6158 27.6422 4.95343 29.7258 6.58856C31.8047 8.21886 32.7887 10.8138 32.2918 13.3509L28.2353 34.0577C28.0328 35.0898 27.6083 36.0208 27.0055 36.807H27.0103ZM4.81313 19.0377C4.48032 19.4718 4.4562 19.9733 4.48513 20.2965C4.55267 21.0345 5.02535 21.9317 6.15885 22.2212L13.4229 24.3482C14.5515 24.6377 15.5065 25.39 16.0612 26.4175L19.3942 33.1315C19.9488 34.159 20.9328 34.405 21.6708 34.294C22.1435 34.2217 22.9732 33.9418 23.1805 32.8712L27.237 12.1644C27.4588 11.0309 26.6678 10.3122 26.4218 10.1193C26.171 9.92633 25.2835 9.32823 24.2272 9.8154L5.5077 18.4975C5.18935 18.647 4.96747 18.8352 4.81313 19.0377Z" fill="#713FFF"/>
<path d="M40.7855 1.51434C38.7018 -0.120785 35.9477 -0.458421 33.5987 0.63166L14.8792 9.31373C12.318 10.5003 10.8324 13.0904 11.088 15.9169C11.3581 18.8978 13.4225 21.3143 16.3503 22.0715L20.0402 23.2002L21.0097 18.261L17.2233 17.1517C16.0898 16.8575 15.6171 15.9651 15.5496 15.2272C15.5207 14.904 15.5496 14.3976 15.8776 13.9634C16.032 13.7609 16.2586 13.5728 16.5722 13.4232L35.2868 4.74117C36.3383 4.25402 37.2307 4.85212 37.4815 5.04505C37.7275 5.23798 38.5185 5.95667 38.2967 7.09015L34.2402 27.7968C34.0328 28.8677 33.2032 29.1475 32.7305 29.2198C31.9925 29.3307 31.0085 29.0847 30.4538 28.0573L27.1208 21.3432C26.8315 20.8078 26.436 20.3545 25.9585 19.9927L24.6562 26.6442L26.5517 30.5993C27.9843 33.257 30.8252 34.6847 33.7868 34.2362C35.5473 33.9708 37.057 33.0543 38.07 31.728C38.668 30.9417 39.0973 30.006 39.2998 28.9787L43.3563 8.27188C43.8532 5.73478 42.8692 3.14463 40.7903 1.50952" fill="#713FFF"/>
</g>
<defs>
<clipPath id="clip0_311_538">
<rect width="201.667" height="40" fill="white"/>
</clipPath>
</defs>
</svg>
