<svg width="106" height="40" viewBox="0 0 106 40" fill="none" xmlns="http://www.w3.org/2000/svg">
<path d="M16.9815 5.61265V24.3408H12.6461V22.6011C11.6293 23.8864 10.2109 24.607 8.47121 24.607C4.83345 24.607 2.50391 21.5568 2.50391 17.5174C2.50391 13.478 4.83116 10.453 8.47121 10.453C10.2109 10.453 11.6293 11.176 12.6461 12.4337V5.61035H16.9815V5.61265ZM12.6461 19.4177V15.6193C12.0034 14.7357 11.0945 14.0404 9.88959 14.0404C8.01677 14.0404 6.75906 15.5115 6.75906 17.5174C6.75906 19.5233 8.04432 21.022 9.91713 21.022C11.1221 21.022 12.0034 20.2991 12.6461 19.4177Z" fill="#B11A83"/>
<path d="M32.5538 18.6384H23.215C23.5891 20.6719 24.8468 21.4476 27.2544 21.4476C28.2986 21.4476 29.4485 21.2342 31.7482 20.4034V23.8276C29.5013 24.4955 27.7616 24.5759 26.8252 24.5759C21.9297 24.5759 19.0654 21.8745 19.0654 17.2453C19.0654 13.0177 22.1684 10.4219 26.0219 10.4219C29.8754 10.4219 32.5516 12.857 32.5516 17.1902V18.6338L32.5538 18.6384ZM23.1898 16.0426H28.7807C28.5121 14.3029 27.6308 13.3138 26.0518 13.3138C24.4727 13.3138 23.5088 14.2777 23.1898 16.0426Z" fill="#B11A83"/>
<path d="M46.8662 15.8866V24.3417H42.5307V22.843C41.6218 23.9676 40.3365 24.608 38.7575 24.608C35.9759 24.608 33.9424 22.6549 33.9424 20.1394C33.9424 17.624 35.9759 15.6983 38.8378 15.6983C40.309 15.6983 41.5668 16.1 42.5307 17.1695V16.0724C42.5307 14.654 41.7274 13.6097 39.6939 13.6097C39.0788 13.6097 37.6077 13.6901 35.4388 14.9753V11.177C37.9795 10.4287 40.0405 10.4287 40.8162 10.4287C44.4815 10.4287 46.8639 12.4095 46.8639 15.8866H46.8662ZM42.5307 20.7292V19.5518C41.7274 18.5879 41.0068 18.2941 40.2034 18.2941C39.026 18.2941 38.1424 19.1227 38.1424 20.1669C38.1424 21.2112 38.9985 21.9594 40.2034 21.9594C40.9792 21.9594 41.7297 21.6656 42.5307 20.7292Z" fill="#B11A83"/>
<path d="M49.4624 5.61035H53.7978V24.3385H49.4624V5.61035Z" fill="#B11A83"/>
<path d="M70.3291 5.61265V24.3408H65.9937V22.6011C64.977 23.8864 63.5585 24.607 61.8189 24.607C58.1788 24.607 55.8516 21.5568 55.8516 17.5174C55.8516 13.478 58.1788 10.453 61.8189 10.453C63.5585 10.453 64.977 11.176 65.9937 12.4337V5.61035H70.3291V5.61265ZM65.9937 19.4177V15.6193C65.3511 14.7357 64.4423 14.0404 63.2372 14.0404C61.3645 14.0404 60.1067 15.5115 60.1067 17.5174C60.1067 19.5233 61.392 21.022 63.2649 21.022C64.4698 21.022 65.3511 20.2991 65.9937 19.4177Z" fill="#B11A83"/>
<path d="M85.1792 15.8866V24.3417H80.8437V22.843C79.9348 23.9676 78.6496 24.608 77.0705 24.608C74.2889 24.608 72.2554 22.6549 72.2554 20.1394C72.2554 17.624 74.2889 15.6983 77.1509 15.6983C78.6221 15.6983 79.8797 16.1 80.8437 17.1695V16.0724C80.8437 14.654 80.0404 13.6097 78.0069 13.6097C77.3918 13.6097 75.9207 13.6901 73.7518 14.9753V11.177C76.2925 10.4287 78.3535 10.4287 79.1292 10.4287C82.7945 10.4287 85.1769 12.4095 85.1769 15.8866H85.1792ZM80.8437 20.7292V19.5518C80.0404 18.5879 79.3197 18.2941 78.5165 18.2941C77.3391 18.2941 76.4555 19.1227 76.4555 20.1669C76.4555 21.2112 77.3116 21.9594 78.5165 21.9594C79.2922 21.9594 80.0427 21.6656 80.8437 20.7292Z" fill="#B11A83"/>
<path d="M101.178 10.6928L94.0337 28.8058H88.789L91.8391 23.3732L86.2207 10.6904H90.9555L93.8728 19.2512L96.3881 10.6904H101.178V10.6928Z" fill="#B11A83"/>
<path d="M37.4718 34.4047C37.0059 34.4047 36.6111 34.1752 36.4413 33.8172V34.3267H35.98V30.3125H36.4413V32.0614C36.6111 31.7057 37.0059 31.4739 37.4718 31.4739C38.2292 31.4739 38.787 32.0821 38.787 32.9382C38.787 33.7943 38.2269 34.4025 37.4718 34.4025V34.4047ZM38.041 32.1945C37.8711 32.0017 37.6417 31.903 37.3617 31.903C37.0817 31.903 36.8522 32.0017 36.6754 32.1945C36.5056 32.3873 36.4184 32.6398 36.4184 32.9404C36.4184 33.2411 36.5056 33.4935 36.6754 33.6864C36.8498 33.8791 37.0817 33.9778 37.3617 33.9778C37.6417 33.9778 37.8711 33.8791 38.041 33.6864C38.2154 33.4935 38.3049 33.2411 38.3049 32.9404C38.3049 32.6398 38.2177 32.3873 38.041 32.1945Z" fill="#532F8C"/>
<path d="M41.8212 31.5557V34.0619C41.8212 35.0006 41.3231 35.5032 40.467 35.5032C40.0012 35.5032 39.5743 35.3494 39.3149 35.0855L39.5834 34.7573C39.8083 34.9593 40.1274 35.0763 40.4556 35.0763C41.0317 35.0763 41.3599 34.7367 41.3599 34.0619V33.7819C41.2015 34.1331 40.8388 34.3305 40.3844 34.3305C39.7648 34.3305 39.3975 33.9518 39.3975 33.2563V31.5557H39.8588V33.1462C39.8588 33.6718 40.0608 33.9036 40.4946 33.9036C40.9995 33.9036 41.3622 33.5914 41.3622 33.1301V31.5557H41.8235H41.8212Z" fill="#532F8C"/>
<path d="M43.8433 29.764L45.0436 29.5713V30.8198H46.4849V31.8182H45.0436V33.3077C45.0436 33.5601 45.0873 33.7622 45.1767 33.9113C45.2662 34.0605 45.443 34.1362 45.7115 34.1362C45.8401 34.1362 45.9731 34.1248 46.1109 34.0995C46.2486 34.0743 46.3726 34.0422 46.4849 33.9985L46.6548 34.9327C46.5102 34.9923 46.3496 35.0428 46.1728 35.0865C45.9961 35.13 45.778 35.1506 45.521 35.1506C45.1928 35.1506 44.9221 35.1071 44.7086 35.0175C44.4928 34.928 44.323 34.8065 44.1944 34.648C44.066 34.4897 43.9765 34.2969 43.926 34.0719C43.8754 33.847 43.8501 33.5969 43.8501 33.3238V29.7664L43.8433 29.764Z" fill="#532F8C"/>
<path d="M47.2949 35.0535V29.0013L48.4953 28.8086V30.8374C48.5756 30.8099 48.6789 30.7847 48.8052 30.7617C48.9313 30.7364 49.053 30.725 49.1723 30.725C49.5166 30.725 49.8012 30.7709 50.0307 30.865C50.2579 30.9591 50.4415 31.0922 50.577 31.2643C50.7146 31.4365 50.811 31.6407 50.8661 31.8772C50.9235 32.1135 50.951 32.3752 50.951 32.6666V35.0582H49.7507V32.8135C49.7507 32.4279 49.7002 32.1525 49.6015 31.9919C49.5028 31.8312 49.3192 31.7509 49.0506 31.7509C48.9428 31.7509 48.8418 31.76 48.7478 31.7785C48.6536 31.7968 48.5687 31.8174 48.4953 31.8381V35.0582H47.2949V35.0535Z" fill="#532F8C"/>
<path d="M53.398 30.7097C53.7514 30.7097 54.0475 30.751 54.2838 30.8313C54.5203 30.9117 54.7085 31.0264 54.8507 31.1779C54.993 31.327 55.0941 31.5107 55.1537 31.7241C55.2134 31.9399 55.2433 32.1786 55.2433 32.4402V34.935C55.0711 34.9717 54.8324 35.0176 54.5272 35.0681C54.2219 35.1186 53.8501 35.1439 53.4163 35.1439C53.1432 35.1439 52.8954 35.1186 52.6727 35.0704C52.4501 35.0222 52.2573 34.9419 52.0967 34.834C51.9359 34.7239 51.812 34.5815 51.7271 34.4025C51.6422 34.2258 51.5986 34.0078 51.5986 33.7508C51.5986 33.4936 51.6491 33.294 51.7478 33.1218C51.8464 32.9497 51.9796 32.8143 52.1471 32.711C52.3124 32.61 52.5029 32.5343 52.7186 32.4907C52.932 32.4448 53.157 32.4218 53.3864 32.4218C53.5425 32.4218 53.6803 32.4287 53.8019 32.4425C53.9236 32.4562 54.0199 32.4723 54.0957 32.4953V32.3828C54.0957 32.1786 54.0337 32.0156 53.9098 31.8917C53.7859 31.7677 53.5724 31.7057 53.2649 31.7057C53.0606 31.7057 52.8586 31.7195 52.6612 31.7494C52.4615 31.7792 52.2917 31.8205 52.1471 31.8733L51.9933 30.907C52.0622 30.8864 52.1494 30.8635 52.255 30.8382C52.3606 30.813 52.4731 30.7923 52.597 30.7739C52.7209 30.7556 52.8494 30.7395 52.9871 30.7257C53.1249 30.712 53.2625 30.7051 53.4025 30.7051L53.398 30.7097ZM53.4944 34.2189C53.6114 34.2189 53.7238 34.2166 53.8317 34.2097C53.9397 34.2052 54.0245 34.196 54.0888 34.1845V33.2756C54.0406 33.2641 53.9672 33.2549 53.8707 33.2435C53.7744 33.2321 53.6849 33.2274 53.6045 33.2274C53.492 33.2274 53.3864 33.2343 53.2855 33.2481C53.1868 33.2618 53.0996 33.2871 53.0238 33.3238C52.9481 33.3605 52.8907 33.4134 52.8471 33.4776C52.8036 33.5418 52.7829 33.6222 52.7829 33.7186C52.7829 33.9068 52.8449 34.0376 52.9711 34.1087C53.0973 34.1822 53.2694 34.2166 53.4898 34.2166L53.4944 34.2189Z" fill="#532F8C"/>
<path d="M56.1655 30.9676C56.3698 30.908 56.6315 30.8529 56.9551 30.8024C57.2764 30.7519 57.616 30.7266 57.9695 30.7266C58.323 30.7266 58.6282 30.7725 58.8669 30.8667C59.1056 30.9607 59.2938 31.0938 59.4338 31.266C59.5738 31.4381 59.6725 31.6424 59.7321 31.8787C59.7919 32.1151 59.8217 32.3768 59.8217 32.6682V35.0598H58.6213V32.8152C58.6213 32.4296 58.5708 32.1542 58.4676 31.9935C58.3666 31.8329 58.176 31.7525 57.896 31.7525C57.8112 31.7525 57.7194 31.7571 57.6229 31.7641C57.5266 31.7709 57.4394 31.7824 57.3659 31.7916V35.0598H56.1655V30.9699V30.9676Z" fill="#532F8C"/>
<path d="M61.9444 32.3361C62.0615 32.2076 62.1854 32.0745 62.3094 31.9368C62.4356 31.7991 62.5572 31.6613 62.6743 31.5237C62.7913 31.386 62.9038 31.2574 63.007 31.1358C63.1126 31.0142 63.2021 30.9063 63.2756 30.8168H64.7008C64.4163 31.1426 64.1386 31.4548 63.8677 31.7532C63.5969 32.0492 63.3008 32.3568 62.9772 32.6735C63.1379 32.8181 63.3055 32.9925 63.4752 33.1945C63.6474 33.3965 63.8126 33.6053 63.9733 33.8187C64.1339 34.0345 64.2808 34.2479 64.4163 34.4638C64.5494 34.6795 64.6642 34.8745 64.7537 35.0513H63.3743C63.2894 34.9113 63.1907 34.7575 63.0805 34.5877C62.9703 34.4178 62.8533 34.2479 62.7316 34.0804C62.6077 33.9105 62.4791 33.7477 62.3415 33.5916C62.2038 33.4355 62.0707 33.3047 61.9352 33.1968V35.0535H60.7349V29.0013L61.9352 28.8086V32.3407L61.9444 32.3361Z" fill="#532F8C"/>
<path d="M69.5439 32.936C69.5439 32.6307 69.5944 32.3415 69.6931 32.0707C69.7918 31.7999 69.9364 31.5635 70.1246 31.3615C70.3128 31.1595 70.54 31.0012 70.8085 30.8818C71.0771 30.7648 71.3823 30.7051 71.7265 30.7051C71.9515 30.7051 72.1581 30.7257 72.3463 30.7648C72.5345 30.8061 72.7158 30.8635 72.8925 30.9369L72.6424 31.8939C72.5299 31.8504 72.4059 31.8136 72.2728 31.7815C72.1397 31.7494 71.9882 31.7333 71.8229 31.7333C71.4695 31.7333 71.2033 31.8435 71.0311 32.0638C70.8567 32.2841 70.7695 32.5733 70.7695 32.9336C70.7695 33.3147 70.8521 33.6108 71.0151 33.8196C71.178 34.0284 71.4649 34.134 71.8734 34.134C72.0181 34.134 72.1741 34.1202 72.3394 34.0927C72.5046 34.0652 72.6584 34.0239 72.7984 33.9641L72.9682 34.9465C72.8282 35.0061 72.6538 35.0566 72.445 35.1002C72.2361 35.1439 72.0043 35.1645 71.7518 35.1645C71.3663 35.1645 71.0334 35.1071 70.7534 34.9923C70.4734 34.8776 70.2439 34.7192 70.0649 34.5218C69.8859 34.3245 69.7528 34.0881 69.6702 33.8173C69.5875 33.5465 69.5462 33.2527 69.5462 32.936H69.5439Z" fill="#532F8C"/>
<path d="M74.9278 30.7097C75.2813 30.7097 75.5773 30.751 75.8137 30.8313C76.0501 30.9117 76.2383 31.0264 76.3806 31.1779C76.5228 31.327 76.6239 31.5107 76.6835 31.7241C76.7432 31.9399 76.7731 32.1786 76.7731 32.4402V34.935C76.6009 34.9717 76.3622 35.0176 76.057 35.0681C75.7517 35.1186 75.3799 35.1439 74.9461 35.1439C74.673 35.1439 74.4252 35.1186 74.2026 35.0704C73.9799 35.0222 73.7871 34.9419 73.6265 34.834C73.4658 34.7239 73.3418 34.5815 73.2569 34.4025C73.1721 34.2258 73.1284 34.0078 73.1284 33.7508C73.1284 33.4936 73.1789 33.294 73.2776 33.1218C73.3763 32.9497 73.5094 32.8143 73.677 32.711C73.8422 32.61 74.0327 32.5343 74.2484 32.4907C74.4619 32.4448 74.6867 32.4218 74.9163 32.4218C75.0723 32.4218 75.2101 32.4287 75.3317 32.4425C75.4533 32.4562 75.5497 32.4723 75.6254 32.4953V32.3828C75.6254 32.1786 75.5635 32.0156 75.4396 31.8917C75.3157 31.7677 75.1022 31.7057 74.7947 31.7057C74.5904 31.7057 74.3884 31.7195 74.191 31.7494C73.9914 31.7792 73.8215 31.8205 73.677 31.8733L73.5231 30.907C73.592 30.8864 73.6792 30.8635 73.7848 30.8382C73.8904 30.813 74.0028 30.7923 74.1267 30.7739C74.2507 30.7556 74.3792 30.7395 74.517 30.7257C74.6547 30.712 74.7923 30.7051 74.9323 30.7051L74.9278 30.7097ZM75.0241 34.2189C75.1413 34.2189 75.2536 34.2166 75.3615 34.2097C75.4694 34.2052 75.5544 34.196 75.6186 34.1845V33.2756C75.5704 33.2641 75.497 33.2549 75.4006 33.2435C75.3041 33.2321 75.2147 33.2274 75.1344 33.2274C75.0219 33.2274 74.9163 33.2343 74.8153 33.2481C74.7166 33.2618 74.6294 33.2871 74.5536 33.3238C74.4779 33.3605 74.4205 33.4134 74.377 33.4776C74.3333 33.5418 74.3127 33.6222 74.3127 33.7186C74.3127 33.9068 74.3747 34.0376 74.5009 34.1087C74.6271 34.1822 74.7992 34.2166 75.0196 34.2166L75.0241 34.2189Z" fill="#532F8C"/>
<path d="M78.9126 34.1891C79.133 34.1891 79.289 34.1684 79.3786 34.1248C79.4703 34.0812 79.5163 33.9986 79.5163 33.8747C79.5163 33.7783 79.4565 33.6934 79.3395 33.6222C79.2225 33.5487 79.0412 33.4684 78.8002 33.3766C78.612 33.3078 78.4421 33.2343 78.2884 33.1586C78.1346 33.0828 78.006 32.9933 77.8982 32.89C77.7903 32.7844 77.7077 32.6605 77.6481 32.516C77.5884 32.3713 77.5585 32.1969 77.5585 31.9926C77.5585 31.5956 77.7054 31.2812 78.0015 31.0517C78.2976 30.8199 78.7015 30.7051 79.2178 30.7051C79.475 30.7051 79.7229 30.7281 79.9592 30.7739C80.1956 30.8199 80.3838 30.8703 80.5238 30.9231L80.315 31.8573C80.175 31.809 80.0235 31.7654 79.8605 31.7287C79.6976 31.692 79.5139 31.6713 79.3097 31.6713C78.9333 31.6713 78.7451 31.7769 78.7451 31.9857C78.7451 32.0339 78.7543 32.0775 78.7703 32.1143C78.7864 32.151 78.8186 32.1878 78.8668 32.2222C78.915 32.2566 78.9815 32.2956 79.0641 32.3347C79.1468 32.376 79.2524 32.4195 79.3831 32.4678C79.6471 32.5641 79.8628 32.6605 80.035 32.7569C80.2071 32.851 80.3425 32.9543 80.4412 33.0644C80.5399 33.1747 80.6111 33.2962 80.65 33.4294C80.6913 33.5625 80.7098 33.7186 80.7098 33.8953C80.7098 34.313 80.5537 34.6297 80.2392 34.8432C79.9248 35.0566 79.4818 35.1645 78.9081 35.1645C78.5316 35.1645 78.2195 35.1323 77.9694 35.0681C77.7192 35.0039 77.5471 34.951 77.4507 34.9074L77.6526 33.9343C77.8569 34.0147 78.0658 34.0789 78.2815 34.1225C78.495 34.1684 78.7084 34.1914 78.9172 34.1914L78.9126 34.1891Z" fill="#532F8C"/>
<path d="M81.4395 35.0535V29.0013L82.6397 28.8086V30.8374C82.7201 30.8099 82.8234 30.7847 82.9496 30.7617C83.0758 30.7364 83.1975 30.725 83.3168 30.725C83.6611 30.725 83.9457 30.7709 84.1752 30.865C84.4024 30.9591 84.5861 31.0922 84.7214 31.2643C84.8592 31.4365 84.9555 31.6407 85.0106 31.8772C85.068 32.1135 85.0955 32.3752 85.0955 32.6666V35.0582H83.8952V32.8135C83.8952 32.4279 83.8447 32.1525 83.746 31.9919C83.6474 31.8312 83.4637 31.7509 83.1952 31.7509C83.0873 31.7509 82.9863 31.76 82.8922 31.7785C82.7981 31.7968 82.7132 31.8174 82.6397 31.8381V35.0582H81.4395V35.0535Z" fill="#532F8C"/>
<path d="M68.9797 33.4176C68.9797 34.315 68.3508 35.0655 67.5085 35.2514C67.3776 35.2812 67.2399 35.2973 67.0999 35.2973C66.9599 35.2973 66.8223 35.2812 66.6914 35.2537C65.8514 35.0677 65.2202 34.3173 65.2202 33.4199C65.2202 32.4536 65.3855 31.5241 65.6907 30.6611L66.8451 31.0032C66.7855 31.1936 66.735 31.3887 66.6914 31.5861C66.5583 32.1759 66.4871 32.791 66.4871 33.4199C66.4871 33.7572 66.7602 34.0304 67.0976 34.0304C67.435 34.0304 67.7104 33.7572 67.7104 33.4199C67.7104 32.7888 67.6393 32.1759 67.5062 31.5861C67.4625 31.3887 67.4098 31.1936 67.3524 31.0032L68.5068 30.6611C68.8121 31.5241 68.9773 32.4514 68.9773 33.4199L68.9797 33.4176Z" fill="#B11A83"/>
<path d="M68.094 28.3105C67.8875 28.0397 67.573 27.8561 67.2149 27.824C67.1783 27.8217 67.1392 27.8193 67.1002 27.8193C67.0612 27.8193 67.0245 27.8194 66.9878 27.824C66.6297 27.8561 66.3153 28.0397 66.1087 28.3105C65.9481 28.5194 65.854 28.781 65.854 29.0657C65.854 29.2859 65.9114 29.4948 66.0123 29.6761C66.2121 30.0319 66.5815 30.282 67.0107 30.3119C67.0405 30.3119 67.0704 30.3141 67.1002 30.3141C67.1301 30.3141 67.1599 30.3141 67.1897 30.3119C67.6189 30.282 67.9884 30.0319 68.1881 29.6761C68.2891 29.4971 68.3465 29.2883 68.3465 29.0657C68.3465 28.781 68.2523 28.5194 68.0917 28.3105H68.094ZM67.3986 29.4351C67.3183 29.5017 67.2149 29.5384 67.1026 29.5384C66.9901 29.5384 66.8868 29.4994 66.8065 29.4351C66.7101 29.3571 66.6458 29.2423 66.6321 29.1138C66.6321 29.0978 66.6321 29.084 66.6321 29.0679C66.6321 28.8063 66.8432 28.5951 67.1048 28.5951C67.3665 28.5951 67.5776 28.8063 67.5776 29.0679C67.5776 29.084 67.5776 29.1001 67.5776 29.1138C67.5639 29.2423 67.4996 29.3571 67.4032 29.4351H67.3986Z" fill="#B11A83"/>
</svg>
