<svg width="124" height="40" viewBox="0 0 124 40" fill="none" xmlns="http://www.w3.org/2000/svg">
<mask id="mask0_298_12008" style="mask-type:luminance" maskUnits="userSpaceOnUse" x="0" y="0" width="123" height="40">
<path d="M122.759 0H0V40H122.759V0Z" fill="white"/>
</mask>
<g mask="url(#mask0_298_12008)">
<path d="M38.4167 19.5514C38.4167 30.0525 29.9037 38.5666 19.4016 38.5666C16.5213 38.5686 13.6782 37.9156 11.0876 36.6567C8.49691 35.3979 6.22651 33.5662 4.44821 31.3004C6.24359 29.1676 8.45086 27.8188 11.5054 28.0716C12.3037 28.1389 13.1163 28.0563 13.9186 28.0848C15.6314 28.148 17.1811 27.622 18.6216 26.7676C21.0206 25.3504 22.6875 23.2411 24.0986 20.8951C24.5063 20.2202 24.4207 19.9562 23.5613 19.9653C20.4262 19.999 17.2911 19.9918 14.1561 19.9806C8.99733 19.9656 5.3865 22.3191 3.32367 27.0408C3.08702 27.5819 2.88974 28.1394 2.73336 28.7087C1.19026 25.9036 0.383492 22.753 0.38845 19.5514C0.38845 9.05028 8.90149 0.534184 19.4027 0.534184C22.5659 0.53196 25.6796 1.31994 28.4609 2.82655C31.2424 4.33316 33.6035 6.51069 35.3296 9.16141C29.2063 9.13694 23.0842 8.90653 16.968 9.24706C11.8928 9.52844 8.35503 14.4395 9.56928 19.6187C10.9762 17.5796 12.8838 17.181 15.0187 17.1942C19.1742 17.2218 23.3288 17.1494 27.4844 17.1565C29.3339 17.1565 31.0018 16.6376 32.48 15.564C34.0563 14.4212 35.5213 13.1468 36.5897 11.486C36.597 11.4767 36.604 11.4655 36.6102 11.4564C37.8038 13.9878 38.4208 16.7526 38.4167 19.5514Z" fill="#7535FD"/>
<path d="M54.2467 10.4336C50.8255 10.4336 48.6588 12.5718 48.6588 16.0784V18.1027H45.8933V20.868H48.6588V32.728H51.8518V20.868H55.4441V18.1027H51.8518V15.993C51.8518 14.2823 52.9637 13.2275 54.5887 13.2275C54.8453 13.2275 55.1589 13.256 55.5011 13.2845V10.5191C55.1305 10.4621 54.7028 10.4336 54.2467 10.4336ZM58.3521 11.631C57.5822 12.4007 57.5822 13.6551 58.3521 14.4534C59.1503 15.2232 60.4047 15.2232 61.203 14.4534C62.0012 13.6551 62.0012 12.4007 61.203 11.631C60.4047 10.8327 59.1503 10.8327 58.3521 11.631ZM61.374 18.1027H58.181V32.728H61.374V18.1027ZM71.8602 17.8461C69.8361 17.8461 68.4106 18.5874 67.5837 20.0413V18.1027H64.5618V32.728H67.7548V24.3748C67.7548 22.3221 69.1233 20.811 71.1475 20.811C73.0861 20.811 74.3405 22.1795 74.3405 24.3462V32.728H77.5621V23.9186C77.5621 22.0655 77.0204 20.583 75.9655 19.4996C74.9107 18.3877 73.5422 17.8461 71.8602 17.8461ZM87.0353 17.8461C84.8685 17.8461 83.101 18.5303 81.7325 19.8702C80.3925 21.2102 79.7083 23.0634 79.7083 25.4296C79.7083 27.7674 80.3925 29.6205 81.761 30.989C83.1294 32.329 84.8971 33.0132 87.0353 33.0132C90.5989 33.0132 93.2219 30.9319 93.7921 27.6248L90.6559 27.3397C90.3423 29.1644 89.0025 30.2477 87.0353 30.2477C84.6405 30.2477 82.9585 28.4231 82.9585 25.4296C82.9585 22.3791 84.6119 20.583 87.0353 20.583C88.9739 20.583 90.3994 21.7519 90.6275 23.662L93.7635 23.377C93.2788 19.9558 90.5989 17.8461 87.0353 17.8461ZM103.114 17.9316C101.033 17.9316 99.6645 18.6728 98.9518 20.1554V18.1027H95.8443V32.728H99.0373V24.7739C99.0373 22.6071 100.634 21.0391 103.114 21.0391V17.9316ZM109.911 17.8461C108.172 17.8461 106.747 18.3592 105.692 19.4141C104.637 20.4404 104.096 21.6379 104.096 23.0063L107.317 23.1204C107.317 21.7234 108.229 20.64 109.94 20.64C111.679 20.64 112.534 21.6663 112.534 23.6906V24.1182L109.056 24.3178C105.493 24.5173 103.696 25.9998 103.696 28.7367C103.696 31.4451 105.607 33.0132 108.571 33.0132C110.083 33.0132 111.422 32.4715 112.534 31.4166V32.728H115.755V23.6335C115.755 19.8988 113.675 17.8461 109.911 17.8461ZM112.563 27.1117C112.563 29.2499 111.251 30.3332 109.113 30.3332C107.659 30.3332 106.918 29.7916 106.918 28.6797C106.918 27.5108 107.773 26.8836 109.512 26.7981L112.563 26.5984V27.1117Z" fill="black"/>
</g>
</svg>
