<svg width="201" height="40" viewBox="0 0 201 40" fill="none" xmlns="http://www.w3.org/2000/svg">
<path d="M57.3855 29.9681V17.201H62.9691V14.3779H57.3228C57.1345 12.1193 58.4207 11.4606 60.8988 11.4606H62.9691V8.95117H61.432C57.0091 8.95117 54.4055 10.9587 54.029 14.3779H51.645V17.201H53.9977V29.9681H57.3855ZM68.239 29.9681V8.95117H64.8512V29.9681H68.239Z" fill="black"/>
<path d="M77.8627 30.2818C81.8779 30.2818 83.9482 27.7722 84.4501 25.1373H84.6384V29.9681H87.7438V14.3779H84.3873V22.0946C84.3873 25.4824 82.7876 27.239 79.337 27.239C76.0433 27.239 74.6945 25.7647 74.6945 22.8474V14.3779H71.338V23.7571C71.338 27.3645 73.4711 30.2818 77.8627 30.2818Z" fill="black"/>
<path d="M94.2097 12.5585V8.95117H90.8213V12.5585H94.2097ZM94.2097 29.9681V14.3779H90.8213V29.9681H94.2097Z" fill="black"/>
<path d="M104.216 30.2817C107.73 30.2817 110.02 28.5879 110.678 25.4824H110.898V29.9681H114.004V8.95117H110.615V18.6127H110.428C109.8 15.9777 107.698 14.0642 103.996 14.0642C99.2604 14.0642 96.5626 17.3265 96.5626 22.1887C96.5626 26.9881 99.2915 30.2817 104.216 30.2817ZM99.9813 22.1887C99.9813 18.4244 101.926 17.1384 105.188 17.1384C108.67 17.1384 110.615 18.7695 110.615 22.0945V22.3455C110.615 25.6079 108.577 27.1762 105.252 27.1762C101.895 27.1762 99.9813 25.9216 99.9813 22.1887Z" fill="black"/>
<path d="M125.009 30.282C129.683 30.282 133.102 27.647 133.102 23.7573V23.4123H129.746V23.6318C129.746 26.0472 127.989 27.2392 124.947 27.2392C121.433 27.2392 119.865 25.5453 119.865 22.1889C119.865 18.7697 121.433 17.1072 124.947 17.1072C127.989 17.1072 129.746 18.2992 129.746 20.7146V20.9028H133.102V20.5891C133.102 16.6994 129.683 14.0645 125.009 14.0645C119.865 14.0645 116.509 17.3268 116.509 22.1889C116.509 26.9883 119.865 30.282 125.009 30.282Z" fill="black"/>
<path d="M143.575 30.282C148.782 30.282 152.264 26.9883 152.264 22.1889C152.264 17.3268 148.782 14.0645 143.575 14.0645C138.399 14.0645 134.917 17.3268 134.917 22.1889C134.917 26.9883 138.399 30.282 143.575 30.282ZM143.575 27.2706C139.811 27.2706 138.243 25.4826 138.243 22.1889C138.243 18.8638 139.811 17.0445 143.575 17.0445C147.371 17.0445 148.939 18.8638 148.939 22.1889C148.939 25.4826 147.371 27.2706 143.575 27.2706Z" fill="black"/>
<path d="M158.11 12.5585V8.95117H154.723V12.5585H158.11ZM158.11 29.9681V14.3779H154.723V29.9681H158.11Z" fill="black"/>
<path d="M164.636 29.9683V22.2517C164.636 18.8638 166.172 17.1072 169.592 17.1072C172.823 17.1072 174.14 18.5815 174.14 21.4988V29.9683H177.528V20.5891C177.528 16.9817 175.395 14.0645 171.066 14.0645C167.114 14.0645 165.044 16.5739 164.572 19.2089H164.353V14.3781H161.248V29.9683H164.636Z" fill="black"/>
<path d="M187.918 30.282C192.31 30.282 195.196 28.5567 195.196 25.6394C195.196 23.0672 193.502 21.8125 189.801 21.342L186.193 20.84C183.84 20.5263 183.213 20.0872 183.213 18.8638C183.213 17.3895 184.217 16.7621 187.071 16.7621C190.522 16.7621 191.463 17.7346 191.463 19.5853V19.7735H194.819V19.6794C194.819 15.9779 191.933 14.0645 187.165 14.0645C182.366 14.0645 179.888 16.0093 179.888 18.7383C179.888 21.342 181.676 22.5967 184.625 22.9731L188.891 23.5377C191.118 23.8514 191.871 24.2592 191.871 25.5453C191.871 26.9255 190.961 27.5529 187.918 27.5529C184.656 27.5529 183.433 26.8941 183.433 24.8552V24.6043H180.044V24.6984C180.044 28.3058 182.9 30.282 187.918 30.282Z" fill="black"/>
<path d="M0.0147705 19.8337C0.0147705 12.338 0.0147705 8.59009 1.70752 5.83979C2.64334 4.31932 3.92295 3.0397 5.44342 2.10389C8.19373 0.411133 11.9753 0.411133 19.5385 0.411133C27.1017 0.411133 30.8833 0.411133 33.6336 2.10389C35.1542 3.0397 36.4337 4.31932 37.3695 5.83978C39.0623 8.59009 39.0624 12.338 39.0624 19.8337C39.0624 27.3295 39.0623 31.0774 37.3695 33.8277C36.4337 35.3482 35.1542 36.6278 33.6336 37.5636C30.8833 39.2564 27.1017 39.2564 19.5385 39.2564C11.9753 39.2564 8.19373 39.2564 5.44342 37.5636C3.92295 36.6278 2.64334 35.3482 1.70752 33.8277C0.0147705 31.0774 0.0147705 27.3295 0.0147705 19.8337Z" fill="#131228"/>
<path fill-rule="evenodd" clip-rule="evenodd" d="M14.5663 14.9658V24.5779C14.5663 27.2213 12.4036 29.384 9.76025 29.384V19.772C9.76025 17.1287 11.9229 14.9658 14.5663 14.9658Z" fill="white"/>
<path fill-rule="evenodd" clip-rule="evenodd" d="M19.3725 10.1592H28.9846C28.9846 12.8025 26.822 14.9652 24.1785 14.9652H14.5664C14.5664 12.3218 16.7291 10.1592 19.3725 10.1592Z" fill="white"/>
<path d="M21.7754 24.5973C23.1137 24.5973 24.1986 23.5124 24.1986 22.1741C24.1986 20.8359 23.1137 19.751 21.7754 19.751C20.4372 19.751 19.3523 20.8359 19.3523 22.1741C19.3523 23.5124 20.4372 24.5973 21.7754 24.5973Z" fill="url(#paint0_linear_298_11954)"/>
<defs>
<linearGradient id="paint0_linear_298_11954" x1="21.7663" y1="26.1867" x2="9.52634" y2="17.5629" gradientUnits="userSpaceOnUse">
<stop stop-color="#A8FF78"/>
<stop offset="1" stop-color="#1FFFBB"/>
</linearGradient>
</defs>
</svg>
