<svg width="197" height="40" viewBox="0 0 197 40" fill="none" xmlns="http://www.w3.org/2000/svg">
<g clip-path="url(#clip0_298_12905)">
<path d="M45.5796 3.61621H49.1551V15.498C50.3133 14.1655 51.7726 13.1101 53.4196 12.4139C55.0279 11.7503 56.7589 11.4124 58.5066 11.4209C60.2101 11.4057 61.8979 11.7362 63.4619 12.3913C64.9631 13.0211 66.3231 13.9291 67.4658 15.0642C69.2309 16.8627 70.4238 19.117 70.9011 21.5568C71.3786 23.9965 71.1204 26.518 70.1576 28.819C68.9109 31.7975 66.5056 34.1802 63.4619 35.4517C61.9294 36.1007 60.2739 36.4312 58.6019 36.4222C56.8223 36.429 55.0609 36.0753 53.4303 35.3838C51.7789 34.6777 50.3191 33.6093 49.1658 32.2628V35.9143H45.5796V3.61621ZM58.3518 14.7599C57.1219 14.7517 55.9043 14.9955 54.7783 15.4754C53.6859 15.9402 52.6981 16.6079 51.8703 17.441C51.0346 18.287 50.3646 19.2735 49.8928 20.3523C49.3968 21.4773 49.1456 22.6897 49.1551 23.9133C49.1388 26.3305 50.1061 28.6562 51.8469 30.3857C52.6948 31.222 53.6971 31.8965 54.8016 32.3738C55.9309 32.8568 57.1511 33.108 58.3854 33.112C59.6196 33.1158 60.8414 32.8723 61.9741 32.3965C63.0571 31.9387 64.0373 31.2792 64.8588 30.4555C65.6819 29.6172 66.3361 28.6367 66.7876 27.5648C67.2703 26.437 67.5153 25.2268 67.5081 24.0058C67.5171 21.58 66.5604 19.2445 64.8376 17.4862C64.0071 16.6512 63.0211 15.9766 61.9318 15.498C60.8076 15.0035 59.5861 14.7517 58.3518 14.7599Z" fill="#0A1429"/>
<path d="M85.4702 15.2423C84.2744 15.2275 83.0887 15.4565 81.9899 15.9146C80.9641 16.346 80.0396 16.9757 79.2727 17.765C78.4994 18.5698 77.8929 19.5115 77.4861 20.5387C77.0559 21.6227 76.8402 22.7757 76.8501 23.9372V36.002H73.2681V12.0061H76.8437V15.6596C79.0989 13.0403 81.7336 11.7285 85.4491 11.7285L85.4702 15.2423Z" fill="#0A1429"/>
<path d="M89.4269 3.43902C89.7147 3.43902 89.9997 3.49402 90.2656 3.60085C90.5314 3.70769 90.7731 3.86429 90.9766 4.0617C91.1801 4.2591 91.3416 4.49347 91.4516 4.7514C91.5617 5.00934 91.6184 5.28577 91.6184 5.56495C91.6184 5.84414 91.5617 6.12059 91.4516 6.37852C91.3416 6.63645 91.1801 6.8708 90.9766 7.06822C90.7731 7.26564 90.5314 7.42222 90.2656 7.52907C89.9997 7.6359 89.7147 7.69089 89.4269 7.69089C89.1397 7.7018 88.8532 7.65399 88.5864 7.55055C88.3194 7.44714 88.0779 7.29039 87.8776 7.09054C87.4937 6.66955 87.2817 6.12695 87.2817 5.56495C87.2817 5.00295 87.4937 4.46035 87.8776 4.03939C88.0779 3.83952 88.3194 3.68279 88.5864 3.57935C88.8532 3.47592 89.1397 3.42812 89.4269 3.43902ZM91.2476 11.9448V35.986H87.6634V11.9448H91.2476Z" fill="#0A1429"/>
<path d="M132.176 21.1968V36.0003H128.649V21.6595C128.649 19.5335 128.141 17.877 127.125 16.69C126.109 15.5031 124.696 14.9096 122.886 14.9096C121.912 14.9073 120.947 15.0961 120.05 15.4647C118.27 16.1816 116.838 17.5292 116.046 19.2333C115.648 20.082 115.445 21.0047 115.45 21.937V35.992H111.921V21.4745C111.933 20.5668 111.79 19.6637 111.498 18.8017C111.236 18.0448 110.823 17.346 110.281 16.7455C109.751 16.1721 109.1 15.7151 108.373 15.4051C107.6 15.0768 106.763 14.9115 105.919 14.9198C104.957 14.9151 104.006 15.1122 103.13 15.4976C102.266 15.8767 101.488 16.4191 100.843 17.093C100.188 17.78 99.6664 18.5752 99.3017 19.441C98.9171 20.3502 98.7226 21.3243 98.7294 22.3072V35.992H95.1919V11.9509H98.7189V14.817C100.626 12.5979 103.121 11.4883 106.203 11.4883C108.013 11.4883 109.567 11.881 110.866 12.6664C112.164 13.4518 113.276 14.6772 114.202 16.3426C115.091 14.8663 116.343 13.6272 117.848 12.7363C119.328 11.8951 121.018 11.4634 122.733 11.4883C124.033 11.4754 125.323 11.7196 126.523 12.2059C127.648 12.6639 128.66 13.3494 129.49 14.2167C130.338 15.1147 131.001 16.1615 131.444 17.3007C131.937 18.5438 132.185 19.8653 132.176 21.1968Z" fill="#0A1429"/>
<path d="M135.56 3.61621H139.134V15.498C140.292 14.1654 141.753 13.1101 143.4 12.414C145.005 11.7553 146.732 11.4209 148.474 11.4312C150.179 11.4159 151.867 11.7465 153.432 12.4016C154.933 13.0314 156.293 13.9393 157.436 15.0745C159.201 16.873 160.394 19.1273 160.871 21.567C161.349 24.0068 161.09 26.5283 160.128 28.8293C158.881 31.8078 156.476 34.1905 153.432 35.462C151.899 36.1108 150.243 36.4415 148.57 36.4325C146.791 36.439 145.03 36.0855 143.4 35.3942C141.748 34.6883 140.288 33.6198 139.134 32.2732V35.9247H135.56V3.61621ZM148.332 14.7599C147.102 14.7517 145.883 14.9955 144.757 15.4754C143.665 15.9407 142.678 16.6084 141.851 17.441C141.015 18.287 140.345 19.2735 139.873 20.3523C139.377 21.4772 139.125 22.6895 139.134 23.9133C139.117 26.331 140.085 28.6572 141.828 30.3857C142.675 31.222 143.678 31.8965 144.782 32.3738C145.912 32.8568 147.132 33.1082 148.366 33.112C149.6 33.1158 150.822 32.8723 151.955 32.3965C153.037 31.9387 154.016 31.2792 154.837 30.4557C155.661 29.6173 156.316 28.6368 156.768 27.5648C157.249 26.4367 157.492 25.2265 157.482 24.0058C157.493 21.58 156.537 19.244 154.814 17.4862C153.983 16.6507 152.996 15.976 151.906 15.498C150.784 15.0041 149.565 14.7522 148.332 14.7599Z" fill="#0A1429"/>
<path d="M167.443 3.54199V35.9492H163.867V3.54199H167.443Z" fill="#0A1429"/>
<path d="M190.227 29.4318L192.61 31.7428C191.522 33.2278 190.063 34.4207 188.37 35.2093C186.588 36.0495 184.63 36.4768 182.648 36.4573C180.943 36.4665 179.257 36.1363 177.69 35.4868C175.362 34.5297 173.377 32.9258 171.987 30.877C170.595 28.8283 169.86 26.4262 169.873 23.9732C169.862 22.3032 170.21 20.6495 170.9 19.1188C171.555 17.6458 172.488 16.3054 173.655 15.1672C174.823 14.0386 176.205 13.137 177.722 12.5108C179.28 11.8601 180.96 11.5297 182.657 11.5403C184.448 11.5282 186.222 11.889 187.858 12.5983C189.493 13.3077 190.953 14.3491 192.138 15.6524C193.308 16.9613 194.193 18.4868 194.738 20.1367C195.328 21.9105 195.545 23.7817 195.373 25.6385H173.733C173.887 26.6772 174.233 27.6802 174.755 28.5992C175.263 29.5065 175.942 30.3138 176.755 30.98C177.568 31.6428 178.485 32.1733 179.473 32.5508C180.485 32.9393 181.563 33.1355 182.652 33.1287C184.178 33.1412 185.685 32.8007 187.048 32.1355C188.338 31.5278 189.437 30.5938 190.227 29.4318ZM173.642 22.3118H191.712C191.532 21.2662 191.152 20.2625 190.59 19.3532C190.038 18.4655 189.343 17.6692 188.532 16.995C187.728 16.3204 186.81 15.788 185.817 15.4221C184.803 15.0509 183.73 14.8635 182.648 14.869C180.548 14.8676 178.517 15.5971 176.925 16.925C175.255 18.327 174.102 20.2178 173.638 22.3118H173.642Z" fill="#0A1429"/>
<path d="M23.1298 15.5765H14.9123C14.7718 15.5765 14.637 15.5223 14.5377 15.4259C14.4383 15.3295 14.3825 15.1988 14.3825 15.0625C14.3825 14.9261 14.4383 14.7954 14.5377 14.699C14.637 14.6026 14.7718 14.5485 14.9123 14.5485H19.4333C21.4222 14.5485 23.3295 13.7821 24.7358 12.4179C26.1422 11.0537 26.9322 9.20347 26.9322 7.27422C26.9322 5.34498 26.1422 3.49475 24.7358 2.13057C23.3295 0.76639 21.4222 0 19.4333 0H10.9934V6.8589C9.38105 7.58462 8.01612 8.74217 7.05932 10.1952C6.10252 11.6482 5.5937 13.3362 5.59278 15.0604C5.59052 15.864 5.70032 16.6642 5.9192 17.4392C3.60048 18.8435 1.81625 20.9422 0.836327 23.4175C-0.143591 25.893 -0.265892 28.6107 0.487922 31.1595C1.24174 33.7083 2.83067 35.9498 5.0144 37.5448C7.19813 39.1398 9.8579 40.0017 12.5915 40H23.1298C26.4688 40 29.6712 38.7133 32.0322 36.423C34.3933 34.1327 35.7198 31.0262 35.7198 27.7872C35.7198 24.5482 34.3933 21.4418 32.0322 19.1515C29.6712 16.8612 26.4688 15.5765 23.1298 15.5765ZM23.1298 37.1647H12.5915C10.2709 37.1662 8.02743 36.3572 6.27138 34.8855C4.51533 33.414 3.36412 31.3785 3.02835 29.1512C2.69258 26.9238 3.19468 24.6537 4.44283 22.756C5.69097 20.8583 7.6017 19.46 9.82548 18.8168C9.10572 17.898 8.66482 16.8025 8.55247 15.6536C8.44013 14.5048 8.66082 13.3484 9.18965 12.3148C9.71848 11.2811 10.5344 10.4113 11.5455 9.80328C12.5567 9.19532 13.7227 8.8734 14.9123 8.87382H19.4333C19.8678 8.87382 20.2845 8.70637 20.5918 8.40832C20.8992 8.11027 21.0717 7.70602 21.0717 7.2845C21.0717 6.86298 20.8992 6.45875 20.5918 6.1607C20.2845 5.86263 19.8678 5.6952 19.4333 5.6952H13.9225V2.84348H19.4333C20.0415 2.83078 20.6463 2.93602 21.212 3.15302C21.7778 3.37003 22.2932 3.69443 22.728 4.10722C23.1628 4.52 23.5083 5.01285 23.7442 5.55687C23.98 6.10088 24.1013 6.6851 24.1013 7.27525C24.1013 7.8654 23.98 8.44962 23.7442 8.99363C23.5083 9.53765 23.1628 10.0305 22.728 10.4433C22.2932 10.8561 21.7778 11.1805 21.212 11.3975C20.6463 11.6145 20.0415 11.7197 19.4333 11.707H14.9123C14.451 11.6959 13.9921 11.7745 13.5626 11.9381C13.133 12.1017 12.7416 12.347 12.4113 12.6596C12.0809 12.9722 11.8184 13.3457 11.6392 13.7582C11.46 14.1707 11.3677 14.6138 11.3677 15.0614C11.3677 15.5091 11.46 15.9522 11.6392 16.3647C11.8184 16.7772 12.0809 17.1507 12.4113 17.4633C12.7416 17.7758 13.133 18.0212 13.5626 18.1847C13.9921 18.3483 14.451 18.4268 14.9123 18.4158H23.1298C25.6668 18.4523 28.0873 19.4555 29.8683 21.2088C31.6492 22.9622 32.6475 25.3248 32.6475 27.7862C32.6475 30.2475 31.6492 32.6102 29.8683 34.3635C28.0873 36.1168 25.6668 37.12 23.1298 37.1565V37.1647ZM23.1298 21.2675H12.5915C11.6978 21.2522 10.81 21.4097 9.97975 21.7307C9.14953 22.0518 8.39357 22.5302 7.75598 23.1377C7.1184 23.7453 6.61198 24.47 6.26628 25.2695C5.92058 26.069 5.74255 26.9273 5.74255 27.7943C5.74255 28.6613 5.92058 29.5197 6.26628 30.3192C6.61198 31.1188 7.1184 31.8435 7.75598 32.4512C8.39357 33.0587 9.14953 33.537 9.97975 33.8582C10.81 34.1792 11.6978 34.3367 12.5915 34.3213H23.1298C24.0233 34.3367 24.9112 34.1792 25.7415 33.8582C26.5717 33.537 27.3277 33.0587 27.9653 32.4512C28.6028 31.8435 29.1093 31.1188 29.455 30.3192C29.8007 29.5197 29.9787 28.6613 29.9787 27.7943C29.9787 26.9273 29.8007 26.069 29.455 25.2695C29.1093 24.47 28.6028 23.7453 27.9653 23.1377C27.3277 22.5302 26.5717 22.0518 25.7415 21.7307C24.9112 21.4097 24.0233 21.2522 23.1298 21.2675ZM23.1298 31.4798H12.5915C11.5841 31.4798 10.618 31.0917 9.90573 30.4007C9.19343 29.7097 8.79328 28.7727 8.79328 27.7955C8.79328 26.8183 9.19343 25.8812 9.90573 25.1902C10.618 24.4992 11.5841 24.111 12.5915 24.111H23.1298C24.1372 24.111 25.1032 24.4992 25.8155 25.1902C26.5278 25.8812 26.928 26.8183 26.928 27.7955C26.928 28.7727 26.5278 29.7097 25.8155 30.4007C25.1032 31.0917 24.1372 31.4798 23.1298 31.4798Z" fill="#3366CC"/>
</g>
<defs>
<clipPath id="clip0_298_12905">
<rect width="196.667" height="40" fill="white"/>
</clipPath>
</defs>
</svg>
