<svg width="189" height="40" viewBox="0 0 189 40" fill="none" xmlns="http://www.w3.org/2000/svg">
<g clip-path="url(#clip0_298_12406)">
<mask id="mask0_298_12406" style="mask-type:luminance" maskUnits="userSpaceOnUse" x="0" y="0" width="189" height="40">
<path d="M188.75 0H0V40H188.75V0Z" fill="white"/>
</mask>
<g mask="url(#mask0_298_12406)">
<path d="M24.9712 0H35.8572L45.5879 17.0222L40.8781 20.0445L45.6324 22.8889L35.8127 40H24.9712V31.9555H31.2362L35.7239 24.1334H24.9712V16.0445L35.7683 16.1777L31.3251 8.22224H24.9712V0H35.1907C35.4128 0 35.5906 0.0444445 35.7683 0.177777C35.9461 0.266666 36.0793 0.444445 36.2127 0.622222L45.6324 17.0666" fill="#343434"/>
<path d="M22.7495 0V8.22224H16.3957L11.9968 16.1334H22.794V24.1334H3.02143L0.399902 20L11.908 0" fill="#23AADD"/>
<path d="M11.9524 40L3.02148 24.0889H11.9524L16.7068 32.0445L22.7496 32.0889V40H11.9524Z" fill="url(#paint0_linear_298_12406)"/>
<path d="M61.3612 21.3331C61.3612 23.9108 62.5609 25.1997 64.9602 25.1997C66.2489 25.1997 67.2264 24.6663 67.8929 23.6441H73.6246C72.4694 27.5108 69.5814 29.4219 64.9159 29.4219C63.494 29.4219 62.2054 29.1997 61.0057 28.7997C59.8061 28.3552 58.8285 27.7774 57.9842 26.9774C57.1401 26.1774 56.4736 25.2441 56.0292 24.1331C55.5849 23.0219 55.3184 21.8219 55.3184 20.4441C55.3184 19.0219 55.5405 17.7774 55.9849 16.6663C56.4292 15.5552 57.0512 14.5774 57.851 13.7774C58.6509 12.9774 59.6284 12.3997 60.7836 11.9552C61.9389 11.5108 63.2274 11.333 64.6936 11.333C66.1155 11.333 67.404 11.5552 68.5594 11.9552C69.7145 12.3997 70.6476 13.0219 71.4475 13.8219C72.2472 14.6219 72.8249 15.6441 73.2692 16.7997C73.6691 17.9552 73.8912 19.2886 73.8912 20.7552V21.3331H61.3612ZM68.3371 17.8663C68.1595 17.0219 67.7151 16.3552 67.1375 15.8663C66.5154 15.3774 65.7601 15.1108 64.9159 15.1108C63.9827 15.1108 63.2274 15.3331 62.6497 15.8219C62.0721 16.3108 61.7166 16.9774 61.539 17.8663H68.3371Z" fill="#343434"/>
<path d="M77.8462 3.95508H87.4441C89.7098 3.95508 91.4422 4.48842 92.6418 5.59952C93.8416 6.71063 94.4198 8.2662 94.4198 10.3106C94.4198 11.5551 94.1974 12.5773 93.7527 13.4217C93.3088 14.2217 92.5978 14.9328 91.7093 15.5106C92.6418 15.6884 93.3977 15.9551 94.0638 16.3106C94.7308 16.6662 95.2196 17.1106 95.6194 17.6439C96.0193 18.1773 96.3304 18.7551 96.5079 19.4217C96.6856 20.0884 96.7743 20.7994 96.7743 21.5106C96.7743 22.6662 96.5519 23.6883 96.1521 24.6217C95.7522 25.5106 95.1748 26.2662 94.4637 26.8883C93.7087 27.5106 92.8202 27.9551 91.7981 28.2662C90.7319 28.5773 89.5762 28.7106 88.2438 28.7106H77.8906V3.95508H77.8462ZM84.2888 13.6883H85.4886C87.4879 13.6883 88.5101 12.8883 88.5101 11.2884C88.5101 9.68837 87.4879 8.88837 85.4886 8.88837H84.2888V13.6883ZM84.2888 23.7773H85.7108C87.3104 23.7773 88.5101 23.5551 89.1763 23.1551C89.8873 22.7551 90.2433 22.0883 90.2433 21.1551C90.2433 20.2217 89.8873 19.5551 89.1763 19.1551C88.4653 18.7551 87.3104 18.5328 85.7108 18.5328H84.2888V23.7773Z" fill="#343434"/>
<path d="M113.036 11.9113H119.035V28.7557H113.036V26.8891C111.748 28.4891 110.059 29.2891 107.882 29.2891C106.638 29.2891 105.527 29.0668 104.506 28.6224C103.484 28.1779 102.595 27.5557 101.795 26.7113C100.995 25.8668 100.418 24.9334 100.018 23.8668C99.5735 22.7557 99.396 21.5557 99.396 20.2668C99.396 19.0668 99.6182 17.9113 100.018 16.8446C100.418 15.7779 100.995 14.8002 101.75 14.0002C102.506 13.2002 103.395 12.5334 104.417 12.0891C105.438 11.6002 106.594 11.3779 107.838 11.3779C109.927 11.3779 111.704 12.1335 113.081 13.6002V11.9113H113.036ZM105.528 20.2668C105.528 20.8002 105.617 21.3334 105.838 21.7779C106.017 22.2668 106.283 22.6668 106.638 23.0223C106.994 23.3779 107.394 23.6446 107.838 23.8223C108.327 24.0002 108.816 24.1334 109.348 24.1334C109.882 24.1334 110.371 24.0446 110.859 23.8223C111.348 23.6446 111.748 23.3334 112.059 23.0223C112.415 22.6668 112.681 22.2668 112.859 21.8223C113.036 21.3779 113.17 20.8891 113.17 20.3557C113.17 19.8223 113.081 19.3334 112.859 18.8446C112.636 18.3557 112.37 17.9557 112.059 17.6002C111.704 17.2446 111.304 16.9779 110.859 16.8002C110.415 16.6223 109.882 16.4891 109.348 16.4891C108.816 16.4891 108.282 16.5779 107.838 16.8002C107.349 16.9779 106.949 17.2891 106.638 17.6002C106.283 17.9557 106.017 18.3557 105.838 18.8002C105.661 19.2446 105.528 19.7334 105.528 20.2668Z" fill="#343434"/>
<path d="M123.079 11.9112H129.032V14.0446C129.832 13.0668 130.676 12.4002 131.476 12.0446C132.321 11.689 133.299 11.5557 134.409 11.5557C135.609 11.5557 136.586 11.7334 137.431 12.1334C138.275 12.5334 138.985 13.0668 139.562 13.7779C140.051 14.3557 140.362 14.9779 140.54 15.6891C140.719 16.4002 140.807 17.2002 140.807 18.0891V28.8002H134.852V20.2668C134.852 19.4223 134.809 18.7557 134.675 18.2668C134.542 17.7334 134.32 17.3334 134.054 17.0223C133.787 16.7557 133.476 16.5779 133.165 16.4446C132.854 16.3557 132.499 16.2668 132.099 16.2668C131.076 16.2668 130.321 16.5779 129.787 17.1557C129.255 17.7779 128.989 18.6223 128.989 19.7334V28.7557H123.079V11.9112Z" fill="#343434"/>
<path d="M157.869 37.1552V27.1108C156.493 28.5774 154.759 29.2886 152.626 29.2886C151.426 29.2886 150.316 29.0663 149.294 28.5774C148.273 28.1329 147.384 27.4663 146.628 26.6663C145.873 25.8663 145.295 24.8886 144.85 23.8219C144.406 22.7552 144.229 21.5997 144.229 20.3552C144.229 19.0663 144.45 17.9108 144.895 16.7997C145.339 15.6886 145.918 14.7552 146.718 13.9552C147.473 13.1552 148.361 12.4886 149.426 12.0441C150.494 11.5997 151.56 11.333 152.76 11.333C154.936 11.333 156.67 12.133 157.914 13.7331V11.8664H163.913V37.1552H157.869ZM150.405 20.2663C150.405 20.7997 150.494 21.3329 150.716 21.7774C150.894 22.2663 151.16 22.6663 151.516 23.0219C151.871 23.3774 152.271 23.6441 152.715 23.8219C153.204 23.9997 153.693 24.1329 154.225 24.1329C154.759 24.1329 155.248 24.0441 155.736 23.8219C156.225 23.6441 156.625 23.3329 156.936 23.0219C157.293 22.6663 157.559 22.2663 157.736 21.7774C157.958 21.2886 158.048 20.7997 158.048 20.2663C158.048 19.7329 157.958 19.2441 157.736 18.7997C157.514 18.3552 157.248 17.9552 156.936 17.5997C156.581 17.2441 156.181 16.9774 155.736 16.7997C155.248 16.6219 154.759 16.4886 154.225 16.4886C153.693 16.4886 153.204 16.5774 152.715 16.7997C152.226 16.9774 151.826 17.2886 151.516 17.5997C151.16 17.9552 150.894 18.3552 150.716 18.7997C150.538 19.2441 150.405 19.7329 150.405 20.2663Z" fill="#343434"/>
<path d="M167.245 20.178C167.245 18.9335 167.511 17.778 168 16.6669C168.489 15.6002 169.2 14.6225 170.089 13.8225C170.977 13.0225 172.044 12.4002 173.287 11.9113C174.531 11.4669 175.865 11.2002 177.331 11.2002C178.797 11.2002 180.13 11.4224 181.374 11.8669C182.619 12.3113 183.685 12.9335 184.574 13.7335C185.462 14.5335 186.172 15.4669 186.706 16.578C187.195 17.6891 187.461 18.8891 187.461 20.2225C187.461 21.5557 187.195 22.8002 186.706 23.8669C186.172 24.978 185.506 25.9114 184.574 26.7114C183.685 27.5114 182.619 28.1335 181.33 28.578C180.086 29.0225 178.709 29.2446 177.241 29.2446C175.776 29.2446 174.442 29.0225 173.242 28.578C171.999 28.1335 170.977 27.5114 170.089 26.7114C169.2 25.9114 168.489 24.9336 168 23.8225C167.511 22.8002 167.245 21.5557 167.245 20.178ZM173.51 20.2669C173.51 20.8446 173.599 21.378 173.821 21.8225C174.042 22.3114 174.31 22.7114 174.621 23.0669C174.976 23.4225 175.376 23.6891 175.82 23.8669C176.309 24.0446 176.797 24.178 177.331 24.178C177.864 24.178 178.352 24.0891 178.841 23.8669C179.33 23.6891 179.73 23.378 180.041 23.0669C180.397 22.7114 180.664 22.3114 180.841 21.8225C181.064 21.3335 181.152 20.8446 181.152 20.3114C181.152 19.778 181.064 19.2891 180.841 18.8002C180.619 18.3114 180.352 17.9114 180.041 17.5557C179.686 17.2002 179.286 16.9335 178.841 16.7557C178.352 16.578 177.864 16.4446 177.331 16.4446C176.797 16.4446 176.309 16.5335 175.82 16.7557C175.331 16.9335 174.931 17.2446 174.621 17.5557C174.265 17.9114 173.999 18.3114 173.821 18.7557C173.642 19.2446 173.51 19.7335 173.51 20.2669Z" fill="#343434"/>
</g>
</g>
<defs>
<linearGradient id="paint0_linear_298_12406" x1="15.2251" y1="41.3281" x2="11.9105" y2="22.5391" gradientUnits="userSpaceOnUse">
<stop stop-color="#23AADD"/>
<stop offset="1" stop-color="#003358"/>
</linearGradient>
<clipPath id="clip0_298_12406">
<rect width="188.75" height="40" fill="white"/>
</clipPath>
</defs>
</svg>
