<svg width="214" height="40" viewBox="0 0 214 40" fill="none" xmlns="http://www.w3.org/2000/svg">
<g clip-path="url(#clip0_298_12661)">
<path d="M11.2128 30.0892L11.1723 30.1287C7.85303 30.1287 5.15439 29.1679 3.07644 27.2463C1.02548 25.3246 0 22.8632 0 19.8622C0 16.835 1.03897 14.3736 3.11692 12.4782C5.19487 10.5565 7.88001 9.5957 11.1723 9.5957C13.79 9.5957 16.0164 10.2143 17.8515 11.4516C19.7135 12.6888 20.9413 14.3604 21.5351 16.4664H16.1108C15.6521 15.6503 14.9909 15.0054 14.1273 14.5315C13.2638 14.0314 12.2788 13.7812 11.1723 13.7812C9.44521 13.7812 8.01495 14.3472 6.88152 15.4792C5.77508 16.6111 5.22185 18.059 5.22185 19.8227C5.22185 21.5864 5.77508 23.0343 6.88152 24.1663C8.01495 25.2982 9.4722 25.8642 11.2533 25.8642C13.0614 25.8642 14.4916 25.2851 15.5441 24.1268C16.6236 22.9422 17.0688 21.4286 16.88 19.5858H22.1423C22.3312 22.6922 21.4001 25.2192 19.3492 27.1672C17.2983 29.1152 14.5861 30.0892 11.2128 30.0892Z" fill="black"/>
<path d="M36.2368 30.0887C32.9444 30.0887 30.2457 29.1279 28.1408 27.2062C26.0359 25.2846 24.9835 22.8232 24.9835 19.8222C24.9835 16.8212 26.0359 14.3599 28.1408 12.4382C30.2457 10.5165 32.9444 9.55566 36.2368 9.55566C39.5021 9.55566 42.1872 10.5165 44.2921 12.4382C46.3971 14.3599 47.4496 16.8212 47.4496 19.8222C47.4496 22.8232 46.3971 25.2846 44.2921 27.2062C42.1872 29.1279 39.5021 30.0887 36.2368 30.0887ZM31.8245 24.2052C32.9849 25.3372 34.4556 25.9031 36.2368 25.9031C38.0179 25.9031 39.4885 25.3372 40.6491 24.2052C41.8095 23.047 42.3896 21.5859 42.3896 19.8222C42.3896 18.0584 41.8095 16.6106 40.6491 15.4787C39.4885 14.3204 38.0179 13.7412 36.2368 13.7412C34.4556 13.7412 32.9849 14.3204 31.8245 15.4787C30.6911 16.6106 30.1244 18.0584 30.1244 19.8222C30.1244 21.5859 30.6911 23.047 31.8245 24.2052Z" fill="black"/>
<path d="M56.966 5.84403C56.2375 6.47581 55.3199 6.79171 54.2135 6.79171C53.1069 6.79171 52.176 6.47581 51.4204 5.84403C50.6917 5.18592 50.3273 4.36985 50.3273 3.39585C50.3273 2.42185 50.6917 1.61896 51.4204 0.987165C52.176 0.329055 53.1069 0 54.2135 0C55.3199 0 56.2375 0.329055 56.966 0.987165C57.7216 1.61896 58.0995 2.42185 58.0995 3.39585C58.0995 4.36985 57.7216 5.18592 56.966 5.84403ZM51.6632 29.694V9.95064H56.7232V29.694H51.6632Z" fill="black"/>
<path d="M74.2252 9.55566H74.1847C76.5325 9.55566 78.3945 10.2664 79.7708 11.6879C81.1472 13.1095 81.8353 15.0575 81.8353 17.532V29.6939H76.6944V18.4402C76.6944 16.9923 76.3031 15.8604 75.5205 15.0443C74.7379 14.2283 73.6449 13.8203 72.2417 13.8203C70.6765 13.8203 69.4351 14.3204 68.5176 15.3207C67.6 16.3211 67.1412 17.6899 67.1412 19.4274V29.7334H62.0813V9.99002H67.1412V13.8598H67.1817C68.4231 10.9903 70.7709 9.55566 74.2252 9.55566Z" fill="black"/>
<path d="M99.3857 9.55566V9.63464C102.219 9.63464 104.581 10.6086 106.47 12.5567C108.386 14.5047 109.344 16.9528 109.344 19.9012C109.344 22.8232 108.386 25.2582 106.47 27.2062C104.581 29.1542 102.219 30.1282 99.3857 30.1282C97.7125 30.1282 96.2283 29.7596 94.9329 29.0226C93.6647 28.2592 92.6931 27.1931 92.0184 25.8242H91.9375V39.9999H86.8776V9.99002H91.9375V13.8992H92.0184C92.6931 12.5303 93.6647 11.4642 94.9329 10.7008C96.2283 9.93737 97.7125 9.55566 99.3857 9.55566ZM97.9284 25.9427V25.9822C99.7365 25.9822 101.221 25.4162 102.381 24.2842C103.542 23.1523 104.122 21.7044 104.122 19.9407C104.122 18.2032 103.542 16.7686 102.381 15.6366C101.221 14.5047 99.7365 13.9387 97.9284 13.9387C96.1204 13.9387 94.6361 14.5047 93.4757 15.6366C92.3153 16.7686 91.7351 18.2032 91.7351 19.9407C91.7351 21.678 92.3153 23.1127 93.4757 24.2447C94.6361 25.3767 96.1204 25.9427 97.9284 25.9427Z" fill="black"/>
<path d="M125.053 9.55608L125.013 9.5166C125.364 9.5166 125.62 9.52976 125.782 9.55608V14.4524H124.77C120.479 14.4524 118.334 16.9927 118.334 22.0734V29.6943H113.274V9.95095H118.131V15.7555H118.172C119.197 11.6225 121.491 9.55608 125.053 9.55608Z" fill="black"/>
<path d="M138.78 30.0887C135.487 30.0887 132.789 29.1279 130.684 27.2062C128.579 25.2846 127.526 22.8232 127.526 19.8222C127.526 16.8212 128.579 14.3599 130.684 12.4382C132.789 10.5165 135.487 9.55566 138.78 9.55566C142.045 9.55566 144.731 10.5165 146.835 12.4382C148.94 14.3599 149.992 16.8212 149.992 19.8222C149.992 22.8232 148.94 25.2846 146.835 27.2062C144.731 29.1279 142.045 30.0887 138.78 30.0887ZM134.367 24.2052C135.528 25.3372 136.999 25.9031 138.78 25.9031C140.56 25.9031 142.032 25.3372 143.192 24.2052C144.352 23.047 144.932 21.5859 144.932 19.8222C144.932 18.0584 144.352 16.6106 143.192 15.4787C142.032 14.3204 140.56 13.7412 138.78 13.7412C136.999 13.7412 135.528 14.3204 134.367 15.4787C133.234 16.6106 132.667 18.0584 132.667 19.8222C132.667 21.5859 133.234 23.047 134.367 24.2052Z" fill="black"/>
<path d="M164.74 5.17263H164.659C163.148 5.17263 162.123 5.48853 161.583 6.12032C161.043 6.75211 160.773 7.59448 160.773 8.64745V9.95052H167.209V14.0571H160.773V29.6939H155.795V14.0571H152.071V9.95052H155.795V8.33157C155.795 5.98869 156.496 4.15915 157.899 2.84292C159.329 1.50037 161.313 0.829102 163.849 0.829102C165.064 0.829102 166.197 0.973886 167.249 1.26345V5.48853C166.332 5.27793 165.496 5.17263 164.74 5.17263Z" fill="black"/>
<path d="M176.269 5.84403C175.541 6.47581 174.624 6.79171 173.517 6.79171C172.411 6.79171 171.48 6.47581 170.724 5.84403C169.996 5.18592 169.631 4.36985 169.631 3.39585C169.631 2.42185 169.996 1.61896 170.724 0.987165C171.48 0.329055 172.411 0 173.517 0C174.624 0 175.541 0.329055 176.269 0.987165C177.025 1.61896 177.403 2.42185 177.403 3.39585C177.403 4.36985 177.025 5.18592 176.269 5.84403ZM170.967 29.694V9.95064H176.027V29.694H170.967Z" fill="black"/>
<path d="M181.673 29.6941V1.26367H186.733V29.6941H181.673Z" fill="black"/>
<path d="M207.491 21.56H212.632C212.469 24.0872 211.391 26.1404 209.393 27.7199C207.423 29.2731 204.968 30.0496 202.025 30.0496C198.76 30.0496 196.089 29.0888 194.011 27.1671C191.96 25.2191 190.935 22.7315 190.935 19.7042C190.935 16.7295 191.947 14.2944 193.971 12.3991C196.021 10.4774 198.652 9.5166 201.864 9.5166C205.076 9.5166 207.625 10.4379 209.515 12.2807C211.431 14.1234 212.335 16.5847 212.227 19.6647H195.832C195.86 21.5863 196.427 23.1131 197.533 24.2451C198.639 25.3507 200.096 25.9035 201.904 25.9035C203.443 25.9035 204.724 25.5087 205.751 24.719C206.803 23.903 207.383 22.8499 207.491 21.56ZM201.783 13.1889C199.273 13.1889 197.519 14.176 196.521 16.1503H206.843C206.007 14.176 204.32 13.1889 201.783 13.1889Z" fill="black"/>
</g>
<defs>
<clipPath id="clip0_298_12661">
<rect width="213.333" height="40" fill="white"/>
</clipPath>
</defs>
</svg>
