<svg width="171" height="40" viewBox="0 0 171 40" fill="none" xmlns="http://www.w3.org/2000/svg">
<g clip-path="url(#clip0_291_3522)">
<path d="M30.5056 14.6701V11.8252L51.8937 2.02228V5.79263L30.5056 14.6701ZM7.91774 18.2348V20.2228L41.0968 3.5647V0L7.91774 18.2348ZM0 27.2836L18.3033 19.7087V17.4122L0 25.7755V27.2836Z" fill="#FF6441"/>
<path d="M140.223 16.8294L135.801 26.9408H138.372L139.332 24.7471H144.439L145.398 26.9408H148.106L143.719 16.8294H140.223ZM140.188 22.7934L141.902 18.8859L143.616 22.7934H140.188ZM107.352 26.9408H109.306L112.014 21.251V26.9408H114.447V16.8294H111.568L108.346 24.1644L105.124 16.8294H102.142V26.9408H104.576V21.251L107.352 26.9408ZM50.1114 26.9408H52.0651L54.7729 21.251V26.9408H57.2065V16.8294H54.3273L51.1054 24.1644L47.8834 16.8294H44.9014V26.9408H47.335V21.251L50.1114 26.9408ZM87.0265 16.8294V18.9202H80V20.9767H85.8612V22.999H80V24.8842H86.9923V26.975H77.395V16.8636H87.0265V16.8294ZM23.3419 16.8294L18.9203 26.9408H21.491L22.4507 24.7471H27.5578L28.5175 26.9408H31.2253L26.838 16.8294H23.3419ZM23.3076 22.7934L25.0214 18.8859L26.7352 22.7934H23.3076ZM40.377 21.4223H35.4413V18.8174H40.377V21.4223ZM32.7335 16.8294V26.9408H35.3727V23.5132H41.3025C42.0565 23.5132 42.6735 23.0676 42.7421 22.0736V18.3032C42.7421 17.4806 42.0223 16.8294 41.1654 16.8294H32.7335ZM152.459 16.8294H149.82V26.9408H158.903V24.8499H152.459V16.8294ZM122.982 16.8294V26.9408H125.587V19.9827L131.174 26.9408H134.053V16.8294H131.414V23.7874L125.964 16.8294H122.982ZM117.429 26.9408H119.966V16.8636H117.429V26.9408ZM64.4044 16.8294V18.9887H68.4833V26.9408H71.1911V18.9887H75.2699V16.8294H64.4044ZM162.228 16.8294C161.474 16.7951 160.754 17.4806 160.754 18.2004V21.4909C160.754 22.3478 161.474 22.9647 162.194 22.9647H168.055V24.9185H163.393V24.0959H160.651V25.5012C160.651 26.2552 161.337 26.975 162.125 26.975H169.254C169.974 26.975 170.694 26.4266 170.694 25.4669V22.3135C170.66 21.3881 169.974 20.8396 169.22 20.8054H163.462V18.9202H167.986V19.5714H170.557V18.2347C170.591 17.5834 169.94 16.8294 169.083 16.8636H162.228V16.8294ZM89.4259 16.8294V26.9408H91.9966V23.239H94.9443L96.9323 26.9408H99.6744L97.6178 23.239H97.8577C98.6461 23.1704 99.2288 22.5877 99.2288 21.7308V18.3032C99.2288 17.4806 98.509 16.8294 97.6521 16.8294H89.4259ZM96.9323 21.2167H91.9623V18.9202H96.9323V21.2167Z" fill="#3C3C46"/>
<path d="M100.463 37.2577V37.8746H96.8981V32.0477H97.6521V37.2577H100.463ZM101.285 31.9449H102.108V32.7675H101.285V31.9449ZM101.32 33.5559H102.039V37.8746H101.32V33.5559ZM106.05 34.1386H104.507V37.9089H103.788V34.1386H102.931V33.5559H103.788V33.2131C103.788 32.4591 104.096 31.7393 105.33 31.7393C105.57 31.7393 105.844 31.7735 106.015 31.8421V32.4248C105.844 32.3905 105.604 32.3562 105.364 32.3562C104.816 32.3562 104.473 32.5962 104.473 33.2474V33.5902H106.015V34.1386H106.05ZM107.421 36.6064V34.1386H106.632V33.5559H107.421V32.5276L108.141 32.322V33.5559H109.512V34.1386H108.141V36.6064C108.141 37.292 108.449 37.3605 108.758 37.3605C109.032 37.3605 109.375 37.292 109.546 37.2234V37.8061C109.34 37.8746 108.997 37.9432 108.62 37.9432C107.798 37.9775 107.421 37.5662 107.421 36.6064ZM110.369 31.9449H111.191V32.7675H110.369V31.9449ZM110.437 33.5559H111.157V37.8746H110.437V33.5559ZM112.425 33.5559H113.042L113.111 33.9329C113.111 34.0015 113.145 34.0015 113.179 34.0015C113.213 34.0015 113.248 34.0015 113.316 33.9329C113.59 33.7273 114.002 33.4873 114.687 33.4873C115.544 33.4873 115.99 33.8644 115.99 34.7555V37.9089H115.27V34.9269C115.27 34.2757 114.961 34.1043 114.447 34.1043C113.865 34.1043 113.385 34.3785 113.145 34.5842V37.9089H112.425V33.5559ZM116.915 38.5259C116.915 38.046 117.258 37.6347 117.669 37.3262C117.327 37.1891 117.189 36.9835 117.189 36.675C117.189 36.4008 117.361 36.1609 117.601 35.9895C117.258 35.7495 117.052 35.3382 117.052 34.8926C117.052 33.8986 117.601 33.4531 118.903 33.4531C119.143 33.4531 119.349 33.4873 119.589 33.5216H121.131L121.2 33.9329L120.411 34.0357C120.583 34.2414 120.686 34.5499 120.686 34.8584C120.686 35.8524 120.137 36.298 118.903 36.298C118.595 36.298 118.286 36.2637 118.046 36.1609C117.909 36.2637 117.841 36.4008 117.841 36.5379C117.841 36.7435 117.978 36.8121 118.389 36.8806L120.069 37.2234C120.686 37.3605 120.994 37.7718 120.994 38.3545C120.994 39.2457 120.377 39.6227 118.937 39.6227C117.532 39.7255 116.915 39.3485 116.915 38.5259ZM120.24 38.4916C120.24 38.1146 120.034 37.9089 119.589 37.8061L118.115 37.4976C117.806 37.8061 117.601 38.0803 117.601 38.3888C117.601 38.9029 118.012 39.1429 118.903 39.1429C119.897 39.1429 120.24 38.9715 120.24 38.4916ZM119.966 34.9269C119.966 34.2414 119.692 34.0357 118.903 34.0357C118.081 34.0357 117.772 34.2757 117.772 34.9269C117.772 35.5782 118.081 35.8181 118.869 35.8181C119.657 35.7838 119.966 35.5439 119.966 34.9269ZM123.907 34.9612C123.907 32.8018 124.696 31.9792 126.512 31.9792C127.267 31.9792 127.815 32.1163 128.021 32.2191V32.8704C127.815 32.8018 127.267 32.6304 126.547 32.6304C125.073 32.6304 124.662 33.316 124.662 34.9269C124.662 36.9149 125.313 37.3262 126.17 37.3262C126.821 37.3262 127.267 37.0863 127.575 36.9492V35.3725H126.341V34.7555H128.295V37.8746H127.712L127.644 37.5662C127.644 37.5319 127.609 37.4633 127.575 37.4633C127.541 37.4633 127.506 37.4633 127.438 37.5319C127.267 37.6347 126.718 37.9432 126.033 37.9432C124.764 37.9775 123.907 37.2234 123.907 34.9612ZM129.494 36.9492V31.8078H130.214V36.8121C130.214 37.1891 130.351 37.3605 130.66 37.3605C130.831 37.3605 130.934 37.3605 131.105 37.3262V37.9089C130.934 37.9432 130.728 37.9775 130.488 37.9775C129.906 37.9775 129.494 37.6347 129.494 36.9492ZM131.688 35.7153C131.688 34.1043 132.339 33.4531 133.676 33.4531C135.013 33.4531 135.664 34.07 135.664 35.7153C135.664 37.3605 135.013 37.9775 133.676 37.9775C132.339 37.9775 131.688 37.3605 131.688 35.7153ZM134.91 35.7153C134.91 34.5156 134.533 34.07 133.676 34.07C132.785 34.07 132.442 34.5156 132.442 35.7153C132.442 36.9149 132.785 37.3605 133.676 37.3605C134.567 37.3605 134.91 36.9149 134.91 35.7153ZM136.761 37.669V31.8078H137.481V33.9672C137.652 33.8644 138.201 33.4873 138.886 33.4873C139.846 33.4873 140.531 33.8986 140.531 35.681C140.531 37.4291 139.914 38.0118 138.509 38.0118C137.686 37.9775 137.138 37.8061 136.761 37.669ZM139.777 35.681C139.777 34.4471 139.434 34.1043 138.715 34.1043C138.098 34.1043 137.686 34.3785 137.481 34.5156V37.2234C137.686 37.292 137.995 37.3948 138.509 37.3948C139.297 37.3605 139.777 37.0177 139.777 35.681ZM141.388 36.7778C141.388 36.0237 141.765 35.7495 142.759 35.4753L144.096 35.064V34.8584C144.096 34.4471 143.89 34.07 143.068 34.07C142.451 34.07 141.971 34.2414 141.697 34.3442V33.7273C142.039 33.5902 142.519 33.4531 143.171 33.4531C144.302 33.4531 144.816 33.9672 144.816 34.8584V37.8746H144.199L144.13 37.4976C144.13 37.4291 144.096 37.4291 144.062 37.4291C144.027 37.4291 143.993 37.4291 143.959 37.4633C143.719 37.6347 143.171 37.9432 142.588 37.9432C141.731 37.9775 141.388 37.6004 141.388 36.7778ZM144.062 36.9835V35.6124L142.794 35.9895C142.211 36.1609 142.074 36.3322 142.074 36.7435C142.074 37.1891 142.245 37.3948 142.725 37.3948C143.239 37.3948 143.719 37.1549 144.062 36.9835ZM146.015 36.9492V31.8078H146.735V36.8121C146.735 37.1891 146.872 37.3605 147.181 37.3605C147.352 37.3605 147.455 37.3605 147.626 37.3262V37.9089C147.455 37.9432 147.249 37.9775 147.009 37.9775C146.427 37.9775 146.015 37.6347 146.015 36.9492ZM151.979 32.6647H150.129V32.0477H154.55V32.6647H152.699V37.8746H151.945V32.6647H151.979ZM154.722 33.5559H155.339L155.407 34.0015C155.407 34.07 155.441 34.1043 155.476 34.1043C155.51 34.1043 155.544 34.1043 155.578 34.0357C155.853 33.7958 156.298 33.4873 156.881 33.4873C156.949 33.4873 157.052 33.4873 157.121 33.5216V34.1728C156.572 34.1386 155.955 34.31 155.476 34.687V37.9089H154.756V33.5559H154.722ZM157.704 36.7778C157.704 36.0237 158.081 35.7495 159.075 35.4753L160.411 35.064V34.8584C160.411 34.4471 160.206 34.07 159.383 34.07C158.766 34.07 158.286 34.2414 158.012 34.3442V33.7273C158.355 33.5902 158.835 33.4531 159.486 33.4531C160.617 33.4531 161.131 33.9672 161.131 34.8584V37.8746H160.514L160.446 37.4976C160.446 37.4291 160.411 37.4291 160.377 37.4291C160.343 37.4291 160.309 37.4291 160.274 37.4633C160.034 37.6347 159.486 37.9432 158.903 37.9432C158.081 37.9775 157.704 37.6004 157.704 36.7778ZM160.411 36.9835V35.6124L159.143 35.9895C158.56 36.1609 158.423 36.3322 158.423 36.7435C158.423 37.1891 158.595 37.3948 159.075 37.3948C159.589 37.3948 160.069 37.1549 160.411 36.9835ZM162.159 35.7153C162.159 34.0357 162.879 33.4531 164.045 33.4531C164.559 33.4531 164.936 33.5559 165.21 33.7273V31.8078H165.93V37.8746H165.313L165.244 37.4976C165.244 37.4633 165.21 37.4291 165.176 37.4291C165.141 37.4291 165.141 37.4291 165.107 37.4633C164.936 37.6347 164.456 37.9432 163.839 37.9432C162.913 37.9775 162.159 37.4633 162.159 35.7153ZM165.21 36.8806V34.2757C165.004 34.1728 164.627 34.07 164.182 34.07C163.291 34.07 162.913 34.4813 162.913 35.7153C162.913 36.9492 163.359 37.3605 164.01 37.3605C164.524 37.3605 165.004 37.052 165.21 36.8806ZM170.66 35.8866H167.746C167.781 36.9492 168.192 37.3262 169.083 37.3262C169.734 37.3262 170.249 37.1206 170.557 36.9835V37.6347C170.283 37.7718 169.803 37.9432 169.049 37.9432C167.609 37.9432 167.061 37.1891 167.061 35.5782C167.061 34.0015 167.712 33.4531 168.946 33.4531C170.146 33.4531 170.694 34.07 170.694 35.2697L170.66 35.8866ZM169.974 35.1326C169.974 34.4128 169.632 34.07 168.878 34.07C168.089 34.07 167.746 34.3785 167.712 35.3725H169.94V35.1326H169.974Z" fill="#FF6441"/>
</g>
<defs>
<clipPath id="clip0_291_3522">
<rect width="170.557" height="40" fill="white"/>
</clipPath>
</defs>
</svg>
