<svg width="183" height="40" viewBox="0 0 183 40" fill="none" xmlns="http://www.w3.org/2000/svg">
<g clip-path="url(#clip0_298_12159)">
<path fill-rule="evenodd" clip-rule="evenodd" d="M97.5983 4.13254L97.5508 21.2822H102.111C102.159 17.7667 102.016 12.9211 102.159 9.35819L106.909 21.1397L109.855 21.1872L114.653 9.4057V21.3297L119.166 21.2822V1.94727H113.37L108.287 13.9663L103.394 1.94727H97.5983V4.13254Z" fill="#293654"/>
<path fill-rule="evenodd" clip-rule="evenodd" d="M24.8193 1.23532C23.014 1.56786 10.805 8.07618 8.47721 9.31133C6.43446 10.4515 1.87389 12.2092 0.781251 13.8244C-1.30901 16.8648 1.25631 20.9028 4.91427 20.2852C6.43446 20.0002 18.976 13.3968 21.2088 12.2092C23.2516 11.069 27.8121 9.31133 28.9048 7.69613C30.995 4.70325 28.4297 0.570238 24.8193 1.23532Z" fill="#36A577"/>
<path fill-rule="evenodd" clip-rule="evenodd" d="M22.2063 14.8219C20.5436 15.1069 11.8975 19.8575 9.66471 20.9976C7.52694 22.0903 5.15165 22.8029 5.00913 25.6532C4.81911 28.3136 7.09939 30.4038 9.80723 30.0238C11.3274 29.7862 20.211 24.8931 22.3013 23.8955C24.5341 22.8029 26.8144 21.9953 27.0044 19.2399C27.1944 16.6271 24.9141 14.3468 22.2063 14.8219Z" fill="#36A577"/>
<path fill-rule="evenodd" clip-rule="evenodd" d="M126.957 6.69808C117.694 8.31328 119.309 22.9926 129.665 21.4724C138.786 20.1423 137.266 4.89285 126.957 6.69808Z" fill="#293654"/>
<path fill-rule="evenodd" clip-rule="evenodd" d="M64.5342 11.2114L68.7148 11.3539C69.3798 10.4038 70.0924 9.31111 71.8502 10.0237C73.0378 10.4988 73.4654 12.0665 71.4701 12.4465C68.5722 12.9691 65.9594 12.7315 64.5817 14.9168C62.349 18.3372 65.5794 22.6603 70.425 21.3301C72.1352 20.8551 72.1827 20.095 73.0378 19.2874L73.0853 21.2826H77.4559C77.3608 18.6223 77.4083 15.9144 77.4083 13.2541C77.4083 10.0712 77.3133 8.74104 75.0806 7.50589C71.1376 5.32062 64.8193 6.88831 64.5342 11.2114Z" fill="#293654"/>
<path fill-rule="evenodd" clip-rule="evenodd" d="M166.72 16.8643L162.587 16.7693C161.019 19.2871 157.123 18.527 157.218 15.1541H166.862C167.67 4.22775 154.511 4.13274 152.8 12.2087C151.898 16.6268 153.988 20.3323 157.598 21.2824C159.594 21.8049 162.016 21.6149 163.727 20.8548C164.677 20.3798 167.1 18.3845 166.72 16.8643Z" fill="#293654"/>
<path fill-rule="evenodd" clip-rule="evenodd" d="M169.095 22.945L168.05 26.2229C169.902 27.3155 173.608 26.6029 174.891 25.4153C176.506 23.9426 176.886 22.1374 177.741 19.6671C178.311 18.0044 182.016 7.50556 182.111 6.79297H177.313L174.415 17.1493L171.755 6.79297H166.957C167.052 7.79059 169.522 14.4414 170.045 15.9616C170.567 17.4818 171.09 18.9545 171.613 20.4747C172.42 22.8025 171.565 23.5151 169.095 22.945Z" fill="#293654"/>
<path fill-rule="evenodd" clip-rule="evenodd" d="M50.2822 21.2822L54.9378 21.3297V13.5387C56.8856 13.4437 60.496 13.5387 62.6338 13.5387V9.69073H54.9378V5.74774C57.3131 5.65273 61.1136 5.70023 63.4889 5.74774V1.94727H50.2822V21.2822Z" fill="#293654"/>
<path fill-rule="evenodd" clip-rule="evenodd" d="M141.636 9.45373L141.589 6.7934H137.218L137.171 21.3302L141.779 21.2827C141.826 19.0974 141.826 16.8647 141.779 14.6794C141.779 12.4941 141.731 10.4514 144.154 10.3563C146.625 10.3088 146.577 12.3516 146.577 14.5844C146.577 16.8172 146.53 19.0499 146.577 21.2827H151.185C151.185 18.1473 151.755 10.7364 150.283 8.59862C149.38 7.36347 147.86 6.41335 145.532 6.60337C142.444 6.88841 142.254 9.12119 141.636 9.45373Z" fill="#293654"/>
<path fill-rule="evenodd" clip-rule="evenodd" d="M20.2587 28.0281C18.9286 28.2657 12.1827 31.8286 11.2801 32.5412C8.42975 35.0115 10.3775 40.4747 14.7955 39.7621C15.8882 39.6196 23.0141 35.8666 23.6792 35.249C26.672 32.5412 24.3442 27.3631 20.2587 28.0281Z" fill="#36A577"/>
<path fill-rule="evenodd" clip-rule="evenodd" d="M91.4702 9.40576L91.3752 6.79294H86.9097V21.2822H91.5177C91.5177 18.6694 91.4227 15.9616 91.5177 13.3488C91.5653 10.926 93.8455 9.97583 96.1733 10.7834L96.2208 6.74543C92.3729 5.93783 91.9928 8.74068 91.4702 9.40576Z" fill="#293654"/>
<path fill-rule="evenodd" clip-rule="evenodd" d="M79.7837 21.2823H84.3918V6.79297H79.8312L79.7837 21.2823Z" fill="#293654"/>
<path fill-rule="evenodd" clip-rule="evenodd" d="M34.6528 20.712C29.1421 21.8997 30.8523 29.7857 36.1729 28.8831C41.5411 27.9329 39.9734 19.6194 34.6528 20.712Z" fill="#293654"/>
<path fill-rule="evenodd" clip-rule="evenodd" d="M49.5225 39.8568H51.3277V35.2012L53.2279 39.8093H54.3681L56.1733 35.2012L56.2683 39.8568H58.0735L58.026 32.2559H55.7932L53.8455 36.9589L51.8027 32.2559H49.57L49.5225 39.8568Z" fill="#293654"/>
<path fill-rule="evenodd" clip-rule="evenodd" d="M83.7742 32.2086C79.1186 33.0162 79.9737 40.7596 85.1518 39.9045C89.5699 39.1919 88.8098 31.306 83.7742 32.2086Z" fill="#2A3554"/>
<path fill-rule="evenodd" clip-rule="evenodd" d="M146.72 39.8573C148.335 39.8573 150.948 40.1423 152.04 39.3347C153.371 38.2896 152.991 36.2943 151.138 35.8668C151.708 35.4867 152.278 35.3917 152.468 34.5366C152.991 31.6388 148.572 32.2563 146.767 32.2563L146.72 39.8573Z" fill="#293654"/>
<path fill-rule="evenodd" clip-rule="evenodd" d="M72.9902 39.8572H74.843V37.2444C76.1256 37.2919 75.7931 37.2444 76.3157 38.242C76.6007 38.8121 76.8857 39.2872 77.1233 39.8572H79.1185L77.5983 37.0069C78.1684 36.4368 78.6909 36.5318 78.881 35.2492C79.4035 31.5912 75.0805 32.2563 72.9902 32.2563V39.8572Z" fill="#293654"/>
<path fill-rule="evenodd" clip-rule="evenodd" d="M163.632 39.8093L165.485 39.8568V35.4863L168.572 39.8568H170.14V32.2559H168.335L168.287 36.6264L165.247 32.2559H163.679L163.632 39.8093Z" fill="#2A3554"/>
<path fill-rule="evenodd" clip-rule="evenodd" d="M101.066 39.8568H102.919V35.5338L105.96 39.8568H107.527V32.2559H105.722V36.5789L102.634 32.2559H101.114L101.066 39.8568Z" fill="#293654"/>
<path fill-rule="evenodd" clip-rule="evenodd" d="M118.644 39.8568H120.496V35.4863L123.537 39.8568H125.152V32.2559H123.347L123.299 36.5789L120.259 32.2559H118.691L118.644 39.8568Z" fill="#293656"/>
<path fill-rule="evenodd" clip-rule="evenodd" d="M127.86 10.119C124.582 10.7841 124.962 18.8601 128.81 18.0525C131.993 17.3399 131.708 9.26388 127.86 10.119Z" fill="#FEFEFE"/>
<path fill-rule="evenodd" clip-rule="evenodd" d="M154.32 39.8568H156.316L156.791 38.2891L159.403 38.2416L159.879 39.8568H161.874L159.879 33.871C159.261 32.1608 159.831 32.2558 157.313 32.2558C156.553 32.2558 156.553 33.1109 156.316 33.871C155.793 35.4387 154.653 38.5741 154.32 39.8568Z" fill="#293654"/>
<path fill-rule="evenodd" clip-rule="evenodd" d="M109.333 39.8568H111.138L111.233 39.9043L111.803 38.2891L114.463 38.2416L114.891 39.8568H116.838L114.321 32.2559H111.898L109.333 39.8568Z" fill="#2A3755"/>
<path fill-rule="evenodd" clip-rule="evenodd" d="M172.23 39.8568H174.083C174.035 38.2891 173.845 37.7665 174.795 36.9589L176.696 39.8568H178.833L176.173 35.6763L178.833 32.2559H176.696L174.13 35.4863L174.083 32.2559H172.277L172.23 39.8568Z" fill="#2A3556"/>
<path fill-rule="evenodd" clip-rule="evenodd" d="M136.125 39.8568H141.446V38.4316L138.026 38.3366L137.978 36.8164H141.161V35.2962H137.978V33.7285H141.446V32.3034L136.173 32.2559L136.125 39.8568Z" fill="#293654"/>
<path fill-rule="evenodd" clip-rule="evenodd" d="M70.9952 37.1971H69.2374C68.7624 37.6721 68.6199 38.7647 67.0522 38.2422C65.437 37.7196 65.4845 34.3467 67.0997 33.8241C68.6674 33.3491 68.7624 34.4892 69.2374 35.0118H70.9477C70.6151 31.0213 64.0593 30.9738 64.0118 35.9619C63.9168 41.045 70.3301 41.1875 70.9952 37.1971Z" fill="#293654"/>
<path fill-rule="evenodd" clip-rule="evenodd" d="M134.131 37.197H132.373C131.898 37.8146 131.708 38.7172 130.188 38.2422C128.62 37.7671 128.62 34.3942 130.235 33.8241C131.66 33.3966 131.898 34.2992 132.373 34.9643L134.131 35.0118C133.703 31.0213 127.242 30.9738 127.147 35.9619C127.1 41.045 133.561 41.14 134.131 37.197Z" fill="#293654"/>
<path fill-rule="evenodd" clip-rule="evenodd" d="M90.0449 39.8568H91.8977V36.8164H94.938L94.8905 35.2962H91.8977V33.776L95.2706 33.7285L95.2231 32.2559H90.0924L90.0449 39.8568Z" fill="#293654"/>
<path fill-rule="evenodd" clip-rule="evenodd" d="M81.4938 0.0947573C78.3109 0.854852 79.3086 5.84298 82.7765 4.98787C85.8169 4.22777 84.8668 -0.712844 81.4938 0.0947573Z" fill="#293654"/>
<path fill-rule="evenodd" clip-rule="evenodd" d="M97.1235 39.8568H98.9763V32.2559H97.171L97.1235 39.8568Z" fill="#283455"/>
<path fill-rule="evenodd" clip-rule="evenodd" d="M60.1162 39.8093L61.9689 39.8568V32.3034L60.1637 32.2559L60.1162 39.8093Z" fill="#293654"/>
<path fill-rule="evenodd" clip-rule="evenodd" d="M84.0592 33.8237C81.969 34.2513 82.1115 38.8593 84.8193 38.2893C86.8146 37.9092 86.672 33.2536 84.0592 33.8237Z" fill="#FEFEFE"/>
<path fill-rule="evenodd" clip-rule="evenodd" d="M72.8477 14.7744C71.8501 15.0594 70.1874 15.297 69.4273 15.582C68.5722 15.9621 67.8121 17.1972 68.7622 18.0523C69.5223 18.7649 71.0425 18.5749 71.8501 18.0048C72.9427 17.2447 72.8477 16.3421 72.8477 14.7744Z" fill="#FEFEFE"/>
<path fill-rule="evenodd" clip-rule="evenodd" d="M157.218 12.4942H162.586C162.444 9.02622 157.361 9.12123 157.218 12.4942Z" fill="#FEFEFE"/>
<path fill-rule="evenodd" clip-rule="evenodd" d="M74.8428 35.2492V35.8192C75.7929 35.8192 77.028 35.9618 76.9805 34.7741C76.9805 33.5865 75.8879 33.729 74.8428 33.729V35.2492Z" fill="#FEFEFE"/>
<path fill-rule="evenodd" clip-rule="evenodd" d="M148.572 38.3845C149.475 38.3845 150.9 38.5745 150.853 37.4819C150.853 37.1018 150.568 36.7218 150.187 36.6268C149.855 36.5318 149 36.5793 148.572 36.5793V38.3845Z" fill="#FDFDFD"/>
<path fill-rule="evenodd" clip-rule="evenodd" d="M148.572 35.392C149.38 35.392 150.615 35.5345 150.615 34.5369C150.615 33.5393 149.427 33.7293 148.572 33.7293V35.392Z" fill="#FEFEFE"/>
<path fill-rule="evenodd" clip-rule="evenodd" d="M112.278 36.8644H113.941L113.133 34.2041C112.943 34.4891 112.325 36.4844 112.278 36.8644Z" fill="#FDFDFD"/>
<path fill-rule="evenodd" clip-rule="evenodd" d="M157.218 36.8641H158.928L158.121 34.1562L157.218 36.8641Z" fill="#FAFEFE"/>
</g>
<defs>
<clipPath id="clip0_298_12159">
<rect width="182.133" height="40" fill="white"/>
</clipPath>
</defs>
</svg>
