<svg width="143" height="40" viewBox="0 0 143 40" fill="none" xmlns="http://www.w3.org/2000/svg">
<g clip-path="url(#clip0_298_12125)">
<mask id="mask0_298_12125" style="mask-type:luminance" maskUnits="userSpaceOnUse" x="0" y="0" width="143" height="40">
<path d="M0 0H142.233V39.3953H0V0Z" fill="white"/>
</mask>
<g mask="url(#mask0_298_12125)">
<path d="M9.44184 37.2558C9.23719 37.0977 9.04184 36.9302 8.8558 36.7535C8.37208 36.2791 7.97207 35.8884 7.54417 35.4419C7.11626 34.9953 6.61393 34.5116 6.093 34.0372C4.87157 32.8516 3.80001 31.5207 2.90231 30.0744C1.77236 28.2608 0.954799 26.2703 0.483703 24.186C0.372075 23.7023 0.269749 23.2 0.204633 22.6977C0.139517 22.1953 0.093005 21.693 -1.83024e-05 21.107C-0.0465434 20.4691 -0.0465434 19.8286 -1.83024e-05 19.1907C-1.83024e-05 18.7163 0.065098 18.2605 0.11161 17.7674C0.0989407 17.4801 0.12396 17.1924 0.186028 16.9116C0.288354 16.3256 0.390679 15.7674 0.51161 15.1721C0.699307 14.2796 0.963859 13.405 1.30231 12.5581C1.71254 11.5163 2.21114 10.5116 2.79068 9.55349C3.23676 8.79627 3.72755 8.06629 4.26045 7.36744C4.74869 6.74152 5.27364 6.14513 5.83254 5.5814C6.69017 4.73413 7.62439 3.96807 8.62324 3.29302C10.2718 2.17377 12.0907 1.32873 14.0093 0.790698C14.7814 0.567442 15.5721 0.4 16.3628 0.251163C16.8372 0.167442 17.3144 0.111628 17.7953 0.0837209C18.3628 0.0837209 18.9209 0 19.5349 0H20.6604C21.653 0.0744186 22.639 0.223256 23.6093 0.446512C24.4223 0.615814 25.2214 0.846512 26 1.13488C27.9198 1.84172 29.7181 2.84283 31.3302 4.10233C32.9235 5.35105 34.3109 6.84205 35.4418 8.52093C36.3273 9.77107 37.0524 11.1274 37.6 12.5581C37.9163 13.3358 38.1767 14.1349 38.3814 14.9488C38.5209 15.5814 38.6511 16.2326 38.7442 16.8837C38.8204 17.3274 38.8735 17.774 38.9023 18.2233V21.3953C38.7984 22.6152 38.5709 23.8214 38.2232 24.9953C38.0837 25.4605 37.9349 25.9256 37.7674 26.3814C37.3792 27.5442 36.871 28.6634 36.2511 29.7209C35.3234 31.2959 34.191 32.741 32.8837 34.0186L32.0279 34.7907C31.0742 35.5902 30.0534 36.3061 28.9767 36.9302C27.3092 37.8798 25.5097 38.5758 23.6372 38.9953C23.0697 39.1163 22.5209 39.2 21.907 39.293C21.3813 39.3798 20.849 39.4203 20.3163 39.414H19.1535C18.9182 39.4326 18.6818 39.4326 18.4465 39.414L16.7442 39.2093C15.978 39.1286 15.2352 38.8979 14.5581 38.5302C12.8382 37.7111 11.4429 36.3386 10.5953 34.6326C10.2971 34.0817 10.0838 33.489 9.96277 32.8744C9.90311 32.5672 9.86272 32.2565 9.84184 31.9442C9.84184 31.4326 9.75812 30.9116 9.74882 30.3907C9.72091 29.9628 9.72091 29.5349 9.74882 29.107C9.80463 28.493 9.88835 27.8791 9.98138 27.2465C10.0539 26.9749 10.1497 26.7107 10.2697 26.4558C10.3442 26.2419 10.4372 26.0372 10.5209 25.8512C11.0019 24.8409 11.6462 23.9169 12.4279 23.1163C12.7349 22.7907 13.0604 22.4558 13.3581 22.186C13.6311 21.9128 13.9449 21.6837 14.2884 21.507C15.3547 20.9632 16.4958 20.5807 17.6744 20.3721C18.3857 20.2386 19.109 20.1794 19.8325 20.1953C20.4936 20.2119 21.1474 20.3376 21.7674 20.5674C21.8632 20.5972 21.9535 20.6419 22.0372 20.6977C22.3311 20.8605 22.6139 21.0447 22.8837 21.2465C23.5212 21.7527 24.0204 22.4119 24.3349 23.1628C24.5581 23.68 24.6791 24.2363 24.6884 24.8C24.7063 25.7039 24.5019 26.5983 24.093 27.4047C23.9665 27.6976 23.8073 27.9753 23.6186 28.2326C23.2939 28.5991 22.9141 28.9129 22.493 29.1628C21.7744 29.5724 20.98 29.832 20.1581 29.9256H18.1767C17.907 29.9256 17.6372 30 17.3674 30.0186C16.7709 30.0653 16.1813 30.1776 15.6093 30.3535C15.0392 30.5114 14.503 30.7731 14.0279 31.1256C13.6141 31.4441 13.3405 31.9112 13.2651 32.4279C13.2012 32.8784 13.2458 33.3377 13.3953 33.7674C13.4511 33.9367 13.5442 34.0921 13.6651 34.2233C13.9088 34.5061 14.1702 34.7721 14.4465 35.0233C15.0391 35.4845 15.6896 35.8661 16.3814 36.1581C17.1516 36.5126 17.9563 36.7907 18.7814 36.986C19.5189 37.1636 20.2849 37.1889 21.0325 37.0605C21.3796 37.0447 21.7249 37.0011 22.0651 36.9302C23.0549 36.7721 24.0279 36.5293 24.9767 36.2047C26.8147 35.5667 28.5318 34.6232 30.0558 33.414C30.6577 32.9581 31.2297 32.4651 31.7674 31.9349C33.7696 29.9113 35.2424 27.4257 36.0558 24.6977C36.2958 23.9219 36.4753 23.1284 36.5953 22.3256C36.6716 21.8791 36.7237 21.4288 36.7535 20.9767C36.7423 20.6651 36.7609 20.3535 36.8093 20.0465V17.7302C36.7919 17.436 36.7514 17.1437 36.6884 16.8558C36.5668 15.9917 36.3739 15.1392 36.1116 14.307C35.7382 13.2176 35.2649 12.165 34.6977 11.1628C34.1762 10.1559 33.5527 9.20521 32.8372 8.32558C32.5581 7.9907 32.2884 7.67442 31.9814 7.39535C31.6744 7.11628 31.2651 6.66977 30.8558 6.33488C29.6954 5.28127 28.3889 4.40086 26.9767 3.72093C25.8881 3.18148 24.7473 2.75446 23.5721 2.44651C23.0977 2.33488 22.6418 2.23256 22.1395 2.15814C21.7702 2.09149 21.3976 2.04491 21.0232 2.0186C20.6511 2.0186 20.186 2.0186 19.7674 1.94419H19.2186L17.6372 2.03721C16.6169 2.13585 15.6079 2.32893 14.6232 2.61395C13.7572 2.85868 12.9113 3.16967 12.093 3.54419C10.9837 4.04886 9.93255 4.67269 8.95812 5.40465C8.22977 5.9347 7.54538 6.52265 6.91161 7.16279C5.96953 8.13669 5.14812 9.22046 4.4651 10.3907C3.84032 11.4466 3.3081 12.5546 2.8744 13.7023C2.58603 14.5302 2.38138 15.3953 2.16742 16.2605C2.0837 16.6512 2.0558 17.0698 1.99998 17.4698C1.92556 17.8437 1.87905 18.2233 1.86045 18.6047V20.9302C1.88556 21.28 1.93207 21.6279 1.99998 21.9721C2.04649 22.4 2.11161 22.8279 2.19533 23.2465C2.35068 23.9349 2.54882 24.6121 2.79068 25.2744C3.30179 26.7592 3.99548 28.1747 4.8558 29.4884C5.41675 30.2771 6.03882 31.0204 6.71626 31.7116C7.13486 32.2056 7.5851 32.6716 8.0651 33.107C8.23254 33.2586 8.39068 33.4205 8.53952 33.5907C8.5582 33.6386 8.5582 33.6917 8.53952 33.7395V34.3349C8.53738 34.6484 8.57489 34.961 8.65114 35.2651C8.79068 35.7023 8.95812 36.1302 9.13486 36.5581C9.22789 36.7628 9.33021 36.9674 9.41393 37.1814V37.3116L9.44184 37.2558Z" fill="#A9CE40"/>
<path d="M12.6047 22.4557C12.3228 22.4743 12.04 22.4743 11.7581 22.4557C11.2071 22.3984 10.6642 22.2799 10.1395 22.1022C9.66512 21.9347 9.2093 21.758 8.72558 21.5533C8.05024 21.2743 7.42233 20.891 6.86512 20.4185C6.09503 19.7909 5.46183 19.0121 5.00465 18.1301C4.69361 17.5279 4.48905 16.8764 4.4 16.2045C4.37768 15.7626 4.4 15.3208 4.46512 14.8836C4.48558 14.5301 4.52931 14.1794 4.59535 13.8324C4.59535 13.4789 4.66047 13.3022 4.70698 13.0417C4.85051 12.3256 5.0948 11.6335 5.43256 10.9859C5.48838 10.865 5.54419 10.7347 5.5907 10.6138C5.73926 10.1753 5.95247 9.76144 6.22326 9.3859C6.66952 8.75029 7.21253 8.18845 7.83256 7.72078C8.07442 7.53474 8.29768 7.33008 8.53954 7.16264C9.21275 6.71081 9.9295 6.3275 10.6791 6.01846C11.0349 5.84808 11.4144 5.73206 11.8047 5.67427C12.1519 5.6397 12.4968 5.58378 12.8372 5.50683C13.0709 5.49926 13.3039 5.47752 13.5349 5.44171L14.4651 5.3766H18.186C18.9674 5.31148 19.7395 5.3766 20.5116 5.3766H22.493L24.0093 5.46032H24.8186L26.1767 5.58125C26.8557 5.64467 27.5018 5.90311 28.0372 6.32543C28.802 6.8888 29.4103 7.63802 29.8047 8.50218C30.0217 8.97359 30.1479 9.48168 30.1767 9.99985C30.2084 11.1575 29.807 12.2853 29.0512 13.1626C28.8307 13.4417 28.5842 13.7003 28.3163 13.9347C27.8593 14.3751 27.2998 14.6948 26.6884 14.865C26.5237 14.9022 26.3544 14.9208 26.186 14.9208H12.2326L11.3023 14.9766C10.9888 15.0008 10.6772 15.051 10.3721 15.1254C9.55235 15.2864 8.76393 15.5785 8.03721 15.9906C7.50675 16.261 7.04775 16.6531 6.69768 17.1347C6.53191 17.3544 6.41191 17.605 6.3448 17.8719C6.27769 18.1387 6.26483 18.4163 6.30698 18.6882C6.36558 19.0492 6.49861 19.3952 6.69768 19.7022C6.95279 20.0976 7.26644 20.452 7.62791 20.7533C7.9414 21.0092 8.28465 21.224 8.65117 21.3952C9.19535 21.6566 9.76186 21.8687 10.3442 22.0278C10.8651 22.1766 11.3963 22.2789 11.9349 22.3347C12.1609 22.3589 12.3842 22.3999 12.6047 22.4557Z" fill="#279C3F"/>
<path d="M12.6046 22.456C12.3906 22.456 12.186 22.363 11.9813 22.3444C11.4418 22.2793 10.9069 22.177 10.3813 22.0374C9.8005 21.8789 9.23657 21.6639 8.69761 21.3956C7.90944 21.003 7.23881 20.4093 6.75343 19.6747C6.55458 19.3673 6.42156 19.022 6.36273 18.6607C6.32261 18.3917 6.33649 18.1175 6.40357 17.8539C6.47066 17.5904 6.58959 17.3429 6.75343 17.1258C7.08036 16.6579 7.50584 16.2674 7.99994 15.9816C8.73482 15.6002 9.52552 15.3398 10.3441 15.2095C10.6567 15.177 10.9674 15.1277 11.2744 15.0607L12.2046 15.0049H13.2278L12.093 15.1258L11.3767 15.2095C10.9664 15.2653 10.5637 15.3677 10.1767 15.5165C9.67576 15.6841 9.20704 15.9357 8.79063 16.2607C8.3988 16.5787 8.11057 17.0061 7.96273 17.4886C7.88912 17.7656 7.87343 18.0547 7.91665 18.338C7.95986 18.6213 8.06105 18.8927 8.21389 19.1351C8.37854 19.4086 8.58226 19.656 8.81854 19.87L9.29296 20.3165C9.91214 20.8997 10.6183 21.383 11.386 21.7491C11.772 21.9221 12.1488 22.1174 12.5116 22.3351L12.6046 22.456Z" fill="#5FBA74"/>
<path d="M52.093 17.7205L50.7814 28.8368L50.0651 31.46C49.975 31.8771 49.7648 32.2586 49.4605 32.5577C49.1305 32.8171 48.7166 32.9462 48.2977 32.9205H46.9116L48.7721 17.7391L47.6651 17.5437C47.4779 17.519 47.3027 17.4379 47.1628 17.3112C47.0954 17.2488 47.0429 17.1722 47.0091 17.0868C46.9753 17.0015 46.9611 16.9097 46.9674 16.8181C46.9643 16.7997 46.9643 16.7808 46.9674 16.7623C46.9709 16.7004 46.9709 16.6383 46.9674 16.5763V16.1298C46.9674 15.9344 47.0326 15.6461 47.0791 15.2833H49.0046L49.1256 14.2228C49.2156 13.4562 49.4358 12.7106 49.7767 12.0181C50.0853 11.3881 50.5115 10.8229 51.0326 10.353C51.5566 9.88871 52.1665 9.53159 52.8279 9.30187C53.5141 9.05581 54.2385 8.93299 54.9674 8.93908C55.5271 8.93181 56.0839 9.01989 56.6139 9.19954L56.307 10.9856C56.2908 11.0829 56.2415 11.1716 56.1674 11.2368C56.0944 11.2983 56.0086 11.3428 55.9163 11.367C55.8036 11.3964 55.6883 11.4151 55.5721 11.4228H55.1907C54.8433 11.4203 54.4978 11.4737 54.1674 11.5809C53.8585 11.6822 53.5758 11.8506 53.3395 12.074C53.0791 12.3381 52.88 12.6554 52.7535 13.0042C52.5832 13.4368 52.4744 13.8907 52.4279 14.353L52.3163 15.2833H55.5256L55.2 17.7391L52.093 17.7205ZM66.9767 29.4507H65.1163C64.9699 29.4836 64.8177 29.4805 64.6727 29.4419C64.5277 29.4032 64.3942 29.33 64.2837 29.2286C64.1731 29.1271 64.0887 29.0004 64.0377 28.8593C63.9867 28.7182 63.9705 28.5668 63.9907 28.4181L64.1023 26.4647C63.549 27.3803 62.8297 28.1848 61.9814 28.8368C61.2274 29.3939 60.3143 29.6939 59.3767 29.6926C58.8538 29.6942 58.3366 29.5832 57.8605 29.367C57.3848 29.1559 56.9645 28.8375 56.6326 28.4368C56.2525 27.9516 55.974 27.3947 55.8139 26.7995C55.5969 26.0725 55.4934 25.3163 55.507 24.5577C55.5058 22.0517 56.4607 19.6397 58.1767 17.8135C58.7256 17.2211 59.3513 16.7049 60.0372 16.2786C61.4757 15.3879 63.136 14.9204 64.8279 14.9298C65.4753 14.9298 66.1218 14.9763 66.7628 15.0693C67.3997 15.1671 68.0237 15.3355 68.6232 15.5716L66.9767 29.4507ZM60.7535 26.8461C61.1609 26.8368 61.5535 26.7 61.8791 26.4554C62.2824 26.1544 62.6343 25.79 62.9209 25.3763C63.2821 24.8645 63.5936 24.3194 63.8512 23.7484C64.1405 23.0972 64.3832 22.4256 64.5767 21.7391L65.1163 17.4135C64.8837 17.4005 64.6512 17.4005 64.4186 17.4135C63.6698 17.4079 62.9302 17.5902 62.2698 17.9437C61.5804 18.2785 60.9663 18.7501 60.4651 19.3298C59.984 19.9504 59.6127 20.6489 59.3674 21.3949C59.0895 22.206 58.9511 23.0584 58.9581 23.9158C58.9016 24.681 59.0662 25.4463 59.4325 26.1205C59.5652 26.3444 59.7546 26.5295 59.9816 26.6569C60.2087 26.7843 60.4653 26.8495 60.7256 26.8461H60.7535ZM70.1488 29.4507L71.8884 15.1251H73.6372C73.9266 15.1128 74.2127 15.1908 74.4558 15.3484C74.5658 15.4288 74.6534 15.5359 74.7104 15.6596C74.7673 15.7833 74.7918 15.9195 74.7814 16.0554V17.1437C74.7814 17.4879 74.7814 17.953 74.7256 18.567C75.2026 17.5882 75.8553 16.7053 76.6512 15.9623C77.2353 15.3917 78.0117 15.0599 78.8279 15.0321C79.2279 15.0358 79.6242 15.1214 79.9907 15.2833L79.3116 18.6042C78.8956 18.4178 78.4465 18.3166 77.9907 18.3065C77.5597 18.3194 77.1379 18.434 76.7596 18.6409C76.3813 18.8478 76.0573 19.1413 75.8139 19.4972C75.0488 20.6171 74.526 21.8845 74.2791 23.2181L73.4884 29.4507H70.1488ZM80.2884 29.4507L82.0372 15.1251H83.7767C84.0763 15.1084 84.3721 15.1968 84.6139 15.3763C84.7241 15.4743 84.8094 15.5971 84.8628 15.7346C84.9162 15.8721 84.9361 16.0203 84.9209 16.167V17.8228C85.4553 16.9562 86.1689 16.214 87.0139 15.6461C87.688 15.1781 88.4823 14.9133 89.3023 14.8833C89.6937 14.8643 90.0844 14.9339 90.4452 15.087C90.806 15.24 91.1276 15.4724 91.386 15.767C91.9637 16.49 92.2902 17.3814 92.3163 18.3065C92.8494 17.2856 93.6101 16.4008 94.5395 15.7205C95.3198 15.1758 96.2484 14.8836 97.2 14.8833C97.6688 14.8583 98.137 14.9438 98.5668 15.1329C98.9966 15.3219 99.3759 15.6092 99.6744 15.9716C100.312 16.8805 100.621 17.9799 100.549 19.0879V19.6833C100.549 19.8972 100.549 20.1019 100.493 20.3158L99.4232 29.4228H96.0186L96.493 25.4042C96.6232 24.2972 96.7256 23.3763 96.8093 22.6135L97.0046 20.874C97.0046 20.4554 97.0884 20.1298 97.107 19.9437C97.1256 19.7577 97.107 19.5623 97.107 19.4786V19.2926C97.1414 18.8703 97.0438 18.4478 96.8279 18.0833C96.7142 17.951 96.5703 17.8481 96.4083 17.7834C96.2464 17.7186 96.0712 17.6938 95.8977 17.7112C95.5352 17.7136 95.1795 17.8098 94.8651 17.9902C94.5107 18.2042 94.1963 18.4786 93.9349 18.7995C93.6074 19.2005 93.3265 19.6368 93.0977 20.1019C92.8279 20.66 92.6046 21.2386 92.4279 21.8321L91.4977 29.4321H88.1302L89.2093 20.3251V19.7763V19.2926C89.2412 18.8716 89.1473 18.4507 88.9395 18.0833C88.8266 17.95 88.6828 17.8464 88.5207 17.7816C88.3585 17.7167 88.1829 17.6925 88.0093 17.7112C87.6358 17.7157 87.2701 17.8184 86.9488 18.0088C86.5886 18.2304 86.2731 18.5175 86.0186 18.8554C85.6837 19.2647 85.4018 19.714 85.1814 20.1949C84.9051 20.7605 84.6781 21.3484 84.5023 21.953L83.5721 29.3949L80.2884 29.4507ZM111.851 17.8321C111.775 17.953 111.677 18.0609 111.563 18.1484C111.452 18.2087 111.326 18.2377 111.2 18.2321C111.026 18.2282 110.857 18.1801 110.707 18.0926L110.13 17.7856C109.889 17.6583 109.637 17.5525 109.377 17.4693C109.045 17.3698 108.7 17.3227 108.353 17.3298C107.749 17.2907 107.15 17.4652 106.66 17.8228C106.475 17.971 106.326 18.1594 106.225 18.3738C106.123 18.5881 106.072 18.8228 106.074 19.06C106.069 19.3251 106.154 19.5847 106.316 19.7949C106.499 20.0042 106.716 20.18 106.958 20.3158C107.256 20.4795 107.567 20.6163 107.888 20.7251L108.921 21.1344C109.273 21.2768 109.619 21.4386 109.953 21.6181C110.294 21.7923 110.607 22.0147 110.884 22.2786C111.149 22.5484 111.364 22.8628 111.516 23.2088C111.686 23.6247 111.768 24.0712 111.758 24.5205C111.762 25.2001 111.622 25.8728 111.348 26.4947C111.074 27.1166 110.671 27.6738 110.167 28.1298C109.628 28.6219 108.995 29.0014 108.307 29.2461C107.53 29.5311 106.707 29.6698 105.879 29.6554C105.435 29.66 104.992 29.6163 104.558 29.5251C104.149 29.4431 103.75 29.3184 103.367 29.153C103.01 29.0047 102.67 28.8176 102.353 28.5949C102.067 28.3968 101.807 28.1622 101.581 27.8972L102.419 26.5856C102.51 26.4386 102.634 26.314 102.781 26.2228C102.939 26.1381 103.115 26.0963 103.293 26.1019C103.485 26.0991 103.672 26.1614 103.823 26.2786C103.981 26.3995 104.167 26.5391 104.381 26.6786C104.623 26.8395 104.883 26.9735 105.153 27.0786C105.53 27.2088 105.927 27.2693 106.326 27.2554C106.667 27.2628 107.006 27.2126 107.33 27.1065C107.604 27.0163 107.856 26.874 108.074 26.6879C108.27 26.5207 108.425 26.312 108.53 26.0771C108.635 25.8422 108.686 25.5869 108.679 25.3298C108.692 25.0507 108.61 24.7754 108.446 24.5484C108.272 24.3234 108.054 24.1367 107.805 23.9995C107.509 23.8349 107.197 23.7009 106.874 23.5995L105.842 23.2274C105.496 23.0972 105.157 22.9484 104.828 22.7809C104.487 22.62 104.173 22.4066 103.898 22.1484C103.626 21.8843 103.411 21.5678 103.265 21.2181C103.094 20.7896 103.011 20.3307 103.023 19.8693C103.021 19.2313 103.144 18.5991 103.386 18.0088C103.624 17.4079 103.989 16.8653 104.456 16.4181C104.952 15.9334 105.54 15.5538 106.186 15.3019C106.936 15.0105 107.735 14.8683 108.54 14.8833C109.314 14.8687 110.084 15.0084 110.805 15.2943C111.525 15.5801 112.181 16.0064 112.735 16.5484L111.851 17.8321ZM113.414 29.4507L115.944 8.71582H119.302L118.177 18.0181C118.78 17.1448 119.536 16.3884 120.409 15.7856C121.183 15.2495 122.101 14.9609 123.042 14.9577C123.602 14.9508 124.158 15.065 124.67 15.2926C125.16 15.5099 125.588 15.8456 125.916 16.2693C126.29 16.7661 126.562 17.3316 126.716 17.9344C126.914 18.7028 127.008 19.4944 126.995 20.2879C127.009 21.8708 126.692 23.4391 126.065 24.8926C125.77 25.5716 125.402 26.2181 124.967 26.8181C124.565 27.3863 124.089 27.8992 123.553 28.3437C123.04 28.7453 122.469 29.0683 121.86 29.3019C121.271 29.5452 120.638 29.6686 120 29.6647C119.343 29.6823 118.692 29.543 118.099 29.2582C117.507 28.9735 116.992 28.5515 116.595 28.0274L116.484 28.5019C116.468 28.6445 116.424 28.7825 116.354 28.9074C116.283 29.0324 116.188 29.1417 116.074 29.2288C115.96 29.3158 115.83 29.3787 115.691 29.4137C115.551 29.4486 115.407 29.4549 115.265 29.4321L113.414 29.4507ZM121.702 17.6181C121.287 17.6295 120.885 17.7657 120.549 18.0088C120.116 18.3102 119.73 18.674 119.405 19.0879C119.012 19.5877 118.672 20.1271 118.391 20.6972C118.07 21.3376 117.802 22.0034 117.591 22.6879L117.209 26.1019C117.505 26.4321 117.879 26.6814 118.298 26.8274C118.686 26.9651 119.095 27.0377 119.507 27.0414C120.114 27.0422 120.704 26.8391 121.181 26.4647C121.706 26.0581 122.145 25.5524 122.474 24.9763C122.845 24.3261 123.123 23.6274 123.302 22.9019C123.498 22.1484 123.597 21.3735 123.6 20.5949C123.652 19.8159 123.481 19.0383 123.107 18.353C122.96 18.1164 122.752 17.9235 122.505 17.7943C122.258 17.665 121.981 17.6042 121.702 17.6181ZM132.772 33.4135C132.678 33.6304 132.522 33.8143 132.323 33.9419C132.124 34.0695 131.892 34.1349 131.656 34.1298H129.098L132.279 28.3623L128.67 15.1344H131.553C131.656 15.1268 131.76 15.1402 131.857 15.1738C131.955 15.2074 132.045 15.2604 132.121 15.3298C132.246 15.4526 132.336 15.607 132.381 15.7763L134.14 23.2181C134.195 23.46 134.233 23.7019 134.27 23.9344C134.307 24.167 134.326 24.3995 134.344 24.6414C134.446 24.3995 134.549 24.167 134.66 23.9251L134.986 23.2088L138.521 15.767C138.612 15.5828 138.75 15.4256 138.921 15.3112C139.083 15.2014 139.273 15.14 139.47 15.1344H142.26L132.772 33.4135Z" fill="black"/>
</g>
</g>
<defs>
<clipPath id="clip0_298_12125">
<rect width="142.326" height="40" fill="white"/>
</clipPath>
</defs>
</svg>
