<svg width="40" height="40" viewBox="0 0 40 40" fill="none" xmlns="http://www.w3.org/2000/svg">
<g clip-path="url(#clip0_291_4143)">
<path d="M38.1816 0.240234H1.8184C0.946674 0.240234 0.24 0.946908 0.24 1.81863V38.1818C0.24 39.0536 0.946674 39.7602 1.8184 39.7602H38.1816C39.0533 39.7602 39.76 39.0536 39.76 38.1818V1.81863C39.76 0.946908 39.0533 0.240234 38.1816 0.240234Z" fill="#5C2682"/>
<path d="M7.8748 16.1721V17.6321H11.1044V18.9765H7.8748V21.5969H6.3856V14.8281H11.5392V16.1721H7.8748Z" fill="white"/>
<path d="M18.134 21.0071C17.9443 21.1571 17.7384 21.2852 17.52 21.3891C17.2873 21.4984 17.0422 21.579 16.79 21.6291C16.497 21.6867 16.199 21.7143 15.9004 21.7115C15.4259 21.7158 14.9554 21.6237 14.5176 21.4407C14.1052 21.2689 13.7306 21.0176 13.4152 20.7011C13.1026 20.3836 12.8561 20.0073 12.69 19.5939C12.5145 19.1609 12.4257 18.6976 12.4288 18.2303V18.2111C12.4253 17.745 12.514 17.2828 12.69 16.8511C12.8583 16.4376 13.1045 16.0602 13.4152 15.7395C13.7313 15.4157 14.1095 15.1591 14.5272 14.9851C14.9813 14.7979 15.4688 14.7051 15.96 14.7123C16.2502 14.7101 16.54 14.736 16.8252 14.7895C17.0687 14.8361 17.3069 14.9074 17.536 15.0023C17.744 15.0901 17.9419 15.2004 18.126 15.3311C18.305 15.459 18.4731 15.6013 18.6288 15.7567L17.68 16.8491C17.4377 16.6264 17.166 16.4379 16.8724 16.2891C16.5844 16.1508 16.2682 16.0814 15.9488 16.0863C15.6774 16.0838 15.4086 16.1399 15.1608 16.2507C14.9235 16.357 14.7111 16.5118 14.5372 16.7051C14.3611 16.9018 14.2234 17.1297 14.1312 17.3771C14.0332 17.6383 13.984 17.9153 13.986 18.1943V18.2135C13.9843 18.494 14.0335 18.7725 14.1312 19.0355C14.222 19.2837 14.3576 19.5131 14.5312 19.7123C14.7083 19.9126 14.9265 20.0725 15.1709 20.1809C15.4153 20.2894 15.6802 20.3439 15.9476 20.3407C16.3345 20.3407 16.6617 20.2698 16.9292 20.1279C17.2192 19.9701 17.4873 19.7751 17.7268 19.5479L18.6744 20.5051C18.5072 20.6859 18.3266 20.8537 18.134 21.0071Z" fill="white"/>
<path d="M25.1636 21.5969V17.1777L23.2584 20.0689H23.2184L21.3328 17.2069V21.5969H19.8648V14.8281H21.4696L23.2488 17.6905L25.028 14.8281H26.6332V21.5969H25.1636Z" fill="white"/>
<path d="M33.8228 20.5525C33.7031 20.7853 33.5272 20.9847 33.3112 21.1325C33.068 21.2965 32.7969 21.4146 32.5112 21.4809C32.1705 21.5615 31.8213 21.6005 31.4712 21.5969H28.2576V14.8281H31.3948C32.0895 14.8281 32.6347 14.9861 33.0304 15.3021C33.4261 15.6181 33.6241 16.0436 33.6244 16.5785V16.5997C33.6272 16.7733 33.6027 16.9462 33.552 17.1121C33.5069 17.2537 33.4423 17.3884 33.36 17.5121C33.2817 17.6294 33.1874 17.7352 33.08 17.8265C32.9753 17.9162 32.861 17.994 32.7392 18.0585C33.1304 18.2071 33.4384 18.4085 33.6632 18.6629C33.888 18.9173 34.0003 19.2696 34 19.7197V19.7389C34.0069 20.0204 33.9461 20.2994 33.8228 20.5525ZM32.1544 16.8297C32.1544 16.6041 32.0707 16.4317 31.9032 16.3125C31.7357 16.1933 31.494 16.1337 31.178 16.1337H29.708V17.5645H31.08C31.4088 17.5645 31.6699 17.5081 31.8632 17.3953C32.0565 17.2825 32.1532 17.1004 32.1532 16.8489L32.1544 16.8297ZM32.5316 19.5373C32.5351 19.4332 32.5131 19.3298 32.4676 19.2362C32.4221 19.1425 32.3544 19.0613 32.2704 18.9997C32.0963 18.8677 31.8163 18.8011 31.4304 18.7997H29.7104V20.2889H31.48C31.8088 20.2889 32.0667 20.2293 32.2536 20.1101C32.4405 19.9909 32.5339 19.8056 32.5336 19.5541L32.5316 19.5373Z" fill="white"/>
<path d="M33.8888 25.9346V29.249H6.2376V27.5058C6.23755 27.2994 6.27815 27.0951 6.35709 26.9044C6.43604 26.7138 6.55177 26.5406 6.69768 26.3946C6.84359 26.2487 7.01682 26.133 7.20747 26.0541C7.39812 25.9751 7.60245 25.9345 7.8088 25.9346H33.8888Z" fill="#FAB613"/>
<path d="M6.2376 30.3223H33.8888V33.6367H7.8088C7.60242 33.6367 7.39805 33.5961 7.20737 33.5171C7.0167 33.4382 6.84345 33.3224 6.69754 33.1764C6.55162 33.0305 6.4359 32.8572 6.35698 32.6665C6.27806 32.4758 6.2375 32.2714 6.2376 32.0651V30.3223Z" fill="#FAB613"/>
</g>
<defs>
<clipPath id="clip0_291_4143">
<rect width="40" height="40" fill="white"/>
</clipPath>
</defs>
</svg>
