<svg width="160" height="40" viewBox="0 0 160 40" fill="none" xmlns="http://www.w3.org/2000/svg">
<g clip-path="url(#clip0_311_484)">
<path fill-rule="evenodd" clip-rule="evenodd" d="M144.4 29.3944C144.4 30.1272 144.684 30.7445 145.252 31.2464C145.821 31.7487 146.552 31.9996 147.444 31.9996C148.879 31.9996 150.097 31.5109 151.098 30.534C152.098 29.5576 152.6 28.2553 152.6 26.6274V24.9996C151.03 25.3796 149.785 25.6374 148.865 25.7724C145.888 26.2074 144.4 27.4148 144.4 29.3944ZM138.8 30.0397C138.8 27.8291 139.65 25.9956 141.349 24.5403C143.048 23.0845 145.542 22.1138 148.834 21.6286C151.531 21.1973 153.095 20.9145 153.527 20.7794V19.5255C153.527 18.5287 153.182 17.7937 152.495 17.3212C151.807 16.8506 150.91 16.6139 149.804 16.6139C147.268 16.6139 145.084 17.6117 143.25 19.6064L139.447 16.3311C142.09 13.1765 145.516 11.5996 149.724 11.5996C153.445 11.5996 156.089 12.4895 157.653 14.2687C159.217 16.0484 160 18.5693 160 21.8305V37.3996H153.729V34.1641C153.243 35.0815 152.434 35.8494 151.301 36.4691C150.168 37.0888 148.874 37.3996 147.417 37.3996C144.774 37.3996 142.677 36.7189 141.126 35.357C139.574 33.9966 138.8 32.2236 138.8 30.0397ZM114.661 37.3994V2.59961H121.037V14.6708H121.158C122.611 13.1367 124.467 12.3692 126.727 12.3692C127.776 12.3692 128.766 12.5311 129.693 12.8539C130.621 13.1768 131.494 13.6814 132.316 14.3677C133.137 15.0545 133.789 16.0371 134.273 17.3146C134.757 18.5935 135 20.0942 135 21.8163V37.3994H128.542V22.5428C128.542 19.4209 127.547 17.8598 125.557 17.8598C124.238 17.8598 123.156 18.4451 122.309 19.6157C121.461 20.7868 121.037 22.1663 121.037 23.7545V37.3994H114.661ZM90.3341 31.4248L94.8538 28.7597C96.4945 31.0748 98.5526 32.2319 101.028 32.2319C102.05 32.2319 102.85 32.0096 103.429 31.5659C104.008 31.1217 104.297 30.5765 104.297 29.9303C104.297 29.7157 104.263 29.5011 104.196 29.2846C104.128 29.0695 104.021 28.8747 103.873 28.6993C103.725 28.5248 103.57 28.3706 103.409 28.2348C103.248 28.1009 103.025 27.9593 102.743 27.8109C102.461 27.664 102.211 27.5427 101.997 27.4475C101.781 27.3537 101.492 27.2401 101.129 27.1048C100.765 26.9704 100.463 26.8694 100.221 26.8022C99.9788 26.735 99.6421 26.634 99.2121 26.4996C98.7811 26.3643 98.4584 26.2575 98.2439 26.1763C96.1988 25.5035 94.5644 24.6287 93.3406 23.5523C92.1159 22.4759 91.5043 20.9017 91.5043 18.8287C91.5043 16.6223 92.4526 14.8722 94.3494 13.5802C96.2462 12.2888 98.4859 11.6426 101.068 11.6426C103.086 11.6426 105.016 12.1742 106.86 13.2376C108.702 14.3009 110.081 15.6934 110.996 17.4159L106.758 19.9186C105.036 17.8461 103.167 16.8103 101.149 16.8103C100.181 16.8103 99.4203 17.0124 98.8691 17.4159C98.3173 17.8195 98.042 18.3309 98.042 18.9495C98.042 19.2463 98.0951 19.5218 98.2033 19.7775C98.3106 20.0337 98.4922 20.269 98.7483 20.4836C99.0034 20.7002 99.2454 20.8877 99.4744 21.0491C99.703 21.2106 100.039 21.372 100.483 21.5334C100.927 21.6949 101.276 21.8234 101.533 21.9172C101.788 22.0114 102.198 22.1463 102.763 22.3208C103.328 22.4962 103.732 22.6238 103.974 22.7041C108.601 24.2652 110.915 26.7012 110.915 30.0115C110.915 32.0575 110.081 33.7999 108.413 35.2397C106.744 36.6791 104.35 37.3992 101.23 37.3992C98.7811 37.3992 96.595 36.854 94.6721 35.7646C92.7483 34.6742 91.3023 33.2276 90.3341 31.4248ZM80.0189 37.3994V12.3692H86.3948V37.3994H80.0189ZM79.9378 9.30243V2.68129H86.4349V9.30243H79.9378ZM58.6184 24.4807C58.6184 26.8761 59.0421 28.7132 59.889 29.9911C60.7364 31.27 61.8867 31.909 63.3395 31.909C64.7652 31.909 65.888 31.2497 66.7093 29.9302C67.5292 28.6127 67.9398 26.7958 67.9398 24.4807C67.9398 22.2743 67.5495 20.498 66.7697 19.152C65.989 17.8059 64.8459 17.1331 63.3395 17.1331C61.779 17.1331 60.6016 17.7991 59.8083 19.1317C59.0145 20.4632 58.6184 22.2472 58.6184 24.4807ZM52 24.4807C52 20.471 52.975 17.3288 54.9258 15.0543C56.8762 12.7802 59.3846 11.6425 62.452 11.6425C64.7116 11.6425 66.5276 12.4772 67.8992 14.1456V2.59985H74.3157V37.3996H68.0611V34.2502C67.5765 35.0849 66.8103 35.8186 65.7604 36.4508C64.7116 37.0825 63.5946 37.3996 62.4114 37.3996C61.12 37.3996 59.8755 37.1575 58.6788 36.6727C57.4811 36.1884 56.3713 35.4619 55.3495 34.4929C54.3267 33.5238 53.5132 32.1782 52.9083 30.4556C52.3029 28.7335 52 26.7417 52 24.4807Z" fill="black"/>
<path fill-rule="evenodd" clip-rule="evenodd" d="M0 0V20V28.0517L1.20389 26.8478L20 8.05445V20.08L5.89722 34.1794L0.0761111 40H20C31.0456 40 40 31.0456 40 20C40 8.95444 31.0456 0 20 0H0Z" fill="url(#paint0_linear_311_484)"/>
</g>
<defs>
<linearGradient id="paint0_linear_311_484" x1="3512.55" y1="502.752" x2="0.000247537" y2="4000" gradientUnits="userSpaceOnUse">
<stop stop-color="#FFB800"/>
<stop offset="1" stop-color="#FF3900"/>
</linearGradient>
<clipPath id="clip0_311_484">
<rect width="160" height="40" fill="white"/>
</clipPath>
</defs>
</svg>
