<svg width="93" height="40" viewBox="0 0 93 40" fill="none" xmlns="http://www.w3.org/2000/svg">
<g clip-path="url(#clip0_291_278)">
<g clip-path="url(#clip1_291_278)">
<path d="M90 19.401C90 19.1634 90 18.9174 90 18.6627C90 18.3912 89.9748 18.1281 89.924 17.8736C89.8901 17.619 89.8647 17.3644 89.8477 17.1099C89.8309 16.8552 89.7971 16.6176 89.7464 16.397H75.6174L71.3303 23.1431H82.1873C81.8658 24.2804 81.4007 25.3156 80.792 26.249C80.2001 27.1655 79.4899 27.963 78.6613 28.6419V28.6674C77.7988 29.3462 76.8432 29.8809 75.7949 30.2712C74.7634 30.6446 73.664 30.8314 72.4972 30.8314C72.4634 30.8314 72.4295 30.8314 72.3956 30.8314C72.3788 30.8314 72.3702 30.8314 72.3702 30.8314C70.8484 30.8314 69.4109 30.5259 68.058 29.9147C66.7051 29.3039 65.5469 28.4891 64.5827 27.4709C63.5851 26.4016 62.7989 25.1797 62.2237 23.805C61.6488 22.4304 61.3614 20.9624 61.3614 19.401C61.3614 19.384 61.3614 19.3755 61.3614 19.3755C61.3614 19.3585 61.3614 19.3331 61.3614 19.2991C61.3614 17.7547 61.6488 16.3036 62.2237 14.946C62.7989 13.5712 63.5935 12.3748 64.6082 11.3565C65.6059 10.3382 66.7814 9.52354 68.1342 8.91255C69.487 8.30158 70.9245 7.99609 72.4465 7.99609C72.4465 7.99609 72.4551 7.99609 72.4719 7.99609C72.4888 7.99609 72.4972 7.99609 72.4972 7.99609C72.4972 7.99609 72.506 7.99609 72.5225 7.99609C72.5564 7.99609 72.5732 7.99609 72.5732 7.99609C73.2159 7.99609 73.8501 8.05555 74.4758 8.1743C75.1184 8.2761 75.7356 8.42888 76.3275 8.63253L76.2006 8.58156C76.8095 8.8022 77.376 9.05678 77.9003 9.34527C78.4245 9.6338 78.9149 9.94777 79.3715 10.2872V10.2617L81.274 7.23231L83.1765 4.17743C82.4662 3.68525 81.7051 3.244 80.8935 2.85365C80.0987 2.4633 79.27 2.13236 78.4075 1.86083L78.2807 1.80986C77.4352 1.57226 76.5304 1.38556 75.5666 1.2498C74.6025 1.09705 73.6302 1.02068 72.6495 1.02068C72.6156 1.02068 72.5902 1.02068 72.5732 1.02068C72.5732 1.02068 72.5564 1.02068 72.5225 1.02068C72.5058 1.02068 72.4802 1.02068 72.4465 1.02068C72.4295 1.02068 72.4041 1.02068 72.3702 1.02068C71.0682 1.02068 69.7999 1.13947 68.5654 1.37709C67.3477 1.61468 66.164 1.97109 65.0141 2.44629L65.1663 2.39533C64.0501 2.8875 63.0103 3.45606 62.0462 4.10099C61.0824 4.74589 60.203 5.46719 59.4081 6.26485C58.4611 7.26616 57.6577 8.25051 56.9982 9.2179C56.3557 10.2192 55.823 11.1951 55.4004 12.1455C54.9775 13.0959 54.6308 14.0547 54.3603 15.0221C54.1065 15.9556 53.8783 16.8805 53.6754 17.797C53.2864 19.596 52.8805 21.3101 52.4579 22.9394C52.035 24.5686 51.164 26.0367 49.845 27.3435C49.3377 27.8696 48.7796 28.3532 48.1707 28.7946C47.579 29.2189 46.9616 29.5752 46.319 29.8637L46.2429 29.9146C45.6004 30.1694 44.9239 30.373 44.2136 30.5257C43.5202 30.6785 42.7848 30.7547 42.0068 30.7547C42.0068 30.7547 41.9899 30.7547 41.956 30.7547C41.9391 30.7547 41.9306 30.7547 41.9306 30.7547C40.358 30.7547 38.8783 30.4492 37.4915 29.8384C36.1049 29.2274 34.8872 28.3957 33.8387 27.3435C32.8241 26.3422 32.0125 25.1457 31.4036 23.7541C30.7949 22.3454 30.4905 20.8519 30.4905 19.2735C30.4905 17.746 30.7864 16.3035 31.3781 14.9457C31.9701 13.5711 32.7817 12.3746 33.8134 11.3563C34.8449 10.321 36.0541 9.49791 37.4408 8.88695C38.8275 8.259 40.3073 7.94502 41.88 7.94502C42.5395 7.94502 43.182 8.00449 43.8079 8.12324C44.4335 8.22504 45.0507 8.36931 45.6596 8.556H45.558C46.1669 8.7427 46.725 8.98029 47.2323 9.26881C47.7396 9.54035 48.23 9.84583 48.7035 10.1853H48.6527L50.5805 7.15585L52.5338 4.07551C51.8404 3.6003 51.0879 3.16754 50.2761 2.77719C49.4814 2.38685 48.6444 2.05591 47.765 1.78435H47.6634C46.8179 1.51281 45.9131 1.30916 44.9492 1.17338C44.0021 1.03762 43.0299 0.969727 42.0321 0.969727C42.0153 0.969727 41.9899 0.969727 41.956 0.969727C41.939 0.969727 41.9221 0.969727 41.9053 0.969727C41.9053 0.969727 41.8966 0.969727 41.8799 0.969727C41.863 0.969727 41.8545 0.969727 41.8545 0.969727C40.2817 0.969727 38.7599 1.1649 37.2885 1.55525C35.8342 1.92861 34.4645 2.45474 33.1792 3.13359L33.2554 3.10811C31.987 3.75304 30.8201 4.54219 29.7548 5.47563C28.6894 6.40905 27.7424 7.43584 26.9136 8.55596L26.863 8.58145C26.5247 7.56315 26.0342 6.6382 25.3916 5.8066C24.7491 4.95801 23.988 4.25371 23.1086 3.69365H23.0833C22.1532 3.08266 21.1301 2.60746 20.014 2.26804C18.898 1.91164 17.731 1.73343 16.5135 1.73343C16.4626 1.73343 16.4205 1.73343 16.3866 1.73343C16.3527 1.73343 16.3274 1.73343 16.3106 1.73343H0V37.0172H18.0101C18.044 37.0172 18.0777 37.0172 18.1116 37.0172C18.1455 37.0172 18.1709 37.0172 18.1877 37.0172C19.2701 37.0172 20.3016 36.8815 21.2825 36.61C22.2632 36.3554 23.1934 35.9905 24.0728 35.5152L23.9966 35.5407C24.8253 35.0825 25.5694 34.5395 26.2289 33.9115C26.9053 33.2666 27.4719 32.5537 27.9284 31.773L27.9791 31.6966C28.7909 32.6301 29.6956 33.4617 30.6932 34.1915C31.6911 34.9212 32.7481 35.5577 33.8641 36.1009L33.991 36.1262C35.1071 36.6354 36.3078 37.0342 37.5931 37.3226C38.8783 37.6282 40.2141 37.781 41.6009 37.781C41.6009 37.781 41.6096 37.781 41.6262 37.781C41.6431 37.781 41.6601 37.781 41.677 37.781C41.7109 37.781 41.7363 37.781 41.7531 37.781C41.77 37.781 41.7954 37.781 41.8293 37.781C43.402 37.781 44.9324 37.5859 46.4205 37.1954C47.9087 36.822 49.2955 36.2789 50.5806 35.5662L50.5045 35.6426C51.8235 34.9467 53.0158 34.1236 54.0811 33.1732C55.1466 32.2059 56.0936 31.1366 56.9222 29.9656L56.9476 29.8892C57.7594 31.0772 58.6894 32.1549 59.7377 33.1224C60.8032 34.0727 61.9532 34.8872 63.1876 35.5664L63.2637 35.6171C64.5491 36.296 65.9357 36.8221 67.4239 37.1955C68.912 37.5859 70.4594 37.7811 72.0659 37.7811C72.0659 37.7811 72.0746 37.7811 72.0914 37.7811C72.1082 37.7811 72.1336 37.7811 72.1675 37.7811C72.1842 37.7811 72.2013 37.7811 72.2181 37.7811C72.2351 37.7811 72.2435 37.7811 72.2435 37.7811C73.478 37.7811 74.6787 37.6539 75.8455 37.3992C77.0125 37.1445 78.1285 36.7799 79.194 36.3045C80.2763 35.8464 81.291 35.2862 82.2379 34.6244C83.185 33.9455 84.0559 33.1902 84.8506 32.3586C85.6623 31.5441 86.381 30.6445 87.0069 29.6602C87.6325 28.6927 88.1652 27.666 88.6047 26.5797C89.0446 25.4937 89.3828 24.3565 89.6196 23.1686C89.8731 21.9976 90 20.7756 90 19.5027C90 19.4857 90 19.4687 90 19.4517C90 19.4349 90 19.418 90 19.401ZM7.58467 16.0661V8.25066H16.2346C16.2515 8.25066 16.26 8.25066 16.26 8.25066C16.8013 8.25066 17.3 8.35246 17.7566 8.55615C18.2133 8.74285 18.6275 9.01438 18.9996 9.3708H18.9741C19.3293 9.72719 19.6 10.1345 19.786 10.5927C19.9888 11.051 20.0904 11.5432 20.0904 12.0693C20.0904 12.0693 20.0904 12.078 20.0904 12.0947C20.0904 12.1117 20.0904 12.1202 20.0904 12.1202C20.0904 12.1542 20.0904 12.1712 20.0904 12.1712C20.0904 12.1712 20.0904 12.1882 20.0904 12.2222C20.0904 12.7312 19.9888 13.2235 19.786 13.6986C19.6 14.1569 19.3378 14.5642 18.9996 14.9206H18.9741C18.619 15.277 18.2133 15.5571 17.7566 15.7607C17.3 15.9644 16.8013 16.0662 16.26 16.0662C16.26 16.0662 16.2513 16.0662 16.2346 16.0662L7.58467 16.0661ZM7.58467 30.5004V22.4814H17.9087C17.9256 22.4814 17.9341 22.4814 17.9341 22.4814C18.4922 22.4814 19.0165 22.5831 19.5069 22.7867C20.0141 22.9905 20.4624 23.2621 20.8512 23.6015C21.2232 23.9577 21.5194 24.3821 21.7391 24.8742C21.959 25.3664 22.0689 25.884 22.0689 26.4271C22.0689 26.4271 22.0689 26.4359 22.0689 26.4526C22.0689 27.0297 21.9589 27.5644 21.7391 28.0565C21.5194 28.5486 21.2149 28.9815 20.826 29.3547C20.454 29.7281 20.0141 30.0167 19.5069 30.2202C19.0165 30.424 18.4837 30.5259 17.9087 30.5259H7.58467V30.5004Z" fill="#197A56"/>
</g>
</g>
<defs>
<clipPath id="clip0_291_278">
<rect width="92.5" height="40" fill="white"/>
</clipPath>
<clipPath id="clip1_291_278">
<rect width="90" height="38.75" fill="white"/>
</clipPath>
</defs>
</svg>
