<svg width="138" height="40" viewBox="0 0 138 40" fill="none" xmlns="http://www.w3.org/2000/svg">
<g clip-path="url(#clip0_298_13195)">
<path fill-rule="evenodd" clip-rule="evenodd" d="M19.4475 0.101753C19.2573 0.21107 18.7703 0.689804 18.4194 1.11268C17.9105 1.72575 17.745 1.92142 17.5973 2.08488C17.512 2.17912 17.2642 2.47486 17.0463 2.74181C16.8283 3.00877 16.5559 3.33021 16.4411 3.45563C16.3259 3.5814 16.1303 3.81271 16.0059 3.96966C15.8811 4.12695 15.7115 4.32742 15.6286 4.41549C15.546 4.50322 15.4781 4.58684 15.4781 4.60089C15.4781 4.61494 15.4329 4.67217 15.3781 4.72803C15.3232 4.78388 15.1625 4.96825 15.021 5.13754C14.8798 5.30682 14.7191 5.49256 14.6643 5.55013C14.6091 5.6077 14.5642 5.66493 14.5642 5.67761C14.5642 5.69029 14.4878 5.78693 14.3946 5.89248L14.2246 6.08438L13.3806 6.0107C12.9166 5.97027 12.0804 5.89933 11.5228 5.85307C10.9653 5.8068 10.0527 5.73073 9.49517 5.68412C6.48946 5.43328 6.51756 5.43362 6.06453 5.66664C5.87091 5.76637 5.76605 5.87123 5.66633 6.06485C5.4333 6.51788 5.43296 6.48978 5.6838 9.49549C5.73041 10.053 5.80649 10.9656 5.85309 11.5232C5.89935 12.0807 5.97098 12.9165 6.0121 13.3809C6.08578 14.2081 6.08509 14.2259 5.97063 14.3048C5.90655 14.3486 5.76159 14.4703 5.64851 14.5744C5.43638 14.7708 5.3819 14.8171 4.85382 15.2495C4.68144 15.3907 4.43779 15.6001 4.31203 15.7149C4.1866 15.8297 3.95529 16.0257 3.798 16.1501C3.64105 16.2745 3.44058 16.4441 3.3525 16.5271C3.26443 16.61 3.16814 16.6779 3.13833 16.6779C3.10851 16.6779 3.08384 16.6971 3.08384 16.7207C3.0835 16.744 2.87823 16.9304 2.62738 17.1347C2.37653 17.3389 2.17092 17.5253 2.17092 17.5486C2.17058 17.5723 2.13391 17.5915 2.08936 17.5915C2.04481 17.5915 1.99992 17.6148 1.98964 17.6436C1.97902 17.672 1.7782 17.856 1.54346 18.052C1.30838 18.2484 1.08666 18.4372 1.04999 18.4715C1.01367 18.5058 0.81251 18.6857 0.603128 18.8711C-0.236112 19.6133 -0.243309 20.3785 0.582224 21.1198C0.712788 21.237 0.859801 21.3734 0.90949 21.423C0.958837 21.4727 1.21791 21.6907 1.48486 21.9076C1.75181 22.1242 1.98313 22.3164 1.99889 22.3346C2.01466 22.3528 2.29737 22.594 2.62738 22.8706C2.95704 23.1471 3.23565 23.3959 3.24593 23.4236C3.25655 23.4517 3.29939 23.4744 3.3412 23.4744C3.383 23.4744 3.42584 23.497 3.43646 23.5251C3.44674 23.5528 3.64824 23.7348 3.88367 23.9295C4.11944 24.1241 4.46384 24.4161 4.64923 24.5785C4.83463 24.7409 5.05532 24.925 5.13962 24.988C5.22392 25.0507 5.47237 25.2625 5.69134 25.4585L6.08955 25.8149L6.01758 26.4294C5.97783 26.7676 5.94493 27.1853 5.94425 27.358C5.94356 27.5308 5.90415 28.0705 5.85652 28.5574C5.80888 29.0444 5.73212 29.9056 5.68552 30.471C5.63925 31.0364 5.57449 31.8202 5.54159 32.2129C5.37264 34.2361 5.7239 34.6449 7.50244 34.4959C7.88385 34.464 8.65867 34.3996 9.2241 34.3526C10.1764 34.2735 11.9855 34.1172 13.5214 33.9815C14.1471 33.9263 14.3928 33.963 14.3928 34.1114C14.3928 34.1354 14.4377 34.2015 14.4929 34.2584C14.5477 34.3153 14.7085 34.4996 14.8496 34.6675C14.9912 34.8358 15.1581 35.0311 15.2211 35.1014C15.376 35.2744 15.6885 35.6497 16.0508 36.0966C16.2163 36.3008 16.3818 36.4937 16.4192 36.5249C16.4565 36.5564 16.6631 36.8008 16.879 37.0677C17.2443 37.5197 17.4332 37.7414 17.6511 37.9731C17.6994 38.0249 17.8536 38.2085 17.9935 38.3812C18.2851 38.7418 18.247 38.6975 18.7337 39.2421C19.5318 40.1358 20.5496 40.2818 21.0221 39.5704C21.0602 39.5131 21.4464 39.0587 21.615 38.8723C21.6794 38.801 21.8477 38.6054 21.9892 38.4371C22.1304 38.2692 22.2911 38.0848 22.3459 38.0279C22.4011 37.9711 22.446 37.9114 22.446 37.8957C22.446 37.8799 22.4909 37.8206 22.5461 37.7637C22.6009 37.7068 22.7616 37.5221 22.9028 37.3539C23.0443 37.1853 23.205 37.0078 23.2599 36.9591C23.3147 36.9108 23.3599 36.8381 23.3599 36.798C23.3599 36.7576 23.3791 36.7247 23.4028 36.7247C23.4261 36.7247 23.5741 36.565 23.7311 36.37C23.888 36.1754 24.0809 35.9482 24.1594 35.8652C24.3057 35.7107 24.3455 35.6637 24.7876 35.1247C24.9288 34.9527 25.1159 34.7344 25.2036 34.6401C25.2913 34.5459 25.4585 34.3444 25.5751 34.1922L25.7872 33.9154L26.0726 33.9493C26.2299 33.9678 26.5767 33.9973 26.8437 34.0144C27.1106 34.0312 27.856 34.0942 28.5002 34.1542C29.1441 34.2142 30.1722 34.304 30.7846 34.3536C31.3973 34.4037 32.1947 34.4702 32.5566 34.5017C34.4417 34.6655 34.6957 34.2203 34.4164 31.2421C34.3677 30.7236 34.2886 29.824 34.2406 29.2428C34.1926 28.6616 34.1001 27.65 34.035 26.9944C33.9699 26.3389 33.938 25.7848 33.964 25.7628C33.9904 25.7409 34.1529 25.609 34.3252 25.4698C34.4976 25.3304 34.6905 25.1635 34.7536 25.0987C34.8166 25.0339 35.0483 24.8383 35.2683 24.6635C35.488 24.4887 35.7333 24.2845 35.8135 24.2098C35.8934 24.1351 36.099 23.9586 36.2703 23.8174C36.4417 23.6762 36.6106 23.5347 36.6459 23.5032C36.6812 23.4716 36.833 23.3431 36.9834 23.2174C37.1335 23.0916 37.2847 22.9631 37.3189 22.9316C37.3532 22.9 37.5228 22.7599 37.6956 22.6201C37.8683 22.4802 38.0509 22.326 38.1013 22.2777C38.2603 22.1249 38.5129 21.9121 38.8377 21.6578C40.4634 20.3857 40.4754 19.71 38.895 18.3981C38.6595 18.2025 38.4025 17.9849 38.3237 17.9139C38.2452 17.8433 37.9635 17.6069 37.698 17.3886C37.4324 17.1703 37.1497 16.9308 37.0698 16.8561C36.99 16.7814 36.7576 16.5853 36.5534 16.4208C36.3491 16.256 36.1165 16.06 36.0366 15.9853C35.9098 15.8671 35.6346 15.6351 35.1309 15.2214C35.0541 15.1584 34.9445 15.0621 34.8872 15.0073C34.8297 14.9521 34.7714 14.9072 34.7577 14.9072C34.744 14.9072 34.622 14.8075 34.4866 14.6858C34.3509 14.5638 34.1669 14.4024 34.0771 14.3267L33.914 14.1889L34.0319 13.0488C34.0963 12.4217 34.1899 11.3947 34.2396 10.7665C34.2892 10.138 34.3694 9.21277 34.4178 8.71039C34.709 5.68583 34.4722 5.33629 32.2698 5.53814C31.9398 5.56829 31.1687 5.63306 30.5564 5.68207C29.4508 5.77014 28.2795 5.86952 26.6549 6.0131L25.8095 6.08781L25.5429 5.77116C25.3962 5.59708 25.2197 5.39044 25.1508 5.31196C25.0816 5.23349 24.9185 5.04056 24.7876 4.88361C24.4747 4.50768 24.0881 4.05225 24.0165 3.97446C23.985 3.94053 23.8435 3.77159 23.7023 3.59956C23.5611 3.42719 23.3942 3.22363 23.3311 3.14687C23.2684 3.07045 23.1783 2.96559 23.1314 2.91418C23.0841 2.86244 22.9052 2.65477 22.7332 2.45258C22.5615 2.2504 22.3637 2.0208 22.2942 1.94232C22.2246 1.86385 22.0091 1.60683 21.8151 1.37107C21.6208 1.13564 21.4392 0.934139 21.4114 0.923516C21.3837 0.913235 21.3607 0.882736 21.3607 0.856007C21.3607 0.777531 20.8206 0.246024 20.6112 0.118202C20.3587 -0.0356645 19.7028 -0.0449171 19.4475 0.101753ZM20.3964 5.46891C20.5893 5.71256 20.7696 5.92023 20.797 5.93086C20.8244 5.94114 20.8467 5.97335 20.8467 6.00214C20.8467 6.03092 20.8919 6.10151 20.9467 6.15909C21.1876 6.4113 21.4179 6.69779 21.4179 6.74542C21.4179 6.77387 21.4388 6.79683 21.4642 6.79683C21.4895 6.79683 21.6359 6.96817 21.7894 7.17721C22.3541 7.94654 22.4919 8.03632 22.7674 7.81666C22.8031 7.78822 23.0731 7.64086 23.3671 7.48905C23.6615 7.33724 24.0436 7.12923 24.216 7.02677C24.3887 6.92465 24.5813 6.81773 24.6443 6.78963C24.7074 6.76153 24.9647 6.62445 25.2159 6.48532C25.4675 6.34619 25.6881 6.23071 25.7067 6.22899C25.7392 6.22591 25.7982 6.39828 25.9681 6.99695C26.1378 7.59392 26.234 7.92084 26.33 8.2248C26.3845 8.39752 26.4674 8.66755 26.514 8.8245C26.561 8.98145 26.6453 9.25663 26.7015 9.4362L26.8036 9.7621L27.2662 9.73194C27.5208 9.71515 27.9979 9.66409 28.3268 9.61851C28.6555 9.57259 29.2336 9.51056 29.6119 9.48006C29.9899 9.44991 30.372 9.40947 30.4607 9.39062L30.6222 9.35601L30.5875 9.83269C30.556 10.2658 30.5214 10.6147 30.3302 12.4227C30.2401 13.2712 30.2192 13.2071 30.6276 13.3288C30.824 13.387 31.1259 13.4802 31.2986 13.5351C31.6745 13.655 32.0309 13.7602 32.8695 13.9994C33.2149 14.0978 33.5679 14.2037 33.6536 14.2352L33.8095 14.2921L33.573 14.728C33.4432 14.9679 33.2523 15.3184 33.1495 15.5069C33.0463 15.6954 32.8955 15.9781 32.8136 16.135C32.7321 16.2923 32.607 16.5236 32.5361 16.6491C32.4651 16.7748 32.3226 17.0312 32.2191 17.219L32.0309 17.5603L32.193 17.696C32.2825 17.7707 32.41 17.8776 32.4768 17.9338C32.5436 17.9897 32.7739 18.1733 32.9888 18.3419C33.2033 18.5102 33.4442 18.709 33.524 18.783C33.6039 18.857 33.7783 18.9961 33.9116 19.0924C34.0453 19.1887 34.1546 19.2884 34.1546 19.3148C34.1546 19.3409 34.193 19.3621 34.2402 19.3621C34.2872 19.3621 34.3259 19.3827 34.3259 19.408C34.3259 19.4334 34.4791 19.5681 34.6662 19.7079C35.0771 20.0143 35.0719 19.9776 34.7392 20.2312C34.5898 20.3453 34.4034 20.4937 34.3252 20.5608C34.0058 20.8347 33.9373 20.8912 33.5261 21.2191C33.2907 21.4073 33.072 21.5892 33.0408 21.6235C33.0093 21.6581 32.8215 21.8082 32.6234 21.9576C31.9977 22.4299 32.0097 22.4014 32.2503 22.8411C32.3637 23.0481 32.5237 23.3459 32.606 23.5028C32.6879 23.6601 32.7694 23.8013 32.7869 23.8171C32.8044 23.8328 32.8702 23.9483 32.9329 24.0741C33.1505 24.5093 33.6556 25.4452 33.7334 25.5576C33.8489 25.7234 33.8335 25.7498 33.5977 25.7926C33.4798 25.8139 33.2934 25.8636 33.1834 25.9033C33.0737 25.9427 32.778 26.0308 32.5268 26.099C32.2753 26.1672 31.9799 26.2573 31.8699 26.2991C31.7599 26.3409 31.5029 26.4194 31.2986 26.4736C31.0944 26.5277 30.8305 26.6076 30.7123 26.6507C30.5937 26.6943 30.446 26.7299 30.3836 26.7299C30.2503 26.7299 30.2462 26.7899 30.3261 27.5472C30.4721 28.9296 30.5557 29.7675 30.5886 30.1797L30.6246 30.631L30.3192 30.592C30.1513 30.5704 29.7308 30.5293 29.3854 30.5008C29.04 30.472 28.5643 30.423 28.3289 30.3918C28.0931 30.3607 27.6531 30.3185 27.3509 30.2983L26.8012 30.2613L26.7306 30.4518C26.6915 30.5567 26.6394 30.7321 26.6148 30.8421C26.5898 30.9521 26.5428 31.119 26.5103 31.2133C26.4774 31.3075 26.3584 31.693 26.2454 32.07C26.1326 32.4469 26.0055 32.8712 25.963 33.0124C25.9205 33.1539 25.8557 33.3801 25.8191 33.5151C25.7416 33.7999 25.7094 33.7995 25.1875 33.5072C25.0148 33.4102 24.7835 33.2834 24.6735 33.2248C24.5634 33.1666 24.2938 33.0196 24.0737 32.8989C23.8537 32.778 23.4812 32.5806 23.2455 32.4603C23.01 32.34 22.8038 32.2239 22.7876 32.2023C22.5831 31.9319 22.4384 32.0148 21.871 32.7269C21.6081 33.0566 21.3782 33.3393 21.3597 33.3551C21.3415 33.3708 21.1736 33.5757 20.9865 33.8101C20.7997 34.0445 20.6082 34.2765 20.5612 34.3259C20.5139 34.3752 20.3854 34.536 20.2758 34.6833C20.0037 35.0472 20.0205 35.0538 19.5047 34.3831C19.3474 34.1792 19.1805 33.9729 19.1332 33.9253C19.0863 33.8777 18.9064 33.659 18.734 33.4397C18.5613 33.2204 18.3814 32.9976 18.3341 32.9445C18.2868 32.8914 18.1196 32.6813 17.9626 32.4774C17.8053 32.2735 17.6436 32.0926 17.6028 32.0751C17.5394 32.0477 16.989 32.2896 16.9058 32.3815C16.8904 32.3986 16.7358 32.487 16.5631 32.5778C16.3904 32.6687 16.0562 32.8469 15.8208 32.974C15.5851 33.1015 15.2897 33.257 15.1639 33.3198C15.0381 33.3828 14.9226 33.4486 14.9069 33.4661C14.8911 33.4836 14.7438 33.5668 14.5796 33.6515L14.2811 33.8047L14.2157 33.5658C14.1794 33.4342 14.118 33.2238 14.0789 33.098C14.0001 32.8455 13.9093 32.5357 13.6513 31.6416C13.556 31.312 13.4419 30.9264 13.3977 30.7849C13.3535 30.6437 13.301 30.4549 13.2815 30.3658C13.2575 30.2565 13.2191 30.2136 13.1647 30.2346C13.1198 30.2517 12.8833 30.2808 12.6386 30.299C12.394 30.3175 11.8597 30.3685 11.4516 30.4131C10.0808 30.5622 9.41532 30.6242 9.39613 30.6047C9.38551 30.594 9.41429 30.251 9.45987 29.8425C9.79536 26.8505 9.80324 26.7299 9.6648 26.7299C9.6062 26.7299 9.44479 26.6943 9.30566 26.6511C9.16653 26.6076 8.89855 26.5263 8.71007 26.4701C8.52159 26.4143 8.22585 26.3238 8.05314 26.2693C7.88043 26.2152 7.58469 26.1257 7.39621 26.0706C7.20773 26.0157 6.95689 25.9359 6.83832 25.8934C6.71975 25.8509 6.57685 25.8159 6.52065 25.8159C6.31298 25.8159 6.2184 25.6895 6.30715 25.5305C6.35102 25.452 6.45519 25.2591 6.53881 25.1021C6.62208 24.9452 6.74887 24.7139 6.8205 24.5881C6.89177 24.4623 7.06655 24.1412 7.20876 23.8743C7.69469 22.9614 7.76734 22.8294 7.82011 22.766C8.00482 22.5436 7.95719 22.4083 7.58674 22.1036C7.38764 21.9402 7.16078 21.7513 7.08231 21.6842C7.00383 21.6167 6.7595 21.422 6.53949 21.2514C6.31983 21.0804 6.10634 20.9073 6.06521 20.8662C6.02409 20.8254 5.8315 20.6708 5.63686 20.5231C5.07725 20.0979 4.98232 19.9927 5.08719 19.9135C5.4237 19.6592 5.92163 19.2703 5.97337 19.2213C6.0073 19.1887 6.14643 19.0722 6.28248 18.9622C6.41852 18.8522 6.55766 18.7364 6.59192 18.7045C6.62585 18.6726 6.76944 18.5572 6.91097 18.4478C7.05215 18.3389 7.21938 18.2018 7.2821 18.1439C7.34481 18.0856 7.50518 17.9595 7.63815 17.8629C7.95822 17.6312 7.97501 17.5452 7.77248 17.183C7.67858 17.0151 7.53671 16.7491 7.45687 16.5922C7.37736 16.4349 7.18272 16.0751 7.02439 15.7924C6.86642 15.5096 6.69747 15.2012 6.6495 15.107C6.60118 15.0127 6.48775 14.7958 6.39728 14.6245C6.21017 14.2705 6.21428 14.2444 6.4689 14.1941C6.57068 14.1738 6.76944 14.1207 6.91097 14.0758C7.05215 14.0309 7.43767 13.9165 7.76768 13.8216C8.09735 13.727 8.52159 13.6005 8.71007 13.5409C8.89855 13.4813 9.21382 13.385 9.41087 13.3274L9.76932 13.2222L9.73745 12.8226C9.69872 12.3415 9.56268 11.0228 9.45439 10.0815C9.41087 9.70487 9.37968 9.39268 9.38551 9.38788C9.40024 9.37452 10.3546 9.47047 11.4516 9.59486C11.9855 9.65586 12.6081 9.71926 12.8353 9.73639L13.2483 9.76758L13.2832 9.61028C13.3028 9.52359 13.3514 9.34984 13.3915 9.22442C13.4316 9.09865 13.5053 8.85432 13.5553 8.6816C13.7246 8.09595 13.9981 7.16933 14.0779 6.91128C14.1214 6.76975 14.1735 6.571 14.1937 6.46922C14.2451 6.20946 14.289 6.20158 14.632 6.39143C14.7989 6.48395 15.1283 6.65667 15.3637 6.77558C15.5994 6.89449 15.8277 7.01854 15.8712 7.05144C15.9695 7.12581 16.8324 7.59597 17.2354 7.79507C17.5881 7.96916 17.6114 7.96093 17.9417 7.53943C18.0771 7.36671 18.2207 7.20462 18.2608 7.17961C18.3008 7.15459 18.3337 7.09668 18.3337 7.0511C18.3337 7.00552 18.3543 6.96817 18.379 6.96817C18.404 6.96817 18.5178 6.84617 18.6315 6.6971C18.7453 6.54769 18.905 6.34859 18.9866 6.25435C19.0681 6.16011 19.321 5.8469 19.5482 5.55836C20.0475 4.92439 19.9714 4.93261 20.3964 5.46891ZM94.8369 8.92457C94.7276 9.04931 94.7238 9.16376 94.7087 12.7805L94.6933 16.5082L94.3948 16.2848C94.0788 16.0487 93.3558 15.6854 93.0679 15.619C92.9737 15.597 92.7811 15.546 92.6396 15.5052C92.0282 15.3294 91.0663 15.2351 90.1753 15.2639C89.2034 15.2955 88.7021 15.3825 87.8707 15.6642C87.0291 15.9493 85.8499 16.7598 85.4335 17.3396C85.3338 17.4784 85.2314 17.5915 85.205 17.5915C85.1789 17.5915 85.1577 17.6302 85.1577 17.6771C85.1577 17.7244 85.1385 17.7631 85.1148 17.7631C85.0751 17.7635 84.9665 17.9263 84.7711 18.2768C84.6526 18.49 84.2633 19.4269 84.2252 19.5907C84.2067 19.6692 84.1396 19.9262 84.0755 20.1616C83.6307 21.8 83.6773 25.1785 84.1642 26.589C84.2081 26.7158 84.2448 26.857 84.2458 26.9033C84.2468 26.9492 84.2975 27.0897 84.3582 27.2155C84.4188 27.3409 84.4692 27.4626 84.4703 27.4855C84.4768 27.6226 85.0463 28.6709 85.1148 28.6716C85.1385 28.6716 85.1577 28.7014 85.1577 28.7374C85.1577 29.1695 87.317 30.8421 87.8745 30.8421C87.9235 30.8421 88.0095 30.8665 88.065 30.8963C88.6123 31.1893 90.7928 31.2856 91.983 31.0697C93.1395 30.8596 93.6693 30.655 94.304 30.1732L94.6833 29.885L94.706 30.2352C94.7457 30.8521 94.7207 30.8421 96.2505 30.8421C97.4752 30.8421 97.5581 30.8353 97.6658 30.728C97.7792 30.6146 97.7799 30.5375 97.7799 19.7048V8.79606H96.3649C94.9688 8.79606 94.9482 8.79777 94.8369 8.92457ZM115.941 8.96877C115.754 9.1552 115.795 27.8481 115.983 28.4783C116.539 30.3415 117.662 31.0135 120.221 31.0135C121.555 31.0135 121.449 31.1314 121.469 29.6225C121.489 28.1078 121.538 28.1956 120.653 28.1555C119.863 28.1195 119.55 28.0359 119.289 27.7905C118.884 27.4101 118.912 28.1404 118.912 17.9904V8.85295H117.484C116.126 8.85295 116.051 8.85877 115.941 8.96877ZM56.9042 9.64181C56.6482 9.74599 56.2579 10.0599 56.2579 10.1617C56.2579 10.1959 56.2353 10.2237 56.2075 10.2237C56.1441 10.2237 55.8614 10.8097 55.6013 11.4803C55.5465 11.6215 55.4803 11.7887 55.4543 11.8515C55.4286 11.9145 55.3518 12.1071 55.284 12.2798C55.2161 12.4525 55.139 12.6455 55.1126 12.7082C55.0862 12.7712 55.0088 12.9638 54.9409 13.1365C54.8731 13.3092 54.7274 13.6691 54.6167 13.9364C54.5064 14.2033 54.395 14.473 54.369 14.5361C54.3433 14.5988 54.2665 14.7917 54.1987 14.9644C54.1312 15.1371 54.0541 15.3297 54.0273 15.3928C54.0009 15.4555 53.9245 15.6484 53.8577 15.8211C53.7909 15.9939 53.7031 16.2121 53.6627 16.3064C53.5969 16.4599 53.4091 16.9123 53.2834 17.2203C53.2576 17.283 53.1809 17.476 53.1127 17.6487C53.0445 17.8214 52.953 18.0438 52.9098 18.1428C52.8663 18.2419 52.831 18.3488 52.831 18.381C52.831 18.4129 52.793 18.5119 52.7467 18.6007C52.6631 18.7611 52.6168 18.8707 52.3776 19.4762C52.3094 19.649 52.2306 19.8419 52.2029 19.9046C52.1343 20.0588 51.7604 20.9782 51.6223 21.3326C51.5613 21.4895 51.4897 21.6694 51.464 21.7325C51.438 21.7952 51.3729 21.9621 51.3191 22.1036C51.2653 22.2448 51.1878 22.4377 51.1474 22.532C51.0079 22.8548 50.6711 23.6742 50.5487 23.9884C50.4812 24.1611 50.4048 24.354 50.3787 24.4168C50.3527 24.4795 50.2866 24.6467 50.2317 24.7879C50.1769 24.9294 50.0988 25.122 50.0583 25.2162C49.9408 25.4887 49.5974 26.3296 49.4634 26.6727C49.3959 26.8454 49.3195 27.0383 49.2934 27.101C49.2677 27.1641 49.2016 27.331 49.1468 27.4725C49.0919 27.6137 49.0142 27.8066 48.9737 27.9009C48.9336 27.9951 48.8565 28.1877 48.8027 28.3292C48.7489 28.4704 48.6595 28.689 48.604 28.8145C48.5484 28.9402 48.4203 29.2486 48.3192 29.4998C48.2184 29.7514 48.0964 30.0522 48.0485 30.1684C48.0005 30.2849 47.958 30.4779 47.9542 30.5968L47.9477 30.8137L49.3469 30.8298C50.1166 30.8384 50.7996 30.8325 50.865 30.8168C51.0038 30.7829 51.1063 30.5855 51.548 29.4998C51.6631 29.2171 51.779 28.9344 51.8057 28.8717C51.8321 28.809 51.9092 28.616 51.977 28.4433C52.0449 28.2706 52.122 28.0777 52.1487 28.015C52.1758 27.9523 52.2642 27.7336 52.3454 27.5294C52.4266 27.3251 52.5164 27.1068 52.5442 27.0441C52.769 26.5407 53.0023 25.9541 53.0023 25.8913C53.0023 25.8286 53.772 25.818 57.4038 25.83L61.8049 25.8447L61.882 25.9873C61.9242 26.0661 62.0534 26.3615 62.1692 26.6442C62.285 26.9269 62.4129 27.2354 62.453 27.3296C62.4931 27.4238 62.5708 27.6164 62.6257 27.758C62.7871 28.174 62.81 28.2309 62.9272 28.5006C62.9889 28.6417 63.0965 28.8988 63.1668 29.0715C63.2374 29.2442 63.3275 29.4628 63.3673 29.5571C63.407 29.6513 63.5245 29.934 63.6284 30.1852C63.9255 30.9055 63.7555 30.8462 65.4772 30.8288C67.2705 30.8106 67.204 30.8915 66.5676 29.4998C66.5244 29.4056 66.3976 29.0944 66.2856 28.8083C66.1735 28.5218 66.0289 28.162 65.9638 28.0085C65.8127 27.6514 65.7743 27.5571 65.6526 27.2439C65.5978 27.1024 65.52 26.9098 65.4799 26.8156C65.4395 26.7213 65.3627 26.5284 65.3089 26.3872C65.2551 26.2457 65.1897 26.0788 65.1633 26.0161C65.1372 25.953 65.0478 25.7347 64.9649 25.5305C64.8819 25.3262 64.7815 25.0823 64.7414 24.988C64.7017 24.8938 64.6239 24.7008 64.5684 24.5597C64.5132 24.4181 64.4351 24.2255 64.3946 24.1313C64.3545 24.0371 64.2774 23.8441 64.2236 23.7029C64.1698 23.5614 64.1047 23.3945 64.0787 23.3315C64.053 23.2688 63.9382 22.986 63.8237 22.7033C63.5622 22.058 63.4019 21.6667 63.309 21.4467C63.2689 21.3525 63.1921 21.1599 63.138 21.0183C63.0842 20.8771 63.0047 20.678 62.9615 20.5759C62.9183 20.4738 62.8477 20.3066 62.8046 20.2044C62.7614 20.1023 62.6815 19.9032 62.6271 19.762C62.5119 19.4622 62.3392 19.0403 62.1833 18.6768C62.0599 18.3886 62.0249 18.3015 61.8851 17.9341C61.8313 17.793 61.7542 17.6 61.7141 17.5058C61.6737 17.4116 61.6021 17.2316 61.5548 17.1062C61.4657 16.8704 61.1031 15.9812 60.9722 15.6782C60.9318 15.584 60.8543 15.3914 60.8002 15.2499C60.7464 15.1084 60.6693 14.9158 60.6288 14.8215C60.5887 14.7273 60.5103 14.5344 60.4551 14.3932C60.3999 14.2516 60.3225 14.059 60.2834 13.9648C60.2444 13.8706 60.1426 13.6153 60.0569 13.3977C59.9712 13.1801 59.8808 12.9614 59.8561 12.9121C59.8311 12.8627 59.7663 12.7068 59.7118 12.5656C59.6577 12.4241 59.5802 12.2315 59.5398 12.1373C59.4997 12.043 59.4226 11.8501 59.3688 11.7089C59.315 11.5674 59.2495 11.4005 59.2235 11.3374C59.1971 11.2747 59.1077 11.0568 59.024 10.8532C58.5813 9.77238 57.751 9.29776 56.9042 9.64181ZM57.5913 15.3499C57.6492 15.499 57.7311 15.6981 57.7732 15.7924C57.8157 15.8866 57.9692 16.2594 58.1149 16.6206C58.2609 16.9818 58.4826 17.5216 58.608 17.82C58.8969 18.5082 58.8911 18.4934 59.1395 19.1051C59.4346 19.8316 59.7821 20.6719 59.9483 21.0612C60.1357 21.5008 60.1899 21.6324 60.2831 21.875C60.3372 22.0166 60.4078 22.1818 60.44 22.2424C60.4719 22.3031 60.5182 22.4189 60.5425 22.4994C60.5668 22.5803 60.6049 22.6913 60.6271 22.7462C60.6655 22.8407 60.4925 22.8462 57.4631 22.8462C54.0218 22.8462 54.1565 22.8579 54.3138 22.5741C54.344 22.5196 54.4625 22.2434 54.5773 21.9607C54.6921 21.678 54.9091 21.1513 55.0595 20.7901C55.2099 20.4286 55.4269 19.9019 55.5417 19.6191C55.6565 19.3364 55.7713 19.0537 55.7973 18.991C55.823 18.9279 55.8895 18.7611 55.9443 18.6195C55.9995 18.4783 56.0968 18.247 56.1609 18.1055C56.225 17.9643 56.2973 17.7971 56.3216 17.7344C56.3919 17.5521 56.7764 16.61 56.8634 16.4065C57.0354 16.0052 57.104 15.8396 57.1999 15.5926C57.4357 14.9843 57.4463 14.9778 57.5913 15.3499ZM128.308 15.2269C127.572 15.2835 126.297 15.597 125.623 15.8876C125.129 16.1004 124.558 16.3859 124.509 16.4438C124.494 16.4627 124.413 16.513 124.331 16.5555C124.095 16.6768 123.782 16.9784 123.738 17.1261C123.699 17.2577 123.85 17.7621 123.929 17.7635C123.95 17.7638 124.018 17.8731 124.08 18.0065C124.143 18.1394 124.21 18.2614 124.229 18.2768C124.249 18.2926 124.372 18.503 124.504 18.7443C124.848 19.3731 124.989 19.3926 125.726 18.9146C126.114 18.6637 126.248 18.5925 126.737 18.3814C127.488 18.0561 128.168 17.9379 129.279 17.9386C129.781 17.9389 130.295 17.9612 130.421 17.988C130.547 18.015 130.784 18.0644 130.948 18.098C132.208 18.3563 133.015 19.4176 132.952 20.7329L132.934 21.104L130.249 21.1376C126.968 21.1787 126.524 21.2469 125.147 21.9258C122.316 23.3205 121.889 27.8556 124.388 29.9947C124.565 30.1461 124.727 30.2702 124.749 30.2705C124.771 30.2709 124.904 30.348 125.043 30.4422C125.183 30.5365 125.316 30.6136 125.34 30.6136C125.363 30.6136 125.488 30.6619 125.617 30.7205C126.976 31.3397 129.602 31.3592 131.049 30.7609C131.601 30.5327 132.391 30.0714 132.391 29.9775C132.391 29.9505 132.419 29.9282 132.453 29.9282C132.486 29.9282 132.606 29.8254 132.719 29.7C132.942 29.4512 133.02 29.4176 133.02 29.5697C133.02 30.6876 133.659 31.0162 135.833 31.0145L137.075 31.0135V29.8497C137.075 28.5143 137.095 28.5677 136.561 28.5047C135.945 28.432 135.995 28.8162 135.971 23.96C135.948 19.4053 135.924 19.0914 135.517 18.0486C134.675 15.8893 132.216 14.9267 128.308 15.2269ZM106.062 15.277C106.014 15.2886 105.77 15.327 105.519 15.3626C104.572 15.497 103.328 15.9322 102.973 16.2536C102.923 16.2985 102.864 16.3352 102.84 16.3352C102.779 16.3352 102.116 16.8502 101.96 17.0199C101.887 17.0987 101.718 17.2789 101.585 17.4201C101.24 17.7854 100.965 18.2241 100.547 19.0767C99.6098 20.9834 99.5197 24.9606 100.366 27.0441C100.657 27.7583 101.163 28.6719 101.269 28.6719C101.298 28.6719 101.321 28.7007 101.321 28.7363C101.321 28.8203 102.258 29.7568 102.342 29.7568C102.377 29.7568 102.406 29.7795 102.406 29.8069C102.406 29.9714 103.864 30.6814 104.691 30.9199C105.979 31.2911 108.011 31.289 109.374 30.9155C110.135 30.7068 111.087 30.3298 111.249 30.1729C111.29 30.1324 111.348 30.0995 111.376 30.0995C111.525 30.0995 112.389 29.4327 112.901 28.9224C113.694 28.1315 113.698 28.0725 112.987 27.4348C112.713 27.1884 112.421 26.9228 112.339 26.844C111.702 26.2333 111.6 26.2344 110.973 26.8574C109.534 28.2877 107.215 28.738 105.235 27.9725C104.985 27.8755 104.754 27.7754 104.721 27.7494C104.689 27.7237 104.582 27.638 104.483 27.5589C104.384 27.48 104.287 27.4153 104.268 27.4153C104.122 27.4153 103.481 26.5692 103.292 26.1271C103.134 25.7591 102.916 24.9956 102.946 24.9174C102.968 24.8598 104.027 24.8451 108.155 24.8451C112.009 24.8451 113.383 24.8276 113.523 24.7773C113.778 24.6851 113.79 24.6021 113.746 23.142C113.698 21.5539 113.594 20.8045 113.273 19.7333C113.131 19.2597 112.816 18.5709 112.59 18.2378C112.518 18.1309 112.459 18.0188 112.459 17.989C112.459 17.9588 112.435 17.9341 112.405 17.9341C112.376 17.9341 112.336 17.8841 112.317 17.8228C112.131 17.2392 110.404 16.0058 109.241 15.6262C108.449 15.3678 106.548 15.1591 106.062 15.277ZM75.0769 15.3784C73.8723 15.5415 72.6513 16.1635 71.9403 16.9763L71.6788 17.2755V16.5497V15.8239L71.504 15.7338C71.2237 15.5888 68.9414 15.6334 68.7718 15.7869L68.6515 15.8958V23.2746C68.6515 30.3504 68.6559 30.6571 68.756 30.7476C68.9092 30.886 71.4509 30.8905 71.589 30.7523C71.6688 30.6725 71.6788 30.1852 71.6788 26.2505C71.6788 21.0512 71.6795 21.0423 72.1829 19.9903C73.2856 17.6857 77.2012 17.5592 78.3009 19.7929C78.7967 20.8 78.8139 21.0156 78.8163 26.2176C78.8176 30.079 78.8283 30.6029 78.9067 30.7153C78.9945 30.8404 79.0143 30.8421 80.3491 30.8404L81.7024 30.8387L81.8041 30.6982C81.9378 30.5149 81.9261 20.787 81.7915 20.0759C81.6061 19.0955 81.284 18.2552 80.8361 17.5836C80.5818 17.2022 79.9461 16.5065 79.8519 16.5065C79.8241 16.5065 79.7864 16.4678 79.7682 16.4208C79.7501 16.3736 79.6959 16.3352 79.648 16.3352C79.6 16.3352 79.5606 16.3112 79.5606 16.2817C79.5606 16.2526 79.5092 16.2121 79.4465 16.1923C79.3841 16.1724 79.2998 16.1258 79.26 16.0884C79.1281 15.9661 78.6747 15.7656 78.0185 15.5401C77.4274 15.3369 75.973 15.2571 75.0769 15.3784ZM92.0114 18.0644C92.2157 18.1387 92.4597 18.2405 92.5539 18.2905C92.6481 18.3409 92.8068 18.4245 92.9065 18.4766C93.4997 18.7868 94.2738 19.8014 94.5953 20.6904C94.791 21.2308 94.7951 25.1152 94.6011 25.7053C93.5175 28.9978 89.2823 29.5879 87.4564 26.7001C87.417 26.6381 87.3588 26.5229 87.3265 26.4444C87.2947 26.366 87.2457 26.2501 87.2179 26.1874C86.9198 25.5144 86.8146 24.7433 86.8163 23.2458C86.819 21.0858 87.137 20.0328 88.099 18.9992C89.0095 18.0212 90.7503 17.6052 92.0114 18.0644ZM107.632 18.0757C109.466 18.3687 110.549 19.5695 110.743 21.5238C110.833 22.4333 111.322 22.3353 106.783 22.3181L102.892 22.3034L102.91 21.8466C102.938 21.1681 103.289 20.0287 103.588 19.6483C104.613 18.344 105.981 17.8118 107.632 18.0757ZM132.872 23.6231C133.009 23.6759 133.006 25.8886 132.868 26.3015C132.651 26.9496 132.193 27.5777 131.735 27.8556C131.365 28.0801 130.864 28.2761 130.326 28.4073C129.503 28.6085 127.443 28.48 127.168 28.211C127.139 28.1815 127.08 28.1579 127.037 28.1579C126.876 28.1579 126.199 27.5986 126.104 27.3868C126.075 27.3238 126.029 27.234 126.002 27.1867C125.817 26.8735 125.766 26.6384 125.766 26.1117C125.766 24.5206 126.722 23.7643 128.879 23.6481C129.84 23.5964 132.755 23.5782 132.872 23.6231Z" fill="#345CDC"/>
</g>
<defs>
<clipPath id="clip0_298_13195">
<rect width="137.075" height="40" fill="white"/>
</clipPath>
</defs>
</svg>
