<svg width="167" height="40" viewBox="0 0 167 40" fill="none" xmlns="http://www.w3.org/2000/svg">
<g clip-path="url(#clip0_298_13239)">
<path d="M26.756 10.9023H23.4846C22.5792 10.9023 21.849 11.6278 21.849 12.5273V13.1874C19.2787 11.5189 16.1243 10.6484 12.7653 10.9676C6.17154 11.5915 0.811831 16.8145 0.0889269 23.3577C-0.853036 31.8088 5.81373 38.9904 14.1381 38.9904C16.9858 38.9904 19.6365 38.149 21.8563 36.7054V37.3074C21.8563 38.2069 22.5866 38.9323 23.492 38.9323H26.7632C27.6688 38.9323 28.399 38.2069 28.399 37.3074V12.5273C28.399 11.6278 27.6688 10.9023 26.7632 10.9023H26.756ZM14.1307 32.4834C9.94668 32.4834 6.54392 29.103 6.54392 24.9464C6.54392 20.7897 9.94668 17.4094 14.1307 17.4094C18.3148 17.4094 21.7176 20.7897 21.7176 24.9464C21.7176 29.103 18.3148 32.4834 14.1307 32.4834Z" fill="#1560CE"/>
<path d="M145.662 38.9904C137.871 38.9904 131.525 32.6937 131.525 24.9464C131.525 17.1989 137.863 10.9023 145.662 10.9023C153.461 10.9023 159.799 17.1989 159.799 24.9464C159.799 32.6937 153.461 38.9904 145.662 38.9904ZM145.662 17.4094C141.478 17.4094 138.075 20.7897 138.075 24.9464C138.075 29.103 141.478 32.4834 145.662 32.4834C149.847 32.4834 153.249 29.103 153.249 24.9464C153.249 20.7897 149.847 17.4094 145.662 17.4094Z" fill="#1560CE"/>
<path d="M93.6939 10.9023C90.9118 10.9023 88.3196 11.7076 86.129 13.0931V12.5345C86.129 11.635 85.3988 10.9096 84.4934 10.9096H81.222C80.3166 10.9096 79.5864 11.635 79.5864 12.5345V37.3147C79.5864 38.2143 80.3166 38.9397 81.222 38.9397H84.4934C85.3988 38.9397 86.129 38.2143 86.129 37.3147V24.4894C86.37 20.5504 89.6706 17.4166 93.6939 17.4166H94.5045C95.4099 17.4166 96.1401 16.6912 96.1401 15.7917V12.5418C96.1401 11.6423 95.4099 10.9169 94.5045 10.9169H93.6939V10.9023Z" fill="#1560CE"/>
<path d="M65.8002 30.4232C65.435 30.4232 65.07 30.5392 64.7852 30.7713C63.4781 31.8376 61.806 32.4833 59.9878 32.4833C56.9355 32.4833 54.3068 30.677 53.1019 28.0946H72.3866C73.219 28.0946 73.9127 27.4779 74.0149 26.6509C74.2268 24.9753 74.1318 23.2053 73.6572 21.3917C72.1675 15.7189 67.1949 11.5043 61.3167 10.9603C52.4958 10.1551 45.1281 17.4527 45.9021 26.2085C46.5082 33.0056 52.1015 38.4607 58.9509 38.9468C64.1499 39.3167 68.8159 36.8721 71.5541 32.9984C72.3208 31.9103 71.5688 30.4158 70.2252 30.4158H65.7928L65.8002 30.4232ZM59.9878 17.4093C62.9523 17.4093 65.5226 19.1139 66.7713 21.5876H53.2042C54.4528 19.1139 57.0158 17.4093 59.9878 17.4093Z" fill="#1560CE"/>
<path d="M124.362 10.9023H103.15C102.244 10.9023 101.514 11.6278 101.514 12.5273V15.7771C101.514 16.6766 102.244 17.402 103.15 17.402H116.688L101.989 31.9974C101.682 32.3021 101.507 32.7156 101.507 33.1508V37.3583C101.507 38.2578 102.237 38.9832 103.143 38.9832H124.37C125.275 38.9832 126.005 38.2578 126.005 37.3583V34.1083C126.005 33.2088 125.275 32.4834 124.37 32.4834H110.766L125.465 17.8808C125.772 17.5762 125.939 17.1699 125.947 16.7492L125.991 12.549C125.998 11.6423 125.26 10.9096 124.355 10.9096L124.362 10.9023Z" fill="#1560CE"/>
<path d="M38.7673 0.172852H35.4886C34.5854 0.172852 33.853 0.900361 33.853 1.79778V37.3141C33.853 38.2115 34.5854 38.939 35.4886 38.939H38.7673C39.6707 38.939 40.403 38.2115 40.403 37.3141V1.79778C40.403 0.900361 39.6707 0.172852 38.7673 0.172852Z" fill="#1560CE"/>
<path d="M163.18 17.4099C164.987 17.4099 166.451 15.9548 166.451 14.16C166.451 12.3652 164.987 10.9102 163.18 10.9102C161.374 10.9102 159.908 12.3652 159.908 14.16C159.908 15.9548 161.374 17.4099 163.18 17.4099Z" fill="#48BF91"/>
</g>
<defs>
<clipPath id="clip0_298_13239">
<rect width="166.452" height="40" fill="white"/>
</clipPath>
</defs>
</svg>
