<svg width="226" height="17" viewBox="0 0 226 17" fill="none" xmlns="http://www.w3.org/2000/svg">
<g clip-path="url(#clip0_291_3671)">
<path d="M74.1764 16.4519H74.5006V-0.000169812H74.1764V16.4519Z" fill="#100F14"/>
<path d="M88.8493 13.8299H82.5791V2.742H88.8493V5.14423H85.4315V6.89078H88.5948V9.29496H85.4315V11.3878H88.8493V13.8299Z" fill="#100F14"/>
<mask id="mask0_291_3671" style="mask-type:luminance" maskUnits="userSpaceOnUse" x="-8" y="-8" width="244" height="32">
<path d="M-7.66083 -7.08781H235.185V23.1544H-7.66083V-7.08781Z" fill="white"/>
</mask>
<g mask="url(#mask0_291_3671)">
<path d="M116.394 5.0385C115.717 5.0385 115.186 5.33099 114.805 5.91469C114.426 6.50001 114.236 7.30389 114.236 8.32957C114.236 10.4636 115.008 11.5315 116.554 11.5315C117.021 11.5315 117.475 11.463 117.912 11.3272C118.349 11.1907 118.79 11.0256 119.232 10.8327V13.3669C118.352 13.7755 117.355 13.9814 116.244 13.9814C114.649 13.9814 113.428 13.495 112.578 12.5244C111.729 11.5545 111.302 10.1494 111.302 8.314C111.302 7.16802 111.509 6.15887 111.921 5.29111C112.33 4.41848 112.925 3.7495 113.697 3.28158C114.47 2.81462 115.378 2.58146 116.424 2.58146C117.565 2.58146 118.656 2.84283 119.695 3.36394L118.82 5.7211C118.433 5.52913 118.041 5.36829 117.652 5.23469C117.261 5.10595 116.843 5.0385 116.394 5.0385Z" fill="#100F14"/>
<path d="M131.997 13.8299H125.728V2.742H131.997V5.14423H128.581V6.89078H131.745V9.29496H128.581V11.3878H131.997V13.8299Z" fill="#100F14"/>
<path d="M138.283 13.8299V2.742H141.139V11.4086H145.205V13.8299H138.283Z" fill="#100F14"/>
<path d="M151.33 13.8299V2.742H154.182V11.4086H158.248V13.8299H151.33Z" fill="#100F14"/>
<path d="M170.645 13.8299H164.375V2.742H170.645V5.14423H167.227V6.89078H170.39V9.29496H167.227V11.3878H170.645V13.8299Z" fill="#100F14"/>
<path d="M179.785 9.79401V13.8299H176.929V2.74103H180.391C183.261 2.74103 184.695 3.83286 184.695 6.0188C184.695 7.30261 184.098 8.29554 182.904 8.99857L185.981 13.8299H182.746L180.507 9.79401H179.785ZM179.785 7.53965H180.317C181.317 7.53965 181.816 7.07788 181.816 6.1524C181.816 5.39003 181.326 5.00836 180.348 5.00836H179.785V7.53965Z" fill="#100F14"/>
<path d="M197.856 13.8299L197.338 11.75H193.904L193.371 13.8299H190.237L193.682 2.69368H197.49L200.977 13.8299H197.856ZM196.745 9.29496L196.292 7.47415C196.183 7.06978 196.056 6.54607 195.903 5.90239C195.751 5.26292 195.652 4.8018 195.603 4.52487C195.559 4.77974 195.477 5.20584 195.347 5.79635C195.22 6.38945 194.935 7.55587 194.501 9.29496H196.745Z" fill="#100F14"/>
<path d="M211.213 13.8299H208.361V5.19028H205.782V2.742H213.784V5.19028H211.213V13.8299Z" fill="#100F14"/>
<path d="M226 13.8299H219.73V2.742H226V5.14423H222.585V6.89078H225.749V9.29496H222.585V11.3878H226V13.8299Z" fill="#100F14"/>
<path d="M98.595 6.95391C98.6731 6.05405 95.872 2.79248 95.9833 1.91629C96.0458 1.41302 98.0262 0.374688 98.5 0.559525C99.0107 0.749874 100.303 5.34032 100.728 5.37307C101.6 5.4496 105.13 0.0205797 106.152 0.0688961C106.85 0.102944 108.383 0.956438 108.388 1.89554C108.391 2.73898 102.139 7.07714 101.989 8.00164C101.739 9.51439 105.876 14.004 105.876 14.7531C105.876 15.5952 103.155 16.7908 102.625 16.437C101.529 15.7051 99.8149 10.054 99.562 9.99172C98.7198 9.78386 95.8639 14.5141 95.2433 14.6603C94.6897 14.7881 93.1267 13.4842 93.1267 12.954C93.1267 11.8258 98.5 8.0558 98.595 6.95391Z" fill="#100F14"/>
<path d="M29.982 8.00716C32.0658 7.31451 32.4439 5.56537 32.4387 4.13953C32.4352 1.96202 30.8981 0.0792776 26.3498 0.0792776L17.8603 0.0779801V16.4361H26.3274C30.9033 16.4361 32.5869 14.087 32.5869 11.7337C32.5869 8.88465 29.982 8.00716 29.982 8.00716ZM21.8891 3.6369H27.5827H27.6051L27.6258 3.64079C28.2708 3.75526 28.7404 4.30426 28.7404 4.9473C28.7404 5.6059 28.2374 6.22657 27.5723 6.31671L21.893 6.32612L21.8891 3.6369ZM27.3304 12.6235H21.8891V9.88504H27.4478H27.463L27.476 9.88666C28.1696 9.96676 28.6946 10.5427 28.6946 11.2279C28.6946 11.9743 28.073 12.6132 27.3304 12.6235ZM51.5972 0.0624146H65.9432L65.9357 3.63204H55.5832L55.5936 6.26872H64.9259V9.85748H55.5936V12.7108H65.9471L65.9442 16.4519H51.5972V0.0624146ZM43.252 0.0753871H34.5764V16.4386H38.5601V9.81759C38.5601 9.81759 42.9469 9.81338 42.9475 9.81338C44.2041 9.83218 45.1815 10.8614 45.1815 12.131V16.4244L49.0809 16.4234L49.0734 11.1423C49.0734 8.69463 46.7098 7.97214 46.7098 7.97214C46.7098 7.97214 49.1263 7.24998 49.1263 4.35744C49.1263 0.818301 46.0855 0.0753871 43.252 0.0753871ZM45.4263 5.15192C45.3553 5.68989 44.8176 6.27391 44.146 6.27391L38.5465 6.27553V3.65571H44.148C44.8176 3.65571 45.3413 4.14829 45.4263 4.79489V5.15192ZM15.4075 12.5023L15.3935 16.4409H15.2645C15.2645 16.4409 10.3685 16.4367 10.3685 16.4354C10.3685 16.4354 9.05393 16.4078 9.04874 16.4078C6.59982 16.2707 5.38541 15.8553 4.59774 15.5086C2.26588 14.4045 0.639636 12.3512 0.134415 9.87012C0.0445906 9.34026 0.000488449 8.78802 0.000488449 8.23124C0.000488449 6.46231 0.558566 4.77478 1.61343 3.35381C2.44261 2.23765 3.55195 1.34006 4.827 0.755392C6.15459 0.212555 7.45104 0.134404 8.23287 0.0864097L15.2557 0.0737653L15.3867 0.073441L15.3737 3.7945L15.244 3.79288C15.1775 3.79223 8.97319 3.72154 7.8379 3.8707C5.45285 4.18266 3.9132 5.84489 3.9132 8.10347C3.9132 9.9152 4.97487 12.1345 7.97053 12.428C9.8309 12.6093 15.2194 12.5052 15.2765 12.5039L15.4075 12.5023Z" fill="#100F14"/>
</g>
</g>
<defs>
<clipPath id="clip0_291_3671">
<rect width="225.923" height="16.4954" fill="white" transform="scale(1.00034)"/>
</clipPath>
</defs>
</svg>
