<svg width="156" height="40" viewBox="0 0 156 40" fill="none" xmlns="http://www.w3.org/2000/svg">
<g clip-path="url(#clip0_298_12882)">
<path d="M58.0118 31.4032V33.8399H53.2952V6H58.0118V16.7099C59.1335 15.1249 61.2219 14.0417 63.7352 14.0417C69.4968 14.0417 72.9368 18.14 72.9368 24.095C72.9368 30.0499 69.4952 34.1483 63.6568 34.1483C61.2985 34.1483 59.1335 33.1049 58.0118 31.4032ZM68.2202 24.095C68.2202 20.5 66.1318 18.1417 62.9619 18.1417C59.7918 18.1417 57.7036 20.5 57.7036 24.0966C57.7036 27.6933 59.7901 30.0499 62.9619 30.0499C66.1318 30.0499 68.2202 27.6916 68.2202 24.095ZM94.2817 33.8399H89.5251V30.8232C88.4417 32.9499 86.2384 34.1483 83.4552 34.1483C79.0851 34.1483 76.2251 30.9782 76.2251 26.415V14.3516H80.9417V25.4099C80.9417 28.0782 82.6051 29.9333 85.0017 29.9333C87.6701 29.9333 89.5251 27.8449 89.5251 24.9832V14.3499H94.2817V33.8399ZM97.4901 27.3432H101.82C102.013 29.1999 103.443 30.3599 105.57 30.3599C107.427 30.3599 108.663 29.4316 108.663 28.2716C108.663 23.9415 97.9918 28.0783 97.9918 19.8432C97.9918 16.44 100.968 14.0434 104.99 14.0434C109.553 14.0434 112.685 16.5566 112.878 20.3449H108.548C108.278 18.5283 106.615 17.6 105.107 17.6C103.405 17.6 102.283 18.3733 102.283 19.6883C102.283 23.9032 113.11 19.2632 113.11 28.0783C113.11 31.7516 110.133 34.1483 105.57 34.1483C100.855 34.1483 97.7217 31.5199 97.4901 27.3432ZM116.708 6H121.425V17.3683C122.508 15.2417 124.75 14.0434 127.535 14.0434C131.905 14.0434 134.765 17.2133 134.765 21.7766V33.8399H130.048V22.7815C130.048 20.1133 128.385 18.2583 125.95 18.2583C123.32 18.2583 121.427 20.3466 121.427 23.2083V33.8415H116.71V6H116.708ZM155.22 21.3116V33.8399H150.541V30.9399C149.73 32.8733 147.487 34.1499 144.704 34.1499C140.836 34.1499 138.207 31.675 138.207 28.3116C138.207 24.5215 141.146 22.1632 145.515 22.1632H149.112C150.078 22.1632 150.541 21.6215 150.541 20.8483C150.541 18.9533 149.071 17.6 146.558 17.6C144.045 17.6 142.537 19.1849 142.46 20.9249H138.207C138.438 17.0583 141.725 14.0434 146.79 14.0434C151.74 14.0417 155.22 16.9032 155.22 21.3116ZM150.541 25.6032V25.2933H146.172C144.162 25.2933 142.808 26.415 142.808 28.1166C142.808 29.6249 144.045 30.6299 145.825 30.6299C148.8 30.6299 150.541 28.5415 150.541 25.6032Z" fill="#000639"/>
<path d="M36.8041 39.9719C36.3853 39.9727 35.9706 39.8897 35.5843 39.7278C35.198 39.566 34.848 39.3285 34.5549 39.0294L0.931799 5.42937C0.527701 4.97496 0.261855 4.41455 0.165564 3.81413C0.0692722 3.2137 0.146545 2.59827 0.388284 2.04028C0.630022 1.4823 1.02616 1.00501 1.53005 0.664604C2.03395 0.324201 2.62461 0.134863 3.2325 0.118883C4.04732 0.097147 4.8396 0.387926 5.4469 0.93161L39.0532 34.5317C39.4964 34.978 39.7979 35.5452 39.9199 36.1622C40.0417 36.7793 39.9784 37.4186 39.7381 37.9998C39.4978 38.581 39.0911 39.0783 38.5691 39.4292C38.0471 39.7801 37.4331 39.9689 36.8041 39.9719ZM36.8066 20.6318C36.3877 20.6307 35.9731 20.5468 35.5867 20.3849C35.2003 20.2229 34.8497 19.9862 34.5552 19.6883L20.3012 5.43511C20.0055 5.13948 19.771 4.78852 19.6109 4.40224C19.4509 4.01597 19.3686 3.60196 19.3686 3.18385C19.3686 2.76574 19.4509 2.35173 19.6109 1.96545C19.771 1.57918 20.0055 1.22821 20.3012 0.932589C20.5968 0.636922 20.9478 0.402386 21.3342 0.242372C21.7205 0.0823581 22.1345 0 22.5526 0C22.9708 0 23.3848 0.0823581 23.7711 0.242372C24.1574 0.402386 24.5084 0.636922 24.8041 0.932589L39.0582 15.1855C39.3565 15.4796 39.5934 15.8301 39.7551 16.2166C39.9168 16.6031 40 17.0179 40 17.4369C40 17.8558 39.9168 18.2706 39.7551 18.6571C39.5934 19.0436 39.3565 19.3941 39.0582 19.6883C38.7659 19.9891 38.4157 20.2278 38.0288 20.39C37.6419 20.5521 37.2261 20.6343 36.8066 20.6318ZM17.4382 40C17.0193 39.9988 16.6047 39.9147 16.2183 39.7528C15.8319 39.5909 15.4813 39.3542 15.1866 39.0564L0.932638 24.8034C0.411588 24.2825 0.087283 23.5971 0.0150002 22.864C-0.0572826 22.1308 0.126931 21.3953 0.536241 20.7827C0.945552 20.1702 1.55463 19.7185 2.25965 19.5048C2.96467 19.291 3.72201 19.3284 4.40257 19.6105C4.78894 19.7705 5.14 20.005 5.43572 20.3007L19.6896 34.5537C19.9879 34.8478 20.2248 35.1983 20.3865 35.5848C20.5482 35.9713 20.6314 36.3861 20.6314 36.805C20.6314 37.224 20.5481 37.6387 20.3864 38.0252C20.2248 38.4117 19.9879 38.7622 19.6896 39.0564C19.3972 39.3572 19.0471 39.5959 18.6603 39.7581C18.2734 39.9202 17.8577 40.0025 17.4382 40Z" fill="#16CB3E"/>
</g>
<defs>
<clipPath id="clip0_298_12882">
<rect width="155.245" height="40" fill="white"/>
</clipPath>
</defs>
</svg>
