<svg width="140" height="40" viewBox="0 0 140 40" fill="none" xmlns="http://www.w3.org/2000/svg">
<g clip-path="url(#clip0_291_3881)">
<path d="M39.6878 22.1634H29.6561H29.6366L29.5854 22.2171L29.6122 22.261L29.4659 22.3122L29.3854 22.422H29.2683L29.2146 22.439V22.4707L29.1537 22.5415V22.5927L29.1829 22.6146L29.1098 22.7244L29.0415 22.8122V22.9268L28.9781 23.0634L28.822 23.2902L28.7293 23.3293H28.6756L28.6976 23.3537V23.4195L28.6683 23.4634L28.5756 23.7488L28.5049 23.9293V24.0293L28.6268 24.1341L28.7171 24.2366H28.7756L28.8317 24.3951L28.8073 24.4463L28.7707 24.4341L28.7195 24.4683L28.6927 24.5732V24.7317L28.7561 24.7951V24.8976L28.6976 24.9463L28.7122 25.0415L28.7585 25.1561H28.7341L28.761 25.2098L28.7781 25.2927L28.8293 25.3366L28.7854 25.4073L28.8268 25.4561L28.8707 25.5854L28.8561 25.6512L29.0098 25.7976L29.122 25.8146L29.2146 25.8927V25.9366L29.2463 25.9561L29.2317 26.0585L29.2073 26.1098L29.2317 26.1293L29.1415 26.2561V26.3024L29.1585 26.3341V26.361L29.1244 26.3927L29.1439 26.5463L29.1927 26.639L29.1683 26.6659V26.7756L29.1927 26.8024V26.9098L29.1463 26.9537L29.1634 27.0683L29.1317 27.2829H29.1146L29.139 27.3195V27.5122H29.0732V27.5366L29.0951 27.5683H29.1805L29.2049 27.5878L29.2244 27.7537L29.1805 27.8171L29.1341 27.8415L29.161 27.8805V27.922H29.1049L29.0439 27.9854L29.061 28.0073L29.0805 27.9902H29.1341L29.0951 28.0463V28.1341H29.0415L28.9463 28.2537V28.3073L28.861 28.4244H28.7902V28.5049L28.5024 28.661H28.461L28.439 28.722L28.1634 28.8683H28.0585V28.8902L27.9317 28.9488L27.7585 29.0634L27.7171 29.0341V29.0878L27.6122 29.2171L27.5585 29.2415L27.5293 29.1707L27.5098 29.2829L27.461 29.2976L27.4439 29.361L27.2707 29.4659V29.5098L27.2268 29.5488L27.1854 29.561V29.622H27.0732L26.8293 29.7756V29.8732L26.7537 29.9293H26.6512L26.6073 29.9854L26.5268 29.9341H26.4805V30L26.522 30.0488V30.1171L26.4902 30.161V30.2244L26.4439 30.2927L26.5683 30.461V30.5195L26.5146 30.5634L26.5561 30.5829L26.6024 30.6585V30.761L26.6537 30.8561L26.6317 31.1244L26.6561 31.2195H26.6878V31.1439L26.7366 31.0415V31.1317H26.7561V31.2488L26.722 31.2927V31.4098L26.7415 31.4268L26.6902 31.5634V31.6366L26.6512 31.6854V31.7732H26.6268L26.6439 31.8488L26.7098 31.8098L26.7244 31.8585L26.6707 31.939L26.6439 32.0512L26.4878 32.2171L26.2073 32.3439L25.8293 32.4195L25.6829 32.5585L25.5732 32.5854L25.539 32.6366L25.4854 32.6805L25.4537 32.7878H25.4098L25.3683 32.8146L25.3878 32.839L25.4293 32.9171V32.9951L25.4683 32.9439L25.5293 32.9634L25.5488 32.8902H25.5781V32.9268L25.561 33.0488L25.5171 33.1195V33.2073L25.4659 33.2756H25.4902L25.439 33.4317L25.4244 33.5659L25.361 33.6951L25.3195 33.861L25.2561 33.9366L25.2366 34.0122L25.122 34.1463H25.0829L25.0585 34.1829L24.9707 34.2244L24.9293 34.2732L24.8244 34.3415L24.7732 34.4439L24.6878 34.5415V34.5829L24.639 34.6756H24.5561L24.4902 34.8024L24.3195 35.122L24.1805 35.2512L24.1585 35.3732L24.0781 35.4073L24.0024 35.4976H23.9585L23.939 35.5317L23.4878 35.9756H23.4341V35.9976L23.361 36.0805L23.0659 36.2707L23.0024 36.339L22.8976 36.3707V36.3976L22.7317 36.4415L22.639 36.5H22.5415L22.4927 36.4634H22.361L22.2537 36.4976L22.2073 36.5756L22.2707 36.6293V36.6537H22.1195L22.0317 36.6098H21.961L21.9 36.6707L21.9268 36.7244L21.9 36.7512L21.6927 36.7073L21.6341 36.661L21.4341 36.6122L21.3049 36.6366V36.6683L21.2366 36.6927L21.1366 36.639H20.9049L20.8366 36.6707L20.8171 36.7439L20.7707 36.722L20.7171 36.7366L20.6683 36.7756L20.6439 36.8098H20.5415L20.4732 36.839L20.3463 36.7927L20.2439 36.8293L20.2244 36.8585L20.1195 36.8366L20.0268 36.9415L19.9488 36.9561L19.922 37.0195L19.8756 37.0024L19.8341 37.0219L19.6195 36.922L19.5756 36.9463V36.8439L19.4951 36.8L19.4317 36.8317L19.3927 36.8146L19.4268 36.7854L19.4049 36.6951L19.3049 36.6781L19.2317 36.7415V36.8195L19.178 36.778V36.6902L19.2073 36.6171L19.1878 36.5098L19.2463 36.4122L19.1707 36.2756L19.0951 36.2073L19.0244 36.0976V35.9854L19.0707 35.9439L19.1122 35.9878H19.1512L19.2024 35.9317L19.2268 35.8L19.1805 35.6537V35.5878L19.0585 35.3829V35.2878L18.939 35.1317L18.8829 34.8878L18.7805 34.6341V34.5122L18.6878 34.2488L18.5488 34.1463L18.5244 34.0073L18.378 33.9024L18.3537 33.8415L18.2512 33.739L18.1463 33.5317L18.0683 33.4244V33.2585L18 33.1829V33.0951L18.0463 33.061L18.0073 32.9829L17.9488 32.9512L17.9171 32.7268L17.8659 32.661L17.9268 32.622L17.8878 32.4976L17.9024 32.3146L17.7732 31.9756V31.6439L17.7122 31.422L17.7659 31.3976V31.2195L17.539 30.8902V30.7683L17.322 30.461L17.2902 30.2683L17.0756 29.7805L16.939 29.5366L16.6951 29.2756L16.6707 28.9073V28.8634L16.6902 28.7268V28.5171L16.7098 28.3805V28.2244L16.8293 28.0805L16.8537 27.9171L16.9585 27.778V27.4317L16.9976 27.4V27.2561L17.2415 27.0463V26.9415L17.4317 26.7976H17.4829L17.6537 26.478V26.1L17.6 26.0341V25.9634L17.4366 25.6951V25.5829L17.3707 25.478V25.322L17.2927 25.2829L17.4293 25.1073L17.4488 24.9366L17.3195 24.7537V24.4171L17.0756 24.1488V24.0878L17.0293 24.0317L17.1537 23.9634L17.0732 23.9366H16.9488L16.9268 23.8854L16.9049 23.8341L16.9537 23.7439L16.9244 23.6195L16.8707 23.5634L16.822 23.5073L16.8293 23.4146L16.761 23.339V23.261L16.6317 23.178L16.5854 23.1317L16.5 23.0488L16.4805 23.0293L16.4049 23L16.4 22.9268L16.2439 22.8512L16.2024 22.7561L16.0073 22.6L15.8902 22.4756L15.922 22.4537L15.8122 22.361L15.7659 22.261L15.7 22.1951V22.0634L15.622 21.9634V21.8951L15.5732 21.8561L15.4829 21.6659V21.622L15.5878 21.6561L15.6707 21.5878L15.6902 21.3439L15.7024 21.2244L15.7512 21.2732L15.9415 21.2268L15.8073 21.1951L15.722 21.0585L15.8146 21.0439V20.9415V20.9171L15.7073 20.861L15.8146 20.6561L15.9512 20.5024L15.9195 20.4268L15.9366 20.4098L16.0049 20.3439L15.9415 20.278L16 20.1268L15.9854 19.961L15.9073 19.8512V19.7293L15.9366 19.6732L15.8707 19.5707L15.7439 19.6244L15.7049 19.5805H15.6293L15.578 19.3146L15.5098 19.3512L15.4512 19.3244L15.4195 19.3439L15.3463 19.2683L15.3024 19.3902L15.1927 19.4122L15.122 19.3707L14.922 19.4439L14.878 19.4171L14.7927 19.4683L14.3756 19.4927L14.2195 19.4488L14.1073 19.3488L14.0585 19.1976L14 19.1683V19.0244L13.8927 18.8146L13.7171 18.6439L13.4 18.4756L13.2634 18.5317L13.0951 18.4976H13.078L12.7805 18.5976L12.6268 18.578H12.5805L12.3488 18.722H12.3122L12.0683 18.7512L11.8634 18.8512L11.639 19.039L11.378 19.0634L11.0049 19.2415L10.8366 19.1659L10.5927 19.1341L10.5707 19.0951L10.5098 18.9805L10.4268 19L10.4073 19.1073L10.2195 19.0244L10.0024 19.0951H9.43171L9.26829 19.1171V19.161L8.96829 19.2683L8.93659 19.3122H8.84146L8.69024 19.4415L8.65122 19.4268L8.22439 19.2683L7.89512 19.0244H7.80488L7.53659 18.7561H7.51707L7.3561 18.6488H7.29024L7.18049 18.4902L7.10976 18.4585L7.14146 18.3976H7.12927L7.07317 18.3341H6.90976L6.68049 18.2146L6.58293 18.1902L6.60732 18.1366L6.5439 18.0683L6.49024 18.0146L6.52683 17.9415V17.922L6.43902 17.9537L6.34146 17.8488V17.7512L6.29756 17.6146H6.21463L6.18293 17.5463L6.24146 17.4366L6.18049 17.4024V17.3366L6.22683 17.2561L6.16342 17.2049L6.04634 17.1439L6.0122 17.0122H5.92195L5.88293 16.9732V16.9049L5.91707 16.8707L5.85366 16.8293L5.81463 16.8854L5.74878 16.8585H5.65122L5.55366 16.7244L5.59268 16.5659L5.52439 16.4902L5.42195 16.5195L5.4 16.4951V16.422L5.21707 16.4415L5.31951 16.3317H5.27073L5.29512 16.2927L5.2561 16.2488H5.18537L5.15854 16.2122H5.36585L5.40244 16.1854L5.28781 16.0976L5.18293 16.1195L5.07317 16.1585H5.02439L5 16.0976H4.9122L4.83415 16.0195L4.9122 15.9585H4.85366H4.70976L4.67317 15.8927V15.8098L4.63415 15.7634L4.70732 15.7829L4.75366 15.7976L4.84634 15.739L4.7 15.6878L4.60244 15.739L4.58049 15.7073L4.62195 15.661V15.5317L4.57317 15.4683L4.64878 15.3927L4.73659 15.5049H4.85366L4.91951 15.4439L4.82195 15.4707L4.70976 15.4146L4.69024 15.3488L4.67805 15.3146L4.73659 15.2707L4.63415 15.1976H4.66829V15.1098L4.58781 15.0976L4.49268 14.9317L4.34634 14.8122L4.61707 14.5683L4.72927 14.3659L4.74634 14.2244L4.77073 14.0488L4.83903 13.7805L4.9439 13.6341L4.97317 13.3244L4.88781 12.878L4.76829 12.6829L4.81707 12.6463H4.87805L4.90976 12.5L4.87805 12.4049L4.93415 12.3488L4.80976 12.1634L4.75854 12.2049L4.71707 12.1951L4.68049 12.0902L4.58537 12.1951V12.0293L4.63415 11.9268V11.9098V11.7683L4.68049 11.6756V11.5683L4.74146 11.5024H4.79512L4.93171 11.2585L5.00732 11.2293L4.95366 11.1902V11.1488L5.12683 10.9195V10.8537L5.23415 10.6098L5.29756 10.5756L5.5 10.3878L5.51463 10.2634L5.78049 9.87805L5.7122 9.7561L5.82927 9.68781L5.85854 9.60244L6.15854 9.44634H6.23659V9.26829L6.40488 9.02439L6.50732 8.87805L6.92927 8.8L7.22927 8.53659H7.36585L7.49024 8.40244L7.51951 8.28293L7.79024 7.97561L7.81951 7.85122L7.77073 7.79024L7.73415 7.75366L7.79024 7.59268L7.71951 7.44878V7.3561L7.83171 7.12683L8.00488 6.97073V6.86585L7.93659 6.71707L8.13171 6.57561L8.19268 6.48293L8.29756 6.44878L8.46829 6.33415H8.53659L8.6561 6.20732L8.81463 6.15366L8.90976 6.0878H8.9561L9.15122 5.90732L9.20976 5.79512L9.22927 5.61707L9.32195 5.49512L9.33903 5.25122L9.42195 5.15854H9.49024L9.52439 5.12683L9.60976 5.09756L9.63415 5.12927L9.61951 5.15366V5.20244L9.63903 5.27073L9.68537 5.30732L9.80488 5.43415L9.89756 5.45366L10.0293 5.43415L10.1195 5.38537H10.1902L10.3293 5.42439L10.4683 5.39512L10.5439 5.3122H10.5756L10.5976 5.39512L10.6512 5.44878L10.8951 5.46829H10.9561H11.0707L11.2024 5.42683L11.2854 5.33659L11.3 5.28537L11.3537 5.23659L11.4561 5.18293H11.578L11.6024 5.14878L11.6488 5.11707H11.7073L11.7366 5.1439H11.7829L11.8366 5.07317V5.00732L11.939 4.9439H12L12.1195 4.92683L12.3293 4.76585L12.4244 4.78049H12.5902L12.6829 4.74878L12.7829 4.80244H12.8488L12.9585 4.69512L13.0415 4.72683H13.1317L13.1756 4.63902L13.2293 4.62683L13.3073 4.65122H13.3512L13.4415 4.66585L13.5561 4.64634L13.6098 4.66098H13.7268L13.7829 4.74878H13.8805L13.9683 4.68049H14.0366L14.0927 4.70244L14.1463 4.63415L14.2341 4.61707V4.55854L14.3341 4.53415L14.3951 4.58049V4.64878L14.5439 4.66585L14.6171 4.59268V4.54878L14.7341 4.59024L14.8293 4.67317L15.0122 4.61951L15.0756 4.63415L15.1976 4.60976L15.2195 4.63659L15.3317 4.53902L15.4878 4.46098L15.6024 4.43659L15.6463 4.5V4.4439L15.7415 4.42439L15.7951 4.47317V4.54878L15.839 4.56341L15.9024 4.7122L15.9463 4.73659L15.9976 4.68293L16.1512 4.54146L16.1902 4.57073V4.6561L16.1049 4.78293V4.86098L16 4.93415L15.9805 5.04634L16.0854 5.18781L16.2122 5.23659V5.37805L16.2439 5.4L16.261 5.46098L16.2146 5.50976L16.2512 5.56098L16.2195 5.60976L16.0951 5.73171L15.8805 5.88293L15.839 6.00976L15.9073 6.13415L16.0439 6.22927L16.1073 6.21463L16.1268 6.28049L16.1854 6.30732L16.2171 6.28049V6.24878L16.2439 6.22927L16.3098 6.26585V6.32683L16.322 6.37317L16.4512 6.45122H16.5024L16.6 6.47073L16.6829 6.54878L16.8951 6.59512L17.1976 6.53902L17.3171 6.58537H17.561L17.7073 6.68049L17.9829 6.71951L18.0927 6.86341V6.99756L18.2268 7.25366L18.3707 7.32683H18.5366L18.5829 7.3L18.722 7.31707L19.0439 7.45122L19.2439 7.55366L19.3732 7.65854L19.539 7.79512L19.7268 7.87073L19.8171 7.83659L19.9634 7.7122L19.9781 7.67073L20.0902 7.55854L20.1268 7.46098L20.0732 7.28781L19.9951 7.16585L20.0098 6.9439L20.0634 6.90244L20.0902 6.78537L20.1951 6.68293L20.3781 6.59512L20.5902 6.57561L20.7244 6.50732H20.7561L20.8488 6.55366L20.8927 6.51463L20.9293 6.53415L21.0805 6.57317H21.1732L21.3561 6.67317V6.72683L21.322 6.73902L21.3561 6.78781L21.5098 6.82927H21.622L21.6805 6.88293L21.9707 6.91707L22.0512 6.90488L22.1293 6.91707L22.1902 6.9878L22.2293 7.10732H22.2732H22.4878L22.6537 7.16098L22.9902 7.1878L23.1293 7.21707L23.2512 7.30244L23.3024 7.27073H23.3512L23.4756 7.34878H23.622H23.7244L23.8805 7.44634H24.0244L24.0415 7.40732L24.1463 7.31707L24.2585 7.28049L24.3122 7.25122L24.4293 7.1878L24.4805 7.15122H24.6024H24.6878L24.6195 7.18049H24.5366V7.2L24.5659 7.22927L24.661 7.19024H24.7439H24.8244V7.16098L24.761 7.14878L24.7854 7.12195L24.9317 7.16098L25.0195 7.19024H25.0902L25.1268 7.22683L25.0854 7.24634L25.1049 7.32195L25.1927 7.37073L25.2512 7.45854V7.40244L25.1707 7.31707L25.1902 7.2439L25.3488 7.35366L25.5634 7.29512L25.839 7.34146L25.9561 7.29512L26.0122 7.21951L26.0585 7.24146L26.1439 7.36585L26.1878 7.52683L26.3098 7.7122L26.4049 7.93659L26.3683 8.04146L26.4244 8.18781L26.4073 8.21463L26.3415 8.45854V8.55122L26.2902 8.68049L26.3293 8.71951L26.2976 8.87317L26.239 8.92927L26.222 8.98049V8.9561L26.1073 8.89268L25.9 8.67317L25.8756 8.59268L25.761 8.54146L25.7195 8.4561V8.37073L25.5512 8.22927V8.17561L25.5122 8.12927L25.4829 8.01951H25.4415L25.4244 7.99268L25.4049 8.02195V8.08049V8.13902L25.4951 8.2561V8.35366L25.6561 8.5439L25.6756 8.6122L25.9195 8.82439L25.9561 8.89268L25.939 8.96098V9.02439L26.0854 9.18293V9.23171L26.1293 9.28781L26.1463 9.45366L26.1927 9.52683V9.61707L26.4415 10L26.461 10.122L26.5317 10.1683L26.7024 10.4122L26.7415 10.5268L26.7902 10.5854V10.5561L26.8171 10.578L26.8878 10.6878H26.9293L26.9781 10.739H26.8512L26.8195 10.7122V10.7488L26.8488 10.8073V10.9146L26.8293 10.9756L26.8951 11.2024L27.0293 11.2878H27.1098L27.1634 11.2634L27.2171 11.378L27.3073 11.4049L27.3341 11.4585L27.4341 11.561L27.5098 11.5902V11.6268V11.6659L27.5317 11.7V11.722L27.5463 11.7415V11.7585L27.5634 11.7829L27.5927 11.9024L27.6756 12.0024V12.0439H27.6561L27.6439 12.0171L27.6098 11.9756L27.5951 11.9902V12.0683L27.7 12.378L27.722 12.5488L27.6976 12.7073L27.7561 12.8927L27.8342 13.0415L27.9049 13.0561L28.0951 13.1829V13.2659H28.1829L28.2756 13.3146V13.3756H28.2927L28.3927 13.4829L28.5732 13.9561L28.6317 14.2659H28.6634L28.6878 14.3805V14.4195L28.7463 14.439L28.7829 14.5293L28.8049 14.6634L28.8805 14.6829V14.561H28.861V14.4732L28.8927 14.4585L28.9707 14.5707L28.9415 14.6024L29.0146 14.7122L29.0634 14.7634L29.1073 14.7341H29.1707L29.1976 14.7512L29.2537 14.7317L29.3317 14.8195L29.3732 14.8707L29.4927 14.9L29.5195 14.9439L29.6659 15.1073L29.7293 15.2171L29.8171 15.2537L29.8805 15.3293H29.9146V15.3049L29.9439 15.3439L30.0146 15.5244L30.0683 15.539L30.1293 15.6171L30.1146 15.6439L30.1537 15.7293H30.1976L30.2463 15.7537L30.2805 15.722L30.2951 15.7463H30.3171V15.778L30.4171 15.8756H30.4439V15.9171L30.4585 16.0512L30.4146 16.0683L30.3342 16.1585H30.2732L30.2293 16.2244H30.1366L30.1854 16.2829H30.2146L30.2805 16.2537H30.3927L30.4073 16.2829L30.4341 16.3366H30.461L30.7317 16.6659L30.7634 16.7317L30.8073 16.7439L30.9146 16.8415L31.0195 16.8659L31.1439 16.8512L31.1829 16.8024L31.2951 16.7341H31.3659L31.5098 16.6171H31.5537L31.5781 16.6415H31.6951L31.7366 16.6268L31.822 16.6659L31.9488 16.6512L32.2098 16.4902L32.2951 16.4732L32.3805 16.5098L32.4439 16.4902H32.561L32.6805 16.4293H32.8171L32.8585 16.4537H32.9024L33.1122 16.4146L33.1707 16.3415L33.2976 16.3244L33.3341 16.3561V16.3195L33.4659 16.3049L33.5439 16.2293H33.5585L33.5927 16.1683L33.6463 16.1171H33.6829V16.0976L33.7341 16.1341L33.8439 16.1732H33.8951H33.9146L33.8683 16.239L33.8415 16.3073V16.378L33.8171 16.422L33.8366 16.4585H33.9024V16.4829L33.8561 16.522L33.8195 16.6122L33.8561 16.6634L33.8707 16.7366L33.839 16.8049H33.8976V16.7829H33.9244L33.9512 16.8341L33.922 16.8488V16.8317H33.8659H33.8293L33.7659 16.939L33.8 16.9951L33.7829 17.0976L33.7561 17.1439V17.2561L33.6073 17.4634L33.5073 17.678L33.4439 17.7561H33.4098H39.7122C39.7457 17.7562 39.7776 17.7423 39.8004 17.7177C39.8231 17.6931 39.8344 17.6602 39.8317 17.6268C39.8317 17.5707 39.8171 17.5171 39.8098 17.4634C39.7683 17.1244 39.7171 16.7878 39.6585 16.4537C39.6415 16.3512 39.622 16.2463 39.6024 16.1439C39.5268 15.7537 39.4439 15.3659 39.3463 14.9829C39.3463 14.9537 39.3293 14.9268 39.322 14.8976C39.2293 14.5415 39.1244 14.1878 39.0122 13.839C38.9805 13.739 38.9488 13.639 38.9146 13.5415C38.7976 13.2 38.6707 12.8634 38.5439 12.5293C38.5293 12.4976 38.5195 12.4634 38.5049 12.4317C38.3585 12.0707 38.2 11.7171 38.0341 11.3683C37.9902 11.2756 37.9439 11.1854 37.9 11.0951C37.7553 10.8024 37.6041 10.5146 37.4463 10.2317L37.3439 10.0439C37.1537 9.7187 36.9537 9.3935 36.7439 9.06829L36.5878 8.82439C36.4138 8.5626 36.2333 8.3065 36.0463 8.0561L35.8537 7.87805C35.622 7.57561 35.3854 7.27805 35.1366 6.99024L34.9829 6.81707C34.7732 6.57317 34.5585 6.3439 34.3366 6.11463L34.1463 5.90244C33.8781 5.63171 33.6024 5.36585 33.3195 5.10976L33.2098 5.01707C32.9659 4.79024 32.6927 4.57317 32.4268 4.36098L32.1829 4.16829C31.8854 3.93902 31.5829 3.71463 31.2732 3.50244L31.2512 3.48537C30.9317 3.26829 30.6049 3.06098 30.2756 2.86098L30 2.70732C29.7098 2.53902 29.4171 2.37561 29.1195 2.21951L28.9634 2.13659C28.622 1.96341 28.2707 1.80244 27.9171 1.64878L27.6463 1.53659C27.3512 1.4122 27.0512 1.29268 26.7488 1.1878L26.5049 1.1C26.139 0.973171 25.7732 0.856098 25.3902 0.75122L25.1463 0.682927C24.8341 0.6 24.5195 0.52439 24.2 0.456098L23.9098 0.392683C23.522 0.314634 23.1317 0.246341 22.7341 0.192683L22.539 0.168293C22.1951 0.12439 21.8585 0.0902439 21.5122 0.0634146L21.1902 0.0414634C20.7805 0.0170732 20.3707 0 19.9561 0H19.8829C19.4927 0 19.1 0.0170732 18.7049 0.0414634L18.2927 0.0756098C18.0146 0.097561 17.7366 0.126829 17.4585 0.160976C17.2829 0.182927 17.1024 0.202439 16.9268 0.229268H16.8878C7.93559 1.63156 1.04787 8.88269 0.107317 17.8951C0.107317 17.9341 0.107317 17.9732 0.107317 18.0122C0.0707317 18.2756 0.0512195 18.5366 0.0365854 18.8049C0.0365854 18.8829 0.0365854 18.961 0.0365854 19.0488C0 19.3439 0 19.6512 0 19.961C0 19.9854 0 20.0098 0 20.0341C0 20.3195 0 20.6 0.0195122 20.8829L0.0341463 21.1268C0.0487805 21.3707 0.0658537 21.6146 0.0902439 21.8732L0.104878 22.0463C0.136585 22.3439 0.17561 22.639 0.219512 22.9317C0.219512 23.0049 0.241463 23.0756 0.253659 23.1488C0.290244 23.3927 0.331707 23.6122 0.378049 23.8415C0.392683 23.9195 0.407317 23.9976 0.42439 24.0854C0.482927 24.3732 0.548781 24.661 0.621951 24.9439C0.621951 24.9756 0.639024 25.0098 0.648781 25.0415C0.714634 25.2854 0.787805 25.5463 0.863415 25.7951L0.936585 26.039C1.0122 26.2829 1.09024 26.5024 1.18049 26.7341C1.19756 26.7805 1.2122 26.8293 1.22927 26.8756C1.32927 27.1463 1.43659 27.4146 1.54634 27.6805L1.63415 27.8829C1.72439 28.0902 1.81707 28.2976 1.91463 28.5049L2.0122 28.7098C2.13902 28.9683 2.2561 29.222 2.40244 29.4732L2.46341 29.5805C2.58293 29.8 2.70732 30.0146 2.83659 30.2293L2.96341 30.4366C3.09268 30.6463 3.22439 30.8537 3.36098 31.0585C3.38537 31.0927 3.40732 31.1293 3.43171 31.1659C3.59024 31.4098 3.7561 31.6317 3.91951 31.861L4.05366 32.039C4.19024 32.2171 4.32927 32.3951 4.47073 32.5683C4.51707 32.6268 4.56098 32.6829 4.60976 32.739C4.79024 32.9561 4.97561 33.1707 5.16585 33.3805L5.26098 33.4854C5.42439 33.6634 5.59268 33.8366 5.76098 34.0098L5.93171 34.1805C6.1122 34.3585 6.29512 34.5317 6.48049 34.7024L6.5561 34.7732C6.76585 34.9659 6.98293 35.1512 7.2 35.3317L7.37805 35.4756C7.55122 35.6171 7.72927 35.7585 7.90976 35.8951L8.07805 36.022C8.30488 36.1902 8.53659 36.3561 8.77073 36.5098L8.90488 36.5951C9.10244 36.7268 9.30244 36.8561 9.50488 36.9805L9.7122 37.1073C9.93659 37.2415 10.1634 37.3732 10.3927 37.5L10.4634 37.539C10.7073 37.6756 10.9707 37.8049 11.2293 37.9293L11.439 38.0317C11.6463 38.1293 11.8561 38.222 12.0659 38.3146L12.2561 38.3976C12.522 38.5073 12.7902 38.6146 13.061 38.7122L13.2268 38.7732C13.4512 38.8512 13.6756 38.9293 13.9024 39L14.1463 39.0756C14.4122 39.1561 14.6805 39.2317 14.9488 39.3024L14.9927 39.3146C15.2781 39.3878 15.5659 39.4537 15.8537 39.5146L16.0976 39.561C16.3415 39.6073 16.561 39.6488 16.7976 39.6878L17 39.7195C17.2927 39.7634 17.5878 39.8 17.8829 39.8317L18.0805 39.8488C18.3244 39.8732 18.5683 39.8902 18.8122 39.9049L19.0561 39.9195C19.361 39.9317 19.6683 39.9415 19.9756 39.9415C20.2829 39.9415 20.6146 39.9415 20.9317 39.9195C21.0537 39.9195 21.1756 39.9024 21.2902 39.8951C21.4878 39.8805 21.6829 39.8707 21.878 39.8537C22.0049 39.8537 22.122 39.822 22.2537 39.8073C22.4415 39.7878 22.6268 39.7683 22.8122 39.7415L23.2146 39.6756C23.3878 39.6463 23.5585 39.622 23.7293 39.5902C23.9 39.5585 24.0073 39.5293 24.1463 39.5C24.2854 39.4707 24.4732 39.4341 24.6341 39.3951C24.7951 39.3561 24.9146 39.322 25.0537 39.2854C25.1927 39.2488 25.3683 39.2049 25.5244 39.161C25.6805 39.1171 25.8 39.0756 25.9366 39.0317C26.0732 38.9878 26.2439 38.939 26.3951 38.8878C26.5463 38.8366 26.6634 38.7902 26.7976 38.7415C26.9317 38.6927 27.1 38.6341 27.2512 38.5756C27.4024 38.5171 27.5171 38.4634 27.6512 38.4073C27.7854 38.3512 27.9415 38.2902 28.0854 38.2268C28.2293 38.1634 28.3488 38.1024 28.4781 38.0415C28.6073 37.9805 28.7634 37.9098 28.9024 37.8415C29.0415 37.7732 29.1463 37.7073 29.2829 37.639C29.4195 37.5707 29.561 37.4951 29.6976 37.4195C29.8342 37.3439 29.9415 37.2756 30.0659 37.2024C30.1902 37.1293 30.339 37.0463 30.4707 36.9585C30.6024 36.8707 30.7146 36.8049 30.8293 36.7268C30.9439 36.6488 31.0927 36.5585 31.222 36.4707C31.3512 36.3829 31.4537 36.3049 31.5707 36.2268C31.6878 36.1488 31.8146 36.0488 31.9488 35.9561L32.2878 35.6902C32.4098 35.5951 32.5317 35.5024 32.6512 35.4049L32.9756 35.122C33.0927 35.022 33.2195 34.9244 33.3244 34.822C33.4293 34.7195 33.5317 34.6268 33.6366 34.5293C33.7415 34.4317 33.8634 34.3195 33.9756 34.2098C34.0878 34.1 34.1732 34.0049 34.2732 33.9049C34.3732 33.8049 34.4902 33.6829 34.5951 33.5707C34.7 33.4585 34.7878 33.3561 34.8829 33.2512C34.9781 33.1463 35.0902 33.022 35.1902 32.9049C35.2902 32.7878 35.3707 32.6829 35.461 32.5707C35.5512 32.4585 35.6585 32.3268 35.7537 32.2122C35.8488 32.0976 35.9244 31.9683 36.0122 31.8634C36.1 31.7585 36.1951 31.6195 36.2854 31.4927C36.3756 31.3659 36.4463 31.2488 36.5293 31.1341C36.6122 31.0195 36.7024 30.8902 36.7732 30.7512C36.8439 30.6122 36.9244 30.5073 37.0024 30.3805C37.0805 30.2537 37.1634 30.1195 37.2463 29.9854C37.3293 29.8512 37.3878 29.7415 37.4585 29.6C37.5293 29.4585 37.6073 29.3341 37.6781 29.2C37.7488 29.0659 37.8122 28.9341 37.8781 28.8024C37.9439 28.6707 38.0146 28.5293 38.0781 28.3902C38.1415 28.2512 38.1976 28.1195 38.2585 27.9829C38.3195 27.8463 38.3829 27.7049 38.4415 27.5634C38.5 27.422 38.5488 27.2878 38.6024 27.1488C38.6561 27.0098 38.7146 26.861 38.7683 26.7146C38.822 26.5683 38.861 26.4341 38.9098 26.2951C38.9585 26.1561 39.0098 25.9976 39.0561 25.8488C39.1024 25.7 39.139 25.5634 39.1781 25.4195C39.2171 25.2756 39.2659 25.1195 39.3049 24.9659C39.3439 24.8122 39.3756 24.6732 39.4098 24.5244C39.4439 24.3756 39.4829 24.222 39.5146 24.0683C39.5463 23.9146 39.5707 23.7683 39.5976 23.6195C39.6244 23.4707 39.6585 23.3098 39.6829 23.1537C39.7073 22.9976 39.7244 22.8488 39.7463 22.6976C39.7683 22.5463 39.7854 22.4244 39.8 22.2878C39.8028 22.2227 39.7529 22.1673 39.6878 22.1634ZM16.2 6.20244L16.1317 6.14878V6.11707H16.2122L16.2439 6.1561L16.2 6.20244ZM6.46829 18.139L6.40976 18.1024L6.39756 18.0634L6.41707 18.0317H6.46342L6.49756 18.0732V18.1317L6.46829 18.139ZM14.6122 21.2878L14.5634 21.3195H14.5293V21.239L14.5805 21.1854L14.6341 21.2195L14.6122 21.2878ZM15.3439 19.9122V19.8463H15.4L15.4341 19.7463L15.5244 19.6537L15.5561 19.6829V19.8049L15.4927 19.9732L15.4098 19.961L15.3439 19.9122Z" fill="#0090FC"/>
<path d="M25.2929 33.1436L25.2514 33.1509L25.2222 33.1582L25.2929 33.1436Z" fill="#0090FC"/>
<path d="M47.8047 32.5388L46.8291 34.8559H45.834L49.6023 26.2998L53.2754 34.8559H52.2681L51.3047 32.5388H47.8047ZM49.5706 28.4218L48.173 31.6925H50.9267L49.5706 28.4218Z" fill="#0090FC"/>
<path d="M66.4732 27.5338V29.9729H69.1927V30.8168H66.4732V34.868H65.5635V26.6875H69.2684V27.5338H66.4732Z" fill="#0090FC"/>
<path d="M82.7682 34.8558H81.8584V26.6875H83.0389C84.5901 26.6875 86.0291 27.0997 86.0291 28.9412C86.0291 30.1973 85.2389 31.0875 83.9828 31.1948L86.5828 34.8534H85.4657L82.9974 31.268H82.7682V34.8558ZM82.7682 30.4655H83.0511C84.0804 30.4655 85.1194 30.2704 85.1194 29.0021C85.1194 27.6582 84.1438 27.5387 83.0389 27.5387H82.7682V30.4655Z" fill="#0090FC"/>
<path d="M99.9586 34.8558H99.0488V26.6875H99.9586V34.8558Z" fill="#0090FC"/>
<path d="M119.332 28.476C118.679 27.7913 117.776 27.4006 116.829 27.3931C115.01 27.3931 113.537 28.976 113.537 30.7735C113.548 32.6128 115.022 34.1084 116.861 34.1467C117.795 34.122 118.682 33.7324 119.332 33.0613V34.1882C118.622 34.7034 117.77 34.984 116.893 34.9906C115.384 34.9906 113.989 34.1855 113.234 32.8784C112.48 31.5714 112.48 29.9611 113.234 28.654C113.989 27.347 115.384 26.5418 116.893 26.5418C117.772 26.5287 118.631 26.8103 119.332 27.3418V28.476ZM133.464 32.5394L132.488 34.8565H131.49L135.261 26.3004L138.932 34.8565H137.925L136.949 32.5394H133.464ZM135.229 28.4223L133.832 31.6931H136.586L135.229 28.4223ZM57.266 16.6882H48.0489C48.0489 18.4687 48.9855 19.4296 50.7904 19.4296C51.7294 19.4296 52.4026 19.1174 52.8831 18.3004H57.0977C56.7875 19.6402 55.9446 20.7957 54.7636 21.5004C53.5677 22.2002 52.2026 22.5579 50.8172 22.5345C46.727 22.5345 43.6709 20.2248 43.6709 15.9662C43.6709 11.8516 46.4855 9.38086 50.5002 9.38086C54.7831 9.38086 57.2611 12.0272 57.2611 16.237L57.266 16.6882ZM53.2002 14.1613C52.9543 12.9975 51.9111 12.1762 50.7221 12.2101C49.4465 12.2101 48.388 12.8833 48.1221 14.1613H53.2002Z" fill="#0090FC"/>
<path d="M70.7925 10.9761V3.9834H75.5095V22.1249H70.7925V14.6907H63.9827V22.1249H59.2681V3.9834H63.9827V10.9761H70.7925Z" fill="#0090FC"/>
<path d="M90.8051 16.6882H81.5904C81.5904 18.4687 82.5295 19.4296 84.3319 19.4296C85.2709 19.4296 85.9441 19.1174 86.427 18.3004H90.6368C90.3253 19.6424 89.4784 20.7986 88.2929 21.5004C87.097 22.2002 85.7319 22.5579 84.3465 22.5345C80.2563 22.5345 77.2002 20.2248 77.2002 15.9662C77.2002 11.8516 80.0148 9.38086 84.0295 9.38086C88.3124 9.38086 90.7904 12.0272 90.7904 16.237L90.8051 16.6882ZM86.7392 14.1613C86.4933 12.9975 85.4502 12.1762 84.2612 12.2101C82.9856 12.2101 81.927 12.8833 81.6612 14.1613H86.7392ZM106.671 22.1248H102.281V20.754H102.234C101.464 21.9735 99.9465 22.5345 98.5026 22.5345C94.8441 22.5345 92.2709 19.4784 92.2709 15.9492C92.2709 12.4199 94.7978 9.38086 98.4563 9.38086C99.8758 9.38086 101.366 9.91013 102.281 10.9931V9.78086H106.671V22.1248ZM96.8051 15.9662C96.8051 17.5296 97.8392 18.7321 99.6197 18.7321C101.4 18.7321 102.439 17.5296 102.439 15.9662C102.439 14.4492 101.4 13.1711 99.6197 13.1711C97.8392 13.1711 96.8051 14.4492 96.8051 15.9662Z" fill="#0090FC"/>
<path d="M113.464 22.1241H109.085V2.15332H113.464V22.1241Z" fill="#0090FC"/>
<path d="M130.544 2.15332V11.346H130.593C131.603 9.99722 132.829 9.37283 134.539 9.37283C137.666 9.37283 139.173 11.4411 139.173 14.568V22.1289H134.783V15.7972C134.783 14.3533 134.566 12.8704 132.81 12.8704C131.054 12.8704 130.525 14.3631 130.525 15.7972V22.1241H126.134V2.15332H130.544Z" fill="#0090FC"/>
<path d="M124.483 9.78015H122.005V2.15332H117.625V9.78015H115.149V13.3899H117.625V22.1241H122.005V13.3899H124.483V9.78015Z" fill="#0090FC"/>
</g>
<defs>
<clipPath id="clip0_291_3881">
<rect width="139.268" height="40" fill="white"/>
</clipPath>
</defs>
</svg>
