<svg width="104" height="40" viewBox="0 0 104 40" fill="none" xmlns="http://www.w3.org/2000/svg">
<g clip-path="url(#clip0_298_12115)">
<path d="M22.3877 13.247L16.798 24.6455L7.52344 12.0459H22.9794L33.5336 26.3859L27.0876 39.5248H10.8186L17.2646 26.3859H32.0567L22.3877 13.247Z" fill="#45C734"/>
<path d="M6.44601 12.585L0 25.7239L9.76041 38.9853L16.2064 25.8513L6.44601 12.585Z" fill="#45C734"/>
<path d="M45.7524 4.82902C45.7524 6.97144 48.4366 10.4032 50.8322 12.8447H56.547V14.9822C54.6307 15.0159 52.716 14.8516 50.8322 14.492V37.2889L53.1268 39.2499V39.549H39.9894V39.2205L42.2359 37.2595L42.0868 14.8106L39.1572 13.1438V12.8447H42.0868L41.9906 11.2759C41.4518 1.69138 50.736 0 52.1503 0C56.1093 0 58.9907 1.69138 60.8476 4.02991L56.5951 11.0994L56.3017 11.0504C54.3583 6.52041 50.2934 2.58855 47.8016 2.58855C46.2911 2.58855 45.7524 3.6328 45.7524 4.82902Z" fill="black"/>
<path d="M79.2332 32.3573C75.1443 36.902 71.6856 40.0298 70.05 40.0249C62.3533 40.0249 56.422 34.9164 56.4317 26.6458C56.4317 15.0463 66.9183 12.5166 69.6074 12.5215C75.6589 12.5215 78.5356 16.3995 78.9108 21.2922C78.9108 22.6649 72.5177 25.6408 70.5021 25.6359H64.3545C66.1295 29.7491 69.5304 33.48 74.4563 33.48C75.8032 33.48 77.054 33.1417 78.9733 32.1171L79.2332 32.3573ZM62.9258 19.1204C62.9641 21.0475 63.3352 22.9527 64.0224 24.7485H70.3097C70.2231 19.0713 68.1643 14.762 65.5233 14.7571C64.1331 14.7375 62.9306 16.1788 62.9258 19.1204Z" fill="black"/>
<path d="M103.333 13.34L90.0518 38.5784C95.5694 38.5294 97.229 35.6369 102.357 25.0915H102.65V39.1765L102.554 39.5246H80.9648V39.2207L93.6163 13.9333C88.9742 14.0313 87.6081 15.2766 82.0376 26.3809H81.696L81.6479 13.2861L81.8452 13.0361H103.333V13.34Z" fill="black"/>
</g>
<defs>
<clipPath id="clip0_298_12115">
<rect width="104" height="40" fill="white"/>
</clipPath>
</defs>
</svg>
