<svg width="40" height="40" viewBox="0 0 40 40" fill="none" xmlns="http://www.w3.org/2000/svg">
<g clip-path="url(#clip0_298_12875)">
<path d="M19.998 39.9961C31.0427 39.9961 39.9961 31.0427 39.9961 19.998C39.9961 8.95343 31.0427 0 19.998 0C8.95343 0 0 8.95343 0 19.998C0 31.0427 8.95343 39.9961 19.998 39.9961Z" fill="url(#paint0_linear_298_12875)"/>
<path opacity="0.5" d="M18.5232 33.2824C24.5249 33.2824 29.3902 28.3089 29.3902 22.1739C29.3902 16.0389 24.5249 11.0654 18.5232 11.0654C12.5216 11.0654 7.65625 16.0389 7.65625 22.1739C7.65625 28.3089 12.5216 33.2824 18.5232 33.2824Z" fill="white"/>
<path opacity="0.748" d="M21.4211 28.9357C27.4228 28.9357 32.2881 23.9623 32.2881 17.8272C32.2881 11.6922 27.4228 6.71875 21.4211 6.71875C15.4194 6.71875 10.5541 11.6922 10.5541 17.8272C10.5541 23.9623 15.4194 28.9357 21.4211 28.9357Z" fill="white"/>
</g>
<defs>
<linearGradient id="paint0_linear_298_12875" x1="3999.61" y1="1999.8" x2="0" y2="1999.8" gradientUnits="userSpaceOnUse">
<stop stop-color="#B78FFF"/>
<stop offset="1" stop-color="#966FDB"/>
</linearGradient>
<clipPath id="clip0_298_12875">
<rect width="40" height="40" fill="white"/>
</clipPath>
</defs>
</svg>
