<svg width="95" height="40" viewBox="0 0 95 40" fill="none" xmlns="http://www.w3.org/2000/svg">
<g clip-path="url(#clip0_291_3711)">
<path d="M88.5987 1.49738e-05L91.2364 4.79396C91.6785 5.50959 91.948 6.31828 92.0235 7.15606C92.0991 7.99384 91.9786 8.83769 91.6716 9.62085C91.4738 10.1154 91.6255 10.2341 92.1002 10.2275C92.8586 10.2275 93.6235 10.2275 94.3818 10.2275C94.8566 10.2275 94.9555 10.4319 94.7313 10.8078C93.7158 12.5157 92.8783 14.3423 91.6188 15.8919C91.2283 16.4153 90.7339 16.8524 90.1666 17.1758C89.5992 17.4992 88.9711 17.7019 88.3218 17.7712C87.7613 17.824 87.7877 18.035 88.0185 18.4306C88.4075 19.09 88.7702 19.7494 89.1527 20.4089C89.3703 20.7847 89.4296 21.0683 88.8361 21.0683C86.904 21.0353 84.9654 21.1144 83.0399 20.9628C82.2442 20.8974 81.4758 20.6423 80.7989 20.219C80.122 19.7957 79.5564 19.2163 79.1493 18.5295C78.6284 19.4065 78.1536 20.1847 77.7052 20.9759C77.4283 21.4639 77.2173 21.5958 76.8876 20.9759C76.0567 19.4857 75.1533 18.035 74.362 16.5249C73.9807 15.846 73.7557 15.0907 73.7032 14.3139C73.6507 13.537 73.7722 12.7583 74.0587 12.0343C74.2631 11.5134 74.1576 11.3749 73.6169 11.3749C72.7069 11.3749 71.7969 11.3749 70.6231 11.3749C72.1002 9.12629 72.9245 6.759 74.7906 4.98518C75.6819 4.17457 76.8434 3.72548 78.0481 3.7257C77.547 2.84208 77.1184 2.05079 76.6568 1.27268C76.393 0.824277 76.3073 0.534151 77.0195 0.547339C78.8262 0.586904 80.633 0.547329 82.4332 0.619865C83.2789 0.64899 84.1036 0.890081 84.8318 1.32099C85.56 1.75191 86.1682 2.35883 86.6007 3.08606L88.3811 -0.0263672L88.5987 1.49738e-05ZM80.6858 1.68153H78.7933C78.4899 1.68153 78.2591 1.76724 78.4702 2.11673C79.3933 3.63997 80.0066 5.41381 81.5694 6.46228C82.9608 7.41843 84.4115 7.12169 85.2423 5.80286C86.0732 4.48404 85.605 3.04651 84.1081 2.25522C83.0305 1.79161 81.8543 1.60351 80.6858 1.70789M74.8302 13.9005C74.8302 14.9094 76.36 18.391 77.0656 19.0373C77.2502 19.2087 77.3953 19.2285 77.5074 19.0373C78.391 17.4481 79.5846 15.9908 79.7824 14.0983C79.8277 13.7513 79.7998 13.3987 79.7006 13.0632C79.6013 12.7277 79.4329 12.4167 79.2062 12.1502C78.9794 11.8837 78.6994 11.6676 78.3841 11.5159C78.0688 11.3642 77.7253 11.2803 77.3755 11.2694C77.0293 11.2543 76.6838 11.3129 76.3619 11.4414C76.0401 11.5699 75.7492 11.7653 75.5085 12.0147C75.2679 12.2641 75.083 12.5617 74.966 12.888C74.8491 13.2142 74.8028 13.5616 74.8302 13.907M90.9133 7.82067C90.9133 6.70626 89.5944 3.60701 88.7108 2.68383C88.5196 2.48601 88.3614 2.3871 88.2031 2.68383C87.3525 4.24664 86.1787 5.67756 85.9611 7.52392C85.9048 7.86846 85.9223 8.22103 86.0124 8.5583C86.1026 8.89557 86.2633 9.20988 86.4839 9.48041C86.7046 9.75094 86.9802 9.97153 87.2925 10.1276C87.6047 10.2837 87.9466 10.3717 88.2954 10.3858C88.6442 10.4237 88.9971 10.3842 89.3289 10.2702C89.6608 10.1562 89.9634 9.97037 90.2152 9.72608C90.4671 9.48178 90.662 9.18497 90.7861 8.85677C90.9101 8.52857 90.9603 8.17706 90.9331 7.82725M85.3149 19.9341C85.6907 19.9341 86.2908 19.9341 86.8909 19.9341C87.4909 19.9341 87.4712 19.7297 87.2206 19.3208C86.5612 18.279 85.9545 17.2173 85.2753 16.1952C84.9044 15.6352 84.3865 15.188 83.7784 14.9028C83.1979 14.6332 82.5357 14.5986 81.9302 14.8062C81.3248 15.0138 80.8231 15.4474 80.53 16.0164C80.237 16.5855 80.1754 17.2457 80.358 17.8592C80.5407 18.4726 80.9535 18.9916 81.5101 19.3076C82.6311 19.967 83.8642 19.967 85.3215 19.9011M84.1873 13.8543C84.4906 13.8873 84.5499 13.7092 84.5961 13.518C84.6864 13.0678 84.8645 12.6399 85.1202 12.2586C85.3759 11.8773 85.7042 11.5501 86.0864 11.2958C86.3699 11.0979 86.3501 10.9265 86.0864 10.7023C85.4215 10.1051 85.0011 9.28299 84.906 8.39435C84.8599 8.05146 84.7016 7.8932 84.3257 8.0053C83.4675 8.26965 82.5418 8.20619 81.7277 7.82725C81.4309 7.69536 81.2463 7.74154 81.1803 8.09103C81.002 9.00355 80.4714 9.80907 79.7033 10.333C79.4197 10.544 79.4659 10.7221 79.7033 10.9331C80.3351 11.5178 80.7393 12.3074 80.844 13.1619C80.877 13.3597 80.8836 13.7224 81.1606 13.6499C82.1518 13.3285 83.2288 13.4017 84.1675 13.8543M75.1203 10.2869C76.4392 10.2869 77.758 10.3264 78.879 9.54832C79.354 9.28391 79.721 8.86119 79.9163 8.35386C80.1115 7.84653 80.1224 7.28679 79.9472 6.7722C79.8447 6.37711 79.6455 6.01375 79.3675 5.71486C79.0895 5.41598 78.7415 5.19096 78.3549 5.06012C77.9683 4.92928 77.5552 4.89673 77.1528 4.96537C76.7504 5.03403 76.3715 5.20173 76.0501 5.45337C74.4939 6.52822 73.8543 8.26906 72.9179 9.7923C72.7201 10.1088 72.8849 10.2539 73.2212 10.2605H75.1203M90.8012 11.3353C89.4824 11.3353 88.2097 11.276 87.0293 11.9947C86.6811 12.1736 86.3808 12.4334 86.1537 12.7524C85.9267 13.0714 85.7796 13.4402 85.7246 13.8278C85.6697 14.2155 85.7086 14.6107 85.8381 14.9802C85.9676 15.3497 86.1839 15.6827 86.4688 15.9512C87.4514 16.9865 88.9482 16.9601 90.1879 15.8325C91.4276 14.7049 92.0277 13.1949 92.8652 11.8761C93.1157 11.4672 92.8651 11.3947 92.5025 11.3947H90.8012" fill="#0B85A4"/>
<path d="M2.09734e-06 29.3702C0.336303 29.1394 0.26377 28.7504 0.3429 28.4339C0.595587 27.1486 1.22753 25.9686 2.15723 25.046C3.08693 24.1233 4.27175 23.5004 5.55885 23.2575C7.79332 22.7213 10.1367 22.8613 12.2915 23.6597C13.2347 23.9968 14.0542 24.6109 14.6425 25.4216C15.2309 26.2323 15.5606 27.2018 15.5885 28.2031C15.5885 28.7834 15.4303 28.9944 14.8566 28.9812C14.1612 29.0152 13.4642 28.9687 12.7794 28.8427C12.47 28.7813 12.1772 28.6549 11.9203 28.4718C11.6634 28.2888 11.4483 28.0534 11.2892 27.781C10.4583 26.3633 9.1065 26.0336 7.59644 26.2051C6.08639 26.3765 5.42038 27.3854 5.07748 28.6976C4.57258 30.5676 4.58855 32.54 5.12365 34.4016C5.46654 35.5885 6.11276 36.5776 7.45796 36.7359C8.96802 36.9139 10.3989 36.7359 11.2562 35.2192C11.9156 34.085 12.9772 33.9861 14.1312 33.9795C15.76 33.9795 15.7863 33.9795 15.45 35.5951C15.3 36.4615 14.9123 37.2692 14.3301 37.9282C13.748 38.5872 12.9943 39.0716 12.153 39.3274C9.95885 40.1017 7.58553 40.214 5.32806 39.6505C4.14443 39.3935 3.05611 38.811 2.18579 37.9686C1.31546 37.1263 0.697738 36.0575 0.402245 34.8829C0.303333 34.5532 0.402239 34.0916 -0.0461617 33.9202V32.786C0.266139 31.9936 0.266139 31.1122 -0.0461617 30.3198L2.09734e-06 29.3702Z" fill="#F26B21"/>
<path d="M1.90735e-06 30.3193C0.312302 31.1117 0.312302 31.9931 1.90735e-06 32.7855V30.3193Z" fill="#F26B21"/>
<path d="M23.7191 28.6716C27.5569 28.6716 29.8714 30.6498 30.089 33.6369C30.4385 38.4573 26.7458 40.3366 22.664 39.8156C21.2114 39.6446 19.8835 38.9118 18.9642 37.7741C18.045 36.6364 17.6075 35.1841 17.7454 33.728C17.8832 32.2718 18.5855 30.9275 19.7019 29.9825C20.8183 29.0375 22.2602 28.567 23.7191 28.6716ZM26.027 34.3491C26.0751 33.5626 25.9514 32.775 25.6644 32.0412C25.5428 31.6958 25.317 31.3968 25.0181 31.1854C24.7193 30.9739 24.3621 30.8605 23.9961 30.8608C23.6144 30.8296 23.2331 30.9251 22.9113 31.1326C22.5894 31.34 22.3449 31.6478 22.2156 32.0082C21.6529 33.4269 21.6388 35.0043 22.1761 36.4328C22.2961 36.8138 22.5426 37.1423 22.8748 37.3641C23.2069 37.5859 23.6048 37.6878 24.0026 37.6528C24.3846 37.6494 24.7557 37.525 25.0625 37.2975C25.3694 37.07 25.5962 36.7512 25.7105 36.3867C25.9445 35.7338 26.0519 35.0422 26.027 34.3491Z" fill="#F26B21"/>
<path d="M52.0145 39.8881C47.3327 40.0002 44.5565 36.2283 46.1985 31.9751L46.2644 31.7971C47.3525 29.4561 49.3769 28.6714 51.7639 28.6319C54.151 28.5923 56.3798 29.1264 57.5338 31.4871C58.1011 32.4864 58.3495 33.6351 58.2458 34.7794C58.142 35.9237 57.6912 37.0091 56.9535 37.89C55.7072 39.4396 53.9202 39.8683 52.0211 39.8683M49.8846 34.1907C49.8693 34.9501 49.9853 35.7063 50.2275 36.4261C50.3603 36.7859 50.6018 37.0954 50.9185 37.3116C51.2352 37.5279 51.6113 37.6402 51.9947 37.6329C52.3977 37.6469 52.7936 37.5242 53.118 37.2848C53.4424 37.0454 53.6763 36.7032 53.7817 36.314C54.2621 34.9619 54.2621 33.4855 53.7817 32.1334C53.6719 31.7273 53.4229 31.3727 53.0782 31.1316C52.7334 30.8905 52.3149 30.7783 51.8958 30.8145C51.4975 30.8332 51.1154 30.978 50.8048 31.2281C50.4942 31.4782 50.2713 31.8207 50.1682 32.2059C49.9934 32.8511 49.9004 33.5157 49.8912 34.1841" fill="#F26B21"/>
<path d="M32.3838 34.4679C32.3838 33.0501 32.3838 31.6258 32.3838 30.2081C32.367 30.1065 32.3709 30.0026 32.3952 29.9025C32.4196 29.8025 32.4639 29.7084 32.5254 29.6259C32.587 29.5434 32.6646 29.4742 32.7536 29.4224C32.8425 29.3706 32.9411 29.3373 33.0432 29.3245C35.2626 28.6459 37.6053 28.4702 39.9011 28.8101C41.9848 29.1464 43.3235 30.3861 43.2443 32.6743C43.1784 34.7251 43.2443 36.7758 43.3234 38.8266C43.3234 39.4003 43.1784 39.6245 42.5783 39.5849C41.92 39.5304 41.2584 39.5304 40.6001 39.5849C39.789 39.664 39.5054 39.4333 39.5318 38.5628C39.5978 36.5846 39.5318 34.6459 39.5318 32.6875C39.5398 32.3381 39.4508 31.9933 39.2748 31.6913C39.0988 31.3894 38.8426 31.1421 38.5346 30.9768C38.2266 30.8116 37.8789 30.7348 37.53 30.7551C37.1811 30.7754 36.8446 30.8919 36.5579 31.0917C36.1952 31.3093 36.2809 31.6258 36.2743 31.9225C36.2743 34.1645 36.2018 36.4066 36.2348 38.6486C36.2348 39.4201 35.9974 39.6377 35.2654 39.5783C34.5386 39.5333 33.8096 39.5333 33.0828 39.5783C32.5684 39.5783 32.4233 39.3871 32.4233 38.9189C32.4233 37.4352 32.4233 35.9516 32.4233 34.4679" fill="#F26B21"/>
<path d="M70.8539 31.4407C70.8539 33.8739 70.8539 36.3071 70.8539 38.7338C70.8539 39.3932 70.7287 39.6569 70.0231 39.6042C69.2632 39.5596 68.5014 39.5596 67.7415 39.6042C67.2404 39.6042 67.0821 39.4262 67.0821 38.9448C67.0821 34.5267 67.0821 30.1021 67.1612 25.684C67.1877 25.2914 67.2973 24.9089 67.4829 24.5619C67.6684 24.2149 67.9256 23.9113 68.2374 23.6712C68.5491 23.4312 68.9084 23.2601 69.2913 23.1695C69.6742 23.0788 70.072 23.0705 70.4583 23.1452C71.0122 23.2573 70.821 23.6662 70.8276 23.9629C70.8276 26.4555 70.8276 28.9547 70.8276 31.4473L70.8539 31.4407Z" fill="#F26B21"/>
<path d="M64.2598 34.1444C64.2598 35.6874 64.2598 37.2304 64.2598 38.7603C64.2598 39.3472 64.1543 39.6373 63.4883 39.5912C62.5453 39.5252 61.3254 39.8879 60.7319 39.4197C60.1385 38.9515 60.5341 37.6525 60.5275 36.7161C60.5275 34.7379 60.5275 32.8124 60.6198 30.8605C60.6858 29.4296 62.5981 28.2229 63.9631 28.6119C64.3785 28.7306 64.2466 29.0537 64.2466 29.2713C64.2466 30.8737 64.2466 32.4827 64.2466 34.0916" fill="#F26B21"/>
<path d="M64.2598 23.4753C64.1147 24.7216 63.2773 25.8558 62.6047 27.0625C62.4596 27.3263 62.2816 27.1812 62.1761 27.0097C61.5166 25.8755 60.6726 24.7941 60.5605 23.4159C60.5198 23.156 60.5367 22.8904 60.6102 22.6378C60.6836 22.3852 60.8117 22.1518 60.9853 21.9542C61.159 21.7566 61.374 21.5997 61.6151 21.4944C61.8562 21.3892 62.1175 21.3383 62.3805 21.3454C63.4751 21.3454 64.2664 22.1433 64.2598 23.4819" fill="#F26B21"/>
<path d="M80.7122 1.71432C81.8807 1.61049 83.0567 1.79855 84.1345 2.26162C85.6248 3.05951 86.1127 4.47066 85.2687 5.80927C84.4246 7.14788 82.9806 7.45121 81.5958 6.46868C80.033 5.40043 79.4263 3.64639 78.4965 2.12315C78.2855 1.77366 78.4965 1.68794 78.8196 1.68794H80.7188" fill="#E4E085"/>
<path d="M74.8566 13.8744C74.8292 13.5289 74.8755 13.1815 74.9924 12.8553C75.1093 12.5291 75.2943 12.2314 75.5349 11.982C75.7756 11.7326 76.0665 11.5372 76.3883 11.4087C76.7102 11.2802 77.0557 11.2216 77.4019 11.2367C77.7516 11.2476 78.0952 11.3316 78.4105 11.4833C78.7258 11.635 79.0058 11.851 79.2326 12.1175C79.4593 12.384 79.6277 12.695 79.7269 13.0305C79.8262 13.366 79.854 13.7186 79.8088 14.0656C79.6109 15.9515 78.4174 17.4154 77.5338 19.0046C77.4151 19.2156 77.2766 19.1958 77.092 19.0046C76.393 18.3452 74.8632 14.8767 74.8566 13.8678" fill="#E4E085"/>
<path d="M90.9397 7.78795C90.9669 8.13776 90.9167 8.48928 90.7926 8.81748C90.6686 9.14568 90.4737 9.44249 90.2218 9.68678C89.97 9.93108 89.6674 10.1169 89.3355 10.2309C89.0037 10.3449 88.6508 10.3844 88.302 10.3465C87.9532 10.3324 87.6113 10.2444 87.2991 10.0883C86.9868 9.93223 86.7112 9.71162 86.4905 9.44109C86.2699 9.17056 86.1092 8.85628 86.019 8.51901C85.9289 8.18173 85.9114 7.82917 85.9677 7.48463C86.1787 5.63168 87.3525 4.18756 88.2097 2.64454C88.3679 2.36099 88.5262 2.45331 88.7174 2.64454C89.5879 3.56772 90.9265 6.66696 90.9199 7.78137" fill="#E4E085"/>
<path d="M85.3215 19.8877C83.8642 19.9339 82.631 19.9537 81.51 19.2943C80.9809 18.9649 80.5952 18.4483 80.4298 17.8474C80.2644 17.2465 80.3314 16.6053 80.6174 16.0515C80.9034 15.4978 81.3875 15.072 81.9733 14.8591C82.5591 14.6462 83.2036 14.6617 83.7784 14.9026C84.3848 15.1778 84.9047 15.6133 85.2819 16.1621C85.9413 17.1842 86.6007 18.2458 87.2271 19.2877C87.4777 19.6899 87.4513 19.9471 86.8974 19.9009C86.3435 19.8548 85.6973 19.9009 85.3215 19.9009" fill="#E4E085"/>
<path d="M75.1203 10.2872H73.2212C72.8849 10.2872 72.7267 10.1421 72.9179 9.81902C73.8543 8.29577 74.4939 6.52194 76.0501 5.48007C76.3715 5.22843 76.7504 5.06072 77.1528 4.99207C77.5552 4.92342 77.9683 4.95599 78.3549 5.08683C78.7415 5.21767 79.0895 5.44267 79.3675 5.74155C79.6455 6.04044 79.8447 6.4038 79.9473 6.79889C80.1225 7.31348 80.1115 7.87325 79.9163 8.38057C79.721 8.8879 79.354 9.31063 78.879 9.57504C77.725 10.3531 76.4194 10.307 75.1203 10.3136" fill="#E4E085"/>
<path d="M90.8012 11.348H92.5025C92.8388 11.348 93.1157 11.4206 92.8652 11.8294C92.0277 13.1944 91.4013 14.7045 90.1879 15.7859C88.9746 16.8673 87.4514 16.9465 86.4688 15.9046C86.1839 15.636 85.9676 15.303 85.8381 14.9335C85.7086 14.5641 85.6697 14.1689 85.7246 13.7812C85.7796 13.3936 85.9267 13.0248 86.1537 12.7058C86.3808 12.3868 86.6811 12.127 87.0293 11.9481C88.2031 11.2425 89.5087 11.2887 90.8012 11.2887" fill="#E4E085"/>
</g>
<defs>
<clipPath id="clip0_291_3711">
<rect width="94.8632" height="40" fill="white"/>
</clipPath>
</defs>
</svg>
