<svg width="136" height="40" viewBox="0 0 136 40" fill="none" xmlns="http://www.w3.org/2000/svg">
<g clip-path="url(#clip0_298_12961)">
<mask id="mask0_298_12961" style="mask-type:luminance" maskUnits="userSpaceOnUse" x="0" y="0" width="136" height="40">
<path d="M135.833 0H0V40H135.833V0Z" fill="white"/>
</mask>
<g mask="url(#mask0_298_12961)">
<path d="M48.9396 38.7497L68.3408 19.5022L48.9396 0.833008H0V38.7497H48.9396Z" fill="#007976"/>
<path d="M78.55 0L87.3333 0.108337C88.9077 0.064097 90.456 0.517045 91.7583 1.40289C92.3254 1.81295 92.7788 2.36056 93.0759 2.99413C93.373 3.6277 93.504 4.3264 93.4567 5.02457C93.4788 5.80235 93.2583 6.56776 92.8257 7.21451C92.393 7.86126 91.7698 8.35726 91.0425 8.63373C92.0696 8.9929 92.9153 9.73998 93.3983 10.715C93.8854 11.6744 94.0323 12.7708 93.815 13.8246C93.2595 16.6001 91.0782 17.9642 87.2712 17.9167L78.3337 17.8042L78.55 0ZM82.0833 10.3525L82.0279 14.5833L87.0396 14.6429C88.8313 14.6687 89.7379 13.9812 89.755 12.5896C89.7721 12.2919 89.7192 11.9944 89.6006 11.7208C89.482 11.4472 89.301 11.2052 89.0721 11.0142C88.4855 10.5866 87.7689 10.3755 87.0442 10.4167L82.0833 10.3525ZM82.0833 3.70168L82.0417 7.08333L86.7308 7.14376C88.2267 7.15987 88.9814 6.6218 88.995 5.52958C89.0047 5.28894 88.9605 5.04916 88.8655 4.82783C88.7706 4.6065 88.6273 4.40925 88.4463 4.25044C87.9839 3.89885 87.4122 3.72175 86.8321 3.75041L82.0833 3.70168Z" fill="black"/>
<path d="M96.6775 3.73483C96.2773 3.33804 96.0511 2.79858 96.0487 2.23504C96.0463 1.67151 96.2678 1.13008 96.6646 0.729867C96.6825 0.71195 96.7008 0.694012 96.7191 0.676512C97.1252 0.308515 97.6591 0.113891 98.2068 0.134265C98.7544 0.154639 99.2724 0.388408 99.65 0.785561C100.028 1.18271 100.235 1.71179 100.228 2.25976C100.22 2.80774 99.9992 3.33117 99.6112 3.7182C99.5933 3.73611 99.575 3.75401 99.5566 3.77109C99.1594 4.12681 98.6432 4.32046 98.11 4.31375C97.5768 4.30703 97.0656 4.10043 96.6775 3.73483ZM99.7338 5.41609L96.25 5.37067L96.0996 17.9161L99.5833 17.9615L99.7338 5.41609Z" fill="black"/>
<path d="M104.356 2.5044L107.917 2.1123L107.868 5.83316L111.25 5.87232L111.206 8.74984H107.917V13.5607C107.907 14.6815 108.361 15.2273 109.315 15.2607C109.842 15.2853 110.367 15.1869 110.848 14.9732L111.636 18.0394C110.784 18.3568 109.886 18.5354 108.978 18.5686C107.503 18.6186 106.336 18.2519 105.49 17.4686C104.644 16.6853 104.24 15.3853 104.167 13.5144V9.16649L102.083 9.13943L102.12 5.83316L104.295 5.86485L104.356 2.5044Z" fill="black"/>
<path d="M86.4054 34.1667L82.0833 34.1125L82.0145 39.1667L77.9166 39.1167L78.142 21.25L86.5637 21.3542C88.7426 21.3819 90.4204 22.0164 91.597 23.2575C92.7277 24.5211 93.3442 26.1624 93.3249 27.858C93.3056 29.5535 92.652 31.1803 91.4929 32.4179C90.2962 33.5837 88.6004 34.1667 86.4054 34.1667ZM82.0833 24.945L82.0154 30.4167L86.5287 30.4716C86.9215 30.5028 87.3166 30.4522 87.6889 30.3231C88.0612 30.1941 88.4028 29.9893 88.692 29.7217C89.1846 29.1933 89.4613 28.4995 89.4675 27.7772C89.4738 27.0549 89.2091 26.3564 88.7258 25.8196C88.4477 25.5445 88.1158 25.3297 87.7508 25.1888C87.3859 25.0479 86.9958 24.9839 86.6049 25.0008L82.0833 24.945Z" fill="black"/>
<path d="M107.315 34.1666L98.065 34.0499C98.1148 34.3739 98.2317 34.6839 98.4082 34.9602C98.5847 35.2364 98.8169 35.4727 99.09 35.654C99.7904 36.1122 100.616 36.3409 101.453 36.3082C102.864 36.3302 103.955 36.0135 104.728 35.3582L106.761 37.6749C105.491 38.8999 103.686 39.4971 101.344 39.4665C99.1025 39.4415 97.3733 38.8165 96.1567 37.5915C94.94 36.3665 94.3455 34.7291 94.3733 32.6791C94.3453 31.8145 94.4946 30.9532 94.8121 30.1485C95.1295 29.3437 95.6084 28.6125 96.2192 27.9999C97.4389 26.8165 99.0695 26.2388 101.111 26.2666C103.333 26.2944 105.026 26.9888 106.19 28.3499C107.354 29.711 107.729 31.6499 107.315 34.1666ZM98.1025 31.2499L104.065 31.3249C104.057 31.018 103.97 30.7184 103.812 30.4549C103.654 30.1915 103.432 29.973 103.165 29.8207C102.534 29.4503 101.813 29.2615 101.082 29.2749C100.414 29.2495 99.7538 29.4282 99.19 29.7874C98.6626 30.1273 98.2762 30.6469 98.1025 31.2499Z" fill="black"/>
<path d="M119.573 28.1773L117.736 30.4481C116.873 29.8215 115.832 29.4872 114.765 29.4939C114.302 29.4618 113.84 29.5523 113.423 29.7564C113.281 29.8265 113.162 29.9343 113.077 30.0681C112.992 30.2019 112.946 30.3565 112.944 30.5148C112.944 31.2123 113.559 31.5845 114.79 31.6314C115.298 31.6518 115.804 31.6977 116.307 31.7689C116.8 31.8437 117.285 31.9694 117.753 32.1439C118.215 32.2984 118.648 32.531 119.032 32.8314C119.393 33.1547 119.678 33.5547 119.865 34.0023C120.106 34.5532 120.22 35.1513 120.198 35.7523C120.203 36.3189 120.081 36.8794 119.841 37.3928C119.601 37.9061 119.249 38.3592 118.811 38.7189C117.886 39.5356 116.497 39.9342 114.644 39.9148C112.48 39.9096 110.39 39.1223 108.761 37.6981L110.386 35.1189C111.607 36.1531 113.149 36.7318 114.748 36.7564C115.219 36.7936 115.691 36.7029 116.115 36.4939C116.272 36.4305 116.406 36.3207 116.499 36.1793C116.592 36.0379 116.64 35.8715 116.636 35.7023C116.636 35.0023 115.936 34.6231 114.511 34.5523C113.897 34.5136 113.289 34.4159 112.694 34.2606C112.111 34.1078 111.55 33.878 111.028 33.5772C110.502 33.279 110.064 32.8479 109.757 32.3272C109.434 31.7637 109.274 31.122 109.294 30.4731C109.272 29.8722 109.411 29.2764 109.696 28.7469C109.981 28.2174 110.402 27.7734 110.915 27.4606C112.078 26.7665 113.42 26.4288 114.773 26.4893C116.527 26.4381 118.238 27.0395 119.573 28.1773Z" fill="black"/>
<path d="M132.283 28.518L132.427 27.083L135.833 27.1247L135.677 39.583L132.398 39.5413L132.213 37.9743C131.803 38.587 131.212 39.0558 130.522 39.3146C129.834 39.5982 129.099 39.7519 128.355 39.768C127.504 39.7993 126.655 39.6568 125.861 39.3491C125.067 39.0414 124.344 38.575 123.736 37.9784C122.557 36.7989 121.983 35.1947 122.008 33.178C122.033 31.1614 122.672 29.5734 123.922 28.4105C124.553 27.8325 125.296 27.3883 126.104 27.1048C126.912 26.8213 127.769 26.7043 128.623 26.7609C129.382 26.7597 130.132 26.9229 130.821 27.2393C131.429 27.504 131.94 27.9507 132.283 28.518ZM128.75 29.9726C128.315 29.9545 127.881 30.0224 127.473 30.1726C127.065 30.3228 126.69 30.5522 126.371 30.8476C126.048 31.1605 125.794 31.5376 125.627 31.9546C125.459 32.3716 125.38 32.8191 125.396 33.2684C125.367 33.7154 125.434 34.1635 125.591 34.5829C125.749 35.0023 125.993 35.3837 126.308 35.7018C126.621 36.0033 126.991 36.2399 127.395 36.398C127.8 36.556 128.232 36.6324 128.667 36.6226C129.113 36.6448 129.56 36.5729 129.977 36.4114C130.394 36.2498 130.772 36.0024 131.088 35.6851C131.386 35.4002 131.625 35.0585 131.789 34.68C131.954 34.3016 132.041 33.894 132.046 33.4813C132.084 32.5828 131.787 31.7022 131.213 31.0105C130.906 30.6646 130.525 30.3918 130.099 30.2122C129.673 30.0326 129.212 29.9507 128.75 29.9726Z" fill="black"/>
</g>
</g>
<defs>
<clipPath id="clip0_298_12961">
<rect width="136" height="40" fill="white"/>
</clipPath>
</defs>
</svg>
