<svg width="122" height="40" viewBox="0 0 122 40" fill="none" xmlns="http://www.w3.org/2000/svg">
<g clip-path="url(#clip0_298_12421)">
<path d="M35.1021 20.6496V10.9177C35.1021 10.7238 34.9858 10.5299 34.8307 10.3749C34.6756 10.2198 34.4817 10.1422 34.2491 10.1422H30.3718C30.1392 10.1422 29.9453 10.2198 29.7902 10.3749C29.5964 10.5299 29.5188 10.7238 29.5188 10.9177V21.5801C29.5188 22.7821 29.6739 23.8677 30.0229 24.837C30.3718 25.8451 30.8759 26.6594 31.535 27.3573C32.1941 28.0552 33.0084 28.598 33.9777 28.9857C34.9082 29.3734 35.9939 29.5673 37.1958 29.5673C38.6692 29.5673 39.8324 29.3347 40.6854 28.8694C41.5383 28.4041 42.2363 27.7838 42.8566 27.0471V28.249C42.8566 28.4817 42.9342 28.6755 43.0893 28.8306C43.2443 28.9857 43.4382 29.0245 43.6708 29.0245H47.5869C47.8195 29.0245 48.0522 28.9469 48.2072 28.7919C48.3623 28.6368 48.4399 28.4429 48.4399 28.2103V10.9952C48.4399 10.7626 48.3623 10.5687 48.2072 10.4136C48.0522 10.2585 47.8195 10.1422 47.5869 10.1422H43.6708C43.4382 10.1422 43.2443 10.2198 43.0893 10.3749C42.9342 10.5299 42.8566 10.7238 42.8566 10.9177V20.7271C42.8566 21.9679 42.5077 22.9372 41.8485 23.7126C41.1506 24.4881 40.1813 24.837 38.9406 24.837C37.6223 24.837 36.653 24.4493 36.0326 23.6739C35.4123 22.8984 35.1021 21.8903 35.1021 20.6496ZM57.3706 28.2103V21.2312H58.844L63.5355 28.3266C63.8069 28.7919 64.1946 29.0245 64.6986 29.0245H69.0799C69.5064 29.0245 69.7779 28.9082 69.9329 28.598C70.0493 28.2878 70.0105 27.9776 69.8166 27.6287L63.5355 18.5171L68.9249 11.4993C69.1575 11.1891 69.1963 10.8789 69.1187 10.5687C69.0024 10.2973 68.731 10.1422 68.3433 10.1422H64.1558C63.9232 10.1422 63.7293 10.2198 63.5355 10.2973C63.3416 10.3749 63.1865 10.5687 63.0314 10.8014L58.7277 16.7336H57.3706V2.69786C57.3706 2.46522 57.2931 2.27136 57.138 2.11627C56.9829 1.96118 56.789 1.88363 56.5564 1.88363H52.6403C52.4077 1.88363 52.1751 1.96118 52.02 2.11627C51.8649 2.27136 51.7874 2.46522 51.7874 2.69786V28.2103C51.7874 28.4429 51.8649 28.6368 52.02 28.7919C52.1751 28.9469 52.4077 29.0245 52.6403 29.0245H56.5564C56.789 29.0245 56.9829 28.9469 57.138 28.7919C57.2931 28.6368 57.3706 28.4429 57.3706 28.2103ZM74.3448 8.12603C75.2366 8.12603 76.0121 7.81585 76.6712 7.11794C77.3303 6.45881 77.6793 5.68335 77.6793 4.75281C77.6793 3.82227 77.3303 3.04681 76.6712 2.34891C76.0121 1.68977 75.2366 1.34082 74.3448 1.34082C73.4143 1.34082 72.6001 1.68977 71.9409 2.34891C71.2818 3.04681 70.9716 3.82227 70.9716 4.75281C70.9716 5.68335 71.2818 6.45881 71.9409 7.11794C72.6001 7.81585 73.4143 8.12603 74.3448 8.12603ZM72.3674 29.0245H76.2835C76.5161 29.0245 76.71 28.9469 76.8651 28.7919C77.0202 28.6368 77.0977 28.4041 77.0977 28.1715V10.9952C77.0977 10.7626 77.0202 10.5687 76.8651 10.4136C76.71 10.2585 76.5161 10.1422 76.2835 10.1422H72.3674C72.1348 10.1422 71.9022 10.2585 71.7471 10.4136C71.592 10.5687 71.5144 10.7626 71.5144 10.9952V28.1715C71.5144 28.4041 71.592 28.6368 71.7471 28.7919C71.9022 28.9469 72.1348 29.0245 72.3674 29.0245ZM84.8704 38.0197C86.809 38.0197 88.4375 37.5157 89.6782 36.4688C90.9189 35.422 91.8495 33.9874 92.4311 32.2038L98.8673 11.4605C98.9836 11.0728 98.9836 10.7626 98.8673 10.5299C98.751 10.2973 98.5184 10.1422 98.1306 10.1422H93.7493C93.4392 10.1422 93.1677 10.2585 93.0127 10.4136C92.8576 10.6075 92.7412 10.8014 92.7025 11.034L89.2129 23.9065L85.452 11.034C85.3744 10.8014 85.2969 10.6075 85.1418 10.4136C84.9867 10.2585 84.7929 10.1422 84.5602 10.1422H80.0238C79.5198 10.1422 79.2096 10.2973 79.1321 10.5687C79.0157 10.8401 79.0157 11.1503 79.1321 11.4605L84.6765 28.2103C84.7541 28.4429 84.8704 28.6368 85.0255 28.7919C85.1806 28.9469 85.4132 29.0245 85.7234 29.0245H87.7008L86.8478 31.4284C86.6152 32.01 86.305 32.4365 85.9173 32.7467C85.4908 33.0568 85.0255 33.2119 84.4827 33.2119C84.0174 33.2119 83.5909 33.1344 83.2032 32.9405C82.8155 32.7854 82.4665 32.5528 82.1563 32.3202C81.8849 32.1651 81.5747 32.0488 81.2645 32.0488C80.9544 32.0488 80.683 32.2038 80.4503 32.5528L79.0545 34.569C78.6668 35.1893 78.6668 35.6546 79.1321 36.0423C79.7912 36.6627 80.6054 37.1667 81.6135 37.5157C82.6216 37.8647 83.7072 38.0197 84.8704 38.0197ZM105.099 19.6027C105.099 18.9436 105.215 18.3232 105.448 17.7417C105.68 17.1601 105.991 16.656 106.417 16.2295C106.805 15.803 107.309 15.4541 107.89 15.1827C108.433 14.95 109.054 14.7949 109.713 14.7949C110.372 14.7949 110.992 14.95 111.535 15.1827C112.078 15.4541 112.582 15.803 113.008 16.2295C113.396 16.656 113.745 17.1601 113.978 17.7417C114.21 18.3232 114.327 18.9436 114.327 19.6027C114.327 20.2619 114.21 20.8822 113.978 21.4638C113.745 22.0842 113.396 22.5882 113.008 23.0147C112.582 23.4412 112.078 23.7902 111.535 24.0228C110.992 24.2942 110.372 24.4105 109.713 24.4105C109.054 24.4105 108.433 24.2942 107.89 24.0228C107.309 23.7902 106.805 23.4412 106.417 23.0147C105.991 22.5882 105.68 22.0842 105.448 21.4638C105.215 20.8822 105.099 20.2619 105.099 19.6027ZM99.438 19.564C99.438 21.1149 99.6706 22.4719 100.213 23.7126C100.756 24.9534 101.454 26.0002 102.307 26.8532C103.16 27.745 104.168 28.4041 105.331 28.8694C106.456 29.3347 107.619 29.5673 108.86 29.5673C110.1 29.5673 111.225 29.3347 112.194 28.8694C113.164 28.4041 113.861 27.7838 114.327 27.0083V28.2103C114.327 28.4429 114.404 28.6368 114.559 28.7919C114.714 28.9469 114.908 29.0245 115.141 29.0245H119.057C119.29 29.0245 119.483 28.9469 119.639 28.7919C119.794 28.6368 119.871 28.4429 119.871 28.2103V10.9952C119.871 10.7626 119.794 10.5687 119.639 10.4136C119.483 10.2585 119.29 10.1422 119.057 10.1422H115.141C114.908 10.1422 114.714 10.2585 114.559 10.4136C114.404 10.5687 114.327 10.7626 114.327 10.9952V12.1584C113.861 11.4217 113.164 10.8014 112.233 10.3361C111.264 9.8708 110.139 9.59939 108.899 9.59939C107.658 9.59939 106.495 9.83203 105.37 10.2973C104.207 10.7626 103.199 11.4605 102.346 12.3135C101.454 13.1665 100.756 14.2133 100.213 15.4541C99.6706 16.6948 99.438 18.0518 99.438 19.564Z" fill="#002278"/>
<path fill-rule="evenodd" clip-rule="evenodd" d="M0.220497 22.0011C1.0957 21.607 7.61853 16.9229 9.03008 16.0691C9.49816 16.2612 10.7207 17.1613 11.2605 17.5337C12.0245 18.0607 12.6901 18.5796 13.4126 19.0539L17.7884 22.0079L17.8081 16.8526L11.237 12.3285C10.5701 11.8672 9.65474 11.1584 8.96293 10.8317C8.34081 11.1452 7.80954 11.5988 7.2478 11.9814C6.7927 12.2912 5.95051 12.9297 5.43109 13.1379L5.49654 9.37275C9.29981 9.36824 13.3796 9.15381 16.3613 10.8839C22.0179 14.1666 22.1096 23.0538 16.4409 26.3895C13.5416 28.0957 9.28711 27.6327 5.51121 27.6135L5.49259 22.246C4.46362 22.6599 1.35753 24.9625 0.221343 25.4576L0.221061 32.2629C3.50716 32.253 6.78508 32.2615 10.0616 32.2618C13.4197 32.262 15.7177 32.0973 18.4694 30.7458C28.6742 25.7333 28.5027 11.1186 18.6421 6.26694C15.8938 4.91464 13.5997 4.72334 10.1909 4.72391C6.86747 4.72419 3.54412 4.72645 0.220779 4.72363L0.220497 22.0011Z" fill="#002278"/>
<path fill-rule="evenodd" clip-rule="evenodd" d="M0.357618 21.9311C1.62584 21.2272 7.67665 16.8884 9.03008 16.0696C9.49816 16.2618 10.7207 17.1618 11.2605 17.5342C12.0245 18.0613 12.6901 18.5801 13.4126 19.0544L17.7884 22.0084L17.8081 16.8531L11.237 12.329L8.99623 10.7891C6.06083 12.603 3.15618 14.4896 0.220215 16.3038V21.9283L0.357618 21.9311Z" fill="#EC712C"/>
</g>
<defs>
<clipPath id="clip0_298_12421">
<rect width="122" height="40" fill="white"/>
</clipPath>
</defs>
</svg>
