<svg width="138" height="40" viewBox="0 0 138 40" fill="none" xmlns="http://www.w3.org/2000/svg">
<g clip-path="url(#clip0_298_13349)">
<mask id="mask0_298_13349" style="mask-type:luminance" maskUnits="userSpaceOnUse" x="0" y="0" width="138" height="40">
<path d="M137.391 0H0V40H137.391V0Z" fill="white"/>
</mask>
<g mask="url(#mask0_298_13349)">
<path d="M46.3458 21.7838C49.8515 21.5964 52.9523 21.9321 52.9132 20.1039C52.8754 18.7558 52.3536 17.2727 48.9576 17.2727C45.5993 17.2727 44.7415 18.6533 44.4802 20.2576H39.7789C40.453 15.2949 44.7041 13.3926 49.1071 13.3926C53.6223 13.3926 57.6884 14.8851 57.6884 22.497V33.3919H52.9132V32.0032C52.908 31.2476 53.101 30.5038 53.4728 29.8461C53.6223 29.5104 53.7706 29.1369 53.4349 28.9872C53.0628 28.8376 52.9132 29.2111 52.8376 29.3917C51.7184 32.1151 49.5549 33.6817 46.0467 33.6817C42.3526 33.6817 39.1816 31.294 39.1816 27.9734C39.1816 23.612 42.3904 22.0076 46.3458 21.7838ZM47.1671 24.9548C45.1149 25.1786 43.9584 25.9619 43.9584 27.7159C43.9584 29.358 45.5249 30.4029 47.7267 30.1049C50.2641 29.7679 52.8754 28.1271 52.9132 23.2385C51.7941 24.4694 50.0023 24.6569 47.1671 24.9548Z" fill="black"/>
<path d="M67.5449 13.0145V13.6886H72.9189V17.868H67.5449V33.3872H62.7645V17.8653H59.7793V13.6859H62.7645V12.5669C62.7645 7.82787 64.6302 6.52148 68.5845 6.52148H72.9136V10.701H69.5932C67.5776 10.701 67.5449 10.8506 67.5449 13.0145Z" fill="black"/>
<path d="M80.7495 17.5294C81.943 14.8047 83.0256 13.3877 87.8386 13.3877V18.2413C82.2786 17.8692 80.6743 19.8457 80.6743 24.8475V33.3924H75.9043V13.6857H80.6795V14.7643C80.676 15.5569 80.4839 16.3373 80.1199 17.0414C79.9717 17.3771 79.8586 17.8247 80.3073 17.8988C80.5256 17.9393 80.7117 17.6413 80.7495 17.5294Z" fill="black"/>
<path d="M90.5254 6.52148H95.3019V11.2982H90.5254V6.52148ZM90.5254 13.6859H95.3019V33.3872H90.5254V13.6859Z" fill="black"/>
<path d="M116.682 24.7302H102.354C102.69 27.7151 104.63 29.5069 107.612 29.5069C109.888 29.5069 111.045 28.2746 111.604 26.522H116.458C115.6 30.5881 112.839 33.6849 107.579 33.6849C101.197 33.6849 97.6895 29.395 97.6895 23.5357C97.6895 17.3798 101.495 13.3877 107.503 13.3877C112.056 13.3877 116.793 16.1111 116.793 23.2755C116.792 23.7625 116.755 24.2487 116.682 24.7302ZM112.018 21.4473C111.832 19.0583 110.414 17.2679 107.652 17.2679C104.406 17.2679 103.026 19.096 102.54 21.4473H112.018Z" fill="black"/>
<path d="M123.512 23.0879L117.094 13.6855H122.622L126.95 21.3703L131.277 13.6855H136.805L130.371 23.0879L137.382 33.3868H131.854L126.929 24.7678L122.004 33.3868H116.477L123.512 23.0879Z" fill="black"/>
<path d="M15.7605 8.72194L10.516 17.0377L6.23948 14.8725C5.91096 14.7066 5.54548 14.6276 5.17778 14.6429C4.81009 14.6582 4.45239 14.7673 4.13878 14.9599C3.82516 15.1524 3.56602 15.422 3.386 15.743C3.20598 16.0639 3.11107 16.4256 3.1103 16.7936C3.11115 17.1445 3.19755 17.4898 3.362 17.7996C3.52645 18.1095 3.764 18.3746 4.05405 18.5719L7.887 21.1929L3.1103 28.767L0 33.6853H7.56343L13.1733 24.8047L25.0253 32.902C25.7734 33.4126 26.6582 33.6856 27.564 33.6853C28.2827 33.6849 28.9903 33.5076 29.6243 33.1689C30.2583 32.8302 30.799 32.3406 31.1988 31.7433C31.5986 31.146 31.8451 30.4594 31.9166 29.7442C31.9881 29.029 31.8823 28.3072 31.6086 27.6426L24.114 9.4419C22.6566 5.90151 17.807 5.48225 15.7605 8.72194ZM16.2404 19.9458L19.4384 14.8806L22.9194 23.3365L16.2404 19.9458Z" fill="#0065FF"/>
</g>
</g>
<defs>
<clipPath id="clip0_298_13349">
<rect width="138" height="40" fill="white"/>
</clipPath>
</defs>
</svg>
