<svg width="116" height="40" viewBox="0 0 116 40" fill="none" xmlns="http://www.w3.org/2000/svg">
<g clip-path="url(#clip0_298_12710)">
<path d="M20.0005 0C8.95458 0 0 8.95458 0 20.0005C0 31.0464 8.95458 40.001 20.0005 40.001C31.0464 40.001 40.001 31.0464 40.001 20.0005C40 8.95458 31.0454 0 20.0005 0ZM25.5366 28.5993C23.7375 28.5993 22.0674 28.0462 20.6865 27.1012C21.4077 26.4689 22.0322 25.7282 22.5345 24.9053C23.4082 25.4409 24.4372 25.7507 25.5376 25.7507C28.7137 25.7507 31.2888 23.1756 31.2888 19.9995C31.2888 16.8234 28.7137 14.2484 25.5376 14.2484C24.0209 14.2484 22.642 14.8357 21.6139 15.7954V17.0638C21.6227 17.0521 21.6305 17.0404 21.6393 17.0296V24.7402C21.6305 24.7529 21.6218 24.7646 21.6139 24.7773V24.8096H21.5924C20.0474 27.0954 17.4323 28.5993 14.4643 28.5993C9.71488 28.5993 5.86548 24.749 5.86548 20.0005C5.86548 15.252 9.71586 11.4016 14.4643 11.4016C16.2635 11.4016 17.9336 11.9548 19.3145 12.8998C18.5932 13.532 17.9688 14.2728 17.4674 15.0947C16.5938 14.5591 15.5647 14.2493 14.4643 14.2493C11.2883 14.2493 8.7132 16.8244 8.7132 20.0005C8.7132 23.1766 11.2883 25.7516 14.4643 25.7516C16.1755 25.7516 17.7127 25.004 18.7662 23.8167V22.3518V14.7194V14.6999C20.3406 12.6916 22.7886 11.4016 25.5376 11.4016C30.2871 11.4016 34.1375 15.252 34.1375 20.0005C34.1375 24.749 30.2861 28.5993 25.5366 28.5993Z" fill="black"/>
<path d="M46.0825 20.2268C46.5086 20.69 47.0255 21.0379 47.6344 21.2715C48.2422 21.5051 48.9243 21.6213 49.6807 21.6213C50.0667 21.6213 50.4264 21.5901 50.7586 21.5275C51.0909 21.465 51.387 21.3868 51.646 21.293C51.904 21.1992 52.1229 21.1014 52.3017 20.9988C52.4806 20.8962 52.6017 20.8122 52.6643 20.7477C52.7268 20.6822 52.7718 20.6236 52.8011 20.5728C52.8294 20.5219 52.8519 20.4604 52.8695 20.389C52.8871 20.3187 52.8998 20.2327 52.9076 20.133C52.9164 20.0333 52.9203 19.9131 52.9203 19.7704C52.9203 19.5662 52.9145 19.402 52.9027 19.2798C52.891 19.1577 52.8744 19.0629 52.8519 18.9945C52.8294 18.9261 52.8011 18.8811 52.7669 18.8577C52.7327 18.8352 52.6877 18.8235 52.6311 18.8235C52.5568 18.8235 52.4532 18.8694 52.3203 18.9603C52.1864 19.0512 52.0164 19.1538 51.8092 19.2671C51.602 19.3805 51.3528 19.4841 51.0626 19.5789C50.7723 19.6727 50.4293 19.7196 50.0316 19.7196C49.5938 19.7196 49.1999 19.6444 48.8501 19.4939C48.5012 19.3434 48.2021 19.1147 47.9549 18.8078C47.7077 18.501 47.5171 18.1101 47.3832 17.6351C47.2493 17.1602 47.1829 16.5992 47.1829 15.9513C47.1829 15.3601 47.2454 14.8285 47.3705 14.3574C47.4956 13.8854 47.6783 13.4837 47.9207 13.1515C48.1621 12.8192 48.4553 12.5632 48.7992 12.3843C49.1432 12.2055 49.5332 12.1156 49.971 12.1156C50.3687 12.1156 50.7117 12.1654 50.9981 12.2641C51.2854 12.3638 51.5326 12.4742 51.7398 12.5964C51.947 12.7186 52.116 12.83 52.247 12.9287C52.378 13.0283 52.4854 13.0782 52.5714 13.0782C52.6223 13.0782 52.6682 13.0606 52.7073 13.0274C52.7474 12.9932 52.7816 12.9394 52.8099 12.8651C52.8382 12.7909 52.8578 12.6951 52.8695 12.5749C52.8803 12.4557 52.8871 12.311 52.8871 12.14C52.8871 11.9807 52.8832 11.8468 52.8744 11.7393C52.8656 11.6319 52.8529 11.538 52.8363 11.4579C52.8187 11.3787 52.7962 11.3133 52.7679 11.2624C52.7395 11.2116 52.6868 11.1471 52.6105 11.0709C52.5343 10.9937 52.3985 10.9018 52.206 10.7934C52.0125 10.6859 51.7955 10.5901 51.5532 10.508C51.3118 10.4259 51.0489 10.3595 50.7645 10.3077C50.4801 10.2569 50.185 10.2305 49.8781 10.2305C49.1217 10.2305 48.4298 10.3585 47.8024 10.6145C47.1741 10.8706 46.6356 11.2458 46.187 11.7403C45.7375 12.2348 45.3886 12.8456 45.1385 13.5737C44.8883 14.3017 44.7632 15.1334 44.7632 16.0715C44.7632 16.9921 44.8765 17.7993 45.1042 18.4932C45.33 19.186 45.6564 19.7646 46.0825 20.2268Z" fill="black"/>
<path d="M54.7702 21.4004C54.8552 21.4287 54.9705 21.4512 55.1161 21.4688C55.2608 21.4854 55.4406 21.4942 55.6575 21.4942C55.8794 21.4942 56.0611 21.4854 56.2028 21.4688C56.3445 21.4522 56.4589 21.4287 56.5439 21.4004C56.6289 21.3721 56.6895 21.3349 56.7227 21.29C56.7569 21.244 56.7736 21.1932 56.7736 21.1365V16.6773H60.9005V21.1365C60.9005 21.1932 60.9191 21.245 60.9552 21.29C60.9924 21.3359 61.052 21.3721 61.135 21.4004C61.2171 21.4287 61.3305 21.4512 61.4761 21.4688C61.6207 21.4854 61.8045 21.4942 62.0263 21.4942C62.2423 21.4942 62.4211 21.4854 62.5638 21.4688C62.7065 21.4522 62.8198 21.4287 62.9049 21.4004C62.9899 21.3721 63.0505 21.3349 63.0876 21.29C63.1247 21.244 63.1433 21.1932 63.1433 21.1365V10.718C63.1433 10.6613 63.1247 10.6105 63.0876 10.5646C63.0505 10.5187 62.9899 10.4825 62.9049 10.4532C62.8198 10.4249 62.7055 10.4024 62.5638 10.3848C62.4221 10.3672 62.2433 10.3594 62.0263 10.3594C61.8045 10.3594 61.6217 10.3682 61.4761 10.3848C61.3315 10.4014 61.2171 10.4249 61.135 10.4532C61.052 10.4815 60.9924 10.5187 60.9552 10.5646C60.9181 10.6105 60.9005 10.6613 60.9005 10.718V14.7678H56.7736V10.718C56.7736 10.6613 56.756 10.6105 56.7227 10.5646C56.6885 10.5187 56.6289 10.4825 56.5439 10.4532C56.4589 10.4249 56.3445 10.4024 56.2028 10.3848C56.0602 10.3672 55.8784 10.3594 55.6575 10.3594C55.4406 10.3594 55.2608 10.3682 55.1161 10.3848C54.9705 10.4014 54.8562 10.4249 54.7702 10.4532C54.6852 10.4815 54.6236 10.5187 54.5874 10.5646C54.5503 10.6105 54.5317 10.6613 54.5317 10.718V21.1365C54.5317 21.1932 54.5503 21.245 54.5874 21.29C54.6246 21.3349 54.6852 21.3721 54.7702 21.4004Z" fill="black"/>
<path d="M66.2119 21.4424H71.7539C71.8047 21.4424 71.8516 21.4267 71.8946 21.3955C71.9376 21.3642 71.9728 21.3144 72.0012 21.2469C72.0295 21.1785 72.051 21.0896 72.0657 20.9782C72.0793 20.8678 72.0872 20.73 72.0872 20.5648C72.0872 20.3997 72.0803 20.2619 72.0657 20.1514C72.051 20.04 72.0305 19.9511 72.0012 19.8827C71.9728 19.8143 71.9376 19.7644 71.8946 19.7332C71.8516 19.7019 71.8047 19.6863 71.7539 19.6863H67.7804V16.5747H71.1138C71.1646 16.5747 71.2125 16.561 71.2545 16.5317C71.2975 16.5033 71.3327 16.4564 71.3611 16.391C71.3894 16.3255 71.4109 16.2385 71.4256 16.131C71.4392 16.0235 71.447 15.8867 71.447 15.7215C71.447 15.5622 71.4402 15.4274 71.4256 15.316C71.4119 15.2055 71.3904 15.1176 71.3611 15.0521C71.3327 14.9866 71.2975 14.9388 71.2545 14.9065C71.2125 14.8752 71.1656 14.8596 71.1138 14.8596H67.7804V12.1673H71.7197C71.7705 12.1673 71.8165 12.1516 71.8565 12.1204C71.8966 12.0891 71.9308 12.0392 71.9582 11.9708C71.9865 11.9024 72.008 11.8135 72.0227 11.7021C72.0363 11.5907 72.0442 11.4558 72.0442 11.2975C72.0442 11.1265 72.0373 10.9858 72.0227 10.8753C72.008 10.7649 71.9875 10.674 71.9582 10.6027C71.9298 10.5313 71.8956 10.4815 71.8565 10.4532C71.8165 10.4248 71.7715 10.4102 71.7197 10.4102H66.2119C66.0243 10.4102 65.8669 10.4659 65.7389 10.5763C65.6109 10.6867 65.5464 10.8675 65.5464 11.1177V20.7348C65.5464 20.985 65.6109 21.1648 65.7389 21.2762C65.866 21.3877 66.0243 21.4424 66.2119 21.4424Z" fill="black"/>
<path d="M74.6007 20.2268C75.0267 20.69 75.5437 21.0379 76.1525 21.2715C76.7604 21.5051 77.4425 21.6213 78.1989 21.6213C78.5849 21.6213 78.9446 21.5901 79.2778 21.5275C79.6101 21.465 79.9062 21.3868 80.1642 21.293C80.4231 21.1992 80.6411 21.1014 80.8199 20.9988C80.9997 20.8962 81.1199 20.8122 81.1825 20.7477C81.245 20.6822 81.29 20.6236 81.3193 20.5728C81.3476 20.5219 81.3701 20.4604 81.3877 20.389C81.4053 20.3187 81.418 20.2327 81.4258 20.133C81.4346 20.0333 81.4385 19.9131 81.4385 19.7704C81.4385 19.5662 81.4326 19.402 81.4219 19.2798C81.4111 19.1577 81.3936 19.0629 81.3711 18.9945C81.3486 18.9261 81.3203 18.8811 81.2851 18.8577C81.2509 18.8352 81.2059 18.8235 81.1492 18.8235C81.075 18.8235 80.9714 18.8694 80.8385 18.9603C80.7046 19.0512 80.5345 19.1538 80.3274 19.2671C80.1202 19.3805 79.871 19.4841 79.5808 19.5789C79.2915 19.6727 78.9475 19.7196 78.5497 19.7196C78.1119 19.7196 77.7181 19.6444 77.3692 19.4939C77.0194 19.3434 76.7213 19.1147 76.4741 18.8078C76.2268 18.501 76.0362 18.1101 75.9033 17.6351C75.7695 17.1602 75.703 16.5992 75.703 15.9513C75.703 15.3601 75.7655 14.8285 75.8906 14.3574C76.0157 13.8854 76.1985 13.4837 76.4408 13.1515C76.6822 12.8192 76.9754 12.5632 77.3194 12.3843C77.6634 12.2055 78.0533 12.1156 78.4911 12.1156C78.8889 12.1156 79.2319 12.1654 79.5182 12.2641C79.8045 12.3638 80.0518 12.4742 80.2599 12.5964C80.4671 12.7186 80.6362 12.83 80.7671 12.9287C80.8981 13.0283 81.0056 13.0782 81.0906 13.0782C81.1414 13.0782 81.1874 13.0606 81.2274 13.0274C81.2675 12.9932 81.3017 12.9394 81.33 12.8651C81.3584 12.7909 81.3779 12.6951 81.3897 12.5749C81.4004 12.4557 81.4072 12.311 81.4072 12.14C81.4072 11.9807 81.4033 11.8468 81.3945 11.7393C81.3857 11.6319 81.373 11.538 81.3564 11.4579C81.3388 11.3787 81.3164 11.3133 81.288 11.2624C81.2597 11.2116 81.2069 11.1471 81.1307 11.0709C81.0544 10.9937 80.9186 10.9018 80.7261 10.7934C80.5326 10.6859 80.3156 10.5901 80.0743 10.508C79.8329 10.4259 79.57 10.3595 79.2856 10.3077C79.0012 10.2569 78.7061 10.2305 78.3992 10.2305C77.6429 10.2305 76.951 10.3585 76.3236 10.6145C75.6952 10.8706 75.1567 11.2458 74.7082 11.7403C74.2586 12.2348 73.9097 12.8456 73.6596 13.5737C73.4094 14.3017 73.2843 15.1334 73.2843 16.0715C73.2843 16.9921 73.3977 17.7993 73.6254 18.4932C73.8472 19.186 74.1746 19.7646 74.6007 20.2268Z" fill="black"/>
<path d="M83.2885 21.3955C83.3735 21.4268 83.4888 21.4512 83.6335 21.4678C83.7781 21.4844 83.9589 21.4932 84.1749 21.4932C84.3967 21.4932 84.5785 21.4844 84.7202 21.4678C84.8629 21.4512 84.9762 21.4268 85.0612 21.3955C85.1463 21.3642 85.2068 21.3261 85.2411 21.2802C85.2753 21.2352 85.2919 21.1805 85.2919 21.118V15.8838L88.6253 21.118C88.6654 21.1981 88.7201 21.2655 88.7914 21.3232C88.8618 21.3799 88.979 21.4229 89.1413 21.4512C89.3035 21.4796 89.5693 21.4942 89.9387 21.4942C90.1723 21.4942 90.3648 21.4854 90.5182 21.4688C90.6717 21.4522 90.7928 21.4278 90.8808 21.3965C90.9687 21.3652 91.0284 21.3261 91.0596 21.2773C91.0909 21.2294 91.1065 21.1737 91.1065 21.1111C91.1065 21.0652 91.0938 21.0046 91.0684 20.9284C91.043 20.8512 90.9678 20.6968 90.8427 20.4632L87.5435 15.4763L90.57 11.5116C90.7127 11.2897 90.8085 11.1275 90.8603 11.0259C90.9111 10.9233 90.9375 10.8245 90.9375 10.7278C90.9375 10.6711 90.9199 10.6203 90.8867 10.5744C90.8524 10.5294 90.7919 10.4903 90.7039 10.4591C90.616 10.4278 90.4977 10.4034 90.3501 10.3867C90.2026 10.3691 90.0149 10.3613 89.7872 10.3613C89.5654 10.3613 89.3836 10.3672 89.2419 10.3779C89.0993 10.3897 88.983 10.4092 88.8921 10.4376C88.8012 10.4659 88.7269 10.505 88.6702 10.5529C88.6136 10.6008 88.5657 10.6623 88.5256 10.7356L85.2948 15.4245V10.7268C85.2948 10.6643 85.2772 10.6105 85.244 10.5646C85.2098 10.5187 85.1502 10.4825 85.0642 10.4532C84.9791 10.4249 84.8658 10.4024 84.7231 10.3848C84.5804 10.3672 84.3987 10.3594 84.1778 10.3594C83.9618 10.3594 83.781 10.3682 83.6364 10.3848C83.4908 10.4014 83.3764 10.4249 83.2914 10.4532C83.2064 10.4815 83.1448 10.5187 83.1087 10.5646C83.0715 10.6105 83.053 10.6643 83.053 10.7268V21.1189C83.053 21.1815 83.0715 21.2352 83.1087 21.2812C83.1419 21.3261 83.2035 21.3652 83.2885 21.3955Z" fill="black"/>
<path d="M97.2104 21.4424H99.8451C100.822 21.4424 101.665 21.3359 102.373 21.1228C103.081 20.9098 103.682 20.5756 104.176 20.1211C104.671 19.6667 105.05 19.0794 105.314 18.3601C105.579 17.6409 105.711 16.776 105.711 15.7645C105.711 14.8889 105.588 14.1188 105.344 13.4543C105.1 12.7888 104.743 12.2308 104.274 11.7793C103.805 11.3278 103.228 10.9867 102.543 10.7561C101.858 10.5264 101.025 10.4111 100.042 10.4111H97.2104C97.0228 10.4111 96.8655 10.4668 96.7374 10.5773C96.6094 10.6877 96.5459 10.8685 96.5459 11.1187V20.7358C96.5459 20.986 96.6094 21.1658 96.7374 21.2772C96.8655 21.3877 97.0228 21.4424 97.2104 21.4424ZM98.7789 12.1673H99.9125C100.601 12.1673 101.156 12.2601 101.58 12.4448C102.003 12.6295 102.35 12.8865 102.621 13.2159C102.89 13.5452 103.087 13.9351 103.209 14.3837C103.331 14.8332 103.392 15.3189 103.392 15.8417C103.392 16.4779 103.322 17.0359 103.182 17.5128C103.043 17.9907 102.833 18.3894 102.551 18.711C102.27 19.0325 101.919 19.2729 101.499 19.4312C101.077 19.5905 100.56 19.6696 99.9467 19.6696H98.7789V12.1673Z" fill="black"/>
<path d="M115.166 19.2808C115.155 19.1587 115.137 19.0639 115.115 18.9955C115.092 18.9271 115.064 18.8821 115.03 18.8586C114.996 18.8362 114.95 18.8244 114.894 18.8244C114.82 18.8244 114.716 18.8704 114.583 18.9613C114.449 19.0521 114.279 19.1548 114.072 19.2681C113.865 19.3815 113.616 19.4851 113.325 19.5799C113.036 19.6737 112.692 19.7206 112.293 19.7206C111.856 19.7206 111.462 19.6453 111.113 19.4948C110.763 19.3443 110.465 19.1157 110.218 18.8088C109.97 18.502 109.78 18.111 109.647 17.6361C109.513 17.1612 109.447 16.6002 109.447 15.9523C109.447 15.3611 109.509 14.8294 109.634 14.3584C109.759 13.8864 109.942 13.4847 110.184 13.1525C110.426 12.8202 110.719 12.5642 111.063 12.3853C111.407 12.2065 111.797 12.1166 112.235 12.1166C112.633 12.1166 112.976 12.1664 113.262 12.2651C113.548 12.3648 113.795 12.4752 114.004 12.5974C114.211 12.7195 114.38 12.8309 114.511 12.9296C114.642 13.0293 114.749 13.0792 114.834 13.0792C114.885 13.0792 114.931 13.0616 114.971 13.0283C115.011 12.9941 115.045 12.9404 115.074 12.8661C115.102 12.7919 115.122 12.6961 115.133 12.5759C115.144 12.4567 115.15 12.312 115.15 12.141C115.15 11.9817 115.146 11.8478 115.137 11.7403C115.128 11.6328 115.116 11.539 115.099 11.4589C115.082 11.3797 115.059 11.3142 115.031 11.2634C115.002 11.2126 114.95 11.1481 114.873 11.0719C114.796 10.9947 114.661 10.9028 114.468 10.7943C114.274 10.6868 114.057 10.5911 113.816 10.509C113.575 10.4269 113.312 10.3604 113.027 10.3086C112.743 10.2578 112.448 10.2314 112.141 10.2314C111.385 10.2314 110.693 10.3595 110.065 10.6155C109.437 10.8715 108.898 11.2468 108.45 11.7413C108.001 12.2358 107.651 12.8466 107.401 13.5746C107.151 14.3027 107.026 15.1343 107.026 16.0725C107.026 16.9931 107.139 17.8003 107.367 18.4941C107.595 19.188 107.921 19.7665 108.348 20.2288C108.774 20.692 109.291 21.0399 109.9 21.2734C110.508 21.507 111.19 21.6233 111.946 21.6233C112.332 21.6233 112.692 21.592 113.025 21.5295C113.358 21.4669 113.653 21.3888 113.912 21.2949C114.171 21.2011 114.389 21.1034 114.568 21.0008C114.747 20.8982 114.868 20.8141 114.931 20.7496C114.994 20.6842 115.039 20.6255 115.068 20.5747C115.096 20.5239 115.119 20.4623 115.136 20.391C115.153 20.3206 115.167 20.2346 115.174 20.1349C115.183 20.0353 115.187 19.9151 115.187 19.7724C115.182 19.5662 115.177 19.403 115.166 19.2808Z" fill="black"/>
<path d="M111.724 24.3018H44.0879V24.5959H111.724V24.3018Z" fill="black"/>
<path d="M46.8026 29.2675C46.699 29.1678 46.5808 29.0799 46.4489 29.0066C46.3169 28.9333 46.1831 28.8639 46.0462 28.8004C45.9094 28.7359 45.7755 28.6724 45.6436 28.6079C45.5117 28.5434 45.3944 28.472 45.2898 28.3919C45.1853 28.3118 45.1022 28.2209 45.0397 28.1163C44.9771 28.0127 44.9449 27.8876 44.9449 27.743C44.9449 27.6443 44.9625 27.5495 44.9976 27.4606C45.0328 27.3707 45.0856 27.2935 45.156 27.227C45.2263 27.1605 45.3143 27.1078 45.4208 27.0697C45.5273 27.0315 45.6514 27.012 45.7941 27.012C45.9397 27.012 46.0687 27.0296 46.1821 27.0648C46.2954 27.1 46.3932 27.139 46.4753 27.183C46.5573 27.227 46.6257 27.2661 46.6805 27.3013C46.7352 27.3365 46.7753 27.354 46.8017 27.354C46.8163 27.354 46.829 27.3492 46.8398 27.3394C46.8505 27.3296 46.8603 27.3159 46.8671 27.2974C46.8749 27.2788 46.8798 27.2573 46.8837 27.2319C46.8877 27.2065 46.8886 27.1781 46.8886 27.1469C46.8886 27.1136 46.8877 27.0843 46.8847 27.0618C46.8828 27.0384 46.8789 27.0188 46.874 27.0022C46.8691 26.9856 46.8632 26.9719 46.8574 26.9602C46.8515 26.9495 46.8368 26.9319 46.8144 26.9094C46.7909 26.8859 46.744 26.8566 46.6727 26.8185C46.6013 26.7814 46.5202 26.7472 46.4293 26.7169C46.3384 26.6866 46.2427 26.6621 46.141 26.6426C46.0394 26.6231 45.9387 26.6133 45.84 26.6133C45.6417 26.6133 45.4599 26.6397 45.2947 26.6934C45.1286 26.7462 44.9869 26.8234 44.8686 26.9231C44.7504 27.0237 44.6585 27.1449 44.5931 27.2895C44.5276 27.4332 44.4953 27.5954 44.4953 27.7772C44.4953 27.9638 44.5266 28.1241 44.5901 28.259C44.6527 28.3948 44.7357 28.5121 44.8384 28.6127C44.941 28.7134 45.0573 28.8004 45.1882 28.8756C45.3192 28.9509 45.4521 29.0203 45.5889 29.0838C45.7247 29.1483 45.8586 29.2118 45.9896 29.2763C46.1205 29.3408 46.2368 29.4121 46.3394 29.4903C46.442 29.5685 46.5251 29.6604 46.5876 29.764C46.6502 29.8675 46.6815 29.9926 46.6815 30.1373C46.6815 30.277 46.657 30.4021 46.6072 30.5125C46.5573 30.623 46.488 30.7148 46.398 30.7901C46.3091 30.8653 46.2026 30.922 46.0795 30.9621C45.9563 31.0021 45.8205 31.0217 45.6739 31.0217C45.4931 31.0217 45.3338 31.0002 45.197 30.9582C45.0602 30.9161 44.9429 30.8702 44.8452 30.8204C44.7475 30.7705 44.6673 30.7246 44.6058 30.6826C44.5442 30.6405 44.4963 30.619 44.4631 30.619C44.4484 30.619 44.4347 30.622 44.4211 30.6278C44.4074 30.6337 44.3976 30.6454 44.3888 30.662C44.38 30.6796 44.3732 30.7011 44.3693 30.7275C44.3644 30.7539 44.3615 30.7881 44.3615 30.8292C44.3615 30.8849 44.3673 30.9308 44.38 30.9689C44.3927 31.007 44.4113 31.0393 44.4377 31.0666C44.465 31.094 44.5129 31.1282 44.5843 31.1683C44.6556 31.2083 44.7436 31.2474 44.8471 31.2865C44.9507 31.3256 45.07 31.3588 45.2019 31.3862C45.3348 31.4136 45.4755 31.4272 45.626 31.4272C45.8459 31.4272 46.0492 31.3969 46.2348 31.3364C46.4215 31.2758 46.5818 31.1888 46.7166 31.0735C46.8515 30.9591 46.957 30.8194 47.0323 30.6552C47.1075 30.491 47.1447 30.3044 47.1447 30.0972C47.1447 29.9135 47.1134 29.7542 47.0509 29.6203C46.9903 29.4854 46.9072 29.3682 46.8026 29.2675Z" fill="black"/>
<path d="M49.5253 28.3027C49.5566 28.3027 49.583 28.287 49.6035 28.2577C49.624 28.2274 49.6347 28.1825 49.6347 28.1219C49.6347 28.0906 49.6328 28.0632 49.6279 28.0407C49.623 28.0173 49.6162 27.9987 49.6064 27.9831C49.5966 27.9675 49.5849 27.9557 49.5722 27.9489C49.5585 27.9411 49.5439 27.9381 49.5272 27.9381H48.6213V27.1329C48.6213 27.1182 48.6174 27.1055 48.6106 27.0928C48.6037 27.0811 48.592 27.0703 48.5754 27.0625C48.5598 27.0537 48.5383 27.0479 48.5099 27.0439C48.4826 27.04 48.4464 27.0381 48.4034 27.0381C48.3624 27.0381 48.3272 27.04 48.2998 27.0439C48.2725 27.0479 48.25 27.0537 48.2324 27.0625C48.2158 27.0713 48.204 27.0811 48.1982 27.0928C48.1923 27.1055 48.1894 27.1182 48.1894 27.1329V27.9381H47.6998C47.6832 27.9381 47.6675 27.942 47.6548 27.9489C47.6412 27.9557 47.6304 27.9675 47.6206 27.9831C47.6109 27.9987 47.603 28.0183 47.5991 28.0407C47.5942 28.0632 47.5913 28.0906 47.5913 28.1219C47.5913 28.1825 47.6011 28.2274 47.6206 28.2577C47.6402 28.288 47.6666 28.3027 47.6998 28.3027H48.1894V30.3432C48.1894 30.5269 48.206 30.6862 48.2383 30.822C48.2715 30.9579 48.3233 31.0693 48.3956 31.1572C48.4679 31.2452 48.5607 31.3116 48.6751 31.3546C48.7884 31.3976 48.9262 31.4201 49.0885 31.4201C49.1363 31.4201 49.1862 31.4172 49.237 31.4113C49.2878 31.4054 49.3357 31.3966 49.3816 31.3859C49.4276 31.3751 49.4676 31.3615 49.5028 31.3458C49.538 31.3302 49.5644 31.3126 49.582 31.295C49.6005 31.2764 49.6132 31.252 49.622 31.2207C49.6308 31.1895 49.6347 31.1484 49.6347 31.0976C49.6347 31.0663 49.6328 31.0399 49.6289 31.0194C49.625 30.9989 49.6201 30.9823 49.6142 30.9686C49.6084 30.9549 49.6005 30.9461 49.5908 30.9412C49.581 30.9364 49.5702 30.9344 49.5575 30.9344C49.539 30.9344 49.5155 30.9403 49.4901 30.953C49.4647 30.9647 49.4344 30.9784 49.3983 30.993C49.3621 31.0077 49.3201 31.0214 49.2732 31.0331C49.2263 31.0458 49.1735 31.0517 49.1158 31.0517C48.9272 31.0517 48.7972 30.9862 48.7259 30.8562C48.6546 30.7253 48.6184 30.5357 48.6184 30.2865V28.3036H49.5253V28.3027Z" fill="black"/>
<path d="M52.4238 28.1926C52.3281 28.091 52.203 28.0128 52.0486 27.959C51.8942 27.9043 51.7046 27.877 51.4798 27.877C51.3635 27.877 51.2482 27.8877 51.1319 27.9092C51.0156 27.9307 50.9081 27.959 50.8075 27.9942C50.7078 28.0294 50.6179 28.0675 50.5416 28.1086C50.4644 28.1496 50.4107 28.1858 50.3804 28.2151C50.3501 28.2454 50.3315 28.2757 50.3247 28.306C50.3179 28.3363 50.3139 28.3763 50.3139 28.4271C50.3139 28.4555 50.3159 28.4809 50.3198 28.5014C50.3237 28.5219 50.3296 28.5395 50.3384 28.5522C50.3472 28.5659 50.3569 28.5747 50.3687 28.5796C50.3804 28.5845 50.3941 28.5864 50.4087 28.5864C50.4332 28.5864 50.4732 28.5688 50.5299 28.5337C50.5866 28.4985 50.6589 28.4594 50.7459 28.4154C50.8329 28.3714 50.9345 28.3324 51.0498 28.2972C51.1661 28.262 51.2961 28.2444 51.4417 28.2444C51.5912 28.2444 51.7183 28.262 51.8228 28.2991C51.9264 28.3353 52.0114 28.39 52.0769 28.4623C52.1424 28.5346 52.1893 28.6246 52.2186 28.7321C52.2479 28.8395 52.2626 28.9637 52.2626 29.1034V29.3858H51.7398C51.5033 29.3858 51.2883 29.4083 51.0948 29.4533C50.9013 29.4982 50.7361 29.5647 50.5983 29.6546C50.4605 29.7445 50.354 29.8559 50.2797 29.9898C50.2055 30.1237 50.1674 30.282 50.1674 30.4628C50.1674 30.6103 50.1928 30.7432 50.2436 30.8615C50.2944 30.9797 50.3667 31.0804 50.4615 31.1644C50.5553 31.2485 50.6706 31.312 50.8075 31.357C50.9443 31.4019 51.0987 31.4244 51.2697 31.4244C51.4603 31.4244 51.645 31.3814 51.8228 31.2934C52.0007 31.2065 52.1629 31.0833 52.3105 30.924V31.2905C52.3105 31.3149 52.3183 31.3335 52.3339 31.3462C52.3496 31.3599 52.372 31.3697 52.4014 31.3755C52.4307 31.3814 52.4659 31.3843 52.5069 31.3843C52.5499 31.3843 52.5851 31.3814 52.6105 31.3755C52.6359 31.3697 52.6564 31.3599 52.6721 31.3462C52.6877 31.3325 52.6955 31.314 52.6955 31.2905V29.0721C52.6955 28.8835 52.675 28.7154 52.634 28.5669C52.5929 28.4184 52.5196 28.2942 52.4238 28.1926ZM52.2597 30.5165C52.0926 30.7002 51.9352 30.8361 51.7867 30.924C51.6381 31.012 51.4779 31.056 51.3059 31.056C51.0879 31.056 50.9198 31.0003 50.7996 30.8879C50.6804 30.7755 50.6198 30.625 50.6198 30.4364C50.6198 30.3279 50.6413 30.2312 50.6834 30.1461C50.7254 30.0611 50.7899 29.9888 50.8778 29.9282C50.9648 29.8676 51.0733 29.8217 51.2042 29.7904C51.3342 29.7591 51.4867 29.7435 51.6606 29.7435H52.2587V30.5165H52.2597Z" fill="black"/>
<path d="M55.6977 28.0353C55.6938 28.0216 55.6899 28.0108 55.685 28.003C55.6801 27.9942 55.6713 27.9845 55.6566 27.9737C55.642 27.963 55.6166 27.9502 55.5785 27.9375C55.5404 27.9239 55.4983 27.9121 55.4514 27.9033C55.4045 27.8936 55.3605 27.8867 55.3195 27.8828C55.2785 27.8789 55.2423 27.877 55.211 27.877C55.1387 27.877 55.0683 27.8857 54.999 27.9024C54.9296 27.919 54.8592 27.9512 54.7869 27.9981C54.7146 28.045 54.6384 28.1115 54.5582 28.1955C54.4781 28.2806 54.3911 28.391 54.2973 28.5298V28.0108C54.2973 27.9962 54.2944 27.9835 54.2885 27.9708C54.2826 27.959 54.2719 27.9483 54.2582 27.9405C54.2435 27.9317 54.223 27.9258 54.1966 27.9219C54.1702 27.918 54.136 27.916 54.095 27.916C54.0539 27.916 54.0207 27.918 53.9953 27.9219C53.9699 27.9258 53.9494 27.9317 53.9318 27.9405C53.9152 27.9493 53.9035 27.959 53.8976 27.9708C53.8917 27.9835 53.8888 27.9962 53.8888 28.0108V31.2915C53.8888 31.3061 53.8917 31.3198 53.8976 31.3315C53.9035 31.3442 53.9152 31.353 53.9318 31.3609C53.9494 31.3677 53.9709 31.3745 53.9992 31.3794C54.0266 31.3843 54.0618 31.3863 54.1028 31.3863C54.1458 31.3863 54.182 31.3843 54.2093 31.3794C54.2377 31.3745 54.2592 31.3687 54.2748 31.3609C54.2904 31.353 54.3022 31.3442 54.309 31.3315C54.3159 31.3198 54.3198 31.3061 54.3198 31.2915V29.0731C54.4116 28.9255 54.4957 28.8014 54.5719 28.6998C54.6481 28.5982 54.7204 28.5171 54.7888 28.4555C54.8582 28.3939 54.9237 28.349 54.9862 28.3216C55.0488 28.2933 55.1133 28.2796 55.1788 28.2796C55.2345 28.2796 55.2853 28.2854 55.3312 28.2962C55.3772 28.3069 55.4192 28.3187 55.4583 28.3304C55.4974 28.3431 55.5306 28.3539 55.5599 28.3646C55.5882 28.3754 55.6146 28.3812 55.6361 28.3812C55.6508 28.3812 55.6625 28.3773 55.6703 28.3685C55.6791 28.3597 55.686 28.348 55.6918 28.3324C55.6977 28.3167 55.7026 28.2962 55.7045 28.2708C55.7065 28.2454 55.7084 28.2151 55.7084 28.1789C55.7084 28.1428 55.7075 28.1134 55.7065 28.09C55.7036 28.0665 55.7016 28.048 55.6977 28.0353Z" fill="black"/>
<path d="M57.918 28.3027C57.9493 28.3027 57.9757 28.287 57.9952 28.2577C58.0157 28.2274 58.0265 28.1825 58.0265 28.1219C58.0265 28.0906 58.0235 28.0632 58.0187 28.0407C58.0138 28.0173 58.0069 27.9987 57.9972 27.9831C57.9874 27.9675 57.9766 27.9557 57.9629 27.9489C57.9493 27.9411 57.9346 27.9381 57.918 27.9381H57.0121V27.1329C57.0121 27.1182 57.0082 27.1055 57.0013 27.0928C56.9945 27.0811 56.9828 27.0703 56.9671 27.0625C56.9515 27.0537 56.93 27.0479 56.9017 27.0439C56.8743 27.04 56.8381 27.0381 56.7951 27.0381C56.7541 27.0381 56.7199 27.04 56.6915 27.0439C56.6632 27.0479 56.6417 27.0537 56.6241 27.0625C56.6075 27.0713 56.5958 27.0811 56.5899 27.0928C56.584 27.1055 56.5811 27.1182 56.5811 27.1329V27.9381H56.0915C56.0749 27.9381 56.0593 27.942 56.0466 27.9489C56.0329 27.9557 56.0211 27.9675 56.0123 27.9831C56.0026 27.9987 55.9948 28.0183 55.9909 28.0407C55.986 28.0632 55.984 28.0906 55.984 28.1219C55.984 28.1825 55.9938 28.2274 56.0133 28.2577C56.0329 28.288 56.0593 28.3027 56.0935 28.3027H56.5831V30.3432C56.5831 30.5269 56.5997 30.6862 56.6319 30.822C56.6652 30.9579 56.7169 31.0693 56.7893 31.1572C56.8616 31.2452 56.9554 31.3116 57.0688 31.3546C57.1821 31.3976 57.3199 31.4201 57.4821 31.4201C57.53 31.4201 57.5799 31.4172 57.6307 31.4113C57.6815 31.4054 57.7294 31.3966 57.7753 31.3859C57.8212 31.3751 57.8623 31.3615 57.8965 31.3458C57.9317 31.3302 57.9581 31.3126 57.9757 31.295C57.9942 31.2764 58.0069 31.252 58.0157 31.2207C58.0245 31.1895 58.0284 31.1484 58.0284 31.0976C58.0284 31.0663 58.0265 31.0399 58.0226 31.0194C58.0187 30.9989 58.0138 30.9823 58.0079 30.9686C58.002 30.9549 57.9942 30.9461 57.9845 30.9412C57.9747 30.9364 57.9639 30.9344 57.9522 30.9344C57.9327 30.9344 57.9102 30.9403 57.8848 30.953C57.8594 30.9647 57.8291 30.9784 57.7929 30.993C57.7567 31.0077 57.7147 31.0214 57.6678 31.0331C57.6209 31.0458 57.5681 31.0517 57.5095 31.0517C57.3209 31.0517 57.1909 30.9862 57.1196 30.8562C57.0482 30.7253 57.0131 30.5357 57.0131 30.2865V28.3036H57.918V28.3027Z" fill="black"/>
<path d="M62.6742 29.2675C62.5706 29.1678 62.4524 29.0799 62.3204 29.0066C62.1885 28.9333 62.0546 28.8639 61.9178 28.8004C61.781 28.7359 61.6471 28.6724 61.5152 28.6079C61.3833 28.5434 61.266 28.472 61.1614 28.3919C61.0569 28.3118 60.9738 28.2209 60.9112 28.1163C60.8487 28.0127 60.8165 27.8876 60.8165 27.743C60.8165 27.6443 60.834 27.5495 60.8692 27.4606C60.9044 27.3707 60.9572 27.2935 61.0266 27.227C61.0969 27.1605 61.1849 27.1078 61.2914 27.0697C61.3979 27.0315 61.522 27.012 61.6647 27.012C61.8103 27.012 61.9393 27.0296 62.0527 27.0648C62.166 27.1 62.2638 27.139 62.3459 27.183C62.4279 27.227 62.4964 27.2661 62.5511 27.3013C62.6058 27.3365 62.6459 27.354 62.6723 27.354C62.6869 27.354 62.6996 27.3492 62.7104 27.3394C62.7211 27.3296 62.7309 27.3159 62.7377 27.2974C62.7446 27.2788 62.7504 27.2573 62.7544 27.2319C62.7583 27.2065 62.7592 27.1781 62.7592 27.1469C62.7592 27.1136 62.7583 27.0843 62.7553 27.0618C62.7534 27.0384 62.7495 27.0188 62.7446 27.0022C62.7397 26.9856 62.7338 26.9719 62.728 26.9602C62.7221 26.9495 62.7074 26.9319 62.685 26.9094C62.6615 26.8859 62.6146 26.8566 62.5433 26.8185C62.4719 26.7814 62.3908 26.7472 62.2999 26.7169C62.209 26.6866 62.1133 26.6621 62.0116 26.6426C61.91 26.6231 61.8093 26.6133 61.7106 26.6133C61.5123 26.6133 61.3305 26.6397 61.1653 26.6934C61.0002 26.7462 60.8575 26.8234 60.7393 26.9231C60.621 27.0237 60.5291 27.1449 60.4637 27.2895C60.3982 27.4332 60.3659 27.5954 60.3659 27.7772C60.3659 27.9638 60.3972 28.1241 60.4607 28.259C60.5233 28.3948 60.6063 28.5121 60.709 28.6127C60.8116 28.7134 60.9279 28.8004 61.0588 28.8756C61.1898 28.9509 61.3227 29.0203 61.4595 29.0838C61.5963 29.1483 61.7302 29.2118 61.8602 29.2763C61.9911 29.3408 62.1074 29.4121 62.21 29.4903C62.3126 29.5685 62.3957 29.6604 62.4582 29.764C62.5208 29.8675 62.5521 29.9926 62.5521 30.1373C62.5521 30.277 62.5276 30.4021 62.4778 30.5125C62.4279 30.623 62.3586 30.7148 62.2687 30.7901C62.1797 30.8653 62.0732 30.922 61.9491 30.9621C61.826 31.0021 61.6911 31.0217 61.5435 31.0217C61.3627 31.0217 61.2034 31.0002 61.0666 30.9582C60.9298 30.9161 60.8125 30.8702 60.7148 30.8204C60.6171 30.7705 60.537 30.7246 60.4754 30.6826C60.4138 30.6405 60.3659 30.619 60.3327 30.619C60.3181 30.619 60.3044 30.622 60.2907 30.6278C60.277 30.6337 60.2663 30.6454 60.2584 30.662C60.2496 30.6796 60.2428 30.7011 60.2389 30.7275C60.234 30.7539 60.2311 30.7881 60.2311 30.8292C60.2311 30.8849 60.2369 30.9308 60.2496 30.9689C60.2624 31.007 60.2809 31.0393 60.3073 31.0666C60.3337 31.094 60.3826 31.1282 60.4539 31.1683C60.5252 31.2083 60.6132 31.2474 60.7168 31.2865C60.8204 31.3256 60.9386 31.3588 61.0715 31.3862C61.2044 31.4136 61.3451 31.4272 61.4956 31.4272C61.7155 31.4272 61.9188 31.3969 62.1045 31.3364C62.2911 31.2758 62.4514 31.1888 62.5863 31.0735C62.7211 30.9591 62.8267 30.8194 62.9019 30.6552C62.9772 30.491 63.0143 30.3044 63.0143 30.0972C63.0143 29.9135 62.983 29.7542 62.9205 29.6203C62.8618 29.4854 62.7778 29.3682 62.6742 29.2675Z" fill="black"/>
<path d="M66.4406 28.3431C66.3125 28.1916 66.1523 28.0763 65.9597 27.9972C65.7672 27.917 65.5434 27.8779 65.2874 27.8779C65.0196 27.8779 64.7851 27.9229 64.5838 28.0118C64.3834 28.1017 64.2153 28.2268 64.0815 28.3871C63.9476 28.5474 63.8469 28.7379 63.7805 28.9578C63.714 29.1777 63.6808 29.4181 63.6808 29.679C63.6808 29.9497 63.713 30.193 63.7775 30.408C63.842 30.623 63.9378 30.8058 64.0678 30.9573C64.1968 31.1087 64.358 31.224 64.5496 31.3052C64.7421 31.3863 64.9659 31.4263 65.2219 31.4263C65.4877 31.4263 65.7213 31.3814 65.9216 31.2905C66.122 31.1996 66.2901 31.0736 66.4239 30.9113C66.5578 30.7501 66.6585 30.5585 66.7269 30.3387C66.7943 30.1188 66.8285 29.8784 66.8285 29.6174C66.8285 29.3497 66.7953 29.1073 66.7308 28.8923C66.6653 28.6773 66.5686 28.4946 66.4406 28.3431ZM66.3067 30.2087C66.2627 30.3777 66.1962 30.5243 66.1054 30.6475C66.0145 30.7706 65.8982 30.8674 65.7555 30.9377C65.6128 31.0081 65.4438 31.0423 65.2473 31.0423C65.0343 31.0423 64.8574 31.0051 64.7147 30.9299C64.572 30.8546 64.4587 30.754 64.3737 30.625C64.2896 30.497 64.229 30.3475 64.1929 30.1774C64.1567 30.0074 64.1381 29.8276 64.1381 29.6389C64.1381 29.4435 64.1596 29.2607 64.2036 29.0917C64.2466 28.9226 64.314 28.776 64.4049 28.6509C64.4958 28.5268 64.6121 28.4291 64.7548 28.3587C64.8975 28.2884 65.0665 28.2532 65.263 28.2532C65.476 28.2532 65.6539 28.2913 65.7956 28.3675C65.9382 28.4438 66.0516 28.5464 66.1356 28.6754C66.2207 28.8044 66.2803 28.9539 66.3164 29.123C66.3526 29.292 66.3712 29.4699 66.3712 29.6556C66.3712 29.8559 66.3506 30.0396 66.3067 30.2087Z" fill="black"/>
<path d="M72.2318 28.2796C72.1458 28.1564 72.0324 28.0587 71.8907 27.9864C71.749 27.9141 71.576 27.8779 71.3708 27.8779C71.2887 27.8779 71.2057 27.8897 71.1206 27.9121C71.0356 27.9356 70.9486 27.9727 70.8578 28.0245C70.7669 28.0763 70.6711 28.1457 70.5714 28.2307C70.4717 28.3167 70.3642 28.4223 70.2509 28.5483C70.2147 28.4496 70.1668 28.3587 70.1092 28.2767C70.0515 28.1946 69.9812 28.1242 69.8991 28.0646C69.817 28.005 69.7222 27.96 69.6147 27.9268C69.5072 27.8945 69.385 27.8779 69.2463 27.8779C69.0792 27.8779 68.9111 27.9248 68.742 28.0196C68.5729 28.1134 68.3941 28.2659 68.2055 28.476V28.0118C68.2055 27.9972 68.2026 27.9845 68.1967 27.9717C68.1908 27.96 68.1801 27.9493 68.1664 27.9415C68.1517 27.9327 68.1312 27.9268 68.1048 27.9229C68.0784 27.919 68.0442 27.917 68.0032 27.917C67.9622 27.917 67.9289 27.919 67.9035 27.9229C67.8781 27.9268 67.8566 27.9327 67.84 27.9415C67.8234 27.9502 67.8117 27.96 67.8058 27.9717C67.7999 27.9845 67.797 27.9972 67.797 28.0118V31.2925C67.797 31.3071 67.7999 31.3208 67.8058 31.3325C67.8117 31.3452 67.8234 31.354 67.84 31.3618C67.8566 31.3687 67.8791 31.3755 67.9074 31.3804C67.9348 31.3853 67.97 31.3873 68.011 31.3873C68.055 31.3873 68.0902 31.3853 68.1175 31.3804C68.1459 31.3755 68.1674 31.3697 68.183 31.3618C68.1986 31.354 68.2104 31.3452 68.2172 31.3325C68.2241 31.3208 68.228 31.3071 68.228 31.2925V28.9392C68.4117 28.7096 68.5817 28.5356 68.7371 28.4174C68.8935 28.2991 69.0469 28.2395 69.1994 28.2395C69.3225 28.2395 69.429 28.2639 69.5199 28.3138C69.6108 28.3636 69.686 28.433 69.7447 28.5239C69.8043 28.6148 69.8483 28.7233 69.8766 28.8503C69.9059 28.9773 69.9206 29.1181 69.9206 29.2725V31.2915C69.9206 31.3061 69.9235 31.3198 69.9294 31.3315C69.9352 31.3443 69.947 31.353 69.9636 31.3609C69.9802 31.3677 70.0027 31.3745 70.031 31.3794C70.0584 31.3843 70.0935 31.3863 70.1346 31.3863C70.1756 31.3863 70.2098 31.3843 70.2382 31.3794C70.2655 31.3745 70.288 31.3687 70.3037 31.3609C70.3193 31.353 70.331 31.3443 70.3379 31.3315C70.3447 31.3198 70.3486 31.3061 70.3486 31.2915V28.9383C70.5353 28.7086 70.7053 28.5346 70.8617 28.4164C71.018 28.2982 71.1715 28.2385 71.3239 28.2385C71.447 28.2385 71.5536 28.263 71.6444 28.3128C71.7353 28.3626 71.8096 28.432 71.8692 28.5229C71.9288 28.6138 71.9718 28.7223 72.0002 28.8493C72.0275 28.9764 72.0422 29.1171 72.0422 29.2715V31.2905C72.0422 31.3052 72.0451 31.3188 72.051 31.3306C72.0569 31.3433 72.0686 31.3521 72.0852 31.3599C72.1018 31.3667 72.1243 31.3736 72.1526 31.3785C72.18 31.3833 72.2161 31.3853 72.2601 31.3853C72.3012 31.3853 72.3354 31.3833 72.3637 31.3785C72.3911 31.3736 72.4135 31.3677 72.4292 31.3599C72.4448 31.3521 72.4565 31.3433 72.4644 31.3306C72.4712 31.3188 72.4751 31.3052 72.4751 31.2905V29.2314C72.4751 29.0477 72.4565 28.8738 72.4194 28.7096C72.3793 28.5473 72.3178 28.4027 72.2318 28.2796Z" fill="black"/>
<path d="M76.0206 28.3324C75.9082 28.1936 75.7656 28.0832 75.5906 28.0001C75.4167 27.918 75.2066 27.877 74.9603 27.877C74.7306 27.877 74.5225 27.917 74.3349 27.9981C74.1472 28.0792 73.987 28.1965 73.854 28.3499C73.7211 28.5034 73.6195 28.69 73.5482 28.9099C73.4768 29.1298 73.4417 29.379 73.4417 29.6565C73.4417 29.9468 73.4759 30.2018 73.5452 30.4217C73.6146 30.6416 73.7153 30.8253 73.8482 30.9748C73.9811 31.1234 74.1453 31.2358 74.3417 31.312C74.5371 31.3882 74.7619 31.4263 75.016 31.4263C75.1704 31.4263 75.315 31.4146 75.4489 31.3902C75.5828 31.3657 75.7011 31.3394 75.8027 31.3081C75.9043 31.2778 75.9864 31.2475 76.049 31.2172C76.1115 31.1869 76.1496 31.1664 76.1614 31.1537C76.1741 31.142 76.1828 31.1293 76.1907 31.1175C76.1975 31.1048 76.2034 31.0921 76.2063 31.0794C76.2102 31.0657 76.2131 31.0511 76.2151 31.0354C76.218 31.0198 76.219 31.0032 76.219 30.9866C76.219 30.9504 76.2171 30.9201 76.2141 30.8957C76.2102 30.8713 76.2053 30.8517 76.1975 30.8361C76.1907 30.8204 76.1809 30.8087 76.1682 30.8019C76.1565 30.795 76.1428 30.7911 76.1281 30.7911C76.1037 30.7911 76.0636 30.8048 76.0069 30.8312C75.9503 30.8576 75.8779 30.8879 75.789 30.9201C75.7011 30.9524 75.5965 30.9827 75.4753 31.0091C75.3541 31.0354 75.2173 31.0491 75.0658 31.0491C74.8509 31.0491 74.6701 31.0178 74.5225 30.9553C74.3749 30.8928 74.2557 30.8029 74.1638 30.6846C74.072 30.5673 74.0065 30.4266 73.9664 30.2624C73.9264 30.0983 73.9068 29.9145 73.9068 29.7113H76.1438C76.1877 29.7113 76.2317 29.6946 76.2776 29.6624C76.3236 29.6301 76.347 29.5705 76.347 29.4826V29.3956C76.347 29.1923 76.3206 28.9998 76.2688 28.8161C76.2151 28.6324 76.133 28.4711 76.0206 28.3324ZM73.9049 29.3565C73.9117 29.2109 73.9381 29.0721 73.984 28.9373C74.03 28.8034 74.0954 28.6851 74.1814 28.5835C74.2674 28.4819 74.372 28.4008 74.4971 28.3392C74.6212 28.2776 74.7658 28.2473 74.93 28.2473C75.2496 28.2473 75.4919 28.3451 75.659 28.5405C75.8262 28.736 75.9053 29.0076 75.8985 29.3565H73.9049Z" fill="black"/>
<path d="M78.7736 28.3027C78.8049 28.3027 78.8312 28.287 78.8518 28.2577C78.8723 28.2274 78.883 28.1825 78.883 28.1219C78.883 28.0906 78.8801 28.0632 78.8752 28.0407C78.8703 28.0173 78.8635 27.9987 78.8537 27.9831C78.8439 27.9675 78.8332 27.9557 78.8195 27.9489C78.8058 27.9411 78.7912 27.9381 78.7746 27.9381H77.8686V27.1329C77.8686 27.1182 77.8647 27.1055 77.8579 27.0928C77.8511 27.0811 77.8393 27.0703 77.8237 27.0625C77.8081 27.0537 77.7866 27.0479 77.7582 27.0439C77.7309 27.04 77.6947 27.0381 77.6517 27.0381C77.6107 27.0381 77.5764 27.04 77.5481 27.0439C77.5198 27.0479 77.4983 27.0537 77.4807 27.0625C77.4641 27.0713 77.4523 27.0811 77.4455 27.0928C77.4396 27.1055 77.4367 27.1182 77.4367 27.1329V27.9381H76.9471C76.9305 27.9381 76.9148 27.942 76.9021 27.9489C76.8885 27.9557 76.8767 27.9675 76.8679 27.9831C76.8582 27.9987 76.8513 28.0183 76.8464 28.0407C76.8415 28.0632 76.8396 28.0906 76.8396 28.1219C76.8396 28.1825 76.8494 28.2274 76.8689 28.2577C76.8885 28.288 76.9148 28.3027 76.9491 28.3027H77.4387V30.3432C77.4387 30.5269 77.4553 30.6862 77.4875 30.822C77.5198 30.9579 77.5725 31.0693 77.6449 31.1572C77.7172 31.2452 77.81 31.3116 77.9243 31.3546C78.0377 31.3976 78.1755 31.4201 78.3377 31.4201C78.3856 31.4201 78.4364 31.4172 78.4863 31.4113C78.5371 31.4054 78.585 31.3966 78.6309 31.3859C78.6768 31.3751 78.7179 31.3615 78.7521 31.3458C78.7873 31.3302 78.8136 31.3126 78.8322 31.295C78.8498 31.2764 78.8635 31.252 78.8723 31.2207C78.8811 31.1895 78.885 31.1484 78.885 31.0976C78.885 31.0663 78.883 31.0399 78.8791 31.0194C78.8752 30.9989 78.8703 30.9823 78.8645 30.9686C78.8586 30.9549 78.8508 30.9461 78.841 30.9412C78.8312 30.9364 78.8205 30.9344 78.8078 30.9344C78.7882 30.9344 78.7658 30.9403 78.7404 30.953C78.7149 30.9647 78.6837 30.9784 78.6475 30.993C78.6114 31.0077 78.5693 31.0214 78.5224 31.0331C78.4755 31.0458 78.4228 31.0517 78.3651 31.0517C78.1765 31.0517 78.0465 30.9862 77.9752 30.8562C77.9038 30.7253 77.8686 30.5357 77.8686 30.2865V28.3036H78.7736V28.3027Z" fill="black"/>
<path d="M82.147 28.2797C82.0571 28.1566 81.9369 28.0589 81.7903 27.9865C81.6427 27.9142 81.4609 27.8781 81.2459 27.8781C81.0671 27.8781 80.8883 27.925 80.7094 28.0178C80.5306 28.1106 80.3518 28.2563 80.1729 28.4546V26.4053C80.1729 26.3907 80.169 26.378 80.1622 26.3653C80.1553 26.3535 80.1436 26.3428 80.128 26.335C80.1123 26.3262 80.0908 26.3203 80.0625 26.3164C80.0351 26.3125 79.999 26.3105 79.956 26.3105C79.9149 26.3105 79.8807 26.3125 79.8524 26.3164C79.824 26.3203 79.8025 26.3262 79.7849 26.335C79.7683 26.3438 79.7566 26.3535 79.7498 26.3653C79.7439 26.378 79.741 26.3907 79.741 26.4053V31.2926C79.741 31.3072 79.7439 31.3209 79.7498 31.3327C79.7556 31.3454 79.7674 31.3542 79.7849 31.362C79.8016 31.3688 79.824 31.3757 79.8524 31.3805C79.8797 31.3854 79.9149 31.3874 79.956 31.3874C79.999 31.3874 80.0351 31.3854 80.0625 31.3805C80.0908 31.3757 80.1123 31.3698 80.128 31.362C80.1436 31.3542 80.1553 31.3454 80.1622 31.3327C80.169 31.3209 80.1729 31.3072 80.1729 31.2926V28.9394C80.3566 28.7097 80.5316 28.5358 80.6987 28.4175C80.8658 28.2993 81.0329 28.2396 81.199 28.2396C81.33 28.2396 81.4433 28.2641 81.5421 28.3139C81.6398 28.3638 81.7199 28.4331 81.7825 28.524C81.845 28.6149 81.8929 28.7234 81.9242 28.8504C81.9554 28.9775 81.9711 29.1426 81.9711 29.3449V31.2916C81.9711 31.3063 81.975 31.32 81.9818 31.3317C81.9887 31.3444 82.0004 31.3532 82.016 31.361C82.0317 31.3678 82.0532 31.3747 82.0815 31.3796C82.1089 31.3845 82.145 31.3864 82.188 31.3864C82.2291 31.3864 82.2633 31.3845 82.2916 31.3796C82.3199 31.3747 82.3414 31.3688 82.3571 31.361C82.3727 31.3532 82.3844 31.3444 82.3913 31.3317C82.3981 31.32 82.402 31.3063 82.402 31.2916V29.3049C82.402 29.0732 82.3815 28.8749 82.3424 28.7107C82.3024 28.5475 82.2369 28.4028 82.147 28.2797Z" fill="black"/>
<path d="M83.8161 26.6123C83.7076 26.6123 83.6324 26.6328 83.5914 26.6739C83.5503 26.7149 83.5298 26.7931 83.5298 26.9094C83.5298 27.0257 83.5503 27.1039 83.5894 27.143C83.6295 27.183 83.7018 27.2026 83.8083 27.2026C83.9168 27.2026 83.992 27.182 84.0331 27.141C84.0741 27.1 84.0946 27.0218 84.0946 26.9055C84.0946 26.7892 84.0741 26.711 84.035 26.6719C83.9959 26.6318 83.9226 26.6123 83.8161 26.6123Z" fill="black"/>
<path d="M83.9843 27.9414C83.9686 27.9326 83.9471 27.9268 83.9188 27.9229C83.8914 27.9189 83.8553 27.917 83.8123 27.917C83.7712 27.917 83.737 27.9189 83.7087 27.9229C83.6804 27.9268 83.6589 27.9326 83.6413 27.9414C83.6247 27.9502 83.6129 27.96 83.6071 27.9717C83.6012 27.9844 83.5983 27.9971 83.5983 28.0118V31.2924C83.5983 31.3071 83.6012 31.3208 83.6071 31.3325C83.6129 31.3452 83.6247 31.354 83.6413 31.3618C83.6579 31.3687 83.6804 31.3755 83.7087 31.3804C83.7361 31.3853 83.7712 31.3872 83.8123 31.3872C83.8563 31.3872 83.8914 31.3853 83.9188 31.3804C83.9462 31.3755 83.9686 31.3696 83.9843 31.3618C83.9999 31.354 84.0116 31.3452 84.0195 31.3325C84.0263 31.3208 84.0302 31.3071 84.0302 31.2924V28.0118C84.0302 27.9971 84.0263 27.9844 84.0195 27.9717C84.0116 27.96 84.0009 27.9492 83.9843 27.9414Z" fill="black"/>
<path d="M87.6431 28.2796C87.5522 28.1564 87.433 28.0587 87.2864 27.9864C87.1388 27.9141 86.957 27.8779 86.742 27.8779C86.5632 27.8779 86.3834 27.9248 86.2016 28.0196C86.0208 28.1134 85.8351 28.2659 85.6465 28.476V28.0118C85.6465 27.9972 85.6436 27.9845 85.6377 27.9717C85.6319 27.96 85.6211 27.9493 85.6074 27.9415C85.5928 27.9327 85.5723 27.9268 85.5459 27.9229C85.5195 27.919 85.4853 27.917 85.4442 27.917C85.4032 27.917 85.37 27.919 85.3446 27.9229C85.3192 27.9268 85.2976 27.9327 85.281 27.9415C85.2644 27.9502 85.2527 27.96 85.2468 27.9717C85.241 27.9845 85.238 27.9972 85.238 28.0118V31.2925C85.238 31.3071 85.241 31.3208 85.2468 31.3325C85.2527 31.3452 85.2644 31.354 85.281 31.3618C85.2976 31.3687 85.3201 31.3755 85.3485 31.3804C85.3758 31.3853 85.411 31.3873 85.4521 31.3873C85.4951 31.3873 85.5312 31.3853 85.5586 31.3804C85.5859 31.3755 85.6084 31.3697 85.6241 31.3618C85.6397 31.354 85.6514 31.3452 85.6583 31.3325C85.6661 31.3208 85.669 31.3071 85.669 31.2925V28.9392C85.8527 28.7096 86.0277 28.5356 86.1948 28.4174C86.3619 28.2991 86.529 28.2395 86.6951 28.2395C86.8261 28.2395 86.9394 28.2639 87.0381 28.3138C87.1359 28.3636 87.216 28.433 87.2785 28.5239C87.3411 28.6148 87.389 28.7233 87.4202 28.8503C87.4515 28.9773 87.4672 29.1425 87.4672 29.3448V31.2915C87.4672 31.3061 87.4711 31.3198 87.4779 31.3315C87.4847 31.3443 87.4965 31.353 87.5121 31.3609C87.5277 31.3677 87.5492 31.3745 87.5776 31.3794C87.6049 31.3843 87.6411 31.3863 87.6841 31.3863C87.7252 31.3863 87.7594 31.3843 87.7877 31.3794C87.816 31.3745 87.8375 31.3687 87.8532 31.3609C87.8688 31.353 87.8805 31.3443 87.8874 31.3315C87.8942 31.3198 87.8981 31.3061 87.8981 31.2915V29.3047C87.8981 29.0731 87.8776 28.8747 87.8385 28.7106C87.7984 28.5474 87.733 28.4027 87.6431 28.2796Z" fill="black"/>
<path d="M91.6069 27.9356H90.6394C90.5691 27.919 90.4928 27.9043 90.4098 27.8936C90.3257 27.8828 90.2378 27.877 90.143 27.877C89.9641 27.877 89.8 27.9043 89.6495 27.959C89.499 28.0138 89.3709 28.091 89.2634 28.1926C89.1559 28.2942 89.0719 28.4184 89.0113 28.564C88.9507 28.7106 88.9204 28.8747 88.9204 29.0585C88.9204 29.2109 88.94 29.3409 88.9791 29.4503C89.0172 29.5588 89.0719 29.6595 89.1423 29.7513C89.0602 29.8432 88.9898 29.9468 88.9322 30.0611C88.8745 30.1755 88.8452 30.3084 88.8452 30.4579C88.8452 30.5595 88.8745 30.6553 88.9322 30.7442C88.9898 30.8341 89.0807 30.9094 89.2038 30.9729C89.1266 31.0384 89.0582 31.1019 88.9986 31.1654C88.939 31.228 88.8901 31.2934 88.8501 31.3618C88.81 31.4293 88.7807 31.5006 88.7611 31.5759C88.7416 31.6511 88.7318 31.7303 88.7318 31.8153C88.7318 31.9384 88.7572 32.0537 88.81 32.1603C88.8618 32.2668 88.9458 32.3586 89.0602 32.4378C89.1745 32.516 89.3221 32.5775 89.5029 32.6225C89.6827 32.6675 89.9006 32.6899 90.1567 32.6899C90.4254 32.6899 90.656 32.6606 90.8495 32.601C91.043 32.5414 91.2013 32.4622 91.3264 32.3616C91.4505 32.2609 91.5424 32.1446 91.602 32.0117C91.6616 31.8788 91.6909 31.74 91.6909 31.5944C91.6909 31.4537 91.6616 31.3325 91.604 31.228C91.5463 31.1244 91.4672 31.0364 91.3684 30.9651C91.2688 30.8937 91.1544 30.84 91.0225 30.8038C90.8906 30.7677 90.7498 30.7471 90.6003 30.7423L89.712 30.7061C89.5713 30.7012 89.4579 30.667 89.369 30.6045C89.281 30.5419 89.2371 30.4637 89.2371 30.3729C89.2371 30.2908 89.2527 30.2185 89.284 30.1549C89.3152 30.0924 89.3553 30.0367 89.4032 29.9878C89.4784 30.0484 89.582 30.0992 89.7149 30.1403C89.8478 30.1813 89.9876 30.2018 90.1352 30.2018C90.3159 30.2018 90.4821 30.1755 90.6316 30.1217C90.7811 30.0689 90.9111 29.9917 91.0196 29.8921C91.128 29.7914 91.2121 29.6692 91.2717 29.5236C91.3313 29.379 91.3606 29.2129 91.3606 29.0272C91.3606 28.8913 91.3401 28.7633 91.301 28.6412C91.2609 28.519 91.1906 28.4056 91.089 28.3021H91.6069C91.6411 28.3021 91.6685 28.2884 91.6909 28.262C91.7124 28.2356 91.7232 28.1877 91.7232 28.1203C91.7232 28.0597 91.7144 28.0138 91.6958 27.9825C91.6773 27.9512 91.6479 27.9356 91.6069 27.9356ZM89.2449 31.4498C89.2771 31.3931 89.3211 31.3345 89.3768 31.2739C89.4325 31.2133 89.5038 31.1498 89.5908 31.0814L90.5446 31.1136C90.7626 31.1205 90.9355 31.1664 91.0645 31.2514C91.1935 31.3364 91.259 31.4586 91.259 31.6179C91.259 31.7097 91.2404 31.7977 91.2043 31.8827C91.1681 31.9677 91.1075 32.042 91.0235 32.1075C90.9385 32.173 90.828 32.2257 90.6912 32.2648C90.5544 32.3049 90.3853 32.3244 90.1821 32.3244C89.8605 32.3244 89.6094 32.2785 89.4296 32.1866C89.2498 32.0948 89.1598 31.9599 89.1598 31.7811C89.1598 31.7254 89.1657 31.6707 89.1784 31.6159C89.1901 31.5622 89.2126 31.5065 89.2449 31.4498ZM90.8671 29.3399C90.8358 29.4376 90.788 29.5236 90.7254 29.5969C90.6629 29.6712 90.5827 29.7298 90.484 29.7728C90.3863 29.8158 90.272 29.8383 90.142 29.8383C89.8957 29.8383 89.7042 29.7689 89.5674 29.6301C89.4306 29.4914 89.3621 29.3008 89.3621 29.0594C89.3621 28.948 89.3778 28.8435 89.4091 28.7438C89.4403 28.6451 89.4872 28.5571 89.5508 28.4828C89.6133 28.4076 89.6934 28.349 89.7902 28.305C89.8869 28.262 89.9993 28.2395 90.1273 28.2395C90.3785 28.2395 90.573 28.3099 90.7088 28.4496C90.8456 28.5894 90.914 28.7838 90.914 29.033C90.914 29.1405 90.8984 29.2422 90.8671 29.3399Z" fill="black"/>
<path d="M97.1098 27.0559C97.1235 27.0471 97.1362 27.0354 97.146 27.0198C97.1558 27.0041 97.1626 26.9836 97.1675 26.9602C97.1724 26.9357 97.1743 26.9084 97.1743 26.8771C97.1743 26.8429 97.1724 26.8136 97.1675 26.7882C97.1626 26.7628 97.1548 26.7413 97.146 26.7246C97.1362 26.708 97.1245 26.6953 97.1098 26.6865C97.0952 26.6777 97.0795 26.6738 97.0629 26.6738H93.8223C93.8028 26.6738 93.7862 26.6777 93.7735 26.6865C93.7598 26.6953 93.7491 26.708 93.7393 26.7246C93.7295 26.7413 93.7227 26.7628 93.7178 26.7882C93.7129 26.8136 93.7109 26.8429 93.7109 26.8771C93.7109 26.9084 93.7129 26.9367 93.7178 26.9602C93.7227 26.9846 93.7295 27.0041 93.7393 27.0198C93.7491 27.0354 93.7608 27.0471 93.7735 27.0559C93.7862 27.0647 93.8028 27.0686 93.8223 27.0686H95.2218V31.2923C95.2218 31.307 95.2257 31.3207 95.2325 31.3324C95.2394 31.3451 95.2511 31.3539 95.2687 31.3617C95.2853 31.3686 95.3088 31.3754 95.3381 31.3803C95.3674 31.3852 95.4026 31.3871 95.4426 31.3871C95.4837 31.3871 95.5189 31.3852 95.5482 31.3803C95.5765 31.3754 95.6 31.3695 95.6176 31.3617C95.6342 31.3539 95.6459 31.3451 95.6537 31.3324C95.6606 31.3207 95.6645 31.307 95.6645 31.2923V27.0686H97.0639C97.0795 27.0686 97.0952 27.0647 97.1098 27.0559Z" fill="black"/>
<path d="M99.6907 28.3431C99.5627 28.1916 99.4024 28.0763 99.2099 27.9972C99.0173 27.917 98.7936 27.8779 98.5375 27.8779C98.2688 27.8779 98.0342 27.9229 97.8339 28.0118C97.6336 28.1017 97.4655 28.2268 97.3316 28.3871C97.1977 28.5474 97.097 28.7379 97.0306 28.9578C96.9641 29.1777 96.9309 29.4181 96.9309 29.679C96.9309 29.9497 96.9632 30.193 97.0277 30.408C97.0922 30.623 97.1879 30.8058 97.3169 30.9573C97.4459 31.1087 97.6072 31.224 97.7987 31.3052C97.9912 31.3863 98.215 31.4263 98.4711 31.4263C98.7369 31.4263 98.9704 31.3814 99.1708 31.2905C99.3711 31.1996 99.5392 31.0736 99.6731 30.9113C99.807 30.7501 99.9086 30.5585 99.976 30.3387C100.043 30.1188 100.078 29.8784 100.078 29.6174C100.078 29.3497 100.044 29.1073 99.9799 28.8923C99.9154 28.6773 99.8187 28.4946 99.6907 28.3431ZM99.5568 30.2087C99.5138 30.3777 99.4464 30.5243 99.3555 30.6475C99.2646 30.7706 99.1483 30.8674 99.0056 30.9377C98.8629 31.0081 98.6939 31.0423 98.4984 31.0423C98.2854 31.0423 98.1075 31.0051 97.9658 30.9299C97.8231 30.8546 97.7098 30.754 97.6248 30.625C97.5407 30.497 97.4801 30.3475 97.444 30.1774C97.4078 30.0074 97.3892 29.8276 97.3892 29.6389C97.3892 29.4435 97.4107 29.2607 97.4547 29.0917C97.4977 28.9226 97.5651 28.776 97.656 28.6509C97.7469 28.5268 97.8632 28.4291 98.0059 28.3587C98.1486 28.2884 98.3176 28.2532 98.5141 28.2532C98.7271 28.2532 98.904 28.2913 99.0467 28.3675C99.1893 28.4438 99.3027 28.5464 99.3877 28.6754C99.4718 28.8044 99.5324 28.9539 99.5685 29.123C99.6047 29.292 99.6232 29.4699 99.6232 29.6556C99.6223 29.8559 99.6008 30.0396 99.5568 30.2087Z" fill="black"/>
<path d="M103.648 26.3545C103.632 26.3477 103.61 26.3418 103.582 26.3369C103.555 26.332 103.519 26.3301 103.476 26.3301C103.435 26.3301 103.4 26.332 103.372 26.3369C103.344 26.3418 103.322 26.3477 103.305 26.3545C103.288 26.3614 103.276 26.3721 103.27 26.3838C103.265 26.3965 103.262 26.4092 103.262 26.4239V28.3999C103.102 28.2279 102.94 28.0989 102.776 28.01C102.612 27.922 102.43 27.878 102.233 27.878C102.003 27.878 101.802 27.9201 101.628 28.0051C101.454 28.0891 101.307 28.2103 101.189 28.3677C101.071 28.525 100.981 28.7156 100.92 28.9384C100.86 29.1622 100.829 29.4123 100.829 29.6909C100.829 29.9274 100.854 30.1521 100.902 30.3632C100.949 30.5753 101.027 30.759 101.131 30.9163C101.237 31.0737 101.373 31.1978 101.539 31.2896C101.706 31.3815 101.907 31.4274 102.145 31.4274C102.364 31.4274 102.568 31.3737 102.753 31.2662C102.939 31.1587 103.12 31.0102 103.294 30.8215V31.2926C103.294 31.3092 103.298 31.3238 103.307 31.3356C103.315 31.3483 103.327 31.3581 103.343 31.3649C103.358 31.3717 103.379 31.3776 103.404 31.3815C103.43 31.3854 103.462 31.3874 103.5 31.3874C103.536 31.3874 103.567 31.3854 103.591 31.3815C103.615 31.3776 103.635 31.3727 103.651 31.3649C103.666 31.3581 103.677 31.3483 103.683 31.3356C103.689 31.3238 103.692 31.3092 103.692 31.2926V26.4239C103.692 26.4092 103.688 26.3965 103.681 26.3838C103.675 26.3721 103.663 26.3623 103.648 26.3545ZM103.262 30.3573C103.155 30.4883 103.055 30.5968 102.963 30.6857C102.869 30.7737 102.78 30.846 102.692 30.9017C102.605 30.9574 102.521 30.9974 102.438 31.0209C102.356 31.0453 102.271 31.0571 102.184 31.0571C102.01 31.0571 101.865 31.017 101.749 30.9359C101.633 30.8548 101.54 30.7473 101.469 30.6134C101.399 30.4795 101.35 30.3261 101.321 30.1551C101.292 29.9831 101.278 29.8072 101.278 29.6264C101.278 29.4573 101.294 29.2902 101.329 29.126C101.362 28.9618 101.417 28.8143 101.492 28.6843C101.567 28.5533 101.663 28.4488 101.782 28.3686C101.9 28.2895 102.043 28.2494 102.21 28.2494C102.394 28.2494 102.57 28.3071 102.738 28.4234C102.906 28.5397 103.081 28.7077 103.262 28.9276V30.3573Z" fill="black"/>
<path d="M106.936 28.1926C106.84 28.091 106.715 28.0128 106.561 27.959C106.406 27.9043 106.217 27.877 105.992 27.877C105.876 27.877 105.76 27.8877 105.644 27.9092C105.528 27.9307 105.419 27.959 105.32 27.9942C105.22 28.0294 105.13 28.0675 105.053 28.1086C104.976 28.1496 104.922 28.1858 104.892 28.2151C104.861 28.2454 104.843 28.2757 104.836 28.306C104.829 28.3363 104.825 28.3763 104.825 28.4271C104.825 28.4555 104.827 28.4809 104.831 28.5014C104.835 28.5219 104.841 28.5395 104.85 28.5522C104.858 28.5659 104.868 28.5747 104.88 28.5796C104.892 28.5845 104.905 28.5864 104.92 28.5864C104.944 28.5864 104.984 28.5688 105.041 28.5337C105.098 28.4985 105.17 28.4594 105.257 28.4154C105.344 28.3714 105.446 28.3324 105.562 28.2972C105.678 28.262 105.808 28.2444 105.954 28.2444C106.103 28.2444 106.23 28.262 106.335 28.2991C106.439 28.3353 106.524 28.39 106.589 28.4623C106.655 28.5346 106.702 28.6246 106.731 28.7321C106.76 28.8395 106.775 28.9637 106.775 29.1034V29.3858H106.252C106.015 29.3858 105.8 29.4083 105.607 29.4533C105.413 29.4982 105.248 29.5647 105.111 29.6546C104.973 29.7445 104.866 29.8559 104.792 29.9898C104.717 30.1237 104.68 30.282 104.68 30.4628C104.68 30.6103 104.705 30.7432 104.756 30.8615C104.807 30.9797 104.879 31.0804 104.974 31.1644C105.068 31.2485 105.184 31.312 105.32 31.357C105.456 31.4019 105.611 31.4244 105.782 31.4244C105.973 31.4244 106.157 31.3814 106.335 31.2934C106.513 31.2065 106.675 31.0833 106.823 30.924V31.2905C106.823 31.3149 106.83 31.3335 106.846 31.3462C106.862 31.3599 106.884 31.3697 106.914 31.3755C106.943 31.3814 106.978 31.3843 107.018 31.3843C107.061 31.3843 107.096 31.3814 107.122 31.3755C107.147 31.3697 107.168 31.3599 107.183 31.3462C107.199 31.3325 107.207 31.314 107.207 31.2905V29.0721C107.207 28.8835 107.186 28.7154 107.145 28.5669C107.099 28.4193 107.031 28.2942 106.936 28.1926ZM106.771 30.5165C106.604 30.7002 106.446 30.8361 106.297 30.924C106.148 31.012 105.988 31.056 105.817 31.056C105.599 31.056 105.431 31.0003 105.311 30.8879C105.192 30.7755 105.131 30.625 105.131 30.4364C105.131 30.3279 105.153 30.2312 105.195 30.1461C105.237 30.0611 105.301 29.9888 105.389 29.9282C105.476 29.8676 105.585 29.8217 105.715 29.7904C105.846 29.7591 105.999 29.7435 106.173 29.7435H106.771V30.5165Z" fill="black"/>
<path d="M110.688 27.9248C110.657 27.9199 110.619 27.918 110.573 27.918C110.525 27.918 110.483 27.9199 110.45 27.9238C110.417 27.9277 110.39 27.9346 110.368 27.9453C110.348 27.9561 110.331 27.9786 110.319 28.0128L109.312 30.8771H109.298L108.272 28.0128C108.265 27.9961 108.256 27.9815 108.248 27.9698C108.24 27.958 108.227 27.9483 108.208 27.9404C108.19 27.9336 108.165 27.9277 108.134 27.9238C108.103 27.9199 108.06 27.918 108.007 27.918C107.956 27.918 107.915 27.9199 107.886 27.9238C107.856 27.9277 107.834 27.9356 107.82 27.9473C107.807 27.959 107.8 27.9756 107.8 27.9962C107.8 28.0167 107.806 28.044 107.818 28.0782L109.011 31.2787C109.016 31.2954 109.025 31.313 109.04 31.3296C109.055 31.3462 109.071 31.3589 109.091 31.3657L108.627 32.5296C108.614 32.5589 108.61 32.5834 108.612 32.6039C108.614 32.6244 108.624 32.641 108.639 32.6547C108.655 32.6684 108.678 32.6772 108.707 32.6821C108.735 32.687 108.772 32.6889 108.815 32.6889C108.899 32.6889 108.961 32.6801 109 32.6616C109.038 32.643 109.064 32.6215 109.076 32.5941L109.533 31.3647L110.758 28.0773C110.77 28.046 110.777 28.0196 110.777 27.9991C110.777 27.9786 110.77 27.9619 110.755 27.9502C110.74 27.9375 110.718 27.9297 110.688 27.9248Z" fill="black"/>
<path d="M111.332 30.6943C111.214 30.6943 111.131 30.7168 111.085 30.7627C111.04 30.8087 111.016 30.9035 111.016 31.0461C111.016 31.1859 111.039 31.2787 111.084 31.3237C111.128 31.3686 111.208 31.3911 111.321 31.3911C111.439 31.3911 111.521 31.3677 111.567 31.3217C111.613 31.2758 111.637 31.181 111.637 31.0393C111.637 30.8996 111.614 30.8067 111.569 30.7618C111.524 30.7168 111.445 30.6943 111.332 30.6943Z" fill="black"/>
</g>
<defs>
<clipPath id="clip0_298_12710">
<rect width="115.182" height="40" fill="white"/>
</clipPath>
</defs>
</svg>
