<svg width="176" height="40" viewBox="0 0 176 40" fill="none" xmlns="http://www.w3.org/2000/svg">
<g clip-path="url(#clip0_311_507)">
<path d="M77.3254 12.5373C79.0681 12.5373 79.5214 14.06 79.5214 15.1173C79.5214 16.232 78.9334 17.616 78.4787 18.0573H83.3734C84.0454 17.2547 84.9001 15.2867 84.9001 13.724C84.8907 10.3653 82.6094 6.94533 77.1374 6.94533C72.6267 6.94533 69.0587 8.75867 68.4494 13.0027C67.9454 16.536 69.2547 19.4347 70.8854 22.2533C72.4494 24.9573 71.6801 26.5733 70.0627 26.5733C67.2347 26.568 67.0214 22.7067 67.0214 20.2H63.7321C63.3273 21.0311 63.0019 21.8985 62.7601 22.7907C62.3334 24.02 61.9334 26.5307 60.2587 26.5307C57.7827 26.5307 59.6281 22.216 60.5867 19.7307C61.5641 17.1933 64.4721 9.58 64.9774 8.184H55.4601C56.4334 9.944 55.9814 12.096 55.3147 12.9173C55.1894 11.6293 54.1347 8.084 48.1454 8.084C40.3907 8.084 35.8187 15.8307 34.1147 19.4853C29.2134 29.996 33.4187 37.1333 39.2281 37.1333C46.9254 37.1333 48.7014 30.7547 48.8707 30.14C48.8121 30.54 49.4414 37.1333 55.1667 37.1333C58.7854 37.1333 61.3681 35.036 63.2454 31.4493C64.3787 34.8573 67.6054 37.236 72.5841 37.236C79.7801 37.236 81.6454 32.052 81.6454 29.2213C81.6454 20.5787 74.9694 20.2013 74.9694 15.2147C74.9827 14.2093 75.5734 12.5373 77.3254 12.5373ZM52.4454 21.4067C50.8814 24.6733 48.2921 26.5267 45.5841 26.5267C41.7974 26.5267 40.5227 22.668 42.4014 19.0053C43.9454 15.9947 46.4827 13.8587 49.6814 13.8587C52.6414 13.8587 54.5587 17.0053 52.4454 21.4067ZM17.1481 26.5387C11.1881 26.5387 9.64273 19.208 11.5894 14.4253C13.4961 9.74267 16.8641 6.98533 20.9481 6.98533C27.2014 6.98533 26.1827 14.5093 26.1734 14.5187H32.2601C33.0974 12.084 34.0241 0 22.8734 0C15.6374 0 7.93873 5.092 3.20007 14.28C-3.76527 27.7627 1.30407 40 12.1187 40C18.5854 40 23.1107 37.3653 26.9907 31.0907C30.8707 24.8147 31.2001 20.104 31.2001 19.9293L25.3881 19.9133C25.3827 19.9507 23.9267 26.5387 17.1481 26.5387ZM167.304 26.5387C164.769 26.5387 167.017 22.216 167.959 19.724C168.969 17.0333 171.724 9.572 172.229 8.188H162.715C163.688 9.948 163.236 12.104 162.567 12.924C162.444 11.6373 161.387 8.092 155.4 8.092C147.645 8.092 143.071 15.8387 141.367 19.492C136.465 30.0053 140.249 37.1333 146.48 37.1333C154.179 37.1333 156.025 30.5693 156.123 30.14C155.987 30.904 156.928 37.1333 163.356 37.1333C174.059 37.1333 174.656 21.1307 174.656 21.1307L170.588 21.104C170.216 22.504 169.168 26.5387 167.304 26.5387ZM159.697 21.4173C158.133 24.6867 155.547 26.5373 152.836 26.5373C149.052 26.5373 147.775 22.6787 149.655 19.016C151.2 16.0067 153.735 13.8693 156.932 13.8693C159.885 13.8693 161.813 17.016 159.697 21.4173ZM137.549 8.18C137.213 8.98133 135.556 12.8627 133.272 17.944C131.165 22.6293 129.103 26.5387 126.301 26.5387C122.976 26.5387 123.483 22.9933 125.52 17.8853C127.715 12.4013 128.647 9.74 129.244 8.18H119.836C119.713 8.50533 116.107 18.212 115.781 19.0867C115.505 19.8253 114.235 22.628 113.863 24.772C113.589 26.3533 112.841 26.5387 112.191 26.5387C109.363 26.5387 111.216 22.6213 112.316 19.732C113.327 17.06 116.084 9.58 116.589 8.188H107.077C108.049 9.948 107.597 12.104 106.928 12.924C106.807 11.6373 105.748 8.092 99.7627 8.092C92.0067 8.092 87.4334 15.8387 85.7294 19.492C80.8267 30.0053 84.6107 37.1333 90.8414 37.1333C98.5401 37.1333 100.249 30.8227 100.484 30.14C100.361 30.9067 101.112 37.1333 107.549 37.1333C111.088 37.1333 114.064 33.7333 114.708 30.3267C114.997 33.4147 118.285 37.1533 122.495 37.1533C130.612 37.1533 133.523 31.7827 138.443 21.7C143.035 12.292 144.697 8.67333 144.935 8.17733L137.549 8.18ZM104.06 21.4173C102.496 24.6867 99.9081 26.5373 97.1974 26.5373C93.4147 26.5373 92.1374 22.6787 94.0161 19.016C95.5614 16.0067 98.0961 13.8693 101.295 13.8693C104.24 13.8693 106.175 17.016 104.06 21.4173Z" fill="#FF147D"/>
</g>
<defs>
<clipPath id="clip0_311_507">
<rect width="176" height="40" fill="white"/>
</clipPath>
</defs>
</svg>
