<svg width="146" height="40" viewBox="0 0 146 40" fill="none" xmlns="http://www.w3.org/2000/svg">
<path d="M137.179 16.5788V22.9196C137.179 29.6928 134.476 32.4557 127.849 32.4557H119.189V7.04273H127.849C134.388 7.04273 137.179 9.89453 137.179 16.5788ZM128.004 0.802734H112.176V38.6957H128.004C139.174 38.6957 144.604 32.5063 144.604 19.7751C144.604 7.00849 139.174 0.802734 128.004 0.802734Z" fill="black"/>
<path d="M0.719238 38.6957H7.73276V24.7247H24.6418V18.7426H7.73276V7.04273H26.7037V0.802734H0.719238V38.6957Z" fill="black"/>
<path d="M26.8633 39.281H33.867L44.9044 0.802734H37.9007L26.8633 39.281Z" fill="black"/>
<path d="M50.0186 38.6957H76.2091V32.4557H57.0315V22.0445H73.6315V16.165H57.0315V7.04273H76.2091V0.802734H50.0186V38.6957Z" fill="black"/>
<path d="M90.1792 0.802734H83.166V38.6957H106.573V32.3524H90.1792V0.802734Z" fill="black"/>
</svg>
