<svg width="149" height="40" viewBox="0 0 149 40" fill="none" xmlns="http://www.w3.org/2000/svg">
<g clip-path="url(#clip0_311_491)">
<mask id="mask0_311_491" style="mask-type:luminance" maskUnits="userSpaceOnUse" x="0" y="0" width="149" height="40">
<path d="M148.014 0H0V40H148.014V0Z" fill="white"/>
</mask>
<g mask="url(#mask0_311_491)">
<path d="M67.7152 22.8012C66.0673 30.2021 61.3032 31.7601 57.5579 31.7601C51.086 31.7601 47.041 27.0261 47.041 19.4455C47.041 11.8649 51.086 7.13086 57.5579 7.13086C62.8613 7.13086 66.3669 10.1571 67.7152 15.8799C67.7506 15.9836 67.7552 16.0953 67.7286 16.2016C67.702 16.3079 67.6453 16.4043 67.5654 16.4792C67.5019 16.5505 67.4232 16.6063 67.3349 16.6428C67.2466 16.6791 67.1513 16.6949 67.056 16.6889H63.6703C63.492 16.7059 63.3142 16.6529 63.1743 16.5411C63.0346 16.4292 62.9437 16.2673 62.9212 16.0896C62.3819 12.8837 60.5242 11.2058 57.5579 11.2058C53.9024 11.2058 51.7752 14.202 51.7752 19.4455C51.7752 24.6889 53.9324 27.6852 57.5579 27.6852C60.4942 27.6852 62.3819 25.8873 62.9212 22.6215C62.9437 22.4439 63.0346 22.2821 63.1743 22.1702C63.3142 22.0583 63.492 22.0052 63.6703 22.0222H67.056C67.1513 22.0163 67.2466 22.0321 67.3349 22.0683C67.4232 22.1048 67.5019 22.1606 67.5654 22.2319C67.6399 22.3042 67.6932 22.3955 67.7196 22.4958C67.746 22.5961 67.7444 22.7018 67.7152 22.8012Z" fill="#332089"/>
<path d="M85.7524 14.0825H82.4265C82.2358 14.0825 82.053 14.1583 81.9181 14.2931C81.7832 14.428 81.7074 14.6109 81.7074 14.8016V15.5507C80.8085 14.3223 79.4004 13.7529 77.3628 13.7529C72.3591 13.7529 69.2729 17.2586 69.2729 22.9214C69.2729 28.5844 72.2992 31.7604 77.3628 31.7604C79.4004 31.7604 80.8085 31.2211 81.7074 30.1124V30.7117C81.7074 30.9024 81.7832 31.0854 81.9181 31.2203C82.053 31.3551 82.2358 31.4309 82.4265 31.4309H85.7524C85.9431 31.4309 86.126 31.3551 86.2608 31.2203C86.3957 31.0854 86.4715 30.9024 86.4715 30.7117V14.8016C86.4715 14.6109 86.3957 14.428 86.2608 14.2931C86.126 14.1583 85.9431 14.0825 85.7524 14.0825ZM77.9022 28.0151C75.4752 28.0151 74.037 26.0976 74.037 22.9214C74.037 19.7454 75.5351 17.4983 77.9022 17.4983C80.2692 17.4983 81.7074 19.6256 81.7074 22.9214C81.7074 26.2173 80.2992 28.0151 77.9022 28.0151Z" fill="#332089"/>
<path d="M96.7492 17.6781V27.0564C96.7492 27.476 96.929 27.6857 97.3484 27.6857H100.614C100.707 27.6855 100.8 27.7044 100.885 27.7408C100.971 27.7773 101.048 27.8308 101.113 27.898C101.177 27.9653 101.227 28.0447 101.26 28.1318C101.293 28.219 101.308 28.3118 101.303 28.4048V30.7118C101.308 30.8048 101.293 30.8977 101.26 30.9848C101.227 31.072 101.177 31.1514 101.113 31.2187C101.048 31.2858 100.971 31.3393 100.885 31.3758C100.8 31.4123 100.707 31.4311 100.614 31.431H96.6893C93.8429 31.431 92.0152 29.5733 92.0152 26.7268V17.7081L90.0974 17.828C89.9996 17.8367 89.9009 17.8243 89.808 17.7915C89.7153 17.759 89.6306 17.7068 89.5596 17.6387C89.4886 17.5705 89.433 17.488 89.3966 17.3967C89.3602 17.3053 89.3437 17.2071 89.3484 17.1088V14.8018C89.3442 14.7063 89.3599 14.6108 89.3944 14.5217C89.4292 14.4324 89.482 14.3515 89.5496 14.2838C89.6173 14.2162 89.6983 14.1634 89.7874 14.1287C89.8766 14.0941 89.972 14.0784 90.0676 14.0827L92.0152 14.2325V10.8168C92.011 10.7238 92.0259 10.6309 92.0587 10.5438C92.0916 10.4567 92.1416 10.3772 92.206 10.31C92.2704 10.2428 92.3477 10.1893 92.4334 10.1528C92.519 10.1163 92.6112 10.0976 92.7043 10.0977H96.03C96.2209 10.0977 96.4037 10.1734 96.5386 10.3083C96.6735 10.4431 96.7492 10.626 96.7492 10.8168V14.2325L100.584 14.0827C100.68 14.0784 100.775 14.0941 100.865 14.1287C100.954 14.1634 101.035 14.2162 101.102 14.2838C101.17 14.3515 101.223 14.4324 101.257 14.5217C101.292 14.6108 101.308 14.7063 101.303 14.8018V17.1088C101.308 17.2018 101.293 17.2947 101.26 17.3818C101.227 17.469 101.177 17.5484 101.113 17.6157C101.048 17.6828 100.971 17.7363 100.885 17.7728C100.8 17.8093 100.707 17.8281 100.614 17.828L96.7492 17.6781Z" fill="#332089"/>
<path d="M108.615 8.18004V30.7118C108.615 30.9026 108.539 31.0856 108.404 31.2204C108.269 31.3553 108.086 31.431 107.896 31.431H104.57C104.477 31.4311 104.384 31.4123 104.299 31.3758C104.213 31.3393 104.136 31.2858 104.071 31.2187C104.007 31.1514 103.957 31.072 103.924 30.9848C103.891 30.8977 103.876 30.8048 103.881 30.7118V8.18004C103.876 8.08705 103.891 7.99421 103.924 7.90711C103.957 7.82001 104.007 7.74047 104.071 7.67327C104.136 7.60607 104.213 7.55261 104.299 7.51611C104.384 7.47962 104.477 7.46085 104.57 7.46094H107.896C108.086 7.46094 108.269 7.53671 108.404 7.67157C108.539 7.80642 108.615 7.98932 108.615 8.18004Z" fill="#332089"/>
<path d="M120.269 13.7529C114.966 13.7529 111.82 17.1687 111.82 22.9214C111.82 28.6743 114.906 31.7604 120.269 31.7604C125.633 31.7604 128.659 28.5244 128.659 22.9214C128.659 17.3184 125.513 13.7529 120.269 13.7529ZM120.269 28.0151C118.531 28.0151 116.554 27.4459 116.554 22.9214C116.554 19.266 117.782 17.4983 120.269 17.4983C122.756 17.4983 123.925 19.266 123.925 22.9214C123.925 27.4459 121.977 28.0151 120.269 28.0151Z" fill="#332089"/>
<path d="M147.326 14.0825H144C143.904 14.0783 143.808 14.094 143.72 14.1286C143.63 14.1632 143.55 14.216 143.481 14.2837C143.414 14.3513 143.361 14.4323 143.327 14.5214C143.291 14.6107 143.276 14.706 143.28 14.8016V15.8503C142.352 14.472 140.913 13.7529 138.996 13.7529C133.603 13.7529 130.876 16.8391 130.876 22.9214C130.876 28.4046 133.543 31.1013 138.996 31.1013C140.943 31.1013 142.352 30.502 143.28 29.3034V31.0713C143.28 33.5881 142.202 34.6369 139.655 34.6369C137.677 34.6369 136.479 33.9177 136.479 32.7193C136.479 32.5364 136.406 32.3611 136.277 32.232C136.148 32.1027 135.973 32.0301 135.79 32.0301H132.464C132.371 32.026 132.278 32.0409 132.191 32.0737C132.104 32.1066 132.024 32.1566 131.957 32.221C131.89 32.2854 131.837 32.3627 131.8 32.4484C131.764 32.534 131.745 32.6261 131.745 32.7193C131.745 36.914 136 38.3821 139.655 38.3821C145.288 38.3821 148.014 35.9851 148.014 31.0713V14.8016C148.018 14.7086 148.004 14.6159 147.971 14.5287C147.938 14.4416 147.888 14.362 147.824 14.2949C147.76 14.2276 147.681 14.1742 147.596 14.1377C147.511 14.1012 147.418 14.0824 147.326 14.0825ZM143.28 22.0226V23.7004C143.071 26.1874 141.782 27.356 139.325 27.356C136.868 27.356 135.64 26.0376 135.64 22.9214C135.64 19.326 136.868 17.4983 139.325 17.4983C141.782 17.4983 143.041 19.1163 143.28 22.0226Z" fill="#332089"/>
<path d="M31.1311 0H8.86891C3.97074 0 0 3.97074 0 8.86891V31.1221C0 36.0203 3.97074 39.991 8.86891 39.991H31.1311C36.0293 39.991 40 36.0203 40 31.1221V8.86891C40 3.97074 36.0293 0 31.1311 0Z" fill="#332089"/>
<path d="M29.693 19.5352H10.3072C9.66184 19.5352 9.13867 20.0583 9.13867 20.7037V22.7112C9.13867 23.3566 9.66184 23.8797 10.3072 23.8797H29.693C30.3383 23.8797 30.8616 23.3566 30.8616 22.7112V20.7037C30.8616 20.0583 30.3383 19.5352 29.693 19.5352Z" fill="white"/>
<path d="M29.9218 12.9848L10.8306 9.61853C10.195 9.50647 9.58897 9.93085 9.4769 10.5664L9.1283 12.5434C9.01623 13.179 9.44061 13.785 10.0762 13.8971L29.1674 17.2635C29.803 17.3755 30.4091 16.951 30.5211 16.3155L30.8697 14.3385C30.9818 13.703 30.5574 13.0969 29.9218 12.9848Z" fill="white"/>
<path d="M29.693 26.0371H10.3072C9.66184 26.0371 9.13867 26.5603 9.13867 27.2057V29.2131C9.13867 29.8585 9.66184 30.3817 10.3072 30.3817H29.693C30.3383 30.3817 30.8616 29.8585 30.8616 29.2131V27.2057C30.8616 26.5603 30.3383 26.0371 29.693 26.0371Z" fill="white"/>
</g>
</g>
<defs>
<clipPath id="clip0_311_491">
<rect width="148.571" height="40" fill="white"/>
</clipPath>
</defs>
</svg>
