<svg width="126" height="40" viewBox="0 0 126 40" fill="none" xmlns="http://www.w3.org/2000/svg">
<g clip-path="url(#clip0_298_12983)">
<path d="M34.7504 33.5228C35.4088 30.3832 35.2007 27.4159 33.6584 24.6323C32.1359 21.8806 29.8978 19.9131 26.9115 18.7342C27.0639 18.546 27.1599 18.4088 27.2742 18.2877C31.0416 14.2993 29.8376 7.97677 24.8121 5.71661C23.7887 5.25635 22.6 4.99117 21.479 4.96069C18.069 4.86315 14.6521 4.92335 11.2382 4.9264C10.2255 4.92792 9.70886 5.43772 9.70886 6.43749C9.70581 10.9509 9.72105 15.4636 9.69362 19.9771C9.69057 20.6477 9.91232 20.8374 10.5593 20.8305C14.4997 20.7909 18.4386 20.7604 22.379 20.7703C25.6435 20.7787 28.3045 22.0825 30.3375 24.646C33.7338 28.9285 32.5977 35.616 27.8579 38.3502C26.532 39.1152 24.8997 39.4741 23.3597 39.7279C14.2139 41.2215 5.49793 36.484 1.71297 28.0514C-3.76062 15.8523 4.49511 1.48435 17.7649 0.117285C28.6032 -0.999838 38.0271 5.9658 39.8582 16.6379C40.9174 22.8095 39.321 28.3654 35.2297 33.1616C35.1489 33.2576 35.0621 33.3483 34.9698 33.4336C34.9371 33.4626 34.8822 33.4709 34.7511 33.5228H34.7504Z" fill="#0D4740"/>
<path d="M12.5855 12.8304C12.5855 11.378 12.6007 9.92331 12.5771 8.47243C12.5687 7.96568 12.7143 7.75917 13.2546 7.76375C16.0382 7.78584 18.8226 7.74165 21.6063 7.78737C24.2962 7.83157 26.4421 10.0376 26.5869 12.5645C26.7545 15.4815 24.265 17.8499 21.7016 17.9169C18.8699 17.9924 16.0344 17.9268 13.2012 17.9459C12.6808 17.9489 12.5733 17.7249 12.5786 17.2669C12.5977 15.7848 12.5855 14.3065 12.5855 12.8304Z" fill="#0C4740"/>
<path d="M52.3317 26.5531H44.2787V13.249H51.9279C52.8087 13.249 53.5388 13.3717 54.1202 13.6163C54.7008 13.8617 55.1382 14.2221 55.4316 14.6984C55.725 15.1747 55.8721 15.7637 55.8721 16.4655C55.8721 17.3129 55.6458 18.0109 55.1931 18.5603C54.7405 19.1097 53.9701 19.4176 52.8819 19.4839V19.6828C54.0798 19.7491 54.9698 20.0668 55.5513 20.6361C56.1319 21.2053 56.423 21.9467 56.423 22.8604C56.423 23.6018 56.279 24.2503 55.9917 24.8066C55.7044 25.3629 55.2609 25.7926 54.662 26.0975C54.0623 26.4023 53.2865 26.5539 52.3325 26.5539L52.3317 26.5531ZM47.4525 16.3665V18.3721H51.5796C51.9835 18.3721 52.2647 18.2966 52.4232 18.1442C52.5817 17.9918 52.6617 17.7373 52.6617 17.3799C52.6617 17.0226 52.5725 16.7642 52.3957 16.6057C52.2182 16.4472 51.9218 16.3672 51.5057 16.3672H47.4517L47.4525 16.3665ZM47.4525 21.232V23.4357H51.9286C52.3934 23.4357 52.7173 23.3565 52.9009 23.1972C53.0846 23.0379 53.176 22.7476 53.176 22.3232C53.176 21.8987 53.0869 21.6114 52.9101 21.4598C52.7325 21.3074 52.4056 21.2312 51.9286 21.2312H47.4525V21.232Z" fill="#0D4740"/>
<path d="M58.9591 16.0639H58.5643C57.7871 16.0639 57.1569 15.4337 57.1569 14.6565C57.1569 13.8792 57.7871 13.249 58.5643 13.249H58.9591C59.7363 13.249 60.3665 13.8792 60.3665 14.6565C60.3665 15.4337 59.7363 16.0639 58.9591 16.0639ZM60.3665 26.5531H57.1561V16.5653H60.3665V26.5531Z" fill="#0D4740"/>
<path d="M68.2541 19.4242H60.8983V16.5651H68.2541V19.4242ZM68.2541 26.5529H65.888C64.7625 26.5529 63.8793 26.2519 63.237 25.6492C62.5946 25.0472 62.2738 24.1038 62.2738 22.819V13.9148L65.4842 13.248V22.3428C65.4842 22.7794 65.5665 23.0713 65.7318 23.216C65.8964 23.3616 66.1867 23.4347 66.6036 23.4347H68.2541V26.5522V26.5529Z" fill="#0D4740"/>
<path d="M72.2532 26.5527H69.0428V16.5649H72.0513V19.6427L72.2532 19.7418V26.5527ZM79.2242 26.5527H76.0138V21.4494C76.0138 20.708 75.885 20.1921 75.6282 19.9002C75.3714 19.6092 74.8639 19.4636 74.1057 19.4636C73.3475 19.4636 72.8644 19.6122 72.6198 19.9102C72.3752 20.2081 72.2525 20.7141 72.2525 21.4289H71.9042L71.6474 19.6023H72.2159C72.2891 19.046 72.4453 18.5233 72.6838 18.0333C72.9223 17.5433 73.2766 17.1433 73.7476 16.8316C74.2177 16.5207 74.8388 16.3652 75.6092 16.3652C76.3796 16.3652 77.0707 16.5413 77.5721 16.8918C78.0736 17.2431 78.4462 17.7094 78.6908 18.2916C78.9354 18.8746 79.0573 19.5162 79.0573 20.218H79.2227V26.5527H79.2242ZM86.1952 26.5527H83.0031V21.4494C83.0031 20.708 82.8712 20.1921 82.6083 19.9002C82.3454 19.6092 81.841 19.4636 81.095 19.4636C80.3489 19.4636 79.8353 19.6122 79.5907 19.9102C79.3461 20.2081 79.2234 20.7141 79.2234 21.4289H78.8752L78.6184 19.6023H79.2052C79.2783 19.046 79.4376 18.5233 79.6822 18.0333C79.9268 17.5433 80.2933 17.1433 80.7825 16.8316C81.2718 16.5207 81.9134 16.3652 82.7089 16.3652C83.5045 16.3652 84.1583 16.5344 84.6719 16.872C85.1855 17.2096 85.568 17.666 85.8187 18.2421C86.0694 18.8182 86.1952 19.4766 86.1952 20.218V26.5527Z" fill="#0D4740"/>
<path d="M90.1935 26.752C89.1785 26.752 88.3867 26.5104 87.8183 26.0273C87.2498 25.5442 86.9656 24.879 86.9656 24.0316C86.9656 23.5553 87.0723 23.1316 87.2864 22.7605C87.5005 22.3902 87.8274 22.0923 88.2679 21.8675C88.7083 21.6427 89.2707 21.4903 89.955 21.4102L93.9541 20.9934V22.9198L90.7985 23.3168C90.5905 23.3305 90.4381 23.3801 90.3398 23.4662C90.2415 23.5523 90.1927 23.6681 90.1927 23.8137C90.1927 24.0125 90.272 24.1482 90.4312 24.2206C90.5897 24.293 90.8283 24.3295 91.1468 24.3295C91.7701 24.3295 92.2746 24.2831 92.6602 24.1909C93.0457 24.0987 93.3269 23.9363 93.5037 23.7039C93.6805 23.4723 93.7697 23.1446 93.7697 22.7209L94.0265 22.6615V24.389H93.7697C93.586 25.1175 93.1981 25.6936 92.6045 26.1165C92.0109 26.5402 91.207 26.752 90.192 26.752H90.1935ZM96.9442 26.5531H93.9541V24.2693H93.7704V20.7351C93.7704 20.1788 93.6416 19.8184 93.3848 19.653C93.128 19.4877 92.6693 19.4046 92.0094 19.4046C91.3975 19.4046 90.97 19.4907 90.7254 19.6629C90.4808 19.8351 90.3589 20.159 90.3589 20.636V20.716H87.1485V20.6764C87.1485 19.8031 87.3595 19.0449 87.7809 18.4025C88.2031 17.7609 88.796 17.261 89.5603 16.9037C90.3246 16.5463 91.2207 16.3672 92.2479 16.3672C93.2751 16.3672 94.1888 16.5493 94.8799 16.9136C95.5703 17.2778 96.0877 17.7876 96.4299 18.4429C96.772 19.0983 96.9435 19.8824 96.9435 20.7961V26.5546L96.9442 26.5531Z" fill="#0D4740"/>
<path d="M101.2 26.5527H97.9897V16.5649H100.998V19.6427L101.2 19.7418V26.5527ZM108.17 26.5527H104.96V21.4494C104.96 20.708 104.831 20.1921 104.574 19.9002C104.318 19.6092 103.81 19.4636 103.052 19.4636C102.294 19.4636 101.811 19.6122 101.566 19.9102C101.321 20.2081 101.199 20.7141 101.199 21.4289H100.85L100.594 19.6023H101.162C101.235 19.046 101.391 18.5233 101.63 18.0333C101.868 17.5433 102.223 17.1433 102.694 16.8316C103.164 16.5207 103.785 16.3652 104.555 16.3652C105.326 16.3652 106.017 16.5413 106.518 16.8918C107.02 17.2431 107.392 17.7094 107.637 18.2916C107.882 18.8746 108.003 19.5162 108.003 20.218H108.169V26.5527H108.17ZM115.141 26.5527H111.949V21.4494C111.949 20.708 111.817 20.1921 111.554 19.9002C111.292 19.6092 110.787 19.4636 110.041 19.4636C109.295 19.4636 108.781 19.6122 108.537 19.9102C108.292 20.2081 108.17 20.7141 108.17 21.4289H107.821L107.565 19.6023H108.151C108.224 19.046 108.384 18.5233 108.628 18.0333C108.873 17.5433 109.239 17.1433 109.729 16.8316C110.218 16.5207 110.86 16.3652 111.655 16.3652C112.451 16.3652 113.104 16.5344 113.618 16.872C114.132 17.2096 114.514 17.666 114.765 18.2421C115.016 18.8182 115.141 19.4766 115.141 20.218V26.5527Z" fill="#0D4740"/>
<path d="M119.14 26.752C118.125 26.752 117.333 26.5104 116.764 26.0273C116.196 25.5442 115.912 24.879 115.912 24.0316C115.912 23.5553 116.018 23.1316 116.233 22.7605C116.447 22.3902 116.774 22.0923 117.214 21.8675C117.654 21.6427 118.217 21.4903 118.901 21.4102L122.9 20.9934V22.9198L119.745 23.3168C119.537 23.3305 119.384 23.3801 119.286 23.4662C119.188 23.5523 119.139 23.6681 119.139 23.8137C119.139 24.0125 119.218 24.1482 119.377 24.2206C119.536 24.293 119.774 24.3295 120.093 24.3295C120.716 24.3295 121.221 24.2831 121.606 24.1909C121.992 24.0987 122.273 23.9363 122.45 23.7039C122.627 23.4723 122.716 23.1446 122.716 22.7209L122.973 22.6615V24.389H122.716C122.532 25.1175 122.144 25.6936 121.551 26.1165C120.957 26.5402 120.153 26.752 119.138 26.752H119.14ZM125.89 26.5531H122.9V24.2693H122.717V20.7351C122.717 20.1788 122.588 19.8184 122.331 19.653C122.074 19.4877 121.615 19.4046 120.956 19.4046C120.344 19.4046 119.916 19.4907 119.672 19.6629C119.427 19.8351 119.305 20.159 119.305 20.636V20.716H116.095V20.6764C116.095 19.8031 116.306 19.0449 116.727 18.4025C117.149 17.7609 117.742 17.261 118.506 16.9037C119.271 16.5463 120.167 16.3672 121.194 16.3672C122.221 16.3672 123.135 16.5493 123.826 16.9136C124.516 17.2778 125.034 17.7876 125.376 18.4429C125.718 19.0983 125.89 19.8824 125.89 20.7961V26.5546L125.89 26.5531Z" fill="#0D4740"/>
</g>
<defs>
<clipPath id="clip0_298_12983">
<rect width="125.89" height="40" fill="white"/>
</clipPath>
</defs>
</svg>
