<svg width="143" height="40" viewBox="0 0 143 40" fill="none" xmlns="http://www.w3.org/2000/svg">
<g clip-path="url(#clip0_291_3626)">
<path fill-rule="evenodd" clip-rule="evenodd" d="M120.264 33.8408C119.683 33.6553 119.176 33.4408 118.747 33.1963L116.724 38.6199C117.628 39.0244 118.566 39.3488 119.528 39.5894C120.508 39.8338 121.581 39.956 122.746 39.956C124.585 39.956 126.187 39.5713 127.552 38.8053C128.917 38.0394 129.998 36.7185 130.793 34.8505L142.014 8.27687H133.738L129.232 21.3769L124.681 8.27687H115.943L125.462 29.7449L124.175 32.6456C123.927 33.197 123.627 33.5776 123.276 33.7921C122.924 34.0074 122.458 34.1144 121.874 34.1144C121.385 34.1144 120.849 34.0255 120.264 33.8408ZM107.401 20.6664C107.86 20.622 108.322 20.581 108.78 20.5519V24.7359C108.381 25.0421 107.94 25.29 107.471 25.472C106.994 25.6567 106.469 25.7456 105.884 25.7456C105.089 25.7456 104.467 25.5421 104.023 25.1276C103.579 24.7137 103.353 24.1845 103.353 23.5408C103.353 22.9269 103.553 22.3685 103.953 21.8616C104.353 21.3581 105.026 21.0255 105.976 20.8734C106.448 20.7833 106.923 20.7142 107.401 20.6664ZM109.287 28.9651L109.931 30.7144H116.69V16.5526C116.69 13.5484 115.817 11.3324 114.067 9.90812C112.321 8.47964 109.976 7.76923 107.035 7.76923C104.919 7.76923 103.102 8.07687 101.585 8.69076C100.081 9.29396 98.6897 10.1485 97.4714 11.2178L101.056 15.2171C101.752 14.661 102.517 14.197 103.331 13.8366C104.124 13.4986 104.978 13.3275 105.839 13.3338C106.635 13.3338 107.327 13.5484 107.908 13.9776C108.489 14.4067 108.78 15.0796 108.78 16.0012V16.5526C108.005 16.5884 107.231 16.6414 106.458 16.7116C105.543 16.7975 104.631 16.9133 103.724 17.0588C102.686 17.2012 101.668 17.4633 100.69 17.8401C99.7388 18.206 98.9027 18.6831 98.1818 19.2637C97.4694 19.8369 96.8899 20.5579 96.4832 21.3769C96.0694 22.2053 95.8617 23.1748 95.8617 24.2769C95.8617 25.3498 96.043 26.3005 96.4131 27.1255C96.7689 27.9393 97.2934 28.6684 97.952 29.2644C98.611 29.8637 99.3874 30.3151 100.276 30.622C101.163 30.9248 102.129 31.0803 103.172 31.0803C104.552 31.0803 105.762 30.8734 106.805 30.4588C107.845 30.0484 108.674 29.5491 109.287 28.9644V28.9651ZM60.102 2.60812L70.0464 30.7137H76.1617L79.6541 18.9415L83.1951 30.7137H89.3548L97.3124 8.27617H89.0805L85.7693 20.1845L82.3214 8.27548H77.0791L73.6312 20.1852L67.8826 2.60881H60.102V2.60812ZM45.8589 8.27548V13.8845H49.0326V23.7248C49.0326 24.8567 49.1478 25.8817 49.377 26.8033C49.6062 27.7241 49.9985 28.5046 50.5506 29.1484C51.1013 29.7921 51.8298 30.2921 52.7326 30.6435C53.6388 30.9949 54.7492 31.1727 56.0659 31.1727C57.6312 31.1727 59.0034 30.9873 60.1839 30.6213C61.3638 30.2512 62.4589 29.7185 63.4687 29.0116L61.4006 24.1359C60.9779 24.4582 60.5229 24.7358 60.043 24.9644C59.5504 25.2072 59.0088 25.3338 58.4596 25.3345C57.8749 25.3345 57.5013 25.1199 57.3312 24.6908C57.1645 24.2616 57.0798 23.6623 57.0798 22.8963V13.8852H62.477L60.4909 8.27617H57.0798V2.61992H49.0333V8.27617H45.8589V8.27548ZM37.4242 13.9067C38.0527 14.5942 38.4117 15.5387 38.5041 16.7366H31.5159C31.6381 15.5713 32.0451 14.6352 32.7332 13.929C33.4249 13.2262 34.2277 12.8706 35.1485 12.8706C36.0367 12.8706 36.7951 13.2178 37.4242 13.9067ZM32.7812 24.1616C31.9673 23.4109 31.5312 22.3602 31.468 21.0095H46.0444C46.0145 16.504 45.0117 13.1706 43.0326 11.0095C41.0569 8.84978 38.3971 7.76923 35.0562 7.76923C33.4326 7.76923 31.9228 8.02826 30.5284 8.54978C29.1332 9.07131 27.9312 9.83728 26.9173 10.8505C25.9034 11.8609 25.1083 13.0928 24.5277 14.5505C23.943 16.0081 23.6541 17.6685 23.6541 19.5408C23.6541 21.472 23.9576 23.163 24.5714 24.6206C25.186 26.0741 26.0145 27.2873 27.0576 28.2498C28.0971 29.2192 29.3145 29.9477 30.7131 30.4359C32.1076 30.9248 33.5985 31.172 35.193 31.172C36.5103 31.172 37.6978 31.0651 38.7555 30.8505C39.8138 30.6359 40.7499 30.329 41.5603 29.9296C42.3296 29.5599 43.0554 29.1057 43.7242 28.5755C44.3534 28.0685 44.9117 27.5095 45.4041 26.8956L40.4833 23.0331C39.8652 23.7991 39.1999 24.3692 38.4819 24.7345C37.7603 25.1053 36.8951 25.2866 35.8846 25.2866C34.6277 25.2866 33.5916 24.913 32.7805 24.1616H32.7812ZM9.05547 25.2206C8.73325 25.172 8.40061 25.106 8.06381 25.0095V14.1588C8.43395 14.0366 8.79992 13.9366 9.17006 13.863C9.56313 13.7832 9.96343 13.7446 10.3645 13.7477C11.652 13.7477 12.718 14.2067 13.561 15.1241C14.4013 16.0456 14.8228 17.4699 14.8228 19.4012C14.8228 21.3949 14.3937 22.8748 13.5353 23.8408C12.677 24.806 11.5596 25.2866 10.1798 25.2866C9.75061 25.2866 9.377 25.2644 9.05478 25.2206H9.05547ZM10.0208 7.92895C9.35903 8.03024 8.70515 8.17735 8.06381 8.36923V0.0449219H0.020752V29.3783C1.39714 29.9005 2.89922 30.3366 4.52353 30.6887C6.15131 31.0435 7.97492 31.2213 9.99506 31.2213C11.8333 31.2213 13.5277 30.9734 15.0784 30.4852C16.6242 29.9928 17.9673 29.2491 19.0992 28.2505C20.2353 27.2588 21.1159 25.9935 21.7451 24.4588C22.3735 22.9269 22.6881 21.1178 22.6881 19.0352C22.6881 17.4699 22.4589 16.0012 21.9964 14.6213C21.5381 13.2414 20.8714 12.0463 19.9985 11.0331C19.1256 10.0227 18.0416 9.22409 16.7541 8.64284C15.4666 8.06228 14.0124 7.76992 12.3888 7.76992C11.4971 7.76992 10.7083 7.82131 10.0208 7.92895Z" fill="black"/>
</g>
<defs>
<clipPath id="clip0_291_3626">
<rect width="142.014" height="40" fill="white"/>
</clipPath>
</defs>
</svg>
