<svg width="90" height="40" viewBox="0 0 90 40" fill="none" xmlns="http://www.w3.org/2000/svg">
<g clip-path="url(#clip0_298_12468)">
<path d="M15.8617 29.6296V26.9015C15.3541 27.7897 14.5293 28.5511 13.3873 29.1221C12.2452 29.6931 10.9129 30.0103 9.39012 30.0103C7.99429 30.0103 6.72536 29.7565 5.58332 29.3124C4.44128 28.8683 3.42613 28.1704 2.60132 27.2821C1.83996 26.4573 1.20549 25.3787 0.697915 24.1097C0.253787 22.8408 0 21.4451 0 19.8588C0 18.3361 0.253787 16.8768 0.697915 15.6713C1.14204 14.4024 1.83996 13.3238 2.66476 12.4356C3.48957 11.5473 4.50472 10.9129 5.64676 10.4053C6.78881 9.96115 8.05775 9.70736 9.45357 9.70736C10.9129 9.70736 12.1818 9.96115 13.2604 10.4687C14.3389 10.9763 15.1004 11.6108 15.6713 12.3721V0H19.9223V29.6296H15.8617ZM10.088 13.3873C9.26323 13.3873 8.50187 13.5141 7.80396 13.8315C7.10604 14.0852 6.47157 14.5293 5.964 15.1004C5.45643 15.6713 5.07575 16.3693 4.75851 17.1307C4.44128 17.9555 4.31439 18.8437 4.31439 19.9223C4.31439 20.9375 4.44128 21.8892 4.75851 22.714C5.07575 23.4753 5.45643 24.1097 5.964 24.6808C6.47157 25.2519 7.10604 25.6325 7.80396 25.9497C8.50187 26.2035 9.26323 26.3939 10.088 26.3939C11.6742 26.3939 13.0066 25.8863 14.0852 24.8712C15.1004 23.856 15.6713 22.3967 15.6713 20.4299V19.4147C15.6713 17.5113 15.1637 15.9885 14.0852 14.9735C13.07 13.8948 11.7377 13.3873 10.088 13.3873Z" fill="#3F7CDB"/>
<path d="M49.9964 32.1038C49.9964 34.4514 49.362 36.2914 48.0296 37.6237C46.6972 38.9561 44.9207 39.5906 42.7 39.5906C42.3193 39.5906 42.0656 39.5906 41.8117 39.5906C41.558 39.5906 41.3043 39.5271 40.9869 39.4637V35.7203C41.3043 35.7838 41.7484 35.8473 42.1925 35.8473C43.2711 35.8473 44.0959 35.5299 44.7304 34.8955C45.3648 34.261 45.682 33.3727 45.682 32.1673V10.0878H49.9329V32.1038H49.9964ZM49.9964 5.9638H45.7455V1.64941H49.9964V5.9638Z" fill="#3F7CDB"/>
<path d="M61.0993 9.70703C63.6372 9.70703 65.604 10.3415 66.9364 11.6739C68.2688 13.0063 68.9667 14.9097 68.9667 17.4476V29.6293H64.6523V27.9163C63.9544 28.5507 63.1931 29.1217 62.3048 29.5024C61.4165 29.8831 60.4648 30.0735 59.3228 30.0735C57.3559 30.0735 55.7697 29.5659 54.5642 28.6141C53.3588 27.5991 52.7877 26.2032 52.7877 24.3632C52.7877 23.3481 52.9781 22.4599 53.3588 21.6985C53.7395 21.0005 54.247 20.3661 54.8814 19.922C55.516 19.4779 56.2773 19.0972 57.1656 18.8433C58.0539 18.5896 59.0056 18.4627 59.9572 18.3992L64.5889 18.1455V17.5744C64.5889 16.3055 64.3351 15.2904 63.764 14.5924C63.1931 13.8945 62.3048 13.5139 61.0993 13.5139C59.8939 13.5139 59.0056 13.8311 58.4345 14.5289C57.8635 15.1635 57.6097 15.9883 57.6097 16.8765L53.2953 16.6227C53.2953 15.7345 53.4857 14.9097 53.8029 14.0848C54.1836 13.2601 54.6912 12.4987 55.3256 11.8642C55.9601 11.2298 56.7849 10.7222 57.8 10.2781C58.8152 9.96082 59.8939 9.70703 61.0993 9.70703ZM60.5917 21.6985C59.5765 21.7619 58.7517 21.9523 58.1173 22.3329C57.4828 22.7136 57.1656 23.3481 57.1656 24.2364C57.1656 25.0612 57.4193 25.6321 57.9904 25.9495C58.5615 26.2667 59.2593 26.4569 60.0841 26.4569C61.48 26.4569 62.5585 26.1397 63.4468 25.4419C64.2716 24.7439 64.7157 23.6653 64.7157 22.1427V21.4447L60.5917 21.6985Z" fill="#3F7CDB"/>
<path d="M76.2633 12.3087C76.7073 11.6108 77.4053 11.0397 78.2936 10.5322C79.1819 10.0246 80.3239 9.7708 81.7197 9.7708C82.8617 9.7708 83.8769 9.96115 84.7652 10.3418C85.7168 10.7225 86.4783 11.2301 87.1761 11.928C87.874 12.6259 88.3816 13.4507 88.7623 14.4659C89.1429 15.4811 89.3333 16.6231 89.3333 17.892V29.6931H85.0189V18.4631C85.0189 17.0037 84.6383 15.7983 83.8769 14.9735C83.1155 14.1487 82.0369 13.7045 80.768 13.7045C79.3721 13.7045 78.2936 14.1487 77.4688 15.0369C76.644 15.9252 76.1999 17.0672 76.1999 18.4631V29.6296H71.9489V0H76.1999V12.3087H76.2633Z" fill="#3F7CDB"/>
<path d="M41.6849 14.4021L38.2588 10.976C37.4975 10.2146 36.4189 9.77051 35.3403 9.77051H29.9473C28.8687 9.77051 27.7901 10.2146 27.0288 10.976L23.6027 14.4021C22.8412 15.1635 22.3972 16.2421 22.3972 17.3207V22.6502C22.3972 23.7287 22.8412 24.8074 23.6027 25.5687L27.7267 29.6927C27.9804 29.9466 28.1073 30.2638 28.1073 30.6445V32.2941C28.1073 33.2458 28.8687 34.0071 29.8204 34.0071H35.2768C36.2285 34.0071 36.9899 33.2458 36.9899 32.2941V30.7079C36.9899 30.3907 37.1168 30.0101 37.3705 29.7562L41.6215 25.5687C42.3829 24.8074 42.8271 23.7287 42.8271 22.6502V17.3207C42.9539 16.2421 42.5097 15.2269 41.6849 14.4021ZM38.5761 21.9523C38.5761 22.5233 38.3857 23.0309 38.0051 23.475L36.3555 25.2515C35.7844 25.8226 35.6575 26.7107 35.9748 27.4722L36.9264 29.8197H28.488L29.4397 27.4722C29.7569 26.7107 29.5667 25.8859 29.0591 25.2515L27.4095 23.475C27.0288 23.0943 26.8384 22.5233 26.8384 21.9523V18.0821C26.8384 17.511 27.0288 17.0034 27.4095 16.6227L29.2493 14.529C29.6935 14.0849 30.2645 13.7677 30.8991 13.7677H34.5155C35.15 13.7677 35.7209 14.0214 36.1651 14.529L38.0685 16.6227C38.4492 17.0034 38.6395 17.5745 38.6395 18.1455V21.9523H38.5761Z" fill="#3F7CDB"/>
</g>
<defs>
<clipPath id="clip0_298_12468">
<rect width="89.3333" height="40" fill="white"/>
</clipPath>
</defs>
</svg>
