<svg width="121" height="40" viewBox="0 0 121 40" fill="none" xmlns="http://www.w3.org/2000/svg">
<g clip-path="url(#clip0_291_3728)">
<path d="M37.9346 39.7938H35.6627L33.253 35.5253V39.7938H31.3253V30.5684H34.148C35.2496 30.5684 36.0757 30.7749 36.6265 31.188C37.1773 31.6011 37.4527 32.2895 37.4527 33.1157C37.4527 33.7353 37.2461 34.2861 36.9019 34.6992C36.4888 35.1122 36.0069 35.3876 35.4561 35.4565L37.9346 39.7938ZM33.253 34.4926H33.5284C34.3546 34.4926 34.8365 34.4238 35.1119 34.2172C35.3873 34.0795 35.525 33.7353 35.525 33.3222C35.525 32.8403 35.3873 32.5649 35.1119 32.3584C34.8365 32.1518 34.3546 32.083 33.5973 32.083H33.3219V34.4926H33.253ZM39.0362 39.7938V30.5684H44.4062V32.2207H40.9639V34.0795H44.4062V35.8007H40.9639V38.0727H44.4062V39.725H39.0362V39.7938ZM46.4028 30.5684H48.3305V39.725H46.4028V30.5684ZM50.4647 39.7938V30.5684H52.5301L56.5921 35.9384C56.7298 36.0761 56.8675 36.2826 57.0052 36.558C57.1429 36.8334 57.2806 37.1777 57.4183 37.5219C57.3494 37.2465 57.3494 36.9711 57.3494 36.6957C57.3494 36.4203 57.2806 36.0761 57.2806 35.663V30.4995H59.1394V39.6561H57.2117L53.0121 34.3549C52.8744 34.2172 52.7367 34.0107 52.599 33.7353C52.4613 33.4599 52.3236 33.1157 52.1859 32.7715C52.2548 33.0468 52.2548 33.3222 52.2548 33.5976C52.2548 33.873 52.2548 34.2172 52.2548 34.6303V39.8627H50.4647V39.7938ZM60.5852 38.6234L61.6868 37.3842C61.8245 37.7284 62.031 38.0038 62.3752 38.2104C62.6506 38.4169 62.9949 38.4857 63.4079 38.4857C63.8899 38.4857 64.2341 38.348 64.5095 38.1415C64.7849 37.935 64.9226 37.6596 64.9226 37.2465C64.9226 36.8334 64.5095 36.3515 63.6145 35.9384C63.3391 35.8007 63.1325 35.663 62.926 35.5942C62.0998 35.1811 61.5491 34.768 61.2737 34.3549C60.9295 33.9419 60.7918 33.4599 60.7918 32.9091C60.7918 32.1518 61.0671 31.5322 61.6868 31.0503C62.3064 30.5684 63.0637 30.293 64.0276 30.293C64.5783 30.293 65.0603 30.3618 65.4733 30.5684C65.8864 30.7749 66.2307 31.0503 66.506 31.4634L65.3356 32.5649C65.198 32.2895 64.9914 32.083 64.7849 31.9453C64.5783 31.8076 64.3029 31.7388 63.9587 31.7388C63.5456 31.7388 63.2702 31.8076 62.9949 32.0141C62.7883 32.2207 62.6506 32.4272 62.6506 32.7715C62.6506 33.2534 63.1325 33.6665 64.0964 34.0795C64.3029 34.1484 64.4406 34.2172 64.5095 34.2861C65.2668 34.6303 65.8864 35.0434 66.2307 35.4565C66.5749 35.8696 66.7814 36.4203 66.7814 36.9711C66.7814 37.7973 66.506 38.4857 65.8864 39.0365C65.2668 39.5184 64.5095 39.7938 63.5456 39.7938C62.8572 39.7938 62.2375 39.6561 61.7556 39.4496C61.2048 39.3807 60.7918 39.0365 60.5852 38.6234ZM76.2134 30.5684V36.2826C76.2134 37.5219 75.8692 38.4857 75.2496 39.0365C74.5611 39.6561 73.5973 39.9315 72.2892 39.9315C70.9811 39.9315 69.9484 39.6561 69.3288 39.0365C68.6403 38.4169 68.3649 37.5219 68.3649 36.2826V30.5684H70.2926V35.9384C70.2926 36.6957 70.4303 37.2465 70.7745 37.6596C71.1188 38.0727 71.6007 38.2104 72.2892 38.2104C72.9776 38.2104 73.4596 38.0038 73.8038 37.6596C74.148 37.2465 74.2857 36.6957 74.2857 35.9384V30.5684H76.2134ZM84.8881 39.7938H82.6162L80.2066 35.5253V39.7938H78.21V30.5684H81.0327C82.1343 30.5684 82.9604 30.7749 83.5112 31.188C84.062 31.6011 84.3374 32.2895 84.3374 33.1157C84.3374 33.7353 84.1308 34.2861 83.7866 34.6992C83.4424 35.1122 82.8916 35.3876 82.3408 35.4565L84.8881 39.7938ZM80.2066 34.4926H80.4819C81.3081 34.4926 81.79 34.4238 82.0654 34.2172C82.3408 34.0795 82.4785 33.7353 82.4785 33.3222C82.4785 32.8403 82.3408 32.5649 82.0654 32.3584C81.79 32.1518 81.3081 32.083 80.5508 32.083H80.2754V34.4926H80.2066ZM90.809 36.2826L89.7763 33.3222C89.7763 33.2534 89.7074 33.1157 89.6386 32.8403C89.5697 32.6338 89.5697 32.3584 89.5009 32.083C89.432 32.3584 89.3632 32.6338 89.3632 32.9091C89.2943 33.1157 89.2943 33.3222 89.2255 33.3911L88.2616 36.2826H90.809ZM84.957 39.7938L88.4682 30.6372H90.7401L94.2513 39.7938H92.0482L91.2909 37.8661H87.7109L87.0912 39.7938H84.957ZM95.1463 39.7938V30.5684H97.2117L101.274 35.9384C101.411 36.0761 101.549 36.2826 101.687 36.558C101.824 36.8334 101.962 37.1777 102.1 37.5219C102.031 37.2465 102.031 36.9711 102.031 36.6957C102.031 36.4203 102.031 36.0761 102.031 35.663V30.4995H103.89V39.6561H101.893L97.6936 34.2172C97.556 34.0795 97.4183 33.873 97.2806 33.5976C97.1429 33.3222 97.0052 32.978 96.8675 32.6338C96.9363 32.9091 96.9363 33.1845 96.9363 33.4599C96.9363 33.7353 97.0052 34.0795 97.0052 34.4926V39.725H95.1463V39.7938ZM113.253 32.978C112.84 32.6338 112.427 32.3584 112.014 32.2207C111.601 32.083 111.119 31.9453 110.706 31.9453C109.742 31.9453 108.916 32.2207 108.365 32.8403C107.814 33.4599 107.47 34.2172 107.47 35.1811C107.47 36.1449 107.745 36.9023 108.296 37.453C108.847 38.0038 109.604 38.2792 110.499 38.2792C111.05 38.2792 111.532 38.2104 111.945 38.0038C112.427 37.7973 112.84 37.5907 113.184 37.1777V39.1742C112.771 39.4496 112.358 39.5873 111.876 39.725C111.394 39.8627 110.912 39.9315 110.43 39.9315C108.985 39.9315 107.745 39.4496 106.85 38.5546C105.886 37.6596 105.473 36.4892 105.473 35.1122C105.473 33.7353 105.955 32.5649 106.85 31.6699C107.814 30.7749 108.985 30.293 110.499 30.293C110.981 30.293 111.463 30.3618 111.945 30.4307C112.427 30.5684 112.84 30.7061 113.322 30.9126L113.253 32.978ZM115.112 39.7938V30.5684H120.482V32.2207H117.04V34.0795H120.482V35.8007H117.04V38.0727H120.482V39.725H115.112V39.7938Z" fill="#008CD1"/>
<path d="M38.1412 21.9624C37.7969 21.6181 37.4527 21.4116 37.0396 21.2739C36.6954 21.1362 36.2823 21.0674 35.8692 21.0674C34.9742 21.0674 34.3546 21.3428 33.8038 21.8247C33.3219 22.3066 33.0465 23.0639 33.0465 23.8901C33.0465 24.7162 33.253 25.4047 33.735 25.8866C34.2169 26.3686 34.8365 26.644 35.6627 26.644C36.1446 26.644 36.5577 26.5751 36.9708 26.4374C37.3838 26.2997 37.7281 26.0243 38.0723 25.749V27.539C37.7281 27.7455 37.315 27.952 36.9019 28.0209C36.4888 28.1586 36.0757 28.1586 35.6627 28.1586C34.3546 28.1586 33.3219 27.7455 32.4957 26.9882C31.6696 26.162 31.2565 25.1982 31.2565 23.9589C31.2565 22.7197 31.6696 21.687 32.4957 20.9297C33.3219 20.1035 34.4234 19.7593 35.7315 19.7593C36.1446 19.7593 36.6265 19.8281 36.9708 19.897C37.3838 19.9658 37.7969 20.1035 38.21 20.3101L38.1412 21.9624ZM47.9862 23.8901C47.9862 24.4409 47.8486 24.9916 47.642 25.5424C47.4355 26.0243 47.0912 26.5063 46.6782 26.9193C46.2651 27.3324 45.7831 27.6078 45.2324 27.8144C44.6816 28.0209 44.1308 28.1586 43.58 28.1586C43.0981 28.1586 42.6162 28.0897 42.1343 27.8832C41.6523 27.7455 41.2393 27.4701 40.8262 27.1947C40.3442 26.7817 39.9312 26.2997 39.6558 25.749C39.3804 25.1982 39.2427 24.5786 39.2427 23.9589C39.2427 23.4082 39.3804 22.8574 39.5869 22.3066C39.7935 21.8247 40.1377 21.3428 40.5508 20.9297C40.9639 20.5166 41.4458 20.2412 41.9277 20.0347C42.4785 19.8281 43.0293 19.6904 43.58 19.6904C44.1308 19.6904 44.6816 19.8281 45.2324 20.0347C45.7831 20.2412 46.2651 20.5854 46.6093 20.9297C47.0224 21.3428 47.2978 21.7558 47.5732 22.3066C47.8486 22.7885 47.9862 23.3393 47.9862 23.8901ZM43.7177 26.5751C44.4751 26.5751 45.0258 26.2997 45.5078 25.8178C45.9897 25.3359 46.1962 24.6474 46.1962 23.8901C46.1962 23.1328 45.9897 22.5131 45.5078 21.9624C45.0258 21.4116 44.4062 21.2051 43.7177 21.2051C42.9604 21.2051 42.4097 21.4804 41.9277 21.9624C41.4458 22.5131 41.1704 23.1328 41.1704 23.8901C41.1704 24.6474 41.377 25.3359 41.8589 25.8178C42.3408 26.3686 42.9604 26.5751 43.7177 26.5751ZM49.432 27.952V19.8281H51.222L54.8021 24.5097C54.9398 24.6474 55.0086 24.8539 55.1463 25.0605C55.284 25.3359 55.4217 25.6113 55.5594 25.8866C55.4905 25.6801 55.4905 25.4047 55.4905 25.1982C55.4905 24.9916 55.4905 24.6474 55.4905 24.3032V19.7593H57.1429V27.8144H55.4217L51.7728 22.9951C51.704 22.8574 51.5663 22.6508 51.4286 22.4443C51.2909 22.2378 51.1532 21.8935 51.0155 21.5493C51.0844 21.7558 51.0844 22.0312 51.0844 22.2378C51.0844 22.4443 51.0844 22.7885 51.0844 23.1328V27.7455H49.432V27.952ZM61.8933 21.3428V27.952H60.1721V21.3428H58.1756V19.897H63.8899V21.3428H61.8933ZM65.0603 19.8281H66.7814V27.8832H65.0603V19.8281ZM68.5714 27.952V19.8281H70.3615L73.9415 24.5097C74.0103 24.6474 74.148 24.8539 74.2857 25.0605C74.4234 25.3359 74.5611 25.6113 74.6988 25.8866C74.63 25.6801 74.63 25.4047 74.63 25.1982C74.63 24.9916 74.63 24.6474 74.63 24.3032V19.7593H76.2823V27.8144H74.5611L70.9122 22.9951C70.7745 22.8574 70.7057 22.6508 70.568 22.4443C70.4303 22.2378 70.2926 21.8935 70.1549 21.5493C70.2238 21.7558 70.2238 22.0312 70.2238 22.2378C70.2238 22.4443 70.2238 22.7885 70.2238 23.1328V27.7455H68.5714V27.952ZM78.0035 27.952V19.8281H82.7539V21.2739H79.7246V22.9262H82.7539V24.372H79.7246V26.3686H82.7539V27.8144H78.0035V27.952ZM84.4751 27.952V19.8281H86.2651L89.8451 24.5097C89.914 24.6474 90.0517 24.8539 90.1893 25.0605C90.327 25.3359 90.4647 25.6113 90.6024 25.8866C90.5336 25.6801 90.5336 25.4047 90.5336 25.1982C90.5336 24.9916 90.5336 24.6474 90.5336 24.3032V19.7593H92.1859V27.8144H90.4647L86.8159 22.9951C86.6782 22.8574 86.6093 22.6508 86.4716 22.4443C86.3339 22.2378 86.1962 21.8935 86.0585 21.5493C86.1274 21.7558 86.1274 22.0312 86.1274 22.2378C86.1274 22.4443 86.1274 22.7885 86.1274 23.1328V27.7455H84.4751V27.952ZM96.9363 21.3428V27.952H95.2152V21.3428H93.2186V19.897H98.9329V21.3428H96.9363ZM103.614 24.8539L102.719 22.2378C102.719 22.1689 102.651 22.0312 102.651 21.8247C102.582 21.6181 102.582 21.4116 102.513 21.1362C102.444 21.4116 102.444 21.6181 102.375 21.8247C102.306 22.0312 102.306 22.1689 102.306 22.2378L101.411 24.7851H103.614V24.8539ZM98.451 27.952L101.549 19.897H103.546L106.644 27.952H104.647L103.959 26.2309H100.861L100.31 27.952H98.451ZM107.47 27.952V19.8281H109.191V26.4374H111.945V27.8832H107.47V27.952Z" fill="#008CD1"/>
<path d="M26.0929 20.1029V7.91699L14.7332 13.3559V25.5418L26.0929 20.1029Z" fill="#ADAFB2"/>
<path d="M26.0929 20.1033V7.91738L12.7367 0V12.1859L26.0929 20.1033Z" fill="#008CD1"/>
<path d="M0 11.2905V23.4763L11.3597 18.0374L11.4286 5.85156L0 11.2905Z" fill="#ADAFB2"/>
<path d="M0 11.291V23.4769L13.3563 31.3943V19.1396L0 11.291Z" fill="#00A651"/>
<path d="M28.0207 39.9314V27.6767L14.7332 19.8281L14.6644 32.014L28.0207 39.9314Z" fill="#008CD1"/>
</g>
<defs>
<clipPath id="clip0_291_3728">
<rect width="120.482" height="40" fill="white"/>
</clipPath>
</defs>
</svg>
