<svg width="168" height="40" viewBox="0 0 168 40" fill="none" xmlns="http://www.w3.org/2000/svg">
<g clip-path="url(#clip0_298_12920)">
<path d="M0.0127161 19.4839H18.2524L14.3485 23.3877H0.0127161V29.207H8.52931L0 37.7363L1.82953 39.5643L10.3572 31.035V39.5515H16.1764V25.2157L20.0564 21.3374V39.5515H27.8149V11.7256H0.0127161V19.4839Z" fill="#0BCE5A"/>
<path d="M118.236 31.731L123.264 29.6075C124.217 32.6275 126.392 35.139 130.302 35.139C133.208 35.139 135.163 33.4621 135.163 31.4514C135.163 25.3619 119.465 29.3277 119.465 18.659C119.465 14.2449 123.319 10.9482 129.407 10.9482C134.714 10.9482 139.184 13.7426 140.413 17.8753L135.387 19.999C134.66 17.2062 132.035 15.6421 129.464 15.6421C126.783 15.6421 125.106 16.7023 125.106 18.5477C125.106 23.9663 140.917 19.8321 140.917 31.3957C140.917 36.2565 136.671 39.9997 130.302 39.9997C123.431 39.9997 119.52 35.7541 118.236 31.731Z" fill="black"/>
<path d="M142.971 31.731L147.999 29.6075C148.953 32.6275 151.127 35.139 155.039 35.139C157.943 35.139 159.898 33.4621 159.898 31.4514C159.898 25.3619 144.2 29.3277 144.2 18.659C144.2 14.2449 148.055 10.9482 154.144 10.9482C159.451 10.9482 163.919 13.7426 165.15 17.8753L160.122 19.999C159.396 17.2062 156.77 15.6421 154.2 15.6421C151.52 15.6421 149.843 16.7023 149.843 18.5477C149.843 23.9663 165.652 19.8321 165.652 31.3957C165.652 36.2565 161.407 39.9997 155.037 39.9997C148.167 39.9997 144.256 35.7541 142.971 31.731Z" fill="black"/>
<path d="M115.012 22.0115V39.5534H109.041V35.2523C107.421 38.1006 103.954 40.0001 100.214 40.0001C94.627 40.0001 90.7725 36.4808 90.7725 31.6774C90.7725 26.1459 95.0737 23.1846 103.733 22.2994L109.041 21.7334V21.3408C109.041 17.8773 106.639 15.7553 102.951 15.7553C99.5434 15.7553 97.1415 17.766 96.7523 21.1183L91.2779 20.1121C92.1712 14.5822 96.9763 10.9502 102.953 10.9502C110.096 10.9502 115.012 14.9717 115.012 22.0115ZM109.041 27.4286V26.2555L103.678 26.8708C99.0968 27.373 96.7506 29.0499 96.7506 31.5074C96.7506 33.7423 98.5945 35.3063 101.443 35.3063C106.18 35.3063 108.979 32.0112 109.041 27.4286Z" fill="black"/>
<path d="M85.6386 16.6486C81.5059 16.6486 77.8739 20.3346 77.8739 29.0468V39.5503H71.7844V11.3968H77.8739V16.7598C79.3824 13.4076 83.0701 10.9502 86.4779 10.9502C87.5397 10.9502 88.7684 11.1091 89.6061 11.4525L89.2708 17.3257C88.2646 16.8711 86.923 16.6486 85.6386 16.6486Z" fill="black"/>
<path d="M45.6288 35.9769V39.5535H39.5393V0H45.6288V14.916C47.304 12.5698 50.6006 10.9422 54.2311 10.9422C62.7222 10.9422 67.5829 16.9823 67.5829 25.4671C67.5829 33.952 62.7222 39.992 54.1182 39.992C50.3766 40 46.9686 38.3231 45.6288 35.9769ZM61.4935 25.4751C61.4935 19.888 58.2526 16.2559 53.3362 16.2559C48.4199 16.2559 45.1804 19.8864 45.1804 25.4751C45.1804 31.0049 48.4215 34.6942 53.3362 34.6942C58.2509 34.6942 61.4935 31.0065 61.4935 25.4751Z" fill="black"/>
</g>
<defs>
<clipPath id="clip0_298_12920">
<rect width="167.273" height="40" fill="white"/>
</clipPath>
</defs>
</svg>
