<svg width="178" height="40" viewBox="0 0 178 40" fill="none" xmlns="http://www.w3.org/2000/svg">
<g clip-path="url(#clip0_298_12706)">
<path d="M19.4379 0C8.70257 0 0 8.48893 0 18.9608C0 29.4327 8.70257 37.9216 19.4379 37.9216C30.1733 37.9216 38.8759 29.4327 38.8759 18.9608C38.8759 8.48893 30.1733 0 19.4379 0ZM21.1816 31.4333C21.1748 31.4333 21.1703 31.4333 21.1635 31.4333C21.1293 31.4333 21.0975 31.4221 21.0724 31.4C21.0428 31.3756 21.0268 31.3377 21.0268 31.3V26.0331C21.0268 25.9708 21.0701 25.9176 21.1316 25.9043C23.7835 25.2959 25.8983 23.2308 26.5243 20.6417C26.538 20.5817 26.5925 20.5396 26.6563 20.5396H32.0536C32.0923 20.5396 32.1309 20.5551 32.156 20.584C32.1811 20.6128 32.1947 20.6505 32.1879 20.6905C31.4276 26.2728 26.8999 30.6895 21.1816 31.4333ZM32.0604 17.5019H32.0536H26.654C26.5903 17.5019 26.5356 17.4597 26.522 17.3997C25.7457 14.18 22.8433 11.9329 19.4652 11.9329C15.4565 11.9329 12.1968 15.1127 12.1968 19.0229C12.1968 22.3181 14.5005 25.1493 17.8012 25.9064C17.8627 25.9197 17.906 25.9731 17.906 26.0352V31.3023C17.906 31.34 17.89 31.3756 17.8604 31.4021C17.8353 31.4244 17.8035 31.4355 17.7693 31.4355C17.7625 31.4355 17.758 31.4355 17.7512 31.4355C11.4023 30.6072 6.61513 25.2715 6.61513 19.0252C6.61513 12.1128 12.3812 6.48828 19.4652 6.48828C25.8573 6.48828 31.316 11.1402 32.1833 17.3132C32.1924 17.3309 32.1969 17.3509 32.1969 17.3709C32.1969 17.442 32.1355 17.5019 32.0604 17.5019Z" fill="#202654"/>
<path d="M50.0825 18.9893C50.0825 17.2307 50.424 15.5542 51.1092 13.9599C51.7944 12.3656 52.7255 10.9889 53.9068 9.82981C55.0883 8.67071 56.5088 7.74699 58.1728 7.05864C59.8345 6.37251 61.6009 6.02832 63.4721 6.02832C65.3433 6.02832 67.0984 6.37472 68.7375 7.06752C70.3764 7.76031 71.8173 8.72844 73.0557 9.96969L70.2148 13.0873C68.4575 11.0866 66.2084 10.0852 63.4699 10.0852C61.8355 10.0852 60.3376 10.4915 58.974 11.3064C57.6105 12.1213 56.5429 13.2116 55.7712 14.5794C54.9995 15.9473 54.6125 17.4305 54.6125 19.0226C54.6125 20.6281 55.0109 22.1069 55.8053 23.4591C56.5997 24.8114 57.6788 25.8817 59.0424 26.6655C60.4059 27.4517 61.8947 27.8446 63.5063 27.8446C64.69 27.8446 65.8647 27.5893 67.0301 27.0786C68.1956 26.5678 69.1904 25.8995 70.0144 25.0757L72.6847 28.1755C71.444 29.3413 70.044 30.2538 68.4824 30.9134C66.9208 31.5729 65.2613 31.9037 63.504 31.9037C61.082 31.9037 58.8443 31.3397 56.7911 30.2139C54.7377 29.0881 53.1079 27.5315 51.8968 25.5465C50.688 23.5613 50.0825 21.3763 50.0825 18.9893ZM75.6439 31.4574V6.45688H79.903V16.6045C80.3196 16.2958 80.6724 16.0561 80.9592 15.8851C81.2461 15.7141 81.69 15.5431 82.2864 15.3722C82.8828 15.2011 83.5316 15.1146 84.2304 15.1146C85.1547 15.1146 86.0105 15.2522 86.8004 15.5275C87.5903 15.8029 88.2983 16.2137 88.9311 16.7643C89.5616 17.3151 90.0556 18.0545 90.4108 18.9826C90.7658 19.9109 90.9435 20.9855 90.9435 22.2069V31.4574H86.682V22.893C86.682 20.3682 85.5484 19.1047 83.2835 19.1047C81.0299 19.1047 79.903 20.3461 79.903 22.8263V31.4551H75.6439V31.4574ZM94.647 11.9815C94.128 11.4752 93.8685 10.8557 93.8685 10.1185C93.8685 9.38127 94.128 8.76397 94.647 8.26213C95.1661 7.76253 95.808 7.51161 96.5752 7.51161C97.3309 7.51161 97.9614 7.75809 98.469 8.25325C98.9766 8.74843 99.2295 9.37016 99.2295 10.1163C99.2295 10.8646 98.9766 11.4885 98.469 11.9881C97.9614 12.4877 97.3309 12.7387 96.5752 12.7387C95.808 12.7409 95.1638 12.4877 94.647 11.9815ZM94.4263 31.4574V15.4121H98.6853V31.4574H94.4263ZM102.526 39.9995V15.4121H106.785V16.6045C108.037 15.6119 109.557 15.1146 111.349 15.1146C113.766 15.1146 115.822 15.9295 117.515 17.5571C119.209 19.1847 120.056 21.1654 120.056 23.4991C120.056 25.0157 119.671 26.4191 118.9 27.7091C118.128 28.9993 117.074 30.0207 115.735 30.7734C114.397 31.5262 112.935 31.9015 111.349 31.9015C109.557 31.9015 108.034 31.4063 106.785 30.4182V39.9995H102.526ZM106.787 23.6967C106.844 24.8491 107.313 25.8395 108.198 26.6678C109.084 27.4961 110.133 27.9113 111.351 27.9113C112.592 27.9113 113.655 27.4761 114.547 26.6034C115.437 25.7307 115.883 24.6959 115.883 23.5014C115.883 22.3157 115.437 21.2875 114.547 20.4149C113.657 19.5422 112.592 19.107 111.351 19.107C110.133 19.107 109.084 19.5245 108.198 20.3571C107.313 21.1921 106.844 22.1779 106.787 23.3193V23.6967ZM122.492 39.9995V15.4121H126.751V16.6045C128.003 15.6119 129.523 15.1146 131.315 15.1146C133.732 15.1146 135.788 15.9295 137.481 17.5571C139.175 19.1847 140.023 21.1654 140.023 23.4991C140.023 25.0157 139.637 26.4191 138.865 27.7091C138.095 28.9993 137.04 30.0207 135.701 30.7734C134.363 31.5262 132.901 31.9015 131.315 31.9015C129.523 31.9015 128.001 31.4063 126.751 30.4182V39.9995H122.492ZM126.753 23.6967C126.81 24.8491 127.279 25.8395 128.164 26.6678C129.05 27.4961 130.099 27.9113 131.317 27.9113C132.558 27.9113 133.621 27.4761 134.513 26.6034C135.404 25.7307 135.849 24.6959 135.849 23.5014C135.849 22.3157 135.404 21.2875 134.513 20.4149C133.623 19.5422 132.558 19.107 131.317 19.107C130.099 19.107 129.05 19.5245 128.164 20.3571C127.279 21.1921 126.81 22.1779 126.753 23.3193V23.6967ZM141.665 23.5902C141.665 22.4577 141.865 21.3786 142.267 20.3505C142.667 19.3223 143.227 18.4209 143.949 17.6459C144.671 16.871 145.569 16.2559 146.644 15.7985C147.721 15.3433 148.896 15.1146 150.168 15.1146C151.745 15.1146 153.171 15.4987 154.445 16.2693C155.717 17.0397 156.705 18.0589 157.404 19.329C158.103 20.5991 158.452 21.987 158.452 23.4925C158.452 23.9654 158.417 24.4051 158.349 24.8114H145.807C146.055 25.8173 146.58 26.6211 147.387 27.2229C148.192 27.8246 149.192 28.1245 150.387 28.1245C151.175 28.1245 151.929 27.9778 152.652 27.6826C153.373 27.3873 153.965 26.9431 154.427 26.3525L157.333 28.6041C156.589 29.6321 155.604 30.4359 154.375 31.0222C153.145 31.6062 151.828 31.8993 150.419 31.8993C148.795 31.8993 147.313 31.5373 145.972 30.8113C144.632 30.0851 143.577 29.0859 142.811 27.8091C142.051 26.5367 141.665 25.129 141.665 23.5902ZM145.961 21.7605H154.16C154.037 20.9478 153.592 20.2661 152.824 19.7154C152.057 19.167 151.163 18.8917 150.136 18.8917C149.155 18.8917 148.295 19.1537 147.551 19.6754C146.805 20.1973 146.275 20.8923 145.961 21.7605ZM161.101 31.4574V15.4121H165.36V16.6045C166.148 16.0317 166.997 15.6386 167.905 15.4299C168.813 15.2211 170.072 15.1146 171.684 15.1146V19.1047C170.615 19.1047 169.697 19.1647 168.936 19.2869C168.176 19.4067 167.564 19.5755 167.101 19.7887C166.64 20.0018 166.28 20.2971 166.02 20.6702C165.761 21.0433 165.585 21.4363 165.497 21.8471C165.405 22.2579 165.363 22.7619 165.363 23.3549V31.4574H161.101ZM171.684 8.73288C171.684 8.42645 171.745 8.13335 171.868 7.85579C171.992 7.57823 172.156 7.33841 172.363 7.13857C172.569 6.93873 172.816 6.77885 173.1 6.66116C173.387 6.54348 173.685 6.48353 173.997 6.48353C174.309 6.48353 174.607 6.54348 174.892 6.66116C175.176 6.78107 175.42 6.94095 175.624 7.14079C175.829 7.34064 175.993 7.58267 176.113 7.86023C176.235 8.13779 176.296 8.42645 176.296 8.72844C176.296 9.03043 176.235 9.31909 176.113 9.59888C175.991 9.87865 175.829 10.1185 175.623 10.3205C175.417 10.5226 175.172 10.6825 174.887 10.8046C174.603 10.9245 174.304 10.9845 173.991 10.9845C173.573 10.9845 173.189 10.8845 172.833 10.6847C172.481 10.4849 172.199 10.2117 171.992 9.86533C171.787 9.51893 171.684 9.14145 171.684 8.73288ZM172.119 8.73288C172.119 8.97713 172.167 9.20807 172.264 9.43012C172.363 9.65217 172.495 9.84313 172.661 10.0052C172.827 10.1673 173.025 10.2961 173.257 10.3938C173.489 10.4893 173.733 10.5381 173.992 10.5381C174.333 10.5381 174.651 10.456 174.937 10.2939C175.224 10.1318 175.452 9.91196 175.616 9.6344C175.781 9.35907 175.864 9.05708 175.864 8.73067C175.864 8.39981 175.781 8.09116 175.616 7.80916C175.452 7.52716 175.224 7.30067 174.932 7.13413C174.644 6.96759 174.327 6.88321 173.985 6.88321C173.644 6.88321 173.329 6.96759 173.043 7.13413C172.756 7.30067 172.531 7.52493 172.367 7.80916C172.201 8.09116 172.119 8.39981 172.119 8.73288ZM173.087 10.0074V7.445H173.888C173.988 7.445 174.075 7.44721 174.145 7.44944C174.216 7.45167 174.295 7.46055 174.384 7.47164C174.473 7.48275 174.548 7.49829 174.607 7.51828C174.668 7.53827 174.729 7.56491 174.792 7.60265C174.853 7.63819 174.903 7.68259 174.941 7.73144C174.98 7.78029 175.009 7.84247 175.035 7.91796C175.057 7.99347 175.072 8.07784 175.072 8.17109C175.072 8.58411 174.855 8.83725 174.42 8.93495L175.072 10.0141H174.545L173.917 8.97048H173.525V10.0097H173.087V10.0074ZM173.525 8.58633H174.004C174.097 8.58633 174.179 8.58189 174.245 8.57301C174.311 8.56413 174.375 8.54859 174.435 8.52193C174.496 8.49751 174.541 8.45755 174.573 8.40425C174.605 8.35096 174.621 8.28435 174.621 8.20219C174.621 8.05564 174.571 7.95571 174.468 7.90687C174.365 7.85801 174.211 7.83136 174.004 7.83136H173.525V8.58633Z" fill="#202654"/>
</g>
<defs>
<clipPath id="clip0_298_12706">
<rect width="177.333" height="40" fill="white"/>
</clipPath>
</defs>
</svg>
