<svg width="188" height="40" viewBox="0 0 188 40" fill="none" xmlns="http://www.w3.org/2000/svg">
<path fill-rule="evenodd" clip-rule="evenodd" d="M20 40C31.0457 40 40 31.0457 40 20C40 8.95429 31.0457 0 20 0C8.95429 0 0 8.95429 0 20C0 31.0457 8.95429 40 20 40ZM12.6984 16.5079C13.4283 16.5079 14.1429 16.2982 14.7571 15.9038C15.3713 15.5093 15.8592 14.9467 16.1628 14.2829C16.4664 13.6191 16.5729 12.8821 16.4696 12.1595C16.3664 11.4369 16.0577 10.7592 15.5803 10.207C17.1806 9.33937 18.9727 8.88623 20.793 8.88889C22.426 8.88889 23.9746 9.24571 25.3664 9.88571C24.9869 10.2331 24.6817 10.6537 24.4692 11.1222C24.2567 11.5907 24.1412 12.0973 24.1299 12.6117C24.1185 13.126 24.2114 13.6373 24.403 14.1147C24.5947 14.5921 24.881 15.0258 25.2447 15.3895C25.6085 15.7533 26.0422 16.0396 26.5196 16.2312C26.997 16.4228 27.5083 16.5158 28.0226 16.5044C28.5369 16.493 29.0436 16.3776 29.5121 16.1651C29.9806 15.9526 30.4012 15.6474 30.7486 15.2679C31.408 16.7023 31.7483 18.2626 31.746 19.8413C31.746 25.8902 26.8425 30.7937 20.7937 30.7937C14.7448 30.7937 9.84127 25.8902 9.84127 19.8413C9.84127 18.44 10.1041 17.0997 10.5841 15.8679C11.2097 16.2864 11.9457 16.5092 12.6984 16.5079ZM30.7486 15.2679C29.6525 12.8903 27.744 10.9824 25.3664 9.88635C26.0901 9.22385 27.0417 8.86617 28.0226 8.88785C29.0036 8.90952 29.9384 9.30888 30.6322 10.0027C31.326 10.6965 31.7254 11.6313 31.7471 12.6123C31.7687 13.5933 31.4111 14.5441 30.7486 15.2679ZM15.5803 10.207C13.2987 11.4448 11.5289 13.4502 10.5841 15.8679C10.1322 15.5662 9.75012 15.1713 9.46344 14.7097C9.17676 14.2481 8.99215 13.7305 8.92199 13.1917C8.85183 12.6528 8.89776 12.1052 9.05668 11.5856C9.21561 11.066 9.48385 10.5864 9.84341 10.179C10.203 9.77158 10.6455 9.44581 11.1414 9.22355C11.6372 9.00128 12.1749 8.88766 12.7182 8.89032C13.2616 8.89297 13.7981 9.01183 14.2918 9.23893C14.7854 9.46602 15.2248 9.79609 15.5803 10.207Z" fill="black"/>
<path d="M57.4704 14.6319C56.1283 13.5883 54.4772 13.0207 52.7771 13.0186C48.5866 13.0186 45.1714 16.4338 45.1714 20.6243C45.1714 24.8147 48.5866 28.23 52.7771 28.23C54.6209 28.23 56.3181 27.5595 57.6381 26.47L55.7523 24.3119C52.9866 26.4071 48.44 24.7519 48.44 20.6243C48.44 16.6852 52.7352 14.9671 55.5847 16.8109L57.4704 14.6319ZM66.4089 16.1824V13.249H60.3536V16.1824H61.925V25.0033H60.3536V27.9366H66.4089V25.0033H64.8584V16.1824H66.4089ZM68.9219 13.2281V27.9157H71.8552V18.8643L73.3219 22.0281V22.049L76.0666 27.9366H79.1885L76.1295 21.6509C77.9523 21.3366 79.1047 19.43 79.1047 17.649C79.1047 15.2186 77.1352 13.2281 74.7047 13.2281H68.9219ZM73.4476 16.1614H74.7047C75.5219 16.1614 76.1714 16.8319 76.1714 17.649C76.1723 18.0047 76.0426 18.3483 75.8071 18.6148C75.5715 18.8812 75.2464 19.052 74.8933 19.0947L73.4476 16.1614ZM93.0527 14.6319C91.7105 13.5883 90.0594 13.0207 88.3593 13.0186C84.1688 13.0186 80.7536 16.4338 80.7536 20.6243C80.7536 24.8147 84.1688 28.23 88.3593 28.23C90.2031 28.23 91.9003 27.5595 93.2203 26.47L91.3346 24.3119C88.5689 26.4071 84.0222 24.7519 84.0222 20.6243C84.0222 16.6852 88.3174 14.9671 91.1669 16.8109L93.0527 14.6319ZM98.8692 13.249H95.9358V27.9157H104.338V25.0033H98.8692V13.249ZM116.443 13.249H106.658V27.9366H116.38V25.0033H109.591V21.8186H115.248V18.8852H109.591V16.1824H116.443V13.249ZM119.117 13.249V27.9366H122.051V22.07H123.874C125.041 22.07 126.16 21.6064 126.985 20.7813C127.81 19.9561 128.274 18.8369 128.274 17.67C128.274 15.2395 126.304 13.249 123.874 13.249H119.117ZM122.051 19.1366V16.1824H123.874C124.67 16.1824 125.34 16.8528 125.34 17.67C125.339 18.0586 125.184 18.431 124.909 18.7058C124.635 18.9806 124.262 19.1355 123.874 19.1366H122.051ZM136.405 13.249H135.546L128.464 27.1614V27.9366H142.984V27.1614L136.405 13.249ZM132.843 25.0033L135.902 19.0109L138.71 25.0033H132.843ZM155.986 27.9366L147.731 19.3671V27.9366H144.797V13.249H145.719L153.828 21.4624V13.249H156.761V27.9366H155.986ZM159.489 13.249V27.9157H160.683V27.9366H163.637C164.622 27.9366 165.586 27.7481 166.487 27.35C167.367 26.9938 168.142 26.449 168.813 25.7786C169.494 25.1225 170.03 24.33 170.384 23.4528C170.782 22.5519 170.971 21.5881 170.971 20.5824C170.971 19.5976 170.782 18.6338 170.384 17.7328C170.028 16.8528 169.504 16.0776 168.813 15.3862C168.146 14.7179 167.356 14.1844 166.487 13.8147C165.584 13.4386 164.615 13.2463 163.637 13.249H159.489ZM163.637 16.1824C164.392 16.1824 165.104 16.3709 165.712 16.7062L162.422 23.8509V16.1824H163.637ZM163.428 25.0033L166.864 17.5862C167.597 18.3614 168.037 19.43 168.037 20.5824C168.037 23.0128 166.068 25.0033 163.637 25.0033H163.428ZM179.721 13.249H178.862L171.78 27.1614V27.9366H186.3V27.1614L179.721 13.249ZM176.159 25.0033L179.218 19.0109L182.026 25.0033H176.159Z" fill="black"/>
</svg>
