<svg width="178" height="40" viewBox="0 0 178 40" fill="none" xmlns="http://www.w3.org/2000/svg">
<g clip-path="url(#clip0_298_12756)">
<path d="M170.344 1.483L167.374 7.27108C167.09 7.13753 166.796 7.02531 166.495 6.93535C165.576 6.66042 164.608 6.5893 163.659 6.72687C162.709 6.86446 161.801 7.20748 160.996 7.73216C161.247 6.0787 161.476 4.59593 161.476 4.59593C161.476 4.59593 161.825 2.91475 159.964 3.20513C158.9 3.3141 156.615 3.64984 154.861 3.9169C156.85 1.91231 159.424 0.596122 162.209 0.159464C164.994 -0.277194 167.846 0.188413 170.349 1.48868L170.344 1.483Z" fill="#FFCC04"/>
<path d="M176.022 19.4007C175.617 20.1848 175.138 20.9269 174.586 21.6159C174.231 22.0555 173.85 22.4728 173.442 22.865C171.455 24.7884 168.918 26.0408 166.186 26.4473C163.455 26.8538 160.665 26.3942 158.206 25.1327L161.319 19.0668C162.096 19.5109 162.955 19.7924 163.844 19.8944C164.731 19.9964 165.631 19.9167 166.489 19.6602C166.874 19.5439 167.249 19.3938 167.609 19.2117C168.269 18.8712 168.869 18.4219 169.381 17.8825C169.623 17.6274 169.844 17.354 170.044 17.065C170.17 16.8804 170.288 16.6914 170.394 16.498L176.022 19.4007Z" fill="url(#paint0_linear_298_12756)"/>
<path d="M177.5 13.2976C177.502 15.4217 176.996 17.5152 176.022 19.4012L170.397 16.4944C170.834 15.6961 171.102 14.8162 171.185 13.9096C171.269 13.0029 171.165 12.0887 170.882 11.2238C170.599 10.3589 170.141 9.5617 169.538 8.88179C168.934 8.20187 168.197 7.65375 167.374 7.27147L170.345 1.4834C170.687 1.66166 171.023 1.85567 171.345 2.06039C173.233 3.25974 174.787 4.91924 175.864 6.88416C176.94 8.8491 177.502 11.0555 177.5 13.2976Z" fill="url(#paint1_linear_298_12756)"/>
<path d="M161.325 19.0663L158.213 25.1328C156.036 24.0133 154.209 22.3133 152.931 20.2195C151.826 18.4078 151.174 16.3549 151.03 14.2356C151.006 13.9263 150.995 13.6056 150.995 13.2995C150.993 11.3966 151.399 9.51539 152.189 7.78485C152.274 7.59589 152.364 7.40693 152.458 7.21795C152.551 7.02899 152.666 6.84002 152.766 6.65547C152.838 6.52949 152.913 6.4035 152.988 6.2832L153.338 6.65547L155.471 8.7763L158.223 11.5063C158.121 11.868 158.051 12.2376 158.014 12.6111C157.993 12.8341 157.979 13.0609 157.979 13.2889C157.979 14.462 158.289 15.6143 158.878 16.628C159.465 17.6418 160.311 18.4808 161.329 19.0593L161.325 19.0663Z" fill="url(#paint2_linear_298_12756)"/>
<path d="M161.475 4.59865C161.475 4.59865 161.244 6.08141 160.996 7.73487C160.752 9.33291 160.489 11.0953 160.39 11.8241C160.181 13.3132 159.316 12.6014 159.316 12.6014L158.225 11.5174L153.337 6.66721L152.987 6.29431L152.004 5.23987C151.596 4.51361 152.487 4.27802 152.487 4.27802C152.487 4.27802 153.534 4.11426 154.859 3.9108C156.624 3.64372 158.899 3.308 159.961 3.19902C161.824 2.92123 161.475 4.59865 161.475 4.59865Z" fill="#1E9A48"/>
<path d="M3.40151 16.8677C3.3538 17.9263 3.33016 18.9176 3.33059 19.8415C3.331 20.7653 3.35464 21.7557 3.40151 22.8127C3.47181 24.77 4.0652 26.3556 5.18167 27.5696C6.29814 28.7836 7.90191 29.3908 9.993 29.3912C11.1229 29.3912 12.0745 29.2497 12.8477 28.9667C13.6211 28.6837 14.2614 28.3181 14.7685 27.8701C15.2585 27.4429 15.6546 26.9183 15.9316 26.3293C16.1961 25.7682 16.4029 25.1815 16.5487 24.5782C16.5646 24.462 16.6042 24.3502 16.6649 24.25C16.7255 24.1496 16.8061 24.0628 16.9015 23.995C17.0653 23.8731 17.2626 23.8051 17.4664 23.8003H19.0877C19.2929 23.802 19.4893 23.8845 19.6344 24.03C19.7795 24.1755 19.8617 24.3723 19.8636 24.5782C19.8398 25.3568 19.6399 26.2057 19.2641 27.125C18.8884 28.0441 18.3067 28.9108 17.5191 29.7251C16.732 30.5381 15.7216 31.2158 14.488 31.7583C13.2544 32.3009 11.756 32.5722 9.993 32.5722C8.46517 32.5722 7.10222 32.3306 5.90415 31.8472C4.75306 31.3948 3.70416 30.7152 2.81964 29.8486C1.95497 28.9896 1.27704 27.9601 0.828565 26.8251C0.359881 25.6572 0.101269 24.3777 0.0527269 22.9865C-0.0175756 20.8898 -0.0175756 18.7917 0.0527269 16.692C0.0874325 15.3826 0.349997 14.0892 0.828565 12.8705C1.27364 11.7276 1.95182 10.6907 2.81964 9.82619C3.70432 8.95975 4.75317 8.28014 5.90415 7.82755C7.10265 7.34505 8.46559 7.10338 9.993 7.10254C11.7552 7.10254 13.2531 7.37381 14.4868 7.91636C15.7204 8.45891 16.7308 9.13751 17.5179 9.95218C18.305 10.7656 18.8866 11.6321 19.2629 12.5517C19.6391 13.4713 19.8389 14.3202 19.8624 15.0983C19.8605 15.3042 19.7782 15.5012 19.6331 15.6467C19.488 15.7922 19.2916 15.8747 19.0865 15.8763H17.4651C17.2612 15.8718 17.0639 15.8038 16.9002 15.6817C16.8048 15.614 16.7241 15.5272 16.6634 15.4268C16.6028 15.3265 16.5632 15.2147 16.5475 15.0983C16.4015 14.4952 16.1947 13.9085 15.9304 13.3473C15.6525 12.7596 15.2565 12.2359 14.7673 11.8091C14.2618 11.361 13.6215 10.9955 12.8465 10.7125C12.0715 10.4294 11.1199 10.2879 9.99174 10.2879C7.89941 10.2879 6.29563 10.8951 5.18041 12.1096C4.0652 13.324 3.47224 14.9101 3.40151 16.8677Z" fill="#141D3E"/>
<path d="M39.4949 31.2631C39.4921 31.5159 39.3906 31.7576 39.2122 31.9362C39.0339 32.1147 38.7927 32.2159 38.5407 32.2181H37.239C36.9874 32.2153 36.747 32.1138 36.5691 31.9353C36.3913 31.7568 36.2901 31.5156 36.2874 31.2631V21.9256C36.2874 20.1098 35.8525 18.7539 34.983 17.8578C34.1134 16.9617 32.9032 16.5136 31.3524 16.5136C29.8722 16.5136 28.6796 16.9617 27.7745 17.8578C26.8694 18.7539 26.417 20.1098 26.4174 21.9256V31.2631C26.4146 31.5156 26.3135 31.7568 26.1356 31.9353C25.9578 32.1138 25.7173 32.2153 25.4658 32.2181H24.162C23.9105 32.2153 23.6701 32.1138 23.4922 31.9353C23.3144 31.7568 23.2132 31.5156 23.2105 31.2631V8.06233C23.2135 7.81005 23.3147 7.56896 23.4926 7.39055C23.6704 7.21213 23.9106 7.11052 24.162 7.10742H25.4664C25.7179 7.11052 25.9581 7.21213 26.1359 7.39055C26.3136 7.56896 26.4149 7.81005 26.418 8.06233V15.8793C26.8645 15.2872 27.5284 14.7392 28.4097 14.2353C29.291 13.7313 30.4482 13.4779 31.8815 13.4749C32.9286 13.4647 33.9686 13.6506 34.9479 14.0229C35.8526 14.3661 36.6754 14.8964 37.3626 15.5794C38.0321 16.2513 38.5553 17.0826 38.9319 18.0732C39.3085 19.0638 39.4967 20.1719 39.4967 21.3978L39.4949 31.2631Z" fill="#141D3E"/>
<path d="M42.4201 27.5849C42.4201 26.6417 42.6084 25.8165 42.985 25.1094C43.3619 24.4001 43.8915 23.7841 44.5355 23.306C45.2381 22.7871 46.017 22.3812 46.8441 22.1029C47.7567 21.7889 48.6941 21.5522 49.6462 21.3956L54.6164 20.5824V20.1225C54.6164 18.9202 54.2226 18.0175 53.435 17.414C52.6475 16.8106 51.6666 16.5105 50.4924 16.5139C49.4579 16.5139 48.6764 16.7029 48.1479 17.0807C47.6257 17.4516 47.1674 17.9055 46.7907 18.4244C46.6751 18.5926 46.517 18.727 46.3326 18.8136C46.1186 18.8929 45.8912 18.929 45.6635 18.9201H44.6058C44.4778 18.9207 44.3509 18.896 44.2324 18.8474C44.1139 18.7987 44.0061 18.7271 43.9152 18.6366C43.8207 18.5541 43.7472 18.45 43.7012 18.333C43.6552 18.216 43.638 18.0896 43.651 17.9645C43.6975 17.446 43.903 16.9154 44.2675 16.3729C44.6643 15.7994 45.1669 15.3076 45.7482 14.9241C46.4135 14.4786 47.137 14.1276 47.8981 13.881C48.7342 13.6059 49.6092 13.4685 50.4892 13.474C51.4885 13.4651 52.4826 13.6205 53.4319 13.9339C54.2921 14.2147 55.0846 14.6726 55.7587 15.2781C56.4185 15.8881 56.936 16.6367 57.274 17.4707C57.6381 18.3437 57.8204 19.3459 57.8207 20.4771V31.2635C57.8176 31.5156 57.7165 31.7566 57.5389 31.935C57.3613 32.1134 57.1211 32.2151 56.8697 32.2184H55.568C55.3164 32.2156 55.076 32.1141 54.8981 31.9356C54.7202 31.7571 54.6191 31.5159 54.6164 31.2635V29.8147C54.3875 30.2839 54.0487 30.6905 53.629 30.9995C53.1594 31.3545 52.645 31.6455 52.0993 31.865C51.5193 32.1017 50.917 32.2795 50.3015 32.3954C49.7266 32.5085 49.1424 32.5677 48.5565 32.5724C47.7009 32.5819 46.8495 32.4504 46.0362 32.1831C45.2726 31.924 44.6265 31.5762 44.098 31.14C43.576 30.7127 43.1546 30.175 42.8639 29.5652C42.568 28.9475 42.4162 28.2702 42.4201 27.5849ZM48.9061 29.5306C49.6984 29.5396 50.486 29.4079 51.2324 29.1414C51.9015 28.9032 52.5181 28.5367 53.0478 28.0624C53.5503 27.6057 53.9472 27.0444 54.2109 26.4176C54.4879 25.7452 54.6259 25.0232 54.6164 24.2956V23.4137L50.4566 24.0859C48.9765 24.3222 47.8016 24.7001 46.932 25.2196C46.0625 25.7391 45.6276 26.411 45.6276 27.2352C45.6296 27.5044 45.6897 27.7697 45.804 28.0132C45.9392 28.2972 46.1316 28.5501 46.369 28.7559C46.6616 29.0117 47.0034 29.2047 47.3733 29.3227C47.7843 29.4609 48.2952 29.5302 48.9061 29.5306Z" fill="#141D3E"/>
<path d="M78.373 31.2631C78.3699 31.5154 78.2686 31.7565 78.0909 31.9349C77.9131 32.1133 77.6729 32.2149 77.4214 32.218H76.1171C75.8655 32.2153 75.6251 32.1138 75.4472 31.9353C75.2694 31.7568 75.1683 31.5155 75.1655 31.2631V21.9256C75.1655 20.1098 74.7306 18.7539 73.8611 17.8578C72.9915 16.9616 71.7814 16.5135 70.2305 16.5135C68.7504 16.5135 67.5578 16.9616 66.6526 17.8578C65.7475 18.7539 65.2951 20.1098 65.2955 21.9256V31.2631C65.2925 31.5155 65.1911 31.7566 65.0131 31.9351C64.8353 32.1135 64.5949 32.215 64.3434 32.218H63.0403C62.7888 32.2153 62.5483 32.1138 62.3704 31.9353C62.1925 31.7568 62.0914 31.5155 62.0886 31.2631V14.7808C62.0915 14.5283 62.1928 14.287 62.3705 14.1085C62.5484 13.93 62.7888 13.8283 63.0403 13.8251H64.344C64.5955 13.8284 64.8357 13.9301 65.0136 14.1086C65.1915 14.2871 65.2929 14.5283 65.2961 14.7808V15.8768C65.7419 15.2863 66.4064 14.7391 67.2897 14.2353C68.1731 13.7313 69.3304 13.4779 70.7615 13.475C71.8089 13.4646 72.849 13.6505 73.8285 14.023C74.7331 14.366 75.5556 14.8964 76.2426 15.5794C76.9121 16.2513 77.4353 17.0825 77.8119 18.0731C78.1885 19.0638 78.3768 20.172 78.3768 21.3978L78.373 31.2631Z" fill="#141D3E"/>
<path d="M81.721 21.8575C81.7913 20.5612 82.038 19.394 82.461 18.3559C82.8841 17.3179 83.449 16.4397 84.1558 15.7212C84.8613 15.0014 85.707 14.4353 86.6403 14.0582C87.6208 13.664 88.6685 13.4659 89.7248 13.4749C91.1814 13.4749 92.3445 13.7284 93.2141 14.2352C94.0837 14.742 94.7417 15.2903 95.1882 15.8799V14.7839C95.1911 14.5314 95.2924 14.2902 95.4701 14.1117C95.648 13.9332 95.8883 13.8314 96.1399 13.8283H97.4435C97.6951 13.8315 97.9354 13.9333 98.1133 14.1118C98.2911 14.2903 98.3925 14.5314 98.3957 14.7839V31.9735C98.3957 34.426 97.7026 36.3774 96.3163 37.8278C94.9299 39.2783 92.8494 40.0018 90.075 39.9984C88.6651 39.9984 87.461 39.8285 86.4626 39.4888C85.4641 39.1492 84.6416 38.7212 83.9951 38.2052C83.3486 37.6894 82.8674 37.1268 82.5514 36.517C82.2355 35.9073 82.0651 35.3217 82.0405 34.7603C82.0279 34.6358 82.0452 34.51 82.0912 34.3937C82.1372 34.2774 82.2105 34.1739 82.3048 34.0919C82.4879 33.9109 82.7349 33.8097 82.992 33.8104H84.0491C84.2815 33.8025 84.5103 33.87 84.7013 34.0032C84.8779 34.129 85.0481 34.3798 85.2123 34.7552C85.2825 34.895 85.3942 35.0875 85.5474 35.3328C85.7006 35.578 85.9472 35.8229 86.2875 36.0673C86.6276 36.3117 87.0741 36.5217 87.627 36.6972C88.1798 36.8727 88.8789 36.96 89.7241 36.9592C90.4529 36.964 91.1799 36.8869 91.8915 36.7293C92.5179 36.5948 93.1111 36.3364 93.6365 35.969C94.1365 35.607 94.532 35.1187 94.7828 34.5537C95.0526 33.9637 95.1877 33.2443 95.1882 32.3957V30.167C94.7175 30.8037 94.0479 31.3639 93.1796 31.8477C92.3113 32.3314 91.1605 32.573 89.7273 32.5727C88.671 32.5818 87.6231 32.3834 86.6428 31.9887C85.7093 31.6124 84.8635 31.0464 84.1582 30.3264C83.4527 29.6079 82.8879 28.7297 82.4635 27.6915C82.0393 26.6535 81.7916 25.4857 81.721 24.1882C81.6971 23.8342 81.6854 23.4449 81.6858 23.0203C81.6863 22.5958 81.698 22.2082 81.721 21.8575ZM95.1857 21.7517C95.1146 20.0774 94.6151 18.7864 93.6874 17.8785C92.7596 16.9707 91.5555 16.5158 90.075 16.5142C88.5266 16.5142 87.3048 17.0094 86.4093 18C85.5138 18.9907 85.0204 20.3344 84.9291 22.0314C84.9052 22.6924 84.9052 23.3527 84.9291 24.0124C85.0225 25.7098 85.5158 27.0535 86.4093 28.0437C87.3026 29.0339 88.5246 29.5292 90.075 29.5297C91.5555 29.5297 92.7599 29.0698 93.688 28.1502C94.6163 27.2305 95.1156 25.9453 95.1864 24.2945C95.2094 23.9405 95.2211 23.516 95.2215 23.0209C95.2219 22.5259 95.21 22.1019 95.1857 21.7492V21.7517Z" fill="#141D3E"/>
<path d="M101.953 21.2544C102.038 20.2038 102.3 19.1752 102.728 18.2127C103.133 17.2968 103.695 16.4588 104.387 15.7365C105.081 15.0205 105.914 14.4547 106.835 14.0737C107.786 13.673 108.85 13.4727 110.025 13.4727C111.294 13.4727 112.428 13.679 113.426 14.0919C114.401 14.4874 115.274 15.0978 115.982 15.8777C116.687 16.6562 117.227 17.5995 117.603 18.7078C117.979 19.8159 118.167 21.0547 118.168 22.424V23.379C118.165 23.6314 118.064 23.8725 117.886 24.051C117.708 24.2294 117.467 24.331 117.216 24.3339H105.09V24.5462C105.137 26.1499 105.625 27.3819 106.553 28.2424C107.481 29.1028 108.638 29.5333 110.025 29.5337C111.317 29.5337 112.286 29.3508 112.933 28.985C113.58 28.6193 114.103 28.2125 114.502 27.7649C114.646 27.6107 114.812 27.4794 114.996 27.3757C115.136 27.3052 115.347 27.2699 115.63 27.2699H116.69C116.952 27.2713 117.204 27.3724 117.395 27.5527C117.606 27.7417 117.688 27.9657 117.641 28.2248C117.571 28.6493 117.372 29.115 117.043 29.6219C116.714 30.1287 116.238 30.6003 115.614 31.0367C114.992 31.4733 114.216 31.8389 113.288 32.1333C112.36 32.4277 111.273 32.5745 110.028 32.5742C108.853 32.5742 107.795 32.3678 106.855 31.955C105.936 31.5565 105.104 30.9797 104.407 30.2574C103.7 29.5172 103.133 28.6543 102.733 27.7108C102.301 26.6939 102.039 25.6123 101.958 24.5097C101.838 23.428 101.837 22.3364 101.953 21.2544ZM105.092 21.3602H114.995V21.2544C114.995 19.8162 114.543 18.6665 113.638 17.8058C112.733 16.9449 111.529 16.5144 110.025 16.5144C109.375 16.5087 108.73 16.6227 108.122 16.8508C107.548 17.0662 107.022 17.3904 106.57 17.8058C106.118 18.2274 105.757 18.7393 105.513 19.3087C105.248 19.9239 105.105 20.5845 105.09 21.2544L105.092 21.3602Z" fill="#141D3E"/>
<path d="M130.856 13.8252C131.107 13.8287 131.348 13.9304 131.525 14.1089C131.703 14.2874 131.804 14.5284 131.808 14.7808V15.9146C131.804 16.1668 131.703 16.4077 131.525 16.5861C131.348 16.7644 131.107 16.8661 130.856 16.8696H128.811C126.109 16.8696 124.757 18.2252 124.758 20.9367V31.2669C124.755 31.5193 124.654 31.7606 124.476 31.9391C124.298 32.1176 124.058 32.2191 123.806 32.2218H122.502C122.25 32.2191 122.01 32.1176 121.832 31.9391C121.654 31.7606 121.553 31.5193 121.55 31.2669V14.7808C121.553 14.5284 121.654 14.2872 121.832 14.1086C122.01 13.9301 122.25 13.8283 122.502 13.8252H123.806C124.058 13.8283 124.298 13.9301 124.476 14.1086C124.654 14.2872 124.755 14.5284 124.758 14.7808V15.8768C125.227 15.1697 125.793 14.6511 126.453 14.3209C127.113 13.9909 127.971 13.8257 129.026 13.8252H130.856Z" fill="#141D3E"/>
<path d="M132.406 27.5854C132.406 26.6423 132.595 25.8171 132.971 25.1099C133.349 24.401 133.877 23.785 134.521 23.3065C135.224 22.7878 136.002 22.3819 136.83 22.1035C137.742 21.7894 138.68 21.5528 139.633 21.3961L144.603 20.5829V20.1231C144.603 18.9209 144.209 18.018 143.421 17.4145C142.635 16.8111 141.654 16.5111 140.48 16.5144C139.445 16.5144 138.664 16.7034 138.136 17.0814C137.613 17.4516 137.154 17.9053 136.776 18.4243C136.66 18.5924 136.503 18.7268 136.318 18.8135C136.104 18.8928 135.876 18.9289 135.649 18.92H134.591C134.335 18.9206 134.088 18.8186 133.905 18.6365C133.81 18.554 133.738 18.4499 133.691 18.3329C133.645 18.2159 133.628 18.0896 133.64 17.9644C133.688 17.4459 133.893 16.9153 134.258 16.3728C134.654 15.7993 135.156 15.3075 135.737 14.924C136.402 14.4785 137.126 14.1275 137.887 13.8809C138.724 13.6058 139.599 13.4684 140.479 13.474C141.478 13.465 142.473 13.6204 143.421 13.9338C144.281 14.2148 145.074 14.6725 145.748 15.278C146.408 15.888 146.925 16.6366 147.264 17.4706C147.627 18.3436 147.81 19.3458 147.81 20.4771V31.2639C147.808 31.5164 147.706 31.7576 147.528 31.9361C147.35 32.1146 147.11 32.2161 146.859 32.2189H145.554C145.303 32.2161 145.062 32.1146 144.884 31.9361C144.706 31.7576 144.605 31.5164 144.603 31.2639V29.8153C144.374 30.2836 144.036 30.6898 143.617 30.9988C143.148 31.3545 142.631 31.6459 142.085 31.8655C141.505 32.1024 140.903 32.28 140.288 32.3959C139.713 32.509 139.129 32.5683 138.543 32.5729C137.686 32.5824 136.835 32.4509 136.023 32.1836C135.259 31.9245 134.613 31.5768 134.084 31.1405C133.561 30.713 133.14 30.1754 132.85 29.5658C132.554 28.9481 132.403 28.2708 132.406 27.5854ZM138.893 29.5311C139.684 29.5403 140.473 29.4085 141.219 29.1419C141.888 28.9041 142.504 28.5376 143.034 28.0629C143.536 27.6066 143.934 27.0453 144.196 26.4183C144.474 25.7458 144.611 25.0238 144.603 24.2961V23.4143L140.444 24.0864C138.963 24.3228 137.789 24.7008 136.919 25.2201C136.049 25.7396 135.614 26.4115 135.614 27.2358C135.616 27.5049 135.676 27.7703 135.791 28.0138C135.926 28.2976 136.119 28.5505 136.355 28.7564C136.649 29.0123 136.99 29.2051 137.36 29.3233C137.77 29.4614 138.281 29.5308 138.893 29.5311Z" fill="#141D3E"/>
</g>
<defs>
<linearGradient id="paint0_linear_298_12756" x1="163.147" y1="27.1218" x2="170.413" y2="16.9673" gradientUnits="userSpaceOnUse">
<stop stop-color="#4270B7"/>
<stop offset="0.46" stop-color="#4270B7"/>
<stop offset="0.56" stop-color="#446FB5"/>
<stop offset="0.63" stop-color="#4C6EAE"/>
<stop offset="0.69" stop-color="#5D69A1"/>
<stop offset="0.74" stop-color="#71638F"/>
<stop offset="0.8" stop-color="#8F5C78"/>
<stop offset="0.83" stop-color="#A65564"/>
<stop offset="0.93" stop-color="#C8343E"/>
<stop offset="0.99" stop-color="#DB2428"/>
</linearGradient>
<linearGradient id="paint1_linear_298_12756" x1="181.181" y1="17.7616" x2="167.849" y2="6.77851" gradientUnits="userSpaceOnUse">
<stop offset="0.65" stop-color="#DB2428"/>
<stop offset="0.68" stop-color="#DC2828"/>
<stop offset="0.72" stop-color="#DD3626"/>
<stop offset="0.76" stop-color="#E04927"/>
<stop offset="0.8" stop-color="#E46325"/>
<stop offset="0.84" stop-color="#E98624"/>
<stop offset="0.86" stop-color="#EE9421"/>
<stop offset="0.92" stop-color="#F5B11A"/>
<stop offset="0.97" stop-color="#FCC513"/>
<stop offset="1" stop-color="#FFCC04"/>
</linearGradient>
<linearGradient id="paint2_linear_298_12756" x1="147.953" y1="10.0285" x2="160.608" y2="19.57" gradientUnits="userSpaceOnUse">
<stop stop-color="#1E9A48"/>
<stop offset="0.57" stop-color="#1E9A48"/>
<stop offset="0.9" stop-color="#4270B7"/>
</linearGradient>
<clipPath id="clip0_298_12756">
<rect width="177.5" height="40" fill="white"/>
</clipPath>
</defs>
</svg>
