<svg width="175" height="40" viewBox="0 0 175 40" fill="none" xmlns="http://www.w3.org/2000/svg">
<g clip-path="url(#clip0_298_12598)">
<path fill-rule="evenodd" clip-rule="evenodd" d="M150.814 25.3955C150.814 24.4784 151.32 23.3907 151.91 22.9759C154.27 21.3165 159.765 22.3817 159.765 25.3955C159.765 28.1469 154.461 29.5304 152.04 27.8576C151.392 27.4091 150.814 26.4516 150.814 25.3955ZM148.575 15.4572C148.575 16.6501 149.484 17.5852 150.639 17.5852C151.15 17.5852 155.219 14.5244 158.772 16.8317C159.874 17.5449 159.762 17.9979 159.762 19.7155C156.636 17.5582 151.585 17.87 149.042 20.1999C146.23 22.7786 146.47 28.3756 149.084 30.544C152.171 33.107 156.692 33.1317 159.934 30.8937C160.147 31.7167 160.98 32.367 161.916 32.219C162.777 32.0822 163.55 31.2862 163.55 30.3624V17.9395C163.55 17.0066 163.069 15.9954 162.692 15.4527C158.827 9.8669 148.575 12.2371 148.575 15.4572Z" fill="black"/>
<path fill-rule="evenodd" clip-rule="evenodd" d="M112.427 22.3756C112.427 15.8861 119.603 13.3163 122.359 19.5904C125.124 25.8827 117.175 31.955 113.423 25.7862C112.927 24.9722 112.429 23.6381 112.429 22.3733L112.427 22.3756ZM122.927 14.2132C122.441 14.0787 122.239 13.8231 121.872 13.5271C119.653 11.7489 116.466 11.7735 114.032 13.0271C109.099 15.5654 106.836 23.2299 111.119 28.8694C113.399 31.8675 117.53 33.1434 120.982 31.3721C121.874 30.9146 122.207 30.5042 122.927 30.0064C122.987 32.8138 126.37 32.2802 126.37 30.1836V9.2441C126.37 7.07346 122.896 6.12269 122.92 9.76881C122.929 11.2488 122.927 12.7311 122.927 14.2132Z" fill="black"/>
<path fill-rule="evenodd" clip-rule="evenodd" d="M139.28 19.7155H132.911V11.3738H139.28C143.899 11.3738 144.082 19.7155 139.28 19.7155ZM129.124 9.77725V29.6516C129.124 33.4749 132.911 32.5936 132.911 30.5395V23.7966C137.426 23.7966 141.479 24.4694 144.32 21.5409C149.066 16.6457 146.447 7.29492 138.59 7.29492H131.534C130.026 7.29492 129.124 8.22776 129.124 9.7795V9.77725Z" fill="black"/>
<path fill-rule="evenodd" clip-rule="evenodd" d="M99.6885 16.5222C103.034 16.5222 103.628 18.343 104.681 20.6033H95.5578C95.7034 18.7982 97.672 16.5222 99.6906 16.5222H99.6885ZM91.9424 21.4913C91.9424 24.4938 92.0708 26.1397 93.7631 28.6647C96.9978 33.4948 103.041 32.9924 105.742 29.5056C106.734 28.2274 107.628 27.1353 106.617 25.7092C105.09 23.5566 103.284 26.9426 103.184 27.0457C100.163 30.1671 95.81 27.4291 95.5599 24.3323C97.3326 24.3323 106.615 24.6598 107.482 24.0252C108.081 23.5879 108.35 22.9017 108.235 21.9286C107.917 19.2511 107.313 17.1276 105.507 15.1431C102.16 11.4678 96.343 11.9118 93.4564 16.6635C92.8495 17.6636 91.9446 19.953 91.9446 21.4936L91.9424 21.4913Z" fill="black"/>
<path fill-rule="evenodd" clip-rule="evenodd" d="M60.9559 19.1835C60.9559 23.0382 61.8869 26.1058 64.1817 28.4581C68.0406 32.4136 73.668 33.4069 78.1011 30.6465C83.4479 27.3167 80.148 25.3949 79.7195 25.3949C77.5095 25.3949 78.7755 25.664 76.2065 27.2763C68.8411 31.8934 60.7796 21.8474 66.705 13.934C68.7192 11.2454 72.8501 10.2476 76.2065 12.3375C77.9685 13.4363 78.2381 14.396 79.2017 14.396C80.6461 14.396 83.2977 12.1716 77.7531 8.79227C73.383 6.12832 68.0406 7.18225 64.4406 10.8912C63.2311 12.1379 62.9135 12.6761 62.1 14.3354C61.4409 15.6832 60.9536 17.246 60.9536 19.188L60.9559 19.1835Z" fill="black"/>
<path fill-rule="evenodd" clip-rule="evenodd" d="M164.756 9.77967V29.8311C164.756 33.0736 168.544 32.6856 168.544 30.542V9.07107C168.544 6.84213 164.756 6.45644 164.756 9.78191V9.77967Z" fill="black"/>
<path fill-rule="evenodd" clip-rule="evenodd" d="M86.0889 14.9258C85.643 13.2015 82.6455 13.8226 82.6455 15.6367V30.5418C82.6455 32.347 85.5016 32.865 86.2455 31.0598C86.8308 29.636 85.9824 20.9535 86.648 19.4085C87.9945 16.2892 90.6591 17.98 92.0013 17.2983C93.3478 16.6166 93.9481 13.6836 89.702 13.6836C87.927 13.6836 87.1418 14.1971 86.0868 14.9258H86.0889Z" fill="black"/>
<path fill-rule="evenodd" clip-rule="evenodd" d="M169.749 30.3642C169.749 33.1604 174.397 33.9252 174.397 30.0099C174.397 27.2248 169.749 27.1352 169.749 30.3642Z" fill="black"/>
<path fill-rule="evenodd" clip-rule="evenodd" d="M0 19.9012C0 25.0654 2.11434 30.4785 5.50772 33.9475C12.1488 40.7375 21.8221 41.9439 29.8248 36.9097C30.5361 36.4635 31.689 35.5755 32.248 35.0059C37.0336 30.1175 36.2156 28.8484 36.2156 21.8386V13.3849C36.2156 10.685 37.0596 9.06822 38.2386 7.54564C39.7374 5.6127 42.0301 4.93325 44.5882 4.93325C50.8029 4.93325 54.7161 13.3871 49.761 18.7195C48.0164 20.5964 45.0015 21.6211 42.2673 20.8834C41.3819 20.6434 41.3797 20.4304 40.316 20.4304C38.1539 20.4304 36.9096 24.0541 39.8223 25.1641C44.3773 26.8997 48.8083 25.6866 52.4212 22.693C60.5459 15.9636 56.5086 0 44.0749 0C41.9801 0 39.596 0.726534 38.2104 1.52706C35.0694 3.3434 32.6614 6.3482 31.8761 10.1423C31.3975 12.452 31.602 21.9417 31.6041 25.0071C31.6064 28.6846 30.8646 30.5055 27.9171 32.4765C22.1049 36.3626 14.2283 36.1249 9.35356 31.0391C8.18328 29.8193 7.013 28.4268 6.26036 26.8324C3.87629 21.7781 4.33526 15.8134 7.44587 11.1985C7.77869 10.7029 7.9005 10.6558 8.22461 10.241C8.55525 9.81942 8.6118 9.70057 9.00988 9.28798C10.9284 7.29674 14.6916 4.93325 18.4505 4.93325C20.4821 4.93325 21.2782 4.83908 23.3078 5.38621C24.8283 5.79658 24.6281 6.16657 26.4792 6.16657C28.0432 6.16657 28.3587 4.57224 28.3587 3.35012C28.3587 0.955257 22.2115 0.00448478 19.475 0.00448478C16.1925 0.00448478 13.8911 0.791564 11.5897 1.73785C10.4368 2.21324 9.4819 2.8142 8.50521 3.48916C7.99186 3.84345 7.62206 4.16188 7.15004 4.55877C6.87812 4.7875 6.7933 4.91531 6.53226 5.15525C4.99654 6.56571 3.68922 8.0569 2.67555 9.98311C2.32099 10.6581 2.08824 10.9339 1.78153 11.703C0.804841 14.1473 0.00217525 16.5264 0.00217525 19.9058L0 19.9012Z" fill="black"/>
</g>
<defs>
<clipPath id="clip0_298_12598">
<rect width="175" height="40" fill="white"/>
</clipPath>
</defs>
</svg>
