<svg width="192" height="40" viewBox="0 0 192 40" fill="none" xmlns="http://www.w3.org/2000/svg">
<g clip-path="url(#clip0_298_12209)">
<path d="M20.1288 40C7.33654 39.9033 -0.244574 32.2044 0.00653733 19.5778C0.245426 7.49556 8.0832 -0.100001 20.2132 -1.09215e-06C32.8165 0.105554 40.7388 7.95555 40.5065 20.1089C40.2654 32.7756 32.7843 40.0911 20.1288 40ZM4.7732 12.4522C5.9032 12.6189 6.36654 12.0244 6.91987 11.5922C9.13745 9.77486 11.731 8.47276 14.5132 7.78C17.2929 7.08762 20.1918 7.02234 22.9999 7.58889C29.2799 8.71444 32.8699 13.5633 31.4699 19.3444C30.3543 23.9411 23.5621 27.1033 18.4121 25.4889C17.4232 25.18 16.701 24.7533 16.701 23.6744C16.701 22.4256 17.5754 21.8744 18.6776 21.7744C19.9965 21.6567 21.3354 21.7233 22.6599 21.6567C25.431 21.5189 27.341 20.2644 27.7999 17.4111C28.1976 14.9122 26.5554 12.3 24.0832 11.3933C22.1362 10.7483 20.0736 10.5282 18.0343 10.7478C11.5076 11.2222 7.33654 14.2 5.68098 19.4722C4.93231 21.9149 4.9184 24.5239 5.64098 26.9744C6.36256 29.4224 7.78983 31.6033 9.74432 33.2444C16.441 38.6589 29.2488 37.0867 34.3365 30.2C34.8099 29.5311 35.7554 28.88 35.0032 27.8256C33.9254 27.7967 33.4199 28.7 32.7143 29.2178C27.6876 32.9311 22.1165 33.7522 16.1621 32.2178C10.4443 30.7422 7.4932 25.57 9.22876 20.3456C10.691 15.9289 17.6621 12.8789 22.3099 14.6133C23.2565 14.9689 23.9232 15.5633 23.8332 16.6178C23.7443 17.6722 22.9676 18.1989 21.9743 18.2889C20.7543 18.4033 19.5254 18.3933 18.3043 18.46C14.871 18.65 13.0132 20.1367 12.7099 22.91C12.4076 25.6833 14.2943 28.1344 17.221 28.9611C20.5043 29.9111 23.6765 29.3078 26.8654 28.4389C31.3388 27.2133 34.1521 24.2878 35.0754 19.89C36.0643 15.1789 35.1421 10.7 31.3576 7.37555C23.8743 0.808888 8.57098 3.02667 4.7732 12.4544V12.4522ZM62.0832 19.5333C62.0832 17.7244 61.5299 16.2978 60.4232 15.2556C59.3165 14.2122 57.9121 13.68 56.1876 13.68C54.3576 13.68 52.8676 14.2556 51.7399 15.4256C50.6121 16.5744 50.0376 18.0222 50.0376 19.7889C50.0376 21.5122 50.591 22.96 51.6754 24.13C52.7821 25.3 54.3576 25.8967 56.4221 25.8967C58.401 25.8967 60.1032 25.3633 61.5299 24.2789L60.2099 22.0011C59.1032 22.7467 57.891 23.13 56.571 23.13C54.8688 23.13 53.8043 22.4067 53.3999 20.9378H61.9765C62.0399 20.4056 62.0832 19.9378 62.0832 19.5333ZM56.1876 16.3833C57.571 16.3833 58.5499 17.2133 58.8688 18.5544H53.3788C53.741 17.1922 54.8254 16.3833 56.1876 16.3833ZM68.6499 21.1289L65.9465 13.9789H62.2643L67.2865 25.62H69.9054L74.9488 13.9789H71.3099L68.6499 21.1289ZM81.4421 25.96C83.2932 25.96 84.8254 25.3644 85.9965 24.1933C87.1665 23.0022 87.7632 21.5333 87.7632 19.81C87.7632 18.0856 87.1665 16.6178 85.9965 15.4467C84.8254 14.2556 83.2932 13.6589 81.441 13.6589C79.591 13.6589 78.0799 14.2556 76.9088 15.4478C75.7388 16.6178 75.1643 18.0856 75.1643 19.81C75.1643 21.5333 75.7388 23.0022 76.9088 24.1933C78.0799 25.3644 79.5899 25.96 81.4421 25.96ZM84.421 19.7889C84.421 20.6611 84.1232 21.3844 83.5488 21.9811C83.2756 22.2624 82.9479 22.485 82.5856 22.6349C82.2233 22.7849 81.8341 22.8593 81.4421 22.8533C80.6121 22.8533 79.9088 22.5556 79.3354 21.98C78.761 21.3844 78.4832 20.6611 78.4832 19.7889C78.4832 18.9589 78.761 18.2344 79.3354 17.66C79.6044 17.3719 79.931 17.1435 80.2939 16.9896C80.6568 16.8357 81.048 16.7597 81.4421 16.7667C82.2721 16.7667 82.9743 17.0644 83.5488 17.66C84.1232 18.2344 84.421 18.9589 84.421 19.7889ZM93.0665 9.44444H89.7254V25.6411H93.0665V9.44444ZM100.863 21.1289L98.161 13.9789H94.4776L99.4999 25.62H102.118L107.162 13.9789H103.522L100.863 21.1289ZM119.444 19.5333C119.444 17.7244 118.891 16.2978 117.784 15.2556C116.678 14.2122 115.273 13.68 113.55 13.68C111.72 13.68 110.23 14.2556 109.102 15.4256C107.973 16.5744 107.399 18.0222 107.399 19.7889C107.399 21.5122 107.952 22.96 109.038 24.13C110.144 25.3 111.72 25.8967 113.783 25.8967C115.763 25.8967 117.465 25.3633 118.891 24.2789L117.572 22.0011C116.465 22.7467 115.252 23.13 113.933 23.13C112.23 23.13 111.167 22.4067 110.762 20.9378H119.339C119.402 20.4056 119.444 19.9378 119.444 19.5333ZM113.55 16.3833C114.933 16.3833 115.912 17.2133 116.231 18.5544H110.74C111.102 17.1922 112.188 16.3833 113.55 16.3833ZM132.275 25.8967C134.723 25.8967 136.788 24.6833 137.809 22.7889L135.107 21.1933C134.617 22.1511 133.531 22.8322 132.361 22.8322C131.51 22.8322 130.808 22.5544 130.233 21.98C129.68 21.4056 129.403 20.6611 129.403 19.7889C129.403 18.9378 129.68 18.2133 130.254 17.6389C130.829 17.0644 131.531 16.7667 132.403 16.7667C133.574 16.7667 134.489 17.32 135.17 18.4267L137.831 17C136.873 14.8722 134.744 13.68 132.34 13.68C130.488 13.68 128.999 14.2556 127.828 15.4044C126.658 16.5322 126.083 18.0011 126.083 19.7889C126.083 21.5767 126.658 23.0444 127.807 24.1944C128.955 25.3222 130.445 25.8967 132.275 25.8967ZM142.884 25.6411V20.32C142.884 17.9367 143.97 16.8722 145.609 16.8722C146.098 16.8722 146.588 16.9578 147.077 17.1278L147.353 13.9356C146.891 13.7592 146.401 13.6656 145.907 13.6589C144.523 13.6589 143.48 14.2767 142.735 15.49V13.9789H139.543V25.6411H142.884ZM159.868 19.5333C159.868 17.7244 159.314 16.2978 158.208 15.2556C157.101 14.2122 155.697 13.68 153.973 13.68C152.143 13.68 150.653 14.2556 149.525 15.4256C148.398 16.5744 147.822 18.0222 147.822 19.7889C147.822 21.5122 148.375 22.96 149.461 24.13C150.568 25.3 152.143 25.8967 154.208 25.8967C156.187 25.8967 157.889 25.3633 159.314 24.2789L157.995 22.0011C156.889 22.7467 155.675 23.13 154.357 23.13C152.653 23.13 151.59 22.4067 151.185 20.9378H159.762C159.825 20.4056 159.868 19.9378 159.868 19.5333ZM153.973 16.3833C155.357 16.3833 156.335 17.2133 156.654 18.5544H151.164C151.525 17.1922 152.611 16.3833 153.973 16.3833ZM170.357 15.1067C169.442 14.1489 168.313 13.68 166.994 13.68C165.355 13.68 163.993 14.2767 162.887 15.4467C161.801 16.6178 161.248 18.0644 161.248 19.81C161.248 21.5767 161.801 23.0233 162.887 24.1933C163.993 25.3644 165.355 25.9389 166.994 25.9389C168.399 25.9389 169.548 25.4278 170.463 24.3856V25.6411H173.698V9.44444H170.357V15.1067ZM170.527 19.7889C170.527 20.6611 170.25 21.4056 169.675 22.0022C169.122 22.5978 168.42 22.8956 167.548 22.8956C166.675 22.8956 165.972 22.5978 165.398 22.0022C164.844 21.4056 164.568 20.6611 164.568 19.7889C164.568 18.9378 164.844 18.2133 165.398 17.6178C165.972 17.0222 166.675 16.7244 167.548 16.7244C168.42 16.7244 169.122 17.0222 169.675 17.6178C170.25 18.2133 170.527 18.9378 170.527 19.7889ZM178.033 12.7867C179.14 12.7867 180.012 11.9356 180.012 10.8078C180.016 10.5467 179.968 10.2874 179.87 10.0454C179.772 9.80333 179.626 9.58344 179.442 9.39875C179.257 9.21406 179.038 9.06835 178.796 8.97026C178.554 8.87218 178.294 8.82372 178.033 8.82778C176.905 8.82778 176.033 9.68 176.033 10.8078C176.033 11.9356 176.905 12.7867 178.033 12.7867ZM179.672 13.9789H176.331V25.6411H179.672V13.9778V13.9789ZM189.98 22.3211C189.234 22.7044 188.597 22.8956 188.064 22.8956C187.021 22.8956 186.511 22.2356 186.511 20.9167V16.7444H190.257V13.9778H186.511V9.85H183.191V13.9789H181.318V16.7456H183.169V21.2356C183.169 24.3644 184.552 25.9389 187.341 25.9389C188.724 25.9389 189.915 25.62 190.915 24.9811L189.98 22.3211Z" fill="black"/>
</g>
<defs>
<clipPath id="clip0_298_12209">
<rect width="191.111" height="40" fill="white"/>
</clipPath>
</defs>
</svg>
