<svg width="230" height="40" viewBox="0 0 230 40" fill="none" xmlns="http://www.w3.org/2000/svg">
<g clip-path="url(#clip0_298_13387)">
<path fill-rule="evenodd" clip-rule="evenodd" d="M66.694 28.7619H47.3471C47.5647 30.3673 48.3539 31.8095 49.5783 32.8435C50.8028 33.8503 52.3266 34.3401 54.2314 34.3401C56.4083 34.3673 58.5035 33.5238 60.0273 31.9728L65.0886 34.3673C63.9457 36.0544 62.3675 37.4422 60.5443 38.3401C58.7756 39.2109 56.6804 39.619 54.2586 39.619C50.5035 39.619 47.4287 38.4217 45.0613 36.0544C42.694 33.687 41.5239 30.7211 41.5239 27.1292C41.5239 23.4558 42.694 20.4353 45.0613 18.0136C47.4287 15.5918 50.3675 14.3945 53.9321 14.3945C57.7144 14.3945 60.7892 15.5918 63.1566 18.0136C65.5239 20.4353 66.694 23.619 66.694 27.5918V28.7619ZM60.6804 24.0272C60.2994 22.6939 59.4559 21.551 58.3403 20.7619C57.143 19.9183 55.728 19.483 54.2586 19.5102C52.6804 19.483 51.1294 19.9728 49.8505 20.8979C49.0613 21.4966 48.3266 22.5306 47.6464 24L60.6804 24.0272Z" fill="black"/>
<path fill-rule="evenodd" clip-rule="evenodd" d="M69.1157 15.2108H74.2858V18.2312C74.7756 17.1428 75.5375 16.1904 76.5171 15.5101C77.415 14.9115 78.4763 14.585 79.5647 14.585C80.4082 14.6122 81.2518 14.8026 82.0137 15.2108L80.1361 20.3809C79.5919 20.0816 79.0205 19.8911 78.3946 19.8367C77.4695 19.8367 76.6803 20.4081 76.0545 21.5509C75.4286 22.6938 75.1021 24.9523 75.1021 28.2992L75.1293 29.4693V39.1836H69.1429L69.1157 15.2108Z" fill="black"/>
<path fill-rule="evenodd" clip-rule="evenodd" d="M93.9321 14.4219C96.1634 14.4219 98.3675 14.9933 100.327 16.109C104.245 18.313 106.667 22.4763 106.667 26.9933C106.667 29.2246 106.095 31.4015 104.98 33.3334C103.891 35.2654 102.313 36.8709 100.381 37.9593C98.4219 39.0749 96.2178 39.6464 93.9593 39.6192C90.6396 39.6736 87.4559 38.3402 85.143 35.9457C82.7484 33.6055 81.4423 30.3675 81.4968 27.0205C81.4968 23.2654 82.8845 20.1362 85.6328 17.6328C88.0274 15.4831 90.8029 14.4219 93.9321 14.4219ZM94.041 20.0817C92.2723 20.0273 90.5852 20.7348 89.3607 22.0409C88.109 23.347 87.4831 25.0069 87.4831 27.0477C87.4831 29.143 88.109 30.83 89.3335 32.1089C90.5308 33.3879 92.2451 34.0953 94.0138 34.0409C95.7825 34.0953 97.4968 33.3607 98.7212 32.0817C99.9729 30.7756 100.599 29.0885 100.599 27.0205C100.599 24.9525 99.9729 23.2926 98.7485 22.0137C97.524 20.7348 95.9457 20.0817 94.041 20.0817Z" fill="black"/>
<path fill-rule="evenodd" clip-rule="evenodd" d="M115.483 5.76855V17.6869C116.49 16.6529 117.687 15.8094 119.02 15.2379C120.299 14.6937 121.687 14.4216 123.075 14.4216C126.204 14.4216 128.871 15.5917 131.048 17.959C133.252 20.3264 134.34 23.3468 134.34 27.0747C134.34 30.6393 133.197 33.6325 130.939 36.0543C128.68 38.4488 125.986 39.6733 122.884 39.6733C121.551 39.6733 120.245 39.4284 119.02 38.9386C117.714 38.3672 116.517 37.5509 115.483 36.5169V39.0475H109.497V5.76855H115.483ZM121.823 19.9726C120.054 19.9182 118.34 20.6257 117.088 21.9046C115.837 23.2107 115.211 24.8978 115.211 26.9658C115.211 29.0883 115.837 30.8298 117.088 32.1359C118.313 33.442 120.027 34.1495 121.823 34.1223C123.592 34.1495 125.279 33.4148 126.476 32.1087C127.728 30.7754 128.354 29.0611 128.354 26.993C128.354 24.925 127.728 23.2379 126.503 21.9318C125.279 20.6529 123.592 19.9182 121.823 19.9726Z" fill="black"/>
<path fill-rule="evenodd" clip-rule="evenodd" d="M148.626 14.4219C150.857 14.4219 153.061 14.9933 155.021 16.109C158.939 18.313 161.361 22.4763 161.361 26.9933C161.361 29.2246 160.789 31.4015 159.674 33.3334C158.585 35.2654 157.007 36.8709 155.075 37.9593C153.116 39.0749 150.912 39.6464 148.653 39.6192C145.333 39.6736 142.15 38.3402 139.837 35.9457C137.442 33.6055 136.136 30.3675 136.191 27.0205C136.191 23.2654 137.578 20.1362 140.327 17.6328C142.721 15.4831 145.497 14.4219 148.626 14.4219ZM148.735 20.0817C146.966 20.0273 145.279 20.7348 144.055 22.0409C142.803 23.347 142.177 25.0069 142.177 27.0477C142.177 29.143 142.803 30.83 144.027 32.1089C145.225 33.3879 146.939 34.0953 148.708 34.0409C150.476 34.0953 152.191 33.3607 153.415 32.0817C154.667 30.7756 155.293 29.0885 155.293 27.0205C155.293 24.9525 154.667 23.2926 153.442 22.0137C152.218 20.7348 150.64 20.0817 148.735 20.0817Z" fill="black"/>
<path fill-rule="evenodd" clip-rule="evenodd" d="M164.816 6.17676H170.83V15.0203H174.422V20.1904H170.857V38.9931H164.843V20.2176H161.769V15.0475H164.843V6.17676H164.816Z" fill="black"/>
<path fill-rule="evenodd" clip-rule="evenodd" d="M179.918 5.14281C180.952 5.1156 181.932 5.55097 182.639 6.28566C183.374 7.02036 183.782 8.02716 183.782 9.06117C183.809 10.0952 183.401 11.0748 182.667 11.8095C181.959 12.5442 181.007 12.9523 179.973 12.9523C178.939 12.9795 177.932 12.5442 177.224 11.7823C176.49 11.0476 176.082 10.0136 176.082 8.97954C176.082 6.85709 177.796 5.14281 179.918 5.14281ZM176.898 15.0204H182.911V39.0204H176.898V15.0204Z" fill="black"/>
<path fill-rule="evenodd" clip-rule="evenodd" d="M210.258 20.0547L205.224 22.803C204.435 21.9322 203.483 21.2247 202.422 20.7621C201.388 20.354 200.299 20.1635 199.184 20.1907C196.925 20.1907 195.102 20.871 193.714 22.2043C192.326 23.5377 191.619 25.2792 191.619 27.3744C191.619 29.4152 192.299 31.0751 193.632 32.3812C194.966 33.6601 196.735 34.3132 198.911 34.3132C201.605 34.3132 203.701 33.388 205.197 31.5649L209.959 34.8302C207.374 38.1771 203.755 39.8642 199.075 39.8642C194.857 39.8642 191.564 38.6125 189.17 36.1091C186.775 33.6057 185.578 30.6941 185.578 27.32C185.551 22.6941 188.081 18.4492 192.163 16.2996C194.313 15.1567 196.707 14.5853 199.156 14.6125C201.388 14.5581 203.564 15.0479 205.578 16.0275C207.456 16.9254 209.061 18.3404 210.258 20.0547Z" fill="black"/>
<path fill-rule="evenodd" clip-rule="evenodd" d="M228.517 18.3945L224.789 22.1224C223.266 20.6258 221.905 19.8639 220.653 19.8639C220.082 19.8367 219.538 19.9728 219.075 20.2993C218.721 20.5442 218.504 20.9524 218.504 21.3605C218.504 21.687 218.64 22.0136 218.857 22.2585C219.102 22.5306 219.701 22.9115 220.653 23.3741L222.857 24.4626C225.17 25.6054 226.776 26.7755 227.646 27.9728C229.714 30.966 229.279 35.0204 226.612 37.4966C225.034 38.9115 222.939 39.6462 220.327 39.6462C216.817 39.6462 214.041 38.2857 211.946 35.5374L215.646 31.5102C216.354 32.3265 217.17 33.0068 218.123 33.4966C218.885 33.9592 219.755 34.2041 220.653 34.2585C221.334 34.2857 222.014 34.0952 222.558 33.687C222.993 33.3877 223.266 32.8979 223.293 32.3537C223.293 31.4285 222.422 30.5306 220.653 29.6326L218.612 28.6258C214.721 26.6666 212.789 24.2177 212.789 21.2789C212.762 19.4013 213.578 17.6326 214.993 16.4081C216.463 15.0748 218.34 14.3945 220.599 14.3945C223.755 14.3945 226.667 15.8639 228.517 18.3945Z" fill="black"/>
<path fill-rule="evenodd" clip-rule="evenodd" d="M30.2041 0L15.5918 19.0476H1.71429L10.6939 25.7687L0 39.2925H7.26531L15.3469 28.4626L30.2313 39.2925H38.1225V0H30.2041ZM30.0136 38.449L19.0476 24.5714L30.0136 10.3401V38.449Z" fill="black"/>
</g>
<defs>
<clipPath id="clip0_298_13387">
<rect width="230" height="40" fill="white"/>
</clipPath>
</defs>
</svg>
