<svg width="40" height="40" viewBox="0 0 40 40" fill="none" xmlns="http://www.w3.org/2000/svg">
<path d="M6.53231 15.1116L6.67191 14.3252H3.27991C2.92391 14.3252 2.58551 14.6096 2.51551 14.9652L1.20591 22.3904C1.13911 22.7504 1.37431 23.042 1.73511 23.0436H5.43991L5.57791 22.2584H2.39591L2.98391 18.9248H5.56911L5.70431 18.1524H3.11991L3.65711 15.1124L6.53231 15.1116Z" fill="#00577A"/>
<path d="M8.20395 23.1729C6.70875 23.1729 5.84395 21.8301 6.23035 19.6245C6.62595 17.3809 7.95755 16.0889 9.47835 16.0889C10.314 16.0889 10.724 16.3561 10.9068 16.5449L10.5272 17.1917C10.3508 17.0393 10.0772 16.8629 9.57035 16.8629C8.32795 16.8629 7.64755 17.9893 7.36635 19.5865C7.07715 21.2213 7.46195 22.3497 8.56635 22.3497C9.03515 22.3497 9.37995 22.1973 9.66435 22.0209L9.81995 22.7169C9.51155 22.9569 8.96675 23.1729 8.20555 23.1729" fill="#00577A"/>
<path d="M14.0323 16.7997C12.7279 16.7997 12.2163 18.2569 11.9715 19.6377C11.7267 21.0185 11.7647 22.3997 13.0439 22.3997C14.3503 22.3997 14.8363 21.0045 15.0763 19.6365C15.3163 18.2685 15.3371 16.7997 14.0323 16.7997ZM12.9091 23.1729C11.0451 23.1729 10.5047 21.6393 10.8575 19.6373C11.2175 17.5973 12.3067 16.0889 14.1451 16.0889C16.0203 16.0889 16.5527 17.5969 16.1919 19.6373C15.8399 21.6397 14.7599 23.1729 12.9091 23.1729Z" fill="#00577A"/>
<path d="M26.5349 19.1685C24.7749 19.3829 23.6825 19.7501 23.4397 21.1325C23.2649 22.1209 23.7997 22.5261 24.8157 22.5261C25.2445 22.5261 25.6785 22.4513 25.9837 22.2989L26.5349 19.1685ZM24.6121 23.1729C22.8389 23.1729 22.1509 22.4005 22.3721 21.1581C22.6921 19.3449 24.4825 18.8141 26.6385 18.5981L26.7117 18.1801C26.8977 17.1281 26.3177 16.8245 25.4421 16.8245C24.7841 16.8245 24.1329 17.0645 23.7197 17.2553L23.5685 16.5957C24.2486 16.2669 24.9935 16.0938 25.7489 16.0889C27.0169 16.0889 28.0369 16.6341 27.7413 18.3057L26.9657 22.6913C26.3949 22.9837 25.5625 23.1713 24.6121 23.1713" fill="#00577A"/>
<path d="M31.6689 23.046L32.5333 18.1424C32.6461 17.5084 32.5017 16.8124 31.3369 16.8124C30.7029 16.8124 30.3821 16.8996 30.0021 17.0524L28.9437 23.046H27.8301L28.9709 16.5708C29.6321 16.28 30.4629 16.0908 31.5513 16.0908C33.4537 16.0908 33.8253 17.1428 33.6537 18.1184L32.7845 23.046H31.6689Z" fill="#00577A"/>
<path d="M38.4668 24.6156H0.815186L0.849986 24.3916H38.4984L38.4668 24.6156Z" fill="#BDCF00"/>
<path d="M21.0673 19.5485C20.7621 21.2729 19.9977 22.4517 18.5913 22.4517C18.2353 22.4517 17.8889 22.4137 17.6569 22.2865L18.5805 17.0521C18.9285 16.8761 19.2349 16.7869 19.7405 16.7869C21.0325 16.7869 21.3297 18.0549 21.0661 19.5469M20.1361 16.1273C19.4653 16.1273 19.0601 16.2657 18.6869 16.4437L19.2749 13.1133L18.0465 13.8233L16.4829 22.6917C16.8429 22.9585 17.5125 23.1717 18.4389 23.1717C20.4665 23.1717 21.8029 21.7017 22.1889 19.5089C22.5529 17.4433 21.7089 16.1257 20.1361 16.1257" fill="#00577A"/>
<path d="M39.5601 16.216H38.3953L35.4033 19.3828H35.3777L36.1405 15.0672C36.9005 10.7928 32.2857 9.89003 27.4693 10.6272C24.1961 11.1296 21.3037 12.434 21.3037 12.434C21.3037 12.434 25.0793 11.114 28.4021 10.9244C32.5969 10.6844 35.8849 11.3216 34.9249 15.7664L33.6409 23.0464H34.7309L35.3525 19.522H35.3777L37.3673 23.0464H38.6353L36.4121 19.4064L39.5601 16.216Z" fill="#00577A"/>
<path d="M1.43154 26.8503L0.953141 29.5603H0.553141L1.03314 26.8495H0.439941L0.487541 26.5811H2.07194L2.02434 26.8495L1.43154 26.8503Z" fill="#00577A"/>
<path d="M3.29571 29.5602L3.58651 27.9062C3.62931 27.6662 3.56411 27.447 3.19211 27.447C3.02632 27.4425 2.86237 27.4826 2.71731 27.563L2.36451 29.5602H1.98291L2.58291 26.1602H2.96251L2.75451 27.347C2.96571 27.247 3.14371 27.2042 3.31451 27.2042C3.90891 27.2042 4.02651 27.5618 3.96931 27.8906L3.67691 29.5602H3.29571Z" fill="#00577A"/>
<path d="M5.36005 27.4298C5.02165 27.4298 4.72285 27.703 4.61965 28.3354L5.76685 28.1654C5.85885 27.6366 5.69205 27.4298 5.36005 27.4298ZM4.59725 28.539C4.54645 29.0666 4.74845 29.327 5.16765 29.327C5.37556 29.3308 5.58134 29.2846 5.76765 29.1922L5.82325 29.443C5.66605 29.529 5.40525 29.603 5.08925 29.603C4.47885 29.603 4.11805 29.2166 4.26445 28.3858C4.40565 27.5926 4.86685 27.1826 5.41645 27.1826C5.97645 27.1826 6.24925 27.5466 6.10285 28.3254L4.59725 28.539Z" fill="#00577A"/>
<path d="M8.98731 26.7769C8.86894 26.7749 8.75114 26.7937 8.63931 26.8325L8.42011 28.0801L8.54731 28.0929C9.16531 28.1549 9.44331 27.8669 9.52131 27.4349C9.59931 27.0029 9.44131 26.7769 8.98731 26.7769ZM8.50731 28.3369L8.37531 28.3245L8.16011 29.5601H7.77051L8.27451 26.7017C8.45691 26.6061 8.73211 26.5361 9.04811 26.5361C9.75051 26.5361 10.0001 26.9145 9.90771 27.4373C9.81411 27.9665 9.37571 28.4225 8.51131 28.3349" fill="#00577A"/>
<path d="M11.3087 28.2356C10.7087 28.3104 10.3347 28.4356 10.2519 28.9064C10.1915 29.2432 10.3759 29.3828 10.7223 29.3828C10.8597 29.3858 10.9961 29.3594 11.1223 29.3052L11.3087 28.2356ZM10.6527 29.604C10.0471 29.604 9.81275 29.3384 9.88675 28.914C9.99635 28.296 10.6067 28.114 11.3439 28.0404L11.3691 27.8972C11.4327 27.5372 11.2339 27.4348 10.9355 27.4348C10.7115 27.4348 10.4887 27.5148 10.3475 27.5812L10.2951 27.3552C10.5278 27.2441 10.7821 27.1855 11.0399 27.1836C11.4735 27.1836 11.8215 27.3696 11.7199 27.9416L11.4567 29.44C11.2611 29.542 10.9767 29.6056 10.6527 29.6056" fill="#00577A"/>
<path d="M13.2664 29.5604L13.562 27.884C13.602 27.668 13.5512 27.4296 13.152 27.4296C12.9958 27.4235 12.8401 27.4517 12.696 27.5124L12.336 29.5604H11.9548L12.3456 27.3488C12.5712 27.2484 12.854 27.1836 13.2276 27.1836C13.8776 27.1836 14.0048 27.5436 13.9476 27.8764L13.648 29.5604H13.2664Z" fill="#00577A"/>
<path d="M16.9896 27.2999C16.971 27.1808 16.9635 27.0603 16.9672 26.9399H16.9576C16.9153 27.0635 16.8638 27.1838 16.8036 27.2999L16.2492 28.4315H17.1372L16.9896 27.2999ZM17.2836 29.5603L17.16 28.6683H16.138L15.6912 29.5603H15.3276L16.8608 26.5811H17.2168L17.6968 29.5603H17.2836Z" fill="#00577A"/>
<path d="M18.9093 27.4639L18.5405 29.5603H18.1577L18.5277 27.4631H18.2577L18.3005 27.2263H18.5693L18.6281 26.8971C18.7081 26.4379 19.0381 26.1371 19.5449 26.1615L19.5049 26.4015C19.2729 26.4143 19.0757 26.5239 19.0169 26.8527L18.9517 27.2247H19.3585L19.3185 27.4615L18.9093 27.4639Z" fill="#00577A"/>
<path d="M20.6509 27.4779C20.4697 27.4207 20.2508 27.4379 20.112 27.5211L19.752 29.5611H19.3708L19.7601 27.3523C20.0113 27.2363 20.2401 27.1747 20.7929 27.1871L20.6509 27.4779Z" fill="#00577A"/>
<path d="M21.4725 26.7766C21.3469 26.7766 21.2625 26.6814 21.2833 26.5686C21.2963 26.5087 21.3294 26.455 21.377 26.4163C21.4246 26.3776 21.4839 26.3563 21.5453 26.3558C21.5725 26.3541 21.5997 26.3587 21.6248 26.3693C21.6499 26.3798 21.6722 26.396 21.6901 26.4166C21.7079 26.4372 21.7208 26.4616 21.7276 26.488C21.7345 26.5143 21.7352 26.5419 21.7297 26.5686C21.7158 26.6268 21.6831 26.6788 21.6365 26.7164C21.59 26.7541 21.5323 26.7752 21.4725 26.7766ZM20.7925 29.5606L21.2041 27.2266H21.5857L21.1721 29.5598L20.7925 29.5606Z" fill="#00577A"/>
<path d="M22.5496 29.604C22.038 29.604 21.7424 29.1448 21.876 28.3916C22.0092 27.624 22.4652 27.1836 22.9848 27.1836C23.2708 27.1836 23.4108 27.2744 23.4728 27.3396L23.3424 27.56C23.2522 27.4825 23.1356 27.4426 23.0168 27.4488C22.5908 27.4488 22.3588 27.8348 22.262 28.38C22.1652 28.9376 22.2952 29.3236 22.672 29.3236C22.8055 29.323 22.9361 29.2844 23.0484 29.2124L23.1008 29.4492C22.9944 29.5292 22.8084 29.6048 22.5496 29.6048" fill="#00577A"/>
<path d="M24.9107 28.2356C24.3107 28.3104 23.9367 28.4356 23.8539 28.9064C23.7935 29.2432 23.9763 29.3828 24.3227 29.3828C24.4601 29.3859 24.5965 29.3595 24.7227 29.3052L24.9107 28.2356ZM24.2543 29.604C23.6491 29.604 23.4123 29.3384 23.4887 28.914C23.5967 28.296 24.2087 28.114 24.9459 28.0404L24.9711 27.8972C25.0347 27.5372 24.8359 27.4348 24.5375 27.4348C24.3335 27.442 24.1332 27.4919 23.9495 27.5812L23.8971 27.3552C24.1299 27.2439 24.3843 27.1853 24.6423 27.1836C25.0759 27.1836 25.4239 27.3696 25.3223 27.9416L25.0587 29.44C24.8631 29.542 24.5787 29.6056 24.2543 29.6056" fill="#00577A"/>
<path d="M26.8699 29.5604L27.1639 27.884C27.2019 27.668 27.1531 27.4296 26.7555 27.4296C26.5988 27.4234 26.4426 27.4516 26.2979 27.5124L25.9379 29.5604H25.5583L25.9475 27.3488C26.1731 27.2484 26.4575 27.1836 26.8295 27.1836C27.4795 27.1836 27.6067 27.5436 27.5495 27.8764L27.2499 29.5604H26.8699Z" fill="#00577A"/>
<path d="M30.4441 26.7681C30.3067 26.7664 30.17 26.7883 30.0401 26.8329L29.8525 27.8929H30.0461C30.6613 27.8929 30.9045 27.7037 30.9709 27.3145C31.0377 26.9489 30.8509 26.7681 30.4453 26.7681M30.0177 28.0933H29.8177L29.6081 29.2805C29.7113 29.3281 29.8321 29.3489 30.0149 29.3489C30.4041 29.3489 30.7349 29.1933 30.8125 28.7593C30.8925 28.2969 30.6601 28.0937 30.0165 28.0937M29.9861 29.6049C29.6493 29.6049 29.3745 29.5445 29.2029 29.4397L29.6829 26.7033C29.8641 26.6077 30.1609 26.5381 30.4869 26.5381C31.1413 26.5381 31.4353 26.8509 31.3593 27.2833C31.2861 27.7089 30.9349 27.9253 30.6585 27.9777V27.9857C30.9257 28.0381 31.2957 28.3021 31.2161 28.7565C31.1081 29.3537 30.6013 29.6049 29.9865 29.6049" fill="#00577A"/>
<path d="M32.9544 28.2356C32.3544 28.3104 31.9804 28.4356 31.896 28.9064C31.8372 29.2432 32.02 29.3828 32.3664 29.3828C32.5037 29.3856 32.6401 29.3592 32.7664 29.3052L32.9544 28.2356ZM32.298 29.604C31.6912 29.604 31.456 29.3384 31.5308 28.914C31.642 28.296 32.2508 28.114 32.9896 28.0404L33.0132 27.8972C33.0768 27.5372 32.8796 27.4348 32.5812 27.4348C32.3552 27.4348 32.1328 27.5148 31.9916 27.5812L31.9408 27.3552C32.173 27.2441 32.4269 27.1855 32.6844 27.1836C33.118 27.1836 33.4676 27.3696 33.3644 27.9416L33.1024 29.44C32.9068 29.542 32.6224 29.6056 32.298 29.6056" fill="#00577A"/>
<path d="M34.9601 29.5596L35.2557 27.8832C35.2925 27.6672 35.2449 27.4288 34.8457 27.4288C34.6889 27.4227 34.5328 27.451 34.3881 27.5116L34.0281 29.5596H33.6465L34.0401 27.3488C34.2657 27.2484 34.5489 27.1836 34.9201 27.1836C35.5685 27.1836 35.6957 27.5436 35.6401 27.8764L35.3397 29.5596H34.9601Z" fill="#00577A"/>
<path d="M37.1543 29.5602L36.4743 28.3574H36.4635L36.2531 29.5602H35.8799L36.4799 26.1602H36.8519L36.4735 28.3086H36.4815L37.5067 27.225H37.9023L36.8283 28.3202L37.5883 29.5626L37.1543 29.5602Z" fill="#00577A"/>
</svg>
