<svg width="202" height="40" viewBox="0 0 202 40" fill="none" xmlns="http://www.w3.org/2000/svg">
<g clip-path="url(#clip0_291_3535)">
<path d="M108.234 34.1757C108.235 33.9576 108.321 33.7485 108.472 33.5916C108.624 33.4348 108.83 33.3423 109.048 33.3332C109.402 33.3332 109.622 33.6045 109.622 33.9559C109.623 34.173 109.539 34.3819 109.388 34.538C109.238 34.694 109.031 34.7845 108.814 34.7902C108.735 34.7922 108.656 34.7774 108.582 34.7467C108.508 34.7161 108.442 34.6703 108.387 34.6123C108.332 34.5544 108.29 34.4855 108.264 34.4103C108.238 34.3351 108.227 34.2551 108.234 34.1757ZM110.91 34.1757C110.912 33.9577 110.998 33.7488 111.149 33.592C111.301 33.4352 111.507 33.3426 111.724 33.3332C112.078 33.3332 112.298 33.6045 112.298 33.9559C112.3 34.1728 112.217 34.3818 112.066 34.5379C111.915 34.6939 111.709 34.7845 111.492 34.7902C111.413 34.7924 111.333 34.7777 111.259 34.7472C111.186 34.7166 111.119 34.6708 111.064 34.6129C111.009 34.5549 110.967 34.486 110.941 34.4106C110.914 34.3353 110.904 34.2553 110.91 34.1757ZM113.587 34.1757C113.589 33.9577 113.674 33.7488 113.826 33.592C113.977 33.4352 114.183 33.3426 114.401 33.3332C114.755 33.3332 114.976 33.6045 114.976 33.9559C114.978 34.173 114.894 34.3819 114.743 34.538C114.592 34.694 114.386 34.7845 114.169 34.7902C114.089 34.7922 114.01 34.7774 113.936 34.7467C113.863 34.7161 113.796 34.6703 113.741 34.6124C113.686 34.5545 113.644 34.4856 113.618 34.4104C113.591 34.3352 113.581 34.2552 113.587 34.1757ZM115.367 36.4928L115.698 35.7263C115.808 35.786 115.931 35.8168 116.056 35.8158C116.463 35.8158 116.87 35.4658 117.141 34.9205L117.288 34.6301L116.451 29.8453H117.501L117.803 32.2872C117.859 32.7227 117.902 33.2817 117.926 33.7388H117.965C118.178 33.2857 118.422 32.7431 118.643 32.2872L119.844 29.8453H120.875L118.153 34.9327C117.561 35.9854 116.958 36.6624 115.995 36.6624C115.776 36.6515 115.562 36.5936 115.367 36.4928ZM120.829 32.8218C120.829 30.9768 122.164 29.7205 123.49 29.7205C124.576 29.7205 125.292 30.4843 125.292 31.689C125.292 33.534 123.958 34.7902 122.632 34.7902C121.545 34.7902 120.829 34.0264 120.829 32.8218ZM124.22 31.7243C124.22 30.9957 123.926 30.5793 123.37 30.5793C122.603 30.5793 121.891 31.5506 121.891 32.7865C121.891 33.515 122.185 33.9315 122.74 33.9315C123.513 33.9315 124.226 32.9656 124.226 31.7243H124.22ZM129.786 34.6722H128.925L128.971 33.979H128.932C128.447 34.4199 127.893 34.7929 127.311 34.7929C126.497 34.7929 126.166 34.3439 126.166 33.572C126.167 33.3437 126.193 33.1162 126.244 32.8937L126.853 29.8453H127.909L127.321 32.7621C127.279 32.9295 127.253 33.1009 127.244 33.2735C127.244 33.6805 127.441 33.8921 127.847 33.8921C128.172 33.8921 128.551 33.6588 129.039 33.1433L129.693 29.8453H130.748L129.786 34.6722ZM132.212 29.8453H133.074L132.987 30.7787H133.026C133.407 30.1804 133.939 29.7273 134.518 29.7273C134.685 29.7196 134.851 29.7507 135.003 29.8182L134.649 30.7434C134.507 30.6822 134.353 30.6553 134.2 30.6647C133.746 30.6647 133.282 31.0229 132.885 31.7582L132.314 34.679H131.26L132.212 29.8453ZM137.789 35.1443L137.518 36.585H136.464L137.82 29.8385H138.682L138.659 30.4327H138.686C139.15 30.0258 139.705 29.7205 140.257 29.7205C141.106 29.7205 141.634 30.35 141.634 31.4841C141.634 33.3305 140.375 34.7902 139.04 34.7902C138.822 34.7873 138.609 34.7272 138.422 34.616C138.235 34.5048 138.08 34.3464 137.974 34.1567H137.953L137.789 35.1443ZM138.581 31.2915L138.174 33.3495C138.383 33.7565 138.67 33.9206 138.978 33.9206C139.792 33.9206 140.543 32.8692 140.543 31.6252C140.543 30.9211 140.272 30.5901 139.824 30.5901C139.443 30.5901 138.95 30.818 138.581 31.2915ZM144.987 29.7205C146.109 29.7205 146.526 30.5033 146.526 31.5031C146.517 31.8545 146.446 32.2014 146.314 32.5274H143.373C143.271 33.5462 143.834 33.979 144.57 33.979C144.928 33.9531 145.271 33.8219 145.554 33.6018L145.94 34.2801C145.456 34.6165 144.88 34.7951 144.29 34.7916C143.137 34.7916 142.354 34.04 142.354 32.7444C142.354 30.9401 143.716 29.7205 144.987 29.7205ZM145.601 31.8572C145.632 31.7179 145.648 31.5754 145.648 31.4326C145.648 30.9645 145.447 30.5426 144.861 30.5426C144.275 30.5426 143.7 31.031 143.468 31.8572H145.601ZM150.086 31.6605C150.115 31.5545 150.129 31.4449 150.128 31.3349C150.128 30.7597 149.856 30.5548 149.369 30.5548C148.951 30.5548 148.57 30.7041 148.105 30.9618L147.775 30.2184C148.334 29.9167 148.955 29.7482 149.589 29.7259C150.585 29.7259 151.171 30.1899 151.171 31.2372C151.169 31.4655 151.142 31.6928 151.092 31.9155L150.55 34.6749H149.694L149.707 34.1472H149.676C149.299 34.5013 148.726 34.7929 148.208 34.7929C147.55 34.7929 146.999 34.348 146.999 33.6005C146.995 32.2045 148.31 31.708 150.086 31.6605ZM148.026 33.3848C148.026 33.7741 148.298 33.9681 148.676 33.9681C149.022 33.9681 149.354 33.7741 149.734 33.4404L149.964 32.3307C148.699 32.3578 148.026 32.7431 148.026 33.3848ZM152.058 32.8218C152.058 31.0907 153.325 29.7205 154.828 29.7205C155.072 29.7179 155.313 29.7699 155.533 29.8728C155.754 29.9756 155.949 30.1266 156.104 30.3147L155.505 30.9483C155.281 30.7 155.085 30.5793 154.762 30.5793C153.896 30.5793 153.134 31.5859 153.134 32.7865C153.134 33.515 153.457 33.9315 154.109 33.9315C154.447 33.9172 154.77 33.7868 155.022 33.5625L155.475 34.2272C155.026 34.5893 154.467 34.7878 153.89 34.7902C152.829 34.7902 152.058 34.0739 152.058 32.8218ZM158.913 29.7205C160.035 29.7205 160.453 30.5033 160.453 31.5031C160.444 31.8546 160.372 32.2015 160.24 32.5274H157.299C157.197 33.5462 157.76 33.979 158.495 33.979C158.854 33.9531 159.196 33.8219 159.48 33.6018L159.866 34.2801C159.381 34.6165 158.805 34.7951 158.216 34.7916C157.063 34.7916 156.28 34.04 156.28 32.7444C156.283 30.9401 157.639 29.7205 158.913 29.7205ZM159.528 31.8572C159.558 31.7177 159.574 31.5754 159.574 31.4326C159.574 30.9645 159.373 30.5426 158.787 30.5426C158.201 30.5426 157.626 31.031 157.394 31.8572H159.528ZM160.518 35.8023C161.207 35.5771 161.603 35.1524 161.711 34.6722L161.82 33.8134L162.092 34.5379C161.984 34.6285 161.851 34.6823 161.711 34.6912C161.332 34.6912 161.061 34.4673 161.061 34.1011C161.059 33.9995 161.078 33.8986 161.117 33.8045C161.155 33.7104 161.212 33.625 161.284 33.5534C161.356 33.4817 161.441 33.4253 161.536 33.3875C161.63 33.3496 161.731 33.3312 161.833 33.3332C162.269 33.3332 162.511 33.6412 162.511 34.1363C162.511 35.2433 161.778 36.1278 160.641 36.4032L160.518 35.8023ZM165.779 32.8218C165.779 30.9768 167.114 29.7205 168.441 29.7205C169.526 29.7205 170.242 30.4843 170.242 31.689C170.242 33.534 168.909 34.7902 167.582 34.7902C166.501 34.7902 165.779 34.0264 165.779 32.8218ZM169.171 31.7243C169.171 30.9957 168.875 30.5793 168.32 30.5793C167.553 30.5793 166.84 31.5506 166.84 32.7865C166.84 33.515 167.136 33.9315 167.69 33.9315C168.469 33.9315 169.181 32.9656 169.181 31.7243H169.171ZM174.742 34.6722H173.879L173.927 33.979H173.888C173.403 34.4199 172.848 34.7929 172.26 34.7929C171.446 34.7929 171.113 34.3439 171.113 33.572C171.114 33.3436 171.141 33.1161 171.193 32.8937L171.802 29.8426H172.858L172.27 32.7594C172.227 32.9268 172.202 33.0981 172.193 33.2708C172.193 33.6778 172.39 33.8894 172.794 33.8894C173.121 33.8894 173.5 33.6561 173.987 33.1406L174.636 29.8426H175.692L174.742 34.6722ZM177.175 29.8453H178.036L177.949 30.7787H177.989C178.371 30.1804 178.902 29.7273 179.481 29.7273C179.647 29.7196 179.813 29.7507 179.965 29.8182L179.611 30.7434C179.47 30.6822 179.316 30.6553 179.162 30.6647C178.709 30.6647 178.245 31.0229 177.848 31.7582L177.276 34.679H176.222L177.175 29.8453ZM181.38 35.6557C181.38 35.0615 181.923 34.6681 182.465 34.4239V34.3927C182.371 34.3142 182.296 34.2153 182.245 34.1034C182.194 33.9916 182.169 33.8697 182.172 33.747C182.172 33.3888 182.423 33.0578 182.798 32.8299V32.7906C182.638 32.6587 182.509 32.4929 182.42 32.3053C182.332 32.1176 182.286 31.9127 182.286 31.7053C182.286 30.5684 183.191 29.7219 184.321 29.7219C184.537 29.7174 184.752 29.7576 184.952 29.8399H186.672L186.518 30.639H185.679C185.788 30.8166 185.845 31.0209 185.845 31.2291C185.845 32.3551 184.987 33.1419 183.791 33.1419C183.629 33.1446 183.469 33.1208 183.315 33.0714C183.238 33.1216 183.174 33.1885 183.127 33.2669C183.08 33.3454 183.052 33.4334 183.043 33.5245C183.043 33.8107 183.202 33.9233 183.902 34.002C185.233 34.1675 185.641 34.4985 185.641 35.1226C185.641 36.2499 184.42 36.8102 183.213 36.8102C182.451 36.8089 181.38 36.5769 181.38 35.6557ZM184.606 35.3844C184.606 35.0222 184.213 34.8811 183.577 34.8065C183.422 34.7861 183.217 34.7468 182.997 34.6953C182.68 34.8594 182.293 35.1362 182.293 35.4712C182.293 35.9271 182.7 36.1319 183.324 36.1319C184.059 36.1278 184.606 35.8145 184.606 35.3803V35.3844ZM184.941 31.2481C184.941 30.7638 184.693 30.4639 184.291 30.4639C183.69 30.4639 183.26 31.0785 183.26 31.693C183.26 32.1774 183.509 32.4758 183.91 32.4758C184.513 32.4717 184.941 31.8572 184.941 31.244V31.2481ZM186.687 32.8218C186.687 30.9768 188.022 29.7205 189.349 29.7205C190.434 29.7205 191.151 30.4843 191.151 31.689C191.151 33.534 189.817 34.7902 188.49 34.7902C187.404 34.7902 186.687 34.0264 186.687 32.8218ZM190.079 31.7243C190.079 30.9957 189.784 30.5793 189.228 30.5793C188.462 30.5793 187.749 31.5506 187.749 32.7865C187.749 33.515 188.044 33.9315 188.599 33.9315C189.372 33.9315 190.084 32.9656 190.084 31.7243H190.079ZM194.766 31.6605C194.795 31.5545 194.809 31.4449 194.808 31.3349C194.808 30.7597 194.537 30.5548 194.048 30.5548C193.632 30.5548 193.251 30.7041 192.785 30.9618L192.456 30.2184C193.014 29.9167 193.635 29.7482 194.269 29.7259C195.265 29.7259 195.851 30.1899 195.851 31.2372C195.849 31.4655 195.822 31.6928 195.773 31.9155L195.23 34.6749H194.374L194.387 34.1472H194.356C193.979 34.5013 193.407 34.7929 192.888 34.7929C192.23 34.7929 191.68 34.348 191.68 33.6005C191.676 32.2045 192.99 31.708 194.766 31.6605ZM192.707 33.3848C192.707 33.7741 192.978 33.9681 193.356 33.9681C193.702 33.9681 194.035 33.7741 194.415 33.4404L194.644 32.3307C193.379 32.3578 192.707 32.7431 192.707 33.3848ZM198.025 27.7209H199.08L197.687 34.6722H196.631L198.025 27.7209ZM200.039 10.7631L201.16 6.85059H186.754L184.433 10.7631H200.039Z" fill="#BA0000"/>
<path d="M198.402 16.4842L199.621 12.2217H185.216L182.194 22.7708H196.602L197.767 18.7036H189.661L190.296 16.4842H198.402Z" fill="#382A61"/>
<path d="M182.08 10.7635L184.396 6.85645H172.623C171.517 6.8564 170.441 7.21659 169.557 7.88258C168.673 8.54857 168.031 9.48413 167.726 10.5478L167.664 10.7676L182.08 10.7635Z" fill="#BA0000"/>
<path d="M167.247 12.2215L165.679 17.7144C165.51 18.3048 165.481 18.9262 165.594 19.5297C165.706 20.1332 165.957 20.7023 166.327 21.1924C166.697 21.6825 167.175 22.0801 167.725 22.3539C168.274 22.6277 168.88 22.7704 169.494 22.7706H178.643L179.807 18.7007H171.088L172.943 12.2188L167.247 12.2215ZM150.873 12.2215L141.798 22.7706H148.721L154.128 16.484H157.603L159.077 22.7706H165.242L162.766 12.2215H150.873Z" fill="#382A61"/>
<path d="M162.424 10.7631L161.507 6.85466L161.51 6.85059H155.492L152.127 10.7631H162.424Z" fill="#BA0000"/>
<path d="M144.122 16.4842L145.343 12.2217H130.936L129.715 16.4842L127.915 22.7708H142.322L143.487 18.7036H135.381L136.016 16.4842H144.122Z" fill="#382A61"/>
<path d="M145.759 10.7631L146.88 6.85059H132.474L130.156 10.7631H145.759Z" fill="#BA0000"/>
<path d="M111.461 12.2217L108.441 22.7708H113.868L115.668 16.4842H123.045C124.351 16.4836 125.623 16.0713 126.681 15.3061C127.739 14.5408 128.529 13.4616 128.939 12.2217H111.461Z" fill="#382A61"/>
<path d="M129.35 10.7631C129.442 10.2875 129.428 9.79733 129.308 9.32779C129.189 8.85824 128.967 8.42089 128.659 8.04703C128.351 7.67317 127.964 7.37205 127.526 7.16521C127.088 6.95837 126.61 6.85093 126.125 6.85059H113.007L110.681 10.7631H129.35ZM95.7001 10.7631C95.7923 10.2875 95.7782 9.79733 95.6588 9.32779C95.5394 8.85824 95.3177 8.42089 95.0096 8.04703C94.7015 7.67317 94.3145 7.37205 93.8764 7.16521C93.4383 6.95837 92.9599 6.85093 92.4754 6.85059H79.2782L76.9597 10.7631H95.7001Z" fill="#BA0000"/>
<path d="M95.2862 12.2217H77.741L77.0559 14.6161L74.7212 22.7708H80.1477L81.9479 16.4842H88.1016L86.3013 22.7708H91.7278L92.9379 18.5463C93.0766 18.0667 93.0887 17.5593 92.9732 17.0737C92.8576 16.588 92.6183 16.1405 92.2786 15.7747C93.7042 15.0255 94.7827 13.7514 95.2862 12.2217Z" fill="#382A61"/>
<path d="M74.7811 10.7632L75.8949 6.87109H70.1279L69.0141 10.7632H74.7811ZM63.6432 10.7632L62.7628 6.87109H56.7462L53.3193 10.7632H63.6432Z" fill="#BA0000"/>
<path d="M68.596 12.2217L66.0157 21.2351L63.974 12.2217H52.0344L48.5818 16.141H58.8338L60.5526 22.7708H71.3418L74.363 12.2217H68.596Z" fill="#382A61"/>
<path d="M41.2304 16.7894C41.2091 16.4782 41.1674 16.1686 41.1055 15.8628C41.0608 15.6512 41.0187 15.5223 40.9699 15.2822C39.7408 9.41618 35.8948 6.35428 35.8948 6.35428C35.8178 6.28543 35.7362 6.22197 35.6506 6.16435C35.0745 5.65155 34.4784 5.16091 33.8625 4.69242C30.9309 2.48248 27.717 0.931863 24.0786 0.301034C21.9564 -0.0654874 19.7898 -0.0975298 17.6577 0.20607C15.6769 0.497858 13.739 1.02949 11.8866 1.78925C9.12997 2.89082 6.79115 4.54455 4.9258 6.86166L4.78335 7.03802C4.769 7.05942 4.75264 7.0794 4.73451 7.09771C4.48145 7.40121 4.24505 7.71822 4.02635 8.04735C4.01694 8.05905 4.00415 8.06757 3.98973 8.07176C3.44708 8.86539 2.88815 9.78518 2.82846 9.88421C1.37884 12.3563 0.455151 15.1011 0.115214 17.9466C-0.0681243 19.5181 -0.0325126 21.1074 0.22103 22.669C0.541311 24.623 1.20206 26.5056 2.17321 28.2312C2.28038 28.4225 2.3862 28.6151 2.50694 28.7982C2.60863 28.9935 2.73743 29.1735 2.88951 29.3327C1.62785 26.8379 0.866782 24.2142 0.824727 21.4046L0.841007 21.3951V21.1713C0.841007 21.0356 0.83151 20.8932 0.82744 20.7548C0.875227 19.3079 1.10634 17.8729 1.51525 16.4842C2.01665 14.8129 2.74712 13.2191 3.68584 11.7482C3.68584 11.7482 3.75096 11.641 3.87441 11.4565C4.37635 10.6999 4.92456 9.97497 5.51593 9.28594C5.53221 9.26559 5.54984 9.2466 5.56612 9.22896C5.83744 8.90609 6.14268 8.57507 6.46285 8.24813C6.46848 8.24114 6.47485 8.23477 6.48184 8.22913C6.73689 7.97002 7.0055 7.71362 7.28225 7.46807H7.28903C8.21184 6.6011 9.22465 5.83523 10.3102 5.18352C12.6789 3.79027 15.251 3.01292 17.9697 2.66291C19.9763 2.40454 22.0109 2.4613 23.9999 2.83113C26.372 3.2754 28.6375 4.16869 30.6745 5.46298C32.5594 6.6611 34.2629 8.12301 35.7333 9.80417C35.7616 9.8365 35.793 9.86603 35.8269 9.89235C38.5266 13.1903 39.27 18.1175 39.3012 18.3333C39.3501 19.1215 39.3745 19.9124 39.3636 20.7046L39.3433 21.3979C39.2797 23.2473 38.9899 25.082 38.4805 26.861C37.406 30.522 35.334 33.4854 32.2644 35.7509C29.9229 37.4738 27.2978 38.5998 24.5236 39.4138C23.7923 39.6268 23.0516 39.8059 22.296 40.0039C22.3664 40.0094 22.4372 40.0094 22.5076 40.0039C23.0625 39.909 23.6173 39.8167 24.1695 39.7001C26.6031 39.2006 28.9508 38.3487 31.1384 37.1713C33.4678 35.9069 35.5027 34.2817 37.1605 32.2034C39.7937 28.9 41.0133 25.0757 41.2724 20.9095C41.3671 19.5372 41.353 18.1595 41.2304 16.7894Z" fill="#BA0303"/>
<path d="M50.0511 6.16562C50.0253 5.88344 49.8625 5.75863 49.5817 5.79255C49.1299 5.85495 48.6782 5.92821 48.2251 5.99197C46.3397 6.26397 44.4795 6.68864 42.6629 7.26177C41.7124 7.56293 40.7782 7.91341 39.8642 8.31179C39.8099 8.33486 39.7285 8.41625 39.6634 8.39862C39.4409 8.49901 39.2388 8.59397 39.1004 8.66045C39.0852 8.66967 39.0693 8.67782 39.053 8.68486C38.6324 8.87615 38.2241 9.09185 37.8049 9.29534C35.9151 10.188 34.3563 11.4958 33.0377 13.1034C31.5929 14.867 30.4086 16.8002 29.3219 18.8012C28.976 19.4374 28.6436 20.0805 28.3031 20.7181C27.8608 21.6677 26.7199 21.2078 26.2261 20.9542C26.1463 20.9149 26.0697 20.8695 25.9968 20.8185C25.891 20.7493 25.7879 20.6747 25.6794 20.615C24.0372 19.7045 22.2454 19.0953 20.3885 18.8161C18.2355 18.5167 16.0435 18.6744 13.9554 19.2787C12.8335 19.5962 11.7197 19.9435 10.6209 20.3328C10.3889 20.4196 9.64546 20.6978 8.10027 21.3082L7.91034 21.3883L7.83708 21.4154L7.5142 21.5511C7.49114 21.5891 7.44502 21.608 7.36633 21.6175C7.23745 21.6759 7.10993 21.7342 6.98512 21.7939C6.61612 21.9743 6.25255 22.1575 5.89983 22.3474C5.04108 22.8141 4.45095 23.2007 4.41839 23.2224C3.77967 23.6425 3.18835 24.1306 2.65479 24.6781C3.36294 24.5763 4.02226 24.4773 4.68972 24.3864C7.38668 24.0174 10.0904 23.7488 12.8186 23.8343C14.3448 23.8831 15.8574 24.0418 17.3172 24.5207C18.3292 24.8517 19.2503 25.3347 19.9911 26.1215C20.1267 26.2572 20.1132 26.3169 19.9219 26.3657C19.504 26.4715 19.093 26.6031 18.6751 26.7076C17.3958 27.0264 16.0976 27.2611 14.8318 27.6409C14.2892 27.8051 13.737 27.9801 13.2758 28.3193C12.7155 28.7371 12.6979 28.8334 13.1632 29.3801C13.6285 29.9269 14.2607 30.1846 14.9078 30.4139C16.5059 30.9823 18.1786 31.2007 19.8486 31.4286C20.0033 31.449 20.0195 31.4042 19.9707 31.2753C19.8631 30.9932 19.8031 30.6953 19.793 30.3935C19.7794 29.817 20.0413 29.429 20.5839 29.2404C21.0175 29.0994 21.4659 29.0083 21.9202 28.9691C22.8929 28.866 23.8724 28.8823 24.8437 28.7656C26.1366 28.6109 27.3901 28.3152 28.5663 27.7386C29.889 27.0915 30.9716 26.1351 31.9768 25.0837C32.8613 24.1612 33.7391 23.2319 34.61 22.2959C34.7457 22.1507 34.8501 22.1005 35.0373 22.2199C35.2626 22.3623 35.5149 22.4614 35.7523 22.5862C35.8662 22.6459 35.9246 22.6554 35.9259 22.4926C35.9403 22.0774 35.9117 21.6619 35.8405 21.2526C35.7387 20.7385 35.5691 20.2555 35.1106 19.9435C34.9241 19.799 34.7057 19.7014 34.4737 19.6587C34.2417 19.6159 34.0028 19.6294 33.7771 19.6979C33.8028 19.6111 33.8164 19.55 33.8381 19.4904C34.1752 18.5135 34.5988 17.5688 35.1038 16.6672C35.6241 15.7238 36.3172 14.8867 37.1469 14.1995C37.2006 14.1513 37.2634 14.1143 37.3318 14.091C37.4001 14.0677 37.4724 14.0585 37.5444 14.0639C37.7362 14.081 37.929 14.0435 38.1005 13.9556C38.2719 13.8677 38.4149 13.7331 38.513 13.5673C38.631 13.3896 38.6785 13.1821 38.7843 12.9813C39.0991 13.5619 39.6417 13.6745 40.2061 13.6894C40.8586 13.7071 41.2385 13.3313 41.404 12.7195C41.9575 13.0654 42.2085 13.0342 42.4635 12.5553C42.572 12.3545 42.6751 12.2392 42.918 12.2731C43.0336 12.2754 43.1459 12.2342 43.2327 12.1578C43.4275 12.0073 43.5661 11.7956 43.6261 11.5568C43.6655 11.4293 43.7021 11.4117 43.8242 11.4781C43.9323 11.5461 44.0574 11.5821 44.1851 11.5821C44.3127 11.5821 44.4378 11.5461 44.5459 11.4781C44.7371 11.3514 44.893 11.1782 44.999 10.9748C45.0068 10.9507 45.0194 10.9283 45.036 10.9092C45.0526 10.89 45.0729 10.8743 45.0957 10.8632C45.1185 10.852 45.1433 10.8456 45.1687 10.8443C45.194 10.8429 45.2194 10.8468 45.2432 10.8555C45.7492 10.964 46.0233 10.789 46.1386 10.2897C46.1471 10.2352 46.1712 10.1842 46.2081 10.1431C46.2449 10.1019 46.2929 10.0723 46.3462 10.0578C46.8413 9.86784 47.0326 9.57888 47.0245 9.0498C47.0245 8.93584 47.0095 8.82188 46.996 8.70928C46.9878 8.64824 46.977 8.5899 47.0625 8.58719C47.1346 8.59493 47.2076 8.58753 47.2768 8.56548C47.2809 8.54213 47.2864 8.51904 47.2931 8.49629C47.3053 8.51257 47.3161 8.5275 47.3256 8.54242C47.3776 8.51161 47.4223 8.46998 47.4567 8.42035C47.4911 8.37072 47.5144 8.31426 47.5251 8.25481C47.5255 8.24713 47.5255 8.23943 47.5251 8.23175L47.5332 8.18698C47.5514 7.98629 47.5221 7.78414 47.4477 7.59685C47.8357 7.65654 48.1789 7.71759 48.5249 7.75829C48.6827 7.78504 48.8446 7.77362 48.997 7.725C49.1495 7.67638 49.2881 7.59197 49.4013 7.47883C49.6467 7.24028 49.8459 6.95832 49.9887 6.64722C50.0514 6.49494 50.0729 6.32885 50.0511 6.16562Z" fill="#392B61"/>
</g>
<defs>
<clipPath id="clip0_291_3535">
<rect width="201.16" height="40" fill="white"/>
</clipPath>
</defs>
</svg>
