<svg width="178" height="80" viewBox="0 0 178 80" fill="none" xmlns="http://www.w3.org/2000/svg">
<g clip-path="url(#clip0_298_13086)">
<mask id="mask0_298_13086" style="mask-type:luminance" maskUnits="userSpaceOnUse" x="0" y="0" width="178" height="80">
<path d="M177.143 0H0V80H177.143V0Z" fill="white"/>
</mask>
<g mask="url(#mask0_298_13086)">
<path d="M0.0585938 67.1233C0.111156 67.0479 0.186754 67.0078 0.212934 66.9459C1.006 65.0759 1.79046 63.2022 2.58421 61.3323C3.34757 59.5342 4.12364 57.7416 4.88706 55.9435C5.7496 53.9119 6.60167 51.8758 7.46309 49.8436C8.26743 47.9462 9.08026 46.0525 9.88536 44.1553C10.8811 41.8089 11.8711 39.4599 12.8668 37.1135C13.729 35.0815 14.5981 33.0525 15.4599 31.0202C16.1996 29.276 16.9346 27.5298 17.6676 25.7826C17.7336 25.6255 17.831 25.58 17.9969 25.5593C18.4577 25.5018 18.7334 25.619 18.931 26.1106C19.4626 27.4338 20.0651 28.7276 20.6444 30.0309C21.1366 31.138 21.6384 32.2408 22.1303 33.348C22.7014 34.6335 23.2647 35.9225 23.8346 37.2085C24.3017 38.2625 24.7749 39.3139 25.2433 40.3673C25.9377 41.9295 26.6286 43.4933 27.3241 45.055C27.8171 46.1618 28.3184 47.2648 28.8104 48.372C29.3814 49.6575 29.9446 50.9465 30.5146 52.2325C30.9817 53.2866 31.455 54.3378 31.9233 55.3913C32.6179 56.9535 33.3091 58.517 34.004 60.079C34.3933 60.954 34.7873 61.8266 35.1783 62.7006C35.8447 64.19 36.5096 65.68 37.178 67.1685C37.2691 67.3716 37.2259 67.4539 36.9966 67.4538C34.1604 67.4503 31.3241 67.4505 28.488 67.454C28.3224 67.4543 28.2551 67.3838 28.2009 67.2326C27.6693 65.7519 27.1267 64.275 26.5963 62.7939C26.5334 62.6183 26.4516 62.5576 26.2653 62.5578C20.951 62.563 15.6367 62.5632 10.3225 62.5578C10.116 62.5575 10.0214 62.6258 9.94236 62.8206C9.34751 64.2868 8.7338 65.745 8.14044 67.2119C8.05731 67.4173 7.94524 67.4556 7.75049 67.4552C5.20469 67.4498 2.65886 67.4516 0.0858135 67.4516C0.058594 67.3506 0.058594 67.2496 0.0585938 67.1233ZM21.7227 50.5166C20.5424 47.3978 19.3621 44.2789 18.1603 41.1028C16.3151 45.9908 14.4956 50.8108 12.6673 55.6542C16.3461 55.6542 19.9719 55.6542 23.6541 55.6542C23.0061 53.9349 22.3703 52.2479 21.7227 50.5166Z" fill="black"/>
<path d="M177.2 67.2477C174.839 67.2754 172.477 67.2706 170.116 67.2815C169.839 67.2828 169.76 67.2078 169.76 66.9229C169.769 61.6024 169.776 56.2818 169.76 50.9612C169.754 49.5369 169.327 48.2337 168.334 47.1917C167.627 46.4501 166.741 46.0128 165.73 45.8267C164.627 45.6234 163.564 45.7339 162.534 46.1702C161.57 46.5791 160.817 47.2407 160.284 48.1582C159.777 49.0317 159.544 49.9761 159.544 50.9848C159.544 56.2858 159.544 61.5867 159.544 66.8876C159.544 67.2748 159.544 67.2752 159.171 67.2752C156.887 67.2754 154.603 67.2717 152.319 67.2805C152.071 67.2815 151.989 67.2257 151.989 66.9571C151.994 52.6345 151.994 38.3121 151.989 23.9897C151.989 23.7431 152.061 23.6759 152.3 23.6768C154.603 23.6851 156.907 23.6862 159.21 23.6758C159.479 23.6745 159.55 23.7502 159.55 24.0208C159.543 29.7931 159.544 35.5652 159.544 41.3374C159.544 41.4419 159.544 41.5467 159.544 41.6839C159.934 41.3717 160.283 41.0684 160.656 40.8001C161.794 39.9802 163.051 39.4227 164.417 39.1161C165.447 38.8845 166.493 38.7747 167.544 38.8289C169.147 38.9118 170.693 39.2558 172.119 40.0454C173.647 40.8922 174.834 42.0937 175.704 43.6212C176.473 44.9712 176.901 46.4318 177.091 47.9718C177.096 48.0035 177.134 48.0309 177.179 48.0654C177.2 54.4538 177.2 60.8369 177.2 67.2477Z" fill="black"/>
<path d="M119.214 0.0585938C120.033 0.363924 120.826 0.674187 121.624 0.973565C123.307 1.60519 124.991 2.23197 126.675 2.85918C128.783 3.64409 130.891 4.42892 133 5.21068C133.679 5.46259 134.363 5.70319 135.043 5.95222C135.218 6.01612 135.327 6.13484 135.326 6.33877C135.324 7.24199 135.373 8.14844 135.314 9.04764C135.236 10.2245 135.042 11.3904 134.724 12.5292C134.588 13.0143 134.428 13.4923 134.276 13.9727C134.265 14.0073 134.232 14.0346 134.204 14.073C132.528 13.5723 130.856 13.0726 129.155 12.5644C129.107 12.8216 129.059 13.081 129.009 13.3401C128.752 14.6939 128.352 16.0075 127.873 17.2944C127.282 18.8795 126.587 20.4148 125.76 21.8927C125.083 23.1018 124.335 24.2587 123.514 25.3671C123.08 25.9535 122.586 26.4948 122.104 27.0434C121.745 27.4514 121.38 27.8555 120.989 28.2314C119.982 29.2015 118.874 30.0377 117.661 30.7299C116.548 31.3649 115.399 31.9219 114.172 32.2768C113.006 32.6138 111.819 32.8731 110.641 33.1661C110.555 33.1877 110.467 33.2055 110.36 33.1785C110.781 32.9305 111.216 32.7047 111.62 32.4298C112.411 31.8905 113.19 31.3332 113.962 30.7664C115.032 29.9804 115.956 29.0262 116.858 28.0569C117.822 27.0208 118.703 25.9094 119.408 24.6708C119.897 23.8109 120.378 22.9437 120.81 22.0538C121.44 20.7569 121.889 19.3859 122.189 17.9751C122.397 17.0017 122.561 16.0125 122.651 15.0217C122.75 13.9267 122.808 12.8188 122.761 11.7221C122.717 10.6986 122.519 9.68109 122.374 8.66305C122.186 7.34274 121.797 6.07437 121.349 4.82609C120.892 3.54955 120.354 2.30767 119.652 1.14542C119.44 0.79586 119.228 0.447321 119.01 0.0784542C119.067 0.0585947 119.129 0.0585947 119.214 0.0585938Z" fill="#00A557"/>
<path d="M119.38 80.0586C119.304 80.0043 119.266 79.9282 119.205 79.899C118.505 79.5623 118.376 78.815 118.945 78.2042C118.997 78.1483 119.047 78.0896 119.097 78.0332C118.65 77.553 118.784 77.0673 119.221 76.6564C118.741 76.2327 118.689 75.6902 118.832 75.1037C118.941 74.655 119.435 74.2303 119.886 74.2314C120.522 74.2329 121.158 74.2619 121.793 74.2936C121.853 74.2966 121.953 74.404 121.952 74.4627C121.952 74.5213 121.855 74.6232 121.792 74.6302C121.594 74.652 121.393 74.6382 121.161 74.6382C121.254 74.8317 121.339 74.9796 121.399 75.1372C121.613 75.7013 121.479 76.2124 121.075 76.6194C120.692 77.006 120.198 77.1094 119.682 76.9156C119.426 76.8197 119.343 76.9783 119.263 77.1436C119.161 77.3549 119.246 77.648 119.437 77.7314C119.566 77.7877 119.715 77.8083 119.857 77.8172C120.289 77.844 120.722 77.8563 121.155 77.8767C121.588 77.8973 121.885 78.099 122 78.5394C122.097 78.9104 121.909 79.3964 121.561 79.644C121.375 79.7764 121.178 79.8937 120.983 80.0383C120.456 80.0586 119.932 80.0586 119.38 80.0586ZM119.107 78.5583C118.92 78.9609 118.935 79.2156 119.28 79.4629C119.503 79.6224 119.804 79.7262 120.076 79.7446C120.61 79.7806 121.116 79.6547 121.462 79.1787C121.726 78.816 121.612 78.4392 121.19 78.296C121.073 78.2564 120.945 78.238 120.822 78.2352C120.465 78.2273 120.101 78.2726 119.75 78.2199C119.445 78.1739 119.277 78.2963 119.107 78.5583ZM119.888 74.5869C119.347 74.8206 119.148 75.1327 119.179 75.6976C119.212 76.2884 119.713 76.7169 120.281 76.6403C120.768 76.5747 121.178 75.9237 121.072 75.4124C120.957 74.8603 120.571 74.5067 119.888 74.5869Z" fill="black"/>
<path d="M62.7537 80.059C62.6917 80.0186 62.6647 79.9621 62.621 79.94C61.8007 79.5247 61.687 78.8778 62.3181 78.2043C62.357 78.1627 62.3904 78.1158 62.4237 78.0747C62.0324 77.4321 62.0461 77.2347 62.4941 76.7146C62.3674 76.4338 62.2061 76.1747 62.1311 75.892C61.9055 75.0414 62.5378 74.2213 63.3997 74.2296C63.9584 74.235 64.5173 74.2606 65.075 74.2934C65.1463 74.2976 65.2118 74.4011 65.2801 74.4586C65.2144 74.5187 65.1545 74.6206 65.0821 74.6307C64.9024 74.6557 64.7168 74.6388 64.5795 74.6388C64.6594 74.9731 64.796 75.3014 64.8063 75.6336C64.8348 76.5588 64.0403 77.1707 63.149 76.9508C62.801 76.865 62.5981 76.9757 62.555 77.2753C62.5121 77.5718 62.7183 77.8038 63.0613 77.8171C63.3994 77.8303 63.7391 77.8058 64.0765 77.8253C64.3144 77.839 64.5537 77.8821 64.7853 77.9407C65.3671 78.088 65.4298 78.6256 65.2871 79.0934C65.1718 79.4716 64.8807 79.7017 64.5431 79.8757C64.4603 79.9184 64.382 79.9704 64.2981 80.0386C63.79 80.059 63.2854 80.059 62.7537 80.059ZM64.2417 78.2331C63.8847 78.233 63.5275 78.2356 63.1705 78.2313C63.0483 78.2297 62.9165 78.1761 62.806 78.2074C62.598 78.2663 62.3057 78.7316 62.3253 78.9648C62.3488 79.247 62.498 79.4577 62.7588 79.5748C63.3874 79.8567 63.9995 79.8086 64.5721 79.4354C64.826 79.27 64.9747 79.0098 64.9278 78.683C64.8825 78.3674 64.6293 78.3073 64.3787 78.2517C64.3505 78.2454 64.3221 78.2404 64.2417 78.2331ZM62.5371 75.7947C62.663 76.3894 63.1381 76.7437 63.659 76.6311C64.164 76.5218 64.4964 75.9656 64.4061 75.3806C64.3234 74.8451 63.8273 74.495 63.2794 74.5854C62.7795 74.668 62.4427 75.1843 62.5371 75.7947Z" fill="black"/>
<path d="M104.253 36.4651C104.253 38.6045 104.253 40.7145 104.253 42.8715C104.34 42.8032 104.402 42.7652 104.45 42.7142C105.919 41.1697 107.735 40.3217 109.793 39.9374C110.904 39.7299 112.026 39.7021 113.139 39.7779C115.623 39.9474 117.885 40.7875 119.867 42.3318C121.205 43.3748 122.275 44.6621 123.116 46.1499C124.03 47.7675 124.605 49.5054 124.852 51.3421C124.988 52.3454 125.063 53.3702 125.03 54.3808C124.961 56.4861 124.547 58.5265 123.651 60.4489C123.062 61.7138 122.32 62.8658 121.384 63.9001C120.031 65.3958 118.416 66.4714 116.539 67.1568C115.437 67.5597 114.306 67.8221 113.131 67.8651C112.649 67.8828 112.166 67.9377 111.686 67.9174C109.38 67.8199 107.226 67.2237 105.378 65.7658C104.765 65.2824 104.243 64.6811 103.684 64.1377C103.682 64.1732 103.673 64.2531 103.673 64.3331C103.672 65.2167 103.667 66.1004 103.676 66.9838C103.678 67.1892 103.639 67.2809 103.408 67.2799C101.356 67.2717 99.3036 67.2725 97.2516 67.2791C97.0447 67.2797 96.9684 67.2079 96.9921 67.0067C96.9991 66.9485 96.9933 66.8889 96.9933 66.8301C96.9933 52.5942 96.9931 38.3585 96.9937 24.1227C96.9937 23.6318 96.9447 23.6825 97.4297 23.6822C99.598 23.6809 101.766 23.6861 103.934 23.6758C104.192 23.6745 104.259 23.7474 104.259 24.0064C104.251 28.1495 104.253 32.2925 104.253 36.4651ZM104.206 52.7212C104.202 53.2757 104.193 53.8301 104.196 54.3845C104.2 55.3135 104.393 56.2067 104.723 57.0698C105.273 58.5094 106.193 59.6357 107.541 60.3662C108.908 61.1074 110.37 61.3461 111.903 61.0924C114.56 60.6527 116.307 59.1059 117.207 56.5581C117.556 55.5669 117.689 54.5337 117.609 53.4811C117.568 52.9475 117.533 52.4085 117.428 51.8858C117.088 50.1867 116.237 48.7777 114.864 47.7558C113.151 46.4811 111.214 46.1194 109.151 46.6275C107.233 47.0999 105.817 48.2378 104.953 50.0601C104.559 50.8897 104.335 51.7627 104.206 52.7212Z" fill="black"/>
<path d="M61.5267 45.9705C62.0411 44.4895 62.5441 43.029 63.0599 41.5732C63.0921 41.4818 63.2241 41.364 63.3102 41.3638C66.0587 41.3539 68.8074 41.3569 71.5561 41.3592C71.583 41.3593 71.6099 41.3768 71.6804 41.4012C71.5659 41.6702 71.4606 41.9375 71.3397 42.1973C70.4823 44.0409 69.6203 45.8822 68.7627 47.7256C68.169 49.0016 67.5803 50.28 66.9889 51.557C66.2247 53.2066 65.4599 54.8558 64.6957 56.5053C64.1041 57.7823 63.5137 59.0598 62.9222 60.3368C62.158 61.9863 61.3934 63.6356 60.6291 65.285C60.3333 65.9235 60.0274 66.5576 59.7481 67.2035C59.6494 67.4319 59.5014 67.4702 59.292 67.4533C59.0811 67.4363 58.877 67.5029 58.7387 67.2183C57.9644 65.6259 57.1656 64.0458 56.3749 62.4615C55.5886 60.886 54.8022 59.3106 54.0156 57.7352C53.2464 56.1949 52.4774 54.6546 51.7079 53.1145C51.6691 53.037 51.6267 52.9615 51.5679 52.8509C51.5153 52.9356 51.4736 52.9936 51.4412 53.0566C50.5837 54.7145 49.7289 56.3736 48.8706 58.031C48.1247 59.4712 47.3753 60.9095 46.6276 62.3486C45.8662 63.8138 45.1051 65.2792 44.3431 66.744C44.3117 66.8043 44.2553 66.8558 44.2387 66.919C44.0977 67.4579 43.7054 67.5228 43.2546 67.4446C43.1421 67.4252 42.9909 67.3458 42.9477 67.2513C42.4413 66.1408 41.9536 65.0213 41.4576 63.9058C41.0566 63.004 40.649 62.1055 40.248 61.2038C39.5614 59.6598 38.8799 58.1135 38.1923 56.5699C37.6914 55.4453 37.1817 54.3249 36.6804 53.2005C36.0799 51.8535 35.4857 50.5035 34.8856 49.156C34.4802 48.2458 34.0672 47.3389 33.6616 46.4285C33.0616 45.0812 32.4657 43.7319 31.8667 42.3842C31.7243 42.0635 31.5764 41.7455 31.4119 41.3842C31.5217 41.372 31.6009 41.3555 31.68 41.3555C34.5062 41.3542 37.3324 41.3568 40.1586 41.3499C40.3843 41.3493 40.476 41.4393 40.5507 41.6446C41.562 44.4269 42.5837 47.2055 43.5994 49.9862C44.0921 51.3352 44.5776 52.6872 45.067 54.0375C45.0894 54.0992 45.12 54.1579 45.1686 54.2673C45.2421 54.128 45.2974 54.0293 45.3474 53.928C47.3643 49.8378 49.3807 45.7472 51.3963 41.6563C51.4787 41.4889 51.5369 41.3378 51.7863 41.3429C52.0237 41.3478 52.0984 41.4742 52.1866 41.6482C53.1316 43.5148 54.0806 45.3793 55.0297 47.2438C55.593 48.3502 56.1577 49.4556 56.7233 50.5608C57.3549 51.7949 57.988 53.0283 58.6346 54.2898C58.9081 53.5012 59.1723 52.7383 59.4373 51.9758C60.1307 49.981 60.8244 47.9865 61.5267 45.9705Z" fill="black"/>
<path d="M140.86 66.4706C139.621 67.168 138.312 67.6019 136.934 67.7893C136.009 67.9152 135.08 67.9549 134.139 67.881C132.935 67.7866 131.77 67.5637 130.658 67.097C129.029 66.4139 127.727 65.3396 126.854 63.7622C126.228 62.6289 125.932 61.4147 125.911 60.1164C125.895 59.088 125.999 58.086 126.362 57.12C126.795 55.9663 127.498 55.0124 128.443 54.24C129.908 53.0434 131.617 52.447 133.452 52.2024C134.318 52.0869 135.197 52.0362 136.071 52.0254C138.104 52.0004 140.137 52.0102 142.17 52.0253C142.475 52.0276 142.539 51.9333 142.534 51.6437C142.521 50.783 142.556 49.9233 142.294 49.0836C141.839 47.6254 140.845 46.7519 139.421 46.378C138.858 46.2302 138.264 46.1386 137.683 46.1392C135.861 46.1407 134.205 46.7002 132.78 47.8662C132.121 48.4057 131.516 49.0136 130.893 49.5979C130.81 49.6754 130.768 49.797 130.685 49.9337C129.354 48.3326 128.103 46.8282 126.842 45.3116C126.996 45.1229 127.134 44.9367 127.289 44.7667C128.727 43.1892 130.36 41.8794 132.308 41.0009C133.602 40.4166 134.95 40.0062 136.363 39.8897C137.439 39.801 138.526 39.7214 139.6 39.7819C141.668 39.898 143.636 40.4372 145.389 41.6043C146.644 42.4393 147.629 43.537 148.36 44.8727C149.083 46.1919 149.509 47.6027 149.671 49.0953C149.753 49.8413 149.836 50.5922 149.839 51.3412C149.853 56.5252 149.846 61.7092 149.846 66.8932C149.846 67.2747 149.846 67.2752 149.467 67.2752C147.453 67.2753 145.44 67.2704 143.427 67.2812C143.169 67.2824 143.096 67.209 143.103 66.9499C143.12 66.2347 143.109 65.5189 143.109 64.7176C142.428 65.4556 141.672 65.9839 140.86 66.4706ZM133.455 58.4666C132.845 59.9483 133.5 61.527 135.032 62.1236C136.002 62.5012 136.987 62.5769 138.008 62.399C139.315 62.1714 140.438 61.6243 141.312 60.5879C142.132 59.6172 142.525 58.4987 142.534 57.225C142.536 56.956 142.449 56.9003 142.202 56.9017C140.451 56.9117 138.7 56.899 136.95 56.9124C136.49 56.916 136.025 56.9526 135.572 57.033C134.684 57.1909 133.922 57.5734 133.455 58.4666Z" fill="black"/>
<path d="M86.6737 41.9816C88.3218 42.5276 89.7188 43.4342 90.8304 44.7502C91.9604 46.0879 92.6271 47.6683 92.9137 49.3943C93.0633 50.295 93.1444 51.2177 93.1486 52.131C93.1707 57.0493 93.159 61.9679 93.159 66.8863C93.159 67.275 93.1587 67.2754 92.7876 67.2754C90.9486 67.2756 89.1097 67.2756 87.2707 67.2754C86.8868 67.2754 86.8866 67.2752 86.8864 66.8993C86.8863 66.2616 86.8864 65.624 86.8864 64.9257C86.749 65.027 86.6366 65.0923 86.5451 65.18C85.196 66.4744 83.5838 67.2296 81.7844 67.6376C80.61 67.9039 79.422 67.9256 78.242 67.8484C76.4518 67.7316 74.7707 67.2076 73.3263 66.0772C71.8696 64.937 71.0256 63.4273 70.7337 61.5824C70.5407 60.3614 70.6216 59.1666 70.9824 57.9949C71.244 57.1454 71.6771 56.3856 72.2787 55.728C73.6028 54.2806 75.2841 53.5526 77.1586 53.1857C78.281 52.966 79.4104 52.896 80.5493 52.9C82.1173 52.9056 83.6853 52.9034 85.2533 52.8999C85.5893 52.899 85.9253 52.8782 86.2614 52.8666C86.2761 52.527 86.3253 52.1847 86.2978 51.8487C86.253 51.2974 86.208 50.7374 86.0748 50.2039C85.7796 49.0199 85.0153 48.2337 83.9076 47.779C83.3197 47.5377 82.7086 47.4474 82.076 47.4159C80.9123 47.3576 79.7786 47.4903 78.737 48.0234C78.0623 48.3689 77.4196 48.7983 76.8164 49.2623C76.2657 49.686 75.7878 50.2072 75.2773 50.6849C75.222 50.7364 75.163 50.7839 75.0706 50.8634C73.8896 49.4433 72.7193 48.0362 71.5536 46.6346C74.5756 42.5033 80.4967 40.129 86.6737 41.9816ZM83.8953 57.4964C82.5456 57.5354 81.1908 57.3967 79.8461 57.6144C79.305 57.702 78.7866 57.8702 78.3636 58.2269C77.3401 59.0899 77.2578 60.7343 78.181 61.7117C79.0307 62.6114 80.147 62.7872 81.29 62.7764C81.9683 62.77 82.6357 62.6027 83.2826 62.3436C85.1193 61.6074 86.3507 59.7616 86.31 57.7604C86.3058 57.554 86.2451 57.4896 86.0433 57.4924C85.3467 57.5027 84.65 57.4964 83.8953 57.4964Z" fill="black"/>
<path d="M116.065 32.7101C116.96 32.2956 117.854 31.9298 118.706 31.4819C120.159 30.7185 121.53 29.8218 122.829 28.8021C123.979 27.8982 125.048 26.9072 126.021 25.8202C126.783 24.9676 127.486 24.0501 128.129 23.1006C128.811 22.0938 129.455 21.0489 129.995 19.9589C130.551 18.8368 130.96 17.6401 131.433 16.4759C131.461 16.4059 131.487 16.3346 131.518 16.2529C135.135 17.3644 138.74 18.4721 142.377 19.5899C138.929 25.0331 134.368 29.1756 128.575 31.8594C122.776 34.5464 116.688 35.3276 110.389 34.4989C110.384 34.4731 110.38 34.4474 110.375 34.4216C110.687 34.3562 110.999 34.2951 111.309 34.2245C111.631 34.1514 111.957 34.0898 112.269 33.9871C113.53 33.5729 114.787 33.1448 116.065 32.7101Z" fill="#00A557"/>
<path d="M71.7367 75.6278C71.8791 76.2954 72.0173 76.9383 72.16 77.6033C72.4651 76.4074 72.7638 75.2364 73.0628 74.0654C73.1424 73.7533 73.2233 73.4415 73.3021 73.1293C73.3397 72.9811 73.3775 72.8601 73.58 72.8654C73.7755 72.8705 73.8395 72.9513 73.8855 73.1333C74.2561 74.5988 74.6384 76.0613 75.0348 77.5938C75.1391 77.1148 75.2348 76.6931 75.3221 76.2697C75.5407 75.2101 75.757 74.15 75.9707 73.0893C76.0258 72.8154 76.206 72.8604 76.4345 72.9028C76.3717 73.2115 76.3151 73.5121 76.249 73.8104C75.9447 75.1813 75.6375 76.5514 75.3321 77.9218C75.2958 78.0844 75.284 78.2431 75.0423 78.24C74.8185 78.2371 74.7807 78.1181 74.7351 77.9381C74.3783 76.5284 74.0111 75.1215 73.6467 73.7138C73.6378 73.6795 73.6234 73.6465 73.585 73.5374C73.5341 73.7105 73.5001 73.8148 73.473 73.921C73.123 75.2823 72.7711 76.6431 72.4283 78.0063C72.383 78.186 72.293 78.232 72.1225 78.2385C71.9378 78.2458 71.8874 78.14 71.8558 77.9985C71.4908 76.3615 71.1268 74.7243 70.7647 73.0865C70.7527 73.0327 70.7631 72.9737 70.7631 72.9188C71.1178 72.8264 71.1465 72.8418 71.2168 73.1717C71.3893 73.982 71.5605 74.7927 71.7367 75.6278Z" fill="black"/>
<path d="M27.8209 72.8716C28.406 72.8943 28.9686 72.8013 29.5125 73.018C29.9859 73.2064 30.2337 73.5737 30.2663 74.0847C30.3017 74.6396 30.1066 75.0506 29.5936 75.3513C30.0457 75.5064 30.4035 75.7231 30.5342 76.1593C30.7762 76.966 30.5105 77.9744 29.2875 78.156C28.6145 78.2558 27.9206 78.2167 27.2362 78.2208C27.1796 78.2213 27.0759 78.0743 27.073 77.993C27.0572 77.5323 27.0653 77.0708 27.0653 76.6096C27.0652 75.4713 27.0732 74.3327 27.0593 73.1946C27.056 72.9328 27.13 72.8357 27.386 72.8684C27.5193 72.8856 27.6565 72.8716 27.8209 72.8716ZM27.8579 75.5814C27.721 75.6001 27.5269 75.5086 27.5289 75.7791C27.5336 76.4171 27.5259 77.0554 27.5377 77.6934C27.5389 77.7559 27.6417 77.8706 27.6956 77.8694C28.1867 77.8598 28.6847 77.8733 29.1655 77.7894C29.4412 77.7413 29.7563 77.5848 29.9356 77.3738C30.465 76.7504 30.1977 75.8851 29.4065 75.6946C28.9272 75.579 28.4126 75.614 27.8579 75.5814ZM27.5886 73.2454C27.5705 73.2786 27.5369 73.3116 27.5366 73.3447C27.5322 73.9138 27.5259 74.4831 27.5396 75.0518C27.5412 75.112 27.6669 75.22 27.7339 75.2191C28.1283 75.2138 28.534 75.2337 28.9126 75.144C29.2037 75.075 29.5442 74.9216 29.7159 74.6926C30.1242 74.148 29.7584 73.3967 29.053 73.2957C28.5882 73.2291 28.1113 73.2488 27.5886 73.2454Z" fill="black"/>
<path d="M48.0805 74.226C48.4415 74.324 48.776 74.4221 49.132 74.5265C49.1187 74.4267 49.0824 74.2721 49.08 74.1171C49.0723 73.6173 49.0793 73.1173 49.0753 72.6173C49.0743 72.4774 49.1073 72.3988 49.2675 72.3965C49.4328 72.3943 49.4857 72.459 49.4853 72.6217C49.4818 74.4157 49.4827 76.2097 49.484 78.0035C49.4841 78.1337 49.4684 78.263 49.305 78.2214C49.2361 78.204 49.1764 78.0978 49.1398 78.019C49.1143 77.9638 49.135 77.8865 49.135 77.8668C48.7985 78.0081 48.4728 78.2113 48.1215 78.2794C47.2063 78.457 46.5705 77.9117 46.388 77.138C46.215 76.4048 46.1977 75.68 46.6055 75.0113C46.9344 74.4718 47.4074 74.1771 48.0805 74.226ZM46.8671 77.1907C47.3774 78.2717 48.4118 78.0558 48.9883 77.3997C49.0447 77.3355 49.0718 77.224 49.0728 77.134C49.08 76.5071 49.0793 75.8803 49.0734 75.2534C49.0725 75.1717 49.0487 75.0743 49.0007 75.0114C48.5724 74.4507 47.5731 74.4617 47.1433 75.0198C46.6393 75.6741 46.5865 76.3868 46.8671 77.1907Z" fill="black"/>
<path d="M100.873 78.2284C100.635 78.2648 100.588 78.1581 100.59 77.9611C100.598 77.1668 100.603 76.3721 100.587 75.5781C100.583 75.3697 100.542 75.1412 100.447 74.9599C100.269 74.6174 99.8824 74.4645 99.5278 74.6325C99.2048 74.7855 98.9204 75.0291 98.6365 75.2554C98.5734 75.3056 98.5645 75.4508 98.5638 75.5525C98.5583 76.3566 98.5598 77.1609 98.5614 77.9651C98.5617 78.1102 98.5697 78.2359 98.3604 78.2365C98.1566 78.2371 98.1527 78.1218 98.1528 77.9711C98.1548 76.2058 98.1541 74.4404 98.1541 72.6751C98.1541 72.5374 98.1307 72.4006 98.3464 72.3956C98.5735 72.3905 98.562 72.5275 98.5616 72.6824C98.5596 73.3747 98.5607 74.0669 98.5607 74.7939C98.774 74.6424 98.9485 74.5094 99.1315 74.3899C99.606 74.0802 100.404 74.1504 100.719 74.5811C100.876 74.7945 100.978 75.0971 100.987 75.3638C101.02 76.2452 101.002 77.1286 100.996 78.0112C100.995 78.0831 100.933 78.1544 100.873 78.2284Z" fill="black"/>
<path d="M136.662 76.9368C136.662 76.4367 136.665 75.966 136.661 75.4952C136.656 74.7678 136.084 74.3715 135.441 74.6832C135.17 74.8144 134.939 75.0394 134.713 75.2478C134.645 75.3107 134.634 75.4611 134.633 75.5718C134.626 76.3661 134.63 77.1604 134.629 77.9548C134.629 78.0901 134.658 78.2308 134.44 78.2371C134.216 78.2435 134.221 78.1114 134.222 77.9535C134.223 76.1982 134.223 74.4428 134.222 72.6874C134.222 72.5364 134.202 72.3934 134.433 72.3965C134.673 72.3998 134.628 72.5611 134.628 72.7008C134.63 73.3858 134.629 74.0707 134.629 74.8047C134.775 74.6967 134.889 74.6148 135 74.5294C135.568 74.0934 136.382 74.0812 136.763 74.5562C136.927 74.7607 137.044 75.0615 137.055 75.324C137.091 76.2051 137.067 77.0887 137.07 77.9712C137.07 78.1214 137.067 78.2377 136.863 78.2372C136.654 78.2368 136.66 78.1122 136.661 77.9665C136.664 77.6331 136.662 77.2997 136.662 76.9368Z" fill="black"/>
<path d="M141.192 76.3477C140.875 76.3477 140.588 76.3477 140.301 76.3477C140.299 77.1301 140.677 77.7254 141.288 77.8954C141.714 78.0143 142.133 77.9468 142.517 77.7275C142.647 77.6533 142.761 77.6001 142.811 77.7738C142.833 77.8497 142.774 78.0057 142.707 78.044C141.6 78.6727 140.195 78.277 139.912 76.8183C139.771 76.0937 139.87 75.4233 140.317 74.8181C140.676 74.3321 141.312 74.1044 141.946 74.2568C142.508 74.392 142.897 74.835 142.989 75.4537C143.019 75.6557 143.03 75.8604 143.05 76.0638C143.073 76.2857 142.966 76.3544 142.759 76.3507C142.246 76.3416 141.734 76.3477 141.192 76.3477ZM140.388 75.5156C140.351 75.6628 140.313 75.8101 140.267 75.9943C140.925 75.9943 141.541 75.9943 142.158 75.9943C142.684 75.9943 142.684 75.9943 142.584 75.4663C142.451 74.7616 141.778 74.3944 141.129 74.6734C140.768 74.8284 140.551 75.118 140.388 75.5156Z" fill="black"/>
<path d="M125.773 78.3312C124.53 78.1858 124.012 77.0442 124.162 75.9268C124.234 75.3889 124.444 74.9466 124.841 74.5745C125.379 74.0701 126.695 74.0075 127.113 74.9918C127.274 75.3725 127.326 75.7586 127.313 76.1655C127.307 76.3643 127.182 76.3475 127.055 76.3475C126.339 76.3473 125.622 76.3469 124.906 76.3476C124.576 76.3479 124.531 76.403 124.598 76.722C124.818 77.78 125.762 78.2443 126.72 77.7666C126.805 77.7242 126.892 77.6869 126.98 77.6468C127.155 77.826 127.189 77.9468 126.936 78.075C126.573 78.259 126.199 78.3536 125.773 78.3312ZM124.742 75.3166C124.695 75.4548 124.642 75.5913 124.601 75.7315C124.555 75.8889 124.578 75.9973 124.782 75.9956C125.418 75.9903 126.054 75.9979 126.691 75.9878C126.762 75.9868 126.878 75.9165 126.894 75.8565C126.986 75.5133 126.691 74.8908 126.376 74.7245C125.769 74.4038 125.227 74.589 124.742 75.3166Z" fill="black"/>
<path d="M79.7597 77.631C80.2959 78.0548 80.8474 78.039 81.402 77.7397C81.6394 77.6117 81.7554 77.6544 81.803 77.9423C81.188 78.3591 80.5306 78.4803 79.8446 78.1603C79.1546 77.8384 78.8453 77.2471 78.8126 76.4897C78.7884 75.9317 78.8362 75.3953 79.168 74.92C79.692 74.1698 80.6782 73.9763 81.392 74.5051C81.7779 74.791 81.9202 75.2217 81.9457 75.6828C81.9824 76.3468 81.9697 76.3475 81.3279 76.3475C80.7182 76.3475 80.108 76.3588 79.4986 76.3425C79.2252 76.3353 79.1904 76.4485 79.2396 76.6811C79.3169 77.0463 79.4624 77.3675 79.7597 77.631ZM79.9673 74.7027C79.4967 74.9824 79.2952 75.421 79.2187 75.9704C80.0246 75.9704 80.799 75.9704 81.5739 75.9704C81.5407 74.6937 80.7236 74.3663 79.9673 74.7027Z" fill="black"/>
<path d="M84.8273 74.9485C84.5599 75.0987 84.5949 74.8498 84.4993 74.7444C85.054 74.2695 85.6805 74.1314 86.3533 74.2609C86.8473 74.3559 87.1715 74.8647 87.1759 75.4685C87.1817 76.2929 87.1786 77.1175 87.176 77.9421C87.1756 78.0692 87.2255 78.2345 86.9999 78.2324C86.771 78.2302 86.844 78.0594 86.8289 77.9364C86.8243 77.8979 86.8219 77.8594 86.814 77.7725C86.6809 77.8544 86.568 77.9175 86.4615 77.9901C86.0523 78.2688 85.6096 78.3789 85.12 78.2882C84.738 78.2174 84.4359 77.9315 84.3473 77.5439C84.2437 77.0909 84.4082 76.5862 84.7259 76.3528C85.1966 76.0068 85.7497 75.9085 86.3019 75.8217C86.8132 75.7411 86.8395 75.7215 86.7126 75.2222C86.5859 74.7241 86.19 74.4681 85.6682 74.5985C85.3835 74.6698 85.1183 74.8224 84.8273 74.9485ZM84.7795 76.9744C84.64 77.5702 84.9185 77.9305 85.5105 77.9404C85.9563 77.9478 86.3027 77.7321 86.6279 77.4625C86.8857 77.2488 86.7322 76.9492 86.7686 76.6895C86.782 76.5937 86.7599 76.4925 86.7729 76.3965C86.8107 76.1182 86.6566 76.0747 86.4445 76.1209C86.1443 76.1864 85.8435 76.2534 85.55 76.3437C85.2309 76.4418 84.9392 76.5922 84.7795 76.9744Z" fill="black"/>
<path d="M113.921 78.2858C113.107 78.0481 112.736 77.4725 112.614 76.6817C112.51 76.0044 112.615 75.3817 113.034 74.8313C113.757 73.8804 115.309 74.0308 115.81 75.1351C116.203 75.999 116.209 76.8893 115.618 77.6893C115.202 78.2518 114.607 78.3881 113.921 78.2858ZM114.618 74.6213C114.209 74.508 113.867 74.6301 113.547 74.8983C112.861 75.4727 112.848 76.8671 113.434 77.5574C113.748 77.9268 114.353 78.0486 114.786 77.84C115.292 77.5967 115.513 77.1523 115.607 76.6327C115.743 75.8893 115.466 74.9124 114.618 74.6213Z" fill="black"/>
<path d="M35.7767 75.9939C35.7767 75.484 35.7795 75.0036 35.7751 74.5232C35.7737 74.3756 35.7968 74.2816 35.9768 74.2818C36.1507 74.2819 36.1855 74.363 36.1851 74.5169C36.1815 75.6739 36.1864 76.8309 36.1761 77.9878C36.1754 78.0692 36.0865 78.2029 36.0164 78.2205C35.828 78.2676 35.833 78.1108 35.8345 77.9789C35.8357 77.8849 35.8348 77.7908 35.8348 77.6562C35.649 77.8066 35.5065 77.9332 35.353 78.0439C35.0087 78.2923 34.6313 78.3796 34.2095 78.2932C33.8577 78.221 33.5975 78.0415 33.4861 77.6948C33.4125 77.4652 33.3491 77.2212 33.344 76.9822C33.3265 76.1786 33.3381 75.3743 33.3367 74.5703C33.3364 74.4178 33.3201 74.2775 33.5491 74.2813C33.7905 74.2855 33.7424 74.4489 33.7428 74.5873C33.7451 75.303 33.7391 76.0189 33.747 76.7346C33.7491 76.938 33.768 77.1459 33.8138 77.3433C33.9395 77.8852 34.5487 78.1242 35.069 77.815C35.3055 77.6745 35.504 77.4622 35.7018 77.264C35.7588 77.207 35.7711 77.0863 35.7734 76.994C35.7817 76.6706 35.7767 76.3469 35.7767 75.9939Z" fill="black"/>
<path d="M58.7187 77.6417C58.7187 76.926 58.7305 76.239 58.7116 75.5528C58.7059 75.3451 58.648 75.123 58.556 74.937C58.4169 74.6557 58.0119 74.518 57.6965 74.6025C57.3073 74.707 57.0057 74.9495 56.7576 75.2575C56.6995 75.3297 56.6895 75.4571 56.6889 75.5592C56.6836 76.3635 56.6843 77.168 56.6872 77.9722C56.6877 78.1235 56.6826 78.238 56.4792 78.2372C56.2695 78.2367 56.2785 78.11 56.2786 77.9654C56.28 76.8374 56.2782 75.7092 56.2812 74.5812C56.2815 74.4567 56.225 74.2882 56.452 74.2864C56.6789 74.2845 56.6186 74.4515 56.6269 74.5777C56.632 74.6552 56.6279 74.7335 56.6279 74.8482C56.8426 74.6921 57.0277 74.5464 57.2236 74.4175C57.6595 74.1307 58.1366 74.1372 58.5783 74.3474C58.9942 74.5454 59.1133 74.9767 59.1209 75.4127C59.1356 76.2658 59.1237 77.1194 59.1266 77.9728C59.127 78.1244 59.1212 78.2381 58.9182 78.2372C58.7079 78.2365 58.7149 78.1091 58.7183 77.965C58.7206 77.867 58.7187 77.7688 58.7187 77.6417Z" fill="black"/>
<path d="M109.015 77.6992C109.015 77.7871 109.02 77.8464 109.014 77.9047C109.001 78.0452 109.083 78.2325 108.817 78.2364C108.557 78.2401 108.61 78.0627 108.609 77.9152C108.608 76.5132 108.61 75.1112 108.608 73.7092C108.607 73.1594 108.672 73.2304 108.128 73.2258C107.8 73.2231 107.471 73.2227 107.142 73.2264C107.008 73.228 106.89 73.1974 106.935 73.0378C106.954 72.9685 107.068 72.8797 107.14 72.879C108.251 72.869 109.363 72.8727 110.474 72.8711C110.603 72.8708 110.734 72.889 110.688 73.0522C110.667 73.1258 110.542 73.2138 110.461 73.2175C110.075 73.2348 109.688 73.2391 109.302 73.2202C109.065 73.2085 109.009 73.2967 109.011 73.5232C109.019 74.9055 109.015 76.288 109.015 77.6992Z" fill="black"/>
<path d="M130.447 73.4169C130.463 73.7143 130.384 74.0703 130.523 74.2281C130.643 74.3644 131.012 74.2754 131.271 74.2856C131.309 74.2871 131.348 74.2877 131.387 74.2856C131.518 74.2783 131.646 74.3089 131.598 74.4691C131.571 74.5597 131.46 74.6767 131.375 74.6874C131.137 74.7174 130.893 74.7031 130.651 74.6967C130.503 74.6927 130.442 74.7503 130.446 74.9031C130.468 75.7536 130.476 76.6049 130.511 77.4547C130.527 77.8267 130.847 78.0141 131.255 77.9281C131.358 77.9066 131.457 77.8666 131.554 77.8359C131.722 78.1093 131.7 78.1824 131.432 78.2626C130.77 78.4607 130.201 78.1936 130.109 77.6273C130.067 77.3686 130.047 77.1039 130.043 76.8413C130.034 76.2531 130.027 75.6643 130.046 75.0766C130.055 74.7961 130.003 74.6434 129.687 74.6921C129.62 74.7024 129.496 74.6534 129.478 74.6027C129.435 74.4797 129.44 74.3621 129.634 74.3409C130.099 74.2897 130.098 74.2801 130.098 73.825C130.098 73.6779 130.08 73.5274 130.106 73.385C130.12 73.3059 130.195 73.1963 130.263 73.1771C130.422 73.1329 130.455 73.2549 130.447 73.4169Z" fill="black"/>
<path d="M94.0644 77.7095C94.0281 76.8176 93.9893 75.9478 93.98 75.0778C93.9771 74.8028 93.9418 74.6386 93.6224 74.6943C93.5007 74.7156 93.3917 74.6959 93.3914 74.5193C93.3913 74.3399 93.5033 74.3519 93.6241 74.3415C93.9934 74.3092 94.0307 74.2642 94.0314 73.8939C94.0317 73.7468 94.0283 73.5995 94.0323 73.4523C94.036 73.3231 93.9884 73.1598 94.2127 73.1662C94.4406 73.1726 94.372 73.3441 94.3777 73.4666C94.3861 73.6429 94.3948 73.8215 94.3763 73.9961C94.35 74.2412 94.4566 74.3046 94.6766 74.2881C94.8787 74.2729 95.083 74.2909 95.2859 74.2833C95.4409 74.2776 95.4848 74.3501 95.486 74.4961C95.4871 74.6522 95.4213 74.7031 95.2758 74.6986C95.0534 74.6921 94.8304 74.7061 94.6084 74.6945C94.4268 74.6852 94.3757 74.7628 94.3773 74.9369C94.3838 75.6532 94.3748 76.3698 94.384 77.0861C94.386 77.2493 94.4206 77.4172 94.4688 77.5739C94.564 77.8829 94.8301 78.0061 95.1957 77.9249C95.2976 77.9023 95.396 77.8641 95.492 77.8342C95.6511 78.1162 95.6273 78.1903 95.3567 78.2642C94.7147 78.4396 94.1386 78.1916 94.0644 77.7095Z" fill="black"/>
<path d="M43.0323 78.1011C42.9885 77.8587 42.9268 77.638 42.9257 77.4171C42.9173 75.8464 42.9214 74.2758 42.9208 72.7051C42.9208 72.5464 42.8933 72.3968 43.1424 72.3927C43.4007 72.3884 43.3873 72.536 43.387 72.7125C43.385 74.3322 43.3855 75.952 43.3861 77.5717C43.3863 77.7347 43.3495 77.9072 43.5924 77.9574C43.6583 77.9711 43.6971 78.1194 43.7594 78.2245C43.4694 78.3524 43.2347 78.387 43.0323 78.1011Z" fill="black"/>
<path d="M90.2554 73.1665C90.2554 72.9802 90.2579 72.8232 90.2547 72.6664C90.2517 72.5205 90.2477 72.3959 90.4564 72.3955C90.661 72.3951 90.6633 72.5118 90.6631 72.6618C90.6611 74.1332 90.6619 75.6045 90.662 77.0759C90.662 77.2624 90.6659 77.4488 90.6607 77.6351C90.6564 77.7959 90.6736 77.9224 90.8739 77.9535C90.9271 77.9618 91.0014 78.0789 90.998 78.1422C90.9947 78.2024 90.9123 78.2858 90.8471 78.3099C90.5566 78.4172 90.2692 78.1771 90.2576 77.8159C90.2476 77.5024 90.2554 77.1881 90.2554 76.8742C90.2554 75.6481 90.2554 74.4219 90.2554 73.1665Z" fill="black"/>
<path d="M146.696 74.377C146.954 74.3191 147.194 74.2599 147.439 74.2384C147.494 74.2334 147.561 74.359 147.623 74.4244C147.549 74.4951 147.474 74.6274 147.401 74.6269C146.706 74.6217 146.187 75.1286 146.187 75.8429C146.186 76.5389 146.187 77.2349 146.186 77.9309C146.184 78.0691 146.233 78.2327 145.991 78.237C145.763 78.2411 145.779 78.1011 145.779 77.9484C145.78 76.821 145.78 75.6937 145.78 74.5664C145.78 74.4337 145.746 74.2773 145.967 74.2859C146.173 74.2939 146.119 74.4449 146.129 74.5624C146.136 74.6556 146.139 74.749 146.147 74.8857C146.349 74.6969 146.513 74.5431 146.696 74.377Z" fill="black"/>
<path d="M52.6783 76.7009C52.6783 75.9765 52.677 75.2816 52.6793 74.5868C52.6799 74.4485 52.632 74.2856 52.8729 74.2813C53.1009 74.2773 53.0857 74.4165 53.0856 74.5693C53.0843 75.6949 53.0844 76.8205 53.0853 77.9459C53.0854 78.0963 53.106 78.2395 52.8757 78.2369C52.6367 78.234 52.6797 78.0746 52.679 77.9342C52.677 77.5329 52.6783 77.1316 52.6783 76.7009Z" fill="black"/>
<path d="M39.3779 75.9354C39.3779 75.4459 39.3803 74.9859 39.3765 74.5259C39.3753 74.3815 39.3923 74.2819 39.575 74.2822C39.7452 74.2825 39.7869 74.3567 39.7863 74.5135C39.7825 75.6781 39.7825 76.8428 39.7865 78.0074C39.787 78.1662 39.7412 78.2362 39.5729 78.2365C39.3882 78.2368 39.376 78.1331 39.3766 77.9908C39.3795 77.3155 39.3779 76.6401 39.3779 75.9354Z" fill="black"/>
<path d="M52.5809 73.2455C52.6144 73.0754 52.6207 72.8925 52.7137 72.7928C52.772 72.7302 52.9862 72.7488 53.085 72.8084C53.261 72.9144 53.3079 73.0948 53.1652 73.2818C53.0316 73.4564 52.8007 73.4502 52.5809 73.2455Z" fill="black"/>
<path d="M39.7026 73.3955C39.545 73.3478 39.3343 73.3285 39.2967 73.2365C39.2493 73.1208 39.3013 72.8599 39.3869 72.8164C39.5052 72.7562 39.7644 72.7829 39.8384 72.8752C39.9649 73.0334 39.9682 73.2648 39.7026 73.3955Z" fill="black"/>
</g>
</g>
<defs>
<clipPath id="clip0_298_13086">
<rect width="177.143" height="80" fill="white"/>
</clipPath>
</defs>
</svg>
