<svg width="143" height="40" viewBox="0 0 143 40" fill="none" xmlns="http://www.w3.org/2000/svg">
<g clip-path="url(#clip0_298_12395)">
<path d="M62.1117 0.0693359C57.0408 2.74806 53.607 7.86579 53.5751 13.7416L49.6696 6.95302L46.2463 8.93458L51.238 17.6084H55.8012C55.8012 11.8282 59.3362 6.80622 64.5287 4.26649L62.1117 0.0693359Z" fill="#6FE200"/>
<path d="M58.0477 32.9208C57.533 35.0173 56.321 36.3144 54.2625 36.3144C51.2614 36.3144 49.9036 33.8754 49.9036 31.159L63.1852 31.1541V30.2725C63.1852 23.9229 59.9882 20.1924 53.899 20.1924C47.8097 20.1924 44.0527 24.1526 44.0527 30.0293C44.0527 35.9059 47.3642 39.93 54.1536 39.93C58.9855 39.93 61.6902 37.5499 62.8697 34.6924L58.0477 32.9208ZM53.9245 23.4499C56.2806 23.4499 57.3004 24.7783 57.3767 28.3428H50.0394C50.2431 24.8931 51.5427 23.4499 53.9245 23.4499Z" fill="#2D2220"/>
<path d="M14.3136 32.9208C13.7989 35.0173 12.5869 36.3144 10.5283 36.3144C7.52721 36.3144 6.1695 33.8754 6.1695 31.159L19.451 31.1541V30.2725C19.451 23.9229 16.2541 20.1924 10.1649 20.1924C4.07565 20.1924 0.318604 24.1526 0.318604 30.0293C0.318604 35.9059 3.63015 39.93 10.4194 39.93C15.2514 39.93 17.9561 37.5499 19.1356 34.6924L14.3136 32.9208ZM10.1903 23.4499C12.5465 23.4499 13.5662 24.7783 13.6426 28.3428H6.30527C6.50894 24.8931 7.80866 23.4499 10.1903 23.4499Z" fill="#2D2220"/>
<path d="M42.3212 36.1731C41.7725 36.1731 41.3277 35.7269 41.3277 35.1766V13.5234C40.4622 13.7404 38.7431 13.9319 36.795 13.9319H33.1411V17.1368H34.414C34.9627 17.1368 35.4076 17.5829 35.4076 18.1333V23.0964C34.3221 21.3113 32.4624 20.2092 29.4534 20.2156C24.3492 20.2262 21.2541 24.6341 21.0851 30.0638C20.9167 35.4936 24.3054 39.9418 29.3389 39.9312C33.0032 39.9234 34.8552 38.3574 35.7915 35.9546C35.8934 37.4503 36.0312 39.0241 36.0821 39.3787H43.3777V36.1737L42.3212 36.1731ZM31.7354 36.2169C27.6297 36.2169 27.2295 32.0007 27.2295 29.7482C27.2295 25.8461 28.851 23.9213 31.3776 23.9192C33.8144 23.9171 35.4931 25.8063 35.4931 29.7418C35.4931 33.6773 34.1934 36.2169 31.7354 36.2169Z" fill="#2D2220"/>
<path d="M135.983 32.9326C135.469 35.0256 134.259 36.3206 132.204 36.3206C129.208 36.3206 127.852 33.8851 127.852 31.1737L141.111 31.1688V30.2887C141.111 23.9497 137.919 20.2256 131.84 20.2256C125.763 20.2256 122.01 24.1795 122.01 30.0461C122.01 35.9128 125.316 39.9305 132.094 39.9305C136.919 39.9305 139.619 37.554 140.796 34.7021L135.983 32.9326ZM131.866 23.4773C134.219 23.4773 135.236 24.8036 135.312 28.3625H127.987C128.191 24.9185 129.489 23.4773 131.866 23.4773Z" fill="#2D2220"/>
<path d="M122.124 17.0227V13.9474C121.603 13.6673 120.269 13.2588 118.73 13.2588C114.32 13.2588 112.503 14.929 112.503 19.7219V20.729H110.062V23.929H112.503V35.1673C112.503 35.7177 112.057 36.1638 111.508 36.1638H110.354V39.3688H120.268V36.1638H119.304C118.755 36.1638 118.31 35.7177 118.31 35.1673V23.929H121.476V20.729H118.21C118.206 20.6744 118.204 20.4163 118.201 20.3638C118.057 17.4922 118.676 16.8213 120.631 16.7779C120.693 16.7765 120.764 16.7779 120.841 16.7815C121.155 16.7935 121.845 16.9155 122.124 17.0227Z" fill="#2D2220"/>
<path d="M104.196 19.378C106.217 19.378 107.628 17.9375 107.628 16.0893C107.628 14.2412 106.217 12.8262 104.196 12.8262C102.175 12.8262 100.739 14.2667 100.739 16.0893C100.739 17.912 102.098 19.378 104.196 19.378Z" fill="#2D2220"/>
<path d="M108.176 36.1643C107.627 36.1643 107.182 35.7181 107.182 35.1678V20.2969C106.318 20.5139 104.599 20.7054 102.65 20.7054H98.9966V23.9104H100.269C100.818 23.9104 101.263 24.3565 101.263 24.9067L101.259 35.1678C101.259 35.7181 100.815 36.1643 100.266 36.1643H99.1111V39.3693H109.14V36.1643H108.176Z" fill="#2D2220"/>
<path d="M96.9342 36.1639C96.3855 36.1639 95.9406 35.7179 95.9406 35.1675V13.5781C95.0759 13.7951 93.3567 13.9866 91.4086 13.9866H87.7547V17.1916H89.0276C89.5764 17.1916 90.0211 17.6378 90.0211 18.188L90.0176 35.1675C90.0176 35.7179 89.5729 36.1639 89.0241 36.1639H86.5766C86.0576 36.1639 85.6256 35.7632 85.586 35.2434L84.9792 27.315C84.5119 22.5951 81.4562 20.1639 78.919 20.1639C75.9652 20.1639 73.4881 21.3511 72.3037 23.7901V20.2533C71.4127 20.4704 69.6936 20.6874 67.7709 20.6874H64.3335V23.8923H65.4664C66.0151 23.8923 66.4599 24.3384 66.4599 24.8888V35.1668C66.4599 35.7171 66.0151 36.1632 65.4664 36.1632H64.3335V39.3682H74.3155V36.1632H73.3736C72.8249 36.1632 72.3801 35.7171 72.3801 35.1668V29.3959C72.3801 25.6291 74.0299 23.9689 76.309 23.9689C77.2714 23.9689 78.849 24.8384 79.059 27.4291L79.6692 35.0874C79.7152 35.6675 79.2591 36.1632 78.6786 36.1632H77.7339V39.3682H97.8974V36.1632L96.9342 36.1639Z" fill="#2D2220"/>
</g>
<defs>
<clipPath id="clip0_298_12395">
<rect width="142.5" height="40" fill="white"/>
</clipPath>
</defs>
</svg>
