<svg width="215" height="40" viewBox="0 0 215 40" fill="none" xmlns="http://www.w3.org/2000/svg">
<g clip-path="url(#clip0_291_317)">
<path d="M202.118 34.1178C202.118 30.9413 204.706 28.4707 207.765 28.4707C210.941 28.4707 213.412 31.0589 213.412 34.1178C213.412 37.1766 210.824 39.7648 207.765 39.7648C204.706 39.7648 202.118 37.2942 202.118 34.1178Z" fill="#86BC25"/>
<path d="M32.4706 18.9407C32.4706 25.529 30.8235 30.4701 27.2941 33.9995C23.7647 37.529 18.8235 39.2937 12.4706 39.2937H0V0.117188H13.1765C19.4118 0.117188 24.1176 1.6466 27.4118 4.94072C30.8235 8.11719 32.4706 12.8231 32.4706 18.9407ZM21.6471 19.2937C21.6471 15.6466 20.9412 13.0584 19.5294 11.2937C18.2353 9.6466 16 8.70542 13.1765 8.70542H10.3529V30.5878H12.7059C15.8824 30.5878 18.1176 29.6466 19.6471 27.7642C20.9412 25.8819 21.6471 23.0584 21.6471 19.2937Z" fill="#444445"/>
<path d="M76.4705 0H66.7058V39.2941H76.4705V0Z" fill="#444445"/>
<path d="M108.706 24.5881C108.706 29.294 107.529 33.0587 104.941 35.7646C102.353 38.4705 98.8236 39.7646 94.353 39.7646C90 39.7646 86.5883 38.4705 84 35.6469C81.4118 32.8234 80.1177 29.1764 80.1177 24.5881C80.1177 19.8822 81.2942 16.1175 83.8824 13.5293C86.4706 10.8234 90 9.5293 94.4706 9.5293C97.2942 9.5293 99.7647 10.1175 101.882 11.294C104.118 12.4705 105.647 14.2352 106.824 16.4705C108.235 18.9411 108.706 21.5293 108.706 24.5881ZM90.2353 24.5881C90.2353 27.1764 90.5883 28.9411 91.1765 30.2352C91.7647 31.5293 92.8236 32.1175 94.4706 32.1175C96.1177 32.1175 97.0589 31.5293 97.7647 30.2352C98.353 28.9411 98.7059 26.9411 98.7059 24.5881C98.7059 21.9999 98.353 20.2352 97.7647 18.9411C97.1765 17.7646 96.1177 17.0587 94.4706 17.0587C93.0589 17.0587 91.8824 17.6469 91.1765 18.9411C90.5883 20.2352 90.2353 21.9999 90.2353 24.5881Z" fill="#444445"/>
<path d="M122.471 10H112.706V39.1765H122.471V10Z" fill="#444445"/>
<path d="M122.471 0H112.706V6.58824H122.471V0Z" fill="#444445"/>
<path d="M142.353 31.7645C143.647 31.7645 145.294 31.4115 147.059 30.8233V38.2351C145.765 38.8233 144.471 39.1762 143.294 39.4115C142.118 39.6468 140.706 39.7645 139.059 39.7645C135.765 39.7645 133.412 38.9409 131.882 37.1762C130.471 35.5292 129.647 32.9409 129.647 29.5292V17.5292H126.235V9.99977H129.647V2.70565L139.529 1.05859V10.2351H145.882V17.6468H139.529V28.9409C139.765 30.9409 140.588 31.7645 142.353 31.7645Z" fill="#444445"/>
<path d="M165.176 31.7645C166.471 31.7645 168.118 31.4115 169.882 30.8233V38.2351C168.588 38.8233 167.294 39.1762 166.118 39.4115C164.941 39.6468 163.529 39.7645 161.882 39.7645C158.588 39.7645 156.235 38.9409 154.706 37.1762C153.294 35.5292 152.471 32.9409 152.471 29.5292V17.5292H149.059V9.99977H152.471V2.58801L162.353 1.05859V10.2351H168.706V17.6468H162.353V28.9409C162.471 30.9409 163.412 31.7645 165.176 31.7645Z" fill="#444445"/>
<path d="M196.235 12.9411C193.882 10.5881 190.588 9.5293 186.353 9.5293C181.882 9.5293 178.353 10.8234 175.882 13.5293C173.412 16.2352 172.235 19.9999 172.235 24.9411C172.235 29.6469 173.529 33.4117 176.118 35.9999C178.824 38.5881 182.471 39.8822 187.177 39.8822C189.529 39.8822 191.412 39.7646 193.059 39.4116C194.588 39.0587 196.353 38.5881 197.765 37.7646L196.353 31.1764C195.294 31.6469 194.118 31.9999 193.177 32.2352C191.765 32.5881 190.118 32.7058 188.471 32.7058C186.588 32.7058 185.059 32.2352 184 31.4117C182.941 30.4705 182.353 29.1764 182.353 27.5293H199.882V22.9411C199.765 18.5881 198.471 15.294 196.235 12.9411ZM182.353 21.0587C182.471 19.5293 182.941 18.2352 183.647 17.5293C184.353 16.8234 185.294 16.4705 186.588 16.4705C187.765 16.4705 188.941 16.8234 189.647 17.6469C190.353 18.4705 190.706 19.5293 190.824 21.0587H182.353Z" fill="#444445"/>
<path d="M59.4119 12.9411C56.9413 10.5881 53.7648 9.5293 49.5295 9.5293C45.0589 9.5293 41.5295 10.8234 39.0589 13.5293C36.5883 16.2352 35.4119 19.9999 35.4119 24.9411C35.4119 29.6469 36.706 33.4117 39.2942 35.9999C42.0001 38.5881 45.6472 39.8822 50.353 39.8822C52.706 39.8822 54.5883 39.7646 56.2354 39.4116C57.7648 39.0587 59.5295 38.5881 60.9413 37.7646L59.5295 31.0587C58.4707 31.5293 57.2942 31.8822 56.353 32.1175C54.9413 32.4705 53.2942 32.5881 51.6472 32.5881C49.7648 32.5881 48.2354 32.1175 47.1766 31.294C46.1177 30.3528 45.5295 29.0587 45.5295 27.4116H63.0589V22.9411C62.9413 18.5881 61.6472 15.294 59.4119 12.9411ZM45.4119 21.0587C45.5295 19.5293 46.0001 18.2352 46.706 17.5293C47.4119 16.8234 48.353 16.4705 49.6472 16.4705C50.9413 16.4705 52.0001 16.8234 52.706 17.6469C53.4119 18.4705 53.7648 19.5293 53.8825 21.0587H45.4119Z" fill="#444445"/>
</g>
<defs>
<clipPath id="clip0_291_317">
<rect width="214.118" height="40" fill="white"/>
</clipPath>
</defs>
</svg>
