<svg width="181" height="40" viewBox="0 0 181 40" fill="none" xmlns="http://www.w3.org/2000/svg">
<g clip-path="url(#clip0_298_12789)">
<path d="M61.3113 31.6922C54.2981 31.6922 48.9336 26.287 48.9336 19.2951C48.9336 12.3032 54.2634 7.03906 61.3469 7.03906C67.3824 7.03906 72.0683 10.8689 73.2019 16.6121H66.9421C65.9222 14.3179 63.8221 12.971 61.3104 12.971C57.8922 12.971 55.322 15.7168 55.322 19.3308C55.322 22.945 57.9358 25.7612 61.3104 25.7612C63.8575 25.7612 65.8709 24.3428 66.9346 21.8485H73.2807C72.1817 27.7135 67.4096 31.6922 61.3113 31.6922Z" fill="#1440BF"/>
<path d="M99.1965 19.2837C99.1965 19.9001 99.1533 20.517 99.0748 21.1335H81.4328C81.9806 24.3179 84.0717 26.0715 87.129 26.0715C89.3195 26.0715 91.1169 25.0341 92.0742 23.3645H98.6984C97.0028 28.4511 92.5411 31.6922 87.1295 31.6922C80.2464 31.6922 75.0388 26.3582 75.0388 19.3659C75.0388 12.3383 80.2112 7.03906 87.1295 7.03906C94.288 7.03906 99.1979 12.5619 99.1979 19.2832L99.1965 19.2837ZM81.5987 16.8248H92.8948C92.0041 13.9722 89.9574 12.4254 87.129 12.4254C84.3231 12.4254 82.3308 14.0635 81.5987 16.8248Z" fill="#1440BF"/>
<path d="M124.705 16.8915V31.0324H118.402V17.9129C118.402 14.3854 117.064 12.6848 114.337 12.6848C111.087 12.6848 109.105 15.0142 109.105 18.7693V31.0326H102.803V7.69937H107.127L108.356 10.5839C110.12 8.48029 112.906 7.14551 116.079 7.14551C121.392 7.14551 124.705 10.9835 124.705 16.8915Z" fill="#1440BF"/>
<path d="M128.067 19.3659C128.067 12.2877 133.448 7.03906 140.668 7.03906C147.889 7.03906 153.27 12.2949 153.27 19.3659C153.27 26.4012 147.854 31.6922 140.668 31.6922C133.484 31.6922 128.067 26.4012 128.067 19.3659ZM146.881 19.3659C146.881 15.5872 144.302 12.971 140.668 12.971C137.035 12.971 134.457 15.587 134.457 19.3659C134.457 23.1449 137.035 25.7609 140.668 25.7609C144.303 25.7609 146.881 23.1452 146.881 19.3659Z" fill="#1440BF"/>
<path d="M180.645 7.66525V30.998H175.705L175.163 28.9106C173.16 30.6647 170.55 31.6933 167.608 31.6933C160.595 31.6933 155.379 26.3944 155.379 19.3315C155.379 12.2686 160.595 7.04004 167.608 7.04004C170.6 7.04004 173.252 8.09573 175.267 9.89387L175.941 7.66453L180.645 7.66525ZM174.467 19.3322C174.467 15.6668 171.783 12.9373 168.123 12.9373C164.461 12.9373 161.769 15.6749 161.769 19.3322C161.769 22.9895 164.461 25.7271 168.123 25.7271C171.785 25.7271 174.467 22.9971 174.467 19.3322Z" fill="#1440BF"/>
<path d="M22.6502 5.12695H0V14.8447C13.4543 18.5307 24.2169 29.0132 32.0906 38.731H33.5725V16.0598C33.5725 10.0219 28.6819 5.12695 22.6502 5.12695Z" fill="#85D7C9"/>
<path d="M27.7729 0H5.12305V9.71781C18.5773 13.4037 29.34 23.8863 37.2135 33.6041H38.6956V10.9328C38.6956 4.89494 33.8048 0 27.7729 0Z" fill="#1440BF"/>
</g>
<defs>
<clipPath id="clip0_298_12789">
<rect width="180.645" height="40" fill="white"/>
</clipPath>
</defs>
</svg>
