<svg width="211" height="40" viewBox="0 0 211 40" fill="none" xmlns="http://www.w3.org/2000/svg">
<g clip-path="url(#clip0_298_13316)">
<path d="M61.7956 12.4332C60 10.6226 57.4727 9.70215 54.289 9.70215C51.5806 9.70215 49.3097 10.4038 47.5443 11.7995L46.8578 12.3351L49.3927 15.5792L50.0792 15.0435C51.1203 14.2363 52.5311 13.8289 54.2814 13.8289C56.0317 13.8289 57.3746 14.2061 58.3554 14.9455C59.0721 15.4886 59.5851 16.2054 59.9246 17.1258H53.0894C51.9276 17.1258 50.8261 17.1861 49.8001 17.2993C48.7062 17.4275 47.7329 17.7218 46.9106 18.1669C46.0355 18.6422 45.3339 19.3664 44.8208 20.3019C44.3154 21.2374 44.0664 22.4445 44.0664 23.9911C44.0664 24.4664 44.1645 25.0398 44.3757 25.7263C44.6021 26.4883 45.1151 27.2125 45.8846 27.8764C46.6315 28.5177 47.65 29.0382 48.9929 29.4758C50.3207 29.9058 52.0483 30.1171 54.2739 30.1171C56.4995 30.1171 58.2271 29.9058 59.5549 29.4758C60.9053 29.0382 61.9238 28.5177 62.6632 27.8764C63.4327 27.2125 63.9457 26.4883 64.172 25.7263C64.3833 25.0322 64.4813 24.4664 64.4813 23.9911V19.9021C64.4813 16.7485 63.5685 14.2287 61.7729 12.4181L61.7956 12.4332ZM60.3697 21.2676V24.0062C60.3697 24.2778 60.2716 24.4815 60.0528 24.6852C59.736 24.9719 59.2909 25.2057 58.7477 25.3943C58.1517 25.598 57.4651 25.7565 56.6956 25.847C55.1188 26.0431 53.4817 26.0431 51.8974 25.847C51.1279 25.7489 50.4414 25.598 49.8454 25.3943C49.3022 25.2057 48.8646 24.9719 48.5402 24.6852C48.3139 24.489 48.2233 24.2853 48.2233 24.0062C48.2233 23.3046 48.2837 22.7463 48.4044 22.354C48.4798 22.105 48.6383 21.924 48.9174 21.7806C49.1815 21.6448 49.7096 21.4637 50.7054 21.3808C51.5956 21.3053 52.8027 21.2676 54.2965 21.2676H60.3772H60.3697Z" fill="#254E2D"/>
<path d="M83.8174 12.4332C82.0219 10.6226 79.4945 9.70215 76.3108 9.70215C73.1271 9.70215 70.6073 10.6226 68.8042 12.4332C67.0087 14.2438 66.0958 16.7636 66.0958 19.9172C66.0958 23.0707 67.0087 25.6207 68.8042 27.4162C70.5998 29.2118 73.1271 30.1246 76.3033 30.1246C78.6571 30.1246 80.6564 29.6192 82.2633 28.6158C82.0822 29.9662 81.5994 31.0299 80.8299 31.7995C79.8265 32.8029 78.3025 33.3159 76.3033 33.3159H75.4282V37.4502H76.3033C79.4568 37.4502 81.9766 36.5373 83.7873 34.7418C85.5979 32.9462 86.5183 30.4264 86.5183 27.2729V19.9096C86.5183 16.7561 85.6054 14.2363 83.8099 12.4256L83.8174 12.4332ZM76.3108 13.8364C78.3327 13.8364 79.8642 14.3495 80.8752 15.3528C81.8785 16.3562 82.3916 17.8877 82.3916 19.9021L82.3614 20.7697C82.218 22.5275 81.6673 23.8025 80.6639 24.6776C79.6605 25.5528 78.1969 25.9979 76.3108 25.9979C74.289 25.9979 72.7575 25.4849 71.7465 24.4815C70.7431 23.4781 70.2301 21.939 70.2301 19.9172C70.2301 17.8953 70.7431 16.3638 71.7465 15.3528C72.7499 14.3495 74.289 13.8364 76.3108 13.8364Z" fill="#254E2D"/>
<path d="M97.5783 9.73926C94.6134 9.73926 92.252 10.6672 90.5621 12.4929C88.8948 14.296 88.0498 16.8083 88.0498 19.9543V29.958H92.1841V19.9543C92.1841 17.9399 92.6518 16.3933 93.5647 15.3749C94.47 14.3639 95.7827 13.8735 97.5783 13.8735H98.4534V9.73926H97.5783Z" fill="#254E2D"/>
<path d="M117.767 12.4332C115.971 10.6226 113.444 9.70215 110.26 9.70215C107.077 9.70215 104.557 10.6226 102.754 12.4332C100.958 14.2438 100.045 16.7636 100.045 19.9172C100.045 23.0707 100.958 25.6207 102.754 27.4162C104.549 29.2118 107.077 30.1246 110.253 30.1246C113.429 30.1246 115.956 29.2118 117.752 27.4162C119.547 25.6207 120.46 23.0933 120.46 19.9172C120.46 16.741 119.547 14.2438 117.752 12.4332H117.767ZM110.26 25.9903C108.238 25.9903 106.707 25.4773 105.696 24.4739C104.693 23.4705 104.18 21.9315 104.18 19.9096C104.18 17.8877 104.693 16.3562 105.696 15.3453C106.699 14.3419 108.238 13.8289 110.26 13.8289C112.282 13.8289 113.814 14.3419 114.825 15.3453C115.828 16.3487 116.341 17.8877 116.341 19.9096C116.341 21.9315 115.828 23.463 114.825 24.4739C113.821 25.4773 112.282 25.9903 110.26 25.9903Z" fill="#254E2D"/>
<path d="M138.212 26.8732C137.397 27.6653 136.409 28.2613 135.262 28.6612C134.115 29.061 132.84 29.2572 131.43 29.2572C128.48 29.2572 126.179 28.4424 124.549 26.8053C122.912 25.1681 122.097 22.8747 122.097 19.9248C122.097 16.975 122.912 14.7042 124.549 13.0595C126.186 11.4148 128.48 10.585 131.43 10.585C133.859 10.585 135.873 11.1885 137.465 12.3881L136.032 14.2968C134.87 13.4141 133.338 12.969 131.43 12.969C129.159 12.969 127.431 13.565 126.247 14.757C125.062 15.949 124.474 17.6691 124.474 19.9173C124.474 22.1655 125.062 23.9158 126.247 25.1002C127.431 26.2847 129.151 26.8732 131.43 26.8732C133.708 26.8732 135.338 26.2922 136.545 25.138L138.212 26.8732Z" fill="#7DA62F"/>
<path d="M149.204 10.5771C152.154 10.5771 154.455 11.3995 156.084 13.0517C157.722 14.6963 158.536 16.9898 158.536 19.917V19.9547C158.536 20.2942 158.416 20.5809 158.182 20.8073C157.94 21.0336 157.661 21.1467 157.344 21.1467H142.316C142.52 23.0102 143.199 24.4285 144.361 25.4093C145.522 26.3825 147.122 26.8729 149.166 26.8729C151.369 26.8729 153.059 26.3071 154.244 25.1679L155.911 26.8729C154.251 28.4647 152.003 29.2569 149.166 29.2569C146.33 29.2569 143.953 28.4421 142.316 26.805C140.679 25.1679 139.864 22.8895 139.864 19.9547V19.917C139.864 16.9898 140.679 14.6963 142.316 13.0517C143.953 11.407 146.247 10.5771 149.196 10.5771H149.204ZM156.122 18.7552C155.918 16.8691 155.232 15.4357 154.063 14.4474C152.893 13.4591 151.271 12.9687 149.204 12.9687C147.137 12.9687 145.515 13.4666 144.345 14.4474C143.176 15.4357 142.497 16.8767 142.316 18.7552H156.115H156.122Z" fill="#7DA62F"/>
<path d="M176.635 29.0837H174.251V19.9551C174.251 17.7069 173.753 15.9868 172.75 14.7948C171.746 13.6028 170.298 13.0068 168.389 13.0068C166.481 13.0068 165.024 13.6028 164.029 14.7948C163.025 15.9868 162.527 17.7069 162.527 19.9551V29.0837H160.143V19.9551C160.143 17.0204 160.868 14.7344 162.309 13.0898C163.749 11.4451 165.779 10.6152 168.389 10.6152C171 10.6152 172.999 11.4376 174.455 13.0898C175.911 14.7344 176.635 17.0279 176.635 19.9551V29.0837Z" fill="#7DA62F"/>
<path d="M190.607 13.2028H185.598V29.0836H183.214V13.2028H178.235V10.8188H183.214V2.53516H185.598V10.8188H190.607V13.2028Z" fill="#7DA62F"/>
<path d="M201.607 10.5779C204.557 10.5779 206.858 11.4002 208.487 13.0524C210.117 14.7046 210.939 16.9905 210.939 19.9177V24.0068C210.939 24.3915 210.849 24.8894 210.668 25.4854C210.487 26.089 210.072 26.6699 209.423 27.2206C208.774 27.7789 207.839 28.2542 206.609 28.6541C205.379 29.0539 203.712 29.2501 201.599 29.2501C199.487 29.2501 197.82 29.0539 196.59 28.6541C195.36 28.2542 194.425 27.7789 193.776 27.2206C193.127 26.6624 192.712 26.0814 192.531 25.4854C192.35 24.8819 192.26 24.3915 192.26 24.0068C192.26 22.6186 192.478 21.5322 192.908 20.7325C193.338 19.9404 193.919 19.3444 194.644 18.9445C195.368 18.5447 196.228 18.2957 197.216 18.175C198.204 18.0618 199.268 18.0015 200.4 18.0015H208.374C208.057 16.3644 207.326 15.1195 206.194 14.2519C205.055 13.3919 203.523 12.9543 201.592 12.9543C199.66 12.9543 198.061 13.4221 196.854 14.35L195.39 12.479C197.005 11.204 199.072 10.5703 201.592 10.5703L201.607 10.5779ZM208.563 20.393H201.607C200.083 20.393 198.861 20.4307 197.94 20.5137C197.02 20.5967 196.318 20.7551 195.828 21.0117C195.338 21.2606 195.021 21.6227 194.877 22.1056C194.727 22.5809 194.659 23.2221 194.659 24.0143C194.659 24.5349 194.862 24.98 195.27 25.3421C195.677 25.7042 196.213 25.9985 196.869 26.2248C197.525 26.4511 198.272 26.6171 199.102 26.7227C199.932 26.8283 200.77 26.8736 201.607 26.8736C202.444 26.8736 203.282 26.8208 204.112 26.7227C204.942 26.6171 205.681 26.4587 206.345 26.2248C207.001 25.9985 207.537 25.7042 207.944 25.3421C208.352 24.98 208.555 24.5349 208.555 24.0143V20.4006L208.563 20.393Z" fill="#7DA62F"/>
<path d="M26.971 11.1878C26.971 13.8283 25.3716 16.0991 23.0856 17.0799C22.4595 17.3515 21.7805 17.525 21.0713 17.5854C21.5768 16.7027 21.8861 15.6917 21.9163 14.6129C21.9163 14.6129 21.9238 14.6129 21.9314 14.6129C23.2818 14.0697 24.2399 12.7344 24.2399 11.1953C24.2399 11.1274 24.2399 11.052 24.2324 10.9841C22.8819 11.5273 21.9238 12.8551 21.9238 14.4017C21.9238 12.9079 21.4108 11.5348 20.5583 10.4409C21.2222 9.59593 22.0822 8.93203 23.0705 8.502C23.8552 8.17005 24.7077 7.98145 25.6054 7.98145C25.779 7.98145 25.9525 7.98145 26.1185 8.00408C26.6239 8.88676 26.9332 9.8977 26.9634 10.9765C26.9634 11.0444 26.9634 11.1199 26.9634 11.1878H26.971Z" fill="#7DA62F"/>
<path d="M20.5507 10.4409C19.8868 9.59593 19.0268 8.93203 18.0309 8.502C17.2539 8.17005 16.3938 7.98145 15.496 7.98145C15.3225 7.98145 15.149 7.98145 14.983 8.00408C14.47 8.88676 14.1682 9.8977 14.1381 10.9765C14.1381 11.0444 14.1381 11.1199 14.1381 11.1878C14.1381 13.8283 15.7375 16.0991 18.0158 17.0799C18.642 17.3515 19.321 17.525 20.0377 17.5854C20.2037 17.6005 20.3772 17.608 20.5507 17.608C20.7243 17.608 20.8978 17.608 21.0637 17.5854C21.5692 16.7027 21.8785 15.6917 21.9087 14.6129C21.9087 14.545 21.9087 14.4696 21.9087 14.4017C21.9087 12.9079 21.3957 11.5348 20.5432 10.4409H20.5507ZM19.1701 14.6054C17.8197 14.0622 16.8616 12.7268 16.8616 11.1878C16.8616 11.1199 16.8616 11.0444 16.8691 10.9765C18.2195 11.5197 19.1777 12.8475 19.1777 14.3941C19.1777 14.462 19.1777 14.5375 19.1777 14.6054C19.1777 14.6054 19.1701 14.6054 19.1626 14.6054H19.1701Z" fill="#417437"/>
<path d="M20 0C10.8865 0 3.1837 6.12599 0.777065 14.47C0.520558 15.3527 0.33195 16.2656 0.196152 17.1935C0.0678989 18.0762 0.00754432 18.974 0 19.8868V20C0 20.8902 0.0603546 21.7654 0.165975 22.6254C0.294229 23.5685 0.475292 24.4813 0.731799 25.3716C1.00339 26.3372 1.34289 27.2878 1.75783 28.1856C2.67823 30.2376 3.94568 32.1086 5.47718 33.7307C6.10336 34.3946 6.7748 35.0207 7.49151 35.5941C8.18559 36.1599 8.92493 36.673 9.69445 37.1407C10.4866 37.616 11.3165 38.046 12.1765 38.4081C13.0668 38.7854 13.9947 39.1098 14.9453 39.3512C15.3678 39.4568 15.7903 39.5624 16.2203 39.6379C16.8842 39.7661 17.5405 39.8567 18.2271 39.9095C18.5515 39.9396 18.8683 39.9623 19.1928 39.9774C19.4568 39.9849 19.7209 39.9925 19.9925 39.9925C20.6714 39.9925 21.3353 39.9623 21.9992 39.8944C22.9197 39.8038 23.8174 39.6454 24.7001 39.4266C25.5828 39.2154 26.4504 38.9438 27.2803 38.6194C28.1479 38.2724 28.9853 37.8725 29.7925 37.4198C30.7733 36.8691 31.7012 36.2354 32.5613 35.5338C33.4213 34.8321 34.2286 34.0626 34.9604 33.2327C35.6092 32.5009 36.2052 31.7163 36.7408 30.9015C37.2463 30.1245 37.699 29.3172 38.0988 28.4723C38.476 27.665 38.808 26.8201 39.0796 25.96C39.3512 25.1 39.5624 24.2022 39.7133 23.2893C39.8944 22.218 39.9849 21.1166 39.9849 19.9925C40 8.9702 31.0298 0 20 0ZM36.4617 25.2056C36.1826 26.0883 35.8355 26.9257 35.4357 27.7329C34.9906 28.6081 34.4851 29.4304 33.9117 30.215C33.2554 31.1052 32.516 31.9351 31.7012 32.6896C30.8563 33.4666 29.9434 34.1607 28.9551 34.7567C28.51 35.0283 28.0498 35.2848 27.5745 35.5187C27.2275 35.6847 26.8653 35.8506 26.4957 36.0015C25.6733 36.341 24.8133 36.6126 23.923 36.8238C23.41 36.9446 22.8819 37.0426 22.3463 37.1105C21.954 37.1633 21.5541 37.2011 21.1543 37.2312C20.7695 37.2614 20.3923 37.269 20 37.269C19.3814 37.269 18.7703 37.2388 18.1667 37.1784C17.8951 37.1482 17.6235 37.1105 17.3595 37.0728C16.4391 36.9219 15.5413 36.7107 14.6888 36.4315C14.5077 36.3787 14.3342 36.3184 14.1607 36.2505C13.2403 35.9185 12.3501 35.5111 11.5126 35.0283C10.7129 34.5832 9.95851 34.0702 9.25688 33.5043C8.54017 32.9385 7.87627 32.3123 7.25764 31.6409C6.50321 30.811 5.82422 29.9057 5.23576 28.94C4.62467 27.9291 4.11166 26.8578 3.71935 25.7261C3.39494 24.7982 3.13844 23.8325 2.97246 22.8291C2.82158 21.9238 2.74613 20.9959 2.74613 20.0453V19.9925C2.74613 19.0947 2.81403 18.212 2.94229 17.3519C3.09317 16.4315 3.30441 15.5338 3.58355 14.6737C5.82422 7.75556 12.335 2.73859 20 2.73859C29.5209 2.73859 37.2614 10.4866 37.2614 20C37.2614 20.8601 37.1935 21.7126 37.0728 22.5424C36.937 23.4628 36.7258 24.3531 36.4542 25.2131L36.4617 25.2056Z" fill="#231F20"/>
<path d="M31.6937 32.6887C30.8487 33.4658 29.9359 34.1599 28.9476 34.7559C28.6911 34.0618 28.4119 33.3753 28.1026 32.7038C28.7137 32.6435 29.3399 32.6133 29.9585 32.6133C30.5394 32.6133 31.1203 32.6435 31.6862 32.6887H31.6937Z" fill="#F9A01B"/>
<path d="M35.4357 27.7398C34.9906 28.615 34.4851 29.4373 33.9117 30.2219C32.6292 29.9956 31.3165 29.8824 29.9736 29.8824C28.8948 29.8824 27.831 29.9579 26.7899 30.1087C26.292 29.2487 25.7563 28.4113 25.1905 27.5965C26.7446 27.3023 28.344 27.1514 29.9811 27.1514C31.8597 27.1514 33.6854 27.3551 35.4508 27.7398H35.4357Z" fill="#F9A01B"/>
<path d="M37.0803 22.5421C36.9445 23.4625 36.7333 24.3527 36.4617 25.2127C34.3719 24.7224 32.2067 24.4583 29.966 24.4583C27.7254 24.4583 25.4621 24.7299 23.3346 25.2429C22.648 24.4583 21.9313 23.7039 21.1844 22.9872C23.9683 22.1648 26.9106 21.7197 29.966 21.7197C32.4104 21.7197 34.7944 22.0064 37.0803 22.5421Z" fill="#F9A01B"/>
<path d="M18.1743 37.1788C17.9027 37.1487 17.6311 37.1109 17.367 37.0732C16.4466 36.9223 15.5489 36.7111 14.6963 36.432C14.6134 36.2886 14.5228 36.1453 14.4248 36.0019C13.9268 35.24 13.3685 34.5082 12.7499 33.8292C12.1464 33.1577 11.49 32.5315 10.7959 31.9733C10.0717 31.3848 9.30216 30.8492 8.49492 30.3814C7.46889 29.793 6.38251 29.3026 5.23577 28.9404C4.62468 27.9295 4.11167 26.8582 3.71936 25.7266C6.22408 26.2094 8.56282 27.1675 10.645 28.4953C11.4447 29.0008 12.2067 29.5666 12.9234 30.1853C13.61 30.7737 14.2663 31.415 14.8699 32.094C15.4734 32.773 16.0392 33.4897 16.5447 34.2516C17.0502 35.0136 17.5179 35.8133 17.9178 36.6357C18.0083 36.8167 18.0913 36.9902 18.1743 37.1713V37.1788Z" fill="#417437"/>
<path d="M23.9306 36.8242C23.4176 36.9449 22.8895 37.043 22.3538 37.1109C21.9615 37.1637 21.5617 37.2014 21.1618 37.2316C20.8902 36.5149 20.5734 35.8208 20.2339 35.1418C19.8189 34.327 19.3512 33.5349 18.8457 32.7804C18.3402 32.0185 17.782 31.2791 17.1784 30.585C16.5749 29.8834 15.9336 29.2195 15.2471 28.5933C14.5379 27.9445 13.791 27.341 12.9989 26.7827C10.0868 24.7231 6.66163 23.3274 2.96492 22.8219C2.81403 21.9166 2.73859 20.9887 2.73859 20.0381C7.52923 20.5813 11.9351 22.4523 15.5564 25.2738C16.3335 25.8774 17.0728 26.5262 17.7669 27.2127C18.4383 27.8766 19.072 28.5707 19.668 29.3025C20.2565 30.0268 20.8072 30.7812 21.3203 31.5734C21.8182 32.3429 22.2784 33.1426 22.6933 33.9649C23.1007 34.7721 23.4779 35.6096 23.7948 36.4696C23.8401 36.5752 23.8778 36.696 23.923 36.8091L23.9306 36.8242Z" fill="#417437"/>
<path d="M28.9551 34.7571C28.51 35.0287 28.0498 35.2852 27.5745 35.5191C27.2274 35.685 26.8653 35.851 26.4956 36.0019C26.4579 35.9114 26.4277 35.8133 26.39 35.7228C26.0656 34.8476 25.7035 33.9951 25.2961 33.1652C24.8887 32.3203 24.436 31.4904 23.9457 30.6907C23.4402 29.8684 22.897 29.0762 22.3085 28.3218C21.7201 27.5523 21.0939 26.8129 20.43 26.1113C19.7435 25.3795 19.0117 24.6779 18.2497 24.0215C14.04 20.4002 8.74386 17.9936 2.92719 17.3599C3.07807 16.4395 3.28931 15.5417 3.56845 14.6816C10.3508 15.4964 16.4692 18.5142 21.1844 22.9879C21.9313 23.7047 22.648 24.4515 23.3346 25.2437C23.9834 25.9981 24.5945 26.7827 25.1754 27.5975C25.7412 28.4048 26.2769 29.2422 26.7748 30.1098C27.2576 30.9547 27.6952 31.8223 28.1026 32.705C28.4119 33.3765 28.691 34.063 28.9476 34.7571H28.9551Z" fill="#417437"/>
<path d="M20 40C8.9702 40 0 31.0298 0 20C0 8.9702 8.9702 0 20 0C31.0298 0 40 8.9702 40 20C40 31.0298 31.0298 40 20 40ZM20 2.73104C10.4791 2.73104 2.73104 10.4791 2.73104 20C2.73104 29.5209 10.4791 37.269 20 37.269C29.5209 37.269 37.269 29.5209 37.269 20C37.269 10.4791 29.5209 2.73104 20 2.73104Z" fill="#254E2D"/>
<path d="M20.5508 25.6128C19.7963 25.6128 19.1852 25.0017 19.1852 24.2473V15.262C19.1852 14.5076 19.7963 13.8965 20.5508 13.8965C21.3052 13.8965 21.9163 14.5076 21.9163 15.262V24.2473C21.9163 25.0017 21.3052 25.6128 20.5508 25.6128Z" fill="#417437"/>
</g>
<defs>
<clipPath id="clip0_298_13316">
<rect width="210.947" height="40" fill="white"/>
</clipPath>
</defs>
</svg>
