<svg width="103" height="40" viewBox="0 0 103 40" fill="none" xmlns="http://www.w3.org/2000/svg">
<mask id="mask0_298_13436" style="mask-type:luminance" maskUnits="userSpaceOnUse" x="0" y="0" width="103" height="40">
<path d="M0 0.000171661H102.433V40H0V0.000171661Z" fill="white"/>
</mask>
<g mask="url(#mask0_298_13436)">
<path d="M15.5453 24.4359C16.2054 24.4359 16.8243 24.1672 17.3406 23.7758V19.6286C15.195 19.835 13.9564 20.9076 13.9564 22.6206C13.9564 23.6721 14.4523 24.4359 15.5453 24.4359ZM22.2502 24.8073V25.0137L18.2683 25.8799H18.0621L17.4643 24.2921C16.3291 25.3436 14.9889 25.8799 13.6885 25.8799C11.7494 25.8799 10.4492 24.8696 10.4492 23.343C10.4492 20.9491 13.1722 19.3399 17.3406 19.196V17.8547C17.3406 16.472 16.2054 15.544 14.4726 15.544C13.3374 15.544 13.3797 15.4976 12.3683 15.8478L12.2868 15.5588C13.7299 14.5688 14.7402 14.1211 16.473 14.1211C19.011 14.1211 20.8474 15.4416 20.8474 17.4419V24.1472L22.2502 24.8073Z" fill="#231F20"/>
<path d="M21.2397 20.2064C21.2397 16.5543 23.7363 14.12 27.4084 14.12C28.8938 14.12 30.379 14.4914 31.3481 14.9865L31.2043 17.3596L30.9768 17.3181L27.6359 14.739C25.8607 14.739 24.8292 16.4931 24.8292 19.4425C24.8292 22.373 26.1708 24.3322 28.3575 24.3322C29.4713 24.3322 30.7918 24.0234 31.638 23.5071L31.8444 23.7346C30.6265 24.9099 29.0376 25.8799 26.6034 25.8799C23.3853 25.8799 21.2397 23.6109 21.2397 20.2064Z" fill="#231F20"/>
<path d="M43.7632 24.5744V24.8071L40.014 25.8789H39.8076L39.1886 24.2294C37.95 25.3223 36.5068 25.8789 35.1866 25.8789C33.1849 25.8789 31.741 24.5584 31.741 22.5578V15.4774L35.0417 14.8162H35.2481V22.1453C35.2481 23.4658 36.0109 24.332 37.1672 24.332C37.95 24.332 38.5486 24.0844 39.0863 23.6307V15.9144L37.8273 15.1928V14.9864L42.3859 14.1191H42.592V24.1459L43.7632 24.5744Z" fill="#231F20"/>
<path d="M63.7602 25.4674V25.6738H57.6126V25.4674L58.8505 24.8485V17.8545C58.8505 16.5343 58.0663 15.6678 56.89 15.6678C56.0649 15.6678 55.446 15.9568 54.8885 16.4731C54.972 16.7608 55.0123 17.0918 55.0123 17.442V24.8485L56.3536 25.4674V25.6738H50.2673V25.4674L51.5052 24.8485V17.8545C51.5052 16.5343 50.7213 15.6678 49.546 15.6678C48.7822 15.6678 48.1833 15.9154 47.6681 16.3482V24.8274L49.0097 25.4674V25.6738H42.8611V25.4674L44.1612 24.8485V15.9154L42.9023 15.193V14.9866L47.1518 14.1201H47.3582L47.5644 15.7504C48.8033 14.6778 50.2262 14.1201 51.5263 14.1201C52.9906 14.1201 54.1458 14.8005 54.6821 15.9365C55.9823 14.7602 57.4888 14.1201 58.8705 14.1201C60.8922 14.1201 62.3573 15.4406 62.3573 17.442V24.8274L63.7602 25.4674Z" fill="#231F20"/>
<path d="M66.3809 19.1546L70.3629 18.9696C70.3629 16.0603 69.7428 14.7398 68.4227 14.7398C67.1025 14.7398 66.4635 16.1426 66.3809 19.1546ZM72.2345 23.9723L72.4205 24.1988C71.1616 25.3751 70.6719 25.8799 68.135 25.8799C64.9166 25.8799 62.7703 23.6106 62.7703 20.2072C62.7703 16.5554 65.1219 14.1211 68.6087 14.1211C71.7657 14.1211 73.8486 16.3078 73.8486 19.5883H66.3809V19.7947C66.3809 22.5177 67.7425 24.333 69.9915 24.333C71.1467 24.333 71.368 24.4886 72.2345 23.9723Z" fill="#231F20"/>
<path d="M86.744 25.4674V25.6738H80.5339V25.4674L81.8343 24.8485V17.8545C81.8343 16.5343 81.029 15.6678 79.8126 15.6678C78.9861 15.6678 78.3472 15.9365 77.7908 16.3894V24.8485L79.1925 25.4674V25.6738H72.9824V25.4674L74.2828 24.8485V15.9154L73.0239 15.193V14.9866L77.2745 14.1201H77.4809L77.6871 15.7705C78.9661 14.6979 80.4315 14.1201 81.7928 14.1201C83.8557 14.1201 85.3412 15.4406 85.3412 17.442V24.8485L86.744 25.4674Z" fill="#231F20"/>
<path d="M90.1516 25.8438C89.0334 25.8438 88.3181 25.1466 88.3181 24.0844C88.3181 23.0571 89.0334 22.361 90.1516 22.361C91.2697 22.361 91.9839 23.0571 91.9839 24.0844C91.9839 25.1466 91.2697 25.8438 90.1516 25.8438Z" fill="#EF4136"/>
</g>
</svg>
