<svg width="58" height="40" viewBox="0 0 58 40" fill="none" xmlns="http://www.w3.org/2000/svg">
<g clip-path="url(#clip0_298_13403)">
<path d="M49.6146 24.856C48.1377 26.654 46.2966 28.1187 44.2125 29.1534C42.1002 30.2277 39.7876 30.7315 37.2322 30.7315C35.0228 30.7315 32.9773 30.3249 31.0653 29.5176C29.1999 28.7419 27.4924 27.631 26.0274 26.2399C24.5957 24.858 23.4563 23.2026 22.6768 21.3719C21.8524 19.489 21.4307 17.4546 21.4386 15.3992L23.7208 10.4341L26.1305 15.6663L28.4796 20.6678C29.3919 21.8818 30.532 22.9065 31.8362 23.6845C32.3035 23.988 32.8073 24.2551 33.3475 24.4918C34.5833 25.0327 35.9197 25.3057 37.2686 25.293C39.0835 25.293 40.7284 24.8924 42.1366 24.0548C43.5391 23.2322 44.7415 22.1085 45.6571 20.7649L49.6146 24.856ZM27.3142 3.12001C30.0932 1.05522 33.4729 -0.0407913 36.9348 0.000129022C39.4841 0.000129022 41.8028 0.534272 43.9151 1.57828C45.9422 2.58125 47.7369 3.99758 49.1837 5.73609L45.2201 9.79679C44.3072 8.48595 43.1019 7.40538 41.6996 6.64049C40.2434 5.83023 38.6011 5.41389 36.9348 5.4326C35.563 5.4326 34.2519 5.70574 33.0137 6.23989C31.8257 6.75246 30.7431 7.48103 29.821 8.3886L27.3142 3.12001Z" fill="#50AFCF"/>
<path d="M28.8195 20.3341L26.4645 15.2961L23.6784 9.29309L13.7179 30.6588H7.40527L21.4265 1.00781H25.9242L37.2323 24.9228C33.9789 24.8257 30.6223 22.8105 28.8135 20.328L28.8195 20.3341Z" fill="#4498C6"/>
<path d="M6.31259 39.8912H5.06222L4.522 38.7501L3.69044 36.9048L3.1563 35.7273L2.61002 36.8684L1.40819 39.4542L1.20789 39.8912H0L2.71927 34.1127H3.58118L6.30046 39.8791L6.31259 39.8912ZM10.7011 39.8912H6.91957V34.1127H10.7071V35.0536H7.98786V36.4253H10.6768V37.3358H7.98786V38.914H10.7071V39.8851L10.7011 39.8912ZM15.4659 39.8912H11.5751V34.1127H12.7162V38.7743H15.4659V39.8851V39.8912ZM20.0303 39.8912H16.1032V34.1127H17.2382V38.7743H19.9879V39.8851H20.0243L20.0303 39.8912ZM26.5008 39.8912H25.2625L24.8923 39.1143L24.7223 38.7501L23.7511 36.6681L23.3141 35.7273L22.3429 37.8093L21.736 39.1143L21.3718 39.8912H20.1275L22.8467 34.1188H23.7208L26.5008 39.8851V39.8912ZM34.5857 38.8472C34.2953 39.1889 33.9432 39.4731 33.5478 39.6848C33.1472 39.8912 32.6737 39.9883 32.17 39.9883C31.739 39.9883 31.3323 39.9276 30.9621 39.7516C30.244 39.4395 29.6622 38.8793 29.3232 38.1734C29.1533 37.8093 29.0804 37.4451 29.0804 37.002C29.0754 36.6057 29.1539 36.2128 29.3107 35.8489C29.4676 35.4849 29.6993 35.1581 29.9909 34.8897C30.258 34.6226 30.5979 34.4223 30.9621 34.2523C31.3323 34.0824 31.739 34.0156 32.176 34.0156C32.6737 34.0156 33.1108 34.1188 33.5478 34.3191C33.942 34.5196 34.2943 34.7936 34.5857 35.1264L33.8149 35.9276C33.6476 35.6582 33.4019 35.4464 33.1108 35.3206C32.8484 35.1828 32.5586 35.1053 32.2625 35.0937C31.9664 35.0822 31.6714 35.1369 31.3991 35.2539C31.1676 35.357 30.9528 35.4941 30.7618 35.6605C30.5895 35.8424 30.4425 36.0465 30.3247 36.2675C30.2197 36.4983 30.1639 36.7484 30.1608 37.002C30.1608 37.269 30.2215 37.5058 30.3247 37.7425C30.4279 37.9792 30.5615 38.1795 30.7618 38.3495C30.9317 38.5133 31.132 38.6469 31.3991 38.7501C31.6358 38.8472 31.9029 38.914 32.17 38.914C32.5402 38.914 32.8376 38.8533 33.1108 38.6833C33.3778 38.5133 33.6146 38.313 33.7785 38.046L34.5857 38.8472ZM39.5205 39.8912H38.2762L37.8756 38.5801C37.8391 38.4466 37.7724 38.313 37.7056 38.1795C37.657 38.0597 37.5774 37.9549 37.475 37.876C37.3833 37.778 37.2653 37.7084 37.1351 37.6757C36.9929 37.6345 36.846 37.6121 36.698 37.6089H36.2974V39.8912H35.1927V34.1127H37.475C37.7056 34.1127 37.9423 34.1431 38.1426 34.2463C38.3429 34.3495 38.5432 34.4466 38.6828 34.5801C38.8467 34.7137 38.9499 34.92 39.047 35.1203C39.1502 35.3206 39.1806 35.5574 39.1806 35.788C39.1806 35.958 39.1502 36.1279 39.1199 36.2918C39.047 36.4618 38.9803 36.5953 38.8771 36.7288C38.7835 36.8653 38.6711 36.9879 38.5432 37.093C38.4114 37.1933 38.2664 37.275 38.1123 37.3358C38.2762 37.3965 38.4461 37.4997 38.5432 37.6393C38.6464 37.7668 38.7496 37.9003 38.8164 38.1067C38.8467 38.1674 38.8771 38.2706 38.9135 38.3373C38.9499 38.4041 38.9803 38.5073 39.0167 38.6105L39.1138 38.914C39.1515 39.0287 39.1982 39.1403 39.2534 39.2478L39.387 39.6484C39.4173 39.7091 39.4476 39.8123 39.5205 39.8851V39.8912ZM38.0759 35.8608C38.0759 35.7273 38.0455 35.5938 38.0091 35.4967L37.8088 35.1932L37.5053 34.9929C37.3718 34.9564 37.2686 34.9261 37.1411 34.9261H36.3338V36.7349H37.1351C37.2686 36.7349 37.4082 36.6985 37.5053 36.6681C37.6388 36.6317 37.742 36.5649 37.8088 36.4982C37.903 36.4335 37.9734 36.3397 38.0091 36.2311C38.0455 36.134 38.0759 35.9944 38.0759 35.8669V35.8608ZM44.0121 39.8912H40.2246V34.1127H44.0061V35.0536H41.2929V36.4253H43.9757V37.3358H41.2929V38.914H44.0061V39.8851L44.0121 39.8912ZM50.0212 37.002C50.0274 37.7468 49.7521 38.4665 49.2504 39.0171C49.0112 39.2859 48.7117 39.4939 48.3763 39.6241C48.0295 39.7876 47.6488 39.8667 47.2656 39.8548H44.8558V34.0885H47.2656C47.6488 34.0765 48.0295 34.1556 48.3763 34.3191C48.7102 34.4891 49.0137 34.6833 49.2504 34.9261C49.481 35.1932 49.6813 35.4967 49.8209 35.8305C49.9522 36.2072 50.0198 36.6031 50.0212 37.002ZM48.8801 36.9716C48.8801 36.6985 48.8437 36.4314 48.7466 36.2008C48.6563 35.9707 48.5315 35.7558 48.3763 35.5634C48.2064 35.3935 48.0121 35.2235 47.7693 35.1264C47.5166 35.0158 47.244 34.958 46.9681 34.9564H45.997V38.9504H46.9681C47.2716 38.9504 47.5387 38.914 47.7693 38.8168C48.0121 38.7137 48.2064 38.5801 48.3763 38.4102C48.5463 38.2463 48.6798 38.046 48.7405 37.8032C48.8134 37.5422 48.8801 37.269 48.8801 36.9716ZM52 39.8851H50.8892V34.1188H52V39.8851ZM57.0319 35.1264H55.4537V39.8912H54.3126V35.1264H52.7344V34.1127H57.0319V35.1203V35.1264Z" fill="#283947"/>
</g>
<defs>
<clipPath id="clip0_298_13403">
<rect width="57.0561" height="40" fill="white"/>
</clipPath>
</defs>
</svg>
