<svg width="145" height="40" viewBox="0 0 145 40" fill="none" xmlns="http://www.w3.org/2000/svg">
<path d="M28.2072 18.2194C28.9658 18.2044 29.7232 18.2936 30.461 18.4847C31.0065 18.6249 31.5213 18.8791 31.9764 19.2328C32.3535 19.5351 32.6489 19.9408 32.8319 20.408C33.0152 20.8983 33.1059 21.4233 33.0986 21.952C33.0996 22.2554 33.0582 22.5573 32.9758 22.8474C32.8922 23.1375 32.7624 23.4096 32.5922 23.6515C32.4016 23.9174 32.1738 24.1495 31.917 24.3396C31.6102 24.565 31.2774 24.7462 30.9272 24.8784C31.7673 25.0995 32.3895 25.456 32.7936 25.9479C33.2104 26.4817 33.4267 27.1651 33.3997 27.8629C33.404 28.4269 33.296 28.9852 33.0832 29.5002C32.8697 30.0097 32.5539 30.4614 32.1586 30.8225C31.7155 31.2222 31.2038 31.5236 30.6529 31.7095C29.9917 31.9313 29.3022 32.0383 28.61 32.0266H23.5076V18.2194H28.2072ZM26.4712 20.6152V24.0266H28.0057C28.3027 24.0297 28.5993 24.0041 28.8919 23.9499C29.1297 23.91 29.3578 23.8199 29.5633 23.6847C29.7468 23.5586 29.8927 23.378 29.9834 23.1645C30.0863 22.9026 30.1354 22.6198 30.1273 22.3354C30.1362 22.054 30.0979 21.7731 30.0141 21.5064C29.9445 21.2997 29.823 21.1181 29.6631 20.9821C29.4856 20.8392 29.2802 20.742 29.0627 20.6981C28.7787 20.6357 28.4893 20.6065 28.1995 20.6111L26.4712 20.6152ZM28.5582 29.6038C28.8843 29.6161 29.2097 29.5619 29.5173 29.4443C29.736 29.3557 29.933 29.2139 30.0927 29.0297C30.2305 28.8646 30.3298 28.6664 30.3824 28.4515C30.4342 28.2384 30.4606 28.019 30.461 27.7987C30.4641 27.5675 30.433 27.3373 30.369 27.1168C30.3097 26.9181 30.2009 26.741 30.0544 26.6049C29.8805 26.4525 29.6784 26.3423 29.4617 26.2816C29.1582 26.1995 28.846 26.1619 28.5332 26.1696H26.4712V29.6059L28.5582 29.6038ZM43.3513 22.1987V32.0204H41.6633C41.5167 32.0339 41.3703 31.9922 41.249 31.9023C41.1276 31.8123 41.0388 31.6798 40.9977 31.5272L40.8385 30.9593C40.6681 31.1381 40.4868 31.3043 40.2957 31.4567C40.1087 31.6061 39.9074 31.7332 39.6953 31.836C39.4728 31.9434 39.2408 32.0261 39.0028 32.0826C38.736 32.1434 38.464 32.1732 38.1914 32.1717C37.7381 32.181 37.2881 32.0856 36.8717 31.8919C36.4988 31.713 36.1678 31.446 35.903 31.1106C35.6337 30.7629 35.4316 30.3605 35.3083 29.9272C35.1701 29.4426 35.1021 28.9378 35.1069 28.4308V22.1987H37.8231V28.4308C37.8001 28.8338 37.9087 29.2328 38.13 29.5582C38.2426 29.6945 38.3826 29.8012 38.5391 29.8701C38.6957 29.9391 38.8648 29.9685 39.0335 29.9562C39.3233 29.9576 39.6095 29.8867 39.8698 29.7489C40.1482 29.6041 40.4065 29.4178 40.6371 29.1955V22.1987H43.3513ZM54.3484 22.1987L49.4896 34.5676C49.4273 34.737 49.3248 34.8857 49.1923 34.9987C49.0219 35.1043 48.826 35.152 48.6302 35.1354H46.5969L48.3502 31.1582L44.7209 22.1987H47.1225C47.2963 22.1863 47.4686 22.2398 47.6098 22.3499C47.7199 22.4445 47.8057 22.5679 47.8591 22.7085L49.3515 26.9427C49.4921 27.3283 49.6062 27.7245 49.6929 28.1282L49.8847 27.5209C49.9474 27.3192 50.0145 27.1202 50.0861 26.924L51.4289 22.7085C51.4851 22.5586 51.583 22.4312 51.709 22.3437C51.8377 22.2484 51.9903 22.1978 52.1463 22.1987H54.3484Z" fill="#F8B004"/>
<path d="M60.2315 18.2195C61.016 18.2019 61.7981 18.3187 62.5487 18.5656C63.1358 18.7601 63.6792 19.084 64.1446 19.5169C64.554 19.907 64.8711 20.3974 65.0692 20.947C65.2719 21.5154 65.3734 22.1202 65.3684 22.7293C65.3745 23.3758 65.2705 24.0179 65.0615 24.6236C64.8612 25.1893 64.5398 25.6957 64.1235 26.1014C63.6578 26.538 63.113 26.8648 62.5238 27.061C61.7816 27.3075 61.0078 27.4243 60.2315 27.4071H58.6969V32.0205H55.7237V18.2195H60.2315ZM60.2315 24.9926C60.9988 24.9926 61.5538 24.7936 61.8965 24.3957C62.2341 23.9977 62.4048 23.4423 62.4048 22.7376C62.4084 22.444 62.3636 22.1521 62.2725 21.8755C62.1891 21.622 62.0525 21.3929 61.8735 21.206C61.6809 21.0114 61.451 20.8649 61.2002 20.777C60.8873 20.6686 60.56 20.6167 60.2315 20.6236H58.6969V25.0009L60.2315 24.9926ZM71.0655 22.0475C71.7086 22.0383 72.3478 22.157 72.9511 22.3977C73.4977 22.6171 73.9952 22.9589 74.4109 23.4009C74.8256 23.8517 75.1478 24.392 75.3565 24.9863C75.5892 25.6573 75.7037 26.3694 75.6941 27.0858C75.7038 27.8077 75.5893 28.5252 75.3565 29.2019C75.1543 29.7998 74.8346 30.3432 74.4193 30.7947C74.0041 31.2463 73.5032 31.5952 72.9511 31.8174C71.7281 32.29 70.3914 32.29 69.1684 31.8174C68.6181 31.5925 68.1167 31.2475 67.6952 30.804C67.2729 30.3504 66.9458 29.804 66.7361 29.2019C66.5024 28.5255 66.3879 27.8078 66.3985 27.0858C66.388 26.3693 66.5026 25.6571 66.7361 24.9863C66.9464 24.3894 67.2736 23.8486 67.6952 23.4009C68.1162 22.9591 68.618 22.6174 69.1684 22.3977C69.7756 22.1567 70.4186 22.038 71.0655 22.0475ZM71.0655 29.9936C71.6908 29.9936 72.1512 29.7553 72.4466 29.2786C72.742 28.8019 72.8904 28.0772 72.8916 27.1045C72.8916 26.1373 72.7439 25.414 72.4485 24.9345C72.1531 24.4551 71.6928 24.2188 71.0674 24.2257C70.428 24.2257 69.9574 24.462 69.6556 24.9345C69.3538 25.4071 69.2048 26.1304 69.2087 27.1045C69.2087 28.0717 69.3577 28.7964 69.6556 29.2786C69.9536 29.7608 70.4236 29.9991 71.0655 29.9936ZM90.7021 22.1988L87.8785 32.0205H85.6707C85.5613 32.0238 85.4548 31.9832 85.3714 31.9066C85.2753 31.8025 85.2087 31.6709 85.1796 31.5273L83.8829 26.6299C83.8177 26.4102 83.7602 26.1926 83.7103 25.977C83.6604 25.7698 83.6163 25.5439 83.576 25.3242C83.5338 25.5439 83.4897 25.7656 83.4398 25.9874C83.3899 26.2091 83.3324 26.4288 83.2691 26.6506L81.9532 31.5273C81.9288 31.6708 81.857 31.7999 81.7512 31.8906C81.6453 31.9813 81.5127 32.0275 81.3778 32.0205H79.2677L76.4441 22.1988H78.6175C78.7898 22.1921 78.9599 22.2427 79.1047 22.3439C79.2281 22.4307 79.3217 22.5588 79.3713 22.7086L80.2844 27.1148C80.3586 27.4492 80.4257 27.7725 80.4858 28.0848C80.5433 28.3977 80.597 28.7065 80.6431 29.0278C80.7198 28.7107 80.8004 28.406 80.8848 28.0848C80.9692 27.7635 81.0612 27.4485 81.161 27.1148L82.3004 22.7003C82.3493 22.5513 82.4415 22.4234 82.5632 22.3356C82.6971 22.2354 82.857 22.1839 83.0197 22.1884H84.2282C84.4007 22.1823 84.5708 22.2337 84.7154 22.3356C84.8386 22.4226 84.9322 22.5507 84.9821 22.7003L86.0697 27.1148C86.1579 27.4492 86.2442 27.7739 86.3286 28.0889C86.413 28.406 86.4898 28.7231 86.5607 29.0464C86.6068 28.7314 86.6624 28.4247 86.7276 28.0993C86.7928 27.7739 86.8638 27.4547 86.9463 27.1148L87.9054 22.7086C87.9548 22.5599 88.0469 22.4321 88.1682 22.3439C88.3018 22.2449 88.4609 22.1941 88.6228 22.1988H90.7021ZM94.2527 27.635C94.341 28.4558 94.5718 29.0506 94.9452 29.4195C95.3427 29.7998 95.8611 29.9989 96.3915 29.9749C96.6677 29.9812 96.943 29.9392 97.2067 29.8506C97.4165 29.7771 97.6205 29.6856 97.8167 29.577L98.3078 29.3014C98.4526 29.2211 98.6131 29.1792 98.7758 29.1791C98.8706 29.1727 98.9654 29.1923 99.0513 29.2361C99.1371 29.28 99.2113 29.3466 99.2669 29.4299L100.055 30.4827C99.7929 30.8117 99.4872 31.0974 99.148 31.3304C98.8348 31.5427 98.4993 31.7139 98.1486 31.8402C97.8158 31.9621 97.4727 32.0482 97.1243 32.0972C96.7999 32.1432 96.4731 32.1668 96.146 32.1677C95.5344 32.1725 94.9269 32.0588 94.3525 31.8319C93.8047 31.6146 93.3058 31.2741 92.8889 30.833C92.4544 30.3619 92.1171 29.7969 91.8991 29.1749C91.6432 28.443 91.5195 27.6649 91.5346 26.8827C91.5314 26.2456 91.6368 25.6133 91.8454 25.0174C92.0455 24.4385 92.3529 23.9098 92.7487 23.4636C93.1445 23.0174 93.6204 22.6632 94.1472 22.4226C95.2747 21.937 96.5265 21.9068 97.6729 22.3376C98.1555 22.5278 98.5946 22.8283 98.96 23.2185C99.3305 23.6203 99.6176 24.1029 99.8021 24.634C100.012 25.2409 100.114 25.8848 100.105 26.5325C100.107 26.7132 100.098 26.8939 100.078 27.0734C100.067 27.1898 100.035 27.3026 99.9824 27.405C99.9384 27.4838 99.8707 27.5438 99.7906 27.5749C99.6935 27.6095 99.5916 27.6256 99.4894 27.6226L94.2527 27.635ZM97.671 25.9293C97.6715 25.6991 97.6438 25.4698 97.5885 25.2475C97.5359 25.0326 97.4432 24.8316 97.3161 24.6568C97.183 24.4792 97.0136 24.3373 96.8212 24.2423C96.5871 24.1279 96.3319 24.0726 96.075 24.0806C95.854 24.0675 95.6329 24.1032 95.4251 24.1856C95.2174 24.2679 95.0273 24.3951 94.8665 24.5594C94.547 24.9432 94.3459 25.4248 94.2911 25.9376L97.671 25.9293ZM104.475 23.7138C104.719 23.2343 105.048 22.8117 105.444 22.4703C105.803 22.1686 106.247 22.0078 106.702 22.0143C107.058 21.9968 107.409 22.1068 107.701 22.3273L107.527 24.4869C107.512 24.5978 107.461 24.6991 107.381 24.7708C107.299 24.8265 107.203 24.8533 107.107 24.8475C107.059 24.8475 106.997 24.8475 106.915 24.8371L106.677 24.8143L106.428 24.7853C106.35 24.7758 106.273 24.7709 106.195 24.7708C105.847 24.7495 105.504 24.8717 105.236 25.1128C104.974 25.3772 104.769 25.7005 104.636 26.0599V32.0205H101.933V22.1988H103.546C103.66 22.1963 103.773 22.2088 103.884 22.2361C103.967 22.2571 104.045 22.2974 104.112 22.3542C104.175 22.4092 104.223 22.4806 104.252 22.5615C104.289 22.6656 104.316 22.7732 104.335 22.8827L104.475 23.7138ZM107.448 30.5325C107.446 30.3146 107.486 30.0987 107.565 29.8983C107.642 29.7063 107.753 29.5324 107.891 29.3863C108.186 29.0788 108.581 28.909 108.99 28.9138C109.198 28.9111 109.403 28.9549 109.594 29.0423C109.777 29.123 109.943 29.2397 110.086 29.3863C110.229 29.5338 110.343 29.7118 110.42 29.909C110.497 30.1062 110.535 30.3185 110.532 30.5325C110.534 30.7523 110.494 30.9703 110.415 31.1729C110.339 31.3673 110.227 31.5429 110.086 31.6889C109.944 31.8357 109.777 31.9511 109.594 32.0288C109.403 32.1129 109.197 32.1552 108.99 32.1532C108.78 32.1556 108.572 32.1133 108.376 32.0288C108.195 31.9514 108.03 31.8359 107.891 31.689C107.752 31.542 107.641 31.3666 107.565 31.1729C107.486 30.9703 107.446 30.7523 107.448 30.5325ZM114.812 23.2599C114.984 23.0842 115.165 22.9195 115.355 22.7667C115.541 22.6152 115.743 22.4866 115.955 22.3832C116.177 22.2748 116.409 22.1922 116.648 22.1366C116.914 22.0747 117.186 22.0448 117.459 22.0475C117.912 22.0373 118.361 22.132 118.777 22.3252C119.146 22.5043 119.474 22.7698 119.736 23.1024C120.007 23.4489 120.21 23.8516 120.333 24.2858C120.467 24.7696 120.532 25.273 120.524 25.7781V32.0205H117.827V25.7781C117.849 25.3771 117.741 24.9805 117.52 24.6568C117.41 24.517 117.271 24.4069 117.114 24.335C116.957 24.2631 116.787 24.2313 116.617 24.2423C116.327 24.2409 116.041 24.3118 115.781 24.4496C115.502 24.5944 115.244 24.7806 115.013 25.0029V32.0205H112.303V22.1988H113.987C114.133 22.1855 114.28 22.2272 114.401 22.3166C114.522 22.4061 114.611 22.5379 114.653 22.69L114.812 23.2599ZM130.81 22.5014V23.5708C130.813 23.6416 130.804 23.7124 130.782 23.7792C130.761 23.8461 130.727 23.9077 130.683 23.9604C130.559 24.0745 130.409 24.1497 130.248 24.1781L129.592 24.3397C129.626 24.4796 129.654 24.6215 129.674 24.7646C129.695 24.9155 129.706 25.0679 129.705 25.2205C129.712 25.6804 129.615 26.1352 129.421 26.5449C129.232 26.9357 128.965 27.2768 128.64 27.5439C128.289 27.8306 127.893 28.0461 127.47 28.1801C127.001 28.3275 126.514 28.3995 126.026 28.3936C125.886 28.3936 125.748 28.3936 125.613 28.3791C125.481 28.3704 125.349 28.3531 125.218 28.3273C125.137 28.3672 125.067 28.4292 125.015 28.5074C124.963 28.5856 124.93 28.6771 124.921 28.7729C124.921 28.8528 124.944 28.9306 124.989 28.9946C125.033 29.0586 125.095 29.1052 125.166 29.1273C125.375 29.2113 125.593 29.2622 125.815 29.2786C126.083 29.3076 126.39 29.3262 126.732 29.3366C127.073 29.347 127.422 29.3677 127.779 29.4029C128.131 29.4375 128.481 29.4957 128.826 29.577C129.15 29.6522 129.46 29.7868 129.741 29.9749C130.01 30.1592 130.233 30.4109 130.392 30.7086C130.567 31.069 130.652 31.4728 130.637 31.8796C130.635 32.3317 130.532 32.7766 130.338 33.177C130.126 33.6177 129.826 34.0026 129.461 34.3045C129.034 34.655 128.554 34.9222 128.042 35.0941C127.417 35.3031 126.766 35.4038 126.112 35.3926C125.491 35.4037 124.871 35.3306 124.267 35.1749C123.813 35.058 123.378 34.865 122.98 34.6029C122.665 34.3992 122.401 34.1144 122.212 33.7739C122.053 33.4811 121.968 33.1478 121.967 32.8081C121.954 32.4108 122.08 32.0228 122.318 31.72C122.588 31.4038 122.925 31.1633 123.3 31.0195C123.085 30.8819 122.905 30.6899 122.774 30.4599C122.637 30.191 122.57 29.8862 122.583 29.5791C122.584 29.4227 122.608 29.2674 122.654 29.119C122.704 28.9497 122.779 28.7902 122.876 28.6464C122.986 28.4824 123.115 28.3341 123.26 28.205C123.425 28.0573 123.608 27.9333 123.803 27.8361C123.351 27.5844 122.966 27.2146 122.68 26.7604C122.402 26.2982 122.258 25.7556 122.27 25.204C122.263 24.741 122.362 24.2834 122.558 23.8713C122.751 23.4778 123.022 23.1352 123.352 22.8682C123.709 22.5813 124.111 22.3664 124.539 22.234C125.021 22.0809 125.52 22.0055 126.022 22.0102C126.73 21.9958 127.432 22.1582 128.073 22.4848L130.81 22.5014ZM128.124 32.3791C128.129 32.2731 128.103 32.1682 128.052 32.078C128 31.9879 127.924 31.9165 127.835 31.8734C127.596 31.7559 127.342 31.681 127.081 31.6516C126.736 31.6033 126.389 31.5763 126.041 31.5708C125.658 31.5604 125.274 31.5376 124.89 31.4983C124.732 31.6115 124.591 31.7515 124.474 31.9128C124.366 32.0633 124.309 32.2489 124.311 32.4392C124.309 32.5704 124.337 32.7 124.393 32.8164C124.463 32.9441 124.565 33.0466 124.689 33.1107C124.866 33.2066 125.057 33.2723 125.253 33.3055C125.55 33.3578 125.851 33.3814 126.152 33.376C126.474 33.3817 126.795 33.356 127.111 33.2993C127.32 33.2645 127.523 33.1945 127.712 33.092C127.842 33.0213 127.95 32.9111 128.023 32.7749C128.089 32.6545 128.128 32.5188 128.136 32.3791H128.124ZM126.014 26.5926C126.463 26.5926 126.782 26.4723 126.991 26.2278C127.199 25.9663 127.307 25.6293 127.294 25.2848C127.311 24.9415 127.202 24.6048 126.991 24.348C126.789 24.12 126.463 24.0081 126.014 24.0081C125.565 24.0081 125.247 24.12 125.036 24.348C124.824 24.6048 124.715 24.9415 124.733 25.2848C124.731 25.4621 124.756 25.6386 124.808 25.8071C124.856 25.9619 124.935 26.1033 125.04 26.2216C125.153 26.343 125.289 26.4364 125.439 26.4951C125.627 26.5665 125.826 26.5995 126.026 26.5926H126.014Z" fill="#90A541"/>
<path d="M16.9818 30.259C18.2605 30.259 19.2971 29.139 19.2971 27.7574C19.2971 26.3758 18.2605 25.2559 16.9818 25.2559C15.7031 25.2559 14.6666 26.3758 14.6666 27.7574C14.6666 29.139 15.7031 30.259 16.9818 30.259Z" stroke="#96AA2F" stroke-miterlimit="10"/>
<path d="M14.164 30.2863C15.4427 30.2863 16.4793 29.1663 16.4793 27.7848C16.4793 26.4032 15.4427 25.2832 14.164 25.2832C12.8853 25.2832 11.8487 26.4032 11.8487 27.7848C11.8487 29.1663 12.8853 30.2863 14.164 30.2863Z" stroke="#96AA2F" stroke-miterlimit="10"/>
<path d="M20.8777 18.7256H2.82167C2.60979 18.7256 2.43803 18.9112 2.43803 19.1401V31.1898C2.43803 31.4188 2.60979 31.6043 2.82167 31.6043H20.8777C21.0896 31.6043 21.2613 31.4188 21.2613 31.1898V19.1401C21.2613 18.9112 21.0896 18.7256 20.8777 18.7256Z" stroke="#96AA2F" stroke-miterlimit="10"/>
<path d="M2.67396 21.1133H21.0503M2.67396 23.5402H21.0503" stroke="#96AA2F" stroke-miterlimit="10"/>
<path d="M12.733 16.748H8.59547L20.5267 2.74805L16.2683 14.2672H20.5267L8.59547 28.1056L12.733 16.748Z" fill="#E9AE25"/>
</svg>
