<svg width="70" height="40" viewBox="0 0 70 40" fill="none" xmlns="http://www.w3.org/2000/svg">
<g clip-path="url(#clip0_291_311)">
<path d="M0.321289 27.107C0.321289 19.9905 6.13886 14.4502 13.7208 14.4502C18.1078 14.4502 22.1134 16.4084 24.4023 19.3696L21.112 22.6652C20.2392 21.546 19.1257 20.6384 17.8543 20.0099C16.5828 19.3814 15.1863 19.0483 13.7685 19.0353C9.23839 19.0353 5.61432 22.4264 5.61432 27.107C5.61432 31.8354 9.23839 35.2264 13.7685 35.2264C15.237 35.2247 16.6852 34.8833 18.0004 34.2288C19.3155 33.5743 20.462 32.6244 21.3504 31.4533L24.593 34.6532C22.3995 37.7579 18.2032 39.8115 13.7208 39.8115C6.13886 39.8115 0.321289 34.2711 0.321289 27.107Z" fill="#255BE3"/>
<path d="M28.8845 15.3105H34.0823V38.9525H28.8845V15.3105Z" fill="#255BE3"/>
<path d="M43.7625 32.5998V19.7043H38.0879V15.3102H44.0011V10.2474L48.8648 7.85938V15.3102H56.5899V19.7043H48.8648V31.7402C48.8648 34.1284 50.2001 35.1789 52.7272 35.1789C54.0425 35.1857 55.3435 34.9087 56.5421 34.367V38.8565C55.0404 39.5165 53.4133 39.8426 51.7737 39.8118C47.1482 39.8118 43.7625 37.2806 43.7625 32.5998Z" fill="#255BE3"/>
<path d="M60.6904 15.3105H65.8881V38.9525H60.6904V15.3105Z" fill="#255BE3"/>
<path d="M47.3383 0.265701C51.6071 0.255497 55.8159 1.27434 59.6088 3.23618C63.4017 5.19803 66.6675 8.04525 69.1305 11.5374H63.0746C61.0895 9.32759 58.6627 7.56054 55.9519 6.35094C53.241 5.14135 50.3061 4.5163 47.3383 4.5163C44.3705 4.5163 41.4359 5.14135 38.7251 6.35094C36.0142 7.56054 33.5874 9.32759 31.6024 11.5374H25.5464C28.0094 8.04525 31.2753 5.19803 35.0681 3.23618C38.861 1.27434 43.0695 0.255497 47.3383 0.265701Z" fill="#FF3C28"/>
</g>
<defs>
<clipPath id="clip0_291_311">
<rect width="69.1525" height="40" fill="white"/>
</clipPath>
</defs>
</svg>
