<svg width="167" height="40" viewBox="0 0 167 40" fill="none" xmlns="http://www.w3.org/2000/svg">
<g clip-path="url(#clip0_298_12202)">
<path d="M62.2031 18.4103H51.1232C51.2914 17.4207 51.7174 16.4928 52.3582 15.72C52.999 14.9473 53.832 14.357 54.7735 14.0085C55.7149 13.66 56.7315 13.5656 57.721 13.7349C58.7105 13.9042 59.638 14.3311 60.41 14.9727C61.4139 15.8562 62.0531 17.0816 62.2031 18.4103ZM66.4798 21.4404C66.5277 20.8555 66.5565 20.4048 66.5565 20.0884C66.5928 18.2511 66.1569 16.4352 65.2908 14.8145C64.4819 13.3236 63.2644 12.0944 61.7812 11.2714C60.2216 10.4135 58.4645 9.97879 56.6848 10.0105C54.8725 9.98188 53.0837 10.4229 51.4924 11.2906C49.9798 12.1185 48.7317 13.3566 47.8917 14.8625C47.0137 16.4297 46.5655 18.2011 46.5925 19.9973C46.5721 21.8055 47.0391 23.5859 47.9445 25.1513C48.8382 26.6778 50.151 27.9158 51.7273 28.7184C53.3105 29.4731 55.0283 29.9043 56.7803 29.9866C58.5322 30.0689 60.2829 29.8008 61.9299 29.1978C63.2234 28.6922 64.3681 27.8676 65.2572 26.8006L63.7661 25.1273H63.7422C63.4735 24.8611 63.1197 24.6979 62.7427 24.6664C62.3658 24.6348 61.9898 24.7369 61.6806 24.9547C60.437 25.7682 58.9757 26.1845 57.4902 26.1486C55.983 26.2015 54.5003 25.7567 53.2711 24.8828C52.1463 24.0654 51.3899 22.8368 51.1664 21.4644L66.4798 21.4404ZM80.5467 31.3122L89.6849 10.2166H86.7171C86.2949 10.2182 85.8819 10.3405 85.5268 10.569C85.1718 10.7975 84.8894 11.1227 84.713 11.5063L79.1083 24.6623L73.5228 11.5639C73.3569 11.171 73.0807 10.8346 72.7276 10.5955C72.3744 10.3564 71.9595 10.2248 71.5331 10.2166H68.201L76.7111 29.8163L76.3803 30.5834C76.0671 31.3797 75.575 32.0933 74.942 32.669C74.3673 33.097 73.6634 33.3153 72.9475 33.2875C72.3269 33.2861 71.7127 33.1623 71.14 32.9231C71.0584 32.8902 70.9784 32.8534 70.9003 32.8128C70.706 32.7453 70.5018 32.7113 70.2962 32.7121C69.9526 32.7111 69.6157 32.8062 69.3233 32.9867C69.031 33.1671 68.7951 33.4258 68.6421 33.7334C68.633 33.7452 68.6216 33.755 68.6085 33.7621L67.7695 35.3011C68.4473 35.9001 69.2449 36.348 70.1092 36.6148C71.0361 36.9281 72.0074 37.09 72.9858 37.0943C74.5591 37.1408 76.1067 36.6876 77.4063 35.7998C78.6273 34.9304 79.6645 33.4361 80.5179 31.317M106.969 20.0021C106.971 21.2108 106.614 22.3928 105.944 23.3987C105.274 24.4045 104.32 25.1889 103.204 25.6525C102.087 26.1162 100.859 26.2382 99.6732 26.0032C98.4876 25.7683 97.3983 25.1868 96.5433 24.3325C95.6883 23.4781 95.106 22.3893 94.8701 21.2039C94.6342 20.0185 94.7552 18.7897 95.218 17.6731C95.6808 16.5565 96.4644 15.6023 97.4697 14.9313C98.475 14.2603 99.6568 13.9026 100.866 13.9036C102.485 13.9036 104.038 14.5464 105.183 15.6909C106.328 16.8354 106.972 18.3877 106.974 20.0069M110.867 20.0069C110.867 18.0288 110.28 16.0952 109.181 14.4505C108.082 12.8058 106.52 11.524 104.693 10.767C102.865 10.01 100.854 9.81196 98.9144 10.1979C96.9743 10.5838 95.1923 11.5363 93.7936 12.935C92.3949 14.3337 91.4424 16.1157 91.0565 18.0557C90.6706 19.9958 90.8686 22.0067 91.6256 23.8342C92.3826 25.6617 93.6644 27.2236 95.3091 28.3226C96.9538 29.4215 98.8875 30.0081 100.866 30.0081C102.179 30.0087 103.48 29.7505 104.694 29.2481C105.907 28.7457 107.01 28.009 107.939 27.0802C108.868 26.1514 109.604 25.0486 110.107 23.8349C110.609 22.6212 110.867 21.3204 110.867 20.0069ZM138.176 29.7252L145.367 10.1975H142.889C142.433 10.1908 141.986 10.3255 141.61 10.5831C141.234 10.8407 140.947 11.2084 140.789 11.6358L135.994 24.6911L130.72 10.2118H126.885L121.544 24.6239L116.893 11.6262C116.732 11.2116 116.45 10.8552 116.083 10.6037C115.716 10.3522 115.281 10.2173 114.836 10.2166H112.08L119.238 29.7252H123.625L128.745 16.3008L133.789 29.7252H138.176ZM162.69 19.9781C162.696 21.1878 162.344 22.3722 161.676 23.3812C161.009 24.3902 160.057 25.1783 158.941 25.6456C157.826 26.1129 156.596 26.2384 155.409 26.0061C154.222 25.7739 153.13 25.1943 152.273 24.341C151.415 23.4876 150.831 22.3989 150.593 21.2128C150.355 20.0267 150.475 18.7967 150.937 17.6787C151.399 16.5607 152.182 15.6051 153.188 14.933C154.194 14.2609 155.377 13.9026 156.586 13.9036C157.388 13.9036 158.182 14.0614 158.922 14.3682C159.663 14.6749 160.335 15.1244 160.902 15.6912C161.469 16.2579 161.918 16.9308 162.225 17.6712C162.532 18.4117 162.69 19.2054 162.69 20.0069M166.588 20.0069C166.59 18.0284 166.005 16.0939 164.907 14.4479C163.809 12.802 162.248 11.5186 160.42 10.7601C158.593 10.0017 156.582 9.80229 154.641 10.1871C152.701 10.5719 150.918 11.5237 149.518 12.922C148.118 14.3203 147.165 16.1023 146.778 18.0426C146.391 19.9829 146.589 21.9943 147.346 23.8224C148.102 25.6504 149.384 27.2129 151.029 28.3123C152.674 29.4117 154.608 29.9985 156.586 29.9985C157.9 29.9991 159.201 29.7409 160.414 29.2385C161.628 28.7361 162.731 27.9994 163.66 27.0706C164.589 26.1418 165.325 25.039 165.828 23.8253C166.33 22.6117 166.588 21.3109 166.588 19.9973" fill="black"/>
<path d="M39.9999 19.9975C39.9999 16.0414 38.8268 12.1742 36.6289 8.88479C34.431 5.59541 31.3071 3.03165 27.6521 1.51772C23.9971 0.00378393 19.9753 -0.39233 16.0952 0.379467C12.2152 1.15126 8.65108 3.05631 5.85369 5.85369C3.05631 8.65108 1.15126 12.2152 0.379467 16.0952C-0.39233 19.9753 0.00378393 23.9971 1.51772 27.6521C3.03165 31.3071 5.59541 34.431 8.88479 36.6289C12.1742 38.8268 16.0414 39.9999 19.9975 39.9999C25.3025 39.9999 30.3902 37.8925 34.1414 34.1414C37.8925 30.3902 39.9999 25.3025 39.9999 19.9975Z" fill="#FD6C00"/>
<path d="M25.9617 12.7097C25.737 13.1532 25.4405 13.5566 25.0844 13.9035C24.9054 14.0761 24.7147 14.2363 24.5138 14.3829C24.4131 14.45 24.3125 14.522 24.2022 14.5843C24.1484 14.6185 24.0923 14.6489 24.0344 14.6754L23.9912 14.6994H23.9577L23.9049 14.7233C23.761 14.7928 23.6343 14.8933 23.534 15.0177C23.4336 15.142 23.3622 15.2871 23.3248 15.4425C23.3058 15.5145 23.2962 15.5886 23.296 15.663C23.2937 15.6982 23.2937 15.7334 23.296 15.7685C23.2938 15.786 23.2938 15.8037 23.296 15.8213V15.8836C23.3723 16.1909 23.359 16.5137 23.2577 16.8137C23.169 17.1013 23.0138 17.3641 22.8048 17.5806C22.5957 17.7972 22.3386 17.9615 22.0543 18.0603C21.8245 18.1376 21.6261 18.2873 21.4885 18.487C21.3582 18.6596 21.3013 18.8767 21.3303 19.0911V19.4171C21.3353 19.7801 21.2263 20.1356 21.0187 20.4335C20.7655 20.8109 20.3947 21.0941 19.9639 21.239L19.868 21.2677L19.7817 21.3061L19.6235 21.3924C19.525 21.4599 19.4376 21.5424 19.3646 21.6369C19.2954 21.7195 19.2432 21.815 19.2111 21.9178C19.179 22.0207 19.1676 22.1289 19.1776 22.2362V22.2794C19.1799 22.3097 19.1799 22.3401 19.1776 22.3705V22.5622C19.1822 22.9312 19.0734 23.2927 18.866 23.5978C18.737 23.7939 18.5747 23.9659 18.3865 24.106C18.2958 24.1783 18.1977 24.2409 18.0941 24.293L17.9359 24.3649L17.8591 24.3937H17.792C17.5759 24.4622 17.3898 24.6027 17.2646 24.7916C17.2098 24.8838 17.1739 24.986 17.1591 25.0922C17.1443 25.1984 17.1508 25.3065 17.1783 25.4101L17.2023 25.5348V25.7122C17.2143 25.8285 17.2143 25.9458 17.2023 26.0622C17.1787 26.2915 17.112 26.5144 17.0057 26.719C16.7971 27.1318 16.4464 27.4553 16.0181 27.63C15.9859 27.6439 15.9521 27.6536 15.9174 27.6587C15.8798 27.6731 15.8444 27.6925 15.8119 27.7163C15.7404 27.7629 15.6759 27.8194 15.6201 27.8841C15.5084 28.0222 15.4355 28.1877 15.4092 28.3635C15.3996 28.4576 15.3996 28.5523 15.4092 28.6464V28.7998C15.4286 28.8787 15.443 28.9588 15.4523 29.0395C15.493 29.363 15.4568 29.6915 15.3469 29.9984C15.2316 30.3166 15.0268 30.5946 14.7571 30.7991L14.6469 30.8662L14.5366 30.9237L14.4551 30.9621L14.4024 30.9909C14.3242 31.0401 14.2559 31.1035 14.201 31.1778C14.0834 31.3513 14.0155 31.5535 14.0044 31.7628C13.9857 31.9869 14.0151 32.2125 14.0907 32.4244V32.4532C14.1107 32.5193 14.1044 32.5906 14.0731 32.6522C14.0419 32.7138 13.9881 32.761 13.9229 32.784C13.8905 32.7984 13.8553 32.8058 13.8198 32.8058C13.7843 32.8058 13.7492 32.7984 13.7167 32.784L13.5489 32.6833L13.4866 32.6018L13.4243 32.5251C13.3912 32.4806 13.3608 32.4342 13.3332 32.386C13.2716 32.2935 13.2156 32.1975 13.1654 32.0984C13.0573 31.8995 12.9643 31.6928 12.8873 31.4799C12.8088 31.252 12.7589 31.0153 12.7387 30.7751C12.7322 30.6402 12.7419 30.505 12.7675 30.3724C12.7985 30.2096 12.8712 30.0576 12.9784 29.9313L13.0072 29.9025V29.8738C13.0184 29.8505 13.028 29.8265 13.0359 29.8018C13.0564 29.7378 13.0708 29.672 13.0791 29.6053C13.0976 29.446 13.0976 29.2851 13.0791 29.1258C13.0604 28.9636 13.0283 28.8033 12.9832 28.6464C12.9592 28.5697 12.9305 28.4978 12.9017 28.4258C12.8729 28.3539 12.8681 28.3539 12.8538 28.3156L12.8298 28.2676L12.7962 28.2053C12.592 27.8062 12.5056 27.3572 12.5469 26.9108C12.5752 26.6576 12.6586 26.4138 12.7914 26.1964C12.866 26.0834 12.9546 25.9803 13.0551 25.8896C13.1061 25.8424 13.1606 25.7991 13.2181 25.7601C13.2501 25.7454 13.2806 25.7278 13.3092 25.7074L13.3763 25.6738H13.4051C13.5713 25.5558 13.6956 25.3878 13.7599 25.1944C13.7984 25.0814 13.821 24.9636 13.827 24.8444V24.4417C13.7838 24.2043 13.7936 23.9604 13.8558 23.7273C13.9146 23.495 14.0189 23.2766 14.1626 23.0848C14.4329 22.7263 14.8137 22.4668 15.2462 22.3465H15.3612L15.4523 22.3081L15.6297 22.217C15.7409 22.1456 15.8424 22.0602 15.9318 21.9629C16.0155 21.8735 16.0821 21.7695 16.1284 21.6561C16.1457 21.6115 16.157 21.5647 16.1619 21.517C16.1641 21.4963 16.1641 21.4754 16.1619 21.4547V21.2821C16.1782 21.0093 16.264 20.7453 16.4112 20.515C16.5401 20.312 16.7022 20.1321 16.8907 19.9828C17.2379 19.7067 17.648 19.5206 18.0845 19.4411H18.1228C18.3762 19.3748 18.6119 19.2537 18.8132 19.0863C18.9092 19.0068 18.9903 18.911 19.053 18.8034C19.0784 18.7633 19.0978 18.7197 19.1105 18.6739C19.1128 18.6548 19.1128 18.6355 19.1105 18.6164C19.1123 18.6085 19.1123 18.6003 19.1105 18.5924V18.5013C19.1226 18.2314 19.2035 17.969 19.3454 17.739C19.4795 17.5442 19.6409 17.3698 19.8249 17.2212C20.1656 16.9483 20.564 16.7564 20.9899 16.6603C21.3194 16.595 21.6198 16.4272 21.8481 16.1808C21.9338 16.0826 21.9874 15.9604 22.0015 15.8308C22.0039 15.8182 22.0039 15.8052 22.0015 15.7925V15.7589C21.992 15.6777 21.992 15.5956 22.0015 15.5144C22.0084 15.3497 22.0441 15.1874 22.107 15.035C22.2164 14.768 22.3796 14.5265 22.5865 14.3254C22.7768 14.1276 23.0009 13.9653 23.2481 13.8459L23.4351 13.7644L23.5262 13.7309H23.5501C23.6356 13.6924 23.7188 13.6492 23.7995 13.6014C23.9692 13.5026 24.1296 13.3886 24.2789 13.261C24.5864 13.0048 24.8503 12.7004 25.0604 12.3597C25.2789 12.0119 25.4408 11.6316 25.5398 11.233C25.7102 10.3994 25.7102 9.53992 25.5398 8.70631C25.5307 8.68081 25.5267 8.65376 25.528 8.6267C25.5293 8.59965 25.5359 8.57312 25.5475 8.54863C25.5591 8.52414 25.5754 8.50217 25.5955 8.48398C25.6155 8.46579 25.639 8.45173 25.6645 8.44261C25.7128 8.42373 25.7667 8.42473 25.8143 8.44539C25.8619 8.46605 25.8994 8.50469 25.9186 8.55289V8.58165C26.0932 9.01277 26.2218 9.46114 26.3022 9.9193C26.3904 10.3936 26.4066 10.8785 26.3501 11.3576C26.3501 11.4775 26.3165 11.6021 26.2926 11.722C26.2686 11.8419 26.2398 11.9617 26.2015 12.0816C26.1325 12.3192 26.0427 12.5502 25.933 12.772M28.9487 11.0076C28.4886 9.80936 27.8659 8.68007 27.098 7.65153C26.8479 7.31278 26.574 6.99233 26.2782 6.69264C26.0231 6.81598 25.8101 7.01191 25.6659 7.25586C25.5218 7.49981 25.4529 7.7809 25.4679 8.06385C25.382 7.66384 25.2168 7.28508 24.9821 6.94994C24.7475 6.61479 24.448 6.33005 24.1015 6.11252C24.1015 6.11252 15.8215 5.13925 11.5545 14.1911C8.02096 21.6992 11.3819 33.1532 13.0695 33.9011C14.7571 34.649 25.4104 29.4375 28.7281 21.8383C30.5644 17.6383 30.1952 13.7692 28.9774 10.9453" fill="white"/>
</g>
<defs>
<clipPath id="clip0_298_12202">
<rect width="166.588" height="40" fill="white"/>
</clipPath>
</defs>
</svg>
