<svg width="60" height="40" viewBox="0 0 60 40" fill="none" xmlns="http://www.w3.org/2000/svg">
<g clip-path="url(#clip0_298_13344)">
<path fill-rule="evenodd" clip-rule="evenodd" d="M58.8518 11.7438C58.4291 12.5886 57.7758 13.3182 57.0072 13.8174C56.5075 14.1246 56.0848 14.4318 55.8926 14.8158C55.5851 15.3918 55.5467 18.387 52.3186 20.691C49.9742 22.3806 47.6299 23.8398 45.2086 25.0302L51.5115 39.1998H42.8259L38.1373 27.987C31.8346 30.0222 25.7238 30.483 20.1898 29.8302L16.1928 39.1998H7.50734L12.5035 27.9102C8.46814 26.3358 4.894 23.7246 2.12694 20.3454C-0.947586 16.5822 -0.0252296 15.3918 0.820263 16.0062C5.58578 19.4622 10.3897 21.3438 15.0784 22.1886L24.6094 0.799805H34.4094L41.7883 17.3886C45.3624 15.5454 47.6683 13.8558 48.0526 13.4718C51.0502 10.6686 52.9718 11.5518 54.1248 12.819C54.7013 13.4334 54.855 13.4334 55.5851 12.5886C56.4691 11.5518 56.6613 10.515 56.7766 9.43981C56.9302 8.51821 60.0818 8.979 58.8518 11.7438ZM34.909 20.3838L29.567 7.7118L23.1874 22.7646C27.4533 22.5342 31.4502 21.5742 34.909 20.3838Z" fill="#CF574A"/>
</g>
<defs>
<clipPath id="clip0_298_13344">
<rect width="59.2" height="40" fill="white"/>
</clipPath>
</defs>
</svg>
