<svg width="228" height="40" viewBox="0 0 228 40" fill="none" xmlns="http://www.w3.org/2000/svg">
<g clip-path="url(#clip0_298_13299)">
<mask id="mask0_298_13299" style="mask-type:luminance" maskUnits="userSpaceOnUse" x="0" y="0" width="227" height="40">
<path d="M226.339 0H0V40H226.339V0Z" fill="white"/>
</mask>
<g mask="url(#mask0_298_13299)">
<path d="M102.11 31.654H95.5172L93.3052 25.3529H80.7446L78.4911 31.654H72.1072L82.9566 2.44531H91.3851L102.108 31.6556L102.11 31.654ZM91.5111 20.2624L87.0887 7.70171L82.5818 20.2624H91.5111Z" fill="#0C0A0A"/>
<path d="M100.525 34.7434H102.11C103.445 34.7434 104.113 34.1182 104.113 32.8231V10.4147H110.497V32.8231C110.497 37.5805 107.743 40.0014 102.82 40.0014H100.525V34.7434ZM104.03 2.61298H110.623V7.87104H104.03V2.61133V2.61298Z" fill="#0C0A0A"/>
<path d="M113.294 21.0554C113.294 14.5039 117.967 10.123 124.394 10.123C130.821 10.123 135.453 14.5039 135.453 21.0554C135.453 27.6068 130.778 31.9463 124.394 31.9463C118.01 31.9463 113.294 27.6068 113.294 21.0554ZM124.394 27.0231C127.273 27.0231 128.901 25.02 128.901 21.0554C128.901 17.0906 127.275 15.0461 124.394 15.0461C121.514 15.0461 119.887 17.0906 119.887 21.0554C119.887 25.02 121.473 27.0231 124.394 27.0231Z" fill="#0C0A0A"/>
<path d="M137.205 17.0494C137.205 8.12009 143.005 2.15234 151.56 2.15234C158.32 2.15234 162.869 6.03246 164.413 12.2091L157.988 13.6285C157.028 9.95734 154.9 7.61933 151.435 7.61933C146.97 7.61933 144.009 11.2905 144.009 16.716C144.009 22.7667 147.014 26.481 151.854 26.481C155.025 26.481 157.613 24.604 158.279 20.8482L164.704 22.3505C163.203 27.9004 158.445 31.948 151.769 31.948C142.84 31.948 137.205 26.2306 137.205 17.051V17.0494Z" fill="#0C0A0A"/>
<path d="M176.096 15.0461C174.176 15.0461 172.924 16.0063 172.09 17.8004L166.331 16.4655C167.583 13.0016 171.171 10.123 176.554 10.123C181.936 10.123 185.483 12.7098 185.483 17.8435V31.656H179.099V28.0263C177.555 30.5301 174.925 31.9495 171.796 31.9495C168.5 31.9495 165.495 30.1139 165.495 26.5671C165.495 22.6439 168.083 20.9343 174.05 20.349C177.764 19.9743 179.099 19.4718 179.099 17.6363C179.099 16.0079 177.93 15.0495 176.094 15.0495L176.096 15.0461ZM174.676 27.5654C176.68 27.5654 179.016 26.2305 179.1 22.1829C178.433 22.808 177.348 23.1844 175.804 23.3519C173.341 23.6023 172.258 24.186 172.258 25.6883C172.258 26.9401 173.3 27.5654 174.676 27.5654Z" fill="#0C0A0A"/>
<path d="M189.284 10.4149H195.667V17.2166C196.877 13.1691 199.172 10.123 203.052 10.123H203.135V16.3411C197.96 16.3411 195.665 18.0524 195.665 24.3949V31.656H189.281V10.4149H189.284Z" fill="#0C0A0A"/>
<path d="M219.955 27.3145C218.87 29.9427 216.783 31.9457 213.361 31.9457C208.145 31.9457 204.14 27.6893 204.14 20.8875C204.14 14.0856 208.23 10.121 213.029 10.121C216.366 10.121 218.703 12.0411 219.955 15.0441V2.44531H226.339V31.654H219.955V27.3145ZM215.156 27.1056C218.119 27.1056 219.955 24.8107 219.955 21.2224C219.955 17.4252 218.078 14.9629 215.156 14.9629C212.485 14.9629 210.734 17.2578 210.734 20.8875C210.734 24.7261 212.445 27.1056 215.156 27.1056Z" fill="#0C0A0A"/>
<path d="M53.5141 33.3955H1.68304C0.752809 33.3955 0 34.15 0 35.0785C0 36.0071 0.754466 36.7616 1.68304 36.7616H53.5141C54.4442 36.7616 55.1971 36.0071 55.1971 35.0785C55.1971 34.15 54.4426 33.3955 53.5141 33.3955Z" fill="#FDBD28"/>
<path d="M2.60989 21.0524L22.6803 28.7546C24.2589 29.3581 25.9188 29.6599 27.5786 29.6599C29.2384 29.6599 30.9016 29.3565 32.4834 28.7513L52.5241 21.0474C53.3929 20.7141 53.8257 19.7408 53.4941 18.8735C53.1608 18.0046 52.1874 17.5719 51.3203 17.9035L31.2796 25.6074C28.8952 26.521 26.2687 26.521 23.8842 25.609L3.81373 17.9069C2.94484 17.5753 1.9715 18.0096 1.63986 18.8785C1.30823 19.7474 1.74266 20.7208 2.61155 21.0524H2.60989Z" fill="#FDBD28"/>
<path d="M9.04031 10.9575L22.3671 20.6246C23.9307 21.7589 25.7613 22.326 27.5919 22.326C29.4226 22.326 31.2631 21.7555 32.8301 20.6164L46.1003 10.9294C46.8516 10.3822 47.0173 9.32924 46.4702 8.57809C45.9229 7.82694 44.8701 7.66111 44.1188 8.20831L30.8486 17.8954C28.9052 19.3097 26.2902 19.3131 24.3452 17.9002L11.0169 8.23319C10.264 7.68765 9.2111 7.85512 8.66556 8.60792C8.12003 9.36074 8.2875 10.4137 9.04031 10.9592V10.9575Z" fill="#FDBD28"/>
<path d="M24.5674 13.1163C25.146 14.2505 26.2935 14.9519 27.5653 14.9519C27.5753 14.9519 27.5869 14.9519 27.5969 14.9519C28.8819 14.9403 30.0294 14.2156 30.5932 13.0615L35.7765 2.43436C36.1845 1.59864 35.8379 0.590476 35.0023 0.182566C34.1665 -0.225344 33.1583 0.122872 32.7504 0.956931L27.567 11.5841L22.1199 0.918793C21.697 0.091367 20.6839 -0.238609 19.8549 0.184224C19.0274 0.607058 18.6974 1.6202 19.1203 2.44929L24.5657 13.1163H24.5674Z" fill="#FDBD28"/>
</g>
</g>
<defs>
<clipPath id="clip0_298_13299">
<rect width="227.5" height="40" fill="white"/>
</clipPath>
</defs>
</svg>
