<svg width="40" height="40" viewBox="0 0 40 40" fill="none" xmlns="http://www.w3.org/2000/svg">
<path d="M39.6801 6.74707H0.320068V33.2535H39.6801V6.74707Z" fill="#EC1B24"/>
<path d="M5.67031 29.8897H4.42791C4.21458 29.8897 4.10791 29.7173 4.10791 29.3725V20.2293C4.10791 19.8845 4.21458 19.7119 4.42791 19.7117H5.67031L7.55231 19.7061C7.90636 19.7183 8.25846 19.7639 8.60391 19.8425C8.95831 19.9321 9.29794 20.0723 9.61231 20.2589C9.84618 20.3818 10.1435 20.6454 10.5043 21.0497C10.6983 21.3088 10.8595 21.591 10.9843 21.8897C11.1606 22.3057 11.2487 22.8486 11.2487 23.5185V26.0869C11.2487 26.7565 11.1606 27.3014 10.9843 27.7217C10.8583 28.0174 10.6971 28.2969 10.5043 28.5541C10.1435 28.9621 9.84618 29.2275 9.61231 29.3505C9.29794 29.537 8.95831 29.6772 8.60391 29.7669C8.25846 29.8454 7.90636 29.891 7.55231 29.9033L5.67031 29.8977V29.8897ZM6.23591 21.6801V27.9281H7.57071C7.75111 27.9281 7.87391 27.9185 7.93951 27.8985C8.71471 27.7118 9.10218 27.1629 9.10191 26.2517V23.3501C9.10191 22.4386 8.71444 21.8919 7.93951 21.7101C7.87311 21.6901 7.75018 21.6801 7.57071 21.6801H6.23591Z" fill="white"/>
<path d="M14.8848 27.4457L14.362 29.4729C14.2796 29.7505 14.1279 29.8893 13.9068 29.8893H12.4184C12.2624 29.8893 12.1845 29.796 12.1848 29.6093C12.1869 29.5171 12.1992 29.4253 12.2216 29.3357L14.6324 20.2641C14.7065 19.8953 14.8541 19.7109 15.0752 19.7109H17.2896C17.5107 19.7109 17.6583 19.8953 17.7324 20.2641L20.1324 29.3357C20.1548 29.4253 20.1671 29.5171 20.1692 29.6093C20.1692 29.796 20.0913 29.8893 19.9356 29.8893H18.4596C18.238 29.8893 18.0863 29.7505 18.0044 29.4729L17.48 27.4457H14.8848ZM16.9572 25.3949L16.1824 22.3869L15.4076 25.3949H16.9572Z" fill="white"/>
<path d="M23.0799 24.6696V29.4728C23.0799 29.7504 22.9692 29.8892 22.7479 29.8892H21.2719C21.0586 29.8892 20.9519 29.7168 20.9519 29.372V20.2288C20.9519 19.884 21.0586 19.7114 21.2719 19.7112H22.7479C22.969 19.7112 23.9488 21.4966 25.6875 25.0676V20.2276C25.6875 19.8828 25.7942 19.7102 26.0075 19.71H27.4799C27.7015 19.71 27.8122 19.8488 27.8119 20.1264V29.4728C27.8119 29.7504 27.7012 29.8892 27.4799 29.8892H26.0039C25.7919 29.8892 24.8172 28.1493 23.0799 24.6696Z" fill="white"/>
<path d="M28.7375 23.1997C28.7375 22.0304 29.2275 21.085 30.2075 20.3637C30.8675 19.937 31.5522 19.723 32.2615 19.7217V19.7337C32.295 19.7192 32.3303 19.7093 32.3663 19.7041C32.7204 19.7163 33.0725 19.762 33.4179 19.8405C33.7723 19.9301 34.112 20.0704 34.4263 20.2569C34.6602 20.3798 34.9576 20.6434 35.3183 21.0477C35.5123 21.3069 35.6735 21.589 35.7984 21.8877C35.9749 22.3037 36.063 22.8466 36.0627 23.5165V26.0849C36.0627 26.7545 35.9746 27.2994 35.7984 27.7197C35.6723 28.0154 35.5112 28.2949 35.3183 28.5521C34.9576 28.9601 34.6602 29.2256 34.4263 29.3485C34.112 29.535 33.7723 29.6753 33.4179 29.7649C33.0725 29.8434 32.7204 29.8891 32.3663 29.9013C32.3302 29.8964 32.2949 29.8864 32.2615 29.8717V29.8837C31.5522 29.8837 30.8675 29.6697 30.2075 29.2417C29.2275 28.5217 28.7375 27.575 28.7375 26.4017V23.1997ZM33.916 23.3481C33.916 22.4366 33.5285 21.89 32.7536 21.7081C32.688 21.6884 32.565 21.6785 32.3847 21.6785C31.7202 21.6785 31.2569 21.9718 30.9947 22.5585C30.9473 22.7406 30.9103 22.9253 30.8839 23.1117V26.4885C30.9095 26.6749 30.9465 26.8595 30.9947 27.0413C31.2571 27.6317 31.7205 27.9269 32.3847 27.9269C32.5651 27.9269 32.688 27.9173 32.7536 27.8973C33.5287 27.7106 33.9162 27.1617 33.916 26.2505V23.3481Z" fill="white"/>
<path d="M36.5869 19.8223C36.7065 19.823 36.824 19.8539 36.9285 19.9123C37.0383 19.9709 37.1287 20.0603 37.1885 20.1695C37.2491 20.2752 37.2809 20.3949 37.2809 20.5167C37.2809 20.6385 37.2491 20.7582 37.1885 20.8639C37.1291 20.9724 37.0399 21.0617 36.9313 21.1211C36.8259 21.1813 36.7067 21.213 36.5853 21.213C36.4639 21.213 36.3447 21.1813 36.2393 21.1211C36.1306 21.0617 36.0412 20.9725 35.9817 20.8639C35.9209 20.7582 35.8889 20.6385 35.8889 20.5167C35.8889 20.3948 35.9209 20.2751 35.9817 20.1695C36.0415 20.0603 36.1319 19.9709 36.2417 19.9123C36.3473 19.8535 36.4661 19.8225 36.5869 19.8223ZM36.5869 19.9375C36.487 19.9381 36.3889 19.964 36.3017 20.0127C36.2101 20.0619 36.1347 20.1364 36.0845 20.2275C36.0338 20.3155 36.0071 20.4153 36.0071 20.5169C36.0071 20.6184 36.0338 20.7182 36.0845 20.8063C36.1344 20.8967 36.2091 20.9711 36.2997 21.0207C36.3874 21.0713 36.4869 21.0979 36.5881 21.0979C36.6893 21.0979 36.7888 21.0713 36.8765 21.0207C36.9669 20.971 37.0414 20.8966 37.0913 20.8063C37.1419 20.7182 37.1685 20.6184 37.1685 20.5169C37.1685 20.4153 37.1419 20.3155 37.0913 20.2275C37.0415 20.1363 36.9661 20.0616 36.8745 20.0127C36.7866 19.9636 36.6876 19.9377 36.5869 19.9375ZM36.2801 20.9023V20.1543H36.5373C36.6016 20.1513 36.666 20.1583 36.7281 20.1751C36.7665 20.188 36.7996 20.2133 36.8221 20.2471C36.8446 20.2793 36.8567 20.3177 36.8569 20.3571C36.8573 20.3834 36.8525 20.4096 36.8428 20.4341C36.833 20.4586 36.8185 20.481 36.8001 20.4999C36.7589 20.5414 36.7034 20.5657 36.6449 20.5679C36.6683 20.5773 36.6899 20.5908 36.7085 20.6079C36.7505 20.6532 36.7875 20.703 36.8189 20.7563L36.9101 20.9027H36.7629L36.6965 20.7847C36.6651 20.7196 36.6223 20.6607 36.5701 20.6107C36.5417 20.5916 36.5078 20.5824 36.4737 20.5847H36.4025V20.9027L36.2801 20.9023ZM36.4001 20.4815H36.5465C36.5965 20.4864 36.6468 20.4753 36.6901 20.4499C36.7028 20.4402 36.713 20.4276 36.72 20.4132C36.7269 20.3988 36.7304 20.383 36.7301 20.3671C36.7304 20.3458 36.724 20.3249 36.7117 20.3075C36.6989 20.2894 36.6811 20.2755 36.6605 20.2675C36.6214 20.2569 36.5809 20.2526 36.5405 20.2547H36.4033L36.4001 20.4815Z" fill="white"/>
<path d="M25.1444 11.5356C25.2297 11.5356 25.3131 11.5103 25.384 11.4629C25.4549 11.4155 25.5102 11.3482 25.5428 11.2694C25.5755 11.1906 25.584 11.1039 25.5674 11.0202C25.5507 10.9366 25.5097 10.8598 25.4494 10.7995C25.389 10.7392 25.3122 10.6981 25.2286 10.6815C25.1449 10.6648 25.0582 10.6734 24.9794 10.706C24.9006 10.7386 24.8333 10.7939 24.7859 10.8648C24.7385 10.9357 24.7132 11.0191 24.7132 11.1044C24.7132 11.2187 24.7587 11.3284 24.8395 11.4093C24.9204 11.4901 25.0301 11.5356 25.1444 11.5356ZM20.0084 10.3848V10.908C16.3736 10.908 13.4272 12.3716 13.4272 14.1768C13.4272 16.0168 16.3736 17.5096 20.0084 17.5096C23.652 17.5096 26.6056 15.9856 26.6056 14.1056C26.6056 12.0508 23.652 10.3856 20.0084 10.3856" fill="white"/>
<path d="M25.0937 10.9741H25.1337C25.1445 10.9737 25.1552 10.9748 25.1657 10.9773C25.1729 10.9793 25.1796 10.9828 25.1853 10.9877C25.1903 10.9917 25.1939 10.9971 25.1957 11.0033C25.1977 11.0094 25.1986 11.0157 25.1985 11.0221C25.1988 11.029 25.1977 11.0358 25.1953 11.0423C25.1929 11.0487 25.1892 11.0547 25.1845 11.0597C25.1693 11.0706 25.1507 11.0755 25.1321 11.0737H25.0921V10.9741M25.0121 11.2801C25.0241 11.2832 25.0365 11.2844 25.0489 11.2837C25.0607 11.2845 25.0726 11.2833 25.0841 11.2801C25.0866 11.279 25.0888 11.2771 25.0902 11.2748C25.0917 11.2724 25.0923 11.2696 25.0921 11.2669V11.1417H25.1157C25.1315 11.1406 25.1473 11.1451 25.1601 11.1545C25.1724 11.1675 25.1811 11.1835 25.1853 11.2009L25.2041 11.2621C25.2049 11.2663 25.2067 11.2703 25.2093 11.2737L25.2185 11.2797C25.2234 11.2815 25.2285 11.2825 25.2337 11.2829H25.2577H25.2849L25.3001 11.2805L25.3069 11.2761V11.2697C25.3058 11.2607 25.3036 11.2518 25.3005 11.2433L25.2789 11.1865C25.2724 11.1672 25.2614 11.1496 25.2469 11.1353C25.2354 11.1246 25.2217 11.1164 25.2069 11.1113C25.2305 11.1064 25.2523 11.0949 25.2697 11.0781C25.2778 11.0691 25.284 11.0585 25.288 11.047C25.292 11.0356 25.2937 11.0234 25.2929 11.0113C25.2934 10.9947 25.29 10.9783 25.2829 10.9633C25.2764 10.9499 25.2664 10.9384 25.2541 10.9301C25.24 10.9204 25.2241 10.9137 25.2073 10.9105C25.1867 10.9057 25.1656 10.9035 25.1445 10.9037H25.0441C25.0386 10.9033 25.0331 10.9042 25.028 10.9062C25.0229 10.9082 25.0183 10.9113 25.0145 10.9153C25.0076 10.924 25.0042 10.935 25.0049 10.9461V11.2661C25.0048 11.2689 25.0056 11.2717 25.0072 11.2741C25.0087 11.2765 25.011 11.2783 25.0137 11.2793M25.1445 10.8249C25.2002 10.823 25.2553 10.8378 25.3026 10.8673C25.3499 10.8969 25.3872 10.9399 25.4099 10.9909C25.4326 11.0419 25.4395 11.0985 25.4298 11.1534C25.4201 11.2083 25.3943 11.2591 25.3555 11.2992C25.3168 11.3394 25.2669 11.367 25.2123 11.3786C25.1578 11.3902 25.101 11.3852 25.0493 11.3644C24.9976 11.3435 24.9532 11.3076 24.922 11.2614C24.8908 11.2152 24.8741 11.1607 24.8741 11.1049C24.8734 11.0687 24.8799 11.0328 24.8931 10.9991C24.9063 10.9655 24.9261 10.9348 24.9512 10.9088C24.9763 10.8827 25.0063 10.8619 25.0395 10.8476C25.0726 10.8332 25.1083 10.8255 25.1445 10.8249ZM25.1445 11.4525C25.2135 11.4524 25.2809 11.4319 25.3382 11.3935C25.3955 11.3551 25.4401 11.3006 25.4665 11.2369C25.4928 11.1731 25.4996 11.103 25.4861 11.0354C25.4726 10.9678 25.4394 10.9056 25.3906 10.8569C25.3418 10.8082 25.2796 10.775 25.212 10.7616C25.1443 10.7481 25.0742 10.7551 25.0105 10.7815C24.9468 10.8079 24.8924 10.8526 24.854 10.9099C24.8157 10.9673 24.7953 11.0347 24.7953 11.1037C24.7953 11.1495 24.8043 11.1949 24.8219 11.2373C24.8394 11.2796 24.8652 11.3181 24.8976 11.3505C24.93 11.3829 24.9685 11.4085 25.0109 11.426C25.0533 11.4436 25.0987 11.4525 25.1445 11.4525ZM21.8865 10.7553C21.861 10.8239 21.827 10.8891 21.7853 10.9493C22.7089 11.1533 23.6893 11.5033 24.3917 12.0101C24.3975 12.0137 24.4017 12.0193 24.4036 12.0258C24.4055 12.0324 24.4048 12.0394 24.4017 12.0455C24.3986 12.0516 24.3934 12.0563 24.387 12.0587C24.3807 12.0611 24.3736 12.061 24.3673 12.0585C23.1757 11.4393 21.6169 11.1257 20.0073 11.1257C16.6093 11.1257 13.8545 12.4913 13.8545 14.1761C13.8545 15.8961 16.6093 17.2901 20.0073 17.2901C23.4137 17.2901 26.1753 15.8641 26.1753 14.1053C26.1753 12.5365 24.3753 11.2081 21.8853 10.7553" fill="#40B93C"/>
<path d="M23.32 16.4107C23.3576 16.4031 23.3704 16.4395 23.3356 16.4535C22.4616 16.8075 21.252 17.0079 20.0076 17.0079C16.982 17.0079 14.5276 15.7403 14.5276 14.1763C14.5276 12.6123 16.9804 11.3447 20.0076 11.3447C23.416 11.3447 25.5032 12.8167 25.4924 14.1047C25.482 15.2407 23.9752 16.3147 20.9264 16.3147C19.656 16.3147 18.0464 16.0775 16.7568 15.5607C16.6992 15.5375 16.672 15.6203 16.724 15.6475C18.1348 16.4007 20.6904 16.9275 23.32 16.4103" fill="#0B4919"/>
<path d="M20.0083 17.0079C16.9827 17.0079 14.5283 15.7403 14.5283 14.1763C14.5283 12.6123 16.9811 11.3447 20.0083 11.3447C23.4035 11.3447 25.4883 12.8051 25.4931 14.0899V14.1051C25.4827 15.2411 23.9759 16.3151 20.9271 16.3151C19.6567 16.3151 18.0471 16.0779 16.7575 15.5611C16.7513 15.5586 16.7446 15.5572 16.7379 15.5571C16.7323 15.5575 16.7268 15.5589 16.7217 15.5614C16.7167 15.5639 16.7122 15.5674 16.7084 15.5716C16.7047 15.5759 16.7019 15.5808 16.7001 15.5861C16.6983 15.5915 16.6975 15.5971 16.6979 15.6027C16.6978 15.6121 16.7004 15.6213 16.7052 15.6293C16.7101 15.6373 16.7171 15.6437 16.7255 15.6479C17.7443 16.1919 19.3603 16.6167 21.1699 16.6167C21.8915 16.6175 22.6116 16.5485 23.3199 16.4107C23.3231 16.4103 23.3263 16.4103 23.3295 16.4107C23.3463 16.4107 23.3563 16.4203 23.3559 16.4311C23.3551 16.4365 23.3527 16.4416 23.3491 16.4457C23.3455 16.4498 23.3408 16.4528 23.3355 16.4543C22.4615 16.8083 21.2519 17.0087 20.0075 17.0087M20.0143 11.4319H20.0059C19.4919 11.431 18.9786 11.469 18.4703 11.5455C17.4139 11.7055 16.5135 12.0295 15.9015 12.4511C15.7078 12.5808 15.5328 12.7365 15.3815 12.9139C15.2515 13.0651 15.1537 13.2413 15.0939 13.4315C15.0373 13.6201 15.0311 13.8202 15.0759 14.0119C15.1293 14.2202 15.2288 14.4137 15.3671 14.5783C15.5136 14.7688 15.6873 14.9366 15.8827 15.0763C16.4943 15.4979 17.4147 15.8163 18.4711 15.9767C18.9798 16.0479 19.4931 16.0811 20.0067 16.0759C20.5759 16.0759 21.0175 16.0551 21.5407 15.9767C22.7215 15.7991 23.5619 15.4567 24.1435 15.0687C24.3591 14.9195 24.5071 14.7459 24.6455 14.5755C24.784 14.4109 24.8832 14.217 24.9355 14.0083C24.9816 13.8169 24.9762 13.6166 24.9199 13.4279C24.86 13.238 24.7623 13.062 24.6327 12.9107C24.481 12.7338 24.3061 12.5783 24.1127 12.4483C23.5199 12.0399 22.5643 11.6935 21.5439 11.5447C21.038 11.4677 20.5269 11.4297 20.0151 11.4311" fill="#0A4919"/>
<path d="M19.9799 16.24C22.7965 16.24 25.0799 15.067 25.0799 13.62C25.0799 12.173 22.7965 11 19.9799 11C17.1632 11 14.8799 12.173 14.8799 13.62C14.8799 15.067 17.1632 16.24 19.9799 16.24Z" fill="url(#paint0_radial_291_3800)"/>
<path d="M23.4043 13.5999C23.3447 14.2195 23.1003 14.8399 22.7143 14.8399C22.5567 14.8399 22.4431 14.7151 22.4431 14.5083C22.4431 13.9731 22.8667 13.4239 23.4043 13.5999ZM23.9879 13.5499C24.0235 13.3599 23.9711 13.2779 23.8003 13.2299C22.6803 12.9139 21.8283 13.6299 21.8283 14.6003C21.8283 14.9699 22.0131 15.3175 22.4155 15.3175C22.7355 15.3175 23.0299 15.0947 23.2363 14.8447C23.2304 14.9367 23.2338 15.029 23.2463 15.1203C23.2799 15.2939 23.4571 15.3827 23.8591 15.2523C23.7975 15.0039 23.8275 14.4051 23.9879 13.5479V13.5499ZM21.4319 13.9807C21.6275 12.9639 21.6819 12.4071 21.6819 12.2303C21.6819 12.1815 21.6591 12.1047 21.5015 12.1047C21.3368 12.101 21.1741 12.1406 21.0295 12.2195C21.0459 12.2791 21.0975 12.7087 20.7223 14.4807C20.5623 15.2339 20.7059 15.4007 21.3391 15.2907C21.2799 15.1035 21.2799 14.7599 21.4319 13.9787V13.9807ZM20.3799 13.1451C20.1175 13.1451 19.7799 13.3959 19.5775 13.8175C19.6039 13.6271 19.6175 13.3991 19.5959 13.2699C19.5891 13.2279 19.5635 13.1935 19.4383 13.1991C19.2864 13.2109 19.1385 13.2535 19.0035 13.3243C19.0035 13.3243 19.0959 13.5779 18.8927 14.8611C18.8311 15.2491 19.0963 15.3623 19.5395 15.2907C19.3659 15.0403 19.6827 13.4875 20.4055 13.8079C20.6903 13.3623 20.6123 13.1431 20.3799 13.1431V13.1451ZM16.8219 14.1163C17.0147 13.7471 17.2927 13.3335 17.4387 13.0271C17.4659 13.2987 17.5823 14.0511 17.5823 14.0511C17.3273 14.0445 17.0723 14.0657 16.8219 14.1143V14.1163ZM18.5931 15.2763C18.3639 14.8731 18.1251 13.8187 17.8927 12.4627C17.8759 12.3631 17.8571 12.3311 17.7727 12.3323C17.6579 12.3323 17.3595 12.3651 17.2403 12.4087C17.1535 12.6287 17.0307 12.8391 16.6247 13.4543C15.5967 15.0143 15.5487 15.4307 16.4487 15.2907C16.4271 15.1491 16.4367 14.9403 16.6051 14.6195C16.6051 14.6195 16.8211 14.4995 17.6583 14.4903C17.8123 15.3463 17.9383 15.3543 18.5927 15.2763" fill="white"/>
<path d="M17.6801 10.465C17.3625 10.6834 17.3837 11.3098 17.7461 11.7518C18.1085 12.1938 18.6769 12.2618 19.0449 12.0642C18.9733 12.4762 19.1973 12.9074 20.0409 12.6342C20.8917 12.359 20.9365 11.7882 20.7653 11.3698C21.2421 11.4046 21.7453 11.2054 21.9041 10.7102C22.0201 10.3478 21.9469 9.90056 21.5673 9.67016C21.5857 9.15016 20.9417 8.69976 20.3089 8.71216C19.9833 8.71856 19.7777 8.92536 19.7665 9.19216C19.3461 8.72816 18.7781 8.71696 18.2289 9.18776C17.7001 9.64136 17.6045 10.275 17.8809 10.539C17.8118 10.5208 17.7447 10.4955 17.6809 10.4634" fill="white"/>
<mask id="mask0_291_3800" style="mask-type:luminance" maskUnits="userSpaceOnUse" x="17" y="8" width="5" height="5">
<path d="M18.0539 11.7903C18.9451 12.4343 19.6007 11.2331 19.4967 11.1079C19.2635 10.8279 19.4235 10.3819 19.9167 10.4519C20.1755 10.4887 19.8419 9.03993 19.0435 9.03993C18.3035 9.03993 17.2291 10.3719 18.5399 10.8079C18.2735 10.8163 17.9251 10.7915 17.7243 10.7015C17.5487 10.8799 17.6487 11.4935 18.0539 11.7903ZM21.5659 9.89833C21.4735 10.0135 21.2971 10.1739 21.1591 10.2051C21.8079 9.42833 20.8843 8.89553 20.3163 8.91353C20.1511 8.91873 20.0047 8.98313 19.9715 9.14873C19.8859 9.57433 20.2615 10.0639 20.1315 10.6975C20.0447 11.1283 21.4779 11.5459 21.7411 10.5919C21.7891 10.4259 21.7743 10.0679 21.5659 9.89833ZM19.9619 11.0131C20.3827 10.9331 21.2243 12.0591 19.9823 12.4595C18.4983 12.9379 19.5931 11.0823 19.9619 11.0131Z" fill="white"/>
</mask>
<g mask="url(#mask0_291_3800)">
<path d="M18.0539 11.7903C18.9451 12.4343 19.6007 11.2331 19.4967 11.1079C19.2635 10.8279 19.4235 10.3819 19.9167 10.4519C20.1755 10.4887 19.8419 9.03993 19.0435 9.03993C18.3035 9.03993 17.2291 10.3719 18.5399 10.8079C18.2735 10.8163 17.9251 10.7915 17.7243 10.7015C17.5487 10.8799 17.6487 11.4935 18.0539 11.7903ZM21.5659 9.89833C21.4735 10.0135 21.2971 10.1739 21.1591 10.2051C21.8079 9.42833 20.8843 8.89553 20.3163 8.91353C20.1511 8.91873 20.0047 8.98313 19.9715 9.14873C19.8859 9.57433 20.2615 10.0639 20.1315 10.6975C20.0447 11.1283 21.4779 11.5459 21.7411 10.5919C21.7891 10.4259 21.7743 10.0679 21.5659 9.89833ZM19.9619 11.0131C20.3827 10.9331 21.2243 12.0591 19.9823 12.4595C18.4983 12.9395 19.5931 11.0823 19.9619 11.0131Z" fill="url(#paint1_radial_291_3800)"/>
</g>
<defs>
<radialGradient id="paint0_radial_291_3800" cx="0" cy="0" r="1" gradientUnits="userSpaceOnUse" gradientTransform="translate(20.0636 13.5543) scale(4.9598 1.99415)">
<stop stop-color="#40B93C"/>
<stop offset="0.17" stop-color="#40B93C" stop-opacity="0.98"/>
<stop offset="0.32" stop-color="#41B93D" stop-opacity="0.93"/>
<stop offset="0.46" stop-color="#41BA3D" stop-opacity="0.83"/>
<stop offset="0.59" stop-color="#42BA3E" stop-opacity="0.7"/>
<stop offset="0.72" stop-color="#43BA3F" stop-opacity="0.52"/>
<stop offset="0.85" stop-color="#45BB41" stop-opacity="0.31"/>
<stop offset="0.97" stop-color="#47BC43" stop-opacity="0.07"/>
<stop offset="1" stop-color="#47BC43" stop-opacity="0"/>
</radialGradient>
<radialGradient id="paint1_radial_291_3800" cx="0" cy="0" r="1" gradientUnits="userSpaceOnUse" gradientTransform="translate(18.7855 11.8162) rotate(-7.18911) scale(3.15053 3.15053)">
<stop stop-color="#FDE17B"/>
<stop offset="0.3" stop-color="#FCD205"/>
<stop offset="1" stop-color="#F89C0E"/>
</radialGradient>
</defs>
</svg>
