<svg width="225" height="40" viewBox="0 0 225 40" fill="none" xmlns="http://www.w3.org/2000/svg">
<path d="M39.9524 19.5785C39.9524 30.4031 31.1985 39.2077 20.3216 39.2077C15.8678 39.2077 11.777 37.7062 8.46161 35.22V32.8369C8.46161 32.2677 8.92777 31.7492 9.54931 31.7492H32.6493C32.8381 31.7511 33.0239 31.7028 33.1879 31.6094C33.352 31.516 33.4883 31.3808 33.5831 31.2176C33.6778 31.0543 33.7276 30.8689 33.7274 30.6801C33.7271 30.4914 33.6768 30.3061 33.5816 30.1431L31.3539 26.2615C31.2515 26.1066 31.1134 25.9787 30.9511 25.8884C30.7888 25.7982 30.6072 25.7483 30.4216 25.7431H9.60161C9.31364 25.7447 9.03792 25.8598 8.83428 26.0634C8.63065 26.2671 8.51554 26.5428 8.51392 26.8308V29.0062C8.51751 29.15 8.49183 29.293 8.43844 29.4266C8.38505 29.5602 8.30506 29.6815 8.20333 29.7833C8.10161 29.885 7.98027 29.965 7.84668 30.0184C7.71309 30.0718 7.57005 30.0974 7.42623 30.0938H3.74931C3.22947 29.2871 2.77864 28.4379 2.40161 27.5554H7.42623C7.57005 27.559 7.71309 27.5333 7.84668 27.4799C7.98027 27.4265 8.10161 27.3465 8.20333 27.2448C8.30506 27.1431 8.38505 27.0217 8.43844 26.8881C8.49183 26.7546 8.51751 26.6115 8.51392 26.4677V24.2923C8.51392 23.7231 8.98008 23.2046 9.60161 23.2046H27.7293C27.9178 23.2063 28.1034 23.158 28.2672 23.0647C28.4311 22.9714 28.5672 22.8364 28.662 22.6733C28.7567 22.5103 28.8065 22.3252 28.8065 22.1366C28.8064 21.9481 28.7564 21.763 28.6616 21.6L26.4339 17.7154C26.3315 17.5605 26.1934 17.4325 26.0311 17.3423C25.8688 17.252 25.6872 17.2022 25.5016 17.1969H9.60161C9.31364 17.1985 9.03792 17.3137 8.83428 17.5173C8.63065 17.7209 8.51554 17.9966 8.51392 18.2846V20.46C8.51751 20.6038 8.49183 20.7469 8.43844 20.8805C8.38505 21.014 8.30506 21.1354 8.20333 21.2371C8.10161 21.3388 7.98027 21.4188 7.84668 21.4722C7.71309 21.5256 7.57005 21.5513 7.42623 21.5477H0.79546C0.735299 20.9278 0.70091 20.3058 0.692383 19.6831V19.0092H7.37392C7.51774 19.0128 7.66078 18.9871 7.79437 18.9337C7.92796 18.8804 8.0493 18.8004 8.15103 18.6986C8.25275 18.5969 8.33274 18.4756 8.38613 18.342C8.43952 18.2084 8.4652 18.0654 8.46161 17.9215V15.7462C8.45802 15.6023 8.48371 15.4593 8.5371 15.3257C8.59049 15.1921 8.67048 15.0708 8.7722 14.969C8.87393 14.8673 8.99527 14.7873 9.12886 14.7339C9.26244 14.6806 9.40549 14.6549 9.54931 14.6585H22.7047C22.8932 14.6601 23.0788 14.6119 23.2426 14.5185C23.4064 14.4252 23.5426 14.2902 23.6373 14.1272C23.732 13.9642 23.7819 13.779 23.7819 13.5905C23.7818 13.4019 23.7318 13.2168 23.637 13.0538L21.4616 9.11539C21.359 8.96078 21.2208 8.83311 21.0585 8.74314C20.8963 8.65318 20.7148 8.60356 20.5293 8.59846H9.60161C9.3139 8.60007 9.03841 8.71498 8.83482 8.91828C8.63123 9.12158 8.51594 9.39691 8.51392 9.68462V11.8615C8.51751 12.0054 8.49183 12.1484 8.43844 12.282C8.38505 12.4156 8.30506 12.5369 8.20333 12.6386C8.10161 12.7404 7.98027 12.8204 7.84668 12.8737C7.71309 12.9271 7.57005 12.9528 7.42623 12.9492H1.88469C2.19546 12.0692 2.557 11.2415 3.02315 10.4108H7.42623C7.56991 10.4144 7.71283 10.3887 7.84631 10.3354C7.97979 10.2821 8.10106 10.2023 8.20277 10.1007C8.30447 9.99915 8.38449 9.878 8.43798 9.74459C8.49146 9.61118 8.5173 9.4683 8.51392 9.32462V7.14769C8.51392 6.57846 8.98008 6.06 9.60161 6.06H17.837C18.0257 6.06183 18.2116 6.0136 18.3756 5.9202C18.5397 5.82681 18.676 5.6916 18.7708 5.52836C18.8655 5.36511 18.9153 5.17966 18.9151 4.9909C18.9148 4.80215 18.8645 4.61683 18.7693 4.45385L16.5416 0.569231C16.4893 0.518462 16.4893 0.466154 16.4385 0.415385C17.6816 0.153846 19.0278 0 20.3739 0C31.1478 0 39.9524 8.75385 39.9524 19.5785Z" fill="#F46C31"/>
<path d="M53.0554 31.8534H48.86L58.5969 6.78418H64.3969L74.1861 31.8534H69.7846L63.2061 15.0719L61.6015 10.4103H61.2908L59.6323 15.0719L53.0554 31.8534ZM69.4215 25.3273H53.7292V21.7534H69.4215V25.3273ZM84.3384 32.215C81.5923 32.215 79.5723 31.6965 78.1738 30.6088C76.7754 29.5211 76.1031 27.8642 76.1031 25.638V25.5334H80.0384V26.2073C80.0384 26.8811 80.1431 27.398 80.4015 27.8134C80.66 28.2273 81.0754 28.5365 81.7477 28.6934C82.3692 28.8473 83.3015 28.9519 84.4415 28.9519C85.4261 28.9519 86.2031 28.8996 86.72 28.7457C87.2384 28.5903 87.5492 28.3826 87.7569 28.0719C87.9108 27.7611 88.0154 27.398 88.0154 26.9334C88.0154 26.1549 87.7569 25.638 87.2384 25.3273C86.72 25.0165 85.7877 24.758 84.3892 24.498L81.4892 23.9288C80.4827 23.7593 79.506 23.4453 78.5892 22.9965C77.8159 22.5942 77.1701 21.9842 76.7246 21.235C76.2584 20.458 76.0507 19.578 76.0507 18.4903C76.0507 16.8319 76.7246 15.4857 78.0707 14.4503C79.4169 13.4134 81.2815 12.8965 83.7169 12.8965C85.2184 12.8965 86.5138 13.1549 87.6523 13.6211C88.7907 14.0873 89.6723 14.8119 90.3984 15.7442C91.0707 16.6765 91.4338 17.8673 91.4338 19.318V19.6811H87.5492V19.2149C87.5492 18.5934 87.4461 18.0765 87.2384 17.6611C87.0308 17.2457 86.6692 16.8842 86.1 16.6257C85.5292 16.3657 84.7 16.2626 83.6123 16.2626C82.1631 16.2626 81.1784 16.4703 80.66 16.8319C80.1431 17.1949 79.9354 17.7642 79.9354 18.5411C79.9354 19.2149 80.1431 19.7334 80.6092 20.0442C81.0231 20.3549 81.9031 20.6134 83.2508 20.8719L86.4092 21.4934C87.6015 21.7011 88.6369 22.0626 89.4138 22.5303C90.2415 22.9965 90.8646 23.5657 91.2784 24.2903C91.6938 25.0165 91.9 25.8965 91.9 26.9319C91.9 28.6411 91.2261 29.9873 89.9308 30.9719C88.5338 31.7488 86.72 32.215 84.3384 32.215ZM102.88 32.215C100.135 32.215 98.1154 31.6965 96.7169 30.6088C95.3184 29.5211 94.6461 27.8642 94.6461 25.638V25.5334H98.5815V26.2073C98.5815 26.8811 98.6846 27.398 98.9446 27.8134C99.2031 28.2273 99.6169 28.5365 100.291 28.6934C100.912 28.8473 101.845 28.9519 102.983 28.9519C103.968 28.9519 104.745 28.8996 105.263 28.7457C105.782 28.5903 106.143 28.3826 106.298 28.0719C106.454 27.7611 106.558 27.398 106.558 26.9334C106.558 26.1549 106.298 25.638 105.782 25.3273C105.263 25.0165 104.331 24.758 102.932 24.498L100.032 23.9288C99.0252 23.7595 98.0479 23.4455 97.1307 22.9965C96.3031 22.5811 95.7338 22.0119 95.2661 21.235C94.8 20.5103 94.5938 19.578 94.5938 18.4903C94.5938 16.8319 95.2677 15.4857 96.6138 14.4503C97.96 13.4134 99.8246 12.8965 102.26 12.8965C103.762 12.8965 105.055 13.1549 106.195 13.6211C107.292 14.0561 108.243 14.7921 108.94 15.7442C109.614 16.6765 109.977 17.8673 109.977 19.318V19.6811H106.092V19.2149C106.092 18.5934 105.988 18.0765 105.782 17.6611C105.574 17.2457 105.212 16.8842 104.642 16.6257C104.072 16.3657 103.243 16.2626 102.155 16.2626C100.705 16.2626 99.7215 16.4703 99.2031 16.8319C98.6846 17.1949 98.4784 17.7642 98.4784 18.5411C98.4784 19.2149 98.6846 19.7334 99.1507 20.0442C99.5661 20.3549 100.446 20.6134 101.792 20.8719L104.952 21.4934C106.143 21.7011 107.18 22.0626 107.957 22.5303C108.734 22.9965 109.406 23.5657 109.822 24.2903C110.235 25.0165 110.443 25.8965 110.443 26.9319C110.443 28.6411 109.769 29.9873 108.474 30.9719C107.075 31.7488 105.212 32.215 102.88 32.215ZM121.837 32.215C119.765 32.215 118.108 31.7996 116.76 30.9719C115.44 30.1729 114.407 28.9761 113.809 27.5534C113.135 26.1042 112.825 24.4457 112.825 22.478C112.825 20.5611 113.188 18.8519 113.912 17.4011C114.637 15.9519 115.674 14.8119 117.02 14.0349C118.366 13.2073 119.972 12.8442 121.785 12.8442C123.442 12.8442 124.945 13.1549 126.188 13.7765C127.428 14.3889 128.469 15.3406 129.191 16.5211C129.917 17.7134 130.278 19.1626 130.278 20.9242C130.278 21.3903 130.278 21.8565 130.228 22.3226C130.175 22.7888 130.123 23.1519 130.072 23.4611H114.637V20.7165H126.757L126.342 21.0796C126.446 19.9411 126.342 19.0073 126.032 18.2826C125.694 17.5812 125.128 17.0151 124.426 16.6765C123.702 16.3149 122.769 16.1596 121.682 16.1596C119.712 16.1596 118.366 16.6765 117.642 17.6611C116.917 18.6457 116.554 20.0442 116.554 21.7534V22.8411C116.554 24.0842 116.708 25.118 117.02 25.9996C117.331 26.8811 117.848 27.5026 118.625 27.9165C119.403 28.3319 120.491 28.538 121.837 28.538C123.391 28.538 124.529 28.278 125.151 27.8119C125.825 27.2949 126.135 26.6734 126.135 25.8442V25.5334H130.123V25.8965C130.123 27.1903 129.762 28.2796 129.088 29.2119C128.414 30.1426 127.431 30.8688 126.188 31.3857C124.945 31.9042 123.546 32.215 121.837 32.215ZM144.885 16.6257H132.143V13.2611H144.885V16.6257ZM141.518 31.8534C139.446 31.8534 137.892 31.438 136.805 30.558C135.717 29.678 135.198 28.2273 135.198 26.1042V13.6211L136.131 8.59803H139.188V25.8965C139.188 26.8811 139.446 27.5026 139.911 27.7611C140.378 28.0196 141.311 28.1765 142.554 28.1765H144.782V31.4903C144.418 31.5426 143.9 31.6457 143.331 31.698C142.762 31.7503 142.192 31.8534 141.518 31.8534ZM151.358 31.8534H147.631V6.78418H151.671V26.9319L151.309 27.398V31.8534H151.358ZM157.782 32.215C156.175 32.215 154.829 31.9042 153.792 31.2826C152.757 30.6611 151.98 29.8334 151.515 28.6934H150.789L150.995 24.1873H151.722C151.722 25.2226 151.929 26.0519 152.291 26.7765C152.654 27.4503 153.275 27.9688 154 28.2796C154.777 28.5903 155.657 28.7457 156.745 28.7457C157.626 28.7457 158.403 28.6411 159.025 28.3826C159.646 28.1242 160.215 27.8134 160.629 27.295C161.045 26.8288 161.355 26.1565 161.562 25.378C161.769 24.6011 161.822 23.618 161.822 22.478C161.822 21.3396 161.717 20.3549 161.562 19.578C161.355 18.8011 161.095 18.1273 160.682 17.6611C160.264 17.1845 159.728 16.8272 159.128 16.6257C158.375 16.3797 157.588 16.2571 156.797 16.2626C155.709 16.2626 154.829 16.418 154.052 16.7288C153.321 17.0079 152.714 17.5409 152.343 18.2303C151.98 18.9042 151.774 19.7842 151.774 20.8211H151.048L150.84 16.1596H151.877C152.292 15.3303 153.015 14.5534 154.103 13.8811C155.14 13.2073 156.486 12.8442 158.195 12.8442C160.734 12.8442 162.649 13.7257 163.997 15.4857C165.343 17.2473 165.965 19.578 165.965 22.5303C165.965 25.4826 165.291 27.8134 163.892 29.5734C162.391 31.3349 160.423 32.215 157.782 32.215ZM174.2 32.215C172.491 32.215 171.092 31.7996 169.952 30.9211C168.814 30.0903 168.243 28.8488 168.243 27.1919C168.243 26.1549 168.503 25.3273 168.969 24.6011C169.435 23.8765 170.16 23.3073 171.092 22.8934C172.162 22.4165 173.296 22.1018 174.458 21.9596L181.348 20.9749V23.8765L175.08 24.7565C173.992 24.9119 173.268 25.1719 172.854 25.4826C172.438 25.7934 172.232 26.2596 172.232 26.9842C172.232 27.7088 172.491 28.2273 173.009 28.5903C173.526 28.9519 174.355 29.1073 175.546 29.1073C176.442 29.096 177.332 28.9561 178.188 28.6919C179.017 28.3826 179.742 27.9165 180.26 27.1919C180.778 26.518 181.089 25.5334 181.089 24.2903L181.606 29.0565L181.037 29.0042C180.674 29.5734 180.208 30.0919 179.586 30.6088C178.965 31.1273 178.188 31.4903 177.36 31.8011C176.329 32.0765 175.267 32.2146 174.2 32.215ZM184.817 31.8519H181.089V28.1749L180.985 27.1396V19.9919C180.985 18.5934 180.674 17.6611 180.002 17.1426C179.328 16.6257 178.292 16.4196 176.789 16.4196C175.34 16.4196 174.252 16.6765 173.631 17.1949C173.009 17.7134 172.698 18.5934 172.698 19.8365V20.4057H168.814V20.0442C168.814 18.6965 169.175 17.4534 169.849 16.3673C170.523 15.278 171.506 14.4503 172.749 13.8288C173.992 13.2073 175.443 12.8965 177.049 12.8965C178.758 12.8965 180.208 13.2073 181.348 13.8811C182.488 14.5534 183.368 15.4349 183.989 16.5734C184.611 17.7119 184.869 19.0596 184.869 20.6134V31.8534L184.817 31.8519ZM196.523 32.215C193.777 32.215 191.757 31.6965 190.358 30.6088C188.96 29.5211 188.288 27.8642 188.288 25.638V25.5334H192.223V26.2073C192.223 26.8811 192.328 27.398 192.586 27.8134C192.845 28.2273 193.26 28.5365 193.932 28.6934C194.554 28.8473 195.486 28.9519 196.626 28.9519C197.611 28.9519 198.388 28.8996 198.905 28.7457C199.423 28.5903 199.734 28.3826 199.942 28.0719C200.095 27.7611 200.2 27.398 200.2 26.9334C200.2 26.1549 199.942 25.638 199.423 25.3273C198.905 25.0165 197.972 24.758 196.574 24.498L193.674 23.9288C192.667 23.7596 191.69 23.4456 190.774 22.9965C190.001 22.5942 189.355 21.9841 188.909 21.235C188.443 20.458 188.235 19.578 188.235 18.4903C188.235 16.8319 188.909 15.4857 190.255 14.4503C191.602 13.4134 193.466 12.8965 195.902 12.8965C197.403 12.8965 198.698 13.1549 199.837 13.6211C200.977 14.0873 201.857 14.8119 202.581 15.7442C203.255 16.6765 203.618 17.8673 203.618 19.318V19.6811H199.734V19.2149C199.734 18.5934 199.631 18.0765 199.423 17.6611C199.215 17.2457 198.854 16.8842 198.283 16.6257C197.714 16.3657 196.885 16.2626 195.797 16.2626C194.348 16.2626 193.363 16.4703 192.845 16.8319C192.328 17.1949 192.12 17.7642 192.12 18.5411C192.12 19.2149 192.328 19.7334 192.794 20.0442C193.208 20.3549 194.088 20.6134 195.435 20.8719L198.594 21.4934C199.786 21.7011 200.822 22.0626 201.598 22.5303C202.426 22.9965 203.048 23.5657 203.463 24.2903C203.877 25.0165 204.085 25.8965 204.085 26.9319C204.085 28.6411 203.411 29.9873 202.115 30.9719C200.717 31.7488 198.854 32.215 196.523 32.215ZM215.48 32.215C213.408 32.215 211.751 31.7996 210.403 30.9719C209.083 30.1733 208.049 28.9764 207.452 27.5534C206.778 26.1042 206.468 24.4457 206.468 22.478C206.468 20.5611 206.831 18.8519 207.555 17.4011C208.28 15.9519 209.315 14.8119 210.663 14.0349C212.009 13.2073 213.615 12.8442 215.428 12.8442C217.085 12.8442 218.588 13.1549 219.831 13.7765C221.071 14.3887 222.113 15.3404 222.834 16.5211C223.56 17.7134 223.922 19.1626 223.922 20.9242C223.922 21.3903 223.922 21.8565 223.871 22.3226C223.818 22.7888 223.766 23.1519 223.715 23.4611H208.28V20.7165H220.4L219.986 21.0796C220.089 19.9411 219.986 19.0073 219.675 18.2826C219.336 17.5815 218.77 17.0155 218.069 16.6765C217.345 16.3149 216.412 16.1596 215.325 16.1596C213.355 16.1596 212.009 16.6765 211.285 17.6611C210.558 18.6457 210.197 20.0442 210.197 21.7534V22.8411C210.197 24.0842 210.352 25.118 210.663 25.9996C210.974 26.8811 211.491 27.5026 212.268 27.9165C213.045 28.3319 214.132 28.538 215.48 28.538C217.034 28.538 218.172 28.278 218.794 27.8119C219.468 27.2949 219.778 26.6734 219.778 25.8442V25.5334H223.766V25.8965C223.766 27.1903 223.405 28.2796 222.731 29.2119C222.057 30.1426 221.074 30.8688 219.831 31.3857C218.588 31.9042 217.189 32.215 215.48 32.215Z" fill="black"/>
</svg>
