<svg width="75" height="40" viewBox="0 0 75 40" fill="none" xmlns="http://www.w3.org/2000/svg">
<g clip-path="url(#clip0_311_510)">
<mask id="mask0_311_510" style="mask-type:luminance" maskUnits="userSpaceOnUse" x="0" y="0" width="75" height="40">
<path d="M74.4444 0H0V39.1409H74.4444V0Z" fill="white"/>
</mask>
<g mask="url(#mask0_311_510)">
<path d="M30.0867 11.4419H33.7734C37.6029 5.09549 45.7811 1.45651 53.9907 2.37353C62.855 3.36819 69.1656 9.47198 70.1441 17.1308C70.463 16.3011 70.5959 16.4321 70.9148 15.6024C69.2961 7.9897 62.9589 1.15811 54.0028 0.151329C44.4547 -0.916106 33.6261 3.74907 30.0867 11.4419Z" fill="url(#paint0_linear_311_510)"/>
<path d="M36.2606 33.6482C36.7109 33.6482 37.0768 33.7761 37.3581 34.032C37.6446 34.2878 37.7879 34.6203 37.7879 35.0297V37.5777H37.3044V36.8716C37.1868 37.107 37.0051 37.2937 36.7595 37.4319C36.5139 37.57 36.2402 37.6391 35.9383 37.6391C35.5494 37.6391 35.2322 37.5342 34.9866 37.3245C34.7462 37.1147 34.626 36.8409 34.626 36.5032C34.626 36.1349 34.782 35.8483 35.0941 35.6437C35.4062 35.4339 35.8845 35.2958 36.5293 35.2292L37.3044 35.1525V35.045C37.3044 34.7535 37.2072 34.5231 37.0128 34.3543C36.8234 34.1803 36.5728 34.0933 36.2606 34.0933C35.9639 34.0933 35.7209 34.1752 35.5315 34.339C35.3422 34.5027 35.2296 34.7252 35.1939 35.0067L34.7258 34.9146C34.782 34.536 34.9509 34.2316 35.2322 34.0012C35.5136 33.7659 35.8564 33.6482 36.2606 33.6482ZM35.9766 37.194C36.3962 37.194 36.7211 37.0711 36.9514 36.8256C37.1868 36.58 37.3044 36.2346 37.3044 35.7895V35.5592L36.5446 35.636C35.6032 35.7383 35.1324 36.0275 35.1324 36.5032C35.1324 36.7079 35.2118 36.8742 35.3704 37.0021C35.529 37.13 35.7311 37.194 35.9766 37.194ZM39.1674 37.5777V34.1548H38.492V33.7097H39.1674V33.3106C39.1674 32.9115 39.262 32.6045 39.4513 32.3896C39.6406 32.1696 39.8888 32.0596 40.1958 32.0596C40.38 32.0596 40.5436 32.0775 40.687 32.1133L40.6716 32.5738C40.554 32.5278 40.4158 32.5047 40.2572 32.5047C40.0781 32.5047 39.9323 32.5712 39.8198 32.7042C39.7072 32.8373 39.6509 33.0138 39.6509 33.2338V33.7097H40.6793V34.1548H39.6509V37.5777H39.1674ZM43.6524 34.1855C43.499 34.1241 43.3301 34.0933 43.1459 34.0933C42.8082 34.0933 42.532 34.2673 42.3171 34.6152C42.1022 34.958 41.9948 35.4467 41.9948 36.0811V37.5777H41.5112V33.7097H41.9948V34.5308C42.1124 34.275 42.2863 34.0652 42.5166 33.9016C42.7469 33.7327 42.9822 33.6482 43.2226 33.6482C43.3915 33.6482 43.545 33.6712 43.6832 33.7173L43.6524 34.1855ZM44.3055 32.144H44.9041V32.8808H44.3055V32.144ZM44.3592 37.5777V33.7097H44.8428V37.5777H44.3592ZM47.6285 37.6391C47.0555 37.6391 46.595 37.4575 46.2471 37.0942C45.9043 36.7309 45.7329 36.2475 45.7329 35.6437C45.7329 35.0399 45.9043 34.5565 46.2471 34.1931C46.595 33.8299 47.0555 33.6482 47.6285 33.6482C48.0481 33.6482 48.4062 33.7608 48.703 33.9859C48.9998 34.2059 49.184 34.4976 49.2555 34.8609L48.7798 34.9607C48.7285 34.7048 48.5981 34.4976 48.3883 34.339C48.1785 34.1752 47.9253 34.0933 47.6285 34.0933C47.209 34.0933 46.8713 34.2341 46.6154 34.5155C46.3648 34.7969 46.2394 35.173 46.2394 35.6437C46.2394 36.1143 46.3648 36.4905 46.6154 36.7719C46.8713 37.0532 47.209 37.194 47.6285 37.194C47.9355 37.194 48.1913 37.1172 48.396 36.9637C48.6058 36.8051 48.7388 36.5826 48.7951 36.296L49.2709 36.3881C49.184 36.7821 48.9946 37.0891 48.703 37.3091C48.4113 37.5291 48.0532 37.6391 47.6285 37.6391ZM51.4976 33.6482C51.9479 33.6482 52.3136 33.7761 52.5951 34.032C52.8816 34.2878 53.0249 34.6203 53.0249 35.0297V37.5777H52.5413V36.8716C52.4236 37.107 52.2421 37.2937 51.9964 37.4319C51.7509 37.57 51.4771 37.6391 51.1753 37.6391C50.7864 37.6391 50.4692 37.5342 50.2236 37.3245C49.9831 37.1147 49.8629 36.8409 49.8629 36.5032C49.8629 36.1349 50.019 35.8483 50.3311 35.6437C50.6432 35.4339 51.1215 35.2958 51.7662 35.2292L52.5413 35.1525V35.045C52.5413 34.7535 52.4441 34.5231 52.2498 34.3543C52.0604 34.1803 51.8096 34.0933 51.4976 34.0933C51.2009 34.0933 50.9578 34.1752 50.7685 34.339C50.5792 34.5027 50.4666 34.7252 50.4309 35.0067L49.9626 34.9146C50.019 34.536 50.1878 34.2316 50.4692 34.0012C50.7506 33.7659 51.0934 33.6482 51.4976 33.6482ZM51.2136 37.194C51.6332 37.194 51.9581 37.0711 52.1883 36.8256C52.4236 36.58 52.5413 36.2346 52.5413 35.7895V35.5592L51.7815 35.636C50.8401 35.7383 50.3694 36.0275 50.3694 36.5032C50.3694 36.7079 50.4488 36.8742 50.6073 37.0021C50.766 37.13 50.9681 37.194 51.2136 37.194Z" fill="black"/>
<path d="M70.4921 27.0302C70.4872 26.6367 70.5991 26.2507 70.8133 25.9211C71.0275 25.5917 71.3345 25.3336 71.6952 25.1796C72.0559 25.0257 72.454 24.9829 72.8389 25.0567C73.2239 25.1306 73.5782 25.3176 73.857 25.5941C74.1359 25.8707 74.3264 26.2242 74.4048 26.6098C74.483 26.9953 74.4452 27.3957 74.2964 27.7597C74.1475 28.1237 73.8943 28.435 73.5688 28.6542C73.2433 28.8733 72.8602 28.9904 72.4683 28.9905C72.2092 28.9962 71.9517 28.9498 71.7108 28.8537C71.47 28.7576 71.2509 28.6138 71.0665 28.4309C70.8821 28.248 70.7362 28.0298 70.6375 27.7891C70.5389 27.5486 70.4894 27.2905 70.4921 27.0302Z" fill="black"/>
<path d="M42.6956 16.2906C40.4802 16.2906 38.4821 18.1391 38.4821 22.8407V28.6291H34.5488V12.8433H38.4821V15.7254C39.2625 13.9398 41.3233 12.5909 43.2272 12.5909C43.8076 12.5876 44.3855 12.6693 44.9425 12.8336L44.7009 16.6569C44.0634 16.402 43.3816 16.2775 42.6956 16.2906Z" fill="black"/>
<path d="M53.8384 16.2906C51.623 16.2906 49.625 18.1391 49.625 22.8407V28.6291H45.6917V12.8433H49.625V15.7254C50.4053 13.9398 52.4662 12.5909 54.37 12.5909C54.9505 12.5876 55.5283 12.6693 56.0853 12.8336L55.8438 16.6569C55.2063 16.402 54.5245 16.2775 53.8384 16.2906Z" fill="black"/>
<path d="M72.9489 12.8428L63.3598 37.3113L59.4435 37.287L63.0868 28.01L56.9695 12.8428H61.2458L65.022 22.9956L68.9215 12.8428H72.9489Z" fill="black"/>
<path d="M33.7831 28.6697L33.7517 12.8789H29.7991V14.6717C28.3832 13.4859 26.5907 12.8497 24.7472 12.8789C23.3518 12.8593 21.9763 13.2133 20.7623 13.9044C19.5483 14.5957 18.5397 15.599 17.8398 16.8114C17.1556 17.9847 16.7983 19.3212 16.8058 20.6809C16.8027 22.0511 17.1647 23.3971 17.8543 24.5794C18.5494 25.7923 19.5491 26.8011 20.7536 27.5052C21.9874 28.2389 23.3978 28.6198 24.8318 28.6066C25.7404 28.6183 26.6429 28.4536 27.4893 28.1213C28.323 27.7776 29.0982 27.3053 29.787 26.7216V28.6623L33.7831 28.6697ZM24.624 24.6571C23.806 24.6586 23.006 24.4162 22.3251 23.9609C21.6443 23.5056 21.1133 22.8577 20.7994 22.0991C20.4856 21.3407 20.4028 20.5058 20.5617 19.7C20.7206 18.8942 21.1139 18.154 21.692 17.5728C22.2701 16.9917 23.0069 16.5958 23.8091 16.4353C24.6113 16.2749 25.4429 16.357 26.1987 16.6713C26.9544 16.9857 27.6002 17.518 28.0546 18.2011C28.5088 18.8842 28.751 19.6872 28.7506 20.5087C28.7499 21.6078 28.3151 22.6619 27.5414 23.4396C26.7679 24.2173 25.7187 24.6551 24.624 24.6571Z" fill="black"/>
<path d="M0 20.6041C0 15.7715 3.32926 12.4043 8.10329 12.4043C12.3433 12.4043 15.2958 14.5489 15.7982 18.0495L11.3383 18.9253C11.0967 17.3484 9.92496 16.3392 8.29173 16.3392C6.11733 16.3392 4.74262 18.0107 4.74262 20.5969C4.74262 23.183 6.15599 24.8544 8.29173 24.8544C9.92496 24.8544 10.9493 23.9083 11.2756 22.4575L15.7669 23.3722C15.2016 26.7152 12.2806 28.7966 8.10329 28.7966C3.32926 28.804 0 25.4294 0 20.6041Z" fill="black"/>
</g>
</g>
<defs>
<linearGradient id="paint0_linear_311_510" x1="60.8546" y1="18.8848" x2="40.1392" y2="2.52461" gradientUnits="userSpaceOnUse">
<stop stop-color="white" stop-opacity="0"/>
<stop offset="1" stop-color="#1AAE57"/>
</linearGradient>
<clipPath id="clip0_311_510">
<rect width="74.4444" height="40" fill="white"/>
</clipPath>
</defs>
</svg>
