<svg width="240" height="32" viewBox="0 0 240 32" fill="none" xmlns="http://www.w3.org/2000/svg">
<path d="M5.77333 29.8581H0L10.5115 0H17.1888L27.7148 29.8581H21.9416L13.9668 6.12322H13.7335L5.77333 29.8581ZM5.96286 18.151H21.7082V22.4956H5.96286V18.151Z" fill="#030303"/>
<path d="M38.8586 30.2953C36.6231 30.2953 34.7035 29.8046 33.0999 28.8229C31.5059 27.8413 30.2764 26.4854 29.4114 24.7553C28.5561 23.0155 28.1284 21.0132 28.1284 18.7487C28.1284 16.4743 28.5657 14.4673 29.4404 12.7275C30.3153 10.978 31.5496 9.61729 33.1436 8.64534C34.7473 7.66369 36.6427 7.17285 38.8294 7.17285C40.647 7.17285 42.2555 7.50817 43.6552 8.17882C45.0645 8.83973 46.187 9.77765 47.0229 10.9926C47.8589 12.1978 48.3351 13.6071 48.4516 15.2205H43.4073C43.2032 14.1417 42.7172 13.2426 41.9494 12.5234C41.1912 11.7944 40.1757 11.43 38.9023 11.43C37.8235 11.43 36.8759 11.7215 36.0593 12.3047C35.243 12.8782 34.6063 13.7043 34.1495 14.7831C33.7024 15.862 33.479 17.1547 33.479 18.6612C33.479 20.1872 33.7024 21.4992 34.1495 22.5976C34.5966 23.6862 35.2236 24.5268 36.0303 25.1198C36.8467 25.7029 37.8041 25.9945 38.9023 25.9945C39.6799 25.9945 40.3748 25.8488 40.9871 25.557C41.6093 25.2558 42.1292 24.8233 42.5471 24.2595C42.9651 23.6959 43.2518 23.0106 43.4073 22.204H48.4516C48.3253 23.7882 47.8589 25.1926 47.0521 26.4173C46.2453 27.6321 45.1471 28.5848 43.7572 29.2749C42.3673 29.9551 40.7345 30.2953 38.8586 30.2953Z" fill="#030303"/>
<path d="M60.9111 30.2953C58.6756 30.2953 56.756 29.8046 55.1524 28.8229C53.5584 27.8413 52.3289 26.4854 51.4637 24.7553C50.6086 23.0155 50.1809 21.0132 50.1809 18.7487C50.1809 16.4743 50.6182 14.4673 51.4929 12.7275C52.3676 10.978 53.6021 9.61729 55.1961 8.64534C56.7998 7.66369 58.695 7.17285 60.8819 7.17285C62.6995 7.17285 64.308 7.50817 65.7077 8.17882C67.117 8.83973 68.2395 9.77765 69.0754 10.9926C69.9112 12.1978 70.3874 13.6071 70.5041 15.2205H65.4598C65.2557 14.1417 64.7697 13.2426 64.0019 12.5234C63.2437 11.7944 62.228 11.43 60.9547 11.43C59.876 11.43 58.9284 11.7215 58.1118 12.3047C57.2955 12.8782 56.6588 13.7043 56.202 14.7831C55.7549 15.862 55.5313 17.1547 55.5313 18.6612C55.5313 20.1872 55.7549 21.4992 56.202 22.5976C56.649 23.6862 57.2761 24.5268 58.0826 25.1198C58.8992 25.7029 59.8566 25.9945 60.9547 25.9945C61.7323 25.9945 62.4273 25.8488 63.0396 25.557C63.6618 25.2558 64.1817 24.8233 64.5995 24.2595C65.0176 23.6959 65.3043 23.0106 65.4598 22.204H70.5041C70.3778 23.7882 69.9112 25.1926 69.1046 26.4173C68.2978 27.6321 67.1994 28.5848 65.8097 29.2749C64.4198 29.9551 62.7868 30.2953 60.9111 30.2953Z" fill="#030303"/>
<path d="M82.9636 30.2953C80.7766 30.2953 78.8815 29.8141 77.2777 28.8521C75.674 27.8898 74.4299 26.5436 73.5454 24.8135C72.6707 23.0836 72.2334 21.062 72.2334 18.7487C72.2334 16.4355 72.6707 14.409 73.5454 12.6692C74.4299 10.9294 75.674 9.5784 77.2777 8.61618C78.8815 7.65396 80.7766 7.17285 82.9636 7.17285C85.1505 7.17285 87.0456 7.65396 88.6494 8.61618C90.2532 9.5784 91.4923 10.9294 92.367 12.6692C93.2516 14.409 93.6937 16.4355 93.6937 18.7487C93.6937 21.062 93.2516 23.0836 92.367 24.8135C91.4923 26.5436 90.2532 27.8898 88.6494 28.8521C87.0456 29.8141 85.1505 30.2953 82.9636 30.2953ZM82.9927 26.0673C84.1784 26.0673 85.1699 25.7419 85.9669 25.0906C86.7638 24.4297 87.3568 23.5452 87.7455 22.4372C88.144 21.3293 88.3433 20.0948 88.3433 18.7341C88.3433 17.3636 88.144 16.1244 87.7455 15.0164C87.3568 13.8987 86.7638 13.0094 85.9669 12.3484C85.1699 11.6875 84.1784 11.3571 82.9927 11.3571C81.7779 11.3571 80.767 11.6875 79.9603 12.3484C79.1633 13.0094 78.5654 13.8987 78.1669 15.0164C77.7782 16.1244 77.5838 17.3636 77.5838 18.7341C77.5838 20.0948 77.7782 21.3293 78.1669 22.4372C78.5654 23.5452 79.1633 24.4297 79.9603 25.0906C80.767 25.7419 81.7779 26.0673 82.9927 26.0673Z" fill="#030303"/>
<path d="M110.804 20.4402V7.46484H116.082V29.8584H110.964V25.8782H110.731C110.226 27.132 109.395 28.1575 108.238 28.9545C107.091 29.7515 105.677 30.15 103.995 30.15C102.528 30.15 101.23 29.8243 100.103 29.173C98.9852 28.5121 98.1105 27.5548 97.4786 26.3011C96.8469 25.0375 96.531 23.5115 96.531 21.7233V7.46484H101.809V20.9067C101.809 22.3258 102.197 23.4533 102.975 24.2891C103.752 25.125 104.773 25.5429 106.037 25.5429C106.814 25.5429 107.567 25.3534 108.296 24.9743C109.025 24.5953 109.623 24.0316 110.09 23.2832C110.566 22.5251 110.804 21.5774 110.804 20.4402Z" fill="#030303"/>
<path d="M125.144 16.7367V29.858H119.867V7.46445H124.911V11.2696H125.173C125.689 10.0158 126.51 9.01955 127.637 8.28088C128.774 7.54219 130.179 7.17285 131.851 7.17285C133.396 7.17285 134.742 7.50332 135.889 8.16423C137.045 8.82516 137.94 9.78253 138.572 11.0363C139.213 12.2901 139.529 13.8112 139.519 15.5996V29.858H134.242V16.416C134.242 14.9192 133.853 13.748 133.075 12.9025C132.307 12.0569 131.243 11.6341 129.882 11.6341C128.959 11.6341 128.138 11.8382 127.419 12.2464C126.709 12.6449 126.15 13.2232 125.742 13.9813C125.343 14.7394 125.144 15.6579 125.144 16.7367Z" fill="#030303"/>
<path d="M154.424 7.46473V11.5469H141.551V7.46473H154.424ZM144.729 2.09961H150.007V23.1227C150.007 23.8321 150.114 24.3765 150.327 24.7556C150.551 25.1249 150.842 25.3775 151.202 25.5136C151.562 25.6497 151.96 25.7177 152.398 25.7177C152.728 25.7177 153.029 25.6934 153.302 25.6448C153.583 25.5963 153.797 25.5526 153.943 25.5136L154.832 29.6396C154.551 29.7367 154.147 29.8436 153.622 29.9603C153.107 30.0768 152.475 30.145 151.727 30.1644C150.405 30.2033 149.215 30.004 148.155 29.5667C147.096 29.1195 146.255 28.4294 145.633 27.4965C145.021 26.5634 144.719 25.3971 144.729 23.9974V2.09961Z" fill="#030303"/>
<path d="M166.869 30.2953C164.624 30.2953 162.685 29.8288 161.052 28.8958C159.429 27.9529 158.18 26.6213 157.305 24.901C156.43 23.1709 155.993 21.1348 155.993 18.7924C155.993 16.4889 156.43 14.4673 157.305 12.7275C158.19 10.978 159.424 9.61729 161.008 8.64534C162.592 7.66369 164.454 7.17285 166.592 7.17285C167.972 7.17285 169.275 7.3964 170.499 7.8435C171.734 8.28086 172.822 8.96124 173.765 9.88457C174.717 10.8079 175.466 11.984 176.01 13.4127C176.554 14.8317 176.826 16.5229 176.826 18.4862V20.1046H158.471V16.5472H171.768C171.758 15.5364 171.539 14.6374 171.111 13.8501C170.684 13.0531 170.086 12.4262 169.318 11.9694C168.56 11.5126 167.676 11.2842 166.665 11.2842C165.586 11.2842 164.638 11.5466 163.822 12.0714C163.005 12.5866 162.369 13.2669 161.912 14.1125C161.465 14.9484 161.237 15.8669 161.227 16.868V19.9734C161.227 21.2758 161.465 22.3935 161.941 23.3264C162.418 24.2499 163.083 24.9594 163.939 25.455C164.794 25.941 165.795 26.184 166.942 26.184C167.71 26.184 168.405 26.0771 169.027 25.8633C169.649 25.6397 170.188 25.3142 170.645 24.8865C171.102 24.4589 171.447 23.9292 171.68 23.2973L176.608 23.8514C176.297 25.1538 175.704 26.291 174.829 27.2628C173.964 28.2251 172.856 28.9735 171.505 29.5081C170.154 30.0329 168.609 30.2953 166.869 30.2953Z" fill="#030303"/>
<path d="M189.562 30.2953C187.318 30.2953 185.379 29.8288 183.746 28.8958C182.123 27.9529 180.874 26.6213 179.999 24.901C179.124 23.1709 178.687 21.1348 178.687 18.7924C178.687 16.4889 179.124 14.4673 179.999 12.7275C180.884 10.978 182.118 9.61729 183.702 8.64534C185.287 7.66369 187.148 7.17285 189.286 7.17285C190.665 7.17285 191.968 7.3964 193.193 7.8435C194.428 8.28086 195.516 8.96124 196.459 9.88457C197.412 10.8079 198.159 11.984 198.705 13.4127C199.249 14.8317 199.52 16.5229 199.52 18.4862V20.1046H181.166V16.5472H194.462C194.453 15.5364 194.232 14.6374 193.805 13.8501C193.378 13.0531 192.779 12.4262 192.013 11.9694C191.255 11.5126 190.37 11.2842 189.359 11.2842C188.28 11.2842 187.332 11.5466 186.516 12.0714C185.7 12.5866 185.063 13.2669 184.606 14.1125C184.159 14.9484 183.931 15.8669 183.921 16.868V19.9734C183.921 21.2758 184.159 22.3935 184.635 23.3264C185.111 24.2499 185.777 24.9594 186.633 25.455C187.488 25.941 188.489 26.184 189.636 26.184C190.404 26.184 191.098 26.0771 191.721 25.8633C192.343 25.6397 192.883 25.3142 193.338 24.8865C193.796 24.4589 194.14 23.9292 194.374 23.2973L199.302 23.8514C198.991 25.1538 198.398 26.291 197.523 27.2628C196.659 28.2251 195.55 28.9735 194.199 29.5081C192.849 30.0329 191.303 30.2953 189.562 30.2953Z" fill="#030303"/>
<path d="M202.344 29.8579V7.46431H207.46V11.1966H207.693C208.102 9.90387 208.802 8.90764 209.794 8.20784C210.793 7.49832 211.936 7.14355 213.22 7.14355C213.512 7.14355 213.837 7.15814 214.197 7.1873C214.566 7.20675 214.872 7.24076 215.115 7.28934V12.1442C214.891 12.0664 214.535 11.9984 214.05 11.9401C213.574 11.872 213.112 11.838 212.664 11.838C211.703 11.838 210.839 12.047 210.071 12.4649C209.312 12.8732 208.715 13.4417 208.277 14.1707C207.84 14.8996 207.622 15.7404 207.622 16.6929V29.8579H202.344Z" fill="#030303"/>
<path fill-rule="evenodd" clip-rule="evenodd" d="M237.991 29.9473H215.998V24.8154H237.991V29.9473Z" fill="#398AFA"/>
</svg>
