<svg width="32" height="80" viewBox="0 0 32 80" fill="none" xmlns="http://www.w3.org/2000/svg">
<g clip-path="url(#clip0_298_12952)">
<path fill-rule="evenodd" clip-rule="evenodd" d="M0 28.9288V30.9355C0 35.8701 2.46445 40.4787 6.56845 43.2187L9.89011 45.4364C13.5369 47.8711 14.5194 52.8011 12.0847 56.4479C11.5047 57.3167 10.7589 58.0625 9.89011 58.6425L6.56845 60.8602C2.46445 63.6002 0 68.2088 0 73.1434L0 75.1501C0 77.7098 2.07503 79.7848 4.63471 79.7848C5.72009 79.7848 6.77104 79.4039 7.60434 78.7085L25.9732 63.3787C32.2357 58.1523 33.0756 48.8387 27.8493 42.5763C27.2815 41.8959 26.6536 41.268 25.9732 40.7002L7.60434 25.3704C5.63912 23.7303 2.71644 23.9939 1.07636 25.9591C0.380923 26.7925 0 27.8434 0 28.9288Z" fill="#276DF7"/>
<path fill-rule="evenodd" clip-rule="evenodd" d="M13.4171 30.2217L25.9732 40.7004C26.0865 40.7949 26.1984 40.8912 26.3087 40.989C26.1987 41.0865 26.0868 41.1826 25.9732 41.2775L13.4166 51.7566C13.3268 49.2944 12.0957 46.9091 9.89011 45.4366L6.56845 43.2189C5.60064 42.5727 4.724 41.8227 3.94936 40.9889C4.724 40.1552 5.60064 39.4051 6.56845 38.7589L9.89011 36.5413C10.7589 35.9612 11.5047 35.2155 12.0847 34.3467C12.9341 33.0744 13.3676 31.6459 13.4171 30.2217Z" fill="#094DD6"/>
<path fill-rule="evenodd" clip-rule="evenodd" d="M0 4.62994V6.63667C0 11.5713 2.46445 16.1799 6.56845 18.9199L9.89011 21.1376C13.5369 23.5723 14.5194 28.5023 12.0847 32.1491C11.5047 33.0178 10.7589 33.7636 9.89011 34.3437L6.56845 36.5613C2.46445 39.3013 0 43.9099 0 48.8445L0 50.8513C0 53.4109 2.07503 55.486 4.63471 55.486C5.72009 55.486 6.77104 55.1051 7.60434 54.4096L25.9732 39.0798C32.2357 33.8535 33.0756 24.5399 27.8493 18.2774C27.2815 17.5971 26.6536 16.9692 25.9732 16.4014L7.60434 1.07159C5.63912 -0.568488 2.71644 -0.304908 1.07636 1.66032C0.380923 2.49362 0 3.54457 0 4.62994Z" fill="#79C5F5"/>
</g>
<defs>
<clipPath id="clip0_298_12952">
<rect width="31.4286" height="80" fill="white"/>
</clipPath>
</defs>
</svg>
