<svg width="149" height="40" viewBox="0 0 149 40" fill="none" xmlns="http://www.w3.org/2000/svg">
<g clip-path="url(#clip0_291_3994)">
<path fill-rule="evenodd" clip-rule="evenodd" d="M145.478 20.6084C145.019 20.6084 144.549 20.6084 144.224 20.5665L148.582 0.109375H119.548L118.647 4.3504C117.611 4.18531 116.887 4.6085 116.667 5.2855C116.451 5.96195 115.673 8.8463 115.673 10.7445C115.673 13.7229 116.422 14.8145 116.422 14.8145L111.096 39.8858H140.126L143.633 23.3922C147.606 23.2557 148.72 22.0162 148.72 21.2919C148.72 20.2847 146.732 20.6084 145.478 20.6084Z" fill="#F0BD2D"/>
<path fill-rule="evenodd" clip-rule="evenodd" d="M132.45 18.3571C132.45 18.3571 137.627 23.5412 144.861 22.6567C147.481 22.3298 148.062 21.6388 147.98 21.3221C147.901 21.0177 147.004 21.1468 146.13 21.1828C145.624 21.2113 141.27 21.778 135.472 17.3719C133.215 16.7848 132.45 18.3571 132.45 18.3571ZM115.642 29.4116L121.336 27.436L129.22 33.0202L126.169 34.9313L130.677 38.6808L130.742 37.357L132.104 34.008L131.999 31.121L129.132 26.4643L129.687 24.4419L129.498 22.1738C122.086 22.1905 118.907 18.948 117.154 16.2927L114.433 29.232L115.642 29.4116ZM132.029 12.0619L130.4 10.5031L127.975 12.6244L132.029 12.0619ZM139.065 15.3017C139.554 16.2029 139.725 17.4472 139.867 19.3529C138.17 18.5775 135.328 16.29 135.328 16.29C132.093 15.6437 130.979 18.2339 130.979 18.2339L131.71 18.8835C131.434 20.1498 130.536 20.7886 130.536 20.7886C116.093 20.7886 116.409 11.7818 116.409 10.7445C116.409 8.84688 117.154 6.07492 117.391 5.46783C117.629 4.86612 118.716 5.06454 118.716 5.06454L125.781 6.09428L127.268 5.28017C127.268 5.28017 129.444 5.11831 131.815 5.7867C131.815 5.7867 135.461 8.83936 136.87 11.065L136.763 12.2184C136.763 12.2184 138.618 14.465 139.065 15.3017ZM137.632 33.0396C138.191 33.0396 138.576 32.7008 138.576 32.7008C138.633 31.87 138.442 31.4399 138.442 31.4399C137.773 31.6151 137.227 31.3785 137.154 30.6951C137.062 29.7772 139.137 25.7599 139.668 24.4199C139.876 23.8967 139.894 23.1498 139.894 23.1498C137.68 22.8422 135.766 21.6581 135.766 21.6581L135.981 23.0627C136.07 23.9246 134.952 28.491 135.181 30.743C135.181 30.743 135.374 33.0487 137.632 33.0396ZM121.248 32.425L121.232 28.4178L125.557 31.4533L124.3 37.6312L124.882 38.8303H119.665L119.073 37.6419L121.248 32.425Z" fill="#003B65"/>
<path fill-rule="evenodd" clip-rule="evenodd" d="M99.5076 29.6873C100.217 29.6873 100.705 29.9707 100.993 30.5525C101.281 31.1327 101.306 32.0038 101.075 33.161C100.947 33.7638 100.779 34.2913 100.563 34.7398C100.353 35.1866 100.109 35.5609 99.8302 35.8459C99.5544 36.1459 99.2559 36.3648 98.9306 36.5024C98.601 36.6508 98.2665 36.7154 97.9262 36.7154C97.7315 36.7154 97.5406 36.6912 97.3443 36.6541C97.1465 36.6089 96.9669 36.5653 96.8109 36.5024C96.6464 36.4444 96.5232 36.3841 96.4254 36.3212C96.3313 36.2556 96.2861 36.1997 96.2952 36.1551C96.3071 36.1352 96.3098 36.1115 96.3237 36.0873C96.3237 36.062 96.3404 36.0335 96.3668 36.0093L96.5996 35.6136C96.6249 35.5733 96.6636 35.5609 96.7104 35.5609C96.6985 35.5609 96.7346 35.5732 96.8168 35.5969C96.9131 35.6222 97.0174 35.6539 97.1577 35.6856C97.2938 35.7292 97.4449 35.7588 97.6008 35.777C97.7632 35.8039 97.9122 35.8174 98.0552 35.8174C98.2558 35.8174 98.4558 35.7738 98.6515 35.6915C98.8483 35.6136 99.0296 35.4668 99.1957 35.263C99.364 35.0678 99.5167 34.8054 99.6635 34.4725C99.8001 34.1397 99.9265 33.7278 100.028 33.2358C99.9265 33.4681 99.806 33.6482 99.6818 33.7966C99.5544 33.9386 99.4226 34.0542 99.2887 34.1397C99.1538 34.2225 99.0054 34.2795 98.8559 34.3139C98.7026 34.3526 98.5451 34.3591 98.387 34.3591C97.9998 34.3591 97.6939 34.2962 97.4524 34.1789C97.211 34.0542 97.0373 33.8929 96.9174 33.6778C96.7899 33.4745 96.7286 33.2299 96.7104 32.9572C96.6985 32.6738 96.7179 32.3797 96.7873 32.0608C96.8545 31.7307 96.9577 31.4279 97.0938 31.1354C97.2416 30.8477 97.4164 30.5929 97.6358 30.3848C97.8589 30.1659 98.1224 29.9992 98.4391 29.8761C98.7446 29.7416 99.1091 29.6873 99.5076 29.6873ZM94.027 29.6799C94.3883 29.6799 94.6959 29.7191 94.9368 29.8089C95.1809 29.8928 95.3734 30.01 95.5095 30.166C95.652 30.3187 95.7375 30.5047 95.7719 30.7161C95.8122 30.9333 95.7993 31.1763 95.7477 31.428C95.6837 31.7565 95.5337 32.0394 95.2955 32.2706C95.0632 32.5104 94.7378 32.704 94.3523 32.861C94.7663 33.0261 95.0631 33.252 95.2395 33.5579C95.4154 33.8521 95.4632 34.2225 95.3702 34.6527C95.2395 35.3243 94.9293 35.8276 94.4437 36.1847C93.9463 36.5385 93.3279 36.7079 92.5816 36.7079C91.8067 36.7079 91.255 36.531 90.9221 36.1772C90.5909 35.8201 90.5054 35.3087 90.6345 34.642C90.7232 34.2225 90.9146 33.8596 91.219 33.5579C91.512 33.252 91.9024 33.017 92.396 32.8476C92.0648 32.7094 91.8309 32.5196 91.6884 32.2948C91.5486 32.0609 91.5072 31.7727 91.5819 31.4312C91.6389 31.1763 91.7303 30.9419 91.8535 30.7187C91.9809 30.5047 92.1471 30.3187 92.3433 30.166C92.5504 30.01 92.7843 29.8928 93.066 29.8089C93.3408 29.7159 93.6629 29.6799 94.027 29.6799ZM78.2938 31.548C78.4599 31.548 78.6148 31.5641 78.7551 31.5959C78.9041 31.6254 79.0358 31.6636 79.1525 31.7158C79.2681 31.7567 79.373 31.812 79.4585 31.8658C79.5456 31.9212 79.6101 31.9723 79.6505 32.011C79.6806 32.0454 79.6967 32.0755 79.694 32.1072C79.6876 32.146 79.6623 32.1997 79.6085 32.2589L79.337 32.5568C79.3015 32.5885 79.2638 32.6089 79.2187 32.5987C79.1751 32.5987 79.1332 32.5885 79.0853 32.5821C79.0047 32.5509 78.8772 32.4971 78.7315 32.4358C78.5831 32.3713 78.4013 32.3455 78.1889 32.3455C77.9523 32.3455 77.7453 32.3906 77.5662 32.4939C77.3899 32.596 77.2355 32.7305 77.1065 32.8864C76.9807 33.0504 76.8785 33.2418 76.7951 33.4548C76.7113 33.672 76.643 33.8952 76.6026 34.1291C76.5516 34.3646 76.5279 34.5894 76.5188 34.8131C76.5053 35.0228 76.5381 35.2115 76.5967 35.3734C76.6613 35.5401 76.7543 35.6675 76.8952 35.7648C77.0269 35.8563 77.2189 35.9106 77.442 35.9106C77.6313 35.9106 77.8034 35.8772 77.9701 35.8278C78.1303 35.774 78.2906 35.7213 78.4529 35.675C78.5067 35.6465 78.5637 35.6433 78.6014 35.6433C78.6535 35.6433 78.6793 35.6584 78.6998 35.6912L78.8304 35.9912C78.8772 36.0842 78.8557 36.1649 78.781 36.2353C78.667 36.3343 78.4766 36.444 78.1873 36.5445C77.9055 36.651 77.5592 36.7048 77.149 36.7048C76.7113 36.7048 76.3612 36.6284 76.102 36.4892C75.8471 36.345 75.6584 36.1547 75.5342 35.9208C75.4154 35.6858 75.3557 35.4083 75.3417 35.0932C75.3417 34.7873 75.375 34.4544 75.4487 34.1194C75.5207 33.771 75.6267 33.4456 75.76 33.1343C75.8918 32.8208 76.0735 32.545 76.3026 32.3153C76.5188 32.0755 76.7951 31.8954 77.1226 31.7567C77.442 31.6201 77.8351 31.548 78.2938 31.548ZM82.6904 31.5511C82.9764 31.5538 83.2378 31.593 83.4733 31.6753C83.7115 31.7565 83.9051 31.8823 84.053 32.0533C84.203 32.2195 84.3051 32.4356 84.3546 32.69C84.4116 32.9497 84.3982 33.2417 84.3304 33.5837C84.2933 33.7633 84.2449 33.9208 84.1858 34.0364C84.1282 34.1564 84.047 34.2526 83.9513 34.3225C83.8524 34.3962 83.7314 34.4542 83.5975 34.4849C83.455 34.515 83.2856 34.5295 83.0958 34.5295H81.124C81.0955 34.7317 81.0912 34.9108 81.1057 35.0828C81.1181 35.2506 81.1589 35.3915 81.2331 35.5146C81.3009 35.6378 81.4025 35.741 81.5332 35.8039C81.6671 35.8771 81.8434 35.9104 82.0521 35.9104C82.2376 35.9104 82.4296 35.8878 82.6183 35.841C82.8135 35.7905 83.0238 35.741 83.2286 35.6749C83.3367 35.6437 83.3996 35.6313 83.4233 35.6437C83.4475 35.6587 83.4733 35.6749 83.4733 35.6915L83.6093 35.9916C83.662 36.0841 83.6384 36.1685 83.5582 36.2357C83.5034 36.2954 83.4179 36.3454 83.298 36.3987C83.1792 36.4589 83.0431 36.5083 82.8823 36.5535C82.7194 36.5955 82.5479 36.6283 82.3516 36.6595C82.1672 36.6912 81.9709 36.7046 81.7612 36.7046C81.3235 36.7046 80.967 36.6283 80.7062 36.4949C80.4454 36.3572 80.2502 36.1685 80.1303 35.9357C80.0071 35.7034 79.9426 35.4367 79.9351 35.1323C79.9265 34.8269 79.9603 34.5118 80.0222 34.1789C80.0894 33.8084 80.2018 33.4745 80.3475 33.1508C80.4868 32.8341 80.6744 32.5566 80.8917 32.3259C81.1057 32.0786 81.3654 31.8958 81.6579 31.7565C81.9607 31.6199 82.3021 31.5511 82.6904 31.5511ZM64.5364 29.6543C64.7461 29.6543 64.9574 29.6768 65.1596 29.7096C65.3715 29.7414 65.5678 29.7817 65.7371 29.8387C65.9124 29.8898 66.0592 29.9344 66.1759 29.9887C66.3034 30.0393 66.3786 30.0861 66.4131 30.1237C66.4405 30.1447 66.4566 30.1732 66.4507 30.2076C66.4464 30.2377 66.4281 30.2947 66.3786 30.371L66.1388 30.7652C66.1211 30.8012 66.0834 30.8222 66.0324 30.812C65.9872 30.8045 65.935 30.7953 65.8915 30.7803C65.8361 30.7652 65.7549 30.7442 65.6409 30.713C65.5328 30.6888 65.407 30.6663 65.2666 30.6453C65.1284 30.6227 64.9827 30.599 64.8365 30.5797C64.6848 30.5614 64.5423 30.5528 64.4106 30.5528C64.1573 30.5528 63.9352 30.5856 63.7659 30.6485C63.5873 30.713 63.4405 30.7953 63.3249 30.8926C63.2109 30.9932 63.1179 31.0916 63.0598 31.2061C63.0028 31.3158 62.9609 31.4282 62.941 31.5315C62.8974 31.7025 62.9173 31.8584 63.0028 32.003C63.0792 32.152 63.2771 32.2945 63.5723 32.4144L64.4267 32.7607C64.6768 32.8612 64.9021 32.9838 65.0698 33.1339C65.2484 33.2807 65.3844 33.4457 65.4914 33.6259C65.5882 33.8055 65.6473 33.991 65.6737 34.1953C65.7043 34.3964 65.7027 34.5997 65.6543 34.8126C65.6006 35.1041 65.4882 35.36 65.3204 35.5864C65.1435 35.8171 64.9365 36.0155 64.6832 36.1844C64.4326 36.3452 64.1433 36.4694 63.818 36.5532C63.4943 36.6511 63.1496 36.6914 62.7824 36.6914C62.5769 36.6914 62.3775 36.6721 62.1704 36.6404C61.9623 36.6086 61.7763 36.5683 61.5978 36.528C61.4182 36.4796 61.2622 36.4215 61.1364 36.3737C61.0057 36.3215 60.9175 36.264 60.8648 36.2279C60.8353 36.1908 60.8229 36.1575 60.8245 36.1258C60.8353 36.0978 60.8621 36.0451 60.9009 35.9779L61.1375 35.5821C61.1584 35.5445 61.2009 35.5278 61.2488 35.537C61.3025 35.5396 61.3477 35.5445 61.394 35.5655C61.4553 35.5821 61.5408 35.6106 61.6623 35.6316C61.7795 35.6585 61.9155 35.6854 62.0645 35.7004C62.2054 35.7289 62.3581 35.7467 62.5108 35.759C62.6716 35.7768 62.8152 35.7875 62.9609 35.7875C63.3792 35.7875 63.733 35.7079 64.0148 35.5547C64.3068 35.3918 64.4719 35.174 64.523 34.9105C64.5644 34.6857 64.5197 34.4846 64.3789 34.3169C64.2337 34.1459 64.0492 34.0109 63.832 33.9238L62.9711 33.5614C62.7614 33.4742 62.5743 33.3678 62.4059 33.2463C62.2382 33.129 62.0989 32.9871 61.9951 32.8344C61.8876 32.6741 61.8198 32.4972 61.7795 32.3047C61.7376 32.1074 61.751 31.8869 61.8005 31.6406C61.8666 31.3303 61.9817 31.0577 62.1495 30.812C62.3221 30.5614 62.535 30.3549 62.7824 30.1834C63.0329 30.0145 63.3039 29.8823 63.6024 29.7941C63.9051 29.7021 64.2127 29.6543 64.5364 29.6543ZM106.541 29.8086C106.66 29.8086 106.716 29.864 106.688 29.9888L105.83 34.1292H106.434C106.561 34.1292 106.615 34.1954 106.581 34.3228L106.486 34.7874C106.474 34.9165 106.396 34.9767 106.263 34.9767H105.66L105.36 36.414C105.323 36.5447 105.257 36.6055 105.133 36.6055H104.307C104.171 36.6055 104.119 36.5415 104.144 36.414L104.448 34.9767H101.678C101.554 34.9767 101.502 34.91 101.517 34.7874L101.539 34.696C101.562 34.6256 101.579 34.5702 101.599 34.5116C101.621 34.4546 101.659 34.4051 101.718 34.3529L105.565 29.9554C105.667 29.8538 105.78 29.8086 105.902 29.8086H106.541ZM90.1186 29.8479L88.7576 36.399C88.7324 36.528 88.6571 36.5958 88.5377 36.5958H87.7204C87.5854 36.5958 87.5316 36.528 87.5596 36.399L88.6394 31.1868L87.3305 31.7246C87.1999 31.7729 87.152 31.7305 87.1805 31.6106L87.2945 31.0814C87.3149 30.9481 87.3961 30.8551 87.5225 30.804L89.9643 29.7414C90.0934 29.6877 90.1412 29.7188 90.1186 29.8479ZM68.4284 31.6634C68.5558 31.6634 68.6091 31.7279 68.5822 31.8548L67.9047 35.1322C67.8552 35.3677 67.8482 35.5344 67.8837 35.6312C67.9197 35.7409 67.9649 35.7839 68.0337 35.7839H68.0547C68.1778 35.7839 68.2284 35.8458 68.2063 35.9721L68.1224 36.384C68.0955 36.5185 68.0203 36.5819 67.896 36.5819H67.8358C66.9126 36.5819 66.5437 36.1141 66.7399 35.1967L67.4298 31.8548C67.4551 31.7247 67.5363 31.6634 67.66 31.6634H68.4284ZM72.8927 31.5536C73.1428 31.5536 73.381 31.5929 73.588 31.6751C73.8069 31.7563 73.9848 31.8762 74.1204 32.0365C74.258 32.1908 74.3543 32.3876 74.4113 32.6183C74.4634 32.8474 74.465 33.1098 74.4075 33.4098L74.0451 35.1397C73.9956 35.3704 73.994 35.5403 74.0284 35.6376C74.066 35.7435 74.1203 35.7876 74.18 35.7876H74.1919C74.3301 35.7876 74.372 35.8532 74.3467 35.978L74.258 36.3942C74.237 36.5249 74.1591 36.5819 74.0451 36.5819H73.9848C73.0573 36.5819 72.6916 36.1259 72.8804 35.1999L73.1863 33.7276C73.2207 33.548 73.2385 33.3679 73.2466 33.2076C73.2503 33.035 73.2385 32.8866 73.1965 32.7667C73.1562 32.6377 73.0858 32.5371 72.982 32.4607C72.8863 32.3876 72.7588 32.3484 72.597 32.3484C71.9286 32.3484 71.4893 32.8372 71.2822 33.8282L70.7483 36.3942C70.7246 36.5189 70.651 36.5819 70.5284 36.5819H69.7589C69.6261 36.5819 69.5718 36.5189 69.5992 36.384L70.3004 33.0108C70.3407 32.8205 70.3407 32.6737 70.3047 32.5855C70.2611 32.5027 70.2122 32.4607 70.1428 32.4607H70.1294C70.0046 32.4607 69.9465 32.3962 69.9756 32.2704L70.0638 31.8553C70.0874 31.7278 70.1622 31.6633 70.3004 31.6633H70.3541C70.5477 31.6633 70.7155 31.6843 70.8445 31.7219C70.9795 31.7563 71.0876 31.8026 71.1591 31.8655C71.2403 31.9408 71.2914 32.0139 71.3226 32.1102C71.3543 32.2134 71.3661 32.3258 71.3661 32.4446H71.3855C71.6092 32.137 71.834 31.9214 72.0544 31.773C72.2851 31.6257 72.5583 31.5536 72.8927 31.5536ZM93.2758 33.3482C93.1128 33.3482 92.952 33.381 92.8036 33.4337C92.6482 33.4934 92.5041 33.5805 92.3778 33.6934C92.2476 33.7994 92.1396 33.9284 92.0438 34.0886C91.9476 34.2403 91.8804 34.4113 91.8411 34.6102C91.7653 34.9899 91.8218 35.2867 92.0019 35.5012C92.1917 35.7185 92.4407 35.8233 92.7665 35.8233C92.9284 35.8233 93.0763 35.7965 93.2311 35.747C93.3838 35.6916 93.5263 35.6136 93.6581 35.5115C93.7785 35.3991 93.8984 35.2673 93.9866 35.1318C94.0791 34.9764 94.1453 34.813 94.1829 34.6253C94.2222 34.4263 94.2248 34.2494 94.1904 34.0886C94.163 33.9284 94.1125 33.7967 94.027 33.6897C93.9388 33.5805 93.8339 33.4955 93.7065 33.4337C93.5726 33.381 93.4333 33.3482 93.2758 33.3482ZM105.133 31.6633H105.11L103.043 34.1292H104.621L105.133 31.6633ZM82.5887 32.3453C82.4134 32.3453 82.2623 32.3797 82.1198 32.4609C81.9757 32.5314 81.8601 32.6319 81.7493 32.7636C81.6472 32.8868 81.5558 33.0287 81.481 33.203C81.4025 33.368 81.3385 33.5476 81.2901 33.7321L82.7673 33.738C82.9184 33.738 83.0157 33.7246 83.0743 33.681C83.1372 33.6482 83.1813 33.5611 83.2044 33.4159C83.2335 33.275 83.2437 33.1401 83.2335 33.011C83.2232 32.8868 83.1813 32.7696 83.1281 32.6738C83.0743 32.5733 83.0044 32.4969 82.9184 32.4356C82.8183 32.377 82.7129 32.3453 82.5887 32.3453ZM99.4151 30.5794C99.1764 30.5794 98.9726 30.623 98.8032 30.7101C98.6386 30.7956 98.4961 30.8988 98.3821 31.0488C98.2622 31.1913 98.1719 31.35 98.1031 31.5344C98.0267 31.7215 97.9681 31.9017 97.9401 32.0936C97.8944 32.2749 97.8659 32.4609 97.8659 32.6287C97.8589 32.7921 97.889 32.9406 97.9401 33.0546C97.995 33.1852 98.0901 33.2836 98.2095 33.3514C98.3343 33.431 98.5064 33.4638 98.7311 33.4638C98.9424 33.4638 99.1285 33.4186 99.2726 33.3277C99.4226 33.2358 99.5544 33.1099 99.6635 32.9572C99.7689 32.8056 99.8555 32.6287 99.9265 32.4222C99.9969 32.2318 100.047 32.0108 100.099 31.7802C100.13 31.5747 100.136 31.3978 100.112 31.251C100.087 31.0951 100.036 30.9752 99.9663 30.8746C99.8942 30.7725 99.8184 30.6977 99.7146 30.6547C99.6162 30.6036 99.5167 30.5794 99.4151 30.5794ZM93.1548 30.8166C92.9472 30.986 92.8294 31.1866 92.7843 31.4248C92.7558 31.5565 92.7542 31.6813 92.7725 31.8028C92.7961 31.9211 92.8348 32.0141 92.8983 32.1071C92.958 32.1996 93.0424 32.2706 93.1349 32.3201C93.2295 32.3712 93.3408 32.3991 93.471 32.3991C93.5812 32.3991 93.7 32.3765 93.8183 32.3287C93.935 32.2706 94.042 32.2072 94.1426 32.1206C94.2447 32.0394 94.3254 31.941 94.3958 31.8211C94.4706 31.6995 94.5141 31.564 94.5469 31.428C94.6023 31.1656 94.5534 30.9575 94.4136 30.8016C94.2759 30.6456 94.0791 30.5703 93.8339 30.5703C93.5812 30.5617 93.3527 30.6515 93.1548 30.8166ZM68.8613 29.584C68.9887 29.584 69.0398 29.6517 69.0081 29.7786L68.8494 30.5331C68.8166 30.6541 68.7446 30.7127 68.6209 30.7127H67.8584C67.7207 30.7127 67.6713 30.6541 67.6923 30.5331L67.8584 29.7711C67.8837 29.6453 67.9617 29.584 68.0955 29.584H68.8613Z" fill="#003B65"/>
<path fill-rule="evenodd" clip-rule="evenodd" d="M18.3243 13.9104C18.6856 13.9104 18.8233 14.0873 18.7469 14.4422L16.6708 23.9723C16.5358 24.6262 16.5181 25.0908 16.6256 25.3709C16.7176 25.6586 16.8595 25.7952 17.0391 25.7952H17.0918C17.4473 25.7952 17.5898 25.9753 17.5118 26.3243L17.2795 27.4804C17.2031 27.8358 16.9961 28.0138 16.6557 28.0138H16.4971C13.9096 28.0063 12.8868 26.7217 13.4235 24.1562L15.5378 14.439C15.605 14.0873 15.8233 13.9104 16.1852 13.9104H18.3243ZM73.0291 13.4935C73.9475 13.4935 74.7283 13.6506 75.3633 13.9775C76.0032 14.291 76.5023 14.8007 76.8744 15.489H76.9297L77.369 14.3749C77.439 14.1802 77.5137 14.0452 77.6008 13.9673C77.6912 13.8828 77.832 13.8441 78.0299 13.8441H79.9205C80.2781 13.8441 80.4239 14.0286 80.3443 14.3808L78.4257 23.8657C78.2955 24.4357 78.288 24.8357 78.4031 25.0804C78.5128 25.3138 78.6548 25.4353 78.8381 25.4353H78.8913C79.2516 25.4353 79.3941 25.6197 79.3129 25.966L79.0747 27.1356C79.0075 27.4905 78.7897 27.6706 78.4542 27.6706H78.288C77.169 27.6674 76.4098 27.4738 75.9925 27.0829C75.5801 26.6989 75.3827 26.1682 75.4037 25.488H75.3483C74.6089 26.3725 73.8023 27.0151 72.9237 27.413C72.0451 27.8066 71.0874 28.0137 70.0603 28.0137C69.2898 28.0061 68.5821 27.8878 67.9438 27.648C67.2948 27.4098 66.7732 26.999 66.3726 26.4333C65.9634 25.8687 65.7026 25.1191 65.5795 24.1894C65.4628 23.2559 65.5418 22.0971 65.8311 20.698C66.1151 19.3294 66.5103 18.1857 67.0055 17.2619C67.5018 16.3419 68.0729 15.595 68.7096 15.0465C69.35 14.4872 70.0367 14.0872 70.768 13.8441C71.5057 13.6118 72.2596 13.4935 73.0291 13.4935ZM36.47 13.4667C37.6196 13.4667 38.5956 13.6086 39.3839 13.8904C40.1722 14.177 40.69 14.4647 40.9191 14.769C40.9508 14.8233 40.9729 14.9013 41.0019 15.0137C41.0207 15.1169 40.9427 15.2653 40.7674 15.46L40.0152 16.3117C39.934 16.4349 39.8259 16.487 39.6958 16.4602C39.5651 16.4317 39.4317 16.4037 39.3086 16.3639C38.8515 16.1827 38.381 16.0311 37.9073 15.8993C37.4336 15.766 36.9055 15.6987 36.3269 15.6987C35.5225 15.6987 34.903 15.8574 34.4938 16.1741C34.0696 16.4962 33.7996 16.9129 33.684 17.4302C33.627 17.7265 33.6604 17.9954 33.7744 18.2217C33.9029 18.454 34.1357 18.6218 34.4879 18.731L37.4518 19.6354C38.5488 19.9742 39.2489 20.4689 39.5651 21.1271C39.8711 21.7804 39.9205 22.6262 39.7092 23.6527C39.5565 24.3797 39.2683 25.0094 38.8515 25.5358C38.4278 26.0698 37.925 26.5204 37.333 26.8834C36.7377 27.2447 36.0903 27.519 35.3795 27.6932C34.6664 27.8685 33.9405 27.9551 33.206 27.9551C32.6333 27.9551 32.0848 27.9196 31.5778 27.8459C31.068 27.7771 30.6093 27.6808 30.191 27.5641C29.7715 27.4485 29.4344 27.3157 29.1661 27.1549C28.8977 26.9958 28.7133 26.828 28.6171 26.6495C28.4912 26.4172 28.5197 26.1876 28.7149 25.9553L29.4731 25.11C29.5645 25.0229 29.6801 24.9734 29.821 24.9868C29.9544 24.996 30.0673 25.0229 30.1764 25.0514C30.6679 25.2331 31.1793 25.3842 31.7143 25.5192C32.2451 25.659 32.8419 25.7203 33.5119 25.7235C34.0663 25.7235 34.5342 25.6692 34.903 25.566C35.2778 25.4595 35.5854 25.3229 35.8129 25.1519C36.0392 24.9809 36.2043 24.797 36.3194 24.5733C36.4291 24.3706 36.513 24.1539 36.5598 23.9404C36.642 23.5377 36.549 23.2215 36.2866 23.001C36.0183 22.7746 35.5268 22.5423 34.8025 22.2901L32.6064 21.5992C31.674 21.2921 31.0535 20.8017 30.7475 20.1075C30.4367 19.4133 30.3813 18.6277 30.5555 17.7405C30.6905 17.1361 30.9094 16.5801 31.2331 16.0542C31.5525 15.531 31.9649 15.0744 32.4639 14.6878C32.9662 14.2942 33.5523 13.9942 34.2223 13.7844C34.8966 13.5726 35.6403 13.4667 36.47 13.4667ZM29.4417 13.592C29.6186 13.592 29.7391 13.6087 29.7998 13.642C29.8601 13.6839 29.8719 13.7963 29.8208 13.9942L29.3938 15.9865C29.3487 16.1634 29.289 16.2833 29.211 16.3446C29.1314 16.4064 29.0416 16.4452 28.9336 16.4516C28.826 16.4602 28.7099 16.4516 28.5856 16.4258C28.4625 16.3989 28.3399 16.3839 28.2168 16.3839C26.5079 16.3839 25.4658 17.2394 25.1077 18.9606L23.3074 27.1835C23.2294 27.5481 23.0213 27.7201 22.6793 27.7201L20.5236 27.7158C20.1445 27.7158 19.9955 27.5416 20.0692 27.1835L22.141 17.6039C22.2685 17.0356 22.2712 16.6296 22.1695 16.3925C22.0572 16.1548 21.9087 16.0343 21.7286 16.0343H21.6732C21.3167 16.0311 21.171 15.8574 21.2506 15.502L21.4845 14.3254C21.5641 13.9775 21.7781 13.7963 22.141 13.7963H22.2997C23.4154 13.7996 24.1935 13.9329 24.628 14.2039C25.0539 14.4647 25.2744 14.8487 25.2803 15.3466H25.3357C25.9142 14.7228 26.5079 14.2776 27.1225 14.0001C27.7312 13.7318 28.5034 13.592 29.4417 13.592ZM103.613 8.55063L101.272 19.9202L106.943 14.2908C107.234 14.0004 107.56 13.8606 107.919 13.8606L110.157 13.8682C110.572 13.8682 110.606 14.0091 110.263 14.2908L103.61 20.5365L107.903 27.2639C108.087 27.5478 107.988 27.6898 107.609 27.6898H104.965C104.588 27.6898 104.323 27.5478 104.176 27.2639L100.893 21.6474L99.7611 27.1548C99.6842 27.5102 99.4734 27.6812 99.1314 27.6812H97.0048C96.6219 27.6812 96.4719 27.5059 96.5531 27.1548L100.022 10.3692L103.613 8.55063ZM90.8207 13.5309C91.5396 13.5309 92.1962 13.6449 92.7947 13.8804C93.3899 14.1062 93.8932 14.4455 94.2804 14.8908C94.6735 15.3301 94.9429 15.8796 95.0972 16.526C95.2445 17.175 95.237 17.9171 95.0794 18.7446L94.0648 23.611C93.9373 24.2703 93.9223 24.7413 94.0164 25.0231C94.1169 25.3064 94.2535 25.4463 94.4396 25.4463H94.4917C94.8439 25.4463 94.9939 25.6275 94.9149 25.9856L94.6821 27.1546C94.6041 27.5057 94.396 27.6783 94.0497 27.6783H93.8932C91.2804 27.6783 90.2512 26.383 90.789 23.7954L91.6493 19.6453C91.7542 19.1312 91.8096 18.6446 91.8219 18.1719C91.8381 17.7047 91.7843 17.2874 91.6703 16.9384C91.5595 16.5797 91.3691 16.2996 91.0868 16.0867C90.8207 15.8726 90.4502 15.7662 89.9781 15.7662C88.0858 15.7635 86.8641 17.1481 86.3092 19.9099L84.8014 27.1412C84.7251 27.4939 84.5148 27.6735 84.1701 27.6735L82.016 27.6708C81.6364 27.6708 81.4869 27.4907 81.56 27.1385L83.5103 17.646C83.641 17.0836 83.6469 16.6776 83.5313 16.4346C83.4205 16.1963 83.2797 16.0764 83.0968 16.0764H83.0431C82.686 16.0764 82.5451 15.9022 82.614 15.5441L82.8554 14.3745C82.9334 14.0223 83.1431 13.8443 83.5103 13.8443H83.67C84.2314 13.8443 84.6933 13.8997 85.067 13.9895C85.4354 14.0928 85.7322 14.2326 85.9586 14.4197C86.1774 14.6042 86.3307 14.8397 86.4114 15.1139C86.4909 15.3795 86.5313 15.6893 86.5237 16.0286H86.5856C87.2093 15.1752 87.8433 14.5515 88.4681 14.1455C89.0994 13.7314 89.885 13.5309 90.8207 13.5309ZM54.4442 8.50256L58.4378 8.51331C60.5441 8.51331 62.1239 8.9451 63.1644 9.8146C64.2081 10.6825 64.5587 11.9327 64.2232 13.5668C64.0205 14.5234 63.6306 15.33 63.0579 15.9866C62.4885 16.6383 61.748 17.162 60.8398 17.5497L60.8301 17.6041C62.1019 17.8019 62.9875 18.3203 63.487 19.1602C63.9952 20.0071 64.1183 21.0175 63.8645 22.2123C63.7075 22.9845 63.4075 23.7051 62.9547 24.3605C62.5138 25.0155 61.9653 25.5914 61.3087 26.0845C60.6592 26.5819 59.9278 26.9733 59.117 27.2417C58.3104 27.5218 57.4602 27.6509 56.5881 27.6509L50.5102 27.6482C50.1268 27.6482 49.98 27.4686 50.0623 27.1158L53.7924 9.03651C53.8688 8.68431 54.086 8.50256 54.4442 8.50256ZM49.0769 9.59112L48.2273 13.8187H49.9798C50.3395 13.8219 50.4879 13.9972 50.404 14.3527L50.1776 15.3883C50.1056 15.7464 49.8808 15.925 49.5222 15.925H47.7713L46.205 23.5794C46.0711 24.2376 46.1152 24.7022 46.3308 24.9872C46.5486 25.2722 46.8061 25.4131 47.1164 25.4131L47.5648 25.4174C47.9273 25.4174 48.073 25.5911 47.9934 25.9438L47.7536 27.1128C47.6815 27.4683 47.4702 27.6479 47.1298 27.6479H45.863C44.6413 27.6479 43.7809 27.3064 43.2846 26.6181C42.7872 25.9363 42.6866 24.9001 42.9716 23.4956L44.5289 15.919H43.1254C42.7662 15.919 42.6237 15.7432 42.7033 15.3792L42.9281 14.3446C42.998 13.994 43.2233 13.8187 43.5846 13.8187H44.9859L45.4494 11.4291L49.0769 9.59112ZM4.55815 8.4668L14.0834 8.47755C14.4458 8.47755 14.584 8.64801 14.5146 9.00936L14.2361 10.3348C14.1608 10.6903 13.9409 10.8672 13.5844 10.8672H6.91445L5.70457 16.7424H11.0264C11.3835 16.7424 11.5227 16.9268 11.4507 17.2768L11.1764 18.6056C11.1017 18.9605 10.878 19.1374 10.5242 19.1374L5.20395 19.1315L3.56551 27.0828C3.49188 27.4224 3.29675 27.606 2.97771 27.612L0.619866 27.6119C0.24346 27.6119 0.0875204 27.435 0.16549 27.0768L3.90428 9.00398C3.97795 8.64532 4.19949 8.4668 4.55815 8.4668ZM73.1635 15.7213C72.6796 15.7213 72.2284 15.7961 71.8101 15.937C71.3944 16.0762 71.025 16.3338 70.6991 16.7091C70.3679 17.0839 70.0646 17.5845 69.792 18.2212C69.5145 18.86 69.2795 19.6843 69.0714 20.698C68.8612 21.725 68.7488 22.5644 68.7456 23.2209C68.7413 23.8764 68.8343 24.3964 69.0139 24.7777C69.193 25.1578 69.4624 25.4175 69.813 25.566C70.1673 25.7036 70.5792 25.7714 71.0696 25.7714C72.2736 25.7789 73.2759 25.3847 74.0889 24.5959C74.8858 23.8119 75.4768 22.5106 75.8441 20.698C76.207 18.9278 76.1473 17.6561 75.6806 16.8844C75.2058 16.1122 74.3616 15.7213 73.1635 15.7213ZM57.45 19.0118H55.1308L53.8102 25.4172H56.1288C56.8671 25.4172 57.492 25.3263 58.0109 25.1386C58.5265 24.9585 58.9519 24.7187 59.288 24.4251C59.6176 24.1315 59.8741 23.7954 60.0655 23.4115C60.2473 23.0297 60.3822 22.6398 60.4618 22.2344C60.5425 21.8451 60.5591 21.4536 60.5199 21.0729C60.4839 20.6981 60.3521 20.3459 60.1273 20.0356C59.9069 19.7297 59.5799 19.4839 59.1498 19.2936C58.7212 19.1059 58.1544 19.0118 57.45 19.0118ZM57.949 10.7352H56.8429L55.5981 16.7738L57.2172 16.7781C57.6146 16.7781 58.0017 16.7093 58.39 16.5684C58.7782 16.4254 59.1304 16.2157 59.4573 15.9371C59.7778 15.6699 60.0553 15.3343 60.2994 14.9429C60.5425 14.5519 60.7178 14.1158 60.8183 13.6195C60.9979 12.7468 60.8678 12.0526 60.4226 11.5294C59.9806 11.0062 59.1498 10.7438 57.949 10.7352ZM19.4261 8.64236C19.7799 8.64236 19.9251 8.81605 19.846 9.16826L19.3933 11.2804C19.3137 11.63 19.1099 11.8069 18.7711 11.8069L16.6299 11.8036C16.26 11.8036 16.1056 11.63 16.1793 11.2777L16.638 9.16234C16.7143 8.81605 16.9284 8.64236 17.287 8.64236H19.4261Z" fill="#003B65"/>
</g>
<defs>
<clipPath id="clip0_291_3994">
<rect width="148.807" height="40" fill="white"/>
</clipPath>
</defs>
</svg>
