<svg width="55" height="40" viewBox="0 0 55 40" fill="none" xmlns="http://www.w3.org/2000/svg">
<g clip-path="url(#clip0_298_11981)">
<path d="M10.8536 14.043V16.6623C10.8536 16.6623 8.60723 16.6078 8.13615 16.626C7.50213 16.6441 7.62895 17.4809 7.62895 17.4809L7.5927 20.8642H10.7992V23.7201H7.53836V34.6523H2.01299V23.7201H0.074585V20.8642H2.17603V16.2622C2.17603 16.2622 1.97676 14.1703 4.4043 14.1157C6.83183 14.0612 10.8536 14.043 10.8536 14.043Z" fill="#0D3A94"/>
<path d="M20.147 21.9551H24.1507C24.513 21.9551 24.8029 22.0825 24.8029 21.7187L24.7486 17.535C24.7486 17.4804 24.7486 17.444 24.7304 17.3895C24.6398 17.0075 24.3862 14.9702 21.5058 14.3153C21.4514 14.2971 21.4152 14.2789 21.3608 14.2789C20.763 14.2062 16.85 13.7515 15.1109 14.2971C13.9877 14.6427 13.3173 15.1521 12.7739 15.6977C12.2847 16.1889 11.8318 16.971 11.7957 17.6623L11.8318 21.6641C11.7594 22.1553 12.2304 22.8828 12.8826 23.3921C13.8065 24.1016 15.4913 25.0292 17.792 26.1025C17.792 26.1025 19.0782 26.5027 19.1507 27.3212C19.205 27.9761 19.3499 30.1771 19.3499 30.9956C19.3499 31.2321 19.2232 31.4503 19.0239 31.5595C18.7703 31.7051 18.3717 31.7959 17.9189 31.5777C17.7195 31.4686 17.5746 31.2503 17.5746 31.0138L17.4659 27.0302C17.4478 26.6846 17.4659 26.3753 17.1218 26.3753L12.2485 26.3208C11.9043 26.3208 11.8137 26.1934 11.8137 26.539L11.9224 31.4868C11.9224 31.5595 11.9406 31.6141 11.9587 31.6868C12.1217 32.178 12.955 34.3244 15.292 34.5245C17.7739 34.7428 20.6181 34.6518 20.9985 34.6336C21.0347 34.6336 21.0529 34.6336 21.0891 34.6336C21.4514 34.5608 23.9333 34.4154 24.7848 32.178C24.8029 32.1234 24.821 32.0507 24.8391 31.996C24.8935 31.3594 24.9659 27.8851 24.8391 26.5572C24.8391 26.539 24.8391 26.5027 24.8391 26.4845C24.7848 26.2116 24.513 24.6473 21.8681 23.5559C21.8681 23.5559 18.5891 22.1371 17.6833 21.3367C17.5384 21.2094 17.3573 20.8456 17.3573 20.6637L17.3753 17.6441C17.5203 17.0257 17.9369 17.2075 18.4985 17.2075C19.0601 17.2075 19.3862 17.6804 19.3862 18.2444L19.4405 21.6823C19.4225 22.0097 19.8029 21.9551 20.147 21.9551Z" fill="#0D3A94"/>
<path d="M33.7341 34.0154C33.7341 34.0154 31.1434 34.9795 29.042 34.5429C27.2666 34.1609 26.4877 32.9786 26.1434 32.4147C26.0348 32.2328 25.9985 31.4688 25.9985 31.2505L25.9623 16.5711C25.9623 16.0618 26.1434 15.5707 26.4877 15.2069C27.0674 14.5884 28.1 13.7699 29.3863 13.879C31.4152 14.0427 33.3898 14.3519 33.3898 14.3519L33.2268 17.1714C33.2268 17.1714 31.8319 16.7713 31.6507 17.2987C31.2703 18.3902 31.3971 30.9231 31.3971 30.9231C31.3971 30.9231 31.705 32.0145 32.7015 31.4506C33.6978 30.8867 33.7341 31.2869 33.7341 31.2869V34.0154Z" fill="#0D3A94"/>
<path d="M39.495 4.45605L33.3175 9.1491V34.1786H39.4044L39.495 4.45605Z" fill="#0D3A94"/>
<path d="M39.6399 34.4342H33.0819V9.02264L39.7486 3.96582L39.6399 34.4342ZM33.5711 33.943H39.1508L39.2414 4.94808L33.5711 9.25913V33.943Z" fill="#0887D6"/>
<path d="M48.9334 34.6523H54.2413V16.5713C54.2413 16.5713 54.042 14.5159 50.7993 14.1157C50.7993 14.1157 49.1326 13.8247 47.7377 14.4068L46.2521 14.9342L46.1616 17.5173C46.1616 17.5173 48.0638 16.8806 48.6254 17.208C49.0964 17.4809 49.0239 18.0993 49.0783 19.1908C49.1326 20.3186 48.9334 34.6523 48.9334 34.6523Z" fill="#0D3A94"/>
<path d="M40.8718 0.545898L47.0312 5.87558V34.4158H40.9624L40.8718 0.545898Z" fill="#0D3A94"/>
<path d="M47.2848 34.652H40.7268L40.6363 0L47.303 5.76625V34.652H47.2848ZM41.2159 34.1609H46.7957V6.00272L41.1254 1.09141L41.2159 34.1609Z" fill="#0887D6"/>
<path d="M0.980408 39.9399V36.4219H1.68336L2.51871 38.9128C2.59574 39.1448 2.65191 39.3184 2.68723 39.4335C2.72735 39.3056 2.78994 39.1176 2.875 38.8696L3.71998 36.4219H4.34829V39.9399H3.89812V36.9954L2.87259 39.9399H2.4513L1.43059 36.945V39.9399H0.980408Z" fill="#1A93D9"/>
<path d="M5.11145 39.9399V36.4219H7.66325V36.837H5.57848V37.9145H7.53084V38.3272H5.57848V39.5247H7.74508V39.9399H5.11145Z" fill="#1A93D9"/>
<path d="M8.39746 39.9399V36.4219H9.96226C10.2768 36.4219 10.5159 36.4539 10.6796 36.5179C10.8433 36.5803 10.9741 36.6914 11.0721 36.8514C11.1699 37.0114 11.2189 37.1882 11.2189 37.3818C11.2189 37.6313 11.1378 37.8418 10.9757 38.0129C10.8136 38.1841 10.5633 38.2929 10.2247 38.3393C10.3482 38.3985 10.4421 38.4568 10.5063 38.5144C10.6427 38.6392 10.7719 38.7952 10.8938 38.9824L11.5078 39.9399H10.9204L10.4533 39.208C10.3169 38.9968 10.2045 38.8352 10.1163 38.7232C10.028 38.6113 9.94862 38.5329 9.87799 38.4881C9.80897 38.4433 9.73834 38.412 9.66611 38.3944C9.61316 38.3832 9.52653 38.3777 9.40615 38.3777H8.86451V39.9399H8.39746ZM8.86451 37.9745H9.86832C10.0818 37.9745 10.2487 37.9529 10.369 37.9097C10.4894 37.8649 10.5809 37.7945 10.6435 37.6985C10.7061 37.601 10.7374 37.4954 10.7374 37.3818C10.7374 37.2154 10.6764 37.0786 10.5544 36.9714C10.434 36.8642 10.2431 36.8107 9.98146 36.8107H8.86451V37.9745Z" fill="#1A93D9"/>
<path d="M14.4713 38.7068L14.9383 38.8244C14.8404 39.2068 14.6639 39.4988 14.4086 39.7004C14.1551 39.9003 13.8445 40.0003 13.477 40.0003C13.0966 40.0003 12.7869 39.9235 12.5477 39.7699C12.3103 39.6147 12.1289 39.3908 12.0037 39.098C11.8801 38.8052 11.8183 38.4908 11.8183 38.1549C11.8183 37.7885 11.8882 37.4694 12.0277 37.1974C12.169 36.9238 12.3688 36.7167 12.6272 36.5759C12.8872 36.4335 13.1729 36.3623 13.4842 36.3623C13.8373 36.3623 14.1342 36.4519 14.3749 36.631C14.6157 36.8102 14.7834 37.0622 14.8781 37.387L14.4183 37.495C14.3364 37.239 14.2177 37.0526 14.062 36.9358C13.9063 36.8191 13.7105 36.7606 13.4746 36.7606C13.2034 36.7606 12.9762 36.8255 12.7933 36.955C12.612 37.0846 12.4844 37.259 12.4105 37.4782C12.3367 37.6957 12.2998 37.9206 12.2998 38.1525C12.2998 38.4517 12.3432 38.7132 12.4298 38.9372C12.5181 39.1596 12.6545 39.326 12.839 39.4364C13.0236 39.5468 13.2234 39.6019 13.4385 39.6019C13.7001 39.6019 13.9215 39.5267 14.1029 39.3764C14.2843 39.226 14.407 39.0028 14.4713 38.7068Z" fill="#1A93D9"/>
<path d="M15.5305 39.9399V36.4219H15.9975V37.8665H17.8319V36.4219H18.2989V39.9399H17.8319V38.2817H15.9975V39.9399H15.5305Z" fill="#1A93D9"/>
<path d="M18.6913 39.9399L20.0466 36.4219H20.5498L21.9942 39.9399H21.4622L21.0505 38.8744H19.5748L19.1872 39.9399H18.6913ZM19.7096 38.4952H20.9061L20.5378 37.521C20.4254 37.225 20.342 36.9818 20.2874 36.7915C20.2424 37.017 20.1791 37.241 20.0972 37.4634L19.7096 38.4952Z" fill="#1A93D9"/>
<path d="M22.3625 39.9399V36.4219H22.8416L24.6952 39.184V36.4219H25.143V39.9399H24.6639L22.8103 37.1754V39.9399H22.3625Z" fill="#1A93D9"/>
<path d="M26.8282 39.9399V36.837H25.6655V36.4219H28.4628V36.837H27.2952V39.9399H26.8282Z" fill="#1A93D9"/>
<path d="M30.2057 39.9399V36.4219H31.5297C31.7993 36.4219 32.0152 36.4579 32.1773 36.5298C32.341 36.6002 32.4685 36.7099 32.5601 36.8587C32.6532 37.0058 32.6997 37.1602 32.6997 37.3218C32.6997 37.4722 32.6587 37.6137 32.5769 37.7465C32.4951 37.8793 32.3715 37.9865 32.2061 38.0681C32.4196 38.1305 32.5833 38.2369 32.6973 38.3873C32.8128 38.5377 32.8706 38.7152 32.8706 38.92C32.8706 39.0848 32.8352 39.2384 32.7647 39.3808C32.6957 39.5215 32.6098 39.6303 32.5071 39.7071C32.4044 39.7839 32.2752 39.8423 32.1195 39.8823C31.9655 39.9207 31.776 39.9399 31.5514 39.9399H30.2057ZM30.6727 37.9001H31.4358C31.6429 37.9001 31.7913 37.8866 31.8812 37.8594C31.9999 37.8242 32.089 37.7657 32.1484 37.6841C32.2093 37.6026 32.2399 37.5002 32.2399 37.377C32.2399 37.2602 32.2118 37.1578 32.1556 37.0698C32.0994 36.9802 32.0192 36.9194 31.9149 36.8874C31.8106 36.8539 31.6316 36.837 31.378 36.837H30.6727V37.9001ZM30.6727 39.5247H31.5514C31.7022 39.5247 31.8081 39.5192 31.8692 39.508C31.9767 39.4888 32.0666 39.4568 32.1388 39.412C32.2109 39.3672 32.2704 39.3024 32.3169 39.2176C32.3635 39.1312 32.3867 39.032 32.3867 38.92C32.3867 38.7888 32.353 38.6753 32.2856 38.5793C32.2182 38.4817 32.1243 38.4136 32.0039 38.3752C31.8852 38.3352 31.7134 38.3153 31.4887 38.3153H30.6727V39.5247Z" fill="#1A93D9"/>
<path d="M33.1258 39.9399L34.4811 36.4219H34.9843L36.4287 39.9399H35.8967L35.485 38.8744H34.0093L33.6217 39.9399H33.1258ZM34.1441 38.4952H35.3406L34.9723 37.521C34.8599 37.225 34.7765 36.9818 34.7219 36.7915C34.677 37.017 34.6136 37.241 34.5317 37.4634L34.1441 38.4952Z" fill="#1A93D9"/>
<path d="M36.797 39.9399V36.4219H37.276L39.1297 39.184V36.4219H39.5775V39.9399H39.0984L37.2448 37.1754V39.9399H36.797Z" fill="#1A93D9"/>
<path d="M40.3455 39.9399V36.4219H40.8125V38.1665L42.565 36.4219H43.1982L41.7177 37.8473L43.2632 39.9399H42.6469L41.3903 38.1593L40.8125 38.7208V39.9399H40.3455Z" fill="#1A93D9"/>
<path d="M45.0061 39.9399V36.4219H45.4732V39.5247H47.2112V39.9399H45.0061Z" fill="#1A93D9"/>
<path d="M48.3017 39.9399V36.837H47.139V36.4219H49.9363V36.837H48.7688V39.9399H48.3017Z" fill="#1A93D9"/>
<path d="M50.4178 39.9399V36.4219H51.6335C51.908 36.4219 52.1174 36.4387 52.2619 36.4723C52.4641 36.5187 52.6366 36.6027 52.7794 36.7243C52.9656 36.8811 53.1044 37.0818 53.1959 37.3266C53.289 37.5698 53.3356 37.8482 53.3356 38.1617C53.3356 38.4289 53.3042 38.6657 53.2416 38.872C53.1791 39.0784 53.0988 39.2496 53.0009 39.3856C52.903 39.5199 52.7955 39.6264 52.6783 39.7048C52.5628 39.7815 52.4223 39.8399 52.257 39.8799C52.0933 39.9199 51.9048 39.9399 51.6913 39.9399H50.4178ZM50.8848 39.5247H51.6383C51.8711 39.5247 52.0532 39.5032 52.1849 39.46C52.318 39.4168 52.4239 39.356 52.5026 39.2776C52.6134 39.1672 52.6992 39.0192 52.7602 38.8336C52.8228 38.6465 52.854 38.42 52.854 38.1545C52.854 37.7865 52.7931 37.5042 52.6711 37.3074C52.5507 37.109 52.4039 36.9762 52.2306 36.909C52.1054 36.861 51.9039 36.837 51.6263 36.837H50.8848V39.5247Z" fill="#1A93D9"/>
</g>
<defs>
<clipPath id="clip0_298_11981">
<rect width="54.2476" height="40" fill="white"/>
</clipPath>
</defs>
</svg>
