<svg width="106" height="40" viewBox="0 0 106 40" fill="none" xmlns="http://www.w3.org/2000/svg">
<g clip-path="url(#clip0_311_524)">
<path d="M11.7776 12.3569C8.80262 12.3569 6.76497 13.5776 5.58314 15.2708V3.89062H0V31.8489H5.42013L5.54239 29.0137C6.64272 30.8251 8.5581 32.0458 11.5738 32.0458C16.9939 32.0458 20.4579 27.8717 20.4579 21.8863C20.4579 15.7828 16.8309 12.3569 11.7776 12.3569ZM10.3105 27.5173C7.33551 27.5173 5.58314 25.1153 5.58314 22.792V21.5713C5.58314 19.4055 7.25401 16.8853 10.3512 16.8853C13.0817 16.8853 14.7933 18.933 14.7933 22.1226C14.7933 25.3909 12.9594 27.5173 10.3105 27.5173Z" fill="#30333B"/>
<path d="M36.6362 12.5537L32.7239 24.6033C32.5609 25.1152 32.3979 25.824 32.2349 26.8084H32.1126C31.9089 25.824 31.7458 25.1152 31.5828 24.6033L27.6706 12.5537H21.6391L29.2192 32.2426L29.0154 32.8726C28.3634 34.9596 26.8555 35.5109 25.0624 35.5109C24.2473 35.5109 23.7175 35.3534 23.147 35.1172L22.821 39.6062C23.5545 39.8425 24.8586 40 26.0812 40C30.564 40 32.6832 37.9524 34.5578 32.9908L35.0061 31.8488L42.3008 12.5537H36.6362Z" fill="#30333B"/>
<path d="M57.8057 27.1234C57.0314 27.399 56.2571 27.5565 55.4013 27.5565C52.8339 27.5565 51.8558 26.3358 51.8558 24.4457V16.8458H57.8057V12.5536H51.8558V7.08008H46.5987V12.5536H43.3384V16.8458H46.2726V24.6819C46.2726 29.0529 49.2068 32.0456 54.5047 32.0456C55.9718 32.0456 57.2352 31.8093 57.9687 31.5337L57.8057 27.1234Z" fill="#30333B"/>
<path d="M79.4292 22.3583C79.4292 16.4517 76.0467 12.3564 69.9746 12.3564C64.1877 12.3564 59.9901 16.4123 59.9901 22.2402C59.9901 27.9894 63.8209 32.0453 69.8931 32.0453C75.9245 32.0453 78.6957 28.8163 79.3477 25.4692H74.1721C73.8461 26.493 72.868 27.8319 70.1783 27.8319C67.5702 27.8319 65.777 26.3355 65.3695 23.3822H79.4292V22.3583ZM70.0153 16.3729C72.2975 16.3729 73.8461 17.5149 74.2129 20.2713H65.451C65.9808 17.5936 67.7739 16.3729 70.0153 16.3729Z" fill="#30333B"/>
<path d="M105.653 15.5578L103.294 10.9798C103.099 10.5707 102.79 10.2224 102.401 9.97423C102.012 9.72607 101.559 9.58793 101.093 9.57543H100.968L101.406 8.65984C101.606 8.23802 101.706 7.77852 101.698 7.31475C101.691 6.85098 101.577 6.39458 101.365 5.97872L99.0088 1.4044C98.8137 0.994746 98.5038 0.646071 98.1142 0.397863C97.7245 0.149655 97.2708 0.0118298 96.8042 0H88.1213C86.7245 0 85.5844 1.24754 85.5844 2.78326V12.3623C85.5868 12.8629 85.7164 13.3552 85.962 13.7959L90.0428 22.9154C90.188 23.4237 90.4967 23.8743 90.9241 24.2021C91.3516 24.53 91.8759 24.7181 92.4212 24.7393H101.078C101.559 24.7271 102.027 24.581 102.425 24.3182C102.823 24.0555 103.134 23.6875 103.32 23.2583L105.71 18.2535C105.91 17.8288 106.009 17.366 105.999 16.8994C105.99 16.4328 105.871 15.9742 105.653 15.5578ZM87.6796 2.79055C87.6796 2.33458 87.9401 2.03547 88.1138 2.03547H96.7967C96.8835 2.03547 97.0193 2.12301 97.1213 2.31634L99.4807 6.89066C99.548 7.03647 99.5828 7.1943 99.5828 7.35393C99.5828 7.51355 99.548 7.6714 99.4807 7.8172L97.665 11.6109L97.0873 12.8219C96.9892 13.0299 96.8419 13.1247 96.7513 13.1247H88.0949C87.9212 13.1247 87.6608 12.8256 87.6608 12.3696L87.6796 2.79055ZM103.788 17.3817L101.395 22.3864C101.297 22.5944 101.149 22.6892 101.059 22.6892H92.4023C92.2287 22.6892 91.9644 22.3864 91.9644 21.9341V15.1492H96.7702C97.2523 15.1368 97.7203 14.9901 98.1181 14.7267C98.516 14.4633 98.8266 14.0945 99.0126 13.6646L99.998 11.6036H101.093C101.18 11.6036 101.316 11.6911 101.417 11.8845L103.777 16.4624C103.846 16.6075 103.883 16.7649 103.885 16.9245C103.887 17.0842 103.854 17.2424 103.788 17.389V17.3817Z" fill="#30333B"/>
</g>
<defs>
<clipPath id="clip0_311_524">
<rect width="106" height="40" fill="white"/>
</clipPath>
</defs>
</svg>
