<svg width="207" height="40" viewBox="0 0 207 40" fill="none" xmlns="http://www.w3.org/2000/svg">
<g clip-path="url(#clip0_291_372)">
<mask id="mask0_291_372" style="mask-type:luminance" maskUnits="userSpaceOnUse" x="0" y="0" width="207" height="39">
<path d="M0 0H206.154V38.6764H0V0Z" fill="white"/>
</mask>
<g mask="url(#mask0_291_372)">
<path fill-rule="evenodd" clip-rule="evenodd" d="M105.197 0H115.151L119.85 20.4067H120.061L124.878 0H134.549V27.9578H128.627V6.84763H128.358L123.141 27.9578H116.488L111.391 6.84763H111.122V27.9578H105.197V0ZM0 0H18.5137V5.20921H6.2975V11.0047H17.9641V16.0615H6.2975V22.7402H18.5137V27.9578H0V0ZM26.9728 27.9578L33.3152 19.8494L37.2727 23.8313L28.2188 35.1059H35.3028L41.0996 27.6357L52.0098 38.6764H60.559L44.8797 22.9972L57.2272 7.48051H50.1423L41.0157 19.1319L37.0651 15.1862L47.2165 2.46903H40.1479L33.2172 11.3415L29.4513 7.48051H21.0192L29.5131 16.0084L19.9142 27.9578H26.9728ZM169.359 27.9578L169.423 26.3822C169.848 26.7017 171.734 28.4264 175.682 28.4264C180.873 28.4264 185.69 23.8013 185.69 17.7218C185.69 11.6304 181.169 7.00538 175.751 7.00538C171.61 7.00538 169.714 8.89339 169.423 9.10393V0H163.57V27.9578H169.359ZM179.509 17.7071C179.509 20.5944 177.283 22.8379 174.367 22.8379C171.42 22.8379 169.206 20.6019 169.206 17.7218C169.206 14.8064 171.449 12.5938 174.374 12.5938C177.313 12.5938 179.509 14.8264 179.509 17.7071ZM200.051 0H206.154V26.5974V27.9578H200.051V0ZM189.243 5.20983H195.345V0H189.243V5.20983ZM189.243 7.48051H195.345V26.5974V27.9578H189.243V7.48051ZM55.4029 17.7212C55.4029 23.6279 60.1617 28.4254 66.3889 28.4254C72.6173 28.4254 77.3748 23.6279 77.3748 17.7212C77.3748 11.8147 72.6173 7.006 66.3889 7.006C60.1617 7.006 55.4029 11.8147 55.4029 17.7212ZM61.3452 17.7209C61.3452 14.8895 63.4713 12.5645 66.4272 12.5645C69.384 12.5645 71.5107 14.8895 71.5107 17.7209C71.5107 20.5513 69.384 22.8776 66.4272 22.8776C63.4713 22.8776 61.3452 20.5513 61.3452 17.7209ZM138.074 17.719C138.074 23.6261 142.833 28.4229 149.06 28.4229C155.288 28.4229 160.046 23.6254 160.046 17.719C160.046 11.8126 155.288 7.00382 149.06 7.00382C142.833 7.00382 138.074 11.8126 138.074 17.719ZM144.016 17.7184C144.016 14.8867 146.142 12.5623 149.098 12.5623C152.055 12.5623 154.182 14.8867 154.182 17.7184C154.182 20.5488 152.055 22.8751 149.098 22.8751C146.142 22.8751 144.016 20.5488 144.016 17.7184ZM80.7362 7.48051H86.4363V9.41693C87.0484 8.88558 89.0241 7.00351 92.6738 7.00351C96.968 7.00351 100.378 10.1588 100.378 15.11V27.9578H94.3567V16.7006C94.3567 13.9411 93.0058 12.3042 90.5562 12.3042C88.1814 12.3042 86.7541 13.8468 86.7541 16.7006V27.9578H80.7362V7.48051Z" fill="#FF0000"/>
</g>
</g>
<defs>
<clipPath id="clip0_291_372">
<rect width="206.154" height="40" fill="white"/>
</clipPath>
</defs>
</svg>
