<svg width="233" height="40" viewBox="0 0 233 40" fill="none" xmlns="http://www.w3.org/2000/svg">
<g clip-path="url(#clip0_298_13199)">
<mask id="mask0_298_13199" style="mask-type:luminance" maskUnits="userSpaceOnUse" x="0" y="0" width="233" height="40">
<path d="M0 0H232.308V40H0V0Z" fill="white"/>
</mask>
<g mask="url(#mask0_298_13199)">
<path d="M73.7673 39.3514H67.9065V33.5965L67.7288 32.0104V20.7933C67.7288 18.6007 67.2 17.1122 66.1465 16.3276C65.1308 15.5431 63.4723 15.1529 61.1662 15.1529C58.86 15.1529 57.2012 15.5643 56.1854 16.387C55.2081 17.2097 54.7215 18.5796 54.7215 20.4964V21.3785H48.6281V20.7933C48.6281 18.6007 49.1569 16.6627 50.2108 14.9791C51.3065 13.2954 52.8088 11.985 54.7215 11.0435C56.6765 10.0639 58.9404 9.57617 61.5215 9.57617C64.255 9.57617 66.5231 10.0851 68.3173 11.1029C70.1154 12.1207 71.4612 13.5287 72.3623 15.331C73.2977 17.091 73.7673 19.186 73.7673 21.616V39.3556V39.3514ZM57.0658 39.9367C54.4465 39.9367 52.2419 39.271 50.4435 37.9392C48.6873 36.5694 47.8073 34.6313 47.8073 32.1249C47.8073 30.4795 48.1796 29.1097 48.92 28.0155C49.7031 26.9171 50.8158 26.0181 52.2631 25.3141C53.71 24.6101 55.4662 24.1181 57.5354 23.8467L68.3173 22.32V26.7857L58.4704 28.253C56.7908 28.4862 55.6185 28.8382 54.9542 29.309C54.29 29.7797 53.9596 30.5601 53.9596 31.6584C53.9596 32.7568 54.3492 33.6177 55.1319 34.1266C55.9527 34.6355 57.2815 34.89 59.1181 34.89C60.5227 34.89 61.8727 34.6737 63.1631 34.2454C64.4919 33.7746 65.5835 33.0113 66.4469 31.9553C67.3058 30.8569 67.7373 29.3302 67.7373 27.3751L68.5585 34.8349L67.6189 34.7755C67.0731 35.6746 66.3115 36.5185 65.3338 37.3031C64.3946 38.0876 63.2435 38.7321 61.8769 39.241C60.51 39.7118 58.9065 39.9452 57.07 39.9452L57.0658 39.9367Z" fill="#23322D"/>
<path d="M106.963 39.3514H100.633V22.3751C100.633 19.7924 100.146 17.9307 99.1688 16.7941C98.1912 15.6194 96.3546 15.0342 93.6592 15.0342C91.9415 15.0342 90.5323 15.2886 89.4404 15.7975C88.3488 16.2683 87.5281 17.0486 86.9777 18.147C86.4319 19.203 86.1569 20.6533 86.1569 22.4939H85.0442L84.515 15.6237H85.92C86.3515 14.5677 86.9946 13.588 87.8538 12.689C88.7127 11.7899 89.8088 11.0435 91.1373 10.4582C92.5042 9.86879 94.1246 9.57617 95.9992 9.57617C98.5381 9.57617 100.612 10.0639 102.211 11.0435C103.815 12.0231 105.004 13.3717 105.787 15.0978C106.57 16.8196 106.959 18.8001 106.959 21.0308V39.3556L106.963 39.3514ZM86.1569 39.3514H79.8265V10.1614H85.6281V18.9146L86.1569 19.2072V39.3514Z" fill="#23322D"/>
<path d="M125.975 40.0002C122.928 40.0002 120.352 39.3556 118.24 38.0622C116.128 36.7687 114.508 34.9875 113.378 32.7186C112.286 30.4455 111.736 27.8035 111.736 24.7882C111.736 21.7729 112.303 19.1309 113.437 16.8577C114.609 14.5465 116.268 12.7653 118.418 11.5142C120.567 10.2208 123.165 9.57617 126.212 9.57617C128.789 9.57617 131.057 10.0639 133.012 11.0435C134.967 12.0231 136.469 13.3929 137.523 15.1529C138.619 16.9129 139.165 18.9697 139.165 21.3192V21.8493H132.893V21.4973C132.893 19.3429 132.305 17.778 131.138 16.7984C130.003 15.7806 128.226 15.2717 125.806 15.2717C122.992 15.2717 120.982 16.0732 119.772 17.6805C118.6 19.2454 118.016 21.5948 118.016 24.7288C118.016 27.8628 118.604 30.2886 119.772 31.8959C120.982 33.4608 122.996 34.2454 125.806 34.2454C128.226 34.2454 130.008 33.7577 131.138 32.778C132.31 31.7602 132.893 30.1953 132.893 28.0791V27.7271H139.165V28.2572C139.165 30.5304 138.619 32.566 137.523 34.3641C136.431 36.1241 134.887 37.5151 132.893 38.5329C130.938 39.5125 128.637 40.0002 125.979 40.0002H125.975Z" fill="#23322D"/>
<path d="M171.117 39.3512H164.786V22.3749C164.786 19.7922 164.278 17.9305 163.263 16.7939C162.285 15.6192 160.47 15.0339 157.813 15.0339C155.155 15.0339 153.378 15.6022 152.13 16.7388C150.92 17.8372 150.315 19.7752 150.315 22.553H149.202L149.142 15.0339H150.547C151.017 14.1348 151.66 13.274 152.481 12.4512C153.34 11.5903 154.415 10.9033 155.705 10.3944C157.034 9.84735 158.557 9.57165 160.275 9.57165C162.852 9.57165 164.926 10.0806 166.487 11.0984C168.091 12.078 169.259 13.4266 170.003 15.1527C170.748 16.8745 171.117 18.8125 171.117 20.9669V39.3512ZM150.31 39.3512H143.98V0H150.31V39.3512Z" fill="#23322D"/>
<path d="M190.598 39.941C187.628 39.941 185.051 39.3133 182.863 38.0622C180.675 36.7687 178.995 34.9875 177.823 32.7186C176.651 30.4074 176.067 27.7441 176.067 24.7288C176.067 21.7136 176.655 19.0715 177.823 16.7984C178.995 14.5252 180.675 12.7653 182.863 11.5142C185.051 10.2208 187.628 9.57617 190.598 9.57617C193.568 9.57617 196.108 10.2208 198.219 11.5142C200.368 12.7653 202.01 14.5295 203.14 16.7984C204.312 19.0715 204.896 21.7136 204.896 24.7288C204.896 27.7441 204.308 30.4074 203.14 32.7186C202.006 34.9918 200.364 36.7729 198.219 38.0622C196.108 39.3133 193.568 39.941 190.598 39.941ZM190.598 34.3005C193.645 34.3005 195.773 33.5371 196.988 32.0104C198.198 30.4456 198.803 28.0155 198.803 24.7288C198.803 21.4421 198.198 19.0333 196.988 17.5066C195.777 15.9799 193.649 15.2165 190.598 15.2165C187.547 15.2165 185.364 15.9799 184.153 17.5066C182.943 19.0333 182.338 21.4421 182.338 24.7288C182.338 28.0155 182.943 30.4456 184.153 32.0104C185.364 33.5371 187.513 34.3005 190.598 34.3005Z" fill="#23322D"/>
<path d="M215.957 39.3514H209.627V9.98329H215.428V18.147L215.957 18.4396V39.3471V39.3514ZM215.957 20.3226H214.493V14.6271H215.725C216.313 13.2572 217.269 12.0825 218.598 11.1029C219.965 10.0851 221.725 9.57617 223.874 9.57617C226.024 9.57617 227.585 10.0257 228.796 10.929C230.048 11.8281 230.945 13.024 231.491 14.5126C232.037 16.0011 232.312 17.6635 232.312 19.5041V21.4421H225.982V20.2674C225.982 18.3081 225.647 16.9383 224.983 16.158C224.319 15.3777 223.07 14.9833 221.234 14.9833C219.398 14.9833 217.95 15.3946 217.134 16.2174C216.351 17.0019 215.962 18.3717 215.962 20.3268L215.957 20.3226Z" fill="#23322D"/>
<path fill-rule="evenodd" clip-rule="evenodd" d="M6.02562 25.916C4.43035 25.916 2.89856 25.2672 1.76875 24.1222C0.63895 22.9728 0 21.4207 0 19.8007V6.11535C0 4.49535 0.63895 2.93893 1.76875 1.79389C2.89856 0.648854 4.42612 0 6.02562 0H19.5071C21.1023 0 22.6341 0.648854 23.7639 1.79389C24.8937 2.93893 25.5285 4.49535 25.5327 6.11535V19.1518L21.9359 21.2595H34.1691C35.4047 21.2595 36.5895 21.76 37.4654 22.6463C38.3413 23.5327 38.8323 24.7371 38.8323 25.9924V34.6777C38.8323 35.933 38.3371 37.1374 37.4654 38.0237C36.5895 38.91 35.4047 39.4104 34.1691 39.4104H25.6088C24.3733 39.4104 23.1885 38.91 22.3125 38.0237C21.4366 37.1374 20.9458 35.933 20.9458 34.6777V28.028L24.5552 25.9118H6.02562M20.9458 21.2553V4.6565H4.58692V21.2595H20.9458V21.2553ZM34.1691 25.9118H25.5327V34.6777C25.5327 34.6777 25.5412 34.7158 25.5581 34.7328C25.5708 34.7455 25.5919 34.754 25.6088 34.7583H34.1691C34.1691 34.7583 34.2072 34.7498 34.2199 34.7328C34.2326 34.7201 34.241 34.6989 34.2453 34.6777V25.9881C34.2453 25.9881 34.2368 25.95 34.2199 25.9372C34.2072 25.9203 34.186 25.9118 34.1691 25.9118Z" fill="#23322D"/>
</g>
</g>
<defs>
<clipPath id="clip0_298_13199">
<rect width="232.308" height="40" fill="white"/>
</clipPath>
</defs>
</svg>
