<svg width="215" height="40" viewBox="0 0 215 40" fill="none" xmlns="http://www.w3.org/2000/svg">
<g clip-path="url(#clip0_298_12143)">
<mask id="mask0_298_12143" style="mask-type:luminance" maskUnits="userSpaceOnUse" x="0" y="0" width="214" height="40">
<path d="M213.748 0H0V39.9995H213.748V0Z" fill="white"/>
</mask>
<g mask="url(#mask0_298_12143)">
<path d="M18.0753 3.22555C15.7381 1.36034 12.6229 1.60773 10.5592 1.77048L10.6438 2.83168L10.7252 3.8896C12.6653 3.73986 15.0806 3.54781 16.7668 4.89545C18.7655 6.49048 19.3253 9.91493 18.9965 12.6004C18.7003 15.0158 17.7238 16.9298 16.5129 17.4768C14.8039 18.2514 11.7245 16.5815 8.28054 13.0106C7.24539 11.9396 6.74411 9.60568 7.78901 7.2164C8.90227 4.67085 9.50449 3.98726 10.7219 3.8896L10.6405 2.83168L10.5592 1.77048C7.97456 1.97231 6.94267 3.8831 5.86196 6.36028C4.37434 9.76193 5.29229 12.9618 6.77014 14.4982C7.27796 15.0223 8.81439 16.6173 10.7154 17.9226C12.5318 19.1694 14.1626 19.7944 15.5884 19.7944C16.2264 19.7944 16.8222 19.6706 17.3755 19.4201C19.2993 18.5476 20.686 16.0965 21.0863 12.8641C21.4607 9.82703 20.8977 5.48138 18.0753 3.22555Z" fill="#EBA832"/>
<path d="M13.9929 39.7791C11.8672 39.7791 9.65372 39.3071 8.53394 37.5396C6.8152 34.8216 8.97014 30.9186 10.0053 29.0436C11.0111 27.2207 12.5346 24.4636 15.3633 23.5294C18.7845 22.4031 22.6808 24.3334 24.9758 26.3287C27.4205 28.4512 28.6737 30.9772 28.3287 33.0767C28.0032 35.0331 26.3495 36.6412 23.4068 37.8521C21.278 38.7277 19.11 39.1411 18.4003 39.2746C17.4335 39.4569 15.7442 39.7791 13.9929 39.7791ZM17.5085 25.3229C16.9942 25.3229 16.4928 25.3946 16.0176 25.5507C13.9701 26.2246 12.7917 28.3632 11.8445 30.0787C11.073 31.4752 9.26961 34.7467 10.308 36.3906C11.1544 37.7251 13.7455 37.9921 18.0097 37.1816C22.86 36.2602 25.9393 34.5969 26.2485 32.7252C26.4667 31.4036 25.4283 29.5254 23.6022 27.9401C21.968 26.5241 19.6243 25.3229 17.5085 25.3229Z" fill="#082645"/>
<path d="M4.4551 28.2572C2.85681 28.2572 1.40175 27.1211 0.656318 25.9427C-0.212814 24.5691 -0.401612 23.6674 -0.118414 22.2187C0.177808 20.6986 1.56777 19.2077 3.18885 18.6739C4.77411 18.1499 6.4082 18.4819 7.67121 19.5789C8.88865 20.6367 9.49411 22.2026 9.25648 23.6609C8.83656 26.2097 6.13803 27.9967 5.0801 28.1986C4.87176 28.2376 4.66343 28.2572 4.4551 28.2572ZM4.65041 20.5652C4.3835 20.5652 4.11005 20.6076 3.83988 20.6986C2.84053 21.0274 2.07883 21.9584 1.94861 22.6289C1.78261 23.4752 1.82166 23.8399 2.43038 24.7969C3.14326 25.9264 4.19795 26.1999 4.68948 26.1056C5.08661 26.0046 6.92903 24.8197 7.17643 23.3126C7.29686 22.5932 6.95181 21.7599 6.29753 21.1934C5.82228 20.7801 5.24611 20.5652 4.65041 20.5652Z" fill="#FCB5B5"/>
<path d="M45.3645 6.40555L41.6797 5.83264V3.0332H66.4972L66.9529 11.1711H63.3592L61.6925 6.23629L51.979 5.7415V18.4628L58.6847 18.3194L59.531 14.3742H62.4087V25.7934H59.5832L58.6847 21.7439L51.979 21.5616V33.2933L58.854 33.7489V36.4443H41.914V33.7489L45.3645 33.2933V6.40555Z" fill="#082645"/>
<path d="M69.499 29.4001C69.499 26.6756 70.8695 24.6216 73.6135 23.2415C76.3545 21.8613 79.9025 21.1581 84.2515 21.1321V20.1034C84.2515 18.873 84.1214 17.9126 83.8609 17.2258C83.607 16.5325 83.1447 16.0149 82.4677 15.6764C81.797 15.3313 80.8174 15.1556 79.525 15.1556C78.0569 15.1556 76.7385 15.3444 75.5667 15.7154C74.4014 16.0898 73.1904 16.5748 71.9339 17.1738L70.5407 14.2962C70.9899 13.9056 71.7452 13.4433 72.8064 12.903C73.874 12.3659 75.1402 11.8971 76.6084 11.4967C78.0732 11.0898 79.59 10.8848 81.1525 10.8848C83.4605 10.8848 85.267 11.1842 86.5692 11.7832C87.8712 12.3821 88.8022 13.3424 89.3687 14.6608C89.9415 15.9824 90.228 17.7466 90.228 19.9601V33.7231H92.6629V36.2361C92.0639 36.3858 91.2079 36.5289 90.0979 36.6788C88.9845 36.8349 88.008 36.9131 87.1682 36.9131C86.1525 36.9131 85.4689 36.7601 85.1239 36.4574C84.7854 36.1644 84.616 35.5525 84.616 34.6215V33.4106C83.799 34.3058 82.7444 35.1129 81.452 35.8324C80.1662 36.5518 78.7177 36.9131 77.1032 36.9131C75.723 36.9131 74.4534 36.6201 73.301 36.0408C72.1455 35.4516 71.221 34.5954 70.5277 33.4756C69.8409 32.3495 69.499 30.9888 69.499 29.4001ZM79.9807 33.1761C80.6057 33.1761 81.3219 32.9906 82.1292 32.6163C82.9429 32.2453 83.6525 31.7894 84.2515 31.2491V23.8795C81.5497 23.8795 79.5315 24.3351 78.1969 25.2466C76.8687 26.1581 76.2047 27.3364 76.2047 28.7751C76.2047 30.2173 76.5367 31.311 77.2074 32.0565C77.8844 32.8051 78.8089 33.1761 79.9807 33.1761Z" fill="#082645"/>
<path d="M95.482 33.7429L98.008 33.3393V15.7093L95.1304 14.902V11.8031L102.591 10.8525L103.125 11.2171L103.802 12.7015V14.5895C104.792 13.626 106.205 12.7796 108.047 12.0504C109.896 11.3148 111.491 10.9437 112.839 10.9437C114.46 10.9437 115.772 11.2139 116.771 11.751C117.777 12.2913 118.535 13.1312 119.049 14.277C120.039 13.3753 121.341 12.5941 122.956 11.9333C124.577 11.2757 126.165 10.9437 127.721 10.9437C130.394 10.9437 132.282 11.7249 133.385 13.2874C134.495 14.8434 135.052 17.3889 135.052 20.9306V33.3393L137.969 33.7429V36.4383H126.328V33.7429L128.672 33.3393V21.1128C128.672 18.7691 128.392 17.1284 127.838 16.191C127.282 15.247 126.224 14.7718 124.661 14.7718C123.828 14.7718 122.969 14.9606 122.083 15.3317C121.198 15.706 120.41 16.1617 119.727 16.6988C119.935 17.8381 120.039 19.2606 120.039 20.9696V33.3393L122.825 33.7429V36.4383H111.094V33.7429L113.555 33.3393V20.9696C113.555 19.4169 113.457 18.1963 113.268 17.3108C113.076 16.4254 112.708 15.7841 112.162 15.3837C111.621 14.9768 110.846 14.7718 109.831 14.7718C108.867 14.7718 107.91 14.9899 106.966 15.4228C106.029 15.859 105.186 16.3733 104.44 16.9723V33.3393L107.083 33.7429V36.4383H95.482V33.7429Z" fill="#082645"/>
<path d="M140.501 29.4001C140.501 26.6756 141.872 24.6216 144.616 23.2415C147.357 21.8613 150.905 21.1581 155.254 21.1321V20.1034C155.254 18.873 155.124 17.9126 154.863 17.2258C154.609 16.5325 154.147 16.0149 153.47 15.6764C152.799 15.3313 151.82 15.1556 150.527 15.1556C149.059 15.1556 147.741 15.3444 146.569 15.7154C145.404 16.0898 144.193 16.5748 142.936 17.1738L141.543 14.2962C141.992 13.9056 142.747 13.4433 143.809 12.903C144.876 12.3659 146.143 11.8971 147.611 11.4967C149.076 11.0898 150.592 10.8848 152.155 10.8848C154.463 10.8848 156.269 11.1842 157.572 11.7832C158.874 12.3821 159.805 13.3424 160.371 14.6608C160.944 15.9824 161.23 17.7466 161.23 19.9601V33.7231H163.665V36.2361C163.066 36.3858 162.21 36.5289 161.1 36.6788C159.987 36.8349 159.01 36.9131 158.17 36.9131C157.155 36.9131 156.471 36.7601 156.126 36.4574C155.788 36.1644 155.618 35.5525 155.618 34.6215V33.4106C154.801 34.3058 153.747 35.1129 152.454 35.8324C151.169 36.5518 149.72 36.9131 148.105 36.9131C146.725 36.9131 145.456 36.6201 144.303 36.0408C143.148 35.4516 142.223 34.5954 141.53 33.4756C140.843 32.3495 140.501 30.9888 140.501 29.4001ZM150.983 33.1761C151.608 33.1761 152.324 32.9906 153.131 32.6163C153.945 32.2453 154.655 31.7894 155.254 31.2491V23.8795C152.552 23.8795 150.534 24.3351 149.199 25.2466C147.871 26.1581 147.207 27.3364 147.207 28.7751C147.207 30.2173 147.539 31.311 148.21 32.0565C148.887 32.8051 149.811 33.1761 150.983 33.1761Z" fill="#082645"/>
<path d="M171.465 32.7334C171.699 33.0916 172.24 33.4301 173.092 33.7491C173.952 34.0616 174.815 34.2178 175.684 34.2178C177.097 34.2178 178.157 33.9281 178.86 33.3454C179.564 32.7563 179.915 31.9848 179.915 31.0278C179.915 30.0383 179.479 29.2375 178.614 28.6189C177.744 28.0038 176.274 27.2485 174.199 26.3533L172.949 25.8065C170.872 24.9406 169.33 23.8924 168.314 22.6684C167.299 21.4381 166.79 19.8429 166.79 17.8899C166.79 16.5455 167.194 15.3444 168.002 14.2832C168.809 13.2155 169.945 12.3821 171.414 11.7832C172.879 11.1842 174.57 10.8848 176.49 10.8848C177.904 10.8848 179.112 10.9759 180.11 11.1582C181.117 11.334 182.175 11.5716 183.289 11.8743C183.887 12.0827 184.332 12.1999 184.629 12.2259V18.1243H181.087L180.045 14.6998C179.864 14.4069 179.454 14.1367 178.822 13.8925C178.197 13.6517 177.48 13.528 176.674 13.528C175.449 13.528 174.467 13.7949 173.73 14.3222C172.992 14.8431 172.624 15.569 172.624 16.4967C172.624 17.3398 172.879 18.0396 173.392 18.5929C173.904 19.1496 174.46 19.5793 175.059 19.8821C175.657 20.1783 176.765 20.6698 178.379 21.3534C180 22.05 181.342 22.7141 182.402 23.3456C183.47 23.9706 184.355 24.7876 185.059 25.7934C185.762 26.7928 186.114 28.0135 186.114 29.4523C186.114 31.6658 185.244 33.4626 183.509 34.8428C181.77 36.2229 179.267 36.9131 175.997 36.9131C174.467 36.9131 173.095 36.7764 171.882 36.5094C170.674 36.2426 169.277 35.8813 167.689 35.4288L166.7 35.1163V29.1788H170.424L171.465 32.7334Z" fill="#082645"/>
<path d="M195.164 7.34333C194.085 7.34333 193.229 7.03085 192.599 6.40585C191.974 5.77435 191.66 4.96055 191.66 3.97098C191.66 2.83493 192.019 1.89418 192.742 1.14549C193.46 0.390296 194.42 0.0126953 195.619 0.0126953C196.817 0.0126953 197.729 0.338213 198.354 0.989246C198.985 1.63377 199.304 2.43128 199.304 3.38505C199.304 4.58295 198.942 5.54323 198.224 6.26262C197.5 6.98527 196.497 7.34333 195.215 7.34333H195.164ZM192.78 15.7026L189.59 14.8563V11.8355L197.819 10.8459H197.91L199.174 11.7443V33.3718L202.182 33.7363V36.4316H189.642V33.7363L192.78 33.3326V15.7026Z" fill="#082645"/>
<path d="M209.642 36.8486C208.712 36.8486 207.9 36.5263 207.207 35.8851C206.52 35.2438 206.179 34.4268 206.179 33.4371C206.179 32.3271 206.572 31.419 207.364 30.7158C208.16 30.0128 209.129 29.6611 210.267 29.6611C211.352 29.6611 212.207 29.9996 212.832 30.6768C213.464 31.3473 213.782 32.1448 213.782 33.0726C213.782 34.2445 213.399 35.169 212.637 35.846C211.872 36.5133 210.872 36.8486 209.642 36.8486Z" fill="#082645"/>
</g>
</g>
<defs>
<clipPath id="clip0_298_12143">
<rect width="215" height="40" fill="white"/>
</clipPath>
</defs>
</svg>
