<svg width="208" height="40" viewBox="0 0 208 40" fill="none" xmlns="http://www.w3.org/2000/svg">
<g clip-path="url(#clip0_291_248)">
<path d="M74.4576 5.57013C74.4576 5.57013 69.536 0.169922 60.2473 0.169922C48.8969 0.169922 40.0293 8.87857 40.0293 20.1272C40.0293 31.3759 48.8747 39.9991 60.2473 39.9991C69.536 39.9991 74.4576 34.4495 74.4576 34.4495C74.4576 34.4495 71.243 30.1379 69.669 28.6011C68.4719 27.2777 66.4989 26.8509 64.814 27.5765C63.6392 28.1101 62.3755 28.3876 61.0675 28.409C55.9687 28.409 52.9315 24.6096 52.9315 20.1486C52.9315 15.6875 55.9687 11.8882 61.0675 11.8882C62.2868 11.9522 63.506 12.2297 64.6367 12.6566C66.4767 13.3182 68.5384 12.8487 69.8685 11.4613C71.1543 10.1379 74.4353 5.59148 74.4353 5.59148" fill="#242E33"/>
<path d="M108.208 5.57013C108.208 5.57013 103.286 0.169922 93.9973 0.169922C82.6469 0.169922 73.7793 8.87857 73.7793 20.1272C73.7793 31.3759 82.6247 39.9991 93.9973 39.9991C103.286 39.9991 108.208 34.4495 108.208 34.4495C108.208 34.4495 104.993 30.1379 103.419 28.6011C102.222 27.2777 100.249 26.8509 98.564 27.5765C97.3892 28.1101 96.1255 28.3876 94.8175 28.409C89.7187 28.409 86.6815 24.6096 86.6815 20.1486C86.6815 15.6875 89.7187 11.8882 94.8175 11.8882C96.0368 11.9522 97.256 12.2297 98.3867 12.6566C100.227 13.3182 102.288 12.8487 103.619 11.4613C104.882 10.1379 108.185 5.59148 108.185 5.59148" fill="#242E33"/>
<path d="M41.9877 39.1667C42.1429 38.7612 42.2094 38.3129 42.2094 37.8647C42.2094 37.0109 41.9434 36.1998 41.5 35.4527L21.1934 0.169922H21.0382L0.709401 35.4741C0.266025 36.1998 0.0221688 37.0322 0 37.8861C0 38.3343 0.0665064 38.7826 0.266025 39.1881H13.1904C13.1904 39.1881 18.7326 28.3877 19.5308 26.8722C19.9298 26.1037 20.351 25.7836 20.9939 25.7836C21.6367 25.7836 22.0801 26.1251 22.5014 26.8722C23.3438 28.3663 29.2406 39.1881 29.2406 39.1881H41.9877V39.1667Z" fill="#242E33"/>
<path d="M148.801 28.3245C153.412 28.3245 156.937 24.6318 156.937 20.064C156.937 15.4963 153.412 11.8036 148.801 11.8036C144.19 11.8036 140.665 15.4963 140.665 20.064C140.665 24.6318 144.19 28.3245 148.801 28.3245ZM148.801 39.9146C137.34 39.9146 128.074 30.9499 128.096 19.936C128.117 8.90075 137.406 0 148.867 0C160.307 0 169.596 8.96478 169.574 19.9786C169.574 30.9711 160.307 39.8932 148.867 39.9146H148.801Z" fill="#242E33"/>
<path d="M114.536 0.811523H121.12C122.782 0.811523 124.113 2.11356 124.113 3.69306V36.2438C124.113 37.8446 122.76 39.1253 121.12 39.1253H114.536C112.873 39.1253 111.543 37.8233 111.543 36.2438V3.69306C111.543 2.09221 112.895 0.811523 114.536 0.811523Z" fill="#242E33"/>
<path d="M207.501 39.3175V4.48295C207.501 2.13504 206.793 0.833008 203.933 0.833008H195.353V13.7679C195.398 14.4083 194.888 14.9845 194.223 15.0273H194.156C193.446 15.0273 193.048 14.6858 191.916 13.6399C190.144 11.9323 186.729 8.66652 184.468 6.63877C180.3 2.90344 178.283 0.854353 175.468 0.854353C174.869 0.854353 174.249 0.918387 173.671 1.11049V36.2653C173.671 38.1649 174.338 39.1468 176.775 39.1468H185.776V27.1938C185.71 26.4894 186.241 25.8918 186.951 25.8064H187.15C188.126 25.8064 188.569 26.4254 189.723 27.5779C191.075 28.9013 193.025 30.865 195.553 33.2343C200.784 38.1009 203.024 39.4243 205.928 39.4243C206.46 39.4243 206.991 39.3816 207.501 39.2749" fill="#242E33"/>
</g>
<defs>
<clipPath id="clip0_291_248">
<rect width="207.5" height="40" fill="white"/>
</clipPath>
</defs>
</svg>
