<svg width="126" height="40" viewBox="0 0 126 40" fill="none" xmlns="http://www.w3.org/2000/svg">
<path d="M1.13989 17.6936C1.13989 15.3598 1.57409 13.3109 2.44247 11.547C3.338 9.7831 4.5456 8.42625 6.06527 7.47645C7.58494 6.52665 9.28101 6.05176 11.1535 6.05176C12.7545 6.05176 14.1521 6.37739 15.3461 7.02868C16.5673 7.67998 17.5035 8.53479 18.1548 9.59314V6.37739H25.1154V29.0911H18.1548V25.8754C17.4764 26.9338 16.5266 27.7885 15.3054 28.4398C14.1114 29.0911 12.7139 29.4167 11.1128 29.4167C9.26743 29.4167 7.58494 28.9418 6.06527 27.992C4.5456 27.0151 3.338 25.6447 2.44247 23.8809C1.57409 22.0898 1.13989 20.0272 1.13989 17.6936ZM18.1548 17.7342C18.1548 15.9975 17.6664 14.6271 16.6894 13.623C15.7396 12.6189 14.5727 12.1169 13.1887 12.1169C11.8048 12.1169 10.6243 12.6189 9.64736 13.623C8.69756 14.5999 8.22267 15.9568 8.22267 17.6936C8.22267 19.4303 8.69756 20.8143 9.64736 21.8454C10.6243 22.8496 11.8048 23.3516 13.1887 23.3516C14.5727 23.3516 15.7396 22.8496 16.6894 21.8454C17.6664 20.8414 18.1548 19.4711 18.1548 17.7342Z" fill="#012945"/>
<path d="M37.1118 9.59314C37.7903 8.53479 38.7265 7.67998 39.9205 7.02868C41.1145 6.37739 42.5122 6.05176 44.1132 6.05176C45.9856 6.05176 47.6818 6.52665 49.2014 7.47645C50.7211 8.42625 51.9151 9.7831 52.7834 11.547C53.6791 13.3109 54.1267 15.3598 54.1267 17.6936C54.1267 20.0272 53.6791 22.0898 52.7834 23.8809C51.9151 25.6447 50.7211 27.0151 49.2014 27.992C47.6818 28.9418 45.9856 29.4167 44.1132 29.4167C42.5392 29.4167 41.1416 29.0911 39.9205 28.4398C38.7265 27.7885 37.7903 26.9472 37.1118 25.9162V39.9187H30.1512V6.37739H37.1118V9.59314ZM47.044 17.6936C47.044 15.9568 46.5556 14.5999 45.5785 13.623C44.6289 12.6189 43.4483 12.1169 42.0372 12.1169C40.6532 12.1169 39.4727 12.6189 38.4958 13.623C37.546 14.6271 37.0711 15.9975 37.0711 17.7342C37.0711 19.4711 37.546 20.8414 38.4958 21.8454C39.4727 22.8496 40.6532 23.3516 42.0372 23.3516C43.4212 23.3516 44.6016 22.8496 45.5785 21.8454C46.5556 20.8143 47.044 19.4303 47.044 17.6936Z" fill="#012945"/>
<path d="M56.3945 17.6936C56.3945 15.3598 56.8287 13.3109 57.6971 11.547C58.5927 9.7831 59.8002 8.42625 61.32 7.47645C62.8396 6.52665 64.5356 6.05176 66.4082 6.05176C68.0093 6.05176 69.4067 6.37739 70.6007 7.02868C71.822 7.67998 72.7582 8.53479 73.4094 9.59314V6.37739H80.3702V29.0911H73.4094V25.8754C72.7311 26.9338 71.7813 27.7885 70.56 28.4398C69.366 29.0911 67.9685 29.4167 66.3674 29.4167C64.522 29.4167 62.8396 28.9418 61.32 27.992C59.8002 27.0151 58.5927 25.6447 57.6971 23.8809C56.8287 22.0898 56.3945 20.0272 56.3945 17.6936ZM73.4094 17.7342C73.4094 15.9975 72.9209 14.6271 71.944 13.623C70.9942 12.6189 69.8274 12.1169 68.4434 12.1169C67.0594 12.1169 65.8789 12.6189 64.902 13.623C63.9522 14.5999 63.4773 15.9568 63.4773 17.6936C63.4773 19.4303 63.9522 20.8143 64.902 21.8454C65.8789 22.8496 67.0594 23.3516 68.4434 23.3516C69.8274 23.3516 70.9942 22.8496 71.944 21.8454C72.9209 20.8414 73.4094 19.4711 73.4094 17.7342Z" fill="#012945"/>
<path d="M98.0653 23.1883V29.0904H94.5238C92.0002 29.0904 90.0328 28.4799 88.6217 27.2588C87.2106 26.0104 86.5049 23.9888 86.5049 21.1935V12.157H83.7369V6.37677H86.5049V0.84082H93.4657V6.37677H98.0246V12.157H93.4657V21.275C93.4657 21.9534 93.6284 22.4419 93.954 22.7404C94.2797 23.039 94.8224 23.1883 95.5822 23.1883H98.0653Z" fill="#012945"/>
<path d="M100.559 17.6936C100.559 15.3598 100.993 13.3109 101.861 11.547C102.757 9.7831 103.964 8.42625 105.484 7.47645C107.004 6.52665 108.7 6.05176 110.572 6.05176C112.173 6.05176 113.571 6.37739 114.765 7.02868C115.986 7.67998 116.922 8.53479 117.573 9.59314V6.37739H124.534V29.0911H117.573V25.8754C116.895 26.9338 115.945 27.7885 114.724 28.4398C113.53 29.0911 112.132 29.4167 110.531 29.4167C108.686 29.4167 107.004 28.9418 105.484 27.992C103.964 27.0151 102.757 25.6447 101.861 23.8809C100.993 22.0898 100.559 20.0272 100.559 17.6936ZM117.573 17.7342C117.573 15.9975 117.085 14.6271 116.108 13.623C115.158 12.6189 113.991 12.1169 112.607 12.1169C111.223 12.1169 110.043 12.6189 109.066 13.623C108.116 14.5999 107.641 15.9568 107.641 17.6936C107.641 19.4303 108.116 20.8143 109.066 21.8454C110.043 22.8496 111.223 23.3516 112.607 23.3516C113.991 23.3516 115.158 22.8496 116.108 21.8454C117.085 20.8414 117.573 19.4711 117.573 17.7342Z" fill="#012945"/>
</svg>
