<svg width="39" height="40" viewBox="0 0 39 40" fill="none" xmlns="http://www.w3.org/2000/svg">
<g clip-path="url(#clip0_291_3629)">
<path d="M38.2775 0H0V39.9799H38.2775V0Z" fill="white"/>
<path d="M0 0.0205078H38.2775V32.2655H0V0.0205078Z" fill="#B0283F"/>
<path d="M17.7437 1.84756C19.3735 1.66813 21.0531 1.95887 22.5284 2.6766C23.6747 3.23151 24.6948 4.03727 25.5039 5.01919C26.2731 5.95124 26.8496 7.04282 27.1819 8.20407C27.6022 9.67105 27.6338 11.2478 27.2683 12.7297C26.9842 13.8911 26.4559 14.9909 25.7299 15.9396C24.9374 16.9779 23.9108 17.8353 22.7461 18.4267C21.6081 19.0081 20.3388 19.3288 19.0612 19.3703C17.473 19.4218 15.8697 19.0347 14.4825 18.2555C12.7614 17.2968 11.3774 15.7484 10.6232 13.9292C10.0334 12.5187 9.82242 10.9536 10.0151 9.43674C10.168 8.20229 10.5916 6.99942 11.2479 5.94114C11.9207 4.85128 12.8378 3.91253 13.911 3.21148C15.0573 2.46384 16.3815 1.99033 17.7438 1.84746L17.7437 1.84756ZM17.7171 3.07206C17.4247 3.55055 17.2287 4.07723 17.0609 4.6089C17.5244 4.54909 17.9896 4.51586 18.4564 4.5059C18.4514 3.78319 18.4514 3.05881 18.4448 2.33441C18.1258 2.49058 17.8999 2.77799 17.7171 3.07206ZM18.9399 2.33439C18.9399 3.05877 18.9465 3.7831 18.9482 4.50588C19.4167 4.51583 19.8852 4.55239 20.3487 4.61055C20.1659 4.04401 19.9483 3.48241 19.6193 2.98241C19.4449 2.72157 19.229 2.47395 18.9399 2.33439ZM16.7053 2.83281C15.7202 3.39603 14.9659 4.29157 14.416 5.27176C15.0971 5.00925 15.8049 4.81819 16.5226 4.69027C16.7518 3.90609 17.0392 3.12194 17.536 2.46568C17.2485 2.56038 16.9695 2.68162 16.7053 2.83281ZM19.8569 2.46897C20.3587 3.12523 20.6527 3.91107 20.8903 4.69356C21.6097 4.82315 22.3174 5.01588 23.0003 5.27837C22.2959 4.04067 21.2426 2.91751 19.857 2.4689L19.8569 2.46897ZM12.8261 4.72849C11.9689 5.59242 11.3093 6.64744 10.9039 7.79375C11.61 6.84841 12.5835 6.12734 13.6402 5.61232C13.7382 5.56746 13.7615 5.45116 13.8113 5.3631C14.3147 4.36463 15.0075 3.44588 15.9046 2.76798C14.75 3.18168 13.6883 3.85624 12.8261 4.72849ZM21.495 2.77471C22.437 3.48413 23.158 4.45442 23.6763 5.5061C23.6996 5.56757 23.7494 5.61077 23.8093 5.63569C24.8609 6.15072 25.8278 6.87013 26.5372 7.8088C26.1551 6.75549 25.5604 5.78018 24.7978 4.95951C23.8923 3.98095 22.7494 3.22667 21.495 2.77471ZM16.9146 5.12562C16.692 5.99122 16.5491 6.87672 16.4544 7.7639C17.1256 7.70907 17.7985 7.67916 18.4713 7.67252C18.4679 6.782 18.463 5.88984 18.458 4.99931C17.943 5.00926 17.4263 5.05085 16.9146 5.12562ZM18.9515 4.99935C18.9549 5.88987 18.9598 6.78203 18.9647 7.67418C19.6392 7.68081 20.3137 7.71072 20.9849 7.76722C20.8819 6.87837 20.7307 5.99449 20.4998 5.13057C19.9881 5.05414 19.4698 5.01099 18.9515 4.99935ZM14.0771 5.94801C13.7448 6.68401 13.5089 7.45988 13.3561 8.25241C14.21 8.04308 15.0806 7.90518 15.9545 7.81214C16.0442 6.93991 16.1787 6.071 16.3831 5.21865C15.5906 5.37316 14.8131 5.61407 14.0771 5.94801ZM21.0332 5.22364C21.2458 6.07428 21.3904 6.94316 21.4867 7.81541C22.3623 7.91011 23.2345 8.04967 24.0901 8.25901C23.9289 7.46817 23.6847 6.69231 23.3475 5.95795C22.6082 5.62236 21.829 5.38147 21.0332 5.22364ZM12.5187 6.87005C11.6615 7.518 10.9339 8.38364 10.6065 9.42029C11.2594 8.91522 12.0469 8.6278 12.8294 8.39349C12.9523 7.67743 13.1417 6.97129 13.3992 6.29177C13.0935 6.46622 12.7978 6.65728 12.5187 6.86993L12.5187 6.87005ZM24.0307 6.30683C24.2932 6.98303 24.4892 7.6875 24.6188 8.40186C25.4013 8.63777 26.1871 8.9252 26.8434 9.42693C26.7487 9.15114 26.6341 8.88199 26.4895 8.62946C25.923 7.63261 25.0192 6.86668 24.0308 6.30678L24.0307 6.30683ZM16.4084 8.26396C16.3519 8.95178 16.322 9.64463 16.3187 10.3357C17.0414 10.3374 17.7624 10.3357 18.4851 10.3374C18.4817 9.61306 18.4768 8.89036 18.4735 8.16595C17.784 8.17093 17.0945 8.20247 16.4084 8.26396ZM18.9669 8.16593C18.9703 8.89031 18.9735 9.61464 18.9768 10.3374C19.7012 10.3391 20.4239 10.3391 21.1466 10.3391C21.1366 9.64797 21.1017 8.9552 21.0386 8.26735C20.3491 8.20588 19.658 8.17265 18.9669 8.16601L18.9669 8.16593ZM13.2651 8.78397C13.1937 9.29735 13.1522 9.81574 13.1439 10.334C14.0377 10.334 14.9315 10.3357 15.8269 10.3357C15.8303 9.65953 15.8568 8.98501 15.91 8.31209C15.0195 8.41012 14.1324 8.55469 13.2651 8.78397ZM21.537 8.31712C21.5968 8.98999 21.6301 9.66449 21.64 10.339C22.5338 10.3407 23.4277 10.3407 24.3215 10.3424C24.3082 9.82241 24.2633 9.30569 24.1852 8.79238C23.3163 8.56478 22.4291 8.41691 21.537 8.31723L21.537 8.31712ZM11.1772 9.61635C10.8964 9.79745 10.624 10.0217 10.4778 10.3308C11.2021 10.3342 11.9265 10.3325 12.6508 10.3325C12.6591 9.86394 12.6923 9.39709 12.7488 8.93189C12.2039 9.10467 11.664 9.31066 11.1772 9.61635ZM24.7054 8.94183C24.7652 9.40703 24.8035 9.87388 24.8151 10.3424C25.5378 10.3424 26.2604 10.3441 26.9848 10.3424C26.8403 10.045 26.5811 9.8257 26.3087 9.6496C25.8152 9.33061 25.2619 9.12126 24.7054 8.94183ZM10.4844 10.8258C10.6422 11.1465 10.9329 11.3741 11.2303 11.5585C11.7071 11.8509 12.2321 12.0503 12.7621 12.2198C12.7023 11.7579 12.6657 11.2927 12.6541 10.8259C11.9298 10.8259 11.2071 10.8225 10.4844 10.8258ZM13.1458 10.8258C13.1591 11.3425 13.204 11.8576 13.282 12.3693C14.1509 12.5969 15.0381 12.7448 15.9303 12.8445C15.8721 12.1732 15.8389 11.5003 15.8289 10.8275C14.9351 10.8275 14.0412 10.8258 13.1458 10.8258ZM16.3223 10.8292C16.3322 11.5187 16.3655 12.2082 16.4303 12.8944C17.1181 12.9542 17.8075 12.9875 18.497 12.9941C18.4936 12.273 18.4903 11.552 18.487 10.8293L16.3223 10.8292ZM18.9805 10.8309C18.9839 11.552 18.9871 12.2731 18.9904 12.9957C19.6815 12.9891 20.3726 12.9575 21.0605 12.8977C21.1169 12.2099 21.1468 11.522 21.1502 10.8325C20.4258 10.8308 19.7031 10.8308 18.9804 10.8308L18.9805 10.8309ZM21.5588 12.8479C22.4493 12.7499 23.3364 12.6037 24.2037 12.376C24.2768 11.866 24.3167 11.3493 24.325 10.8342C23.4312 10.8342 22.5357 10.8325 21.6419 10.8325C21.6385 11.5054 21.612 12.1783 21.5588 12.8479ZM24.7221 12.2282C25.1358 12.0969 25.5445 11.9441 25.9316 11.7464C26.3419 11.5304 26.7705 11.2679 26.9849 10.8376C26.2622 10.8342 25.5395 10.8359 24.8185 10.8342C24.8102 11.2994 24.7786 11.7646 24.7221 12.2281L24.7221 12.2282ZM10.614 11.7298C10.7801 12.2398 11.0409 12.7167 11.3699 13.1403C11.9248 13.8597 12.6541 14.4312 13.4415 14.8765C13.1757 14.192 12.9797 13.4826 12.8484 12.7598C12.061 12.5239 11.2718 12.2332 10.614 11.7298ZM24.6407 12.7665C24.5178 13.4892 24.3268 14.1987 24.0676 14.8832C24.3218 14.737 24.5726 14.5808 24.8102 14.408C25.7323 13.7434 26.5214 12.8363 26.8636 11.7382C26.2107 12.2432 25.4232 12.5306 24.6407 12.7665ZM13.3766 12.9011C13.5311 13.6687 13.7654 14.4197 14.0844 15.134C14.1043 15.1839 14.1342 15.2337 14.189 15.252C14.9084 15.571 15.6643 15.8036 16.4352 15.9564C16.2208 15.0975 16.078 14.2236 15.9799 13.3464C15.1044 13.2517 14.2322 13.1121 13.3766 12.9011ZM21.514 13.348C21.4242 14.2269 21.2897 15.1008 21.0837 15.9598C21.8529 15.8069 22.6088 15.5777 23.3248 15.257C23.3813 15.2387 23.4079 15.1856 23.4311 15.1357C23.7418 14.423 23.9678 13.672 24.1156 12.9078C23.26 13.1171 22.3896 13.2566 21.514 13.348ZM10.9379 13.3862C11.3266 14.4445 11.9297 15.4248 12.7039 16.2472C13.6027 17.2074 14.7324 17.9501 15.9718 18.3954C15.0181 17.6793 14.2971 16.6924 13.7721 15.6308C13.6425 15.4995 13.4449 15.458 13.292 15.355C12.3899 14.8599 11.5642 14.207 10.9379 13.3862ZM16.4818 13.3928C16.5848 14.2883 16.7376 15.1771 16.9686 16.0478C17.4803 16.1258 17.9953 16.1674 18.5119 16.179C18.5085 15.2819 18.5036 14.3847 18.5003 13.4875C17.8258 13.4809 17.153 13.4493 16.4818 13.3928ZM18.9921 13.4875C18.9971 14.3847 19.0004 15.2819 19.0054 16.179C19.5221 16.1691 20.0388 16.1275 20.5521 16.0511C20.7764 15.1805 20.9193 14.29 21.014 13.3962C20.3411 13.4527 19.6666 13.4826 18.9921 13.4875ZM23.8499 15.5527C23.7336 15.5943 23.7037 15.7205 23.6506 15.8185C23.1488 16.8137 22.4578 17.7275 21.5622 18.4037C22.6555 18.0116 23.6622 17.3886 24.4978 16.5828C25.4232 15.6956 26.1359 14.5892 26.5645 13.3797C25.8618 14.3184 24.8965 15.0393 23.8499 15.5527ZM14.4733 15.9033C14.6261 16.1641 14.7873 16.42 14.965 16.6625C15.6296 17.573 16.525 18.3538 17.6116 18.7011C17.1098 18.0481 16.8174 17.2657 16.5815 16.4847C15.8621 16.3568 15.1561 16.1641 14.4733 15.9033ZM20.9443 16.4864C20.7134 17.2673 20.4293 18.0515 19.9309 18.706C20.205 18.6147 20.4725 18.5017 20.7234 18.3605C21.7252 17.8006 22.491 16.8951 23.0493 15.9049C22.3681 16.1674 21.662 16.3585 20.9443 16.4864ZM17.1215 16.5678C17.2611 16.9981 17.4206 17.4251 17.6332 17.8255C17.8492 18.2193 18.1084 18.628 18.5237 18.8357C18.5237 18.113 18.5171 17.3919 18.5154 16.6709C18.0486 16.6609 17.5834 16.626 17.1215 16.5678ZM19.0072 16.6708C19.0121 17.3935 19.0121 18.1163 19.0188 18.8373C19.3195 18.6945 19.5388 18.4303 19.7149 18.1562C20.0255 17.666 20.2316 17.1194 20.406 16.5696C19.9408 16.6277 19.4757 16.6625 19.0072 16.6708Z" fill="#FFDC1E"/>
<path d="M14.198 21.0506C15.1167 21.0523 16.0354 21.0523 16.9542 21.0523C16.8495 21.3646 16.8811 21.6953 16.8794 22.0175C16.8877 24.0212 16.8977 26.0232 16.9077 28.0252C16.9126 28.6432 17.0888 29.2945 17.544 29.7365C18.0141 30.2183 18.7135 30.3878 19.3698 30.3711C20.0177 30.3662 20.7039 30.1867 21.1674 29.7082C21.6542 29.2198 21.8236 28.5037 21.8236 27.8326C21.817 25.7674 21.8054 23.7023 21.7954 21.6371C21.7971 21.4411 21.7721 21.2434 21.7157 21.0557C22.1559 21.0574 22.5962 21.0574 23.0364 21.0574C22.9882 21.2335 22.9583 21.4162 22.96 21.599C22.97 23.7023 22.9816 25.8057 22.9899 27.9106C22.9916 28.6217 22.8321 29.3462 22.4483 29.9526C22.1077 30.5008 21.5861 30.9262 20.998 31.1837C20.2238 31.5259 19.3665 31.6223 18.5275 31.619C17.8098 31.6107 17.0788 31.5292 16.4126 31.2468C15.7497 30.9561 15.16 30.4709 14.7978 29.8379C14.4472 29.2331 14.3127 28.5254 14.3093 27.8325C14.2994 25.7425 14.2894 23.6508 14.2794 21.5608C14.2811 21.388 14.2495 21.2169 14.198 21.0507L14.198 21.0506ZM7.98128 26.7143C7.98791 27.9172 7.99289 29.1201 7.99791 30.3245C8.30525 30.3212 8.61427 30.3295 8.92162 30.3212C9.25722 30.3112 9.60775 30.1966 9.83369 29.9357C10.1012 29.6333 10.1826 29.2163 10.2009 28.8259C10.2175 28.3756 10.1826 27.9088 9.98654 27.4968C9.84366 27.1944 9.58449 26.9468 9.26883 26.8305C8.85848 26.6694 8.41157 26.7259 7.98128 26.7143ZM27.432 23.4696C27.0017 24.7605 26.5714 26.0531 26.1411 27.344C27.0133 27.3457 27.8872 27.3457 28.761 27.3457C28.3174 26.0532 27.8755 24.7605 27.4319 23.4696L27.432 23.4696ZM27.0299 21.0606C27.7626 21.0606 28.4952 21.0623 29.2262 21.0623C29.2445 21.3464 29.3641 21.6073 29.4588 21.8731C30.5453 24.8437 31.6335 27.8142 32.72 30.7849C32.7981 31.0291 32.9094 31.2634 33.0723 31.4644C32.0804 31.461 31.0886 31.461 30.0968 31.461C30.1034 31.2998 30.0785 31.1387 30.0237 30.9875C29.7362 30.1601 29.4488 29.331 29.1614 28.5037C28.0217 28.502 26.8821 28.502 25.7424 28.502C25.4899 29.2313 25.2357 29.9607 24.9831 30.69C24.8984 30.9392 24.7854 31.1884 24.812 31.4576C24.3435 31.4559 23.8734 31.4542 23.4048 31.4559C23.5145 31.2981 23.6025 31.1253 23.664 30.9409C24.7589 27.8008 25.8537 24.6624 26.9485 21.5224C27.0033 21.3745 27.0266 21.2167 27.0299 21.0605L27.0299 21.0606ZM7.95913 22.1671C7.96411 23.3202 7.97075 24.4732 7.97577 25.6262C8.42599 25.6179 8.89948 25.6677 9.32648 25.4916C9.54744 25.4102 9.71357 25.2274 9.81492 25.0198C10.0674 24.5014 10.1206 23.9017 10.0409 23.3368C9.98438 22.9447 9.79498 22.5393 9.43281 22.3449C8.98258 22.0924 8.4509 22.1871 7.95913 22.1671ZM5.27942 21.044C6.78631 21.0474 8.2931 21.0457 9.79827 21.049C10.5442 21.0589 11.3251 21.255 11.8832 21.77C12.3368 22.182 12.5561 22.7935 12.5943 23.3949C12.6392 24.0196 12.5494 24.6991 12.1391 25.1975C11.7753 25.6461 11.2137 25.8571 10.6755 26.0132C11.2337 26.1345 11.7919 26.3605 12.184 26.7891C12.6259 27.2476 12.817 27.8956 12.817 28.5219C12.8269 29.1832 12.6757 29.8743 12.2554 30.401C11.8334 30.9343 11.1955 31.2765 10.5276 31.3912C10.1488 31.4626 9.76169 31.4427 9.37953 31.446C8.02882 31.4443 6.67819 31.4426 5.32748 31.4426C5.42883 31.1419 5.40058 30.8229 5.40224 30.5106C5.38727 27.54 5.374 24.5677 5.35904 21.5972C5.36075 21.4094 5.33412 21.2234 5.2793 21.0439L5.27942 21.044Z" fill="#FDFDFD"/>
<path d="M0 33.3164H38.2775V40.0002H0V33.3164Z" fill="#57B851"/>
<path d="M24.7739 35.1292C25.186 35.1043 25.6362 35.0611 26.005 35.282C26.324 35.4664 26.4935 35.8286 26.54 36.1825C26.5848 36.553 26.5682 36.9368 26.4719 37.299C26.3871 37.6146 26.1978 37.9187 25.9004 38.0699C25.5548 38.2509 25.1494 38.2044 24.774 38.1812C24.7524 37.1644 24.7523 36.1459 24.7739 35.1292ZM18.5787 35.086C18.9143 34.9913 19.3047 35.0478 19.5738 35.2787C19.8164 35.4847 19.9559 35.7904 20.0141 36.0994C20.0772 36.4517 20.0656 36.8172 19.9991 37.1678C19.931 37.5 19.7848 37.829 19.5223 38.05C19.2316 38.2959 18.8046 38.3258 18.4591 38.1912C18.1052 38.05 17.8776 37.7027 17.7846 37.3455C17.6782 36.9119 17.6948 36.45 17.8012 36.0181C17.9059 35.6177 18.1601 35.2089 18.5787 35.086ZM11.7273 35.0894C12.0214 35.0046 12.3537 35.0329 12.6162 35.1941C12.872 35.3519 13.0415 35.6227 13.1278 35.9068C13.2309 36.254 13.2309 36.6229 13.191 36.9801C13.1428 37.3539 13.0132 37.7344 12.7391 38.0018C12.3404 38.3906 11.6194 38.3507 11.2538 37.9337C10.9648 37.6147 10.8734 37.1678 10.875 36.7475C10.875 36.3006 10.9515 35.8271 11.2239 35.4582C11.3502 35.2887 11.5247 35.1508 11.7273 35.0894ZM11.6925 34.7106C11.2339 34.7654 10.7887 34.9781 10.4796 35.3269C10.1108 35.7274 9.96296 36.2872 9.98122 36.8223C9.9862 37.2958 10.1723 37.7709 10.5261 38.0899C10.9797 38.5252 11.6409 38.6614 12.2506 38.6166C12.7607 38.5867 13.2674 38.3757 13.608 37.9919C14.0499 37.5117 14.1778 36.8123 14.0798 36.1826C14.0083 35.7307 13.7425 35.317 13.3654 35.0595C12.8836 34.7206 12.2656 34.6459 11.6924 34.7107L11.6925 34.7106ZM18.5456 34.7088C18.1568 34.7554 17.7764 34.9065 17.4807 35.1691C17.1501 35.4532 16.9324 35.8585 16.8593 36.2871C16.7796 36.7573 16.8062 37.2691 17.0487 37.6927C17.3229 38.1745 17.8362 38.4918 18.3778 38.5799C19.0391 38.6945 19.7866 38.5998 20.3 38.1363C20.7536 37.7475 20.9613 37.1394 20.9496 36.5547C20.9579 36.0513 20.7669 35.5346 20.3814 35.199C19.8913 34.7504 19.1852 34.6357 18.5456 34.7088ZM31.1867 34.7171C30.7697 34.7952 30.4042 35.1192 30.2929 35.5312C30.2181 35.812 30.2298 36.1277 30.3727 36.3868C30.5022 36.6211 30.7232 36.7872 30.9558 36.9102C31.2199 37.0481 31.5057 37.1594 31.73 37.3621C31.9277 37.5415 31.9426 37.8805 31.7615 38.0765C31.5506 38.3158 31.1817 38.3407 30.901 38.2294C30.685 38.1413 30.567 37.9253 30.4906 37.7177C30.4541 37.7193 30.4175 37.721 30.381 37.7226C30.3394 37.9519 30.2846 38.1795 30.2148 38.4022C30.6418 38.5982 31.1352 38.6896 31.597 38.57C32.0057 38.462 32.3745 38.1463 32.4875 37.731C32.5805 37.3804 32.524 36.975 32.2798 36.6976C31.9708 36.3237 31.4641 36.229 31.0986 35.9317C30.8859 35.7721 30.8344 35.4299 31.0172 35.2289C31.2033 35.0179 31.5306 35.0029 31.7781 35.0976C31.9459 35.1641 32.0389 35.3285 32.107 35.4847C32.132 35.483 32.1818 35.4797 32.2067 35.4797C32.2599 35.2937 32.3197 35.1109 32.3895 34.9331C32.024 34.7387 31.5987 34.6357 31.1867 34.7171ZM23.9149 34.7254C23.9615 35.2189 23.9565 35.7157 23.9615 36.2124C23.9581 37.0033 23.9781 37.7974 23.9149 38.5866C24.3618 38.5002 24.8154 38.5766 25.2639 38.5866C25.8172 38.6099 26.4152 38.5118 26.8456 38.1397C27.2426 37.809 27.4254 37.2874 27.452 36.784C27.4852 36.249 27.4038 35.6625 27.0316 35.2505C26.6977 34.87 26.1744 34.7238 25.6843 34.7238C25.0945 34.7272 24.5015 34.8251 23.9149 34.7254ZM5.19341 34.7237C5.24824 35.3202 5.23661 35.9199 5.24326 36.5181C5.23828 37.1976 5.25321 37.8787 5.19507 38.5549C5.48913 38.5433 5.78485 38.5433 6.08058 38.5549C6.03738 37.9618 6.03406 37.3653 6.03738 36.7689C6.44607 36.7739 6.85809 36.7639 7.26513 36.8137C7.25186 36.6659 7.25186 36.518 7.26513 36.3718C6.8581 36.42 6.44609 36.4117 6.03738 36.415V35.1241C6.46933 35.1174 6.90128 35.1158 7.33154 35.1656C7.31657 35.0194 7.31827 34.8732 7.33154 34.727C6.62049 34.7785 5.90452 34.7886 5.19341 34.7237Z" fill="white"/>
</g>
<defs>
<clipPath id="clip0_291_3629">
<rect width="38.2775" height="40" fill="white"/>
</clipPath>
</defs>
</svg>
