<svg width="219" height="40" viewBox="0 0 219 40" fill="none" xmlns="http://www.w3.org/2000/svg">
<g clip-path="url(#clip0_298_13362)">
<mask id="mask0_298_13362" style="mask-type:luminance" maskUnits="userSpaceOnUse" x="0" y="0" width="219" height="40">
<path d="M218.286 0H0V40H218.286V0Z" fill="white"/>
</mask>
<g mask="url(#mask0_298_13362)">
<path d="M53.4313 20.6318L35.9682 3.16865C33.9334 1.13949 31.1769 0 28.3032 0C25.4295 0 22.673 1.13949 20.6383 3.16865L3.17513 20.6318C1.19214 22.675 0.0924437 25.4162 0.11358 28.2634C0.134717 31.1106 1.275 33.8352 3.2881 35.8488C5.30122 37.8623 8.0256 39.0031 10.8728 39.0249C13.72 39.0466 16.4615 37.9476 18.505 35.9649L28.3048 26.1652L38.1014 35.9649C40.1449 37.9476 42.8864 39.0466 45.7336 39.0249C48.5808 39.0031 51.3053 37.8623 53.3183 35.8488C55.3314 33.8352 56.4718 31.1106 56.4928 28.2634C56.514 25.4162 55.4143 22.675 53.4313 20.6318ZM40.3789 30.5438L42.2137 28.7089L28.3048 14.7968L12.8305 30.2807C12.5704 30.5415 12.2615 30.7485 11.9214 30.8898C11.5813 31.0312 11.2166 31.1041 10.8483 31.1046C10.48 31.105 10.1152 31.0329 9.77477 30.8925C9.43431 30.7519 9.12488 30.5457 8.86413 30.2856C8.60337 30.0255 8.3964 29.7165 8.25504 29.3764C8.11368 29.0362 8.04069 28.6717 8.04024 28.3033C8.0398 27.935 8.1119 27.5703 8.25244 27.2298C8.39297 26.8894 8.59919 26.5799 8.85932 26.3191L26.3224 8.85284C26.8485 8.32884 27.5607 8.03464 28.3032 8.03464C29.0457 8.03464 29.758 8.32884 30.284 8.85284L46.1913 24.7473L48.0294 22.9093L49.7199 32.2407L40.3789 30.5438Z" fill="#7165E3"/>
<path d="M86.8883 25.9469H79.5938L78.2401 29.299H73.2617L80.8769 12.0508H85.6886L93.3295 29.299H88.2421L86.8883 25.9469ZM85.4577 22.351L83.241 16.8304L81.0245 22.351H85.4577Z" fill="#333D47"/>
<path d="M99.6128 16.4355H102.792V19.9351H99.7347V29.2987H95.0545V19.9351H93.1074V16.4355H95.0545V16.0923C95.0545 12.8845 97.0498 10.793 100.623 10.793C101.756 10.793 102.965 11.0143 103.728 11.4827L102.57 14.7835C102.141 14.5397 101.659 14.4053 101.165 14.3921C100.181 14.3921 99.6128 14.9567 99.6128 16.1404V16.4355Z" fill="#333D47"/>
<path d="M113.48 15.7188V19.937C113.129 19.8894 112.776 19.8646 112.422 19.8631C110.523 19.8631 109.214 20.8254 109.214 23.1639V29.3005H104.537V15.9433H108.996V17.5471C109.958 16.3377 111.511 15.7188 113.48 15.7188Z" fill="#333D47"/>
<path d="M114.922 11.9775C114.922 10.5725 116.057 9.48828 117.78 9.48828C119.502 9.48828 120.637 10.4987 120.637 11.9038C120.637 13.3825 119.506 14.4699 117.78 14.4699C116.053 14.4699 114.922 13.3825 114.922 11.9775ZM115.441 15.9423H120.121V29.2994H115.441V15.9423Z" fill="#333D47"/>
<path d="M122.242 20.6731C122.242 15.4252 126.258 11.6914 131.728 11.6914C134.906 11.6914 137.466 12.8493 139.144 14.9441L136.039 17.754C134.954 16.4485 133.623 15.7331 131.975 15.7331C129.139 15.7331 127.163 17.7027 127.163 20.6603C127.163 23.6179 129.132 25.5906 131.975 25.5906C133.623 25.5906 134.954 24.8753 136.039 23.5698L139.144 26.3765C137.466 28.4712 134.906 29.6292 131.728 29.6292C126.258 29.642 122.242 25.921 122.242 20.6731Z" fill="#333D47"/>
<path d="M154.774 21.6622V29.2999H150.094V22.4257C150.094 20.501 149.254 19.6895 147.899 19.6895C146.395 19.6895 145.237 20.6261 145.237 22.8426V29.2999H140.557V11.0156H145.237V17.1745C146.342 16.1958 147.778 15.675 149.254 15.7182C152.384 15.7182 154.774 17.521 154.774 21.6622Z" fill="#333D47"/>
<path d="M169.407 21.8841V29.3005H165.045V27.5876C164.381 28.8706 163.049 29.5121 161.103 29.5121C157.895 29.5121 156.127 27.7126 156.127 25.3966C156.127 22.933 157.927 21.4062 162.065 21.4062H164.727C164.65 20.0493 163.74 19.2858 161.892 19.2858C160.593 19.2841 159.327 19.689 158.27 20.4438L156.692 17.2649C158.222 16.2641 160.487 15.7188 162.582 15.7188C166.918 15.7188 169.407 17.6434 169.407 21.8841ZM164.727 25.0212V23.8537H162.706C161.202 23.8537 160.66 24.3958 160.66 25.2105C160.66 26.0254 161.302 26.5641 162.408 26.5641C162.91 26.594 163.408 26.4594 163.826 26.1812C164.245 25.9028 164.561 25.4956 164.727 25.0212Z" fill="#333D47"/>
<path d="M185.201 21.6619V29.2997H180.517V22.4254C180.517 20.5007 179.68 19.6891 178.327 19.6891C176.821 19.6891 175.664 20.6258 175.664 22.8424V29.2997H170.975V15.9425H175.433V17.3989C175.988 16.8425 176.651 16.4063 177.381 16.1171C178.113 15.828 178.895 15.6921 179.68 15.7179C182.811 15.7179 185.201 17.5207 185.201 21.6619Z" fill="#333D47"/>
<path d="M201.877 15.9433V26.8497C201.877 31.9019 199.019 34.2918 194.04 34.2918C191.475 34.2918 189.039 33.7015 187.413 32.5434L189.114 29.2651C190.223 30.1537 192.045 30.6926 193.623 30.6926C196.135 30.6926 197.197 29.5602 197.197 27.4655V27.0326C196.283 28.0911 194.93 28.6109 193.229 28.6109C189.682 28.6109 186.676 26.0959 186.676 22.1536C186.676 18.2112 189.682 15.7188 193.229 15.7188C195.077 15.7188 196.508 16.3122 197.419 17.5664V15.9433H201.877ZM197.245 22.1536C197.245 20.5272 196.013 19.443 194.339 19.443C192.664 19.443 191.407 20.5304 191.407 22.1536C191.407 23.7767 192.661 24.8897 194.339 24.8897C196.016 24.8897 197.245 23.7799 197.245 22.1536Z" fill="#333D47"/>
<path d="M218.211 23.8055H208.505C208.899 25.1591 210.057 25.9484 211.783 25.9484C212.347 25.968 212.91 25.8758 213.439 25.677C213.967 25.4783 214.451 25.1769 214.863 24.7903L217.326 27.3566C216.043 28.7839 214.173 29.525 211.632 29.525C206.879 29.525 203.799 26.5932 203.799 22.5993C203.799 18.6056 206.927 15.7188 211.142 15.7188C215.085 15.7188 218.286 18.2336 218.286 22.6443C218.286 22.9907 218.238 23.4366 218.211 23.8055ZM208.431 21.3419H213.901C213.785 20.7 213.449 20.1191 212.949 19.7006C212.449 19.2819 211.818 19.0527 211.166 19.0527C210.514 19.0527 209.882 19.2819 209.383 19.7006C208.882 20.1191 208.546 20.7 208.431 21.3419Z" fill="#333D47"/>
</g>
</g>
<defs>
<clipPath id="clip0_298_13362">
<rect width="219" height="40" fill="white"/>
</clipPath>
</defs>
</svg>
