<svg width="154" height="40" viewBox="0 0 154 40" fill="none" xmlns="http://www.w3.org/2000/svg">
<g clip-path="url(#clip0_298_13008)">
<path fill-rule="evenodd" clip-rule="evenodd" d="M42.8435 34.3684L46.6046 0.112305H52.8868L51.2957 14.3686C52.2463 13.0871 53.2829 12.0841 54.4057 11.3594C55.5285 10.6348 56.7168 10.2725 57.9704 10.2725C58.8524 10.2725 59.6582 10.4441 60.3885 10.7874C61.1185 11.1306 61.7488 11.6684 62.2793 12.4006C62.8096 13.1329 63.223 14.0673 63.5191 15.2038C63.8155 16.3404 63.9635 17.6943 63.9635 19.2656C63.9635 21.3404 63.6777 23.3121 63.1057 25.1809C62.5341 27.0497 61.766 28.6934 60.8016 30.1123C59.8374 31.5309 58.7249 32.6562 57.4643 33.4876C56.2038 34.319 54.8846 34.7348 53.5068 34.7348C52.446 34.7348 51.5127 34.5095 50.7068 34.0595C49.9007 33.6095 49.2154 33.0184 48.6504 32.2862L48.5885 32.5151C48.2552 33.622 47.3216 34.3684 46.2699 34.3684H42.8435ZM55.4079 15.65C54.9535 15.65 54.4816 15.8407 53.9924 16.2221C53.5035 16.6035 53.0316 17.126 52.5768 17.7896C52.1224 18.4532 51.6988 19.2313 51.306 20.1237C50.9132 21.0162 50.5863 21.9658 50.3243 22.9727L49.7043 28.5104C50.1041 28.8765 50.5518 29.1359 51.0477 29.2884C51.5438 29.4409 52.0191 29.5173 52.4735 29.5173C53.2177 29.5173 53.9029 29.2426 54.5299 28.6934C55.1566 28.1443 55.6974 27.4235 56.1521 26.531C56.6066 25.6386 56.9613 24.6203 57.2163 23.4761C57.471 22.3319 57.5985 21.1649 57.5985 19.975C57.5985 18.4647 57.3988 17.3663 56.9993 16.6798C56.5996 15.9933 56.0693 15.65 55.4079 15.65ZM83.2235 34.3684H80.8174C79.0943 34.3684 77.6974 32.8181 77.6974 30.9056C77.6974 30.7473 77.7071 30.5893 77.7266 30.4326C76.8449 31.7751 75.8666 32.8279 74.7921 33.5906C73.7174 34.3534 72.5327 34.7348 71.2377 34.7348C70.466 34.7348 69.7221 34.5631 69.0057 34.2198C68.2893 33.8765 67.6557 33.3579 67.1046 32.6637C66.5535 31.9695 66.1127 31.0848 65.7821 30.0093C65.4513 28.9337 65.286 27.6638 65.286 26.1992C65.286 24.0482 65.6407 22.0078 66.3502 20.0779C67.0599 18.1481 68.0518 16.4586 69.326 15.0093C70.6005 13.56 72.1124 12.4083 73.8621 11.5539C75.6118 10.6996 77.5335 10.2725 79.6277 10.2725C80.6471 10.2725 81.6804 10.3488 82.7274 10.5013C83.7746 10.6539 84.8077 10.9285 85.8274 11.3251L83.2235 34.3684ZM73.8002 29.1284C74.2685 29.1284 74.7232 28.9337 75.1641 28.5448C75.6049 28.1556 76.0216 27.6256 76.4143 26.9544C76.8068 26.2831 77.1685 25.4975 77.4991 24.5974C77.8299 23.6973 78.1124 22.7362 78.3466 21.7141L79.0905 15.1466H78.7185C77.6713 15.1466 76.7174 15.4059 75.8563 15.9246C74.9952 16.4433 74.2549 17.1489 73.6349 18.0413C73.0149 18.9338 72.536 19.9712 72.1985 21.1535C71.861 22.3358 71.6924 23.5981 71.6924 24.9406C71.6924 25.7034 71.7474 26.3518 71.8577 26.8857C71.9677 27.4197 72.116 27.8506 72.3018 28.1787C72.4879 28.5068 72.7082 28.747 72.9632 28.8995C73.2179 29.052 73.4971 29.1284 73.8002 29.1284ZM87.2738 34.3684L89.8777 10.6386H91.2771C93.5043 10.6386 95.3099 12.6426 95.3099 15.1147C95.3099 15.2552 95.3038 15.3957 95.2918 15.5356C96.1185 13.9185 97.0141 12.6752 97.9785 11.8056C98.9429 10.9361 99.9416 10.5013 100.975 10.5013C101.554 10.5013 102.125 10.6462 102.69 10.9361L101.533 17.5036C100.83 17.168 100.162 17.0001 99.5282 17.0001C98.4674 17.0001 97.5274 17.5303 96.7077 18.5905C95.888 19.6508 95.2232 21.3556 94.7132 23.7049L93.556 34.3684H87.2738ZM104.839 29.2426V28.8537C104.839 28.7012 104.85 28.4837 104.87 28.2015C104.891 27.9193 104.925 27.5455 104.974 27.0802C105.022 26.6149 105.087 26.0009 105.17 25.2381L106.265 15.5356H104.55C104.288 15.5356 104.068 15.4403 103.889 15.2496C103.71 15.0589 103.62 14.7729 103.62 14.3915C103.62 14.3762 103.634 14.2427 103.661 13.991C103.689 13.7393 103.717 13.4723 103.744 13.1901C103.772 12.9079 103.799 12.6447 103.827 12.4006C103.854 12.1565 103.868 12.0192 103.868 11.9887L104.02 10.6844L107.175 10.6386L107.738 6.46261C107.949 4.90394 109.155 3.75075 110.575 3.75075H113.849L113.064 10.6844H117.858L117.817 11.0632C117.534 13.6169 115.579 15.5356 113.261 15.5356H112.527L111.494 24.8491C111.425 25.4746 111.373 25.9666 111.339 26.3251C111.304 26.6836 111.277 26.9582 111.256 27.1489C111.242 27.2785 111.228 27.4082 111.215 27.5379C111.208 27.6066 111.204 27.6485 111.204 27.6638C111.204 28.1062 111.297 28.4762 111.483 28.7737C111.669 29.0712 111.962 29.2198 112.362 29.2198C112.582 29.2198 112.764 29.1931 112.909 29.1398C113.005 29.1042 113.347 28.9554 113.932 28.6934L116.04 32.6751C115.186 33.3618 114.27 33.8765 113.291 34.2198C112.313 34.5631 111.328 34.7348 110.336 34.7348C109.51 34.7348 108.766 34.6087 108.104 34.357C107.443 34.1054 106.875 33.7393 106.4 33.2587C105.924 32.7781 105.552 32.2023 105.284 31.5309C105.015 30.8598 104.867 30.097 104.839 29.2426ZM136.788 16.4738C136.788 17.557 136.595 18.5486 136.209 19.4487C135.824 20.3488 135.152 21.1458 134.194 21.84C133.237 22.5341 131.949 23.1252 130.33 23.6134C128.711 24.1016 126.676 24.483 124.223 24.7576C124.251 26.3747 124.571 27.5569 125.184 28.3045C125.797 29.052 126.703 29.4256 127.902 29.4256C128.467 29.4256 128.956 29.3723 129.369 29.2656C129.782 29.1587 130.144 29.0215 130.454 28.8537C132.312 27.8481 134.533 28.1895 136.074 29.7181L136.333 29.9751C135.575 30.7987 134.835 31.512 134.112 32.1145C133.388 32.717 132.644 33.2129 131.88 33.602C131.115 33.9909 130.302 34.277 129.441 34.4601C128.58 34.6431 127.64 34.7348 126.62 34.7348C125.353 34.7348 124.189 34.4945 123.128 34.014C122.067 33.5334 121.155 32.8545 120.39 31.9773C119.625 31.1001 119.033 30.0437 118.613 28.8079C118.192 27.5722 117.982 26.1992 117.982 24.6889C117.982 23.4227 118.11 22.187 118.365 20.9818C118.62 19.7766 118.985 18.6439 119.46 17.5837C119.935 16.5234 120.517 15.5471 121.206 14.6546C121.895 13.7622 122.67 12.9956 123.531 12.3549C124.392 11.7141 125.336 11.2145 126.362 10.856C127.388 10.4975 128.48 10.3182 129.638 10.3182C130.781 10.3182 131.797 10.5013 132.686 10.8674C133.574 11.2336 134.322 11.7103 134.928 12.2976C135.534 12.885 135.996 13.5448 136.312 14.2771C136.629 15.0093 136.788 15.7416 136.788 16.4738ZM129.266 15.1008C128.205 15.1008 127.275 15.5699 126.476 16.5082C125.677 17.4464 125.077 18.7316 124.678 20.364C126.014 20.1352 127.096 19.8949 127.922 19.6432C128.749 19.3914 129.39 19.1169 129.844 18.8194C130.299 18.5219 130.605 18.2015 130.764 17.8583C130.922 17.515 131.002 17.1451 131.002 16.7484C131.002 16.3518 130.864 15.978 130.588 15.6272C130.313 15.2763 129.872 15.1008 129.266 15.1008ZM137.862 34.3684L140.466 10.6386H141.468C143.905 10.6386 145.88 12.8311 145.88 15.5356C146.707 13.9185 147.603 12.6752 148.567 11.8056C149.531 10.9361 150.53 10.5013 151.564 10.5013C152.142 10.5013 152.714 10.6462 153.278 10.9361L152.121 17.5036C151.419 17.168 150.751 17.0001 150.117 17.0001C149.056 17.0001 148.116 17.5303 147.296 18.5905C146.476 19.6508 145.812 21.3556 145.302 23.7049L144.145 34.3684H137.862Z" fill="black"/>
<path d="M26.581 17.0445C31.592 12.8308 41.9 -2.22953 25.7936 0.423577C18.7783 1.51602 10.0818 7.90058 8.00584 15.8599C6.92278 13.7316 5.7277 11.6733 4.42659 9.69533C2.49381 6.96419 -1.33699 9.63144 0.810534 12.4406C6.89526 20.478 11.1187 30.154 11.1187 39.9081C11.6198 35.0701 12.4441 28.5792 10.5829 22.8048C11.264 23.3159 11.3133 23.3542 11.7874 23.9774C15.0803 29.4398 20.1384 33.9776 25.7936 36.1626C30.9478 38.2695 37.8198 37.0209 35.0281 28.5934C33.5248 23.9895 30.017 19.9318 26.581 17.0445Z" fill="#F5A623"/>
</g>
<defs>
<clipPath id="clip0_298_13008">
<rect width="153.333" height="40" fill="white"/>
</clipPath>
</defs>
</svg>
