<svg width="221" height="60" viewBox="0 0 221 60" fill="none" xmlns="http://www.w3.org/2000/svg">
<path d="M73.1478 41.6587C66.765 43.216 60.9778 39.7985 59.4459 33.2232L59.4033 33.1368C57.9566 26.9506 61.0629 20.8512 67.2756 19.3804C74.4244 17.65 78.8499 22.7979 79.9136 27.2967C80.3392 29.0704 79.403 30.5411 77.7861 30.9305L65.8713 33.8288C67.1054 36.4676 69.3607 37.4626 72.0415 36.8137C73.7436 36.3811 74.9775 35.5591 75.9988 34.3479C76.3818 33.9153 76.7222 33.6558 77.3606 33.526C78.7647 33.1799 79.9136 33.9586 80.2542 35.3862C80.4244 36.208 80.2116 36.8569 79.8712 37.3761C78.3817 39.3228 76.2542 40.9233 73.1478 41.6587ZM73.9564 27.7726C72.935 25.1338 70.9351 23.663 68.4245 24.2686C65.8713 24.8743 64.7224 27.0804 64.9351 29.9789L73.9564 27.7726Z" fill="#112BF4"/>
<path d="M104.679 38.5866C104.679 40.3601 103.36 41.7444 101.615 41.7444C99.8708 41.7444 98.5091 40.4035 98.5091 38.6298V38.3703C97.0197 40.4899 94.9773 41.9607 91.7433 42.004C86.6795 42.0473 81.786 38.0242 81.7434 30.5836V30.4972C81.7009 23.0999 86.4242 19.0335 91.6156 18.9903C94.8922 18.9903 96.9347 20.5044 98.424 22.278L98.3815 14.2751C98.3815 12.5015 99.7006 11.1172 101.445 11.1172C103.19 11.1172 104.552 12.4582 104.552 14.2318L104.679 38.5866ZM87.9135 30.4538V30.5405C87.9135 34.2175 90.3815 36.6398 93.2752 36.6398C96.1688 36.6398 98.5516 34.1741 98.5516 30.4972V30.4107C98.5516 26.7337 96.1262 24.3112 93.2326 24.3112C90.3391 24.3112 87.9135 26.7337 87.9135 30.4538Z" fill="#112BF4"/>
<path d="M127.658 38.4573C127.658 40.2308 126.339 41.6152 124.594 41.6152C122.849 41.6152 121.488 40.2741 121.488 38.5004V38.241C120.083 40.1011 118.211 41.8315 115.105 41.8315C110.381 41.8746 107.658 38.7601 107.658 33.6122L107.615 22.1487C107.615 20.375 108.935 18.9908 110.679 18.9908C112.424 18.9908 113.786 20.3319 113.786 22.1054L113.828 31.5791C113.828 34.564 115.19 36.0781 117.573 36.0781C119.956 36.0781 121.402 34.5207 121.402 31.5358L121.36 22.0622C121.36 20.2885 122.679 18.9043 124.424 18.9043C126.168 18.9043 127.53 20.2452 127.53 22.0189L127.615 38.414L127.658 38.4573Z" fill="#112BF4"/>
<path d="M130.679 14.0593C130.679 12.2857 131.998 10.9014 133.743 10.9014C135.487 10.9014 136.849 12.2424 136.849 14.016L136.934 27.7723L144.636 20.2886C145.572 19.4234 146.253 18.861 147.36 18.861C149.019 18.861 150.083 20.2021 150.126 21.6728C150.126 22.7976 149.573 23.5763 148.721 24.3981L143.828 28.6375L149.7 36.5971C150.211 37.2892 150.465 38.0247 150.465 38.6303C150.465 40.3174 149.189 41.4854 147.615 41.4854C146.338 41.4854 145.7 41.096 144.934 40.0578L139.487 32.5308L137.019 34.8235V38.414C137.019 40.1876 135.7 41.5719 133.956 41.5719C132.211 41.5719 130.849 40.2308 130.849 38.4573L130.679 14.0593Z" fill="#112BF4"/>
<path d="M150.806 30.2807V30.1942C150.764 23.8352 155.785 18.644 162.594 18.6009C169.317 18.5575 174.381 23.6189 174.423 29.9779V30.0644C174.465 36.4235 169.444 41.6145 162.637 41.6578C155.912 41.701 150.849 36.683 150.806 30.2807ZM168.338 30.1942V30.1077C168.338 26.8633 165.998 24.0082 162.55 24.0082C159.019 24.0082 156.934 26.7768 156.934 30.0644V30.151C156.934 33.3954 159.274 36.2504 162.722 36.2504C166.253 36.2504 168.338 33.4819 168.338 30.1942Z" fill="#112BF4"/>
<path d="M177.104 47.2822C176.167 46.9794 175.146 46.2008 175.103 44.6867C175.103 43.1293 176.252 42.1344 177.53 42.1344C178.04 42.1344 178.253 42.1777 178.551 42.3075C179.062 42.4805 179.401 42.567 179.827 42.567C180.934 42.567 181.402 42.3507 181.997 41.226L182.21 40.7068L174.679 23.1871C174.508 22.7112 174.338 22.1921 174.338 21.7595C174.338 19.9859 175.614 18.7314 177.402 18.7314C178.975 18.7314 179.827 19.5966 180.38 21.0673L185.189 33.9586L188.337 24.6145C188.848 23.3168 189.699 22.1921 191.274 22.1921C192.849 22.1921 194.21 23.4034 194.21 25.0904C194.21 25.6095 194.04 26.3017 193.955 26.6045L187.828 41.6586C185.997 46.1574 184.21 47.8878 180.508 47.8878C179.062 47.8446 178.125 47.6283 177.104 47.2822Z" fill="#112BF4"/>
<path d="M195.657 34.6505V34.564C195.615 29.7622 199.273 27.4695 204.423 27.4263C206.678 27.4263 208.168 27.7724 209.742 28.2915V27.9021C209.742 25.2634 208.125 23.879 205.061 23.879C203.317 23.879 201.997 24.1386 200.805 24.5279C200.466 24.6577 200.167 24.701 199.913 24.701C198.508 24.701 197.359 23.6195 197.317 22.1487C197.317 21.024 197.997 20.0722 198.976 19.6829C200.933 18.9043 203.018 18.515 205.955 18.4717C209.359 18.4717 211.741 19.2937 213.316 20.8942C214.933 22.5381 215.699 24.9605 215.699 27.9454L215.741 38.0247C215.741 39.7118 214.422 41.0528 212.763 41.0528C210.976 41.0528 209.785 39.7983 209.785 38.4572V38.4141C208.295 40.1011 206.252 41.2259 203.189 41.269C199.061 41.3989 195.657 39.0629 195.657 34.6505ZM209.827 33.0932V31.9685C208.721 31.4494 207.401 31.1466 205.869 31.1466C203.232 31.1466 201.615 32.2712 201.615 34.2179V34.3044C201.615 35.9915 203.018 36.9865 205.019 36.9865C207.954 37.0297 209.87 35.4291 209.827 33.0932Z" fill="#112BF4"/>
<path d="M31.2337 26.0415L22.5103 28.1611C22.5103 28.0746 22.5103 28.0314 22.5103 27.9881V27.9448C22.5103 27.8583 22.5103 27.8151 22.5528 27.7285C22.5528 27.642 22.5528 27.5987 22.5954 27.5122C22.9358 25.4791 24.1273 24.0083 26.1272 23.5758C28.2975 23.0134 30.1272 24.0515 31.2337 26.0415Z" fill="#112BF4"/>
<path fill-rule="evenodd" clip-rule="evenodd" d="M15.2762 5.19043C8.4678 5.19043 2.97852 10.8141 2.97852 17.6922V54.3758H37.8716C45.0205 54.3758 50.8076 48.4925 50.8076 41.2251V17.5192C50.8076 10.7276 45.3609 5.19043 38.6801 5.19043H15.2762Z" fill="white"/>
<path d="M38.2972 25.6636H38.2892L29.7003 27.7395L32.0464 27.1727C32.0464 27.1727 32.0464 27.1644 32.0384 27.1644C31.8777 26.7224 31.6928 26.3056 31.484 25.9221C30.2948 23.7379 28.3586 22.6291 26.0044 23.2044C23.8432 23.7213 22.5898 25.3386 22.2202 27.5645C22.2121 27.6395 22.1962 27.7063 22.1881 27.7812C22.1801 27.8563 22.172 27.9397 22.1559 28.0146C22.1479 28.098 22.1398 28.1731 22.1318 28.2564L15.7444 29.8487C15.7364 24.138 19.0786 19.061 24.7671 17.6771C31.4037 16.0514 35.8949 20.003 37.791 24.3464C38 24.78 38.1607 25.2218 38.2972 25.6636Z" fill="#112BF4"/>
<path d="M38.2345 37.213C36.5983 39.4686 34.2564 41.1867 30.8477 42.009C24.5919 43.491 18.8974 40.6004 16.5955 34.7376L22.9717 33.2719L23.9422 33.0521L22.9717 33.2801C24.3191 36.1707 26.7653 37.2701 29.6927 36.5779C31.5535 36.1301 32.8929 35.2018 33.9997 33.8745C34.3928 33.4103 34.7857 33.1334 35.4835 32.9625C36.9914 32.5879 38.2906 33.4592 38.6436 35.0063C38.8601 35.8939 38.6035 36.6105 38.2345 37.213Z" fill="#00BE7E"/>
<path d="M36.8389 30.1914L27.8157 32.3802L23.1791 33.499L16.8087 35.0394C16.7926 34.9989 16.7765 34.9583 16.7604 34.9178C16.5023 34.253 16.2766 33.5638 16.1072 32.8261L16.0911 32.737C15.9539 32.1047 15.8492 31.4561 15.7846 30.8237H15.8009C15.7605 30.4021 15.7444 29.9887 15.7444 29.5753L22.155 28.0269L31.533 25.7568H31.5412L37.8793 24.2246C38.0727 24.6543 38.242 25.0839 38.3792 25.5218H38.3711C38.4759 25.8379 38.5485 26.1459 38.6211 26.4459C39.0162 28.1565 38.2259 29.5996 36.8389 30.1914Z" fill="#195EF7"/>
</svg>
