<svg width="168" height="40" viewBox="0 0 168 40" fill="none" xmlns="http://www.w3.org/2000/svg">
<path d="M57.1815 13.6123H54.5105V27.3552H57.1815V13.6123Z" fill="#2A3362"/>
<path d="M67.5188 22.4782C67.5188 24.3749 66.2985 25.2271 64.6737 25.2271C63.0489 25.2271 61.963 24.3749 61.963 22.5744V17.6768H59.292V23.1945C59.292 25.9417 61.0146 27.5483 63.8796 27.5483C65.6801 27.5483 66.6865 26.8851 67.3613 26.1357H67.5171L67.7493 27.3559H70.2064V17.6768H67.5188V22.4782Z" fill="#2A3362"/>
<path d="M93.7196 25.44C91.7649 25.44 90.6624 24.5496 90.4883 23.2531H98.9654C99.0045 22.9835 99.0239 22.7115 99.0235 22.439C99.0052 18.9573 96.3707 17.4834 93.5522 17.4834C90.281 17.4834 87.8223 19.4398 87.8223 22.5949C87.8223 25.5942 90.1849 27.5489 93.7263 27.5489C96.689 27.5489 98.662 26.2341 99.0699 24.2197H96.4304C96.1005 25.0139 95.1521 25.44 93.7196 25.44ZM93.5538 19.594C95.2582 19.594 96.2447 20.3484 96.4006 21.4177H90.5463C90.7966 20.3931 91.7848 19.594 93.5455 19.594H93.5538Z" fill="#2A3362"/>
<path d="M103.561 19.0662H103.396L103.144 17.6719H100.716V27.356H103.387V23.1945C103.387 21.3161 104.47 20.2716 106.484 20.2716C106.85 20.2665 107.216 20.2987 107.575 20.3677V17.6768H107.202C105.422 17.6768 104.316 18.0449 103.561 19.0662Z" fill="#2A3362"/>
<path d="M120.69 24.3351H120.536L118.251 18.2769H115.502L113.257 24.3169H113.083L110.954 17.6768H108.302L111.573 27.3559H114.477L116.8 21.18H116.954L119.239 27.3559H122.162L125.433 17.6768H122.781L120.69 24.3351Z" fill="#2A3362"/>
<path d="M136.064 24.5383V21.2987C136.064 18.6658 133.837 17.4854 131.069 17.4854C128.127 17.4854 126.289 18.8797 126.037 20.9671H128.708C128.902 20.0569 129.676 19.5545 131.069 19.5545C132.461 19.5545 133.39 20.0767 133.39 21.1412V21.3882L129.034 21.7198C127.021 21.8756 125.552 22.766 125.552 24.6627C125.552 26.6174 127.237 27.5459 129.714 27.5459C131.713 27.5459 132.932 26.9888 133.678 26.1482H133.811C134.23 27.0932 135.081 27.3535 136.006 27.3535H137.128V25.3822H136.876C136.314 25.3822 136.064 25.112 136.064 24.5383ZM133.391 23.512C133.391 25.0423 131.568 25.5447 130.004 25.5447C128.94 25.5447 128.243 25.2745 128.243 24.5383C128.243 23.8751 128.844 23.5518 129.736 23.4739L133.393 23.2037L133.391 23.512Z" fill="#2A3362"/>
<path d="M145.939 17.6768L142.822 24.685H142.648L139.493 17.6768H136.608L141.118 27.3559H144.312L148.802 17.6768H145.939Z" fill="#2A3362"/>
<path d="M157.341 24.2197C157.009 25.0139 156.062 25.44 154.63 25.44C152.675 25.44 151.573 24.5496 151.398 23.2531H159.876C159.915 22.9835 159.934 22.7115 159.934 22.439C159.915 18.9573 157.281 17.4834 154.462 17.4834C151.191 17.4834 148.734 19.4398 148.734 22.5949C148.734 25.5942 151.095 27.5489 154.636 27.5489C157.599 27.5489 159.572 26.2341 159.98 24.2197H157.341ZM154.456 19.594C156.16 19.594 157.147 20.3484 157.302 21.4177H151.45C151.704 20.3931 152.688 19.594 154.449 19.594H154.456Z" fill="#2A3362"/>
<path d="M50.1701 16.9643C50.1701 16.1121 50.7702 15.7457 51.5445 15.7457C51.9046 15.749 52.2626 15.8009 52.6089 15.8999L53.0549 13.9634C52.4084 13.7348 51.7279 13.6171 51.0421 13.6152C49.0675 13.6152 47.4808 14.6614 47.4808 16.8284V17.6772H45.1763V19.7978H47.4808V27.3564H50.1701V19.7961H53.1809V17.6772H50.1701V16.9643Z" fill="#2A3362"/>
<path d="M76.1006 14.9482H73.6136L73.4744 17.6772H71.3721V19.7978H73.4246V24.5694C73.4246 26.1942 74.2536 27.5537 76.7405 27.5537C77.3853 27.5537 78.028 27.4826 78.6572 27.3415V25.3039C78.2944 25.3852 77.9246 25.4307 77.553 25.4398C76.2183 25.4398 76.1022 24.6855 76.1022 24.1035V19.7928H78.755V17.6772H76.1006V14.9482Z" fill="#2A3362"/>
<path d="M84.4881 14.9482H82.0095L81.8702 17.6772H79.7629V19.7978H81.8155V24.5694C81.8155 26.1942 82.6445 27.5537 85.1314 27.5537C85.7747 27.5517 86.4157 27.4789 87.0431 27.3365V25.3039C86.6803 25.3852 86.3105 25.4307 85.9389 25.4398C84.6042 25.4398 84.4881 24.6855 84.4881 24.1035V19.7928H87.1492V17.6772H84.4881V14.9482Z" fill="#2A3362"/>
<path d="M7.99634 13.2453C7.99634 11.6918 8.45062 10.3654 9.40395 9.41211L11.0619 11.0701C9.2166 12.9088 10.8281 18.6254 16.0822 23.8845C21.3363 29.1435 27.0563 30.7534 28.8999 28.9114L30.5579 30.5694C27.4476 33.6797 20.3631 31.473 14.4325 25.5408C10.3191 21.4257 7.99634 16.7569 7.99634 13.2453Z" fill="#009A46"/>
<path d="M18.4516 31.9991C16.8981 31.9991 15.5717 31.5449 14.6167 30.5915L16.2747 28.9336C18.1167 30.7756 23.8333 29.164 29.0924 23.9066C34.3514 18.6492 35.9596 12.9326 34.1177 11.0906L35.7756 9.43262C38.8876 12.543 36.6792 19.6274 30.747 25.558C26.632 29.678 21.9631 31.9991 18.4516 31.9991Z" fill="#FF5805"/>
<path d="M31.2957 23.1848C30.2893 20.2867 28.2334 17.1897 25.5061 14.464C19.5756 8.53177 12.4911 6.32337 9.38075 9.43536C9.16024 9.65753 9.35091 10.2063 9.80851 10.6639C10.2661 11.1215 10.8149 11.3105 11.0354 11.09C12.8791 9.24801 18.5957 10.8596 23.8531 16.1186C26.34 18.6056 28.1937 21.3826 29.0873 23.9525C29.8699 26.2057 29.7936 28.0228 28.8817 28.9347C28.6595 29.1552 28.8519 29.7056 29.3078 30.1616C29.7637 30.6175 30.3142 30.8098 30.5364 30.5876C32.1297 28.9943 32.3999 26.3615 31.2957 23.1848Z" fill="#F5AFCB"/>
<path d="M35.7723 9.43566C34.1757 7.83905 31.5461 7.5688 28.3662 8.67466C25.4697 9.67938 22.371 11.7369 19.6453 14.4626C13.7147 20.3931 11.5063 27.4776 14.6167 30.5896C14.8388 30.8101 15.3876 30.6194 15.8452 30.1635C16.3028 29.7076 16.4935 29.1571 16.2713 28.935C14.4244 27.093 16.0409 21.3763 21.2999 16.1173C23.7869 13.6303 26.564 11.7767 29.1338 10.8831C31.387 10.1022 33.2041 10.1768 34.1176 11.0887C34.3381 11.3092 34.8886 11.1185 35.3445 10.6609C35.8005 10.2033 35.9928 9.65617 35.7723 9.43566Z" fill="#FF9B00"/>
</svg>
