<svg width="151" height="40" viewBox="0 0 151 40" fill="none" xmlns="http://www.w3.org/2000/svg">
<g clip-path="url(#clip0_298_12773)">
<path d="M19.9314 20.3853C20.0364 20.581 20.1428 20.7792 20.2526 20.9802C20.2761 20.9411 20.2974 20.9062 20.3168 20.8743C20.3638 20.7971 20.4 20.7373 20.4326 20.6758C21.8606 17.685 23.8935 15.1873 26.9485 13.5343C27.3445 13.3194 27.2292 13.1015 27.0963 12.8501C27.0879 12.8342 27.0794 12.8182 27.0709 12.8019C25.7961 10.3587 24.0351 8.26697 21.8261 6.5378C21.0425 5.92604 20.8046 5.62875 20.5529 5.61752C20.3003 5.60626 20.0337 5.88271 19.1884 6.41817C16.6655 8.02046 14.6709 10.0868 13.4075 12.7367C13.3974 12.7581 13.3871 12.7793 13.3768 12.8002C13.2411 13.0775 13.1239 13.317 13.576 13.5596C16.0568 14.8864 17.8829 16.8258 19.2572 19.164C19.4894 19.5616 19.7073 19.9675 19.9314 20.3853Z" fill="#3FA0D9"/>
<path d="M4.01266 12.7949C7.89461 12.8565 11.4818 13.5852 14.6172 15.7457C17.186 17.5148 18.771 19.9182 19.6208 22.7857C19.6744 22.9633 19.682 23.1301 19.6361 23.3113C18.9241 26.0229 18.836 28.7816 18.9662 31.5548C18.9853 31.9862 18.8705 32.153 18.4225 32.2146C12.5193 33.0557 3.74084 29.8184 0.965294 22.8764C-0.278921 19.766 -0.225323 16.6121 0.582459 13.4257C0.659025 13.1176 0.831301 13.0233 1.1414 12.9834C2.05388 12.8725 2.96638 12.8364 3.81473 12.8028L4.01266 12.7949Z" fill="#3FA0D9"/>
<path d="M20.2568 28.5805C20.2682 25.376 20.7008 22.5737 22.1365 19.9962C24.1579 16.3602 27.454 14.3012 31.5925 13.3479C34.1959 12.746 36.8259 12.6808 39.4789 12.9817C39.9252 13.0305 39.9877 13.2779 40.0636 13.5779L40.0723 13.6125C42.0708 21.3013 38.5372 27.9715 30.7962 31.0093C27.8982 32.144 24.893 32.7059 21.746 32.1186C20.5439 31.8939 20.521 31.8866 20.3947 30.7593C20.3258 30.16 20.3006 29.5588 20.2804 29.0796C20.2725 28.8922 20.2654 28.7231 20.2568 28.5805Z" fill="#3FA0D9"/>
<path d="M62.6647 31.9993C60.5345 31.9993 58.7195 31.6467 57.2152 30.9414C55.7152 30.2362 54.4859 29.321 53.5406 28.1918C52.5909 27.0626 51.8942 25.8411 51.4461 24.5187C50.9978 23.2007 50.7759 21.9162 50.7759 20.6651V20.0019C50.7759 18.6502 51.0067 17.307 51.4638 15.9678C51.9208 14.6287 52.6309 13.4156 53.5895 12.3241C54.548 11.2369 55.764 10.3637 57.2328 9.70885C58.7017 9.05399 60.4592 8.72656 62.505 8.72656C64.5907 8.72656 66.4234 9.08758 67.9989 9.8138C69.5743 10.54 70.8302 11.5475 71.7709 12.8362C72.7073 14.125 73.2709 15.6362 73.4662 17.3699H68.8953C68.6379 15.8587 67.9322 14.7043 66.7696 13.9108C65.6069 13.1133 64.1868 12.7187 62.505 12.7187C60.9518 12.7187 59.647 13.0461 58.5908 13.701C57.5347 14.3558 56.7359 15.2584 56.1944 16.4044C55.653 17.5546 55.3778 18.8727 55.3778 20.363C55.3778 21.8153 55.653 23.1125 56.2078 24.2627C56.7624 25.4129 57.5834 26.3238 58.6663 26.9997C59.7535 27.6756 61.0848 28.0113 62.6602 28.0113C64.4087 28.0113 65.8821 27.6042 67.0847 26.7856C68.2873 25.9712 69.0195 24.8253 69.2725 23.3559H73.8434C73.6304 24.947 73.0623 26.3994 72.1348 27.7091C71.2074 29.0188 69.9515 30.0599 68.3628 30.8365C66.7784 31.6089 64.8792 31.9993 62.6647 31.9993Z" fill="#111111"/>
<path d="M77.3315 31.4241V9.36035H81.7737V17.7643C82.222 16.7149 82.8832 15.9089 83.753 15.3464C84.6272 14.784 85.7234 14.4985 87.0458 14.4985H87.2366C89.2159 14.4985 90.7203 15.1492 91.741 16.4463C92.7616 17.7476 93.2764 19.6156 93.2764 22.0545V31.4241H88.8342V21.66C88.8342 20.6105 88.5192 19.7877 87.8935 19.1832C87.2633 18.5788 86.4378 18.2766 85.4171 18.2766C84.3077 18.2766 83.4246 18.6123 82.7634 19.2882C82.1022 19.9641 81.7737 20.8456 81.7737 21.9328V31.4241H77.3315Z" fill="#111111"/>
<path d="M102.955 31.8494C101.038 31.8494 99.511 31.3877 98.3705 30.4599C97.23 29.5322 96.662 28.2351 96.662 26.5602C96.662 24.7677 97.3497 23.4412 98.721 22.5848C100.097 21.7284 101.943 21.3003 104.264 21.3003H107.81V21.1492C107.81 19.2769 106.807 18.3367 104.805 18.3367C104.273 18.3367 103.634 18.345 102.888 18.366C102.143 18.387 101.393 18.4122 100.634 18.4416C99.8748 18.471 99.2003 18.5088 98.6057 18.5465V14.9784C99.329 14.9196 100.199 14.8693 101.211 14.8272C102.222 14.7853 103.154 14.7686 104.006 14.7686C106.669 14.7686 108.675 15.2764 110.029 16.2966C111.382 17.3124 112.057 18.9621 112.057 21.2373V31.4213H108.542V28.277C107.756 30.6614 105.893 31.8494 102.955 31.8494ZM104.202 28.8564C104.796 28.8564 105.364 28.7515 105.897 28.5374C106.429 28.3275 106.873 27.9623 107.224 27.4501C107.574 26.938 107.774 26.2369 107.814 25.3512V23.8106H104.202C103.181 23.8106 102.396 24.0456 101.854 24.5201C101.313 24.9944 101.038 25.6031 101.038 26.3503C101.038 27.1143 101.308 27.7272 101.854 28.1806C102.396 28.6298 103.177 28.8564 104.202 28.8564Z" fill="#111111"/>
<path d="M116.822 31.4241V9.36035H121.264V22.9319L127.943 15.0148H132.576L126.665 21.9957L133.983 31.4241H128.968L123.155 23.7463H121.269V31.4241H116.822Z" fill="#111111"/>
<path d="M141.199 31.8494C139.282 31.8494 137.755 31.3877 136.615 30.4599C135.474 29.5322 134.907 28.2351 134.907 26.5602C134.907 24.7677 135.594 23.4412 136.965 22.5848C138.341 21.7284 140.187 21.3003 142.508 21.3003H146.055V21.1492C146.055 19.2769 145.051 18.3367 143.05 18.3367C142.518 18.3367 141.878 18.345 141.132 18.366C140.387 18.387 139.636 18.4122 138.878 18.4416C138.124 18.471 137.445 18.5088 136.85 18.5465V14.9784C137.573 14.9196 138.444 14.8693 139.455 14.8272C140.467 14.7853 141.399 14.7686 142.251 14.7686C144.914 14.7686 146.919 15.2764 148.273 16.2966C149.627 17.3124 150.301 18.9621 150.301 21.2373V31.4213H146.787V28.277C146.005 30.6614 144.142 31.8494 141.199 31.8494ZM142.446 28.8564C143.041 28.8564 143.608 28.7515 144.142 28.5374C144.674 28.3275 145.118 27.9623 145.468 27.4501C145.818 26.938 146.018 26.2369 146.058 25.3512V23.8106H142.446C141.425 23.8106 140.64 24.0456 140.098 24.5201C139.558 24.9944 139.282 25.6031 139.282 26.3503C139.282 27.1143 139.553 27.7272 140.098 28.1806C140.64 28.6298 141.425 28.8564 142.446 28.8564Z" fill="#111111"/>
</g>
<defs>
<clipPath id="clip0_298_12773">
<rect width="150.303" height="40" fill="white"/>
</clipPath>
</defs>
</svg>
