<svg width="148" height="40" viewBox="0 0 148 40" fill="none" xmlns="http://www.w3.org/2000/svg">
<g clip-path="url(#clip0_298_13012)">
<path d="M43.6619 11.0808C41.5025 11.0808 39.7382 11.6817 38.3564 12.8675C38.2386 12.9728 38.0839 13.0272 37.9261 13.0187C37.7684 13.0103 37.6204 12.9397 37.5145 12.8225C37.4173 12.7151 37.3635 12.5753 37.3635 12.4305V4.44814C37.3601 4.29241 37.2961 4.14414 37.1851 4.0349C37.074 3.92566 36.9247 3.86408 36.769 3.86328H32.9449C32.7873 3.86328 32.6361 3.92592 32.5245 4.03741C32.413 4.1489 32.3503 4.30012 32.3503 4.45778V30.4871C32.3503 30.6448 32.413 30.796 32.5245 30.9075C32.6361 31.0189 32.7873 31.0816 32.9449 31.0816H36.769C36.9266 31.0816 37.0778 31.0189 37.1893 30.9075C37.3009 30.796 37.3635 30.6448 37.3635 30.4871V30.2783C37.3643 30.1635 37.3982 30.0516 37.4612 29.9557C37.5242 29.86 37.6135 29.7844 37.7185 29.7383C37.8234 29.6921 37.9395 29.6772 38.0526 29.6954C38.1658 29.7137 38.2714 29.7643 38.3564 29.8412C39.7382 31.0333 41.5025 31.6279 43.6619 31.6279C44.9269 31.6383 46.1796 31.3784 47.3362 30.8658C48.4926 30.3531 49.5265 29.5996 50.3684 28.6554C52.217 26.6845 53.2156 24.0652 53.1482 21.364C53.2102 18.6578 52.2129 16.0345 50.3684 14.0532C49.5277 13.1076 48.4941 12.353 47.3373 11.8403C46.1804 11.3276 44.9273 11.0686 43.6619 11.0808ZM46.599 25.2908C46.094 25.7951 45.4918 26.1913 44.8289 26.4553C44.1659 26.7194 43.4562 26.8458 42.7428 26.8269C42.0287 26.8514 41.3174 26.7275 40.6538 26.4632C39.99 26.1987 39.3883 25.7996 38.8867 25.2908C38.3802 24.7705 37.9846 24.1527 37.7239 23.475C37.4633 22.7971 37.3428 22.0736 37.3699 21.3479C37.3414 20.6216 37.4612 19.8971 37.722 19.2187C37.9828 18.5402 38.379 17.922 38.8867 17.4017C39.3874 16.8917 39.9889 16.4917 40.6529 16.2273C41.3169 15.9628 42.0286 15.8396 42.7428 15.8657C43.4564 15.8452 44.1666 15.9711 44.8297 16.2352C45.4929 16.4993 46.0949 16.8963 46.599 17.4017C47.11 17.9203 47.5095 18.5378 47.7731 19.2164C48.0367 19.8951 48.1588 20.6204 48.1318 21.3479C48.1583 22.0748 48.0361 22.7996 47.7725 23.4776C47.5089 24.1556 47.1095 24.7727 46.599 25.2908Z" fill="#296CF0"/>
<path d="M74.4522 11.6302H70.6314C70.5533 11.6293 70.4759 11.6439 70.4034 11.6729C70.3309 11.7021 70.2649 11.7452 70.2091 11.7997C70.1533 11.8543 70.1088 11.9195 70.0781 11.9912C70.0475 12.063 70.0313 12.1401 70.0305 12.2182V12.4367C70.0305 12.5944 69.9679 12.7456 69.8563 12.8572C69.7449 12.9686 69.5937 13.0312 69.436 13.0312C69.2887 13.0341 69.1459 12.98 69.0375 12.8803C67.645 11.6784 65.8647 11.0774 63.6967 11.0774C62.4375 11.067 61.1906 11.3273 60.0408 11.8407C58.8908 12.3541 57.8648 13.1086 57.0319 14.0532C55.1809 16.0433 54.2544 18.4739 54.2522 21.3446C54.25 24.2153 55.1767 26.6457 57.0319 28.636C57.8661 29.5787 58.8925 30.3316 60.0423 30.8444C61.1919 31.3571 62.4379 31.6176 63.6967 31.6085C65.8626 31.6085 67.6428 31.0076 69.0375 29.8057C69.0952 29.7531 69.1627 29.7124 69.2361 29.686C69.3096 29.6596 69.3876 29.6479 69.4656 29.6518C69.5435 29.6557 69.62 29.675 69.6905 29.7086C69.7609 29.7422 69.8241 29.7894 69.8762 29.8475C69.9757 29.9576 70.0307 30.1007 70.0305 30.2492V30.4677C70.0322 30.626 70.0962 30.7772 70.2088 30.8885C70.3212 30.9998 70.4731 31.0622 70.6314 31.0622H74.4522C74.6099 31.0614 74.761 30.9985 74.8729 30.8873C74.9847 30.7761 75.0483 30.6254 75.0499 30.4677V12.2182C75.0482 12.0612 74.9844 11.9111 74.8724 11.8008C74.7604 11.6907 74.6093 11.6293 74.4522 11.6302ZM68.4976 25.2908C67.9927 25.7949 67.3904 26.1911 66.7274 26.4552C66.0645 26.7192 65.3548 26.8457 64.6415 26.8268C63.9276 26.8493 63.2169 26.7245 62.5535 26.4603C61.8899 26.196 61.2881 25.7979 60.7852 25.2908C60.2799 24.7697 59.8852 24.1518 59.6251 23.4741C59.3649 22.7965 59.2448 22.0732 59.2716 21.3478C59.2444 20.6219 59.3645 19.8981 59.6247 19.2198C59.8848 18.5416 60.2796 17.9231 60.7852 17.4016C61.2873 16.8934 61.889 16.4945 62.5527 16.2302C63.2163 15.9659 63.9275 15.8416 64.6415 15.8655C65.3549 15.8452 66.0651 15.9709 66.7283 16.235C67.3914 16.4992 67.9936 16.8961 68.4976 17.4016C69.0085 17.9201 69.4081 18.5377 69.6717 19.2164C69.9353 19.8949 70.0575 20.6203 70.0305 21.3478C70.057 22.0748 69.9347 22.7995 69.6711 23.4775C69.4075 24.1556 69.0082 24.7726 68.4976 25.2908Z" fill="#296CF0"/>
<path d="M87.9288 11.0812C85.9064 11.0812 84.2996 11.6115 83.1085 12.6719C83.0024 12.7671 82.8655 12.8207 82.7228 12.823C82.5674 12.8163 82.4207 12.7496 82.3133 12.6369C82.2061 12.5243 82.1467 12.3744 82.1476 12.2188C82.1476 12.062 82.0853 11.9116 81.9745 11.8007C81.8636 11.6899 81.7132 11.6276 81.5564 11.6276H77.7259C77.6474 11.6262 77.5695 11.6406 77.4967 11.6697C77.4239 11.6989 77.3575 11.7422 77.3016 11.7973C77.2456 11.8523 77.2012 11.918 77.1708 11.9903C77.1405 12.0627 77.125 12.1404 77.125 12.2188V30.4715C77.125 30.6292 77.1876 30.7804 77.2991 30.8918C77.4106 31.0033 77.5618 31.066 77.7195 31.066H81.5467C81.7044 31.066 81.8556 31.0033 81.9671 30.8918C82.0786 30.7804 82.1412 30.6292 82.1412 30.4715V20.5739C82.1412 18.9671 82.529 17.7631 83.3045 16.962C83.7109 16.5541 84.1983 16.2358 84.7351 16.0277C85.272 15.8196 85.8465 15.7262 86.4216 15.7536C86.933 15.7286 87.4443 15.8071 87.9247 15.9844C88.4051 16.1616 88.8448 16.434 89.2173 16.7852C89.9179 17.4728 90.2692 18.4637 90.2714 19.7576V30.4715C90.2709 30.5492 90.2858 30.6261 90.3152 30.698C90.3444 30.7699 90.3876 30.8353 90.4423 30.8905C90.4969 30.9457 90.5618 30.9896 90.6335 31.0197C90.705 31.0499 90.7818 31.0655 90.8594 31.066H94.6899C94.8476 31.066 94.9988 31.0033 95.1103 30.8918C95.2218 30.7804 95.2844 30.6292 95.2844 30.4715V19.131C95.2844 16.6181 94.5871 14.6483 93.1924 13.2214C92.5123 12.5181 91.6928 11.9645 90.7864 11.5959C89.8801 11.2274 88.9067 11.0521 87.9288 11.0812Z" fill="#296CF0"/>
<path d="M107.286 21.605C107.201 21.4984 107.154 21.3657 107.154 21.229C107.154 21.0923 107.201 20.9596 107.286 20.853L114.003 12.5976C114.072 12.51 114.116 12.4045 114.128 12.2935C114.14 12.1823 114.121 12.0699 114.072 11.9693C114.024 11.8687 113.947 11.7837 113.853 11.7243C113.758 11.6649 113.648 11.6335 113.537 11.6335H109.096C109.005 11.6329 108.915 11.6531 108.833 11.6927C108.751 11.7322 108.679 11.79 108.623 11.8617L103.183 18.8445C103.086 18.9695 102.944 19.0511 102.788 19.0715C102.631 19.092 102.473 19.0497 102.347 18.9538C102.274 18.8991 102.215 18.8276 102.175 18.7455C102.134 18.6634 102.114 18.5729 102.116 18.4815V4.44814C102.113 4.29241 102.049 4.14414 101.937 4.0349C101.826 3.92566 101.677 3.86408 101.521 3.86328H97.694C97.6159 3.86328 97.5385 3.87879 97.4663 3.9089C97.3941 3.93902 97.3287 3.98314 97.2737 4.03873C97.2187 4.09432 97.1753 4.16026 97.1459 4.23274C97.1167 4.30522 97.1019 4.38281 97.1028 4.461V30.4903C97.1069 30.6443 97.1712 30.7906 97.2816 30.898C97.392 31.0055 97.54 31.0656 97.694 31.0656H101.518C101.676 31.0656 101.827 31.0028 101.938 30.8914C102.05 30.7799 102.113 30.6287 102.113 30.4711V23.9315C102.113 23.8531 102.128 23.7753 102.158 23.7028C102.188 23.6303 102.232 23.5644 102.288 23.5089C102.343 23.4535 102.409 23.4093 102.482 23.3794C102.554 23.3493 102.632 23.3338 102.71 23.3338C102.799 23.3351 102.886 23.3554 102.966 23.3937C103.046 23.4321 103.117 23.4873 103.173 23.5556L109.012 30.8567C109.07 30.9232 109.142 30.977 109.222 31.0146C109.302 31.0522 109.389 31.0728 109.478 31.0752H113.762C113.876 31.0778 113.989 31.0472 114.087 30.9871C114.185 30.9268 114.263 30.8396 114.312 30.7361C114.361 30.6324 114.38 30.5168 114.365 30.4031C114.35 30.2893 114.302 30.1824 114.228 30.0951L107.286 21.605Z" fill="#296CF0"/>
<path d="M119.989 3.86351H116.161C116.085 3.86137 116.009 3.87443 115.937 3.90194C115.866 3.92945 115.801 3.97086 115.745 4.02376C115.69 4.07667 115.646 4.14002 115.615 4.21015C115.585 4.28027 115.568 4.35578 115.567 4.4323V30.4937C115.57 30.6483 115.634 30.7953 115.746 30.9024C115.857 31.0096 116.007 31.0683 116.161 31.0658H119.989C120.143 31.0675 120.291 31.0084 120.402 30.9012C120.513 30.7941 120.577 30.6477 120.581 30.4937V4.42587C120.575 4.27329 120.51 4.12881 120.4 4.0236C120.289 3.9184 120.142 3.86089 119.989 3.86351Z" fill="#296CF0"/>
<path d="M141.124 11.663C141.063 11.6429 140.999 11.632 140.934 11.6309H136.849C136.725 11.63 136.602 11.6687 136.501 11.7414C136.399 11.8142 136.324 11.9172 136.285 12.0358L132.64 23.1159C132.589 23.266 132.48 23.3894 132.338 23.4593C132.196 23.5293 132.032 23.5398 131.881 23.4887C131.8 23.4614 131.725 23.4165 131.662 23.3571C131.599 23.2976 131.55 23.2253 131.519 23.1448L127.2 12.0101C127.156 11.8976 127.079 11.8011 126.98 11.7334C126.879 11.6656 126.761 11.6299 126.64 11.6309H122.463C122.306 11.6309 122.156 11.6926 122.045 11.8028C121.934 11.9128 121.87 12.0624 121.869 12.219C121.869 12.2987 121.885 12.3774 121.917 12.4503L129.449 30.2145C129.501 30.359 129.501 30.5168 129.449 30.6613C128.99 31.8631 128.385 32.75 127.644 33.306C126.873 33.8553 125.953 34.1559 125.008 34.1671C124.856 34.1746 124.712 34.2406 124.607 34.3514C124.503 34.4622 124.445 34.6092 124.446 34.7616V38.2644C124.445 38.4168 124.503 38.5638 124.607 38.6747C124.712 38.7854 124.856 38.8514 125.008 38.8589C127.24 38.8781 129.126 38.3094 130.664 37.1525C132.335 35.8864 133.674 33.8672 134.684 31.095L141.484 12.4246C141.536 12.2759 141.528 12.1124 141.461 11.9696C141.393 11.827 141.272 11.7168 141.124 11.663Z" fill="#296CF0"/>
<path d="M146.299 14.8149C146.289 14.7939 146.282 14.7709 146.28 14.7474V14.4678C146.289 14.3688 146.275 14.2691 146.239 14.1765C146.202 14.0839 146.145 14.0011 146.072 13.9343C145.977 13.8638 145.866 13.8165 145.75 13.7962C145.897 13.7831 146.038 13.7285 146.155 13.6388C146.216 13.585 146.263 13.5177 146.292 13.4422C146.322 13.3669 146.332 13.2855 146.326 13.205C146.33 13.09 146.303 12.9761 146.246 12.8761C146.188 12.7761 146.105 12.694 146.003 12.6394C145.858 12.5654 145.698 12.5249 145.535 12.5205H144.368V14.8889H145.011V14.0437H145.268C145.339 14.041 145.41 14.0531 145.476 14.079C145.518 14.0935 145.554 14.117 145.585 14.1475C145.616 14.1781 145.639 14.215 145.654 14.2557C145.676 14.3493 145.689 14.4453 145.689 14.5418C145.691 14.65 145.706 14.7577 145.73 14.8631H146.342L146.31 14.8149H146.299ZM145.574 13.5295C145.478 13.59 145.366 13.6203 145.252 13.6163H145.02V12.9318H145.155C145.28 12.9251 145.404 12.9426 145.522 12.9833C145.578 12.9993 145.627 13.0341 145.662 13.0821C145.696 13.13 145.712 13.1881 145.708 13.2467C145.712 13.3014 145.702 13.3562 145.678 13.4057C145.654 13.4551 145.618 13.4978 145.574 13.5295Z" fill="#296CF0"/>
<path d="M146.796 12.1796H146.812C146.416 11.7884 145.885 11.5652 145.328 11.5569C144.772 11.5484 144.233 11.7555 143.826 12.1346C143.608 12.3311 143.436 12.5724 143.32 12.842C143.204 13.1116 143.148 13.4031 143.154 13.6964C143.152 13.9747 143.204 14.2509 143.308 14.5092C143.412 14.7675 143.566 15.0028 143.76 15.2016C143.956 15.4003 144.188 15.5587 144.444 15.6677C144.7 15.7767 144.975 15.834 145.253 15.8365H145.298C145.858 15.8417 146.398 15.6245 146.799 15.2324C147.204 14.8271 147.43 14.2778 147.429 13.7053C147.429 13.1329 147.201 12.5841 146.796 12.1796ZM146.538 14.9561C146.377 15.1235 146.184 15.2561 145.969 15.3456C145.754 15.4352 145.524 15.4797 145.292 15.4767C144.943 15.4751 144.601 15.3703 144.312 15.1757C144.022 14.9811 143.796 14.7052 143.662 14.3826C143.528 14.0601 143.493 13.7051 143.559 13.3625C143.626 13.0197 143.793 12.7044 144.039 12.456C144.194 12.2914 144.382 12.1593 144.589 12.0671C144.797 11.9749 145.02 11.9245 145.247 11.9189C145.473 11.9132 145.7 11.9523 145.911 12.034C146.122 12.1157 146.317 12.2384 146.481 12.3949L146.542 12.456C146.708 12.6171 146.839 12.81 146.927 13.0232C147.016 13.2364 147.061 13.4655 147.06 13.6964C147.062 13.9306 147.017 14.1631 146.928 14.3795C146.838 14.596 146.706 14.7921 146.538 14.9561Z" fill="#296CF0"/>
<path d="M24.3898 19.719C24.3423 19.5802 24.2526 19.4599 24.1334 19.3746C24.0141 19.2894 23.8712 19.2434 23.7246 19.2433C23.5574 19.2379 23.3938 19.2939 23.265 19.4008C21.6005 21.1746 17.2783 22.8553 12.2138 22.8553C7.14939 22.8553 2.77262 21.1457 1.13052 19.3944C1.07745 19.3249 1.01075 19.267 0.934497 19.2241C0.841778 19.1539 0.72939 19.1146 0.613147 19.1117C0.533891 19.109 0.454926 19.1224 0.380947 19.151C0.306969 19.1795 0.23949 19.2226 0.182527 19.2778C0.125562 19.333 0.0802761 19.3991 0.049363 19.4721C0.0184497 19.5451 0.00254099 19.6237 0.00258317 19.7029C-0.00069423 19.7167 -0.00069423 19.731 0.00258317 19.7447C0.000890902 19.7477 0 19.751 0 19.7543C0 19.7577 0.000890902 19.761 0.00258317 19.764V31.6089C0.00258317 32.6981 0.435267 33.7427 1.20545 34.5129C1.97563 35.2831 3.02023 35.7158 4.10943 35.7158H14.9646C20.6718 35.7158 25.4728 31.1976 25.5081 25.4904C25.5217 24.0312 25.3048 22.5791 24.8654 21.1875L24.3898 19.719Z" fill="#296CF0"/>
<path d="M25.5077 10.2322C25.5229 11.6915 25.306 13.144 24.865 14.535L24.3895 16.0036C24.3625 16.0801 24.3234 16.1517 24.2737 16.2157C24.154 16.3635 23.9808 16.458 23.7917 16.4785C23.6027 16.4989 23.4132 16.4437 23.2647 16.325C21.6001 14.5512 17.2779 12.8609 12.2135 12.8609C7.14901 12.8609 2.77223 14.5769 1.13013 16.3282C1.07675 16.3982 1.01015 16.4572 0.934111 16.5017C0.840422 16.5697 0.728429 16.6077 0.612762 16.6109C0.533663 16.614 0.454767 16.601 0.380803 16.5729C0.306838 16.5446 0.239326 16.5018 0.182315 16.4469C0.125302 16.392 0.0799625 16.3261 0.0490126 16.2532C0.0180626 16.1804 0.00213949 16.102 0.00219742 16.0229V4.11369C0.00219726 3.5741 0.10853 3.0398 0.315119 2.54132C0.521709 2.04284 0.824505 1.58997 1.20621 1.20856C1.5879 0.827169 2.04102 0.524728 2.53965 0.31853C3.03829 0.11233 3.57267 0.00641498 4.11226 0.00683719H14.9642C20.6714 0.00683719 25.4723 4.52501 25.5077 10.2322Z" fill="#296CF0"/>
</g>
<defs>
<clipPath id="clip0_298_13012">
<rect width="147.429" height="40" fill="white"/>
</clipPath>
</defs>
</svg>
