<svg width="98" height="40" viewBox="0 0 98 40" fill="none" xmlns="http://www.w3.org/2000/svg">
<path d="M19.5913 2.08789L19.5705 10.7595C18.7931 10.8545 18.0255 11.044 17.2856 11.3286L17.3072 2.37523C18.063 2.23156 18.8258 2.13647 19.5913 2.08789Z" fill="#68BC52"/>
<path d="M24.2025 2.37898L24.181 11.3198C23.4418 11.0381 22.6749 10.85 21.8989 10.757L21.9197 2.08887C22.6846 2.13815 23.4474 2.23393 24.2025 2.37898Z" fill="#68BC52"/>
<path d="M32.8199 6.61191L26.6734 12.7293C26.0425 12.2352 25.3637 11.8305 24.655 11.5161L31.0015 5.2002C31.6303 5.62635 32.2376 6.09761 32.8199 6.61191Z" fill="#68BC52"/>
<path d="M35.8752 10.0789L29.5378 16.3865C29.222 15.6799 28.8166 15.0039 28.3218 14.3744L34.4656 8.25977C34.9785 8.84347 35.4491 9.45077 35.8752 10.0789Z" fill="#68BC52"/>
<path d="M38.9748 19.166L30.3033 19.1452C30.2082 18.3678 30.0187 17.6002 29.7341 16.8604L38.6875 16.8819C38.8312 17.637 38.9269 18.4005 38.9748 19.166Z" fill="#68BC52"/>
<path d="M38.6833 23.7772L29.7424 23.7557C30.0242 23.0165 30.2123 22.2496 30.3053 21.4736L38.9734 21.4945C38.9248 22.2593 38.8284 23.0221 38.6833 23.7772Z" fill="#68BC52"/>
<path d="M34.451 32.3944L28.3342 26.2478C28.8284 25.6169 29.233 24.9381 29.5474 24.2295L35.8634 30.576C35.4358 31.2041 34.9653 31.8114 34.451 32.3944Z" fill="#68BC52"/>
<path d="M30.9841 35.4489L24.6765 29.1115C25.3831 28.7957 26.0598 28.3904 26.6886 27.8955L32.8032 34.0393C32.2202 34.5522 31.6129 35.0228 30.9841 35.4489Z" fill="#68BC52"/>
<path d="M19.5897 29.8803L19.5689 38.5484C18.804 38.4991 18.0413 38.4033 17.2861 38.2582L17.3076 29.3174C18.0468 29.5992 18.8138 29.7873 19.5897 29.8803Z" fill="#68BC52"/>
<path d="M24.2031 29.3086L24.1816 38.262C23.4258 38.4063 22.663 38.5014 21.8975 38.5493L21.9183 29.8777C22.6956 29.7819 23.4633 29.5925 24.2031 29.3086Z" fill="#68BC52"/>
<path d="M13.167 26.2631L7.02316 32.3777C6.50956 31.7947 6.04037 31.1867 5.61353 30.5586L11.951 24.251C12.2675 24.9575 12.6721 25.6335 13.167 26.2631Z" fill="#68BC52"/>
<path d="M16.8336 29.1211L10.4871 35.4371C9.85901 35.0095 9.25171 34.539 8.6687 34.0247L14.8153 27.9072C15.4462 28.4021 16.1243 28.806 16.8336 29.1211Z" fill="#68BC52"/>
<path d="M11.1835 19.1639L2.51538 19.1431C2.56466 18.3783 2.66044 17.6155 2.8055 16.8604L11.7464 16.8819C11.4646 17.621 11.2765 18.388 11.1835 19.1639Z" fill="#68BC52"/>
<path d="M11.7546 23.7773L2.80126 23.7558C2.65689 23 2.56181 22.2372 2.51392 21.4717L11.1855 21.4925C11.2806 22.2692 11.4701 23.0368 11.7546 23.7773Z" fill="#68BC52"/>
<path d="M14.8002 12.7419L8.68555 6.59811C9.26856 6.08451 9.87655 5.61463 10.5047 5.18848L16.8123 11.5259C16.1057 11.8417 15.429 12.2471 14.8002 12.7419Z" fill="#68BC52"/>
<path d="M11.9419 16.4071L5.62598 10.0606C6.05352 9.4325 6.52478 8.8252 7.03839 8.24219L13.1558 14.3888C12.661 15.0197 12.2563 15.6985 11.9419 16.4071Z" fill="#68BC52"/>
<path d="M26.2667 25.8409C23.217 28.8906 18.2725 28.8906 15.2228 25.8409C12.1731 22.7912 12.1731 17.8467 15.2228 14.797C18.2725 11.7473 23.217 11.7473 26.2667 14.797C29.3157 17.8467 29.3157 22.7912 26.2667 25.8409Z" fill="#057DC1"/>
<path d="M24.9902 24.5642C22.645 26.9094 18.8436 26.9094 16.4984 24.5642C14.1532 22.219 14.1532 18.4176 16.4984 16.0724C18.8436 13.7272 22.645 13.7272 24.9902 16.0724C27.3355 18.4176 27.3355 22.2197 24.9902 24.5642Z" fill="white"/>
<path d="M23.7464 23.3211C22.0883 24.9792 19.4002 24.9792 17.7421 23.3211C16.084 21.663 16.084 18.9749 17.7421 17.3168C19.4002 15.6587 22.0883 15.6587 23.7464 17.3168C25.4045 18.9742 25.4045 21.663 23.7464 23.3211Z" fill="#68BC52"/>
<path d="M48.48 7.25684H47.8276V33.3819H48.48V7.25684Z" fill="#68BC52"/>
<path d="M86.6638 17.8212H87.8353V20.4711H82.2655V17.8212H83.5093V10.2871H82.2655V7.65527H86.3424L91.062 14.7749V10.2871H89.8002V7.65527H95.352V10.2871H94.1985V20.4711H91.4375L86.6638 13.3334V17.8212ZM70.8198 20.4711V17.8212H72.0635V10.2871H70.8198V7.65527H76.4465C77.7319 7.65527 78.7147 7.92596 79.3907 8.46663C80.0695 9.00452 80.4089 9.78534 80.4089 10.807C80.4089 11.483 80.2798 12.0389 80.0244 12.4741C79.769 12.9128 79.3636 13.2702 78.8049 13.5527C79.5497 13.7748 80.1028 14.1322 80.463 14.6195C80.8232 15.106 81.0037 15.7341 81.0037 16.5031C81.0037 17.1132 80.8954 17.6747 80.6824 18.1918C80.4693 18.7082 80.1625 19.1503 79.7634 19.5133C79.3761 19.8645 78.916 20.1109 78.3815 20.2552C77.8499 20.3996 77.0385 20.4718 75.9544 20.4718L70.8198 20.4711ZM75.1098 12.5942H75.8489C76.468 12.5942 76.9122 12.5158 77.1794 12.3568C77.4467 12.1979 77.5792 11.939 77.5792 11.5816C77.5792 11.161 77.4654 10.8577 77.2398 10.671C77.0143 10.4877 76.6422 10.3947 76.1196 10.3947H75.1105L75.1098 12.5942ZM75.1098 17.749H76.1731C76.813 17.749 77.2634 17.6497 77.5251 17.4547C77.7895 17.2562 77.9214 16.9286 77.9214 16.4636C77.9214 15.9888 77.7895 15.6557 77.5251 15.4634C77.2634 15.2684 76.7887 15.1719 76.1043 15.1719H75.1098V17.749ZM58.5689 17.8212V10.2871H57.3252V7.65527H63.0179C64.2227 7.65527 65.1806 7.77257 65.8961 8.00647C66.6138 8.24106 67.2572 8.63459 67.8339 9.18706C68.444 9.76105 68.9063 10.4641 69.2186 11.2963C69.5344 12.1257 69.6905 13.0689 69.6905 14.126C69.6905 15.0991 69.5344 15.9916 69.2248 16.8057C68.9125 17.6171 68.4621 18.3167 67.87 18.9025C67.3051 19.4494 66.6776 19.8457 65.9801 20.0949C65.2861 20.3441 64.4421 20.4704 63.451 20.4704H57.3252V17.8205L58.5689 17.8212ZM62.9672 17.6587C64.1631 17.6587 65.0494 17.361 65.6227 16.7697C66.1967 16.1776 66.4819 15.2677 66.4819 14.0358C66.4819 12.8822 66.1758 11.9931 65.5595 11.3678C64.9467 10.7431 64.0694 10.4308 62.9311 10.4308H61.7054V17.6587H62.9672Z" fill="#057DC1"/>
<path d="M94.508 26.8541V24.25H94.0645V23.9161H94.508V22.9639H94.8745V23.9161H95.3173V24.25H94.8745V26.5154H95.3173V26.8548L94.508 26.8541ZM90.7073 26.5154V24.25H90.2749V23.9161H91.0794V24.3541C91.1842 24.1826 91.3098 24.057 91.4562 23.9765C91.6034 23.896 91.7783 23.8564 91.9837 23.8564C92.1864 23.8564 92.3731 23.8981 92.5438 23.9821C92.7132 24.066 92.8541 24.1847 92.9644 24.3374C93.0373 24.4422 93.09 24.5581 93.122 24.6851C93.1539 24.8121 93.1706 24.9898 93.1706 25.2196V26.5154H93.6085V26.8548H92.3599V26.5154H92.7978V25.3292C92.7978 25.1425 92.7916 25.0016 92.7784 24.9072C92.7666 24.8135 92.7444 24.7296 92.7146 24.6567C92.6542 24.5116 92.5605 24.402 92.4335 24.3263C92.3078 24.2507 92.1552 24.2125 91.9768 24.2125C91.6742 24.2125 91.4479 24.3131 91.298 24.5144C91.1481 24.7157 91.0738 25.0197 91.0738 25.4264V26.5161H91.5173V26.8555H90.2756V26.5161L90.7073 26.5154ZM89.7176 25.5083H87.0802C87.1045 25.8192 87.2225 26.0739 87.4314 26.2724C87.6403 26.4703 87.8971 26.5695 88.2018 26.5695C88.4225 26.5695 88.6203 26.514 88.7952 26.4015C88.9715 26.2891 89.1068 26.1316 89.2026 25.9289H89.6239C89.4879 26.2509 89.2984 26.4987 89.0548 26.6715C88.8105 26.8437 88.5294 26.9304 88.2122 26.9304C87.7847 26.9304 87.4244 26.7798 87.1309 26.4793C86.838 26.1781 86.6915 25.8158 86.6915 25.3917C86.6915 24.9614 86.838 24.5935 87.1329 24.2902C87.4265 23.9869 87.7777 23.8342 88.1851 23.8342C88.6272 23.8342 88.993 23.9862 89.2831 24.2902C89.5719 24.5949 89.7169 24.9843 89.7169 25.4604L89.7176 25.5083ZM89.313 25.1855C89.247 24.8698 89.1179 24.6247 88.9243 24.4505C88.7307 24.2763 88.4919 24.1896 88.2073 24.1896C87.9138 24.1896 87.6632 24.2819 87.4571 24.4651C87.2502 24.649 87.1288 24.8892 87.0913 25.1855H89.313ZM81.6055 26.5154V24.25H81.1731V23.9161H81.9719V24.3541C82.0649 24.1861 82.1787 24.0612 82.3148 23.9793C82.4515 23.8974 82.6105 23.8564 82.7916 23.8564C83.0144 23.8564 83.2136 23.9154 83.3892 24.0334C83.5641 24.1507 83.6918 24.3103 83.7723 24.5123C83.8743 24.2909 84.0007 24.1264 84.1527 24.0188C84.304 23.9106 84.4837 23.8564 84.6926 23.8564C84.8759 23.8564 85.0452 23.8981 85.2007 23.9821C85.3555 24.066 85.4818 24.1847 85.5803 24.3374C85.6477 24.4443 85.6962 24.5581 85.7261 24.6796C85.7552 24.801 85.7698 24.9808 85.7698 25.2196V26.5154H86.2078V26.8548H84.9654V26.5154H85.4033V25.3105C85.4033 25.13 85.3978 24.994 85.3867 24.9003C85.377 24.8066 85.3575 24.7254 85.3312 24.656C85.2812 24.5144 85.1993 24.4068 85.0841 24.3312C84.9689 24.2555 84.8314 24.2173 84.6711 24.2173C84.4032 24.2173 84.2033 24.318 84.0701 24.5193C83.9375 24.7205 83.8716 25.0224 83.8716 25.4257V26.5154H84.3095V26.8548H83.0664V26.5154H83.51V25.4257C83.51 24.9496 83.4523 24.6296 83.3378 24.4644C83.2233 24.2992 83.0269 24.2173 82.7507 24.2173C82.4945 24.2173 82.3002 24.3194 82.1697 24.5234C82.0385 24.7268 81.9726 25.028 81.9726 25.4257V26.5154H82.4161V26.8548H81.1744V26.5154H81.6055ZM77.6063 27.4614V24.25H77.1683V23.9161H77.9839V24.3381C78.1525 24.1688 78.3246 24.0445 78.4988 23.9668C78.6737 23.889 78.8625 23.8502 79.0659 23.8502C79.5073 23.8502 79.8745 23.9987 80.1694 24.2951C80.463 24.5914 80.6102 24.9593 80.6102 25.3965C80.6102 25.8276 80.4658 26.1905 80.1785 26.4869C79.8904 26.7826 79.5309 26.9304 79.1006 26.9304C78.8792 26.9304 78.6758 26.8902 78.4898 26.809C78.3038 26.7277 78.1331 26.6049 77.9783 26.4411V27.4607H78.4107V27.8056H77.169V27.4607L77.6063 27.4614ZM77.9783 25.3653C77.9783 25.6998 78.0887 25.9865 78.3101 26.2246C78.5308 26.4626 78.7904 26.5813 79.0909 26.5813C79.399 26.5813 79.6635 26.4682 79.8842 26.2433C80.1056 26.0177 80.2159 25.7415 80.2159 25.4146C80.2159 25.071 80.1049 24.7823 79.8828 24.5498C79.6614 24.3173 79.3921 24.2014 79.0763 24.2014C78.7876 24.2014 78.5322 24.3173 78.3101 24.5498C78.09 24.7816 77.9783 25.053 77.9783 25.3653ZM73.603 25.3882C73.603 24.9572 73.7508 24.5887 74.0451 24.2833C74.3407 23.9772 74.6905 23.8238 75.0973 23.8238C75.5234 23.8238 75.885 23.9744 76.1849 24.2749C76.484 24.5762 76.6332 24.9343 76.6332 25.3507C76.6332 25.7887 76.4868 26.1621 76.1939 26.4723C75.9003 26.7812 75.5435 26.9367 75.1229 26.9367C74.6968 26.9367 74.3366 26.7854 74.043 26.4814C73.7494 26.1774 73.603 25.813 73.603 25.3882ZM73.9965 25.3806C73.9965 25.7207 74.1034 26.0052 74.3164 26.2329C74.5309 26.4612 74.7981 26.5751 75.1181 26.5751C75.4339 26.5751 75.699 26.4598 75.9149 26.2301C76.1307 26.0004 76.2397 25.7158 76.2397 25.3757C76.2397 25.028 76.1314 24.7427 75.9142 24.5193C75.6969 24.2958 75.4228 24.1833 75.0917 24.1833C74.7905 24.1833 74.533 24.2985 74.3185 24.5283C74.1041 24.7587 73.9965 25.0426 73.9965 25.3806ZM72.2808 26.5154V23.304H71.8484V22.9646H72.6472V26.5154H73.0907V26.8548H71.8491V26.5154H72.2808ZM71.291 25.5083H68.6536C68.6779 25.8192 68.7959 26.0739 69.0048 26.2724C69.2137 26.4703 69.4705 26.5695 69.7752 26.5695C69.9959 26.5695 70.1937 26.514 70.3686 26.4015C70.5449 26.2891 70.6803 26.1316 70.7761 25.9289H71.1973C71.0613 26.2509 70.8718 26.4987 70.6282 26.6715C70.3839 26.8437 70.1028 26.9304 69.7856 26.9304C69.3581 26.9304 68.9979 26.7798 68.7043 26.4793C68.4114 26.1781 68.265 25.8158 68.265 25.3917C68.265 24.9614 68.4114 24.5935 68.7064 24.2902C69 23.9869 69.3512 23.8342 69.7586 23.8342C70.2007 23.8342 70.5664 23.9862 70.8566 24.2902C71.1453 24.5949 71.2903 24.9843 71.2903 25.4604L71.291 25.5083ZM70.8864 25.1855C70.8205 24.8698 70.6914 24.6247 70.4977 24.4505C70.3041 24.2763 70.0653 24.1896 69.7808 24.1896C69.4872 24.1896 69.2366 24.2819 69.0305 24.4651C68.8237 24.649 68.7022 24.8892 68.6647 25.1855H70.8864ZM66.1772 26.8541L65.1431 24.25H64.744V23.9161H65.969V24.25H65.5311L66.3542 26.3224L67.1732 24.25H66.7352V23.9161H67.961V24.25H67.5605L66.527 26.8541H66.1772ZM64.465 25.5083H61.8276C61.8518 25.8192 61.9698 26.0739 62.1787 26.2724C62.3877 26.4703 62.6445 26.5695 62.9492 26.5695C63.1699 26.5695 63.3677 26.514 63.5426 26.4015C63.7189 26.2891 63.8542 26.1316 63.95 25.9289H64.3713C64.2352 26.2509 64.0458 26.4987 63.8022 26.6715C63.5578 26.8437 63.2767 26.9304 62.9596 26.9304C62.532 26.9304 62.1718 26.7798 61.8782 26.4793C61.5853 26.1781 61.4389 25.8158 61.4389 25.3917C61.4389 24.9614 61.5853 24.5935 61.8803 24.2902C62.1739 23.9869 62.5251 23.8342 62.9325 23.8342C63.3746 23.8342 63.7404 23.9862 64.0305 24.2902C64.3192 24.5949 64.4643 24.9843 64.4643 25.4604L64.465 25.5083ZM64.0603 25.1855C63.9944 24.8698 63.8653 24.6247 63.6717 24.4505C63.478 24.2763 63.2393 24.1896 62.9547 24.1896C62.6611 24.1896 62.4106 24.2819 62.2044 24.4651C61.9976 24.649 61.8761 24.8892 61.8387 25.1855H64.0603ZM57.7631 26.4987V23.3088H57.3252V22.9639H58.841C59.1582 22.9639 59.4213 22.9958 59.6288 23.059C59.8377 23.1221 60.0272 23.2248 60.1979 23.3671C60.4207 23.558 60.5907 23.7849 60.7094 24.0494C60.8281 24.3131 60.8871 24.5963 60.8871 24.901C60.8871 25.2432 60.8205 25.5513 60.6865 25.8241C60.5533 26.0975 60.3575 26.3301 60.0993 26.5209C59.9349 26.6424 59.762 26.7277 59.5795 26.7791C59.397 26.8291 59.1291 26.8548 58.7744 26.8548H57.3252V26.4994L57.7631 26.4987ZM58.1463 26.4876H59.0444C59.4796 26.4876 59.8266 26.3425 60.0869 26.0538C60.3464 25.7644 60.4769 25.3764 60.4769 24.8899C60.4769 24.4186 60.3395 24.0383 60.064 23.7509C59.7884 23.4636 59.4226 23.3192 58.9666 23.3192H58.1463V26.4876Z" fill="#057DC1"/>
<path d="M94.9744 31.7949H95.3437V32.0843H94.6475V31.7241C94.5052 31.8663 94.3588 31.9718 94.2082 32.0392C94.0589 32.1072 93.8958 32.1405 93.7216 32.1405C93.3455 32.1405 93.0331 32.0135 92.784 31.7608C92.5341 31.5075 92.4092 31.1931 92.4092 30.8183C92.4092 30.4498 92.5313 30.1402 92.7749 29.889C93.0192 29.6377 93.3253 29.5114 93.6939 29.5114C93.882 29.5114 94.0569 29.5468 94.2172 29.6155C94.3775 29.6849 94.524 29.789 94.6565 29.9278V29.5766H95.343V29.8661H94.9737V31.7949H94.9744ZM94.6565 30.8454C94.6565 30.5594 94.5614 30.3151 94.3713 30.1138C94.1811 29.9112 93.9583 29.8098 93.7029 29.8098C93.4398 29.8098 93.2143 29.9063 93.0248 30.0986C92.836 30.2908 92.7409 30.5261 92.7409 30.8037C92.7409 31.0973 92.836 31.343 93.0248 31.5429C93.2143 31.7421 93.4426 31.842 93.7126 31.842C93.9604 31.842 94.179 31.7421 94.3699 31.5429C94.5608 31.3437 94.6565 31.1119 94.6565 30.8454ZM91.2813 31.7949V29.8612H90.9121V29.5759H91.5943V31.7949H91.9726V32.0843H90.9121V31.7949H91.2813ZM91.2813 29.324V28.7632H91.5992V29.324H91.2813ZM89.2179 31.7949V29.8612H88.8486V29.5759H89.5358V29.9965C89.6149 29.8383 89.7273 29.7224 89.8738 29.6495C90.0202 29.5753 90.2111 29.5371 90.4471 29.5343V30.3325H90.1479V29.9084C89.939 29.9313 89.7842 30.0312 89.6829 30.2096C89.5816 30.388 89.5309 30.649 89.5309 30.9918V31.7955H89.9092V32.085H88.8486V31.7955L89.2179 31.7949ZM88.3725 30.9356H86.121C86.1418 31.2007 86.2425 31.418 86.4208 31.588C86.5992 31.7567 86.8185 31.842 87.0788 31.842C87.2676 31.842 87.4362 31.7949 87.5855 31.6991C87.7361 31.6033 87.852 31.4686 87.9332 31.2958H88.2927C88.1768 31.5707 88.0144 31.7824 87.8069 31.9295C87.598 32.0766 87.3585 32.1509 87.0871 32.1509C86.7221 32.1509 86.4146 32.0225 86.164 31.7657C85.9142 31.5089 85.7885 31.1987 85.7885 30.837C85.7885 30.4692 85.9142 30.1555 86.1654 29.8966C86.416 29.637 86.7158 29.5072 87.0642 29.5072C87.4418 29.5072 87.7541 29.637 88.0019 29.8966C88.249 30.1569 88.3725 30.4893 88.3725 30.8953V30.9356ZM88.0269 30.6601C87.9707 30.3908 87.8603 30.1812 87.6951 30.0326C87.5299 29.8841 87.3259 29.8098 87.083 29.8098C86.8324 29.8098 86.6179 29.8883 86.4423 30.0451C86.2654 30.2027 86.1619 30.4074 86.13 30.6601H88.0269ZM84.9737 31.6692C84.9737 32.0829 84.8641 32.4049 84.6454 32.636C84.4268 32.8665 84.1228 32.9817 83.7355 32.9817C83.4294 32.9817 83.1803 32.9192 82.9887 32.7957C82.7972 32.6708 82.6681 32.4889 82.6007 32.2481H82.988C83.031 32.3945 83.1164 32.5056 83.2462 32.5819C83.376 32.6583 83.544 32.6964 83.7494 32.6964C84.0256 32.6964 84.2457 32.6097 84.4081 32.4382C84.5705 32.2661 84.6517 32.0329 84.6517 31.7366V31.6817C84.5177 31.8379 84.3754 31.9545 84.2241 32.0281C84.0728 32.103 83.9035 32.1405 83.7168 32.1405C83.3503 32.1405 83.0435 32.0135 82.7958 31.7601C82.5473 31.5061 82.4237 31.1917 82.4237 30.8183C82.4237 30.447 82.5459 30.1361 82.7895 29.8862C83.0338 29.6363 83.3399 29.5107 83.7078 29.5107C83.9104 29.5107 84.0881 29.5475 84.2429 29.6204C84.3976 29.6932 84.5358 29.8064 84.6572 29.9591V29.5759H85.3485V29.8612H84.9751V31.6692H84.9737ZM82.7638 30.8086C82.7638 31.1022 82.8575 31.3472 83.0442 31.545C83.2309 31.7428 83.4551 31.8414 83.7168 31.8414C83.9659 31.8414 84.1853 31.7428 84.3754 31.5436C84.5656 31.3451 84.6607 31.1126 84.6607 30.8447C84.6607 30.5587 84.567 30.3144 84.3803 30.1131C84.1936 29.9105 83.9722 29.8091 83.7168 29.8091C83.4551 29.8091 83.2309 29.9056 83.0442 30.0979C82.8575 30.2908 82.7638 30.5275 82.7638 30.8086ZM81.2945 31.7949V29.8612H80.9253V29.5759H81.6075V31.7949H81.9858V32.0843H80.9253V31.7949H81.2945ZM81.2945 29.324V28.7632H81.6124V29.324H81.2945ZM79.7114 31.5852V29.0582H79.338V28.7639H80.4075V29.0582H80.0334V32.085H79.6413L77.8568 29.2636V31.7817H78.2302V32.085H77.1558V31.7817H77.5292V29.0582H77.1558V28.7639H77.9269L79.7114 31.5852ZM74.5351 31.7949V29.8612H74.1978V29.5759H74.5351V29.4871C74.5351 29.2241 74.5955 29.0262 74.7183 28.8944C74.8398 28.7625 75.023 28.6973 75.268 28.6973H75.2923L75.2902 29.0013C75.134 29.0047 75.0209 29.0443 74.9501 29.1199C74.88 29.1963 74.8446 29.3184 74.8446 29.4878C74.8446 29.4961 74.8453 29.5114 74.8467 29.5308C74.8481 29.551 74.8488 29.5655 74.8488 29.5766H75.2923V29.8619H74.8488L74.8536 31.7955H75.2604V32.085H74.1672V31.7955L74.5351 31.7949ZM71.0981 30.8329C71.0981 30.4643 71.2244 30.1499 71.4757 29.889C71.7276 29.6273 72.0267 29.4968 72.3745 29.4968C72.7382 29.4968 73.047 29.6252 73.3031 29.882C73.5585 30.1388 73.6862 30.4449 73.6862 30.801C73.6862 31.1744 73.5613 31.4936 73.3108 31.7588C73.0602 32.0225 72.7555 32.1551 72.3967 32.1551C72.033 32.1551 71.7255 32.026 71.475 31.7664C71.223 31.5068 71.0981 31.1959 71.0981 30.8329ZM71.434 30.8266C71.434 31.1168 71.5249 31.3597 71.7075 31.5547C71.8907 31.749 72.1184 31.8469 72.3918 31.8469C72.6611 31.8469 72.8881 31.749 73.072 31.5526C73.2566 31.3562 73.3489 31.1133 73.3489 30.8232C73.3489 30.5268 73.2566 30.2832 73.0713 30.0923C72.886 29.9015 72.6514 29.8057 72.3689 29.8057C72.1121 29.8057 71.8914 29.9035 71.7089 30.1C71.5256 30.2957 71.434 30.5379 71.434 30.8266ZM67.3058 31.7949V29.0526H66.9365V28.7632H67.6188V30.6802L68.5537 29.8612H68.2205V29.5759H69.2956V29.8612H68.9743L68.0019 30.7121L69.1124 31.7949H69.4365V32.0843H68.3378V31.7949H68.6939L67.6195 30.744V31.7949H67.9464V32.0843H66.9365V31.7949H67.3058ZM64.0187 31.7949V29.8612H63.6495V29.5759H64.3359V29.9493C64.4254 29.8029 64.533 29.6953 64.6572 29.6273C64.7829 29.5586 64.9321 29.5246 65.107 29.5246C65.2798 29.5246 65.4394 29.5607 65.5852 29.6322C65.7302 29.7037 65.8496 29.805 65.944 29.9362C66.0065 30.0257 66.0516 30.1242 66.0787 30.2325C66.1057 30.3408 66.1196 30.4928 66.1196 30.6885V31.7949H66.493V32.0843H65.4276V31.7949H65.801V30.7822C65.801 30.6226 65.7955 30.5025 65.7844 30.422C65.774 30.3415 65.7552 30.27 65.7296 30.2075C65.6782 30.084 65.5977 29.9903 65.4894 29.9258C65.3818 29.8612 65.252 29.8286 65.0993 29.8286C64.8412 29.8286 64.6475 29.914 64.5198 30.0861C64.3921 30.2582 64.3282 30.5171 64.3282 30.8648V31.7955H64.7065V32.085H63.646V31.7955L64.0187 31.7949ZM62.7673 31.7949H63.1366V32.0843H62.4404V31.7241C62.2981 31.8663 62.1517 31.9718 62.0011 32.0392C61.8518 32.1072 61.6887 32.1405 61.5145 32.1405C61.1384 32.1405 60.826 32.0135 60.5769 31.7608C60.327 31.5075 60.2021 31.1931 60.2021 30.8183C60.2021 30.4498 60.3242 30.1402 60.5678 29.889C60.8121 29.6377 61.1182 29.5114 61.4868 29.5114C61.6749 29.5114 61.8498 29.5468 62.0101 29.6155C62.1704 29.6849 62.3169 29.789 62.4494 29.9278V29.5766H63.1359V29.8661H62.7666L62.7673 31.7949ZM62.4494 30.8454C62.4494 30.5594 62.3543 30.3151 62.1642 30.1138C61.974 29.9112 61.7512 29.8098 61.4958 29.8098C61.2327 29.8098 61.0072 29.9063 60.8177 30.0986C60.6289 30.2908 60.5338 30.5261 60.5338 30.8037C60.5338 31.0973 60.6289 31.343 60.8177 31.5429C61.0072 31.7421 61.2355 31.842 61.5055 31.842C61.7533 31.842 61.9719 31.7421 62.1628 31.5429C62.3537 31.3437 62.4494 31.1119 62.4494 30.8454ZM57.3252 32.085V31.7817H57.6986V29.0582H57.3252V28.7639H58.4093C58.7189 28.7639 58.9646 28.8444 59.1457 29.0054C59.3269 29.1664 59.4185 29.3823 59.4185 29.6509C59.4185 29.8057 59.3907 29.9375 59.3345 30.0458C59.2783 30.1541 59.1957 30.2374 59.0867 30.2964C59.2422 30.347 59.3671 30.4414 59.458 30.5802C59.5497 30.7198 59.5962 30.8815 59.5962 31.0675C59.5962 31.2424 59.5628 31.402 59.4955 31.5478C59.4289 31.6928 59.3352 31.8094 59.2137 31.8983C59.1228 31.9649 59.0215 32.0128 58.9118 32.0412C58.8021 32.0704 58.6453 32.085 58.444 32.085H57.3252ZM58.0172 30.1978H58.2178C58.5384 30.1978 58.7626 30.1534 58.8903 30.0646C59.018 29.9757 59.0819 29.83 59.0819 29.628C59.0819 29.4475 59.0194 29.3115 58.8959 29.2192C58.7723 29.1276 58.5884 29.0811 58.3455 29.0811H58.0172V30.1978ZM58.0172 31.7671H58.4801C58.7487 31.7671 58.9479 31.7164 59.0763 31.6144C59.2047 31.5124 59.2686 31.3562 59.2686 31.1445C59.2686 30.9349 59.2033 30.7781 59.0714 30.6726C58.9396 30.5678 58.7404 30.515 58.4752 30.515H58.0165V31.7671H58.0172Z" fill="#057DC1"/>
</svg>
