<svg width="162" height="40" viewBox="0 0 162 40" fill="none" xmlns="http://www.w3.org/2000/svg">
<g clip-path="url(#clip0_291_3563)">
<path d="M85.3982 1.31901C85.4203 1.28169 85.4457 1.28169 85.4765 1.31901L85.4308 1.35633L85.3986 1.31901H85.3982Z" fill="#0124DD"/>
<path d="M46.35 14.3791C46.841 12.8935 47.307 11.4898 47.7624 10.0977C47.8182 9.92772 47.9324 9.88859 48.0802 9.86141C50.5398 9.40233 53.0092 9.01136 55.5213 9.13564C57.2942 9.21898 58.9987 9.58096 60.5252 10.5328C62.5956 11.8213 63.5421 13.762 63.6765 16.1419C63.7548 17.5101 63.5319 18.8613 63.3366 20.2008C62.9304 22.9304 62.5123 25.6566 62.1199 28.3865C62.0981 28.6195 61.9507 28.8224 61.7358 28.9152C60.1346 29.7938 58.3975 30.275 56.613 30.5671C55.3191 30.7892 54.0045 30.9044 52.6925 30.9044C51.7699 30.9044 50.8391 30.8457 49.9253 30.7359C48.0708 30.5029 46.3424 29.9268 44.9963 28.5637C43.8977 27.4386 43.2806 25.924 43.2806 24.3489C43.2806 22.5434 44.0901 20.8317 45.4855 19.6859C46.8656 18.5507 48.4973 17.9862 50.2155 17.621C52.8178 17.0702 55.4437 17.1452 58.0714 17.3456C58.3994 17.3695 58.4707 17.2691 58.4863 16.9767C58.6037 14.927 57.3732 13.4548 55.2126 13.0591C53.7135 12.7837 52.2417 13.0218 50.7695 13.2631C49.2712 13.5077 47.7867 13.8838 46.3515 14.3787L46.3504 14.3791H46.35ZM55.5419 20.5625C55.505 20.5621 55.464 20.5621 55.4278 20.5621C54.531 20.5621 53.6338 20.6306 52.7479 20.7675C51.7486 20.9375 50.7779 21.2009 49.9724 21.8636C49.0614 22.6133 48.8183 23.6195 48.9984 24.7276C49.1683 25.7389 49.8756 26.2929 50.7916 26.6194C51.2116 26.7676 51.6489 26.8621 52.0921 26.9002C53.7306 27.0582 55.3216 26.7726 56.9022 26.3817C57.1217 26.353 57.2859 26.1653 57.2859 25.9436C57.2859 25.9418 57.2859 25.9396 57.2859 25.9382C57.5018 24.3319 57.716 22.7238 57.954 21.1212C57.995 20.844 57.9029 20.7915 57.6718 20.7472C56.9692 20.6309 56.2539 20.5683 55.5419 20.5614L55.5423 20.5621L55.5419 20.5625Z" fill="#114185"/>
<path d="M122.23 25.5728C121.958 26.399 121.72 27.1382 121.469 27.8777C121.268 28.4846 121.054 29.0861 120.864 29.6981C120.826 29.8894 120.678 30.0398 120.486 30.0786C117.886 30.7721 115.251 31.1475 112.566 30.8094C109.506 30.4235 106.977 29.1097 105.427 26.3037C104.474 24.5666 104.171 22.6748 104.3 20.7254C104.547 17.0169 106.092 13.942 108.964 11.5607C110.71 10.1124 112.746 9.3682 114.986 9.14717C116.531 8.99571 118.068 9.0247 119.575 9.44465C122.645 10.2947 124.691 12.6825 125.084 15.844C125.31 17.6608 125.084 19.4456 124.79 21.232C124.754 21.4548 124.642 21.4614 124.472 21.4614C123.648 21.4614 122.822 21.4614 121.998 21.4614C118.032 21.4614 114.066 21.4614 110.1 21.4614C109.781 21.4614 109.687 21.5396 109.682 21.8675C109.638 24.5394 111.113 26.3037 113.739 26.7541C115.68 27.094 117.568 26.7997 119.453 26.3885C120.394 26.1798 121.325 25.9026 122.231 25.5718L122.231 25.5728H122.23ZM115.296 17.9923H119.103C120.266 17.9923 120.266 17.9923 120.305 16.8295C120.384 14.4754 118.945 12.9409 116.604 12.8101C113.805 12.6521 111.166 14.6798 110.486 17.6879C110.429 17.9376 110.486 17.9988 110.741 17.9974C112.255 17.9854 113.766 17.9923 115.296 17.9923Z" fill="#114185"/>
<path d="M132.003 30.8774C129.511 30.8636 127.026 30.4437 124.664 29.6527C124.428 29.5712 124.365 29.503 124.45 29.2465C124.839 28.07 125.211 26.8873 125.567 25.6988C125.655 25.4064 125.759 25.4303 125.994 25.5426C127.628 26.3409 129.426 26.7579 131.245 26.7579C131.941 26.7579 132.64 26.6953 133.324 26.5757C133.908 26.4873 134.464 26.259 134.942 25.913C135.428 25.576 135.718 25.022 135.718 24.4306C135.718 23.9299 135.51 23.4508 135.143 23.1099C134.711 22.7106 134.225 22.3711 133.702 22.104C132.401 21.3764 131.079 20.6949 129.843 19.8521C126.524 17.5798 126.928 12.8495 130.197 10.7743C131.645 9.8547 133.231 9.39416 134.915 9.21915C137.723 8.92855 140.438 9.40938 143.113 10.2152C143.358 10.2884 143.421 10.3547 143.327 10.6145C142.924 11.7313 142.535 12.8545 142.17 13.985C142.073 14.2825 141.957 14.2604 141.728 14.155C140.114 13.3933 138.348 12.9973 136.563 12.9973C136.5 12.9973 136.434 12.9987 136.372 12.9987C135.475 13.0208 134.599 13.1687 133.84 13.6991C133.336 14.0202 133.031 14.5764 133.031 15.1739C133.031 15.3485 133.057 15.5228 133.108 15.6895C133.255 16.1 133.531 16.4515 133.895 16.6906C134.682 17.2823 135.583 17.6816 136.445 18.1541C137.497 18.702 138.508 19.3437 139.453 20.0608C142.254 22.2837 141.971 26.5195 139.283 28.6711C137.55 30.0563 135.52 30.6104 133.362 30.8075C132.82 30.8553 132.281 30.864 132.004 30.8774H132.003Z" fill="#114185"/>
<path d="M150.337 30.8777C147.876 30.856 145.429 30.4437 143.094 29.6653C142.824 29.5751 142.754 29.4954 142.854 29.2099C143.238 28.0576 143.602 26.8985 143.956 25.7357C144.041 25.4535 144.126 25.4129 144.401 25.5455C146.038 26.3419 147.839 26.7572 149.658 26.7572C150.34 26.7572 151.025 26.697 151.697 26.5825C152.228 26.4996 152.739 26.3097 153.195 26.0253C154.321 25.3064 154.459 23.9856 153.507 23.0609C153.109 22.7029 152.663 22.3957 152.186 22.1515C150.826 21.3797 149.414 20.6898 148.134 19.772C145.182 17.6389 145.549 13.7788 147.354 11.8414C148.571 10.5377 150.108 9.83764 151.813 9.46189C154.075 8.95207 156.335 9.07454 158.595 9.49269C159.546 9.66263 160.478 9.92097 161.409 10.1724C161.719 10.259 161.831 10.3511 161.7 10.7044C161.307 11.77 160.95 12.8476 160.603 13.9335C160.507 14.231 160.41 14.2738 160.117 14.1462C158.499 13.3871 156.73 12.9918 154.942 12.9918C154.908 12.9918 154.872 12.9918 154.838 12.9918C153.988 13.007 153.167 13.1328 152.426 13.5781C151.724 13.998 151.369 14.6082 151.474 15.4478C151.54 15.9815 151.862 16.3536 152.266 16.6598C153.116 17.3041 154.094 17.7287 155.018 18.2389C156.072 18.8219 157.112 19.4288 158.031 20.2122C160.608 22.4218 160.317 26.518 157.732 28.6254C156.344 29.7592 154.732 30.3473 152.993 30.6513C152.116 30.7929 151.226 30.8719 150.336 30.8785L150.337 30.8777H150.337Z" fill="#114185"/>
<path d="M83.0017 25.8737C82.9151 26.3835 82.6955 26.8408 82.5342 27.322C82.2266 28.238 81.8987 29.1456 81.5943 30.0634C81.5483 30.2515 81.3863 30.3888 81.1932 30.4033C79.1536 30.7432 77.0919 30.9591 75.02 30.8026C71.9285 30.5696 69.2769 29.4427 67.4547 26.8085C66.1698 24.9522 65.7158 22.8431 65.8299 20.6219C66.0202 16.9166 67.5909 13.8845 70.4853 11.5626C72.1441 10.2336 74.0953 9.58099 76.1741 9.30887C77.0741 9.1835 77.985 9.11719 78.8931 9.11719C80.5751 9.11719 82.2545 9.33966 83.8796 9.77013C84.359 9.90093 84.821 10.0846 85.292 10.2375C85.462 10.2919 85.5062 10.3651 85.4435 10.5502C85.0424 11.7228 84.6449 12.8993 84.2691 14.0805C84.1858 14.3407 84.0688 14.2878 83.9003 14.2215C82.7009 13.7302 81.4262 13.4305 80.1352 13.3392C77.3357 13.1812 74.9019 13.9512 73.1547 16.2814C71.518 18.4656 71.2647 22.0926 73.017 24.2852C74.1065 25.645 75.5443 26.3657 77.2509 26.5643C79.0916 26.7785 80.8711 26.4234 82.6285 25.9186C82.7408 25.8864 82.8546 25.8643 82.9687 25.8371L83.0017 25.874V25.8737Z" fill="#114185"/>
<path d="M102.378 25.8502C101.987 26.9753 101.538 28.0888 101.217 29.2378C100.984 30.0759 100.592 30.4733 99.677 30.565C97.1276 30.8201 94.5781 31.1056 92.0283 30.4306C88.019 29.3649 85.3997 26.1662 85.1822 22.0087C84.9442 17.491 86.6747 13.881 90.3137 11.2109C91.8435 10.0909 93.6281 9.56042 95.4909 9.31729C96.3902 9.19265 97.3011 9.12598 98.2099 9.12598C99.8919 9.12598 101.569 9.34664 103.194 9.77602C103.66 9.90356 104.107 10.0938 104.571 10.2282C104.814 10.2996 104.821 10.4101 104.741 10.6224C104.352 11.7595 103.966 12.8965 103.604 14.0422C103.517 14.3158 103.414 14.3057 103.191 14.2209C101.41 13.5411 99.5879 13.1722 97.6656 13.3708C94.4006 13.7208 91.9156 15.8797 91.2884 19.0563C90.8362 21.3492 91.2511 23.4468 93.0784 25.0697C94.535 26.3615 96.3076 26.722 98.1961 26.6115C99.5259 26.5235 100.846 26.2709 102.115 25.8633C102.192 25.8502 102.26 25.7875 102.379 25.8502H102.378Z" fill="#114185"/>
<path d="M37.6274 21.1727L16.4543 0V3.24984L34.3775 21.1727L34.3844 21.1796L18.8595 36.7045L18.841 36.6857L3.3263 21.1727L3.31253 21.1593L10.929 13.5429H7.62295L0 21.1658L0.00688449 21.1727L18.8342 40L18.841 39.9931L37.6444 21.1897L37.6274 21.1727Z" fill="#FE6309"/>
<path d="M16.4478 5.48633V8.73617L28.891 21.1794L18.8664 31.2039L8.83319 21.1725L8.81943 21.1591L16.4359 13.5426H13.1302L5.5069 21.1656L5.51378 21.1725L17.2058 32.8645L18.8411 34.4998L20.5031 32.8391L32.151 21.1895L16.4478 5.48633Z" fill="#FE6309"/>
<path d="M26.6626 21.1726L20.4538 14.957L18.8016 13.3047L17.1768 14.9294L10.9355 21.1657L17.1801 27.4103L18.8153 29.0452L20.4741 27.3846L26.6796 21.1892L26.6626 21.1722V21.1726ZM18.844 25.762L14.2549 21.1726L14.2411 21.1588L18.8182 16.5817L23.4077 21.1708L18.844 25.7616V25.762Z" fill="#FE6309"/>
</g>
<defs>
<clipPath id="clip0_291_3563">
<rect width="161.754" height="40" fill="white"/>
</clipPath>
</defs>
</svg>
