<svg width="62" height="80" viewBox="0 0 62 80" fill="none" xmlns="http://www.w3.org/2000/svg">
<g clip-path="url(#clip0_298_13469)">
<path fill-rule="evenodd" clip-rule="evenodd" d="M32.9616 71.7012C35.1017 72.0148 37.093 72.7867 38.8329 73.9139V77.9781C36.7514 75.9784 33.9253 74.7479 30.8123 74.7447L30.8006 74.7613L30.7889 74.7447C27.6754 74.7476 24.8489 75.9782 22.7671 77.9781V73.9139C24.5074 72.7865 26.4994 72.0146 28.6398 71.7011L26.8989 69.2354L34.7028 69.2355L32.9616 71.7012Z" fill="#426091"/>
<path d="M30.8001 69.8462C47.3634 69.8462 60.7906 56.419 60.7906 39.8557C60.7906 23.2924 47.3634 9.86523 30.8001 9.86523C14.2368 9.86523 0.80957 23.2924 0.80957 39.8557C0.80957 56.419 14.2368 69.8462 30.8001 69.8462Z" fill="#C0A062"/>
<path d="M30.8 67.7812C46.223 67.7812 58.7258 55.2784 58.7258 39.8554C58.7258 24.4325 46.223 11.9297 30.8 11.9297C15.3771 11.9297 2.87427 24.4325 2.87427 39.8554C2.87427 55.2784 15.3771 67.7812 30.8 67.7812Z" fill="#426091"/>
<path d="M30.8 65.9048C45.1868 65.9048 56.8496 54.242 56.8496 39.8552C56.8496 25.4684 45.1868 13.8057 30.8 13.8057C16.4133 13.8057 4.75049 25.4684 4.75049 39.8552C4.75049 54.242 16.4133 65.9048 30.8 65.9048Z" fill="white"/>
<path fill-rule="evenodd" clip-rule="evenodd" d="M40.3528 13.6074C51.0699 17.5101 58.7258 27.7904 58.7258 39.8555C58.7258 51.9206 51.0699 62.2004 40.3528 66.1031V20.5575V13.6074Z" fill="#426091"/>
<path fill-rule="evenodd" clip-rule="evenodd" d="M21.2472 13.6076C10.5301 17.5102 2.87427 27.7905 2.87427 39.8556C2.87427 51.9207 10.5301 62.2005 21.2472 66.1033V13.6076Z" fill="#426091"/>
<path fill-rule="evenodd" clip-rule="evenodd" d="M36.6732 31.5598L53.8568 31.5425L40.2998 42.7281L45.0453 58.6472L30.8011 49.628L16.5564 58.6469L21.3019 42.7281L7.74292 31.5425L24.9292 31.5598L30.8008 14.7891L36.6732 31.5598Z" fill="white"/>
<path fill-rule="evenodd" clip-rule="evenodd" d="M30.8012 18.6816L25.8417 32.8466L11.3284 32.8322L22.7785 42.2778L18.7708 55.7221L30.8012 48.1049L42.8313 55.7221L38.8234 42.2781L50.2719 32.8322L35.7608 32.8466L30.8012 18.6816Z" fill="#C0A062"/>
<path fill-rule="evenodd" clip-rule="evenodd" d="M28.0473 42.1157L30.4133 42.1311C30.4701 42.1311 30.6005 42.1264 30.6856 42.1061C30.6785 42.0296 30.6391 41.9613 30.5938 41.9005C30.4659 41.7295 30.0197 41.4817 29.8339 41.3829C29.4369 41.1725 28.9382 40.8954 28.6159 40.5781C28.3597 40.324 28.1638 40.0237 28.0296 39.6868C27.9956 39.6004 27.9663 39.5127 27.9413 39.4238C27.8509 39.7814 27.7059 40.1304 27.5042 40.4326C27.8325 40.9245 28.0108 41.5407 28.0473 42.1157ZM26.7309 44.6076C26.2533 44.8522 25.7107 44.9441 25.1646 44.9441H25.1384L21.2474 44.9619L21.5884 42.2837H25.1597C25.1833 42.2836 25.235 42.2809 25.2653 42.2716C25.2759 42.2393 25.2786 42.1821 25.2786 42.1568C25.2786 42.006 25.2308 41.6975 25.0273 41.6975H24.0783V39.1677H25.0273C25.2308 39.1677 25.2786 38.8592 25.2786 38.7084C25.2786 38.683 25.2759 38.6259 25.2653 38.5936C25.235 38.5844 25.1838 38.5816 25.1629 38.5815H21.5884L20.24 35.9033L25.1646 35.9211C25.9116 35.9211 26.6522 36.0929 27.228 36.5924C27.601 36.9145 27.8373 37.3153 27.9576 37.7619C28.0859 37.3572 28.313 36.9924 28.6402 36.6804C29.1885 36.1576 29.8779 35.9261 30.6288 35.9261L34.4533 35.9064L33.9351 36.9355C34.6084 36.272 35.4525 35.9261 36.4335 35.9261L41.3603 35.9083L40.0118 38.5865H36.4537C36.1474 38.6032 35.9428 38.7588 35.765 39.0053C35.4673 39.4199 35.3754 39.9315 35.3754 40.4326C35.3754 40.9337 35.4673 41.4453 35.7647 41.8593C35.9426 42.1061 36.1472 42.2618 36.4533 42.2781L40.0119 42.2789L40.3529 44.9569L36.4349 44.9391C35.3007 44.9391 34.3504 44.478 33.6353 43.5994C33.4847 43.415 33.3522 43.2231 33.2368 43.0244C33.0868 43.411 32.842 43.755 32.5042 44.0463C31.9226 44.5516 31.1972 44.763 30.4374 44.7879L30.4253 44.7884L26.6372 44.7939L26.7309 44.6076ZM32.6119 39.9864C32.6427 39.5014 32.7327 39.0319 32.8914 38.5865H31.2425L30.6315 38.5871C30.6197 38.5871 30.6019 38.5894 30.585 38.5938C30.7311 38.7947 31.2539 39.0876 31.419 39.1728C31.8159 39.3778 32.2522 39.6333 32.5734 39.9479C32.5864 39.9605 32.5991 39.9735 32.6119 39.9864Z" fill="white"/>
<path d="M21.4941 36.6797L25.1361 36.6929H25.1503H25.1644C25.8301 36.6929 26.3507 36.8531 26.7233 37.1762C27.0959 37.4982 27.283 37.9502 27.283 38.5292C27.283 39.2188 27.0024 40.0714 26.4427 40.4331C27.0024 40.7947 27.283 41.6473 27.283 42.337C27.283 42.916 27.0959 43.3679 26.7233 43.6899C26.3507 44.0131 25.8301 44.1732 25.1644 44.1732H25.1503H25.1361L21.4941 44.1865L22.0635 43.0556H24.0723H25.1644C25.7617 43.0505 26.0499 42.6831 26.0499 42.1572C26.0499 41.5551 25.7084 40.9266 25.0272 40.9266H24.8495V40.4331V39.9395H25.0272C25.7084 39.9395 26.0499 39.311 26.0499 38.7089C26.0499 38.183 25.7617 37.8156 25.1644 37.8106H24.0723H22.0635L21.4941 36.6797ZM40.1059 44.1814L36.4356 44.1682C35.5407 44.1682 34.8065 43.817 34.2328 43.1121C33.6575 42.4077 33.3707 41.5333 33.3707 40.486L33.371 40.4331L33.3707 40.3801C33.3707 39.3327 33.6575 38.4584 34.2328 37.754C34.8065 37.0491 35.5407 36.6979 36.4356 36.6979L40.1059 36.6847L39.5365 37.8156H36.4356V37.8162C35.9121 37.837 35.4797 38.0823 35.1386 38.5556C34.7832 39.0505 34.6038 39.6756 34.6038 40.4331C34.6038 41.1906 34.7832 41.8156 35.1386 42.3105C35.4797 42.7838 35.9121 43.0291 36.4356 43.0499V43.0505H39.5365L40.1059 44.1814ZM30.4119 42.9029C31.1103 42.9029 31.4579 42.6452 31.4579 42.1307C31.4579 41.8881 31.3752 41.6588 31.2115 41.4392C31.0478 41.2202 30.708 40.9743 30.1952 40.7019C29.6822 40.43 29.3361 40.2052 29.1584 40.0303C28.9807 39.8541 28.8436 39.6465 28.7469 39.4037C28.6518 39.1626 28.6035 38.8953 28.6035 38.602C28.6035 38.0539 28.7936 37.6002 29.1725 37.2392C29.5513 36.8778 30.0377 36.6979 30.6316 36.6979L33.1979 36.6847L32.6285 37.8156H31.2418L30.6316 37.8162C30.2376 37.8159 29.7914 38.0732 29.7914 38.5917C29.7914 38.9979 30.2154 39.42 31.0649 39.8586C31.5125 40.0898 31.8351 40.305 32.0331 40.4989C32.2311 40.6935 32.3825 40.9214 32.4853 41.1804C32.5896 41.4392 32.6411 41.7297 32.6411 42.048C32.6411 42.6226 32.4276 43.0942 31.9987 43.4639C31.5983 43.8119 31.0689 43.9958 30.4119 44.0175L27.89 44.0211L28.4593 42.8903L30.4119 42.9029Z" fill="#426091"/>
<path fill-rule="evenodd" clip-rule="evenodd" d="M30.8 9.05664C47.8072 9.05664 61.5993 22.8488 61.5993 39.8559C61.5993 56.8631 47.8072 70.6552 30.8 70.6552C13.7929 70.6552 0.000732422 56.8631 0.000732422 39.8559C0.000732422 22.8488 13.7928 9.05664 30.8 9.05664ZM30.8 9.86712C47.3596 9.86712 60.7889 23.2963 60.7889 39.856C60.7889 56.4157 47.3597 69.8449 30.8 69.8449C14.2404 69.8449 0.811113 56.4157 0.811113 39.856C0.811113 23.2964 14.2403 9.86712 30.8 9.86712Z" fill="#426091"/>
<path fill-rule="evenodd" clip-rule="evenodd" d="M30.7999 60.7861C38.6181 60.7861 45.8993 63.0849 52.0078 67.0417V77.7718C46.5047 72.4852 39.0316 69.2346 30.7999 69.2346C22.5682 69.2346 15.0951 72.4852 9.59204 77.7718V67.0417C15.7005 63.0849 22.9817 60.7861 30.7999 60.7861Z" fill="white"/>
<path fill-rule="evenodd" clip-rule="evenodd" d="M30.8 60C38.4985 60 45.9733 62.1961 52.4355 66.3821L52.7946 66.6145V79.619L51.4629 78.3397C45.8887 72.9847 38.5309 70.0219 30.8 70.0219C23.0691 70.0219 15.7113 72.9847 10.1371 78.3397L8.80542 79.619V66.6145L9.16446 66.3821C15.6266 62.1961 23.1014 60 30.8 60ZM30.8 60.7867C38.6182 60.7867 45.8993 63.0855 52.0078 67.0423V77.7724C46.5047 72.4858 39.0316 69.2352 30.8 69.2352C22.5683 69.2352 15.0952 72.4858 9.59209 77.7724V67.0423C15.7006 63.0855 22.9817 60.7867 30.8 60.7867Z" fill="#426091"/>
<path fill-rule="evenodd" clip-rule="evenodd" d="M30.8 0C38.4985 0 45.9733 2.19615 52.4355 6.38206L52.7946 6.61459V19.619L51.4629 18.3397C45.8887 12.9848 38.5309 10.022 30.8 10.022C23.0691 10.022 15.7113 12.9848 10.1371 18.3397L8.80542 19.619V6.61459L9.16446 6.38206C15.6266 2.19616 23.1014 0 30.8 0ZM30.8 0.786691C38.6182 0.786691 45.8993 3.08558 52.0078 7.04238V17.7724C46.5047 12.4858 39.0316 9.23527 30.8 9.23527C22.5683 9.23527 15.0952 12.4859 9.59209 17.7724V7.04238C15.7006 3.08557 22.9817 0.786691 30.8 0.786691Z" fill="#426091"/>
<path fill-rule="evenodd" clip-rule="evenodd" d="M30.7999 0.787109C38.6181 0.787109 45.8993 3.08599 52.0078 7.0428V17.7728C46.5047 12.4862 39.0316 9.23569 30.7999 9.23569C22.5682 9.23569 15.0951 12.4863 9.59204 17.7728V7.0428C15.7005 3.08599 22.9817 0.787109 30.7999 0.787109Z" fill="white"/>
<path fill-rule="evenodd" clip-rule="evenodd" d="M47.2513 10.4772V9.53405L47.5958 9.93674C47.7113 10.0718 47.8343 10.2023 47.9666 10.3209C48.082 10.4242 48.2042 10.5192 48.334 10.6035C48.3983 10.6453 48.4658 10.6836 48.5361 10.7147C48.5701 10.7298 48.6142 10.7467 48.6578 10.7509C48.6614 10.7314 48.6622 10.7042 48.6622 10.6914C48.6622 10.6389 48.6523 10.5904 48.6303 10.5431C48.6015 10.4815 48.5637 10.4248 48.5202 10.3725C48.4652 10.3063 48.4053 10.2447 48.3431 10.1864C48.2687 10.1178 48.1937 10.0499 48.1184 9.98199C48.0113 9.88494 47.9073 9.78439 47.8073 9.67992C47.7044 9.57231 47.6116 9.45496 47.5318 9.32939C47.4502 9.20134 47.3854 9.06369 47.3375 8.91927C47.286 8.76191 47.2631 8.59734 47.2631 8.43204C47.2631 8.26885 47.2827 8.08973 47.3611 7.94473C47.4303 7.81436 47.5347 7.71476 47.6772 7.66892C47.8134 7.62629 47.9579 7.63815 48.0921 7.67845C48.2472 7.72371 48.3966 7.8049 48.5316 7.8925C48.6923 7.99683 48.844 8.11454 48.9874 8.24106C49.1264 8.36351 49.2602 8.49381 49.3812 8.63423L49.4287 8.6893V9.77981L49.087 9.39705C48.9656 9.26108 48.8378 9.12968 48.7016 9.00891C48.5948 8.91498 48.4821 8.82448 48.3625 8.74692C48.3278 8.72429 48.2235 8.66129 48.1584 8.64288C48.1572 8.65569 48.157 8.66864 48.157 8.67628C48.157 8.73012 48.1657 8.78272 48.186 8.83284C48.2097 8.89134 48.2415 8.94649 48.2792 8.99705C48.3248 9.05824 48.3759 9.11477 48.4298 9.16759C48.4952 9.23074 48.5617 9.29272 48.6301 9.35369C48.7451 9.45722 48.8574 9.56446 48.9662 9.67454C49.0775 9.7873 49.1788 9.90917 49.2668 10.0406C49.3574 10.1752 49.4292 10.3201 49.4809 10.4736C49.5385 10.6424 49.5623 10.82 49.5623 10.9979C49.5623 11.1647 49.5403 11.3477 49.4544 11.495C49.3729 11.6319 49.2499 11.723 49.0923 11.7525C48.9379 11.7808 48.7755 11.7469 48.6299 11.6939C48.4533 11.6296 48.2837 11.5349 48.1265 11.4329C47.9655 11.3284 47.8137 11.2102 47.6705 11.0823C47.5872 11.008 47.5062 10.9295 47.4306 10.8465L47.4797 10.9477L46.2711 10.3318L45.4917 8.68908L45.4759 8.68108V9.9267L44.5595 9.45977V9.41604L43.5879 9.0431L43.2938 8.11047L42.4282 7.77813L42.1346 8.4853L41.1803 8.11905L42.5279 5.00001L43.293 5.29379L44.5595 9.19945V5.80359L45.7157 6.39268C45.8604 6.46645 46.0018 6.54728 46.1373 6.63669C46.2583 6.71614 46.3756 6.80374 46.4821 6.90268C46.6596 7.06907 46.8087 7.26085 46.915 7.48021C47.0205 7.6973 47.0714 7.92866 47.0714 8.17013C47.0714 8.4012 47.0189 8.64013 46.841 8.80179C46.7452 8.88836 46.6305 8.93238 46.5096 8.94904L47.2513 10.4772ZM24.1565 4.42612V3.55416L27.179 3.07537V3.965L26.1553 4.1271V6.85072L25.1827 7.00496V4.28118L24.1647 4.4424C24.1881 4.4902 24.2088 4.53967 24.2272 4.59038C24.3095 4.8181 24.3394 5.06314 24.3394 5.30439C24.3394 5.56165 24.305 5.81622 24.2304 6.06271C24.1584 6.30018 24.0515 6.52331 23.9079 6.72579C23.7644 6.92841 23.5874 7.10113 23.3842 7.24438C23.1703 7.39418 22.9323 7.50004 22.6804 7.56748C22.4459 7.63034 22.1968 7.66104 21.9552 7.62125C21.7421 7.58516 21.5466 7.50193 21.3826 7.3594C21.2189 7.21615 21.106 7.03339 21.0323 6.8299C20.95 6.60203 20.9201 6.35707 20.9201 6.11574C20.9201 5.85856 20.9545 5.60385 21.029 5.3575C21.1011 5.12003 21.2082 4.89682 21.3518 4.6942C21.4958 4.49187 21.6718 4.31915 21.8753 4.17583C22.0891 4.02603 22.3271 3.92017 22.5791 3.85258C22.8136 3.78994 23.0627 3.75924 23.3041 3.79896C23.5173 3.8349 23.7138 3.91799 23.8772 4.06095C23.9954 4.16441 24.087 4.28847 24.1565 4.42612ZM13.4759 10.0736C13.4356 10.0806 13.3945 10.0936 13.3578 10.1071C13.2834 10.1349 13.2094 10.1639 13.1351 10.1936C13.0294 10.2352 12.9208 10.2716 12.8102 10.2999C12.6959 10.3286 12.5741 10.337 12.4593 10.3059C12.3317 10.2713 12.2339 10.1876 12.1672 10.0733C12.0939 9.94452 12.0767 9.77944 12.0767 9.63386C12.0767 9.44601 12.104 9.26121 12.1608 9.08231C12.2146 8.9109 12.289 8.74721 12.3834 8.59406C12.4767 8.44353 12.5868 8.30399 12.7119 8.17907C12.8393 8.05088 12.9805 7.93774 13.1322 7.83931C13.2793 7.74385 13.4342 7.65931 13.5962 7.59194C13.7298 7.53599 13.8756 7.48565 14.0196 7.46564L14.2423 7.43472V8.32792L14.0811 8.35688C13.957 8.37914 13.8361 8.41421 13.7202 8.46215C13.6049 8.51054 13.4943 8.56838 13.3894 8.63655C13.2676 8.71548 13.1509 8.81305 13.0681 8.93324C13.0071 9.02171 12.9706 9.11767 12.9706 9.22564C12.9706 9.23328 12.9708 9.24535 12.9717 9.25736C12.9974 9.25437 13.025 9.24644 13.046 9.23982C13.1112 9.21814 13.1755 9.19457 13.2401 9.16794C13.3533 9.12276 13.4693 9.08231 13.5867 9.0487C13.7058 9.01465 13.8324 8.99821 13.9544 9.02193C14.0943 9.04834 14.2038 9.12989 14.2764 9.25088C14.3592 9.38591 14.376 9.56671 14.376 9.72189C14.376 9.91426 14.3459 10.1031 14.2853 10.286C14.2244 10.467 14.1394 10.6372 14.0329 10.7955C13.9216 10.9606 13.7894 11.1111 13.6441 11.2468C13.4924 11.3887 13.3276 11.5159 13.1532 11.6291C13.0059 11.7247 12.8509 11.8091 12.6881 11.8752C12.5552 11.9292 12.4022 11.9765 12.2575 11.9742L12.0649 11.9711V11.1092L12.2353 11.087C12.3525 11.0718 12.4669 11.0412 12.5764 10.9971C12.7018 10.9465 12.8213 10.8806 12.9346 10.8069C13.0075 10.7597 13.077 10.7073 13.1431 10.6506C13.2076 10.5954 13.2671 10.535 13.3197 10.4684C13.3675 10.408 13.407 10.342 13.4365 10.2709C13.4625 10.2083 13.4759 10.1439 13.4759 10.0761C13.4759 10.0753 13.4759 10.0745 13.4759 10.0736ZM15.4848 7.8898L16.4212 7.41275V6.08819L17.3377 5.62126V9.27736L16.4212 9.74437V8.34516L15.4848 8.82228V10.2214L14.5683 10.6884V7.03224L15.4848 6.5653V7.8898ZM20.8322 6.25465C20.8322 6.51351 20.7983 6.7699 20.7268 7.01879C20.657 7.26171 20.5535 7.49169 20.4159 7.70362C20.2781 7.91563 20.1078 8.10188 19.9114 8.2615C19.707 8.4268 19.4773 8.5531 19.2306 8.64302C19.0066 8.72443 18.7625 8.77849 18.5224 8.75921C18.3128 8.74117 18.1175 8.67387 17.9524 8.54117C17.788 8.40774 17.6765 8.23022 17.6047 8.03254C17.5232 7.80795 17.495 7.56452 17.495 7.32676C17.495 7.06797 17.5291 6.81151 17.6005 6.56262C17.6703 6.31977 17.7738 6.08972 17.9116 5.87772C18.0499 5.66578 18.2193 5.47968 18.4158 5.31998C18.6202 5.15461 18.8498 5.02831 19.0968 4.93838C19.3208 4.85697 19.5647 4.80284 19.8045 4.82227C20.0142 4.83995 20.2108 4.9071 20.375 5.04046C20.5397 5.17404 20.6508 5.35112 20.7225 5.54887C20.8041 5.77324 20.8322 6.01704 20.8322 6.25465ZM27.2274 6.68652V3.0766L28.2059 2.9909V6.60073L27.2274 6.68652ZM30.8127 4.76821C30.8113 4.69633 30.8105 4.6246 30.8105 4.55293V2.90389L31.7903 2.88672V6.49517L30.8784 6.5111L29.7705 4.96559C29.7002 4.86904 29.632 4.7709 29.5656 4.67159C29.5669 4.74274 29.5677 4.81389 29.5677 4.88497V6.53402L28.5871 6.55097V2.94265L29.5 2.92679L30.6175 4.48744C30.6833 4.58013 30.7487 4.67378 30.8127 4.76821ZM34.1558 5.45712L33.4384 5.38175V4.49502L35.1332 4.6732V6.62475L34.9857 6.66215C34.9191 6.67903 34.8519 6.69169 34.7849 6.70173C34.696 6.71577 34.607 6.72428 34.518 6.7293C34.4195 6.7357 34.3205 6.73781 34.2208 6.73752C34.1182 6.73629 34.0153 6.73083 33.9132 6.72014C33.6333 6.69067 33.3539 6.62679 33.0982 6.50704C32.8732 6.40162 32.6696 6.26127 32.5013 6.07728C32.34 5.90071 32.2194 5.69831 32.1404 5.47248C32.0589 5.24032 32.0233 4.9971 32.0233 4.75148C32.0233 4.57629 32.0426 4.40161 32.0856 4.23144C32.1264 4.07174 32.1873 3.91816 32.2721 3.7768C32.3539 3.63936 32.4548 3.5159 32.5737 3.40895C32.6945 3.30018 32.8311 3.21302 32.9792 3.14653C33.1353 3.07625 33.3006 3.0315 33.4695 3.00815C33.6543 2.98159 33.8422 2.98217 34.0276 3.00175C34.1926 3.01906 34.3563 3.0478 34.5171 3.09014C34.6479 3.12528 34.7831 3.16712 34.9058 3.22481L35.0181 3.2777V4.1995L34.7452 4.08244C34.6313 4.03362 34.5142 3.9928 34.3954 3.96014C34.2795 3.92914 34.1615 3.90681 34.0422 3.89429C33.9008 3.87938 33.7584 3.88403 33.6204 3.91648C33.5047 3.94464 33.3975 3.99302 33.3045 4.06839C33.2127 4.14282 33.1464 4.23798 33.098 4.34464C33.0388 4.47734 33.0195 4.62722 33.0195 4.77098C33.0207 5.04017 33.0745 5.321 33.2631 5.52413C33.4498 5.72369 33.7095 5.80765 33.9752 5.83559C34.0357 5.84185 34.0961 5.84468 34.1558 5.8457L34.1558 5.45712ZM37.9123 6.18896C37.9123 6.15265 37.9068 6.11707 37.887 6.08703C37.8584 6.04468 37.8209 6.01013 37.7789 5.98131C37.7168 5.93861 37.6499 5.90318 37.5821 5.87211C37.4955 5.83333 37.4086 5.79557 37.321 5.75811C37.1957 5.70405 37.0727 5.64439 36.953 5.5784C36.8296 5.51016 36.715 5.42606 36.6154 5.32616C36.5128 5.22344 36.4319 5.10339 36.3725 4.97032C36.3062 4.81965 36.2804 4.65508 36.2804 4.49116C36.2804 4.31452 36.3076 4.13445 36.3894 3.9765C36.4611 3.83645 36.5628 3.72004 36.6971 3.63674C36.8298 3.55526 36.9786 3.51182 37.1326 3.49851C37.3031 3.48257 37.4768 3.50091 37.6439 3.53648C37.8283 3.5757 38.0084 3.63259 38.1825 3.70433C38.3447 3.77097 38.505 3.84904 38.6522 3.94478L38.7412 4.00269V4.96399L38.4428 4.78022C38.3019 4.69342 38.1548 4.6147 38.0023 4.5514C37.8768 4.50004 37.7467 4.45595 37.6138 4.42765C37.53 4.4099 37.3816 4.38705 37.3002 4.42569C37.2596 4.44497 37.2579 4.49371 37.2579 4.53373C37.2579 4.57309 37.2635 4.61536 37.2832 4.65013C37.306 4.69073 37.3371 4.7255 37.3731 4.75475C37.4232 4.7952 37.4788 4.82809 37.5353 4.85624C37.6112 4.89291 37.6878 4.92776 37.7665 4.96057C37.9007 5.01805 38.0334 5.08076 38.1627 5.14857C38.2955 5.2182 38.4195 5.30266 38.5287 5.40503C38.6427 5.51081 38.7321 5.63544 38.7964 5.77658C38.8706 5.93737 38.897 6.11533 38.897 6.29117C38.897 6.47204 38.8667 6.65552 38.7781 6.81631C38.6958 6.96299 38.5784 7.07648 38.4279 7.15251C38.2729 7.23021 38.0987 7.26222 37.9265 7.26768C37.7297 7.27408 37.5308 7.24942 37.3385 7.20846C37.1537 7.16917 36.9734 7.11191 36.799 7.03865C36.6385 6.97084 36.4794 6.8871 36.342 6.77943L36.2668 6.72072V5.76495L36.5701 5.96444C36.7039 6.0524 36.8451 6.1317 36.9925 6.19427C37.1285 6.25182 37.2691 6.29612 37.4136 6.3269C37.4902 6.34312 37.5684 6.35396 37.6469 6.35665C37.7035 6.35862 37.7636 6.35513 37.8178 6.33788C37.8466 6.32886 37.871 6.31475 37.8899 6.29023C37.9089 6.26571 37.9123 6.21835 37.9123 6.18896ZM39.8005 5.02424L38.8018 4.73787V3.8374L41.7538 4.68389V5.58437L40.7575 5.29866V8.02244L39.8005 7.74779L39.8005 5.02424ZM19.8693 6.46258C19.8693 6.32581 19.8583 6.16902 19.8122 6.03828C19.7859 5.96174 19.7453 5.878 19.6819 5.82409C19.6325 5.78117 19.5755 5.76058 19.5115 5.75556C19.4163 5.74916 19.3195 5.77127 19.2305 5.80372C19.119 5.84432 19.017 5.90267 18.9245 5.97622C18.8284 6.05363 18.7488 6.14661 18.6832 6.25043C18.6089 6.36887 18.556 6.49947 18.5186 6.63406C18.4746 6.79107 18.4579 6.95607 18.4579 7.11882C18.4579 7.25662 18.4692 7.41224 18.5148 7.54312C18.5415 7.61908 18.582 7.70253 18.6438 7.75535C18.6946 7.79805 18.7515 7.81923 18.818 7.82446C18.9117 7.83225 19.0092 7.80955 19.0968 7.77768C19.2082 7.73723 19.31 7.67881 19.4025 7.6038C19.4981 7.52683 19.5789 7.43341 19.6447 7.32944C19.7192 7.21253 19.7718 7.08215 19.8087 6.9485C19.8525 6.79106 19.8693 6.62577 19.8693 6.46258ZM23.3016 5.03144C23.2723 4.94617 23.2286 4.85799 23.1611 4.79615C23.1069 4.74573 23.0437 4.71678 22.9717 4.70521C22.8742 4.69044 22.7748 4.70288 22.6803 4.7282C22.5682 4.75825 22.4646 4.80634 22.3697 4.87174C22.2733 4.93882 22.1934 5.02271 22.1271 5.11903C22.0514 5.22947 21.9982 5.35396 21.9605 5.48222C21.9152 5.63573 21.8987 5.7987 21.8987 5.9584C21.8987 6.09925 21.9109 6.25509 21.9575 6.38874C21.9871 6.47306 22.0308 6.56124 22.0972 6.62213C22.1526 6.67233 22.2156 6.70173 22.2898 6.71373C22.3859 6.72974 22.4856 6.71693 22.5791 6.69198C22.691 6.66207 22.7942 6.61406 22.8892 6.54727C22.9852 6.48026 23.0666 6.39616 23.133 6.29961C23.2086 6.19056 23.2616 6.06658 23.2987 5.93919C23.3439 5.7851 23.3605 5.62206 23.3605 5.46178C23.3605 5.32187 23.3484 5.16538 23.3016 5.03144ZM42.8624 6.73497C42.8363 6.80104 42.8096 6.86688 42.782 6.93221L42.7569 6.9918L42.9652 7.07183C42.93 6.95978 42.8958 6.8476 42.8624 6.73497ZM46.121 7.99668C46.1372 7.96554 46.1403 7.91374 46.1403 7.88281C46.1403 7.81966 46.1283 7.75826 46.1053 7.6994C46.0799 7.63385 46.0339 7.57485 45.9846 7.52494C45.9377 7.47728 45.8828 7.43552 45.8265 7.39827C45.744 7.34283 45.6544 7.29409 45.5658 7.24898L45.4759 7.20315V7.74931L45.628 7.8268C45.7194 7.87329 45.8151 7.91985 45.9114 7.95484C45.9611 7.97274 46.0205 7.99217 46.0722 7.99704C46.0829 7.99799 46.1061 7.99915 46.121 7.99668Z" fill="#426091"/>
<path fill-rule="evenodd" clip-rule="evenodd" d="M30.7893 63.5761C30.7984 63.5528 30.8086 63.5297 30.8196 63.5069C30.8919 63.356 30.9936 63.2252 31.1262 63.1219C31.2571 63.0206 31.4064 62.9507 31.5656 62.9097C31.7374 62.8642 31.9165 62.8507 32.0937 62.8569C32.282 62.8635 32.469 62.8883 32.6524 62.9306C32.8197 62.969 32.9878 63.0197 33.1437 63.0919L33.275 63.1528V64.1459L32.9591 64.0102C32.8168 63.949 32.6695 63.8976 32.5191 63.8625C32.3917 63.8335 32.2612 63.8133 32.1304 63.8087C32.0358 63.8054 31.8951 63.8106 31.8123 63.8635C31.7675 63.8921 31.7595 63.9332 31.7595 63.9847C31.7595 64.0084 31.7621 64.0455 31.7753 64.0663C31.7929 64.0936 31.8166 64.1149 31.8441 64.132C31.8911 64.1611 31.9435 64.1819 31.9947 64.1979C32.0714 64.2208 32.1487 64.242 32.2279 64.2606C32.3659 64.2946 32.5031 64.3342 32.6375 64.3798C32.7779 64.4275 32.9112 64.493 33.0298 64.5812C33.1559 64.6742 33.2545 64.7916 33.3248 64.9309C33.4071 65.091 33.4343 65.2738 33.4343 65.4522C33.4343 65.6427 33.4005 65.8316 33.3127 66.0028C33.23 66.1614 33.1133 66.2916 32.9641 66.391C32.8106 66.493 32.635 66.5564 32.4551 66.593C32.2565 66.6338 32.0517 66.6453 31.8493 66.6382C31.6604 66.6317 31.4732 66.6063 31.2893 66.5625C31.1223 66.5226 30.9529 66.465 30.8048 66.3769L30.694 66.3111V65.328L31.017 65.4801C31.1516 65.5435 31.2924 65.5961 31.4371 65.6311C31.5754 65.6645 31.7162 65.683 31.8584 65.688C31.9364 65.6907 32.0149 65.6874 32.0927 65.6765C32.1524 65.6684 32.2126 65.6538 32.267 65.6276C32.3008 65.6112 32.3293 65.5894 32.3509 65.558C32.3708 65.5294 32.3752 65.4886 32.3752 65.4549C32.3752 65.4374 32.374 65.4074 32.3632 65.3933C32.3406 65.3643 32.3101 65.3434 32.2775 65.3272C32.2169 65.2969 32.1522 65.2747 32.0881 65.2571C31.9997 65.2338 31.9113 65.2116 31.8222 65.1897C31.6931 65.1574 31.5654 65.1189 31.4401 65.0731C31.309 65.0247 31.185 64.9575 31.076 64.8697C30.9624 64.778 30.8732 64.6635 30.808 64.532C30.7346 64.3813 30.7079 64.2124 30.7079 64.0458C30.7079 63.9666 30.7135 63.8874 30.7261 63.8095L29.7534 63.8435V66.5671L28.7124 66.6035V63.88L27.6743 63.9161V62.9697L30.7893 62.861L30.7893 63.5761ZM17.4187 68.0979C17.372 68.0974 17.3232 68.1049 17.2789 68.1138C17.1987 68.1309 17.119 68.149 17.0388 68.1677C16.9224 68.1945 16.8041 68.2152 16.685 68.2272C16.5585 68.2397 16.4284 68.2294 16.309 68.1834C16.1783 68.1331 16.0771 68.04 16.0064 67.9182C15.9281 67.7803 15.9067 67.6109 15.9067 67.4546C15.9067 67.2636 15.9364 67.0762 16.0009 66.8967C16.061 66.7276 16.1443 66.5689 16.2505 66.424C16.3554 66.2816 16.4786 66.154 16.617 66.0447C16.7597 65.9309 16.9162 65.8367 17.0817 65.7595C17.2452 65.6833 17.415 65.621 17.5898 65.5772C17.7389 65.5395 17.8977 65.5109 18.0519 65.5118L18.277 65.5132V66.4626L18.0575 66.4693C17.9271 66.4733 17.7977 66.4902 17.6716 66.5214C17.5511 66.552 17.4336 66.5924 17.3208 66.645C17.2011 66.7008 17.0784 66.7767 16.9933 66.8796C16.9346 66.9505 16.9026 67.0271 16.9026 67.1193C16.9026 67.1269 16.9028 67.139 16.9038 67.1502C16.9345 67.1531 16.9696 67.149 16.9971 67.1447C17.0668 67.1325 17.1357 67.1184 17.2057 67.1012C17.3297 67.0723 17.4559 67.0485 17.5824 67.032C17.7149 67.0148 17.8511 67.0179 17.9785 67.0581C18.1226 67.1024 18.2353 67.1948 18.312 67.3235C18.4002 67.4686 18.4213 67.6533 18.4213 67.8201C18.4213 68.0157 18.3885 68.2071 18.3194 68.3909C18.2513 68.569 18.1561 68.7331 18.0363 68.8817C17.9117 69.0357 17.7645 69.1707 17.6047 69.2873C17.4361 69.4105 17.2547 69.5153 17.0656 69.6034C16.902 69.6798 16.7316 69.742 16.5558 69.7845C16.406 69.8206 16.2403 69.8443 16.0868 69.8212L15.894 69.7922V68.8702L16.1237 68.8735C16.2465 68.8754 16.3691 68.8621 16.4884 68.8339C16.6194 68.8026 16.7464 68.7551 16.8682 68.6985C16.944 68.663 17.0172 68.6221 17.0872 68.576C17.1527 68.5329 17.2137 68.4841 17.268 68.4278C17.3144 68.3796 17.3532 68.3254 17.3821 68.2646C17.4072 68.2123 17.4187 68.1583 17.4187 68.1003C17.4187 68.0996 17.4187 68.0987 17.4187 68.0979ZM19.5624 67.2395V68.487L18.5491 68.8162V65.123L19.5882 64.7855C19.7232 64.7417 19.862 64.7011 20.0012 64.6735C20.1125 64.6514 20.2274 64.635 20.3413 64.6344C20.5782 64.634 20.8091 64.6949 20.9833 64.8645C21.1627 65.042 21.2202 65.2889 21.2202 65.5337C21.2202 65.7195 21.1825 65.9004 21.11 66.0712C21.036 66.2461 20.9295 66.403 20.7994 66.5409C20.6591 66.6899 20.4963 66.8145 20.3211 66.919C20.1238 67.0375 19.9103 67.1283 19.6916 67.1992C19.6481 67.2135 19.6051 67.2269 19.5624 67.2395ZM19.5624 66.2725C19.6704 66.2365 19.7803 66.1928 19.8787 66.1364C19.9483 66.0965 20.0193 66.0479 20.0745 65.9901C20.1118 65.9505 20.1427 65.9069 20.1617 65.8562C20.1794 65.8087 20.1881 65.7603 20.1881 65.7096C20.1881 65.6897 20.186 65.6492 20.1751 65.6263C20.1614 65.6219 20.1392 65.62 20.1306 65.6196C20.084 65.6183 20.032 65.6277 19.9865 65.6373C19.8976 65.6559 19.8077 65.6836 19.7213 65.7118L19.5624 65.7634L19.5624 66.2725ZM24.7344 65.3203C24.7344 65.5798 24.6995 65.8369 24.6227 66.0851C24.5492 66.3238 24.4394 66.547 24.2917 66.7486C24.1438 66.9502 23.9617 67.1199 23.7532 67.2584C23.5328 67.4037 23.2885 67.5026 23.0317 67.5619C22.7894 67.6178 22.5345 67.6392 22.2884 67.5905C22.0688 67.546 21.8685 67.4541 21.7011 67.3039C21.5342 67.1533 21.418 66.9639 21.342 66.7533C21.2583 66.5207 21.2271 66.2718 21.2271 66.0255C21.2271 65.766 21.2621 65.5088 21.3387 65.2606C21.4125 65.022 21.5223 64.7986 21.6702 64.5969C21.8185 64.3956 21.9996 64.226 22.2083 64.0875C22.4287 63.942 22.6729 63.8433 22.9299 63.784C23.1722 63.728 23.4271 63.7067 23.673 63.7553C23.8925 63.7997 24.0939 63.8915 24.2607 64.042C24.4277 64.1928 24.5438 64.3819 24.6194 64.5926C24.7033 64.825 24.7344 65.0741 24.7344 65.3203ZM23.689 65.457C23.689 65.3195 23.6769 65.1656 23.6309 65.0339C23.6026 64.9507 23.56 64.864 23.4947 64.8025C23.443 64.7531 23.3829 64.7235 23.314 64.7101C23.2202 64.6927 23.1241 64.7013 23.0317 64.7226C22.9231 64.7476 22.8224 64.7903 22.7297 64.8502C22.6367 64.9112 22.5598 64.9886 22.4957 65.0786C22.4217 65.1833 22.37 65.3021 22.3333 65.4246C22.2885 65.574 22.2725 65.7333 22.2725 65.8887C22.2725 66.0272 22.2847 66.1801 22.3302 66.3116C22.3591 66.3942 22.4016 66.4807 22.4654 66.5411C22.5184 66.5904 22.5785 66.6205 22.6499 66.6344C22.7422 66.653 22.8388 66.6442 22.9299 66.6233C23.0381 66.5983 23.1384 66.5557 23.2313 66.4943C23.3237 66.4336 23.4024 66.3558 23.4667 66.2654C23.5405 66.1624 23.5922 66.044 23.628 65.9225C23.673 65.7725 23.689 65.613 23.689 65.457ZM27.0625 65.3177L28.091 66.6081L26.8682 66.7801L26.0019 65.6561L25.9275 65.6665V66.9122L24.8912 67.0578V63.3836L26.0547 63.2201C26.213 63.1979 26.3729 63.1836 26.5321 63.1829C26.6681 63.1816 26.8082 63.1909 26.9415 63.2224C27.1612 63.276 27.3574 63.3827 27.4996 63.5614C27.6485 63.7487 27.7007 63.9809 27.7007 64.2161C27.7007 64.481 27.6275 64.7271 27.4746 64.9438C27.3654 65.098 27.2221 65.2202 27.0625 65.3177ZM25.9275 64.1886V64.7168L25.9572 64.7125C26.0611 64.6979 26.1675 64.6801 26.2687 64.6525C26.3328 64.635 26.3994 64.6132 26.4579 64.5833C26.5092 64.5563 26.5781 64.5126 26.6067 64.4588C26.6354 64.4054 26.648 64.3486 26.648 64.288C26.648 64.2527 26.6433 64.2108 26.6252 64.1796C26.617 64.1658 26.5851 64.1542 26.5712 64.1499C26.5282 64.1364 26.4744 64.1337 26.4285 64.1339C26.3364 64.1335 26.2397 64.1446 26.1486 64.1576L25.9275 64.1886ZM36.1911 64.2062C36.0749 64.1879 35.9547 64.1862 35.8399 64.2132C35.7478 64.2348 35.6657 64.2746 35.595 64.3379C35.5189 64.4057 35.4672 64.4947 35.4309 64.5897C35.3806 64.7183 35.3652 64.8656 35.3652 65.0028C35.3652 65.1505 35.3816 65.302 35.4276 65.4429C35.4655 65.5586 35.5199 65.6676 35.5984 65.7617C35.6725 65.851 35.7625 65.9227 35.8658 65.9769C35.9837 66.0395 36.1133 66.0774 36.245 66.0983C36.3558 66.116 36.4674 66.1243 36.579 66.1251C36.6829 66.1254 36.7869 66.1182 36.8894 66.0997L37.1556 66.0523V67.0288L36.9584 67.0544C36.8292 67.0712 36.6982 67.0773 36.5673 67.0758C36.4232 67.0733 36.279 67.0595 36.1368 67.037C35.8646 66.994 35.5978 66.915 35.3547 66.7836C35.1343 66.6648 34.9373 66.512 34.7762 66.3195C34.6192 66.1319 34.5028 65.919 34.4261 65.6865C34.347 65.4463 34.3118 65.1963 34.3118 64.9437C34.3118 64.6906 34.3478 64.4375 34.4362 64.1996C34.5181 63.9793 34.6404 63.7817 34.8111 63.6189C34.9854 63.4535 35.1969 63.3451 35.4281 63.2839C35.6885 63.2143 35.9627 63.2159 36.2283 63.2563C36.3687 63.2785 36.5078 63.3099 36.6429 63.3523C36.7667 63.3906 36.8881 63.4376 37.0035 63.4963L37.1272 63.5592V64.5563L36.8036 64.4022C36.6997 64.3528 36.5913 64.3078 36.4801 64.2744C36.3857 64.2452 36.2887 64.2219 36.1911 64.2062ZM38.3011 66.4657L39.7614 66.8298V67.7898L37.2765 67.1702V63.4866L38.3011 63.742V66.4657ZM41.2772 68.2747C41.1129 68.2182 40.9531 68.1469 40.8041 68.0573C40.6673 67.975 40.5396 67.8792 40.4264 67.7673C40.3176 67.661 40.2222 67.5422 40.1433 67.4122C40.0654 67.2846 40.004 67.1485 39.9578 67.007C39.9185 66.888 39.8921 66.7659 39.877 66.6423C39.8598 66.5093 39.8534 66.3751 39.8534 66.2411V64.0288L40.8635 64.3764V66.3795C40.8635 66.5364 40.8753 66.7158 40.9271 66.864C40.9684 66.979 41.0287 67.0857 41.1196 67.1689C41.2101 67.252 41.3154 67.3116 41.4315 67.3515C41.5107 67.3787 41.614 67.4032 41.698 67.3841C41.7479 67.3728 41.7755 67.3301 41.7957 67.2881C41.8452 67.1801 41.8513 66.9923 41.8513 66.8757V64.7168L42.8614 65.0644V67.1209C42.8614 67.2505 42.8556 67.3812 42.8375 67.5091C42.8222 67.6226 42.7953 67.735 42.7506 67.8395C42.6999 67.9605 42.6284 68.0704 42.5327 68.1619C42.4338 68.2549 42.3152 68.3181 42.1856 68.3536C42.0481 68.3926 41.9037 68.3981 41.7618 68.3855C41.5971 68.3706 41.4331 68.3284 41.2772 68.2747ZM45.4716 67.8943C45.5369 67.9703 45.5944 68.053 45.6439 68.1411C45.6948 68.2332 45.7354 68.3312 45.7641 68.4322C45.7943 68.5387 45.8094 68.6477 45.8094 68.7583C45.8094 68.8595 45.7939 68.9593 45.7665 69.0559C45.7343 69.1719 45.6754 69.2739 45.5911 69.3612C45.5007 69.4533 45.388 69.514 45.2651 69.5504C45.1173 69.5943 44.9549 69.5883 44.8027 69.5642C44.7568 69.5564 44.7103 69.5451 44.6647 69.5335C44.6109 69.5197 44.5574 69.503 44.5046 69.4851C44.4407 69.4637 44.3777 69.4397 44.3152 69.4142C44.24 69.3835 44.1654 69.3508 44.0912 69.3178L43.1031 68.8778V65.1652L44.4427 65.7616C44.6441 65.8514 44.8477 65.96 45.0193 66.0987C45.1261 66.1843 45.2251 66.2794 45.3123 66.3855C45.3907 66.4817 45.4611 66.5848 45.5191 66.6952C45.5714 66.7954 45.6144 66.9013 45.6427 67.0111C45.6682 67.1111 45.6843 67.214 45.6843 67.3174C45.6843 67.4814 45.6521 67.6442 45.5633 67.7826C45.5368 67.8252 45.506 67.8623 45.4716 67.8943ZM44.0943 67.9199V68.3302L44.3107 68.4265C44.3851 68.4597 44.4609 68.4923 44.5375 68.5199C44.5797 68.5352 44.6301 68.5519 44.6793 68.5604C44.7079 68.5665 44.757 68.5754 44.7864 68.5708C44.789 68.5705 44.7926 68.57 44.7956 68.5695C44.7997 68.552 44.8003 68.5314 44.8003 68.5148C44.8003 68.4575 44.7842 68.4039 44.7585 68.3538C44.7229 68.2858 44.6645 68.2279 44.6046 68.1803C44.5685 68.1516 44.5279 68.1261 44.4864 68.1035C44.4217 68.0672 44.3525 68.0349 44.2847 68.0048L44.0943 67.9199ZM44.6735 67.1657C44.6766 67.1494 44.6774 67.1291 44.6774 67.1193C44.6774 67.064 44.6632 67.0119 44.6394 66.9613C44.6112 66.9008 44.5554 66.8471 44.5035 66.8066C44.4697 66.7802 44.4318 66.7572 44.3943 66.7363C44.337 66.7046 44.2764 66.6767 44.2165 66.6501L44.0943 66.5956V66.931L44.4449 67.0871C44.4926 67.1084 44.6188 67.1628 44.6735 67.1657Z" fill="#426091"/>
</g>
<defs>
<clipPath id="clip0_298_13469">
<rect width="61.6" height="80" fill="white"/>
</clipPath>
</defs>
</svg>
