<svg width="95" height="40" viewBox="0 0 95 40" fill="none" xmlns="http://www.w3.org/2000/svg">
<path d="M20.2538 38.9144L16.219 33.0591V17.782V2.50488H27.4932L29.4095 5.9116H20.2538V8.36021H30.4741L32.7097 12.1928H20.2538V38.9144Z" fill="black"/>
<path d="M22.0061 39.4989V13.9482H37.9752L36.3783 17.7808H26.2645V19.9101H35.6331L34.2491 23.7427H26.2645V36.7309L22.0061 39.4989Z" fill="black"/>
<path fill-rule="evenodd" clip-rule="evenodd" d="M0.255859 10.7837L10.7955 0.350586L14.7345 2.4798V21.5363L10.7955 18.6618V14.7228L5.36596 11.6354L3.13029 13.9775L0.255859 10.7837ZM10.689 6.68499V10.9434L7.49517 9.34651L10.689 6.68499Z" fill="black"/>
<path d="M51.9918 7.99075H50.5246L50.1418 6.96088H47.5352L47.1524 7.99075H45.6851L48.0273 1.91178H49.6496L51.9918 7.99075ZM49.7863 5.82164L48.8385 3.20595L47.8906 5.82164H49.7863ZM53.8475 7.99075H52.5533V1.91178H56.8551V3.05102H53.8475V4.32697H56.7913V5.4662H53.8475V7.99075ZM62.6905 7.99075H61.1958L60.0019 5.83075H59.0541V7.99075H57.7599V1.91178H60.6034C61.2293 1.91178 61.7275 2.09405 62.0981 2.45861C62.4688 2.82317 62.6541 3.29405 62.6541 3.87127C62.6541 4.3695 62.5204 4.77355 62.2531 5.08341C61.9918 5.39329 61.6789 5.59075 61.3143 5.67582L62.6905 7.99075ZM60.4212 4.69152C60.6824 4.69152 60.8981 4.61861 61.0682 4.47279C61.2384 4.32089 61.3234 4.11735 61.3234 3.86216C61.3234 3.61912 61.2384 3.42469 61.0682 3.27887C60.8981 3.12697 60.6824 3.05102 60.4212 3.05102H59.0541V4.69152H60.4212ZM64.9103 7.99075H63.6161V1.91178H64.9103V7.99075ZM69.0703 8.10012C68.1407 8.10012 67.366 7.80848 66.7462 7.22518C66.1326 6.63582 65.8257 5.87936 65.8257 4.95583C65.8257 4.02621 66.1326 3.26975 66.7462 2.68646C67.366 2.10317 68.1407 1.81152 69.0703 1.81152C70.2065 1.81152 71.051 2.30671 71.6039 3.29709L70.492 3.84393C70.3584 3.58874 70.1609 3.37912 69.8996 3.21507C69.6445 3.04494 69.368 2.95988 69.0703 2.95988C68.5174 2.95988 68.0586 3.14823 67.6941 3.52494C67.3356 3.90165 67.1563 4.37861 67.1563 4.95583C67.1563 5.53303 67.3356 6.00999 67.6941 6.3867C68.0586 6.76341 68.5174 6.95177 69.0703 6.95177C69.368 6.95177 69.6445 6.86974 69.8996 6.70569C70.1609 6.53556 70.3584 6.32291 70.492 6.06772L71.6039 6.60544C71.0389 7.60189 70.1943 8.10012 69.0703 8.10012ZM77.9806 7.99075H76.5133L76.1305 6.96088H73.5239L73.1412 7.99075H71.6738L74.0161 1.91178H75.6384L77.9806 7.99075ZM75.7751 5.82164L74.8272 3.20595L73.8794 5.82164H75.7751Z" fill="black"/>
<path d="M47.6174 21.9956H46.3232V15.9167H50.625V17.0559H47.6174V18.3318H50.5612V19.4711H47.6174V21.9956ZM52.8239 21.9956H51.5297V15.9167H52.8239V21.9956ZM59.472 21.9956H58.2234L55.3252 18.0311V21.9956H54.031V15.9167H55.3616L58.1778 19.7354V15.9167H59.472V21.9956ZM63.3773 21.9956H62.074V17.0559H60.2968V15.9167H65.1454V17.0559H63.3773V21.9956ZM70.2771 21.9956H65.9753V15.9167H70.2771V17.0559H67.2695V18.3318H70.2133V19.4711H67.2695V20.8564H70.2771V21.9956ZM74.2416 22.105C73.312 22.105 72.5373 21.8134 71.9176 21.2301C71.3039 20.6407 70.9971 19.8843 70.9971 18.9607C70.9971 18.0311 71.3039 17.2746 71.9176 16.6913C72.5373 16.1081 73.312 15.8164 74.2416 15.8164C75.3778 15.8164 76.2224 16.3116 76.7753 17.302L75.6634 17.8488C75.5297 17.5936 75.3323 17.384 75.071 17.22C74.8158 17.0498 74.5393 16.9648 74.2416 16.9648C73.6887 16.9648 73.23 17.1531 72.8654 17.5298C72.5069 17.9065 72.3277 18.3835 72.3277 18.9607C72.3277 19.5379 72.5069 20.0149 72.8654 20.3916C73.23 20.7683 73.6887 20.9567 74.2416 20.9567C74.5393 20.9567 74.8158 20.8746 75.071 20.7106C75.3323 20.5405 75.5297 20.3278 75.6634 20.0726L76.7753 20.6103C76.2102 21.6068 75.3657 22.105 74.2416 22.105ZM83.0138 21.9956H81.7105V19.4346H78.8396V21.9956H77.5454V15.9167H78.8396V18.3045H81.7105V15.9167H83.0138V21.9956Z" fill="black"/>
<path d="M47.6174 36.0005H46.3232V29.9215H50.625V31.0608H47.6174V32.3367H50.5612V33.476H47.6174V36.0005ZM54.4188 36.1099C53.4953 36.1099 52.7328 35.8152 52.1312 35.2258C51.5358 34.6365 51.2381 33.8831 51.2381 32.9656C51.2381 32.0481 51.5358 31.2947 52.1312 30.7053C52.7328 30.116 53.4953 29.8213 54.4188 29.8213C55.3363 29.8213 56.0928 30.119 56.6882 30.7145C57.2897 31.3038 57.5905 32.0542 57.5905 32.9656C57.5905 33.877 57.2897 34.6304 56.6882 35.2258C56.0928 35.8152 55.3363 36.1099 54.4188 36.1099ZM53.0791 34.3965C53.4193 34.7732 53.8659 34.9615 54.4188 34.9615C54.9717 34.9615 55.4153 34.7732 55.7495 34.3965C56.0897 34.0198 56.2599 33.5428 56.2599 32.9656C56.2599 32.3884 56.0897 31.9114 55.7495 31.5347C55.4153 31.158 54.9717 30.9696 54.4188 30.9696C53.8598 30.9696 53.4102 31.158 53.07 31.5347C52.7358 31.9114 52.5687 32.3884 52.5687 32.9656C52.5687 33.5428 52.7388 34.0198 53.0791 34.3965ZM63.2836 35.4264C62.8219 35.882 62.1414 36.1099 61.2421 36.1099C60.3429 36.1099 59.6593 35.882 59.1915 35.4264C58.7297 34.9646 58.4988 34.3448 58.4988 33.5671V29.9215H59.8112V33.5307C59.8112 33.9681 59.9358 34.3175 60.1849 34.5788C60.434 34.8339 60.7864 34.9615 61.2421 34.9615C61.6978 34.9615 62.0472 34.8339 62.2902 34.5788C62.5393 34.3175 62.6639 33.9681 62.6639 33.5307V29.9215H63.9854V33.5671C63.9854 34.3448 63.7515 34.9646 63.2836 35.4264ZM70.633 36.0005H69.3844L66.4862 32.036V36.0005H65.192V29.9215H66.5226L69.3388 33.7403V29.9215H70.633V36.0005ZM74.2376 36.0005H71.8315V29.9215H74.2285C75.1824 29.9215 75.9571 30.201 76.5525 30.76C77.154 31.319 77.4548 32.0512 77.4548 32.9565C77.4548 33.8739 77.1571 34.6122 76.5616 35.1712C75.9662 35.7241 75.1915 36.0005 74.2376 36.0005ZM74.2285 34.8613C74.8117 34.8613 75.2735 34.679 75.6138 34.3145C75.9601 33.9499 76.1333 33.4972 76.1333 32.9565C76.1333 32.4036 75.9662 31.9509 75.632 31.5985C75.3039 31.24 74.8391 31.0608 74.2376 31.0608H73.1257V34.8613H74.2285ZM83.3039 36.0005H81.8092L80.6153 33.8405H79.6674V36.0005H78.3733V29.9215H81.2168C81.8426 29.9215 82.3409 30.1038 82.7115 30.4684C83.0821 30.8329 83.2674 31.3038 83.2674 31.881C83.2674 32.3793 83.1338 32.7833 82.8664 33.0932C82.6052 33.4031 82.2923 33.6005 81.9277 33.6856L83.3039 36.0005ZM81.0345 32.7013C81.2958 32.7013 81.5115 32.6284 81.6816 32.4826C81.8517 32.3307 81.9368 32.1271 81.9368 31.8719C81.9368 31.6289 81.8517 31.4345 81.6816 31.2886C81.5115 31.1367 81.2958 31.0608 81.0345 31.0608H79.6674V32.7013H81.0345ZM87.0588 36.0005H85.7647V33.5124L83.4315 29.9215H84.9079L86.4117 32.355L87.9155 29.9215H89.3829L87.0588 33.5124V36.0005Z" fill="black"/>
</svg>
