<svg width="101" height="40" viewBox="0 0 101 40" fill="none" xmlns="http://www.w3.org/2000/svg">
<g clip-path="url(#clip0_291_3478)">
<mask id="mask0_291_3478" style="mask-type:luminance" maskUnits="userSpaceOnUse" x="0" y="0" width="101" height="40">
<path d="M0 0H100.431V40H0V0Z" fill="white"/>
</mask>
<g mask="url(#mask0_291_3478)">
<path fill-rule="evenodd" clip-rule="evenodd" d="M65.0675 27.8706L75.0945 15.6873C75.7953 14.8248 76.2265 13.9623 78.4368 13.9623C81.5096 13.9623 85.4988 13.2615 88.8411 12.5067C93.4772 11.4825 97.3586 9.54178 100.431 8.03234C99.5689 9.7035 93.6928 11.4286 90.7279 12.9919C93.3155 12.345 93.8007 12.1833 96.3344 11.3208C94.4476 13.0458 92.2373 12.8841 89.1645 14.3935C91.4287 13.9084 91.5365 13.9084 93.7468 13.2075C92.399 14.6631 89.8114 14.4474 87.8168 15.5795C89.8653 15.2561 89.7036 15.3639 91.5904 14.8248C90.2427 15.6873 87.9786 17.0889 83.7737 18.814L75.7953 20.6469C75.2023 20.7547 73.7468 20.9164 72.5069 22.1024C70.9435 23.6658 68.7872 25.4987 68.1403 25.9299C67.3856 26.5229 66.523 27.5472 65.0675 27.8706ZM64.4206 27.3854L73.5311 15.6334C74.2319 14.717 74.3937 13.531 72.6147 12.8841C70.1888 11.9677 67.5473 11.752 65.1753 10.7817C60.2697 8.89488 57.4125 4.36658 54.5015 0C53.5311 1.88679 57.1969 4.25876 58.0594 6.68464C56.6578 5.28302 55.364 3.82749 54.2319 2.21024C54.0702 4.42049 57.3047 5.8221 58.2751 8.24798C56.9273 7.06199 55.6335 5.87601 54.5554 4.58221C54.178 6.41509 58.0055 8.14016 58.4907 9.81132C57.1969 8.94879 55.957 7.97844 55.0406 6.90027C55.2562 8.14016 56.55 9.86523 59.1915 11.9677C61.7252 14.3396 65.8761 17.3046 65.9839 21.3477C65.9839 22.5876 65.4449 23.558 64.8519 24.6361C64.4745 25.3369 64.205 26.3073 64.4206 27.3854Z" fill="#949599"/>
<path fill-rule="evenodd" clip-rule="evenodd" d="M1.34782 35.3101H1.1861L1.40173 34.5554C2.15645 34.1242 2.85726 33.9085 3.55807 33.9085C5.01359 34.0163 5.28313 34.9867 5.0675 35.7953L4.4206 39.0298C4.36669 39.4072 4.63623 39.515 5.0675 39.3533L5.01359 39.5689C3.98933 40.0541 3.45025 39.7845 3.50416 39.0837C2.74944 39.7306 2.15645 39.9463 1.50955 39.9463C0.48529 39.9463 -0.107702 39.2455 0.00011471 38.4907C0.215748 37.0352 1.72518 36.7657 2.80335 36.6579C3.98933 36.4961 4.09715 36.1727 4.15106 35.5797C4.25887 35.0945 3.93542 34.5015 2.96507 34.4476C2.37208 34.3937 1.77909 34.6632 1.34782 35.3101ZM3.88152 36.8196L3.50416 38.5446C3.07289 39.0837 2.4799 39.4072 2.04863 39.3533C1.34782 39.3533 1.07828 39.0837 1.02437 38.5986C1.02437 38.0595 1.29392 37.5204 1.94082 37.2508C2.42599 37.0352 3.07289 36.9813 3.88152 36.8196ZM20.9705 35.3641H20.8087L20.9705 34.6093C21.7252 34.1781 22.4799 33.9624 23.1807 33.9624C24.5823 34.0703 24.8519 35.0406 24.6901 35.8492L24.0432 39.0837C23.9893 39.4611 24.2589 39.5689 24.6901 39.4072L24.6362 39.6228C23.612 40.0002 23.0729 39.7845 23.1268 39.1376C22.3721 39.7845 21.7791 40.0002 21.0783 40.0002C20.054 40.0002 19.5149 39.2994 19.6228 38.5446C19.8384 37.0891 21.3478 36.8196 22.426 36.7118C23.5581 36.55 23.6659 36.2266 23.7737 35.6336C23.8276 35.1484 23.5581 34.5554 22.5877 34.5015C21.9947 34.4476 21.3478 34.7172 20.9705 35.3641ZM23.4502 36.8735L23.1268 38.5986C22.6955 39.0837 22.0486 39.4072 21.6713 39.4072C20.9166 39.3533 20.647 39.0837 20.647 38.5986C20.5931 38.0595 20.8626 37.5743 21.5095 37.2508C21.9947 37.0891 22.6955 37.0352 23.4502 36.8735ZM7.43947 33.9624C7.76292 34.0703 8.08637 34.0703 8.40982 33.9624L8.19418 35.1484C8.89499 34.232 9.48798 33.8007 10.4044 33.9624L10.0271 34.9867C9.38017 34.5554 8.46373 34.9328 8.03246 35.9031L7.27774 39.7845H6.25348L7.43947 33.9624ZM30.4044 33.9624H31.4287L31.2131 35.0945C31.86 34.232 32.5069 33.8007 33.3694 33.9624L32.992 34.9867C32.399 34.5015 31.4826 34.8789 31.0513 35.9031L30.2966 39.7845H29.2724L30.4044 33.9624ZM50.6201 34.0163H51.6443L51.3748 35.1484C51.86 34.0703 54.2858 32.9382 54.9866 35.0945C56.6039 33.046 59.0837 33.9085 58.7063 35.5797L57.8977 39.7845H56.9813L57.6821 36.0649C57.8977 34.6632 57.0352 34.5554 56.55 34.5554C55.7953 34.5015 55.0945 35.3641 54.9866 35.9031L54.2319 39.7845H53.2616L54.0163 35.7953C54.178 34.0703 51.806 34.1242 51.267 35.957L50.5122 39.7845H49.5419L50.6201 34.0163ZM11.6982 33.9624C12.0217 34.0703 12.3451 34.0163 12.7225 33.9624L11.5365 39.8384H10.5662L11.6982 33.9624ZM12.7764 31.267C13.0998 31.267 13.3155 31.5905 13.2077 31.9139C13.1538 32.2913 12.8303 32.5069 12.5069 32.5069C12.1295 32.5069 11.9139 32.1835 12.0217 31.86C12.0756 31.5366 12.399 31.267 12.7764 31.267ZM27.2777 33.9624H28.302L27.116 39.8384H26.1457L27.2777 33.9624ZM28.3559 31.267C28.6794 31.267 28.895 31.5905 28.8411 31.9139C28.7333 32.2374 28.4098 32.5069 28.0864 32.5069C27.7629 32.5069 27.5473 32.1835 27.6012 31.86C27.6551 31.5366 28.0325 31.267 28.3559 31.267ZM34.3397 38.4368C34.7171 38.4368 34.9866 38.8142 34.8788 39.1915C34.771 39.6228 34.4476 39.8924 34.0163 39.8924C33.6389 39.8924 33.3694 39.515 33.4772 39.1376C33.585 38.7064 33.9624 38.4368 34.3397 38.4368ZM15.4718 30.6201H16.4961L15.364 36.55C15.6874 36.4961 16.0109 36.3344 16.3343 36.0649L18.6524 33.9624H19.7306L16.4961 36.4422L18.7602 39.7845H17.5203L15.7414 37.143C15.5796 36.8735 15.364 36.8196 15.2562 36.9813L14.7171 39.7845H13.6928L15.4718 30.6201ZM46.6847 33.8546C48.302 33.8546 49.1106 35.0406 48.7872 36.8735C48.4637 38.7064 46.7926 39.8924 45.1753 39.8924C43.5581 39.8924 42.3721 38.6525 42.8033 36.9813C43.4502 34.6632 45.0675 33.9085 46.6847 33.8546ZM46.523 34.232C47.4934 34.232 47.9785 35.2562 47.6551 36.8735C47.3316 38.5446 46.1996 39.5689 45.1753 39.5689C44.205 39.5689 43.5042 38.4368 43.8815 36.9813C44.4206 34.9328 45.4988 34.232 46.523 34.232ZM41.8869 35.3101L42.426 34.4476C41.9408 34.0703 41.3478 33.8546 40.7009 33.8546C39.0837 33.8546 37.3586 34.5554 36.8734 36.9813C36.4961 38.7064 37.6281 39.8924 39.1915 39.8924C39.9462 39.8924 40.7009 39.7845 41.3478 39.2994L41.5095 38.6525C41.2404 38.9186 40.9201 39.1274 40.568 39.2664C40.216 39.4053 39.8394 39.4716 39.461 39.4611C38.4368 39.4072 37.5742 38.4368 37.8977 36.9813C38.275 35.0406 39.5149 34.3398 40.5392 34.2859C41.0244 34.2859 41.5635 34.6093 41.8869 35.3101Z" fill="#8C0D3A"/>
<path fill-rule="evenodd" clip-rule="evenodd" d="M0.161865 27.4935H3.50418L6.14569 21.941H12.6147L13.6929 27.4935H19.0837L14.178 7.65527H10.674L0.161865 27.4935ZM7.06213 20.0542L10.6201 13.2617L12.1834 20.0542H7.06213ZM23.9894 13.2617H28.5177L28.1942 16.3345C29.5419 13.9626 30.9435 12.8844 32.453 13.2617L31.86 17.79C29.8115 16.9275 28.4098 17.5744 27.8169 19.7847L26.9543 27.4935H22.1565L23.9894 13.2617ZM36.0109 13.2617H40.3775L38.329 27.4935H33.9624L36.0109 13.2617ZM45.3371 8.94907H49.5419L48.0864 19.3534H49.1646L54.3937 13.2617H58.5985L52.7764 19.3534L56.8735 27.4935H51.267L48.895 21.2941H47.7629L46.9004 27.4935H42.6417L45.3371 8.94907Z" fill="#0D3F84"/>
</g>
</g>
<defs>
<clipPath id="clip0_291_3478">
<rect width="100.431" height="40" fill="white"/>
</clipPath>
</defs>
</svg>
