<svg width="40" height="40" viewBox="0 0 40 40" fill="none" xmlns="http://www.w3.org/2000/svg">
<path d="M35.3858 12.2223C35.641 12.2223 35.8904 12.1467 36.1025 12.0049C36.3146 11.8632 36.48 11.6617 36.5776 11.426C36.6753 11.1903 36.7008 10.9309 36.651 10.6807C36.6013 10.4304 36.4784 10.2006 36.298 10.0202C36.1176 9.83974 35.8877 9.71688 35.6375 9.66711C35.3873 9.61733 35.1279 9.64288 34.8922 9.74052C34.6564 9.83815 34.455 10.0035 34.3132 10.2156C34.1715 10.4278 34.0958 10.6772 34.0958 10.9323C34.0958 11.1017 34.1291 11.2695 34.1939 11.426C34.2587 11.5826 34.3537 11.7248 34.4735 11.8446C34.5933 11.9644 34.7356 12.0594 34.8921 12.1242C35.0486 12.189 35.2164 12.2224 35.3858 12.2223ZM20.0154 8.77832V10.3447C9.13702 10.3447 0.319824 14.7243 0.319824 20.1271C0.319824 25.6355 9.13702 30.1019 20.0154 30.1019C30.9198 30.1019 39.7598 25.5407 39.7598 19.9143C39.7598 13.7643 30.9198 8.77832 20.0154 8.77832Z" fill="white"/>
<path d="M35.2341 10.5409H35.3541C35.386 10.5402 35.4179 10.5439 35.4489 10.5517C35.4709 10.5574 35.4913 10.5677 35.5089 10.5821C35.5236 10.5942 35.5342 10.6106 35.5393 10.6289C35.5448 10.647 35.5475 10.6659 35.5473 10.6849C35.5483 10.7055 35.5451 10.7261 35.5379 10.7454C35.5307 10.7648 35.5196 10.7824 35.5053 10.7973C35.4761 10.8257 35.4253 10.8397 35.3497 10.8397H35.2325V10.5409M34.9925 11.4577C35.0284 11.467 35.0655 11.4707 35.1025 11.4685C35.1379 11.4709 35.1735 11.4673 35.2077 11.4577C35.2153 11.4543 35.2217 11.4486 35.2259 11.4415C35.2301 11.4343 35.232 11.426 35.2313 11.4177V11.0429H35.3025C35.35 11.0395 35.3972 11.0538 35.4349 11.0829C35.472 11.1214 35.4982 11.169 35.5109 11.2209L35.5673 11.4049C35.5697 11.4171 35.5749 11.4286 35.5825 11.4385L35.6093 11.4573C35.624 11.4625 35.6393 11.4657 35.6549 11.4669C35.6725 11.4669 35.6973 11.4689 35.7277 11.4689C35.7581 11.4689 35.7885 11.4689 35.8077 11.4669C35.8269 11.4649 35.8417 11.4621 35.8533 11.4597L35.8733 11.4469L35.8765 11.4269C35.8736 11.3996 35.8674 11.3727 35.8581 11.3469L35.7937 11.1761C35.7739 11.1186 35.741 11.0664 35.6977 11.0237C35.663 10.9917 35.6222 10.9671 35.5777 10.9513C35.6483 10.9365 35.7132 10.902 35.7649 10.8517C35.7895 10.8248 35.8084 10.7933 35.8205 10.7589C35.8326 10.7245 35.8376 10.6881 35.8353 10.6517C35.8364 10.602 35.826 10.5527 35.8049 10.5077C35.7853 10.4675 35.7554 10.4332 35.7181 10.4085C35.6763 10.3794 35.6289 10.3594 35.5789 10.3497C35.5171 10.3359 35.4538 10.3294 35.3905 10.3301H35.0837C35.0673 10.3289 35.0509 10.3313 35.0356 10.3371C35.0203 10.3429 35.0064 10.352 34.9949 10.3637C34.9742 10.3901 34.9637 10.423 34.9653 10.4565V11.4165C34.9648 11.4252 34.9673 11.4339 34.9722 11.4411C34.9771 11.4483 34.9842 11.4537 34.9925 11.4565M35.3833 10.0965C35.8305 10.0965 36.1925 10.4701 36.1925 10.9313C36.1925 11.3925 35.8325 11.7661 35.3833 11.7661C34.9341 11.7661 34.5745 11.3925 34.5745 10.9313C34.5745 10.4701 34.9345 10.0965 35.3833 10.0965ZM35.3833 11.9765C35.5899 11.9766 35.7918 11.9154 35.9636 11.8007C36.1354 11.686 36.2694 11.5229 36.3485 11.332C36.4276 11.1412 36.4483 10.9312 36.4081 10.7286C36.3678 10.526 36.2684 10.3398 36.1223 10.1937C35.9763 10.0476 35.7902 9.94812 35.5876 9.90779C35.385 9.86746 35.175 9.88812 34.9841 9.96716C34.7933 10.0462 34.6301 10.1801 34.5153 10.3518C34.4006 10.5236 34.3393 10.7255 34.3393 10.9321C34.3394 11.209 34.4494 11.4745 34.6452 11.6703C34.8409 11.8662 35.1064 11.9763 35.3833 11.9765ZM25.6365 9.8889C25.5598 10.0943 25.458 10.2894 25.3333 10.4697C28.0973 11.0809 31.0309 12.1273 33.1333 13.6445C33.2233 13.7101 33.1437 13.8333 33.0597 13.7897C29.4937 11.9365 24.8281 10.9977 20.0153 10.9977C9.8453 10.9977 1.6001 15.0849 1.6001 20.1269C1.6001 25.2749 9.8441 29.4469 20.0145 29.4469C30.2093 29.4469 38.4733 25.1785 38.4733 19.9149C38.4733 15.2201 33.0809 11.2441 25.6333 9.8885" fill="#40B93C"/>
<path d="M29.9279 26.8147C30.0415 26.7923 30.0791 26.9011 29.9747 26.9423C27.3595 28.0015 23.7395 28.6023 20.0147 28.6023C10.9599 28.6023 3.61914 24.8079 3.61914 20.1271C3.61914 15.4463 10.9599 11.6523 20.0155 11.6523C30.2155 11.6523 36.4619 16.0579 36.4303 19.9143C36.3987 23.3143 31.8891 26.5287 22.7643 26.5287C18.9643 26.5287 14.1431 25.8183 10.2843 24.2715C10.1123 24.2027 10.0315 24.4495 10.1871 24.5315C14.4087 26.7851 22.0571 28.3575 29.9267 26.8147" fill="#0B4919"/>
<path d="M20.0155 28.6023C10.9599 28.6023 3.61914 24.8079 3.61914 20.1271C3.61914 15.4463 10.9599 11.6523 20.0155 11.6523C30.1755 11.6523 36.4131 16.0235 36.4303 19.8691V19.9143C36.3987 23.3143 31.8891 26.5287 22.7643 26.5287C18.9643 26.5287 14.1431 25.8183 10.2843 24.2715C10.2659 24.264 10.2463 24.2599 10.2263 24.2595C10.2092 24.2604 10.1925 24.2646 10.177 24.2719C10.1616 24.2793 10.1477 24.2897 10.1363 24.3025C10.1249 24.3152 10.1162 24.3301 10.1107 24.3463C10.1051 24.3625 10.1028 24.3797 10.1039 24.3967C10.1038 24.4247 10.1115 24.4522 10.1262 24.4761C10.1409 24.4999 10.162 24.5191 10.1871 24.5315C13.2359 26.1591 18.0727 27.4311 23.4883 27.4315C25.6499 27.434 27.8066 27.2274 29.9283 26.8147C29.9379 26.8126 29.9477 26.8115 29.9575 26.8115C30.0083 26.8115 30.0375 26.8411 30.0375 26.8735C30.0375 26.8987 30.0175 26.9259 29.9759 26.9423C27.3607 28.0015 23.7407 28.6023 20.0159 28.6023M20.0363 11.9111H20.0111C18.4726 11.9085 16.9361 12.0224 15.4147 12.2519C12.2547 12.7319 9.55874 13.6999 7.72674 14.9619C7.10394 15.3903 6.58034 15.8563 6.17314 16.3471C5.76594 16.8379 5.47314 17.3575 5.31274 17.8959C5.14282 18.4603 5.1242 19.0594 5.25874 19.6331C5.39914 20.2231 5.69554 20.7931 6.12994 21.3283C6.54434 21.8399 7.02554 22.3727 7.67274 22.8187C9.50394 24.0795 12.2587 25.0327 15.4195 25.5127C16.8667 25.7327 18.4095 25.8099 20.0159 25.8099C21.7191 25.8099 23.0411 25.7479 24.6063 25.5127C28.1407 24.9811 30.6555 23.9527 32.3963 22.7955C33.0399 22.3495 33.4835 21.8295 33.8979 21.3203C34.3323 20.7839 34.6287 20.2151 34.7655 19.6239C34.8253 19.3727 34.8555 19.1154 34.8555 18.8571C34.8555 18.5291 34.8074 18.2028 34.7127 17.8887C34.5527 17.3503 34.2611 16.8327 33.8535 16.3411C33.4459 15.8495 32.9227 15.3871 32.2999 14.9575C30.5199 13.7291 27.6651 12.6967 24.6107 12.2519C23.0968 12.0211 21.5674 11.9072 20.0359 11.9111" fill="#0A4919"/>
<path d="M19.9301 26.3025C28.36 26.3025 35.1937 22.7919 35.1937 18.4613C35.1937 14.1307 28.36 10.6201 19.9301 10.6201C11.5002 10.6201 4.6665 14.1307 4.6665 18.4613C4.6665 22.7919 11.5002 26.3025 19.9301 26.3025Z" fill="url(#paint0_radial_291_3464)"/>
<path d="M30.1791 18.3961C30.0011 20.2505 29.2687 22.1049 28.1143 22.1049C27.6419 22.1049 27.3015 21.7313 27.3015 21.1125C27.3015 19.5197 28.5691 17.8753 30.1791 18.3961ZM31.9259 18.2461C32.0323 17.6777 31.8751 17.4321 31.3635 17.2861C28.0083 16.3405 25.4623 18.4813 25.4623 21.3873C25.4623 22.4937 26.0155 23.5345 27.2191 23.5345C28.1791 23.5345 29.0591 22.8677 29.6755 22.1193C29.6755 22.1193 29.6435 22.6209 29.7059 22.9441C29.8059 23.4641 30.3363 23.7289 31.5395 23.3389C31.3555 22.6041 31.4451 20.8113 31.9259 18.2461ZM24.2755 19.5349C24.8611 16.4921 25.0235 14.8257 25.0235 14.2969C25.0235 14.1505 24.9555 13.9209 24.4839 13.9209C23.8495 13.9209 23.4339 14.0717 23.0711 14.2637C23.1199 14.4425 23.2751 15.7281 22.1511 21.0321C21.6739 23.2857 22.1023 23.7853 23.9967 23.4557C23.8167 22.9017 23.8203 21.8773 24.2755 19.5349ZM21.1275 17.0341C20.3423 17.0341 19.3359 17.7853 18.7275 19.0469C18.8075 18.4769 18.8475 17.7941 18.7823 17.4069C18.7615 17.2817 18.6851 17.1797 18.3103 17.1957C17.8879 17.2121 17.3343 17.3909 17.0091 17.5701C17.0091 17.5701 17.2863 18.3301 16.6779 22.1701C16.4935 23.3301 17.2875 23.6701 18.6143 23.4561C18.0943 22.7065 19.0427 18.0597 21.2059 19.0189C22.0563 17.6901 21.8231 17.0341 21.1275 17.0341ZM10.4799 19.9405C11.0551 18.8357 11.8875 17.5997 12.3247 16.6797C12.4047 17.4929 12.7543 19.7449 12.7543 19.7449C11.9914 19.7274 11.2287 19.793 10.4799 19.9405ZM15.7811 23.4165C15.0951 22.2101 14.3811 19.0565 13.6851 14.9961C13.6339 14.6977 13.5779 14.6017 13.3251 14.6061C12.9815 14.6117 12.0887 14.7033 11.7319 14.8337C11.4715 15.4921 11.1039 16.1221 9.88954 17.9637C6.81314 22.6297 6.66914 23.8797 9.36274 23.4593C9.29794 23.0357 9.32674 22.4105 9.83154 21.4509C9.83154 21.4509 10.4779 21.0909 12.9839 21.0641C13.4443 23.6241 13.8175 23.6497 15.7799 23.4165" fill="white"/>
<path d="M13.044 9.0184C12.0936 9.6724 12.1568 11.5464 13.2416 12.87C14.312 14.1764 16.0276 14.3964 17.1292 13.804C16.9144 15.038 17.5848 16.3284 20.11 15.5112C22.656 14.6868 22.79 12.9788 22.2784 11.726C23.7048 11.8308 25.2112 11.2344 25.6856 9.752C26.0324 8.66759 25.814 7.3296 24.678 6.6408C24.7336 5.088 22.8056 3.7364 20.9116 3.7732C19.9368 3.7924 19.3224 4.4132 19.2888 5.2132C18.0304 3.8236 16.3288 3.79 14.6888 5.1996C13.106 6.5572 12.8204 8.4532 13.6468 9.2436C13.5324 9.22 13.1136 9.0708 13.0468 9.0172" fill="white"/>
<mask id="mask0_291_3464" style="mask-type:luminance" maskUnits="userSpaceOnUse" x="12" y="4" width="14" height="12">
<path d="M14.1658 12.9865C16.8334 14.9141 18.7954 11.3189 18.4858 10.9441C17.7874 10.1041 18.267 8.77087 19.7422 8.98127C20.5166 9.09167 19.5182 4.75487 17.1294 4.75487C14.915 4.75487 11.699 8.74127 15.6214 10.0465C14.8246 10.0717 13.7814 9.99727 13.1814 9.72647C12.6534 10.2569 12.9538 12.0981 14.1658 12.9865ZM24.6766 7.32407C24.4006 7.66847 23.8718 8.14927 23.4594 8.24407C25.401 5.91847 22.6362 4.32407 20.9366 4.37727C20.4422 4.39287 20.0046 4.58607 19.9046 5.08167C19.6482 6.35567 20.7726 7.82127 20.3894 9.71767C20.1294 11.0069 24.4198 12.2561 25.2074 9.40167C25.3442 8.90327 25.3006 7.83127 24.6766 7.32407ZM19.8766 10.6601C21.1362 10.4225 23.655 13.7909 19.9374 14.9893C15.4954 16.4209 18.7726 10.8677 19.8758 10.6601H19.8766Z" fill="white"/>
</mask>
<g mask="url(#mask0_291_3464)">
<path d="M14.1658 12.9865C16.8334 14.9141 18.7954 11.3189 18.4858 10.9441C17.7874 10.1041 18.267 8.77087 19.7422 8.98127C20.5166 9.09167 19.5182 4.75487 17.1294 4.75487C14.915 4.75487 11.699 8.74127 15.6214 10.0465C14.8246 10.0717 13.7814 9.99727 13.1814 9.72647C12.6534 10.2569 12.9538 12.0981 14.1658 12.9865ZM24.6766 7.32407C24.4006 7.66847 23.8718 8.14927 23.4594 8.24407C25.401 5.91847 22.6362 4.32407 20.9366 4.37727C20.4422 4.39287 20.0046 4.58607 19.9046 5.08167C19.6482 6.35567 20.7726 7.82127 20.3894 9.71767C20.1294 11.0069 24.4198 12.2561 25.2074 9.40167C25.3442 8.90327 25.3006 7.83127 24.6766 7.32407ZM19.8766 10.6601C21.1362 10.4225 23.655 13.7909 19.9374 14.9893C15.4974 16.4209 18.7734 10.8693 19.8766 10.6601Z" fill="url(#paint1_radial_291_3464)"/>
</g>
<defs>
<radialGradient id="paint0_radial_291_3464" cx="0" cy="0" r="1" gradientUnits="userSpaceOnUse" gradientTransform="translate(20.0078 18.373) scale(14.8433 5.96794)">
<stop stop-color="#40B93C"/>
<stop offset="0.17" stop-color="#40B93C" stop-opacity="0.98"/>
<stop offset="0.32" stop-color="#41B93D" stop-opacity="0.93"/>
<stop offset="0.46" stop-color="#41BA3D" stop-opacity="0.83"/>
<stop offset="0.59" stop-color="#42BA3E" stop-opacity="0.7"/>
<stop offset="0.72" stop-color="#43BA3F" stop-opacity="0.52"/>
<stop offset="0.85" stop-color="#45BB41" stop-opacity="0.31"/>
<stop offset="0.97" stop-color="#47BC43" stop-opacity="0.07"/>
<stop offset="1" stop-color="#47BC43" stop-opacity="0"/>
</radialGradient>
<radialGradient id="paint1_radial_291_3464" cx="0" cy="0" r="1" gradientUnits="userSpaceOnUse" gradientTransform="translate(16.3997 12.4002) rotate(-7.18911) scale(9.40901)">
<stop stop-color="#FDE17B"/>
<stop offset="0.3" stop-color="#FCD205"/>
<stop offset="1" stop-color="#F89C0E"/>
</radialGradient>
</defs>
</svg>
