<svg width="163" height="40" viewBox="0 0 163 40" fill="none" xmlns="http://www.w3.org/2000/svg">
<g clip-path="url(#clip0_291_4129)">
<path d="M41.7115 0.189344C40.5924 2.04455 39.6465 3.69352 38.6243 5.28116C29.5465 19.2846 17.0676 29.3962 2.48903 37.1229C2.11401 37.3279 1.7113 37.4776 1.2934 37.5674C0.833821 37.5674 0.0382243 35.6116 0.0382243 33.824C0.0355574 23.0581 0.0320016 10.7721 0 0H39.8501C40.3684 0 40.8839 0.104005 41.7115 0.189344Z" fill="#002082"/>
<path d="M9.3782 36.9861C10.7418 36.1594 12.1295 35.378 13.4842 34.5371C18.1478 31.5756 22.5472 28.2173 26.6333 24.4993C33.0168 18.7 38.5378 12.0174 43.0288 4.65463C43.5119 3.82477 43.9358 2.96183 44.2974 2.07227C44.7161 2.16117 46.1091 3.76658 46.0886 6.39072C46.1152 16.5735 46.0886 39.6574 46.0886 39.6574C34.2737 39.6574 5.14597 39.4885 4.18237 39.684C5.64022 38.7986 7.92924 37.8653 9.3782 36.9861Z" fill="#6CC049"/>
<path d="M90.5282 6.8126C90.4591 6.75697 90.405 6.68501 90.3707 6.6032C90.3365 6.52138 90.3231 6.43232 90.332 6.34406C90.3407 6.2558 90.3715 6.17113 90.4212 6.09773C90.4711 6.02433 90.5384 5.9645 90.6171 5.92366C91.9031 5.21031 93.4134 5.01627 94.8377 5.38141C95.1546 5.53627 95.4341 5.75775 95.6574 6.0307C95.8806 6.30365 96.0422 6.62161 96.1312 6.96283C96.3264 8.02421 96.3889 9.10576 96.317 10.1826C96.2467 14.6636 96.1347 19.1484 96.0502 23.6295C96.0502 24.1121 96.0502 24.5949 96.0885 25.0775C96.2236 27.0439 96.1561 29.1444 98.91 29.4876C97.2015 31.4005 94.6297 31.3028 92.4296 29.3098C92.0501 29.532 91.6402 29.7748 91.2279 30.012C90.3851 30.5231 89.4344 30.8298 88.4517 30.9073C87.4692 30.9849 86.4821 30.8311 85.5697 30.4586C84.6572 30.0861 83.8446 29.5051 83.197 28.7621C82.5495 28.019 82.085 27.1346 81.8406 26.1799C81.0259 23.4075 81.3436 20.4253 82.7242 17.887C84.6007 14.3624 87.6436 12.9765 91.5612 13.7881C91.7967 13.8388 92.0324 13.8654 92.5835 13.9508C92.3807 11.4768 92.5515 8.36112 90.5282 6.8126ZM92.5896 22.1076C92.5896 20.3929 92.5576 15.7278 92.5576 15.7278H91.5941C90.2446 15.701 88.4392 15.621 87.7059 17.1376C86.9456 18.6033 86.5435 20.2281 86.5327 21.8793C86.5219 23.5303 86.9026 25.1604 87.6436 26.6359C87.9379 27.2911 88.4314 27.837 89.0539 28.1954C89.6762 28.5539 90.396 28.7069 91.1105 28.6324C91.579 28.6058 92.5835 28.4546 92.5835 28.4546C92.5835 28.4546 92.6039 27.6938 92.5835 27.1159C92.5186 25.4571 92.5835 23.7895 92.5772 22.1191L92.5896 22.1076Z" fill="#002082"/>
<path d="M69.338 9.45382C67.865 7.24748 65.7742 7.3506 63.7066 7.29193C62.9553 7.26793 62.6318 7.53817 62.6193 8.29021C62.5873 10.2539 62.5456 13.3251 62.4691 15.2746H63.6123C65.0523 15.2479 66.4933 15.2568 67.9628 15.2746C68.2721 15.2746 68.6463 14.919 68.8668 14.4363C69.25 16.7351 68.5931 17.6365 66.8053 17.7654C65.4062 17.8694 63.9928 17.7858 62.6273 17.7858V30.927C61.2526 30.9791 59.876 30.9564 58.5036 30.8585C58.2093 30.8256 57.8147 29.9314 57.8147 29.4363C57.7827 23.0981 57.7996 16.7626 57.7996 10.4272C57.7996 8.2742 57.4316 6.2981 56.9453 5.98253C56.871 5.92948 56.8146 5.85507 56.7835 5.76918C56.7608 5.71122 56.7523 5.64862 56.7591 5.58672C56.7657 5.5248 56.7872 5.46542 56.8217 5.4136C56.8563 5.3618 56.9032 5.31924 56.958 5.28965C57.0128 5.26005 57.0741 5.24433 57.1365 5.24382C60.6566 5.18782 65.2071 5.1967 68.6383 5.24382C68.8205 5.26474 68.9951 5.32787 69.1485 5.42818C69.302 5.52849 69.4298 5.66322 69.522 5.82163C69.9948 6.88924 69.8651 7.91952 69.338 9.45382Z" fill="#002082"/>
<path d="M146.328 15.0757C146.278 15.0302 146.238 14.9737 146.213 14.9106C146.188 14.8474 146.176 14.7792 146.181 14.7115C146.186 14.6436 146.208 14.5779 146.243 14.5192C146.276 14.4606 146.324 14.4107 146.381 14.3734C146.896 13.995 147.485 13.7307 148.11 13.5985C148.735 13.4661 149.381 13.4687 150.005 13.6062C151.294 13.9022 151.658 15.001 151.999 16.1086C152.799 18.6865 153.604 21.2645 154.44 23.8299C154.646 24.4575 154.985 25.0415 155.439 26.0247C156.538 22.7667 157.541 19.8964 158.449 17.0065C159.014 15.1939 157.771 15.2286 157.898 14.9095C158.234 14.0205 160.18 12.9814 161.064 13.7245C161.243 13.952 161.373 14.2141 161.446 14.4945C161.519 14.7747 161.533 15.0671 161.486 15.353C161.34 16.17 161.094 16.9659 160.753 17.722C158.591 23.3135 156.419 28.8945 154.233 34.4651C153.835 35.5222 153.353 36.5455 152.79 37.5249C152.405 38.3004 151.803 38.947 151.056 39.3857C150.31 39.8245 149.451 40.0362 148.586 39.9952C146.749 39.9064 145.818 38.5142 146.313 36.6546C149.388 38.1356 150.54 37.7266 152.045 34.5816C152.319 34.0074 152.545 33.3966 152.851 32.8491C153.441 31.7824 153.735 30.8499 152.38 30.0587C151.995 29.8337 151.791 29.1697 151.65 28.6666C151.02 26.6522 150.448 24.6175 149.833 22.5979C149.026 19.9569 148.575 17.1486 146.328 15.0757Z" fill="#002082"/>
<path d="M102.905 21.521C103.129 24.1301 103.438 26.4991 105.877 27.6076C108.736 28.9045 111.061 27.6076 113.16 25.4218C113.331 26.1503 113.265 26.9141 112.972 27.6026C112.679 28.2911 112.175 28.8686 111.532 29.2513C110.318 30.1866 108.867 30.7653 107.343 30.9224C105.818 31.0794 104.28 30.8085 102.901 30.1401C100.065 28.8254 99.1607 26.26 99.0718 23.3283C98.9927 20.281 99.6612 17.4489 101.947 15.2514C102.971 14.3244 104.246 13.7203 105.611 13.5146C106.977 13.3091 108.374 13.5113 109.625 14.0958C111.719 15.0789 113.016 17.6515 112.914 20.4073C112.876 21.4144 112.251 21.5566 111.565 21.5629C109.314 21.5869 107.062 21.5335 104.809 21.5121C104.248 21.5175 103.683 21.521 102.905 21.521ZM102.77 19.7431H108.661C108.759 18.7641 108.62 17.7758 108.257 16.8613C108.16 16.6369 108.041 16.4225 107.902 16.2213C107.713 15.8865 107.438 15.6086 107.106 15.4166C106.773 15.2245 106.395 15.1255 106.011 15.1298C105.627 15.134 105.252 15.2415 104.923 15.4409C104.595 15.6403 104.327 15.9241 104.146 16.263C103.439 17.3091 102.97 18.4964 102.77 19.7431Z" fill="#002082"/>
<path d="M120.44 30.9098H116.078C116.078 30.9098 116.125 23.04 116.155 19.7981C116.176 17.1905 116.199 14.5851 116.225 11.9817C116.248 9.9558 116.366 7.90592 114.358 6.35383C115.925 5.32 117.401 4.87287 118.95 5.39734C119.581 5.72757 120.057 6.29225 120.276 6.96987C120.466 7.73037 120.529 8.51687 120.464 9.29799C120.472 16.269 120.504 30.5071 120.44 30.9098Z" fill="#002082"/>
<path d="M143.2 27.2016C143.305 27.7593 143.224 28.3365 142.966 28.8425C142.709 29.3485 142.29 29.7546 141.778 29.9972C140.88 30.5586 139.859 30.8925 138.803 30.9699C137.748 31.0474 136.689 30.8661 135.719 30.4417C135.14 30.2068 134.646 29.801 134.305 29.2787C133.963 28.7564 133.788 28.1423 133.804 27.518C133.75 25.021 133.835 22.5214 133.863 20.0216C133.863 18.994 133.883 17.9486 133.863 16.9415C133.888 16.4369 133.746 15.9379 133.461 15.5206C133.176 15.1034 132.763 14.7907 132.284 14.6302C132.23 14.6126 132.185 14.5789 132.151 14.5337C132.119 14.4886 132.101 14.4344 132.101 14.3787V13.7866C132.101 13.7159 132.129 13.6481 132.179 13.5981C132.229 13.5481 132.298 13.52 132.368 13.52C132.751 13.551 133.136 13.5039 133.5 13.3812C133.865 13.2587 134.2 13.0634 134.486 12.807C134.773 12.5507 135.004 12.2389 135.165 11.8905C135.328 11.5421 135.418 11.1643 135.429 10.7803H137.605C137.605 10.7803 137.67 11.639 137.646 12.0595C137.59 13.1431 137.94 13.5849 139.06 13.5022C140.179 13.4195 141.293 13.4844 142.568 13.4844C142.861 14.3137 142.426 14.9654 141.489 15.3085C141.025 15.4586 140.54 15.5366 140.051 15.5396C137.66 15.6196 137.664 15.6081 137.669 17.9745C137.669 20.1844 137.628 22.3934 137.691 24.5996C137.786 27.9314 139.114 28.7875 142.255 27.622C142.578 27.5001 142.893 27.3598 143.2 27.2016Z" fill="#002082"/>
<path d="M123.488 15.3811C123.407 15.3068 123.345 15.2135 123.309 15.1095C123.273 15.0053 123.264 14.894 123.282 14.7853C123.3 14.6767 123.345 14.5743 123.413 14.4876C123.481 14.4008 123.569 14.3323 123.671 14.2886C124.656 13.9152 125.684 13.6645 126.731 13.542C128.048 13.3641 128.793 14.262 129.014 15.615C129.05 15.8532 129.066 16.094 129.064 16.335V30.7971H124.886C124.886 30.7971 124.836 25.1692 124.886 22.2081C124.935 19.2471 124.764 16.5865 123.488 15.3811Z" fill="#002082"/>
<path d="M72.5335 15.1998C72.4771 15.1598 72.4326 15.1051 72.4045 15.0419C72.3765 14.9786 72.3659 14.9091 72.374 14.8404C72.3821 14.7716 72.4085 14.7064 72.4505 14.6514C72.4925 14.5964 72.5485 14.5538 72.6126 14.5278C73.424 14.1709 74.2585 13.8691 75.1105 13.6246C77.2075 13.133 78.3996 13.9713 78.4387 16.1305C78.5214 20.9761 78.4654 25.8244 78.4654 30.9126C77.2635 30.9126 74.2154 30.8566 74.2154 30.8566C74.2154 27.5214 74.3042 23.0286 74.3629 19.6908C74.4501 18.8495 74.3289 17.9998 74.0097 17.2165C73.6907 16.4333 73.1837 15.7406 72.5335 15.1998Z" fill="#002082"/>
<path d="M126.81 7.7011C127.373 7.7807 127.886 8.06789 128.248 8.50624C128.61 8.94459 128.794 9.5024 128.766 10.0701C128.718 10.6355 128.45 11.1594 128.019 11.5285C127.588 11.8976 127.029 12.0823 126.463 12.0427C126.179 12.0333 125.899 11.9665 125.641 11.8465C125.384 11.7264 125.153 11.5555 124.963 11.344C124.772 11.1318 124.626 10.8836 124.533 10.614C124.44 10.3443 124.402 10.0587 124.421 9.77409C124.466 9.18354 124.742 8.63462 125.189 8.2465C125.636 7.85838 126.219 7.66239 126.81 7.7011Z" fill="#002082"/>
<path d="M78.1596 9.91329C78.1595 10.1958 78.103 10.4755 77.9933 10.7359C77.8837 10.9963 77.7232 11.2322 77.5213 11.4298C77.3201 11.6268 77.0812 11.7813 76.819 11.8841C76.5568 11.9868 76.2766 12.0358 75.9951 12.0281C75.7141 12.0325 75.435 11.9814 75.1738 11.8777C74.9127 11.7739 74.6746 11.6196 74.4732 11.4236C74.0655 11.0256 73.8321 10.4822 73.8242 9.91241C73.8248 9.61811 73.8837 9.32686 73.9977 9.05553C74.1117 8.78421 74.2785 8.53823 74.4883 8.33187C74.6973 8.12646 74.9453 7.96489 75.2176 7.85666C75.49 7.74842 75.7812 7.69571 76.0742 7.70162C76.6433 7.72021 77.1821 7.96319 77.5728 8.37754C77.9636 8.79189 78.1745 9.34398 78.1596 9.91329Z" fill="#002082"/>
</g>
<defs>
<clipPath id="clip0_291_4129">
<rect width="162.5" height="40" fill="white"/>
</clipPath>
</defs>
</svg>
