<svg width="40" height="40" viewBox="0 0 40 40" fill="none" xmlns="http://www.w3.org/2000/svg">
<path d="M8.91777 10.6035H6.2111L3.80518 18.1113H5.25518L5.9211 16.0491H9.25073L9.94888 18.1113H11.3989L8.91777 10.6035ZM6.30777 14.8568L7.56444 10.9794L8.85332 14.8568H6.30777ZM13.3833 18.122V10.6035H12.0514V18.122H13.3833ZM16.3192 12.5798V10.6035H14.9874V12.5798H14.1818V13.6217H14.3107C14.3107 13.6217 14.9874 13.6217 14.9874 14.3628V16.758C14.9874 17.5206 15.5996 18.122 16.3514 18.122H17.2644V16.9406H16.7381C16.5125 16.9406 16.3192 16.7472 16.3192 16.5217V14.4594C16.3192 13.6646 14.6329 13.6217 14.3537 13.6217H17.2644V12.5798H16.3192ZM8.03703 23.9728C8.03703 23.9728 6.59777 23.6398 6.55481 23.6291C6.07147 23.5002 5.66332 23.2639 5.66332 22.7698C5.66332 22.2328 6.31851 21.7924 7.14555 21.7924C8.15518 21.7924 8.72444 22.4154 8.72444 23.0276H10.1315C10.1315 21.7172 9.1111 20.6109 7.14555 20.6109C5.48073 20.6109 4.25629 21.5024 4.25629 22.7806C4.25629 24.1017 5.09406 24.7354 6.31851 25.0146C6.31851 25.0146 7.76851 25.3476 7.80073 25.3583C8.35925 25.498 8.8211 25.7772 8.8211 26.325C8.8211 27.0017 7.98332 27.4313 7.10258 27.3561C5.91036 27.2594 5.46999 26.4754 5.46999 25.9168H4.07369C4.07369 27.1413 5.09406 28.4946 7.12406 28.5483C8.64925 28.5806 10.2281 27.7428 10.2281 26.325C10.2281 25.0146 9.32592 24.2843 8.03703 23.9728ZM13.6507 27.2917C12.8021 27.2917 12.351 26.4861 12.351 25.5624C12.351 24.628 12.9095 23.8331 13.6399 23.8331C14.2199 23.8331 14.6818 24.2628 14.8429 24.8535H16.2821C16.0458 23.468 14.9395 22.6517 13.6292 22.6517C12.1577 22.6517 10.8795 23.9406 10.9547 25.7343C11.0192 27.4098 12.2221 28.4624 13.6614 28.4624C15.004 28.4624 16.0029 27.5709 16.2607 26.3572H14.7784C14.6603 26.8406 14.2307 27.2917 13.6507 27.2917ZM20.048 22.6731C19.2317 22.7376 18.5336 23.5861 18.5228 25.0791C18.5336 24.338 18.8665 23.8009 19.6291 23.8009C20.4669 23.8009 20.7354 24.4239 20.7354 25.1113V28.3443H22.078V24.6602C22.078 23.3713 21.0147 22.598 20.048 22.6731ZM17.191 20.8257V28.3443H18.5228V20.8257H17.191ZM25.693 22.6517C24.2645 22.6517 22.9541 23.715 22.9541 25.5624C22.9541 27.4098 24.243 28.4517 25.693 28.4624C27.1538 28.4517 28.4427 27.3991 28.4427 25.5624C28.4427 23.715 27.1215 22.6517 25.693 22.6517ZM25.693 27.2809C24.9841 27.2809 24.2967 26.7224 24.2967 25.5624C24.2967 24.4668 24.9734 23.8439 25.693 23.8331C26.4234 23.8439 27.1001 24.4776 27.1001 25.5624C27.1001 26.7224 26.4127 27.2809 25.693 27.2809ZM31.8815 22.6517C30.453 22.6517 29.1427 23.715 29.1427 25.5624C29.1427 27.4098 30.4315 28.4517 31.8815 28.4624C33.3423 28.4517 34.6312 27.3991 34.6312 25.5624C34.6312 23.715 33.3101 22.6517 31.8815 22.6517ZM31.8815 27.2809C31.1727 27.2809 30.4853 26.7224 30.4853 25.5624C30.4853 24.4668 31.1619 23.8439 31.8815 23.8331C32.6119 23.8439 33.2886 24.4776 33.2886 25.5624C33.2886 26.7224 32.6012 27.2809 31.8815 27.2809ZM36.9101 28.3443V20.8257H35.5782V28.3443H36.9101ZM36.9259 16.4817H18.7037V18.1113H36.9259V16.4817Z" fill="black"/>
</svg>
