<svg width="300" height="100" viewBox="0 0 300 100" fill="none" xmlns="http://www.w3.org/2000/svg">
<rect width="300" height="100" fill="white"/>
<g clip-path="url(#clip0_291_8155)">
<path fill-rule="evenodd" clip-rule="evenodd" d="M116.039 57.9574V40.9277H120.57L126.312 53.6529L131.968 40.9277H136.31V57.9574H132.573V48.0503L128.261 57.9574H124.279L119.91 48.1032V57.9561L116.039 57.9574ZM151.347 51.3639L148.221 44.1445L145.165 51.3639H151.347ZM142.37 57.9574H137.977L145.53 40.9277H150.941L158.548 57.9574H154.21L152.714 54.5639H143.822L142.37 57.9574ZM160.301 57.9574V40.9277H176.559V44.3329H164.227V47.7148H174.801V51.0387H164.227V54.551H176.588V57.9574H160.301ZM183.734 48.7471H192.277V44.3329H183.735V48.7458L183.734 48.7471ZM179.752 57.9574V40.9277H193.359C195.175 40.9277 196.231 41.9793 196.231 43.7832V49.5045C196.231 50.8206 195.066 52.0103 192.806 52.0103C192.677 52.0168 192.548 52.0103 192.413 52.0103L196.374 57.9574H192.003L188.248 52.1342H183.734V57.9574H179.752ZM203.396 57.9664H202.048C200.288 57.9664 199.441 56.9497 199.441 55.4684V53.2439H203.396V54.5613H211.8V51.0761H202.16C200.621 51.0761 199.512 50.0413 199.512 48.6052V43.5484C199.512 42.0181 200.719 40.9368 202.187 40.9368H213.206C214.697 40.9368 215.728 42.049 215.728 43.6555V45.6877H211.8V44.3419H203.396V47.6968H213.009C214.428 47.6968 215.728 48.6348 215.728 50.4426V55.3032C215.728 56.9587 214.809 57.9652 213.092 57.9652L203.396 57.9664ZM219.523 57.9664V40.9355H223.561V47.7484L231.25 40.9355H236.716L227.542 48.8464L237.046 57.9664H231.387L223.56 50.2206V57.9664H219.523Z" fill="#0A0B09"/>
<path fill-rule="evenodd" clip-rule="evenodd" d="M99.7471 64.3613C99.7472 64.9401 99.6334 65.5132 99.412 66.048C99.1906 66.5828 98.8661 67.0687 98.4569 67.478C98.0477 67.8873 97.5619 68.212 97.0272 68.4335C96.4925 68.6551 95.9194 68.7691 95.3406 68.7691H67.5238C66.355 68.7691 65.2341 68.3049 64.4075 67.4785C63.581 66.6522 63.1164 65.5314 63.1161 64.3626V34.52C63.1161 33.351 63.5805 32.2299 64.4071 31.4033C65.2337 30.5767 66.3548 30.1123 67.5238 30.1123H95.3419C96.5107 30.1126 97.6315 30.5772 98.4578 31.4038C99.2841 32.2303 99.7483 33.3513 99.7483 34.52V64.3626" fill="#42B0D5"/>
<path fill-rule="evenodd" clip-rule="evenodd" d="M87.2722 48.4389L94.5006 39.3731L94.4774 39.3434L84.0309 44.3756L81.4503 33.0698H81.4141L78.8335 44.3743L68.387 39.3434L68.3638 39.3731L75.5935 48.4376L65.1458 53.4698L65.1548 53.5047H76.7496L74.169 64.8092L74.2025 64.8247L81.4322 55.7589L88.6619 64.8247L88.6941 64.8079L86.1148 53.5047H97.7096L97.7187 53.4685L87.2722 48.4376" fill="#FFFFFE"/>
</g>
<defs>
<clipPath id="clip0_291_8155">
<rect width="174.194" height="40" fill="white" transform="translate(62.9032 30)"/>
</clipPath>
</defs>
</svg>
