<svg width="300" height="100" viewBox="0 0 300 100" fill="none" xmlns="http://www.w3.org/2000/svg">
<rect width="300" height="100" fill="white"/>
<g clip-path="url(#clip0_298_10874)">
<path d="M150.295 30.9556H150.318C156.87 30.9556 161.42 31.9299 164.325 32.8989C165.778 33.3835 166.821 33.8668 167.497 34.2271C167.835 34.407 168.081 34.5563 168.242 34.6597C168.302 34.6983 168.35 34.7314 168.387 34.7563C169.797 48.1482 165.455 56.8147 160.673 62.1743C156.076 67.3253 151.059 69.4328 150.307 69.728C149.554 69.432 144.538 67.3241 139.942 62.1743C135.159 56.8147 130.816 48.148 132.225 34.7563C132.262 34.7313 132.31 34.6986 132.371 34.6597C132.532 34.5563 132.779 34.4071 133.117 34.2271C133.793 33.8668 134.835 33.3834 136.288 32.8989C139.193 31.9299 143.742 30.9556 150.295 30.9556Z" fill="url(#paint0_linear_298_10874)" stroke="black" stroke-width="0.5"/>
<path d="M149.615 69.2872H149.589C148.798 68.9908 128.377 60.971 131.283 33.9122C131.283 33.9122 136.434 30 149.589 30H149.612C162.768 30 167.918 33.9122 167.918 33.9122C170.827 60.971 150.405 68.9908 149.615 69.2872Z" fill="url(#paint1_linear_298_10874)"/>
<path d="M149.612 67.0571C149.612 67.0571 143.749 64.9116 138.97 58.788L138.951 58.7691C137.802 57.2921 136.807 55.7014 135.982 54.0218C133.695 49.3732 132.302 43.2472 133.158 35.2862C133.158 35.2862 134.977 33.9077 139.245 32.8773C141.786 32.2632 145.198 31.7739 149.612 31.7739C149.589 31.748 149.612 67.0571 149.612 67.0571Z" fill="#8D267D"/>
<path d="M163.095 54.2735V54.29C162.309 55.8454 161.377 57.3224 160.311 58.7009C155.516 64.8881 149.589 67.0571 149.589 67.0571V58.7903V51.2034V31.7739C161.42 31.7739 166.06 35.2862 166.06 35.2862C166.918 43.393 165.457 49.5966 163.095 54.2735Z" fill="#94939B"/>
<path d="M149.589 51.2173V58.7971L140.899 43.7057L138.97 58.7877L138.951 58.7689C137.802 57.2919 136.807 55.7011 135.982 54.0215L135.968 53.9909L139.236 32.877L149.589 51.2173H149.589Z" fill="white"/>
<path d="M163.215 53.9956C163.175 54.0921 163.135 54.1838 163.095 54.2779V54.2944C162.309 55.8482 161.377 57.3237 160.311 58.7007L160.215 58.7971L158.295 43.7057L149.589 58.79V51.2032L159.942 32.877L163.215 53.9956Z" fill="white"/>
</g>
<defs>
<linearGradient id="paint0_linear_298_10874" x1="167.707" y1="43.6845" x2="138.62" y2="52.7847" gradientUnits="userSpaceOnUse">
<stop stop-color="#D3D2D2"/>
<stop offset="1" stop-color="#D3D2D2"/>
</linearGradient>
<linearGradient id="paint1_linear_298_10874" x1="131.001" y1="49.6483" x2="168.203" y2="49.6483" gradientUnits="userSpaceOnUse">
<stop stop-color="#939598"/>
<stop offset="1" stop-color="#FDFDFD"/>
</linearGradient>
<clipPath id="clip0_298_10874">
<rect width="37.9487" height="40" fill="white" transform="translate(131 30)"/>
</clipPath>
</defs>
</svg>
