<svg width="300" height="100" viewBox="0 0 300 100" fill="none" xmlns="http://www.w3.org/2000/svg">
<rect width="300" height="100" fill="white"/>
<g clip-path="url(#clip0_298_10863)">
<path d="M145.253 42.5619H148.417V43.8461C148.906 43.3418 149.499 42.9511 150.155 42.7014C150.811 42.4517 151.513 42.3493 152.213 42.4014C152.891 42.3908 153.562 42.545 154.167 42.8506C154.772 43.1563 155.294 43.6043 155.688 44.1561C156.16 43.7528 156.662 43.3846 157.188 43.0545C157.906 42.6561 158.705 42.425 159.526 42.3784C160.346 42.3318 161.166 42.4709 161.925 42.7854C162.606 43.0633 163.197 43.5232 163.633 44.1148C164.07 44.7063 164.335 45.4067 164.4 46.139C164.471 46.5904 164.505 47.0467 164.503 47.5035C164.503 49.542 164.503 51.5811 164.503 53.6206V53.9527H161.166V53.6379C161.166 51.7054 161.185 49.7697 161.155 47.8355C161.143 47.3558 161.051 46.8814 160.883 46.4318C160.768 46.1093 160.558 45.8293 160.281 45.6287C160.004 45.4281 159.672 45.3163 159.33 45.3081C158.965 45.2495 158.592 45.2753 158.24 45.3835C157.887 45.4917 157.564 45.6794 157.295 45.9323C157.026 46.1851 156.819 46.4963 156.689 46.8418C156.56 47.1873 156.511 47.558 156.547 47.9253C156.51 49.8138 156.547 51.7022 156.533 53.5907V53.9511H153.209V47.9709C153.229 47.4081 153.121 46.8481 152.895 46.3326C152.77 46.0553 152.575 45.8157 152.329 45.6377C152.082 45.4598 151.793 45.3499 151.491 45.3191C151.155 45.2483 150.807 45.2518 150.472 45.3293C150.137 45.4069 149.823 45.5566 149.552 45.7681C149.281 45.9796 149.06 46.2477 148.903 46.5537C148.746 46.8597 148.659 47.1962 148.646 47.5397C148.612 47.8449 148.595 48.1517 148.594 48.4587C148.594 50.1815 148.594 51.9042 148.594 53.6269V53.9244C148.559 53.948 148.545 53.9669 148.531 53.9669H145.253V42.5619Z" fill="black"/>
<path d="M178.366 53.9621H175.218V52.7456C175.178 52.7685 175.139 52.7942 175.102 52.8227C174.71 53.228 174.242 53.5521 173.725 53.7765C173.208 54.0009 172.652 54.1212 172.088 54.1305C171.289 54.2062 170.483 54.1112 169.723 53.8518C168.964 53.5924 168.268 53.1746 167.682 52.626C166.783 51.7763 166.205 50.6431 166.043 49.4171C165.761 47.916 166.023 46.3632 166.785 45.0389C167.208 44.3142 167.799 43.7013 168.507 43.251C169.216 42.8007 170.022 42.5261 170.858 42.4501C171.915 42.2745 173.001 42.4398 173.958 42.9222C174.331 43.1459 174.692 43.3902 175.039 43.654V42.7601C175.039 42.6358 175.067 42.5634 175.212 42.5634H178.349L178.366 53.9621ZM175.129 48.1486C175.115 47.9243 175.087 47.7009 175.047 47.4798C174.975 46.9377 174.738 46.4309 174.368 46.0287C173.997 45.6264 173.512 45.3484 172.977 45.2325C172.45 45.0699 171.886 45.071 171.36 45.2356C170.833 45.4003 170.369 45.7207 170.028 46.1547C169.71 46.5631 169.491 47.0391 169.387 47.5458C169.283 48.0526 169.296 48.5766 169.427 49.0772C169.515 49.5573 169.724 50.0071 170.034 50.3838C170.344 50.7606 170.746 51.0518 171.2 51.23C171.655 51.4081 172.147 51.4672 172.631 51.4016C173.115 51.3361 173.573 51.1481 173.964 50.8555C174.363 50.5326 174.678 50.1175 174.881 49.646C175.084 49.1744 175.17 48.6605 175.13 48.1486H175.129Z" fill="black"/>
<path d="M179.984 53.9351L184.337 48.2287L180.124 42.5836C180.245 42.5836 180.317 42.56 180.393 42.56H183.603C183.68 42.5544 183.757 42.5698 183.826 42.6048C183.895 42.6397 183.953 42.6928 183.994 42.7583C184.73 43.786 185.478 44.8042 186.241 45.857C186.299 45.7893 186.351 45.7358 186.398 45.676C187.124 44.705 187.849 43.7356 188.57 42.7599C188.611 42.6942 188.669 42.6407 188.737 42.6053C188.806 42.5698 188.883 42.5536 188.96 42.5584H192.276L188.043 48.1311C189.503 50.0589 190.956 51.9836 192.44 53.954C192.3 53.954 192.205 53.9681 192.125 53.9681H188.91C188.828 53.9736 188.747 53.9564 188.675 53.9183C188.603 53.8803 188.542 53.8228 188.501 53.7525C187.799 52.7422 187.064 51.735 186.343 50.7293C186.294 50.6585 186.241 50.5909 186.17 50.4949C185.698 51.1244 185.248 51.7381 184.796 52.3503C184.441 52.8224 184.094 53.315 183.726 53.7903C183.659 53.8741 183.564 53.9302 183.458 53.9477H180.094C180.057 53.9485 180.02 53.9442 179.984 53.9351Z" fill="black"/>
<path d="M139.497 45.6667C139.496 41.6006 137.915 37.694 135.089 34.7711C132.262 31.8482 128.411 30.1375 124.347 30H123.717C121.023 30.0005 118.374 30.6992 116.03 32.028C113.685 33.3569 111.725 35.2705 110.341 37.5823C109.106 39.5383 108.326 41.7466 108.06 44.0442C107.793 46.3418 108.045 48.67 108.798 50.8569C109.832 53.7241 111.286 56.422 113.112 58.8626C115.32 61.8705 117.814 64.6575 120.559 67.1846C121.574 68.1288 122.625 69.04 123.678 69.9937C123.835 69.8788 123.924 69.8112 124.01 69.7388C127.68 66.701 130.991 63.2542 133.879 59.4653C135.809 56.9848 137.359 54.2317 138.481 51.296C138.576 51.0305 138.665 50.7683 138.748 50.5091C139.253 48.9447 139.507 47.3104 139.502 45.6667H139.497Z" fill="#FDDB00"/>
<path d="M130.113 39.2598C130.205 39.2593 130.296 39.2775 130.381 39.3133C130.463 39.3505 130.536 39.404 130.596 39.4707C130.726 39.6028 130.799 39.781 130.798 39.9664V51.6326C130.798 51.6921 130.786 51.751 130.763 51.8057C130.742 51.8578 130.711 51.9053 130.672 51.9458C130.633 51.9873 130.586 52.02 130.533 52.0418C130.479 52.0652 130.421 52.077 130.362 52.0764H128.489C128.43 52.0761 128.372 52.0643 128.318 52.0418C128.238 52.0071 128.171 51.9498 128.124 51.877C128.077 51.8043 128.052 51.7192 128.053 51.6326V43.6694C128.057 43.6502 128.057 43.6304 128.053 43.6112C128.045 43.5933 128.034 43.5773 128.02 43.564C128.006 43.5511 127.99 43.541 127.973 43.5341C127.955 43.5306 127.937 43.5306 127.919 43.5341H127.871L127.845 43.5482L127.822 43.5687L125.428 46.0379C125.388 46.0804 125.352 46.1268 125.321 46.1764C125.289 46.2258 125.262 46.2785 125.241 46.3338C125.22 46.3884 125.203 46.4447 125.192 46.5022C125.181 46.5602 125.176 46.6193 125.176 46.6784V51.6232C125.176 51.6825 125.164 51.7413 125.142 51.7963C125.12 51.8486 125.089 51.8961 125.049 51.9363C125.009 51.9764 124.962 52.0089 124.91 52.0323C124.857 52.0542 124.8 52.0655 124.742 52.0654H122.869C122.811 52.0659 122.754 52.0541 122.701 52.0308C122.649 52.0093 122.602 51.9777 122.562 51.9379C122.523 51.8961 122.493 51.8476 122.471 51.7947C122.447 51.7401 122.435 51.6811 122.436 51.6216V46.6721C122.437 46.613 122.432 46.554 122.421 46.4959C122.409 46.4386 122.392 46.3823 122.372 46.3275C122.35 46.2727 122.323 46.22 122.292 46.1701C122.261 46.1215 122.225 46.0762 122.185 46.0348L119.81 43.5561L119.786 43.5357H119.709C119.691 43.5362 119.673 43.5399 119.656 43.5467C119.639 43.5534 119.624 43.563 119.612 43.575C119.597 43.5881 119.586 43.6042 119.578 43.6222C119.571 43.6418 119.567 43.6626 119.567 43.6836V51.6106C119.568 51.6696 119.556 51.728 119.533 51.7821C119.512 51.8352 119.481 51.8838 119.442 51.9253C119.402 51.9651 119.355 51.9967 119.303 52.0182C119.25 52.0417 119.193 52.0535 119.135 52.0528H117.276C117.219 52.0523 117.163 52.0405 117.111 52.0181C117.059 51.9957 117.012 51.9631 116.972 51.9222C116.933 51.8818 116.901 51.8342 116.879 51.7821C116.858 51.727 116.846 51.6683 116.846 51.609V39.9758C116.846 39.84 116.884 39.7069 116.958 39.5926C117.031 39.4784 117.136 39.3879 117.26 39.3322C117.344 39.2965 117.434 39.2783 117.525 39.2787H119.265C119.313 39.2787 119.361 39.2834 119.409 39.2928C119.455 39.3024 119.5 39.3166 119.544 39.3353C119.588 39.3543 119.63 39.378 119.67 39.4061C119.709 39.4338 119.746 39.4649 119.78 39.499L123.648 43.5105L123.683 43.5404L123.727 43.5593L123.769 43.5734H123.859L123.903 43.5593L123.942 43.5388C123.956 43.5291 123.969 43.518 123.98 43.5057L127.856 39.4848C127.89 39.4502 127.927 39.4191 127.967 39.392C128.006 39.3639 128.048 39.3402 128.092 39.3211C128.136 39.3024 128.181 39.2882 128.228 39.2787C128.275 39.2677 128.324 39.2624 128.373 39.2629L130.113 39.2598Z" fill="black"/>
</g>
<defs>
<clipPath id="clip0_298_10863">
<rect width="84.4899" height="40" fill="white" transform="translate(107.953 30)"/>
</clipPath>
</defs>
</svg>
