<svg width="300" height="100" viewBox="0 0 300 100" fill="none" xmlns="http://www.w3.org/2000/svg">
<rect width="300" height="100" fill="white"/>
<mask id="mask0_293_8517" style="mask-type:luminance" maskUnits="userSpaceOnUse" x="127" y="43" width="46" height="14">
<path d="M172.074 43.1445H127.945V56.8438H172.074V43.1445Z" fill="white"/>
</mask>
<g mask="url(#mask0_293_8517)">
<path d="M128.594 43.7852C128.594 43.6797 128.297 43.3984 128.199 43.3984H127.945V43.1445H129.441L130.98 47.0195H131.016L132.637 43.1445H133.977V43.3984H133.723C133.625 43.3984 133.328 43.6797 133.328 43.7852V47.6367C133.328 47.7422 133.625 48.0234 133.723 48.0234H133.977V48.2773H131.988V48.0234H132.242C132.34 48.0234 132.637 47.7422 132.637 47.6367V43.8984L130.766 48.3711L128.895 43.8203V47.6367C128.895 47.7422 129.191 48.0234 129.289 48.0234H129.543V48.2773H127.941V48.0234H128.195C128.293 48.0234 128.59 47.7422 128.59 47.6367V43.7852H128.594Z" fill="#1D1D1B"/>
</g>
<mask id="mask1_293_8517" style="mask-type:luminance" maskUnits="userSpaceOnUse" x="127" y="43" width="46" height="14">
<path d="M172.074 43.1445H127.945V56.8438H172.074V43.1445Z" fill="white"/>
</mask>
<g mask="url(#mask1_293_8517)">
<path d="M136.137 46.0859C136.227 45.5703 136.145 45.1055 135.574 45.1055C134.91 45.1055 134.586 45.6328 134.586 46.418C134.586 47.1602 135.059 47.7734 135.82 47.7734C136.398 47.7734 136.645 47.5703 136.879 47.1797H137.082C136.863 47.9062 136.418 48.3633 135.586 48.3633C134.66 48.3633 134.062 47.5742 134.062 46.6289C134.062 45.5547 134.773 44.8516 135.648 44.8516C136.172 44.8516 136.523 45.0156 136.828 45.3164L136.34 46.0703L136.137 46.0859Z" fill="#1D1D1B"/>
</g>
<mask id="mask2_293_8517" style="mask-type:luminance" maskUnits="userSpaceOnUse" x="127" y="43" width="46" height="14">
<path d="M172.074 43.1445H127.945V56.8438H172.074V43.1445Z" fill="white"/>
</mask>
<g mask="url(#mask2_293_8517)">
<path d="M142.855 44.1602C143.102 44.1602 143.285 43.9922 143.285 43.7305C143.285 43.4687 143.102 43.3086 142.855 43.3086C142.609 43.3086 142.418 43.4687 142.418 43.7305C142.418 43.9922 142.605 44.1602 142.855 44.1602Z" fill="#1D1D1B"/>
</g>
<mask id="mask3_293_8517" style="mask-type:luminance" maskUnits="userSpaceOnUse" x="127" y="43" width="46" height="14">
<path d="M172.074 43.1445H127.945V56.8438H172.074V43.1445Z" fill="white"/>
</mask>
<g mask="url(#mask3_293_8517)">
<path d="M147.582 48.0273C147.484 48.0273 147.215 47.7891 147.215 47.6758V45.8203C147.215 45.25 146.805 44.8672 146.289 44.8672C145.688 44.8672 145.379 45.2148 144.977 45.6211L144.848 44.9375H143.797V45.1914H144C144.098 45.1914 144.367 45.4375 144.367 45.543V47.6719C144.367 47.7852 144.098 48.0234 144 48.0234H143.797H143.594C143.504 48.0234 143.227 47.7852 143.227 47.6719V44.9336H142.035V45.1875H142.238C142.336 45.1875 142.605 45.4336 142.605 45.5391V47.668C142.605 47.7812 142.336 48.0195 142.238 48.0195H142.035H141.867C141.762 48.0195 141.344 47.7031 141.262 47.5898L139.461 45.1992L140.711 43.8594C140.781 43.7812 141.27 43.3945 141.367 43.3945H141.613V43.1406H139.75V43.3945H139.996C140.094 43.3945 140.383 43.7461 140.305 43.8398L138.469 45.8867V43.7852C138.469 43.6797 138.766 43.3984 138.863 43.3984H139.117V43.1445H137.113V43.3984H137.367C137.465 43.3984 137.762 43.6797 137.762 43.7852V47.6367C137.762 47.7422 137.465 48.0234 137.367 48.0234H137.113V48.2773H139.117V48.0234H138.867C138.77 48.0234 138.473 47.7422 138.473 47.6367V46.2734L138.996 45.7109L140.773 48.2773H142.035H143.797H145.539V48.0234H145.352C145.254 48.0234 144.984 47.7852 144.984 47.6719V45.9727C144.984 45.7461 145.598 45.2813 146.07 45.2813C146.43 45.2813 146.598 45.5273 146.598 45.8516V47.6719C146.598 47.7852 146.328 48.0234 146.23 48.0234H146.039V48.2773H147.746V48.0234H147.582V48.0273Z" fill="#1D1D1B"/>
</g>
<mask id="mask4_293_8517" style="mask-type:luminance" maskUnits="userSpaceOnUse" x="127" y="43" width="46" height="14">
<path d="M172.074 43.1445H127.945V56.8438H172.074V43.1445Z" fill="white"/>
</mask>
<g mask="url(#mask4_293_8517)">
<path d="M148.199 47.1094C148.199 47.418 148.652 48.0898 149.371 48.0898C149.789 48.0898 150.02 47.9414 150.02 47.6328C150.02 47.2578 149.688 47.1328 149.391 47.0039C149.156 46.9062 148.969 46.8281 148.699 46.707C148.297 46.5234 147.992 46.2539 147.992 45.7969C147.992 45.1953 148.352 44.8516 148.992 44.8516C149.359 44.8516 149.563 45.0273 149.816 45.0273C149.914 45.0273 149.973 45.0078 150 44.9375H150.184V45.9687H149.98C149.98 45.6953 149.594 45.1094 148.973 45.1094C148.586 45.1094 148.402 45.2773 148.402 45.5547C148.402 45.8438 148.602 45.9492 148.945 46.0977C149.199 46.2031 149.391 46.2891 149.664 46.3945C150.023 46.5352 150.434 46.8242 150.434 47.3594C150.434 47.9961 149.996 48.3672 149.367 48.3672C148.945 48.3672 148.695 48.168 148.406 48.168C148.273 48.168 148.238 48.2031 148.152 48.2812H147.992V47.1094H148.199Z" fill="#1D1D1B"/>
</g>
<mask id="mask5_293_8517" style="mask-type:luminance" maskUnits="userSpaceOnUse" x="127" y="43" width="46" height="14">
<path d="M172.074 43.1445H127.945V56.8438H172.074V43.1445Z" fill="white"/>
</mask>
<g mask="url(#mask5_293_8517)">
<path d="M150.641 46.6094C150.641 45.6212 151.312 44.8516 152.172 44.8594C152.926 44.8672 153.352 45.3829 153.387 46.0313L153.402 46.2696L151.18 46.4454C151.18 47.1172 151.645 47.7774 152.398 47.7774C152.969 47.7774 153.23 47.5587 153.434 47.1758H153.637C153.422 47.9063 153.008 48.3594 152.187 48.3594C151.258 48.3594 150.641 47.5469 150.641 46.6094ZM152.828 46.0665C152.883 45.5938 152.809 45.1133 152.156 45.1133C151.465 45.1133 151.191 45.6837 151.168 46.2071L152.828 46.0665Z" fill="#1D1D1B"/>
</g>
<mask id="mask6_293_8517" style="mask-type:luminance" maskUnits="userSpaceOnUse" x="127" y="43" width="46" height="14">
<path d="M172.074 43.1445H127.945V56.8438H172.074V43.1445Z" fill="white"/>
</mask>
<g mask="url(#mask6_293_8517)">
<path d="M153.973 45.5703C153.922 45.457 153.625 45.1875 153.543 45.1875H153.395V44.9336H155.164V45.1875H154.961C154.867 45.1875 154.664 45.4219 154.664 45.5469L155.441 47.332L156.203 45.5547C156.211 45.4219 156.004 45.1875 155.914 45.1875H155.711V44.9336H157.043V45.1875H156.887C156.809 45.1875 156.57 45.4414 156.5 45.5547L155.363 48.1172L154.523 49.9648L154.219 49.8242L155.109 48.0039L153.973 45.5703Z" fill="#1D1D1B"/>
</g>
<mask id="mask7_293_8517" style="mask-type:luminance" maskUnits="userSpaceOnUse" x="127" y="43" width="46" height="14">
<path d="M172.074 43.1445H127.945V56.8438H172.074V43.1445Z" fill="white"/>
</mask>
<g mask="url(#mask7_293_8517)">
<path d="M137.867 50.9336C137.867 51.3438 138.148 51.6758 138.594 51.8438C139.258 52.5547 140.055 53.3125 140.754 53.9336C140.953 53.6094 141.023 53.2617 141.023 52.8398C141.023 52.3672 140.715 52.0859 140.211 52.0703V51.8164H142.031V52.0703H141.832C141.734 52.0703 141.379 52.4727 141.375 52.6289C141.359 53.0664 141.242 53.6094 140.918 54.0742C141.293 54.3984 141.664 54.7031 141.961 54.9062H142.27V55.1602H141.711C141.211 55.1602 140.855 55.0273 140.434 54.6367C140.023 55.0313 139.504 55.25 138.746 55.25C137.914 55.25 137.117 54.6367 137.117 53.7344C137.117 53.0234 137.477 52.5 137.941 52.1758C137.695 51.8594 137.523 51.5547 137.523 51.1016C137.523 50.3672 138.004 49.957 138.758 49.957C139.23 49.957 139.477 50.1133 139.695 50.1133C139.809 50.1133 139.879 50.1055 139.934 50.0234H140.152V51.2383H139.934C139.934 50.8906 139.426 50.1992 138.742 50.1992C138.195 50.1992 137.867 50.4688 137.867 50.9336ZM137.648 53.4023C137.648 54.1367 138.434 54.8398 139.164 54.8398C139.621 54.8398 139.988 54.7109 140.277 54.4922C139.531 53.8516 138.695 53.0469 138.055 52.3125C137.789 52.5898 137.648 52.8711 137.648 53.4023Z" fill="#1D1D1B"/>
</g>
<mask id="mask8_293_8517" style="mask-type:luminance" maskUnits="userSpaceOnUse" x="127" y="43" width="46" height="14">
<path d="M172.074 43.1445H127.945V56.8438H172.074V43.1445Z" fill="white"/>
</mask>
<g mask="url(#mask8_293_8517)">
<path d="M147.539 51.8438C147.539 51.3164 146.945 50.2422 145.98 50.2422C145.09 50.2422 144.562 50.7344 144.473 51.8945C144.437 52.3477 144.453 52.7461 144.488 53.1992C144.574 54.0938 145.195 54.8359 146.238 54.8359C147.129 54.8359 147.559 54.4609 147.891 53.7852H148.16C147.828 54.7031 147.109 55.2539 146.086 55.2539C144.609 55.2539 143.66 54.0391 143.66 52.5742C143.66 51.1055 144.52 49.9375 145.961 49.9375C146.512 49.9375 146.855 50.1641 147.258 50.1641C147.422 50.1641 147.496 50.1211 147.574 50.0312H147.766V51.8516H147.539V51.8438Z" fill="#1D1D1B"/>
</g>
<mask id="mask9_293_8517" style="mask-type:luminance" maskUnits="userSpaceOnUse" x="127" y="43" width="46" height="14">
<path d="M172.074 43.1445H127.945V56.8438H172.074V43.1445Z" fill="white"/>
</mask>
<g mask="url(#mask9_293_8517)">
<path d="M148.5 53.4844C148.5 52.4062 149.277 51.7266 150.156 51.7266C151.039 51.7266 151.813 52.4023 151.813 53.4844C151.813 54.5625 151.035 55.25 150.156 55.25C149.277 55.25 148.5 54.5664 148.5 53.4844ZM151.145 54.043C151.188 53.7031 151.188 53.2461 151.145 52.9063C151.082 52.3711 150.785 52.0117 150.164 52.0117C149.563 52.0117 149.262 52.3711 149.184 52.9023C149.133 53.2266 149.133 53.707 149.184 54.0391C149.262 54.5547 149.551 54.9336 150.164 54.9336C150.793 54.9336 151.082 54.5664 151.145 54.043Z" fill="#1D1D1B"/>
</g>
<mask id="mask10_293_8517" style="mask-type:luminance" maskUnits="userSpaceOnUse" x="127" y="43" width="46" height="14">
<path d="M172.074 43.1445H127.945V56.8438H172.074V43.1445Z" fill="white"/>
</mask>
<g mask="url(#mask10_293_8517)">
<path d="M157.227 54.5508C157.227 54.6641 157.48 54.9023 157.578 54.9023H157.734V55.1562H156.07V54.9023H156.262C156.359 54.9023 156.613 54.6641 156.613 54.5508V52.6953C156.613 52.3711 156.449 52.1445 156.09 52.1445C155.652 52.1445 155.109 52.5664 155.109 52.793V54.5508C155.109 54.6641 155.363 54.9023 155.461 54.9023H155.652V55.1562H153.953V54.9023H154.145C154.242 54.9023 154.496 54.6641 154.496 54.5508V52.6953C154.496 52.3711 154.328 52.1445 153.969 52.1445C153.531 52.1445 152.988 52.5898 152.988 52.8164V54.5508C152.988 54.6641 153.242 54.9023 153.34 54.9023H153.531V55.1562H151.832V54.9023H152.023C152.121 54.9023 152.375 54.6641 152.375 54.5508V52.4219C152.375 52.3164 152.121 52.0703 152.023 52.0703H151.832V51.8164H152.852L152.984 52.457C153.367 52.0547 153.613 51.7461 154.199 51.7461C154.645 51.7461 155.02 51.9844 155.082 52.4531C155.492 52.0508 155.754 51.7539 156.316 51.7539C156.816 51.7539 157.227 52.0937 157.227 52.6992V54.5508Z" fill="#1D1D1B"/>
</g>
<mask id="mask11_293_8517" style="mask-type:luminance" maskUnits="userSpaceOnUse" x="127" y="43" width="46" height="14">
<path d="M172.074 43.1445H127.945V56.8438H172.074V43.1445Z" fill="white"/>
</mask>
<g mask="url(#mask11_293_8517)">
<path d="M158.723 51.8164L158.836 52.5C159.125 51.9648 159.492 51.7305 160.043 51.7305C160.855 51.7305 161.348 52.4141 161.348 53.4375C161.348 54.4609 160.785 55.2305 159.973 55.2305C159.387 55.2305 159.078 55.0039 158.836 54.5742V56.168C158.836 56.2813 159.098 56.5195 159.188 56.5195H159.406V56.7734H157.645V56.5195H157.863C157.961 56.5195 158.215 56.2813 158.215 56.168V52.4219C158.215 52.3164 157.961 52.0703 157.863 52.0703H157.645V51.8164H158.723ZM158.828 53.0352V53.9102C158.828 54.4336 159.23 54.875 159.793 54.875C160.363 54.875 160.633 54.5156 160.703 53.9844C160.746 53.668 160.754 53.3008 160.711 52.9883C160.641 52.457 160.352 52.1211 159.871 52.1211C159.305 52.125 158.988 52.5117 158.828 53.0352Z" fill="#1D1D1B"/>
</g>
<mask id="mask12_293_8517" style="mask-type:luminance" maskUnits="userSpaceOnUse" x="127" y="43" width="46" height="14">
<path d="M172.074 43.1445H127.945V56.8438H172.074V43.1445Z" fill="white"/>
</mask>
<g mask="url(#mask12_293_8517)">
<path d="M168.59 54.9062C168.492 54.9062 168.223 54.668 168.223 54.5547V52.6953C168.223 52.125 167.813 51.7422 167.297 51.7422C166.695 51.7422 166.387 52.0859 165.984 52.4961L165.859 51.8125H164.809V52.0664H165.012C165.109 52.0664 165.379 52.3125 165.379 52.418V54.5469C165.379 54.6602 165.109 54.8984 165.012 54.8984H164.809H164.609C164.52 54.8984 164.242 54.6602 164.242 54.5469V52.7266C164.242 52.0703 163.715 51.7305 162.992 51.7305C162.316 51.7305 161.926 51.9648 161.652 52.2461L162.098 52.918H162.336C162.09 52.3477 162.273 51.9805 162.844 51.9805C163.445 51.9805 163.633 52.25 163.625 52.7227L163.617 53.1406L162.758 53.3164C162.285 53.4141 161.68 53.6484 161.68 54.3125C161.68 54.8555 162.066 55.2227 162.527 55.2227C163.02 55.2227 163.375 54.8359 163.641 54.4883L163.727 55.1602H164.805H166.547V54.9062H166.355C166.258 54.9062 165.988 54.668 165.988 54.5547V52.8516C165.988 52.625 166.602 52.1602 167.074 52.1602C167.434 52.1602 167.602 52.4063 167.602 52.7305V54.5508C167.602 54.6641 167.332 54.9023 167.234 54.9023H167.043V55.1563H168.75V54.9023H168.59V54.9062ZM163.629 54.1797C163.488 54.4258 163.137 54.7656 162.809 54.7656C162.477 54.7656 162.273 54.5195 162.273 54.2305C162.273 53.8984 162.414 53.6719 162.832 53.5664L163.629 53.3633V54.1797Z" fill="#1D1D1B"/>
</g>
<mask id="mask13_293_8517" style="mask-type:luminance" maskUnits="userSpaceOnUse" x="127" y="43" width="46" height="14">
<path d="M172.074 43.1445H127.945V56.8438H172.074V43.1445Z" fill="white"/>
</mask>
<g mask="url(#mask13_293_8517)">
<path d="M169.004 52.4492C168.953 52.3359 168.656 52.0664 168.574 52.0664H168.426V51.8125H170.195V52.0664H169.992C169.898 52.0664 169.695 52.3008 169.695 52.4258L170.473 54.2109L171.234 52.4336C171.242 52.3008 171.035 52.0664 170.945 52.0664H170.742V51.8125H172.074V52.0664H171.918C171.84 52.0664 171.602 52.3203 171.531 52.4336L170.395 54.9961L169.555 56.8437L169.25 56.7031L170.141 54.8828L169.004 52.4492Z" fill="#1D1D1B"/>
</g>
</svg>
