<svg width="300" height="100" viewBox="0 0 300 100" fill="none" xmlns="http://www.w3.org/2000/svg">
<rect width="300" height="100" fill="white"/>
<mask id="mask0_298_10829" style="mask-type:luminance" maskUnits="userSpaceOnUse" x="64" y="18" width="172" height="64">
<path d="M64.0569 18.2925H235.333V81.7071H64.0569V18.2925Z" fill="white"/>
</mask>
<g mask="url(#mask0_298_10829)">
<path d="M169.608 46.969L169.583 34.6053C169.568 33.6202 169.871 33.3856 170.805 33.4173L182.437 33.6139C188.386 34.2269 192.77 38.5327 193.596 44.4683C194.042 47.6687 193.74 50.7718 192.275 53.6656C189.893 58.3752 185.809 60.3664 180.721 60.5101C177.368 60.6053 174.009 60.4974 170.655 60.5482C169.778 60.563 169.583 60.2755 169.592 59.4511L169.608 46.9669V46.969ZM174.711 46.8316L174.69 54.4667C174.671 55.3334 174.946 55.568 175.781 55.53L179.903 55.5131C185.166 55.5131 188.066 53.0378 188.62 47.8103C189.068 43.57 186.809 38.909 181.382 38.3848C179.486 38.203 177.586 38.3784 175.69 38.277C174.855 38.2326 174.682 38.5539 174.694 39.3191L174.709 46.8337L174.711 46.8316ZM139.933 43.4178C142.511 40.3231 148.255 40.1731 150.58 44.4705C152.508 41.6548 155.22 40.8558 158.437 41.3378C161.94 41.862 164.142 44.0392 164.704 47.5778C164.861 48.5344 164.937 49.5023 164.933 50.4716L164.962 59.077C165.015 60.377 164.578 60.694 163.409 60.5503C162.725 60.4741 162.034 60.4734 161.35 60.5482C160.426 60.6412 160.096 60.3706 160.12 59.3708L160.145 50.1587C160.145 49.5521 160.113 48.956 159.94 48.362C159.555 47.0261 158.845 46.022 157.397 45.7514C156.702 45.5886 155.975 45.6303 155.303 45.8715C154.631 46.1126 154.044 46.543 153.611 47.1106C152.814 48.0914 152.537 49.254 152.539 50.5054L152.561 59.4744C152.575 60.3283 152.33 60.6158 151.476 60.5503C150.552 60.4784 149.614 60.4848 148.688 60.5503C147.914 60.6031 147.737 60.3072 147.745 59.5822L147.76 50.3701C147.754 47.4721 146.225 45.5443 143.942 45.5401C141.641 45.5358 139.954 47.5355 139.924 50.3892L139.937 59.4807C139.952 60.3389 139.698 60.6179 138.85 60.5524C137.927 60.4827 136.988 60.4869 136.062 60.5524C135.284 60.6074 135.119 60.3009 135.124 59.58L135.117 42.3672C135.111 41.5196 135.409 41.3314 136.159 41.397C136.804 41.4629 137.453 41.4621 138.098 41.3948C139.224 41.2553 139.895 41.5449 139.77 42.8301C139.755 42.9739 139.846 43.1282 139.93 43.4241L139.933 43.422V43.4178ZM215.975 51.0888C215.952 56.9357 211.847 60.9921 206.002 60.9435C200.157 60.8948 196.183 56.8194 196.228 50.9113C196.272 45.094 200.308 41.0968 206.11 41.1201C211.938 41.1433 215.996 45.2462 215.973 51.0909L215.975 51.0888ZM211.187 51.0677C211.213 47.9118 209 45.4534 206.099 45.4174C203.163 45.3815 200.954 47.7448 200.925 50.9535C200.895 54.1623 203.036 56.5256 206.015 56.5531C209.05 56.5827 211.162 54.3441 211.187 51.0677ZM218.068 51.0106C218.125 46.9986 219.474 43.6672 223.261 41.974C227.022 40.2935 230.787 40.3295 234.245 42.9823C234.949 43.5235 235.145 43.9505 234.338 44.5148C234.272 44.5592 234.226 44.6311 234.171 44.6903C233.562 45.3371 233.057 46.1594 232.321 46.5864C231.463 47.0853 230.905 45.9882 230.138 45.7366C227.686 44.9313 225.062 45.707 223.712 47.7849C222.274 49.9939 222.575 53.3358 224.365 55.067C226.102 56.7475 229.362 57.0435 231.446 55.568C232.216 55.0227 232.617 55.0776 233.182 55.7392C233.712 56.3497 234.296 56.9107 234.928 57.4155C235.575 57.9397 235.382 58.2568 234.83 58.6965C231.267 61.5459 227.333 61.7805 223.323 60.0282C219.463 58.3414 218.114 54.9761 218.064 51.0106H218.068Z" fill="#414042"/>
<path d="M123.25 54.5914C124.571 58.4009 125.565 62.3157 126.222 66.2935C127.011 71.0517 127.395 75.8311 126.871 80.6548C126.799 81.3186 126.677 81.6504 125.893 81.6631C112.33 81.8576 99.5565 79.1604 88.163 71.4111C84.5652 68.9654 81.3586 66.0821 78.6486 62.6599C78.4046 62.3977 78.2455 62.0678 78.1923 61.7136C78.1391 61.3593 78.1943 60.9973 78.3506 60.675C79.1623 58.6204 80.3926 56.8342 81.7306 55.1008C82.1618 54.5428 82.4134 54.5322 82.8911 55.0713C85.7152 58.2526 88.7781 61.1823 92.2067 63.7168C98.3093 68.2319 105.004 71.3878 112.556 72.5758C114.235 72.828 115.93 72.9601 117.628 72.9711C118.471 72.9838 118.655 72.6223 118.68 71.9142C118.771 69.3776 118.241 66.9256 117.575 64.5158C117.279 63.442 117.41 62.8057 118.291 62.0469C119.896 60.6665 120.94 58.8043 121.978 56.9716C122.373 56.2719 122.737 55.5532 123.25 54.5914ZM67.8597 45.3604C66.8218 42.4771 66.1073 39.7186 65.5176 36.9304C64.3317 31.3373 63.7758 25.6891 64.1965 19.9607C64.2831 18.8235 64.5283 18.2971 65.8579 18.2929C78.989 18.2548 91.3717 20.9077 102.459 28.2976C106.171 30.7585 109.493 33.7626 112.313 37.2095C112.952 37.9895 113.098 38.6786 112.69 39.6213C111.88 41.4942 110.751 43.1493 109.538 44.7727C108.988 45.5062 108.692 45.5739 108.048 44.834C104.224 40.4542 99.8883 36.6535 94.9082 33.6265C88.4504 29.7012 81.5488 27.19 73.8926 27.0314C72.7574 27.0082 72.4002 27.3802 72.4213 28.4604C72.4699 31.0287 73.0174 33.5061 73.6727 35.9644C73.8566 36.6599 73.8059 37.0974 73.2034 37.6069C71.1298 39.3635 69.8298 41.7056 68.5657 44.0604L67.8597 45.3561V45.3604Z" fill="#4ABE82"/>
<path d="M91.0462 77.4143C86.1717 79.1646 81.3141 80.4265 76.3128 81.1347C72.787 81.6357 69.2506 81.8217 65.6888 81.642C64.6699 81.5913 64.2683 81.3947 64.2323 80.2278C63.9618 71.3561 64.9045 62.6662 67.9273 54.2743C70.7471 46.4426 75.0002 39.5389 81.1873 33.8675C82.4535 32.707 83.5632 32.3519 85.1254 33.1932C86.6185 33.9934 88.0646 34.8784 89.4566 35.8439C90.2112 36.3682 90.1245 36.6937 89.501 37.2687C85.5291 40.9277 82.0624 45.0179 79.2616 49.643C75.2644 56.2423 72.7426 63.313 72.6158 71.1109C72.5777 73.4192 72.6432 73.4446 74.9684 73.3009C77.2831 73.1571 79.4941 72.5145 81.7158 71.929C82.1998 71.8022 82.6078 71.6542 83.0242 72.1256C85.0514 74.4191 87.7275 75.7635 90.4036 77.1015L91.0462 77.4143ZM100.404 22.3747C105.332 20.6705 110.431 19.5095 115.611 18.9122C118.866 18.536 122.13 18.4155 125.404 18.6565C127.222 18.7896 127.218 18.7474 127.228 20.5145C127.275 29.9717 125.922 39.1753 122.187 47.9308C119.118 55.1262 114.833 61.4571 108.783 66.5261C107.866 67.2955 107.052 67.4963 105.955 66.9869C104.258 66.1984 102.733 65.1584 101.209 64.0888C100.29 63.4441 100.476 63.0488 101.212 62.3978C106.371 57.8298 110.662 52.5558 113.835 46.4257C116.782 40.729 118.591 34.7152 118.676 28.2384C118.691 27.08 118.247 26.7672 117.192 26.7799C114.539 26.8095 112 27.469 109.451 28.0778C109.064 28.1687 108.713 28.3906 108.363 27.9573C106.295 25.408 103.393 24.0298 100.404 22.3768V22.3747Z" fill="#9E9F9E"/>
<path d="M90.4817 50.3064V50.1859C90.4817 48.3088 90.4859 48.2242 92.3989 48.3384C93.6313 48.4103 93.9801 48.0509 93.9103 46.8228C93.7983 44.8612 93.8807 44.8569 95.817 44.8569C97.9815 44.8569 98.0365 44.859 97.9752 47.0595C97.9456 48.089 98.2817 48.3574 99.2752 48.3299C101.486 48.2729 101.486 48.3215 101.486 50.522C101.486 52.4582 101.482 52.547 99.4866 52.4286C98.2056 52.3525 97.916 52.7943 97.9752 53.9844C98.0703 55.908 97.9984 55.9101 96.0262 55.9101C93.8828 55.9101 93.83 55.908 93.9019 53.7899C93.9357 52.7795 93.7475 52.3737 92.6082 52.4286C90.4838 52.5322 90.4817 52.454 90.4817 50.3064Z" fill="#F26522"/>
</g>
</svg>
