<svg width="300" height="100" viewBox="0 0 300 100" fill="none" xmlns="http://www.w3.org/2000/svg">
<rect width="300" height="100" fill="white"/>
<g clip-path="url(#clip0_298_10813)">
<path d="M113.364 42.917H105.871C104.273 42.917 102.977 44.2726 102.977 45.9451V53.8499C102.977 55.522 104.273 56.878 105.871 56.878H113.309C115.172 51.2698 114.406 46.2546 113.364 42.917Z" fill="#288A3F"/>
<path d="M137.225 42.9165H134.136C123.934 47.7033 120.776 53.0715 117.715 58.2784C116.833 59.7794 115.935 61.3011 114.875 62.8029V66.296C114.875 67.9681 116.17 69.3234 117.769 69.3234H125.326C126.925 69.3234 128.22 67.9681 128.22 66.296V56.8775H137.225C138.823 56.8775 140.119 55.5215 140.119 53.8494V45.9446C140.119 44.2721 138.823 42.9165 137.225 42.9165Z" fill="#288A3F"/>
<path d="M112.645 37.916C112.645 37.916 122.327 53.1069 107.804 68.0865C119.301 59.8584 115.267 48.8874 136.849 40.2369C123.94 41.9247 117.889 41.0804 112.645 37.916Z" fill="#33869D"/>
<path d="M122.649 38.2246C120.955 38.2246 119.583 36.7892 119.583 35.0178C119.583 33.2471 120.955 31.8114 122.649 31.8114C124.342 31.8114 125.714 33.2471 125.714 35.0178C125.714 36.7892 124.342 38.2246 122.649 38.2246ZM125.326 30.4702H117.769C116.17 30.4702 114.875 31.8259 114.875 33.4979V37.5635C117.928 39.0503 121.327 39.701 125.874 39.701C126.617 39.701 127.399 39.6832 128.22 39.6477V33.4979C128.22 31.8259 126.925 30.4702 125.326 30.4702Z" fill="#288A3F"/>
<path d="M154.959 47.7421L152.078 51.5836H151.748L148.93 47.7293V54.1621H147.262V45.3154H149.184L151.95 49.1189L154.719 45.3154H156.627V54.1621H154.959V47.7421Z" fill="#33869D"/>
<path d="M163.969 54.1495H157.346C157.346 51.2035 157.346 48.2467 157.346 45.3027H163.969V46.9198H159.002V48.9552H163.792V50.5095H159.002V52.5064H163.969V54.1495Z" fill="#33869D"/>
<path d="M166.201 52.5449H168.02C170.03 52.5449 170.825 51.0786 170.788 49.6377C170.75 48.2609 169.942 46.8829 168.02 46.8829H166.201V52.5449ZM172.442 49.6492C172.482 51.8876 171.117 54.1495 168.02 54.1495C166.933 54.1495 165.632 54.1495 164.546 54.1495V45.3027C165.632 45.3027 166.933 45.3027 168.02 45.3027C171.054 45.3027 172.405 47.4633 172.442 49.6492Z" fill="#33869D"/>
<path d="M178.037 47.4394C177.736 46.9342 176.901 46.4536 175.941 46.4536C174.701 46.4536 174.109 46.9715 174.109 47.6298C174.109 48.3994 175.019 48.6141 176.081 48.7423C177.924 48.9681 179.644 49.4491 179.644 51.5597C179.644 53.5314 177.899 54.3773 175.929 54.3773C174.121 54.3773 172.731 53.8214 172.074 52.2041L173.463 51.4827C173.856 52.4569 174.879 52.8854 175.954 52.8854C177.002 52.8854 177.988 52.5199 177.988 51.5597C177.988 50.7249 177.116 50.3836 175.941 50.2581C174.134 50.0422 172.465 49.5614 172.465 47.5791C172.465 45.7585 174.26 45.0131 175.89 45C177.266 45 178.694 45.3925 179.366 46.7583L178.037 47.4394Z" fill="#33869D"/>
<path d="M184.014 47.1599L182.373 50.9262H185.658L184.014 47.1599ZM186.327 52.4808H181.702L180.945 54.1495H179.137L183.105 45.3027H184.925L188.892 54.1495H187.073L186.327 52.4808Z" fill="#33869D"/>
<path d="M189.083 54.1497V45.3154H195.439V46.92H190.75V49.3345H195.186V50.8751H190.75V54.1497H189.083Z" fill="#33869D"/>
</g>
<defs>
<clipPath id="clip0_298_10813">
<rect width="92.8571" height="40" fill="white" transform="translate(102.977 30)"/>
</clipPath>
</defs>
</svg>
