<svg width="300" height="100" viewBox="0 0 300 100" fill="none" xmlns="http://www.w3.org/2000/svg">
<rect width="300" height="100" fill="white"/>
<g clip-path="url(#clip0_298_10796)">
<path d="M149.669 56.3969C149.106 56.4019 148.541 56.43 147.98 56.3969C147.836 56.3882 147.651 56.2217 147.563 56.0796C145.226 52.3 142.894 48.5165 140.569 44.7291C140.497 44.613 140.42 44.5006 140.276 44.2799V44.8315C140.276 49.4944 140.271 54.1581 140.285 58.8195C140.285 59.2284 140.172 59.3358 139.77 59.3322C137.558 59.3135 135.346 59.3235 133.136 59.3235H132.688V30.015H133.128C135.1 30.015 137.072 30.0222 139.044 30.0078C139.351 30.0078 139.519 30.1008 139.678 30.3626C142.94 35.7189 146.208 41.0721 149.483 46.4221C149.571 46.5663 149.667 46.7033 149.76 46.8439L149.669 56.3969Z" fill="#285A8D"/>
<path d="M149.669 56.3971L149.76 46.8419C150.88 44.9723 152.004 43.1055 153.119 41.2323C155.27 37.6166 157.416 33.9979 159.557 30.3764C159.722 30.0974 159.898 29.9972 160.222 30.0001C162.18 30.0166 164.138 30.008 166.096 30.008H166.616V59.261H159.038V43.9585L158.913 43.9218C158.837 44.0422 158.758 44.1604 158.685 44.2823C156.35 48.1984 154.019 52.1161 151.691 56.0351C151.525 56.3156 151.348 56.4302 151.022 56.4086C150.57 56.3783 150.12 56.3985 149.669 56.3971Z" fill="#3C87D0"/>
<path d="M138.164 64.4389V69.9187H136.995V66.7851L136.907 66.7563L135.609 68.9352C135.243 69.5503 134.901 69.551 134.528 68.9352C134.102 68.2351 133.675 67.535 133.19 66.7411V69.905H132.001V64.4389C132.304 64.4389 132.599 64.4115 132.885 64.4519C133.002 64.4684 133.128 64.6119 133.2 64.7287C133.824 65.7461 134.438 66.77 135.089 67.8501L135.733 66.7649C136.114 66.1254 136.514 65.4959 136.866 64.8405C137.034 64.5254 137.226 64.3783 137.587 64.4331C137.761 64.4612 137.945 64.4389 138.164 64.4389Z" fill="#030303"/>
<path d="M152.365 65.7197H153.536V67.4343C153.536 67.6312 153.536 67.8287 153.543 68.0249C153.572 68.6255 153.839 68.9125 154.374 68.9269C154.899 68.9413 155.294 68.6139 155.325 68.0616C155.362 67.3882 155.344 66.7119 155.35 66.0363V65.7277H156.567V69.9096H155.432L155.4 69.4951C154.883 69.9125 154.323 70.0877 153.681 69.9608C152.96 69.8166 152.438 69.397 152.383 68.663C152.308 67.7011 152.365 66.7299 152.365 65.7197Z" fill="#070707"/>
<path d="M143.503 68.1628H140.403C140.515 69.041 141.549 69.2631 142.626 68.6365L143.219 69.2797C142.707 69.9423 141.689 70.1723 140.643 69.8659C139.51 69.5342 138.882 68.4469 139.163 67.3033C139.458 66.0999 140.616 65.4286 141.913 65.712C143.014 65.9507 143.703 66.9882 143.503 68.1628ZM142.361 67.4547C142.229 66.844 141.801 66.5174 141.256 66.5816C140.711 66.6457 140.391 66.9673 140.399 67.4547H142.361Z" fill="#060606"/>
<path d="M167.572 68.16H164.468C164.535 69.0295 165.681 69.2826 166.657 68.6279L167.276 69.2768C166.878 69.9633 165.452 70.2005 164.477 69.7909C163.376 69.3288 162.877 68.1744 163.288 67.033C163.664 65.9846 164.902 65.4092 166.076 65.7351C167.114 66.0286 167.663 66.8996 167.572 68.16ZM166.39 67.4389C166.318 66.891 165.919 66.5528 165.387 66.5687C164.837 66.5845 164.471 66.9205 164.427 67.4389H166.39Z" fill="#050505"/>
<path d="M151.592 66.7278L150.719 67.2066C149.932 66.5418 149.325 66.4856 148.868 67.0343C148.469 67.5138 148.539 68.3675 149.013 68.7518C149.523 69.1678 150.148 69.0525 150.68 68.4237L151.579 68.9133C151.209 69.7648 150.272 70.152 149.148 69.9393C148.104 69.7418 147.395 68.9248 147.37 67.8909C147.344 66.8173 148 65.9729 149.055 65.7227C150.177 65.4574 151.165 65.8417 151.592 66.7278Z" fill="#060606"/>
<path d="M157.744 69.9197V65.7327H158.868L158.923 66.0853L160.344 65.5488V66.7119C160.314 66.7313 160.293 66.7573 160.272 66.7587C159.253 66.8142 158.969 67.1135 158.967 68.1388V69.919L157.744 69.9197Z" fill="#0A0A0A"/>
<path d="M145.594 69.9198H144.369V65.7269H145.522V66.112L146.941 65.5352V66.7407C146.897 66.7526 146.851 66.7608 146.805 66.7652C145.94 66.7991 145.608 67.1258 145.594 67.9787C145.586 68.6104 145.594 69.2427 145.594 69.9198Z" fill="#070707"/>
<path d="M162.305 69.9194H161.104V65.7295H162.305V69.9194Z" fill="#090909"/>
<path d="M161.704 63.7603C162.147 63.7603 162.46 64.0328 162.456 64.425C162.453 64.8173 162.135 65.1144 161.714 65.1172C161.292 65.1201 160.959 64.8245 160.956 64.4402C160.952 64.0559 161.268 63.7639 161.704 63.7603Z" fill="#070707"/>
<path d="M142.363 67.4548H140.403C140.391 66.9681 140.709 66.648 141.259 66.5816C141.81 66.5153 142.231 66.8448 142.363 67.4548Z" fill="#ECECEC"/>
<path d="M166.39 67.4426H164.426C164.471 66.9235 164.837 66.5882 165.386 66.5723C165.918 66.5565 166.316 66.8939 166.39 67.4426Z" fill="#EDEDED"/>
</g>
<defs>
<clipPath id="clip0_298_10796">
<rect width="35.5815" height="40" fill="white" transform="translate(132 30)"/>
</clipPath>
</defs>
</svg>
