<svg width="300" height="100" viewBox="0 0 300 100" fill="none" xmlns="http://www.w3.org/2000/svg">
<rect width="300" height="100" fill="white"/>
<mask id="mask0_298_10773" style="mask-type:luminance" maskUnits="userSpaceOnUse" x="60" y="47" width="25" height="22">
<path d="M64.4624 47.0245L60.9688 51.0225L80.9856 68.4669L84.4792 64.4689L64.4624 47.0245Z" fill="white"/>
</mask>
<g mask="url(#mask0_298_10773)">
<path d="M70.9772 59.7445C65.4497 54.9275 64.8791 46.5475 69.7028 41.0274C74.5265 35.5074 82.9178 34.9376 88.4453 39.7547C93.9728 44.5719 94.5433 52.9518 89.7197 58.4718C84.896 63.9919 76.5047 64.5617 70.9772 59.7445Z" fill="#A5A6F6"/>
</g>
<mask id="mask1_298_10773" style="mask-type:luminance" maskUnits="userSpaceOnUse" x="74" y="31" width="25" height="22">
<path d="M77.9997 31.5328L74.5061 35.5308L94.523 52.9752L98.0166 48.9772L77.9997 31.5328Z" fill="white"/>
</mask>
<g mask="url(#mask1_298_10773)">
<path d="M70.5401 60.2445C65.0125 55.4274 64.442 47.0474 69.2656 41.5274C74.0893 36.0074 82.4806 35.4376 88.0082 40.2547C93.5357 45.0719 94.1063 53.4518 89.2825 58.9718C84.4589 64.4919 76.0676 65.0617 70.5401 60.2445Z" fill="#A5A6F6"/>
</g>
<mask id="mask2_298_10773" style="mask-type:luminance" maskUnits="userSpaceOnUse" x="70" y="37" width="24" height="21">
<path d="M73.1967 37.0301L70.1398 40.5283L90.1566 57.9727L93.2136 54.4745L73.1967 37.0301Z" fill="white"/>
</mask>
<g mask="url(#mask2_298_10773)">
<path d="M70.1046 60.744C64.5771 55.927 64.0065 47.547 68.8302 42.027C73.6539 36.5069 82.0452 35.9371 87.5728 40.7543C93.1003 45.5714 93.6709 53.9513 88.8471 59.4714C84.0235 64.9914 75.6322 65.5612 70.1046 60.744Z" fill="#A5A6F6"/>
</g>
<mask id="mask3_298_10773" style="mask-type:luminance" maskUnits="userSpaceOnUse" x="65" y="42" width="24" height="21">
<path d="M65.7732 45.526L68.8301 42.0278L88.847 59.4722L85.79 62.9705L65.7732 45.526Z" fill="white"/>
</mask>
<g mask="url(#mask3_298_10773)">
<path d="M88.8821 39.2567C83.3546 34.4395 74.9633 35.0093 70.1397 40.5294C65.316 46.0494 65.8866 54.4294 71.4141 59.2465C76.9416 64.0636 85.3329 63.4939 90.1566 57.9738C94.9803 52.4538 94.4097 44.0739 88.8821 39.2567Z" fill="#A5A6F6"/>
</g>
<path d="M120.596 42.1177C117.994 42.1177 116.347 43.4024 115.095 45.0166H115.029C114.337 43.2048 112.921 42.1177 110.549 42.1177C108.013 42.1177 106.431 43.4354 105.542 44.753H105.476V42.5789H102.017V59.4119H105.476V49.1672C105.476 46.6636 106.958 45.0495 109.264 45.0495C111.669 45.0495 112.13 46.4989 112.13 48.7719V59.4119H115.622V49.1672C115.622 46.6636 117.071 45.0495 119.41 45.0495C121.782 45.0495 122.243 46.4989 122.243 48.7719V59.4119H125.735V47.7836C125.735 44.1601 123.989 42.1177 120.596 42.1177ZM136.387 57.073C133.324 57.073 131.512 54.7342 131.512 51.9013H144.425C144.425 45.906 141.757 42.1177 136.322 42.1177C131.249 42.1177 128.053 45.5436 128.053 51.0119C128.053 56.2825 131.249 59.906 136.486 59.906C140.802 59.906 143.305 57.4683 144.162 54.273H140.703C140.406 55.2942 139.253 57.073 136.387 57.073ZM136.322 44.8519C139.122 44.8519 140.966 46.7295 140.966 49.3319H131.512C131.512 46.7295 133.522 44.8519 136.322 44.8519ZM154.513 45.4119V42.5789H151.35V37.2754H147.859V42.5789H145.421V45.4119H147.859V54.833C147.859 58.3907 149.374 59.6424 152.141 59.6424C153.063 59.6424 153.821 59.5436 154.513 59.3789V56.546C152.273 56.6777 151.35 56.4472 151.35 54.5366V45.4119H154.513ZM167.302 46.993C167.302 48.6072 165.721 48.9366 163.118 49.4307C158.902 50.2542 156.168 51.4072 156.168 55.0966C156.168 57.9295 158.276 59.906 161.702 59.906C164.304 59.906 166.215 58.8848 167.269 57.4025H167.335C167.664 59.0495 168.521 59.7083 170.365 59.7083C171.024 59.7083 171.584 59.6425 172.375 59.346V57.6989C171.024 57.8307 170.761 57.2048 170.761 56.0189V48.0142C170.761 43.5342 167.994 42.1177 164.271 42.1177C159.198 42.1177 157.123 44.6542 156.958 47.8825H160.318C160.483 45.7083 161.504 44.8519 164.271 44.8519C166.577 44.8519 167.302 45.7742 167.302 46.993ZM162.459 57.1719C160.582 57.1719 159.659 56.3154 159.659 54.7672C159.659 53.0542 160.911 52.2307 163.777 51.6048C165.391 51.2754 166.742 50.8801 167.302 50.4848V53.0213C167.302 55.7554 165.325 57.1719 162.459 57.1719ZM185.993 48.7389H189.452C189.024 44.9177 186.158 42.1177 181.777 42.1177C176.769 42.1177 173.508 45.7413 173.508 51.0119C173.508 56.2825 176.769 59.906 181.81 59.906C186.191 59.906 189.189 57.0401 189.452 53.153H185.993C185.862 55.0307 184.775 57.073 181.81 57.073C178.384 57.073 176.967 54.1742 176.967 51.0119C176.967 47.8495 178.416 44.9507 181.81 44.9507C184.775 44.9507 185.862 47.026 185.993 48.7389ZM202.237 46.993C202.237 48.6072 200.656 48.9366 198.053 49.4307C193.837 50.2542 191.103 51.4072 191.103 55.0966C191.103 57.9295 193.211 59.906 196.637 59.906C199.239 59.906 201.15 58.8848 202.204 57.4025H202.27C202.599 59.0495 203.456 59.7083 205.301 59.7083C205.959 59.7083 206.519 59.6425 207.31 59.346V57.6989C205.959 57.8307 205.696 57.2048 205.696 56.0189V48.0142C205.696 43.5342 202.929 42.1177 199.206 42.1177C194.133 42.1177 192.058 44.6542 191.893 47.8825H195.253C195.418 45.7083 196.439 44.8519 199.206 44.8519C201.512 44.8519 202.237 45.7742 202.237 46.993ZM197.395 57.1719C195.517 57.1719 194.595 56.3154 194.595 54.7672C194.595 53.0542 195.846 52.2307 198.712 51.6048C200.326 51.2754 201.677 50.8801 202.237 50.4848V53.0213C202.237 55.7554 200.261 57.1719 197.395 57.1719ZM217.338 42.1836C215.131 42.1836 213.748 43.633 212.858 45.7413H212.792V42.5789H209.333V59.4119H212.792V50.8142C212.792 47.2236 215.461 44.9836 218.788 45.5436H218.853V42.2824C218.359 42.2166 217.931 42.1836 217.338 42.1836ZM227.973 57.073C224.91 57.073 223.098 54.7342 223.098 51.9013H236.011C236.011 45.906 233.343 42.1177 227.908 42.1177C222.835 42.1177 219.639 45.5436 219.639 51.0119C219.639 56.2825 222.835 59.906 228.072 59.906C232.388 59.906 234.891 57.4683 235.748 54.273H232.289C231.992 55.2942 230.839 57.073 227.973 57.073ZM227.908 44.8519C230.708 44.8519 232.552 46.7295 232.552 49.3319H223.098C223.098 46.7295 225.108 44.8519 227.908 44.8519Z" fill="black"/>
</svg>
