<svg width="300" height="100" viewBox="0 0 300 100" fill="none" xmlns="http://www.w3.org/2000/svg">
<rect width="300" height="100" fill="white"/>
<g clip-path="url(#clip0_311_358)">
<path d="M56.3491 40.79H48.3731C47.9912 40.79 47.6249 40.6383 47.3549 40.3682C47.0848 40.0982 46.9331 39.7319 46.9331 39.35V31.472C46.9331 31.0901 47.0848 30.7238 47.3549 30.4538C47.6249 30.1837 47.9912 30.032 48.3731 30.032H51.5011C52.3265 30.0317 53.1439 30.1941 53.9065 30.5098C54.6692 30.8254 55.3621 31.2883 55.9459 31.8718C56.5296 32.4554 56.9927 33.1482 57.3086 33.9108C57.6245 34.6733 57.7871 35.4906 57.7871 36.316V39.35C57.7871 39.7319 57.6354 40.0982 57.3654 40.3682C57.0953 40.6383 56.731 40.79 56.3491 40.79ZM17.9711 63.462V45.876C17.9711 45.4941 18.1228 45.1278 18.3929 44.8578C18.6629 44.5877 19.0292 44.436 19.4111 44.436H27.3411C27.723 44.436 28.0893 44.5877 28.3594 44.8578C28.6294 45.1278 28.7811 45.4941 28.7811 45.876V68.308C28.7811 68.6899 28.6294 69.0562 28.3594 69.3262C28.0893 69.5963 27.723 69.748 27.3411 69.748H24.2571C23.4316 69.748 22.6142 69.5854 21.8516 69.2695C21.0889 68.9536 20.396 68.4906 19.8123 67.9069C18.6334 66.728 17.9711 65.1292 17.9711 63.462ZM32.4491 63.462V45.876C32.4491 45.4941 32.6008 45.1278 32.8709 44.8578C33.1409 44.5877 33.5072 44.436 33.8891 44.436H41.8191C42.0082 44.436 42.1955 44.4732 42.3702 44.5456C42.5449 44.618 42.7036 44.724 42.8374 44.8578C42.9711 44.9915 43.0771 45.1502 43.1495 45.3249C43.2219 45.4996 43.2591 45.6869 43.2591 45.876V68.308C43.2591 68.4971 43.2219 68.6844 43.1495 68.8591C43.0771 69.0338 42.9711 69.1925 42.8374 69.3262C42.7036 69.4599 42.5449 69.566 42.3702 69.6384C42.1955 69.7108 42.0082 69.748 41.8191 69.748H38.7351C37.068 69.748 35.4691 69.0857 34.2903 67.9069C33.1114 66.728 32.4491 65.1292 32.4491 63.462ZM46.9291 63.462V45.876C46.9291 45.4941 47.0808 45.1278 47.3509 44.8578C47.6209 44.5877 47.9872 44.436 48.3691 44.436H56.2991C56.681 44.436 57.0473 44.5877 57.3174 44.8578C57.5874 45.1278 57.7391 45.4941 57.7391 45.876V68.308C57.7391 68.6899 57.5874 69.0562 57.3174 69.3262C57.0473 69.5963 56.681 69.748 56.2991 69.748H53.2131C51.546 69.748 49.9471 69.0857 48.7683 67.9069C47.5894 66.728 46.9291 65.1292 46.9291 63.462ZM37.1071 30.016L19.3971 30C19.0152 30 18.6489 30.1517 18.3789 30.4218C18.1088 30.6918 17.9571 31.0581 17.9571 31.44L17.9531 34.6C17.9523 35.4086 18.1109 36.2094 18.4196 36.9567C18.7284 37.704 19.1813 38.3832 19.7526 38.9554C20.3239 39.5276 21.0024 39.9817 21.7492 40.2917C22.496 40.6017 23.2965 40.7615 24.1051 40.762L41.8131 40.782C42.0027 40.7825 42.1906 40.7456 42.3659 40.6733C42.5412 40.6011 42.7005 40.4949 42.8347 40.3609C42.9688 40.227 43.0752 40.0678 43.1477 39.8926C43.2202 39.7174 43.2574 39.5296 43.2571 39.34V36.18C43.2584 35.3712 43.1003 34.57 42.7917 33.8224C42.4832 33.0747 42.0303 32.3952 41.4589 31.8227C40.8875 31.2502 40.2089 30.796 39.4619 30.486C38.7148 30.176 37.916 30.0163 37.1071 30.016ZM76.5131 54.876C76.5131 51.564 78.7691 49.884 80.9771 49.884C83.7631 49.884 84.8171 51.9 84.8171 54.734V69.472H91.5391V54.876C91.5391 51.564 93.7971 49.884 96.0051 49.884C98.7891 49.884 99.8451 51.9 99.8451 54.734V69.472H106.565V52.812C106.565 47.34 103.205 43.738 98.0211 43.738C94.1331 43.738 91.7311 45.612 90.1951 47.196C88.8031 45.036 86.4511 43.738 83.3771 43.738C80.1131 43.738 77.8571 45.178 76.5131 46.812V44.218H69.7931V69.472H76.5131V54.876ZM116.933 69.904C120.245 69.904 122.789 68.896 124.421 67.12C125.525 69.232 128.119 70.096 132.391 69.472V64.432C130.903 64.622 130.327 64.192 130.327 62.846V52.526C130.327 46.666 126.487 43.738 120.101 43.738C114.101 43.738 110.259 47.196 109.107 51.468L115.493 52.668C116.067 50.412 117.365 49.308 119.861 49.308C122.645 49.308 123.749 50.652 123.749 52.812V53.196L117.461 54.396C112.371 55.31 108.339 57.422 108.339 62.462C108.339 66.928 111.987 69.904 116.933 69.904ZM123.749 60.494C123.749 63.326 121.109 64.814 118.277 64.814C116.261 64.814 114.963 63.806 114.963 62.078C114.963 60.062 116.597 59.342 118.803 58.91L123.749 57.902V60.494ZM134.165 41.242H141.031V35.002H134.165V41.242ZM140.983 44.218H134.261V69.472H140.981L140.983 44.218ZM144.577 69.472H151.297V54.876C151.297 51.564 153.603 49.884 155.957 49.884C158.837 49.884 159.989 51.9 159.989 54.734V69.472H166.709V52.812C166.709 47.34 163.493 43.738 158.213 43.738C154.995 43.738 152.693 45.178 151.299 46.812V44.218H144.579L144.577 69.472ZM167.681 65.2C169.987 68.32 174.787 70 179.349 70C185.397 70 190.295 66.736 190.295 61.454C190.295 55.742 185.061 54.734 180.645 53.82C177.525 53.196 175.845 52.908 175.845 51.276C175.845 49.884 177.235 48.972 179.349 48.972C181.989 48.972 184.437 50.172 186.117 52.332L189.957 48.108C187.989 45.564 184.005 43.738 179.541 43.738C173.491 43.738 169.217 47.098 169.217 51.948C169.217 57.374 173.731 58.428 177.811 59.246C181.845 60.014 183.717 60.254 183.717 62.174C183.717 63.998 181.749 64.768 179.493 64.768C176.659 64.768 173.587 63.278 171.859 60.928L167.681 65.2Z" fill="#131316"/>
<path d="M192.933 62.894C192.933 68.08 195.623 69.76 200.713 69.76C202.393 69.76 203.833 69.616 205.033 69.376V63.806C204.269 63.9048 203.499 63.9529 202.729 63.95C200.761 63.95 199.561 63.662 199.561 61.502V49.836H204.697V44.218H199.561V37.018H192.933V44.218H189.573V49.836H192.933V62.894ZM213.993 69.904C217.305 69.904 219.849 68.896 221.481 67.12C222.585 69.232 225.179 70.096 229.451 69.472V64.432C227.963 64.622 227.387 64.192 227.387 62.846V52.526C227.387 46.666 223.547 43.738 217.161 43.738C211.161 43.738 207.319 47.196 206.167 51.468L212.551 52.668C213.127 50.412 214.425 49.308 216.921 49.308C219.705 49.308 220.809 50.652 220.809 52.812V53.196L214.521 54.396C209.431 55.31 205.399 57.422 205.399 62.462C205.399 66.928 209.047 69.904 213.993 69.904ZM220.809 60.494C220.809 63.326 218.169 64.814 215.337 64.814C213.321 64.814 212.023 63.806 212.023 62.078C212.023 60.062 213.657 59.342 215.863 58.91L220.809 57.902V60.494ZM236.459 56.846C236.459 52.14 238.811 49.356 242.365 49.356C245.149 49.356 246.829 51.276 247.453 53.868L253.167 51.18C251.967 47.1 248.125 43.74 242.317 43.74C234.971 43.74 229.785 49.068 229.785 56.846C229.785 64.67 234.971 70 242.317 70C248.173 70 252.111 66.544 253.263 62.414L247.453 59.822C246.829 62.414 245.149 64.334 242.365 64.334C238.811 64.334 236.459 61.598 236.459 56.846ZM261.299 35H254.577V69.472H261.299V61.74L264.275 58.668L271.237 69.468H278.919L268.933 53.818L278.199 44.218H270.133L261.299 54.01V35Z" fill="#131316"/>
</g>
<defs>
<clipPath id="clip0_311_358">
<rect width="262" height="40" fill="white" transform="translate(17.9531 30)"/>
</clipPath>
</defs>
</svg>
