<svg width="300" height="100" viewBox="0 0 300 100" fill="none" xmlns="http://www.w3.org/2000/svg">
<rect width="300" height="100" fill="white"/>
<g clip-path="url(#clip0_298_10759)">
<path d="M147.405 41.4414H140.703V60.4389H147.405V41.4414Z" fill="#000064"/>
<path d="M165.31 43.4404C164.606 42.6338 163.734 41.9906 162.756 41.5556C161.778 41.1206 160.716 40.9044 159.645 40.9219C158.355 40.9086 157.077 41.1673 155.893 41.6813C154.71 42.1952 153.648 42.9527 152.776 43.9046C151.908 44.8563 151.224 45.961 150.759 47.1626C150.256 48.4541 150.004 49.8298 150.017 51.2158C149.999 52.5499 150.232 53.8755 150.703 55.1236C151.125 56.2463 151.776 57.269 152.614 58.1266C153.453 58.9842 154.461 59.658 155.573 60.1051C156.761 60.5826 158.031 60.8213 159.311 60.8074C159.882 60.8111 160.452 60.7676 161.016 60.6775C161.525 60.5936 162.022 60.4503 162.498 60.2505C162.985 60.0453 163.451 59.7913 163.887 59.4924C164.395 59.1443 164.872 58.7541 165.314 58.326V60.1422C165.314 61.5469 164.937 62.6453 164.184 63.4374C163.431 64.2294 162.352 64.6244 160.945 64.6224C159.295 64.6224 158.233 63.9922 157.761 62.7319H150.202C150.397 63.7599 150.8 64.7372 151.387 65.6032C152.002 66.4995 152.773 67.2773 153.664 67.899C154.654 68.5867 155.75 69.1092 156.907 69.446C159.433 70.1484 162.098 70.1857 164.642 69.5543C165.698 69.2866 166.713 68.8765 167.659 68.3353C168.504 67.8496 169.267 67.2335 169.921 66.5098C170.526 65.8472 170.998 65.074 171.31 64.2325C171.552 63.5098 171.726 62.7661 171.83 62.011C171.959 61.0657 172.021 60.1124 172.015 59.1583V41.4479H165.31V43.4404ZM165.292 52.5679C165.068 53.0827 164.754 53.5532 164.364 53.9572C163.975 54.3574 163.509 54.6733 162.993 54.8854C162.46 55.1087 161.888 55.2223 161.31 55.2195C160.719 55.2248 160.133 55.1112 159.586 54.8854C159.071 54.6725 158.605 54.3567 158.216 53.9572C157.83 53.5546 157.522 53.0834 157.309 52.5679C157.083 52.0228 156.97 51.4377 156.975 50.8476C156.972 50.2739 157.092 49.7061 157.328 49.183C157.55 48.6782 157.865 48.2196 158.256 47.8309C158.657 47.4458 159.12 47.1318 159.627 46.9027C160.151 46.6664 160.72 46.5461 161.294 46.55C161.86 46.5496 162.42 46.6633 162.94 46.8841C163.459 47.1005 163.931 47.4157 164.33 47.8124C164.72 48.2092 165.034 48.6737 165.258 49.183C165.493 49.7196 165.614 50.299 165.614 50.8848C165.614 51.4705 165.493 52.0499 165.258 52.5865L165.292 52.5679Z" fill="#000064"/>
<path d="M195.929 46.8284C195.372 45.5984 194.558 44.5022 193.541 43.6137C192.475 42.6879 191.243 41.9719 189.911 41.5036C188.456 40.9855 186.92 40.7278 185.375 40.7424C183.817 40.7259 182.268 40.99 180.802 41.5221C179.476 41.9972 178.252 42.7172 177.192 43.6447C176.191 44.5313 175.384 45.6152 174.822 46.8284C174.252 48.0651 173.962 49.4119 173.971 50.7734C173.952 52.2306 174.242 53.6753 174.822 55.0122C175.37 56.2555 176.171 57.3713 177.173 58.2888C178.21 59.2256 179.426 59.9433 180.747 60.399C182.198 60.9057 183.727 61.1569 185.264 61.1416C186.832 61.1559 188.39 60.9049 189.874 60.399C191.216 59.9516 192.456 59.2404 193.519 58.3074C194.529 57.4104 195.343 56.3137 195.908 55.0865C196.499 53.7907 196.796 52.3801 196.777 50.9559C196.796 49.535 196.507 48.1268 195.929 46.8284ZM189.357 52.605C189.132 53.1192 188.818 53.5895 188.429 53.9943C188.04 54.3938 187.574 54.7097 187.059 54.9225C185.98 55.3679 184.768 55.3679 183.689 54.9225C183.173 54.7104 182.707 54.3945 182.319 53.9943C181.929 53.5904 181.614 53.1198 181.39 52.605C181.15 52.0507 181.03 51.4517 181.038 50.8476C181.034 50.2739 181.154 49.7061 181.39 49.183C181.618 48.6756 181.932 48.2117 182.319 47.8124C182.708 47.4132 183.174 47.0973 183.689 46.8841C184.768 46.4387 185.98 46.4387 187.059 46.8841C187.573 47.0981 188.04 47.4138 188.429 47.8124C188.817 48.2176 189.132 48.6878 189.357 49.2016C189.593 49.7325 189.713 50.3072 189.71 50.8878C189.715 51.4797 189.595 52.066 189.357 52.6081V52.605Z" fill="#000064"/>
<path d="M127.452 40.6032C125.183 40.5713 122.972 41.3195 121.189 42.7226C121.056 42.8255 120.893 42.8813 120.725 42.8813C120.557 42.8813 120.394 42.8255 120.261 42.7226C118.475 41.3168 116.259 40.5684 113.986 40.6032C108.504 40.6837 104.172 45.2814 104.172 50.7517V60.4361H110.874V50.6465C110.866 49.8285 111.161 49.0367 111.703 48.4237C112.245 47.8106 112.994 47.4198 113.807 47.3266C114.663 47.2438 115.518 47.5041 116.182 48.0506C116.847 48.597 117.268 49.3848 117.353 50.2412C117.353 50.3443 117.353 50.4475 117.353 50.5506V60.4361H124.07V50.6465C124.061 49.8293 124.356 49.0379 124.896 48.4249C125.437 47.8118 126.185 47.4206 126.997 47.3266C127.853 47.2438 128.708 47.5047 129.372 48.0519C130.037 48.599 130.456 49.3876 130.539 50.2443C130.539 50.3474 130.539 50.4506 130.539 50.5537V60.4361H137.241V50.7517C137.254 45.2814 132.922 40.6837 127.452 40.6032Z" fill="#0000FF"/>
<path d="M111.483 30.0433L117.052 33.258C117.1 33.285 117.14 33.3241 117.167 33.3714C117.195 33.4187 117.209 33.4724 117.209 33.5272C117.209 33.5819 117.195 33.6357 117.167 33.6829C117.14 33.7302 117.1 33.7694 117.052 33.7964L111.483 37.0111C111.436 37.0391 111.382 37.054 111.327 37.0544C111.272 37.0547 111.218 37.0404 111.171 37.013C111.123 36.9856 111.084 36.9461 111.057 36.8985C111.029 36.8508 111.015 36.7968 111.016 36.7419V30.3094C111.016 30.2547 111.03 30.2011 111.058 30.1539C111.085 30.1067 111.125 30.0676 111.172 30.0405C111.22 30.0135 111.273 29.9995 111.328 30C111.383 30.0005 111.436 30.0154 111.483 30.0433Z" fill="#0000FF"/>
<path d="M124.781 30.0431L130.351 33.2578C130.398 33.2848 130.438 33.3239 130.466 33.3712C130.493 33.4185 130.508 33.4723 130.508 33.527C130.508 33.5817 130.493 33.6355 130.466 33.6828C130.438 33.7301 130.398 33.7692 130.351 33.7962L124.781 37.0109C124.734 37.0381 124.681 37.0524 124.626 37.0524C124.572 37.0523 124.519 37.0379 124.471 37.0106C124.424 36.9833 124.385 36.9441 124.358 36.8969C124.331 36.8496 124.317 36.7961 124.317 36.7417V30.3092C124.317 30.2548 124.331 30.2012 124.358 30.154C124.385 30.1068 124.424 30.0676 124.471 30.0403C124.519 30.013 124.572 29.9986 124.626 29.9985C124.681 29.9985 124.734 30.0128 124.781 30.04V30.0431Z" fill="#0000FF"/>
</g>
<defs>
<clipPath id="clip0_298_10759">
<rect width="92.6052" height="40" fill="white" transform="translate(104.172 30)"/>
</clipPath>
</defs>
</svg>
