<svg width="300" height="100" viewBox="0 0 300 100" fill="none" xmlns="http://www.w3.org/2000/svg">
<rect width="300" height="100" fill="white"/>
<g clip-path="url(#clip0_291_8161)">
<path d="M173.285 30.2192H126.715V69.7816H173.285V30.2192Z" fill="#138F34"/>
<path d="M170.49 45.6108C170.565 44.5208 170.484 43.4257 170.25 42.3586C170.034 41.3795 169.636 40.4499 169.075 39.6185C168.463 38.7554 167.771 38.0829 166.998 37.5793C166.237 37.0925 165.398 36.7397 164.519 36.536C163.64 36.3331 162.739 36.2454 161.838 36.2752C160.934 36.2982 160.034 36.4023 159.148 36.5863C158.302 36.7568 157.467 36.9814 156.649 37.2587C155.933 37.4938 155.23 37.7651 154.541 38.0716C153.919 38.3428 153.407 38.5932 153.005 38.8147C151.761 39.4871 150.667 39.9789 149.713 40.29C148.76 40.6011 147.937 40.7718 147.254 40.7917C146.561 40.8121 145.979 40.7315 145.518 40.5409C145.096 40.375 144.724 40.1057 144.434 39.7579C144.18 39.4348 143.995 39.0631 143.891 38.6658C143.793 38.2859 143.759 37.8925 143.79 37.5015L143.519 38.6558C143.519 39.0075 143.576 39.3568 143.69 39.6896C143.817 40.0541 144.011 40.3918 144.262 40.6855C144.523 40.9966 144.874 41.2574 145.326 41.4685C145.768 41.689 146.31 41.8194 146.952 41.8796C147.604 41.9498 148.377 41.91 149.261 41.7696C150.144 41.6292 151.168 41.3475 152.312 40.9463L153.707 40.4247C154.269 40.2141 154.902 39.9931 155.614 39.7721C156.355 39.5359 157.109 39.3438 157.872 39.1969C158.68 39.0453 159.499 38.9647 160.321 38.956C161.158 38.95 161.991 39.0546 162.8 39.2671C163.637 39.4845 164.429 39.8482 165.139 40.3412C165.882 40.8529 166.565 41.5457 167.178 42.4278C167.786 43.302 168.222 44.2837 168.463 45.3206C168.724 46.377 168.808 47.469 168.714 48.5529C168.617 49.6887 168.367 50.8063 167.971 51.8754C167.556 52.9974 166.996 54.0601 166.304 55.0361C165.593 56.0662 164.75 56.9978 163.795 57.8065C162.821 58.6497 161.717 59.352 160.492 59.9443C159.214 60.5444 157.86 60.9666 156.468 61.1991L156.076 62.4938C157.454 62.2453 158.791 61.8097 160.051 61.1991C161.282 60.6001 162.435 59.8515 163.484 58.9703C164.528 58.1065 165.474 57.1303 166.304 56.0595C167.917 53.9987 169.129 51.6538 169.877 49.1462C170.207 47.9929 170.412 46.8077 170.49 45.6108Z" fill="url(#paint0_linear_291_8161)"/>
<path d="M153.657 58.2885C153.135 58.1463 152.512 58.0988 151.8 58.1278C151.087 58.1567 150.274 58.2985 149.351 58.5394C148.427 58.7903 147.383 59.1715 146.229 59.6837C145.737 59.9142 145.135 60.1252 144.443 60.3358C143.697 60.5492 142.94 60.7202 142.175 60.8479C141.345 60.9714 140.506 61.0285 139.666 61.0187C138.806 61.0058 137.95 60.8912 137.117 60.6772C136.289 60.4627 135.502 60.1134 134.788 59.6434C134.065 59.1616 133.433 58.5192 132.891 57.7161C132.349 56.9133 131.937 55.9193 131.658 54.7252C131.362 53.4561 131.284 52.146 131.427 50.8508C131.563 49.5903 131.892 48.3581 132.4 47.1968C132.899 46.0392 133.543 44.9498 134.317 43.955C135.093 42.9757 135.982 42.0928 136.967 41.325C137.928 40.5754 138.985 39.9577 140.109 39.4883C141.186 39.0409 142.326 38.7635 143.489 38.666L143.76 37.5117C142.666 37.7014 141.592 38.0438 140.518 38.5157C139.424 39.0113 138.382 39.6129 137.406 40.312C136.398 41.0463 135.457 41.8694 134.596 42.7714C133.722 43.6868 132.936 44.6814 132.247 45.7424C131.558 46.7966 130.983 47.9204 130.531 49.0952C130.078 50.2516 129.765 51.4578 129.597 52.6884C129.433 53.922 129.449 55.1731 129.645 56.4021C129.834 57.6469 130.187 58.721 130.688 59.604C131.143 60.4522 131.76 61.2026 132.505 61.8125C133.202 62.3826 133.994 62.8276 134.843 63.1275C135.688 63.4304 136.569 63.6194 137.463 63.6895C138.356 63.7601 139.254 63.7399 140.143 63.6293C140.988 63.5242 141.822 63.3394 142.632 63.0773C143.351 62.8514 144.043 62.552 144.7 62.1838C146.196 61.3103 147.524 60.6412 148.684 60.1764C149.848 59.7022 150.862 59.4134 151.735 59.273C152.598 59.1426 153.321 59.1426 153.913 59.273C154.505 59.3935 154.967 59.6244 155.308 59.9369C155.64 60.2501 155.876 60.6501 155.991 61.0912C156.111 61.5327 156.121 62.0046 156.041 62.4963L156.421 61.2117C156.423 60.9589 156.384 60.7074 156.307 60.4667C156.199 60.1629 156.043 59.8782 155.845 59.6235C155.605 59.3123 155.313 59.0442 154.982 58.8306C154.63 58.5996 154.179 58.4189 153.657 58.2885Z" fill="url(#paint1_linear_291_8161)"/>
<path d="M157.903 39.1973C157.139 39.3396 156.385 39.5273 155.643 39.7592C154.932 39.9902 154.298 40.2112 153.736 40.4232L152.351 40.9448C151.196 41.346 150.173 41.6173 149.29 41.7576C148.406 41.9084 147.634 41.9383 146.981 41.8781C146.339 41.8179 145.796 41.6775 145.345 41.4669C144.902 41.2557 144.551 40.9948 144.291 40.684C144.039 40.3913 143.845 40.0534 143.719 39.6881C143.61 39.3541 143.553 39.0055 143.548 38.6543C142.384 38.747 141.242 39.025 140.165 39.4776C139.046 39.9453 137.993 40.5596 137.036 41.3043C136.048 42.0727 135.158 42.9592 134.386 43.9438C133.603 44.9345 132.955 46.0248 132.459 47.1861C131.958 48.3495 131.63 49.5796 131.485 50.8377C131.343 52.1331 131.421 53.4433 131.716 54.7126C131.997 55.9067 132.409 56.9006 132.949 57.7035C133.49 58.5064 134.123 59.149 134.846 59.6208C135.561 60.0977 136.352 60.4504 137.185 60.6641C138.016 60.873 138.868 60.9874 139.724 61.0051C140.568 61.017 141.411 60.9567 142.244 60.8249C143.009 60.7027 143.767 60.535 144.512 60.3227C145.195 60.1121 145.797 59.9011 146.289 59.6701C147.443 59.1584 148.487 58.7772 149.411 58.5263C150.334 58.2854 151.157 58.1445 151.86 58.1147C152.582 58.0843 153.195 58.1346 153.717 58.275C154.19 58.3779 154.642 58.5626 155.052 58.8208C155.403 59.0617 155.695 59.323 155.906 59.6037C156.111 59.8573 156.268 60.1467 156.367 60.4573C156.45 60.6962 156.494 60.9468 156.497 61.1995C157.891 60.9667 159.246 60.5411 160.522 59.9347C161.747 59.3524 162.851 58.6501 163.824 57.8069C164.774 56.9931 165.618 56.0622 166.334 55.0365C167.029 54.0589 167.59 52.9919 168 51.8644C168.397 50.7992 168.646 49.685 168.742 48.5524C168.835 47.469 168.754 46.3778 168.502 45.32C168.25 44.2823 167.812 43.2992 167.207 42.4192C166.595 41.5461 165.912 40.8542 165.168 40.3416C164.456 39.8496 163.665 39.483 162.829 39.2575C162.02 39.0483 161.186 38.9471 160.35 38.9564C159.529 38.9652 158.71 39.0458 157.903 39.1973Z" fill="white"/>
<path d="M160.874 41.9071H160.562C160.535 41.9064 160.507 41.9114 160.481 41.9218C160.455 41.9321 160.432 41.9476 160.412 41.9673C160.392 41.987 160.377 42.0105 160.367 42.0363C160.356 42.0621 160.351 42.0898 160.352 42.1176V42.9309H160.191C160.153 42.9349 160.117 42.9526 160.091 42.9807C160.074 42.9937 160.061 43.0105 160.052 43.0298C160.043 43.049 160.04 43.0701 160.041 43.0912V43.3023C160.039 43.3234 160.043 43.3445 160.052 43.3638C160.061 43.383 160.074 43.3998 160.091 43.4128C160.12 43.4371 160.154 43.4543 160.191 43.463H160.352V44.7875C160.352 44.9386 160.39 45.0872 160.462 45.2196C160.53 45.3562 160.639 45.4684 160.773 45.5406C160.918 45.6229 161.081 45.6678 161.248 45.671H161.538L161.649 45.6208L161.699 45.5003V45.2575C161.699 45.2072 161.689 45.1674 161.649 45.147C161.629 45.1072 161.589 45.0996 161.538 45.0996H161.499C161.384 45.0971 161.274 45.0545 161.187 44.9791C161.152 44.9398 161.125 44.8938 161.108 44.8437C161.09 44.7937 161.083 44.7407 161.087 44.6879V43.463H161.566C161.608 43.4586 161.646 43.4409 161.677 43.4128C161.704 43.3822 161.718 43.3428 161.717 43.3023V43.0912C161.718 43.0708 161.714 43.0503 161.707 43.0311C161.7 43.0119 161.689 42.9943 161.675 42.9793C161.661 42.9644 161.645 42.9524 161.626 42.9441C161.607 42.9358 161.587 42.9313 161.566 42.9309H161.085V42.1176C161.078 42.0613 161.053 42.0086 161.014 41.9673C160.997 41.9469 160.976 41.9309 160.951 41.9204C160.927 41.91 160.9 41.9054 160.874 41.9071Z" fill="#FF0000"/>
<path d="M162.62 42.1179C162.621 42.09 162.616 42.0623 162.606 42.0364C162.595 42.0106 162.58 41.9871 162.56 41.9676C162.517 41.9272 162.459 41.9056 162.4 41.9073H162.089C162.029 41.9056 161.971 41.9272 161.928 41.9676C161.908 41.9871 161.892 42.0106 161.882 42.0364C161.872 42.0623 161.867 42.09 161.868 42.1179V45.4503C161.866 45.4792 161.872 45.508 161.884 45.5342C161.897 45.5604 161.915 45.5834 161.938 45.6011C161.958 45.6208 161.981 45.6363 162.007 45.6467C162.033 45.657 162.061 45.662 162.089 45.6613H162.4C162.459 45.6628 162.516 45.6412 162.56 45.6011C162.58 45.5814 162.595 45.5579 162.606 45.5319C162.616 45.506 162.621 45.4782 162.62 45.4503V42.1179Z" fill="#FF0000"/>
<path d="M163.473 43.0514C163.269 43.1764 163.106 43.3575 163.002 43.5731C162.895 43.7921 162.839 44.0331 162.841 44.277C162.843 44.521 162.901 44.7612 163.012 44.9787C163.119 45.1977 163.286 45.382 163.494 45.5103C163.694 45.6526 163.945 45.7114 164.226 45.7213C164.418 45.7189 164.608 45.685 164.788 45.6208C164.961 45.5615 165.118 45.4655 165.25 45.3396C165.374 45.2245 165.458 45.0735 165.491 44.908C165.495 44.8892 165.495 44.8698 165.492 44.851C165.488 44.8321 165.481 44.8141 165.471 44.798C165.46 44.7814 165.445 44.768 165.428 44.7591C165.41 44.7503 165.39 44.7463 165.371 44.7477H164.949C164.915 44.7469 164.882 44.7547 164.852 44.7705C164.822 44.7862 164.797 44.8094 164.778 44.8378C164.658 45.0185 164.477 45.1091 164.226 45.1091C164.057 45.1078 163.894 45.0396 163.774 44.9194C163.665 44.8048 163.598 44.656 163.585 44.4978H165.362C165.522 44.4978 165.603 44.4172 165.592 44.2669C165.591 44.0288 165.542 43.7934 165.45 43.574C165.354 43.3594 165.197 43.1779 164.998 43.0524C164.797 42.9101 164.537 42.8413 164.225 42.8413C163.925 42.8398 163.674 42.9098 163.473 43.0514ZM163.795 43.5631C163.915 43.4607 164.069 43.4071 164.226 43.4128C164.381 43.4088 164.531 43.4624 164.648 43.5631C164.765 43.6624 164.84 43.8023 164.859 43.9548H163.594C163.599 43.8793 163.619 43.8056 163.654 43.7383C163.689 43.6709 163.736 43.6113 163.795 43.5631Z" fill="#FF0000"/>
<path d="M166.856 45.0206C166.816 44.9757 166.766 44.9405 166.711 44.9179C166.655 44.8953 166.595 44.8858 166.535 44.8902C166.477 44.8881 166.419 44.8987 166.365 44.9213C166.311 44.9438 166.263 44.9777 166.224 45.0206C166.184 45.0619 166.153 45.1107 166.132 45.1641C166.112 45.2175 166.102 45.2745 166.103 45.3317C166.101 45.3899 166.112 45.4479 166.134 45.5016C166.157 45.5553 166.191 45.6035 166.234 45.6428C166.274 45.6842 166.323 45.7171 166.376 45.7396C166.429 45.762 166.487 45.7736 166.545 45.7736C166.603 45.7736 166.66 45.762 166.714 45.7396C166.767 45.7171 166.815 45.6842 166.856 45.6428C166.937 45.5595 166.984 45.4482 166.986 45.3317C166.987 45.2737 166.976 45.2161 166.953 45.1626C166.931 45.1091 166.898 45.0607 166.856 45.0206ZM166.535 44.9604C166.585 44.9572 166.636 44.9654 166.683 44.9846C166.73 45.0037 166.772 45.0332 166.806 45.0709C166.841 45.1041 166.87 45.1445 166.889 45.1895C166.908 45.2344 166.917 45.2829 166.916 45.3317C166.914 45.4298 166.875 45.5233 166.806 45.593C166.734 45.6575 166.641 45.6931 166.545 45.6931C166.448 45.6931 166.356 45.6575 166.284 45.593C166.249 45.559 166.221 45.5184 166.202 45.4735C166.183 45.4286 166.174 45.3804 166.173 45.3317C166.173 45.2829 166.182 45.2345 166.201 45.1896C166.22 45.1446 166.248 45.1042 166.284 45.0709C166.315 45.0348 166.353 45.006 166.397 44.9866C166.44 44.9672 166.487 44.9576 166.535 44.9585V44.9604Z" fill="#FF0000"/>
<path d="M166.565 45.0791L166.375 45.0891V45.5813H166.456V45.3527H166.536L166.666 45.5837L166.747 45.5732L166.616 45.3423C166.697 45.3423 166.736 45.3025 166.736 45.2119C166.735 45.1294 166.685 45.0791 166.565 45.0791ZM166.445 45.1597L166.565 45.1493C166.635 45.1493 166.665 45.1697 166.665 45.2095C166.665 45.2598 166.635 45.2802 166.565 45.2802H166.456L166.445 45.1597Z" fill="#FF0000"/>
<path d="M156.909 43.0518C156.709 42.9102 156.448 42.8394 156.126 42.8394C155.825 42.8394 155.574 42.9097 155.373 43.0504C155.172 43.1758 155.012 43.3571 154.912 43.572C154.804 43.7911 154.749 44.0321 154.751 44.276C154.753 44.52 154.811 44.7602 154.922 44.9776C155.029 45.1967 155.196 45.3809 155.403 45.5093C155.604 45.6515 155.845 45.7103 156.126 45.7203C156.321 45.7179 156.514 45.684 156.698 45.6197C156.871 45.5605 157.028 45.4646 157.16 45.3385C157.283 45.2235 157.368 45.0725 157.401 44.907C157.409 44.8691 157.402 44.8296 157.381 44.797C157.37 44.7804 157.355 44.767 157.337 44.7582C157.32 44.7493 157.3 44.7454 157.28 44.7467H156.859C156.823 44.7446 156.788 44.7519 156.756 44.7677C156.725 44.7835 156.698 44.8073 156.678 44.8368C156.568 45.0175 156.377 45.1081 156.126 45.1081C155.957 45.1047 155.795 45.0368 155.675 44.9184C155.563 44.8057 155.499 44.6551 155.493 44.4968H157.27C157.431 44.4968 157.511 44.4162 157.501 44.2658C157.5 44.0278 157.452 43.7924 157.359 43.573C157.26 43.3608 157.105 43.1803 156.909 43.0518ZM155.705 43.5635C155.821 43.4613 155.972 43.4075 156.126 43.4132C156.283 43.4091 156.437 43.4626 156.558 43.5635C156.675 43.6629 156.75 43.8027 156.769 43.9552H155.493C155.512 43.8027 155.587 43.6629 155.705 43.5635Z" fill="#FF0000"/>
<path d="M159.92 42.339V42.108C159.921 42.0856 159.916 42.0634 159.908 42.0427C159.899 42.022 159.886 42.0033 159.87 41.9876L159.76 41.9383H154.008C153.946 41.9449 153.887 41.9692 153.838 42.0084C153.797 42.0561 153.776 42.1168 153.777 42.1792L153.787 44.4379L152.493 42.0891C152.453 42.0318 152.401 41.9834 152.342 41.9468C152.272 41.9044 152.193 41.8803 152.111 41.8766H151.639C151.609 41.8754 151.579 41.8811 151.551 41.8933C151.523 41.9055 151.498 41.9237 151.479 41.9468C151.455 41.9685 151.437 41.995 151.425 42.0244C151.413 42.0539 151.407 42.0857 151.409 42.1175V45.43C151.408 45.4617 151.414 45.4931 151.426 45.5225C151.438 45.5518 151.456 45.5784 151.479 45.6007C151.523 45.6408 151.58 45.6624 151.639 45.6609H151.941C152.003 45.6642 152.065 45.6426 152.111 45.6007C152.134 45.5784 152.152 45.5518 152.164 45.5225C152.176 45.4931 152.182 45.4617 152.182 45.43L152.162 43.1015L153.466 45.4499L153.617 45.6007C153.683 45.6427 153.76 45.6637 153.838 45.6609H154.268C154.33 45.6624 154.391 45.641 154.439 45.6007C154.461 45.5784 154.479 45.5518 154.491 45.5225C154.503 45.4931 154.509 45.4617 154.509 45.43V42.4993H159.76C159.78 42.5002 159.8 42.4971 159.819 42.4902C159.838 42.4833 159.855 42.4727 159.87 42.459C159.886 42.4433 159.899 42.4247 159.907 42.4041C159.916 42.3835 159.92 42.3613 159.92 42.339Z" fill="#FF0000"/>
<path d="M159.39 43.7039L159.51 43.7143H159.852C159.884 43.7133 159.915 43.7027 159.942 43.684C159.953 43.6717 159.961 43.6574 159.966 43.6419C159.971 43.6265 159.973 43.6101 159.972 43.5939C159.972 43.3928 159.862 43.2225 159.651 43.0722C159.44 42.9219 159.167 42.8394 158.826 42.8394C158.475 42.8394 158.184 42.92 157.983 43.0703C157.884 43.1423 157.803 43.2375 157.749 43.3477C157.695 43.4579 157.668 43.5797 157.672 43.7024C157.667 43.7943 157.683 43.8862 157.718 43.9714C157.752 44.0567 157.805 44.1334 157.872 44.1961C158.02 44.3219 158.195 44.4113 158.384 44.4569L159.017 44.6177C159.09 44.6287 159.161 44.6525 159.227 44.6879C159.255 44.704 159.278 44.7274 159.294 44.7556C159.31 44.7838 159.318 44.8158 159.318 44.8482C159.319 44.8951 159.306 44.9414 159.281 44.9809C159.256 45.0204 159.219 45.0512 159.175 45.0692C159.067 45.1147 158.952 45.1386 158.834 45.1394C158.719 45.1391 158.605 45.1116 158.502 45.0592C158.413 45.0197 158.341 44.9482 158.302 44.8586C158.294 44.8381 158.282 44.8195 158.266 44.8039C158.251 44.7883 158.232 44.7761 158.212 44.768L158.081 44.7481H157.73C157.714 44.7483 157.699 44.752 157.685 44.7589C157.671 44.7658 157.659 44.7757 157.649 44.788C157.635 44.7982 157.624 44.812 157.617 44.8279C157.61 44.8438 157.608 44.8613 157.609 44.8785V44.9288C157.611 45.0671 157.665 45.1997 157.76 45.3001C157.885 45.4296 158.035 45.5321 158.201 45.6013C158.404 45.6749 158.618 45.7156 158.834 45.7217C159.018 45.721 159.201 45.6904 159.376 45.6311C159.557 45.5887 159.722 45.4946 159.85 45.3603C159.981 45.2299 160.051 45.0493 160.061 44.8283C160.058 44.6441 159.991 44.4667 159.871 44.3265C159.751 44.1961 159.58 44.1055 159.369 44.0453L158.496 43.8044C158.469 43.7894 158.447 43.7676 158.431 43.7412C158.415 43.7149 158.406 43.6848 158.406 43.6541C158.402 43.6109 158.412 43.5676 158.433 43.53C158.455 43.4924 158.487 43.4621 158.526 43.443C158.621 43.4001 158.724 43.3795 158.827 43.3828C158.936 43.3765 159.043 43.4008 159.138 43.453C159.182 43.4659 159.222 43.489 159.255 43.5204C159.288 43.5519 159.313 43.5907 159.328 43.6337C159.332 43.6493 159.34 43.6637 159.351 43.6758C159.362 43.688 159.375 43.6976 159.39 43.7039Z" fill="#FF0000"/>
<path d="M163.022 42.2082V42.3685C163.024 42.3998 163.037 42.4293 163.059 42.4514C163.082 42.4736 163.111 42.487 163.142 42.489H165.34C165.389 42.4839 165.435 42.4627 165.471 42.4287C165.487 42.4131 165.5 42.3944 165.508 42.3737C165.517 42.353 165.521 42.3307 165.521 42.3083V42.0375C165.52 41.9895 165.502 41.9435 165.471 41.9071C165.455 41.8879 165.435 41.8731 165.412 41.8642C165.389 41.8554 165.365 41.8528 165.34 41.8568L163.142 42.0674L163.052 42.1176C163.033 42.1441 163.023 42.1756 163.022 42.2082Z" fill="#FF0000"/>
<path d="M141.592 52.547L142.084 50.8706L138.381 55.7589L138.761 56.2806V56.2706L141.592 52.547Z" fill="url(#paint2_linear_291_8161)"/>
<path d="M139.504 46.073L139.143 45.5708L140.016 49.9171L140.227 49.6463L139.504 46.073Z" fill="url(#paint3_linear_291_8161)"/>
<path d="M147.273 46.0637L146.892 45.562L144.322 54.3935C144.202 54.8151 144.021 55.1049 143.79 55.277C143.559 55.4492 143.228 55.5279 142.797 55.5179H140.719L141.151 55.9997H143.198C143.471 56.012 143.744 55.9714 144.001 55.8802C144.212 55.7996 144.372 55.6592 144.523 55.4487C144.653 55.259 144.774 54.9868 144.864 54.6354L147.273 46.0637Z" fill="url(#paint4_linear_291_8161)"/>
<path d="M137.617 52.005L137.406 50.9209L136.393 54.3937C136.272 54.8152 136.101 55.105 135.861 55.2771C135.63 55.4374 135.299 55.528 134.877 55.518H132.95L133.361 55.9999H135.289C135.547 56.0129 135.805 55.9788 136.051 55.8993C136.254 55.8225 136.427 55.6815 136.543 55.4977C136.695 55.2526 136.807 54.9849 136.875 54.7048L137.617 52.005Z" fill="url(#paint5_linear_291_8161)"/>
<path d="M143.69 45.6211C143.492 45.6779 143.308 45.7735 143.147 45.9023C142.979 46.0481 142.824 46.2094 142.686 46.3841L140.016 49.9171L139.133 45.531H137.286C136.894 45.531 136.573 45.5912 136.322 45.7116C136.07 45.8192 135.856 46.0012 135.71 46.2333C135.535 46.4971 135.406 46.7892 135.331 47.0969L132.95 55.5182H134.877C135.299 55.5281 135.63 55.448 135.861 55.2773C136.101 55.1066 136.272 54.8154 136.393 54.3938L137.406 50.921L138.382 55.7691L142.085 50.8708L140.72 55.5182H142.797C143.218 55.5283 143.549 55.448 143.79 55.2773C144.021 55.1066 144.202 54.8154 144.312 54.3938L146.901 45.531H144.483C144.216 45.5252 143.949 45.5555 143.69 45.6211Z" fill="#705341"/>
<path d="M151.479 46.9961L151.147 46.5342L148.849 54.4139C148.739 54.835 148.558 55.1253 148.327 55.2969C148.087 55.4677 147.766 55.5478 147.332 55.5378H145.245L145.647 56.0296H147.644C147.896 56.0317 148.146 55.9974 148.388 55.9277C148.586 55.8569 148.762 55.7358 148.9 55.5763C149.042 55.4055 149.14 55.1845 149.232 54.9038L151.479 46.9961Z" fill="url(#paint6_linear_291_8161)"/>
<path d="M149.11 46.5145C148.866 46.5047 148.622 46.5351 148.388 46.6046C148.192 46.6693 148.02 46.7918 147.896 46.956C147.765 47.1068 147.655 47.3378 147.575 47.6285L145.245 55.5381H147.332C147.764 55.5481 148.085 55.4679 148.328 55.2972C148.559 55.1265 148.73 54.8353 148.849 54.4142L151.158 46.5145H149.11Z" fill="#705341"/>
<path d="M156.016 46.9557L155.614 46.4839L153.557 53.5503H154.078L156.016 46.9557Z" fill="url(#paint7_linear_291_8161)"/>
<path d="M156.678 54.8655L156.949 53.8616L156.558 53.5405L156.307 54.3837C156.197 54.7947 156.016 55.0857 155.765 55.2568C155.514 55.4275 155.173 55.5081 154.731 55.4977H149.712L150.104 55.9899H155.102C155.403 55.9899 155.654 55.9596 155.855 55.8894C156.054 55.8191 156.23 55.6979 156.367 55.538C156.497 55.3772 156.598 55.1467 156.678 54.8655Z" fill="url(#paint8_linear_291_8161)"/>
<path d="M152.362 46.9058C152.22 47.0765 152.111 47.2975 152.03 47.5887L149.712 55.4978H154.742C155.174 55.5083 155.525 55.4276 155.766 55.2569C156.017 55.0867 156.198 54.7955 156.318 54.3839L156.559 53.5407H153.557L155.614 46.4747H153.567C153.326 46.4693 153.087 46.4999 152.855 46.5653C152.664 46.6331 152.493 46.7506 152.362 46.9058Z" fill="#705341"/>
<path d="M165.46 47.7288C165.2 47.4186 164.888 47.1569 164.536 46.9559C164.165 46.742 163.762 46.5896 163.342 46.5044C164.014 46.6751 164.567 46.9459 164.998 47.3376C165.43 47.7293 165.71 48.2306 165.852 48.8632C165.994 49.4958 165.952 50.2484 165.751 51.1395C165.614 51.7812 165.402 52.4045 165.119 52.9966C164.884 53.4698 164.576 53.9033 164.206 54.2812C163.863 54.6179 163.47 54.8996 163.041 55.1164C162.595 55.3295 162.127 55.4944 161.646 55.6081L160.955 55.7087L160.071 55.7385L159.218 55.6783C158.905 55.6329 158.596 55.5625 158.294 55.4678C158.02 55.3808 157.76 55.2558 157.521 55.0964C157.278 54.932 157.067 54.7245 156.899 54.4842C157.022 54.7649 157.192 55.0227 157.401 55.2468C157.698 55.502 158.038 55.7025 158.405 55.8391C158.787 55.9906 159.185 56.1019 159.59 56.171L160.444 56.2308L161.327 56.2009L162.01 56.0904C162.493 55.9845 162.962 55.8193 163.405 55.5986C163.836 55.3859 164.229 55.1045 164.57 54.7654C164.942 54.3893 165.25 53.9555 165.483 53.4807C165.766 52.8878 165.981 52.2646 166.124 51.6232C166.294 50.8403 166.313 50.1057 166.194 49.4451C166.074 48.7845 165.832 48.2007 165.46 47.7288Z" fill="url(#paint9_linear_291_8161)"/>
<path d="M162.018 48.9236C162.182 48.9198 162.346 48.9471 162.5 49.0042C162.622 49.0478 162.729 49.1243 162.811 49.2252C162.78 49.0005 162.666 48.7958 162.49 48.6528C162.309 48.5224 162.048 48.4422 161.677 48.4422C161.377 48.436 161.082 48.5123 160.823 48.6628C160.576 48.8026 160.369 49.003 160.221 49.2451C160.05 49.4761 159.92 49.7568 159.799 50.0579C159.686 50.3739 159.589 50.6956 159.508 51.0216C159.415 51.3572 159.348 51.6995 159.308 52.0454C159.257 52.3869 159.267 52.678 159.328 52.9189C159.388 53.1798 159.538 53.3605 159.779 53.4909C159.676 53.3364 159.62 53.155 159.619 52.9692C159.616 52.7436 159.636 52.5183 159.679 52.2968L159.86 51.5034C159.935 51.1806 160.029 50.8624 160.14 50.5502C160.251 50.2576 160.392 49.9777 160.562 49.7155C160.722 49.4868 160.927 49.2931 161.165 49.1465C161.406 49.0042 161.687 48.9335 162.018 48.9236Z" fill="url(#paint10_linear_291_8161)"/>
<path d="M162.57 46.3536L161.287 46.3237L160.623 46.3958C160.199 46.4688 159.782 46.5799 159.378 46.7278C158.945 46.8855 158.539 47.1094 158.174 47.3917C157.802 47.6928 157.462 48.0945 157.16 48.5962C156.849 49.0984 156.618 49.7405 156.427 50.5135C156.156 51.7465 156.156 52.7718 156.437 53.5647L156.477 53.6956C156.648 54.147 156.869 54.5084 157.13 54.7692C157.392 55.0351 157.706 55.2436 158.053 55.3815C158.427 55.5303 158.818 55.6315 159.218 55.6826L160.071 55.7428L160.955 55.7129L161.647 55.6124C162.13 55.4984 162.598 55.3286 163.041 55.1064C163.472 54.8973 163.865 54.6192 164.206 54.2832C164.576 53.9052 164.884 53.4717 165.119 52.9985C165.402 52.4064 165.614 51.7831 165.751 51.1414C165.972 50.1455 165.992 49.3047 165.792 48.6422C165.62 48.0012 165.22 47.4448 164.667 47.0773C164.116 46.705 163.423 46.4641 162.57 46.3536ZM162.49 48.6621C162.67 48.793 162.781 48.9941 162.822 49.2445C162.859 49.5147 162.852 49.7893 162.801 50.0573C162.748 50.3821 162.678 50.7037 162.591 51.0209C162.511 51.3475 162.404 51.6665 162.269 51.9746C162.15 52.2734 161.996 52.5565 161.808 52.8178C161.644 53.0462 161.44 53.2434 161.206 53.4001C160.975 53.5393 160.712 53.6153 160.443 53.6207C160.082 53.6107 159.811 53.5405 159.63 53.4001C159.45 53.256 159.335 53.0467 159.309 52.8178C159.269 52.5382 159.269 52.2542 159.309 51.9746C159.359 51.6735 159.43 51.3524 159.51 51.0209C159.587 50.6942 159.684 50.3724 159.801 50.0573C159.899 49.7684 160.037 49.4948 160.212 49.2445C160.367 49.0041 160.577 48.8044 160.825 48.6621C161.084 48.5117 161.379 48.4354 161.678 48.4416C162.048 48.4416 162.319 48.5218 162.49 48.6621Z" fill="#705341"/>
</g>
<defs>
<linearGradient id="paint0_linear_291_8161" x1="149.815" y1="31.2998" x2="175.4" y2="56.8851" gradientUnits="userSpaceOnUse">
<stop offset="0.1" stop-color="#7E5436"/>
<stop offset="0.27" stop-color="#BE7429"/>
<stop offset="0.43" stop-color="#EBBC20"/>
<stop offset="0.55" stop-color="#F1E794"/>
<stop offset="0.7" stop-color="#F1E794"/>
<stop offset="0.85" stop-color="#E0B01C"/>
</linearGradient>
<linearGradient id="paint1_linear_291_8161" x1="-210279" y1="-33369.6" x2="-221683" y2="-46970.7" gradientUnits="userSpaceOnUse">
<stop offset="0.1" stop-color="#7E5436"/>
<stop offset="0.27" stop-color="#BE7429"/>
<stop offset="0.43" stop-color="#EBBC20"/>
<stop offset="0.55" stop-color="#F1E794"/>
<stop offset="0.7" stop-color="#F1E794"/>
<stop offset="0.85" stop-color="#E0B01C"/>
</linearGradient>
<linearGradient id="paint2_linear_291_8161" x1="176.449" y1="54.6221" x2="179.741" y2="54.6221" gradientUnits="userSpaceOnUse">
<stop offset="0.2" stop-color="#EBB625"/>
<stop offset="0.4" stop-color="#F7E864"/>
<stop offset="0.66" stop-color="#EBB625"/>
</linearGradient>
<linearGradient id="paint3_linear_291_8161" x1="199.746" y1="53.0691" x2="200.871" y2="49.9785" gradientUnits="userSpaceOnUse">
<stop offset="0.22" stop-color="#EBB625"/>
<stop offset="0.47" stop-color="#F7E864"/>
<stop offset="0.77" stop-color="#EBB625"/>
</linearGradient>
<linearGradient id="paint4_linear_291_8161" x1="128.605" y1="32.6893" x2="138.472" y2="27.7558" gradientUnits="userSpaceOnUse">
<stop offset="0.15" stop-color="#EBB625"/>
<stop offset="0.3" stop-color="#F7E864"/>
<stop offset="0.5" stop-color="#EBB625"/>
<stop offset="0.75" stop-color="#F0D661"/>
<stop offset="1" stop-color="#EBB625"/>
</linearGradient>
<linearGradient id="paint5_linear_291_8161" x1="98.2856" y1="53.8911" x2="104.244" y2="51.1028" gradientUnits="userSpaceOnUse">
<stop offset="0.23" stop-color="#EBB625"/>
<stop offset="0.47" stop-color="#F7E864"/>
<stop offset="0.67" stop-color="#EBB625"/>
</linearGradient>
<linearGradient id="paint6_linear_291_8161" x1="-48895.7" y1="-12887.2" x2="-47772.2" y2="-13535.3" gradientUnits="userSpaceOnUse">
<stop offset="0.15" stop-color="#EBB625"/>
<stop offset="0.3" stop-color="#F7E864"/>
<stop offset="0.5" stop-color="#EBB625"/>
<stop offset="0.75" stop-color="#F0D661"/>
<stop offset="1" stop-color="#EBB625"/>
</linearGradient>
<linearGradient id="paint7_linear_291_8161" x1="181.489" y1="52.8406" x2="185.766" y2="50.3798" gradientUnits="userSpaceOnUse">
<stop offset="0.07" stop-color="#EBB625"/>
<stop offset="0.33" stop-color="#F7E864"/>
<stop offset="0.53" stop-color="#EBB625"/>
</linearGradient>
<linearGradient id="paint8_linear_291_8161" x1="136.7" y1="35.4084" x2="143.279" y2="32.1193" gradientUnits="userSpaceOnUse">
<stop offset="0.57" stop-color="#E6BC2A"/>
<stop offset="0.75" stop-color="#F5E479"/>
<stop offset="0.93" stop-color="#E6BC2A"/>
</linearGradient>
<linearGradient id="paint9_linear_291_8161" x1="162.889" y1="55.209" x2="172.858" y2="49.4508" gradientUnits="userSpaceOnUse">
<stop offset="0.3" stop-color="#EBB625"/>
<stop offset="0.55" stop-color="#F7E864"/>
<stop offset="0.8" stop-color="#EBB625"/>
</linearGradient>
<linearGradient id="paint10_linear_291_8161" x1="166.046" y1="52.3703" x2="170.323" y2="49.9099" gradientUnits="userSpaceOnUse">
<stop offset="0.2" stop-color="#EBB625"/>
<stop offset="0.57" stop-color="#F7E864"/>
<stop offset="0.95" stop-color="#EBB625"/>
</linearGradient>
<clipPath id="clip0_291_8161">
<rect width="46.5979" height="40" fill="white" transform="translate(126.701 30)"/>
</clipPath>
</defs>
</svg>
