<svg width="300" height="100" viewBox="0 0 300 100" fill="none" xmlns="http://www.w3.org/2000/svg">
<rect width="300" height="100" fill="white"/>
<g clip-path="url(#clip0_298_10752)">
<path d="M176.289 38.336C173.212 38.3361 169.649 37.6281 166.711 38.5512L164.952 38.5907C163.546 38.0726 162.033 37.93 160.619 38.0741C160.423 37.8416 160.207 37.6175 159.971 37.4042C158.762 36.206 157.616 34.9465 156.326 33.8289C153.103 31.0344 147.725 31.4919 144.833 34.5376C143.798 35.6281 143.132 36.9879 142.81 38.3596C141.437 38.2914 140.068 38.4282 138.761 38.8664C138.024 38.6086 137.269 38.445 136.525 38.3616C136.279 37.2842 135.783 36.3013 134.974 35.4503L131.157 31.6942C128.104 28.9462 123.057 29.6967 120.832 33.0999C120.591 33.4696 120.344 33.8536 120.103 34.2312C119.458 34.4505 118.683 34.7398 118.039 35.0752C116.625 35.8112 114.919 37.1653 114.358 39.6082C113.847 41.8358 114.529 45.2761 117.915 46.8126C118.44 48.8176 119.834 49.9848 121.22 51.3982L120.897 53.1911C120.469 55.6078 121.497 57.8634 123.178 59.2481L126.375 62.4284C127.597 63.5603 129.199 64.2264 130.885 64.2269C132.421 64.2269 134.005 64.3642 135.473 63.833C135.978 64.0167 136.516 64.1411 137.077 64.1956L140.257 67.3102C144.513 71.6834 153.389 70.4235 154.874 64.0545C155.181 63.9912 155.488 63.911 155.791 63.8124C157.301 64.0876 158.923 63.9111 160.448 63.9111C162.173 63.9069 163.84 63.1404 164.961 61.8522C167.592 64.1564 171.427 64.8206 174.758 63.7947C178.049 64.8451 182.077 64.138 184.452 61.561C185.525 60.3969 185.897 59.1012 186.037 58.1127C186.316 56.1486 186.233 54.0431 185.091 52.3449L185.739 48.7598C186.074 46.9136 185.463 45.0042 184.165 43.6423L180.697 40.2345C179.613 39.0821 178.046 38.3359 176.289 38.336Z" fill="#C6F8DB"/>
<path d="M146.213 43.2445C145.088 42.2086 143.459 41.9737 142.079 41.9715C140.9 41.9523 139.724 42.2665 138.717 42.8697C137.749 42.2351 136.557 41.9321 135.362 41.9242C134.738 41.4991 133.952 41.2784 133.259 40.9902C133.157 40.4301 133.057 39.8699 132.956 39.3097C132.853 38.7368 132.637 38.3057 132.281 37.9317L128.607 34.3183C127.328 33.1675 124.975 33.4721 123.935 35.0633C123.458 35.7931 122.994 36.5314 122.522 37.2647C120.775 37.8745 118.435 38.3248 117.957 40.4083C117.713 41.4682 118.075 42.9463 119.575 43.5663C120.107 43.786 120.639 44.007 121.171 44.2284C121.406 45.5218 121.465 46.9504 122.729 47.71L125.179 50.2094L124.531 53.815C124.341 54.8903 124.827 55.9329 125.654 56.5495L128.951 59.8303C129.46 60.3014 130.139 60.5972 130.887 60.5975H133.219C134.125 60.5975 134.949 60.1754 135.478 59.5076C135.993 60.1618 136.797 60.5955 137.72 60.5975H138.815C138.969 60.8435 139.153 61.0796 139.369 61.3036C140.512 62.4901 141.74 63.6166 142.907 64.7852C144.603 66.5453 147.852 66.8247 149.852 65.3892C151.494 64.2107 151.864 61.8748 150.708 60.2372C152.249 60.7788 154.213 60.8037 155.618 59.9042C155.987 60.1497 156.424 60.2787 156.869 60.2816H160.444C161.507 60.279 162.45 59.5154 162.654 58.4873L163.288 54.9697C163.499 55.2754 163.758 55.5635 164.073 55.8295C165.241 56.9849 166.355 58.248 167.611 59.311C169.482 60.8936 172.689 61.0377 174.8 59.8426C176.79 61.0802 180.108 60.8705 181.719 59.1226C182.544 58.2283 182.417 57.051 182.467 55.9241C182.506 54.95 181.984 54.0156 181.131 53.5203L182.107 48.1238C182.242 47.3777 181.993 46.6692 181.515 46.1687L178.026 42.7403C177.604 42.2679 176.984 41.9659 176.289 41.9659H176.288L173.246 41.966C173.048 41.9667 172.843 41.9922 172.64 42.0468C170.298 41.2341 167.373 41.6761 165.493 43.2792C164.083 41.5521 161.293 41.2479 159.307 42.1079C159.059 42.014 158.796 41.9653 158.531 41.9607C158.369 41.2223 158.012 40.542 157.426 40.0341C156.254 38.88 155.132 37.6311 153.888 36.5525C152.158 35.0535 149.053 35.41 147.529 37.0155C146.221 38.3927 145.802 40.915 146.896 42.5399C146.631 42.7347 146.399 42.9728 146.213 43.2445Z" fill="#000F12"/>
<path fill-rule="evenodd" clip-rule="evenodd" d="M121.877 42.2544L120.398 41.6409C119.73 41.3654 119.96 40.3721 120.751 40.0966L123.153 39.261C123.535 39.1281 123.726 39.0616 123.881 38.9396C124.037 38.8176 124.145 38.6491 124.361 38.3119L125.721 36.1931C126.18 35.491 127.201 35.491 127.327 36.1931L127.608 37.7492C127.717 38.3575 127.772 38.6616 127.959 38.8924C128.147 39.1231 128.436 39.243 129.015 39.4828L130.496 40.0966C131.161 40.3721 130.934 41.3654 130.14 41.6409L127.738 42.4765C127.356 42.6094 127.165 42.6759 127.01 42.7978C126.855 42.9198 126.746 43.0885 126.53 43.4255L125.17 45.5444C124.725 46.2466 123.69 46.2466 123.564 45.5444L123.284 43.9878C123.174 43.3797 123.119 43.0757 122.932 42.845C122.745 42.6143 122.456 42.4944 121.877 42.2544ZM143.092 60.7125C146.798 60.7125 145.79 57.5594 144.849 57.5594C144.469 57.5594 144.016 57.3655 144.016 56.9721C144.016 56.9518 144.12 56.2313 144.273 55.1772C144.688 52.3085 145.46 46.9704 145.46 46.5651C145.464 46.0301 145.307 45.5056 145.01 45.0579C144.559 44.3929 143.576 44.0604 142.059 44.0604C141.389 44.0471 140.725 44.194 140.125 44.4884C139.526 44.7828 139.007 45.2158 138.615 45.7506C138.556 45.8315 138.42 45.8141 138.387 45.7172C138.028 44.6091 136.94 44.0549 135.121 44.0549C134.537 44.0442 133.959 44.1543 133.421 44.3782C132.884 44.602 132.401 44.9347 132.004 45.3544C131.92 45.4435 131.756 45.3677 131.781 45.2434C131.864 44.7943 131.496 44.3663 131.038 44.3652H129.019C128.657 44.3663 128.339 44.6297 128.275 44.9803L126.622 54.1764C126.546 54.6074 126.898 55.0267 127.349 55.027H129.68C130.034 55.0271 130.345 54.7705 130.407 54.4285L131.553 48.0419C131.73 47.2855 132.265 47.2689 133.228 47.2689C134.039 47.2689 134.445 47.6235 134.445 48.3329C134.445 48.6002 134.422 48.8671 134.377 49.1309L133.471 54.1957C133.4 54.6179 133.745 55.026 134.186 55.027H136.545C136.891 55.0227 137.193 54.7692 137.252 54.434L138.359 48.211C138.446 47.7095 139.319 47.1858 140.212 47.2689C140.837 47.3271 141.693 47.5293 141.591 48.3107C141.262 50.8626 140.26 57.2685 140.26 57.2685C139.877 59.6042 141.431 60.7125 143.092 60.7125ZM151.231 51.8739H151.203C150.671 51.8739 150.455 51.5016 150.535 51.0315L151.628 44.9886C151.71 44.509 151.316 44.0565 150.828 44.0549H148.649C148.26 44.0543 147.917 44.3373 147.849 44.7143L146.616 51.547C146.482 52.4056 146.42 53.3403 146.931 54.096C147.337 54.7167 148.223 55.027 149.589 55.027C152.191 55.027 152.425 51.8739 151.231 51.8739ZM151.065 37.7099C149.302 37.7346 148.418 38.7273 148.418 40.4363C148.418 41.5002 149.045 42.0322 150.299 42.0322C152.034 42.0322 152.957 41.0402 152.957 39.3502C152.957 38.2566 152.326 37.7099 151.065 37.7099ZM160.239 47.094C161.396 47.4004 163.635 47.9932 164.153 46.615C164.434 45.8641 164.46 43.739 161.495 43.7501C160.428 43.7501 159.499 44.2119 158.707 45.1354C158.624 45.2359 158.457 45.1547 158.479 45.0329L158.628 44.2016C158.642 44.1237 158.578 44.0499 158.499 44.0493H155.207C155.145 44.0484 155.088 44.0949 155.077 44.1546L153.208 54.5587C153.194 54.6357 153.257 54.7106 153.337 54.7111H156.902C156.963 54.7109 157.02 54.6649 157.032 54.6058L158.268 47.7399C158.346 47.1211 159.082 46.9531 159.602 46.9531C159.706 46.9531 159.935 47.0137 160.239 47.094ZM176.244 51.7602C175.211 51.7214 175.183 51.4749 175.256 51.0315V51.0371L176.478 44.2765C176.499 44.1629 176.405 44.0548 176.289 44.0549H173.254C173.078 44.0555 173.054 44.2413 173.036 44.3855C173.032 44.411 173.03 44.435 173.025 44.4566C173.01 44.5587 172.878 44.5995 172.806 44.5287C172.279 44.0206 171.391 43.7667 170.142 43.7667C168.761 43.7667 167.634 44.1657 166.763 44.9637C165.873 45.8113 165.294 46.9264 165.119 48.1333L164.646 50.7268C164.574 51.1145 164.536 51.5075 164.533 51.9016C164.533 53.9852 165.765 55.027 168.227 55.027C168.839 55.0517 169.447 54.9251 169.996 54.659C170.545 54.3927 171.017 53.9953 171.37 53.503C171.437 53.4148 171.583 53.4464 171.609 53.5502C171.897 54.531 172.791 55.0215 174.293 55.0215C176.106 55.0215 176.731 54.1237 176.731 54.0683L176.808 52.3559C176.82 52.043 176.559 51.7705 176.244 51.7602ZM168.858 51.4971C168.494 51.1632 168.48 50.6835 168.565 50.2335L168.87 48.5712C169.063 47.4776 169.739 46.9309 170.897 46.9309C171.127 46.9309 172.205 47.0773 172.049 47.5294L171.39 51.1674C171.289 51.6296 170.381 51.8316 169.985 51.8295C169.579 51.8684 169.175 51.749 168.858 51.4971Z" fill="#C6F8DB"/>
</g>
<defs>
<clipPath id="clip0_298_10752">
<rect width="72.4638" height="40" fill="white" transform="translate(114.164 30)"/>
</clipPath>
</defs>
</svg>
