<svg width="300" height="100" viewBox="0 0 300 100" fill="none" xmlns="http://www.w3.org/2000/svg">
<rect width="300" height="100" fill="white"/>
<g clip-path="url(#clip0_298_10722)">
<path d="M137.123 47.7721C138.419 46.6033 140.003 46.0308 141.899 46.0308C143.819 46.0308 145.403 46.6033 146.699 47.7721C147.995 48.9172 148.643 50.42 148.643 52.2569C148.643 54.0698 147.995 55.5726 146.699 56.7175C145.427 57.8389 143.843 58.4113 141.923 58.4113C140.003 58.4113 138.419 57.8389 137.123 56.7175C135.851 55.5726 135.203 54.0698 135.203 52.2569C135.203 50.42 135.851 48.9172 137.123 47.7721ZM141.923 55.0956C143.435 55.0956 144.635 53.9743 144.635 52.2569C144.635 50.5154 143.435 49.3466 141.923 49.3466C140.411 49.3466 139.211 50.5154 139.211 52.2569C139.211 53.9743 140.435 55.0956 141.923 55.0956Z" fill="black"/>
<path d="M157.691 46.0308C156.011 46.0308 154.739 46.7225 153.923 48.0823H153.875L153.899 47.7961V47.629C153.899 46.7941 153.323 46.2932 152.243 46.2932H148.691V49.6328H149.579C149.939 49.6328 150.083 49.7998 150.083 50.1338V58.1251H154.091V52.8771C154.091 52.2807 154.163 51.7559 154.331 51.3266C154.715 50.2053 155.507 49.6328 156.683 49.6328C157.571 49.6328 158.004 50.1575 158.004 51.1833V56.4553C158.004 57.6241 158.507 58.1251 159.684 58.1251H161.987V50.4677C161.987 47.4859 160.547 46.0308 157.691 46.0308Z" fill="black"/>
<path d="M164.844 41.7129V44.9333H168.204V41.7129H164.844ZM166.86 46.293H163.164V49.6327H164.052C164.388 49.6327 164.556 49.7996 164.556 50.1335V56.455C164.556 57.624 165.06 58.1248 166.236 58.1248H168.54V47.9866C168.54 46.794 168.036 46.293 166.86 46.293Z" fill="black"/>
<path d="M171.636 47.7961C172.764 46.6271 174.276 46.0308 176.148 46.0308C177.852 46.0308 179.196 46.5556 180.18 47.629C181.164 48.6787 181.668 50.0621 181.668 51.732C181.668 52.0182 181.644 52.4238 181.572 52.9725H174.06C174.348 54.3561 175.476 55.0956 176.844 55.0956C177.828 55.0956 178.932 54.7138 180.132 53.9028L181.62 56.6938C180.348 57.7672 178.38 58.4113 176.532 58.4113C174.516 58.4113 172.932 57.7912 171.756 56.5744C170.58 55.3579 170.004 53.8789 170.004 52.209C169.956 50.4439 170.508 48.9649 171.636 47.7961ZM177.708 50.7062C177.708 49.7044 177.06 48.941 176.076 48.941C175.068 48.941 174.42 49.5374 174.156 50.7062H177.708Z" fill="black"/>
<path d="M183.084 46.508H185.172V47.5337C185.172 48.0108 185.1 48.4164 185.1 48.4164H185.148C185.892 47.0088 187.38 46.2217 189.084 46.2217C192.252 46.2217 194.22 48.7026 194.22 52.3045C194.22 56.0021 191.988 58.3875 188.916 58.3875C187.428 58.3875 186.084 57.648 185.292 56.4077H185.244C185.244 56.4077 185.34 56.8131 185.34 57.4095V62.7052H183.108V46.508H183.084ZM188.58 56.4791C190.428 56.4791 191.964 54.9764 191.964 52.3523C191.964 49.8237 190.596 48.2016 188.652 48.2016C186.9 48.2016 185.268 49.4421 185.268 52.3762C185.268 54.4277 186.42 56.4791 188.58 56.4791Z" fill="black"/>
<path d="M201.588 46.2217C205.092 46.2217 207.9 48.7741 207.9 52.2808C207.9 55.8113 205.068 58.3875 201.612 58.3875C198.108 58.3875 195.3 55.8113 195.3 52.2808C195.3 48.7741 198.132 46.2217 201.588 46.2217ZM201.612 56.4791C203.82 56.4791 205.644 54.7378 205.644 52.3045C205.644 49.8952 203.82 48.1778 201.612 48.1778C199.38 48.1778 197.58 49.8952 197.58 52.3045C197.604 54.7378 199.404 56.4791 201.612 56.4791Z" fill="black"/>
<path d="M209.652 41.9038H211.956V44.1462H209.652V41.9038ZM209.7 46.5077H211.932V58.1489H209.7V46.5077Z" fill="black"/>
<path d="M214.452 46.508H216.636V48.0824C216.636 48.5595 216.564 48.965 216.564 48.965H216.612C217.044 47.9631 218.484 46.2217 221.052 46.2217C223.812 46.2217 225.06 47.7245 225.06 50.6824V58.1252H222.828V51.1834C222.828 49.5613 222.516 48.2732 220.62 48.2732C218.34 48.2732 216.708 50.1577 216.708 52.5431V58.1252H214.476V46.508H214.452Z" fill="black"/>
<path d="M227.964 48.4403H226.428V46.6273H228.012V43.3115H230.22V46.6273H233.052V48.4403H230.22V53.6406C230.22 55.9545 231.852 56.2645 232.716 56.2645C232.884 56.2645 233.028 56.2645 233.244 56.2168V58.1968C233.052 58.2206 232.811 58.2683 232.452 58.2683C230.941 58.2683 227.964 57.7913 227.964 53.9031V48.4403Z" fill="black"/>
<path d="M133.931 51.1115L133.163 41.7129H128.483C128.483 41.7129 124.907 48.9646 124.619 49.9427H124.571L120.827 41.7129H116.147L115.379 49.8712L114.731 58.1487H117.587C118.811 58.1487 119.315 57.624 119.411 56.3358C119.411 56.3358 119.891 48.7501 119.819 47.6527H119.867L120.011 48.1537C120.203 48.8215 122.867 55.2861 122.867 55.2861H126.371C126.371 55.2861 129.035 48.9169 129.371 47.6527H129.419L129.827 56.3358C129.923 57.624 130.427 58.1487 131.651 58.1487H134.507L133.931 51.1115Z" fill="black"/>
<path d="M86.3556 69.9326H86.2115C76.8995 69.9089 70.6594 67.9766 69.3634 66.7838C67.9953 65.5672 66.1953 59.2697 66.1953 49.9664C66.1953 40.6869 67.9953 34.3654 69.3634 33.1488C70.6594 31.9561 76.9235 30.0239 86.2115 30H86.3556C95.6678 30.0239 101.908 31.9561 103.204 33.1488C104.572 34.3654 106.372 40.6869 106.372 49.9664C106.372 59.2457 104.572 65.5672 103.204 66.7838C101.908 68.0005 95.6678 69.9326 86.3556 69.9326Z" fill="#0357EE"/>
<path d="M95.5476 51.1582L94.7795 41.8311H90.1474C90.1474 41.8311 86.6194 49.0113 86.3074 49.9894H86.2594L82.5394 41.8311H77.8833L77.1153 49.9177L76.4673 58.1238H79.2993C80.5233 58.1238 81.0033 57.599 81.0993 56.3108C81.0993 56.3108 81.5793 48.7966 81.5073 47.6994H81.5553L81.6994 48.2002C81.8914 48.8682 84.5314 55.2851 84.5314 55.2851H88.0113C88.0113 55.2851 90.6515 48.9636 90.9874 47.6994H91.0354L91.4435 56.3108C91.5395 57.599 92.0435 58.1238 93.2435 58.1238H96.0754L95.5476 51.1582Z" fill="white"/>
</g>
<defs>
<clipPath id="clip0_298_10722">
<rect width="167.049" height="40" fill="white" transform="translate(66.1953 30)"/>
</clipPath>
</defs>
</svg>
