<svg width="300" height="100" viewBox="0 0 300 100" fill="none" xmlns="http://www.w3.org/2000/svg">
<rect width="300" height="100" fill="white"/>
<g clip-path="url(#clip0_298_10708)">
<path d="M84.4153 38.575C84.6468 42.8713 81.7989 46.5539 77.8475 47.6587C77.7941 47.6938 77.7585 47.7113 77.7229 47.7288C73.8605 48.7459 71.0126 52.2181 71.0126 56.3566C71.0126 56.3917 70.977 56.4443 70.9414 56.4969C70.3897 60.8985 66.5629 64.3005 61.9529 64.3005H61.7749C57.1649 64.3005 53.3381 60.8985 52.7864 56.4969C52.733 56.4267 52.7152 56.3917 52.7152 56.3566C52.7152 52.2356 49.8673 48.7459 46.0049 47.7288C45.9693 47.7113 45.9337 47.6938 45.8804 47.6587C41.9289 46.5539 39.0811 42.8713 39.3125 38.575C39.5439 34.1208 43.1749 30.4732 47.6958 30.1576C53 29.7893 57.4141 33.9279 57.4141 39.0659C57.4141 39.1186 57.4141 39.1887 57.4141 39.2413C57.6633 41.1527 58.5177 42.9239 59.8349 44.2917C60.9384 45.4316 62.7717 45.4316 63.8753 44.2917C65.1924 42.9239 66.0645 41.1527 66.2959 39.2413C66.2959 39.1887 66.2959 39.1186 66.2959 39.0659C66.2959 33.9279 70.7101 29.7893 76.0142 30.1576C80.5173 30.4732 84.1661 34.1208 84.4153 38.575Z" fill="#00B8C2"/>
<path d="M83.4362 69.8947C88.4397 69.8947 92.4959 65.8985 92.4959 60.9688C92.4959 56.0392 88.4397 52.043 83.4362 52.043C78.4326 52.043 74.3765 56.0392 74.3765 60.9688C74.3765 65.8985 78.4326 69.8947 83.4362 69.8947Z" fill="#FDB515"/>
<path d="M40.0598 69.9822C45.0633 69.9822 49.1194 65.986 49.1194 61.0563C49.1194 56.1267 45.0633 52.1304 40.0598 52.1304C35.0562 52.1304 31 56.1267 31 61.0563C31 65.986 35.0562 69.9822 40.0598 69.9822Z" fill="#FDB515"/>
<path d="M224.529 37.4704C226.623 37.4704 228.321 35.7981 228.321 33.7352C228.321 31.6723 226.623 30 224.529 30C222.436 30 220.738 31.6723 220.738 33.7352C220.738 35.7981 222.436 37.4704 224.529 37.4704Z" fill="#063A4F"/>
<path d="M123.359 61.9509H116.916C116.542 61.9509 116.239 61.6528 116.239 61.2845C116.239 61.267 116.239 61.2494 116.239 61.2144C116.239 57.146 116.239 53.0951 116.222 49.0267C116.204 47.2906 115.296 46.028 113.818 45.6247C111.63 45.0285 109.743 46.2385 109.44 48.448C109.369 48.9741 109.333 49.5002 109.333 50.0263C109.315 53.7264 109.333 57.4266 109.333 61.1267V61.2494C109.333 61.6177 109.031 61.9158 108.657 61.9158H102.32C101.947 61.9158 101.644 61.6177 101.644 61.2494V39.8378C101.644 39.4695 101.947 39.1714 102.32 39.1714H107.856C108.23 39.1714 108.532 39.4695 108.532 39.8378C108.532 40.399 109.173 40.697 109.636 40.3638C111.326 39.0662 113.267 38.6102 115.385 38.6278C117.77 38.6278 119.853 39.2766 121.454 41.0478C121.722 41.3459 122.184 41.3283 122.451 41.0478C123.715 39.7676 125.282 39.0837 127.079 38.8206C130.354 38.3297 133.433 38.6453 135.978 41.0127C137.58 42.5033 138.488 44.3972 138.63 46.519C138.809 49.0969 138.773 51.6922 138.79 54.27C138.809 56.5848 138.79 58.9171 138.79 61.267C138.79 61.6352 138.488 61.9334 138.114 61.9334H131.671C131.298 61.9334 130.994 61.6352 130.994 61.267C130.994 61.2494 130.994 61.2319 130.994 61.2144C130.994 57.1284 131.048 53.0425 130.959 48.9741C130.852 46.028 128.538 45.0635 126.26 45.7124C124.872 46.1157 124.053 47.4835 124.035 49.3424C124.018 53.3055 124.035 57.2512 124.035 61.2144C124.035 61.2494 124.035 61.267 124.035 61.3021C124.035 61.6528 123.733 61.9509 123.359 61.9509Z" fill="#063A4F"/>
<path d="M163.906 42.4331C161.271 39.5222 157.836 38.3823 153.956 38.3823C153.511 38.3823 153.066 38.3647 152.603 38.3823C152.283 38.3999 151.963 38.4524 151.659 38.5051C148.189 39.0663 145.252 40.5392 143.241 43.4503C141.265 46.3087 140.731 49.5178 141.336 52.9023C141.923 56.1464 143.561 58.7769 146.391 60.6182C149.115 62.3893 152.14 62.9505 155.362 62.6875C157.979 62.4595 160.381 61.6177 162.464 59.9869C165.169 57.865 166.54 55.0066 166.843 51.6747C167.127 48.2201 166.273 45.0636 163.906 42.4331ZM153.991 56.0412C150.841 56.0412 148.687 53.7966 148.687 50.5173C148.687 47.2731 150.823 45.0636 153.991 45.0636C157.159 45.0636 159.313 47.2907 159.313 50.5173C159.313 53.7791 157.142 56.0237 153.991 56.0412Z" fill="#063A4F"/>
<path d="M191.992 61.9508H185.264C184.979 61.9508 184.766 61.7228 184.766 61.4598V61.2143C184.766 57.444 184.783 53.6737 184.748 49.921C184.748 49.2722 184.677 48.6058 184.516 47.992C184.036 46.1858 182.558 45.309 180.369 45.4493C178.661 45.5545 177.343 46.747 177.112 48.4655C177.041 48.9916 177.005 49.5177 177.005 50.0438C176.987 53.7439 177.005 57.444 177.005 61.1442V61.4423C177.005 61.7228 176.774 61.9333 176.506 61.9333H169.814C169.53 61.9333 169.316 61.7053 169.316 61.4423V39.6799C169.316 39.3993 169.547 39.1889 169.814 39.1889H176.115C176.4 39.1889 176.614 39.4168 176.614 39.6799V39.9955C176.614 40.4164 177.13 40.6443 177.45 40.3638C177.646 40.1884 177.859 40.0306 178.073 39.8903C183.377 36.3831 190.978 39.4695 192.223 45.6422C192.402 46.554 192.508 47.5186 192.508 48.4479C192.544 52.7794 192.526 57.1108 192.526 61.4423C192.508 61.7403 192.277 61.9508 191.992 61.9508Z" fill="#063A4F"/>
<path d="M202.138 61.9509H195.41C195.142 61.9509 194.929 61.7405 194.929 61.4774V39.6449C194.929 39.3818 195.142 39.1713 195.41 39.1713H201.746C202.013 39.1713 202.226 39.3818 202.226 39.6449V40.0306C202.226 40.434 202.725 40.662 203.027 40.3989C203.241 40.2236 203.454 40.0482 203.668 39.9079C208.973 36.4007 216.573 39.487 217.818 45.6597C217.997 46.5717 218.103 47.5361 218.103 48.4656C218.139 52.797 218.122 57.1284 218.122 61.4598C218.122 61.7229 217.89 61.9333 217.641 61.9333H210.877C210.61 61.9333 210.397 61.7229 210.397 61.4598C210.397 61.3897 210.397 61.3021 210.397 61.2319C210.397 57.4616 210.414 53.6913 210.378 49.9386C210.378 49.2897 210.307 48.6233 210.147 48.0096C209.666 46.2034 208.19 45.3265 206 45.4669C204.291 45.5721 202.974 46.7645 202.743 48.4831C202.672 49.0092 202.636 49.5353 202.636 50.0613C202.618 53.7615 202.636 57.4616 202.636 61.1617V61.4949C202.618 61.7229 202.405 61.9509 202.138 61.9509Z" fill="#063A4F"/>
<path d="M268.599 39.1364C268.511 39.3819 268.457 39.5748 268.386 39.7502C264.275 49.8335 260.145 59.8993 256.034 70.0001H248.167C249.11 67.5626 250.053 65.1426 251.014 62.7226C251.192 62.3017 251.175 61.951 250.996 61.5477C248.629 56.2342 246.262 50.9207 243.895 45.6073H242.506C242.203 45.6073 241.955 45.8528 241.955 46.1509V61.3723C241.955 61.6704 241.705 61.9159 241.403 61.9159H234.71C234.407 61.9159 234.159 61.6704 234.159 61.3723V46.1684C234.159 45.8703 233.909 45.6248 233.607 45.6248H231.186C230.883 45.6248 230.634 45.3793 230.634 45.0812V39.6801C230.634 39.3819 230.883 39.1364 231.186 39.1364H234.123C234.123 39.189 234.123 39.2066 234.14 39.1364V39.0838C234.14 39.0137 234.159 38.926 234.159 38.7857C234.23 37.7335 234.319 36.6288 234.639 35.6292C235.583 32.7007 237.825 31.175 240.744 30.4911C242.435 30.0878 245.567 30.0527 247.276 30.3508C247.401 30.3684 247.721 30.4034 248.024 30.4385C248.309 30.4736 248.523 30.7015 248.523 30.9821V35.9975C248.523 36.2956 248.273 36.5411 247.971 36.5411C246.938 36.5411 245.087 36.5411 244.553 36.5411C242.915 36.5411 242.026 37.3828 241.972 38.9435C241.972 38.926 241.972 38.9085 241.972 38.891C241.972 38.2421 241.972 38.8033 241.972 39.154C241.972 39.3644 241.972 39.4871 241.972 39.154C244.304 39.154 246.582 39.154 248.86 39.1715C248.931 39.1715 249.003 39.1715 249.056 39.1715H249.163C249.323 39.1715 249.555 39.4346 249.626 39.6274C251.335 43.6783 253.025 47.7291 254.734 51.78C254.823 52.008 254.93 52.2359 255.072 52.5691C255.802 50.7454 256.496 49.0268 257.172 47.2907C258.169 44.7655 259.184 42.2579 260.145 39.7326C260.323 39.2767 260.536 39.154 261.035 39.154C263.509 39.154 266.001 39.1364 268.599 39.1364Z" fill="#063A4F"/>
<path d="M234.142 39.0662C234.142 39.0838 234.142 39.1013 234.142 39.1188H234.123C234.105 38.9259 234.142 38.3122 234.142 39.0662Z" fill="#063A4F"/>
<path d="M248.843 39.1539C246.564 39.1364 244.286 39.1364 241.955 39.1364C241.955 39.3468 241.955 39.4696 241.955 39.1364C241.955 38.8032 241.955 38.2421 241.955 38.8734C241.955 38.8909 241.955 38.9084 241.955 38.926C241.955 38.9786 241.972 39.0312 241.99 39.1189H248.664C248.718 39.1189 248.789 39.1364 248.843 39.1539Z" fill="#063A4F"/>
<path d="M228.214 39.7676V61.3371C228.214 61.6703 227.946 61.9334 227.608 61.9334H221.165C220.826 61.9334 220.56 61.6703 220.56 61.3371V39.7676C220.56 39.4344 220.826 39.1714 221.165 39.1714H227.608C227.946 39.1714 228.214 39.4344 228.214 39.7676Z" fill="#063A4F"/>
</g>
<defs>
<clipPath id="clip0_298_10708">
<rect width="237.6" height="40" fill="white" transform="translate(31 30)"/>
</clipPath>
</defs>
</svg>
