<svg width="300" height="100" viewBox="0 0 300 100" fill="none" xmlns="http://www.w3.org/2000/svg">
<rect width="300" height="100" fill="white"/>
<g clip-path="url(#clip0_298_10698)">
<path d="M27.3177 36.2746C27.3177 32.8791 29.4405 30.6155 32.4136 30.6155C35.0319 30.6155 36.727 32.0289 37.0817 34.4334C39.5592 31.7473 42.8139 30.1878 46.564 30.1878C50.8097 30.1878 54.419 31.9559 57.1052 35.3514C59.9374 32.0968 64.3916 30.1878 67.8602 30.1878C76.1376 30.1878 81.7968 34.9967 81.7968 43.9105V63.4385C81.7968 66.834 79.674 69.0977 76.701 69.0977C73.7279 69.0977 71.6051 66.834 71.6051 63.4385V45.6839C71.6051 41.5791 69.3414 38.6791 65.6643 38.6791C61.9141 38.6791 59.6505 41.5791 59.6505 45.6839V63.4437C59.6505 66.8392 57.5277 69.1029 54.5546 69.1029C51.5816 69.1029 49.4588 66.8392 49.4588 63.4437V45.6839C49.4588 41.5791 47.1951 38.6791 43.518 38.6791C39.3454 38.6791 37.5042 41.5791 37.5042 45.6839V63.4437C37.5042 66.8392 35.3813 69.1029 32.4083 69.1029C29.4353 69.1029 27.3125 66.8392 27.3125 63.4437V36.2746H27.3177ZM200.352 38.5383C199.857 37.2656 199.716 36.4885 199.716 35.5653C199.716 32.3106 202.261 30.6155 205.02 30.6155C207.852 30.6155 209.052 32.6653 209.547 34.2248L216.057 54.3161H216.198L222.707 34.2248C223.202 32.6705 224.407 30.6155 227.234 30.6155C229.993 30.6155 232.539 32.3158 232.539 35.5653C232.539 36.4832 232.398 37.2656 231.902 38.5383L221.643 64.8572C220.652 67.4756 219.593 69.1029 216.125 69.1029C212.656 69.1029 211.597 67.4756 210.606 64.8572L200.352 38.5383ZM244.885 53.0591C245.594 58.0819 249.767 60.4186 254.508 60.4186C259.744 60.4186 263.354 56.3137 266.04 56.3137C268.23 56.3137 270.212 58.5096 270.212 60.7002C270.212 65.0867 261.158 69.3324 253.585 69.3324C242.125 69.3324 234.484 60.9819 234.484 49.7366C234.484 39.4093 241.985 30 252.74 30C263.776 30 271.063 40.0456 271.063 48.537C271.063 51.5778 269.717 53.0643 266.603 53.0643H244.885V53.0591ZM260.876 45.4909C260.313 41.0314 257.481 37.709 252.74 37.709C248.212 37.709 245.171 41.1775 244.676 45.4909H260.876ZM196.138 50.0496C196.148 61.0445 187.239 69.9583 176.25 69.9687C175.999 69.9687 175.749 69.9583 175.499 69.9478L105.534 70H105.529H105.523H104.632V69.9791C94.0539 69.5149 85.62 60.8045 85.6095 50.1121C85.6043 39.4197 94.0278 30.6937 104.6 30.2191V30.1982L175.827 30.146V30.1773C175.958 30.1721 176.088 30.1669 176.218 30.1669C187.208 30.1513 196.127 39.0546 196.138 50.0496ZM188.517 50.0548C188.512 43.5663 183.468 38.267 177.095 37.8237V37.7611L105.503 37.8133C98.7169 37.8185 93.2246 43.3212 93.2298 50.1069C93.235 56.8927 98.7377 62.3849 105.523 62.3797C105.523 62.3797 105.523 62.3797 105.529 62.3797L175.869 62.3275C175.994 62.3328 176.119 62.3484 176.245 62.3484C176.37 62.3484 176.495 62.3328 176.62 62.3275H177.11V62.3015C183.484 61.8529 188.517 56.5432 188.517 50.0548ZM107.386 56.6371C111 56.6371 113.926 53.711 113.926 50.0965C113.926 46.4819 111 43.5559 107.386 43.5559C103.771 43.5559 100.845 46.4819 100.845 50.0965C100.845 53.711 103.776 56.6371 107.386 56.6371ZM174.351 56.6371C177.966 56.6371 180.892 53.711 180.892 50.0965C180.892 46.4819 177.966 43.5559 174.351 43.5559C170.737 43.5559 167.811 46.4819 167.811 50.0965C167.811 53.711 170.742 56.6371 174.351 56.6371Z" fill="black"/>
</g>
<defs>
<clipPath id="clip0_298_10698">
<rect width="243.75" height="40" fill="white" transform="translate(27.3125 30)"/>
</clipPath>
</defs>
</svg>
