<svg width="300" height="100" viewBox="0 0 300 100" fill="none" xmlns="http://www.w3.org/2000/svg">
<rect width="300" height="100" fill="white"/>
<g clip-path="url(#clip0_291_8140)">
<path d="M169.6 30.4004H130.4V69.5992H169.6V30.4004Z" fill="#FFC325"/>
<path d="M130.996 50.0001C130.996 45.9061 139.504 42.5869 150 42.5869C160.496 42.5869 169.004 45.9069 169.004 50.0005C169.004 54.0941 160.496 57.4125 150 57.4125C139.504 57.4125 130.996 54.0937 130.996 50.0001Z" fill="#006891"/>
<path d="M130.996 50.0001C130.996 45.9061 139.504 42.5869 150 42.5869C160.496 42.5869 169.004 45.9069 169.004 50.0005C169.004 54.0941 160.496 57.4125 150 57.4125C139.504 57.4125 130.996 54.0937 130.996 50.0001Z" stroke="#006891" stroke-width="1.40509" stroke-miterlimit="3.8636"/>
<path fill-rule="evenodd" clip-rule="evenodd" d="M137.961 53.603L139.933 46.2402H143.046V50.5706H143.067L145.179 46.2402H148.341L146.369 53.603H144.313L145.578 48.8802H145.557L143.046 53.603H141.4V48.8802H141.367L140.102 53.603H137.961Z" fill="white"/>
<path fill-rule="evenodd" clip-rule="evenodd" d="M148.898 53.749L149.178 52.7026H151.446L151.166 53.749H148.898Z" fill="#EE4034"/>
<path fill-rule="evenodd" clip-rule="evenodd" d="M149.256 52.4082L150.404 48.1274H148.341L148.847 46.2402H155.24L154.735 48.1274H152.672L151.525 52.407L149.256 52.4082Z" fill="#FFC325"/>
<path fill-rule="evenodd" clip-rule="evenodd" d="M153.774 53.603L155.746 46.2402H157.974L158.979 50.1798H158.998L160.054 46.2402H162.113L160.142 53.603H158.022L156.93 49.5818H156.911L155.834 53.603H153.774Z" fill="white"/>
</g>
<defs>
<clipPath id="clip0_291_8140">
<rect width="40" height="40" fill="white" transform="translate(130 30)"/>
</clipPath>
</defs>
</svg>
