<svg width="300" height="100" viewBox="0 0 300 100" fill="none" xmlns="http://www.w3.org/2000/svg">
<rect width="300" height="100" fill="white"/>
<g clip-path="url(#clip0_311_348)">
<path d="M121.527 46.1838C125.601 57.0213 124.064 67.5123 118.095 69.6161C112.125 71.7196 103.984 64.6397 99.9103 53.8022C95.8363 42.9647 97.3732 32.4738 103.343 30.37C109.312 28.2663 117.453 35.3464 121.527 46.1838Z" fill="#0C4132"/>
<path d="M93.8415 51.4179C90.7588 62.4313 85.7727 70.7211 82.7047 69.9343C79.6367 69.1472 79.6487 59.5814 82.7314 48.5681C85.8141 37.5548 90.8003 29.2648 93.8682 30.0517C96.9363 30.8386 96.9242 40.4046 93.8415 51.4179Z" fill="#1F5F00"/>
<path d="M78.3254 51.5274C72.37 62.5362 66.4272 70.7736 65.0519 69.926C63.6766 69.0787 67.3894 59.4672 73.3448 48.4586C79.3002 37.4498 85.243 29.2125 86.6184 30.0599C87.9937 30.9074 84.2808 40.5187 78.3254 51.5274Z" fill="#77D456"/>
<path d="M189.998 60.5566C189.998 61.6608 190.893 62.5558 191.997 62.5558H193.259C193.534 62.5558 193.758 62.3321 193.758 62.056V38.9969C193.758 37.8927 192.863 36.9976 191.759 36.9976H190.498C190.222 36.9976 189.998 37.2213 189.998 37.4974V60.5566Z" fill="#001912"/>
<path d="M162.079 62.5556C160.975 62.5556 160.08 61.6607 160.08 60.5565V50.2952C160.08 48.8851 159.741 47.8666 159.062 47.2399C158.409 46.6131 157.338 46.2998 155.849 46.2998C154.178 46.2998 152.873 46.7045 151.932 47.5141C151.019 48.3236 150.561 49.4073 150.561 50.7653V62.0558C150.561 62.332 150.338 62.5556 150.062 62.5556H147.301C147.025 62.5556 146.801 62.332 146.801 62.0558V50.2952C146.801 48.8851 146.448 47.8666 145.743 47.2399C145.064 46.6131 143.968 46.2998 142.453 46.2998C140.782 46.2998 139.476 46.8612 138.536 47.9841C137.674 49.0026 137.243 50.3083 137.243 51.9012V60.5565C137.243 61.6607 136.348 62.5556 135.244 62.5556H133.983C133.707 62.5556 133.483 62.332 133.483 62.0558V43.8618C133.483 43.5857 133.707 43.3619 133.983 43.3619H136.068C136.717 43.3619 137.243 43.8881 137.243 44.5371C138.784 43.4925 140.651 42.9702 142.845 42.9702C145.509 42.9702 147.571 43.7928 149.034 45.438C150.549 43.7928 152.794 42.9702 155.771 42.9702C158.356 42.9702 160.341 43.5708 161.725 44.7721C163.136 45.9472 163.841 47.6707 163.841 49.9427V62.0558C163.841 62.332 163.617 62.5556 163.341 62.5556H162.079Z" fill="#001912"/>
<path d="M183.911 62.6344C183.175 62.6344 182.579 62.0379 182.579 61.3025C180.908 62.4253 178.858 62.9868 176.429 62.9868C173.766 62.9868 171.638 62.386 170.044 61.1849C168.321 59.8791 167.459 58.0251 167.459 55.6226V43.9403C167.459 43.6642 167.683 43.4404 167.959 43.4404H169.22C170.325 43.4404 171.22 44.3355 171.22 45.4397V55.5835C171.22 58.2993 172.956 59.6571 176.429 59.6571C180.529 59.6571 182.579 57.6856 182.579 53.7424V43.9403C182.579 43.6642 182.803 43.4404 183.079 43.4404H184.34C185.445 43.4404 186.34 44.3355 186.34 45.4397V62.1343C186.34 62.4104 186.116 62.6344 185.84 62.6344H183.911Z" fill="#001912"/>
<path fill-rule="evenodd" clip-rule="evenodd" d="M215.527 62.5949C214.532 62.5949 213.725 61.7883 213.725 60.793C211.897 62.2554 209.534 62.9866 206.635 62.9866C203.345 62.9866 200.734 62.0074 198.801 60.0487C196.999 58.2208 196.098 55.8836 196.098 53.0372C196.098 50.1124 197.013 47.736 198.84 45.9081C200.799 43.9495 203.449 42.9702 206.792 42.9702C209.56 42.9702 211.871 43.6753 213.725 45.0855V45.0479C213.725 43.9437 214.621 43.0486 215.725 43.0486H216.986C217.262 43.0486 217.486 43.2724 217.486 43.5484V62.0951C217.486 62.3712 217.262 62.5949 216.986 62.5949H215.527ZM211.884 48.1016C210.683 46.9004 208.92 46.2998 206.596 46.2998C204.455 46.2998 202.771 46.9526 201.543 48.2583C200.42 49.4857 199.859 51.0786 199.859 53.0372C199.859 54.9957 200.42 56.5626 201.543 57.7377C202.744 59.0173 204.429 59.657 206.596 59.657C208.764 59.657 210.487 59.0305 211.767 57.7769C213.072 56.5234 213.725 54.9435 213.725 53.0372C213.725 50.9481 213.112 49.3029 211.884 48.1016Z" fill="#001912"/>
<path d="M225.103 54.6824C225.103 52.2799 225.625 50.3344 226.67 48.8459C227.593 47.5113 229.187 46.7014 231.451 46.4161C232.547 46.2781 233.446 45.4047 233.446 44.3005V43.4701C233.446 43.194 233.222 42.9697 232.946 42.9747C229.487 43.0371 226.873 43.7537 225.103 45.1246C225.103 44.1511 224.313 43.3619 223.34 43.3619H221.842C221.566 43.3619 221.342 43.5857 221.342 43.8618V60.5565C221.342 61.6607 222.237 62.5556 223.342 62.5556H224.603C224.879 62.5556 225.103 62.332 225.103 62.0558V54.6824Z" fill="#001912"/>
</g>
<defs>
<clipPath id="clip0_311_348">
<rect width="168.688" height="40" fill="white" transform="translate(64.7656 30)"/>
</clipPath>
</defs>
</svg>
