<svg width="300" height="100" viewBox="0 0 300 100" fill="none" xmlns="http://www.w3.org/2000/svg">
<rect width="300" height="100" fill="white"/>
<g clip-path="url(#clip0_291_8084)">
<path fill-rule="evenodd" clip-rule="evenodd" d="M133.064 57.1685H131.434V61.6911L129.751 62.9516V57.1685H128.173V63.6904H129.593L131.434 62.3203V63.6904H133.064V57.1685Z" fill="#100F14"/>
<path fill-rule="evenodd" clip-rule="evenodd" d="M137.166 57.1685H135.588V63.6904H138.901V63.2169H137.166V57.1685Z" fill="#100F14"/>
<path fill-rule="evenodd" clip-rule="evenodd" d="M125.649 63.6889H124.072V56.695L122.336 57.9556V63.6889H120.811V56.695L119.076 57.9556V63.6889H117.498V55.7485H119.076V57.2212L121.022 55.7485H122.337V57.2212L124.335 55.7485H125.65L125.649 63.6889Z" fill="#100F14"/>
<path d="M145.421 57.1685H146.999V63.6367H145.421V57.1685Z" fill="#100F14"/>
<path fill-rule="evenodd" clip-rule="evenodd" d="M138.849 57.1685H144V57.642H142.214V63.6904H140.636V57.642H138.849V57.1685Z" fill="#100F14"/>
<path fill-rule="evenodd" clip-rule="evenodd" d="M149.523 56.8003C149.523 56.1694 150.259 55.7485 150.996 55.7485H153.414V57.1686H152.784V56.3267H151.101V63.1107H151.837C152.072 63.1166 152.3 63.0331 152.476 62.8772C152.652 62.7212 152.762 62.5044 152.784 62.2705V61.797H153.414V62.2705C153.377 62.6572 153.192 63.0146 152.898 63.269C152.605 63.5235 152.225 63.6555 151.837 63.6379H149.523V56.8003Z" fill="#100F14"/>
<path fill-rule="evenodd" clip-rule="evenodd" d="M155.203 57.1685H156.78V60.0606L158.463 58.8V57.1685H160.093V63.6904H158.463V59.4298L156.781 60.6903V63.6904H155.203V57.1685Z" fill="#100F14"/>
<path d="M169.98 57.1685H171.558V63.6367H169.98V57.1685Z" fill="#100F14"/>
<path fill-rule="evenodd" clip-rule="evenodd" d="M175.659 57.6421V63.2685H176.133C176.606 63.2685 176.974 63.0055 176.974 62.6377V62.1116H177.552V62.6377C177.552 63.2685 176.869 63.6895 176.132 63.6895H174.134V58.0099C174.134 57.5363 174.765 57.2212 175.133 57.2212H177.552V58.4308H176.974V57.6421H175.659Z" fill="#100F14"/>
<path fill-rule="evenodd" clip-rule="evenodd" d="M179.445 57.1685H182.758V57.642H181.023V59.7444H182.443V60.1653H181.023V63.2153H182.758V63.6904H179.445V57.1685Z" fill="#100F14"/>
<path fill-rule="evenodd" clip-rule="evenodd" d="M164.143 57.642H165.878V63.2684H164.143V57.642ZM166.352 57.1685H163.721C163.143 57.1685 162.616 57.5368 162.616 58.0097V62.8475C162.616 63.2684 163.037 63.6888 163.721 63.6888H166.403C166.876 63.6888 167.454 63.2679 167.454 62.8475V58.0097C167.455 57.5894 166.93 57.1685 166.352 57.1685Z" fill="#100F14"/>
<path fill-rule="evenodd" clip-rule="evenodd" d="M149.891 30.3496L145.106 35.4505L149.891 53.8035V30.3496Z" fill="#CC6B39"/>
<path d="M149.891 30.3496L145.106 35.4505L149.891 53.8035V30.3496Z" stroke="#CC6B39" stroke-width="0.5" stroke-miterlimit="3.864"/>
<path fill-rule="evenodd" clip-rule="evenodd" d="M126.28 35.3979L127.068 41.3927L148.997 53.8557L126.28 35.3979Z" fill="#822A85"/>
<path d="M126.28 35.3979L127.068 41.3927L148.997 53.8557L126.28 35.3979Z" stroke="#822A85" stroke-width="0.5" stroke-miterlimit="3.864"/>
<path fill-rule="evenodd" clip-rule="evenodd" d="M148.997 53.8557L134.325 37.8171L126.28 35.3979L148.997 53.8557Z" fill="#EC008C"/>
<path d="M148.997 53.8557L134.325 37.8171L126.28 35.3979L148.997 53.8557Z" stroke="#EC008C" stroke-width="0.5" stroke-miterlimit="3.864"/>
<path fill-rule="evenodd" clip-rule="evenodd" d="M148.209 53.9608L125.807 41.8135L117.288 42.0239L148.209 53.9608Z" fill="#5F6DB3"/>
<path d="M148.209 53.9608L125.807 41.8135L117.288 42.0239L148.209 53.9608Z" stroke="#5F6DB3" stroke-width="0.5" stroke-miterlimit="3.864"/>
<path fill-rule="evenodd" clip-rule="evenodd" d="M117.288 42.0234L119.391 46.5461L148.209 53.9609L117.288 42.0234Z" fill="#46065C"/>
<path d="M117.288 42.0234L119.391 46.5461L148.209 53.9609L117.288 42.0234Z" stroke="#46065C" stroke-width="0.5" stroke-miterlimit="3.864"/>
<path fill-rule="evenodd" clip-rule="evenodd" d="M137.639 31.6113L135.693 37.3962L149.471 53.803L137.639 31.6113Z" fill="#B82837"/>
<path d="M137.639 31.6113L135.693 37.3962L149.471 53.803L137.639 31.6113Z" stroke="#B82837" stroke-width="0.5" stroke-miterlimit="3.864"/>
<path fill-rule="evenodd" clip-rule="evenodd" d="M149.471 53.803L143.582 35.6621L137.639 31.6113L149.471 53.803Z" fill="#ED1C24"/>
<path d="M149.471 53.803L143.582 35.6621L137.639 31.6113L149.471 53.803Z" stroke="#ED1C24" stroke-width="0.5" stroke-miterlimit="3.864"/>
<path fill-rule="evenodd" clip-rule="evenodd" d="M149.891 30.3496L154.625 35.4505L149.891 53.8035V30.3496Z" fill="#F37021"/>
<path d="M149.891 30.3496L154.625 35.4505L149.891 53.8035V30.3496Z" stroke="#F37021" stroke-width="0.5" stroke-miterlimit="3.864"/>
<path fill-rule="evenodd" clip-rule="evenodd" d="M173.398 35.3979L172.662 41.3927L150.838 53.8557L173.398 35.3979Z" fill="#50B848"/>
<path d="M173.398 35.3979L172.662 41.3927L150.838 53.8557L173.398 35.3979Z" stroke="#50B848" stroke-width="0.5" stroke-miterlimit="3.864"/>
<path fill-rule="evenodd" clip-rule="evenodd" d="M150.838 53.8557L165.299 37.8171L173.398 35.3979L150.838 53.8557Z" fill="#639144"/>
<path d="M150.838 53.8557L165.299 37.8171L173.398 35.3979L150.838 53.8557Z" stroke="#639144" stroke-width="0.5" stroke-miterlimit="3.864"/>
<path fill-rule="evenodd" clip-rule="evenodd" d="M151.574 53.9608L174.081 41.8135L182.706 41.9713L151.574 53.9608Z" fill="#007196"/>
<path d="M151.574 53.9608L174.081 41.8135L182.706 41.9713L151.574 53.9608Z" stroke="#007196" stroke-width="0.5" stroke-miterlimit="3.864"/>
<path fill-rule="evenodd" clip-rule="evenodd" d="M182.704 41.9712L180.495 46.5464L151.574 53.9612L182.704 41.9712Z" fill="#00ABBD"/>
<path d="M182.704 41.9712L180.495 46.5464L151.574 53.9612L182.704 41.9712Z" stroke="#00ABBD" stroke-width="0.5" stroke-miterlimit="3.864"/>
<path fill-rule="evenodd" clip-rule="evenodd" d="M161.931 31.6113L163.824 37.3962L150.312 53.803L161.931 31.6113Z" fill="#FDB933"/>
<path d="M161.931 31.6113L163.824 37.3962L150.312 53.803L161.931 31.6113Z" stroke="#FDB933" stroke-width="0.5" stroke-miterlimit="3.864"/>
<path fill-rule="evenodd" clip-rule="evenodd" d="M150.312 53.803L156.202 35.6621L161.931 31.6113L150.312 53.803Z" fill="#E28F38"/>
<path d="M150.312 53.803L156.202 35.6621L161.931 31.6113L150.312 53.803Z" stroke="#E28F38" stroke-width="0.5" stroke-miterlimit="3.864"/>
<path fill-rule="evenodd" clip-rule="evenodd" d="M128.857 66.792V69.9472H129.961V69.5789H129.278V68.5272H129.908V68.1589H129.278V67.1603H129.961V66.792H128.857Z" fill="#100F14"/>
<path fill-rule="evenodd" clip-rule="evenodd" d="M132.117 67.528V67.4732L132.853 69.945H133.274V66.792H132.853V67.8963L132.958 69.1569V69.2117L132.17 66.792H131.801V69.9472H132.222V68.7902L132.168 67.7385L132.117 67.528Z" fill="#100F14"/>
<path fill-rule="evenodd" clip-rule="evenodd" d="M135.693 68.1597V67.1079H135.748C136.064 67.1079 136.116 67.371 136.116 67.6341C136.114 68.0024 136.008 68.2123 135.693 68.1597ZM135.275 69.9475H135.695V68.3696L136.274 69.9475H136.695L136.114 68.3696C136.482 68.3148 136.535 67.844 136.535 67.5283C136.535 66.7396 136.061 66.687 135.746 66.687H135.22V69.9475H135.275Z" fill="#100F14"/>
<path d="M138.48 66.792H138.901V69.9998H138.48V66.792Z" fill="#100F14"/>
<path fill-rule="evenodd" clip-rule="evenodd" d="M142.162 66.845C142.05 66.779 141.924 66.7428 141.794 66.7397C140.953 66.7397 140.847 67.7915 140.847 68.4223C140.847 69.1057 140.953 69.9996 141.846 69.9996C141.904 70.0069 141.962 70.0012 142.016 69.983C142.071 69.9648 142.121 69.9345 142.162 69.8944V69.5261C142.082 69.5694 141.99 69.5884 141.899 69.5809C141.321 69.5809 141.268 68.7922 141.268 68.3713C141.268 67.9504 141.268 67.1108 141.846 67.1108C141.944 67.1127 142.038 67.1502 142.11 67.216V66.8477L142.162 66.845Z" fill="#100F14"/>
<path fill-rule="evenodd" clip-rule="evenodd" d="M143.949 66.792V69.9472H144.37V68.3699H145.001V69.9472H145.422V66.792H145.001V68.0016H144.37V66.792H143.949Z" fill="#100F14"/>
<path d="M147.42 66.792H147.841V69.9998H147.42V66.792Z" fill="#100F14"/>
<path fill-rule="evenodd" clip-rule="evenodd" d="M150.207 67.528V67.4732L150.943 69.945H151.312V66.792H150.891V67.8963L150.996 69.1569V69.2117L150.26 66.792H149.839V69.9472H150.26V68.7902L150.205 67.7385L150.207 67.528Z" fill="#100F14"/>
<path fill-rule="evenodd" clip-rule="evenodd" d="M154.098 68.2647V68.633H154.467V68.7909C154.467 69.5269 154.256 69.5795 154.098 69.5795C153.888 69.5795 153.73 69.4743 153.73 68.3699C153.73 67.5813 153.73 67.1094 154.098 67.1094C154.362 67.1094 154.414 67.3198 154.467 67.5303L154.888 67.3725C154.878 67.2789 154.849 67.1883 154.804 67.1057C154.759 67.0232 154.698 66.9504 154.625 66.8916C154.552 66.8327 154.467 66.789 154.377 66.7629C154.287 66.7368 154.192 66.7288 154.098 66.7394C153.365 66.7394 153.31 67.4755 153.31 68.3694C153.31 69.2633 153.415 69.9993 154.151 69.9993C154.992 69.9993 154.887 68.9476 154.887 68.3168V68.262L154.098 68.2647Z" fill="#100F14"/>
<path fill-rule="evenodd" clip-rule="evenodd" d="M159.094 66.792V69.9472H160.251V69.5789H159.515V66.792H159.094Z" fill="#100F14"/>
<path d="M161.987 66.792H162.408V69.9998H161.987V66.792Z" fill="#100F14"/>
<path fill-rule="evenodd" clip-rule="evenodd" d="M164.143 66.792L164.774 69.9472H165.142L165.72 66.792H165.352L165.141 67.8963L164.984 68.9481V69.1585H164.929L164.564 66.792H164.143Z" fill="#100F14"/>
<path fill-rule="evenodd" clip-rule="evenodd" d="M167.508 66.792V69.9472H168.665V69.5789H167.929V68.5272H168.56V68.1589H167.929V67.1603H168.665V66.792H167.508Z" fill="#100F14"/>
<path fill-rule="evenodd" clip-rule="evenodd" d="M171.452 66.8447C171.312 66.7549 171.144 66.7176 170.979 66.7395C170.873 66.7405 170.769 66.7637 170.673 66.8078C170.577 66.8519 170.492 66.9157 170.422 66.9952C170.353 67.0746 170.301 67.1679 170.27 67.2688C170.239 67.3697 170.23 67.476 170.243 67.5808C170.243 68.4221 171.137 68.5273 171.137 69.1587C171.137 69.4217 171.031 69.5796 170.768 69.5796C170.613 69.5838 170.462 69.5271 170.347 69.4217V69.8426C170.482 69.949 170.65 70.0048 170.821 70.0005C170.927 69.9995 171.031 69.9762 171.127 69.9322C171.223 69.8881 171.308 69.8243 171.378 69.7448C171.447 69.6654 171.499 69.5721 171.53 69.4712C171.561 69.3703 171.57 69.264 171.557 69.1592C171.556 68.9757 171.513 68.7948 171.431 68.6306C171.349 68.4665 171.23 68.3235 171.084 68.2127L170.768 67.8444C170.724 67.7948 170.692 67.7359 170.673 67.6722C170.655 67.6085 170.652 67.5415 170.663 67.4761C170.659 67.3721 170.694 67.2706 170.763 67.1923C170.831 67.114 170.927 67.0649 171.031 67.0552C171.1 67.0532 171.169 67.0663 171.232 67.0936C171.296 67.1208 171.353 67.1616 171.399 67.213L171.452 66.8447Z" fill="#100F14"/>
</g>
<defs>
<clipPath id="clip0_291_8084">
<rect width="65.9597" height="40" fill="white" transform="translate(117.02 30)"/>
</clipPath>
</defs>
</svg>
