<svg width="300" height="100" viewBox="0 0 300 100" fill="none" xmlns="http://www.w3.org/2000/svg">
<rect width="300" height="100" fill="white"/>
<g clip-path="url(#clip0_311_332)">
<mask id="mask0_311_332" style="mask-type:luminance" maskUnits="userSpaceOnUse" x="84" y="30" width="41" height="40">
<path d="M124.352 30H84.3516V70H124.352V30Z" fill="white"/>
</mask>
<g mask="url(#mask0_311_332)">
<path d="M96.5321 51.1126C97.2489 51.5225 97.8776 51.8668 98.498 52.1783C99.0909 52.485 99.701 52.7587 100.326 52.998C101.521 53.4801 102.805 53.72 104.098 53.7031C104.766 53.698 105.431 53.628 106.085 53.494C106.756 53.3709 107.416 53.1899 108.055 52.953C109.402 52.4494 110.68 51.7815 111.856 50.9651C111.955 50.8959 112.076 50.8626 112.197 50.8709C112.319 50.8792 112.434 50.9285 112.522 51.0104C112.61 51.0924 112.666 51.2018 112.681 51.3199C112.696 51.438 112.668 51.5575 112.603 51.6578C111.718 53.031 110.511 54.1777 109.082 55.0024C108.352 55.4333 107.572 55.7785 106.76 56.0312C105.934 56.2945 105.078 56.4556 104.211 56.5107C103.329 56.5746 102.442 56.5194 101.575 56.3467C100.691 56.186 99.8404 55.8812 99.0597 55.445C98.2951 55.0271 97.6274 54.4587 97.0986 53.7758C96.5698 53.093 96.1914 52.3104 95.9872 51.4774C95.9741 51.413 95.98 51.3463 96.0043 51.2851C96.0286 51.2239 96.0704 51.1708 96.1246 51.132C96.1788 51.0932 96.2432 51.0704 96.3102 51.0662C96.3772 51.0621 96.4441 51.0768 96.5028 51.1085L96.5321 51.1126Z" fill="#7B61FF"/>
<path d="M112.888 33.0578C110.897 32.1315 108.759 31.5425 106.567 31.3158C106.005 31.2584 105.456 31.2297 104.89 31.2297C104.324 31.2297 103.796 31.2707 103.247 31.2953C102.975 31.2953 102.698 31.2953 102.43 31.3527L101.617 31.4797L100.808 31.6068C100.539 31.6601 100.279 31.742 100.011 31.8076C97.8813 32.3254 95.8657 33.2185 94.0634 34.4431C92.2711 35.6769 90.7312 37.2284 89.5239 39.0174C87.1157 42.587 86.0996 46.8841 86.6611 51.1252C87.2162 55.2507 89.165 59.0766 92.1982 61.9952C93.6845 63.4353 95.4293 64.5955 97.3454 65.4176C99.2375 66.2542 101.267 66.7526 103.339 66.8891C107.548 67.2178 111.734 66.0297 115.109 63.5486C118.562 61.0485 121.011 57.4448 122.029 53.3631C122.282 52.3383 122.449 51.2952 122.528 50.2439C122.586 49.7159 122.609 49.1846 122.595 48.6536C122.595 48.1208 122.558 47.5921 122.507 47.0592C122.312 44.9167 121.745 42.8223 120.831 40.866C120.789 40.7594 120.788 40.6414 120.829 40.5344C120.87 40.4275 120.95 40.3388 121.053 40.2854C121.156 40.2319 121.276 40.2172 121.389 40.2441C121.503 40.271 121.602 40.3377 121.669 40.4315C122.863 42.4127 123.681 44.5886 124.083 46.8543C124.188 47.424 124.259 47.9978 124.305 48.5717C124.359 49.1494 124.374 49.7298 124.352 50.3095C124.347 51.4706 124.242 52.6292 124.037 53.773C123.379 57.2869 121.766 60.5627 119.366 63.2559C116.965 65.9491 113.868 67.9602 110.398 69.0778C108.054 69.812 105.591 70.115 103.134 69.9714C99.4453 69.7508 95.892 68.5315 92.8712 66.4498C89.8504 64.3681 87.4812 61.506 86.0282 58.1833C85.0739 56.0046 84.515 53.68 84.3767 51.3137L84.3516 49.5594L84.5025 47.8134C84.652 46.6584 84.9002 45.5176 85.2444 44.4032C85.9183 42.1858 86.9713 40.0959 88.3587 38.2222C91.0991 34.4412 95.1205 31.7316 99.7094 30.5739C99.9944 30.5042 100.279 30.4222 100.548 30.3649L101.436 30.2378L102.304 30.1107C102.597 30.0697 102.891 30.0738 103.184 30.0533C103.767 30.0533 104.354 29.9755 104.94 30.0124C105.527 30.0492 106.11 30.0779 106.688 30.1558C109.003 30.4512 111.239 31.179 113.273 32.2995C113.376 32.3538 113.453 32.4459 113.486 32.5554C113.519 32.665 113.507 32.783 113.451 32.8836C113.396 32.9841 113.302 33.059 113.19 33.0916C113.078 33.1243 112.957 33.1121 112.854 33.0578H112.888Z" fill="#7B61FF"/>
<path d="M118.236 30.1929C118.18 31.615 117.609 32.9715 116.627 34.0211C116.059 34.603 115.379 35.0697 114.627 35.3947C113.875 35.7196 113.064 35.8963 112.242 35.9148C113.822 35.9082 115.339 36.5141 116.463 37.5997C117.586 38.6852 118.224 40.1619 118.236 41.7063C118.255 40.1845 118.884 38.7305 119.987 37.6574C121.091 36.5842 122.581 35.9776 124.138 35.9681C122.758 35.941 121.428 35.457 120.365 34.595C119.721 34.0431 119.199 33.3675 118.833 32.6103C118.467 31.853 118.264 31.0302 118.236 30.1929Z" fill="#7B61FF" stroke="#7B61FF" stroke-width="0.25" stroke-linecap="round" stroke-linejoin="round"/>
</g>
<path d="M131.971 54.8761V40.2476H133.891L139.193 51.2495L144.466 40.2476H146.406V54.866H144.395V44.8596L139.671 54.8761H138.706L133.972 44.8596V54.8761H131.971Z" fill="#101010"/>
<path d="M150.126 59.7524L152.249 53.9721L152.28 55.6788L147.495 43.9048H149.71L153.285 52.9968H152.635L156.049 43.9048H158.202L152.148 59.7524H150.126Z" fill="#101010"/>
<path d="M159.184 54.8761V40.2476H161.338L168.54 51.1174V40.2476H170.694V54.8761H168.54L161.338 43.9961V54.8761H159.184Z" fill="#101010"/>
<path d="M177.786 55.1811C176.696 55.1811 175.737 54.944 174.911 54.4699C174.091 53.9891 173.451 53.322 172.991 52.4687C172.537 51.6085 172.31 50.613 172.31 49.482C172.31 48.2833 172.534 47.2437 172.981 46.3633C173.435 45.4828 174.065 44.8022 174.87 44.3214C175.676 43.8405 176.614 43.6001 177.684 43.6001C178.802 43.6001 179.753 43.8609 180.539 44.3823C181.324 44.897 181.91 45.6318 182.296 46.5868C182.689 47.5417 182.845 48.6761 182.764 49.9899H180.64V49.2179C180.627 47.9447 180.383 47.0033 179.909 46.3937C179.442 45.7842 178.727 45.4795 177.766 45.4795C176.702 45.4795 175.903 45.8147 175.368 46.4852C174.833 47.1557 174.566 48.1241 174.566 49.3906C174.566 50.5961 174.833 51.5307 175.368 52.1944C175.903 52.8513 176.675 53.1798 177.684 53.1798C178.348 53.1798 178.92 53.0308 179.401 52.7328C179.889 52.428 180.268 51.9946 180.539 51.4325L182.621 52.0928C182.195 53.0748 181.548 53.8367 180.681 54.3785C179.814 54.9136 178.849 55.1811 177.786 55.1811ZM173.875 49.9899V48.3341H181.707V49.9899H173.875Z" fill="#101010"/>
<path d="M189.584 55.1809C188.534 55.1809 187.654 54.9269 186.943 54.419C186.232 53.9043 185.693 53.2101 185.327 52.3364C184.962 51.4628 184.779 50.4774 184.779 49.3803C184.779 48.2831 184.958 47.2977 185.317 46.4241C185.683 45.5504 186.218 44.863 186.922 44.3618C187.633 43.8539 188.507 43.5999 189.543 43.5999C190.573 43.5999 191.46 43.8539 192.205 44.3618C192.957 44.863 193.536 45.5504 193.942 46.4241C194.348 47.2909 194.552 48.2763 194.552 49.3803C194.552 50.4774 194.348 51.4662 193.942 52.3466C193.542 53.2203 192.97 53.911 192.225 54.419C191.487 54.9269 190.606 55.1809 189.584 55.1809ZM184.423 54.8761V40.2476H186.557V46.9828H186.313V54.8761H184.423ZM189.289 53.2609C189.966 53.2609 190.525 53.0882 190.966 52.7428C191.413 52.3974 191.744 51.9335 191.961 51.351C192.185 50.7618 192.296 50.1049 192.296 49.3803C192.296 48.6624 192.185 48.0122 191.961 47.4298C191.744 46.8474 191.409 46.3834 190.955 46.038C190.501 45.6926 189.922 45.5199 189.218 45.5199C188.554 45.5199 188.006 45.6825 187.573 46.0076C187.146 46.3326 186.827 46.7864 186.618 47.3688C186.414 47.9512 186.313 48.6217 186.313 49.3803C186.313 50.1388 186.414 50.8093 186.618 51.3917C186.821 51.9741 187.142 52.4312 187.583 52.7631C188.023 53.095 188.592 53.2609 189.289 53.2609Z" fill="#101010"/>
<path d="M200.949 55.1811C199.852 55.1811 198.901 54.9339 198.095 54.4395C197.289 53.9451 196.666 53.2644 196.225 52.3976C195.792 51.5239 195.575 50.5182 195.575 49.3804C195.575 48.2358 195.799 47.2301 196.246 46.3633C196.693 45.4896 197.319 44.8124 198.125 44.3315C198.931 43.8439 199.872 43.6001 200.949 43.6001C202.046 43.6001 202.998 43.8473 203.804 44.3417C204.61 44.8361 205.233 45.5167 205.673 46.3836C206.113 47.2504 206.333 48.2494 206.333 49.3804C206.333 50.525 206.11 51.5341 205.663 52.4077C205.223 53.2746 204.6 53.9552 203.793 54.4496C202.988 54.9372 202.04 55.1811 200.949 55.1811ZM200.949 53.1798C201.999 53.1798 202.781 52.8276 203.296 52.1233C203.818 51.4122 204.078 50.4979 204.078 49.3804C204.078 48.2358 203.814 47.3216 203.286 46.6376C202.764 45.9468 201.985 45.6014 200.949 45.6014C200.238 45.6014 199.653 45.7639 199.192 46.089C198.731 46.4073 198.389 46.8509 198.166 47.4198C197.942 47.9819 197.83 48.6355 197.83 49.3804C197.83 50.5317 198.095 51.4528 198.623 52.1436C199.152 52.8344 199.927 53.1798 200.949 53.1798Z" fill="#101010"/>
<path d="M207.956 54.876V43.9046H209.846V46.5662L209.581 46.2208C209.717 45.8686 209.893 45.547 210.11 45.2557C210.327 44.9578 210.578 44.7139 210.862 44.5243C211.14 44.3211 211.447 44.1654 211.786 44.057C212.131 43.9419 212.484 43.8741 212.842 43.8538C213.202 43.8267 213.547 43.8437 213.879 43.9046V45.8957C213.52 45.8009 213.12 45.7738 212.68 45.8145C212.247 45.8551 211.847 45.9939 211.481 46.231C211.136 46.4545 210.861 46.7254 210.658 47.0437C210.462 47.3619 210.32 47.7175 210.232 48.1103C210.144 48.4964 210.1 48.9061 210.1 49.3395V54.876H207.956Z" fill="#101010"/>
</g>
<defs>
<clipPath id="clip0_311_332">
<rect width="130.159" height="40" fill="white" transform="translate(84.3516 30)"/>
</clipPath>
</defs>
</svg>
