<svg width="300" height="100" viewBox="0 0 300 100" fill="none" xmlns="http://www.w3.org/2000/svg">
<rect width="300" height="100" fill="white"/>
<g clip-path="url(#clip0_291_7458)">
<path d="M134.518 37.309C134.651 37.309 134.784 37.309 134.961 37.2647V37.309L138.239 51.6168C141.119 50.598 144.529 49.9778 148.206 49.9778C151.883 49.9778 155.293 50.598 158.128 51.6168L161.406 37.309V37.2647C161.539 37.309 161.672 37.309 161.849 37.309C162.868 37.309 163.71 36.423 163.71 35.3156C163.71 34.2082 162.868 33.3223 161.849 33.3223C160.831 33.3223 159.989 34.2082 159.989 35.3156C159.989 35.9801 160.299 36.6002 160.831 36.9546L156.711 46.0354C156.534 46.3898 156.179 46.6556 155.781 46.6556C155.205 46.6556 154.762 46.1683 154.762 45.5482V42.0487C155.648 41.9158 156.312 41.1185 156.312 40.144C156.312 39.0808 155.471 38.1949 154.496 38.1949C153.477 38.1949 152.68 39.0808 152.68 40.144C152.68 41.0299 153.256 41.7829 154.009 42.0044L152.769 45.4153C152.591 45.9468 152.193 46.567 151.528 46.5227C150.421 46.4784 150.155 45.7697 150.066 44.9723L148.738 35.3156C149.712 35.1384 150.377 34.474 150.377 33.8095C150.377 33.0122 148.826 30 148.162 30C147.542 30 145.947 32.9679 145.947 33.8095C145.947 34.474 146.611 35.1384 147.586 35.3156L146.39 44.928C146.301 45.7697 146.035 46.4341 144.928 46.4784C144.264 46.5227 143.865 45.9025 143.688 45.371L142.447 41.9601C143.2 41.7386 143.776 40.9856 143.776 40.0997C143.776 39.0365 142.935 38.1506 141.96 38.1506C140.941 38.1506 140.144 39.0365 140.144 40.0997C140.144 41.0742 140.808 41.8715 141.694 42.0044V45.5039C141.694 46.124 141.251 46.6113 140.676 46.6113C140.277 46.6113 139.922 46.3455 139.745 45.9911L135.581 36.9103C136.069 36.5559 136.423 35.9358 136.423 35.2713C136.423 34.1639 135.581 33.278 134.563 33.278C133.544 33.278 132.702 34.1639 132.702 35.2713C132.658 36.423 133.499 37.309 134.518 37.309Z" fill="#B02027"/>
<path d="M138.505 52.857L138.904 54.5402C141.606 53.5214 144.795 52.9899 148.206 52.9899C151.617 52.9899 154.806 53.4771 157.508 54.4959L157.907 52.8127C155.072 51.7053 151.705 51.1294 148.206 51.1294C144.795 51.1737 141.207 51.7938 138.505 52.857Z" fill="#B02027"/>
<path d="M144.574 59.5461C144.529 60.1662 144.839 60.3877 145.548 60.6535C147.364 61.3179 151.395 61.2737 153.92 62.4697C155.293 63.1341 156.046 64.3301 156.046 65.7476C156.046 67.6524 154.407 70.1773 147.541 70.0001C145.061 69.9558 142.89 69.4686 141.384 68.7155V65.8805H143.688L143.821 67.4752C144.751 67.7853 145.947 68.0511 147.586 68.0511C151.395 68.1397 152.636 67.4752 152.636 66.5007C152.636 66.102 152.458 65.6147 151.661 65.349C150.952 65.0832 147.852 64.7731 145.814 64.3744C142.049 63.5771 140.986 62.2039 140.986 60.2105C140.986 58.5715 142.359 56.3567 148.826 56.4896C151.528 56.5782 153.566 57.0212 154.983 57.4198V60.1662H152.901L152.636 59.0588C151.883 58.7487 150.288 58.483 149.092 58.4387C145.681 58.4387 144.618 58.9259 144.574 59.5461ZM183.156 67.8296C179.701 67.8296 177.929 65.9248 177.929 63.267C177.929 60.6092 179.701 58.7044 183.156 58.7044C186.611 58.7044 188.427 60.6092 188.427 63.267C188.427 65.8805 186.611 67.8296 183.156 67.8296ZM183.023 56.7111C176.822 56.7111 174.075 59.6347 174.075 63.1784C174.075 66.7222 176.822 69.6457 183.023 69.6457C189.225 69.6457 192.193 66.7222 192.193 63.1784C192.193 59.6347 189.225 56.7111 183.023 56.7111ZM162.159 63.1784C162.159 60.5649 163.843 58.4387 167.165 58.4387C168.184 58.4387 169.025 58.5273 169.867 58.7044L170.177 60.1219H172.259V57.2426C171.019 56.8883 169.335 56.6225 166.855 56.6225C160.609 56.6225 157.818 59.5904 157.818 63.1784C157.818 66.7665 160.609 69.7343 166.855 69.7343C169.335 69.7343 170.974 69.4686 172.259 69.1142V66.2349H170.177L169.867 67.6524C169.025 67.8296 168.184 67.9182 167.165 67.9182C163.843 67.9182 162.159 65.8362 162.159 63.1784ZM127.519 64.6845L130.31 59.8119C130.31 59.8119 131.639 62.2482 133.012 64.6845H127.519ZM135.67 69.4686H140.1L132.924 56.9769H129.38L122.425 69.4686H124.773L126.412 66.5893H134.031C134.828 67.9625 135.448 69.0699 135.67 69.4686ZM108.294 60.0333C108.294 60.0333 115.869 67.1651 117.021 68.3611C118.217 69.6457 119.945 69.4686 119.945 69.4686H120.742V58.8816L122.337 58.6601V56.9326H117.021V58.6601L118.616 58.8816V64.5959C118.616 64.5959 112.768 59.1917 111.971 58.3944C111.218 57.6413 110.465 56.9326 108.117 56.9326H104.441V58.8816L106.168 59.4132V67.5195L104.574 67.741V69.4686H109.889V67.741L108.294 67.5195V60.0333ZM193.832 58.2615H194.009C194.186 58.2615 194.363 58.2172 194.363 58.04C194.363 57.9071 194.275 57.8185 194.053 57.8185H193.876V58.2615H193.832ZM193.832 59.1031H193.477V57.597C193.61 57.5527 193.787 57.5527 194.053 57.5527C194.319 57.5527 194.452 57.597 194.54 57.6856C194.629 57.7299 194.673 57.8628 194.673 58.04C194.673 58.2172 194.54 58.3501 194.363 58.3944C194.496 58.4387 194.585 58.5715 194.629 58.7487C194.673 58.9702 194.718 59.0588 194.718 59.1474H194.363C194.319 59.1031 194.275 58.9702 194.23 58.793C194.186 58.6158 194.097 58.5715 193.92 58.5715H193.743V59.1031H193.832ZM192.946 58.3058C192.946 58.9702 193.433 59.5018 194.053 59.5018C194.673 59.5018 195.16 58.9702 195.16 58.3058C195.16 57.6413 194.673 57.0655 194.053 57.0655C193.433 57.1098 192.946 57.6413 192.946 58.3058ZM195.559 58.3058C195.559 59.1474 194.895 59.8562 194.097 59.8562C193.256 59.8562 192.591 59.1917 192.591 58.3058C192.591 57.4641 193.256 56.7997 194.097 56.7997C194.895 56.7997 195.559 57.4641 195.559 58.3058Z" fill="#001E61"/>
</g>
<defs>
<clipPath id="clip0_291_7458">
<rect width="91.1185" height="40" fill="white" transform="translate(104.441 30)"/>
</clipPath>
</defs>
</svg>
