<svg width="300" height="100" viewBox="0 0 300 100" fill="none" xmlns="http://www.w3.org/2000/svg">
<rect width="300" height="100" fill="white"/>
<path fill-rule="evenodd" clip-rule="evenodd" d="M180.66 38.2838C180.66 37.4507 179.92 36.7104 178.994 36.7104H176.677C175.751 36.7104 175.01 37.4507 175.01 38.2838L175.104 63.1104C175.102 63.3176 175.141 63.523 175.22 63.7147C175.298 63.9064 175.414 64.0806 175.56 64.2271C175.707 64.3736 175.881 64.4894 176.073 64.5678C176.264 64.6462 176.47 64.6856 176.677 64.6838H178.994C179.92 64.6838 180.66 63.9435 180.66 63.1104V38.2838Z" fill="#005695"/>
<path fill-rule="evenodd" clip-rule="evenodd" d="M183.625 39.025V40.1333C183.625 40.6879 183.997 41.0591 184.551 41.0591H200.854C201.219 41.0497 201.566 40.9006 201.824 40.6425C202.082 40.3845 202.232 40.0372 202.241 39.6725V37.7279C202.241 36.9866 201.592 36.2463 200.854 36.3413C200.854 36.3413 185.107 37.9146 184.551 38.0074C183.996 38.0074 183.625 38.4703 183.625 39.0261V39.025Z" fill="#005695"/>
<path fill-rule="evenodd" clip-rule="evenodd" d="M170.379 64.6839C166.303 64.6839 163.802 61.6279 163.802 58.2007V48.2882H162.597C162.042 48.2882 161.485 47.7325 161.485 47.1767V45.5085C161.49 45.2154 161.609 44.9357 161.816 44.7288C162.024 44.5219 162.304 44.404 162.597 44.4002H163.802V38.2839C163.8 38.0767 163.839 37.8711 163.918 37.6793C163.996 37.4874 164.112 37.3131 164.259 37.1665C164.405 37.02 164.58 36.9041 164.771 36.8256C164.963 36.7471 165.169 36.7077 165.376 36.7095H167.692C168.525 36.7095 169.173 37.4498 169.173 38.2839V44.4002H172.786C172.933 44.3945 173.08 44.4193 173.217 44.473C173.354 44.5266 173.478 44.6081 173.582 44.7122C173.686 44.8163 173.768 44.9407 173.821 45.0778C173.875 45.2148 173.899 45.3615 173.893 45.5085V47.1735C173.89 47.4671 173.771 47.7476 173.564 47.9552C173.356 48.1628 173.076 48.2811 172.782 48.285H169.173V57.4583C169.173 59.2173 170.286 60.5154 172.23 60.5154H172.602C172.761 60.5102 172.92 60.5378 173.069 60.5965C173.217 60.6552 173.352 60.7437 173.465 60.8566C173.578 60.9694 173.666 61.1043 173.725 61.2527C173.784 61.4012 173.811 61.5601 173.806 61.7197V63.4797C173.8 63.7973 173.672 64.1005 173.447 64.3251C173.222 64.5498 172.919 64.6784 172.602 64.6839H170.379Z" fill="#005695"/>
<path fill-rule="evenodd" clip-rule="evenodd" d="M142.589 54.2133C142.589 48.9344 139.44 43.6533 132.307 43.6533C125.73 43.6533 122.117 48.8395 122.117 54.2133C122.117 59.9563 126.007 65.0517 132.399 65.0517C136.753 65.0517 141.014 62.8288 141.847 59.0315C141.94 58.5685 141.57 57.8272 140.92 57.8272H137.772C137.509 57.8244 137.251 57.8916 137.023 58.0216C136.795 58.1517 136.606 58.3401 136.475 58.5675C135.548 59.8667 134.252 60.5163 132.4 60.5163C129.621 60.5163 127.768 58.3829 127.583 55.9776H140.827C142.032 55.9776 142.588 55.3291 142.588 54.2165L142.589 54.2133ZM127.675 51.9947C127.86 49.6789 129.897 47.9189 132.307 47.9189C134.808 47.9189 136.846 49.6789 137.124 51.9947H127.675Z" fill="#005695"/>
<path fill-rule="evenodd" clip-rule="evenodd" d="M202.8 54.2133C202.8 48.9344 199.651 43.6533 192.517 43.6533C185.94 43.6533 182.328 48.8395 182.328 54.2133C182.328 59.9563 186.219 65.0517 192.611 65.0517C196.964 65.0517 201.224 62.8288 202.058 59.0315C202.152 58.5685 201.78 57.8272 201.132 57.8272H197.984C197.721 57.8244 197.462 57.8914 197.234 58.0215C197.006 58.1516 196.817 58.34 196.685 58.5675C195.76 59.8667 194.463 60.5163 192.517 60.5163C189.831 60.5163 187.978 58.3829 187.793 55.9776H201.04C202.244 55.9776 202.8 55.3291 202.8 54.2165V54.2133ZM187.887 51.9947C188.071 49.6789 190.106 47.92 192.517 47.92C195.018 47.92 197.057 49.68 197.242 51.9957L187.887 51.9947Z" fill="#005695"/>
<path fill-rule="evenodd" clip-rule="evenodd" d="M159.355 36.9865H116.559C116.328 36.9865 116.099 37.032 115.885 37.1205C115.672 37.2089 115.478 37.3386 115.315 37.502C115.151 37.6655 115.022 37.8595 114.933 38.073C114.845 38.2865 114.8 38.5154 114.8 38.7465L114.891 55.6062C114.891 55.6062 105.718 38.9321 105.257 38.0979C104.974 37.6151 104.569 37.2153 104.082 36.9389C103.595 36.6625 103.044 36.5193 102.484 36.5235H98.964C98.7324 36.5228 98.5029 36.5679 98.2887 36.6561C98.0746 36.7443 97.8799 36.8739 97.716 37.0376C97.5521 37.2012 97.4221 37.3956 97.3335 37.6096C97.2449 37.8236 97.1994 38.053 97.1997 38.2846V62.9246C97.1997 63.9433 97.9464 64.6846 98.9597 64.6846H101.183C102.201 64.6846 102.943 63.9433 102.943 62.9246L102.853 45.6958C102.853 45.6958 112.116 62.4617 112.58 63.1102C113.043 64.0361 113.967 64.6846 115.266 64.6846H118.507C119.526 64.6846 120.267 63.9433 120.267 62.9246V41.1571H159.355C159.673 41.1514 159.976 41.0227 160.201 40.798C160.425 40.5734 160.554 40.2705 160.56 39.9529V38.1918C160.555 37.8741 160.426 37.5709 160.202 37.346C159.977 37.1211 159.674 36.9922 159.357 36.9865H159.355Z" fill="#005695"/>
<path fill-rule="evenodd" clip-rule="evenodd" d="M152.407 47.7322C154.26 47.7322 155.65 48.3807 156.206 49.5839C156.391 50.1407 156.854 50.2335 157.503 50.2335H160.097C160.468 50.2335 161.023 49.8623 161.023 49.3076C161.023 46.3434 157.41 43.6543 152.408 43.6543C147.226 43.6532 143.794 46.1567 143.794 50.0532C143.794 53.1103 146.202 54.8714 149.074 55.7066C150.46 55.985 152.778 56.5396 153.89 56.9108C155.001 57.1892 156.113 57.5594 156.113 58.578C156.113 60.2452 154.446 60.7114 152.5 60.7114C150.74 60.7114 148.98 59.9647 148.517 58.674C148.24 57.9274 147.683 57.841 146.943 57.841H144.346C143.883 57.841 143.328 58.3028 143.328 58.8586V59.2298C143.328 62.1012 147.219 65.0655 152.591 65.0655C156.296 65.0655 161.576 63.4911 161.576 58.4874C161.576 55.5231 159.631 53.4868 156.389 52.6538C155.184 52.3754 152.22 51.5412 151.572 51.4474C150.367 51.0772 149.256 50.7071 149.256 49.7812C149.256 48.2068 150.643 47.7428 152.405 47.7428L152.407 47.7322Z" fill="#005695"/>
</svg>
