<svg width="300" height="100" viewBox="0 0 300 100" fill="none" xmlns="http://www.w3.org/2000/svg">
<rect width="300" height="100" fill="white"/>
<g clip-path="url(#clip0_311_313)">
<path d="M46.7851 69.446L40.3672 57.3701C43.5395 55.5082 46.5692 53.4132 49.4311 51.1023C44.6177 49.404 42.666 44.7407 42.666 40.9311C42.6754 33.8658 50.7917 30 56.9375 30C65.3822 30 71.4718 35.4703 71.4718 43.3332C71.4436 53.57 59.4146 65.5896 46.7851 69.446Z" fill="#010101"/>
<path d="M102.249 59.1996H96.5439V40.2554H102.305L107.672 49.1223V40.2554H113.377V59.1996H107.747L102.221 50.145L102.249 59.1996Z" fill="#1D1D1B"/>
<path d="M115.327 59.1996V40.2554H128.951V45.4629H121.37V47.0018H128.717V52.2374H121.37V53.7293H129.027V59.1996H115.327Z" fill="#1D1D1B"/>
<path d="M139.441 59.1998H133.878L129.486 40.2556H135.557L137.434 49.6386L140.117 40.2556H144.931L147.201 49.8168L149.519 40.2368H155.514L150.307 59.1998H144.546L142.21 50.7551L139.441 59.1998Z" fill="#1D1D1B"/>
<path d="M155.018 51.3841V48.2783C154.961 46.6145 155.313 44.9622 156.041 43.4649C157.466 40.9691 159.962 39.8618 163.246 39.8618C168.435 39.8618 171.485 42.2076 171.485 47.4621V48.6256H164.916V48.0156C164.916 46.139 164.522 45.3884 163.181 45.3884C161.839 45.3884 161.426 46.3267 161.426 48.7006V50.6992C161.426 53.0637 161.839 53.9645 163.181 53.9645C164.522 53.9645 164.898 53.0262 164.916 51.1496V50.4646H171.485V51.4029C171.588 53.0815 171.238 54.7569 170.471 56.2539C169.026 58.6184 166.446 59.5942 163.105 59.5942C157.701 59.5942 155.018 57.2204 155.018 51.3841Z" fill="#1D1D1B"/>
<path d="M172.697 50.9898V48.5127C172.643 46.8341 172.994 45.1673 173.719 43.6524C175.089 41.072 177.613 39.8992 180.897 39.8992C182.355 39.8884 183.795 40.2092 185.11 40.8375C187.578 42.1041 189.107 44.5907 189.107 48.5691V51.0462C189.179 52.7358 188.807 54.4148 188.028 55.9159C186.612 58.44 184.078 59.6691 180.869 59.6691C175.69 59.594 172.697 56.9292 172.697 50.9898ZM182.67 50.6239V48.8787C182.67 46.4109 182.276 45.4351 180.935 45.4351C179.593 45.4351 179.171 46.486 179.171 48.8787V50.6709C179.171 53.0354 179.593 54.1143 180.935 54.1143C182.276 54.1143 182.67 53.0916 182.67 50.6239Z" fill="#1D1D1B"/>
<path d="M196.574 59.1996H190.653V40.2554H196.152L199.839 45.7538L203.489 40.2554H208.941V59.1996H203.029V50.0137L200.13 54.2266H199.398L196.584 50.0137L196.574 59.1996Z" fill="#1D1D1B"/>
<path d="M216.833 59.1996H210.913V40.2554H216.448L220.126 45.7538L223.786 40.2554H229.256V59.1996H223.298V50.0137L220.408 54.2266H219.667L216.851 50.0137L216.833 59.1996Z" fill="#1D1D1B"/>
<path d="M236.686 56.7976L236.029 59.1996H229.846L236.085 40.2554H242.287L248.602 59.1996H242.39L241.705 56.7976H236.686ZM238.028 51.9372H240.317L239.163 47.8275L238.028 51.9372Z" fill="#1D1D1B"/>
<path d="M256.955 39.7676H248.22C246.795 39.7676 245.64 40.9228 245.64 42.3478V43.2017C245.64 44.6268 246.795 45.782 248.22 45.782H256.955C258.381 45.782 259.536 44.6268 259.536 43.2017V42.3478C259.536 40.9228 258.381 39.7676 256.955 39.7676Z" fill="#FECA02"/>
<path d="M248.848 41.5879H249.786C250.434 41.5879 250.725 41.8037 250.725 42.1978C250.738 42.3049 250.717 42.4133 250.667 42.5088C250.617 42.6042 250.538 42.6823 250.443 42.7327C250.55 42.7698 250.641 42.8418 250.703 42.9371C250.764 43.0323 250.791 43.1453 250.781 43.2581C250.781 43.699 250.509 43.943 249.909 43.943H248.895L248.848 41.5879ZM249.439 42.5262H249.786C249.993 42.5262 250.096 42.4511 250.096 42.301C250.096 42.1415 250.012 42.0758 249.786 42.0758H249.439V42.5262ZM249.439 43.4645H249.758C250.04 43.4645 250.124 43.3801 250.124 43.2299C250.124 43.0798 250.03 42.9954 249.758 42.9954H249.439V43.4645Z" fill="#1D1D1B"/>
<path d="M251.907 43.9902C251.781 44.0018 251.654 43.9855 251.535 43.9424C251.416 43.8993 251.307 43.8306 251.218 43.741C251.129 43.6514 251.06 43.5433 251.017 43.4243C250.974 43.3051 250.958 43.1781 250.969 43.0519V42.9957C250.963 42.8128 251.004 42.6314 251.091 42.4702C251.179 42.3248 251.305 42.2061 251.456 42.1268C251.606 42.0474 251.775 42.0105 251.945 42.0199C252.138 42.0082 252.33 42.0539 252.498 42.1512C252.631 42.2407 252.739 42.3627 252.811 42.5056C252.884 42.6485 252.918 42.8075 252.912 42.9675V43.1833H251.56C251.56 43.2335 251.57 43.2831 251.59 43.329C251.61 43.3749 251.64 43.416 251.678 43.4497C251.714 43.4833 251.758 43.5088 251.806 43.5243C251.854 43.5398 251.904 43.5451 251.954 43.5398C252.018 43.5458 252.082 43.5318 252.137 43.4999C252.193 43.4679 252.237 43.4197 252.264 43.3616H252.892C252.837 43.5708 252.705 43.7516 252.523 43.868C252.34 43.9844 252.12 44.0281 251.907 43.9902ZM251.532 42.7892H252.292C252.292 42.7424 252.283 42.696 252.264 42.6531C252.245 42.6101 252.218 42.5716 252.183 42.5398C252.149 42.5081 252.108 42.4838 252.064 42.4686C252.02 42.4534 251.973 42.4475 251.926 42.4514C251.829 42.4461 251.735 42.4783 251.661 42.5412C251.587 42.6042 251.541 42.693 251.532 42.7892Z" fill="#1D1D1B"/>
<path d="M253.978 43.9431C253.825 43.9493 253.672 43.9238 253.528 43.8681C253.322 43.7648 253.256 43.5396 253.256 43.1456V42.5638H252.938V42.0665C253 42.0762 253.063 42.0762 253.125 42.0665C253.246 42.0665 253.293 42.0008 253.313 41.8413C253.317 41.7538 253.317 41.6661 253.313 41.5786H253.8V42.0572H254.26V42.5826H253.8V43.0424C253.792 43.1235 253.792 43.2052 253.8 43.2863C253.8 43.3895 253.922 43.4083 254.11 43.4083H254.232V43.9618L253.978 43.9431Z" fill="#1D1D1B"/>
<path d="M255.087 43.9897C254.675 43.9897 254.477 43.7927 254.477 43.483C254.471 43.3887 254.491 43.2944 254.533 43.2103C254.577 43.126 254.641 43.055 254.721 43.0045L254.881 42.9294C255.024 42.8829 255.172 42.8514 255.322 42.8356C255.612 42.8356 255.726 42.7699 255.726 42.6385C255.726 42.5072 255.669 42.4603 255.463 42.4603C255.257 42.4603 255.153 42.5541 255.144 42.7324H254.534C254.534 42.2914 254.862 42.0005 255.472 42.0005C255.643 41.9915 255.813 42.0237 255.969 42.0944C256.088 42.1475 256.187 42.2371 256.251 42.3502C256.315 42.4633 256.341 42.5939 256.326 42.723V43.9428H255.857L255.791 43.6238C255.725 43.7493 255.623 43.8517 255.497 43.9171C255.371 43.9825 255.228 44.0079 255.087 43.9897ZM255.547 43.5018C255.603 43.4665 255.649 43.4182 255.682 43.3609C255.715 43.3037 255.732 43.2393 255.735 43.1734V43.0608C255.658 43.1095 255.572 43.1415 255.481 43.1546C255.38 43.1632 255.281 43.1919 255.19 43.239C255.166 43.2546 255.145 43.2769 255.132 43.3035C255.119 43.33 255.113 43.3596 255.115 43.3892C255.115 43.4924 255.19 43.5581 255.332 43.5581C255.407 43.5595 255.481 43.54 255.547 43.5018Z" fill="#1D1D1B"/>
</g>
<defs>
<clipPath id="clip0_311_313">
<rect width="219.574" height="40" fill="white" transform="translate(40.3672 30)"/>
</clipPath>
</defs>
</svg>
