<svg width="300" height="100" viewBox="0 0 300 100" fill="none" xmlns="http://www.w3.org/2000/svg">
<rect width="300" height="100" fill="white"/>
<g clip-path="url(#clip0_298_10668)">
<path d="M118.372 30.7549V65.0945C118.372 65.5473 117.994 65.9247 117.542 65.9247H114.447C113.994 65.9247 113.617 65.5473 113.617 65.0945V34.7549C113.617 32.5662 111.806 30.7549 109.617 30.7549H106.447C104.259 30.7549 102.447 32.5662 102.447 34.7549V69.019H105.617V34.7549C105.617 34.3021 105.994 33.9247 106.447 33.9247H109.617C110.07 33.9247 110.447 34.3021 110.447 34.7549V65.019C110.447 67.2077 112.259 69.019 114.447 69.019H117.617C119.806 69.019 121.617 67.2077 121.617 65.019V30.7549H118.372Z" fill="black"/>
<path d="M131.126 49.3209V38.2266H132.862L137.843 46.0001C138.07 46.3775 138.221 46.6794 138.296 46.8303V38.2266H139.957V49.3209H138.221L133.315 41.5473C133.089 41.17 132.938 40.8681 132.862 40.7171V49.3209H131.126Z" fill="black"/>
<path d="M151.353 41.3965L152.862 43.8116L154.447 41.3965H156.334L153.843 45.0946L156.56 49.321H154.673L152.862 46.3776L151.051 49.321H149.164L152.032 45.0946L149.541 41.3965H151.353Z" fill="black"/>
<path d="M166.07 48.0381C166.749 48.0381 167.353 47.8116 167.881 47.2833C168.41 46.755 168.636 46.1513 168.636 45.3965C168.636 44.6418 168.41 43.9626 167.881 43.5098C167.353 42.9815 166.749 42.755 166.07 42.755C165.391 42.755 164.787 42.9815 164.259 43.5098C163.73 44.0381 163.504 44.6418 163.504 45.3965C163.504 46.1513 163.73 46.8305 164.259 47.2833C164.711 47.8116 165.315 48.0381 166.07 48.0381ZM170.221 45.3965C170.221 46.6796 169.844 47.6607 168.938 48.4154C168.108 49.1701 167.127 49.5475 165.994 49.5475C164.862 49.5475 163.881 49.1701 163.051 48.4154C162.221 47.6607 161.768 46.6796 161.768 45.3965C161.768 44.1135 162.221 43.1324 163.051 42.3777C163.881 41.623 164.862 41.2456 165.994 41.2456C167.127 41.2456 168.108 41.623 168.938 42.3777C169.844 43.0569 170.221 44.1135 170.221 45.3965Z" fill="black"/>
<path d="M172.938 42.755V41.472H171.353V49.321H172.938V45.1701C172.938 43.7361 173.617 42.8304 175.504 42.9059V41.3965C174.145 41.3965 173.24 41.7738 172.938 42.755Z" fill="black"/>
<path d="M171.428 55.2076V53.9246H169.843V61.7736H171.428V57.6227C171.428 56.1887 172.107 55.2831 173.994 55.3586V53.8491C172.711 53.8491 171.806 54.2265 171.428 55.2076Z" fill="black"/>
<path d="M179.806 48.0379C180.485 48.0379 181.089 47.8115 181.542 47.2832C181.995 46.7549 182.221 46.1511 182.221 45.3964C182.221 44.6417 181.995 43.9624 181.542 43.5096C181.089 42.9813 180.485 42.7549 179.806 42.7549C179.127 42.7549 178.523 42.9813 178.07 43.5096C177.617 44.0379 177.391 44.6417 177.391 45.3964C177.391 46.1511 177.617 46.8303 178.07 47.2832C178.523 47.8115 179.127 48.0379 179.806 48.0379ZM183.73 38.2266V49.3209H182.146V48.0379C181.542 49.019 180.712 49.5473 179.58 49.5473C178.447 49.5473 177.542 49.17 176.863 48.4152C176.108 47.6605 175.73 46.6794 175.73 45.3964C175.73 44.1888 176.108 43.2077 176.863 42.3775C177.617 41.6228 178.523 41.2454 179.504 41.2454C180.787 41.2454 181.617 41.6983 182.146 42.6794V38.2266H183.73Z" fill="black"/>
<path d="M140.032 50.6792V57.849C140.032 59.132 139.73 60.1886 138.9 60.9434C138.07 61.6981 136.862 62.0754 135.579 62.0754C134.296 62.0754 133.089 61.6981 132.259 60.9434C131.428 60.1886 131.126 59.2075 131.126 57.849V50.6792H132.787V57.7735C132.787 59.3584 133.919 60.415 135.579 60.415C137.24 60.415 138.372 59.3584 138.372 57.7735V50.6792H140.032Z" fill="black"/>
<path d="M148.485 61.774H146.9V56.8683C146.9 55.8872 146.523 55.208 145.315 55.208C144.183 55.208 143.126 56.34 143.126 57.774V61.774H141.542V53.8495H143.126V55.208C143.655 54.1514 144.711 53.623 145.843 53.623C147.353 53.623 148.56 54.7551 148.56 56.4155V61.774H148.485Z" fill="black"/>
<path d="M150.07 53.8491H151.73V61.7736H150.07V57.8491V53.8491Z" fill="black"/>
<path d="M160.636 53.8491L157.466 61.7736H155.957L152.787 53.8491H154.523L156.712 59.7359L158.9 53.8491H160.636Z" fill="black"/>
<path d="M182.146 53.8491H183.73V61.7736H182.146V57.6982V53.8491Z" fill="black"/>
<path d="M187.957 60.1891C187.73 60.1891 187.579 59.9626 187.579 59.7362V55.2834H189.542V53.9249H187.579V50.8306H185.994V53.9249H184.862V55.2834H185.994V59.7362C185.994 60.8683 186.9 61.774 188.032 61.774H189.617V60.1891H187.957Z" fill="black"/>
<path d="M160.108 39.7358H161.693V38.1509H160.108C158.976 38.1509 158.07 39.0565 158.07 40.1886V41.3962H156.938V42.8301H158.07V49.1697V49.3207H159.655V49.1697V42.8301H161.617V41.4716H159.655V40.2641C159.655 39.9622 159.881 39.7358 160.108 39.7358Z" fill="black"/>
<path d="M150.07 52.5664H151.73V50.8306H150.07V51.6608V52.5664Z" fill="black"/>
<path d="M182.146 52.5664H183.73V50.8306H182.146V51.6608V52.5664Z" fill="black"/>
<path d="M196.41 53.8491L194.221 59.5095L192.032 53.8491H190.146L193.315 61.7736L192.938 62.6793C192.561 63.585 192.259 63.585 191.127 63.585V65.0944H192.183C193.164 65.0944 193.919 64.4906 194.372 63.3586L198.146 53.9246H196.41V53.8491Z" fill="black"/>
<path d="M149.089 45.1699C149.089 44.0378 148.711 43.0567 148.032 42.302C147.353 41.5473 146.372 41.1699 145.24 41.1699C144.107 41.1699 143.126 41.5473 142.372 42.3775C141.617 43.1322 141.164 44.1888 141.164 45.3963C141.164 46.6039 141.541 47.585 142.296 48.4152C143.051 49.1699 144.032 49.6228 145.089 49.6228C146.749 49.6228 148.183 48.7171 148.862 47.0567H147.202C146.749 47.8114 146.145 48.1888 145.089 48.1888C143.73 48.1888 142.749 47.2077 142.673 45.7737H148.938V45.1699H149.089ZM142.824 44.4907C142.975 43.8869 143.277 43.4341 143.73 43.0567C144.56 42.302 145.919 42.3775 146.749 43.0567C147.202 43.4341 147.428 43.8869 147.504 44.4907H142.824Z" fill="black"/>
<path d="M168.712 57.623C168.712 56.491 168.334 55.5098 167.655 54.7551C166.976 54.0004 165.995 53.623 164.863 53.623C163.731 53.623 162.749 54.0004 161.995 54.8306C161.24 55.5853 160.787 56.6419 160.787 57.8495C160.787 59.057 161.164 60.0381 161.919 60.8683C162.674 61.623 163.655 62.0759 164.712 62.0759C166.372 62.0759 167.806 61.1702 168.485 59.5098H166.825C166.372 60.2646 165.768 60.6419 164.712 60.6419C163.353 60.6419 162.372 59.6608 162.297 58.2268H168.561V57.623H168.712ZM162.447 56.9438C162.598 56.34 162.9 55.8872 163.353 55.5098C164.183 54.7551 165.542 54.8306 166.372 55.5098C166.825 55.8872 167.051 56.34 167.127 56.9438H162.447Z" fill="black"/>
<path d="M177.541 53.6982C176.787 53.6982 176.107 53.9247 175.579 54.302C175.051 54.6794 174.749 55.2077 174.749 55.8869C174.749 57.0945 175.655 57.9247 177.466 58.302C178.749 58.5284 179.353 58.9058 179.353 59.5096C179.353 60.1888 178.673 60.6416 177.843 60.6416C176.938 60.6416 176.334 60.1888 175.956 59.4341H174.372C174.673 61.019 176.032 62.0001 177.768 62.0001C179.655 62.0001 180.787 60.8681 180.787 59.4341C180.787 58.1511 179.956 57.3964 178.145 57.019C176.862 56.7926 176.183 56.4152 176.183 55.736C176.183 55.2077 176.787 54.8303 177.541 54.8303C178.372 54.8303 179.126 55.2077 179.202 55.9624H180.636C180.636 54.453 179.126 53.6982 177.541 53.6982Z" fill="black"/>
</g>
<defs>
<clipPath id="clip0_298_10668">
<rect width="96.6038" height="40" fill="white" transform="translate(101.617 30)"/>
</clipPath>
</defs>
</svg>
