<svg width="300" height="100" viewBox="0 0 300 100" fill="none" xmlns="http://www.w3.org/2000/svg">
<rect width="300" height="100" fill="white"/>
<g clip-path="url(#clip0_291_7103)">
<path d="M155.133 70.0264C144.557 70.0264 133.994 70.0264 123.431 70.0264C123.431 56.693 123.431 43.3597 123.431 30.0264C141.161 30.0264 158.892 30.0264 176.622 30.0264C176.622 43.3597 176.622 56.693 176.622 70.0264C169.464 70.0264 162.305 70.0264 155.133 70.0264ZM141.077 42.9253C140.741 42.9253 140.404 42.9253 140.064 42.9253C139.561 44.4011 139.059 45.8716 138.561 47.3322C138.403 47.3322 138.268 47.3322 138.129 47.3322C137.797 45.8686 137.466 44.4118 137.137 42.9601C137.107 42.9559 137.094 42.9524 137.081 42.9525C136.208 42.9535 135.335 42.9566 134.462 42.9536C134.368 42.9533 134.356 43.0064 134.334 43.0703C133.353 45.9867 132.369 48.9026 131.392 51.8204C131.352 51.9397 131.301 51.971 131.18 51.9708C129.146 51.9667 127.111 51.9679 125.077 51.9679C125.025 51.9679 124.973 51.9678 124.939 51.9678C124.939 52.6931 124.939 53.4037 124.939 54.1221C124.993 54.1221 125.023 54.1221 125.054 54.1221C127.908 54.1207 130.763 54.1186 133.617 54.1205C133.713 54.1206 133.746 54.0825 133.775 54.003C134.059 53.2218 134.345 52.4415 134.631 51.6612C134.827 51.1264 135.025 50.5921 135.221 50.0589C135.388 50.0589 135.546 50.0589 135.722 50.0589C135.854 51.3996 135.986 52.7362 136.119 54.0912C136.216 54.0912 136.3 54.0912 136.383 54.0912C137.212 54.0912 138.041 54.0887 138.87 54.0941C138.985 54.0949 139.035 54.0631 139.075 53.9505C140.249 50.6514 141.427 47.354 142.604 44.0562C142.737 43.6828 142.869 43.3088 143.005 42.9253C142.362 42.9253 141.733 42.9253 141.077 42.9253ZM155.536 50.6305C155.554 50.3576 155.59 50.0844 155.586 49.8118C155.575 49.1287 155.228 48.6552 154.629 48.3513C154.575 48.3238 154.522 48.2943 154.449 48.2559C154.508 48.229 154.546 48.207 154.587 48.1933C155.824 47.7793 156.854 46.3049 156.753 44.8129C156.686 43.8285 155.898 43.045 154.907 43.0102C154.398 42.9923 153.889 42.9863 153.38 42.9838C152.152 42.9778 150.924 42.9797 149.697 42.9704C149.561 42.9694 149.51 43.013 149.466 43.1357C148.432 45.9918 147.394 48.8461 146.356 51.7008C146.074 52.4773 145.792 53.2538 145.506 54.0405C145.556 54.0467 145.599 54.0554 145.643 54.0565C145.855 54.0618 146.068 54.0684 146.28 54.0684C148.04 54.0679 149.8 54.069 151.559 54.0613C151.805 54.0602 152.054 54.0323 152.294 53.9846C154.095 53.6286 155.302 51.9801 155.536 50.6305ZM175.463 42.9296C175.201 42.9281 174.94 42.9241 174.678 42.9257C173.092 42.9352 171.506 42.9469 169.919 42.9535C169.825 42.9539 169.791 42.9912 169.759 43.0698C168.566 45.9356 167.372 48.8004 166.181 51.6669C166.14 51.7648 166.094 51.7963 165.989 51.7962C165.08 51.795 164.172 51.802 163.264 51.8016C163.174 51.8016 163.134 51.828 163.1 51.9116C162.893 52.4333 162.679 52.9523 162.467 53.4724C162.391 53.6586 162.316 53.845 162.235 54.0444C162.293 54.0498 162.332 54.0562 162.371 54.0567C162.765 54.0613 163.159 54.0683 163.554 54.0683C164.99 54.0684 166.426 54.0642 167.862 54.068C167.983 54.0683 168.038 54.0319 168.084 53.9222C169.281 51.0917 170.483 48.2637 171.676 45.4316C171.754 45.2462 171.854 45.1638 172.047 45.1858C172.06 45.1873 172.074 45.1861 172.087 45.1859C172.973 45.1757 173.859 45.1643 174.745 45.157C174.824 45.1563 174.862 45.133 174.89 45.0583C175.037 44.665 175.191 44.2741 175.342 43.882C175.46 43.5739 175.577 43.2653 175.7 42.9413C175.618 42.9367 175.553 42.9332 175.463 42.9296ZM159.543 50.0877C159.322 50.6181 159.098 51.1477 158.882 51.6799C158.845 51.7685 158.799 51.7958 158.705 51.7957C158.023 51.7951 157.341 51.7994 156.659 51.8046C156.419 51.8064 156.18 51.8099 155.942 51.8247C155.895 51.8276 155.829 51.877 155.81 51.9211C155.545 52.5622 155.285 53.206 155.025 53.8493C154.997 53.917 154.971 53.9852 154.943 54.0561C154.97 54.0608 154.978 54.0637 154.987 54.0637C156.87 54.0642 158.754 54.065 160.637 54.061C160.679 54.0609 160.74 54.0156 160.759 53.9757C160.85 53.7795 160.93 53.5779 161.015 53.3785C162.156 50.6882 163.297 47.9981 164.436 45.307C164.472 45.2236 164.51 45.1842 164.608 45.1835C165.552 45.1773 166.495 45.1635 167.439 45.1579C167.538 45.1574 167.575 45.1218 167.608 45.0361C167.84 44.4243 168.077 43.8146 168.312 43.2039C168.342 43.1243 168.369 43.0433 168.412 42.9253C168.221 42.9253 168.058 42.9245 167.895 42.9254C166.141 42.9355 164.387 42.9467 162.632 42.9538C162.54 42.9541 162.504 42.9858 162.47 43.067C161.498 45.4015 160.524 47.7349 159.543 50.0877ZM143.9 53.9981C144.142 53.2913 144.384 52.5844 144.626 51.8777C145.463 49.4354 146.3 46.9931 147.138 44.5509C147.319 44.0211 147.501 43.4914 147.688 42.9476C147.625 42.9407 147.573 42.9299 147.522 42.9303C146.698 42.938 145.875 42.9489 145.051 42.9535C144.958 42.954 144.922 42.9852 144.892 43.0692C143.618 46.6372 142.342 50.2042 141.066 53.7715C141.032 53.8659 141.002 53.9616 140.97 54.0573C140.992 54.0633 141 54.0677 141.008 54.0677C141.939 54.0683 142.87 54.0691 143.8 54.0668C143.831 54.0667 143.861 54.0351 143.9 53.9981ZM153.391 41.0902C155.477 41.0902 157.562 41.0902 159.662 41.0902C159.649 40.9129 159.637 40.7523 159.624 40.5849C159.554 40.5849 159.497 40.5849 159.44 40.5849C150.164 40.5863 140.887 40.5875 131.611 40.5896C130.543 40.5899 129.476 40.5949 128.408 40.5977C128.381 40.5978 128.349 40.5891 128.329 40.6005C128.297 40.6185 128.253 40.6472 128.248 40.6766C128.228 40.81 128.22 40.9452 128.207 41.0902C136.604 41.0902 144.984 41.0902 153.391 41.0902ZM128.167 41.5613C128.167 41.7106 128.167 41.8599 128.167 42.0211C128.215 42.0211 128.267 42.0211 128.319 42.0211C134.498 42.0197 140.676 42.0178 146.855 42.0169C151.043 42.0162 155.232 42.0167 159.42 42.0167C159.456 42.0167 159.493 42.0237 159.526 42.0144C159.554 42.0064 159.594 41.9845 159.6 41.9607C159.639 41.8283 159.668 41.6934 159.705 41.5423C159.618 41.5423 159.565 41.5423 159.513 41.5423C149.119 41.5423 138.726 41.5423 128.332 41.5423C128.283 41.5423 128.235 41.5436 128.167 41.5613ZM132.061 39.654C130.844 39.654 129.626 39.654 128.407 39.654C128.377 39.8179 128.349 39.9697 128.321 40.125C138.75 40.125 149.172 40.125 159.593 40.125C159.593 39.9645 159.593 39.812 159.593 39.654C150.419 39.654 141.253 39.654 132.061 39.654ZM132.886 37.7657C131.671 37.7657 130.457 37.7652 129.243 37.7673C129.195 37.7673 129.121 37.7758 129.104 37.806C129.023 37.9436 128.958 38.0905 128.891 38.2274C139.009 38.2274 149.116 38.2274 159.239 38.2274C159.188 38.1012 159.137 37.9982 159.106 37.8893C159.077 37.7882 159.022 37.7677 158.924 37.7678C157.213 37.7694 155.503 37.76 153.792 37.7673C151.041 37.7789 148.29 37.7386 145.539 37.8143C144.31 37.8481 143.078 37.7716 141.847 37.7683C138.869 37.7602 135.89 37.7657 132.886 37.7657ZM135.492 39.1754C143.5 39.1754 151.508 39.1754 159.528 39.1754C159.498 39.0693 159.465 38.9775 159.448 38.8828C159.427 38.7653 159.378 38.7236 159.247 38.7236C151.517 38.7265 143.788 38.7244 136.058 38.7232C133.656 38.7227 131.254 38.7231 128.852 38.7231C128.794 38.7231 128.737 38.7231 128.677 38.7231C128.63 38.866 128.586 39.0023 128.529 39.1754C130.857 39.1754 133.161 39.1754 135.492 39.1754ZM141.21 55.2391C145.035 55.2391 148.859 55.2391 152.684 55.2391C152.72 55.2391 152.756 55.2441 152.79 55.2375C152.817 55.2323 152.852 55.2195 152.865 55.1986C152.948 55.0649 153.026 54.9281 153.116 54.7728C143.643 54.7728 134.193 54.7728 124.74 54.7728C124.729 54.925 124.717 55.0769 124.705 55.2391C130.203 55.2391 135.693 55.2391 141.21 55.2391ZM152.085 56.1966C152.167 56.1882 152.287 56.2101 152.322 56.1655C152.419 56.0408 152.48 55.8886 152.566 55.728C143.263 55.728 133.989 55.728 124.715 55.728C124.715 55.8851 124.715 56.0376 124.715 56.1966C133.835 56.1966 142.947 56.1966 152.085 56.1966ZM124.935 56.6487C124.861 56.6487 124.787 56.6487 124.716 56.6487C124.716 56.8169 124.716 56.9694 124.716 57.1274C124.772 57.1274 124.82 57.1274 124.869 57.1274C133.808 57.1274 142.747 57.1274 151.687 57.1274C151.718 57.1274 151.749 57.1309 151.78 57.1263C151.804 57.1226 151.838 57.1156 151.847 57.0988C151.927 56.9599 152.001 56.8184 152.093 56.6487C143.025 56.6487 133.993 56.6487 124.935 56.6487ZM126.529 58.0849C133.407 58.0849 140.285 58.0834 147.163 58.0893C147.502 58.0896 147.815 58.0638 148.102 57.8618C148.227 57.7744 148.38 57.7287 148.521 57.6642C148.554 57.6493 148.586 57.6351 148.635 57.6135C140.647 57.6135 132.681 57.6135 124.715 57.6135C124.715 57.7734 124.715 57.9259 124.715 58.0849C125.316 58.0849 125.91 58.0849 126.529 58.0849ZM141.476 59.0157C143.112 59.0157 144.747 59.0158 146.382 59.0153C146.426 59.0153 146.482 59.0253 146.511 59.0029C146.675 58.8742 146.832 58.7372 146.992 58.603C146.988 58.5941 146.984 58.5852 146.98 58.5764C139.555 58.5764 132.13 58.5764 124.703 58.5764C124.717 58.7237 124.729 58.8674 124.743 59.0157C130.317 59.0157 135.883 59.0157 141.476 59.0157ZM136.024 59.9732C139.188 59.9732 142.352 59.9732 145.516 59.9732C145.552 59.9732 145.588 59.9774 145.622 59.9715C145.645 59.9675 145.674 59.9545 145.686 59.9362C145.78 59.7908 145.87 59.6433 145.96 59.4997C140.701 59.4997 135.435 59.4997 130.169 59.4997C130.572 59.5539 130.935 59.7018 131.26 59.9461C131.296 59.9736 131.36 59.9721 131.411 59.9721C132.94 59.9734 134.469 59.9732 136.024 59.9732ZM144.853 60.9306C144.937 60.9306 145.022 60.9336 145.106 60.929C145.136 60.9274 145.182 60.9162 145.194 60.8947C145.268 60.7561 145.335 60.6135 145.409 60.4616C140.884 60.4616 136.381 60.4616 131.863 60.4616C131.973 60.5816 132.077 60.6846 132.168 60.7979C132.249 60.899 132.342 60.9338 132.473 60.9337C136.591 60.93 140.709 60.9306 144.853 60.9306ZM141.662 61.8615C142.619 61.8541 143.576 61.8471 144.532 61.838C144.578 61.8375 144.644 61.8325 144.664 61.804C144.755 61.6729 144.832 61.5327 144.911 61.4018C140.8 61.4018 136.704 61.4018 132.574 61.4018C132.645 61.5339 132.708 61.6342 132.753 61.7424C132.794 61.8402 132.853 61.8641 132.956 61.8639C135.849 61.8609 138.742 61.8615 141.662 61.8615ZM138.763 37.287C139.852 37.287 140.941 37.287 142.03 37.287C142.032 37.2746 142.034 37.2621 142.036 37.2497C141.713 37.1183 141.391 36.9835 141.066 36.8577C140.982 36.8252 140.887 36.8061 140.797 36.806C137.181 36.805 133.565 36.8068 129.948 36.8083C129.922 36.8083 129.894 36.8046 129.869 36.8094C129.845 36.8139 129.815 36.8209 129.8 36.8379C129.679 36.9805 129.562 37.1257 129.429 37.287C132.551 37.287 135.644 37.287 138.763 37.287ZM135.226 62.3136C134.524 62.3136 133.821 62.3136 133.118 62.3136C133.114 62.3284 133.11 62.3432 133.105 62.3581C133.181 62.4759 133.262 62.5908 133.331 62.7126C133.378 62.7966 133.437 62.8214 133.533 62.8212C135.146 62.818 136.759 62.8189 138.372 62.8189C140.211 62.8189 142.05 62.8191 143.889 62.8181C143.936 62.8181 144.006 62.8235 144.026 62.797C144.138 62.6477 144.237 62.4893 144.354 62.3136C141.297 62.3136 138.275 62.3136 135.226 62.3136ZM151.529 36.8082C150.714 36.8082 149.899 36.8147 149.084 36.804C148.858 36.801 148.661 36.8397 148.472 36.9645C148.309 37.0723 148.133 37.1605 147.963 37.2574C147.966 37.2646 147.969 37.2718 147.972 37.279C151.569 37.279 155.167 37.279 158.791 37.279C158.706 37.1477 158.626 37.0375 158.561 36.9193C158.511 36.8293 158.448 36.8057 158.348 36.8058C156.084 36.8089 153.82 36.8082 151.529 36.8082ZM143.016 63.7498C143.095 63.7456 143.202 63.7725 143.247 63.7314C143.385 63.6074 143.5 63.4569 143.623 63.3168C143.617 63.3035 143.611 63.2902 143.605 63.2769C140.339 63.2677 137.073 63.2674 133.803 63.2966C133.896 63.4326 133.998 63.5418 134.092 63.6576C134.15 63.7293 134.215 63.7521 134.308 63.752C137.202 63.7493 140.096 63.7498 143.016 63.7498ZM140.12 64.6806C140.501 64.6806 140.882 64.6817 141.263 64.6793C141.308 64.679 141.38 64.6739 141.394 64.6473C141.501 64.4394 141.691 64.4602 141.875 64.4548C141.941 64.4529 142.008 64.4492 142.073 64.4403C142.275 64.4132 142.458 64.3415 142.629 64.2109C139.973 64.2109 137.332 64.2109 134.668 64.2109C134.844 64.3531 134.998 64.4857 135.162 64.6046C135.221 64.6471 135.304 64.6773 135.375 64.6775C136.948 64.6816 138.521 64.6806 140.12 64.6806ZM132.035 36.3562C133.738 36.3562 135.442 36.3562 137.146 36.3562C136.811 36.249 136.482 36.1417 136.186 35.9481C136.121 35.9056 136.032 35.8805 135.954 35.8803C134.337 35.8765 132.719 35.8787 131.101 35.8749C130.979 35.8746 130.881 35.9029 130.786 35.9793C130.635 36.1015 130.476 36.2145 130.32 36.3314C130.325 36.3396 130.33 36.3479 130.335 36.3562C130.893 36.3562 131.45 36.3562 132.035 36.3562ZM132.779 42.9519C132.867 42.9519 132.956 42.9568 133.044 42.9492C133.075 42.9466 133.118 42.919 133.129 42.8924C133.18 42.7575 133.222 42.6192 133.265 42.4891C131.556 42.4891 129.853 42.4891 128.148 42.4891C128.148 42.653 128.148 42.8008 128.148 42.9519C129.689 42.9519 131.221 42.9519 132.779 42.9519ZM157.035 35.8773C156.051 35.8773 155.067 35.8763 154.084 35.88C154.025 35.8802 153.94 35.9011 153.913 35.9422C153.792 36.1291 153.616 36.1629 153.413 36.1726C152.512 36.2159 151.611 36.2668 150.71 36.3149C153.138 36.3702 155.567 36.35 158.036 36.3572C157.926 36.2621 157.846 36.2 157.774 36.1285C157.576 35.9293 157.346 35.8264 157.035 35.8773ZM128.976 43.4305C128.699 43.4305 128.422 43.4305 128.147 43.4305C128.147 43.5989 128.147 43.7513 128.147 43.906C128.172 43.9074 128.189 43.9093 128.206 43.9093C129.694 43.9079 131.182 43.9065 132.67 43.905C132.683 43.905 132.699 43.9099 132.709 43.9041C132.74 43.8866 132.782 43.8712 132.794 43.8439C132.849 43.711 132.896 43.5745 132.949 43.4305C131.624 43.4305 130.313 43.4305 128.976 43.4305ZM140.352 65.6381C140.411 65.6266 140.485 65.6332 140.527 65.6003C140.696 65.4713 140.855 65.3297 141.037 65.1763C139.343 65.1763 137.691 65.1763 136.039 65.1763C136.228 65.3289 136.424 65.4554 136.625 65.5716C136.686 65.6069 136.763 65.6309 136.834 65.6312C137.998 65.6363 139.163 65.6367 140.352 65.6381ZM130.622 49.5743C130.687 49.5743 130.753 49.5743 130.819 49.5743C130.868 49.4185 130.914 49.2724 130.969 49.0983C130.797 49.0983 130.644 49.0984 130.491 49.0982C129.282 49.0973 128.073 49.0961 126.864 49.0973C126.83 49.0973 126.781 49.1143 126.766 49.1395C126.689 49.2708 126.62 49.4072 126.531 49.5743C127.906 49.5743 129.251 49.5743 130.622 49.5743ZM130.301 50.5008C130.367 50.489 130.473 50.4984 130.492 50.4617C130.559 50.3379 130.595 50.1978 130.643 50.0635C130.62 50.0566 130.616 50.0542 130.611 50.0542C129.185 50.0536 127.759 50.0532 126.333 50.0536C126.304 50.0536 126.26 50.0543 126.248 50.0719C126.151 50.209 126.059 50.3504 125.959 50.5008C127.415 50.5008 128.845 50.5008 130.301 50.5008ZM129.801 44.8403C130.646 44.8388 131.491 44.8381 132.337 44.8339C132.382 44.8337 132.454 44.8161 132.467 44.7863C132.522 44.6609 132.559 44.5277 132.603 44.3962C131.115 44.3962 129.643 44.3962 128.173 44.3962C128.173 44.548 128.173 44.6915 128.173 44.8403C128.713 44.8403 129.243 44.8403 129.801 44.8403ZM130.785 48.1646C130.603 48.1646 130.422 48.1646 130.24 48.1646C129.284 48.1646 128.328 48.164 127.371 48.1666C127.326 48.1667 127.257 48.1821 127.238 48.2137C127.164 48.3381 127.106 48.4718 127.034 48.6171C127.098 48.6226 127.145 48.6298 127.192 48.6302C127.997 48.6366 128.803 48.6452 129.608 48.6467C130.082 48.6475 130.555 48.6381 131.028 48.628C131.071 48.6271 131.136 48.5983 131.152 48.5644C131.21 48.4383 131.252 48.3048 131.304 48.1646C131.13 48.1646 130.97 48.1646 130.785 48.1646ZM129.402 45.3189C128.983 45.3189 128.564 45.3189 128.147 45.3189C128.147 45.4872 128.147 45.6397 128.147 45.7945C129.474 45.7945 130.793 45.7945 132.12 45.7945C132.175 45.6388 132.229 45.4836 132.288 45.3189C131.324 45.3189 130.376 45.3189 129.402 45.3189ZM128.976 47.2071C128.568 47.2071 128.161 47.2061 127.753 47.2088C127.715 47.2091 127.653 47.2225 127.641 47.2478C127.578 47.3866 127.527 47.531 127.467 47.686C127.871 47.686 128.256 47.6865 128.641 47.6859C129.545 47.6848 130.449 47.684 131.353 47.6791C131.399 47.6789 131.472 47.6533 131.487 47.6193C131.544 47.4914 131.582 47.3552 131.632 47.2071C130.746 47.2071 129.874 47.2071 128.976 47.2071ZM129.614 46.7552C130.301 46.7537 130.987 46.7535 131.673 46.7482C131.719 46.7479 131.791 46.7219 131.806 46.6878C131.863 46.56 131.901 46.4239 131.949 46.2825C131.907 46.2799 131.877 46.2765 131.847 46.2765C130.727 46.2762 129.607 46.2758 128.487 46.2769C128.35 46.277 128.213 46.2828 128.076 46.2923C128.043 46.2947 127.991 46.3142 127.981 46.339C127.929 46.4711 127.888 46.6074 127.839 46.7552C128.438 46.7552 129.013 46.7552 129.614 46.7552ZM133.285 35.3989C133.881 35.3989 134.477 35.3989 135.073 35.3989C134.28 34.9944 132.772 35.0049 132.122 35.3989C132.505 35.3989 132.882 35.3989 133.285 35.3989ZM155.467 35.1058C155.14 35.11 154.844 35.21 154.542 35.3862C155.267 35.3862 155.964 35.3862 156.66 35.3862C156.303 35.1467 155.901 35.1122 155.467 35.1058ZM138.577 65.9842C138.97 65.9955 139.356 65.9576 139.724 65.8434C138.984 65.8434 138.236 65.8434 137.489 65.8434C137.488 65.8626 137.487 65.8818 137.486 65.901C137.841 65.9287 138.196 65.9565 138.577 65.9842ZM151.052 57.6058C150.968 57.6058 150.883 57.6058 150.799 57.6058C150.798 57.6133 150.798 57.6208 150.798 57.6284C150.99 57.7001 151.181 57.7718 151.38 57.846C151.435 57.7683 151.487 57.695 151.55 57.6058C151.377 57.6058 151.228 57.6058 151.052 57.6058ZM128.834 51.0105C128.871 51.0088 128.907 51.0071 128.944 51.0055C128.944 51.0008 128.943 50.9962 128.943 50.9916C128.285 50.9916 127.627 50.9916 126.968 50.9916C126.968 50.9979 126.968 51.0042 126.968 51.0105C127.582 51.0105 128.196 51.0105 128.834 51.0105Z" fill="white"/>
<path d="M141.091 42.9253C141.733 42.9253 142.362 42.9253 143.005 42.9253C142.869 43.3088 142.737 43.6828 142.604 44.0562C141.427 47.354 140.249 50.6514 139.075 53.9505C139.035 54.0631 138.985 54.0949 138.87 54.0941C138.041 54.0887 137.212 54.0912 136.383 54.0912C136.3 54.0912 136.216 54.0912 136.12 54.0912C135.986 52.7362 135.854 51.3996 135.722 50.0589C135.546 50.0589 135.388 50.0589 135.221 50.0589C135.025 50.5921 134.827 51.1264 134.631 51.6612C134.345 52.4415 134.059 53.2218 133.775 54.003C133.746 54.0825 133.713 54.1206 133.617 54.1205C130.763 54.1186 127.908 54.1207 125.054 54.1221C125.023 54.1221 124.993 54.1221 124.939 54.1221C124.939 53.4037 124.939 52.6931 124.939 51.9679C124.973 51.9679 125.025 51.9679 125.077 51.9679C127.111 51.9679 129.146 51.9667 131.18 51.9708C131.301 51.971 131.352 51.9397 131.392 51.8204C132.369 48.9026 133.353 45.9867 134.334 43.0703C134.356 43.0064 134.368 42.9533 134.462 42.9536C135.335 42.9566 136.208 42.9535 137.081 42.9525C137.094 42.9524 137.107 42.9559 137.137 42.9601C137.466 44.4118 137.797 45.8686 138.129 47.3322C138.268 47.3322 138.403 47.3322 138.561 47.3322C139.059 45.8716 139.561 44.4011 140.064 42.9253C140.404 42.9253 140.741 42.9253 141.091 42.9253Z" fill="#9E7D0A"/>
<path d="M155.535 50.6422C155.302 51.9805 154.095 53.6289 152.294 53.9849C152.053 54.0326 151.804 54.0605 151.559 54.0616C149.8 54.0694 148.04 54.0683 146.28 54.0687C146.068 54.0688 145.855 54.0621 145.643 54.0568C145.599 54.0558 145.556 54.047 145.506 54.0409C145.792 53.2541 146.074 52.4776 146.356 51.7011C147.394 48.8464 148.432 45.9921 149.466 43.136C149.51 43.0134 149.561 42.9697 149.697 42.9707C150.924 42.98 152.152 42.9781 153.379 42.9841C153.889 42.9866 154.398 42.9927 154.907 43.0105C155.898 43.0453 156.686 43.8289 156.753 44.8132C156.854 46.3053 155.824 47.7796 154.587 48.1936C154.546 48.2073 154.508 48.2293 154.449 48.2563C154.522 48.2946 154.575 48.3241 154.629 48.3517C155.228 48.6556 155.575 49.129 155.586 49.8121C155.59 50.0847 155.554 50.3579 155.535 50.6422ZM152.701 50.5308C152.712 50.4835 152.725 50.4364 152.734 50.3887C152.839 49.8235 152.629 49.4843 152.094 49.4545C151.468 49.4195 150.839 49.4401 150.211 49.433C150.118 49.432 150.084 49.4762 150.055 49.5567C149.837 50.1636 149.615 50.7689 149.395 51.375C149.357 51.48 149.322 51.5864 149.293 51.6716C149.978 51.6716 150.657 51.7078 151.331 51.6613C151.993 51.6157 152.521 51.2314 152.701 50.5308ZM152.067 47.2917C152.221 47.2829 152.376 47.2769 152.53 47.2649C153.212 47.2122 153.727 46.7614 153.875 46.0884C153.979 45.6161 153.755 45.267 153.309 45.2463C152.797 45.2225 152.283 45.226 151.769 45.2171C151.67 45.2154 151.611 45.2535 151.576 45.355C151.381 45.9093 151.179 46.4611 150.98 47.0139C150.948 47.1027 150.918 47.1922 150.883 47.2917C151.284 47.2917 151.663 47.2917 152.067 47.2917Z" fill="#9E7D0B"/>
<path d="M175.475 42.93C175.553 42.9336 175.617 42.9372 175.7 42.9418C175.577 43.2658 175.46 43.5744 175.342 43.8824C175.191 44.2745 175.037 44.6654 174.89 45.0587C174.862 45.1335 174.824 45.1567 174.745 45.1574C173.859 45.1647 172.973 45.1761 172.087 45.1864C172.074 45.1865 172.06 45.1877 172.047 45.1862C171.854 45.1643 171.754 45.2467 171.676 45.432C170.483 48.2641 169.281 51.0922 168.084 53.9227C168.038 54.0323 167.983 54.0688 167.862 54.0684C166.426 54.0647 164.99 54.0689 163.554 54.0688C163.159 54.0688 162.765 54.0618 162.371 54.0571C162.332 54.0567 162.293 54.0502 162.235 54.0448C162.316 53.8455 162.391 53.659 162.467 53.4728C162.679 52.9528 162.893 52.4337 163.1 51.912C163.134 51.8285 163.174 51.8021 163.264 51.8021C164.172 51.8024 165.08 51.7954 165.989 51.7966C166.094 51.7968 166.14 51.7653 166.181 51.6673C167.372 48.8008 168.566 45.9361 169.759 43.0702C169.791 42.9917 169.825 42.9544 169.919 42.954C171.506 42.9473 173.092 42.9356 174.678 42.9261C174.94 42.9246 175.201 42.9286 175.475 42.93Z" fill="#9E7D0B"/>
<path d="M159.546 50.0784C160.524 47.7352 161.498 45.4019 162.47 43.0673C162.504 42.9861 162.54 42.9545 162.632 42.9541C164.386 42.947 166.141 42.9358 167.895 42.9257C168.058 42.9248 168.221 42.9256 168.412 42.9256C168.369 43.0437 168.342 43.1246 168.311 43.2043C168.077 43.8149 167.84 44.4247 167.608 45.0364C167.575 45.1221 167.537 45.1577 167.438 45.1583C166.495 45.1638 165.552 45.1776 164.608 45.1839C164.51 45.1845 164.472 45.2239 164.436 45.3073C163.297 47.9984 162.156 50.6885 161.015 53.3788C160.93 53.5782 160.85 53.7798 160.759 53.976C160.74 54.0159 160.679 54.0612 160.637 54.0613C158.754 54.0653 156.87 54.0645 154.987 54.0641C154.978 54.0641 154.97 54.0612 154.943 54.0565C154.971 53.9856 154.997 53.9173 155.025 53.8496C155.285 53.2063 155.545 52.5625 155.81 51.9214C155.829 51.8773 155.895 51.828 155.942 51.8251C156.18 51.8102 156.419 51.8067 156.658 51.8049C157.341 51.7997 158.023 51.7954 158.705 51.796C158.799 51.7961 158.845 51.7689 158.882 51.6802C159.098 51.148 159.322 50.6184 159.546 50.0784Z" fill="#9E7D0B"/>
<path d="M143.896 54.0084C143.861 54.0354 143.831 54.0671 143.801 54.0671C142.87 54.0694 141.939 54.0686 141.008 54.068C141 54.068 140.992 54.0637 140.97 54.0576C141.002 53.962 141.032 53.8663 141.066 53.7718C142.342 50.2046 143.618 46.6375 144.892 43.0695C144.922 42.9856 144.958 42.9543 145.051 42.9538C145.875 42.9493 146.698 42.9384 147.522 42.9307C147.573 42.9302 147.625 42.9411 147.688 42.9479C147.501 43.4918 147.319 44.0214 147.138 44.5512C146.3 46.9934 145.463 49.4357 144.626 51.878C144.384 52.5847 144.142 53.2916 143.896 54.0084Z" fill="#9E7D0B"/>
<path d="M153.378 41.0903C144.984 41.0903 136.604 41.0903 128.207 41.0903C128.22 40.9453 128.228 40.8101 128.248 40.6767C128.253 40.6473 128.297 40.6186 128.329 40.6006C128.349 40.5892 128.381 40.5979 128.408 40.5978C129.476 40.595 130.543 40.5899 131.611 40.5897C140.887 40.5876 150.164 40.5864 159.44 40.585C159.497 40.585 159.554 40.585 159.624 40.585C159.637 40.7524 159.649 40.913 159.662 41.0903C157.562 41.0903 155.477 41.0903 153.378 41.0903Z" fill="#1A472B"/>
<path d="M128.177 41.553C128.235 41.5438 128.283 41.5426 128.332 41.5426C138.726 41.5425 149.119 41.5425 159.513 41.5425C159.565 41.5425 159.618 41.5425 159.705 41.5425C159.668 41.6936 159.639 41.8285 159.6 41.961C159.594 41.9847 159.554 42.0066 159.526 42.0147C159.493 42.0239 159.456 42.017 159.42 42.017C155.232 42.017 151.043 42.0164 146.855 42.0171C140.676 42.0181 134.498 42.0199 128.319 42.0213C128.267 42.0214 128.215 42.0213 128.167 42.0213C128.167 41.8601 128.167 41.7108 128.177 41.553Z" fill="#1B482C"/>
<path d="M132.075 39.6543C141.253 39.6543 150.419 39.6543 159.593 39.6543C159.593 39.8123 159.593 39.9648 159.593 40.1252C149.172 40.1252 138.75 40.1252 128.321 40.1252C128.349 39.97 128.377 39.8182 128.407 39.6543C129.626 39.6543 130.844 39.6543 132.075 39.6543Z" fill="#1A472B"/>
<path d="M132.899 37.766C135.89 37.766 138.868 37.7605 141.847 37.7686C143.077 37.7719 144.31 37.8484 145.539 37.8146C148.29 37.7389 151.041 37.7792 153.792 37.7676C155.503 37.7603 157.213 37.7697 158.924 37.7681C159.022 37.768 159.077 37.7885 159.106 37.8896C159.137 37.9985 159.188 38.1015 159.239 38.2277C149.115 38.2277 139.009 38.2277 128.891 38.2277C128.958 38.0908 129.023 37.9439 129.104 37.8063C129.121 37.7761 129.195 37.7676 129.243 37.7676C130.457 37.7655 131.671 37.766 132.899 37.766Z" fill="#1B482C"/>
<path d="M135.479 39.1756C133.162 39.1756 130.857 39.1756 128.529 39.1756C128.586 39.0025 128.63 38.8662 128.677 38.7233C128.737 38.7233 128.794 38.7233 128.852 38.7233C131.254 38.7233 133.656 38.7229 136.058 38.7233C143.788 38.7246 151.517 38.7266 159.247 38.7238C159.378 38.7238 159.427 38.7655 159.448 38.883C159.465 38.9776 159.498 39.0695 159.528 39.1756C151.508 39.1756 143.5 39.1756 135.479 39.1756Z" fill="#1C482D"/>
<path d="M141.197 55.2393C135.693 55.2393 130.203 55.2393 124.705 55.2393C124.717 55.0771 124.729 54.9251 124.74 54.7729C134.193 54.7729 143.643 54.7729 153.116 54.7729C153.026 54.9282 152.948 55.0651 152.865 55.1987C152.852 55.2196 152.817 55.2324 152.79 55.2376C152.756 55.2442 152.72 55.2392 152.684 55.2392C148.86 55.2393 145.035 55.2393 141.197 55.2393Z" fill="#1A472B"/>
<path d="M152.072 56.1966C142.947 56.1966 133.835 56.1966 124.715 56.1966C124.715 56.0376 124.715 55.8851 124.715 55.728C133.989 55.728 143.263 55.728 152.566 55.728C152.48 55.8887 152.419 56.0409 152.322 56.1656C152.287 56.2102 152.167 56.1882 152.072 56.1966Z" fill="#1A472B"/>
<path d="M124.948 56.6489C133.993 56.6489 143.025 56.6489 152.093 56.6489C152.001 56.8186 151.927 56.9601 151.847 57.099C151.838 57.1159 151.804 57.1229 151.78 57.1265C151.749 57.1311 151.718 57.1277 151.687 57.1277C142.747 57.1277 133.808 57.1277 124.869 57.1277C124.82 57.1277 124.772 57.1277 124.716 57.1277C124.716 56.9696 124.716 56.8171 124.716 56.6489C124.787 56.6489 124.861 56.6489 124.948 56.6489Z" fill="#1A472B"/>
<path d="M126.516 58.0852C125.91 58.0852 125.316 58.0852 124.715 58.0852C124.715 57.9261 124.715 57.7737 124.715 57.6138C132.681 57.6138 140.647 57.6138 148.635 57.6138C148.586 57.6354 148.554 57.6496 148.521 57.6645C148.381 57.729 148.227 57.7747 148.102 57.8621C147.815 58.0641 147.502 58.0899 147.163 58.0896C140.285 58.0837 133.407 58.0852 126.516 58.0852Z" fill="#1A472B"/>
<path d="M141.463 59.016C135.883 59.016 130.317 59.016 124.743 59.016C124.729 58.8677 124.717 58.724 124.703 58.5767C132.13 58.5767 139.555 58.5767 146.98 58.5767C146.984 58.5855 146.988 58.5944 146.992 58.6033C146.832 58.7375 146.675 58.8745 146.511 59.0032C146.482 59.0256 146.426 59.0156 146.382 59.0156C144.747 59.0161 143.112 59.016 141.463 59.016Z" fill="#1A472B"/>
<path d="M136.011 59.9735C134.469 59.9735 132.94 59.9738 131.411 59.9725C131.36 59.9725 131.296 59.9739 131.26 59.9465C130.935 59.7022 130.572 59.5543 130.169 59.5C135.435 59.5 140.701 59.5 145.96 59.5C145.87 59.6436 145.78 59.7912 145.686 59.9365C145.674 59.9548 145.645 59.9679 145.622 59.9718C145.588 59.9777 145.552 59.9735 145.516 59.9735C142.352 59.9735 139.188 59.9735 136.011 59.9735Z" fill="#1A472B"/>
<path d="M144.84 60.931C140.709 60.931 136.591 60.9303 132.473 60.934C132.342 60.9341 132.249 60.8994 132.168 60.7982C132.077 60.685 131.973 60.5819 131.863 60.4619C136.381 60.4619 140.884 60.4619 145.409 60.4619C145.335 60.6138 145.268 60.7565 145.194 60.895C145.182 60.9165 145.136 60.9277 145.106 60.9294C145.022 60.934 144.937 60.931 144.84 60.931Z" fill="#1A472B"/>
<path d="M141.649 61.8616C138.742 61.8616 135.849 61.861 132.956 61.864C132.853 61.8642 132.794 61.8403 132.753 61.7425C132.708 61.6343 132.645 61.534 132.574 61.4019C136.704 61.4019 140.8 61.4019 144.911 61.4019C144.832 61.5328 144.755 61.673 144.664 61.8041C144.644 61.8326 144.578 61.8376 144.532 61.8381C143.576 61.8472 142.619 61.8542 141.649 61.8616Z" fill="#1A472B"/>
<path d="M138.75 37.2874C135.644 37.2874 132.551 37.2874 129.429 37.2874C129.562 37.1262 129.679 36.981 129.8 36.8383C129.815 36.8214 129.845 36.8144 129.869 36.8099C129.894 36.8051 129.922 36.8087 129.948 36.8087C133.565 36.8072 137.181 36.8054 140.797 36.8065C140.887 36.8065 140.982 36.8257 141.066 36.8581C141.391 36.9839 141.713 37.1187 142.036 37.2501C142.034 37.2626 142.032 37.275 142.031 37.2874C140.941 37.2874 139.852 37.2874 138.75 37.2874Z" fill="#1A472B"/>
<path d="M135.239 62.314C138.275 62.314 141.297 62.314 144.354 62.314C144.237 62.4897 144.137 62.648 144.026 62.7974C144.006 62.8239 143.936 62.8185 143.889 62.8185C142.05 62.8195 140.211 62.8193 138.372 62.8193C136.759 62.8193 135.146 62.8184 133.533 62.8216C133.437 62.8218 133.378 62.797 133.331 62.713C133.262 62.5912 133.181 62.4763 133.105 62.3584C133.109 62.3436 133.114 62.3288 133.118 62.314C133.821 62.314 134.524 62.314 135.239 62.314Z" fill="#1B472B"/>
<path d="M151.543 36.8086C153.82 36.8086 156.084 36.8093 158.348 36.8062C158.448 36.8061 158.511 36.8297 158.561 36.9197C158.626 37.0379 158.706 37.1481 158.791 37.2794C155.167 37.2794 151.569 37.2794 147.971 37.2794C147.969 37.2722 147.966 37.265 147.963 37.2578C148.133 37.1609 148.309 37.0727 148.472 36.9649C148.661 36.8401 148.858 36.8014 149.084 36.8044C149.899 36.8151 150.714 36.8086 151.543 36.8086Z" fill="#1C482D"/>
<path d="M143.003 63.7499C140.096 63.7499 137.202 63.7494 134.308 63.7521C134.215 63.7522 134.15 63.7294 134.092 63.6577C133.998 63.5419 133.896 63.4327 133.802 63.2967C137.073 63.2675 140.339 63.2678 143.605 63.277C143.611 63.2903 143.617 63.3036 143.623 63.3169C143.5 63.457 143.385 63.6075 143.247 63.7315C143.202 63.7726 143.095 63.7457 143.003 63.7499Z" fill="#1B472B"/>
<path d="M140.106 64.6806C138.521 64.6806 136.948 64.6816 135.375 64.6775C135.304 64.6773 135.221 64.6471 135.162 64.6046C134.998 64.4857 134.844 64.3531 134.668 64.2109C137.332 64.2109 139.973 64.2109 142.629 64.2109C142.458 64.3415 142.275 64.4132 142.073 64.4403C142.008 64.4492 141.941 64.4529 141.875 64.4548C141.691 64.4602 141.501 64.4394 141.394 64.6473C141.38 64.6739 141.308 64.679 141.263 64.6793C140.882 64.6817 140.501 64.6806 140.106 64.6806Z" fill="#1A472B"/>
<path d="M132.021 36.3563C131.45 36.3563 130.893 36.3563 130.335 36.3563C130.33 36.348 130.325 36.3397 130.32 36.3315C130.476 36.2146 130.635 36.1016 130.786 35.9794C130.881 35.903 130.979 35.8747 131.101 35.875C132.719 35.8788 134.336 35.8766 135.954 35.8804C136.032 35.8806 136.121 35.9057 136.186 35.9483C136.482 36.1418 136.811 36.2491 137.146 36.3563C135.442 36.3563 133.738 36.3563 132.021 36.3563Z" fill="#1A472B"/>
<path d="M132.766 42.952C131.221 42.952 129.689 42.952 128.148 42.952C128.148 42.801 128.148 42.6531 128.148 42.4893C129.853 42.4893 131.556 42.4893 133.265 42.4893C133.222 42.6194 133.18 42.7577 133.128 42.8925C133.118 42.9191 133.075 42.9467 133.044 42.9493C132.956 42.9569 132.867 42.952 132.766 42.952Z" fill="#1A472B"/>
<path d="M157.048 35.8777C157.346 35.8268 157.576 35.9296 157.774 36.1288C157.845 36.2003 157.926 36.2624 158.036 36.3575C155.567 36.3503 153.138 36.3705 150.71 36.3152C151.611 36.2671 152.512 36.2162 153.413 36.173C153.616 36.1632 153.792 36.1294 153.913 35.9425C153.94 35.9014 154.025 35.8805 154.084 35.8803C155.067 35.8766 156.051 35.8777 157.048 35.8777Z" fill="#1C482D"/>
<path d="M128.989 43.4307C130.313 43.4307 131.624 43.4307 132.949 43.4307C132.896 43.5747 132.849 43.7111 132.794 43.844C132.782 43.8713 132.74 43.8867 132.709 43.9042C132.699 43.91 132.683 43.9051 132.67 43.9052C131.182 43.9066 129.694 43.9081 128.206 43.9094C128.189 43.9094 128.172 43.9075 128.146 43.9061C128.146 43.7514 128.146 43.599 128.146 43.4307C128.422 43.4307 128.699 43.4307 128.989 43.4307Z" fill="#1B482C"/>
<path d="M140.339 65.6381C139.162 65.6367 137.998 65.6363 136.833 65.6313C136.763 65.6309 136.686 65.6069 136.625 65.5716C136.424 65.4554 136.228 65.3289 136.039 65.1763C137.691 65.1763 139.343 65.1763 141.037 65.1763C140.855 65.3297 140.696 65.4713 140.527 65.6003C140.484 65.6332 140.411 65.6266 140.339 65.6381Z" fill="#1C482D"/>
<path d="M130.609 49.5747C129.251 49.5747 127.907 49.5747 126.531 49.5747C126.62 49.4076 126.689 49.2712 126.766 49.1399C126.781 49.1147 126.83 49.0977 126.864 49.0977C128.073 49.0965 129.282 49.0977 130.491 49.0986C130.644 49.0988 130.797 49.0987 130.969 49.0987C130.914 49.2728 130.868 49.4189 130.819 49.5747C130.753 49.5747 130.687 49.5747 130.609 49.5747Z" fill="#1B482C"/>
<path d="M130.288 50.5011C128.845 50.5011 127.415 50.5011 125.959 50.5011C126.059 50.3507 126.151 50.2093 126.248 50.0722C126.26 50.0546 126.304 50.0539 126.333 50.0539C127.759 50.0534 129.185 50.0539 130.611 50.0545C130.616 50.0545 130.62 50.0569 130.643 50.0638C130.595 50.1981 130.559 50.3382 130.493 50.462C130.473 50.4987 130.367 50.4893 130.288 50.5011Z" fill="#1C482D"/>
<path d="M129.787 44.8406C129.243 44.8406 128.713 44.8406 128.173 44.8406C128.173 44.6919 128.173 44.5484 128.173 44.3965C129.643 44.3965 131.115 44.3965 132.603 44.3965C132.559 44.5281 132.522 44.6612 132.467 44.7866C132.454 44.8165 132.382 44.834 132.337 44.8342C131.491 44.8384 130.646 44.8391 129.787 44.8406Z" fill="#1C482C"/>
<path d="M130.798 48.1646C130.97 48.1646 131.13 48.1646 131.304 48.1646C131.252 48.3048 131.21 48.4383 131.152 48.5644C131.136 48.5983 131.071 48.6271 131.028 48.628C130.555 48.6381 130.082 48.6475 129.608 48.6467C128.803 48.6452 127.997 48.6366 127.192 48.6302C127.145 48.6298 127.098 48.6226 127.034 48.6171C127.106 48.4718 127.164 48.3381 127.238 48.2137C127.257 48.1821 127.326 48.1667 127.371 48.1666C128.328 48.164 129.284 48.1646 130.24 48.1646C130.422 48.1646 130.603 48.1646 130.798 48.1646Z" fill="#1B482C"/>
<path d="M129.415 45.3193C130.376 45.3193 131.324 45.3193 132.288 45.3193C132.229 45.484 132.175 45.6392 132.12 45.795C130.793 45.795 129.474 45.795 128.147 45.795C128.147 45.6401 128.147 45.4876 128.147 45.3193C128.564 45.3193 128.983 45.3193 129.415 45.3193Z" fill="#1A472B"/>
<path d="M128.989 47.2072C129.874 47.2072 130.745 47.2072 131.632 47.2072C131.582 47.3553 131.544 47.4915 131.487 47.6194C131.472 47.6534 131.399 47.679 131.353 47.6792C130.449 47.6841 129.545 47.6849 128.641 47.6861C128.256 47.6866 127.871 47.6861 127.467 47.6861C127.527 47.5311 127.578 47.3867 127.641 47.2479C127.653 47.2226 127.715 47.2092 127.753 47.2089C128.161 47.2062 128.568 47.2072 128.989 47.2072Z" fill="#1C482D"/>
<path d="M129.601 46.7554C129.013 46.7554 128.438 46.7554 127.839 46.7554C127.888 46.6076 127.929 46.4713 127.981 46.3392C127.991 46.3144 128.043 46.2949 128.076 46.2925C128.213 46.283 128.35 46.2772 128.487 46.2771C129.607 46.276 130.727 46.2764 131.847 46.2767C131.877 46.2767 131.907 46.2801 131.949 46.2827C131.901 46.4241 131.863 46.5602 131.806 46.688C131.791 46.7221 131.719 46.7481 131.673 46.7484C130.987 46.7537 130.301 46.7539 129.601 46.7554Z" fill="#1C492D"/>
<path d="M133.271 35.399C132.882 35.399 132.505 35.399 132.122 35.399C132.772 35.0051 134.28 34.9945 135.073 35.399C134.477 35.399 133.881 35.399 133.271 35.399Z" fill="#1D4A2E"/>
<path d="M155.48 35.106C155.901 35.1124 156.303 35.1468 156.66 35.3863C155.964 35.3863 155.267 35.3863 154.542 35.3863C154.844 35.2101 155.14 35.1101 155.48 35.106Z" fill="#204C31"/>
<path d="M138.564 65.9845C138.196 65.9568 137.841 65.929 137.486 65.9013C137.487 65.8821 137.488 65.8629 137.489 65.8438C138.236 65.8438 138.984 65.8438 139.724 65.8438C139.356 65.9579 138.97 65.9958 138.564 65.9845Z" fill="#214C31"/>
<path d="M151.065 57.606C151.228 57.606 151.377 57.606 151.55 57.606C151.487 57.6952 151.435 57.7685 151.38 57.8462C151.181 57.772 150.989 57.7003 150.797 57.6285C150.798 57.621 150.798 57.6135 150.799 57.606C150.883 57.606 150.968 57.606 151.065 57.606Z" fill="#214C31"/>
<path d="M128.822 51.0106C128.196 51.0106 127.582 51.0106 126.968 51.0106C126.968 51.0043 126.968 50.998 126.968 50.9917C127.626 50.9917 128.285 50.9917 128.943 50.9917C128.943 50.9963 128.944 51.001 128.944 51.0056C128.907 51.0073 128.871 51.0089 128.822 51.0106Z" fill="#8DA496"/>
<path d="M152.697 50.5411C152.521 51.2315 151.993 51.6158 151.331 51.6614C150.657 51.7078 149.978 51.6717 149.293 51.6717C149.322 51.5865 149.357 51.4801 149.395 51.3751C149.615 50.769 149.837 50.1637 150.055 49.5568C150.084 49.4763 150.118 49.4321 150.211 49.4331C150.839 49.4402 151.468 49.4196 152.094 49.4545C152.629 49.4844 152.839 49.8236 152.734 50.3887C152.725 50.4365 152.712 50.4836 152.697 50.5411Z" fill="#FFFEFE"/>
<path d="M152.054 47.2914C151.663 47.2914 151.284 47.2914 150.883 47.2914C150.918 47.1919 150.948 47.1024 150.98 47.0136C151.179 46.4608 151.381 45.9091 151.576 45.3547C151.611 45.2532 151.67 45.2151 151.769 45.2169C152.283 45.2257 152.797 45.2223 153.309 45.246C153.755 45.2668 153.979 45.6158 153.875 46.0882C153.727 46.7611 153.212 47.212 152.53 47.2647C152.376 47.2766 152.221 47.2826 152.054 47.2914Z" fill="#FEFEFE"/>
</g>
<defs>
<clipPath id="clip0_291_7103">
<rect width="53.1915" height="40" fill="white" transform="translate(123.404 30)"/>
</clipPath>
</defs>
</svg>
