<svg width="300" height="100" viewBox="0 0 300 100" fill="none" xmlns="http://www.w3.org/2000/svg">
<rect width="300" height="100" fill="white"/>
<g clip-path="url(#clip0_291_7419)">
<path d="M107.221 54.5371C106.673 59.4575 105.792 64.7573 105.09 66.7658C105.09 66.7658 103.163 68.0453 100.548 67.988C97.4986 68.0378 95.7671 66.6395 95.7671 66.6395C95.8979 66.6985 96.0345 66.7435 96.1746 66.7738C96.8171 67.1647 98.3148 67.8928 100.508 67.8572C103.072 67.9133 104.961 66.6589 104.961 66.6589C105.63 64.7483 106.463 59.8003 107.002 55.1011C107.075 54.9158 107.148 54.7278 107.221 54.5371Z" fill="#CDA453"/>
<path d="M107.424 54.1982C106.876 59.3085 105.996 64.8129 105.293 66.8989C105.293 66.8989 103.366 68.2278 100.752 68.1683C97.7019 68.22 95.9704 66.7677 95.9704 66.7677C96.1011 66.829 96.2378 66.8757 96.3779 66.9072C97.0204 67.3131 98.5181 68.0694 100.712 68.0323C103.275 68.0907 105.164 66.7877 105.164 66.7877C105.833 64.8035 106.667 59.6644 107.205 54.7839C107.278 54.5915 107.351 54.3963 107.424 54.1982Z" fill="white" stroke="white" stroke-width="2" stroke-miterlimit="10"/>
<path d="M107.002 55.1011C106.463 59.8002 105.63 64.7502 104.961 66.6589C104.961 66.6589 103.072 67.9134 100.508 67.8571C98.3148 67.8928 96.8171 67.1646 96.1746 66.7738C97.5578 67.1002 102.255 67.1529 107.002 55.1011Z" fill="url(#paint0_linear_291_7419)"/>
<path d="M100.377 32.7535C100.377 32.7535 100.288 32.8214 100.127 32.9649C97.9247 33.0343 93.4141 33.5587 93.4141 33.5587C93.0901 38.0469 93.1026 43.7239 93.1231 45.9669C93.0527 46.2199 92.9839 46.4767 92.9166 46.7375C92.8157 47.1287 92.7823 39.0794 93.1956 33.3556C93.1956 33.3561 98.4359 32.7455 100.377 32.7535Z" fill="#CDA453" stroke="#CCA256" stroke-miterlimit="10"/>
<path d="M100.41 32.4469C100.41 32.4469 100.317 32.5234 100.15 32.6852C97.8654 32.7634 93.1849 33.3547 93.1849 33.3547C92.8486 38.415 92.8616 44.8157 92.8829 47.3446C92.8099 47.6298 92.7385 47.9194 92.6686 48.2135C92.5639 48.6546 92.5293 39.5792 92.9581 33.1259C92.9581 33.1262 98.3958 32.4379 100.41 32.4469Z" fill="white" stroke="white" stroke-width="3" stroke-miterlimit="10"/>
<path d="M100.127 32.9648C99.1386 33.8444 95.4525 37.5691 93.1231 45.9668C93.1026 43.7246 93.0901 38.0476 93.4141 33.5587C93.4141 33.5587 97.9247 33.0343 100.127 32.9648Z" fill="url(#paint1_linear_291_7419)"/>
<path d="M92.8067 46.9723C90.3744 56.952 91.8926 65.8926 96.1977 66.9418C100.503 67.9911 105.964 60.7515 108.397 50.7719C110.829 40.7922 109.311 31.8516 105.006 30.8024C100.701 29.7531 95.239 36.9927 92.8067 46.9723Z" fill="white"/>
<path d="M96.5317 39.7439C96.5317 39.7439 99.7154 34.8072 102.72 34.8072C105.725 34.8072 106.594 38.6504 106.594 42.3584C106.741 46.2042 105.19 52.1514 103.174 56.882C103.174 56.882 108.205 49.0941 108.205 39.8631C108.205 36.1346 106.977 32.041 104.282 32.041C100.414 32.041 96.5317 39.7439 96.5317 39.7439Z" fill="url(#paint2_linear_291_7419)"/>
<path d="M92.9258 53.6366C92.9258 56.3592 93.6581 62.5246 97.2459 62.5246C104.084 62.5246 108.205 46.7393 108.806 41.4717C109.195 47.6188 103.955 65.8744 96.7389 65.8744C91.6967 65.8744 92.9258 53.6366 92.9258 53.6366Z" fill="url(#paint3_linear_291_7419)"/>
<path d="M104.268 47.5229C104.268 47.5229 104.997 46.8832 105.071 46.2287C105.252 44.6349 103.241 42.4341 100.221 42.4341V53.3692C100.221 53.3692 104.997 53.1768 105.369 49.2187C105.477 48.072 104.268 47.5229 104.268 47.5229ZM101.932 44.6452C102.983 44.6452 103.619 45.3904 103.619 45.9709C103.647 46.3552 103.421 46.713 103.063 46.8532H101.932V44.6452ZM103.769 50.2303C103.197 51.0784 101.932 51.1972 101.932 51.1972V48.5789C103.688 48.4006 103.809 48.7391 103.905 48.9732C104.02 49.2434 104.01 49.8437 103.769 50.2303Z" fill="url(#paint4_radial_291_7419)"/>
<path d="M99.5169 42.4346V53.3689C98.953 53.3697 98.3905 53.3126 97.8382 53.1986L95.3274 46.4367V52.1877C94.8315 51.8721 94.383 51.4875 93.9955 51.0456L94.0239 44.7261C94.5103 44.1822 95.0866 43.726 95.7277 43.3776L97.9286 48.5898V42.5875C98.4518 42.4854 98.9837 42.4341 99.5169 42.4346Z" fill="url(#paint5_radial_291_7419)"/>
<path d="M150.488 45.5757C150.488 45.5154 150.488 45.4634 150.488 45.407C150.524 45.4018 150.551 45.3945 150.578 45.3945C151.416 45.3962 152.254 45.3932 153.092 45.4032C153.454 45.4075 153.814 45.462 154.145 45.6177C154.324 45.7018 154.5 45.8037 154.653 45.9273C155.291 46.4417 155.3 47.5012 154.614 48.0182C154.431 48.1565 154.232 48.2636 154.019 48.3472C153.969 48.3671 153.918 48.3876 153.827 48.4242C153.917 48.4515 153.969 48.4687 154.022 48.4837C154.522 48.6236 154.928 48.8954 155.221 49.3278C155.452 49.6695 155.532 50.0499 155.48 50.4543C155.419 50.9303 155.148 51.2662 154.742 51.5027C154.367 51.7209 153.954 51.8037 153.528 51.8073C152.551 51.8155 151.574 51.81 150.598 51.8096C150.565 51.8096 150.533 51.8046 150.489 51.801C150.489 51.743 150.489 51.6915 150.489 51.6363C150.587 51.6183 150.68 51.6064 150.77 51.5835C150.938 51.5407 151.057 51.4343 151.111 51.2707C151.148 51.1557 151.173 51.0345 151.187 50.9142C151.202 50.7824 151.202 50.6483 151.202 50.5152C151.203 49.2386 151.204 47.962 151.201 46.6854C151.201 46.4974 151.193 46.307 151.163 46.1221C151.102 45.7493 150.957 45.6254 150.577 45.585C150.55 45.5822 150.523 45.5794 150.488 45.5757ZM152.059 48.6075C152.056 48.6608 152.052 48.688 152.052 48.7152C152.052 49.359 152.049 50.0028 152.057 50.6465C152.059 50.8115 152.081 50.9791 152.117 51.1402C152.181 51.4224 152.331 51.5443 152.621 51.5547C152.871 51.5637 153.122 51.568 153.37 51.5519C153.859 51.5202 154.201 51.2655 154.393 50.8187C154.533 50.4925 154.547 50.1492 154.468 49.8062C154.348 49.2802 154.004 48.9491 153.517 48.7525C153.05 48.5638 152.559 48.6125 152.059 48.6075ZM152.062 45.6432C152.062 46.5581 152.062 47.4489 152.062 48.3552C152.304 48.3552 152.536 48.3597 152.768 48.3534C152.9 48.3497 153.035 48.3415 153.164 48.3127C153.645 48.2055 154.004 47.9477 154.167 47.4625C154.226 47.286 154.233 47.1035 154.227 46.9195C154.206 46.3055 153.86 45.8726 153.268 45.7126C152.875 45.6063 152.475 45.6588 152.062 45.6432Z" fill="#074AA1" stroke="#074AA1" stroke-miterlimit="10"/>
<path d="M113.918 46.3005C113.918 46.3604 113.918 46.4203 113.918 46.4801C113.918 47.8519 113.917 49.2236 113.918 50.5954C113.918 50.723 113.92 50.8513 113.934 50.978C113.975 51.3696 114.187 51.5762 114.578 51.6143C114.633 51.6195 114.687 51.6242 114.75 51.63C114.753 51.6856 114.756 51.7335 114.758 51.779C114.627 51.8188 113.305 51.8333 112.828 51.8017C112.828 51.7471 112.828 51.6915 112.828 51.634C112.931 51.6171 113.03 51.6061 113.126 51.5842C113.32 51.5399 113.456 51.4213 113.511 51.2303C113.551 51.0926 113.574 50.9493 113.593 50.807C113.607 50.7086 113.603 50.6075 113.603 50.5075C113.603 49.2746 113.604 48.0417 113.601 46.8088C113.601 46.6485 113.591 46.4863 113.564 46.3286C113.495 45.9235 113.275 45.7029 112.873 45.617C112.808 45.6032 112.743 45.5914 112.668 45.5768C112.668 45.5224 112.668 45.4697 112.668 45.3935C112.724 45.3935 112.778 45.3935 112.831 45.3935C113.27 45.3935 113.709 45.3975 114.147 45.3907C114.26 45.3889 114.329 45.4285 114.398 45.5137C115.655 47.0753 116.915 48.6348 118.174 50.1947C118.214 50.244 118.256 50.2917 118.296 50.3401C118.308 50.336 118.319 50.3318 118.33 50.3276C118.33 50.2743 118.33 50.221 118.33 50.1678C118.33 49.007 118.332 47.8463 118.327 46.6856C118.326 46.4871 118.311 46.2851 118.271 46.0911C118.205 45.7693 118.053 45.642 117.729 45.5926C117.675 45.5844 117.621 45.5808 117.558 45.574C117.558 45.5162 117.558 45.464 117.558 45.4027C118.198 45.4027 118.828 45.4027 119.47 45.4027C119.47 45.461 119.47 45.5126 119.47 45.5688C119.362 45.5859 119.258 45.5973 119.157 45.6198C118.938 45.6683 118.784 45.7976 118.731 46.0178C118.695 46.1678 118.669 46.3233 118.664 46.477C118.654 46.8378 118.659 47.1989 118.659 47.5599C118.659 48.9039 118.659 50.2479 118.659 51.5919C118.659 51.6575 118.659 51.7231 118.659 51.7855C118.521 51.843 118.443 51.7908 118.364 51.6938C116.938 49.9397 115.51 48.1878 114.083 46.4356C114.042 46.3853 113.999 46.3363 113.957 46.2865C113.944 46.2912 113.931 46.2959 113.918 46.3005Z" fill="#074AA1" stroke="#074AA1" stroke-miterlimit="10"/>
<path d="M123.885 52.746C123.717 52.6756 123.568 52.6274 123.433 52.554C122.956 52.2952 122.893 51.8451 123.277 51.4582C123.484 51.2494 123.742 51.1196 124.01 51.0074C124.085 50.9759 124.16 50.9436 124.26 50.9015C124.161 50.8656 124.088 50.841 124.017 50.8133C123.624 50.6608 123.304 50.4177 123.137 50.0224C122.776 49.167 123.167 48.0511 124.254 47.7889C124.419 47.7491 124.595 47.7406 124.765 47.7424C125.476 47.7499 126.186 47.7669 126.897 47.7807C126.924 47.7812 126.951 47.7846 126.99 47.7875C126.99 47.9282 126.99 48.0637 126.99 48.2189C126.662 48.2189 126.332 48.2189 125.968 48.2189C126.01 48.287 126.033 48.3273 126.059 48.3649C126.264 48.6581 126.393 48.9769 126.399 49.3401C126.414 50.1699 125.778 50.8814 124.951 50.9432C124.573 50.9714 124.238 51.099 123.932 51.3131C123.855 51.3668 123.782 51.4294 123.721 51.5001C123.591 51.6501 123.609 51.8355 123.772 51.9483C123.861 52.0099 123.968 52.0566 124.074 52.0809C124.441 52.1656 124.812 52.2341 125.181 52.3156C125.494 52.385 125.808 52.4576 126.118 52.5414C126.24 52.5741 126.358 52.6309 126.467 52.6949C126.928 52.9653 127.096 53.4103 126.939 53.9224C126.846 54.2266 126.653 54.458 126.407 54.6494C125.958 54.998 125.44 55.1652 124.881 55.2076C124.407 55.2436 123.937 55.2197 123.486 55.0499C123.281 54.973 123.093 54.8681 122.931 54.7199C122.505 54.3306 122.5 53.7148 122.92 53.3204C123.154 53.1009 123.437 52.9581 123.724 52.8227C123.773 52.7996 123.821 52.7764 123.885 52.746ZM125.04 54.8049C125.233 54.7859 125.427 54.7764 125.618 54.7454C125.884 54.7023 126.129 54.6021 126.338 54.4256C126.647 54.1654 126.716 53.6295 126.242 53.3673C126.112 53.2955 125.973 53.2276 125.83 53.1924C125.336 53.0704 124.838 52.9633 124.341 52.8521C124.304 52.8439 124.261 52.8393 124.226 52.849C123.903 52.9365 123.588 53.0453 123.336 53.2775C123.017 53.5712 123.02 53.9881 123.338 54.2846C123.482 54.4191 123.653 54.5087 123.834 54.5813C124.221 54.7361 124.625 54.7908 125.04 54.8049ZM123.731 49.3207C123.731 49.3873 123.727 49.4542 123.732 49.5204C123.759 49.8342 123.83 50.1339 124.024 50.392C124.376 50.8629 125.042 50.8679 125.39 50.3944C125.477 50.276 125.545 50.1361 125.59 49.9959C125.705 49.6358 125.717 49.2649 125.648 48.8935C125.604 48.6557 125.514 48.4354 125.351 48.2518C125.135 48.0079 124.866 47.9135 124.543 47.9734C124.232 48.0313 124.034 48.2299 123.896 48.4981C123.764 48.7556 123.723 49.0341 123.731 49.3207Z" fill="#074AA1" stroke="#074AA1" stroke-miterlimit="10"/>
<path d="M195.466 51.6313C195.466 51.6877 195.466 51.7357 195.466 51.7832C195.349 51.8157 193.423 51.8258 193.181 51.7939C193.181 51.7439 193.181 51.6924 193.181 51.6325C193.254 51.622 193.325 51.6151 193.395 51.6013C193.609 51.5587 193.757 51.4372 193.816 51.2231C193.844 51.1219 193.864 51.0181 193.878 50.9142C193.89 50.8321 193.89 50.748 193.89 50.6648C193.89 49.2989 193.891 47.9329 193.889 46.5669C193.888 46.4179 193.877 46.2669 193.851 46.1202C193.788 45.7622 193.634 45.6257 193.275 45.5854C193.248 45.5824 193.221 45.58 193.185 45.5764C193.179 45.5482 193.17 45.5225 193.169 45.4967C193.169 45.4699 193.175 45.4429 193.179 45.4119C193.204 45.4054 193.224 45.395 193.245 45.395C194.055 45.3963 194.866 45.3937 195.676 45.4027C196.101 45.4075 196.517 45.4803 196.906 45.6593C197.311 45.845 197.646 46.1115 197.841 46.5222C198.271 47.4271 197.842 48.3992 196.875 48.712C196.415 48.8611 195.94 48.8922 195.46 48.8656C195.266 48.8548 195.073 48.835 194.879 48.8204C194.842 48.8176 194.804 48.82 194.756 48.82C194.752 48.876 194.747 48.9246 194.747 48.9731C194.746 49.5284 194.742 50.0837 194.749 50.6389C194.752 50.8151 194.771 50.9941 194.808 51.1662C194.87 51.4535 195.024 51.5786 195.313 51.6138C195.362 51.6198 195.411 51.6249 195.466 51.6313ZM194.756 45.644C194.756 46.619 194.756 47.5652 194.756 48.5102C194.785 48.5229 194.804 48.5349 194.825 48.5402C195.263 48.6485 195.705 48.6707 196.14 48.5445C196.631 48.4022 196.954 48.0842 197.065 47.5739C197.108 47.3715 197.105 47.166 197.079 46.9612C197.003 46.3612 196.595 45.7837 195.877 45.672C195.508 45.6148 195.137 45.6545 194.756 45.644Z" fill="#074AA1" stroke="#074AA1" stroke-miterlimit="10"/>
<path d="M169.073 51.8863C169.005 51.8863 168.951 51.8863 168.88 51.8863C168.468 50.8652 168.055 49.8429 167.627 48.782C167.395 49.3203 167.203 49.837 166.997 50.3475C166.791 50.8565 166.592 51.3678 166.387 51.8831C166.322 51.8831 166.263 51.8831 166.199 51.8831C166.173 51.8238 166.147 51.769 166.124 51.7132C165.699 50.6761 165.275 49.6389 164.85 48.6018C164.831 48.5556 164.811 48.5099 164.791 48.464C164.687 48.2229 164.499 48.0946 164.245 48.055C164.217 48.0508 164.189 48.0507 164.162 48.0476C164.14 48.0453 164.119 48.0412 164.087 48.0361C164.087 47.9803 164.087 47.928 164.087 47.8655C164.715 47.8655 165.34 47.8655 165.981 47.8655C165.986 47.9173 165.99 47.9691 165.995 48.0274C165.904 48.0471 165.822 48.0583 165.745 48.0836C165.612 48.1272 165.567 48.1991 165.588 48.3369C165.599 48.4129 165.622 48.4888 165.65 48.5604C165.938 49.2818 166.228 50.0024 166.518 50.7228C166.53 50.7517 166.549 50.7775 166.574 50.8201C166.605 50.7429 166.631 50.682 166.655 50.6205C166.911 49.9642 167.168 49.3081 167.422 48.6508C167.454 48.5677 167.524 48.4878 167.459 48.3857C167.377 48.2592 167.307 48.1236 167.147 48.0791C167.078 48.06 167.008 48.0482 166.929 48.0311C166.929 47.9778 166.929 47.9255 166.929 47.8643C167.562 47.8643 168.187 47.8643 168.82 47.8643C168.82 47.9253 168.82 47.9774 168.82 48.0308C168.725 48.0495 168.637 48.0595 168.553 48.0848C168.367 48.1407 168.296 48.2665 168.338 48.4548C168.351 48.514 168.369 48.5728 168.392 48.6294C168.663 49.3158 168.935 50.0016 169.207 50.6875C169.223 50.728 169.243 50.767 169.269 50.8236C169.297 50.7623 169.319 50.7183 169.337 50.6726C169.582 50.0537 169.828 49.4348 170.071 48.815C170.109 48.7172 170.143 48.6163 170.167 48.5142C170.228 48.2611 170.137 48.1205 169.884 48.0638C169.825 48.0506 169.765 48.0455 169.696 48.0354C169.696 47.9786 169.696 47.9264 169.696 47.8647C170.204 47.8647 170.707 47.8647 171.217 47.8647C171.217 47.9224 171.217 47.9708 171.217 48.0394C171.163 48.0429 171.11 48.048 171.057 48.0494C170.788 48.0565 170.588 48.1698 170.474 48.4189C170.409 48.56 170.339 48.6992 170.282 48.8433C169.902 49.797 169.526 50.7519 169.148 51.7063C169.126 51.7628 169.102 51.8185 169.073 51.8863Z" fill="#074AA1" stroke="#074AA1" stroke-miterlimit="10"/>
<path d="M145.271 51.8003C145.271 51.7423 145.271 51.6941 145.271 51.6293C145.331 51.6251 145.391 51.6237 145.45 51.6162C145.527 51.6063 145.604 51.5967 145.679 51.578C145.815 51.5438 145.9 51.4542 145.926 51.3154C145.94 51.2394 145.95 51.1615 145.95 51.0845C145.952 50.4127 145.953 49.741 145.95 49.0694C145.949 48.965 145.937 48.8575 145.909 48.757C145.777 48.2687 145.241 48.0193 144.749 48.2118C144.46 48.325 144.254 48.5409 144.056 48.7688C143.968 48.87 143.929 48.976 143.931 49.1145C143.939 49.6473 143.933 50.1803 143.935 50.7132C143.936 50.8685 143.943 51.0242 143.958 51.1786C143.987 51.4776 144.101 51.5858 144.403 51.6142C144.462 51.6199 144.522 51.6227 144.588 51.6273C144.588 51.6887 144.588 51.737 144.588 51.7977C143.9 51.7977 143.216 51.7977 142.522 51.7977C142.522 51.7445 142.522 51.6966 142.522 51.6365C142.565 51.6305 142.607 51.6244 142.649 51.6185C142.72 51.6084 142.791 51.6005 142.862 51.588C143.009 51.5622 143.103 51.4772 143.127 51.328C143.144 51.2244 143.163 51.1195 143.164 51.015C143.17 50.5821 143.17 50.1491 143.171 49.7162C143.172 49.3775 143.172 49.0389 143.17 48.7003C143.17 48.6005 143.168 48.5 143.155 48.4013C143.128 48.2012 143.052 48.1179 142.854 48.076C142.752 48.0543 142.647 48.0481 142.528 48.033C142.528 47.9792 142.528 47.9238 142.528 47.8538C142.99 47.8112 143.447 47.7691 143.924 47.7251C143.924 47.9897 143.924 48.2309 143.924 48.4794C144.01 48.4836 144.033 48.424 144.068 48.3887C144.322 48.1346 144.598 47.9173 144.947 47.8062C145.8 47.5341 146.623 48.0775 146.694 48.9696C146.715 49.2291 146.708 49.4909 146.71 49.7516C146.712 50.1346 146.708 50.5177 146.712 50.9007C146.714 51.0277 146.724 51.1557 146.745 51.281C146.772 51.4525 146.878 51.5579 147.051 51.5887C147.154 51.6072 147.258 51.6193 147.373 51.6359C147.373 51.687 147.373 51.7387 147.373 51.8004C146.672 51.8003 145.976 51.8003 145.271 51.8003Z" fill="#074AA1" stroke="#074AA1" stroke-miterlimit="10"/>
<path d="M140.858 49.4152C140.851 49.2519 140.853 49.1017 140.836 48.9537C140.763 48.2969 140.181 48.0188 139.613 48.219C139.301 48.3289 139.101 48.5606 138.97 48.8574C138.95 48.9024 138.933 48.9482 138.91 49.0031C138.847 48.9879 138.789 48.9742 138.718 48.9573C138.732 48.8985 138.739 48.8505 138.754 48.8047C139.074 47.7862 140.112 47.5225 140.889 47.8952C141.313 48.0983 141.532 48.4611 141.59 48.9219C141.606 49.0482 141.61 49.1767 141.611 49.3042C141.613 49.8262 141.61 50.3483 141.613 50.8703C141.614 51.0197 141.622 51.1704 141.643 51.3181C141.661 51.4417 141.73 51.5034 141.821 51.5078C141.927 51.5129 141.981 51.4427 142.018 51.3575C142.05 51.2866 142.075 51.213 142.107 51.1316C142.158 51.1316 142.211 51.1316 142.265 51.1316C142.313 51.4276 142.093 51.7829 141.796 51.8891C141.391 52.034 141.121 51.8953 140.843 51.3936C140.744 51.4837 140.65 51.5756 140.55 51.6604C140.216 51.9435 139.831 51.9979 139.423 51.8791C138.857 51.7142 138.538 51.1469 138.691 50.6032C138.754 50.379 138.882 50.1962 139.086 50.0879C139.305 49.9712 139.535 49.8704 139.768 49.7845C140.017 49.6927 140.277 49.6293 140.531 49.5475C140.64 49.5122 140.745 49.4617 140.858 49.4152ZM140.852 49.6655C140.493 49.8019 140.156 49.9034 139.836 50.0581C139.337 50.2998 139.324 51.0214 139.65 51.3408C139.763 51.4509 139.893 51.5209 140.051 51.5078C140.353 51.4828 140.602 51.3486 140.786 51.1063C140.82 51.0607 140.849 50.9969 140.85 50.9411C140.855 50.526 140.852 50.1108 140.852 49.6655Z" fill="#074AA1" stroke="#074AA1" stroke-miterlimit="10"/>
<path d="M198.538 45.0922C198.538 45.029 198.538 44.981 198.538 44.917C199.049 44.8682 199.551 44.796 200.082 44.7783C200.082 44.8606 200.082 44.9255 200.082 44.9903C200.082 46.9835 200.081 48.9767 200.083 50.9698C200.083 51.0801 200.093 51.1915 200.111 51.3003C200.136 51.4595 200.235 51.56 200.394 51.5878C200.524 51.6105 200.656 51.6202 200.799 51.637C200.799 51.6872 200.799 51.739 200.799 51.8004C200.07 51.8004 199.345 51.8004 198.612 51.8004C198.607 51.7717 198.598 51.7456 198.598 51.7194C198.597 51.6929 198.604 51.6661 198.61 51.6172C198.701 51.6172 198.788 51.6216 198.875 51.6163C199.122 51.6015 199.238 51.505 199.286 51.2622C199.308 51.1542 199.317 51.0421 199.317 50.9318C199.32 50.2101 199.32 49.4883 199.32 48.7665C199.32 47.7672 199.32 46.7678 199.32 45.7685C199.32 45.6742 199.321 45.5792 199.311 45.4857C199.285 45.2523 199.169 45.1377 198.936 45.1145C198.81 45.1021 198.683 45.1 198.538 45.0922Z" fill="#074AA1" stroke="#074AA1" stroke-miterlimit="10"/>
<path d="M175.081 49.3881C174.589 49.3881 174.108 49.3881 173.627 49.3881C173.151 49.3881 172.675 49.3881 172.192 49.3881C172.166 49.6036 172.188 49.8005 172.218 49.9965C172.265 50.3062 172.353 50.6032 172.521 50.8707C172.755 51.2444 173.079 51.5045 173.517 51.5909C173.892 51.6648 174.249 51.6027 174.556 51.3613C174.716 51.2347 174.86 51.0861 175.011 50.947C175.05 50.9109 175.087 50.8734 175.142 50.8209C175.162 50.9774 175.16 51.0922 175.057 51.2063C174.784 51.5084 174.486 51.77 174.079 51.8651C173.194 52.0717 172.196 51.8267 171.658 50.9354C171.432 50.5614 171.361 50.1492 171.389 49.7194C171.438 48.9842 171.761 48.4023 172.388 48.0066C173.038 47.5959 174.122 47.5807 174.785 48.4268C175.001 48.7026 175.103 49.0159 175.081 49.3881ZM174.333 49.191C174.328 49.0889 174.328 49.0066 174.32 48.9251C174.274 48.4424 173.926 48.0597 173.47 47.9873C172.952 47.905 172.518 48.1275 172.317 48.5953C172.255 48.7408 172.228 48.9022 172.19 49.0574C172.18 49.0972 172.188 49.1414 172.188 49.191C172.905 49.191 173.606 49.191 174.333 49.191Z" fill="#074AA1" stroke="#074AA1" stroke-miterlimit="10"/>
<path d="M186.265 49.3845C185.296 49.3845 184.338 49.3845 183.384 49.3845C183.37 49.4139 183.357 49.4283 183.357 49.4425C183.36 49.8454 183.408 50.2413 183.57 50.6141C183.788 51.1167 184.145 51.4714 184.693 51.589C185.067 51.6695 185.425 51.6036 185.733 51.3643C185.894 51.2385 186.038 51.0904 186.188 50.9502C186.228 50.9131 186.26 50.8676 186.315 50.8021C186.354 50.9682 186.348 51.0789 186.252 51.1875C185.98 51.497 185.68 51.7644 185.266 51.8631C184.38 52.0745 183.369 51.8253 182.833 50.926C182.645 50.6125 182.569 50.2678 182.566 49.9068C182.559 49.2589 182.772 48.6997 183.248 48.2483C184.071 47.4674 185.42 47.5983 186.033 48.5203C186.204 48.7773 186.279 49.06 186.265 49.3845ZM185.522 49.1906C185.509 49.0591 185.507 48.9437 185.486 48.8316C185.374 48.2394 184.868 47.8935 184.256 47.987C183.733 48.067 183.316 48.6353 183.381 49.1906C184.083 49.1906 184.785 49.1906 185.522 49.1906Z" fill="#074AA1" stroke="#074AA1" stroke-miterlimit="10"/>
<path d="M163.63 49.3881C163.138 49.3881 162.656 49.3881 162.174 49.3881C161.698 49.3881 161.221 49.3881 160.73 49.3881C160.723 49.6272 160.743 49.8463 160.782 50.0636C160.84 50.395 160.946 50.7093 161.149 50.983C161.382 51.2977 161.682 51.5178 162.072 51.5918C162.442 51.6621 162.794 51.6038 163.097 51.3692C163.263 51.2406 163.41 51.0874 163.566 50.9448C163.605 50.9092 163.642 50.8716 163.695 50.8202C163.725 50.9805 163.709 51.0937 163.609 51.207C163.298 51.5577 162.945 51.8339 162.467 51.9002C161.692 52.0078 160.998 51.848 160.446 51.2533C160.092 50.8718 159.941 50.4109 159.937 49.8986C159.932 49.2506 160.148 48.6919 160.625 48.2426C161.451 47.4652 162.8 47.6025 163.409 48.5268C163.575 48.7783 163.655 49.0753 163.63 49.3881ZM162.898 49.1878C162.88 49.0352 162.878 48.9009 162.846 48.7744C162.748 48.3843 162.511 48.1105 162.114 48.0125C161.718 47.9146 161.351 47.9797 161.062 48.2943C160.834 48.5422 160.752 48.8468 160.734 49.1878C161.452 49.1878 162.159 49.1878 162.898 49.1878Z" fill="#074AA1" stroke="#074AA1" stroke-miterlimit="10"/>
<path d="M131.244 49.3846C130.275 49.3846 129.317 49.3846 128.355 49.3846C128.345 49.419 128.335 49.4392 128.335 49.4592C128.341 49.839 128.384 50.2133 128.529 50.5681C128.744 51.0928 129.103 51.4656 129.671 51.589C130.046 51.6703 130.404 51.6037 130.711 51.3644C130.873 51.2387 131.017 51.0912 131.166 50.9499C131.205 50.9126 131.232 50.8618 131.28 50.8284C131.332 50.9682 131.326 51.079 131.231 51.1875C130.958 51.497 130.659 51.7645 130.245 51.8632C129.358 52.0747 128.348 51.8253 127.811 50.926C127.624 50.6125 127.548 50.2679 127.544 49.9069C127.538 49.259 127.751 48.6998 128.226 48.2484C129.049 47.4674 130.398 47.5983 131.012 48.5202C131.183 48.7773 131.257 49.06 131.244 49.3846ZM130.505 49.1878C130.487 49.036 130.486 48.9018 130.453 48.7753C130.353 48.3785 130.111 48.1033 129.706 48.0088C129.308 47.9162 128.942 47.9869 128.658 48.3063C128.439 48.5527 128.358 48.8523 128.341 49.1877C129.058 49.1878 129.765 49.1878 130.505 49.1878Z" fill="#074AA1" stroke="#074AA1" stroke-miterlimit="10"/>
<path d="M131.769 48.0371C131.769 47.9745 131.769 47.9258 131.769 47.8581C132.288 47.8184 132.802 47.7476 133.345 47.7388C133.345 48.0181 133.345 48.2805 133.345 48.5758C133.41 48.5288 133.444 48.5053 133.477 48.4793C133.646 48.3442 133.813 48.206 133.984 48.0741C134.072 48.0067 134.166 47.9456 134.261 47.8896C134.668 47.6511 135.067 47.7071 135.42 48.0584C135.326 48.2809 135.229 48.5086 135.128 48.7471C134.992 48.6813 134.866 48.6265 134.746 48.5614C134.299 48.3191 133.9 48.3855 133.522 48.7196C133.393 48.8333 133.337 48.9426 133.339 49.1148C133.349 49.7309 133.343 50.3473 133.344 50.9637C133.344 51.0523 133.347 51.1416 133.357 51.2296C133.383 51.4532 133.464 51.5446 133.682 51.5916C133.779 51.6125 133.878 51.6191 133.991 51.6341C133.994 51.6861 133.996 51.7382 133.999 51.8004C133.304 51.8004 132.622 51.8004 131.926 51.8004C131.926 51.7471 131.926 51.6911 131.926 51.6351C132.042 51.6186 132.152 51.6064 132.26 51.5868C132.412 51.5593 132.512 51.4698 132.536 51.3148C132.559 51.1673 132.583 51.0178 132.584 50.8691C132.588 50.1473 132.587 49.4254 132.584 48.7036C132.584 48.5987 132.572 48.4928 132.555 48.3891C132.527 48.2173 132.427 48.1082 132.25 48.0838C132.129 48.0671 132.008 48.0587 131.886 48.0468C131.854 48.0437 131.821 48.0414 131.769 48.0371Z" fill="#074AA1" stroke="#074AA1" stroke-miterlimit="10"/>
<path d="M175.617 48.0382C175.617 47.976 175.617 47.9239 175.617 47.858C176.134 47.8169 176.644 47.7491 177.176 47.7383C177.176 48.0168 177.176 48.2809 177.176 48.5714C177.23 48.5391 177.262 48.524 177.289 48.5023C177.472 48.3572 177.652 48.2085 177.836 48.0659C177.919 48.0015 178.008 47.9441 178.099 47.8909C178.507 47.6515 178.907 47.7065 179.259 48.0569C179.213 48.1679 179.165 48.285 179.116 48.4014C179.069 48.5133 179.02 48.6246 178.967 48.7462C178.89 48.7086 178.822 48.6716 178.752 48.6424C178.583 48.5725 178.415 48.4994 178.242 48.4402C178.061 48.3779 177.875 48.3924 177.712 48.4937C177.548 48.5958 177.398 48.7196 177.241 48.8334C177.19 48.8704 177.183 48.9217 177.183 48.9802C177.184 49.6909 177.184 50.4017 177.185 51.1124C177.185 51.1235 177.185 51.1346 177.186 51.1457C177.204 51.4587 177.321 51.5814 177.635 51.6133C177.7 51.6199 177.766 51.6235 177.838 51.629C177.838 51.6894 177.838 51.7376 177.838 51.7979C177.149 51.7979 176.464 51.7979 175.766 51.7979C175.761 51.7754 175.753 51.7503 175.752 51.7248C175.751 51.6978 175.756 51.6704 175.76 51.6311C175.838 51.6242 175.914 51.6201 175.99 51.6104C176.261 51.576 176.348 51.4961 176.395 51.2302C176.411 51.1379 176.419 51.0428 176.419 50.9489C176.421 50.1826 176.421 49.4164 176.419 48.6501C176.419 48.5621 176.405 48.4736 176.392 48.3861C176.366 48.2101 176.261 48.1093 176.087 48.083C175.988 48.0681 175.889 48.0584 175.79 48.0484C175.736 48.0428 175.681 48.0418 175.617 48.0382Z" fill="#074AA1" stroke="#074AA1" stroke-miterlimit="10"/>
<path d="M158.109 51.6385C158.109 51.6932 158.109 51.7415 158.109 51.7998C157.416 51.7998 156.73 51.7998 156.033 51.7998C156.033 51.7434 156.033 51.6917 156.033 51.6353C156.147 51.6195 156.256 51.6068 156.365 51.5886C156.533 51.5603 156.63 51.4565 156.655 51.2898C156.672 51.1805 156.689 51.0697 156.689 50.9596C156.692 50.1878 156.692 49.4159 156.69 48.6441C156.69 48.5507 156.674 48.4566 156.658 48.364C156.631 48.2016 156.527 48.1112 156.368 48.0851C156.265 48.068 156.16 48.0586 156.055 48.0481C156.001 48.0428 155.947 48.0426 155.885 48.0397C155.885 47.9766 155.885 47.9283 155.885 47.8584C156.402 47.8168 156.915 47.7484 157.451 47.7388C157.451 48.0205 157.451 48.284 157.451 48.5754C157.506 48.5388 157.537 48.5208 157.565 48.4986C157.725 48.3699 157.881 48.2361 158.045 48.1123C158.164 48.0222 158.289 47.9367 158.419 47.8636C158.798 47.6505 159.219 47.7253 159.53 48.0633C159.436 48.2848 159.34 48.5122 159.24 48.7473C159.101 48.6802 158.975 48.6241 158.853 48.5591C158.405 48.3195 158 48.3817 157.632 48.7269C157.608 48.7497 157.584 48.7728 157.556 48.7918C157.476 48.8477 157.452 48.9213 157.453 49.0195C157.457 49.6081 157.455 50.1966 157.455 50.7852C157.455 50.8907 157.451 50.9964 157.456 51.1016C157.461 51.1787 157.472 51.2562 157.489 51.3315C157.519 51.462 157.603 51.5485 157.733 51.5776C157.851 51.6041 157.972 51.6169 158.109 51.6385Z" fill="#074AA1" stroke="#074AA1" stroke-miterlimit="10"/>
<path d="M187.324 51.9029C187.263 51.9029 187.214 51.9029 187.156 51.9029C187.156 51.4551 187.156 51.0141 187.156 50.5641C187.216 50.5641 187.269 50.5641 187.33 50.5641C187.349 50.628 187.366 50.6915 187.387 50.7535C187.558 51.2592 187.882 51.6004 188.423 51.7015C188.588 51.7325 188.754 51.7239 188.912 51.6515C189.361 51.4447 189.445 50.832 189.064 50.4963C188.952 50.3985 188.821 50.3209 188.689 50.2506C188.509 50.1538 188.317 50.0784 188.135 49.9835C187.958 49.8912 187.779 49.7997 187.618 49.6837C187.165 49.3571 187.066 48.7615 187.374 48.294C187.681 47.8286 188.242 47.6298 188.775 47.7991C188.87 47.8293 188.963 47.8659 189.059 47.895C189.201 47.9386 189.333 47.9386 189.424 47.7912C189.473 47.7107 189.55 47.746 189.642 47.7459C189.647 48.1468 189.648 48.5417 189.64 48.944C189.561 48.944 189.497 48.944 189.436 48.944C189.394 48.8097 189.364 48.6796 189.314 48.5584C189.125 48.1077 188.681 47.8764 188.221 47.9804C187.812 48.0726 187.642 48.4845 187.88 48.8315C187.95 48.9331 188.053 49.021 188.159 49.0867C188.337 49.1977 188.531 49.2832 188.716 49.3843C188.93 49.5013 189.152 49.6077 189.351 49.7466C189.832 50.0825 189.988 50.6907 189.743 51.207C189.487 51.7478 188.896 52.0392 188.336 51.8934C188.186 51.8545 188.042 51.7927 187.896 51.7403C187.839 51.7197 187.784 51.6937 187.726 51.6742C187.529 51.6077 187.431 51.6543 187.348 51.8507C187.341 51.8656 187.334 51.8802 187.324 51.9029Z" fill="#074AA1" stroke="#074AA1" stroke-miterlimit="10"/>
<path d="M205.042 49.1299C204.969 49.1299 204.916 49.1299 204.856 49.1299C204.827 49.0441 204.803 48.9592 204.771 48.8773C204.613 48.4699 204.351 48.1582 203.925 48.0185C203.251 47.7976 202.564 48.1309 202.324 48.8327C202.038 49.6694 202.165 50.4565 202.742 51.1429C203.106 51.5747 203.577 51.6857 204.112 51.53C204.474 51.4249 204.77 51.2147 205.02 50.9362C205.049 50.9032 205.078 50.8699 205.108 50.837C205.111 50.8336 205.117 50.8329 205.136 50.8251C205.163 50.9477 205.166 51.0545 205.079 51.1602C204.63 51.7034 204.049 51.9479 203.352 51.9335C202.92 51.9246 202.518 51.8164 202.17 51.5494C201.753 51.2297 201.513 50.8061 201.442 50.2865C201.361 49.692 201.462 49.1369 201.806 48.6371C202.31 47.9061 203.093 47.6003 203.957 47.7972C204.098 47.8292 204.235 47.8734 204.374 47.9127C204.639 47.9877 204.687 47.972 204.858 47.7464C204.908 47.7464 204.962 47.7464 205.041 47.7464C205.042 48.2041 205.041 48.6561 205.042 49.1299Z" fill="#074AA1" stroke="#074AA1" stroke-miterlimit="10"/>
<path d="M135.922 48.0399C135.922 47.9756 135.922 47.9271 135.922 47.8799C136.082 47.8274 137.202 47.7305 137.416 47.7541C137.418 47.8142 137.421 47.878 137.421 47.9417C137.421 48.9581 137.421 49.9744 137.422 50.9908C137.423 51.0956 137.429 51.2017 137.447 51.305C137.472 51.4572 137.568 51.5531 137.719 51.5834C137.833 51.6061 137.948 51.6181 138.073 51.6364C138.073 51.6884 138.073 51.74 138.073 51.8009C137.356 51.8009 136.648 51.8009 135.931 51.8009C135.925 51.772 135.916 51.7464 135.915 51.7206C135.915 51.6939 135.922 51.6669 135.927 51.6291C136.018 51.6236 136.105 51.6206 136.193 51.6126C136.542 51.5806 136.657 51.4638 136.658 51.1156C136.661 50.2715 136.662 49.4273 136.658 48.5831C136.656 48.1877 136.539 48.073 136.141 48.0504C136.075 48.0467 136.009 48.0441 135.922 48.0399Z" fill="#074AA1" stroke="#074AA1" stroke-miterlimit="10"/>
<path d="M122.226 51.6355C122.226 51.69 122.226 51.7385 122.226 51.7984C121.508 51.7984 120.796 51.7984 120.075 51.7984C120.075 51.7408 120.075 51.6891 120.075 51.6361C120.221 51.619 120.359 51.6105 120.494 51.585C120.694 51.5474 120.769 51.4641 120.797 51.2638C120.808 51.1817 120.812 51.0979 120.812 51.0149C120.813 50.238 120.813 49.461 120.812 48.684C120.811 48.5845 120.807 48.4838 120.792 48.3855C120.762 48.1943 120.686 48.1151 120.493 48.0802C120.358 48.0558 120.22 48.047 120.074 48.0303C120.074 47.975 120.074 47.923 120.074 47.858C120.57 47.8164 121.056 47.7493 121.57 47.7363C121.57 47.8203 121.57 47.8852 121.57 47.9501C121.57 48.949 121.569 49.948 121.571 50.947C121.571 51.0575 121.58 51.1687 121.594 51.2783C121.616 51.4447 121.712 51.5518 121.878 51.5845C121.986 51.6056 122.096 51.6169 122.226 51.6355Z" fill="#074AA1" stroke="#074AA1" stroke-miterlimit="10"/>
<path d="M179.75 51.6375C179.913 51.6183 180.051 51.6098 180.186 51.5842C180.377 51.548 180.453 51.4649 180.482 51.2752C180.495 51.1933 180.499 51.1094 180.499 51.0265C180.5 50.244 180.5 49.4615 180.499 48.679C180.499 48.5849 180.494 48.49 180.481 48.397C180.452 48.1968 180.376 48.1156 180.175 48.0794C180.04 48.0551 179.902 48.0465 179.759 48.0301C179.759 47.9757 179.759 47.9273 179.759 47.8562C180.248 47.8127 180.737 47.7693 181.251 47.7236C181.253 47.811 181.257 47.8748 181.257 47.9388C181.257 48.9433 181.257 49.9478 181.258 50.9523C181.258 51.0573 181.267 51.1628 181.28 51.2671C181.301 51.4491 181.406 51.5586 181.587 51.5898C181.69 51.6077 181.794 51.6189 181.908 51.6346C181.908 51.6868 181.908 51.7387 181.908 51.8005C181.197 51.8005 180.489 51.8005 179.763 51.8005C179.759 51.7488 179.755 51.6971 179.75 51.6375Z" fill="#074AA1" stroke="#074AA1" stroke-miterlimit="10"/>
<path d="M180.887 46.6545C180.618 46.6521 180.399 46.4337 180.398 46.168C180.398 45.8968 180.626 45.6802 180.906 45.6867C181.168 45.6927 181.38 45.9121 181.376 46.1712C181.372 46.4416 181.153 46.657 180.887 46.6545Z" fill="#074AA1" stroke="#074AA1" stroke-miterlimit="10"/>
<path d="M121.208 46.6547C120.938 46.656 120.718 46.4445 120.712 46.1769C120.705 45.9056 120.93 45.6847 121.21 45.6865C121.473 45.6883 121.687 45.902 121.689 46.1622C121.69 46.4312 121.474 46.6533 121.208 46.6547Z" fill="#074AA1" stroke="#074AA1" stroke-miterlimit="10"/>
<path d="M137.531 46.1678C137.529 46.4436 137.319 46.6564 137.049 46.6547C136.78 46.653 136.561 46.4374 136.559 46.1715C136.557 45.8982 136.782 45.6813 137.062 45.6866C137.327 45.6918 137.532 45.9017 137.531 46.1678Z" fill="#074AA1" stroke="#074AA1" stroke-miterlimit="10"/>
</g>
<defs>
<linearGradient id="paint0_linear_291_7419" x1="96.1746" y1="61.48" x2="107.002" y2="61.48" gradientUnits="userSpaceOnUse">
<stop stop-color="#020F58"/>
<stop offset="0.18" stop-color="#02125C"/>
<stop offset="0.34" stop-color="#031B67"/>
<stop offset="0.51" stop-color="#042B7B"/>
<stop offset="0.67" stop-color="#064196"/>
<stop offset="0.84" stop-color="#095DB9"/>
<stop offset="1" stop-color="#0C80E4"/>
</linearGradient>
<linearGradient id="paint1_linear_291_7419" x1="99.1669" y1="32.6848" x2="92.0753" y2="41.1948" gradientUnits="userSpaceOnUse">
<stop stop-color="#0C80E4"/>
<stop offset="0.24" stop-color="#0858B2"/>
<stop offset="0.47" stop-color="#06388B"/>
<stop offset="0.68" stop-color="#04226F"/>
<stop offset="0.86" stop-color="#02145E"/>
<stop offset="1" stop-color="#020F58"/>
</linearGradient>
<linearGradient id="paint2_linear_291_7419" x1="112.724" y1="35.2788" x2="96.2545" y2="50.7131" gradientUnits="userSpaceOnUse">
<stop stop-color="#020F58"/>
<stop offset="0.1" stop-color="#02125B"/>
<stop offset="0.19" stop-color="#031A65"/>
<stop offset="0.26" stop-color="#042776"/>
<stop offset="0.34" stop-color="#063B8E"/>
<stop offset="0.41" stop-color="#0854AD"/>
<stop offset="0.47" stop-color="#0B72D2"/>
<stop offset="0.5" stop-color="#0C80E4"/>
<stop offset="0.57" stop-color="#0C7CDF"/>
<stop offset="0.67" stop-color="#0B6FD0"/>
<stop offset="0.77" stop-color="#095BB6"/>
<stop offset="0.87" stop-color="#073F94"/>
<stop offset="0.98" stop-color="#031B67"/>
<stop offset="1" stop-color="#031560"/>
</linearGradient>
<linearGradient id="paint3_linear_291_7419" x1="92.7938" y1="53.673" x2="108.826" y2="53.673" gradientUnits="userSpaceOnUse">
<stop offset="0.1" stop-color="#D2AE66"/>
<stop offset="0.17" stop-color="#CDA453"/>
<stop offset="0.36" stop-color="#F2E8D3"/>
<stop offset="0.39" stop-color="#F8F2E6"/>
<stop offset="0.48" stop-color="#F0E3CA"/>
<stop offset="0.65" stop-color="#E1C897"/>
<stop offset="0.8" stop-color="#D6B472"/>
<stop offset="0.92" stop-color="#CFA85B"/>
<stop offset="1" stop-color="#CDA453"/>
</linearGradient>
<radialGradient id="paint4_radial_291_7419" cx="0" cy="0" r="1" gradientUnits="userSpaceOnUse" gradientTransform="translate(99.2987 47.5973) scale(5.62997)">
<stop stop-color="#0C80E4"/>
<stop offset="1" stop-color="#020F58"/>
</radialGradient>
<radialGradient id="paint5_radial_291_7419" cx="0" cy="0" r="1" gradientUnits="userSpaceOnUse" gradientTransform="translate(99.2987 47.5971) scale(5.62997)">
<stop stop-color="#0C80E4"/>
<stop offset="1" stop-color="#020F58"/>
</radialGradient>
<clipPath id="clip0_291_7419">
<rect width="128.893" height="40" fill="white" transform="translate(85.5536 30)"/>
</clipPath>
</defs>
</svg>
