<svg width="300" height="100" viewBox="0 0 300 100" fill="none" xmlns="http://www.w3.org/2000/svg">
<rect width="300" height="100" fill="white"/>
<g clip-path="url(#clip0_291_3315)">
<path d="M136.504 60.9512H132.684L125.761 50.3957C125.354 49.7787 125.073 49.314 124.917 49.0015H124.87C124.933 49.5951 124.964 50.5011 124.964 51.7195V60.9512H121.391V44.1514H125.468L132.134 54.3789C132.438 54.8397 132.72 55.2966 132.977 55.7496H133.024C132.962 55.3591 132.93 54.5898 132.93 53.4417V44.1514H136.504V60.9512ZM144.13 60.9512H140.346V44.1514H144.13V60.9512ZM161.68 60.9512H157.193L154.299 55.4801C154.19 55.2771 154.077 54.9022 153.959 54.3554H153.913C153.858 54.6132 153.729 55.0037 153.526 55.527L150.621 60.9512H146.11L151.464 52.5513L146.567 44.1514H151.171L153.573 49.189C153.76 49.5873 153.928 50.0598 154.077 50.6065H154.123C154.217 50.2785 154.393 49.7904 154.651 49.1421L157.322 44.1514H161.539L156.502 52.481L161.68 60.9512ZM173.758 60.9512H163.683V44.1514H173.372V47.2325H167.467V50.9697H172.962V54.0391H167.467V57.8818H173.758V60.9512ZM190.546 60.9512H186.2L183.587 56.6282C183.392 56.3002 183.205 56.0073 183.025 55.7496C182.845 55.4918 182.662 55.2731 182.474 55.0935C182.295 54.9061 182.103 54.7655 181.9 54.6718C181.705 54.5702 181.49 54.5195 181.256 54.5195H180.237V60.9512H176.453V44.1514H182.451C186.528 44.1514 188.566 45.6744 188.566 48.7204C188.566 49.3061 188.477 49.849 188.297 50.3488C188.117 50.8409 187.864 51.286 187.535 51.6844C187.207 52.0827 186.809 52.4263 186.341 52.7153C185.88 53.0043 185.364 53.2308 184.794 53.3948V53.4417C185.044 53.5198 185.286 53.6486 185.52 53.8283C185.755 54.0001 185.981 54.2031 186.2 54.4375C186.419 54.6718 186.626 54.9256 186.821 55.1989C187.024 55.4645 187.207 55.7261 187.371 55.9839L190.546 60.9512ZM180.237 46.9865V51.6609H181.877C182.689 51.6609 183.341 51.4266 183.833 50.958C184.333 50.4816 184.583 49.8919 184.583 49.189C184.583 47.7207 183.705 46.9865 181.947 46.9865H180.237ZM198.993 61.2441C196.588 61.2441 194.627 60.463 193.112 58.901C191.597 57.3311 190.839 55.2888 190.839 52.7739C190.839 50.1184 191.609 47.9706 193.147 46.3305C194.686 44.6903 196.724 43.8702 199.263 43.8702C201.66 43.8702 203.597 44.6552 205.073 46.225C206.557 47.7949 207.299 49.8646 207.299 52.4341C207.299 55.074 206.53 57.2023 204.991 58.819C203.461 60.4357 201.461 61.2441 198.993 61.2441ZM199.157 47.1271C197.829 47.1271 196.775 47.6269 195.994 48.6267C195.213 49.6186 194.822 50.9346 194.822 52.5747C194.822 54.2383 195.213 55.5543 195.994 56.5228C196.775 57.4912 197.798 57.9755 199.063 57.9755C200.368 57.9755 201.403 57.5069 202.168 56.5696C202.933 55.6246 203.316 54.3164 203.316 52.645C203.316 50.9033 202.945 49.5483 202.203 48.5798C201.461 47.6113 200.446 47.1271 199.157 47.1271Z" fill="#231F20"/>
<path d="M101.027 48.9737V37.5889H123.406C114.553 47.5826 95.6901 53.571 87.991 70.0273C93.9829 54.5808 111.711 45.4737 116.864 40.1898H103.828V47.1755C102.839 47.6843 101.901 48.2864 101.027 48.9737Z" fill="#BA1E73"/>
<path d="M119.261 51.0509V62.4348H96.8838C105.739 52.4437 123.211 47.9295 132.299 30C126.31 45.4464 108.579 54.5536 103.427 59.8375H116.462V52.8518C117.451 52.343 118.389 51.7399 119.261 51.0509Z" fill="#359DD8"/>
</g>
<defs>
<clipPath id="clip0_291_3315">
<rect width="124.018" height="40" fill="white" transform="translate(87.991 30)"/>
</clipPath>
</defs>
</svg>
