<svg width="300" height="100" viewBox="0 0 300 100" fill="none" xmlns="http://www.w3.org/2000/svg">
<rect width="300" height="100" fill="white"/>
<g clip-path="url(#clip0_291_6804)">
<path d="M140.96 44.6856L116.623 62.7566C116.532 62.8036 116.501 37.7427 116.501 37.7427L140.96 44.6856Z" fill="#DFDB02"/>
<path d="M116.624 62.7563L140.96 44.6857C141.044 44.6264 140.938 69.7403 140.938 69.7403L116.624 62.7563Z" fill="#FC0205"/>
<path d="M148.511 37.3434L124.175 55.4143C124.084 55.4613 124.053 30.4004 124.053 30.4004L148.511 37.3434Z" fill="#216745"/>
<path d="M124.176 55.4141L148.512 37.3434C148.596 37.2842 148.49 62.398 148.49 62.398L124.176 55.4141Z" fill="#06AD50"/>
<path d="M180.566 55.1257C180.372 55.1162 180.177 55.1189 179.984 55.1333C179.093 55.1979 178.212 55.5459 177.538 56.1672C177.119 56.5505 176.785 57.0352 176.572 57.574C176.305 58.246 176.228 58.995 176.327 59.7141C176.406 60.2855 176.607 60.8386 176.918 61.3156C177.144 61.6642 177.425 61.9722 177.744 62.2279C178.32 62.6914 179.017 62.98 179.735 63.0849C180.5 63.1936 181.294 63.1106 182.012 62.8096C182.629 62.5539 183.183 62.1369 183.612 61.607C183.226 61.1858 182.839 60.7652 182.453 60.3444C182.149 60.6559 181.809 60.9375 181.417 61.114C181.13 61.2442 180.819 61.3117 180.507 61.3183C180.105 61.3292 179.695 61.2504 179.334 61.0589C179.052 60.9082 178.803 60.6881 178.617 60.4187C178.347 60.0262 178.226 59.536 178.236 59.0556C178.242 58.6009 178.364 58.1404 178.622 57.7712C178.879 57.3909 179.272 57.1203 179.7 56.9989C180.057 56.8972 180.436 56.8823 180.8 56.953C181.327 57.0552 181.813 57.3539 182.168 57.7734C182.604 57.3527 183.039 56.932 183.475 56.5113C183.15 56.0924 182.72 55.7739 182.255 55.5482C181.725 55.2922 181.148 55.1544 180.566 55.1257ZM150.786 55.257V62.9933H152.683C152.684 61.3731 152.683 59.753 152.684 58.1329C152.739 58.235 152.782 58.3443 152.843 58.443C154.043 59.9602 155.246 61.4763 156.447 62.9931C156.915 62.9935 157.382 62.9933 157.85 62.9933V55.257H155.952C155.952 56.7637 155.952 58.2704 155.952 59.7769C155.898 59.6777 155.853 59.5729 155.794 59.4769C154.676 58.0699 153.558 56.6635 152.441 55.257C151.889 55.2572 151.337 55.257 150.786 55.257ZM168.74 55.3095V63.0458H170.686V60.8872H171.666C172.105 60.8841 172.548 60.9086 172.98 60.8152C173.588 60.696 174.168 60.3889 174.578 59.9104C174.99 59.4367 175.222 58.8084 175.233 58.1757C175.244 57.5544 175.111 56.9122 174.76 56.3959C174.464 55.9535 174.011 55.6341 173.514 55.4732C173.158 55.3551 172.782 55.3095 172.409 55.3096C171.186 55.3093 169.963 55.3095 168.74 55.3095ZM159.701 55.362V63.0981H161.599C161.599 61.478 161.598 59.8579 161.6 58.2378C161.655 58.3398 161.698 58.4492 161.758 58.548C162.959 60.0652 164.162 61.5812 165.363 63.098C165.83 63.0983 166.298 63.0981 166.765 63.0981V55.362H164.867C164.868 56.8687 164.868 58.3754 164.867 59.8818C164.813 59.7827 164.768 59.6778 164.709 59.5818C163.592 58.1747 162.474 56.7685 161.356 55.362C160.805 55.3622 160.253 55.362 159.701 55.362ZM170.686 57.0444C171.197 57.0447 171.71 57.0434 172.221 57.0452C172.468 57.0488 172.732 57.0843 172.935 57.2398C173.113 57.3739 173.204 57.595 173.235 57.8127C173.281 58.127 173.263 58.467 173.103 58.7471C172.987 58.9558 172.784 59.1065 172.559 59.1681C172.374 59.2236 172.179 59.2196 171.988 59.2189H170.686C170.686 58.4941 170.685 57.7692 170.686 57.0444Z" fill="#606161"/>
</g>
<defs>
<clipPath id="clip0_291_6804">
<rect width="67.7966" height="40" fill="white" transform="translate(116.102 30)"/>
</clipPath>
</defs>
</svg>
