<svg width="300" height="100" viewBox="0 0 300 100" fill="none" xmlns="http://www.w3.org/2000/svg">
<rect width="300" height="100" fill="white"/>
<g clip-path="url(#clip0_298_10619)">
<path d="M128.593 45.794V58.1545H124.153V46.824C124.153 43.9056 122.616 42.3605 120.054 42.3605C117.492 42.3605 115.614 44.0773 115.614 47.1674V57.9828H111.173V38.7554H115.101L115.614 41.1588C116.98 39.2704 119.2 38.2403 121.932 38.2403C125.69 38.2403 128.593 41.3304 128.593 45.794ZM132.179 48.3691C132.179 42.5322 136.79 38.0687 142.597 38.0687C148.403 38.0687 153.015 42.3605 153.015 48.1975C153.015 54.0343 148.233 58.4979 142.597 58.4979C136.79 58.4979 132.179 54.2061 132.179 48.3691ZM148.574 48.3691C148.574 44.7639 146.013 42.1889 142.597 42.1889C139.181 42.1889 136.62 44.7639 136.62 48.3691C136.62 51.9742 139.181 54.5494 142.597 54.5494C146.013 54.5494 148.574 51.9742 148.574 48.3691ZM185.805 45.6223V58.1545H181.193V46.824C181.193 43.9056 179.657 42.3605 177.436 42.3605C175.045 42.3605 173.338 44.0773 173.338 47.1674V58.1545H168.898V46.824C168.898 43.9056 167.36 42.3605 165.14 42.3605C162.749 42.3605 161.041 44.0773 161.041 47.1674V58.1545H156.601V38.7554H160.358L160.871 41.1588C162.237 39.4421 164.286 38.2403 166.677 38.2403C169.239 38.2403 171.459 39.6137 172.484 42.0172C173.679 39.7854 176.07 38.2403 178.974 38.2403C182.902 38.2403 185.805 41.1588 185.805 45.6223ZM211.592 48.3691C211.592 54.3777 207.152 58.4979 201.858 58.4979C198.954 58.4979 196.564 57.2961 194.856 55.2361L194.343 58.1545H190.416V30.6867L194.856 30.1717V41.5021C196.393 39.4421 198.783 38.412 201.687 38.412C207.323 38.2403 211.592 42.3605 211.592 48.3691ZM207.152 48.3691C207.152 44.7639 204.59 42.1889 201.345 42.1889C198.101 42.1889 195.368 44.7639 195.368 48.3691C195.368 51.9742 198.101 54.5494 201.345 54.5494C204.59 54.5494 207.152 51.9742 207.152 48.3691ZM230.891 38.7554H234.819V58.1545H230.891L230.379 55.2361C228.841 57.4678 226.279 58.6696 223.377 58.6696C218.082 58.6696 213.813 54.5494 213.813 48.5408C213.813 42.5322 218.082 38.412 223.547 38.412C226.451 38.412 228.841 39.6137 230.549 41.6739L230.891 38.7554ZM230.208 48.3691C230.208 44.7639 227.475 42.1889 224.23 42.1889C220.985 42.1889 218.423 44.7639 218.423 48.3691C218.423 51.9742 220.985 54.5494 224.23 54.5494C227.475 54.5494 230.208 51.9742 230.208 48.3691ZM85.727 46.1374L89.1426 44.0773L92.5582 42.0172L95.9738 39.9571L99.3894 37.897V30L95.9738 32.0601L92.5582 34.1202L89.1426 36.1803L85.727 38.2403L82.3114 40.3004V44.2489L78.8958 42.1889L75.4802 40.1288L71.8937 38.0687L68.4781 36.0086L65.0625 33.9485V41.8455L68.4781 43.9056L71.8937 45.9657L75.3093 48.0258L78.7249 50.0859L82.1405 52.146L78.7249 54.206L75.3093 56.2661L71.8937 58.3261L68.4781 60.3862L65.0625 62.103V70L68.4781 67.9399L71.8937 65.8798L75.3093 63.8197L78.7249 61.7597L82.1405 59.6996V55.751L85.5562 57.8111L88.9718 59.8712L92.3874 61.9313L95.8031 63.9914L99.2187 66.0515V58.1545L95.8031 56.0944L92.3874 54.0343L88.9718 51.9742L85.5562 49.9141L82.1405 47.854L85.727 46.1374Z" fill="#121212"/>
</g>
<defs>
<clipPath id="clip0_298_10619">
<rect width="169.756" height="40" fill="white" transform="translate(65.0625 30)"/>
</clipPath>
</defs>
</svg>
