<svg width="300" height="100" viewBox="0 0 300 100" fill="none" xmlns="http://www.w3.org/2000/svg">
<rect width="300" height="100" fill="white"/>
<path d="M121.747 40.2583L104.875 49.9999V69.4824L88 59.7408V40.2583L104.875 30.5166L121.747 40.2583ZM113.486 64.5233L121.747 59.7416V50.2349L113.486 55.0074V64.5233Z" fill="url(#paint0_linear_298_10615)"/>
<path d="M140.681 47.5116C139.671 47.4997 138.688 47.8357 137.896 48.4633V47.7858H136.254V56.3316H137.888V50.4424C138.183 50.0336 138.569 49.6984 139.015 49.4628C139.461 49.2272 139.955 49.0976 140.459 49.0841C141.872 49.0841 142.713 49.9691 142.713 51.5091V56.3316H144.351V51.4608C144.355 49.0874 142.894 47.5116 140.681 47.5116ZM150.155 47.5649C149.261 47.5666 148.388 47.8336 147.645 48.3322C146.903 48.8308 146.326 49.5385 145.986 50.3656C145.647 51.1927 145.56 52.102 145.738 52.9782C145.916 53.8545 146.349 54.6583 146.984 55.2878C147.619 55.9172 148.427 56.3441 149.305 56.5141C150.182 56.6842 151.091 56.5899 151.915 56.2431C152.739 55.8963 153.442 55.3127 153.934 54.5663C154.426 53.8198 154.685 52.944 154.679 52.0499C154.682 51.4569 154.566 50.8694 154.339 50.3217C154.111 49.7739 153.778 49.2768 153.356 48.8593C152.935 48.4418 152.435 48.1123 151.886 47.8899C151.336 47.6675 150.747 47.5568 150.154 47.5641L150.155 47.5649ZM150.155 55.0608C149.767 55.057 149.383 54.9756 149.026 54.8214C148.67 54.6672 148.347 54.4432 148.078 54.1628C147.809 53.8823 147.599 53.5509 147.46 53.1881C147.321 52.8252 147.256 52.4383 147.269 52.0499C147.23 51.5531 147.321 51.0548 147.532 50.6034C147.743 50.152 148.067 49.7629 148.473 49.4739C148.879 49.1849 149.353 49.0059 149.849 48.9543C150.344 48.9026 150.845 48.9801 151.302 49.1791C151.852 49.4194 152.313 49.825 152.621 50.3395C152.93 50.854 153.07 51.4518 153.024 52.0499C153.036 52.4367 152.971 52.822 152.833 53.1835C152.695 53.545 152.486 53.8754 152.219 54.1555C151.953 54.4357 151.633 54.66 151.278 54.8154C150.924 54.9708 150.542 55.0542 150.155 55.0608ZM157.782 48.7999V47.7858H156.149V56.3316H157.782V50.8858C158.09 50.3724 158.523 49.9455 159.04 49.6448C159.558 49.3442 160.143 49.1796 160.742 49.1666H160.959V47.5633H160.738C160.187 47.558 159.641 47.6649 159.132 47.8773C158.624 48.0898 158.164 48.4034 157.781 48.7991L157.782 48.7999ZM165.705 47.5649C165.116 47.5557 164.532 47.6658 163.987 47.8887C163.442 48.1115 162.947 48.4425 162.534 48.8616C162.12 49.2808 161.795 49.7794 161.58 50.3273C161.364 50.8753 161.262 51.4613 161.279 52.0499C161.261 52.64 161.362 53.2275 161.577 53.7773C161.792 54.327 162.116 54.8276 162.53 55.2488C162.943 55.67 163.438 56.0031 163.984 56.2282C164.529 56.4532 165.115 56.5655 165.705 56.5583C167.569 56.5583 169.097 55.6008 169.601 54.1266L169.703 53.8299H167.954L167.893 53.9583C167.56 54.6583 166.754 55.0783 165.741 55.0783C165.071 55.1013 164.417 54.8756 163.904 54.4448C163.39 54.014 163.055 53.4085 162.961 52.7449H169.601L169.84 52.8649L169.876 52.5508C169.885 52.3723 169.885 52.1934 169.876 52.0149C169.858 49.4374 168.127 47.5649 165.705 47.5649ZM165.67 49.0433C167.038 49.0433 167.985 49.9291 168.198 51.3724H162.961C163.053 50.7218 163.379 50.1269 163.877 49.6985C164.375 49.27 165.013 49.0371 165.67 49.0433ZM175.782 47.5649C174.806 47.5532 173.854 47.8643 173.073 48.4499V43.4199H171.434V56.3316H173.073V55.6716C173.642 56.0879 174.302 56.3638 174.998 56.4769C175.694 56.59 176.407 56.5371 177.079 56.3224C177.752 56.1084 178.364 55.7387 178.867 55.2433C179.369 54.748 179.748 54.141 179.972 53.4718C180.195 52.8025 180.258 52.09 180.154 51.392C180.051 50.694 179.784 50.0303 179.375 49.4549C178.967 48.8797 178.429 48.4089 177.804 48.0805C177.18 47.7521 176.487 47.5755 175.782 47.5649ZM173.073 50.4158C173.351 49.9892 173.733 49.6398 174.183 49.3999C174.632 49.16 175.135 49.0374 175.644 49.0433C176.428 49.0617 177.173 49.3859 177.72 49.9465C178.268 50.5071 178.575 51.2596 178.575 52.0433C178.575 52.8269 178.268 53.5794 177.72 54.14C177.173 54.7006 176.428 55.0248 175.644 55.0433C175.136 55.0514 174.635 54.9315 174.185 54.6947C173.736 54.4579 173.353 54.1118 173.073 53.6883V50.4158ZM188.376 48.4324C187.875 48.0647 187.303 47.8049 186.696 47.6695C186.089 47.5341 185.461 47.526 184.851 47.6458C184.241 47.7655 183.663 48.0105 183.152 48.3652C182.642 48.7199 182.21 49.1767 181.885 49.7066C181.56 50.2363 181.348 50.8277 181.263 51.4433C181.178 52.059 181.221 52.6857 181.39 53.2838C181.559 53.882 181.85 54.4386 182.245 54.9187C182.639 55.3988 183.129 55.7919 183.684 56.0733C184.425 56.4489 185.256 56.6119 186.084 56.5442C186.912 56.4766 187.706 56.1809 188.376 55.6899V56.3316H190.014V47.7858H188.376V48.4324ZM188.376 53.7458C188.094 54.1605 187.713 54.499 187.268 54.7307C186.823 54.9625 186.328 55.0805 185.826 55.0741C185.247 55.0527 184.687 54.8641 184.212 54.531C183.738 54.198 183.371 53.7347 183.154 53.1973C182.938 52.6599 182.881 52.0712 182.992 51.5025C183.103 50.9338 183.376 50.4093 183.779 49.9924C184.317 49.433 185.05 49.1039 185.826 49.0741C186.328 49.068 186.823 49.1862 187.268 49.4181C187.713 49.65 188.094 49.9885 188.376 50.4033V53.7458ZM196.57 51.3949L194.95 51.1116C193.543 50.8991 193.543 50.2741 193.543 50.0666C193.543 49.3933 194.286 48.9374 195.393 48.9374C196.128 48.9374 197.389 49.1233 197.575 50.3624L197.606 50.5541H199.143V50.3141C198.983 48.2599 197.035 47.5291 195.41 47.5291C193.334 47.5291 191.94 48.5833 191.94 50.1541C191.94 51.0408 192.383 52.2183 194.529 52.5508L196.376 52.8691C196.743 52.9224 197.593 53.1349 197.593 53.9316C197.593 54.7291 196.809 55.1499 195.601 55.1499C194.198 55.1499 193.388 54.6091 193.131 53.5508L193.095 53.3741H191.537L191.573 53.6266C191.847 55.5391 193.264 56.5933 195.557 56.5933C197.77 56.5933 199.187 55.5216 199.187 53.8608C199.178 52.5058 198.297 51.6783 196.57 51.3949ZM204.659 47.5649C204.071 47.5559 203.486 47.6662 202.941 47.889C202.396 48.1119 201.902 48.4427 201.488 48.8616C201.074 49.2805 200.749 49.7791 200.533 50.3271C200.317 50.8751 200.215 51.4612 200.232 52.0499C200.214 52.64 200.316 53.2274 200.531 53.7772C200.747 54.3269 201.07 54.8275 201.484 55.2491C201.897 55.6704 202.392 56.0036 202.938 56.2284C203.483 56.4533 204.069 56.5652 204.659 56.5574C206.523 56.5574 208.05 55.6008 208.554 54.1266L208.657 53.8299H206.908L206.846 53.9583C206.514 54.6583 205.709 55.0783 204.694 55.0783C204.025 55.1015 203.37 54.8759 202.857 54.445C202.343 54.0142 202.008 53.4086 201.914 52.7449H208.554L208.794 52.8649L208.829 52.5508C208.848 52.3724 208.855 52.1933 208.851 52.0149C208.812 49.4374 207.059 47.5649 204.659 47.5649ZM204.624 49.0433C205.992 49.0433 206.939 49.9291 207.151 51.3724H201.914C202.007 50.7218 202.333 50.127 202.831 49.6986C203.329 49.2702 203.966 49.0373 204.624 49.0433Z" fill="#020214"/>
<defs>
<linearGradient id="paint0_linear_298_10615" x1="96.4375" y1="64.6208" x2="113.314" y2="35.3908" gradientUnits="userSpaceOnUse">
<stop stop-color="#FF8E00"/>
<stop offset="1" stop-color="#F06900"/>
</linearGradient>
</defs>
</svg>
