<svg width="300" height="100" viewBox="0 0 300 100" fill="none" xmlns="http://www.w3.org/2000/svg">
<rect width="300" height="100" fill="white"/>
<g clip-path="url(#clip0_298_10560)">
<path d="M117.699 35.9795V44.1522H115.221V31.3994H117.142L123.789 39.7696V31.4181H126.267V44.1522H124.256L117.699 35.9795Z" fill="#4F4F54"/>
<path d="M134.816 44.2456C133.939 44.258 133.07 44.0706 132.275 43.6977C131.533 43.3466 130.868 42.8524 130.318 42.2433C129.22 41.0149 128.61 39.4272 128.603 37.7798C128.601 36.9423 128.763 36.1124 129.08 35.3373C129.387 34.5745 129.831 33.8745 130.391 33.2718C130.952 32.6701 131.626 32.185 132.375 31.8442C133.159 31.4861 134.011 31.3039 134.872 31.3105C135.746 31.2997 136.61 31.4935 137.396 31.8762C138.136 32.2378 138.798 32.7413 139.345 33.3581C139.885 33.9712 140.311 34.6765 140.602 35.4404C140.896 36.1964 141.047 37.0001 141.047 37.811C141.051 38.6447 140.893 39.4712 140.581 40.2446C140.279 41 139.841 41.6935 139.288 42.2905C138.729 42.8902 138.057 43.3738 137.311 43.7137C136.528 44.0719 135.676 44.254 134.814 44.2474M131.115 37.7816C131.113 38.3252 131.198 38.8657 131.366 39.3827C131.523 39.8785 131.77 40.3413 132.094 40.7481C132.411 41.144 132.809 41.4684 133.261 41.6999C133.754 41.9378 134.295 42.0607 134.842 42.0591C135.39 42.0576 135.93 41.9317 136.422 41.691C136.876 41.4513 137.274 41.1178 137.589 40.7125C137.908 40.3009 138.152 39.8355 138.308 39.3382C138.468 38.8358 138.549 38.3116 138.549 37.7843C138.551 37.24 138.463 36.6991 138.29 36.1832C138.127 35.6879 137.877 35.2256 137.552 34.8178C137.236 34.4228 136.838 34.1011 136.385 33.8749C135.892 33.6413 135.353 33.5216 134.807 33.5246C134.261 33.5277 133.723 33.6535 133.233 33.8927C132.779 34.1281 132.381 34.4588 132.066 34.8623C131.75 35.2716 131.509 35.7339 131.354 36.2276C131.194 36.7301 131.112 37.2542 131.112 37.7816" fill="#4F4F54"/>
<path d="M143.402 44.1563V31.3991H149.041C149.604 31.394 150.161 31.5201 150.666 31.7673C151.153 32.005 151.589 32.3342 151.951 32.7369C152.31 33.1388 152.596 33.601 152.795 34.1023C152.994 34.59 153.098 35.1116 153.1 35.6384C153.108 36.4335 152.892 37.2148 152.477 37.8933C152.088 38.5484 151.499 39.0613 150.797 39.3566L153.708 44.1527H150.923L148.319 39.8778H145.876V44.1563H143.402ZM145.88 37.7074H148.987C149.21 37.7088 149.429 37.6537 149.625 37.5473C149.824 37.4376 149.998 37.2877 150.136 37.107C150.286 36.9092 150.402 36.6876 150.478 36.4515C150.563 36.1904 150.605 35.9174 150.603 35.6429C150.606 35.3612 150.557 35.0814 150.459 34.8174C150.37 34.5777 150.239 34.3557 150.072 34.1619C149.918 33.9819 149.728 33.8351 149.515 33.7305C149.318 33.6311 149.1 33.5788 148.879 33.5775H145.879L145.88 37.7074Z" fill="#4F4F54"/>
<path d="M165.331 33.5715H161.255V44.1503H158.794V33.5715H154.718V31.3984H165.332L165.331 33.5715Z" fill="#4F4F54"/>
<path d="M178.084 31.3994V44.1513H175.623V38.7093H169.841V44.1513H167.363V31.3994H169.841V36.5585H175.623V31.3994H178.084Z" fill="#4F4F54"/>
<path d="M193.547 34.7394C193.406 34.6118 193.252 34.4974 193.089 34.3979C192.832 34.2356 192.562 34.0943 192.282 33.9754C191.947 33.8323 191.601 33.7155 191.248 33.6258C190.879 33.5301 190.499 33.4817 190.118 33.4817C189.581 33.4423 189.046 33.5744 188.59 33.8588C188.426 33.9807 188.294 34.1411 188.206 34.3261C188.119 34.511 188.078 34.7147 188.088 34.9191C188.079 35.1522 188.145 35.382 188.276 35.5747C188.423 35.7661 188.61 35.9226 188.824 36.0328C189.113 36.1836 189.417 36.3029 189.731 36.3886C190.097 36.4959 190.519 36.6098 190.997 36.7301C191.619 36.898 192.184 37.0774 192.694 37.2683C193.161 37.4364 193.597 37.6791 193.987 37.987C194.334 38.2659 194.613 38.6191 194.805 39.0206C195.009 39.487 195.107 39.9928 195.092 40.5016C195.109 41.1083 194.976 41.7098 194.706 42.2531C194.46 42.7243 194.102 43.1281 193.664 43.429C193.204 43.7384 192.692 43.9606 192.152 44.0845C191.566 44.224 190.967 44.2933 190.365 44.2909C189.403 44.2902 188.446 44.1448 187.527 43.8595C186.629 43.5898 185.78 43.1774 185.013 42.6382L186.108 40.5034C186.287 40.6646 186.482 40.8062 186.691 40.9259C187.012 41.1206 187.345 41.2944 187.688 41.4463C188.1 41.6304 188.527 41.7777 188.964 41.8866C189.433 42.0065 189.916 42.0663 190.4 42.0645C191.764 42.0645 192.446 41.6275 192.446 40.7534C192.454 40.4996 192.371 40.2513 192.213 40.0524C192.03 39.84 191.803 39.6687 191.549 39.5499C191.214 39.3882 190.865 39.256 190.507 39.1549C190.1 39.0363 189.645 38.9044 189.142 38.7591C188.599 38.6152 188.068 38.4321 187.552 38.2112C187.143 38.039 186.764 37.8027 186.43 37.5111C186.139 37.2532 185.909 36.9343 185.756 36.5772C185.598 36.1742 185.521 35.7435 185.532 35.3105C185.52 34.7165 185.642 34.1274 185.888 33.5866C186.118 33.0956 186.459 32.6649 186.885 32.3289C187.327 31.985 187.829 31.7262 188.366 31.5657C188.954 31.3882 189.566 31.3003 190.181 31.3051C191.025 31.2962 191.865 31.4393 192.659 31.7276C193.355 31.9796 194.018 32.3144 194.634 32.7247L193.547 34.7394Z" fill="#4F4F54"/>
<path d="M206.946 33.5715H202.868V44.1503H200.408V33.5715H196.331V31.3984H206.946V33.5715Z" fill="#4F4F54"/>
<path d="M212.604 31.3994H214.796L219.645 44.1513H217.094L215.909 40.9722H211.454L210.287 44.1513H207.736L212.604 31.3994ZM215.46 39.227L213.703 34.2191L211.87 39.2306L215.46 39.227Z" fill="#4F4F54"/>
<path d="M221.491 44.1563V31.3991H227.131C227.694 31.394 228.251 31.5201 228.757 31.7673C229.243 32.0051 229.679 32.3342 230.041 32.7369C230.4 33.1391 230.686 33.6012 230.885 34.1023C231.084 34.5901 231.188 35.1116 231.19 35.6384C231.198 36.4336 230.983 37.2149 230.568 37.8933C230.178 38.5482 229.589 39.061 228.887 39.3566L231.798 44.1527H229.014L226.41 39.8778H223.968V44.1563H221.491ZM223.97 37.7074H227.077C227.3 37.7088 227.519 37.6538 227.715 37.5473C227.914 37.4376 228.088 37.2877 228.226 37.107C228.376 36.9092 228.492 36.6876 228.568 36.4514C228.653 36.1905 228.696 35.9174 228.694 35.6429C228.697 35.3611 228.648 35.0813 228.549 34.8174C228.461 34.5776 228.33 34.3555 228.163 34.1619C228.009 33.9817 227.82 33.8349 227.607 33.7305C227.409 33.6312 227.191 33.5788 226.97 33.5775H223.97V37.7074Z" fill="#4F4F54"/>
<path d="M115.213 57.8538V46.8097H119.942C120.408 46.805 120.869 46.9089 121.288 47.113C121.69 47.31 122.05 47.5848 122.345 47.9216C122.64 48.257 122.874 48.641 123.037 49.0566C123.201 49.4648 123.286 49.9004 123.287 50.3401C123.288 50.7165 123.233 51.091 123.124 51.4511C123.02 51.7978 122.863 52.1259 122.657 52.4234C122.457 52.7119 122.21 52.9645 121.926 53.1705C121.638 53.3795 121.313 53.5328 120.968 53.6224L123.643 57.8529H122.057L119.537 53.8866H116.613V57.8529L115.213 57.8538ZM116.613 52.6431H119.957C120.231 52.6473 120.501 52.5835 120.743 52.4572C120.976 52.3326 121.18 52.1605 121.342 51.9519C121.513 51.7296 121.644 51.4796 121.731 51.2128C121.824 50.932 121.872 50.6379 121.87 50.3419C121.873 50.0413 121.817 49.743 121.708 49.4631C121.604 49.1971 121.456 48.9501 121.272 48.7319C121.096 48.5239 120.879 48.3546 120.634 48.2347C120.395 48.1167 120.131 48.0558 119.865 48.0568H116.613V52.6431Z" fill="#4F4F54"/>
<path d="M128.808 58.0096C128.23 58.0165 127.658 57.9026 127.127 57.6752C126.635 57.4634 126.19 57.1538 125.821 56.7652C125.454 56.3756 125.166 55.9185 124.973 55.4194C124.77 54.9016 124.668 54.3502 124.67 53.7943C124.667 53.2406 124.77 52.6914 124.973 52.1763C125.276 51.4053 125.807 50.7452 126.495 50.2843C127.183 49.8233 127.995 49.5834 128.824 49.5967C129.399 49.5893 129.969 49.7061 130.496 49.9392C130.98 50.1537 131.416 50.4631 131.778 50.8491C132.134 51.2322 132.412 51.6813 132.595 52.1709C132.786 52.6702 132.883 53.2002 132.882 53.7347C132.882 53.8485 132.882 53.9517 132.875 54.0451C132.872 54.1182 132.864 54.191 132.851 54.263H126.116C126.142 54.645 126.237 55.019 126.396 55.3669C126.688 56.0034 127.206 56.5081 127.85 56.7821C128.168 56.9171 128.509 56.9858 128.854 56.984C129.101 56.9842 129.347 56.95 129.585 56.8826C129.818 56.8178 130.042 56.7265 130.254 56.6104C130.458 56.4986 130.644 56.3567 130.805 56.1897C130.963 56.0294 131.088 55.8392 131.171 55.6302L132.353 55.9566C132.216 56.2602 132.03 56.5389 131.802 56.7812C131.564 57.0334 131.292 57.2505 130.993 57.4261C130.674 57.6136 130.331 57.7578 129.974 57.8548C129.594 57.9591 129.202 58.0114 128.808 58.0105M131.592 53.2508C131.565 52.88 131.467 52.5177 131.304 52.1834C131.154 51.8718 130.949 51.59 130.698 51.3517C130.313 50.9991 129.837 50.7621 129.324 50.6677C128.811 50.5733 128.281 50.6254 127.796 50.818C127.482 50.943 127.194 51.1275 126.949 51.3615C126.702 51.5995 126.501 51.882 126.358 52.1941C126.205 52.5275 126.112 52.8857 126.086 53.2517L131.592 53.2508Z" fill="#4F4F54"/>
<path d="M137.253 58.0096C136.599 58.0094 135.948 57.9071 135.325 57.7063C134.728 57.5236 134.172 57.225 133.691 56.8274L134.282 55.9104C134.717 56.2497 135.199 56.5244 135.713 56.726C136.196 56.909 136.708 57.0012 137.225 56.9982C137.719 57.024 138.209 56.9023 138.633 56.6486C138.798 56.5438 138.934 56.3974 139.025 56.224C139.116 56.0506 139.161 55.8563 139.153 55.6604C139.159 55.4819 139.111 55.3058 139.015 55.1552C138.906 55.0014 138.761 54.8761 138.594 54.7896C138.368 54.6699 138.129 54.5759 137.882 54.5094C137.592 54.427 137.255 54.338 136.872 54.2425C136.384 54.1186 135.964 54 135.611 53.8867C135.303 53.7936 135.01 53.6573 134.74 53.482C134.528 53.3434 134.356 53.1502 134.243 52.9225C134.132 52.6679 134.079 52.3917 134.088 52.114C134.081 51.7395 134.163 51.3687 134.328 51.0323C134.485 50.7211 134.711 50.45 134.99 50.2398C135.286 50.0191 135.621 49.8556 135.977 49.7577C136.374 49.6463 136.785 49.5915 137.198 49.5949C137.782 49.5899 138.361 49.6899 138.91 49.8902C139.398 50.0656 139.851 50.3294 140.244 50.6685L139.621 51.4922C139.284 51.1952 138.894 50.9657 138.47 50.8162C138.051 50.6665 137.609 50.5901 137.163 50.5902C136.719 50.5763 136.28 50.6869 135.896 50.9096C135.724 51.0155 135.585 51.1665 135.493 51.346C135.401 51.5256 135.36 51.7269 135.375 51.9281C135.369 52.0897 135.404 52.2502 135.476 52.3951C135.556 52.532 135.672 52.6447 135.811 52.7215C135.999 52.8286 136.2 52.9119 136.409 52.9697C136.653 53.0426 136.946 53.1203 137.288 53.2027C137.827 53.3278 138.296 53.455 138.695 53.5843C139.046 53.6917 139.381 53.8461 139.691 54.0433C139.936 54.1996 140.139 54.4133 140.282 54.6659C140.419 54.9354 140.485 55.2348 140.476 55.5368C140.488 55.8855 140.415 56.2318 140.263 56.546C140.111 56.8602 139.885 57.1329 139.605 57.3407C138.919 57.8187 138.092 58.0541 137.257 58.0096" fill="#4F4F54"/>
<path d="M145.637 58.0097C145.082 58.0173 144.532 57.9093 144.022 57.6924C143.512 57.4755 143.052 57.1546 142.673 56.7502C142.313 56.3627 142.031 55.9098 141.841 55.416C141.644 54.9053 141.544 54.3623 141.546 53.8149C141.543 53.2614 141.646 52.7125 141.849 52.1977C142.043 51.7042 142.328 51.2516 142.689 50.8635C143.069 50.4622 143.528 50.1427 144.036 49.9243C144.544 49.7059 145.091 49.5933 145.644 49.5933C146.197 49.5933 146.744 49.7059 147.252 49.9243C147.76 50.1427 148.218 50.4622 148.599 50.8635C148.96 51.2516 149.245 51.7042 149.439 52.1977C149.642 52.7125 149.745 53.2614 149.742 53.8149C149.744 54.3623 149.644 54.9053 149.446 55.416C149.257 55.9142 148.971 56.37 148.605 56.757C148.238 57.144 147.799 57.4546 147.312 57.6708C146.785 57.9039 146.215 58.0207 145.639 58.0133M142.949 53.8326C142.945 54.2363 143.016 54.6372 143.159 55.0148C143.29 55.3638 143.485 55.6853 143.734 55.963C143.974 56.2305 144.264 56.4473 144.589 56.6008C144.918 56.7544 145.276 56.834 145.639 56.834C146.002 56.834 146.36 56.7544 146.689 56.6008C147.016 56.4449 147.31 56.2257 147.552 55.9559C147.805 55.6736 148.002 55.3462 148.134 54.9908C148.277 54.6106 148.348 54.2075 148.344 53.8015C148.347 53.4006 148.276 53.0026 148.134 52.6274C148.003 52.2722 147.805 51.9451 147.552 51.6632C147.31 51.3931 147.016 51.1736 146.689 51.0174C146.361 50.8618 146.002 50.7821 145.639 50.7843C145.274 50.7822 144.915 50.8647 144.588 51.0254C144.263 51.185 143.973 51.4068 143.733 51.6783C143.484 51.9623 143.289 52.2893 143.158 52.6434C143.016 53.0236 142.945 53.4267 142.949 53.8326Z" fill="#4F4F54"/>
<path d="M153.911 58.0085C153.544 58.0324 153.178 57.9671 152.842 57.8182C152.506 57.6693 152.211 57.4413 151.983 57.1537C151.494 56.3965 151.265 55.5013 151.329 54.6026V49.7344H152.698V54.3384C152.698 55.9988 153.273 56.829 154.424 56.829C154.994 56.8265 155.548 56.6393 156.003 56.2953C156.506 55.9245 156.887 55.4132 157.1 54.8259V49.7344H158.469V56.1735C158.469 56.4943 158.614 56.66 158.905 56.6707V57.8529C158.749 57.8733 158.627 57.8858 158.539 57.8911C158.451 57.8964 158.361 57.8991 158.283 57.8991C158.035 57.9075 157.793 57.8214 157.606 57.6581C157.519 57.584 157.448 57.4925 157.398 57.3893C157.349 57.2862 157.321 57.1738 157.318 57.0594L157.287 56.1112C156.946 56.7011 156.452 57.1875 155.856 57.5184C155.261 57.8458 154.591 58.0143 153.912 58.0076" fill="#4F4F54"/>
<path d="M165.048 50.932C164.407 50.9401 163.78 51.1228 163.236 51.4603C162.72 51.7837 162.328 52.2716 162.123 52.8453V57.8532H160.755V49.7347H162.031V51.6169C162.288 51.0836 162.666 50.6174 163.134 50.255C163.555 49.9229 164.063 49.7204 164.597 49.6724H164.864C164.926 49.6718 164.988 49.6768 165.049 49.6875L165.048 50.932Z" fill="#4F4F54"/>
<path d="M165.856 53.779C165.853 53.226 165.953 52.6773 166.151 52.161C166.34 51.6664 166.626 51.2144 166.991 50.8312C167.36 50.4478 167.802 50.1413 168.291 49.9293C168.824 49.6999 169.4 49.586 169.981 49.5948C170.714 49.5741 171.439 49.759 172.073 50.1285C172.644 50.4709 173.106 50.9701 173.403 51.5669L172.068 51.9867C171.869 51.6117 171.567 51.3015 171.197 51.0927C170.818 50.8788 170.388 50.769 169.952 50.7743C169.591 50.7728 169.233 50.8482 168.903 50.9956C168.574 51.143 168.279 51.359 168.039 51.6291C167.794 51.9089 167.602 52.2304 167.471 52.5782C167.188 53.3518 167.191 54.2011 167.479 54.9727C167.614 55.3293 167.812 55.6586 168.063 55.945C168.301 56.2161 168.592 56.4358 168.918 56.5908C169.246 56.7465 169.605 56.8261 169.968 56.8238C170.208 56.8236 170.446 56.7895 170.675 56.7224C170.899 56.6595 171.113 56.568 171.313 56.4502C171.499 56.3416 171.669 56.2081 171.819 56.0535C171.957 55.915 172.064 55.7481 172.131 55.5643L173.465 55.969C173.34 56.2711 173.163 56.5497 172.944 56.7927C172.717 57.0448 172.452 57.26 172.158 57.4304C171.501 57.8089 170.755 58.0074 169.997 58.006C169.439 58.0126 168.886 57.9041 168.372 57.6873C167.858 57.4704 167.395 57.1498 167.011 56.7455C166.644 56.3561 166.356 55.8994 166.163 55.4006C165.96 54.8827 165.857 54.3309 165.86 53.7746" fill="#4F4F54"/>
<path d="M178.61 58.0097C178.033 58.0165 177.46 57.9026 176.929 57.6753C176.437 57.4631 175.993 57.1536 175.623 56.7653C175.256 56.3756 174.969 55.9186 174.776 55.4195C174.573 54.9019 174.47 54.3504 174.473 53.7944C174.47 53.2406 174.573 52.6914 174.776 52.1764C175.079 51.4055 175.609 50.7454 176.297 50.2845C176.985 49.8235 177.798 49.5836 178.626 49.5968C179.444 49.5823 180.246 49.8221 180.922 50.2833C181.597 50.7444 182.113 51.4041 182.397 52.171C182.589 52.6701 182.686 53.2002 182.685 53.7348C182.685 53.8486 182.685 53.9518 182.677 54.0452C182.674 54.1183 182.666 54.191 182.654 54.2631H175.92C175.945 54.645 176.04 55.0191 176.199 55.367C176.347 55.687 176.552 55.9769 176.806 56.2218C177.052 56.4587 177.339 56.6486 177.654 56.7822C177.971 56.9172 178.312 56.9859 178.657 56.9841C178.904 56.9843 179.15 56.9502 179.388 56.8827C179.621 56.8179 179.845 56.7265 180.057 56.6105C180.261 56.4985 180.447 56.3567 180.609 56.1898C180.767 56.029 180.891 55.8389 180.975 55.6303L182.157 55.9567C182.02 56.2604 181.833 56.5391 181.605 56.7813C181.367 57.0335 181.095 57.2507 180.796 57.4262C180.477 57.6137 180.135 57.7579 179.778 57.8549C179.397 57.9591 179.005 58.0115 178.611 58.0106M181.395 53.2509C181.368 52.8801 181.27 52.5178 181.108 52.1835C180.958 51.8715 180.752 51.5896 180.501 51.3518C180.116 50.9993 179.64 50.7623 179.127 50.6679C178.614 50.5735 178.085 50.6256 177.6 50.8181C177.285 50.9431 176.998 51.1277 176.753 51.3616C176.505 51.5999 176.305 51.8822 176.161 52.1942C176.008 52.5276 175.916 52.8858 175.89 53.2518L181.395 53.2509Z" fill="#4F4F54"/>
<path d="M196.156 56.3604C195.74 56.8473 195.226 57.2394 194.646 57.5104C194.067 57.7813 193.436 57.9249 192.796 57.9313C192.085 57.9375 191.383 57.7724 190.75 57.4501C190.132 57.1356 189.58 56.7049 189.125 56.1817C188.663 55.6502 188.297 55.0425 188.043 54.3857C187.781 53.7223 187.646 53.0151 187.647 52.3016C187.642 50.868 188.162 49.4822 189.109 48.4056C189.565 47.8926 190.121 47.4774 190.743 47.1852C191.384 46.8821 192.086 46.7277 192.795 46.7334C193.72 46.6961 194.637 46.9285 195.432 47.4023C196.105 47.8305 196.65 48.4322 197.01 49.1439L195.938 49.8911C195.648 49.2941 195.187 48.7963 194.615 48.4608C194.049 48.1453 193.411 47.9842 192.763 47.9938C192.233 47.9868 191.709 48.1125 191.239 48.3594C190.789 48.5982 190.393 48.9263 190.074 49.3236C189.744 49.7371 189.491 50.2061 189.326 50.7085C189.149 51.2321 189.059 51.781 189.059 52.3337C189.055 52.9044 189.156 53.471 189.354 54.0059C189.54 54.5115 189.814 54.9804 190.163 55.3909C190.498 55.7847 190.911 56.1051 191.375 56.332C191.85 56.5619 192.372 56.6791 192.9 56.6744C193.539 56.6516 194.164 56.4828 194.728 56.1809C195.291 55.879 195.778 55.452 196.151 54.9328V53.4082H193.771V52.3506H197.329V57.8557H196.147L196.156 56.3604Z" fill="#4F4F54"/>
<path d="M203.542 50.932C202.901 50.94 202.274 51.1227 201.73 51.4603C201.213 51.7832 200.822 52.2714 200.618 52.8453V57.8532H199.249V49.7347H200.525V51.6169C200.782 51.0834 201.16 50.6172 201.629 50.255C202.049 49.9225 202.557 49.72 203.091 49.6724H203.358C203.42 49.6718 203.483 49.6768 203.544 49.6875L203.542 50.932Z" fill="#4F4F54"/>
<path d="M208.442 58.0094C207.888 58.017 207.338 57.909 206.828 57.6921C206.318 57.4752 205.859 57.1543 205.48 56.7499C205.119 56.3627 204.837 55.9097 204.647 55.4156C204.45 54.905 204.35 54.3619 204.352 53.8145C204.349 53.261 204.452 52.7121 204.655 52.1974C204.849 51.7039 205.134 51.2512 205.495 50.8632C205.876 50.462 206.334 50.1425 206.842 49.9242C207.35 49.7059 207.897 49.5933 208.45 49.5933C209.003 49.5933 209.551 49.7059 210.059 49.9242C210.567 50.1425 211.025 50.462 211.406 50.8632C211.767 51.2515 212.051 51.7041 212.245 52.1974C212.646 53.2329 212.649 54.3802 212.253 55.4174C212.063 55.9156 211.777 56.3714 211.411 56.7584C211.044 57.1454 210.605 57.456 210.118 57.6723C209.591 57.9053 209.021 58.0222 208.446 58.0147M205.755 53.8341C205.751 54.2377 205.822 54.6386 205.965 55.0162C206.096 55.3653 206.291 55.6868 206.54 55.9644C206.78 56.2319 207.071 56.4487 207.396 56.6022C207.725 56.7558 208.083 56.8354 208.446 56.8354C208.808 56.8354 209.167 56.7558 209.495 56.6022C209.823 56.4463 210.116 56.2271 210.358 55.9573C210.611 55.6748 210.808 55.3475 210.941 54.9922C211.083 54.612 211.154 54.2089 211.151 53.8029C211.153 53.402 211.082 53.004 210.941 52.6288C210.808 52.2738 210.611 51.9468 210.358 51.6646C210.116 51.3946 209.823 51.1751 209.495 51.0188C209.167 50.8631 208.808 50.7835 208.445 50.7858C208.081 50.7836 207.721 50.8661 207.395 51.0268C207.07 51.1865 206.779 51.4083 206.539 51.6797C206.29 51.9636 206.095 52.2907 205.964 52.6448C205.822 53.025 205.751 53.4282 205.755 53.8341Z" fill="#4F4F54"/>
<path d="M216.717 58.0085C216.35 58.0324 215.983 57.9671 215.648 57.8182C215.312 57.6693 215.017 57.4413 214.788 57.1537C214.3 56.3966 214.071 55.5013 214.135 54.6026V49.7344H215.503V54.3384C215.503 55.9988 216.078 56.829 217.23 56.829C217.8 56.8267 218.354 56.6394 218.808 56.2953C219.311 55.9248 219.693 55.4134 219.905 54.8259V49.7344H221.274V56.1735C221.274 56.4946 221.42 56.66 221.71 56.6707V57.8529C221.554 57.8733 221.432 57.8858 221.344 57.8911C221.256 57.8964 221.166 57.8991 221.088 57.8991C220.84 57.9075 220.598 57.8214 220.411 57.6581C220.324 57.584 220.253 57.4924 220.203 57.3893C220.154 57.2862 220.126 57.1738 220.123 57.0594L220.092 56.1112C219.75 56.701 219.256 57.1873 218.66 57.5184C218.065 57.8458 217.395 58.0143 216.716 58.0076" fill="#4F4F54"/>
<path d="M227.931 58.0096C227.302 58.0222 226.683 57.8493 226.152 57.5124C225.652 57.1938 225.234 56.762 224.931 56.252V61.1673H223.562V49.7355H224.775V51.2592C225.092 50.7652 225.521 50.3524 226.027 50.0539C226.542 49.7472 227.132 49.5884 227.731 49.5949C228.264 49.5891 228.791 49.7063 229.27 49.9374C229.732 50.1622 230.145 50.4767 230.484 50.8625C230.83 51.2587 231.101 51.7148 231.284 52.2083C231.475 52.7155 231.572 53.2532 231.571 53.7952C231.574 54.3532 231.484 54.9078 231.305 55.4363C231.141 55.924 230.888 56.3766 230.557 56.7705C230.24 57.1469 229.848 57.4539 229.406 57.6725C228.948 57.8984 228.442 58.0129 227.931 58.007M227.51 56.8248C227.891 56.8304 228.268 56.7424 228.607 56.5686C228.93 56.3998 229.216 56.1667 229.446 55.8837C229.681 55.5939 229.861 55.2647 229.98 54.9115C230.104 54.5514 230.167 54.1732 230.166 53.7925C230.166 53.0096 229.878 52.254 229.358 51.6693C229.11 51.3956 228.812 51.1735 228.479 51.0155C228.136 50.854 227.762 50.7719 227.384 50.7753C227.12 50.7779 226.859 50.8279 226.612 50.923C226.349 51.022 226.098 51.1528 225.866 51.3126C225.635 51.4713 225.431 51.6652 225.26 51.8872C225.095 52.0957 224.981 52.3392 224.926 52.5988V54.9168C225.039 55.1858 225.186 55.4395 225.362 55.672C225.534 55.9016 225.738 56.1058 225.968 56.2786C226.191 56.4469 226.437 56.5828 226.699 56.6825C226.957 56.7815 227.232 56.8319 227.508 56.831" fill="#4F4F54"/>
<path d="M114.181 65.0021C114.182 64.68 114.239 64.3604 114.348 64.0574C114.457 63.7481 114.622 63.4619 114.836 63.2133C115.055 62.9608 115.323 62.7555 115.624 62.6102C115.955 62.4527 116.318 62.3741 116.684 62.3807C117.108 62.3691 117.527 62.4796 117.891 62.6992C118.214 62.8982 118.473 63.186 118.638 63.5282L118.112 63.8689C118.041 63.7132 117.945 63.5704 117.828 63.4463C117.721 63.337 117.598 63.2446 117.464 63.1724C117.337 63.105 117.201 63.055 117.06 63.0238C116.926 62.9948 116.79 62.9799 116.653 62.9794C116.384 62.973 116.118 63.0342 115.879 63.1573C115.659 63.274 115.466 63.4355 115.312 63.6314C115.158 63.8285 115.041 64.0522 114.967 64.2914C114.891 64.5296 114.853 64.778 114.852 65.0279C114.851 65.2969 114.898 65.5639 114.989 65.8169C115.077 66.0585 115.206 66.2828 115.371 66.4795C115.531 66.67 115.727 66.8263 115.949 66.9394C116.174 67.0535 116.423 67.1118 116.675 67.1093C116.818 67.1085 116.961 67.0909 117.101 67.0568C117.248 67.0228 117.389 66.9667 117.52 66.8905C117.657 66.8114 117.783 66.7145 117.894 66.6023C118.014 66.4809 118.11 66.339 118.179 66.1833L118.734 66.4867C118.652 66.6819 118.533 66.8593 118.383 67.0088C118.232 67.1597 118.06 67.2883 117.872 67.3904C117.681 67.4941 117.479 67.5736 117.268 67.627C117.065 67.6806 116.856 67.7081 116.645 67.7088C116.3 67.7127 115.959 67.6314 115.653 67.4722C115.355 67.3162 115.09 67.1049 114.872 66.8496C114.651 66.5936 114.478 66.3002 114.361 65.9832C114.242 65.667 114.182 65.3318 114.183 64.9941" fill="#4F4F54"/>
<path d="M122.824 67.6679H122.172V65.5055C122.193 65.1949 122.121 64.8851 121.965 64.616C121.896 64.5202 121.805 64.4432 121.699 64.3922C121.593 64.3412 121.475 64.3178 121.358 64.3242C121.225 64.325 121.094 64.3513 120.972 64.4016C120.844 64.4547 120.724 64.5257 120.616 64.6124C120.503 64.704 120.403 64.8113 120.32 64.9309C120.233 65.0558 120.167 65.1936 120.124 65.3392V67.6714H119.472V62.2642H120.124V64.6338C120.268 64.3618 120.483 64.134 120.747 63.9747C121.005 63.8175 121.303 63.7356 121.605 63.7381C121.805 63.732 122.004 63.7754 122.183 63.8644C122.336 63.9438 122.466 64.0611 122.56 64.205C122.66 64.3622 122.729 64.5366 122.764 64.7192C122.807 64.9302 122.828 65.1451 122.827 65.3605L122.824 67.6679Z" fill="#4F4F54"/>
<path d="M124.832 67.7408C124.657 67.7432 124.484 67.713 124.32 67.6518C124.168 67.5935 124.028 67.5069 123.908 67.3965C123.793 67.2884 123.7 67.1588 123.634 67.0149C123.567 66.8648 123.533 66.7018 123.535 66.5372C123.533 66.3683 123.573 66.2015 123.653 66.0525C123.735 65.9034 123.85 65.7753 123.99 65.678C124.148 65.5686 124.324 65.4862 124.509 65.4343C124.722 65.373 124.943 65.3431 125.164 65.3453C125.356 65.3456 125.546 65.3629 125.734 65.3969C125.909 65.4267 126.08 65.4741 126.245 65.5384V65.227C126.258 65.0898 126.24 64.9515 126.193 64.8219C126.147 64.6923 126.071 64.5748 125.974 64.4777C125.876 64.3806 125.758 64.3065 125.628 64.2605C125.498 64.2146 125.359 64.1981 125.222 64.2121C124.776 64.2324 124.346 64.3903 123.993 64.664L123.779 64.2415C124.217 63.9259 124.741 63.7507 125.282 63.7389C125.716 63.7125 126.143 63.8589 126.47 64.1463C126.617 64.2973 126.731 64.4774 126.804 64.675C126.878 64.8726 126.909 65.0833 126.896 65.2937V66.8717C126.896 67.0247 126.966 67.1039 127.103 67.1083V67.6714L126.933 67.6936C126.888 67.6936 126.844 67.7007 126.793 67.7007C126.737 67.7035 126.68 67.6947 126.627 67.675C126.574 67.6553 126.526 67.625 126.485 67.586C126.41 67.5112 126.361 67.4131 126.348 67.3076L126.333 67.0336C126.164 67.2646 125.938 67.4484 125.678 67.5673C125.411 67.6872 125.122 67.7479 124.83 67.7452M125 67.2569C125.222 67.2584 125.443 67.2142 125.648 67.127C125.828 67.0556 125.985 66.9366 126.103 66.7828C126.144 66.7465 126.179 66.7022 126.203 66.6526C126.227 66.6029 126.241 66.5489 126.244 66.4937V65.9235C125.93 65.8006 125.596 65.7378 125.259 65.7385C124.978 65.7258 124.701 65.7981 124.462 65.9457C124.368 66.001 124.29 66.08 124.236 66.1749C124.182 66.2699 124.154 66.3773 124.155 66.4866C124.154 66.591 124.176 66.6944 124.218 66.7899C124.259 66.8829 124.32 66.966 124.396 67.0336C124.474 67.1043 124.564 67.1595 124.663 67.1964C124.769 67.2367 124.882 67.2569 124.996 67.256" fill="#4F4F54"/>
<path d="M131.297 67.6671H130.645V65.5012C130.668 65.1882 130.603 64.8749 130.456 64.5974C130.393 64.5046 130.307 64.4298 130.207 64.3805C130.106 64.3312 129.994 64.3091 129.882 64.3164C129.745 64.3171 129.61 64.3433 129.482 64.3938C129.347 64.4468 129.22 64.5177 129.104 64.6046C128.985 64.6943 128.88 64.8017 128.794 64.923C128.704 65.0468 128.637 65.1849 128.593 65.3313V67.6636H127.941V63.7969H128.534V64.6259C128.69 64.3513 128.92 64.1256 129.197 63.9739C129.485 63.8116 129.811 63.7276 130.141 63.7302C130.334 63.7235 130.525 63.7657 130.697 63.8529C130.844 63.9329 130.967 64.0505 131.053 64.1936C131.147 64.3518 131.211 64.5262 131.241 64.7077C131.28 64.9205 131.299 65.1364 131.297 65.3526L131.297 67.6671Z" fill="#4F4F54"/>
<path d="M133.852 67.7112C133.602 67.714 133.354 67.6579 133.129 67.5475C132.913 67.4415 132.72 67.293 132.563 67.1108C132.403 66.9254 132.278 66.7119 132.196 66.481C132.109 66.2436 132.065 65.9927 132.066 65.74C132.065 65.4763 132.109 65.2143 132.196 64.9653C132.277 64.7304 132.401 64.5131 132.563 64.3248C132.72 64.1429 132.912 63.9954 133.129 63.8917C133.357 63.7835 133.607 63.7291 133.859 63.7324C134.158 63.7247 134.452 63.8072 134.703 63.969C134.941 64.1275 135.145 64.3316 135.303 64.5695V63.7983H135.881V67.6231C135.886 67.8754 135.833 68.1254 135.724 68.3534C135.625 68.5603 135.48 68.7425 135.302 68.8871C135.117 69.0338 134.905 69.1442 134.679 69.2127C134.43 69.2882 134.172 69.3257 133.912 69.3238C133.543 69.3386 133.176 69.2613 132.844 69.0988C132.57 68.9485 132.335 68.7351 132.158 68.4762L132.537 68.1426C132.683 68.364 132.888 68.5407 133.129 68.6532C133.375 68.7674 133.643 68.8254 133.914 68.8231C134.086 68.8242 134.257 68.7993 134.421 68.7492C134.574 68.7039 134.717 68.6283 134.84 68.5268C134.961 68.4255 135.058 68.2993 135.126 68.1568C135.201 67.9918 135.237 67.8122 135.233 67.6311V66.9498C135.158 67.0676 135.068 67.1758 134.967 67.2718C134.867 67.3665 134.757 67.4486 134.637 67.5164C134.519 67.5831 134.391 67.6342 134.259 67.6685C134.126 67.7029 133.99 67.7202 133.852 67.7201M134.051 67.1864C134.188 67.1865 134.324 67.1615 134.452 67.1125C134.579 67.0637 134.698 66.9975 134.807 66.916C134.912 66.8379 135.005 66.7443 135.081 66.6384C135.151 66.5431 135.202 66.4349 135.23 66.32V65.209C135.176 65.0788 135.105 64.9567 135.018 64.8461C134.933 64.7394 134.835 64.6438 134.726 64.5615C134.617 64.4806 134.497 64.417 134.37 64.3729C134.247 64.3291 134.118 64.3065 133.988 64.3062C133.802 64.3022 133.619 64.3457 133.454 64.4325C133.301 64.5149 133.166 64.6281 133.058 64.7652C132.948 64.9069 132.863 65.0663 132.806 65.2366C132.747 65.4084 132.717 65.5887 132.717 65.7703C132.716 66.1399 132.854 66.4966 133.102 66.7701C133.221 66.8984 133.363 67.0029 133.521 67.0778C133.684 67.1549 133.863 67.1941 134.043 67.1926" fill="#4F4F54"/>
<path d="M136.934 62.2598H137.586V63.0745H136.934V62.2598ZM136.934 63.8004H137.586V67.667H136.934V63.8004Z" fill="#4F4F54"/>
<path d="M141.992 67.6671H141.34V65.5012C141.364 65.1882 141.298 64.8749 141.151 64.5974C141.089 64.5046 141.002 64.4299 140.902 64.3806C140.801 64.3313 140.689 64.3092 140.578 64.3163C140.441 64.3171 140.305 64.3434 140.177 64.3937C140.043 64.4469 139.915 64.5178 139.799 64.6045C139.68 64.6943 139.575 64.8017 139.488 64.923C139.399 65.0471 139.332 65.185 139.289 65.3313V67.6635H138.637V63.7969H139.229V64.6259C139.386 64.3513 139.615 64.1255 139.893 63.9739C140.181 63.8117 140.506 63.7276 140.836 63.7302C141.029 63.7235 141.22 63.7658 141.392 63.8529C141.539 63.9329 141.662 64.0505 141.748 64.1936C141.842 64.3519 141.906 64.5262 141.937 64.7077C141.975 64.9205 141.994 65.1364 141.993 65.3526L141.992 67.6671Z" fill="#4F4F54"/>
<path d="M144.547 67.7112C144.297 67.714 144.049 67.6579 143.824 67.5475C143.608 67.4416 143.416 67.293 143.258 67.1108C143.098 66.9253 142.974 66.7118 142.891 66.481C142.805 66.2436 142.761 65.9927 142.761 65.74C142.76 65.4763 142.804 65.2143 142.891 64.9653C142.972 64.7305 143.097 64.5131 143.258 64.3248C143.415 64.1429 143.608 63.9954 143.824 63.8916C144.052 63.7835 144.302 63.729 144.554 63.7324C144.853 63.7247 145.147 63.8072 145.399 63.969C145.636 64.1276 145.84 64.3317 145.998 64.5695V63.7983H146.576V67.6231C146.581 67.8754 146.528 68.1254 146.42 68.3534C146.32 68.5602 146.176 68.7424 145.997 68.8871C145.812 69.0339 145.601 69.1444 145.375 69.2127C145.126 69.2882 144.867 69.3257 144.607 69.3238C144.238 69.3386 143.871 69.2613 143.54 69.0988C143.265 68.9484 143.03 68.735 142.854 68.4761L143.232 68.1426C143.379 68.364 143.584 68.5406 143.824 68.6532C144.07 68.7673 144.338 68.8253 144.609 68.823C144.781 68.8242 144.951 68.7993 145.116 68.7492C145.269 68.7039 145.411 68.6283 145.535 68.5268C145.656 68.4256 145.753 68.2994 145.82 68.1568C145.895 67.9918 145.932 67.8122 145.928 67.6311V66.9498C145.853 67.0676 145.763 67.1758 145.661 67.2718C145.562 67.3664 145.451 67.4486 145.332 67.5164C145.213 67.583 145.086 67.6341 144.954 67.6685C144.821 67.7029 144.684 67.7202 144.546 67.7201M144.746 67.1864C144.883 67.1865 145.018 67.1614 145.146 67.1125C145.273 67.0636 145.393 66.9975 145.502 66.916C145.607 66.8378 145.699 66.7442 145.776 66.6384C145.846 66.5432 145.896 66.435 145.924 66.32V65.209C145.871 65.0788 145.8 64.9566 145.713 64.8461C145.627 64.7394 145.529 64.6438 145.42 64.5614C145.312 64.4807 145.192 64.417 145.064 64.3729C144.942 64.329 144.813 64.3065 144.683 64.3062C144.497 64.3021 144.313 64.3456 144.149 64.4325C143.995 64.5149 143.86 64.6281 143.752 64.7651C143.642 64.9068 143.557 65.0663 143.5 65.2366C143.442 65.4084 143.412 65.5887 143.411 65.7703C143.41 66.1399 143.548 66.4966 143.797 66.7701C143.916 66.8984 144.058 67.0028 144.216 67.0778C144.379 67.1548 144.557 67.1941 144.738 67.1926" fill="#4F4F54"/>
<path d="M149.606 67.6669V62.4082H150.273V67.0745H153.208V67.6669H149.606Z" fill="#4F4F54"/>
<path d="M153.828 62.2598H154.48V63.0745H153.828V62.2598ZM153.828 63.8004H154.48V67.667H153.828V63.8004Z" fill="#4F4F54"/>
<path d="M156.649 67.667L155.124 63.8003H155.797L157.019 67.0959L158.248 63.8003H158.871L157.346 67.667H156.649Z" fill="#4F4F54"/>
<path d="M161.226 67.7408C160.952 67.7441 160.679 67.6902 160.426 67.5824C160.191 67.4812 159.979 67.3336 159.803 67.1484C159.629 66.963 159.491 66.7455 159.399 66.5079C159.303 66.2614 159.254 65.9988 159.254 65.734C159.253 65.4704 159.303 65.2089 159.399 64.9637C159.493 64.7263 159.632 64.5096 159.809 64.3264C159.987 64.1432 160.199 63.997 160.433 63.8963C160.686 63.7885 160.959 63.7346 161.234 63.738C161.497 63.734 161.757 63.785 162 63.8876C162.242 63.9902 162.46 64.1423 162.64 64.334C162.809 64.5168 162.941 64.7307 163.029 64.9637C163.12 65.2015 163.167 65.4538 163.167 65.7083C163.167 65.7625 163.167 65.8123 163.167 65.8568C163.165 65.8917 163.161 65.9265 163.155 65.9609H159.953C159.964 66.1428 160.01 66.3211 160.086 66.4866C160.225 66.7897 160.472 67.0301 160.779 67.1608C160.93 67.225 161.093 67.2577 161.257 67.2569C161.374 67.2569 161.491 67.2408 161.605 67.2088C161.715 67.1777 161.822 67.1341 161.923 67.079C162.021 67.0259 162.111 66.9585 162.19 66.8788C162.266 66.8025 162.327 66.7118 162.368 66.612L162.93 66.7676C162.864 66.9128 162.773 67.0457 162.663 67.1608C162.55 67.2806 162.42 67.3839 162.278 67.4677C162.125 67.5569 161.962 67.6254 161.791 67.6714C161.61 67.7208 161.424 67.7457 161.236 67.7452M162.562 65.4788C162.549 65.3025 162.503 65.1304 162.425 64.9717C162.354 64.8231 162.256 64.6886 162.136 64.575C161.953 64.4075 161.727 64.2947 161.483 64.2496C161.239 64.2044 160.987 64.2288 160.756 64.3197C160.606 64.3794 160.468 64.4673 160.351 64.5786C160.234 64.6924 160.139 64.8269 160.07 64.9753C159.997 65.134 159.953 65.3045 159.94 65.4788H162.562Z" fill="#4F4F54"/>
<path d="M165.249 67.7408C164.937 67.7407 164.627 67.6918 164.33 67.5958C164.046 67.5086 163.782 67.3663 163.553 67.1769L163.834 66.7401C164.042 66.9019 164.271 67.0328 164.516 67.1288C164.745 67.2161 164.989 67.2601 165.234 67.2587C165.47 67.2713 165.703 67.2134 165.905 67.0924C165.984 67.0425 166.048 66.9728 166.092 66.8902C166.136 66.8076 166.157 66.7151 166.153 66.6218C166.156 66.5369 166.132 66.4532 166.087 66.3817C166.035 66.3075 165.966 66.2465 165.886 66.2037C165.778 66.147 165.664 66.1023 165.546 66.0703C165.407 66.0312 165.247 65.9885 165.064 65.944C164.832 65.8844 164.632 65.8284 164.465 65.7741C164.318 65.7301 164.178 65.6654 164.05 65.582C163.948 65.5158 163.867 65.4236 163.813 65.3151C163.76 65.1938 163.735 65.0623 163.739 64.93C163.736 64.7519 163.775 64.5755 163.854 64.4158C163.928 64.2672 164.036 64.1378 164.169 64.0378C164.31 63.9329 164.47 63.8551 164.639 63.8083C164.829 63.7553 165.024 63.7289 165.221 63.73C165.499 63.728 165.774 63.7759 166.035 63.8715C166.268 63.9547 166.484 64.0805 166.672 64.2424L166.376 64.6347C166.215 64.4933 166.029 64.384 165.828 64.3127C165.628 64.2412 165.417 64.2048 165.205 64.205C164.994 64.1986 164.784 64.2513 164.601 64.3571C164.519 64.4077 164.453 64.4795 164.409 64.565C164.366 64.6504 164.346 64.7462 164.353 64.8419C164.351 64.9187 164.367 64.9948 164.402 65.0634C164.44 65.129 164.495 65.1831 164.561 65.22C164.651 65.2713 164.747 65.311 164.847 65.3383C164.961 65.373 165.102 65.4103 165.266 65.4503C165.522 65.5096 165.745 65.5689 165.935 65.6282C166.103 65.6793 166.262 65.7529 166.409 65.8471C166.526 65.9212 166.623 66.0229 166.69 66.1433C166.754 66.2719 166.785 66.4144 166.779 66.5578C166.785 66.7239 166.751 66.8889 166.678 67.0386C166.606 67.1883 166.499 67.3182 166.365 67.417C166.038 67.6444 165.645 67.7564 165.247 67.7355" fill="#4F4F54"/>
<path d="M167.575 68.2672L167.722 67.6081H167.501V66.8369H168.116V67.6081L167.893 68.2672H167.575Z" fill="#4F4F54"/>
<path d="M171.092 67.6669V62.4082H174.561V63.0006H171.754V64.7556H174.116V65.3115H171.754V67.666L171.092 67.6669Z" fill="#4F4F54"/>
<path d="M176.995 67.7408C176.731 67.7448 176.47 67.6935 176.227 67.5903C175.984 67.487 175.765 67.3341 175.585 67.1412C175.413 66.9563 175.278 66.7401 175.188 66.5044C174.998 66.0108 174.998 65.4644 175.188 64.9709C175.28 64.7355 175.416 64.5195 175.588 64.334C175.769 64.1429 175.988 63.9907 176.229 63.8867C176.471 63.7826 176.732 63.729 176.995 63.729C177.259 63.729 177.519 63.7826 177.761 63.8867C178.003 63.9907 178.221 64.1429 178.403 64.334C178.575 64.5193 178.711 64.7353 178.803 64.9709C178.9 65.2163 178.949 65.4781 178.947 65.742C178.948 66.003 178.9 66.2618 178.806 66.5052C178.716 66.7418 178.58 66.9583 178.406 67.1421C178.229 67.3274 178.018 67.4761 177.784 67.5798C177.533 67.6902 177.261 67.7454 176.987 67.7416M175.706 65.7492C175.704 65.9414 175.738 66.1323 175.806 66.3122C175.869 66.4785 175.961 66.6318 176.08 66.7641C176.194 66.8915 176.333 66.9946 176.487 67.0674C176.644 67.141 176.815 67.1792 176.987 67.1792C177.16 67.1792 177.331 67.141 177.487 67.0674C177.643 66.9933 177.783 66.889 177.899 66.7605C178.019 66.6256 178.113 66.4697 178.177 66.3007C178.31 65.9374 178.31 65.5387 178.177 65.1754C178.113 65.0064 178.019 64.8505 177.899 64.7156C177.783 64.5871 177.643 64.4828 177.487 64.4087C177.331 64.3339 177.16 64.2955 176.987 64.2966C176.814 64.2955 176.643 64.3351 176.487 64.4122C176.333 64.488 176.194 64.5934 176.08 64.7227C175.962 64.858 175.869 65.0139 175.806 65.1825C175.738 65.3637 175.704 65.5558 175.706 65.7492Z" fill="#4F4F54"/>
<path d="M181.787 64.3714C181.482 64.3752 181.184 64.4622 180.924 64.6231C180.677 64.7761 180.489 65.0085 180.391 65.2822V67.667H179.739V63.8003H180.346V64.7005C180.469 64.4469 180.649 64.2252 180.872 64.0529C181.072 63.8941 181.314 63.7975 181.568 63.7754H181.695C181.725 63.7752 181.754 63.7775 181.784 63.7825L181.787 64.3714Z" fill="#4F4F54"/>
<path d="M184.142 67.7408C183.867 67.7441 183.594 67.6902 183.341 67.5824C183.106 67.4811 182.895 67.3334 182.718 67.1484C182.544 66.9631 182.406 66.7455 182.315 66.5079C182.218 66.2615 182.169 65.9988 182.17 65.7341C182.169 65.4704 182.218 65.2089 182.315 64.9637C182.408 64.7263 182.547 64.5097 182.724 64.3265C182.902 64.1433 183.114 63.9971 183.348 63.8963C183.601 63.7885 183.874 63.7346 184.149 63.738C184.412 63.7339 184.673 63.7848 184.915 63.8874C185.158 63.9901 185.376 64.1422 185.556 64.334C185.725 64.5169 185.857 64.7307 185.946 64.9637C186.037 65.2014 186.083 65.4538 186.082 65.7083C186.082 65.7625 186.082 65.8123 186.082 65.8568C186.081 65.8917 186.077 65.9265 186.071 65.9609H182.869C182.88 66.1428 182.925 66.321 183.001 66.4866C183.14 66.7896 183.387 67.03 183.694 67.1608C183.845 67.225 184.008 67.2577 184.172 67.2569C184.29 67.257 184.407 67.2408 184.52 67.2088C184.631 67.1778 184.738 67.1342 184.839 67.079C184.937 67.026 185.027 66.9585 185.106 66.8788C185.182 66.8026 185.243 66.7119 185.284 66.612L185.846 66.7677C185.78 66.9128 185.69 67.0457 185.579 67.1608C185.466 67.2811 185.336 67.3844 185.193 67.4677C185.041 67.5569 184.878 67.6254 184.708 67.6714C184.527 67.7208 184.341 67.7456 184.153 67.7452M185.479 65.4788C185.466 65.3025 185.419 65.1304 185.342 64.9718C185.27 64.8231 185.173 64.6886 185.053 64.575C184.87 64.4076 184.644 64.2949 184.4 64.2498C184.156 64.2046 183.904 64.2289 183.673 64.3197C183.523 64.3794 183.385 64.4672 183.268 64.5786C183.151 64.6924 183.055 64.8269 182.987 64.9753C182.914 65.134 182.87 65.3045 182.857 65.4788H185.479Z" fill="#4F4F54"/>
<path d="M187.927 67.667L186.402 63.8003H187.079L188.301 67.0959L189.53 63.8003H190.153L188.627 67.667H187.927Z" fill="#4F4F54"/>
<path d="M192.505 67.7408C192.23 67.7441 191.957 67.6902 191.704 67.5824C191.47 67.4812 191.258 67.3336 191.082 67.1484C190.907 66.963 190.77 66.7455 190.678 66.5079C190.581 66.2614 190.532 65.9988 190.533 65.7341C190.532 65.4704 190.581 65.209 190.678 64.9637C190.771 64.7263 190.91 64.5097 191.088 64.3265C191.265 64.1432 191.477 63.997 191.711 63.8963C191.964 63.7885 192.237 63.7346 192.512 63.738C192.775 63.7339 193.036 63.7848 193.278 63.8874C193.521 63.9901 193.739 64.1422 193.919 64.334C194.088 64.5168 194.221 64.7307 194.309 64.9637C194.4 65.2014 194.446 65.4538 194.446 65.7083C194.446 65.7625 194.446 65.8123 194.446 65.8568C194.444 65.8917 194.44 65.9265 194.434 65.9609H191.232C191.244 66.1428 191.289 66.3211 191.365 66.4866C191.436 66.6391 191.534 66.7772 191.654 66.894C191.772 67.0067 191.909 67.0971 192.058 67.1608C192.209 67.225 192.372 67.2577 192.536 67.2569C192.653 67.2569 192.77 67.2408 192.884 67.2089C192.994 67.1779 193.101 67.1343 193.202 67.079C193.3 67.0259 193.39 66.9584 193.469 66.8788C193.545 66.8023 193.606 66.7117 193.647 66.612L194.209 66.7677C194.144 66.9125 194.056 67.0454 193.947 67.1608C193.833 67.2806 193.704 67.3839 193.562 67.4677C193.409 67.5569 193.245 67.6254 193.075 67.6714C192.894 67.7209 192.707 67.7457 192.52 67.7452M193.846 65.4788C193.833 65.3025 193.786 65.1304 193.708 64.9718C193.637 64.8231 193.539 64.6887 193.42 64.575C193.237 64.4076 193.01 64.2949 192.766 64.2498C192.522 64.2046 192.27 64.2289 192.04 64.3197C191.889 64.3795 191.752 64.4674 191.635 64.5786C191.518 64.6925 191.422 64.827 191.354 64.9753C191.281 65.134 191.237 65.3045 191.224 65.4788H193.846Z" fill="#4F4F54"/>
<path d="M197.215 64.3714C196.909 64.3752 196.611 64.4622 196.352 64.6231C196.105 64.7762 195.916 65.0085 195.818 65.2822V67.667H195.167V63.8003H195.774V64.7005C195.897 64.447 196.077 64.2254 196.299 64.0529C196.499 63.8941 196.741 63.7976 196.996 63.7754H197.121C197.151 63.7752 197.181 63.7775 197.21 63.7825L197.215 64.3714Z" fill="#4F4F54"/>
<path d="M199.133 65.2306C198.916 65.2326 198.7 65.1922 198.497 65.1114C198.309 65.0365 198.137 64.9249 197.992 64.7832C197.849 64.6426 197.735 64.4748 197.657 64.2895C197.496 63.8921 197.496 63.4477 197.657 63.0504C197.734 62.8651 197.848 62.6975 197.992 62.5576C198.138 62.4175 198.31 62.307 198.497 62.2321C198.7 62.1513 198.916 62.1108 199.133 62.1129C199.352 62.1109 199.57 62.1514 199.773 62.2321C199.962 62.3069 200.135 62.4175 200.282 62.5576C200.427 62.6969 200.542 62.8646 200.619 63.0504C200.78 63.4478 200.78 63.8921 200.619 64.2895C200.541 64.4752 200.427 64.6432 200.282 64.7832C200.135 64.925 199.963 65.0365 199.773 65.1114C199.57 65.192 199.352 65.2325 199.133 65.2306ZM199.133 65.0705C199.325 65.0722 199.516 65.0378 199.695 64.9691C199.863 64.9047 200.017 64.8067 200.147 64.6812C200.276 64.5557 200.379 64.4052 200.449 64.2388C200.524 64.059 200.561 63.866 200.559 63.6713C200.561 63.4814 200.524 63.2932 200.451 63.118C200.381 62.9516 200.279 62.8007 200.151 62.6742C200.022 62.5477 199.869 62.4482 199.702 62.3815C199.336 62.2408 198.931 62.2408 198.566 62.3815C198.399 62.4487 198.248 62.5488 198.121 62.6759C197.995 62.8032 197.895 62.9544 197.828 63.1207C197.756 63.2947 197.72 63.4813 197.721 63.6695C197.719 63.8595 197.756 64.0478 197.828 64.2237C197.895 64.39 197.995 64.5412 198.121 64.6684C198.248 64.7952 198.4 64.8956 198.566 64.9637C198.746 65.037 198.939 65.0739 199.133 65.0722M198.465 62.7017H199.293C199.375 62.7013 199.456 62.7198 199.53 62.756C199.601 62.7914 199.664 62.84 199.716 62.8992C199.767 62.9585 199.808 63.0262 199.836 63.0993C199.864 63.1708 199.878 63.2468 199.879 63.3235C199.881 63.4543 199.841 63.5824 199.765 63.6891C199.694 63.793 199.587 63.8673 199.464 63.8981L199.936 64.6408H199.621L199.176 63.9408H198.739V64.6408H198.459L198.465 62.7017ZM199.28 63.6953C199.326 63.6978 199.371 63.6898 199.412 63.6717C199.454 63.6536 199.49 63.6261 199.519 63.5912C199.578 63.5149 199.608 63.4205 199.604 63.3244C199.606 63.2756 199.599 63.2268 199.582 63.181C199.565 63.1351 199.539 63.0932 199.506 63.0575C199.476 63.0246 199.439 62.9985 199.397 62.9809C199.356 62.9633 199.312 62.9545 199.267 62.9552H198.745V63.6944L199.28 63.6953Z" fill="#4F4F54"/>
<path d="M82.9468 60.1987C85.0882 63.0333 86.8984 66.1037 88.3417 69.3499C88.428 69.5503 88.573 69.7198 88.7576 69.8361C88.9422 69.9524 89.1577 70.0101 89.3757 70.0015C89.5937 69.993 89.8041 69.9185 89.979 69.7881C90.1539 69.6576 90.2851 69.4773 90.3554 69.2708C92.4457 63.151 95.3278 56.0803 99.5369 51.7476C95.1085 54.7523 91.5347 58.8538 89.1644 63.6518C87.1283 59.7504 84.6938 59.8696 82.9468 60.196" fill="#FBB040"/>
<path d="M82.9468 60.1987C85.0882 63.0333 86.8984 66.1037 88.3417 69.3499C88.428 69.5503 88.573 69.7198 88.7576 69.8361C88.9422 69.9524 89.1577 70.0101 89.3757 70.0015C89.5937 69.993 89.8041 69.9185 89.979 69.7881C90.1539 69.6576 90.2851 69.4773 90.3554 69.2708C92.4457 63.151 95.3278 56.0803 99.5369 51.7476C93.4589 56.6825 90.6152 63.8955 89.249 66.8326C87.2138 62.9304 85.513 60.5029 82.9468 60.196" fill="#F15A29"/>
<path d="M95.1906 39.8024C93.0492 36.9677 91.2392 33.8973 89.7958 30.6512C89.7096 30.4505 89.5645 30.2807 89.3798 30.1642C89.1951 30.0476 88.9795 29.9898 88.7612 29.9984C88.543 30.007 88.3325 30.0815 88.1575 30.2122C87.9825 30.3429 87.8513 30.5235 87.7811 30.7303C85.6916 36.8501 82.8096 43.9208 78.5996 48.2535C83.028 45.2488 86.6018 41.1473 88.9721 36.3493C91.0064 40.2507 93.4418 40.1315 95.1897 39.805" fill="#1DB7B8"/>
<path d="M95.1906 39.8024C93.0492 36.9677 91.2392 33.8973 89.7958 30.6512C89.7096 30.4505 89.5645 30.2807 89.3798 30.1642C89.1951 30.0476 88.9795 29.9898 88.7612 29.9984C88.543 30.007 88.3325 30.0815 88.1575 30.2122C87.9825 30.3429 87.8513 30.5235 87.7811 30.7303C85.6916 36.8501 82.8096 43.9208 78.5996 48.2535C84.6776 43.3186 87.5222 36.1056 88.8876 33.1685C90.9237 37.0707 92.6235 39.4982 95.1897 39.805" fill="#188A89"/>
<path d="M99.2671 56.1204C102.102 53.9793 105.172 52.1693 108.418 50.7255C108.619 50.6392 108.788 50.4942 108.904 50.3096C109.021 50.125 109.078 49.9095 109.07 49.6914C109.061 49.4734 108.987 49.2631 108.856 49.0882C108.726 48.9133 108.546 48.7821 108.339 48.7117C102.219 46.6214 95.1487 43.7394 90.8159 39.5303C93.8201 43.9595 97.9221 47.5334 102.721 49.9027C98.8187 51.9379 98.9379 54.3734 99.2643 56.1204" fill="#27AAE1"/>
<path d="M99.2671 56.1204C102.102 53.9793 105.172 52.1693 108.418 50.7255C108.619 50.6392 108.788 50.4942 108.904 50.3096C109.021 50.125 109.078 49.9095 109.07 49.6914C109.061 49.4734 108.987 49.2631 108.856 49.0882C108.726 48.9133 108.546 48.7821 108.339 48.7117C102.219 46.6214 95.1487 43.7394 90.8159 39.5303C95.7509 45.6082 102.964 48.452 105.901 49.8191C101.999 51.8543 99.5712 53.555 99.2643 56.1204" fill="#1B75BC"/>
<path d="M78.8745 43.8799C76.0396 46.021 72.9692 47.831 69.7232 49.2747C69.5229 49.3611 69.3534 49.5061 69.2371 49.6907C69.1208 49.8753 69.0631 50.0908 69.0716 50.3088C69.0802 50.5268 69.1547 50.7371 69.2851 50.912C69.4156 51.0869 69.5959 51.2182 69.8024 51.2885C75.9222 53.3789 82.992 56.2609 87.3256 60.4709C84.3214 56.0421 80.2197 52.4682 75.4214 50.0984C79.3227 48.0632 79.2044 45.6278 78.8771 43.8808" fill="#44B649"/>
<path d="M78.8745 43.8799C76.0396 46.021 72.9692 47.831 69.7232 49.2747C69.5229 49.3611 69.3534 49.5061 69.2371 49.6907C69.1208 49.8753 69.0631 50.0908 69.0716 50.3088C69.0802 50.5268 69.1547 50.7371 69.2851 50.912C69.4156 51.0869 69.5959 51.2182 69.8024 51.2885C75.9222 53.3789 82.992 56.2609 87.3256 60.4709C82.3907 54.3929 75.1777 51.5492 72.2415 50.182C76.1437 48.1477 78.5711 46.4461 78.878 43.8808" fill="#148F45"/>
</g>
<defs>
<clipPath id="clip0_298_10560">
<rect width="162.733" height="40" fill="white" transform="translate(69.0703 30)"/>
</clipPath>
</defs>
</svg>
