<svg width="300" height="100" viewBox="0 0 300 100" fill="none" xmlns="http://www.w3.org/2000/svg">
<rect width="300" height="100" fill="white"/>
<g clip-path="url(#clip0_291_3317)">
<path d="M113.077 32.4431C113.077 31.3076 113.997 30.3872 115.133 30.3872H134.787V69.6129H115.133C113.997 69.6129 113.077 68.6924 113.077 67.557V32.4431Z" fill="#7EBA00"/>
<path d="M136.349 30.3872H184.867C186.003 30.3872 186.923 31.3076 186.923 32.4431V67.557C186.923 68.6924 186.003 69.6129 184.867 69.6129H136.349V30.3872Z" fill="#006D33"/>
<path d="M128.251 59.5777C127.055 53.5442 127.598 49.095 128.085 47.4097C126.657 48.8254 124.319 50.7197 123.868 55.7351C123.416 60.7507 125.738 65.9819 126.956 67.9706C127.168 67.3504 127.044 65.937 126.956 65.3077C127.487 66.1707 127.465 67.8694 127.387 68.611L127.753 68.9481C128.461 68.1953 129.177 64.2506 128.251 59.5777Z" fill="white"/>
<path d="M142.853 38.446V36.7367C142.853 35.8106 142.836 35.0107 142.803 34.2613L142.828 34.2529C143.106 34.9181 143.476 35.6506 143.813 36.2568L145.025 38.446H146.373V32.771H145.194V34.4297C145.194 35.2801 145.219 36.0463 145.303 36.7957H145.278C145.025 36.1558 144.689 35.4485 144.352 34.8507L143.173 32.771H141.674V38.446H142.853Z" fill="white"/>
<path d="M148.75 38.4459V34.3286H147.47V38.4459H148.75ZM148.11 32.5352C147.698 32.5352 147.428 32.813 147.437 33.1835C147.428 33.5371 147.698 33.8234 148.102 33.8234C148.523 33.8234 148.792 33.5371 148.792 33.1835C148.784 32.813 148.523 32.5352 148.11 32.5352Z" fill="white"/>
<path d="M152.601 34.3289L152.559 34.8173H152.543C152.332 34.4805 151.978 34.2363 151.414 34.2363C150.404 34.2363 149.545 35.0783 149.545 36.4002C149.545 37.5874 150.269 38.4126 151.288 38.4126C151.759 38.4126 152.155 38.2189 152.399 37.8737H152.416V38.1431C152.416 38.9009 151.953 39.2293 151.347 39.2293C150.867 39.2293 150.412 39.0694 150.151 38.9177L149.899 39.886C150.269 40.0965 150.842 40.206 151.381 40.206C151.987 40.206 152.601 40.0881 153.056 39.7008C153.519 39.2882 153.679 38.6399 153.679 37.8484V35.5498C153.679 34.9352 153.696 34.59 153.713 34.3289H152.601ZM152.399 36.6107C152.399 36.7202 152.391 36.8549 152.357 36.9475C152.273 37.2506 152.012 37.4695 151.684 37.4695C151.145 37.4695 150.842 36.9896 150.842 36.375C150.842 35.6256 151.221 35.2046 151.684 35.2046C152.037 35.2046 152.281 35.4319 152.374 35.7687C152.391 35.8361 152.399 35.9203 152.399 36.0045V36.6107Z" fill="white"/>
<path d="M158.343 36.796C158.36 36.7033 158.386 36.5097 158.386 36.2908C158.386 35.272 157.88 34.2363 156.55 34.2363C155.119 34.2363 154.47 35.3898 154.47 36.4339C154.47 37.7221 155.27 38.5304 156.668 38.5304C157.224 38.5304 157.737 38.4463 158.158 38.2778L157.99 37.4106C157.645 37.5201 157.291 37.579 156.853 37.579C156.255 37.579 155.733 37.3264 155.691 36.796H158.343ZM155.683 35.9203C155.716 35.5751 155.935 35.0867 156.474 35.0867C157.064 35.0867 157.198 35.6088 157.198 35.9203H155.683Z" fill="white"/>
<path d="M159.154 38.4463H160.434V36.3581C160.434 36.2571 160.443 36.1561 160.46 36.0719C160.544 35.6761 160.864 35.4235 161.335 35.4235C161.478 35.4235 161.588 35.4404 161.68 35.4572V34.2532C161.588 34.2363 161.529 34.2363 161.411 34.2363C161.015 34.2363 160.51 34.4889 160.3 35.0867H160.266L160.224 34.3289H159.121C159.138 34.6826 159.154 35.0783 159.154 35.6845V38.4463Z" fill="white"/>
<path d="M163.633 38.4459V34.3286H162.353V38.4459H163.633ZM162.993 32.5352C162.58 32.5352 162.311 32.813 162.319 33.1835C162.311 33.5371 162.58 33.8234 162.984 33.8234C163.405 33.8234 163.675 33.5371 163.675 33.1835C163.666 32.813 163.405 32.5352 162.993 32.5352Z" fill="white"/>
<path d="M168.158 38.4463C168.116 38.2189 168.099 37.84 168.099 37.4443V36.0129C168.099 35.0446 167.661 34.2363 166.289 34.2363C165.539 34.2363 164.975 34.4384 164.689 34.5984L164.925 35.4235C165.194 35.2551 165.64 35.112 166.061 35.112C166.693 35.112 166.811 35.4235 166.811 35.6424V35.7014C165.354 35.693 164.394 36.2066 164.394 37.2759C164.394 37.9327 164.891 38.5389 165.724 38.5389C166.213 38.5389 166.634 38.362 166.903 38.0337H166.928L167.004 38.4463H168.158ZM166.853 36.9475C166.853 37.0233 166.844 37.0991 166.827 37.1664C166.743 37.4274 166.482 37.6379 166.162 37.6379C165.876 37.6379 165.657 37.478 165.657 37.1496C165.657 36.6528 166.179 36.4928 166.853 36.5013V36.9475Z" fill="white"/>
<path d="M141.455 47.3132C141.775 47.49 142.415 47.6584 143.064 47.6584C144.621 47.6584 145.354 46.8501 145.354 45.8986C145.354 45.0988 144.882 44.5767 143.88 44.2063C143.148 43.9284 142.828 43.7684 142.828 43.4064C142.828 43.1117 143.097 42.8591 143.653 42.8591C144.209 42.8591 144.613 43.0191 144.84 43.1286L145.127 42.0929C144.79 41.9413 144.318 41.8066 143.678 41.8066C142.34 41.8066 141.531 42.5476 141.531 43.5159C141.531 44.341 142.146 44.863 143.089 45.1914C143.771 45.4356 144.04 45.6376 144.04 45.9913C144.04 46.3617 143.729 46.6059 143.139 46.6059C142.592 46.6059 142.062 46.4291 141.717 46.2523L141.455 47.3132Z" fill="white"/>
<path d="M148.199 43.3643C146.877 43.3643 146.001 44.2147 146.001 45.545C146.001 46.8753 146.927 47.6668 148.131 47.6668C149.234 47.6668 150.304 46.9764 150.304 45.4693C150.304 44.2316 149.462 43.3643 148.199 43.3643ZM148.165 44.2736C148.746 44.2736 148.982 44.8967 148.982 45.5113C148.982 46.2523 148.662 46.749 148.165 46.749C147.618 46.749 147.323 46.2186 147.323 45.5113C147.323 44.9051 147.55 44.2736 148.165 44.2736Z" fill="white"/>
<path d="M150.585 43.4565L152.083 47.5739H153.363L154.896 43.4565H153.548L153.018 45.3679C152.925 45.7215 152.858 46.0331 152.791 46.3699H152.765C152.706 46.0415 152.631 45.7131 152.53 45.3679L151.974 43.4565H150.585Z" fill="white"/>
<path d="M159.001 45.924C159.018 45.8313 159.043 45.6376 159.043 45.4187C159.043 44.4 158.538 43.3643 157.208 43.3643C155.776 43.3643 155.128 44.5178 155.128 45.5619C155.128 46.8501 155.928 47.6584 157.326 47.6584C157.881 47.6584 158.395 47.5742 158.816 47.4058L158.648 46.5386C158.302 46.648 157.949 46.707 157.511 46.707C156.913 46.707 156.391 46.4543 156.349 45.924H159.001ZM156.341 45.0483C156.374 44.703 156.593 44.2147 157.132 44.2147C157.721 44.2147 157.856 44.7367 157.856 45.0483H156.341Z" fill="white"/>
<path d="M159.812 47.5742H161.092V45.4861C161.092 45.385 161.1 45.284 161.117 45.1998C161.202 44.8041 161.521 44.5515 161.993 44.5515C162.136 44.5515 162.246 44.5683 162.338 44.5852V43.3811C162.246 43.3643 162.187 43.3643 162.069 43.3643C161.673 43.3643 161.168 43.6169 160.957 44.2147H160.924L160.882 43.4569H159.779C159.795 43.8106 159.812 44.2063 159.812 44.8125V47.5742Z" fill="white"/>
<path d="M166.582 45.924C166.599 45.8313 166.624 45.6376 166.624 45.4187C166.624 44.4 166.119 43.3643 164.789 43.3643C163.358 43.3643 162.709 44.5178 162.709 45.5619C162.709 46.8501 163.509 47.6584 164.907 47.6584C165.463 47.6584 165.976 47.5742 166.397 47.4058L166.229 46.5386C165.884 46.648 165.53 46.707 165.092 46.707C164.494 46.707 163.972 46.4543 163.93 45.924H166.582ZM163.922 45.0483C163.955 44.703 164.174 44.2147 164.713 44.2147C165.303 44.2147 165.437 44.7367 165.437 45.0483H163.922Z" fill="white"/>
<path d="M168.673 47.5743V43.457H167.393V47.5743H168.673ZM168.033 41.6636C167.621 41.6636 167.351 41.9414 167.36 42.3119C167.351 42.6655 167.621 42.9518 168.025 42.9518C168.446 42.9518 168.715 42.6655 168.715 42.3119C168.707 41.9414 168.446 41.6636 168.033 41.6636Z" fill="white"/>
<path d="M172.525 43.4569L172.482 43.9453H172.466C172.255 43.6085 171.901 43.3643 171.337 43.3643C170.327 43.3643 169.468 44.2063 169.468 45.5282C169.468 46.7154 170.192 47.5405 171.211 47.5405C171.683 47.5405 172.078 47.3469 172.322 47.0016H172.339V47.2711C172.339 48.0289 171.876 48.3573 171.27 48.3573C170.79 48.3573 170.335 48.1973 170.074 48.0457L169.822 49.014C170.192 49.2245 170.765 49.334 171.304 49.334C171.91 49.334 172.525 49.2161 172.979 48.8288C173.442 48.4162 173.602 47.7679 173.602 46.9764V44.6778C173.602 44.0631 173.619 43.7179 173.636 43.4569H172.525ZM172.322 45.7387C172.322 45.8481 172.314 45.9829 172.28 46.0755C172.196 46.3786 171.935 46.5975 171.607 46.5975C171.068 46.5975 170.765 46.1176 170.765 45.503C170.765 44.7536 171.144 44.3326 171.607 44.3326C171.96 44.3326 172.205 44.5599 172.297 44.8967C172.314 44.964 172.322 45.0483 172.322 45.1325V45.7387Z" fill="white"/>
<path d="M174.629 47.5742H175.909V45.1998C175.909 45.0819 175.926 44.9556 175.96 44.8799C176.044 44.6441 176.254 44.4 176.608 44.4C177.071 44.4 177.256 44.7619 177.256 45.2924V47.5742H178.536V45.1325C178.536 43.92 177.905 43.3643 177.063 43.3643C176.381 43.3643 175.96 43.76 175.791 44.021H175.766L175.707 43.4569H174.596C174.612 43.8189 174.629 44.2568 174.629 44.7704V47.5742Z" fill="white"/>
<path d="M141.674 51.0269V56.7019H142.963V51.0269H141.674Z" fill="white"/>
<path d="M144.058 56.7021H145.338V54.3277C145.338 54.2098 145.355 54.0836 145.388 54.0078C145.472 53.772 145.683 53.5278 146.037 53.5278C146.5 53.5278 146.685 53.8899 146.685 54.4203V56.7021H147.965V54.2603C147.965 53.0479 147.333 52.4922 146.491 52.4922C145.809 52.4922 145.388 52.888 145.22 53.149H145.195L145.136 52.5848H144.024C144.041 52.9469 144.058 53.3847 144.058 53.8983V56.7021Z" fill="white"/>
<path d="M148.397 52.585L149.896 56.7023H151.176L152.708 52.585H151.361L150.831 54.4963C150.738 54.8499 150.671 55.1614 150.603 55.4983H150.578C150.519 55.1699 150.443 54.8415 150.342 54.4963L149.787 52.585H148.397Z" fill="white"/>
<path d="M156.814 55.0518C156.831 54.9592 156.856 54.7656 156.856 54.5466C156.856 53.5278 156.351 52.4922 155.021 52.4922C153.589 52.4922 152.941 53.6457 152.941 54.6898C152.941 55.978 153.741 56.7863 155.139 56.7863C155.694 56.7863 156.208 56.7021 156.629 56.5337L156.46 55.6665C156.115 55.776 155.762 55.8349 155.324 55.8349C154.726 55.8349 154.204 55.5823 154.162 55.0518H156.814ZM154.153 54.1762C154.187 53.831 154.406 53.3426 154.945 53.3426C155.534 53.3426 155.669 53.8647 155.669 54.1762H154.153Z" fill="white"/>
<path d="M157.389 56.5C157.701 56.6684 158.181 56.7863 158.72 56.7863C159.898 56.7863 160.505 56.2222 160.505 55.456C160.496 54.8497 160.168 54.454 159.385 54.1846C158.88 54.0078 158.72 53.9067 158.72 53.7131C158.72 53.5026 158.896 53.3763 159.208 53.3763C159.562 53.3763 159.915 53.511 160.1 53.612L160.328 52.728C160.075 52.6017 159.646 52.4922 159.166 52.4922C158.147 52.4922 157.49 53.0732 157.49 53.8393C157.482 54.3277 157.81 54.7908 158.661 55.0771C159.141 55.237 159.267 55.3381 159.267 55.5486C159.267 55.7591 159.107 55.8938 158.72 55.8938C158.341 55.8938 157.852 55.7254 157.617 55.5823L157.389 56.5Z" fill="white"/>
<path d="M161.453 51.6921V52.5845H160.905V53.5275H161.453V55.2115C161.453 55.7925 161.571 56.1882 161.806 56.4324C162.008 56.6429 162.354 56.7861 162.766 56.7861C163.128 56.7861 163.431 56.7439 163.6 56.6766L163.591 55.7083C163.499 55.7251 163.372 55.742 163.212 55.742C162.825 55.742 162.707 55.5146 162.707 55.0178V53.5275H163.625V52.5845H162.707V51.4058L161.453 51.6921Z" fill="white"/>
<path d="M164.368 56.7021H165.614V54.3025C165.614 54.2014 165.622 54.0836 165.664 53.9825C165.74 53.772 165.934 53.5194 166.262 53.5194C166.666 53.5194 166.851 53.873 166.851 54.3951V56.7021H168.097V54.294C168.097 54.193 168.114 54.0583 168.148 53.9656C168.232 53.7215 168.443 53.5194 168.737 53.5194C169.15 53.5194 169.344 53.8646 169.344 54.4624V56.7021H170.59V54.2772C170.59 53.0479 169.992 52.4922 169.2 52.4922C168.897 52.4922 168.645 52.5596 168.417 52.6943C168.224 52.8121 168.039 52.9806 167.887 53.191H167.87C167.693 52.7616 167.272 52.4922 166.742 52.4922C166.035 52.4922 165.673 52.8795 165.496 53.1405H165.471L165.412 52.5848H164.334C164.351 52.9469 164.368 53.3847 164.368 53.8983V56.7021Z" fill="white"/>
<path d="M175.249 55.0518C175.266 54.9592 175.291 54.7656 175.291 54.5466C175.291 53.5278 174.786 52.4922 173.455 52.4922C172.024 52.4922 171.376 53.6457 171.376 54.6898C171.376 55.978 172.176 56.7863 173.573 56.7863C174.129 56.7863 174.643 56.7021 175.064 56.5337L174.895 55.6665C174.55 55.776 174.196 55.8349 173.759 55.8349C173.161 55.8349 172.639 55.5823 172.597 55.0518H175.249ZM172.588 54.1762C172.622 53.831 172.841 53.3426 173.38 53.3426C173.969 53.3426 174.104 53.8647 174.104 54.1762H172.588Z" fill="white"/>
<path d="M176.06 56.7021H177.34V54.3277C177.34 54.2098 177.357 54.0836 177.39 54.0078C177.474 53.772 177.685 53.5278 178.039 53.5278C178.502 53.5278 178.687 53.8899 178.687 54.4203V56.7021H179.967V54.2603C179.967 53.0479 179.335 52.4922 178.493 52.4922C177.811 52.4922 177.39 52.888 177.222 53.149H177.197L177.138 52.5848H176.026C176.043 52.9469 176.06 53.3847 176.06 53.8983V56.7021Z" fill="white"/>
<path d="M181.121 51.6921V52.5845H180.574V53.5275H181.121V55.2115C181.121 55.7925 181.239 56.1882 181.475 56.4324C181.677 56.6429 182.022 56.7861 182.434 56.7861C182.796 56.7861 183.1 56.7439 183.268 56.6766L183.26 55.7083C183.167 55.7251 183.041 55.742 182.881 55.742C182.493 55.742 182.375 55.5146 182.375 55.0178V53.5275H183.293V52.5845H182.375V51.4058L181.121 51.6921Z" fill="white"/>
<path d="M144.621 64.2911L145.059 65.7478H146.44L144.68 60.0728H142.996L141.262 65.7478H142.592L142.996 64.2911H144.621ZM143.182 63.3312L143.518 62.1272C143.611 61.7988 143.695 61.3694 143.779 61.0326H143.796C143.88 61.3694 143.981 61.7904 144.082 62.1272L144.436 63.3312H143.182Z" fill="white"/>
<path d="M150.916 61.6304H149.628V64.0805C149.628 64.1816 149.619 64.2826 149.586 64.3584C149.501 64.5604 149.299 64.8046 148.946 64.8046C148.5 64.8046 148.306 64.4426 148.306 63.8448V61.6304H147.018V64.0468C147.018 65.3182 147.632 65.8403 148.466 65.8403C149.207 65.8403 149.594 65.4193 149.754 65.1667H149.779L149.838 65.7477H150.95C150.933 65.4024 150.916 64.9646 150.916 64.4258V61.6304Z" fill="white"/>
<path d="M152.12 60.7379V61.6304H151.573V62.5734H152.12V64.2574C152.12 64.8384 152.238 65.2341 152.474 65.4783C152.676 65.6887 153.021 65.8319 153.434 65.8319C153.796 65.8319 154.099 65.7898 154.267 65.7224L154.259 64.7542C154.166 64.771 154.04 64.7878 153.88 64.7878C153.493 64.7878 153.375 64.5605 153.375 64.0637V62.5734H154.292V61.6304H153.375V60.4517L152.12 60.7379Z" fill="white"/>
<path d="M155.035 65.7476H156.315V63.3058C156.315 63.2132 156.323 63.1038 156.357 63.0195C156.45 62.7922 156.66 62.5733 156.997 62.5733C157.477 62.5733 157.662 62.9438 157.662 63.4827V65.7476H158.942V63.3395C158.942 62.1018 158.319 61.5377 157.502 61.5377C157.266 61.5377 157.022 61.5966 156.837 61.6976C156.635 61.8071 156.466 61.9418 156.332 62.1186H156.315V59.7695H155.035V65.7476Z" fill="white"/>
<path d="M161.93 61.5381C160.608 61.5381 159.733 62.3885 159.733 63.7188C159.733 65.0492 160.659 65.8406 161.863 65.8406C162.966 65.8406 164.035 65.1502 164.035 63.643C164.035 62.4053 163.193 61.5381 161.93 61.5381ZM161.897 62.4474C162.478 62.4474 162.713 63.0705 162.713 63.6852C162.713 64.4261 162.393 64.9229 161.897 64.9229C161.349 64.9229 161.055 64.3924 161.055 63.6852C161.055 63.0789 161.282 62.4474 161.897 62.4474Z" fill="white"/>
<path d="M164.828 65.748H166.108V63.6599C166.108 63.5589 166.116 63.4578 166.133 63.3736C166.217 62.9779 166.537 62.7252 167.009 62.7252C167.152 62.7252 167.261 62.7421 167.354 62.7589V61.5549C167.261 61.5381 167.202 61.5381 167.084 61.5381C166.689 61.5381 166.184 61.7906 165.973 62.3885H165.939L165.897 61.6307H164.794C164.811 61.9843 164.828 62.3801 164.828 62.9863V65.748Z" fill="white"/>
<path d="M169.306 65.7477V61.6304H168.027V65.7477H169.306ZM168.666 59.8369C168.254 59.8369 167.984 60.1148 167.993 60.4853C167.984 60.8389 168.254 61.1251 168.658 61.1251C169.079 61.1251 169.348 60.8389 169.348 60.4853C169.34 60.1148 169.079 59.8369 168.666 59.8369Z" fill="white"/>
<path d="M170.514 60.7379V61.6304H169.967V62.5734H170.514V64.2574C170.514 64.8384 170.632 65.2341 170.867 65.4783C171.07 65.6887 171.415 65.8319 171.827 65.8319C172.189 65.8319 172.493 65.7898 172.661 65.7224L172.652 64.7542C172.56 64.771 172.434 64.7878 172.274 64.7878C171.886 64.7878 171.768 64.5605 171.768 64.0637V62.5734H172.686V61.6304H171.768V60.4517L170.514 60.7379Z" fill="white"/>
<path d="M173.007 61.6304L174.514 65.394C174.564 65.4951 174.573 65.5624 174.573 65.6045C174.573 65.6634 174.548 65.7308 174.505 65.7898C174.379 66.0002 174.169 66.2023 173.975 66.3034C173.781 66.4212 173.579 66.497 173.419 66.5223L173.689 67.6084C174.009 67.5664 174.48 67.4316 174.926 67.0443C175.39 66.6318 175.785 65.975 176.375 64.3415L177.335 61.6304H175.962L175.457 63.6511C175.398 63.8868 175.331 64.1984 175.272 64.4173H175.246C175.196 64.1984 175.112 63.8953 175.044 63.6511L174.43 61.6304H173.007Z" fill="white"/>
<path fill-rule="evenodd" clip-rule="evenodd" d="M114.271 58.87C115.555 58.5778 119.066 59.0722 122.838 63.3866C125.497 66.4272 126.706 68.4633 127.173 69.613H126.383L126.192 69.1841C124.908 69.1954 121.922 68.5976 120.248 66.1168C119.837 65.5074 119.452 64.9083 119.079 64.3291C117.555 61.9614 116.245 59.9261 114.271 58.87ZM128.851 69.613C129.001 69.2146 129.422 68.6581 130.376 68.3078C130.734 68.1762 131.092 68.0731 131.451 67.9699C132.655 67.6234 133.863 67.2756 135.091 65.8472C135.406 65.481 135.707 65.0924 136.012 64.6981C137.251 63.0963 138.563 61.4 141.201 60.7238C139.308 60.2182 134.713 60.1171 131.472 63.7574C130.705 64.6294 129.059 66.9978 128.289 69.613H128.851Z" fill="white"/>
</g>
<defs>
<clipPath id="clip0_291_3317">
<rect width="73.8462" height="40" fill="white" transform="translate(113.077 30)"/>
</clipPath>
</defs>
</svg>
