<svg width="300" height="100" viewBox="0 0 300 100" fill="none" xmlns="http://www.w3.org/2000/svg">
<rect width="300" height="100" fill="white"/>
<g clip-path="url(#clip0_291_7482)">
<path d="M139.949 62.2571C140.48 61.5739 141.087 61.0821 141.933 61.0161C143.391 60.9042 144.574 61.8845 144.753 63.3531C144.972 65.1435 144.845 66.9394 144.842 68.7326C144.842 69.5623 144.301 70.0356 143.598 69.9942C142.978 69.9567 142.558 69.4185 142.555 68.6425C142.55 67.3216 142.567 66.0006 142.542 64.6797C142.524 63.7185 142.004 63.2625 141.065 63.3184C140.369 63.3598 139.912 63.9243 139.901 64.8151C139.885 66.1181 139.901 67.4217 139.892 68.7253C139.886 69.5299 139.34 70.0591 138.61 69.9948C138.086 69.9484 137.607 69.3889 137.6 68.6929C137.578 66.597 137.586 64.5012 137.6 62.4048C137.6 62.1502 137.691 61.885 137.788 61.6439C137.964 61.2052 138.324 61.0144 138.787 61.0061C139.251 60.9977 139.544 61.2578 139.739 61.6411C139.826 61.81 139.866 62.0042 139.949 62.2571Z" fill="#8ACEB6"/>
<path d="M148.266 69.9675C146.871 69.8763 145.952 68.8233 145.94 67.2819C145.931 66.0488 145.932 64.8157 145.943 63.5826C145.946 63.3028 145.901 63.1596 145.579 63.0751C145.126 62.9565 144.831 62.6275 144.84 62.1095C144.852 61.4839 145.075 61.1326 145.62 61.0224C145.909 60.9664 145.947 60.8282 145.941 60.5921C145.924 60.2577 145.927 59.9225 145.95 59.5884C146.006 59.011 146.442 58.6658 147.044 58.6848C147.632 58.7039 148.015 59.0921 148.066 59.6673C148.104 60.0947 147.853 60.6402 148.21 60.9194C148.516 61.1583 149.035 61.0313 149.447 60.981C150.371 60.8691 150.962 61.8325 150.516 62.6096C150.335 62.9252 150.085 63.1132 149.715 63.1188C149.292 63.1244 148.869 63.1333 148.447 63.1249C148.179 63.1193 148.055 63.2279 148.064 63.4975C148.103 64.7989 147.988 66.102 148.13 67.4028C148.163 67.6993 148.272 67.8084 148.555 67.7944C148.838 67.7804 149.115 67.7776 149.395 67.7687C150.073 67.7469 150.658 68.2241 150.681 68.8166C150.701 69.3543 150.205 69.8136 149.526 69.8874C149.109 70.0173 148.678 69.8712 148.266 69.9675Z" fill="#8ACEB6"/>
<path d="M162.413 64.3922C162.413 65.8704 162.413 67.3487 162.413 68.8273C162.413 69.5149 162.068 69.9295 161.456 69.9865C160.844 70.0436 160.397 69.6961 160.267 69.0533C160.233 68.8637 160.217 68.6713 160.22 68.4787C160.217 65.7152 160.217 62.9523 160.22 60.1899C160.22 59.9795 160.22 59.7725 160.281 59.5633C160.464 58.9478 160.907 58.6211 161.486 58.6955C162.05 58.7677 162.414 59.2164 162.415 59.852C162.416 61.3656 162.415 62.879 162.413 64.3922Z" fill="#8ACEB6"/>
<path d="M159.25 64.8056C159.177 63.5126 158.646 62.4468 157.672 61.5947C156.713 60.7555 155.553 60.6911 154.386 60.8176C152.969 60.9714 151.885 61.7038 151.225 62.9889C150.528 64.3435 150.515 65.769 150.951 67.1851C151.414 68.6873 152.853 69.8108 154.268 69.8885C154.725 69.9673 155.193 69.9658 155.65 69.8841C156.004 69.7901 156.203 69.5551 156.29 69.2037C156.476 68.4495 155.935 67.8375 154.97 67.8011C154.234 67.7737 153.665 67.4811 153.209 66.9255C153.18 66.7051 153.355 66.7437 153.475 66.7157C154.998 66.7107 156.522 66.7157 158.045 66.7157C159.298 66.7157 159.298 66.7157 159.298 65.4848C159.276 65.2593 159.348 65.0266 159.25 64.8056ZM156.694 64.6937C156.115 64.6859 155.536 64.6937 154.96 64.6937C154.433 64.6937 153.905 64.6646 153.381 64.7027C152.892 64.7379 152.908 64.5303 153.05 64.1863C153.461 63.1876 154.316 62.8905 155.371 62.9459C156.229 62.9912 156.714 63.5149 156.962 64.3194C157.049 64.6154 156.984 64.6965 156.694 64.6926V64.6937Z" fill="#89CEB6"/>
<path d="M154.218 39.1561C153.547 38.3527 152.739 37.7221 151.676 37.594C150.929 37.5039 150.166 37.5688 149.407 37.5459C148.235 37.5101 147.195 37.1543 146.412 36.2311C145.938 35.6716 145.576 35.0562 145.559 34.293C145.485 33.9757 145.484 33.6458 145.555 33.3279C145.599 31.8005 146.96 30.2312 148.657 30.103C150.407 29.971 152.199 29.8792 153.92 30.3951C158.364 31.7255 161.109 34.6586 162.155 39.1941C162.336 39.9864 162.372 40.7887 162.369 41.5999C162.354 45.156 162.357 48.7127 162.353 52.2688C162.276 52.7858 162.328 53.3055 162.323 53.8242C162.431 55.6526 160.762 57.486 158.925 57.5493C158.663 57.5582 158.4 57.5386 158.138 57.5325C157.344 57.2952 156.571 57.0452 155.977 56.3989C155.325 55.6901 154.974 54.8827 154.97 53.9288C154.965 49.8132 154.97 45.6971 154.965 41.5809C154.967 40.7014 154.751 39.8767 154.218 39.1561Z" fill="#89CEB6"/>
<path d="M145.03 33.7912C145.03 31.7605 143.383 30.1143 141.353 30.1143C139.322 30.1143 137.676 31.7605 137.676 33.7912V45.8129C137.676 47.8436 139.322 49.4899 141.353 49.4899C143.383 49.4899 145.03 47.8436 145.03 45.8129V33.7912Z" fill="#E6077D"/>
<path d="M141.353 57.4371C143.408 57.4371 145.074 55.7708 145.074 53.7154C145.074 51.6599 143.408 49.9937 141.353 49.9937C139.297 49.9937 137.631 51.6599 137.631 53.7154C137.631 55.7708 139.297 57.4371 141.353 57.4371Z" fill="#D2DD24"/>
</g>
<defs>
<clipPath id="clip0_291_7482">
<rect width="24.8276" height="40" fill="white" transform="translate(137.586 30)"/>
</clipPath>
</defs>
</svg>
