<svg width="300" height="100" viewBox="0 0 300 100" fill="none" xmlns="http://www.w3.org/2000/svg">
<rect width="300" height="100" fill="white"/>
<g clip-path="url(#clip0_291_8204)">
<path d="M145.284 58.97C150.536 58.97 153.489 55.1212 153.489 50.2913C153.489 45.4613 150.54 41.6362 145.284 41.6362V45.3571C148.08 45.3571 149.137 47.836 149.137 50.2913C149.137 52.7703 148.076 55.2255 145.284 55.2255V58.97ZM137.055 50.2913C137.055 55.1212 140.032 58.9748 145.284 58.9748V55.2255C142.464 55.2255 141.402 52.7703 141.402 50.2913C141.402 47.836 142.464 45.3571 145.284 45.3571V41.6362C140.032 41.6362 137.055 45.4566 137.055 50.2913ZM160.499 53.4907C161.248 53.339 162.077 53.2348 162.542 52.9504C162.618 55.2729 162.077 56.3631 160.499 56.4911V58.7141C161.3 58.4818 162.025 58.0695 162.622 57.4722C162.651 57.8609 162.698 58.2496 162.855 58.6098H166.841C166.376 57.6523 166.376 56.5432 166.376 55.5099V50.2107C166.376 46.8027 163.585 46.1534 160.736 46.1534C160.66 46.1534 160.579 46.1534 160.504 46.1818V48.7413H160.684C161.485 48.7413 162.599 49.0779 162.599 49.9785C162.599 50.7274 162.21 50.9596 161.537 51.116C161.2 51.1682 160.864 51.2203 160.504 51.2724L160.499 53.4907ZM158.456 55.1449C158.456 54.1875 159.205 53.7988 160.086 53.595C160.219 53.5666 160.371 53.5429 160.504 53.4907V51.2677C157.84 51.6564 154.498 51.8365 154.498 55.2966C154.498 57.804 156.309 58.9653 158.612 58.9653C159.262 58.9653 159.883 58.8847 160.504 58.7046V56.4816C160.376 56.51 160.243 56.51 160.115 56.51C159.233 56.5148 158.456 56.1261 158.456 55.1449ZM160.499 46.1818V48.7413C159.489 48.7935 158.868 49.2817 158.688 50.2391H154.991C155.043 48.6608 155.792 47.6275 156.878 47.0065C157.887 46.4425 159.205 46.1818 160.499 46.1818ZM168.599 58.6098H172.586V52.0213C172.586 50.68 173.23 49.4381 174.733 49.4381C176.88 49.4381 176.7 51.116 176.7 52.7703V58.6098H180.686V50.8553C180.686 49.0968 180.35 46.1534 176.311 46.1534C174.861 46.1534 173.23 46.9307 172.51 48.1678H172.458V46.5136H168.604L168.599 58.6098ZM188.73 49.2058C190.436 49.2058 191.085 50.8079 191.085 52.5664C191.085 54.0927 190.645 55.927 188.73 55.927H188.678V58.8658C189.659 58.6572 190.488 58.0884 191.085 57.2115H191.114V58.6051H194.915V41.6362H190.953L190.924 47.836H190.872C190.303 47.0587 189.578 46.542 188.673 46.3098V49.2011L188.73 49.2058ZM188.678 55.9223C186.891 55.8986 186.298 54.0879 186.298 52.4337C186.298 50.9075 186.895 49.2295 188.678 49.2058V46.3145C188.27 46.2102 187.853 46.1581 187.436 46.1581C183.995 46.1581 182.312 49.1537 182.312 52.3057C182.312 55.69 183.942 58.97 187.744 58.97C188.052 58.97 188.388 58.9179 188.673 58.8658L188.678 55.9223ZM202.855 49.2058C204.694 49.2058 205.262 51.0402 205.262 52.5901C205.262 54.1164 204.694 55.9223 202.855 55.9223V58.97C206.609 58.9416 209.249 56.2067 209.249 52.5854C209.249 48.9404 206.609 46.1771 202.859 46.1534L202.855 49.2058ZM200.451 52.5901C200.451 51.0402 200.997 49.2058 202.859 49.2058V46.1581C199.105 46.1581 196.494 48.9499 196.494 52.5901C196.494 56.2067 199.105 58.9748 202.859 58.9748V55.927C200.992 55.9223 200.451 54.1116 200.451 52.5901Z" fill="#371071"/>
<path d="M109.052 30C120.57 30 127.353 37.4796 127.353 49.9645C127.353 62.5204 120.57 70 109.052 70C97.534 70 90.7512 62.5204 90.7512 49.9645C90.7512 37.4796 97.534 30 109.052 30Z" fill="#F5D400"/>
<path d="M109.052 67.7438C99.2309 67.7438 95.2731 59.1361 95.2731 49.9644C95.2731 40.7927 99.2309 32.1851 109.052 32.1851C118.873 32.1851 122.831 40.7927 122.831 49.9644C122.831 59.1361 118.873 67.7438 109.052 67.7438Z" fill="#F2B300"/>
<path d="M116.47 42.5558C121.347 47.4237 123.959 54.197 118.589 59.5578C113.218 64.8523 106.436 62.2406 101.634 57.4438C96.7567 52.576 94.145 45.8026 99.5153 40.4418C104.81 35.081 111.668 37.6879 116.47 42.5558Z" fill="#E86E18"/>
<path d="M103.824 44.817C107.355 41.2905 112.09 39.5983 115.764 43.2623C119.508 46.931 117.74 51.6566 114.28 55.1831C110.749 58.6385 106.014 60.4017 102.34 56.7378C98.5958 52.998 100.359 48.2723 103.824 44.817Z" fill="#D30021"/>
<path d="M109.052 54.7612C106.014 54.7612 102.975 53.4198 102.975 49.9644C102.975 46.5802 106.014 45.2388 109.052 45.2388C112.09 45.2388 115.129 46.5802 115.129 49.9644C115.129 53.4246 112.09 54.7612 109.052 54.7612Z" fill="#371071"/>
</g>
<defs>
<clipPath id="clip0_291_8204">
<rect width="118.497" height="40" fill="white" transform="translate(90.7512 30)"/>
</clipPath>
</defs>
</svg>
