<svg width="300" height="100" viewBox="0 0 300 100" fill="none" xmlns="http://www.w3.org/2000/svg">
<rect width="300" height="100" fill="white"/>
<g clip-path="url(#clip0_298_10503)">
<mask id="mask0_298_10503" style="mask-type:luminance" maskUnits="userSpaceOnUse" x="94" y="30" width="113" height="40">
<path d="M206.172 30H94.1719V70H206.172V30Z" fill="white"/>
</mask>
<g mask="url(#mask0_298_10503)">
<path d="M119.904 54.7369C121.831 52.0648 122.915 48.8664 122.915 45.5465C122.915 45.4251 122.915 45.3037 122.915 45.1822C122.794 41.0931 121.148 37.2874 118.258 34.413C115.368 31.5789 111.554 30 107.499 30C103.766 30 100.193 31.3765 97.3833 33.8462C96.7812 34.3725 96.7411 35.3036 97.3031 35.8705L99.7117 38.2996L95.9382 42.1053C95.4163 42.6316 95.4163 43.5223 95.9382 44.0486L97.1826 45.3036C95.2156 47.9352 94.1719 51.1741 94.1719 54.4939C94.1719 58.583 95.7375 62.4291 98.5475 65.3442C101.358 68.2591 105.171 69.919 109.186 70C109.306 70 109.426 70 109.587 70C113.32 70 116.893 68.6235 119.703 66.1539C120.305 65.6276 120.345 64.6964 119.783 64.1296L117.375 61.7004L121.148 57.8948C121.67 57.3684 121.67 56.4778 121.148 55.9514L119.904 54.7369ZM114.444 62.7126L116.732 65.0202C114.645 66.4777 112.156 67.2469 109.587 67.2469C109.507 67.2469 109.386 67.2469 109.266 67.2469C105.934 67.166 102.843 65.7894 100.515 63.4008C98.1862 61.0121 96.9016 57.8137 96.9016 54.4534C96.9016 51.8623 97.6644 49.3522 99.1095 47.247L109.667 57.8948L110.952 59.1903L111.674 59.9191L113.601 57.9757L112.879 57.247L98.9489 43.1579L98.8686 43.0769L102.642 39.2712C103.164 38.7449 103.164 37.8542 102.642 37.328L100.354 35.0202C102.441 33.5628 104.93 32.7935 107.499 32.7935C110.831 32.7935 113.963 34.0891 116.371 36.4373C118.74 38.7854 120.105 41.9029 120.185 45.2632C120.185 45.3442 120.185 45.4656 120.185 45.5465C120.185 48.1376 119.422 50.6478 117.977 52.753L112.236 47.004L106.094 40.8097L105.372 40.0809L103.405 42.0243L111.474 50.1619L118.218 56.9636L114.444 60.7693C113.922 61.2956 113.922 62.1458 114.444 62.7126Z" fill="#009E74"/>
<path d="M134.074 50.0403C134.074 42.7934 138.651 37.9756 145.515 37.9756C152.38 37.9756 156.956 42.7934 156.956 50.0403C156.956 57.2873 152.38 62.1051 145.515 62.1051C138.651 62.1051 134.074 57.2468 134.074 50.0403ZM151.697 50.0403C151.697 45.3845 149.208 42.3076 145.515 42.3076C141.822 42.3076 139.333 45.3845 139.333 50.0403C139.333 54.6962 141.822 57.7731 145.515 57.7731C149.208 57.7731 151.697 54.6557 151.697 50.0403Z" fill="#222C3B"/>
<path d="M177.068 61.741H171.528L165.707 55.0609L164.423 56.3969V61.741H159.525V38.2593H164.382V44.5346C164.382 49.5953 164.302 50.486 164.302 50.486H164.382L170.002 44.5346H175.984L168.597 52.1054L177.068 61.741Z" fill="#222C3B"/>
<path d="M189.472 44.5345V49.4738H189.352C189.352 49.4738 189.031 49.3523 187.947 49.3523C185.056 49.3523 183.049 51.1337 183.049 54.7774V61.741H178.152V44.5345H183.009V47.7329H183.089C183.812 46.073 185.699 44.3726 188.509 44.3726C188.95 44.413 189.191 44.413 189.472 44.5345Z" fill="#222C3B"/>
<path d="M205.65 58.2591V50.8906C205.65 46.8825 202.881 44.251 197.983 44.251C193.487 44.251 190.436 46.8016 190.436 50.2024H195.334C195.334 48.7449 196.297 47.7732 198.103 47.7732C199.789 47.7732 200.793 48.7449 200.793 51.174L197.742 51.3765C193.045 51.7408 189.954 53.1174 189.954 56.9635C189.954 59.2307 191.239 60.9311 193.286 61.6599C194.009 61.9028 194.772 62.0647 195.655 62.0647C196.538 62.0647 197.461 61.9433 198.304 61.6599C199.468 61.255 200.472 60.5668 201.114 59.4736H201.195C201.195 60.3238 201.435 61.255 201.636 61.6599H206.172V61.4574C205.771 60.9716 205.65 60.8502 205.65 58.2591ZM200.793 54.6558C200.793 57.004 199.428 58.5425 197.381 58.5425C195.976 58.5425 195.053 57.7327 195.053 56.5587C195.053 55.3846 196.016 54.6963 197.662 54.5344L200.793 54.251V54.6558Z" fill="#222C3B"/>
</g>
</g>
<defs>
<clipPath id="clip0_298_10503">
<rect width="112" height="40" fill="white" transform="translate(94.1719 30)"/>
</clipPath>
</defs>
</svg>
