<svg width="300" height="100" viewBox="0 0 300 100" fill="none" xmlns="http://www.w3.org/2000/svg">
<rect width="300" height="100" fill="white"/>
<g clip-path="url(#clip0_311_303)">
<path d="M63.9797 52.2978C66.2677 47.6864 61.0471 40.1344 52.1907 35.312C43.2251 30.4277 33.9242 30.1911 31.4178 34.7842C30.2083 37.0007 30.8021 39.9378 32.7512 42.9332L32.7585 42.9441C33.447 44.0068 34.3104 45.0732 35.3232 46.1214C35.3451 46.1469 35.3706 46.1687 35.3924 46.1942C37.4253 48.2833 40.0519 50.2742 43.1158 51.9448C48.9557 55.1256 54.9413 56.334 59.0943 55.5224C59.1199 55.5188 59.1417 55.5114 59.1673 55.5078C58.5989 56.112 57.6481 56.5706 56.4093 56.8654C56.1325 56.9346 55.8411 56.9928 55.5351 57.0438C52.8319 57.4914 49.0941 57.2984 45.1013 56.3632C42.2414 55.6934 39.6658 54.7398 37.6183 53.6662C35.7567 52.6872 34.3286 51.6098 33.5199 50.5472C32.9115 49.7464 32.6528 48.9566 32.824 48.2324C32.9406 47.7265 33.2576 47.2861 33.7457 46.9149C32.6965 45.8412 31.8914 44.8585 31.1664 43.7703C29.6946 44.7202 28.7037 45.9504 28.3612 47.4135C27.9787 49.0476 28.4487 50.78 29.5963 52.4506C30.0589 53.1276 30.6309 53.7936 31.3012 54.4378C31.6364 54.7618 31.9971 55.082 32.3796 55.3914C33.0572 55.9446 33.8077 56.4796 34.6201 56.9854C37.2395 58.6196 40.5255 59.9844 44.2014 60.847C49.7317 62.1392 54.9777 62.0226 58.7519 60.7852C58.8939 60.7378 59.0325 60.6906 59.1709 60.6396C57.6153 62.8306 52.1761 64.3848 45.7352 64.29C39.3488 64.1918 35.1046 62.2628 32.4561 60.2974C31.7675 59.7844 31.1081 59.242 30.2593 59.3948C28.6236 59.697 27.8949 61.6478 28.9551 62.9288C31.7566 66.3174 38.2377 68.7522 45.8226 68.865C56.0341 69.0178 64.3769 64.9016 64.4533 59.6678C64.4643 58.8052 64.2529 57.9646 63.8413 57.1638C64.0781 56.7452 64.2529 56.3012 64.3659 55.8354C64.6355 54.6816 64.4825 53.4842 63.9651 52.2904L63.9797 52.2978ZM58.0197 51.1512C57.5497 51.275 57.0033 51.3406 56.3985 51.3478C53.5641 51.3842 49.4037 50.1614 45.1741 47.8575C44.1176 47.2824 43.1194 46.6746 42.1941 46.045C41.9682 45.8921 41.746 45.7393 41.531 45.5828C43.0611 45.601 44.6969 45.732 46.3873 45.9831C48.5585 46.307 50.4821 46.7911 52.1761 47.3807C53.9721 48.0104 55.3273 48.6436 56.6097 49.4553C56.8685 49.619 57.1963 49.7937 57.5315 49.7974C57.9467 49.7974 58.1253 49.5972 58.2127 49.3606C58.3439 49.0076 58.2783 48.3306 57.7465 47.4826C56.6461 45.7211 53.6443 43.4209 47.1669 41.9578C42.8899 40.9933 39.0355 41.2481 37.1739 41.6957C35.5308 39.7558 34.8496 37.9652 35.509 36.7605C36.8642 34.2783 43.389 35.221 50.0849 38.8678C56.0743 42.1288 60.1691 46.449 59.9979 49.0986C59.9797 49.3825 59.9105 49.6482 59.7901 49.892C59.7793 49.9175 59.7647 49.9393 59.7537 49.9648C59.4369 50.5434 58.8393 50.9366 58.0233 51.1512H58.0197Z" fill="#481305"/>
<path d="M103.055 41.2415C100.985 39.9567 98.6138 39.3125 95.9398 39.3125C93.2658 39.3125 90.8576 39.9458 88.8248 41.216C86.792 42.4862 85.2328 44.2223 84.147 46.4205C83.0614 48.6225 82.5186 51.0756 82.5186 53.7834C82.5186 56.4912 83.0614 58.9552 84.147 61.1716C85.2328 63.3882 86.781 65.1424 88.7992 66.4272C90.814 67.712 93.1966 68.3562 95.9434 68.3562C98.6902 68.3562 101.026 67.712 103.058 66.4272C105.091 65.1424 106.658 63.3954 107.758 61.1972C108.858 58.9988 109.408 56.5276 109.408 53.7834C109.408 51.0392 108.865 48.6298 107.783 46.446C106.698 44.2623 105.124 42.5262 103.058 41.2415H103.055ZM102.038 58.937C101.495 60.4438 100.698 61.6194 99.6483 62.4674C98.5956 63.3154 97.3606 63.7376 95.9362 63.7376C94.5116 63.7376 93.284 63.3154 92.2494 62.4674C91.2146 61.623 90.435 60.4546 89.9104 58.9624C89.3858 57.4738 89.1236 55.745 89.1236 53.7834C89.1236 51.8216 89.3858 50.1948 89.9104 48.7062C90.435 47.2176 91.2146 46.0493 92.2494 45.2013C93.284 44.3569 94.5116 43.9311 95.9362 43.9311C97.3606 43.9311 98.5882 44.3533 99.6192 45.2013C100.654 46.0493 101.448 47.214 102.009 48.7062C102.567 50.1948 102.847 51.8872 102.847 53.7834C102.847 55.6796 102.574 57.4338 102.035 58.937H102.038Z" fill="#481305"/>
<path d="M137.364 48.8591C137.364 47.032 137.044 45.3978 136.399 43.9602C135.754 42.5226 134.781 41.387 133.477 40.5572C132.173 39.7274 130.537 39.3125 128.574 39.3125C127.149 39.3125 125.787 39.651 124.482 40.3279C123.178 41.0049 122.016 41.9366 121 43.1231C119.983 44.3096 119.171 45.6453 118.559 47.1339V40.0259H112.409V67.65H118.559V55.1592C118.559 53.0954 118.938 51.2212 119.703 49.5469C120.464 47.8727 121.466 46.5698 122.701 45.638C123.94 44.7063 125.233 44.2405 126.592 44.2405C128.118 44.2405 129.259 44.7063 130.024 45.638C130.785 46.5698 131.168 47.9674 131.168 49.8272V67.65H137.674C137.47 65.652 137.368 63.4536 137.368 61.048V48.8591H137.364Z" fill="#481305"/>
<path d="M162.704 41.1118C160.926 39.9107 158.849 39.3066 156.478 39.3066C154.649 39.3066 152.969 39.8416 151.447 40.908C149.92 41.9744 148.703 43.4047 147.785 45.199V31.3359H141.636V67.6442H147.785V62.618C148.7 64.3794 149.92 65.777 151.447 66.807C152.973 67.8406 154.631 68.3574 156.427 68.3574C158.766 68.3574 160.839 67.7496 162.653 66.5304C164.467 65.3112 165.873 63.6006 166.871 61.4022C167.87 59.204 168.369 56.6782 168.369 53.8356C168.369 50.9932 167.87 48.42 166.871 46.2181C165.873 44.0161 164.482 42.3165 162.704 41.1154V41.1118ZM160.926 58.7818C160.332 60.2194 159.509 61.3368 158.46 62.1338C157.407 62.931 156.205 63.3276 154.849 63.3276C153.494 63.3276 152.383 62.9636 151.315 62.2358C150.248 61.5078 149.392 60.5178 148.751 59.2658C148.106 58.0138 147.785 56.6236 147.785 55.1022V52.7146C147.785 51.2262 148.099 49.8358 148.725 48.551C149.352 47.2663 150.201 46.2399 151.268 45.4792C152.336 44.7186 153.53 44.3364 154.853 44.3364C156.175 44.3364 157.41 44.7259 158.463 45.5047C159.512 46.2836 160.336 47.3937 160.93 48.8313C161.523 50.269 161.819 51.9394 161.819 53.832C161.819 55.7246 161.52 57.3442 160.93 58.7854L160.926 58.7818Z" fill="#481305"/>
<path d="M190.531 41.2415C188.462 39.9567 186.09 39.3125 183.416 39.3125C180.742 39.3125 178.334 39.9458 176.301 41.216C174.269 42.4862 172.709 44.2223 171.624 46.4205C170.538 48.6225 169.995 51.0756 169.995 53.7834C169.995 56.4912 170.538 58.9552 171.624 61.1716C172.709 63.3882 174.258 65.1424 176.276 66.4272C178.29 67.712 180.673 68.3562 183.42 68.3562C186.167 68.3562 188.502 67.712 190.535 66.4272C192.568 65.1424 194.134 63.3954 195.235 61.1972C196.335 58.9988 196.885 56.5276 196.885 53.7834C196.885 51.0392 196.342 48.6298 195.26 46.446C194.174 44.2623 192.601 42.5262 190.535 41.2415H190.531ZM189.515 58.937C188.972 60.4438 188.174 61.6194 187.125 62.4674C186.072 63.3154 184.837 63.7376 183.413 63.7376C181.988 63.7376 180.761 63.3154 179.726 62.4674C178.691 61.623 177.912 60.4546 177.387 58.9624C176.862 57.4738 176.6 55.745 176.6 53.7834C176.6 51.8216 176.862 50.1948 177.387 48.7062C177.912 47.2176 178.691 46.0493 179.726 45.2013C180.761 44.3569 181.988 43.9311 183.413 43.9311C184.837 43.9311 186.065 44.3533 187.096 45.2013C188.13 46.0493 188.925 47.214 189.486 48.7062C190.043 50.1948 190.324 51.8872 190.324 53.7834C190.324 55.6796 190.05 57.4338 189.511 58.937H189.515Z" fill="#481305"/>
<path d="M223.522 64.0864C223.081 64.0864 222.742 63.9664 222.505 63.7298C222.269 63.4932 222.13 63.0856 222.097 62.5104V49.157C222.097 47.1261 221.748 45.3827 221.055 43.9269C220.36 42.4711 219.252 41.3356 217.726 40.5239C216.199 39.7123 214.25 39.3047 211.878 39.3047C209.201 39.3047 206.683 39.9125 204.33 41.1317C201.976 42.351 199.951 44.1453 198.257 46.5146L202.68 49.9176C203.696 47.9559 204.949 46.4564 206.443 45.4228C207.933 44.3891 209.543 43.8723 211.274 43.8723C212.833 43.8723 213.991 44.3637 214.756 45.3463C215.518 46.329 215.9 47.6829 215.9 49.4081V49.6083C212.363 49.9395 209.314 50.551 206.8 51.4644C204.057 52.4616 201.962 53.7574 200.523 55.3478C199.084 56.9384 198.363 58.8018 198.363 60.9346C198.363 63.0674 199.098 64.9636 200.574 66.3174C202.049 67.6714 204.024 68.3484 206.498 68.3484C208.804 68.3484 210.76 67.7406 212.367 66.5212C213.915 65.3458 215.088 63.8098 215.9 61.9318V62.3066C215.9 64.272 216.392 65.7678 217.376 66.8016C218.356 67.8352 219.696 68.352 221.391 68.352C221.999 68.352 222.585 68.2938 223.143 68.1736C223.7 68.0536 224.236 67.8788 224.742 67.6422L225.504 63.5806C225.096 63.7516 224.749 63.879 224.462 63.9626C224.174 64.0464 223.861 64.09 223.522 64.09V64.0864ZM214.833 59.4168C214.123 60.7052 213.197 61.677 212.061 62.3358C210.924 62.9946 209.696 63.3258 208.377 63.3258C207.259 63.3258 206.385 63.0382 205.758 62.4632C205.131 61.8882 204.818 61.0766 204.818 60.0246C204.818 58.74 205.317 57.6626 206.315 56.8C207.314 55.9374 208.705 55.2678 210.483 54.7946C212.024 54.3834 213.838 54.0812 215.897 53.8738V54.9474C215.897 56.6398 215.54 58.1284 214.829 59.4168H214.833Z" fill="#481305"/>
<path d="M243.243 39.6868C242.635 39.4321 241.939 39.3047 241.159 39.3047C239.735 39.3047 238.355 39.9744 237.017 41.3101C235.681 42.6458 234.569 44.4146 233.687 46.6166V40.0144H227.487V67.6386H233.943C233.771 66.0118 233.687 64.05 233.687 61.7462V54.0266C233.687 52.2688 233.969 50.7002 234.525 49.328C235.083 47.9559 235.797 46.915 236.661 46.2053C237.525 45.4956 238.399 45.1389 239.281 45.1389C239.921 45.1389 240.483 45.2335 240.955 45.4191C241.429 45.6048 241.955 45.9687 242.533 46.511L245.025 40.9243C244.449 40.3492 243.855 39.9343 243.247 39.6796L243.243 39.6868Z" fill="#481305"/>
<path d="M270.949 67.6442C270.745 65.646 270.643 63.4478 270.643 61.042V31.3359H264.493V45.0461C263.579 43.2846 262.357 41.8906 260.831 40.857C259.305 39.8234 257.643 39.3066 255.851 39.3066C253.513 39.3066 251.435 39.9144 249.625 41.1336C247.811 42.3529 246.405 44.0635 245.407 46.2618C244.409 48.4637 243.909 50.9858 243.909 53.8284C243.909 56.6708 244.401 59.244 245.385 61.446C246.369 63.648 247.757 65.3476 249.553 66.5486C251.349 67.7496 253.433 68.3502 255.803 68.3502C257.633 68.3502 259.313 67.8152 260.835 66.7488C262.361 65.6824 263.579 64.252 264.497 62.4578V67.6368H270.951L270.949 67.6442ZM263.553 59.113C262.927 60.4014 262.077 61.4242 261.009 62.1848C259.943 62.9454 258.765 63.3276 257.477 63.3276C256.085 63.3276 254.865 62.9382 253.815 62.1594C252.765 61.3804 251.943 60.2704 251.349 58.8328C250.755 57.3952 250.459 55.7282 250.459 53.832C250.459 51.9358 250.755 50.3198 251.349 48.8822C251.943 47.4446 252.765 46.3273 253.815 45.5302C254.865 44.7331 256.085 44.3364 257.477 44.3364C258.729 44.3364 259.891 44.7004 260.959 45.4283C262.027 46.1562 262.883 47.1462 263.527 48.3982C264.169 49.6502 264.493 51.0404 264.493 52.5618V54.9494C264.493 56.438 264.179 57.8282 263.553 59.113Z" fill="#481305"/>
</g>
<defs>
<clipPath id="clip0_311_303">
<rect width="244" height="40" fill="white" transform="translate(26.9531 30)"/>
</clipPath>
</defs>
</svg>
