<svg width="300" height="100" viewBox="0 0 300 100" fill="none" xmlns="http://www.w3.org/2000/svg">
<rect width="300" height="100" fill="white"/>
<path d="M112.163 61.132C110.078 61.132 108.278 60.6783 106.763 59.7712C105.257 58.8639 104.094 57.5947 103.273 55.9636C102.463 54.3325 102.057 52.4359 102.057 50.274C102.057 48.1121 102.463 46.2156 103.273 44.5844C104.094 42.9533 105.257 41.6841 106.763 40.7769C108.278 39.8696 110.078 39.416 112.163 39.416C114.247 39.416 116.042 39.8696 117.548 40.7769C119.063 41.6841 120.226 42.9533 121.037 44.5844C121.858 46.2156 122.268 48.1121 122.268 50.274C122.268 52.4359 121.858 54.3325 121.037 55.9636C120.226 57.5947 119.063 58.8639 117.548 59.7712C116.042 60.6783 114.247 61.132 112.163 61.132ZM112.163 57.4258C113.485 57.4451 114.585 57.1604 115.463 56.5716C116.342 55.9829 116.998 55.148 117.432 54.0671C117.876 52.9861 118.098 51.7218 118.098 50.274C118.098 48.8262 117.876 47.5716 117.432 46.5099C116.998 45.4482 116.342 44.623 115.463 44.0342C114.585 43.4455 113.485 43.1415 112.163 43.1222C110.84 43.1029 109.74 43.3876 108.862 43.9764C107.983 44.5651 107.322 45.4 106.878 46.4809C106.444 47.562 106.227 48.8262 106.227 50.274C106.227 51.7218 106.444 52.9765 106.878 54.0382C107.322 55.0998 107.983 55.925 108.862 56.5138C109.74 57.1025 110.84 57.4065 112.163 57.4258ZM135.813 60.6977V53.3142C135.813 52.9571 135.794 52.5036 135.755 51.9534C135.717 51.3936 135.596 50.8338 135.393 50.274C135.191 49.7142 134.858 49.2462 134.394 48.8697C133.941 48.4933 133.294 48.3051 132.454 48.3051C132.117 48.3051 131.755 48.3582 131.369 48.4644C130.982 48.5705 130.621 48.7781 130.283 49.0869C129.945 49.3861 129.665 49.8301 129.443 50.4188C129.231 51.0076 129.125 51.7893 129.125 52.7641L126.866 51.6928C126.866 50.4574 127.117 49.2992 127.619 48.2182C128.121 47.1372 128.874 46.2638 129.877 45.5979C130.891 44.9318 132.165 44.5989 133.699 44.5989C134.925 44.5989 135.924 44.8064 136.696 45.2214C137.468 45.6365 138.067 46.1624 138.491 46.7995C138.926 47.4365 139.235 48.1024 139.418 48.7973C139.601 49.4826 139.712 50.11 139.751 50.6794C139.79 51.2489 139.809 51.6638 139.809 51.9244V60.6977H135.813ZM125.129 60.6977V45.0622H128.632V50.245H129.125V60.6977H125.129ZM150.55 61.132C148.948 61.132 147.534 60.7894 146.309 60.1041C145.092 59.4092 144.137 58.4585 143.442 57.2521C142.757 56.036 142.414 54.6462 142.414 53.0826C142.414 51.3742 142.752 49.8879 143.428 48.6236C144.103 47.3593 145.034 46.3796 146.222 45.6847C147.409 44.9801 148.774 44.6278 150.319 44.6278C151.96 44.6278 153.354 45.0139 154.503 45.7861C155.652 46.5582 156.501 47.6439 157.051 49.0435C157.6 50.4429 157.794 52.0885 157.63 53.9802H153.735V52.5325C153.735 50.9399 153.48 49.7963 152.968 49.1013C152.466 48.3968 151.641 48.0445 150.493 48.0445C149.151 48.0445 148.162 48.4547 147.525 49.2751C146.897 50.0858 146.584 51.2875 146.584 52.8799C146.584 54.3373 146.897 55.4665 147.525 56.2676C148.162 57.0591 149.093 57.4548 150.319 57.4548C151.091 57.4548 151.752 57.2859 152.302 56.948C152.853 56.6103 153.272 56.1229 153.561 55.4859L157.499 56.6151C156.911 58.0436 155.979 59.1534 154.706 59.9449C153.441 60.7363 152.056 61.132 150.55 61.132ZM145.368 53.9802V51.0558H155.733V53.9802H145.368ZM160.899 60.6977V39.8503H169.701C169.904 39.8503 170.173 39.86 170.512 39.8793C170.859 39.8889 171.168 39.9179 171.439 39.9662C172.683 40.1592 173.702 40.5694 174.493 41.1968C175.294 41.8241 175.882 42.6155 176.259 43.571C176.636 44.5169 176.824 45.5737 176.824 46.7415C176.824 48.4885 176.389 49.9845 175.52 51.2295C174.653 52.4649 173.292 53.2274 171.439 53.5169L169.701 53.6328H164.837V60.6977H160.899ZM172.654 60.6977L168.543 52.214L172.597 51.4322L177.113 60.6977H172.654ZM164.837 49.9556H169.527C169.73 49.9556 169.952 49.9459 170.193 49.9265C170.435 49.9073 170.656 49.8687 170.859 49.8107C171.39 49.666 171.8 49.4247 172.09 49.0869C172.379 48.7395 172.577 48.3582 172.683 47.9432C172.8 47.5185 172.857 47.118 172.857 46.7415C172.857 46.3651 172.8 45.9694 172.683 45.5544C172.577 45.1297 172.379 44.7485 172.09 44.4107C171.8 44.0633 171.39 43.8171 170.859 43.6724C170.656 43.6144 170.435 43.5758 170.193 43.5566C169.952 43.5372 169.73 43.5276 169.527 43.5276H164.837V49.9556ZM187.332 61.132C185.759 61.132 184.379 60.7797 183.191 60.0752C182.004 59.3706 181.078 58.4006 180.412 57.1652C179.756 55.9202 179.427 54.4917 179.427 52.8799C179.427 51.2489 179.765 49.8156 180.44 48.5802C181.117 47.3351 182.048 46.3651 183.235 45.6702C184.422 44.9753 185.787 44.6278 187.332 44.6278C188.906 44.6278 190.285 44.9801 191.473 45.6847C192.669 46.3892 193.6 47.3641 194.266 48.6091C194.933 49.8445 195.266 51.2681 195.266 52.8799C195.266 54.5014 194.928 55.9346 194.253 57.1797C193.586 58.4151 192.655 59.385 191.458 60.0896C190.271 60.7846 188.895 61.132 187.332 61.132ZM187.332 57.4548C188.597 57.4548 189.537 57.0301 190.155 56.1808C190.783 55.3218 191.096 54.2215 191.096 52.8799C191.096 51.4901 190.778 50.3802 190.141 49.5502C189.513 48.7201 188.577 48.3051 187.332 48.3051C186.473 48.3051 185.769 48.4982 185.218 48.8842C184.668 49.2702 184.258 49.8059 183.987 50.4912C183.727 51.1764 183.597 51.9727 183.597 52.8799C183.597 54.2794 183.91 55.3942 184.538 56.2242C185.175 57.0446 186.106 57.4548 187.332 57.4548ZM204.269 61.1609C203.043 61.1609 202.044 60.9534 201.272 60.5384C200.5 60.1235 199.897 59.5974 199.463 58.9604C199.038 58.3234 198.734 57.6622 198.55 56.977C198.367 56.2821 198.256 55.65 198.217 55.0805C198.179 54.5111 198.16 54.096 198.16 53.8355V45.0622H202.156V52.4456C202.156 52.8027 202.174 53.2611 202.213 53.8209C202.252 54.3711 202.373 54.9261 202.575 55.4859C202.778 56.0456 203.106 56.5138 203.56 56.8902C204.023 57.2665 204.675 57.4548 205.514 57.4548C205.852 57.4548 206.214 57.4017 206.6 57.2955C206.986 57.1893 207.348 56.9867 207.686 56.6875C208.024 56.3786 208.299 55.9298 208.511 55.341C208.733 54.7427 208.844 53.9609 208.844 52.9957L211.103 54.0671C211.103 55.3024 210.852 56.4607 210.349 57.5416C209.848 58.6226 209.09 59.4961 208.077 60.1621C207.073 60.828 205.804 61.1609 204.269 61.1609ZM209.336 60.6977V55.5148H208.844V45.0622H212.811V60.6977H209.336ZM226.239 60.6977C225.158 60.9004 224.095 60.9873 223.053 60.9583C222.021 60.939 221.094 60.7604 220.274 60.4226C219.463 60.0752 218.845 59.5202 218.421 58.7577C218.035 58.0436 217.832 57.3196 217.813 56.5862C217.793 55.843 217.784 55.0033 217.784 54.0671V40.719H221.721V53.8355C221.721 54.4435 221.726 54.9936 221.736 55.4859C221.755 55.9684 221.856 56.3545 222.04 56.644C222.387 57.1942 222.942 57.4934 223.705 57.5416C224.467 57.5899 225.312 57.5513 226.239 57.4258V60.6977ZM215.12 48.1024V45.0622H226.239V48.1024H215.12ZM236.142 61.132C234.54 61.132 233.126 60.7894 231.9 60.1041C230.684 59.4092 229.729 58.4585 229.034 57.2521C228.348 56.036 228.006 54.6462 228.006 53.0826C228.006 51.3742 228.344 49.8879 229.019 48.6236C229.694 47.3593 230.626 46.3796 231.813 45.6847C233 44.9801 234.366 44.6278 235.91 44.6278C237.551 44.6278 238.946 45.0139 240.094 45.7861C241.243 46.5582 242.093 47.6439 242.642 49.0435C243.192 50.4429 243.386 52.0885 243.221 53.9802H239.327V52.5325C239.327 50.9399 239.071 49.7963 238.56 49.1013C238.058 48.3968 237.233 48.0445 236.084 48.0445C234.743 48.0445 233.753 48.4547 233.116 49.2751C232.489 50.0858 232.175 51.2875 232.175 52.8799C232.175 54.3373 232.489 55.4665 233.116 56.2676C233.753 57.0591 234.684 57.4548 235.91 57.4548C236.682 57.4548 237.344 57.2859 237.893 56.948C238.444 56.6103 238.864 56.1229 239.153 55.4859L243.091 56.6151C242.502 58.0436 241.571 59.1534 240.297 59.9449C239.033 60.7363 237.648 61.132 236.142 61.132ZM230.959 53.9802V51.0558H241.325V53.9802H230.959Z" fill="#4C2CB5"/>
<path fill-rule="evenodd" clip-rule="evenodd" d="M59.2043 49.3033C59.2043 40.7888 66.1323 33.8608 74.6468 33.8608C83.1614 33.8608 90.0893 40.7888 90.0893 49.3033C90.0893 57.8179 83.1614 64.7458 74.6468 64.7458H60.1695C59.6368 64.7458 59.2043 64.3133 59.2043 63.7807V49.3033ZM80.2685 43.0236C80.5105 42.9257 80.7882 42.9801 80.9731 43.1656C81.158 43.3506 81.2138 43.6282 81.1153 43.8696L75.2761 58.1433C75.1756 58.3892 74.9361 58.5468 74.6753 58.5468C74.6531 58.5468 74.6304 58.5455 74.6076 58.5436C74.321 58.5131 74.0887 58.2977 74.0374 58.0142L72.8196 51.3192L66.1247 50.102C65.8411 50.0502 65.6257 49.8178 65.5958 49.5311C65.5654 49.2442 65.7283 48.9724 65.9949 48.8627L80.2685 43.0236Z" fill="#4C2CB5"/>
</svg>
