<svg width="300" height="100" viewBox="0 0 300 100" fill="none" xmlns="http://www.w3.org/2000/svg">
<rect width="300" height="100" fill="white"/>
<path d="M172.536 41.9037L169.644 43.5728C168.12 42.3992 166.558 41.8477 164.505 41.8477C163.202 41.8473 161.916 42.1459 160.747 42.7206C159.577 43.2953 158.555 44.1307 157.759 45.1625C156.963 46.1942 156.415 47.3949 156.156 48.6719C155.898 49.9489 155.936 51.2681 156.268 52.5281C156.599 53.7881 157.216 54.9552 158.07 55.9394C158.924 56.9237 159.992 57.6989 161.193 58.2053C162.394 58.7117 163.695 58.9358 164.996 58.8603C166.297 58.7849 167.563 58.412 168.697 57.7702V58.653C168.698 58.7119 168.722 58.7681 168.764 58.8094C168.806 58.8507 168.863 58.8737 168.922 58.8733H172.661C172.72 58.8733 172.776 58.8502 172.818 58.8089C172.86 58.7677 172.883 58.7116 172.884 58.653V42.0928C172.884 42.0525 172.872 42.013 172.851 41.9785C172.83 41.9441 172.8 41.916 172.765 41.8973C172.729 41.8786 172.689 41.8699 172.648 41.8721C172.608 41.8744 172.569 41.8876 172.536 41.9102V41.9037ZM164.505 54.8572C163.616 54.8574 162.746 54.5939 162.006 54.0999C161.266 53.6058 160.689 52.9035 160.348 52.0818C160.008 51.26 159.918 50.3557 160.092 49.4833C160.265 48.6108 160.694 47.8093 161.323 47.1802C161.952 46.5511 162.753 46.1227 163.626 45.949C164.499 45.7754 165.403 45.8644 166.225 46.2047C167.047 46.5451 167.75 47.1215 168.244 47.8611C168.739 48.6007 169.003 49.4703 169.003 50.3598C169.003 51.5524 168.529 52.6961 167.685 53.5395C166.842 54.3828 165.698 54.8568 164.505 54.8572Z" fill="#210F60"/>
<path d="M121.332 36.0001C118.886 35.9918 116.502 36.7638 114.53 38.2028C112.558 39.6418 111.101 41.672 110.374 43.9953C110.365 44.027 110.362 44.0605 110.368 44.0932C110.374 44.1259 110.387 44.1568 110.407 44.1835C110.426 44.2102 110.452 44.232 110.482 44.247C110.512 44.2621 110.544 44.27 110.578 44.2701H114.976C115.015 44.2705 115.054 44.26 115.087 44.2398C115.121 44.2197 115.148 44.1907 115.166 44.156C115.773 43.0218 116.684 42.0776 117.799 41.4289C118.913 40.7802 120.187 40.4526 121.478 40.4826C125.199 40.55 128.079 43.5946 128.213 47.1033C128.273 48.6637 127.798 50.1979 126.866 51.4547C125.935 52.7115 124.602 53.6163 123.086 54.0211C121.57 54.4259 119.961 54.3066 118.523 53.6828C117.084 53.059 115.9 51.9677 115.166 50.5875C115.149 50.5532 115.122 50.5245 115.089 50.5044C115.055 50.4842 115.018 50.4735 114.979 50.4734H110.578C110.544 50.4735 110.512 50.4814 110.482 50.4965C110.452 50.5115 110.426 50.5333 110.407 50.56C110.387 50.5867 110.374 50.6176 110.368 50.6503C110.362 50.683 110.365 50.7165 110.374 50.7482C111.001 52.7554 112.175 54.5504 113.765 55.9341C115.356 57.3177 117.3 58.2359 119.383 58.5865C121.466 58.9372 123.606 58.7067 125.565 57.9207C127.524 57.1346 129.226 55.8237 130.482 54.1336C131.738 52.4434 132.498 50.44 132.679 48.3458C132.86 46.2517 132.454 44.1487 131.506 42.2702C130.558 40.3918 129.106 38.8115 127.31 37.7046C125.514 36.5978 123.445 36.0078 121.332 36.0001Z" fill="#1DCF9F"/>
<path fill-rule="evenodd" clip-rule="evenodd" d="M114.816 49.5167H109.424C109.393 49.5167 109.364 49.5106 109.336 49.4989C109.308 49.4871 109.283 49.4699 109.262 49.4482C109.24 49.4265 109.224 49.4008 109.212 49.3725C109.201 49.3442 109.195 49.3139 109.195 49.2833V45.5908C109.195 45.5602 109.201 45.5299 109.212 45.5016C109.224 45.4733 109.24 45.4476 109.262 45.4259C109.283 45.4042 109.308 45.387 109.336 45.3752C109.364 45.3635 109.393 45.3574 109.424 45.3574H114.816C114.846 45.3574 114.876 45.3635 114.904 45.3752C114.931 45.387 114.957 45.4042 114.978 45.4259C114.999 45.4476 115.016 45.4733 115.027 45.5016C115.039 45.5299 115.044 45.5602 115.044 45.5908V49.2833C115.044 49.3139 115.039 49.3442 115.027 49.3725C115.016 49.4008 114.999 49.4265 114.978 49.4482C114.957 49.4699 114.931 49.4871 114.904 49.4989C114.876 49.5106 114.846 49.5167 114.816 49.5167Z" fill="#210F60"/>
<path d="M154.037 45.5917C154.037 41.1513 150.474 37.3812 146.048 37.3008H137.739C137.684 37.3008 137.631 37.3228 137.592 37.3619C137.552 37.4011 137.53 37.4542 137.53 37.5095V58.5382C137.53 58.5936 137.552 58.6467 137.592 58.6858C137.631 58.725 137.684 58.747 137.739 58.747H141.487C141.543 58.747 141.596 58.725 141.635 58.6858C141.674 58.6467 141.696 58.5936 141.696 58.5382V54.0499H145.988C150.443 54.0019 154.037 50.6557 154.037 45.5969V45.5917ZM145.896 49.8908H141.695V41.4637H145.896C148.091 41.4637 149.87 43.4084 149.87 45.5956C149.87 48.3182 148.091 49.8895 145.896 49.8895" fill="#210F60"/>
<path d="M191.654 41.8477H187.831C187.726 41.8477 187.624 41.8786 187.536 41.9365C187.449 41.9944 187.38 42.0767 187.339 42.1733L183.27 51.5912L179.26 42.1733C179.219 42.0767 179.15 41.9944 179.062 41.9366C178.975 41.8787 178.872 41.8478 178.767 41.8477L174.906 41.8685C174.873 41.8691 174.839 41.8781 174.81 41.8947C174.78 41.9112 174.755 41.9348 174.737 41.9634C174.718 41.992 174.707 42.0247 174.704 42.0585C174.702 42.0924 174.707 42.1265 174.721 42.1577L181.023 56.9566L178.41 63.0047C178.396 63.0363 178.391 63.0708 178.394 63.1051C178.397 63.1394 178.408 63.1724 178.427 63.2011C178.446 63.2298 178.472 63.2533 178.502 63.2695C178.533 63.2857 178.567 63.2941 178.601 63.2938H182.423C182.528 63.2939 182.63 63.2631 182.718 63.2052C182.806 63.1473 182.874 63.0649 182.916 62.9682L191.844 42.1368C191.857 42.1053 191.863 42.0709 191.86 42.0367C191.857 42.0026 191.845 41.9696 191.827 41.941C191.808 41.9123 191.782 41.8888 191.752 41.8725C191.722 41.8562 191.688 41.8477 191.654 41.8477Z" fill="#210F60"/>
</svg>
