<svg width="300" height="100" viewBox="0 0 300 100" fill="none" xmlns="http://www.w3.org/2000/svg">
<rect width="300" height="100" fill="white"/>
<path d="M229.153 37.5508H68.9729V61.329H229.153V37.5508Z" fill="#EE7415"/>
<path d="M92.9198 53.8556C91.9603 53.2501 90.9318 51.7294 90.9318 49.6723C90.9392 48.3935 91.383 47.1557 92.1898 46.1636C93.3815 44.6539 94.9105 44.3775 96.1271 44.3775C97.3278 44.3153 98.5074 44.7105 99.4284 45.4834C100.457 46.3129 101.284 47.7507 101.284 49.6944C101.277 50.8039 100.922 51.8834 100.269 52.78C99.3869 53.9192 98.2395 54.7652 96.0994 54.7652C94.9746 54.7704 93.8716 54.4549 92.9198 53.8556ZM99.1574 49.8133C99.1574 46.7276 97.222 45.0383 96.0718 45.0383C95.7953 45.0383 95.1262 44.9664 94.2995 45.7986C93.5032 46.5866 93.0967 48.0659 93.0967 49.2216C93.0967 52.816 95.0847 54.11 96.2072 54.11C98.7123 54.11 99.1574 50.969 99.1574 49.8133Z" fill="white"/>
<path d="M104.502 48.1519C104.502 47.1067 104.502 46.2164 104.485 45.8266C104.472 45.3621 104.289 45.1215 104.093 45.1215H103.54C103.471 45.1215 103.454 45.0801 103.454 45.022V44.6543C103.454 44.5824 103.471 44.5547 103.54 44.5547C103.667 44.5547 104.093 44.599 105.638 44.599C106.426 44.599 107.668 44.5547 108.246 44.5547C109.164 44.5328 110.055 44.8655 110.734 45.4837C110.965 45.6719 111.156 45.9053 111.294 46.1697C111.432 46.434 111.514 46.7237 111.536 47.021C111.536 48.8099 110.198 49.6118 108.959 49.7251V49.8247C109.342 49.9658 109.668 50.2279 109.888 50.5712C110.071 50.7951 110.845 52.0504 110.958 52.2301C111.071 52.4099 111.804 53.4273 112.086 53.7508C112.255 53.9333 112.788 54.0467 113.115 54.0467C113.211 54.0467 113.225 54.102 113.225 54.16V54.4974C113.225 54.5831 113.211 54.6245 113.115 54.6245C113.018 54.6245 112.634 54.5831 111.55 54.5831C111.141 54.5831 110.621 54.6107 110.212 54.6245C109.788 54.3011 108.915 52.667 108.677 52.1887C108.196 51.2292 107.621 50.1869 106.943 50.1869H106.465V50.9057C106.465 51.7352 106.507 53.314 106.534 53.4965C106.562 53.7923 106.675 54.0494 106.888 54.0494H107.463C107.563 54.0494 107.577 54.0909 107.577 54.1628V54.5001C107.577 54.5997 107.577 54.6273 107.353 54.6273C107.353 54.6273 106.985 54.5858 105.506 54.5858C104.026 54.5858 103.689 54.6273 103.534 54.6273C103.421 54.6273 103.421 54.5858 103.421 54.4863V54.1379C103.421 54.066 103.421 54.0246 103.493 54.0246H103.916C104.225 54.0246 104.469 53.925 104.469 53.5739C104.499 52.1914 104.499 50.856 104.499 49.5178L104.502 48.1519ZM106.473 49.6726C106.75 49.6726 106.91 49.6726 107.026 49.6726C108.884 49.6726 109.321 47.8975 109.321 47.2339C109.342 46.6606 109.151 46.0997 108.785 45.6579C108.353 45.2752 107.8 45.056 107.223 45.0386C107.035 45.0178 106.846 45.0617 106.686 45.163C106.592 45.2686 106.538 45.4034 106.531 45.5446L106.473 49.6726Z" fill="white"/>
<path d="M117.644 50.7008C117.533 50.9966 116.842 52.9127 116.842 53.3772C116.842 53.6869 116.969 54.0242 117.395 54.0242H117.887C118.028 54.0242 118.042 54.0795 118.042 54.1375V54.4472C118.042 54.5606 118.028 54.6021 117.915 54.6021C117.732 54.6021 117.154 54.5606 115.999 54.5606C114.97 54.5606 114.66 54.6021 114.464 54.6021C114.378 54.6021 114.364 54.5163 114.364 54.4196V54.1431C114.364 54.0574 114.378 54.0159 114.464 54.0159H114.829C115.028 54.002 115.221 53.9379 115.388 53.8296C115.556 53.7213 115.694 53.5723 115.788 53.3965C115.985 53.1007 116.986 50.6482 117.447 49.4095C117.561 49.1331 118.703 46.0916 118.83 45.7184C118.866 45.6437 118.884 45.562 118.884 45.4792C118.884 45.3964 118.866 45.3147 118.83 45.2401C118.782 45.189 118.748 45.1259 118.733 45.0576C118.733 45.0133 118.761 44.958 118.874 44.9304C119.325 44.8308 120.24 44.4659 120.45 44.2253C120.522 44.1562 120.563 44.0981 120.635 44.0981C120.707 44.0981 120.746 44.1839 120.79 44.3387C121.067 45.2262 122.156 48.381 122.424 49.2824C122.748 50.3883 123.663 53.0012 123.859 53.3827C123.929 53.552 124.043 53.6997 124.189 53.8109C124.334 53.9221 124.507 53.9928 124.689 54.0159H125.167C125.253 54.0159 125.266 54.0712 125.266 54.1431V54.4196C125.266 54.5025 125.266 54.6021 125.139 54.6021C124.863 54.6021 124.586 54.5606 122.773 54.5606C121.603 54.5606 121.114 54.6021 120.837 54.6021C120.696 54.6021 120.682 54.5163 120.682 54.4196V54.1431C120.682 54.0712 120.682 54.0159 120.765 54.0159H121.152C121.534 54.0159 121.658 53.8749 121.575 53.5099C121.448 53.0012 120.898 51.1984 120.729 50.6925L117.644 50.7008ZM120.602 50.1478C120.475 49.7247 119.645 46.7663 119.546 46.4151C119.491 46.2022 119.463 46.1055 119.391 46.1055C119.319 46.1055 119.264 46.1608 119.222 46.288C119.153 46.4704 117.939 49.7939 117.84 50.1588L120.602 50.1478Z" fill="white"/>
<path d="M135.806 50.4605C135.806 49.208 135.793 48.5251 135.765 47.8118C135.751 47.2588 135.679 45.8763 135.638 45.6717C135.593 45.5092 135.495 45.3664 135.36 45.2662C135.225 45.1659 135.06 45.114 134.891 45.1187H134.44C134.369 45.1187 134.355 45.0773 134.355 44.9915V44.6542C134.355 44.5823 134.369 44.5547 134.482 44.5547C134.595 44.5547 135.087 44.5989 136.141 44.5989C136.987 44.5989 137.324 44.5547 137.479 44.5547C137.634 44.5547 137.62 44.5823 137.62 44.668V45.0054C137.62 45.0773 137.62 45.1326 137.551 45.1326H137.156C136.915 45.1326 136.774 45.3731 136.733 45.8791C136.636 46.8109 136.401 49.996 136.401 51.843V54.254C136.401 54.4641 136.401 54.7185 136.191 54.7185C136.088 54.7208 135.986 54.7019 135.891 54.6629C135.795 54.6239 135.709 54.5656 135.638 54.4918C135.397 54.2678 134.709 53.5213 133.863 52.5204C132.848 51.3232 131.72 49.9712 131.454 49.6615C131.189 49.3518 129.27 46.9574 128.947 46.4901H128.833V49.3546C128.833 50.5214 128.96 52.255 128.974 52.7914C129.002 53.6208 129.251 54.03 129.848 54.03H130.199C130.299 54.03 130.312 54.0715 130.312 54.1572V54.4945C130.312 54.5803 130.312 54.6079 130.199 54.6079C130.086 54.6079 129.215 54.5664 128.54 54.5664C128.103 54.5664 127.133 54.6079 126.992 54.6079C126.934 54.6079 126.92 54.5803 126.92 54.4807V54.1102C126.92 54.066 126.934 54.0245 127.006 54.0245H127.512C127.821 54.0245 128.048 53.5738 128.117 52.6421C128.131 52.3656 128.244 50.1205 128.244 48.0357V46.7556C128.244 45.9261 127.738 45.1353 127.033 45.1215H126.679C126.61 45.1215 126.596 45.0662 126.596 45.022V44.6293C126.596 44.5713 126.61 44.5436 126.679 44.5436C126.749 44.5436 126.865 44.5436 127.133 44.5436C127.401 44.5436 127.863 44.574 128.595 44.574C129.077 44.574 129.497 44.5436 129.668 44.5436C129.746 44.5396 129.823 44.5543 129.894 44.5865C129.965 44.6188 130.027 44.6676 130.075 44.7289C130.147 44.8118 132.923 48.2071 133.343 48.7269C133.542 48.9675 135.599 51.5472 135.754 51.7296H135.809L135.806 50.4605Z" fill="white"/>
<path d="M149.407 53.1947C149.407 53.391 149.462 53.532 149.462 53.6426C149.462 53.7532 149.379 53.814 149.238 53.8693C148.096 54.4472 146.899 54.7707 145.11 54.7707C143.645 54.7707 141.997 54.3062 141.026 53.1642C140.167 52.1938 139.73 50.9966 139.73 49.2934C139.741 48.623 139.892 47.9624 140.173 47.3539C140.455 46.7454 140.86 46.2024 141.364 45.7598C142.392 44.8584 143.659 44.3774 145.351 44.3774C146.375 44.3454 147.39 44.5838 148.293 45.0686C148.464 45.1654 148.569 45.1377 148.647 45.0243L148.788 44.8004C148.857 44.7008 148.884 44.6594 148.97 44.6594C149.125 44.6594 149.166 44.7589 149.166 44.9137L149.379 47.8141C149.393 47.9828 149.379 48.0547 149.321 48.0685L148.929 48.1542C148.843 48.1542 148.801 48.1376 148.76 48.0132C148.509 47.207 148.069 46.4724 147.477 45.8704C146.884 45.2987 146.089 44.9847 145.265 44.9967C144.852 44.9875 144.442 45.0788 144.072 45.2628C143.701 45.4468 143.381 45.7179 143.139 46.0529C142.407 46.9637 142.009 48.0974 142.011 49.2657C142.011 50.9247 142.475 52.379 143.236 53.1366C143.899 53.8002 144.433 54.096 145.392 54.096C145.938 54.138 146.485 54.0429 146.985 53.8195C147.281 53.6785 147.308 53.2278 147.308 52.4951V51.4749C147.308 50.9689 147.167 50.8279 146.813 50.8279H146.222C146.139 50.8279 146.125 50.7698 146.125 50.7007V50.3468C146.125 50.2915 146.139 50.25 146.222 50.25C146.349 50.25 147.051 50.2915 148.306 50.2915C149.562 50.2915 150.126 50.25 150.242 50.25C150.358 50.25 150.369 50.2915 150.369 50.3606V50.7145C150.369 50.7975 150.355 50.8279 150.272 50.8279H149.863C149.609 50.8279 149.426 50.9247 149.426 51.3339L149.407 53.1947Z" fill="white"/>
<path d="M155.714 49.1636C156.194 49.1728 156.675 49.145 157.151 49.0807C157.411 49.0132 157.639 48.8591 157.798 48.6438C157.984 48.3871 158.096 48.0853 158.125 47.7701C158.125 47.6706 158.166 47.6429 158.235 47.6429L158.617 47.6844C158.686 47.6982 158.744 47.7148 158.73 47.7978C158.689 48.2851 158.674 48.7742 158.686 49.2632C158.686 49.8963 158.744 50.5737 158.772 50.8696C158.786 50.9525 158.73 50.9691 158.658 50.9829L158.321 51.0521C158.266 51.0521 158.235 51.0521 158.208 50.9387C158.138 50.6911 158.045 50.4504 157.931 50.2198C157.843 50.0886 157.729 49.9771 157.596 49.8924C157.463 49.8076 157.313 49.7516 157.157 49.7277C156.68 49.665 156.2 49.6372 155.719 49.6447V50.4742C155.719 51.2345 155.791 52.6032 155.791 52.8548C155.791 53.5875 155.946 53.8419 156.128 53.9276C156.512 54.042 156.913 54.0842 157.312 54.052C157.552 54.052 158.141 54.0382 158.44 54.0105C158.833 53.9572 159.203 53.7964 159.51 53.546C160.021 53.0755 160.502 52.5722 160.948 52.0391C161.003 51.9811 161.044 51.9672 161.089 51.9949L161.327 52.1359C161.385 52.1663 161.398 52.2078 161.385 52.2493L160.749 54.3782C160.729 54.4433 160.687 54.4996 160.631 54.5378C160.574 54.5761 160.507 54.5939 160.439 54.5884C160.37 54.5884 160.06 54.5884 159.159 54.5607C158.257 54.5331 156.748 54.5607 154.312 54.5607C153.792 54.5607 153.397 54.5607 153.115 54.5607C152.833 54.5607 152.636 54.5884 152.509 54.5884C152.382 54.5884 152.382 54.5469 152.382 54.4335V54.1515C152.382 54.0658 152.423 54.0243 152.523 54.0243H152.949C153.596 54.0243 153.654 53.9248 153.654 53.4326V48.7129C153.654 47.5434 153.623 45.8125 153.61 45.6715C153.554 45.2209 153.413 45.1186 153.032 45.1186H152.479C152.421 45.1186 152.407 45.0771 152.407 44.9775V44.654C152.405 44.6405 152.406 44.6268 152.411 44.6139C152.415 44.601 152.422 44.5893 152.432 44.5796C152.442 44.57 152.453 44.5627 152.466 44.5584C152.479 44.554 152.493 44.5527 152.506 44.5545C152.816 44.5545 153.308 44.5987 154.591 44.5987L159.535 44.5822C159.762 44.5822 160.03 44.5545 160.088 44.5545C160.146 44.5545 160.187 44.5822 160.201 44.6264C160.256 44.8227 160.721 46.7526 160.779 46.8936C160.807 46.9627 160.807 46.9932 160.735 47.0346L160.511 47.148C160.496 47.1555 160.48 47.1599 160.463 47.1611C160.447 47.1622 160.43 47.16 160.414 47.1546C160.399 47.1492 160.384 47.1407 160.372 47.1296C160.359 47.1185 160.349 47.105 160.342 47.0899C159.829 46.5244 159.274 45.9976 158.683 45.5139C158.364 45.2988 157.996 45.1675 157.613 45.1324L155.755 45.0771L155.714 49.1636Z" fill="white"/>
<path d="M176.893 53.1947C176.893 53.391 176.948 53.532 176.948 53.6426C176.948 53.7532 176.863 53.814 176.722 53.8693C175.582 54.4472 174.385 54.7707 172.596 54.7707C171.131 54.7707 169.483 54.3062 168.51 53.1643C167.65 52.1938 167.213 50.9966 167.213 49.2934C167.224 48.6231 167.375 47.9625 167.657 47.354C167.938 46.7454 168.344 46.2025 168.847 45.7598C169.876 44.8585 171.145 44.3774 172.834 44.3774C173.859 44.3452 174.875 44.5836 175.779 45.0686C175.947 45.1654 176.055 45.1377 176.13 45.0244L176.271 44.8004C176.343 44.7009 176.37 44.6594 176.456 44.6594C176.611 44.6594 176.652 44.7589 176.652 44.9138L176.863 47.8142C176.879 47.9828 176.863 48.0547 176.807 48.0686L176.412 48.1543C176.329 48.1543 176.285 48.1377 176.243 48.0133C175.995 47.2065 175.556 46.4715 174.963 45.8704C174.667 45.5855 174.318 45.3616 173.936 45.2117C173.553 45.0618 173.145 44.9887 172.735 44.9967C172.321 44.9878 171.912 45.0792 171.541 45.2632C171.171 45.4471 170.851 45.7181 170.608 46.0529C169.879 46.9646 169.482 48.098 169.483 49.2658C169.483 50.9247 169.948 52.3791 170.708 53.1366C171.369 53.8002 171.905 54.0961 172.862 54.0961C173.407 54.1382 173.955 54.0432 174.454 53.8196C174.75 53.6786 174.778 53.2279 174.778 52.4952V51.4749C174.778 50.9689 174.637 50.8279 174.286 50.8279H173.686C173.603 50.8279 173.586 50.7699 173.586 50.7007V50.3468C173.586 50.2915 173.603 50.2501 173.686 50.2501C173.813 50.2501 174.515 50.2915 175.77 50.2915C177.026 50.2915 177.587 50.2501 177.706 50.2501C177.825 50.2501 177.833 50.2915 177.833 50.3607V50.7146C177.833 50.7975 177.819 50.8279 177.734 50.8279H177.324C177.073 50.8279 176.89 50.9247 176.89 51.3339L176.893 53.1947Z" fill="white"/>
<path d="M180.905 48.1515C180.905 47.1063 180.905 46.216 180.891 45.8262C180.877 45.3617 180.695 45.1211 180.496 45.1211H179.943C179.874 45.1211 179.86 45.0796 179.86 45.0216V44.6538C179.86 44.5819 179.86 44.5543 179.943 44.5543C180.07 44.5543 180.496 44.5985 182.044 44.5985C182.832 44.5985 184.071 44.5543 184.649 44.5543C185.567 44.5318 186.458 44.8646 187.137 45.4833C187.368 45.6715 187.559 45.9049 187.697 46.1692C187.834 46.4336 187.917 46.7233 187.939 47.0206C187.939 48.8095 186.601 49.6113 185.362 49.7247V49.8242C185.745 49.9639 186.072 50.2264 186.291 50.5707C186.473 50.7947 187.25 52.05 187.364 52.2297C187.477 52.4094 188.207 53.4269 188.489 53.7504C188.658 53.9329 189.194 54.0462 189.518 54.0462C189.617 54.0462 189.631 54.1015 189.631 54.1596V54.4969C189.631 54.5826 189.631 54.6241 189.518 54.6241C189.404 54.6241 189.039 54.5826 187.953 54.5826C187.546 54.5826 187.024 54.6103 186.614 54.6241C186.194 54.3006 185.32 52.6666 185.08 52.1882C184.602 51.2288 184.024 50.1864 183.346 50.1864H182.868V50.9053C182.868 51.7348 182.912 53.3135 182.94 53.496C182.967 53.7919 183.081 54.049 183.291 54.049H183.869C183.968 54.049 183.982 54.0905 183.982 54.1624V54.4997C183.982 54.5992 183.968 54.6269 183.755 54.6269C183.755 54.6269 183.391 54.5854 181.911 54.5854C180.432 54.5854 180.092 54.6269 179.937 54.6269C179.827 54.6269 179.827 54.5854 179.827 54.4859V54.1375C179.827 54.0656 179.827 54.0241 179.896 54.0241H180.321C180.631 54.0241 180.874 53.9246 180.874 53.5734C180.902 52.191 180.902 50.8555 180.902 49.5173L180.905 48.1515ZM182.876 49.6722C183.153 49.6722 183.313 49.6722 183.429 49.6722C185.29 49.6722 185.727 47.8971 185.727 47.2335C185.746 46.6604 185.555 46.0999 185.19 45.6575C184.758 45.2835 184.211 45.0697 183.639 45.052C183.453 45.0318 183.264 45.0757 183.106 45.1764C183.011 45.2812 182.956 45.4164 182.951 45.558L182.876 49.6722Z" fill="white"/>
<path d="M193.151 53.7174C192.15 53.1119 191.08 51.5912 191.08 49.5341C191.092 48.2505 191.556 47.0123 192.39 46.0365C193.629 44.5296 195.222 44.2476 196.488 44.2476C197.731 44.183 198.955 44.5765 199.927 45.3535C200.552 45.8595 201.052 46.5026 201.387 47.2329C201.723 47.9632 201.886 48.7611 201.863 49.5645C201.855 50.6804 201.484 51.7635 200.807 52.6502C199.891 53.7893 198.694 54.6354 196.469 54.6354C195.299 54.6412 194.151 54.3235 193.151 53.7174ZM199.645 49.6751C199.645 46.5895 197.616 44.9001 196.433 44.9001C196.156 44.9001 195.446 44.8282 194.588 45.6605C193.759 46.4485 193.333 47.9277 193.333 49.0834C193.333 52.6778 195.404 53.9718 196.574 53.9718C199.181 53.9718 199.645 50.8308 199.645 49.6751Z" fill="white"/>
<path d="M205.106 45.84C205.106 45.3479 205.009 45.1212 204.713 45.1212H204.05C203.967 45.1212 203.953 45.0935 203.953 44.994V44.6539C203.953 44.5682 203.953 44.5405 204.08 44.5405C204.208 44.5405 204.91 44.5848 206.389 44.5848C207.628 44.5848 208.305 44.5405 208.46 44.5405C208.615 44.5405 208.587 44.5682 208.587 44.6539V45.0189C208.587 45.0907 208.573 45.1184 208.474 45.1184H207.995C207.517 45.1184 207.277 45.3949 207.249 45.6714C207.249 45.8262 207.221 46.7773 207.221 47.5017V48.4308C207.221 49.1773 207.277 50.969 207.29 51.4196C207.304 52.0666 207.431 52.6998 207.741 53.0952C207.957 53.3498 208.227 53.5527 208.532 53.6891C208.837 53.8255 209.169 53.8918 209.502 53.8832C210.107 53.8592 210.689 53.6422 211.161 53.2638C211.714 52.7578 212.049 51.9809 212.049 50.969V48.8013C212.041 47.779 211.975 46.7581 211.852 45.7433C211.797 45.3783 211.576 45.1239 211.33 45.1239H210.879C210.796 45.1239 210.782 45.0825 210.782 45.0106V44.6539C210.782 44.582 210.796 44.5544 210.879 44.5544C211.02 44.5544 211.67 44.5986 212.627 44.5986C213.387 44.5986 213.838 44.5544 213.965 44.5544C214.092 44.5544 214.106 44.6124 214.106 44.6815V44.9912C214.106 45.0769 214.092 45.1322 214.02 45.1322H213.586C213.511 45.125 213.434 45.1334 213.362 45.1569C213.29 45.1804 213.223 45.2184 213.167 45.2688C213.11 45.3191 213.064 45.3805 213.032 45.4493C213 45.5181 212.983 45.5928 212.981 45.6686C212.95 45.8649 212.95 47.8087 212.95 48.0077C212.95 48.2068 212.923 50.6676 212.881 51.2178C212.795 52.3735 212.417 53.2611 211.684 53.9081C210.982 54.4806 210.101 54.7896 209.195 54.7818C208.462 54.7955 207.732 54.6766 207.042 54.4306C206.271 54.0515 205.682 53.3823 205.405 52.5698C205.167 51.9643 205.109 51.0215 205.109 49.1745L205.106 45.84Z" fill="white"/>
<path d="M219.677 50.8283C219.677 51.4891 219.677 53.4052 219.708 53.5738C219.735 53.8835 219.876 54.0245 220.1 54.0245H220.819C220.919 54.0245 220.932 54.066 220.932 54.1241V54.489C220.932 54.5609 220.932 54.6024 220.805 54.6024C220.609 54.6024 220.172 54.5609 218.524 54.5609C217.283 54.5609 216.735 54.6024 216.589 54.6024C216.492 54.6024 216.478 54.5609 216.478 54.5028V54.1241C216.478 54.0522 216.478 54.0245 216.561 54.0245H216.929C217.407 54.0245 217.507 53.9554 217.548 53.6015C217.548 53.4605 217.604 51.2651 217.604 49.6311V48.0108C217.604 47.0791 217.604 45.5998 217.576 45.4312C217.548 45.1547 217.407 45.1215 217.125 45.1215H216.464C216.392 45.1215 216.379 45.0938 216.379 45.0081V44.6542C216.379 44.5823 216.379 44.5547 216.464 44.5547C216.619 44.5547 217.125 44.5989 218.604 44.5989C218.859 44.5989 219.688 44.5547 220.156 44.5547C221.886 44.5547 222.719 44.6957 223.534 45.3289C223.857 45.5928 224.116 45.9264 224.292 46.3047C224.468 46.683 224.556 47.0961 224.549 47.5131C224.549 49.2053 223.197 50.3582 220.83 50.3582C220.393 50.3582 220.07 50.3582 219.688 50.3168L219.677 50.8283ZM219.677 49.7555C219.96 49.8154 220.248 49.8442 220.537 49.8412C220.974 49.8412 221.679 49.3905 221.989 48.8956C222.242 48.4407 222.36 47.9223 222.326 47.4025C222.326 45.4671 220.919 45.0524 220.341 45.0524C220.118 45.0485 219.895 45.0718 219.677 45.1215V49.7555Z" fill="white"/>
<path d="M232.426 64.2325H65.702V34.6479H232.426V64.2325ZM67.0844 62.8501H231.044V36.0304H67.0844V62.8501Z" fill="#EE7415"/>
<path d="M83.2177 47.5186C83.0883 47.5185 82.959 47.5268 82.8306 47.5434V47.3914C83.4151 47.2367 83.949 46.9317 84.379 46.5066C84.9955 45.8098 85.1172 44.6265 85.1172 44.6265C85.1172 44.6265 83.9698 44.7564 83.32 45.5831C83.0159 45.9672 82.8194 46.4252 82.7504 46.9103C82.7311 46.4043 82.6094 45.7186 82.1256 45.3039C81.4509 44.7288 80.1652 44.9887 80.1652 44.9887C80.6519 45.3237 81.1139 45.6934 81.5477 46.0946C81.9714 46.549 82.3631 47.0322 82.72 47.5407V47.56C81.8686 47.6959 81.1029 48.1566 80.5841 48.8453C80.0652 49.5339 79.8336 50.3969 79.9378 51.2528C80.042 52.1087 80.474 52.8909 81.1429 53.4349C81.8119 53.979 82.6657 54.2425 83.5249 54.1701C84.3841 54.0977 85.1817 53.695 85.7502 53.0467C86.3186 52.3984 86.6136 51.5549 86.5731 50.6937C86.5326 49.8324 86.1598 49.0203 85.5331 48.4282C84.9063 47.8361 84.0744 47.51 83.2122 47.5186H83.2177Z" fill="white"/>
<path d="M76.9524 47.5186C76.824 47.5189 76.6957 47.5263 76.5681 47.5407V47.3748C77.1553 47.2238 77.6922 46.9205 78.1247 46.4955C78.7275 45.8043 78.8491 44.6265 78.8491 44.6265C78.8491 44.6265 77.7072 44.7564 77.0602 45.5776C76.758 45.9604 76.5625 46.4164 76.4934 46.8992C76.4741 46.396 76.3496 45.7158 75.8686 45.3039C75.1939 44.7288 73.911 44.9887 73.911 44.9887C74.3976 45.3239 74.8596 45.6935 75.2934 46.0946C75.7149 46.5512 76.1056 47.0352 76.463 47.5434C75.6077 47.6748 74.8367 48.1327 74.3122 48.8209C73.7876 49.509 73.5503 50.3738 73.6501 51.2333C73.75 52.0928 74.1793 52.8801 74.8477 53.4296C75.5161 53.9791 76.3715 54.2481 77.2341 54.1798C78.0967 54.1116 78.8993 53.7116 79.473 53.0638C80.0467 52.416 80.3469 51.571 80.3104 50.7065C80.2739 49.842 79.9036 49.0253 79.2773 48.4282C78.6511 47.831 77.8177 47.5 76.9524 47.5047V47.5186Z" fill="white"/>
</svg>
