<svg width="300" height="100" viewBox="0 0 300 100" fill="none" xmlns="http://www.w3.org/2000/svg">
<rect width="300" height="100" fill="white"/>
<g clip-path="url(#clip0_298_9989)">
<path d="M92.3418 51.7258H84.2135C83.9371 48.5174 81.9359 46.5331 78.9471 46.5331C75.1594 46.5331 72.8818 49.8556 72.8818 55.2088C72.8818 60.562 75.1594 63.8802 78.9471 63.8802C81.9535 63.8802 83.9547 61.685 84.1788 58.1512H92.3594C91.7453 65.058 86.6277 69.664 79 69.664C70.3753 69.664 64.7535 63.9858 64.7535 55.2088C64.7535 46.4318 70.3582 40.7535 78.9824 40.7535C86.61 40.7535 91.71 45.3553 92.3418 51.7258ZM102.642 45.1653C104.679 42.3536 107.471 40.9689 110.485 40.9689C116.828 40.9689 120.891 44.7135 120.891 52.1015V68.807H113.101V52.8531C113.101 48.7284 111.205 46.8582 108.146 46.8582C104.921 46.8582 102.581 49.2646 102.581 54.242V68.807H94.7818V30.689H102.572L102.524 45.1653H102.642ZM142.928 60.5535H150.889C149.775 65.531 144.876 69.6555 137.363 69.6555C128.458 69.6555 123.284 63.6565 123.284 54.985C123.284 46.9637 128.458 40.7451 137.328 40.7451C143.836 40.7451 148.625 44.2787 150.402 49.7923C151.016 51.6668 151.28 53.7523 151.28 56.754H130.964C131.188 62.373 134.036 64.353 137.363 64.353C140.479 64.353 142.537 62.7572 142.928 60.5535ZM131.131 52.0382H143.498C142.998 47.9178 140.426 46.0434 137.324 46.0434C134.221 46.0434 131.741 47.9263 131.131 52.0466V52.0382ZM177.24 49.9527H169.779C169.779 47.1706 168.107 45.9928 165.324 45.9928C162.822 45.9928 161.484 46.9553 161.484 48.5258C161.484 50.4509 163.266 50.9322 167.549 52.0045C172.614 53.271 178.179 54.5375 178.179 61.1572C178.179 66.2442 173.395 69.6725 165.715 69.6725C157.868 69.6725 153.027 66.5652 153.027 59.9625H160.926C160.926 62.6938 162.651 64.2475 165.882 64.2475C168.607 64.2475 169.999 63.23 169.999 61.6215C169.999 59.2658 167.883 58.7845 163.49 57.6615C158.758 56.4838 153.694 55.4155 153.694 49.0957C153.694 44.2238 158.368 40.7451 165.381 40.7451C172.785 40.7536 177.24 43.9114 177.24 49.9612V49.9527ZM196.446 62.9092V68.638C195.103 68.9902 193.716 69.1692 192.325 69.17C185.816 69.17 182.976 66.637 182.976 60.3382V47.1791H178.412V41.6106H182.998V34.5434H190.766V41.6106H196.165V47.1791H190.766V58.9998C190.766 61.9972 191.772 63.1752 194.44 63.1752C195.118 63.1835 195.794 63.0968 196.446 62.9175V62.9092ZM217.539 41.4924V47.9727C216.733 47.8098 215.913 47.7193 215.089 47.7025C210.301 47.7025 207.743 50.5944 207.743 55.9475V68.7985H199.952V41.6106H207.137V45.465H207.251C209.142 42.5098 211.64 41.1799 214.984 41.1799C215.846 41.1834 216.705 41.2912 217.539 41.5008V41.4924ZM243.696 51.5063V61.3555C243.696 64.7838 243.973 66.979 244.473 68.7985H237.451C237.175 67.6028 237.045 66.38 237.065 65.1552H236.981C234.87 68.047 231.715 69.4402 227.8 69.4402C221.787 69.4402 218.171 65.9065 218.171 61.1952C218.171 56.754 220.953 53.7522 229.143 52.5237C231.258 52.2029 234.409 51.8821 236.214 51.7723V50.8097C236.214 47.3816 234.322 45.9928 231.592 45.9928C228.699 45.9928 227.032 47.5421 226.918 50.1132H219.316C219.597 44.9204 223.49 40.7451 231.561 40.7451C239.632 40.7451 243.696 44.3927 243.696 51.5148V51.5063ZM236.182 56.3318C234.51 56.4372 232.175 56.6525 230.504 56.9185C227.278 57.4548 225.943 58.4722 225.943 60.6675C225.943 62.7022 227.387 64.0955 230.117 64.0955C231.728 64.0955 233.453 63.6142 234.567 62.542C235.884 61.2755 236.182 59.8105 236.182 57.3492V56.3318ZM262.701 62.9175V68.6465C261.357 68.9985 259.974 69.1772 258.584 69.1785C252.07 69.1785 249.231 66.6455 249.231 60.3465V47.1791H244.671V41.6106H249.231V34.5434H257.025V41.6106H262.436V47.1791H257.038V58.9998C257.038 61.9972 258.039 63.1752 260.712 63.1752C261.385 63.1822 262.053 63.0955 262.701 62.9175ZM283.943 60.5535H291.899C290.788 65.531 285.89 69.6555 278.377 69.6555C269.473 69.6555 264.293 63.6565 264.293 54.985C264.293 46.9637 269.473 40.7451 278.337 40.7451C284.851 40.7451 289.634 44.2787 291.416 49.7923C292.031 51.6668 292.294 53.7523 292.294 56.754H271.966C272.188 62.373 275.036 64.353 278.367 64.353C281.485 64.353 283.542 62.7572 283.943 60.5535ZM272.141 52.0382H284.499C283.998 47.9178 281.428 46.0434 278.32 46.0434C275.212 46.0434 272.746 47.9263 272.131 52.0466L272.141 52.0382ZM62.5019 41.1799C59.162 41.1799 56.6605 42.5182 54.7688 45.465H54.6547V41.6106H47.4745V48.5469C46.542 49.0955 45.5662 49.5726 44.5559 49.9738C45.4336 42.2565 44.0117 35.7719 37.7752 32.3608C27.5008 26.7374 14.4922 31.4278 9.24753 43.5821C5.13955 53.1105 5.65305 67.2618 19.4385 69.6345C30.7222 71.5722 38.6616 65.4845 41.5496 58.9788C43.5867 58.5045 45.57 57.837 47.4702 56.986V68.807H55.2823V55.956C55.261 54.7258 55.4297 53.4995 55.7825 52.3169C55.8962 51.9396 56.0431 51.5725 56.2215 51.2192C57.3626 48.9184 59.5264 47.711 62.6161 47.711C63.4379 47.7275 64.2563 47.8179 65.0606 47.9812V41.5008C64.2252 41.2902 63.3656 41.1824 62.5019 41.1799ZM23.5289 63.002C18.2403 63.0275 15.3481 59.4135 15.3481 53.6341C15.4066 51.5862 15.74 49.5542 16.3399 47.5885C17.3933 50.4804 20.1407 54.47 23.6957 56.7118C26.1095 58.2315 28.8306 59.3418 31.4859 59.5868C29.5241 61.457 27.0532 62.9895 23.5289 63.002ZM35.6598 52.3126C34.9698 52.3652 34.2764 52.3568 33.5882 52.2873C26.2763 51.7132 23.2831 46.2672 23.2129 42.5774C23.1602 39.6686 25.1923 37.0891 28.2776 37.0891H28.3128C33.6014 37.0891 36.5858 40.5172 36.5507 46.4065C36.565 48.4072 36.2646 50.3984 35.6598 52.3126Z" fill="#5E3EEB"/>
</g>
<defs>
<clipPath id="clip0_298_9989">
<rect width="285.294" height="40" fill="white" transform="translate(7 30)"/>
</clipPath>
</defs>
</svg>
