<svg width="300" height="100" viewBox="0 0 300 100" fill="none" xmlns="http://www.w3.org/2000/svg">
<rect width="300" height="100" fill="white"/>
<g clip-path="url(#clip0_298_10467)">
<path d="M71.4891 48.1448L71.2031 48.1124C80.6597 47.1092 88.151 39.7023 89.2832 30.286L89.3155 30C90.3188 39.4565 97.7256 46.9479 107.142 48.0801L107.428 48.1124C97.9714 49.1156 90.48 56.5225 89.3479 65.9389L89.3155 66.2248C88.3123 56.7683 80.9055 49.2769 71.4891 48.1448Z" fill="#30BA87"/>
<path d="M97.5057 62.4864C97.5057 61.4171 97.6993 60.4492 98.0864 59.5827C98.4736 58.7162 99.0036 57.9742 99.6765 57.3565C100.349 56.7389 101.142 56.2642 102.055 55.9323C102.967 55.6005 103.94 55.4346 104.972 55.4346C106.005 55.4346 106.977 55.6005 107.89 55.9323C108.802 56.2642 109.595 56.7389 110.268 57.3565C110.941 57.9742 111.471 58.7162 111.858 59.5827C112.245 60.4492 112.439 61.4171 112.439 62.4864C112.439 63.5557 112.245 64.5236 111.858 65.3901C111.471 66.2566 110.941 66.9987 110.268 67.6163C109.595 68.2339 108.802 68.7086 107.89 69.0405C106.977 69.3723 106.005 69.5383 104.972 69.5383C103.94 69.5383 102.967 69.3723 102.055 69.0405C101.142 68.7086 100.349 68.2339 99.6765 67.6163C99.0036 66.9987 98.4736 66.2566 98.0864 65.3901C97.6993 64.5236 97.5057 63.5557 97.5057 62.4864ZM101.654 62.4864C101.654 63.5004 101.944 64.3208 102.525 64.9477C103.106 65.5745 103.921 65.8879 104.972 65.8879C106.023 65.8879 106.839 65.5745 107.42 64.9477C108 64.3208 108.291 63.5004 108.291 62.4864C108.291 61.4724 108 60.652 107.42 60.0252C106.839 59.3984 106.023 59.0849 104.972 59.0849C103.921 59.0849 103.106 59.3984 102.525 60.0252C101.944 60.652 101.654 61.4724 101.654 62.4864Z" fill="black"/>
<path d="M114.873 55.7664H119.021V57.9235H119.076C119.519 57.0938 120.044 56.4716 120.652 56.0568C121.261 55.642 122.026 55.4346 122.948 55.4346C123.187 55.4346 123.427 55.4438 123.667 55.4622C123.906 55.4807 124.128 55.5175 124.33 55.5728V59.3615C124.035 59.2693 123.745 59.2002 123.459 59.1541C123.174 59.108 122.874 59.0849 122.561 59.0849C121.768 59.0849 121.141 59.1956 120.68 59.4168C120.219 59.638 119.864 59.9468 119.615 60.3432C119.366 60.7396 119.205 61.2143 119.131 61.7674C119.058 62.3205 119.021 62.9289 119.021 63.5926V69.2064H114.873V55.7664Z" fill="black"/>
<path d="M139.734 69.2065H135.918V67.4366H135.862C135.696 67.6763 135.48 67.9205 135.212 68.1694C134.945 68.4183 134.632 68.6442 134.272 68.847C133.913 69.0498 133.516 69.2157 133.083 69.3447C132.65 69.4738 132.203 69.5383 131.742 69.5383C130.746 69.5383 129.843 69.3678 129.032 69.0267C128.22 68.6856 127.524 68.2063 126.944 67.5887C126.363 66.9711 125.916 66.2382 125.602 65.3902C125.289 64.5421 125.132 63.6111 125.132 62.5971C125.132 61.6568 125.275 60.7581 125.561 59.9008C125.847 59.0435 126.252 58.283 126.778 57.6193C127.303 56.9556 127.944 56.4256 128.7 56.0292C129.456 55.6328 130.313 55.4346 131.272 55.4346C132.138 55.4346 132.945 55.5683 133.691 55.8356C134.438 56.1029 135.051 56.5592 135.53 57.2045H135.586V48.2998H139.734V69.2065ZM135.918 62.4865C135.918 61.4725 135.627 60.6521 135.046 60.0252C134.466 59.3984 133.65 59.085 132.599 59.085C131.548 59.085 130.732 59.3984 130.152 60.0252C129.571 60.6521 129.28 61.4725 129.28 62.4865C129.28 63.5005 129.571 64.3209 130.152 64.9477C130.732 65.5745 131.548 65.888 132.599 65.888C133.65 65.888 134.466 65.5745 135.046 64.9477C135.627 64.3209 135.918 63.5005 135.918 62.4865Z" fill="black"/>
<path d="M151.487 67.5195H151.432C150.971 68.2385 150.358 68.7547 149.593 69.0682C148.828 69.3816 148.021 69.5383 147.173 69.5383C146.546 69.5383 145.942 69.4507 145.362 69.2756C144.781 69.1004 144.269 68.8377 143.827 68.4874C143.384 68.1371 143.034 67.7039 142.776 67.1877C142.518 66.6714 142.389 66.0723 142.389 65.3901C142.389 64.6158 142.532 63.9613 142.817 63.4267C143.103 62.892 143.49 62.4495 143.979 62.0993C144.467 61.749 145.025 61.477 145.652 61.2835C146.279 61.0899 146.929 60.947 147.602 60.8548C148.274 60.7626 148.947 60.7073 149.62 60.6889C150.293 60.6705 150.915 60.6612 151.487 60.6612C151.487 59.9238 151.224 59.3384 150.699 58.9052C150.173 58.4719 149.551 58.2553 148.832 58.2553C148.15 58.2553 147.528 58.3982 146.965 58.684C146.403 58.9697 145.901 59.3615 145.458 59.8593L143.246 57.5916C144.02 56.8726 144.924 56.3333 145.956 55.9738C146.989 55.6143 148.058 55.4346 149.164 55.4346C150.381 55.4346 151.381 55.5867 152.164 55.8909C152.948 56.1951 153.575 56.6421 154.045 57.2321C154.515 57.8221 154.842 58.5457 155.027 59.403C155.211 60.2602 155.303 61.2512 155.303 62.3758V69.2064H151.487V67.5195ZM150.464 63.3161C150.15 63.3161 149.759 63.3299 149.288 63.3575C148.818 63.3852 148.367 63.4635 147.933 63.5926C147.5 63.7216 147.131 63.9152 146.827 64.1733C146.523 64.4314 146.371 64.7909 146.371 65.2519C146.371 65.7496 146.583 66.1184 147.007 66.358C147.431 66.5977 147.873 66.7175 148.334 66.7175C148.74 66.7175 149.132 66.6622 149.51 66.5516C149.888 66.441 150.224 66.2843 150.519 66.0815C150.814 65.8787 151.049 65.6206 151.224 65.3072C151.399 64.9937 151.487 64.625 151.487 64.201V63.3161H150.464Z" fill="black"/>
<path d="M160.281 69.3721C159.783 69.3721 159.355 69.1923 158.995 68.8328C158.636 68.4733 158.456 68.0446 158.456 67.5469C158.456 67.0491 158.636 66.6204 158.995 66.2609C159.355 65.9014 159.783 65.7217 160.281 65.7217C160.779 65.7217 161.207 65.9014 161.567 66.2609C161.926 66.6204 162.106 67.0491 162.106 67.5469C162.106 68.0446 161.926 68.4733 161.567 68.8328C161.207 69.1923 160.779 69.3721 160.281 69.3721Z" fill="black"/>
<path d="M166.061 57.7019C166.761 57.0566 167.573 56.5727 168.494 56.2501C169.416 55.9274 170.338 55.7661 171.26 55.7661C172.218 55.7661 173.043 55.8859 173.735 56.1256C174.426 56.3653 174.993 56.6879 175.436 57.0935C175.878 57.4991 176.205 57.9646 176.417 58.4901C176.629 59.0155 176.735 59.564 176.735 60.1355V66.8278C176.735 67.2887 176.745 67.7128 176.763 68.0999C176.781 68.4871 176.809 68.8558 176.846 69.2061H174.634C174.578 68.5424 174.551 67.8787 174.551 67.215H174.495C173.942 68.0631 173.288 68.6622 172.532 69.0125C171.776 69.3628 170.9 69.538 169.905 69.538C169.296 69.538 168.716 69.455 168.162 69.2891C167.609 69.1231 167.125 68.8743 166.711 68.5424C166.296 68.2106 165.969 67.8004 165.729 67.3118C165.489 66.8232 165.369 66.2563 165.369 65.6111C165.369 64.763 165.558 64.0532 165.936 63.4817C166.314 62.9101 166.83 62.4446 167.485 62.0851C168.139 61.7256 168.905 61.4675 169.78 61.3108C170.656 61.1541 171.592 61.0757 172.587 61.0757H174.412V60.5227C174.412 60.1908 174.348 59.859 174.219 59.5271C174.09 59.1952 173.896 58.8957 173.638 58.6283C173.38 58.361 173.057 58.149 172.67 57.9923C172.283 57.8356 171.822 57.7572 171.287 57.7572C170.808 57.7572 170.389 57.8033 170.029 57.8955C169.67 57.9877 169.342 58.1029 169.047 58.2412C168.752 58.3794 168.485 58.5408 168.245 58.7251C168.006 58.9095 167.775 59.0846 167.554 59.2506L166.061 57.7019ZM173.085 62.9009C172.495 62.9009 171.891 62.9332 171.274 62.9977C170.656 63.0622 170.094 63.1867 169.587 63.3711C169.08 63.5554 168.665 63.8135 168.342 64.1454C168.02 64.4772 167.858 64.9013 167.858 65.4175C167.858 66.1734 168.112 66.7172 168.619 67.0491C169.126 67.3809 169.813 67.5469 170.679 67.5469C171.361 67.5469 171.942 67.4316 172.421 67.2012C172.901 66.9707 173.288 66.6711 173.583 66.3024C173.878 65.9337 174.09 65.5235 174.219 65.0718C174.348 64.6201 174.412 64.173 174.412 63.7306V62.9009H173.085Z" fill="black"/>
<path d="M181.326 58.2552H178.505V56.0981H181.326V53.1668C181.326 51.4153 181.662 50.111 182.335 49.2537C183.008 48.3964 184.165 47.9678 185.806 47.9678C186.082 47.9678 186.373 47.977 186.677 47.9954C186.981 48.0139 187.308 48.0692 187.659 48.1614L187.382 50.3737C187.142 50.2815 186.912 50.217 186.691 50.1801C186.47 50.1432 186.23 50.1248 185.972 50.1248C185.511 50.1248 185.142 50.1939 184.866 50.3322C184.589 50.4705 184.372 50.6687 184.216 50.9268C184.059 51.1849 183.958 51.4937 183.912 51.8532C183.865 52.2127 183.842 52.6229 183.842 53.0838V56.0981H186.801V58.2552H183.815V69.2063H181.326V58.2552Z" fill="black"/>
<path d="M189.567 56.098H192.056V58.1167H192.111C192.277 57.7664 192.498 57.4484 192.775 57.1627C193.051 56.8769 193.36 56.6326 193.701 56.4298C194.042 56.227 194.416 56.0657 194.821 55.9459C195.227 55.826 195.632 55.7661 196.038 55.7661C196.444 55.7661 196.812 55.8214 197.144 55.932L197.034 58.6145C196.831 58.5592 196.628 58.5131 196.425 58.4762C196.222 58.4394 196.02 58.4209 195.817 58.4209C194.6 58.4209 193.669 58.762 193.024 59.4441C192.378 60.1263 192.056 61.1864 192.056 62.6244V69.2061H189.567V56.098Z" fill="black"/>
<path d="M199.993 56.0982H202.481V69.2063H199.993V56.0982ZM199.412 51.397C199.412 50.8992 199.592 50.4705 199.951 50.111C200.311 49.7515 200.739 49.5718 201.237 49.5718C201.735 49.5718 202.163 49.7515 202.523 50.111C202.882 50.4705 203.062 50.8992 203.062 51.397C203.062 51.8947 202.882 52.3234 202.523 52.6829C202.163 53.0424 201.735 53.2221 201.237 53.2221C200.739 53.2221 200.311 53.0424 199.951 52.6829C199.592 52.3234 199.412 51.8947 199.412 51.397Z" fill="black"/>
<path d="M215.811 59.5826C215.35 59.1032 214.866 58.7391 214.359 58.4902C213.852 58.2414 213.248 58.1169 212.548 58.1169C211.866 58.1169 211.271 58.2414 210.764 58.4902C210.257 58.7391 209.833 59.0802 209.492 59.5135C209.151 59.9467 208.893 60.4445 208.718 61.0068C208.542 61.5691 208.455 62.1544 208.455 62.7628C208.455 63.3712 208.556 63.9474 208.759 64.4912C208.962 65.0351 209.248 65.5098 209.616 65.9154C209.985 66.321 210.428 66.639 210.944 66.8695C211.46 67.1 212.041 67.2152 212.686 67.2152C213.387 67.2152 213.986 67.0907 214.484 66.8418C214.981 66.593 215.442 66.2288 215.866 65.7495L217.636 67.5194C216.991 68.2384 216.24 68.7546 215.382 69.068C214.525 69.3814 213.617 69.5381 212.658 69.5381C211.644 69.5381 210.718 69.3722 209.879 69.0404C209.04 68.7085 208.317 68.243 207.708 67.6438C207.1 67.0446 206.63 66.3256 206.298 65.4868C205.966 64.6479 205.8 63.7215 205.8 62.7075C205.8 61.6935 205.966 60.7625 206.298 59.9144C206.63 59.0664 207.095 58.3381 207.694 57.7297C208.294 57.1214 209.013 56.6466 209.851 56.3056C210.69 55.9645 211.626 55.7939 212.658 55.7939C213.617 55.7939 214.534 55.9645 215.41 56.3056C216.286 56.6466 217.046 57.1674 217.691 57.868L215.811 59.5826Z" fill="black"/>
<path d="M219.821 57.7019C220.521 57.0566 221.333 56.5727 222.254 56.2501C223.176 55.9274 224.098 55.7661 225.02 55.7661C225.978 55.7661 226.803 55.8859 227.495 56.1256C228.186 56.3653 228.753 56.6879 229.196 57.0935C229.638 57.4991 229.965 57.9646 230.177 58.4901C230.389 59.0155 230.495 59.564 230.495 60.1355V66.8278C230.495 67.2887 230.505 67.7128 230.523 68.0999C230.541 68.4871 230.569 68.8558 230.606 69.2061H228.394C228.338 68.5424 228.311 67.8787 228.311 67.215H228.255C227.702 68.0631 227.048 68.6622 226.292 69.0125C225.536 69.3628 224.66 69.538 223.665 69.538C223.056 69.538 222.476 69.455 221.922 69.2891C221.369 69.1231 220.885 68.8743 220.471 68.5424C220.056 68.2106 219.729 67.8004 219.489 67.3118C219.249 66.8232 219.129 66.2563 219.129 65.6111C219.129 64.763 219.318 64.0532 219.696 63.4817C220.074 62.9101 220.59 62.4446 221.245 62.0851C221.899 61.7256 222.665 61.4675 223.54 61.3108C224.416 61.1541 225.352 61.0757 226.347 61.0757H228.172V60.5227C228.172 60.1908 228.108 59.859 227.979 59.5271C227.85 59.1952 227.656 58.8957 227.398 58.6283C227.14 58.361 226.817 58.149 226.43 57.9923C226.043 57.8356 225.582 57.7572 225.047 57.7572C224.568 57.7572 224.149 57.8033 223.789 57.8955C223.43 57.9877 223.102 58.1029 222.807 58.2412C222.512 58.3794 222.245 58.5408 222.005 58.7251C221.766 58.9095 221.535 59.0846 221.314 59.2506L219.821 57.7019ZM226.845 62.9009C226.255 62.9009 225.651 62.9332 225.034 62.9977C224.416 63.0622 223.854 63.1867 223.347 63.3711C222.84 63.5554 222.425 63.8135 222.102 64.1454C221.78 64.4772 221.618 64.9013 221.618 65.4175C221.618 66.1734 221.872 66.7172 222.379 67.0491C222.886 67.3809 223.573 67.5469 224.439 67.5469C225.121 67.5469 225.702 67.4316 226.181 67.2012C226.661 66.9707 227.048 66.6711 227.343 66.3024C227.638 65.9337 227.85 65.5235 227.979 65.0718C228.108 64.6201 228.172 64.173 228.172 63.7306V62.9009H226.845Z" fill="black"/>
</g>
<defs>
<clipPath id="clip0_298_10467">
<rect width="159.506" height="40" fill="white" transform="translate(71.2031 30)"/>
</clipPath>
</defs>
</svg>
