<svg width="300" height="100" viewBox="0 0 300 100" fill="none" xmlns="http://www.w3.org/2000/svg">
<rect width="300" height="100" fill="white"/>
<path d="M51.8395 47.198C51.3926 46.1758 50.7832 45.314 50.0113 44.5925C49.2394 43.8709 48.305 43.3298 47.2285 42.9289C46.1519 42.528 44.994 42.3477 43.7346 42.3477C42.4752 42.3477 41.3174 42.5481 40.2408 42.9289C39.1642 43.3097 38.2501 43.8709 37.4782 44.5925C36.7063 45.314 36.0969 46.1758 35.65 47.198C35.2234 48.2202 35 49.3626 35 50.6254C35 51.888 35.2234 53.0305 35.65 54.0727C36.0969 55.115 36.7063 55.9968 37.4782 56.7383C38.2501 57.48 39.1845 58.0412 40.2408 58.442C41.297 58.8428 42.4752 59.0433 43.7346 59.0433C44.994 59.0433 46.1519 58.8428 47.2285 58.442C48.305 58.0412 49.2191 57.4599 50.0113 56.7383C50.7832 55.9968 51.3926 55.115 51.8395 54.0727C52.2864 53.0305 52.4895 51.888 52.4895 50.6254C52.5098 49.3626 52.2864 48.2202 51.8395 47.198ZM47.2488 52.2689C47.0659 52.7699 46.8019 53.1908 46.4566 53.5516C46.1315 53.9123 45.7253 54.1929 45.2581 54.3934C44.7909 54.5938 44.2831 54.6941 43.7346 54.6941C43.1658 54.6941 42.658 54.5938 42.2111 54.3934C41.7439 54.1929 41.358 53.9123 41.033 53.5516C40.708 53.1908 40.4439 52.7699 40.2611 52.2689C40.0783 51.7678 39.9767 51.2267 39.9767 50.6254C39.9767 50.0641 40.0783 49.523 40.2408 49.0419C40.4236 48.5409 40.6877 48.12 41.0127 47.7793C41.358 47.4385 41.7439 47.1579 42.2111 46.9575C42.6783 46.7571 43.1862 46.6569 43.7346 46.6569C44.3034 46.6569 44.8112 46.7571 45.2784 46.9575C45.7456 47.1579 46.1519 47.4385 46.4769 47.7793C46.8019 48.1401 47.0659 48.5609 47.2488 49.0419C47.4316 49.523 47.5331 50.0641 47.5331 50.6254C47.5331 51.2267 47.4519 51.7678 47.2488 52.2689Z" fill="#D29800"/>
<path d="M71.1978 42.9092L64.8805 58.7229H59.7616L53.4442 42.9092H58.5022L62.321 52.4696L66.1399 42.9092H71.1978Z" fill="#D29800"/>
<path d="M123.87 42.9092L127.099 51.5878H122.265L118.812 42.9092H123.87Z" fill="#D29800"/>
<path d="M136.565 42.9092L130.248 58.7229H125.271L131.588 42.9092H136.565Z" fill="#D29800"/>
<path d="M69.5118 58.7229L75.8292 42.9092H80.9481L87.2451 58.7229H82.2075L78.3886 49.1626L74.5698 58.7229H69.5118Z" fill="#D29800"/>
<path d="M103.13 58.7229L109.447 42.9092H114.566L120.883 58.7229H115.826L112.007 49.1626L108.188 58.7229H103.13Z" fill="#D29800"/>
<path d="M101.911 53.7323L100.103 58.7229H89.6014V42.9092H94.6594V53.7323H101.911Z" fill="#D29800"/>
<path d="M139.656 44.6785C140.449 43.9457 141.368 43.4013 142.412 43.0453C143.456 42.6684 144.5 42.48 145.544 42.48C146.63 42.48 147.559 42.6161 148.332 42.8883C149.125 43.1605 149.773 43.5269 150.274 43.9876C150.775 44.4482 151.141 44.9822 151.37 45.5894C151.621 46.1757 151.746 46.7934 151.746 47.4425V55.0433C151.746 55.5667 151.757 56.0483 151.777 56.488C151.798 56.9276 151.83 57.3464 151.872 57.7443H149.366C149.303 56.9905 149.272 56.2367 149.272 55.4829H149.209C148.583 56.4461 147.841 57.1266 146.985 57.5245C146.129 57.9223 145.137 58.1212 144.01 58.1212C143.32 58.1212 142.663 58.0271 142.036 57.8385C141.41 57.6501 140.856 57.3674 140.376 56.9905C139.917 56.6136 139.551 56.153 139.28 55.6085C139.008 55.0433 138.873 54.3941 138.873 53.6613C138.873 52.6981 139.081 51.892 139.499 51.2428C139.938 50.5937 140.522 50.0703 141.253 49.6724C142.005 49.2536 142.871 48.9605 143.853 48.793C144.855 48.6046 145.92 48.5104 147.048 48.5104H149.115V47.8822C149.115 47.5053 149.042 47.1284 148.896 46.7515C148.75 46.3746 148.53 46.0396 148.238 45.7464C147.946 45.4323 147.58 45.1915 147.142 45.024C146.703 44.8356 146.181 44.7414 145.576 44.7414C145.033 44.7414 144.552 44.7937 144.135 44.8984C143.738 45.0031 143.373 45.1392 143.039 45.3067C142.704 45.4533 142.402 45.6313 142.13 45.8406C141.859 46.05 141.598 46.249 141.347 46.4374L139.656 44.6785ZM147.612 50.5833C146.943 50.5833 146.254 50.6252 145.544 50.7089C144.855 50.7717 144.218 50.9079 143.634 51.1171C143.07 51.3265 142.6 51.6197 142.224 51.9966C141.869 52.3735 141.692 52.8552 141.692 53.4415C141.692 54.2999 141.974 54.9176 142.537 55.2945C143.122 55.6714 143.905 55.8598 144.887 55.8598C145.659 55.8598 146.317 55.7342 146.86 55.4829C147.403 55.2108 147.841 54.8653 148.175 54.4465C148.51 54.0278 148.75 53.5671 148.896 53.0646C149.042 52.541 149.115 52.028 149.115 51.5255V50.5833H147.612Z" fill="black"/>
<path d="M166.454 46.8146C165.932 46.2702 165.378 45.8619 164.794 45.5897C164.23 45.2966 163.551 45.15 162.758 45.15C161.985 45.15 161.307 45.2966 160.722 45.5897C160.158 45.8619 159.678 46.2493 159.281 46.7518C158.905 47.2334 158.613 47.7988 158.404 48.4478C158.216 49.076 158.122 49.7356 158.122 50.4266C158.122 51.1176 158.237 51.7771 158.467 52.4053C158.696 53.0126 159.02 53.5464 159.438 54.0071C159.855 54.4677 160.356 54.8342 160.941 55.1063C161.526 55.3576 162.183 55.4833 162.914 55.4833C163.708 55.4833 164.387 55.3472 164.95 55.0749C165.514 54.7819 166.036 54.3631 166.516 53.8187L168.521 55.8287C167.79 56.6454 166.934 57.2317 165.953 57.5876C164.992 57.9436 163.969 58.1216 162.883 58.1216C161.735 58.1216 160.68 57.9331 159.719 57.5562C158.78 57.1793 157.965 56.6558 157.276 55.9858C156.587 55.2949 156.055 54.4782 155.679 53.536C155.303 52.5728 155.115 51.5154 155.115 50.3638C155.115 49.2121 155.303 48.1547 155.679 47.1915C156.055 46.2284 156.577 45.4013 157.245 44.7103C157.934 44.0193 158.748 43.4854 159.688 43.1085C160.649 42.7106 161.714 42.5117 162.883 42.5117C163.969 42.5117 165.003 42.7106 165.984 43.1085C166.986 43.4854 167.853 44.0717 168.584 44.8673L166.454 46.8146Z" fill="black"/>
<path d="M171.009 44.6785C171.802 43.9457 172.721 43.4013 173.765 43.0453C174.809 42.6684 175.853 42.48 176.898 42.48C177.983 42.48 178.912 42.6161 179.684 42.8883C180.479 43.1605 181.126 43.5269 181.627 43.9876C182.128 44.4482 182.494 44.9822 182.723 45.5894C182.974 46.1757 183.099 46.7934 183.099 47.4425V55.0433C183.099 55.5667 183.11 56.0483 183.131 56.488C183.152 56.9276 183.182 57.3464 183.224 57.7443H180.718C180.656 56.9905 180.625 56.2367 180.625 55.4829H180.562C179.936 56.4461 179.195 57.1266 178.338 57.5245C177.482 57.9223 176.49 58.1212 175.363 58.1212C174.673 58.1212 174.016 58.0271 173.389 57.8385C172.763 57.6501 172.209 57.3674 171.729 56.9905C171.27 56.6136 170.904 56.153 170.633 55.6085C170.361 55.0433 170.226 54.3941 170.226 53.6613C170.226 52.6981 170.435 51.892 170.852 51.2428C171.291 50.5937 171.875 50.0703 172.606 49.6724C173.358 49.2536 174.225 48.9605 175.206 48.793C176.208 48.6046 177.273 48.5104 178.4 48.5104H180.468V47.8822C180.468 47.5053 180.395 47.1284 180.249 46.7515C180.103 46.3746 179.883 46.0396 179.591 45.7464C179.299 45.4323 178.933 45.1915 178.495 45.024C178.057 44.8356 177.535 44.7414 176.928 44.7414C176.386 44.7414 175.906 44.7937 175.488 44.8984C175.092 45.0031 174.726 45.1392 174.392 45.3067C174.058 45.4533 173.755 45.6313 173.483 45.8406C173.212 46.05 172.951 46.249 172.7 46.4374L171.009 44.6785ZM178.965 50.5833C178.296 50.5833 177.607 50.6252 176.898 50.7089C176.208 50.7717 175.572 50.9079 174.986 51.1171C174.423 51.3265 173.953 51.6197 173.577 51.9966C173.222 52.3735 173.045 52.8552 173.045 53.4415C173.045 54.2999 173.327 54.9176 173.89 55.2945C174.475 55.6714 175.259 55.8598 176.24 55.8598C177.012 55.8598 177.67 55.7342 178.212 55.4829C178.756 55.2108 179.195 54.8653 179.529 54.4465C179.863 54.0278 180.103 53.5671 180.249 53.0646C180.395 52.541 180.468 52.028 180.468 51.5255V50.5833H178.965Z" fill="black"/>
<path d="M202.066 57.7446H199.248V55.6088H199.185C198.642 56.4045 197.89 57.0222 196.93 57.4618C195.991 57.9016 195.019 58.1215 194.016 58.1215C192.869 58.1215 191.824 57.9225 190.885 57.5247C189.966 57.1268 189.172 56.572 188.504 55.86C187.857 55.1481 187.356 54.3211 187 53.3788C186.645 52.4366 186.469 51.4105 186.469 50.3008C186.469 49.1911 186.645 48.165 187 47.2228C187.356 46.2596 187.857 45.4326 188.504 44.7416C189.172 44.0297 189.966 43.4748 190.885 43.077C191.824 42.6791 192.869 42.4802 194.016 42.4802C195.082 42.4802 196.084 42.7105 197.024 43.1712C197.963 43.6109 198.684 44.2181 199.185 44.9928H199.248V34H202.066V57.7446ZM194.361 55.4831C195.113 55.4831 195.792 55.3575 196.397 55.1062C197.003 54.8341 197.514 54.4781 197.933 54.0384C198.35 53.5777 198.673 53.0333 198.903 52.4051C199.134 51.7561 199.248 51.0546 199.248 50.3008C199.248 49.547 199.134 48.8561 198.903 48.2279C198.673 47.5788 198.35 47.0344 197.933 46.5947C197.514 46.134 197.003 45.778 196.397 45.5268C195.792 45.2546 195.113 45.1185 194.361 45.1185C193.61 45.1185 192.931 45.2546 192.326 45.5268C191.719 45.778 191.209 46.134 190.791 46.5947C190.373 47.0344 190.05 47.5788 189.82 48.2279C189.591 48.8561 189.475 49.547 189.475 50.3008C189.475 51.0546 189.591 51.7561 189.82 52.4051C190.05 53.0333 190.373 53.5777 190.791 54.0384C191.209 54.4781 191.719 54.8341 192.326 55.1062C192.931 55.3575 193.61 55.4831 194.361 55.4831Z" fill="black"/>
<path d="M208.466 51.3371C208.466 51.9861 208.603 52.5829 208.874 53.1273C209.166 53.6508 209.542 54.1009 210.001 54.4778C210.462 54.8547 210.993 55.1479 211.6 55.3573C212.205 55.5667 212.831 55.6714 213.478 55.6714C214.356 55.6714 215.118 55.4725 215.765 55.0746C216.412 54.6559 217.008 54.1115 217.55 53.4415L219.68 55.0746C218.114 57.1057 215.921 58.1212 213.102 58.1212C211.934 58.1212 210.868 57.9223 209.908 57.5245C208.967 57.1266 208.165 56.5822 207.495 55.8913C206.848 55.1793 206.347 54.3522 205.993 53.41C205.638 52.4468 205.46 51.4103 205.46 50.3006C205.46 49.1909 205.648 48.1648 206.023 47.2226C206.42 46.2594 206.953 45.4323 207.621 44.7414C208.311 44.0294 209.125 43.4746 210.064 43.0767C211.004 42.6789 212.027 42.48 213.134 42.48C214.449 42.48 215.557 42.7103 216.454 43.171C217.372 43.6316 218.125 44.2388 218.709 44.9926C219.294 45.7255 219.711 46.563 219.963 47.5053C220.234 48.4266 220.369 49.3688 220.369 50.332V51.3371H208.466ZM217.362 49.0757C217.342 48.4475 217.237 47.8717 217.049 47.3482C216.882 46.8248 216.621 46.3746 216.266 45.9977C215.911 45.5999 215.462 45.2962 214.919 45.0869C214.398 44.8565 213.781 44.7414 213.072 44.7414C212.382 44.7414 211.746 44.8775 211.16 45.1497C210.597 45.4009 210.117 45.736 209.72 46.1547C209.323 46.5735 209.009 47.0446 208.779 47.5681C208.571 48.0706 208.466 48.5731 208.466 49.0757H217.362Z" fill="black"/>
<path d="M223.742 42.8569H226.373V45.1811H226.435C226.498 44.9717 226.655 44.7099 226.905 44.3959C227.177 44.0818 227.511 43.7887 227.907 43.5164C228.325 43.2233 228.806 42.9825 229.349 42.7941C229.912 42.5847 230.528 42.48 231.196 42.48C232.304 42.48 233.233 42.7103 233.984 43.171C234.736 43.6316 235.352 44.3226 235.832 45.2439C236.312 44.3226 236.991 43.6316 237.867 43.171C238.745 42.7103 239.633 42.48 240.53 42.48C241.68 42.48 242.619 42.6684 243.349 43.0453C244.081 43.4222 244.654 43.9248 245.072 44.5529C245.49 45.1601 245.771 45.8616 245.918 46.6573C246.085 47.432 246.168 48.2381 246.168 49.0757V57.7443H243.349V49.4526C243.349 48.8873 243.307 48.3429 243.224 47.8194C243.161 47.2959 243.015 46.8352 242.786 46.4374C242.556 46.0396 242.232 45.7255 241.815 45.4952C241.397 45.2439 240.843 45.1183 240.155 45.1183C238.797 45.1183 237.826 45.537 237.241 46.3746C236.657 47.2121 236.365 48.2904 236.365 49.6097V57.7443H233.546V49.9551C233.546 49.2432 233.504 48.5942 233.421 48.0079C233.358 47.4215 233.212 46.919 232.981 46.5002C232.773 46.0605 232.459 45.7255 232.042 45.4952C231.646 45.2439 231.103 45.1183 230.413 45.1183C229.912 45.1183 229.421 45.223 228.941 45.4323C228.482 45.6208 228.074 45.9139 227.719 46.3118C227.365 46.7096 227.082 47.2226 226.873 47.8508C226.665 48.4579 226.56 49.1804 226.56 50.0179V57.7443H223.742V42.8569Z" fill="black"/>
<path d="M248.629 42.8569H251.886L256.304 54.4779H256.366L260.564 42.8569H263.601L256.554 60.948C256.304 61.5971 256.042 62.1834 255.771 62.7069C255.5 63.2513 255.175 63.712 254.8 64.0889C254.424 64.4657 253.965 64.7588 253.422 64.9682C252.899 65.1776 252.252 65.2824 251.48 65.2824C251.063 65.2824 250.634 65.2509 250.196 65.1882C249.778 65.1463 249.371 65.0415 248.974 64.874L249.318 62.2986C249.883 62.5288 250.446 62.644 251.01 62.644C251.448 62.644 251.814 62.5813 252.106 62.4556C252.419 62.3509 252.681 62.1834 252.889 61.9531C253.119 61.7437 253.307 61.4924 253.453 61.1993C253.599 60.9061 253.745 60.5711 253.891 60.1942L254.8 57.8386L248.629 42.8569Z" fill="black"/>
</svg>
