<svg width="300" height="100" viewBox="0 0 300 100" fill="none" xmlns="http://www.w3.org/2000/svg">
<rect width="300" height="100" fill="white"/>
<path d="M188.417 46.0879C188.594 46.0891 188.767 46.1345 188.921 46.2199C189.082 46.3064 189.215 46.4378 189.303 46.5983C189.392 46.7548 189.439 46.9318 189.44 47.1119C189.439 47.2903 189.393 47.4656 189.305 47.6207C189.217 47.7807 189.086 47.9122 188.926 47.9999C188.771 48.088 188.596 48.1343 188.417 48.1343C188.239 48.1343 188.063 48.088 187.908 47.9999C187.748 47.9121 187.617 47.7805 187.529 47.6207C187.439 47.4651 187.392 47.2889 187.392 47.1095C187.392 46.9301 187.439 46.7538 187.529 46.5983C187.617 46.4376 187.75 46.3061 187.912 46.2199C188.067 46.1339 188.241 46.0885 188.417 46.0879ZM188.417 46.2575C188.271 46.2587 188.128 46.2967 188 46.3679C187.865 46.4401 187.754 46.5499 187.68 46.6839C187.605 46.8134 187.566 46.9603 187.566 47.1099C187.566 47.2594 187.605 47.4063 187.68 47.5359C187.754 47.6697 187.865 47.7793 188 47.8519C188.129 47.9263 188.275 47.9655 188.424 47.9655C188.573 47.9655 188.72 47.9263 188.849 47.8519C188.984 47.7798 189.095 47.67 189.169 47.5359C189.242 47.4067 189.281 47.2606 189.281 47.1119C189.281 46.9617 189.241 46.8143 189.167 46.6839C189.093 46.5499 188.982 46.4401 188.847 46.3679C188.716 46.295 188.568 46.257 188.417 46.2575ZM187.969 47.6799V46.5759H188.346C188.441 46.5715 188.536 46.582 188.627 46.6071C188.684 46.6259 188.733 46.6634 188.765 46.7135C188.799 46.7603 188.817 46.8161 188.817 46.8735C188.818 46.9126 188.81 46.9513 188.796 46.9874C188.781 47.0236 188.759 47.0564 188.731 47.0839C188.67 47.1453 188.589 47.1814 188.502 47.1847C188.537 47.1978 188.569 47.2176 188.596 47.2431C188.657 47.3097 188.711 47.3829 188.756 47.4615L188.89 47.6767H188.673L188.575 47.5031C188.529 47.4073 188.466 47.3205 188.389 47.2471C188.348 47.2188 188.298 47.2053 188.247 47.2087H188.143V47.6799H187.969ZM188.146 47.0599H188.361C188.435 47.0672 188.509 47.0513 188.573 47.0143C188.591 46.9996 188.605 46.9809 188.615 46.9597C188.625 46.9384 188.629 46.9152 188.629 46.8919C188.629 46.8606 188.62 46.8301 188.601 46.8047C188.583 46.7783 188.557 46.7583 188.526 46.7471C188.468 46.731 188.408 46.7245 188.348 46.7279H188.146V47.0599Z" fill="#58595B"/>
<path d="M123.103 46.6577C124.8 46.6577 126.175 45.2823 126.175 43.5857C126.175 41.8891 124.8 40.5137 123.103 40.5137C121.407 40.5137 120.031 41.8891 120.031 43.5857C120.031 45.2823 121.407 46.6577 123.103 46.6577Z" fill="#F16522"/>
<path d="M127.454 60.1728C129.151 60.1728 130.526 58.7974 130.526 57.1008C130.526 55.4042 129.151 54.0288 127.454 54.0288C125.758 54.0288 124.382 55.4042 124.382 57.1008C124.382 58.7974 125.758 60.1728 127.454 60.1728Z" fill="#F16522"/>
<path d="M113.632 57.3066C115.329 57.3066 116.704 55.9312 116.704 54.2346C116.704 52.538 115.329 51.1626 113.632 51.1626C111.935 51.1626 110.56 52.538 110.56 54.2346C110.56 55.9312 111.935 57.3066 113.632 57.3066Z" fill="#F16522"/>
<path d="M114.042 50.0361C115.145 50.0361 116.039 49.1421 116.039 48.0393C116.039 46.9365 115.145 46.0425 114.042 46.0425C112.939 46.0425 112.045 46.9365 112.045 48.0393C112.045 49.1421 112.939 50.0361 114.042 50.0361Z" fill="#F6921E"/>
<path d="M128.325 49.2177C129.427 49.2177 130.321 48.3237 130.321 47.2209C130.321 46.1181 129.427 45.2241 128.325 45.2241C127.222 45.2241 126.328 46.1181 126.328 47.2209C126.328 48.3237 127.222 49.2177 128.325 49.2177Z" fill="#F6921E"/>
<path d="M121.772 61.7089C122.875 61.7089 123.769 60.8149 123.769 59.7121C123.769 58.6093 122.875 57.7153 121.772 57.7153C120.669 57.7153 119.775 58.6093 119.775 59.7121C119.775 60.8149 120.669 61.7089 121.772 61.7089Z" fill="#F6921E"/>
<path d="M117.062 59.9679C117.825 59.9679 118.444 59.349 118.444 58.5855C118.444 57.822 117.825 57.2031 117.062 57.2031C116.298 57.2031 115.679 57.822 115.679 58.5855C115.679 59.349 116.298 59.9679 117.062 59.9679Z" fill="#FFC10E"/>
<path d="M129.656 53.1081C130.42 53.1081 131.038 52.4891 131.038 51.7257C131.038 50.9622 130.42 50.3433 129.656 50.3433C128.893 50.3433 128.274 50.9622 128.274 51.7257C128.274 52.4891 128.893 53.1081 129.656 53.1081Z" fill="#FFC10E"/>
<path d="M117.369 45.9406C118.132 45.9406 118.751 45.3217 118.751 44.5582C118.751 43.7947 118.132 43.1758 117.369 43.1758C116.605 43.1758 115.986 43.7947 115.986 44.5582C115.986 45.3217 116.605 45.9406 117.369 45.9406Z" fill="#FFC10E"/>
<path d="M140.598 61.9999V46.4703H142.258V48.4327C142.651 47.6796 143.171 47.1015 143.818 46.6983C144.465 46.2948 145.215 46.085 145.978 46.0935C147.448 46.0935 148.629 46.6071 149.521 47.6343C150.413 48.6615 150.858 50.0234 150.858 51.7199C150.858 53.4468 150.421 54.8183 149.549 55.8343C148.676 56.8503 147.509 57.3588 146.046 57.3599C145.206 57.3599 144.475 57.1639 143.851 56.7719C143.228 56.3799 142.719 55.7959 142.325 55.0199V61.9999H140.598ZM142.278 51.7167C142.278 52.89 142.593 53.8298 143.225 54.5359C143.856 55.242 144.693 55.5967 145.734 55.5999C146.751 55.5999 147.551 55.2764 148.134 54.6295C148.718 53.9826 149.009 53.0847 149.009 51.9359C149.009 50.65 148.717 49.642 148.134 48.9119C147.552 48.1818 146.74 47.8164 145.7 47.8159C144.638 47.8159 143.802 48.1626 143.193 48.8559C142.584 49.5492 142.28 50.5039 142.28 51.7199L142.278 51.7167Z" fill="#58595B"/>
<path d="M162.11 46.4703V56.9127H160.417V55.0183C160.008 55.7788 159.486 56.3591 158.851 56.7591C158.213 57.1596 157.473 57.3682 156.72 57.3599C155.257 57.3599 154.077 56.8444 153.182 55.8135C152.288 54.7826 151.84 53.418 151.84 51.7199C151.84 50.0004 152.275 48.6327 153.144 47.6167C154.013 46.6007 155.176 46.094 156.631 46.0967C157.485 46.0967 158.225 46.2927 158.854 46.6847C159.482 47.0767 159.989 47.6604 160.374 48.4359V46.4703H162.11ZM160.417 51.7887C160.417 50.6095 160.103 49.6602 159.475 48.9407C158.848 48.2212 158.029 47.8618 157.018 47.8623C155.972 47.8623 155.154 48.1932 154.567 48.8551C153.98 49.517 153.687 50.4415 153.687 51.6287C153.687 52.8916 153.982 53.8655 154.573 54.5503C155.163 55.2351 156.001 55.5775 157.086 55.5775C158.126 55.5775 158.941 55.2447 159.531 54.5791C160.122 53.9135 160.417 52.9834 160.417 51.7887Z" fill="#58595B"/>
<path d="M174.063 46.4702V56.7302C174.063 57.8636 173.989 58.6702 173.841 59.1502C173.692 59.6282 173.442 60.068 173.106 60.439C172.628 60.9661 172.029 61.3696 171.362 61.615C170.675 61.8716 169.886 61.9998 168.994 61.9998C167.448 61.9998 166.242 61.6385 165.378 60.9158C164.514 60.1932 164.063 59.1697 164.025 57.8454H165.986V57.9822C165.986 58.7662 166.249 59.3713 166.777 59.7974C167.304 60.2236 168.051 60.4369 169.017 60.4374C169.715 60.4374 170.311 60.3214 170.806 60.0894C171.282 59.873 171.678 59.5115 171.936 59.0566C172.099 58.7794 172.212 58.4759 172.27 58.1598C172.337 57.8174 172.37 57.3268 172.37 56.6878V54.9278C171.976 55.6745 171.46 56.247 170.822 56.6454C170.177 57.0464 169.431 57.2543 168.671 57.2446C167.207 57.2446 166.028 56.7348 165.134 55.715C164.239 54.6953 163.792 53.3409 163.791 51.6518C163.791 49.9452 164.226 48.5929 165.094 47.595C165.963 46.5972 167.126 46.0969 168.582 46.0942C169.429 46.0942 170.172 46.2902 170.81 46.6822C171.449 47.0742 171.954 47.6505 172.326 48.411V46.4702H174.063ZM172.37 51.7198C172.37 50.5465 172.058 49.603 171.434 48.8894C170.811 48.1758 169.99 47.8182 168.972 47.8166C167.925 47.8166 167.108 48.1476 166.521 48.8094C165.934 49.4713 165.641 50.3958 165.641 51.583C165.641 52.8465 165.936 53.8204 166.526 54.5046C167.117 55.1889 167.955 55.5313 169.04 55.5318C170.08 55.5318 170.895 55.1953 171.486 54.5222C172.076 53.8492 172.371 52.915 172.37 51.7198Z" fill="#58595B"/>
<path d="M186.061 46.4703V56.9127H184.367V55.0183C183.959 55.7794 183.437 56.3596 182.8 56.7591C182.162 57.1596 181.422 57.3682 180.669 57.3599C179.205 57.3599 178.026 56.8444 177.131 55.8135C176.237 54.7826 175.789 53.418 175.789 51.7199C175.789 50.0004 176.223 48.6327 177.092 47.6167C177.961 46.6007 179.123 46.094 180.579 46.0967C181.433 46.0967 182.174 46.2927 182.802 46.6847C183.431 47.0767 183.938 47.6604 184.322 48.4359V46.4703H186.061ZM184.367 51.7887C184.367 50.6095 184.054 49.6602 183.426 48.9407C182.799 48.2212 181.98 47.8618 180.97 47.8623C179.922 47.8623 179.105 48.1932 178.518 48.8551C177.932 49.517 177.638 50.4415 177.638 51.6287C177.638 52.8916 177.934 53.8655 178.524 54.5503C179.114 55.2351 179.953 55.5775 181.04 55.5775C182.08 55.5775 182.895 55.2447 183.486 54.5791C184.076 53.9135 184.37 52.9834 184.367 51.7887Z" fill="#58595B"/>
</svg>
