<svg width="300" height="100" viewBox="0 0 300 100" fill="none" xmlns="http://www.w3.org/2000/svg">
<rect width="300" height="100" fill="white"/>
<g clip-path="url(#clip0_298_10439)">
<path d="M98.9767 30.0408C86.9648 29.2825 77.0646 39.1938 77.822 51.2192C78.4483 61.1357 86.4857 69.1821 96.3912 69.8091C108.403 70.5701 118.303 60.6562 117.546 48.6307C116.92 38.7142 108.882 30.6678 98.9767 30.0408ZM99.065 66.9019C88.5814 67.7299 79.8989 59.035 80.726 48.5397C81.3764 40.2843 88.0595 33.5938 96.3056 32.9426C106.789 32.1147 115.472 40.8068 114.645 51.3022C113.994 59.5576 107.314 66.2482 99.065 66.8992V66.9019Z" fill="#154AF5"/>
<path d="M110.775 44.5071H108.074C107.911 44.5071 107.753 44.5714 107.638 44.6866L97.1836 55.1525C96.9427 55.3936 96.552 55.3936 96.3137 55.1525L95.5216 54.3594C95.2806 54.1183 94.8899 54.1183 94.6516 54.3594L93.3027 55.7098C93.0619 55.9509 93.0619 56.3421 93.3027 56.5807L96.3137 59.5951C96.5547 59.8362 96.9454 59.8362 97.1836 59.5951L98.9688 57.8079H98.9715L111.211 45.5574C111.599 45.1689 111.323 44.5044 110.775 44.5044V44.5071Z" fill="#154AF5"/>
<path d="M101.878 44.5071H99.1773C99.0141 44.5071 98.8561 44.5714 98.7411 44.6866L92.7324 50.7019C92.4915 50.9431 92.1008 50.9431 91.8626 50.7019L91.0703 49.9088C90.8295 49.6677 90.4387 49.6677 90.2005 49.9088L88.8516 51.2592C88.6107 51.5005 88.6107 51.8915 88.8516 52.1301L91.8626 55.1445C92.1035 55.3856 92.4942 55.3856 92.7324 55.1445L94.515 53.36H94.5176L102.317 45.5574C102.705 45.1689 102.429 44.5044 101.881 44.5044L101.878 44.5071Z" fill="#154AF5"/>
<path d="M93.0082 44.5071H90.3076C90.1444 44.5071 89.9865 44.5714 89.8714 44.6866L88.2949 46.2648C88.0541 46.5059 87.6633 46.5059 87.4251 46.2648L86.6409 45.4797C86.4 45.2386 86.0093 45.2386 85.771 45.4797L84.4221 46.8301C84.1812 47.0714 84.1812 47.4624 84.4221 47.701L87.4305 50.7127C87.6713 50.9538 88.0621 50.9538 88.3003 50.7127L90.0855 48.9255L93.4471 45.5574C93.8352 45.1689 93.5595 44.5044 93.0109 44.5044L93.0082 44.5071Z" fill="#154AF5"/>
<path d="M197.932 48.205V38.3369H200.989V61.5949H197.932V51.1288H186.635V61.5949H183.545V38.3369H186.635V48.205H197.932Z" fill="#154AF5"/>
<path d="M221.848 61.5949H218.426L213.209 52.6904H207.727V61.5949H204.637V38.3369H213.94C215.934 38.3369 217.639 39.0457 219.057 40.4634C220.475 41.8588 221.183 43.5534 221.183 45.5469C221.183 47.0532 220.729 48.4264 219.821 49.6669C218.891 50.9295 217.739 51.8044 216.366 52.2917L221.848 61.5949ZM213.94 41.2276H207.727V49.8996H213.94C215.092 49.8996 216.067 49.4786 216.864 48.6368C217.684 47.7952 218.093 46.7652 218.093 45.5469C218.093 44.3286 217.684 43.3097 216.864 42.4901C216.067 41.6484 215.092 41.2276 213.94 41.2276Z" fill="#154AF5"/>
<path d="M122.387 38.1914H130.842C132.972 38.1914 134.758 38.9126 136.201 40.3551C137.643 41.7975 138.364 43.5728 138.364 45.681C138.364 47.7892 137.643 49.5644 136.201 51.007C134.758 52.4494 132.972 53.1707 130.842 53.1707H125.482V61.4924H122.387V38.1914ZM125.482 50.2747H130.842C132.151 50.2747 133.216 49.8419 134.037 48.9764C134.88 48.0665 135.302 46.9681 135.302 45.681C135.302 44.3495 134.88 43.251 134.037 42.3856C133.194 41.5201 132.129 41.0874 130.842 41.0874H125.482V50.2747Z" fill="#154AF5"/>
<path d="M152.903 47.7114V44.8488H155.799V61.4924H152.903V58.6296C151.483 60.8266 149.386 61.925 146.612 61.925C144.259 61.925 142.273 61.0818 140.653 59.3952C139.011 57.6864 138.19 55.6116 138.19 53.1706C138.19 50.7517 139.011 48.6879 140.653 46.9791C142.295 45.2704 144.282 44.416 146.612 44.416C149.386 44.416 151.483 45.5145 152.903 47.7114ZM146.978 59.129C148.664 59.129 150.074 58.5631 151.205 57.4312C152.337 56.2551 152.903 54.8349 152.903 53.1706C152.903 51.484 152.337 50.0748 151.205 48.9431C150.074 47.7892 148.664 47.2122 146.978 47.2122C145.314 47.2122 143.915 47.7892 142.784 48.9431C141.652 50.0748 141.086 51.484 141.086 53.1706C141.086 54.8349 141.652 56.2551 142.784 57.4312C143.915 58.5631 145.314 59.129 146.978 59.129Z" fill="#154AF5"/>
<path d="M160.32 41.8194C159.765 41.8194 159.299 41.6308 158.922 41.2535C158.544 40.8763 158.356 40.4213 158.356 39.8888C158.356 39.3562 158.544 38.9012 158.922 38.524C159.299 38.1245 159.765 37.9248 160.32 37.9248C160.852 37.9248 161.307 38.1245 161.685 38.524C162.062 38.9012 162.251 39.3562 162.251 39.8888C162.251 40.4213 162.062 40.8763 161.685 41.2535C161.307 41.6308 160.852 41.8194 160.32 41.8194ZM161.751 61.4921H158.855V44.8485H161.751V61.4921Z" fill="#154AF5"/>
<path d="M178.619 47.7115V38.1914H181.515V61.4924H178.619V58.6297C177.198 60.8267 175.101 61.9251 172.327 61.9251C169.975 61.9251 167.989 61.0819 166.369 59.3953C164.727 57.6865 163.906 55.6116 163.906 53.1707C163.906 50.7518 164.727 48.688 166.369 46.9792C168.011 45.2705 169.997 44.4161 172.327 44.4161C175.101 44.4161 177.198 45.5146 178.619 47.7115ZM172.694 59.1291C174.38 59.1291 175.789 58.5632 176.921 57.4313C178.053 56.2552 178.619 54.835 178.619 53.1707C178.619 51.4841 178.053 50.0748 176.921 48.9432C175.789 47.7892 174.38 47.2123 172.694 47.2123C171.029 47.2123 169.631 47.7892 168.499 48.9432C167.368 50.0748 166.802 51.4841 166.802 53.1707C166.802 54.835 167.368 56.2552 168.499 57.4313C169.631 58.5632 171.029 59.1291 172.694 59.1291Z" fill="#154AF5"/>
</g>
<defs>
<clipPath id="clip0_298_10439">
<rect width="144.16" height="40" fill="white" transform="translate(77.7031 30)"/>
</clipPath>
</defs>
</svg>
