<svg width="300" height="100" viewBox="0 0 300 100" fill="none" xmlns="http://www.w3.org/2000/svg">
<rect width="300" height="100" fill="white"/>
<g clip-path="url(#clip0_298_10427)">
<path fill-rule="evenodd" clip-rule="evenodd" d="M104.633 59.4138C104.993 58.089 104.702 57.3411 104.425 56.9916C104.149 56.6421 103.488 56.1859 102.116 56.2317C100.745 56.2774 98.988 56.8542 97.3317 58.1645C95.6753 59.4746 94.7095 61.0518 94.3495 62.375C93.9889 63.6999 94.2807 64.4478 94.5571 64.7973C94.8337 65.1468 95.4942 65.6028 96.8665 65.5571C98.237 65.5113 99.9943 64.9345 101.651 63.6244C103.307 62.3143 104.273 60.737 104.633 59.4138ZM104.405 67.1066C109.053 63.4299 110.621 57.668 107.907 54.237C105.193 50.8061 99.2253 51.0054 94.5771 54.6821C89.929 58.3589 88.3609 64.1209 91.0749 67.5517C93.7887 70.9827 99.757 70.7835 104.405 67.1066ZM71.2783 59.4138C70.9179 58.089 71.2096 57.3411 71.4861 56.9916C71.7625 56.6421 72.4232 56.1859 73.7955 56.2317C75.166 56.2774 76.9231 56.8542 78.5795 58.1645C80.2358 59.4746 81.2016 61.0518 81.5618 62.375C81.9222 63.6999 81.6305 64.4478 81.354 64.7973C81.0776 65.1468 80.4169 65.6028 79.0446 65.5571C77.6741 65.5113 75.917 64.9345 74.2607 63.6244C72.6043 62.3143 71.6385 60.737 71.2783 59.4138ZM71.506 67.1066C66.8577 63.4299 65.2899 57.668 68.0037 54.237C70.7177 50.8061 76.6858 51.0054 81.3341 54.6821C85.9823 58.3589 87.5502 64.1209 84.8364 67.5517C82.1224 70.9827 76.1541 70.7835 71.506 67.1066ZM71.2776 40.5865C70.9171 41.9113 71.2088 42.6591 71.4854 43.0087C71.7618 43.3582 72.4225 43.8143 73.7946 43.7685C75.1652 43.7228 76.9224 43.146 78.5787 41.8359C80.235 40.5257 81.2009 38.9484 81.561 37.6253C81.9215 36.3003 81.6298 35.5525 81.3532 35.203C81.0768 34.8534 80.4162 34.3974 79.0439 34.4431C77.6734 34.489 75.9162 35.0656 74.2599 36.3758C72.6036 37.686 71.6377 39.2632 71.2776 40.5865ZM71.5053 32.8936C66.8571 36.5703 65.2891 42.3323 68.003 45.7633C70.717 49.1941 76.6851 48.9949 81.3333 45.3182C85.9816 41.6413 87.5495 35.8794 84.8356 32.4485C82.1216 29.0173 76.1535 29.2167 71.5053 32.8936ZM104.633 40.5863C104.993 41.9113 104.701 42.6591 104.425 43.0087C104.148 43.3582 103.488 43.8143 102.115 43.7685C100.745 43.7227 98.9877 43.146 97.3314 41.8359C95.6752 40.5257 94.7093 38.9484 94.3492 37.6251C93.9887 36.3003 94.2804 35.5525 94.557 35.203C94.8334 34.8534 95.4941 34.3973 96.8662 34.4431C98.2368 34.489 99.994 35.0656 101.65 36.3757C103.307 37.686 104.272 39.2632 104.633 40.5863ZM104.405 32.8934C109.053 36.5703 110.621 42.3323 107.907 45.7631C105.193 49.1941 99.225 48.9949 94.5769 45.3182C89.9287 41.6413 88.3607 35.8794 91.0746 32.4484C93.7886 29.0175 99.7567 29.2167 104.405 32.8934Z" fill="black"/>
<path d="M122.997 38.8527V39.6246C122.997 40.4349 122.804 41.0523 122.457 41.7468C122.302 42.1327 122.032 42.5958 122.418 42.7888C122.804 42.9817 123.035 42.4802 123.113 42.3257C124.348 40.1648 126.393 38.544 129.557 38.544C134.844 38.544 138.432 43.1747 138.432 49.04C138.432 54.9055 134.844 59.536 129.557 59.536C126.47 59.536 124.348 57.9539 123.113 55.7158C123.035 55.6 122.881 55.2142 122.534 55.3299C122.109 55.4844 122.264 55.8701 122.457 56.256C122.804 56.9506 122.997 57.5681 122.997 58.3398V65.7305H118.058V38.8527H122.997ZM128.399 55.0598C131.872 55.0598 133.493 52.2815 133.493 49.04C133.493 45.7987 131.872 43.0202 128.399 43.0202C125.158 43.0202 122.997 45.7987 122.997 49.04C122.997 52.2815 125.158 55.0598 128.399 55.0598ZM140.3 53.6321C140.3 49.1172 143.618 47.458 147.709 47.2264C151.336 47.0334 154.539 47.3807 154.5 45.4899C154.462 44.1007 153.921 42.5572 150.41 42.5572C146.937 42.5572 146.05 43.9849 145.779 45.6444H140.917C141.612 40.5121 146.011 38.544 150.564 38.544C155.233 38.544 159.44 40.0875 159.44 47.9596V59.2274H154.5V57.7996C154.5 56.8734 154.732 56.2175 155.079 55.5615C155.233 55.2142 155.388 54.8283 155.041 54.6739C154.655 54.5196 154.5 54.9055 154.423 55.0984C153.265 57.9154 151.027 59.536 147.4 59.536C143.58 59.536 140.3 57.0664 140.3 53.6321ZM154.5 48.7314C153.343 50.0048 151.49 50.1978 148.558 50.5064C146.435 50.738 145.239 51.5483 145.239 53.362C145.239 55.0598 146.86 56.1402 149.137 55.8316C151.761 55.4844 154.462 53.7864 154.5 48.7314ZM167.419 43.2132C167.65 43.2518 167.843 42.9431 167.882 42.8273C169.117 40.0103 170.236 38.5441 175.214 38.5441V43.5605C169.464 43.1747 167.805 45.2198 167.805 50.3906V59.2274H162.866V38.8527H167.805V39.9718C167.805 40.8593 167.573 41.6312 167.226 42.3257C167.072 42.673 166.956 43.136 167.419 43.2132ZM191.713 43.1747H186.156V52.4745C186.156 54.7125 186.195 54.9055 188.278 54.9055H191.713V59.2274H187.237C183.146 59.2274 181.217 57.8767 181.217 52.976V43.1747H177.512V38.8526H181.217V34.3447H186.156V38.8527H191.713V43.1747ZM206.175 38.544C210.574 38.544 213.507 41.3996 213.507 47.1879V59.2274H208.568V48.8857C208.568 44.2936 207.372 43.0202 204.786 43.0202C201.931 43.0202 199.307 46.2231 199.307 50.9309V59.2274H194.367V38.8527H199.307V40.1262C199.307 41.3611 199.075 42.0942 198.689 42.9046C198.535 43.2518 198.303 43.7921 198.805 43.9079C199.114 43.985 199.229 43.7536 199.384 43.4448C200.31 41.3996 202.625 38.544 206.175 38.544ZM215.969 53.6321C215.969 49.1172 219.288 47.458 223.377 47.2264C227.006 47.0334 230.207 47.3807 230.17 45.4899C230.131 44.1007 229.59 42.5572 226.079 42.5572C222.606 42.5572 221.719 43.9849 221.448 45.6444H216.586C217.282 40.5121 221.68 38.544 226.233 38.544C230.903 38.544 235.109 40.0875 235.109 47.9596V59.2274H230.17V57.7996C230.17 56.8734 230.401 56.2175 230.748 55.5615C230.903 55.2142 231.057 54.8283 230.709 54.6739C230.324 54.5196 230.17 54.9055 230.092 55.0984C228.934 57.9154 226.696 59.536 223.069 59.536C219.249 59.536 215.969 57.0664 215.969 53.6321ZM230.17 48.7314C229.012 50.0048 227.16 50.1978 224.227 50.5064C222.104 50.738 220.909 51.5483 220.909 53.362C220.909 55.0598 222.53 56.1402 224.805 55.8316C227.43 55.4844 230.131 53.7864 230.17 48.7314Z" fill="black"/>
</g>
<defs>
<clipPath id="clip0_298_10427">
<rect width="168.539" height="40" fill="white" transform="translate(66.6719 30)"/>
</clipPath>
</defs>
</svg>
