<svg width="300" height="100" viewBox="0 0 300 100" fill="none" xmlns="http://www.w3.org/2000/svg">
<rect width="300" height="100" fill="white"/>
<g clip-path="url(#clip0_311_269)">
<path d="M83.6079 61.9017C81.6759 61.9017 79.983 61.5727 78.5304 60.9149C77.0778 60.2571 76.0225 59.3388 75.3647 58.1601V70H69.4453V38.4272H75.1189L75.3658 41.8186C76.6265 39.3253 79.3746 38.0781 83.6079 38.0781C85.129 38.0781 86.558 38.3756 87.8939 38.9728C89.2298 39.5689 90.3883 40.3839 91.3683 41.4189C92.3483 42.454 93.1218 43.7146 93.6909 45.2009C94.259 46.6884 94.5441 48.288 94.5441 50C94.5441 51.7119 94.259 53.3127 93.6909 54.7991C93.1218 56.2865 92.3483 57.5438 91.3683 58.5709C90.3883 59.5992 89.2309 60.4109 87.8939 61.007C86.558 61.603 85.129 61.9017 83.6079 61.9017ZM82.0048 43.114C80.1548 43.114 78.5854 43.7618 77.2978 45.0561C76.0102 46.3516 75.3658 47.9995 75.3658 50C75.3658 52.0004 76.0068 53.6484 77.2877 54.9439C78.5686 56.2393 80.1413 56.8859 82.0048 56.8859C83.8683 56.8859 85.413 56.2382 86.6815 54.9439C87.9489 53.6484 88.5832 52.0016 88.5832 50C88.5832 47.9984 87.9467 46.3695 86.6714 45.0673C85.3973 43.7663 83.8414 43.114 82.0048 43.114Z" fill="#141414"/>
<path d="M107.043 38.0783C108.975 38.0783 110.663 38.4072 112.109 39.065C113.555 39.7229 114.614 40.6411 115.285 41.8199L115.552 38.4274H121.204V61.5729H115.552L115.285 58.1602C114.024 60.6546 111.276 61.9018 107.043 61.9018C105.522 61.9018 104.093 61.6043 102.757 61.0071C101.421 60.411 100.266 59.5994 99.2926 58.5711C98.3194 57.5439 97.5481 56.2866 96.9801 54.7992C96.411 53.3118 96.127 51.7132 96.127 50.0001C96.127 48.2871 96.411 46.6874 96.9801 45.2011C97.5481 43.7137 98.3194 42.4541 99.2926 41.418C100.265 40.3841 101.42 39.5679 102.757 38.9718C104.093 38.3758 105.522 38.0771 107.043 38.0771M108.646 56.885C110.51 56.885 112.082 56.2372 113.363 54.9429C114.644 53.6474 115.285 51.9961 115.285 49.9889C115.285 47.9817 114.644 46.3338 113.363 45.045C112.081 43.7574 110.508 43.1131 108.646 43.1131C106.784 43.1131 105.237 43.7574 103.969 45.045C102.702 46.3338 102.068 47.984 102.068 49.999C102.068 52.0141 102.704 53.6306 103.979 54.9328C105.254 56.2339 106.809 56.885 108.646 56.885Z" fill="#141414"/>
<path d="M143.057 44.3263L137.137 44.717C136.986 44.0456 136.578 43.4664 135.914 42.9803C135.249 42.4942 134.451 42.2506 133.519 42.2506C132.396 42.2506 131.491 42.4662 130.806 42.8984C130.121 43.3306 129.779 43.9502 129.779 44.7596C129.779 45.3074 129.981 45.7699 130.385 46.1471C130.789 46.5243 131.262 46.8117 131.803 47.0104C132.344 47.2091 133.108 47.4246 134.095 47.6581C135.493 47.9871 136.665 48.2946 137.61 48.5831C138.555 48.8705 139.45 49.2095 140.293 49.6013C141.136 49.9909 141.786 50.4197 142.245 50.8856C142.704 51.3526 143.063 51.9004 143.324 52.5302C143.584 53.161 143.701 53.8806 143.674 54.6889C143.606 56.9902 142.698 58.7661 140.951 60.0122C139.204 61.2594 136.768 61.8824 133.644 61.8824C130.52 61.8824 128.211 61.3065 126.387 60.1559C124.564 59.0041 123.537 57.3539 123.304 55.2019L129.183 54.708C129.388 55.6397 129.916 56.3627 130.766 56.8768C131.615 57.3898 132.574 57.6469 133.643 57.6469C134.821 57.6469 135.794 57.4078 136.561 56.9273C137.328 56.448 137.712 55.7767 137.712 54.9134C137.712 54.0501 137.236 53.4091 136.284 52.8681C135.331 52.327 134.04 51.8712 132.409 51.5007C130.723 51.1033 129.4 50.7408 128.442 50.4118C127.482 50.0829 126.623 49.6619 125.862 49.1478C125.101 48.6337 124.573 48.0308 124.279 47.3393C123.984 46.6478 123.837 45.7744 123.837 44.7192C123.837 42.5672 124.707 40.9237 126.447 39.7854C128.187 38.6483 130.599 38.0791 133.683 38.0791C136.437 38.0791 138.633 38.6067 140.27 39.6619C141.908 40.7172 142.837 42.272 143.056 44.3285" fill="#141414"/>
<path d="M147.499 33.2061H153.418V38.4272H159.132V43.0523H153.418V53.5563C153.418 55.4467 154.131 56.4952 155.555 56.7018C156.597 56.9353 157.788 56.9207 159.132 56.6603V61.5323C157.583 61.7792 156.145 61.9016 154.816 61.9016C152.171 61.9016 150.289 61.237 149.173 59.9079C148.056 58.5788 147.499 56.53 147.499 53.7617V43.0523H144.353V38.4272H147.499V33.2061Z" fill="#141414"/>
<path d="M172.352 38.0781C174.187 38.0781 175.89 38.4003 177.46 39.0447C179.028 39.689 180.365 40.5972 181.468 41.7681C182.571 42.94 183.41 44.3927 183.986 46.1259C184.562 47.8592 184.788 49.7676 184.664 51.8511H165.938C166.294 53.4823 167.062 54.7833 168.241 55.7566C169.42 56.7299 170.789 57.216 172.352 57.216C173.708 57.216 174.91 56.8702 175.96 56.1776C177.008 55.4861 177.82 54.5162 178.396 53.269L183.473 55.6949C182.432 57.6268 180.91 59.1446 178.91 60.2481C176.909 61.3516 174.724 61.9028 172.353 61.9028C169.982 61.9028 167.998 61.4302 166.115 60.485C164.23 59.5397 162.712 58.1511 161.561 56.3224C160.41 54.4926 159.835 52.3855 159.835 50.0022C159.835 47.619 160.411 45.5074 161.561 43.6709C162.712 41.8354 164.23 40.4434 166.115 39.4982C167.998 38.553 170.079 38.0792 172.353 38.0792M172.353 42.7863C170.708 42.7863 169.307 43.269 168.15 44.2355C166.991 45.2021 166.255 46.5065 165.94 48.1511H178.786C178.458 46.5065 177.718 45.2021 176.567 44.2355C175.415 43.269 174.011 42.7863 172.353 42.7863Z" fill="#141414"/>
<path d="M192.703 30H186.784V61.5727H192.703V30Z" fill="#141414"/>
<path d="M206.261 34.6855V41.4244H222.012V57.1867H228.763V34.6855H206.261Z" fill="#141414"/>
<path d="M201.76 46.8692C201.76 55.0596 208.387 61.6873 216.578 61.6873H219.762V43.6855H201.76V46.8692Z" fill="#141414"/>
</g>
<defs>
<clipPath id="clip0_311_269">
<rect width="159.317" height="40" fill="white" transform="translate(69.4453 30)"/>
</clipPath>
</defs>
</svg>
