<svg width="300" height="100" viewBox="0 0 300 100" fill="none" xmlns="http://www.w3.org/2000/svg">
<rect width="300" height="100" fill="white"/>
<g clip-path="url(#clip0_298_10413)">
<path d="M46.8992 59.0562C46.8464 58.5506 46.7936 58.0738 46.7312 57.4978C47.344 57.461 47.7872 57.4066 48.2272 57.4066C50.9184 57.3986 53.6064 57.349 56.2976 57.4146C62.08 57.5586 66.8832 54.109 68.7664 49.5202C71.4752 42.9298 67.8128 35.989 61.4224 33.645C59.6737 32.9972 57.8233 32.6666 55.9584 32.669C49.664 32.6738 43.3728 32.669 37.0784 32.669C36.7216 32.669 36.3696 32.653 36.0096 32.6818C35.0304 32.757 34.9024 32.8882 34.8544 33.8178C34.8416 34.1026 34.8544 34.3858 34.8544 34.6722V68.6146H33.2752C32.9584 67.4514 32.8912 32.9346 33.2 31.2802C33.6896 31.2226 34.2288 31.1074 34.7616 31.1074C42.0688 31.0962 49.376 31.1618 56.6864 31.0834C63.3504 31.013 69.1616 35.3794 70.8432 41.069C72.5008 46.685 71.0992 51.7458 66.4432 55.805C64.2128 57.757 61.4128 58.8066 58.448 58.9954C54.68 59.2434 50.864 59.0562 46.8992 59.0562Z" fill="#444854"/>
<path d="M36.7441 68.6082V34.421C37.2641 34.3794 37.7025 34.317 38.1425 34.317C44.4369 34.309 50.7249 34.3042 57.0193 34.317C61.4305 34.325 65.7393 37.4834 67.2289 41.2002C68.0136 43.1536 68.168 45.3035 67.6705 47.349C66.7905 51.0786 64.4769 53.8978 60.4417 55.165C59.5009 55.4626 58.4897 55.677 57.4993 55.6978C54.3009 55.7618 51.1041 55.7298 47.9105 55.7218C47.4177 55.7218 46.8417 55.805 46.7265 55.1298C46.6353 54.5714 46.9873 54.125 47.6385 54.0674C48.1873 54.0178 48.7537 54.0466 49.3089 54.0466C51.8433 54.0434 54.3857 53.9922 56.9201 54.0546C60.8401 54.1506 64.2721 51.5778 65.3841 48.5058C67.3361 43.0994 65.1729 39.2162 60.5985 36.7858C59.7233 36.3218 58.5969 36.0818 57.5809 36.069C51.4929 35.9986 45.4049 36.0274 39.3121 36.0242C39.1137 36.0242 38.9153 36.069 38.5377 36.1186C38.4977 36.7042 38.4225 37.2994 38.4225 37.8882C38.4145 47.4338 38.4177 56.9762 38.4177 66.5202C38.4177 66.8546 38.4321 67.1842 38.4145 67.5202C38.3633 68.6226 38.2481 68.701 36.7441 68.605V68.6082Z" fill="#444854"/>
<path d="M41.8386 68.608H40.1538V37.8176C40.7186 37.7632 41.253 37.6656 41.7906 37.6656C46.7122 37.6528 51.6402 37.7728 56.5586 37.624C60.6754 37.5008 64.0946 40.7072 64.5314 44.2256C64.9154 47.3056 63.1874 51.1216 59.1826 52.1008C58.1114 52.3706 57.0146 52.5262 55.9106 52.5648C53.477 52.6368 51.0354 52.5872 48.6018 52.5872H47.1458C46.4594 51.1504 46.6226 50.8752 48.0866 50.8656C50.8274 50.8544 53.5682 50.7952 56.309 50.8784C59.3298 50.9696 61.7234 49.1872 62.461 46.864C63.189 44.5712 62.5282 42.2336 60.2082 40.4384C59.149 39.616 57.9074 39.2576 56.5618 39.2496C52.1458 39.2288 47.733 39.2368 43.317 39.2496C42.877 39.2496 42.437 39.3488 41.845 39.4192C41.8386 49.1904 41.8386 58.8592 41.8386 68.6112V68.608Z" fill="#444854"/>
<path d="M46.8415 48.9778C46.7759 47.6626 46.8639 47.5138 48.0207 47.5058C50.7119 47.4802 53.3999 47.501 56.0911 47.493C56.5983 47.493 57.1151 47.4962 57.6047 47.4018C58.3455 47.2578 58.8927 46.8578 58.9855 46.093C59.0431 45.6242 59.0959 45.1442 59.0687 44.6738C58.9807 43.1874 58.3167 42.6034 56.6399 42.5826C54.0527 42.557 51.4623 42.5746 48.8751 42.5746H45.5631C45.5183 43.2994 45.4479 43.8994 45.4479 44.4962C45.4383 51.8594 45.4431 59.221 45.4431 66.5794C45.4431 66.9138 45.4607 67.2434 45.4383 67.5794C45.3679 68.6242 45.1919 68.7314 43.7583 68.557V40.9506C44.2431 40.9122 44.6383 40.8594 45.0287 40.8594C48.8351 40.8546 52.6399 40.8754 56.4479 40.8514C58.2911 40.8386 59.6063 41.5554 60.5135 43.0498C61.6255 44.8866 60.8143 47.9106 58.8783 48.9106C58.5646 49.0641 58.2196 49.143 57.8703 49.141C54.3215 49.1538 50.7711 49.1458 47.2159 49.1378C47.1231 49.1346 47.0319 49.0658 46.8415 48.9778ZM203.646 39.4242L202.645 40.1698C202.349 39.9426 202.062 39.757 201.826 39.5346C200.731 38.5106 199.726 37.397 198.552 36.4626C196.357 34.7106 193.771 33.6898 190.963 33.0226C187.907 32.2978 184.904 32.4162 181.958 33.2114C177.128 34.5202 173.243 37.1106 170.726 41.2642C168.874 44.3138 167.731 47.6146 168.101 51.1522C168.832 58.141 172.443 63.3186 179.405 66.3154C183.053 67.8834 186.862 68.181 190.696 67.4642C194.824 66.693 198.339 64.7314 201.114 61.7106C201.378 61.4258 201.585 61.0962 201.85 60.8146C202.338 60.3026 202.846 60.2482 203.296 60.6562C203.763 61.085 203.542 61.4034 203.19 61.8546C201.053 64.5858 198.219 66.4594 194.982 67.8626C191.371 69.4306 187.529 69.7778 183.696 69.213C179.718 68.6242 176.112 67.0146 173.12 64.405C170.414 62.0831 168.401 59.0589 167.304 55.6658C166.245 52.4434 166.094 49.1618 166.915 45.989C168.398 40.2482 171.917 35.8338 177.654 33.0882C181.941 31.0418 186.47 30.5122 191.098 31.3922C196.24 32.3714 200.419 34.941 203.512 38.9698C203.558 39.0482 203.563 39.157 203.646 39.4242Z" fill="#444854"/>
<path d="M200.946 59.4494C196.597 65.3854 188.901 67.7406 181.674 65.5998C174.442 63.4542 169.722 57.4894 169.712 50.2158C169.707 42.9454 174.322 37.147 181.126 35.0062C188.682 32.6254 196.462 34.803 201.043 41.0894C200.73 41.3486 200.413 41.6206 200.022 41.9438C199.736 41.7422 199.406 41.5934 199.2 41.355C198.158 40.1326 196.99 39.0494 195.587 38.1934C193.766 37.083 191.896 36.1342 189.661 35.9694C188.614 35.8926 187.562 35.5006 186.542 35.5854C180.568 36.0974 175.848 38.4974 173.069 43.7086C171.922 45.8574 171.203 48.1118 171.352 50.5038C171.67 55.5966 173.982 59.6414 178.611 62.5118C182.267 64.7774 186.315 65.051 190.366 64.3934C193.656 63.8622 196.48 62.1294 198.653 59.643C198.75 59.531 198.851 59.4286 198.949 59.3182C199.843 58.3294 199.97 58.3374 200.946 59.4494Z" fill="#444854"/>
<path d="M198.263 42.9762C197.77 43.2066 197.37 43.3874 196.939 43.589C195.413 41.6834 193.53 40.2258 191.122 39.4706C186.283 37.9554 181.911 38.749 178.258 42.1106C172.221 47.669 173.986 57.3058 181.888 60.6642C184.25 61.6761 186.863 61.9487 189.383 61.4463C191.903 60.9439 194.212 59.6901 196.005 57.8498C196.106 57.7474 196.155 57.6018 196.251 57.4994C197.093 56.6114 197.298 56.6194 198.183 57.565C195.819 61.7218 189.535 63.9858 184.995 63.2226C177.152 61.901 173.056 56.0178 172.991 50.3138C172.915 43.8386 177.877 38.4914 184.16 37.3602C189.936 36.3234 195.618 38.6114 198.263 42.9762Z" fill="#444854"/>
<path d="M194.379 55.0417C195.637 55.8897 195.667 56.0129 194.867 56.8369C189.086 62.8001 179.427 60.3105 176.867 53.5105C175.141 48.9345 177.293 43.1953 182.608 41.0465C186.805 39.3505 191.683 40.2081 194.797 43.5745C195.707 44.5521 195.702 44.5857 194.291 45.3025C191.941 42.4865 188.765 41.4529 185.011 42.0177C182.979 42.3217 181.392 43.3841 180.019 44.8241C177.262 47.7185 177.187 53.1233 180.531 56.1393C182.547 57.9553 184.947 58.8481 187.768 58.5873C190.504 58.3313 192.589 56.9713 194.379 55.0417ZM213.206 30.6497H214.688C215.072 31.7537 215.128 67.8353 214.75 69.2961H213.202C213.206 56.4129 213.206 43.5793 213.206 30.6497ZM207.707 69.3025C207.27 69.3233 206.789 69.3441 206.194 69.3681V30.6433H207.693C208.072 31.7569 208.099 67.8865 207.707 69.3025ZM211.235 30.7265V69.1841C209.819 69.4145 209.714 69.3521 209.629 68.2289C209.598 67.8497 209.616 67.4705 209.616 67.0897V32.7809C209.616 32.4017 209.598 32.0225 209.634 31.6417C209.726 30.6561 209.867 30.5745 211.235 30.7265ZM218.115 69.2945C216.837 69.3185 216.744 69.2705 216.646 68.3617C216.603 67.9409 216.621 67.5057 216.621 67.0817V32.7969C216.621 32.3729 216.598 31.9377 216.651 31.5169C216.762 30.6465 216.925 30.5729 218.085 30.7217C218.381 31.7937 218.424 67.7633 218.115 69.2945ZM220.776 69.1377C222.006 66.2785 223.2 63.5377 224.357 60.7825C225.288 58.5585 226.152 56.3073 227.074 54.0849C228.002 51.8481 228.97 49.6321 229.906 47.4001C230.894 45.0401 231.859 42.6705 232.845 40.3121C234.102 37.2977 235.357 34.2849 236.627 31.2801C237.072 30.2241 238.03 30.6177 239.026 30.5553C244.482 43.3985 249.792 56.2737 255.277 69.2961H253.293L238.2 33.2737C237.813 33.7889 237.469 34.1073 237.304 34.4897C235.416 38.9361 233.542 43.3793 231.694 47.8401C229.896 52.1777 228.144 56.5297 226.349 60.8721C225.322 63.3617 224.254 65.8321 223.2 68.3121C222.707 69.4593 222.499 69.5361 220.776 69.1377ZM248.712 30.8401C250.093 30.1889 250.67 30.6577 251.09 31.6433C252.778 35.6113 254.467 39.5841 256.126 43.5633C257.912 47.8577 259.64 52.1633 261.43 56.4561C263.014 60.2433 264.651 64.0129 266.248 67.7969C266.429 68.2209 266.485 68.6929 266.6 69.1297C265.056 69.5425 264.946 69.4769 264.47 68.3505C262.846 64.5137 261.184 60.6865 259.574 56.8465C258.422 54.0977 257.357 51.3217 256.205 48.5729C254.834 45.2961 253.39 42.0401 252.016 38.7633C251.058 36.4945 250.163 34.1985 249.232 31.9217C249.09 31.5777 248.914 31.2513 248.712 30.8401ZM258.859 69.3233H257.125L241.002 30.8129C242.726 30.2689 242.85 30.5569 243.422 31.7969C244.363 33.8289 245.168 35.9153 246.038 37.9777C247.067 40.4177 248.115 42.8433 249.131 45.2849C250.243 47.9569 251.314 50.6369 252.43 53.3073C254.04 57.1489 255.68 60.9761 257.304 64.8129C257.779 65.9441 258.258 67.0785 258.698 68.2209C258.81 68.5137 258.792 68.8545 258.859 69.3233ZM262.742 69.2849H260.987C255.6 56.4305 250.246 43.6529 244.898 30.8769C246.389 30.3617 246.741 30.4481 247.243 31.5905C247.942 33.1905 248.579 34.8177 249.24 36.4305C250.374 39.1921 251.493 41.9553 252.65 44.7089C253.586 46.9329 254.586 49.1297 255.512 51.3521C256.678 54.1393 257.779 56.9473 258.952 59.7329C260.114 62.4913 261.33 65.2209 262.494 67.9793C262.653 68.3553 262.653 68.7841 262.742 69.2849Z" fill="#444854"/>
<path d="M238.064 37.1138C239.171 38.0962 239.392 38.9378 238.805 40.1458C237.741 42.3282 236.899 44.6082 235.958 46.8434C234.768 49.6706 233.569 52.4962 232.387 55.3282C231.032 58.5666 229.691 61.8114 228.352 65.0546C227.88 66.1906 227.433 67.3362 226.961 68.4706C226.552 69.4578 226.227 69.549 224.669 69.1186C229.12 58.4802 233.571 47.8546 238.064 37.1138ZM228.56 69.0578L239.957 41.805C241.003 42.5634 241.347 43.373 240.941 44.3442C239.63 47.4962 238.285 50.6322 236.96 53.7778C235.997 56.0466 235.032 58.3138 234.083 60.5858C232.976 63.245 231.909 65.917 230.793 68.5762C230.416 69.4722 230.019 69.5506 228.56 69.0578ZM232.416 69.0706L241.865 46.4306C242.929 47.3186 243.201 48.1554 242.761 49.1826C240.742 53.9346 238.705 58.6706 236.683 63.4226C236.002 65.0347 235.336 66.6534 234.686 68.2786C234.201 69.4882 233.985 69.5874 232.416 69.0706ZM250.23 64.5282H237.489C237.952 62.9746 238.005 62.9202 239.493 62.917C242.382 62.9074 245.273 62.9074 248.163 62.917C249.561 62.925 249.561 62.9426 250.23 64.5282ZM248.497 61.2786C248.131 61.3234 247.739 61.4066 247.349 61.4098C245.025 61.4262 242.701 61.4262 240.377 61.4098C238.934 61.3986 238.872 61.2914 239.344 59.7778C239.789 59.7474 240.285 59.685 240.773 59.685C242.942 59.677 245.117 59.6562 247.288 59.6978C248.55 59.7234 248.669 59.9218 248.497 61.2786ZM247.277 57.925H240.515C240.347 56.4274 240.457 56.2882 241.901 56.2674C243.215 56.2469 244.529 56.2469 245.843 56.2674C246.974 56.2866 247.285 56.6514 247.277 57.925ZM95.3518 67.4626V40.4834C95.3518 39.7666 94.7326 39.1794 93.9598 39.1794H86.3646C85.5982 39.1794 84.9726 38.597 84.9726 37.8738V32.5522C84.9726 31.8338 85.5918 31.2466 86.3646 31.2466H113.489C114.256 31.2466 114.883 31.829 114.883 32.5522V37.8722C114.883 38.5906 114.262 39.1778 113.489 39.1778H105.896C105.129 39.1778 104.502 39.7586 104.502 40.4818V67.4626C104.502 68.1794 103.88 68.7666 103.107 68.7666H96.747C95.979 68.765 95.3534 68.1794 95.3534 67.461L95.3518 67.4626ZM147.587 68.7682H140.76C140.501 68.7714 140.246 68.703 140.023 68.5706C139.8 68.4382 139.618 68.2469 139.497 68.0178L133.87 56.797C133.118 55.4146 131.918 54.7218 130.281 54.7218H128.918C128.15 54.7218 127.523 55.3042 127.523 56.0274V67.4674C127.523 68.1826 126.902 68.7698 126.131 68.7698H120.011C119.245 68.7698 118.617 68.189 118.617 67.4658V32.557C118.617 31.8402 119.238 31.253 120.011 31.253H135.147C139.345 31.253 142.504 32.2402 144.616 34.2082C146.733 36.1762 147.787 39.0242 147.787 42.749C147.787 45.589 147.065 47.9906 145.622 49.9586C144.706 51.213 143.508 52.2351 142.125 52.9426C141.288 53.3746 141.153 54.4786 141.893 55.0498C142.824 55.7714 143.625 56.8002 144.294 58.125L148.838 66.893C149.289 67.7634 148.621 68.7682 147.587 68.7682ZM138.03 46.3634C138.899 45.6914 139.337 44.5906 139.337 43.0674C139.337 41.5074 138.901 40.3794 138.03 39.6882C137.161 38.9954 135.726 38.6514 133.726 38.6514H128.824C128.057 38.6514 127.432 39.2322 127.432 39.9554V46.0754C127.432 46.7922 128.051 47.3794 128.824 47.3794H133.729C135.725 47.3762 137.163 47.0434 138.033 46.3634H138.03ZM153.409 67.4642V32.557C153.409 31.8402 154.03 31.253 154.805 31.253H161.072C161.84 31.253 162.465 31.8338 162.465 32.557V67.4642C162.465 68.181 161.845 68.7682 161.073 68.7682H154.805C154.033 68.7682 153.409 68.1826 153.409 67.4642ZM75.3262 30.973H70.0206C69.7488 30.9681 69.4815 31.043 69.2518 31.1883C69.0221 31.3336 68.8399 31.5429 68.7278 31.7906L68.363 32.6386C68.2631 32.867 68.2352 33.1204 68.283 33.365C68.3307 33.6097 68.4518 33.834 68.6302 34.0082C70.8494 36.1778 72.4142 38.9362 73.043 42.0018C73.0558 42.0626 73.0734 42.1298 73.099 42.1906L76.8382 51.621C77.1774 52.4722 76.5038 53.3778 75.5326 53.3778H71.5598C71.3369 53.374 71.1162 53.4224 70.9154 53.5191C70.7146 53.6158 70.5391 53.758 70.403 53.9346C67.3374 58.149 62.1742 60.9202 56.3262 60.9202H56.1502L53.6574 66.693C53.2878 67.5522 53.9614 68.485 54.9502 68.485H61.019C61.6014 68.485 62.123 68.1458 62.3262 67.637L64.7454 61.5618C64.8535 61.3059 65.0358 61.0883 65.2688 60.9372C65.5019 60.786 65.7749 60.7082 66.0526 60.7138H79.4686C80.0494 60.7138 80.5726 61.053 80.7742 61.5618L83.195 67.637C83.3982 68.149 83.9166 68.485 84.5006 68.485H90.419C91.4078 68.485 92.0814 67.5458 91.7118 66.693L76.603 31.7842C76.4939 31.5381 76.3144 31.3298 76.0872 31.1855C75.8601 31.0412 75.5953 30.9672 75.3262 30.973Z" fill="#444854"/>
<path d="M46.8992 59.0562C46.8464 58.5506 46.7936 58.0738 46.7312 57.4978C47.344 57.461 47.7872 57.4066 48.2272 57.4066C50.9184 57.3986 53.6064 57.349 56.2976 57.4146C62.08 57.5586 66.8832 54.109 68.7664 49.5202C71.4752 42.9298 67.8128 35.989 61.4224 33.645C59.6737 32.9972 57.8233 32.6666 55.9584 32.669C49.664 32.6738 43.3728 32.669 37.0784 32.669C36.7216 32.669 36.3696 32.653 36.0096 32.6818C35.0304 32.757 34.9024 32.8882 34.8544 33.8178C34.8416 34.1026 34.8544 34.3858 34.8544 34.6722V68.6146H33.2752C32.9584 67.4514 32.8912 32.9346 33.2 31.2802C33.6896 31.2226 34.2288 31.1074 34.7616 31.1074C42.0688 31.0962 49.376 31.1618 56.6864 31.0834C63.3504 31.013 69.1616 35.3794 70.8432 41.069C72.5008 46.685 71.0992 51.7458 66.4432 55.805C64.2128 57.757 61.4128 58.8066 58.448 58.9954C54.68 59.2434 50.864 59.0562 46.8992 59.0562Z" fill="#444854"/>
<path d="M36.7441 68.6082V34.421C37.2641 34.3794 37.7025 34.317 38.1425 34.317C44.4369 34.309 50.7249 34.3042 57.0193 34.317C61.4305 34.325 65.7393 37.4834 67.2289 41.2002C68.0136 43.1536 68.168 45.3035 67.6705 47.349C66.7905 51.0786 64.4769 53.8978 60.4417 55.165C59.5009 55.4626 58.4897 55.677 57.4993 55.6978C54.3009 55.7618 51.1041 55.7298 47.9105 55.7218C47.4177 55.7218 46.8417 55.805 46.7265 55.1298C46.6353 54.5714 46.9873 54.125 47.6385 54.0674C48.1873 54.0178 48.7537 54.0466 49.3089 54.0466C51.8433 54.0434 54.3857 53.9922 56.9201 54.0546C60.8401 54.1506 64.2721 51.5778 65.3841 48.5058C67.3361 43.0994 65.1729 39.2162 60.5985 36.7858C59.7233 36.3218 58.5969 36.0818 57.5809 36.069C51.4929 35.9986 45.4049 36.0274 39.3121 36.0242C39.1137 36.0242 38.9153 36.069 38.5377 36.1186C38.4977 36.7042 38.4225 37.2994 38.4225 37.8882C38.4145 47.4338 38.4177 56.9762 38.4177 66.5202C38.4177 66.8546 38.4321 67.1842 38.4145 67.5202C38.3633 68.6226 38.2481 68.701 36.7441 68.605V68.6082Z" fill="#444854"/>
<path d="M41.8386 68.608H40.1538V37.8176C40.7186 37.7632 41.253 37.6656 41.7906 37.6656C46.7122 37.6528 51.6402 37.7728 56.5586 37.624C60.6754 37.5008 64.0946 40.7072 64.5314 44.2256C64.9154 47.3056 63.1874 51.1216 59.1826 52.1008C58.1114 52.3706 57.0146 52.5262 55.9106 52.5648C53.477 52.6368 51.0354 52.5872 48.6018 52.5872H47.1458C46.4594 51.1504 46.6226 50.8752 48.0866 50.8656C50.8274 50.8544 53.5682 50.7952 56.309 50.8784C59.3298 50.9696 61.7234 49.1872 62.461 46.864C63.189 44.5712 62.5282 42.2336 60.2082 40.4384C59.149 39.616 57.9074 39.2576 56.5618 39.2496C52.1458 39.2288 47.733 39.2368 43.317 39.2496C42.877 39.2496 42.437 39.3488 41.845 39.4192C41.8386 49.1904 41.8386 58.8592 41.8386 68.6112V68.608Z" fill="#444854"/>
<path d="M46.8415 48.9776C46.7759 47.6624 46.8639 47.5136 48.0207 47.5056C50.7119 47.48 53.3999 47.5008 56.0911 47.4928C56.5983 47.4928 57.1151 47.496 57.6047 47.4016C58.3455 47.2576 58.8927 46.8576 58.9855 46.0928C59.0431 45.624 59.0959 45.144 59.0687 44.6736C58.9807 43.1872 58.3167 42.6032 56.6399 42.5824C54.0527 42.5568 51.4623 42.5744 48.8751 42.5744H45.5631C45.5183 43.2992 45.4479 43.8992 45.4479 44.496C45.4383 51.8592 45.4431 59.2208 45.4431 66.5792C45.4431 66.9136 45.4607 67.2432 45.4383 67.5792C45.3679 68.624 45.1919 68.7312 43.7583 68.5568V40.9504C44.2431 40.912 44.6383 40.8592 45.0287 40.8592C48.8351 40.8544 52.6399 40.8752 56.4479 40.8512C58.2911 40.8384 59.6063 41.5552 60.5135 43.0496C61.6255 44.8864 60.8143 47.9104 58.8783 48.9104C58.5646 49.0639 58.2196 49.1428 57.8703 49.1408C54.3215 49.1536 50.7711 49.1456 47.2159 49.1376C47.1231 49.1344 47.0319 49.0656 46.8415 48.9776Z" fill="#444854"/>
</g>
<defs>
<clipPath id="clip0_298_10413">
<rect width="233.6" height="40" fill="white" transform="translate(33 30)"/>
</clipPath>
</defs>
</svg>
