<svg width="300" height="100" viewBox="0 0 300 100" fill="none" xmlns="http://www.w3.org/2000/svg">
<rect width="300" height="100" fill="white"/>
<g clip-path="url(#clip0_298_10376)">
<path d="M114.225 51.0242V56.4185H111.176V41.8828H116.734C118.536 41.8828 119.891 42.2945 120.8 43.1182C121.722 43.9417 122.184 45.0604 122.184 46.4742C122.184 47.8605 121.708 48.9653 120.756 49.789C119.819 50.6125 118.478 51.0242 116.734 51.0242H114.225ZM116.409 48.6977C118.197 48.6977 119.091 47.9565 119.091 46.4742C119.091 45.7467 118.882 45.1908 118.464 44.8064C118.046 44.4221 117.361 44.2299 116.409 44.2299H114.225V48.6977H116.409Z" fill="#1E4A86"/>
<path d="M128.858 44.8682C129.867 44.8682 130.732 45.0947 131.453 45.5477C132.174 46.0005 132.686 46.6113 132.989 47.38V45.0123H136.016V56.4186H132.989V54.0302C132.686 54.799 132.174 55.4165 131.453 55.8832C130.732 56.3362 129.867 56.5626 128.858 56.5626C127.849 56.5626 126.94 56.3294 126.133 55.8626C125.326 55.3959 124.691 54.7234 124.23 53.8449C123.783 52.9526 123.559 51.9095 123.559 50.7154C123.559 49.5213 123.783 48.4849 124.23 47.6065C124.691 46.7143 125.326 46.0348 126.133 45.5682C126.94 45.1015 127.849 44.8682 128.858 44.8682ZM129.809 47.4006C128.858 47.4006 128.094 47.6957 127.517 48.2859C126.94 48.8762 126.652 49.686 126.652 50.7154C126.652 51.7449 126.94 52.5547 127.517 53.1449C128.094 53.7214 128.858 54.0096 129.809 54.0096C130.732 54.0096 131.489 53.7145 132.08 53.1243C132.686 52.5204 132.989 51.7174 132.989 50.7154C132.989 49.6997 132.686 48.8968 132.08 48.3066C131.489 47.7026 130.732 47.4006 129.809 47.4006Z" fill="#1E4A86"/>
<path d="M140.834 45.0122L144.099 52.7535L147.127 45.0122H150.479L143.148 61.8539H139.774L142.477 56.0889L137.438 45.0122H140.834Z" fill="#1E4A86"/>
<path d="M158.542 42.439C160.445 42.439 162.024 42.9056 163.278 43.839C164.533 44.7724 165.362 46.042 165.765 47.6479H162.565C162.233 46.8656 161.714 46.2479 161.007 45.795C160.315 45.342 159.479 45.1156 158.499 45.1156C157.691 45.1156 156.963 45.3077 156.315 45.6921C155.666 46.0763 155.161 46.6254 154.801 47.3391C154.44 48.0528 154.26 48.8901 154.26 49.851C154.26 50.798 154.44 51.6285 154.801 52.3421C155.161 53.0559 155.666 53.6049 156.315 53.9893C156.963 54.3735 157.691 54.5658 158.499 54.5658C159.479 54.5658 160.315 54.3393 161.007 53.8864C161.714 53.4334 162.233 52.8157 162.565 52.0334H165.765C165.362 53.6393 164.533 54.9089 163.278 55.8424C162.024 56.7757 160.445 57.2424 158.542 57.2424C157.086 57.2424 155.795 56.9335 154.671 56.3158C153.561 55.6844 152.696 54.806 152.076 53.6804C151.47 52.5548 151.167 51.2785 151.167 49.851C151.167 48.4098 151.47 47.1264 152.076 46.0008C152.696 44.8753 153.561 44.0037 154.671 43.3861C155.781 42.7547 157.071 42.439 158.542 42.439Z" fill="#393B3E"/>
<path d="M179.32 50.9828C179.32 51.271 179.284 51.6004 179.212 51.971H170.432C170.475 52.9868 170.763 53.7348 171.297 54.2153C171.83 54.6956 172.493 54.9358 173.286 54.9358C173.993 54.9358 174.577 54.7711 175.038 54.4417C175.514 54.1122 175.817 53.6662 175.946 53.1034H179.169C179.01 53.8994 178.671 54.6132 178.152 55.2447C177.633 55.876 176.963 56.3701 176.141 56.727C175.334 57.0839 174.432 57.2623 173.438 57.2623C172.27 57.2623 171.232 57.029 170.323 56.5623C169.415 56.0818 168.709 55.4024 168.204 54.524C167.699 53.6456 167.447 52.6092 167.447 51.415C167.447 50.221 167.699 49.1846 168.204 48.3062C168.709 47.4141 169.415 46.7345 170.323 46.2679C171.232 45.8012 172.27 45.5679 173.438 45.5679C174.62 45.5679 175.651 45.8012 176.53 46.2679C177.424 46.7345 178.109 47.3798 178.585 48.2033C179.075 49.0131 179.32 49.9396 179.32 50.9828ZM176.249 50.6945C176.292 49.7611 176.033 49.0543 175.471 48.5739C174.923 48.0934 174.245 47.8532 173.438 47.8532C172.616 47.8532 171.924 48.0934 171.362 48.5739C170.799 49.0543 170.489 49.7611 170.432 50.6945H176.249Z" fill="#393B3E"/>
<path d="M188.622 45.5474C190.006 45.5474 191.109 45.9797 191.931 46.8445C192.753 47.7092 193.164 48.9238 193.164 50.4887V57.1182H190.136V50.818C190.136 49.9122 189.891 49.2121 189.4 48.718C188.91 48.2102 188.24 47.9562 187.389 47.9562C186.524 47.9562 185.832 48.2238 185.313 48.7592C184.794 49.2945 184.534 50.0631 184.534 51.0652V57.1182H181.485V45.7121H184.534V47.9974C184.852 47.2287 185.371 46.6316 186.092 46.2062C186.827 45.7669 187.67 45.5474 188.622 45.5474Z" fill="#393B3E"/>
<path d="M202.248 54.6267V57.1179H200.647C199.306 57.1179 198.276 56.8092 197.555 56.1916C196.848 55.5738 196.496 54.5443 196.496 53.1031V48.1618H194.83V45.7118H196.496V42.8911H199.544V45.7118H202.226V48.1618H199.544V53.1444C199.544 53.6933 199.66 54.0777 199.891 54.2974C200.121 54.5169 200.51 54.6267 201.058 54.6267H202.248Z" fill="#393B3E"/>
<path d="M207.492 47.8945C207.938 47.167 208.529 46.5973 209.265 46.1855C210 45.7601 210.822 45.5474 211.731 45.5474V48.6563H210.843C208.609 48.6563 207.492 49.6445 207.492 51.6211V57.1182H204.442V45.7121H207.492V47.8945Z" fill="#393B3E"/>
<path d="M224.686 50.9828C224.686 51.271 224.649 51.6004 224.577 51.971H215.796C215.84 52.9868 216.129 53.7348 216.662 54.2153C217.195 54.6956 217.859 54.9358 218.652 54.9358C219.357 54.9358 219.942 54.7711 220.403 54.4417C220.879 54.1122 221.182 53.6662 221.311 53.1034H224.534C224.376 53.8994 224.037 54.6132 223.519 55.2447C222.999 55.876 222.328 56.3701 221.506 56.727C220.698 57.0839 219.797 57.2623 218.803 57.2623C217.635 57.2623 216.597 57.029 215.689 56.5623C214.78 56.0818 214.074 55.4024 213.568 54.524C213.065 53.6456 212.813 52.6092 212.813 51.415C212.813 50.221 213.065 49.1846 213.568 48.3062C214.074 47.4141 214.78 46.7345 215.689 46.2679C216.597 45.8012 217.635 45.5679 218.803 45.5679C219.985 45.5679 221.016 45.8012 221.896 46.2679C222.789 46.7345 223.475 47.3798 223.95 48.2033C224.44 49.0131 224.686 49.9396 224.686 50.9828ZM221.614 50.6945C221.657 49.7611 221.397 49.0543 220.836 48.5739C220.288 48.0934 219.609 47.8532 218.803 47.8532C217.982 47.8532 217.289 48.0934 216.727 48.5739C216.165 49.0543 215.854 49.7611 215.796 50.6945H221.614Z" fill="#393B3E"/>
<path d="M87.9183 54.6275C94.0831 54.6275 99.0807 49.7337 99.0807 43.6968C99.0807 37.66 94.0831 32.7661 87.9183 32.7661C81.7535 32.7661 76.756 37.66 76.756 43.6968C76.756 49.7337 81.7535 54.6275 87.9183 54.6275Z" fill="white"/>
<path fill-rule="evenodd" clip-rule="evenodd" d="M88.0816 70L78.5525 53.589C77.907 52.8119 77.408 51.8328 76.8414 50.7213C76.5713 50.1914 76.2858 49.6313 75.9617 49.0486C74.8084 46.9718 74.2696 44.6354 74.4026 42.2897C74.5357 39.9438 75.3358 37.6765 76.7173 35.7299C78.1968 33.6427 80.2802 32.0086 82.7153 31.0257C84.8053 30.1834 87.0834 29.8518 89.3423 30.0609C91.6012 30.27 93.7695 31.0132 95.65 32.223C97.8421 33.6316 99.5583 35.615 100.591 37.9331C101.301 39.5319 101.666 41.2507 101.662 42.9868C101.662 45.0828 101.129 47.1476 100.108 49.005C99.8152 49.5381 99.5458 50.0648 99.2883 50.5687C98.6483 51.8205 98.08 52.9319 97.4004 53.653L88.0816 70ZM94.6732 44.3061C94.7064 44.3628 94.7369 44.4194 94.7668 44.4752C94.8113 44.5579 94.8546 44.6387 94.9039 44.7137C94.9364 44.7446 94.973 44.7718 95.0097 44.7989C95.0471 44.8267 95.0846 44.8544 95.1178 44.8863C95.0449 44.7936 94.972 44.6971 94.8991 44.6007C94.8238 44.5012 94.7485 44.4016 94.6732 44.3061ZM85.6963 48.8208C83.785 48.0682 81.9642 47.1223 80.2653 45.9992C80.1003 46.3438 83.6405 48.5232 85.6963 48.8208ZM80.0524 45.2776C80.5007 45.6394 80.9678 45.9795 81.4521 46.2966C82.4086 46.9344 83.4226 47.4904 84.4821 47.9581C85.0091 48.1932 85.5524 48.3973 86.0956 48.5853C86.6389 48.7735 87.1989 48.9301 87.7584 49.0715C88.3181 49.2131 88.8781 49.3222 89.4546 49.4161C89.1581 49.2752 88.8618 49.1341 88.5818 48.9931C88.4169 48.9406 88.2593 48.8891 88.0992 48.8367L87.8572 48.7579C87.32 48.5852 86.7923 48.3864 86.2763 48.1622C85.7494 47.9427 85.2555 47.7075 84.7448 47.457C83.7487 46.9486 82.7964 46.3663 81.8966 45.7153C81.4521 45.3862 81.0076 45.0435 80.5794 44.6964C80.3162 44.4767 80.0524 44.2417 79.8055 44.0067L80.6125 43.2383C80.6622 43.191 80.71 43.1438 80.7572 43.097C80.8508 43.0044 80.9423 42.9141 81.0407 42.8307C80.7444 42.4861 80.4806 42.1725 80.2668 41.8903C80.1696 41.9734 80.0725 42.062 79.9755 42.1505C79.8917 42.227 79.8078 42.3038 79.7241 42.3765C79.3442 42.7212 78.9643 43.0663 78.6044 43.4098C78.5721 43.4406 78.538 43.4714 78.5033 43.5028C78.4321 43.567 78.3582 43.6338 78.2918 43.7075C78.4373 43.8616 78.5912 44.0082 78.7532 44.1465C79.1634 44.5408 79.5933 44.9175 80.0524 45.2776ZM82.4763 43.8669C82.1116 43.4276 81.7517 42.9891 81.406 42.5343C81.1271 42.1568 80.8702 41.7793 80.6084 41.3945C80.5443 41.3002 80.4796 41.2052 80.4145 41.1099C80.3775 41.0456 80.3382 40.9811 80.2983 40.9156C80.2318 40.8063 80.1636 40.6943 80.1019 40.5767C80.1691 40.5451 80.2318 40.5093 80.2944 40.4737C80.3556 40.4388 80.4166 40.404 80.4818 40.3731C80.7008 40.2604 80.9162 40.1445 81.1314 40.0287C81.3689 39.9008 81.6063 39.7731 81.8483 39.6498C82.008 39.5567 82.1767 39.4718 82.3407 39.3894C82.3968 39.3612 82.4528 39.333 82.5072 39.3051C82.6391 39.6188 82.8035 39.9949 83.0011 40.4026C82.9104 40.4496 82.824 40.5005 82.7375 40.5514C82.6511 40.6023 82.5647 40.6532 82.4741 40.7002L82.3791 40.7542C82.0818 40.9235 81.7841 41.0929 81.4864 41.2489C81.6665 41.531 81.8489 41.8131 82.0464 42.0952C82.359 42.5498 82.6883 42.989 83.0342 43.4122C83.7362 44.2578 84.5012 45.0542 85.3234 45.7952C85.732 46.1713 86.1607 46.5272 86.608 46.8611C87.0519 47.2057 87.497 47.5193 87.9746 47.8328C88.081 47.8954 88.1877 47.9618 88.2943 48.0281C88.4017 48.0952 88.5092 48.1621 88.6166 48.225C88.8473 48.4446 89.0942 48.6487 89.3411 48.8522C88.8121 48.6267 88.2955 48.3756 87.7932 48.1C87.2994 47.8328 86.8056 47.5353 86.328 47.2217C85.8492 46.9098 85.3874 46.575 84.9446 46.2183C84.0573 45.4983 83.2319 44.712 82.4763 43.8669ZM86.5077 45.9665C85.2444 44.405 84.1622 42.7178 83.2801 40.9346C83.1109 41.0392 82.9417 41.148 82.7725 41.2567C82.6124 41.3597 82.4523 41.4626 82.2924 41.5618C83.4434 43.2335 84.8663 44.7202 86.5077 45.9665ZM84.1368 41.7495C83.8899 41.2498 83.6592 40.7326 83.4616 40.1994C83.2488 39.673 83.0676 39.1355 82.9189 38.5895C82.8549 38.3854 82.8055 38.1973 82.7561 37.9937C82.8311 37.978 82.902 37.9582 82.9728 37.9384C83.042 37.9191 83.1112 37.8998 83.1843 37.8842L83.3827 37.8349C83.8232 37.7252 84.2548 37.6178 84.6991 37.5225C84.7576 37.5106 84.8172 37.4976 84.8779 37.4844C85.056 37.4457 85.2436 37.405 85.4399 37.3815C85.4512 37.4605 85.4625 37.5427 85.4742 37.6279C85.5136 37.9147 85.5575 38.2343 85.6211 38.5729C85.5176 38.5968 85.4142 38.6252 85.3107 38.6537C85.2166 38.6796 85.1226 38.7056 85.0285 38.7279C84.85 38.7742 84.6676 38.8205 84.4852 38.8668C84.2971 38.9145 84.1089 38.9623 83.9251 39.01L83.9804 39.1867C84.0613 39.4457 84.1441 39.7112 84.2377 39.9664C84.419 40.4836 84.6166 40.9853 84.8304 41.487C85.2724 42.4806 85.7954 43.4396 86.3945 44.3556C86.6908 44.8097 87.0203 45.249 87.3497 45.688C87.6776 46.1286 88.0294 46.5525 88.4037 46.9581C88.5328 47.1044 88.6728 47.252 88.8055 47.3919L88.9143 47.5068C89.0794 47.7738 89.26 48.04 89.4414 48.2905C88.9963 47.9299 88.5686 47.5698 88.1568 47.1776C87.7454 46.7857 87.3502 46.3781 86.9714 45.9547C86.5904 45.5321 86.2323 45.0913 85.8985 44.6341C85.2232 43.7238 84.6337 42.7584 84.1368 41.7495ZM91.1163 36.295C90.8529 36.2793 90.5935 36.2675 90.3338 36.2558C90.0748 36.244 89.8155 36.2323 89.5523 36.2165C89.3724 36.2112 89.1943 36.2041 89.017 36.1969C88.6749 36.1832 88.3352 36.1695 87.9881 36.1695C87.4774 36.154 86.9504 36.154 86.4403 36.154H86.012V36.7652C86.012 37.3294 86.0452 37.8936 86.0945 38.4584C86.1439 39.0231 86.2264 39.5713 86.3252 40.12C86.5338 41.2131 86.8369 42.2879 87.2311 43.3337C87.4285 43.8504 87.6592 44.3672 87.9062 44.8698C88.1489 45.3686 88.4182 45.8553 88.7131 46.3279C89.0095 46.8141 89.3227 47.2681 89.6515 47.7229C89.9846 48.1736 90.342 48.6079 90.7217 49.0239C90.3958 48.5739 90.1022 48.109 89.8086 47.6436L89.7992 47.6288C89.5371 47.1888 89.2902 46.7349 89.0431 46.2804L88.9921 46.1868C88.7452 45.7006 88.5146 45.1994 88.317 44.6978C88.1032 44.1961 87.9218 43.6788 87.7569 43.1616C87.4258 42.1316 87.1835 41.0775 87.0324 40.01C86.9498 39.4767 86.9005 38.944 86.8696 38.3953C86.8532 38.0662 86.8364 37.7237 86.8364 37.392H87.9713C88.4982 37.392 89.0084 37.3764 89.5353 37.3604L91.0995 37.3134C91.2269 37.3059 91.3544 37.302 91.4801 37.2982C91.6141 37.2942 91.746 37.2902 91.8734 37.2819C91.9309 37.2819 91.9926 37.278 92.0543 37.2741C92.1161 37.2703 92.1778 37.2664 92.2354 37.2664C92.2517 37.5485 92.2686 37.8306 92.3011 38.1127C92.3504 38.5519 92.4161 38.975 92.4986 39.3982C92.6769 40.2411 92.9415 41.0654 93.2889 41.8592C93.4574 42.2559 93.65 42.6433 93.8652 43.019C94.0791 43.3952 94.3097 43.7558 94.5566 44.1165C94.5911 44.1801 94.6355 44.2383 94.6885 44.289C94.8366 44.4926 95.133 44.8692 95.133 44.8692L95.2155 44.9789C95.2646 45.0326 95.3088 45.0904 95.3474 45.1514C95.632 45.4795 95.9342 45.7935 96.2532 46.0916C95.99 45.7472 95.7424 45.4019 95.4935 45.0413C95.2947 44.7297 95.1084 44.4179 94.9234 44.1086L94.8344 43.9599L94.7485 43.7967C94.5803 43.4783 94.4154 43.1662 94.2744 42.8315C94.1115 42.4554 93.9618 42.0632 93.8131 41.6716C93.5498 40.8881 93.3517 40.0862 93.2205 39.2732C93.152 38.8682 93.108 38.4599 93.0886 38.0502C93.0583 37.6375 93.0529 37.2235 93.0724 36.8102C93.0724 36.7376 93.0766 36.665 93.0809 36.5946C93.0848 36.5281 93.0886 36.4635 93.0886 36.4025C93.0177 36.3951 92.9468 36.3912 92.8776 36.3875C92.8023 36.3833 92.7291 36.3793 92.6603 36.371C92.6006 36.371 92.5408 36.3668 92.4831 36.3628C92.4297 36.3591 92.3784 36.3555 92.3309 36.3555C92.2581 36.3479 92.1852 36.344 92.1124 36.3401C92.0371 36.3361 91.9617 36.3321 91.8864 36.324C91.6572 36.3263 91.4248 36.3128 91.2035 36.3L91.1163 36.295ZM92.0968 43.3228C92.49 43.4761 92.8182 43.7501 93.0294 44.1011C92.9953 44.0375 92.9734 43.9684 92.9649 43.8975C92.7856 43.4868 92.4581 43.1505 92.0415 42.9493C91.6249 42.7481 91.1464 42.6952 90.6924 42.8C89.836 43.0667 89.4903 44.211 90.0667 45.2925C90.1044 45.3742 90.149 45.453 90.1997 45.5281C89.7552 44.5401 90.0845 43.5368 90.8586 43.2548C91.2677 43.1456 91.7034 43.1696 92.0968 43.3228Z" fill="url(#paint0_linear_298_10376)"/>
</g>
<defs>
<linearGradient id="paint0_linear_298_10376" x1="88.0224" y1="30" x2="88.0224" y2="70" gradientUnits="userSpaceOnUse">
<stop stop-color="#00B9FF"/>
<stop offset="1" stop-color="#007FFF"/>
</linearGradient>
<clipPath id="clip0_298_10376">
<rect width="150.303" height="40" fill="white" transform="translate(74.3828 30)"/>
</clipPath>
</defs>
</svg>
