<svg width="300" height="100" viewBox="0 0 300 100" fill="none" xmlns="http://www.w3.org/2000/svg">
<rect width="300" height="100" fill="white"/>
<g clip-path="url(#clip0_298_10355)">
<path d="M81.0995 54.8756C80.306 56.2905 79.1508 57.4692 77.7521 58.2909C76.3534 59.1127 74.7615 59.5479 73.1393 59.5522C71.4478 59.5522 69.8557 59.1542 68.3632 58.3582C67.3665 57.8296 66.4841 57.1091 65.7669 56.2382C65.0497 55.3673 64.5117 54.3632 64.1841 53.2836H61V70H63.9851V57.7612C65.1791 59.1542 66.5721 60.2488 68.2637 61.1443C69.8557 61.8408 71.6468 62.2388 73.4378 62.2388C75.0105 62.2652 76.5719 61.9699 78.0264 61.371C79.4808 60.7722 80.7974 59.8824 81.8955 58.7562C83.3881 57.2637 84.4826 55.3731 84.9801 53.2836H81.796L81.0995 54.8756ZM66.4726 43.7313C67.3265 42.8598 68.3495 42.1719 69.4788 41.7099C70.6081 41.2479 71.8199 41.0216 73.0398 41.0448C74.9692 40.9921 76.864 41.5642 78.4419 42.6759C80.0198 43.7876 81.1962 45.3793 81.796 47.2139H85.0796C84.4826 45.2239 83.3881 43.2338 81.8955 41.7413C80.7788 40.6123 79.4447 39.7216 77.9738 39.123C76.503 38.5244 74.926 38.2304 73.3383 38.2587C71.5068 38.2248 69.6952 38.6429 68.0638 39.4759C66.4324 40.309 65.0315 41.5313 63.9851 43.0348V38.8557H61V47.3134H64.2836C64.6816 45.9204 65.4776 44.7264 66.4726 43.7313ZM110.453 54.9751C109.59 56.3346 108.4 57.4565 106.992 58.2385C105.584 59.0206 104.003 59.438 102.393 59.4527C100.474 59.4593 98.6004 58.8691 97.0316 57.7638C95.4628 56.6585 94.2765 55.0929 93.6368 53.2836H90.3532C90.8507 55.3731 91.9453 57.2637 93.5373 58.7562C94.6354 59.8824 95.9521 60.7722 97.4065 61.371C98.8609 61.9699 100.422 62.2652 101.995 62.2388C103.81 62.2738 105.607 61.8876 107.248 61.1107C108.888 60.3338 110.325 59.1873 111.448 57.7612V61.6418H114.433V53.2836H111.149L110.453 54.9751ZM94.3333 45.6219C95.1314 44.1963 96.3043 43.0163 97.725 42.2095C99.1456 41.4027 100.76 40.9999 102.393 41.0448C104.335 40.9986 106.239 41.5852 107.819 42.7159C109.398 43.8466 110.567 45.4603 111.149 47.3134H114.433V38.8557H111.448V43.0348C110.395 41.5376 108.993 40.32 107.363 39.4876C105.733 38.6553 103.925 38.2335 102.095 38.2587C100.507 38.2304 98.9298 38.5244 97.459 39.123C95.9882 39.7216 94.654 40.6123 93.5373 41.7413C91.9453 43.2338 90.8507 45.1244 90.3532 47.3134H93.5373L94.3333 45.6219ZM129.955 56.3682L128.463 53.2836H125.279L128.264 59.9502L123.786 70H126.97L134.433 53.2836H131.249L129.955 56.3682ZM140.9 38.8557H137.716L133.935 47.3134H137.119L140.9 38.8557ZM121.896 38.8557H118.711L122.493 47.3134H125.776L121.896 38.8557ZM147.368 30H144.383V47.3134H147.368V30ZM147.368 53.2836H144.383V61.6418H147.368V53.2836ZM174.035 43.0348C173.04 41.5423 171.547 40.2488 169.955 39.4527C168.363 38.6567 166.572 38.1592 164.781 38.2587C163.193 38.2304 161.616 38.5244 160.146 39.123C158.675 39.7216 157.341 40.6123 156.224 41.7413C154.632 43.2338 153.438 45.1244 152.94 47.3134H156.224L156.92 45.6219C157.719 44.1963 158.891 43.0163 160.312 42.2095C161.733 41.4027 163.347 40.9999 164.98 41.0448C166.208 41.0311 167.425 41.2645 168.561 41.731C169.696 42.1975 170.726 42.8875 171.589 43.7601C172.453 44.6327 173.132 45.6701 173.586 46.8104C174.04 47.9507 174.261 49.1708 174.234 50.398C174.294 52.0206 173.897 53.6274 173.088 55.035C172.278 56.4426 171.089 57.5941 169.657 58.3582C168.217 59.1358 166.603 59.5346 164.967 59.5172C163.331 59.4998 161.726 59.0667 160.303 58.2587C158.392 57.1417 156.945 55.3765 156.224 53.2836H153.04C153.537 55.3731 154.632 57.2637 156.124 58.7562C157.222 59.8824 158.539 60.7722 159.994 61.371C161.448 61.9699 163.009 62.2652 164.582 62.2388C166.397 62.2738 168.194 61.8876 169.835 61.1107C171.475 60.3338 172.912 59.1873 174.035 57.7612V61.6418H177.02V38.8557H174.035V43.0348ZM189.458 30.2985H186.473V38.8557H182.294V41.3433H186.473V61.6418H189.458V41.3433H194.234V38.8557H189.458V30.2985ZM219.209 42.6368C216.821 39.7512 213.637 38.2587 209.657 38.2587C205.776 38.2587 202.692 39.6517 200.403 42.5373C198.526 44.8122 197.541 47.6929 197.632 50.641C197.724 53.5892 198.885 56.4032 200.9 58.5572C202.99 61.0448 205.975 62.2388 209.856 62.2388C211.348 62.2388 212.94 62.0398 214.433 61.4428C215.826 60.9453 217.02 60.2488 218.114 59.2537C219.308 58.1592 220.303 56.8657 221 55.3731L218.512 54.0796C217.816 55.2736 216.92 56.3682 215.925 57.2637C215.03 58.0597 214.134 58.5572 213.04 58.9552C210.819 59.7446 208.395 59.7446 206.174 58.9552C204.535 58.2352 203.143 57.0501 202.17 55.5469C201.197 54.0436 200.687 52.288 200.701 50.4975H221.796C221.796 47.3134 220.9 44.7264 219.209 42.6368ZM201 47.9104C201.434 45.9456 202.532 44.1903 204.109 42.9399C205.685 41.6894 207.645 41.0202 209.657 41.0448C210.984 41.0399 212.298 41.3117 213.514 41.8428C214.73 42.3739 215.823 43.1526 216.721 44.1294C217.617 45.3234 218.214 46.5174 218.512 47.9104H201ZM235.428 38.2587C234.333 38.2587 233.239 38.5572 232.244 39.1542C231.149 39.9502 230.154 40.9453 229.358 42.1393V38.8557H226.274V61.6418H229.358V53.8806C229.358 50 229.557 47.3134 229.955 46.0199C230.453 44.3284 231.149 43.1343 232.045 42.3383C232.841 41.5423 233.935 41.1443 234.93 41.0448L236.522 41.4428L238.114 38.9552C237.318 38.5572 236.423 38.2587 235.428 38.2587Z" fill="#38C9F6"/>
<path d="M164.881 57.6617C166.258 57.6735 167.612 57.3091 168.797 56.6078C169.982 55.9064 170.953 54.8948 171.605 53.682C172.258 52.4691 172.567 51.1012 172.498 49.7258C172.43 48.3504 171.988 47.0197 171.219 45.8772C170.45 44.7348 169.384 43.824 168.135 43.2432C166.887 42.6623 165.503 42.4335 164.134 42.5813C162.765 42.7291 161.462 43.248 160.366 44.0819C159.27 44.9159 158.423 46.0332 157.915 47.3134H162.99V45.6219L170.154 50.199L162.99 54.6766V53.2836H158.015C158.622 54.5923 159.592 55.6999 160.808 56.4756C162.025 57.2514 163.438 57.6629 164.881 57.6617Z" fill="#38C9F6"/>
</g>
<defs>
<clipPath id="clip0_298_10355">
<rect width="177.214" height="40" fill="white" transform="translate(61 30)"/>
</clipPath>
</defs>
</svg>
