<svg width="300" height="100" viewBox="0 0 300 100" fill="none" xmlns="http://www.w3.org/2000/svg">
<rect width="300" height="100" fill="white"/>
<g clip-path="url(#clip0_298_10348)">
<mask id="mask0_298_10348" style="mask-type:luminance" maskUnits="userSpaceOnUse" x="130" y="30" width="41" height="40">
<path d="M130 30H170.664V70H130V30Z" fill="white"/>
</mask>
<g mask="url(#mask0_298_10348)">
<path d="M166.44 30H132.112C130.951 30 130 30.9524 130 32.1164V35.9259C130 37.09 130.951 38.0423 132.112 38.0423H166.334C167.496 38.0423 168.446 37.09 168.446 35.9259V32.1164C168.552 30.9524 167.601 30 166.44 30ZM166.44 51.2698H132.112C130.951 51.2698 130 52.2222 130 53.3862V57.1957C130 58.3598 130.951 59.3122 132.112 59.3122H166.334C167.496 59.3122 168.446 58.3598 168.446 57.1957V53.3862C168.552 52.2222 167.601 51.2698 166.44 51.2698ZM151.441 61.9577H132.112C130.951 61.9577 130 62.91 130 64.0741V67.8836C130 69.0476 130.951 70 132.112 70H151.441C152.603 70 153.554 69.0476 153.554 67.8836V64.0741C153.554 62.91 152.603 61.9577 151.441 61.9577ZM168.552 40.6878H132.112C130.951 40.6878 130 41.6402 130 42.8042V46.6138C130 47.7777 130.951 48.7302 132.112 48.7302H168.552C169.714 48.7302 170.664 47.7777 170.664 46.6138V42.8042C170.664 41.6402 169.714 40.6878 168.552 40.6878Z" fill="#0BA4DB"/>
</g>
</g>
<defs>
<clipPath id="clip0_298_10348">
<rect width="40.6645" height="40" fill="white" transform="translate(130 30)"/>
</clipPath>
</defs>
</svg>
