<svg width="300" height="100" viewBox="0 0 300 100" fill="none" xmlns="http://www.w3.org/2000/svg">
<rect width="300" height="100" fill="white"/>
<g clip-path="url(#clip0_298_10335)">
<path d="M162.91 44.8836C162.352 44.8836 161.979 44.5115 161.979 43.9534V39.8604H161.607C159.468 39.8604 158.724 40.2324 158.724 42.1859V46.7441V47.6743V47.7673V54.1859C158.724 54.9301 158.538 55.5813 158.259 56.0464C157.7 56.9766 156.491 57.3487 154.724 57.3487C152.863 57.3487 151.747 56.9766 151.189 56.0464C150.91 55.5813 150.724 54.9301 150.724 54.1859V47.8604V47.7673V46.7441V42.1859C150.724 40.2324 149.979 39.8604 147.84 39.8604H147.189C145.049 39.8604 144.305 40.2324 144.305 42.1859V54.1859C144.305 56.1394 144.77 57.7208 145.607 59.0231C147.189 61.5348 150.352 62.9301 154.817 62.9301C159.282 62.9301 162.445 61.5348 164.026 59.0231C164.863 57.7208 165.328 56.0464 165.328 54.1859V44.8836H162.91Z" fill="#002124"/>
<path d="M169.235 33.3486H172.77C173.142 33.3486 173.421 33.6277 173.421 33.9998V37.5347C173.421 37.9068 173.142 38.1858 172.77 38.1858H169.235C168.863 38.1858 168.584 37.9068 168.584 37.5347V33.9998C168.584 33.6277 168.863 33.3486 169.235 33.3486Z" fill="#002124"/>
<path d="M165.7 30H168.119C168.398 30 168.584 30.186 168.584 30.4651V32.8837C168.584 33.1628 168.398 33.3488 168.119 33.3488H165.7C165.421 33.3488 165.235 33.1628 165.235 32.8837V30.4651C165.235 30.186 165.514 30 165.7 30Z" fill="#002124"/>
<path d="M103.375 39.8604H98.2585C95.5609 39.8604 94.3516 41.0697 94.3516 43.7673V61.2557C94.3516 62.279 94.7237 62.651 95.7469 62.651H96.119C97.1423 62.651 97.5144 62.279 97.5144 61.2557V54.465H103.375C108.584 54.465 111.096 52.1394 111.096 47.1162C111.096 42.0929 108.584 39.8604 103.375 39.8604ZM107.933 47.1162C107.933 49.9999 107.189 51.4883 103.375 51.4883H97.5144V44.1394C97.5144 43.1162 97.8864 42.7441 98.9097 42.7441H103.375C106.259 42.8371 107.933 43.4883 107.933 47.1162Z" fill="#002124"/>
<path d="M117.607 44.8838C115.561 44.8838 114.352 45.1629 113.886 45.2559C113.049 45.4419 112.677 45.628 112.677 46.6512V46.9303C112.677 47.3024 112.77 47.5815 112.863 47.7675C113.049 47.9536 113.235 48.0466 113.514 48.0466C113.7 48.0466 113.793 48.0466 114.072 47.9536C114.538 47.8605 116.119 47.5815 117.793 47.5815C120.863 47.5815 122.072 48.4187 122.072 50.4652V52.3256H118.259C113.328 52.3256 111.003 54.0001 111.003 57.535C111.003 61.0698 113.421 62.9303 117.7 62.9303C122.817 62.9303 125.142 61.1629 125.142 57.2559V50.4652C125.049 46.7443 122.631 44.8838 117.607 44.8838ZM122.072 54.7443V57.1629C122.072 59.1163 121.328 60.2326 117.607 60.2326C115.189 60.2326 113.979 59.3954 113.979 57.535C113.979 55.5815 115.189 54.7443 118.259 54.7443H122.072Z" fill="#002124"/>
<path d="M141.979 45.721C141.793 45.4419 141.328 45.4419 140.956 45.4419H140.677C139.654 45.4419 139.282 45.721 139.003 46.7442L136.119 58.6512C135.747 60.1396 135.282 60.4186 134.445 60.4186C133.421 60.4186 132.956 60.1396 132.584 58.6512L129.328 46.7442C129.049 45.721 128.677 45.4419 127.654 45.4419H127.375C127.003 45.4419 126.538 45.4419 126.352 45.721C126.166 46 126.166 46.3721 126.352 46.8372L129.607 58.8372C130.259 61.1628 130.91 63.0233 133.7 63.0233C134.166 63.0233 134.631 62.9303 135.096 62.8372C134.259 65.4419 133.421 66.5582 130.91 66.8372C130.445 66.8372 130.073 66.9303 129.886 67.2093C129.7 67.4884 129.7 67.8605 129.793 68.1396L129.886 68.4186C130.073 69.1628 130.259 69.5349 131.096 69.5349C131.189 69.5349 131.282 69.5349 131.375 69.5349C135.096 69.2558 137.049 67.3024 138.259 62.6512L142.259 46.8372C142.073 46.3721 142.166 45.907 141.979 45.721Z" fill="#002124"/>
<path d="M167.654 38.2793H162.91C162.352 38.2793 161.979 38.6514 161.979 39.2095V39.8607H162.352C164.491 39.8607 165.235 40.2328 165.235 42.1863V44.977H167.654C168.212 44.977 168.584 44.6049 168.584 44.0467V39.2095C168.584 38.6514 168.212 38.2793 167.654 38.2793Z" fill="#002124"/>
<path d="M196.491 51.4883C195.654 51.4883 195.189 51.6743 194.91 51.9534C194.631 52.2325 194.538 52.7906 194.538 53.4418V55.3953C194.538 56.1394 194.631 56.6046 194.91 56.8836C195.189 57.1627 195.747 57.3487 196.491 57.3487C197.235 57.3487 197.793 57.1627 198.072 56.8836C198.352 56.6046 198.445 56.0464 198.445 55.3953V53.4418C198.445 52.6976 198.352 52.2325 198.072 51.9534C197.886 51.6743 197.328 51.4883 196.491 51.4883Z" fill="#002124"/>
<path d="M188.398 51.6743H186.724C186.445 51.6743 186.259 51.8604 186.259 52.1394V54.372H188.398C188.863 54.372 189.142 54.279 189.328 54.0929C189.514 53.9069 189.607 53.5348 189.607 53.0697C189.607 52.6045 189.514 52.3255 189.328 52.0464C189.235 51.7673 188.863 51.6743 188.398 51.6743Z" fill="#002124"/>
<path d="M198.724 46.3721H177.514C173.049 46.3721 169.328 50 169.328 54.5581C169.328 59.1163 172.956 62.7442 177.514 62.7442H198.631C203.096 62.7442 206.817 59.1163 206.817 54.5581C206.817 50 203.189 46.3721 198.724 46.3721ZM182.91 57.1628C182.91 57.8139 182.817 58.279 182.631 58.6511C182.445 58.9302 182.072 59.1163 181.421 59.2093C181.049 59.3023 180.677 59.3023 180.212 59.3023C178.631 59.3023 177.514 59.0232 176.77 58.4651C176.026 57.907 175.747 56.9767 175.747 55.6744V53.4418C175.747 52.3256 176.119 51.4883 176.863 50.8372C177.607 50.186 178.724 49.907 180.119 49.907C180.77 49.907 181.421 50 181.979 50.186C182.259 50.279 182.538 50.3721 182.631 50.5581C182.724 50.6511 182.817 50.9302 182.817 51.2093V51.3023C182.817 51.6744 182.724 51.8604 182.631 51.9535C182.538 52.0465 182.352 52.0465 181.979 51.9535C181.421 51.7674 180.77 51.6744 180.212 51.6744C179.282 51.6744 178.631 51.8604 178.259 52.1395C177.886 52.4186 177.7 52.9767 177.7 53.7209V55.9535C177.7 56.5116 177.886 56.9767 178.259 57.2558C178.631 57.5349 179.282 57.7209 180.212 57.7209C180.398 57.7209 180.584 57.7209 180.77 57.7209C181.049 57.7209 181.142 57.5349 181.142 57.2558V54.9302C181.142 54.6511 181.235 54.3721 181.328 54.279C181.421 54.186 181.7 54.093 181.979 54.093H182.072C182.352 54.093 182.631 54.186 182.724 54.279C182.817 54.3721 182.91 54.6511 182.91 54.9302V57.1628ZM188.491 56.0465H186.352V58.279C186.352 58.5581 186.259 58.8372 186.166 58.9302C186.072 59.0232 185.793 59.1163 185.514 59.1163H185.235C184.863 59.1163 184.677 59.0232 184.584 58.9302C184.491 58.8372 184.398 58.5581 184.398 58.279V51.5814C184.398 51.0232 184.491 50.5581 184.77 50.279C185.049 50 185.514 49.907 186.072 49.907H188.398C190.538 49.907 191.561 50.9302 191.561 52.9767C191.561 55.0232 190.538 56.0465 188.491 56.0465ZM200.398 55.4883C200.398 56.6977 200.119 57.6279 199.561 58.279C199.003 58.9302 197.979 59.3023 196.491 59.3023C195.003 59.3023 193.979 58.9302 193.421 58.279C192.863 57.6279 192.584 56.6977 192.584 55.4883V53.5349C192.584 52.3256 192.863 51.3953 193.421 50.7442C193.979 50.093 195.003 49.7209 196.491 49.7209C197.979 49.7209 199.003 50.093 199.561 50.7442C200.119 51.3953 200.398 52.3256 200.398 53.5349V55.4883Z" fill="#002124"/>
</g>
<defs>
<clipPath id="clip0_298_10335">
<rect width="112.465" height="40" fill="white" transform="translate(94.3516 30)"/>
</clipPath>
</defs>
</svg>
