<svg width="300" height="100" viewBox="0 0 300 100" fill="none" xmlns="http://www.w3.org/2000/svg">
<rect width="300" height="100" fill="white"/>
<g clip-path="url(#clip0_291_7516)">
<path d="M95.8374 40.0177V43.7075H93.4248V32.9966H97.2042C99.9031 32.9966 101.253 34.1344 101.253 36.41C101.253 37.4856 100.864 38.357 100.087 39.0243C99.3156 39.6866 98.2823 40.0177 96.9876 40.0177H95.8374ZM95.8374 34.849V38.1877H96.786C98.0707 38.1877 98.713 37.625 98.713 36.4997C98.713 35.3992 98.0707 34.849 96.786 34.849H95.8374ZM109.245 43.7075H102.821V32.9966H108.998V34.961H105.234V37.3437H108.737V39.3006H105.234V41.7506H109.245V43.7075ZM120.605 43.7075H117.976L117.214 41.3248H113.405L112.651 43.7075H110.036L113.935 32.9966H116.796L120.605 43.7075ZM116.662 39.4724L115.511 35.8722C115.427 35.6034 115.367 35.2822 115.332 34.9087H115.272C115.248 35.2224 115.185 35.5336 115.086 35.8424L113.92 39.4724H116.662ZM129.382 43.3266C128.6 43.705 127.579 43.8943 126.319 43.8943C124.676 43.8943 123.384 43.4112 122.443 42.4452C121.502 41.4792 121.031 40.192 121.031 38.5836C121.031 36.8706 121.559 35.4814 122.615 34.4157C123.675 33.3501 125.05 32.8173 126.738 32.8173C127.783 32.8173 128.665 32.9493 129.382 33.2132V35.5361C128.665 35.1079 127.848 34.8938 126.932 34.8938C125.926 34.8938 125.114 35.21 124.497 35.8424C123.88 36.4748 123.571 37.3312 123.571 38.4118C123.571 39.4475 123.862 40.2741 124.445 40.8916C125.027 41.5041 125.812 41.8103 126.798 41.8103C127.739 41.8103 128.6 41.5813 129.382 41.1231V43.3266ZM137.673 43.7075H131.249V32.9966H137.426V34.961H133.662V37.3437H137.165V39.3006H133.662V41.7506H137.673V43.7075ZM155.823 43.7075H153.44V37.2989C153.44 36.6067 153.47 35.8424 153.53 35.0058H153.47C153.346 35.6631 153.234 36.1362 153.134 36.425L150.625 43.7075H148.653L146.098 36.4997C146.028 36.3055 145.916 35.8075 145.762 35.0058H145.695C145.76 36.0615 145.792 36.9877 145.792 37.7844V43.7075H143.618V32.9966H147.151L149.34 39.3455C149.514 39.8534 149.641 40.3638 149.721 40.8767H149.766C149.9 40.2841 150.042 39.7687 150.191 39.3305L152.38 32.9966H155.823V43.7075ZM167.677 43.7075H165.048L164.286 41.3248H160.476L159.722 43.7075H157.108L161.007 32.9966H163.868L167.677 43.7075ZM163.733 39.4724L162.583 35.8722C162.498 35.6034 162.438 35.2822 162.404 34.9087H162.344C162.319 35.2224 162.257 35.5336 162.157 35.8424L160.992 39.4724H163.733ZM168.521 43.2967V40.9065C168.954 41.27 169.425 41.5439 169.933 41.7282C170.441 41.9074 170.953 41.9971 171.471 41.9971C171.775 41.9971 172.039 41.9697 172.263 41.9149C172.492 41.8601 172.681 41.7854 172.831 41.6908C172.985 41.5912 173.1 41.4767 173.174 41.3472C173.249 41.2128 173.286 41.0684 173.286 40.914C173.286 40.7049 173.227 40.5181 173.107 40.3538C172.988 40.1895 172.823 40.0376 172.614 39.8982C172.41 39.7588 172.166 39.6243 171.882 39.4948C171.598 39.3654 171.292 39.2334 170.963 39.099C170.127 38.7504 169.502 38.3247 169.089 37.8217C168.68 37.3188 168.476 36.7113 168.476 35.9992C168.476 35.4415 168.588 34.9635 168.812 34.5651C169.036 34.1618 169.34 33.8306 169.723 33.5717C170.112 33.3128 170.56 33.1236 171.068 33.004C171.576 32.8796 172.114 32.8173 172.681 32.8173C173.239 32.8173 173.732 32.8522 174.16 32.9219C174.593 32.9866 174.992 33.0887 175.355 33.2281V35.4614C175.176 35.337 174.979 35.2274 174.765 35.1328C174.556 35.0382 174.339 34.961 174.115 34.9012C173.891 34.8365 173.667 34.7892 173.443 34.7593C173.224 34.7294 173.015 34.7145 172.816 34.7145C172.542 34.7145 172.293 34.7419 172.069 34.7967C171.845 34.8465 171.656 34.9187 171.501 35.0133C171.347 35.1079 171.227 35.2224 171.143 35.3569C171.058 35.4863 171.016 35.6332 171.016 35.7976C171.016 35.9768 171.063 36.1387 171.158 36.2831C171.252 36.4225 171.387 36.5569 171.561 36.6864C171.735 36.8109 171.947 36.9354 172.196 37.0599C172.445 37.1794 172.726 37.3039 173.04 37.4333C173.468 37.6126 173.851 37.8043 174.19 38.0085C174.534 38.2076 174.827 38.4342 175.071 38.6882C175.315 38.9421 175.502 39.2334 175.632 39.5621C175.761 39.8857 175.826 40.2642 175.826 40.6974C175.826 41.2949 175.711 41.7979 175.482 42.2062C175.258 42.6095 174.952 42.9382 174.564 43.1921C174.175 43.4411 173.722 43.6204 173.204 43.7299C172.691 43.8395 172.148 43.8943 171.576 43.8943C170.988 43.8943 170.428 43.8445 169.895 43.7449C169.367 43.6453 168.909 43.4959 168.521 43.2967ZM177.096 43.2967V40.9065C177.529 41.27 177.999 41.5439 178.507 41.7282C179.015 41.9074 179.528 41.9971 180.046 41.9971C180.35 41.9971 180.614 41.9697 180.838 41.9149C181.067 41.8601 181.256 41.7854 181.405 41.6908C181.56 41.5912 181.674 41.4767 181.749 41.3472C181.824 41.2128 181.861 41.0684 181.861 40.914C181.861 40.7049 181.801 40.5181 181.682 40.3538C181.562 40.1895 181.398 40.0376 181.189 39.8982C180.985 39.7588 180.741 39.6243 180.457 39.4948C180.173 39.3654 179.867 39.2334 179.538 39.099C178.702 38.7504 178.077 38.3247 177.663 37.8217C177.255 37.3188 177.051 36.7113 177.051 35.9992C177.051 35.4415 177.163 34.9635 177.387 34.5651C177.611 34.1618 177.915 33.8306 178.298 33.5717C178.687 33.3128 179.135 33.1236 179.643 33.004C180.151 32.8796 180.688 32.8173 181.256 32.8173C181.814 32.8173 182.307 32.8522 182.735 32.9219C183.168 32.9866 183.567 33.0887 183.93 33.2281V35.4614C183.751 35.337 183.554 35.2274 183.34 35.1328C183.131 35.0382 182.914 34.961 182.69 34.9012C182.466 34.8365 182.242 34.7892 182.018 34.7593C181.799 34.7294 181.59 34.7145 181.39 34.7145C181.117 34.7145 180.868 34.7419 180.644 34.7967C180.419 34.8465 180.23 34.9187 180.076 35.0133C179.921 35.1079 179.802 35.2224 179.717 35.3569C179.633 35.4863 179.59 35.6332 179.59 35.7976C179.59 35.9768 179.638 36.1387 179.732 36.2831C179.827 36.4225 179.961 36.5569 180.136 36.6864C180.31 36.8109 180.522 36.9354 180.771 37.0599C181.019 37.1794 181.301 37.3039 181.615 37.4333C182.043 37.6126 182.426 37.8043 182.765 38.0085C183.108 38.2076 183.402 38.4342 183.646 38.6882C183.89 38.9421 184.077 39.2334 184.206 39.5621C184.336 39.8857 184.401 40.2642 184.401 40.6974C184.401 41.2949 184.286 41.7979 184.057 42.2062C183.833 42.6095 183.527 42.9382 183.138 43.1921C182.75 43.4411 182.297 43.6204 181.779 43.7299C181.266 43.8395 180.723 43.8943 180.151 43.8943C179.563 43.8943 179.003 43.8445 178.47 43.7449C177.942 43.6453 177.484 43.4959 177.096 43.2967Z" fill="#060862"/>
<path d="M104.723 51.426H100.676V63.0122H97.4702V51.426H93.4432V48.8239H104.723V51.426ZM118.535 63.0122H114.864L112.658 59.3612C112.493 59.0842 112.335 58.8368 112.183 58.6192C112.031 58.4015 111.876 58.2168 111.718 58.0651C111.566 57.9068 111.405 57.788 111.233 57.7089C111.068 57.6231 110.887 57.5803 110.689 57.5803H109.828V63.0122H106.632V48.8239H111.698C115.141 48.8239 116.863 50.1101 116.863 52.6826C116.863 53.1773 116.787 53.6358 116.635 54.0579C116.484 54.4735 116.269 54.8495 115.992 55.1859C115.715 55.5223 115.379 55.8125 114.983 56.0566C114.594 56.3006 114.158 56.4919 113.677 56.6304V56.67C113.888 56.736 114.092 56.8448 114.29 56.9965C114.488 57.1416 114.68 57.3131 114.864 57.511C115.049 57.7089 115.224 57.9233 115.389 58.1541C115.56 58.3784 115.715 58.5994 115.854 58.817L118.535 63.0122ZM109.828 51.2183V55.1661H111.213C111.899 55.1661 112.45 54.9682 112.866 54.5724C113.288 54.17 113.499 53.672 113.499 53.0784C113.499 51.8383 112.757 51.2183 111.273 51.2183H109.828ZM132.347 63.0122H128.865L127.855 59.8559H122.809L121.81 63.0122H118.347L123.512 48.8239H127.301L132.347 63.0122ZM127.123 57.4022L125.6 52.6331C125.487 52.2769 125.408 51.8515 125.362 51.3568H125.283C125.25 51.7723 125.167 52.1846 125.036 52.5936L123.492 57.4022H127.123ZM146.882 63.0122H143.657L137.809 54.0975C137.466 53.5764 137.229 53.1839 137.097 52.9201H137.057C137.11 53.4214 137.136 54.1865 137.136 55.2155V63.0122H134.118V48.8239H137.562L143.191 57.4615C143.449 57.8507 143.686 58.2366 143.904 58.6192H143.943C143.891 58.2894 143.864 57.6396 143.864 56.67V48.8239H146.882V63.0122ZM149.474 62.468V59.3019C150.048 59.7834 150.672 60.1462 151.344 60.3902C152.017 60.6277 152.697 60.7464 153.383 60.7464C153.785 60.7464 154.135 60.7101 154.431 60.6376C154.735 60.565 154.985 60.4661 155.183 60.3408C155.388 60.2088 155.539 60.0571 155.638 59.8856C155.737 59.7075 155.787 59.5162 155.787 59.3118C155.787 59.0347 155.708 58.7874 155.549 58.5697C155.391 58.352 155.173 58.1508 154.896 57.9661C154.626 57.7814 154.303 57.6034 153.927 57.4319C153.551 57.2604 153.145 57.0856 152.71 56.9075C151.602 56.4457 150.774 55.8818 150.226 55.2155C149.685 54.5493 149.415 53.7446 149.415 52.8013C149.415 52.0626 149.563 51.4293 149.86 50.9016C150.157 50.3674 150.559 49.9287 151.067 49.5857C151.582 49.2427 152.175 48.9921 152.848 48.8337C153.521 48.6688 154.233 48.5864 154.985 48.5864C155.724 48.5864 156.377 48.6326 156.944 48.7249C157.518 48.8107 158.046 48.9459 158.528 49.1306V52.089C158.29 51.9241 158.03 51.7789 157.746 51.6536C157.469 51.5283 157.182 51.426 156.885 51.3469C156.588 51.2611 156.291 51.1985 155.995 51.1589C155.704 51.1193 155.427 51.0995 155.164 51.0995C154.801 51.0995 154.471 51.1358 154.174 51.2084C153.877 51.2743 153.627 51.37 153.422 51.4953C153.218 51.6206 153.059 51.7723 152.947 51.9504C152.835 52.1219 152.779 52.3165 152.779 52.5342C152.779 52.7717 152.842 52.986 152.967 53.1773C153.092 53.362 153.27 53.5401 153.501 53.7116C153.732 53.8765 154.012 54.0414 154.342 54.2063C154.672 54.3646 155.045 54.5295 155.46 54.701C156.028 54.9385 156.536 55.1925 156.984 55.4629C157.439 55.7267 157.828 56.0269 158.152 56.3633C158.475 56.6997 158.722 57.0856 158.894 57.5209C159.065 57.9497 159.151 58.451 159.151 59.0248C159.151 59.8164 158.999 60.4826 158.696 61.0235C158.399 61.5578 157.993 61.9931 157.479 62.3295C156.964 62.6593 156.364 62.8968 155.678 63.0419C154.999 63.187 154.28 63.2596 153.521 63.2596C152.743 63.2596 152.001 63.1936 151.295 63.0617C150.596 62.9298 149.989 62.7319 149.474 62.468ZM164.682 63.0122H161.486V48.8239H164.682V63.0122ZM177.881 51.426H173.834V63.0122H170.628V51.426H166.601V48.8239H177.881V51.426Z" fill="#060862"/>
<path d="M196.868 32.7559L189.258 61.1584H180.046L187.656 32.7559H196.868Z" fill="black"/>
<path d="M207.777 32.7559L200.167 61.1584H190.955L198.565 32.7559H207.777Z" fill="black"/>
<path d="M198.195 32.7725L190.59 61.1586H200.195L207.8 32.7725H198.195Z" fill="#060862"/>
<path d="M187.651 32.7725L180.046 61.1586H189.262L196.868 32.7725H187.651Z" fill="#FF7302"/>
<path d="M199.408 39.5601C199.478 40.2221 199.597 40.8779 199.764 41.5223C200.015 42.4215 200.467 43.8826 200.467 43.8826C200.467 43.8826 200.844 44.5288 201.136 43.7772C201.202 42.837 201.051 41.8942 200.696 41.0212L200.05 39.4548C200.05 39.4548 199.471 38.4737 199.408 39.5601Z" fill="white"/>
<path d="M200.612 47.2239V48.7061C200.612 48.7061 200.026 49.9799 199.61 48.7061L199.504 47.4956C199.504 47.4956 199.797 46.4091 200.612 46.5964V47.2239Z" fill="white"/>
<path d="M199.41 42.6276C199.41 42.6276 199.153 42.274 199.125 42.2436C199.012 42.1274 198.882 42.0301 198.738 41.9556C198.375 41.7706 197.954 41.8151 197.568 41.8151C197.425 41.8151 197.266 41.7917 197.116 41.8151C196.952 41.8338 196.801 41.9092 196.687 42.0282L197.013 42.3045C197.053 42.3373 197.315 42.5035 197.315 42.5386C197.509 42.7042 197.737 42.8264 197.982 42.8969C198.176 42.92 198.373 42.9089 198.563 42.8641C198.851 42.807 199.134 42.7279 199.41 42.6276Z" fill="white"/>
<path d="M202.375 39.7477C202.496 39.6388 202.644 39.5644 202.803 39.5322C203.129 39.5135 203.073 40.0216 203.063 40.223C203.071 40.6403 202.948 41.0497 202.712 41.3937C202.496 41.6864 202.075 41.9463 201.696 41.8246C201.508 41.766 201.462 41.4968 201.462 41.3282C201.469 41.0681 201.545 40.8145 201.682 40.5929C201.812 40.3681 201.875 40.1103 201.862 39.8507C202.039 39.8646 202.217 39.8289 202.375 39.7477Z" fill="white"/>
<path d="M200.846 38.036L201.314 37.4295C201.314 37.4295 201.649 36.8675 201.836 37.5559C201.914 38.0116 201.914 38.4771 201.836 38.9328C201.773 39.3519 201.602 40.0356 201.017 39.9115C200.806 39.867 200.684 39.6329 200.605 39.4549C200.286 38.7665 200.846 38.036 200.846 38.036Z" fill="white"/>
<path d="M199.628 36.94V38.3449C199.628 38.3449 199.42 39.0029 199.001 39.0473C198.532 39.0942 198.347 38.4549 198.364 38.1107C198.38 37.7665 198.364 37.3591 198.406 36.9892C198.406 36.9892 198.481 36.2469 199.033 36.2867C199.586 36.3265 199.628 36.94 199.628 36.94Z" fill="white"/>
<path d="M197.603 39.9184C197.781 39.915 197.96 39.9315 198.135 39.9676C198.312 40.027 198.471 40.1327 198.595 40.2739C198.718 40.4151 198.802 40.5865 198.837 40.7707C198.872 40.9206 198.799 41.0049 198.666 41.054C198.102 41.3093 197.577 41.0423 197.095 40.759C196.713 40.5249 196.095 40.183 196.022 39.696C195.992 39.4899 196.022 39.2815 196.278 39.3541C196.533 39.4267 196.662 39.6491 196.882 39.7568C197.11 39.8556 197.355 39.9104 197.603 39.9184Z" fill="white"/>
<path d="M185.127 51.6914C185.127 51.6914 185.064 54.2812 186.504 55.7633C186.662 55.8591 186.846 55.9026 187.029 55.8874C187.213 55.8723 187.388 55.7993 187.527 55.679C188.071 55.2622 188.354 53.5085 193.875 53.7168C193.875 53.7168 196.945 54.0517 197.926 49.4787C197.926 49.4787 198.511 47.0342 199.441 46.2732C199.903 45.8635 200.459 45.5733 201.059 45.4279C201.059 45.4279 200.474 43.3393 197.905 44.4468L196.252 45.5918C196.252 45.5918 193.838 41.3513 192.105 40.0986C192.105 40.0986 190.733 43.9855 192.936 44.8425L192.852 45.4068L187.031 41.2085C187.031 41.2085 186.036 46.6244 189.857 49.6169C189.857 49.6169 190.368 50.1882 189.803 50.605C189.239 51.0218 187.499 51.5416 187.499 51.5416C186.715 51.6663 185.921 51.7165 185.127 51.6914Z" fill="white"/>
</g>
<defs>
<clipPath id="clip0_291_7516">
<rect width="115.6" height="40" fill="white" transform="translate(92.1998 30)"/>
</clipPath>
</defs>
</svg>
