<svg width="300" height="100" viewBox="0 0 300 100" fill="none" xmlns="http://www.w3.org/2000/svg">
<rect width="300" height="100" fill="white"/>
<g clip-path="url(#clip0_291_7500)">
<mask id="mask0_291_7500" style="mask-type:luminance" maskUnits="userSpaceOnUse" x="125" y="30" width="50" height="40">
<path d="M125.818 30H174.182V70H125.818V30Z" fill="white"/>
</mask>
<g mask="url(#mask0_291_7500)">
<path d="M164.753 33.7276C153.696 33.8215 142.388 26.5858 131.645 32.0361C128.951 33.383 125.818 36.39 125.818 39.6477V70.0001C134.589 63.4535 143.892 62.0439 153.07 61.95C157.079 61.9186 161.089 61.6994 164.973 60.5717C168.105 59.6633 171.613 58.1285 174.182 56.1551V31.2843C170.486 33.8842 169.295 33.6962 164.753 33.7276Z" fill="white"/>
<path d="M173.399 32.5686C170.611 34.2914 169.076 34.3227 165.693 34.3227H164.785C160.619 34.3853 156.421 33.383 152.349 32.4433C145.239 30.7831 138.536 29.2483 131.989 32.5373C129.327 33.8842 126.601 36.7033 126.601 39.4597V68.4652L127.698 67.7448V40.5561C127.698 37.7683 130.392 34.9492 133.054 33.6336C139.632 30.3133 146.335 31.8795 153.414 33.5083C157.486 34.448 160.869 35.7322 165.004 35.7009C165.004 35.7009 171.551 35.9202 173.399 32.5686Z" fill="#BBE2F1"/>
<path d="M165.536 59.0057C162.06 59.9767 158.708 60.6032 152.318 60.0394C143.955 59.3189 131.331 59.5695 126.601 68.4654C135.842 62.6079 145.458 61.4489 153.007 61.3863C156.578 61.355 160.775 61.167 164.785 60.0394C167.009 59.4129 172.24 57.6275 173.336 55.8107C171.488 56.6878 167.917 58.3166 165.536 59.0057ZM168.982 40.7128C168.074 40.7128 167.76 40.1177 167.76 39.4599C167.76 38.8334 168.074 38.2383 168.982 38.2383C169.89 38.2383 170.172 38.8334 170.172 39.4912C170.172 40.1177 169.89 40.7128 168.982 40.7128ZM168.982 38.4575C168.23 38.4575 167.98 38.8961 167.98 39.4912C167.98 40.055 168.23 40.5249 168.982 40.5249C169.734 40.5249 169.953 40.055 169.953 39.4912C169.953 38.8961 169.734 38.4575 168.982 38.4575ZM169.233 40.2117L168.951 39.6792H168.794V40.2117H168.418V38.7708H169.045C169.483 38.7708 169.577 39.0214 169.577 39.2406C169.577 39.4599 169.452 39.5852 169.264 39.6478L169.608 40.2117H169.233ZM169.013 39.084H168.794V39.4286H169.013C169.201 39.4286 169.201 39.3346 169.201 39.2406C169.201 39.1467 169.17 39.084 169.013 39.084ZM161.934 49.6713C162.091 49.5774 162.279 49.546 162.467 49.5147L162.968 49.3894C163.563 48.7316 164.315 48.1991 164.91 48.1052H164.941C165.004 47.9799 165.004 47.8859 165.004 47.8232L164.973 47.6666C164.816 47.5413 164.628 47.51 164.346 47.5413C163.5 47.698 162.373 48.7316 161.778 49.64V49.8279L161.934 49.6713Z" fill="#AE9A63"/>
<path d="M168.199 53.994C167.729 54.2133 167.134 54.0254 166.789 53.6495C166.351 53.1483 165.975 52.5845 165.693 51.9893C165.505 51.6448 165.349 51.2689 165.098 50.9557C164.847 50.6737 164.409 50.2039 164.002 50.2665C167.291 49.7654 168.23 46.1632 165.474 45.9126C163.626 45.7247 162.091 47.2282 161.402 48.5124V43.3754C161.402 42.3104 161.277 39.6792 162.529 39.2407C163.908 38.8022 163.156 40.5876 164.659 40.6816C165.286 40.7129 165.85 40.2431 165.975 39.7106C166.132 39.0528 165.599 38.395 165.035 38.0817C163.406 37.2673 158.583 39.1781 158.583 45.4427V52.3965C158.363 52.6471 158.144 52.8351 157.894 53.023C156.609 53.8687 156.453 52.4905 156.453 52.4905V47.5101C156.453 47.5101 156.39 46.3824 156.86 46.1945H155.043C154.197 46.1945 154.26 46.7896 154.26 46.7896V47.1342C153.978 46.6017 153.352 46.2571 152.6 46.2258C150.345 46.1319 148.966 48.2932 148.872 50.2665C148.841 50.8304 148.904 51.4255 149.029 51.9893C148.904 52.1459 148.81 52.3026 148.653 52.4279C147.557 53.4929 145.959 54.0567 144.487 53.7121L144.049 53.5868C142.827 53.1483 142.263 51.864 142.295 50.5798C142.326 49.3582 142.984 47.792 144.174 47.3535C144.425 47.2908 144.675 47.2282 144.926 47.2595C145.051 47.2908 145.208 47.3221 145.302 47.4161C145.427 47.4788 145.521 47.6667 145.583 47.792C145.865 48.6377 145.302 50.6737 142.482 51.1123C142.482 51.1123 143.266 51.958 145.082 51.4882C145.771 51.3002 146.398 51.0496 146.93 50.5171C147.244 50.1726 147.463 49.7967 147.619 49.3268C147.745 48.8883 147.745 48.3558 147.619 47.886C147.463 47.3221 147.056 46.821 146.586 46.5391C146.147 46.2885 145.677 46.1632 145.176 46.0692C143.109 45.756 140.165 47.1655 139.977 50.3918C139.82 53.3989 141.793 55.2156 144.863 55.2156C146.993 55.2156 148.403 53.9314 149.28 52.8351C149.656 53.8687 150.376 54.7145 151.441 54.9651C153.54 55.4976 154.291 53.1796 154.291 53.1796C154.291 53.1796 154.26 54.2133 154.793 54.7145C155.231 55.1217 155.826 55.0904 156.359 54.9337C157.173 54.6518 157.925 54.0567 158.583 53.3676V53.994C158.583 53.994 158.614 54.5579 158.144 54.9964H160.744C160.744 54.9964 161.402 54.9651 161.402 54.1507V49.5461C162.185 48.3245 164.064 46.6644 165.067 47.4474C165.067 47.4474 165.474 47.8233 164.91 48.5438C164.691 48.763 164.44 48.9823 164.19 49.1389C163.814 49.3582 163.438 49.5148 163.031 49.6714L162.467 49.7967C162.279 49.828 162.122 49.8593 161.997 49.9533C161.903 50.016 161.809 50.0786 161.778 50.1726C161.684 50.2979 161.652 50.4545 161.621 50.6111C161.621 50.6111 161.872 50.4858 162.216 50.5485C162.686 50.6424 162.937 50.9557 163.125 51.3629L163.72 52.6471L164.19 53.5242C164.597 54.2759 165.223 54.9337 166.1 55.059C166.789 55.153 167.479 55.059 167.98 54.5265C168.105 54.3699 168.199 54.182 168.199 53.994ZM154.26 50.5485C154.26 53.6495 152.663 53.3676 152.663 53.3676C151.786 53.3676 150.877 51.9893 150.877 50.4232C150.877 48.8257 151.66 47.6041 152.663 47.5414C153.383 47.4788 154.197 48.0739 154.26 49.1389V50.5485Z" fill="#20307F"/>
<path d="M147.494 38.7391C146.993 36.7971 145.145 35.3249 143.328 34.6044C141.653 33.9571 139.833 33.7837 138.066 34.1033C135.53 34.5595 133.204 35.81 131.425 37.6741C131.018 38.1127 130.642 38.7078 130.36 39.2716C129.577 40.9004 129.89 43.0931 131.613 43.9701C131.926 44.1267 132.334 44.1894 132.678 44.1894C134.088 44.252 135.654 43.0304 135.027 41.4956C134.276 42.6545 133.242 42.1534 133.242 42.1534C132.459 41.7775 132.302 40.8691 132.522 40.1174C132.741 39.2403 133.305 38.4572 133.931 37.8307C135.341 36.4838 137.22 35.7321 139.131 35.5128C141.073 35.2935 143.297 35.9827 144.393 37.7368C145.27 39.1777 145.02 40.9944 143.986 42.2787C142.921 43.5629 140.634 43.7195 139.632 42.216C139.29 41.7339 139.134 41.1441 139.193 40.5559C139.319 39.6475 139.914 38.8018 140.885 38.7078C140.791 38.4572 140.572 37.9247 139.413 38.1127C139.413 38.1127 135.842 38.6765 135.842 43.8135V50.2661C135.842 51.3311 135.967 53.8997 134.683 54.3382C133.336 54.808 134.088 52.96 132.553 52.8973C131.926 52.866 131.394 53.3045 131.269 53.8683C131.112 54.5574 131.613 55.1839 132.208 55.4972C133.806 56.3116 138.818 54.7454 138.818 50.7047V43.6569C140.164 44.9412 142.044 45.2544 143.798 44.7532C144.268 44.6279 144.706 44.3773 145.114 44.1581C146.429 43.375 147.338 42.0281 147.588 40.5559C147.682 39.9607 147.619 39.3029 147.494 38.7391Z" fill="#20307F"/>
<path d="M166.445 39.7732C166.386 40.0328 166.267 40.275 166.098 40.481C165.929 40.687 165.715 40.851 165.472 40.9603C165.23 41.0695 164.965 41.121 164.699 41.1107C164.433 41.1004 164.173 41.0286 163.939 40.9009C164.127 41.2454 164.503 41.59 165.223 41.6526C166.038 41.6839 166.789 41.1201 166.977 40.337C167.165 39.5226 166.695 38.8335 166.1 38.395C166.382 38.8022 166.539 39.272 166.445 39.7732ZM152.443 52.8351C152.13 52.3652 151.879 51.7074 151.879 50.9557C151.879 49.5148 152.6 48.5751 153.258 48.5124C153.414 48.4811 153.571 48.5438 153.728 48.6064C153.634 48.4498 153.54 48.2932 153.414 48.1992C153.226 48.0113 152.944 47.9173 152.725 47.9486C152.036 47.9799 151.347 48.951 151.347 50.3919C151.347 51.5821 151.911 52.5532 152.443 52.8351ZM157.518 47.1342V52.7098C157.33 52.8038 157.204 52.8351 157.142 52.8038C157.048 52.7411 156.954 52.5218 156.954 52.3652V47.0716C156.954 47.0716 156.954 46.2885 157.361 46.1945H157.956C157.956 46.1945 157.518 46.4138 157.518 47.1342ZM162.435 46.5391V43.8766V43.2501C162.435 42.2164 162.498 40.4623 163.281 40.1804H163.313L163.187 39.8985C163.031 39.5226 163.031 39.5226 162.717 39.6479C161.934 39.8985 161.872 41.6526 161.872 42.6863V47.1029L162.435 46.5391ZM167.572 47.3222V47.3848C167.572 48.5124 166.664 49.7027 165.192 50.3292L165.474 50.6424L166.132 51.7388C166.414 52.3652 166.758 52.8664 167.165 53.3049L167.416 53.4929C167.165 53.1483 166.883 52.7724 166.664 52.3026L166.038 51.2063L165.724 50.893C167.228 50.2666 168.136 49.0449 168.136 47.9486V47.886C168.105 47.3222 167.854 46.7583 167.291 46.3825C167.479 46.6644 167.572 47.0089 167.572 47.3222ZM158.771 55.9674H161.339C161.809 55.9361 162.435 55.5602 162.435 54.6518V51.4882H162.749C162.561 51.1123 162.404 50.9557 162.185 50.9243L161.872 50.9557V54.088C161.872 55.0277 161.245 55.3723 160.807 55.4036H158.144C158.144 55.4036 158.551 55.9361 158.771 55.9674ZM148.465 50.3292C148.309 50.7051 148.089 51.0496 147.839 51.3316C147.212 51.9893 146.429 52.2399 145.803 52.4279C144.769 52.6785 144.049 52.5532 143.547 52.3652L143.861 52.929C143.453 52.6785 143.172 52.2713 142.984 51.8014C143.485 51.9893 144.205 52.1146 145.239 51.8641C145.897 51.6761 146.648 51.4255 147.275 50.7991C147.651 50.4232 147.901 49.9846 148.089 49.4208C148.246 48.8883 148.246 48.2932 148.089 47.7294C148.027 47.4161 147.87 47.1342 147.682 46.8523C147.986 47.0834 148.237 47.3757 148.421 47.7103C148.604 48.0448 148.715 48.4141 148.747 48.7944C148.747 48.763 148.81 49.5774 148.465 50.3292ZM154.511 54.9964C154.354 54.8085 154.229 54.5892 154.135 54.3699C153.571 55.0904 152.663 55.6855 151.378 55.3723C150.94 55.247 150.533 55.0277 150.188 54.7458C150.658 55.341 151.253 55.7482 151.942 55.9048C153.132 56.218 154.009 55.6855 154.573 55.0277L154.511 54.9964ZM169.045 54.1507C168.919 54.0567 168.794 54.0567 168.669 54.088C168.606 54.4012 168.45 54.6518 168.356 54.7458C167.823 55.341 167.04 55.5602 166.069 55.4349C165.599 55.3723 165.192 55.1843 164.816 54.9024C165.317 55.5289 165.944 55.9048 166.633 55.9987C167.604 56.124 168.387 55.9048 168.888 55.3096C169.045 55.1843 169.233 54.8711 169.233 54.5265C169.233 54.3699 169.17 54.2133 169.045 54.1507ZM157.8 55.1217L157.768 54.9651C157.768 54.8398 157.831 54.7145 157.894 54.6518L158.019 54.4326C157.518 54.8085 157.048 55.1217 156.547 55.3096C155.889 55.5289 155.294 55.4662 154.824 55.1843L155.074 55.5289C155.576 55.9987 156.296 56.124 157.11 55.8421C157.424 55.7482 157.737 55.5602 158.05 55.3723C157.956 55.3096 157.831 55.247 157.8 55.1217ZM149.186 53.5555C147.964 54.9024 146.523 55.6229 144.894 55.6229C143.391 55.6229 142.138 55.2157 141.23 54.4326L141.386 54.6205C142.326 55.6229 143.735 56.1554 145.458 56.1554C147.024 56.1554 148.434 55.4662 149.624 54.2133L149.186 53.5555ZM144.926 48.2932C144.174 48.5751 143.673 49.4208 143.453 50.3292L142.796 50.5171C142.827 49.4208 143.422 48.0739 144.362 47.7294C144.55 47.6667 144.738 47.6354 144.894 47.6667L145.051 47.698C145.051 47.698 145.615 48.0739 144.926 48.2932ZM139.225 35.9204C137.251 36.171 135.497 36.9541 134.276 38.1444C133.806 38.5829 133.211 39.3347 132.96 40.2117C132.835 40.7442 132.897 41.4647 133.461 41.7153L133.555 41.7779C133.461 41.4647 133.43 41.0888 133.524 40.7442C133.775 39.8672 134.37 39.1467 134.84 38.6769C136.061 37.4866 137.815 36.7035 139.789 36.4843C141.073 36.359 142.608 36.6409 143.735 37.5179C142.639 36.2023 140.728 35.7638 139.225 35.9204ZM135.278 44.2838C135.037 44.5863 134.725 44.8246 134.37 44.9776C134.015 45.1306 133.627 45.1935 133.242 45.1608C133.023 45.1608 132.49 45.1295 132.02 44.9103C131.519 44.6597 131.143 44.3464 130.861 43.9392L131.457 44.3464C131.926 44.5657 132.49 44.6283 132.678 44.6283C133.524 44.6597 134.526 44.3151 135.027 43.5947C135.372 43.1248 135.591 42.3731 135.309 41.6526C135.309 41.6526 136.28 42.9369 135.278 44.2838ZM134.526 53.8687C134.401 53.6182 134.213 53.3363 133.9 53.1796L134.119 53.5868C134.276 53.9627 134.276 53.9627 134.526 53.8687Z" fill="#AE9A63"/>
<path d="M148.497 39.1463C148.215 38.0187 147.525 37.0477 146.68 36.2959C147.244 36.9537 147.713 37.7055 147.933 38.5825C148.212 39.7144 148.111 40.9065 147.647 41.976C147.183 43.0454 146.381 43.933 145.364 44.5026C145.02 44.6906 144.518 44.9725 143.955 45.1291C142.294 45.599 140.603 45.3797 139.287 44.534V50.6733C139.287 52.4901 138.348 54.0876 136.625 55.1213C135.027 56.0923 133.054 56.4055 131.989 55.8417L131.707 55.6538C131.926 55.967 132.24 56.2489 132.553 56.4055C133.618 56.9694 135.591 56.6561 137.157 55.6851C138.88 54.6514 139.851 53.0539 139.851 51.2372V45.0978C140.765 45.6626 141.82 45.9592 142.894 45.9536C143.969 45.9481 145.02 45.6407 145.928 45.0665C147.369 44.1894 148.34 42.7798 148.59 41.151C148.684 40.5246 148.653 39.8041 148.497 39.1463ZM140.572 42.4666C140.29 42.0281 140.164 41.5582 140.227 41.151C140.29 40.4619 140.728 39.7415 141.511 39.6475C141.637 39.6475 141.762 39.5849 141.825 39.4596C141.887 39.3343 141.919 39.1777 141.856 39.0524C141.731 38.7078 141.511 38.4572 141.198 38.3319L141.323 38.5199C141.386 38.6452 141.355 38.7704 141.292 38.8957C141.229 39.021 141.073 39.0837 140.948 39.115C140.164 39.1777 139.757 39.8981 139.663 40.5872C139.638 40.9525 139.708 41.3182 139.867 41.6479C140.027 41.9776 140.269 42.2598 140.572 42.4666Z" fill="#AE9A63"/>
<path d="M151.879 53.3047C151.19 52.7722 150.658 51.6446 150.658 50.4229C150.658 48.7315 151.504 47.4159 152.663 47.3219C152.913 47.2906 153.226 47.3532 153.477 47.4785C153.164 47.2593 152.788 47.134 152.412 47.1653C151.284 47.2593 150.407 48.5749 150.407 50.2663C150.407 51.6446 151.065 52.8662 151.879 53.3047ZM156.014 52.3337V47.3532V47.1966C156.014 47.0087 156.045 46.6955 156.139 46.4135H156.453C156.296 46.7581 156.265 47.134 156.265 47.3532V52.4903C156.265 52.4903 156.327 53.1481 156.735 53.336C156.735 53.336 156.014 53.43 156.014 52.3337ZM145.333 47.1966C144.926 46.9774 144.424 47.04 144.143 47.1653C142.858 47.6038 142.138 49.264 142.107 50.5796C142.075 51.6132 142.42 52.8348 143.391 53.4613C142.232 52.8662 141.856 51.5506 141.856 50.4543C141.919 49.1074 142.639 47.4785 143.892 47.0087C144.205 46.9147 144.487 46.8521 144.738 46.9147C144.738 46.8834 145.051 46.946 145.333 47.1966ZM165.536 39.5224C165.411 39.9296 165.004 40.3681 164.44 40.3368L164.127 40.2742C164.252 40.3681 164.409 40.4621 164.691 40.4621C165.223 40.4934 165.662 40.0862 165.756 39.679C165.881 39.1152 165.442 38.5514 164.941 38.3008C165.317 38.5827 165.63 39.0525 165.536 39.5224ZM163.97 50.0471C165.818 49.7652 166.915 48.4496 166.883 47.3846C166.883 46.8834 166.633 46.5388 166.194 46.3196C166.476 46.5388 166.633 46.8521 166.664 47.228C166.664 48.293 165.568 49.6399 163.72 49.8904C163.72 49.8904 163.5 50.0471 163.97 50.0471ZM160.963 48.7628V42.9366C160.963 41.6837 160.932 39.3345 162.247 38.8959C162.717 38.7393 162.999 38.8333 163.187 39.0212C163.031 38.9586 162.811 38.9586 162.498 39.0525C161.151 39.4911 161.183 41.8403 161.214 43.0933V48.4496L160.963 48.7628ZM166.852 53.9938L166.664 53.8059C166.226 53.336 165.818 52.7409 165.505 52.0831L164.941 51.1121C164.753 50.8928 164.503 50.6422 164.252 50.5169L164.691 50.9554L165.255 51.9578C165.568 52.6156 165.975 53.1794 166.382 53.6493C166.539 53.8059 166.695 53.8998 166.852 53.9938ZM153.853 47.0713C153.884 47.1653 153.978 47.1966 154.072 47.1966C153.915 46.946 153.696 46.7581 153.414 46.6328C153.602 46.7581 153.759 46.9147 153.853 47.0713ZM161.402 48.7315L160.995 49.264L160.963 49.3579V53.9625C160.963 54.5576 160.587 54.6203 160.525 54.6203H158.645L158.583 54.7769H160.775C160.838 54.7769 161.214 54.7143 161.214 54.1191V49.5146L161.245 49.3893C161.809 48.5435 163.093 47.228 164.221 47.04C164.503 46.9774 164.785 47.0087 165.004 47.1027C164.722 46.8834 164.377 46.8208 163.97 46.8834C163.281 47.0087 162.529 47.5412 161.934 48.1363L161.402 48.7315Z" fill="#0069B4"/>
<path d="M147.212 47.7919C147.337 48.2617 147.306 48.7316 147.181 49.1075C147.056 49.546 146.836 49.9219 146.554 50.2038C146.022 50.7363 145.364 50.9555 144.8 51.1122C144.08 51.3001 143.516 51.2688 143.14 51.1748L143.046 51.2061C143.422 51.3627 144.049 51.5194 145.051 51.2688C145.615 51.1122 146.272 50.8929 146.774 50.3604C147.087 50.0785 147.275 49.7026 147.431 49.2641C147.557 48.8882 147.557 48.387 147.431 47.9485C147.306 47.4786 146.93 47.0088 146.523 46.7582L146.398 46.6956C146.774 46.9775 147.087 47.3847 147.212 47.7919ZM165.881 54.683L165.411 54.5264C165.63 54.683 165.881 54.777 166.132 54.8083C166.915 54.9336 167.447 54.777 167.823 54.3698L167.854 54.3071L167.51 54.2758C167.134 54.6204 166.601 54.777 165.881 54.683ZM149.28 52.5844C149.248 52.5217 149.154 52.4591 149.092 52.4591L148.872 52.5217L148.841 52.5844C147.651 54.0879 146.241 54.8396 144.644 54.8396C143.579 54.8396 142.639 54.6204 141.919 54.1818C142.702 54.7143 143.704 54.9963 144.894 54.9963C146.492 54.9963 147.933 54.2132 149.123 52.6783L149.28 52.6157V52.5844ZM158.551 53.1482C158.551 53.0855 158.489 53.0229 158.457 53.0229C158.363 52.9916 158.269 52.9916 158.207 53.0855C157.518 53.806 156.797 54.3071 156.077 54.5577C155.826 54.6517 155.419 54.7457 155.043 54.5891C155.45 54.9336 156.014 54.8083 156.327 54.7143C157.048 54.4638 157.737 53.9626 158.457 53.2108L158.551 53.1482ZM154.26 52.9602C154.197 52.9916 154.135 53.0229 154.103 53.1169C154.041 53.3048 153.32 55.1842 151.504 54.7457C151.19 54.683 150.94 54.5577 150.689 54.3698C150.877 54.4638 151.065 54.5577 151.284 54.5891C152.85 54.9963 153.602 53.5867 153.79 53.0855C153.821 53.0855 154.009 52.6783 154.26 52.9602ZM138.88 35.1685C136.75 35.4191 134.871 36.2649 133.555 37.5491C132.803 38.3009 132.302 39.1153 132.052 39.9297C131.832 40.7441 132.02 41.8091 132.897 42.2476V42.2163H132.866C132.24 41.7151 132.114 40.8068 132.302 40.0863C132.522 39.2719 133.054 38.4575 133.806 37.7057C135.121 36.4215 137.001 35.5757 139.131 35.3252C140.29 35.1999 141.637 35.3878 142.796 35.9829C141.605 35.2625 140.133 35.0432 138.88 35.1685ZM140.572 38.5828C139.632 38.8334 139.099 39.7104 139.005 40.5562L138.974 40.8381C138.988 41.2866 139.11 41.7252 139.327 42.1175C139.545 42.5097 139.854 42.8443 140.227 43.0934C139.82 42.9054 139.475 42.6235 139.225 42.2163C138.912 41.7645 138.737 41.231 138.724 40.6815L138.755 40.4309C138.849 39.5851 139.475 38.6454 140.446 38.3948C140.446 38.3948 140.697 38.5201 140.572 38.5828ZM147.275 38.8021C146.93 37.2985 145.677 36.1082 144.362 35.3565C145.583 36.1082 146.711 37.2359 147.056 38.6454C147.181 39.2093 147.212 39.8357 147.15 40.3682C146.93 41.8091 146.053 43.062 144.769 43.8451C144.033 44.317 143.188 44.5909 142.316 44.6403C141.443 44.6897 140.573 44.5129 139.789 44.127C140.916 44.7848 142.326 44.9728 143.767 44.5342C144.268 44.4089 144.706 44.1584 145.02 43.9704C146.304 43.2187 147.15 41.9657 147.369 40.5248C147.463 39.9923 147.431 39.3346 147.275 38.8021ZM138.755 43.3753C138.692 43.3126 138.598 43.2813 138.504 43.3439C138.41 43.3753 138.379 43.4379 138.379 43.5319V50.5797C138.379 52.7097 136.907 53.9313 135.998 54.4638C134.526 55.3721 132.803 55.5288 132.083 55.1842L132.302 55.3095C133.023 55.6854 134.745 55.5288 136.28 54.5891C137.157 54.0879 138.63 52.8663 138.63 50.7363V43.6885C138.63 43.5945 138.661 43.5319 138.755 43.4692H138.849L138.755 43.3753ZM132.709 44.0017C133.461 44.0331 134.276 43.6259 134.683 43.062C134.839 42.8428 134.965 42.5609 134.965 42.185L134.933 41.997L134.714 42.185C134.683 42.4669 134.558 42.7175 134.432 42.9054C134.204 43.2121 133.906 43.4601 133.563 43.629C133.22 43.7978 132.841 43.8826 132.459 43.8764C132.083 43.8451 131.738 43.7825 131.488 43.6572L131.363 43.5632L131.738 43.8138C131.989 43.9078 132.334 43.9704 132.709 44.0017Z" fill="#0069B4"/>
<path d="M133.242 53.743C133.336 54.0249 133.493 54.3382 133.806 54.4321C133.649 54.3068 133.555 54.0876 133.493 53.8996C133.336 53.5864 133.211 53.3045 132.897 53.1792C133.054 53.3358 133.148 53.5238 133.242 53.743Z" fill="#0069B4"/>
</g>
</g>
<defs>
<clipPath id="clip0_291_7500">
<rect width="48.3633" height="40" fill="white" transform="translate(125.818 30)"/>
</clipPath>
</defs>
</svg>
