<svg width="300" height="100" viewBox="0 0 300 100" fill="none" xmlns="http://www.w3.org/2000/svg">
<rect width="300" height="100" fill="white"/>
<g clip-path="url(#clip0_298_10321)">
<path d="M128.527 59.054C127.43 59.0811 126.341 58.8497 125.349 58.3784C124.357 57.9071 123.491 57.209 122.818 56.3408V65.7447H119.677V41.5858H122.677V44.7324C123.244 43.6531 124.106 42.7574 125.163 42.1502C126.22 41.5429 127.428 41.2491 128.646 41.3032C133.341 41.3032 136.786 45.1017 136.786 50.1051C136.786 55.1085 133.444 59.054 128.527 59.054ZM128.348 44.104C127.598 44.1042 126.856 44.2575 126.167 44.5547C125.479 44.852 124.858 45.2867 124.343 45.8324C123.828 46.3781 123.431 47.0232 123.174 47.7281C122.918 48.433 122.808 49.1829 122.851 49.9317V50.2718C122.851 53.7397 125.25 56.207 128.278 56.207C131.306 56.207 133.498 53.4938 133.498 50.0589C133.498 46.6241 131.49 44.104 128.348 44.104Z" fill="#A30937"/>
<path d="M154.966 53.2986C154.19 56.9077 151.335 59.1 147.212 59.1C142.382 59.1 138.823 55.3505 138.823 50.2274C138.823 44.996 142.241 41.2842 147.038 41.2842C151.836 41.2842 155.005 44.6757 155.005 49.6631C155.009 50.1014 154.973 50.5391 154.896 50.9707H142.028C142.005 51.6692 142.12 52.3654 142.369 53.0185C142.618 53.6716 142.995 54.2684 143.478 54.7739C143.96 55.2794 144.539 55.6834 145.18 55.9621C145.821 56.2408 146.511 56.3887 147.21 56.3971C149.679 56.3971 151.372 55.2666 151.757 53.3203L154.966 53.2986ZM147.07 44.003C146.429 43.9812 145.79 44.0885 145.19 44.3185C144.591 44.5484 144.044 44.8965 143.582 45.3419C143.12 45.7873 142.752 46.321 142.5 46.9114C142.249 47.5017 142.118 48.1366 142.116 48.7785H151.808C151.839 48.1466 151.737 47.5153 151.51 46.9248C151.284 46.3343 150.936 45.7975 150.491 45.3486C150.045 44.8996 149.511 44.5484 148.922 44.3172C148.333 44.0861 147.703 43.98 147.07 44.0059V44.003Z" fill="#A30937"/>
<path d="M160.225 58.7006H157.056V41.5848H160.089V44.2387C160.713 43.305 161.565 42.5456 162.564 42.032C163.563 41.5184 164.676 41.2676 165.798 41.3031C169.884 41.3031 172.487 44.1294 172.487 49.0094V58.7006H169.329V49.1224C169.329 45.7309 167.739 44.103 165.134 44.103C162.101 44.103 160.25 46.1869 160.25 49.6161L160.225 58.7006Z" fill="#A30937"/>
<path d="M177.699 58.7006H174.524V41.5848H177.557V44.2387C178.182 43.305 179.033 42.5456 180.032 42.032C181.031 41.5184 182.144 41.2676 183.266 41.3031C187.358 41.3031 189.955 44.1294 189.955 49.0094V58.7006H186.797V49.1224C186.797 45.7309 185.207 44.103 182.602 44.103C179.569 44.103 177.719 46.1869 177.719 49.6161L177.699 58.7006Z" fill="#A30937"/>
<path d="M208.147 53.3023C207.371 56.9114 204.516 59.098 200.393 59.098C195.563 59.098 192.003 55.3532 192.003 50.2254C192.003 44.994 195.422 41.2822 200.219 41.2822C205.016 41.2822 208.186 44.6737 208.186 49.6611C208.188 50.0993 208.151 50.5369 208.077 50.9687H195.196C195.172 51.6672 195.288 52.3635 195.537 53.0166C195.786 53.6697 196.163 54.2665 196.645 54.772C197.128 55.2774 197.707 55.6814 198.348 55.9601C198.989 56.2389 199.679 56.3868 200.378 56.3952C202.847 56.3952 204.54 55.2647 204.925 53.3183L208.147 53.3023ZM200.251 44.0067C199.612 43.9893 198.976 44.0995 198.379 44.3309C197.783 44.5622 197.239 44.9101 196.778 45.3542C196.318 45.7983 195.951 46.3296 195.698 46.9172C195.446 47.5049 195.313 48.1369 195.307 48.7765H204.999C205.029 48.1442 204.926 47.5127 204.698 46.9222C204.47 46.3317 204.122 45.7951 203.675 45.3465C203.229 44.8978 202.694 44.5469 202.104 44.3161C201.515 44.0853 200.884 43.9806 200.251 44.0067Z" fill="#A30937"/>
<path d="M226.381 53.2903C225.605 56.8994 222.75 59.0917 218.627 59.0917C213.797 59.0917 210.237 55.3422 210.237 50.2191C210.237 44.9877 213.656 41.2759 218.453 41.2759C223.25 41.2759 226.414 44.6674 226.414 49.6548C226.42 50.0929 226.386 50.5306 226.311 50.9624H213.43C213.406 51.6609 213.522 52.3571 213.771 53.0102C214.02 53.6633 214.397 54.2601 214.879 54.7656C215.362 55.2711 215.941 55.6751 216.582 55.9538C217.223 56.2325 217.913 56.3804 218.612 56.3888C221.081 56.3888 222.774 55.2583 223.159 53.312L226.381 53.2903ZM218.485 43.9947C217.843 43.9737 217.204 44.0814 216.604 44.3115C216.004 44.5416 215.456 44.8894 214.993 45.3345C214.53 45.7795 214.161 46.3128 213.907 46.9028C213.653 47.4929 213.52 48.1278 213.515 48.7702H223.207C223.241 48.1387 223.143 47.507 222.918 46.9158C222.694 46.3246 222.348 45.7868 221.903 45.3371C221.459 44.8874 220.925 44.5357 220.336 44.3045C219.748 44.0733 219.117 43.9678 218.485 43.9947Z" fill="#A30937"/>
<path d="M91.5459 30C83.2254 30 76.4819 37.4613 76.4819 46.6589C76.4819 55.8565 83.2254 63.2914 91.5459 63.2914C99.8664 63.2914 106.61 55.8301 106.61 46.6231C106.61 37.4161 99.8673 30 91.5459 30ZM91.5459 53.3232C90.0025 53.3171 88.5089 52.7761 87.3196 51.7924C86.1302 50.8088 85.3187 49.4432 85.0231 47.9284C84.7275 46.4135 84.9662 44.843 85.6985 43.4844C86.4308 42.1258 87.6115 41.063 89.0394 40.4771C90.4673 39.8912 92.0541 39.8185 93.5296 40.2712C95.0052 40.7239 96.2781 41.6741 97.1317 42.96C97.9853 44.2459 98.3668 45.7879 98.2111 47.3235C98.0554 48.859 97.3723 50.2932 96.278 51.3816C95.656 52.0009 94.9177 52.4913 94.1056 52.8245C93.2936 53.1577 92.4237 53.3272 91.5459 53.3232Z" fill="#A30937"/>
<path d="M83.1801 60.0044H73.1318V69.9999H83.1801V60.0044Z" fill="#A30937"/>
</g>
<defs>
<clipPath id="clip0_298_10321">
<rect width="153.282" height="40" fill="white" transform="translate(73.1328 30)"/>
</clipPath>
</defs>
</svg>
