<svg width="300" height="100" viewBox="0 0 300 100" fill="none" xmlns="http://www.w3.org/2000/svg">
<rect width="300" height="100" fill="white"/>
<g clip-path="url(#clip0_291_3313)">
<path d="M215.455 63.2218H207.707L204.663 69.873L201.478 63.2266H193.998C193.976 63.2072 193.962 63.1809 193.957 63.1522C193.953 63.1235 193.958 63.0942 193.973 63.0691C194.314 62.5305 194.587 61.9523 194.882 61.3891C195.073 61.0264 195.283 60.6718 195.467 60.305C195.51 60.2191 195.594 60.1448 195.517 60.0289C195.482 59.9743 195.544 59.8973 195.579 59.8789C195.856 59.7289 195.939 59.4371 196.072 59.193C196.582 58.2521 197.068 57.2975 197.572 56.3525C198.082 55.3939 198.606 54.4434 199.117 53.4841C199.627 52.5248 200.123 51.575 200.626 50.6246C200.795 50.3048 200.967 49.9857 201.136 49.67C201.198 49.5695 201.235 49.4561 201.246 49.3387C201.841 48.2359 202.432 47.1311 203.019 46.0243C203.386 45.5136 203.682 44.9556 203.899 44.3655C204.181 43.9873 204.417 43.5778 204.605 43.145C204.749 43.3665 204.88 43.5959 204.998 43.8323C205.296 44.3321 205.563 44.8502 205.844 45.3589C205.997 45.6371 206.159 45.9221 206.3 46.2132C206.468 46.5616 206.679 46.895 206.857 47.2359C207.025 47.5591 207.206 47.8775 207.375 48.2007C207.543 48.5239 207.74 48.8327 207.903 49.1512C208.376 50.0743 208.876 50.9832 209.369 51.8955C211.355 55.5746 213.346 59.2514 215.341 62.9259C215.377 62.9941 215.419 63.0568 215.458 63.123L215.455 63.2218Z" fill="#002752"/>
<path d="M84.5454 47.2592H88.2068C88.2334 47.2592 88.2593 47.2197 88.2886 47.1958C88.4877 47.3935 88.7577 47.3478 88.999 47.384C89.4389 47.4154 89.8657 47.5469 90.2469 47.7684C90.6281 47.99 90.9536 48.2958 91.1986 48.6624C91.5313 49.1935 91.641 49.8345 91.504 50.446C91.2095 51.8383 90.5004 52.4349 89.0556 52.6585C88.544 52.7292 88.0277 52.7606 87.5113 52.7526H86.5909V56.3581H84.5454V47.2592ZM86.5636 51.0644C87.2588 51.1118 87.9572 51.0682 88.6411 50.9349C88.8377 50.8907 89.0156 50.7863 89.15 50.6362C89.2845 50.4862 89.3687 50.2979 89.3911 50.0976C89.4126 49.8501 89.3368 49.6039 89.1797 49.4114C89.0225 49.2189 88.7966 49.0952 88.5497 49.0667C87.9413 48.9688 87.3245 48.9327 86.7088 48.959C86.659 48.959 86.6052 48.9515 86.5684 49.0053L86.5636 51.0644Z" fill="#002752"/>
<path d="M150.68 49.0122H152.405V56.3451H150.441L147.112 51.5547C147.063 51.5984 147.025 51.6538 147.004 51.7159C146.982 51.7779 146.977 51.8445 146.988 51.9092V56.3417H145.276V49.0054H147.179C147.298 49.0054 147.41 49.0163 147.452 49.1417C147.568 49.3654 147.703 49.5789 147.856 49.7799C147.9 49.8658 147.996 49.8624 148.055 49.9163C148.084 50.2347 148.327 50.4345 148.493 50.6731C149.182 51.6829 149.894 52.6776 150.599 53.6772C150.613 53.697 150.631 53.7133 150.68 53.7658V49.0122Z" fill="#002752"/>
<path d="M181.26 56.6386C181.174 56.6015 181.081 56.5811 180.987 56.5787C180.542 56.587 180.098 56.5284 179.67 56.4048C178.86 56.2291 178.13 55.7919 177.592 55.1605C177.222 54.6716 176.961 54.1089 176.827 53.5105C176.815 53.4461 176.782 53.3877 176.733 53.3448C176.817 53.2677 176.801 53.1682 176.795 53.0618C176.745 52.5337 176.802 52.0008 176.964 51.4953C177.125 50.9898 177.386 50.5222 177.733 50.1205C178.125 49.708 178.598 49.381 179.122 49.1598C179.46 49.018 179.819 48.9348 180.184 48.9136C180.504 48.8761 180.825 48.8577 181.147 48.8584C181.384 48.8584 181.625 48.9368 181.845 48.9266C182.083 48.9553 182.318 49.0046 182.548 49.0739C182.772 49.1005 182.937 49.2784 183.14 49.3623C183.492 49.5128 183.813 49.7302 184.083 50.0025C184.571 50.4732 184.896 51.0884 185.009 51.7575C185.081 52.1034 185.116 52.4562 185.111 52.8096C185.08 53.7466 184.705 54.6395 184.057 55.3173C183.468 55.8899 182.725 56.2775 181.918 56.4321C181.686 56.4521 181.461 56.5219 181.258 56.6366M180.906 55.0507C181.099 55.0491 181.292 55.0327 181.482 55.0016C181.793 54.936 182.087 54.8085 182.347 54.6268C182.608 54.4451 182.829 54.213 182.998 53.9441C183.166 53.6752 183.279 53.3751 183.33 53.0617C183.38 52.7483 183.367 52.4279 183.291 52.1196C183.215 51.8114 183.078 51.5215 182.888 51.2673C182.698 51.0131 182.459 50.7998 182.184 50.64C181.91 50.4802 181.606 50.3772 181.291 50.3371C180.976 50.2971 180.657 50.3208 180.351 50.4068C180.044 50.4647 179.752 50.5854 179.493 50.7612C179.234 50.9371 179.015 51.1644 178.848 51.429C178.681 51.6936 178.57 51.9897 178.523 52.2989C178.476 52.6082 178.493 52.9238 178.573 53.2262C178.69 53.7538 178.986 54.2245 179.412 54.5574C179.838 54.8903 180.366 55.0647 180.906 55.0507Z" fill="#002752"/>
<path d="M116.756 49.0631C117.813 49.0631 118.854 49.027 119.892 49.0761C120.541 49.0618 121.179 49.24 121.726 49.5881C121.959 49.7396 122.151 49.9463 122.285 50.1899C122.418 50.4336 122.49 50.7065 122.493 50.9845C122.504 52.2295 122.152 52.732 120.897 53.2413L122.949 56.3947H120.866C120.32 55.4054 119.724 54.4542 119.154 53.4765H118.478V56.3947H116.756V49.0631ZM118.444 51.9799C118.822 51.9799 119.187 51.9697 119.551 51.9833C119.787 51.9854 120.022 51.9481 120.246 51.8729C120.377 51.85 120.496 51.7803 120.58 51.6765C120.664 51.5728 120.707 51.4422 120.702 51.309C120.702 50.8392 120.616 50.6715 120.258 50.559C119.661 50.4368 119.05 50.4014 118.444 50.454V51.9799Z" fill="#002752"/>
<path d="M136.565 51.8276V53.316H133.118V54.816H136.908V56.3024H131.4V48.9756H136.752V50.4401H133.132V51.8276H136.565Z" fill="#002752"/>
<path d="M101.96 56.293V48.9771H107.333V50.4396H103.712V51.8325H107.142V53.3107H103.7V54.8039H107.481V56.295L101.96 56.293Z" fill="#002752"/>
<path d="M201.157 38.0898L204.02 40.7203C203.81 40.9623 203.57 41.1594 203.352 41.3762C202.946 41.7798 202.504 42.1433 202.107 42.5571C201.86 42.8142 201.561 43.0283 201.326 43.3071C201.283 43.3556 201.226 43.3896 201.163 43.4045C201.099 43.4194 201.033 43.4144 200.973 43.3903C200.836 43.3594 200.702 43.3165 200.573 43.2621C200.255 43.1007 199.924 42.9686 199.583 42.8673C199.109 42.6955 198.646 42.493 198.164 42.3444C197.918 42.2333 197.664 42.1396 197.405 42.0642L193.928 40.7367C196.39 39.8394 198.775 38.9367 201.155 38.0898" fill="#002752"/>
<path d="M207.252 37.2935C207.215 37.4626 207.078 37.5274 206.989 37.6345C206.659 37.9668 206.347 38.3176 206.057 38.6851C206 38.7724 205.88 38.8167 205.816 38.902C205.543 39.2722 205.154 39.5395 204.909 39.9363C204.815 40.0416 204.708 40.1334 204.589 40.209L201.899 37.3379L204.603 30.127L207.252 37.2935Z" fill="#002752"/>
<path d="M208.029 38.0366C209.227 38.4907 210.421 38.9489 211.62 39.3968C212.795 39.8359 213.973 40.2641 215.15 40.6971L215.159 40.7605L208.024 43.393L205.177 40.7339L208.029 38.0393" fill="#002752"/>
<path d="M168.581 50.1676L167.27 51.054C166.903 50.6531 166.403 50.4 165.863 50.3422C165.323 50.2844 164.781 50.426 164.338 50.7404C163.445 51.3758 163.089 52.3413 163.405 52.9706L163.318 53.1008C163.391 53.5402 163.589 53.9491 163.889 54.2784C164.189 54.6077 164.577 54.8432 165.008 54.9567C165.42 55.1001 165.868 55.1026 166.282 54.9639C166.696 54.8252 167.052 54.5532 167.295 54.1904L168.696 55.1047C168.426 55.5 168.068 55.8282 167.651 56.064C167.205 56.3011 166.72 56.4578 166.22 56.5269C165.439 56.6394 164.642 56.5485 163.907 56.2631C163.211 56.0048 162.61 55.54 162.186 54.9308C161.76 54.3376 161.53 53.627 161.525 52.8969C161.48 52.4363 161.534 51.9714 161.684 51.5333C161.713 51.4651 161.653 51.4276 161.643 51.3567C161.754 51.3294 161.757 51.2251 161.802 51.1379C162.041 50.5983 162.401 50.1207 162.853 49.7415C163.26 49.4242 163.725 49.1891 164.222 49.0494C164.857 48.9065 165.508 48.851 166.158 48.8844C166.671 48.9596 167.169 49.1101 167.637 49.331C167.772 49.3928 167.893 49.4825 167.991 49.5942C168.185 49.7735 168.435 49.8969 168.577 50.1629" fill="#002752"/>
</g>
<defs>
<clipPath id="clip0_291_3313">
<rect width="130.909" height="40" fill="white" transform="translate(84.5454 30)"/>
</clipPath>
</defs>
</svg>
