<svg width="300" height="100" viewBox="0 0 300 100" fill="none" xmlns="http://www.w3.org/2000/svg">
<rect width="300" height="100" fill="white"/>
<g clip-path="url(#clip0_293_8604)">
<path d="M103.079 46.0034C104.231 41.7892 109.03 40.7874 113.448 40.6633C117.082 40.5607 121.13 41.0417 121.13 41.0417L119.228 48.0009C119.228 48.0009 115.177 47.5199 111.545 47.6225C107.128 47.7466 102.328 48.7485 101.176 52.9626L103.079 46.0034Z" fill="#0190FF"/>
<path d="M143.656 42.5703L139.159 59.0164H142.938L144.603 52.9257H147.886C151.509 52.9257 153.912 50.9266 154.562 48.1463C155.168 45.5513 153.653 42.5703 149.595 42.5703C147.615 42.5703 145.635 42.5703 143.656 42.5703ZM146.905 44.5051H148.359C149.88 44.5051 151.087 45.7229 150.796 47.843C150.525 49.8084 148.393 50.9864 146.533 50.9864H145.134L146.905 44.5051Z" fill="#2B01BE"/>
<path d="M182.743 47.6899C179.566 47.6899 177.273 50.4243 176.723 53.1572C176.195 55.7843 177.701 59.2739 181.846 59.2739C184.792 59.2739 186.273 57.9764 186.273 57.9764L185.594 56.3021C185.594 56.3021 184.357 57.31 182.63 57.31C180.905 57.31 179.822 55.9482 180.061 53.776H187.109C187.612 52.4969 187.887 47.6899 182.743 47.6899ZM182.73 49.5052C184.701 49.5052 184.252 52.1094 184.252 52.1094L180.303 52.1002C180.303 52.1002 180.959 49.5052 182.73 49.5052Z" fill="#2B01BE"/>
<path d="M156.078 47.2748L149.865 69.9954H153.491L159 49.8499H162.765L160.259 59.0165H163.883L166.889 48.0239H159.499C159.877 46.6376 160.282 45.1624 160.611 43.9583C161.219 41.7356 162.212 40.121 163.655 40.1746C165.251 40.2359 164.439 41.2837 164.22 42.0833C163.919 43.1878 164.735 44.2999 166.164 44.2999C169.271 44.2999 170.037 38.5938 164.22 38.5938C158.404 38.5938 156.913 44.2264 156.078 47.2748Z" fill="#2B01BE"/>
<path d="M168.255 48.0239L167.756 49.8499H172.35L165.127 59.0166H175.328L175.827 57.1906H170.643L177.867 48.0239H168.255Z" fill="#2B01BE"/>
<path d="M196.79 47.8384C194.427 47.8384 193.033 50.2802 193.033 50.2802L193.65 48.0237H190.024L187.019 59.0164H190.643C190.643 59.0164 191.516 55.8041 191.96 54.2017C192.647 51.6941 194.045 50.1254 194.718 50.0611C195.494 49.9861 195.421 51.8595 196.936 51.8595C199.235 51.8595 199.731 47.8384 196.79 47.8384Z" fill="#2B01BE"/>
<path d="M130.652 59.0426C117.653 58.2323 102.546 51.5243 103.079 46.0034L101.285 52.5629C100.741 58.1955 114.755 64.8821 128.75 66.0019L130.652 59.0426Z" fill="#2B01BE"/>
<path d="M135.377 49.9983C134.225 54.2125 129.425 55.2143 125.007 55.3384C121.375 55.441 117.325 54.96 117.325 54.96L119.228 48.0008C119.228 48.0008 123.278 48.4818 126.91 48.3791C131.328 48.2551 136.127 47.2532 137.279 43.0391L135.377 49.9983Z" fill="#2B01BE"/>
<path d="M107.803 36.9593C120.803 37.7696 135.91 44.4776 135.377 49.9985L137.171 43.439C137.714 37.8064 123.701 31.1198 109.706 30L107.803 36.9593Z" fill="#0190FF"/>
<path d="M103.079 46.0034C104.231 41.7892 109.03 40.7874 113.448 40.6633C117.082 40.5607 121.13 41.0417 121.13 41.0417L119.228 48.0009C119.228 48.0009 115.177 47.5199 111.545 47.6225C107.128 47.7466 102.328 48.7485 101.176 52.9626L103.079 46.0034Z" fill="#0190FF"/>
<path d="M130.652 59.0426C117.653 58.2323 102.546 51.5243 103.079 46.0034L101.285 52.5629C100.741 58.1955 114.755 64.8821 128.75 66.0019L130.652 59.0426Z" fill="#2B01BE"/>
<path d="M135.377 49.9983C134.225 54.2125 129.425 55.2143 125.007 55.3384C121.375 55.441 117.325 54.96 117.325 54.96L119.228 48.0008C119.228 48.0008 123.278 48.4818 126.91 48.3791C131.328 48.2551 136.127 47.2532 137.279 43.0391L135.377 49.9983Z" fill="#2B01BE"/>
<path d="M107.803 36.9593C120.803 37.7696 135.91 44.4776 135.377 49.9985L137.171 43.439C137.714 37.8064 123.701 31.1198 109.706 30L107.803 36.9593Z" fill="#0190FF"/>
</g>
<defs>
<clipPath id="clip0_293_8604">
<rect width="97.6471" height="40" fill="white" transform="translate(101.176 30)"/>
</clipPath>
</defs>
</svg>
