<svg width="300" height="100" viewBox="0 0 300 100" fill="none" xmlns="http://www.w3.org/2000/svg">
<rect width="300" height="100" fill="white"/>
<g clip-path="url(#clip0_298_10286)">
<path d="M101.348 62.4385V70.0001H96.6058V45.3841H101.348V46.5618C102.761 45.6435 104.406 45.148 106.091 45.1338C111.476 45.1338 115.436 49.4152 115.436 54.516C115.436 59.6167 111.513 63.8981 106.091 63.8981C104.399 63.9009 102.746 63.3921 101.348 62.4385ZM101.348 52.2712V56.6237C101.722 57.4202 102.304 58.1015 103.032 58.5963C103.759 59.091 104.607 59.381 105.485 59.4359C106.363 59.4908 107.24 59.3085 108.024 58.9082C108.808 58.5079 109.469 57.9042 109.94 57.1605C110.41 56.4167 110.672 55.5602 110.697 54.6805C110.723 53.8009 110.512 52.9305 110.086 52.1605C109.66 51.3905 109.035 50.7493 108.276 50.3038C107.517 49.8584 106.652 49.6252 105.772 49.6286C104.862 49.6158 103.967 49.8561 103.185 50.3227C102.404 50.7894 101.768 51.464 101.348 52.2712Z" fill="#083E9E"/>
<path d="M118.005 40.4227C117.989 40.0637 118.047 39.7054 118.176 39.3697C118.304 39.034 118.499 38.728 118.75 38.4706C119.001 38.2132 119.301 38.0099 119.634 37.873C119.966 37.7361 120.322 37.6686 120.682 37.6747C121.046 37.6684 121.408 37.7349 121.746 37.8703C122.084 38.0058 122.392 38.2074 122.651 38.4634C122.91 38.7194 123.116 39.0246 123.255 39.361C123.395 39.6975 123.466 40.0584 123.464 40.4227C123.456 41.1553 123.16 41.8553 122.639 42.3704C122.118 42.8855 121.414 43.1741 120.682 43.1733C120.324 43.1717 119.971 43.0989 119.642 42.9591C119.313 42.8194 119.016 42.6155 118.766 42.3595C118.517 42.1034 118.322 41.8002 118.191 41.4677C118.06 41.1352 117.997 40.7799 118.005 40.4227ZM118.292 45.3839H123.108V63.6133H118.292V45.3839Z" fill="#083E9E"/>
<path d="M125.959 54.4473C125.949 53.2204 126.185 52.0039 126.652 50.8694C127.12 49.7348 127.809 48.7052 128.68 47.8409C129.551 46.9766 130.586 46.2951 131.724 45.8366C132.862 45.378 134.08 45.1515 135.307 45.1705C136.984 45.1714 138.635 45.5878 140.113 46.3825V45.3839H144.823V62.578C144.823 67.3204 140.719 69.8919 135.584 69.8919C132.23 69.8919 129.018 68.8934 126.913 67.2572L128.876 63.869C130.876 65.1507 133.208 65.8201 135.584 65.795C138.901 65.795 139.936 64.4776 140.078 62.3356C138.65 63.2496 136.992 63.7435 135.296 63.761C129.837 63.7557 125.959 59.6904 125.959 54.4473ZM140.113 56.4787V52.4133C139.714 51.5651 139.084 50.8468 138.295 50.3415C137.505 49.8361 136.589 49.5643 135.652 49.5573C135.005 49.5511 134.363 49.6728 133.763 49.9155C133.163 50.1581 132.617 50.517 132.156 50.9714C131.695 51.4259 131.329 51.9669 131.078 52.5634C130.827 53.1599 130.696 53.8001 130.694 54.4473C130.694 57.2638 132.833 59.2267 135.618 59.2267C136.552 59.251 137.474 59.0045 138.271 58.5169C139.069 58.0294 139.708 57.3215 140.113 56.4787Z" fill="#083E9E"/>
<path d="M147.682 54.4473C147.673 53.2204 147.908 52.0039 148.376 50.8694C148.843 49.7348 149.532 48.7052 150.403 47.8409C151.274 46.9766 152.309 46.2951 153.447 45.8366C154.585 45.378 155.803 45.1515 157.03 45.1705C158.711 45.17 160.366 45.5864 161.846 46.3825V45.3839H166.555V62.578C166.555 67.3204 162.452 69.8919 157.317 69.8919C153.963 69.8919 150.752 68.8934 148.646 67.2572L150.609 63.869C152.61 65.1511 154.941 65.8205 157.317 65.795C160.634 65.795 161.67 64.4776 161.812 62.3356C160.383 63.2492 158.726 63.7431 157.03 63.761C151.571 63.7557 147.682 59.6904 147.682 54.4473ZM161.846 56.4787V52.4133C161.448 51.5653 160.817 50.8472 160.028 50.3419C159.239 49.8366 158.323 49.5646 157.386 49.5573C156.739 49.5511 156.097 49.6728 155.497 49.9155C154.897 50.1581 154.351 50.517 153.89 50.9714C153.429 51.4259 153.063 51.9669 152.812 52.5634C152.561 53.1599 152.43 53.8001 152.427 54.4473C152.427 57.2638 154.567 59.2267 157.352 59.2267C158.286 59.2507 159.207 59.0041 160.005 58.5165C160.802 58.029 161.442 57.3213 161.846 56.4787Z" fill="#083E9E"/>
<path d="M173.473 45.3843L178.255 57.5487L183.177 45.3843H188.183L177.683 70.0003H173.226L175.86 63.4372L168.196 45.3843H173.473Z" fill="#083E9E"/>
<path d="M187.274 45.3843H192.374L197.022 57.6936L201.625 45.3843H206.631L199.317 63.6138H194.519L187.274 45.3843Z" fill="#083E9E"/>
<path d="M206.968 54.3739C206.968 49.2388 210.641 44.9917 216.385 44.9917C221.701 44.9917 225.74 48.9885 225.838 54.2395C225.875 54.691 225.875 55.1448 225.838 55.5964H211.463C211.605 58.1652 214.066 59.8409 216.706 59.8409C218.882 59.8409 220.165 59.2349 221.664 57.9966L224.27 60.7446C222.162 62.9551 220.055 63.9905 216.706 63.9905C210.536 63.9721 206.968 59.3693 206.968 54.3739ZM211.711 52.1976H220.916C220.453 50.4877 218.808 48.9885 216.313 48.9885C213.423 48.9885 212.211 50.4508 211.711 52.1976Z" fill="#083E9E"/>
<path d="M226.834 61.6531L229.165 57.8697C231.258 59.2646 233.712 60.0207 236.226 60.046C238.619 60.046 239.831 59.44 239.831 58.4072C239.831 57.7274 239.259 57.2295 238.047 56.9792L233.041 55.9095C229.368 55.1191 227.69 53.3775 227.69 50.5241C227.69 47.4916 230.259 44.957 235.576 44.957C238.785 44.957 241.635 45.8871 243.601 47.099L241.425 50.7376C239.82 49.8813 237.681 48.9539 235.431 48.9539C233.399 48.9539 232.222 49.4545 232.222 50.3792C232.222 50.9879 232.651 51.3804 233.826 51.5938L238.042 52.3842C242.608 53.2748 244.365 55.3088 244.365 58.0568C244.365 62.0088 240.413 64.0849 236.087 64.0849C232.837 64.1478 229.633 63.3058 226.834 61.6531Z" fill="#083E9E"/>
<path d="M245.314 45.384H248.025V40.3544L252.767 37.2876V45.384H255.549V49.5231H252.77V63.6161H248.027V49.5231H245.311V45.384H245.314Z" fill="#083E9E"/>
<path d="M84.7313 48.3165C84.6521 47.1593 84.4624 46.0124 84.1648 44.8914C82.8079 39.8854 79.9493 35.9466 75.5915 33.1353C72.8466 31.3502 69.6938 30.2905 66.428 30.0554C65.0559 29.9552 63.6773 29.9922 62.3126 30.166C60.8749 30.3563 59.4617 30.6999 58.0971 31.1909C54.4633 32.5017 51.2919 34.846 48.973 37.9354C46.654 41.0248 45.2887 44.7247 45.0448 48.5799C45 49.2887 45 50.0027 45 50.7141V68.0082C45 68.4575 45.1785 68.8884 45.4962 69.2061C45.8139 69.5238 46.2448 69.7023 46.6941 69.7023H53.3757C53.7938 69.6998 54.1965 69.5438 54.5073 69.2641C54.8181 68.9844 55.0155 68.6003 55.0619 68.1847C55.1059 68.0224 55.1289 67.855 55.1304 67.6868V67.2863C55.1265 67.2557 55.1265 67.2247 55.1304 67.1941V67.1493C55.176 67.1614 55.2189 67.182 55.2569 67.2099C57.7561 68.5919 60.524 69.4187 63.3718 69.6338C64.5124 69.7182 65.6581 69.7067 66.7969 69.5996C69.4776 69.3527 72.0793 68.5596 74.4419 67.2691C76.8045 65.9786 78.8778 64.2181 80.5342 62.096C82.8952 59.126 84.3399 55.5325 84.6917 51.7548C84.8109 50.6123 84.8242 49.4613 84.7313 48.3165ZM68.4488 59.3664C68.437 59.4273 68.4042 59.4821 68.356 59.5211C68.3078 59.5602 68.2474 59.5809 68.1854 59.5798H61.5986C61.5366 59.5809 61.4762 59.5602 61.428 59.5211C61.3798 59.4821 61.3469 59.4273 61.3351 59.3664V59.3243V59.0792C61.3337 58.7769 61.3673 58.4754 61.4353 58.1808C61.4774 58.0807 61.5038 57.9621 61.5459 57.8515C61.5881 57.7408 61.6302 57.638 61.6724 57.53C61.7145 57.422 61.783 57.3245 61.841 57.2323L61.9358 57.09C61.9978 56.998 62.0655 56.91 62.1387 56.8266C62.2151 56.7317 62.2915 56.65 62.3679 56.5631C62.7643 56.1732 63.246 55.881 63.7749 55.7094C63.3193 55.4614 62.9592 55.0688 62.7513 54.5935C62.5434 54.1183 62.4996 53.5874 62.6267 53.0844C62.7538 52.5815 63.0446 52.1352 63.4533 51.8157C63.862 51.4963 64.3653 51.3219 64.8841 51.32C65.5034 51.3247 66.0963 51.5715 66.536 52.0077C66.7906 52.2639 66.9822 52.5756 67.0959 52.9184C67.2095 53.2612 67.2421 53.6257 67.191 53.9832C67.14 54.3407 67.0066 54.6815 66.8015 54.9787C66.5965 55.276 66.3252 55.5216 66.0091 55.6963C66.7206 55.9308 67.3397 56.3843 67.7779 56.9919C68.2161 57.5995 68.4509 58.3301 68.4488 59.0792C68.4488 59.1741 68.4488 59.2768 68.4488 59.3664ZM79.8044 45.0178H49.9901C49.9342 45.0175 49.8792 45.0038 49.8297 44.978C49.7801 44.9523 49.7373 44.9151 49.7049 44.8695C49.6725 44.824 49.6514 44.7714 49.6432 44.7161C49.6351 44.6609 49.6402 44.6044 49.6581 44.5515C50.7706 41.3988 52.8336 38.6688 55.5627 36.7378C58.2918 34.8067 61.5527 33.7697 64.8959 33.7697C68.2391 33.7697 71.5 34.8067 74.2292 36.7378C76.9583 38.6688 79.0212 41.3988 80.1337 44.5515C80.1516 44.6042 80.1567 44.6604 80.1487 44.7155C80.1407 44.7706 80.1198 44.823 80.0877 44.8685C80.0556 44.914 80.0132 44.9512 79.964 44.9771C79.9147 45.0031 79.86 45.017 79.8044 45.0178Z" fill="#083E9E"/>
</g>
<defs>
<clipPath id="clip0_298_10286">
<rect width="210.552" height="40" fill="white" transform="translate(45 30)"/>
</clipPath>
</defs>
</svg>
