<svg width="300" height="100" viewBox="0 0 300 100" fill="none" xmlns="http://www.w3.org/2000/svg">
<rect width="300" height="100" fill="white"/>
<g clip-path="url(#clip0_311_248)">
<path d="M103.016 60.0178V59.8239L103.453 59.6883C103.744 59.611 103.938 59.4951 104.033 59.3398C104.128 59.1846 104.176 58.9785 104.176 58.7202V48.5697C104.176 48.3114 104.124 48.1046 104.022 47.9493C103.92 47.7948 103.723 47.6714 103.432 47.5812L103.016 47.4273V47.2334H108.332C110.505 47.2334 112.076 47.5859 113.046 48.289C114.016 48.9927 114.501 49.9195 114.501 51.0687C114.506 51.7882 114.297 52.493 113.9 53.0931C113.498 53.7066 112.839 54.1934 111.92 54.5554C111.001 54.9168 109.761 55.0978 108.201 55.0978H107.456V58.6619C107.456 59.1656 107.74 59.4944 108.309 59.6497L108.965 59.8239V60.0178H103.016ZM107.456 54.71H108.288C109.003 54.71 109.586 54.607 110.038 54.4002C110.49 54.1941 110.826 53.832 111.045 53.3154C111.263 52.7995 111.373 52.0822 111.373 51.1663C111.373 50.2361 111.252 49.5127 111.012 48.9968C110.771 48.4795 110.418 48.1215 109.951 47.9215C109.484 47.7209 108.9 47.6212 108.201 47.6212H107.456V54.7107V54.71ZM115.241 60.0164V59.8225L115.548 59.7453C116.058 59.6164 116.314 59.2998 116.314 58.7961V52.7337C116.314 52.449 116.262 52.2388 116.16 52.1032C116.058 51.9676 115.862 51.8748 115.57 51.8232L115.241 51.7453V51.552L118.982 50.4287L119.201 50.6219L119.376 51.7846C119.903 51.3749 120.484 51.0421 121.104 50.7961C121.746 50.5385 122.38 50.409 123.007 50.409C123.97 50.409 124.711 50.6415 125.229 51.1059C125.746 51.571 126.005 52.2815 126.005 53.2368V58.8158C126.005 59.3188 126.282 59.6361 126.836 59.7649L127.033 59.8225V60.0164H121.87V59.8225L122.155 59.7453C122.665 59.6029 122.921 59.287 122.921 58.7961V52.6171C122.921 51.7907 122.453 51.3778 121.52 51.3778C120.878 51.3778 120.178 51.6619 119.42 52.23V58.8158C119.42 59.3188 119.675 59.6361 120.186 59.7649L120.382 59.8225V60.0164H115.241ZM133.378 50.409C134.326 50.409 135.136 50.5798 135.807 50.9222C136.478 51.2646 136.992 51.729 137.349 52.3168C137.706 52.9046 137.885 53.5724 137.885 54.3215C137.885 54.4639 137.878 54.609 137.863 54.7575C137.851 54.8932 137.822 55.0268 137.775 55.1548H131.256C131.271 56.5493 131.552 57.5534 132.098 58.1663C132.645 58.7798 133.458 59.087 134.538 59.087C135.267 59.087 135.858 58.9832 136.31 58.7771C136.762 58.5703 137.184 58.2666 137.578 57.8666L137.797 58.0409C137.352 58.7446 136.73 59.3191 135.993 59.7066C135.241 60.1066 134.341 60.3073 133.291 60.3073C132.256 60.3073 131.336 60.11 130.534 59.7161C129.732 59.3229 129.105 58.7575 128.653 58.0212C128.201 57.2856 127.975 56.4076 127.975 55.3866C127.975 54.3283 128.237 53.4273 128.762 52.6849C129.276 51.9519 129.974 51.3672 130.786 50.99C131.596 50.6057 132.482 50.4072 133.378 50.409ZM133.313 50.7961C132.89 50.7961 132.529 50.9093 132.23 51.1351C131.931 51.3615 131.698 51.7615 131.53 52.3364C131.362 52.9107 131.271 53.7215 131.256 54.767H134.997C135.143 53.3595 135.085 52.3459 134.822 51.7263C134.56 51.1059 134.056 50.7961 133.313 50.7961ZM142.936 60.308C142.367 60.308 141.845 60.211 141.372 60.0178C140.908 59.833 140.517 59.5034 140.256 59.0781C139.986 58.6456 139.858 58.0741 139.873 57.3636L139.938 52.3859C139.938 52.089 139.88 51.8754 139.763 51.7466C139.647 51.6178 139.465 51.527 139.217 51.4754L138.954 51.3981V51.2042L142.87 50.5263L143.089 50.7202L142.98 53.4707V58.1385C142.98 58.552 143.115 58.8551 143.384 59.049C143.654 59.2429 143.993 59.3392 144.401 59.3392C144.772 59.3448 145.141 59.2927 145.496 59.1846C145.835 59.0722 146.159 58.9158 146.458 58.7195L146.546 52.4049C146.546 52.108 146.494 51.8985 146.393 51.7758C146.29 51.6531 146.101 51.5656 145.823 51.5141L145.605 51.4558V51.2625L149.433 50.5263L149.652 50.7202L149.586 53.4707V58.7195C149.586 59.0042 149.63 59.2232 149.717 59.3785C149.805 59.5331 149.995 59.6625 150.287 59.7656L150.505 59.8239V60.0171L146.677 60.211L146.48 59.0687C145.999 59.4171 145.477 59.7107 144.915 59.95C144.354 60.1887 143.694 60.308 142.936 60.308ZM151.389 60.0164V59.8225L151.696 59.7453C151.973 59.6809 152.166 59.571 152.275 59.4158C152.384 59.2612 152.447 59.0544 152.461 58.7961V52.7337C152.461 52.449 152.41 52.2388 152.308 52.1032C152.206 51.9676 152.01 51.8748 151.718 51.8232L151.389 51.7453V51.552L155.13 50.4287L155.349 50.6219L155.524 51.9392C156.021 51.5024 156.577 51.1373 157.176 50.8544C157.779 50.5612 158.441 50.4089 159.112 50.409C159.812 50.409 160.373 50.5351 160.797 50.7866C161.219 51.0388 161.54 51.4293 161.759 51.9588C162.314 51.4893 162.937 51.1071 163.607 50.8253C164.271 50.5473 164.916 50.409 165.544 50.409C166.579 50.409 167.341 50.6287 167.83 51.0673C168.318 51.5066 168.562 52.1975 168.562 53.1398V58.8158C168.562 59.3188 168.825 59.6361 169.351 59.7649L169.591 59.8225V60.0164H164.537V59.8225L164.756 59.7649C165.033 59.687 165.226 59.571 165.336 59.4158C165.445 59.2612 165.5 59.0544 165.5 58.7961V52.8687C165.5 52.3263 165.391 51.9554 165.172 51.7554C164.953 51.5548 164.603 51.4551 164.121 51.4551C163.742 51.4551 163.374 51.5297 163.016 51.6775C162.66 51.8266 162.284 52.049 161.89 52.3459C161.963 52.5527 162.01 52.7785 162.033 53.0239C162.054 53.2693 162.065 53.5276 162.065 53.7988V58.8158C162.08 59.3188 162.342 59.6361 162.853 59.7649L163.05 59.8225V60.0164H157.974V59.8225L158.281 59.7453C158.557 59.668 158.751 59.5554 158.86 59.4063C158.97 59.2578 159.024 59.0537 159.024 58.7961V52.8883C159.024 52.3717 158.919 52.0036 158.707 51.7846C158.496 51.5649 158.135 51.4551 157.624 51.4551C157.289 51.4551 156.953 51.5297 156.618 51.6775C156.282 51.8266 155.933 52.0422 155.567 52.3263V58.8158C155.567 59.3188 155.823 59.6361 156.334 59.7649L156.53 59.8225V60.0164H151.389ZM173.497 60.3066C172.652 60.3066 171.94 60.0937 171.364 59.6673C170.788 59.2415 170.5 58.628 170.5 57.8273C170.5 57.2205 170.85 56.6619 171.55 56.152C172.25 55.6415 173.351 55.2571 174.854 54.9995C175.087 54.9602 175.349 54.9181 175.641 54.8734C175.933 54.828 176.239 54.7798 176.56 54.7283V53.1981C176.56 52.3195 176.439 51.7032 176.199 51.348C175.958 50.9927 175.582 50.8158 175.073 50.8158C174.722 50.8158 174.445 50.9154 174.241 51.1154C174.037 51.3161 173.906 51.6612 173.847 52.152L173.803 52.3649C173.774 52.9209 173.621 53.3276 173.344 53.5853C173.067 53.8436 172.724 53.9731 172.316 53.9731C171.936 53.9731 171.623 53.8693 171.375 53.6626C171.127 53.4564 171.003 53.1785 171.003 52.83C171.003 52.3005 171.211 51.8551 171.626 51.4937C172.042 51.1317 172.593 50.8605 173.279 50.6802C173.964 50.4992 174.708 50.409 175.51 50.409C176.807 50.409 177.811 50.6897 178.518 51.251C179.225 51.8131 179.579 52.7263 179.579 53.992V58.2727C179.579 58.8537 179.885 59.1446 180.498 59.1446H180.979L181.176 59.2992C180.899 59.609 180.596 59.8483 180.268 60.0158C179.94 60.1839 179.477 60.268 178.879 60.268C178.237 60.268 177.73 60.1358 177.359 59.8707C176.995 59.6185 176.735 59.2437 176.626 58.8151C176.212 59.2094 175.762 59.5629 175.28 59.8707C174.821 60.1615 174.226 60.3066 173.497 60.3066ZM174.832 59.1249C175.123 59.1249 175.397 59.0639 175.652 58.9412C175.907 58.8185 176.21 58.628 176.56 58.3697V55.1154L176.122 55.1927C175.976 55.2185 175.809 55.2449 175.619 55.2707C174.949 55.4253 174.412 55.687 174.011 56.0551C173.61 56.4232 173.41 56.9168 173.41 57.5364C173.41 58.0659 173.549 58.4632 173.825 58.7283C174.102 58.9927 174.438 59.1249 174.832 59.1249Z" fill="#333333"/>
<path d="M180.941 40.8054H174.849V46.2319H180.941V40.8054ZM180.94 30H174.848V35.4061H180.94V30Z" fill="#0FF0C0"/>
<path fill-rule="evenodd" clip-rule="evenodd" d="M186.968 46.6889H189.026V50.6008H182.934V40.8042H186.968V46.6889Z" fill="#0FAFF0"/>
<path d="M189.029 33.5562H182.937V35.4104H189.029V33.5562Z" fill="#0FAFF0"/>
<path fill-rule="evenodd" clip-rule="evenodd" d="M174.853 40.7974H172.896V35.4028H174.853V40.7974ZM182.934 40.7974H180.94V35.4028H182.934V40.7974ZM189.029 35.4028H195.176V37.312H189.029V35.4028Z" fill="#0FAFF0"/>
<path fill-rule="evenodd" clip-rule="evenodd" d="M180.941 35.4028V40.7967H174.849V35.4035L180.941 35.4028Z" fill="#01A5B5"/>
<path fill-rule="evenodd" clip-rule="evenodd" d="M189.029 35.4028V37.312H186.971V40.7967H182.937V35.4035L189.029 35.4028Z" fill="#0178E2"/>
<path fill-rule="evenodd" clip-rule="evenodd" d="M197.205 37.3179V46.6867H189.026V40.8033H195.174V37.3179H197.205Z" fill="#0FF0C0"/>
<path d="M189.036 40.8053H186.978V46.6887H189.036V40.8053ZM195.172 37.3179H189.024V40.8026H195.172V37.3179Z" fill="#01A5B5"/>
<path d="M189.036 37.3179H186.978V40.8026H189.036V37.3179Z" fill="#0071AA"/>
</g>
<defs>
<clipPath id="clip0_311_248">
<rect width="94.2373" height="40" fill="white" transform="translate(103.016 30)"/>
</clipPath>
</defs>
</svg>
