<svg width="300" height="100" viewBox="0 0 300 100" fill="none" xmlns="http://www.w3.org/2000/svg">
<rect width="300" height="100" fill="white"/>
<g clip-path="url(#clip0_298_10277)">
<path opacity="0.87" d="M101.125 35.3728C94.9038 35.3728 91.8281 38.2725 91.8281 43.0794V64.1458H97.1661V56.0525C98.2616 57.0418 100.101 57.5364 102.682 57.5364C107.95 57.5364 110.463 54.7794 110.463 49.971V43.0777C110.46 38.2692 107.384 35.3712 101.126 35.3712L101.125 35.3728ZM105.12 49.3054C105.12 51.7453 103.777 52.9819 101.125 52.9819C98.4724 52.9819 97.1661 51.7403 97.1661 49.3054V43.7516C97.1661 41.3117 98.474 40.0751 101.125 40.0751C103.776 40.0751 105.12 41.3133 105.12 43.7516V49.3054ZM143.631 35.3728C137.692 35.3728 134.617 38.4833 134.617 43.0063V49.9344C134.617 54.4591 137.692 57.5347 143.596 57.5347C149.5 57.5347 152.47 54.4591 152.47 49.9344V48.7344H147.344V49.3701C147.344 51.6673 146.106 52.8341 143.601 52.8341C141.097 52.8341 139.858 51.6673 139.858 49.2987V43.6072C139.858 41.2386 141.13 40.0718 143.641 40.0718C146.152 40.0718 147.352 41.2386 147.352 43.5358V44.2429H152.478V43.0063C152.471 38.4817 149.396 35.3695 143.633 35.3695L143.631 35.3728ZM173.556 35.7264H167.581L163.056 43.6454H160.367V30H155.029V57.221H160.367V48.17H162.88L167.722 57.221H173.873L167.546 46.1202L173.556 35.7264ZM183.93 35.3728C177.744 35.3728 174.525 38.3091 174.525 43.0063V49.9726C174.525 54.6749 177.671 57.5381 183.93 57.5381C190.189 57.5381 193.298 54.8873 193.298 51.1046V50.3975H188.134V50.5751C188.134 52.308 186.755 53.191 183.963 53.191C181.171 53.191 179.686 51.9893 179.686 49.6207V47.9244H193.296V43.0113C193.3 38.2393 190.118 35.3745 183.932 35.3745L183.93 35.3728ZM188.134 44.4604H179.686V43.3599C179.686 40.92 181.1 39.7182 183.928 39.7182C186.757 39.7182 188.134 40.92 188.134 43.3234V44.4604ZM205.006 52.5885C202.216 52.5885 201.263 51.7071 201.263 48.4522V40.0037H207.096V35.7247H201.263V31.3079H195.925V48.8074C195.925 54.8525 198.118 57.2559 203.773 57.2559H207.237V52.5901H205.006V52.5885ZM127.911 35.738C126.064 35.5073 124.205 35.3894 122.342 35.3828C121.544 35.3562 120.493 35.4376 119.444 35.5106C118.526 35.5753 117.608 35.6401 116.699 35.816C115.072 36.133 113.525 38.0103 113.333 39.8975C113.042 42.7981 112.948 45.7149 113.049 48.6282C113.122 50.7461 113.861 52.4856 115.252 53.8566C115.809 54.401 116.425 54.8824 117.087 55.294C118.321 56.0691 119.62 56.6584 120.94 57.1878C121.758 57.5247 122.664 57.5847 123.519 57.3588C124.84 57.0102 126.065 56.3496 127.289 55.699C128.142 55.2475 128.928 54.6848 129.632 54.0259C130.865 52.8657 131.704 51.425 131.926 49.5743C132.012 48.8589 132.034 48.1319 132.051 47.4082C132.105 44.9865 131.981 42.5698 131.757 40.1614C131.539 37.8161 129.944 35.987 127.911 35.7363V35.738ZM116.827 38.5779C116.891 38.495 116.968 38.4203 117.054 38.3572C117.12 38.3157 117.189 38.2808 117.26 38.2493C117.293 38.2261 117.328 38.2078 117.366 38.1929C117.439 38.163 117.529 38.1381 117.615 38.1132C117.662 38.1066 117.706 38.0883 117.758 38.0817L118.052 38.0468C118.108 38.0468 118.16 38.0368 118.221 38.0335C118.282 38.0302 118.344 38.0269 118.405 38.0335L122.543 38.1481L126.681 38.0335H126.865C126.922 38.0335 126.978 38.0451 127.035 38.0468C127.132 38.0568 127.24 38.0717 127.328 38.0817C127.38 38.0883 127.425 38.1066 127.471 38.1132C127.557 38.1381 127.644 38.163 127.72 38.1929C127.757 38.2077 127.793 38.2266 127.826 38.2493C127.898 38.2808 127.966 38.3157 128.032 38.3572C128.117 38.4203 128.193 38.4933 128.26 38.5779C128.553 38.9531 128.585 39.5008 128.389 40.1465L128.299 40.4768C128.255 40.6677 128.221 40.8602 128.198 41.0544C128.168 41.2403 128.15 41.4295 128.145 41.6187C128.131 41.8814 128.131 42.1445 128.145 42.4072C127.947 42.4586 127.728 42.5051 127.493 42.5532C127.456 42.1947 127.445 41.8345 127.458 41.4743C127.466 41.2851 127.483 41.0959 127.511 40.9083C127.534 40.7137 127.569 40.5208 127.617 40.3307C127.63 40.2842 127.637 40.2394 127.645 40.193C127.765 39.7448 127.712 39.3398 127.479 39.061C127.242 38.7439 126.832 38.5962 126.284 38.6095L122.546 38.7373L118.808 38.6095C118.261 38.5945 117.851 38.7439 117.613 39.061C117.379 39.3398 117.328 39.7448 117.447 40.193C117.456 40.2394 117.462 40.2842 117.476 40.3307C117.524 40.5199 117.559 40.7125 117.582 40.9083C117.61 41.0959 117.627 41.2851 117.635 41.4743C117.648 41.8345 117.638 42.1947 117.6 42.5532L116.948 42.4072C116.961 42.1432 116.958 41.8744 116.948 41.6187C116.943 41.4296 116.926 41.241 116.895 41.0544C116.871 40.8602 116.838 40.6677 116.793 40.4768C116.762 40.3589 116.737 40.256 116.704 40.1465C116.495 39.5008 116.526 38.9547 116.822 38.5779H116.825H116.827ZM118.214 41.4445C118.926 41.4395 119.481 41.31 119.881 41.0478C120.151 40.8939 120.357 40.6475 120.46 40.354C120.538 40.1498 120.565 39.9274 120.533 39.7116C120.523 39.6345 120.509 39.558 120.49 39.4826C120.46 39.4012 120.43 39.3149 120.395 39.2352L122.541 39.3182L124.688 39.2352C124.653 39.3166 124.623 39.4029 124.593 39.4826C124.575 39.5583 124.561 39.6347 124.55 39.7116C124.52 39.929 124.545 40.1498 124.623 40.354C124.726 40.6475 124.932 40.8939 125.202 41.0478C125.602 41.31 126.157 41.4395 126.869 41.4445C126.854 41.8528 126.869 42.2611 126.912 42.6677C125.47 42.925 124.005 43.0312 122.541 42.9848C121.077 43.0312 119.614 42.9267 118.171 42.6677C118.213 42.2611 118.226 41.8528 118.208 41.4445H118.211H118.214ZM118.062 40.2096C118.062 40.1863 118.058 40.1647 118.053 40.1432C117.984 39.8693 118.013 39.6236 118.155 39.4527C118.311 39.2651 118.574 39.1639 118.925 39.1838L119.731 39.207C119.844 39.401 119.909 39.6188 119.922 39.8427C119.931 40.012 119.877 40.1797 119.776 40.3141C119.72 40.3988 119.648 40.4735 119.565 40.5299C119.272 40.7507 118.804 40.8552 118.184 40.8602C118.184 40.8403 118.178 40.8253 118.176 40.8038C118.151 40.6029 118.111 40.4054 118.058 40.2112H118.062V40.2096ZM126.912 40.8021C126.912 40.822 126.905 40.837 126.903 40.8585C126.284 40.8536 125.816 40.749 125.522 40.5282C125.439 40.471 125.367 40.3976 125.312 40.3125C125.209 40.1775 125.157 40.0105 125.166 39.8411C125.179 39.617 125.244 39.3996 125.356 39.2054L126.163 39.1821C126.515 39.1639 126.777 39.2635 126.933 39.451C127.074 39.622 127.104 39.8676 127.033 40.1415C127.028 40.1631 127.025 40.1863 127.025 40.2079C126.971 40.4021 126.933 40.6013 126.907 40.8004H126.91L126.912 40.8021ZM129.954 44.2462C129.945 44.4376 129.879 44.6219 129.764 44.775C129.649 44.9281 129.49 45.0429 129.309 45.1044C124.892 46.404 120.194 46.404 115.778 45.1044C115.596 45.0429 115.438 44.9281 115.322 44.775C115.207 44.6219 115.141 44.4376 115.132 44.2462V43.2653C115.132 42.8985 115.419 42.7009 115.778 42.8055C120.195 44.1035 124.892 44.1035 129.309 42.8055C129.665 42.7009 129.954 42.9001 129.954 43.2653V44.2462Z" fill="black"/>
<g opacity="0.38">
<path d="M175.365 61.8057H176.617L176.326 63.4638C176.683 63.1983 177.123 63.0655 177.628 63.0655C178.225 63.0655 178.657 63.2397 178.93 63.58C179.196 63.9286 179.279 64.3601 179.188 64.883L178.897 66.5079C178.69 67.7113 177.969 68.2673 176.467 68.2673C175.762 68.2673 175.239 68.0931 174.907 67.7362C174.575 67.3793 174.459 66.9229 174.559 66.3586L175.362 61.8057H175.365ZM177.92 65.0075C178.019 64.4348 177.762 64.1444 177.14 64.1444C176.517 64.1444 176.152 64.4348 176.052 65.0075L175.82 66.3104C175.72 66.8831 175.986 67.1735 176.608 67.1735C177.231 67.1735 177.586 66.8831 177.687 66.3104L177.92 65.0075ZM183.94 68.02C183.707 69.3562 182.936 69.9272 181.576 69.9272H181.427C180.813 69.9272 180.331 69.7695 179.975 69.4624C179.618 69.1553 179.485 68.7736 179.576 68.3271L179.601 68.2192H180.788C180.713 68.6425 180.979 68.8748 181.568 68.8748C182.215 68.8748 182.589 68.601 182.68 68.0615L182.788 67.4806C182.464 67.7047 182.074 67.8126 181.601 67.8126C181.012 67.8126 180.564 67.6466 180.273 67.3146C179.975 66.9826 179.867 66.5594 179.958 66.0465L180.464 63.1767H181.716L181.236 65.8805C181.145 66.4532 181.394 66.7353 181.998 66.7353C182.602 66.7353 182.977 66.4532 183.077 65.8805L183.55 63.1767H184.801L183.938 68.02H183.94Z" fill="black"/>
<path fill-rule="evenodd" clip-rule="evenodd" d="M190.197 66.7999L190.206 66.7252C190.295 66.2588 190.084 66.0579 189.419 66.0579C188.753 66.0579 188.494 66.2588 188.413 66.7252L188.396 66.8082C188.307 67.2746 188.599 67.4837 189.175 67.4837C189.751 67.4837 190.124 67.1999 190.197 66.7999ZM192.461 66.458L193.225 62.0196C193.232 61.9809 193.252 61.9458 193.282 61.9206C193.312 61.8954 193.35 61.8817 193.389 61.8818H194.277C194.368 61.8818 194.443 61.9565 194.443 62.0478C194.443 62.0578 194.443 62.0661 194.442 62.076L194.191 63.5483C194.5 63.3143 194.84 63.1483 195.464 63.1483C196.681 63.1483 197.159 63.9815 196.989 64.9741L196.705 66.6073C196.503 67.7991 195.829 68.3751 194.329 68.3751C192.918 68.3751 192.269 67.5667 192.463 66.458H192.461ZM195.519 66.4082L195.746 65.1002C195.836 64.584 195.64 64.2338 194.984 64.2338C194.329 64.2338 194.012 64.584 193.922 65.1002L193.695 66.4082C193.605 66.9244 193.801 67.2746 194.465 67.2746C195.129 67.2746 195.431 66.9244 195.519 66.4082ZM201.984 66.1077H198.86L198.795 66.5078C198.722 66.9493 198.852 67.3493 199.63 67.3493C200.304 67.3493 200.628 67.1484 200.701 66.7318C200.706 66.7069 200.727 66.6903 200.75 66.6903H201.716C201.755 66.6903 201.792 66.7057 201.82 66.7331C201.847 66.7605 201.863 66.7977 201.863 66.8364V66.858C201.692 67.8422 201.019 68.3751 199.534 68.3751C198.048 68.3751 197.433 67.5501 197.62 66.4912L197.879 64.9492C198.098 63.7491 198.772 63.1483 200.272 63.1483C201.773 63.1483 202.357 63.9566 202.171 65.0405L201.985 66.1077H201.984ZM199.048 65.0322L199.008 65.2911H200.946L200.994 65.0239C201.084 64.4911 200.873 64.174 200.175 64.174C199.476 64.174 199.135 64.5243 199.048 65.0322ZM204.824 66.8912C205.489 66.8912 205.796 66.541 205.886 66.0413L206.04 65.1168C206.13 64.6089 205.934 64.267 205.278 64.267C204.623 64.267 204.312 64.6089 204.224 65.1168L204.07 66.0413C203.98 66.541 204.168 66.8912 204.825 66.8912H204.824ZM205.391 63.1483C206.802 63.1483 207.468 63.9732 207.274 65.0986L206.754 68.1161C206.51 69.4921 205.756 70 204.434 70H204.296C203.119 70 202.357 69.3909 202.478 68.4C202.488 68.3468 202.533 68.3087 202.588 68.3087H203.655C203.59 68.6921 203.858 68.9593 204.425 68.9593C205.147 68.9593 205.448 68.6174 205.529 68.1427L205.642 67.5169C205.333 67.7676 205.001 67.9086 204.352 67.9086C203.234 67.9086 202.658 67.1169 202.844 66.0247L203.023 64.9658C203.225 63.774 203.899 63.1483 205.391 63.1483ZM190.735 62.5391C190.826 62.5391 190.901 62.6138 190.901 62.7051C190.901 62.7184 190.901 62.7317 190.896 62.7449L190.772 63.2595C191.517 63.5101 191.879 64.1641 191.739 64.9741L191.447 66.6737C191.268 67.7144 190.682 68.1975 189.774 68.3385L189.665 68.785C189.646 68.8597 189.58 68.9128 189.504 68.9128H188.534C188.443 68.9128 188.368 68.8381 188.368 68.7469C188.368 68.7336 188.368 68.7203 188.373 68.707L188.461 68.3452C187.57 68.1958 187.069 67.6232 187.173 66.8248L187.19 66.7086C187.303 65.8007 187.903 65.2662 189.308 65.2662C189.844 65.2662 190.241 65.3492 190.426 65.4571L190.499 65.0156C190.589 64.5326 190.378 64.2072 189.777 64.2072C189.274 64.2072 188.909 64.3815 188.836 64.8247H187.668C187.807 63.8122 188.338 63.2661 189.482 63.1665L189.603 62.6669C189.621 62.5922 189.688 62.5391 189.764 62.5391H190.733H190.735Z" fill="black"/>
</g>
</g>
<defs>
<clipPath id="clip0_298_10277">
<rect width="115.477" height="40" fill="white" transform="translate(91.8281 30)"/>
</clipPath>
</defs>
</svg>
