<svg width="300" height="100" viewBox="0 0 300 100" fill="none" xmlns="http://www.w3.org/2000/svg">
<rect width="300" height="100" fill="white"/>
<path d="M199.3 34.1001H100.7V63.5001H199.3V34.1001Z" fill="#3E4095"/>
<path d="M114.709 48.5089C114.709 49.8922 114.346 51.0119 113.62 51.8679C112.843 52.7772 111.772 53.2315 110.407 53.2309C110.178 53.2309 109.834 53.2179 109.374 53.1919C108.914 53.1659 108.57 53.1532 108.341 53.1539C108.096 53.1539 107.973 53.2595 107.973 53.4709C107.973 53.7335 107.999 54.1249 108.05 54.6449C108.101 55.1649 108.127 55.5532 108.127 55.8099C108.127 55.9432 108.067 56.0099 107.947 56.0099C107.599 56.0099 107.076 55.9989 106.379 55.9799C105.682 55.9609 105.159 55.9499 104.81 55.9499C104.776 55.9546 104.742 55.9514 104.709 55.9404C104.677 55.9295 104.648 55.9112 104.623 55.8869C104.599 55.8627 104.581 55.8331 104.571 55.8007C104.56 55.7682 104.557 55.7337 104.562 55.6999C104.562 55.0659 104.572 54.1132 104.592 52.8419C104.612 51.5705 104.622 50.6179 104.622 49.9839C104.622 48.1899 104.545 46.3045 104.391 44.3279L104.382 44.2079C104.37 44.0989 104.456 44.0339 104.639 44.0079C105.085 43.9505 106.068 43.9219 107.587 43.9219C108.484 43.9219 109.344 43.9332 110.167 43.9559C111.521 43.9959 112.612 44.4215 113.44 45.2329C114.286 46.0682 114.709 47.1602 114.709 48.5089ZM111.289 48.6459C111.289 47.3125 110.641 46.6459 109.344 46.6459C108.43 46.6459 107.95 46.6972 107.904 46.7999C107.864 46.8752 107.844 47.5352 107.844 48.7799C107.844 48.9569 107.851 49.2189 107.866 49.5639C107.881 49.9089 107.887 50.1709 107.887 50.3479C107.887 50.4632 108.401 50.5205 109.43 50.5199C110.669 50.5219 111.289 49.8972 111.289 48.6459Z" fill="white"/>
<path d="M135.664 46.7181C135.664 46.7811 135.607 46.8121 135.492 46.8121C135.064 46.8121 134.414 46.7751 133.543 46.7011C132.672 46.6271 132.019 46.5897 131.585 46.5891C131.036 46.5891 130.716 46.6091 130.625 46.6491C130.413 46.7491 130.308 47.0211 130.308 47.4721C130.308 48.0147 130.445 48.3231 130.719 48.3971C130.891 48.4313 131.067 48.4457 131.242 48.4401C131.636 48.4401 132.226 48.4187 133.011 48.3761C133.796 48.3334 134.386 48.3121 134.781 48.3121C134.97 48.3121 135.064 48.8147 135.064 49.8201C135.064 50.6941 135.033 51.2027 134.97 51.3461C134.954 51.3937 134.922 51.4345 134.88 51.4624C134.838 51.4902 134.788 51.5035 134.738 51.5001C134.812 51.5001 134.632 51.4801 134.198 51.4401C133.587 51.3834 132.661 51.3547 131.422 51.3541C131.022 51.3541 130.796 51.3571 130.745 51.3631C130.453 51.4081 130.308 51.5311 130.308 51.7311C130.308 52.5417 130.341 53.4751 130.408 54.5311C130.465 55.4851 130.494 55.9104 130.494 55.8071C130.494 55.9564 130.314 56.0424 129.954 56.0651C130.051 56.0591 129.797 56.0561 129.192 56.0561C128.125 56.0561 127.437 56.0191 127.126 55.9451C126.96 55.9051 126.878 55.8161 126.878 55.6791C126.878 55.0451 126.899 54.0924 126.942 52.8211C126.985 51.5497 127.006 50.5971 127.006 49.9631C127.006 49.2091 126.973 48.2607 126.906 47.1181C126.804 45.3521 126.75 44.4034 126.744 44.2721L126.735 44.1721C126.729 44.0301 126.815 43.9581 126.992 43.9581C127.415 43.9581 128.053 43.9667 128.907 43.9841C129.761 44.0014 130.402 44.0101 130.831 44.0101C131.288 44.0101 131.975 43.9767 132.892 43.9101C133.809 43.8434 134.496 43.8101 134.953 43.8101C135.239 43.8101 135.399 43.9271 135.433 44.1611C135.433 44.4071 135.445 44.7757 135.468 45.2671C135.479 45.3931 135.516 45.6351 135.579 45.9951C135.627 46.2333 135.656 46.4751 135.664 46.7181Z" fill="white"/>
<path d="M144.465 51.2941C144.465 51.8707 144.279 52.1994 143.908 52.2801C143.845 52.2907 143.254 52.3534 142.134 52.4681C141.46 52.5421 140.455 52.6308 139.118 52.7341C139.197 53.1048 139.44 53.3874 139.846 53.5821C140.2 53.747 140.587 53.8291 140.977 53.8221C141.515 53.8146 142.042 53.6733 142.511 53.4111L143.163 52.9991C143.283 53.0571 143.483 53.3487 143.763 53.8741C144.045 54.3991 144.187 54.7341 144.187 54.8741C144.187 54.9141 144.144 54.9801 144.058 55.0741C143.364 55.8247 142.283 56.2001 140.814 56.2001C139.455 56.2001 138.359 55.8031 137.524 55.0091C136.667 54.2031 136.239 53.1247 136.238 51.7741C136.238 50.4601 136.621 49.3831 137.386 48.5431C138.175 47.6764 139.22 47.2431 140.523 47.2431C141.047 47.2353 141.567 47.3382 142.048 47.545C142.529 47.7518 142.962 48.0578 143.317 48.4431C143.687 48.8187 143.98 49.2642 144.177 49.7535C144.374 50.2429 144.472 50.7666 144.465 51.2941ZM141.465 50.7711C141.467 50.4223 141.331 50.0868 141.088 49.8371C140.975 49.7105 140.836 49.6094 140.681 49.5405C140.526 49.4715 140.358 49.4363 140.188 49.4371C140.014 49.4356 139.842 49.4762 139.686 49.5554C139.531 49.6346 139.397 49.7501 139.296 49.8921C139.078 50.1737 138.964 50.5213 138.971 50.8771C138.967 50.9092 138.971 50.9418 138.981 50.9723C138.992 51.0028 139.01 51.0304 139.033 51.0529C139.056 51.0754 139.085 51.0922 139.115 51.1019C139.146 51.1117 139.179 51.1141 139.211 51.1091C139.872 51.086 140.53 51.0192 141.182 50.9091C141.371 50.8801 141.466 50.8341 141.466 50.7711H141.465Z" fill="white"/>
<path d="M148.527 50.7882C148.527 52.3482 148.533 53.5452 148.544 54.3792C148.544 54.5112 148.553 54.7362 148.57 55.0562C148.587 55.3482 148.596 55.5732 148.596 55.7332C148.596 55.8532 148.524 55.9252 148.382 55.9482C147.921 56.005 147.457 56.0277 146.993 56.0162C146.308 56.0162 145.871 55.9936 145.682 55.9482C145.625 55.9392 145.574 55.9114 145.535 55.8693C145.496 55.8272 145.472 55.7733 145.468 55.7162V55.3482C145.468 54.8396 145.474 54.0782 145.485 53.0642C145.496 52.0502 145.502 51.2916 145.502 50.7882C145.502 48.3882 145.505 47.2942 145.511 47.5062C145.507 46.4146 145.436 45.3243 145.3 44.2412C145.29 44.1931 145.285 44.1443 145.283 44.0952C145.283 43.9702 145.357 43.9072 145.506 43.9072H148.566C148.708 43.9072 148.774 43.9672 148.766 44.0872L148.757 44.2412C148.604 46.7092 148.527 48.8916 148.527 50.7882Z" fill="white"/>
<path d="M158.708 51.663C158.708 52.103 158.734 52.757 158.785 53.625C158.836 54.493 158.862 55.1443 158.863 55.579C158.863 55.808 158.763 55.93 158.563 55.948C157.854 55.9986 157.042 56.0243 156.129 56.025C156.02 56.025 155.947 55.86 155.91 55.532C155.873 55.204 155.829 55.032 155.777 55.032C155.71 55.0713 155.65 55.1202 155.597 55.177C154.958 55.823 154.272 56.146 153.541 56.146C152.427 56.146 151.504 55.706 150.773 54.826C150.081 54.0026 149.735 53.02 149.736 51.878C149.736 50.558 150.093 49.4953 150.807 48.69C151.55 47.856 152.567 47.439 153.858 47.439C154.755 47.439 155.463 47.753 155.983 48.381C156.006 48.41 156.026 48.424 156.043 48.424C156.095 48.424 156.153 48.286 156.219 48.009C156.285 47.732 156.363 47.593 156.454 47.593C156.861 47.6201 157.266 47.6803 157.663 47.773C158.073 47.8492 158.48 47.9463 158.88 48.064C158.965 48.099 159.008 48.144 159.008 48.201C159.003 48.2614 158.995 48.3215 158.983 48.381C158.796 49.4648 158.704 50.563 158.708 51.663ZM155.949 51.714C155.956 51.4935 155.919 51.2739 155.84 51.0678C155.761 50.8618 155.642 50.6736 155.49 50.514C155.167 50.2095 154.741 50.0398 154.297 50.0398C153.853 50.0398 153.427 50.2095 153.104 50.514C152.807 50.8443 152.644 51.2743 152.649 51.7188C152.653 52.1633 152.825 52.5899 153.129 52.914C153.279 53.0725 153.461 53.1977 153.663 53.2815C153.865 53.3652 154.082 53.4056 154.3 53.4C154.521 53.4079 154.741 53.3697 154.946 53.2879C155.151 53.2061 155.336 53.0825 155.491 52.925C155.644 52.7639 155.764 52.5737 155.842 52.3657C155.921 52.1578 155.957 51.9362 155.949 51.714Z" fill="white"/>
<path d="M164.159 54.0712C164.163 54.3396 164.114 54.6062 164.013 54.8549C163.912 55.1037 163.762 55.3296 163.572 55.5192C163.389 55.7127 163.167 55.866 162.922 55.9693C162.676 56.0725 162.411 56.1236 162.145 56.1192C161.879 56.1244 161.615 56.0737 161.37 55.9703C161.125 55.867 160.904 55.7133 160.722 55.5192C160.349 55.1321 160.14 54.6152 160.14 54.0772C160.14 53.5393 160.349 53.0224 160.722 52.6352C160.908 52.4453 161.129 52.2943 161.374 52.1913C161.619 52.0882 161.881 52.0352 162.147 52.0352C162.413 52.0352 162.675 52.0882 162.92 52.1913C163.165 52.2943 163.386 52.4453 163.572 52.6352C163.761 52.823 163.911 53.0469 164.011 53.2936C164.112 53.5403 164.162 53.8047 164.159 54.0712Z" fill="white"/>
<path d="M171.015 50.309C171.009 50.309 170.836 50.263 170.496 50.171C170.227 50.091 169.949 50.045 169.669 50.034C169.161 50.034 168.755 50.187 168.452 50.493C168.149 50.799 167.998 51.206 168 51.714C168 52.24 168.167 52.6527 168.5 52.952C168.833 53.2514 169.265 53.4014 169.794 53.402C170.087 53.3932 170.375 53.3276 170.643 53.209C170.795 53.154 170.944 53.0899 171.088 53.017C171.185 53.017 171.31 53.3797 171.465 54.105C171.598 54.7677 171.665 55.2077 171.665 55.425C171.665 55.6424 171.31 55.828 170.6 55.982C170.164 56.0875 169.719 56.1478 169.271 56.162C168.015 56.162 166.978 55.739 166.161 54.893C165.344 54.047 164.933 52.993 164.93 51.731C164.93 50.4804 165.34 49.4277 166.16 48.573C166.98 47.7184 168.015 47.2914 169.266 47.292C170.05 47.2753 170.824 47.4643 171.512 47.84C171.66 47.92 171.735 47.998 171.735 48.072C171.735 48.146 171.649 48.483 171.478 49.083C171.318 49.6604 171.214 50.009 171.165 50.129C171.116 50.249 171.066 50.309 171.015 50.309Z" fill="white"/>
<path d="M180.887 51.7311C180.887 53.0345 180.487 54.0915 179.687 54.9021C178.887 55.7128 177.84 56.1185 176.546 56.1191C175.289 56.1191 174.256 55.7191 173.446 54.9191C172.636 54.1191 172.23 53.0908 172.229 51.8341C172.229 50.5088 172.617 49.4331 173.394 48.6071C174.171 47.7811 175.222 47.3685 176.548 47.3691C177.839 47.3691 178.885 47.7735 179.685 48.5821C180.485 49.3908 180.886 50.4405 180.887 51.7311ZM178.076 51.7311C178.082 51.2957 177.933 50.8723 177.656 50.5361C177.528 50.3703 177.363 50.2369 177.174 50.1467C176.985 50.0566 176.777 50.0122 176.568 50.0171C176.354 50.0131 176.141 50.0591 175.948 50.1514C175.755 50.2438 175.586 50.3799 175.454 50.5491C175.188 50.8873 175.043 51.3052 175.043 51.7356C175.043 52.1661 175.188 52.584 175.454 52.9221C175.587 53.0882 175.756 53.2222 175.949 53.3143C176.141 53.4063 176.351 53.4541 176.564 53.4541C176.777 53.4541 176.987 53.4063 177.179 53.3143C177.372 53.2222 177.541 53.0882 177.674 52.9221C177.944 52.5849 178.087 52.1631 178.076 51.7311Z" fill="white"/>
<path d="M195.619 55.6308C195.619 55.8308 195.533 55.9418 195.362 55.9648C195.191 55.9878 194.768 55.9988 194.094 55.9988C193.396 55.9988 192.963 55.9818 192.794 55.9478C192.625 55.9138 192.54 55.7738 192.537 55.5278C192.537 55.2651 192.546 54.8721 192.563 54.3488C192.58 53.8254 192.589 53.4328 192.588 53.1708C192.588 52.1708 192.577 51.4594 192.554 51.0368C192.52 50.3568 192.197 50.0168 191.586 50.0168C191.319 50.0168 191.053 50.1298 190.786 50.3558C190.521 50.5808 190.373 50.8308 190.345 51.1058C190.322 51.3458 190.31 52.0484 190.311 53.2138C190.311 53.4804 190.319 53.8874 190.336 54.4348C190.353 54.9821 190.361 55.3921 190.362 55.6648C190.362 55.8528 190.279 55.9478 190.114 55.9478H187.514C187.354 55.9478 187.274 55.8308 187.274 55.5958C187.274 55.3291 187.283 54.9264 187.3 54.3878C187.317 53.8491 187.326 53.4434 187.325 53.1708C187.325 52.9598 187.32 52.6398 187.308 52.2108C187.296 51.7818 187.291 51.4598 187.291 51.2428C187.291 50.4261 186.98 50.0174 186.357 50.0168C186.063 50.0311 185.779 50.1328 185.543 50.3088C185.223 50.5201 185.063 50.7428 185.063 50.9768C185.063 51.4968 185.066 52.2738 185.071 53.3078C185.076 54.3418 185.079 55.1161 185.08 55.6308C185.08 55.7728 185.063 55.8618 185.029 55.8958C184.949 55.9436 184.856 55.9675 184.763 55.9648C184.506 55.9868 184.1 55.9981 183.546 55.9988C183.186 55.9988 182.778 55.9818 182.321 55.9478C182.235 55.9508 182.151 55.9301 182.076 55.8878C182.041 55.8069 182.028 55.7183 182.038 55.6308C182.038 55.1728 182.041 54.4884 182.046 53.5778C182.051 52.6671 182.054 51.9831 182.055 51.5258C182.047 50.4684 181.978 49.4123 181.849 48.3628C181.84 48.3119 181.834 48.2604 181.832 48.2088C181.828 48.1669 181.837 48.1248 181.859 48.0887C181.88 48.0526 181.913 48.0246 181.952 48.0088C182.183 47.9368 182.422 47.8934 182.663 47.8798C183.092 47.8398 183.346 47.8148 183.426 47.8028C183.483 47.7914 183.708 47.7314 184.103 47.6228C184.322 47.553 184.55 47.5126 184.78 47.5028C184.889 47.5028 184.946 47.7028 184.951 48.1028C184.956 48.5028 184.979 48.7028 185.02 48.7028C185.092 48.6728 185.16 48.6323 185.22 48.5828C185.6 48.2725 186.007 47.9974 186.437 47.7608C186.884 47.5476 187.373 47.4392 187.868 47.4438C188.359 47.4354 188.844 47.5564 189.274 47.7948C189.49 47.9094 189.681 48.0662 189.836 48.256C189.991 48.4458 190.106 48.6647 190.174 48.8998C190.506 48.4634 190.934 48.1091 191.425 47.8638C191.9 47.5987 192.432 47.4545 192.976 47.4438C193.73 47.4438 194.344 47.6178 194.818 47.9658C195.355 48.3604 195.623 48.9234 195.624 49.6548C195.624 49.9574 195.615 50.4131 195.598 51.0218C195.581 51.6304 195.572 52.0858 195.573 52.3878C195.573 52.7478 195.581 53.2891 195.598 54.0118C195.615 54.7344 195.622 55.2741 195.619 55.6308Z" fill="white"/>
<path d="M126.78 51.4829C126.485 52.6637 125.847 53.7305 124.946 54.5485C124.045 55.3665 122.922 55.8989 121.718 56.0785C120.515 56.2581 119.285 56.0767 118.184 55.5573C117.084 55.0379 116.162 54.2039 115.535 53.1606C114.909 52.1173 114.606 50.9117 114.664 49.6962C114.723 48.4807 115.141 47.3098 115.865 46.3318C116.589 45.3537 117.587 44.6123 118.732 44.2013C119.878 43.7904 121.119 43.7283 122.3 44.0229C123.084 44.2184 123.822 44.5664 124.472 45.0471C125.122 45.5278 125.67 46.1317 126.086 46.8245C126.503 47.5173 126.778 48.2852 126.898 49.0845C127.017 49.8838 126.978 50.6988 126.782 51.4829H126.78Z" fill="#F7931A"/>
<path d="M123.524 49.1169C123.646 48.2979 123.024 47.8579 122.17 47.5639L122.446 46.4539L121.771 46.2859L121.5 47.3659C121.322 47.3219 121.14 47.2799 120.959 47.2389L121.23 46.1519L120.555 45.9829L120.278 47.0919C120.131 47.0589 119.987 47.0259 119.847 46.9919L118.915 46.7589L118.735 47.4799C118.735 47.4799 119.235 47.5949 119.226 47.6019C119.5 47.6709 119.549 47.8519 119.541 47.9949L119.226 49.2589C119.25 49.2652 119.273 49.2729 119.296 49.2819L119.224 49.2639L118.783 51.0349C118.763 51.0972 118.719 51.149 118.661 51.179C118.603 51.209 118.535 51.2147 118.473 51.1949C118.48 51.2049 117.982 51.0729 117.982 51.0729L117.647 51.8459L118.526 52.0649C118.689 52.1059 118.85 52.1489 119.007 52.1889L118.728 53.3109L119.403 53.4799L119.679 52.3689C119.864 52.4189 120.043 52.4689 120.218 52.5089L119.942 53.6139L120.617 53.7819L120.897 52.6619C122.048 52.8799 122.914 52.7919 123.279 51.7509C123.573 50.9119 123.264 50.4279 122.658 50.1129C123.1 50.0129 123.432 49.7209 123.521 49.1209L123.524 49.1169ZM121.981 51.2809C121.772 52.1199 120.36 51.6659 119.902 51.5529L120.273 50.0659C120.731 50.1799 122.199 50.4059 121.981 51.2809ZM122.189 49.1049C121.999 49.8679 120.824 49.4799 120.442 49.3849L120.779 48.0369C121.16 48.1319 122.388 48.3089 122.189 49.1049Z" fill="white"/>
</svg>
