<svg width="300" height="100" viewBox="0 0 300 100" fill="none" xmlns="http://www.w3.org/2000/svg">
<rect width="300" height="100" fill="white"/>
<g clip-path="url(#clip0_291_7491)">
<mask id="mask0_291_7491" style="mask-type:luminance" maskUnits="userSpaceOnUse" x="130" y="30" width="40" height="40">
<path d="M130 30H170V70H130V30Z" fill="white"/>
</mask>
<g mask="url(#mask0_291_7491)">
<path d="M130 30H170V70H130V30Z" fill="#8934AD"/>
<path d="M137.66 56.4913C137.66 56.7783 137.548 57.0188 137.323 57.213C137.098 57.407 136.835 57.504 136.534 57.504C136.399 57.504 136.268 57.4816 136.141 57.4365C136.211 57.4365 136.275 57.4281 136.331 57.4113C136.342 57.4085 136.404 57.3845 136.517 57.3395C136.68 57.2777 136.807 57.1946 136.896 57.0906C137.009 56.9612 137.065 56.805 137.065 56.6221C137.065 56.5603 137.06 56.5026 137.048 56.4492C137.023 56.2916 136.946 56.1735 136.816 56.0947C136.69 56.016 136.529 55.9766 136.335 55.9766C136.268 55.9766 136.196 55.9808 136.12 55.9892L135.96 56.0104V58.4999C135.96 58.5815 135.964 58.6532 135.972 58.7151C135.981 58.7741 136.003 58.829 136.04 58.8797C136.062 58.9134 136.089 58.9458 136.12 58.9767C136.155 59.0059 136.194 59.0313 136.234 59.0527H135.192C135.248 59.0245 135.282 59.0063 135.293 58.9978C135.321 58.9781 135.347 58.9416 135.369 58.8881C135.394 58.8346 135.411 58.7741 135.42 58.7066C135.428 58.6363 135.432 58.566 135.432 58.4957V56.1285V56.0737C135.432 55.9977 135.428 55.9386 135.42 55.8964C135.414 55.8514 135.394 55.8035 135.361 55.753C135.34 55.7219 135.316 55.6935 135.289 55.6685C135.264 55.646 135.228 55.6235 135.183 55.601H136.479C136.797 55.601 137.067 55.6755 137.289 55.8247C137.536 55.9906 137.66 56.2129 137.66 56.4913ZM143.152 57.4197C143.152 57.8754 142.991 58.2706 142.667 58.6054C142.318 58.9654 141.872 59.1455 141.329 59.1455C140.733 59.1455 140.249 58.9739 139.878 58.6307C139.507 58.2847 139.321 57.8529 139.321 57.3353C139.321 56.8514 139.48 56.4351 139.798 56.0863C140.144 55.7065 140.592 55.5166 141.144 55.5166C141.81 55.5166 142.324 55.7164 142.684 56.1158C142.996 56.4647 143.152 56.8993 143.152 57.4197ZM142.566 57.348C142.566 56.9485 142.462 56.6179 142.253 56.3563C142.012 56.0525 141.667 55.9006 141.22 55.9006C140.817 55.9006 140.495 56.0525 140.253 56.3563C140.034 56.632 139.924 56.9696 139.924 57.369C139.924 57.777 140.051 58.1159 140.304 58.386C140.56 58.6532 140.885 58.7868 141.279 58.7868C141.661 58.7868 141.976 58.6349 142.224 58.3311C142.452 58.0498 142.566 57.7221 142.566 57.348ZM147.277 58.348L147.011 59.0527H144.809C144.84 59.0386 144.872 59.0245 144.906 59.0105C144.953 58.9828 144.991 58.9417 145.016 58.8923C145.044 58.8413 145.062 58.7855 145.07 58.7278C145.082 58.6687 145.087 58.604 145.087 58.5337V56.158V56.0989C145.087 56.0118 145.083 55.9443 145.075 55.8964C145.069 55.8486 145.049 55.7979 145.016 55.7445C144.993 55.7051 144.969 55.677 144.944 55.6601C144.921 55.6432 144.883 55.6235 144.83 55.601H145.889C145.838 55.6235 145.8 55.6446 145.775 55.6643C145.75 55.6812 145.724 55.7093 145.699 55.7487C145.665 55.805 145.644 55.8626 145.636 55.9217C145.627 55.9808 145.623 56.0666 145.623 56.1791V58.6054C145.648 58.6139 145.739 58.6279 145.893 58.6476C146.051 58.6673 146.204 58.6771 146.353 58.6771C146.525 58.6771 146.66 58.6588 146.758 58.6223C146.836 58.5918 146.913 58.5609 146.99 58.5294C147.069 58.4957 147.165 58.4352 147.277 58.348ZM152.707 59.0527H151.567C151.626 59.0471 151.69 59.0077 151.757 58.9345C151.78 58.9092 151.791 58.8783 151.791 58.8417C151.791 58.8079 151.781 58.7643 151.762 58.7109L151.382 57.7614H150.078L149.761 58.6223C149.739 58.6831 149.728 58.7474 149.728 58.8122C149.728 58.8797 149.743 58.9289 149.774 58.9598C149.827 59.0105 149.882 59.0414 149.939 59.0527H148.93C148.968 59.0353 149.005 59.0156 149.04 58.9936C149.071 58.9711 149.102 58.9458 149.133 58.9177C149.178 58.8727 149.216 58.8215 149.247 58.7657C149.266 58.7292 149.293 58.6701 149.327 58.5885L150.377 55.9681C150.389 55.94 150.397 55.9161 150.403 55.8964C150.408 55.8739 150.411 55.85 150.411 55.8247C150.411 55.805 150.407 55.7797 150.399 55.7487C150.373 55.6671 150.314 55.6179 150.221 55.601H151.074L152.221 58.4324C152.241 58.4887 152.264 58.5463 152.289 58.6054C152.314 58.6617 152.348 58.7193 152.39 58.7784C152.432 58.8335 152.478 58.8843 152.529 58.9303C152.577 58.9725 152.636 59.0133 152.707 59.0527ZM151.259 57.3901L150.745 56.0821L150.221 57.3901H151.259ZM157.659 59.0527C157.651 59.0555 157.604 59.0583 157.52 59.0611C157.438 59.0639 157.34 59.0653 157.225 59.0653H157.161C156.987 59.0653 156.86 59.0569 156.782 59.04C156.706 59.0203 156.61 58.9542 156.495 58.8417C156.402 58.7517 156.291 58.6237 156.161 58.4577C156.047 58.3091 155.933 58.16 155.819 58.0104C155.741 57.912 155.638 57.7628 155.511 57.5631C155.416 57.4113 155.354 57.3114 155.326 57.2635C155.376 57.2635 155.441 57.2551 155.52 57.2382C155.601 57.2179 155.68 57.1911 155.756 57.1581C155.897 57.0962 156.007 57.0188 156.085 56.926C156.184 56.8106 156.233 56.6756 156.233 56.5209C156.233 56.504 156.232 56.4843 156.229 56.4618C156.226 56.4365 156.225 56.4168 156.225 56.4028C156.202 56.2621 156.129 56.1496 156.005 56.0652C155.881 55.978 155.728 55.9344 155.545 55.9344C155.469 55.9344 155.383 55.9457 155.288 55.9681L155.208 55.9892V58.5758C155.208 58.6518 155.209 58.7109 155.212 58.7531C155.217 58.7925 155.231 58.8346 155.254 58.8797C155.277 58.9247 155.299 58.9584 155.322 58.981C155.344 59.0006 155.379 59.0245 155.427 59.0527H154.423C154.471 59.0301 154.509 59.0077 154.537 58.9852C154.568 58.9626 154.593 58.9289 154.613 58.8839C154.634 58.8387 154.649 58.7902 154.655 58.7404C154.663 58.6898 154.667 58.6335 154.667 58.5716V56.1243C154.667 56.0202 154.66 55.9443 154.646 55.8964C154.635 55.8456 154.615 55.797 154.587 55.753C154.548 55.6883 154.489 55.6376 154.41 55.601H155.727C156.019 55.601 156.261 55.6699 156.452 55.8078C156.669 55.9625 156.777 56.1819 156.777 56.4661C156.777 56.6489 156.701 56.8304 156.549 57.0104C156.398 57.1876 156.21 57.3057 155.988 57.3648L155.938 57.3775L156.782 58.445C156.838 58.5125 156.914 58.5885 157.009 58.6729C157.088 58.7404 157.161 58.7953 157.229 58.8374C157.296 58.8769 157.368 58.9177 157.444 58.9598C157.506 58.9936 157.578 59.0245 157.659 59.0527ZM160.52 59.0527H159.465C159.502 59.033 159.53 59.0175 159.55 59.0063C159.595 58.9781 159.627 58.943 159.647 58.9007C159.669 58.8558 159.686 58.8065 159.698 58.7531C159.712 58.6968 159.719 58.6349 159.719 58.5674V56.1285V56.0737C159.719 55.9948 159.714 55.9344 159.706 55.8922C159.698 55.85 159.675 55.7993 159.638 55.7403C159.602 55.6812 159.544 55.6348 159.465 55.601H160.516C160.471 55.6207 160.435 55.6418 160.406 55.6643C160.376 55.6893 160.351 55.7192 160.331 55.753C160.311 55.7895 160.294 55.8486 160.28 55.9301C160.266 56.009 160.259 56.0807 160.259 56.1454V58.58C160.259 58.6476 160.263 58.7038 160.271 58.7489C160.28 58.7911 160.3 58.8431 160.331 58.905C160.35 58.9416 160.374 58.9711 160.402 58.9936C160.433 59.0133 160.473 59.033 160.52 59.0527ZM164.817 58.0526C164.817 58.393 164.664 58.6645 164.357 58.867C164.079 59.0499 163.743 59.1413 163.349 59.1413C163.236 59.1413 163.135 59.1371 163.045 59.1286C162.953 59.1192 162.861 59.1023 162.771 59.078L162.454 58.9978L162.315 58.3353L162.387 58.386C162.739 58.6335 163.076 58.7573 163.4 58.7573C163.642 58.7573 163.836 58.7109 163.982 58.6181C164.131 58.5224 164.206 58.4028 164.206 58.2594C164.206 58.0793 164.138 57.9331 164.003 57.8205C163.871 57.7052 163.602 57.5603 163.197 57.3859C162.905 57.2593 162.694 57.1074 162.564 56.9302C162.46 56.7867 162.408 56.625 162.408 56.445C162.408 56.1243 162.535 55.8852 162.788 55.7276C163.01 55.5898 163.317 55.5209 163.708 55.5209C163.854 55.5209 163.985 55.5293 164.1 55.5461C164.215 55.5603 164.336 55.587 164.463 55.6264L164.518 55.6432V56.2339L164.455 56.1749C164.359 56.0877 164.237 56.016 164.087 55.9597C163.945 55.9041 163.793 55.8755 163.64 55.8753C163.469 55.8753 163.321 55.9161 163.197 55.9977C163.073 56.0765 163.011 56.1833 163.011 56.3184C163.011 56.4984 163.09 56.6503 163.248 56.7741C163.36 56.8641 163.568 56.9752 163.872 57.1074C164.179 57.2368 164.408 57.3732 164.56 57.5167C164.732 57.6799 164.817 57.8585 164.817 58.0526ZM143.648 63.376C143.648 63.6601 143.524 63.9076 143.277 64.1186C143.012 64.3437 142.68 64.4562 142.281 64.4562H140.943C140.986 64.4393 141.018 64.4224 141.04 64.4055C141.066 64.3887 141.09 64.3647 141.112 64.3338C141.146 64.286 141.168 64.2381 141.18 64.1904C141.191 64.1425 141.197 64.0849 141.197 64.0174V61.5573V61.4982V61.4476C141.197 61.3773 141.191 61.3196 141.18 61.2746C141.172 61.2285 141.153 61.1851 141.125 61.148C141.099 61.1086 141.071 61.0791 141.04 61.0594C141.004 61.0373 140.966 61.0189 140.926 61.0045H142.273C142.574 61.0045 142.823 61.0734 143.019 61.2113C143.216 61.3492 143.315 61.5179 143.315 61.7177C143.315 61.9315 143.273 62.089 143.188 62.1902C143.146 62.2409 143.043 62.3126 142.88 62.4054L142.821 62.4392L142.884 62.4645C143.143 62.5686 143.327 62.6769 143.437 62.7894C143.578 62.9357 143.648 63.1312 143.648 63.376ZM142.737 61.7978C142.709 61.6206 142.631 61.4912 142.505 61.4096C142.406 61.345 142.282 61.3126 142.133 61.3126C142.026 61.3126 141.942 61.3266 141.88 61.3548L141.741 61.4139V62.3886L141.948 62.3928C142.142 62.3928 142.315 62.3534 142.467 62.2746C142.652 62.179 142.745 62.0468 142.745 61.878C142.745 61.8639 142.742 61.8372 142.737 61.7978ZM143.057 63.397C143.057 63.172 142.965 62.9976 142.779 62.8738C142.616 62.7641 142.416 62.7092 142.18 62.7092C142.118 62.7092 142.055 62.7135 141.99 62.7219L141.745 62.7599V64.0089L141.829 64.0468C141.964 64.1087 142.115 64.1397 142.281 64.1397C142.498 64.1397 142.676 64.0821 142.817 63.9667C142.977 63.8345 143.057 63.6446 143.057 63.397ZM149.083 64.4562H147.944C148.003 64.4506 148.066 64.4112 148.134 64.338C148.156 64.3127 148.167 64.2818 148.167 64.2452C148.167 64.2114 148.157 64.1678 148.138 64.1144L147.758 63.165H146.454L146.138 64.0258C146.115 64.0866 146.104 64.1509 146.104 64.2157C146.104 64.2832 146.119 64.3324 146.15 64.3633C146.204 64.414 146.259 64.445 146.315 64.4562H145.306C145.344 64.4389 145.381 64.4191 145.416 64.3971C145.447 64.3746 145.478 64.3493 145.509 64.3212C145.554 64.2762 145.592 64.225 145.623 64.1692C145.643 64.1327 145.669 64.0736 145.703 63.992L146.754 61.3716C146.765 61.3435 146.773 61.3196 146.779 61.2999C146.785 61.2774 146.787 61.2535 146.787 61.2282C146.787 61.2085 146.783 61.1832 146.775 61.1523C146.75 61.0706 146.69 61.0214 146.598 61.0045H147.45L148.598 63.8359C148.617 63.8922 148.64 63.9498 148.665 64.0089C148.691 64.0652 148.724 64.1228 148.767 64.1819C148.808 64.237 148.854 64.2878 148.906 64.3338C148.954 64.376 149.013 64.4168 149.083 64.4562ZM147.636 62.7937L147.121 61.4856L146.598 62.7937H147.636ZM154.318 61.0045C154.206 61.0495 154.124 61.1199 154.073 61.2155C154.052 61.2529 154.035 61.2925 154.023 61.3337C154.012 61.3758 154.006 61.4279 154.006 61.4898V61.5657L154.01 64.6292C153.929 64.6039 153.858 64.5758 153.799 64.5448C153.74 64.5167 153.674 64.4745 153.601 64.4182C153.553 64.3841 153.507 64.346 153.466 64.3042C153.446 64.2846 153.386 64.21 153.284 64.0806L151.436 61.7472L151.44 63.9034V63.9583C151.44 64.0258 151.447 64.0877 151.462 64.1439C151.478 64.2002 151.515 64.2663 151.571 64.3423C151.585 64.3591 151.613 64.3817 151.656 64.4098C151.698 64.4351 151.729 64.4506 151.748 64.4562H150.74C150.78 64.4404 150.818 64.4206 150.854 64.3971C150.905 64.3633 150.944 64.324 150.972 64.279C151.003 64.2302 151.025 64.1757 151.035 64.1186C151.049 64.0567 151.056 64.0033 151.056 63.9583V61.5362C151.056 61.4687 151.052 61.4082 151.044 61.3548C151.038 61.3013 151.023 61.2549 150.997 61.2155C150.958 61.1593 150.921 61.1171 150.888 61.089C150.857 61.058 150.81 61.0299 150.748 61.0045H151.588C151.594 61.0467 151.599 61.0734 151.605 61.0847C151.622 61.1156 151.633 61.1353 151.639 61.1438C151.658 61.1747 151.682 61.2099 151.71 61.2493L153.614 63.6502V61.5573C153.614 61.4673 153.608 61.3955 153.597 61.3421C153.588 61.2887 153.564 61.231 153.525 61.1691C153.504 61.1339 153.476 61.1025 153.445 61.0763C153.414 61.0509 153.374 61.0271 153.327 61.0045H154.318ZM157.019 64.4562H155.977C156.022 64.4308 156.057 64.4069 156.082 64.3845C156.11 64.3619 156.133 64.331 156.15 64.2916C156.169 64.2523 156.185 64.203 156.196 64.1439C156.21 64.0849 156.217 64.0202 156.217 63.9498V61.5278V61.4729C156.217 61.3941 156.213 61.3337 156.205 61.2915C156.196 61.2493 156.175 61.2014 156.141 61.148C156.119 61.1114 156.095 61.0833 156.07 61.0636C156.047 61.0439 156.013 61.0243 155.968 61.0045H157.019C156.974 61.0214 156.937 61.0411 156.909 61.0636C156.881 61.0833 156.855 61.1128 156.829 61.1523C156.795 61.2028 156.774 61.2507 156.766 61.2957C156.76 61.3407 156.757 61.4054 156.757 61.4898V63.9076C156.757 63.9977 156.76 64.0708 156.766 64.1271C156.774 64.1805 156.795 64.241 156.829 64.3085C156.849 64.3423 156.874 64.3718 156.905 64.3971C156.941 64.4207 156.979 64.4405 157.019 64.4562ZM159.091 64.4562H158.99C158.953 64.4562 158.907 64.4576 158.85 64.4604C158.713 64.4604 158.585 64.4562 158.466 64.4478C158.348 64.4365 158.265 64.4182 158.217 64.3929C158.147 64.3591 158.108 64.3394 158.099 64.3338C158.046 64.3028 157.987 64.2424 157.922 64.1524L156.821 62.6713L157.724 61.4814C157.741 61.456 157.757 61.4209 157.774 61.3758C157.791 61.3308 157.8 61.2887 157.8 61.2493C157.8 61.2071 157.793 61.1733 157.779 61.148C157.748 61.0777 157.691 61.0299 157.61 61.0045H158.606L157.378 62.5616L158.458 63.9836C158.492 64.0286 158.525 64.0694 158.559 64.1059C158.602 64.1449 158.647 64.1816 158.694 64.2157C158.793 64.2888 158.863 64.338 158.905 64.3633C158.947 64.3887 159.009 64.4196 159.091 64.4562Z" fill="white"/>
<path d="M151.018 35.6143L144.386 42.4564H147.649L154.351 35.6143H151.018ZM151.404 39.5441L144.772 46.3862H148.035L154.737 39.5441H151.404ZM152.246 42.9827L145.614 49.8248H148.877L155.579 42.9827H152.246Z" fill="#F2A809"/>
</g>
</g>
<defs>
<clipPath id="clip0_291_7491">
<rect width="40" height="40" fill="white" transform="translate(130 30)"/>
</clipPath>
</defs>
</svg>
