<svg width="300" height="100" viewBox="0 0 300 100" fill="none" xmlns="http://www.w3.org/2000/svg">
<rect width="300" height="100" fill="white"/>
<g clip-path="url(#clip0_298_10396)">
<mask id="mask0_298_10396" style="mask-type:luminance" maskUnits="userSpaceOnUse" x="70" y="30" width="159" height="40">
<path d="M228.153 30H70.9375V70H228.153V30Z" fill="white"/>
</mask>
<g mask="url(#mask0_298_10396)">
<path d="M101.702 42.6479C101.441 36.4534 94.4105 30.9612 86.4125 30.6964H71.866L71.2961 30H70.9375V42.6479C70.9375 49.1117 78.053 54.3374 86.3188 54.6039C94.4105 54.342 101.441 48.8557 101.702 42.6479Z" fill="#37B6AA"/>
<path d="M78.6482 70.0001C75.5398 69.829 72.8212 66.307 72.7379 62.3133L72.8242 55.0071L72.604 54.784V54.6084L78.8312 54.6813C82.0765 54.72 84.6582 58.2927 84.7415 62.4114C84.56 66.4408 81.7611 69.9048 78.6482 70.0001Z" fill="#37B6AA"/>
<path d="M127.183 45.4097C127.87 46.7261 128.213 48.2691 128.213 50.0388C128.213 51.7648 127.87 53.2861 127.183 54.6024C126.542 55.8701 125.552 56.9282 124.329 57.6528C123.073 58.3821 121.642 58.7541 120.19 58.7287C118.929 58.7287 117.834 58.497 116.904 58.0337C116.016 57.6012 115.253 56.9505 114.684 56.1425V65.1627H111.091V41.5424H114.216L114.65 44.072C116.022 42.2566 117.87 41.349 120.194 41.349C121.644 41.3232 123.075 41.6826 124.341 42.3905C125.563 43.0986 126.55 44.1479 127.183 45.4097ZM124.563 50.0358C124.563 48.3554 124.104 46.9948 123.185 45.9542C122.269 44.9127 121.066 44.3934 119.587 44.392C118.108 44.3904 116.909 44.9052 116.003 45.935C115.096 46.9647 114.644 48.3157 114.646 49.9718C114.646 51.6771 115.099 53.0594 116.006 54.1188C116.912 55.1782 118.109 55.7095 119.595 55.7125C121.077 55.7125 122.276 55.1812 123.193 54.1188C124.109 53.0564 124.568 51.6954 124.568 50.0358H124.563Z" fill="#37B6AA"/>
<path d="M139.666 44.9009H138.075C136.593 44.9009 135.52 45.3825 134.857 46.3458C134.193 47.3089 133.862 48.531 133.863 50.012V58.5398H130.28V41.5425H133.466L133.863 44.0974C134.327 43.3237 134.978 42.6786 135.756 42.221C136.529 41.7746 137.567 41.5425 138.88 41.5425H139.673L139.666 44.9009Z" fill="#37B6AA"/>
<path d="M143.666 42.4231C144.916 41.7049 146.348 41.3448 147.963 41.3428C149.601 41.3428 151.044 41.6746 152.293 42.3382C153.523 42.9816 154.548 43.9576 155.25 45.155C155.967 46.3702 156.337 47.7967 156.36 49.4344C156.359 49.8904 156.326 50.346 156.262 50.7974H143.453V51.0013C143.536 52.4833 144.002 53.6559 144.85 54.5189C145.698 55.3819 146.815 55.8134 148.2 55.8134C149.308 55.8134 150.235 55.553 150.988 55.0323C151.741 54.5074 152.271 53.7213 152.476 52.827H156.058C155.78 54.5057 154.889 56.0216 153.558 57.0812C152.197 58.1823 150.499 58.7333 148.463 58.7343C146.694 58.7343 145.152 58.3753 143.835 57.657C142.546 56.9609 141.487 55.906 140.785 54.62C140.066 53.3156 139.707 51.8003 139.709 50.0743C139.709 48.3274 140.056 46.7963 140.751 45.4809C141.407 44.2013 142.419 43.1393 143.666 42.4231ZM151.231 45.28C150.4 44.5806 149.355 44.2334 148.094 44.2384C146.984 44.2163 145.904 44.6004 145.057 45.3187C144.208 46.0369 143.716 46.9936 143.581 48.189H152.707C152.555 46.945 152.063 45.9753 151.231 45.28Z" fill="#37B6AA"/>
<path d="M184.322 48.9434V58.5334H180.751V48.9762C180.751 47.4942 180.453 46.3657 179.858 45.591C179.263 44.8157 178.37 44.4303 177.203 44.4303C175.965 44.4303 174.986 44.8673 174.265 45.7413C173.543 46.6152 173.183 47.816 173.183 49.3437V58.5394H169.564V48.9762C169.564 47.4723 169.26 46.3379 168.653 45.5732C168.046 44.8083 167.157 44.4283 165.985 44.4333C164.77 44.4333 163.803 44.8872 163.084 45.7949C162.365 46.7024 162.004 47.9177 162.002 49.4404V58.5334H158.419V41.5422H161.544L161.944 43.7652C163.158 42.1711 164.814 41.3631 166.912 41.3413C168.011 41.3178 169.098 41.5809 170.064 42.1046C170.988 42.6369 171.718 43.4508 172.147 44.4273C172.724 43.4753 173.541 42.6914 174.516 42.1537C175.489 41.6121 176.662 41.3413 178.034 41.3413C179.894 41.3413 181.409 41.9439 182.579 43.1492C183.743 44.3574 184.331 46.2889 184.322 48.9434Z" fill="#37B6AA"/>
<path d="M202.846 45.3917C203.53 46.6982 203.874 48.2462 203.876 50.0357C203.876 51.7429 203.532 53.2533 202.846 54.5666C202.203 55.8387 201.213 56.9029 199.99 57.6363C198.735 58.3757 197.299 58.7536 195.842 58.7286C194.58 58.7286 193.488 58.4919 192.557 58.0157C191.656 57.5673 190.881 56.9027 190.301 56.0814L189.869 58.5366H186.744V35.3047H190.326V44.0674C191.677 42.2521 193.512 41.3439 195.832 41.3429C197.283 41.3175 198.714 41.6769 199.982 42.3845C201.209 43.0863 202.205 44.1316 202.846 45.3917ZM200.223 50.0357C200.223 48.3782 199.763 47.023 198.845 45.9706C197.926 44.918 196.726 44.3919 195.244 44.3919C193.762 44.3919 192.568 44.9116 191.662 45.9512C190.757 46.9909 190.303 48.3404 190.301 50C190.301 51.6794 190.755 53.0504 191.662 54.1129C192.57 55.1752 193.764 55.7064 195.244 55.7064C196.726 55.7064 197.926 55.1817 198.845 54.1322C199.763 53.0826 200.223 51.7172 200.223 50.0357Z" fill="#37B6AA"/>
<path d="M209.515 35.3047H205.93V58.5336H209.515V35.3047Z" fill="#37B6AA"/>
<path d="M219.736 54.6501L224.349 41.5454H228.16L220.462 61.1869C220.162 61.9954 219.797 62.7783 219.37 63.5274C219.073 64.0353 218.65 64.4581 218.142 64.755C217.656 65.0317 217.003 65.1706 216.185 65.1716H212.327V62.0171H214.849C215.533 62.0171 216.013 61.9114 216.275 61.7017C216.537 61.4919 216.817 61.0217 217.105 60.2926L217.802 58.6647L211.164 41.5529H214.975L219.736 54.6501Z" fill="#37B6AA"/>
</g>
</g>
<defs>
<clipPath id="clip0_298_10396">
<rect width="158.571" height="40" fill="white" transform="translate(70.9375 30)"/>
</clipPath>
</defs>
</svg>
