<svg width="300" height="100" viewBox="0 0 300 100" fill="none" xmlns="http://www.w3.org/2000/svg">
<rect width="300" height="100" fill="white"/>
<g clip-path="url(#clip0_298_10250)">
<mask id="mask0_298_10250" style="mask-type:luminance" maskUnits="userSpaceOnUse" x="73" y="30" width="155" height="40">
<path d="M228 30H73V70H228V30Z" fill="white"/>
</mask>
<g mask="url(#mask0_298_10250)">
<path d="M73.206 69.9999H79.936V59.1749H80.041C80.385 59.6859 80.846 60.1079 81.386 60.4049C81.9395 60.8361 82.5736 61.1523 83.251 61.3349C84.061 61.5529 84.897 61.6569 85.736 61.6449C87.7399 61.6774 89.7007 61.0615 91.326 59.8889C92.1798 59.2295 92.9165 58.431 93.505 57.5269C94.23 56.5989 94.645 55.5689 95.059 54.3299C95.473 52.9899 95.577 51.6499 95.577 49.9999C95.577 48.3499 95.371 46.6999 94.852 45.3599C94.4489 44.098 93.7783 42.938 92.886 41.9589C92.1151 40.9779 91.1166 40.1997 89.977 39.6919C88.8949 39.2351 87.7353 38.99 86.561 38.9699C85.0934 38.9469 83.6404 39.2642 82.316 39.8969C81.1172 40.4926 80.0866 41.3789 79.318 42.4749H79.218L78.908 39.4899H73C73 40.5199 73.104 41.5519 73.104 42.7899C73.208 44.0189 73.208 45.3679 73.208 46.7069V69.9999H73.206ZM79.936 48.8669V48.2489C80.041 48.0439 80.041 47.8369 80.143 47.7329C80.258 47.0729 80.504 46.4439 80.868 45.8819C81.248 45.3889 81.747 44.9989 82.318 44.7479C82.938 44.4379 83.457 44.2309 84.182 44.2309C85.0796 44.2194 85.9549 44.5103 86.667 45.0569C87.402 45.5913 87.9447 46.3489 88.214 47.2169C88.557 48.2129 88.736 49.2569 88.743 50.3109C88.743 51.4309 88.565 52.5439 88.213 53.6089C87.8677 54.4388 87.2938 55.1536 86.558 55.6699C85.8459 56.2165 84.9706 56.5074 84.073 56.4959C83.348 56.4959 82.838 56.2899 82.208 56.0829C81.7145 55.7619 81.2628 55.381 80.863 54.9489C80.553 54.4319 80.242 53.9179 80.138 53.2989C80.034 53.0939 80.034 52.8869 79.931 52.5779V48.8679H79.937L79.936 48.8669ZM99.818 61.2399H106.653V49.3819C106.653 49.1759 106.757 48.8659 106.757 48.6599C106.94 47.6673 107.496 46.7822 108.31 46.1859C109.134 45.5679 110.169 45.2589 111.416 45.2589H112.452C112.658 45.3619 112.97 45.3619 113.281 45.4639V39.0719C112.971 39.0719 112.762 38.9679 112.556 38.9679H111.831C111.312 38.9679 110.691 38.9679 110.175 39.1739C109.576 39.3433 109.015 39.6231 108.519 39.9989C107.938 40.3711 107.444 40.8635 107.069 41.4429C106.55 41.9589 106.239 42.6719 105.929 43.5039H105.723L105.517 39.4829H99.714C99.7 40.1369 99.734 40.7919 99.818 41.4409V61.2399ZM123.628 61.2399V39.4849H116.798V61.2369L123.628 61.2399ZM129.013 61.2399H135.847V47.7329C135.853 47.4789 135.924 47.2299 136.054 47.0109C136.158 46.5989 136.468 46.1859 136.779 45.7809C137.058 45.3669 137.454 45.0449 137.918 44.8549C138.332 44.5449 138.849 44.4419 139.472 44.4419C140.301 44.4419 141.025 44.6479 141.542 45.0599C142.026 45.5097 142.382 46.0787 142.577 46.7099C142.887 47.4299 142.992 48.2559 142.992 49.1829V61.2459H149.722V48.3509C149.722 46.7019 149.516 45.3659 149.102 44.2279C148.792 42.9979 148.17 42.0629 147.548 41.2419C146.823 40.5209 145.994 39.9019 145.063 39.5929C144.08 39.1808 143.023 38.9706 141.957 38.9749C141.118 38.9632 140.282 39.0675 139.472 39.2849C138.747 39.5929 138.022 39.8009 137.505 40.2119C136.979 40.5319 136.492 40.9119 136.055 41.3459C135.745 41.7589 135.435 42.1709 135.226 42.4799H135.02L134.71 39.4949H128.808C128.912 40.4219 128.912 41.5569 129.015 42.6909V61.2369L129.013 61.2399ZM155.82 35.4649V39.4859H152.933V44.4349H155.833V53.3019C155.817 54.6256 155.992 55.9448 156.351 57.2189C156.611 58.1649 157.072 59.0439 157.704 59.7949C158.349 60.3595 159.084 60.8124 159.879 61.1349C160.843 61.4732 161.856 61.648 162.877 61.6519C163.743 61.6379 164.607 61.5689 165.464 61.4439C166.189 61.3409 166.81 61.2389 167.228 61.0319V55.9799C167.016 55.9637 166.803 55.9991 166.608 56.0829H165.158C164.537 56.0829 164.018 55.9799 163.603 55.6699C163.189 55.4649 162.879 55.0519 162.775 54.4409C162.569 53.9209 162.465 53.1969 162.465 52.2689V44.4329H167.332V39.4849H162.466V33.6089L155.84 35.4649H155.82ZM181.188 39.4859L189.16 61.2389H195.89L203.966 39.4859H196.833L194.036 49.5889C193.83 50.5159 193.622 51.3449 193.415 52.2689C193.184 53.1122 193.011 53.9706 192.899 54.8379H192.692C192.569 53.9693 192.396 53.1086 192.174 52.2599C191.981 51.3549 191.739 50.4599 191.449 49.5799L188.551 39.4849H181.2L181.188 39.4859ZM216.91 38.9699C215.146 38.9699 213.493 39.1759 212.148 39.7949C210.751 40.2619 209.477 41.0378 208.421 42.0649C207.386 43.0949 206.557 44.2299 206.04 45.6729C205.488 47.2285 205.208 48.8673 205.211 50.5179C205.198 52.1025 205.479 53.6758 206.04 55.1579C206.599 56.4716 207.407 57.6644 208.421 58.6699C209.456 59.6729 210.691 60.446 212.045 60.9389C213.391 61.4549 214.945 61.6599 216.497 61.6599C217.636 61.6599 218.878 61.5569 219.913 61.2479C221.04 60.9537 222.121 60.5026 223.123 59.9079C224.07 59.2928 224.91 58.5262 225.608 57.6389C226.437 56.7119 226.954 55.5769 227.372 54.3389C227.807 52.9669 228.019 51.5349 228 50.0969C228 48.4469 227.794 46.8999 227.171 45.5609C226.653 44.2209 225.936 42.9829 224.996 42.0489C223.997 41.0471 222.794 40.2728 221.469 39.7789C220.123 39.1609 218.569 38.9539 216.913 38.9539L216.91 38.9699ZM216.703 43.8149C217.428 43.8149 218.153 43.9189 218.67 44.3309C219.187 44.7439 219.705 45.1569 220.016 45.7749C220.38 46.4499 220.625 47.1819 220.741 47.9399C220.952 48.712 221.057 49.5094 221.051 50.3099C221.051 51.5399 220.845 52.7849 220.43 53.7119C220.186 54.5973 219.681 55.3885 218.98 55.9819C218.36 56.5989 217.531 56.8069 216.702 56.8069C215.804 56.8185 214.929 56.5275 214.217 55.9809C213.536 55.3299 213.037 54.5132 212.767 53.6109C212.352 52.6829 212.248 51.5489 212.248 50.3109C212.261 49.5169 212.33 48.7249 212.455 47.9409C212.661 47.1149 212.869 46.4969 213.284 45.8789C213.617 45.273 214.076 44.7453 214.629 44.3309C215.262 43.9788 215.976 43.8008 216.7 43.8149H216.703Z" fill="black"/>
<path d="M171.468 39.5879V44.9479H178.404V39.5879H171.468Z" fill="#00AFEF"/>
<path d="M171.468 44.9482V50.4132H178.404V44.9482H171.468Z" fill="#EC268F"/>
<path d="M171.468 50.4131V55.7741H178.404V50.4131H171.468Z" fill="#FFF212"/>
<path d="M171.468 55.774V61.237H178.404V55.774H171.468ZM174.988 30C172.918 30 171.261 31.649 171.261 33.609C171.258 34.0977 171.352 34.5821 171.538 35.0339C171.725 35.4856 171.999 35.8957 172.346 36.24C172.693 36.5861 173.105 36.8599 173.559 37.0455C174.012 37.231 174.498 37.3247 174.988 37.321C176.955 37.321 178.613 35.672 178.613 33.611C178.601 32.6564 178.216 31.7445 177.539 31.071C176.861 30.3954 175.945 30.0112 174.988 30ZM120.313 30C118.243 30 116.586 31.649 116.586 33.609C116.583 34.0977 116.677 34.5821 116.863 35.0338C117.05 35.4856 117.324 35.8957 117.671 36.24C118.018 36.5859 118.43 36.8596 118.884 37.0452C119.337 37.2307 119.823 37.3245 120.313 37.321C122.28 37.321 123.938 35.672 123.938 33.611C123.927 32.6563 123.541 31.7443 122.864 31.071C122.186 30.3957 121.27 30.0114 120.313 30Z" fill="black"/>
</g>
</g>
<defs>
<clipPath id="clip0_298_10250">
<rect width="155" height="40" fill="white" transform="translate(73 30)"/>
</clipPath>
</defs>
</svg>
