<svg width="300" height="100" viewBox="0 0 300 100" fill="none" xmlns="http://www.w3.org/2000/svg">
<rect width="300" height="100" fill="white"/>
<g clip-path="url(#clip0_298_10236)">
<mask id="mask0_298_10236" style="mask-type:luminance" maskUnits="userSpaceOnUse" x="81" y="30" width="138" height="40">
<path d="M218.63 30.6997H81.4297V69.2997H218.63V30.6997Z" fill="white"/>
</mask>
<g mask="url(#mask0_298_10236)">
<path d="M117.43 32.606H128.13C132.93 32.606 137.03 35.706 137.03 41.306C137.03 46.906 132.93 50.006 128.13 50.006H121.63V59.706H117.43V32.606ZM127.73 46.306C130.83 46.306 132.83 44.306 132.83 41.306C132.83 38.306 130.83 36.306 127.73 36.306H121.53V46.306H127.73Z" fill="black"/>
<path d="M138.531 40.5935H142.631V43.1935C144.231 41.0935 146.731 40.2935 150.031 40.2935V44.5935C149.131 44.2935 148.431 44.1935 147.531 44.1935C145.031 44.1935 142.631 46.1935 142.631 50.0935V59.6935H138.531V40.5935Z" fill="black"/>
<path d="M149.93 50.0966C149.93 44.4966 154.53 39.9966 160.13 39.9966C165.73 39.9966 170.33 44.4966 170.33 50.0966C170.33 55.6966 165.73 60.1966 160.13 60.1966C154.43 60.1966 149.93 55.6966 149.93 50.0966ZM166.03 50.0966C166.03 46.4966 163.43 43.7966 160.03 43.7966C156.63 43.7966 154.13 46.4966 154.13 50.0966C154.13 53.5966 156.73 56.3966 160.03 56.2966C163.43 56.3966 166.03 53.5966 166.03 50.0966Z" fill="black"/>
<path d="M172.227 40.5935H176.327V43.2935C177.927 41.4935 180.027 40.2935 183.327 40.2935C188.527 40.2935 192.427 44.5935 192.427 50.1935C192.427 55.6935 188.527 59.9935 183.327 59.9935C179.927 59.9935 177.927 58.7935 176.327 56.9935V69.3935H172.227V40.5935ZM188.427 50.0935C188.427 46.4935 185.827 43.7935 182.427 43.7935C179.027 43.7935 176.327 46.4935 176.327 50.0935C176.327 53.6935 178.927 56.3935 182.427 56.3935C185.827 56.3935 188.427 53.6935 188.427 50.0935Z" fill="black"/>
<path d="M212.928 49.7966C212.928 50.2966 212.928 50.6966 212.928 51.1966H197.028C197.428 54.7966 200.128 56.7966 203.328 56.7966C205.728 56.7966 207.728 55.7966 209.028 54.1966L211.528 56.2966C209.728 58.7966 206.628 60.0966 203.328 60.0966C197.628 60.0966 193.328 55.6966 193.328 50.0966C193.328 44.3966 197.628 39.9966 203.328 39.9966C208.828 39.9966 212.828 43.7966 212.928 49.7966ZM197.128 48.4966H209.328C208.628 45.0966 206.428 43.1966 203.228 43.1966C200.028 43.1966 197.628 45.2966 197.128 48.4966Z" fill="black"/>
<path d="M218.627 30.6997H214.727V59.6998H218.627V30.6997Z" fill="black"/>
<path d="M102.93 32.7935V40.0935L88.6297 48.2935L81.4297 44.1935V36.9935L88.6297 41.0935L102.93 32.7935Z" fill="black"/>
<path d="M110.033 44.1919V51.3919L95.7328 59.6919L88.6328 55.4919V48.2919L95.7328 52.4919L110.033 44.1919Z" fill="black"/>
</g>
</g>
<defs>
<clipPath id="clip0_298_10236">
<rect width="138" height="40" fill="white" transform="translate(81.4297 30)"/>
</clipPath>
</defs>
</svg>
