<svg width="300" height="100" viewBox="0 0 300 100" fill="none" xmlns="http://www.w3.org/2000/svg">
<rect width="300" height="100" fill="white"/>
<g clip-path="url(#clip0_297_8956)">
<path d="M189.729 69.7031V61.7625H191.096V65.7552L194.798 61.7625H196.476L193.241 65.1771L196.621 69.7031H194.964L192.307 66.1298L191.095 67.4001V69.7031H189.729ZM104.395 69.7031H103.033V61.0474H106.335C108.294 61.0474 109.514 62.1819 109.514 63.894V63.9189C109.514 65.8237 108.021 66.828 106.164 66.828H104.395V69.7031ZM104.395 62.3031V65.5849H106.212C107.377 65.5849 108.127 64.9146 108.127 63.9565V63.9316C108.127 62.8583 107.361 62.3031 106.212 62.3031H104.395ZM110.902 69.7031V61.7625H114.371C115.35 61.7625 116.116 62.0577 116.617 62.5565C117.028 62.9874 117.262 63.5777 117.262 64.2692C117.262 65.5965 116.495 66.3789 115.405 66.6965L117.507 69.7025H115.895L113.982 66.9346H112.27V69.7025L110.902 69.7031ZM112.27 65.6989H114.271C115.25 65.6989 115.872 65.1771 115.872 64.3716C115.872 63.4983 115.271 63.0328 114.26 63.0328H112.27V65.6989ZM122.541 69.8395C120.15 69.8395 118.483 67.9904 118.483 65.7558C118.483 63.4989 120.173 61.6268 122.563 61.6268C124.953 61.6268 126.621 63.4758 126.621 65.7104C126.621 67.9674 124.931 69.8395 122.541 69.8395ZM122.563 68.5577C124.108 68.5577 125.187 67.2983 125.187 65.7552C125.187 64.1898 124.086 62.908 122.541 62.908C120.995 62.908 119.917 64.1668 119.917 65.7098C119.918 67.2752 121.018 68.5577 122.563 68.5577ZM130.733 69.7601L127.498 61.7625H129.01L131.355 67.8655L133.69 61.7625H135.168L131.933 69.7601H130.733ZM136.47 69.7031V61.7625H137.837V69.7031H136.47ZM139.804 69.7031V61.7625H142.705C145.151 61.7625 146.841 63.4752 146.841 65.7098C146.841 67.9674 145.151 69.7031 142.705 69.7031H139.804ZM141.171 68.4328H142.705C144.339 68.4328 145.407 67.3098 145.407 65.7558C145.407 64.1789 144.339 63.0334 142.705 63.0334H141.171V68.4328ZM151.577 69.828C149.554 69.828 148.264 68.6371 148.264 66.334V61.7625H149.631V66.2771C149.631 67.7516 150.376 68.5455 151.599 68.5455C152.811 68.5455 153.556 67.7971 153.556 66.3334V61.7619H154.923V66.2655C154.923 68.6371 153.611 69.828 151.577 69.828ZM159.413 69.8165C158.224 69.8165 157.101 69.3965 156.167 68.5462L156.99 67.548C157.735 68.2055 158.479 68.5801 159.447 68.5801C160.291 68.5801 160.825 68.1831 160.825 67.5819C160.825 66.9922 160.515 66.6855 159.069 66.3455C157.413 65.9371 156.479 65.4383 156.479 63.9746C156.479 62.5904 157.59 61.6492 159.136 61.6492C160.27 61.6492 161.17 62.0007 161.959 62.6474L161.226 63.7019C160.525 63.1686 159.825 62.8855 159.114 62.8855C158.313 62.8855 157.847 63.3055 157.847 63.8268C157.847 64.4619 158.202 64.7346 159.692 65.0971C161.338 65.5055 162.193 66.1068 162.193 67.4225C162.193 68.9316 161.047 69.8165 159.413 69.8165ZM167.749 69.7007H163.861V61.1152H167.627C168.592 61.1152 169.341 61.3862 169.813 61.8674C170.178 62.2401 170.367 62.6958 170.367 63.2643V63.2892C170.367 64.2977 169.856 64.8146 169.04 65.2474C170.087 65.6122 170.843 66.1092 170.843 67.3534V67.3783C170.843 68.8777 169.638 69.7007 167.749 69.7007ZM165.199 62.3334V64.7922H167.321C168.299 64.7922 169.004 64.3952 169.004 63.5377V63.5128C169.004 62.771 168.415 62.3334 167.432 62.3334H165.199ZM165.199 65.9486V68.4819H167.761C168.802 68.4819 169.481 68.0595 169.481 67.2152V67.1904C169.481 66.394 168.849 65.9486 167.652 65.9486H165.199ZM171.722 69.7031L175.146 61.7055H176.413L179.838 69.7031H178.393L177.604 67.7862H173.924L173.124 69.7031H171.722ZM174.424 66.5498H177.103L175.758 63.3734L174.424 66.5498ZM181.058 69.7031V61.7625H182.326L186.494 67.2528V61.7625H187.839V69.7031H186.695L182.403 64.054V69.7031H181.058Z" fill="#2E434E"/>
<path fill-rule="evenodd" clip-rule="evenodd" d="M138.802 37.7701L140.684 34.5107H159.017L159.488 35.3246L160.899 37.7701H138.802ZM141.404 33.2634L143.288 30.001H156.413L158.297 33.2634H141.404ZM156.414 51.2961H145.691C145.484 51.2961 145.309 51.4034 145.214 51.5634L143.908 53.8259H140.182L143.255 48.5028C143.394 48.261 143.769 48.0652 144.091 48.0652L158.277 48.0689L156.414 51.2961ZM160.887 43.5482L158.997 46.8222H143.054C142.851 46.8222 142.681 46.9228 142.584 47.0749L141.296 49.3052H137.57L140.643 43.9828C140.782 43.741 141.157 43.5452 141.479 43.5452L160.887 43.5482ZM140.421 42.3016C140.221 42.3016 140.047 42.4089 139.951 42.5689L138.679 44.7731H134.953L138.025 39.4513C138.165 39.2095 138.539 39.0131 138.861 39.0131L161.619 39.018L162.561 40.6489L161.607 42.301H140.44L140.421 42.3016Z" fill="#FDB813"/>
</g>
<defs>
<clipPath id="clip0_297_8956">
<rect width="93.9394" height="40" fill="white" transform="translate(103.03 30)"/>
</clipPath>
</defs>
</svg>
