<svg width="300" height="100" viewBox="0 0 300 100" fill="none" xmlns="http://www.w3.org/2000/svg">
<rect width="300" height="100" fill="white"/>
<g clip-path="url(#clip0_298_10217)">
<path d="M236.342 61.5787H241.932C242.096 61.5787 242.361 61.6822 242.404 61.8029C243.036 63.4843 244.376 64.1195 246.025 64.223C248.612 64.3868 250.216 63.0273 250.48 60.3399C250.607 59.0494 250.503 57.7388 250.503 56.4857C249.98 57.081 249.418 57.6417 248.822 58.1642C246.218 60.1761 242.24 60.1071 239.564 58.0205C237.414 56.3448 236.29 54.0713 235.802 51.453C235.247 48.4782 235.44 45.5638 236.633 42.7557C238.098 39.3067 241.159 37.2746 244.732 37.4011C246.709 37.4729 248.874 38.1886 250.523 40.6403V37.7374H256.723V59.0494C256.756 60.7014 256.491 62.3458 255.941 63.9039C254.657 67.3529 252.173 69.316 248.569 69.842C246.103 70.2013 243.683 69.9799 241.384 68.9136C238.455 67.5513 236.828 65.2031 236.334 62.0357C236.321 61.9519 236.313 61.8675 236.311 61.7828C236.317 61.7142 236.328 61.6461 236.342 61.5787ZM250.673 48.5041C250.538 47.6723 250.352 46.8497 250.115 46.0409C249.572 44.5089 248.489 43.4915 246.85 43.2357C246.109 43.0939 245.343 43.1668 244.642 43.4458C243.94 43.7249 243.334 44.1984 242.892 44.8107C241.386 46.7537 241.415 50.2717 242.924 52.2261C243.306 52.7399 243.803 53.1563 244.376 53.4416C244.949 53.7269 245.581 53.8729 246.221 53.8679C246.861 53.8629 247.491 53.7069 248.059 53.4126C248.627 53.1183 249.118 52.6941 249.492 52.1744C250.291 51.0966 250.564 49.8607 250.67 48.5041H250.673Z" fill="#FD9002"/>
<path d="M178.632 69.9311H172.536V56.9743C172.392 57.1094 172.32 57.164 172.248 57.233C169.569 60.498 165.117 60.5641 162.117 58.5694C159.737 56.9858 158.38 54.7065 157.805 51.9588C157.067 48.4581 157.414 45.0924 159.332 41.994C161.571 38.3783 165.842 36.8579 169.581 38.3093C170.728 38.7554 171.733 39.5032 172.49 40.4736V38.0334H178.617L178.632 69.9311ZM163.738 48.7915C163.69 49.8622 163.931 50.926 164.433 51.8726C165.198 53.2465 166.347 54.0714 167.937 54.1432C168.697 54.2024 169.458 54.0349 170.123 53.662C170.788 53.289 171.327 52.7274 171.673 52.0479C172.855 49.9009 172.872 47.6648 171.636 45.5408C170.233 43.1322 167.1 42.8161 165.158 44.8165C164.103 45.9259 163.758 47.3055 163.741 48.7915H163.738Z" fill="#01223A"/>
<path d="M133.581 59.6128H127.451V56.7386C126.826 57.6156 126.035 58.3616 125.123 58.9345C121.961 60.797 117.704 60.0353 115.213 57.1784C113.626 55.359 112.841 53.2005 112.542 50.8552C112.191 48.4554 112.442 46.0059 113.272 43.7272C114.422 40.7381 116.362 38.5537 119.596 37.9012C122.685 37.2775 125.304 38.157 127.258 40.7266C127.284 40.761 127.319 40.7927 127.422 40.899V30.9917H133.581V59.6128ZM127.448 48.8145L127.592 48.7771C127.362 47.866 127.241 46.906 126.876 46.0495C126.198 44.4515 124.939 43.5346 123.157 43.5001C122.36 43.4532 121.567 43.6521 120.887 44.07C120.206 44.4879 119.67 45.1046 119.351 45.8369C118.86 46.7941 118.613 47.8583 118.634 48.9343C118.654 50.0102 118.941 51.0642 119.469 52.002C119.775 52.5782 120.215 53.0728 120.751 53.4445C121.288 53.8162 121.905 54.0542 122.552 54.1386C123.199 54.223 123.857 54.1514 124.471 53.9297C125.084 53.708 125.636 53.3427 126.08 52.8642C127.115 51.7117 127.448 50.3177 127.448 48.8145Z" fill="#02233B"/>
<path d="M227.952 40.6114V30.7041H234.063V59.3051H227.964V56.4137C227.473 57.0011 226.945 57.556 226.383 58.0749C223.673 60.2852 219.485 60.1558 216.68 57.8134C214.725 56.178 213.668 54.0223 213.211 51.5707C212.601 48.2826 212.785 45.052 214.395 42.0456C216.004 39.0392 218.542 37.3435 222.02 37.4211C223.132 37.419 224.228 37.6827 225.217 38.1901C226.205 38.6976 227.059 39.4342 227.705 40.3384C227.757 40.4016 227.814 40.4591 227.952 40.6114ZM219.175 48.4665L219.037 48.5068C219.264 49.4208 219.379 50.3808 219.741 51.2373C220.402 52.8037 221.609 53.7694 223.371 53.8499C225.196 53.9332 226.533 53.071 227.303 51.4672C227.74 50.5967 227.978 49.6396 227.999 48.6656C228.02 47.6915 227.823 46.7251 227.424 45.8367C226.222 43.043 222.937 42.2842 220.776 44.2674C219.557 45.3826 219.186 46.8656 219.175 48.4665Z" fill="#FD9002"/>
<path d="M58.3267 59.6157V32.4719C58.3799 32.454 58.4348 32.4415 58.4905 32.4346C61.8935 32.4346 65.2937 32.4346 68.6967 32.4576C70.4908 32.4291 72.2574 32.9008 73.7984 33.8199C76.0805 35.234 77.1928 37.3695 77.4773 39.9707C77.7015 42.0085 77.4314 43.9744 76.3823 45.7765C74.9739 48.1966 72.7694 49.4325 70.0591 49.7257C68.392 49.9067 66.6992 49.8263 65.0149 49.8607H64.44V59.6128L58.3267 59.6157ZM64.4573 44.5378C65.9174 44.5378 67.3315 44.624 68.7255 44.5119C70.1194 44.3998 70.9328 43.5289 71.1771 42.1723C71.28 41.6032 71.2974 41.022 71.2289 40.4478C71.0449 38.9618 70.243 38.0708 68.7628 37.8898C67.5384 37.7403 66.2881 37.8122 65.0494 37.7863H64.4573V44.5378Z" fill="#01223A"/>
<path d="M198.71 50.1191C198.71 52.907 200.872 54.7178 203.413 54.1429C203.84 54.0575 204.242 53.8773 204.59 53.6156C204.938 53.354 205.224 53.0176 205.424 52.6311C205.492 52.4732 205.61 52.3418 205.759 52.2572C205.909 52.1725 206.082 52.1393 206.252 52.1626C208.037 52.1828 209.825 52.1626 211.61 52.1626H212.21C211.956 53.4358 211.422 54.6366 210.647 55.6778C208.408 58.6784 205.358 59.8741 201.688 59.5694C198.342 59.282 195.756 57.7271 194.074 54.7954C192.726 52.4443 192.402 49.8662 192.608 47.2047C192.716 45.2094 193.344 43.2771 194.431 41.6C196.23 38.9213 198.814 37.6049 201.981 37.4152C204.786 37.2456 207.344 37.9412 209.454 39.8841C211.288 41.5684 212.239 43.7212 212.535 46.1498C212.673 47.2995 212.61 48.4492 212.642 49.5989C212.642 49.9869 212.495 50.1076 212.095 50.1076C207.845 50.0932 203.591 50.1076 199.34 50.1076L198.71 50.1191ZM206.382 46.3827C206.41 44.1408 204.717 42.606 202.384 42.7066C200.443 42.7899 198.647 44.6237 198.814 46.3827H206.382ZM278.159 50.1191H264.362C264.247 51.6941 265.245 53.5422 266.817 54.0538C268.542 54.6287 270.183 54.0538 271.105 52.5449C271.154 52.4571 271.221 52.3803 271.301 52.3195C271.381 52.2587 271.473 52.215 271.571 52.1914C273.583 52.1684 275.595 52.177 277.592 52.1914C277.668 52.2007 277.743 52.2171 277.816 52.2402C277.417 54.0484 276.487 55.6965 275.146 56.974C272.272 59.6528 268.863 60.2448 265.193 59.1958C261.523 58.1467 259.367 55.4593 258.525 51.7832C257.878 48.9579 257.982 46.1326 259.1 43.4251C260.678 39.6139 263.63 37.6767 267.691 37.4353C270.438 37.2715 272.948 37.9814 275.029 39.8726C276.77 41.4563 277.704 43.4797 278.101 45.7704C278.351 47.2078 278.37 48.6757 278.159 50.1191ZM264.334 46.3827H271.939C272.094 44.5231 270.634 42.9135 268.651 42.7267C266.386 42.5111 264.555 44.0517 264.334 46.3827Z" fill="#FD9003"/>
<path d="M112.198 48.9095C112.14 51.8354 111.393 54.5285 109.364 56.7244C107.171 59.0984 104.368 60.0699 101.195 59.9348C97.7979 59.7911 95.0329 58.3828 93.1474 55.4942C91.7362 53.3472 91.2677 50.9271 91.3396 48.395C91.4086 46.0036 91.9863 43.7474 93.432 41.8016C95.717 38.7233 98.8757 37.4903 102.612 37.7519C106.423 38.022 109.289 39.8644 111.019 43.3307C111.873 45.081 112.169 46.9665 112.198 48.9095ZM106.012 48.8319C105.908 48.011 105.754 47.1971 105.552 46.3945C104.978 44.5522 103.54 43.4571 101.784 43.437C100.028 43.4169 98.5825 44.4602 97.9847 46.2767C97.3624 48.0609 97.4125 50.0108 98.1255 51.7606C98.7435 53.2753 99.8989 54.1606 101.575 54.2066C103.25 54.2526 104.449 53.4823 105.222 52.0452C105.742 51.0507 105.917 49.9671 106.004 48.829L106.012 48.8319Z" fill="#01223B"/>
<path d="M149.924 38.0391H156.063V59.5954H149.93V56.7586C149.777 56.9253 149.723 56.9799 149.677 57.046C147.803 59.4057 145.325 60.2076 142.425 59.7449C139.646 59.2994 137.778 57.6209 136.846 55.0341C136.414 53.8733 136.172 52.6505 136.128 51.4126C136.044 46.9749 136.093 42.5343 136.093 38.0563H142.201V49.7082C142.157 50.6618 142.354 51.611 142.776 52.4675C143.52 53.8499 144.972 54.534 146.607 54.3012C148.243 54.0684 149.395 53.0308 149.74 51.335C149.851 50.767 149.906 50.1894 149.904 49.6105V38.6369L149.924 38.0391Z" fill="#02233B"/>
<path d="M22 49.4383L23.5061 48.1362L22.0115 46.8371L23.3221 45.6874L22.0029 44.5378L39.1071 29.9829L56.2171 44.5406L54.895 45.6903L56.2085 46.84L54.714 48.1362L56.22 49.4383L39.1158 63.9931L22 49.4383ZM26.4205 46.9866L39.1129 57.7849L51.7995 46.9866L39.11 36.1883L26.4205 46.9866ZM39.1071 62.6595L54.6622 49.4239L53.9149 48.7944L39.1129 61.3891L24.3051 48.8031L23.5549 49.4354L39.1071 62.6595ZM39.1071 34.8661L52.5727 46.3198L53.3315 45.6961L39.11 33.5958L24.8914 45.7076L25.656 46.3226L39.1071 34.8661ZM24.124 45.035L39.11 32.2851L54.1046 45.0408L54.6651 44.5608L39.11 31.3252L23.5549 44.5636L24.124 45.035ZM25.0782 48.1362L39.1129 60.0756L53.1418 48.1362L52.5669 47.6649L39.11 59.1156L25.6473 47.6649L25.0782 48.1362ZM24.8627 46.9866L24.1125 46.3543L23.5636 46.8342L24.308 47.4608L24.8627 46.9866ZM54.6651 46.8342L54.0903 46.3485L53.3545 46.9952L53.9149 47.4608L54.6651 46.8342Z" fill="#194584"/>
<path d="M188.43 38.0018H192.419V43.5231H188.447V52.0364C188.447 53.5684 188.915 54.0282 190.459 54.0282H192.471V59.7306C190.709 59.6358 188.967 59.6616 187.263 59.4202C184.731 59.0581 183.041 57.2933 182.555 54.718C182.395 53.8649 182.309 52.9993 182.299 52.1313C182.268 49.4612 182.299 46.791 182.299 44.1209V43.5461H179.888V38.0334H182.293V32.7852H188.444L188.43 38.0018Z" fill="#03233C"/>
<path d="M78.9663 38.0247H85.0998V41.3875C86.6864 39.2692 88.6034 37.8522 91.354 37.7861V44.8049C90.8137 44.8049 90.259 44.7675 89.71 44.8049C88.9661 44.8277 88.2268 44.9318 87.5055 45.1153C85.8442 45.6413 85.2694 47.0036 85.163 48.5902C85.0797 49.8433 85.1084 51.1051 85.1027 52.364V59.6041H78.9663V38.0247Z" fill="#02233C"/>
</g>
<defs>
<clipPath id="clip0_298_10217">
<rect width="256.299" height="40" fill="white" transform="translate(22 30)"/>
</clipPath>
</defs>
</svg>
