<svg width="300" height="100" viewBox="0 0 300 100" fill="none" xmlns="http://www.w3.org/2000/svg">
<rect width="300" height="100" fill="white"/>
<path d="M140.089 41.3327L156.609 56.0564V37.0669C157.871 38.1317 158.942 39.0133 160 39.9289C160.149 40.1016 160.227 40.3247 160.217 40.5528C160.217 48.1305 160.217 55.7059 160.217 63.2792C160.201 63.4508 160.172 63.6208 160.129 63.7878L143.724 49.1117C143.724 49.5118 143.676 49.7898 143.676 50.034C143.676 54.2931 143.676 58.5521 143.676 62.818C143.676 63.4962 143.459 63.7403 142.767 63.6997C141.899 63.6454 141.031 63.6997 140.055 63.6997L140.089 41.3327Z" fill="#FF0000"/>
<path d="M180.685 63.2319V43.4963C180.685 42.418 180.685 42.418 181.81 42.418H184.558V49.9256H195.205C195.205 49.6679 195.239 49.3898 195.239 49.1118C195.239 47.1179 195.239 45.1172 195.239 43.1166C195.239 42.5536 195.422 42.3841 195.971 42.4044C196.995 42.4383 198.006 42.4044 199.139 42.4044C199.139 42.7028 199.179 42.9538 199.179 43.2047C199.179 49.5729 199.179 55.9345 199.179 62.3027C199.179 62.9809 198.982 63.2386 198.284 63.2047C197.314 63.1573 196.337 63.2047 195.279 63.2047C195.279 62.8724 195.239 62.5943 195.239 62.3162C195.239 59.5018 195.239 56.694 195.239 53.8795C195.239 53.3912 195.137 53.1606 194.561 53.1674C191.366 53.1674 188.172 53.1674 184.978 53.1674C184.85 53.1772 184.723 53.1954 184.598 53.2216C184.598 53.5133 184.558 53.7914 184.558 54.0694C184.558 56.8568 184.558 59.6442 184.558 62.4315C184.558 63.0284 184.354 63.2183 183.777 63.198C182.828 63.1776 181.804 63.2319 180.685 63.2319Z" fill="#FF0000"/>
<path d="M138.617 42.4176C138.617 42.6821 138.664 42.8652 138.664 43.0415C138.664 47.3549 138.664 51.6682 138.664 55.9883C138.664 60.3084 135.999 63.0483 131.713 63.5502C129.829 63.8003 127.917 63.7476 126.05 63.3942C122.408 62.6278 120.21 60.1118 120.129 56.4495C120.054 52.0005 120.129 47.5516 120.088 43.1094C120.088 42.5871 120.271 42.4312 120.767 42.4312C121.791 42.4651 122.801 42.4312 123.94 42.4312V43.4349C123.94 47.1989 123.94 50.9629 123.94 54.7269C123.949 55.4574 124.036 56.1848 124.198 56.8971C124.386 57.8911 124.918 58.7872 125.7 59.4283C126.483 60.0694 127.466 60.4146 128.478 60.4034C129.268 60.4737 130.065 60.4555 130.851 60.3491C131.958 60.2243 132.975 59.6803 133.692 58.8287C134.41 57.9772 134.774 56.8831 134.71 55.7713C134.758 51.641 134.751 47.5109 134.71 43.3807C134.71 42.6346 134.88 42.3362 135.666 42.3905C136.629 42.4651 137.579 42.4176 138.617 42.4176Z" fill="#FF0000"/>
<path d="M179.81 47.7483C179.389 47.4703 179.132 47.2736 178.84 47.0701C175.449 44.9338 171.882 44.3574 168.24 46.392C166.932 47.189 165.905 48.3753 165.304 49.7848C164.704 51.1943 164.559 52.7563 164.89 54.2522C165.141 55.755 165.854 57.142 166.932 58.2193C168.009 59.2966 169.396 60.0104 170.899 60.261C172.318 60.501 173.772 60.4492 175.172 60.1088C176.571 59.7683 177.886 59.1463 179.037 58.2807C179.261 58.1247 179.491 57.9823 179.857 57.7449C179.857 59.1013 179.857 60.2746 179.857 61.4411C179.857 61.6649 179.505 61.9294 179.254 62.0786C176.849 63.4353 174.074 63.9889 171.333 63.6588C168.379 63.5226 165.589 62.2635 163.534 60.139C158.237 54.5642 160.556 45.3746 167.949 42.7636C169.821 42.0565 171.827 41.7761 173.822 41.9427C175.816 42.1093 177.749 42.7188 179.478 43.7266C179.671 43.8019 179.831 43.9417 179.933 44.1223C180.034 44.3028 180.07 44.5129 180.034 44.7168C179.932 45.6527 179.892 46.5954 179.81 47.7483Z" fill="#FF0000"/>
<path d="M109.644 54.0082V61.1971C109.644 63.2317 109.644 63.2317 107.61 63.2317H105.982C105.982 62.8654 105.935 62.5534 105.935 62.3025C105.935 56.0224 105.935 49.7355 105.935 43.4487C105.935 42.6687 106.118 42.3907 106.945 42.4246C109.393 42.5195 111.848 42.4992 114.297 42.5941C115.645 42.581 116.946 43.0957 117.92 44.0283C118.895 44.9609 119.466 46.2376 119.512 47.5856C119.654 51.153 117.993 53.3774 114.765 53.764C113.089 53.9336 111.421 53.92 109.644 54.0082ZM109.855 51.0919C111.15 50.9834 112.405 50.9427 113.639 50.7664C114.873 50.5901 115.334 49.9661 115.497 48.7318C115.598 48.2067 115.533 47.6632 115.31 47.1769C115.088 46.6907 114.719 46.2859 114.256 46.019C112.848 45.5099 111.334 45.3652 109.855 45.5985V51.0919Z" fill="#FF0000"/>
<path d="M140.095 36.2393H116.074V39.949H140.095V36.2393Z" fill="#FCC90F"/>
<path d="M146.382 36.2393H140.088V39.949H146.382V36.2393Z" fill="#EBE80A"/>
<path d="M155.476 36.2393H146.389V39.949H155.476V36.2393Z" fill="#FFFF00"/>
<path d="M164.978 36.2393H161.268V39.949H164.978V36.2393Z" fill="#FFCF00"/>
<path d="M168.688 36.2393H164.978V39.949H168.688V36.2393Z" fill="#FFFF00"/>
<path d="M199.206 36.2393H194.567V39.949H199.206V36.2393Z" fill="#94CF00"/>
<path d="M194.567 36.2393H168.688V39.949H194.567V36.2393Z" fill="#E0FF19"/>
<path d="M116.074 36.2393H105.908V39.949H116.074V36.2393Z" fill="#FA450D"/>
</svg>
