<svg width="300" height="100" viewBox="0 0 300 100" fill="none" xmlns="http://www.w3.org/2000/svg">
<rect width="300" height="100" fill="white"/>
<path d="M144.053 65.9263C144.768 65.9263 145.242 65.6526 145.337 65.1157C145.411 64.6947 145.211 64.3894 144.568 63.9368L143.884 63.442C143.2 62.9473 142.926 62.6736 142.737 62.3473C142.558 62.0105 142.484 61.642 142.568 61.1578C142.811 59.6841 144 58.7263 145.611 58.7157C146.158 58.7052 146.695 58.7894 147.211 58.9473C147.663 59.1052 147.916 59.3263 147.884 59.7894C147.863 60.0841 147.579 60.5263 147.274 60.5263C146.8 60.5263 146.358 60.1368 145.611 60.0947C145 60.0736 144.621 60.3157 144.484 60.7473C144.389 61.0526 144.474 61.3999 144.811 61.642L146.2 62.6736C147.032 63.2526 147.379 63.9052 147.221 64.8526C146.968 66.3894 145.684 67.3368 143.874 67.3368H143.863C143.305 67.3473 142.747 67.2631 142.211 67.1052C141.747 66.9473 141.484 66.7157 141.516 66.2315C141.537 65.9157 141.747 65.4631 142.147 65.4631C142.632 65.4631 143.326 65.9052 143.863 65.9052L144.053 65.9263Z" fill="#717073"/>
<path d="M150.347 65.9263C151.063 65.9263 151.537 65.6526 151.632 65.1157C151.695 64.6947 151.505 64.3894 150.863 63.9368L150.179 63.442C149.495 62.9473 149.221 62.6736 149.032 62.3473C148.842 62.0105 148.779 61.642 148.863 61.1578C149.105 59.6841 150.295 58.7263 151.905 58.7157C152.453 58.7052 152.989 58.7894 153.505 58.9473C153.958 59.1052 154.211 59.3263 154.179 59.7894C154.158 60.0841 153.874 60.5263 153.568 60.5263C153.095 60.5263 152.653 60.1368 151.905 60.0947C151.305 60.0736 150.916 60.3157 150.779 60.7473C150.684 61.0526 150.768 61.3999 151.105 61.642L152.495 62.6736C153.326 63.2526 153.674 63.9052 153.516 64.8526C153.263 66.3894 151.979 67.3368 150.168 67.3368H150.158C149.6 67.3473 149.042 67.2631 148.505 67.1052C148.042 66.9473 147.779 66.7157 147.811 66.2315C147.832 65.9157 148.042 65.4631 148.442 65.4631C148.926 65.4631 149.621 65.9052 150.158 65.9052L150.347 65.9263Z" fill="#717073"/>
<path d="M172.221 65.9263C172.937 65.9263 173.411 65.6526 173.505 65.1157C173.568 64.6947 173.379 64.3894 172.737 63.9368L172.053 63.442C171.368 62.9473 171.095 62.6736 170.905 62.3473C170.716 62.0105 170.653 61.642 170.737 61.1578C170.979 59.6841 172.168 58.7263 173.779 58.7157C174.326 58.7052 174.863 58.7894 175.379 58.9473C175.832 59.1052 176.084 59.3263 176.053 59.7894C176.032 60.0841 175.747 60.5263 175.442 60.5263C174.968 60.5263 174.526 60.1368 173.779 60.0947C173.168 60.0736 172.789 60.3157 172.653 60.7473C172.558 61.0526 172.642 61.3999 172.979 61.642L174.368 62.6736C175.2 63.2526 175.547 63.9052 175.389 64.8526C175.137 66.3894 173.853 67.3368 172.042 67.3368H172.032C171.474 67.3473 170.916 67.2631 170.379 67.1052C169.916 66.9473 169.653 66.7157 169.684 66.2315C169.705 65.9157 169.916 65.4631 170.316 65.4631C170.8 65.4631 171.495 65.9052 172.032 65.9052L172.221 65.9263Z" fill="#717073"/>
<path d="M140.874 64.4104C140.568 66.3052 139.4 67.442 137.253 67.4525H136.958C134.937 67.4631 134.126 66.3368 134.432 64.442L135.2 59.7262C135.316 59.2104 135.789 58.8525 136.316 58.8736C137.379 58.8631 137.232 59.7157 137.232 59.7157L136.305 65.3157C136.242 65.8315 136.389 66.3894 137.232 66.3894C138.074 66.3894 138.568 65.9894 138.695 65.3052L139.621 59.7052C139.621 59.7052 139.684 58.8525 140.8 58.8525C141.737 58.8525 141.642 59.7052 141.642 59.7052L140.874 64.4104Z" fill="#717073"/>
<path d="M162.884 61.7683C163.189 59.8735 164.358 58.7367 166.505 58.7261H166.8C168.821 58.7156 169.632 59.8419 169.326 61.7367L168.558 66.4525C168.442 66.9683 167.968 67.3261 167.442 67.3156C166.379 67.3156 166.526 66.463 166.526 66.463L167.453 60.863C167.516 60.3472 167.368 59.7893 166.526 59.7893C165.684 59.7893 165.189 60.1893 165.063 60.8735L164.137 66.4735C164.137 66.4735 164.074 67.3261 162.958 67.3261C162.021 67.3261 162.116 66.484 162.116 66.484L162.884 61.7683Z" fill="#717073"/>
<path d="M159.821 60.9052L159.105 65.221C158.979 65.9052 158.389 66.3052 157.547 66.3052C156.705 66.3052 156.453 65.7473 156.516 65.2315L157.232 60.9158C157.358 60.2315 157.947 59.8421 158.789 59.8315C159.632 59.821 159.884 60.3894 159.821 60.9052ZM159.168 58.7684H158.674C156.526 58.7789 155.368 59.9158 155.053 61.8105L154.642 64.3579C154.337 66.2526 155.147 67.3789 157.168 67.3684H157.663C159.81 67.3579 160.968 66.221 161.284 64.3368L161.695 61.7894C162 59.8842 161.179 58.7579 159.168 58.7684Z" fill="#717073"/>
<path d="M127.947 67.2946C130.6 67.7894 133.074 66.2736 133.358 65.7157C133.6 65.2525 133.379 64.5367 132.695 64.5999C131.968 64.663 130.6 66.1894 128.4 65.7788C126.2 65.3683 125.526 63.0841 126.337 60.7999C126.895 59.242 128.442 57.5683 130.411 57.4315C131.337 57.3788 132.263 57.5578 133.105 57.9367C133.821 58.242 134.242 57.9157 134.421 57.4209C134.811 56.3472 132.011 55.863 130.842 55.863C128.158 55.863 125.432 57.2946 124.326 60.3999C123.221 63.4946 124.6 66.6736 127.947 67.2946Z" fill="#717073"/>
<path d="M159.2 43.1683C159.095 42.8841 158.821 42.7052 158.516 42.7157H153.158C152.779 42.7157 152.474 43.021 152.474 43.3999C152.474 43.7789 152.779 44.0841 153.158 44.0841H156.453C156.621 44.0841 156.663 44.2104 156.579 44.3262C156.495 44.442 151.6 50.8841 151.6 50.8841C151.495 51.0104 151.421 51.1578 151.389 51.3262C151.358 51.4631 151.368 51.6104 151.421 51.7473C151.526 52.0315 151.8 52.2104 152.105 52.1999H157.495C157.874 52.1999 158.179 51.8946 158.179 51.5157C158.179 51.1368 157.874 50.8315 157.495 50.8315H154.179C154.011 50.8315 153.968 50.6841 154.063 50.5368C154.158 50.3999 159 44.0315 159 44.0315C159.105 43.9052 159.179 43.7578 159.211 43.5894C159.263 43.4525 159.253 43.3157 159.2 43.1683ZM171.421 31.5789L167.579 55.221C165.463 54.5894 163.284 54.1578 161.084 53.9473C159.4 53.7578 157.705 53.6525 156.011 53.642C151.274 53.5789 147.853 54.4736 144.442 54.821L145.368 50.1894C145.389 50.1157 145.474 50.0631 145.547 50.0841C145.558 50.0841 145.579 50.0946 145.589 50.1052C145.958 50.2525 146.358 50.3368 146.768 50.3262C148.253 50.3262 149.105 50.1262 149.968 49.5052C151.589 48.3368 153.726 42.5262 147.695 42.5262H146.474C145.042 42.5262 144.674 43.2946 144.389 44.5999L142.358 54.9683C137.621 54.9683 134.737 54.0946 133.811 53.5052L137.558 31.5789H171.421ZM146.926 48.6631C146.189 48.6525 145.674 48.5683 145.8 47.8736C145.874 47.4841 146.263 45.421 146.421 44.6841C146.505 44.2525 146.789 43.9683 147.347 43.9683C147.989 43.9683 147.358 43.9683 148.095 43.9683C149.653 43.9683 149.895 45.0315 149.632 46.4315C149.295 48.1368 148.4 48.6736 146.926 48.6631Z" fill="#E31837"/>
</svg>
