<svg width="300" height="100" viewBox="0 0 300 100" fill="none" xmlns="http://www.w3.org/2000/svg">
<rect width="300" height="100" fill="white"/>
<g clip-path="url(#clip0_298_10206)">
<path fill-rule="evenodd" clip-rule="evenodd" d="M204.759 69.8252C203.409 69.4643 215.54 54.3185 213.517 48.186C212.508 44.9431 202.402 45.3041 202.402 44.22C202.402 43.1373 221.95 40.258 223.792 42.9588C226.664 46.7516 206.444 70.547 204.759 69.8252ZM228.339 34.8451C228.339 37.4366 226.38 39.5327 223.96 39.5327C221.543 39.5327 219.581 37.4366 219.581 34.8451C219.581 32.255 221.543 30.1587 223.96 30.1587C226.38 30.1587 228.339 32.255 228.339 34.8451Z" fill="#ED342B"/>
<path fill-rule="evenodd" clip-rule="evenodd" d="M81.2516 47.1868C78.4747 47.1868 76.2232 49.4379 76.2232 52.2152C76.2232 54.992 78.4747 57.2431 81.2516 57.2431C84.0284 57.2431 86.2799 54.992 86.2799 52.2152C86.2799 49.4379 84.0284 47.1868 81.2516 47.1868ZM87.7011 61.2151L85.9328 59.446C84.5847 60.3208 82.9779 60.8302 81.2516 60.8302C76.4933 60.8302 72.6359 56.9732 72.6359 52.2152C72.6359 47.4565 76.4933 43.5995 81.2516 43.5995C86.0096 43.5995 89.867 47.4565 89.867 52.2152C89.867 53.9972 89.3255 55.6534 88.3983 57.0278L90.5363 59.1659L87.7011 61.2151ZM197.078 50.7264L197.594 47.9748C197.594 47.9748 193.609 46.7654 190.371 49.0066V60.0134H193.81L193.81 51.0705C195.186 50.0383 197.078 50.7264 197.078 50.7264ZM111.694 53.9445C111.694 53.0671 111.836 52.24 112.12 51.4629C112.406 50.6859 112.817 50.0088 113.356 49.4316C113.894 48.8541 114.548 48.3964 115.318 48.0577C116.087 47.7195 116.965 47.5497 117.95 47.5497C118.596 47.5497 119.189 47.6076 119.727 47.723C120.266 47.8384 120.79 48.0037 121.297 48.2196L120.582 50.9667C120.258 50.8433 119.904 50.7354 119.52 50.6436C119.135 50.5508 118.703 50.5048 118.227 50.5048C117.211 50.5048 116.453 50.8201 115.953 51.4514C115.453 52.0827 115.203 52.9134 115.203 53.9445C115.203 55.0372 115.437 55.8837 115.907 56.4837C116.376 57.084 117.195 57.3842 118.365 57.3842C118.781 57.3842 119.227 57.346 119.704 57.2688C120.181 57.1915 120.62 57.0689 121.02 56.8995L121.505 59.7155C121.104 59.8851 120.604 60.0308 120.004 60.154C119.404 60.2774 118.742 60.3387 118.019 60.3387C116.911 60.3387 115.957 60.1734 115.157 59.8428C114.356 59.5121 113.698 59.0615 113.183 58.4923C112.666 57.9228 112.29 57.2496 112.052 56.4722C111.813 55.6951 111.694 54.8524 111.694 53.9445ZM153.468 50.0001C151.232 50.0001 151.06 52.4076 151.06 52.4076H155.875C155.875 52.4076 155.703 50.0001 153.468 50.0001ZM158.799 54.8156H151.06C151.06 54.8156 151.232 57.3958 154.672 57.3958C156.391 57.3958 158.111 56.8795 158.111 56.8795L158.455 59.6311C158.455 59.6311 156.735 60.3188 154.328 60.3188C150.888 60.3188 147.792 58.5989 147.792 53.7839C147.792 50.0001 150.2 47.5926 153.639 47.5926C158.799 47.5926 159.143 52.7517 158.799 54.8156ZM182.347 50.0001C180.111 50.0001 179.939 52.4076 179.939 52.4076H184.755C184.755 52.4076 184.583 50.0001 182.347 50.0001ZM187.679 54.8156H179.939C179.939 54.8156 180.111 57.3958 183.551 57.3958C185.271 57.3958 186.99 56.8795 186.99 56.8795L187.334 59.6311C187.334 59.6311 185.615 60.3188 183.207 60.3188C179.767 60.3188 176.672 58.5989 176.672 53.7839C176.672 50.0001 179.08 47.5926 182.519 47.5926C187.679 47.5926 188.023 52.7517 187.679 54.8156Z" fill="#003C58"/>
<path fill-rule="evenodd" clip-rule="evenodd" d="M109.05 60.0146H105.61V47.8717H109.05V60.0146Z" fill="#003C58"/>
<path fill-rule="evenodd" clip-rule="evenodd" d="M103.176 47.8736L103.182 58.8739C103.182 58.8739 101.456 60.2551 97.6726 60.2551C94.2334 60.2551 92.3417 58.5353 92.3417 54.7515V47.8732H95.781V54.7515C95.781 57.1597 96.9849 57.3313 98.0165 57.3313C99.0489 57.3313 99.7374 56.8154 99.7374 56.8154L99.7363 47.8736H103.176ZM127.375 52.2312C127.714 51.864 128.063 51.4817 128.424 51.0841C128.785 50.6864 129.135 50.2922 129.473 49.9021C129.812 49.5114 130.131 49.1405 130.431 48.7887C130.731 48.4371 130.988 48.1306 131.203 47.8702H135.294C134.477 48.8079 133.681 49.7024 132.904 50.5546C132.127 51.4067 131.277 52.2859 130.353 53.1921C130.815 53.6081 131.291 54.1056 131.785 54.6835C132.277 55.262 132.754 55.8591 133.215 56.4761C133.678 57.0927 134.101 57.7093 134.485 58.3261C134.87 58.9429 135.194 59.5052 135.455 60.0137H131.5C131.254 59.6126 130.973 59.1696 130.659 58.6831C130.344 58.1973 130.01 57.711 129.656 57.2254C129.303 56.7398 128.93 56.273 128.538 55.8254C128.147 55.3785 127.759 55.0003 127.375 54.6912V60.0137H123.935V44.8374L127.375 44.2306V52.2312ZM137.451 44.8386L140.891 44.2316V47.81H144.295V50.6727H140.891V54.9429C140.891 55.6667 141.018 56.2439 141.271 56.6742C141.525 57.1054 142.037 57.3206 142.807 57.3206C143.176 57.3206 143.557 57.286 143.95 57.2169C144.342 57.1475 144.7 57.0518 145.023 56.9281L145.507 59.6065C145.092 59.7759 144.63 59.9218 144.122 60.0452C143.615 60.1677 142.991 60.2291 142.253 60.2291C141.313 60.2291 140.537 60.1025 139.921 59.8485C139.305 59.5946 138.813 59.2406 138.444 58.7867C138.074 58.3331 137.816 57.7827 137.67 57.1361C137.524 56.4897 137.451 55.7741 137.451 54.9894V44.8386ZM166.169 60.2446C165.168 60.2295 164.357 60.1214 163.733 59.9219C163.11 59.7218 162.617 59.4406 162.257 59.0786C161.894 58.7175 161.648 58.2786 161.517 57.7629C161.386 57.2475 161.321 56.6661 161.321 56.0197V44.8372L164.761 44.2302V55.3271C164.761 55.6357 164.784 55.9123 164.83 56.1589C164.876 56.4049 164.965 56.6127 165.096 56.7818C165.226 56.9516 165.415 57.0899 165.661 57.1974C165.907 57.3054 166.239 57.3743 166.654 57.4048L166.169 60.2446ZM173.938 60.2446C172.937 60.2295 172.126 60.1214 171.502 59.9219C170.879 59.7218 170.386 59.4406 170.025 59.0786C169.663 58.7175 169.417 58.2786 169.286 57.7629C169.155 57.2475 169.09 56.6661 169.09 56.0197V44.8372L172.53 44.2302V55.3271C172.53 55.6357 172.553 55.9123 172.599 56.1589C172.645 56.4049 172.734 56.6127 172.864 56.7818C172.995 56.9516 173.184 57.0899 173.43 57.1974C173.676 57.3054 174.007 57.3743 174.423 57.4048L173.938 60.2446Z" fill="#003C58"/>
</g>
<defs>
<clipPath id="clip0_298_10206">
<rect width="155.892" height="40" fill="white" transform="translate(72.5391 30)"/>
</clipPath>
</defs>
</svg>
