<svg width="300" height="100" viewBox="0 0 300 100" fill="none" xmlns="http://www.w3.org/2000/svg">
<rect width="300" height="100" fill="white"/>
<g clip-path="url(#clip0_298_10194)">
<path fill-rule="evenodd" clip-rule="evenodd" d="M87.1839 70C98.232 70 107.188 61.0457 107.188 50C107.188 38.9543 98.232 30 87.1839 30C76.1359 30 67.1797 38.9543 67.1797 50C67.1797 61.0457 76.1359 70 87.1839 70ZM94.4033 60.4666C92.3496 61.892 89.8561 62.7273 87.1678 62.7273C80.1461 62.7273 74.454 57.0291 74.454 50C74.454 42.971 80.1461 37.2728 87.1678 37.2728C94.1894 37.2728 99.8816 42.971 99.8816 50C99.8816 51.5692 99.598 53.072 99.0792 54.4598C97.067 53.7296 94.8242 53.5112 92.7707 54.0044C93.5882 52.8638 94.0695 51.4654 94.0695 49.9545C94.0695 46.1136 90.9591 43 87.1223 43C83.2855 43 80.1751 46.1136 80.1751 49.9545C80.1751 53.7954 83.2855 56.909 87.1223 56.909C88.0067 56.909 88.8525 56.7436 89.6305 56.442C91.5772 57.5714 93.2556 59.1923 94.4033 60.4666ZM101.023 58.7406C100.116 60.173 98.9928 61.4548 97.699 62.5403C96.282 60.6709 93.4173 57.848 90.2554 56.0455C93.177 53.8557 97.7029 55.256 101.023 58.7406Z" fill="#3E2284"/>
<g opacity="0.15">
<path d="M105.539 42.0349C102.464 34.9607 95.4166 30.0113 87.212 30C78.9123 30.0114 71.7971 35.0763 68.7797 42.2822C70.596 44.0063 72.6563 45.4759 74.9035 46.6337C76.3779 41.2382 81.3103 37.2728 87.1678 37.2728C92.9801 37.2728 97.8814 41.1772 99.3973 46.5088C101.658 45.3149 103.725 43.8038 105.539 42.0349Z" fill="white"/>
<path d="M93.9479 48.6522C93.3389 45.4338 90.5145 43 87.1224 43C83.7139 43 80.8788 45.4572 80.2882 48.6986C82.4411 49.263 84.7009 49.5635 87.0308 49.5635C89.4238 49.5635 91.7427 49.2465 93.9479 48.6522Z" fill="white"/>
</g>
<path d="M127.053 39.6899C124.224 39.6899 121.898 40.659 120.076 42.5582C118.293 44.4574 117.402 46.9768 117.402 50.1163C117.402 53.2559 118.293 55.7752 120.076 57.6744C121.898 59.5737 124.224 60.5427 127.053 60.5427C129.573 60.5427 131.433 59.845 132.712 58.4109V70H138.332V40.0775H133.022V42.1706C131.782 40.5039 129.805 39.6899 127.053 39.6899ZM127.983 44.5349C130.813 44.5349 132.712 46.5117 132.712 49.6512V50.5814C132.712 53.721 130.813 55.6977 127.983 55.6977C125.076 55.6977 123.138 53.6435 123.138 50.1163C123.138 46.5892 125.076 44.5349 127.983 44.5349Z" fill="#3E2284"/>
<path d="M159.703 40.0774H154.044V51.3952C154.044 53.7208 152.765 55.2712 150.633 55.2712C148.502 55.2712 147.417 53.9921 147.417 51.4728V40.0774H141.757V52.6743C141.757 57.5968 144.548 60.5425 149.161 60.5425C151.602 60.5425 153.347 59.7285 154.354 58.1006V60.1161H159.703V40.0774Z" fill="#3E2284"/>
<path d="M166.087 30.1162C163.258 29.9611 161.514 33.9921 163.684 35.9301C164.963 37.2092 167.211 37.2092 168.49 35.9301C169.149 35.2712 169.498 34.4573 169.498 33.527C169.498 31.6278 167.987 30.1162 166.087 30.1162ZM168.917 40.0774H163.258V60.1162H168.917V40.0774Z" fill="#3E2284"/>
<path d="M192.373 30H186.753V41.8217C185.512 40.3876 183.613 39.6899 181.094 39.6899C178.264 39.6899 175.939 40.6589 174.117 42.5581C172.334 44.4574 171.442 46.9768 171.442 50.1163C171.442 53.2558 172.334 55.7752 174.117 57.6744C175.939 59.5736 178.264 60.5426 181.094 60.5426C183.768 60.5426 185.939 59.4961 187.063 58.062V60.1163H192.373V30ZM182.024 44.5349C184.853 44.5349 186.753 46.5116 186.753 49.6512V50.5426C186.753 53.7597 184.853 55.6589 182.024 55.6589C179.117 55.6589 177.179 53.6434 177.179 50.1163C177.179 46.5892 179.117 44.5349 182.024 44.5349Z" fill="#3E2284"/>
<path d="M203.822 39.6899C201.38 39.6899 199.364 40.4264 197.775 41.8993C196.225 43.3334 195.45 45 195.45 46.8605L201.108 47.0931C201.108 45.659 202.078 44.4574 203.899 44.4574C205.643 44.4574 206.496 45.5039 206.496 47.5582V48.3334L202.93 48.5271C197.581 48.7597 194.907 50.7752 194.907 54.6124C194.907 58.4496 197.426 60.5427 201.574 60.5427C203.666 60.5427 205.372 59.845 206.69 58.4884V60.1163H212.155V47.752C212.155 42.4807 209.248 39.6899 203.822 39.6899ZM206.496 52.907C206.496 54.9613 205.023 56.1628 202.891 56.1628C201.341 56.1628 200.566 55.5427 200.566 54.3411C200.566 53.0233 201.535 52.3256 203.473 52.2481L206.496 52.0543V52.907Z" fill="#3E2284"/>
<path d="M233.619 40.0774H227.185L223.465 46.2014L219.744 40.0774H213.309L219.472 49.9999L213.232 60.1161H219.666L223.465 53.8758L227.301 60.1161H233.774L227.418 49.9999L233.619 40.0774Z" fill="#3E2284"/>
</g>
<defs>
<clipPath id="clip0_298_10194">
<rect width="166.622" height="40" fill="white" transform="translate(67.1797 30)"/>
</clipPath>
</defs>
</svg>
