<svg width="300" height="100" viewBox="0 0 300 100" fill="none" xmlns="http://www.w3.org/2000/svg">
<rect width="300" height="100" fill="white"/>
<g clip-path="url(#clip0_291_3323)">
<mask id="mask0_291_3323" style="mask-type:luminance" maskUnits="userSpaceOnUse" x="67" y="30" width="166" height="40">
<path d="M232.677 30H67.3229V69.8583H232.677V30Z" fill="white"/>
</mask>
<g mask="url(#mask0_291_3323)">
<path d="M77.819 49.4599C78.4121 48.9363 78.7086 48.2374 78.7086 47.3634V47.3048C78.7086 46.3344 78.3975 45.6062 77.7755 45.1204C77.1534 44.6346 76.2872 44.392 75.1771 44.3926H70.7142V50.2508H75.2678C76.3756 50.2479 77.226 49.9842 77.819 49.4599Z" fill="#49525B"/>
<path d="M98.8237 60.7309V52.5471H90.5347V60.7309H86.0389V40.3434H90.5347V48.4117H98.8237V40.3434H102.349C100.626 37.2113 98.0925 34.5986 95.0116 32.7788C91.9306 30.9589 88.4161 29.9988 84.8358 29.9988C81.2555 29.9988 77.741 30.9589 74.6601 32.7788C71.5792 34.5986 69.045 37.2113 67.3229 40.3434H75.7362C78.3242 40.3434 80.3091 41.0327 81.6908 42.4115C82.8579 43.5772 83.4415 45.1308 83.4415 47.0723V47.13C83.4415 48.781 83.0379 50.1257 82.2308 51.1642C81.4137 52.2098 80.3158 53.0024 79.0649 53.4498L84.0561 60.7282H78.798L74.4197 54.2043H70.8917V60.7282H68.0559C69.8648 63.5283 72.3487 65.831 75.2801 67.4256C78.2116 69.0202 81.497 69.8558 84.8358 69.8558C88.1746 69.8558 91.46 69.0202 94.3915 67.4256C97.323 65.831 99.807 63.5283 101.616 60.7282L98.8237 60.7309Z" fill="#49525B"/>
<path d="M232.412 52.8276H112.478V53.2883H232.412V52.8276Z" fill="#49525B"/>
<path d="M135.826 35.8708L138.351 41.9838H133.321L135.826 35.8708ZM134.43 31.6511L127.151 49.0758H130.464L132.131 44.9866H139.543L141.185 49.0758H144.592L137.312 31.6511H134.43Z" fill="#49525B"/>
<path d="M157.997 40.449C157.997 43.7696 155.81 46.0001 152.557 46.0001H149.546V34.8473H152.557C155.759 34.8473 157.997 37.1507 157.997 40.449ZM152.557 31.7717H146.33V49.0801H152.557C157.65 49.0801 161.347 45.4312 161.347 40.4037C161.347 35.4038 157.65 31.7762 152.557 31.7762" fill="#49525B"/>
<path d="M212.076 40.4473C212.076 43.7643 209.807 46.2665 206.798 46.2665C203.762 46.2665 201.473 43.7448 201.473 40.3994C201.473 37.0824 203.743 34.5811 206.752 34.5811C209.787 34.5811 212.076 37.1037 212.076 40.4473ZM206.798 31.4824C201.853 31.4824 198.123 35.3373 198.123 40.4473C198.123 45.5324 201.833 49.366 206.751 49.366C211.697 49.366 215.426 45.5111 215.426 40.4011C215.426 35.3169 211.718 31.4833 206.798 31.4833" fill="#49525B"/>
<path d="M122.821 37.4961C122.821 39.1444 121.615 40.1687 119.672 40.1687H115.69V34.8475H119.65C121.696 34.8475 122.821 35.7874 122.821 37.4961ZM126.08 37.3257C126.08 33.9004 123.705 31.771 119.881 31.771H112.479V49.0794H115.69V43.1715H118.973L122.953 49.0758H126.752L122.324 42.5821C124.749 41.7939 126.08 39.9352 126.08 37.3266" fill="#49525B"/>
<path d="M167.225 31.7717H164.013V49.0757H167.225V31.7717Z" fill="#49525B"/>
<path d="M177.083 38.8923C173.94 38.1067 173.38 37.5511 173.38 36.3821C173.38 35.2762 174.366 34.5323 175.836 34.5323C177.247 34.5323 178.649 35.0906 180.119 36.2356L180.274 36.3564L182.003 33.8089L181.877 33.7024C180.136 32.2405 178.174 31.5295 175.882 31.5295C172.517 31.5295 170.167 33.635 170.167 36.6493C170.167 39.8793 172.196 41.0225 175.699 41.9075C178.708 42.6344 179.217 43.2469 179.217 44.344C179.217 45.56 178.187 46.3145 176.529 46.3145C174.699 46.3145 173.206 45.6701 171.538 44.1611L171.395 44.0298L169.454 46.4423L169.579 46.5577C171.512 48.3631 173.891 49.3181 176.459 49.3181C180.085 49.3181 182.428 47.2518 182.428 44.0528C182.428 41.3527 180.879 39.858 177.083 38.8923Z" fill="#49525B"/>
<path d="M191.084 38.8923C187.941 38.1067 187.381 37.5511 187.381 36.3821C187.381 35.2762 188.368 34.5323 189.836 34.5323C191.248 34.5323 192.649 35.0906 194.12 36.2356L194.274 36.3564L196.004 33.8089L195.878 33.7024C194.137 32.2405 192.176 31.5295 189.882 31.5295C186.518 31.5295 184.168 33.635 184.168 36.6493C184.168 39.8793 186.196 41.0225 189.699 41.9075C192.709 42.6344 193.217 43.2469 193.217 44.344C193.217 45.56 192.188 46.3145 190.53 46.3145C188.702 46.3145 187.208 45.6701 185.539 44.1611L185.396 44.0298L183.455 46.4423L183.579 46.5577C185.512 48.3631 187.892 49.3181 190.46 49.3181C194.087 49.3181 196.429 47.2518 196.429 44.0528C196.429 41.3527 194.88 39.858 191.084 38.8923Z" fill="#49525B"/>
<path d="M229.248 31.7727V43.1128L220.901 31.8464L220.846 31.7727H217.933V49.0767H221.097V37.3975L229.7 49.0021L229.755 49.0767H232.413V31.7727H229.248Z" fill="#49525B"/>
<path d="M232.406 52.8135H112.487V53.2733H232.406V52.8135Z" fill="#49525B"/>
<path d="M112.406 56.948H114.404V61.6648H119.83V56.948H121.828V68.2953H119.83V63.5101H114.404V68.2925H112.406V56.948Z" fill="#49525B"/>
<path d="M133.95 62.6536V62.6224C133.95 59.427 136.419 56.7544 139.91 56.7544C143.401 56.7544 145.84 59.3968 145.84 62.5896V62.6224C145.84 65.8177 143.37 68.4904 139.88 68.4904C136.389 68.4904 133.95 65.847 133.95 62.6536ZM143.746 62.6536V62.6224C143.746 60.4175 142.137 58.6024 139.88 58.6024C137.622 58.6024 136.046 60.3856 136.046 62.5896V62.6224C136.046 64.8271 137.654 66.6422 139.912 66.6422C142.169 66.6422 143.742 64.8583 143.742 62.6536H143.746Z" fill="#49525B"/>
<path d="M160.992 58.796H157.37V56.948H166.614V58.796H162.99V68.2934H160.992V58.796Z" fill="#49525B"/>
<path d="M180.235 56.948H188.666V58.7312H182.233V61.6818H187.935V63.4808H182.233V66.512H188.746V68.2953H180.233L180.235 56.948Z" fill="#49525B"/>
<path d="M203.69 56.948H205.688V66.4792H211.667V68.2953H203.69V56.948Z" fill="#49525B"/>
<path d="M223.873 66.6416L225.075 65.2151C226.164 66.1549 227.268 66.6904 228.666 66.6904C229.9 66.6904 230.68 66.1061 230.68 65.2639V65.2312C230.68 64.4208 230.225 63.983 228.113 63.4967C225.693 62.9134 224.327 62.2 224.327 60.1086V60.0767C224.327 58.131 225.952 56.7854 228.21 56.7854C229.867 56.7854 231.183 57.2887 232.337 58.2127L231.264 59.7216C230.241 58.96 229.218 58.5544 228.178 58.5544C227.009 58.5544 226.326 59.1544 226.326 59.9V59.932C226.326 60.8072 226.846 61.1968 229.038 61.7153C231.44 62.2992 232.678 63.1575 232.678 65.0384V65.0702C232.678 67.1943 231.004 68.4583 228.617 68.4583C226.863 68.4661 225.17 67.8179 223.873 66.6416Z" fill="#49525B"/>
</g>
</g>
<defs>
<clipPath id="clip0_291_3323">
<rect width="165.354" height="40" fill="white" transform="translate(67.3229 30)"/>
</clipPath>
</defs>
</svg>
