<svg width="300" height="100" viewBox="0 0 300 100" fill="none" xmlns="http://www.w3.org/2000/svg">
<rect width="300" height="100" fill="white"/>
<path d="M99.7479 64.3984H95.2079L91.3443 60.5896L89.0604 58.3376C89.9141 57.6952 90.6831 56.9489 91.3474 56.1199C93.0729 53.9661 94.1032 51.2501 94.1032 48.3009C94.1032 41.3383 88.3557 35.6725 81.2927 35.6725C74.2297 35.6725 68.4822 41.3383 68.4822 48.3009C68.4822 54.728 73.3793 60.0511 79.6883 60.831V57.6343C75.1547 56.8786 71.691 52.9815 71.691 48.3009C71.691 43.0816 75.9982 38.8356 81.2927 38.8356C86.5873 38.8356 90.8944 43.0816 90.8944 48.3009C90.8944 50.3781 90.2118 52.3024 89.0572 53.8622C88.4238 54.7186 87.6484 55.4686 86.7639 56.0745L84.4397 53.7826C85.3828 53.2534 86.1803 52.4946 86.7449 51.5835C87.3412 50.6256 87.6826 49.5 87.6826 48.2977C87.6826 44.8224 84.8151 41.9957 81.2896 41.9957C77.7641 41.9957 74.8966 44.8224 74.8966 48.2977C74.8966 51.2253 76.9326 53.6943 79.6852 54.3978V51.005C78.7419 50.4603 78.1086 49.4509 78.1086 48.2946C78.1086 46.5633 79.5331 45.1558 81.2927 45.1558C83.0523 45.1558 84.4737 46.5601 84.4737 48.2946C84.4737 49.4509 83.8403 50.4603 82.8971 51.005V67.5H79.6883V64.0098C71.6039 63.2143 65.2734 56.4688 65.2734 48.2946C65.2734 39.5851 72.4607 32.5 81.2958 32.5C90.1311 32.5 97.3152 39.5851 97.3152 48.2946C97.3152 52.1182 95.9309 55.6273 93.6282 58.3625L99.7479 64.3984Z" fill="#0C66FF"/>
<path d="M120.481 60.7811L115.994 54.1768H112.377V60.7811H107.773V40.1467H117.342C122.275 40.1467 125.237 42.7129 125.237 46.9573V47.0167C125.237 50.3486 123.414 52.4392 120.75 53.4147L125.865 60.7846H120.481V60.7811ZM120.57 47.1916C120.57 45.2442 119.193 44.2442 116.952 44.2442H112.377V50.1702H117.041C119.282 50.1702 120.57 48.9921 120.57 47.2509V47.1916Z" fill="black"/>
<path d="M144.97 60.7812L143.055 56.1523H134.202L132.287 60.7812H127.592L136.564 40H140.81L149.783 60.7812H144.97ZM138.629 45.454L135.848 52.1456H141.409L138.629 45.454Z" fill="black"/>
<path d="M160.22 52.558V60.7845H155.617V52.649L147.573 40.1501H152.957L157.951 48.4326L163.033 40.1501H168.268L160.22 52.558Z" fill="black"/>
<path d="M179.298 60.7811H171.134V40.1467H179.298C185.877 40.1467 190.424 44.5973 190.424 50.4044V50.4639C190.42 56.2711 185.877 60.7811 179.298 60.7811ZM185.607 50.4639C185.607 46.8069 183.064 44.2442 179.298 44.2442H175.741V56.6836H179.298C183.064 56.6836 185.607 54.1768 185.607 50.5233V50.4639Z" fill="black"/>
<path d="M208.6 60.7812L206.685 56.1523H197.832L195.917 60.7812H191.221L200.195 40H204.44L213.412 60.7812H208.6ZM202.262 45.454L199.481 52.1456H205.042L202.262 45.454Z" fill="black"/>
</svg>
