<svg width="300" height="100" viewBox="0 0 300 100" fill="none" xmlns="http://www.w3.org/2000/svg">
<rect width="300" height="100" fill="white"/>
<g clip-path="url(#clip0_298_10139)">
<path d="M154.358 34.7766H150.146V38.9365H154.358V34.7766Z" fill="#E3A721"/>
<path d="M130.501 50.6849C130.501 49.438 130.325 48.195 129.978 46.9896C129.629 45.7741 129.055 44.6656 128.274 43.6972C127.488 42.7249 126.475 41.9266 125.262 41.3219C124.038 40.7191 122.532 40.4148 120.784 40.4148C119.31 40.4148 117.925 40.6776 116.671 41.1974C115.415 41.7151 114.319 42.4423 113.412 43.3593C112.504 44.2742 111.783 45.367 111.27 46.6041C110.756 47.8452 110.493 49.2048 110.493 50.6474C110.493 52.09 110.731 53.4457 111.208 54.6828C111.68 55.9238 112.365 57.0186 113.247 57.9336C114.127 58.8505 115.215 59.5777 116.487 60.0974C117.759 60.6152 119.193 60.88 120.743 60.88C124.494 60.88 127.456 59.5382 129.544 56.8941L129.705 56.6885L126.507 54.2954L126.348 54.489C125.659 55.3172 124.896 55.9929 124.078 56.4969C123.281 56.987 122.324 57.238 121.234 57.238C120.418 57.238 119.623 57.1094 118.864 56.8526C118.106 56.5977 117.432 56.2341 116.857 55.7736C116.287 55.317 115.821 54.7578 115.472 54.1117C115.163 53.5425 114.989 52.9081 114.957 52.2284H130.499V50.6849H130.501ZM114.961 48.8214C114.995 48.3017 115.129 47.7701 115.361 47.2405C115.633 46.618 116.023 46.0449 116.518 45.533C117.008 45.0272 117.62 44.6082 118.339 44.2901C119.051 43.9718 119.847 43.8118 120.703 43.8118C121.589 43.8118 122.374 43.9462 123.039 44.213C123.695 44.4778 124.25 44.8473 124.684 45.3097C125.122 45.7781 125.455 46.3334 125.671 46.9598C125.869 47.529 125.99 48.1534 126.035 48.8214H114.961Z" fill="#1A1A1A"/>
<path d="M150.147 40.8928V43.2129C149.456 42.4046 148.574 41.7564 147.512 41.2762C146.242 40.7031 144.918 40.4106 143.575 40.4106C142.047 40.4106 140.641 40.6735 139.4 41.1932C138.158 41.711 137.08 42.4461 136.202 43.3768C135.322 44.3076 134.635 45.4064 134.165 46.6475C133.692 47.8846 133.452 49.2283 133.452 50.6414C133.452 52.0563 133.704 53.3902 134.207 54.6035C134.71 55.817 135.419 56.884 136.311 57.7714C137.205 58.6626 138.287 59.368 139.527 59.872C140.769 60.3759 142.129 60.6308 143.577 60.6308C144.946 60.6308 146.27 60.3463 147.514 59.787C148.574 59.3108 149.456 58.6034 150.149 57.6804V59.8127C150.149 60.5854 150.042 61.364 149.83 62.1268C149.622 62.8738 149.26 63.5476 148.758 64.1307C148.255 64.7136 147.562 65.1939 146.704 65.5634C145.84 65.935 144.734 66.1227 143.413 66.1227C142.041 66.1227 140.799 65.8678 139.723 65.3658C138.641 64.8619 137.621 64.107 136.693 63.1188L136.485 62.8975L133.642 66.3638L133.824 66.5278C135.237 67.8004 136.749 68.7095 138.318 69.2252C139.878 69.741 141.623 69.9999 143.496 69.9999C145.103 69.9999 146.593 69.751 147.926 69.2628C149.26 68.7727 150.421 68.0751 151.372 67.1839C152.323 66.2966 153.064 65.2294 153.583 64.012C154.098 62.7987 154.36 61.4371 154.36 59.9688V40.8928H150.147ZM144.027 56.7536C142.146 56.7536 140.639 56.1943 139.553 55.0896C138.463 53.983 137.908 52.4871 137.908 50.6432C137.908 49.7164 138.053 48.8508 138.342 48.0683C138.629 47.2898 139.037 46.6198 139.555 46.0744C140.072 45.531 140.716 45.0922 141.471 44.774C142.224 44.4559 143.084 44.2939 144.025 44.2939C144.964 44.2939 145.826 44.4559 146.581 44.774C147.334 45.0922 147.98 45.531 148.497 46.0744C149.016 46.6198 149.424 47.2898 149.711 48.0683C149.999 48.8528 150.145 49.7184 150.145 50.6432C150.145 52.4871 149.589 53.985 148.499 55.0896C147.413 56.1943 145.909 56.7536 144.027 56.7536Z" fill="#1A1A1A"/>
<path d="M178.4 60.7397H172.983L167.391 52.9594L161.8 60.7397H156.589L164.647 50.347L157.571 41.2368H162.989L167.554 47.7641L172.038 41.2368H177.16L170.34 50.345L178.4 60.7397Z" fill="#1A1A1A"/>
<path d="M193.434 56.2455V60.1267L193.301 60.1999C192.839 60.4529 192.235 60.6327 191.51 60.7295C190.794 60.8263 190.254 60.8718 189.859 60.8718C188.405 60.8718 187.256 60.6663 186.445 60.2611C185.625 59.8541 185.011 59.3166 184.616 58.6605C184.23 58.0143 183.998 57.285 183.925 56.4886C183.856 55.7258 183.822 54.9413 183.822 54.1627V44.5329H179.568V40.8927H183.822V35.5649H188.036V40.8927H193.315V44.5329H188.036V52.8861C188.036 53.4177 188.048 53.9453 188.076 54.4533C188.1 54.9433 188.197 55.3859 188.361 55.7694C188.52 56.1409 188.758 56.4333 189.09 56.6606C189.411 56.8819 189.903 56.9926 190.553 56.9926C190.971 56.9926 191.409 56.955 191.858 56.8779C192.29 56.8049 192.687 56.6665 193.043 56.4689L193.434 56.2455Z" fill="#1A1A1A"/>
<path d="M214.099 60.1091C214.044 59.6111 214.004 59.0775 213.977 58.5223C213.951 57.971 213.937 57.3543 213.937 56.6923V46.9972C213.937 46.1415 213.771 45.3076 213.446 44.5171C213.121 43.7247 212.609 43.0113 211.928 42.4026C211.25 41.792 210.374 41.3039 209.32 40.9462C208.272 40.5905 207.012 40.4126 205.571 40.4126C204.185 40.4126 202.778 40.6537 201.391 41.128C200 41.6042 198.757 42.3295 197.701 43.284L197.503 43.4638L200.061 46.0624L200.247 45.9242C200.576 45.6831 200.917 45.4302 201.272 45.1614C201.609 44.9064 201.993 44.6811 202.411 44.4895C202.829 44.2978 203.301 44.1338 203.816 44.0052C204.325 43.8788 204.931 43.8116 205.613 43.8116C206.364 43.8116 207.018 43.9203 207.559 44.1338C208.094 44.3452 208.544 44.6356 208.9 44.9954C209.257 45.355 209.526 45.766 209.703 46.2107C209.881 46.6592 209.97 47.1138 209.97 47.5584V48.1019H207.535C206.055 48.1019 204.642 48.2166 203.336 48.4458C202.015 48.677 200.846 49.0643 199.859 49.5939C198.856 50.1334 198.054 50.8408 197.475 51.7006C196.889 52.566 196.592 53.653 196.592 54.9276C196.592 55.8979 196.78 56.7655 197.152 57.5046C197.521 58.2416 198.034 58.872 198.676 59.374C199.314 59.8739 200.065 60.2534 200.915 60.5004C201.753 60.7474 202.647 60.8719 203.568 60.8719C205.07 60.8719 206.416 60.6091 207.565 60.0874C208.546 59.6427 209.427 58.9215 210.186 57.9432C210.2 58.6803 210.24 59.4234 210.301 60.1546L210.321 60.3918H214.133L214.099 60.1091ZM204.71 57.4748C203.485 57.4748 202.51 57.2456 201.807 56.7971C201.129 56.3623 200.8 55.6607 200.8 54.649C200.8 53.9652 201.01 53.4218 201.442 52.987C201.888 52.5384 202.473 52.1807 203.184 51.9278C203.911 51.6688 204.729 51.4911 205.617 51.4002C206.517 51.3092 207.412 51.2618 208.268 51.2618H209.968V52.2044C209.968 52.8171 209.877 53.4475 209.693 54.0759C209.511 54.6944 209.211 55.2635 208.799 55.7675C208.389 56.2694 207.842 56.6844 207.171 56.9986C206.505 57.3148 205.677 57.4748 204.71 57.4748Z" fill="#1A1A1A"/>
<path d="M88.9063 54.0383V60.4609H82.1328V43.5093L88.3875 52.4001C88.7246 52.8822 88.9063 53.4534 88.9063 54.0383Z" fill="#E3A721"/>
<path d="M100.335 50.6708C104.383 48.9732 106.74 45.6216 106.74 41.0508C106.74 34.2211 101.539 30 93.2228 30H83.8489C82.9 30 82.1328 30.7509 82.1328 31.6797V34.7033C82.1328 35.2863 82.3145 35.8554 82.6517 36.3356L87.7313 43.5585L87.7293 43.5684L94.5149 53.3011L94.6179 53.4512L99.5784 60.4588H107.315L100.335 50.6708ZM96.5359 45.7047L88.9063 35.7467H92.8231C97.2243 35.7467 99.4472 37.7031 99.4472 41.0527C99.4492 43.2443 98.472 44.8608 96.5359 45.7047Z" fill="#E3A721"/>
</g>
<defs>
<clipPath id="clip0_298_10139">
<rect width="132" height="40" fill="white" transform="translate(82.1328 30)"/>
</clipPath>
</defs>
</svg>
