<svg width="300" height="100" viewBox="0 0 300 100" fill="none" xmlns="http://www.w3.org/2000/svg">
<rect width="300" height="100" fill="white"/>
<g clip-path="url(#clip0_298_10134)">
<path fill-rule="evenodd" clip-rule="evenodd" d="M50.6281 45.7435C54.135 48.1791 58.8881 45.0224 60.8555 47.614C61.3255 48.2488 61.7093 48.943 61.9972 49.6785C62.2122 50.2493 62.5433 51.6649 62.7773 52.095L63.1864 51.6079C63.3424 51.3929 63.4794 51.1797 63.6145 50.9838C65.9131 47.711 67.7245 44.9253 67.0053 40.3073C66.1281 34.639 63.2835 29.8421 56.9529 30.0019C55.7637 30.0419 53.9332 30.0019 53.7582 30.9172C53.6869 32.2864 53.6933 33.6586 53.7772 35.0272C53.9663 37.0995 54.9594 39.0154 56.5439 40.3644C57.343 40.9105 58.1993 41.4166 59.0384 41.9818C59.4189 42.2539 59.8965 42.5526 60.2847 42.7809L62.6232 44.5733C63.0038 44.9444 63.2264 45.3344 63.5384 45.6636L63.4414 45.8006C63.4033 45.8196 62.8382 45.1974 62.7602 45.1385C61.9863 44.4387 61.1293 43.8368 60.2086 43.346C58.9223 42.6059 57.773 42.0141 56.5648 41.253C55.632 40.7504 54.8196 40.0511 54.1838 39.2035C53.5481 38.3558 53.1042 37.3801 52.8829 36.3439C52.5518 35.0119 52.7859 34.1614 52.4358 33.8303C51.6956 33.0692 49.8061 35.7787 49.4751 36.3439C47.8539 39.2646 47.4524 43.5344 50.6167 45.734L50.6281 45.7435ZM66.6609 69.8611C65.2395 70.1732 65.6867 70.0514 65.4336 68.4588C64.5564 62.8095 64.5754 65.245 63.4262 61.1921C62.2769 57.1392 63.1541 53.7713 65.6867 52.036C68.3753 50.2055 71.2199 49.7755 74.4927 48.6262C79.4399 46.8738 80.9792 44.0862 81.8754 43.7171C81.5174 44.8317 80.911 45.8506 80.102 46.6968C73.4005 54.2756 75.739 58.4635 72.9134 62.6135C71.6392 64.5119 69.6756 65.8394 67.4391 66.3144C66.933 61.8733 66.1072 59.9629 68.7254 56.8005C69.9336 55.3392 74.2967 52.5155 74.8808 51.1702C74.2967 51.3263 74.31 51.6383 73.8686 51.9884C71.6081 53.7618 68.4533 55.7083 67.089 57.6967C64.4004 61.6126 66.8359 67.477 66.6609 69.8535V69.8611ZM66.2156 49.9715C66.3127 49.6594 67.618 47.4389 68.1051 46.2116C69.1954 43.5477 68.0861 40.1228 67.3839 36.9375C66.4877 32.9836 65.8065 30.451 71.2808 33.3717C72.4617 33.9743 73.4201 34.9374 74.017 36.1212C74.4111 36.7483 74.6136 37.4768 74.5998 38.2174C74.5859 38.9579 74.3563 39.6783 73.939 40.2902L71.7774 43.641C72.8886 43.2699 73.9979 41.1674 74.7781 39.9972C75.9486 40.8531 76.8642 42.0114 77.4268 43.3479C79.0042 47.1078 72.3026 47.7243 70.5311 48.1981C69.0483 48.675 67.6053 49.268 66.2156 49.9715Z" fill="#8FC54D"/>
<path d="M107.235 44.1261C107.235 46.7519 105.803 48.3293 102.747 48.3293H97.6835V40.0199H102.745C105.803 40.0199 107.235 41.643 107.235 44.1261ZM89.5168 33.2366V66.7633H97.6835V54.108H99.6415L106.613 66.7633H115.83L108.094 53.4858C110.255 52.9598 112.173 51.7108 113.528 49.9459C114.882 48.181 115.593 46.0061 115.543 43.7817C115.543 37.9554 111.435 33.2271 103.221 33.2271L89.5168 33.2366ZM141.19 33.2366H120.654V66.7633H141.19V60.2197H128.813V52.8655H139.75V46.5617H128.813V39.7802H141.181L141.19 33.2366ZM146.491 33.2366V66.7633H165.355V60.4595H154.658V33.2366H146.491ZM189.808 33.2366H169.271V66.7633H189.808V60.2197H177.44V52.8655H188.369V46.5617H177.438V39.7802H189.806L189.808 33.2366ZM217.984 66.7633H226.628L214.498 33.2366H205.042L192.911 66.7633H201.461L203.466 60.8419H215.979L217.984 66.7633ZM213.876 54.5381H205.616L209.724 42.2652L213.876 54.5381ZM230.306 66.7633H238.473V53.2004H248.687V46.8433H238.473V39.7745H252.131V33.2309H230.306V66.7633Z" fill="#8FC54D"/>
</g>
<defs>
<clipPath id="clip0_298_10134">
<rect width="203.889" height="40" fill="white" transform="translate(48.2422 30)"/>
</clipPath>
</defs>
</svg>
