<svg width="300" height="100" viewBox="0 0 300 100" fill="none" xmlns="http://www.w3.org/2000/svg">
<rect width="300" height="100" fill="white"/>
<g clip-path="url(#clip0_291_8058)">
<path d="M65.6555 49.6329V45.8801H53.6629C53.1413 45.8882 52.6265 45.9997 52.1482 46.2079C51.6699 46.4162 51.2377 46.7173 50.8764 47.0936C50.0889 47.9513 49.6553 49.0753 49.6629 50.2397C49.7497 51.2702 50.2223 52.2299 50.9861 52.9271C51.7499 53.6242 52.7487 54.0074 53.7828 54H65.6555V65.9925C65.6555 68.2996 67.7154 70.1123 69.9026 69.9925C70.9318 69.9039 71.8897 69.4306 72.5853 68.667C73.2809 67.9034 73.663 66.9056 73.6555 65.8726V54H69.9026C68.7609 53.9822 67.6728 53.5126 66.8767 52.694C66.0806 51.8755 65.6414 50.7747 65.6555 49.6329Z" fill="#094063"/>
<path d="M89.5281 49.633C89.4395 48.6039 88.9662 47.646 88.2026 46.9504C87.4389 46.2548 86.4411 45.8727 85.4082 45.8802H73.5281V34.0076C73.5281 31.7005 71.4681 29.8877 69.2884 30.0076C68.2619 30.0978 67.3068 30.5708 66.613 31.3327C65.9191 32.0945 65.5372 33.0895 65.543 34.1199V45.9926H69.2884C70.4086 46.0062 71.4791 46.4572 72.2712 47.2494C73.0634 48.0416 73.5145 49.1121 73.5281 50.2323V53.9926H85.5281C86.6142 53.9926 87.588 53.5057 88.3146 52.7791C88.7188 52.3638 89.0346 51.8709 89.2432 51.3302C89.4518 50.7895 89.5487 50.2122 89.5281 49.633Z" fill="#89CBF0"/>
<path d="M69.2883 46H65.543V49.7603C65.5566 50.8805 66.0076 51.951 66.7998 52.7431C67.592 53.5353 68.6625 53.9863 69.7827 54H73.5355V50.2397C73.5488 49.6792 73.4483 49.122 73.2399 48.6015C73.0316 48.0811 72.7198 47.6084 72.3234 47.212C71.927 46.8157 71.4543 46.5039 70.9339 46.2955C70.4135 46.0872 69.8562 45.9866 69.2958 46H69.2883Z" fill="#5299D3"/>
<path d="M101.76 41.6405H106.127C108.547 41.6405 111.7 41.8802 112.667 44.5469C113.76 47.6929 111.82 50.4869 108.674 50.9663L113.633 58.9663H111.086L106.367 51.2135H103.693V58.9663H101.753V41.6405H101.76ZM103.82 49.2734H105.64C107.461 49.2734 110.247 49.3933 110.734 47.2135C111.333 44.427 108.786 43.5806 106.614 43.5806H103.7V49.2734H103.82ZM126.487 56.9064C124.547 59.3334 120.794 60.0525 118.127 58.3596C115.828 56.7866 115.101 53.6405 115.947 51.0937C116.921 48.427 119.58 46.9738 122.367 47.3334C125.401 47.8203 126.854 50.3671 126.854 53.2734V53.8727H117.64C117.888 57.7528 122.734 58.6068 125.034 55.8203L126.487 56.9064ZM124.914 52.1873C124.794 47.8203 118.247 48.0675 117.76 52.1873H124.914ZM130 40.427H131.947V58.8465H130V40.427ZM136.906 41.6405C138.726 41.6405 138.726 44.427 136.906 44.427C135.086 44.427 135.086 41.6405 136.906 41.6405ZM135.932 47.4532H137.88V58.8465H135.932V47.4607V47.4532ZM141.393 49.0263C143.094 47.3334 146.12 46.7266 148.3 47.7004C150.12 48.427 150.726 50.2472 150.726 52.1798V57.1461C150.726 57.7528 150.846 58.4794 150.846 59.0937H149.026C148.906 58.6068 148.906 57.8802 148.906 57.3933C146.966 60.5394 140.427 59.9401 140.906 55.5731C141.273 52.1798 145.513 52.06 148.06 52.06H148.786V51.6929C148.786 48.427 144.3 48.7866 142.607 50.4869L141.393 49.0337V49.0263ZM146.966 53.3933C145.88 53.3933 144.299 53.5131 143.453 54.3671C142.726 55.0862 142.854 56.5394 143.7 57.1461C146 58.8465 148.786 56.5469 148.906 54.1199V53.3933H146.966ZM154.232 50.2397C154.232 49.1536 154.112 48.2997 154.112 47.5731H155.932V49.5206C156.906 47.4532 159.565 46.9738 161.505 47.5731C163.326 48.2997 164.052 50.1199 164.052 51.9401V58.9663H162.352V52.06C162.352 50 161.019 48.5394 158.839 49.0337C156.779 49.5131 156.172 51.4532 156.172 53.3933V58.9663H154.232V50.2397ZM175.925 50.3596C175.365 49.687 174.592 49.225 173.735 49.0494C172.877 48.8738 171.985 48.995 171.206 49.3933C170.57 49.7603 170.044 50.2907 169.681 50.9294C169.319 51.5682 169.134 52.2921 169.146 53.0263C169.146 54.5993 169.745 56.1798 171.206 57.0263C171.981 57.4451 172.88 57.5771 173.743 57.399C174.606 57.2209 175.379 56.7441 175.925 56.0525L177.386 57.3933C175.685 59.3334 172.532 59.6929 170.352 58.6068C168.292 57.633 167.206 55.4532 167.206 53.2734C167.171 52.1618 167.447 51.0625 168.003 50.0991C168.559 49.1357 169.372 48.3465 170.352 47.8203C172.659 46.7266 175.685 47.0937 177.505 49.0337L175.932 50.3596H175.925ZM189.858 56.9064C187.917 59.3334 184.165 60.0525 181.498 58.3596C179.198 56.7866 178.464 53.6405 179.318 51.0937C180.292 48.427 182.951 46.9738 185.738 47.3334C188.771 47.8203 190.225 50.3671 190.225 53.2734V53.8727H181.011C181.258 57.7528 186.105 58.6068 188.404 55.8203L189.858 56.9064ZM188.165 52.1873C188.037 47.8203 181.498 48.0675 181.011 52.1873H188.165Z" fill="#094063"/>
<path d="M193.498 41.6404H195.558V48.9064H204.764V41.6404H206.824V58.9663H204.764V50.9738H195.55V58.9738H193.498V41.6404ZM211.183 41.6404H214.21L220.03 55.2135L225.97 41.6404H228.996V58.9663H226.936V44.427L220.756 58.9663H219.543L213.363 44.427V58.9663H211.311V41.6404H211.191H211.183ZM232.277 50.2397C232.277 46.4869 234.449 42.9738 238.09 41.6404C241.723 40.427 245.97 41.3933 248.389 44.3071C250.697 47.2135 250.936 51.573 249.116 54.8464C247.176 58.2397 243.176 59.6929 239.423 59.0861C235.183 58.4869 232.277 54.6067 232.277 50.2472V50.2397ZM248.15 50.2397C248.15 47.3333 246.577 44.5468 243.783 43.4607C242.421 42.9286 240.926 42.8414 239.512 43.2114C238.097 43.5815 236.837 44.3898 235.91 45.5206C232.03 50.4869 236.03 58.3595 242.577 57.2734C245.97 56.7865 248.15 53.633 248.15 50.2397Z" fill="#89CBF0"/>
</g>
<defs>
<clipPath id="clip0_291_8058">
<rect width="200.674" height="40" fill="white" transform="translate(49.6628 30)"/>
</clipPath>
</defs>
</svg>
