<svg width="300" height="100" viewBox="0 0 300 100" fill="none" xmlns="http://www.w3.org/2000/svg">
<rect width="300" height="100" fill="white"/>
<g clip-path="url(#clip0_298_10090)">
<path d="M118.979 58.4322V41.2893H126.087C127.481 41.2893 128.596 41.4287 129.362 41.7074C130.059 42.0559 130.686 42.6133 131.105 43.3799C131.592 44.1464 131.801 44.9827 131.801 45.9583C131.801 47.143 131.453 48.1883 130.686 49.0245C129.776 49.9492 128.565 50.5178 127.272 50.6273C127.829 50.906 128.247 51.1848 128.526 51.4635C129.153 52.0907 129.781 52.8573 130.338 53.7632L133.125 58.4322H130.408L128.317 54.8782C127.69 53.8329 127.202 52.9966 126.784 52.5088C126.366 51.9513 126.017 51.5332 125.669 51.3242C125.39 51.1151 125.042 50.9757 124.693 50.906L123.509 50.7667H121.07V58.4322H118.979ZM121.07 48.8154H125.669C126.645 48.8154 127.341 48.7458 127.899 48.5367C128.456 48.3276 128.875 47.9792 129.153 47.4914C129.432 47.0036 129.571 46.5158 129.571 45.9583C129.571 45.1221 129.293 44.4949 128.735 43.9374C128.247 43.4496 127.341 43.1708 126.157 43.1708H121.07V48.8154ZM141.488 54.3904L143.509 54.6691C143.23 55.9235 142.603 56.9688 141.767 57.6656C140.808 58.3938 139.624 58.7636 138.422 58.7109C136.679 58.7109 135.355 58.1534 134.38 57.0384C133.297 55.7049 132.75 54.0151 132.847 52.2998C132.847 50.2092 133.404 48.6064 134.38 47.4217C135.425 46.3067 136.679 45.7492 138.282 45.7492C139.885 45.7492 141.139 46.3067 142.115 47.4217C143.091 48.5367 143.578 50.1395 143.578 52.1604V52.7179H134.937C135.007 54.1116 135.355 55.1569 135.983 55.8538C136.61 56.6203 137.446 56.9688 138.422 56.9688C139.118 56.9688 139.746 56.7597 140.303 56.3416C140.791 55.9235 141.209 55.2963 141.488 54.3904ZM135.007 51.0454H141.488C141.418 50.0001 141.209 49.1639 140.791 48.6761C140.164 47.8398 139.328 47.4217 138.352 47.4217C137.446 47.4217 136.679 47.7701 136.052 48.3973C135.425 49.0942 135.077 49.9304 135.007 51.0454ZM144.693 58.4322V46.028H146.436V47.7701C147.272 46.3764 148.526 45.7492 150.129 45.7492C150.826 45.7492 151.453 45.8189 152.08 46.0977C152.638 46.3764 153.125 46.7248 153.404 47.143C153.683 47.6308 153.892 48.1186 154.031 48.7458L154.101 50.7667V58.4322H152.15V50.8363C152.15 50.0001 152.08 49.3729 151.941 48.9548C151.732 48.5367 151.523 48.1883 151.105 47.9095C150.536 47.6074 149.887 47.4919 149.249 47.5794C148.611 47.667 148.017 47.9531 147.551 48.3973C146.923 48.9548 146.645 50.0698 146.645 51.6029V58.4322H144.693Z" fill="#E65741"/>
<path d="M157.655 58.4322V41.2893H160.861L164.624 53.4147L165.39 55.9235L166.296 53.2057L170.129 41.2893H172.986V58.4322H170.895V44.0768L166.226 58.4322H164.345L159.676 43.798V58.4322H157.655ZM174.519 52.2301C174.519 49.9304 175.146 48.1883 176.331 47.0733C177.307 46.1674 178.561 45.7492 179.955 45.7492C181.557 45.7492 182.882 46.3067 183.857 47.4217C184.902 48.5367 185.39 50.0698 185.39 52.021C185.39 53.6238 185.181 54.8782 184.763 55.7841C184.307 56.6459 183.625 57.3672 182.79 57.8706C181.956 58.374 180.999 58.6404 180.024 58.6412C178.352 58.7109 177.028 58.1534 175.983 57.0384C175.007 55.9235 174.519 54.3207 174.519 52.2301ZM176.54 52.2301C176.54 53.7632 176.888 55.0175 177.516 55.7841C178.143 56.5506 178.979 56.9688 179.955 56.9688C180.93 56.9688 181.767 56.5506 182.394 55.7841C183.091 54.9478 183.369 53.7632 183.369 52.1604C183.369 50.6273 183.091 49.4426 182.394 48.6761C181.767 47.8398 180.93 47.4217 179.955 47.4217C178.979 47.4217 178.143 47.8398 177.516 48.6064C176.888 49.4426 176.54 50.6273 176.54 52.2301ZM186.854 58.4322V46.028H188.596V47.7701C189.432 46.3764 190.686 45.7492 192.289 45.7492C192.986 45.7492 193.683 45.8189 194.24 46.0977C194.798 46.3764 195.286 46.7248 195.564 47.143C195.843 47.6308 196.052 48.1186 196.192 48.7458L196.261 50.7667V58.4322H194.31V50.8363C194.31 50.0001 194.24 49.3729 194.101 48.9548C193.962 48.5367 193.683 48.1883 193.265 47.9095C192.696 47.6074 192.047 47.4919 191.409 47.5794C190.771 47.667 190.177 47.9531 189.711 48.3973C189.084 48.9548 188.805 50.0698 188.805 51.6029V58.4322H186.854ZM206.366 54.3904L208.387 54.6691C208.108 55.9235 207.481 56.9688 206.645 57.6656C205.686 58.3938 204.502 58.7636 203.3 58.7109C201.627 58.7109 200.233 58.1534 199.258 57.0384C198.199 55.6949 197.678 54.0061 197.794 52.2998C197.794 50.2092 198.282 48.6064 199.258 47.4217C200.303 46.3067 201.557 45.7492 203.16 45.7492C204.763 45.7492 206.017 46.3067 206.993 47.4217C207.969 48.5367 208.456 50.1395 208.456 52.1604V52.7179H199.815C199.885 54.1116 200.233 55.1569 200.861 55.8538C201.557 56.6203 202.324 56.9688 203.3 56.9688C204.066 56.9688 204.624 56.7597 205.181 56.3416C205.669 55.9235 206.087 55.2963 206.366 54.3904ZM199.885 51.0454H206.436C206.296 50.0001 206.087 49.1639 205.669 48.6761C205.042 47.8398 204.206 47.4217 203.23 47.4217C202.324 47.4217 201.557 47.7701 200.93 48.3973C200.303 49.0942 199.955 49.9304 199.885 51.0454ZM209.92 63.1708L209.711 61.2196L210.826 61.4287C211.244 61.4287 211.592 61.359 211.871 61.1499C212.15 61.0106 212.359 60.8015 212.498 60.5228C212.85 59.8571 213.13 59.1564 213.334 58.4322L208.875 46.028H211.035L213.404 53.2057L214.31 56.0628L215.077 53.2057L217.585 46.028H219.537L215.146 58.6412C214.659 59.9653 214.31 60.9409 214.031 61.4287C213.683 62.1255 213.265 62.6133 212.777 62.9618C212.359 63.3102 211.801 63.4496 211.174 63.4496C210.826 63.4496 210.408 63.3799 209.92 63.1708Z" fill="#27799D"/>
<path d="M106.645 48.4669C108.877 48.4669 110.686 46.6573 110.686 44.4251C110.686 42.1929 108.877 40.3833 106.645 40.3833C104.412 40.3833 102.603 42.1929 102.603 44.4251C102.603 46.6573 104.412 48.4669 106.645 48.4669Z" fill="#E65741"/>
<path d="M91.3136 39.1985L92.9164 45.4703C93.2648 46.7943 94.3101 47.9093 95.7735 48.2578C97.8641 48.8153 100.094 47.5609 100.721 45.4006C101.348 43.2403 100.094 41.0104 97.9338 40.4529L91.662 38.8501C91.453 38.7804 91.2439 38.9895 91.3136 39.1985Z" fill="#65BBC2"/>
<path d="M112.15 59.3381L110.477 53.0663C110.129 51.7422 109.153 50.6273 107.69 50.2788C105.53 49.7213 103.3 50.9757 102.742 53.136C102.115 55.2962 103.369 57.5262 105.53 58.0837L111.801 59.6865C112.01 59.7562 112.22 59.5471 112.15 59.3381ZM91.662 59.6865L97.9338 58.0837C99.2578 57.7353 100.373 56.69 100.721 55.2266C101.279 53.136 100.024 50.906 97.8641 50.2788C95.7038 49.6516 93.4739 50.906 92.9164 53.0663L91.3136 59.3381C91.2439 59.5471 91.453 59.7562 91.662 59.6865Z" fill="#27799D"/>
</g>
<defs>
<clipPath id="clip0_298_10090">
<rect width="138.606" height="40" fill="white" transform="translate(81 30)"/>
</clipPath>
</defs>
</svg>
