<svg width="300" height="100" viewBox="0 0 300 100" fill="none" xmlns="http://www.w3.org/2000/svg">
<rect width="300" height="100" fill="white"/>
<g clip-path="url(#clip0_298_10075)">
<path d="M90.8276 69.4018V30H105.454C108.133 30 110.493 30.4944 112.539 31.4804C114.617 32.4309 116.24 33.8429 117.403 35.7084C118.567 37.5411 119.165 39.7617 119.165 42.4056C119.165 45.0495 118.496 47.4094 117.19 49.3486C115.92 51.2523 114.194 52.6617 112.009 53.5766L121.03 69.3663H112.888L103.198 52.0963L107.849 54.844H97.9809V69.3636H90.8276V69.3991V69.4018ZM98.0164 48.5019H105.558C106.86 48.5019 107.988 48.2561 108.942 47.7617C109.892 47.2318 110.632 46.4916 111.162 45.5766C111.692 44.6617 111.938 43.6019 111.938 42.4056C111.938 41.2093 111.657 40.114 111.162 39.2346C110.632 38.3196 109.892 37.6122 108.942 37.1205C107.991 36.5906 106.863 36.3448 105.558 36.3448H98.0164V48.5046V48.5019Z" fill="#003140"/>
<path d="M136.432 70.0001C133.472 70.0001 130.863 69.3309 128.678 67.9926C126.458 66.6543 124.731 64.8571 123.497 62.5655C122.262 60.2739 121.664 57.7365 121.664 54.9533C121.664 52.1701 122.298 49.4907 123.497 47.2702C124.767 45.0141 126.493 43.2169 128.643 41.9496C130.828 40.6468 133.258 39.9749 135.938 39.9749C138.194 39.9749 140.166 40.3627 141.859 41.1029C143.586 41.8431 145.066 42.8646 146.229 44.1701C147.428 45.473 148.343 46.9889 148.977 48.6823C149.611 50.3374 149.928 52.1374 149.928 54.0739C149.928 54.5682 149.892 55.0599 149.821 55.5897C149.786 56.1196 149.715 56.5757 149.54 56.9636H127.337V51.6785H145.629L142.351 54.1449C142.668 52.5225 142.597 51.0776 142.07 49.8103C141.611 48.5402 140.835 47.5187 139.743 46.814C138.686 46.0739 137.38 45.686 135.867 45.686C134.354 45.686 133.119 46.0384 132.027 46.814C130.899 47.5187 130.019 48.5757 129.454 49.9851C128.891 51.3589 128.678 53.0168 128.82 54.9889C128.678 56.7505 128.891 58.3374 129.525 59.6758C130.158 61.0141 131.076 62.0711 132.272 62.8113C133.507 63.5515 134.916 63.9038 136.501 63.9038C138.085 63.9038 139.426 63.5515 140.518 62.9178C141.646 62.2487 142.526 61.3309 143.162 60.2029L148.767 62.9506C148.204 64.3245 147.322 65.559 146.123 66.616C144.924 67.673 143.479 68.4842 141.824 69.0824C140.201 69.7161 138.404 69.9974 136.432 69.9974V70.0001Z" fill="#003140"/>
<path d="M162.546 69.4017L151.233 40.6438H158.81L166.987 63.27H164.169L172.415 40.6438H179.956L168.643 69.4017H162.546Z" fill="#003140"/>
<path d="M190.247 69.4017L180.379 40.6438H187.674L194.934 62.4588L192.397 62.4232L200.115 40.6438H206.247L213.93 62.4232L211.393 62.4588L218.653 40.6438H225.948L216.08 69.4017H209.877L202.052 46.6008H204.379L196.45 69.4017H190.247Z" fill="#003140"/>
<path d="M228.873 69.4018V40.6439H235.816V69.4018H228.873ZM228.873 37.4018V30H235.816V37.4018H228.873Z" fill="#003140"/>
<path d="M254.529 69.7186C251.286 69.7186 248.749 68.8364 246.952 67.0747C245.19 65.2775 244.308 62.7757 244.308 59.4981V46.8112H239.34V40.6439H239.87C241.279 40.6439 242.371 40.256 243.147 39.5158C243.923 38.7757 244.311 37.6831 244.311 36.2738V34.0532H251.254V40.6084H257.88V46.7757H251.254V59.1102C251.254 60.0607 251.396 60.8719 251.713 61.5411C252.065 62.2103 252.595 62.7402 253.299 63.0925C254.04 63.4448 254.99 63.6224 256.118 63.6224C256.364 63.6224 256.648 63.5869 256.965 63.5513C257.317 63.5158 257.634 63.4803 257.986 63.4448V69.3663C257.492 69.4373 256.929 69.5083 256.296 69.5766C255.627 69.6476 255.061 69.7186 254.534 69.7186H254.529Z" fill="#003140"/>
<path fill-rule="evenodd" clip-rule="evenodd" d="M80.9949 30L41.6641 69.3308V30H80.9949Z" fill="#003140"/>
<path fill-rule="evenodd" clip-rule="evenodd" d="M61.3295 49.6655L41.6641 69.3309V49.6655H61.3295Z" fill="#0EE06E"/>
<path fill-rule="evenodd" clip-rule="evenodd" d="M80.9949 49.6655L61.3295 69.3309V49.6655H80.9949Z" fill="#0EE06E"/>
</g>
<defs>
<clipPath id="clip0_298_10075">
<rect width="216.32" height="40" fill="white" transform="translate(41.6641 30)"/>
</clipPath>
</defs>
</svg>
