<svg width="300" height="100" viewBox="0 0 300 100" fill="none" xmlns="http://www.w3.org/2000/svg">
<rect width="300" height="100" fill="white"/>
<g clip-path="url(#clip0_298_10060)">
<path fill-rule="evenodd" clip-rule="evenodd" d="M116.242 41.7952C121.285 41.7952 125.64 45.3629 126.01 50.0729C126.363 54.586 123.119 58.4657 118.691 59.4516L123.923 64.2767C124.119 64.4558 124.337 64.4802 124.49 64.4699C124.641 64.4586 124.855 64.402 125.017 64.1956L130.414 58.756C131.398 57.5108 133.293 57.2855 134.577 58.2621C135.769 59.1688 136 60.7872 135.107 61.9551L129.765 67.4824C128.623 68.9302 126.868 69.8407 124.952 69.9812C124.778 69.9943 124.605 70 124.433 70C122.698 70.0009 121.027 69.3638 119.782 68.2157L109.676 58.8983C108.671 57.9708 108.489 56.4806 109.329 55.3429C109.895 54.5775 110.866 54.1647 111.86 54.1647H116.48C118.652 54.1647 120.387 52.3804 120.102 50.2945C119.865 48.5705 118.209 47.3244 116.353 47.3244H111.389C109.663 47.3244 108.283 45.9369 108.451 44.2884C108.597 42.8509 109.974 41.7952 111.516 41.7952H116.242ZM163.335 42.3721C165.907 42.3721 169.898 43.5625 171.753 45.6391C173.435 47.5214 174.4 49.9438 174.4 52.2842V62.0371C174.4 66.7755 170.527 69.9585 164.761 69.9585H161.91C156.369 69.9585 152.059 65.8932 152.279 60.7778C152.489 55.9 156.959 52.1259 162.173 52.1259H168.481C168.485 52.1212 168.488 52.1193 168.492 52.1146C168.395 50.0362 167.443 47.9003 162.197 47.9003C162.197 47.9003 158.437 47.9918 154.335 48.0839L154.03 48.0908C153.827 48.0953 153.623 48.0998 153.419 48.1044L152.653 48.1213L152.5 48.1246C150.905 48.1585 149.392 48.7873 148.292 49.8712L144.71 53.3993C143.539 54.4616 141.67 54.4324 140.537 53.3352C139.403 52.2371 139.434 50.4877 140.606 49.4263L145.494 44.671C146.885 43.3165 148.798 42.5427 150.804 42.521L163.335 42.3721ZM176.786 44.5598C176.786 42.9433 178.268 41.651 180.028 41.8085C181.563 41.9461 182.689 43.2355 182.689 44.6786V67.0771C182.689 68.6041 181.368 69.8416 179.738 69.8416L179.648 69.8404C178.059 69.7957 176.786 68.5758 176.786 67.0771V44.5598ZM184.756 32.7644C184.756 31.1479 186.237 29.8556 187.997 30.013C189.532 30.1506 190.66 31.4401 190.66 32.8832V67.0771C190.66 68.6926 189.178 69.9849 187.417 69.8285C185.883 69.6908 184.756 68.4023 184.756 66.9583V32.7644ZM168.485 57.6541H162.029C160.119 57.6541 158.428 58.9502 158.202 60.726C157.937 62.8015 159.621 64.4294 161.91 64.4294H164.761C166.465 64.4294 168.496 64.0146 168.496 62.0371V57.6645C168.496 57.6588 168.491 57.6541 168.485 57.6541Z" fill="#242D41"/>
<path fill-rule="evenodd" clip-rule="evenodd" d="M145.18 59.1967C144.177 57.9875 142.335 57.7811 141.065 58.7353C139.796 59.6895 139.578 61.4438 140.581 62.6538L145.949 68.5997C146.952 69.8088 148.794 70.0153 150.064 69.0611C151.335 68.106 151.551 66.3517 150.548 65.1425L145.18 59.1967Z" fill="#359DCB"/>
<path fill-rule="evenodd" clip-rule="evenodd" d="M131.15 43.6388C130.162 42.4205 128.303 42.1811 126.998 43.1023C125.694 44.0245 125.436 45.7587 126.424 46.977L131.726 52.9714C132.713 54.1888 134.572 54.4283 135.877 53.507C137.182 52.5848 137.439 50.8507 136.451 49.6333L131.15 43.6388Z" fill="#DC3F39"/>
</g>
<defs>
<clipPath id="clip0_298_10060">
<rect width="82.3077" height="40" fill="white" transform="translate(108.438 30)"/>
</clipPath>
</defs>
</svg>
