<svg width="300" height="100" viewBox="0 0 300 100" fill="none" xmlns="http://www.w3.org/2000/svg">
<rect width="300" height="100" fill="white"/>
<path d="M142.098 53.6348C142.132 55.7739 143.732 57.0782 146.046 57.0782H146.428C148.393 57.0782 149.663 56.1565 149.663 54.6435C149.663 53.4261 148.95 52.6782 147.141 52.2956L144.341 51.6174C140.115 50.6087 138.046 48.7652 138.046 45.4087C138.046 41.6 141.35 39.0435 146.254 39.0435C151.628 39.0435 154.602 41.8087 154.672 46.2608H149.854C149.646 44.1217 148.341 42.8174 146.289 42.8174H145.906C144.098 42.8174 142.846 43.8608 142.846 45.2522C142.846 46.4695 143.767 47.1826 145.785 47.6348L148.672 48.3478C152.567 49.3043 154.411 51.113 154.463 54.4174C154.463 58.1043 151.402 60.8348 146.08 60.8348C140.463 60.8348 137.193 58.0695 137.193 53.6174H142.098V53.6348Z" fill="black"/>
<path d="M166.167 39.0435C169.228 39.0435 171.611 40.5043 172.62 42.4869V39.4608H177.437V60.4174H172.62V57.3913C171.576 59.2695 169.176 60.8348 166.167 60.8348C161.559 60.8348 157.072 56.8869 157.072 49.9304C157.072 42.9565 161.211 39.0435 166.167 39.0435ZM167.42 56.9565C170.446 56.9565 172.62 54.1043 172.62 49.9478C172.62 45.7913 170.446 42.9391 167.42 42.9391H167.089C164.115 42.9391 161.889 46 161.889 49.9478C161.889 53.8435 164.115 56.9565 167.089 56.9565H167.42Z" fill="black"/>
<path d="M186.637 42.3132C187.646 40.6436 190.115 39.0436 192.933 39.0436C198.759 39.0436 202.237 43.9479 202.237 49.9479C202.237 55.9479 198.759 60.8522 192.933 60.8522C190.133 60.8522 187.646 59.2523 186.637 57.5827V60.4349H181.854V31.0784H186.637V42.3132ZM191.872 42.9566C188.933 42.9566 186.637 45.9305 186.637 49.9653C186.637 53.9827 188.95 56.974 191.872 56.974H192.202C195.263 56.974 197.402 54.0001 197.402 49.9653C197.402 45.8088 195.298 42.9566 192.202 42.9566H191.872Z" fill="black"/>
<path d="M222.15 56.5217V60.4173H204.115V56.5217H210.724V43.3565H204.15V39.4609H215.559V56.5217H222.15ZM215.524 36.0696H210.724V31.113H215.524V36.0696Z" fill="black"/>
<path d="M123.976 49.9826L104.097 30V43.3217L110.723 49.9826L104.097 56.6435V69.8957L123.976 49.9826Z" fill="black"/>
<path d="M104.098 43.3217L90.8108 30V69.8957L104.098 56.6435V43.3217Z" fill="black"/>
<path d="M84.1497 43.3218L77.541 49.9827L84.1497 56.6436V43.3218Z" fill="black"/>
</svg>
