<svg width="300" height="100" viewBox="0 0 300 100" fill="none" xmlns="http://www.w3.org/2000/svg">
<rect width="300" height="100" fill="white"/>
<g clip-path="url(#clip0_298_10045)">
<path d="M100.564 37.8966C102.734 37.8966 104.493 36.1286 104.493 33.9477C104.493 31.7668 102.734 29.9988 100.564 29.9988C98.3939 29.9988 96.6348 31.7668 96.6348 33.9477C96.6348 36.1286 98.3939 37.8966 100.564 37.8966Z" fill="#4DAE37"/>
<path fill-rule="evenodd" clip-rule="evenodd" d="M86.2829 36.1308C87.9263 36.3396 89.5697 36.6814 91.1376 37.175C92.101 37.4787 93.0644 37.8205 93.9901 38.2192C96.3134 39.2064 98.5236 40.5164 100.526 42.0921C102.547 40.4974 104.757 39.1874 107.1 38.2002C108.025 37.8015 108.989 37.4597 109.952 37.156C111.539 36.6624 113.163 36.3207 114.826 36.1118C115.921 37.2699 116.885 38.5419 117.678 39.9468C116.167 39.9848 114.674 40.1556 113.22 40.4594C111.652 40.7822 110.103 41.2758 108.63 41.9023C106.344 42.8706 104.209 44.1806 102.302 45.8132L100.545 47.5219C98.2024 45.0918 95.4446 43.2123 92.4221 41.9213C90.9487 41.2948 89.4375 40.8201 87.8508 40.4784C86.3962 40.1746 84.9039 40.0038 83.4116 39.9658C84.2239 38.5799 85.1873 37.2889 86.2829 36.1308Z" fill="#4DAE37"/>
<path fill-rule="evenodd" clip-rule="evenodd" d="M99.0523 69.9436C94.1409 69.5639 89.7396 67.3996 86.4906 64.0773C82.977 60.489 80.8047 55.5719 80.8047 50.1421C80.8047 49.6105 80.8236 49.0789 80.8614 48.5474C80.8991 48.0348 80.9747 47.5031 81.0502 46.9526L81.3336 45.2439L83.0526 45.2629C88.4551 45.3389 93.3098 47.5791 96.8422 51.1673C98.3346 52.6861 99.5813 54.4518 100.526 56.3693C101.47 54.4328 102.736 52.6671 104.228 51.1484C107.761 47.5601 112.653 45.3199 118.056 45.2629L119.775 45.2439L120.058 46.9526C120.152 47.5031 120.209 48.0348 120.247 48.5474C120.285 49.0789 120.304 49.6295 120.304 50.1421C120.304 55.5719 118.131 60.508 114.599 64.0961C111.331 67.4186 106.929 69.5829 101.999 69.9436C101.432 69.9626 100.941 70.0005 100.431 70.0005C99.9969 70.0005 99.5436 69.9626 99.0523 69.9436ZM116.299 50.1611C116.299 49.9143 116.299 49.6485 116.28 49.4206C112.71 49.8763 109.499 51.547 107.081 53.9961C104.266 56.8439 102.528 60.7738 102.528 65.1214C102.528 65.3683 102.528 65.634 102.547 65.8618C106.117 65.4061 109.329 63.7355 111.746 61.2864C114.561 58.4386 116.299 54.5086 116.299 50.1611ZM89.3429 61.2674C91.742 63.7165 94.9343 65.3871 98.5046 65.8428C98.5234 65.596 98.5234 65.3493 98.5234 65.1024C98.5234 60.7738 96.8044 56.8439 93.9898 53.9961C91.5909 51.547 88.3984 49.8763 84.8282 49.4206C84.8093 49.6675 84.8094 49.9143 84.8094 50.1611C84.8282 54.4898 86.5472 58.4196 89.3429 61.2674Z" fill="#4DAE37"/>
<path fill-rule="evenodd" clip-rule="evenodd" d="M143.349 46.307C141.271 44.4845 139.175 43.9339 136.379 43.9339C133.111 43.9339 128.823 45.3958 128.823 49.5535C128.823 53.6354 132.865 54.8884 136.247 55.1351C138.797 55.287 139.817 55.7997 139.817 57.0336C139.817 58.3436 138.249 59.2169 136.587 59.198C134.584 59.16 131.675 58.0969 130.41 56.673L128.237 59.8435C130.863 62.5774 133.697 63.0519 136.53 63.0519C141.649 63.0519 144.237 60.3181 144.237 57.1287C144.237 52.3444 139.949 51.5849 136.568 51.3571C134.282 51.2053 133.224 50.5598 133.224 49.3826C133.224 48.2435 134.396 47.598 136.492 47.598C138.192 47.598 139.647 47.9968 140.931 49.2118L143.349 46.307ZM161.087 46.9335C160.067 45.149 157.781 44.0099 155.382 44.0099C150.15 43.9719 146.051 47.2184 146.051 53.4265C146.051 59.7485 149.98 63.033 155.288 62.995C157.29 62.957 160.086 61.9318 161.106 59.8245L161.333 62.4634H165.507V44.4465H161.257L161.087 46.9335ZM155.779 47.9968C162.749 47.9968 162.749 58.9132 155.779 58.9132C152.832 58.9132 150.471 56.8628 150.471 53.4265C150.471 49.9901 152.832 47.9968 155.779 47.9968ZM169.229 36.9284V62.4634H173.63V36.9284H169.229ZM191.575 46.9335C190.555 45.149 188.27 44.0099 185.871 44.0099C180.638 43.9719 176.539 47.2184 176.539 53.4265C176.539 59.7485 180.468 63.033 185.776 62.995C187.779 62.957 190.574 61.9318 191.594 59.8245L191.821 62.4634H195.996V44.4465H191.745L191.575 46.9335ZM186.267 47.9968C193.238 47.9968 193.238 58.9132 186.267 58.9132C183.32 58.9132 180.959 56.8628 180.959 53.4265C180.959 49.9901 183.32 47.9968 186.267 47.9968ZM208.406 48.1676C211.202 48.1676 213.601 50.2939 213.601 53.4265C213.601 56.6729 211.202 58.7234 208.406 58.7234C205.573 58.7234 203.325 56.559 203.325 53.4265C203.325 50.18 205.573 48.1676 208.406 48.1676ZM213.885 46.8956C212.827 45.035 209.88 44.0099 207.991 44.0099C202.758 44.0099 198.867 47.2184 198.867 53.4265C198.867 59.3499 202.834 62.8431 208.105 62.8431C210.276 62.8431 212.506 62.1217 213.885 59.9574L214.167 62.4444H218.305V36.9094H213.885V46.8956Z" fill="#051616"/>
</g>
<defs>
<clipPath id="clip0_298_10045">
<rect width="137.5" height="40" fill="white" transform="translate(80.8047 30)"/>
</clipPath>
</defs>
</svg>
