<svg width="300" height="100" viewBox="0 0 300 100" fill="none" xmlns="http://www.w3.org/2000/svg">
<rect width="300" height="100" fill="white"/>
<g clip-path="url(#clip0_298_9999)">
<mask id="mask0_298_9999" style="mask-type:luminance" maskUnits="userSpaceOnUse" x="49" y="30" width="203" height="40">
<path d="M251.92 30H49.0078V70H251.92V30Z" fill="white"/>
</mask>
<g mask="url(#mask0_298_9999)">
<path d="M63.4262 58.9954C60.1177 58.7403 56.8327 59.7259 54.2111 61.7602C51.5896 63.7945 49.8191 66.7318 49.2446 70H56.0703C56.5125 68.675 57.3603 67.5227 58.4937 66.7062C59.627 65.8896 60.9885 65.4503 62.3853 65.4503C63.7822 65.4503 65.1437 65.8896 66.277 66.7062C67.4104 67.5227 68.2582 68.675 68.7004 70H75.5104C75.0017 67.085 73.5381 64.4218 71.3501 62.4296C69.1621 60.4374 66.3738 59.2293 63.4239 58.9954" fill="#06D665"/>
<path d="M72.3087 52.3501C74.0748 50.397 75.2251 47.966 75.6155 45.3619C76.006 42.7578 75.6192 40.0964 74.5036 37.7112L70.9041 39.3927C71.4343 39.1182 71.8856 38.7126 72.2149 38.2146C72.5442 37.7165 72.7407 37.1425 72.7856 36.5471C72.8306 35.9518 72.7225 35.3548 72.4716 34.8129C72.2208 34.2711 71.8355 33.8024 71.3525 33.4515C69.3899 31.6769 66.9452 30.5242 64.3275 30.1391C61.7098 29.7539 59.0367 30.1537 56.6462 31.2878C54.2557 32.4219 52.2552 34.2393 50.8976 36.5104C49.54 38.7814 48.8864 41.404 49.0193 44.0466C49.1523 46.6891 50.0658 49.2329 51.6445 51.3562C53.2231 53.4795 55.396 55.087 57.8882 55.9755C60.3805 56.8639 63.0802 56.9934 65.646 56.3475C68.2118 55.7015 70.5285 54.3093 72.3031 52.3467M59.3154 37.422C60.5099 36.8627 61.8429 36.6683 63.1474 36.8631C64.4518 37.0579 65.6699 37.6333 66.6488 38.5172C67.1365 39.0948 67.7972 39.5 68.5331 39.6729C69.269 39.8457 70.041 39.7769 70.7348 39.4767L68.2305 40.6493C68.7931 41.8501 68.9869 43.1908 68.7875 44.5018C68.5881 45.8128 68.0044 47.0352 67.1103 48.0144C66.2161 48.9937 65.0517 49.6858 63.7642 50.0032C62.4766 50.3207 61.1239 50.2492 59.877 49.7978C58.6301 49.3464 57.5451 48.5355 56.7592 47.4674C55.9732 46.3994 55.5216 45.1223 55.4615 43.7976C55.4014 42.4728 55.7354 41.1601 56.4214 40.0252C57.1074 38.8904 58.1145 37.9844 59.3154 37.422Z" fill="#06D665"/>
<path fill-rule="evenodd" clip-rule="evenodd" d="M238.079 37.959L242.132 47.7978H242.957L247.009 37.959H251.92L246.973 49.6508V50.273L251.918 62.0321H247.007L242.954 52.126H242.129L238.077 62.0321H233.166L238.111 50.273V49.6508L233.168 37.959H238.079Z" fill="#093A51"/>
<path d="M225.179 37.9634H220.655V62.0297H225.179V37.9634Z" fill="#093A51"/>
<path fill-rule="evenodd" clip-rule="evenodd" d="M197.194 37.9287H212.632V42.268H201.732V47.7844H212.411V52.1394H201.732V62.0601H197.19L197.194 37.9287Z" fill="#093A51"/>
<path fill-rule="evenodd" clip-rule="evenodd" d="M164.785 62.0108V37.978H172.269L176.944 56.8475H177.096L181.671 37.978H189.189V62.0108H184.782V42.9765H184.631L179.72 62.0108H174.254L169.343 42.9765H169.209V62.0108H164.785Z" fill="#093A51"/>
<path fill-rule="evenodd" clip-rule="evenodd" d="M151.063 37.9287H142.519L136.766 62.0601H141.526L142.704 56.8778H150.894L152.071 62.0601H156.797L151.063 37.9287ZM143.646 52.5631L146.472 40.2009H147.094L149.885 52.5463L143.646 52.5631Z" fill="#093A51"/>
<path fill-rule="evenodd" clip-rule="evenodd" d="M113.07 37.9456H128.291V42.2849H117.612V47.8012H127.871V52.1226H117.612V57.7062H128.694V62.0444H113.07V37.9456Z" fill="#093A51"/>
<path fill-rule="evenodd" clip-rule="evenodd" d="M100.32 45.4976C100.318 45.0397 100.219 44.5873 100.031 44.17C99.842 43.7526 99.5678 43.3796 99.2258 43.0752C98.3909 42.3487 97.3036 41.9802 96.1991 42.0495C95.2819 42.0041 94.3725 42.2387 93.5917 42.7221C93.2883 42.9198 93.0407 43.1922 92.8729 43.5132C92.7051 43.8341 92.6225 44.1928 92.6333 44.5549C92.6266 44.927 92.7072 45.2956 92.8687 45.631C93.0549 45.9849 93.3344 46.281 93.6769 46.4874C94.1501 46.7761 94.6588 47.0022 95.1902 47.16C95.9813 47.3921 96.7839 47.5829 97.5947 47.7317C99.6061 47.9967 101.52 48.7596 103.162 49.9513C103.815 50.5199 104.329 51.231 104.664 52.0299C104.999 52.8287 105.146 53.6938 105.094 54.5585V54.9621C105.109 55.9688 104.907 56.9669 104.502 57.8889C104.117 58.7444 103.549 59.5056 102.84 60.1197C102.063 60.7667 101.165 61.2529 100.199 61.5501C97.7288 62.2575 95.1031 62.2047 92.6635 61.3987C91.5857 61.0119 90.6006 60.404 89.7714 59.6141C89.002 58.8536 88.4059 57.9359 88.0238 56.9238C87.618 55.8496 87.4173 54.709 87.4319 53.5608V52.5766H91.8037V53.3501C91.7727 53.9581 91.8639 54.5662 92.0718 55.1384C92.2798 55.7106 92.6003 56.2354 93.0144 56.6816C93.5235 57.1307 94.118 57.4723 94.7623 57.6862C95.4067 57.9 96.0875 57.9815 96.7641 57.9259C97.8205 58.0144 98.8714 57.7018 99.7078 57.0505C100.008 56.7995 100.249 56.486 100.415 56.1317C100.581 55.7775 100.667 55.3913 100.667 55.0002C100.669 54.6319 100.6 54.2668 100.466 53.924C100.321 53.5605 100.083 53.2416 99.7762 52.9992C99.3667 52.6784 98.9063 52.4287 98.4142 52.2605C97.705 52.0017 96.9732 51.81 96.2282 51.6877C95.1393 51.5073 94.0649 51.2484 93.0133 50.9131C92.1052 50.624 91.2487 50.1931 90.4754 49.6363C89.7694 49.1175 89.1984 48.4366 88.8107 47.651C88.3892 46.7349 88.1865 45.7332 88.2188 44.7253V44.5235C88.2121 43.6095 88.4146 42.7061 88.8107 41.8824C89.1965 41.0764 89.7467 40.36 90.426 39.7795C91.1716 39.1772 92.0206 38.7157 92.9314 38.4175C93.9985 38.0798 95.1113 37.9089 96.2305 37.9108C97.4664 37.8948 98.6956 38.0951 99.8625 38.5027C100.852 38.8428 101.762 39.3805 102.537 40.0833C103.236 40.7172 103.787 41.4972 104.151 42.3678C104.522 43.2213 104.706 44.1445 104.691 45.075V46.27H100.319V45.4965L100.32 45.4976Z" fill="#093A51"/>
</g>
</g>
<defs>
<clipPath id="clip0_298_9999">
<rect width="202.912" height="40" fill="white" transform="translate(49.0078 30)"/>
</clipPath>
</defs>
</svg>
