<svg width="300" height="100" viewBox="0 0 300 100" fill="none" xmlns="http://www.w3.org/2000/svg">
<rect width="300" height="100" fill="white"/>
<g clip-path="url(#clip0_298_9983)">
<path fill-rule="evenodd" clip-rule="evenodd" d="M57 50.0807C57 57.5757 61.6465 64.7676 67.7475 67.8787C69.6465 68.8282 72.4747 69.9999 75.2424 69.9999V54.9898C74.4343 55.1918 73.5051 56.4444 72.9192 57.0504C71.6465 58.3231 71.4444 59.0302 69.8283 59.0302C68.8586 59.0302 68.1515 58.2019 68.1515 57.01C68.1515 55.4747 71.3838 53.3332 72.1919 52.1009C68.4949 52.1009 65.2828 52.9494 65.2828 49.9191C65.2828 49.3332 65.6061 48.808 65.9495 48.5656C66.7172 47.9999 70.8384 48.2221 72.1919 48.2221C72.0303 47.5959 70.5758 46.3433 70.0505 45.8181C69.404 45.1918 68.1515 44.2625 68.1515 43.1514C68.1515 41.7373 68.9192 41.1312 70.1717 41.1312C71.3232 41.1312 72.8586 43.0706 73.9293 44.1211C74.3535 44.5656 74.6162 45.01 75.2424 45.1918C75.2424 42.8282 74.5758 40.1211 77.2626 40.1211C78.2121 40.1211 78.8788 40.8484 79.0606 41.6969C79.2424 42.505 79.1212 44.2827 79.1212 45.1918C80.7374 44.1009 82.1717 41.1312 84.3535 41.1312C85.6869 41.1312 86.0505 42.2221 86.0505 43.3332C86.0505 44.2827 84.7172 45.2524 84.1515 45.8181L83.0404 46.909C82.6162 47.3332 82.1515 47.5959 81.9899 48.2221C83.0808 48.2221 87.5455 47.9595 88.2929 48.5252C89.6061 49.5151 89.3838 52.0605 86.7172 52.1211C85.1616 52.1413 83.5657 52.1009 81.9899 52.1009C83.6263 54.5454 86.0505 54.8888 86.0505 57.5151C86.0505 58.9898 84.7172 59.0302 83.8485 59.0302C82.5354 59.0302 80.697 56.0403 79.1212 54.9898V69.9999C81.8687 69.9999 84.4141 68.8686 86.3333 67.9191C92.4949 64.8686 97.1818 57.8181 97.1818 50.9292C97.1818 45.6767 95.8081 40.6868 92.3333 37.0302C90.9192 35.5555 90.4747 34.9292 88.4343 33.5151C75.3232 24.404 57 34.1211 57 50.0807ZM198.677 54.3029V48.909C198.677 46.5454 204.758 46.5454 204.758 48.909V54.3029C204.758 54.9494 204.475 55.2322 204.071 55.4949C202.717 56.3636 198.677 56.3838 198.677 54.3029ZM204.758 44.8484C203.162 44.7272 203.788 44.505 201.04 44.505C198.717 44.505 195.808 45.8181 195.808 48.0605V55.1514C195.808 56.505 196.677 57.212 197.566 57.7777C199.303 58.9292 202.434 58.909 204.434 58.3636C205.889 57.9595 203.949 58.6868 206.778 58.6868C207.162 58.6868 207.626 58.2423 207.626 57.8585V38.9292C207.626 37.8989 205.222 37.5959 204.818 39.01C204.657 39.5959 204.758 40.3433 204.758 40.9696V44.8484ZM147.343 54.3029V48.909C147.343 48.2423 147.606 47.9595 148.01 47.7171C149.182 46.9696 151.586 46.9696 152.737 47.7171C153.141 47.9595 153.424 48.2423 153.424 48.909V54.3029C153.424 56.3838 149.364 56.3636 148.01 55.4949C147.606 55.2322 147.343 54.9494 147.343 54.3029ZM153.424 44.8484C151.848 44.7272 152.455 44.505 149.707 44.505C147.384 44.505 144.475 45.8181 144.475 48.0605V55.1514C144.475 56.505 145.343 57.212 146.232 57.7777C147.97 58.9292 151.101 58.909 153.101 58.3636C154.556 57.9595 152.616 58.6868 155.444 58.6868C155.828 58.6868 156.293 58.2423 156.293 57.8585V38.9292C156.293 37.8989 153.889 37.5959 153.485 39.01C153.323 39.5959 153.424 40.3433 153.424 40.9696V44.8484ZM161.182 54.3029V48.909C161.182 48.2423 161.444 47.9595 161.848 47.7171C163.02 46.9696 165.424 46.9696 166.596 47.7171C167 47.9595 167.263 48.2423 167.263 48.909V54.3029C167.263 56.3838 163.222 56.3636 161.848 55.4949C161.444 55.2322 161.182 54.9494 161.182 54.3029ZM158.313 38.9292V57.8585C158.313 58.8686 159.667 58.6868 160.172 58.6868C160.576 58.6868 160.677 58.4242 161.02 58.1817C162.899 59.0908 166.576 58.808 168.253 57.8181C168.919 57.4343 170.131 56.3029 170.131 55.313V48.0605C170.131 45.8383 167.202 44.505 164.899 44.505C162.152 44.505 162.758 44.7272 161.182 44.8484V40.9696C161.182 38.3838 161.222 38.1009 159.162 38.1009C158.758 38.1009 158.313 38.5454 158.313 38.9292ZM133.485 48.909C133.485 46.5454 139.566 46.5454 139.566 48.909V49.5757H133.485V48.909ZM130.616 48.0605V55.1514C130.616 60.1413 142.434 59.5757 142.434 55.313C142.434 53.2322 142.556 53.1312 140.576 53.1312C139.242 53.1312 140.071 55.9999 137.545 55.9999C133.283 55.9999 133.485 55.5959 133.485 52.1009H141.606C142.818 52.1009 142.434 49.7777 142.434 48.0605C142.434 45.8383 139.505 44.505 137.202 44.505H135.848C133.525 44.505 130.616 45.8181 130.616 48.0605ZM119.646 48.909C119.646 46.8282 123.687 46.8484 125.061 47.7171C125.828 48.2019 125.727 48.6666 125.727 49.5757H119.646V48.909ZM116.778 48.0605V55.1514C116.778 60.1413 128.596 59.5757 128.596 55.313C128.596 53.2322 128.717 53.1312 126.737 53.1312C125.404 53.1312 126.232 55.9999 123.707 55.9999C119.424 55.9999 119.646 55.5959 119.646 52.1009H127.747C128.98 52.1009 128.596 49.7777 128.596 48.0605C128.596 45.8383 125.667 44.505 123.364 44.505H122.01C119.687 44.505 116.778 45.8181 116.778 48.0605ZM212.515 48.909C212.515 46.5454 218.596 46.5454 218.596 48.909V49.5757H212.515V48.909ZM209.646 48.0605V55.1514C209.646 56.505 210.535 57.212 211.404 57.7777C214.253 59.6565 221.465 58.6262 221.465 55.313C221.465 53.2322 221.586 53.1312 219.606 53.1312C218.697 53.1312 218.717 54.2625 218.475 54.8686C217.848 56.4646 212.515 56.6262 212.515 54.3029V52.1009H220.616C221.848 52.1009 221.465 49.7777 221.465 48.0605C221.465 45.8383 218.535 44.505 216.232 44.505H214.879C212.556 44.505 209.646 45.8181 209.646 48.0605ZM231.424 47.7171V48.909C231.424 54.3433 240.374 51.8585 240.374 54.3029C240.374 56.3231 238.111 56.1615 236.495 56.1615C232.96 56.1615 235.485 52.7878 232.778 52.7878C231.141 52.7878 231.424 54.1009 231.424 55.4949C231.424 57.313 234.273 58.8686 236.657 58.8686C238.596 58.8686 239.869 58.9696 241.606 57.8787C243.242 56.8686 243.242 55.7171 243.242 54.1413C243.242 49.2322 234.293 51.3737 234.293 49.0706C234.293 46.808 236.152 47.0504 238.354 47.0504C239 47.0504 240.071 47.6363 240.273 48.1615C240.697 49.2726 240.091 50.0807 242.071 50.0807C243.485 50.0807 243.242 49.0302 243.242 48.0605C243.242 45.8787 240.576 44.3433 238.354 44.3433C236.556 44.3433 234.717 44.2423 233.182 45.2524C232.475 45.7171 231.424 46.6666 231.424 47.7171ZM102.758 47.7171V48.909C102.758 54.3433 111.707 51.8585 111.707 54.3029C111.707 56.3231 109.444 56.1615 107.828 56.1615C104.293 56.1615 106.818 52.7878 104.111 52.7878C102.475 52.7878 102.758 54.1009 102.758 55.4949C102.758 57.313 105.606 58.8686 107.99 58.8686C109.929 58.8686 111.202 58.9696 112.939 57.8787C114.576 56.8686 114.576 55.7171 114.576 54.1413C114.576 49.2322 105.626 51.3737 105.626 49.0706C105.626 46.808 107.485 47.0504 109.687 47.0504C111.768 47.0504 111.747 49.1514 111.869 49.4141C112.414 50.5454 114.576 50.1615 114.576 49.2322V48.0605C114.576 45.8787 111.909 44.3433 109.687 44.3433C107.889 44.3433 106.051 44.2423 104.515 45.2524C103.808 45.7171 102.758 46.6666 102.758 47.7171ZM172.333 45.3534V55.1514C172.333 57.3939 175.242 58.6868 177.566 58.6868H178.919C181.222 58.6868 184.152 57.3737 184.152 55.1514V45.3534C184.152 44.3231 181.869 44.0403 181.384 45.2928C181.202 45.7575 181.283 46.4646 181.283 47.0504V54.3029C181.101 56.4848 177.242 56.2827 175.97 55.5555C174.717 54.8282 175.202 53.1918 175.202 50.7676L175.141 45.4141C174.737 43.9999 172.333 44.3029 172.333 45.3534ZM190.899 38.9292V57.8585C190.899 58.9898 193.768 59.2524 193.768 57.3534V39.4545C193.768 37.5353 190.899 37.7979 190.899 38.9292ZM223.485 45.3534V57.8585C223.485 58.909 226.111 59.2928 226.354 57.4949V50.5858C226.354 48.5656 226.152 47.9595 227.707 47.3737C229.081 46.8484 230.758 47.7373 230.758 45.6969C230.758 43.8181 227.869 44.505 226.798 44.808C224.96 45.313 227.141 44.505 224.333 44.505C223.949 44.505 223.485 44.9696 223.485 45.3534ZM186.172 45.3534V57.8585C186.172 58.9898 189.04 59.2524 189.04 57.3534V45.8585C189.04 43.9595 186.172 44.2221 186.172 45.3534ZM186.172 38.9292C186.172 41.1918 186.03 41.2928 188.03 41.2928C189.384 41.2928 189.384 38.1009 188.03 38.1009C187.525 38.1009 186.172 37.9191 186.172 38.9292Z" fill="#1AA657"/>
</g>
<defs>
<clipPath id="clip0_298_9983">
<rect width="186.263" height="40" fill="white" transform="translate(57 30)"/>
</clipPath>
</defs>
</svg>
