<svg width="300" height="100" viewBox="0 0 300 100" fill="none" xmlns="http://www.w3.org/2000/svg">
<rect width="300" height="100" fill="white"/>
<path fill-rule="evenodd" clip-rule="evenodd" d="M152.262 40.4368L152.165 40.674L152.474 41.1047L152.461 41.1008C154.932 41.902 156.856 43.936 157.502 46.4716H158.097C157.408 43.5486 155.148 41.2207 152.262 40.4368Z" fill="#68BC52"/>
<path fill-rule="evenodd" clip-rule="evenodd" d="M157.494 50.2549C156.643 53.5305 153.657 55.9619 150.121 55.9619C146.586 55.9619 143.6 53.5305 142.75 50.2549H142.154C143.018 53.8529 146.265 56.5418 150.121 56.5418C153.979 56.5418 157.225 53.8529 158.089 50.2549" fill="#68BC52"/>
<path fill-rule="evenodd" clip-rule="evenodd" d="M159.682 48.4113C159.682 48.6477 159.64 48.8687 159.557 49.0721C159.473 49.2763 159.35 49.4589 159.188 49.619C159.026 49.7767 158.839 49.8974 158.628 49.9813C158.417 50.0643 158.191 50.1066 157.953 50.1066C157.712 50.1066 157.486 50.0644 157.276 49.9813C157.065 49.8974 156.878 49.7752 156.714 49.615C156.555 49.4589 156.433 49.2787 156.351 49.076C156.269 48.8726 156.227 48.6508 156.227 48.4113C156.227 48.1718 156.269 47.9495 156.351 47.7442C156.433 47.5404 156.555 47.3594 156.714 47.2033C156.876 47.0449 157.063 46.9237 157.273 46.8408C157.484 46.7572 157.711 46.7155 157.953 46.7155C158.196 46.7155 158.423 46.7572 158.633 46.8408C158.844 46.9236 159.031 47.0449 159.195 47.2033C159.353 47.3609 159.474 47.5427 159.557 47.7467C159.64 47.9517 159.682 48.1732 159.682 48.4113ZM157.953 49.0208C158.117 49.0208 158.248 48.965 158.347 48.8542C158.447 48.7429 158.497 48.5959 158.497 48.4113C158.497 48.226 158.447 48.0777 158.347 47.9647C158.248 47.8525 158.117 47.7956 157.953 47.7956C157.79 47.7956 157.658 47.8524 157.558 47.9661C157.458 48.0791 157.408 48.2277 157.408 48.4113C157.408 48.5959 157.458 48.7429 157.558 48.8542C157.658 48.9651 157.79 49.0208 157.953 49.0208ZM155.828 48.0716C155.721 47.9695 155.614 47.8937 155.503 47.8439C155.392 47.7935 155.276 47.7685 155.154 47.7685C154.964 47.7685 154.811 47.8272 154.696 47.9441C154.58 48.0608 154.523 48.217 154.523 48.4113C154.523 48.6014 154.578 48.7523 154.688 48.8658C154.798 48.9797 154.947 49.036 155.132 49.036C155.244 49.036 155.357 49.0121 155.473 48.9646C155.589 48.9162 155.714 48.8408 155.852 48.7361L155.814 49.9524C155.687 50.0037 155.561 50.0429 155.434 50.0685C155.308 50.0942 155.181 50.1066 155.054 50.1066C154.897 50.1066 154.745 50.0899 154.6 50.0543C154.454 50.0189 154.323 49.9681 154.204 49.9033C153.919 49.7391 153.703 49.5304 153.557 49.2786C153.41 49.027 153.337 48.7385 153.337 48.4113C153.337 48.1701 153.378 47.9463 153.462 47.7397C153.545 47.5338 153.667 47.3524 153.825 47.1949C153.985 47.0361 154.172 46.9155 154.382 46.8339C154.594 46.7517 154.822 46.7112 155.068 46.7112C155.199 46.7112 155.328 46.7246 155.456 46.7517C155.583 46.779 155.707 46.8198 155.828 46.8748V48.0716H155.828ZM148.323 50.0208V46.789H149.263C149.562 46.789 149.817 46.8053 150.028 46.8383C150.239 46.8717 150.411 46.9229 150.543 46.9922C150.823 47.1393 151.038 47.3343 151.188 47.5771C151.337 47.8196 151.412 48.0965 151.412 48.4065C151.412 48.7165 151.337 48.9913 151.189 49.2325C151.04 49.474 150.826 49.6689 150.543 49.8174C150.407 49.8882 150.233 49.9401 150.022 49.9725C149.813 50.0049 149.53 50.0207 149.177 50.0207L148.323 50.0208ZM149.475 49.0341C149.737 49.0321 149.929 48.9809 150.05 48.8802C150.17 48.7799 150.231 48.6216 150.231 48.4066C150.231 48.1964 150.173 48.0398 150.057 47.9366C149.941 47.8333 149.764 47.7821 149.525 47.7821H149.475V49.0341ZM145.665 50.0208V46.789H147.826V47.6652H146.804V47.9767H147.731V48.8049H146.804V49.1445H147.852V50.0209H145.665V50.0208ZM143.007 50.0208V46.789H145.168V47.6652H144.146V47.9767H145.073V48.8049H144.146V49.1445H145.194V50.0209H143.007V50.0208ZM139.952 49.7452L139.95 48.5617L140.323 48.8403C140.489 48.9561 140.637 49.0413 140.767 49.0947C140.897 49.1484 141.02 49.1755 141.133 49.1755C141.212 49.1755 141.275 49.1605 141.32 49.1302C141.366 49.1 141.389 49.0593 141.389 49.0075C141.389 48.9177 141.275 48.849 141.047 48.8024C140.973 48.7858 140.916 48.7736 140.874 48.7645C140.633 48.7059 140.449 48.6013 140.32 48.4512C140.192 48.3013 140.128 48.1141 140.128 47.8907C140.128 47.5429 140.253 47.2607 140.501 47.0426C140.75 46.8252 141.076 46.7156 141.48 46.7156C141.665 46.7156 141.848 46.74 142.027 46.789C142.207 46.8371 142.388 46.911 142.571 47.0094L142.564 48.1657L142.217 47.8552C142.106 47.773 141.993 47.7097 141.88 47.6661C141.768 47.6232 141.659 47.6014 141.552 47.6014C141.472 47.6014 141.409 47.6149 141.365 47.6418C141.32 47.6688 141.299 47.7074 141.299 47.7558C141.299 47.8469 141.46 47.9274 141.782 47.996C141.833 48.0084 141.873 48.0171 141.901 48.0232C142.123 48.0729 142.298 48.1753 142.427 48.3297C142.555 48.4845 142.619 48.6712 142.619 48.8904C142.619 49.2478 142.49 49.5403 142.231 49.7673C141.973 49.9937 141.637 50.1065 141.223 50.1065C141.011 50.1065 140.799 50.0765 140.588 50.0162C140.375 49.956 140.164 49.8656 139.952 49.7452Z" fill="#68BC52"/>
<path fill-rule="evenodd" clip-rule="evenodd" d="M152.368 47.9585L152.992 48.9666L151.725 48.9904" fill="#68BC52"/>
<path d="M153.091 39.9685L153.086 39.8834L153.077 39.8046L153.064 39.7311L153.047 39.6632L153.025 39.6012L153 39.5444L152.969 39.4938L152.933 39.4489L152.919 39.4358L152.917 39.3741L152.912 39.2803L152.906 39.1894C152.89 38.9999 152.861 38.8102 152.801 38.629L152.777 38.5608L152.75 38.496L152.72 38.4343C152.507 38.0327 152.138 37.951 151.719 38.0481L151.63 38.0705L151.539 38.0982L151.443 38.1315L151.437 38.1343C151.078 38.379 150.899 38.7086 150.904 39.1437L150.906 39.2165L150.912 39.2901L150.921 39.3645C150.945 39.5469 150.994 39.7262 151.05 39.901L151.077 39.9798L151.105 40.059L151.135 40.1385L151.166 40.2182L151.198 40.2983L151.22 40.3539L151.203 40.3866L151.172 40.4427L151.141 40.4982L151.11 40.5534L151.078 40.6084L151.046 40.6622L151.021 40.7039L150.726 37.8144C150.68 37.3784 149.811 37.3889 149.692 37.7696L149.682 37.8094L149.685 37.797L149.682 37.8101V37.8102L149.196 40.6342L149.166 40.583L149.134 40.5283L149.103 40.4729L149.072 40.4173L149.041 40.3614L149.024 40.3285L149.046 40.273L149.078 40.193L149.109 40.1132L149.138 40.0337L149.167 39.9543L149.193 39.8758L149.218 39.7974C149.272 39.6235 149.314 39.4462 149.332 39.2648L149.338 39.1912L149.34 39.1182L149.34 39.0466C149.349 38.6703 149.061 38.181 148.705 38.0727L148.613 38.045L148.525 38.0228L148.441 38.0054L148.359 37.9937C147.888 37.9392 147.588 38.1626 147.443 38.6037L147.42 38.6749L147.401 38.7491L147.384 38.8268C147.345 39.0189 147.33 39.215 147.325 39.4106L147.31 39.4236L147.275 39.4686C147.168 39.6209 147.15 39.8535 147.152 40.0336L147.155 40.1302L147.162 40.2326L147.172 40.3404L147.196 40.5542L147.282 40.3566C147.716 39.3563 148.025 39.8953 148.302 40.6117L148.328 40.6856L148.294 40.731L148.241 40.8008C147.69 41.4122 146.805 42.8654 148.051 43.2562L148.094 43.2638L148.138 43.2698C148.745 43.3211 149.082 42.8835 149.667 42.7918L149.698 42.7858L149.728 42.7804V43.4153H150.437V42.7812L150.465 42.7879L150.496 42.7953C151.053 42.955 151.38 43.4195 152.056 43.3736L152.099 43.3677L152.142 43.3598C153.373 42.9838 152.545 41.4517 152.003 40.8274L151.95 40.7566L151.916 40.7113L151.942 40.6367C152.218 39.9206 152.529 39.3815 152.961 40.3822L153.047 40.5793L153.071 40.3659L153.082 40.2578L153.088 40.1554L153.091 40.0589M148.283 39.5951L148.197 39.5375C148.01 39.4182 147.732 39.2653 147.501 39.3147L147.468 39.3244L147.469 39.3228L147.505 39.2672C147.699 38.9802 148.078 38.4343 148.476 38.7447L148.51 38.7719L148.513 38.7749C148.781 38.9502 148.718 39.5745 148.691 39.8412L148.685 39.8983L148.684 39.9086L148.662 39.8902L148.563 39.8067L148.466 39.7298L148.373 39.6592L148.283 39.5951ZM149.299 42.263L149.26 42.2682C148.238 42.4061 148.111 42.2842 148.454 41.2547L148.46 41.2387L148.486 41.2782C148.729 41.6333 149.014 41.9551 149.323 42.2542L149.327 42.2586L149.299 42.263ZM149.398 40.9541L149.364 40.9024L149.33 40.8499L149.296 40.7974L149.287 40.783L149.796 37.8296L149.802 37.8044L149.811 37.7807L149.824 37.7585L149.84 37.7374L149.843 37.7333L149.436 41.0102L149.432 41.0056L149.398 40.9541ZM149.686 41.3542L149.649 41.3057L149.612 41.2564L149.575 41.2072L149.539 41.1574L149.533 41.1491L149.973 37.6465L149.986 37.6409L149.716 41.3917L149.686 41.3542ZM149.958 41.6846L149.919 41.6387L149.879 41.5921L149.84 41.5453L149.821 41.5234L150.104 37.6098L150.113 37.6086L150.039 41.7748L150 41.7303L149.958 41.6846ZM150.328 41.6497L150.287 41.6942L150.247 41.7378L150.207 41.7814L150.166 41.8244L150.152 41.8378L150.229 37.6008L150.244 37.601L150.373 41.5978L150.367 41.6047L150.328 41.6497ZM150.596 41.3251L150.558 41.373L150.521 41.4202L150.484 41.4662L150.36 37.6147L150.362 37.615L150.397 37.6238L150.403 37.6255L150.639 41.2692L150.633 41.2772L150.596 41.3251ZM150.881 40.9265L150.846 40.978L150.811 41.0289L150.777 41.0794L150.743 41.1261L150.522 37.6814L150.537 37.6931L150.558 37.7114L150.575 37.7312L150.588 37.7523L150.599 37.7749L150.607 37.799L150.611 37.8254L150.924 40.8599L150.914 40.8743L150.881 40.9265ZM151.92 41.7114L151.929 41.7524C151.962 41.9094 152.001 42.1704 151.843 42.2766V42.277L151.83 42.2854C151.628 42.3882 151.168 42.3153 150.945 42.288L150.917 42.2839L150.921 42.2795C151.228 41.981 151.517 41.658 151.757 41.303L151.784 41.2639L151.79 41.2799C151.829 41.3948 151.867 41.5099 151.898 41.6272L151.91 41.6694L151.92 41.7114ZM152.743 39.3401L152.686 39.3316C152.322 39.3069 151.842 39.6969 151.582 39.9156L151.56 39.9342L151.559 39.9238L151.552 39.8668C151.526 39.5972 151.463 38.9819 151.729 38.8017L151.732 38.7992L151.734 38.7975C152.143 38.4342 152.532 38.985 152.739 39.2927L152.775 39.3485L152.776 39.3496L152.743 39.3401Z" fill="#68BC52"/>
<path d="M134.117 58.5466H133.606V58.1848H135.086V58.5466H134.573V59.9677H134.117" fill="#68BC52"/>
<path d="M135.21 58.1848H135.641V58.8223C135.741 58.681 135.867 58.6159 136.046 58.6159C136.322 58.6159 136.47 58.7699 136.47 59.0627V59.9678H136.039V59.3059C136.039 59.0627 136.029 58.9461 135.858 58.9461C135.701 58.9461 135.639 59.0479 135.639 59.2633V59.9679H135.211" fill="#68BC52"/>
<path d="M137.949 59.5533C137.872 59.8414 137.636 60.0076 137.3 60.0076C136.893 60.0076 136.637 59.7441 136.637 59.3158C136.637 58.8738 136.898 58.6064 137.3 58.6064C137.713 58.6064 137.971 58.8767 137.971 59.3359C137.971 59.3604 137.971 59.3877 137.969 59.4124H137.078C137.078 59.5983 137.16 59.6972 137.314 59.6972C137.431 59.6972 137.505 59.648 137.535 59.5534M137.557 59.1694C137.554 58.9981 137.46 58.8992 137.311 58.8992C137.173 58.8992 137.083 58.9931 137.066 59.1694H137.557Z" fill="#68BC52"/>
<path d="M139.814 58.1851L140.444 59.968H139.953L139.844 59.6403H139.249L139.147 59.968H138.674L139.316 58.1851M139.747 59.271L139.549 58.6562L139.358 59.271H139.747Z" fill="#68BC52"/>
<path d="M140.614 58.9483H140.425V58.6831H140.614C140.611 58.6535 140.611 58.6241 140.611 58.5967C140.611 58.2887 140.74 58.1704 141.07 58.1704C141.117 58.1704 141.181 58.1724 141.258 58.1776V58.4655C141.236 58.4627 141.213 58.4627 141.196 58.4627C141.072 58.4627 141.045 58.5075 141.045 58.6462V58.6832H141.258V58.9484H141.045V59.9679H140.614" fill="#68BC52"/>
<path d="M141.382 58.6511H141.797V58.8817C141.888 58.7009 142.019 58.6213 142.231 58.6191V59.0453C142.193 59.0401 142.156 59.0379 142.124 59.0379C141.992 59.0379 141.908 59.0751 141.856 59.1599C141.816 59.2268 141.811 59.3456 141.811 59.5262V59.968H141.382" fill="#68BC52"/>
<path d="M142.38 58.1851H142.809V58.5323H142.38V58.1851ZM142.38 58.6511H142.809V59.968H142.38V58.6511Z" fill="#68BC52"/>
<path d="M143.64 60.0101C143.245 60.0101 142.987 59.7346 142.987 59.3225C142.987 58.8738 143.25 58.604 143.662 58.604C144.024 58.604 144.257 58.7974 144.284 59.1169H143.85C143.825 58.996 143.761 58.9338 143.659 58.9338C143.511 58.9338 143.431 59.0626 143.431 59.3107C143.431 59.551 143.503 59.67 143.654 59.67C143.766 59.67 143.833 59.608 143.858 59.4791H144.282C144.24 59.814 144.001 60.0101 143.64 60.0101Z" fill="#68BC52"/>
<path d="M145.23 59.9678C145.219 59.9257 145.212 59.8807 145.207 59.8312C145.086 59.9527 144.952 60.01 144.788 60.01C144.53 60.01 144.377 59.8561 144.377 59.623C144.377 59.4024 144.493 59.2682 144.726 59.2139C145.031 59.1419 145.195 59.1615 145.195 59.0604V59.0279C145.195 58.951 145.135 58.9112 145.023 58.9112C144.9 58.9112 144.828 58.9631 144.81 59.0604H144.413C144.456 58.7603 144.659 58.6189 145.034 58.6189C145.264 58.6189 145.426 58.6731 145.517 58.7899C145.599 58.8963 145.604 59.0303 145.604 59.2111V59.7098C145.604 59.8263 145.624 59.8955 145.668 59.9183V59.9676M144.927 59.4274C144.83 59.4545 144.786 59.4944 144.786 59.5739C144.786 59.6652 144.847 59.7297 144.944 59.7297C145.091 59.7297 145.195 59.6381 145.195 59.4991V59.3479C145.12 59.3948 145.023 59.4001 144.927 59.4274Z" fill="#68BC52"/>
<path d="M145.843 58.6511H146.264V58.8323C146.353 58.6887 146.482 58.6191 146.663 58.6191C146.983 58.6191 147.103 58.7751 147.103 59.1125V59.9679H146.671V59.3059C146.671 59.0629 146.661 58.9461 146.49 58.9461C146.333 58.9461 146.271 59.048 146.271 59.2635V59.968H145.843" fill="#68BC52"/>
<path d="M148.402 59.3754C148.408 59.5786 148.522 59.6828 148.739 59.6828C148.931 59.6828 149.033 59.6157 149.033 59.5061C149.033 59.4473 149.005 59.4025 148.963 59.3802C148.856 59.3256 148.653 59.2909 148.392 59.1865C148.135 59.0851 148.001 58.9137 148.001 58.693C148.001 58.3586 148.266 58.1355 148.712 58.1355C149.146 58.1355 149.411 58.368 149.411 58.7234H148.983C148.963 58.557 148.866 58.4801 148.682 58.4801C148.529 58.4801 148.435 58.552 148.435 58.6411C148.435 58.7749 148.574 58.8025 148.853 58.8941C149.059 58.9612 149.208 59.0085 149.295 59.0778C149.411 59.1719 149.471 59.3008 149.471 59.4545C149.471 59.8012 149.196 60.0176 148.695 60.0176C148.231 60.0176 147.991 59.8067 147.964 59.3755" fill="#68BC52"/>
<path d="M150.905 59.5533C150.828 59.8414 150.593 60.0076 150.256 60.0076C149.849 60.0076 149.594 59.7441 149.594 59.3158C149.594 58.8738 149.853 58.6064 150.256 58.6064C150.669 58.6064 150.927 58.8767 150.927 59.3359C150.927 59.3604 150.927 59.3877 150.925 59.4124H150.034C150.034 59.5983 150.117 59.6972 150.27 59.6972C150.387 59.6972 150.461 59.648 150.491 59.5534M150.514 59.1694C150.51 58.9981 150.416 58.8992 150.268 58.8992C150.129 58.8992 150.039 58.9931 150.022 59.1694H150.514Z" fill="#68BC52"/>
<path d="M152.336 59.5533C152.259 59.8414 152.024 60.0076 151.686 60.0076C151.28 60.0076 151.025 59.7441 151.025 59.3158C151.025 58.8738 151.285 58.6064 151.686 58.6064C152.101 58.6064 152.358 58.8767 152.358 59.3359C152.358 59.3604 152.358 59.3877 152.356 59.4124H151.466C151.466 59.5983 151.548 59.6972 151.701 59.6972C151.818 59.6972 151.892 59.648 151.922 59.5534M151.945 59.1694C151.942 58.9981 151.848 58.8992 151.699 58.8992C151.56 58.8992 151.471 58.9931 151.453 59.1694H151.945Z" fill="#68BC52"/>
<path d="M153.837 59.9703H153.406V59.7939C153.309 59.938 153.185 60.0049 153.016 60.0049C152.692 60.0049 152.461 59.7325 152.461 59.3159C152.461 58.8895 152.699 58.6118 153.011 58.6118C153.185 58.6118 153.321 58.683 153.408 58.8169V58.1848H153.837M153.162 59.6602C153.326 59.6602 153.413 59.5362 153.413 59.2954C153.413 59.0726 153.319 58.9484 153.158 58.9484C153.006 58.9484 152.907 59.0778 152.907 59.2954C152.907 59.5339 152.999 59.6602 153.162 59.6602Z" fill="#68BC52"/>
<path d="M155.591 60.0174C155.073 60.0174 154.72 59.6479 154.72 59.0901C154.72 58.5122 155.073 58.1399 155.619 58.1399C156.05 58.1399 156.342 58.383 156.381 58.7776H155.953C155.911 58.6063 155.794 58.5194 155.603 58.5194C155.356 58.5194 155.19 58.7254 155.19 59.0851C155.19 59.4417 155.343 59.6356 155.591 59.6356C155.797 59.6356 155.923 59.534 155.954 59.3433H156.377C156.315 59.7714 156.027 60.0174 155.591 60.0174Z" fill="#68BC52"/>
<path d="M157.192 58.6042C157.63 58.6042 157.89 58.8693 157.89 59.308C157.89 59.7473 157.63 60.0126 157.192 60.0126C156.752 60.0126 156.494 59.7492 156.494 59.308C156.494 58.8669 156.755 58.6042 157.192 58.6042ZM157.192 59.6826C157.353 59.6826 157.449 59.5513 157.449 59.308C157.449 59.065 157.352 58.9362 157.192 58.9362C157.03 58.9362 156.936 59.065 156.936 59.308C156.936 59.5513 157.03 59.6826 157.192 59.6826Z" fill="#68BC52"/>
<path d="M158.07 58.6511H158.483V58.8323C158.57 58.6887 158.697 58.6191 158.875 58.6191C159.066 58.6191 159.19 58.6887 159.255 58.8323C159.341 58.6887 159.472 58.6191 159.648 58.6191C159.932 58.6191 160.078 58.7777 160.078 59.0854V59.9679H159.656V59.2166C159.656 59.0281 159.614 58.946 159.468 58.946C159.326 58.946 159.264 59.0501 159.264 59.2634V59.9679H158.883V59.2166C158.883 59.0281 158.84 58.946 158.694 58.946C158.554 58.946 158.49 59.0501 158.49 59.2634V59.9679H158.07" fill="#68BC52"/>
<path d="M160.324 58.651H160.756V58.8272C160.852 58.6831 160.976 58.616 161.145 58.616C161.469 58.616 161.701 58.8896 161.701 59.3058C161.701 59.7324 161.463 60.0102 161.15 60.0102C160.976 60.0102 160.839 59.9382 160.753 59.804V60.4956H160.324M160.998 58.961C160.835 58.961 160.749 59.0853 160.749 59.3258C160.749 59.5489 160.845 59.6703 161.006 59.6703C161.157 59.6703 161.254 59.544 161.254 59.3258C161.254 59.0876 161.162 58.961 160.998 58.961Z" fill="#68BC52"/>
<path d="M162.661 59.9678C162.65 59.9257 162.643 59.8807 162.639 59.8312C162.517 59.9527 162.383 60.01 162.219 60.01C161.962 60.01 161.808 59.8561 161.808 59.623C161.808 59.4024 161.924 59.2682 162.158 59.2139C162.462 59.1419 162.626 59.1615 162.626 59.0604V59.0279C162.626 58.951 162.566 58.9112 162.455 58.9112C162.331 58.9112 162.259 58.9631 162.241 59.0604H161.845C161.887 58.7603 162.09 58.6189 162.465 58.6189C162.695 58.6189 162.856 58.6731 162.948 58.7899C163.03 58.8963 163.035 59.0303 163.035 59.2111V59.7098C163.035 59.8263 163.055 59.8955 163.1 59.9183V59.9676M162.359 59.4274C162.262 59.4545 162.217 59.4944 162.217 59.5739C162.217 59.6652 162.278 59.7297 162.376 59.7297C162.521 59.7297 162.626 59.6381 162.626 59.4991V59.3479C162.552 59.3948 162.455 59.4001 162.359 59.4274Z" fill="#68BC52"/>
<path d="M163.274 58.6511H163.695V58.8323C163.784 58.6887 163.913 58.6191 164.094 58.6191C164.413 58.6191 164.533 58.7751 164.533 59.1125V59.9679H164.102V59.3059C164.102 59.0629 164.092 58.9461 163.921 58.9461C163.765 58.9461 163.703 59.048 163.703 59.2635V59.968H163.274" fill="#68BC52"/>
<path d="M165.278 60.4689C165.193 60.506 165.08 60.506 164.933 60.506H164.819V60.1636H164.904C165.044 60.1636 165.111 60.1387 165.111 60.0298C165.111 59.9778 165.085 59.911 165.047 59.8164L164.604 58.6511H165.067L165.315 59.549L165.569 58.6511H166.027L165.501 60.1143C165.432 60.3053 165.38 60.4238 165.278 60.4689Z" fill="#68BC52"/>
<path fill-rule="evenodd" clip-rule="evenodd" d="M147.727 41.119L148.059 40.6086L147.992 40.4341C145.101 41.2154 142.837 43.545 142.147 46.4718H142.742C143.384 43.9541 145.285 41.931 147.73 41.1179" fill="#68BC52"/>
</svg>
