<svg width="300" height="100" viewBox="0 0 300 100" fill="none" xmlns="http://www.w3.org/2000/svg">
<rect width="300" height="100" fill="white"/>
<path d="M125.092 40.832C124.387 42.9479 125.233 45.3452 126.996 47.8485C133.096 44.5339 139.584 42.4893 142.652 41.7493C147.658 40.4794 148.117 45.9518 147.87 45.8751C144.062 45.2739 135.78 47.1432 128.937 50.423C131.404 53.7375 132.462 56.6355 131.65 60.542C130.346 66.5352 124.106 69.7091 118.958 67.6279C115.644 66.3233 113 61.9526 116.243 57.0155C117.795 54.5835 120.08 52.4329 122.695 50.5637C120.685 47.2144 120.431 43.37 122.202 40.3734C124.493 36.5363 128.866 34.7328 131.721 36.0374C135.847 37.9761 134.612 41.8552 132.491 43.3006C128.436 46.0414 127.344 41.6433 127.344 41.6433C131.61 40.6566 131.891 38.1533 130.552 37.5175C128.089 36.3901 125.913 38.4347 125.092 40.832ZM124.387 52.961C122.52 54.24 120.932 55.6049 119.874 57.0155C116.95 60.9641 117.97 65.0187 120.263 66.0419C123.119 67.4178 126.715 65.9706 127.702 62.1628C128.471 59.2374 127.384 56.7689 124.387 52.961Z" fill="#5A0B4D"/>
<path d="M139.434 58.9195C143.348 57.2275 143.56 50.529 142.149 50.1489C140.704 49.7268 139.226 53.288 138.588 55.72C137.813 58.6436 138.024 62.6305 140.81 63.1951C143.772 63.7944 147.297 61.3972 148.355 58.47C148.354 58.4653 148.355 58.4606 148.357 58.4563C148.359 58.4519 148.362 58.448 148.365 58.4448C148.369 58.4415 148.373 58.439 148.377 58.4374C148.382 58.4357 148.386 58.435 148.391 58.4353C149.06 58.2233 149.59 58.6819 149.166 59.8111C147.72 63.4765 143.242 66.2283 138.659 65.2398C135.979 64.6404 133.054 61.2565 133.969 56.2499C134.921 51.2434 138.588 47.8576 143.173 48.6689C149.696 49.8675 147.792 57.4833 139.365 60.2679C139.372 60.2588 138.102 59.5188 139.434 58.9195Z" fill="#5A0B4D"/>
<path d="M151.746 54.5836C151.252 58.5321 151.676 62.3053 153.156 62.8681C154.214 63.292 155.696 60.9641 156.577 58.4262H156.648C157.282 58.1795 157.847 58.6728 157.379 59.802C156.074 63.1513 153.253 65.936 150.891 64.9182C147.967 63.6136 147.119 59.2411 147.753 53.458C148.855 44.0826 154.32 30.2909 158.939 31.9829C162.148 33.1816 159.009 43.6532 151.746 54.5836ZM152.416 50.635C156.754 43.2659 159.009 36.6021 157.953 35.6519C156.683 34.5209 153.968 43.169 152.416 50.635Z" fill="#5A0B4D"/>
<path d="M172.654 59.7656C171.35 63.1514 168.918 65.6126 166.168 64.8817C164.58 64.4944 163.84 62.9083 163.628 60.6517C162.747 62.6251 161.266 64.5656 159.009 64.7063C156.224 64.9183 154.848 62.415 155.272 60.1219C155.66 58.0389 157.247 56.451 159.899 55.9595C161.256 55.6951 162.588 55.318 163.882 54.8321C163.953 54.2675 164.065 53.7358 164.129 53.1748C164.412 51.5888 164.059 49.5077 162.577 49.1897C160.816 48.8024 159.581 49.3724 159.159 50.741C158.559 52.645 160.533 53.2096 162.265 51.5523C162.265 51.5523 164.063 53.9496 161.594 54.8668C158.95 55.8901 156.412 54.1268 157.293 51.0589C157.964 48.8371 160.29 46.8564 164.169 47.7097C167.341 48.415 168.892 50.5656 167.8 56.4803C167.2 59.6523 167.272 62.6142 168.329 62.8608C169.457 63.1075 170.973 60.9222 171.854 58.4189H171.891C172.548 58.1795 173.078 58.6729 172.654 59.7656ZM163.736 56.0636L162.431 56.4876C160.915 56.9462 160.175 57.6149 159.787 59.0255C159.294 60.8527 159.681 62.0587 160.668 62.1628C161.657 62.2341 162.861 60.5768 163.666 56.8402L163.736 56.0636Z" fill="#5A0B4D"/>
<path d="M178.366 48.8333C178.366 48.8333 177.624 49.4326 176.956 53.3118C179.353 48.561 181.681 47.5652 183.654 47.8813C185.481 48.1992 186.475 49.6811 184.568 54.2984C183.439 57.0502 179.384 54.8283 179.384 54.8283C181.113 53.0998 182.028 50.5618 181.182 50.2439C180.301 49.9972 178.75 52.0418 176.387 57.613C175.541 64.454 174.272 65.9341 170.994 64.454C170.994 64.454 171.416 63.8547 171.558 62.6561C172.404 54.6164 171.911 49.4692 174.131 48.0238C176.497 46.4378 178.366 48.8333 178.366 48.8333Z" fill="#5A0B4D"/>
</svg>
