<svg width="300" height="100" viewBox="0 0 300 100" fill="none" xmlns="http://www.w3.org/2000/svg">
<rect width="300" height="100" fill="white"/>
<path d="M126.714 43.6644C126.251 43.6666 125.795 43.7718 125.378 43.9724C125.043 42.9647 124.473 42.0512 123.715 41.3074C121.93 39.5 119.131 38.7293 116.223 39.8745C114.592 40.5136 113.204 42.1664 112.587 43.9232C111.861 43.5838 111.032 43.5411 110.276 43.8042C109.52 44.0673 108.896 44.6154 108.538 45.3316C108.337 45.7512 108.232 46.2099 108.23 46.6749V62.7252H129.775V46.7053C129.775 46.3041 129.697 45.9067 129.543 45.5362C129.389 45.1657 129.163 44.8293 128.878 44.5466C128.594 44.2638 128.256 44.0403 127.884 43.8888C127.513 43.7374 127.115 43.6611 126.714 43.6644ZM112.919 49.4165C112.512 49.4169 112.117 49.2763 111.802 49.0185C111.486 48.7608 111.27 48.4018 111.19 48.0026C111.109 47.6034 111.169 47.1887 111.36 46.8288C111.55 46.4689 111.86 46.1862 112.235 46.0286V47.4962C112.236 47.5846 112.258 47.6715 112.3 47.7493C112.349 47.8735 112.439 47.9769 112.556 48.0414C112.672 48.106 112.808 48.1277 112.939 48.1028C113.07 48.078 113.188 48.008 113.273 47.9051C113.358 47.8023 113.404 47.6729 113.404 47.5396V47.0624L113.382 47.0422V46.2917C113.382 46.1818 113.382 46.0719 113.392 45.962C113.803 46.0756 114.159 46.3345 114.393 46.6905C114.628 47.0466 114.726 47.4757 114.668 47.8982C114.61 48.3207 114.401 48.7078 114.079 48.9879C113.758 49.2679 113.346 49.4217 112.919 49.4208V49.4165ZM113.642 44.6563L113.619 44.639C114.258 42.3905 116.197 40.6495 118.622 40.4963H118.952C120.188 40.4953 121.389 40.9015 122.371 41.6522C123.353 42.4029 124.06 43.4562 124.383 44.6491L119.018 48.7817L113.642 44.6563ZM125.255 49.4165C124.848 49.4161 124.454 49.2751 124.14 49.0175C123.825 48.7598 123.609 48.4013 123.529 48.0028C123.448 47.6042 123.508 47.1901 123.698 46.8305C123.888 46.471 124.196 46.1882 124.571 46.03V47.5208C124.59 47.6587 124.659 47.7848 124.764 47.8761C124.87 47.9673 125.004 48.0176 125.143 48.0176C125.283 48.0176 125.417 47.9673 125.522 47.8761C125.628 47.7848 125.696 47.6587 125.716 47.5208V46.0893V45.9534C126.134 46.0601 126.498 46.3165 126.74 46.6739C126.982 47.0313 127.084 47.465 127.027 47.8927C126.971 48.3205 126.759 48.7126 126.433 48.9947C126.106 49.2769 125.688 49.4295 125.256 49.4237L125.255 49.4165ZM191.06 54.4369C190.694 54.6651 190.311 54.8638 189.914 55.0312C189.533 55.2004 189.12 55.2904 188.703 55.2958C188.565 55.2984 188.429 55.2681 188.305 55.2076C188.169 55.1589 188.052 55.0657 187.975 54.943C187.86 54.7933 187.777 54.6208 187.732 54.4369C187.664 54.1855 187.634 53.9251 187.644 53.6647C187.648 53.4358 187.67 53.2076 187.711 52.9822C187.754 52.7171 187.82 52.3643 187.909 51.9238C187.997 51.5059 188.064 51.1531 188.107 50.8885C188.146 50.6848 188.168 50.4783 188.173 50.271C188.173 50.0965 188.136 49.924 188.064 49.765C188.006 49.6142 187.906 49.4839 187.774 49.3904C187.652 49.2837 187.51 49.2012 187.356 49.1475C187.203 49.0843 187.038 49.0543 186.872 49.0593C186.425 49.0515 185.986 49.1823 185.616 49.4338C185.245 49.6978 184.918 50.0173 184.645 50.3809C184.323 50.82 184.05 51.2933 183.831 51.7922C183.567 52.3706 183.345 52.8044 183.169 53.1587H183.016C182.999 52.644 183.013 52.1287 183.059 51.6158C183.104 51.0201 183.126 50.5573 183.126 50.2494C183.131 50.0361 183.124 49.8226 183.104 49.6102C183.101 49.4845 183.062 49.3623 182.993 49.2574C182.958 49.2131 182.914 49.1765 182.864 49.1501C182.814 49.1237 182.76 49.1081 182.703 49.1041C182.528 49.0828 182.352 49.075 182.176 49.081C182.006 49.0755 181.836 49.0832 181.668 49.1041C181.549 49.1205 181.435 49.1657 181.337 49.2357C181.24 49.3079 181.158 49.3977 181.095 49.5003C181.013 49.6469 180.946 49.8021 180.897 49.963C180.765 50.3233 180.654 50.6913 180.566 51.0649C180.456 51.5054 180.324 52.0563 180.17 52.7176C180.015 53.3784 179.881 54.019 179.795 54.5974C179.684 55.1931 179.619 55.7657 179.531 56.3167C179.531 56.4049 179.509 56.4714 179.509 56.5596C179.333 56.7129 179.133 56.8488 178.931 56.9934C178.439 57.3571 177.924 57.6884 177.389 57.9853C176.844 58.2826 176.279 58.5416 175.698 58.7604C175.168 58.9524 174.611 59.0551 174.048 59.064C173.892 59.0628 173.738 59.0478 173.585 59.0192C173.435 58.9889 173.293 58.9295 173.166 58.8442C173.018 58.745 172.885 58.6263 172.769 58.4914C172.622 58.3098 172.489 58.1163 172.373 57.913C173.112 57.719 173.824 57.4303 174.489 57.0541C175.725 56.3835 176.736 55.3642 177.397 54.1231C177.749 53.4623 177.926 52.8897 177.926 52.3605C177.932 51.8987 177.842 51.4407 177.661 51.0157C177.498 50.6291 177.251 50.2834 176.938 50.0035C176.627 49.7133 176.26 49.4886 175.86 49.3427C175.422 49.1804 174.959 49.0986 174.493 49.1012C173.935 49.0971 173.381 49.2017 172.862 49.4092C172.376 49.6189 171.929 49.9094 171.54 50.2681C171.143 50.6336 170.795 51.0486 170.504 51.503C170.201 51.9684 169.955 52.4679 169.769 52.9909C169.57 53.497 169.393 54.0928 169.191 54.7536C169.029 55.313 168.94 55.8908 168.926 56.4728C168.932 56.8709 168.962 57.2682 169.014 57.6629C168.993 57.6846 168.971 57.6846 168.949 57.7062C168.706 57.861 168.463 58.0142 168.199 58.169C167.956 58.3143 167.706 58.4465 167.45 58.5652C167.208 58.6765 166.965 58.7864 166.767 58.8543C166.58 58.9167 166.386 58.9536 166.189 58.9642C166.142 58.9593 166.097 58.9425 166.058 58.9154C166.02 58.8884 165.988 58.8519 165.968 58.8095C165.877 58.6878 165.803 58.5545 165.748 58.4133C165.675 58.225 165.616 58.0317 165.571 57.8349C165.527 57.617 165.505 57.3951 165.505 57.1727V56.9963C165.531 56.8183 165.568 56.6421 165.615 56.4685C165.66 56.2921 165.703 56.1157 165.748 55.9393C165.793 55.7629 165.836 55.6313 165.879 55.4766C165.916 55.3563 165.961 55.2384 166.012 55.1237C166.409 54.3299 166.85 53.5332 167.334 52.7003C167.818 51.8674 168.281 51.0244 168.744 50.1872C169.207 49.3283 169.671 48.4694 170.089 47.609C170.521 46.7734 170.909 45.9152 171.25 45.0381C171.574 44.1982 171.838 43.3367 172.042 42.4599C172.234 41.6364 172.331 40.7937 172.331 39.9482C172.336 39.6226 172.306 39.2974 172.243 38.978C172.179 38.6774 172.076 38.3864 171.938 38.1118C171.785 37.8595 171.573 37.6477 171.321 37.4944C171.015 37.3342 170.673 37.2583 170.329 37.2746C169.75 37.2776 169.185 37.4457 168.699 37.759C168.119 38.1078 167.598 38.5471 167.156 39.0604C166.625 39.6683 166.153 40.3253 165.746 41.0226C165.525 41.3971 165.305 41.7716 165.107 42.1678C165.262 41.436 165.343 40.6904 165.349 39.9424C165.353 39.6168 165.324 39.2916 165.261 38.9722C165.195 38.674 165.091 38.3854 164.953 38.1133C164.799 37.8609 164.587 37.6492 164.335 37.4959C164.03 37.3357 163.687 37.2598 163.343 37.2761C162.765 37.2791 162.2 37.4471 161.714 37.7605C161.133 38.1092 160.612 38.5485 160.171 39.0618C159.64 39.6695 159.168 40.326 158.761 41.0226C158.301 41.7979 157.889 42.6005 157.526 43.4258C157.061 44.5345 156.678 45.676 156.381 46.8412C156.006 48.2727 155.802 48.9783 155.802 48.9783C155.802 48.9783 155.671 49.684 155.428 51.1155C155.185 52.547 155.053 53.672 155.053 54.5323C155.054 55.3284 155.113 56.1234 155.23 56.911C155.189 56.9353 155.152 56.965 155.12 56.9992C154.627 57.3623 154.11 57.6927 153.574 57.9882C153.027 58.2845 152.461 58.5425 151.878 58.7604C151.348 58.9523 150.79 59.055 150.227 59.064C150.071 59.0628 149.917 59.0478 149.764 59.0192C149.614 58.9892 149.472 58.9297 149.345 58.8442C149.197 58.7454 149.064 58.6267 148.948 58.4914C148.8 58.3098 148.667 58.1164 148.551 57.913C149.291 57.719 150.002 57.4303 150.668 57.0541C151.902 56.3856 152.912 55.3694 153.574 54.1318C153.927 53.471 154.103 52.8984 154.103 52.3692C154.11 51.9074 154.019 51.4494 153.839 51.0244C153.675 50.638 153.428 50.2924 153.116 50.0122C152.804 49.7215 152.436 49.4967 152.036 49.3514C151.599 49.1896 151.136 49.1078 150.671 49.1099C150.112 49.1057 149.558 49.2103 149.04 49.4179C148.553 49.6276 148.106 49.918 147.717 50.2768C147.32 50.6423 146.972 51.0574 146.681 51.5117C146.384 51.9741 146.141 52.4695 145.958 52.988C145.76 53.4941 145.584 54.0899 145.38 54.7507C145.218 55.3101 145.129 55.8879 145.115 56.4699C145.115 56.7591 145.137 57.0483 145.16 57.3288L144.498 57.66C144.102 57.8364 143.727 58.0113 143.374 58.1878C143.022 58.3537 142.684 58.5471 142.362 58.7661C142.362 58.2152 142.384 57.6412 142.429 57.0903C142.479 56.6574 142.472 56.2198 142.407 55.7889C142.34 55.4809 142.274 55.1946 142.207 54.9517C142.141 54.7087 142.076 54.4889 142.009 54.2692C141.943 54.0494 141.899 53.8281 141.856 53.6069C141.809 53.3601 141.786 53.1092 141.789 52.8579C141.864 52.6953 141.969 52.5481 142.097 52.4241C142.274 52.2246 142.472 52.0048 142.676 51.7618C142.88 51.5189 143.052 51.2774 143.227 51.0389C143.369 50.8301 143.453 50.5869 143.47 50.3347C143.472 50.2095 143.465 50.0842 143.448 49.9602C143.422 49.8087 143.362 49.6652 143.272 49.5408C143.141 49.3916 142.974 49.2781 142.787 49.2111C142.474 49.1094 142.146 49.0643 141.817 49.0781C141.585 49.0793 141.355 49.1163 141.134 49.188C140.938 49.2576 140.752 49.355 140.584 49.4772C140.41 49.5854 140.254 49.7195 140.121 49.8748C139.988 50.0281 139.856 50.1828 139.746 50.3376C139.195 51.0417 138.734 51.6158 138.38 52.1002C138.027 52.5629 137.741 52.9591 137.498 53.2902C137.255 53.6214 137.035 53.9077 136.859 54.1275C136.682 54.3704 136.441 54.6784 136.136 55.0529C135.831 55.4274 135.52 55.7585 135.232 56.0448C134.944 56.3311 134.528 56.6839 134.042 57.1018C133.943 57.1877 133.835 57.2638 133.721 57.3288C133.571 57.441 133.431 57.5663 133.303 57.7034C133.161 57.8509 133.035 58.0133 132.927 58.1878C132.82 58.3676 132.767 58.5743 132.774 58.7835C132.761 58.9714 132.791 59.1598 132.862 59.3344C132.903 59.4456 132.971 59.5449 133.06 59.6236C133.15 59.6859 133.259 59.7169 133.368 59.7118C133.501 59.7118 133.611 59.7335 133.766 59.7335C133.883 59.7364 134.001 59.7292 134.117 59.7118C134.25 59.6901 134.36 59.6901 134.47 59.667C134.504 60.0731 134.632 60.4657 134.844 60.8136C135.054 61.1291 135.333 61.3926 135.66 61.5843C136.026 61.7849 136.42 61.9311 136.828 62.0181C137.3 62.1092 137.78 62.1538 138.261 62.1512C139.024 62.1423 139.783 62.0609 140.53 61.9082C141.33 61.7494 142.118 61.5358 142.888 61.2691C143.65 61.0101 144.393 60.701 145.114 60.3437C145.417 60.1999 145.712 60.0381 145.996 59.8593C146.099 60.0366 146.215 60.2058 146.344 60.3654C146.753 60.8791 147.272 61.2934 147.864 61.5771C148.532 61.8879 149.265 62.0365 150.001 62.0109C150.522 62.0116 151.041 61.9558 151.55 61.8446C152.055 61.7267 152.549 61.5646 153.026 61.3602C153.489 61.1621 153.952 60.9264 154.393 60.6763C154.834 60.4261 155.23 60.1485 155.604 59.8839C155.714 59.7957 155.826 59.7075 155.957 59.6193C155.979 59.6858 156.002 59.7292 156.024 59.7957C156.332 60.4782 156.663 61.0291 157.081 61.4267C157.499 61.8244 157.918 62.0427 158.382 62.0427C158.708 62.0378 159.033 62.001 159.352 61.9328C159.705 61.8446 160.058 61.7564 160.432 61.6248C160.807 61.4891 161.175 61.3347 161.534 61.1621C161.887 60.9857 162.238 60.831 162.591 60.6546C162.812 60.5447 163.054 60.4131 163.275 60.2801C163.493 60.7097 163.776 61.1036 164.112 61.4484C164.509 61.8446 164.95 62.0659 165.414 62.0659C165.74 62.0604 166.065 62.0231 166.384 61.9545C166.735 61.8663 167.088 61.7796 167.463 61.6465C167.838 61.5114 168.206 61.357 168.565 61.1838C168.917 61.0074 169.27 60.8527 169.623 60.6777L170.217 60.3466C170.24 60.3683 170.24 60.39 170.262 60.4131C170.672 60.9256 171.191 61.3397 171.782 61.6248C172.451 61.935 173.183 62.0836 173.92 62.0586C174.439 62.0555 174.956 61.9963 175.462 61.8822C175.967 61.7645 176.462 61.6019 176.938 61.3964C177.401 61.1983 177.865 60.9626 178.305 60.7139C178.702 60.4709 179.077 60.2295 179.406 59.9909C179.406 60.1239 179.43 60.2338 179.43 60.3654C179.46 60.6709 179.542 60.9691 179.671 61.2474C179.776 61.4982 179.953 61.7124 180.179 61.8634C180.435 62.0245 180.735 62.1018 181.038 62.0847C181.189 62.0897 181.34 62.0595 181.479 61.9965C181.618 61.921 181.745 61.8234 181.853 61.7073C181.987 61.5386 182.098 61.3535 182.184 61.1563C182.294 60.9351 182.404 60.6488 182.536 60.3191L184.872 53.8122H185.07C185.137 54.3631 185.225 54.8924 185.335 55.4433C185.438 55.9519 185.616 56.4422 185.864 56.8979C186.089 57.3161 186.415 57.6719 186.811 57.9333C187.208 58.1984 187.738 58.3304 188.402 58.3295C188.768 58.3343 189.132 58.2821 189.482 58.1747C189.828 58.0659 190.166 57.9335 190.494 57.7785C190.812 57.6278 191.121 57.4588 191.42 57.2725C191.709 57.096 191.971 56.9196 192.19 56.7866L192.39 53.7501C191.853 53.912 191.459 54.1983 191.06 54.4369ZM139.363 58.7155C139.311 58.9487 139.222 59.1719 139.099 59.3763C138.965 59.5738 138.783 59.7332 138.569 59.8391C138.311 59.9718 138.022 60.0327 137.732 60.0155C137.469 60.0205 137.209 59.9519 136.983 59.8174C136.773 59.6946 136.579 59.5465 136.405 59.3763L135.971 58.9426C135.884 58.8329 135.757 58.7618 135.618 58.7445L139.233 54.9546C139.278 55.0861 139.321 55.2625 139.388 55.4621C139.452 55.7367 139.459 56.0217 139.409 56.2993C139.371 56.6062 139.363 56.9163 139.388 57.2247C139.409 57.4662 139.431 57.7091 139.431 57.9477C139.44 58.2055 139.417 58.4633 139.363 58.7155ZM148.265 55.0789C148.3 54.7322 148.382 54.3918 148.507 54.0667C148.662 53.6705 148.772 53.3177 148.882 53.0314C148.98 52.7561 149.13 52.502 149.323 52.2824C149.502 52.0601 149.728 51.8795 149.984 51.7532C150.288 51.6138 150.62 51.546 150.954 51.5551C151.174 51.5551 151.35 51.6881 151.482 51.9296C151.645 52.2179 151.722 52.5473 151.703 52.8781C151.703 53.1413 151.548 53.4941 151.24 53.9135C150.977 54.2832 150.666 54.6167 150.315 54.9054C149.998 55.1496 149.649 55.3495 149.278 55.4997C148.953 55.6486 148.601 55.7312 148.243 55.7426C148.243 55.5648 148.243 55.3435 148.265 55.0789ZM158.755 48.5344C158.997 47.3675 159.106 46.7718 159.106 46.7718C159.106 46.7718 159.306 46.1327 159.685 44.8761C160.064 43.6196 160.389 42.6956 160.675 42.1288C160.899 41.6483 161.18 41.1971 161.514 40.7854C161.803 40.4543 162.042 40.301 162.285 40.301C162.351 40.301 162.395 40.3893 162.395 40.5642C162.414 40.7844 162.421 41.0055 162.416 41.2265C162.315 42.1014 162.131 42.9647 161.865 43.8046C161.577 44.7473 161.239 45.6741 160.853 46.5809C160.457 47.5063 160.039 48.4096 159.598 49.2907C159.157 50.1727 158.738 50.9666 158.342 51.6491C158.409 50.6027 158.547 49.5621 158.755 48.5344ZM161.222 58.1429C160.979 58.2882 160.729 58.4205 160.473 58.5391C160.231 58.649 159.989 58.7604 159.79 58.8283C159.604 58.8914 159.409 58.9283 159.212 58.9382C159.165 58.9335 159.12 58.917 159.082 58.8902C159.043 58.8634 159.012 58.8272 158.991 58.7849C158.903 58.6615 158.832 58.5268 158.78 58.3844C158.707 58.1962 158.648 58.0029 158.603 57.806C158.559 57.5885 158.537 57.3671 158.537 57.1452V56.9688C158.563 56.7904 158.6 56.6137 158.647 56.4396L158.78 55.9118C158.823 55.7354 158.868 55.6024 158.911 55.4491C158.948 55.3288 158.993 55.2109 159.044 55.0963C159.44 54.3024 159.881 53.5057 160.366 52.6714C160.85 51.8573 161.313 50.9969 161.776 50.1597C162.238 49.3008 162.701 48.4404 163.12 47.5815C163.142 47.515 163.187 47.4716 163.209 47.4051C162.944 48.4173 162.789 48.948 162.789 48.948C162.789 48.948 162.658 49.6522 162.415 51.0851C162.172 52.5181 162.04 53.6416 162.04 54.5005C162.041 55.4533 162.122 56.4043 162.283 57.3433C162.288 57.3803 162.295 57.417 162.305 57.4532C162.195 57.5197 162.085 57.6079 161.975 57.6744C161.729 57.8335 161.487 57.9882 161.222 58.1429ZM165.762 48.5344C166.004 47.3675 166.115 46.7718 166.115 46.7718C166.115 46.7718 166.313 46.1327 166.693 44.8761C167.074 43.6196 167.399 42.6956 167.685 42.1288C167.908 41.6484 168.19 41.1972 168.523 40.7854C168.812 40.4543 169.052 40.301 169.293 40.301C169.36 40.301 169.403 40.3893 169.403 40.5642C169.424 40.7843 169.432 41.0055 169.426 41.2265C169.324 42.1013 169.14 42.9646 168.875 43.8046C168.587 44.7471 168.249 45.6738 167.863 46.5809C167.466 47.5063 167.047 48.4096 166.607 49.2907C166.166 50.1727 165.748 50.9666 165.35 51.6491C165.418 50.6028 165.555 49.5622 165.762 48.5344ZM172.109 55.0789C172.143 54.7321 172.225 54.3916 172.352 54.0667C172.505 53.6705 172.615 53.3177 172.726 53.0314C172.822 52.7567 172.969 52.5026 173.16 52.2824C173.34 52.0601 173.566 51.8795 173.822 51.7532C174.126 51.6134 174.457 51.5456 174.791 51.5551C175.012 51.5551 175.187 51.6881 175.32 51.9296C175.483 52.2181 175.559 52.5474 175.54 52.8781C175.54 53.1413 175.387 53.4941 175.077 53.9135C174.814 54.2839 174.503 54.6175 174.152 54.9054C173.835 55.1496 173.487 55.3495 173.117 55.4997C172.791 55.6467 172.44 55.7278 172.083 55.7383C172.083 55.5648 172.109 55.3435 172.109 55.0789Z" fill="#122E76"/>
</svg>
