<svg width="300" height="100" viewBox="0 0 300 100" fill="none" xmlns="http://www.w3.org/2000/svg">
<rect width="300" height="100" fill="white"/>
<g clip-path="url(#clip0_298_9945)">
<path d="M65.5345 49.8028C65.5345 50.9045 65.2007 51.9228 64.5329 52.8576H56.3203C56.5874 52.6573 56.7209 52.3235 56.7209 51.856C56.7209 51.3887 56.4538 51.0214 55.9198 50.7543C55.3856 50.4539 54.7012 50.3036 53.8666 50.3036C51.3627 50.3036 50.1108 51.0715 50.1108 52.6072C50.1108 53.2081 50.5782 53.6422 51.5129 53.9092C52.4476 54.1763 53.5827 54.3933 54.9182 54.5603C56.2536 54.7271 57.5889 54.9776 58.9243 55.3114C60.2598 55.6119 61.3949 56.2294 62.3296 57.1643C63.2644 58.099 63.7318 59.351 63.7318 60.92C63.7318 63.691 62.6133 65.7942 60.3766 67.2298C58.1732 68.6653 54.9515 69.3831 50.7117 69.3831C46.4718 69.3831 43.5006 68.6987 41.7979 67.3299C40.4626 66.2616 39.7949 64.7927 39.7949 62.9231C39.7949 62.3889 39.8449 61.8381 39.9451 61.2706L48.308 61.1705C48.2412 61.6378 48.5083 62.0551 49.1092 62.4223C49.7435 62.7561 50.6616 62.9231 51.8635 62.9231C53.0653 62.9231 53.9333 62.8062 54.4675 62.5725C55.0016 62.3054 55.2687 61.8214 55.2687 61.1204C55.2687 60.6529 54.8013 60.3358 53.8666 60.1689C52.9318 59.9685 51.78 59.8017 50.4112 59.6681C49.0758 59.5346 47.7238 59.3176 46.355 59.017C45.0196 58.7167 43.8845 58.0823 42.9497 57.1142C42.015 56.1459 41.5476 54.8774 41.5476 53.3083C41.5476 50.2703 42.716 47.9333 45.053 46.2974C47.4233 44.6617 50.8285 43.8438 55.2687 43.8438C62.1126 43.8438 65.5345 45.8301 65.5345 49.8028Z" fill="#6889FD"/>
<path d="M76.8434 69.3831C69.8994 69.3831 66.4272 66.9794 66.4272 62.172C66.4272 61.5043 66.4941 60.7865 66.6276 60.0186L67.6792 53.809C68.2467 50.6041 69.7158 48.1503 72.0861 46.4477C74.4897 44.7117 77.6613 43.8438 81.6007 43.8438C88.311 43.8438 91.6662 46.3809 91.6662 51.4555C91.6662 52.1899 91.5995 52.9911 91.466 53.8591L90.8649 57.4146H75.5915L75.3911 58.5663C75.3244 58.967 75.291 59.3342 75.291 59.6681C75.291 61.5043 76.376 62.4223 78.546 62.4223C79.3472 62.4223 80.0316 62.172 80.5991 61.6712C81.1667 61.1705 81.5005 60.5862 81.6007 59.9185L89.9136 60.0186C88.8118 66.2616 84.4551 69.3831 76.8434 69.3831ZM82.8527 54.3599C82.9862 53.7924 83.0529 53.2748 83.0529 52.8075C83.0529 52.3067 82.8359 51.8059 82.402 51.3052C81.9679 50.8044 81.2669 50.5541 80.2987 50.5541C79.3639 50.5541 78.4959 50.8712 77.6947 51.5056C76.9269 52.1399 76.3927 53.0912 76.0922 54.3599H82.8527Z" fill="#6889FD"/>
<path d="M109.231 53.3085C109.231 51.873 108.53 51.1552 107.128 51.1552C105.759 51.1552 104.624 51.6726 103.723 52.7076L100.918 68.6822H92.4053L96.6619 44.5951H104.574L104.023 47.5497C105.993 45.1125 108.48 43.894 111.485 43.894C114.489 43.894 116.442 44.6285 117.344 46.0974C117.911 47.0322 118.195 48.1005 118.195 49.3023C118.195 50.5042 118.112 51.6226 117.945 52.6575L116.593 60.3694C116.559 60.5697 116.542 60.7533 116.542 60.9202C116.542 61.8217 117.043 62.2724 118.045 62.2724C118.813 62.2724 119.497 62.1054 120.098 61.7716L119.848 67.4303C118.278 68.7322 116.492 69.3833 114.489 69.3833C109.949 69.3833 107.679 67.4804 107.679 63.6746C107.679 63.0068 107.746 62.289 107.879 61.5211L109.081 54.8609C109.181 54.26 109.231 53.7426 109.231 53.3085Z" fill="#6889FD"/>
<path d="M145.27 60.9703C145.27 61.8383 145.704 62.2723 146.571 62.2723C147.473 62.2723 148.224 62.1054 148.825 61.7716L148.575 67.4303C146.972 68.7322 145.169 69.3833 143.166 69.3833C139.494 69.3833 137.457 68.0478 137.057 65.3771C135.388 68.0478 132.934 69.3833 129.695 69.3833C124.22 69.3833 121.483 67.0296 121.483 62.3224C121.483 61.5211 121.566 60.6365 121.733 59.6683L122.785 53.8092C123.319 50.8046 124.538 48.4176 126.441 46.6482C128.377 44.8455 131.048 43.9441 134.453 43.9441C136.556 43.9441 138.225 44.3948 139.461 45.2961L142.014 30.6736H150.578L145.32 60.3694C145.286 60.5696 145.27 60.77 145.27 60.9703ZM130.447 58.5665C130.38 58.867 130.347 59.2843 130.347 59.8185C130.347 60.3527 130.597 60.8868 131.098 61.421C131.598 61.9218 132.433 62.1722 133.602 62.1722C134.803 62.1722 135.838 61.7047 136.706 60.77L138.209 52.357C137.841 51.5224 136.973 51.1051 135.605 51.1051C133.034 51.1051 131.532 52.3403 131.098 54.8108L130.447 58.5665Z" fill="#6889FD"/>
<path d="M161.75 69.3831C154.806 69.3831 151.334 66.9794 151.334 62.172C151.334 61.5043 151.4 60.7865 151.534 60.0186L152.586 53.809C153.12 50.6041 154.572 48.1503 156.942 46.4477C159.346 44.745 162.384 43.877 166.056 43.8438C173.167 43.8438 176.723 46.3142 176.723 51.2551C176.723 52.3235 176.589 53.2916 176.322 54.1596C176.088 54.9942 175.838 55.5618 175.571 55.8622L175.171 56.363H166.657C167.492 55.6285 167.909 54.7605 167.909 53.759C167.909 51.9563 167.008 51.0548 165.205 51.0548C164.137 51.0548 163.219 51.372 162.451 52.0063C161.683 52.6407 161.182 53.6088 160.948 54.9107L160.297 58.5663C160.231 58.9003 160.197 59.2174 160.197 59.5178C160.197 61.2872 161.299 62.172 163.502 62.172C164.237 62.172 164.888 61.9382 165.455 61.4708C166.056 61.0035 166.407 60.4861 166.507 59.9185L174.82 60.0186C173.718 66.2616 169.362 69.3831 161.75 69.3831Z" fill="#6889FD"/>
<path d="M201.402 60.9703C201.402 61.8383 201.835 62.2724 202.704 62.2724C203.604 62.2724 204.355 62.1054 204.956 61.7716L204.706 67.4303C203.104 68.7322 201.301 69.3833 199.298 69.3833C195.626 69.3833 193.589 68.0478 193.189 65.3771C191.519 68.0478 189.065 69.3833 185.827 69.3833C180.353 69.3833 177.615 67.0296 177.615 62.3224C177.615 61.5211 177.698 60.6365 177.865 59.6684L178.916 53.8093C179.451 50.8046 180.669 48.4176 182.572 46.6482C184.509 44.8455 187.012 43.9441 190.084 43.9441C193.189 43.9441 195.292 44.6619 196.394 46.0974L196.644 44.5951H204.256L201.451 60.3694C201.418 60.5696 201.402 60.77 201.402 60.9703ZM186.578 58.5665C186.511 58.8671 186.478 59.2844 186.478 59.8185C186.478 60.3527 186.728 60.8868 187.229 61.421C187.729 61.9218 188.564 62.1722 189.733 62.1722C190.934 62.1722 191.969 61.7047 192.838 60.77L194.34 52.357C193.973 51.5224 193.105 51.1051 191.736 51.1051C189.165 51.1051 187.664 52.3404 187.229 54.8108L186.578 58.5665Z" fill="#6889FD"/>
<path d="M231.826 49.8028C231.826 50.9045 231.492 51.9228 230.825 52.8576H222.612C222.879 52.6573 223.012 52.3235 223.012 51.856C223.012 51.3887 222.745 51.0214 222.211 50.7543C221.678 50.4539 220.992 50.3036 220.158 50.3036C217.654 50.3036 216.403 51.0715 216.403 52.6072C216.403 53.2081 216.87 53.6422 217.804 53.9092C218.74 54.1763 219.874 54.3933 221.209 54.5603C222.545 54.7271 223.88 54.9776 225.216 55.3114C226.551 55.6119 227.687 56.2294 228.621 57.1643C229.556 58.099 230.023 59.351 230.023 60.92C230.023 63.691 228.905 65.7942 226.669 67.2298C224.465 68.6653 221.243 69.3831 217.003 69.3831C212.763 69.3831 209.792 68.6987 208.089 67.3299C206.754 66.2616 206.087 64.7927 206.087 62.9231C206.087 62.3889 206.137 61.8381 206.236 61.2706L214.599 61.1705C214.533 61.6378 214.8 62.0551 215.4 62.4223C216.035 62.7561 216.952 62.9231 218.155 62.9231C219.356 62.9231 220.225 62.8062 220.759 62.5725C221.293 62.3054 221.56 61.8214 221.56 61.1204C221.56 60.6529 221.093 60.3358 220.158 60.1689C219.223 59.9685 218.071 59.8017 216.702 59.6681C215.367 59.5346 214.016 59.3176 212.647 59.017C211.311 58.7167 210.176 58.0823 209.242 57.1142C208.306 56.1459 207.839 54.8774 207.839 53.3083C207.839 50.2703 209.008 47.9333 211.345 46.2974C213.715 44.6617 217.12 43.8438 221.56 43.8438C228.404 43.8438 231.826 45.8301 231.826 49.8028Z" fill="#6889FD"/>
<path d="M259.009 62.2723C259.777 62.2723 260.462 62.1054 261.062 61.7716L260.812 67.4303C259.243 68.7322 257.457 69.3833 255.455 69.3833C250.914 69.3833 248.643 67.4803 248.643 63.6745C248.643 63.0068 248.71 62.289 248.844 61.5211L249.945 55.3616C250.045 54.7607 250.096 54.1598 250.096 53.5589C250.096 51.9565 249.244 51.1552 247.542 51.1552C245.873 51.1552 244.571 51.7227 243.635 52.8577L240.831 68.6821H232.318L239.029 30.6736H247.542L244.687 46.8485C246.523 44.8788 248.827 43.894 251.598 43.894C254.969 43.894 257.156 44.6451 258.158 46.1474C258.86 47.149 259.209 48.2674 259.209 49.5027C259.209 50.7379 259.11 51.873 258.909 52.9078L257.558 60.3694C257.524 60.5696 257.507 60.7532 257.507 60.9202C257.507 61.8216 258.008 62.2723 259.009 62.2723Z" fill="#6889FD"/>
</g>
<defs>
<clipPath id="clip0_298_9945">
<rect width="221.935" height="40" fill="white" transform="translate(39.4609 30)"/>
</clipPath>
</defs>
</svg>
