<svg width="300" height="100" viewBox="0 0 300 100" fill="none" xmlns="http://www.w3.org/2000/svg">
<rect width="300" height="100" fill="white"/>
<g clip-path="url(#clip0_298_9927)">
<path fill-rule="evenodd" clip-rule="evenodd" d="M102.301 54.163H96.3389C96.3389 57.0194 97.1947 59.1768 98.9635 60.5746C100.533 62.0332 103.015 62.7929 106.238 62.7929C112.4 62.7929 116.879 60.5442 116.879 54.4669C116.879 52.7653 116.337 51.2763 115.253 50.0608C113.969 48.7846 111.373 47.7211 107.436 46.8702C104.412 46.2625 102.9 45.2901 102.9 44.0443C102.9 42.768 104.07 42.0995 106.352 42.0995C108.264 42.0995 109.462 42.7073 109.861 43.8012C110.204 44.7736 111.088 45.2901 112.429 45.3509H116.138C115.995 42.768 115.082 40.7625 113.37 39.304C111.602 37.9062 109.234 37.2073 106.238 37.2073C100.932 37.2984 96.995 39.8205 96.995 45.1382C97.0236 49.0277 99.6767 51.4586 104.812 52.4614C108.806 53.1907 110.803 54.2238 110.803 55.5001C110.803 57.0802 109.576 57.8094 107.123 57.8094C104.27 57.8094 102.444 56.8978 102.301 54.163Z" fill="#ED2F59"/>
<path fill-rule="evenodd" clip-rule="evenodd" d="M137.377 54.6781H133.13C132.338 54.6781 131.687 54.9507 131.149 55.5562C130.016 56.7371 128.77 57.3427 127.411 57.3427C124.58 57.3427 123.051 55.4351 122.853 51.6503H137.745C138.17 41.9913 134.744 37.2073 127.411 37.2073C120.39 37.2376 116.88 41.4463 116.88 49.8335C116.88 58.2208 120.362 62.5506 127.327 62.7929C132.989 62.7929 136.132 59.8861 137.377 54.6781ZM127.327 42.2941C129.818 42.2941 131.262 43.9594 131.602 47.2296H122.938C123.363 43.9594 124.835 42.2941 127.327 42.2941Z" fill="#ED2F59"/>
<path fill-rule="evenodd" clip-rule="evenodd" d="M157.599 62.0721V47.8916C157.657 40.9793 154.401 37.5676 147.776 37.5676C141.122 37.5676 137.78 40.9793 137.78 47.8916V62.0721H143.72V46.6456C143.778 44.1239 145.091 42.9076 147.69 42.9076C150.26 42.9076 151.602 44.1239 151.717 46.6456V59.0758C151.717 60.9745 152.688 61.9535 154.629 62.0721H157.599Z" fill="#ED2F59"/>
<path fill-rule="evenodd" clip-rule="evenodd" d="M169.634 42.7138C172.764 42.7138 174.385 45.0742 174.528 49.8868C174.528 54.9447 172.849 57.4889 169.549 57.4889C166.22 57.4889 164.627 54.9447 164.684 49.8868C164.855 45.0742 166.476 42.7138 169.634 42.7138ZM177.401 30.3604H174.528V40.9666C173.048 38.361 170.801 37.1042 167.927 37.1042C161.754 37.3494 158.681 41.6716 158.681 50.1627C158.681 58.4699 162.266 62.6694 169.435 62.792C176.661 62.8534 180.303 59.1136 180.303 51.6341V33.5177C180.303 31.8317 178.994 30.3604 177.401 30.3604Z" fill="#ED2F59"/>
<path fill-rule="evenodd" clip-rule="evenodd" d="M187.209 33.5177C187.209 31.4332 186.243 30.3604 184.339 30.3604H181.384V51.6341C181.384 59.1136 185.021 62.8534 192.237 62.792C199.397 62.6694 203.006 58.4699 203.006 50.1627C203.006 41.6716 199.937 37.3494 193.772 37.1042C190.874 37.1042 188.686 38.361 187.209 40.9666V33.5177ZM192.152 42.7138C195.306 42.7138 196.925 45.0742 197.039 49.8868C197.039 54.9447 195.391 57.4889 192.067 57.4889C188.743 57.4889 187.18 54.9447 187.209 49.8868C187.379 45.0742 188.998 42.7138 192.152 42.7138Z" fill="#ED2F59"/>
<path fill-rule="evenodd" clip-rule="evenodd" d="M213.456 37.2073C206.48 37.2073 203.006 41.4463 203.006 50.0152C203.006 58.4933 206.48 62.7929 213.456 62.7929C220.404 62.7929 223.907 58.4933 223.907 50.0152C223.907 41.4463 220.404 37.2073 213.456 37.2073ZM213.456 42.6575C216.393 42.6575 217.89 45.0192 217.89 49.8335C217.834 54.7084 216.365 57.2518 213.4 57.2518C210.434 57.2518 208.937 54.8295 208.88 50.0152C208.88 45.11 210.406 42.6575 213.456 42.6575Z" fill="#ED2F59"/>
<path fill-rule="evenodd" clip-rule="evenodd" d="M238.028 35.4055C236.864 35.4055 236.013 35.9473 235.501 37.0308L231.044 44.9766L227.069 37.5726H220.397L227.467 49.5214L219.943 62.0722H227.069L231.214 54.3069L235.331 62.0722H242.316L234.621 49.5816L243.366 35.4055H238.028Z" fill="#ED2F59"/>
<path fill-rule="evenodd" clip-rule="evenodd" d="M89.8524 60.0205L66.7234 69.0418C65.7963 69.4034 64.7516 68.945 64.39 68.0179C64.3086 67.8092 64.2668 67.5872 64.2668 67.3632V64.7041C64.2668 61.5127 66.23 58.65 69.207 57.5002L89.2975 49.741L89.8524 60.0205Z" fill="#A8CF45"/>
<path fill-rule="evenodd" clip-rule="evenodd" d="M65.3479 39.5885L88.3933 30.7017C89.1361 30.4152 89.9704 30.7852 90.2568 31.5279C90.3084 31.6617 90.3397 31.8023 90.3498 31.9453L90.5731 35.1157C90.7875 38.1584 88.9975 40.9867 86.1559 42.0953L65.8941 50L65.3479 39.5885Z" fill="#FFCC29"/>
<path fill-rule="evenodd" clip-rule="evenodd" d="M66.4848 50.6316L89.8524 59.9099V50.7539C89.8524 50.0172 89.4039 49.3547 88.7199 49.081L65.3479 39.7297V48.957C65.3479 49.6954 65.7985 50.3591 66.4848 50.6316Z" fill="#ED2F59"/>
</g>
<defs>
<clipPath id="clip0_298_9927">
<rect width="188.108" height="40" fill="white" transform="translate(55.2578 30)"/>
</clipPath>
</defs>
</svg>
