<svg width="300" height="100" viewBox="0 0 300 100" fill="none" xmlns="http://www.w3.org/2000/svg">
<rect width="300" height="100" fill="white"/>
<g clip-path="url(#clip0_298_9955)">
<mask id="mask0_298_9955" style="mask-type:luminance" maskUnits="userSpaceOnUse" x="103" y="30" width="94" height="40">
<path d="M196.071 30H103.305V69.4738H196.071V30Z" fill="white"/>
</mask>
<g mask="url(#mask0_298_9955)">
<path d="M137.877 59.8272L135.455 57.8906L136.585 55.0023L133.517 54.5397L133.055 51.4721L130.167 52.6025L128.23 50.1804L126.293 52.6025L123.405 51.4721L122.942 54.5397L119.875 55.0023L121.005 57.8906L118.583 59.8272L121.005 61.7639L119.875 64.6522L122.942 65.1148L123.405 68.1825L126.293 67.0519L128.23 69.4741L130.167 67.0519L133.055 68.1825L133.517 65.1148L136.585 64.6522L135.455 61.7639L137.877 59.8272Z" fill="#FF4F59"/>
<path d="M193.217 36.8595C194.617 34.1907 193.643 32.2238 191.558 32.2238C190.886 32.2238 190.098 32.4287 189.237 32.8798C188.644 30.9775 187.534 30.0259 186.423 30.0259C185.313 30.0259 184.202 30.9775 183.609 32.8793C182.749 32.4277 181.961 32.2233 181.289 32.2233C179.204 32.2233 178.23 34.1902 179.629 36.859C175.825 38.0458 175.825 41.3001 179.629 42.4864C178.229 45.1553 179.204 47.1222 181.289 47.1222C181.961 47.1222 182.749 46.9172 183.609 46.4662C184.202 48.3684 185.313 49.32 186.423 49.32C187.534 49.32 188.644 48.3684 189.237 46.4667C190.098 46.9182 190.886 47.1227 191.558 47.1227C193.643 47.1227 194.617 45.1558 193.217 42.487C197.021 41.3001 197.021 38.0458 193.217 36.8595Z" fill="#FDDA37"/>
<path d="M158.02 30.1756C158.293 30.1756 158.505 30.1756 158.717 30.1756C163.212 30.1756 167.707 30.1809 172.202 30.1704C172.9 30.1689 173.521 30.33 174.051 30.7878C174.599 31.2608 174.89 31.8677 174.942 32.5873C174.959 32.823 174.955 33.0598 174.955 33.2965C174.955 37.5317 174.955 41.7664 174.955 46.0016C174.955 46.1737 174.957 46.3458 174.951 46.5174C174.898 48.0697 173.832 49.1387 172.27 49.1428C167.71 49.1553 163.15 49.1491 158.591 49.146C157.998 49.146 157.958 49.1001 157.957 48.4588C157.954 45.5349 157.955 42.6112 157.955 39.6879C157.955 36.7855 157.954 33.8837 157.958 30.9813C157.958 30.7325 157.995 30.4833 158.02 30.1767V30.1756ZM167.332 39.6384C167.332 38.2837 167.338 36.9284 167.329 35.5737C167.325 35.0392 167.212 34.9396 166.681 34.9219C166.552 34.9177 166.422 34.9187 166.294 34.9276C166.015 34.9479 165.867 35.1096 165.84 35.3807C165.827 35.5085 165.831 35.6383 165.831 35.7677C165.831 38.3269 165.831 40.8862 165.831 43.445C165.831 43.5737 165.809 43.7125 165.849 43.8293C165.895 43.9633 165.969 44.1245 166.08 44.1932C166.656 44.5484 167.327 44.1765 167.33 43.5091C167.336 42.219 167.331 40.9285 167.331 39.6379L167.332 39.6384Z" fill="black"/>
<path d="M139.738 39.6386C139.738 36.8655 139.738 34.0919 139.738 31.3188C139.738 31.19 139.736 31.0607 139.738 30.9319C139.753 30.2681 139.833 30.1805 140.483 30.1779C141.86 30.1727 143.236 30.1763 144.613 30.1763C145.172 30.1763 145.732 30.1878 146.29 30.1727C146.61 30.1638 146.818 30.278 146.952 30.5726C147.111 30.9246 147.288 31.2698 147.472 31.6093C147.707 32.0415 147.848 32.0916 148.298 31.8721C149.263 31.4007 150.226 30.9225 151.18 30.4287C151.514 30.2561 151.845 30.1659 152.225 30.1706C153.451 30.1862 154.677 30.1742 155.903 30.1774C156.657 30.1789 156.739 30.2519 156.739 30.9721C156.742 36.7549 156.741 42.5383 156.739 48.3212C156.739 49.0382 156.632 49.1456 155.918 49.1467C153.918 49.1503 151.918 49.1508 149.918 49.1467C149.193 49.1451 149.113 49.0611 149.113 48.3149C149.111 43.8435 149.112 39.3716 149.112 34.9001C149.112 34.7281 149.113 34.556 149.112 34.3844C149.106 33.6231 148.634 33.2899 147.939 33.5908C147.795 33.6534 147.675 33.8598 147.623 34.0251C147.568 34.2019 147.604 34.4084 147.604 34.6013C147.604 39.0947 147.604 43.5875 147.604 48.0808C147.604 48.2529 147.612 48.4255 147.599 48.5965C147.569 49.0001 147.453 49.1102 147.039 49.1451C146.954 49.1524 146.867 49.1477 146.781 49.1477C144.716 49.1477 142.651 49.1498 140.586 49.1467C139.836 49.1456 139.742 49.0491 139.741 48.2811C139.738 45.4 139.74 42.5195 139.74 39.6386H139.738Z" fill="black"/>
<path d="M131.028 30.1764C133.244 30.1764 135.46 30.1748 137.676 30.1769C138.446 30.1774 138.515 30.2463 138.515 31.0311C138.518 33.5038 138.517 35.977 138.516 38.4497C138.516 39.3508 138.458 39.4113 137.577 39.4123C135.232 39.4144 132.887 39.4123 130.542 39.4134C130.348 39.4134 130.155 39.4113 129.962 39.4254C129.657 39.4478 129.493 39.6126 129.492 39.926C129.492 41.1946 129.483 42.4633 129.496 43.732C129.5 44.1064 129.64 44.2242 130.003 44.2587C130.11 44.2686 130.219 44.2649 130.326 44.2608C130.827 44.2425 130.938 44.1471 130.949 43.6543C130.963 43.0312 130.952 42.407 130.954 41.7834C130.954 41.6332 130.95 41.4804 130.974 41.3328C131.017 41.0684 131.172 40.9105 131.454 40.9053C131.561 40.9031 131.669 40.9026 131.777 40.9026C133.756 40.9026 135.736 40.9005 137.715 40.9037C138.407 40.9047 138.513 41.0017 138.514 41.6739C138.519 43.9104 138.519 46.1469 138.514 48.3833C138.512 49.0159 138.385 49.1447 137.76 49.1452C133.307 49.1488 128.853 49.1572 124.4 49.141C122.787 49.1353 121.723 48.0746 121.717 46.4644C121.7 41.9054 121.703 37.3469 121.715 32.7878C121.72 31.2449 122.776 30.1915 124.316 30.1806C126.553 30.1644 128.79 30.1764 131.028 30.1764ZM130.952 36.4427C130.952 36.4427 130.95 36.4427 130.949 36.4427C130.949 36.0985 130.952 35.7544 130.948 35.4102C130.944 35.0968 130.777 34.9367 130.467 34.9263C130.317 34.9211 130.165 34.9133 130.016 34.9263C129.627 34.9581 129.509 35.0551 129.497 35.4373C129.478 36.0818 129.479 36.7279 129.497 37.3729C129.507 37.7338 129.653 37.8657 130.01 37.9059C130.138 37.9205 130.269 37.9184 130.397 37.9074C130.798 37.8725 130.927 37.7489 130.948 37.3463C130.964 37.046 130.952 36.7435 130.952 36.4427Z" fill="black"/>
<path d="M156.784 60.7662C156.784 63.2384 156.784 65.7111 156.784 68.1833C156.784 68.3121 156.786 68.4414 156.784 68.5702C156.772 69.2392 156.699 69.3185 156.048 69.3274C155.532 69.3341 155.016 69.3289 154.5 69.3289C152.8 69.3289 151.101 69.3148 149.402 69.3383C148.948 69.3446 148.676 69.1975 148.508 68.7788C148.381 68.4607 148.215 68.1567 148.046 67.8579C147.821 67.4616 147.683 67.4141 147.263 67.6185C146.278 68.0983 145.296 68.5843 144.323 69.0875C143.987 69.2611 143.651 69.3404 143.274 69.3341C142.349 69.319 141.424 69.3362 140.499 69.3263C139.916 69.3201 139.821 69.2288 139.82 68.6484C139.815 65.3591 139.815 62.0698 139.82 58.78C139.821 58.197 139.937 58.0922 140.569 58.0906C143.107 58.0854 145.645 58.0886 148.183 58.088C148.829 58.088 149.152 57.767 149.153 57.1249C149.153 56.6519 149.164 56.1785 149.15 55.706C149.134 55.2059 149.014 55.1132 148.453 55.1074C147.844 55.1012 147.726 55.1966 147.698 55.717C147.661 56.3994 147.301 56.7409 146.619 56.7416C144.683 56.7416 142.748 56.7416 140.812 56.7416C140.639 56.7416 140.466 56.7469 140.296 56.7307C139.999 56.702 139.82 56.5471 139.822 56.2306C139.828 55.0052 139.786 53.7772 139.856 52.556C139.913 51.5506 140.78 50.6605 141.768 50.4524C142.06 50.3909 142.364 50.3555 142.663 50.3549C146.427 50.3487 150.191 50.3413 153.956 50.3622C154.417 50.3648 154.918 50.4389 155.329 50.6323C156.26 51.0699 156.745 51.8682 156.774 52.898C156.803 53.9294 156.786 54.9619 156.786 55.9939C156.787 57.5848 156.786 59.1757 156.786 60.7667L156.784 60.7662ZM149.152 62.0432C149.152 61.4409 149.16 60.8381 149.146 60.2364C149.142 60.0747 149.117 59.8609 149.013 59.7645C148.731 59.5006 148.36 59.5976 148.031 59.6576C147.714 59.715 147.694 59.9981 147.695 60.2713C147.698 61.4545 147.691 62.6377 147.699 63.8208C147.703 64.3606 147.844 64.4784 148.41 64.4825C149.01 64.4867 149.142 64.3689 149.15 63.7853C149.158 63.2045 149.152 62.6236 149.152 62.0432Z" fill="black"/>
<path d="M112.683 30.176C114.943 30.176 117.203 30.1744 119.462 30.1765C120.205 30.177 120.286 30.2532 120.289 30.9775C120.294 32.5689 120.295 34.1609 120.288 35.7524C120.286 36.4428 120.201 36.5199 119.493 36.521C117.384 36.5236 115.275 36.5241 113.166 36.521C112.503 36.5199 112.439 36.4485 112.42 35.7774C112.417 35.67 112.426 35.5615 112.415 35.4551C112.374 35.075 112.265 34.9592 111.899 34.9269C111.729 34.9118 111.555 34.918 111.383 34.928C111.104 34.9436 110.933 35.1032 110.927 35.3754C110.913 36.0632 110.914 36.7515 110.928 37.4393C110.933 37.7135 111.117 37.8663 111.383 37.8971C111.553 37.9169 111.727 37.9107 111.899 37.9107C114.373 37.9112 116.848 37.9107 119.323 37.9107C119.495 37.9107 119.667 37.9122 119.839 37.9169C120.096 37.9242 120.235 38.0733 120.268 38.3137C120.291 38.4832 120.289 38.6568 120.289 38.8284C120.29 41.3022 120.298 43.7754 120.283 46.2491C120.28 46.6512 120.242 47.0772 120.105 47.4496C119.707 48.5347 118.854 49.0426 117.733 49.1422C117.562 49.1573 117.389 49.1463 117.216 49.1463C112.934 49.1463 108.652 49.1463 104.369 49.1463C104.175 49.1463 103.981 49.1531 103.788 49.1375C103.488 49.1135 103.321 48.9414 103.3 48.6389C103.292 48.5102 103.295 48.3808 103.295 48.252C103.295 46.1011 103.294 43.9501 103.295 41.7991C103.296 40.9585 103.349 40.9033 104.16 40.9028C106.14 40.9006 108.12 40.9006 110.1 40.9028C110.838 40.9038 110.907 40.9768 110.912 41.7157C110.915 42.2966 110.908 42.8775 110.914 43.4578C110.92 44.179 111.004 44.2634 111.681 44.2598C112.302 44.2567 112.412 44.1498 112.417 43.4902C112.424 42.3931 112.423 41.2965 112.417 40.1993C112.413 39.5172 112.316 39.4155 111.629 39.4145C109.218 39.4093 106.808 39.4125 104.398 39.4119C104.204 39.4119 104.009 39.4228 103.817 39.403C103.442 39.3645 103.337 39.2513 103.299 38.8754C103.29 38.7903 103.295 38.7033 103.295 38.6172C103.295 36.703 103.286 34.7887 103.298 32.874C103.306 31.5552 104.072 30.5358 105.266 30.2521C105.555 30.1833 105.863 30.1786 106.162 30.1775C108.336 30.1718 110.51 30.1744 112.683 30.1744L112.683 30.176Z" fill="black"/>
<path d="M176.25 59.8611C176.25 56.9801 176.249 54.0992 176.251 51.2182C176.251 50.4563 176.348 50.3525 177.096 50.352C181.527 50.3489 185.958 50.3504 190.39 50.3509C191.533 50.3509 192.472 50.7514 192.961 51.836C193.149 52.2522 193.232 52.748 193.237 53.209C193.264 55.6385 193.254 58.0679 193.248 60.4973C193.247 61.1293 193.147 61.741 192.757 62.2682C192.22 62.9925 191.497 63.3513 190.597 63.3523C188.854 63.3538 187.112 63.3528 185.37 63.3528C185.219 63.3528 185.069 63.3513 184.918 63.3528C184.21 63.3616 184.13 63.4357 184.125 64.124C184.12 64.9193 184.124 65.7149 184.124 66.5107C184.124 67.1985 184.129 67.8868 184.123 68.5746C184.116 69.2311 184.028 69.325 183.378 69.3265C181.248 69.3318 179.118 69.3318 176.989 69.3265C176.344 69.325 176.252 69.2296 176.252 68.5678C176.248 65.6654 176.25 62.763 176.25 59.8601V59.8611ZM185.616 58.4527C185.616 57.5725 185.623 56.6923 185.613 55.8121C185.606 55.2145 185.485 55.1097 184.88 55.1076C184.816 55.1076 184.751 55.1045 184.687 55.1097C184.282 55.1431 184.133 55.262 184.13 55.6593C184.12 57.5272 184.12 59.3945 184.135 61.2623C184.137 61.4286 184.231 61.6638 184.36 61.7483C184.927 62.119 185.607 61.7546 185.614 61.0933C185.622 60.2131 185.616 59.333 185.616 58.4527Z" fill="black"/>
<path d="M158.036 59.8385C158.036 57.0221 158.036 54.2058 158.036 51.39C158.036 51.2179 158.038 51.0458 158.038 50.8742C158.039 50.5587 158.22 50.4028 158.511 50.3663C158.681 50.3449 158.855 50.3512 159.026 50.3512C163.35 50.3507 167.673 50.3471 171.996 50.3564C172.401 50.3574 172.826 50.3741 173.207 50.4951C174.19 50.8075 174.786 51.502 174.968 52.5241C175.012 52.7759 175.015 53.0377 175.016 53.2953C175.019 55.6814 175.019 58.0682 175.016 60.4543C175.016 60.7114 175.005 60.9721 174.964 61.225C174.764 62.4567 173.721 63.3379 172.419 63.3488C170.612 63.364 168.805 63.353 166.998 63.353C166.848 63.353 166.697 63.3478 166.547 63.3546C166.027 63.377 165.912 63.4829 165.909 64.0184C165.901 65.4373 165.906 66.8562 165.906 68.275C165.906 68.4038 165.91 68.5331 165.905 68.662C165.883 69.1959 165.778 69.3038 165.262 69.3278C165.176 69.332 165.09 69.3294 165.004 69.3294C162.982 69.3294 160.96 69.3294 158.938 69.3294C158.787 69.3294 158.637 69.3294 158.487 69.3205C158.204 69.3038 158.058 69.1448 158.042 68.8679C158.033 68.6963 158.035 68.5242 158.035 68.3522C158.035 65.5145 158.036 62.6762 158.036 59.8385ZM167.376 58.4504C167.376 57.5498 167.385 56.6493 167.373 55.7493C167.366 55.2195 167.253 55.1225 166.72 55.1078C166.634 55.1058 166.548 55.1026 166.463 55.1094C166.062 55.1423 165.915 55.2612 165.913 55.6642C165.902 57.5294 165.904 59.3947 165.915 61.2594C165.916 61.4148 165.999 61.6886 166.082 61.7042C166.427 61.7688 166.797 61.8122 167.138 61.7527C167.416 61.7042 167.375 61.3841 167.376 61.1515C167.379 60.2509 167.377 59.3504 167.376 58.4504Z" fill="black"/>
</g>
</g>
<defs>
<clipPath id="clip0_298_9955">
<rect width="92.766" height="40" fill="white" transform="translate(103.305 30)"/>
</clipPath>
</defs>
</svg>
