<svg width="300" height="100" viewBox="0 0 300 100" fill="none" xmlns="http://www.w3.org/2000/svg">
<rect width="300" height="100" fill="white"/>
<g clip-path="url(#clip0_291_7774)">
<path d="M170.346 38.6486C169.486 38.6296 168.641 38.8817 167.932 39.3694C167.218 39.8886 166.672 40.6051 166.36 41.4306C165.961 42.4377 165.734 43.5049 165.69 44.5874C165.61 45.7453 165.685 46.9089 165.914 48.0468C166.093 49.1478 166.595 50.171 167.355 50.9874C167.74 51.3469 168.194 51.6238 168.69 51.8011C169.186 51.9783 169.712 52.0522 170.238 52.018C171.069 52.0676 171.899 51.8908 172.638 51.5063V39.0955C172.348 38.9512 172.04 38.8447 171.723 38.7784C171.27 38.6833 170.808 38.6398 170.346 38.6486ZM175.182 52.609C174.55 52.9839 173.861 53.254 173.142 53.409C172.199 53.6405 171.231 53.7519 170.26 53.7405C168.582 53.8046 166.939 53.2536 165.64 52.191C164.395 51.1088 163.552 49.6386 163.247 48.018C162.979 46.6695 162.942 45.2851 163.139 43.9243C163.277 42.6599 163.664 41.4352 164.278 40.3207C164.829 39.3221 165.644 38.4943 166.634 37.9279C167.743 37.3398 168.984 37.0469 170.238 37.0775C171.167 37.0766 172.092 37.1928 172.991 37.4234C173.745 37.5876 174.472 37.8543 175.153 38.2162L175.182 52.609ZM121.337 53.7838C119.586 53.8411 117.849 53.4491 116.292 52.645L117.099 50.7928C118.339 51.4631 119.733 51.7985 121.142 51.7658C123.687 51.7658 125.063 50.2378 125.063 48.2342C125.063 43.1459 116.53 44.7027 116.53 37.964C116.53 34.7279 119.016 32.6018 122.699 32.6018C124.241 32.5909 125.759 32.9835 127.103 33.7405L126.382 35.4198C125.323 34.8181 124.127 34.498 122.908 34.4901C120.616 34.4901 119.254 35.6865 119.254 37.7838C119.254 42.7856 127.903 41.1351 127.903 48.0829C127.874 51.3766 125.301 53.7838 121.337 53.7838ZM149.784 53.7405C148.935 53.7384 148.092 53.6071 147.283 53.3514V59.8378H144.667V38.173C146.223 37.4128 147.937 37.0325 149.669 37.0631C154.274 37.0631 156.818 40.2414 156.818 45.1495C156.818 50.5333 154.036 53.7405 149.784 53.7405ZM149.575 38.6847C148.788 38.6599 148.004 38.8024 147.276 39.1027V51.7369C147.898 51.9576 148.554 52.0674 149.215 52.0613C152.508 52.0613 154.187 49.582 154.187 45.3009C154.187 41.2577 152.962 38.6847 149.575 38.6847ZM158.562 53.5027V30H161.2V53.5027H158.562ZM182.123 53.6468C179.816 53.6468 178.26 52.2054 178.26 49.582V39.009H176.407V37.3658H178.274V33.6541L180.897 32.8829V37.4018H183.708V39.009H180.897V49.582C180.897 50.9874 181.618 51.8234 182.901 51.8234C183.175 51.8342 183.449 51.7926 183.708 51.7009V53.3802C183.203 53.5736 182.664 53.6642 182.123 53.6468Z" fill="#DE1915"/>
<path d="M156.133 62.0936C156.387 62.363 156.582 62.682 156.706 63.0306C156.83 63.3792 156.881 63.7498 156.854 64.1189V67.6648H155.413V64.3062C155.444 63.8643 155.308 63.4267 155.031 63.081C154.888 62.9407 154.717 62.8317 154.53 62.761C154.342 62.6902 154.142 62.6593 153.942 62.6702C153.71 62.6567 153.477 62.6928 153.26 62.7761C153.042 62.8593 152.845 62.9878 152.681 63.1531C152.516 63.3415 152.389 63.5608 152.309 63.7982C152.228 64.0357 152.196 64.2867 152.213 64.5369V67.6648H150.771V61.4738H152.155V62.2738C152.399 61.9889 152.708 61.7666 153.056 61.6252C153.449 61.475 153.868 61.4016 154.288 61.4089C154.626 61.3952 154.963 61.4487 155.28 61.5662C155.596 61.6838 155.887 61.863 156.133 62.0936ZM164.155 65.0342H159.297C159.368 65.4694 159.606 65.8598 159.96 66.1225C160.351 66.3994 160.823 66.5388 161.301 66.5189C161.612 66.529 161.922 66.4747 162.211 66.3593C162.5 66.244 162.762 66.0701 162.98 65.8486L163.759 66.7567C163.474 67.081 163.112 67.3287 162.706 67.4774C162.185 67.6716 161.629 67.7583 161.073 67.7323C160.517 67.7063 159.972 67.5681 159.47 67.3261C158.969 67.0716 158.552 66.679 158.267 66.1945C157.989 65.7074 157.844 65.1554 157.849 64.5945C157.84 64.0249 157.982 63.463 158.26 62.9657C158.528 62.4909 158.922 62.0993 159.398 61.8342C159.904 61.5586 160.473 61.4194 161.049 61.4306C161.612 61.4205 162.168 61.5571 162.663 61.827C163.132 62.0886 163.518 62.4786 163.773 62.9513C164.043 63.4566 164.182 64.0216 164.177 64.5945L164.155 65.0342ZM159.867 62.9801C159.544 63.2613 159.337 63.6512 159.283 64.0756H162.8C162.751 63.6528 162.549 63.2628 162.231 62.9801C161.894 62.7135 161.478 62.5685 161.049 62.5685C160.62 62.5685 160.203 62.7135 159.867 62.9801ZM168.782 61.4089V62.7855C168.673 62.764 168.562 62.7519 168.451 62.7495C168.207 62.735 167.963 62.7718 167.735 62.8575C167.506 62.9431 167.298 63.0758 167.124 63.2468C166.953 63.4431 166.822 63.6718 166.741 63.9194C166.659 64.167 166.628 64.4284 166.649 64.6882V67.6864H165.207V61.4738H166.591V62.3819C166.84 62.043 167.173 61.7749 167.557 61.6043C167.942 61.4336 168.364 61.3663 168.782 61.4089ZM176.018 61.4738V66.7567C176.018 68.9189 174.908 70.0288 172.681 70.0288C172.109 70.0309 171.539 69.9533 170.987 69.7981C170.507 69.6744 170.057 69.451 169.669 69.1423L170.317 68.054C170.622 68.2964 170.969 68.4797 171.341 68.5945C171.747 68.7293 172.173 68.7974 172.602 68.7963C173.14 68.8434 173.676 68.6778 174.094 68.3351C174.268 68.1403 174.4 67.9118 174.482 67.6638C174.563 67.4159 174.593 67.1537 174.569 66.8936V66.5621C174.321 66.8353 174.013 67.0474 173.669 67.1819C173.293 67.323 172.895 67.3939 172.494 67.3909C171.939 67.397 171.392 67.2658 170.901 67.0089C170.433 66.7707 170.042 66.403 169.777 65.9495C169.508 65.4735 169.366 64.9359 169.366 64.3891C169.366 63.8423 169.508 63.3048 169.777 62.8288C170.045 62.379 170.434 62.0142 170.901 61.7765C171.399 61.5252 171.951 61.399 172.508 61.4089C172.927 61.4036 173.342 61.4769 173.733 61.6252C174.092 61.7707 174.41 62.0036 174.656 62.3026V61.4738H176.018ZM174.065 65.6684C174.239 65.5046 174.376 65.3054 174.467 65.0841C174.558 64.8628 174.6 64.6245 174.591 64.3855C174.596 64.1545 174.551 63.9252 174.461 63.7127C174.37 63.5002 174.235 63.3095 174.065 63.1531C173.684 62.8366 173.205 62.6633 172.71 62.6633C172.215 62.6633 171.736 62.8366 171.355 63.1531C171.18 63.3123 171.042 63.5075 170.95 63.7252C170.858 63.943 170.814 64.1781 170.822 64.4144C170.814 64.6539 170.857 64.8923 170.949 65.1135C171.041 65.3348 171.18 65.5338 171.355 65.6972C171.736 66.0138 172.215 66.1871 172.71 66.1871C173.205 66.1871 173.684 66.0138 174.065 65.6972V65.6684ZM182.375 64.5945L183.708 61.5098H182.317L180.357 66.036L178.411 61.4522H176.905L179.521 67.4774L178.469 69.9279H180.047L182.375 64.5945ZM150.115 58.6125C147.139 62.5621 136.941 70.4035 132.515 65.0558C133.486 66.4673 134.707 67.6887 136.119 68.6594C136.394 68.7526 136.676 68.8249 136.962 68.8756C143.737 69.9783 148.494 64.9693 149.978 59.9963C150.101 59.546 150.147 59.0782 150.115 58.6125Z" fill="#65B32E"/>
<path d="M143.139 41.1567C142.461 38.1297 139.6 36.5009 136.652 37.9351C131.506 40.3928 129.986 46.6414 129.207 51.045L128.66 51.2252C128.34 51.3696 128.083 51.6259 127.939 51.9459C127.849 52.1284 127.801 52.3289 127.8 52.5324C127.798 52.7358 127.843 52.937 127.93 53.1208C128.018 53.3045 128.146 53.4661 128.304 53.5934C128.463 53.7207 128.649 53.8104 128.847 53.8558C128.242 59.9891 130.332 66.6774 136.126 68.7027C134.715 67.732 133.493 66.5106 132.523 65.0991C130.75 62.7639 130.18 59.3333 130.274 56.3927C130.278 55.4221 130.391 54.455 130.613 53.5099C133.027 52.7891 134.678 52.0684 134.678 52.0684C136.677 51.2402 138.507 50.0504 140.076 48.5585C142.108 46.7279 143.787 44.0108 143.139 41.1567ZM141.251 43.9027C140.334 45.8955 138.762 47.5135 136.796 48.4864C136.086 48.8727 135.351 49.2144 134.598 49.5099C134.598 49.5099 133.748 49.8558 132.436 50.2738L130.786 50.8216C130.786 50.8216 131.658 48.2846 132.314 46.9297C133.233 44.6808 134.667 42.6788 136.501 41.0846C136.877 40.7057 137.327 40.4088 137.823 40.2128C138.319 40.0168 138.851 39.9259 139.384 39.9459C141.474 40.1837 141.971 42.2522 141.251 43.9027Z" fill="#005332"/>
</g>
<defs>
<clipPath id="clip0_291_7774">
<rect width="67.6056" height="40" fill="white" transform="translate(116.197 30)"/>
</clipPath>
</defs>
</svg>
