<svg width="300" height="100" viewBox="0 0 300 100" fill="none" xmlns="http://www.w3.org/2000/svg">
<rect width="300" height="100" fill="white"/>
<g clip-path="url(#clip0_311_238)">
<path d="M108.897 38.2288C108.806 37.3119 108.416 36.5997 107.727 36.092C107.037 35.5843 106.101 35.3305 104.919 35.3305C104.116 35.3305 103.438 35.4442 102.885 35.6715C102.332 35.8912 101.907 36.1981 101.612 36.5921C101.324 36.9861 101.18 37.4332 101.18 37.9333C101.165 38.35 101.252 38.7137 101.441 39.0244C101.638 39.3351 101.907 39.6041 102.248 39.8314C102.589 40.0511 102.983 40.2443 103.43 40.411C103.877 40.5702 104.355 40.7065 104.863 40.8202L106.954 41.3203C107.969 41.5476 108.901 41.8507 109.75 42.2296C110.598 42.6084 111.333 43.0744 111.955 43.6276C112.576 44.1807 113.057 44.8323 113.398 45.5825C113.747 46.3326 113.925 47.1926 113.932 48.1625C113.925 49.587 113.561 50.8221 112.841 51.8678C112.129 52.9059 111.099 53.7128 109.75 54.2887C108.409 54.857 106.791 55.1411 104.897 55.1411C103.017 55.1411 101.381 54.8532 99.9866 54.2773C98.5999 53.7015 97.5164 52.849 96.7359 51.72C95.9631 50.5834 95.5577 49.1779 95.5198 47.5033H100.282C100.335 48.2838 100.559 48.9354 100.953 49.4582C101.354 49.9735 101.888 50.3637 102.555 50.6289C103.23 50.8865 103.991 51.0153 104.84 51.0153C105.673 51.0153 106.397 50.8941 107.011 50.6516C107.632 50.4092 108.113 50.072 108.454 49.6401C108.795 49.2082 108.966 48.7119 108.966 48.1512C108.966 47.6283 108.81 47.1888 108.5 46.8327C108.196 46.4766 107.749 46.1735 107.158 45.9235C106.575 45.6734 105.859 45.4461 105.01 45.2415L102.476 44.605C100.513 44.1277 98.9636 43.3813 97.8271 42.366C96.6905 41.3506 96.126 39.9829 96.1336 38.2629C96.126 36.8535 96.501 35.6222 97.2588 34.569C98.0241 33.5158 99.0735 32.6936 100.407 32.1026C101.741 31.5116 103.256 31.2161 104.953 31.2161C106.681 31.2161 108.189 31.5116 109.477 32.1026C110.773 32.6936 111.78 33.5158 112.5 34.569C113.22 35.6222 113.591 36.8422 113.614 38.2288H108.897ZM125.108 55.1525C123.312 55.1525 121.766 54.7888 120.471 54.0614C119.182 53.3264 118.19 52.2883 117.493 50.9471C116.796 49.5984 116.447 48.0034 116.447 46.1621C116.447 44.3663 116.796 42.7903 117.493 41.434C118.19 40.0776 119.171 39.0206 120.437 38.2629C121.709 37.5052 123.202 37.1263 124.915 37.1263C126.066 37.1263 127.139 37.3119 128.131 37.6832C129.131 38.0469 130.003 38.5963 130.745 39.3313C131.495 40.0663 132.079 40.9907 132.496 42.1045C132.912 43.2108 133.121 44.5065 133.121 45.9916V47.3214H118.379V44.3209H128.563C128.563 43.6238 128.412 43.0062 128.108 42.4682C127.805 41.9303 127.385 41.5097 126.847 41.2066C126.316 40.896 125.699 40.7406 124.994 40.7406C124.259 40.7406 123.608 40.9111 123.039 41.2521C122.479 41.5855 122.039 42.0363 121.721 42.6046C121.403 43.1653 121.24 43.7905 121.232 44.48V47.3328C121.232 48.1966 121.391 48.943 121.709 49.5719C122.035 50.2008 122.494 50.6857 123.085 51.0267C123.676 51.3677 124.377 51.5382 125.187 51.5382C125.725 51.5382 126.218 51.4624 126.665 51.3109C127.112 51.1593 127.495 50.932 127.813 50.6289C128.131 50.3258 128.374 49.9545 128.54 49.5151L133.018 49.8106C132.791 50.8865 132.325 51.8261 131.62 52.6293C130.923 53.4249 130.022 54.0462 128.915 54.4933C127.817 54.9328 126.548 55.1525 125.108 55.1525ZM147.817 61.3582V52.0155H147.669C147.442 52.5005 147.12 52.9816 146.703 53.459C146.294 53.9288 145.76 54.319 145.1 54.6297C144.449 54.9403 143.653 55.0957 142.714 55.0957C141.388 55.0957 140.187 54.7547 139.111 54.0727C138.042 53.3832 137.194 52.3717 136.565 51.0381C135.943 49.6969 135.633 48.0526 135.633 46.1053C135.633 44.1049 135.955 42.4417 136.599 41.1157C137.243 39.7821 138.099 38.7857 139.167 38.1265C140.243 37.4597 141.422 37.1263 142.702 37.1263C143.68 37.1263 144.494 37.293 145.146 37.6264C145.805 37.9522 146.335 38.3614 146.737 38.8539C147.146 39.3389 147.457 39.8162 147.669 40.286H147.874V37.3536H152.647V61.3582H147.817ZM144.248 51.2427C145.028 51.2427 145.688 51.0305 146.226 50.6062C146.771 50.1743 147.188 49.5719 147.476 48.799C147.771 48.0261 147.919 47.1207 147.919 46.0826C147.919 45.0445 147.775 44.1428 147.487 43.3775C147.199 42.6122 146.782 42.0212 146.237 41.6044C145.691 41.1877 145.028 40.9793 144.248 40.9793C143.452 40.9793 142.782 41.1953 142.236 41.6272C141.691 42.0591 141.278 42.6577 140.997 43.423C140.717 44.1883 140.577 45.0748 140.577 46.0826C140.577 47.0979 140.717 47.9958 140.997 48.7763C141.285 49.5491 141.698 50.1553 142.236 50.5948C142.782 51.0267 143.452 51.2427 144.248 51.2427ZM167.73 47.3783V37.3536H172.572V54.8115H167.923V51.6405H167.741C167.347 52.6634 166.692 53.4855 165.775 54.1068C164.866 54.7282 163.755 55.0388 162.445 55.0388C161.278 55.0388 160.251 54.7736 159.364 54.2432C158.478 53.7128 157.785 52.9589 157.285 51.9814C156.792 51.004 156.542 49.8333 156.534 48.4694V37.3536H161.376V47.6056C161.384 48.6361 161.66 49.4506 162.206 50.0492C162.751 50.6478 163.483 50.9471 164.4 50.9471C164.983 50.9471 165.529 50.8145 166.036 50.5493C166.544 50.2766 166.953 49.875 167.264 49.3446C167.582 48.8142 167.737 48.1587 167.73 47.3783ZM184.401 55.1525C182.605 55.1525 181.059 54.7888 179.763 54.0614C178.475 53.3264 177.483 52.2883 176.785 50.9471C176.088 49.5984 175.74 48.0034 175.74 46.1621C175.74 44.3663 176.088 42.7903 176.785 41.434C177.483 40.0776 178.464 39.0206 179.729 38.2629C181.002 37.5052 182.495 37.1263 184.207 37.1263C185.359 37.1263 186.431 37.3119 187.424 37.6832C188.424 38.0469 189.295 38.5963 190.038 39.3313C190.788 40.0663 191.372 40.9907 191.788 42.1045C192.205 43.2108 192.413 44.5065 192.413 45.9916V47.3214H177.672V44.3209H187.856C187.856 43.6238 187.704 43.0062 187.401 42.4682C187.098 41.9303 186.677 41.5097 186.139 41.2066C185.609 40.896 184.992 40.7406 184.287 40.7406C183.552 40.7406 182.9 40.9111 182.332 41.2521C181.771 41.5855 181.332 42.0363 181.014 42.6046C180.695 43.1653 180.532 43.7905 180.525 44.48V47.3328C180.525 48.1966 180.684 48.943 181.002 49.5719C181.328 50.2008 181.786 50.6857 182.377 51.0267C182.968 51.3677 183.669 51.5382 184.48 51.5382C185.018 51.5382 185.511 51.4624 185.958 51.3109C186.405 51.1593 186.787 50.932 187.106 50.6289C187.424 50.3258 187.666 49.9545 187.833 49.5151L192.311 49.8106C192.084 50.8865 191.618 51.8261 190.913 52.6293C190.216 53.4249 189.314 54.0462 188.208 54.4933C187.109 54.9328 185.84 55.1525 184.401 55.1525ZM200.415 31.5343V54.8115H195.573V31.5343H200.415ZM204.384 54.8115V31.5343H213.704C215.417 31.5343 216.845 31.7882 217.989 32.2958C219.134 32.8035 219.994 33.5082 220.569 34.4099C221.145 35.304 221.433 36.3345 221.433 37.5014C221.433 38.4106 221.251 39.21 220.888 39.8996C220.524 40.5815 220.024 41.1422 219.387 41.5817C218.758 42.0136 218.039 42.3205 217.228 42.5023V42.7297C218.114 42.7675 218.944 43.0176 219.717 43.4798C220.497 43.942 221.13 44.5899 221.615 45.4234C222.1 46.2493 222.342 47.2343 222.342 48.3785C222.342 49.6136 222.036 50.716 221.422 51.6859C220.816 52.6482 219.918 53.4097 218.728 53.9705C217.539 54.5312 216.072 54.8115 214.33 54.8115H204.384ZM209.306 50.788H213.318C214.689 50.788 215.69 50.5266 216.319 50.0038C216.947 49.4734 217.262 48.7687 217.262 47.8897C217.262 47.2457 217.107 46.6774 216.796 46.1849C216.485 45.6923 216.042 45.3059 215.466 45.0256C214.898 44.7452 214.22 44.605 213.432 44.605H209.306V50.788ZM209.306 41.2748H212.954C213.629 41.2748 214.227 41.1574 214.75 40.9225C215.281 40.68 215.697 40.339 216 39.8996C216.311 39.4601 216.466 38.9335 216.466 38.3197C216.466 37.4786 216.167 36.8005 215.568 36.2852C214.977 35.77 214.136 35.5124 213.045 35.5124H209.306V41.2748ZM101.157 94.1411C100.043 94.1411 99.0508 93.9479 98.1794 93.5615C97.308 93.1675 96.6185 92.5878 96.1108 91.8225C95.6107 91.0496 95.3607 90.0873 95.3607 88.9356C95.3607 87.9657 95.5387 87.1512 95.8949 86.4919C96.251 85.8327 96.7359 85.3023 97.3497 84.9007C97.9634 84.4991 98.6606 84.196 99.441 83.9915C100.229 83.7869 101.055 83.6429 101.919 83.5596C102.934 83.4535 103.752 83.355 104.374 83.264C104.995 83.1655 105.446 83.0216 105.726 82.8321C106.007 82.6427 106.147 82.3624 106.147 81.9911V81.9229C106.147 81.203 105.92 80.6461 105.465 80.2521C105.018 79.8581 104.381 79.6611 103.555 79.6611C102.684 79.6611 101.991 79.8543 101.475 80.2407C100.96 80.6196 100.619 81.097 100.453 81.6728L95.9744 81.3091C96.2017 80.2483 96.6488 79.3315 97.3156 78.5586C97.9824 77.7781 98.8424 77.1795 99.8956 76.7628C100.956 76.3385 102.184 76.1263 103.578 76.1263C104.548 76.1263 105.476 76.24 106.363 76.4673C107.257 76.6946 108.049 77.0469 108.738 77.5243C109.435 78.0017 109.985 78.6154 110.386 79.3656C110.788 80.1081 110.989 80.9985 110.989 82.0365V93.8115H106.397V91.3906H106.26C105.98 91.9362 105.605 92.4173 105.135 92.8341C104.665 93.2432 104.101 93.5653 103.442 93.8002C102.783 94.0275 102.021 94.1411 101.157 94.1411ZM102.544 90.7996C103.256 90.7996 103.885 90.6594 104.431 90.379C104.976 90.0911 105.404 89.7047 105.715 89.2197C106.026 88.7348 106.181 88.1854 106.181 87.5717V85.7191C106.029 85.8176 105.821 85.9085 105.556 85.9918C105.298 86.0676 105.006 86.1396 104.681 86.2078C104.355 86.2684 104.029 86.3252 103.703 86.3783C103.377 86.4237 103.082 86.4654 102.817 86.5033C102.248 86.5867 101.752 86.7193 101.328 86.9011C100.903 87.083 100.574 87.3292 100.339 87.6399C100.104 87.943 99.9866 88.3218 99.9866 88.7765C99.9866 89.4357 100.225 89.9396 100.703 90.2881C101.188 90.6291 101.801 90.7996 102.544 90.7996ZM129.271 81.3319L124.838 81.6046C124.762 81.2258 124.599 80.8848 124.349 80.5817C124.099 80.271 123.77 80.0248 123.36 79.8429C122.959 79.6535 122.478 79.5588 121.917 79.5588C121.167 79.5588 120.534 79.7179 120.019 80.0361C119.504 80.3468 119.246 80.7636 119.246 81.2864C119.246 81.7031 119.413 82.0555 119.746 82.3434C120.079 82.6313 120.652 82.8624 121.462 83.0367L124.622 83.6732C126.319 84.0218 127.585 84.5825 128.418 85.3554C129.252 86.1282 129.668 87.1436 129.668 88.4014C129.668 89.5456 129.331 90.5495 128.657 91.4133C127.99 92.2771 127.073 92.9515 125.906 93.4365C124.747 93.9138 123.41 94.1525 121.894 94.1525C119.583 94.1525 117.742 93.6713 116.37 92.709C115.006 91.7392 114.207 90.4207 113.972 88.7537L118.734 88.5037C118.878 89.2084 119.227 89.7463 119.78 90.1176C120.333 90.4813 121.042 90.6632 121.906 90.6632C122.754 90.6632 123.436 90.5003 123.951 90.1745C124.474 89.8411 124.739 89.413 124.747 88.8901C124.739 88.4506 124.554 88.0907 124.19 87.8104C123.826 87.5224 123.266 87.3027 122.508 87.1512L119.485 86.5488C117.78 86.2078 116.511 85.6168 115.677 84.7757C114.851 83.9346 114.438 82.8624 114.438 81.5592C114.438 80.4377 114.741 79.4716 115.347 78.6609C115.961 77.8501 116.821 77.225 117.928 76.7855C119.041 76.346 120.345 76.1263 121.837 76.1263C124.042 76.1263 125.778 76.5923 127.043 77.5243C128.316 78.4563 129.058 79.7255 129.271 81.3319ZM140.673 94.1525C138.878 94.1525 137.332 93.7888 136.036 93.0614C134.748 92.3264 133.755 91.2883 133.058 89.9471C132.361 88.5984 132.013 87.0034 132.013 85.1621C132.013 83.3663 132.361 81.7903 133.058 80.434C133.755 79.0776 134.737 78.0206 136.002 77.2629C137.275 76.5052 138.768 76.1263 140.48 76.1263C141.632 76.1263 142.704 76.3119 143.697 76.6832C144.697 77.0469 145.568 77.5963 146.311 78.3313C147.061 79.0663 147.644 79.9907 148.061 81.1045C148.478 82.2108 148.686 83.5065 148.686 84.9916V86.3214H133.945V83.3209H144.129C144.129 82.6238 143.977 82.0062 143.674 81.4682C143.371 80.9303 142.95 80.5097 142.412 80.2066C141.882 79.896 141.264 79.7406 140.56 79.7406C139.825 79.7406 139.173 79.9111 138.605 80.2521C138.044 80.5855 137.605 81.0363 137.286 81.6046C136.968 82.1653 136.805 82.7905 136.798 83.48V86.3328C136.798 87.1966 136.957 87.943 137.275 88.5719C137.601 89.2008 138.059 89.6857 138.65 90.0267C139.241 90.3677 139.942 90.5382 140.753 90.5382C141.291 90.5382 141.783 90.4624 142.23 90.3109C142.678 90.1593 143.06 89.932 143.378 89.6289C143.697 89.3258 143.939 88.9545 144.106 88.5151L148.584 88.8106C148.357 89.8865 147.891 90.8261 147.186 91.6293C146.489 92.4249 145.587 93.0462 144.481 93.4933C143.382 93.9328 142.113 94.1525 140.673 94.1525Z" fill="#063B26"/>
<path fill-rule="evenodd" clip-rule="evenodd" d="M174.615 61.8349C127.471 89.0441 104.323 38.187 122.227 54.278C139.208 69.9021 153.247 68.4581 170.359 58.5885C171.097 58.1651 171.314 57.7633 170.869 57.4593L168.035 55.5049C167.492 54.9621 167.449 54.2563 167.992 53.9414L180.88 51.531C184.68 50.8144 185.527 51.7373 184.257 56.0695L181.455 65.5917C181.108 66.7534 180.532 66.7751 179.762 65.7111L176.993 61.8349C175.864 61.1835 175.907 61.0966 174.626 61.8458L174.615 61.8349Z" fill="#063B26"/>
</g>
<defs>
<clipPath id="clip0_311_238">
<rect width="112.072" height="40" fill="white" transform="translate(94.4531 30)"/>
</clipPath>
</defs>
</svg>
