<svg width="300" height="100" viewBox="0 0 300 100" fill="none" xmlns="http://www.w3.org/2000/svg">
<rect width="300" height="100" fill="white"/>
<g clip-path="url(#clip0_298_9911)">
<path fill-rule="evenodd" clip-rule="evenodd" d="M95.6875 49.2483C95.6875 44.2667 99.7259 40.2283 104.708 40.2283H111.222C116.204 40.2283 120.242 44.2667 120.242 49.2483V54.51C120.242 59.4916 116.204 63.53 111.222 63.53H105.209V63.4187L104.539 65.7253L102.193 65.0442C98.3387 63.9253 95.6875 60.3949 95.6875 56.3819V49.2483ZM105.209 62.789V60.5233H111.222C114.543 60.5233 117.235 57.8311 117.235 54.51V49.2483C117.235 45.9272 114.543 43.235 111.222 43.235H104.708C101.386 43.235 98.6942 45.9272 98.6942 49.2483V56.3819C98.6942 59.0572 100.462 61.4109 103.031 62.1567L105.209 62.789Z" fill="#104B3D"/>
<path fill-rule="evenodd" clip-rule="evenodd" d="M102.202 48.4968C102.202 48.0816 102.539 47.7451 102.954 47.7451H107.464C107.879 47.7451 108.215 48.0816 108.215 48.4968C108.215 48.912 107.879 49.2485 107.464 49.2485H102.954C102.539 49.2485 102.202 48.912 102.202 48.4968Z" fill="#104B3D"/>
<path fill-rule="evenodd" clip-rule="evenodd" d="M102.202 51.0022C102.202 50.5871 102.539 50.2505 102.954 50.2505H113.477C113.892 50.2505 114.229 50.5871 114.229 51.0022C114.229 51.4174 113.892 51.7539 113.477 51.7539H102.954C102.539 51.7539 102.202 51.4174 102.202 51.0022Z" fill="#104B3D"/>
<path fill-rule="evenodd" clip-rule="evenodd" d="M102.202 53.5077C102.202 53.0926 102.539 52.7561 102.954 52.7561H113.477C113.892 52.7561 114.229 53.0926 114.229 53.5077C114.229 53.9229 113.892 54.2594 113.477 54.2594H102.954C102.539 54.2594 102.202 53.9229 102.202 53.5077Z" fill="#104B3D"/>
<path fill-rule="evenodd" clip-rule="evenodd" d="M108.215 56.0134C108.215 55.5982 108.552 55.2617 108.967 55.2617H113.477C113.892 55.2617 114.229 55.5982 114.229 56.0134C114.229 56.4285 113.892 56.765 113.477 56.765H108.967C108.552 56.765 108.215 56.4285 108.215 56.0134Z" fill="#104B3D"/>
<path d="M133.264 61.7971C136.92 61.7971 139.485 59.6805 139.485 56.762C139.389 51.1174 130.858 52.3682 130.826 50.0912C130.826 49.3856 131.596 48.8404 132.75 48.8404C134.45 48.8404 136.439 49.5459 137.657 50.476L138.94 47.2048C137.369 45.954 135.156 45.4088 132.943 45.4088C129.223 45.4088 126.593 47.6858 126.625 50.6364C126.689 56.4413 135.156 54.6453 135.188 57.0506C135.188 57.7883 134.29 58.3335 132.879 58.3335C130.954 58.3335 129.03 57.7562 127.555 56.6657L126.208 59.8087C128.1 61.1558 130.57 61.7971 133.264 61.7971ZM150.065 45.4088C148.301 45.4088 146.697 46.2426 145.799 47.5575V39.0266H141.277V61.4765H145.799V51.6626C146.473 50.6043 147.659 49.8987 148.91 49.8987C150.77 49.8987 151.957 51.1495 151.957 53.3303V61.4765H156.479V52.5607C156.479 48.1348 154.041 45.4088 150.065 45.4088ZM170.373 45.7295V47.5896C169.603 46.3067 167.679 45.4088 165.722 45.4088C161.617 45.4088 158.378 49.0328 158.378 53.5869C158.378 58.141 161.617 61.7971 165.722 61.7971C167.711 61.7971 169.603 60.8992 170.373 59.6163V61.4765H174.895V45.7295H170.373ZM166.717 57.4996C164.504 57.4996 162.804 55.8319 162.804 53.5869C162.804 51.3419 164.504 49.6742 166.717 49.6742C168.288 49.6742 169.699 50.5402 170.373 51.6947V55.5433C169.699 56.6657 168.288 57.4996 166.717 57.4996ZM185.728 45.4088C184.413 45.4088 182.713 46.2426 181.943 47.5896V45.7295H177.421V61.4765H181.943V51.9513C182.713 50.4119 184.349 49.578 185.375 49.578C186.016 49.578 186.786 49.7063 187.395 49.9308L187.652 45.6974C187.171 45.505 186.529 45.4088 185.728 45.4088ZM199.345 45.7295V47.5896C198.574 46.3067 196.651 45.4088 194.694 45.4088C190.589 45.4088 187.35 49.0328 187.35 53.5869C187.35 58.141 190.589 61.7971 194.694 61.7971C196.683 61.7971 198.574 60.8992 199.345 59.6163V61.4765H203.867V45.7295H199.345ZM195.688 57.4996C193.475 57.4996 191.776 55.8319 191.776 53.5869C191.776 51.3419 193.475 49.6742 195.688 49.6742C197.26 49.6742 198.671 50.5402 199.345 51.6947V55.5433C198.671 56.6657 197.26 57.4996 195.688 57.4996Z" fill="#104B3D"/>
</g>
<defs>
<clipPath id="clip0_298_9911">
<rect width="109.744" height="40" fill="white" transform="translate(95.6875 30)"/>
</clipPath>
</defs>
</svg>
