<svg width="300" height="100" viewBox="0 0 300 100" fill="none" xmlns="http://www.w3.org/2000/svg">
<rect width="300" height="100" fill="white"/>
<g clip-path="url(#clip0_298_9871)">
<mask id="mask0_298_9871" style="mask-type:luminance" maskUnits="userSpaceOnUse" x="89" y="30" width="119" height="40">
<path d="M207.487 30H89.8125V70H207.487V30Z" fill="white"/>
</mask>
<g mask="url(#mask0_298_9871)">
<path d="M153.401 35.0394L153.32 35.1074C152.9 35.4522 152.384 35.658 151.842 35.6964C151.3 35.7347 150.76 35.6036 150.296 35.3213C149.523 34.9059 148.654 34.7032 147.778 34.7338C146.76 34.7338 146.023 34.9206 145.521 35.2907C145.282 35.4597 145.088 35.6851 144.957 35.9469C144.825 36.2087 144.76 36.4988 144.768 36.7917C144.753 37.074 144.807 37.3556 144.925 37.6123C145.044 37.8691 145.222 38.0932 145.446 38.2655C145.899 38.6096 146.713 38.8361 147.89 38.9447C151.684 39.2956 153.58 40.8226 153.578 43.5257C153.6 44.157 153.48 44.7853 153.225 45.3634C152.971 45.9414 152.589 46.4544 152.108 46.8639C151.126 47.7061 149.699 48.1271 147.825 48.1271C145.151 48.1271 143.152 47.182 141.829 45.2916L143.573 43.5936C144.049 44.2732 144.688 44.8229 145.43 45.193C146.173 45.563 146.996 45.7416 147.825 45.7127C149.972 45.7127 151.047 44.9848 151.049 43.5291C151.061 43.2314 150.997 42.9355 150.861 42.6702C150.726 42.4049 150.524 42.1791 150.276 42.0146C149.76 41.6591 148.855 41.4327 147.561 41.3354C144.015 41.0321 142.241 39.5345 142.239 36.8426C142.216 36.2108 142.343 35.5826 142.61 35.0094C142.877 34.4363 143.275 33.9345 143.773 33.5453C144.78 32.737 146.137 32.3329 147.846 32.3329C149.019 32.3085 150.181 32.5597 151.239 33.0664C152.141 33.4933 152.894 34.1805 153.401 35.0394Z" fill="black"/>
<path d="M155.865 32.5979C156.541 32.5979 157.189 32.8666 157.667 33.3449C158.145 33.8231 158.413 34.4718 158.413 35.1482V38.5067C158.751 37.9465 159.233 37.4872 159.808 37.1766C160.384 36.866 161.032 36.7155 161.685 36.7409C163.137 36.7409 164.269 37.1936 165.079 38.0992C165.889 39.0048 166.288 40.3065 166.277 42.0045V47.8657H163.725V42.3033C163.725 40.1368 162.882 39.0534 161.196 39.0534C160.813 39.0334 160.43 39.1017 160.077 39.253C159.724 39.4043 159.41 39.6347 159.16 39.9262C158.64 40.6054 158.379 41.4488 158.427 42.3033V47.8657H155.878L155.865 32.5979Z" fill="black"/>
<path d="M178.552 45.3356L178.687 45.424C177.731 47.1966 176.103 48.0829 173.804 48.0829C172.148 48.0829 170.84 47.5634 169.881 46.5242C168.922 45.4851 168.442 44.1142 168.442 42.4118C168.442 40.741 168.925 39.3827 169.891 38.3368C170.377 37.8117 170.971 37.3983 171.632 37.1251C172.292 36.8519 173.005 36.7254 173.719 36.7543C175.242 36.7543 176.462 37.2308 177.381 38.1839C178.299 39.137 178.758 40.3913 178.755 41.9466C178.762 42.392 178.733 42.8372 178.667 43.2777H170.885C170.952 44.0205 171.284 44.7141 171.822 45.2304C172.391 45.7049 173.118 45.9475 173.858 45.9095C174.573 45.9309 175.279 45.7483 175.895 45.3832C176.284 45.1162 176.744 44.9695 177.216 44.961C177.688 44.9526 178.153 45.0828 178.552 45.3356ZM173.74 38.9005C173.062 38.8703 172.397 39.0862 171.866 39.5083C171.343 39.9751 171.002 40.6131 170.906 41.3081H176.268C176.279 40.9864 176.224 40.6657 176.108 40.3657C175.991 40.0656 175.815 39.7924 175.589 39.5627C175.341 39.3333 175.05 39.1563 174.732 39.0426C174.414 38.9288 174.077 38.8804 173.74 38.9005Z" fill="black"/>
<path d="M180.999 32.5979H183.551V42.5207L186.286 39.2912C186.904 38.5601 187.672 37.9726 188.54 37.5697C189.407 37.1667 190.352 36.958 191.309 36.9582L187.43 41.3728L191.502 47.8726H188.648L185.855 43.1964L183.568 45.8147V47.8521H181.016L180.999 32.5979Z" fill="black"/>
<path d="M202.484 45.3356L202.62 45.424C201.663 47.1966 200.035 48.0829 197.737 48.0829C196.08 48.0829 194.772 47.5634 193.813 46.5242C192.854 45.4851 192.374 44.1142 192.374 42.4118C192.374 40.741 192.858 39.3827 193.824 38.3368C194.309 37.8117 194.903 37.3983 195.564 37.1251C196.224 36.8519 196.937 36.7254 197.651 36.7543C199.177 36.7543 200.397 37.2308 201.313 38.1839C202.23 39.137 202.688 40.3913 202.688 41.9466C202.695 42.392 202.665 42.8372 202.599 43.2777H194.821C194.887 44.0205 195.22 44.7141 195.758 45.2304C196.327 45.7049 197.054 45.9475 197.794 45.9095C198.509 45.9309 199.215 45.7483 199.831 45.3832C200.22 45.1169 200.678 44.9706 201.151 44.9622C201.622 44.9537 202.085 45.0835 202.484 45.3356ZM197.675 38.9005C196.998 38.8703 196.332 39.0862 195.802 39.5083C195.278 39.9751 194.937 40.6131 194.842 41.3081H200.204C200.215 40.9864 200.16 40.6657 200.044 40.3657C199.926 40.0656 199.751 39.7924 199.524 39.5627C199.278 39.3333 198.985 39.1563 198.668 39.0426C198.35 38.9288 198.012 38.8804 197.675 38.9005Z" fill="black"/>
<path d="M204.935 32.5979H207.487V47.8794H204.935V32.5979Z" fill="black"/>
<path d="M123.41 30L113.847 43.1081L110.626 43.4307C109.605 43.537 108.636 43.9343 107.835 44.5754C107.033 45.2165 106.431 46.0744 106.102 47.0473L103.001 56.2162H89.8125L95.721 33.9834C96.0254 32.8408 96.6985 31.8308 97.6356 31.1105C98.5728 30.3902 99.7215 29.9998 100.903 30H123.41Z" fill="#FCBD31"/>
<path d="M94.1289 70.0001L103.692 56.892L106.913 56.5524C107.935 56.4498 108.906 56.0558 109.711 55.4171C110.516 54.7784 111.121 53.9219 111.454 52.9494L114.556 43.7805H127.727L121.818 66.0167C121.514 67.1588 120.842 68.1683 119.905 68.8885C118.969 69.6089 117.821 69.9996 116.64 70.0001H94.1289Z" fill="#F96058"/>
<path d="M126.278 65.0725H128.359V65.4868H127.544V67.6941H127.093V65.4868H126.278V65.0725Z" fill="#F96058"/>
<path d="M128.799 65.0725H129.339L130.126 67.0659L130.917 65.0725H131.457V67.6941H131.019V65.8365L130.276 67.6941H129.977L129.234 65.8365V67.6941H128.799V65.0725Z" fill="#F96058"/>
<path d="M141.825 53.0173H144.452L148.3 62.7466L152.166 53.0173H154.793V65.796H154.185C153.781 65.7952 153.393 65.6338 153.107 65.3472C152.822 65.0607 152.661 64.6726 152.661 64.2679V56.7223L149.03 65.796H147.571L143.943 56.7223V64.2679C143.942 64.6729 143.781 65.0611 143.495 65.3474C143.208 65.6339 142.82 65.7952 142.416 65.796H141.825V53.0173Z" fill="black"/>
<path d="M158.312 57.8087C159.204 56.9605 160.388 56.4875 161.619 56.4875C162.85 56.4875 164.034 56.9605 164.926 57.8087C165.354 58.2689 165.685 58.8093 165.903 59.3986C166.12 59.9878 166.218 60.6143 166.192 61.2419C166.217 61.8678 166.118 62.4924 165.901 63.0798C165.683 63.6673 165.352 64.206 164.926 64.6649C164.034 65.5132 162.85 65.9862 161.619 65.9862C160.388 65.9862 159.204 65.5132 158.312 64.6649C157.888 64.2052 157.559 63.6661 157.343 63.0787C157.128 62.4913 157.03 61.8671 157.056 61.2419C157.029 60.615 157.126 59.9889 157.341 59.3997C157.557 58.8105 157.887 58.2697 158.312 57.8087ZM163.403 59.167C163.179 58.914 162.901 58.7146 162.589 58.5835C162.278 58.4524 161.941 58.393 161.604 58.4098C161.268 58.3922 160.933 58.4511 160.624 58.5823C160.315 58.7135 160.039 58.9135 159.819 59.167C159.369 59.7479 159.141 60.4706 159.177 61.2046C159.141 61.9386 159.369 62.6612 159.819 63.2421C160.039 63.4956 160.315 63.6956 160.624 63.8268C160.933 63.958 161.268 64.017 161.604 63.9994C161.941 64.0161 162.278 63.9568 162.589 63.8256C162.901 63.6946 163.179 63.4951 163.403 63.2421C163.856 62.6627 164.085 61.9393 164.047 61.2046C164.085 60.4746 163.86 59.7554 163.413 59.1772L163.403 59.167Z" fill="black"/>
<path d="M172.796 56.4879C173.337 56.475 173.875 56.5857 174.368 56.8117C174.861 57.0376 175.296 57.3728 175.64 57.7919C176.382 58.6613 176.753 59.8079 176.753 61.2319C176.753 62.6559 176.393 63.8083 175.673 64.689C175.326 65.1071 174.887 65.4404 174.392 65.6633C173.896 65.8864 173.356 65.9933 172.813 65.976C171.498 65.976 170.556 65.4531 169.986 64.4071L170.057 65.796H168.105V54.5455C168.105 54.1408 168.266 53.7526 168.552 53.4661C168.837 53.1797 169.225 53.0183 169.629 53.0173H170.24V57.6901C170.799 56.8886 171.651 56.4879 172.796 56.4879ZM172.28 58.4202C171.963 58.4042 171.647 58.4646 171.358 58.5965C171.069 58.7282 170.816 58.9275 170.62 59.1775C170.206 59.7733 170 60.4899 170.037 61.215C170 61.9401 170.206 62.6567 170.62 63.2526C170.816 63.5025 171.069 63.7018 171.358 63.8335C171.647 63.9653 171.963 64.0258 172.28 64.0098C172.608 64.0315 172.936 63.9758 173.238 63.8472C173.541 63.7186 173.809 63.5207 174.021 63.2695C174.451 62.6679 174.661 61.9363 174.615 61.198C174.658 60.4632 174.448 59.7358 174.021 59.1367C173.807 58.889 173.538 58.695 173.236 58.5705C172.933 58.446 172.606 58.3946 172.28 58.4202Z" fill="black"/>
<path d="M178.559 52.7998H180.856V55.0615H178.559V52.7998ZM178.65 56.6677H180.785V65.7958H178.65V56.6677Z" fill="black"/>
<path d="M183.062 53.0173H185.197V65.796H183.062V53.0173Z" fill="black"/>
<path d="M187.386 52.7998H189.683V55.0615H187.386V52.7998ZM187.477 56.6677H189.612V65.7958H187.477V56.6677Z" fill="black"/>
<path d="M191.197 56.6679H192.822V54.2908H194.991L194.882 56.6679H197.108V58.6036H194.953V62.5088C194.953 63.4936 195.388 63.986 196.25 63.986H197.108V65.9963H196.091C195.032 65.9963 194.22 65.7066 193.657 65.127C193.093 64.5475 192.815 63.7053 192.822 62.6005V58.6036H191.197V56.6679Z" fill="black"/>
<path d="M197.801 56.6677H200.207L202.824 63.4051L205.141 56.6677H207.476L203.526 66.6754C203.229 67.5329 202.718 68.3 202.04 68.903C201.431 69.3828 200.673 69.6339 199.898 69.6128H199.152V68.4446C199.152 68.2176 199.241 68 199.402 67.8395C199.562 67.679 199.78 67.5889 200.006 67.5889C200.686 67.5889 201.181 67.2153 201.52 66.4749L201.86 65.7618L197.801 56.6677Z" fill="black"/>
</g>
</g>
<defs>
<clipPath id="clip0_298_9871">
<rect width="118.261" height="40" fill="white" transform="translate(89.8125 30)"/>
</clipPath>
</defs>
</svg>
