<svg width="300" height="100" viewBox="0 0 300 100" fill="none" xmlns="http://www.w3.org/2000/svg">
<rect width="300" height="100" fill="white"/>
<g clip-path="url(#clip0_291_7779)">
<path fill-rule="evenodd" clip-rule="evenodd" d="M130 30H170V70H130V30Z" fill="white"/>
<path fill-rule="evenodd" clip-rule="evenodd" d="M140.974 59.3923L140.306 53.9786C138.536 52.7202 137.173 51.6845 135.534 50.4917C134.761 44.7892 136.19 41.6955 138.287 38.7591C140.896 35.4426 145.09 32.9651 150.111 32.9651C155.132 33.0174 159.34 35.5474 161.817 38.8639C164.137 42.0101 165.383 45.9689 164.478 50.649L159.956 53.9786L159.287 59.3923H152.117C151.671 59.7465 151.068 60.074 150.111 60.1003C149.167 60.074 148.577 59.7465 148.092 59.3923H140.974Z" fill="#CC2229"/>
<path fill-rule="evenodd" clip-rule="evenodd" d="M150.111 51.8811C149.731 46.8341 149.627 40.6073 149.312 35.6131C148.774 35.4819 148.014 35.5213 147.385 35.6261C146.756 35.8228 146.297 35.9932 145.759 36.2947C146.743 41.0925 147.883 47.2012 148.853 51.9597C147.529 47.3323 145.759 41.5383 144.449 36.9239C143.82 37.0551 143.203 37.4089 142.758 37.776C142.286 38.1431 142.011 38.4185 141.578 39.0738C143.479 43.1376 145.759 48.3155 147.674 52.353C145.458 48.6824 142.771 43.8454 140.542 40.2012C140.11 40.5814 139.782 40.8568 139.349 41.5908C138.982 42.1807 138.799 42.8755 138.72 43.5441C141.158 46.5199 144.068 50.0854 146.52 53.0477C143.964 50.5833 140.817 47.411 138.287 44.9465C138.038 45.4445 137.881 45.8641 137.802 46.6899C137.711 47.4894 137.868 48.4463 138.038 49.0232L142.98 52.6937L143.505 56.7706L148.945 56.8098C149.338 57.2686 149.469 57.5046 150.112 57.5438C150.728 57.5046 151.082 57.1244 151.239 56.8098H156.666L157.216 52.7199L162.119 49.0755C162.302 48.4726 162.42 47.5417 162.355 46.7421C162.276 45.877 162.119 45.4443 161.909 44.9855C159.366 47.4369 156.207 50.6094 153.677 53.0737C156.141 50.1373 159.026 46.5585 161.49 43.5568C161.359 42.8884 161.202 42.2065 160.808 41.6167C160.349 40.8825 160.087 40.6073 159.668 40.2141C157.426 43.8452 154.699 48.7219 152.484 52.3658C154.451 48.3153 156.679 43.1374 158.606 39.1263C158.187 38.4838 157.885 38.1562 157.466 37.8154C156.968 37.4352 156.351 37.0814 155.748 36.9372C154.372 41.5383 152.681 47.3848 151.344 51.9728C152.274 47.2142 153.441 41.1581 154.372 36.3736C153.9 36.0326 153.441 35.8623 152.825 35.6788C152.117 35.5477 151.423 35.5215 150.872 35.6133C150.505 40.6468 150.491 46.8604 150.111 51.8811Z" fill="#F6D330"/>
<path fill-rule="evenodd" clip-rule="evenodd" d="M135.089 65.1603H137.632C137.593 65.7241 137.868 65.8551 137.999 65.947C138.143 65.9993 139.205 66.0516 139.73 65.9598C139.939 65.9206 140.136 65.842 140.136 65.1995C140.136 64.9243 140.07 64.6228 139.756 64.557C138.641 64.4655 137.553 64.5834 136.439 64.4784C135.325 64.2296 135.155 63.9409 135.089 63.0627C135.168 61.8436 135.6 61.4897 136.845 61.4503C138.143 61.4111 139.441 61.4111 140.739 61.4503C142.063 61.4503 142.469 61.9618 142.469 63.076H140.136C140.136 62.5252 140.031 62.3157 139.756 62.2893C139.188 62.2501 138.619 62.2501 138.052 62.2893C137.842 62.2893 137.567 62.3943 137.567 62.8923C137.567 63.364 137.684 63.4821 137.999 63.5217C138.956 63.5608 139.926 63.574 140.87 63.6392C142.443 63.7311 142.496 64.4259 142.548 65.1599C142.574 66.2089 142.194 66.5755 141.919 66.7463C141.657 66.8642 140.385 67.0086 140.136 67.0086H137.619C137.055 67.0086 136.347 66.9431 135.731 66.7594C135.154 66.6023 135.089 65.8289 135.089 65.1603ZM158.986 67.0348H161.215V61.4769H158.986V67.0348ZM162.709 67.0348H164.911V61.4769H162.709V67.0348ZM157.689 64.1246C157.648 63.9507 157.595 63.7799 157.531 63.6135C157.151 62.9973 155.84 62.9973 154.569 62.971C153.612 62.971 152.183 62.9973 151.763 63.4035C151.593 63.5871 151.501 63.8492 151.449 64.1246C151.383 64.4524 151.396 64.793 151.396 64.9505C151.396 65.2387 151.422 66.3529 151.96 66.6413C152.458 66.9692 153.965 67.0086 154.542 67.0086C155.158 67.0086 156.863 66.9431 157.112 66.6544C157.557 66.4971 157.662 65.9468 157.754 65.5143H155.565C155.565 65.9468 155.224 66.2091 154.542 66.1692C153.926 66.2089 153.572 66.0646 153.572 65.2914L157.754 65.3043C157.754 64.9243 157.767 64.5178 157.689 64.1246ZM155.565 64.5047H153.572C153.572 64.3474 153.598 64.2161 153.638 64.1246C153.782 63.7708 154.149 63.7577 154.542 63.7313C155.145 63.7313 155.407 63.8756 155.512 64.1246C155.565 64.2296 155.578 64.3605 155.565 64.5047ZM143.859 67.0348H146.035V64.6751C146.087 64.3477 146.166 64.0854 146.965 64.0854C147.726 64.0725 147.935 64.2819 147.935 64.6751V67.0348H150.111V64.6751C150.111 63.9017 150.099 63.4823 149.6 63.2599C149.155 62.9712 148.512 63.0106 147.909 63.0106C147.28 63.0106 146.572 63.0893 146.035 63.3516V61.4771H143.859V67.0348Z" fill="#CC2229"/>
</g>
<defs>
<clipPath id="clip0_291_7779">
<rect width="40" height="40" fill="white" transform="translate(130 30)"/>
</clipPath>
</defs>
</svg>
