<svg width="300" height="100" viewBox="0 0 300 100" fill="none" xmlns="http://www.w3.org/2000/svg">
<rect width="300" height="100" fill="white"/>
<g clip-path="url(#clip0_293_8620)">
<path d="M129.221 69.9447C128.711 69.9447 128.272 69.8842 127.911 69.755C127.371 69.5649 126.931 69.2145 126.621 69.2145C126.412 69.2145 126.281 69.3846 126.241 69.755H125.961V67.0741H126.241C126.661 68.7249 127.652 69.5949 129.152 69.5949C130.602 69.5949 131.352 69.0446 131.352 68.1642C131.352 67.2746 130.741 67.0242 128.602 66.914C126.921 66.8247 126.052 65.9437 126.052 64.5643C126.052 63.1642 127.161 62.1238 128.672 62.1238H128.763C129.192 62.1133 129.592 62.1941 129.972 62.3035C130.312 62.4038 131.152 62.8533 131.292 62.8533C131.492 62.8533 131.553 62.7542 131.572 62.3035H131.862V64.744H131.572C131.232 63.3742 130.122 62.4637 128.772 62.4637C127.552 62.4637 126.942 63.0338 126.942 63.7237C126.942 64.8738 128.381 64.7339 129.662 64.8541C131.282 65.0044 132.342 65.7141 132.342 67.3652C132.342 68.895 131.091 69.9447 129.221 69.9447ZM136.43 69.755V69.4048H137.081V65.8343C137.081 65.1244 136.73 64.7139 136.061 64.7139C135.51 64.7139 134.901 65.284 134.901 65.8343V69.4048H135.56V69.755H132.51V69.4048H133.16V62.654H132.51V62.3037H134.9V64.9545C135.241 64.5643 135.72 64.2341 136.54 64.2341C138.311 64.2341 138.821 65.1041 138.821 66.1943V69.4046H139.481V69.7548H136.43M143.629 66.7243C143.629 65.6438 143.469 64.5444 142.519 64.5444C141.809 64.5444 141.259 65.6438 141.259 66.7243H143.629ZM139.509 67.154C139.509 65.3337 140.759 64.2335 142.539 64.2335C144.21 64.2335 145.109 65.3441 145.16 67.0747H141.249C141.249 68.6352 141.879 69.4553 142.909 69.4553C143.599 69.4553 144.859 69.0146 144.859 67.6941V67.6646H145.16V67.7347C145.16 68.905 144.19 69.9449 142.469 69.9449C140.759 69.9447 139.509 68.9645 139.509 67.154ZM149.68 64.6534C149.709 64.6534 149.73 64.6534 149.759 64.6644C149.66 64.6035 149.54 64.5444 149.379 64.5444C148.16 64.5444 147.749 65.7442 147.749 66.9144V69.4042H148.409V69.7544H145.359V69.4042H146.01V64.7638H145.359V64.414H147.749V64.9545C148.09 64.5637 148.5 64.2341 149.32 64.2341C149.86 64.2341 150.5 64.5837 150.5 65.4641C150.5 65.9142 150.13 66.2744 149.68 66.2744C149.24 66.2744 148.88 65.9142 148.88 65.4641C148.879 65.024 149.24 64.6534 149.68 64.6534ZM154.019 66.664C153.899 66.7944 153.618 66.9441 153.269 67.1041C152.458 67.4741 152.269 67.7542 152.269 68.3938C152.269 68.9447 152.489 69.4551 153.069 69.4551C153.529 69.4551 154.019 69.0044 154.019 68.5545V66.664ZM152.448 65.7542C152.448 66.2041 152.089 66.5438 151.649 66.5438C151.109 66.5438 150.839 66.1344 150.839 65.6334C150.839 64.7838 151.828 64.2335 153.318 64.2335C155.459 64.2335 155.859 64.9938 155.859 66.5937V68.5851C155.859 69.0344 155.889 69.3037 156.249 69.3037C156.599 69.3037 156.709 68.9146 156.709 68.1542V68.0434H157V68.2041C157 69.7648 156.35 69.9445 155.459 69.9445C154.83 69.9445 154.4 69.6746 154.179 69.0549C153.889 69.6344 153.129 69.9445 152.378 69.9445C151.049 69.9445 150.529 69.2746 150.529 68.4343C150.529 66.9641 152.079 66.9741 153.159 66.6837C153.78 66.5142 154.079 66.1943 154.079 65.6937C154.079 65.0038 153.569 64.6035 152.789 64.6035C152.35 64.6035 151.939 64.7938 151.719 64.9643C151.918 64.9788 152.104 65.0685 152.24 65.2151C152.375 65.3618 152.45 65.5545 152.448 65.7542ZM157.497 68.2043V64.7638H156.847V64.414C157.848 64.414 158.577 63.6937 158.798 62.5641H159.208V64.414H160.197V64.7638H159.208V68.5847C159.208 69.0645 159.467 69.3045 159.818 69.3045C160.158 69.3045 160.428 68.9142 160.428 68.155V68.0442H160.728V68.2043C160.728 69.5943 160.088 69.9447 159.058 69.9447C158.027 69.9447 157.497 69.5943 157.497 68.2043ZM163.917 64.5438C163.037 64.5438 162.688 65.4944 162.688 67.1546C162.688 68.8347 163.037 69.625 163.917 69.625C164.737 69.625 165.148 68.8347 165.148 67.1546C165.148 65.4944 164.737 64.5438 163.917 64.5438ZM163.927 69.9447C162.236 69.9447 160.956 68.9639 160.956 67.1546C160.956 65.3337 162.236 64.2341 163.917 64.2341C165.777 64.2341 166.877 65.3337 166.877 67.1546C166.877 68.9641 165.637 69.9447 163.927 69.9447ZM170.988 69.755V69.4048H171.639V65.8343C171.639 65.1244 171.288 64.7139 170.618 64.7139C170.068 64.7139 169.457 65.284 169.457 65.8343V69.4048H170.118V69.755H167.067V69.4048H167.717V64.7638H167.067V64.414H169.458V64.9545C169.798 64.5643 170.278 64.2341 171.099 64.2341C172.868 64.2341 173.378 65.1041 173.378 66.1943V69.4046H174.038V69.7548H170.988M147.031 56.0454C146.245 56.0454 145.607 56.3652 145.181 56.4713C144.947 56.5354 144.268 56.7267 143.713 56.4713C143.606 56.4293 143.266 56.4078 143.672 56.8551C143.778 56.9817 143.989 57.1099 144.244 57.2377C145.607 57.8966 146.817 57.6202 148.286 56.9603C148.647 56.7914 149.242 56.8113 149.242 56.62C149.222 56.4293 148.924 56.302 148.711 56.0044C147.903 54.8549 146.904 53.8972 145.692 53.4513C145.053 53.1969 144.755 53.3882 144.947 53.5569C145.415 54.0048 145.648 54.8341 146.266 55.5362C146.457 55.7486 146.733 55.9617 147.031 56.0454ZM149.116 55.4289C149.116 54.9823 149.796 54.3025 149.924 53.8978C150.072 54.3025 150.732 54.9821 150.732 55.4289C150.732 55.8756 150.37 56.2379 149.924 56.2379C149.818 56.2379 149.713 56.2169 149.614 56.1762C149.516 56.1355 149.427 56.0758 149.352 56.0007C149.277 55.9256 149.218 55.8364 149.177 55.7383C149.137 55.6401 149.116 55.535 149.116 55.4289ZM149.116 57.6418C149.116 58.0883 149.796 58.79 149.924 59.1947C150.072 58.79 150.732 58.0885 150.732 57.6418C150.732 57.1951 150.37 56.8333 149.924 56.8333C149.818 56.8333 149.713 56.8543 149.615 56.8949C149.517 56.9356 149.427 56.9951 149.352 57.0702C149.277 57.1453 149.218 57.2344 149.178 57.3325C149.137 57.4306 149.116 57.5357 149.116 57.6418Z" fill="black"/>
<path d="M143.011 54.3654C142.289 54.111 141.608 54.1747 141.161 54.132C140.927 54.0898 140.268 54.0679 139.842 53.6639C139.758 53.58 139.46 53.4309 139.673 54.0048C139.715 54.132 139.863 54.3029 140.055 54.5145C141.097 55.578 142.289 55.727 143.82 55.5994C144.224 55.578 144.883 55.727 144.926 55.5359C144.969 55.3658 144.649 55.1959 144.543 54.8764C144.181 53.5569 143.606 52.3456 142.651 51.5365C142.161 51.1124 141.8 51.1967 141.926 51.4093C142.203 51.963 142.14 52.7929 142.479 53.6429C142.587 53.8973 142.777 54.1745 143.011 54.3654Z" fill="black"/>
<path d="M139.715 51.3672C139.14 50.9205 138.48 50.7927 138.098 50.6442C137.864 50.5369 137.29 50.3245 137.013 49.8351C136.95 49.7294 136.716 49.5166 136.737 50.0899C136.758 50.2194 136.844 50.4309 136.971 50.7083C137.609 51.9403 138.672 52.4305 140.119 52.7282C140.48 52.8349 141.055 53.1332 141.14 52.984C141.246 52.8558 140.97 52.601 140.991 52.26C141.013 50.9631 140.821 49.6865 140.162 48.6873C139.863 48.1342 139.502 48.1128 139.566 48.3688C139.65 48.9427 139.374 49.6865 139.438 50.5581C139.46 50.8349 139.566 51.1324 139.715 51.3672Z" fill="black"/>
<path d="M137.714 47.7518C137.311 47.1762 136.759 46.8583 136.461 46.6023C136.27 46.4533 135.801 46.0713 135.716 45.539C135.674 45.4327 135.525 45.1782 135.375 45.7095C135.375 45.8367 135.375 46.0498 135.418 46.3267C135.63 47.6658 136.461 48.4106 137.672 49.1127C137.992 49.3259 138.416 49.7508 138.545 49.6652C138.672 49.5595 138.502 49.2612 138.608 48.9637C139.034 47.7732 139.225 46.5392 138.928 45.4327C138.8 44.8373 138.48 44.7315 138.48 44.9645C138.375 45.5176 137.907 46.1145 137.714 46.9433C137.652 47.1762 137.652 47.4968 137.714 47.7518Z" fill="black"/>
<path d="M137.035 43.6468C136.885 43.0296 136.481 42.5614 136.312 42.2211C136.226 42.0298 135.929 41.5398 136.034 41.0306C136.034 40.9447 135.992 40.647 135.694 41.0735C135.631 41.1792 135.568 41.3908 135.503 41.6259C135.247 42.8599 135.737 43.7956 136.545 44.8381C136.759 45.1137 136.971 45.668 137.099 45.6033C137.248 45.56 137.226 45.2415 137.417 45.0294C138.162 44.1141 138.757 43.0933 138.843 42.03C138.928 41.4769 138.694 41.2417 138.631 41.4557C138.354 41.9236 137.715 42.2838 137.311 42.9449C137.163 43.1145 137.035 43.4122 137.035 43.6468Z" fill="black"/>
<path d="M137.566 39.7959C137.566 39.1793 137.332 38.6483 137.247 38.3083C137.206 38.0946 137.076 37.5838 137.29 37.1589C137.311 37.0525 137.332 36.7763 136.95 37.0954C136.885 37.1803 136.778 37.3502 136.652 37.5636C136.12 38.6259 136.332 39.6261 136.822 40.7751C136.95 41.0728 137.013 41.6259 137.141 41.6044C137.29 41.6044 137.354 41.3061 137.566 41.1363C138.48 40.478 139.268 39.7106 139.63 38.7547C139.841 38.2653 139.672 37.9884 139.566 38.1583C139.203 38.5195 138.545 38.69 137.992 39.2228C137.801 39.3284 137.631 39.5828 137.566 39.7959Z" fill="black"/>
<path d="M139.097 36.3723C139.289 35.7759 139.203 35.2014 139.226 34.8402C139.226 34.6281 139.246 34.0954 139.566 33.7353C139.63 33.6706 139.715 33.4152 139.289 33.6065C139.183 33.6485 139.035 33.7763 138.864 33.9688C138.035 34.8404 137.97 35.8621 138.118 37.0954C138.162 37.4352 138.077 37.9676 138.205 37.9889C138.354 38.0301 138.48 37.7537 138.756 37.6479C139.799 37.2861 140.778 36.7549 141.373 35.9458C141.714 35.5209 141.65 35.2234 141.479 35.3511C141.033 35.585 140.352 35.585 139.673 35.9238C139.46 35.9893 139.226 36.1806 139.097 36.3723Z" fill="black"/>
<path d="M141.459 33.6487C141.8 33.202 141.926 32.7132 142.033 32.4155C142.117 32.2663 142.289 31.8196 142.671 31.6503C142.756 31.5862 142.905 31.3949 142.48 31.4375C142.395 31.4375 142.203 31.501 142.012 31.5862C141.076 32.0537 140.694 32.8622 140.417 33.9261C140.353 34.2024 140.119 34.6282 140.225 34.6919C140.331 34.7554 140.523 34.5856 140.758 34.5856C141.757 34.6064 142.736 34.4792 143.458 33.9896C143.863 33.7556 143.904 33.5002 143.735 33.5433C143.289 33.607 142.736 33.3943 142.075 33.4365C141.863 33.4365 141.628 33.5215 141.459 33.6487Z" fill="black"/>
<path d="M144.138 31.8415C144.5 31.5438 144.69 31.1399 144.863 30.9054C144.947 30.799 145.18 30.4382 145.542 30.3529C145.626 30.3316 145.775 30.183 145.414 30.1397C145.329 30.1189 145.18 30.1397 144.989 30.183C144.096 30.3951 143.606 31.0332 143.182 31.9266C143.075 32.1393 142.776 32.4797 142.884 32.5438C142.947 32.6073 143.159 32.4797 143.373 32.5438C144.202 32.7559 145.074 32.8206 145.798 32.5223C146.18 32.3941 146.265 32.182 146.115 32.2028C145.712 32.1602 145.286 31.8843 144.69 31.7988C144.522 31.7565 144.287 31.7774 144.138 31.8415Z" fill="black"/>
<path d="M148.307 30.4164C148.031 31.0118 147.328 31.2025 147.115 31.2672C146.946 31.3313 146.222 31.522 145.691 31.1608C145.968 30.5651 146.669 30.3744 146.861 30.3095C147.053 30.2678 147.755 30.0553 148.307 30.4164ZM154.307 36.4789C154.774 36.6478 155.178 36.4357 155.349 36.0525C155.432 35.8836 155.474 35.7762 155.474 35.6067H156.093V40.6051H155.647C154.88 38.5194 152.967 36.499 150.732 36.0106C148.521 35.6702 145.947 35.7123 144.671 37.6478C144.309 38.1789 144.5 39.2642 145.181 39.6474C147.456 41.0302 149.944 40.3912 152.967 40.8171C154.496 41.0302 156.177 41.9018 156.857 43.6037C157.518 45.241 157.39 46.9216 156.731 48.0276C155.177 50.6857 152.285 50.9415 150.434 50.9415C148.498 50.9415 146.562 50.0481 145.031 49.4944C144.564 49.3261 144.16 49.5376 143.989 49.9208C143.904 50.0903 143.861 50.2191 143.861 50.3676H143.245V45.0923C143.415 45.0923 143.606 45.0923 143.861 45.1136C144.457 47.538 146.371 49.3265 148.285 49.8786C150.498 50.537 152.709 50.4311 154.433 49.2187C155.113 48.7512 155.369 47.7305 155.113 46.8371C154.73 45.4964 152.666 45.1352 151.178 45.1138C147.988 45.0294 144.118 45.0717 142.969 41.5619C142.522 39.8812 142.799 38.0308 144.01 36.7766C146.01 34.8193 149.371 34.7562 151.923 35.5422C152.838 35.7333 153.454 36.2223 154.307 36.4789ZM152.816 56.0454C153.603 56.0454 154.241 56.3652 154.688 56.4713C154.923 56.5354 155.581 56.7267 156.136 56.4713C156.241 56.4293 156.583 56.4078 156.177 56.8551C156.07 56.9817 155.858 57.1099 155.604 57.2378C154.241 57.8966 153.03 57.6202 151.585 56.9603C151.2 56.7914 150.605 56.8113 150.625 56.62C150.625 56.4293 150.923 56.3021 151.136 56.0044C151.945 54.8549 152.945 53.8972 154.158 53.4513C154.794 53.1969 155.094 53.3882 154.902 53.5569C154.433 54.0048 154.221 54.8341 153.583 55.5362C153.392 55.7486 153.114 55.9617 152.816 56.0454Z" fill="black"/>
<path d="M156.838 54.3654C157.559 54.111 158.24 54.1747 158.687 54.132C158.921 54.0898 159.602 54.0679 160.006 53.6639C160.092 53.58 160.39 53.4309 160.176 54.0048C160.133 54.132 159.984 54.3029 159.795 54.5145C158.75 55.578 157.559 55.727 156.028 55.5994C155.624 55.578 154.985 55.727 154.923 55.5359C154.88 55.3658 155.201 55.1959 155.306 54.8764C155.667 53.5569 156.242 52.3456 157.198 51.5365C157.688 51.1124 158.048 51.1967 157.922 51.4093C157.645 51.963 157.708 52.7929 157.369 53.6429C157.261 53.8973 157.072 54.1745 156.838 54.3654Z" fill="black"/>
<path d="M160.132 51.3672C160.708 50.9205 161.366 50.7927 161.751 50.6442C161.984 50.5369 162.58 50.3245 162.835 49.8351C162.899 49.7294 163.132 49.5166 163.113 50.0899C163.09 50.2194 163.007 50.4309 162.878 50.7083C162.24 51.9403 161.176 52.4305 159.729 52.7282C159.368 52.8349 158.793 53.1332 158.71 52.984C158.624 52.8558 158.879 52.601 158.858 52.26C158.836 50.9631 159.028 49.6865 159.686 48.6873C160.006 48.1342 160.347 48.1128 160.284 48.3688C160.198 48.9427 160.472 49.6865 160.41 50.5581C160.389 50.8349 160.284 51.1324 160.132 51.3672Z" fill="black"/>
<path d="M162.134 47.7518C162.537 47.1762 163.09 46.8583 163.41 46.6023C163.579 46.4533 164.048 46.0713 164.154 45.539C164.174 45.4327 164.324 45.1782 164.472 45.7095C164.495 45.8367 164.472 46.0498 164.452 46.3267C164.24 47.6658 163.387 48.4106 162.176 49.1127C161.856 49.3259 161.432 49.7508 161.325 49.6652C161.197 49.5595 161.347 49.2612 161.24 48.9637C160.836 47.7732 160.622 46.5392 160.919 45.4327C161.068 44.8373 161.366 44.7315 161.366 44.9645C161.475 45.5176 161.962 46.1145 162.134 46.9433C162.219 47.1762 162.219 47.4968 162.134 47.7518Z" fill="black"/>
<path d="M162.815 43.6468C162.984 43.0296 163.367 42.5614 163.537 42.2211C163.622 42.0298 163.92 41.5398 163.814 41.0306C163.814 40.9447 163.877 40.647 164.174 41.0735C164.24 41.1792 164.28 41.3908 164.346 41.6259C164.601 42.8599 164.111 43.7956 163.324 44.8381C163.09 45.1137 162.878 45.668 162.749 45.6033C162.6 45.56 162.643 45.2415 162.451 45.0294C161.688 44.1141 161.112 43.0933 161.006 42.03C160.92 41.4769 161.155 41.2417 161.218 41.4557C161.496 41.9236 162.134 42.2838 162.537 42.9449C162.709 43.1145 162.815 43.4122 162.815 43.6468Z" fill="black"/>
<path d="M162.303 39.7959C162.282 39.1793 162.517 38.6483 162.6 38.3083C162.644 38.0946 162.792 37.5838 162.579 37.1589C162.537 37.0525 162.517 36.7763 162.899 37.0954C162.983 37.1803 163.07 37.3502 163.195 37.5636C163.75 38.6259 163.516 39.6261 163.047 40.7751C162.92 41.0728 162.835 41.6259 162.709 41.6044C162.56 41.6044 162.516 41.3061 162.282 41.1363C161.389 40.478 160.582 39.7106 160.218 38.7547C160.027 38.2653 160.175 37.9884 160.304 38.1583C160.644 38.5195 161.325 38.69 161.878 39.2228C162.047 39.3284 162.24 39.5828 162.303 39.7959Z" fill="black"/>
<path d="M160.751 36.3723C160.559 35.7759 160.645 35.2014 160.645 34.8402C160.622 34.6281 160.602 34.0954 160.285 33.7353C160.241 33.6706 160.132 33.4152 160.582 33.6065C160.665 33.6485 160.813 33.7763 160.986 33.9688C161.814 34.8404 161.879 35.8621 161.73 37.0954C161.688 37.4352 161.772 37.9676 161.644 37.9889C161.496 38.0301 161.367 37.7537 161.112 37.6479C160.049 37.2861 159.071 36.7549 158.475 35.9458C158.135 35.5209 158.22 35.2234 158.369 35.3511C158.816 35.585 159.497 35.585 160.176 35.9238C160.389 35.9893 160.622 36.1806 160.751 36.3723Z" fill="black"/>
<path d="M158.432 33.6283C158.114 33.181 157.986 32.6922 157.88 32.3945C157.794 32.2453 157.602 31.7991 157.241 31.6281C157.156 31.5656 157.007 31.3727 157.433 31.4159C157.519 31.4159 157.689 31.48 157.9 31.5656C158.836 32.0325 159.219 32.841 159.474 33.9043C159.537 34.202 159.795 34.6064 159.686 34.6695C159.58 34.7551 159.389 34.5632 159.133 34.5632C158.155 34.6064 157.178 34.4574 156.454 33.9886C156.028 33.7342 156.008 33.4794 156.156 33.5207C156.623 33.5854 157.178 33.3721 157.837 33.4155C158.028 33.4157 158.284 33.5001 158.432 33.6283Z" fill="black"/>
<path d="M155.73 31.8414C155.37 31.5437 155.178 31.1399 155.009 30.8845C154.923 30.7775 154.688 30.4382 154.327 30.3314C154.242 30.3094 154.092 30.1828 154.456 30.1395C154.539 30.1187 154.711 30.1395 154.88 30.1828C155.773 30.3949 156.262 31.0329 156.689 31.9061C156.795 32.1391 157.093 32.458 156.987 32.5221C156.924 32.607 156.709 32.4794 156.497 32.5435C155.667 32.7557 154.793 32.7989 154.092 32.5221C153.69 32.3939 153.602 32.1597 153.753 32.1818C154.158 32.1391 154.582 31.8628 155.178 31.7773C155.349 31.735 155.581 31.7773 155.73 31.8414Z" fill="black"/>
<path d="M151.542 30.4164C151.816 31.0118 152.518 31.2025 152.732 31.2672C152.902 31.3313 153.626 31.522 154.157 31.1608C153.88 30.5651 153.179 30.3744 152.987 30.3095C152.795 30.2678 152.094 30.0553 151.542 30.4164Z" fill="black"/>
</g>
<defs>
<clipPath id="clip0_293_8620">
<rect width="48.0769" height="40" fill="white" transform="translate(125.961 30)"/>
</clipPath>
</defs>
</svg>
