<svg width="300" height="100" viewBox="0 0 300 100" fill="none" xmlns="http://www.w3.org/2000/svg">
<rect width="300" height="100" fill="white"/>
<g clip-path="url(#clip0_291_7726)">
<path d="M37.9766 30.105H261.981V69.8532H37.9766V30.105Z" fill="#373435"/>
<path d="M263.034 70.9058H36.9238V29.0522H263.034V70.9058ZM39.0291 68.8005H260.929V31.1576H39.0291V68.8005Z" fill="black"/>
<path d="M202.148 36.5051C201.854 37.263 201.432 37.5998 200.969 38.4419C200.632 38.9893 200.296 39.7472 200.001 40.463C198.653 44.2105 201.18 47.5369 204.633 43.9999C205.517 43.0736 206.148 41.0946 207.664 41.3052C208.338 42.1052 208.254 42.8631 208.296 44.0842C208.38 46.8211 208.338 49.8527 208.127 52.5475C208.043 53.6844 207.875 55.4107 207.496 56.4634C207.285 57.0529 206.401 57.6844 205.685 58.0213C204.885 58.4424 204.843 58.1055 204.633 59.2424C204.464 60.2108 204.885 60.7582 205.896 61.3898C209.18 62.8635 215.412 62.8635 218.822 61.6003C219.833 61.095 220.296 60.8003 220.422 60.0845C220.549 58.8634 220.38 58.4845 219.454 58.0213C217.012 56.8423 217.264 55.6634 217.306 51.7054C217.349 48.7158 217.349 45.3895 217.475 42.3999L217.685 41.3052C218.907 40.7999 219.201 41.4315 219.622 42.442C220.17 42.9473 220.507 43.9578 221.307 44.6736C222.864 46.021 227.538 46.4421 225.686 39.1577C228.17 40.1262 228.044 41.3894 228.086 45.3473C228.128 47.6632 228.254 55.3265 227.37 57.3897C226.822 58.6108 225.77 58.5687 225.18 59.4529C224.38 60.5477 224.97 61.8108 226.191 62.1056C227.58 62.4003 240.633 61.9793 246.781 62.7793C249.223 63.074 250.233 60.1266 250.781 58.2318C251.412 55.916 251.749 52.1685 248.381 53.0107C245.981 54.5265 246.907 57.3897 241.475 57.6844C239.37 57.7687 237.391 57.9371 237.054 56.337C236.717 54.9054 236.886 52.2949 237.181 50.9475C238.275 50.6948 238.739 50.6527 239.791 50.9896C240.296 52.4633 240.17 53.0107 240.802 54.1475C241.139 54.6949 241.139 54.6949 241.77 54.6528C244.675 54.316 244.549 49.9369 244.507 47.1579L244.465 46.1053C244.381 45.8526 244.423 46.021 244.381 45.7684C244.002 44.2105 243.749 42.1894 241.391 42.821C241.054 42.9894 240.802 43.1999 240.76 43.4947C240.465 44.4631 239.96 46.0632 239.581 46.4C238.823 46.8211 237.896 46.779 237.138 46.4C236.633 45.6842 236.717 44.5052 236.802 43.4105L237.181 40.5893C239.075 40.042 242.486 39.7472 244.297 41.0104C246.191 42.3578 245.939 44.5052 248.802 43.4947C249.139 43.3684 249.349 43.1157 249.433 42.821C250.57 39.9578 249.939 34.9471 245.644 35.4103C238.36 36.2524 231.538 35.3682 227.622 35.705C225.854 35.8735 225.475 36.2945 225.012 37.684C223.959 36.1682 223.201 34.7787 220.507 35.4524C218.57 35.9577 209.769 35.7892 207.243 35.7471C206.022 35.7471 205.138 35.2419 204.296 35.284C203.201 35.4103 202.611 36.2103 202.148 36.5051Z" fill="#EA3637"/>
<path d="M169.895 40.1261C174.611 39.0735 174.19 47.8736 170.021 46.9052C169.137 46.6947 169.39 46.0631 169.39 44.9683C169.39 43.3262 169.179 41.3051 169.895 40.1261ZM187.074 40.2103C187.369 40.3788 187.706 40.6735 187.916 41.0946C188.59 42.442 188.253 53.179 188.043 55.1159C187.959 56.0843 187.79 56.8002 187.285 57.3054C184.38 59.9581 184.59 55.7475 183.706 52.8843C182.906 50.2737 181.264 49.7684 178.906 48.7579C179.074 48 178.99 48.2105 179.832 47.7473C182.064 46.4841 183.158 44.842 182.99 42.1051C182.695 35.1155 174.274 35.5787 169.306 35.7471L160.842 35.8313C160 35.9155 159.242 36.2524 158.526 36.2945L158.021 36.9682C156.632 39.2419 159.916 39.1577 160.295 41.1367C160.716 43.0735 160.547 47.0315 160.547 49.1368C160.505 60.6318 159.242 57.0107 158.021 59.0739C157.179 60.4634 158.189 60.9266 158.695 61.7687C159.495 61.8108 160.632 62.2318 161.684 62.3582C162.779 62.4845 163.916 62.4845 165.095 62.4845C167.242 62.4845 169.853 62.4845 171.327 61.4318C173.263 59.2423 170.442 58.4423 169.853 57.516C169.306 56.6738 169.558 52.5053 169.558 51.2421C172.969 50.779 173.6 54.9475 174.485 58.6949C175.2 59.5792 175.2 61.1792 177.6 62.1476C179.285 62.7792 181.727 62.8213 183.537 62.4845C184.843 62.274 185.18 61.895 186.064 61.6003C186.78 61.3897 187.79 61.9371 188.674 62.1055C190.78 62.4845 199.496 63.0319 199.79 59.9581C200.001 57.6423 197.601 58.6949 197.348 55.537C197.096 52.5053 197.18 45.221 197.601 42.3577C197.769 40.463 197.811 40.7577 198.948 39.8735C199.622 39.3682 200.127 38.6945 199.79 37.6419C199.285 36.126 196.717 35.7892 194.822 35.705C192.759 35.5787 190.232 35.6208 188.295 36.0418C185.811 36.6313 185.222 37.5155 186.022 39.3261C186.274 39.7051 186.611 39.9998 187.074 40.2103ZM77.5562 40.9261C78.272 42.2735 78.0615 53.3053 77.7667 55.3685C77.472 58.4002 77.4299 57.0949 75.872 58.316C74.5667 59.3265 75.1562 60.716 76.2088 61.3897C78.8615 63.1161 90.146 63.2003 89.0091 59.2002C88.7564 58.2739 87.8722 58.0633 87.3669 57.4317C86.609 56.4633 86.5248 52.6737 86.988 51.4948C88.2091 50.6105 91.9565 50.4 93.1776 51.2421C93.8092 52.1685 93.5565 54.1475 93.4723 55.5791C93.3039 58.3581 92.5881 57.0949 91.5355 58.4423C90.6091 59.5792 91.1144 60.9687 92.167 61.5581C93.0934 62.1055 94.9882 62.3161 96.2934 62.4003C98.7777 62.5266 103.536 62.5687 104.673 60.9266C105.936 58.9897 103.746 57.9791 103.536 57.8528C102.567 57.1791 102.736 55.7054 102.651 53.8106C102.525 50.4 102.483 46.6105 102.651 43.1999C102.82 40.4209 102.736 40.9682 104.462 39.6208C106.273 38.2313 105.22 36.5892 103.367 36.0839C101.809 35.6629 100.504 35.6208 98.4409 35.6208C96.3777 35.6208 89.8091 35.5365 91.4512 39.0735C92.1249 40.463 92.8828 39.2419 93.346 41.4735C93.6829 42.5262 93.6408 44.5052 93.346 45.5999C92.2092 45.9368 88.8407 46.442 87.6617 45.6841C86.5669 45.0104 87.0722 41.684 87.1985 41.263C87.6196 39.6629 88.5459 40.1682 89.1775 39.0314C90.3565 36.9682 88.1249 36.2945 86.6511 36.0839C84.5879 35.7471 82.3984 35.2839 78.8194 35.9155C74.8614 36.5892 74.8614 38.6945 76.0825 39.6208C77.093 40.463 77.0088 39.6629 77.5562 40.9261Z" fill="#EA3637"/>
<path d="M114.189 46.442C113.725 41.9366 116.589 39.1997 119.789 42.484C122.357 45.2209 124.884 54.0211 121.978 56.4212C120.42 57.7265 118.315 56.2948 117.599 55.4527C115.957 53.5158 114.525 49.7263 114.189 46.442ZM104.336 50.7368C104.588 53.6001 106.231 57.0528 108.42 58.9054C110.02 60.3791 112.336 61.895 115.199 62.5687C119.662 63.5792 122.862 62.9897 126.02 61.1371C129.178 59.2844 131.199 57.4738 132.463 53.9369C133.052 52.2948 133.263 50.5684 133.221 48.7578C133.094 38.4418 123.157 32.9259 113.683 35.9576C107.031 38.0629 103.704 43.9156 104.336 50.7368ZM54.061 38.8208C53.6821 39.284 53.3452 39.6629 53.0084 40.2945C52.1241 42.0209 51.7873 44.3367 52.3347 46.2736C52.461 46.7367 52.6294 47.242 52.9663 47.8736C54.3558 50.6947 57.7664 52.6316 60.7138 53.4316C62.8191 53.979 66.2297 55.7475 63.8297 57.0949C61.9349 58.1896 59.3664 57.2633 57.9769 56.0843C57.7664 55.8738 56.3348 54.4843 56.1242 54.2316C55.24 53.0527 54.7347 51.2842 52.3347 51.8737C51.3241 52.6737 51.3662 53.6001 51.4926 55.3264C51.6189 56.5896 51.9136 58.0212 52.3768 59.116C53.0084 60.4212 53.4715 60.7581 54.7768 61.3476C59.9138 63.6634 66.9455 63.7897 71.5772 60.3791C72.6298 59.6212 72.5456 59.6633 73.3456 58.6949C73.6825 58.2738 74.0193 57.8949 74.5667 56.6738C75.451 54.9896 75.2825 51.579 74.5246 49.8947C73.5141 47.621 71.0298 46.2315 68.7561 45.4315C66.0192 44.5051 62.2296 44.042 62.4823 41.4735C64.2928 39.9577 66.6087 40.6735 68.0824 41.8524C70.0614 43.4525 70.5666 44.7578 73.093 44.5051L73.2193 44.4209C74.4825 43.5367 75.1983 42.6103 74.6088 40.4208C73.8509 37.7681 72.1667 35.3681 69.1771 35.9155C67.535 36.1681 66.5244 35.6207 64.8823 35.4102C62.8191 35.1576 60.5033 35.2418 58.5243 35.8734C56.84 36.505 55.24 37.4313 54.061 38.8208Z" fill="#EA3637"/>
<path d="M145.179 40.5051C145.81 39.7472 147.242 40.5051 147.579 40.842C149.095 42.2315 149.095 46.1895 147.705 47.4948C147.41 47.7895 146.189 48.4632 145.474 48.2106C144.252 47.8316 144.884 40.7999 145.179 40.5051ZM132.968 36.7156C131.368 39.242 134.4 39.242 135.284 40.3788C136.379 41.7262 135.831 50.8633 135.747 53.0528C135.579 57.6423 135.579 57.0108 134.021 58.0213C132.084 59.2845 132.968 61.1372 134.821 61.8951C136.8 62.6109 148.337 63.7898 147.663 59.495C147.453 58.4003 146.653 58.4845 146.063 57.6423C145.979 57.6423 145.389 58.1476 145.179 55.8739C145.053 54.9054 145.095 53.8528 145.137 52.8843C149.179 53.0528 153.095 52.8843 155.958 50.0632C158.105 47.9158 158.526 43.6631 157.684 40.842C157.137 39.1999 155.79 37.7682 154.358 37.0524C151.368 35.4945 147.705 35.5787 144 35.7893C142.021 35.9156 140.126 36.084 138.105 35.9998C136.126 35.7893 134.231 35.6208 132.968 36.7156Z" fill="#EA3637"/>
</g>
<defs>
<clipPath id="clip0_291_7726">
<rect width="224.215" height="40" fill="white" transform="translate(37.8923 30)"/>
</clipPath>
</defs>
</svg>
