<svg width="300" height="100" viewBox="0 0 300 100" fill="none" xmlns="http://www.w3.org/2000/svg">
<rect width="300" height="100" fill="white"/>
<g clip-path="url(#clip0_298_9858)">
<path d="M76.3887 65.7957C67.3613 72.5702 54.3605 70.9898 47.3504 62.266C40.3405 53.5422 41.9758 40.9786 51.003 34.2042C60.0303 27.4299 73.031 29.0101 80.041 37.7339C87.0512 46.4577 85.4158 59.0213 76.3887 65.7957Z" fill="#20E682"/>
<path d="M60.0191 65.5432L73.3201 56.5409C74.9131 55.4639 75.9004 53.8659 76.2092 52.1567C76.5242 50.4417 76.1607 48.6156 75.0464 47.0761C73.3382 44.7172 70.3521 43.728 67.6206 44.3718C66.9119 44.5415 66.2214 44.8166 65.5732 45.2089C65.4642 45.2733 65.3612 45.3376 65.2522 45.4078L60.1341 48.8731C60.1281 48.8789 60.1281 48.8847 60.1281 48.8906C60.0492 49.1657 59.8859 49.4174 59.6314 49.5929C59.6254 49.6047 59.6072 49.6106 59.595 49.6222C59.0135 50.0204 58.2141 49.9091 57.7658 49.3822C57.7537 49.3647 57.7417 49.3529 57.7295 49.3412C57.7174 49.3237 57.7114 49.3119 57.6992 49.3002C57.6871 49.2826 57.681 49.2709 57.6689 49.2534C57.6629 49.2416 57.6507 49.2241 57.6447 49.2122C57.2813 48.6269 57.4508 47.8602 58.0324 47.4679C58.3049 47.2806 58.6199 47.2104 58.9287 47.2339L67.3782 41.5151V34.4563L54.071 43.4587C52.484 44.5357 51.4968 46.1337 51.1818 47.8427C50.8668 49.5579 51.2303 51.3841 52.3447 52.9234C54.0588 55.2822 57.0449 56.2716 59.7766 55.6277C60.4852 55.4581 61.1757 55.1829 61.8179 54.7907C61.9269 54.7262 62.0359 54.6619 62.1389 54.5917L67.2631 51.1264C67.2631 51.1207 67.2631 51.1147 67.2691 51.1089C67.3417 50.8337 67.5112 50.5879 67.7597 50.4066C67.7717 50.3947 67.7839 50.3891 67.7959 50.3772C68.3836 49.9792 69.1831 50.0904 69.6252 50.6172C69.6374 50.6349 69.6494 50.6466 69.6616 50.6582C69.6737 50.6759 69.6797 50.6876 69.6919 50.6994C69.7039 50.7169 69.7099 50.7286 69.7221 50.7462C69.7342 50.7579 69.7402 50.7756 69.7524 50.7872C70.1097 51.3726 69.9464 52.1336 69.3587 52.5316C69.0862 52.7131 68.7712 52.7891 68.4684 52.7657L60.0191 58.4842V65.5432Z" fill="#101211"/>
<path d="M105.013 49.1521L100.774 48.1859C98.7599 47.7222 97.7806 46.9007 97.7806 45.6745C97.7806 44.0166 99.1074 43.0269 101.33 43.0269C103.505 43.0269 104.831 44.1893 104.879 46.1363L104.881 46.2021H110.543L110.543 46.134C110.495 41.6901 106.888 38.7043 101.568 38.7043C98.8403 38.7043 96.5078 39.3635 94.8234 40.6108C93.0843 41.8985 92.1649 43.7291 92.1649 45.9046C92.1649 49.4854 94.1204 51.5067 98.5048 52.4589L102.743 53.4254C104.607 53.8347 105.403 54.5446 105.403 55.7986C105.403 57.4564 103.863 58.4461 101.283 58.4461C98.7199 58.4461 97.1618 57.2666 97.1139 55.2907L97.1123 55.2249H91.4504V55.2924C91.4504 57.5182 92.3546 59.4121 94.0653 60.7689C95.7908 62.1374 98.2204 62.8607 101.092 62.8607C103.99 62.8607 106.463 62.1636 108.241 60.8451C110.058 59.4981 111.019 57.5939 111.019 55.3384C111.019 51.9789 109.166 50.0711 105.013 49.1521Z" fill="#101211"/>
<path d="M125.769 40.8158C122.877 40.8158 120.331 41.9906 118.906 43.9696V34.707H113.436V62.2648H118.862V50.8912C118.862 47.6763 120.91 45.5988 124.079 45.5988C126.871 45.5988 128.472 47.4515 128.472 50.6818V62.2648H133.898V49.4675C133.898 46.7497 133.203 44.6143 131.833 43.1206C130.43 41.5913 128.39 40.8158 125.769 40.8158Z" fill="#101211"/>
<path d="M151.506 52.3583C151.506 56.2293 149.913 58.1113 146.636 58.1113C143.58 58.1113 142.157 56.3763 142.157 52.6515V41.4453H136.73V54.4518C136.73 59.6075 139.762 62.8103 144.643 62.8103C147.434 62.8103 150.174 61.5355 151.532 59.6215L151.905 62.266H156.933V41.4453H151.506V52.3583Z" fill="#101211"/>
<path d="M197.328 34.707H191.945V62.2648H197.328V34.707Z" fill="#101211"/>
<path d="M235.747 41.2305L235.597 41.2306C232.813 41.2306 230.6 42.3779 229.618 44.3133L229.333 41.4863H224.217V62.2652H229.643V52.1478C229.643 48.3298 231.82 46.2274 235.77 46.2274H237.79V41.3695L237.73 41.3613C236.762 41.2294 236.382 41.2309 235.747 41.2305Z" fill="#101211"/>
<path d="M250.863 50.3243L247.007 49.4449C245.177 49.0239 244.287 48.2784 244.287 47.1656C244.287 45.6385 245.462 44.7627 247.51 44.7627C249.485 44.7627 250.69 45.8182 250.733 47.5859L250.735 47.6519H255.9V47.5838C255.857 43.5364 252.572 40.8171 247.727 40.8171C245.243 40.8171 243.12 41.4175 241.585 42.5531C240.002 43.7259 239.165 45.3935 239.165 47.3751C239.165 50.6368 240.945 52.4781 244.938 53.3451L248.795 54.2246C250.488 54.5964 251.21 55.2404 251.21 56.3781C251.21 57.8829 249.81 58.7813 247.467 58.7813C245.138 58.7813 243.723 57.7101 243.68 55.9159L243.678 55.8501H238.515V55.9176C238.515 57.9448 239.338 59.6698 240.897 60.9056C242.467 62.1518 244.68 62.8104 247.293 62.8104C249.933 62.8104 252.183 62.1758 253.803 60.9749C255.458 59.7481 256.333 58.0136 256.333 55.9594C256.333 52.8989 254.647 51.1611 250.863 50.3243Z" fill="#101211"/>
<path d="M216.565 55.4796C215.967 57.4198 214.067 58.4881 211.215 58.4881C207.761 58.4881 205.805 56.6881 205.4 53.1376L221.512 53.0956V51.4789C221.512 45.0021 217.368 40.8171 210.955 40.8171C204.639 40.8171 200.227 45.3564 200.227 51.8556C200.227 58.3056 204.71 62.8104 211.128 62.8104C216.763 62.8104 220.677 60.0819 221.597 55.5116L221.613 55.4313H216.58L216.565 55.4796ZM216.103 49.3141H205.625C206.254 46.5829 208.11 45.1398 210.998 45.1398C213.93 45.1397 215.88 46.7369 216.103 49.3141Z" fill="#101211"/>
<path d="M184.097 56.2501V45.8482H188.291V41.4421H184.131V34.9934H178.705V41.4421H174.589V45.8482H178.734V57.1436C178.734 60.3013 180.948 62.2628 184.511 62.2628H188.684V57.7363H185.998C184.772 57.7363 184.097 57.2084 184.097 56.2501Z" fill="#101211"/>
<path d="M168.746 56.2501V45.8482H172.933V41.4421H168.773V34.9934H163.347V41.4421H159.23V45.8482H163.379V57.1436C163.379 60.3013 165.594 62.2628 169.16 62.2628H173.333V57.7363H170.647C169.421 57.7363 168.746 57.2084 168.746 56.2501Z" fill="#101211"/>
</g>
<defs>
<clipPath id="clip0_298_9858">
<rect width="213.333" height="40" fill="white" transform="translate(43 30)"/>
</clipPath>
</defs>
</svg>
