<svg width="300" height="100" viewBox="0 0 300 100" fill="none" xmlns="http://www.w3.org/2000/svg">
<rect width="300" height="100" fill="white"/>
<g clip-path="url(#clip0_291_7763)">
<path d="M103.357 55.6281C102.431 56.523 101.905 57.5818 101.655 58.1945C102.129 59.0103 102.655 59.7948 103.229 60.5433C107.671 60.3368 110.365 58.898 112.041 57.3457C114.119 55.4229 114.634 53.5594 114.503 52.8992C114.344 52.0986 112.926 51.0853 110.838 49.3099C108.749 47.5345 107.627 43.9658 113.468 39.3321C118.858 35.0564 125.135 33.756 126.41 33.5247C123.56 31.308 120.056 30 116.265 30C106.708 30 98.9614 38.2809 98.9614 48.6125C98.9614 51.3999 99.636 54.0427 100.731 56.4191C101.937 55.6425 103.357 55.6281 103.357 55.6281Z" fill="#0093E1"/>
<path d="M130.733 38.3842C129.39 39.3377 127.797 39.4547 127.797 39.4547C128.851 38.8785 129.411 37.7172 129.695 36.8587C129.373 36.4347 129.036 36.0276 128.682 35.6375C126.911 35.1687 124.614 35.402 122.869 36.4925C121.141 37.5726 119.548 39.5112 118.925 40.7641C118.302 42.017 118.099 43.526 122.037 45.7557C126.261 48.1466 123.016 51.8888 121.136 53.9258C118.644 56.6229 113.174 60.5655 113.174 60.5655H129.213C131.706 57.3244 133.57 53.1596 133.57 48.6161C133.568 44.8243 132.523 41.3141 130.733 38.3842Z" fill="#0093E1"/>
<path d="M149.923 49.3746C150.946 49.3746 151.776 48.5449 151.776 47.5214C151.776 46.4979 150.946 45.6682 149.923 45.6682C148.899 45.6682 148.07 46.4979 148.07 47.5214C148.07 48.5449 148.899 49.3746 149.923 49.3746Z" fill="#AAAAAA"/>
<path d="M152.773 48.174H162.475V46.8599H152.768C152.819 47.0767 152.845 47.2987 152.846 47.5214C152.846 47.741 152.822 47.9599 152.773 48.174ZM141.451 56.3537C140.815 54.9356 140.728 52.4195 142.034 50.9015C143.34 49.3836 146.002 49.334 147.564 50.7707V48.2236C147.233 48.0815 146.895 47.9572 146.55 47.8512C145.931 47.657 143.234 47.1986 141.257 48.2924C139.281 49.3863 138.099 51.9603 138.099 54.0599C138.099 56.1596 138.804 58.6654 141.716 60.0766C141.716 60.0766 142.739 60.562 144.47 60.562C145.934 60.562 146.764 60.1124 146.764 60.1124L147.999 57.8538C147.999 57.8538 146.729 58.4733 145.3 58.4892C143.87 58.505 142.089 57.7746 141.451 56.3537ZM148.908 50.6888H150.937V60.3114H148.908V50.6888ZM157.327 50.452C156.708 50.452 155.719 50.6323 155.719 50.6323L154.326 52.5248V50.6888H152.297V60.3114H154.326V52.9241C154.326 52.9241 154.877 52.2659 156.073 52.2659C157.27 52.2659 158.006 52.6508 158.262 53.1292C158.417 53.4208 158.491 53.7481 158.478 54.0778V60.3148H160.505V54.0778C160.505 54.0778 160.582 52.1503 159.679 51.2684C158.929 50.5332 157.993 50.452 157.327 50.452ZM181.161 50.452C180.56 50.452 179.603 50.6323 179.603 50.6323L178.232 52.5599C178.117 52.0876 177.922 51.603 177.589 51.2684C176.864 50.5367 175.957 50.4554 175.313 50.4554C174.713 50.4554 173.756 50.6358 173.756 50.6358L172.407 52.5282V50.6888H170.378V60.3114H172.407V52.9241C172.407 52.9241 172.94 52.2659 174.099 52.2659C175.258 52.2659 175.97 52.6508 176.219 53.1292C176.367 53.4226 176.438 53.7492 176.425 54.0778V60.3148H178.39V54.0778C178.396 53.676 178.365 53.2745 178.296 52.8786C178.433 52.7334 178.964 52.2659 179.948 52.2659C181.106 52.2659 181.819 52.6508 182.067 53.1292C182.216 53.4226 182.287 53.7492 182.274 54.0778V60.3148H184.238V54.0778C184.238 54.0778 184.313 52.1503 183.436 51.2684C182.711 50.5332 181.805 50.452 181.161 50.452ZM169.63 55.615C169.63 55.615 169.63 53.2545 168.774 52.1042C167.917 50.9538 166.727 50.452 165.557 50.452C164.238 50.452 162.068 51.2781 161.4 54.0744C160.732 56.8707 162.068 59.2918 163.572 60.0436C165.075 60.7953 167.395 60.7045 168.168 60.3114L169.359 58.3728C169.359 58.3728 168.103 59.0419 166.589 58.9786C165.074 58.9153 164.307 58.2461 163.982 57.7677C163.658 57.2893 163.417 56.7144 163.464 55.615H169.63ZM164.179 52.6294C164.807 51.7951 166.139 51.7159 166.826 52.4346C167.513 53.1533 167.519 54.2816 167.519 54.2816H163.571C163.571 54.2816 163.615 53.3798 164.179 52.6294ZM192.196 59.0261V54.0744C192.196 54.0744 192.275 52.2157 191.289 51.3056C190.52 50.5945 189.682 50.452 189.018 50.452C188.398 50.452 186.759 50.7122 186.759 50.7122L185.37 52.9241C185.976 52.5325 186.672 52.3023 187.392 52.2556C188.249 52.2019 188.88 52.1634 189.384 52.4153C189.74 52.5936 189.916 52.9323 189.98 53.0851C190.111 53.3974 190.175 53.7338 190.167 54.0723V54.4888H188.348C188.348 54.4888 186.619 54.5033 185.518 55.6901C184.417 56.8769 184.775 59.3056 185.832 59.9775C186.89 60.6494 188.662 60.5062 189.034 60.4208L190.167 58.7824V59.024C190.172 59.461 190.244 59.8946 190.381 60.3093H192.495C192.187 60.003 192.196 59.0261 192.196 59.0261ZM190.167 58.136V58.6179C189.892 58.7556 189.341 58.9979 188.784 59.0261C188.005 59.0647 186.89 58.9394 186.89 57.4944C186.89 56.3633 188.28 55.9895 188.784 55.9923H190.167V58.136Z" fill="#B3151E"/>
<path d="M197.634 52.8552C196.694 52.5419 195.569 51.8501 196.025 50.4512C196.481 49.0524 199.491 49.1983 200.535 50.5924V48.3069C200.535 48.3069 198.877 47.2219 196.395 47.5159V46.8591H169.129V48.174H194.683C193.547 49.0159 193.152 50.4664 193.152 51.583C193.152 53.2069 194.415 54.263 195.982 54.6333C197.549 55.0037 198.261 55.8897 198.261 56.7158C198.261 57.5419 197.779 58.4822 196.395 58.4822C195.01 58.4822 193.867 57.9859 193.152 57.2713V59.6925C194.139 60.2604 195.256 60.5646 196.395 60.5757C198.246 60.5757 201.039 59.6498 201.039 56.7302C201.039 53.8107 198.574 53.1691 197.634 52.8552Z" fill="#B3151E"/>
<path d="M101.962 64.9835C100.759 65.0599 100.331 66.202 100.331 67.099C100.331 67.2064 100.326 67.6931 100.326 67.808C100.326 69.105 98.9614 69.1573 98.9614 69.1573V69.9999C100.565 69.9999 101.078 69.041 101.078 67.32C101.078 66.1806 101.663 65.8743 102.059 65.7945C102.175 65.7704 102.295 65.7636 102.413 65.7745V64.989C102.263 64.9754 102.112 64.9735 101.962 64.9835ZM102.819 64.9773H103.664V69.9999H102.819V64.9773ZM110.136 64.9773L108.654 68.8847L107.172 64.9773H106.327L108.082 69.6048C108.126 69.721 108.205 69.821 108.307 69.8916C108.409 69.9621 108.531 69.9999 108.655 69.9999C108.779 69.9999 108.9 69.9621 109.003 69.8916C109.105 69.821 109.183 69.721 109.228 69.6048L110.982 64.9773H110.136ZM105.489 67.9437V62.9651H104.643V68.0889C104.644 68.5584 104.83 69.0086 105.162 69.3405C105.494 69.6724 105.945 69.8588 106.414 69.8588H106.844V69.0782H106.623C106.474 69.0782 106.327 69.0488 106.189 68.9918C106.052 68.9348 105.926 68.8512 105.821 68.7459C105.716 68.6405 105.632 68.5155 105.575 68.3778C105.518 68.2402 105.489 68.0926 105.489 67.9437ZM116.141 66.6853V69.8588H116.987V66.8298C116.987 66.5289 117.106 66.2404 117.319 66.0276C117.532 65.8148 117.82 65.6953 118.121 65.6953H118.342V64.9147H117.912C117.442 64.9147 116.992 65.1012 116.66 65.4332C116.327 65.7652 116.141 66.2156 116.141 66.6853ZM126.31 66.6853V69.8588H127.155V66.8298C127.155 66.5294 127.275 66.2413 127.487 66.0288C127.699 65.8162 127.987 65.6966 128.288 65.696H128.509V64.9147H128.081C127.611 64.9147 127.161 65.1012 126.829 65.4332C126.497 65.7652 126.31 66.2156 126.31 66.6853ZM103.241 63.3981C103.135 63.3986 103.032 63.4306 102.944 63.4898C102.856 63.5491 102.788 63.633 102.748 63.731C102.708 63.8291 102.697 63.9368 102.718 64.0407C102.739 64.1445 102.791 64.2398 102.866 64.3145C102.941 64.3893 103.036 64.4401 103.14 64.4605C103.244 64.481 103.352 64.4702 103.45 64.4295C103.548 64.3889 103.631 64.3201 103.69 64.232C103.749 64.1439 103.78 64.0403 103.78 63.9344C103.78 63.8637 103.766 63.7938 103.739 63.7285C103.712 63.6633 103.672 63.604 103.622 63.5542C103.572 63.5044 103.513 63.4649 103.447 63.4381C103.382 63.4113 103.312 63.3977 103.241 63.3981ZM124.525 64.9773H125.37V69.9999H124.525V64.9773ZM124.947 63.3981C124.841 63.3981 124.738 63.4296 124.649 63.4885C124.561 63.5474 124.493 63.6312 124.452 63.7291C124.411 63.8271 124.401 63.935 124.421 64.039C124.442 64.143 124.493 64.2386 124.568 64.3136C124.643 64.3886 124.739 64.4396 124.843 64.4603C124.947 64.481 125.055 64.4704 125.153 64.4298C125.251 64.3892 125.334 64.3205 125.393 64.2323C125.452 64.1441 125.484 64.0404 125.484 63.9344C125.484 63.8639 125.47 63.7942 125.443 63.7291C125.416 63.6641 125.376 63.605 125.327 63.5552C125.277 63.5054 125.218 63.4659 125.153 63.4389C125.088 63.412 125.018 63.3981 124.947 63.3981ZM132.831 62.9651V65.8172C132.422 65.4518 131.9 65.2379 131.352 65.2112C130.804 65.1845 130.264 65.3466 129.821 65.6705C129.378 65.9943 129.06 66.4603 128.92 66.9905C128.779 67.5208 128.825 68.0832 129.049 68.5837C129.273 69.0843 129.663 69.4927 130.152 69.7407C130.641 69.9888 131.201 70.0614 131.737 69.9465C132.274 69.8316 132.754 69.5362 133.099 69.1095C133.444 68.6828 133.631 68.1507 133.631 67.6022V62.9651H132.831ZM131.233 69.1993C130.917 69.1993 130.608 69.1056 130.346 68.93C130.083 68.7544 129.878 68.5048 129.757 68.2128C129.636 67.9208 129.605 67.5995 129.666 67.2896C129.728 66.9796 129.88 66.6949 130.104 66.4715C130.327 66.248 130.612 66.0959 130.922 66.0343C131.232 65.9728 131.553 66.0045 131.845 66.1256C132.137 66.2466 132.387 66.4515 132.562 66.7143C132.738 66.9772 132.831 67.2862 132.831 67.6022C132.831 67.8121 132.79 68.0199 132.709 68.2138C132.629 68.4076 132.511 68.5838 132.362 68.7321C132.214 68.8804 132.038 68.998 131.844 69.0782C131.65 69.1583 131.442 69.1995 131.232 69.1993H131.233ZM113.136 69.1993C112.906 69.1989 112.678 69.148 112.469 69.0503C112.26 68.9525 112.074 68.8103 111.926 68.6334L114.599 66.9599L115.279 66.5317C115.023 66.0175 114.591 65.6125 114.061 65.3904C113.531 65.1683 112.939 65.144 112.392 65.3218C111.846 65.4997 111.382 65.8679 111.084 66.3593C110.786 66.8508 110.675 67.4329 110.77 67.9995C110.866 68.566 111.162 69.0795 111.604 69.4463C112.046 69.8131 112.606 70.0088 113.18 69.9978C113.755 69.9868 114.306 69.7697 114.734 69.3863C115.162 69.0028 115.438 68.4784 115.511 67.9086H114.703C114.632 68.272 114.437 68.5994 114.151 68.8349C113.865 69.0704 113.507 69.1992 113.136 69.1993ZM113.136 66.0044C113.483 66.0049 113.82 66.1193 114.096 66.33L111.57 67.9134C111.523 67.6816 111.528 67.4422 111.585 67.2126C111.642 66.983 111.749 66.7689 111.899 66.586C112.049 66.4031 112.238 66.256 112.452 66.1552C112.666 66.0545 112.9 66.0027 113.136 66.0037V66.0044ZM121.343 65.2045C120.753 65.2042 120.184 65.4225 119.745 65.8172V62.9651H118.945V67.6022C118.945 68.0764 119.086 68.54 119.349 68.9343C119.613 69.3286 119.987 69.6359 120.425 69.8174C120.863 69.9989 121.346 70.0464 121.811 69.9539C122.276 69.8614 122.703 69.633 123.038 69.2977C123.374 68.9623 123.602 68.5351 123.695 68.07C123.787 67.6049 123.74 67.1228 123.558 66.6846C123.377 66.2465 123.069 65.872 122.675 65.6086C122.281 65.3451 121.817 65.2045 121.343 65.2045ZM121.343 69.1973C121.027 69.1974 120.718 69.1038 120.455 68.9283C120.192 68.7528 119.987 68.5032 119.866 68.2112C119.745 67.9192 119.713 67.5979 119.775 67.2879C119.837 66.9779 119.989 66.6931 120.212 66.4696C120.436 66.2461 120.721 66.094 121.031 66.0323C121.341 65.9707 121.662 66.0024 121.954 66.1234C122.246 66.2444 122.496 66.4493 122.671 66.7122C122.847 66.9751 122.94 67.2841 122.94 67.6001C122.94 67.81 122.899 68.0179 122.819 68.2119C122.739 68.4058 122.621 68.5821 122.473 68.7306C122.324 68.8791 122.148 68.9969 121.954 69.0774C121.761 69.1578 121.553 69.1992 121.343 69.1993V69.1973Z" fill="#828282"/>
<path d="M178.535 41.5473C178.535 41.5473 178.422 41.7276 178.339 41.8392C178.337 41.8423 178.335 41.8453 178.333 41.8481L177.94 41.6196C178.095 41.4357 178.201 41.3084 178.201 41.3084L178.093 41.232C177.697 41.7827 176.949 42.584 176.613 42.9296C176.447 43.1003 176.345 43.1244 176.285 43.1051C176.192 42.4009 176.556 40.9979 176.556 40.9979C176.564 40.9687 176.562 40.9379 176.553 40.9093C176.543 40.8807 176.525 40.8556 176.502 40.8368L175.538 40.0796C175.492 40.0425 175.435 40.0222 175.376 40.0222C175.317 40.0222 175.26 40.0425 175.214 40.0796C174.814 40.4204 174.462 40.8141 174.169 41.2499C174.522 40.4314 174.853 39.6665 175.014 39.2115C175.487 37.8732 175.237 37.2282 175.237 37.2282C175.217 37.1766 175.181 37.1326 175.135 37.1022L174.679 36.7642H174.675C174.542 36.6628 174.379 36.6066 174.211 36.6038C174.085 36.5969 173.736 36.599 172.947 37.2509L170.413 35.218C170.975 34.9867 171.808 34.7761 172.375 34.9096C172.248 34.8669 172.117 34.8365 171.984 34.8188L171.94 34.7568C172.081 34.7988 172.225 34.8484 172.375 34.9096C172.212 34.8062 172.039 34.7177 171.859 34.6453C171.341 34.4319 170.502 34.2198 169.641 34.5668C168.973 34.8346 167.858 35.5072 165.909 37.2723C162.08 40.7446 158.973 43.9312 158.973 43.9312L159.003 43.9595L160.155 45.0313L160.185 45.0595C160.185 45.0595 160.431 44.7842 160.834 44.3374L164.905 47.3602L164.636 47.7381L164.622 47.7567C164.485 47.955 164.406 48.0644 164.406 48.0644L164.364 48.1243L165.56 49.0544L165.586 49.0165C165.586 49.0165 169.812 42.6205 171.255 40.6806C171.8 39.9474 172.279 39.3547 172.683 38.8859C172.63 39.0386 172.571 39.1891 172.505 39.3368C172.238 39.9309 171.809 40.7997 171.654 41.2822C171.403 42.0643 171.276 43.0129 171.654 43.406C171.654 43.406 171.504 43.1588 171.617 42.4856L172.963 43.4493C172.889 43.6424 172.828 43.8399 172.779 44.0407C172.629 44.7415 172.953 44.8275 172.953 44.8275C172.953 44.8275 173.21 44.9769 173.541 44.6671C173.76 44.4606 174.656 43.3227 175.355 42.4484C175.345 42.6067 175.347 42.8614 175.433 43.057C175.465 43.1158 175.512 43.1648 175.57 43.1988C175.575 43.1988 175.576 43.2063 175.583 43.2091L176.395 43.6111C176.518 43.6724 176.67 43.6648 176.838 43.5808C177.296 43.3509 177.912 42.5606 178.073 42.3479C178.141 42.2611 178.638 41.6196 178.638 41.6196L178.535 41.5473ZM175.426 40.1298L176.407 40.916C176.301 41.005 176.203 41.1018 176.111 41.2058L175.09 40.3735C175.342 40.1195 175.426 40.1298 175.426 40.1298ZM174.841 40.6455C174.896 40.5766 174.947 40.5236 174.993 40.474L176.035 41.3001C175.936 41.4165 175.823 41.5507 175.698 41.6994L174.666 40.8595C174.726 40.7845 174.784 40.7115 174.841 40.6455ZM176.111 42.8986L175.468 42.5544C175.475 42.4588 175.488 42.3636 175.506 42.2694L176.125 42.5813C176.118 42.668 176.111 42.7534 176.107 42.836C176.109 42.8587 176.111 42.8766 176.111 42.8986ZM175.585 42.1627L175.764 41.9404L176.177 42.1469C176.164 42.2494 176.151 42.3534 176.14 42.4594L175.585 42.1627ZM174.544 39.5612L173.176 38.5506C173.281 38.3265 173.413 38.1159 173.569 37.9235C173.668 37.8237 173.756 37.7397 173.829 37.6708L174.862 38.4969C174.778 38.8579 174.672 39.2133 174.544 39.5612ZM174.917 38.2229V38.2278L174.012 37.5091C174.208 37.3496 174.433 37.2301 174.675 37.1573C174.7 37.1496 174.726 37.147 174.753 37.1497C174.779 37.1525 174.804 37.1604 174.827 37.1731C174.93 37.2612 175.026 37.5511 174.917 38.2229ZM174.523 36.7463L174.836 36.9714C174.782 36.9583 174.727 36.9518 174.671 36.9521L174.381 36.7236C174.429 36.7258 174.476 36.7334 174.523 36.7463ZM174.165 36.7463L174.445 36.9866C174.395 37.0008 174.346 37.0183 174.299 37.0389L174.028 36.7952C174.072 36.7758 174.118 36.7594 174.165 36.7463ZM173.835 36.8943L174.11 37.1394C174.06 37.1704 174.008 37.2082 173.953 37.2447L173.678 36.9934C173.73 36.9581 173.782 36.9253 173.835 36.895V36.8943ZM173.465 37.1373L173.76 37.4003C173.718 37.437 173.674 37.4769 173.628 37.5201L173.311 37.2633C173.369 37.2144 173.42 37.1717 173.465 37.138V37.1373ZM173.13 37.4258L173.445 37.6963C173.39 37.7514 173.332 37.8113 173.27 37.8753L172.94 37.6068C173.007 37.5414 173.07 37.4822 173.13 37.4265V37.4258ZM173.097 38.0591C173.045 38.1156 172.991 38.1741 172.936 38.236L172.581 37.9669C172.645 37.898 172.708 37.8367 172.768 37.7769L173.097 38.0591ZM172.68 37.4815C172.405 37.7328 172.076 38.0557 171.697 38.4694L168.82 36.2527C169.359 35.8397 169.756 35.5746 169.97 35.4376C169.996 35.4204 170.034 35.4018 170.066 35.3839L172.68 37.4815ZM166.796 38.0082C167.415 37.4161 167.966 36.9377 168.435 36.5577L171.376 38.8294C171.001 39.2583 170.58 39.7677 170.106 40.3763C170.091 40.3949 170.077 40.4135 170.063 40.4314L166.796 38.0082ZM169.677 40.9277C169.058 41.7297 168.467 42.5076 167.921 43.2366L164.307 40.5573C165.026 39.7939 165.736 39.0545 166.343 38.4508L169.677 40.9277ZM171.829 34.7244L171.888 34.8057C171.847 34.8009 171.804 34.7974 171.76 34.794L171.684 34.6887C171.732 34.7004 171.78 34.7121 171.829 34.7251V34.7244ZM171.539 34.6556L171.632 34.785H171.478L171.365 34.6281C171.422 34.637 171.48 34.648 171.539 34.6591V34.6556ZM171.186 34.6033L171.32 34.7885C171.262 34.7885 171.202 34.7967 171.14 34.8029L170.986 34.5902C171.052 34.5957 171.118 34.6005 171.186 34.6067V34.6033ZM170.735 34.5909L170.93 34.8318C170.868 34.8422 170.805 34.8539 170.74 34.8676L170.487 34.6122C170.567 34.6047 170.649 34.5978 170.735 34.5943V34.5909ZM170.232 34.6515L170.493 34.931C170.42 34.9516 170.346 34.975 170.27 34.9998L169.983 34.7127C170.06 34.6948 170.143 34.6728 170.232 34.6549V34.6515ZM169.738 34.8057L170.028 35.0948C169.967 35.121 169.904 35.1499 169.837 35.1836L169.523 34.9172C169.592 34.8764 169.664 34.8403 169.738 34.8091V34.8057ZM169.282 35.0611L169.584 35.3192C169.509 35.3619 169.43 35.4087 169.348 35.4617L169.033 35.2201C169.126 35.163 169.208 35.1106 169.282 35.0645V35.0611ZM168.8 35.3757L169.11 35.6166C169.034 35.6683 168.953 35.7254 168.87 35.7853L168.564 35.5395C168.648 35.4845 168.727 35.4294 168.801 35.3791L168.8 35.3757ZM168.337 35.7013L168.646 35.9519C168.577 36.0028 168.509 36.0558 168.44 36.1123L168.146 35.8445L168.337 35.7013ZM167.884 36.0393L168.193 36.3092C168.124 36.3622 168.062 36.4166 167.994 36.4737L167.705 36.1784C167.766 36.1336 167.826 36.0882 167.885 36.0428L167.884 36.0393ZM167.467 36.3663L167.764 36.6699C167.674 36.747 167.583 36.8275 167.488 36.9115L167.189 36.5935L167.468 36.3697L167.467 36.3663ZM166.932 36.8151L167.24 37.1421C167.151 37.2229 167.062 37.3041 166.974 37.3858L166.632 37.0664C166.735 36.9783 166.835 36.8945 166.932 36.8151ZM166.381 37.2929L166.726 37.6151C166.632 37.7032 166.537 37.7934 166.439 37.8904L166.086 37.5621C166.188 37.4662 166.287 37.3753 166.383 37.2895L166.381 37.2929ZM165.819 37.8065L166.179 38.141C166.078 38.2388 165.978 38.3363 165.879 38.4336L165.513 38.0928L165.819 37.8065ZM165.236 38.3572L165.606 38.7014C165.469 38.8391 165.331 38.9699 165.2 39.102L164.822 38.751L165.236 38.3572ZM164.547 39.016L164.93 39.3719L164.592 39.7092L164.201 39.3506C164.318 39.234 164.434 39.1206 164.55 39.0105L164.547 39.016ZM163.851 39.6893L164.249 40.0548L163.947 40.3549L163.534 39.9956L163.851 39.6893ZM163.162 40.3584L163.586 40.726L163.173 41.1521L162.745 40.7694L163.162 40.3584ZM162.433 41.075L162.87 41.4653L162.475 41.8784L162.014 41.4908C162.151 41.3518 162.295 41.2141 162.433 41.075ZM161.664 41.8323L162.137 42.2295C161.962 42.4131 161.796 42.5893 161.638 42.7582L161.17 42.3224L161.664 41.8323ZM160.146 44.3753L159.61 43.881L160.084 43.4067L160.595 43.8824C160.416 44.0792 160.265 44.2451 160.146 44.3773V44.3753ZM160.396 43.0941L160.859 42.6322L161.341 43.0783C161.181 43.2499 161.033 43.4106 160.896 43.5602L160.396 43.0941ZM161.337 43.7784C162.009 43.0377 162.901 42.0574 163.816 41.0792L167.492 43.808C166.767 44.7819 166.05 45.7618 165.341 46.7475L161.337 43.7784ZM165.451 48.3673L165.003 48.0231L165.386 47.4772L165.841 47.7726C165.683 48.0121 165.552 48.2131 165.451 48.3694V48.3673ZM166.154 47.2962L165.716 47.0036L166.078 46.4907L166.498 46.7819C166.374 46.9671 166.261 47.1372 166.154 47.2982V47.2962ZM166.824 46.3007L166.411 46.0157C166.518 45.865 166.628 45.7087 166.741 45.5504L167.146 45.8257C167.036 45.993 166.928 46.15 166.824 46.3028V46.3007ZM167.42 45.434L167.021 45.1587L167.416 44.6031L167.808 44.8785C167.674 45.0712 167.546 45.255 167.42 45.4361V45.434ZM168.033 44.5604L167.643 44.2851C167.77 44.107 167.899 43.9278 168.029 43.7474L168.415 44.0228C168.284 44.2087 168.157 44.3876 168.033 44.5625V44.5604ZM168.642 43.7089L168.257 43.4335C168.361 43.2876 168.466 43.1425 168.571 42.9984L168.959 43.2738C168.851 43.4197 168.746 43.5655 168.642 43.7109V43.7089ZM169.22 42.9172L168.83 42.6418L169.061 42.3245L169.457 42.5998C169.377 42.7068 169.298 42.8133 169.22 42.9193V42.9172ZM169.702 42.2653L169.304 41.9899C169.392 41.8694 169.479 41.751 169.565 41.6354L169.96 41.9225L169.702 42.2653ZM170.193 41.6154L169.794 41.3256L170.029 41.0103L170.429 41.307C170.349 41.4117 170.273 41.5149 170.195 41.6175L170.193 41.6154ZM170.749 40.8919L170.652 41.0179L170.25 40.7191C170.329 40.6145 170.407 40.5126 170.481 40.4162L170.888 40.715L170.749 40.8919ZM171.094 40.4513L170.686 40.1519C170.77 40.0445 170.854 39.9391 170.938 39.8359L171.334 40.1464L171.094 40.4513ZM171.527 39.9054L171.133 39.5963C171.204 39.5087 171.276 39.4231 171.347 39.3395L171.734 39.65C171.668 39.7347 171.6 39.8194 171.529 39.9075L171.527 39.9054ZM171.924 39.416L171.542 39.1089C171.602 39.0401 171.659 38.9712 171.718 38.9065L172.094 39.2094L171.924 39.416ZM172.288 38.9774L171.918 38.68L172.079 38.5011L172.444 38.7943L172.288 38.9774ZM172.609 38.6023L172.242 38.3228C172.3 38.2608 172.356 38.1995 172.412 38.141L172.764 38.4246C172.716 38.4832 172.664 38.5431 172.611 38.605L172.609 38.6023ZM172.786 39.3685C172.873 39.1785 172.956 38.9981 173.036 38.8294L174.441 39.8359C174.385 39.986 174.331 40.1278 174.284 40.2558C174.215 40.4327 174.127 40.653 174.024 40.8974L172.578 39.8276C172.649 39.6741 172.72 39.5185 172.788 39.3705L172.786 39.3685ZM172.451 40.1195L173.913 41.1659C173.786 41.4619 173.647 41.7855 173.51 42.1014L172.07 41.0365C172.187 40.7343 172.317 40.4259 172.451 40.1195ZM171.68 42.1902C171.71 42.0656 171.749 41.9307 171.796 41.7841C171.843 41.6375 171.9 41.4839 171.957 41.3284L173.403 42.361C173.279 42.6563 173.16 42.9441 173.059 43.2063L171.68 42.1902ZM172.913 44.7318C172.892 44.5577 172.993 44.1894 173.161 43.7178L173.718 44.1481C173.36 44.6231 173.172 44.8337 172.913 44.7318ZM174.129 43.6097C174.01 43.7626 173.908 43.8954 173.816 44.0228L173.223 43.5512C173.298 43.3447 173.383 43.1285 173.475 42.9L174.233 43.4824L174.129 43.6097ZM174.331 43.355L173.544 42.7293C173.607 42.5744 173.673 42.416 173.74 42.2563C173.74 42.2494 173.756 42.2198 173.78 42.1717L174.699 42.9007C174.569 43.0604 174.444 43.2174 174.331 43.355ZM174.801 42.7781L173.86 42.014C173.914 41.9149 173.984 41.7951 174.067 41.6698L174.149 41.5514L175.153 42.3472C175.037 42.4911 174.918 42.6356 174.801 42.7781ZM175.258 42.2274L174.26 41.4151C174.357 41.2774 174.459 41.1356 174.562 41.0021L175.594 41.8233L175.258 42.2274ZM175.583 43.0941C175.544 43.07 175.513 43.0338 175.496 42.9909C175.473 42.8935 175.461 42.7936 175.462 42.6935L176.113 43.0425C176.118 43.1775 176.152 43.31 176.213 43.4308L175.583 43.0941ZM176.192 42.0436L175.837 41.8536C175.899 41.7765 175.956 41.7084 176.005 41.6471L176.235 41.7621C176.221 41.8515 176.206 41.9452 176.192 42.0422V42.0436ZM176.067 41.5769C176.099 41.5397 176.128 41.508 176.151 41.4805C176.22 41.4117 176.27 41.3497 176.319 41.2946C176.3 41.3931 176.276 41.5239 176.25 41.6746L176.067 41.5769ZM176.438 43.4624C176.367 43.398 176.321 43.3109 176.307 43.216C176.35 43.2221 176.393 43.2154 176.432 43.1967L176.82 43.4418C176.673 43.5127 176.54 43.5333 176.438 43.461V43.4624ZM176.926 43.3826L176.535 43.1375C176.622 43.0719 176.705 43.0001 176.782 42.9227L177.201 43.1719C177.115 43.2489 177.023 43.3188 176.926 43.3812V43.3826ZM177.293 43.0886L176.866 42.8394C176.935 42.7664 177.024 42.6728 177.119 42.564L177.551 42.8208C177.469 42.913 177.383 43.0019 177.293 43.0872V43.0886ZM177.632 42.7334L177.198 42.4808C177.273 42.3968 177.351 42.3073 177.43 42.2171L177.854 42.4697C177.79 42.5482 177.715 42.6384 177.632 42.7355V42.7334ZM178.078 42.1827L177.927 42.3768L177.505 42.131C177.563 42.0622 177.619 41.9996 177.674 41.9355L178.078 42.1827ZM178.147 42.0946L177.741 41.8577C177.788 41.8034 177.832 41.751 177.874 41.7008L178.266 41.9404L178.147 42.0946Z" fill="#AAAAAA"/>
</g>
<defs>
<clipPath id="clip0_291_7763">
<rect width="102.077" height="40" fill="white" transform="translate(98.9614 30)"/>
</clipPath>
</defs>
</svg>
