<svg width="300" height="100" viewBox="0 0 300 100" fill="none" xmlns="http://www.w3.org/2000/svg">
<rect width="300" height="100" fill="white"/>
<g clip-path="url(#clip0_291_3325)">
<path d="M164.955 30.0537C177.053 30.0068 185.071 37.8424 185.125 49.7611C185.179 61.4921 176.818 70.0045 165.246 70.0001C153.528 70.0001 145.409 61.8071 145.297 49.8817C145.19 38.2846 153.307 30.0983 164.955 30.0537ZM175.619 50.0045C174.873 45.8745 174.435 41.9076 173.385 38.1059C172.367 34.3869 169.811 31.8942 165.69 31.6753C161.326 31.4519 158.625 33.9357 157.256 37.7061C154.249 45.9952 154.323 54.3959 157.359 62.6693C158.641 66.1649 161.156 68.3717 165.163 68.3985C169.376 68.4276 172.034 66.0175 173.146 62.3677C174.388 58.365 174.844 54.1189 175.619 50.0045Z" fill="#FE0606"/>
<path d="M76.7422 69.58V55.9705L77.1889 55.8945C77.9484 57.7909 78.5023 59.8056 79.5074 61.5613C81.7165 65.4188 84.8414 68.6062 89.5432 68.1974C91.7768 68.0031 94.4929 66.3033 95.8175 64.4471C97.5932 61.9589 95.9939 59.1757 93.6799 57.5675C90.5327 55.3808 87.0661 53.6631 83.7715 51.6841C80.2602 49.5733 77.2582 46.9935 76.7377 42.5954C75.775 34.5141 82.8333 28.4744 91.0598 30.335C92.601 30.6834 94.0417 31.5747 95.5852 31.7712C96.9254 31.941 98.3236 31.4742 100.09 31.2352V43.5023C99.3176 41.597 98.8642 40.4824 98.4152 39.3678C96.8249 35.4255 94.1266 32.5999 89.8849 31.7735C86.9142 31.1927 84.2696 32.0973 82.9316 35.106C81.6562 37.9897 83.2577 40.125 85.4378 41.5635C89.6415 44.3265 94.3366 46.406 98.3035 49.4527C105.57 55.0368 103.861 66.0665 95.1228 68.8541C91.6473 69.9709 87.3565 69.2271 83.5972 68.5056C81.0018 68.0053 78.7949 66.8215 76.7422 69.58Z" fill="#FE0909"/>
<path d="M215.92 69.0508H197.461C202.239 68.7269 202.235 65.4256 202.192 61.8115C202.078 52.1399 202.154 42.4682 202.154 32.8368C194.989 31.9277 193.349 32.973 189.838 40.0827V35.7293V31.1057H223.343V40.4066C218.089 32.1421 218.089 32.1421 211.084 32.6715V51.2107C211.084 54.9297 211.098 58.6509 211.084 62.3789C211.064 65.7785 211.256 68.9927 215.92 69.0508Z" fill="#FE0303"/>
<path d="M107.033 30.9939H125.849C120.953 30.9604 120.772 34.2349 120.801 37.8467C120.87 46.0933 120.917 54.3399 120.781 62.5843C120.718 66.301 122.056 67.4558 125.902 67.7529C133.814 68.3627 138.029 64.6258 139.934 57.1722L140.805 57.6434L140.057 68.997H107.191C112.474 68.8586 111.866 65.0457 111.848 61.5188C111.81 53.672 111.75 45.823 111.875 37.9785C111.933 34.36 111.752 31.1972 107.033 30.9939Z" fill="#FE0202"/>
</g>
<defs>
<clipPath id="clip0_291_3325">
<rect width="146.685" height="40" fill="white" transform="translate(76.6573 30)"/>
</clipPath>
</defs>
</svg>
