<svg width="300" height="100" viewBox="0 0 300 100" fill="none" xmlns="http://www.w3.org/2000/svg">
<rect width="300" height="100" fill="white"/>
<g clip-path="url(#clip0_298_9850)">
<path fill-rule="evenodd" clip-rule="evenodd" d="M115.148 69.3301L121.369 52.1052C122.613 49.043 124.622 48.9473 124.814 48.9473C126.058 48.9473 127.876 48.2774 130.268 46.0765L130.747 45.598L130.938 45.4066C134.191 42.6315 137.445 41.6746 139.837 41.6746C143.665 41.6746 145.77 43.11 146.153 46.4592C148.928 43.2057 152.947 41.6746 156.297 41.6746C162.9 41.6746 163.187 46.2679 160.986 52.2966L154.766 69.3301H147.78L153.617 53.2535C154.479 50.6698 155.818 47.1291 151.799 47.1291C147.11 47.1291 144.526 52.6793 143.282 56.22L138.498 69.3301H131.416L137.349 53.2535C138.211 50.6698 139.55 47.1291 135.436 47.1291C130.842 47.1291 128.258 52.6793 126.919 56.22L122.134 69.3301H115.148ZM157.158 69.3301L167.014 42.3444H174L164.144 69.3301H157.158Z" fill="#87919A"/>
<path d="M121.56 42.153L123.474 42.6315L123.761 42.7272L125.77 43.3014C121.943 47.799 116.105 46.842 116.105 46.842H115.148C113.234 46.842 110.651 47.5119 109.598 49.8085C107.684 54.1148 121.177 51.4353 116.775 61.1004C113.904 67.4162 107.206 69.9042 101.464 69.9042C98.7847 69.9042 96.2967 69.4258 94 68.7559L96.1053 64.8325H103.091C104.909 64.8325 108.067 64.1626 109.215 61.4832C111.608 56.22 97.8278 59.8564 102.23 50.0956C104.813 44.2583 111.033 41.6746 116.584 41.6746C118.689 41.6746 120.22 41.8659 121.56 42.153Z" fill="#87919A"/>
<path fill-rule="evenodd" clip-rule="evenodd" d="M187.971 30L175.627 63.8756C173.522 68.756 168.067 69.2344 167.014 69.3301H166.632L180.89 30H187.971ZM187.876 53.1579H199.837C200.89 49.8086 200.316 46.8421 196.392 46.8421C192.469 46.8421 189.502 49.5215 187.876 53.1579ZM191.321 64.8325H200.316L199.167 67.799C196.105 69.2344 192.947 69.9043 189.12 69.9043C180.22 69.9043 176.967 64.8325 180.124 55.933C182.995 48.1818 189.502 41.6746 197.828 41.6746C207.876 41.6746 208.163 48.5646 204.813 58.0383H186.153C184.813 62.3445 187.014 64.8325 191.321 64.8325Z" fill="#87919A"/>
<path fill-rule="evenodd" clip-rule="evenodd" d="M167.684 40.335L169.407 35.7417C169.694 34.8805 170.555 33.6365 174.192 33.6365H177.158L176.967 34.2106C174.574 40.335 168.067 40.335 168.067 40.335H167.684Z" fill="#B0D235"/>
</g>
<defs>
<clipPath id="clip0_298_9850">
<rect width="112.823" height="40" fill="white" transform="translate(94 30)"/>
</clipPath>
</defs>
</svg>
