<svg width="300" height="100" viewBox="0 0 300 100" fill="none" xmlns="http://www.w3.org/2000/svg">
<rect width="300" height="100" fill="white"/>
<g clip-path="url(#clip0_298_9841)">
<path d="M109.402 54.9927C109.402 52.0284 108.523 49.1306 106.876 46.6659C105.229 44.2012 102.888 42.2802 100.149 41.1458C97.4107 40.0114 94.3972 39.7146 91.4898 40.2929C88.5825 40.8712 85.9119 42.2986 83.8159 44.3947C81.7198 46.4908 80.2923 49.1614 79.714 52.0687C79.1357 54.9761 79.4325 57.9896 80.5669 60.7283C81.7013 63.4669 83.6223 65.8077 86.0871 67.4546C88.5518 69.1014 91.4495 69.9805 94.4138 69.9805C96.382 69.9805 98.331 69.5928 100.149 68.8396C101.968 68.0864 103.62 66.9824 105.012 65.5906C106.404 64.1989 107.508 62.5467 108.261 60.7283C109.014 58.9099 109.402 56.9609 109.402 54.9927Z" fill="#00FFFF"/>
<path d="M199.309 54.9927C199.309 52.0284 198.43 49.1306 196.783 46.6659C195.136 44.2012 192.795 42.2802 190.057 41.1458C187.318 40.0114 184.304 39.7146 181.397 40.2929C178.49 40.8712 175.819 42.2986 173.723 44.3947C171.627 46.4908 170.2 49.1614 169.621 52.0687C169.043 54.9761 169.34 57.9896 170.474 60.7283C171.609 63.4669 173.53 65.8077 175.994 67.4546C178.459 69.1014 181.357 69.9805 184.321 69.9805C188.294 69.9753 192.104 68.3946 194.913 65.5849C197.723 62.7753 199.304 58.9661 199.309 54.9927Z" fill="#004BFF"/>
<path d="M77.0811 64.7436C77.6631 63.4352 77.9436 62.0127 77.9018 60.5814V60.4837C77.9389 59.3081 77.6695 58.1431 77.1202 57.1031C76.6314 56.1936 75.9672 55.39 75.1661 54.7387C74.3278 54.0773 73.4084 53.5257 72.4304 53.0973C71.4533 52.6674 70.4763 52.2765 69.4406 51.9444L67.2521 51.1823C66.6297 50.9621 66.0226 50.701 65.4348 50.4006C64.9486 50.1872 64.4999 49.8969 64.106 49.5408C63.9591 49.4111 63.8414 49.2518 63.7606 49.0732C63.6797 48.8947 63.6376 48.7011 63.637 48.5052V48.3879C63.6368 48.1079 63.7042 47.8321 63.8335 47.5837C63.9628 47.3354 64.1501 47.1219 64.3796 46.9615C65.0369 46.5432 65.8102 46.3447 66.5877 46.3948C67.7946 46.4341 68.9852 46.6855 70.105 47.1373C71.5364 47.6609 72.9166 48.315 74.2281 49.0914L77.2765 43.4441C75.7091 42.3901 73.998 41.5674 72.1959 41.0015C70.4287 40.4264 68.5828 40.1298 66.7245 40.1222C65.3998 40.1211 64.0824 40.3187 62.8163 40.7084C61.6154 41.0646 60.5034 41.6706 59.553 42.4866C58.5819 43.2622 57.7944 44.2432 57.2472 45.3591C56.6847 46.584 56.4042 47.9195 56.4265 49.2673V49.365C56.3825 50.5889 56.6445 51.8046 57.1886 52.9019C57.6714 53.8377 58.3356 54.668 59.1426 55.3444C59.9574 56.0241 60.874 56.5714 61.8588 56.9663C62.8078 57.3694 63.78 57.7153 64.7704 58.002L66.9785 58.7055C67.6429 58.9009 68.2877 59.1158 68.9326 59.3699C69.4157 59.5583 69.8547 59.8443 70.2223 60.2101C70.4845 60.4992 70.6306 60.875 70.6326 61.2653C70.64 61.5742 70.5685 61.8798 70.4249 62.1533C70.2813 62.4268 70.0703 62.6592 69.8119 62.8286C69.0462 63.2822 68.1587 63.487 67.2716 63.4148C65.7981 63.3938 64.3409 63.1023 62.9726 62.555C61.3177 61.925 59.764 61.056 58.361 59.9756L55 65.5252C56.7838 66.9685 58.8079 68.0864 60.9795 68.8276C62.9541 69.5093 65.0264 69.8657 67.1153 69.8828C68.548 69.8891 69.9748 69.6984 71.3556 69.3161C72.6031 68.9823 73.772 68.4045 74.7948 67.6161C75.7889 66.8687 76.5758 65.88 77.0811 64.7436ZM137.345 47.8017H143.852V41.1383H137.364V33.322H129.353V41.1383H119.758V40.0049C119.758 37.9336 120.735 36.8979 122.65 36.8979C123.306 36.8974 123.96 36.9563 124.604 37.0738C125.195 37.2109 125.776 37.3872 126.343 37.6014V30.8208C125.55 30.5475 124.732 30.3512 123.901 30.2345C122.807 30.0779 121.703 29.9996 120.598 30C119.424 29.9162 118.245 30.0722 117.133 30.4586C116.021 30.8449 115 31.4535 114.13 32.2472C112.488 34.1999 111.674 36.7177 111.864 39.2624V69.3357H119.875V47.8408H129.47V60.1319C129.264 62.6595 130.049 65.1681 131.659 67.1275C132.531 67.9228 133.556 68.5322 134.671 68.9185C135.786 69.3049 136.969 69.4601 138.146 69.3747C139.227 69.3751 140.307 69.277 141.37 69.0816C142.208 68.965 143.032 68.7687 143.832 68.4954V61.7734C143.227 61.9883 142.64 62.1446 142.093 62.2814C141.451 62.4182 140.795 62.4772 140.139 62.4573C138.185 62.4573 137.228 61.4216 137.228 59.3503V51.7294L137.345 47.8017ZM166.383 49.5408C167.062 47.3565 168.128 45.3116 169.529 43.5027C167.343 41.6685 164.68 40.4962 161.851 40.1235C159.022 39.7509 156.146 40.1934 153.56 41.399C150.974 42.6047 148.786 44.5234 147.253 46.9297C145.72 49.3359 144.906 52.1298 144.906 54.9829C144.906 57.8361 145.72 60.63 147.253 63.0362C148.786 65.4425 150.974 67.3612 153.56 68.5669C156.146 69.7725 159.022 70.215 161.851 69.8423C164.68 69.4697 167.343 68.2974 169.529 66.4632C168.126 64.6627 167.06 62.6238 166.383 60.4446C165.584 61.2463 164.633 61.8806 163.586 62.3101C162.539 62.7396 161.417 62.9557 160.286 62.9458C159.216 62.9718 158.151 62.7866 157.152 62.401C156.154 62.0153 155.241 61.4366 154.466 60.6981C153.691 59.9595 153.069 59.0755 152.636 58.0965C152.203 57.1176 151.967 56.0629 151.942 54.9927C151.998 52.8331 152.908 50.7838 154.472 49.2932C156.035 47.8027 158.126 46.9924 160.286 47.0396C161.417 47.0351 162.537 47.2537 163.583 47.6829C164.629 48.1121 165.581 48.7435 166.383 49.5408ZM244.839 69.3357V50.596C245.035 47.7634 244.132 44.9641 242.318 42.7797C241.404 41.862 240.307 41.1474 239.098 40.6827C237.889 40.218 236.596 40.0137 235.303 40.0831C233.513 40.0477 231.742 40.4502 230.144 41.2555C228.559 42.1143 227.163 43.284 226.041 44.6947C225.352 43.2757 224.266 42.0875 222.914 41.2751C221.439 40.4571 219.773 40.0457 218.087 40.0831C217.155 40.0759 216.226 40.2076 215.332 40.4739C214.538 40.7034 213.782 41.0456 213.085 41.49C212.436 41.9297 211.828 42.4268 211.268 42.9751C210.74 43.5418 210.232 44.128 209.763 44.7338V40.5521H201.771V69.3357H209.763V53.3122C209.652 51.7515 210.11 50.2033 211.053 48.9546C211.5 48.461 212.051 48.072 212.665 47.8153C213.28 47.5586 213.944 47.4406 214.609 47.4695C215.265 47.4295 215.92 47.5429 216.524 47.8007C217.128 48.0585 217.663 48.4536 218.087 48.9546C218.977 50.2264 219.404 51.764 219.299 53.3122V69.3357H227.311V53.3122C227.199 51.7515 227.658 50.2033 228.6 48.9546C229.048 48.461 229.598 48.072 230.213 47.8153C230.828 47.5586 231.491 47.4406 232.157 47.4695C232.809 47.4295 233.462 47.543 234.063 47.8009C234.663 48.0588 235.195 48.454 235.616 48.9546C236.514 50.2222 236.942 51.763 236.827 53.3122V69.3357H244.839Z" fill="black"/>
</g>
<defs>
<clipPath id="clip0_298_9841">
<rect width="189.858" height="40" fill="white" transform="translate(55 30)"/>
</clipPath>
</defs>
</svg>
