<svg width="300" height="100" viewBox="0 0 300 100" fill="none" xmlns="http://www.w3.org/2000/svg">
<rect width="300" height="100" fill="white"/>
<g clip-path="url(#clip0_291_7833)">
<path fill-rule="evenodd" clip-rule="evenodd" d="M20.8462 -76.5974H277.854V180.411H20.8462V-76.5974Z" fill="white"/>
<path fill-rule="evenodd" clip-rule="evenodd" d="M32.1846 29.7879H266.516V74.0254H32.1846V29.7879Z" fill="white"/>
<path d="M32.1846 29.7879H266.516V74.0254H32.1846V29.7879Z" stroke="white" stroke-width="1.33341" stroke-miterlimit="2.6131"/>
<path fill-rule="evenodd" clip-rule="evenodd" d="M214.006 70.2651H35.7944V33.9054H214.045L214.006 70.2651Z" fill="#ED1C24"/>
<path fill-rule="evenodd" clip-rule="evenodd" d="M254.279 46.1761C256.357 51.0865 255.128 57.6511 251.301 61.4855C249.455 63.0527 247.463 64.7027 244.9 64.187C243.5 63.8594 242.496 62.8839 242.145 61.5599C241.844 60.4079 241.919 59.3011 242.071 58.1083L252.477 58.0902L252.195 57.7334C246.943 51.5365 242.775 44.5401 239.985 37.1721C236.988 44.6334 232.784 52.0074 227.777 58.1293L237.976 58.1083C237.916 59.4741 238.235 61.1397 237.604 62.311C236.971 63.5965 235.481 64.2339 234.105 64.2615C229.993 63.8777 227.257 60.2579 225.693 56.8329C223.872 52.6241 224.541 46.8467 227.405 43.2494C231.388 37.9574 238.421 35.8187 244.973 37.8467C248.971 39.1014 252.524 42.2147 254.279 46.1761ZM257.181 43.3241C260.599 49.3979 259.519 57.6131 255.247 62.8361C250.291 68.7542 241.621 71.3427 233.956 68.9146C226.736 66.823 221.155 60.1449 220.78 52.4803C220.337 45.3281 224.56 38.7454 230.681 35.5947C236.653 32.4054 245.137 32.7054 250.855 36.4961C253.399 38.1067 255.649 40.6387 257.181 43.3241Z" fill="#007F46"/>
<path fill-rule="evenodd" clip-rule="evenodd" d="M101.079 43.7C101.386 44.3306 101.546 45.016 101.526 45.8586L81.8271 45.864C81.226 45.864 80.2839 46.2093 79.9385 47.0013C79.5084 47.9869 80.0041 49.1188 80.9807 49.553C81.3693 49.7265 82.0593 49.703 82.0593 49.703H96.3896C98.9547 49.886 101.24 51.5469 102.122 54.2812C102.89 56.6609 102.494 58.6406 100.931 60.5849C99.1251 62.8297 96.6552 62.8573 93.9333 62.8536L78.0771 62.836C76.3568 62.8338 74.9079 61.127 74.6636 59.3718L74.6531 58.4833L95.5864 58.5041C96.2864 58.5052 97.1844 57.5312 97.2084 56.5328C97.2349 55.4552 96.4969 54.4312 95.4276 54.4312L80.3484 54.4317C77.7407 54.4317 75.0817 51.9625 74.6531 48.8781C74.3063 46.3826 75.1203 44.4946 77.0421 42.8826C78.4927 41.6666 79.5953 41.3186 81.624 41.316L95.5713 41.2986C97.726 41.2573 100.071 41.6333 101.079 43.7Z" fill="white"/>
<path fill-rule="evenodd" clip-rule="evenodd" d="M133.684 41.3919C137.056 41.3945 139.789 44.8892 139.697 48.5452C139.609 52.0728 136.557 55.3316 133.759 55.3316H121.997C120.276 55.1192 118.955 53.8619 118.275 52.4046C118.043 51.8363 118.031 51.0363 117.965 50.4415L118.573 50.454H132.791C133.404 50.454 133.99 49.889 134.28 49.178C134.546 48.528 134.529 48.0004 134.205 47.3772C133.848 46.6866 133.203 46.2519 132.568 46.2519H116.712L116.563 46.4026V60.554C116.563 61.8707 115.423 62.84 114.077 62.815C112.899 62.7931 111.799 61.8291 111.799 60.5791V45.4266C111.799 44.1732 112.271 43.4346 113.155 42.5906C114.08 41.7066 115.298 41.3732 116.191 41.3732L133.684 41.3919Z" fill="white"/>
<path fill-rule="evenodd" clip-rule="evenodd" d="M159.21 47.1053C160.773 49.2948 162.492 51.4046 163.982 53.6806H153.465L158.697 47.0773C158.697 47.0773 158.838 46.8546 158.974 46.8666C159.104 46.8786 159.21 47.1053 159.21 47.1053ZM163.509 44.6506C166.224 48.453 171.701 55.5874 174.478 59.6088C174.828 60.5202 174.418 61.4953 173.957 62.2354C173.209 62.9401 171.981 63.0901 171.128 62.686C169.785 61.477 168.854 59.9765 167.778 58.6333L149.689 58.5948L147.551 61.5172C146.876 62.4396 146.019 63.0713 144.702 62.836C144.016 62.6958 143.365 62.1145 143.138 61.4854C142.788 60.6702 142.826 59.9016 143.287 59.1588L154.752 43.8493C155.713 42.4 156.752 41.364 158.548 41.3733C161.372 41.4106 161.564 42.1266 163.509 44.6506Z" fill="white"/>
<path fill-rule="evenodd" clip-rule="evenodd" d="M204.18 41.392C206.666 41.3946 208.994 43.2946 209.928 46.0333C210.929 48.9666 210.005 51.5656 207.753 53.6806C207.252 54.1516 206.338 54.7312 206.338 54.7312L209.448 59.2177C209.73 59.627 209.822 60.4426 209.557 61.1473C209.313 61.801 208.985 62.1849 208.349 62.4609C207.482 62.836 206.337 62.488 205.968 62.0312C205.968 62.0312 202.996 58.3817 201.352 56.3073C201.061 56.0005 200.912 55.7188 200.606 55.4068L192.684 55.4453C190.717 55.4552 188.398 53.088 188.398 51.201V50.4724L203.154 50.4541C203.705 50.453 204.325 49.9328 204.626 49.2526C204.9 48.639 204.894 48.1437 204.626 47.528C204.305 46.7906 203.576 46.268 203.005 46.2693L186.957 46.316L186.91 46.476V60.8932C186.91 61.8536 185.596 63.089 184.308 62.9661C183.12 62.8526 182.144 61.6317 182.145 60.7822L182.164 45.5013C182.165 43.9093 182.624 43.2893 183.621 42.4146C184.593 41.5613 185.472 41.372 186.761 41.3733L204.18 41.392Z" fill="white"/>
</g>
<defs>
<clipPath id="clip0_291_7833">
<rect width="259" height="71" fill="white" transform="translate(20.5 14.5)"/>
</clipPath>
</defs>
</svg>
