<svg width="300" height="100" viewBox="0 0 300 100" fill="none" xmlns="http://www.w3.org/2000/svg">
<rect width="300" height="100" fill="white"/>
<path d="M120.41 53.6201C120.41 54.5901 120.39 55.5101 120.42 56.4301C120.43 56.8301 120.29 56.9201 119.93 56.9001C119.43 56.8801 118.93 56.8601 118.44 56.9001C118.01 56.9301 117.89 56.7901 117.9 56.3601C117.92 53.2601 117.91 50.1701 117.91 47.0701V46.5501C117.91 45.1901 117.91 45.1901 119.3 44.9801C120.25 44.8401 121.2 44.7001 122.15 44.8101C124.65 45.1101 126.05 46.7001 126.09 49.3201C126.1 49.8201 126.04 50.3101 125.94 50.8001C125.43 53.4501 123.1 54.4501 120.84 53.7401C120.72 53.7001 120.59 53.6701 120.41 53.6201ZM120.4 49.2601C120.4 49.9301 120.39 50.6001 120.4 51.2701C120.4 51.4201 120.35 51.5701 120.61 51.6501C122.42 52.2401 123.45 51.5401 123.51 49.6501V49.3101C123.45 47.5201 122.54 46.7401 120.77 46.9501C120.48 46.9801 120.38 47.0801 120.39 47.3701C120.42 48.0001 120.4 48.6301 120.4 49.2601ZM112.61 42.0301C113.73 41.8901 114.72 42.1701 115.7 42.5801C115.92 42.6701 116.11 42.7001 115.96 43.0701C115.78 43.5301 115.57 43.9801 115.45 44.4601C115.37 44.7701 115.07 44.6801 114.83 44.5701C113.97 44.1801 113.07 44.1301 112.15 44.2101C111.6 44.2601 111.08 44.4301 111.06 45.1101C111.04 45.6301 111.29 46.0301 111.77 46.2401C112.61 46.6001 113.46 46.9401 114.31 47.2801C116.29 48.0701 116.79 49.4701 116.61 51.0301C116.41 52.7101 115.26 53.5601 113.68 53.8901C111.95 54.2401 110.29 54.0501 108.66 53.3701C108.31 53.2201 108.18 53.0501 108.37 52.6901C108.41 52.6201 108.42 52.5501 108.45 52.4801C108.64 52.0301 108.64 51.3301 109.02 51.1701C109.34 51.0301 109.88 51.4501 110.34 51.5901C111.3 51.8701 112.28 51.9001 113.24 51.6201C114.03 51.3901 114.21 50.4001 113.61 49.8301C113.16 49.4001 112.57 49.2301 112.01 49.0001C111.24 48.7001 110.45 48.4501 109.75 47.9701C108.58 47.1701 108.26 46.0201 108.48 44.7201C108.68 43.5401 109.42 42.7501 110.55 42.3101C111.24 42.0501 111.92 41.9001 112.61 42.0301ZM129.48 50.2101C129.88 51.4901 130.8 51.8601 131.94 51.8701C132.65 51.8801 133.35 51.7901 134.03 51.5601C134.33 51.4601 134.44 51.5401 134.47 51.8301C134.49 52.0401 134.53 52.2501 134.57 52.4501C134.77 53.5701 134.78 53.5801 133.66 53.8101C132.91 53.9601 132.15 54.0601 131.38 54.0301C128.53 53.9201 126.84 52.0601 127 49.2101C127.13 46.8301 128.39 45.2301 130.46 44.8301C132.87 44.3601 134.87 45.7801 135.18 48.2201C135.24 48.7301 135.2 49.2501 135.23 49.7601C135.26 50.1601 135.07 50.2201 134.73 50.2201C133.2 50.2001 131.67 50.2101 130.15 50.2101H129.48ZM129.47 48.5001C130.51 48.5001 131.5 48.4901 132.49 48.5001C132.8 48.5001 132.83 48.3701 132.79 48.1101C132.68 47.4701 132.19 46.9401 131.56 46.8301C130.78 46.7001 130.11 47.0201 129.8 47.6901C129.68 47.9301 129.6 48.1801 129.47 48.5001ZM180.27 50.2101H177.81C177.53 50.2101 177.32 50.1601 177.55 50.6001C178 51.4901 178.73 51.8001 179.63 51.8701C180.4 51.9201 181.16 51.8401 181.89 51.5901C182.29 51.4501 182.39 51.5801 182.42 51.9301C182.44 52.1401 182.48 52.3501 182.52 52.5501C182.7 53.5501 182.7 53.5701 181.73 53.7801C180.53 54.0401 179.31 54.1701 178.1 53.8601C176.5 53.4501 175.47 52.4501 175.09 50.8201C174.84 49.7301 174.86 48.6601 175.23 47.6001C176.06 45.2301 178.6 44.1101 180.91 45.0801C182.26 45.6501 182.89 46.7501 183.11 48.1401C183.21 48.8001 183.41 49.5901 183.06 50.1001C182.8 50.4701 181.99 50.1901 181.42 50.2101C181.03 50.2201 180.65 50.2101 180.27 50.2101ZM179.04 48.5001C179.5 48.5001 179.96 48.4901 180.41 48.5001C180.7 48.5101 180.77 48.4001 180.72 48.1301C180.6 47.3901 180.02 46.8601 179.27 46.8201C178.38 46.7801 177.58 47.4201 177.42 48.2901C177.38 48.4901 177.51 48.5001 177.66 48.5001H179.04ZM164.44 50.5701V53.1501C164.44 53.3701 164.45 53.5501 164.15 53.6001C162.49 53.9201 160.82 54.1401 159.14 53.8201C157.59 53.5301 156.84 52.5601 156.86 51.0001C156.88 49.8901 157.43 49.0801 158.48 48.6701C159.48 48.2701 160.54 48.2201 161.58 48.3901C162.04 48.4601 162.07 48.2901 162 47.9501C161.9 47.4201 161.6 47.0501 161.05 46.9301C160.19 46.7401 159.33 46.8301 158.5 47.0601C158.01 47.2001 157.89 47.0401 157.89 46.6101C157.89 46.5201 157.87 46.4201 157.85 46.3301C157.64 45.1001 157.63 45.0901 158.86 44.9001C159.65 44.7801 160.45 44.7101 161.26 44.7801C163.31 44.9401 164.34 45.9901 164.41 48.0501C164.46 48.8901 164.43 49.7301 164.44 50.5701ZM162.03 51.0601V50.3701C162.03 50.2001 162 50.0701 161.8 50.0501C161.21 50.0001 160.62 49.9401 160.04 50.1201C159.56 50.2701 159.32 50.6001 159.35 51.1101C159.38 51.6101 159.68 51.8701 160.14 51.9601C160.44 52.0201 160.75 52.0201 161.05 52.0201C162.04 52.0201 162.04 52.0101 162.03 51.0601ZM166.08 49.5001C166.08 48.2401 166.09 46.9801 166.08 45.7201C166.08 45.4401 166.11 45.2701 166.44 45.2001C167.85 44.9001 169.26 44.6701 170.7 44.8501C172.47 45.0701 173.45 46.0601 173.61 47.8401C173.78 49.7101 173.64 51.5801 173.68 53.4601C173.69 53.7601 173.54 53.8101 173.29 53.8001C172.76 53.7901 172.22 53.7701 171.69 53.8001C171.3 53.8201 171.16 53.7101 171.17 53.3001C171.2 52.0201 171.18 50.7401 171.18 49.4601C171.18 49.2501 171.18 49.0401 171.17 48.8301C171.08 47.1901 170.66 46.8301 169.03 46.9501C168.65 46.9801 168.57 47.1201 168.57 47.4701C168.59 49.4001 168.57 51.3301 168.59 53.2601C168.59 53.6701 168.52 53.8501 168.06 53.8101C167.55 53.7701 167.03 53.7801 166.51 53.8101C166.15 53.8301 166.06 53.7001 166.06 53.3501C166.09 52.0601 166.08 50.7801 166.08 49.5001Z" fill="#193B7E"/>
<path d="M171.35 36.98C172.53 36.43 173.8 36.28 175.07 36.18C175.37 36.16 175.51 36.14 175.39 35.75C175.29 35.42 175.22 35.04 175.31 34.68C175.61 34.65 175.75 34.42 175.92 34.21C176.5 33.48 176.96 32.67 177.63 32.01C177.9 33.02 178.41 33.97 178.45 35.03C178.52 37.15 177.64 38.87 176.15 40.31V39.93C176.48 39.15 176.4 38.38 176.04 37.64C176.03 37.52 176.05 37.38 175.93 37.29C175.92 37.1 175.88 36.93 175.71 36.82C175.69 36.64 175.71 36.44 175.46 36.3C175.51 36.54 175.55 36.71 175.69 36.84C175.7 37.03 175.72 37.21 175.92 37.3C175.92 37.43 175.89 37.57 176.04 37.64C176.17 38.4 176.18 39.17 176.16 39.94C175.99 40.08 175.95 40.28 175.92 40.49C174.67 41.57 173.21 42.09 171.57 42.12C170.58 42.14 169.58 42.13 168.6 42.33C168.55 42.08 168.69 41.89 168.8 41.7C169.14 41.13 169.48 40.57 169.83 40.01C170.43 39.05 170.98 38.06 171.35 36.98Z" fill="#F05968"/>
<path d="M185.16 56.98C186.71 56.98 188.25 56.99 189.8 56.97C190.15 56.97 190.26 57.02 190.19 57.42C189.91 58.92 189.67 60.43 189.44 61.94C189.39 62.3 189.24 62.4 188.88 62.39C185.77 62.38 182.65 62.37 179.54 62.39C179.12 62.39 179.03 62.29 179.11 61.88C179.38 60.4 179.62 58.91 179.85 57.42C179.91 57.06 180.06 56.97 180.41 56.97C181.99 56.99 183.58 56.98 185.16 56.98ZM187.07 61.64H188.1C188.37 61.65 188.39 61.46 188.42 61.26C188.47 60.97 188.25 61.02 188.09 61.01C187.84 61 187.59 61.01 187.34 61.01C186.58 61.01 186.57 60.97 186.78 60.24C186.9 59.81 187.2 60.02 187.43 59.99C187.75 59.95 188.2 60.11 188.16 59.56C188.12 59.08 187.7 59.45 187.48 59.34C187.32 59.26 186.95 59.52 187.02 59.08C187.07 58.8 186.96 58.38 187.5 58.41C187.86 58.44 188.23 58.41 188.59 58.42C188.87 58.43 188.87 58.23 188.9 58.04C188.95 57.74 188.73 57.8 188.57 57.8C188.05 57.79 187.54 57.82 187.02 57.79C186.66 57.77 186.51 57.89 186.46 58.25C186.35 58.97 186.2 59.68 186.05 60.39C185.81 61.65 185.8 61.65 187.07 61.64ZM184.46 57.8C184 57.8 183.54 57.81 183.08 57.8C182.76 57.79 182.78 58.04 182.76 58.23C182.73 58.5 182.95 58.4 183.08 58.41C183.25 58.43 183.43 58.43 183.59 58.41C183.94 58.37 183.96 58.52 183.89 58.81C183.72 59.59 183.57 60.38 183.43 61.17C183.4 61.32 183.21 61.56 183.53 61.62C183.79 61.67 184.05 61.7 184.1 61.29C184.19 60.65 184.34 60.02 184.47 59.38C184.65 58.46 184.65 58.46 185.55 58.41C185.63 58.41 185.71 58.42 185.78 58.4C185.98 58.33 185.97 58.13 185.98 57.97C186 57.76 185.82 57.8 185.7 57.8H184.46ZM181.22 61.64C181.61 61.64 181.94 61.62 182.26 61.65C182.6 61.68 182.63 61.45 182.65 61.22C182.68 60.92 182.42 61.03 182.28 61.02C181.94 61 181.59 61 181.25 61.02C180.95 61.03 180.84 60.98 180.92 60.63C181.1 59.85 181.25 59.06 181.38 58.27C181.41 58.11 181.6 57.83 181.21 57.8C180.93 57.77 180.75 57.81 180.7 58.16C180.59 58.91 180.41 59.66 180.27 60.41C180.2 60.8 179.96 61.32 180.13 61.55C180.33 61.82 180.89 61.6 181.22 61.64Z" fill="#23478B"/>
<path d="M184.41 47.2C184.41 45.72 184.42 44.49 184.4 43.27C184.39 42.92 184.49 42.75 184.85 42.71C185.4 42.65 185.95 42.57 186.49 42.45C186.87 42.37 186.94 42.5 186.93 42.85C186.9 43.44 186.93 44.04 186.92 44.63C186.91 44.9 187 45 187.28 44.99C187.99 44.97 188.7 45 189.4 44.98C189.78 44.96 189.97 45.05 189.92 45.47C189.87 45.98 190.13 46.64 189.82 46.96C189.51 47.29 188.84 47.03 188.34 47.07C187.89 47.1 187.3 46.87 187.02 47.16C186.74 47.45 186.95 48.03 186.94 48.49C186.93 49.12 186.92 49.75 186.94 50.38C186.98 51.52 187.43 51.93 188.57 51.86C188.84 51.84 189.12 51.84 189.36 51.74C189.91 51.5 190 51.81 190.04 52.23C190.05 52.31 190.06 52.38 190.07 52.46C190.29 53.66 190.29 53.67 189.08 53.89C188.36 54.02 187.63 54.03 186.91 53.9C185.55 53.67 184.73 52.81 184.53 51.4C184.3 49.93 184.47 48.43 184.41 47.2ZM144.25 47.24C144.25 45.72 144.26 44.46 144.24 43.2C144.24 42.94 144.28 42.77 144.58 42.73C145.19 42.65 145.79 42.56 146.39 42.45C146.68 42.4 146.76 42.5 146.75 42.78C146.74 43.37 146.77 43.97 146.74 44.56C146.72 44.92 146.85 45.01 147.2 45C147.91 44.97 148.61 45.01 149.32 44.99C149.64 44.98 149.77 45.06 149.75 45.4C149.72 45.93 149.92 46.61 149.65 46.95C149.37 47.32 148.65 47.06 148.13 47.07C146.75 47.09 146.75 47.08 146.75 48.47C146.75 49.16 146.73 49.85 146.77 50.53C146.83 51.53 147.26 51.9 148.24 51.86C148.62 51.84 149 51.79 149.37 51.68C149.69 51.59 149.78 51.68 149.8 51.98C149.82 52.21 149.88 52.43 149.92 52.66C150.1 53.6 150.1 53.6 149.14 53.84C148.33 54.04 147.51 54.05 146.69 53.91C145.37 53.68 144.57 52.86 144.35 51.51C144.11 50 144.31 48.49 144.25 47.24ZM140.84 44.75C141.42 44.74 142.09 44.87 142.75 45.09C143.01 45.18 143.13 45.27 143.02 45.58C142.88 45.99 142.77 46.42 142.69 46.85C142.63 47.15 142.52 47.23 142.23 47.12C141.76 46.94 141.27 46.9 140.77 46.91C139.43 46.93 138.8 47.9 138.66 48.98C138.58 49.54 138.63 50.11 138.88 50.67C139.29 51.56 140 51.87 140.91 51.88C141.49 51.89 142.06 51.82 142.6 51.64C142.85 51.56 142.95 51.6 142.98 51.85C143.02 52.17 143.08 52.49 143.13 52.81C143.27 53.64 143.27 53.64 142.43 53.84C141.45 54.07 140.46 54.11 139.47 53.92C137.49 53.53 136.39 52.16 136.17 49.87C135.88 46.96 137.86 44.74 140.84 44.75ZM151.15 49.58V45.86C151.15 45.61 151.18 45.44 151.47 45.35C153.08 44.85 154.71 44.63 156.38 44.99C156.79 45.08 156.92 45.22 156.79 45.64C156.65 46.11 156.73 46.74 156.44 47.06C156.14 47.39 155.57 46.98 155.1 46.95C153.7 46.88 153.66 46.91 153.66 48.26C153.66 49.94 153.65 51.62 153.67 53.3C153.68 53.71 153.55 53.83 153.16 53.81C152.68 53.78 152.2 53.78 151.73 53.81C151.3 53.84 151.13 53.74 151.15 53.26C151.18 52.02 151.15 50.8 151.15 49.58Z" fill="#193B7E"/>
<path d="M176.29 62.4199C174.7 62.4299 173.69 61.2599 173.91 59.6899C174.17 57.7999 175.69 56.5999 177.43 56.9199C177.74 56.9799 178.02 57.0899 178.27 57.2699C179.06 57.8399 179.03 58.1699 178.18 58.5799C177.98 58.6799 177.87 58.6699 177.69 58.5099C177.09 57.9599 176.24 58.0499 175.73 58.6799C175.17 59.3599 175.17 60.5199 175.72 60.9499C176.06 61.2199 176.82 61.2499 177.19 61.0299C177.41 60.8999 177.45 60.6999 177.42 60.4899C177.39 60.2599 177.18 60.3799 177.05 60.3499C176.9 60.3099 176.57 60.4599 176.65 60.1399C176.72 59.8499 176.55 59.3999 177.04 59.2999H177.1C178.93 59.0999 178.93 59.0999 178.59 60.8499C178.35 61.9699 177.72 62.4099 176.29 62.4199Z" fill="#F26F2A"/>
<path d="M171.35 36.98C170.99 38.06 170.44 39.04 169.84 40C169.49 40.56 169.14 41.12 168.81 41.69C168.7 41.88 168.56 42.08 168.61 42.32C167.54 42.65 166.53 43.06 165.81 44.02C165.62 41.92 168.09 38.19 171.35 36.98Z" fill="#F8B39A"/>
<path d="M170.43 61.3999C170.33 61.3999 170.24 61.4099 170.14 61.3999C169.9 61.3799 169.51 61.5099 169.44 61.3299C169.34 61.0499 169.42 60.6599 169.62 60.4099C170.42 59.4199 171.24 58.4299 172.09 57.4799C172.44 57.0899 172.95 57.3199 173.39 57.3399C173.56 57.3499 173.48 57.5599 173.45 57.6799C173.27 58.3999 173.26 59.1499 172.96 59.8399C172.89 59.9999 172.88 60.2699 173.08 60.3299C173.3 60.3999 173.45 60.4699 173.33 60.6999C173.21 60.9399 173.43 61.3699 172.93 61.3999C172.57 61.4199 172.71 61.7399 172.63 61.9199C172.56 62.0599 172.61 62.2899 172.36 62.2799C172.06 62.2699 171.75 62.3499 171.46 62.2299C171.43 62.2199 171.41 62.1199 171.42 62.0799C171.72 61.1499 171.03 61.4299 170.59 61.3999H170.43ZM170.79 60.2999C171.84 60.4599 171.88 60.4099 171.96 58.9999C171.57 59.4299 171.21 59.8299 170.79 60.2999Z" fill="#F26F2A"/>
<path d="M177.62 32.02C176.96 32.68 176.49 33.49 175.91 34.22C175.74 34.43 175.61 34.66 175.3 34.69C175.19 34.43 175.28 34.23 175.45 34.03C176.12 33.27 176.75 32.47 177.22 31.57C177.28 31.44 177.43 31.31 177.52 31.39C177.72 31.55 177.63 31.8 177.62 32.02Z" fill="#F8B39A"/>
<path d="M177.23 31.5701C176.75 32.4701 176.13 33.2701 175.46 34.0301C175.61 32.9001 176.21 32.0801 177.23 31.5701Z" fill="#F05968"/>
<path d="M176.14 39.9399V40.3199C176.1 40.4199 176.02 40.4799 175.91 40.4899C175.94 40.2899 175.98 40.0899 176.14 39.9399Z" fill="#F8B39A"/>
<path d="M120.4 49.26C120.4 48.63 120.41 48 120.39 47.37C120.38 47.07 120.49 46.98 120.77 46.95C122.54 46.74 123.45 47.51 123.51 49.31V49.65C123.45 51.54 122.42 52.25 120.61 51.65C120.35 51.57 120.4 51.42 120.4 51.27V49.26ZM129.47 48.5C129.6 48.18 129.68 47.93 129.8 47.7C130.12 47.03 130.79 46.71 131.56 46.84C132.18 46.95 132.68 47.47 132.79 48.12C132.83 48.38 132.8 48.51 132.49 48.51C131.5 48.49 130.51 48.5 129.47 48.5ZM179.04 48.5H177.67C177.53 48.5 177.4 48.49 177.43 48.29C177.59 47.42 178.39 46.78 179.28 46.82C180.02 46.85 180.6 47.39 180.73 48.13C180.78 48.41 180.71 48.51 180.42 48.5C179.95 48.49 179.49 48.5 179.04 48.5ZM162.03 51.06C162.03 52.01 162.03 52.02 161.05 52.02C160.75 52.02 160.44 52.01 160.14 51.96C159.69 51.87 159.38 51.62 159.35 51.11C159.32 50.6 159.55 50.27 160.04 50.12C160.62 49.94 161.21 50 161.8 50.05C162 50.07 162.04 50.2 162.03 50.37V51.06Z" fill="#FEFEFE"/>
<path d="M176.15 39.9501C176.18 39.1801 176.16 38.4101 176.03 37.6501C176.4 38.4001 176.48 39.1601 176.15 39.9501ZM175.68 36.8501C175.53 36.7201 175.49 36.5501 175.45 36.3101C175.71 36.4601 175.68 36.6501 175.7 36.8301L175.68 36.8501ZM175.7 36.8401C175.87 36.9501 175.91 37.1201 175.92 37.3101L175.91 37.3201C175.71 37.2301 175.69 37.0501 175.68 36.8601C175.68 36.8501 175.7 36.8401 175.7 36.8401Z" fill="#F8B39A"/>
<path d="M175.92 37.3C176.04 37.39 176.02 37.52 176.03 37.65C175.88 37.58 175.91 37.44 175.92 37.3Z" fill="#F8B39A"/>
<path d="M187.07 61.6399C185.81 61.6399 185.81 61.6399 186.06 60.3899C186.2 59.6799 186.36 58.9699 186.47 58.2499C186.52 57.8899 186.68 57.7699 187.03 57.7899C187.54 57.8199 188.06 57.7899 188.58 57.7999C188.74 57.7999 188.96 57.7399 188.91 58.0399C188.88 58.2299 188.88 58.4299 188.6 58.4199C188.24 58.4099 187.87 58.4399 187.51 58.4099C186.97 58.3699 187.08 58.7999 187.03 59.0799C186.96 59.5199 187.33 59.2599 187.49 59.3399C187.71 59.4499 188.13 59.0799 188.17 59.5599C188.21 60.1099 187.76 59.9499 187.44 59.9899C187.22 60.0199 186.91 59.7999 186.79 60.2399C186.59 60.9699 186.6 61.0099 187.35 61.0099H188.1C188.26 61.0099 188.47 60.9599 188.43 61.2599C188.4 61.4499 188.38 61.6499 188.11 61.6399H187.07ZM184.46 57.7999H185.72C185.84 57.7999 186.02 57.7599 186 57.9699C185.99 58.1299 186 58.3299 185.8 58.3999C185.73 58.4199 185.65 58.4099 185.57 58.4099C184.67 58.4599 184.67 58.4599 184.49 59.3799C184.36 60.0199 184.21 60.6499 184.12 61.2899C184.06 61.6999 183.8 61.6699 183.55 61.6199C183.23 61.5599 183.42 61.3199 183.45 61.1699C183.59 60.3799 183.74 59.5899 183.91 58.8099C183.97 58.5199 183.95 58.3699 183.61 58.4099C183.44 58.4299 183.27 58.4299 183.1 58.4099C182.97 58.3999 182.75 58.4899 182.78 58.2299C182.8 58.0399 182.78 57.7899 183.1 57.7999C183.54 57.8099 184 57.7999 184.46 57.7999Z" fill="#FEFEFE"/>
</svg>
