<svg width="300" height="100" viewBox="0 0 300 100" fill="none" xmlns="http://www.w3.org/2000/svg">
<rect width="300" height="100" fill="white"/>
<g clip-path="url(#clip0_298_9805)">
<path d="M90.9998 49.6681C91.1646 49.1783 91.3203 48.6839 91.4971 48.1986C91.8956 47.0991 92.6745 46.3396 93.6916 45.8019C95.1918 45.0089 96.8616 44.591 98.5585 44.584C100.588 44.5353 102.611 44.8161 104.55 45.4154V49.5198C104.164 49.403 103.81 49.2621 103.443 49.1902C102.574 48.9946 101.695 48.8446 100.81 48.7409C99.957 48.6835 99.1013 48.6835 98.2484 48.7409C97.9263 48.7558 97.5414 48.8367 97.3137 49.0404C97.0544 49.2715 96.8936 49.5932 96.8643 49.9392C96.8553 50.4006 97.2582 50.6792 97.6747 50.7961C98.5869 51.0522 99.5277 51.214 100.428 51.5001C101.589 51.8478 102.728 52.2671 103.837 52.7554C105.045 53.3126 105.654 54.4031 105.934 55.6674C106.236 56.9954 106.09 58.386 105.518 59.622C104.998 60.7874 104.086 61.517 102.971 62.0502C101.306 62.8531 99.5262 63.0838 97.7076 62.9864C96.7459 62.9355 95.7873 62.8022 94.7656 62.7003L94.6069 58.3563C95.1851 58.4581 95.7288 58.5675 96.2771 58.6558C97.3122 58.8056 98.3443 58.9554 99.3869 58.6379C99.8827 58.4881 100.199 58.151 100.241 57.7166C100.283 57.2822 99.8887 56.9407 99.5067 56.7834C98.9595 56.5842 98.3988 56.424 97.829 56.304C96.9542 56.0823 96.0644 55.9116 95.2016 55.6509C94.5601 55.4563 93.9371 55.2057 93.3396 54.902C92.1173 54.2818 91.4417 53.2347 91.1616 51.906C91.1196 51.7083 91.0462 51.5166 90.9878 51.3218C90.9958 50.7636 90.9998 50.2124 90.9998 49.6681Z" fill="#010101"/>
<path d="M131.283 30C131.404 30.1072 131.535 30.2025 131.674 30.2846C132.872 30.8463 134.071 31.3886 135.269 31.9563C135.858 32.2365 136.468 32.4986 136.999 32.8701C138.084 33.6266 139.246 34.2737 140.145 35.2863C140.693 35.905 140.722 36.3873 140.145 36.9865C139.231 37.9007 138.189 38.6768 137.052 39.2903C135.611 40.1007 134.129 40.8422 132.649 41.5792C132.182 41.8129 131.658 41.9312 131.163 42.114C130.473 42.3686 130.184 42.1469 129.845 41.365C129.537 40.652 129.432 39.8506 129.246 39.0851C129.158 38.7211 129.074 38.3556 129.017 37.9856C129.016 37.8084 129.026 37.6313 129.048 37.4553C129.03 36.4188 128.958 35.3807 129 34.3471C129.026 33.706 129.198 33.0678 129.346 32.4372C129.481 31.8665 129.563 31.2882 129.86 30.7475C130.1 30.3101 130.357 30.0584 130.862 30.0854C130.95 30.0724 131.035 30.0435 131.112 30H131.283Z" fill="#329EFA"/>
<path d="M116.149 62.8234V70.0001H109.897V49.3283H107.723V44.9497C107.832 44.9408 107.93 44.9258 108.023 44.9258H113.266C113.366 44.9097 113.468 44.9302 113.554 44.9836C113.64 45.0369 113.704 45.1196 113.734 45.2164C114.057 45.9384 114.428 46.6394 114.817 47.4214C115.018 47.1742 115.158 46.9225 115.366 46.7623C116.016 46.2604 116.655 45.7257 117.369 45.3302C118.331 44.8171 119.41 44.5593 120.501 44.5812C122.159 44.5917 123.774 44.8958 125.161 45.9818C125.941 46.5915 126.457 47.3764 126.884 48.2093C127.225 48.8831 127.455 49.6073 127.567 50.3544C127.758 51.6681 127.937 53.0043 127.905 54.327C127.845 56.854 127.075 59.1429 125.144 60.918C124.18 61.8018 123.019 62.3036 121.774 62.6406C120.636 62.931 119.459 63.0407 118.287 62.9657C117.59 62.9372 116.895 62.8728 116.149 62.8234ZM116.149 58.9482C117.006 58.9482 117.806 58.9901 118.601 58.9392C119.875 58.8583 120.832 58.2756 121.224 56.9918C121.415 56.4304 121.543 55.8497 121.606 55.2602C121.714 53.8551 121.747 52.447 121.307 51.0659C120.707 49.2069 119.15 48.9688 117.888 49.3223C116.874 49.6024 116.193 50.606 116.172 51.719C116.149 52.8919 116.158 54.0648 116.155 55.2392C116.152 56.4136 116.154 57.6225 116.154 58.9482H116.149ZM144.053 49.3208H141.875V44.9183H146.477C147.804 44.9183 147.801 44.9183 148.274 46.1496C148.424 46.5496 148.61 46.939 148.836 47.4693C148.969 47.3153 149.094 47.1543 149.211 46.987C149.615 46.3189 150.286 45.9683 150.906 45.5639C151.732 45.0261 152.677 44.8374 153.631 44.6846C154.712 44.5086 155.817 44.5396 156.886 44.776C159.145 45.2763 160.589 46.623 161.052 48.9238C161.142 49.428 161.182 49.9397 161.173 50.4517C161.185 54.4463 161.189 58.4409 161.184 62.4354C161.184 62.5178 161.172 62.6002 161.163 62.6961H154.963V62.2362V51.6741C154.963 50.6779 154.435 49.7477 153.722 49.4886C152.674 49.1096 151.553 49.3073 150.98 50.0248C150.5 50.6448 150.249 51.4116 150.27 52.1954C150.261 55.5298 150.27 58.8643 150.27 62.1987V62.6901H144.053V49.3208ZM182.283 55.6572C182.384 56.2975 182.648 56.9013 183.048 57.4113C183.443 57.9054 183.972 58.276 184.571 58.4793C184.994 58.6411 185.479 58.6426 185.936 58.7115C186.167 58.7459 186.426 58.8508 186.625 58.7834C187.13 58.6111 187.636 58.8388 188.137 58.6935C188.993 58.4448 189.88 58.2831 190.719 57.9895C191.408 57.7483 192.049 57.3663 192.786 57.0098C192.767 57.3588 192.744 57.6479 192.738 57.937C192.738 58.1423 192.759 58.349 192.758 58.5557C192.758 58.692 192.726 58.8268 192.72 58.9631C192.705 59.2627 192.72 59.5623 192.681 59.8619C192.641 60.2064 192.623 60.5735 192.482 60.879C192.386 61.0843 192.114 61.237 191.883 61.3494C190.793 61.9081 189.645 62.3447 188.459 62.6511C187.11 62.9807 185.749 63.0316 184.377 62.9642C182.633 62.8803 180.982 62.4804 179.483 61.5336C178.346 60.8161 177.551 59.8095 176.912 58.6606C176.334 57.612 176.087 56.478 175.939 55.3066C175.772 53.8212 175.864 52.3181 176.208 50.8637C176.499 49.6213 177.086 48.4676 177.919 47.5008C178.659 46.602 179.582 45.9713 180.615 45.4411C181.649 44.9108 182.712 44.7205 183.807 44.5618C184.556 44.4509 185.353 44.5318 186.117 44.6292C186.978 44.74 187.829 44.9152 188.664 45.1535C189.125 45.2838 189.54 45.5864 189.966 45.829C190.733 46.264 191.417 46.8327 191.985 47.5083C192.556 48.2036 192.969 49.014 193.198 49.884C193.465 50.9347 193.589 52.0164 193.568 53.1001C193.589 53.8403 193.337 54.5624 192.86 55.1284C192.74 55.2949 192.573 55.4213 192.38 55.4909C191.938 55.5904 191.486 55.6441 191.032 55.6512C188.199 55.6646 185.365 55.6512 182.533 55.6512L182.283 55.6572ZM182.121 52.6013H187.121C187.389 52.6013 187.451 52.4515 187.467 52.2208C187.531 51.4521 187.386 50.6804 187.048 49.9874C186.219 48.3201 183.935 48.0685 182.927 49.538C182.305 50.4517 182.169 51.4988 182.121 52.6013Z" fill="#010101"/>
<path d="M195.189 44.8613L198.019 44.8403L198.089 44.7744V40.6131L204.381 39.2095V44.7729L204.456 44.8418H208.38V49.1335H204.4C204.39 49.2728 204.373 49.3806 204.373 49.4885C204.373 51.9631 204.334 54.4392 204.39 56.9138C204.414 58.0104 204.905 58.5017 205.942 58.5287C206.866 58.5526 207.714 58.2186 208.566 57.9295C208.756 57.8636 208.897 57.6718 209.075 57.558C209.337 57.3902 209.45 57.5265 209.441 57.7872C209.411 58.5841 209.369 59.381 209.33 60.1839C209.297 60.5089 209.28 60.8354 209.281 61.1621C209.294 61.2719 209.272 61.3832 209.219 61.4799C209.165 61.5766 209.081 61.6536 208.981 61.6998C208.051 62.2532 207.015 62.6039 205.94 62.7289C204.936 62.8548 203.94 63.0824 202.916 62.9656C201.84 62.8656 200.806 62.5058 199.9 61.917C199.198 61.4527 198.919 60.7336 198.5 60.1105C198.257 59.748 198.263 59.2117 198.2 58.7369C198.137 58.262 198.127 57.7947 198.094 57.3228V49.2383L198.023 49.1679H195.177V44.9467L195.189 44.8613Z" fill="black"/>
<path d="M165.554 41.8444C165.197 41.8354 164.841 41.8249 164.484 41.8204C164.128 41.8159 163.803 41.8204 163.436 41.8204V37.4988H171.839C171.848 37.695 171.865 37.8778 171.865 38.0605V57.7272C171.842 59.0185 172.42 59.1638 173.535 58.8162C173.736 58.7409 173.931 58.6503 174.119 58.5451V61.5215C174.12 61.6539 174.08 61.7834 174.006 61.8926C173.931 62.0019 173.825 62.0857 173.701 62.1327C172.377 62.7873 170.987 63.0015 169.531 62.9851C168.527 62.9731 167.597 62.7454 166.842 62.0998C166.461 61.7626 166.175 61.3313 166.012 60.849C165.778 60.1329 165.691 59.366 165.563 58.617C165.533 58.4328 165.629 58.2335 165.629 58.0403V42.4121C165.629 42.2548 165.621 42.0975 165.617 41.9402L165.554 41.8444Z" fill="#020202"/>
<path d="M140.365 58.6245C140.38 58.6637 140.386 58.7055 140.384 58.7473C140.331 59.7555 140.278 60.7636 140.203 61.7702C140.203 61.8646 140.053 61.9725 139.944 62.0324C138.543 62.8293 137.017 63.0809 135.438 62.9521C134.756 62.9142 134.085 62.7571 133.456 62.4877C132.785 62.1747 132.351 61.5261 132.069 60.831C131.723 59.9772 131.785 59.0619 131.782 58.1661C131.771 55.3335 131.782 52.5009 131.782 49.6682V49.1709H129.596V44.8643H137.994V57.4366C138 57.7237 138.027 58.01 138.073 58.2935C138.136 58.7428 138.388 59.008 138.834 58.9586C139.35 58.8751 139.861 58.7636 140.365 58.6245Z" fill="black"/>
<path d="M198.091 56.4539V57.3122C197.74 57.0276 197.74 56.5977 198.091 56.4539Z" fill="#FDFDFD"/>
<path d="M195.189 44.8613L195.167 44.9467L195.071 44.8898L195.189 44.8613Z" fill="#ECECEC"/>
<path d="M116.154 58.948V55.251C116.154 54.0646 116.154 52.9037 116.17 51.7308C116.191 50.6178 116.873 49.6142 117.887 49.3341C119.148 48.9851 120.7 49.2187 121.305 51.0777C121.755 52.4513 121.719 53.8594 121.605 55.272C121.541 55.8615 121.413 56.4422 121.223 57.0036C120.83 58.2814 119.875 58.8641 118.6 58.951C117.812 58.9899 117.011 58.948 116.154 58.948ZM182.121 52.6011C182.167 51.4926 182.304 50.4456 182.927 49.5363C183.935 48.0638 186.222 48.3155 187.048 49.9857C187.387 50.6787 187.531 51.4505 187.467 52.2192C187.451 52.4483 187.391 52.6011 187.121 52.5996H182.449L182.121 52.6011Z" fill="#FDFDFD"/>
</g>
<defs>
<clipPath id="clip0_298_9805">
<rect width="118.439" height="40" fill="white" transform="translate(91 30)"/>
</clipPath>
</defs>
</svg>
