<svg width="300" height="100" viewBox="0 0 300 100" fill="none" xmlns="http://www.w3.org/2000/svg">
<rect width="300" height="100" fill="white"/>
<g clip-path="url(#clip0_298_9792)">
<path d="M112.134 62.4457H84.7439C83.0777 62.4457 82.4786 60.2739 83.9202 59.4386L91.4464 55.0396C91.9332 54.7426 92.551 54.7612 93.0378 55.0581L97.6808 58.0465C98.1863 58.3621 98.8042 58.3436 99.3096 58.0465L103.934 55.0767C104.421 54.7612 105.038 54.7612 105.544 55.0581L112.977 59.4573C114.399 60.2739 113.8 62.4457 112.134 62.4457Z" fill="#BE0000"/>
<path d="M97.5499 31.3924V31.2996C97.5685 29.9632 95.7712 29.4806 95.1347 30.6685L81.5238 55.4481L81.1307 56.2277C80.5503 57.3971 81.8796 58.5664 82.9842 57.8611L90.5665 53.295C90.941 53.0537 91.1469 52.6639 91.1469 52.2184L91.1657 46.0003C91.1657 45.5549 91.3903 45.1465 91.7835 44.9052L96.9133 41.9168C97.2877 41.6755 97.5311 41.2672 97.5311 40.8217L97.5499 31.3924Z" fill="#BE0000"/>
<path d="M99.422 31.3922V31.2994C99.4032 29.963 101.201 29.4804 101.837 30.6683L115.429 55.4479L115.822 56.2274C116.403 57.3969 115.074 58.5662 113.969 57.8609L106.387 53.2947C106.012 53.0535 105.806 52.6637 105.806 52.2182L105.787 46C105.787 45.5546 105.563 45.1462 105.17 44.905L100.059 41.898C99.6841 41.6567 99.4407 41.2483 99.4407 40.8029L99.422 31.3922Z" fill="#BE0000"/>
<path d="M173.58 34.993C174.945 34.993 176.051 33.896 176.051 32.5429C176.051 31.1897 174.945 30.0928 173.58 30.0928C172.215 30.0928 171.108 31.1897 171.108 32.5429C171.108 33.896 172.215 34.993 173.58 34.993Z" fill="#BE0000"/>
<path d="M217.932 51.4385C217.876 52.1066 217.314 52.6449 216.622 52.6449C213.738 52.6449 210.818 52.6449 207.841 52.6449H199.622L199.865 53.3503C200.127 54.1299 200.371 54.6867 200.801 55.2436C201.812 56.5985 202.955 57.3967 204.471 57.7865C205.407 58.0278 206.305 58.1576 207.148 58.1576C208.571 58.1576 209.9 57.805 211.098 57.1183C211.548 56.8584 211.94 56.5429 212.352 56.2088C212.446 56.1345 212.54 56.0603 212.634 55.986L216.602 58.2505C216.134 58.8816 215.554 59.457 214.862 60.0324C212.933 61.5916 210.668 62.4083 207.897 62.5383C207.579 62.5568 207.279 62.5568 206.961 62.5568C204.265 62.5568 202 61.9629 200.015 60.7192C196.664 58.6403 194.848 55.4848 194.642 51.3456C194.455 47.6147 195.634 44.4964 198.105 42.102C200.333 39.9489 203.123 38.8723 206.436 38.8723C206.755 38.8723 207.092 38.8909 207.447 38.9094C213.195 39.2621 217.52 43.6241 217.95 49.5081C217.95 49.471 218.007 50.3063 217.932 51.4385ZM206.549 43.1972C203.665 43.1972 200.502 44.7934 199.903 48.3573L199.79 48.9883H213.008L212.915 48.3758C212.483 45.4246 209.976 43.29 206.811 43.1972C206.737 43.1972 206.642 43.1972 206.549 43.1972Z" fill="#04060F"/>
<path d="M130.763 62.5196C130.089 62.5196 129.377 62.464 128.628 62.3897C126.475 62.1299 124.715 61.3688 123.255 60.0881C122.469 59.4013 121.87 58.6218 121.383 57.6937L125.689 55.2993C126.531 57.0254 128.048 57.9906 130.107 58.0835C130.388 58.102 130.613 58.102 130.819 58.102C131.455 58.102 131.998 58.0464 132.56 57.8978H132.597L132.635 57.8793C133.796 57.4523 134.357 56.7842 134.432 55.7262C134.488 54.8353 134.02 54.0927 133.103 53.6843C132.279 53.3132 131.455 52.9977 130.65 52.7563C130.276 52.645 129.901 52.5336 129.527 52.4222C128.104 52.0139 126.737 51.6056 125.483 50.9373C123.817 50.0464 122.862 48.9698 122.45 47.522C121.608 44.4222 122.843 41.5452 125.708 40.0046C127.093 39.2436 128.853 38.8352 130.65 38.8352C132.391 38.8352 135.668 39.2436 138.027 41.935C138.307 42.2505 138.57 42.6218 138.85 42.993C138.869 43.0115 138.888 43.0302 138.907 43.0673L134.675 45.3503C134.544 45.1647 134.432 44.979 134.282 44.7934C133.44 43.754 132.073 43.1229 130.65 43.1229C129.976 43.1229 129.321 43.2714 128.741 43.5313C127.692 44.0325 127.411 44.8305 127.374 45.4246C127.318 46.3155 127.767 47.0579 128.609 47.4292C129.546 47.8376 130.538 48.1902 131.568 48.4871C131.848 48.5614 132.111 48.6543 132.391 48.7285C133.758 49.1183 135.05 49.4896 136.248 50.1206C138.532 51.3086 139.618 53.0904 139.581 55.6148C139.543 58.1949 138.42 60.0325 136.136 61.2574C134.544 62.1114 132.785 62.5196 130.763 62.5196Z" fill="#04060F"/>
<path d="M176.109 61.8293V39.3699H171.129V61.8293H176.109Z" fill="#04060F"/>
<path d="M148.81 41.9907C150.439 40.1159 153.154 38.928 155.924 38.8352H156.28C160.848 38.8352 164.743 41.4895 166.427 45.7772C168.187 50.232 167.682 54.4269 164.911 58.2134C162.927 60.9234 159.725 62.5383 156.299 62.5383C154.895 62.5383 153.528 62.2599 152.236 61.7216C151.263 61.3132 150.364 60.682 149.596 59.8468C149.54 59.7911 149.353 59.6056 149.166 59.4013L148.099 58.3247V70H143.119V40.7285C143.119 39.986 143.718 39.3921 144.467 39.3921H148.099V42.7331L148.81 41.9907ZM155.176 43.5313C151.188 43.5313 148.23 46.5011 148.155 50.5846C148.117 52.5893 148.792 54.4269 150.065 55.7447C151.338 57.0625 153.135 57.8236 155.157 57.8607H155.307C159.332 57.8607 162.29 54.9094 162.365 50.863C162.402 48.8213 161.728 46.9837 160.455 45.6658C159.182 44.348 157.366 43.6056 155.325 43.5683C155.288 43.5313 155.232 43.5313 155.176 43.5313Z" fill="#04060F"/>
<path d="M185 42.9558V39.3734H180.02V61.8328H183.652C184.401 61.8328 185 61.2389 185 60.4964V52.0323C185.019 51.7168 185.019 51.4756 185.019 51.2342C185.019 49.7122 185.337 48.4686 186.011 47.4292C187.022 45.8886 188.576 44.979 190.635 44.7191C191.122 44.6635 191.609 44.6449 192.096 44.6264H192.189C193.069 42.5289 194.398 40.6542 196.083 39.095C194.904 38.9836 194.043 38.9651 193.481 38.9651C193.013 38.9651 192.788 38.9836 192.788 38.9836H192.77C189.493 39.1136 186.292 41.0811 185.019 43.7168L185 42.9558Z" fill="#04060F"/>
</g>
<defs>
<clipPath id="clip0_298_9792">
<rect width="136.97" height="40" fill="white" transform="translate(81 30)"/>
</clipPath>
</defs>
</svg>
