<svg width="300" height="100" viewBox="0 0 300 100" fill="none" xmlns="http://www.w3.org/2000/svg">
<rect width="300" height="100" fill="white"/>
<g clip-path="url(#clip0_298_9778)">
<g opacity="0.9">
<path opacity="0.9" d="M108.577 49.119C108.542 55.201 106.882 59.897 103.597 63.2121C100.277 66.5627 95.7127 68.2381 89.8998 68.2381H88.7829C87.4579 68.2381 86.3816 67.1618 86.3816 65.8367C86.3816 64.5117 87.4579 63.4354 88.7829 63.4354H90.5496C94.5552 63.4354 97.6419 62.0901 99.8096 59.3944C101.937 56.7342 103.038 53.3124 103.11 49.1241C103.038 44.9359 101.937 41.4938 99.8096 38.8031C97.6419 36.1429 94.5602 34.8178 90.5496 34.8178H88.7829C87.4579 34.8178 86.3816 33.7416 86.3816 32.4165C86.3765 31.0763 87.4528 30 88.7829 30H89.8998C95.7127 30 100.277 31.655 103.597 34.9701C106.876 38.3208 108.537 43.0371 108.577 49.119Z" fill="#3657FF"/>
<path opacity="0.9" d="M82.4419 68.4259C83.7905 68.4259 84.8838 67.3213 84.8838 65.9586C84.8838 64.5959 83.7905 63.4912 82.4419 63.4912C81.0933 63.4912 80 64.5959 80 65.9586C80 67.3213 81.0933 68.4259 82.4419 68.4259Z" fill="#3657FF"/>
</g>
<g opacity="0.9">
<path opacity="0.9" d="M97.6562 49.4255C97.6918 55.5075 99.3518 60.2035 102.637 63.5186C105.957 66.8692 110.521 68.5446 116.334 68.5446H117.45C118.776 68.5446 119.852 67.4684 119.852 66.1433C119.852 64.8183 118.776 63.742 117.45 63.742H115.684C111.678 63.742 108.592 62.3966 106.429 59.7009C104.302 57.0406 103.2 53.619 103.129 49.4307C103.2 45.2423 104.302 41.8003 106.429 39.1096C108.597 36.4494 111.678 35.1244 115.684 35.1244H117.45C118.776 35.1244 119.852 34.0481 119.852 32.7231C119.852 31.398 118.776 30.3218 117.45 30.3218H116.334C110.521 30.3218 105.957 31.9768 102.637 35.2919C99.3518 38.6273 97.6918 43.3436 97.6562 49.4255Z" fill="#3DDC97"/>
<path opacity="0.9" d="M123.802 35.2383C125.15 35.2383 126.244 34.1337 126.244 32.771C126.244 31.4084 125.15 30.3037 123.802 30.3037C122.453 30.3037 121.36 31.4084 121.36 32.771C121.36 34.1337 122.453 35.2383 123.802 35.2383Z" fill="#3DDC97"/>
</g>
<path d="M127.323 43.8607C126.958 44.1164 126.477 44.0799 126.136 43.7937C125.947 43.6353 125.746 43.4892 125.527 43.3491C125.149 43.0994 124.693 42.8802 124.163 42.6914C123.627 42.5026 123.048 42.4112 122.421 42.4112C121.355 42.4112 120.539 42.6427 119.973 43.1116C119.406 43.5744 119.126 44.0921 119.126 44.6645C119.126 45.3527 119.406 45.8764 119.973 46.2419C120.539 46.6012 121.252 46.924 122.116 47.2102C122.981 47.4964 123.907 47.7705 124.893 48.0444C125.88 48.3124 126.806 48.6901 127.67 49.1711C128.535 49.6523 129.248 50.2796 129.814 51.0591C130.368 51.8203 130.649 52.813 130.661 54.031C130.667 54.6887 130.575 55.3524 130.362 55.9797C129.985 57.0821 129.321 58.0382 128.377 58.8421C127.64 59.4693 126.745 59.9687 125.691 60.328C124.638 60.6874 123.468 60.8701 122.183 60.8701C120.679 60.8701 119.388 60.669 118.322 60.261C117.257 59.853 116.361 59.3963 115.637 58.8969C114.955 58.4401 114.352 57.9164 113.834 57.3196C113.499 56.9359 113.469 56.3634 113.743 55.9372C113.895 55.7058 114.12 55.4196 114.449 55.0907C114.93 54.6095 115.308 54.3233 115.612 54.1588C116.026 53.9274 116.526 54.0127 116.861 54.3477C117.214 54.7009 117.604 55.0237 118.03 55.316C118.529 55.6387 119.12 55.9433 119.796 56.2234C120.472 56.5036 121.264 56.6436 122.171 56.6436C123.487 56.6436 124.449 56.3879 125.04 55.8763C125.636 55.3647 125.935 54.7191 125.935 53.9396C125.935 53.2819 125.655 52.7643 125.088 52.3867C124.522 52.009 123.809 51.6803 122.945 51.3941C122.08 51.1077 121.154 50.8338 120.168 50.5597C119.181 50.2917 118.255 49.9141 117.391 49.433C116.526 48.9519 115.813 48.3307 115.247 47.5634C114.681 46.796 114.4 45.7729 114.4 44.4819C114.4 43.7023 114.595 42.9289 114.991 42.1616C115.381 41.3942 115.935 40.7243 116.641 40.1336C117.348 39.5489 118.188 39.0739 119.157 38.7146C120.131 38.3553 121.209 38.1726 122.403 38.1726C123.627 38.1726 124.693 38.337 125.606 38.6659C126.513 38.9948 127.287 39.348 127.914 39.7256C128.426 40.0361 128.87 40.3772 129.26 40.7548C129.54 41.0288 129.589 41.4673 129.363 41.7901C129.163 42.0702 128.87 42.4539 128.432 42.9289C128.103 43.2821 127.677 43.611 127.323 43.8607Z" fill="#0F0C3D"/>
<path d="M143.225 60.8518C142.092 60.8518 141.081 60.6934 140.186 60.3828C139.291 60.0723 138.529 59.7251 137.902 59.3475C137.147 58.909 136.489 58.3914 135.923 57.7946V68.3728C135.923 68.4703 135.844 68.5434 135.752 68.5434H131.386C131.288 68.5434 131.215 68.4642 131.215 68.3728V38.3796C131.215 38.2822 131.295 38.2091 131.386 38.2091H134.882C135.46 38.2091 135.923 38.678 135.923 39.2505V39.8717V40.706C135.923 40.8522 136.093 40.9313 136.203 40.8339C136.702 40.3954 137.269 39.9996 137.896 39.6463C138.523 39.287 139.285 38.946 140.18 38.6293C141.075 38.3126 142.086 38.1543 143.219 38.1543C144.693 38.1543 146.099 38.4466 147.433 39.0373C148.767 39.6281 149.942 40.4259 150.965 41.4429C151.982 42.4538 152.792 43.6597 153.389 45.0483C153.986 46.4367 154.284 47.9226 154.284 49.4939C154.284 51.0955 153.986 52.5877 153.389 53.964C152.792 55.3403 151.982 56.5339 150.965 57.5509C149.942 58.5619 148.767 59.3657 147.433 59.9565C146.105 60.5594 144.699 60.8518 143.225 60.8518ZM142.756 42.399C141.879 42.399 141.032 42.5817 140.216 42.9532C139.4 43.3247 138.67 43.8241 138.03 44.4635C137.385 45.1029 136.879 45.846 136.501 46.7047C136.124 47.5634 135.935 48.4951 135.935 49.5C135.935 50.5048 136.124 51.4426 136.501 52.3014C136.879 53.1601 137.391 53.9091 138.03 54.5425C138.676 55.1819 139.4 55.6813 140.216 56.0528C141.032 56.4242 141.879 56.6071 142.756 56.6071C143.633 56.6071 144.479 56.4242 145.295 56.0528C146.111 55.6813 146.842 55.1819 147.482 54.5425C148.127 53.9031 148.633 53.1601 149.01 52.3014C149.388 51.4426 149.577 50.5109 149.577 49.5C149.577 48.4951 149.388 47.5634 149.01 46.7047C148.633 45.846 148.121 45.0968 147.482 44.4635C146.836 43.8241 146.111 43.3247 145.295 42.9532C144.479 42.5878 143.633 42.399 142.756 42.399Z" fill="#0F0C3D"/>
<path d="M159.904 60.8033H155.458C155.385 60.8033 155.324 60.7424 155.324 60.6692V30.134C155.324 30.0609 155.385 30 155.458 30H159.904C159.977 30 160.038 30.0609 160.038 30.134V60.6692C160.038 60.7484 159.977 60.8033 159.904 60.8033Z" fill="#0F0C3D"/>
<path d="M166.616 50.5901C166.184 50.5901 165.855 51.0043 165.977 51.4244C166.117 51.9117 166.312 52.3867 166.567 52.8616C166.957 53.5985 167.463 54.2441 168.072 54.7923C168.681 55.3403 169.399 55.7788 170.215 56.1199C171.031 56.4548 171.908 56.6253 172.852 56.6253C173.949 56.6253 174.929 56.4427 175.794 56.0833C176.659 55.724 177.371 55.3221 177.938 54.8836C178.413 54.4999 178.845 54.0797 179.241 53.629C179.49 53.3489 179.929 53.3428 180.191 53.6047L181.019 54.4329L182.31 55.724C182.56 55.9736 182.566 56.3756 182.328 56.6375C181.719 57.3196 181.007 57.9407 180.197 58.501C179.35 59.0979 178.315 59.6399 177.091 60.1271C175.867 60.6142 174.454 60.8579 172.852 60.8579C171.251 60.8579 169.746 60.5533 168.334 59.9505C166.921 59.3476 165.672 58.5132 164.594 57.4536C163.51 56.3939 162.658 55.1698 162.03 53.7753C161.403 52.3806 161.086 50.8886 161.086 49.2868C161.086 47.7461 161.391 46.2967 162.006 44.9508C162.621 43.6049 163.443 42.4295 164.479 41.4368C165.514 40.4381 166.732 39.6464 168.126 39.0557C169.521 38.4649 171.019 38.1726 172.621 38.1726C174.223 38.1726 175.696 38.4345 177.048 38.9521C178.4 39.4698 179.563 40.2006 180.556 41.1324C181.543 42.0702 182.316 43.1725 182.864 44.4514C183.412 45.7304 183.686 47.1249 183.686 48.6353C183.686 48.9641 183.668 49.2625 183.638 49.5244C183.607 49.7923 183.577 50.0298 183.54 50.2369C183.51 50.4744 183.479 50.5901 183.449 50.5901C183.157 50.5901 183.071 50.5901 183.071 50.5901H166.616ZM172.609 42.1676C170.818 42.1676 169.363 42.6061 168.23 43.477C167.377 44.1347 166.738 44.9142 166.318 45.8156C166.117 46.2419 166.452 46.7351 166.927 46.7351H178.163C178.638 46.7351 178.948 46.248 178.772 45.8095C178.406 44.9142 177.803 44.1347 176.963 43.477C175.849 42.6 174.399 42.1676 172.609 42.1676Z" fill="#0F0C3D"/>
<path d="M185.002 50.5903C185.002 50.5903 184.916 50.5903 184.624 50.5903C184.594 50.5903 184.563 50.4746 184.533 50.2371C184.502 50.03 184.472 49.7926 184.435 49.5246C184.405 49.2567 184.386 48.9582 184.386 48.6355C184.386 47.1191 184.661 45.7244 185.209 44.4517C185.757 43.1727 186.524 42.0705 187.517 41.1326C188.503 40.1947 189.673 39.47 191.025 38.9524C192.377 38.4347 193.85 38.1729 195.452 38.1729C197.054 38.1729 198.552 38.4652 199.946 39.0559C201.341 39.6466 202.559 40.4383 203.594 41.4371C204.63 42.4359 205.452 43.6051 206.067 44.9511C206.682 46.2969 206.986 47.7403 206.986 49.2871C206.986 50.8889 206.676 52.3869 206.043 53.7754C205.415 55.164 204.563 56.3942 203.479 57.4537C202.395 58.5134 201.146 59.3478 199.739 59.9508C198.326 60.5536 196.822 60.8582 195.221 60.8582C193.619 60.8582 192.206 60.6145 190.982 60.1274C189.758 59.6401 188.723 59.098 187.876 58.5013C187.06 57.941 186.354 57.3198 185.745 56.6377C185.507 56.3758 185.513 55.9739 185.763 55.7243L187.054 54.4331L187.882 53.6049C188.15 53.337 188.589 53.3431 188.832 53.6293C189.228 54.08 189.66 54.5001 190.136 54.8838C190.702 55.3223 191.414 55.7243 192.279 56.0835C193.144 56.4429 194.124 56.6256 195.221 56.6256C196.165 56.6256 197.042 56.4551 197.858 56.1201C198.674 55.7852 199.386 55.3406 200.001 54.7924C200.616 54.2444 201.116 53.6049 201.506 52.8619C201.755 52.393 201.95 51.912 202.096 51.4247C202.218 51.0106 201.889 50.5903 201.457 50.5903H185.002ZM191.092 43.4773C190.251 44.135 189.648 44.9145 189.283 45.8097C189.1 46.2483 189.417 46.7354 189.892 46.7354H201.128C201.603 46.7354 201.938 46.242 201.737 45.8158C201.311 44.9145 200.677 44.135 199.825 43.4773C198.692 42.6064 197.236 42.1679 195.446 42.1679C193.656 42.1679 192.206 42.6003 191.092 43.4773Z" fill="#0F0C3D"/>
<path d="M210.891 30.2559H213.041C213.619 30.2559 214.082 30.7248 214.082 31.2973V35.2375V36.3578C214.082 36.9363 213.909 38.2033 215.918 38.2033H217.742C218.321 38.2033 218.783 38.6722 218.783 39.2447V41.3945C218.783 41.973 218.315 42.4359 217.742 42.4359H215.123C214.545 42.4359 214.082 42.9048 214.082 43.4773V53.8121C214.082 54.6341 214.35 55.3041 214.88 55.8217C215.416 56.3393 216.086 56.6013 216.902 56.6013C217.498 56.6013 218.034 56.5281 218.503 56.3759C218.753 56.315 219.003 56.2418 219.258 56.1506V56.6561V59.567C219.258 60.0664 218.911 60.4989 218.424 60.5901C218.388 60.5962 218.351 60.6023 218.321 60.6084C217.633 60.7667 216.847 60.846 215.964 60.846C213.832 60.846 212.2 60.2735 211.067 59.1224C209.935 57.9715 209.374 56.2481 209.374 53.946V43.4894C209.374 42.9109 208.905 42.4481 208.333 42.4481H206.183C205.605 42.4481 205.142 41.9791 205.142 41.4067V39.2569C205.142 38.6783 205.611 38.2155 206.183 38.2155H207.493C208.211 38.2155 208.79 37.9658 209.21 37.4725C209.636 36.9731 209.843 36.2302 209.843 35.2375V31.3033C209.849 30.7248 210.318 30.2559 210.891 30.2559Z" fill="#0F0C3D"/>
</g>
<defs>
<clipPath id="clip0_298_9778">
<rect width="139.259" height="40" fill="white" transform="translate(80 30)"/>
</clipPath>
</defs>
</svg>
