<svg width="300" height="100" viewBox="0 0 300 100" fill="none" xmlns="http://www.w3.org/2000/svg">
<rect width="300" height="100" fill="white"/>
<path fill-rule="evenodd" clip-rule="evenodd" d="M90.8976 63.9997C93.0746 64.8433 95.8364 65.2649 99.1834 65.2649C103.809 65.2649 107.347 64.4352 109.796 62.7752C112.272 61.0882 113.51 58.7752 113.51 55.8364C113.51 53.6324 113.048 51.9045 112.122 50.6528C111.224 49.401 109.809 48.4622 107.877 47.8364C105.972 47.1833 103.51 46.6936 100.49 46.367C98.6935 46.1493 97.2922 45.9452 96.2854 45.7548C95.3058 45.537 94.6255 45.2377 94.2446 44.8568C93.983 44.5952 93.8111 44.2564 93.7292 43.8408L86.3742 39.7856C85.6075 41.041 85.2242 42.5138 85.2242 44.2037C85.2242 46.1357 85.7004 47.7004 86.6527 48.8976C87.6051 50.0949 89.0474 51.0201 90.9792 51.6732C92.9112 52.3262 95.3466 52.8294 98.2854 53.1833C99.9724 53.374 101.306 53.578 102.285 53.7956C103.265 53.9862 103.959 54.2853 104.367 54.6936C104.803 55.0744 105.02 55.6732 105.02 56.4894C105.02 57.4964 104.558 58.2718 103.632 58.816C102.707 59.3601 101.333 59.6322 99.5099 59.6322C97.3875 59.6322 95.7956 59.2376 94.7344 58.4486C93.6731 57.6597 93.1154 56.6118 93.061 55.3058H84.4895C84.5167 57.2376 85.0474 58.9657 86.0814 60.4894C87.1426 61.9862 88.748 63.156 90.8976 63.9997ZM87.6876 38.1793C88.0508 37.8382 88.4542 37.5198 88.8976 37.2241C91.3739 35.5642 94.7616 34.7344 99.061 34.7344C102.952 34.7344 106.081 35.5234 108.449 37.1017C110.843 38.6528 112.176 40.884 112.449 43.7956H104.122C103.986 42.5438 103.428 41.6458 102.449 41.1017C101.496 40.5574 100.258 40.2853 98.7344 40.2853C97.129 40.2853 95.8772 40.5574 94.9792 41.1017C94.6536 41.295 94.389 41.515 94.1851 41.7616L87.6876 38.1793Z" fill="black"/>
<path d="M115.388 69.8787V41.0216H122.898L123.184 44.2052H123.429C124.082 43.1712 125.061 42.3278 126.368 41.6747C127.674 41.0216 129.347 40.6951 131.388 40.6951C133.538 40.6951 135.415 41.1576 137.021 42.0828C138.626 43.008 139.878 44.3278 140.776 46.042C141.674 47.7291 142.123 49.7427 142.123 52.0828C142.123 54.3959 141.674 56.4094 140.776 58.1236C139.878 59.8106 138.612 61.1306 136.98 62.0828C135.374 63.0082 133.483 63.4706 131.306 63.4706C129.619 63.4706 128.095 63.1575 126.735 62.5318C125.374 61.8787 124.34 60.9943 123.633 59.8787H123.347V69.8787H115.388ZM128.898 57.5114C130.476 57.5114 131.742 57.049 132.694 56.1236C133.674 55.1714 134.163 53.8244 134.163 52.0828C134.163 50.3142 133.674 48.9672 132.694 48.042C131.742 47.1168 130.476 46.6543 128.898 46.6543C127.156 46.6543 125.796 47.1304 124.816 48.0828C123.837 49.0352 123.347 50.2326 123.347 51.6747V52.4094C123.347 53.8787 123.837 55.1032 124.816 56.0828C125.796 57.0351 127.156 57.5114 128.898 57.5114ZM142.963 63.0624V33.3074H150.922V63.0624H142.963ZM152.681 38.491V33.3074H160.64V38.491H152.681ZM152.681 63.0624V41.0216H160.64V63.0624H152.681ZM174.603 63.4706C171.909 63.4706 169.582 62.9943 167.623 62.042C165.664 61.0898 164.154 59.7563 163.092 58.042C162.059 56.3004 161.541 54.2735 161.541 51.9604C161.541 49.5658 162.099 47.525 163.215 45.8379C164.33 44.1508 165.895 42.8583 167.909 41.9604C169.922 41.0624 172.276 40.6135 174.97 40.6135C177.473 40.6135 179.65 40.9808 181.501 41.7155C183.351 42.4502 184.807 43.4842 185.868 44.8175C186.929 46.1236 187.501 47.6475 187.582 49.389H179.705C179.514 48.5454 178.984 47.8787 178.113 47.389C177.269 46.8719 176.208 46.6135 174.929 46.6135C173.188 46.6135 171.841 47.1032 170.888 48.0828C169.936 49.0624 169.46 50.355 169.46 51.9604C169.46 53.7836 169.95 55.1575 170.929 56.0828C171.936 56.9808 173.269 57.4298 174.929 57.4298C176.099 57.4298 177.12 57.1983 177.99 56.7359C178.888 56.2462 179.473 55.5387 179.746 54.6135H187.664C187.555 56.4367 186.902 58.0147 185.705 59.3482C184.508 60.6816 182.943 61.702 181.011 62.4094C179.079 63.1167 176.943 63.4706 174.603 63.4706ZM201.071 63.4706C198.349 63.4706 195.981 63.0216 193.968 62.1236C191.954 61.2256 190.39 59.9331 189.274 58.246C188.186 56.5591 187.641 54.5318 187.641 52.1644C187.641 49.7155 188.199 47.6339 189.315 45.9196C190.431 44.2052 191.995 42.8991 194.009 42.0012C196.023 41.076 198.349 40.6135 200.988 40.6135C203.845 40.6135 206.268 41.1304 208.253 42.1644C210.268 43.1984 211.764 44.6951 212.744 46.6543C213.751 48.6135 214.145 50.9808 213.927 53.7563H195.56C195.615 55.144 196.145 56.2326 197.152 57.0216C198.159 57.7836 199.533 58.1644 201.275 58.1644C202.58 58.1644 203.709 57.9604 204.661 57.5522C205.615 57.144 206.227 56.6 206.499 55.9196H213.968C213.777 57.4163 213.097 58.7359 211.927 59.8787C210.784 61.0216 209.275 61.9062 207.396 62.5318C205.519 63.1575 203.411 63.4706 201.071 63.4706ZM200.948 45.9196C199.451 45.9196 198.227 46.2326 197.275 46.8583C196.321 47.457 195.723 48.355 195.479 49.5522H206.091C205.955 48.4638 205.465 47.5931 204.621 46.94C203.777 46.2596 202.553 45.9196 200.948 45.9196Z" fill="black"/>
<path d="M160.817 33.0625H152.654V38.7768H160.817V33.0625Z" fill="#E4B91F"/>
</svg>
