<svg width="300" height="100" viewBox="0 0 300 100" fill="none" xmlns="http://www.w3.org/2000/svg">
<rect width="300" height="100" fill="white"/>
<g clip-path="url(#clip0_298_9755)">
<path d="M176.952 61.658V23.458H123.435V64.1272H123.51C123.865 70.8325 126.687 77.0799 131.508 81.8021C132.904 83.1673 134.422 84.3644 136.043 85.3783L136.783 83.8289C135.326 82.9009 133.958 81.8155 132.698 80.5809C127.999 75.9775 125.328 69.8258 125.185 63.2574L125.164 62.4214H125.14V25.1648H175.245V61.7089C175.258 62.0335 175.266 62.3606 175.266 62.6879C175.266 71.4574 170.735 79.1889 163.889 83.6626L164.629 85.2155C172.047 80.4557 176.971 72.1369 176.971 62.6887C176.971 62.3437 176.965 61.9986 176.952 61.658Z" fill="#181F39"/>
<path d="M126.935 14.0327L125.815 13.8083C125.317 13.7144 124.955 13.2424 124.955 12.6872C124.955 12.0381 125.476 11.5107 126.117 11.5107H126.453C127.158 11.5107 127.771 12.0077 127.91 12.6926L127.915 12.714H129.452L129.448 12.6836C129.275 11.1539 127.987 9.99976 126.453 9.99976H126.117C124.636 9.99976 123.43 11.2049 123.43 12.6872C123.43 13.9916 124.351 15.1037 125.622 15.3317L126.741 15.5275C127.43 15.6518 127.951 16.2839 127.951 16.9982C127.951 17.8466 127.293 18.5109 126.452 18.5109C125.753 18.5109 125.134 18.0138 124.981 17.3281L124.976 17.3066H123.44L123.444 17.337C123.617 18.8676 124.911 20.0209 126.452 20.0209C128.112 20.0209 129.462 18.6647 129.462 16.9982C129.462 15.5472 128.424 14.3277 126.935 14.0327Z" fill="#181F39"/>
<path d="M133.902 10.0007H130.809V20.0219H132.333V15.7663H133.972C135.561 15.7663 136.855 14.4726 136.855 12.8831C136.855 11.2935 135.53 10.0007 133.902 10.0007ZM135.331 12.884C135.331 13.6278 134.676 14.2563 133.902 14.2563H132.334V11.5107H133.973C134.721 11.5107 135.331 12.1267 135.331 12.884Z" fill="#181F39"/>
<path d="M140.987 10.0007C139.328 10.0007 137.978 11.357 137.978 13.0234V16.9992C137.978 18.6665 139.328 20.0219 140.987 20.0219C142.653 20.0219 144.01 18.6656 144.01 16.9992V13.0234C144.011 11.357 142.654 10.0007 140.987 10.0007ZM142.5 16.9992C142.5 17.8333 141.821 18.5118 140.987 18.5118C140.161 18.5118 139.489 17.8333 139.489 16.9992V13.0234C139.489 12.1893 140.161 11.5107 140.987 11.5107C141.821 11.5107 142.5 12.1893 142.5 13.0234V16.9992Z" fill="#181F39"/>
<path d="M151.598 12.884C151.598 11.2944 150.273 10.0007 148.645 10.0007H145.552V20.0219H147.076V16.2294C147.076 15.9782 147.288 15.7663 147.538 15.7663C147.722 15.7663 147.876 15.8995 147.949 16.0318L150.085 20.0219H151.616L149.316 15.7019C150.641 15.4149 151.598 14.2348 151.598 12.884ZM150.074 12.884C150.074 13.6278 149.419 14.2563 148.645 14.2563H147.077V11.5107H148.716C149.464 11.5107 150.074 12.1267 150.074 12.884Z" fill="#181F39"/>
<path d="M152.469 11.5107H154.723V20.0219H156.233V11.5107H158.501V10.0007H152.469V11.5107Z" fill="#181F39"/>
<path d="M161.483 10.0007H159.973V20.0219H161.483V10.0007Z" fill="#181F39"/>
<path d="M167.911 14.9411C167.911 15.1539 167.751 15.3202 167.546 15.3202C167.403 15.3202 167.273 15.2424 167.221 15.1262L164.911 10.0168L164.903 10.0007H163.389V20.0219H164.913V15.0815C164.913 14.8687 165.073 14.7024 165.278 14.7024C165.421 14.7024 165.552 14.7802 165.604 14.8964L167.914 20.0058L167.921 20.0219H169.435V10.0007H167.911V14.9411Z" fill="#181F39"/>
<path d="M176.954 13.0505V13.0237C176.954 11.3572 175.598 10.001 173.932 10.001C172.272 10.001 170.922 11.3572 170.922 13.0237V16.9994C170.922 18.6668 172.272 20.0221 173.932 20.0221C175.598 20.0221 176.954 18.6659 176.954 16.9994V14.2565H173.905V15.7665H175.444V16.9994C175.444 17.8335 174.766 18.5121 173.932 18.5121C173.106 18.5121 172.433 17.8335 172.433 16.9994V13.0237C172.433 12.1895 173.106 11.511 173.932 11.511C174.766 11.511 175.444 12.1895 175.444 13.0237V13.0505H176.954Z" fill="#181F39"/>
<path d="M169.562 69.5425C168.741 71.4548 167.643 73.2214 166.32 74.7914L158.633 70.3534V80.5373C156.711 81.3767 154.639 81.9373 152.468 82.1679V68.0987C152.468 67.294 152.035 66.544 151.338 66.1407C150.638 65.7366 149.772 65.7366 149.075 66.1398C148.378 66.5421 147.944 67.2922 147.944 68.0969V82.1652C145.773 81.9319 143.7 81.3677 141.777 80.5247V70.3525L134.108 74.7806C132.786 73.2098 131.691 71.4423 130.87 69.5291L140.646 63.8851C141.344 63.4828 141.777 62.7318 141.777 61.9263C141.777 61.1216 141.344 60.3707 140.646 59.9684C139.947 59.5643 139.081 59.5643 138.384 59.9675L129.526 65.0821C129.324 63.9888 129.207 62.8659 129.181 61.7197H129.147V58.1803L133.348 55.7548L129.147 53.3294V46.2085L139.527 52.2011L158.621 63.2253L169.562 69.5425Z" fill="#181F39"/>
<path d="M171.245 60.42V58.1697L167.062 55.755L171.245 53.3403V46.2184L162.026 51.5414C161.328 51.9437 160.462 51.9437 159.764 51.5414C159.067 51.1382 158.633 50.3881 158.633 49.5827C158.633 48.7771 159.067 48.0261 159.764 47.6238L171.245 40.9955V33.8746L158.633 41.1564V29.2222H152.467V43.4111C152.467 44.2158 152.035 44.9659 151.335 45.37C150.638 45.7723 149.772 45.7723 149.074 45.37C148.377 44.9677 147.943 44.2167 147.943 43.412V29.2222H141.777V41.1564L129.147 33.8638V40.9848L141.79 48.2845L158.596 57.9874L170.91 65.0975C171.142 63.8477 171.263 62.5594 171.263 61.2425C171.263 60.9672 171.256 60.6926 171.245 60.42Z" fill="#181F39"/>
<path d="M141.758 83.1693L140.817 82.8679L139.161 88.039L142.349 89.06L142.651 88.1186L140.404 87.3988L141.758 83.1693Z" fill="#181F39"/>
<path d="M146.697 84.3337L145.764 84.1924L143.725 89.3723L144.706 89.5243L144.851 89.1516C144.868 89.1032 144.935 89.0684 144.993 89.0791L145.968 89.2311C146.033 89.2419 146.072 89.2937 146.075 89.342L146.099 89.7389L147.091 89.8909L146.697 84.3337ZM145.982 88.0966C145.979 88.1279 145.962 88.1592 145.93 88.1761C145.903 88.1967 145.871 88.2075 145.837 88.2003L145.426 88.1378C145.391 88.1305 145.361 88.1137 145.336 88.0858C145.319 88.0582 145.308 88.0232 145.312 87.9929C145.315 87.9759 145.315 87.9759 145.322 87.9617L145.661 87.1078C145.682 87.056 145.734 87.0211 145.789 87.0211H145.806C145.865 87.0319 145.913 87.0872 145.917 87.149L145.982 88.0608L145.986 88.0716C145.985 88.0761 145.985 88.0796 145.982 88.0966Z" fill="#181F39"/>
<path d="M151.989 88.2959C152.002 89.2186 151.263 89.9857 150.337 89.9999H150.309C149.874 89.9999 149.466 89.8337 149.151 89.5261C148.827 89.215 148.647 88.7966 148.64 88.3478L148.605 86.2746C148.598 85.8285 148.768 85.4037 149.079 85.0819C149.39 84.7574 149.805 84.5777 150.25 84.5706H150.278C151.159 84.5706 151.884 85.2508 151.947 86.1226L150.952 86.1261C150.928 85.984 150.859 85.8561 150.755 85.7533C150.624 85.6254 150.451 85.5566 150.264 85.5601C149.888 85.5674 149.587 85.8812 149.594 86.2584L149.629 88.3353C149.632 88.5185 149.705 88.6911 149.836 88.8189C149.967 88.9468 150.136 89.0156 150.32 89.0121C150.507 89.0084 150.679 88.936 150.807 88.8046C150.935 88.6696 151.004 88.497 151 88.3102L150.989 87.9821L150.291 87.9956L150.278 87.0076L151.96 86.9764L151.989 88.2959Z" fill="#181F39"/>
<path d="M156.674 87.6887L156.349 85.6396C156.205 84.7277 155.344 84.1018 154.432 84.2467C153.522 84.3888 152.901 85.2488 153.042 86.1644L153.367 88.2134C153.436 88.656 153.674 89.0431 154.037 89.306C154.328 89.5205 154.67 89.6304 155.019 89.6304C155.106 89.6304 155.192 89.6233 155.282 89.61C156.194 89.4651 156.819 88.6041 156.674 87.6887ZM155.126 88.6318C154.755 88.6909 154.403 88.4351 154.345 88.0579L154.02 86.0088C153.992 85.8255 154.033 85.6458 154.14 85.4938C154.248 85.349 154.407 85.2488 154.586 85.2212C154.621 85.2176 154.659 85.214 154.694 85.214C155.025 85.214 155.319 85.4563 155.375 85.7942L155.699 87.8434C155.758 88.2206 155.499 88.5729 155.126 88.6318Z" fill="#181F39"/>
<path d="M161.165 86.3418C160.916 85.5747 160.159 85.1098 159.325 85.2081L158.731 85.2778C158.517 85.3056 158.306 85.158 158.231 84.9283C158.188 84.796 158.198 84.6565 158.26 84.5349C158.321 84.4142 158.425 84.3248 158.554 84.2827L158.721 84.2283C159.026 84.1291 159.361 84.2577 159.517 84.534L159.563 84.6153L160.509 84.3079L160.456 84.1916C160.102 83.4138 159.226 83.0259 158.415 83.2877L158.249 83.3423C157.462 83.5979 157.028 84.4473 157.284 85.235C157.509 85.9287 158.192 86.3605 158.907 86.2622L159.495 86.179C159.81 86.1361 160.123 86.3363 160.223 86.6466C160.28 86.8236 160.267 87.0105 160.186 87.1723C160.104 87.3351 159.962 87.4557 159.787 87.513C159.485 87.6113 159.146 87.4825 158.983 87.2072L158.937 87.1285L157.992 87.4351L158.044 87.5513C158.323 88.1647 158.93 88.5348 159.572 88.5348C159.745 88.5348 159.92 88.508 160.093 88.4516C160.516 88.314 160.86 88.0189 161.063 87.6193C161.267 87.2214 161.302 86.7673 161.165 86.3418Z" fill="#181F39"/>
</g>
<defs>
<clipPath id="clip0_298_9755">
<rect width="54.6032" height="80" fill="white" transform="translate(123 10)"/>
</clipPath>
</defs>
</svg>
