<svg width="300" height="100" viewBox="0 0 300 100" fill="none" xmlns="http://www.w3.org/2000/svg">
<rect width="300" height="100" fill="white"/>
<g clip-path="url(#clip0_298_9731)">
<path fill-rule="evenodd" clip-rule="evenodd" d="M251.866 51.3099C254.435 52.5071 257.086 53.1034 259.33 52.9863C259.343 52.9863 259.357 52.9839 259.37 52.9839L259.529 37.0509C259.537 36.4879 258.905 36.149 258.44 36.4638L245.038 45.5052C246.123 47.5722 248.632 49.8012 251.866 51.3099Z" fill="#00C6FB"/>
<path fill-rule="evenodd" clip-rule="evenodd" d="M258.771 54.5146C256.433 54.5146 253.781 53.8724 251.226 52.682C247.701 51.039 245.05 48.6938 243.775 46.3557L236.963 50.9539C236.429 51.3136 236.623 52.1409 237.257 52.2259L248.7 53.7828C249.373 53.8758 249.991 54.2079 250.438 54.7181L258.041 63.4113C258.465 63.895 259.259 63.6008 259.267 62.9574L259.351 54.4997C259.159 54.5112 258.965 54.5158 258.769 54.5158L258.771 54.5146Z" fill="#00C6FB"/>
<path fill-rule="evenodd" clip-rule="evenodd" d="M258.771 53.3075C256.433 53.3075 253.781 52.6663 251.226 51.4749C245.215 48.6724 241.739 43.8329 243.315 40.4549C244.889 37.0792 250.833 36.6288 256.843 39.4335C258.809 40.3504 260.593 41.5396 261.997 42.8724C262.299 43.1596 262.313 43.641 262.027 43.9432C261.738 44.2466 261.259 44.2604 260.956 43.9731C259.669 42.7506 258.025 41.6568 256.204 40.8077C251.137 38.4442 245.862 38.5775 244.686 41.0972C243.511 43.6169 246.799 47.7406 251.866 50.1041C254.435 51.3025 257.085 51.8977 259.33 51.7805C261.401 51.6724 262.839 50.9739 263.381 49.8145C263.944 48.6059 263.399 47.2271 262.843 46.2803C262.631 45.9184 262.75 45.4553 263.112 45.2428C263.474 45.0302 263.937 45.1508 264.15 45.5116C265.197 47.2902 265.413 49.0459 264.755 50.4534C263.966 52.1436 262.069 53.1513 259.411 53.2914C259.198 53.3028 258.986 53.3075 258.771 53.3075Z" fill="#00C6FB"/>
<path d="M44.7874 37.3055C42.5803 35.3947 39.9904 34.5881 36.7641 34.5881C32.2221 34.5881 27.7216 36.5839 27.7216 41.3384C27.7216 46.2629 32.6036 47.8762 36.509 48.0462C39.3539 48.1312 40.0754 48.9378 40.0754 49.9145C40.118 51.0186 38.7162 51.7402 36.9341 51.6977C34.7269 51.6552 32.2221 51.1887 29.6323 49.0654L27 53.3958C30.5665 56.3672 33.7503 56.9624 36.8491 56.9624C43.5143 56.9624 46.0617 53.3108 46.0192 49.9156C45.9766 44.1419 41.0096 43.2928 36.8916 43.1664C34.8533 43.1239 33.7928 42.4874 33.7928 41.3407C33.7928 40.3216 34.8119 39.6 36.8066 39.6C38.7173 39.6 40.203 40.0251 41.7737 41.1282L44.7886 37.3066L44.7874 37.3055Z" fill="#000A4A"/>
<path d="M59.7738 51.1019C56.6324 51.1019 54.6366 48.8522 54.6366 45.7097C54.6366 42.6959 56.5049 40.3187 59.7738 40.3187C62.5336 40.3187 65.4199 41.7193 65.4199 45.7097C65.4199 49.2336 62.5761 51.1019 59.7738 51.1019ZM71.66 65.4091V35.2252H66.1839L65.8013 37.9001C63.848 35.3953 61.4707 34.8438 58.8396 34.8438C52.6845 34.8438 48.4815 39.1743 48.4815 45.712C48.4815 52.5049 52.7695 56.6227 58.9246 56.6227C61.1319 56.6227 63.7216 55.8587 65.5049 53.6515V65.4113H71.66V65.4091Z" fill="#000A4A"/>
<path d="M76.542 35.1829V46.305C76.542 54.4559 80.575 56.5781 85.2868 56.5781C87.8342 56.6206 90.2114 55.899 92.0797 53.3943L92.2923 56.1542H97.812V35.1829H91.7833V46.0086C91.7833 48.7259 89.8724 51.1882 87.0287 51.1458C84.1 51.1458 82.6983 49.4901 82.6983 46.2637V35.184H76.5432L76.542 35.1829Z" fill="#000A4A"/>
<path d="M118.995 37.6031C117.891 35.7349 115.428 34.7169 112.797 34.7169C106.599 34.6319 101.801 38.7073 101.801 45.6701C101.801 52.5894 106.344 56.6648 112.627 56.6222C114.665 56.5798 117.679 55.7307 119.08 53.5235L119.42 56.1558H124.938C124.938 49.1941 124.938 42.1462 124.938 35.1845H119.207L118.995 37.6043V37.6031ZM113.434 40.1079C117.085 40.1079 118.995 42.8678 118.995 45.8816C118.995 48.5139 116.873 51.1888 113.434 51.1888C110.377 51.1888 107.915 49.1505 107.915 45.6701C107.915 42.1887 110.377 40.1079 113.434 40.1079Z" fill="#000A4A"/>
<path d="M130.118 35.2257V56.1545H136.231V45.2437C136.231 42.1024 138.481 40.4042 141.113 40.4042C142.387 40.4042 143.447 40.7443 144.467 41.4659L147.014 36.6263C145.528 35.3108 143.873 34.7156 141.878 34.7156C139.543 34.7156 137.675 35.5647 136.275 37.518L135.806 35.2257H130.118Z" fill="#000A4A"/>
<path d="M169.259 47.6636C170.575 39.0887 165.906 34.6306 158.774 34.6306C151.94 34.6306 147.652 39.0887 147.652 45.4563C147.652 52.1642 151.812 56.621 159.412 56.621C162.553 56.621 166.162 55.7294 168.411 53.5222L164.972 49.7019C163.486 50.9761 161.193 51.3575 159.538 51.3575C156.099 51.3575 154.147 49.7019 153.849 47.6636H169.259ZM153.849 43.2055C154.443 41.1258 156.311 39.8516 158.774 39.8516C161.321 39.8516 163.656 40.9133 163.783 43.2055H153.849Z" fill="#000A4A"/>
<path d="M192.863 56.1548V44.9051C192.863 42.5278 194.306 40.447 196.726 40.447C199.188 40.447 199.91 42.1877 199.91 44.8201V56.1548H206.065V44.6925C206.065 36.8817 202.074 34.6733 197.702 34.6733C194.602 34.6733 192.607 35.7775 190.74 38.6213C189.382 35.5649 186.919 34.7159 184.627 34.7159C182.844 34.7159 180.424 35.2674 179.109 37.5607L178.684 35.1835H173.335V56.1548H179.447V44.9475C179.447 42.5703 180.806 40.3206 183.225 40.3206C185.73 40.3206 186.835 42.1463 186.835 44.9051V56.1548H192.863Z" fill="#000A4A"/>
<path d="M231.367 47.6636C232.682 39.0887 228.012 34.6306 220.881 34.6306C214.046 34.6306 209.758 39.0887 209.758 45.4563C209.758 52.1642 213.919 56.621 221.518 56.621C224.66 56.621 228.269 55.7294 230.519 53.5222L227.08 49.7019C225.594 50.9761 223.301 51.3575 221.645 51.3575C218.206 51.3575 216.254 49.7019 215.957 47.6636H231.367ZM215.957 43.2055C216.551 41.1258 218.419 39.8516 220.881 39.8516C223.429 39.8516 225.763 40.9133 225.891 43.2055H215.957Z" fill="#000A4A"/>
<path d="M268.15 34.7417V35.6011H266.706V39.5766H265.686V35.6011H264.235V34.7417H268.15Z" fill="#000A4A"/>
<path d="M271.943 34.7417H273.4V39.5766H272.453V36.3066C272.453 36.2124 272.453 36.078 272.46 35.9102C272.46 35.7425 272.46 35.6149 272.46 35.5207L271.546 39.5766H270.567L269.66 35.5207C269.66 35.6149 269.66 35.7425 269.66 35.9102C269.667 36.078 269.667 36.2124 269.667 36.3066V39.5766H268.726V34.7417H270.189L271.069 38.5425L271.943 34.7417Z" fill="#000A4A"/>
</g>
<defs>
<clipPath id="clip0_298_9731">
<rect width="246.4" height="32" fill="white" transform="translate(27 34)"/>
</clipPath>
</defs>
</svg>
