<svg width="300" height="100" viewBox="0 0 300 100" fill="none" xmlns="http://www.w3.org/2000/svg">
<rect width="300" height="100" fill="white"/>
<g clip-path="url(#clip0_298_9724)">
<path d="M132.173 20H121.67C120.748 20 120 20.7476 120 21.6698V32.1731C120 33.0953 120.748 33.8429 121.67 33.8429H132.173C133.095 33.8429 133.843 33.0953 133.843 32.1731V21.6698C133.843 20.7476 133.095 20 132.173 20Z" fill="#092357"/>
<path fill-rule="evenodd" clip-rule="evenodd" d="M173.071 20C176.898 20 180 23.1024 180 26.9295C180 29.4986 178.602 31.7411 176.525 32.9378L176.525 43.9878C178.633 45.1763 180.056 47.4359 180.056 50.0278C180.056 53.8549 176.953 56.9573 173.126 56.9573C169.299 56.9573 166.197 53.8549 166.197 50.0278C166.197 47.487 167.564 45.2656 169.603 44.0594L169.603 32.9306C168.544 32.3167 167.665 31.4343 167.055 30.3724H156.043C154.848 32.4557 152.602 33.859 150.028 33.859C146.201 33.859 143.098 30.7566 143.098 26.9295C143.098 23.1024 146.201 20 150.028 20C152.587 20 154.822 21.3873 156.022 23.4508H167.076C168.276 21.3873 170.511 20 173.071 20Z" fill="#687FCA"/>
<path d="M155.244 43.0713H121.67C120.748 43.0713 120 43.8189 120 44.741V55.2444C120 56.1666 120.748 56.9141 121.67 56.9141H155.244C156.167 56.9141 156.914 56.1666 156.914 55.2444V44.741C156.914 43.8189 156.167 43.0713 155.244 43.0713Z" fill="#092357"/>
<path d="M178.316 66.1428H121.67C120.748 66.1428 120 66.8904 120 67.8126V78.3159C120 79.2381 120.748 79.9857 121.67 79.9857H178.316C179.238 79.9857 179.986 79.2381 179.986 78.3159V67.8126C179.986 66.8904 179.238 66.1428 178.316 66.1428Z" fill="#092357"/>
</g>
<defs>
<clipPath id="clip0_298_9724">
<rect width="60.1113" height="60" fill="white" transform="translate(120 20)"/>
</clipPath>
</defs>
</svg>
