<svg width="300" height="100" viewBox="0 0 300 100" fill="none" xmlns="http://www.w3.org/2000/svg">
<rect width="300" height="100" fill="white"/>
<path d="M159.335 43.24C159.357 48.2755 155.27 52.5655 150.008 52.5723C144.875 52.5784 140.661 48.4399 140.665 43.2304C140.669 37.9528 144.967 33.8859 150.017 33.8967C155.188 33.9075 159.36 38.1287 159.335 43.24ZM150.369 39.5531C150.352 41.0595 151.615 42.2803 153.095 42.28C154.51 42.28 155.819 41.1375 155.822 39.5491C155.826 37.9459 154.516 36.8115 153.109 36.8087C151.654 36.8059 150.352 38.018 150.369 39.5531Z" fill="#DB353A"/>
<path d="M168.084 61.5131C168.053 61.5027 168.044 61.5095 168.034 61.5255C167.805 61.9143 167.446 62.1255 167.02 62.2087C166.268 62.3579 165.567 62.2135 164.948 61.7527C164.438 61.3727 164.151 60.8483 164.068 60.2235C163.976 59.5916 164.075 58.9465 164.353 58.3715C164.758 57.5315 165.43 57.0255 166.336 56.8295C166.703 56.745 167.082 56.7261 167.456 56.7735C168.388 56.9011 169.023 57.4051 169.367 58.2751C169.488 58.5694 169.55 58.8842 169.551 59.2023C169.544 60.1387 169.584 61.0739 169.601 62.0099C169.608 62.3793 169.545 62.7469 169.415 63.0927C169.115 63.8863 168.563 64.4271 167.759 64.6951C167.112 64.9135 166.414 64.9316 165.756 64.7471C165.513 64.6834 165.284 64.5762 165.079 64.4307C164.733 64.1819 164.538 63.8559 164.559 63.4171C164.566 63.2627 164.559 63.1075 164.561 62.9527C164.561 62.9223 164.568 62.8903 164.599 62.8803C164.613 62.8771 164.629 62.8782 164.643 62.8834C164.657 62.8885 164.669 62.8976 164.679 62.9095C164.819 63.0412 164.979 63.1493 165.154 63.2295C165.394 63.3413 165.649 63.4197 165.911 63.4627C166.178 63.5075 166.45 63.5225 166.72 63.5075C166.941 63.5003 167.16 63.4551 167.366 63.3739C167.76 63.2139 167.995 62.9207 168.077 62.5083C168.121 62.2979 168.132 62.0819 168.108 61.8683C168.096 61.7495 168.092 61.6275 168.084 61.5131ZM168.056 59.5131C168.056 59.1507 168.016 58.9251 167.916 58.7043C167.719 58.2615 167.342 58.0571 166.87 58.0811C166.399 58.1051 166.03 58.3395 165.8 58.7567C165.673 58.9779 165.597 59.2247 165.578 59.479C165.558 59.7332 165.596 59.9887 165.687 60.2267C165.878 60.7467 166.367 61.1099 167.07 60.9635C167.51 60.8715 167.79 60.5851 167.947 60.1727C168.024 59.9619 168.061 59.7386 168.056 59.5143V59.5131Z" fill="#686767"/>
<path d="M135.55 57.2127C135.494 57.2079 135.47 57.1667 135.439 57.1375C135.033 56.7631 134.546 56.5775 134.006 56.5111C133.684 56.4716 133.358 56.4722 133.036 56.5131C132.815 56.534 132.6 56.5937 132.4 56.6895C132.072 56.8575 131.913 57.1239 131.924 57.4943C131.925 57.5793 131.945 57.6631 131.981 57.7399C132.018 57.8166 132.07 57.8846 132.136 57.9391C132.237 58.0246 132.351 58.0942 132.474 58.1455C132.752 58.2631 133.041 58.355 133.336 58.4203C133.586 58.4803 133.839 58.5323 134.087 58.6007C134.423 58.6896 134.74 58.8387 135.023 59.0407C135.429 59.3359 135.703 59.7251 135.763 60.2259C135.898 61.3339 135.456 62.3975 134.238 62.8431C133.689 63.0431 133.118 63.0911 132.538 63.0455C132.251 63.0293 131.967 62.9783 131.692 62.8935C131.503 62.8344 131.322 62.749 131.156 62.6399C130.774 62.3807 130.576 62.0211 130.566 61.5599C130.562 61.3535 130.566 61.1471 130.566 60.9407C130.566 60.8947 130.604 60.8751 130.64 60.9007C130.687 60.9359 130.731 60.9751 130.778 61.0111C131.482 61.5583 132.279 61.7711 133.163 61.6679C133.354 61.6505 133.542 61.6056 133.72 61.5347C133.917 61.4515 134.078 61.3267 134.168 61.1283C134.276 60.8883 134.278 60.6415 134.218 60.3927C134.188 60.2671 134.098 60.1747 133.997 60.0975C133.883 60.0157 133.758 59.9504 133.626 59.9035C133.287 59.7807 132.939 59.6836 132.586 59.6131C132.318 59.5598 132.055 59.4868 131.799 59.3947C131.514 59.2927 131.248 59.1428 131.014 58.9515C130.554 58.5651 130.36 58.0643 130.407 57.4799C130.493 56.4515 131.064 55.7731 131.99 55.3711C132.316 55.2312 132.665 55.1537 133.02 55.1427C133.448 55.1263 133.875 55.1339 134.294 55.2359C134.525 55.2874 134.746 55.3742 134.95 55.4931C135.163 55.6141 135.337 55.7932 135.452 56.0095C135.517 56.1257 135.556 56.2552 135.564 56.3883C135.571 56.6459 135.573 56.9039 135.575 57.1619C135.575 57.1779 135.56 57.1963 135.55 57.2127Z" fill="#686767"/>
<path d="M143.192 60.5493C142.92 60.5493 142.647 60.5493 142.374 60.5493C142.291 60.5493 142.269 60.5781 142.287 60.6585C142.33 60.8611 142.423 61.05 142.556 61.2085C142.799 61.4969 143.114 61.6593 143.476 61.7405C143.776 61.8077 144.076 61.7961 144.379 61.7709C144.607 61.7525 144.832 61.7083 145.05 61.6389C145.311 61.5581 145.554 61.427 145.764 61.2529C145.81 61.2129 145.855 61.2345 145.855 61.2909C145.855 61.5045 145.868 61.7177 145.833 61.9309C145.811 62.0808 145.758 62.2244 145.677 62.3527C145.596 62.4809 145.49 62.5909 145.364 62.6757C145.15 62.8212 144.907 62.9195 144.652 62.9641C144.202 63.0521 143.75 63.0893 143.29 63.0289C142.191 62.8853 141.149 62.0925 140.823 60.8773C140.722 60.4995 140.687 60.107 140.721 59.7173C140.743 59.3716 140.809 59.0301 140.917 58.7009C141.136 58.0681 141.506 57.5493 142.077 57.1869C142.458 56.9469 142.875 56.8185 143.322 56.7681C143.785 56.7092 144.254 56.7762 144.682 56.9621C145.396 57.2773 145.854 57.8137 146.022 58.5817C146.086 58.8478 146.095 59.124 146.049 59.3937C145.99 59.7137 145.833 59.9689 145.558 60.1481C145.357 60.2726 145.136 60.361 144.905 60.4093C144.552 60.4883 144.193 60.5323 143.832 60.5405C143.618 60.5469 143.404 60.5405 143.192 60.5405L143.192 60.5493ZM143.013 59.4861C143.312 59.4829 143.635 59.4861 143.957 59.4401C144.11 59.4224 144.26 59.384 144.404 59.3261C144.483 59.2954 144.552 59.2407 144.599 59.1694C144.647 59.0982 144.671 59.014 144.668 58.9285C144.673 58.5865 144.537 58.2853 144.188 58.1285C143.876 57.9883 143.526 57.96 143.196 58.0485C142.798 58.1517 142.537 58.4197 142.376 58.7901C142.298 58.9681 142.275 59.1581 142.258 59.3501C142.248 59.4657 142.26 59.4825 142.371 59.4837C142.576 59.4877 142.782 59.4861 143.013 59.4861Z" fill="#686767"/>
<path d="M163.11 60.9392C163.11 61.4992 163.11 62.0592 163.11 62.6192C163.11 62.6636 163.11 62.708 163.11 62.752C163.107 62.9188 163.104 62.9224 162.934 62.924C162.757 62.924 162.58 62.9304 162.406 62.8892C162.025 62.7992 161.757 62.5852 161.643 62.2008C161.609 62.086 161.614 61.9672 161.614 61.8492C161.614 61.1044 161.614 60.3597 161.614 59.6152C161.616 59.3863 161.591 59.158 161.539 58.9352C161.51 58.8132 161.463 58.6961 161.401 58.5872C161.292 58.3918 161.116 58.2425 160.905 58.1668C160.648 58.0683 160.367 58.0519 160.1 58.12C159.869 58.1773 159.668 58.3203 159.538 58.52C159.423 58.6925 159.35 58.8893 159.324 59.0948C159.301 59.2554 159.29 59.4174 159.29 59.5796C159.292 60.6121 159.292 61.6444 159.29 62.6764C159.29 62.9468 159.308 62.924 159.036 62.924C158.889 62.9296 158.742 62.9199 158.596 62.8952C158.141 62.8024 157.854 62.4952 157.806 62.0368C157.798 61.9561 157.794 61.8751 157.794 61.794C157.794 61.0047 157.794 60.2157 157.794 59.4272C157.794 59.1072 157.824 58.7936 157.924 58.4892C158.184 57.7008 158.701 57.1616 159.493 56.9044C160.089 56.7112 160.693 56.6836 161.3 56.858C162.254 57.1328 162.82 57.772 163.039 58.7312C163.09 58.9775 163.114 59.2285 163.11 59.48C163.112 59.9656 163.11 60.4524 163.11 60.9392Z" fill="#676767"/>
<path d="M136.797 58.9439C136.797 58.3315 136.797 57.7195 136.797 57.1075C136.794 56.9896 136.801 56.8717 136.816 56.7547C136.892 56.2631 137.183 55.9123 137.576 55.6371C137.769 55.5027 137.993 55.5055 138.216 55.5235C138.235 55.5247 138.252 55.5331 138.265 55.5472C138.277 55.5612 138.284 55.5796 138.283 55.5983C138.286 55.6499 138.286 55.7015 138.286 55.7531C138.286 56.0479 138.286 56.3431 138.286 56.6379C138.286 56.6895 138.286 56.7411 138.286 56.7927C138.284 56.8038 138.285 56.815 138.289 56.8257C138.292 56.8363 138.298 56.846 138.306 56.8541C138.313 56.8622 138.323 56.8685 138.333 56.8726C138.343 56.8766 138.355 56.8783 138.366 56.8775C138.425 56.8775 138.484 56.8799 138.542 56.8799H140.091C140.136 56.8799 140.18 56.8799 140.224 56.8799C140.368 56.8831 140.371 56.8855 140.373 57.0315C140.373 57.1571 140.373 57.2823 140.373 57.4075C140.37 57.8339 140.112 58.1343 139.69 58.1955C139.58 58.2097 139.47 58.2165 139.359 58.2159C139.086 58.2187 138.814 58.2159 138.541 58.2159C138.489 58.2159 138.438 58.2159 138.386 58.2159C138.314 58.2199 138.291 58.2411 138.287 58.3063C138.284 58.3503 138.284 58.3947 138.284 58.4391C138.284 59.1394 138.284 59.8399 138.284 60.5407C138.279 60.7104 138.297 60.88 138.338 61.0447C138.441 61.4047 138.662 61.6047 139.048 61.6399C139.462 61.6751 139.874 61.6535 140.261 61.4711C140.343 61.4311 140.371 61.4499 140.372 61.5359C140.372 61.6959 140.378 61.8607 140.372 62.0223C140.353 62.4119 140.166 62.6895 139.807 62.8499C139.673 62.9111 139.529 62.9497 139.382 62.9643C138.968 63.0043 138.557 62.9883 138.156 62.8659C137.486 62.6623 137.066 62.2167 136.887 61.5423C136.824 61.2994 136.793 61.0493 136.794 60.7983C136.794 60.1791 136.794 59.5598 136.794 58.9403L136.797 58.9439Z" fill="#686868"/>
<path d="M151.044 58.1732C151.044 57.1412 151.044 56.1095 151.044 55.078C151.044 54.866 151.038 54.8744 151.251 54.8752C151.362 54.8752 151.472 54.8752 151.582 54.8776C151.708 54.881 151.832 54.9056 151.949 54.9504C152.251 55.0592 152.432 55.2756 152.509 55.584C152.538 55.7136 152.55 55.8462 152.547 55.9788C152.547 57.5852 152.547 59.1916 152.547 60.798C152.547 60.9012 152.547 61.0048 152.554 61.1072C152.579 61.4176 152.74 61.6116 153.038 61.6912C153.166 61.7257 153.299 61.7429 153.431 61.7424C153.579 61.7424 153.726 61.7424 153.874 61.7448C153.923 61.7448 153.961 61.764 153.963 61.8192C153.968 62.0192 153.977 62.2192 153.923 62.412C153.896 62.5237 153.841 62.6268 153.764 62.7117C153.686 62.7965 153.589 62.8603 153.48 62.8972C153.377 62.9355 153.269 62.9599 153.16 62.9696C152.829 63 152.495 62.9653 152.177 62.8676C151.571 62.6756 151.226 62.2532 151.097 61.6404C151.061 61.4521 151.045 61.2606 151.048 61.0688C151.046 60.1038 151.045 59.1386 151.044 58.1732Z" fill="#686868"/>
<path d="M148.462 61C148.462 61.5757 148.462 62.1511 148.462 62.726C148.462 62.926 148.46 62.926 148.27 62.926C148.08 62.926 147.886 62.93 147.698 62.886C147.358 62.81 147.104 62.6316 146.996 62.286C146.961 62.173 146.944 62.0554 146.945 61.9372C146.945 61.008 146.941 60.0788 146.948 59.1496C146.945 58.7573 147.027 58.3688 147.188 58.0112C147.492 57.3592 148.002 56.9832 148.708 56.866C148.999 56.812 149.297 56.8133 149.588 56.8696C149.726 56.8963 149.858 56.9469 149.978 57.0192C150.113 57.0969 150.226 57.2086 150.304 57.3432C150.383 57.4777 150.425 57.6305 150.426 57.7864C150.432 57.9336 150.429 58.0812 150.426 58.2288C150.426 58.336 150.398 58.3528 150.288 58.3184C150.239 58.3032 150.191 58.2836 150.142 58.268C149.86 58.1785 149.561 58.1523 149.268 58.1912C148.931 58.236 148.699 58.4176 148.574 58.7332C148.518 58.8699 148.485 59.0152 148.477 59.1628C148.47 59.332 148.464 59.5016 148.464 59.6712C148.461 60.114 148.462 60.5564 148.462 61Z" fill="#686868"/>
<path d="M154.543 59.2489C154.543 58.57 154.543 57.8914 154.543 57.2133C154.543 57.0169 154.543 57.0165 154.734 57.0133C154.911 57.0058 155.088 57.0164 155.263 57.0449C155.659 57.1249 155.903 57.3593 155.998 57.7485C156.032 57.8928 156.047 58.0405 156.044 58.1885C156.043 59.0736 156.043 59.9586 156.044 60.8437C156.044 60.9393 156.042 61.0357 156.051 61.1309C156.08 61.4209 156.209 61.6401 156.56 61.7117C156.72 61.738 156.883 61.7485 157.044 61.7429C157.242 61.7429 157.241 61.7409 157.24 61.9373C157.245 62.0995 157.233 62.2617 157.204 62.4213C157.141 62.7013 156.977 62.8761 156.695 62.9413C156.602 62.9631 156.507 62.9754 156.411 62.9781C156.175 62.9858 155.939 62.9588 155.711 62.8981C155.151 62.7445 154.797 62.3813 154.636 61.8285C154.572 61.6012 154.54 61.3657 154.543 61.1293C154.543 60.5025 154.543 59.8757 154.543 59.2493L154.543 59.2489Z" fill="#686868"/>
<path d="M154.41 55.5743C154.411 55.3438 154.503 55.1229 154.666 54.9599C154.828 54.7969 155.049 54.705 155.28 54.7043C155.765 54.7043 156.181 55.1127 156.165 55.5879C156.162 55.8193 156.069 56.0401 155.905 56.2033C155.741 56.3665 155.52 56.4591 155.288 56.4611C155.172 56.462 155.057 56.4395 154.949 56.3951C154.842 56.3507 154.744 56.2853 154.662 56.2027C154.581 56.1201 154.516 56.0219 154.473 55.914C154.43 55.8061 154.408 55.6906 154.41 55.5743Z" fill="#686868"/>
<path d="M154.38 65.0031C154.424 64.9631 154.46 64.9287 154.5 64.8991C154.756 64.7083 155.165 64.8111 155.22 65.1707C155.231 65.2212 155.238 65.2724 155.242 65.3239C155.244 65.5375 155.242 65.7515 155.242 65.9639C155.242 66.0083 155.242 66.0579 155.183 66.0671C155.157 66.0712 155.131 66.0675 155.107 66.0565C155.084 66.0454 155.064 66.0275 155.051 66.0051C155.03 65.9658 155.021 65.9211 155.026 65.8767C155.026 65.7147 155.026 65.5523 155.026 65.3899C155.028 65.3086 155.014 65.2277 154.983 65.1523C154.939 65.0495 154.861 65.0067 154.732 65.0127C154.612 65.0183 154.528 65.0747 154.502 65.1823C154.486 65.2612 154.477 65.3416 154.477 65.4223C154.474 65.5995 154.477 65.7763 154.477 65.9535C154.477 65.9967 154.482 66.0467 154.43 66.0659C154.397 66.0737 154.363 66.0688 154.334 66.0522C154.305 66.0357 154.283 66.0086 154.273 65.9767C154.263 65.9262 154.258 65.8749 154.259 65.8235C154.257 65.6907 154.259 65.5579 154.257 65.4235C154.256 65.3499 154.248 65.2766 154.232 65.2047C154.22 65.1463 154.187 65.0943 154.139 65.0585C154.091 65.0228 154.032 65.0056 153.972 65.0103C153.847 65.0127 153.776 65.0707 153.732 65.1999C153.711 65.2781 153.703 65.3591 153.707 65.4399C153.707 65.6243 153.707 65.8087 153.704 65.9931C153.704 66.0058 153.701 66.0184 153.695 66.0295C153.689 66.0406 153.68 66.05 153.669 66.0566C153.658 66.0632 153.646 66.0669 153.633 66.0672C153.62 66.0676 153.608 66.0647 153.596 66.0587C153.513 66.0283 153.491 65.9615 153.49 65.8835C153.49 65.6915 153.486 65.4999 153.493 65.3083C153.497 65.2347 153.514 65.1624 153.543 65.0947C153.593 64.978 153.687 64.8854 153.804 64.8365C153.921 64.7876 154.052 64.7862 154.17 64.8327C154.256 64.8707 154.313 64.9387 154.38 65.0031Z" fill="#706E6E"/>
<path d="M159.097 65.2477C159.108 65.2877 159.144 65.2989 159.172 65.3193C159.412 65.4921 159.336 65.8285 159.152 65.9701C159.111 66.002 159.065 66.0265 159.016 66.0425C158.825 66.099 158.622 66.1027 158.428 66.0533C158.302 66.0237 158.232 65.9281 158.216 65.7977C158.213 65.761 158.212 65.7241 158.212 65.6873C158.212 65.3629 158.212 65.0385 158.212 64.7141C158.212 64.5397 158.214 64.5381 158.392 64.5037C158.566 64.4706 158.745 64.4672 158.92 64.4937C159.135 64.5249 159.308 64.6757 159.286 64.9393C159.283 65.0211 159.248 65.0985 159.19 65.1557C159.16 65.1857 159.112 65.2001 159.097 65.2477ZM158.428 65.5677C158.428 65.6045 158.428 65.6409 158.428 65.6777C158.427 65.6923 158.427 65.707 158.428 65.7217C158.437 65.8125 158.472 65.8641 158.554 65.8789C158.684 65.9082 158.819 65.9012 158.945 65.8585C159.065 65.8125 159.112 65.7217 159.1 65.5753C159.09 65.4553 159.038 65.3881 158.915 65.3645C158.828 65.3489 158.741 65.3409 158.653 65.3405C158.417 65.3377 158.426 65.3297 158.428 65.5685V65.5677ZM158.675 65.1677C158.755 65.1637 158.835 65.1553 158.915 65.1425C159.016 65.1213 159.07 65.0425 159.075 64.9333C159.079 64.8177 159.035 64.7449 158.94 64.7061C158.85 64.6748 158.754 64.6626 158.66 64.6705C158.441 64.6773 158.427 64.6909 158.428 64.9105C158.425 65.1793 158.406 65.1601 158.675 65.1669V65.1677Z" fill="#737070"/>
<path d="M143.99 65.3176C143.984 65.4207 143.965 65.5226 143.933 65.6208C143.822 65.9268 143.58 66.1008 143.263 66.0944C143.114 66.0938 142.97 66.0445 142.853 65.954C142.735 65.8636 142.65 65.7369 142.612 65.5936C142.546 65.3809 142.551 65.1526 142.627 64.9432C142.74 64.6212 142.987 64.4608 143.342 64.4772C143.64 64.4908 143.874 64.6848 143.955 64.9912C143.984 65.0975 143.996 65.2076 143.99 65.3176ZM142.78 65.2624C142.777 65.3582 142.791 65.4537 142.82 65.5448C142.883 65.7708 143.058 65.8976 143.293 65.8968C143.513 65.8968 143.679 65.7672 143.743 65.5464C143.791 65.3764 143.791 65.1964 143.743 65.0264C143.682 64.7952 143.52 64.6708 143.278 64.6664C143.048 64.6664 142.884 64.7824 142.818 65.0024C142.789 65.086 142.776 65.1742 142.78 65.2624Z" fill="#706E6E"/>
<path d="M146.563 65.7925C146.601 65.9205 146.546 65.9897 146.453 66.0381C146.143 66.1981 145.742 66.0493 145.627 65.7221C145.587 65.6144 145.572 65.4988 145.584 65.3844C145.596 65.27 145.635 65.16 145.697 65.0633C145.768 64.9447 145.882 64.8587 146.016 64.8238C146.149 64.7888 146.291 64.8078 146.411 64.8765C146.486 64.9175 146.547 64.9806 146.585 65.0571C146.623 65.1336 146.636 65.22 146.623 65.3045C146.62 65.3451 146.606 65.3841 146.582 65.4172C146.558 65.4503 146.526 65.4764 146.489 65.4925C146.407 65.5285 146.319 65.5466 146.23 65.5453C146.113 65.5453 145.995 65.5453 145.877 65.5501C145.868 65.5506 145.859 65.5533 145.851 65.5578C145.843 65.5623 145.837 65.5685 145.832 65.576C145.826 65.5835 145.823 65.5921 145.822 65.601C145.821 65.61 145.822 65.6191 145.825 65.6277C145.865 65.7809 145.991 65.8813 146.165 65.8949C146.277 65.9037 146.354 65.8845 146.563 65.7925ZM146.105 65.3709C146.14 65.3685 146.229 65.3673 146.315 65.3541C146.391 65.3425 146.422 65.2845 146.412 65.2077C146.409 65.1669 146.394 65.1279 146.369 65.0957C146.344 65.0635 146.31 65.0395 146.271 65.0269C146.095 64.9677 145.882 65.0229 145.82 65.2537C145.799 65.3305 145.822 65.3673 145.898 65.3705C145.949 65.3729 146 65.3709 146.105 65.3709Z" fill="#737070"/>
<path d="M156.515 65.7769C156.533 65.9497 156.457 66.0253 156.344 66.0593C155.925 66.1837 155.605 65.9741 155.534 65.6065C155.496 65.4236 155.53 65.2331 155.629 65.0745C155.77 64.8433 156.042 64.7461 156.28 64.8417C156.354 64.8676 156.419 64.9127 156.469 64.9725C156.519 65.0322 156.553 65.1043 156.566 65.1813C156.59 65.3121 156.552 65.4745 156.358 65.5177C156.301 65.5309 156.243 65.5396 156.184 65.5437C156.096 65.5485 156.007 65.5437 155.919 65.5481C155.87 65.5481 155.805 65.5269 155.778 65.5777C155.742 65.6441 155.786 65.7049 155.828 65.7565C155.927 65.8765 156.059 65.9073 156.206 65.8921C156.316 65.8764 156.421 65.8371 156.515 65.7769ZM155.755 65.3597C155.914 65.3798 156.076 65.379 156.235 65.3573C156.349 65.3429 156.389 65.2517 156.337 65.1461C156.323 65.1162 156.303 65.0896 156.278 65.0679C156.253 65.0463 156.224 65.0301 156.192 65.0205C155.96 64.9465 155.763 65.0953 155.757 65.3601L155.755 65.3597Z" fill="#737070"/>
<path d="M159.633 65.1289C159.603 65.0413 159.641 64.9753 159.704 64.9181C159.87 64.7693 160.212 64.7653 160.384 64.9101C160.422 64.9397 160.454 64.977 160.477 65.0195C160.499 65.062 160.513 65.1088 160.516 65.1569C160.525 65.3569 160.528 65.5545 160.516 65.7525C160.514 65.8196 160.491 65.8843 160.45 65.9377C160.409 65.9912 160.353 66.0308 160.289 66.0513C160.137 66.1125 159.967 66.1113 159.816 66.0481C159.668 65.9865 159.573 65.8817 159.576 65.7129C159.574 65.6385 159.595 65.5654 159.638 65.5042C159.68 65.4429 159.741 65.3967 159.811 65.3721C159.872 65.3484 159.937 65.332 160.002 65.3233C160.067 65.3133 160.134 65.3145 160.202 65.3097C160.29 65.3033 160.32 65.2653 160.302 65.1833C160.296 65.139 160.274 65.0982 160.242 65.0678C160.209 65.0374 160.167 65.0193 160.122 65.0165C159.998 64.9942 159.869 65.0134 159.757 65.0713C159.717 65.0917 159.69 65.1321 159.633 65.1289ZM160.147 65.4961C160.003 65.4961 159.94 65.5097 159.874 65.5545C159.853 65.5688 159.835 65.5877 159.822 65.6096C159.809 65.6316 159.801 65.6562 159.798 65.6817C159.796 65.7071 159.799 65.7328 159.808 65.7569C159.816 65.7809 159.83 65.8028 159.848 65.8209C159.945 65.9065 160.058 65.9145 160.177 65.8769C160.287 65.8417 160.309 65.7513 160.31 65.6505C160.31 65.6289 160.31 65.6069 160.31 65.5849C160.306 65.5189 160.287 65.5005 160.214 65.4965C160.191 65.4953 160.169 65.4961 160.147 65.4961Z" fill="#737070"/>
<path d="M162.384 65.3021C162.464 65.2933 162.482 65.2493 162.512 65.2185C162.602 65.1225 162.692 65.0245 162.782 64.9281C162.82 64.884 162.87 64.8526 162.926 64.8383C162.982 64.824 163.041 64.8274 163.096 64.8481C163.096 64.8993 163.056 64.9145 163.032 64.9393C162.925 65.0501 162.814 65.1577 162.708 65.2705C162.573 65.4153 162.573 65.3905 162.703 65.5569C162.821 65.7077 162.938 65.8593 163.101 65.9657C163.132 65.9857 163.119 66.0413 163.084 66.0561C163.047 66.0742 163.006 66.0808 162.965 66.075C162.925 66.0692 162.887 66.0513 162.857 66.0237C162.798 65.9689 162.742 65.9104 162.69 65.8485C162.613 65.7593 162.54 65.6665 162.466 65.5753C162.46 65.5662 162.452 65.5594 162.441 65.5559C162.431 65.5525 162.42 65.5527 162.41 65.5565C162.382 65.5665 162.386 65.5917 162.386 65.6117C162.383 65.7441 162.384 65.8765 162.38 66.0089C162.379 66.0198 162.375 66.0303 162.369 66.0395C162.363 66.0487 162.355 66.0563 162.346 66.0616C162.336 66.067 162.325 66.0699 162.314 66.0702C162.303 66.0705 162.293 66.0681 162.283 66.0633C162.261 66.0578 162.242 66.0467 162.226 66.0309C162.21 66.0152 162.199 65.9956 162.194 65.9741C162.185 65.9309 162.18 65.8869 162.18 65.8429C162.18 65.409 162.18 64.9747 162.18 64.5401C162.18 64.5257 162.18 64.5109 162.18 64.4961C162.182 64.4509 162.185 64.4041 162.245 64.4005C162.271 64.3969 162.297 64.4024 162.319 64.4158C162.341 64.4293 162.359 64.45 162.368 64.4745C162.38 64.5166 162.385 64.5605 162.384 64.6045C162.384 64.7665 162.384 64.9285 162.384 65.0905L162.384 65.3021Z" fill="#706E6E"/>
<path d="M139.628 65.4519C139.63 65.544 139.615 65.6357 139.582 65.7219C139.506 65.9335 139.364 66.0671 139.131 66.0887C138.898 66.1103 138.68 66.0067 138.579 65.7999C138.519 65.6847 138.49 65.556 138.494 65.4263C138.499 65.2965 138.537 65.1702 138.605 65.0595C138.71 64.8771 138.885 64.7991 139.089 64.8075C139.19 64.8075 139.289 64.8371 139.373 64.8926C139.457 64.9481 139.523 65.0272 139.562 65.1199C139.61 65.2238 139.633 65.3376 139.628 65.4519ZM139.41 65.4627C139.416 65.3634 139.395 65.2641 139.347 65.1767C139.233 64.9703 138.923 64.9531 138.792 65.1447C138.677 65.3115 138.688 65.6119 138.817 65.7671C138.854 65.8132 138.903 65.8486 138.958 65.8697C139.013 65.8908 139.073 65.8968 139.131 65.8871C139.26 65.8707 139.339 65.7895 139.381 65.6675C139.402 65.6014 139.412 65.5321 139.41 65.4627Z" fill="#706E6E"/>
<path d="M153.21 65.44C153.212 65.5412 153.194 65.6418 153.156 65.736C153.08 65.9392 152.939 66.0652 152.716 66.0864C152.494 66.1076 152.311 66.0304 152.184 65.8416C152.03 65.6112 152.047 65.2256 152.218 65.0072C152.454 64.7048 152.953 64.7512 153.131 65.092C153.184 65.2005 153.211 65.3195 153.21 65.44ZM152.993 65.4676C152.997 65.3608 152.972 65.2548 152.919 65.1616C152.799 64.9692 152.505 64.9568 152.376 65.1392C152.258 65.3052 152.266 65.606 152.394 65.762C152.543 65.9444 152.866 65.9504 152.96 65.6724C152.983 65.6072 152.994 65.5384 152.993 65.4692V65.4676Z" fill="#706E6E"/>
<path d="M139.912 65.234C139.912 65.1308 139.912 65.028 139.912 64.9248C139.912 64.8848 139.92 64.8488 139.962 64.838C139.98 64.8334 139.999 64.8328 140.017 64.8365C140.035 64.8402 140.052 64.8479 140.067 64.8592C140.082 64.8701 140.094 64.884 140.104 64.9C140.113 64.916 140.118 64.9337 140.12 64.952C140.125 65.0032 140.128 65.0544 140.128 65.106C140.128 65.2236 140.126 65.3416 140.13 65.4592C140.131 65.5326 140.14 65.6057 140.158 65.6768C140.168 65.7145 140.185 65.7498 140.209 65.7806C140.233 65.8114 140.262 65.837 140.297 65.8557C140.331 65.8745 140.368 65.886 140.407 65.8897C140.446 65.8933 140.485 65.8889 140.522 65.8768C140.562 65.8677 140.598 65.8481 140.628 65.82C140.658 65.7918 140.679 65.7562 140.69 65.7168C140.713 65.6388 140.723 65.5579 140.721 65.4768C140.721 65.2928 140.721 65.1088 140.721 64.9248C140.721 64.888 140.721 64.848 140.768 64.838C140.786 64.833 140.805 64.8324 140.823 64.8362C140.841 64.8399 140.858 64.848 140.873 64.8596C140.894 64.879 140.911 64.9035 140.921 64.9308C140.932 64.9657 140.938 65.0021 140.938 65.0388C140.938 65.2156 140.938 65.392 140.938 65.5688C140.937 65.5982 140.934 65.6275 140.928 65.6564C140.874 66.0076 140.552 66.1924 140.221 66.0604C140.152 66.0341 140.09 65.9911 140.041 65.9353C139.992 65.8795 139.958 65.8126 139.941 65.7404C139.922 65.6617 139.911 65.5813 139.908 65.5004C139.902 65.4124 139.908 65.324 139.908 65.2356L139.912 65.234Z" fill="#737070"/>
<path d="M148.55 64.8099C148.502 64.8099 148.476 64.7675 148.439 64.7471C148.364 64.7029 148.28 64.6771 148.194 64.6717C148.107 64.6663 148.02 64.6815 147.94 64.716C147.861 64.7506 147.79 64.8036 147.735 64.8706C147.68 64.9375 147.641 65.0167 147.622 65.1015C147.585 65.2609 147.602 65.4282 147.672 65.5763C147.784 65.8319 148.065 65.9495 148.337 65.8671C148.4 65.8449 148.459 65.8148 148.514 65.7775C148.519 65.7746 148.526 65.773 148.532 65.773C148.538 65.773 148.545 65.7746 148.55 65.7775C148.555 65.783 148.558 65.7894 148.56 65.7963C148.563 65.8032 148.563 65.8104 148.562 65.8175C148.558 65.8581 148.545 65.8971 148.523 65.9314C148.501 65.9658 148.471 65.9944 148.436 66.0151C148.386 66.0471 148.331 66.069 148.273 66.0795C148.131 66.1089 147.983 66.0944 147.85 66.038C147.716 65.9815 147.603 65.8858 147.525 65.7635C147.34 65.4631 147.333 65.1503 147.504 64.8399C147.64 64.5923 147.913 64.4295 148.275 64.4835C148.338 64.4899 148.398 64.5139 148.448 64.5528C148.497 64.5916 148.535 64.6437 148.557 64.7031C148.565 64.72 148.569 64.7388 148.568 64.7575C148.566 64.7762 148.56 64.7943 148.55 64.8099Z" fill="#737070"/>
<path d="M161.862 65.6428C161.862 65.7532 161.862 65.8636 161.862 65.974C161.862 66.0184 161.859 66.0652 161.798 66.07C161.772 66.0751 161.746 66.0712 161.723 66.0592C161.699 66.0471 161.681 66.0275 161.67 66.0036C161.656 65.9622 161.649 65.9184 161.65 65.8744C161.647 65.7272 161.65 65.58 161.647 65.4344C161.647 65.3608 161.641 65.2874 161.628 65.2148C161.604 65.0948 161.523 65.03 161.396 65.0148C161.247 64.9992 161.151 65.0424 161.096 65.1492C161.063 65.2156 161.048 65.289 161.051 65.3628C161.051 65.5396 161.051 65.7164 161.051 65.8932C161.052 65.9373 161.049 65.9815 161.044 66.0252C161.038 66.0576 161.009 66.0684 160.977 66.0692C160.951 66.0707 160.926 66.0637 160.904 66.0493C160.882 66.0348 160.866 66.0138 160.857 65.9892C160.845 65.9549 160.838 65.9186 160.839 65.882C160.837 65.698 160.837 65.514 160.839 65.33C160.842 65.2407 160.867 65.1536 160.911 65.0762C160.956 64.9989 161.019 64.9337 161.095 64.8866C161.171 64.8395 161.257 64.8118 161.346 64.8061C161.436 64.8003 161.525 64.8166 161.606 64.8536C161.673 64.8845 161.731 64.9329 161.774 64.9939C161.816 65.0548 161.841 65.126 161.846 65.2C161.862 65.3456 161.862 65.4936 161.87 65.64L161.862 65.6428Z" fill="#706E6E"/>
<path d="M148.79 65.2532C148.79 65.1356 148.79 65.018 148.79 64.9004C148.79 64.8516 148.832 64.8272 148.882 64.8368C148.911 64.8413 148.938 64.8556 148.959 64.8773C148.979 64.8991 148.991 64.9271 148.994 64.9568C149 65.0151 149.003 65.0737 149.002 65.1324C149.004 65.2868 149 65.4416 149.01 65.5956C149.018 65.7304 149.084 65.8328 149.221 65.8756C149.256 65.8884 149.293 65.8939 149.329 65.8915C149.366 65.8892 149.402 65.8791 149.435 65.8619C149.468 65.8448 149.497 65.8209 149.519 65.7919C149.542 65.7629 149.559 65.7294 149.568 65.6936C149.583 65.6293 149.59 65.5633 149.588 65.4972C149.591 65.3136 149.588 65.1296 149.591 64.9456C149.591 64.9032 149.585 64.8532 149.643 64.8392C149.672 64.8324 149.702 64.836 149.728 64.8494C149.755 64.8627 149.776 64.8848 149.787 64.912C149.797 64.9318 149.803 64.9532 149.804 64.9752C149.804 65.196 149.816 65.4152 149.8 65.6368C149.78 65.9256 149.593 66.0888 149.306 66.0948C149.029 66.1004 148.826 65.9308 148.795 65.65C148.787 65.5179 148.786 65.3854 148.792 65.2532H148.79Z" fill="#737070"/>
<path d="M145.293 65.6183C145.293 65.7511 145.295 65.8835 145.293 66.0159C145.293 66.0611 145.253 66.0743 145.213 66.0695C145.142 66.0611 145.1 66.0271 145.09 65.9635C145.084 65.9198 145.081 65.8756 145.082 65.8315C145.082 65.6991 145.082 65.5663 145.082 65.4335C145.084 65.382 145.082 65.3305 145.078 65.2791C145.055 65.0547 144.84 64.9395 144.638 65.0427C144.602 65.0609 144.57 65.0879 144.547 65.1213C144.524 65.1547 144.509 65.1934 144.504 65.2339C144.495 65.3002 144.492 65.3671 144.493 65.4339C144.493 65.6107 144.493 65.7875 144.493 65.9643C144.493 66.0079 144.493 66.0567 144.437 66.0695C144.408 66.0758 144.378 66.0717 144.352 66.0579C144.325 66.0441 144.305 66.0214 144.294 65.9939C144.284 65.9662 144.279 65.9372 144.278 65.9079C144.278 65.7079 144.271 65.5079 144.278 65.3111C144.3 64.8403 144.734 64.7315 145.021 64.8463C145.199 64.9171 145.276 65.0655 145.292 65.2463C145.302 65.3703 145.294 65.4963 145.294 65.6215L145.293 65.6183Z" fill="#747373"/>
<path d="M150.12 65.7756C150.205 65.822 150.295 65.8577 150.388 65.882C150.474 65.9022 150.565 65.8961 150.648 65.8644C150.676 65.855 150.701 65.8371 150.718 65.8131C150.735 65.7892 150.745 65.7604 150.745 65.7308C150.75 65.7013 150.745 65.671 150.731 65.6448C150.716 65.6187 150.693 65.5984 150.665 65.5872C150.59 65.558 150.512 65.5364 150.436 65.512C150.371 65.4968 150.308 65.4768 150.247 65.4524C150.105 65.3836 150.056 65.2524 150.106 65.1004C150.123 65.0439 150.154 64.9924 150.195 64.95C150.342 64.8008 150.628 64.7576 150.811 64.8604C150.848 64.8831 150.882 64.9122 150.91 64.9464C150.95 64.9928 150.952 65.0704 150.923 65.0872C150.883 65.1108 150.854 65.0784 150.823 65.064C150.722 65.0181 150.61 65.0023 150.5 65.0184C150.448 65.0239 150.399 65.0454 150.36 65.08C150.344 65.0924 150.332 65.1086 150.324 65.1269C150.317 65.1453 150.314 65.1653 150.315 65.1852C150.317 65.205 150.324 65.2241 150.335 65.2406C150.346 65.2572 150.362 65.2707 150.379 65.28C150.426 65.3006 150.474 65.3176 150.524 65.3308C150.608 65.358 150.694 65.3788 150.775 65.4108C151.044 65.52 150.998 65.854 150.849 65.9788C150.7 66.1036 150.391 66.1316 150.224 66.0244C150.199 66.0089 150.177 65.9893 150.158 65.9664C150.14 65.9426 150.128 65.9154 150.121 65.8864C150.117 65.8495 150.117 65.8125 150.12 65.7756Z" fill="#737070"/>
<path d="M138.345 64.5871C138.334 64.6513 138.31 64.7127 138.274 64.7675C138.179 64.9497 138.069 65.1236 137.945 65.2875C137.88 65.3677 137.848 65.4695 137.856 65.5723C137.861 65.7047 137.856 65.8371 137.856 65.9699C137.856 66.0143 137.851 66.0619 137.792 66.0679C137.763 66.073 137.732 66.0678 137.706 66.0533C137.681 66.0387 137.66 66.0156 137.65 65.9879C137.641 65.9523 137.637 65.9157 137.637 65.8791C137.637 65.7687 137.632 65.6583 137.637 65.5479C137.641 65.4597 137.614 65.3731 137.56 65.3027C137.416 65.0981 137.293 64.8792 137.194 64.6495C137.178 64.6167 137.165 64.582 137.157 64.5463C137.155 64.5391 137.155 64.5317 137.157 64.5246C137.159 64.5175 137.163 64.5109 137.167 64.5054C137.172 64.4998 137.178 64.4953 137.185 64.4924C137.191 64.4894 137.199 64.488 137.206 64.4883C137.243 64.4823 137.28 64.488 137.314 64.5048C137.347 64.5215 137.374 64.5484 137.391 64.5815C137.431 64.6523 137.46 64.7279 137.499 64.7983C137.567 64.9203 137.638 65.0407 137.712 65.1583C137.742 65.2083 137.779 65.2059 137.814 65.1555C137.922 64.9972 138.017 64.8309 138.099 64.6579C138.12 64.611 138.143 64.5652 138.168 64.5207C138.197 64.4763 138.243 64.4807 138.288 64.4951C138.307 64.5017 138.322 64.5144 138.333 64.5312C138.343 64.5479 138.347 64.5676 138.345 64.5871Z" fill="#747373"/>
<path d="M151.47 64.5972C151.518 64.6668 151.444 64.7772 151.53 64.818C151.591 64.8472 151.674 64.83 151.747 64.8332C151.769 64.8332 151.791 64.8332 151.813 64.8332C151.858 64.8332 151.908 64.8332 151.909 64.8956C151.913 64.922 151.907 64.9487 151.892 64.9708C151.877 64.9929 151.855 65.0089 151.829 65.0156C151.779 65.0264 151.728 65.0336 151.677 65.0372C151.641 65.0408 151.604 65.0372 151.567 65.042C151.53 65.0468 151.496 65.0664 151.495 65.1088C151.495 65.3088 151.488 65.5064 151.498 65.7044C151.504 65.8244 151.582 65.8868 151.703 65.8908C151.74 65.8894 151.776 65.8858 151.812 65.88C151.875 65.8744 151.905 65.912 151.889 65.9704C151.882 65.9955 151.87 66.0185 151.852 66.037C151.834 66.0556 151.811 66.0692 151.786 66.0764C151.551 66.1564 151.332 66.0316 151.284 65.79C151.277 65.7539 151.274 65.7172 151.274 65.6804C151.274 65.4156 151.274 65.1508 151.274 64.8856C151.268 64.8041 151.293 64.7234 151.342 64.6584C151.375 64.6184 151.412 64.58 151.47 64.5972Z" fill="#737070"/>
<path d="M156.864 65.5891C156.864 65.4935 156.859 65.3979 156.864 65.3027C156.866 65.2068 156.891 65.1127 156.936 65.0279C156.979 64.9499 157.048 64.8893 157.131 64.8566C157.214 64.8238 157.306 64.8211 157.391 64.8487C157.426 64.8592 157.457 64.8819 157.478 64.9128C157.498 64.9438 157.507 64.981 157.503 65.0179C157.503 65.0467 157.49 65.0755 157.449 65.0667C157.406 65.0555 157.363 65.0474 157.319 65.0427C157.19 65.0351 157.124 65.0827 157.1 65.2071C157.087 65.2794 157.081 65.3526 157.081 65.4259C157.078 65.6099 157.081 65.7935 157.081 65.9775C157.081 66.0143 157.078 66.0527 157.036 66.0687C157.011 66.0752 156.985 66.0743 156.961 66.0661C156.936 66.0579 156.915 66.0429 156.898 66.0227C156.874 65.9859 156.861 65.9423 156.862 65.8979C156.862 65.7947 156.862 65.6919 156.862 65.5891H156.864Z" fill="#747373"/>
<path d="M141.269 65.5856C141.269 65.49 141.269 65.3944 141.269 65.2992C141.269 65.1955 141.299 65.094 141.354 65.0064C141.398 64.937 141.462 64.8836 141.538 64.8543C141.615 64.825 141.698 64.8214 141.777 64.844C141.802 64.8488 141.826 64.8598 141.846 64.8759C141.867 64.8919 141.883 64.9127 141.893 64.9364C141.903 64.9523 141.908 64.9701 141.91 64.9885C141.912 65.0069 141.909 65.0255 141.903 65.0428C141.88 65.0876 141.841 65.0632 141.807 65.0556C141.786 65.0499 141.764 65.0457 141.742 65.0432C141.584 65.0312 141.51 65.09 141.492 65.2508C141.483 65.3384 141.486 65.4272 141.486 65.5152C141.486 65.6752 141.486 65.8384 141.482 66C141.482 66.0572 141.436 66.0836 141.371 66.0664C141.342 66.0603 141.316 66.0442 141.297 66.0208C141.279 65.9974 141.269 65.9682 141.27 65.9384C141.266 65.8208 141.27 65.7032 141.27 65.5856H141.269Z" fill="#747373"/>
<path d="M150.369 39.5532C150.352 38.018 151.654 36.806 153.109 36.8088C154.516 36.8116 155.826 37.946 155.822 39.5492C155.819 41.1376 154.51 42.28 153.095 42.28C151.615 42.28 150.352 41.0596 150.369 39.5532Z" fill="#FFFEFE"/>
<path d="M143.013 59.486C142.782 59.486 142.576 59.486 142.37 59.486C142.26 59.486 142.248 59.468 142.258 59.3524C142.275 59.1616 142.298 58.9716 142.375 58.7924C142.535 58.422 142.797 58.1524 143.195 58.0508C143.525 57.9623 143.876 57.9906 144.188 58.1308C144.537 58.286 144.673 58.5872 144.668 58.9308C144.67 59.0163 144.646 59.1005 144.599 59.1718C144.552 59.243 144.483 59.2977 144.403 59.3284C144.26 59.3855 144.11 59.423 143.957 59.44C143.635 59.4872 143.312 59.4828 143.013 59.486Z" fill="#FCFCFC"/>
<path d="M158.428 65.5684C158.428 65.3284 158.417 65.3376 158.654 65.3412C158.742 65.3416 158.83 65.3496 158.916 65.3652C159.039 65.3888 159.092 65.4552 159.102 65.576C159.114 65.7224 159.066 65.8132 158.946 65.8592C158.821 65.9019 158.685 65.909 158.556 65.8796C158.476 65.8648 158.439 65.8132 158.429 65.7224C158.428 65.7078 158.428 65.6931 158.429 65.6784C158.427 65.64 158.428 65.6052 158.428 65.5684Z" fill="#F7F8F8"/>
<path d="M158.675 65.1669C158.406 65.1605 158.425 65.1793 158.425 64.9113C158.425 64.6901 158.439 64.6765 158.657 64.6713C158.752 64.6634 158.847 64.6755 158.937 64.7069C159.034 64.7469 159.076 64.8185 159.072 64.9341C159.068 65.0433 159.014 65.1221 158.912 65.1433C158.834 65.1555 158.754 65.1633 158.675 65.1669Z" fill="#F7F8F8"/>
<path d="M142.78 65.2623C142.777 65.1739 142.791 65.0857 142.82 65.0023C142.887 64.7823 143.051 64.6643 143.28 64.6663C143.523 64.6687 143.685 64.7931 143.746 65.0263C143.794 65.1963 143.794 65.3763 143.746 65.5463C143.682 65.7671 143.516 65.8955 143.296 65.8967C143.06 65.8967 142.886 65.7707 142.823 65.5447C142.793 65.4538 142.778 65.3582 142.78 65.2623Z" fill="#F7F8F8"/>
<path d="M146.105 65.3707C146.001 65.3707 145.949 65.3727 145.898 65.3707C145.822 65.3675 145.799 65.3307 145.82 65.2539C145.882 65.0231 146.095 64.9679 146.271 65.0271C146.31 65.0398 146.344 65.0638 146.369 65.096C146.395 65.1282 146.41 65.1672 146.412 65.2079C146.422 65.2847 146.391 65.3427 146.315 65.3543C146.229 65.3671 146.14 65.3683 146.105 65.3707Z" fill="#F7F8F8"/>
<path d="M155.757 65.3601C155.763 65.0957 155.957 64.9469 156.193 65.0209C156.225 65.0306 156.254 65.0467 156.279 65.0683C156.304 65.09 156.324 65.1166 156.338 65.1465C156.39 65.2521 156.35 65.3433 156.236 65.3577C156.077 65.3793 155.916 65.3801 155.757 65.3601Z" fill="#F7F8F8"/>
<path d="M160.147 65.4961C160.169 65.4961 160.191 65.4961 160.213 65.4961C160.286 65.5001 160.306 65.5185 160.31 65.5845C160.31 65.6065 160.31 65.6285 160.31 65.6501C160.31 65.7509 160.286 65.8413 160.176 65.8765C160.056 65.9141 159.944 65.9061 159.848 65.8205C159.83 65.8024 159.816 65.7805 159.807 65.7565C159.798 65.7324 159.795 65.7067 159.798 65.6813C159.8 65.6558 159.808 65.6312 159.821 65.6092C159.834 65.5872 159.852 65.5684 159.873 65.5541C159.94 65.5097 160.003 65.4961 160.147 65.4961Z" fill="#F7F8F8"/>
<path d="M139.41 65.4629C139.412 65.5329 139.402 65.6027 139.381 65.6693C139.339 65.7893 139.261 65.8725 139.131 65.8889C139.073 65.8986 139.013 65.8926 138.958 65.8715C138.902 65.8504 138.854 65.815 138.817 65.7689C138.688 65.6137 138.677 65.3133 138.792 65.1465C138.923 64.9549 139.232 64.9721 139.347 65.1785C139.394 65.2655 139.416 65.3641 139.41 65.4629Z" fill="#F7F8F8"/>
<path d="M152.993 65.4693C152.994 65.539 152.983 65.6084 152.96 65.6741C152.866 65.9521 152.543 65.9461 152.394 65.7637C152.266 65.6077 152.258 65.3069 152.376 65.1409C152.505 64.9585 152.798 64.9709 152.919 65.1633C152.972 65.2565 152.997 65.3624 152.993 65.4693Z" fill="#F7F8F8"/>
</svg>
