<svg width="300" height="100" viewBox="0 0 300 100" fill="none" xmlns="http://www.w3.org/2000/svg">
<rect width="300" height="100" fill="white"/>
<g clip-path="url(#clip0_298_9710)">
<path d="M92.0625 64.8H112.752V69.931H92.0625V64.8ZM121.897 61.8621C119.883 61.6966 118.242 61.3931 116.973 60.9517C115.731 60.4828 114.807 60.0966 114.2 59.7931L115.98 55.0345C116.945 55.5035 118.09 55.931 119.414 56.3173C120.766 56.7035 122.187 56.8966 123.676 56.8966C125.359 56.8966 126.504 56.6759 127.111 56.2345C127.745 55.7655 128.062 55.1173 128.062 54.2897C128.062 53.7655 127.938 53.3241 127.69 52.9655C127.442 52.5793 127.083 52.2345 126.614 51.931C126.145 51.6276 125.552 51.3379 124.835 51.0621C124.118 50.7586 123.29 50.4414 122.352 50.1104C121.442 49.7793 120.545 49.4207 119.663 49.0345C118.807 48.6207 118.021 48.1241 117.304 47.5448C116.614 46.9655 116.049 46.2621 115.607 45.4345C115.194 44.5793 114.987 43.5586 114.987 42.3724C114.987 41.4621 115.111 40.5931 115.359 39.7655C115.635 38.9104 116.049 38.1379 116.6 37.4483C117.152 36.7586 117.869 36.1793 118.752 35.7104C119.635 35.2138 120.683 34.8552 121.897 34.6345V30.1655H127.111V34.469C128.545 34.6069 129.773 34.8138 130.794 35.0897C131.842 35.3655 132.669 35.6414 133.276 35.9173L131.994 40.8828C131.083 40.4966 130.021 40.1655 128.807 39.8897C127.621 39.6138 126.366 39.4759 125.042 39.4759C123.718 39.4759 122.766 39.6966 122.187 40.1379C121.607 40.5793 121.318 41.1586 121.318 41.8759C121.318 42.3173 121.4 42.7035 121.566 43.0345C121.759 43.3379 122.049 43.6138 122.435 43.8621C122.821 44.1104 123.29 44.3586 123.842 44.6069C124.421 44.8276 125.111 45.0759 125.911 45.3517C127.125 45.7931 128.242 46.2759 129.263 46.8C130.311 47.3241 131.207 47.931 131.952 48.6207C132.725 49.2828 133.318 50.069 133.731 50.9793C134.173 51.8897 134.394 52.9517 134.394 54.1655C134.394 54.9931 134.269 55.8207 134.021 56.6483C133.773 57.4483 133.359 58.1931 132.78 58.8828C132.2 59.5724 131.442 60.1655 130.504 60.6621C129.594 61.1586 128.463 61.5173 127.111 61.7379V66.7862H121.897V61.8621ZM157.746 61.531C156.698 61.8345 155.346 62.1104 153.691 62.3586C152.036 62.6345 150.298 62.7724 148.477 62.7724C146.629 62.7724 145.084 62.5241 143.843 62.0276C142.629 61.531 141.664 60.8414 140.946 59.9586C140.229 59.0483 139.719 57.9724 139.415 56.731C139.112 55.4897 138.96 54.1241 138.96 52.6345V40.5104H145.126V51.8897C145.126 53.8759 145.388 55.3104 145.912 56.1931C146.436 57.0759 147.415 57.5173 148.85 57.5173C149.291 57.5173 149.76 57.5035 150.257 57.4759C150.753 57.4207 151.195 57.3655 151.581 57.3104V40.5104H157.746V61.531ZM168.789 51.2276C168.789 53.131 169.217 54.6621 170.072 55.8207C170.927 56.9793 172.196 57.5586 173.879 57.5586C174.431 57.5586 174.941 57.5448 175.41 57.5173C175.879 57.4621 176.265 57.4069 176.568 57.3517V46.1379C176.182 45.8897 175.672 45.6828 175.037 45.5173C174.43 45.3517 173.81 45.269 173.175 45.269C170.251 45.269 168.789 47.2552 168.789 51.2276ZM182.734 61.5724C182.182 61.7379 181.548 61.9035 180.83 62.069C180.113 62.2069 179.355 62.331 178.555 62.4414C177.782 62.5517 176.982 62.6345 176.155 62.6897C175.355 62.7724 174.582 62.8138 173.837 62.8138C172.044 62.8138 170.444 62.5517 169.037 62.0276C167.631 61.5035 166.444 60.7586 165.479 59.7931C164.513 58.8 163.768 57.6138 163.244 56.2345C162.748 54.8276 162.499 53.2552 162.499 51.5173C162.499 49.7517 162.72 48.1655 163.162 46.7586C163.603 45.3241 164.237 44.1104 165.065 43.1173C165.893 42.1241 166.899 41.3655 168.086 40.8414C169.299 40.3173 170.679 40.0552 172.224 40.0552C173.079 40.0552 173.837 40.1379 174.499 40.3035C175.189 40.469 175.879 40.7035 176.568 41.0069V31.1586L182.734 30.1655V61.5724ZM208.866 51.3517C208.866 53.0621 208.617 54.6345 208.121 56.069C207.624 57.4759 206.907 58.6897 205.969 59.7104C205.031 60.7035 203.9 61.4759 202.576 62.0276C201.279 62.5793 199.817 62.8552 198.19 62.8552C196.59 62.8552 195.128 62.5793 193.803 62.0276C192.507 61.4759 191.39 60.7035 190.452 59.7104C189.514 58.6897 188.783 57.4759 188.259 56.069C187.734 54.6345 187.472 53.0621 187.472 51.3517C187.472 49.6414 187.734 48.0828 188.259 46.6759C188.81 45.269 189.555 44.069 190.493 43.0759C191.459 42.0828 192.59 41.3104 193.886 40.7586C195.21 40.2069 196.645 39.931 198.19 39.931C199.762 39.931 201.197 40.2069 202.493 40.7586C203.817 41.3104 204.948 42.0828 205.886 43.0759C206.824 44.069 207.555 45.269 208.079 46.6759C208.603 48.0828 208.866 49.6414 208.866 51.3517ZM202.576 51.3517C202.576 49.4483 202.19 47.9586 201.417 46.8828C200.672 45.7793 199.597 45.2276 198.19 45.2276C196.783 45.2276 195.693 45.7793 194.921 46.8828C194.148 47.9586 193.762 49.4483 193.762 51.3517C193.762 53.2552 194.148 54.7724 194.921 55.9035C195.693 57.0069 196.783 57.5586 198.19 57.5586C199.597 57.5586 200.672 57.0069 201.417 55.9035C202.19 54.7724 202.576 53.2552 202.576 51.3517Z" fill="black"/>
</g>
<defs>
<clipPath id="clip0_298_9710">
<rect width="116.966" height="40" fill="white" transform="translate(92.0625 30)"/>
</clipPath>
</defs>
</svg>
