<svg width="300" height="100" viewBox="0 0 300 100" fill="none" xmlns="http://www.w3.org/2000/svg">
<rect width="300" height="100" fill="white"/>
<path d="M161.908 43.3689C160.001 43.3689 158.418 42.7197 157.242 41.3808C156.065 40.0824 155.457 38.3783 155.457 36.2684V35.0106H157.566V36.1873C157.566 37.7697 157.972 39.068 158.784 40.0418C159.555 41.0156 160.609 41.5025 161.867 41.5025C163.125 41.5025 164.18 41.0156 165.032 40.0824C165.884 39.1492 166.29 37.8914 166.29 36.3902C166.29 35.3758 166.087 34.5238 165.722 33.7934C165.316 33.0631 164.829 32.4139 164.221 31.8864C163.612 31.359 162.598 30.5881 161.218 29.5331C159.798 28.4782 158.743 27.5856 158.013 26.8958C157.242 26.2061 156.633 25.3946 156.146 24.4208C155.659 23.4876 155.416 22.3515 155.416 21.0126C155.416 18.9433 155.984 17.2798 157.161 16.1031C158.337 14.9265 159.839 14.3179 161.664 14.3179C163.653 14.3179 165.235 14.9671 166.412 16.306C167.588 17.6449 168.197 19.3896 168.197 21.5401V22.9601H166.046V21.5401C166.046 19.9577 165.641 18.6593 164.87 17.6449C164.058 16.6712 163.003 16.1843 161.664 16.1843C160.488 16.1843 159.473 16.59 158.703 17.4421C157.932 18.2941 157.526 19.5114 157.526 21.0532C157.526 21.9864 157.688 22.7573 158.053 23.447C158.378 24.1368 158.865 24.7454 159.514 25.354C160.123 25.9626 161.096 26.7335 162.395 27.7073C163.977 28.884 165.194 29.8577 165.965 30.5881C166.736 31.3184 167.345 32.1299 167.791 32.9819C168.197 33.834 168.4 34.8889 168.4 36.1061C168.4 38.3377 167.791 40.0824 166.614 41.3808C165.397 42.7197 163.815 43.3689 161.908 43.3689Z" fill="black"/>
<path d="M176.334 43.351H174.235L169.796 23.0127H171.935L175.325 40.2034L178.755 23.0127H180.652L184.122 40.2034L187.592 23.0127L189.65 23.053L185.171 43.351H183.113L179.683 26.7253L176.334 43.351Z" fill="black"/>
<path d="M194.734 18.9368C194.129 18.9368 193.644 18.735 193.281 18.3718C192.918 18.0086 192.716 17.5244 192.716 16.9191C192.716 16.3138 192.918 15.8295 193.281 15.4663C193.644 15.1031 194.129 14.9014 194.734 14.9014C195.339 14.9014 195.824 15.1031 196.187 15.4663C196.55 15.8295 196.752 16.3138 196.752 16.9191C196.752 17.5244 196.55 18.0086 196.187 18.3718C195.824 18.735 195.339 18.9368 194.734 18.9368ZM195.824 43.3508H193.685V23.0125H195.824V43.3508Z" fill="black"/>
<path d="M207.526 16.6366C206.356 16.6366 205.589 16.9997 205.146 17.7665C204.702 18.5332 204.5 19.7438 204.5 21.3983V23.0125H207.97V24.7073H204.5V43.3508H202.361V24.7073H200.505V23.0125H202.361V21.358C202.361 19.0981 202.765 17.4436 203.531 16.3541C204.298 15.3049 205.63 14.7803 207.486 14.7803H208.091L208.051 16.6366H207.526Z" fill="black"/>
<path d="M218.746 23.0126V24.7075H215.356V37.8628C215.356 39.1945 215.598 40.1226 216.042 40.6472C216.486 41.1718 217.212 41.4543 218.221 41.4543H219.028V43.3509H217.818C216.325 43.3509 215.195 42.9878 214.428 42.3017C213.661 41.6157 213.258 40.284 213.258 38.3874V24.7075H211.442V23.0126H213.258V18.3315H215.356V23.0126H218.746Z" fill="black"/>
<path fill-rule="evenodd" clip-rule="evenodd" d="M197.694 51.0119V45.2407H180.218V85.6809H197.694V79.8476H186.542V68.0125H195.269V62.2585H186.542V51.0119H197.694Z" fill="#8CC63F"/>
<path fill-rule="evenodd" clip-rule="evenodd" d="M219.031 50.9445V45.1733H201.555V85.6135H219.031V79.7802H207.879V67.9452H216.607V62.1912H207.879V50.9445H219.031Z" fill="#8CC63F"/>
<path fill-rule="evenodd" clip-rule="evenodd" d="M171.466 45.1733H177.275L171.107 85.6135H161.584L155.416 45.1733H161.817L166.641 78.354L171.466 45.1733Z" fill="#8CC63F"/>
<path d="M117.052 85.2195C136.503 85.2195 152.271 69.4514 152.271 50.0004C152.271 30.5494 136.503 14.7812 117.052 14.7812C97.6011 14.7812 81.833 30.5494 81.833 50.0004C81.833 69.4514 97.6011 85.2195 117.052 85.2195Z" fill="url(#paint0_radial_298_10622)"/>
<path fill-rule="evenodd" clip-rule="evenodd" d="M106.423 79.9106C106.423 79.9106 107.535 70.7266 107.546 66.0845C107.55 64.3054 107.366 61.718 107.59 58.9431C107.642 58.2942 108.032 58.3658 108.049 57.7391C108.087 56.4093 107.511 56.5675 107.505 55.6795C107.486 52.8572 106.838 50.081 106.838 50.081C106.838 50.081 109.648 52.7533 111.104 53.5743C112.514 54.3692 116.681 54.171 119.543 54.4424C120.257 54.5101 120.472 55.1014 121.352 55.2394C122.448 55.4114 123.252 55.7231 123.252 55.7231L124.3 51.3461C124.3 51.3461 124.075 51.2482 123.641 51.1192C123.352 51.0331 123.023 51.2395 122.658 51.3572C122.287 51.4768 121.903 51.5478 121.688 51.6394C120.341 52.2118 116.259 51.3611 114.743 50.4645C113.62 49.7997 112.447 49.807 112.447 49.807C112.153 49.2525 111.735 48.7432 111.154 48.2926C111.154 48.2926 111.243 47.6685 111.09 47.4418C110.913 47.1795 109.882 45.7526 109.466 45.3289C109.113 44.9701 108.989 45.3003 109.004 45.1133C109.148 43.3204 108.251 42.801 107.75 41.1651C107.318 39.7557 104.96 39.3973 104.877 38.7566C104.854 38.5793 105.056 37.444 105.381 37.4032C106.142 37.3074 106.791 37.6668 107.091 37.2082C107.226 37.0024 107.118 35.8976 107.555 35.6129C107.687 35.5267 107.899 35.5223 107.552 35.1549C107.406 35.0005 107.781 35.0375 107.868 34.7824C107.945 34.5543 107.653 34.51 107.714 34.2262C107.771 33.9615 108.19 33.8578 108.19 33.6635C108.191 33.2401 107.894 32.981 107.309 32.3337C106.914 31.8961 107.378 30.7707 107.108 30.1891C106.409 28.6863 105.276 27.4975 103.716 27.5366C100.567 27.6155 99.5582 29.1845 99.2524 30.6485C98.9864 31.921 99.2567 33.4791 100.055 34.275C100.786 35.005 100.476 36.5612 100.344 36.4642C100.192 36.3528 99.3917 36.2726 99.4212 36.5756C99.5345 37.7449 96.8128 38.5446 95.9497 39.874C95.3879 40.7394 94.534 42.5824 93.6441 44.4413C93.2195 45.3282 92.6463 46.2185 92.0439 46.9263C91.9057 47.0887 91.7866 48.202 91.1251 49.2826C90.5216 50.2688 89.96 51.4923 90.1011 51.9777C90.341 52.8041 91.1869 54.1816 92.2722 55.436C92.988 56.2634 93.8909 56.9401 94.4983 57.7158C94.7596 58.0496 94.717 58.5194 94.8911 58.838C95.336 59.6513 95.5764 59.4932 95.5743 59.716C95.5731 59.8296 94.7944 61.6872 94.9721 63.7966C95.3284 68.0243 95.5424 73.007 95.5424 73.007L97.8718 75.4412L97.9423 67.0484L98.916 75.9503L106.423 79.9106Z" fill="#8CC63F"/>
<path fill-rule="evenodd" clip-rule="evenodd" d="M123.126 51.9291C122.664 52.0285 122.103 52.4747 122.341 52.6964C122.675 53.0068 123.064 52.7883 123.28 52.7312C123.449 52.6871 123.615 52.7147 123.602 52.7748C123.26 54.3026 123.004 55.4451 123.004 55.4451C123.004 55.4451 123.245 54.4931 122.97 54.4217C122.627 54.3318 122.224 55.0148 122.224 55.0148C122.224 55.0148 122.635 54.1575 122.192 54.1001C121.916 54.0642 121.353 54.6545 121.353 54.6545C121.353 54.6545 121.698 54.0137 121.363 53.9587C121.212 53.9337 120.712 54.1708 120.479 54.9779C120.412 55.2099 120.423 55.4382 120.624 55.5974C120.814 55.7483 121.06 55.8493 121.191 55.646C121.203 55.6269 121.22 55.7879 121.413 55.8682C121.637 55.9614 122.091 56.0906 122.112 55.9519C122.121 55.8974 122.209 56.0622 122.367 56.1233C122.708 56.2551 122.81 56.1464 122.885 56.2522C122.885 56.2522 122.924 60.1843 122.25 62.4283C122.027 63.169 121.494 63.8996 121.557 64.6668C121.626 65.5029 122.181 66.9379 122.683 67.6313C123.37 68.58 124.379 68.7541 124.898 68.6893C125.336 68.6345 125.336 68.1373 125.224 67.7514C125.113 67.3653 124.196 67.0854 124.194 66.2813C124.192 65.5366 124.158 64.7736 124.703 63.9607C124.894 63.6753 125.559 62.1623 125.844 60.6294C125.909 60.2797 126.762 58.9451 126.88 58.5953C128.514 53.7456 129.431 52.5622 130.322 49.7763C131.146 47.1995 131.924 41.9383 131.924 41.9383C131.924 41.9383 131.998 47.6045 131.27 50.2235C129.674 55.9673 126.05 62.6789 126.246 64.5974C126.743 69.469 128.319 79.455 128.319 79.455C132.536 78.1154 136.34 75.3834 139.741 72.0298C139.711 66.0142 140.118 63.6835 141.904 63.5145C142.219 63.4847 141.358 61.7363 141.386 59.4577C141.414 57.1587 140.671 54.0794 140.827 51.1632C141.082 46.3871 141.673 42.6407 141.261 40.6824C140.349 36.3527 135.689 35.7712 135.007 33.6999C134.792 33.048 134.842 33.0124 135.32 33.2306C135.747 33.4259 135.918 33.8764 136.45 34.2763C137.457 35.0319 138.063 34.9806 137.609 33.9362C137.045 32.6395 135.433 32.2595 135.17 31.9581C134.79 31.5247 135.884 28.7693 135.563 27.9978C135.272 27.2971 132.255 25.5603 128.714 26.1314C128.285 26.2005 128.178 27.5904 128.178 27.5904C127.086 27.2423 122.115 29.6827 123.854 32.3289C125.014 34.0937 126.42 31.8861 127.106 32.1795C127.254 32.2428 127.12 32.5795 127.108 32.8187C127.092 33.1336 126.284 34.0337 126.501 34.3858C126.763 34.8108 127.347 34.5687 127.242 34.828C127.108 35.1581 127.374 35.2825 127.623 35.2213C127.763 35.1871 127.532 35.8464 127.747 35.8597C128.053 35.8786 128.318 36.3907 128.215 36.6434C127.861 37.5114 127.046 37.0107 126.311 39.1715C125.642 41.1355 125.403 44.5802 124.869 47.0414C124.574 48.4023 124.167 50.2384 123.808 51.847" fill="black"/>
<path fill-rule="evenodd" clip-rule="evenodd" d="M152.271 50.0001C152.271 69.438 136.49 85.2193 117.052 85.2193C97.6142 85.2193 81.8331 69.438 81.8331 50.0001C81.8331 30.562 97.6142 14.7808 117.052 14.7808C136.49 14.7808 152.271 30.562 152.271 50.0001ZM148.069 48.7633C148.069 65.7238 134.083 77.5509 116.949 77.5509C99.815 77.5509 85.9788 65.7238 85.9788 48.7633C85.9788 31.8028 99.8896 18.0329 117.024 18.0329C134.158 18.0329 148.069 31.8028 148.069 48.7633Z" fill="#CDCFCE"/>
<path fill-rule="evenodd" clip-rule="evenodd" d="M117.052 14.7808C136.49 14.7808 152.272 30.562 152.272 50C152.272 69.438 136.49 85.2192 117.052 85.2192C97.6143 85.2192 81.833 69.438 81.833 50C81.833 30.562 97.6143 14.7808 117.052 14.7808ZM115.816 18.9833C132.776 18.9833 146.546 32.8941 146.546 50.0284C146.546 67.1626 132.776 81.0734 115.816 81.0734C98.855 81.0734 85.0852 67.1626 85.0852 50.0284C85.0852 32.8941 98.855 18.9833 115.816 18.9833Z" fill="#F0F0F1" fill-opacity="0.6"/>
<path fill-rule="evenodd" clip-rule="evenodd" d="M145.632 36.9717C147.447 40.9403 148.458 45.353 148.458 50C148.458 67.3334 134.386 81.4057 117.052 81.4057C99.719 81.4057 85.6465 67.3334 85.6465 50C85.6465 45.9943 86.3981 42.1627 87.7669 38.641C85.2777 68.4855 105.617 72.6561 116.187 72.4837C129.434 72.2678 150.301 62.1423 145.632 36.9717Z" fill="url(#paint1_linear_298_10622)"/>
<path fill-rule="evenodd" clip-rule="evenodd" d="M88.1367 37.7293C92.9181 26.4863 104.07 18.5938 117.051 18.5938C129.564 18.5938 140.377 25.9275 145.423 36.5258C140.518 47.6262 129.407 55.3811 116.499 55.3811C104.063 55.3811 93.296 48.1841 88.1367 37.7293Z" fill="url(#paint2_radial_298_10622)"/>
<path fill-rule="evenodd" clip-rule="evenodd" d="M117.052 14.3188C136.745 14.3188 152.733 30.307 152.733 49.9998C152.733 69.6927 136.745 85.6807 117.052 85.6807C97.3592 85.6807 81.3711 69.6927 81.3711 49.9998C81.3711 30.307 97.3592 14.3188 117.052 14.3188ZM117.052 18.5941C134.385 18.5941 148.458 32.6665 148.458 49.9998C148.458 67.3331 134.385 81.4055 117.052 81.4055C99.7188 81.4055 85.6463 67.3331 85.6463 49.9998C85.6463 32.6665 99.7188 18.5941 117.052 18.5941Z" fill="#39393B"/>
<path fill-rule="evenodd" clip-rule="evenodd" d="M94.7749 22.1337C100.88 17.2449 108.626 14.3188 117.051 14.3188C136.744 14.3188 152.732 30.3067 152.732 49.9996C152.732 61.695 147.093 72.084 138.387 78.5927C146.557 72.0505 151.792 61.9953 151.792 50.7269C151.792 31.0343 135.804 15.0462 116.111 15.0462C108.114 15.0462 100.728 17.6828 94.7749 22.1337Z" fill="url(#paint3_radial_298_10622)"/>
<defs>
<radialGradient id="paint0_radial_298_10622" cx="0" cy="0" r="1" gradientUnits="userSpaceOnUse" gradientTransform="translate(117.12 45.4978) rotate(-89.1974) scale(30.9804 30.9804)">
<stop stop-color="white"/>
<stop offset="0.55" stop-color="#F1F1F1"/>
<stop offset="1" stop-color="#BBBBBB"/>
</radialGradient>
<linearGradient id="paint1_linear_298_10622" x1="139.65" y1="64.92" x2="96.1518" y2="67.3354" gradientUnits="userSpaceOnUse">
<stop stop-color="white" stop-opacity="0.53"/>
<stop offset="1" stop-color="#919191" stop-opacity="0.16"/>
</linearGradient>
<radialGradient id="paint2_radial_298_10622" cx="0" cy="0" r="1" gradientTransform="matrix(-0.11153 20.1798 -21.1047 -0.110808 117.19 23.9643)" gradientUnits="userSpaceOnUse">
<stop stop-color="white" stop-opacity="0.78"/>
<stop offset="0.51" stop-color="white" stop-opacity="0.59"/>
<stop offset="1" stop-color="white" stop-opacity="0"/>
</radialGradient>
<radialGradient id="paint3_radial_298_10622" cx="0" cy="0" r="1" gradientTransform="matrix(-0.77681 1.00298 -30.3835 -23.8185 138.526 21.2518)" gradientUnits="userSpaceOnUse">
<stop stop-color="white" stop-opacity="0.9"/>
<stop offset="0.48" stop-color="white" stop-opacity="0.36"/>
<stop offset="1" stop-color="white" stop-opacity="0.2"/>
</radialGradient>
</defs>
</svg>
