<svg width="300" height="100" viewBox="0 0 300 100" fill="none" xmlns="http://www.w3.org/2000/svg">
<rect width="300" height="100" fill="white"/>
<g clip-path="url(#clip0_298_9674)">
<path d="M137.566 49.0207C137.611 50.387 137.101 51.5436 136.037 52.4948C134.973 53.4439 133.719 53.9195 132.275 53.9195C130.419 53.9195 128.756 53.1497 127.285 51.6081L129.111 49.3754C130.056 50.4353 131.023 50.9855 132.013 51.0298C132.512 51.0479 132.946 50.9371 133.312 50.7013C133.786 50.387 134.038 49.8993 134.074 49.2444C134.118 48.4565 133.645 47.8258 132.655 47.3542L130.344 46.252C128.698 45.464 127.857 44.1119 127.823 42.1935C127.797 40.8897 128.297 39.8036 129.32 38.9371C130.284 38.1149 131.43 37.7079 132.76 37.7159C134.38 37.724 135.878 38.3386 137.252 39.5537L135.336 41.5769C134.749 41.0771 134.386 40.785 134.245 40.6963C133.816 40.4243 133.343 40.2933 132.827 40.3013C132.311 40.3094 131.89 40.4686 131.565 40.7749C131.241 41.0812 131.08 41.5064 131.08 42.0484C131.088 42.792 131.509 43.3562 132.341 43.7431L134.81 44.8716C136.587 45.6857 137.506 47.0681 137.566 49.0207Z" fill="#073042"/>
<path d="M150.842 43.4126L144.381 57.5426H141.23L143.448 52.7486L139.142 43.4126H142.529L145.077 49.2423L147.598 43.4126H150.842Z" fill="#073042"/>
<path d="M159.233 53.0005C158.304 53.4539 157.452 53.6816 156.672 53.6816C155.201 53.6816 153.935 53.1657 152.877 52.134C151.817 51.1023 151.301 49.865 151.328 48.4222C151.354 46.9793 151.882 45.7441 152.909 44.7164C153.937 43.6887 155.166 43.1748 156.593 43.1748C157.329 43.1748 158.161 43.3763 159.088 43.7793V46.3264C158.8 46.2136 158.509 46.1028 158.221 45.998C157.766 45.8408 157.367 45.7662 157.026 45.7743C156.247 45.7824 155.628 46.0383 155.168 46.54C154.709 47.0418 154.483 47.6564 154.491 48.3798C154.499 49.1053 154.727 49.7078 155.174 50.1874C155.656 50.6932 156.281 50.9471 157.053 50.9471C157.752 50.9471 158.479 50.6932 159.233 50.1854V52.9985V53.0005Z" fill="#073042"/>
<path d="M172.299 53.5245H169.266V52.5794C168.373 53.4117 167.336 53.8409 166.155 53.8671C164.789 53.9013 163.624 53.3895 162.663 52.3316C161.718 51.2978 161.232 50.0686 161.206 48.6419C161.179 47.189 161.631 45.9195 162.558 44.8333C163.521 43.721 164.698 43.1749 166.09 43.191C167.299 43.2092 168.402 43.6646 169.399 44.5573V43.4147H172.301V53.5265L172.299 53.5245ZM169.514 48.5149C169.506 47.7875 169.246 47.1628 168.74 46.6449C168.232 46.127 167.612 45.8812 166.876 45.9074C166.114 45.9336 165.5 46.1996 165.03 46.7034C164.563 47.2092 164.319 47.8298 164.301 48.5653C164.283 49.2847 164.539 49.8993 165.069 50.4092C165.599 50.919 166.213 51.1769 166.914 51.185C167.624 51.193 168.236 50.9311 168.752 50.3951C169.268 49.859 169.522 49.2323 169.514 48.5129V48.5149Z" fill="#073042"/>
<path d="M189.909 53.5245H186.876V47.7432C186.876 46.4857 186.336 45.859 185.254 45.8691C184.788 45.8691 184.407 46.0464 184.113 46.4011C183.819 46.7558 183.672 47.2031 183.672 47.7452V53.5265H180.599V47.854C180.599 46.6107 180.151 45.9759 179.259 45.9497C178.777 45.9316 178.358 46.1271 177.997 46.5341C177.639 46.9412 177.459 47.3946 177.459 47.8923V53.5265H174.386V43.4147H177.419V44.6762C177.909 44.1603 178.3 43.8177 178.588 43.6525C178.999 43.4066 179.507 43.2898 180.111 43.2978C181.022 43.3059 181.717 43.459 182.199 43.7573C182.445 43.9145 182.821 44.2993 183.327 44.9119C184.063 43.7129 185.131 43.1386 186.531 43.191C187.617 43.2354 188.462 43.6323 189.066 44.386C189.627 45.0873 189.907 45.9618 189.907 47.0117V53.5245H189.909Z" fill="#073042"/>
<path d="M203.118 48.5594C203.11 50.109 202.552 51.4027 201.443 52.4405C200.335 53.4783 198.995 53.9962 197.419 53.9962C195.843 53.9962 194.568 53.4501 193.459 52.3538C192.351 51.2596 191.803 49.9559 191.811 48.4405C191.819 46.9171 192.398 45.6314 193.544 44.5795C194.665 43.5377 196.017 43.0178 197.603 43.0178C199.188 43.0178 200.406 43.5619 201.496 44.6521C202.586 45.7423 203.126 47.044 203.118 48.5594ZM200.045 48.513C200.001 47.7533 199.726 47.1226 199.219 46.6208C198.713 46.1191 198.1 45.8813 197.385 45.9075C196.696 45.9337 196.109 46.2037 195.63 46.7196C195.15 47.2355 194.918 47.842 194.937 48.5392C194.955 49.2385 195.209 49.837 195.702 50.3327C196.196 50.8304 196.786 51.0803 197.478 51.0803C198.169 51.0803 198.798 50.8244 199.317 50.3145C199.837 49.8027 200.079 49.2042 200.045 48.513Z" fill="#073042"/>
<path d="M211.837 46.0645C211.555 46.0121 211.257 45.9859 210.941 45.9859C210.255 45.9859 209.731 46.1269 209.373 46.407C208.74 46.8967 208.424 47.606 208.424 48.535V53.5244H205.351V43.4126H208.424V44.7909C208.871 44.1864 209.373 43.7531 209.927 43.4912C210.525 43.211 211.162 43.0841 211.839 43.1103V46.0645H211.837Z" fill="#073042"/>
<path d="M223.946 49.1375H216.684C216.77 49.7421 217.022 50.2338 217.437 50.6146C217.852 50.9955 218.374 51.1809 219.003 51.1728C219.93 51.1647 220.694 50.6207 221.296 49.5446L223.511 50.9894C222.276 52.8635 220.74 53.7783 218.902 53.734C217.353 53.6997 216.075 53.1254 215.067 52.0131C214.086 50.927 213.611 49.6232 213.637 48.0997C213.663 46.673 214.104 45.4902 214.963 44.5552C215.882 43.5395 217.107 43.0317 218.64 43.0317C220.295 43.0317 221.594 43.5537 222.54 44.5935C223.537 45.6877 224.007 47.203 223.944 49.1375H223.946ZM220.728 47.1809C220.649 45.9194 219.974 45.2806 218.705 45.2645C218.118 45.2564 217.633 45.462 217.248 45.8811C216.897 46.2579 216.71 46.6912 216.684 47.1809H220.728Z" fill="#073042"/>
<path d="M174.765 62.2721C174.548 62.2721 174.382 62.0988 174.382 61.8812C174.382 61.6635 174.548 61.4983 174.765 61.4983C174.983 61.4983 175.142 61.6635 175.142 61.8812C175.142 62.0988 174.977 62.2721 174.765 62.2721Z" fill="#073042"/>
<path d="M176.133 62.2721C175.916 62.2721 175.75 62.0988 175.75 61.8812C175.75 61.6635 175.916 61.4983 176.133 61.4983C176.351 61.4983 176.51 61.6635 176.51 61.8812C176.51 62.0988 176.345 62.2721 176.133 62.2721Z" fill="#073042"/>
<path d="M177.504 62.2721C177.286 62.2721 177.121 62.0988 177.121 61.8812C177.121 61.6635 177.286 61.4983 177.504 61.4983C177.722 61.4983 177.881 61.6635 177.881 61.8812C177.881 62.0988 177.716 62.2721 177.504 62.2721Z" fill="#073042"/>
<path d="M178.781 57.0447H179.337L181.346 61.5424L183.356 57.0447H183.92V62.2336H183.394V58.0885L181.544 62.2336H181.161L179.311 58.1046V62.2336H178.785V57.0447H178.781Z" fill="#073042"/>
<path d="M186.912 62.2941C185.754 62.2941 184.875 61.482 184.875 60.1803C184.875 58.8785 185.778 58.0664 186.928 58.0664C188.079 58.0664 188.982 58.8704 188.982 60.1803C188.982 61.4901 188.071 62.2941 186.914 62.2941H186.912ZM186.912 61.8347C187.688 61.8347 188.44 61.3087 188.44 60.1803C188.44 59.0518 187.702 58.5259 186.92 58.5259C186.138 58.5259 185.409 59.0518 185.409 60.1803C185.409 61.3087 186.13 61.8347 186.912 61.8347Z" fill="#073042"/>
<path d="M190.469 62.2336H189.943V58.1268H190.469V58.8563C190.695 58.3525 191.168 58.0522 191.875 58.0522V58.6004H191.732C191.047 58.6004 190.469 58.9087 190.469 59.9384V62.2316V62.2336Z" fill="#073042"/>
<path d="M194.441 62.2941C193.274 62.2941 192.426 61.482 192.426 60.1803C192.426 58.8785 193.26 58.0664 194.441 58.0664C195.622 58.0664 196.381 58.9248 196.381 59.9687C196.381 60.1339 196.381 60.2387 196.367 60.3818H192.96C193.004 61.345 193.675 61.8488 194.441 61.8488C195.14 61.8488 195.614 61.48 195.765 60.9319H196.321C196.134 61.7057 195.471 62.2941 194.441 62.2941ZM192.96 59.9546H195.847C195.87 58.9994 195.178 58.5178 194.419 58.5178C193.659 58.5178 193.02 58.9994 192.96 59.9546Z" fill="#073042"/>
<path d="M199.539 58.5722H198.967V58.1289H199.539V57.8428C199.539 56.9622 199.952 56.541 200.99 56.541V56.9924C200.291 56.9924 200.065 57.2483 200.065 57.8428V58.1289H201.02V58.5722H200.065V62.2357H199.539V58.5722Z" fill="#073042"/>
<path d="M203.646 62.2941C202.487 62.2941 201.608 61.482 201.608 60.1803C201.608 58.8785 202.511 58.0664 203.662 58.0664C204.812 58.0664 205.715 58.8704 205.715 60.1803C205.715 61.4901 204.804 62.2941 203.648 62.2941H203.646ZM203.646 61.8347C204.421 61.8347 205.173 61.3087 205.173 60.1803C205.173 59.0518 204.436 58.5259 203.654 58.5259C202.872 58.5259 202.142 59.0518 202.142 60.1803C202.142 61.3087 202.864 61.8347 203.646 61.8347Z" fill="#073042"/>
<path d="M207.205 62.2336H206.679V58.1268H207.205V58.8563C207.43 58.3525 207.904 58.0522 208.611 58.0522V58.6004H208.468C207.783 58.6004 207.205 58.9087 207.205 59.9384V62.2316V62.2336Z" fill="#073042"/>
<path d="M214.304 58.127H214.846L212.409 64.1662H211.861L212.659 62.2116L210.975 58.127H211.553L212.951 61.6312L214.306 58.127H214.304Z" fill="#073042"/>
<path d="M217.357 62.2941C216.198 62.2941 215.319 61.482 215.319 60.1803C215.319 58.8785 216.222 58.0664 217.373 58.0664C218.523 58.0664 219.426 58.8704 219.426 60.1803C219.426 61.4901 218.515 62.2941 217.359 62.2941H217.357ZM217.357 61.8347C218.132 61.8347 218.884 61.3087 218.884 60.1803C218.884 59.0518 218.147 58.5259 217.365 58.5259C216.583 58.5259 215.853 59.0518 215.853 60.1803C215.853 61.3087 216.575 61.8347 217.357 61.8347Z" fill="#073042"/>
<path d="M223.946 62.2338H223.42V61.5123C223.172 62.0322 222.63 62.3023 222.022 62.3023C221.089 62.3023 220.351 61.73 220.351 60.527V58.127H220.871V60.4665C220.871 61.3773 221.367 61.8428 222.12 61.8428C222.874 61.8428 223.422 61.3612 223.422 60.3617V58.129H223.948V62.2358L223.946 62.2338Z" fill="#073042"/>
<path d="M103.306 46.8483H88.0793C86.042 46.8483 84.3896 45.1959 84.3896 43.1586V41.081C84.3896 39.0438 86.042 37.3914 88.0793 37.3914H99.6158C101.653 37.3914 103.306 39.0438 103.306 41.081V46.8483Z" fill="#073042"/>
<path d="M105.921 62.6105H94.3845C92.3472 62.6105 90.6948 60.9581 90.6948 58.9208V53.1536H105.921C107.958 53.1536 109.611 54.806 109.611 56.8432V58.9208C109.611 60.9581 107.958 62.6105 105.921 62.6105Z" fill="#073042"/>
<path d="M109.611 30H84.466C80.3491 30 77 33.3491 77 37.466V62.6106C77 63.2091 77.4856 63.6947 78.0841 63.6947C78.6826 63.6947 79.1683 63.2091 79.1683 62.6106V38.1189C79.1683 34.8383 81.8383 32.1683 85.1189 32.1683H109.611C110.209 32.1683 110.695 31.6826 110.695 31.0841C110.695 30.4856 110.209 30 109.611 30Z" fill="#073042"/>
<path d="M115.916 36.3052C115.317 36.3052 114.832 36.7908 114.832 37.3893V61.879C114.832 65.1596 112.162 67.8296 108.881 67.8296H84.3893C83.7908 67.8296 83.3052 68.3153 83.3052 68.9137C83.3052 69.5122 83.7908 69.9979 84.3893 69.9979H109.534C113.651 69.9979 117 66.6488 117 62.5319V37.3893C117 36.7908 116.514 36.3052 115.916 36.3052Z" fill="#073042"/>
</g>
<defs>
<clipPath id="clip0_298_9674">
<rect width="146.95" height="40" fill="white" transform="translate(77 30)"/>
</clipPath>
</defs>
</svg>
