<svg width="300" height="100" viewBox="0 0 300 100" fill="none" xmlns="http://www.w3.org/2000/svg">
<rect width="300" height="100" fill="white"/>
<path d="M95.8348 36.3914C93.4235 36.8698 91.2107 38.0139 89.4283 39.7067C88.2634 40.8156 87.5414 41.7725 86.8541 43.1034C85.794 45.158 85.3979 46.8152 85.3979 49.1615C85.3979 51.5077 85.794 53.1654 86.8541 55.2195C87.5414 56.5504 88.2634 57.5073 89.4283 58.6163C91.8625 60.9392 94.8445 62.1184 98.269 62.1184C100.552 62.1184 102.264 61.7214 104.151 60.7758C105.095 60.2973 106.364 59.48 106.364 59.34C106.364 59.2932 105.654 58.5461 104.792 57.6824L103.219 56.1067L102.52 56.4919C101.216 57.2156 100.272 57.4726 98.7232 57.5307C97.547 57.5775 97.1626 57.5541 96.3353 57.3439C92.5264 56.3866 89.9405 53.0835 89.9405 49.1615C89.9405 44.4689 93.6445 40.7571 98.3271 40.7571C104.489 40.7571 108.507 47.0839 105.957 52.7567L105.63 53.4921L107.191 55.0679C108.042 55.9316 108.799 56.6319 108.868 56.6319C109.124 56.6319 110.173 54.6709 110.627 53.3283C111.07 52.0325 111.256 50.7719 111.256 49.161C111.256 46.8148 110.86 45.1571 109.8 43.103C109.113 41.7721 108.391 40.8152 107.226 39.7062C105.42 37.9788 103.208 36.8464 100.738 36.3797C99.5969 36.1578 96.9412 36.1695 95.8348 36.3914ZM142.122 48.4026V56.9821H145.267V39.8232H142.122V48.4026ZM190.741 39.9983C186.396 40.9439 183.297 45.2044 183.822 49.4765C184.09 51.6009 184.847 53.1303 186.373 54.6475C187.829 56.0833 189.098 56.7719 191.043 57.1688C193.175 57.6009 195.831 57.0406 197.602 55.7916L197.927 55.558L198.568 56.1301C199.744 57.1454 199.605 57.1337 200.327 56.3402C201.479 55.0679 201.468 55.1849 200.583 54.3792L199.814 53.6906L200.315 52.8035C202.294 49.3249 201.725 45.2395 198.847 42.3914C197.578 41.119 196.168 40.3602 194.444 39.9983C193.479 39.7881 191.684 39.7881 190.741 39.9983ZM194.177 42.963C196.507 43.6867 198.265 46.1145 198.265 48.6011C198.265 49.3132 197.985 50.4338 197.648 51.0991L197.391 51.5892L196.238 50.5855L195.085 49.5818L194.573 50.1539C194.282 50.4806 193.897 50.9244 193.71 51.1693L193.373 51.5896L194.491 52.5587L195.597 53.5272L195.073 53.7959C194.363 54.1578 193.337 54.4148 192.615 54.4148C189.622 54.4148 186.966 51.613 186.966 48.4733C186.966 47.7847 187.234 46.7108 187.607 45.9519C187.956 45.2399 188.9 44.1426 189.61 43.6525C190.892 42.7762 192.697 42.508 194.177 42.963ZM115.333 41.5155V42.9747H120.691V56.9821H123.952V42.9747H129.31V40.0564H115.333V41.5155ZM203.856 48.5192V56.9821H215.621V54.1808H207.001V40.0568H203.856V48.5192ZM176.134 42.508V44.2588H174.27V46.8269H176.122L176.157 50.8191L176.192 54.823L176.507 55.4068C177.183 56.6908 178.196 57.2746 179.745 57.2746C180.642 57.2746 180.817 57.2395 181.527 56.8893C181.97 56.6674 182.354 56.4226 182.389 56.329C182.424 56.2354 182.331 55.8852 182.191 55.5467C182.04 55.22 181.853 54.7762 181.772 54.566L181.621 54.2042L181.178 54.426C180.666 54.6947 180.199 54.706 179.757 54.4845C179.151 54.1578 179.116 53.9476 179.069 50.2358L179.034 46.8273H181.958V44.2592H179.046V40.7576H176.134V42.508ZM133.911 43.9901C133.189 44.0486 132.105 44.2471 131.465 44.4568C130.964 44.6085 129.578 45.1688 129.438 45.2737C129.379 45.3088 130.37 47.5264 130.439 47.5264C130.463 47.5264 130.672 47.4332 130.917 47.3045C132.78 46.3589 135.063 46.3359 136.112 47.2694C136.45 47.5727 136.881 48.5769 136.881 49.0904C136.881 49.4991 136.857 49.5337 136.624 49.464C134.959 48.9972 133.037 48.8685 131.872 49.1489C130.439 49.4991 129.216 50.433 128.646 51.6C128.366 52.1604 128.319 52.394 128.319 53.246C128.319 54.0746 128.366 54.3433 128.622 54.8802C129.228 56.1409 130.381 56.9582 131.942 57.2265C133.479 57.4952 134.994 57.1563 136.228 56.2692L136.881 55.8024V56.9816H139.909V52.7095C139.909 48.1686 139.863 47.6317 139.303 46.5461C138.977 45.9043 137.964 44.9236 137.277 44.5734C136.403 44.1418 135.017 43.8969 133.911 43.9901ZM135.308 51.2624C135.762 51.3327 136.298 51.4375 136.508 51.5073C136.881 51.6239 136.881 51.6356 136.881 52.3827C136.881 53.2464 136.717 53.6434 136.135 54.1452C134.831 55.301 132.361 55.2542 131.557 54.0637C131.092 53.3868 131.231 52.3944 131.872 51.8692C132.688 51.2039 133.654 51.0289 135.308 51.2624ZM152.664 44.0256C151.231 44.189 149.938 44.8078 148.936 45.8232C148.051 46.7103 147.539 47.5974 147.248 48.7645C146.257 52.6514 148.424 56.3168 152.221 57.1688C154.237 57.6126 156.974 56.9821 158.441 55.7214L158.919 55.3127L158.011 54.4022L157.114 53.4917L156.811 53.7019C156.333 54.0403 155.39 54.4841 154.796 54.6475C154.085 54.8343 152.664 54.7528 152.128 54.4841C151.173 54.0291 150.346 52.9899 150.09 51.9277L150.02 51.6126H159.827L159.781 51.1693C159.746 50.9357 159.688 50.3753 159.653 49.9437C159.466 47.7257 158.127 45.4614 156.496 44.6323C155.471 44.1071 153.992 43.8735 152.664 44.0256ZM154.598 46.6518C155.588 47.002 156.275 47.7842 156.636 48.9864L156.788 49.5116H153.421C151.558 49.5116 150.044 49.4882 150.044 49.4648C150.044 49.2546 150.451 48.3558 150.731 47.9589C151.557 46.745 153.246 46.1734 154.598 46.6518ZM167.492 44.0369C166.641 44.1652 165.71 44.5972 165.022 45.2044L164.487 45.6828V44.2588H161.342V56.9825H164.475L164.51 52.8152C164.545 48.7415 164.557 48.6245 164.801 48.1461C165.29 47.2473 166.315 46.6752 167.457 46.6752C168.505 46.6635 169.274 47.1307 169.763 48.0525C170.008 48.508 170.019 48.6713 170.054 52.745L170.09 56.9825H173.107V52.5114C173.107 49.1732 173.06 47.9008 172.944 47.4687C172.302 45.0176 170.112 43.6516 167.492 44.0369Z" fill="black"/>
<path d="M98.3471 54.4624C101.244 54.4624 103.593 52.114 103.593 49.2169C103.593 46.3199 101.244 43.9714 98.3471 43.9714C95.4501 43.9714 93.1016 46.3199 93.1016 49.2169C93.1016 52.114 95.4501 54.4624 98.3471 54.4624Z" fill="black"/>
</svg>
