<svg width="300" height="100" viewBox="0 0 300 100" fill="none" xmlns="http://www.w3.org/2000/svg">
<rect width="300" height="100" fill="white"/>
<g clip-path="url(#clip0_298_9656)">
<path fill-rule="evenodd" clip-rule="evenodd" d="M73.2969 30H112.03V68.7335H73.2969V30ZM75.8791 32.5822V66.1512H109.448V32.5822H75.8791Z" fill="#1A182B"/>
<path fill-rule="evenodd" clip-rule="evenodd" d="M88.0858 45.2582V43.9851C89.2101 43.3097 90.1022 42.0809 90.5619 40.5632H91.3723V45.2582H88.0858ZM91.3723 45.2582L88.0858 48.5446V51.1269C88.0858 54.8867 91.1338 57.9347 94.8936 57.9347H97.4758V54.6481H94.8936C92.9488 54.6481 91.3723 53.0716 91.3723 51.1269V48.5446H97.4758V45.2582H91.3723Z" fill="#1A182B"/>
<path d="M127.27 59.7195C125.843 59.7195 124.679 59.3251 123.777 58.5363C122.895 57.7288 122.453 56.5644 122.453 55.0433V48.2544H119.524V45.4937H122.453V41.5781H125.552V45.4937H129.58V48.2544H125.552V54.5363C125.552 55.4002 125.74 56.0199 126.115 56.3954C126.491 56.7523 127.092 56.9306 127.918 56.9306C128.594 56.9306 129.148 56.8368 129.58 56.6489V59.4096C128.904 59.6162 128.134 59.7195 127.27 59.7195Z" fill="#1A182B"/>
<path d="M138.101 59.8604C136.186 59.8604 134.571 59.1469 133.256 57.7195C131.96 56.2923 131.312 54.5645 131.312 52.5363C131.312 50.508 131.96 48.7803 133.256 47.3531C134.571 45.9258 136.186 45.2122 138.101 45.2122C139.059 45.2122 139.942 45.4282 140.749 45.86C141.557 46.2732 142.176 46.7803 142.608 47.3812V45.4938H145.707V59.5787H142.608V57.6914C142.176 58.2923 141.557 58.8088 140.749 59.2407C139.942 59.6538 139.059 59.8604 138.101 59.8604ZM135.65 55.7476C136.439 56.6115 137.444 57.0435 138.665 57.0435C139.885 57.0435 140.89 56.6115 141.679 55.7476C142.467 54.8838 142.862 53.8133 142.862 52.5363C142.862 51.2593 142.467 50.1888 141.679 49.3249C140.89 48.4611 139.885 48.0292 138.665 48.0292C137.444 48.0292 136.439 48.4611 135.65 49.3249C134.862 50.1888 134.467 51.2593 134.467 52.5363C134.467 53.8133 134.862 54.8838 135.65 55.7476Z" fill="#1A182B"/>
<path d="M149.905 59.5788V38.4514H153.004V59.5788H149.905Z" fill="#1A182B"/>
<path d="M161.646 59.8604C160.351 59.8604 159.205 59.6163 158.21 59.128C157.214 58.6209 156.473 57.8698 155.984 56.8745L158.266 55.2407C158.548 55.8416 158.999 56.3204 159.618 56.6773C160.238 57.0153 160.914 57.1843 161.646 57.1843C162.229 57.1843 162.708 57.0529 163.083 56.79C163.478 56.527 163.675 56.1608 163.675 55.6914C163.675 55.2782 163.515 54.9402 163.196 54.6772C162.895 54.4144 162.332 54.1514 161.506 53.8884L160.266 53.5505C157.769 52.8744 156.538 51.4377 156.576 49.2404C156.576 48.0198 157.055 47.0431 158.013 46.3107C158.97 45.5784 160.172 45.2122 161.618 45.2122C163.797 45.2122 165.384 46.0104 166.379 47.6066L164.238 49.2404C163.525 48.2826 162.633 47.8038 161.562 47.8038C161.055 47.8038 160.614 47.9258 160.238 48.17C159.862 48.3954 159.675 48.7146 159.675 49.1278C159.675 49.5034 159.797 49.8226 160.041 50.0856C160.285 50.3484 160.726 50.5833 161.365 50.7898L162.801 51.2123C164.116 51.6067 165.102 52.142 165.759 52.818C166.417 53.4753 166.745 54.3674 166.745 55.4941C166.745 56.8275 166.266 57.8885 165.309 58.6773C164.351 59.4661 163.13 59.8604 161.646 59.8604Z" fill="#1A182B"/>
<path d="M175.88 59.7195C174.453 59.7195 173.288 59.3251 172.387 58.5363C171.504 57.7288 171.063 56.5644 171.063 55.0433V48.2544H168.133V45.4937H171.063V41.5781H174.161V45.4937H178.19V48.2544H174.161V54.5363C174.161 55.4002 174.349 56.0199 174.725 56.3954C175.1 56.7523 175.701 56.9306 176.528 56.9306C177.204 56.9306 177.758 56.8368 178.19 56.6489V59.4096C177.514 59.6162 176.744 59.7195 175.88 59.7195Z" fill="#1A182B"/>
<path d="M186.711 59.8604C184.795 59.8604 183.18 59.1469 181.865 57.7195C180.57 56.2923 179.922 54.5645 179.922 52.5363C179.922 50.508 180.57 48.7803 181.865 47.3531C183.18 45.9258 184.795 45.2122 186.711 45.2122C187.668 45.2122 188.551 45.4282 189.359 45.86C190.166 46.2732 190.786 46.7803 191.218 47.3812V45.4938H194.316V59.5787H191.218V57.6914C190.786 58.2923 190.166 58.8088 189.359 59.2407C188.551 59.6538 187.668 59.8604 186.711 59.8604ZM184.26 55.7476C185.049 56.6115 186.053 57.0435 187.274 57.0435C188.495 57.0435 189.499 56.6115 190.288 55.7476C191.077 54.8838 191.471 53.8133 191.471 52.5363C191.471 51.2593 191.077 50.1888 190.288 49.3249C189.499 48.4611 188.495 48.0292 187.274 48.0292C186.053 48.0292 185.049 48.4611 184.26 49.3249C183.471 50.1888 183.077 51.2593 183.077 52.5363C183.077 53.8133 183.471 54.8838 184.26 55.7476Z" fill="#1A182B"/>
<path d="M204.937 59.8604C202.816 59.8604 201.04 59.1656 199.613 57.7759C198.204 56.3674 197.5 54.6209 197.5 52.5363C197.5 50.4518 198.204 48.7146 199.613 47.3249C201.04 45.9164 202.816 45.2122 204.937 45.2122C206.383 45.2122 207.679 45.5596 208.825 46.2545C209.988 46.9493 210.881 47.8977 211.501 49.0996L208.796 50.5644C208.44 49.8132 207.923 49.2123 207.247 48.7616C206.57 48.3109 205.801 48.0854 204.937 48.0854C203.698 48.0854 202.674 48.5174 201.867 49.3813C201.059 50.2264 200.655 51.2781 200.655 52.5363C200.655 53.7946 201.059 54.8556 201.867 55.7195C202.674 56.5645 203.698 56.9871 204.937 56.9871C205.801 56.9871 206.57 56.7618 207.247 56.3111C207.923 55.8603 208.44 55.2594 208.796 54.5082L211.501 55.9731C210.881 57.175 209.988 58.1234 208.825 58.8182C207.679 59.5131 206.383 59.8604 204.937 59.8604Z" fill="#1A182B"/>
<path d="M224.164 59.5788L217.431 52.7899V59.5788H214.333V38.4514H217.431V50.8461L222.812 45.4939H226.727L220.445 51.7758L228.136 59.5788H224.164Z" fill="#1A182B"/>
</g>
<defs>
<clipPath id="clip0_298_9656">
<rect width="154.839" height="40" fill="white" transform="translate(73.2969 30)"/>
</clipPath>
</defs>
</svg>
