<svg width="300" height="100" viewBox="0 0 300 100" fill="none" xmlns="http://www.w3.org/2000/svg">
<rect width="300" height="100" fill="white"/>
<path d="M135.04 65V35.04H165V58.52L164.88 58.652C163.376 60.16 161.868 61.664 160.36 63.168C159.748 63.78 159.136 64.388 158.52 65H135.04ZM154.764 46.584H155.848C156.16 46.584 156.248 46.668 156.252 46.988C156.252 47.52 156.248 48.056 156.248 48.588C156.248 48.9 156.356 49.02 156.664 49.02C157.792 49.024 158.916 49.024 160.044 49.02C160.432 49.016 160.52 48.912 160.52 48.524C160.52 46.836 160.524 45.152 160.524 43.464C160.524 43.004 160.436 42.908 159.98 42.908C158.048 42.904 156.112 42.908 154.18 42.904C153.952 42.904 153.752 42.96 153.58 43.128C152.704 44.004 151.832 44.888 150.94 45.744C150.596 46.072 150.48 46.448 150.48 46.904C150.484 50.356 150.484 53.808 150.484 57.264C150.484 57.356 150.488 57.452 150.492 57.544C150.516 57.844 150.516 57.844 150.824 57.844C152.876 57.844 154.932 57.84 156.984 57.848C157.236 57.848 157.436 57.772 157.612 57.596C158.472 56.74 159.336 55.888 160.196 55.032C160.392 54.836 160.496 54.6 160.496 54.316C160.5 53.008 160.508 51.704 160.516 50.396C160.516 50.068 160.408 49.968 160.08 49.968C159.28 49.968 158.48 49.972 157.68 49.972C157.332 49.972 156.988 49.964 156.64 49.968C156.368 49.968 156.268 50.068 156.248 50.336C156.244 50.408 156.244 50.484 156.244 50.556C156.244 51.808 156.244 53.064 156.248 54.316V54.532H154.76C154.764 51.888 154.764 49.256 154.764 46.584ZM139.556 42.972V43.176C139.556 46.668 139.56 50.16 139.56 53.652C139.56 54.164 139.712 54.612 140.06 54.984C140.852 55.828 141.656 56.664 142.456 57.504C142.7 57.76 142.984 57.864 143.348 57.864C145.316 57.852 147.28 57.856 149.248 57.856C149.544 57.856 149.552 57.848 149.556 57.54L149.604 49.424C149.608 49.024 149.532 48.952 149.124 48.952C148.064 48.948 147.004 48.948 145.944 48.94C145.38 48.936 145.296 49.016 145.3 49.58C145.308 50.908 145.308 52.232 145.312 53.56C145.312 53.756 145.296 53.952 145.288 54.144H143.856V47.404H144.08C145.7 47.4 147.32 47.4 148.94 47.396C149 47.396 149.06 47.4 149.12 47.392C149.344 47.364 149.54 47.236 149.54 47.092C149.548 46.328 149.544 45.56 149.544 44.776C149.456 44.768 149.356 44.756 149.26 44.756C147.772 44.748 146.288 44.744 144.8 44.732C144.612 44.732 144.428 44.724 144.24 44.7C143.98 44.664 143.868 44.564 143.844 44.304C143.812 44 143.808 43.692 143.808 43.388C143.804 43.012 143.724 42.92 143.336 42.92H140.016C139.864 42.928 139.72 42.956 139.556 42.972Z" fill="#F13204"/>
<path d="M158.524 65.0001C159.136 64.3881 159.752 63.7801 160.364 63.1681C161.872 61.6641 163.376 60.1561 164.884 58.6521C164.928 58.6081 164.964 58.5641 165.004 58.5201C165.016 58.5201 165.028 58.5201 165.044 58.5161V65.0361H158.524C158.52 65.0281 158.52 65.0161 158.524 65.0001Z" fill="#FEFEFE"/>
<path d="M165.04 58.5199C165.028 58.5199 165.016 58.5239 165 58.5239V44.3559V35.0439C165.012 35.0519 165.036 35.0559 165.04 35.0639C165.044 35.1159 165.04 35.1719 165.04 35.2239V58.5199Z" fill="#F45E3A"/>
<path d="M158.524 65C158.52 65.012 158.52 65.024 158.52 65.04H135.22C135.16 65.04 135.1 65.016 135.04 65H158.524Z" fill="#F46543"/>
<path d="M154.764 46.5839V54.5279H156.252V54.3119C156.252 53.0599 156.252 51.8039 156.248 50.5519C156.248 50.4799 156.244 50.4039 156.252 50.3319C156.272 50.0639 156.372 49.9639 156.644 49.9639C156.992 49.9639 157.336 49.9679 157.684 49.9679C158.484 49.9679 159.284 49.9639 160.084 49.9639C160.412 49.9639 160.52 50.0639 160.52 50.3919C160.516 51.6999 160.504 53.0039 160.5 54.3119C160.5 54.5959 160.396 54.8319 160.2 55.0279C159.34 55.8839 158.476 56.7359 157.616 57.5919C157.44 57.7639 157.24 57.8439 156.988 57.8439C154.936 57.8399 152.88 57.8399 150.828 57.8399C150.52 57.8399 150.52 57.8399 150.496 57.5399C150.488 57.4479 150.488 57.3519 150.488 57.2599C150.488 53.8079 150.492 50.3559 150.484 46.8999C150.484 46.4439 150.6 46.0679 150.944 45.7399C151.836 44.8799 152.708 43.9999 153.584 43.1239C153.752 42.9559 153.956 42.8999 154.184 42.8999C156.116 42.8999 158.052 42.8999 159.984 42.9039C160.44 42.9039 160.528 43.0039 160.528 43.4599C160.528 45.1479 160.528 46.8319 160.524 48.5199C160.524 48.9119 160.432 49.0159 160.048 49.0159C158.92 49.0239 157.796 49.0199 156.668 49.0159C156.36 49.0159 156.252 48.8999 156.252 48.5839C156.252 48.0519 156.256 47.5159 156.256 46.9839C156.256 46.6639 156.168 46.5799 155.852 46.5799C155.488 46.5839 155.128 46.5839 154.764 46.5839ZM139.556 42.9719C139.724 42.9559 139.868 42.9279 140.012 42.9279C141.12 42.9239 142.224 42.9239 143.332 42.9279C143.72 42.9279 143.8 43.0159 143.804 43.3959C143.808 43.6999 143.812 44.0079 143.84 44.3119C143.868 44.5719 143.976 44.6719 144.236 44.7079C144.42 44.7319 144.608 44.7399 144.796 44.7399L149.256 44.7639C149.356 44.7639 149.452 44.7759 149.54 44.7839C149.54 45.5679 149.544 46.3319 149.536 47.0999C149.536 47.2479 149.34 47.3759 149.116 47.3999C149.056 47.4079 148.996 47.4039 148.936 47.4039C147.316 47.4079 145.696 47.4079 144.076 47.4119H143.852V54.1519H145.284C145.292 53.9599 145.312 53.7639 145.308 53.5679C145.308 52.2399 145.304 50.9159 145.296 49.5879C145.292 49.0239 145.376 48.9439 145.94 48.9479C147 48.9559 148.06 48.9559 149.12 48.9599C149.528 48.9599 149.604 49.0319 149.6 49.4319L149.552 57.5479C149.552 57.8599 149.54 57.8639 149.244 57.8639C147.276 57.8639 145.312 57.8559 143.344 57.8719C142.984 57.8759 142.696 57.7679 142.452 57.5119C141.652 56.6719 140.848 55.8359 140.056 54.9919C139.708 54.6199 139.556 54.1719 139.556 53.6599C139.56 50.1679 139.556 46.6759 139.552 43.1839C139.556 43.1199 139.556 43.0599 139.556 42.9719Z" fill="#FEFDFD"/>
</svg>
