<svg width="300" height="100" viewBox="0 0 300 100" fill="none" xmlns="http://www.w3.org/2000/svg">
<rect width="300" height="100" fill="white"/>
<g clip-path="url(#clip0_298_9608)">
<path d="M134.663 62.7376H133V61.9441H137.255V62.7376H135.592V66.9545H134.663V62.7376ZM140.708 65.3372H137.693C137.799 65.8889 138.267 66.2441 138.932 66.2441C139.124 66.2529 139.315 66.2211 139.494 66.1508C139.672 66.0804 139.834 65.9732 139.968 65.836L140.451 66.3877C140.104 66.7958 139.567 67.0074 138.91 67.0074C137.625 67.0074 136.794 66.1836 136.794 65.0425C136.794 63.9014 137.655 63.1003 138.789 63.1003C139.907 63.1003 140.723 63.8787 140.723 65.0727L140.708 65.3448V65.3372ZM137.685 64.7402H139.862C139.794 64.1885 139.371 63.8107 138.781 63.8107C138.516 63.8012 138.258 63.8914 138.056 64.0635C137.855 64.2357 137.725 64.4771 137.693 64.7402H137.685ZM140.905 65.0501C140.905 63.9014 141.759 63.1003 142.975 63.1003C143.716 63.1003 144.313 63.4026 144.608 63.9845L143.913 64.385C143.686 64.0223 143.346 63.856 142.968 63.856C142.303 63.856 141.804 64.3095 141.804 65.0501C141.804 65.7982 142.303 66.2441 142.968 66.2441C143.346 66.2441 143.686 66.0778 143.913 65.7151L144.608 66.1156C144.305 66.6824 143.716 67.0074 142.975 67.0074C141.766 67.0074 140.905 66.1987 140.905 65.0501ZM148.749 64.7704V66.962H147.857V64.8914C147.857 64.2112 147.525 63.8787 146.951 63.8787C146.308 63.8787 145.877 64.2641 145.877 65.0274V66.962H144.986V61.6493H145.877V63.584C146.172 63.2666 146.626 63.0928 147.155 63.0928C148.069 63.0928 148.749 63.6218 148.749 64.7704ZM153.593 65.0501C153.593 66.2441 152.762 67.0149 151.651 67.0149C151.16 67.0149 150.737 66.8487 150.427 66.501V68.3525H149.535V63.1381H150.381V63.6369C150.684 63.2741 151.13 63.0928 151.651 63.0928C151.911 63.0819 152.17 63.1254 152.412 63.2206C152.654 63.3158 152.874 63.4605 153.057 63.6455C153.24 63.8305 153.382 64.0517 153.474 64.2949C153.567 64.5381 153.607 64.7979 153.593 65.0576V65.0501ZM152.686 65.0501C152.686 64.317 152.195 63.856 151.553 63.856C150.903 63.856 150.419 64.3246 150.419 65.0501C150.419 65.7755 150.903 66.2441 151.553 66.2441C152.203 66.2441 152.686 65.7755 152.686 65.0501ZM153.775 65.0501C153.775 63.9014 154.629 63.1003 155.8 63.1003C156.994 63.1003 157.84 63.9089 157.84 65.0501C157.84 66.1987 156.994 67.0149 155.8 67.0149C154.629 67.0149 153.775 66.1987 153.775 65.0501ZM156.949 65.0501C156.949 64.317 156.457 63.856 155.807 63.856C155.165 63.856 154.674 64.3246 154.674 65.0501C154.674 65.7755 155.165 66.2441 155.807 66.2441C156.457 66.2441 156.941 65.7755 156.941 65.0501H156.949ZM158.226 61.9667C158.226 61.6645 158.468 61.4377 158.793 61.4377C159.118 61.4377 159.367 61.6645 159.367 61.9516C159.367 62.2615 159.133 62.5109 158.793 62.5109C158.468 62.5109 158.226 62.2766 158.226 61.9743V61.9667ZM158.347 63.1381H159.238V66.9545H158.347V63.1381ZM163.833 64.7704V66.962H162.926V64.8914C162.926 64.2112 162.594 63.8787 162.019 63.8787C161.385 63.8787 160.954 64.2641 160.954 65.0274V66.962H160.055V63.1381H160.901V63.6369C161.067 63.4559 161.271 63.3139 161.498 63.2211C161.726 63.1284 161.971 63.0871 162.216 63.1003C163.138 63.0928 163.818 63.6142 163.818 64.7704H163.833ZM166.909 66.758C166.657 66.9351 166.355 67.0253 166.047 67.0149C165.216 67.0149 164.732 66.5615 164.732 65.7227V63.8787H164.098V63.1759H164.732V62.2993H165.624V63.1759H166.652V63.8863H165.624V65.7075C165.624 66.0854 165.813 66.2819 166.153 66.2819C166.342 66.2819 166.524 66.229 166.66 66.1232L166.909 66.758Z" fill="#1A1A1A"/>
<path d="M159.148 69.5541V69.9621H158.709V69.5541H159.148ZM160.825 69.9244L160.75 69.9621L160.674 69.9848L160.629 69.9924H160.599C160.564 69.9929 160.529 69.9865 160.497 69.9735C160.464 69.9605 160.435 69.9413 160.41 69.9168L160.349 69.8412C160.327 69.811 160.319 69.7808 160.304 69.743C160.231 69.8282 160.141 69.8976 160.04 69.947L159.919 69.9848C159.805 70.0084 159.688 70.0006 159.579 69.9621C159.518 69.9395 159.465 69.9017 159.412 69.8639C159.366 69.8219 159.33 69.7703 159.306 69.7128C159.276 69.6523 159.269 69.5843 159.269 69.5087C159.269 69.4483 159.276 69.3954 159.306 69.35C159.334 69.2991 159.373 69.2551 159.42 69.2215L159.579 69.1384L159.76 69.0704L159.949 69.0175L160.1 68.957C160.141 68.9377 160.18 68.9122 160.213 68.8815C160.244 68.8588 160.259 68.8286 160.259 68.7983C160.261 68.7668 160.254 68.7353 160.238 68.7082C160.221 68.6811 160.197 68.6597 160.168 68.6472C160.145 68.6396 160.115 68.6245 160.077 68.6245L159.979 68.617L159.881 68.6245L159.79 68.6699C159.767 68.685 159.745 68.7152 159.73 68.7454C159.707 68.7757 159.699 68.8135 159.692 68.8512H159.314C159.317 68.7663 159.34 68.6834 159.382 68.6094C159.421 68.541 159.473 68.481 159.535 68.4329C159.597 68.3849 159.669 68.3499 159.745 68.3298C159.82 68.3071 159.896 68.292 159.972 68.292C160.062 68.292 160.145 68.3071 160.228 68.3222C160.312 68.3449 160.38 68.3751 160.44 68.4205C160.501 68.4658 160.546 68.5112 160.584 68.5716C160.621 68.6472 160.637 68.7228 160.637 68.8135V69.5994C160.637 69.6221 160.644 69.6372 160.659 69.6599C160.674 69.6825 160.689 69.6825 160.72 69.6825H160.75C160.765 69.6825 160.803 69.6674 160.825 69.6447V69.9168V69.9244ZM160.251 69.1838C160.228 69.1989 160.198 69.214 160.153 69.2215L160.032 69.2593L159.888 69.2971L159.76 69.35C159.722 69.3651 159.692 69.3878 159.669 69.4105C159.647 69.4331 159.639 69.4709 159.639 69.5012C159.639 69.5314 159.639 69.5616 159.654 69.5767C159.669 69.607 159.677 69.6221 159.699 69.6372L159.76 69.675H159.82C159.896 69.675 159.972 69.6523 160.047 69.607C160.123 69.5616 160.198 69.4785 160.259 69.3802V69.1838H160.251ZM161.082 68.3374V68.0124C161.082 67.9595 161.09 67.9142 161.113 67.8764C161.135 67.8308 161.167 67.7904 161.206 67.7578C161.245 67.7253 161.29 67.7013 161.339 67.6874C161.412 67.6635 161.49 67.6558 161.566 67.6648L161.642 67.6723C161.672 67.6723 161.702 67.6874 161.74 67.7026L161.868 67.7479V68.0502L161.74 68.0048L161.657 67.9822L161.604 67.9746H161.581L161.536 67.9822L161.498 68.0048C161.483 68.0124 161.475 68.0275 161.475 68.0426C161.46 68.0502 161.46 68.0729 161.46 68.088V68.3222H161.763V68.6396H161.46V69.9546H161.082V68.6396H160.825V68.3298L161.082 68.3374ZM161.868 68.3374H162.148L162.208 68.5338C162.254 68.4583 162.307 68.3978 162.36 68.36C162.412 68.3222 162.473 68.3071 162.533 68.3071L162.632 68.3147L162.783 68.3751V68.7077L162.677 68.6699L162.609 68.6548H162.549C162.496 68.6548 162.458 68.6548 162.42 68.6774L162.322 68.753C162.27 68.8254 162.243 68.9132 162.246 69.0024V69.9773H161.861V68.3374H161.868ZM163.229 67.7328V68.1106H162.851V67.7328H163.229ZM163.229 68.3374V69.9621H162.851V68.3374H163.229ZM164.476 68.9193C164.445 68.8135 164.408 68.7303 164.362 68.685C164.309 68.6321 164.249 68.6094 164.166 68.6094C164.113 68.6094 164.06 68.6245 164.015 68.6548C163.969 68.685 163.931 68.7228 163.894 68.7681C163.83 68.8757 163.796 68.9983 163.795 69.1233C163.795 69.1989 163.811 69.2744 163.826 69.3349C163.853 69.4538 163.92 69.5601 164.015 69.6372C164.06 69.675 164.113 69.6901 164.166 69.6901C164.204 69.6901 164.241 69.6825 164.279 69.6599C164.317 69.6372 164.347 69.6145 164.37 69.5843C164.4 69.5465 164.423 69.5087 164.438 69.4634L164.476 69.3198H164.869C164.853 69.4256 164.831 69.5238 164.793 69.607C164.759 69.6865 164.71 69.7584 164.647 69.8182C164.585 69.878 164.511 69.9244 164.43 69.9546C164.267 70.0129 164.089 70.0156 163.924 69.9621C163.792 69.9197 163.678 69.8346 163.599 69.7203C163.561 69.6674 163.523 69.607 163.501 69.5465C163.447 69.4148 163.421 69.2732 163.425 69.1309C163.425 69.0099 163.44 68.9041 163.478 68.7983C163.516 68.7001 163.569 68.6094 163.629 68.5338C163.697 68.4583 163.78 68.4054 163.863 68.3676C164.048 68.2883 164.257 68.2829 164.445 68.3525C164.521 68.3827 164.589 68.428 164.649 68.4809C164.702 68.5338 164.755 68.6019 164.793 68.6774C164.831 68.753 164.853 68.8286 164.869 68.9193H164.476ZM166.539 69.9244L166.456 69.9621L166.388 69.9848L166.342 69.9924H166.304C166.269 69.9929 166.235 69.9865 166.202 69.9735C166.17 69.9605 166.14 69.9413 166.115 69.9168L166.055 69.8412L166.01 69.743C165.938 69.8274 165.851 69.8968 165.753 69.947L165.624 69.9848C165.513 70.007 165.399 69.9992 165.292 69.9621C165.216 69.9395 165.171 69.9017 165.125 69.8639C165.077 69.8227 165.038 69.771 165.012 69.7128C164.989 69.6523 164.974 69.5843 164.974 69.5087C164.974 69.4483 164.989 69.3954 165.02 69.35C165.047 69.2991 165.086 69.2551 165.133 69.2215L165.284 69.1384C165.352 69.1082 165.405 69.0855 165.473 69.0704L165.654 69.0175L165.806 68.957C165.85 68.9384 165.89 68.9129 165.927 68.8815C165.949 68.8588 165.972 68.8286 165.972 68.7983C165.974 68.7659 165.965 68.7337 165.948 68.7065C165.93 68.6793 165.904 68.6585 165.874 68.6472C165.851 68.6396 165.821 68.6245 165.783 68.6245L165.685 68.617L165.586 68.6245C165.556 68.6321 165.526 68.6472 165.503 68.6699C165.473 68.685 165.45 68.7152 165.435 68.7454C165.42 68.7757 165.405 68.8135 165.405 68.8512H165.02C165.023 68.7663 165.046 68.6834 165.088 68.6094C165.126 68.541 165.179 68.481 165.241 68.4329C165.303 68.3849 165.374 68.3499 165.45 68.3298C165.526 68.3071 165.602 68.292 165.685 68.292C165.775 68.292 165.859 68.3071 165.942 68.3222C166.017 68.3449 166.093 68.3751 166.146 68.4205C166.199 68.4658 166.259 68.5112 166.297 68.5716C166.327 68.6472 166.342 68.7228 166.342 68.8135V69.5994C166.342 69.6221 166.35 69.6372 166.365 69.6599C166.38 69.6825 166.403 69.6825 166.425 69.6825H166.463C166.486 69.6825 166.508 69.6674 166.539 69.6447V69.9168V69.9244ZM165.957 69.1838L165.866 69.2215L165.738 69.2593L165.602 69.2971L165.473 69.35C165.435 69.3651 165.398 69.3878 165.382 69.4105C165.367 69.4331 165.345 69.4709 165.345 69.5012C165.345 69.5314 165.345 69.5616 165.36 69.5767L165.405 69.6372L165.466 69.675H165.534C165.609 69.675 165.685 69.6523 165.76 69.607C165.836 69.5616 165.904 69.4785 165.964 69.3802V69.1838H165.957Z" fill="#3199D0"/>
<path d="M162.095 47.1774C162.095 52.8604 158.007 57.8104 152.407 58.9137C150.841 59.2412 149.226 59.2555 147.655 58.9557C146.084 58.6559 144.588 58.0479 143.253 57.1669C141.918 56.2858 140.771 55.1492 139.878 53.8225C138.984 52.4957 138.362 51.0053 138.048 49.437C136.945 44.1017 139.817 38.5547 144.88 36.2422C145.341 36.0155 145.341 36.0155 145.484 36.537C145.908 38.0862 146.316 39.6505 146.762 41.1922C146.837 41.4491 146.814 41.5776 146.558 41.7212C145.456 42.393 144.584 43.3835 144.058 44.5616C143.532 45.7397 143.376 47.0498 143.61 48.3186C143.86 49.6267 144.509 50.825 145.469 51.7482C146.429 52.6714 147.651 53.2739 148.968 53.4725C152.611 54.0242 155.996 51.4321 156.382 47.782C156.536 46.1805 156.083 44.5794 155.111 43.2969C154.139 42.0145 152.721 41.1444 151.137 40.8597C150.767 40.8068 150.404 40.7539 150.034 40.7539C149.883 40.7539 149.807 40.7161 149.777 40.5498L148.394 35.4487C148.303 35.1389 148.56 35.2145 148.674 35.2145C149.542 35.104 150.42 35.104 151.288 35.2145C154.236 35.5621 156.752 36.7788 158.793 38.9326C160.915 41.1485 162.096 44.1012 162.087 47.1699L162.095 47.1774Z" fill="#3099CF"/>
<path d="M145.802 46.8449C145.84 45.7038 146.482 44.54 147.736 43.7162C147.933 43.5878 147.971 43.4744 147.918 43.2552C147.238 40.7538 146.557 38.2524 145.892 35.7283C145.853 35.5746 145.755 35.442 145.62 35.358L144.29 34.6401C144.213 34.6047 144.146 34.5522 144.092 34.4868C144.038 34.4213 144 34.3446 143.98 34.2622C143.731 33.3251 143.497 32.4258 143.24 31.5114C143.164 31.2923 143.24 31.2394 143.444 31.1411C143.761 31.0353 143.973 31.0882 144.237 31.3074C144.714 31.7306 145.227 32.1236 145.726 32.5241C146.006 32.7508 146.172 32.6903 146.301 32.3729L147.056 30.4081C147.132 30.2267 147.623 29.9698 147.789 30C147.88 30.0227 147.88 30.1134 147.903 30.1889L148.673 33.0606C148.688 33.1291 148.689 33.1997 148.676 33.2685C148.663 33.3372 148.636 33.4027 148.598 33.4612C148.326 33.907 148.069 34.3454 147.789 34.7686C147.745 34.8359 147.717 34.9127 147.708 34.9927C147.699 35.0728 147.708 35.1539 147.736 35.2295L149.777 42.7791C149.83 42.9756 149.905 43.0512 150.124 43.0512C151.159 43.0785 152.147 43.4897 152.896 44.2048C153.644 44.9199 154.1 45.8879 154.175 46.9205C154.246 47.9744 153.912 49.0156 153.243 49.8326C152.573 50.6495 151.618 51.1809 150.57 51.3187C148.046 51.6966 145.802 49.7544 145.802 46.8449Z" fill="#3199CF"/>
</g>
<defs>
<clipPath id="clip0_298_9608">
<rect width="33.9089" height="40" fill="white" transform="translate(133 30)"/>
</clipPath>
</defs>
</svg>
