<svg width="300" height="100" viewBox="0 0 300 100" fill="none" xmlns="http://www.w3.org/2000/svg">
<rect width="300" height="100" fill="white"/>
<g clip-path="url(#clip0_311_132)">
<g clip-path="url(#clip1_311_132)">
<path d="M91.2327 57.876C90.2004 48.5084 86.8357 41.626 82.8592 41.626C78.8827 41.626 75.4797 48.5084 74.4856 57.876H69.4003C67.4885 52.2937 62.9768 48.3554 57.7003 48.3554C52.4238 48.3554 47.912 52.2937 46.0002 57.876H60.9121C62.2885 50.3436 66.265 44.9525 70.9297 44.9525C75.5945 44.9525 79.5327 50.3819 80.9474 57.876H91.2327Z" fill="#142531"/>
<path d="M106.565 57.9141V48.2788H101.518V44.9141H116.392V48.2788H111.345V57.9141H106.565Z" fill="#142531"/>
<path d="M117.463 57.9141V44.9141H131.189V47.8582H122.089V50.0376H130.463V52.5611H122.089V54.97H131.342V57.9141H117.424H117.463Z" fill="#142531"/>
<path d="M132.221 51.4143C132.221 47.2466 135.701 44.6084 141.169 44.6084C146.636 44.6084 148.548 46.4055 149.427 49.2731L145.069 50.1525C144.61 48.8143 143.157 47.9731 141.283 47.9731C139.41 47.9731 137.001 49.3114 137.001 51.4143C137.001 53.5173 138.874 54.8555 141.819 54.8555C144.763 54.8555 145.871 53.8231 146.216 52.2172L150.651 52.982C149.963 56.1555 146.483 58.182 141.704 58.182C136.924 58.182 132.221 55.6967 132.221 51.3761V51.4143Z" fill="#142531"/>
<path d="M151.836 57.9141V44.9141H157.571L164.53 53.3259V44.9141H169.042V57.8759H163.307L156.348 49.3494V57.8759H151.836V57.9141Z" fill="#142531"/>
<path d="M170.877 57.9141V44.9141H175.657V57.8759H170.877V57.9141Z" fill="#142531"/>
<path d="M177.454 57.9141V44.9141H183.61L188.121 53.67H188.16L192.595 44.9141H198.865V57.8759H194.354V49.77H194.315L190.262 57.8759H186.21L182.004 49.8082H181.965V57.8759H177.454V57.9141Z" fill="#142531"/>
<path d="M200.357 51.4142C200.357 47.2465 204.18 44.4553 209.878 44.4553C215.575 44.4553 219.398 47.2083 219.398 51.4142C219.398 55.6201 215.575 58.373 209.878 58.373C204.18 58.373 200.357 55.5818 200.357 51.4142ZM214.619 51.4142C214.619 49.273 212.745 47.82 209.878 47.82C207.01 47.82 205.136 49.273 205.136 51.4142C205.136 53.5554 207.048 55.0083 209.878 55.0083C212.707 55.0083 214.619 53.5554 214.619 51.4142Z" fill="#142531"/>
<path d="M220.927 57.9141V44.9141H226.663L233.621 53.3259V44.9141H238.133V57.8759H232.398L225.439 49.3494V57.8759H220.927V57.9141Z" fill="#142531"/>
<path d="M244.251 57.9141V48.2788H239.204V44.9141H254.077V48.2788H249.03V57.9141H244.251Z" fill="#142531"/>
</g>
</g>
<defs>
<clipPath id="clip0_311_132">
<rect width="208.001" height="18.353" fill="white" transform="translate(45.9998 40.8235)"/>
</clipPath>
<clipPath id="clip1_311_132">
<rect width="208.001" height="18.353" fill="white" transform="translate(46 40.8232)"/>
</clipPath>
</defs>
</svg>
