<svg width="300" height="100" viewBox="0 0 300 100" fill="none" xmlns="http://www.w3.org/2000/svg">
<rect width="300" height="100" fill="white"/>
<g clip-path="url(#clip0_291_3329)">
<mask id="mask0_291_3329" style="mask-type:luminance" maskUnits="userSpaceOnUse" x="17" y="30" width="265" height="40">
<path d="M17.647 30H281.671V69.3059H17.647V30Z" fill="white"/>
</mask>
<g mask="url(#mask0_291_3329)">
<path fill-rule="evenodd" clip-rule="evenodd" d="M231.071 32.2352C232.223 32.647 233.247 32.3294 233.882 33.3764C234.412 34.2588 234.447 35.6705 234.447 36.7647V51.8352C234.447 56.1764 233.094 55.5999 230.988 56.1411L231.059 57.3529C232.059 57.4588 241.247 57.3764 241.541 57.247C242.329 54.5764 238.318 57.7999 237.87 52.9999C237.776 52.047 237.565 45.7647 238.059 45.3411C238.671 44.9294 241.059 45.1176 241.812 45.4823C242.529 45.8235 242.894 47.1882 243.341 48.0235C244.388 49.9764 245.223 51.3999 246.388 53.1058C250.765 59.5176 257.859 64.447 265.541 67.0823C268.435 68.0705 276.894 69.8941 279.988 69.1411C280.494 67.5999 279.176 67.8705 277.871 67.7411C267.306 66.647 257.988 61.3882 251.423 53.5999C250.153 52.0941 246.271 46.8235 245.906 44.4117C253.235 41.8117 253.718 34.8705 249.929 32.1058C246.318 29.4705 240.106 30.9529 236.094 31.0823C234.541 31.1294 232.518 30.7411 231.071 30.9882V32.2352ZM239.682 32.3294C247.906 31.2705 251.565 39.7529 245.541 42.7176C244.306 43.3176 242.518 43.7058 240.941 43.7882C237.129 43.9764 237.812 44.0941 237.812 35.9294C237.812 33.6705 237.247 32.6352 239.671 32.3294H239.682ZM85.6117 56.1647V57.3294C86.5411 57.447 94.1176 57.447 95.4234 57.3294L95.4823 56.2235C92.8587 55.0235 91.3999 57.447 91.5058 49.1647L91.8117 37.2941C92.3764 37.7999 94.2352 41.0235 94.7999 41.9647C97.1293 45.8705 99.9646 50.5529 101.035 55.0352C101.306 56.1529 101.294 57.3647 102.259 57.6588C103.518 57.4705 104.282 53.7294 104.823 52.4823C106.106 49.5764 111.4 39.3529 113.165 37.4117V51.847C113.165 56.6823 111.035 55.647 110.118 56.0941C109.623 56.3411 109.27 57.4117 110.576 57.4117L119.859 57.3647L119.918 56.2352C118.153 55.4117 116.565 56.6941 116.506 51.6823V36.5882C116.506 34.9176 116.423 33.047 118 32.5529C118.965 32.2588 119.835 32.6117 119.753 31.5764C119.682 30.6352 118.329 31.0705 116.106 31.0705C115.365 31.0705 113.929 30.7058 113.447 31.1294C112.776 31.6352 113.353 31.5882 113.27 32.5176C113.165 33.5294 109.318 40.2588 108.765 41.2L104.765 48.3764C104.4 49.047 103.823 50.3294 103.247 50.8705C102.859 49.847 96.3176 37.9764 95.2352 36.0117C94.8587 35.3294 92.8705 31.2 92.647 30.9882L87.3058 31.047C86.647 31.4 86.8705 32.1058 87.5646 32.3647C88.8117 32.8352 89.6234 33.0705 89.9058 34.4588C90.4117 36.9647 89.694 47.9058 89.5528 51.2588C89.3176 56.8823 88.247 55.2588 85.6352 56.1529M59.5411 42.4117C59.2587 41.3176 59.4117 38.2352 59.4117 36.9294C59.4117 34.8941 58.8352 33.2941 61.1058 32.9529C63.294 32.6352 69.894 32.6941 71.3646 33.8235C72.2234 34.4823 72.0117 34.6588 72.1764 35.9176C72.3293 37.0823 73.3411 36.5294 73.5764 35.9647C73.7999 35.4117 73.5529 34.2352 73.5176 33.5764C73.4705 32.6117 73.8823 31.6823 73.8352 31.247C73.694 29.9411 70.3881 30.8 69.2117 30.8941C66.1881 31.1294 52.9881 30.9176 52.8352 31.0117C52.5058 31.2235 52.5176 31.7529 52.7764 32.0352C53.094 32.3882 53.3176 32.2823 53.8352 32.3647C56.3881 32.8117 56.0352 35.6588 56.0352 38.2588C56.0352 40.6117 56.3058 52.5999 55.7293 54.3764C55.1881 56.047 53.6234 55.647 52.0234 56.1647L52.0823 57.3176C54.6117 57.7058 60.3999 57.2705 63.3176 57.2705C64.6587 57.2705 73.9999 57.5647 74.0823 57.5411C74.4352 56.7647 74.294 54.6823 74.8117 53.2352C75.2352 52.0352 75.4234 49.5999 73.647 50.2588C72.3881 51.8941 74.1999 53.5176 70.5411 54.7882C68.5176 55.4941 65.7764 55.6 63.494 55.5176C59.9881 55.3882 59.4117 55.2823 59.4234 51.8235C59.4234 50.4941 59.0352 45.3999 59.7176 44.6705C60.2823 44.0352 65.6234 44.247 66.8352 44.3882C70.1999 44.7647 69.2234 48.8941 70.7646 47.3058C71.3176 46.6705 70.694 43.8823 70.7411 42.7764C70.8117 41.0588 71.7881 39.2117 69.6705 39.247C68.8352 41.4352 69.6823 42.5529 66.2705 42.5764C64.9058 42.5882 60.5176 42.7647 59.5528 42.3999M130.847 31.0117L130.729 32.2C131.753 32.6 132.918 32.4352 133.553 33.3529C134.529 34.7764 134.153 42.0705 134.153 44.2941C134.153 46.647 134.588 53.6823 133.459 55.1294C132.671 56.1294 131.694 55.7411 130.576 56.1882L130.541 57.3294C132.035 57.5529 134.506 57.2705 136.094 57.2941C137.447 57.3058 140.8 57.7176 141.706 57.2117C142.259 54.8705 138.976 56.9411 137.918 54.5882C137.2 52.9764 137.482 37.1882 137.529 34.9294C137.576 32.2117 138.482 31.8941 141.341 32.3647C148.623 33.5764 148.365 42.4588 142.329 42.7764C141.165 42.8352 140.576 42.5647 139.588 42.2588C136.235 41.2117 138.365 45.4117 144.188 44.3999C152.612 42.9294 152.953 31.8705 143.87 30.6235C141.823 30.3411 139.282 30.6705 137.318 30.9176C135.788 31.1058 131.506 30.8 130.859 31.0235" fill="#444445"/>
<path fill-rule="evenodd" clip-rule="evenodd" d="M264.094 57.1529C265.094 58.7293 265.341 56.6352 267.517 57.0705C268.976 57.3646 270.341 57.6588 271.953 57.647C277.753 57.5999 282.847 53.4823 281.447 47.8117C280.188 42.7176 273.988 42.4117 270.035 39.4117C267.965 37.8352 266.917 35.1058 269.494 33.1646C271.741 31.4705 274.941 31.847 276.87 33.4823C278.294 34.6941 277.835 35.1294 278.341 36.8941C278.659 37.9999 280.706 37.7882 280.165 34.9764C279.565 31.8352 280.576 31.6823 280.306 30.7176C279.976 29.5176 278.988 30.5058 278.706 30.6823C278.023 31.1058 277.482 30.847 276.659 30.6941C270.341 29.5411 264.176 31.7058 265.106 38.1764C265.87 43.4705 272.47 44.3882 276.047 47.0235C277.965 48.4352 279.412 51.1529 277.329 53.7882C275.953 55.5411 272.741 56.5646 269.659 55.5294C265.565 54.1646 267.117 49.7293 266.4 48.9764C265.612 48.3293 264.835 49.1646 264.6 49.8588C264.094 51.3764 264.823 53.4352 264.612 55.0941C264.506 55.9411 263.941 56.4705 264.117 57.1646M18.8939 36.9529C20.7998 35.3058 17.0469 32.8235 24.9763 32.8352C25.8939 32.8352 26.3057 32.9646 26.9528 33.1646L27.2233 34.7529L27.1763 51.8352C27.1763 52.9999 27.0939 54.447 26.3528 55.1882C25.4233 56.1176 24.2116 55.8117 23.0351 56.1411L22.9998 57.3529H34.6586L34.7057 56.1764C32.2469 55.2705 30.5645 56.4941 30.5645 52.3293C30.5645 49.5176 30.2822 34.7176 30.788 33.1646C32.4704 32.6117 36.3292 32.5764 37.5527 33.6352C38.4233 34.3882 38.2822 35.7764 38.6116 36.9646C41.2233 37.4235 39.741 34.1999 39.5998 32.5058C39.541 31.8823 39.7645 31.0941 39.5528 30.5882C38.8586 29.1999 38.0116 30.6352 36.541 30.847C33.7763 31.2352 24.4822 31.0823 21.8586 30.8823C20.2939 30.7646 18.9998 29.6823 18.388 30.1999C17.8704 30.647 18.2469 31.8941 17.8116 34.1882C17.6233 35.1764 17.2586 37.5764 18.8939 36.9411M161.835 31.0705L161.753 32.2235C163.682 32.7646 165.035 32.047 165.129 36.5999C165.212 40.647 165.223 47.7999 165.129 51.8352C165.012 56.8705 163.317 55.3293 161.694 56.2352L161.659 57.2823C162.776 57.5646 174.188 57.2235 177.223 57.2823C178.365 57.3058 181.412 57.7529 182 57.4588C182.247 56.9882 182.317 54.4705 182.706 53.2823C183.165 51.8588 183.588 50.0352 181.553 50.1882C180.482 52.3411 182.129 54.647 175.565 55.4117C174.106 55.5764 171.435 55.6823 170.094 55.3882C168.2 54.9646 168.482 53.2352 168.482 51.3411V40.2941C168.482 30.9646 168.917 33.5176 171.8 32.1999C172.259 30.4117 171.341 31.0352 167.529 31.0941C166.423 31.1058 162.553 30.847 161.847 31.0941M210.859 46.2941C211.588 46.8117 214.482 53.6823 213.741 55.1411C213.2 56.2117 211.859 55.9176 210.706 56.3764L210.67 57.5176L221.517 57.5411L221.588 56.4117C220.094 55.7176 218.812 56.4117 217.435 52.8588C216.717 50.9999 216.035 49.1411 215.282 47.247C214.717 45.847 210.294 34.5529 209.988 33.4235C209.517 31.647 211.082 31.8588 210.835 30.7999C210.565 29.6588 209.07 30.6941 208.188 31.0235C207.165 31.3999 205.4 31.5058 204.906 31.7176C203.4 32.3411 205.282 33.2941 205.447 33.9882C205.694 35.0588 202.576 41.0235 202.047 42.1646C200.976 44.4705 197.141 53.3058 195.706 54.9529C194.588 56.2352 194.517 55.6705 193.012 56.2117C192.412 56.4235 192.341 57.0705 192.635 57.3882C192.988 57.7764 197.341 57.4588 198.553 57.4823C200.117 57.5176 204 58.1764 202.929 56.4941C202.223 55.3882 197.741 57.1529 200.212 50.9411C201.117 48.6705 201.576 46.3058 203.059 46.1882C204.059 46.1058 210.223 46.1058 210.847 46.2823M204.612 44.2705C202.294 44.2705 202.894 44.3999 204.682 40.3529C205.306 38.9294 206.165 36.847 206.894 35.647C207.07 35.8705 210.4 43.3294 210.082 44.2352L204.623 44.2705H204.612Z" fill="#444445"/>
</g>
</g>
<defs>
<clipPath id="clip0_291_3329">
<rect width="264.706" height="40" fill="white" transform="translate(17.647 30)"/>
</clipPath>
</defs>
</svg>
