<svg width="300" height="100" viewBox="0 0 300 100" fill="none" xmlns="http://www.w3.org/2000/svg">
<rect width="300" height="100" fill="white"/>
<g clip-path="url(#clip0_311_201)">
<mask id="mask0_311_201" style="mask-type:luminance" maskUnits="userSpaceOnUse" x="75" y="30" width="34" height="40">
<path d="M108.468 30H75.3359V70H108.468V30Z" fill="white"/>
</mask>
<g mask="url(#mask0_311_201)">
<path d="M108.377 36.2497C101.552 36.2497 96.3228 34.2998 91.9009 30C87.4797 34.2998 82.2507 36.2497 75.4262 36.2497C75.4262 47.447 73.1088 63.4866 91.9009 70C110.693 63.4866 108.377 47.447 108.377 36.2497Z" fill="#F7941E"/>
<path d="M101.003 42.2583C101.003 43.1014 100.32 43.7845 99.4773 43.7845H93.6109V59.207C93.6109 60.1662 92.8329 60.9442 91.8738 60.9442C90.9147 60.9442 90.1367 60.1662 90.1367 59.207V43.7845H84.2703C83.4272 43.7845 82.7441 43.1014 82.7441 42.2583C82.7441 41.4153 83.4272 40.7322 84.2703 40.7322H99.4764C100.32 40.7322 101.003 41.4153 101.003 42.2583Z" fill="white"/>
</g>
<path d="M133.385 43.9144H127.405V60.7144H123.716V43.9144H117.737V40.8835H133.385V43.9144ZM141.215 52.0607C141.215 51.6218 141.151 51.2104 141.023 50.8264C140.905 50.4332 140.722 50.0904 140.475 49.7978C140.228 49.5052 139.913 49.2767 139.529 49.1121C139.154 48.9384 138.715 48.8515 138.212 48.8515C137.234 48.8515 136.461 49.1304 135.894 49.6881C135.337 50.2458 134.98 51.0367 134.825 52.0607H141.215ZM134.756 54.1041C134.811 54.8264 134.939 55.4527 135.14 55.983C135.341 56.5041 135.606 56.9384 135.935 57.2858C136.265 57.6241 136.653 57.8801 137.101 58.0538C137.558 58.2184 138.061 58.3007 138.61 58.3007C139.158 58.3007 139.629 58.2367 140.022 58.1087C140.425 57.9807 140.772 57.839 141.065 57.6835C141.366 57.5281 141.627 57.3864 141.846 57.2584C142.075 57.1304 142.294 57.0664 142.505 57.0664C142.788 57.0664 142.998 57.1715 143.135 57.3818L144.109 58.6161C143.734 59.055 143.314 59.4252 142.847 59.727C142.381 60.0195 141.892 60.2572 141.38 60.4401C140.877 60.6138 140.361 60.7372 139.83 60.8104C139.309 60.8835 138.802 60.9201 138.308 60.9201C137.33 60.9201 136.42 60.7601 135.579 60.4401C134.738 60.111 134.006 59.631 133.385 59.0001C132.763 58.3601 132.274 57.5738 131.917 56.6412C131.561 55.6995 131.382 54.6115 131.382 53.3772C131.382 52.4172 131.538 51.5167 131.849 50.6755C132.159 49.8252 132.603 49.0892 133.179 48.4675C133.764 47.8367 134.473 47.3384 135.305 46.9727C136.146 46.607 137.092 46.4241 138.143 46.4241C139.03 46.4241 139.849 46.5658 140.598 46.8492C141.348 47.1327 141.993 47.5487 142.532 48.0972C143.071 48.6367 143.492 49.3041 143.794 50.0995C144.105 50.8858 144.26 51.7864 144.26 52.8012C144.26 53.3132 144.205 53.6607 144.095 53.8435C143.986 54.0172 143.775 54.1041 143.465 54.1041H134.756ZM149.998 49.0847C150.437 48.2435 150.958 47.5852 151.561 47.1098C152.165 46.6252 152.878 46.383 153.701 46.383C154.35 46.383 154.871 46.5247 155.264 46.8081L155.045 49.3452C154.999 49.5098 154.93 49.6287 154.839 49.7018C154.757 49.7658 154.642 49.7978 154.496 49.7978C154.359 49.7978 154.153 49.775 153.879 49.7292C153.614 49.6835 153.353 49.6607 153.097 49.6607C152.722 49.6607 152.389 49.7155 152.096 49.8252C151.803 49.935 151.538 50.095 151.301 50.3052C151.072 50.5064 150.866 50.7532 150.683 51.0458C150.51 51.3384 150.345 51.6721 150.19 52.047V60.7144H146.802V46.6435H148.791C149.138 46.6435 149.381 46.7075 149.518 46.8355C149.655 46.9544 149.746 47.1738 149.792 47.4938L149.998 49.0847ZM157.034 60.7144V46.6435H159.105C159.544 46.6435 159.832 46.8492 159.969 47.2607L160.189 48.303C160.435 48.0287 160.691 47.7772 160.957 47.5487C161.231 47.3201 161.519 47.1235 161.821 46.959C162.131 46.7944 162.461 46.6664 162.808 46.575C163.165 46.4744 163.553 46.4241 163.974 46.4241C164.861 46.4241 165.587 46.6664 166.154 47.151C166.73 47.6264 167.16 48.2618 167.443 49.0572C167.663 48.591 167.937 48.1932 168.266 47.8641C168.595 47.5258 168.957 47.2515 169.35 47.0412C169.743 46.831 170.159 46.6755 170.598 46.575C171.046 46.4744 171.494 46.4241 171.942 46.4241C172.719 46.4241 173.409 46.543 174.013 46.7807C174.616 47.0184 175.123 47.3658 175.535 47.823C175.946 48.2801 176.257 48.8378 176.467 49.4961C176.687 50.1544 176.797 50.9087 176.797 51.759V60.7144H173.409V51.759C173.409 50.863 173.213 50.191 172.819 49.743C172.426 49.2858 171.85 49.0572 171.091 49.0572C170.744 49.0572 170.419 49.1167 170.118 49.2355C169.825 49.3544 169.565 49.5281 169.336 49.7567C169.117 49.9761 168.943 50.255 168.815 50.5932C168.687 50.9315 168.623 51.3201 168.623 51.759V60.7144H165.222V51.759C165.222 50.8172 165.03 50.1315 164.646 49.7018C164.271 49.2721 163.718 49.0572 162.986 49.0572C162.493 49.0572 162.031 49.1807 161.601 49.4275C161.181 49.6652 160.787 49.9944 160.422 50.415V60.7144H157.034ZM183.527 46.6435V60.7144H180.126V46.6435H183.527ZM183.994 42.543C183.994 42.8355 183.934 43.1098 183.815 43.3658C183.697 43.6218 183.537 43.8458 183.335 44.0378C183.143 44.2298 182.915 44.3852 182.65 44.5041C182.385 44.6138 182.101 44.6687 181.799 44.6687C181.507 44.6687 181.228 44.6138 180.963 44.5041C180.707 44.3852 180.483 44.2298 180.291 44.0378C180.099 43.8458 179.943 43.6218 179.825 43.3658C179.715 43.1098 179.66 42.8355 179.66 42.543C179.66 42.2412 179.715 41.9578 179.825 41.6927C179.943 41.4275 180.099 41.199 180.291 41.007C180.483 40.815 180.707 40.6641 180.963 40.5544C181.228 40.4355 181.507 40.3761 181.799 40.3761C182.101 40.3761 182.385 40.4355 182.65 40.5544C182.915 40.6641 183.143 40.815 183.335 41.007C183.537 41.199 183.697 41.4275 183.815 41.6927C183.934 41.9578 183.994 42.2412 183.994 42.543ZM190.149 48.3715C190.432 48.0881 190.729 47.8275 191.04 47.5898C191.36 47.343 191.694 47.1372 192.041 46.9727C192.398 46.799 192.777 46.6664 193.18 46.575C193.582 46.4744 194.021 46.4241 194.496 46.4241C195.264 46.4241 195.945 46.5567 196.54 46.8218C197.134 47.0778 197.628 47.4435 198.021 47.919C198.423 48.3852 198.725 48.9475 198.926 49.6058C199.136 50.255 199.241 50.9727 199.241 51.759V60.7144H195.854V51.759C195.854 50.8995 195.657 50.2367 195.264 49.7704C194.871 49.295 194.272 49.0572 193.468 49.0572C192.883 49.0572 192.334 49.1898 191.822 49.455C191.31 49.7201 190.825 50.0812 190.368 50.5384V60.7144H186.981V46.6435H189.052C189.491 46.6435 189.779 46.8492 189.916 47.2607L190.149 48.3715ZM209.896 54.7075C208.918 54.7532 208.095 54.8401 207.427 54.9681C206.76 55.087 206.225 55.2424 205.823 55.4344C205.421 55.6264 205.133 55.8504 204.959 56.1064C204.785 56.3624 204.698 56.6412 204.698 56.943C204.698 57.5372 204.872 57.9624 205.219 58.2184C205.576 58.4744 206.038 58.6024 206.605 58.6024C207.299 58.6024 207.898 58.479 208.401 58.2321C208.913 57.9761 209.411 57.5921 209.896 57.0801V54.7075ZM202.134 48.6047C203.752 47.1235 205.699 46.383 207.976 46.383C208.799 46.383 209.535 46.5201 210.184 46.7944C210.833 47.0595 211.382 47.4344 211.83 47.919C212.278 48.3944 212.616 48.9658 212.845 49.6332C213.082 50.3007 213.201 51.0321 213.201 51.8275V60.7144H211.665C211.345 60.7144 211.098 60.6687 210.925 60.5772C210.751 60.4767 210.614 60.2801 210.513 59.9875L210.211 58.9727C209.855 59.2927 209.507 59.5761 209.169 59.823C208.831 60.0607 208.479 60.2618 208.113 60.4264C207.747 60.591 207.354 60.7144 206.934 60.7967C206.522 60.8881 206.065 60.9338 205.562 60.9338C204.968 60.9338 204.419 60.8561 203.917 60.7007C203.414 60.5361 202.979 60.2938 202.614 59.9738C202.248 59.6538 201.965 59.2561 201.763 58.7807C201.562 58.3052 201.462 57.7521 201.462 57.1212C201.462 56.7647 201.521 56.4127 201.64 56.0652C201.759 55.7087 201.951 55.3704 202.216 55.0504C202.49 54.7304 202.842 54.4287 203.272 54.1452C203.702 53.8618 204.227 53.615 204.849 53.4047C205.48 53.1944 206.211 53.0252 207.043 52.8972C207.875 52.7601 208.826 52.6778 209.896 52.6504V51.8275C209.896 50.8858 209.695 50.191 209.293 49.743C208.89 49.2858 208.31 49.0572 207.551 49.0572C207.002 49.0572 206.545 49.1212 206.179 49.2492C205.823 49.3772 205.507 49.5235 205.233 49.6881C204.959 49.8435 204.707 49.9852 204.479 50.1132C204.259 50.2412 204.013 50.3052 203.738 50.3052C203.501 50.3052 203.299 50.2458 203.135 50.127C202.97 49.999 202.838 49.8527 202.737 49.6881L202.134 48.6047ZM219.82 40.335V60.7144H216.433V40.335H219.82Z" fill="#343434"/>
</g>
<defs>
<clipPath id="clip0_311_201">
<rect width="149.429" height="40" fill="white" transform="translate(75.3359 30)"/>
</clipPath>
</defs>
</svg>
