<svg width="300" height="100" viewBox="0 0 300 100" fill="none" xmlns="http://www.w3.org/2000/svg">
<rect width="300" height="100" fill="white"/>
<path d="M156.609 57.065C155.729 57.065 154.968 56.827 154.327 56.341C153.686 55.855 153.191 55.159 152.852 54.252C152.513 53.345 152.338 52.263 152.338 51.026C152.329 49.6369 152.508 48.253 152.87 46.912L155.711 47.6C155.617 48.0475 155.546 48.4998 155.5 48.955C155.445 49.441 155.39 50.064 155.326 50.806L155.289 51.191C155.289 53.354 155.729 54.435 156.618 54.435C157.488 54.435 157.928 53.372 157.928 51.255C157.91 50.7018 157.852 50.1507 157.754 49.606C157.65 48.8951 157.503 48.1912 157.314 47.498L160.114 46.71C160.581 48.01 160.814 49.533 160.814 51.265C160.814 52.447 160.64 53.473 160.301 54.343C159.962 55.213 159.467 55.892 158.844 56.369C158.194 56.8367 157.41 57.081 156.609 57.065Z" fill="#BD2194"/>
<path d="M156.581 46.9851C156.28 46.9855 155.986 46.8966 155.736 46.7298C155.485 46.5629 155.29 46.3255 155.174 46.0476C155.059 45.7697 155.029 45.4638 155.087 45.1686C155.146 44.8734 155.29 44.6022 155.503 44.3893C155.716 44.1764 155.987 44.0313 156.282 43.9725C156.577 43.9136 156.883 43.9436 157.161 44.0587C157.439 44.1738 157.676 44.3687 157.844 44.6189C158.011 44.8691 158.1 45.1632 158.1 45.4641C158.101 45.6638 158.062 45.8617 157.986 46.0463C157.909 46.231 157.798 46.3988 157.656 46.5401C157.515 46.6814 157.348 46.7935 157.163 46.8698C156.979 46.9462 156.781 46.9854 156.581 46.9851ZM156.581 46.1701C156.723 46.1701 156.861 46.1282 156.978 46.0496C157.096 45.9711 157.188 45.8594 157.242 45.7287C157.296 45.5981 157.31 45.4543 157.282 45.3156C157.255 45.1769 157.187 45.0495 157.087 44.9495C156.987 44.8495 156.859 44.7814 156.721 44.7539C156.582 44.7263 156.438 44.7404 156.307 44.7945C156.177 44.8487 156.065 44.9403 155.987 45.0579C155.908 45.1755 155.866 45.3137 155.866 45.4551C155.866 45.6447 155.942 45.8264 156.076 45.9604C156.21 46.0944 156.392 46.1699 156.581 46.1701Z" fill="#BD2194"/>
<path d="M103.121 45.0151L105.733 44.5941V47.3061H108.867V49.4871H105.733V52.7311C105.733 53.2811 105.833 53.7201 106.026 54.0411C106.219 54.3621 106.604 54.5411 107.19 54.5411C107.482 54.5398 107.774 54.512 108.061 54.4581C108.338 54.4078 108.611 54.3345 108.876 54.2391L109.243 56.2731C108.901 56.4087 108.548 56.518 108.189 56.6001C107.722 56.6993 107.246 56.7453 106.769 56.7371C106.054 56.7371 105.469 56.6371 105 56.4441C104.564 56.2766 104.179 55.9989 103.882 55.6381C103.591 55.2708 103.392 54.8396 103.3 54.3801C103.186 53.8441 103.13 53.2971 103.135 52.7491V45.0151H103.121ZM110.984 56.5241V43.3561L113.6 42.9351V47.3521C113.823 47.2855 114.049 47.2304 114.278 47.1871C114.541 47.133 114.809 47.1052 115.078 47.1041C115.829 47.1041 116.443 47.2041 116.947 47.4041C117.412 47.5866 117.823 47.8863 118.138 48.2741C118.44 48.6676 118.656 49.1205 118.771 49.6031C118.897 50.1656 118.959 50.7406 118.954 51.3171V56.5171H116.335V51.6401C116.335 50.7971 116.225 50.2021 116.014 49.8531C115.803 49.5041 115.401 49.3311 114.814 49.3311C114.592 49.3287 114.371 49.3501 114.154 49.3951C113.954 49.4321 113.769 49.4781 113.604 49.5241V56.5241H110.984ZM124.821 54.7001C125.077 54.7001 125.321 54.6911 125.554 54.6821C125.741 54.6768 125.928 54.6584 126.113 54.6271V52.6471C125.956 52.6143 125.796 52.5899 125.636 52.5741C125.445 52.5489 125.252 52.5366 125.059 52.5371C124.829 52.5376 124.6 52.553 124.372 52.5831C124.175 52.6066 123.982 52.6623 123.803 52.7481C123.648 52.822 123.515 52.9359 123.419 53.0781C123.322 53.2343 123.274 53.4162 123.281 53.6001C123.281 54.0131 123.419 54.2871 123.693 54.4521C123.967 54.6171 124.344 54.7001 124.821 54.7001ZM124.61 47.0671C125.38 47.0671 126.021 47.1581 126.534 47.3321C127 47.4808 127.424 47.7386 127.771 48.0841C128.087 48.4197 128.314 48.8292 128.431 49.2751C128.564 49.7835 128.629 50.3075 128.623 50.8331V56.2581C128.248 56.3401 127.735 56.4321 127.066 56.5511C126.265 56.6705 125.456 56.7257 124.646 56.7161C124.102 56.7196 123.559 56.6673 123.025 56.5601C122.577 56.4719 122.151 56.2977 121.769 56.0471C121.422 55.8132 121.143 55.4903 120.963 55.1121C120.764 54.6658 120.667 54.1806 120.679 53.6921C120.666 53.217 120.776 52.7466 120.999 52.3271C121.206 51.9588 121.506 51.652 121.87 51.4381C122.256 51.2084 122.677 51.0442 123.116 50.9521C123.595 50.8513 124.084 50.8021 124.573 50.8051C124.874 50.8047 125.174 50.82 125.473 50.8511C125.69 50.8703 125.904 50.9071 126.115 50.9611V50.7141C126.123 50.5178 126.092 50.3219 126.023 50.1378C125.954 49.9538 125.85 49.7853 125.715 49.6421C125.45 49.3671 124.982 49.2421 124.315 49.2421C123.877 49.2432 123.439 49.2767 123.005 49.3421C122.624 49.3936 122.249 49.4857 121.887 49.6171L121.557 47.5171C121.713 47.4711 121.896 47.4171 122.125 47.3701C122.354 47.3231 122.602 47.2701 122.868 47.2331C123.134 47.1961 123.417 47.1591 123.72 47.1331C124.023 47.1071 124.307 47.0681 124.61 47.0681V47.0671ZM130.988 47.6261C132.267 47.2794 133.585 47.1025 134.91 47.1001C135.688 47.1001 136.338 47.2001 136.861 47.4001C137.344 47.5745 137.771 47.8749 138.098 48.2701C138.41 48.6599 138.632 49.1136 138.749 49.5991C138.883 50.1604 138.947 50.736 138.941 51.3131V56.5131H136.33V51.6401C136.33 50.7974 136.22 50.2017 136 49.8531C135.78 49.5051 135.368 49.3311 134.754 49.3311C134.57 49.3311 134.369 49.3401 134.154 49.3591C133.939 49.3781 133.76 49.3951 133.595 49.4231V56.5341H130.988V47.6261ZM143.908 50.6401C144.165 50.3561 144.43 50.0721 144.708 49.7611C144.986 49.4501 145.249 49.1561 145.508 48.8611C145.767 48.5661 146.008 48.2831 146.232 48.0091C146.456 47.7351 146.654 47.5091 146.819 47.3091H149.925C149.3 48.0301 148.7 48.7081 148.105 49.3591C147.51 50.0101 146.868 50.6781 146.171 51.3651C146.558 51.7142 146.92 52.0909 147.253 52.4921C147.628 52.9321 147.986 53.3811 148.334 53.8491C148.682 54.3171 149.003 54.7831 149.296 55.2491C149.563 55.6636 149.807 56.0919 150.029 56.5321H147.029C146.846 56.2321 146.629 55.8901 146.387 55.5241C146.145 55.1581 145.893 54.7901 145.627 54.4241C145.361 54.0557 145.077 53.7009 144.775 53.3611C144.506 53.0489 144.21 52.7608 143.89 52.5001V56.5321H141.278V43.3561L143.89 42.9351V50.6411L143.908 50.6401Z" fill="#693D88"/>
<path d="M162.968 51.9241C162.965 51.2841 163.073 50.6486 163.289 50.0461C163.492 49.4717 163.812 48.9455 164.228 48.5008C164.644 48.056 165.148 47.7024 165.708 47.4621C166.341 47.1953 167.022 47.0641 167.708 47.0771C168.16 47.0747 168.611 47.1175 169.055 47.2051C169.464 47.2902 169.863 47.4162 170.246 47.5811L169.7 49.6611C169.436 49.5636 169.167 49.4812 168.894 49.4141C168.572 49.3409 168.243 49.3073 167.913 49.3141C167.144 49.3141 166.566 49.5521 166.191 50.0281C165.816 50.5041 165.622 51.1371 165.622 51.9161C165.622 52.7411 165.797 53.3911 166.154 53.8401C166.511 54.2891 167.134 54.5281 168.023 54.5281C168.364 54.5268 168.704 54.4961 169.04 54.4361C169.384 54.383 169.72 54.2876 170.04 54.1521L170.407 56.2871C170.04 56.4333 169.659 56.5438 169.27 56.6171C168.776 56.7123 168.273 56.7582 167.77 56.7541C166.927 56.7541 166.203 56.6261 165.598 56.3791C165.036 56.1609 164.532 55.817 164.124 55.3738C163.716 54.9306 163.414 54.3998 163.243 53.8221C163.054 53.2073 162.962 52.5671 162.968 51.9241ZM175.687 54.7001C175.943 54.7001 176.187 54.6911 176.42 54.6821C176.607 54.6768 176.794 54.6585 176.979 54.6271V52.6471C176.822 52.6143 176.662 52.5899 176.502 52.5741C176.311 52.5489 176.118 52.5366 175.925 52.5371C175.695 52.5377 175.466 52.5531 175.238 52.5831C175.041 52.6066 174.849 52.6623 174.67 52.7481C174.515 52.8222 174.382 52.9361 174.285 53.0781C174.188 53.2343 174.14 53.4162 174.147 53.6001C174.147 54.0131 174.285 54.2871 174.56 54.4521C174.835 54.6171 175.21 54.7001 175.687 54.7001ZM175.476 47.0671C176.246 47.0671 176.887 47.1581 177.4 47.3321C177.867 47.4808 178.291 47.7386 178.638 48.0841C178.955 48.42 179.182 48.8298 179.3 49.2761C179.434 49.7844 179.499 50.3084 179.493 50.8341V56.2591C179.117 56.3411 178.604 56.4331 177.935 56.5521C177.134 56.6715 176.326 56.7267 175.516 56.7171C174.972 56.7206 174.428 56.6683 173.894 56.5611C173.446 56.4729 173.02 56.2987 172.638 56.0481C172.291 55.8142 172.012 55.4913 171.832 55.1131C171.633 54.6666 171.536 54.1816 171.548 53.6931C171.534 53.2179 171.645 52.7473 171.869 52.3281C172.075 51.96 172.376 51.6533 172.739 51.4391C173.124 51.2079 173.546 51.0436 173.986 50.9531C174.465 50.8524 174.953 50.8031 175.442 50.8061C175.743 50.8057 176.043 50.821 176.342 50.8521C176.558 50.8714 176.773 50.9082 176.983 50.9621V50.7151C176.991 50.5188 176.96 50.3229 176.891 50.1388C176.822 49.9548 176.718 49.7862 176.583 49.6431C176.317 49.3771 175.85 49.2431 175.183 49.2431C174.744 49.2442 174.306 49.2776 173.872 49.3431C173.491 49.3947 173.116 49.4869 172.754 49.6181L172.425 47.5181C172.58 47.4721 172.764 47.4181 172.993 47.3711C173.222 47.3241 173.469 47.2711 173.735 47.2341C174.001 47.1971 174.285 47.1601 174.587 47.1341C174.881 47.0893 175.179 47.0673 175.476 47.0681V47.0671ZM184.493 54.6541C184.969 54.6541 185.309 54.6081 185.51 54.5171C185.711 54.4261 185.803 54.2421 185.803 53.9761C185.803 53.7654 185.675 53.5821 185.418 53.4261C185.044 53.2153 184.652 53.0392 184.246 52.9001C183.869 52.7601 183.498 52.6009 183.137 52.4231C182.825 52.2721 182.538 52.0745 182.285 51.8371C182.05 51.6053 181.866 51.3275 181.744 51.0211C181.608 50.6583 181.542 50.2726 181.552 49.8851C181.552 49.0241 181.872 48.3361 182.514 47.8321C183.156 47.3281 184.035 47.0811 185.162 47.0811C185.703 47.0779 186.243 47.1268 186.775 47.2271C187.191 47.3024 187.6 47.4084 188 47.5441L187.541 49.5781C187.241 49.4781 186.909 49.3781 186.552 49.2941C186.158 49.2099 185.755 49.17 185.352 49.1751C184.537 49.1751 184.124 49.4041 184.124 49.8631C184.123 49.9604 184.142 50.057 184.179 50.1471C184.225 50.245 184.298 50.3277 184.39 50.3851C184.527 50.4783 184.671 50.5609 184.821 50.6321C185.004 50.7241 185.233 50.8161 185.508 50.9251C185.995 51.1008 186.469 51.3093 186.928 51.5491C187.26 51.7206 187.56 51.9468 187.817 52.2181C188.029 52.4467 188.185 52.7202 188.276 53.0181C188.369 53.3488 188.412 53.6916 188.404 54.0351C188.404 54.9421 188.065 55.6351 187.377 56.1061C186.689 56.5771 185.728 56.8061 184.482 56.8061C183.795 56.8183 183.109 56.7478 182.438 56.5961C182.054 56.5079 181.678 56.3913 181.311 56.2471L181.751 54.1311C182.194 54.3053 182.651 54.4431 183.116 54.5431C183.572 54.6118 184.032 54.6492 184.493 54.6551V54.6541ZM190.348 56.5231V43.3561L192.96 42.9351V47.3521C193.183 47.2854 193.409 47.2303 193.638 47.1871C193.901 47.133 194.169 47.1052 194.438 47.1041C195.19 47.1041 195.804 47.2041 196.308 47.4041C196.773 47.5866 197.184 47.8863 197.499 48.2741C197.801 48.6674 198.017 49.1204 198.131 49.6031C198.262 50.1647 198.324 50.7404 198.314 51.3171V56.5171H195.7V51.6401C195.7 50.7971 195.59 50.2021 195.379 49.8531C195.168 49.5041 194.765 49.3311 194.179 49.3311C193.957 49.3287 193.736 49.3501 193.519 49.3951C193.319 49.4321 193.134 49.4781 192.969 49.5241V56.5241L190.348 56.5231Z" fill="#693D88"/>
</svg>
