<svg width="300" height="100" viewBox="0 0 300 100" fill="none" xmlns="http://www.w3.org/2000/svg">
<rect width="300" height="100" fill="white"/>
<g clip-path="url(#clip0_311_193)">
<path fill-rule="evenodd" clip-rule="evenodd" d="M196.741 52.8428C194.366 50.7785 192.935 48.0649 192.754 45.1935L192.736 44.7079V44.5634C192.736 44.5096 192.743 44.349 192.748 44.2612C192.75 44.2095 192.753 44.1623 192.754 44.1167C192.955 42.163 194.699 40.638 196.753 40.638C198.953 40.638 200.742 42.3627 200.75 44.4854C200.75 47.5956 199.275 50.6211 196.741 52.8428ZM205.804 54.5352C205.189 54.8827 204.52 55.1558 203.81 55.326C202.878 55.5504 201.946 55.5825 201.021 55.4203C201.024 55.4171 201.026 55.4139 201.029 55.4105C202.474 53.9164 203.609 52.203 204.387 50.3644C205.176 48.5067 205.597 46.5188 205.599 44.4968C205.599 42.9052 205.158 41.4127 204.387 40.1296C204.004 39.4898 203.54 38.9004 203.006 38.3789C201.405 36.8118 199.191 35.8406 196.753 35.8406C194.527 35.8406 192.397 36.6511 190.758 38.119C189.117 39.5871 188.112 41.5865 187.92 43.7448L187.912 43.8617C187.91 43.9072 187.907 43.9625 187.904 44.0224C187.895 44.1964 187.885 44.3961 187.885 44.5634V44.6236L187.918 45.5491C188.159 49.2129 189.769 52.6643 192.448 55.4155C190.594 56.1398 188.574 56.5166 186.476 56.5246C184.377 56.5166 182.357 56.1398 180.504 55.4155L180.513 55.4073C180.483 55.3944 180.454 55.3828 180.426 55.3699C178.538 54.5222 177.184 53.6566 176.212 52.8411L176.21 52.8428C176.195 52.8299 176.181 52.8187 176.168 52.8056C175.664 52.3604 175.204 51.8832 174.788 51.3796C174.788 51.378 174.788 51.378 174.786 51.378C173.132 49.3753 172.201 46.9574 172.201 44.4854C172.209 42.3627 174 40.638 176.2 40.638C178.252 40.638 179.999 42.163 180.196 44.1167C180.198 44.1623 180.201 44.2095 180.203 44.2612C180.208 44.349 180.216 44.5096 180.216 44.5634V44.7079L180.196 45.1935C180.028 47.87 178.776 50.41 176.682 52.414C178.058 53.0182 179.979 53.6385 181.718 54.0268C183.667 51.542 184.832 48.6203 185.034 45.5491L185.067 44.6236V44.5634C185.067 44.3961 185.057 44.1964 185.047 44.0224C185.044 43.9625 185.04 43.9072 185.039 43.8617L185.032 43.7448C184.841 41.5865 183.834 39.5871 182.194 38.119C180.554 36.6511 178.425 35.8406 176.2 35.8406C173.76 35.8406 171.547 36.8118 169.945 38.3789C169.412 38.9004 168.949 39.4898 168.564 40.1296C167.794 41.4127 167.352 42.9052 167.352 44.4968C167.354 46.5188 167.775 48.5067 168.564 50.3644C169.342 52.203 170.477 53.9164 171.922 55.4105C171.926 55.4139 171.927 55.4171 171.93 55.4203C171.006 55.5825 170.076 55.5504 169.143 55.326C168.336 55.1328 167.579 54.8048 166.895 54.3892L163.771 58.108C165 58.943 166.418 59.6086 167.996 59.9904C168.81 60.1838 169.75 60.3217 170.784 60.3217C172.485 60.3217 174.439 59.9499 176.505 58.8536C179.475 60.4516 182.858 61.2976 186.401 61.3204L186.551 61.322C190.093 61.2992 193.476 60.4516 196.446 58.8536C198.516 59.9499 200.47 60.3217 202.169 60.3217C203.204 60.3217 204.143 60.1838 204.957 59.9904C206.434 59.6329 207.771 59.0273 208.943 58.2673L205.804 54.5352Z" fill="#0069FF"/>
<path fill-rule="evenodd" clip-rule="evenodd" d="M87.7542 41.7111V36.8519H81.8498L81.8956 30H76.8737V36.8519H72.9219V41.7111H76.828V53.289C76.921 57.3168 79.9889 60.511 84.2672 60.511H87.7542V56.2059H84.8249C83.2901 56.1133 81.8498 54.8627 81.8498 52.779V41.7111H87.7542Z" fill="#0069FF"/>
<path fill-rule="evenodd" clip-rule="evenodd" d="M110.003 38.7781C108.375 37.25 106.284 36.5094 103.632 36.5094H102.981C102.936 36.5094 102.888 36.5549 102.843 36.5549H102.564C100.331 36.787 98.5172 37.6672 97.1227 39.241C96.6579 39.7039 96.286 40.2138 95.9598 40.7693V30H90.8921V60.1688H95.9598V50.0752C95.9598 47.2509 96.5193 45.0292 97.6348 43.4538L97.7278 43.3159C97.8665 43.1305 98.0068 42.9911 98.1454 42.853V42.8058C98.2855 42.7132 98.4243 42.5754 98.5172 42.4355C99.2627 41.7404 100.192 41.2777 101.261 41.0924C101.541 41.0468 101.866 41.0468 102.145 41.0468C104.656 41.0468 106.749 42.8058 107.259 45.1216C107.307 45.3994 107.307 45.7228 107.307 46.0475V60.1688H112.374V45.3524V45.307V44.1017C112.188 41.9256 111.399 40.1667 110.003 38.7781Z" fill="#0069FF"/>
<path fill-rule="evenodd" clip-rule="evenodd" d="M120.059 45.8623C120.245 44.9367 120.524 44.3342 120.524 44.2886C122.245 40.1213 126.197 40.4462 126.569 40.4462C131.962 40.5843 132.334 45.3071 132.382 45.8623H120.059ZM137.775 46.9733C137.775 46.858 137.764 46.754 137.751 46.6548C137.72 46.3903 137.684 46.1255 137.635 45.8623C137.263 43.7333 136.66 42.4373 136.055 41.2792L135.357 40.2609C135.078 39.8906 134.753 39.5659 134.427 39.2411C132.521 37.4368 129.824 36.4169 126.29 36.464C126.15 36.464 125.964 36.464 125.778 36.5095H125.546C123.453 36.649 121.64 37.2045 120.152 38.0848H120.105C118.71 38.9179 117.688 40.1213 116.851 41.3719C116.804 41.4644 116.758 41.5099 116.711 41.557C115.548 43.4084 114.945 45.492 114.852 47.8079V48.9189C114.945 53.6871 118.198 60.3084 126.104 60.4937H126.29C135.497 60.4481 136.846 54.6601 137.263 53.2242L132.428 52.2061C132.428 52.2061 131.917 54.7069 129.684 55.5857L129.452 55.6783C126.802 56.7436 124.476 55.9559 123.78 55.6327C123.732 55.6327 120.849 54.3823 120.105 51.2804C120.012 50.8628 119.919 50.3074 119.826 49.6594H137.638L137.72 48.9935C137.725 48.9433 137.73 48.8929 137.733 48.8426C137.779 48.1865 137.819 47.6879 137.775 46.9733Z" fill="#0069FF"/>
<path fill-rule="evenodd" clip-rule="evenodd" d="M152.295 55.9692C148.527 55.9692 145.505 53.33 145.505 48.5146C145.505 43.9769 147.877 40.737 152.295 40.737C156.712 40.737 159.036 44.2093 159.036 48.5146C159.036 53.0994 156.107 55.9692 152.295 55.9692ZM154.155 36.3845C153.875 36.3374 153.549 36.3374 153.27 36.3374C152.806 36.3374 152.341 36.3845 151.923 36.43C149.643 36.6152 147.505 37.6805 145.831 39.3013V36.7078H140.81V69.4421H145.831V57.3122C147.738 59.1637 150.155 60.3215 152.667 60.3685C152.853 60.3685 153.085 60.3685 153.27 60.4143C159.315 60.5068 164.105 55.5532 164.105 48.3765C164.105 42.3108 160.897 36.9399 154.155 36.3845Z" fill="#0069FF"/>
<path fill-rule="evenodd" clip-rule="evenodd" d="M223.965 36.4624C220.571 36.4624 217.779 38.1757 216.757 40.8603V36.7856H211.69V60.0762H216.757V49.0554C216.804 46.9716 218.199 40.9075 224.522 40.7677H226.522V36.4624H223.965Z" fill="#0069FF"/>
</g>
<defs>
<clipPath id="clip0_311_193">
<rect width="153.6" height="40" fill="white" transform="translate(72.9219 30)"/>
</clipPath>
</defs>
</svg>
