<svg width="300" height="100" viewBox="0 0 300 100" fill="none" xmlns="http://www.w3.org/2000/svg">
<rect width="300" height="100" fill="white"/>
<g clip-path="url(#clip0_291_7891)">
<path d="M214.954 60.9142V61.7931C213.744 61.7283 212.57 61.6174 211.396 61.6153C209.694 61.6153 207.991 61.7345 206.289 61.7136C205.676 61.7136 205.057 61.2951 204.456 61.3223C202.753 61.4164 201.057 61.6467 199.358 61.8245C199.186 61.8434 199.015 61.8685 198.776 61.8999V60.3826C197.926 60.8577 197.179 61.429 196.336 61.7178C193.226 62.7642 189.572 61.3286 188.429 57.8377C187.921 56.289 187.619 54.6985 187.728 53.0912C187.889 50.7033 188.54 48.4556 190.179 46.6349C191.435 45.2452 193.069 44.563 194.925 44.4772C196.131 44.4207 197.343 44.4772 198.669 44.4772C198.619 43.3554 198.596 42.1018 198.492 40.8524C198.467 40.5261 198.32 40.2212 198.08 39.9985C197.84 39.7758 197.525 39.6518 197.198 39.6511C196.386 39.6302 196.361 39.2723 196.505 38.5566C197.03 38.588 197.555 38.588 198.079 38.5566C199.786 38.3529 201.489 38.1227 203.19 37.866C203.778 37.776 203.971 37.9036 203.876 38.4813C203.816 38.7807 203.78 39.0844 203.768 39.3895V57.8419C203.768 59.4617 204.004 59.761 205.517 60.257C205.712 60.3219 205.842 60.5856 206.013 60.7739C207.478 60.3972 207.782 59.1918 207.803 57.9173C207.853 54.7257 207.884 51.5321 207.79 48.3426C207.744 46.8316 207.6 46.4842 205.86 46.1054V45.1113C206.545 45.1113 207.191 45.1615 207.83 45.1113C209.266 45.0103 210.695 44.8371 212.114 44.5923C212.888 44.4395 212.951 44.7053 212.951 45.3101C212.951 49.6185 212.957 53.9262 212.97 58.2333C212.97 59.9431 213.319 60.4244 214.954 60.9142ZM198.686 53.018V47.7294C198.686 46.7646 198.464 46.4737 197.535 46.1703C195.838 45.624 194.36 46.321 193.852 48.1501C193.482 49.5478 193.272 50.9828 193.224 52.4278C193.147 54.2088 193.224 56.0086 193.929 57.6975C194.662 59.4366 196.231 60.1084 198.002 59.4869C198.477 59.3194 198.705 59.083 198.695 58.5367C198.667 56.6992 198.695 54.8596 198.695 53.018H198.686Z" fill="#03ADED"/>
<path d="M95.9311 61.1862V61.9919H87.1245L87.0847 61.1966C88.5497 60.7781 89.1231 59.8677 89.1168 58.3337C89.098 53.2586 89.2006 48.1835 89.2382 43.1084C89.2445 42.4699 89.1954 41.832 89.0917 41.2019C88.9494 40.3543 88.2839 39.9336 87.1329 39.898V39.0442L94.351 38.207V46.4716C95.4644 45.3938 96.7347 44.7659 98.2917 44.7659C99.8153 44.7659 101.328 44.6927 102.643 45.714C103.85 46.6515 104.298 47.9428 104.342 49.3659C104.428 52.1138 104.411 54.8659 104.443 57.6137C104.443 58.0532 104.461 58.4948 104.493 58.9343C104.593 60.3407 104.985 60.8178 106.362 61.1924V61.9186H97.6974V61.159C98.1553 61.0341 98.5572 60.7573 98.8371 60.374C99.1169 59.9906 99.2582 59.5236 99.2377 59.0494C99.2628 56.0169 99.3591 52.9802 99.1875 49.9561C99.0514 47.5703 96.9921 46.5281 94.7926 47.5368C94.6683 47.6055 94.5614 47.7018 94.4801 47.8183C94.3989 47.9347 94.3454 48.0682 94.3238 48.2086C94.3238 51.9757 94.3447 55.7379 94.3866 59.4952C94.4096 60.3804 94.8323 60.8011 95.9331 61.1903L95.9311 61.1862Z" fill="#242021"/>
<path d="M138.849 38.7805V42.7066H137.911C137.702 41.2417 136.785 40.3438 135.343 40.1806C133.097 39.9274 130.814 39.8499 129.012 41.5786C127.874 42.671 127.235 44.09 126.894 45.6219C126.095 49.2299 126.091 52.8233 127.269 56.3476C128.274 59.355 130.544 60.7049 133.667 60.324V55.23C133.667 55.0752 133.652 54.9182 133.667 54.7633C133.702 53.7169 133.409 53.2565 132.486 52.8798C131.785 52.5889 131.785 52.5889 131.825 51.8606H140.809L140.847 52.6182L140.485 52.7333C139.265 53.1037 138.826 53.6897 138.811 54.9977C138.796 56.8143 138.777 58.633 138.796 60.4391C138.796 60.9539 138.696 61.1757 138.124 61.3243C135.799 61.9354 133.441 61.9668 131.07 61.8747C128.755 61.7847 126.601 61.1694 124.67 59.8573C122.594 58.4446 121.503 56.4167 121.112 53.9974C120.921 52.8379 120.725 51.6534 120.769 50.4877C120.877 47.5871 121.363 44.7743 123.267 42.4032C124.806 40.4882 126.84 39.4293 129.167 38.8621C132.564 38.0396 135.948 38.3305 138.857 38.7763L138.849 38.7805ZM237.707 44.5881L237.776 46.0886C238.404 45.6889 238.896 45.2347 239.484 45.0129C241.604 44.2093 243.759 44.0544 245.817 45.1782C247.261 45.9693 247.813 47.3694 247.855 48.9453C247.941 52.0845 247.949 55.2238 248.016 58.3483C248.052 60.0079 248.449 60.4977 250.002 60.9392V61.6864H241.25C241.095 61.1736 241.16 60.8911 241.771 60.6086C242.19 60.4119 242.581 59.7924 242.688 59.2964C242.841 58.4283 242.9 57.5464 242.864 56.6657C242.851 54.305 242.782 51.9443 242.763 49.5836C242.744 47.1413 240.88 46.683 238.927 47.0534C238.128 47.2062 237.82 47.5599 237.839 48.4451C237.912 51.8711 237.879 55.2991 237.889 58.725C237.889 59.9682 238.215 60.4265 239.406 60.8765V61.6843H230.616L230.564 60.8932C232.238 60.5625 232.73 59.3403 232.747 57.8649C232.78 54.6985 232.818 51.5299 232.73 48.3635C232.688 46.863 232.54 46.4067 230.765 46.0949V45.2578L237.707 44.5881Z" fill="#03ADED"/>
<path d="M139.476 46.2708V45.4044L146.592 44.5672V55.9605C146.593 56.5238 146.656 57.0853 146.78 57.6348C147.105 59.0307 148.423 59.715 150.083 59.3739C150.436 59.323 150.774 59.1974 151.075 59.0056C151.206 58.9109 151.317 58.7911 151.402 58.6531C151.487 58.5152 151.543 58.3619 151.569 58.2019C151.596 55.1381 151.581 52.0742 151.569 49.0124C151.569 48.4787 151.608 47.8802 151.387 47.4302C151.148 46.9367 150.739 46.5458 150.235 46.3294C149.591 46.1201 149.432 45.8187 149.566 45.306L156.715 44.5882V47.4993C156.715 51.0047 156.7 54.5081 156.715 58.0136C156.715 59.625 157.064 59.9934 158.613 60.2843C158.808 61.2386 158.772 61.314 157.868 61.2867C155.962 61.1979 154.054 61.3883 152.203 61.8518C151.784 61.9627 151.548 61.8518 151.575 61.3663C151.59 60.9896 151.575 60.6129 151.575 60.3638C150.528 60.8598 149.547 61.4939 148.48 61.7827C146.558 62.3039 144.641 62.126 143.007 60.8619C142.6 60.5479 142.267 60.1481 142.032 59.6909C141.797 59.2337 141.665 58.7304 141.647 58.2166C141.536 55.2448 141.529 52.2688 141.467 49.297C141.487 48.734 141.431 48.1709 141.301 47.6227C141.046 46.7982 140.401 46.344 139.478 46.2708H139.476ZM167.15 60.4057C166.534 60.7405 165.66 61.4793 164.663 61.7116C161.497 62.4566 158.76 61.45 158.621 57.5678C158.616 56.8609 158.708 56.1566 158.896 55.475C159.283 53.9389 160.34 53.0222 161.863 52.7543C163.203 52.5095 164.584 52.4279 165.923 52.3002C166.354 52.2583 166.792 52.3002 167.365 52.3002C167.294 51.0445 167.397 49.8369 167.116 48.7215C166.762 47.3151 165.584 46.5282 163.621 46.8379C162.516 47.0179 161.784 47.7148 161.193 48.6127C161.152 48.6174 161.109 48.6093 161.072 48.5896C160.026 47.6395 160.063 47.3339 161.072 46.2875C162.328 44.967 163.879 44.4793 165.624 44.494C166.704 44.494 167.811 44.494 168.859 44.7033C170.866 45.1218 172.223 46.8421 172.273 49.0207C172.338 51.846 172.285 54.6714 172.29 57.4988C172.29 59.0956 172.65 59.3655 174.225 59.0202C174.38 58.9867 174.686 59.0977 174.726 59.2107C174.803 59.4346 174.845 59.7778 174.726 59.9453C173.889 61.111 172.76 61.8434 171.304 61.9083C170.4 61.9502 169.454 62.1176 168.636 61.4793C168.129 61.0816 167.589 60.7342 167.139 60.4099L167.15 60.4057ZM167.359 53.6291C166.815 53.6814 166.405 53.7087 165.996 53.7589C164.965 53.8865 164.165 54.3616 163.866 55.4017C163.533 56.5486 163.447 57.7164 164.23 58.7356C164.835 59.5309 166.367 59.6376 167.129 58.9826C167.257 58.8655 167.337 58.7039 167.351 58.5305C167.365 56.9337 167.351 55.3369 167.351 53.627L167.359 53.6291ZM223.639 52.2876C223.551 51.0571 223.595 49.9081 223.361 48.8177C222.994 47.1142 221.496 46.4508 219.859 46.9007C218.926 47.1581 218.108 47.8404 217.139 48.3824C216.199 47.7546 216.232 47.4302 217.139 46.4403C218.53 44.9021 220.265 44.4019 222.239 44.4772C223.216 44.5149 224.221 44.4898 225.158 44.7221C227.285 45.2495 228.448 46.8024 228.507 49.2384C228.586 52.0909 228.524 54.9476 228.528 57.8022C228.528 59.0139 229.185 59.4765 230.325 59.1039C230.512 59.0433 230.882 59.0914 230.953 59.2065C231.01 59.3188 231.04 59.4424 231.042 59.5682C231.045 59.6939 231.018 59.8185 230.966 59.9327C230.058 61.1444 228.858 61.8769 227.31 61.9167C226.209 61.9439 225.066 62.0611 224.29 61.0042C224.066 60.7008 223.871 60.3764 223.662 60.0478C223.166 60.4308 222.662 60.7991 222.18 61.1947C220.899 62.2411 217.467 62.2641 216.218 60.9728C215.639 60.3416 215.223 59.5787 215.006 58.7503C214.546 57.0341 214.715 55.3118 215.939 53.9368C216.5 53.3553 217.219 52.9514 218.007 52.7753C219.33 52.4802 220.707 52.4174 222.065 52.2855C222.519 52.2395 222.986 52.2855 223.639 52.2855V52.2876ZM223.566 53.6312C222.959 53.7003 222.446 53.7317 221.944 53.8196C220.992 53.9849 220.27 54.529 220.092 55.475C219.92 56.2817 219.907 57.1141 220.054 57.9257C220.353 59.3279 222.147 59.8888 223.298 59.0286C223.372 58.966 223.433 58.8891 223.478 58.8025C223.522 58.7158 223.548 58.6212 223.555 58.5242C223.572 56.9316 223.555 55.3494 223.555 53.6208L223.566 53.6312Z" fill="#03ADED"/>
<path d="M86.9403 42.8698H85.8814C85.7014 41.0784 84.927 40.4003 83.1063 40.4066H80.3668V58.0678C80.3668 59.9911 81.0281 60.6964 82.987 60.8576C82.987 60.9999 83.0121 61.1485 83.0121 61.2992C83.0088 61.4245 82.9983 61.5496 82.9807 61.6738H72.4538L72.4245 61.0459C73.134 60.7362 73.8288 60.5729 74.3269 60.169C74.7141 59.8551 74.9778 59.2628 75.0803 58.7501C75.2008 57.9946 75.247 57.2292 75.2185 56.4648V40.4212C73.9481 40.4212 72.6799 40.3124 71.4388 40.4526C70.271 40.5824 69.8127 41.3023 69.5302 42.8782H68.6428V38.7302H86.7101L86.9403 42.8698Z" fill="#242021"/>
<path d="M119.697 52.2646H110.42C110.526 54.5291 110.48 56.8061 112.263 58.4908C112.864 59.0384 113.609 59.4017 114.411 59.5372C115.794 59.7668 117.213 59.6096 118.512 59.083C118.632 59.062 118.754 59.0701 118.87 59.1065C118.985 59.143 119.09 59.2067 119.176 59.2923C119.264 59.3886 119.176 59.7778 119.046 59.9202C117.965 61.084 116.476 61.7844 114.89 61.8749C113.165 61.9669 111.432 62.1072 109.718 61.4919C107.85 60.8201 106.68 59.5434 105.924 57.7876C105.108 55.8852 105.133 53.851 105.342 51.89C105.591 49.5419 106.447 47.3026 108.438 45.8397C109.394 45.1737 110.487 44.731 111.638 44.5442C112.755 44.3496 113.965 44.4542 115.099 44.6384C117.556 45.0402 119.052 47.1331 119.461 49.4163C119.62 50.3204 119.617 51.2412 119.697 52.2646ZM110.388 50.5318H114.649C114.545 49.4372 114.519 48.3762 114.327 47.3465C114.134 46.3169 113.49 45.8481 112.54 45.8648C111.589 45.8815 110.97 46.3336 110.765 47.3821C110.556 48.3887 110.516 49.4226 110.392 50.5213L110.388 50.5318Z" fill="#252122"/>
<path d="M184.271 60.8682V61.6739H174.355L174.311 60.8912C175.148 60.6819 175.893 60.3408 176.195 59.5309C176.4 58.9559 176.505 58.3499 176.505 57.7394C176.534 54.6504 176.565 51.5593 176.505 48.4724C176.469 46.8149 176.124 46.3106 174.535 46.0929V45.2558L181.456 44.5819V46.4926C181.862 46.1452 182.164 45.9631 182.367 45.7036C183.562 44.1738 186.667 44.1445 188.132 45.0988C188.507 45.3416 188.597 45.6262 188.425 46.0071C187.885 47.1979 187.347 48.3887 186.778 49.5649C186.725 49.655 186.651 49.7312 186.562 49.7876C186.474 49.8439 186.374 49.8787 186.27 49.8893C186.117 49.8893 185.929 49.6674 185.83 49.5021C185.412 48.7864 185.148 47.8948 184.187 47.7044C183.47 47.57 182.744 47.4931 182.015 47.4742C181.898 47.4742 181.659 47.8299 181.657 48.0225C181.636 51.5531 181.609 55.0836 181.657 58.6142C181.678 60.119 182.398 60.684 184.271 60.8682Z" fill="#03ADED"/>
<path d="M65.6983 62.1593H50.0022V38.2468H65.6983V62.1593ZM50.5798 38.7826V61.5817H65.0956V38.7826H50.5798Z" fill="#0CB0EE"/>
<path d="M207.507 41.2562C207.484 40.1136 207.844 39.2785 209.213 39.1823C210.122 39.1241 211.036 39.1726 211.934 39.3267C212.808 39.4711 213.189 40.1805 213.265 41.0009C213.361 41.9259 212.961 42.6752 212.183 43.0435C211.668 43.2923 211.109 43.4358 210.537 43.4656C209.966 43.4955 209.395 43.411 208.857 43.2172C207.861 42.8803 207.512 42.3257 207.507 41.2562Z" fill="#03ADED"/>
<path d="M59.8175 48.0894C61.9354 47.2041 63.2664 44.1026 62.4481 41.9658C62.1761 41.2564 61.7701 41.0889 61.2615 41.4928C61.3034 41.5317 61.3497 41.5655 61.3996 41.5933C62.0714 41.8633 62.2514 42.1625 62.0275 42.6523C61.8391 43.0708 61.2971 43.1776 60.7718 42.9118C60.509 42.7806 60.2981 42.5646 60.1732 42.2988C60.0482 42.033 60.0165 41.7328 60.0832 41.4468C60.2151 40.6787 60.6776 40.1911 61.364 40.122C62.3937 40.0069 63.2476 40.5532 63.5427 41.6331C64.0596 43.4978 63.8943 46.57 61.6717 48.2966C61.0062 48.8135 60.2067 49.1463 59.4973 49.5376C59.447 49.5125 59.5391 49.6004 59.627 49.5941C60.2925 49.5544 60.4034 49.9771 60.3762 50.4919C60.3427 51.147 60.1481 51.2977 59.4638 51.3102C58.5304 51.3102 58.3713 51.4191 58.499 52.3399C58.6894 53.7128 59.0013 55.0606 59.2398 56.4356C59.3924 57.1654 59.491 57.9055 59.5349 58.6498C59.56 59.6438 58.7962 60.2905 57.7497 60.2801C56.7033 60.2696 55.9499 59.6773 56.042 58.6707C56.1655 57.3145 56.4878 55.9772 56.6992 54.6274C56.8394 53.7379 56.9649 52.8443 57.0507 51.9486C57.0926 51.4944 56.8603 51.2914 56.3517 51.2956C55.4477 51.2956 55.3053 51.1198 55.2844 50.3768C55.2844 49.862 55.4477 49.5586 56.019 49.6046C56.1554 49.5965 56.2903 49.5719 56.4208 49.5313C56.3664 49.4539 56.3476 49.4058 56.3245 49.4037C53.2418 48.9516 52.0301 46.2896 51.915 43.8556C51.871 42.9306 51.8689 41.9972 52.3754 41.1559C53.1309 39.9002 54.7298 39.7788 55.4728 40.9194C56.0295 41.7754 55.5314 42.9557 54.577 42.962C54.428 42.9575 54.2815 42.9212 54.1476 42.8555C54.0137 42.7898 53.8954 42.6963 53.8006 42.5811C53.5913 42.24 53.765 41.8821 54.1292 41.6665L54.3385 41.5431C54.0036 41.2584 53.7106 41.2605 53.5013 41.6603C53.291 42.0436 53.1493 42.4608 53.0828 42.8929C52.7312 45.0276 53.8132 47.2544 55.5941 48.081C55.8997 48.2233 56.222 48.3133 56.5527 48.4243L56.6866 48.2778C56.5778 48.1836 56.4773 48.0685 56.358 47.9931C56.178 47.8592 55.8704 47.7587 55.8348 47.5913C55.7448 47.1895 56.0713 47.1727 56.3769 47.1727C56.4689 47.1727 56.561 47.089 56.7954 46.9635C56.6256 46.9336 56.4593 46.8859 56.2994 46.8212C56.1307 46.7076 55.9679 46.5853 55.8118 46.4549C55.9604 46.3314 56.1006 46.2017 56.2597 46.0908C56.3601 46.0196 56.4836 45.9819 56.5589 45.7978C56.4657 45.7885 56.3746 45.7645 56.289 45.7266C56.1153 45.6136 55.9583 45.4797 55.7951 45.352C55.9457 45.2201 56.0943 45.082 56.2513 44.9502C56.358 44.8665 56.4773 44.7974 56.5903 44.7221C56.4825 44.6594 56.379 44.5894 56.2806 44.5128C56.1194 44.3809 55.9709 44.2323 55.816 44.0942C55.9625 43.9435 56.0901 43.6924 56.2618 43.661C56.6301 43.5857 56.7033 43.4015 56.6803 43.0729C56.6615 42.5769 56.695 42.1228 56.2785 41.6896C56.0462 41.4468 55.9918 40.911 56.0525 40.5406C56.1341 40.0425 56.6406 40.1576 57.011 40.1534C57.597 40.1534 58.1851 40.2099 58.7669 40.1534C59.853 40.0614 59.9744 40.9445 59.5161 41.5849C59.3477 41.7946 59.2249 42.0371 59.1557 42.2969C59.0865 42.5568 59.0724 42.8282 59.1143 43.0938C59.1457 43.3031 59.3235 43.4601 59.468 43.6275C59.6124 43.7949 59.7568 43.9331 59.9053 44.0837C59.7421 44.224 59.581 44.3684 59.4156 44.5023C59.3484 44.554 59.2786 44.6022 59.2063 44.6467L59.8928 45.2976L59.1122 45.9003C59.2047 45.9546 59.2942 46.0139 59.3801 46.0782C59.5307 46.1975 59.671 46.3272 59.8175 46.4528C59.673 46.5784 59.5328 46.7102 59.3801 46.8232C59.2336 46.9046 59.081 46.9745 58.9238 47.0325C59.47 47.2418 60.1795 47.1727 59.7065 47.9345L59.0578 48.1438L59.1394 48.3531L59.8175 48.0894ZM58.499 43.0666C58.1955 42.8281 58.0197 42.5832 57.8251 42.5685C57.6786 42.556 57.3709 42.8469 57.3814 42.9704C57.3996 43.0852 57.4457 43.1937 57.5158 43.2864C57.5859 43.3791 57.6777 43.4532 57.7832 43.5019C57.9528 43.5522 58.1704 43.2927 58.4969 43.0834L58.499 43.0666ZM58.499 48.4389C58.1955 48.2003 58.0197 47.9576 57.8314 47.9429C57.6828 47.9429 57.3793 48.2171 57.3877 48.3447C57.4055 48.4584 57.4516 48.5657 57.5219 48.6567C57.5921 48.7478 57.6841 48.8197 57.7895 48.8658C57.959 48.9098 58.1725 48.6566 58.499 48.4473V48.4389ZM57.7874 44.4625L57.2538 44.7597C57.4361 44.8615 57.6342 44.9322 57.8397 44.969C58.0093 44.969 58.1788 44.8267 58.3462 44.7451L57.7874 44.4625ZM57.1847 45.7601C57.394 46.344 57.8125 46.0782 58.0992 46.1305C58.1662 46.1431 58.2562 46.0154 58.3357 45.9505C58.2562 45.8857 58.1851 45.7747 58.1013 45.7664C57.8397 45.7413 57.5614 45.7664 57.1972 45.7664L57.1847 45.7601ZM57.2684 46.8525L57.2056 47.0053C57.3019 47.0807 57.3961 47.2146 57.4944 47.2146C57.7696 47.2096 58.0443 47.1879 58.3169 47.1497C58.2625 47.0493 58.2185 46.8672 58.1537 46.8609C57.8625 46.8408 57.5705 46.8359 57.2789 46.8463L57.2684 46.8525Z" fill="#282425"/>
<path d="M58.5072 43.0667C58.1786 43.276 57.9588 43.5439 57.7977 43.5125C57.6922 43.4637 57.6004 43.3897 57.5303 43.297C57.4602 43.2042 57.414 43.0957 57.3959 42.9809C57.3833 42.849 57.691 42.5623 57.8396 42.5791C58.03 42.5791 58.1995 42.826 58.5093 43.0667H58.5072Z" fill="#EFEEEE"/>
<path d="M58.5094 48.4429C58.1808 48.6522 57.9652 48.9054 57.7978 48.8782C57.6924 48.8321 57.6004 48.7602 57.5302 48.6691C57.4599 48.5781 57.4138 48.4707 57.396 48.3571C57.396 48.2232 57.689 47.9386 57.8397 47.9553C58.0322 47.9553 58.1996 48.2002 58.5115 48.445L58.5094 48.4429Z" fill="#F4F4F4"/>
<path d="M57.7937 44.4541L58.3525 44.7366C58.1829 44.8162 58.0113 44.9627 57.846 44.9606C57.6404 44.9238 57.4424 44.853 57.26 44.7513L57.7937 44.4541Z" fill="#E1E0E0"/>
<path d="M57.2014 45.7516C57.5656 45.7516 57.8439 45.737 58.1181 45.7516C58.1997 45.7516 58.275 45.8709 58.3525 45.9358C58.2729 45.9986 58.1809 46.1242 58.116 46.1158C57.8272 46.0718 57.4107 46.3251 57.2014 45.7537V45.7516ZM57.2851 46.8441C57.581 46.8333 57.8772 46.8382 58.1725 46.8587C58.2374 46.8587 58.2813 47.045 58.3357 47.1475C58.0631 47.1857 57.7885 47.2074 57.5132 47.2124C57.4149 47.2124 57.304 47.0743 57.2244 47.0031L57.2851 46.8441Z" fill="#F9F9F9"/>
<path d="M59.8173 48.0895L59.1246 48.3783L59.043 48.169L59.6917 47.9597L59.8173 48.0895Z" fill="#FCFDFD"/>
</g>
<defs>
<clipPath id="clip0_291_7891">
<rect width="200" height="24.3185" fill="white" transform="translate(50 37.8408)"/>
</clipPath>
</defs>
</svg>
