<svg width="300" height="100" viewBox="0 0 300 100" fill="none" xmlns="http://www.w3.org/2000/svg">
<rect width="300" height="100" fill="white"/>
<g clip-path="url(#clip0_298_9571)">
<path d="M133.928 62.5291C132.586 59.957 131.882 57.0999 131.876 54.1988C131.876 44.2993 139.904 36.2706 149.804 36.2706C154.814 36.2706 159.402 38.2626 162.842 41.8845L161.333 43.273C158.315 40.0738 154.21 38.3232 149.804 38.3232C141.051 38.3232 133.928 45.4459 133.928 54.1988C133.928 56.7944 134.532 59.3299 135.739 61.5633L133.928 62.5291Z" fill="url(#paint0_linear_298_9571)"/>
<path d="M132.43 65.9702C130.069 62.457 128.797 58.3981 128.797 54.1579C128.858 42.588 138.243 33.1989 149.867 33.1989C153.236 33.1998 156.556 34.0088 159.548 35.5582C162.54 37.1076 165.117 39.3521 167.062 42.1034L165.367 43.315C163.619 40.8272 161.298 38.7964 158.6 37.3942C155.903 35.9921 152.907 35.2596 149.867 35.2587C139.393 35.2587 130.916 43.739 130.916 54.2185C130.916 58.0346 132.067 61.73 134.186 64.8798L132.43 65.9702Z" fill="url(#paint1_linear_298_9571)"/>
<path d="M131.287 69.7131C127.655 65.3545 125.659 59.8452 125.659 54.2153C125.659 40.8969 136.491 30.0001 149.865 30.0001C158.761 30.0001 166.87 34.8429 171.106 42.6524L169.291 43.6213C167.396 40.1215 164.591 37.1992 161.171 35.1637C157.751 33.1281 153.845 32.0552 149.865 32.0585C137.641 32.0585 127.716 41.9865 127.716 54.2153C127.716 59.4216 129.532 64.4462 132.86 68.3813L131.287 69.7131Z" fill="url(#paint2_linear_298_9571)"/>
<path d="M143.339 49.8168V51.3867H142.312V56.9403H140.622V51.3867H139.777V49.8168H140.622V48.549C140.864 49.0325 141.829 49.1531 142.312 49.8168H143.339ZM148.952 56.9403V53.3183C148.952 52.2922 148.772 51.1455 147.504 51.1455C146.236 51.1455 146.055 52.3525 146.055 53.3183V56.9403H144.365V47.4626H146.055V50.2997C146.598 49.8168 147.202 49.5751 147.866 49.5751C148.892 49.5751 149.918 50.1792 150.341 51.0847C150.583 51.6284 150.643 52.2916 150.643 52.8957V56.9403H148.952ZM153.48 52.956V56.9397H151.729V49.8168H153.299V50.4812C153.722 49.8771 154.083 49.5757 154.868 49.5757H154.989V51.2053C153.903 51.2661 153.48 51.8696 153.48 52.956ZM155.894 49.0325V47.4626H157.584V49.0325H155.894ZM155.894 56.9397V49.8174H157.584V56.9409H155.895L155.894 56.9397ZM162.655 57.0006H161.328L158.43 49.8771H160.301L162.052 54.5855L163.682 49.8771H165.553L162.655 57.0006ZM169.778 49.5154C169.355 49.5154 168.933 49.5757 168.571 49.6963C167.062 50.2395 166.035 51.6882 166.035 53.3786C166.035 55.2499 167.363 56.7589 169.114 57.1212C170.079 56.698 170.864 55.974 171.288 54.8876C171.288 54.8273 171.227 54.8273 171.227 54.8876C170.864 55.3705 170.381 55.6122 169.778 55.6122C168.872 55.6122 168.088 54.9479 167.907 54.1026H173.46C173.521 53.8012 173.581 53.5595 173.581 53.258C173.46 51.2655 171.83 49.5154 169.778 49.5154ZM167.786 52.7751C168.027 51.8093 168.812 51.0847 169.838 51.0847C170.261 51.0847 170.623 51.2058 170.925 51.3861C171.347 51.6882 171.71 52.1711 171.83 52.7142H167.786V52.7751Z" fill="black"/>
<path d="M173.219 54.7063C172.797 56.1549 171.288 57.1812 169.779 57.1812C169.598 57.1812 169.417 57.1812 169.235 57.1206C169.356 57.0604 169.477 57.0604 169.598 56.9999C170.382 56.6377 170.925 56.0947 171.288 55.3098C171.469 54.8871 171.892 54.7063 172.314 54.7063H173.219Z" fill="url(#paint3_linear_298_9571)"/>
<path d="M142.313 47.5235V49.3342C141.83 48.6701 140.804 48.5494 140.623 48.0665C140.562 48.0064 140.562 47.9458 140.562 47.8251V46.0745C141.166 45.8936 142.313 46.6179 142.313 47.5235Z" fill="url(#paint4_linear_298_9571)"/>
<path d="M159.697 61.1049V60.6829C159.577 60.8035 159.516 60.924 159.396 60.9843C159.153 61.108 158.883 61.1703 158.61 61.1658C157.766 61.1658 157.162 60.5014 157.162 59.6562C157.162 58.8116 157.765 58.1472 158.671 58.1472C159.034 58.1472 159.516 58.3287 159.697 58.6301V58.2081H160.18V61.0452H159.697V61.1049ZM158.671 58.691C158.128 58.691 157.706 59.1739 157.706 59.7171C157.706 60.2603 158.128 60.7432 158.671 60.7432C159.215 60.7432 159.637 60.2603 159.637 59.7171C159.697 59.1739 159.275 58.691 158.671 58.691ZM162.233 62.2522C161.81 62.2522 161.508 62.131 161.206 61.829C161.025 61.6487 160.965 61.5878 160.844 61.3467H161.448C161.629 61.6481 161.931 61.7693 162.293 61.7693C162.896 61.7693 163.319 61.4069 163.319 60.8035V60.7426C163.196 60.896 163.04 61.0192 162.862 61.1029C162.684 61.1866 162.489 61.2285 162.293 61.2255C162.094 61.2274 161.897 61.1897 161.713 61.1146C161.529 61.0394 161.362 60.9283 161.221 60.7878C161.081 60.6473 160.97 60.4802 160.895 60.2963C160.82 60.1123 160.782 59.9152 160.784 59.7165C160.784 58.8713 161.508 58.2081 162.353 58.2081C162.776 58.2081 163.078 58.3287 163.379 58.6301V58.2678H163.802V60.8035C163.802 61.7084 163.078 62.2522 162.233 62.2522ZM162.233 58.6904C161.689 58.6904 161.206 59.1733 161.206 59.7165C161.206 60.2597 161.629 60.7426 162.172 60.7426C162.776 60.7426 163.198 60.2597 163.198 59.6562C163.259 59.113 162.776 58.6904 162.233 58.6904ZM165.009 59.5965V61.1658H164.466V58.3287H165.009V58.5698C165.19 58.3287 165.432 58.2684 165.734 58.2684V58.8116C165.19 58.8116 165.009 59.0527 165.009 59.5965ZM166.157 57.9664V57.3623H166.7V57.9652H166.157V57.9664ZM166.157 61.1055V58.2684H166.7V61.1055H166.157ZM168.631 61.2255C167.786 61.2255 167.183 60.5617 167.183 59.7165C167.183 58.8713 167.786 58.2075 168.631 58.2075C169.235 58.2075 169.899 58.6301 170.02 59.2336H169.416C169.235 58.8713 168.993 58.6904 168.631 58.6904C168.088 58.6904 167.666 59.1733 167.666 59.7165C167.666 60.2603 168.027 60.7426 168.571 60.7426C168.933 60.7426 169.235 60.5014 169.416 60.1994H170.02C169.932 60.4984 169.748 60.7604 169.498 60.9456C169.247 61.1309 168.942 61.2291 168.631 61.2255Z" fill="#48A64C"/>
</g>
<defs>
<linearGradient id="paint0_linear_298_9571" x1="109.299" y1="53.679" x2="164.633" y2="46.234" gradientUnits="userSpaceOnUse">
<stop stop-color="#9ACB55"/>
<stop offset="1" stop-color="#0D9A49"/>
</linearGradient>
<linearGradient id="paint1_linear_298_9571" x1="109.251" y1="53.7855" x2="164.751" y2="46.3142" gradientUnits="userSpaceOnUse">
<stop stop-color="#9ACB55"/>
<stop offset="1" stop-color="#0D9A49"/>
</linearGradient>
<linearGradient id="paint2_linear_298_9571" x1="109.295" y1="53.9564" x2="164.768" y2="46.4896" gradientUnits="userSpaceOnUse">
<stop stop-color="#9ACB55"/>
<stop offset="1" stop-color="#0D9A49"/>
</linearGradient>
<linearGradient id="paint3_linear_298_9571" x1="169.219" y1="55.9544" x2="173.195" y2="55.9544" gradientUnits="userSpaceOnUse">
<stop stop-color="#9ACB55"/>
<stop offset="1" stop-color="#0D9A49"/>
</linearGradient>
<linearGradient id="paint4_linear_298_9571" x1="140.535" y1="47.6928" x2="142.308" y2="47.6928" gradientUnits="userSpaceOnUse">
<stop stop-color="#9ACB55"/>
<stop offset="1" stop-color="#0D9A49"/>
</linearGradient>
<clipPath id="clip0_298_9571">
<rect width="48.1159" height="40" fill="white" transform="translate(125.656 30)"/>
</clipPath>
</defs>
</svg>
