<svg width="300" height="100" viewBox="0 0 300 100" fill="none" xmlns="http://www.w3.org/2000/svg">
<rect width="300" height="100" fill="white"/>
<path d="M124.259 41.3781H120.318C119.868 41.3757 119.421 41.3118 118.988 41.1882L118.728 41.0706V42.9932H119.202V42.6134C119.2 42.4823 119.249 42.3556 119.337 42.2587C119.425 42.1617 119.547 42.1017 119.677 42.0907H121.718V48.9042C121.711 49.0507 121.648 49.189 121.542 49.2904C121.436 49.3917 121.295 49.4484 121.148 49.4487H120.812V49.9243H123.731V49.4487H123.395C123.248 49.448 123.108 49.3912 123.002 49.2899C122.896 49.1886 122.833 49.0506 122.825 48.9042V42.0907H124.842C124.91 42.0907 124.977 42.1043 125.039 42.1308C125.102 42.1573 125.158 42.1961 125.205 42.2449C125.252 42.2937 125.289 42.3515 125.313 42.4148C125.338 42.4781 125.349 42.5457 125.346 42.6134V42.9932H125.822V41.0706L125.561 41.1882C125.138 41.3142 124.698 41.3781 124.256 41.3781" fill="#46505A"/>
<path d="M133.943 49.4487C133.82 49.4572 133.698 49.4173 133.604 49.3376C133.51 49.2579 133.451 49.1446 133.439 49.0218V43.4907C133.455 43.3696 133.515 43.2587 133.608 43.1798C133.702 43.1008 133.821 43.0595 133.943 43.0639H134.252V42.5899H131.499V43.0639H131.807C131.932 43.0608 132.054 43.1057 132.148 43.1893C132.242 43.273 132.3 43.3892 132.311 43.5143V45.9361H128.365V43.4907C128.378 43.3665 128.437 43.2517 128.53 43.1685C128.623 43.0853 128.744 43.0396 128.869 43.0403H129.177V42.5647H126.419V43.0403H126.728C126.853 43.0373 126.975 43.0821 127.069 43.1658C127.163 43.2495 127.221 43.3657 127.232 43.4907V48.9916C127.229 49.0543 127.213 49.1157 127.186 49.1723C127.158 49.2289 127.12 49.2796 127.073 49.3215C127.027 49.3633 126.972 49.3955 126.913 49.4162C126.853 49.4369 126.791 49.4456 126.728 49.442H126.419V49.9176H129.172V49.442H128.864C128.801 49.4456 128.738 49.4369 128.679 49.4162C128.62 49.3955 128.565 49.3633 128.518 49.3215C128.472 49.2796 128.433 49.2289 128.406 49.1723C128.379 49.1157 128.363 49.0543 128.36 48.9916V46.6386H132.324V48.9916C132.321 49.0543 132.305 49.1157 132.278 49.1723C132.251 49.2289 132.213 49.2796 132.166 49.3215C132.119 49.3633 132.064 49.3955 132.005 49.4162C131.946 49.4369 131.883 49.4456 131.82 49.442H131.513V49.9176H134.266V49.442L133.943 49.4487Z" fill="#46505A"/>
<path d="M140.566 48.0016C140.23 48.7848 139.854 49.1882 138.886 49.2117H137.244V46.6016H139.076C139.116 46.5987 139.156 46.6048 139.194 46.6195C139.231 46.6343 139.265 46.6573 139.292 46.6868C139.32 46.7163 139.34 46.7516 139.352 46.7901C139.364 46.8286 139.367 46.8693 139.361 46.9092V47.2453H139.866V45.2285H139.361V45.5646C139.361 45.7781 139.266 45.8739 139.076 45.8739H137.267V43.2537H139.499C139.555 43.2521 139.61 43.2622 139.661 43.2834C139.712 43.3046 139.758 43.3364 139.797 43.3767C139.835 43.417 139.864 43.465 139.882 43.5173C139.9 43.5697 139.907 43.6253 139.903 43.6806V44.0369H140.407V42.2571L140.146 42.3512C139.744 42.4629 139.328 42.5194 138.911 42.5193H135.321V42.9949H135.657C135.718 42.9889 135.78 42.9953 135.839 43.0136C135.898 43.032 135.953 43.062 136 43.1018C136.047 43.1416 136.085 43.1904 136.113 43.2454C136.141 43.3003 136.157 43.3603 136.161 43.4218V48.9529C136.16 49.0162 136.145 49.0785 136.119 49.136C136.092 49.1935 136.054 49.2449 136.007 49.2871C135.959 49.3293 135.904 49.3614 135.844 49.3814C135.784 49.4014 135.72 49.4088 135.657 49.4033H135.321V49.8789H140.377L141.16 47.8369H140.637L140.566 48.0016Z" fill="#46505A"/>
<path d="M151.533 43.0169V41.0925L151.272 41.2102C150.84 41.3319 150.393 41.3957 149.943 41.4001H146.003C145.554 41.3979 145.106 41.334 144.674 41.2102L144.412 41.0925V43.0152H144.887V42.6119C144.886 42.4811 144.934 42.3546 145.022 42.2577C145.11 42.1608 145.231 42.1006 145.361 42.0892H147.403V48.9026C147.397 49.0492 147.334 49.1875 147.227 49.2888C147.121 49.3902 146.98 49.4469 146.834 49.4472H146.498V49.9228H149.417V49.4472H149.081C148.934 49.4469 148.793 49.3902 148.687 49.2888C148.581 49.1875 148.518 49.0492 148.511 48.9026V42.0908H150.528C150.596 42.0908 150.663 42.1044 150.725 42.1309C150.788 42.1574 150.844 42.1962 150.891 42.245C150.938 42.2938 150.975 42.3516 150.999 42.4149C151.023 42.4782 151.035 42.5458 151.032 42.6135V42.9934L151.533 43.0169Z" fill="#46505A"/>
<path d="M155.498 42.3999C153.145 42.3999 151.368 44.0604 151.368 46.2453C151.368 48.4302 153.148 50.0907 155.498 50.0907C157.847 50.0907 159.629 48.4285 159.629 46.2453C159.629 44.0621 157.849 42.3999 155.498 42.3999ZM155.498 43.1108C157.178 43.1108 158.393 44.4402 158.393 46.2453C158.393 48.0503 157.183 49.3781 155.498 49.3781C153.812 49.3781 152.602 48.0486 152.602 46.2453C152.602 44.4419 153.837 43.1091 155.498 43.1091" fill="#46505A"/>
<path d="M166.37 43.0403H166.75C166.863 43.0417 166.973 43.0827 167.06 43.1563C167.147 43.23 167.205 43.3316 167.225 43.4437V47.8588L161.429 42.4L161.002 42.3748L161.049 42.5882C161.126 43.0594 161.166 43.5359 161.168 44.0134V48.9916C161.162 49.1112 161.108 49.2234 161.019 49.3035C160.929 49.3835 160.812 49.4249 160.692 49.4185H160.313V49.8941H162.901V49.4185H162.521C162.403 49.4197 162.289 49.3765 162.202 49.2973C162.115 49.2181 162.061 49.1089 162.05 48.9916V44.5596L167.866 50.0672H168.269L168.245 49.8537C168.171 49.3664 168.131 48.8744 168.126 48.3815V43.4201C168.138 43.3044 168.194 43.1976 168.282 43.1223C168.371 43.0471 168.486 43.0092 168.602 43.0168H168.982V42.5411H166.393L166.37 43.0403Z" fill="#46505A"/>
<path d="M174.18 43.0404H174.489L174.703 43.1345L174.726 43.3245L173.064 46.0555L171.551 43.3245L171.575 43.111L171.765 43.0169H172.074V42.5413H169.005V43.0169H169.341C169.525 43.0185 169.706 43.0654 169.867 43.1533C170.029 43.2412 170.166 43.3675 170.267 43.5211L172.403 46.869V48.9749C172.396 49.1014 172.339 49.2198 172.244 49.3042C172.15 49.3886 172.026 49.4322 171.899 49.4253H171.59V49.9009H174.345V49.4253H174.034C173.908 49.4283 173.786 49.3835 173.693 49.2998C173.599 49.2162 173.541 49.1 173.529 48.9749V46.8858L175.736 43.5379C175.926 43.3009 176.259 43.0169 176.662 43.0169H176.998V42.5413H174.202V43.0455L174.18 43.0404Z" fill="#46505A"/>
<path d="M185.835 47.7882C185.479 48.6655 185.029 49.2117 183.936 49.2117H182.437V46.079H184.242C184.342 46.0815 184.437 46.1224 184.508 46.193C184.578 46.2637 184.619 46.3589 184.622 46.4588V46.8151H185.096V44.6067H184.622V44.958C184.62 45.0604 184.58 45.1585 184.51 45.2331C184.44 45.3077 184.344 45.3534 184.242 45.3613H182.461V42.1143H184.645C184.776 42.1257 184.897 42.1859 184.985 42.2828C185.073 42.3797 185.121 42.5061 185.119 42.6369V43.0168H185.595V41.0706L185.333 41.1882C184.9 41.3118 184.453 41.3757 184.003 41.3781H180.4V41.8538H180.736C180.871 41.8548 181.002 41.9026 181.106 41.989C181.21 42.0754 181.28 42.1951 181.306 42.3277V48.8554C181.305 48.9288 181.289 49.0011 181.259 49.0684C181.23 49.1356 181.188 49.1963 181.135 49.2471C181.082 49.2979 181.019 49.3376 180.951 49.3642C180.882 49.3907 180.809 49.4034 180.736 49.4017H180.4V49.8773H185.551L186.358 47.6218H185.854L185.835 47.7882Z" fill="#46505A"/>
<path d="M192.435 48.0018C192.099 48.785 191.723 49.1883 190.755 49.2119H189.116V43.4976C189.13 43.3701 189.191 43.2526 189.288 43.169C189.385 43.0853 189.511 43.0417 189.639 43.0472H189.948V42.5715H187.165V43.0472H187.479C187.606 43.0453 187.729 43.0901 187.825 43.1732C187.921 43.2562 187.984 43.3717 188 43.4976V48.9917C187.999 49.0551 187.984 49.1176 187.958 49.1752C187.931 49.2328 187.893 49.2843 187.846 49.3265C187.799 49.3688 187.743 49.4009 187.683 49.4207C187.623 49.4406 187.559 49.4479 187.496 49.4421H187.16V49.9178H192.215L193 47.8757H192.477L192.435 48.0018Z" fill="#46505A"/>
<path d="M198.346 43.0403H198.701C198.792 43.0322 198.882 43.0598 198.953 43.1172C199.024 43.1746 199.07 43.2573 199.081 43.3478V47.2655C199.081 48.5949 198.25 49.4016 196.874 49.4016C195.639 49.4016 194.903 48.5478 194.903 47.1462V43.373C194.905 43.3258 194.916 43.2794 194.937 43.2367C194.957 43.194 194.986 43.1558 195.021 43.1245C195.057 43.0931 195.098 43.0692 195.143 43.0542C195.188 43.0391 195.235 43.0333 195.282 43.0369H195.639V42.5613H193.052V43.0369H193.408C193.456 43.0333 193.503 43.0391 193.548 43.0542C193.593 43.0692 193.634 43.0931 193.67 43.1245C193.705 43.1558 193.734 43.194 193.754 43.2367C193.775 43.2794 193.786 43.3258 193.788 43.373V47.3109C193.788 49.0436 194.975 50.1125 196.898 50.1125C198.82 50.1125 199.983 49.0453 199.983 47.3109V43.3949C199.983 43.205 200.151 43.0856 200.363 43.0856H200.719V42.6117H198.345V43.0386L198.346 43.0403Z" fill="#46505A"/>
<path d="M210.356 48.9748L209.407 42.4202H209.027L206.155 48.116L203.188 42.4202H202.808L201.882 48.9748C201.862 49.121 201.787 49.2542 201.673 49.3477C201.558 49.4411 201.413 49.488 201.266 49.479H200.909V49.9529H203.445V49.479H203.093L202.903 49.3832L202.856 49.2151L203.306 45.1092L205.894 50.0941H206.274L206.298 49.9513C206.39 49.5577 206.525 49.1756 206.701 48.8118L208.624 45.0134L209.17 49.2151L209.123 49.3832L208.933 49.479H208.577V49.9529H211.378V49.479H211.022C210.713 49.4538 210.429 49.3109 210.35 48.9748" fill="#46505A"/>
<path d="M217.099 48.0016C216.763 48.7848 216.387 49.1882 215.418 49.2117H213.78V46.6016H215.608C215.798 46.6016 215.892 46.7193 215.892 46.9092V47.2453H216.397V45.2285H215.892V45.5646C215.892 45.7781 215.798 45.8739 215.608 45.8739H213.798V43.2537H216.03C216.086 43.2521 216.141 43.2622 216.192 43.2834C216.243 43.3046 216.29 43.3364 216.328 43.3767C216.366 43.417 216.395 43.465 216.413 43.5173C216.431 43.5697 216.438 43.6253 216.434 43.6806V44.0369H216.938V42.2571L216.701 42.3512C216.299 42.4627 215.883 42.5193 215.466 42.5193H211.876V42.9949H212.212C212.273 42.9889 212.335 42.9953 212.394 43.0136C212.453 43.032 212.507 43.062 212.554 43.1018C212.601 43.1416 212.64 43.1904 212.667 43.2454C212.695 43.3003 212.712 43.3603 212.716 43.4218V48.9529C212.714 49.0162 212.7 49.0785 212.673 49.136C212.647 49.1935 212.609 49.2449 212.561 49.2871C212.514 49.3293 212.459 49.3614 212.399 49.3814C212.338 49.4014 212.275 49.4088 212.212 49.4033H211.876V49.8789H216.933L217.716 47.8369H217.193L217.099 48.0016Z" fill="#46505A"/>
<path d="M223.461 48.0018C223.124 48.785 222.748 49.1883 221.78 49.2119H220.143V43.4976C220.156 43.3704 220.218 43.2532 220.315 43.1696C220.411 43.0859 220.536 43.0422 220.664 43.0472H220.973V42.5715H218.166V43.0472H218.476C218.603 43.0452 218.726 43.09 218.823 43.173C218.919 43.256 218.982 43.3715 218.998 43.4976V48.9917C218.997 49.055 218.982 49.1174 218.956 49.1748C218.929 49.2323 218.891 49.2838 218.844 49.326C218.796 49.3682 218.741 49.4002 218.681 49.4202C218.621 49.4402 218.557 49.4477 218.494 49.4421H218.158V49.9178H223.239L224.022 47.8757H223.499L223.461 48.0018Z" fill="#46505A"/>
<path d="M229.372 42.5646V43.0403H229.728C229.819 43.0322 229.909 43.0598 229.98 43.1172C230.051 43.1746 230.097 43.2573 230.108 43.3478V47.2655C230.108 48.5949 229.276 49.4016 227.899 49.4016C226.666 49.4016 225.929 48.5478 225.929 47.1462V43.373C225.932 43.3258 225.943 43.2794 225.964 43.2367C225.984 43.194 226.013 43.1558 226.048 43.1245C226.084 43.0931 226.125 43.0692 226.17 43.0542C226.215 43.0391 226.262 43.0333 226.309 43.0369H226.666V42.5613H224.077V43.0369H224.434C224.481 43.0333 224.528 43.0391 224.573 43.0542C224.618 43.0692 224.659 43.0931 224.695 43.1245C224.73 43.1558 224.759 43.194 224.779 43.2367C224.8 43.2794 224.811 43.3258 224.814 43.373V47.3109C224.814 49.0436 226 50.1125 227.923 50.1125C229.845 50.1125 231.008 49.0453 231.008 47.3109V43.3949C231.008 43.205 231.177 43.0856 231.388 43.0856H231.745V42.6117L229.372 42.5646Z" fill="#46505A"/>
<path d="M123.855 54.4823C124.249 54.4789 124.64 54.4223 125.018 54.3142V55.4772H124.899V55.3092C124.9 55.2401 124.888 55.1716 124.862 55.1075C124.836 55.0435 124.798 54.9853 124.749 54.9365C124.7 54.8877 124.642 54.8492 124.578 54.8235C124.514 54.7977 124.445 54.7851 124.376 54.7865H122.217V57.3949H123.997C124.053 57.3988 124.109 57.3903 124.161 57.3698C124.214 57.3494 124.261 57.3177 124.299 57.2768C124.338 57.236 124.367 57.1871 124.384 57.1337C124.402 57.0803 124.407 57.0237 124.4 56.968V56.8487H124.519V58.2974H124.4V58.1781C124.4 57.9411 124.282 57.7512 124.02 57.7512H122.217V60.0066C122.219 60.0817 122.236 60.1555 122.268 60.2238C122.299 60.2921 122.343 60.3535 122.399 60.4043C122.454 60.4552 122.519 60.4945 122.589 60.52C122.66 60.5455 122.735 60.5567 122.81 60.5529H122.953V60.647H120.817V60.5529H120.958C121.033 60.5567 121.108 60.5455 121.179 60.5201C121.25 60.4946 121.315 60.4553 121.37 60.4044C121.425 60.3536 121.47 60.2922 121.501 60.2239C121.533 60.1556 121.55 60.0818 121.553 60.0066V55.1327C121.55 55.0576 121.533 54.9837 121.501 54.9154C121.47 54.8471 121.425 54.7857 121.37 54.7349C121.315 54.6841 121.25 54.6448 121.179 54.6193C121.108 54.5938 121.033 54.5826 120.958 54.5865H120.817V54.4924H123.855V54.4823Z" fill="#3F5059"/>
<path d="M137.504 57.5446C137.504 59.4438 135.961 60.7497 134.039 60.7497C132.116 60.7497 130.573 59.4438 130.573 57.5446C130.573 55.6455 132.116 54.3396 134.039 54.3396C135.961 54.3396 137.504 55.6455 137.504 57.5446ZM136.745 57.5446C136.745 55.8119 135.558 54.6236 134.039 54.6236C132.519 54.6236 131.333 55.8119 131.333 57.5446C131.333 59.2774 132.521 60.464 134.034 60.464C135.546 60.464 136.74 59.2774 136.74 57.5446" fill="#3F5059"/>
<path d="M149.328 54.4824V54.5765H149.185C149.063 54.5722 148.943 54.6135 148.85 54.6924C148.757 54.7714 148.696 54.8823 148.681 55.0034V58.4454C148.681 59.8707 147.706 60.7497 146.116 60.7497C144.526 60.7497 143.553 59.8707 143.553 58.4707V55.0286C143.552 54.9652 143.537 54.9027 143.511 54.845C143.484 54.7873 143.446 54.7357 143.399 54.6933C143.352 54.6509 143.296 54.6187 143.236 54.5986C143.176 54.5785 143.112 54.571 143.049 54.5765H142.906V54.4824H144.854V54.5765H144.711C144.648 54.5729 144.585 54.5817 144.526 54.6025C144.466 54.6233 144.412 54.6557 144.365 54.6977C144.318 54.7397 144.28 54.7906 144.253 54.8474C144.226 54.9042 144.21 54.9658 144.207 55.0286V58.3513C144.207 59.6807 144.919 60.4875 146.106 60.4875C147.388 60.4875 148.195 59.7278 148.195 58.4454V55.0034C148.195 54.7429 147.982 54.5765 147.691 54.5765H147.55V54.4824H149.328Z" fill="#3F5059"/>
<path d="M161.908 54.4823V54.5764H161.739C161.596 54.5759 161.458 54.6295 161.352 54.7263C161.247 54.8232 161.182 54.9563 161.17 55.0991V59.4689C161.173 59.9057 161.205 60.3419 161.264 60.7747H161.17L155.83 55.7142V59.9882C155.838 60.1346 155.901 60.2727 156.007 60.3739C156.113 60.4752 156.253 60.532 156.4 60.5327H156.568V60.6285H154.644V60.5327H154.812C154.959 60.5359 155.102 60.4803 155.209 60.3782C155.316 60.2762 155.378 60.1359 155.381 59.9882V55.5983C155.38 55.1691 155.348 54.7405 155.286 54.3159H155.405L160.723 59.3243V55.0756C160.71 54.9329 160.645 54.8 160.54 54.7032C160.434 54.6064 160.296 54.5528 160.153 54.5529H159.985V54.4588H161.908V54.4823Z" fill="#3F5059"/>
<path d="M170.84 54.4824C172.857 54.4824 174.14 55.6454 174.14 57.5446C174.14 59.4438 172.857 60.6068 170.84 60.6068H167.415V60.511H167.556C167.63 60.5128 167.703 60.5 167.771 60.4735C167.839 60.447 167.902 60.4072 167.955 60.3564C168.008 60.3057 168.05 60.2449 168.08 60.1777C168.109 60.1105 168.125 60.0381 168.126 59.9648V55.1228C168.126 55.047 168.11 54.9722 168.079 54.9029C168.049 54.8336 168.004 54.7713 167.949 54.7201C167.893 54.6688 167.827 54.6296 167.756 54.6049C167.684 54.5802 167.608 54.5705 167.533 54.5765H167.415V54.4824H170.84ZM168.824 60.2975H170.857C172.424 60.2975 173.397 59.2539 173.397 57.5446C173.397 55.8354 172.424 54.7665 170.857 54.7665H168.824V60.2975Z" fill="#3F5059"/>
<path d="M185.076 59.9159C185.289 60.3428 185.598 60.5092 185.859 60.5092H185.931V60.605H183.842V60.5092H183.913C184.15 60.5092 184.417 60.2957 184.269 59.8924L183.699 58.5478H181.111L180.541 59.8772C180.373 60.2806 180.661 60.5176 180.897 60.5176H180.97V60.6134H179.022V60.5176H179.094C179.355 60.5176 179.687 60.3495 179.901 59.9243L182.013 55.3865C182.013 55.3865 182.393 54.6033 182.417 54.3428H182.513L185.076 59.9159ZM183.603 58.2352L182.464 55.4352L181.277 58.2352H183.603Z" fill="#3F5059"/>
<path d="M194.405 54.4588C194.791 54.4557 195.174 54.3992 195.545 54.2908V55.4538H195.425V55.2857C195.428 55.2164 195.416 55.1473 195.391 55.0827C195.365 55.0181 195.327 54.9594 195.278 54.9104C195.229 54.8613 195.17 54.8229 195.106 54.7975C195.041 54.7722 194.972 54.7604 194.903 54.763H193.054V59.9614C193.066 60.1104 193.133 60.2495 193.243 60.3508C193.353 60.452 193.498 60.5081 193.647 60.5076H193.766V60.6034H191.65V60.5076H191.77C191.845 60.5117 191.92 60.5006 191.991 60.4752C192.061 60.4498 192.126 60.4105 192.182 60.3596C192.237 60.3087 192.281 60.2472 192.313 60.1788C192.344 60.1104 192.361 60.0365 192.363 59.9614V54.7664H190.504C190.435 54.764 190.366 54.776 190.302 54.8014C190.237 54.8269 190.179 54.8653 190.13 54.9144C190.081 54.9634 190.043 55.022 190.018 55.0864C189.992 55.1509 189.981 55.2199 189.983 55.2891V55.4572H189.864V54.2941C190.235 54.4006 190.618 54.4571 191.003 54.4622L194.405 54.4588Z" fill="#3F5059"/>
<path d="M200.862 60.6067V60.5109H201.003C201.383 60.5109 201.692 60.2739 201.692 59.9647V55.1462C201.692 54.8386 201.383 54.6 201.003 54.6H200.862V54.5059H203.188V54.6H203.045C202.666 54.6 202.358 54.8386 202.358 55.1462V60.0201C202.358 60.3277 202.666 60.5664 203.045 60.5664H203.188V60.6605H200.862V60.6067Z" fill="#3F5059"/>
<path d="M215.627 57.5446C215.627 59.4438 214.084 60.7497 212.161 60.7497C210.239 60.7497 208.696 59.4438 208.696 57.5446C208.696 55.6455 210.239 54.3396 212.161 54.3396C214.084 54.3396 215.627 55.6455 215.627 57.5446ZM214.867 57.5446C214.867 55.8119 213.681 54.6236 212.161 54.6236C210.642 54.6236 209.455 55.8119 209.455 57.5446C209.455 59.2774 210.642 60.464 212.161 60.464C213.681 60.464 214.874 59.2774 214.874 57.5446" fill="#3F5059"/>
<path d="M228.303 54.4823V54.5764H228.135C227.991 54.5763 227.853 54.63 227.748 54.7268C227.642 54.8236 227.577 54.9564 227.565 55.0991V59.4689C227.568 59.9058 227.6 60.342 227.661 60.7747H227.565L222.25 55.7142V59.9882C222.258 60.1346 222.321 60.2727 222.427 60.3739C222.533 60.4752 222.674 60.532 222.82 60.5327H222.988V60.6285H221.039V60.5327H221.207C221.28 60.5345 221.353 60.5218 221.421 60.4954C221.489 60.469 221.552 60.4293 221.605 60.3788C221.658 60.3282 221.7 60.2676 221.73 60.2006C221.759 60.1336 221.775 60.0614 221.777 59.9882V55.5983C221.775 55.1691 221.744 54.7406 221.682 54.3159H221.8L227.118 59.3243V55.0756C227.106 54.9328 227.041 54.7997 226.935 54.7028C226.829 54.6059 226.691 54.5524 226.548 54.5529H226.38V54.4588H228.303V54.4823Z" fill="#3F5059"/>
<mask id="mask0_291_7846" style="mask-type:luminance" maskUnits="userSpaceOnUse" x="68" y="35" width="32" height="32">
<path d="M68.521 50.9211C68.521 53.9401 69.4163 56.8914 71.0937 59.4016C72.771 61.9118 75.1551 63.8682 77.9444 65.0234C80.7337 66.1786 83.8029 66.4807 86.7639 65.8914C89.7249 65.3022 92.4447 63.8481 94.5792 61.7131C96.7138 59.5781 98.1673 56.858 98.7558 53.8969C99.3444 50.9357 99.0417 47.8666 97.8859 45.0775C96.7301 42.2885 94.7731 39.9048 92.2626 38.228C89.752 36.5512 86.8006 35.6566 83.7815 35.6572C79.7341 35.659 75.8531 37.2678 72.9915 40.1301C70.1299 42.9923 68.5219 46.8737 68.521 50.9211Z" fill="white"/>
</mask>
<g mask="url(#mask0_291_7846)">
<path d="M53.2571 50.921L83.7848 20.3933L114.313 50.921L83.7848 81.4488L53.2571 50.921Z" fill="url(#paint0_linear_291_7846)"/>
</g>
<path d="M98.2169 55.6454C98.1853 55.8671 98.09 56.0748 97.9426 56.2434C97.7952 56.412 97.6021 56.5341 97.3866 56.595C96.9597 56.6891 96.6975 56.2152 96.4841 55.8589C96.359 55.6101 96.1812 55.3916 95.9631 55.2186C95.5345 54.9093 95.4404 54.6488 96.1043 54.5765C96.3664 54.5295 96.5076 54.3631 96.3429 54.1967C95.9143 53.7933 96.0572 53.2471 95.8908 52.7967C95.7967 52.5597 95.9143 51.9665 95.274 52.3933C95.0606 52.5362 95.037 52.1564 94.99 51.99C94.8706 51.6337 94.5143 51.348 94.2538 51.3715C93.9933 51.395 93.6841 51.6807 93.5648 52.0841C93.3987 52.6224 93.1418 53.1283 92.8051 53.5799C92.4253 54.0538 92.2354 54.6488 92.7345 55.1933C92.948 55.4555 93.3278 55.669 93.0185 56.0337C92.6152 56.5076 92.5917 55.8202 92.4253 55.7715C91.1429 55.4875 91.0488 54.2589 90.479 53.4186C90.3597 53.2286 90.6471 52.6824 90.0522 52.9446L89.9799 52.9211C89.3396 51.6858 88.2992 52.2085 87.3211 52.2791C86.3967 52.3261 85.5412 51.9228 84.6622 51.1866C84.711 51.8992 85.1379 52.0656 85.3748 52.3749C85.7782 52.8488 85.9681 52.4454 86.3244 52.3749C86.6807 52.3043 87.1311 52.6354 87.4875 52.8791C87.7732 53.069 87.511 53.3312 87.3933 53.5513C86.5866 54.9043 85.1849 55.3782 83.8085 55.8538C83.3345 56.0219 83.3816 55.5446 83.2622 55.2841C82.748 54.1246 82.1614 52.9986 81.5059 51.9127C81.3959 51.8038 81.2673 51.7156 81.1261 51.6522C81.6959 53.2891 82.195 54.8807 83.4286 56.1144C83.8555 56.5412 84.2589 56.1379 84.6622 56.1866C84.948 56.2337 85.2807 55.8068 85.5026 56.1866C85.6925 56.4707 85.4555 56.7799 85.3127 57.0639C84.9765 57.7362 84.6001 58.3228 83.8875 58.6791C83.5799 58.8471 83.3177 59.1295 83.0337 59.3665C82.4169 59.8707 82.3211 60.4589 82.6303 61.1715C83.0101 62.0017 82.8438 62.311 82.037 62.6421C81.7009 62.7614 81.4908 62.8555 81.5328 63.3547C81.6286 64.2572 79.9194 65.1597 78.8269 64.8975C77.8303 64.6606 77.4824 63.711 76.832 63.0707C76.4774 62.7144 76.2639 62.2387 75.9311 61.8354C75.773 61.6739 75.6676 61.4682 75.6288 61.2455C75.5901 61.0229 75.6199 60.7937 75.7143 60.5883C76.0219 59.8051 75.4757 59.1631 75.1211 58.5715C74.8118 58.0975 74.5513 57.7177 74.8118 57.1244C74.9547 56.8152 74.8824 56.506 74.432 56.4522L74.2017 56.3866C73.7732 55.3177 72.6354 55.4841 71.8269 55.0807C71.0908 54.7244 71.0908 53.9883 70.8303 53.4001C70.3076 52.2135 70.6875 51.0471 71.0673 49.911C71.2101 49.5076 71.4706 49.1043 71.8505 48.9379C72.4008 48.6923 72.9002 48.3457 73.3227 47.916C74.0589 47.2051 74.8354 48.0589 75.6017 47.9396C75.8622 47.8925 76.148 48.0824 76.4085 48.1295C76.8606 48.2253 77.0017 48.4656 76.7648 48.8421C76.4807 49.2942 76.5278 49.5547 77.1009 49.6253C77.3379 49.6488 77.3614 49.9816 77.5043 50.1295C77.6723 50.3194 77.8841 50.5564 78.1211 50.2471C78.4303 49.7967 78.7143 49.9631 79.0236 50.2001C79.6169 50.6757 80.353 50.7228 81.0656 50.7228C81.5866 50.7228 81.6101 50.153 81.7059 49.7732C81.8017 49.3933 81.469 49.4639 81.2303 49.437C80.59 49.39 79.9732 49.269 79.9967 48.4169C79.9967 48.1312 79.7597 48.1312 79.5698 48.227C79.3799 48.3228 79.1664 48.3698 79.4017 48.6303C79.442 48.6593 79.4736 48.6989 79.4929 48.7446C79.5122 48.7903 79.5186 48.8405 79.5113 48.8896C79.504 48.9387 79.4833 48.9849 79.4516 49.0231C79.4198 49.0612 79.3781 49.0899 79.3311 49.1059C79.0219 49.274 79.0219 48.9379 78.9513 48.7967C78.5715 48.1244 78.832 47.2303 78.0959 46.6841C77.9278 47.0202 78.0959 47.3009 78.2639 47.5866C78.3832 47.8001 78.6001 48.0135 78.1933 48.1564C77.7177 48.3244 77.9547 47.9177 77.8841 47.7765C77.5748 47.2068 77.5748 46.3043 76.6017 46.4707C76.1748 46.5412 75.7715 46.827 75.4387 47.1345C75.0118 47.5144 74.5849 47.6387 74.1564 47.3026C73.8488 47.0656 73.6354 46.6387 73.9883 46.2824C74.3412 45.9261 74.4387 45.1194 75.2454 45.7362C75.7211 46.0925 76.0286 45.5933 75.958 45.3093C75.7446 44.5009 76.195 44.637 76.6454 44.6908C76.8127 44.6633 76.9737 44.6064 77.1211 44.5228C76.5043 44.3076 76.148 44.0707 76.9311 43.5732C77.2152 43.3833 76.9782 42.7648 77.5244 42.6707C77.6925 42.9312 77.4051 43.027 77.3564 43.1749C77.1429 43.9833 77.4034 44.2673 78.1967 44.1009C78.3648 44.0774 78.5043 43.8639 78.6471 44.0068C79.311 44.6001 79.8572 44.4102 80.5463 43.9597C80.8068 43.7917 80.7832 43.6975 80.7832 43.5076C80.8068 43.2236 80.6404 42.9144 80.8538 42.6303C80.2858 42.8202 80.2858 43.437 79.8101 43.6975C79.4303 43.911 79.3597 44.1244 79.074 43.5295C78.6471 42.5564 78.5513 42.6034 79.5782 42.153C79.7256 42.0748 79.8682 41.9878 80.0051 41.8925C81.074 41.1328 82.1412 40.753 83.2572 41.8454C83.5177 42.106 85.4169 41.4891 85.6303 41.1732C86.0354 40.627 86.4858 40.1043 86.6757 39.4169L86.8891 39.2034C87.5614 39.4404 88.0757 39.0354 88.7177 38.8471C88.5167 38.5281 88.3797 38.1731 88.3143 37.8018C88.1715 36.9715 87.2454 36.8051 86.5564 36.6152C85.7732 36.3782 84.9429 36.3547 84.1362 36.2791C83.6841 36.232 83.1866 36.1379 82.8538 36.6589C82.6169 37.0387 82.237 36.6841 81.9278 36.6589C81.7143 36.6589 81.4051 36.5648 81.3345 36.827C81.2639 37.1833 81.595 37.0656 81.7849 37.1127C82.1648 37.2068 82.4572 37.3967 82.0706 37.8001C81.9026 37.9681 81.9513 38.0387 82.0236 38.2051C82.1917 38.5597 81.9278 38.7732 81.6438 38.7984C81.1681 38.8219 80.8034 39.106 80.3849 39.2723C79.4824 39.6286 78.6051 40.1026 77.6068 39.6522C77.0135 39.3917 76.5631 40.032 75.758 39.8421C77.348 38.3295 79.3177 38.2286 81.0757 37.6102C80.7664 37.274 80.3631 37.3026 79.9127 37.469C78.9866 37.8051 78.1311 38.2992 77.0555 38.2757C76.3833 38.2522 75.7967 38.8925 75.3227 39.3681C74.8488 39.8438 74.0169 39.8421 73.7547 40.6017C73.7344 40.6387 73.7056 40.6702 73.6705 40.6937C73.6355 40.7171 73.5954 40.7317 73.5535 40.7364C73.5116 40.741 73.4692 40.7354 73.4299 40.7202C73.3906 40.7049 73.3556 40.6805 73.3278 40.6488C73.2085 40.4807 73.0185 40.269 73.2807 40.0555C74.5143 39.0354 75.6068 37.8001 77.3396 37.6824C77.7194 37.6589 78.0757 37.4202 78.479 37.5631C78.5261 37.395 79.2387 37.6102 78.7396 37.0589C78.5496 36.8438 78.9295 36.7026 79.1446 36.6538C83.2505 35.5396 87.2118 35.6807 90.9412 37.9597C91.3446 38.1984 91.7496 38.4639 92.1295 38.7194L92.1765 38.9564C91.7967 39.1244 91.5833 38.6723 91.2505 38.6959C91.3505 39.0707 91.5673 39.404 91.8695 39.6473C92.1717 39.8905 92.5436 40.0312 92.9311 40.0488C93.548 40.0959 93.832 40.595 94.1177 40.9984C94.2174 41.1969 94.3544 41.3743 94.5211 41.5211H94.4975L94.6875 41.711V41.6875C95.2337 42.1144 95.1379 42.874 95.4942 43.3967C95.8505 43.9194 96.0169 43.7765 96.1832 43.3009V43.2303C96.8471 43.5866 96.4908 44.4639 97.2269 44.9396C96.6101 44.9631 96.3496 44.7026 96.0404 44.4875C95.8269 44.3463 95.59 43.8707 95.3278 44.2975C95.0656 44.7244 95.6841 44.5833 95.7076 44.6774C95.8757 45.437 96.6572 45.7698 96.9194 46.4589C97.037 46.795 97.1093 47.1463 97.4404 47.3849C97.48 47.4139 97.5133 47.4506 97.5385 47.4927C97.5636 47.5348 97.58 47.5816 97.5868 47.6302C97.5935 47.6787 97.5904 47.7282 97.5777 47.7756C97.565 47.8229 97.5428 47.8673 97.5127 47.906C97.1328 48.5244 96.8942 49.1412 97.037 49.8774L97.0135 50.1144C96.7765 50.5177 96.7765 50.5177 97.1328 50.9446C97.4404 51.348 97.4169 52.4875 97.0841 52.8673C97.0516 52.9097 97.0072 52.9414 96.9567 52.9584C96.9061 52.9755 96.8516 52.9771 96.8001 52.9631C96.6101 52.916 96.4438 52.4404 96.2303 52.8908C96.111 53.153 96.1362 53.5093 96.3984 53.6505C96.9681 53.9597 96.9917 54.4824 97.0152 54.995C97.0152 55.3513 97.632 55.4992 97.3009 55.8975C97.7748 55.9211 97.8942 55.2572 98.2253 55.637L98.2169 55.6454ZM82.3849 48.1681C82.553 48.0488 82.9295 48.2623 82.8891 47.906C82.8603 47.721 82.7735 47.5501 82.6412 47.4178C82.5089 47.2854 82.3379 47.1986 82.153 47.1698C81.8454 47.1228 81.5127 47.3127 81.3227 46.8858C81.2522 46.7177 81.0135 46.8623 80.8959 46.9564C80.7648 47.056 80.6597 47.1858 80.5894 47.3347C80.5192 47.4836 80.486 47.6473 80.4925 47.8118C80.4901 47.8471 80.4965 47.8823 80.5112 47.9144C80.5258 47.9466 80.5483 47.9745 80.5765 47.9957C80.6048 48.0169 80.6378 48.0307 80.6728 48.0359C80.7077 48.0411 80.7434 48.0374 80.7765 48.0253C81.3463 47.8354 81.869 48.0488 82.3917 48.1681M81.5127 42.1379L81.3698 42.1144L81.1799 42.2572C81.1564 42.4001 81.2757 42.3513 81.3227 42.3043L81.5127 42.1379Z" fill="#C5212A"/>
<path d="M83.9042 63.9059C83.595 63.8588 83.3345 63.6218 83.4286 63.4017C83.642 62.8806 83.1681 62.0739 84.0689 61.8588L84.1882 61.7647C84.4487 61.5277 84.7815 61.0521 85.0908 61.242C85.5177 61.5277 85.1613 62.0017 84.995 62.3815C84.8286 62.7613 84.6588 63.0941 84.521 63.4504C84.4017 63.758 84.1412 63.8067 83.9042 63.9008" fill="#C5212A"/>
<path d="M98.9077 53.1058C98.7883 53.5562 98.6707 54.0553 98.5278 54.5293C98.4337 54.7898 98.2186 55.0755 97.911 54.9797C97.6488 54.9091 97.5749 54.5763 97.6253 54.3394C97.8152 53.5797 98.148 52.8671 98.2438 52.0839C98.2495 52.0562 98.2611 52.0301 98.2779 52.0074C98.2947 51.9846 98.3162 51.9658 98.341 51.9522C98.3658 51.9386 98.3932 51.9306 98.4214 51.9287C98.4496 51.9267 98.4779 51.931 98.5043 51.941L98.7177 52.1797C98.7883 52.4402 98.8371 52.7495 98.9077 53.1058Z" fill="#C5212A"/>
<path d="M98.8824 51.2538C98.526 50.4235 98.2101 49.7412 97.9328 49.0454C97.8993 48.9852 97.8858 48.916 97.8943 48.8478C97.9028 48.7795 97.9327 48.7157 97.9798 48.6655L98.2655 48.7378C98.4555 49.521 99.2857 50.1378 98.8824 51.2588" fill="#C5212A"/>
<path d="M83.0959 39.3126C82.716 39.6488 82.4791 39.9059 82.0992 39.716C81.9799 39.6689 82.0051 39.5026 82.0757 39.4084C82.3127 39.0521 82.6454 39.195 83.0959 39.3126Z" fill="#C5212A"/>
<path d="M78.3479 40.5008C78.3444 40.6107 78.2976 40.7148 78.2176 40.7904C78.1376 40.866 78.031 40.9068 77.9211 40.9041C77.7076 40.9276 77.5177 40.8319 77.5177 40.5949C77.5117 40.5104 77.5378 40.4268 77.5907 40.3607C77.6437 40.2947 77.7197 40.2511 77.8034 40.2386C78.0874 40.168 78.1832 40.4285 78.3479 40.5008Z" fill="#C5212A"/>
<path d="M95.1547 41.568C95.0371 41.568 94.9413 41.5444 94.8186 41.5444V41.568C94.8222 41.5422 94.8198 41.5159 94.8116 41.4912C94.8033 41.4665 94.7894 41.444 94.771 41.4256C94.7526 41.4072 94.7301 41.3933 94.7054 41.3851C94.6807 41.3768 94.6545 41.3744 94.6287 41.3781H94.6522C94.7228 41.21 94.6051 40.8739 94.8656 40.9276C95.1261 40.9814 95.1026 41.331 95.1497 41.568H95.1547Z" fill="#4E5962"/>
<path d="M96.3177 43.1094V43.1816C96.0337 43.0858 96.0101 42.8253 95.9816 42.5867C96.3379 42.6119 96.3849 42.8253 96.3177 43.1094Z" fill="#4E5962"/>
<path d="M95.9865 42.5883C95.8437 42.5648 95.7244 42.4942 95.7244 42.3513L95.8437 42.2808C96.0118 42.3043 96.0118 42.4488 95.9865 42.5883Z" fill="#4E5962"/>
<path d="M98.2421 55.6455L98.1934 55.4556H98.2656L98.2169 55.6455H98.2421Z" fill="#C5212A"/>
<path d="M95.4874 41.9009L95.6068 41.995C95.4639 42.0908 95.511 41.9715 95.4874 41.9009Z" fill="#4E5962"/>
<path d="M95.4874 41.9007C95.3698 41.9007 95.3193 41.8537 95.3193 41.7327C95.4387 41.7327 95.4874 41.7797 95.4874 41.9007Z" fill="#4E5962"/>
<path d="M95.1546 41.568C95.1774 41.5649 95.2006 41.5672 95.2224 41.5745C95.2442 41.5819 95.264 41.5942 95.2802 41.6105C95.2965 41.6267 95.3088 41.6465 95.3161 41.6683C95.3235 41.6901 95.3258 41.7132 95.3227 41.736C95.2051 41.736 95.1328 41.689 95.1546 41.568Z" fill="#4E5962"/>
<path d="M108.709 39.6689V62.1731H109.066V39.6689" fill="#BBBDBE"/>
<defs>
<linearGradient id="paint0_linear_291_7846" x1="71.7975" y1="65.8323" x2="93.3967" y2="44.2331" gradientUnits="userSpaceOnUse">
<stop stop-color="#C9CACB"/>
<stop offset="1" stop-color="#E8E8E9"/>
</linearGradient>
</defs>
</svg>
