<svg width="300" height="100" viewBox="0 0 300 100" fill="none" xmlns="http://www.w3.org/2000/svg">
<rect width="300" height="100" fill="white"/>
<g clip-path="url(#clip0_298_9558)">
<path d="M124.095 59.7662C124.095 60.0609 124.095 60.2764 124.095 60.492C124.095 63.4275 124.08 66.3632 124.106 69.2987C124.109 69.8414 123.962 70.003 123.412 69.9959C121.159 69.967 118.91 69.9707 116.657 69.9959C116.158 69.9994 115.971 69.8665 115.974 69.3419C115.989 59.2955 115.985 49.2455 115.985 39.1991C115.985 38.8721 115.928 38.52 116.452 38.52C118.766 38.5308 121.08 38.5272 123.394 38.5308C123.473 38.5308 123.552 38.5631 123.714 38.5991V40.7154C124.185 40.3238 124.526 40.004 124.9 39.7345C126.793 38.3763 128.956 38.0601 131.206 38.1787C137.716 38.5272 142.147 43.845 141.881 50.6037C141.748 53.9955 140.62 56.9349 138.104 59.2775C134.903 62.2562 129.258 62.9964 125.687 60.8837C125.162 60.5747 124.688 60.183 124.098 59.7625L124.095 59.7662ZM133.71 50.115C133.645 49.5617 133.609 49.0047 133.505 48.4622C133.124 46.5255 131.59 44.9912 129.776 44.6966C127.587 44.3445 125.669 45.1709 124.68 47.0322C123.728 48.825 123.721 50.7402 124.4 52.6159C125.539 55.7599 129.793 56.6689 132.169 54.3119C133.329 53.1584 133.67 51.6995 133.71 50.115Z" fill="#22428F"/>
<path d="M217.002 59.4105C217.002 59.989 217.002 60.4597 217.002 60.9304C217.002 63.7222 216.988 66.5105 217.013 69.3024C217.016 69.8485 216.855 70.0102 216.312 69.9995C214.62 69.9672 212.924 69.9887 211.232 69.9887C210.348 69.9887 210.348 69.9887 210.348 69.1192C210.348 60.0034 210.348 50.884 210.348 41.7683C210.348 40.9203 210.351 40.0723 210.348 39.2243C210.348 38.9189 210.402 38.7141 210.786 38.7177C212.726 38.7285 214.667 38.7213 216.686 38.7213V41.1071C216.822 41.0856 216.898 41.0964 216.93 41.064C219.036 38.8471 221.716 38.1967 224.623 38.3943C228.737 38.6746 231.956 40.5215 233.966 44.2116C236.316 48.5305 236.124 56.3815 230.588 60.0142C226.84 62.4719 222.859 62.8347 218.795 60.7292C218.184 60.413 217.67 59.9064 217.006 59.4105H217.002ZM216.894 50.2085C216.963 50.8014 216.977 51.4087 217.106 51.987C217.606 54.2257 218.885 55.8065 221.167 56.3455C223.524 56.906 225.654 56.4462 227.246 54.47C228.554 52.8495 228.777 50.9379 228.497 48.958C227.821 44.1505 222.863 42.6522 219.553 44.7721C217.595 46.0261 216.919 47.9664 216.894 50.2085Z" fill="#22428F"/>
<path d="M175.435 61.649H168.781C168.77 61.3938 168.748 61.1712 168.748 60.952C168.748 50.902 168.752 40.852 168.734 30.802C168.734 30.1804 168.885 29.9864 169.521 30.0007C171.235 30.0439 172.952 30.0151 174.666 30.0151H175.406V41.0496C175.69 40.8232 175.863 40.6939 176.028 40.5538C179.409 37.7224 185.499 37.6218 188.92 40.3382C191.044 42.0234 192.057 44.3194 192.136 46.9243C192.28 51.696 192.226 56.4748 192.251 61.2502C192.251 61.3687 192.215 61.491 192.193 61.6455H185.589C185.589 61.376 185.589 61.1172 185.589 60.8585C185.589 57.1792 185.611 53.4962 185.571 49.8168C185.56 48.897 185.453 47.952 185.212 47.0645C184.738 45.3326 183.304 44.2762 181.515 44.1828C177.738 43.978 175.467 46.1411 175.439 50.0217C175.413 53.64 175.431 57.2582 175.431 60.8765C175.431 61.1208 175.431 61.3615 175.431 61.649H175.435Z" fill="#22428F"/>
<path d="M99.2098 62.1414C96.4108 62.0945 93.7841 61.4659 91.4306 59.9315C87.7513 57.5314 85.9943 54.0747 86.1416 49.7019C86.3033 44.7685 88.7358 41.2616 93.2344 39.3465C97.5246 37.5212 101.894 37.6254 106.051 39.7849C110.381 42.0306 112.361 45.753 112.213 50.6002C112.044 56.288 108.067 60.7364 102.217 61.7892C101.225 61.9689 100.212 62.0227 99.2098 62.1377V62.1414ZM104.068 50.0792C104.007 49.5474 103.974 49.0084 103.874 48.4839C103.496 46.5148 102.016 45.0164 100.169 44.7003C98.0348 44.3338 96.1304 45.1207 95.0993 46.874C94.2153 48.376 94.1901 50.0252 94.4811 51.6854C94.8476 53.7694 96.3209 55.2137 98.3798 55.5659C100.406 55.9109 102.332 55.0234 103.324 53.2519C103.87 52.2745 104.042 51.1967 104.071 50.0792H104.068Z" fill="#22428F"/>
<path d="M83.148 55.1418C83.7731 56.9133 84.4091 58.6775 84.9985 60.4596C85.0416 60.5963 84.7901 60.9628 84.614 61.0166C83.4175 61.3795 82.2173 61.818 80.9885 61.9831C79.2028 62.224 77.399 62.109 75.6527 61.57C72.3183 60.546 70.3062 58.0451 70.1696 54.5598C70.0618 51.7931 70.0798 49.0228 70.0834 46.2524C70.0834 45.6416 69.9397 45.3937 69.2929 45.4476C68.6174 45.5051 67.9311 45.4476 67.2484 45.4655C66.8604 45.4763 66.6951 45.3542 66.6987 44.9374C66.7166 43.263 66.713 41.5886 66.6987 39.9142C66.6987 39.5153 66.8316 39.3572 67.2376 39.368C67.9814 39.3896 68.7252 39.35 69.469 39.3788C69.9253 39.3968 70.0834 39.2458 70.0762 38.7787C70.0546 37.2481 70.0654 35.721 70.069 34.1903C70.069 33.946 70.0906 33.7052 70.105 33.4214H78.1823V39.3177C78.4626 39.3393 78.6782 39.368 78.8937 39.368C80.2376 39.3716 81.5814 39.386 82.9216 39.3644C83.3816 39.3572 83.5325 39.5117 83.5288 39.9717C83.5073 41.6029 83.5073 43.2378 83.5288 44.8691C83.5361 45.3398 83.3708 45.4727 82.918 45.4655C81.5563 45.444 80.1909 45.4763 78.8291 45.4476C78.344 45.4368 78.1931 45.5913 78.1967 46.08C78.2182 48.376 78.2039 50.6685 78.2075 52.9645C78.2146 55.1526 79.5082 56.1803 81.6461 55.67C82.1203 55.5551 82.5731 55.3431 83.1373 55.1383L83.148 55.1418Z" fill="#22428F"/>
<path d="M146.107 54.7788C147.663 55.6915 149.255 56.306 150.944 56.6437C152.78 57.0102 154.627 57.1538 156.473 56.7227C156.79 56.6473 157.102 56.518 157.393 56.367C158.019 56.04 158.342 55.5047 158.295 54.7968C158.252 54.1142 157.799 53.6902 157.192 53.5213C156.24 53.2553 155.266 53.0685 154.3 52.8673C152.503 52.4937 150.671 52.2457 148.917 51.7355C146.894 51.1498 145.267 49.9677 144.684 47.7758C143.804 44.4522 145.184 41.4196 148.249 39.8099C149.97 38.908 151.817 38.5199 153.725 38.4014C156.88 38.2109 159.944 38.6637 162.887 39.8494C163.153 39.9572 163.408 40.1009 163.663 40.2339C163.732 40.2698 163.789 40.3381 163.89 40.4243C163.167 41.9693 162.445 43.5108 161.737 45.0199C160.663 44.6247 159.679 44.2007 158.658 43.8989C156.915 43.385 155.119 43.2485 153.326 43.5719C152.711 43.6833 152.104 43.942 151.554 44.2474C150.998 44.56 150.757 45.1205 150.85 45.7852C150.94 46.4392 151.353 46.8597 151.943 47.0033C153.527 47.3807 155.13 47.668 156.714 48.0382C158.177 48.3795 159.689 48.6382 161.073 49.1952C165.866 51.1247 165.467 57.0748 162.463 59.5218C160.699 60.959 158.64 61.631 156.434 61.8788C152.586 62.3137 148.852 61.8682 145.277 60.3123C143.815 59.6763 143.818 59.6692 144.472 58.2678C145.004 57.1288 145.54 55.9897 146.107 54.7717V54.7788Z" fill="#22428F"/>
<path d="M203.398 61.6563H198.041V38.9045H203.398V61.6563Z" fill="#22428F"/>
<path d="M203.401 32.4009C202.596 32.8608 200.128 34.3807 199.266 34.8694C198.802 34.2262 198.349 33.601 197.879 32.9578C200.117 32.462 202.28 31.9805 204.569 31.4739C203.653 33.4321 202.776 35.3041 201.838 37.3091L201.033 36.2707L200.333 37.3091L200.282 35.6922L203.405 32.4045L203.401 32.4009Z" fill="#22428F"/>
</g>
<defs>
<clipPath id="clip0_298_9558">
<rect width="171.667" height="40" fill="white" transform="translate(65.2109 30)"/>
</clipPath>
</defs>
</svg>
