<svg width="300" height="100" viewBox="0 0 300 100" fill="none" xmlns="http://www.w3.org/2000/svg">
<rect width="300" height="100" fill="white"/>
<g clip-path="url(#clip0_291_3333)">
<mask id="mask0_291_3333" style="mask-type:luminance" maskUnits="userSpaceOnUse" x="92" y="30" width="116" height="40">
<path d="M207.818 30H92.0833V70H207.818V30Z" fill="white"/>
</mask>
<g mask="url(#mask0_291_3333)">
<path d="M137.196 31.2295H150.23V34.0577H145.248V47.3871H142.177V34.0577H137.196V31.2295Z" fill="black"/>
<path d="M151.844 47.3871V34.7272H154.592V38.5278L154.833 38.5552C155.56 35.4842 156.745 34.5967 158.576 34.5967H159.037V37.8595H158.338C155.671 37.8595 154.729 38.8018 154.729 41.3834V47.3871H151.844Z" fill="black"/>
<path d="M168.729 44.371H168.434C167.781 46.4174 166.333 47.6573 164.098 47.6573C161.836 47.6573 160.247 46.5792 160.247 44.102C160.247 41.8403 161.62 40.1971 164.825 40.1971H168.594V39.3357C168.594 37.6925 167.922 36.7502 166.145 36.7502C164.663 36.7502 163.795 37.5046 163.478 38.986L160.734 38.366C161.215 35.9697 163.019 34.4375 166.25 34.4375C169.913 34.4375 171.471 36.1603 171.471 39.3109V47.3897H168.73L168.729 44.371ZM168.598 42.6207V42.1091H165.308C163.854 42.1091 163.019 42.6481 163.019 43.6975C163.019 44.6111 163.585 45.3942 165.227 45.3942C167.248 45.4007 168.593 44.2104 168.593 42.6207H168.598Z" fill="black"/>
<path d="M182.893 43.9939L182.838 44.0487L182.812 43.6715C182.219 46.0417 180.684 47.7383 178.287 47.7383C175.379 47.7383 173.682 45.3891 173.682 41.1135C173.682 36.7778 175.406 34.3815 178.368 34.4076C180.71 34.3815 182.111 35.9151 182.757 38.2317L182.888 38.1234V30.0994H185.768V47.3872H182.893V43.9939ZM182.893 41.6251V40.6553C182.893 38.4745 181.627 37.0192 179.661 37.0192C177.56 37.0192 176.537 38.3387 176.537 41.1135C176.537 43.8334 177.506 45.1529 179.661 45.1529C181.599 45.1529 182.893 43.7786 182.893 41.6251Z" fill="black"/>
<path d="M188.061 41.2242C188.061 36.9434 190.484 34.4114 194.443 34.4114C198.267 34.4114 200.126 36.728 200.126 40.201C200.126 40.6865 200.126 41.2516 200.071 41.8977H190.942C191.158 44.1869 192.316 45.3445 194.467 45.3445C196.486 45.3445 197.187 44.3748 197.536 43.1636L200.016 43.8632C199.423 46.1525 197.835 47.7147 194.442 47.7147C190.566 47.7108 188.061 45.449 188.061 41.2242ZM190.968 39.9595H197.459C197.352 37.7773 196.382 36.6471 194.362 36.6471C192.397 36.6432 191.239 37.6925 190.968 39.9556V39.9595Z" fill="black"/>
<path d="M140.879 49.7493H147.449C153.023 49.7493 155.581 52.5762 155.581 57.6937C155.581 62.8112 152.511 65.9069 147.449 65.9069H140.879V49.7493ZM143.948 52.3074V63.3749H147.211C151.008 63.3749 152.517 61.3285 152.517 57.6937C152.517 53.8957 150.928 52.3074 147.049 52.3074H143.948Z" fill="black"/>
<path d="M157.115 59.7403C157.115 55.4582 159.538 52.9275 163.497 52.9275C167.321 52.9275 169.179 55.2428 169.179 58.7172C169.179 59.2013 169.179 59.7612 169.124 60.4138H159.996C160.212 62.7031 161.369 63.8607 163.52 63.8607C165.539 63.8607 166.24 62.8923 166.59 61.6798L169.07 62.3807C168.477 64.6699 166.889 66.2308 163.495 66.2308C159.619 66.2296 157.115 63.9677 157.115 59.7403ZM160.022 58.4744H166.513C166.405 56.2935 165.436 55.1619 163.416 55.1619C161.45 55.1619 160.293 56.2126 160.022 58.4744Z" fill="black"/>
<path d="M179.006 66.2569C176.689 66.2569 175.209 64.7482 174.589 62.5399H174.401V70.0001H171.521V53.2499H174.403V56.5349H174.59C175.264 54.3541 176.664 52.9275 178.953 52.9275C181.942 52.9275 183.612 55.2963 183.612 59.6059C183.612 63.9155 181.862 66.2569 179.006 66.2569ZM180.756 59.6007C180.756 56.8534 179.787 55.5339 177.659 55.5339C175.666 55.5339 174.396 56.9343 174.396 59.1426V60.1123C174.396 62.2397 175.688 63.6937 177.627 63.6937C179.762 63.6988 180.757 62.3258 180.757 59.6059L180.756 59.6007Z" fill="black"/>
<path d="M185.172 59.5512C185.172 55.3747 187.677 52.9275 191.608 52.9275C195.486 52.9275 197.99 55.3772 197.99 59.5512C197.99 63.6988 195.622 66.2569 191.608 66.2569C187.542 66.2569 185.172 63.6988 185.172 59.5512ZM188.081 59.525C188.081 62.1353 189.158 63.7524 191.582 63.7524C193.978 63.7524 195.106 62.1366 195.106 59.525C195.106 56.9134 193.921 55.3772 191.582 55.3772C189.243 55.3772 188.081 56.9122 188.081 59.525Z" fill="black"/>
<path d="M201.005 55.5924H199.228V53.2431H201.005V49.8237H203.914V53.2431H207.63V55.5924H203.914V61.6522C203.914 62.8908 204.371 63.5368 205.638 63.5368C206.259 63.5233 206.876 63.4141 207.464 63.2131L207.814 65.7986C206.898 66.1207 205.931 66.2759 204.96 66.2567C202.187 66.2567 201.002 64.4296 201.002 62.0555L201.005 55.5924Z" fill="black"/>
<path d="M111.149 68.131C121.678 68.131 130.214 59.5951 130.214 49.0655C130.214 38.5359 121.678 30 111.149 30C100.619 30 92.0833 38.5359 92.0833 49.0655C92.0833 59.5951 100.619 68.131 111.149 68.131Z" fill="#FF8D06"/>
<path d="M113.201 41.4749H98.0869V46.7254H104.459L98.0752 52.656L101.65 56.5023L108.024 50.5808V56.6014H113.275V41.4879H113.201V41.4749Z" fill="white"/>
<path d="M114.724 41.5034V56.6548C122.407 56.6548 124.221 53.0004 124.221 48.8383C124.221 44.6763 120.873 41.5034 114.724 41.5034Z" fill="white"/>
</g>
</g>
<defs>
<clipPath id="clip0_291_3333">
<rect width="115.833" height="40" fill="white" transform="translate(92.0833 30)"/>
</clipPath>
</defs>
</svg>
