<svg width="300" height="100" viewBox="0 0 300 100" fill="none" xmlns="http://www.w3.org/2000/svg">
<rect width="300" height="100" fill="white"/>
<g clip-path="url(#clip0_297_9055)">
<path fill-rule="evenodd" clip-rule="evenodd" d="M85.556 61.069V49.598C85.556 45.6591 88.7243 42.4552 92.6116 42.4552H92.6145V38.0364H92.6086C86.3019 38.0364 81.187 43.2128 81.187 49.5995V61.0706H85.556V61.069Z" fill="#54575B"/>
<path fill-rule="evenodd" clip-rule="evenodd" d="M204.322 61.069V49.598C204.322 45.6591 207.491 42.4552 211.378 42.4552H211.381V38.0364H211.375C205.068 38.0364 199.953 43.2128 199.953 49.5995V61.0706H204.322V61.069Z" fill="#54575B"/>
<path fill-rule="evenodd" clip-rule="evenodd" d="M136.389 46.984V61.1534H132.02V46.984C132.02 44.3143 130.224 42.4535 127.651 42.4535C125.078 42.4535 123.282 44.3143 123.282 46.984V61.1534H118.913V46.984C118.913 43.5371 120.629 40.6591 123.282 39.1605C124.553 38.4392 126.038 38.0332 127.651 38.0332C129.263 38.0332 130.749 38.4392 132.02 39.1605C134.672 40.6591 136.389 43.5371 136.389 46.984Z" fill="#54575B"/>
<path fill-rule="evenodd" clip-rule="evenodd" d="M234.651 49.5977C234.651 55.98 229.535 61.1563 223.222 61.1563C221.501 61.1563 219.871 60.7715 218.408 60.0773L220.252 56.0675C221.151 56.4961 222.162 56.7346 223.222 56.7346C227.115 56.7346 230.282 53.5306 230.282 49.5962C230.282 45.6619 227.115 42.4534 223.222 42.4534C219.329 42.4534 216.166 45.6574 216.166 49.5962V70H211.798V49.5977C211.798 43.211 216.914 38.0347 223.222 38.0347C229.53 38.0347 234.651 43.211 234.651 49.5977Z" fill="#54575B"/>
<path fill-rule="evenodd" clip-rule="evenodd" d="M115.445 49.5963V61.1548H111.076V49.5963C111.076 45.6574 107.91 42.4535 104.021 42.4535C100.132 42.4535 96.9608 45.6574 96.9608 49.5963C96.9608 53.5352 100.128 56.7346 104.021 56.7346C105.083 56.7346 106.091 56.4961 106.991 56.0676V56.072L107.297 56.7346L108.834 60.0759V60.0803C107.371 60.7701 105.741 61.1548 104.019 61.1548C100.372 61.1548 97.1249 59.4269 95.0337 56.7346C93.5047 54.7727 92.5918 52.2932 92.5918 49.5963C92.5918 46.8995 93.5047 44.4154 95.0337 42.4535C97.1264 39.7612 100.372 38.0332 104.019 38.0332C107.666 38.0332 110.914 39.7612 113.002 42.4535C114.531 44.4154 115.444 46.8995 115.444 49.5963" fill="#54575B"/>
<path fill-rule="evenodd" clip-rule="evenodd" d="M153.498 50.2649L152.17 49.5193V49.5163L146.511 46.344L144.12 45.0025C143.714 44.77 143.438 44.3249 143.438 43.8193C143.438 43.0678 144.036 42.458 144.779 42.458L155.665 42.4535V38.0332H144.843C144.014 38.0332 143.432 38.2007 143.432 38.2007C141.418 38.6912 139.819 40.2697 139.269 42.2845C139.251 42.3373 139.237 42.3947 139.226 42.452C139.121 42.8896 139.064 43.3499 139.064 43.8178C139.064 46.0272 140.297 47.9498 142.106 48.9232L143.433 49.6687V49.6718L149.093 52.844L151.484 54.1856C151.89 54.418 152.166 54.8632 152.166 55.3688C152.166 56.1188 151.568 56.7301 150.825 56.7301L139.937 56.7346V61.1548H150.759C151.588 61.1548 152.17 60.9874 152.17 60.9874C154.184 60.4969 155.783 58.9199 156.333 56.9036C156.35 56.8507 156.365 56.7934 156.377 56.736C156.483 56.2985 156.539 55.8382 156.539 55.3703C156.539 53.1594 155.307 51.2368 153.498 50.2649Z" fill="#54575B"/>
<path fill-rule="evenodd" clip-rule="evenodd" d="M162.27 49.5106C162.27 53.4449 165.438 56.6488 169.33 56.6488C170.392 56.6488 171.402 56.4104 172.301 55.9819V55.9863L172.607 56.6488L174.145 59.9902V59.9947C172.682 60.6844 171.051 61.0692 169.33 61.0692C165.683 61.0692 162.437 59.3412 160.344 56.6488C158.816 54.687 157.901 52.2075 157.901 49.5106C157.901 46.8138 158.814 44.3312 160.344 42.3678C162.437 39.6755 165.683 37.9475 169.33 37.9475C171.051 37.9475 172.682 38.3323 174.145 39.0266V39.0296L172.607 42.3708L172.301 43.0333C171.402 42.6048 170.392 42.3663 169.33 42.3663C165.438 42.3663 162.27 45.5702 162.27 49.5091" fill="#54575B"/>
<path fill-rule="evenodd" clip-rule="evenodd" d="M197.337 49.5983C197.337 52.2951 196.424 54.7746 194.896 56.7366C192.807 59.4289 189.557 61.1569 185.912 61.1569C182.269 61.1569 179.018 59.4289 176.927 56.7366C175.398 54.7746 174.485 52.2951 174.485 49.5983C174.485 47.8205 174.882 46.1378 175.595 44.6302C175.957 43.853 176.408 43.1225 176.927 42.4555H176.932C177.19 42.1144 177.473 41.7884 177.778 41.479L180.87 44.6091C180.862 44.6135 180.855 44.6211 180.848 44.6317C179.612 45.913 178.853 47.668 178.853 49.5997C178.853 53.5342 182.019 56.7381 185.912 56.7381C189.806 56.7381 192.968 53.5342 192.968 49.5997C192.968 47.668 192.209 45.913 190.977 44.6317C190.973 44.6226 190.963 44.6135 190.954 44.6091L194.046 41.479C194.348 41.7884 194.633 42.1159 194.889 42.4555H194.894C195.415 43.1225 195.865 43.853 196.226 44.6302C196.939 46.1378 197.336 47.8205 197.336 49.5983" fill="#54575B"/>
<path fill-rule="evenodd" clip-rule="evenodd" d="M192.181 34.1157L188.054 42.4658H183.17L187.291 34.1157H192.181Z" fill="#F58220"/>
<path fill-rule="evenodd" clip-rule="evenodd" d="M82.7129 30H65.3486V34.4203H72.155V61.1549H76.5241V34.4203H82.7129V30Z" fill="#54575B"/>
</g>
<defs>
<clipPath id="clip0_297_9055">
<rect width="169.302" height="40" fill="white" transform="translate(65.3486 30)"/>
</clipPath>
</defs>
</svg>
