<svg width="300" height="100" viewBox="0 0 300 100" fill="none" xmlns="http://www.w3.org/2000/svg">
<rect width="300" height="100" fill="white"/>
<g clip-path="url(#clip0_298_9481)">
<mask id="mask0_298_9481" style="mask-type:luminance" maskUnits="userSpaceOnUse" x="88" y="29" width="125" height="41">
<path d="M212.016 29.6949H88.8806V69.1412H212.016V29.6949Z" fill="white"/>
</mask>
<g mask="url(#mask0_298_9481)">
<path d="M103.42 55.5653C103.092 55.4378 102.796 55.2404 102.552 54.9868C102.309 54.733 102.123 54.4293 102.009 54.0966C101.888 53.7311 101.917 53.262 102.096 52.701C102.306 52.0959 102.591 51.5197 102.946 50.9859C103.364 50.3362 103.827 49.7166 104.331 49.1314C104.36 49.0986 104.395 49.0722 104.434 49.0542C104.474 49.0362 104.517 49.0269 104.561 49.0269C104.604 49.0269 104.647 49.0362 104.687 49.0542C104.726 49.0722 104.761 49.0986 104.79 49.1314C105.294 49.7166 105.757 50.3362 106.175 50.9859C106.53 51.5197 106.815 52.0959 107.025 52.701C107.195 53.262 107.233 53.7311 107.112 54.0966C106.998 54.4282 106.813 54.7311 106.57 54.9844C106.327 55.2377 106.033 55.4354 105.706 55.5636" stroke="#89C40F" stroke-width="1.69983" stroke-linecap="round"/>
<path d="M100.459 48.3138C101.588 46.5622 102.856 44.9041 104.25 43.3554C104.293 43.3064 104.347 43.2672 104.407 43.2404C104.466 43.2136 104.531 43.1997 104.597 43.1997C104.662 43.1997 104.727 43.2136 104.787 43.2404C104.846 43.2672 104.9 43.3064 104.943 43.3554C106.338 44.9041 107.605 46.5622 108.734 48.3138C109.552 49.6091 110.264 50.9706 110.668 52.2676C111.073 53.5646 111.178 54.7494 110.859 55.7183C110.422 57.0475 109.516 58.1718 108.309 58.8799C106.29 60.1123 102.916 60.1123 100.896 58.8799C99.6891 58.1723 98.7823 57.0479 98.3464 55.7183C98.0285 54.7494 98.122 53.5731 98.5351 52.2676C98.9481 50.9621 99.6366 49.6091 100.459 48.3138Z" stroke="#752CE7" stroke-width="2.0398"/>
<path d="M118.463 50.8747C119.384 53.8018 119.617 56.5079 118.878 58.7772C117.419 63.2529 114.11 65.7227 110.997 67.1064C107.937 68.4662 101.308 68.4662 98.2484 67.1064C95.1344 65.7278 91.8248 63.2563 90.3663 58.7772C89.6269 56.5079 89.8564 53.8018 90.7811 50.8747C91.7058 47.9476 93.2713 44.9253 95.0749 42.0441C98.1516 37.1316 101.685 33.0333 103.71 30.7147" stroke="#752CE7" stroke-width="2.0398" stroke-linecap="round"/>
<path d="M111.815 38.5442C112.81 39.9041 113.226 40.5432 114.168 42.0459C114.848 43.1218 115.485 44.2199 116.072 45.3248C116.307 45.7679 116.534 46.2127 116.751 46.6592" stroke="#752CE7" stroke-width="2.0398" stroke-linecap="round"/>
<path d="M111.68 38.4593L108.96 40.3836C108.88 40.4414 108.813 40.5145 108.762 40.5987C108.711 40.6828 108.677 40.7764 108.663 40.8737C108.648 40.9711 108.654 41.0704 108.678 41.1657C108.702 41.261 108.746 41.3505 108.805 41.4289C109.681 42.5797 110.714 43.9787 111.487 45.206C112.786 47.2763 113.917 49.4555 114.578 51.5616C115.239 53.6677 115.407 55.6157 114.875 57.2492C113.825 60.4789 111.445 62.2484 109.203 63.2411C106.993 64.2186 102.234 64.2186 100.024 63.2411C97.7834 62.2484 95.402 60.4704 94.3515 57.2492C93.8313 55.6157 94.0013 53.6626 94.6558 51.5616C95.3102 49.4606 96.4474 47.2763 97.741 45.206C99.5241 42.3622 101.746 39.6696 103.289 37.8967C103.588 37.5558 103.753 37.1178 103.753 36.6643L103.723 30.7285" stroke="#752CE7" stroke-width="2.0398" stroke-linecap="round"/>
<path d="M128.897 53.0195V47.5104H126.095V43.8166H128.897V39.9393H133.267V43.8166H138.652V47.5104H133.267V52.8954C133.267 54.5953 134.287 55.5727 135.883 55.5727C136.775 55.5727 137.923 55.2956 138.652 54.8349V58.7446C137.884 59.2375 136.56 59.484 135.482 59.484C131.081 59.4823 128.897 56.8356 128.897 53.0195Z" fill="#752CE7"/>
<path d="M141.19 62.1278L144.79 60.1577C145.47 61.4819 146.83 62.4967 148.792 62.4967C151.408 62.4967 152.916 60.5895 152.916 57.7575V57.3258C152.084 58.5582 150.731 59.2347 148.853 59.2347C143.898 59.2347 141.744 56.0645 141.744 51.5413V43.8156H146.053V51.3866C146.053 53.5964 147.253 55.1109 149.407 55.1109C151.377 55.1109 152.854 53.4791 152.854 51.2948V43.8156H157.286V57.6963C157.286 63.0202 153.871 66.4981 148.853 66.4981C145.222 66.4981 142.576 64.9597 141.19 62.1278Z" fill="#752CE7"/>
<path d="M187.68 51.0785V59.049H183.309V51.8162C183.309 49.4773 182.289 47.5089 179.893 47.5089C177.523 47.5089 176.507 49.4467 176.507 51.7584V59.0524H172.136V51.7924C172.136 49.4535 171.116 47.5157 168.752 47.5157C166.319 47.5157 165.366 49.4841 165.366 51.7924V59.0558H160.996V51.0785C160.996 46.8289 163.489 43.2593 168.414 43.2593C171.337 43.2593 173.46 44.5528 174.353 46.6453C175.306 44.5528 177.462 43.2593 180.2 43.2593C185.155 43.261 187.68 46.8306 187.68 51.0785Z" fill="#752CE7"/>
<path d="M190.365 56.0428L193.594 54.2273C194.242 55.458 195.257 55.9816 196.795 55.9816C198.211 55.9816 199.103 55.4274 199.103 54.535C199.103 52.072 190.733 54.1951 190.733 48.317C190.733 45.5786 193.134 43.4249 196.888 43.4249C200.15 43.4249 202.121 44.9548 203.044 46.7175L199.814 48.5329C199.321 47.4246 198.213 46.9028 196.982 46.9028C195.904 46.9028 195.112 47.4246 195.112 48.2252C195.112 50.6883 203.482 48.7182 203.482 54.4415C203.482 57.5199 200.497 59.49 197.023 59.49C193.842 59.4815 191.627 58.312 190.365 56.0428Z" fill="#752CE7"/>
<path d="M206.651 56.679C206.653 56.1473 206.813 55.6283 207.11 55.1874C207.407 54.7465 207.828 54.4033 208.32 54.201C208.811 53.9987 209.352 53.9465 209.873 54.0507C210.395 54.1549 210.873 54.4111 211.249 54.7869C211.625 55.1627 211.882 55.6414 211.986 56.1626C212.091 56.6839 212.039 57.2245 211.837 57.7162C211.635 58.208 211.292 58.629 210.851 58.9263C210.411 59.2235 209.892 59.3838 209.36 59.3868C208.643 59.3841 207.955 59.098 207.448 58.5908C206.94 58.0837 206.654 57.3965 206.651 56.679Z" fill="#89C40F"/>
</g>
</g>
<defs>
<clipPath id="clip0_298_9481">
<rect width="123.238" height="39.606" fill="white" transform="translate(88.8828 29.6973)"/>
</clipPath>
</defs>
</svg>
