<svg width="300" height="100" viewBox="0 0 300 100" fill="none" xmlns="http://www.w3.org/2000/svg">
<rect width="300" height="100" fill="white"/>
<path d="M189.887 31.2691C189.898 31.3258 189.887 31.3825 189.875 31.4278C189.49 33.2408 189.093 35.0538 188.708 36.8555C188.346 38.5666 187.972 40.2776 187.609 41.9887C187.212 43.8357 186.816 45.6827 186.419 47.5298C186.113 48.9575 185.807 50.3853 185.501 51.8131C185.377 52.391 185.252 52.9575 185.139 53.5354C185.139 53.5581 185.127 53.5694 185.127 53.5921C185.127 53.6148 185.116 53.6148 185.105 53.6148C185.093 53.6148 185.082 53.6148 185.071 53.6034C185.048 53.5581 185.014 53.5128 184.991 53.4561C183.802 51.1218 182.612 48.7876 181.422 46.4533C180.584 44.8102 179.768 43.1672 178.929 41.5241C178.567 40.7989 178.193 40.085 177.819 39.3598C177.569 38.8612 177.377 38.3513 177.218 37.8187C177.071 37.3428 176.946 36.8669 176.856 36.3683C176.822 36.187 176.799 35.9944 176.799 35.8017C176.799 35.6657 176.799 35.5411 176.799 35.4051C176.788 34.4873 177.139 33.6034 177.773 32.9462C178.125 32.5836 178.533 32.289 178.986 32.085C179.507 31.8357 180.051 31.6544 180.618 31.5524C181.15 31.4391 181.694 31.3711 182.238 31.3258C182.397 31.3145 182.544 31.3031 182.703 31.2805C182.725 31.2805 182.748 31.2691 182.771 31.2578L189.887 31.2691Z" fill="#E81300"/>
<path d="M110.079 53.1615C110.102 53.1501 110.125 53.1161 110.136 53.0935C110.147 53.0708 110.147 53.0481 110.147 53.0255C110.147 52.5949 110.272 52.187 110.351 51.7677C110.533 50.8612 110.725 49.9547 110.906 49.0595C111.11 48.0963 111.303 47.1331 111.507 46.17C111.677 45.3314 111.858 44.4929 112.028 43.6544C112.21 42.7592 112.402 41.864 112.584 40.9575C112.584 40.9462 112.584 40.9462 112.584 40.9348C112.595 40.8442 112.618 40.7535 112.663 40.6629C112.754 40.6515 112.856 40.6402 112.946 40.6515H116.062C116.164 40.6515 116.164 40.6629 116.153 40.7535C115.972 41.6487 115.79 42.5439 115.609 43.4391C115.405 44.4589 115.19 45.4674 114.974 46.4872C114.816 47.2804 114.669 48.085 114.51 48.8782C114.397 49.4334 114.283 49.9773 114.17 50.5326C114.034 51.1671 113.955 51.813 113.909 52.4589C113.864 53.0142 113.898 53.5694 114 54.102C114.045 54.3513 114.125 54.6006 114.238 54.8385C114.521 55.4731 115.076 55.949 115.756 56.1076C116.176 56.2096 116.595 56.2436 117.025 56.2096C117.615 56.1756 118.204 56.017 118.737 55.7677C119.632 55.3484 120.368 54.6685 120.878 53.83C121.252 53.2294 121.513 52.5609 121.671 51.8697C122.057 50.2266 122.419 48.5836 122.759 46.9405C123.076 45.4447 123.382 43.949 123.688 42.4532C123.802 41.898 123.926 41.3428 124.04 40.7762C124.04 40.7535 124.051 40.7309 124.051 40.7082C124.051 40.6742 124.085 40.6402 124.13 40.6515H124.244C125.195 40.6515 126.147 40.6515 127.099 40.6515C127.314 40.6515 127.303 40.6515 127.258 40.8442C127.11 41.5241 126.963 42.204 126.816 42.8838C126.589 43.915 126.363 44.9575 126.147 45.9887C125.864 47.2918 125.581 48.5949 125.297 49.9093C125.082 50.8952 124.856 51.8697 124.64 52.8555C124.618 52.9802 124.572 53.1048 124.527 53.2181C124.448 53.3994 124.38 53.5694 124.3 53.7507C124.13 54.1473 123.904 54.5212 123.643 54.8612C123.428 55.1331 123.235 55.4051 123.008 55.6657C122 56.8328 120.663 57.6827 119.178 58.0906C118.623 58.2493 118.057 58.3513 117.49 58.4192C117.399 58.4306 117.297 58.4419 117.207 58.4532C117.003 58.4872 116.788 58.4986 116.584 58.4872C116.198 58.4872 115.813 58.4759 115.428 58.4872C115.076 58.4872 114.737 58.4532 114.385 58.3966C113.932 58.3173 113.479 58.2153 113.037 58.0906C112.176 57.864 111.428 57.3314 110.929 56.5949C110.533 56.0283 110.272 55.3711 110.17 54.6912C110.147 54.5892 110.147 54.4759 110.125 54.3739C110.113 54.3173 110.113 54.2606 110.057 54.2379L110.079 53.1615Z" fill="#E21001"/>
<path d="M113.105 68.7422C112.992 68.7195 112.878 68.6969 112.776 68.6629C112.425 68.5836 112.108 68.3796 111.892 68.085C111.802 67.9603 111.734 67.813 111.688 67.6657C111.643 67.4957 111.62 67.3258 111.62 67.1558C111.62 65.9433 111.62 64.7195 111.62 63.5071C111.62 63.2918 111.598 63.3144 111.813 63.3144H112.21C112.334 63.3144 112.334 63.3144 112.334 63.4504C112.334 63.4957 112.334 63.5297 112.334 63.575C112.334 64.6515 112.334 65.728 112.334 66.8158C112.334 67.0538 112.391 67.2918 112.493 67.5071C112.652 67.8697 113.003 68.1076 113.399 68.1076C113.558 68.119 113.717 68.0963 113.864 68.051C114.17 67.949 114.408 67.7337 114.544 67.4391C114.601 67.3258 114.635 67.2011 114.635 67.0765C114.635 65.898 114.635 64.7082 114.635 63.5297C114.635 63.2804 114.612 63.3144 114.861 63.3144H115.235C115.382 63.3144 115.382 63.3144 115.382 63.4617V67.1331C115.405 67.8357 114.952 68.4589 114.283 68.6402C114.193 68.6742 114.102 68.6855 114 68.7082C113.977 68.7082 113.955 68.7195 113.943 68.7422H113.105Z" fill="#D90E04"/>
<path d="M126.816 68.7422C126.804 68.7308 126.793 68.7195 126.77 68.7195C126.181 68.6062 125.694 68.1869 125.501 67.609C125.229 66.9405 125.286 66.1926 125.649 65.5693C125.864 65.1614 126.238 64.8555 126.691 64.7422C127.144 64.6175 127.62 64.6515 128.051 64.8441C128.482 65.0254 128.799 65.3994 128.901 65.8526C128.957 66.1359 128.98 66.4192 128.946 66.7138C128.946 66.7705 128.923 66.7818 128.867 66.7818C128.81 66.7818 128.765 66.7818 128.72 66.7818H126.317C126.272 66.7818 126.227 66.7818 126.17 66.7818C126.102 66.7818 126.091 66.7931 126.091 66.8725C126.079 67.0311 126.102 67.1897 126.147 67.3371C126.272 67.7676 126.635 68.0736 127.065 68.1529C127.428 68.2209 127.79 68.1529 128.096 67.9603C128.153 67.9263 128.21 67.847 128.278 67.8696C128.346 67.8923 128.38 67.9829 128.425 68.0396C128.482 68.1303 128.538 68.2209 128.595 68.3116C128.538 68.4022 128.448 68.4702 128.346 68.5042C128.164 68.5835 127.983 68.6515 127.79 68.6968C127.722 68.7082 127.654 68.7195 127.575 68.7422C127.564 68.7535 127.541 68.7648 127.53 68.7761L126.816 68.7422ZM127.201 66.2266H128.085C128.255 66.2266 128.266 66.2039 128.244 66.0453C128.232 65.9773 128.21 65.9206 128.176 65.864C128.074 65.694 127.938 65.5467 127.779 65.4334C127.722 65.388 127.654 65.3541 127.586 65.3427C127.337 65.2861 127.088 65.2974 126.838 65.3767C126.453 65.5127 126.261 65.796 126.159 66.1699C126.147 66.2152 126.17 66.2379 126.215 66.2379L127.201 66.2266Z" fill="#D90E04"/>
<path d="M182.544 68.7422C182.533 68.7083 182.499 68.7083 182.476 68.6969C182.034 68.5496 181.739 68.1417 181.717 67.6771C181.66 67.2125 181.875 66.7706 182.261 66.5213C182.51 66.3513 182.782 66.238 183.065 66.1927C183.314 66.136 183.575 66.136 183.836 66.1927C183.881 66.204 183.915 66.2153 183.96 66.2153C183.983 66.2267 184.017 66.204 184.017 66.1813V66.17C184.074 65.8527 183.915 65.5354 183.62 65.3881C183.473 65.3202 183.314 65.2862 183.144 65.2862C182.918 65.2862 182.691 65.3315 182.487 65.4335C182.408 65.4675 182.329 65.5241 182.261 65.5808C182.215 65.6148 182.204 65.6148 182.17 65.5808C182.068 65.4335 181.977 65.2862 181.909 65.1275C181.887 65.0709 181.887 65.0369 181.943 65.0029C182 64.9689 182.057 64.9236 182.113 64.9009C182.533 64.6969 182.997 64.6176 183.462 64.6969C183.666 64.7309 183.858 64.7762 184.051 64.8442C184.187 64.8896 184.3 64.9689 184.38 65.0822C184.606 65.3768 184.731 65.7281 184.742 66.102C184.742 66.6573 184.742 67.2125 184.742 67.7791C184.742 67.8924 184.765 67.9944 184.799 68.0964C184.833 68.1983 184.901 68.289 184.992 68.3456C185.037 68.3796 185.06 68.425 185.06 68.4816C185.06 68.5723 185.06 68.6629 185.06 68.7536H184.697C184.652 68.7083 184.584 68.7083 184.538 68.6856C184.38 68.6176 184.244 68.5156 184.13 68.3796C184.108 68.357 184.108 68.3117 184.062 68.3117C183.926 68.459 183.768 68.5609 183.575 68.6289C183.462 68.6743 183.337 68.7083 183.212 68.7309C183.178 68.7309 183.144 68.7422 183.111 68.7649L182.544 68.7422ZM183.994 67.2352C183.994 67.0992 183.994 66.9632 183.994 66.8159C183.994 66.7592 183.983 66.7479 183.915 66.7366C183.79 66.7253 183.666 66.7139 183.541 66.7139C183.292 66.7026 183.043 66.7706 182.816 66.8952C182.521 67.0425 182.363 67.3711 182.431 67.6884C182.442 67.8924 182.589 68.0624 182.793 68.1077C183.077 68.187 183.371 68.153 183.62 67.9944C183.734 67.9151 183.836 67.8357 183.938 67.7451C183.983 67.7111 184.006 67.6544 184.006 67.6091C183.994 67.4958 183.994 67.3598 183.994 67.2352Z" fill="#D90E04"/>
<path d="M141.003 68.7422C140.991 68.7082 140.957 68.7082 140.935 68.6969C140.3 68.4476 139.994 67.7337 140.244 67.0991C140.312 66.9178 140.436 66.7479 140.584 66.6232C140.787 66.4532 141.037 66.3173 141.297 66.2493C141.467 66.2039 141.637 66.1699 141.807 66.1473C141.989 66.136 142.17 66.1586 142.34 66.2039C142.374 66.2039 142.408 66.2153 142.442 66.2266C142.476 66.2379 142.499 66.2153 142.51 66.1813C142.51 66.1813 142.51 66.1813 142.51 66.1699C142.555 65.8527 142.397 65.558 142.113 65.3994C142.023 65.3541 141.921 65.3201 141.819 65.3088C141.445 65.2408 141.071 65.3314 140.776 65.5694C140.753 65.5807 140.742 65.6034 140.719 65.6147L140.708 65.626C140.651 65.6034 140.595 65.5467 140.572 65.4901C140.504 65.3767 140.436 65.2521 140.391 65.1275C140.368 65.0935 140.38 65.0595 140.414 65.0368C140.448 65.0141 140.482 64.9915 140.516 64.9688C141.071 64.6515 141.728 64.5949 142.34 64.7875C142.465 64.8215 142.578 64.8782 142.68 64.9461C142.872 65.0595 143.008 65.2521 143.065 65.4674C143.076 65.5127 143.088 65.5467 143.099 65.592C143.178 65.7847 143.212 65.9886 143.201 66.1813C143.201 66.6572 143.201 67.1331 143.201 67.5977C143.201 67.7563 143.235 67.915 143.28 68.0736C143.303 68.1756 143.36 68.2663 143.439 68.3229C143.496 68.3569 143.518 68.4249 143.518 68.4929C143.507 68.5722 143.507 68.6629 143.53 68.7422H143.201C143.19 68.7309 143.167 68.7309 143.156 68.7195C142.906 68.6742 142.691 68.5156 142.567 68.2776C142.408 68.4362 142.215 68.5609 142 68.6175C141.887 68.6515 141.785 68.6742 141.671 68.7082C141.637 68.7082 141.615 68.7195 141.592 68.7422H141.003ZM142.476 66.7818C142.476 66.7818 142.465 66.7705 142.453 66.7705C142.193 66.7025 141.932 66.7025 141.671 66.7592C141.513 66.7932 141.354 66.8612 141.218 66.9518C140.957 67.1445 140.844 67.4731 140.923 67.779C140.957 67.9376 141.082 68.0736 141.241 68.119C141.377 68.1643 141.513 68.1756 141.649 68.1529C141.943 68.119 142.227 67.9716 142.431 67.745C142.476 67.6997 142.499 67.643 142.487 67.5864C142.487 67.3371 142.487 67.0991 142.487 66.8498C142.487 66.8272 142.476 66.8045 142.476 66.7818Z" fill="#D90E04"/>
<path d="M158.317 68.7422C158.306 68.7309 158.295 68.7195 158.272 68.7195C157.739 68.6175 157.297 68.2323 157.105 67.7224C156.856 67.1218 156.833 66.4532 157.048 65.8413C157.127 65.592 157.275 65.3654 157.456 65.1728C157.739 64.8782 158.136 64.6969 158.544 64.6855C158.771 64.6629 158.986 64.6855 159.201 64.7309C159.666 64.8328 160.051 65.1614 160.244 65.592C160.334 65.7847 160.391 66 160.425 66.2153C160.493 66.6345 160.47 67.0538 160.368 67.4617C160.323 67.6657 160.244 67.847 160.13 68.0283C159.938 68.3456 159.632 68.5835 159.269 68.6969C159.212 68.7082 159.144 68.6969 159.11 68.7535L158.317 68.7422ZM157.683 66.7705C157.694 66.8952 157.694 66.9971 157.705 67.0878C157.717 67.2691 157.762 67.4391 157.841 67.609C157.955 67.8923 158.227 68.085 158.521 68.119C158.612 68.1303 158.703 68.1303 158.793 68.119C159.076 68.0963 159.337 67.9377 159.484 67.6884C159.541 67.5977 159.586 67.4957 159.62 67.3937C159.745 66.9745 159.756 66.5439 159.666 66.1133C159.632 65.966 159.586 65.83 159.507 65.694C159.405 65.5014 159.212 65.3541 158.997 65.2974C158.533 65.1841 158.102 65.3088 157.864 65.8073C157.841 65.864 157.819 65.9207 157.796 65.9773C157.717 66.2379 157.683 66.5099 157.683 66.7705Z" fill="#D90E04"/>
<path d="M179.405 68.7422C179.394 68.7195 179.371 68.7195 179.348 68.7082C178.635 68.5269 178.193 68.0623 177.977 67.3597C177.943 67.2351 177.921 67.1104 177.921 66.9858C177.921 66.8385 177.921 66.6798 177.921 66.5325C177.921 66.1699 178.034 65.8073 178.227 65.49C178.419 65.1727 178.714 64.9348 179.065 64.8101C179.768 64.5382 180.425 64.6402 181.059 65.0141C181.116 65.0481 181.127 65.0708 181.082 65.1274C181.003 65.2521 180.923 65.3654 180.844 65.49C180.833 65.524 180.799 65.5354 180.765 65.524H180.754C180.674 65.4787 180.606 65.4447 180.527 65.4107C180.21 65.2634 179.847 65.2294 179.507 65.3201C179.224 65.388 178.997 65.5693 178.861 65.8186C178.771 65.9773 178.714 66.1586 178.68 66.3399C178.635 66.6345 178.635 66.9405 178.703 67.2351C178.725 67.3597 178.782 67.473 178.838 67.5863C178.997 67.881 179.292 68.0849 179.62 68.1303C179.881 68.1756 180.142 68.1416 180.38 68.0396C180.538 67.9716 180.697 67.8923 180.833 67.8016C180.878 67.813 180.889 67.847 180.901 67.881C180.969 68.0056 181.037 68.1416 181.093 68.2662C181.139 68.3569 181.139 68.3682 181.037 68.4249C180.969 68.4589 180.889 68.5042 180.81 68.5269C180.606 68.6062 180.391 68.6628 180.164 68.7082C180.142 68.7082 180.108 68.7082 180.085 68.7422H179.405Z" fill="#D90E04"/>
<path d="M123.722 68.7422C123.711 68.6856 123.654 68.6969 123.62 68.6856C123.348 68.5722 123.133 68.3683 122.997 68.1077C122.918 67.949 122.884 67.779 122.884 67.6091C122.884 66.9179 122.884 66.2266 122.884 65.5354C122.884 65.4788 122.884 65.4221 122.884 65.3768C122.884 65.3315 122.872 65.2975 122.793 65.2975C122.691 65.2975 122.601 65.2975 122.51 65.2975C122.442 65.2975 122.431 65.2861 122.431 65.2295C122.431 65.0935 122.431 64.9688 122.431 64.8329C122.431 64.7762 122.442 64.7536 122.499 64.7536C122.601 64.7536 122.702 64.7536 122.804 64.7536C122.861 64.7536 122.884 64.7422 122.884 64.6856C122.884 64.5043 122.884 64.3116 122.884 64.1303C122.884 64.085 122.884 64.0283 122.884 63.983C122.884 63.9603 122.895 63.9377 122.918 63.9264C123.11 63.8357 123.314 63.7677 123.53 63.6997C123.564 63.6884 123.586 63.7111 123.586 63.7451C123.586 63.8584 123.586 63.9604 123.586 64.0737C123.586 64.2776 123.586 64.4703 123.586 64.6629C123.586 64.7309 123.598 64.7536 123.666 64.7536H124.584C124.64 64.7536 124.663 64.7649 124.663 64.8215C124.674 64.9688 124.663 65.1162 124.652 65.2748C124.516 65.3315 124.368 65.2861 124.232 65.2975C124.051 65.3088 123.858 65.2975 123.677 65.2975C123.609 65.2975 123.598 65.3088 123.586 65.3768C123.586 65.4108 123.586 65.4448 123.586 65.4901C123.586 66.1133 123.586 66.7252 123.586 67.3485C123.586 67.5524 123.654 67.7564 123.768 67.9264C123.892 68.119 124.119 68.2096 124.334 68.153C124.493 68.1303 124.663 68.0737 124.821 68.0397C124.867 68.0737 124.855 68.1303 124.867 68.1756C124.889 68.3116 124.923 68.4476 124.946 68.5836C124.957 68.6402 124.935 68.6629 124.889 68.6742C124.787 68.6969 124.685 68.7082 124.584 68.7196C124.459 68.7309 124.323 68.7422 124.187 68.7649L123.722 68.7422Z" fill="#D90E04"/>
<path d="M166.498 58.1926C166.487 58.1699 166.487 58.1359 166.498 58.1019C168.074 50.7025 169.649 43.3031 171.235 35.9036C171.235 35.8923 171.258 35.8923 171.269 35.881C171.303 35.9376 171.326 35.983 171.36 36.0396C172.334 37.966 173.32 39.881 174.295 41.8073C175.337 43.8697 176.38 45.9206 177.411 47.983C177.762 48.6742 178.102 49.3767 178.464 50.068C178.668 50.4532 178.838 50.8612 178.974 51.2691C179.178 51.813 179.337 52.3796 179.439 52.9461C179.552 53.5354 179.564 54.1246 179.462 54.7138C179.326 55.5637 178.861 56.3229 178.17 56.8442C177.717 57.1841 177.207 57.4447 176.674 57.6147C176.051 57.83 175.416 57.9773 174.77 58.0566C174.442 58.1019 174.102 58.1473 173.773 58.1813C173.683 58.1926 173.581 58.1926 173.49 58.1926H166.657C166.6 58.2153 166.544 58.2039 166.498 58.1926Z" fill="#E20F00"/>
<path d="M131.609 40.6742C131.666 40.6515 131.722 40.6402 131.779 40.6515C134.215 40.6515 136.663 40.6515 139.099 40.6515C139.348 40.6629 139.586 40.6855 139.836 40.7422C140.3 40.8215 140.754 40.9688 141.184 41.1615C141.501 41.3088 141.796 41.5014 142.045 41.7394C142.476 42.136 142.759 42.6572 142.861 43.2238C143.144 44.7422 142.759 46.0453 141.637 47.1331C141.241 47.5071 140.799 47.8243 140.312 48.085C139.915 48.3003 139.496 48.4702 139.076 48.6175L138.974 48.6515C138.963 48.6515 138.963 48.6629 138.952 48.6855C139.144 48.7195 139.326 48.7535 139.518 48.7988C139.972 48.9008 140.402 49.0708 140.788 49.3088C141.263 49.5807 141.649 49.966 141.921 50.4419C142.102 50.7705 142.215 51.1445 142.249 51.5184C142.295 52.1869 142.227 52.8555 142.045 53.4901C141.649 54.9405 140.799 56.051 139.541 56.8668C138.827 57.3314 138.034 57.6714 137.207 57.8753C136.776 57.9886 136.334 58.0453 135.904 58.1246C135.53 58.1813 135.144 58.2153 134.771 58.2039C132.572 58.2039 130.374 58.2039 128.164 58.2039C128.096 58.2153 128.017 58.2039 127.949 58.1926C127.949 58.17 127.949 58.1473 127.949 58.1133C129.184 52.3003 130.397 46.4872 131.609 40.6742ZM131.949 56.0283C132.017 56.051 132.085 56.051 132.153 56.051C133.003 56.051 133.841 56.051 134.691 56.051C134.986 56.051 135.292 56.0056 135.575 55.915C136.244 55.6997 136.867 55.3598 137.411 54.9178C137.807 54.6005 138.147 54.2379 138.431 53.8187C138.589 53.5921 138.703 53.3201 138.759 53.0481C138.771 52.9688 138.782 52.8895 138.793 52.8215C138.838 52.4929 138.838 52.153 138.771 51.813C138.691 51.3711 138.476 50.9518 138.159 50.6345C137.977 50.4532 137.773 50.3059 137.558 50.1813C137.229 50 136.867 49.864 136.504 49.796C136.074 49.7054 135.632 49.66 135.19 49.6714C134.623 49.694 134.057 49.7054 133.479 49.7167H133.365C133.32 49.7167 133.275 49.7507 133.263 49.796C133.252 49.8187 133.252 49.8413 133.252 49.864C133.048 50.8498 132.844 51.8357 132.64 52.8215C132.448 53.728 132.266 54.6345 132.074 55.5297C132.017 55.6884 131.983 55.8583 131.949 56.0283ZM134.929 48.3683C135.303 48.3683 135.677 48.3683 136.04 48.3683C136.13 48.3683 136.232 48.3456 136.323 48.3116C136.368 48.2889 136.425 48.2663 136.47 48.2436C136.901 48.0283 137.309 47.7903 137.728 47.5411C138.238 47.2351 138.657 46.7932 138.929 46.2606C139.042 46.0566 139.122 45.83 139.156 45.6034C139.19 45.3201 139.246 45.0481 139.292 44.7649C139.303 44.7082 139.303 44.6402 139.303 44.5836C139.28 44.2549 139.156 43.9263 138.94 43.677C138.748 43.4617 138.521 43.2918 138.261 43.1785C137.841 42.9745 137.365 42.8838 136.901 42.8952L134.793 42.9405C134.759 42.9405 134.737 42.9405 134.703 42.9405C134.646 42.9405 134.601 42.9858 134.589 43.0425C134.578 43.1105 134.567 43.1671 134.555 43.2351C134.499 43.779 134.397 44.3229 134.295 44.8668C134.272 44.9688 134.249 45.0821 134.227 45.1841C134.147 45.6034 134.079 46.0226 133.989 46.4419C133.875 46.9518 133.785 47.4731 133.683 47.9943C133.66 48.085 133.649 48.1869 133.637 48.2776C133.626 48.3343 133.649 48.3456 133.705 48.3456C133.751 48.3456 133.785 48.3456 133.83 48.3456L134.929 48.3683Z" fill="#E21001"/>
<path d="M143.076 58.1473C143.088 58.0907 143.122 58.0227 143.167 57.9773C143.7 57.1841 144.232 56.4023 144.765 55.6091L154.306 41.5241C154.476 41.2748 154.657 41.0142 154.816 40.7649C154.861 40.6856 154.952 40.6289 155.054 40.6402C155.371 40.6516 155.688 40.6402 156.006 40.6402C156.164 40.6402 156.153 40.6402 156.187 40.7762C156.266 41.0822 156.334 41.3994 156.414 41.7054L157.456 46.0567C157.819 47.5638 158.193 49.0708 158.555 50.5779C158.906 52.0283 159.258 53.4901 159.62 54.9405C159.87 55.949 160.108 56.9575 160.357 57.966C160.368 58.0113 160.38 58.0567 160.391 58.102C160.391 58.1247 160.38 58.136 160.368 58.136C160.312 58.136 160.255 58.136 160.21 58.136H156.685C156.583 58.136 156.583 58.136 156.561 58.0227L156.266 56.5609C156.153 55.9717 156.028 55.3824 155.915 54.8045C155.892 54.7026 155.892 54.7026 155.802 54.7026H148.708C148.459 54.7026 148.527 54.6686 148.38 54.8839C147.7 55.915 147.02 56.9462 146.34 57.9773C146.204 58.1813 146.261 58.1473 146.023 58.1473H143.246H143.076ZM152.651 52.1417H154.986C155.042 52.1417 155.099 52.1417 155.144 52.1417C155.167 52.1417 155.19 52.119 155.19 52.0963V52.085C155.178 52.0397 155.178 52.0057 155.167 51.9604C154.986 51.1898 154.793 50.4193 154.612 49.6601L153.853 46.5439C153.841 46.5213 153.853 46.4759 153.807 46.4759C153.796 46.4759 153.773 46.4986 153.762 46.5213C153.751 46.5439 153.728 46.5666 153.717 46.6006L150.193 51.983C150.17 52.017 150.147 52.051 150.125 52.085C150.113 52.1077 150.125 52.119 150.136 52.1303H150.147C150.204 52.1303 150.261 52.1303 150.306 52.1303L152.651 52.1417Z" fill="#E10F01"/>
<path d="M136.187 65.9547V63.4164C136.187 63.2465 136.176 63.2465 136.357 63.2465C136.731 63.2465 137.116 63.2465 137.49 63.2465C137.796 63.2351 138.102 63.2805 138.397 63.3711C138.51 63.4051 138.612 63.4504 138.702 63.5071C139.02 63.6884 139.224 64.017 139.246 64.3909C139.258 64.5382 139.258 64.6742 139.224 64.8215C139.156 65.0708 139.008 65.2975 138.793 65.4448C138.702 65.5128 138.612 65.5581 138.521 65.6261C138.51 65.6374 138.499 65.6487 138.487 65.6714C138.487 65.6941 138.51 65.7054 138.533 65.7167C138.589 65.7281 138.635 65.7394 138.691 65.762C139.156 65.9207 139.496 66.3173 139.564 66.8045C139.598 66.9858 139.598 67.1671 139.552 67.3371C139.53 67.4164 139.518 67.4844 139.507 67.5637C139.473 67.745 139.394 67.9037 139.258 68.0397C138.94 68.3683 138.521 68.5836 138.068 68.6629C138.011 68.6742 137.966 68.6742 137.909 68.6742H136.346C136.312 68.6742 136.278 68.6742 136.244 68.6742C136.21 68.6742 136.187 68.6516 136.187 68.6176C136.187 68.6176 136.187 68.6176 136.187 68.6062C136.187 68.5496 136.187 68.4929 136.187 68.4476V65.9547ZM136.957 67.0085V67.3824C136.957 67.5637 136.957 67.7564 136.957 67.9377C136.957 68.0057 136.969 68.017 137.037 68.0283C137.309 68.051 137.592 68.051 137.864 68.017C137.966 68.0057 138.068 67.983 138.159 67.949C138.476 67.8584 138.702 67.5864 138.736 67.2578C138.77 67.0878 138.77 66.9065 138.736 66.7365C138.702 66.4193 138.476 66.17 138.17 66.0793C138.034 66.034 137.887 66.0113 137.751 66.0113C137.501 66.0113 137.263 66.0113 137.014 66.0113C137.014 66.0113 137.003 66.0113 136.991 66.0113C136.98 66.0113 136.957 66.0227 136.957 66.0453C136.957 66.0907 136.946 66.1247 136.946 66.17C136.957 66.4533 136.957 66.7252 136.957 67.0085ZM136.957 64.6742V64.8782C136.957 65.0368 136.957 65.1841 136.957 65.3428C136.957 65.4334 136.969 65.4448 137.048 65.4448C137.229 65.4448 137.422 65.4448 137.603 65.4334C137.728 65.4334 137.853 65.3994 137.977 65.3654C138.249 65.2975 138.453 65.0595 138.476 64.7762C138.487 64.6856 138.487 64.5949 138.476 64.5043C138.465 64.255 138.283 64.051 138.045 63.983C137.955 63.949 137.875 63.9377 137.785 63.9263C137.535 63.915 137.286 63.915 137.037 63.915C136.98 63.915 136.969 63.9263 136.969 63.9943C136.957 64.221 136.957 64.4476 136.957 64.6742Z" fill="#D90E04"/>
<path d="M132.187 64.8896V63.3371C132.187 63.2918 132.187 63.2352 132.187 63.1898C132.187 63.1558 132.21 63.1332 132.232 63.1332C132.232 63.1332 132.232 63.1332 132.244 63.1332H132.822C132.844 63.1332 132.867 63.1558 132.867 63.1785C132.867 63.2125 132.867 63.2465 132.867 63.2918V68.5156C132.867 68.6856 132.878 68.6743 132.697 68.6743H132.244C132.198 68.6743 132.176 68.6516 132.176 68.6063C132.176 68.5609 132.176 68.5269 132.164 68.4816C132.164 68.459 132.142 68.4476 132.119 68.4476H132.108C132.085 68.459 132.051 68.4703 132.028 68.493C131.824 68.6063 131.598 68.6856 131.371 68.7083C131.144 68.7309 130.918 68.7196 130.691 68.6743C130.295 68.5836 129.955 68.3456 129.762 67.9944C129.615 67.7564 129.524 67.4845 129.49 67.2012C129.399 66.6346 129.513 66.068 129.796 65.5694C129.898 65.3881 130.023 65.2295 130.17 65.0935C130.533 64.7422 131.054 64.5949 131.552 64.6969C131.745 64.7196 131.938 64.7876 132.119 64.8782C132.13 64.8896 132.153 64.8896 132.187 64.8896ZM132.153 66.7479C132.153 66.4193 132.153 66.0907 132.153 65.7621C132.153 65.6941 132.13 65.6261 132.085 65.5694C131.994 65.4675 131.881 65.3881 131.745 65.3428C131.382 65.2295 130.986 65.3088 130.703 65.5581C130.544 65.6941 130.431 65.8641 130.363 66.0567C130.204 66.476 130.193 66.9519 130.329 67.3825C130.374 67.5411 130.453 67.6771 130.567 67.8017C130.85 68.085 131.201 68.153 131.575 68.1077C131.734 68.085 131.892 68.0284 132.017 67.9264C132.108 67.8697 132.153 67.7791 132.153 67.6771C132.153 67.3711 132.153 67.0652 132.153 66.7479Z" fill="#D90E04"/>
<path d="M169.875 68.6743H169.116C169.071 68.6743 169.037 68.6516 169.026 68.6063C168.992 68.5043 168.969 68.4136 168.935 68.3117C168.856 68.085 168.765 67.8471 168.686 67.6204C168.674 67.5751 168.629 67.5411 168.584 67.5411H166.805C166.759 67.5411 166.725 67.5638 166.703 67.5978C166.68 67.6431 166.669 67.6884 166.646 67.7337C166.544 67.983 166.442 68.2437 166.363 68.5043C166.351 68.5269 166.34 68.5609 166.34 68.5949C166.329 68.6403 166.283 68.6743 166.238 68.6743C166 68.6743 165.762 68.6743 165.513 68.6743C165.501 68.6176 165.513 68.5609 165.547 68.5156C165.796 67.8924 166.034 67.2692 166.283 66.6459L167.586 63.3711C167.586 63.3598 167.598 63.3485 167.598 63.3371C167.62 63.2578 167.7 63.2012 167.779 63.2125C167.79 63.2125 167.802 63.2238 167.813 63.2238C167.824 63.2238 167.847 63.2352 167.847 63.2578C167.87 63.2918 167.881 63.3371 167.892 63.3711L169.807 68.493L169.875 68.6743ZM168.402 66.9519L168.414 66.9405C168.414 66.9405 168.414 66.9292 168.414 66.9179C168.414 66.8952 168.402 66.8726 168.391 66.8499C168.176 66.17 167.96 65.4901 167.745 64.8102C167.745 64.7989 167.745 64.7989 167.734 64.7989C167.734 64.7989 167.722 64.7989 167.711 64.7989C167.7 64.8102 167.688 64.8216 167.688 64.8329L166.963 66.8612C166.952 66.8726 166.952 66.8952 166.952 66.9179C166.952 66.9292 166.952 66.9519 166.975 66.9519C167.009 66.9519 167.031 66.9519 167.065 66.9519H168.312C168.346 66.9632 168.38 66.9632 168.402 66.9519Z" fill="#D90E04"/>
<path d="M149.094 66.4646C149.139 66.4419 149.184 66.4079 149.207 66.3626C149.626 65.864 150.034 65.3768 150.453 64.8782C150.476 64.8555 150.499 64.8215 150.521 64.7989C150.544 64.7762 150.567 64.7649 150.601 64.7535C150.657 64.7535 151.269 64.7535 151.36 64.7649C151.348 64.8102 151.314 64.8442 151.28 64.8782L150.272 66.102C150.147 66.2606 150.159 66.2153 150.261 66.3739C150.691 67.0765 151.122 67.779 151.564 68.4816C151.598 68.5269 151.62 68.5836 151.654 68.6289C151.632 68.6742 151.598 68.6629 151.575 68.6629C151.382 68.6629 151.19 68.6629 150.997 68.6629C150.941 68.6629 150.884 68.6402 150.85 68.5836C150.703 68.3456 150.555 68.1076 150.408 67.8697L149.785 66.8725C149.762 66.8272 149.728 66.7819 149.694 66.7365C149.649 66.7365 149.637 66.7592 149.615 66.7819C149.467 66.9405 149.32 67.0991 149.162 67.2464C149.105 67.2918 149.082 67.3598 149.082 67.4391C149.082 67.7904 149.082 68.1416 149.082 68.5042C149.082 68.6742 149.082 68.6629 148.912 68.6629H148.538C148.357 68.6629 148.368 68.6742 148.368 68.4816V63.3371C148.368 63.0991 148.346 63.1218 148.572 63.1218C148.72 63.1218 148.856 63.1218 149.003 63.1218C149.06 63.1218 149.082 63.1331 149.082 63.2011C149.082 63.2691 149.082 63.3031 149.082 63.3484L149.094 66.4646Z" fill="#D90E04"/>
<path d="M144.958 68.6742H144.357C144.323 68.6742 144.3 68.6516 144.3 68.6289C144.3 68.6289 144.3 68.6289 144.3 68.6176C144.3 68.5722 144.3 68.5382 144.3 68.4929V64.9348C144.3 64.7535 144.289 64.7535 144.47 64.7535C144.55 64.7535 144.629 64.7535 144.708 64.7535C144.754 64.7422 144.81 64.7762 144.822 64.8215C144.867 64.9235 144.912 65.0142 144.946 65.1162C144.958 65.1388 144.969 65.1615 144.992 65.1841C145.014 65.1615 145.037 65.1501 145.048 65.1388C145.331 64.8215 145.739 64.6516 146.159 64.6856C146.295 64.6856 146.419 64.7082 146.555 64.7196C146.669 64.7309 146.782 64.7875 146.861 64.8555C147.178 65.0935 147.382 65.4674 147.405 65.864C147.405 65.9094 147.405 65.9547 147.405 66.0113C147.405 66.8385 147.405 67.6544 147.405 68.4816C147.405 68.5269 147.405 68.5609 147.405 68.6062C147.405 68.6629 147.394 68.6856 147.337 68.6856H146.793C146.737 68.6856 146.714 68.6742 146.714 68.6176C146.714 68.5609 146.714 68.5269 146.714 68.4703V66.1813C146.714 66.0453 146.703 65.9207 146.669 65.7847C146.589 65.5128 146.351 65.3088 146.068 65.2861C145.864 65.2521 145.649 65.2861 145.456 65.3768C145.343 65.4334 145.241 65.4901 145.15 65.5581C145.048 65.6261 144.98 65.7507 144.992 65.8754C144.992 66.7365 144.992 67.5977 144.992 68.4703C144.992 68.5382 144.98 68.6062 144.958 68.6742Z" fill="#D90E04"/>
<path d="M117.093 65.1841C117.127 65.1501 117.139 65.1388 117.15 65.1274C117.501 64.7308 117.943 64.6288 118.453 64.6855C118.476 64.6855 118.499 64.6968 118.521 64.6968C118.85 64.7082 119.054 64.9121 119.246 65.1501C119.269 65.1841 119.292 65.2181 119.303 65.2634C119.337 65.3314 119.36 65.3994 119.382 65.4674C119.462 65.66 119.496 65.8753 119.496 66.0793C119.484 66.8725 119.496 67.6657 119.496 68.4589C119.496 68.5042 119.496 68.5495 119.496 68.6062C119.496 68.6855 119.484 68.6855 119.405 68.6855C119.235 68.6855 119.054 68.6855 118.884 68.6855C118.827 68.6855 118.816 68.6742 118.804 68.6062C118.793 68.5382 118.804 68.5155 118.804 68.4589C118.804 67.7223 118.804 66.9858 118.804 66.2492C118.804 66.0566 118.77 65.864 118.691 65.694C118.612 65.456 118.397 65.2974 118.147 65.2974C117.705 65.2521 117.377 65.4334 117.116 65.762C117.093 65.7846 117.082 65.83 117.082 65.864V68.4702C117.082 68.5269 117.082 68.5835 117.082 68.6288C117.082 68.6628 117.071 68.6855 117.025 68.6855H116.448C116.414 68.6855 116.391 68.6628 116.391 68.6288C116.391 68.5948 116.391 68.5495 116.391 68.5042C116.391 67.3257 116.391 66.1359 116.391 64.9575V64.8328C116.391 64.7875 116.414 64.7761 116.459 64.7761C116.572 64.7761 116.685 64.7761 116.799 64.7761C116.844 64.7761 116.889 64.7988 116.901 64.8555C116.98 64.9461 117.037 65.0594 117.093 65.1841Z" fill="#D90E04"/>
<path d="M155.416 68.6742H154.804C154.748 68.6742 154.736 68.6516 154.736 68.5949C154.736 68.5383 154.736 68.5043 154.736 68.4476V65.4788C154.736 65.3088 154.736 65.3201 154.578 65.3201C154.476 65.3201 154.374 65.3201 154.272 65.3201C154.17 65.3201 154.17 65.3088 154.17 65.2295C154.17 65.0822 154.17 64.9462 154.17 64.7989C154.17 64.7649 154.193 64.7422 154.215 64.7422C154.215 64.7422 154.215 64.7422 154.227 64.7422H154.623C154.736 64.7422 154.725 64.7196 154.736 64.6402C154.748 64.4929 154.759 64.3456 154.793 64.1983C154.85 63.9264 154.974 63.6771 155.167 63.4731C155.439 63.2012 155.813 63.0765 156.187 63.1332C156.334 63.1445 156.493 63.1785 156.64 63.2125C156.697 63.2238 156.708 63.2465 156.697 63.3031C156.686 63.3598 156.663 63.4051 156.64 63.4618C156.618 63.5524 156.584 63.6431 156.538 63.7337C156.448 63.7451 156.346 63.7337 156.255 63.6997C155.926 63.6431 155.564 63.9037 155.45 64.153C155.416 64.221 155.405 64.289 155.405 64.3683C155.394 64.4816 155.394 64.6063 155.428 64.7196C155.53 64.7309 155.643 64.7422 155.745 64.7309C155.881 64.7309 156.017 64.7309 156.153 64.7309C156.187 64.7309 156.21 64.7536 156.221 64.7876V64.7989C156.221 64.8102 156.221 64.8215 156.221 64.8329C156.221 64.9802 156.221 65.1275 156.21 65.2861C156.062 65.3315 155.915 65.2975 155.768 65.3088C155.677 65.3088 155.575 65.3088 155.484 65.3088C155.416 65.3088 155.405 65.3201 155.405 65.3995C155.405 65.4448 155.405 65.4901 155.405 65.5468L155.416 68.6742Z" fill="#D90E04"/>
<path d="M172.674 63.2578C172.618 63.4164 172.561 63.5638 172.493 63.7111C172.482 63.7564 172.436 63.7791 172.391 63.7677C172.323 63.7564 172.266 63.7451 172.198 63.7337C171.938 63.6771 171.666 63.7791 171.518 64.0057C171.36 64.2096 171.303 64.4816 171.382 64.7309C171.428 64.7536 171.473 64.7649 171.53 64.7536H172.108C172.142 64.7536 172.176 64.7762 172.176 64.8102V64.8215V64.8329C172.164 64.9915 172.198 65.1502 172.153 65.3088C172.006 65.3201 171.858 65.3315 171.711 65.3201C171.632 65.3201 171.541 65.3201 171.462 65.3201C171.416 65.3201 171.394 65.3315 171.394 65.3768C171.394 65.4221 171.394 65.4901 171.394 65.5354V68.4363C171.394 68.4929 171.394 68.5496 171.394 68.5949C171.394 68.6402 171.371 68.6516 171.326 68.6516H170.759C170.737 68.6516 170.703 68.6402 170.703 68.6062V68.5949C170.703 68.5383 170.703 68.4816 170.703 68.4363V65.5128C170.703 65.2861 170.725 65.3088 170.499 65.3088C170.397 65.3088 170.295 65.3088 170.193 65.3088C170.17 65.3088 170.136 65.2975 170.136 65.2635V65.2521C170.136 65.1048 170.136 64.9575 170.136 64.7989C170.136 64.7649 170.159 64.7422 170.181 64.7309H170.193H170.499C170.725 64.7309 170.691 64.7422 170.703 64.5496C170.714 64.323 170.759 64.1077 170.839 63.9037C171.054 63.3938 171.45 63.1445 171.983 63.1218C172.074 63.1218 172.164 63.1332 172.255 63.1558C172.391 63.1898 172.538 63.2125 172.674 63.2578Z" fill="#D90E04"/>
<path d="M173.943 65.2182C173.977 65.2182 173.989 65.1842 174 65.1615C174.204 64.8782 174.533 64.6969 174.884 64.6856C175.088 64.6743 175.303 64.6856 175.507 64.7309C175.541 64.7649 175.518 64.7876 175.507 64.8216C175.439 64.9916 175.382 65.1729 175.314 65.3428C175.292 65.4108 175.269 65.4221 175.212 65.3995L174.952 65.3202C174.805 65.2748 174.646 65.2862 174.51 65.3542C174.249 65.4788 174.034 65.6941 173.932 65.9661C173.898 66.068 173.887 66.17 173.887 66.272C173.887 66.9972 173.887 67.7224 173.887 68.4476V68.5723C173.887 68.6856 173.887 68.6856 173.762 68.6969C173.592 68.6969 173.411 68.6969 173.241 68.6969C173.184 68.6969 173.173 68.6743 173.161 68.6176C173.161 68.5723 173.161 68.5383 173.161 68.493V64.9802C173.161 64.9349 173.161 64.9009 173.161 64.8556C173.161 64.7876 173.173 64.7763 173.252 64.7763H173.796C173.875 64.7763 173.887 64.7876 173.887 64.8782C173.887 64.9689 173.887 65.0595 173.898 65.1502C173.909 65.1502 173.909 65.1955 173.943 65.2182Z" fill="#D90E04"/>
<path d="M161.955 64.7762C161.977 64.9235 161.966 65.0708 162 65.2521C162.045 65.2068 162.079 65.1615 162.113 65.1161C162.147 65.0708 162.181 65.0368 162.227 64.9915C162.261 64.9575 162.306 64.9235 162.351 64.8895C162.397 64.8555 162.442 64.8329 162.487 64.8102C162.533 64.7875 162.589 64.7649 162.634 64.7535C162.691 64.7309 162.748 64.7195 162.804 64.7082C162.861 64.6969 162.906 64.6855 162.963 64.6855C163.02 64.6855 163.076 64.6855 163.122 64.6855C163.178 64.6855 163.224 64.6969 163.28 64.7082C163.337 64.7195 163.382 64.7309 163.439 64.7422C163.496 64.7535 163.541 64.7649 163.586 64.7989C163.609 64.8329 163.575 64.8668 163.564 64.9008C163.507 65.0595 163.439 65.2068 163.371 65.3654C163.36 65.3994 163.326 65.4221 163.292 65.4108H163.28L162.986 65.3201C162.884 65.2861 162.77 65.2861 162.668 65.3201C162.215 65.4448 161.921 65.864 161.943 66.3286C161.943 67.0425 161.943 67.7677 161.943 68.4816C161.943 68.5269 161.943 68.5722 161.943 68.6289C161.943 68.6855 161.932 68.6855 161.887 68.6855H161.286C161.252 68.6855 161.229 68.6629 161.229 68.6402C161.229 68.6402 161.229 68.6402 161.229 68.6289C161.229 68.5836 161.229 68.5496 161.229 68.5042V64.9462C161.229 64.7535 161.218 64.7649 161.399 64.7649H161.819C161.887 64.7422 161.921 64.7535 161.955 64.7762Z" fill="#D90E04"/>
<path d="M121.558 66.7252V68.4475C121.558 68.4929 121.558 68.5382 121.558 68.5949C121.558 68.6515 121.535 68.6628 121.479 68.6628H120.924C120.856 68.6628 120.844 68.6515 120.844 68.5949C120.844 68.5382 120.844 68.5042 120.844 68.4475V65.5127C120.844 65.2861 120.867 65.3087 120.64 65.3087H120.368C120.334 65.3087 120.312 65.2861 120.3 65.2634C120.3 65.2521 120.3 65.2521 120.3 65.2407C120.3 65.0934 120.3 64.9461 120.3 64.7875C120.3 64.7648 120.323 64.7308 120.346 64.7308H120.357H120.414H121.433H121.501C121.524 64.7308 121.547 64.7535 121.547 64.7762C121.547 64.8215 121.547 64.8781 121.547 64.9235L121.558 66.7252Z" fill="#D90E04"/>
<path d="M177.071 66.7252V68.4703C177.071 68.5156 177.071 68.5609 177.071 68.6176C177.071 68.6742 177.06 68.6742 177.014 68.6742C176.822 68.6742 176.629 68.6742 176.436 68.6742C176.402 68.6742 176.38 68.6516 176.38 68.6176C176.38 68.5609 176.38 68.5043 176.38 68.4589V65.4674C176.38 65.3201 176.38 65.3315 176.244 65.3315C176.142 65.3315 176.04 65.3315 175.938 65.3315C175.858 65.3315 175.847 65.3201 175.847 65.2521C175.847 65.1162 175.847 64.9802 175.847 64.8442C175.847 64.7762 175.87 64.7649 175.938 64.7649H177.003C177.037 64.7649 177.06 64.7876 177.071 64.8102V64.8215C177.071 64.8669 177.071 64.9235 177.071 64.9689V66.7252Z" fill="#D90E04"/>
<path d="M121.671 63.6771C121.66 63.9264 121.456 64.1304 121.207 64.1304C120.969 64.119 120.776 63.9264 120.787 63.6884C120.787 63.4505 120.98 63.2692 121.218 63.2692C121.479 63.2805 121.671 63.4391 121.671 63.6771Z" fill="#D90E04"/>
<path d="M176.346 63.711C176.346 63.643 176.357 63.5637 176.38 63.4957C176.414 63.405 176.482 63.3484 176.572 63.3144C176.697 63.2691 176.833 63.2691 176.957 63.3144C177.082 63.3597 177.161 63.4617 177.184 63.5863C177.195 63.677 177.195 63.7676 177.173 63.8583C177.093 64.0736 176.855 64.1869 176.64 64.1189C176.595 64.1076 176.55 64.0736 176.516 64.0509C176.402 63.9603 176.346 63.8356 176.346 63.711Z" fill="#D90E04"/>
</svg>
