<svg width="300" height="100" viewBox="0 0 300 100" fill="none" xmlns="http://www.w3.org/2000/svg">
<rect width="300" height="100" fill="white"/>
<g clip-path="url(#clip0_291_7950)">
<path d="M164 63.0649C164.546 63.0649 164.909 63.3766 164.935 63.7662C164.935 64.0519 164.701 64.2857 164.416 64.2857C163.792 64.2857 163.948 63.8182 163.688 63.8182C163.107 63.8182 162.65 64.7124 162.214 65.6698L162.147 65.8174L162.048 66.0395L161.948 66.2597C161.714 66.7272 161.611 66.8052 161.429 66.8052C160.987 66.8052 160.909 65.6363 160.727 65.1169C160.364 65.8961 159.637 66.8052 158.494 66.8052C157.818 66.7792 157.169 66.4415 157.169 65.4026C157.169 64.2337 157.948 63.4026 158.727 63.4026C159.325 63.4026 159.714 64.0259 159.714 64.4415C159.688 65.5844 158.156 65.6104 158.156 65.8441C158.156 66.0779 158.546 66.1558 158.779 66.1558C159.766 66.1558 160.416 64.8831 160.65 64C160.701 63.8441 160.831 63.5324 161.117 63.5324C161.429 63.5324 161.273 65.4545 161.714 65.4545C162 65.4545 162.364 63.0649 164 63.0649ZM148.624 60.4415C149.143 60.4156 149.559 60.9091 149.611 61.6883C149.714 63.7662 149.013 64.5974 148.65 65.3506C148.727 65.6363 149.221 66.1298 149.688 66.1298C149.87 66.1298 150.078 66.0519 150.13 65.974C150.078 65.8441 150.052 65.7143 150.052 65.4805C150.052 64.2857 150.857 63.2987 151.533 63.2987C152.078 63.2987 152.39 64 152.39 64.4675C152.39 65.013 151.922 65.4545 151.221 65.8701C151.351 66 151.585 66.0779 151.766 66.0779C152.753 66.1039 153.299 64.9091 153.688 63.8441C153.766 63.6363 153.896 63.3506 154.13 63.3506C154.546 63.3506 154.701 66.0519 155.403 66.0519C155.688 66.0519 155.948 65.4545 155.948 64.987C155.974 64.6233 155.844 64.5974 155.844 64.1039C155.844 63.5584 156.13 63.0909 156.546 63.0909C156.805 63.0909 156.883 63.3246 156.883 63.6104C156.857 64.7013 156.052 66.7272 154.857 66.7272C153.974 66.7272 154.052 65.2208 153.74 65.2208C153.403 65.2208 152.909 66.7272 151.169 66.7272C150.883 66.7272 150.572 66.5974 150.338 66.3117C149.922 66.5974 149.559 66.7013 149.169 66.7013C148.52 66.7013 148.234 66.0519 147.974 66.0519C147.662 66.0519 147.299 66.7013 146.26 66.7013C145.429 66.7013 145.273 65.6104 144.987 65.6104C144.727 65.6104 144.312 66.7013 143.87 66.7013C143.515 66.7013 143.297 66.2501 143.09 65.788L143.029 65.6493C142.834 65.2124 142.639 64.8052 142.338 64.8052C142.102 64.8052 141.611 65.2449 141.113 65.6979L140.978 65.8215C140.482 66.2735 140.004 66.7002 139.792 66.6753C139.611 66.6493 139.533 66.5454 139.559 66.3636C139.585 66.1298 139.818 65.4805 139.896 65.1948C140.052 64.6753 140.182 64.1039 140.26 63.922C140.312 63.7402 140.52 63.6104 140.675 63.6363C140.753 63.6363 140.779 63.7662 140.805 63.8961C140.883 64.3117 141.013 64.7532 141.143 64.7532C141.377 64.7532 142.208 63.2467 142.675 63.2467C143.273 63.2467 143.325 65.6363 144.104 65.6363C144.364 65.6363 144.546 65.3246 144.727 64.961C144.753 64.3376 144.935 63.4285 145.455 63.4285C145.818 63.4285 145.974 64.2337 145.714 64.935C145.688 65.7662 146.26 65.974 146.624 65.974C146.883 65.974 147.325 65.8961 147.688 65.3506C147.481 64.9091 147.351 64 147.325 63.6883C147.247 62.0259 147.896 60.4675 148.624 60.4415ZM138.624 60.961C138.935 60.8571 139.065 61.013 139.195 61.3766C139.351 61.922 139.351 62.6493 139.299 63.6623C139.221 65.0649 138.494 66.7532 136.701 66.7013C135.143 66.6753 134.468 65.6883 134.416 64.2078C134.39 63.5065 134.442 62.8052 134.753 61.8182C134.935 61.2987 135.065 61.1169 135.559 61.013C135.948 60.935 135.896 61.3246 135.818 61.7922C135.611 62.8052 135.533 63.2987 135.585 64.4675C135.662 65.6883 136.234 66.1818 136.857 66.1818C137.818 66.2078 138.234 65.4545 138.416 64.3376C138.546 63.4545 138.442 63.0389 138.364 62.7532C138.312 62.5974 138.156 62.2597 138.13 62C138.026 61.4285 138.338 61.0389 138.624 60.961ZM151.273 64.1039C151.117 64.0779 150.753 64.2597 150.753 64.8052C150.753 65.2467 150.909 65.4545 150.987 65.5324C151.507 65.3766 151.637 64.961 151.611 64.6233C151.611 64.3376 151.455 64.1039 151.273 64.1039ZM158.494 64.0779C157.818 64.0779 157.87 65.1428 157.974 65.3766C158.468 65.2987 158.805 65.013 158.883 64.7532C158.961 64.4935 158.857 64.0779 158.494 64.0779ZM148.681 61.4527L148.65 61.4545C148.312 61.4805 148.156 62.5454 148.208 63.6623C148.26 64.3896 148.364 64.4935 148.468 64.4935C148.65 64.4935 149.117 63.1688 149.065 62.1298C149.039 61.6623 148.909 61.4285 148.65 61.4545L148.681 61.4527ZM145.662 60.6493C145.974 60.6493 146.182 60.8311 146.208 61.1169C146.26 61.5065 145.974 61.922 145.585 61.922C145.247 61.922 145.091 61.6883 145.039 61.4026C145.013 60.987 145.325 60.6493 145.662 60.6493Z" fill="#1F36C7"/>
<path fill-rule="evenodd" clip-rule="evenodd" d="M152.26 54.9871C152.156 54.8053 152.234 54.4936 151.948 54.4936C151.766 54.4936 151.74 54.6495 151.714 54.7793C151.324 54.6495 150.987 54.5975 150.675 54.5975C150.467 54.5975 150.286 54.6235 150.104 54.6754C150 54.4936 149.532 54.13 149.143 54.0001C148.987 54.8573 148.234 55.5066 147.117 55.6105C147.065 56.156 146.623 56.3118 146.286 56.3118C146.052 56.3118 145.662 56.2339 145.636 56.13C145.506 55.3248 144.909 54.8832 144.623 54.7793C144.623 54.8573 144.649 54.9612 144.649 55.0391C144.649 55.7144 144.182 56.13 143.324 56.13C143.195 56.13 143.013 56.13 142.883 56.104C143.87 57.1949 144.571 56.8053 145.013 57.0131C145.61 57.2728 146.104 58.13 148.026 58.13C148.727 58.13 149.428 57.8443 149.896 57.5586C149.974 57.8443 150.26 58.104 150.753 58.104C151.558 58.104 152.026 57.8443 152.026 57.6365C152.026 57.5845 152.026 57.5066 151.87 57.5066C151.74 57.5066 151.74 57.5326 151.299 57.5326C150.779 57.5326 149.948 57.3248 149.558 56.4157C149.48 56.2599 149.376 56.2599 149.35 56.2599C149.091 56.2599 148.675 57.1949 147.039 57.1949C146.337 57.1949 146.026 56.9352 146.026 56.8832C146.026 56.8832 146.026 56.8573 146.052 56.8573C146.13 56.8573 146.363 56.8832 146.675 56.8832C147.714 56.8832 148.545 56.3897 149.065 55.8443C149.247 55.6365 149.324 55.6105 149.48 55.6105C149.61 55.6105 149.74 55.7144 149.818 55.8962C150.052 56.4936 150.597 56.9871 151.169 56.9871C151.948 56.9871 151.974 55.6365 152.156 55.5586C152.182 55.5586 152.234 55.5845 152.26 55.5845C152.363 55.5845 152.493 55.5066 152.493 55.3508C152.519 55.143 152.286 55.091 152.26 54.9871ZM150.961 56.0001C150.753 56.0001 150.597 55.8443 150.597 55.6365C150.597 55.4287 150.753 55.2469 150.961 55.2469C151.169 55.2469 151.324 55.4287 151.324 55.6105C151.35 55.8443 151.169 56.0001 150.961 56.0001Z" fill="#1F36C7"/>
<path fill-rule="evenodd" clip-rule="evenodd" d="M148.26 52.3896C148.442 52.3896 148.519 52.5455 148.545 52.7013C148.597 52.6494 148.675 52.6234 148.753 52.6234C148.935 52.6234 149.039 52.7533 149.039 52.9091C149.039 53.013 148.987 53.0909 148.909 53.1429C149.013 53.1948 149.091 53.2728 149.091 53.3767C149.091 53.5065 148.987 53.6104 148.831 53.6104C148.701 53.6104 148.597 53.4546 148.468 53.4546C148.39 53.4546 148.286 53.4806 148.26 53.5325C148.312 53.6624 148.338 53.7663 148.338 53.8961C148.338 54.5715 147.429 55.1169 146.468 55.1169C145.532 55.1169 145.169 54.5715 145.169 54.3377C145.169 54.2858 145.195 54.2598 145.273 54.2598C145.429 54.2598 145.455 54.3117 145.896 54.3117C146.909 54.3117 146.545 53.013 147.506 53.013C147.636 53.013 147.922 53.0909 148.026 53.2728C148.104 53.1948 148.13 53.0909 148.13 53.013C148.13 52.8572 148.026 52.7533 148.026 52.6234C148.026 52.4935 148.13 52.4156 148.26 52.3896Z" fill="#1F36C7"/>
<path fill-rule="evenodd" clip-rule="evenodd" d="M142.234 51.7142C143.377 51.7142 144.26 52.6753 144.26 54.0519C144.26 54.6753 143.922 55.5844 142.546 55.5844C140.909 55.5844 139.922 54.2077 139.922 53.3246C139.922 52.5714 140.416 52.1038 140.727 52.0259C140.39 53.3766 141.143 54.6753 142.65 54.6753C143.403 54.6753 143.766 54.3116 143.766 53.6623C143.766 52.935 143.273 52.2337 142.416 52.2337C142 52.2337 141.688 52.4675 141.688 52.8051C141.688 53.3506 142.156 53.6883 142.65 53.6883C142.961 53.6883 143.169 53.5584 143.169 53.3506C143.169 53.3246 143.169 53.2727 143.143 53.2467C143.117 53.2727 143.039 53.2727 142.935 53.2727C142.546 53.2727 142.234 53.0649 142.234 52.8311C142.234 52.6493 142.364 52.5454 142.52 52.5454C143.091 52.5454 143.481 53.1168 143.481 53.5324C143.481 53.948 143.169 54.3116 142.65 54.3116C141.533 54.3116 141.039 53.4025 141.039 52.8051C141.065 52.1558 141.611 51.7142 142.234 51.7142Z" fill="#1F36C7"/>
<path fill-rule="evenodd" clip-rule="evenodd" d="M155.922 54.7793C155.688 54.9611 155.117 55.3767 154.156 55.3767C153.636 55.3767 153.429 55.2209 153.351 55.2209C153.247 55.2209 153.143 55.3248 153.039 55.4286C152.805 55.6884 152.52 56.1559 152.52 56.7014C152.52 57.065 152.805 57.4287 153.351 57.4287C155.117 57.4287 156.416 56.3377 156.416 55.4806C156.442 54.9871 156.13 54.7793 155.922 54.7793ZM155.013 56.4676L154 56.7533C154.078 56.5455 154.13 56.3118 154.13 56.078C154.13 56.0001 154.13 55.9481 154.104 55.8702H154.234C154.987 55.8702 155.299 55.5845 155.351 55.5845C155.403 55.5845 155.455 55.6105 155.455 55.7663C155.455 55.9741 155.351 56.2598 155.013 56.4676Z" fill="#1F36C7"/>
<path fill-rule="evenodd" clip-rule="evenodd" d="M154.416 54.987C154.831 54.987 155.195 54.8831 155.429 54.6754C155.507 54.6234 155.533 54.5195 155.533 54.4156V54.2078C155.533 53.9481 155.117 53.7922 154.546 53.7922C153.87 53.7922 153.507 54.1039 153.507 54.2338V54.6494C153.507 54.8052 153.896 54.987 154.416 54.987Z" fill="#1F36C7"/>
<path fill-rule="evenodd" clip-rule="evenodd" d="M157.584 50.5715C156.208 50.5715 156.571 51.7404 154.961 52.104C154.675 52.1559 154.571 52.2598 154.571 52.3897C154.571 52.6235 154.701 52.9352 154.883 52.9352C155.584 52.9352 156.649 51.5066 156.857 51.5066C156.935 51.5066 157.013 51.5066 157.013 51.7144C157.013 52.2339 155.506 52.9092 155.506 53.2728C155.506 53.4806 156.026 53.9482 156.571 53.9482C157.325 53.9482 158 52.4417 158.156 52.4417C158.286 52.4417 158.312 52.5196 158.312 52.6235C158.312 53.0391 157.792 53.8443 156.909 54.1819C156.727 54.2598 156.701 54.3378 156.701 54.3897C156.701 54.5975 156.935 54.8832 157.143 54.8832C157.403 54.8832 159.143 53.3767 159.143 52.1819C159.195 51.065 158.338 50.5715 157.584 50.5715ZM158.208 51.8702C158.104 51.8702 158 51.8443 157.948 51.7923C157.818 51.7404 157.61 51.5585 157.61 51.2988C157.61 51.0391 157.74 50.9611 157.87 50.9611C158.26 50.9611 158.701 51.2988 158.701 51.5845C158.701 51.8183 158.493 51.8702 158.208 51.8702Z" fill="#1F36C7"/>
<path fill-rule="evenodd" clip-rule="evenodd" d="M145.221 52.4936H144.987C144.909 52.4936 144.779 52.4676 144.701 52.4157C144.545 52.2858 144.494 51.5845 144.234 51.1689C143.922 50.7014 143.584 50.5715 143.143 50.5715C142.831 50.5715 142.468 50.7534 142.468 51.0131C142.468 51.1689 142.545 51.2728 143.143 51.4287C143.896 51.6105 144.26 52.0261 144.338 52.4936C144.416 52.9611 144.494 53.3248 144.675 53.5066C144.909 53.7663 145.351 54.0001 145.766 54.0001C146.104 54.0001 146.364 53.8962 146.364 53.5845C146.338 53.2469 145.87 52.4936 145.221 52.4936ZM145.714 53.5066C145.429 53.5066 145.013 53.2209 145.013 53.0391C145.013 52.9092 145.143 52.8313 145.247 52.8313C145.481 52.8313 145.896 53.117 145.896 53.3508C145.896 53.4287 145.844 53.5066 145.714 53.5066Z" fill="#1F36C7"/>
<path fill-rule="evenodd" clip-rule="evenodd" d="M150.883 51.5325C150.701 51.5325 150.701 51.8182 150.701 51.9221C150.701 52.026 150.701 52.052 150.623 52.052C150.545 52.052 150.493 52.026 150.416 52.026C150.364 52.026 150.312 52.0779 150.312 52.1559C150.312 52.5455 150.805 52.8572 151.299 52.8572C151.948 52.8572 152.26 52.5715 152.442 52.5715C152.519 52.5715 152.545 52.6494 152.545 52.7013C152.545 52.8052 152.442 52.9351 152.442 52.987C152.442 53.1429 152.753 53.013 152.753 53.1948C152.753 53.4286 152.364 53.6104 151.766 53.6104C150.597 53.6104 149.844 52.8052 149.844 52.052C149.844 50.6494 151.351 51.0909 151.351 50.5455C151.351 50.3637 151.169 50.2598 151.039 50.2598C151.195 50.052 151.403 50.026 151.61 50.026C151.766 50.026 151.922 50.052 152.052 50.052C152.234 50.052 152.416 49.974 152.416 49.7663C152.416 49.6364 152.312 49.4805 151.87 49.4286C151.922 49.1429 152.519 49.2987 152.519 49.039C152.519 48.8572 152.182 48.7273 151.766 48.7273C150.156 48.7273 149.013 50.052 149.013 51.4805C149.013 52.7792 149.948 54.2078 151.688 54.2078C153.377 54.2078 154.182 52.8312 154.182 51.7922C153.87 52.0779 153.039 52.1559 152.623 52.1559C151.403 52.1818 151.065 51.5325 150.883 51.5325Z" fill="#1F36C7"/>
<path fill-rule="evenodd" clip-rule="evenodd" d="M152.208 51.7144C152.468 51.7144 152.649 51.5066 152.649 51.2729C152.649 50.9092 152.286 50.5716 151.74 50.5716C151.844 50.6755 151.87 50.7534 151.87 50.8573C151.87 50.9872 151.792 51.143 151.792 51.2988C151.792 51.5326 151.948 51.7144 152.208 51.7144ZM154.831 49.9482C154.909 50.0521 154.935 50.156 154.935 50.2599C154.935 50.5196 154.753 50.7794 154.753 51.0391C154.753 51.3508 154.987 51.6105 155.351 51.6105C155.74 51.6105 156 51.2988 156 50.9352C155.974 50.4157 155.533 50.0001 154.831 49.9482ZM152.961 48.9612C153.091 49.117 153.143 49.2729 153.143 49.4547C153.143 49.8703 152.831 50.2859 152.831 50.6755C152.831 51.1949 153.169 51.5326 153.662 51.5326C154.182 51.5326 154.494 51.0911 154.494 50.5975C154.494 49.8962 153.948 49.143 152.961 48.9612ZM153.688 50.4417C153.559 50.4417 153.455 50.3378 153.455 50.2079C153.455 50.13 153.507 50.0261 153.507 49.9222C153.533 49.7923 153.507 49.6885 153.585 49.6885C153.74 49.6885 153.922 49.9742 153.922 50.156C153.922 50.3118 153.844 50.4417 153.688 50.4417Z" fill="#1F36C7"/>
<path fill-rule="evenodd" clip-rule="evenodd" d="M147.688 49.3246C147.273 49.1688 147.091 48.935 146.987 48.4415C146.779 48.7272 146.675 48.987 146.675 49.1428C146.675 49.7662 147.532 49.7662 147.532 50.1818C147.532 50.4156 147.091 50.6753 146.519 50.6753C145.87 50.6753 145.402 50.5714 144.987 50.1558C144.883 50.0519 144.831 49.948 144.701 49.948C144.545 49.948 144.467 50.2078 144.467 50.4675C144.467 51.3506 145.325 52.4156 146.519 52.4156C148 52.4156 148.597 51.4026 148.597 50.5714C148.623 50.0779 148.519 49.6363 147.688 49.3246ZM147.273 51.8182C147.143 51.8182 147.117 51.7662 147.117 51.6363C147.117 51.5584 147.143 51.4026 147.143 51.2727C147.143 50.961 147.273 50.987 147.584 50.8311C147.818 50.7272 147.896 50.5974 147.974 50.5974C148.052 50.5974 148.13 50.6493 148.13 50.7792C148.13 51.2467 147.61 51.8182 147.273 51.8182Z" fill="#1F36C7"/>
<path fill-rule="evenodd" clip-rule="evenodd" d="M145.792 47.8182C145.636 47.8182 145.377 47.6623 145.117 47.4545C144.831 47.7402 144.623 48.1298 144.623 48.5714C144.623 49.4805 145.584 50.2337 146.519 50.2337C146.675 50.2337 146.831 50.2078 146.987 50.1818C146.467 50.1298 146.156 49.7402 146.156 49.2727C146.156 48.6753 146.831 48.1298 146.831 47.6623C146.831 47.0909 146.13 47.0389 146.13 46.5714C146.13 46.1818 146.805 45.8961 146.779 45.2727C146.779 44.9091 146.415 44.4675 145.922 44.2078C146 44.3636 146.052 44.5714 146.052 44.7013C146.052 45.4285 144.649 45.7402 144.649 46.3117C144.649 47.0389 146 47.3246 146 47.6623C146 47.7402 145.948 47.8182 145.792 47.8182Z" fill="#1F36C7"/>
<path fill-rule="evenodd" clip-rule="evenodd" d="M159.948 48.2858C160.415 48.2858 160.779 48.8832 160.779 49.5845C160.779 50.3377 160.415 51.1429 159.792 51.7143C159.792 50.4676 158.26 50.8572 158.26 49.9481C158.26 49.5585 158.545 49.2988 158.883 49.2988C159.169 49.2988 159.402 49.3767 159.584 49.5585C159.428 49.4027 159.325 49.1689 159.325 48.9611C159.325 48.6234 159.532 48.2858 159.948 48.2858Z" fill="#1F36C7"/>
<path fill-rule="evenodd" clip-rule="evenodd" d="M141.558 49.5585C141.429 49.5844 141.325 49.6104 141.247 49.6883C141.169 49.4026 140.909 49.1429 140.545 49.2208C140.234 49.2727 140 49.5585 140.052 49.9221C140.052 49.974 140.078 50.052 140.104 50.1039C140.104 50.1039 140.052 50.1039 140 50.1299C139.74 50.1818 139.429 50.4416 139.48 50.8312C139.532 51.1688 139.818 51.4026 140.156 51.3766C140.286 51.3507 140.39 51.3247 140.467 51.2727C140.545 51.5844 140.805 51.7662 141.143 51.7403C141.48 51.6883 141.714 51.4026 141.688 51.065C141.688 50.9611 141.662 50.9091 141.636 50.8572H141.714C142.052 50.7792 142.286 50.5195 142.26 50.1818C142.156 49.7662 141.87 49.5065 141.558 49.5585ZM140.883 50.8312C140.675 50.8572 140.519 50.7013 140.493 50.5195C140.467 50.3117 140.597 50.1299 140.805 50.1039C141.013 50.0779 141.169 50.2338 141.195 50.4156C141.221 50.6234 141.091 50.8052 140.883 50.8312Z" fill="#1F36C7"/>
<path fill-rule="evenodd" clip-rule="evenodd" d="M158.39 48C158.39 47.8701 158.701 47.5585 158.701 47.4546C158.701 47.4286 158.675 47.4026 158.649 47.4026C158.52 47.4026 158.078 47.7403 157.429 47.7403C157.169 47.7403 156.987 47.7143 156.987 47.5065C156.987 47.3247 157.143 47.1688 157.403 47.0649C157.688 46.9351 158.26 46.9351 158.26 46.8052C158.26 46.7013 157.714 46.7013 157.714 46.5974C157.714 46.4675 157.922 46.1559 157.922 46.026C157.922 46.026 157.922 45.974 157.896 45.974C157.792 45.974 157.533 46.2857 157.377 46.2857C157.221 46.2857 157.091 45.8961 156.961 45.8961C156.935 45.8961 156.883 45.9221 156.883 46C156.883 46.1559 156.961 46.4416 156.961 46.8312C156.961 47.1688 156.779 47.4546 156.597 47.4546C156.364 47.4546 156.286 47.1688 156.286 46.9351C156.286 46.5974 156.468 46.2078 156.468 45.8442C156.468 45.7662 156.442 45.7403 156.39 45.7403C156.26 45.7403 156.052 46.1299 155.896 46.1299C155.792 46.1299 155.61 45.6624 155.455 45.6624C155.429 45.6624 155.403 45.7403 155.403 45.8442C155.403 45.974 155.429 46.1559 155.429 46.2338C155.429 46.3377 155.299 46.3637 155.143 46.3637C155.039 46.3637 154.831 46.3637 154.831 46.4416C154.831 46.5195 155.039 46.5974 155.221 46.7273C155.559 46.9611 156.104 47.1948 156.104 47.7403C156.104 48.2338 155.403 48.5714 154.909 48.6753C154.675 48.7013 154.442 48.7533 154.442 48.8312C154.442 48.9351 155.065 48.9611 155.065 49.0909C155.065 49.1688 154.779 49.5325 154.779 49.6364C154.779 49.6624 154.805 49.6624 154.805 49.6624C154.909 49.6624 155.221 49.4026 155.351 49.4026C155.533 49.4026 155.507 49.9481 155.636 49.9481C155.792 49.9481 155.74 49.1429 155.792 48.9351C155.896 48.5714 156.156 48.2078 156.39 48.2078C156.675 48.2078 156.701 48.7013 156.701 48.9351C156.701 49.4026 156.364 49.8961 156.364 50.1299C156.364 50.1559 156.39 50.1818 156.416 50.1818C156.52 50.1818 156.753 49.8701 156.883 49.8701C157.013 49.8701 157.299 50.3896 157.403 50.3896C157.455 50.3896 157.481 50.3377 157.481 50.2857C157.481 50.1299 157.403 49.8701 157.403 49.7143C157.403 49.5325 158 49.6364 158 49.5065C158 49.4546 157.74 49.3507 157.585 49.2468C157.247 49.039 156.857 48.5974 156.857 48.2338C156.857 48.1039 156.935 48 157.039 48C157.766 48 158.078 49.1169 158.208 49.1169C158.338 49.1169 158.26 48.6234 158.312 48.5455C158.338 48.5195 158.416 48.4935 158.494 48.4935C158.623 48.4935 158.779 48.5195 158.883 48.5195C158.961 48.5195 158.987 48.5195 158.987 48.4935C158.961 48.3377 158.39 48.1559 158.39 48Z" fill="#1F36C7"/>
<path fill-rule="evenodd" clip-rule="evenodd" d="M155.507 47.6883C155.507 47.4545 154.494 46.6753 154.286 46.6753C154.234 46.6753 154.208 46.7013 154.208 46.7532C154.208 46.8311 154.234 46.935 154.234 47.013C154.234 47.1948 154.156 47.2208 153.974 47.2208C153.766 47.2208 153.429 47.1428 153.429 46.8052C153.429 46.1558 154.675 46.3117 154.805 45.7143C154.26 45.7143 154 45.3506 153.636 45.3506C153.507 45.3506 153.247 45.4285 153.247 45.7662C153.247 45.8701 153.273 46.0519 153.273 46.2078C153.273 46.3636 153.247 46.4675 153.065 46.4675C152.909 46.4675 152.883 46.2857 152.883 46.0779C152.883 45.8961 152.909 45.6883 152.909 45.5584C152.909 44.5974 151.844 44.987 151.74 44.2078C151.481 44.6753 151.403 45.013 151.403 45.2987C151.403 46.3117 152.779 46.2078 152.779 46.9091C152.779 47.0909 152.649 47.1948 152.52 47.1948C152.286 47.1948 152.13 46.7013 151.766 46.7013C151.585 46.7013 151.455 46.8311 151.455 47.1169C151.455 47.3246 151.507 47.4805 151.507 47.6883C151.507 48.1039 151.325 48.2857 151.143 48.4675C152.39 48.3636 152.468 47.4285 152.831 47.4285C152.935 47.4285 152.987 47.5065 152.987 47.5584C152.987 47.7143 152.727 47.974 152.727 48.2337C152.727 48.5714 153.117 48.7532 153.377 48.7532C153.688 48.7532 153.792 48.6493 153.792 48.4415C153.792 48.2078 153.377 47.8961 153.377 47.6363C153.377 47.5065 153.507 47.4805 153.688 47.4805C154.078 47.4805 154.208 47.5324 154.208 47.6104C154.208 47.7143 154.052 47.922 154.052 47.974C154.052 48 154.078 48.0779 154.156 48.0779C154.442 48.1298 155.507 47.8961 155.507 47.6883Z" fill="#1F36C7"/>
<path fill-rule="evenodd" clip-rule="evenodd" d="M142.39 44.1818C142.208 44.5194 142.156 44.961 142.156 45.2207C142.156 46.8051 144.052 48.2857 144.052 49.2727C144.052 49.6623 143.766 50.1298 143.247 50.1298C142.779 50.1298 142.52 49.7662 142.52 49.4545C142.52 49.2207 142.676 49.0129 142.753 49.0129C142.779 49.0129 142.779 49.0389 142.779 49.0909C142.779 49.2207 142.883 49.4025 143.091 49.3766C143.299 49.3766 143.403 49.2467 143.403 49.0649C143.403 48.2857 141.844 46.935 141.844 45.0909C141.766 45.2986 141.663 45.5584 141.663 45.948C141.663 46.8311 142.312 47.7662 142.312 48.6233C142.312 48.961 142.052 49.2727 141.715 49.2727C141.325 49.2727 141.195 48.961 141.195 48.7792C141.195 48.6493 141.247 48.5194 141.299 48.5194C141.351 48.5194 141.325 48.7272 141.533 48.7272C141.766 48.7272 141.844 48.5714 141.844 48.2857C141.844 47.5064 141.403 46.961 141.403 46.1558C141.403 46.0259 141.403 45.896 141.429 45.7922C141.195 46.0779 141.169 46.4935 141.169 46.8571V47.8181C141.169 48.4675 140.857 48.7532 140.468 48.7532C140.208 48.7532 139.974 48.5454 139.974 48.2077C139.974 48.1558 140 47.9999 140.052 47.9999C140.13 47.9999 140.182 48.2077 140.39 48.2077C140.805 48.2077 140.831 47.8181 140.831 47.0129C140.779 46.0259 141.143 44.961 142.39 44.1818Z" fill="#1F36C7"/>
<path fill-rule="evenodd" clip-rule="evenodd" d="M139.818 43.7142C139.948 43.7142 140 43.8441 140 43.948C140 44.3896 139.429 45.6883 139.429 46.0519C139.429 46.1038 139.455 46.1558 139.506 46.1558C139.74 46.1558 140.208 45.1428 140.364 44.6493C140.442 44.3896 140.571 44.2597 140.675 44.2597C140.779 44.2597 140.857 44.3636 140.857 44.5714C140.857 45.0649 140.39 46.2597 139.974 47.0389C139.662 47.6623 139.143 48.5454 139.143 49.0389C139.143 49.2986 139.195 49.5584 139.558 49.8701C138.961 49.8441 138.701 49.7662 138.467 49.3246C137.455 51.2986 140.338 51.1168 139.351 52.8831C139.169 52.5714 137.74 52.2337 137.74 50.3896C137.74 48.8051 139.169 47.8701 139.169 47.1948C139.169 47.0649 139.117 46.961 138.987 46.8571C138.675 46.5973 138.675 46.3896 138.416 46.3896C138.234 46.3896 138.026 46.8051 138.234 47.1688C138.312 47.2986 138.364 47.3766 138.364 47.4805C138.364 47.7402 137.948 48.4415 137.662 48.4415C137.377 48.4415 137.143 47.7142 137.143 46.5714C137.143 45.5584 137.377 44.5194 137.662 44.5194C137.74 44.5194 137.766 44.5714 137.766 44.6493C137.766 44.7792 137.74 45.0129 137.74 45.4285C137.74 45.8701 137.844 45.896 137.922 45.896C138.234 45.896 138.182 43.948 138.701 43.948C138.831 43.948 138.857 44.0779 138.857 44.2077C138.857 44.6493 138.649 45.2986 138.649 45.6363C138.649 45.8181 138.701 45.8701 138.779 45.8701C139.039 45.8441 139.429 43.7142 139.818 43.7142Z" fill="#1F36C7"/>
<path fill-rule="evenodd" clip-rule="evenodd" d="M160.935 46.2598C160.494 46.2598 160.26 47.039 159.818 47.065C160.078 45.9481 161.195 45.3507 161.195 44.3117C161.195 43.1169 160.208 42.7013 159.792 42.4416C159.117 41.4546 158.623 40.6754 157.507 40.6754C157.039 40.6754 156.727 40.7533 156.416 40.7533C155.792 40.7533 155.585 40.5195 155.559 40.5195C155.559 40.5195 155.533 40.5195 155.533 40.5715C155.533 41.4546 156 43.4286 157.974 43.4286C159.039 43.4286 159.481 43.013 159.74 43.013C160 43.013 160.857 43.2988 160.857 44.3117C160.857 44.8572 160.416 45.4286 160.26 45.4286C160.104 45.4286 159.948 45.1689 159.948 44.9091C159.948 44.6234 160.104 44.078 160.104 43.7403C160.104 43.6104 160.078 43.5585 160 43.5585C159.844 43.5585 159.039 44.078 159.039 44.7013C159.039 45.2468 159.844 45.5845 160.156 45.7403C159.844 46.2338 159.662 46.5715 159.533 47.039C159.533 46.6754 159.195 45.9741 159.091 45.6624C158.598 44.2598 158.416 44.0001 157.351 43.8702C157.507 44.4416 159.325 45.7923 159.325 47.1689C159.325 47.2468 159.325 47.3767 159.299 47.4286C158.753 45.8182 157.818 45.4286 157.481 45.039C156.935 44.4156 157.247 43.8182 156.364 43.4806C156.416 43.5585 156.442 43.6624 156.442 43.7403C156.442 44.052 156.286 44.4156 156.286 44.6754C156.286 45.6624 157.403 45.3507 158.078 45.8962C158.727 46.4156 159.091 47.2728 159.351 48.2338C159.611 47.8182 159.766 47.2988 160.208 47.2988C160.494 47.2988 160.598 47.6624 160.598 47.9481V48.078C161.039 47.6884 161.273 47.065 161.273 46.6494C161.247 46.4416 161.143 46.2598 160.935 46.2598ZM159.169 42.5975C159.065 42.5975 158.909 42.5455 158.779 42.5455C158.468 42.5455 158.234 42.9871 158.078 42.9871C158.026 42.9871 158 42.9351 158 42.8832C158 42.7013 158.312 42.4936 158.312 42.3637C158.312 42.2858 158.182 42.2598 158.13 42.2598C157.818 42.2598 157.377 42.7013 157.117 42.7013C157.065 42.7013 157.013 42.6754 157.013 42.6234C157.013 42.4936 157.351 42.3377 157.351 42.2078C157.351 42.078 157.221 42.078 157.117 42.078C156.961 42.078 156.649 42.1559 156.468 42.1559C156.364 42.1559 156.286 42.1299 156.286 42.052C156.286 41.8702 156.883 41.9741 156.883 41.7663C156.883 41.6624 156.701 41.4546 156.701 41.3507C156.701 41.2988 156.753 41.2728 156.805 41.2728C157.013 41.2728 157.247 41.8702 157.481 41.8702C157.585 41.8702 157.611 41.7923 157.611 41.6624C157.611 41.5325 157.585 41.4806 157.585 41.3767C157.585 41.2728 157.636 41.2468 157.662 41.2468C157.818 41.2468 157.948 42.078 158.39 42.078C158.572 42.078 158.442 41.5585 158.624 41.5585C158.727 41.5585 158.753 41.7143 158.753 41.7923C158.805 42.3377 159.299 42.3637 159.299 42.5715C159.273 42.5455 159.247 42.5975 159.169 42.5975Z" fill="#1F36C7"/>
<path fill-rule="evenodd" clip-rule="evenodd" d="M152.961 41.3767C153.169 41.3767 153.325 41.5325 153.325 41.7143C153.325 41.8962 153.169 42.052 152.961 42.052C152.779 42.052 152.597 41.8962 152.597 41.7143C152.597 41.5325 152.779 41.3767 152.961 41.3767ZM155.351 44.6494C155.169 44.6494 154.987 44.8052 154.987 44.9871C154.987 45.1949 155.169 45.3247 155.351 45.3247C155.558 45.3247 155.714 45.1689 155.714 44.9611C155.714 44.7793 155.558 44.6494 155.351 44.6494ZM154.156 44.0001C153.792 44.0001 153.506 44.2858 153.506 44.6234C153.506 44.9611 153.792 45.2468 154.156 45.2468C154.519 45.2468 154.805 44.9611 154.805 44.6234C154.805 44.2858 154.519 44.0001 154.156 44.0001ZM153.013 43.7143C152.805 43.7143 152.649 43.8702 152.649 44.078C152.649 44.2858 152.831 44.4416 153.013 44.4416C153.221 44.4416 153.377 44.2858 153.377 44.078C153.377 43.8702 153.221 43.7143 153.013 43.7143ZM155.299 44.2858C155.532 44.2858 155.74 44.1039 155.74 43.8702C155.74 43.6364 155.532 43.4546 155.299 43.4546C155.065 43.4546 154.857 43.6364 154.857 43.8702C154.857 44.078 155.065 44.2858 155.299 44.2858ZM151.922 42.9611C151.636 42.9611 151.377 43.1949 151.377 43.4806C151.377 43.7663 151.61 44.0001 151.922 44.0001C152.208 44.0001 152.467 43.7663 152.467 43.4806C152.442 43.1949 152.208 42.9611 151.922 42.9611ZM153.87 43.3507C153.87 43.5585 154.026 43.7143 154.234 43.7143C154.442 43.7143 154.597 43.5585 154.597 43.3507C154.597 43.1429 154.442 42.9871 154.234 42.9871C154.026 42.9871 153.87 43.1689 153.87 43.3507ZM153.143 43.4546C153.455 43.4546 153.714 43.2208 153.714 42.9091C153.714 42.5975 153.455 42.3637 153.143 42.3637C152.831 42.3637 152.571 42.5975 152.571 42.9091C152.571 43.1949 152.805 43.4546 153.143 43.4546ZM155.221 43.091C155.429 43.091 155.61 42.9091 155.61 42.7013C155.61 42.4936 155.429 42.3117 155.221 42.3377C155.013 42.3377 154.831 42.5195 154.831 42.7273C154.831 42.9351 155.013 43.091 155.221 43.091ZM152.078 42.5715C152.286 42.5715 152.442 42.4156 152.442 42.2078C152.442 42.0001 152.286 41.8442 152.078 41.8442C151.87 41.8442 151.714 42.0001 151.714 42.2078C151.688 42.4156 151.87 42.5715 152.078 42.5715ZM154.208 42.5455C154.545 42.5455 154.805 42.2858 154.805 41.9741C154.805 41.6624 154.545 41.4026 154.208 41.4026C153.87 41.4026 153.61 41.6624 153.61 41.9741C153.61 42.2858 153.87 42.5455 154.208 42.5455ZM154.649 41.1949C154.857 41.1949 155.013 41.039 155.013 40.8572C155.013 40.6754 154.857 40.5195 154.649 40.5195C154.442 40.5195 154.286 40.6754 154.286 40.8572C154.312 41.065 154.467 41.1949 154.649 41.1949Z" fill="#1F36C7"/>
<path fill-rule="evenodd" clip-rule="evenodd" d="M144.156 41.6624C144.39 41.6624 144.805 42.052 144.909 42.4676C144.857 42.4676 144.805 42.4416 144.779 42.4416C144.468 42.4416 144.312 42.7273 144.078 43.2208C144.623 42.8572 145.117 42.5715 145.688 42.5715C146.182 42.5715 146.571 42.8572 146.571 43.2987C146.571 43.4805 146.468 43.6883 146.364 43.8961C146.286 43.4805 145.948 43.2987 145.351 43.2987C145.013 43.2987 144.597 43.3507 144.26 43.4806C145.325 43.6364 145.48 44 145.48 44.3377C145.48 44.9091 144.883 45.1948 144.493 45.3767C144.519 45.2208 144.571 45.039 144.571 44.8572C144.571 44.5195 144.442 44.1039 143.896 43.7403C143.818 44.1039 143.506 44.3377 143.506 44.6234C143.506 44.7273 143.584 44.7793 143.636 44.7793C143.636 44.9351 143.558 45.4026 143.558 45.5325C143.558 45.7663 143.61 45.8182 143.74 45.8442C143.818 46.052 143.818 46.4156 143.87 46.5974C143.896 46.7013 143.974 46.7273 144.052 46.7273C144.13 46.9091 144.234 47.1948 144.39 47.2987C144.416 47.3247 144.468 47.4026 144.468 47.4546C144.468 47.6104 144.208 47.7922 144.052 47.7922C144 47.7922 143.922 47.7663 143.844 47.5844C143.792 47.4546 143.325 47.1689 143.299 47.013C143.325 46.987 143.351 46.9351 143.351 46.8572C143.351 46.5974 142.935 46.3117 142.935 45.8961C142.987 45.8702 143.039 45.7922 143.039 45.7143C143.039 45.4805 142.805 45.039 142.805 44.7273C142.909 44.7273 142.961 44.7273 142.961 44.5715C142.987 44.2598 143.039 43.8182 143.325 43.5585C143.247 43.5585 143.169 43.5325 143.065 43.5325C142.493 43.5325 141.636 43.8442 141.299 44.5715C141.273 44.4676 141.273 44.3637 141.273 44.2598C141.273 43.6624 141.636 43.2728 141.922 43.1429C142.052 43.0909 142.234 43.065 142.416 43.065C142.727 43.065 143.065 43.1169 143.429 43.1948C143.117 42.7793 142.623 42.4935 142.208 42.4935C142.026 42.4935 141.87 42.5455 141.818 42.7013C141.792 42.6234 141.792 42.4935 141.792 42.3896C141.792 41.9481 141.948 41.6883 142.338 41.6883C142.909 41.6883 143.429 42.3637 143.714 42.987V42.9091C143.714 42.026 143.74 41.5844 144.104 41.5585L144.156 41.6624Z" fill="#1F36C7"/>
<path fill-rule="evenodd" clip-rule="evenodd" d="M136.935 43.143C136.935 43.8443 137.169 44.1819 137.558 44.1819C137.87 44.1819 138.286 43.9741 138.779 43.5586C138.39 43.6365 138.104 43.6884 137.844 43.6884C137.506 43.6884 137.221 43.5586 136.935 43.143ZM139.636 42.1819C139.403 42.2339 138.961 42.4936 138.961 42.9612C138.961 43.2988 139.221 43.5066 139.558 43.5066C139.74 43.5066 139.87 43.4806 139.948 43.4027C139.688 43.143 139.584 42.8832 139.584 42.5975C139.584 42.4157 139.61 42.2858 139.636 42.1819ZM140.442 41.4287C140.234 41.6625 140 42.078 140 42.4936C140 42.9871 140.312 43.4027 140.805 43.4027C141.273 43.4027 141.506 43.0131 141.506 42.6235C141.532 42.0001 140.935 41.5586 140.442 41.4287ZM137.273 42.3118V42.4417C137.273 42.8832 137.506 43.117 137.844 43.117C138.078 43.117 138.364 42.9871 138.623 42.6754C138.519 42.7014 138.39 42.7014 138.286 42.7014C137.896 42.7274 137.506 42.6235 137.273 42.3118ZM139.195 39.9222C138.883 39.9222 138.493 39.9482 138.078 40.2079C137.247 40.7274 137.351 41.5586 137.221 41.7923C137.195 41.8183 137.195 41.8443 137.195 41.8962C137.195 41.9742 137.299 42.078 137.377 42.078C137.455 42.078 137.506 42.0521 137.532 42.0521C137.766 42.0521 138.026 42.2079 138.416 42.2079C138.649 42.2079 138.909 42.13 139.221 41.9741C139.922 41.6365 140.182 40.8053 140.182 40.6754C140.182 40.4936 140.026 40.5196 139.922 40.3638C139.792 40.2079 139.844 40.0521 139.766 39.9741C139.714 39.9222 139.584 39.9222 139.403 39.9222H139.195ZM138.623 41.7664C138.312 41.7664 137.948 41.3767 137.948 41.0391C137.948 40.8573 138.104 40.6235 138.208 40.6235C138.234 40.6235 138.26 40.6495 138.286 40.7274C138.338 41.169 138.649 41.4287 138.935 41.5586C138.961 41.5845 138.987 41.5845 138.987 41.6105C138.961 41.6884 138.779 41.7664 138.623 41.7664ZM139.766 40.9092C139.766 41.0391 139.688 41.1949 139.532 41.1949C139.195 41.1949 138.935 40.7014 138.909 40.4157C138.909 40.2339 139.013 40.2339 139.169 40.2339C139.247 40.2339 139.273 40.2339 139.325 40.2599C139.403 40.3118 139.403 40.4936 139.506 40.6235C139.584 40.7274 139.766 40.8313 139.766 40.9092ZM140.494 40.4936C140.494 40.7014 140.675 40.8573 140.883 40.8573C141.091 40.8573 141.273 40.7014 141.273 40.4936C141.273 40.2858 141.091 40.13 140.883 40.13C140.675 40.104 140.494 40.2858 140.494 40.4936ZM140.364 40.0261C140.571 40.0261 140.753 39.8703 140.753 39.6625C140.753 39.4547 140.571 39.2988 140.364 39.2988C140.156 39.2988 139.974 39.4547 139.974 39.6625C140 39.8443 140.156 40.0261 140.364 40.0261ZM137.74 39.8443C138.078 39.8443 138.364 39.6365 138.364 39.6365C137.792 39.4806 137.481 39.091 137.481 38.5456V38.3897C137.117 38.5456 136.961 38.8313 136.961 39.117C136.987 39.5586 137.325 39.8443 137.74 39.8443ZM139.429 39.4287C139.481 39.2729 139.506 39.091 139.506 38.8832C139.506 38.4417 139.299 37.7664 138.623 37.7664C138.234 37.7664 137.974 38.0521 137.974 38.3897C138 39.143 138.779 39.4287 139.429 39.4287Z" fill="#1F36C7"/>
<path fill-rule="evenodd" clip-rule="evenodd" d="M160.779 39.1948C160.364 40.026 159.325 40.2078 158.987 40.1559C159.091 41.013 160.364 42.1559 160.702 42.1299C160.935 42.1039 161.013 41.013 161.013 40.1559C161.013 39.6624 161.039 39.2728 160.779 39.1948ZM160.805 38.3896C160.805 38.078 160.676 37.8442 160.312 37.7922C160.364 37.8702 160.39 37.9481 160.39 38.078C160.39 38.5715 159.663 39.1169 158.857 39.1169C158.572 39.1169 158.468 39.3247 158.494 39.4286C158.494 39.6883 158.727 39.7922 159.065 39.7922C159.974 39.7663 160.805 39.039 160.805 38.3896Z" fill="#1F36C7"/>
<path fill-rule="evenodd" clip-rule="evenodd" d="M158.857 38.7793C159.221 38.7793 160 38.4676 160 38.052C160 37.9221 159.948 37.7922 159.74 37.7922C159.455 37.7922 159.065 38.078 158.675 38.078C158.546 38.078 158.39 38.078 158.234 38.026C158.39 38.1299 158.364 38.3896 158.442 38.5715C158.572 38.7792 158.727 38.7793 158.857 38.7793Z" fill="#1F36C7"/>
<path fill-rule="evenodd" clip-rule="evenodd" d="M153.974 38.9869C153.974 39.8181 153.403 40.1558 152.883 40.1558C152.753 40.1558 152.65 40.1298 152.546 40.0778C152.65 39.974 152.753 39.8181 152.753 39.7142C152.753 39.6363 152.702 39.6103 152.624 39.6103C152.572 39.6103 152.442 39.6363 152.338 39.6363C152.078 39.6363 151.87 39.5324 151.637 39.2986C151.481 39.5324 151.403 39.8441 151.403 40.1558C151.403 40.6493 151.585 41.1428 151.792 41.1688C151.896 41.1688 151.896 40.8311 152.078 40.8311C152.13 40.8311 152.338 40.9869 152.779 40.9869C153.429 40.9869 154.156 40.5973 154.156 39.5843C154.13 39.4545 154.078 39.1428 153.974 38.9869Z" fill="#1F36C7"/>
<path fill-rule="evenodd" clip-rule="evenodd" d="M152.494 38.4676C152.624 38.4676 152.883 38.5195 152.961 38.6494C152.858 38.7013 152.754 38.8312 152.754 38.9351C152.754 38.987 152.78 39.039 152.832 39.065C153.065 39.1689 153.195 39.3507 153.273 39.5065C153.689 39.2728 153.845 38.6234 153.845 38.2598C153.845 38.1559 153.845 38 153.741 38C153.663 38 153.585 38.1039 153.481 38.1039C153.403 38.1039 153.169 37.7922 152.598 37.7922C151.948 37.7922 151.663 38.2857 151.663 38.7013C151.663 38.8052 151.689 38.9351 151.715 39.013C151.845 38.7533 152.104 38.4676 152.494 38.4676Z" fill="#1F36C7"/>
<path fill-rule="evenodd" clip-rule="evenodd" d="M145.922 39.013C145.455 39.013 145.039 39.4026 144.727 39.9221C144.753 39.8182 144.753 39.7143 144.753 39.6104C144.753 38.8831 144.364 38.2598 143.662 38.2598C143.091 38.2598 142.545 38.5974 142.338 39.2728C142.39 39.2208 142.597 39.0909 142.753 39.0909C142.935 39.0909 142.987 39.2468 142.987 39.5065C142.987 39.6624 142.961 39.8702 142.883 40.052C142.779 40.3637 142.571 40.4416 142.468 40.4416C142.026 40.4416 142.234 39.6883 142 39.6883C141.818 39.6883 141.766 40.1039 141.766 40.2598C141.766 40.7792 142.104 41.3247 142.857 41.3247C143.662 41.3247 144.104 40.9351 144.571 40.4416C144.675 40.987 144.961 41.9481 145.766 41.9481C146.208 41.9481 146.519 41.5844 146.545 41.1429C146.494 41.1948 146.416 41.2468 146.312 41.2468C146.156 41.2468 146.104 41.013 146.104 40.8052C146.104 40.4676 146.208 40.1039 146.364 40.1039C146.442 40.1039 146.494 40.1559 146.519 40.4156C146.545 40.5974 146.519 40.8312 146.649 40.8312C146.779 40.8312 146.831 40.4416 146.831 40.2078C146.805 39.5325 146.519 38.987 145.922 39.013ZM143.247 40.7792C143.169 40.7792 143.143 40.7013 143.143 40.6494C143.143 40.2857 143.532 38.6753 143.818 38.6753C143.87 38.6753 143.896 38.7273 143.896 38.8052C143.896 39.0909 143.558 40.7792 143.247 40.7792ZM144.442 40.0779C144.208 40.3377 144.078 40.4676 143.974 40.4676C143.922 40.4676 143.87 40.3637 143.87 40.2598C143.87 40.0779 144 39.3247 144.286 39.3247C144.39 39.3247 144.468 39.5325 144.468 39.7143C144.468 39.8702 144.468 39.9741 144.442 40.0779ZM144.987 40.7273C144.909 40.7273 144.831 40.5715 144.831 40.2598C144.987 40 145.065 39.8961 145.169 39.8961C145.195 39.8961 145.247 39.9221 145.247 40.0779C145.221 40.4156 145.091 40.7273 144.987 40.7273ZM145.455 41.2728C145.403 41.2728 145.351 41.1948 145.351 40.987C145.351 40.4935 145.662 39.5844 145.844 39.5844C145.896 39.5844 145.922 39.7143 145.922 39.8442C145.948 40.3896 145.688 41.2728 145.455 41.2728Z" fill="#1F36C7"/>
<path fill-rule="evenodd" clip-rule="evenodd" d="M157.377 37.9482C157.195 37.9482 156.909 38.156 156.701 38.156C156.415 38.156 156.493 37.7664 156.182 37.7664C156.104 37.7664 156.026 37.7923 155.948 37.8443C155.299 38.1819 154.779 38.0521 154.675 38.13C154.649 38.156 154.623 38.156 154.623 38.2339C154.623 38.9612 155.351 40.0521 156.545 40.0521C157.377 40.0521 158.052 39.7664 158.052 39.2728C158.026 38.8573 157.636 37.9482 157.377 37.9482ZM156.623 39.3508C155.948 39.3508 155.532 38.9612 155.532 38.7274C155.532 38.7014 155.558 38.6754 155.584 38.6754C155.688 38.6754 155.974 38.8313 156.364 38.8832C156.805 38.9612 157.039 38.9612 157.169 38.9612C157.299 38.9612 157.351 38.9871 157.351 39.0391C157.325 39.169 157.013 39.3508 156.623 39.3508Z" fill="#1F36C7"/>
<path fill-rule="evenodd" clip-rule="evenodd" d="M161.013 33.5845C160.545 33.5845 160.493 33.4546 160.182 33.4546C159.818 33.4546 159.558 33.7143 159.558 34.1039C159.558 34.2338 159.61 34.4416 159.61 34.7013C159.61 35.013 159.558 35.3247 159.273 35.3247C159.013 35.3247 158.909 35.1429 158.909 34.9351C158.909 34.5715 159.091 34.3117 159.091 34.078C159.091 33.6364 158.571 33.5065 158 33.5065C157.325 33.5065 156.597 33.6884 156.597 33.7923C156.597 33.9481 157.558 33.8442 158.26 34.7533C157.818 34.7533 156.961 34.9611 156.961 35.091C156.961 35.2468 158.519 35.4026 158.519 36.052C158.519 36.4676 158.182 36.5195 158.052 36.5195C157.532 36.5195 157.273 35.9741 157.143 35.9741C157.117 35.9741 157.065 36 157.065 36.052C157.065 36.1299 157.143 36.3637 157.143 36.5974C157.143 37.1949 156.493 37.2468 156.493 37.3767C156.493 37.4286 156.519 37.4286 156.597 37.4546C157.065 37.5325 157.558 37.5585 158 37.5585C159.662 37.5585 160.987 37.039 160.987 35.5845C160.987 34.7793 160.727 34.5195 160.727 34.1299C160.675 34 160.779 33.7143 161.013 33.5845ZM158.701 36.7533H158.364C159.428 36.5715 160.026 35.9481 160.026 35.1169C160.26 35.1948 160.415 35.4286 160.415 35.6884C160.39 36.1819 159.948 36.7533 158.701 36.7533ZM160.182 34.2338C160.052 34.2338 159.948 34.1299 159.948 34C159.948 33.8702 160.052 33.7663 160.182 33.7663C160.312 33.7663 160.415 33.8702 160.415 34C160.415 34.1299 160.312 34.2338 160.182 34.2338Z" fill="#1F36C7"/>
<path fill-rule="evenodd" clip-rule="evenodd" d="M154.545 33.2727C153.922 33.2727 153.455 33.5843 153.195 33.5843C153.039 33.5843 152.831 33.2207 152.701 33.2207C152.649 33.2207 152.597 33.3246 152.597 33.4804V33.5324C152.597 33.6623 152.571 33.896 152.493 33.896C152.26 33.896 151.377 33.2727 151.377 33.4804C151.377 33.6882 151.974 34.3376 151.974 34.4934C151.974 34.6493 151.403 34.8051 151.403 34.935C151.403 35.1428 152.026 35.1688 152.026 35.4285C152.026 35.6882 151.377 35.896 151.377 36.0778C151.377 36.2337 152.026 36.1298 152.026 36.3116C152.026 36.4934 151.558 37.1428 151.558 37.3246C151.558 37.3765 151.558 37.3765 151.61 37.3765C151.792 37.3765 152.338 36.7791 152.467 36.7791C152.623 36.7791 152.649 37.1428 152.675 37.3506C152.701 37.4545 152.701 37.4804 152.753 37.4804C152.857 37.4804 153.039 37.0649 153.169 37.0649C153.351 37.0649 153.818 37.5584 154.623 37.5584C155.766 37.5584 156.831 36.7791 156.831 35.4025C156.857 34.0519 155.87 33.2727 154.545 33.2727ZM152.961 36.2337C152.935 36.2337 152.909 36.2077 152.909 36.1558L152.883 35.7921C152.883 35.7662 152.857 35.7142 152.805 35.7142H152.416C152.364 35.7142 152.338 35.7142 152.338 35.6882C152.338 35.6103 152.727 35.3506 152.727 35.2986C152.727 35.1947 152.364 35.0129 152.364 34.883C152.364 34.8571 152.39 34.8571 152.416 34.8571C152.519 34.8571 152.701 34.883 152.831 34.883C152.961 34.883 152.961 34.3636 153.065 34.3636C153.143 34.3636 153.247 34.8571 153.351 34.8571C153.48 34.8571 153.688 34.7272 153.792 34.7272C153.818 34.7272 153.818 34.7272 153.818 34.7532C153.818 34.8051 153.584 35.0649 153.584 35.1428C153.584 35.2207 154.104 35.3246 154.104 35.4025C154.104 35.5064 153.558 35.4804 153.558 35.5584C153.558 35.6103 153.766 35.8701 153.766 35.9739C153.766 35.9999 153.766 35.9999 153.74 35.9999C153.662 35.9999 153.377 35.8701 153.299 35.8701C153.195 35.8701 153.039 36.2337 152.961 36.2337ZM154.571 37.0389C153.922 37.0389 153.48 36.7272 153.48 36.5454C153.48 36.4675 153.532 36.4155 153.61 36.4155C153.818 36.4155 154.26 36.7272 154.416 36.7272C154.442 36.7272 154.493 36.7012 154.493 36.6493C154.493 36.4934 154.338 36.2077 154.338 36.0778C154.338 36.0519 154.364 36.0259 154.416 36.0259C154.675 36.0259 155.039 36.1298 155.247 36.1298C155.325 36.1298 155.325 36.1038 155.325 36.0519C155.325 35.8441 154.701 35.4545 154.701 35.3246C154.701 35.2207 155.455 35.0389 155.455 34.883C155.455 34.7012 154.416 34.8311 154.416 34.6493C154.416 34.5194 154.623 34.3116 154.623 34.2077C154.623 34.1558 154.597 34.1558 154.519 34.1558C154.442 34.1558 153.974 34.3376 153.792 34.3376C153.688 34.3376 153.584 34.3116 153.584 34.1817C153.584 33.9739 153.948 33.7402 154.519 33.7402C155.455 33.7402 156 34.3636 156 35.4025C156.026 36.7012 155.091 37.0389 154.571 37.0389Z" fill="#1F36C7"/>
<path fill-rule="evenodd" clip-rule="evenodd" d="M144.701 35.9221C145.065 35.9221 146.156 36.4156 146.649 36.4156C146.831 36.4156 146.935 36.3117 146.935 36.2078C146.935 35.6363 145.402 34.6234 145.376 34.2078C145.376 34.1558 145.402 34.1298 145.428 34.1039C145.688 33.8182 146.779 33.6363 146.779 33.4026C146.779 33.2727 146.545 33.2727 146.441 33.2727C145.558 33.2727 144.286 33.5844 144.286 33.8961C144.286 34.2078 145.428 34.987 145.428 35.3766C145.428 35.4805 145.351 35.5065 145.247 35.5065C144.935 35.5065 144.234 35.1169 143.896 35.1169C143.74 35.1169 143.688 35.2208 143.688 35.3766C143.688 35.8182 144.234 36.6753 144.234 36.935C144.234 36.961 144.234 37.013 144.182 37.013C144 37.013 143.221 36.0779 142.935 36.0779C142.831 36.0779 142.831 36.2078 142.831 36.4156V36.7273C142.831 36.935 142.831 37.0649 142.727 37.0649C142.493 37.0649 142.364 36.3896 142.13 36.3896C141.896 36.3896 141.844 37.6104 141.61 37.6104C141.325 37.6104 141.558 36.2857 141.299 36.2857C141.013 36.2857 140.675 37.1688 140.467 37.1688C140.389 37.1688 140.364 37.0909 140.364 37.0389C140.364 36.7792 140.519 36.3376 140.519 36.0779C140.519 35.948 140.493 35.8701 140.364 35.8701C140.078 35.8701 139.428 36.3376 139.195 36.3376C139.169 36.3376 139.117 36.3117 139.117 36.2857C139.117 36.0519 140.156 35.3506 140.156 35.0389C140.156 34.7273 138.727 34.935 138.727 34.5714C138.727 34.2857 139.74 33.974 139.74 33.6623C139.74 33.4026 138.545 33.2727 138.078 33.2727C137.532 33.2727 137.221 33.3506 137.221 33.5065C137.221 33.7402 138.493 33.8182 138.493 34.026C138.493 34.2337 137.169 34.7792 137.169 35.0909C137.169 35.3766 139.013 35.1169 139.013 35.4026C139.013 35.7143 137.402 37.0909 137.402 37.5584C137.402 37.6623 137.48 37.7143 137.584 37.7143C138.078 37.7143 139.351 36.7792 139.688 36.7792C139.818 36.7792 139.818 36.935 139.818 37.0649C139.818 37.2987 139.74 37.6883 139.74 37.948C139.74 38.1558 139.792 38.3117 139.974 38.3117C140.312 38.3117 140.649 37.7143 140.883 37.7143C141.195 37.7143 141.013 39.4286 141.454 39.4286C141.844 39.4286 142 37.5584 142.234 37.5584C142.467 37.5584 142.675 38.1039 142.909 38.1039C143.195 38.1039 143.065 37.1688 143.351 37.1688C143.688 37.1688 144.623 38.2857 145.065 38.2857C145.195 38.2857 145.247 38.1818 145.247 38.0519C145.247 37.5584 144.545 36.4415 144.545 36.0779C144.571 35.948 144.597 35.9221 144.701 35.9221Z" fill="#1F36C7"/>
<path fill-rule="evenodd" clip-rule="evenodd" d="M145.299 36.5714C145.273 36.5714 145.247 36.5974 145.247 36.6234C145.247 36.961 146.441 38.5455 146.649 38.5455C146.831 38.5455 146.987 38.2078 146.987 37.9481C146.987 37.8701 146.961 37.7922 146.935 37.7403C146.753 37.4805 145.558 36.5714 145.299 36.5714ZM138.312 35.6623C138.312 35.5844 138.156 35.5584 138.026 35.5584C137.818 35.5584 137.532 35.6104 137.403 35.7143C137.299 35.7922 137.221 36.052 137.221 36.2338C137.221 36.3377 137.247 36.4416 137.351 36.4416C137.584 36.4675 138.312 35.8442 138.312 35.6623ZM140 34.4935C140.208 34.4935 140.545 34.3896 140.779 34.3896C140.909 34.3896 141.039 34.4156 141.039 34.5455C141.039 34.7792 140.519 35.1948 140.519 35.3766C140.519 35.4286 140.571 35.4546 140.623 35.4546C140.805 35.4546 141.143 34.987 141.428 34.987C141.922 34.987 141.61 36.052 141.87 36.052C142.156 36.052 142.026 35.013 142.441 35.013C142.779 35.013 143.013 35.7403 143.247 35.7403C143.299 35.7403 143.351 35.6883 143.351 35.6364C143.351 35.4286 143.065 35.039 143.065 34.7792C143.065 34.6234 143.169 34.5455 143.325 34.5455C143.532 34.5455 143.844 34.6753 144 34.6753C144.052 34.6753 144.104 34.6494 144.104 34.5974C144.104 34.3636 143.273 34.1299 143.273 33.8442C143.273 33.5584 143.74 33.5584 143.74 33.4286C143.74 33.3766 143.454 33.3247 143.065 33.3247C142.441 33.3247 142.545 33.8182 142.052 33.8182C141.558 33.8182 141.688 33.2987 141.065 33.2987C140.675 33.2987 140.338 33.3766 140.338 33.4545C140.338 33.5584 140.779 33.5065 140.779 33.8182C140.779 34.1558 139.818 34.2338 139.818 34.4416C139.818 34.4675 139.896 34.4935 140 34.4935ZM145.948 34.3636C145.948 34.5195 146.545 34.8831 146.805 34.8831C146.961 34.8831 147.013 34.6753 147.013 34.4416C147.013 34.1558 146.883 34.1558 146.649 34.1558C146.338 34.1558 145.948 34.2338 145.948 34.3636Z" fill="#1F36C7"/>
</g>
<defs>
<clipPath id="clip0_291_7950">
<rect width="57.1429" height="40" fill="white" transform="translate(121.429 30)"/>
</clipPath>
</defs>
</svg>
