<svg width="300" height="100" viewBox="0 0 300 100" fill="none" xmlns="http://www.w3.org/2000/svg">
<rect width="300" height="100" fill="white"/>
<g clip-path="url(#clip0_291_7996)">
<path d="M131.203 39.4392C130.239 39.3458 129.301 39.5738 128.359 39.7037C128.278 39.6168 128.35 39.5523 128.383 39.4972C130.671 35.7523 133.832 33.2009 138.211 32.3243C139.753 32.0102 141.337 31.9553 142.897 32.1617C143.525 32.2467 144.094 32.0159 144.689 31.928C145.258 31.8439 145.37 31.928 145.084 32.4252C144.523 33.4009 144.862 34.3542 145.02 35.3224C145.296 37.0078 145.586 38.6916 145.888 40.3738C145.943 40.686 145.879 40.9234 145.654 41.128C145.224 41.5196 144.855 42.0149 144.135 41.7766C143.667 41.6234 143.308 41.4346 143.294 40.8766C143.287 40.7519 143.241 40.6324 143.162 40.5355C142.529 39.8084 141.908 39.0673 141.141 38.472C140.688 38.1196 140.427 38.1682 140.103 38.6514C139.736 39.1981 139.534 39.8234 139.297 40.4318C138.737 41.8663 138.185 43.3019 137.272 44.5645C137.091 44.8149 136.912 44.9262 136.583 44.8944C135.333 44.7646 134.076 44.7296 132.821 44.7897C132.847 44.9626 132.96 44.9579 133.07 44.972C134.305 45.1234 135.537 45.2822 136.772 45.4308C137.745 45.5486 138.361 46.5691 137.965 47.4561C137.181 49.1662 136.305 50.832 135.338 52.4458C135.216 52.6634 135.036 52.8431 134.819 52.9654C134.303 53.252 133.79 53.5442 133.279 53.842C133.076 53.9607 132.942 53.9355 132.839 53.7093C132.602 53.1984 132.513 52.631 132.582 52.072C132.628 51.7065 133.23 51.4177 133.675 51.5159C134.227 51.6402 134.479 51.4336 134.456 50.8617C134.445 50.5925 134.575 50.3822 134.705 50.1729C135.149 49.4607 135.605 48.7561 136.05 48.0439C136.143 47.8916 136.319 47.7271 136.198 47.5411C136.078 47.3551 135.857 47.4112 135.677 47.4271C134.846 47.5 134.035 47.5617 133.247 47.942C131.908 48.5869 130.443 48.8495 128.977 49.0523C127.072 49.3149 125.137 49.2906 123.218 49.6785C123.279 48.8093 123.36 47.972 123.212 47.0439C122.987 47.3168 122.972 47.5486 122.946 47.7701C122.623 50.5467 121.089 52.557 118.902 54.1477C117.572 55.1041 116.067 55.7892 114.473 56.1635C113.358 56.4355 112.562 57.0495 112.01 58.0579C111.383 59.2047 110.896 60.4234 110.247 61.5533C109.567 62.7364 108.523 63.4934 107.145 63.7084C106.442 63.8177 106.33 63.6748 106.537 62.9925C106.622 62.7121 106.732 62.4318 106.831 62.157C107.055 61.5234 107.342 60.9888 108.172 61.0916C108.485 61.1308 108.654 60.9047 108.765 60.6065C109.401 58.8869 110.063 57.1776 110.694 55.4561C110.738 55.3089 110.817 55.1743 110.923 55.0635C111.03 54.9527 111.161 54.8688 111.307 54.8187C112.054 54.5383 112.802 54.2776 113.525 53.9663C114.776 53.4327 115.133 52.8449 115.046 51.5028C114.974 50.371 114.832 49.2402 115.073 48.1112C115.554 45.8486 117.036 44.3925 118.963 43.3047C120.688 42.3327 122.582 41.8336 124.477 41.342C126.553 40.8087 128.629 40.2713 130.703 39.7299C130.879 39.6841 131.05 39.6234 131.222 39.5701L131.203 39.4392Z" fill="#03B1F0"/>
<path d="M150.211 59.9141C152.396 59.9141 154.104 61.5963 154.088 63.7244C154.071 65.8804 152.342 67.5561 150.151 67.5403C147.986 67.5244 146.307 65.8702 146.305 63.7496C146.303 61.5889 148.016 59.9066 150.211 59.9141ZM147.975 63.6851C147.969 65.0496 148.903 66.0608 150.178 66.0702C151.48 66.0795 152.432 65.0973 152.432 63.7421C152.432 62.4113 151.456 61.3851 150.189 61.3786C148.897 61.372 147.98 62.329 147.975 63.6851Z" fill="#06B4F1"/>
<path d="M135.583 61.1421C136.079 60.5 136.63 60.0832 137.377 59.9524C138.961 59.672 140.32 60.658 140.401 62.2636C140.475 63.7206 140.436 65.1842 140.424 66.6449C140.424 67.1328 140.09 67.4094 139.607 67.4057C139.123 67.4019 138.794 67.115 138.774 66.5954C138.751 65.9748 138.767 65.3524 138.766 64.7262C138.766 64.1823 138.777 63.6374 138.759 63.0944C138.725 62.0271 138.162 61.4206 137.222 61.4197C136.255 61.4197 135.588 62.0739 135.565 63.1159C135.539 64.2496 135.565 65.3851 135.552 66.5197C135.548 67.0804 135.255 67.387 134.747 67.3991C134.238 67.4113 133.9 67.1187 133.897 66.6187C133.884 64.6761 133.884 62.7331 133.897 60.7898C133.893 60.5844 133.97 60.3857 134.11 60.236C134.251 60.0863 134.444 59.9976 134.65 59.9888C134.861 59.9727 135.071 60.0372 135.237 60.1692C135.403 60.3013 135.513 60.4912 135.545 60.701C135.565 60.8206 135.566 60.9346 135.583 61.1421Z" fill="#06B4F1"/>
<path d="M157.65 61.1158C158.405 60.1308 159.341 59.7467 160.511 59.9813C161.609 60.2018 162.403 61.0663 162.436 62.1943C162.478 63.685 162.458 65.1775 162.45 66.6691C162.45 67.1214 162.121 67.4242 161.681 67.4364C161.576 67.4419 161.471 67.4267 161.372 67.3914C161.272 67.3562 161.181 67.3017 161.103 67.2312C161.025 67.1606 160.961 67.0752 160.916 66.9801C160.871 66.8849 160.845 66.7818 160.84 66.6766C160.808 66.0878 160.829 65.4962 160.823 64.9009C160.817 64.2177 160.843 63.5317 160.788 62.8523C160.716 61.9663 160.193 61.4775 159.357 61.4233C158.521 61.3691 157.887 61.8448 157.675 62.6635C157.54 63.185 157.615 63.7149 157.606 64.2411C157.593 64.9887 157.606 65.7364 157.601 66.4785C157.601 67.0663 157.255 67.442 156.75 67.4317C156.267 67.4233 155.937 67.0579 155.936 66.4887C155.929 64.671 155.936 62.8523 155.936 61.0345C155.936 60.3738 156.223 60.0065 156.736 59.9869C157.25 59.9672 157.558 60.313 157.607 60.9691C157.617 61.0191 157.631 61.0682 157.65 61.1158Z" fill="#05B3F1"/>
<path d="M129.954 66.3794C129.805 66.4037 129.762 66.5158 129.695 66.5944C128.911 67.5289 127.759 67.6719 126.671 67.3224C125.701 67.0102 125.123 66.0654 125.115 64.8925C125.105 63.5551 125.109 62.2168 125.115 60.8794C125.115 60.3186 125.417 59.999 125.912 59.9934C126.425 59.9878 126.759 60.3233 126.765 60.8887C126.776 61.8841 126.765 62.8794 126.765 63.8794C126.765 64.0663 126.765 64.2532 126.778 64.4401C126.844 65.4336 127.41 65.9925 128.34 65.9878C129.27 65.9831 129.929 65.3673 129.96 64.4121C129.995 63.2616 129.977 62.1102 129.975 60.9542C129.975 60.5028 130.134 60.1542 130.587 60.0196C131.148 59.8523 131.635 60.242 131.638 60.8607C131.646 62.743 131.646 64.6252 131.638 66.5074C131.638 67.0523 131.325 67.4102 130.857 67.4317C130.389 67.4532 130.055 67.1299 129.977 66.5906C129.971 66.5252 129.963 66.4542 129.954 66.3794Z" fill="#06B4F1"/>
<path d="M103.711 52.6841C103.603 52.2139 103.631 51.7228 103.79 51.2673C104.588 48.7682 106.432 47.4972 108.876 46.929C109.762 46.7234 110.662 46.7056 111.563 46.728C112.708 46.7561 113.83 46.6729 114.877 46.1523C114.977 46.1028 115.095 46.0393 115.181 46.1252C115.287 46.2308 115.156 46.3206 115.103 46.4056C114.819 46.8141 114.59 47.2581 114.422 47.7262C114.334 47.9869 114.108 48.0579 113.908 48.1617C111.882 49.2103 109.72 49.8645 107.505 50.3813C106.732 50.5626 105.975 50.786 105.272 51.1664C104.612 51.5049 104.068 52.0336 103.711 52.6841Z" fill="#05B3F1"/>
<path d="M140.11 45.5925C139.785 45.6205 139.448 45.6028 139.138 45.686C138.543 45.8486 138.142 45.5551 137.736 45.2075C137.62 45.1084 137.636 45.042 137.699 44.9383C137.821 44.7392 137.941 44.5402 138.055 44.3374C138.606 43.3617 138.606 43.3589 139.729 43.4962C140.408 43.5785 141.085 43.6691 141.763 43.757C142.49 43.8504 143.057 44.7682 142.763 45.4439C142.07 47.0594 141.244 48.6145 140.293 50.0934C139.872 50.7411 139.058 50.9476 138.396 51.3084C138.255 51.386 138.179 51.228 138.129 51.1168C137.924 50.6775 137.845 50.1899 137.901 49.7084C137.944 49.3691 138.443 49.1028 138.859 49.1757C139.41 49.2691 139.573 49.1392 139.579 48.5682C139.579 48.3355 139.693 48.1514 139.808 47.9682C140.203 47.3355 140.61 46.7112 141.002 46.0766C141.254 45.6691 141.2 45.5822 140.716 45.5738C140.608 45.5738 140.499 45.5785 140.39 45.5832C140.296 45.5832 140.203 45.5953 140.109 45.6018L140.11 45.5925Z" fill="#06B4F1"/>
<path d="M165.844 61.6384C166.548 60.6795 167.433 60.0496 168.659 60.057C169.525 60.0538 170.358 60.3935 170.975 61.0019C172.359 62.3309 172.47 64.7757 171.208 66.2309C170.741 66.7748 170.163 67.1739 169.459 67.3234C168.789 67.4837 168.087 67.4437 167.44 67.2084C166.768 66.9514 166.288 66.4542 165.736 65.9542C165.736 66.2271 165.736 66.5 165.736 66.7729C165.736 67.0253 165.759 67.3206 165.393 67.3066C165.076 67.2944 165.07 67.0318 165.071 66.786C165.071 65.9776 165.071 65.1692 165.071 64.3561C165.071 62.5206 165.071 60.6854 165.071 58.8505C165.071 58.7262 165.071 58.6019 165.076 58.4767C165.089 58.2795 165.196 58.1468 165.395 58.1449C165.623 58.1449 165.717 58.2841 165.718 58.5094C165.718 59.3645 165.728 60.2197 165.734 61.0748C165.734 61.2412 165.734 61.4075 165.734 61.5739L165.844 61.6384ZM171.352 63.7384C171.341 61.9627 170.174 60.6926 168.564 60.7028C166.953 60.7131 165.701 62.0561 165.707 63.7673C165.712 65.4785 166.992 66.8 168.604 66.7982C170.231 66.7963 171.364 65.5374 171.352 63.7384Z" fill="#0AB8F2"/>
<path d="M178.972 66.1299C177.791 67.5411 176.192 67.6253 175.002 67.186C174.02 66.8224 173.535 66.0925 173.555 65.1299C173.574 64.2103 174.106 63.5066 175.07 63.1673C176.228 62.7533 177.406 62.8692 178.565 63.1253C178.916 63.2019 178.988 63.1383 178.977 62.7963C178.941 61.6159 178.201 60.8458 176.981 60.757C176.233 60.7029 175.484 60.8346 174.799 61.1402C174.578 61.2337 174.332 61.358 174.21 61.0467C174.089 60.7355 174.348 60.6467 174.568 60.5561C175.503 60.171 176.474 60.0066 177.486 60.1879C178.751 60.415 179.58 61.3094 179.614 62.5916C179.652 64.0206 179.626 65.4524 179.63 66.8823C179.63 67.1056 179.583 67.3075 179.323 67.3196C179.034 67.3337 178.968 67.1271 178.972 66.8813C178.972 66.6608 178.972 66.4486 178.972 66.1299ZM177.103 63.5196C176.278 63.5038 175.72 63.5196 175.199 63.7682C174.638 64.0337 174.291 64.458 174.27 65.1028C174.248 65.7636 174.55 66.2449 175.13 66.5281C176.105 67.0038 177.065 66.8813 177.976 66.3496C178.83 65.8514 179.058 65.0496 178.996 64.1131C178.98 63.8776 178.903 63.7888 178.684 63.7393C178.068 63.6159 177.456 63.5206 177.095 63.5196H177.103Z" fill="#0AB8F2"/>
<path d="M193.056 63.8477C192.51 64.3823 191.992 64.8963 191.467 65.4009C191.327 65.5355 191.306 65.6897 191.309 65.8682C191.309 66.2262 191.309 66.5841 191.309 66.9411C191.309 67.1636 191.216 67.301 190.978 67.2963C190.741 67.2916 190.65 67.1524 190.648 66.9337C190.648 66.871 190.648 66.8094 190.648 66.7467C190.648 64.0869 190.648 61.4268 190.648 58.7664C190.642 58.6576 190.645 58.5485 190.657 58.4402C190.662 58.3609 190.697 58.2865 190.756 58.2328C190.814 58.1791 190.891 58.1503 190.971 58.1523C191.014 58.1486 191.058 58.1544 191.098 58.1693C191.139 58.1842 191.176 58.2079 191.207 58.2386C191.237 58.2694 191.261 58.3065 191.275 58.3473C191.29 58.3881 191.295 58.4316 191.291 58.4748C191.298 58.7393 191.308 59.0028 191.308 59.2673C191.308 60.9009 191.308 62.5346 191.308 64.1682V64.6281C191.531 64.6028 191.602 64.4486 191.703 64.3477C192.906 63.1097 194.107 61.8689 195.305 60.6252C195.391 60.5318 195.48 60.4486 195.565 60.358C195.72 60.1907 195.908 60.1028 196.093 60.2701C196.294 60.4524 196.175 60.6337 196.02 60.7907C195.54 61.2785 195.058 61.7645 194.58 62.2542C194.233 62.6103 193.653 62.9458 193.611 63.3365C193.564 63.7692 194.159 64.1449 194.473 64.5458C195.02 65.243 195.584 65.9271 196.145 66.614C196.3 66.801 196.465 67.0346 196.25 67.2243C196.015 67.4327 195.802 67.2514 195.629 67.0374C194.775 65.9654 193.912 64.9047 193.056 63.8477Z" fill="#0AB8F2"/>
<path d="M182.687 61.3271C183.455 60.3635 184.413 59.9532 185.612 60.0785C186.976 60.2196 187.963 61.1813 188.017 62.5523C188.074 63.9962 188.038 65.4439 188.044 66.8897C188.044 67.1158 187.993 67.299 187.716 67.2943C187.415 67.2887 187.378 67.0822 187.378 66.8439C187.378 65.6464 187.378 64.4489 187.378 63.2513C187.384 63.0184 187.372 62.7853 187.342 62.5542C187.142 61.3196 186.266 60.6121 185.024 60.6682C183.754 60.7252 182.747 61.6887 182.703 62.9626C182.663 64.1429 182.691 65.3252 182.689 66.5074C182.689 66.6317 182.689 66.756 182.689 66.8813C182.689 67.1037 182.636 67.2887 182.362 67.2953C182.088 67.3018 182.014 67.1364 182.012 66.9037C182.012 66.8411 182.012 66.7794 182.012 66.7168V60.7915C182.012 60.714 182.012 60.6364 182.012 60.5588C182.024 60.3532 182.093 60.185 182.334 60.185C182.596 60.185 182.677 60.3616 182.683 60.5859C182.693 60.8308 182.687 61.0785 182.687 61.3271Z" fill="#0AB8F2"/>
<path d="M144.357 63.7122C144.357 64.6467 144.357 65.5757 144.357 66.5075C144.357 67.0879 144.09 67.3841 143.579 67.4047C143.048 67.4253 142.706 67.1243 142.701 66.5468C142.687 64.6527 142.687 62.758 142.701 60.8626C142.706 60.3215 143.062 59.9879 143.536 59.9916C144.035 59.9916 144.351 60.3449 144.355 60.9168C144.362 61.8486 144.357 62.7804 144.357 63.7122Z" fill="#06B4F1"/>
<path d="M112.824 60.6692C112.637 60.6944 112.53 60.5365 112.637 60.2131C112.74 59.9047 112.859 59.601 112.961 59.2916C113.124 58.7916 113.391 58.4505 113.989 58.4804C114.302 58.4963 114.509 58.315 114.568 57.9907C114.746 57.0066 115.289 56.3692 116.28 56.1094C116.589 56.029 116.865 55.829 117.158 55.6841C117.238 55.6439 117.322 55.5654 117.412 55.6374C117.503 55.7094 117.439 55.8066 117.399 55.8851C116.838 56.9935 116.371 58.1654 115.623 59.1505C114.986 59.9823 114.112 60.5851 112.824 60.6692Z" fill="#06B4F1"/>
</g>
<defs>
<clipPath id="clip0_291_7996">
<rect width="93.4579" height="40" fill="white" transform="translate(103.271 30)"/>
</clipPath>
</defs>
</svg>
