<svg width="300" height="100" viewBox="0 0 300 100" fill="none" xmlns="http://www.w3.org/2000/svg">
<rect width="300" height="100" fill="white"/>
<path d="M151.466 65.0175C151.716 64.8925 158.215 62.0804 160.278 60.3931C162.403 58.646 163.528 56.143 163.528 53.1434V39.0821L163.34 39.0196C158.153 36.2068 151.716 36.3943 151.404 36.3943C151.154 36.3943 144.717 36.2068 139.53 39.0196L139.405 39.0821V53.2059C139.405 56.2055 140.53 58.7058 142.654 60.4556C144.717 62.1429 151.216 64.9577 151.466 65.0175Z" fill="#341B14"/>
<path d="M151.466 65.3299C151.466 65.3299 144.592 62.3303 142.467 60.641C140.217 58.7663 139.155 56.2061 139.155 53.2663V38.6446C144.592 35.7069 151.466 35.9568 151.466 35.9568C151.466 35.9568 158.341 35.7069 163.778 38.6446V53.2059C163.778 56.143 162.715 58.7058 160.466 60.5805C158.341 62.3276 151.466 65.3299 151.466 65.3299ZM140.155 53.2683C140.155 56.018 141.155 58.2683 143.092 59.8306C144.839 61.2679 150.029 63.5801 151.466 64.205C152.904 63.5801 158.153 61.2054 159.841 59.8306C161.778 58.2683 162.778 55.9555 162.778 53.2683V38.8946C155.528 38.2072 146.904 38.5821 140.155 44.8313V53.2683Z" fill="#FFB406"/>
<path d="M158.403 51.2061C159.344 51.7685 159.715 52.1468 159.778 52.8309C159.778 53.5808 159.278 54.0182 158.466 54.0182C157.778 54.0182 156.965 53.6433 156.403 53.1447V55.1444C157.09 55.5194 157.903 55.8318 158.778 55.8318C160.903 55.8318 161.903 54.332 161.903 52.9572C161.965 51.7074 161.59 50.7075 159.778 49.6452C158.966 49.1452 158.341 48.8328 158.341 48.0829C158.341 47.333 159.028 47.0198 159.59 47.0198C160.34 47.0198 161.09 47.4573 161.528 47.8934V46.0186C161.153 45.7062 160.34 45.2687 159.153 45.3312C157.715 45.3937 156.215 46.3936 156.215 48.144C156.278 49.3313 156.653 50.2062 158.403 51.2061ZM151.028 55.7082C151.216 55.7707 151.528 55.8332 152.028 55.8332C154.466 55.8332 155.84 53.646 155.84 50.5214C155.84 47.3336 154.403 45.3964 151.841 45.3964C150.654 45.3964 149.716 45.6464 148.904 46.1463V60.2707H151.028V55.7082ZM151.028 47.2087C151.216 47.1462 151.528 47.0212 151.778 47.0212C153.028 47.0212 153.525 48.0217 153.525 50.4589C153.525 52.8336 152.901 53.9584 151.651 53.9584C151.415 53.9656 151.181 53.923 150.963 53.8334V47.206L151.028 47.2087ZM144.467 55.8305C145.779 55.8305 146.904 55.518 147.716 54.9569V45.5221H145.529V53.7058C145.279 53.8932 144.967 53.9557 144.529 53.9557C143.529 53.9557 143.404 53.0184 143.404 52.4559V45.5221H141.217V52.3309C141.217 54.6431 142.342 55.8305 144.467 55.8305ZM159.029 64.2695V65.7068H159.277V65.1431H159.344L159.719 65.7055H160.031C160.031 65.7055 159.656 65.1431 159.594 65.0806C159.781 65.0181 159.906 64.8931 159.906 64.7056C159.906 64.5182 159.781 64.2682 159.406 64.2682L159.029 64.2695ZM159.404 64.457C159.591 64.457 159.654 64.582 159.654 64.6445C159.654 64.7695 159.591 64.8944 159.341 64.8944H159.277V64.457H159.404Z" fill="#FFB406"/>
<path d="M160.404 64.955C160.404 65.1412 160.348 65.3232 160.245 65.478C160.141 65.6328 159.994 65.7534 159.822 65.8245C159.65 65.8956 159.461 65.914 159.278 65.8774C159.095 65.8409 158.928 65.7509 158.796 65.619C158.665 65.4871 158.576 65.3192 158.54 65.1365C158.504 64.9538 158.523 64.7645 158.595 64.5927C158.666 64.4209 158.787 64.2742 158.943 64.1712C159.098 64.0682 159.28 64.0136 159.466 64.0143C159.59 64.012 159.713 64.0348 159.828 64.0813C159.943 64.1278 160.048 64.1971 160.135 64.2849C160.223 64.3728 160.292 64.4775 160.338 64.5926C160.384 64.7078 160.406 64.831 160.404 64.955ZM159.466 63.7677C159.231 63.7677 159.002 63.8373 158.806 63.9678C158.611 64.0983 158.459 64.2837 158.369 64.5007C158.279 64.7176 158.256 64.9563 158.302 65.1867C158.347 65.417 158.461 65.6286 158.627 65.7946C158.793 65.9607 159.004 66.0737 159.235 66.1196C159.465 66.1654 159.704 66.1419 159.921 66.052C160.137 65.9621 160.323 65.8099 160.453 65.6147C160.584 65.4194 160.653 65.1899 160.653 64.955C160.653 64.3301 160.091 63.7677 159.466 63.7677Z" fill="#FFB406"/>
</svg>
