<svg width="300" height="100" viewBox="0 0 300 100" fill="none" xmlns="http://www.w3.org/2000/svg">
<rect width="300" height="100" fill="white"/>
<g clip-path="url(#clip0_298_9444)">
<path d="M164.434 41.9868C164.527 41.9882 164.619 42.0127 164.7 42.0579C164.782 42.1031 164.851 42.1678 164.902 42.2461C164.953 42.3244 164.983 42.414 164.991 42.5069C164.999 42.5999 164.984 42.6934 164.947 42.7792L155.91 64.0614L154.049 68.4473L152.189 64.0614L154.049 59.6788L160.475 44.5432C160.804 43.7701 161.356 43.1131 162.062 42.6575C162.768 42.2017 163.594 41.9681 164.434 41.9868Z" fill="black"/>
<path d="M155.911 64.061L154.05 68.4471L152.19 64.061L143.132 42.7237C143.095 42.6365 143.081 42.5417 143.09 42.4478C143.099 42.3537 143.132 42.2634 143.184 42.185C143.237 42.1065 143.308 42.0423 143.391 41.998C143.475 41.9537 143.568 41.9308 143.662 41.9313H143.779C144.597 41.9391 145.394 42.1855 146.074 42.6403C146.753 43.0951 147.285 43.7383 147.604 44.4912L154.05 59.6785L155.911 64.061Z" fill="black"/>
<path d="M217.824 41.9969H206.678C206.408 41.9969 206.188 42.216 206.188 42.4862V44.9324C206.188 45.2026 206.408 45.4217 206.678 45.4217H217.824C218.094 45.4217 218.313 45.2026 218.313 44.9324V42.4862C218.313 42.216 218.094 41.9969 217.824 41.9969Z" fill="black"/>
<path d="M209.749 43.4131V54.2661C209.752 56.2637 210.431 58.2014 211.673 59.7649C212.917 61.3284 214.652 62.426 216.597 62.8796C216.953 62.9633 217.316 63.0243 217.679 63.0622C217.759 63.0705 217.839 63.0617 217.916 63.0367C217.992 63.0117 218.062 62.9708 218.122 62.9169C218.181 62.863 218.229 62.797 218.261 62.7236C218.294 62.6501 218.31 62.5706 218.31 62.4902V60.1957C218.311 60.0586 218.262 59.9256 218.173 59.8216C218.084 59.7178 217.959 59.6499 217.824 59.6306C216.533 59.4442 215.353 58.799 214.5 57.813C213.646 56.8272 213.176 55.5667 213.176 54.2627V46.29C213.176 45.8636 213.083 45.4422 212.902 45.0557C212.722 44.6691 212.459 44.3267 212.133 44.0525C211.806 43.7784 211.424 43.5791 211.012 43.4685C210.599 43.3581 210.168 43.3392 209.749 43.4131Z" fill="black"/>
<path d="M140.644 42.097C140.719 42.097 140.793 42.1118 140.862 42.1406C140.931 42.1693 140.994 42.2115 141.047 42.2647C141.1 42.3178 141.141 42.3809 141.17 42.4503C141.198 42.5196 141.212 42.5939 141.212 42.6689V54.2695C141.208 56.267 140.529 58.2043 139.286 59.7677C138.042 61.3311 136.308 62.4289 134.363 62.883L133.942 62.9726C133.088 63.1242 132.213 63.1242 131.358 62.9726L130.938 62.883C128.992 62.4289 127.257 61.3314 126.013 59.7681C124.77 58.2047 124.09 56.2672 124.085 54.2695V42.6689C124.085 42.5172 124.145 42.3717 124.252 42.2645C124.36 42.1572 124.505 42.097 124.657 42.097H126.945C127.02 42.096 127.095 42.1102 127.165 42.1385C127.235 42.1669 127.299 42.2089 127.352 42.2623C127.406 42.3155 127.448 42.3789 127.477 42.4487C127.506 42.5185 127.52 42.5934 127.52 42.6689V54.2695C127.522 55.3559 127.849 56.4167 128.459 57.3151C129.07 58.2137 129.936 58.9086 130.945 59.3102H130.962C132.052 59.7373 133.263 59.7373 134.352 59.3102H134.369C135.379 58.9086 136.245 58.2137 136.855 57.3151C137.465 56.4167 137.793 55.3559 137.794 54.2695V42.6689C137.794 42.5939 137.808 42.5196 137.836 42.4503C137.865 42.3809 137.907 42.3178 137.96 42.2647C138.012 42.2115 138.075 42.1693 138.144 42.1406C138.214 42.1118 138.288 42.097 138.363 42.097H140.644Z" fill="black"/>
<path d="M108.702 43.4059C108.282 43.332 107.851 43.3509 107.439 43.4614C107.027 43.5719 106.644 43.7713 106.317 44.0454C105.99 44.3195 105.728 44.6619 105.547 45.0485C105.367 45.435 105.274 45.8564 105.274 46.2829V54.2589C105.272 55.6474 104.739 56.9824 103.783 57.9898C102.828 58.9971 101.523 59.6002 100.136 59.6751V63.1205C100.717 63.1051 101.294 63.0301 101.859 62.8966C103.805 62.4442 105.542 61.3471 106.786 59.7834C108.03 58.2198 108.709 56.2813 108.712 54.283V43.4059H108.702ZM114.18 47.847C113.638 46.6401 112.943 45.5078 112.113 44.4774V54.2589C112.116 57.4263 110.889 60.4713 108.691 62.7519C106.859 64.6693 104.455 65.94 101.838 66.373C101.269 66.4669 100.693 66.5187 100.116 66.528V69.9665C100.692 69.9617 101.267 69.9214 101.838 69.8459C103.008 69.6999 104.157 69.4213 105.263 69.0156C108.281 67.9038 110.886 65.8926 112.725 63.2538C114.564 60.615 115.549 57.4754 115.548 54.2589C115.552 52.0488 115.086 49.8631 114.18 47.847Z" fill="#F9C625"/>
<path d="M107.651 44.7949C107.439 44.6193 107.182 44.5073 106.909 44.4721C106.637 44.437 106.36 44.48 106.11 44.5964C105.861 44.7126 105.65 44.8973 105.502 45.1288C105.354 45.3605 105.275 45.6294 105.273 45.9044V54.2594C105.272 55.6479 104.739 56.9829 103.783 57.9903C102.828 58.9976 101.523 59.6007 100.136 59.6756V63.121C100.717 63.1056 101.294 63.0305 101.859 62.8971C103.805 62.4447 105.542 61.3476 106.786 59.7839C108.03 58.2202 108.708 56.2818 108.712 54.2835V45.7699C108.377 45.4253 108.022 45.0998 107.651 44.7949Z" fill="#F9C625"/>
<path d="M105.273 47.2751V54.2589C105.272 55.6473 104.739 56.9824 103.783 57.9897C102.828 58.9971 101.523 59.6001 100.136 59.675V63.1205C100.717 63.105 101.294 63.0299 101.859 62.8965C103.489 62.5202 104.979 61.6891 106.156 60.4998C107.332 59.3103 108.147 57.8115 108.506 56.1774C108.864 54.5433 108.752 52.841 108.182 51.2681C107.611 49.6954 106.606 48.3167 105.284 47.2924L105.273 47.2751Z" fill="#F9C625"/>
<path d="M115.548 30V42.1932C115.547 42.276 115.528 42.3575 115.493 42.4322C115.457 42.5069 115.406 42.573 115.342 42.6258C115.279 42.6785 115.204 42.7168 115.124 42.7379C115.044 42.7592 114.961 42.7625 114.879 42.748L112.595 42.3448C112.463 42.3215 112.343 42.2524 112.257 42.1497C112.171 42.047 112.123 41.9173 112.123 41.7832V30H115.548Z" fill="#F9C625"/>
<path d="M115.548 44.6121V54.2592C115.555 57.8169 114.346 61.2702 112.123 64.0476V44.0092L115.548 44.6121Z" fill="#F9C625"/>
<path d="M108.702 30V40.9839C108.701 41.0673 108.683 41.1497 108.648 41.2253C108.612 41.3008 108.56 41.3677 108.496 41.4212C108.432 41.4747 108.358 41.5136 108.277 41.535C108.196 41.5565 108.112 41.5601 108.03 41.5455L106.779 41.325L105.745 41.1424C105.613 41.1203 105.492 41.0516 105.406 40.9486C105.319 40.8457 105.272 40.7153 105.273 40.5808V30H108.702Z" fill="#F9C625"/>
<path d="M108.702 43.4059V54.2589C108.701 55.6084 108.392 56.9397 107.798 58.1513C107.204 59.3629 106.34 60.4227 105.274 61.2497V46.2829C105.274 45.8564 105.368 45.435 105.548 45.0485C105.728 44.6619 105.991 44.3195 106.317 44.0454C106.644 43.7713 107.027 43.5719 107.439 43.4614C107.851 43.3509 108.282 43.332 108.702 43.4059Z" fill="#F9C625"/>
<path d="M105.274 65.2701C106.553 64.6347 107.713 63.7826 108.702 62.7515V67.2305C107.636 67.959 106.485 68.5538 105.274 69.0014V65.2701Z" fill="#F9C625"/>
<path d="M116.775 30H104.051C103.781 30 103.562 30.219 103.562 30.4892V32.9355C103.562 33.2057 103.781 33.4247 104.051 33.4247H116.775C117.045 33.4247 117.264 33.2057 117.264 32.9355V30.4892C117.264 30.219 117.045 30 116.775 30Z" fill="#F9C625"/>
<path d="M91.5711 43.4059V54.2589C91.5745 56.2572 92.2533 58.1956 93.4974 59.7593C94.7414 61.323 96.4776 62.4201 98.4241 62.8725C98.989 63.0059 99.5664 63.081 100.147 63.0964V59.651C98.7626 59.5789 97.4586 58.9804 96.5015 57.9778C95.5446 56.9754 95.0071 55.6448 94.9993 54.2589V46.2829C94.9992 45.8564 94.9058 45.435 94.7255 45.0485C94.5452 44.6619 94.2825 44.3195 93.9558 44.0454C93.629 43.7713 93.2463 43.5719 92.8343 43.4614C92.4224 43.3509 91.9912 43.332 91.5711 43.4059ZM84.7251 54.2589C84.7155 58.0788 86.1029 61.7702 88.6261 64.6381C91.1493 67.5058 94.6341 69.352 98.4241 69.8287C98.9952 69.9044 99.5706 69.9447 100.147 69.9493V66.5211C99.5694 66.5121 98.9936 66.4602 98.4241 66.3661C95.5574 65.8867 92.953 64.4079 91.0724 62.1919C89.1918 59.9757 88.1565 57.1654 88.1499 54.2589V44.4705C85.9278 47.2486 84.7197 50.7016 84.7251 54.2589Z" fill="#F9C625"/>
<path d="M84.7251 30V42.1932C84.7258 42.276 84.7446 42.3575 84.78 42.4322C84.8155 42.5069 84.8669 42.573 84.9305 42.6258C84.9942 42.6785 85.0686 42.7168 85.1485 42.7379C85.2285 42.7592 85.3121 42.7625 85.3935 42.748L87.6778 42.3448C87.8098 42.3215 87.9294 42.2524 88.0157 42.1497C88.102 42.047 88.1495 41.9173 88.1498 41.7832V30H84.7251Z" fill="#F9C625"/>
<path d="M84.7251 44.6121V54.2592C84.7183 57.8169 85.9265 61.2702 88.1499 64.0476V44.0092L84.7251 44.6121Z" fill="#F9C625"/>
<path d="M91.5718 30V40.9839C91.572 41.0673 91.5905 41.1497 91.6259 41.2253C91.6614 41.3008 91.7129 41.3677 91.7769 41.4212C91.8409 41.4747 91.9159 41.5136 91.9965 41.535C92.0771 41.5565 92.1615 41.5601 92.2436 41.5455L93.4943 41.325L94.5279 41.1424C94.6603 41.1196 94.7803 41.0507 94.8667 40.9479C94.953 40.8451 95.0003 40.7151 94.9999 40.5808V30H91.5718Z" fill="#F9C625"/>
<path d="M91.5718 43.4059V54.2589C91.5748 55.6098 91.8868 56.9421 92.484 58.1538C93.0812 59.3654 93.9477 60.4245 95.0171 61.2497V46.2829C95.0171 45.8564 94.9237 45.435 94.7433 45.0485C94.5631 44.6619 94.3004 44.3195 93.9736 44.0454C93.6469 43.7713 93.2641 43.5719 92.8522 43.4614C92.4402 43.3509 92.0091 43.332 91.589 43.4059H91.5718Z" fill="#F9C625"/>
<path d="M118.907 45.7829L118.508 48.0362C118.481 48.185 118.396 48.317 118.272 48.4035C118.148 48.4901 117.995 48.524 117.846 48.4979L115.548 48.0879L114.17 47.8467L112.102 47.5022L108.702 46.8819L105.553 46.3273C105.425 46.3057 105.294 46.328 105.181 46.3905C105.068 46.4532 104.979 46.5524 104.929 46.6719L101.849 53.9244L100.126 57.9589L98.4036 53.9244L95.3441 46.665C95.2949 46.5451 95.2063 46.4455 95.093 46.3829C94.9795 46.3202 94.8481 46.2982 94.7205 46.3204L91.5748 46.8819L88.1501 47.485L86.0829 47.8295L84.7047 48.0707L82.4204 48.4979C82.2715 48.524 82.1183 48.4901 81.9944 48.4035C81.8704 48.317 81.7858 48.185 81.7589 48.0362L81.3523 45.7829C81.3262 45.6341 81.3602 45.4809 81.4467 45.3569C81.5332 45.233 81.6653 45.1482 81.814 45.1215L84.715 44.6115L91.5645 43.4056L94.2071 42.937C95.0714 42.7856 95.9614 42.9314 96.7322 43.3505C97.503 43.7698 98.1092 44.4377 98.4519 45.2455L100.126 49.1835L101.801 45.2455C102.144 44.437 102.75 43.7686 103.522 43.3493C104.293 42.9302 105.184 42.7847 106.049 42.937L108.692 43.4056L115.538 44.6115L118.439 45.1215C118.513 45.1339 118.584 45.161 118.648 45.201C118.712 45.2411 118.767 45.2933 118.81 45.3548C118.854 45.4162 118.885 45.4857 118.901 45.5592C118.918 45.6326 118.92 45.7087 118.907 45.7829Z" fill="#F9C625"/>
<path d="M83.499 33.428H96.2229C96.4931 33.428 96.7121 33.209 96.7121 32.9388V30.4925C96.7121 30.2223 96.4931 30.0033 96.2229 30.0033H83.499C83.2288 30.0033 83.0098 30.2223 83.0098 30.4925V32.9388C83.0098 33.209 83.2288 33.428 83.499 33.428Z" fill="#F9C625"/>
<path d="M185.748 54.2452C185.89 54.2444 186.026 54.1917 186.131 54.0972C186.237 54.0025 186.304 53.8726 186.32 53.7318C186.363 53.3347 186.384 52.9357 186.385 52.5363C186.386 51.9592 186.34 51.3832 186.248 50.8135C186.053 49.6098 185.648 48.4494 185.052 47.3854C184.134 45.7357 182.791 44.3621 181.162 43.4072C179.533 42.4523 177.679 41.951 175.791 41.9555H175.718C173.223 41.9758 170.815 42.8767 168.919 44.4992C167.023 46.1216 165.761 48.3616 165.355 50.8239C165.171 51.9569 165.171 53.1122 165.355 54.2452C165.665 56.1415 166.487 57.9173 167.731 59.3819C168.975 60.8464 170.595 61.9444 172.416 62.5579C174.237 63.1715 176.19 63.2773 178.067 62.8641C179.944 62.4509 181.672 61.5343 183.067 60.2126C183.151 60.1327 183.208 60.029 183.231 59.9157C183.254 59.8022 183.241 59.6847 183.195 59.5786L182.385 57.6699L182.22 57.2806C182.182 57.1916 182.122 57.1138 182.046 57.0544C181.97 56.995 181.879 56.9559 181.784 56.9412C181.688 56.9264 181.591 56.9361 181.5 56.9695C181.409 57.0031 181.329 57.0591 181.265 57.1324C181.108 57.3206 180.94 57.4999 180.762 57.6699C180.285 58.1309 179.745 58.5239 179.16 58.8379C178.259 59.3182 177.265 59.5998 176.245 59.6639C175.225 59.7281 174.204 59.573 173.249 59.2095C172.294 58.8459 171.429 58.282 170.71 57.5559C169.991 56.8298 169.436 55.9581 169.083 54.9997C169.053 54.9138 169.044 54.8219 169.057 54.7319C169.07 54.6419 169.105 54.5563 169.158 54.4825C169.211 54.4086 169.281 54.3484 169.362 54.3071C169.443 54.2658 169.533 54.2446 169.624 54.2452H185.748ZM169.624 50.8239C169.533 50.8243 169.443 50.803 169.362 50.7616C169.281 50.7204 169.211 50.6604 169.157 50.5866C169.104 50.5128 169.069 50.4275 169.056 50.3374C169.042 50.2475 169.05 50.1556 169.079 50.0694C169.454 49.0576 170.052 48.1437 170.829 47.3957C171.685 46.5701 172.734 45.9711 173.879 45.6526C175.025 45.3341 176.232 45.3064 177.391 45.5717C178.551 45.8372 179.625 46.3875 180.518 47.1728C181.411 47.958 182.094 48.9536 182.506 50.0694C182.536 50.1558 182.544 50.2483 182.531 50.3389C182.518 50.4294 182.482 50.5155 182.429 50.5895C182.375 50.6636 182.304 50.7236 182.222 50.7644C182.14 50.8052 182.049 50.8256 181.958 50.8239H169.624Z" fill="black"/>
<path d="M204.419 58.7071C203.316 61.8493 199.719 63.2241 196.111 63.1171C192.232 63.3756 188.59 61.3498 187.498 57.9284C187.455 57.7841 187.471 57.6285 187.541 57.4957C187.613 57.3627 187.733 57.2632 187.877 57.2187L190.12 56.4401C190.194 56.4122 190.273 56.3994 190.353 56.4027C190.432 56.4059 190.51 56.4248 190.582 56.4585C190.654 56.4923 190.718 56.5399 190.771 56.599C190.825 56.6579 190.865 56.7268 190.892 56.8018C191.147 57.5906 191.636 58.2834 192.294 58.7884C192.951 59.2935 193.747 59.5871 194.575 59.6305C197.307 59.8235 199.939 59.658 200.949 57.7975C201.462 55.9542 199.546 55.1376 198.844 54.962L196.318 54.2729L192.49 53.2392C191.914 53.1015 191.364 52.8687 190.864 52.5502C188.552 51.0514 187.632 47.8885 188.973 45.4182C190.537 42.5999 192.976 42.0659 196.449 42.1141C200.584 42.0831 203.254 44.0504 204.253 47.3028C204.29 47.4434 204.272 47.593 204.203 47.721C204.134 47.8491 204.019 47.946 203.881 47.9919L201.597 48.774C201.521 48.8007 201.441 48.8121 201.361 48.8076C201.281 48.8031 201.203 48.7827 201.131 48.7478C201.059 48.7129 200.994 48.6641 200.941 48.6041C200.888 48.5442 200.847 48.4742 200.821 48.3985C200.346 46.8205 199.757 45.6043 196.435 45.525C193.948 45.6008 193.066 45.4734 192.166 46.9032C191.553 48.0127 192.098 49.6044 193.434 49.9179L196.184 50.6724L199.843 51.6716C200.476 51.8426 201.085 52.0927 201.655 52.4158C204.008 53.7733 205.079 56.1644 204.419 58.7071Z" fill="black"/>
<path d="M213.173 47.5716H209.749V40.6808C209.747 40.5763 209.775 40.4736 209.83 40.3842C209.884 40.2948 209.962 40.2222 210.055 40.1744L212.339 38.9857C212.426 38.9407 212.523 38.919 212.621 38.9226C212.719 38.9262 212.815 38.955 212.899 39.0063C212.983 39.0575 213.053 39.1294 213.1 39.2151C213.149 39.3008 213.173 39.3974 213.173 39.4956V47.5716Z" fill="black"/>
</g>
<defs>
<clipPath id="clip0_298_9444">
<rect width="136.97" height="40" fill="white" transform="translate(81.3438 30)"/>
</clipPath>
</defs>
</svg>
