<svg width="300" height="100" viewBox="0 0 300 100" fill="none" xmlns="http://www.w3.org/2000/svg">
<rect width="300" height="100" fill="white"/>
<g clip-path="url(#clip0_291_3335)">
<path d="M57.4575 31.3221C57.4575 31.4916 59.2541 36.7458 61.4914 42.9492C63.6948 49.1526 65.8982 55.4916 66.4067 57.0509L67.3558 59.8306H71.3897H75.4575L76.0677 58.3729C76.4067 57.5933 79.627 51.2543 83.1863 44.2712C86.7457 37.2882 89.6609 31.4577 89.6609 31.2882C89.6609 31.1526 88.0338 31.017 86.0338 31.017H82.3728L80.5084 35.017C79.4914 37.1865 77.1185 42.1695 75.2541 46.034L71.8304 53.1187L68.3728 42.4746C66.4745 36.6102 64.9151 31.6272 64.9151 31.4238C64.9151 31.1187 63.8304 31.017 61.1863 31.017C59.0846 31.017 57.4575 31.1526 57.4575 31.3221Z" fill="#FF0000"/>
<path d="M235.763 34.305V37.6271H231.593C227.796 37.661 227.288 37.7288 225.39 38.6101C221.864 40.2034 219.695 43.1525 218.813 47.4576C217.966 51.5254 219.22 56 221.796 58.1356C225.051 60.8135 230.508 60.8813 233.898 58.2711L235.085 57.3898V58.6101V59.8305H238.101H241.118L241.322 56.3389C241.424 54.4406 241.661 48.9152 241.864 44.0678C242.068 39.2203 242.339 34.305 242.44 33.1525L242.644 31.0169H239.186H235.763V34.305ZM234.712 42.4406C235.491 42.644 235.491 42.6779 235.254 46.0339C234.949 50.3389 234.305 52.5423 232.915 53.9322C231.457 55.3898 229.83 55.6949 227.898 54.8135C226 54 225.254 52.5423 225.254 49.7627C225.254 47.4576 226.068 45.5254 227.559 44.1356C229.152 42.6101 232.474 41.8305 234.712 42.4406Z" fill="#FF0000"/>
<path d="M92.8475 37.966C88.9831 38.644 89.0848 38.5762 88.8475 40.8813C88.7119 42.0338 88.678 43.0169 88.7458 43.0847C88.8136 43.1864 90.1017 42.9152 91.5594 42.5084C95.0848 41.5254 98.8136 41.4576 99.7967 42.3389C101.559 43.9321 100.17 45.1525 95.1865 46.4067C89.1865 47.9321 87.1187 49.1525 86.0679 51.8982C85.5594 53.2203 85.5594 53.6949 85.8984 55.1525C86.7458 58.8135 88.8814 60.1694 93.8645 60.1694C97.8306 60.1694 97.8984 60.1355 98.5085 57.7627C98.8136 56.644 98.9153 55.661 98.7797 55.5593C98.6441 55.4915 97.8306 55.5932 96.9831 55.7966C93.9323 56.5423 91.4238 55.1864 92.3051 53.2203C92.7797 52.2033 93.8306 51.661 97.0848 50.6779C98.4407 50.2711 99.7967 49.8643 100.102 49.7627C100.542 49.5932 100.576 50.0677 100.373 53.5932C100.237 55.7966 100.034 58.1355 99.9323 58.7118L99.7628 59.8305H103.186H106.61V57.5254C106.61 56.2711 106.78 52.2711 107.017 48.644C107.356 42.644 107.356 41.9321 106.848 40.8474C106.136 39.3898 104.576 38.2711 102.542 37.8304C100.509 37.3559 95.7967 37.4237 92.8475 37.966Z" fill="#FF0000"/>
<path d="M120.305 37.9322C119.525 38.1695 118.339 38.8135 117.661 39.322L116.441 40.2373L116.644 39.1864L116.881 38.1356H113.491H110.102L109.864 43.4576C109.661 48 109.186 55.7627 108.881 58.8135L108.813 59.661L112.237 59.7627L115.661 59.8644L115.898 54.6779C116.237 46.644 117.017 44.5084 120.034 43.3559C121.458 42.8135 121.729 42.8135 122.983 43.2542C125.797 44.2373 125.966 44.9491 125.491 54.3051L125.22 59.8305H128.576H131.966L132.203 51.5254C132.339 46.9491 132.373 42.7457 132.237 42.1695C131.932 40.644 130.813 39.2203 129.22 38.4068C127.424 37.4915 122.441 37.2203 120.305 37.9322Z" fill="#FF0000"/>
<path d="M143.22 37.8305C139.356 38.5763 135.763 41.5932 134.373 45.1864C133.492 47.4915 133.322 51.7288 134.034 54.1356C134.61 56.1017 136.407 58.2712 138.271 59.2203C140.034 60.1356 143.661 60.4068 145.763 59.8305C146.61 59.5932 147.932 58.9492 148.712 58.4068L150.102 57.3898L149.831 59.3898C149.492 62.1017 148.881 63.4237 147.559 64.2034C145.458 65.4915 143.831 65.4576 136.373 64L135.458 63.8305L135.661 66.3051C135.763 67.6949 136 68.9153 136.203 69.0169C136.78 69.4237 142.339 70 145.424 70C149.22 70 151.932 69.2542 153.661 67.7627C155.898 65.8644 156.136 64.7797 156.475 55.7627C156.644 51.3898 156.915 45.7627 157.119 43.2542C157.322 40.7797 157.424 38.6441 157.322 38.5763C157.254 38.5085 155.831 38.2034 154.203 37.9322C150.915 37.4237 145.627 37.3559 143.22 37.8305ZM149.424 42.5763L150.712 42.9153L150.508 45.6949C150.068 51.5593 149.186 53.6949 146.814 54.7797C145.085 55.5593 144.407 55.5593 142.678 54.7797C140.915 53.9661 140.17 52.4746 140.17 49.7627C140.203 46.339 142 43.6271 144.949 42.7119C146.78 42.1356 147.763 42.1017 149.424 42.5763Z" fill="#FF0000"/>
<path d="M188.78 37.966C184.915 38.644 185.017 38.5762 184.78 40.8813C184.644 42.0338 184.61 43.0169 184.678 43.0847C184.746 43.1864 186.034 42.9152 187.492 42.5084C191.017 41.5254 194.746 41.4576 195.729 42.3389C197.492 43.9321 196.102 45.1525 191.119 46.4067C185.119 47.9321 183.051 49.1525 182 51.8982C181.492 53.2203 181.492 53.6949 181.83 55.1525C182.678 58.8135 184.814 60.1694 189.797 60.1694C193.763 60.1694 193.83 60.1355 194.441 57.7627C194.746 56.644 194.847 55.661 194.712 55.5593C194.576 55.4915 193.763 55.5932 192.915 55.7966C189.864 56.5423 187.356 55.1864 188.237 53.2203C188.712 52.2033 189.763 51.661 193.017 50.6779C194.373 50.2711 195.729 49.8643 196.034 49.7627C196.475 49.5932 196.508 50.0677 196.305 53.5932C196.169 55.7966 195.966 58.1355 195.864 58.7118L195.695 59.8305H199.119H202.542V57.5254C202.542 56.2711 202.712 52.2711 202.949 48.644C203.288 42.644 203.288 41.9321 202.78 40.8474C202.068 39.3898 200.508 38.2711 198.475 37.8304C196.441 37.3559 191.729 37.4237 188.78 37.966Z" fill="#FF0000"/>
<path d="M214.78 37.7967C214.339 38.0001 213.559 38.4407 213.017 38.8475L212.034 39.5255V38.8475C212.034 38.1695 211.83 38.1357 208.881 38.1357H205.695L205.491 46.1695C205.356 50.6102 205.152 55.4916 205.051 57.017L204.813 59.8306H208.203H211.627L211.763 53.6272C211.932 47.0848 212.136 46.0679 213.627 44.5085C214.915 43.1526 216.542 42.7119 218.169 43.2204C218.915 43.4577 219.559 43.5933 219.661 43.5255C219.729 43.4238 219.695 42.0679 219.559 40.5085L219.322 37.6272L217.458 37.5594C216.441 37.5255 215.22 37.6272 214.78 37.7967Z" fill="#FF0000"/>
<path d="M159.356 39.8983C159.254 40.8813 159.084 44.8135 158.949 48.644C158.745 54.7118 158.779 55.7627 159.288 56.6779C160.576 59.1864 163.593 60.3728 167.932 60.0678C170.61 59.8983 172.237 59.322 173.627 58.0339L174.373 57.3559L174.169 58.6101L173.966 59.8305H177.22H180.44L180.644 56.7118C180.915 51.8644 181.525 39.7627 181.525 38.8813C181.525 38.1695 181.423 38.1356 178.305 38.1356C175.966 38.1356 175.084 38.2373 175.084 38.5423C175.051 38.7796 174.915 41.4915 174.745 44.5423C174.406 50.5762 173.864 52.4745 172 53.8305C170.712 54.7457 168.712 54.9152 167.288 54.1695C165.254 53.1186 165.084 52.3728 165.559 45.9661C165.762 42.8813 165.932 39.8305 165.932 39.2203V38.1356H162.745H159.559L159.356 39.8983Z" fill="#FF0000"/>
</g>
<defs>
<clipPath id="clip0_291_3335">
<rect width="185.085" height="40" fill="white" transform="translate(57.4575 30)"/>
</clipPath>
</defs>
</svg>
