<svg width="300" height="100" viewBox="0 0 300 100" fill="none" xmlns="http://www.w3.org/2000/svg">
<rect width="300" height="100" fill="white"/>
<g clip-path="url(#clip0_311_184)">
<path d="M83.4531 38.9387H90.3843L96.2491 55.1508L102.241 38.9387H109.045L98.8895 63.0853H93.6848L83.4531 38.9387Z" fill="black"/>
<path d="M120.804 63.5751C118.028 63.5751 115.718 63.0036 113.873 61.8609C112.028 60.718 110.665 59.216 109.785 57.3547C108.905 55.4772 108.465 53.412 108.465 51.1589C108.465 48.9385 108.888 46.8651 109.735 44.9386C110.598 43.0121 111.926 41.4529 113.721 40.2611C115.515 39.0529 117.74 38.4489 120.398 38.4489C122.903 38.4489 125.027 38.9958 126.77 40.0897C128.514 41.1672 129.817 42.6366 130.68 44.4977C131.56 46.359 132 48.4569 132 50.7916C132 51.412 131.95 52.163 131.848 53.0446H114.762C114.897 54.612 115.481 55.8446 116.513 56.7425C117.546 57.6241 118.993 58.065 120.855 58.065C123.241 58.065 125.205 57.2079 126.745 55.4936L131.112 59.216C129.741 60.669 128.209 61.7629 126.517 62.4975C124.824 63.2159 122.92 63.5751 120.804 63.5751ZM125.983 48.563V48.4651C125.983 47.5507 125.755 46.7181 125.298 45.9671C124.841 45.2161 124.198 44.6202 123.368 44.1794C122.539 43.7386 121.591 43.5182 120.525 43.5182C118.748 43.5182 117.368 44.008 116.386 44.9876C115.422 45.9671 114.855 47.159 114.685 48.563H125.983Z" fill="black"/>
<path d="M145.836 63.5751C143.06 63.5751 140.75 63.0036 138.905 61.8609C137.06 60.718 135.697 59.216 134.817 57.3547C133.937 55.4772 133.497 53.412 133.497 51.1589C133.497 48.9385 133.92 46.8651 134.766 44.9386C135.63 43.0121 136.958 41.4529 138.752 40.2611C140.546 39.0529 142.772 38.4489 145.43 38.4489C147.935 38.4489 150.059 38.9958 151.802 40.0897C153.546 41.1672 154.849 42.6366 155.712 44.4977C156.592 46.359 157.032 48.4569 157.032 50.7916C157.032 51.412 156.981 52.163 156.88 53.0446H139.793C139.929 54.612 140.513 55.8446 141.545 56.7425C142.578 57.6241 144.025 58.065 145.887 58.065C148.273 58.065 150.237 57.2079 151.777 55.4936L156.144 59.216C154.773 60.669 153.241 61.7629 151.548 62.4975C149.856 63.2159 147.952 63.5751 145.836 63.5751ZM151.015 48.563V48.4651C151.015 47.5507 150.787 46.7181 150.33 45.9671C149.873 45.2161 149.229 44.6202 148.4 44.1794C147.571 43.7386 146.623 43.5182 145.557 43.5182C143.779 43.5182 142.4 44.008 141.418 44.9876C140.453 45.9671 139.886 47.159 139.717 48.563H151.015Z" fill="black"/>
<path d="M169.6 63.5751C167.383 63.5751 165.564 62.971 164.142 61.7629C162.737 60.5384 162.034 58.62 162.034 56.0079V43.6651H157.465V38.9387H162.034V33.3306L168.432 30V38.9387H173.866V43.6651H168.432V54.3181C168.432 55.7875 168.644 56.865 169.067 57.5506C169.49 58.2364 170.244 58.5793 171.327 58.5793C172.004 58.5793 172.85 58.4405 173.866 58.1629V62.8404C172.495 63.3303 171.073 63.5751 169.6 63.5751Z" fill="black"/>
<path d="M213.453 58.4751L201.667 46.8561L189.784 58.381" stroke="#FF6135" stroke-width="4.65672" stroke-linecap="square"/>
</g>
<defs>
<clipPath id="clip0_311_184">
<rect width="135" height="40" fill="white" transform="translate(83.4531 30)"/>
</clipPath>
</defs>
</svg>
