<svg width="300" height="100" viewBox="0 0 300 100" fill="none" xmlns="http://www.w3.org/2000/svg">
<rect width="300" height="100" fill="white"/>
<path d="M220.256 60.8686C220.115 60.8767 219.972 60.8901 219.831 60.8901C216.005 60.8901 212.181 60.8901 208.352 60.8901C208.233 60.8901 208.113 60.8901 207.929 60.8901C207.986 61.2677 208.023 61.6212 208.089 61.9693C208.432 63.7475 209.622 65.084 211.253 65.3491C213.449 65.708 215.392 65.1776 216.702 63.0325C216.821 62.8371 216.941 62.6389 217.074 62.4193C218.067 62.9763 219.055 63.5306 220.059 64.0931C218.667 66.573 216.709 68.22 213.846 68.619C212.103 68.8626 210.389 68.7635 208.764 68.0512C206.392 67.0121 204.999 65.1375 204.482 62.6201C204.096 60.7482 204.126 58.8655 204.848 57.0685C205.956 54.3127 207.973 52.6524 210.911 52.1891C212.582 51.9266 214.231 52.0499 215.809 52.6765C218.029 53.5602 219.355 55.2474 219.905 57.5559C220.069 58.2469 220.094 58.97 220.184 59.677C220.192 59.7439 220.226 59.8109 220.248 59.8751C220.256 60.2072 220.256 60.5366 220.256 60.8686ZM216.534 58.4717C216.354 57.2104 215.857 56.1741 214.702 55.6063C213.325 54.9314 211.885 54.91 210.475 55.4697C209.146 55.9946 208.533 57.1247 208.187 58.4717C210.977 58.4717 213.734 58.4717 216.534 58.4717Z" fill="black"/>
<path d="M148.731 68.0779C147.554 68.0779 146.396 68.0779 145.203 68.0779C145.203 67.4539 145.203 66.8353 145.203 66.2622C144.698 66.7335 144.225 67.2531 143.673 67.6708C142.501 68.5573 141.13 68.7956 139.701 68.7259C138.45 68.6644 137.265 68.3457 136.227 67.6065C134.734 66.5461 133.87 65.0597 133.472 63.2976C132.964 61.0453 132.946 58.7931 133.761 56.6077C134.561 54.4626 135.977 52.8906 138.245 52.3068C140.052 51.8435 141.824 51.9721 143.455 52.9844C144.217 53.4584 144.756 54.1359 145.187 55.0277C145.187 50.9035 145.187 46.8731 145.187 42.8212C146.377 42.8212 147.543 42.8212 148.728 42.8212C148.731 51.2383 148.731 59.6421 148.731 68.0779ZM145.309 60.2741C145.274 59.8563 145.258 59.4385 145.2 59.0261C144.94 57.1782 143.851 55.4616 141.545 55.2741C139.553 55.1134 137.945 56.0078 137.239 57.9736C136.766 59.2912 136.737 60.6516 136.986 62.0094C137.345 63.9564 138.484 65.3892 140.668 65.5364C142.124 65.6355 143.333 65.1615 144.225 63.9697C145.046 62.8771 145.301 61.6157 145.309 60.2741Z" fill="black"/>
<path d="M182.917 54.8761C182.917 54.1316 182.917 53.3844 182.917 52.6212C184.099 52.6212 185.257 52.6212 186.439 52.6212C186.439 57.7657 186.439 62.9129 186.439 68.0708C185.273 68.0708 184.107 68.0708 182.912 68.0708C182.912 67.4576 182.912 66.8551 182.912 66.2231C182.547 66.6033 182.234 66.9755 181.873 67.2996C180.566 68.4645 179.009 68.8207 177.306 68.7083C176.106 68.6279 174.982 68.3226 173.986 67.6263C172.514 66.6006 171.643 65.1545 171.231 63.4298C170.663 61.0463 170.649 58.6655 171.579 56.3651C172.4 54.3351 173.8 52.8595 175.967 52.3025C177.681 51.8606 179.37 51.9677 180.956 52.8461C181.809 53.3174 182.42 54.0164 182.917 54.8761ZM174.541 60.4277C174.605 60.9954 174.631 61.5685 174.74 62.1283C175.264 64.8224 177.309 65.9124 179.681 65.4411C181.06 65.1678 181.942 64.2519 182.497 63.0066C183.089 61.6784 183.129 60.2831 182.898 58.8691C182.593 57.0132 181.429 55.4438 179.275 55.2724C177.482 55.1305 175.914 55.8322 175.112 57.5969C174.706 58.4942 174.568 59.4422 174.541 60.4277Z" fill="black"/>
<path d="M165.235 62.4184C166.242 62.9834 167.222 63.5324 168.221 64.0949C167.193 65.94 165.838 67.4077 163.843 68.1468C161.62 68.9689 159.354 68.9957 157.146 68.136C154.636 67.1586 153.18 65.217 152.646 62.5924C152.256 60.683 152.296 58.7656 153.061 56.9471C154.19 54.2663 156.19 52.6381 159.078 52.1882C160.693 51.9364 162.292 52.0409 163.825 52.6167C166.25 53.5299 167.624 55.359 168.158 57.8738C168.365 58.8592 168.394 59.8554 168.375 60.8892C164.284 60.8892 160.212 60.8892 156.14 60.8892C156.185 63.2512 157.582 65.4071 160.257 65.4473C161.421 65.4633 162.52 65.2812 163.487 64.5769C164.157 64.0896 164.64 63.4414 165.057 62.7344C165.111 62.6407 165.164 62.5442 165.235 62.4184ZM164.675 58.4709C164.619 57.2604 163.899 56.0821 162.834 55.5893C161.391 54.9198 159.904 54.8958 158.456 55.5546C157.234 56.1116 156.671 57.1989 156.347 58.4737C159.141 58.4709 161.899 58.4709 164.675 58.4709Z" fill="black"/>
<path d="M108.1 62.4582C109.032 62.9831 110.012 63.5321 111.014 64.0919C109.967 65.9772 108.567 67.4636 106.519 68.1893C104.378 68.9472 102.192 68.9767 100.064 68.1812C97.45 67.2038 95.9491 65.2193 95.4205 62.4958C95.0407 60.5381 95.107 58.5831 95.9386 56.7379C97.0968 54.1723 99.0678 52.6163 101.857 52.1826C103.549 51.9201 105.223 52.0406 106.817 52.6887C109.093 53.618 110.392 55.3828 110.924 57.7582C111.149 58.7706 111.189 59.8016 111.176 60.8675C107.08 60.8675 103.007 60.8675 98.9377 60.8675C98.935 62.876 100.053 65.0533 102.396 65.372C103.972 65.5862 105.473 65.38 106.673 64.2258C107.199 63.7223 107.606 63.0796 108.1 62.4582ZM99.1608 58.4707C101.932 58.4707 104.697 58.4707 107.465 58.4707C107.316 56.837 106.373 55.7015 104.822 55.2837C104.041 55.0721 103.246 55.0508 102.45 55.1712C100.832 55.415 99.5806 56.4675 99.1608 58.4707Z" fill="black"/>
<path d="M118.346 68.0709C117.148 68.0709 115.982 68.0709 114.8 68.0709C114.8 62.921 114.8 57.7818 114.8 52.6239C115.899 52.6239 116.989 52.6239 118.102 52.6239C118.102 53.4086 118.102 54.1879 118.102 55.0609C118.205 54.9404 118.261 54.8868 118.303 54.8253C119.499 53.1622 121.109 52.2677 123.144 52.115C124.379 52.0214 125.595 52.0642 126.756 52.5328C128.472 53.2238 129.463 54.5387 129.524 56.3839C129.625 59.4583 129.604 62.538 129.631 65.6152C129.639 66.4293 129.631 67.2434 129.631 68.0736C128.441 68.0736 127.272 68.0736 126.058 68.0736C126.058 67.9665 126.058 67.8514 126.058 67.7335C126.058 65.0635 126.084 62.3908 126.044 59.7207C126.031 58.8369 125.893 57.9478 125.731 57.0748C125.537 56.0224 124.846 55.4278 123.81 55.2189C122.66 54.9859 121.542 55.0797 120.484 55.5912C119.175 56.2259 118.468 57.3239 118.436 58.7674C118.37 61.7454 118.373 64.7234 118.346 67.7014C118.346 67.8192 118.346 67.9397 118.346 68.0709Z" fill="black"/>
<path d="M201.169 54.611C200.319 55.2001 199.493 55.7706 198.664 56.3464C197.918 54.6592 196.011 54.5307 194.943 54.9672C193.946 55.3742 193.396 56.7133 194.542 57.6051C195.179 58.1033 195.909 58.4138 196.658 58.6897C197.774 59.1021 198.868 59.5467 199.899 60.1626C202.822 61.9114 202.436 66.3918 199.527 67.8808C198.526 68.395 197.466 68.6334 196.353 68.7056C195.132 68.7832 193.931 68.6949 192.767 68.2879C191.258 67.7602 190.225 66.7131 189.521 65.2644C190.496 64.7287 191.463 64.2011 192.432 63.6682C192.589 63.9922 192.714 64.3162 192.894 64.6056C193.505 65.575 194.454 65.9311 195.537 66.0115C196.271 66.065 196.983 65.9981 197.613 65.5724C198.606 64.9028 198.725 63.5932 197.791 62.8595C197.251 62.4362 196.603 62.1284 195.965 61.8632C194.674 61.3249 193.388 60.7974 192.204 60.0341C189.545 58.3255 189.845 54.5575 192.427 52.9961C193.295 52.4712 194.236 52.174 195.237 52.0909C196.658 51.9705 198.058 52.0347 199.357 52.7257C200.152 53.1515 200.768 53.7567 201.169 54.611Z" fill="black"/>
<path d="M94.1878 52.6379C91.4995 58.1039 88.8165 63.551 86.1095 69.0518C83.4131 63.5537 80.7381 58.1092 78.0338 52.6031C78.1799 52.6031 78.2623 52.6031 78.3446 52.6031C79.4417 52.6031 80.5362 52.6084 81.6333 52.5978C81.8299 52.5951 81.9388 52.6379 82.0238 52.8414C83.0944 55.3481 84.1968 57.8414 85.2461 60.3588C85.6021 61.2131 85.8411 62.1182 86.128 62.9805C86.2397 62.6003 86.3247 62.1664 86.4867 61.7648C87.172 60.0695 87.876 58.3823 88.5854 56.6979C89.1246 55.4151 89.6745 54.1377 90.235 52.8655C90.2828 52.7531 90.4343 52.6139 90.5378 52.6139C91.7094 52.5951 92.8835 52.6031 94.055 52.6031C94.0843 52.6058 94.1135 52.6192 94.1878 52.6379Z" fill="black"/>
<path d="M204.227 33.8943C203.228 32.3785 201.852 31.3475 200.109 30.8413C199.685 30.7181 199.246 30.6351 198.813 30.536C198.442 30.536 198.067 30.536 197.695 30.536C197.657 30.5548 197.623 30.5842 197.586 30.5896C194.966 30.8279 192.884 32.0759 191.232 34.0844C190.727 34.7004 190.299 35.3806 189.834 36.0341C189.322 35.6618 188.793 35.2789 188.264 34.8932C187.922 34.6843 187.579 34.4754 187.234 34.2692C185.762 33.3881 184.245 33.3024 182.696 34.0309C182.266 34.2344 181.873 34.5183 181.45 34.7754C181.241 33.6479 180.781 32.6704 179.737 32.0705C178.72 31.4064 177.609 31.2725 176.462 31.5778C174.711 32.0438 173.369 33.1257 172.264 34.537C172.158 34.6736 172.1 34.8236 171.858 34.7781C171.369 34.687 170.92 34.5397 170.5 34.2532C170.012 33.9211 169.494 33.6292 168.973 33.348C167.703 32.6544 166.415 32.0063 165.007 31.6233C164.008 31.3501 163.171 31.6581 162.401 32.2473C162.268 32.3491 162.252 32.6035 162.183 32.7883C162.345 32.8097 162.507 32.8391 162.672 32.8525C162.722 32.8579 162.778 32.8258 162.826 32.8043C163.657 32.4053 164.515 32.4883 165.368 32.6892C167.403 33.1659 169.193 34.1809 170.931 35.3056C171.029 35.3699 171.109 35.461 171.183 35.5279C171.05 35.8145 170.925 36.0823 170.822 36.3046C170.131 36.3902 169.464 36.4786 168.792 36.5563C168.721 36.5643 168.644 36.5295 168.569 36.5134C167.833 36.342 167.103 36.1465 166.362 36.0019C165.049 35.7448 163.732 35.5574 162.382 35.694C161.325 35.7984 160.714 36.492 160.175 37.2901C160.108 37.3892 160.193 37.59 160.209 37.7427C160.339 37.7186 160.478 37.7105 160.597 37.6623C160.695 37.6222 160.783 37.5418 160.857 37.4642C161.301 37.0008 161.862 36.7732 162.467 36.6286C163.639 36.3501 164.821 36.3929 165.992 36.5857C166.898 36.733 167.801 36.9232 168.681 37.1856C169.185 37.3383 169.664 37.4588 170.187 37.3704C170.384 37.3356 170.585 37.3249 170.814 37.2981C170.761 37.4695 170.721 37.5954 170.684 37.7212C170.325 38.9264 170.102 40.1502 170.341 41.4035C170.527 42.373 170.814 43.3103 171.491 44.0682C172.007 44.6467 172.66 44.8422 173.364 44.5315C174.111 44.2021 174.82 43.779 175.542 43.3961C176.876 42.6489 178.029 41.6714 179.078 40.6082C179.283 40.9912 179.423 41.3902 179.673 41.6982C180.829 43.1282 182.404 43.4577 184.083 43.1202C185.969 42.7427 187.35 41.4625 188.67 40.1395C189.117 39.6762 189.56 39.2129 190.015 38.7416C191.232 39.8503 192.446 40.9322 193.63 42.0463C195.052 43.38 196.645 44.4244 198.476 45.0859C199.634 45.5063 200.824 45.742 202.048 45.3939C204.126 44.8047 205.335 43.3479 205.765 41.2964C206.326 38.6264 205.712 36.1492 204.227 33.8943ZM178.839 38.4631C177.973 39.6789 176.833 40.6377 175.678 41.567C175.558 41.6633 175.441 41.7598 175.325 41.8562C174.865 42.132 174.413 42.4159 173.946 42.6757C173.728 42.7962 173.492 42.8952 173.253 42.9649C172.586 43.1631 172.153 42.9381 171.911 42.274C171.669 41.6124 171.693 40.9296 171.786 40.2493C172.028 38.4738 172.626 36.8241 173.68 35.3753C174.488 34.2665 175.521 33.4283 176.892 33.1069C177.986 32.8525 178.903 33.1096 179.538 34.1059C180.165 35.6993 179.777 37.1455 178.839 38.4631ZM188.485 37.6195C187.618 38.4577 186.774 39.3227 185.876 40.1261C185.473 40.4877 184.978 40.7501 184.5 41.0179C183.689 41.4705 182.835 41.4303 181.987 41.1358C181.142 40.8439 180.707 40.1556 180.874 39.2772C181.153 37.815 181.873 36.6098 183.19 35.8761C184.237 35.2922 185.329 35.3083 186.376 35.935C186.925 36.2644 187.459 36.6232 188.002 36.9687C188.15 37.0973 188.309 37.2124 188.437 37.357C188.49 37.4133 188.472 37.5311 188.485 37.6195C188.495 37.9087 188.506 38.1953 188.519 38.4845C188.506 38.1979 188.495 37.9087 188.485 37.6195ZM204.124 40.5921C203.826 41.9607 203.095 43.0747 201.672 43.538C200.906 43.7871 200.152 43.6451 199.414 43.4121C197.982 42.9622 196.696 42.2258 195.569 41.2455C194.119 39.9842 192.722 38.6612 191.3 37.3677C191.26 37.3302 191.21 37.3035 191.142 37.2526C192.328 35.4369 193.684 33.8809 195.594 32.9168C198.612 31.393 201.913 32.5151 203.383 35.5815C204.145 37.1669 204.504 38.8541 204.124 40.5921Z" fill="url(#paint0_linear_298_9418)"/>
<defs>
<linearGradient id="paint0_linear_298_9418" x1="160.148" y1="38.0455" x2="205.97" y2="38.0455" gradientUnits="userSpaceOnUse">
<stop stop-color="#0A38EB"/>
<stop offset="1" stop-color="#007FFD"/>
</linearGradient>
</defs>
</svg>
