<svg width="300" height="100" viewBox="0 0 300 100" fill="none" xmlns="http://www.w3.org/2000/svg">
<rect width="300" height="100" fill="white"/>
<g clip-path="url(#clip0_298_9397)">
<path d="M136.235 49.9645H131.967L126.747 34.66H130.18L134.161 46.627L138.022 34.66H141.455L136.235 49.9645Z" fill="black"/>
<path d="M149.918 46.0073L152.421 47.2708C151.587 48.9394 149.966 50.2506 147.224 50.2506C143.815 50.2506 141.289 48.1051 141.289 44.577C141.289 41.2157 143.744 38.8795 147.057 38.8795C150.371 38.8795 152.373 41.0965 152.373 44.4339C152.373 44.72 152.373 45.1014 152.35 45.2921H144.602C144.745 46.8655 145.746 47.7952 147.296 47.7952C148.488 47.7475 149.322 47.1277 149.918 46.0073ZM146.938 41.1918C145.675 41.1918 144.793 42.0262 144.602 43.4089H149.084C148.988 42.0024 148.273 41.1918 146.938 41.1918Z" fill="black"/>
<path d="M157.642 49.9644H154.472V39.1178H157.475V40.6674C158.19 39.5707 159.335 38.8556 160.789 38.8556C163.483 38.8556 164.961 40.4527 164.961 43.1704V49.9644H161.766V43.671C161.766 42.2168 161.123 41.454 159.907 41.454C158.667 41.454 157.69 42.2883 157.69 43.8855V49.9644H157.642Z" fill="black"/>
<path d="M171.54 50.2267C169.156 50.2267 167.892 49.0824 167.892 46.5555V41.7163H166.367V39.1179H168.035L168.822 35.995H171.039V39.1179H175.258V41.7163H171.039V46.2933C171.039 47.0323 171.325 47.4614 171.921 47.4614C172.517 47.4614 172.946 46.9608 173.447 45.8166L175.83 47.1038C174.806 49.1062 173.494 50.2267 171.54 50.2267Z" fill="black"/>
<path d="M181.362 50.2267C178.739 50.2267 177.285 48.6294 177.285 45.8881V39.1178H180.48V45.4589C180.48 46.8892 181.099 47.6283 182.267 47.6283C183.483 47.6283 184.413 46.8177 184.413 45.2683V39.094H187.607V49.9406H184.579V48.3911C183.889 49.5115 182.768 50.2267 181.362 50.2267Z" fill="black"/>
<path d="M193.185 49.9645H190.015V39.1178H192.994V41.0726C193.567 39.7376 194.592 38.9271 196.117 38.9271C197.882 38.9271 199.169 40.1429 199.169 42.2169C199.169 42.7651 199.073 43.3849 198.858 44.0763L195.975 43.7664C196.07 43.4327 196.094 43.1466 196.094 42.8844C196.094 41.9308 195.712 41.4778 194.974 41.4778C193.972 41.4778 193.161 42.5506 193.161 44.5053V49.9645H193.185Z" fill="black"/>
<path d="M209.014 46.0073L211.517 47.2708C210.683 48.9394 209.061 50.2506 206.32 50.2506C202.911 50.2506 200.384 48.1051 200.384 44.577C200.384 41.2157 202.84 38.8795 206.153 38.8795C209.467 38.8795 211.469 41.0965 211.469 44.4339C211.469 44.72 211.469 45.1014 211.446 45.2921H203.698C203.841 46.8655 204.842 47.7952 206.392 47.7952C207.583 47.7475 208.418 47.1277 209.014 46.0073ZM206.034 41.1918C204.771 41.1918 203.889 42.0262 203.698 43.4089H208.179C208.084 42.0024 207.369 41.1918 206.034 41.1918Z" fill="black"/>
<path d="M218.12 50.2267C215.021 50.2267 212.805 48.8679 212.78 46.4125L215.784 46.0549C215.927 47.533 216.929 47.9859 218.216 47.9859C219.193 47.9859 219.908 47.6521 219.908 46.8655C219.908 46.2934 219.598 46.0311 218.668 45.8642L217.429 45.6497C215.307 45.2683 213.257 44.6246 213.257 42.0739C213.257 40.0952 215.117 38.808 218.168 38.808C221.124 38.808 222.721 40.1906 223.031 41.9785L220.218 42.6699C220.027 41.8593 219.456 41.0488 218.12 41.0488C217.071 41.0488 216.428 41.4541 216.428 42.0739C216.428 42.7176 216.856 42.9797 217.882 43.1466L219.122 43.3374C221.172 43.6472 223.102 44.3385 223.102 46.7463C223.102 49.0109 220.957 50.2267 218.12 50.2267Z" fill="black"/>
<path d="M135.067 69.2499H131.777V53.9456H138.237C141.527 53.9456 143.887 55.805 143.887 58.9516C143.887 62.0745 141.503 63.9578 138.237 63.9578H135.067V69.2499ZM135.067 56.7823V61.121H137.904C139.573 61.121 140.478 60.3343 140.478 58.9516C140.478 57.569 139.573 56.8061 137.856 56.8061H135.067V56.7823Z" fill="black"/>
<path d="M148.964 69.2499H145.794V53.9456H148.964V69.2499Z" fill="black"/>
<path d="M155.139 69.5121C152.708 69.5121 150.967 68.2248 150.967 66.1271C150.967 64.2677 152.731 62.7181 155.211 62.7181C156.522 62.7181 157.547 63.1949 158.191 63.767V62.5989C158.191 61.3116 157.523 60.5964 156.26 60.5964C155.139 60.5964 154.353 61.2401 154.043 62.4082L151.087 61.9315C151.73 59.6668 153.59 58.1411 156.474 58.1411C159.502 58.1411 161.385 59.5237 161.385 62.742V69.2499H158.381V67.9388C157.666 68.94 156.355 69.5121 155.139 69.5121ZM155.974 67.3905C156.927 67.3905 157.642 66.8422 158.214 66.0556V65.841C157.738 65.2927 156.927 64.7682 155.974 64.7682C154.925 64.7682 154.21 65.3165 154.21 66.0794C154.21 66.8661 154.901 67.3905 155.974 67.3905Z" fill="black"/>
<path d="M167.988 69.5122C165.604 69.5122 164.34 68.3679 164.34 65.8411V61.0018H162.815V58.4033H164.484L165.27 55.2805H167.487V58.4033H171.707V61.0018H167.487V65.6027C167.487 66.3417 167.773 66.7708 168.369 66.7708C168.965 66.7708 169.394 66.2702 169.895 65.1259L172.279 66.4132C171.277 68.3918 169.943 69.5122 167.988 69.5122Z" fill="black"/>
<path d="M178.167 69.25H174.973V61.0018H173.28V58.4034H174.853C174.591 57.7597 174.496 57.2353 174.496 56.6871C174.496 54.8276 176.212 53.6833 178.238 53.6833C180.05 53.6833 181.194 54.3747 181.695 55.4713L179.74 56.8539C179.501 56.3056 179.049 55.9957 178.453 55.9957C177.881 55.9957 177.427 56.3771 177.427 57.0684C177.427 57.4975 177.571 57.9267 177.929 58.3795H180.789V60.978H178.19V69.25H178.167Z" fill="black"/>
<path d="M187.226 69.5121C183.817 69.5121 181.41 67.1521 181.41 63.8386C181.41 60.5011 183.817 58.1411 187.226 58.1411C190.658 58.1411 193.066 60.5011 193.066 63.8386C193.043 67.1521 190.658 69.5121 187.226 69.5121ZM187.226 67.0567C188.776 67.0567 189.753 65.841 189.753 63.8386C189.753 61.836 188.752 60.5964 187.226 60.5964C185.677 60.5964 184.699 61.8122 184.699 63.8386C184.699 65.841 185.677 67.0567 187.226 67.0567Z" fill="black"/>
<path d="M198.144 69.2499H194.974V58.4033H197.977V60.3581C198.549 59.0231 199.575 58.2126 201.1 58.2126C202.864 58.2126 204.151 59.4284 204.151 61.5024C204.151 62.0506 204.057 62.6705 203.842 63.3618L200.957 63.0519C201.053 62.7181 201.076 62.4321 201.076 62.1698C201.076 61.2163 200.695 60.7634 199.956 60.7634C198.955 60.7634 198.144 61.8361 198.144 63.7909V69.2499Z" fill="black"/>
<path d="M219.051 58.1411C221.72 58.1411 223.103 59.7383 223.103 62.4558V69.2499H219.933V62.9088C219.933 61.4785 219.312 60.7395 218.144 60.7395C216.929 60.7395 215.999 61.5739 215.999 63.1472V69.2738H212.828V62.9326C212.828 61.5024 212.209 60.7634 211.041 60.7634C209.824 60.7634 208.895 61.5977 208.895 63.1711V69.2976H205.725V58.451H208.728V60.0005C209.443 58.9039 210.587 58.1887 211.994 58.1887C213.543 58.1887 214.688 58.7132 215.451 60.0243C216.333 58.6179 217.644 58.1411 219.051 58.1411Z" fill="black"/>
<path fill-rule="evenodd" clip-rule="evenodd" d="M86.4833 33.6111C86.0542 33.6111 85.4344 33.8495 84.7193 34.4216C84.0041 34.9938 83.2889 35.8519 82.693 36.877C81.4295 38.951 80.8097 41.4063 81.1435 43.1466C81.5964 45.5304 83.9803 47.08 85.935 47.0085C86.8648 46.9847 87.6991 46.5794 88.5334 45.8166C89.3917 45.0298 90.1545 43.9571 90.9173 42.7652C91.0366 42.5744 91.1557 42.3838 91.2987 42.1931C91.3941 42.0261 91.5133 41.8831 91.6087 41.7163C90.7266 40.3813 90.083 38.9748 89.5108 37.759C89.4632 37.6637 89.4155 37.5445 89.3678 37.4491C88.748 36.1142 88.2712 35.0891 87.7229 34.3978C87.2223 33.7541 86.841 33.6111 86.4833 33.6111ZM93.6588 39.0463C93.1581 38.1643 92.7052 37.1869 92.2285 36.1619C91.6564 34.8984 91.0127 33.5396 90.2022 32.4907C89.344 31.3941 88.1521 30.4644 86.4118 30.4882C85.0292 30.5121 83.7657 31.1796 82.7168 32.0139C81.6679 32.8721 80.7382 34.0164 79.9754 35.2798C78.4974 37.7352 77.4961 40.9773 78.0206 43.7664C78.8073 47.8428 82.6691 50.2743 85.9827 50.179C87.9136 50.1313 89.4393 49.2732 90.6313 48.1528C91.7994 47.08 92.7529 45.6974 93.5396 44.5054C93.6111 44.41 93.6826 44.3147 93.7303 44.1955C94.1594 44.5531 94.6362 44.8868 95.1368 45.1729C96.7339 46.0787 98.4027 46.5555 100.071 46.7462C100.882 49.0109 101.597 51.657 102.265 54.3269C102.694 56.0672 103.099 57.7836 103.48 59.4046V59.4285C103.862 61.0495 104.219 62.5751 104.553 63.8624C104.887 65.1497 105.221 66.2939 105.53 67.1283C105.697 67.5336 105.888 67.9627 106.126 68.2964C106.246 68.4633 106.436 68.7016 106.699 68.8924C106.961 69.0831 107.366 69.2738 107.867 69.2499C108.677 69.2261 109.202 68.7016 109.464 68.3918C109.75 68.0342 109.941 67.6051 110.107 67.1999C110.251 66.8422 110.417 66.2701 110.632 65.5311C110.68 65.3404 110.751 65.1258 110.823 64.8875C111.156 63.7671 111.657 62.146 112.42 59.9052C113.946 55.3997 116.568 48.2719 121.216 37.1869C121.455 36.591 121.335 35.9711 121.049 35.5182C120.906 35.3037 120.62 34.9461 120.096 34.8031C119.476 34.6362 118.904 34.8269 118.523 35.1845C116.329 37.1392 112.682 40.0952 108.606 41.9546C106.484 42.9321 104.339 43.5757 102.241 43.6949C102.241 43.671 102.217 43.6472 102.217 43.6234C101.621 42.2169 100.953 40.9057 100.191 39.9046C99.4516 38.9271 98.4503 38.0213 97.1392 37.7829C95.6612 37.473 94.4931 38.212 93.6588 39.0463ZM95.5658 41.5971C95.9235 41.9308 96.281 42.1931 96.7101 42.4314C97.3299 42.7891 97.9974 43.0512 98.641 43.2419C98.3312 42.6459 98.0212 42.1454 97.7114 41.7401C97.1631 41.0011 96.7816 40.8342 96.6148 40.8104C96.5671 40.8104 96.3049 40.7627 95.6612 41.4778C95.6135 41.5255 95.5897 41.5733 95.5658 41.5971ZM103.409 46.7224C104.124 48.8917 104.768 51.2518 105.34 53.5641C105.769 55.3044 106.198 57.0446 106.579 58.6656V58.6895C106.961 60.3104 107.318 61.8123 107.628 63.0758C107.7 63.3618 107.771 63.6479 107.843 63.9101C108.2 62.7658 108.701 61.1448 109.464 58.8802C110.775 55.0182 112.849 49.3447 116.234 41.025C114.375 42.3599 112.229 43.7187 109.941 44.7676C107.914 45.6974 105.697 46.4364 103.409 46.7224Z" fill="#EEC068"/>
</g>
<defs>
<clipPath id="clip0_298_9397">
<rect width="146.341" height="40" fill="white" transform="translate(76.9297 30)"/>
</clipPath>
</defs>
</svg>
