<svg width="300" height="100" viewBox="0 0 300 100" fill="none" xmlns="http://www.w3.org/2000/svg">
<rect width="300" height="100" fill="white"/>
<g clip-path="url(#clip0_291_8047)">
<path fill-rule="evenodd" clip-rule="evenodd" d="M132.448 50.0145C132.448 60.9317 123.598 69.7817 112.681 69.7817C101.763 69.7817 92.9128 60.9317 92.9128 50.0145C92.9128 39.0973 101.763 30.2473 112.681 30.2473C123.598 30.2473 132.448 39.0973 132.448 50.0145Z" fill="#ED342B"/>
<path fill-rule="evenodd" clip-rule="evenodd" d="M112.681 58.4818C108.259 48.4594 105.017 39.0965 105.017 39.0965H98.2388C98.2388 39.0965 102.364 51.1138 110.028 66.1421H115.333C122.997 51.1138 127.122 39.0965 127.122 39.0965H120.344C120.344 39.0965 117.102 48.4594 112.681 58.4818Z" fill="#FEFEFE"/>
<path fill-rule="evenodd" clip-rule="evenodd" d="M197.811 48.9835C193.979 48.9835 193.685 53.1098 193.685 53.1098L201.936 53.1098C201.936 53.1098 201.642 48.9835 197.811 48.9835ZM206.947 57.2354L193.685 57.2354C193.685 57.2354 193.979 61.6567 199.874 61.6567C202.821 61.6567 205.768 60.7716 205.768 60.7716L206.358 65.4869C206.358 65.4869 203.411 66.6665 199.285 66.6665C193.39 66.6665 188.085 63.7191 188.085 55.4672C188.085 48.9835 192.212 44.8575 198.106 44.8575C206.947 44.8575 207.536 53.6989 206.947 57.2354ZM161.852 50.2718L162.764 45.4057C162.764 45.4057 155.718 43.2676 149.99 47.2299V66.6942H156.073V50.8794C158.506 49.0554 161.852 50.2718 161.852 50.2718ZM136.498 48.9835C132.667 48.9835 132.373 53.1098 132.373 53.1098H140.624C140.624 53.1098 140.33 48.9835 136.498 48.9835ZM145.634 57.2354H132.373C132.373 57.2354 132.667 61.6567 138.562 61.6567C141.508 61.6567 144.455 60.7716 144.455 60.7716L145.045 65.4869C145.045 65.4869 142.098 66.6665 137.972 66.6665C132.078 66.6665 126.772 63.7191 126.772 55.4672C126.772 48.9835 130.899 44.8575 136.793 44.8575C145.634 44.8575 146.223 53.6989 145.634 57.2354ZM176.695 59.2551C173.607 51.8422 172.063 44.861 172.063 44.861L165.887 44.8618C165.887 44.8618 168.976 56.784 174.226 66.6629H179.165C184.415 56.784 187.503 44.8635 187.503 44.8635H181.327C181.327 44.8635 179.784 51.8422 176.695 59.2551Z" fill="#03435F"/>
</g>
<defs>
<clipPath id="clip0_291_8047">
<rect width="114.783" height="40" fill="white" transform="translate(92.6086 30)"/>
</clipPath>
</defs>
</svg>
