<svg width="300" height="100" viewBox="0 0 300 100" fill="none" xmlns="http://www.w3.org/2000/svg">
<rect width="300" height="100" fill="white"/>
<g clip-path="url(#clip0_298_9322)">
<path d="M66.1555 41.532L85.6169 30.1796C85.82 30.0623 86.0504 30.0004 86.2849 30C86.5195 29.9996 86.75 30.0609 86.9537 30.1776C87.1572 30.2942 87.3265 30.4623 87.4447 30.6649C87.5629 30.8675 87.6259 31.0977 87.6272 31.3322V41.9207C87.6259 42.1546 87.5632 42.3841 87.4457 42.5863C87.3282 42.7885 87.1597 42.9564 86.957 43.0733L75.8996 49.5337L85.6169 55.1763C85.823 55.2932 85.9947 55.4627 86.114 55.6677C86.2334 55.8725 86.2962 56.1053 86.2962 56.3423C86.2962 56.5795 86.2334 56.8123 86.114 57.0172C85.9947 57.222 85.823 57.3915 85.6169 57.5085L66.1555 68.1237C65.9512 68.2355 65.7211 68.2922 65.4882 68.288C65.2553 68.2838 65.0274 68.219 64.8272 68.1C64.6269 67.9808 64.4612 67.8117 64.3463 67.609C64.2313 67.4063 64.1712 67.1772 64.1719 66.9442V57.1465C64.1733 56.9127 64.2359 56.6832 64.3535 56.481C64.471 56.2788 64.6395 56.1108 64.842 55.9938L75.8996 49.5337L66.1555 43.8507C65.9524 43.7329 65.7838 43.5638 65.6666 43.3603C65.5494 43.1568 65.4878 42.9262 65.4878 42.6913C65.4878 42.4565 65.5494 42.2259 65.6666 42.0224C65.7838 41.8189 65.9524 41.6498 66.1555 41.532Z" fill="#002DFF"/>
<path d="M124.084 42.819H118.723L115.251 54.5868C114.836 56.021 114.554 57.6293 114.554 57.6293H114.487C114.487 57.6293 114.206 56.021 113.79 54.5868L110.319 42.819H104.958L111.78 61.6905H117.315L124.084 42.819Z" fill="#002DFF"/>
<path d="M142.647 52.241C142.647 46.5984 139.604 42.4032 134.109 42.4032C128.614 42.4032 125.571 46.5984 125.571 52.241C125.571 57.8837 128.614 62.1057 134.109 62.1057C139.604 62.1057 142.647 57.8704 142.647 52.241ZM137.889 52.241C137.889 56.0207 136.629 58.259 134.109 58.259C131.589 58.259 130.329 56.0207 130.329 52.241C130.329 48.4614 131.589 46.1829 134.109 46.1829C136.629 46.1829 137.889 48.4212 137.889 52.2009V52.241Z" fill="#002DFF"/>
<path d="M163.248 42.819H157.886L154.348 54.6806C154.073 55.6578 153.863 56.6518 153.718 57.6561C153.573 56.6518 153.362 55.6578 153.088 54.6806L149.55 42.819H144.188L151.292 61.6905L148.384 69.2096H153.383L163.248 42.819Z" fill="#002DFF"/>
<path d="M180.175 60.7386V49.1047C180.175 44.2796 177.495 42.4032 172.643 42.4032C170.247 42.4088 167.874 42.8635 165.646 43.7435L166.839 46.9602C168.518 46.2717 170.307 45.8903 172.12 45.8344C174.291 45.8344 175.659 46.5716 175.659 48.515V49.4934C169.949 49.8017 164.601 50.8337 164.601 55.967C164.601 59.8139 167.429 62.052 173.099 62.052C175.524 62.116 177.935 61.6684 180.175 60.7386ZM175.659 58.326C174.791 58.5967 173.886 58.728 172.978 58.7147C170.485 58.7147 169.091 57.696 169.091 55.9136C169.091 53.0721 172.174 52.7637 175.672 52.5896L175.659 58.326Z" fill="#002DFF"/>
<path d="M200.119 61.6907V48.77C200.119 44.7491 197.532 42.4036 191.93 42.4036C189.356 42.3539 186.797 42.8092 184.397 43.7439V61.6907H189.169V46.6792C190.078 46.3642 191.035 46.21 191.997 46.2235C192.424 46.1586 192.861 46.1902 193.274 46.316C193.687 46.4417 194.067 46.6584 194.386 46.9502C194.705 47.242 194.954 47.6013 195.116 48.0022C195.278 48.4028 195.348 48.8347 195.321 49.266V61.6907H200.119Z" fill="#002DFF"/>
<path d="M217.168 60.8055L215.627 57.2402C214.805 57.8088 213.825 58.1043 212.826 58.0847C210.547 58.0847 208.63 56.1278 208.63 52.2007C208.63 48.2735 210.48 46.3167 212.826 46.3167C213.821 46.2843 214.801 46.5656 215.627 47.1208L217.168 43.7433C215.678 42.7949 213.933 42.327 212.169 42.403C207.759 42.403 203.738 45.5125 203.738 52.2408C203.738 58.9692 207.759 62.1055 212.169 62.1055C213.929 62.1892 215.672 61.7358 217.168 60.8055Z" fill="#002DFF"/>
<path d="M235.839 50.9812C235.839 45.8344 232.944 42.4032 227.716 42.4032C222.234 42.4032 218.978 46.4241 218.978 52.241C218.978 58.058 222.261 62.1057 228.494 62.1057C230.882 62.1665 233.255 61.7094 235.45 60.7654L234.11 57.2002C232.469 57.9845 230.674 58.392 228.856 58.3931C226.095 58.3931 224.057 57.0527 223.642 54.2649L235.732 52.5895C235.8 52.056 235.835 51.519 235.839 50.9812ZM231.229 50.1367L223.307 51.2224C223.387 47.684 225.13 45.8612 227.622 45.8612C229.821 45.8612 231.229 47.3087 231.229 50.1367Z" fill="#002DFF"/>
</g>
<defs>
<clipPath id="clip0_298_9322">
<rect width="171.667" height="40" fill="white" transform="translate(64.1719 30)"/>
</clipPath>
</defs>
</svg>
