<svg width="300" height="100" viewBox="0 0 300 100" fill="none" xmlns="http://www.w3.org/2000/svg">
<rect width="300" height="100" fill="white"/>
<g clip-path="url(#clip0_298_9316)">
<path d="M105.757 36.2497C105.545 36.2497 105.356 36.3848 105.288 36.5856L101.268 48.3625C101.112 48.8209 100.458 48.807 100.322 48.342L96.8741 36.6061C96.8118 36.3948 96.6177 36.2497 96.3971 36.2497H92.4507C92.1128 36.2497 91.8737 36.579 91.9777 36.8996L98.0295 55.5517C98.0957 55.7564 98.2865 55.8956 98.5018 55.8956H102.585C102.798 55.8956 102.987 55.7591 103.056 55.557L107.237 43.1554C107.388 42.7062 108.022 42.7036 108.177 43.1514L112.467 55.561C112.537 55.7611 112.725 55.8956 112.937 55.8956H116.9C117.116 55.8956 117.307 55.7558 117.373 55.5498L123.348 36.8983C123.45 36.5776 123.211 36.2497 122.874 36.2497H119.169C118.948 36.2497 118.753 36.3961 118.692 36.6088L115.32 48.3254C115.185 48.7924 114.529 48.8084 114.372 48.3486L110.358 36.5856C110.289 36.3848 110.1 36.2497 109.888 36.2497H105.757ZM123.773 50.5697C123.773 53.6753 126.314 56.4995 130.428 56.4995C132.66 56.4995 134.278 55.7092 135.366 54.7227C135.736 54.3868 136.507 54.6346 136.56 55.1315C136.576 55.2951 136.595 55.4323 136.611 55.5442C136.644 55.7555 136.826 55.8947 137.039 55.8947H140.432C140.769 55.8947 140.8 55.5952 140.796 55.2958C140.79 54.726 140.796 53.8695 140.796 52.7479V42.9855C140.796 39.0723 138.497 35.6433 132.446 35.6433C127.814 35.6433 124.808 38.4125 124.238 41.6195C124.194 41.868 124.361 42.0998 124.607 42.1555L127.905 42.9021C128.196 42.9677 128.476 42.763 128.542 42.4721C128.925 40.7636 130.26 39.4757 132.486 39.4757C135.068 39.4757 136.197 40.8073 136.197 42.4609C136.197 43.1465 135.875 43.7116 134.745 43.8733L129.702 44.6391C126.354 45.1234 123.773 47.0598 123.773 50.5697ZM131.316 52.8287C129.461 52.8287 128.452 51.6184 128.452 50.2874C128.452 48.6736 129.622 47.8667 131.074 47.6243L135.627 46.9432C135.928 46.8988 136.197 47.1314 136.197 47.4348V47.7455C136.197 51.5779 133.938 52.8287 131.316 52.8287ZM148.631 55.8944C148.905 55.8944 149.128 55.6718 149.128 55.3975V30.4969C149.128 30.2226 148.905 30 148.631 30H144.945C144.671 30 144.448 30.2226 144.448 30.4969V55.3975C144.448 55.6718 144.671 55.8944 144.945 55.8944H148.631ZM157.321 55.8944C157.595 55.8944 157.818 55.6718 157.818 55.3975V30.4969C157.818 30.2226 157.595 30 157.321 30H153.634C153.36 30 153.138 30.2226 153.138 30.4969V55.3975C153.138 55.6718 153.36 55.8944 153.634 55.8944H157.321ZM165.228 45.0857C164.948 45.1606 164.662 44.9816 164.643 44.6931C164.512 42.7295 165.613 40.4723 168.219 39.7741C171.102 39.0015 173.041 40.3043 173.848 42.2451C173.957 42.5047 173.797 42.7896 173.525 42.8625L165.228 45.0857ZM176.344 47.5645C176.073 47.5522 175.844 47.7601 175.807 48.0293C175.558 49.8656 174.497 51.4565 171.989 52.1285C169.347 52.8363 166.699 51.5837 165.656 49.0553C165.548 48.794 165.707 48.5072 165.98 48.4342L179.055 44.9307C179.237 44.882 179.354 44.7326 179.328 44.5455C179.289 44.2706 179.208 43.8432 179.083 43.378C177.475 37.3776 173.012 34.4385 167.167 36.0046C162.374 37.2889 158.997 42.4537 160.605 48.4547C162.328 54.8838 167.889 57.4031 173.033 56.025C177.383 54.8592 179.659 51.6255 179.966 48.2187C179.991 47.9467 179.778 47.7177 179.506 47.705L176.344 47.5645ZM187.847 30.7358C187.847 30.4609 187.626 30.239 187.351 30.239H184.109C183.834 30.239 183.612 30.4609 183.612 30.7358V33.1837C183.612 34.9181 182.684 36.2497 180.587 36.2497H180.075C179.8 36.2497 179.578 36.4716 179.578 36.7465V39.9079C179.578 40.1821 179.8 40.4047 180.075 40.4047H182.712C182.986 40.4047 183.209 40.6267 183.209 40.9016V50.2883C183.209 53.9591 185.468 56.1374 189.098 56.1374C190.389 56.1374 191.212 55.9499 191.655 55.8068C191.845 55.7465 191.962 55.565 191.962 55.3662V52.4268C191.962 52.1134 191.675 51.8736 191.363 51.912C191.058 51.9491 190.687 51.9823 190.349 51.9823C188.614 51.9823 187.847 51.2562 187.847 49.5218V40.9016C187.847 40.6267 188.07 40.4047 188.344 40.4047H191.426C191.7 40.4047 191.922 40.1821 191.922 39.9079V36.7465C191.922 36.4716 191.7 36.2497 191.426 36.2497H188.344C188.07 36.2497 187.847 36.0271 187.847 35.7528V30.7358ZM193.712 50.4564C193.477 50.5219 193.322 50.7479 193.37 50.9864C193.822 53.2229 196.069 56.4995 201.413 56.4995C206.416 56.4995 208.836 53.1917 208.836 50.2066C208.836 47.3016 206.9 45.0426 203.189 44.2357L200.204 43.6308C198.993 43.389 198.227 42.6225 198.227 41.5738C198.227 40.3634 199.396 39.3147 201.05 39.3147C203.273 39.3147 204.22 40.6192 204.556 41.7043C204.645 41.9925 204.939 42.1853 205.229 42.1031L208.208 41.2518C208.451 41.1823 208.605 40.9418 208.544 40.6967C208.042 38.7092 206.149 35.6433 201.05 35.6433C196.976 35.6433 193.829 38.5482 193.829 41.9766C193.829 44.6795 195.645 46.9386 199.114 47.7051L202.019 48.351C203.592 48.6736 204.318 49.4805 204.318 50.5292C204.318 51.7396 203.309 52.7883 201.373 52.7883C199.152 52.7883 197.854 51.5475 197.477 50.0264C197.403 49.7257 197.104 49.5163 196.806 49.5991L193.712 50.4564Z" fill="#00C9B6"/>
<path d="M173.985 68.473C173.985 69.1102 174.494 69.6198 175.131 69.6198C175.768 69.6198 176.291 69.1102 176.291 68.473C176.291 67.8364 175.768 67.313 175.131 67.313C174.494 67.313 173.985 67.8364 173.985 68.473ZM177.11 67.6658C177.11 68.7556 178.001 69.746 179.445 69.746C180.167 69.746 180.706 69.5102 181.085 69.2013C181.248 69.0689 181.585 69.285 181.627 69.491C181.646 69.579 181.699 69.5341 181.789 69.5341H182.762C182.972 69.5341 183.133 69.3419 183.113 69.1338C183.096 68.9502 183.082 68.7117 183.082 68.4297V65.0052C183.082 63.6325 182.275 62.4294 180.152 62.4294C178.594 62.4294 177.56 63.3232 177.301 64.3891C177.262 64.5528 177.375 64.7078 177.539 64.745L178.387 64.9369C178.58 64.9808 178.766 64.8421 178.831 64.6549C179.011 64.1421 179.461 63.7736 180.166 63.7736C181.072 63.7736 181.469 64.2408 181.469 64.8211C181.469 65.0616 181.355 65.2595 180.959 65.3167L179.19 65.5855C178.015 65.7551 177.11 66.4341 177.11 67.6658ZM179.756 68.458C179.105 68.458 178.751 68.0336 178.751 67.5663C178.751 67.0006 179.162 66.7177 179.671 66.6323L181.16 66.4097C181.323 66.3852 181.469 66.511 181.469 66.6754C181.469 68.0195 180.676 68.458 179.756 68.458ZM187.423 60.6904C187.48 60.6904 187.534 60.6923 187.584 60.6951C187.804 60.7063 188.017 60.5426 188.017 60.3221V59.5647C188.017 59.4395 187.945 59.3263 187.823 59.2959C187.659 59.2549 187.421 59.219 187.154 59.219C185.738 59.219 184.748 60.153 184.748 61.6954V62.3123C184.748 62.4956 184.599 62.6434 184.417 62.6434H183.876C183.693 62.6434 183.545 62.7917 183.545 62.9746V63.7419C183.545 63.9247 183.693 64.073 183.876 64.073H184.417C184.599 64.073 184.748 64.2213 184.748 64.4042V69.2045C184.748 69.3873 184.896 69.5359 185.079 69.5359H186.072C186.256 69.5359 186.403 69.3873 186.403 69.2045V64.4042C186.403 64.2213 186.552 64.073 186.734 64.073H187.671C187.855 64.073 188.003 63.9247 188.003 63.7419V62.9746C188.003 62.7917 187.855 62.6434 187.671 62.6434H186.734C186.552 62.6434 186.403 62.4956 186.403 62.3123V61.7377C186.403 60.8891 186.984 60.6904 187.423 60.6904ZM192.629 62.872C192.629 62.7143 192.517 62.5764 192.36 62.5645C192.307 62.5606 192.25 62.558 192.19 62.558C191.631 62.558 191.126 62.7247 190.746 63.0289C190.585 63.1575 190.194 63.0388 190.194 62.8328C190.194 62.7281 190.11 62.6426 190.005 62.6426H188.927C188.744 62.6426 188.596 62.791 188.596 62.9738V69.2039C188.596 69.3868 188.744 69.5351 188.927 69.5351H189.906C190.089 69.5351 190.237 69.3868 190.237 69.2039V66.2517C190.237 64.9639 190.817 64.2281 192.091 64.2281C192.142 64.2281 192.192 64.2294 192.245 64.232C192.447 64.2413 192.629 64.0876 192.629 63.8842V62.872ZM194.598 69.5354C194.781 69.5354 194.93 69.3871 194.93 69.2042V62.9741C194.93 62.7912 194.781 62.6429 194.598 62.6429H193.633C193.45 62.6429 193.302 62.7912 193.302 62.9741V69.2042C193.302 69.3871 193.45 69.5354 193.633 69.5354H194.598ZM193.048 60.2234C193.048 60.8177 193.529 61.2847 194.109 61.2847C194.703 61.2847 195.184 60.8177 195.184 60.2234C195.184 59.6286 194.703 59.1476 194.109 59.1476C193.529 59.1476 193.048 59.6286 193.048 60.2234ZM199.339 63.9439C200.191 63.9439 200.658 64.3925 200.887 64.8865C200.97 65.0647 201.169 65.1728 201.353 65.106L202.199 64.7967C202.359 64.7382 202.451 64.5673 202.391 64.4076C202.016 63.3987 201.019 62.4294 199.325 62.4294C197.344 62.4294 195.802 63.958 195.802 66.0803C195.802 68.1751 197.344 69.746 199.368 69.746C201.014 69.746 202.018 68.7754 202.431 67.791C202.499 67.6286 202.408 67.4491 202.243 67.3889L201.425 67.092C201.245 67.0271 201.05 67.1278 200.962 67.2975C200.723 67.7598 200.233 68.246 199.368 68.246C198.334 68.246 197.443 67.4676 197.443 66.0803C197.443 64.6938 198.334 63.9439 199.339 63.9439ZM202.822 67.6658C202.822 68.7556 203.713 69.746 205.157 69.746C205.879 69.746 206.418 69.5102 206.797 69.2013C206.96 69.0689 207.298 69.285 207.34 69.491C207.358 69.579 207.411 69.5341 207.501 69.5341H208.475C208.684 69.5341 208.845 69.3419 208.826 69.1338C208.809 68.9502 208.794 68.7117 208.794 68.4297V65.0052C208.794 63.6325 207.987 62.4294 205.865 62.4294C204.306 62.4294 203.272 63.3232 203.014 64.3891C202.974 64.5528 203.087 64.7078 203.251 64.745L204.098 64.9369C204.292 64.9808 204.478 64.8421 204.544 64.6549C204.723 64.1421 205.174 63.7736 205.878 63.7736C206.784 63.7736 207.18 64.2408 207.18 64.8211C207.18 65.0616 207.068 65.2595 206.671 65.3167L204.902 65.5855C203.727 65.7551 202.822 66.4341 202.822 67.6658ZM205.469 68.458C204.817 68.458 204.463 68.0336 204.463 67.5663C204.463 67.0006 204.873 66.7177 205.384 66.6323L206.873 66.4097C207.034 66.3852 207.18 66.511 207.18 66.6754C207.18 68.0195 206.388 68.458 205.469 68.458Z" fill="#5C2799"/>
</g>
<defs>
<clipPath id="clip0_298_9316">
<rect width="116.883" height="40" fill="white" transform="translate(91.9531 30)"/>
</clipPath>
</defs>
</svg>
