<svg width="300" height="100" viewBox="0 0 300 100" fill="none" xmlns="http://www.w3.org/2000/svg">
<rect width="300" height="100" fill="white"/>
<g clip-path="url(#clip0_298_9288)">
<path fill-rule="evenodd" clip-rule="evenodd" d="M103.02 34.0496L96.8069 59.1495H96.6529L90.2346 34.0496H84.2784L77.6548 59.1495H77.5007L71.442 34.0496H65.4344L74.1119 65.4996H80.7356L87.2052 41.4496H87.3079L93.6748 65.4996H100.298L108.976 34.0496H103.02Z" fill="#0C132D"/>
<path fill-rule="evenodd" clip-rule="evenodd" d="M124.327 52.1508H112.774C113.031 48.7508 115.598 46.5508 118.936 46.5508C122.428 46.5008 124.533 49.0508 124.327 52.1508ZM129.513 52.7508C129.513 49.7008 128.538 47.2008 126.535 45.2508C124.584 43.3008 121.965 42.3508 118.731 42.3508C111.131 42.3508 107.075 48.2008 107.075 54.1008C107.075 57.6008 108.256 60.4508 110.618 62.6508C112.98 64.8508 116.061 65.9508 119.86 65.9508C122.838 65.9508 125.868 65.3008 128.178 63.8008V58.6008C126.278 60.5508 123.3 61.6508 120.22 61.6508C116.061 61.6508 112.929 59.4008 112.672 55.6508H129.257C129.411 54.4508 129.513 53.5508 129.513 52.7508Z" fill="#0C132D"/>
<path fill-rule="evenodd" clip-rule="evenodd" d="M137.885 58.6495V34.0496H131.775C132.032 37.2996 132.288 40.3496 132.288 42.8496V65.4996H137.936V59.6996C137.885 59.3495 137.885 58.9996 137.885 58.6495Z" fill="#0C132D"/>
<path fill-rule="evenodd" clip-rule="evenodd" d="M146.663 58.6495V34.0496H140.553C140.81 37.2996 141.015 40.3496 141.015 42.8496V65.4996H146.663V59.5495C146.663 59.2495 146.663 58.9496 146.663 58.6495Z" fill="#0C132D"/>
<path fill-rule="evenodd" clip-rule="evenodd" d="M164.532 55.9008C164.532 59.6508 161.965 61.9508 158.833 61.9508C156.727 61.9508 155.444 60.9508 155.444 59.3508C155.444 57.8508 156.676 56.9008 159.654 56.2008C161.965 55.7008 163.454 55.0508 164.481 53.8508V55.9008H164.532ZM170.128 58.6508V50.1508C170.128 45.4008 166.432 42.3508 160.784 42.3508C157.395 42.3508 153.903 43.4508 151.541 45.2008V50.4008C154.109 47.9008 157.241 46.4508 160.321 46.4508C162.94 46.4508 164.532 47.6508 164.532 49.4008C164.532 51.3508 162.837 52.1008 158.884 52.8508C152.979 53.8508 149.847 55.9008 149.847 59.7008C149.847 63.3008 152.876 65.9508 157.189 65.9508C160.116 65.9508 162.478 64.7508 164.378 62.1008H164.84L165.2 65.5008H170.128V59.0008C170.128 58.8508 170.128 58.7508 170.128 58.6508Z" fill="#0C132D"/>
<path fill-rule="evenodd" clip-rule="evenodd" d="M192.21 44.7496C190.669 43.1996 188.717 42.3496 186.355 42.3496C183.069 42.3496 180.4 43.8996 179.064 46.6496H178.55V34.0496H172.44C172.698 36.7496 172.954 40.1996 172.954 42.8496V65.4996H178.602V52.7996C178.602 49.3496 180.81 46.8996 184.198 46.8996C187.178 46.8996 188.974 48.8996 188.974 51.9996V65.4996H194.571V50.2996C194.416 48.0996 193.646 46.2496 192.21 44.7496Z" fill="#0C132D"/>
<path fill-rule="evenodd" clip-rule="evenodd" d="M214.798 52.1508H203.246C203.502 48.7508 206.07 46.5508 209.408 46.5508C212.95 46.5008 215.056 49.0508 214.798 52.1508ZM219.986 52.7508C219.986 49.7008 219.01 47.2008 217.006 45.2508C215.056 43.3008 212.437 42.3508 209.203 42.3508C201.603 42.3508 197.547 48.2008 197.547 54.1008C197.547 57.6008 198.728 60.4508 201.09 62.6508C203.451 64.8508 206.533 65.9508 210.333 65.9508C213.31 65.9508 216.339 65.3008 218.65 63.8008V58.6008C216.75 60.5508 213.773 61.6508 210.691 61.6508C206.533 61.6508 203.4 59.4008 203.144 55.6508H219.728C219.883 54.4508 219.986 53.5508 219.986 52.7508Z" fill="#0C132D"/>
<path fill-rule="evenodd" clip-rule="evenodd" d="M235.594 55.9008C235.594 59.6508 233.027 61.9508 229.894 61.9508C227.79 61.9508 226.506 60.9508 226.506 59.3508C226.506 57.8508 227.739 56.9008 230.717 56.2008C233.027 55.7008 234.517 55.0508 235.542 53.8508V55.9008H235.594ZM241.19 58.6508V50.1508C241.19 45.4008 237.546 42.3508 231.846 42.3508C228.458 42.3508 224.966 43.4508 222.603 45.2008V50.4008C225.171 47.9008 228.304 46.4508 231.384 46.4508C233.952 46.4508 235.594 47.6508 235.594 49.4008C235.594 51.3508 233.899 52.1008 229.946 52.8508C224.042 53.8508 220.909 55.9008 220.909 59.7008C220.909 63.3008 223.939 65.9508 228.251 65.9508C231.179 65.9508 233.541 64.7508 235.44 62.1008H235.954L236.314 65.5008H241.243V59.0008C241.19 58.8508 241.19 58.7508 241.19 58.6508Z" fill="#0C132D"/>
<path fill-rule="evenodd" clip-rule="evenodd" d="M264.555 61.6C262.45 61.6 261.269 60.3 261.269 57.8V47.1H268.302V42.85H261.269V36.3H257.88C257.469 41.45 256.288 43.55 252.899 43.55H251.616V47.1H255.621V58.5C255.621 63.2 258.65 66 263.219 66C265.222 66 267.277 65.4 268.509 64.5501V59.8C267.277 60.9501 265.941 61.6 264.555 61.6Z" fill="#0C132D"/>
<path fill-rule="evenodd" clip-rule="evenodd" d="M249.766 58.6996V34.0496H243.656C243.914 37.2996 244.118 40.3496 244.118 42.8496V65.4996H249.766V59.5996C249.766 59.2996 249.766 58.9996 249.766 58.6996Z" fill="#0C132D"/>
<path fill-rule="evenodd" clip-rule="evenodd" d="M290.638 44.7496C289.098 43.1996 287.147 42.3496 284.786 42.3496C281.499 42.3496 278.829 43.8996 277.494 46.6496H277.032V34.0496H270.922C271.179 36.7496 271.435 40.1996 271.435 42.8496V65.4996H277.083V52.8496C277.083 49.3996 279.291 46.9496 282.68 46.9496C285.658 46.9496 287.456 48.9496 287.456 52.0496V65.5496H293.053V50.2996C292.898 48.0996 292.128 46.2496 290.638 44.7496Z" fill="#0C132D"/>
<path fill-rule="evenodd" clip-rule="evenodd" d="M24.3061 45.6V39.8H33.1376V45.6C33.1376 49.2 31.4946 52.6 28.7219 54.8499C25.9491 52.5501 24.3061 49.2 24.3061 45.6ZM46.847 34V45.6C46.847 49.65 44.7931 53.4499 41.3016 55.7L35.6022 59.4L33.4971 58.0499C36.8346 54.8 38.7858 50.3 38.7858 45.6V34.05V34H18.7094V34.05V45.6C18.7094 50.3501 20.6605 54.8 23.9981 58.0499L21.8928 59.4L16.1934 55.7C12.7019 53.4499 10.6481 49.65 10.6481 45.6V34.05V34H5V34.05V45.6C5 51.5 8.02942 57 13.0613 60.2499L21.8928 66L28.7219 61.5501L35.6022 66L44.4338 60.2499C49.4656 57 52.495 51.5 52.495 45.6V34.05V34H46.847Z" fill="#0C132D"/>
</g>
<defs>
<clipPath id="clip0_298_9288">
<rect width="289.6" height="32" fill="white" transform="translate(5 34)"/>
</clipPath>
</defs>
</svg>
