<svg width="300" height="100" viewBox="0 0 300 100" fill="none" xmlns="http://www.w3.org/2000/svg">
<rect width="300" height="100" fill="white"/>
<g clip-path="url(#clip0_291_8053)">
<path d="M65.0198 34.0146H65.932L61.342 43.8561L60.8858 42.8439L65.0198 34.0146ZM56.4383 61.4584L55.9536 60.4181L61.342 48.777L61.8267 49.8455L56.4383 61.4584ZM41.9837 31.7933H41.9267C41.7842 31.7933 41.6416 31.8495 41.5276 31.9057C40.9859 32.1869 40.7578 32.7493 41.0144 33.2554L52.2473 57.3811C52.4469 57.7468 52.789 57.9717 53.2167 57.9717C53.5873 57.9717 53.9579 57.7468 54.129 57.3531L59.7455 45.3183L60.2302 46.3306L53.9009 59.9401C53.7298 60.2211 53.7298 60.5868 53.9009 60.8679L55.4974 64.3266C55.6685 64.6639 56.0391 64.889 56.4668 64.889C56.8659 64.889 57.208 64.6639 57.3791 64.3266L62.9956 52.2917L63.4802 53.3041L57.2365 66.7728C57.1225 67.0259 57.094 67.3071 57.1795 67.5602C57.2651 67.8131 57.4361 68.0101 57.6927 68.1506C57.8923 68.235 58.0348 68.235 58.1489 68.235C58.5765 68.235 58.9186 68.0101 59.0612 67.6164L64.5636 55.6941L65.2764 57.2124C65.476 57.5781 65.818 57.803 66.2456 57.803C66.6164 57.803 66.9869 57.5781 67.158 57.1844L78.0487 33.8459H78.9611L66.9015 59.7713C66.7304 60.0524 66.7304 60.4181 66.9015 60.6991L68.498 64.1579C68.6691 64.4951 69.0396 64.7202 69.4673 64.7202C69.8665 64.7202 70.2085 64.4951 70.3796 64.1579L84.5205 33.8459H85.4329L70.1231 66.7448C69.8665 67.279 70.0375 67.8413 70.5793 68.0944C70.7787 68.1788 70.9213 68.1788 71.0354 68.1788C71.4631 68.1788 71.8051 67.9539 71.9476 67.5602L87.9704 33.1992L87.9987 33.1429C88.0844 32.8899 88.0844 32.4962 87.8847 32.215C87.6851 31.9339 87.3431 31.7651 87.0009 31.7651H83.8078C83.4373 31.7651 83.0665 31.9901 82.8955 32.3837L69.4673 61.3179L68.9827 60.2775L81.4985 33.3117C81.698 32.9742 81.584 32.5525 81.4129 32.2994C81.2135 32.0182 80.9284 31.8495 80.5862 31.8495H77.3931C76.994 31.8495 76.6233 32.0744 76.4238 32.4681L66.2173 54.3726L65.704 53.2477L74.9413 33.4241L74.9698 33.3679C75.0553 33.1148 75.0553 32.7212 74.8556 32.44C74.6847 32.1588 74.314 31.8495 73.9718 31.8495H70.7787C70.4082 31.8495 70.0375 32.2431 69.8665 32.6087L62.9671 47.3991L62.4824 46.3306L68.4695 33.4523C68.6691 33.1148 68.5549 32.6931 68.384 32.44C68.1844 32.1588 67.8993 31.8495 67.5571 31.8495H64.364C63.9649 31.8495 63.5942 32.215 63.3947 32.6087L59.7455 40.4538L56.0106 32.4681C55.8111 32.1026 55.4404 31.8495 55.0698 31.8495C54.8987 31.8495 54.7562 31.8776 54.6421 31.962C54.1005 32.2431 53.8724 32.8055 54.129 33.3117L58.605 42.9282L53.1881 54.5411L42.8961 32.4119C42.6965 32.0463 42.3544 31.8214 41.9837 31.7933ZM64.5922 50.8295L64.1075 49.8173L71.4914 34.0146H72.4038L64.5922 50.8295Z" fill="#981D87"/>
<path fill-rule="evenodd" clip-rule="evenodd" d="M247.958 41.2C247.958 40.2205 247.156 39.4637 246.222 39.4637C245.242 39.4637 244.484 40.2651 244.484 41.2V58.5622C244.484 59.5417 245.285 60.2984 246.222 60.2984C247.2 60.2984 247.958 59.4971 247.958 58.5622V52.7747L249.695 50.9495L255.929 59.586C256.153 59.8977 256.642 60.3429 257.355 60.3429C258.289 60.3429 259.091 59.5417 259.091 58.6067C259.091 58.2506 258.958 57.8944 258.78 57.6273L252.1 48.5009L257.8 42.3129C258.067 42.0013 258.245 41.6451 258.245 41.1554C258.245 40.2205 257.487 39.4637 256.553 39.4637C256.107 39.4637 255.662 39.6418 255.262 40.0425L248.002 48.1448V41.2H247.958ZM239.229 39.4637C238.295 39.4637 237.493 40.2651 237.493 41.2V53.1755L228.542 40.176C228.229 39.7309 227.74 39.4637 227.162 39.4637C226.225 39.4637 225.424 40.2651 225.424 41.2V58.6067C225.424 59.5417 226.225 60.3429 227.162 60.3429C228.096 60.3429 228.898 59.5417 228.898 58.6067V46.6757L237.849 59.586C238.16 60.0313 238.695 60.3429 239.275 60.3429C240.209 60.3429 241.011 59.5417 241.011 58.6067V41.2C240.965 40.2651 240.209 39.4637 239.229 39.4637ZM217.987 54.778L219.813 59.1855C220.08 59.8087 220.659 60.3429 221.461 60.3429C222.396 60.3429 223.198 59.5417 223.198 58.6067C223.198 58.4286 223.153 58.1615 223.064 57.9835L215.939 40.5767C215.761 40.1315 215.271 39.5083 214.335 39.5083C213.4 39.5083 212.91 40.176 212.732 40.5767L205.607 57.9835C205.518 58.206 205.473 58.4286 205.473 58.6067C205.473 59.5417 206.275 60.3429 207.21 60.3429C208.012 60.3429 208.591 59.8087 208.858 59.1855L210.684 54.778H217.987ZM216.829 51.5727H211.842L214.335 45.2066L216.829 51.5727ZM197.546 60.0758C201.911 60.0758 204.137 57.6718 204.137 53.9767C204.137 51.6173 203.247 49.97 200.975 49.1242C202.222 48.5009 203.202 46.9874 203.202 45.0285C203.202 42.2239 201.554 39.7754 197.012 39.7754H191.579C190.599 39.7754 189.842 40.5767 189.842 41.5116V58.384C189.842 59.3635 190.644 60.1204 191.579 60.1204H197.546V60.0758ZM193.316 50.994H197.546C199.55 50.994 200.53 52.1069 200.53 53.9767C200.53 55.802 199.684 56.9595 197.546 56.9595H193.316V50.994ZM193.316 42.8471H197.012C198.927 42.8471 199.729 43.8265 199.729 45.4292C199.729 46.9428 198.927 48.0113 197.012 48.0113H193.316V42.8471ZM175.369 54.778L177.195 59.1855C177.462 59.8087 178.041 60.3429 178.843 60.3429C179.778 60.3429 180.579 59.5417 180.579 58.6067C180.579 58.4286 180.535 58.1615 180.446 57.9835L173.32 40.5767C173.142 40.1315 172.652 39.5083 171.717 39.5083C170.782 39.5083 170.292 40.176 170.114 40.5767L162.989 57.9835C162.9 58.206 162.855 58.4286 162.855 58.6067C162.855 59.5417 163.657 60.3429 164.592 60.3429C165.393 60.3429 165.972 59.8087 166.24 59.1855L168.065 54.778H175.369ZM174.167 51.5727H169.223L171.717 45.2066L174.167 51.5727ZM150.742 56.8704C151.365 56.8704 151.945 56.5587 152.212 56.0246L156.977 47.5661V58.6067C156.977 59.5417 157.778 60.3429 158.713 60.3429C159.649 60.3429 160.45 59.5417 160.45 58.6067V41.2C160.45 40.2651 159.649 39.4637 158.713 39.4637C157.956 39.4637 157.467 39.9089 157.155 40.4431L150.742 51.9289L144.329 40.4431C144.018 39.9089 143.528 39.4637 142.771 39.4637C141.835 39.4637 141.034 40.2651 141.034 41.2V58.6067C141.034 59.5417 141.835 60.3429 142.771 60.3429C143.706 60.3429 144.507 59.5417 144.507 58.6067V47.5661L149.273 56.0246C149.54 56.5587 150.119 56.8704 150.742 56.8704ZM128.876 42.8471H136.581C137.471 42.8471 138.139 42.1348 138.139 41.289C138.139 40.3986 137.427 39.7309 136.581 39.7309H127.095C126.115 39.7309 125.358 40.5322 125.358 41.4671V58.3397C125.358 59.3189 126.16 60.0758 127.095 60.0758H136.892C137.783 60.0758 138.451 59.3635 138.451 58.5177C138.451 57.6273 137.738 56.9595 136.892 56.9595H128.876V51.3947H134.621C135.467 51.3947 136.18 50.6824 136.18 49.8366C136.18 48.9907 135.467 48.2784 134.621 48.2784H128.876V42.8471ZM114.314 59.0073C114.537 59.7642 115.205 60.2984 116.006 60.2984C116.808 60.2984 117.476 59.7642 117.654 59.0964L122.82 41.7342C122.864 41.5561 122.909 41.4225 122.909 41.2C122.909 40.2205 122.107 39.4637 121.172 39.4637C120.192 39.4637 119.658 40.176 119.524 40.6657L115.962 53.398L112.533 40.7548C112.31 39.9534 111.597 39.4637 110.84 39.4637C110.083 39.4637 109.371 39.9534 109.148 40.7548L105.675 53.398L102.112 40.6657C101.978 40.1315 101.399 39.4637 100.464 39.4637C99.4844 39.4637 98.7273 40.2651 98.7273 41.2C98.7273 41.4225 98.7718 41.5561 98.8164 41.7342L103.982 59.0964C104.205 59.8087 104.873 60.2984 105.63 60.2984C106.432 60.2984 107.1 59.7642 107.322 59.0073L110.796 46.5867L114.314 59.0073Z" fill="#981D87"/>
</g>
<defs>
<clipPath id="clip0_291_8053">
<rect width="218.182" height="40" fill="white" transform="translate(40.9091 30)"/>
</clipPath>
</defs>
</svg>
