<svg width="300" height="100" viewBox="0 0 300 100" fill="none" xmlns="http://www.w3.org/2000/svg">
<rect width="300" height="100" fill="white"/>
<g clip-path="url(#clip0_298_9273)">
<path d="M130.562 65.1781C132.233 65.5959 133.752 66.0723 135.313 66.3606C137.239 66.7157 139.18 66.7784 141.081 66.0994C142.909 65.4538 143.931 64.1439 144.188 62.2741C144.353 61.077 144.344 59.8569 144.43 58.3923C143.95 58.7099 143.642 58.8916 143.36 59.1047C141.127 60.7761 138.605 61.3486 135.873 61.0435C132.576 60.6758 130.366 58.8227 129.187 55.8017C127.855 52.4674 127.73 48.7727 128.832 45.3557C130.691 39.4495 137.011 36.6416 142.711 39.0713C143.218 39.2802 143.716 39.5289 144.336 39.8109C144.399 38.9376 144.919 38.7663 145.663 38.8352C146.452 38.9021 147.251 38.8499 148.101 38.8499C148.122 39.1862 148.155 39.4557 148.155 39.7252C148.155 46.1642 148.176 52.601 148.138 59.04C148.128 60.2932 147.999 61.5426 147.752 62.7713C146.937 66.8536 144.2 69.3001 140.045 69.8349C137.064 70.2193 134.143 69.9059 131.256 69.1873C131.091 69.119 130.945 69.012 130.83 68.8752C130.716 68.7384 130.636 68.576 130.597 68.4017C130.514 67.3655 130.562 66.323 130.562 65.1781ZM144.351 49.1413V46.114C144.351 42.4036 144.298 42.3535 140.59 41.7267C140.521 41.7163 140.454 41.6974 140.381 41.6891C136.142 41.0916 132.992 43.139 132.392 47.2276C132.126 49.2549 132.18 51.3114 132.553 53.3218C133.067 56.2655 134.884 57.5211 137.874 57.5525C140.089 57.5775 142.036 56.8191 143.797 55.5573C143.955 55.4188 144.083 55.2502 144.174 55.0615C144.266 54.8728 144.319 54.6678 144.33 54.4583C144.39 52.6992 144.359 50.9171 144.359 49.1476L144.351 49.1413Z" fill="#232121"/>
<path d="M59.8692 49.273L66.304 46.3334C66.304 48.6504 66.3145 50.8336 66.2873 53.0189C66.2726 53.1455 66.2301 53.2673 66.163 53.3757C66.0958 53.484 66.0056 53.5762 65.8987 53.6457C61.2231 56.0873 56.5425 58.5135 51.8571 60.9245C51.8383 60.9245 51.7965 60.8952 51.7192 60.8555V30.071H59.8692V49.273Z" fill="#090A0B"/>
<path d="M67.5054 46.2979L74.2118 49.0912V30.0585H82.3806V60.9412C82.0045 60.7761 81.7204 60.6696 81.453 60.5233C77.0531 58.2816 72.6595 56.0294 68.2513 53.8044C67.7248 53.5391 67.4824 53.255 67.495 52.6282C67.5263 50.587 67.5054 48.5375 67.5054 46.2979Z" fill="#0293DC"/>
<path d="M192.624 61.4155H188.936C188.92 61.0812 188.893 60.7887 188.893 60.4774V49.1957C188.893 48.1887 188.838 47.1775 188.74 46.1768C188.404 42.7672 186.766 41.4531 183.35 41.8647C181.284 42.1133 179.529 43.1057 177.905 44.3299C177.657 44.518 177.58 45.057 177.58 45.433C177.559 50.374 177.565 55.3171 177.565 60.2664V61.3758H173.769V30.0105H177.5V41.2922C178.3 40.7637 178.944 40.3249 179.602 39.905C182.14 38.29 184.885 37.7782 187.789 38.5846C191.038 39.4872 192.467 41.9921 192.572 45.0779C192.756 50.4952 192.624 55.9209 192.624 61.4155Z" fill="#262424"/>
<path d="M104.252 61.4092H100.492V60.2518C100.442 55.5552 100.402 50.8503 100.323 46.1621C100.306 45.5363 100.189 44.9171 99.9779 44.3278C99.2655 42.3075 97.2765 41.4405 94.6003 41.9127C92.7032 42.249 91.0611 43.1474 89.5527 44.286C89.2749 44.4949 89.1349 45.0486 89.1349 45.4434C89.1077 50.351 89.1161 55.2627 89.1161 60.1661V61.382H85.3868V30H89.0952V41.2943C89.9162 40.7511 90.589 40.2873 91.2784 39.8527C93.048 38.7185 95.1243 38.1575 97.2243 38.2461C100.941 38.3777 103.367 40.4084 104.043 44.0562C104.191 44.8431 104.268 45.6415 104.273 46.4421C104.294 51.2096 104.286 55.9793 104.286 60.7469C104.284 60.9475 104.265 61.148 104.252 61.4092ZM127.426 50.2173C127.367 52.4799 127.008 54.6631 125.995 56.6938C123.968 60.7155 120.026 62.5812 115.035 61.9168C110.917 61.3611 107.71 58.1772 106.839 53.7063C106.28 51.0375 106.364 48.274 107.083 45.644C108.502 40.6299 112.43 37.9787 117.899 38.2774C122.556 38.5302 126.185 41.896 127.052 46.8119C127.246 47.9275 127.305 49.0787 127.426 50.2173ZM110.253 50.0334L110.388 50.071C110.472 51.0049 110.51 51.9513 110.656 52.8727C110.768 53.5582 110.953 54.2298 111.207 54.8762C112.175 57.3666 114.241 58.735 116.959 58.7308C119.642 58.7308 121.798 57.3352 122.671 54.8261C123.748 51.779 123.748 48.455 122.671 45.4079C121.793 42.8507 119.767 41.5742 116.953 41.5742C114.063 41.5742 112.039 42.8424 111.18 45.4643C110.702 46.933 110.551 48.5083 110.253 50.0334ZM215.921 50.5975C215.634 51.9764 215.448 53.8316 214.857 55.5468C213.405 59.7462 209.843 62.0861 205.301 62.0673C200.759 62.0485 197.245 59.6647 195.774 55.4779C194.569 52.1042 194.544 48.4216 195.703 45.0319C197.272 40.3082 201.114 37.9432 206.427 38.2754C210.904 38.5553 214.456 41.7873 215.411 46.511C215.651 47.6998 215.716 48.922 215.921 50.5975ZM198.674 50.1922C198.969 51.7069 199.113 53.2821 199.598 54.7446C200.467 57.3707 202.64 58.7517 205.447 58.7308C208.142 58.7099 210.294 57.2412 211.153 54.661C212.131 51.7315 212.141 48.5652 211.182 45.6294C210.347 42.9594 208.257 41.5847 205.401 41.5763C202.437 41.5763 200.387 42.8988 199.535 45.6315C199.086 47.073 198.96 48.6149 198.674 50.1922ZM171.55 50.725C171.191 52.2396 170.95 54.2766 170.223 56.1109C168.644 60.1222 164.883 62.2699 160.385 62.061C155.914 61.8521 152.509 59.2844 151.193 55.0057C150.206 51.8598 150.206 48.487 151.193 45.3411C152.668 40.5359 156.437 38.0497 161.701 38.2607C166.279 38.4446 169.862 41.4907 170.925 46.1997C171.212 47.5076 171.297 48.8697 171.55 50.725ZM167.528 50.5286C167.374 49.0661 167.298 48.0215 167.14 46.9895C167.038 46.4075 166.873 45.8386 166.647 45.293C165.673 42.8298 163.722 41.5721 160.939 41.5784C158.156 41.5847 156.144 42.788 155.24 45.2888C154.082 48.3877 154.082 51.8003 155.24 54.8992C156.176 57.4606 158.307 58.7809 161.089 58.7433C163.736 58.7057 165.907 57.2558 166.713 54.7216C167.181 53.2404 167.315 51.6672 167.528 50.5286ZM216.662 55.8519C218.261 56.6207 219.683 57.423 221.192 58.0059C223.419 58.8687 225.736 59.0317 228.048 58.3046C229.628 57.8095 230.357 56.8275 230.361 55.3421C230.361 54.0071 229.927 53.1777 228.648 52.787C226.858 52.2396 225.009 51.897 223.191 51.4353C222.318 51.2138 221.447 50.9631 220.598 50.6581C218.235 49.8078 216.869 48.1343 216.735 45.6085C216.598 43.022 217.671 40.9788 219.917 39.6898C223.128 37.845 226.586 37.9411 230.058 38.7287C233.447 39.4975 233.439 39.5372 233.428 42.9719V44.0165L232.624 43.5527C229.847 41.9294 226.92 40.9516 223.663 41.6327C222.372 41.9022 221.183 42.435 220.757 43.864C220.316 45.3264 220.939 46.7283 222.552 47.2631C224.432 47.8899 226.383 48.2304 228.303 48.7005C228.809 48.8238 229.321 48.9366 229.814 49.0975C232.112 49.8433 233.852 51.1679 234.226 53.723C234.632 56.5121 233.6 58.7183 231.258 60.2559C228.669 61.9503 225.738 62.1592 222.805 61.7748C220.966 61.5345 219.186 60.8388 217.373 60.3458C216.836 60.1995 216.608 59.8841 216.637 59.2844C216.696 58.1563 216.662 57.0135 216.662 55.8519ZM236.251 42.0589H233.717V38.8896H236.251V32.3838H240.064V38.8227H247.952V42.0067H240.064V53.9778C240.064 58.2419 242.259 58.9481 245.761 58.4446C246.473 58.3422 247.161 58.0727 247.938 57.8575V61.265C245.673 61.8416 243.385 62.1926 241.043 61.6829C238.194 61.0561 236.447 58.9335 236.336 55.5928C236.201 51.5251 236.263 47.4449 236.242 43.3772C236.249 42.9552 236.251 42.5436 236.251 42.0589Z" fill="#232121"/>
</g>
<defs>
<clipPath id="clip0_298_9273">
<rect width="196.242" height="40" fill="white" transform="translate(51.7109 30)"/>
</clipPath>
</defs>
</svg>
