<svg width="300" height="100" viewBox="0 0 300 100" fill="none" xmlns="http://www.w3.org/2000/svg">
<rect width="300" height="100" fill="white"/>
<path d="M186.257 44.4016C190.317 44.4016 194.25 44.2752 198.167 44.4333C201.64 44.5756 204.353 46.1881 206.129 49.3814C206.129 47.7689 206.129 46.1564 206.129 44.449C213.44 44.449 220.593 44.449 227.872 44.449C227.872 46.4094 227.872 48.3854 227.872 50.5038C225.398 50.5038 222.94 50.5038 220.307 50.5038C220.307 56.7482 220.307 62.8504 220.307 69.0316C218.135 69.0316 216.136 69.0316 213.964 69.0316C213.964 62.9136 213.964 56.8114 213.964 50.6145C211.378 50.6145 208.983 50.6145 206.811 50.6145C206.715 52.7328 206.921 54.8196 206.462 56.7482C205.479 60.9218 202.37 63.2456 197.914 63.467C196.184 63.546 194.44 63.4827 192.553 63.4827C192.553 65.4113 192.553 67.1661 192.553 69.0157C190.396 69.0157 188.366 69.0157 186.257 69.0157C186.257 60.8268 186.257 52.6696 186.257 44.4016ZM192.6 57.6651C194.314 57.6651 195.884 57.7442 197.453 57.6493C199.23 57.5228 200.276 56.274 200.467 54.2821C200.641 52.5273 199.737 50.6302 198.262 50.4248C196.423 50.1718 194.504 50.3615 192.6 50.3615C192.6 52.7803 192.6 55.1357 192.6 57.6651Z" fill="black"/>
<path d="M89.054 55.3422C87.5473 59.9109 86.0407 64.4638 84.534 69.0483C82.3454 69.0483 80.2044 69.0483 77.9365 69.0483C75.6368 60.9068 73.3372 52.7496 71.0059 44.4658C73.3055 44.4658 75.4782 44.4658 77.7779 44.4658C79.0625 49.161 80.3471 53.8878 81.6317 58.6146C81.711 58.6304 81.8062 58.6304 81.8855 58.6462C83.3763 53.9352 84.8671 49.24 86.3736 44.4658C88.2609 44.4658 90.1165 44.4658 92.0831 44.4658C93.558 49.1294 95.0488 53.8088 96.5237 58.4881C96.619 58.5039 96.7299 58.5198 96.825 58.5355C98.1098 53.8404 99.3944 49.161 100.695 44.4342C102.947 44.4342 105.104 44.4342 107.498 44.4342C105.183 52.6706 102.883 60.8278 100.584 69.0325C98.3476 69.0325 96.1907 69.0325 93.9545 69.0325C92.4478 64.4797 90.9254 59.9109 89.4187 55.358C89.3077 55.3422 89.1808 55.3422 89.054 55.3422Z" fill="black"/>
<path d="M162.657 69.0311C160.009 69.0311 157.582 69.0311 155.061 69.0311C153.538 66.897 151.984 64.7313 150.43 62.5338C149.399 62.5338 148.384 62.5338 147.226 62.5338C147.226 64.6837 147.226 66.7863 147.226 68.9995C145.069 68.9995 143.039 68.9995 140.898 68.9995C140.898 60.8423 140.898 52.7008 140.898 44.4961C140.898 44.4961 140.962 44.3854 141.025 44.3854C145.64 44.4171 150.271 44.1641 154.839 44.5909C159.834 45.0652 162.689 49.1439 162.197 54.1868C161.88 57.4593 160.485 60.0202 157.376 61.6327C159.105 64.0673 160.802 66.4385 162.657 69.0311ZM147.242 56.653C149.367 56.653 151.413 56.7795 153.443 56.6213C155.172 56.4791 156.092 55.1828 156.076 53.428C156.06 51.6574 155.14 50.3611 153.554 50.2663C151.476 50.1556 149.399 50.2347 147.242 50.2347C147.242 52.3688 147.242 54.4397 147.242 56.653Z" fill="black"/>
<path d="M175.964 69.0318C173.807 69.0318 171.856 69.0318 169.747 69.0318C169.747 66.5656 169.699 64.1468 169.763 61.7281C169.794 60.6215 169.525 59.7046 168.922 58.7561C165.925 54.0609 163.007 49.3183 159.977 44.4651C162.515 44.4651 164.926 44.4651 167.463 44.4651C169.176 47.2632 170.936 50.1561 172.855 53.2863C174.743 50.2194 176.535 47.3265 178.343 44.4176C180.785 44.4176 183.211 44.4176 185.844 44.4176C184.433 46.6625 183.116 48.7809 181.8 50.8992C180.04 53.7131 178.247 56.5113 176.519 59.341C176.202 59.8469 176.027 60.5108 176.011 61.1115C175.932 63.72 175.964 66.3126 175.964 69.0318Z" fill="black"/>
<path d="M128.037 43.8802C131.748 43.9276 134.65 45.0027 137.14 47.1369C138.679 48.449 138.948 50.3933 137.759 51.7371C136.553 53.0967 134.571 53.1599 133.064 51.8794C129.877 49.1604 125.563 49.4765 123.105 52.6066C120.964 55.3415 121.217 59.104 123.723 61.5386C126.229 63.9889 130.099 64.1312 132.811 61.8863C133.175 61.5859 133.509 61.2382 133.905 61.0326C135.301 60.2896 137.124 60.7639 138.013 62.0444C138.917 63.3565 138.695 65.048 137.378 66.1704C134.048 69.0476 130.194 70.2017 125.848 69.3321C119.727 68.1307 115.397 63.0245 115.254 56.9539C115.111 51.0099 119.393 45.635 125.436 44.228C126.403 43.975 127.45 43.9434 128.037 43.8802Z" fill="black"/>
<path d="M107.832 69.0005C107.832 60.7641 107.832 52.6384 107.832 44.4496C109.926 44.4496 111.956 44.4496 114.113 44.4496C114.113 52.6227 114.113 60.7641 114.113 69.0005C112.035 69.0005 110.021 69.0005 107.832 69.0005Z" fill="black"/>
<path d="M124.563 56.575C124.563 54.4725 126.149 52.8757 128.258 52.86C130.415 52.8441 131.985 54.4725 131.953 56.6857C131.922 58.6933 130.288 60.3691 128.322 60.3848C126.212 60.4323 124.563 58.7408 124.563 56.575Z" fill="black"/>
<path d="M128.56 30C134.92 30.1265 140.645 32.0235 145.466 36.276C146.608 37.272 146.735 38.2363 145.911 39.2323C145.149 40.165 144.007 40.2124 142.913 39.2481C140.138 36.7977 136.886 35.1694 133.318 34.4422C126.562 33.0827 120.282 34.3316 114.699 38.5525C114.096 39.0109 113.573 39.6117 112.891 39.8646C112.035 40.1808 111.178 40.0069 110.576 39.1216C109.878 38.1099 110.084 37.2088 110.893 36.5132C112.003 35.5488 113.192 34.6636 114.429 33.8889C117.284 32.1184 120.44 31.0276 123.691 30.332C125.277 29.9842 126.943 30.0949 128.56 30Z" fill="#E5B910"/>
<path d="M140.28 41.6043C136.632 38.5848 132.525 37.2253 127.989 37.2727C123.453 37.2411 119.345 38.5848 115.698 41.6043C114.619 42.5054 114.476 43.5962 115.333 44.5763C115.888 45.2087 117.03 45.5722 118.077 44.8134C118.378 44.6553 118.695 44.4498 118.996 44.2127C121.613 42.1892 124.595 41.1616 127.751 41.0984C127.83 41.0984 127.909 41.0984 127.989 41.0984C128.068 41.0984 128.147 41.0984 128.227 41.0984C131.399 41.1616 134.364 42.1892 136.981 44.2127C137.298 44.4498 137.6 44.6553 137.901 44.8134C138.932 45.5722 140.09 45.2087 140.645 44.5763C141.501 43.5962 141.374 42.5054 140.28 41.6043Z" fill="#E5B910"/>
<path d="M128.29 44.8439C130.749 44.7332 132.953 45.5236 134.951 46.9305C136.188 47.8001 136.474 48.9067 135.776 49.9501C134.999 51.1041 133.921 51.3255 132.588 50.4244C129.654 48.4324 126.768 48.464 123.834 50.4559C122.422 51.4045 121.376 51.1832 120.583 49.9501C119.917 48.9383 120.234 47.8475 121.518 46.9464C123.533 45.5236 125.769 44.6857 128.29 44.8439Z" fill="#E5B910"/>
</svg>
