<svg width="300" height="100" viewBox="0 0 300 100" fill="none" xmlns="http://www.w3.org/2000/svg">
<rect width="300" height="100" fill="white"/>
<g clip-path="url(#clip0_298_9251)">
<path d="M107.8 40.2545H112.896L115.519 48.763C115.945 50.3196 116.351 52.0468 116.713 53.9021C117.041 52.1578 117.497 50.4399 118.078 48.763L120.807 40.2545H125.776L128.442 48.763C128.676 49.5519 129.486 52.5374 129.721 53.8594C130.041 52.3667 130.681 49.9997 131.043 48.763L133.687 40.2545H138.869L132.003 60.0861H127.439L124.71 51.4924C123.899 48.8695 123.452 46.993 123.302 45.9907C123.089 46.9077 122.727 48.3151 121.724 51.5778L118.995 60.0861H114.218L107.8 40.2545Z" fill="black"/>
<path d="M141.279 33.3027C141.275 32.7122 141.445 32.1338 141.77 31.6406C142.095 31.1473 142.558 30.7613 143.102 30.5315C143.646 30.3016 144.246 30.2382 144.826 30.3493C145.405 30.4604 145.939 30.7409 146.36 31.1554C146.78 31.5699 147.068 32.0998 147.188 32.6781C147.307 33.2564 147.252 33.857 147.03 34.4041C146.808 34.9512 146.429 35.4202 145.94 35.7518C145.452 36.0833 144.876 36.2625 144.285 36.2668C143.893 36.2724 143.503 36.1999 143.138 36.0535C142.773 35.9071 142.442 35.6896 142.162 35.4138C141.882 35.138 141.66 34.8094 141.508 34.4469C141.357 34.0845 141.279 33.6955 141.279 33.3027ZM141.833 40.2544H146.738V60.0861H141.833V40.2544Z" fill="black"/>
<path d="M164.245 44.7113H162.433C158.893 44.7113 156.696 46.5878 156.696 50.4475V60.0861H151.792V40.2971H156.419L156.696 43.1759C157.528 41.2141 159.426 39.892 162.07 39.892C162.804 39.8974 163.534 39.9905 164.245 40.1692V44.7113Z" fill="black"/>
<path d="M165.716 50.1704C165.716 43.9436 169.79 39.6361 175.61 39.6361C181.432 39.6361 185.313 43.6238 185.313 49.8078V51.2792L170.386 51.3219C170.748 54.8191 172.582 56.589 175.845 56.589C178.533 56.589 180.302 55.5441 180.856 53.6462H185.398C184.546 57.9964 180.942 60.598 175.761 60.598C169.853 60.598 165.716 56.3117 165.716 50.1704ZM170.514 48.1872H180.451C180.451 45.4576 178.575 43.6664 175.632 43.6664C172.689 43.6664 170.984 45.2231 170.514 48.1872Z" fill="black"/>
<path d="M189.259 40.2545H193.779L194.099 43.2613C195.315 40.9795 197.916 39.6361 200.923 39.6361C206.51 39.6361 210.199 43.709 210.199 49.9145C210.199 56.1198 206.83 60.598 200.923 60.598C197.959 60.598 195.401 59.4251 194.142 57.4207V69.2769H189.259V40.2545ZM199.772 56.1838C203.226 56.1838 205.273 53.6889 205.273 50.1704C205.273 46.6518 203.226 44.0929 199.772 44.0929C196.317 44.0929 194.185 46.5878 194.185 50.1704C194.185 53.7528 196.402 56.1838 199.772 56.1838Z" fill="black"/>
<path d="M213.205 54.4139C213.205 50.7675 215.871 48.4858 220.563 48.1232L226.512 47.6753V47.2276C226.512 44.5407 224.891 43.4532 222.397 43.4532C219.518 43.4532 217.918 44.6687 217.918 46.7585H213.739C213.739 42.451 217.278 39.6361 222.653 39.6361C228.026 39.6361 231.289 42.5362 231.289 48.0379V60.0861H226.981L226.619 57.1435C225.787 59.1905 223.1 60.598 220.008 60.598C215.786 60.598 213.205 58.1456 213.205 54.4139ZM226.534 52.0468V51.002L222.397 51.3219C219.347 51.5991 218.196 52.6013 218.196 54.222C218.196 55.8426 219.39 56.9088 221.608 56.9088C224.614 56.9088 226.534 55.0963 226.534 52.0468Z" fill="black"/>
<path d="M233.805 65.1827H236.747C238.667 65.1827 239.861 64.7348 240.715 62.4105L241.268 60.9179L233.293 40.2545H238.454L243.572 54.6911L248.945 40.2545H253.999L244.276 64.5003C242.804 68.1894 240.715 69.7034 237.452 69.7034C236.222 69.715 234.998 69.5717 233.805 69.277V65.1827Z" fill="black"/>
<path d="M55.5549 33.3454L47.3023 39.1882C47.1233 39.3172 46.9777 39.487 46.8776 39.6836C46.7775 39.8802 46.7257 40.0978 46.7266 40.3184V63.7752C46.7256 64.1691 46.8348 64.5554 47.0418 64.8905C47.2489 65.2255 47.5456 65.496 47.8983 65.6712C48.2511 65.8465 48.6458 65.9196 49.0379 65.8823C49.43 65.8449 49.8038 65.6985 50.1171 65.4598L70.5672 51.4498V64.9054C70.5717 65.2926 70.6816 65.6714 70.885 66.0008C71.0884 66.3303 71.3776 66.5983 71.7218 66.7757C72.066 66.9533 72.4519 67.0338 72.8383 67.0086C73.2247 66.9834 73.597 66.8534 73.9152 66.6327L100.528 47.5687C100.712 47.4388 100.863 47.2663 100.967 47.0659C101.071 46.8654 101.125 46.643 101.125 46.4172V34.4756C101.119 34.2156 101.043 33.9621 100.904 33.7425C100.765 33.5228 100.568 33.3453 100.336 33.229C100.103 33.1127 99.8432 33.0621 99.5839 33.0826C99.3247 33.1031 99.076 33.194 98.8646 33.3454L79.4807 47.6114V34.4756C79.4798 34.216 79.407 33.9617 79.2707 33.7409C79.1342 33.5201 78.9393 33.3413 78.7075 33.2244C78.4759 33.1074 78.2163 33.0568 77.9576 33.0781C77.6989 33.0995 77.4512 33.192 77.2417 33.3454L57.8152 46.6731V34.4756C57.8095 34.2156 57.733 33.9621 57.5939 33.7425C57.4548 33.5228 57.2584 33.3453 57.0258 33.229C56.7932 33.1127 56.5333 33.0621 56.2741 33.0826C56.0149 33.1031 55.7662 33.194 55.5549 33.3454Z" fill="black"/>
</g>
<defs>
<clipPath id="clip0_298_9251">
<rect width="207.273" height="40" fill="white" transform="translate(46.7266 30)"/>
</clipPath>
</defs>
</svg>
