<svg width="300" height="100" viewBox="0 0 300 100" fill="none" xmlns="http://www.w3.org/2000/svg">
<rect width="300" height="100" fill="white"/>
<mask id="mask0_298_9213" style="mask-type:luminance" maskUnits="userSpaceOnUse" x="106" y="39" width="89" height="22">
<path d="M194.891 39.8658H106.158V60.1341H194.891V39.8658Z" fill="white"/>
</mask>
<g mask="url(#mask0_298_9213)">
<path d="M117.128 47.2536C117.128 43.1742 120.435 39.8672 124.515 39.8672H126.435V52.749C126.435 56.8284 123.128 60.1356 119.049 60.1356H117.128V47.2536Z" fill="#FFCF33"/>
<path d="M106.167 46.1899C106.167 50.2693 109.474 53.5763 113.553 53.5763H115.474V47.2536C115.474 43.1742 112.167 39.8672 108.087 39.8672H106.167V46.1899Z" fill="#FFCF33"/>
<path d="M115.474 53.5225L106.223 39.8672H108.087C112.167 39.8672 115.474 43.1742 115.474 47.2536V53.5225Z" fill="#FFD755"/>
<path d="M140.956 50.8286C145.036 50.8286 148.343 54.1356 148.343 58.215V60.1356H135.461C131.382 60.1356 128.075 56.8285 128.075 52.7491V50.8286H140.956Z" fill="#4FA58C"/>
<path d="M145.643 60.1356L139.338 50.8286H140.956C145.036 50.8286 148.343 54.1356 148.343 58.215V60.1356H145.643Z" fill="#6CB49F"/>
<path d="M140.956 49.174C145.036 49.174 148.343 45.867 148.343 41.7877V39.8672H135.461C131.382 39.8672 128.075 43.1742 128.075 47.2536V49.174H140.956Z" fill="#492B7C"/>
<path d="M138.217 49.174L132.37 40.5429C133.311 40.1091 134.357 39.8672 135.461 39.8672H148.343V41.7877C148.343 45.867 145.036 49.174 140.956 49.174H138.217Z" fill="#674E92"/>
<path d="M182.224 50.8346V60.1341H179.948V59.3411C179.504 59.8698 178.838 60.1341 177.95 60.1341C177.329 60.1341 176.764 59.9914 176.253 59.7062C175.741 59.4124 175.335 58.997 175.033 58.46C174.74 57.9229 174.593 57.3019 174.593 56.597C174.593 55.892 174.74 55.2752 175.033 54.7465C175.335 54.2094 175.741 53.7982 176.253 53.5129C176.764 53.2276 177.329 53.0849 177.95 53.0849C178.763 53.0849 179.391 53.3199 179.835 53.7899V52.2951C179.835 51.4885 180.489 50.8346 181.296 50.8346H182.224ZM178.453 58.2334C178.863 58.2334 179.202 58.0907 179.471 57.8054C179.739 57.5117 179.873 57.1088 179.873 56.597C179.873 56.0934 179.739 55.699 179.471 55.4137C179.211 55.1284 178.871 54.9857 178.453 54.9857C178.033 54.9857 177.69 55.1284 177.422 55.4137C177.154 55.699 177.019 56.0934 177.019 56.597C177.019 57.1088 177.154 57.5117 177.422 57.8054C177.69 58.0907 178.033 58.2334 178.453 58.2334Z" fill="black"/>
<path d="M172.128 54.0188C172.374 53.7026 172.692 53.4675 173.082 53.3136C173.481 53.1513 173.935 53.0701 174.444 53.0701V55.2624C174.224 55.2367 174.041 55.2239 173.897 55.2239C173.379 55.2239 172.972 55.3649 172.675 55.647C172.387 55.929 172.242 56.3607 172.242 56.9418V60.1342H169.824V53.0701H172.128V54.0188Z" fill="black"/>
<path fill-rule="evenodd" clip-rule="evenodd" d="M163.1 59.6734C163.589 59.9807 164.142 60.1342 164.759 60.1342C165.211 60.1342 165.621 60.0456 165.99 59.8689C166.228 59.7547 166.435 59.6133 166.612 59.4447V60.1342H168.9V53.0701H166.612V53.7731C166.43 53.5972 166.218 53.4513 165.976 53.3353C165.616 53.1585 165.211 53.0701 164.759 53.0701C164.142 53.0701 163.589 53.2236 163.1 53.5308C162.621 53.8379 162.239 54.2567 161.953 54.7872C161.676 55.3177 161.538 55.9227 161.538 56.6021C161.538 57.2815 161.676 57.8865 161.953 58.417C162.239 58.9475 162.621 59.3663 163.1 59.6734ZM166.28 57.7608C166.004 58.0587 165.64 58.2076 165.188 58.2076C164.902 58.2076 164.644 58.1378 164.414 57.9982C164.183 57.8586 164.004 57.6678 163.875 57.4258C163.746 57.1838 163.681 56.9092 163.681 56.6021C163.681 56.2857 163.746 56.0065 163.875 55.7645C164.013 55.5225 164.193 55.3364 164.414 55.206C164.644 55.0664 164.907 54.9966 165.202 54.9966C165.497 54.9966 165.755 55.0664 165.976 55.206C166.206 55.3364 166.382 55.5225 166.501 55.7645C166.63 56.0065 166.695 56.2857 166.695 56.6021C166.695 57.0675 166.557 57.4537 166.28 57.7608Z" fill="black"/>
<path d="M157.693 60.1341C156.756 60.1341 155.913 59.9383 155.164 59.5465C154.423 59.1463 153.839 58.5927 153.414 57.8859C152.988 57.1791 152.775 56.3786 152.775 55.4844C152.775 54.5902 152.988 53.7897 153.414 53.0829C153.839 52.376 154.423 51.8267 155.164 51.435C155.913 51.0347 156.756 50.8346 157.693 50.8346C158.511 50.8346 159.247 50.9794 159.903 51.2689C160.559 51.5585 161.104 51.9758 161.538 52.5208L159.928 53.977C159.349 53.2787 158.647 52.9296 157.821 52.9296C157.335 52.9296 156.901 53.036 156.518 53.2489C156.143 53.4618 155.849 53.7641 155.636 54.1559C155.432 54.5391 155.33 54.9819 155.33 55.4844C155.33 55.9868 155.432 56.4339 155.636 56.8257C155.849 57.2089 156.143 57.5069 156.518 57.7198C156.901 57.9327 157.335 58.0392 157.821 58.0392C158.647 58.0392 159.349 57.69 159.928 56.9917L161.538 58.448C161.104 58.993 160.559 59.4103 159.903 59.6998C159.247 59.9893 158.511 60.1341 157.693 60.1341Z" fill="black"/>
<path fill-rule="evenodd" clip-rule="evenodd" d="M192.571 49.1355L194.896 42.0141H192.746L191.462 46.0451L190.212 42.0118H188.178L186.894 46.0079L185.655 42.0141H183.353L185.677 49.1355H187.967L189.146 45.5561L190.28 49.1355H192.571Z" fill="black"/>
<path d="M179.616 49.1654C178.856 49.1654 178.17 49.0081 177.559 48.6934C176.948 48.3787 176.467 47.9416 176.118 47.3822C175.777 46.8227 175.607 46.1889 175.607 45.4808C175.607 44.7815 175.777 44.1521 176.118 43.5927C176.467 43.0332 176.943 42.6005 177.546 42.2946C178.157 41.9799 178.847 41.8225 179.616 41.8225C180.385 41.8225 181.075 41.9799 181.686 42.2946C182.297 42.6005 182.773 43.0332 183.114 43.5927C183.455 44.1434 183.625 44.7728 183.625 45.4808C183.625 46.1889 183.455 46.8227 183.114 47.3822C182.773 47.9416 182.297 48.3787 181.686 48.6934C181.075 49.0081 180.385 49.1654 179.616 49.1654ZM179.616 47.1855C180.053 47.1855 180.411 47.0368 180.69 46.7396C180.97 46.4337 181.109 46.0141 181.109 45.4808C181.109 44.9563 180.97 44.5455 180.69 44.2483C180.411 43.9511 180.053 43.8025 179.616 43.8025C179.179 43.8025 178.821 43.9511 178.542 44.2483C178.262 44.5455 178.122 44.9563 178.122 45.4808C178.122 46.0141 178.262 46.4337 178.542 46.7396C178.821 47.0368 179.179 47.1855 179.616 47.1855Z" fill="black"/>
<path d="M168.774 39.8658H169.803C170.61 39.8658 171.264 40.5197 171.264 41.3264V49.1654H168.774V39.8658Z" fill="black"/>
<path d="M172.417 39.8658H173.446C174.253 39.8658 174.907 40.5197 174.907 41.3264V49.1654H172.417V39.8658Z" fill="black"/>
<path d="M168.095 45.5071C168.095 45.5246 168.082 45.73 168.056 46.1233H162.894C162.999 46.4905 163.2 46.7746 163.497 46.9757C163.802 47.168 164.182 47.2641 164.636 47.2641C164.977 47.2641 165.27 47.216 165.514 47.1199C165.767 47.0237 166.021 46.8664 166.274 46.6478L167.584 48.0115C166.894 48.7808 165.885 49.1654 164.558 49.1654C163.728 49.1654 162.999 49.0081 162.37 48.6934C161.741 48.3787 161.252 47.9416 160.902 47.3822C160.562 46.8227 160.392 46.1889 160.392 45.4808C160.392 44.7815 160.558 44.1565 160.889 43.6058C161.23 43.0463 161.697 42.6092 162.291 42.2946C162.885 41.9799 163.553 41.8225 164.296 41.8225C165.003 41.8225 165.645 41.9711 166.222 42.2683C166.798 42.5568 167.252 42.9808 167.584 43.5402C167.925 44.0909 168.095 44.7466 168.095 45.5071ZM164.309 43.5927C163.925 43.5927 163.601 43.7019 163.339 43.9205C163.086 44.139 162.925 44.4362 162.855 44.8121H165.763C165.693 44.4362 165.527 44.139 165.265 43.9205C165.012 43.7019 164.693 43.5927 164.309 43.5927Z" fill="black"/>
<path d="M158.033 45.7533V49.1593H155.438V45.714L151.94 39.8658H154.12C154.467 39.8658 154.787 40.048 154.965 40.3455L156.853 43.5111L158.742 40.3455C158.92 40.048 159.24 39.8658 159.587 39.8658H161.544L158.033 45.7533Z" fill="black"/>
</g>
</svg>
