<svg width="300" height="100" viewBox="0 0 300 100" fill="none" xmlns="http://www.w3.org/2000/svg">
<rect width="300" height="100" fill="white"/>
<g clip-path="url(#clip0_298_9208)">
<path d="M69.7734 30H229.773V70H69.7734V30Z" fill="white"/>
<path fill-rule="evenodd" clip-rule="evenodd" d="M76.0581 56.3352H94.661C92.1234 53.4975 90.8546 49.5624 90.8546 44.5301C90.8546 44.0477 90.74 43.5511 90.5111 43.0402C90.2821 42.5295 89.953 42.0423 89.5237 41.5787C89.0944 41.1152 88.5149 40.7346 87.785 40.4367C87.0552 40.1386 86.2467 39.9896 85.3594 39.9896C84.4723 39.9896 83.6637 40.1386 82.9339 40.4367C82.2042 40.7346 81.6247 41.1154 81.1952 41.5787C80.7659 42.0423 80.4368 42.5295 80.208 43.0402C79.9789 43.5511 79.8645 44.0477 79.8645 44.5301C79.8645 49.5624 78.5957 53.4975 76.0581 56.3352ZM97.2653 56.3352C97.2653 56.8271 97.0842 57.2528 96.7216 57.6122C96.3591 57.9717 95.9298 58.1514 95.4336 58.1514H89.0229C89.0229 59.1541 88.6651 60.0101 87.9496 60.7197C87.2341 61.4291 86.3707 61.7839 85.3595 61.7839C84.3483 61.7839 83.4848 61.4291 82.7695 60.7197C82.0539 60.0101 81.6962 59.1541 81.6962 58.1514H75.2853C74.7893 58.1514 74.3599 57.9717 73.9973 57.6122C73.6349 57.2528 73.4536 56.8271 73.4536 56.3352C73.9172 55.9509 74.3524 55.5336 74.7559 55.0866C75.1469 54.6515 75.5525 54.0863 75.9722 53.3911C76.3919 52.6959 76.7474 51.9461 77.0383 51.1421C77.3293 50.3381 77.5679 49.3637 77.7538 48.2192C77.9399 47.0746 78.0328 45.8448 78.0328 44.5301C78.0328 43.0923 78.5909 41.7562 79.7071 40.5218C80.8232 39.2874 82.2877 38.5378 84.1002 38.2728C84.0249 38.098 83.986 37.9097 83.9858 37.7194C83.9858 37.341 84.1194 37.0194 84.3864 36.7546C84.6536 36.4898 84.9779 36.3573 85.3595 36.3573C85.7411 36.3573 86.0655 36.4898 86.3325 36.7546C86.5997 37.0194 86.7333 37.341 86.7333 37.7194C86.733 37.9097 86.6941 38.098 86.6187 38.2728C88.4314 38.5376 89.8957 39.2872 91.0119 40.5218C92.1282 41.7562 92.6863 43.0923 92.6863 44.5301C92.6863 45.845 92.7792 47.0746 92.9653 48.2192C93.1512 49.3637 93.3898 50.3381 93.6807 51.1421C93.9717 51.9461 94.3271 52.6959 94.7469 53.3911C95.1666 54.0863 95.572 54.6515 95.9632 55.0866C96.3666 55.5336 96.8018 55.9509 97.2653 56.3352ZM83.0699 57.9243C83.2226 57.9243 83.2987 58 83.2987 58.1514C83.2987 58.7095 83.5016 59.1896 83.9071 59.5915C84.3125 59.9936 84.7967 60.1946 85.3595 60.1946C85.5122 60.1946 85.5883 60.2703 85.5883 60.4216C85.5883 60.573 85.5122 60.6487 85.3595 60.6487C84.6631 60.6487 84.0691 60.4051 83.5779 59.9179C83.0867 59.4307 82.841 58.8419 82.841 58.1514C82.841 58 82.9175 57.9243 83.0699 57.9243ZM87.1303 41.564C87.8267 41.564 88.4207 41.8075 88.9119 42.2947C89.4032 42.7819 89.6488 43.3707 89.6488 44.0611C89.6488 44.2127 89.5725 44.2883 89.4199 44.2883C89.2672 44.2883 89.1909 44.2127 89.1909 44.0611C89.1909 43.5032 88.9882 43.0231 88.5827 42.6211C88.1773 42.2191 87.6931 42.0179 87.1303 42.0179C86.9776 42.0179 86.9013 41.9424 86.9013 41.7911C86.9013 41.6397 86.9776 41.564 87.1303 41.564Z" fill="#473700"/>
<path d="M115.74 41.0583L110.094 52.0346V57.4527H106.122V52.0346L100.476 41.0583H104.983L108.143 47.9242L111.279 41.0583H115.74ZM123.244 57.6395C121.974 57.6395 120.831 57.3671 119.817 56.8221C118.802 56.2771 118.005 55.4987 117.424 54.4867C116.843 53.4747 116.553 52.2914 116.553 50.937C116.553 49.5979 116.847 48.4186 117.436 47.3987C118.024 46.3791 118.83 45.5967 119.852 45.0517C120.874 44.5067 122.02 44.2343 123.29 44.2343C124.56 44.2343 125.706 44.5067 126.729 45.0519C127.751 45.5967 128.556 46.3791 129.145 47.3987C129.733 48.4186 130.028 49.5979 130.028 50.937C130.028 52.2759 129.73 53.4552 129.133 54.4751C128.537 55.4947 127.724 56.2771 126.694 56.8221C125.664 57.3671 124.514 57.6395 123.244 57.6395ZM123.244 54.1831C124.003 54.1831 124.649 53.9029 125.184 53.3424C125.718 52.7818 125.985 51.98 125.985 50.937C125.985 49.8938 125.726 49.092 125.207 48.5314C124.688 47.9709 124.049 47.6907 123.29 47.6907C122.516 47.6907 121.873 47.9671 121.362 48.5197C120.851 49.0725 120.595 49.8783 120.595 50.937C120.595 51.98 120.847 52.7818 121.35 53.3424C121.854 53.9029 122.485 54.1831 123.244 54.1831ZM144.943 44.4211V57.4527H140.97V55.6778C140.567 56.2538 140.021 56.717 139.332 57.0674C138.643 57.4176 137.88 57.5928 137.044 57.5928C136.053 57.5928 135.177 57.3709 134.418 56.9272C133.66 56.4834 133.071 55.8413 132.653 55.0005C132.235 54.1597 132.026 53.1711 132.026 52.0346V44.4211H135.975V51.4975C135.975 52.3693 136.2 53.0466 136.649 53.5291C137.098 54.0119 137.702 54.2531 138.461 54.2531C139.235 54.2531 139.847 54.0119 140.296 53.5291C140.746 53.0466 140.97 52.3693 140.97 51.4975V44.4211H144.943ZM151.773 46.5931C152.238 45.8768 152.818 45.3125 153.515 44.8999C154.212 44.4874 154.987 44.281 155.839 44.281V48.508H154.747C153.756 48.508 153.012 48.7221 152.517 49.1503C152.021 49.5784 151.773 50.3296 151.773 51.404V57.4527H147.8V44.4211H151.773V46.5931ZM165.643 44.2811C167.161 44.2811 168.373 44.7754 169.279 45.764C170.185 46.7527 170.638 48.1111 170.638 49.8392V57.4527H166.688V50.3763C166.688 49.5045 166.464 48.8272 166.014 48.3447C165.565 47.8619 164.961 47.6207 164.202 47.6207C163.443 47.6207 162.839 47.8619 162.39 48.3447C161.941 48.8272 161.717 49.5045 161.717 50.3763V57.4527H157.744V44.4211H161.717V46.1493C162.119 45.5733 162.661 45.1179 163.343 44.7831C164.024 44.4483 164.791 44.281 165.643 44.281V44.2811ZM179.303 57.6395C178.033 57.6395 176.891 57.3671 175.877 56.8221C174.862 56.2771 174.065 55.4987 173.484 54.4867C172.903 53.4747 172.613 52.2914 172.613 50.937C172.613 49.5979 172.907 48.4186 173.495 47.3987C174.084 46.3791 174.889 45.5967 175.911 45.0517C176.934 44.5067 178.08 44.2343 179.35 44.2343C180.62 44.2343 181.766 44.5067 182.788 45.0519C183.81 45.5967 184.616 46.3791 185.204 47.3987C185.793 48.4186 186.087 49.5979 186.087 50.937C186.087 52.2759 185.789 53.4552 185.193 54.4751C184.597 55.4947 183.783 56.2771 182.753 56.8221C181.723 57.3671 180.574 57.6395 179.303 57.6395ZM179.303 54.1831C180.062 54.1831 180.709 53.9029 181.243 53.3424C181.778 52.7818 182.045 51.98 182.045 50.937C182.045 49.8938 181.785 49.092 181.266 48.5314C180.748 47.9709 180.109 47.6907 179.35 47.6907C178.575 47.6907 177.933 47.9671 177.422 48.5197C176.91 49.0725 176.655 49.8783 176.655 50.937C176.655 51.98 176.907 52.7818 177.41 53.3424C177.913 53.9029 178.545 54.1831 179.303 54.1831ZM195.427 54.0663V57.4527H193.406C191.965 57.4527 190.842 57.0984 190.037 56.3901C189.231 55.6816 188.829 54.5256 188.829 52.9219V47.7375H187.249V44.4211H188.829V41.2451H192.801V44.4211H195.403V47.7375H192.801V52.9687C192.801 53.3579 192.894 53.6381 193.08 53.8095C193.266 53.9807 193.576 54.0663 194.01 54.0663H195.427ZM199.632 43.0666C198.935 43.0666 198.366 42.8603 197.924 42.4477C197.483 42.0352 197.262 41.5253 197.262 40.9181C197.262 40.2954 197.483 39.7776 197.924 39.365C198.366 38.9525 198.935 38.7461 199.632 38.7461C200.313 38.7461 200.875 38.9525 201.316 39.365C201.758 39.7776 201.978 40.2954 201.978 40.9181C201.978 41.5253 201.758 42.0352 201.316 42.4477C200.875 42.8603 200.313 43.0666 199.632 43.0666ZM201.606 44.4211V57.4527H197.634V44.4211H201.606ZM210.992 47.7375H208.855V57.4527H204.882V47.7375H203.442V44.4211H204.882V44.0475C204.882 42.4439 205.339 41.2256 206.253 40.3927C207.158 39.568 208.48 39.1515 210.219 39.1431H210.272C210.566 39.1431 210.783 39.1511 210.923 39.1666V42.5528C210.164 42.5061 209.629 42.6152 209.32 42.8799C209.01 43.1445 208.855 43.6194 208.855 44.3043V44.4211H210.992V47.7375ZM226.093 44.4211L217.962 63.6416H213.687L216.661 57.0091L211.387 44.4213H215.825L218.822 52.5719L221.795 44.4215H226.093V44.4211Z" fill="#473700"/>
</g>
<defs>
<clipPath id="clip0_298_9208">
<rect width="160" height="40" fill="white" transform="translate(69.7734 30)"/>
</clipPath>
</defs>
</svg>
