<svg width="300" height="100" viewBox="0 0 300 100" fill="none" xmlns="http://www.w3.org/2000/svg">
<rect width="300" height="100" fill="white"/>
<g clip-path="url(#clip0_298_9192)">
<mask id="mask0_298_9192" style="mask-type:luminance" maskUnits="userSpaceOnUse" x="94" y="30" width="110" height="40">
<path d="M203.796 30.0631H94.5703V69.7814H203.796V30.0631Z" fill="white"/>
</mask>
<g mask="url(#mask0_298_9192)">
<path d="M190.115 68.9539L201.534 61.3412C202.913 60.4035 203.74 58.8589 203.74 57.2039V35.0279C203.74 32.2697 201.534 30.0631 198.776 30.0631H99.5351C96.7769 30.0631 94.5703 32.2697 94.5703 35.0279V57.5901V59.7966V64.7615C94.5703 67.5196 96.7769 69.7262 99.5351 69.7262H187.356C188.35 69.7814 189.343 69.5055 190.115 68.9539Z" fill="#46B2C8"/>
<path d="M113.216 39.9928L109.41 52.2944V59.8519H107.479V52.2944L103.893 39.9928H105.879L108.417 48.8191L111.175 39.9928H113.216Z" fill="#C7E8EF"/>
<path d="M123.311 42.5852V57.2589C123.311 58.5828 122.318 59.6861 120.994 59.8516C120.883 59.8516 120.828 59.8516 120.718 59.8516H117.298C117.187 59.8516 117.077 59.8516 117.022 59.8516C115.698 59.6861 114.705 58.5828 114.705 57.2589V42.5852C114.705 41.1509 115.864 39.9924 117.298 39.9924H120.718C122.152 39.9924 123.311 41.1509 123.311 42.5852ZM121.38 42.5852C121.38 42.199 121.049 41.9232 120.718 41.9232H117.298C116.912 41.9232 116.636 42.2542 116.636 42.5852V57.2589C116.636 57.645 116.967 57.9208 117.298 57.9208H120.718C121.104 57.9208 121.38 57.5899 121.38 57.2589V42.5852Z" fill="#C7E8EF"/>
<path d="M133.903 57.5347C133.903 58.6931 133.02 59.6861 131.861 59.8516C131.751 59.8516 131.696 59.8516 131.586 59.8516H127.559C127.448 59.8516 127.393 59.8516 127.283 59.8516C126.124 59.6861 125.242 58.7483 125.242 57.5347V39.9924H127.172V57.5347C127.172 57.7554 127.338 57.9208 127.559 57.9208H131.586C131.806 57.9208 131.972 57.7554 131.972 57.5347V39.9924H133.903V57.5347Z" fill="#C7E8EF"/>
<path d="M142.232 57.9212C142.011 59.0245 141.074 59.7968 139.97 59.7968C138.867 59.7968 137.929 59.0245 137.709 57.9212V57.866L135.557 39.9928H137.488L139.584 57.5903C139.639 57.8109 139.805 57.866 139.97 57.866C140.136 57.866 140.301 57.8109 140.356 57.5903L142.508 39.9928H144.439L142.232 57.9212Z" fill="white"/>
<path d="M148.024 41.9232V51.1908H151.555V53.1216H148.024V57.9208H153.817V59.8516H146.094V39.9924H153.762V41.9232H148.024Z" fill="white"/>
<path d="M165.291 59.8516H162.974L158.395 52.956C158.175 53.0112 157.954 53.0664 157.733 53.0664V59.8516H155.803V42.5852C155.803 41.1509 156.961 39.9924 158.395 39.9924H161.816C163.25 39.9924 164.408 41.1509 164.408 42.5852V45.4537C164.408 48.4326 162.698 51.0253 160.216 52.2941L165.291 59.8516ZM157.733 51.1357C160.437 50.6944 162.533 48.3223 162.533 45.4537V42.5852C162.533 42.199 162.202 41.9232 161.871 41.9232H158.451C158.064 41.9232 157.789 42.2542 157.789 42.5852L157.733 51.1357Z" fill="white"/>
<path d="M167.222 39.9924H169.152V59.8516H167.222V39.9924Z" fill="white"/>
<path d="M173.345 41.9232V51.1908H176.876V53.1216H173.345V59.8516H171.414V39.9924H179.082V41.9232H173.345Z" fill="white"/>
<path d="M189.453 39.9924L185.647 52.2941V59.8516H183.716V52.2941L180.13 39.9924H182.116L184.653 48.8187L187.412 39.9924H189.453Z" fill="white"/>
</g>
</g>
<defs>
<clipPath id="clip0_298_9192">
<rect width="109.231" height="40" fill="white" transform="translate(94.5703 30)"/>
</clipPath>
</defs>
</svg>
