<svg width="300" height="100" viewBox="0 0 300 100" fill="none" xmlns="http://www.w3.org/2000/svg">
<rect width="300" height="100" fill="white"/>
<g clip-path="url(#clip0_298_9176)">
<mask id="mask0_298_9176" style="mask-type:luminance" maskUnits="userSpaceOnUse" x="6" y="30" width="287" height="40">
<path d="M292.477 30H6.47656V70H292.477V30Z" fill="white"/>
</mask>
<g mask="url(#mask0_298_9176)">
<path fill-rule="evenodd" clip-rule="evenodd" d="M37.9626 30H6.48577V37.9739H27.4704L6.47656 62.1008V69.9254H37.9626V61.914H16.9688L37.9626 38.2166V30Z" fill="#F87E14"/>
<path fill-rule="evenodd" clip-rule="evenodd" d="M54.9343 42.4011C55.0247 41.9932 55.1479 41.5935 55.3027 41.206C55.4947 40.8106 55.7197 40.4326 55.9753 40.0762C56.3373 39.5523 56.7715 39.0838 57.2649 38.685C57.7693 38.2564 58.3559 37.9385 58.9875 37.7513C59.7521 37.4945 60.5435 37.3285 61.3457 37.2564C62.2669 37.1724 63.3355 37.1257 64.6251 37.1257H74.7581V30.0015H61.6681C60.5997 29.9893 59.5317 30.0517 58.4717 30.1882C57.6069 30.282 56.7527 30.457 55.9199 30.7111C55.1763 30.9481 54.4669 31.2841 53.8105 31.7102C53.1245 32.1531 52.4827 32.6629 51.8945 33.2321C47.8597 37.0416 45.8423 42.5692 45.8423 49.684C45.7911 52.7326 46.1853 55.772 47.0121 58.7036C47.6979 61.1614 48.8911 63.4432 50.5127 65.3984C51.1931 66.2094 51.9767 66.9254 52.8433 67.5272C53.7297 68.1428 54.7101 68.6066 55.7449 68.8998C56.9941 69.2688 58.2735 69.5218 59.5679 69.656C61.2353 69.8148 62.9025 69.8988 64.5699 69.8988H74.7029V62.7746H64.9291C63.3807 62.8016 61.8345 62.6418 60.3233 62.2984C59.1577 62.0446 58.0683 61.5132 57.1451 60.7484C56.3063 59.9886 55.6723 59.0246 55.3027 57.9474C54.8283 56.3688 54.5377 54.7392 54.4369 53.092H74.7029V45.9585H54.4369C54.5197 44.9595 54.5843 44.6887 54.6487 44.0911C54.7133 43.4936 54.8329 42.8493 54.9343 42.4011Z" fill="#F87E14"/>
<path fill-rule="evenodd" clip-rule="evenodd" d="M272.697 42.401C272.795 41.9795 272.927 41.5672 273.093 41.1685C273.281 40.7712 273.507 40.3929 273.765 40.0387C274.127 39.5173 274.557 39.0492 275.045 38.6475C275.541 38.2264 276.115 37.909 276.731 37.7138C277.515 37.4645 278.325 37.3109 279.145 37.2563C280.067 37.1722 281.135 37.1255 282.425 37.1255H292.557V30.0014H279.439C278.371 29.9898 277.303 30.0522 276.243 30.1881C275.381 30.2827 274.531 30.4578 273.701 30.711C272.955 30.9498 272.243 31.2856 271.583 31.71C270.897 32.1554 270.257 32.6649 269.667 33.232C265.641 37.0415 263.613 42.5691 263.613 49.6839C263.577 52.7348 263.987 55.7744 264.829 58.7036C265.513 61.1606 266.703 63.4426 268.321 65.3982C269.005 66.2096 269.791 66.9254 270.661 67.527C271.547 68.1426 272.527 68.6064 273.563 68.8996C274.811 69.2686 276.091 69.5218 277.385 69.6558C279.043 69.8146 280.721 69.8986 282.387 69.8986H292.521V62.7744H282.757C281.207 62.802 279.661 62.642 278.151 62.2982C277.001 62.0358 275.929 61.505 275.019 60.7484C274.183 59.986 273.549 59.0228 273.175 57.9472C272.705 56.3682 272.417 54.7386 272.319 53.092H292.585V45.9584H272.319C272.393 44.9593 272.457 44.6886 272.531 44.091C272.605 43.4934 272.613 42.8492 272.697 42.401Z" fill="#F87E14"/>
<path fill-rule="evenodd" clip-rule="evenodd" d="M113.84 45.6865C113.695 44.3345 113.465 42.9934 113.149 41.6715C112.869 40.4808 112.509 39.3109 112.072 38.1701C111.719 37.2272 111.262 36.3281 110.708 35.4904C109.424 33.5885 107.604 32.124 105.485 31.2887C102.767 30.3301 99.8958 29.8932 97.0194 30.0002H82.5752V69.8974H97.0194C98.1432 69.8974 99.129 69.8974 99.9764 69.8414C100.718 69.8418 101.46 69.7982 102.196 69.7108C102.823 69.6268 103.394 69.552 103.91 69.4492C104.415 69.3396 104.911 69.1896 105.393 69.0012C107.125 68.3946 108.678 67.3538 109.907 65.976C111.207 64.418 112.151 62.5878 112.67 60.6164C113.144 58.9558 113.492 57.2608 113.711 55.5464C114.15 52.2774 114.194 48.9662 113.84 45.6865ZM105.476 55.8358C105.172 57.3656 104.591 58.8252 103.762 60.1402C103.103 61.05 102.188 61.7368 101.137 62.1104C99.8228 62.5864 98.433 62.8112 97.0378 62.7732H90.4514V37.1244H97.0378C98.24 37.0867 99.4412 37.2283 100.603 37.5445C101.502 37.8168 102.323 38.3035 102.998 38.9638C104.117 40.1908 104.899 41.6945 105.264 43.3242C105.847 45.4899 106.129 47.7275 106.102 49.9722C106.111 51.9444 105.901 53.9114 105.476 55.8358Z" fill="#F87E14"/>
<path fill-rule="evenodd" clip-rule="evenodd" d="M216.385 30V56.592L202.567 30H192.774V69.8972L200.641 70V43.296L214.847 69.8972H224.261V30H216.385Z" fill="#F87E14"/>
<path fill-rule="evenodd" clip-rule="evenodd" d="M239.609 40.3548C241.139 38.1948 243.669 37.118 247.201 37.1242H258.375V30H246.289C244.591 29.9997 242.899 30.1591 241.231 30.4762C239.843 30.7057 238.501 31.1564 237.251 31.8114C234.563 33.2571 232.479 35.6375 231.383 38.5154C229.937 42.1719 229.241 46.0894 229.339 50.028C229.283 53.2058 229.693 56.3744 230.555 59.4304C231.221 61.8546 232.427 64.091 234.083 65.9664C234.721 66.6736 235.443 67.3006 236.229 67.8338C237.017 68.3364 237.865 68.7348 238.753 69.0196C239.781 69.3382 240.835 69.557 241.903 69.6732C243.253 69.8192 244.609 69.8908 245.967 69.888H258.375V62.7732H247.467C244.585 62.7732 242.437 62.1662 241.019 60.9804C239.803 59.8284 238.963 58.3262 238.615 56.676C238.013 54.2536 237.733 51.76 237.785 49.2624C237.769 47.4465 237.923 45.6331 238.247 43.8469C238.435 42.5935 238.901 41.3997 239.609 40.3548Z" fill="#F87E14"/>
<path fill-rule="evenodd" clip-rule="evenodd" d="M187.526 69.776L171.958 30H164.091L179.834 69.8972L187.526 69.776Z" fill="#823E06"/>
<path fill-rule="evenodd" clip-rule="evenodd" d="M148.516 69.776L164.084 30H171.951L156.208 69.8972L148.516 69.776Z" fill="#F87E14"/>
<path fill-rule="evenodd" clip-rule="evenodd" d="M156.076 30L140.296 69.8972H132.42L148.172 30H156.076Z" fill="#823E06"/>
<path fill-rule="evenodd" clip-rule="evenodd" d="M140.295 69.8972L124.552 30H116.676L132.437 69.8972H140.295Z" fill="#F87E14"/>
</g>
</g>
<defs>
<clipPath id="clip0_298_9176">
<rect width="286" height="40" fill="white" transform="translate(6.47656 30)"/>
</clipPath>
</defs>
</svg>
