<svg width="300" height="100" viewBox="0 0 300 100" fill="none" xmlns="http://www.w3.org/2000/svg">
<rect width="300" height="100" fill="white"/>
<g clip-path="url(#clip0_291_8065)">
<path fill-rule="evenodd" clip-rule="evenodd" d="M134.572 41.0328C135.34 38.543 136.341 34.9025 137.576 30.1112H168.508L134.572 57.9471L149.855 39.249C145.374 39.2419 141.016 39.2383 136.781 39.2383C135.33 39.4854 134.268 41.803 134.572 41.0328Z" fill="#868786"/>
<path fill-rule="evenodd" clip-rule="evenodd" d="M166.596 33.3394L131.968 61.6677L164.137 61.4835C165.456 55.755 166.333 51.7102 166.767 49.3491C166.767 48.3084 166.038 51.8918 164.137 52.1864C160.319 52.3014 155.996 52.3589 151.169 52.3589L166.596 33.3394Z" fill="#E3200F"/>
<path fill-rule="evenodd" clip-rule="evenodd" d="M133.934 68.6436L136.988 68.6528L136.774 69.8852H131.758L131.917 68.9723L135.736 64.4854L132.673 64.4762L132.891 63.2393H137.894L137.739 64.1293L133.934 68.6436ZM141.999 67.0689H139.564L139.286 68.6528H142.168L141.954 69.8852H137.516L138.663 63.2393H143.11L142.896 64.4762H140.01L139.764 65.8775H142.204L141.999 67.0689ZM147.999 69.8852H146.492L144.908 65.6904L144.18 69.8852H142.623L143.77 63.2393H145.29L146.87 67.434L147.593 63.2393H149.15L147.999 69.8852ZM150.68 69.8852H149.123L150.274 63.2393H151.827L150.68 69.8852ZM157.648 64.4762H155.718L154.785 69.8852H153.224L154.162 64.4762H152.264L152.482 63.2393H157.862L157.648 64.4762ZM162.783 69.8852H161.235L161.713 67.11H159.442L158.959 69.8852H157.403L158.55 63.2393H160.111L159.651 65.8775H161.927L162.382 63.2393H163.934L162.783 69.8852Z" fill="#868786"/>
</g>
<defs>
<clipPath id="clip0_291_8065">
<rect width="37.2222" height="40" fill="white" transform="translate(131.389 30)"/>
</clipPath>
</defs>
</svg>
