<svg width="300" height="100" viewBox="0 0 300 100" fill="none" xmlns="http://www.w3.org/2000/svg">
<rect width="300" height="100" fill="white"/>
<g clip-path="url(#clip0_291_8073)">
<path d="M83.4429 30.534C83.5715 30.3658 83.7298 30.2273 83.908 30.1284C84.3038 29.9107 84.8975 29.8216 85.0756 31.1178C85.313 32.8891 87.0744 32.701 87.4504 32.6516C87.5097 32.6417 87.5691 32.6417 87.6186 32.6318L103.164 31.9094H103.233C103.46 31.8897 105.212 31.7907 103.609 33.8884C101.897 36.1346 92.6551 47.3457 89.6273 52.6889C86.5994 58.0323 86.3322 60.0112 89.558 60.8028C92.764 61.5846 97.3949 61.2086 104.42 59.8431C104.519 59.8232 104.618 59.7935 104.707 59.754C104.895 59.6748 105.192 59.6254 104.598 60.4665C103.955 61.3866 100.255 66.2748 98.9286 68.0262C98.6316 68.422 98.1766 68.6595 97.6818 68.6792C94.9112 68.7882 85.5703 69.0949 83.5517 68.6495C81.1868 68.1251 76.4174 67.67 78.2381 62.2871C78.2579 62.2178 78.2876 62.1486 78.3173 62.0892C78.6636 61.3866 80.8306 57.1515 84.9667 52.5306C84.9865 52.5108 85.0063 52.4812 85.0261 52.4515L93.9316 41.1415C93.981 41.0821 94.0306 41.0228 94.09 40.9733C94.2383 40.8347 94.5055 40.3994 91.7844 40.617C91.7547 40.617 91.7151 40.617 91.6854 40.627C91.0917 40.7061 85.1745 41.4977 80.1775 40.6962C80.1479 40.6962 80.1083 40.6863 80.0786 40.6863C79.6927 40.6467 77.0408 40.3202 77.8423 37.9157C77.9413 37.5991 82.6513 31.5532 83.4429 30.534Z" fill="#FF0000"/>
<path d="M107.874 37.0155L112.683 33.3741C112.931 33.1861 113.297 33.2356 113.485 33.4829C113.505 33.5027 113.524 33.5324 113.534 33.5621C114.039 34.5219 115.177 36.303 116.721 36.5009C116.81 36.5108 116.889 36.5405 116.968 36.59C117.106 36.6889 117.235 36.8967 116.81 37.2332C116.196 37.718 113.267 40.1918 112.842 40.5579C112.802 40.5876 112.763 40.6172 112.723 40.637C112.377 40.8052 110.793 41.4682 109.448 40.6172C109.428 40.6073 109.418 40.5974 109.398 40.5876C109.23 40.4589 108.191 39.598 107.667 37.619C107.607 37.4014 107.686 37.1639 107.874 37.0155Z" fill="#FF0000"/>
<path d="M105.606 49.2851C105.428 49.3741 105.21 49.3048 105.121 49.1168C105.121 49.1069 105.111 49.1069 105.111 49.0971C104.973 48.7606 104.963 48.2064 105.863 47.5929C107.318 46.6035 113.255 42.5168 113.255 42.5168C113.255 42.5168 115.431 41.0623 115.827 44.2287C116.203 47.1972 116.688 62.1189 116.747 63.9594C116.747 64.078 116.698 64.1869 116.599 64.2561L110.405 68.9761C110.247 69.0948 110.019 69.0651 109.89 68.9068C109.841 68.8474 109.811 68.7683 109.811 68.6891V53.0748C109.811 53.0748 109.692 47.2368 105.606 49.2851Z" fill="#FF0000"/>
<path d="M118.521 49.8986C118.442 49.9481 118.333 49.9381 118.264 49.8689C118.056 49.6413 117.798 49.0575 118.986 48.0679C120.52 46.7915 125.388 43.1007 125.695 42.8731C125.705 42.8632 125.714 42.8533 125.734 42.8533C125.982 42.7346 128.376 41.7352 128.812 46.4255C129.277 51.363 129.475 50.9078 129.475 55.0439C129.475 55.0539 129.475 55.0736 129.475 55.0835C129.504 55.2123 129.682 55.8553 130.464 54.5987C131.325 53.2133 138.904 43.6251 140.755 42.6752C140.755 42.6752 143.654 40.6072 144.98 46.6135C146.217 52.2635 147.582 62.8215 147.741 64.0484C147.751 64.1176 147.721 64.1969 147.662 64.2364L141.853 68.6496C141.764 68.7189 141.636 68.699 141.566 68.6099C141.546 68.5804 141.527 68.5407 141.527 68.5012C141.398 66.7003 140.784 58.9327 139.449 54.8658V54.8559C139.409 54.7075 138.271 50.5516 134.897 53.0155C134.897 53.0155 130.345 56.073 125.121 68.7584C125.091 68.8376 125.012 68.887 124.933 68.887H123.745C123.636 68.887 123.538 68.7979 123.538 68.6793C123.538 67.0169 123.547 55.7959 122.627 52.3723C122.627 52.3624 122.627 52.3624 122.627 52.3526C122.578 52.115 121.875 47.8998 118.521 49.8986Z" fill="#FF0000"/>
<path d="M155.142 50.1362C153.47 51.5908 151.233 53.6291 150.551 54.6285C150.481 54.7274 150.442 54.8363 150.432 54.9451C150.293 55.9643 149.611 61.6045 151.639 64.4147C153.539 67.0468 155.686 68.2045 156.29 68.4914C156.389 68.541 156.508 68.5707 156.626 68.5707H160.931C160.99 68.5707 161.049 68.5607 161.109 68.5508C161.732 68.4023 165.205 67.3831 168.797 62.3071C172.161 57.5377 172.191 56.2513 172.122 55.9742C172.102 55.905 172.092 55.8456 172.092 55.7763L172.132 50.3242C172.132 50.255 172.122 50.1956 172.112 50.1362C171.914 49.3743 170.469 44.3674 165.304 42.7842C165.304 42.7842 161.376 41.2208 155.479 46.0397C155.152 46.3068 155.103 46.7917 155.36 47.1182C155.508 47.3062 155.736 47.4051 155.983 47.4051H156.033C156.052 47.4051 156.082 47.4051 156.102 47.3953C156.616 47.326 163.454 46.6136 166.393 55.4993C166.412 55.5685 166.422 55.6379 166.432 55.7071L166.68 60.5853C166.689 60.6843 166.67 60.7833 166.64 60.8723C166.472 61.3473 165.878 62.8314 164.78 63.1679C164.78 63.1679 160.129 65.7208 156.24 56.8648C156.211 56.8054 156.191 56.7362 156.181 56.667C155.934 54.7374 156.003 52.7782 156.399 50.8685C156.478 50.4528 156.211 50.0471 155.795 49.968C155.558 49.9283 155.32 49.9877 155.142 50.1362Z" fill="#FF0000"/>
<path d="M185.153 64.4938L180.373 68.6992C180.225 68.8278 180.017 68.8774 179.829 68.818C178.929 68.5409 176.287 67.6503 175.228 66.3541C175.07 66.1661 174.99 65.9187 174.99 65.6714V65.315C174.99 64.7907 175.218 64.286 175.614 63.9497L184.292 56.4394L180.66 50.3044C180.66 50.3044 178.751 48.454 177.89 48.2561C177.197 48.0978 175.277 47.9395 174.545 47.8801C174.278 47.8603 174.08 47.6327 174.1 47.3755C174.1 47.326 174.11 47.2864 174.13 47.2469C174.199 47.0786 174.347 46.8906 174.664 46.6829L178.82 43.9122L195.117 66.8686C195.117 66.8686 193.336 69.3721 191.822 67.3337C190.308 65.2954 185.291 57.9038 185.291 57.9038L182.441 60.2983C181.927 60.7238 181.63 61.357 181.63 62.0201C181.63 62.9601 182.273 64.1178 185.153 64.4938Z" fill="#FF0000"/>
<path d="M189.746 45.5648L194.466 41.4088C194.654 41.2406 194.911 41.1911 195.148 41.2604C196.069 41.5474 198.374 42.3489 199.482 43.4967C199.75 43.7836 199.908 44.1596 199.898 44.5554V44.8523C199.898 45.3075 199.7 45.7329 199.364 46.0299L190.597 53.6094L194.04 59.4277C194.169 59.6452 194.327 59.8432 194.515 60.0114C195.079 60.526 196.346 61.6442 196.999 61.7925C197.672 61.9508 199.542 62.1092 200.304 62.1685C200.581 62.1883 200.789 62.4357 200.769 62.7128C200.759 62.7919 200.739 62.8711 200.69 62.9503C200.571 63.1283 200.413 63.2768 200.225 63.3857L196.069 66.1562L179.772 43.1998C179.772 43.1998 181.553 40.6964 183.067 42.7348C184.581 44.7731 189.597 52.1646 189.597 52.1646L192.447 49.7702C192.962 49.3446 193.258 48.7114 193.258 48.0483C193.268 47.0985 192.625 45.9408 189.746 45.5648Z" fill="#FF0000"/>
<path d="M210 46.6433V37.6923H213.024C213.724 37.6923 214.298 37.8117 214.746 38.0506C215.195 38.2867 215.527 38.6116 215.743 39.0253C215.959 39.4391 216.066 39.9096 216.066 40.437C216.066 40.9644 215.959 41.4321 215.743 41.84C215.527 42.2479 215.197 42.5684 214.751 42.8015C214.305 43.0317 213.735 43.1468 213.042 43.1468H210.594V42.1678H213.007C213.485 42.1678 213.87 42.0979 214.161 41.958C214.455 41.8181 214.668 41.62 214.799 41.3636C214.933 41.1043 215 40.7954 215 40.437C215 40.0786 214.933 39.7654 214.799 39.4973C214.665 39.2293 214.451 39.0224 214.156 38.8767C213.862 38.7281 213.473 38.6538 212.99 38.6538H211.084V46.6433H210ZM214.213 42.6223L216.416 46.6433H215.157L212.99 42.6223H214.213Z" fill="#FF0000"/>
<path fill-rule="evenodd" clip-rule="evenodd" d="M213.077 50C217.325 50 220.769 46.556 220.769 42.3077C220.769 38.0593 217.325 34.6154 213.077 34.6154C208.829 34.6154 205.385 38.0593 205.385 42.3077C205.385 46.556 208.829 50 213.077 50ZM213.077 51.5384C218.175 51.5384 222.308 47.4057 222.308 42.3077C222.308 37.2097 218.175 33.0769 213.077 33.0769C207.979 33.0769 203.846 37.2097 203.846 42.3077C203.846 47.4057 207.979 51.5384 213.077 51.5384Z" fill="#FF0000"/>
</g>
<defs>
<clipPath id="clip0_291_8073">
<rect width="144.615" height="40" fill="white" transform="translate(77.6923 30)"/>
</clipPath>
</defs>
</svg>
